<svg id="Calque_1" data-name="Calque 1" xmlns="http://www.w3.org/2000/svg" xmlns:xlink="http://www.w3.org/1999/xlink" viewBox="0 0 218.1 205.3"><defs><clipPath id="clip-path"><rect x="-4.4" y="2" width="223.5" height="196.6" fill="none"/></clipPath><clipPath id="clip-path-2"><rect x="-4.4" y="-198.4" width="223.5" height="196.6" fill="none"/></clipPath></defs><title>3-4-2-12</title><g id="BAS"><g opacity="0.6"><g clip-path="url(#clip-path)"><path d="M9.8,194.8a7,7,0,0,1-7-7V-182.9a7,7,0,0,1,7-7H208.4a7,7,0,0,1,7,7V187.8a7,7,0,0,1-7,7Z" fill="none" stroke="#fff" stroke-miterlimit="10" stroke-width="0.73"/><path d="M210.2-184.7H7.9V189.7H210.2V-184.7Zm-1.4,1.4V188.3H9.3V-183.3H208.8" fill="#fff"/><line x1="208.8" y1="2.5" x2="9.3" y2="2.5" fill="none" stroke="#fff" stroke-miterlimit="10" stroke-width="1.39"/><path d="M208.8,178.5a9.82,9.82,0,0,0-9.8,9.8" fill="none" stroke="#fff" stroke-miterlimit="10" stroke-width="1.39"/><path d="M9.3,178.5a9.82,9.82,0,0,1,9.8,9.8" fill="none" stroke="#fff" stroke-miterlimit="10" stroke-width="1.39"/><path d="M169,126.3H49.1v61.9H169Zm-1.3,1.4v60.7H50.5V127.7H167.7" fill="#fff"/><path d="M141,167.6H77.1v20.6H141Zm-1.4,1.4v19.5H78.5V169h61.1" fill="#fff"/><path d="M112.3,147a5,5,0,0,1-.2,1.2,3,3,0,0,1-1.8,1.8,2.54,2.54,0,0,1-1.2.2,5,5,0,0,1-1.2-.2,3,3,0,0,1-1.8-1.8,2.54,2.54,0,0,1-.2-1.2,5,5,0,0,1,.2-1.2,3,3,0,0,1,1.8-1.8,2.54,2.54,0,0,1,1.2-.2,5,5,0,0,1,1.2.2,3,3,0,0,1,1.8,1.8A2.54,2.54,0,0,1,112.3,147Z" fill="#fff"/><path d="M109.1,111.8a29.77,29.77,0,0,0-25.4,13.8l-1.4,2.1h53.4l-1.4-2.1A29.41,29.41,0,0,0,109.1,111.8Zm0,1.4a28.54,28.54,0,0,1,24.2,13.1H84.9a28.65,28.65,0,0,1,24.2-13.1" fill="#fff"/><path d="M139.7,2.5c0,1,0,2-.1,3s-.2,2-.4,3a24.6,24.6,0,0,1-.7,2.9c-.3.9-.6,1.9-1,2.8s-.8,1.8-1.3,2.7-1,1.7-1.5,2.6l-1.8,2.4a20.89,20.89,0,0,1-2,2.2c-.7.7-1.5,1.4-2.2,2l-2.4,1.8a13.5,13.5,0,0,1-2.6,1.5c-.9.5-1.8.9-2.7,1.3s-1.9.7-2.8,1-1.9.5-2.9.7-2,.3-3,.4-2,.1-3,.1-2,0-3-.1-2-.2-3-.4a24.6,24.6,0,0,1-2.9-.7,23.07,23.07,0,0,1-2.8-1c-.9-.4-1.8-.8-2.7-1.3s-1.7-1-2.6-1.5l-2.4-1.8a20.89,20.89,0,0,1-2.2-2c-.7-.7-1.4-1.5-2-2.2s-1.2-1.6-1.8-2.4a13.5,13.5,0,0,1-1.5-2.6c-.5-.9-.9-1.8-1.3-2.7s-.7-1.9-1-2.8A24.88,24.88,0,0,1,79,8.5c-.2-1-.3-2-.4-3s-.1-2-.1-3,0-2,.1-3,.2-2,.4-3a24.6,24.6,0,0,1,.7-2.9,23.07,23.07,0,0,1,1-2.8c.4-.9.8-1.8,1.3-2.7s1-1.7,1.5-2.6l1.8-2.4a20.89,20.89,0,0,1,2-2.2c.7-.7,1.5-1.4,2.2-2l2.4-1.8a13.5,13.5,0,0,1,2.6-1.5c.9-.5,1.8-.9,2.7-1.3s1.9-.7,2.8-1,1.9-.5,2.9-.7,2-.3,3-.4,2-.1,3-.1,2,0,3,.1,2,.2,3,.4a24.6,24.6,0,0,1,2.9.7,23.07,23.07,0,0,1,2.8,1c.9.4,1.8.8,2.7,1.3s1.7,1,2.6,1.5l2.4,1.8a20.89,20.89,0,0,1,2.2,2c.7.7,1.4,1.5,2,2.2l1.8,2.4a13.5,13.5,0,0,1,1.5,2.6c.5.9.9,1.8,1.3,2.7s.7,1.9,1,2.8.5,1.9.7,2.9.3,2,.4,3A6.34,6.34,0,0,1,139.7,2.5Z" fill="none" stroke="#fff" stroke-miterlimit="10" stroke-width="1.39"/></g></g></g><g id="HAUT"><g opacity="0.6"><g clip-path="url(#clip-path-2)"><path d="M9.8-194.7a7,7,0,0,0-7,7V183a7,7,0,0,0,7,7H208.4a7,7,0,0,0,7-7V-187.7a7,7,0,0,0-7-7Z" fill="none" stroke="#fff" stroke-miterlimit="10" stroke-width="0.73"/><path d="M210.2,184.8V-189.6H7.9V184.8H210.2Zm-1.4-1.4H9.3V-188.2H208.8V183.4" fill="#fff"/><path d="M208.8,173.6a9.82,9.82,0,0,0-9.8,9.8" fill="none" stroke="#fff" stroke-miterlimit="10" stroke-width="1.39"/><path d="M9.3,173.6a9.82,9.82,0,0,1,9.8,9.8" fill="none" stroke="#fff" stroke-miterlimit="10" stroke-width="1.39"/><path d="M169,121.5H49.1v61.9H169Zm-1.3,62.2H50.5V122.9H167.7V182" fill="#fff"/><path d="M141,162.8H77.1v20.6H141Zm-1.4,20.8H78.5V164.1h61.1V182" fill="#fff"/><path d="M112.3,142.1a5,5,0,0,0-.2-1.2,2.59,2.59,0,0,0-.7-1.1,4.13,4.13,0,0,0-1.1-.7,2.54,2.54,0,0,0-1.2-.2,5,5,0,0,0-1.2.2,3,3,0,0,0-1.8,1.8,2.54,2.54,0,0,0-.2,1.2,5,5,0,0,0,.2,1.2,3,3,0,0,0,1.8,1.8,2.54,2.54,0,0,0,1.2.2,5,5,0,0,0,1.2-.2,3,3,0,0,0,1.8-1.8A2.34,2.34,0,0,0,112.3,142.1Z" fill="#fff"/><path d="M134.5,120.7a30.28,30.28,0,0,0-50.8,0l-1.4,2.1h53.4Zm-1.2.8H84.9a28.9,28.9,0,0,1,48.4,0" fill="#fff"/><path d="M139.7-2.4c0-1,0-2-.1-3s-.2-2-.4-3a24.6,24.6,0,0,0-.7-2.9c-.3-.9-.6-1.9-1-2.8s-.8-1.8-1.3-2.7-1-1.7-1.5-2.6l-1.8-2.4a20.89,20.89,0,0,0-2-2.2c-.7-.7-1.5-1.4-2.2-2l-2.4-1.8a13.5,13.5,0,0,0-2.6-1.5c-.9-.5-1.8-.9-2.7-1.3s-1.9-.7-2.8-1-1.9-.5-2.9-.7-2-.3-3-.4-2-.1-3-.1-2,0-3,.1-2,.2-3,.4a24.6,24.6,0,0,0-2.9.7,23.07,23.07,0,0,0-2.8,1c-.9.4-1.8.8-2.7,1.3s-1.7,1-2.6,1.5L89.9-26a20.89,20.89,0,0,0-2.2,2c-.7.7-1.4,1.5-2,2.2s-1.2,1.6-1.8,2.4a13.5,13.5,0,0,0-1.5,2.6c-.5.9-.9,1.8-1.3,2.7s-.7,1.9-1,2.8-.9,2-1.1,2.9-.3,2-.4,3-.1,2-.1,3,0,2,.1,3,.2,2,.4,3a24.6,24.6,0,0,0,.7,2.9,23.07,23.07,0,0,0,1,2.8c.4.9.8,1.8,1.3,2.7s1,1.7,1.5,2.6L85.3,17a20.89,20.89,0,0,0,2,2.2c.7.7,1.5,1.4,2.2,2L91.9,23a13.5,13.5,0,0,0,2.6,1.5c.9.5,1.8.9,2.7,1.3s1.9.7,2.8,1,1.9.5,2.9.7,2,.3,3,.4,2,.1,3,.1,2,0,3-.1,2-.2,3-.4a24.6,24.6,0,0,0,2.9-.7,23.07,23.07,0,0,0,2.8-1c.9-.4,1.8-.8,2.7-1.3s1.7-1,2.6-1.5l2.4-1.8a20.89,20.89,0,0,0,2.2-2c.7-.7,1.4-1.5,2-2.2l1.8-2.4a13.5,13.5,0,0,0,1.5-2.6c.5-.9.9-1.8,1.3-2.7s.7-1.9,1-2.8.5-1.9.7-2.9.3-2,.4-3A6.34,6.34,0,0,0,139.7-2.4Z" fill="none" stroke="#fff" stroke-miterlimit="10" stroke-width="1.39"/></g></g></g><g id="_3421" data-name="3421"><path d="M119.3,189.9a14.92,14.92,0,0,1-.2,2.1,6.64,6.64,0,0,1-.6,2,11.4,11.4,0,0,1-1,1.9,10,10,0,0,1-2.9,2.9,11.4,11.4,0,0,1-1.9,1,7.62,7.62,0,0,1-2,.6,11.12,11.12,0,0,1-4.2,0,6.64,6.64,0,0,1-2-.6,11.4,11.4,0,0,1-1.9-1,10,10,0,0,1-2.9-2.9,11.4,11.4,0,0,1-1-1.9,7.62,7.62,0,0,1-.6-2,11.12,11.12,0,0,1,0-4.2,6.64,6.64,0,0,1,.6-2,11.4,11.4,0,0,1,1-1.9,10,10,0,0,1,2.9-2.9,11.4,11.4,0,0,1,1.9-1,7.62,7.62,0,0,1,2-.6,11.13,11.13,0,0,1,4.2,0,6.64,6.64,0,0,1,2,.6,11.4,11.4,0,0,1,1.9,1,10,10,0,0,1,2.9,2.9,11.4,11.4,0,0,1,1,1.9,7.62,7.62,0,0,1,.6,2A7.49,7.49,0,0,1,119.3,189.9Z" fill="#fff"/><path d="M108.2,194.2V187a.31.31,0,0,0-.2.1c-.2,0-.3.1-.5.1a4.33,4.33,0,0,0-.5.1h-.2v-.9c.1,0,.3-.1.4-.1s.3-.1.5-.2.3-.2.5-.3a.78.78,0,0,0,.4-.4h.9v8.7h-1.3Z"/><path d="M182.8,132.7a14.92,14.92,0,0,1-.2,2.1,6.64,6.64,0,0,1-.6,2,17.38,17.38,0,0,1-1,1.9,10,10,0,0,1-2.9,2.9,11.4,11.4,0,0,1-1.9,1,7.62,7.62,0,0,1-2,.6,11.12,11.12,0,0,1-4.2,0,6.64,6.64,0,0,1-2-.6,11.4,11.4,0,0,1-1.9-1,10,10,0,0,1-2.9-2.9,11.4,11.4,0,0,1-1-1.9,7.62,7.62,0,0,1-.6-2,11.12,11.12,0,0,1,0-4.2,6.64,6.64,0,0,1,.6-2,11.4,11.4,0,0,1,1-1.9,10,10,0,0,1,2.9-2.9,11.4,11.4,0,0,1,1.9-1,7.62,7.62,0,0,1,2-.6,11.12,11.12,0,0,1,4.2,0,6.64,6.64,0,0,1,2,.6,11.4,11.4,0,0,1,1.9,1,10,10,0,0,1,2.9,2.9,11.4,11.4,0,0,1,1,1.9,7.62,7.62,0,0,1,.6,2A14.92,14.92,0,0,1,182.8,132.7Z" fill="#fff"/><path d="M169.8,137v-.8l2.2-3.5a4.23,4.23,0,0,1,.5-.7,2.12,2.12,0,0,0,.3-.7,2.22,2.22,0,0,0,.1-.9,3,3,0,0,0-.2-1,.78.78,0,0,0-.7-.3.85.85,0,0,0-.6.2.71.71,0,0,0-.3.6,2,2,0,0,0-.1.8v.3h-1.2v-.3a5.9,5.9,0,0,1,.2-1.4,1.6,1.6,0,0,1,.7-.9,2.13,2.13,0,0,1,1.2-.3,2.11,2.11,0,0,1,1.6.6,2.31,2.31,0,0,1,.5,1.7,3.08,3.08,0,0,1-.1,1,3,3,0,0,1-.4.8,9.22,9.22,0,0,1-.5.8l-2,3.1h2.8v1h-4Z"/><path d="M119.3,132.7a14.92,14.92,0,0,1-.2,2.1,6.64,6.64,0,0,1-.6,2,11.4,11.4,0,0,1-1,1.9,10,10,0,0,1-2.9,2.9,11.4,11.4,0,0,1-1.9,1,7.62,7.62,0,0,1-2,.6,11.13,11.13,0,0,1-4.2,0,6.64,6.64,0,0,1-2-.6,11.4,11.4,0,0,1-1.9-1,10,10,0,0,1-2.9-2.9,11.4,11.4,0,0,1-1-1.9,7.62,7.62,0,0,1-.6-2,11.12,11.12,0,0,1,0-4.2,6.64,6.64,0,0,1,.6-2,11.4,11.4,0,0,1,1-1.9,10,10,0,0,1,2.9-2.9,11.4,11.4,0,0,1,1.9-1,7.62,7.62,0,0,1,2-.6,11.12,11.12,0,0,1,4.2,0,6.64,6.64,0,0,1,2,.6,11.4,11.4,0,0,1,1.9,1,10,10,0,0,1,2.9,2.9,11.4,11.4,0,0,1,1,1.9,7.62,7.62,0,0,1,.6,2A7.49,7.49,0,0,1,119.3,132.7Z" fill="#fff"/><path d="M108.5,137.1a2.13,2.13,0,0,1-1.2-.3,1.39,1.39,0,0,1-.7-.8,2.17,2.17,0,0,1-.2-1.2v-.3h1.1v.2a1.48,1.48,0,0,0,.1.7,2.19,2.19,0,0,0,.3.5,1,1,0,0,0,1.2,0,1.63,1.63,0,0,0,.3-.6,2,2,0,0,0,.1-.8,1.8,1.8,0,0,0-.3-1.1,1.05,1.05,0,0,0-.9-.5h-.2v-1.2h.2a1.22,1.22,0,0,0,.9-.3,1.33,1.33,0,0,0,.3-1,3,3,0,0,0-.2-1c-.1-.3-.4-.4-.8-.4s-.7.1-.8.4a3,3,0,0,0-.2,1v.2h-1.1v-.3a3.73,3.73,0,0,1,.2-1.2,2.7,2.7,0,0,1,.7-.8,2.55,2.55,0,0,1,2.4,0,1.39,1.39,0,0,1,.7.8,2.17,2.17,0,0,1,.2,1.2,2.77,2.77,0,0,1-.3,1.3,1.15,1.15,0,0,1-.9.6,1.53,1.53,0,0,1,1.1,1.1,3,3,0,0,1,.2,1,5.9,5.9,0,0,1-.2,1.4,1.6,1.6,0,0,1-.7.9A2.23,2.23,0,0,1,108.5,137.1Z"/><path d="M59.4,132.7a14.92,14.92,0,0,1-.2,2.1,6.64,6.64,0,0,1-.6,2,11.4,11.4,0,0,1-1,1.9,10,10,0,0,1-2.9,2.9,11.4,11.4,0,0,1-1.9,1,7.62,7.62,0,0,1-2,.6,14.92,14.92,0,0,1-2.1.2,14.92,14.92,0,0,1-2.1-.2,6.64,6.64,0,0,1-2-.6,11.4,11.4,0,0,1-1.9-1,10,10,0,0,1-2.9-2.9,11.4,11.4,0,0,1-1-1.9,7.62,7.62,0,0,1-.6-2,11.12,11.12,0,0,1,0-4.2,6.64,6.64,0,0,1,.6-2,11.4,11.4,0,0,1,1-1.9,10,10,0,0,1,2.9-2.9,11.4,11.4,0,0,1,1.9-1,7.62,7.62,0,0,1,2-.6,14.92,14.92,0,0,1,2.1-.2,14.92,14.92,0,0,1,2.1.2,6.64,6.64,0,0,1,2,.6,11.4,11.4,0,0,1,1.9,1,10,10,0,0,1,2.9,2.9,11.4,11.4,0,0,1,1,1.9,7.62,7.62,0,0,1,.6,2A14.92,14.92,0,0,1,59.4,132.7Z" fill="#fff"/><path d="M47.5,133.6h1.4v-4Zm1.4,3.4v-2.3H46.4v-1.2l2.3-5.2H50v5.4h1v1H50V137Z"/><path d="M202.6,95.4a14.92,14.92,0,0,1-.2,2.1,6.64,6.64,0,0,1-.6,2,11.4,11.4,0,0,1-1,1.9,10,10,0,0,1-2.9,2.9,11.4,11.4,0,0,1-1.9,1,7.62,7.62,0,0,1-2,.6,11.13,11.13,0,0,1-4.2,0,6.64,6.64,0,0,1-2-.6,11.4,11.4,0,0,1-1.9-1,10,10,0,0,1-2.9-2.9,11.4,11.4,0,0,1-1-1.9,7.62,7.62,0,0,1-.6-2,11.13,11.13,0,0,1,0-4.2,6.64,6.64,0,0,1,.6-2,11.4,11.4,0,0,1,1-1.9,10,10,0,0,1,2.9-2.9,11.4,11.4,0,0,1,1.9-1,7.62,7.62,0,0,1,2-.6,11.12,11.12,0,0,1,4.2,0,6.64,6.64,0,0,1,2,.6,11.4,11.4,0,0,1,1.9,1,10,10,0,0,1,2.9,2.9,11.4,11.4,0,0,1,1,1.9,7.62,7.62,0,0,1,.6,2A13.61,13.61,0,0,1,202.6,95.4Z" fill="#fff"/><path d="M191.9,99.8a2.77,2.77,0,0,1-1.3-.3c-.4-.2-.5-.5-.7-.9a3,3,0,0,1-.2-1.4h1.2a2.2,2.2,0,0,0,.1.8.71.71,0,0,0,.3.6c.1.2.4.2.6.2a.91.91,0,0,0,.7-.3,4.88,4.88,0,0,0,.3-.7c0-.3.1-.7.1-1.1a3.08,3.08,0,0,0-.1-1,.6.6,0,0,0-.3-.6,1.07,1.07,0,0,0-.6-.2,1.42,1.42,0,0,0-.6.2,1,1,0,0,0-.4.5h-1V90.9h3.8v1.2H191l-.1,2.4a1,1,0,0,1,.5-.4,1.7,1.7,0,0,1,.7-.1,1.8,1.8,0,0,1,1.1.3,1.46,1.46,0,0,1,.6.9,5.07,5.07,0,0,1,.2,1.3,4.48,4.48,0,0,1-.1,1.2c-.1.4-.2.7-.3,1a2.34,2.34,0,0,1-.7.7A1.78,1.78,0,0,1,191.9,99.8Z"/><path d="M147.7,95.4a14.92,14.92,0,0,1-.2,2.1,6.64,6.64,0,0,1-.6,2,11.4,11.4,0,0,1-1,1.9,10,10,0,0,1-2.9,2.9,11.4,11.4,0,0,1-1.9,1,7.62,7.62,0,0,1-2,.6,11.12,11.12,0,0,1-4.2,0,6.64,6.64,0,0,1-2-.6,11.4,11.4,0,0,1-1.9-1,10,10,0,0,1-2.9-2.9,11.4,11.4,0,0,1-1-1.9,7.62,7.62,0,0,1-.6-2,11.12,11.12,0,0,1,0-4.2,6.64,6.64,0,0,1,.6-2,17.38,17.38,0,0,1,1-1.9,10,10,0,0,1,2.9-2.9,11.4,11.4,0,0,1,1.9-1,7.62,7.62,0,0,1,2-.6,11.12,11.12,0,0,1,4.2,0,6.64,6.64,0,0,1,2,.6,11.4,11.4,0,0,1,1.9,1,10,10,0,0,1,2.9,2.9,11.4,11.4,0,0,1,1,1.9,7.62,7.62,0,0,1,.6,2A12.48,12.48,0,0,1,147.7,95.4Z" fill="#fff"/><path d="M136.9,98.8a.85.85,0,0,0,.6-.2,1.63,1.63,0,0,0,.3-.6,2.2,2.2,0,0,0,.1-.8v-1a1,1,0,0,0-1-1c-.2,0-.3,0-.4.1s-.2.1-.3.2-.2.2-.2.3v1.3a2,2,0,0,0,.1.8,1.63,1.63,0,0,0,.3.6A.55.55,0,0,0,136.9,98.8Zm0,1a1.59,1.59,0,0,1-1.2-.4,3.59,3.59,0,0,1-.7-1,6.05,6.05,0,0,1-.2-1.5V94a7.77,7.77,0,0,1,.2-1.6,2.1,2.1,0,0,1,.7-1.1,1.7,1.7,0,0,1,1.3-.4,4.3,4.3,0,0,1,1.2.2,1,1,0,0,1,.7.7,2.13,2.13,0,0,1,.3,1.2v.2H138a3,3,0,0,0-.2-1c-.1-.2-.4-.3-.8-.3a.76.76,0,0,0-.5.2.6.6,0,0,0-.3.6,3.42,3.42,0,0,0-.1,1.1V95a1,1,0,0,1,.5-.4,1.88,1.88,0,0,1,.8-.2,1.61,1.61,0,0,1,1.1.3,2,2,0,0,1,.6.9,5.07,5.07,0,0,1,.2,1.3,5.9,5.9,0,0,1-.2,1.4,1.83,1.83,0,0,1-.7,1A2.69,2.69,0,0,1,136.9,99.8Z"/><path d="M92.7,95.4a14.92,14.92,0,0,1-.2,2.1,6.64,6.64,0,0,1-.6,2,11.4,11.4,0,0,1-1,1.9,10,10,0,0,1-2.9,2.9,11.4,11.4,0,0,1-1.9,1,7.62,7.62,0,0,1-2,.6,11.13,11.13,0,0,1-4.2,0,6.64,6.64,0,0,1-2-.6,11.4,11.4,0,0,1-1.9-1,10,10,0,0,1-2.9-2.9,11.4,11.4,0,0,1-1-1.9,7.62,7.62,0,0,1-.6-2,11.12,11.12,0,0,1,0-4.2,6.64,6.64,0,0,1,.6-2,11.4,11.4,0,0,1,1-1.9A10,10,0,0,1,76,86.5a11.4,11.4,0,0,1,1.9-1,7.62,7.62,0,0,1,2-.6,11.12,11.12,0,0,1,4.2,0,6.64,6.64,0,0,1,2,.6,11.4,11.4,0,0,1,1.9,1,10,10,0,0,1,2.9,2.9,11.4,11.4,0,0,1,1,1.9,7.62,7.62,0,0,1,.6,2A6.82,6.82,0,0,1,92.7,95.4Z" fill="#fff"/><polygon points="80.8 99.7 82.4 91.8 80.1 91.8 80.1 90.9 83.6 90.9 83.6 91.5 82 99.7 80.8 99.7"/><path d="M37.8,95.4a14.92,14.92,0,0,1-.2,2.1,6.64,6.64,0,0,1-.6,2,17.38,17.38,0,0,1-1,1.9,10,10,0,0,1-2.9,2.9,11.4,11.4,0,0,1-1.9,1,7.62,7.62,0,0,1-2,.6,14.92,14.92,0,0,1-2.1.2,14.92,14.92,0,0,1-2.1-.2,6.64,6.64,0,0,1-2-.6,11.4,11.4,0,0,1-1.9-1,10,10,0,0,1-2.9-2.9,11.4,11.4,0,0,1-1-1.9,7.62,7.62,0,0,1-.6-2,11.12,11.12,0,0,1,0-4.2,6.64,6.64,0,0,1,.6-2,11.4,11.4,0,0,1,1-1.9,10,10,0,0,1,2.9-2.9,11.4,11.4,0,0,1,1.9-1,7.62,7.62,0,0,1,2-.6,14.92,14.92,0,0,1,2.1-.2,14.92,14.92,0,0,1,2.1.2,6.64,6.64,0,0,1,2,.6,11.4,11.4,0,0,1,1.9,1A10,10,0,0,1,36,89.4a11.4,11.4,0,0,1,1,1.9,7.62,7.62,0,0,1,.6,2A12.48,12.48,0,0,1,37.8,95.4Z" fill="#fff"/><path d="M27,94.5a1.42,1.42,0,0,0,.6-.2,1.63,1.63,0,0,0,.3-.6A1.7,1.7,0,0,0,28,93a2,2,0,0,0-.2-.9.81.81,0,0,0-1.4,0,2.92,2.92,0,0,0-.2.9,1.7,1.7,0,0,0,.1.7c.1.2.1.4.3.6C26.5,94.5,26.7,94.5,27,94.5Zm0,4.4a.85.85,0,0,0,.6-.2.85.85,0,0,0,.3-.6,2,2,0,0,0,.1-.8,2.2,2.2,0,0,0-.1-.8,3.33,3.33,0,0,0-.3-.6c-.1-.2-.4-.2-.6-.2a1.07,1.07,0,0,0-.6.2.71.71,0,0,0-.3.6c0,.3-.1.5-.1.8a2,2,0,0,0,.1.8l.3.6C26.5,98.9,26.7,98.9,27,98.9Zm0,.9a2.77,2.77,0,0,1-1.3-.3c-.4-.2-.5-.5-.7-.9a5.21,5.21,0,0,1-.2-1.4,2,2,0,0,1,.1-.8c.1-.2.1-.4.2-.6a1.38,1.38,0,0,1,.3-.4c.1-.1.3-.2.4-.3a1.85,1.85,0,0,1-.7-.8,2.13,2.13,0,0,1-.3-1.2,3.73,3.73,0,0,1,.2-1.2,1.78,1.78,0,0,1,.7-.8,2.55,2.55,0,0,1,2.4,0,1.85,1.85,0,0,1,.7.8,2.34,2.34,0,0,1,.2,1.2,2.13,2.13,0,0,1-.3,1.2,2.7,2.7,0,0,1-.7.8,1.38,1.38,0,0,1,.4.3c.1.1.2.3.3.4a1.07,1.07,0,0,1,.2.6c0,.2.1.5.1.8a5.9,5.9,0,0,1-.2,1.4,1.6,1.6,0,0,1-.7.9A1.8,1.8,0,0,1,27,99.8Z"/><path d="M140.7,58a14.92,14.92,0,0,1-.2,2.1,6.64,6.64,0,0,1-.6,2,11.4,11.4,0,0,1-1,1.9,10,10,0,0,1-2.9,2.9,11.4,11.4,0,0,1-1.9,1,7.62,7.62,0,0,1-2,.6,11.12,11.12,0,0,1-4.2,0,6.64,6.64,0,0,1-2-.6,11.4,11.4,0,0,1-1.9-1,10,10,0,0,1-2.9-2.9,11.4,11.4,0,0,1-1-1.9,7.62,7.62,0,0,1-.6-2,14.92,14.92,0,0,1-.2-2.1,14.92,14.92,0,0,1,.2-2.1,6.64,6.64,0,0,1,.6-2,11.4,11.4,0,0,1,1-1.9,10,10,0,0,1,2.9-2.9,11.4,11.4,0,0,1,1.9-1,7.62,7.62,0,0,1,2-.6,11.13,11.13,0,0,1,4.2,0,6.64,6.64,0,0,1,2,.6,11.4,11.4,0,0,1,1.9,1,10,10,0,0,1,2.9,2.9,11.4,11.4,0,0,1,1,1.9,7.62,7.62,0,0,1,.6,2A14.92,14.92,0,0,1,140.7,58Z" fill="#fff"/><path d="M129.8,58a.85.85,0,0,0,.6-.2c.2-.1.3-.3.4-.4V56.1a2,2,0,0,0-.1-.8l-.3-.6a1,1,0,0,0-1.2,0c-.1.2-.3.3-.3.6s-.1.5-.1.8v1a.91.91,0,0,0,.3.7A.84.84,0,0,0,129.8,58Zm0,4.4a2.38,2.38,0,0,1-1.2-.3,1.58,1.58,0,0,1-.7-.7,2.13,2.13,0,0,1-.3-1.2h1.2a3,3,0,0,0,.2,1c.1.3.4.3.8.3a.76.76,0,0,0,.5-.2.85.85,0,0,0,.3-.6,3.42,3.42,0,0,0,.1-1.1V58.3a1,1,0,0,1-.5.4,1.88,1.88,0,0,1-.8.2,1.61,1.61,0,0,1-1.1-.3,2,2,0,0,1-.6-.9,5.07,5.07,0,0,1-.2-1.3,5.9,5.9,0,0,1,.2-1.4,1.83,1.83,0,0,1,.7-1,1.7,1.7,0,0,1,1.3-.4,1.59,1.59,0,0,1,1.2.4,3.59,3.59,0,0,1,.7,1,5.9,5.9,0,0,1,.2,1.4v2.9a7.77,7.77,0,0,1-.2,1.6,1.44,1.44,0,0,1-.7,1.1C130.8,62.3,130.4,62.4,129.8,62.4Z"/><path d="M98.5,58a14.92,14.92,0,0,1-.2,2.1,6.64,6.64,0,0,1-.6,2,11.4,11.4,0,0,1-1,1.9,10,10,0,0,1-2.9,2.9,11.4,11.4,0,0,1-1.9,1,7.62,7.62,0,0,1-2,.6,11.12,11.12,0,0,1-4.2,0,6.64,6.64,0,0,1-2-.6,11.4,11.4,0,0,1-1.9-1A10,10,0,0,1,78.9,64a11.4,11.4,0,0,1-1-1.9,7.62,7.62,0,0,1-.6-2,14.92,14.92,0,0,1-.2-2.1,14.92,14.92,0,0,1,.2-2.1,6.64,6.64,0,0,1,.6-2,11.4,11.4,0,0,1,1-1.9,10,10,0,0,1,2.9-2.9,11.4,11.4,0,0,1,1.9-1,7.62,7.62,0,0,1,2-.6,11.12,11.12,0,0,1,4.2,0,6.64,6.64,0,0,1,2,.6,11.4,11.4,0,0,1,1.9,1A10,10,0,0,1,96.7,52a11.4,11.4,0,0,1,1,1.9,7.62,7.62,0,0,1,.6,2A14.92,14.92,0,0,1,98.5,58Z" fill="#fff"/><path d="M84.7,62.3V55.1a.31.31,0,0,0-.2.1c-.2,0-.3.1-.5.1a4.33,4.33,0,0,0-.5.1h-.2v-.9c.1,0,.3-.1.4-.1s.3-.1.5-.2.3-.2.5-.3a.78.78,0,0,0,.4-.4H86v8.7H84.7Z"/><path d="M89.9,61.5a.85.85,0,0,0,.6-.2l.3-.6a2,2,0,0,0,.1-.8V56.1a2.2,2.2,0,0,0-.1-.8c-.1-.2-.1-.4-.3-.6s-.4-.2-.6-.2a.85.85,0,0,0-.6.2l-.3.6a2,2,0,0,0-.1.8v3.8a2.2,2.2,0,0,0,.1.8,3.33,3.33,0,0,0,.3.6A.85.85,0,0,0,89.9,61.5Zm0,.9a2.13,2.13,0,0,1-1.2-.3,1.6,1.6,0,0,1-.7-.9,2.74,2.74,0,0,1-.2-1.3V56.1a4.44,4.44,0,0,1,.2-1.3,2.18,2.18,0,0,1,.7-.9,2.55,2.55,0,0,1,2.4,0,1.6,1.6,0,0,1,.7.9,2.74,2.74,0,0,1,.2,1.3v3.8a4.44,4.44,0,0,1-.2,1.3,2.18,2.18,0,0,1-.7.9A2.13,2.13,0,0,1,89.9,62.4Z"/><path d="M119.3,20.7a14.92,14.92,0,0,1-.2,2.1,6.64,6.64,0,0,1-.6,2,11.4,11.4,0,0,1-1,1.9,10,10,0,0,1-2.9,2.9,11.4,11.4,0,0,1-1.9,1,7.62,7.62,0,0,1-2,.6,11.13,11.13,0,0,1-4.2,0,6.64,6.64,0,0,1-2-.6,11.4,11.4,0,0,1-1.9-1,10,10,0,0,1-2.9-2.9,11.4,11.4,0,0,1-1-1.9,7.62,7.62,0,0,1-.6-2,14.92,14.92,0,0,1-.2-2.1,14.92,14.92,0,0,1,.2-2.1,6.64,6.64,0,0,1,.6-2,11.4,11.4,0,0,1,1-1.9,10,10,0,0,1,2.9-2.9,11.4,11.4,0,0,1,1.9-1,7.62,7.62,0,0,1,2-.6,11.13,11.13,0,0,1,4.2,0,6.64,6.64,0,0,1,2,.6,11.4,11.4,0,0,1,1.9,1,10,10,0,0,1,2.9,2.9,11.4,11.4,0,0,1,1,1.9,7.62,7.62,0,0,1,.6,2A14.92,14.92,0,0,1,119.3,20.7Z" fill="#fff"/><path d="M106.1,25V17.8a.31.31,0,0,0-.2.1c-.2,0-.3.1-.5.1a4.33,4.33,0,0,0-.5.1h-.2v-.9c.1,0,.3-.1.4-.1s.3-.1.5-.2.3-.2.5-.3a.78.78,0,0,0,.4-.4h.9V25Z"/><path d="M110.4,25V17.8a.31.31,0,0,0-.2.1c-.2,0-.3.1-.5.1a4.33,4.33,0,0,0-.5.1H109v-.9c.1,0,.3-.1.4-.1s.3-.1.5-.2.3-.2.5-.3a.78.78,0,0,0,.4-.4h.9V25Z"/></g></svg>