<svg xmlns="http://www.w3.org/2000/svg" xmlns:xlink="http://www.w3.org/1999/xlink" viewBox="0 0 218.07 205.33"><defs><style>.cls-1,.cls-4,.cls-6{fill:none;}.cls-2{opacity:0.6;}.cls-3{clip-path:url(#clip-path);}.cls-4,.cls-6{stroke:#fff;stroke-miterlimit:10;}.cls-4{stroke-width:0.73px;}.cls-5{fill:#fff;}.cls-6{stroke-width:1.4px;}.cls-7{clip-path:url(#clip-path-2);}</style><clipPath id="clip-path"><rect class="cls-1" x="-4.43" y="1.97" width="223.5" height="196.55"/></clipPath><clipPath id="clip-path-2"><rect class="cls-1" x="-4.43" y="-198.41" width="223.5" height="196.55"/></clipPath></defs><title>3-4-3</title><g id="BAS"><g class="cls-2"><g class="cls-3"><path class="cls-4" d="M9.79-189.81H208.35a7,7,0,0,1,7,7V187.82a7,7,0,0,1-7,7H9.79a7,7,0,0,1-7-7V-182.84A7,7,0,0,1,9.79-189.81Z"/><path class="cls-5" d="M210.21-184.69H7.94V189.66H210.21V-184.69Zm-1.39,1.39V188.27H9.34V-183.3H208.81"/><line class="cls-6" x1="208.81" y1="2.49" x2="9.34" y2="2.49"/><path class="cls-6" d="M208.81,178.5a9.78,9.78,0,0,0-9.78,9.78"/><path class="cls-6" d="M9.34,178.5a9.78,9.78,0,0,1,9.78,9.78"/><path class="cls-5" d="M169,126.35H49.1v61.93H169Zm-1.39,1.39v60.72H50.5V127.74H167.65"/><path class="cls-5" d="M141,167.63H77.13v20.64H141Zm-1.4,1.39v19.52H78.52V169h61.09"/><path class="cls-5" d="M112.33,147a3.26,3.26,0,1,1-.25-1.25A3.23,3.23,0,0,1,112.33,147Z"/><path class="cls-5" d="M109.07,111.84A29.8,29.8,0,0,0,83.69,125.6l-1.36,2.14h53.48l-1.36-2.14A29.8,29.8,0,0,0,109.07,111.84Zm0,1.4a28.56,28.56,0,0,1,24.2,13.11H84.87a28.56,28.56,0,0,1,24.2-13.11"/><path class="cls-6" d="M139.72,2.49q0,1.51-.15,3t-.44,3q-.29,1.48-.73,2.92t-1,2.83q-.58,1.39-1.29,2.72t-1.55,2.58q-.84,1.25-1.79,2.42t-2,2.23q-1.06,1.06-2.23,2T126.1,28q-1.25.84-2.58,1.55T120.8,30.8q-1.39.58-2.83,1t-2.92.73q-1.48.29-3,.44t-3,.15q-1.51,0-3-.15t-3-.44q-1.48-.29-2.92-.73t-2.83-1q-1.39-.58-2.72-1.29T92.05,28q-1.25-.84-2.42-1.79t-2.23-2q-1.06-1.06-2-2.23T83.6,19.51q-.84-1.25-1.55-2.58t-1.29-2.72q-.58-1.39-1-2.83T79,8.47q-.29-1.48-.44-3t-.15-3q0-1.51.15-3t.44-3q.29-1.48.73-2.92t1-2.83q.58-1.39,1.29-2.72t1.55-2.58q.84-1.25,1.79-2.42t2-2.23q1.06-1.06,2.23-2T92.05-23q1.25-.84,2.58-1.55t2.72-1.29q1.39-.58,2.83-1t2.92-.73q1.48-.29,3-.44t3-.15q1.51,0,3,.15t3,.44q1.48.29,2.92.73t2.83,1q1.39.58,2.72,1.29T126.1-23q1.25.84,2.42,1.79t2.23,2q1.06,1.06,2,2.23t1.79,2.42q.84,1.25,1.55,2.58t1.29,2.72q.58,1.39,1,2.83t.73,2.92q.29,1.48.44,3T139.72,2.49Z"/></g></g></g><g id="HAUT"><g class="cls-2"><g class="cls-7"><path class="cls-4" d="M9.79-194.68H208.35a7,7,0,0,1,7,7V182.95a7,7,0,0,1-7,7H9.79a7,7,0,0,1-7-7V-187.7A7,7,0,0,1,9.79-194.68Z"/><path class="cls-5" d="M210.21,184.8V-189.55H7.94V184.8H210.21Zm-1.4-1.39H9.34V-188.16H208.81V183.41"/><path class="cls-6" d="M208.81,173.63a9.78,9.78,0,0,0-9.78,9.78"/><path class="cls-6" d="M9.34,173.63a9.78,9.78,0,0,1,9.78,9.78"/><path class="cls-5" d="M169,121.48H49.1v61.93H169Zm-1.39,62.18H50.5V122.87H167.65V182"/><path class="cls-5" d="M141,162.76H77.13v20.65H141Zm-1.4,20.88H78.52V164.16h61.09V182"/><path class="cls-5" d="M112.33,142.12a3.26,3.26,0,1,0-.25,1.25A3.23,3.23,0,0,0,112.33,142.12Z"/><path class="cls-5" d="M134.46,120.73a30.3,30.3,0,0,0-50.76,0l-1.36,2.14h53.48Zm-1.18.75H84.87a28.9,28.9,0,0,1,48.41,0"/><path class="cls-6" d="M139.72-2.38q0-1.51-.15-3t-.44-3q-.29-1.48-.73-2.92t-1-2.83q-.58-1.39-1.29-2.72t-1.55-2.58q-.84-1.25-1.79-2.42t-2-2.23q-1.06-1.06-2.23-2t-2.42-1.79q-1.25-.84-2.58-1.55t-2.72-1.29q-1.39-.58-2.83-1t-2.92-.73q-1.48-.29-3-.44t-3-.15q-1.51,0-3,.15t-3,.44q-1.48.29-2.92.73t-2.83,1q-1.39.58-2.72,1.29t-2.58,1.55q-1.25.84-2.42,1.79t-2.23,2q-1.06,1.06-2,2.23T83.6-19.4q-.84,1.25-1.55,2.58T80.77-14.1q-.58,1.39-1,2.83T79-8.36q-.29,1.48-.44,3t-.15,3q0,1.51.15,3t.44,3q.29,1.48.73,2.92t1,2.83q.58,1.39,1.29,2.72t1.55,2.58q.84,1.25,1.79,2.42t2,2.23q1.06,1.06,2.23,2t2.42,1.79q1.25.84,2.58,1.55t2.72,1.29q1.39.58,2.83,1t2.92.73q1.48.29,3,.44t3,.15q1.51,0,3-.15t3-.44q1.48-.29,2.92-.73t2.83-1q1.39-.58,2.72-1.29t2.58-1.55q1.25-.84,2.42-1.79t2.23-2q1.06-1.06,2-2.23t1.79-2.42q.84-1.25,1.55-2.58t1.29-2.72q.58-1.39,1-2.83t.73-2.92q.29-1.48.44-3T139.72-2.38Z"/></g></g></g><g id="_343" data-name="343"><path class="cls-5" d="M120.2,189.89a10.8,10.8,0,1,1-.21-2.11A10.77,10.77,0,0,1,120.2,189.89Z"/><path d="M109.11,194.21V187l-.24.06-.52.11-.52.1-.24,0v-.87l.43-.12.5-.18a2.68,2.68,0,0,0,.49-.27,1.71,1.71,0,0,0,.39-.38h.87v8.75Z"/><path class="cls-5" d="M173.48,132.29a10.8,10.8,0,1,1-.21-2.11A10.77,10.77,0,0,1,173.48,132.29Z"/><path d="M160.54,136.61v-.82l2.22-3.47.46-.72a3.68,3.68,0,0,0,.35-.71,2.51,2.51,0,0,0,.14-.86,2,2,0,0,0-.19-1,.71.71,0,0,0-.68-.35.86.86,0,0,0-.64.23,1.21,1.21,0,0,0-.31.59,3.44,3.44,0,0,0-.09.79v.29h-1.16v-.3a3.9,3.9,0,0,1,.21-1.36,1.76,1.76,0,0,1,.68-.88,2.22,2.22,0,0,1,1.25-.31,2,2,0,0,1,1.58.6,2.45,2.45,0,0,1,.52,1.66,3.23,3.23,0,0,1-.13,1,3.89,3.89,0,0,1-.35.79q-.22.37-.48.76l-2,3.07h2.76v1Z"/><path class="cls-5" d="M120.2,146.69a10.8,10.8,0,1,1-.21-2.11A10.77,10.77,0,0,1,120.2,146.69Z"/><path d="M109.39,151.11a2.38,2.38,0,0,1-1.19-.27,1.7,1.7,0,0,1-.71-.78,2.8,2.8,0,0,1-.24-1.2v-.29h1.14v.19a3.16,3.16,0,0,0,.09.7,1,1,0,0,0,.29.5,1.11,1.11,0,0,0,1.25,0,1,1,0,0,0,.29-.57,4.21,4.21,0,0,0,.08-.84,2.23,2.23,0,0,0-.25-1.13,1,1,0,0,0-.89-.48h-.16v-1.16h.15a1.19,1.19,0,0,0,.89-.32,1.5,1.5,0,0,0,.27-1,1.94,1.94,0,0,0-.2-1,.83.83,0,0,0-.79-.36.79.79,0,0,0-.79.39,2.49,2.49,0,0,0-.22,1v.18h-1.14v-.29a2.76,2.76,0,0,1,.24-1.2,1.7,1.7,0,0,1,.72-.77,2.78,2.78,0,0,1,2.39,0,1.7,1.7,0,0,1,.71.77,2.8,2.8,0,0,1,.24,1.2,2.13,2.13,0,0,1-.34,1.26,1.69,1.69,0,0,1-.91.65,1.5,1.5,0,0,1,.67.41,2,2,0,0,1,.43.74,3.26,3.26,0,0,1,.15,1,3.87,3.87,0,0,1-.22,1.36,1.81,1.81,0,0,1-.69.9A2.21,2.21,0,0,1,109.39,151.11Z"/><path class="cls-5" d="M66.92,132.29a10.8,10.8,0,1,1-.21-2.11A10.77,10.77,0,0,1,66.92,132.29Z"/><path d="M55.05,133.24h1.43v-4Zm1.43,3.37v-2.34H53.94v-1.21l2.28-5.19h1.36v5.38h1v1h-1v2.34Z"/><path class="cls-5" d="M196.52,74.69a10.8,10.8,0,1,1-.21-2.11A10.77,10.77,0,0,1,196.52,74.69Z"/><path d="M185.77,79.1a2.27,2.27,0,0,1-1.25-.3,1.66,1.66,0,0,1-.66-.87,4.14,4.14,0,0,1-.2-1.36h1.16a4.44,4.44,0,0,0,.06.76,1.24,1.24,0,0,0,.28.62.81.81,0,0,0,.64.24.79.79,0,0,0,.68-.28,1.52,1.52,0,0,0,.26-.75,9.39,9.39,0,0,0,.05-1.06,6.69,6.69,0,0,0-.06-1,1.18,1.18,0,0,0-.27-.64.85.85,0,0,0-.65-.22.88.88,0,0,0-.6.22,1.4,1.4,0,0,0-.37.5h-1V70.26h3.77v1.16H184.9l-.08,2.42a1.51,1.51,0,0,1,.53-.36,1.92,1.92,0,0,1,.73-.13,1.7,1.7,0,0,1,1.12.33,1.8,1.8,0,0,1,.57.92,4.86,4.86,0,0,1,.17,1.34,7.53,7.53,0,0,1-.1,1.25,3,3,0,0,1-.34,1,1.73,1.73,0,0,1-.66.66A2.16,2.16,0,0,1,185.77,79.1Z"/><path class="cls-5" d="M149.72,96.29a10.8,10.8,0,1,1-.21-2.11A10.78,10.78,0,0,1,149.72,96.29Z"/><path d="M139,99.75a.81.81,0,0,0,.6-.22,1.26,1.26,0,0,0,.31-.59,3.29,3.29,0,0,0,.09-.8,8.85,8.85,0,0,0,0-1,1.38,1.38,0,0,0-.25-.71.84.84,0,0,0-.7-.26,1.05,1.05,0,0,0-.43.09,1.15,1.15,0,0,0-.33.22,1.28,1.28,0,0,0-.23.29V98.1a3.47,3.47,0,0,0,.09.82,1.27,1.27,0,0,0,.31.6A.79.79,0,0,0,139,99.75Zm0,1a1.9,1.9,0,0,1-1.23-.38,2.2,2.2,0,0,1-.7-1,4.51,4.51,0,0,1-.22-1.45V94.89a5.82,5.82,0,0,1,.19-1.56,2.29,2.29,0,0,1,.66-1.12,1.86,1.86,0,0,1,1.29-.42,2.44,2.44,0,0,1,1.15.25,1.71,1.71,0,0,1,.72.72,2.51,2.51,0,0,1,.26,1.16.45.45,0,0,0,0,.06.5.5,0,0,1,0,.07H140a1.88,1.88,0,0,0-.21-1,.84.84,0,0,0-.78-.33.79.79,0,0,0-.54.2,1.23,1.23,0,0,0-.34.61,4.08,4.08,0,0,0-.11,1.06v1.33a1.27,1.27,0,0,1,.49-.44,1.67,1.67,0,0,1,.78-.17,1.83,1.83,0,0,1,1.13.31,1.69,1.69,0,0,1,.58.88,4.6,4.6,0,0,1,.17,1.33,4.52,4.52,0,0,1-.22,1.44,2.17,2.17,0,0,1-.69,1A2,2,0,0,1,139,100.71Z"/><path class="cls-5" d="M90.68,96.29a10.8,10.8,0,1,1-.21-2.11A10.78,10.78,0,0,1,90.68,96.29Z"/><polygon points="78.8 100.61 80.37 92.77 78.03 92.77 78.03 91.86 81.53 91.86 81.53 92.42 79.91 100.61 78.8 100.61"/><path class="cls-5" d="M43.16,74.69a10.8,10.8,0,1,1-.21-2.11A10.77,10.77,0,0,1,43.16,74.69Z"/><path d="M32.36,73.87a.73.73,0,0,0,.56-.23,1.23,1.23,0,0,0,.26-.56,3.25,3.25,0,0,0,.08-.71,2,2,0,0,0-.19-.92.72.72,0,0,0-.7-.38.74.74,0,0,0-.71.38,1.9,1.9,0,0,0-.21.92,3.25,3.25,0,0,0,.08.71,1.18,1.18,0,0,0,.28.56A.77.77,0,0,0,32.36,73.87Zm0,4.32A.9.9,0,0,0,33,78a1.11,1.11,0,0,0,.31-.58,3.82,3.82,0,0,0,.08-.82,3.13,3.13,0,0,0-.09-.77A1.28,1.28,0,0,0,33,75.2a.84.84,0,0,0-.63-.23.87.87,0,0,0-.63.23,1.26,1.26,0,0,0-.33.59,3,3,0,0,0-.1.78,3.59,3.59,0,0,0,.09.82,1.12,1.12,0,0,0,.32.58A.92.92,0,0,0,32.36,78.19Zm0,.92a2.26,2.26,0,0,1-1.26-.31,1.75,1.75,0,0,1-.69-.89,4,4,0,0,1-.21-1.36,3.56,3.56,0,0,1,.08-.78,2.11,2.11,0,0,1,.22-.59,1.92,1.92,0,0,1,.35-.44,2.9,2.9,0,0,1,.44-.34,2.27,2.27,0,0,1-.7-.76,2.37,2.37,0,0,1-.27-1.19,3,3,0,0,1,.22-1.2,1.63,1.63,0,0,1,.68-.78,2.23,2.23,0,0,1,1.16-.28,2.17,2.17,0,0,1,1.15.28,1.65,1.65,0,0,1,.66.78,3,3,0,0,1,.22,1.2,2.4,2.4,0,0,1-.26,1.2,2.19,2.19,0,0,1-.71.76,2.9,2.9,0,0,1,.44.34,1.92,1.92,0,0,1,.35.44,2.23,2.23,0,0,1,.23.59,3.33,3.33,0,0,1,.08.78,4,4,0,0,1-.21,1.36,1.76,1.76,0,0,1-.68.89A2.24,2.24,0,0,1,32.36,79.11Z"/><path class="cls-5" d="M178.52,35.81a10.8,10.8,0,1,1-.21-2.11A10.77,10.77,0,0,1,178.52,35.81Z"/><path d="M167.65,35.8a1,1,0,0,0,.62-.19,1.46,1.46,0,0,0,.37-.42V33.9a3.66,3.66,0,0,0-.09-.83,1.23,1.23,0,0,0-.3-.59.91.91,0,0,0-1.19,0,1.27,1.27,0,0,0-.31.59,3.23,3.23,0,0,0-.09.79,8.85,8.85,0,0,0,0,1,1.35,1.35,0,0,0,.26.71A.84.84,0,0,0,167.65,35.8Zm0,4.43a2.46,2.46,0,0,1-1.16-.25,1.68,1.68,0,0,1-.73-.74,2.65,2.65,0,0,1-.26-1.18V38h1.16a1.88,1.88,0,0,0,.21,1,.86.86,0,0,0,.8.34.76.76,0,0,0,.54-.2,1.25,1.25,0,0,0,.32-.62,4.28,4.28,0,0,0,.11-1.05V36.07a1.19,1.19,0,0,1-.48.44,1.69,1.69,0,0,1-.79.17,1.81,1.81,0,0,1-1.13-.32,1.69,1.69,0,0,1-.58-.89,4.69,4.69,0,0,1-.17-1.32,4.51,4.51,0,0,1,.22-1.44,2.12,2.12,0,0,1,.7-1,2,2,0,0,1,1.26-.38,1.9,1.9,0,0,1,1.23.38,2.2,2.2,0,0,1,.7,1,4.46,4.46,0,0,1,.22,1.45v2.94a5.9,5.9,0,0,1-.19,1.56,2.34,2.34,0,0,1-.66,1.14A1.84,1.84,0,0,1,167.65,40.23Z"/><path class="cls-5" d="M120.2,20.69a10.8,10.8,0,1,1-.21-2.11A10.77,10.77,0,0,1,120.2,20.69Z"/><path d="M106.31,25V17.77l-.24.06-.52.11L105,18l-.24,0v-.87l.43-.12.5-.18a2.69,2.69,0,0,0,.49-.27,1.71,1.71,0,0,0,.39-.38h.87V25Z"/><path d="M111.54,24.16a.79.79,0,0,0,.62-.24,1.32,1.32,0,0,0,.29-.61,3.63,3.63,0,0,0,.08-.77V18.75a4,4,0,0,0-.08-.79,1.21,1.21,0,0,0-.29-.6.82.82,0,0,0-.63-.23.84.84,0,0,0-.64.23,1.19,1.19,0,0,0-.29.6,4,4,0,0,0-.08.79v3.79a3.62,3.62,0,0,0,.08.77,1.27,1.27,0,0,0,.3.61A.81.81,0,0,0,111.54,24.16Zm0,1a2.1,2.1,0,0,1-1.23-.33,2,2,0,0,1-.71-.92,3.57,3.57,0,0,1-.23-1.33V18.76a3.67,3.67,0,0,1,.23-1.34,1.89,1.89,0,0,1,.71-.9,2.17,2.17,0,0,1,1.24-.32,2.14,2.14,0,0,1,1.23.32,1.9,1.9,0,0,1,.7.9,3.67,3.67,0,0,1,.23,1.34v3.77a3.6,3.6,0,0,1-.23,1.34,2,2,0,0,1-.71.91A2.1,2.1,0,0,1,111.54,25.11Z"/><path class="cls-5" d="M61.16,35.81a10.8,10.8,0,1,1-.21-2.11A10.77,10.77,0,0,1,61.16,35.81Z"/><path d="M47.93,40.13V32.89l-.24.06-.52.11-.52.1-.24,0v-.87l.43-.12.5-.18a2.69,2.69,0,0,0,.49-.27,1.71,1.71,0,0,0,.39-.38h.87v8.75Z"/><path d="M52.2,40.13V32.89L52,33l-.52.11-.52.1-.24,0v-.87l.43-.12.5-.18a2.69,2.69,0,0,0,.49-.27,1.71,1.71,0,0,0,.39-.38h.87v8.75Z"/></g></svg>