<svg id="Calque_1" data-name="Calque 1" xmlns="http://www.w3.org/2000/svg" xmlns:xlink="http://www.w3.org/1999/xlink" viewBox="0 0 218.1 205.3"><defs><clipPath id="clip-path"><rect x="-4.7" y="6.8" width="223.5" height="196.6" fill="none"/></clipPath></defs><title>4-4-2-(2)</title><g id="HAUT"><g opacity="0.6"><g clip-path="url(#clip-path)"><path d="M9.6,10.5a7,7,0,0,0-7,7V388.2a7,7,0,0,0,7,7H208.2a7,7,0,0,0,7-7V17.5a7,7,0,0,0-7-7Z" fill="none" stroke="#fff" stroke-miterlimit="10" stroke-width="0.73"/><path d="M210,390V15.6H7.7V390H210Zm-1.4-1.4H9.1V17H208.6V388.6" fill="#fff"/><line x1="208.6" y1="202.8" x2="9.1" y2="202.8" fill="none" stroke="#fff" stroke-miterlimit="10" stroke-width="1.39"/><path d="M208.6,26.8a9.82,9.82,0,0,1-9.8-9.8" fill="none" stroke="#fff" stroke-miterlimit="10" stroke-width="1.39"/><path d="M9.1,26.8A9.82,9.82,0,0,0,18.9,17" fill="none" stroke="#fff" stroke-miterlimit="10" stroke-width="1.39"/><path d="M168.8,17H48.9V78.9H168.8Zm-1.4,60.5H50.3V16.8H167.5V77.5" fill="#fff"/><path d="M140.8,17H76.9V37.6h63.9Zm-1.4,19.3H78.3V16.7h61.1V36.3" fill="#fff"/><path d="M112.1,58.3a5,5,0,0,0-.2-1.2,3,3,0,0,0-1.8-1.8,2.54,2.54,0,0,0-1.2-.2,5,5,0,0,0-1.2.2,3,3,0,0,0-1.8,1.8,2.54,2.54,0,0,0-.2,1.2,5,5,0,0,0,.2,1.2,3,3,0,0,0,1.8,1.8,2.54,2.54,0,0,0,1.2.2,5,5,0,0,0,1.2-.2,3,3,0,0,0,1.8-1.8A2.54,2.54,0,0,0,112.1,58.3Z" fill="#fff"/><path d="M134.2,79.7l1.4-2.1H82.1l1.4,2.1a30.18,30.18,0,0,0,50.7,0ZM108.8,92A28.54,28.54,0,0,1,84.6,78.9H133A28.29,28.29,0,0,1,108.8,92" fill="#fff"/><path d="M139.5,202.8c0-1,0-2-.1-3s-.2-2-.4-3a24.6,24.6,0,0,0-.7-2.9c-.3-.9-.6-1.9-1-2.8s-.8-1.8-1.3-2.7-1-1.7-1.5-2.6l-1.8-2.4a20.89,20.89,0,0,0-2-2.2c-.7-.7-1.5-1.4-2.2-2l-2.4-1.8a13.5,13.5,0,0,0-2.6-1.5c-.9-.5-1.8-.9-2.7-1.3s-1.9-.7-2.8-1-1.9-.5-2.9-.7-2-.3-3-.4-2-.1-3-.1-2,0-3,.1-2,.2-3,.4a24.6,24.6,0,0,0-2.9.7,23.07,23.07,0,0,0-2.8,1c-.9.4-1.8.8-2.7,1.3s-1.7,1-2.6,1.5l-2.4,1.8a20.89,20.89,0,0,0-2.2,2c-.7.7-1.4,1.5-2,2.2s-1.2,1.6-1.8,2.4a13.5,13.5,0,0,0-1.5,2.6c-.5.9-.9,1.8-1.3,2.7s-.7,1.9-1,2.8a24.6,24.6,0,0,0-.7,2.9c-.2,1-.3,2-.4,3s-.1,2-.1,3,0,2,.1,3,.2,2,.4,3a24.6,24.6,0,0,0,.7,2.9,23.07,23.07,0,0,0,1,2.8c.4.9.8,1.8,1.3,2.7s1,1.7,1.5,2.6l1.8,2.4a20.89,20.89,0,0,0,2,2.2c.7.7,1.5,1.4,2.2,2l2.4,1.8a13.5,13.5,0,0,0,2.6,1.5c.9.5,1.8.9,2.7,1.3s1.9.7,2.8,1,1.9.5,2.9.7,2,.3,3,.4,2,.1,3,.1,2,0,3-.1,2-.2,3-.4a24.6,24.6,0,0,0,2.9-.7,23.07,23.07,0,0,0,2.8-1c.9-.4,1.8-.8,2.7-1.3s1.7-1,2.6-1.5l2.4-1.8a20.89,20.89,0,0,0,2.2-2c.7-.7,1.4-1.5,2-2.2l1.8-2.4a13.5,13.5,0,0,0,1.5-2.6c.5-.9.9-1.8,1.3-2.7s.7-1.9,1-2.8.5-1.9.7-2.9.3-2,.4-3S139.5,203.8,139.5,202.8Z" fill="none" stroke="#fff" stroke-miterlimit="10" stroke-width="1.39"/></g></g></g><g id="_442-_2_" data-name="442-(2)"><path d="M120,15.6a14.92,14.92,0,0,1-.2,2.1,6.64,6.64,0,0,1-.6,2,11.4,11.4,0,0,1-1,1.9,10,10,0,0,1-2.9,2.9,11.4,11.4,0,0,1-1.9,1,7.62,7.62,0,0,1-2,.6,11.13,11.13,0,0,1-4.2,0,6.64,6.64,0,0,1-2-.6,11.4,11.4,0,0,1-1.9-1,10,10,0,0,1-2.9-2.9,11.4,11.4,0,0,1-1-1.9,7.62,7.62,0,0,1-.6-2,14.92,14.92,0,0,1-.2-2.1,14.92,14.92,0,0,1,.2-2.1,6.64,6.64,0,0,1,.6-2,11.4,11.4,0,0,1,1-1.9,10,10,0,0,1,2.9-2.9,11.4,11.4,0,0,1,1.9-1,7.62,7.62,0,0,1,2-.6,11.13,11.13,0,0,1,4.2,0,6.64,6.64,0,0,1,2,.6,11.4,11.4,0,0,1,1.9,1,10,10,0,0,1,2.9,2.9,11.4,11.4,0,0,1,1,1.9,7.62,7.62,0,0,1,.6,2A14.92,14.92,0,0,1,120,15.6Z" fill="#fff"/><path d="M109.3,19.9V12.7a.31.31,0,0,0-.2.1c-.2,0-.3.1-.5.1a4.33,4.33,0,0,0-.5.1h-.2v-.9c.1,0,.3-.1.4-.1s.3-.1.5-.2.3-.2.5-.3a.78.78,0,0,0,.4-.4h.9v8.7l-1.3.1Z"/><path d="M37.8,82.4a14.92,14.92,0,0,1-.2,2.1,6.64,6.64,0,0,1-.6,2,17.38,17.38,0,0,1-1,1.9,10,10,0,0,1-2.9,2.9,11.4,11.4,0,0,1-1.9,1,7.62,7.62,0,0,1-2,.6,14.92,14.92,0,0,1-2.1.2,14.92,14.92,0,0,1-2.1-.2,6.64,6.64,0,0,1-2-.6,11.4,11.4,0,0,1-1.9-1,10,10,0,0,1-2.9-2.9,11.4,11.4,0,0,1-1-1.9,7.62,7.62,0,0,1-.6-2,11.12,11.12,0,0,1,0-4.2,6.64,6.64,0,0,1,.6-2,11.4,11.4,0,0,1,1-1.9,10,10,0,0,1,2.9-2.9,11.4,11.4,0,0,1,1.9-1,7.62,7.62,0,0,1,2-.6,14.92,14.92,0,0,1,2.1-.2,14.92,14.92,0,0,1,2.1.2,6.64,6.64,0,0,1,2,.6,11.4,11.4,0,0,1,1.9,1A10,10,0,0,1,36,76.4a11.4,11.4,0,0,1,1,1.9,7.62,7.62,0,0,1,.6,2A14.92,14.92,0,0,1,37.8,82.4Z" fill="#fff"/><path d="M24.9,86.7v-.8l2.2-3.5a4.23,4.23,0,0,1,.5-.7,2.12,2.12,0,0,0,.3-.7,2.22,2.22,0,0,0,.1-.9,3,3,0,0,0-.2-1,.78.78,0,0,0-.7-.3.85.85,0,0,0-.6.2.71.71,0,0,0-.3.6,2,2,0,0,0-.1.8v.3H25v-.3a5.9,5.9,0,0,1,.2-1.4,1.6,1.6,0,0,1,.7-.9,2.13,2.13,0,0,1,1.2-.3,2.11,2.11,0,0,1,1.6.6,2.31,2.31,0,0,1,.5,1.7,3.08,3.08,0,0,1-.1,1,3,3,0,0,1-.4.8,9.22,9.22,0,0,1-.5.8l-2,3.1H29v1l-4.1-.1Z"/><path d="M92.5,75a14.92,14.92,0,0,1-.2,2.1,6.64,6.64,0,0,1-.6,2,11.4,11.4,0,0,1-1,1.9,10,10,0,0,1-2.9,2.9,11.4,11.4,0,0,1-1.9,1,7.62,7.62,0,0,1-2,.6,11.12,11.12,0,0,1-4.2,0,6.64,6.64,0,0,1-2-.6,11.4,11.4,0,0,1-1.9-1A10,10,0,0,1,72.9,81a11.4,11.4,0,0,1-1-1.9,7.62,7.62,0,0,1-.6-2,11.12,11.12,0,0,1,0-4.2,6.64,6.64,0,0,1,.6-2,11.4,11.4,0,0,1,1-1.9,10,10,0,0,1,2.9-2.9,11.4,11.4,0,0,1,1.9-1,7.62,7.62,0,0,1,2-.6,11.12,11.12,0,0,1,4.2,0,6.64,6.64,0,0,1,2,.6,11.4,11.4,0,0,1,1.9,1A10,10,0,0,1,90.7,69a11.4,11.4,0,0,1,1,1.9,7.62,7.62,0,0,1,.6,2A14.92,14.92,0,0,1,92.5,75Z" fill="#fff"/><path d="M81.7,79.4a2.13,2.13,0,0,1-1.2-.3,1.39,1.39,0,0,1-.7-.8,2.17,2.17,0,0,1-.2-1.2v-.3h1.1V77a1.48,1.48,0,0,0,.1.7,2.19,2.19,0,0,0,.3.5,1,1,0,0,0,1.2,0,1.63,1.63,0,0,0,.3-.6,2,2,0,0,0,.1-.8,1.8,1.8,0,0,0-.3-1.1,1.05,1.05,0,0,0-.9-.5h-.2V74h.2a1.22,1.22,0,0,0,.9-.3,1.33,1.33,0,0,0,.3-1,3,3,0,0,0-.2-1c-.1-.3-.4-.4-.8-.4s-.7.1-.8.4a3,3,0,0,0-.2,1v.2H79.6v-.3a3.73,3.73,0,0,1,.2-1.2,2.7,2.7,0,0,1,.7-.8,2.55,2.55,0,0,1,2.4,0,1.39,1.39,0,0,1,.7.8,2.17,2.17,0,0,1,.2,1.2,2.77,2.77,0,0,1-.3,1.3,1.15,1.15,0,0,1-.9.6,1.53,1.53,0,0,1,1.1,1.1,3,3,0,0,1,.2,1,5.9,5.9,0,0,1-.2,1.4,1.6,1.6,0,0,1-.7.9A2.54,2.54,0,0,1,81.7,79.4Z"/><path d="M147.2,75a14.92,14.92,0,0,1-.2,2.1,6.64,6.64,0,0,1-.6,2,11.4,11.4,0,0,1-1,1.9,10,10,0,0,1-2.9,2.9,11.4,11.4,0,0,1-1.9,1,7.62,7.62,0,0,1-2,.6,11.12,11.12,0,0,1-4.2,0,6.64,6.64,0,0,1-2-.6,11.4,11.4,0,0,1-1.9-1,10,10,0,0,1-2.9-2.9,11.4,11.4,0,0,1-1-1.9,7.62,7.62,0,0,1-.6-2,11.12,11.12,0,0,1,0-4.2,6.64,6.64,0,0,1,.6-2,11.4,11.4,0,0,1,1-1.9,10,10,0,0,1,2.9-2.9,11.4,11.4,0,0,1,1.9-1,7.62,7.62,0,0,1,2-.6,11.13,11.13,0,0,1,4.2,0,6.64,6.64,0,0,1,2,.6,11.4,11.4,0,0,1,1.9,1,10,10,0,0,1,2.9,2.9,11.4,11.4,0,0,1,1,1.9,7.62,7.62,0,0,1,.6,2A14.92,14.92,0,0,1,147.2,75Z" fill="#fff"/><path d="M135.3,76h1.4V72Zm1.4,3.3V77h-2.5V75.8l2.3-5.2h1.4V76h1v1h-1v2.3Z"/><path d="M201.9,85.4a14.92,14.92,0,0,1-.2,2.1,6.64,6.64,0,0,1-.6,2,11.4,11.4,0,0,1-1,1.9,10,10,0,0,1-2.9,2.9,11.4,11.4,0,0,1-1.9,1,7.62,7.62,0,0,1-2,.6,11.12,11.12,0,0,1-4.2,0,6.64,6.64,0,0,1-2-.6,11.4,11.4,0,0,1-1.9-1,10,10,0,0,1-2.9-2.9,11.4,11.4,0,0,1-1-1.9,7.62,7.62,0,0,1-.6-2,11.13,11.13,0,0,1,0-4.2,6.64,6.64,0,0,1,.6-2,11.4,11.4,0,0,1,1-1.9,10,10,0,0,1,2.9-2.9,11.4,11.4,0,0,1,1.9-1,7.62,7.62,0,0,1,2-.6,11.12,11.12,0,0,1,4.2,0,6.64,6.64,0,0,1,2,.6,11.4,11.4,0,0,1,1.9,1,10,10,0,0,1,2.9,2.9,11.4,11.4,0,0,1,1,1.9,7.62,7.62,0,0,1,.6,2A14.92,14.92,0,0,1,201.9,85.4Z" fill="#fff"/><path d="M191.1,89.8a2.77,2.77,0,0,1-1.3-.3c-.4-.2-.5-.5-.7-.9a3,3,0,0,1-.2-1.4h1.2a2.2,2.2,0,0,0,.1.8.71.71,0,0,0,.3.6c.1.2.4.2.6.2a.91.91,0,0,0,.7-.3,4.88,4.88,0,0,0,.3-.7c0-.3.1-.7.1-1.1a3.08,3.08,0,0,0-.1-1,.6.6,0,0,0-.3-.6,1.07,1.07,0,0,0-.6-.2,1.42,1.42,0,0,0-.6.2,1,1,0,0,0-.4.5h-1V81H193v1.2h-2.7l-.1,2.4a1,1,0,0,1,.5-.4,1.7,1.7,0,0,1,.7-.1,1.8,1.8,0,0,1,1.1.3,1.46,1.46,0,0,1,.6.9,5.07,5.07,0,0,1,.2,1.3,4.48,4.48,0,0,1-.1,1.2c-.1.4-.2.7-.3,1a2.34,2.34,0,0,1-.7.7A2,2,0,0,1,191.1,89.8Z"/><path d="M120,111.8a14.92,14.92,0,0,1-.2,2.1,6.64,6.64,0,0,1-.6,2,17.38,17.38,0,0,1-1,1.9,10,10,0,0,1-2.9,2.9,11.4,11.4,0,0,1-1.9,1,7.62,7.62,0,0,1-2,.6,11.12,11.12,0,0,1-4.2,0,6.64,6.64,0,0,1-2-.6,11.4,11.4,0,0,1-1.9-1,10,10,0,0,1-2.9-2.9,11.4,11.4,0,0,1-1-1.9,7.62,7.62,0,0,1-.6-2,11.12,11.12,0,0,1,0-4.2,6.64,6.64,0,0,1,.6-2,17.38,17.38,0,0,1,1-1.9,10,10,0,0,1,2.9-2.9,11.4,11.4,0,0,1,1.9-1,7.62,7.62,0,0,1,2-.6,11.12,11.12,0,0,1,4.2,0,6.64,6.64,0,0,1,2,.6,11.4,11.4,0,0,1,1.9,1,10,10,0,0,1,2.9,2.9,11.4,11.4,0,0,1,1,1.9,7.62,7.62,0,0,1,.6,2A14.92,14.92,0,0,1,120,111.8Z" fill="#fff"/><path d="M109.2,115.3a.85.85,0,0,0,.6-.2,1.63,1.63,0,0,0,.3-.6,2.2,2.2,0,0,0,.1-.8v-1a1,1,0,0,0-1-1c-.2,0-.3,0-.4.1s-.2.1-.3.2-.2.2-.2.3v1.3a2,2,0,0,0,.1.8,1.63,1.63,0,0,0,.3.6A.55.55,0,0,0,109.2,115.3Zm0,.9a1.59,1.59,0,0,1-1.2-.4,3.59,3.59,0,0,1-.7-1,6.05,6.05,0,0,1-.2-1.5v-2.9a7.77,7.77,0,0,1,.2-1.6,2.1,2.1,0,0,1,.7-1.1,1.7,1.7,0,0,1,1.3-.4,4.3,4.3,0,0,1,1.2.2,1,1,0,0,1,.7.7,2.13,2.13,0,0,1,.3,1.2v.2h-1.2a3,3,0,0,0-.2-1c-.1-.2-.4-.3-.8-.3a.76.76,0,0,0-.5.2.85.85,0,0,0-.3.6,3.42,3.42,0,0,0-.1,1.1v1.3a1,1,0,0,1,.5-.4,1.88,1.88,0,0,1,.8-.2,1.61,1.61,0,0,1,1.1.3,2,2,0,0,1,.6.9,5.07,5.07,0,0,1,.2,1.3,5.9,5.9,0,0,1-.2,1.4,1.83,1.83,0,0,1-.7,1A3.31,3.31,0,0,1,109.2,116.2Z"/><path d="M75.1,134.6a14.92,14.92,0,0,1-.2,2.1,6.64,6.64,0,0,1-.6,2,11.4,11.4,0,0,1-1,1.9,10,10,0,0,1-2.9,2.9,11.4,11.4,0,0,1-1.9,1,7.62,7.62,0,0,1-2,.6,14.92,14.92,0,0,1-2.1.2,14.92,14.92,0,0,1-2.1-.2,6.64,6.64,0,0,1-2-.6,11.4,11.4,0,0,1-1.9-1,10,10,0,0,1-2.9-2.9,11.4,11.4,0,0,1-1-1.9,7.62,7.62,0,0,1-.6-2,11.12,11.12,0,0,1,0-4.2,6.64,6.64,0,0,1,.6-2,11.4,11.4,0,0,1,1-1.9,10,10,0,0,1,2.9-2.9,11.4,11.4,0,0,1,1.9-1,7.62,7.62,0,0,1,2-.6,14.92,14.92,0,0,1,2.1-.2,14.92,14.92,0,0,1,2.1.2,6.64,6.64,0,0,1,2,.6,11.4,11.4,0,0,1,1.9,1,10,10,0,0,1,2.9,2.9,11.4,11.4,0,0,1,1,1.9,7.62,7.62,0,0,1,.6,2A14.92,14.92,0,0,1,75.1,134.6Z" fill="#fff"/><polygon points="63.2 138.9 64.8 131.1 62.5 131.1 62.5 130.2 66 130.2 66 130.8 64.3 138.9 63.2 138.9"/><path d="M164.6,134.6a14.92,14.92,0,0,1-.2,2.1,6.64,6.64,0,0,1-.6,2,11.4,11.4,0,0,1-1,1.9,10,10,0,0,1-2.9,2.9,11.4,11.4,0,0,1-1.9,1,7.62,7.62,0,0,1-2,.6,11.12,11.12,0,0,1-4.2,0,6.64,6.64,0,0,1-2-.6,11.4,11.4,0,0,1-1.9-1,10,10,0,0,1-2.9-2.9,11.4,11.4,0,0,1-1-1.9,7.62,7.62,0,0,1-.6-2,11.13,11.13,0,0,1,0-4.2,6.64,6.64,0,0,1,.6-2,11.4,11.4,0,0,1,1-1.9,10,10,0,0,1,2.9-2.9,11.4,11.4,0,0,1,1.9-1,7.62,7.62,0,0,1,2-.6,11.12,11.12,0,0,1,4.2,0,6.64,6.64,0,0,1,2,.6,11.4,11.4,0,0,1,1.9,1,10,10,0,0,1,2.9,2.9,11.4,11.4,0,0,1,1,1.9,7.62,7.62,0,0,1,.6,2A14.92,14.92,0,0,1,164.6,134.6Z" fill="#fff"/><path d="M153.8,133.8a1.42,1.42,0,0,0,.6-.2,1.63,1.63,0,0,0,.3-.6,1.7,1.7,0,0,0,.1-.7,2,2,0,0,0-.2-.9.81.81,0,0,0-1.4,0,2.92,2.92,0,0,0-.2.9,1.7,1.7,0,0,0,.1.7c.1.2.1.4.3.6C153.3,133.7,153.5,133.8,153.8,133.8Zm0,4.3a.85.85,0,0,0,.6-.2.6.6,0,0,0,.3-.6,2,2,0,0,0,.1-.8,2.2,2.2,0,0,0-.1-.8l-.3-.6a.73.73,0,0,0-.6-.2.85.85,0,0,0-.6.2.71.71,0,0,0-.3.6c0,.3-.1.5-.1.8a2,2,0,0,0,.1.8l.3.6C153.3,138.1,153.5,138.1,153.8,138.1Zm0,.9a2.77,2.77,0,0,1-1.3-.3c-.4-.2-.5-.5-.7-.9a5.21,5.21,0,0,1-.2-1.4,2,2,0,0,1,.1-.8c.1-.2.1-.4.2-.6a1.38,1.38,0,0,1,.3-.4c.1-.1.3-.2.4-.3a1.85,1.85,0,0,1-.7-.8,2.13,2.13,0,0,1-.3-1.2,3.73,3.73,0,0,1,.2-1.2,1.78,1.78,0,0,1,.7-.8,2.55,2.55,0,0,1,2.4,0,1.85,1.85,0,0,1,.7.8,3.73,3.73,0,0,1,.2,1.2,2.13,2.13,0,0,1-.3,1.2,2.7,2.7,0,0,1-.7.8,1.38,1.38,0,0,1,.4.3c.1.1.2.3.3.4a1.07,1.07,0,0,1,.2.6,2,2,0,0,1,.1.8,5.9,5.9,0,0,1-.2,1.4,1.6,1.6,0,0,1-.7.9A1.8,1.8,0,0,1,153.8,139Z"/><path d="M120,157.8a14.92,14.92,0,0,1-.2,2.1,6.64,6.64,0,0,1-.6,2,11.4,11.4,0,0,1-1,1.9,10,10,0,0,1-2.9,2.9,11.4,11.4,0,0,1-1.9,1,7.62,7.62,0,0,1-2,.6,11.13,11.13,0,0,1-4.2,0,6.64,6.64,0,0,1-2-.6,11.4,11.4,0,0,1-1.9-1,10,10,0,0,1-2.9-2.9,11.4,11.4,0,0,1-1-1.9,7.62,7.62,0,0,1-.6-2,11.12,11.12,0,0,1,0-4.2,6.64,6.64,0,0,1,.6-2,11.4,11.4,0,0,1,1-1.9,10,10,0,0,1,2.9-2.9,11.4,11.4,0,0,1,1.9-1,7.62,7.62,0,0,1,2-.6,11.13,11.13,0,0,1,4.2,0,6.64,6.64,0,0,1,2,.6,11.4,11.4,0,0,1,1.9,1,10,10,0,0,1,2.9,2.9,11.4,11.4,0,0,1,1,1.9,7.62,7.62,0,0,1,.6,2A14.92,14.92,0,0,1,120,157.8Z" fill="#fff"/><path d="M109.1,157.8a.85.85,0,0,0,.6-.2c.2-.1.3-.3.4-.4v-1.3a2,2,0,0,0-.1-.8l-.3-.6a1,1,0,0,0-1.2,0c-.1.2-.3.3-.3.6s-.1.5-.1.8v1a.91.91,0,0,0,.3.7A.84.84,0,0,0,109.1,157.8Zm0,4.4a2.38,2.38,0,0,1-1.2-.3,1.58,1.58,0,0,1-.7-.7,2.13,2.13,0,0,1-.3-1.2h1.2a3,3,0,0,0,.2,1c.1.3.4.3.8.3a.76.76,0,0,0,.5-.2.85.85,0,0,0,.3-.6,3.42,3.42,0,0,0,.1-1.1v-1.3a1,1,0,0,1-.5.4,1.88,1.88,0,0,1-.8.2,1.61,1.61,0,0,1-1.1-.3,2,2,0,0,1-.6-.9,5.07,5.07,0,0,1-.2-1.3,5.9,5.9,0,0,1,.2-1.4,1.83,1.83,0,0,1,.7-1,1.7,1.7,0,0,1,1.3-.4,1.59,1.59,0,0,1,1.2.4,3.59,3.59,0,0,1,.7,1,5.9,5.9,0,0,1,.2,1.4v2.9a7.77,7.77,0,0,1-.2,1.6,1.44,1.44,0,0,1-.7,1.1A2.1,2.1,0,0,1,109.1,162.2Z"/><path d="M84.9,183.8a14.92,14.92,0,0,1-.2,2.1,6.64,6.64,0,0,1-.6,2,11.4,11.4,0,0,1-1,1.9,10,10,0,0,1-2.9,2.9,11.4,11.4,0,0,1-1.9,1,7.62,7.62,0,0,1-2,.6,11.13,11.13,0,0,1-4.2,0,6.64,6.64,0,0,1-2-.6,11.4,11.4,0,0,1-1.9-1,10,10,0,0,1-2.9-2.9,11.4,11.4,0,0,1-1-1.9,7.62,7.62,0,0,1-.6-2,11.12,11.12,0,0,1,0-4.2,6.64,6.64,0,0,1,.6-2,17.38,17.38,0,0,1,1-1.9,10,10,0,0,1,2.9-2.9,11.4,11.4,0,0,1,1.9-1,7.62,7.62,0,0,1,2-.6,11.12,11.12,0,0,1,4.2,0,6.64,6.64,0,0,1,2,.6,11.4,11.4,0,0,1,1.9,1,10,10,0,0,1,2.9,2.9,11.4,11.4,0,0,1,1,1.9,7.62,7.62,0,0,1,.6,2A14.92,14.92,0,0,1,84.9,183.8Z" fill="#fff"/><path d="M71,188.1v-7.2a.31.31,0,0,0-.2.1c-.2,0-.3.1-.5.1a4.33,4.33,0,0,0-.5.1h-.2v-.9c.1,0,.3-.1.4-.1s.3-.1.5-.2.3-.2.5-.3a.78.78,0,0,0,.4-.4h.9V188l-1.3.1Z"/><path d="M76.3,187.3a.85.85,0,0,0,.6-.2l.3-.6a2,2,0,0,0,.1-.8v-3.8a2.2,2.2,0,0,0-.1-.8c-.1-.2-.1-.4-.3-.6s-.4-.2-.6-.2a.85.85,0,0,0-.6.2l-.3.6a2,2,0,0,0-.1.8v3.8a2.2,2.2,0,0,0,.1.8,3.33,3.33,0,0,0,.3.6A.85.85,0,0,0,76.3,187.3Zm0,.9a2.13,2.13,0,0,1-1.2-.3,1.6,1.6,0,0,1-.7-.9,2.74,2.74,0,0,1-.2-1.3v-3.8a4.44,4.44,0,0,1,.2-1.3,2.18,2.18,0,0,1,.7-.9,2.55,2.55,0,0,1,2.4,0,1.6,1.6,0,0,1,.7.9,2.74,2.74,0,0,1,.2,1.3v3.8a4.44,4.44,0,0,1-.2,1.3,2.18,2.18,0,0,1-.7.9A2.13,2.13,0,0,1,76.3,188.2Z"/><path d="M154.8,183.8a14.92,14.92,0,0,1-.2,2.1,6.64,6.64,0,0,1-.6,2,11.4,11.4,0,0,1-1,1.9,10,10,0,0,1-2.9,2.9,11.4,11.4,0,0,1-1.9,1,7.62,7.62,0,0,1-2,.6,11.12,11.12,0,0,1-4.2,0,6.64,6.64,0,0,1-2-.6,11.4,11.4,0,0,1-1.9-1,10,10,0,0,1-2.9-2.9,11.4,11.4,0,0,1-1-1.9,7.62,7.62,0,0,1-.6-2,11.12,11.12,0,0,1,0-4.2,6.64,6.64,0,0,1,.6-2,11.4,11.4,0,0,1,1-1.9,10,10,0,0,1,2.9-2.9,11.4,11.4,0,0,1,1.9-1,7.62,7.62,0,0,1,2-.6,11.12,11.12,0,0,1,4.2,0,6.64,6.64,0,0,1,2,.6,11.4,11.4,0,0,1,1.9,1,10,10,0,0,1,2.9,2.9,11.4,11.4,0,0,1,1,1.9,7.62,7.62,0,0,1,.6,2A14.92,14.92,0,0,1,154.8,183.8Z" fill="#fff"/><path d="M141.5,188.1v-7.2a.31.31,0,0,0-.2.1c-.2,0-.3.1-.5.1a4.33,4.33,0,0,0-.5.1h-.2v-.9c.1,0,.3-.1.4-.1s.3-.1.5-.2.3-.2.5-.3a.78.78,0,0,0,.4-.4h.9V188l-1.3.1Z"/><path d="M145.8,188.1v-7.2a.31.31,0,0,0-.2.1c-.2,0-.3.1-.5.1a4.33,4.33,0,0,0-.5.1h-.2v-.9c.1,0,.3-.1.4-.1s.3-.1.5-.2.3-.2.5-.3a.78.78,0,0,0,.4-.4h.9V188l-1.3.1Z"/></g></svg>