<?xml version="1.0" encoding="utf-8"?>
<!-- Generator: Adobe Illustrator 26.0.2, SVG Export Plug-In . SVG Version: 6.00 Build 0)  -->
<svg version="1.1"
	 id="Calque_1" transform="matrix(.99933 0 0 .99933 .13310 -.00016785)" xmlns:cc="http://creativecommons.org/ns#" xmlns:dc="http://purl.org/dc/elements/1.1/" xmlns:rdf="http://www.w3.org/1999/02/22-rdf-syntax-ns#"
	 xmlns="http://www.w3.org/2000/svg" xmlns:xlink="http://www.w3.org/1999/xlink" x="0px" y="0px" width="398px" height="529.6px"
	 viewBox="0 0 398 529.6" style="enable-background:new 0 0 398 529.6;" xml:space="preserve">
<style type="text/css">
	.st0{fill:url(#SVGID_1_);}
	.st1{fill:url(#SVGID_00000012457680774474811440000015137073731341910417_);}
	.st2{fill:#FFFFFF;}
	.st3{fill-rule:evenodd;clip-rule:evenodd;fill:#CEAC76;}
	.st4{fill:#D91C1F;}
</style>
<linearGradient id="SVGID_1_" gradientUnits="userSpaceOnUse" x1="554.0434" y1="304.4084" x2="275.0434" y2="548.7085" gradientTransform="matrix(1.3881 0 0 1.3881 -375.1861 -323.793)">
	<stop  offset="0" style="stop-color:#CCAA72"/>
	<stop  offset="0.1372" style="stop-color:#D1BF89"/>
	<stop  offset="0.2643" style="stop-color:#D8B98A"/>
	<stop  offset="0.3757" style="stop-color:#DEC78A"/>
	<stop  offset="0.4993" style="stop-color:#D5CB99"/>
	<stop  offset="0.5982" style="stop-color:#D5BD93"/>
	<stop  offset="0.7145" style="stop-color:#C5A66D"/>
	<stop  offset="0.8479" style="stop-color:#C69467"/>
	<stop  offset="1" style="stop-color:#C3976A"/>
</linearGradient>
<path class="st0" d="M199,8.1L0.1,98.1v342.6L199,529.2l198.9-88.5V98.1L199,8.1z"/>
<linearGradient id="SVGID_00000161630988638289093900000001627083079735638961_" gradientUnits="userSpaceOnUse" x1="553.5831" y1="318.5317" x2="299.9831" y2="545.9317" gradientTransform="matrix(1.3441 0 0 1.3441 -374.9054 -311.3239)">
	<stop  offset="0" style="stop-color:#0276B7"/>
	<stop  offset="0.158" style="stop-color:#005DA9"/>
	<stop  offset="0.333" style="stop-color:#1A4C87"/>
	<stop  offset="0.5037" style="stop-color:#242866"/>
	<stop  offset="0.6804" style="stop-color:#20255D"/>
	<stop  offset="0.8725" style="stop-color:#1B1F4E"/>
	<stop  offset="1" style="stop-color:#181947"/>
</linearGradient>
<path style="fill:url(#SVGID_00000161630988638289093900000001627083079735638961_);" d="M11.8,104.5v329.8L199,517.6l187.2-83.3
	V104.5L199,19.7L11.8,104.5z"/>
<path class="st2" d="M272,372.9c-10.3,0-21.2,6.4-21.2,19.8c0,12.3,10.9,19.3,21.2,19.3c6.9,0,11.7-2,13.6-3l-1.2-6.9
	c-1.7,1.2-5.1,2.8-11,2.8c-7.6,0-13.9-4-13.9-12.8c0-7.6,6.3-12.6,13.9-12.6c5.5,0,9,1.9,10.7,2.8l1.2-6.7
	C283.7,374.6,278.3,372.9,272,372.9L272,372.9z M73.9,373.4v38.1h8.6v-13.6h18.2v-7.2H82.5v-10h23v-7.3H73.9L73.9,373.4z M116,373.4
	v38.1h8.1v-11h9.6l8.1,11h9.8l-9.4-12.7c4.9-2.6,6.8-7.1,6.8-11.9c0-7.8-5.1-13.5-13.9-13.5H116L116,373.4z M173.5,373.4l-16.7,38.1
	h9.3l2.8-6.5H187l2.8,6.5h9.3l-16.7-38.1H173.5L173.5,373.4z M205.7,373.4v38.1h8.6v-24.9l20.3,24.9h8.2v-38.1h-8.6v25.4l-20.3-25.4
	H205.7z M293.3,373.4v38.1h31.8v-7.1h-23.4v-8.1h16.1V389h-16.1v-8.4h22.5v-7.2H293.3L293.3,373.4z M124.1,380.7h10.5
	c4.2,0,6,2.6,6,6.2c0,4-1.8,6.9-6,6.9h-10.5L124.1,380.7L124.1,380.7z M178,383.5l5.9,14.4h-12.1L178,383.5L178,383.5z"/>
<path class="st3" d="M143.8,429.9v27.3h7.1v-9.4h18.2v-5.7h-18.2V436H172v-6.1H143.8L143.8,429.9z M185.4,429.9v27.3h7.1v-9.4h18.2
	v-5.7h-18.2V436h21.1v-6.1H185.4L185.4,429.9z M227.1,429.9v27.3h7.1v-9.4h18.2v-5.7h-18.2V436h21.1v-6.1H227.1L227.1,429.9z"/>
<path class="st2" d="M289.8,111.9c-4,4.5-10.8,11.9-8.1,18.3c2.9,6.3,15.5,4.9,17.5,4.7C285.1,131.7,282.4,125.2,289.8,111.9
	L289.8,111.9z M273.4,123.2c-1.8,0-3.4,1.6-3.4,3.4c0,2,1.6,3.6,3.4,3.6c2,0,3.6-1.6,3.6-3.6C277.1,124.7,275.5,123.2,273.4,123.2z
	 M165.1,127.1c-16.5,0-33.7,4-48,14c35.2-10.4,63.3,2.7,74.4,28.4c15.6,2.2,29,8,40.7,15C228,152.8,203.7,127.1,165.1,127.1z
	 M142.2,145.3c-20.8,0.2-42.5,10.2-53.6,24.4c-24.3,30.8-12.3,70.7,1.1,84.8c-9.4-55.6,25.2-101.5,86.5-97.9
	C166.8,148.6,154.7,145.2,142.2,145.3L142.2,145.3z M261.5,156.9c4.5,10.1,8.3,25.4,8.3,36.5c0,45.3-37.3,60.5-58.6,94.3
	c24.5-18.8,60.6-35.3,73.8-66.3C293.8,200.9,287.1,171.1,261.5,156.9L261.5,156.9z M177.7,173.1c-46.9,0-73.7,33.7-73.7,72.9
	c0,22.7,11.1,40.6,16.2,45.7c-13.1-40.4,14.2-84.8,56.2-84.8c27,0,48.2,20.7,69.3,34.3c7.5-8.6,13.6-17.7,16.9-28.8
	C242.2,196.4,216.3,173.1,177.7,173.1L177.7,173.1z M302.7,173.8c5.6,16.7,2.5,36.9-7.8,48.8c11.1-1.8,19.6-11.2,19.6-22.1
	C314.5,193.3,311.2,180.8,302.7,173.8L302.7,173.8z M314.6,214.5c-6.1,8.1-13.8,12.7-23,12.7c-1.3,0-2.7-0.1-4.1-0.4
	c-4.7,9.4-11.4,17.6-19.1,24.9c2.9,0.7,5.8,1,8.8,1C299.4,252.7,313.4,233.9,314.6,214.5L314.6,214.5z M194.9,214.9
	c-6.8,42.3-29.7,87.5,4.7,134.7c-16.5-45.6,11.1-80,25.4-117.3C215.4,225.4,205.5,218.8,194.9,214.9L194.9,214.9z M129.5,243.8
	c-13.9,26.4-2,49.8,22.7,46.4C136.5,284.8,125.7,262.5,129.5,243.8z"/>
<path class="st4" d="M251.9,90.6c-3.8,4.3-5.6,9.5-2.9,14c-3.2,1.6-7.2,2.2-10.5,0.7c-3.4,4.5-3.2,10.2-1.1,13.5
	c-2.7,2-6.8,3.4-10.4,2.5c1.1,4,4.9,6.9,8.8,6.9c-0.7,3-1.8,4.3-4.3,5.2c3.2,6.1,13.5,7.6,20.4,5.1c-0.7-0.7-2-2.9-2-6.5
	c0-9.7,8.2-16.1,19.4-16.1c4.7,0,7.6,0.7,9.3,0.9c0.7,0.1,1.3,0.2,1.7-0.9c1.2-3,2.3-8.4-2.8-12.7C268.9,96,256,99.2,251.9,90.6
	L251.9,90.6z M285.4,137.2c-3.8,11.5,3.2,23.4,13.5,23.4c5.8,0,8.8-3.8,8.8-8.3c0-3.8-3-7-7.9-7.9
	C295.2,143.4,286.7,143.1,285.4,137.2L285.4,137.2z"/>
</svg>
