<?xml version="1.0" encoding="utf-8"?>
<!-- Generator: Adobe Illustrator 26.0.2, SVG Export Plug-In . SVG Version: 6.00 Build 0)  -->
<svg version="1.1"
	 id="Ebene_1" xmlns:cc="http://creativecommons.org/ns#" xmlns:dc="http://purl.org/dc/elements/1.1/" xmlns:inkscape="http://www.inkscape.org/namespaces/inkscape" xmlns:rdf="http://www.w3.org/1999/02/22-rdf-syntax-ns#" xmlns:sodipodi="http://sodipodi.sourceforge.net/DTD/sodipodi-0.dtd" xmlns:svg="http://www.w3.org/2000/svg"
	 xmlns="http://www.w3.org/2000/svg" xmlns:xlink="http://www.w3.org/1999/xlink" x="0px" y="0px" width="1000px" height="1327px"
	 viewBox="0 0 1000 1327" style="enable-background:new 0 0 1000 1327;" xml:space="preserve">
<style type="text/css">
	.st0{fill:#FFFFFF;}
	.st1{fill-rule:evenodd;clip-rule:evenodd;fill:#EC2427;}
	.st2{fill-rule:evenodd;clip-rule:evenodd;fill:#FFFFFF;}
</style>
<sodipodi:namedview  bordercolor="#666666" borderopacity="1" gridtolerance="10" guidetolerance="10" id="namedview87" inkscape:current-layer="Ebene_1" inkscape:cx="643.71832" inkscape:cy="330.20265" inkscape:pageopacity="0" inkscape:pageshadow="2" inkscape:window-height="691" inkscape:window-maximized="1" inkscape:window-width="1280" inkscape:window-x="0" inkscape:window-y="1" inkscape:zoom="0.59767883" objecttolerance="10" pagecolor="#ffffff" showgrid="false" showguides="true">
	</sodipodi:namedview>
<path id="path4589" inkscape:connector-curvature="0" sodipodi:nodetypes="scsssccsscsssssscsssscccsssscscsscccssccsssscs" class="st0" d="
	M505.7,1294.5c3-1.8,8.8-5.3,12.9-7.8c4.1-2.5,7.6-4.7,7.9-4.8s3.7-2.3,7.4-4.8c20-13.3,40.4-28.7,61.6-46.4c4.3-3.6,8-6.7,8.1-7
	c0.1-0.2,2.7-2.6,5.7-5.2c12.6-11,24-21.6,41.5-38.7c33.8-32.9,70.5-75.9,101.9-119.6c2.3-3.2,4.4-6.3,4.7-6.8
	c0.3-0.6,1.8-2.9,3.4-5.1c13.7-19.5,32.1-48.3,44.8-70.2c2.1-3.6,4-6.8,4.3-7.1c0.3-0.4,2.6-4.2,5-8.6c27-48.2,50.5-98.6,70.9-152.2
	c1.9-5.1,3.5-9.4,3.5-9.7s1.4-4.2,3-8.8c12.1-33.7,23-68.6,32.3-103.4c1.2-4.6,2.5-9.3,3-10.6c1.7-5,8.5-33.8,13-55.1
	c23.8-111.4,35.1-233.8,33.2-358.6c-0.5-30.9-0.7-39.6-1.2-40.1L500,29.1L27.2,223.8c-0.4,0.4-0.7,9.1-1.2,40.1
	c-0.6,40.1,0.3,84.4,2.5,124.2c5.5,98.3,18.9,189.7,40.7,278.3c1.2,4.9,2.6,10,3,11.3s2,6.9,3.5,12.4c8.8,32.9,18.2,63.1,30.8,99
	c2.1,6.1,4.2,11.9,4.5,12.9s2.7,7.3,5.2,13.9c19.4,50.5,42,98.7,68.2,145.7c2.2,3.9,4.4,7.8,4.9,8.5s1.7,2.7,2.7,4.3
	c12.6,21.5,24.7,41,37.8,60.3c3.8,5.6,8.3,12.4,10,14.9c20.5,30.5,50.9,68.5,80.6,100.8c19.1,20.8,47,47.9,70.2,68.2
	c3,2.6,5.6,5,5.7,5.2s3.8,3.4,8.1,7c21.2,17.7,41.6,33.1,61.6,46.4c3.8,2.5,7.1,4.7,7.4,4.8s3.9,2.3,7.9,4.8
	c7.6,4.7,18.1,10.9,18.6,11C500.1,1297.6,502.7,1296.2,505.7,1294.5z"/>
<g id="g4623" transform="matrix(0.99897575,0,0,0.99897575,1086.1006,307.85251)">
	<path id="path4614" inkscape:connector-curvature="0" sodipodi:nodetypes="ccccccccccccccccccccccccccccc" class="st1" d="
		M-613.3-278.6v649.2h-413.5l32,122h97.1v195.9l53.4,71.7V492.6h101.7v392.7l53.4,46.1V492.6h75.8v89.9h53.1v-89.9h75.8v438.8
		l53.4-46.1V492.6h101.7v267.6l53.4-71.7V492.6h97.1l32-122h-413.5v-649.2H-613.3z"/>
	<path id="path4619" inkscape:connector-curvature="0" sodipodi:nodetypes="ccccc" class="st1" d="M-613.3,853.6v141.9h53.1V853.6
		H-613.3z"/>
</g>
<g id="g5017" transform="matrix(0.99897575,0,0,0.99897575,1086.1006,307.85251)">
	<g id="g4606" transform="translate(-2393.3815,100.19128)">
		
			<path id="path4563" inkscape:connector-curvature="0" sodipodi:nodetypes="ccccccccssccscccccccsscccccccccsccscssscssssssccsccsscccccscscssssscccc" d="
			M1801.4,492.4V508h-16.6v10.6h16.6v9.1l-8.5,15.8c-0.2,0.1-2.2-0.2-4.5-0.6c-9-1.7-16.5-1.9-24-0.6c-2.1,0.4-6.3,1.1-9.3,1.5
			c-20.9,3.2-34.5,11.8-37.1,23.4c-1.2,5.2,0,12,3.3,18.7c5.3,10.9,14.1,21.4,30.2,36l2.1,1.9v17H1860v-17l2.1-1.9
			c16.1-14.6,24.9-25.1,30.2-36c3.3-6.7,4.5-13.6,3.3-18.7c-2.7-11.6-16.2-20.1-37.1-23.4c-3-0.5-7.2-1.2-9.3-1.5
			c-7.4-1.3-14.9-1.1-24,0.6c-2.3,0.4-4.4,0.7-4.5,0.6l-8.5-15.8v-9.1h16.6V508H1812v-15.6H1801.4z M1749.2,551.2
			c0.3,0,0.4,0.1,0.3,0.3c-0.1,0.1-0.7,1.5-1.5,3.1c-3.5,7-4.4,17-2.6,29.2c1.4,9.1,5,21.8,9.3,32.5c0.8,2,1.5,3.8,1.5,4
			c0,0.8-1.1,0-3-2c-9.2-9.7-16-19.2-20.2-27.7c-3.6-7.4-4.8-11.5-4.8-17.3c0-8.3,4.1-14.4,12.4-18.9
			C1744.2,552.5,1748.1,551.1,1749.2,551.2L1749.2,551.2z M1864.4,551.3c0.7,0,1.9,0.3,3.2,0.8c8.7,3.3,14.6,8.6,16.7,15.1
			c3.7,11.6-4.5,29.8-22.4,49.2c-3.2,3.5-4.8,4.8-4.8,3.9c0-0.2,0.8-2.3,1.8-4.8c3.8-9.7,7.2-21.2,8.6-29.8
			c2.2-13.2,1.5-23.7-2.2-31.1c-0.8-1.5-1.5-2.9-1.5-3.1C1863.8,551.3,1864,551.3,1864.4,551.3L1864.4,551.3z M1786.9,551.9
			c0.8,0,1.4,0.1,1.5,0.2l0.9,67.1l-20.8,1.6c-1.1-1.4-5.9-15.3-7.5-22c-1.9-7.5-2.6-13.2-2.4-19.7c0.2-6.4,0.9-9.7,2.9-13.8
			c3.1-6.2,8.5-10.5,15.8-12.5C1779.3,552.3,1784.4,551.9,1786.9,551.9L1786.9,551.9z M1827.7,552c0.5,0,1.1,0,1.6,0
			c5,0.2,8.2,1,12.3,2.9c2.4,1.1,3.3,1.9,5.8,4.4c5.2,5.3,7,10.2,7.3,19.8c0.2,8-0.8,14.9-3.9,25.2c-1.4,4.8-5.5,15.8-6,16.5
			l-20.8-1.6l0.9-67.1C1825.1,552,1826.2,552,1827.7,552z"/>
		
			<path id="path4600" inkscape:connector-curvature="0" sodipodi:nodetypes="sscccscccsscccccsscscscccscsscccccccsccccccccccscccccccccccccsscccccccsccssccccccs" d="
			M1779.5,659.6c-4.1,0-6.6,0.5-9.7,2c-4.3,2-7.2,5.9-8.6,11.2c-0.5,2-0.6,3.9-0.6,13.9c0,9.9,0.1,12,0.6,14.1
			c1.9,8,6.6,11.7,14.2,11.2c3.5-0.2,5.9-1.3,8.3-4c1.4-1.5,2-1.9,2.3-1.7c0.5,0.5,0.2,17-0.3,18.7c-1.3,4.3-6,6.2-10,4.2
			c-2.5-1.2-3.6-3.8-3.6-8.1v-1.8h-5.7h-5.7l0.2,3.6c0.2,4,0.7,6.1,2.1,9.1c2,4.3,5.9,7.2,11,8.3c2.9,0.6,7.3,0.6,10.4,0
			c6.9-1.3,11.2-5.5,13-12.6c0.5-2.1,0.6-4.5,0.6-27.6c0-23.2-0.1-25.5-0.6-27.5C1795.1,663.9,1789.2,659.6,1779.5,659.6
			L1779.5,659.6z M1870.3,659.6c-10,0-16.2,4.6-18.3,13.7c-0.5,2.2-0.6,4.9-0.6,27.1c0,24.5,0,24.7,0.8,27.3
			c0.9,3.3,1.8,5.1,3.4,7.1c2.2,2.7,6.1,5,10,5.6c2.8,0.5,7.1,0.4,9.8-0.2c5.4-1.1,9.3-4,11.5-8.5c2.2-4.6,2.2-4.8,2.1-32.9
			l-0.1-25.2l-0.9-2.6C1885.2,663.3,1879.6,659.6,1870.3,659.6L1870.3,659.6z M1738.1,660.5l-1.4,2.7c-0.8,1.5-1.8,3.2-2.3,3.7
			c-1.3,1.3-4.4,2.9-6.4,3.1c-1.2,0.2-2.5,0.3-3.7,0.5v8.2h9.4l0.2,61.5h12.1v-79.9h-7.9V660.5z M1829.1,660.5l-1.4,2.7
			c-0.8,1.5-1.8,3.2-2.3,3.7c-1.3,1.3-4.4,2.9-6.4,3.1c-1.2,0.2-2.5,0.3-3.7,0.5v8.2h9.4l0.2,61.5h12.1v-79.9h-7.9V660.5z
			 M1869.7,670.4c0.3,0,0.7,0,1,0c0.4,0,0.8,0.1,1.2,0.2c2.3,0.5,3.4,1.3,4.3,3.3l0.8,1.6v24.9c0,24.8,0,24.9-0.7,26.2
			c-0.9,1.6-1.6,2.3-3.2,3c-1.5,0.6-4.4,0.6-5.7,0c-1.6-0.7-3-2.6-3.5-4.6c-0.3-1.3-0.4-8.6-0.3-25.8l0.1-24l0.7-1.4
			C1865.5,671.7,1867.4,670.5,1869.7,670.4L1869.7,670.4z M1779.3,670.6c3.3,0,5,1.1,6.2,3.8c0.5,1.1,0.6,2.6,0.7,9.8
			c0.1,5,0,9.4-0.2,10.7c-0.4,2.8-1.6,4.6-3.5,5.5c-2,0.9-4.7,0.8-6.6-0.1c-1.1-0.6-1.7-1.2-2.4-2.6l-0.9-1.8l0.1-10.6l0.1-10.6
			l0.9-1.4C1775,671.5,1776.8,670.6,1779.3,670.6L1779.3,670.6z"/>
	</g>
	
		<path id="path4933" inkscape:connector-curvature="0" sodipodi:nodetypes="ssssssssccscscssscccscsscsscsscccsssscscccsssscccssscscssssscssscccssscssscssssssccccccssssccsssccsssccscsssssssscsccscssscccccssscccsssscssscsscssccssssccccsscsscssssscssscccccsscccssccscscsscssscsssssscssssssssscscscsssssscscsssscccscssssccccscscsccscscscccccccscssccccccscccssssccccssssscscssssccsscccssscscssssssscccsssscsccsccscsccccsscccsssscssscsssssssssssccccccsscsscccscssccscsscssscssscccssccsccccsccscsssssscssccscssccssccsscscsscsccscsssssccsscsccccscsssccssssccc" d="
		M-371.7,369.1c-6.9,0-12.5-0.2-12.5-0.4c0-0.4,12.5-12.6,16.6-16.2c21.9-19.1,44.1-31.1,66-35.7c4.1-0.9,8.6-1.4,8.6-1.1
		c0,0.1-1.9,1.2-4.2,2.4c-9.6,4.9-19.2,11.7-30.7,21.6c-5.5,4.8-17.2,16.6-23.3,23.4c-4,4.5-5.1,5.6-6.1,5.9
		c-0.7,0.2-1.4,0.3-1.5,0.3C-359,369.2-364.8,369.1-371.7,369.1L-371.7,369.1z M-496.4,368.7c-4.3-1-42.9-12.1-42.9-12.3
		c0-0.1,0.5-0.3,1.1-0.4c15.1-2.7,18.6-3,31.4-3c7.9,0,11.8,0.1,15.9,0.6c13.1,1.4,25.8,4.3,38.3,8.5c5.2,1.8,16.3,6.2,16.8,6.6
		C-435.4,369-495,369-496.4,368.7L-496.4,368.7z M-407.1,335.9l-1.8-0.2l3-1.6c9.8-5.3,17.9-12.9,23.1-21.6c5.4-9,9.1-21.7,10-34.5
		c0.3-3.7,0.2-3.8-3.3-1.6c-14.8,9.1-31.2,14.4-51.1,16.3c-6,0.6-22.3,1-23.2,0.7c-0.4-0.2,2.5-1.3,9.8-3.8
		c28.2-9.6,47.2-18.4,64-29.5c9.2-6.1,16-12.5,20.5-19.3c1-1.6,2-2.9,2.1-2.9c0.6,0,1.1,12.4,1.1,24.9c0,14.9-0.4,19.3-2.2,28.3
		c-3.3,16.7-11,30.1-21.4,37.6c-4.5,3.2-11,5.9-16.9,6.9C-396.7,335.9-404.3,336.2-407.1,335.9L-407.1,335.9z M-519.9,328.5
		c-11.3-0.5-19.3-1.5-33.1-3.9l-7.1-1.3l-0.1-6.9c0-3.8,0-7.1,0.1-7.3c0.1-0.3,1.3,0,4.1,0.9c18,6.1,38.6,10.2,60.6,12
		c10,0.8,19.2,1.2,34.1,1.2c16.6,0,16.6,0.1-3,2.2C-490.6,328.5-505.2,329.2-519.9,328.5L-519.9,328.5z M-323.5,299.9
		c0.1-0.1,3.2-1.3,6.9-2.8c30.1-11.7,56.6-27.3,78.4-46.3c4.6-4,14.4-13.8,18.4-18.4c16-18.4,27-39.2,32.2-60.7
		c0.6-2.5,1.2-4.6,1.3-4.6s0.4,1.4,0.6,3.1c3.4,27-3.3,51.9-19.8,73.6c-5.6,7.4-12.8,15.1-20.4,21.7c-2,1.7-3.5,3.2-3.5,3.4
		c0,0.5,1.6,0.3,5.6-0.9c13.9-4,29.6-12.4,45.5-24.4c2.9-2.2,5.3-3.9,5.4-3.8c0.2,0.2-2.3,4.7-4.4,7.5c-5.5,7.7-14,14.9-25.6,21.5
		c-19.4,11.1-48.9,20.5-83.2,26.4C-301.5,297.9-324.4,300.7-323.5,299.9L-323.5,299.9z M-331.8,282.1c0.1-2.6,0.4-6.1,0.7-7.7
		c2.8-15.5,9.2-28.3,19.5-38.9c6.4-6.6,12.1-10.6,20.9-15c12.7-6.2,26.9-9.8,43.1-10.9c8-0.5,19.9-0.8,20.1-0.5
		c0.1,0.2-1.2,0.7-2.9,1.1c-8.9,2.3-20.4,6.5-28.6,10.5c-11.9,5.8-21.2,12.3-30.4,21.4c-5.2,5.1-8.8,9.2-12.9,14.9
		c-3.3,4.5-3.4,5.6-0.3,4.1c4.2-2.1,14.6-5.3,21.7-6.7c6.5-1.2,16.8-2.3,16.8-1.7c0,0.4-4.5,3.4-9.8,6.6c-8,4.8-19.8,10.9-32.4,16.6
		c-7.8,3.6-25,11-25.5,11C-331.8,286.8-331.9,285.4-331.8,282.1L-331.8,282.1z M-556.2,281.5l-3.8-0.2l-0.1-1.4
		c-0.1-0.9,0-1.5,0.3-1.6c0.2-0.1,2.4-0.3,4.9-0.5c32.3-2.6,60.9-9,74.6-16.5c5.1-2.8,10.9-7.3,10.9-8.4c0-0.9-5.3-3.4-9.3-4.5
		c-5.8-1.5-15.1-2.5-28.5-3.2c-9.1-0.4-35.8-0.4-45.2,0c-4,0.2-7.4,0.2-7.6,0c-0.3-0.3,7.5-3.7,13.1-5.5c9.6-3.2,21.1-5.6,33.1-6.8
		c9.5-0.9,14.7-1.1,56-1.4c24.2-0.2,45.5-0.4,47.5-0.5l3.6-0.2l-1.4,2.6c-7.4,13.7-20.9,25-39.5,32.9c-18,7.7-40,12.3-68.6,14.4
		C-523.7,281.5-549.4,281.9-556.2,281.5L-556.2,281.5z M-560.2,261.4v-0.9l2.5,0.2c1.4,0.1,2.9,0.2,3.3,0.2c0.4,0,0.8,0.1,0.8,0.3
		c0,0.2-4.7,1.1-6.1,1.1C-560,262.3-560.2,262-560.2,261.4z M-395,227.8c-29.3-2.1-52.9-15.1-71.2-39.3c-3.9-5.1-4-4.6,1.5-5.1
		c12.6-1.1,23.3-5.4,32.6-13.3c1.3-1.1,2.4-2,2.5-2s0.4,0.7,0.7,1.6c1,2.7,4.4,9.1,6.3,12c6.6,9.9,15.9,18,28.4,24.8
		c12.9,7,26.6,11,44.4,12.8c3.1,0.3,5.6,0.7,5.6,0.8c0,0.3-8.9,3.1-13.1,4.1C-370.2,227.4-382.9,228.6-395,227.8L-395,227.8z
		 M-560.2,212.7c0-4.4,0.1-7.2,0.3-7.3s0.2-0.4,0-0.8c-0.4-0.7-0.5-11.5-0.1-11.7c0.4-0.3,80.7,2.2,81,2.5c0.2,0.1-1.5,1.3-3.7,2.6
		c-11.8,7-27.4,12.4-47.1,16.4c-5.3,1.1-29.6,5.5-30.2,5.5C-560.1,219.8-560.2,216.6-560.2,212.7L-560.2,212.7z M-316.7,208.7
		c0.9-1.6,8.6-10.4,13.1-14.9c9.7-9.6,16.5-14.8,35.2-26.9c12.7-8.2,20.9-17.2,27.2-29.8c3.6-7.2,6-14.4,10.7-32.2
		c1.5-5.6,2.8-10.3,2.9-10.4c0.8-0.8,3.7,11.2,4.4,18.2c2.5,24.2-8.1,46.8-28.6,61.4c-4,2.8-3.9,2.9,5.2,3.1c4.3,0.1,8.1,0.1,8.4,0
		c1.8-0.6,16.8-17,23.1-25.3c7.5-9.9,9.6-14.8,11.9-27.6c1.6-9,2-14,1.9-27.3c-0.1-14.1-0.3-17.6-1.1-17.6c-0.3,0-2.2,2.1-4.2,4.7
		s-4,4.9-4.4,5.2c-1,0.7-2.1,0.6-3.1-0.3c-1.3-1.1-1.1-2.3,1.1-6.6c3.7-7,4.7-10.9,4.9-19.9c0.3-9.2-0.6-16-3.4-25.2
		c-2.2-7.3-6.3-17.2-7.2-17.2c-0.2,0-1,0.8-1.6,1.8s-2.2,2.7-3.4,3.9c-1.2,1.2-4.8,5.1-7.9,8.8c-3.1,3.6-6.8,7.7-8.1,9
		c-4.8,4.9-14.4,20.7-20.5,33.9c-5.5,11.8-9.2,22.2-14.1,39.6c-7.4,26.2-8.5,29.4-10.9,33c-3.1,4.6-7.4,5.8-13.8,3.6
		c-9.9-3.3-21.5-11-32.4-21.5c-2-1.9-3.3-3.5-3.6-4.1c-1.2-3.9-2.5-52.2-2-75.3c0.6-27.3,1.4-35.8,4.1-45.3
		c3.8-13.2,12.7-27.3,24.4-38.5c13.2-12.8,29.3-21.1,47.9-24.8c5-1,15-1.1,18.6-0.1c14,3.7,23.2,17.3,26.3,39
		c0.6,3.9,1.7,14.5,1.7,16c0,0.3,0.3,0.5,0.6,0.5c1.6,0,8.7-14.9,11.4-23.9c2.8-9.4,4.4-19.1,5-30.7c0.3-5.1,0.1-5.6-2.3-6.8
		c-6.4-3.3-12.9-10.3-16.4-17.7c-1.7-3.7-3.7-9.8-4.3-13.4c-0.3-1.7-0.7-3.4-1-3.6c-0.3-0.4-1.3,0.1-5.5,2.6
		c-8.8,5.3-15,7.8-20.2,8.2c-5.7,0.4-9-1.5-10.6-6c-0.6-1.7-0.5-5.7,0.2-11.2c0.4-2.8,0.4-4.4,0.2-4.6c-0.8-0.8-16.4,7-24.9,12.4
		c-20.9,13.3-37.2,31.3-48.1,53.2c-9.8,19.5-13.9,37.8-13.4,59.7c0.1,4.2,0,7.7-0.1,7.6c-0.4-0.2-3.1-8.7-3.9-12.1
		c-3.4-14-3.4-26.6,0-40.4c4.3-17.7,15.3-35.2,30.7-49.1c7.3-6.5,7-6.2,6.4-6.6c-1.4-0.9-23.7,0.3-35.1,2
		C-367-77.6-379.5-72-388-61.6c-0.9,1.1-1.8,2-2,2s-1.3-0.5-2.5-1c-14.1-6.9-31.9-8.3-49.6-3.9c-10.1,2.5-20.3,6.6-30,12
		c-1.6,0.9-3,1.6-3.1,1.5c-0.2-0.2,6.3-5.9,10.2-9c11-8.5,21.9-13.9,33.5-16.4c2.1-0.5,4.2-0.6,9.2-0.6c6.1,0,6.7,0.1,10.4,1.1
		c4.2,1.1,8.2,2.9,13.2,5.8c1.7,1,3.4,1.9,3.7,1.9c0.3,0,1.4-1.1,2.6-2.5c8.2-9.8,22-16.2,39.7-18.3c9.9-1.2,15.5-0.6,34.7,3.7
		c4.5,1,8.6,1.8,9.1,1.8c0.6,0,2.3-1,5.5-3.4c13.1-9.6,27.2-17.9,41.1-24.5c9.7-4.5,10.9-5,15.1-5.4c4.6-0.4,14.5-0.2,19,0.5
		c17.6,2.8,28.9,11.5,33.5,26.1c0.9,2.8,2.1,9.6,2.9,15.7c0.6,4.9,0.6,23.6,0,28.3c-1.9,15.1-5.9,29.2-11.5,39.6
		c-2.2,4.2-7.9,13.8-9.3,15.7c-2.5,3.5-2.7,4.7-1,7.9c0.6,1.2,1.7,3.3,2.3,4.8c0.6,1.4,2.8,5.1,4.8,8.1c4.3,6.6,6.5,10.4,9,15.8
		c5.2,11,7.8,20.8,9,33.2c0.6,6.2,0.2,27.8-0.5,32.9c-2.8,19.1-9.3,33.9-20.6,46.5c-4.7,5.3-8.2,8-14.6,11.3
		c-9.4,4.9-12.1,6.5-12,7.1c0.1,0.4,1.2,0.8,4.6,1.4c5.3,1.1,11.1,2.9,14.8,4.6c2.8,1.3,9.1,5.2,9.1,5.6c0,0.6-3.2,0.7-12.6,0.6
		c-18.5-0.2-33-0.1-37.6,0.3c-22.2,2-38.5,7.3-57.6,18.9C-316.9,209.3-317,209.3-316.7,208.7L-316.7,208.7z M-286.7,117.8
		c0.5-0.6,3.6-9.8,3.6-10.8c0-1-0.8-0.6-2.7,1.5c-1,1.1-2.4,2.2-3,2.5c-1.6,0.7-6,1-10.1,0.7c-3.5-0.2-3.6-0.3-4.9-1.5
		c-2.3-2.1-3-2.3-7.5-2.2c-3.7,0.1-4.1,0-4.5-0.6s-0.5-1.7-0.3-8c0.2-5.2,0.1-7.4-0.1-7.6c-0.7-0.4-2.1,1.5-4.1,5.7
		c-2.3,4.8-4.1,9.1-4.4,10.4s0.8,2.2,4,3.5c6,2.3,12.8,3.9,23.9,5.9C-289.1,118.5-287.4,118.6-286.7,117.8L-286.7,117.8z M-230.5-5
		c4.2-4.3,4.2-4.2,4.2-10.7c0-4.1-0.4-5.4-2.2-6.5c-1.2-0.7-4.8-0.9-6.3-0.3l-0.9,0.3v10.6c0,5.8,0.1,10.7,0.2,10.8
		C-235.1-0.4-234.3-1.2-230.5-5z M-293-18.2c5.1-5.4,8.5-14.3,7.5-19.6c-0.4-2.2-1-2.9-2.1-2.3c-2.3,1.4-12.3,8.8-12.5,9.4
		c-0.3,0.5,0.1,2.1,1.4,6.7c0.9,3.3,1.9,6.5,2,7.1C-296.2-15.3-295.4-15.6-293-18.2L-293-18.2z M-238.3-24c2-1.8,3.6-3.6,3.7-4
		c0.3-1.1-0.4-2-2.6-3.7c-5.5-4-15.3-7.2-30.3-9.8c-3.8-0.6-4.5-0.7-4.7-0.3c-0.2,0.3-0.3,3.6-0.2,7.4c0.1,6,0.2,7,0.6,7.1
		c0.3,0.1,1.5-1.2,3.3-3.5c1.5-2,3.1-3.8,3.5-4c0.7-0.3,0.8-0.3,1.1,0.5c0.2,0.5,0.3,1.6,0.3,2.5c0,0.9,0.2,1.7,0.3,1.8
		c0.2,0.1,1.3-0.5,2.4-1.4c3-2.4,3.6-2.6,4.1-1.9c0.2,0.3,0.4,1.2,0.4,1.8s0.2,1.3,0.3,1.5c0.2,0.1,1.4-0.6,2.7-1.6
		c1.3-1,2.6-1.9,2.9-2c0.9-0.3,1.3,0.5,1.5,3l0.2,2.3l1.8,0.2c1,0.1,2,0.3,2.2,0.4c0.3,0.2,0.4,1.3,0.4,3.8c0,4,0.3,4.7,1.5,3.8
		C-242.1-20.4-240.2-22.1-238.3-24L-238.3-24z M-345.1,191c-22.9-2.4-38.6-17.6-45.3-44.1c-2.4-9.4-4.5-27.1-4.5-37.9
		c0-9.7,2.7-39.8,4-45.2c0.6-2.2,0.9-1.9,1.4,1.6c0.1,0.6,0.3,5.7,0.5,11.3c0.7,20.9,3.2,37.2,8.3,52.4c7.9,23.5,20,39.1,36.6,46.9
		c9.8,4.6,19.5,5.9,34.1,4.6c3.1-0.3,7.1-0.5,8.8-0.5c2.9,0,3.1,0,2.5,0.5c-2.8,2.2-15.2,6.9-22.7,8.5
		C-329.4,190.9-338.8,191.6-345.1,191L-345.1,191z M-560.1,183.3c-0.1-0.2-0.1-2.6-0.1-5.2l0.1-4.8l7.1-3.9
		c11.6-6.4,19-10.7,25.5-14.8c46.4-28.9,82.9-64,102.9-99.2c1.4-2.5,2.7-4.6,2.9-4.8c0.7-0.7-2.8,10.7-5.9,19.2
		c-11.6,32.1-29.9,59.9-50.2,76.3c-1.3,1-2.3,2.1-2.3,2.4c0,1.1,11.3,5.4,20.1,7.7c5.5,1.4,13,2.8,17.5,3.2c1.6,0.1,2.9,0.4,2.9,0.5
		c0,0.4-3.9,2.3-8.7,4.3c-14.6,6-39.9,11.8-64.6,14.9c-6.9,0.8-18.7,2-33.3,3.3c-6.2,0.6-11.8,1.1-12.5,1.2
		C-559.5,183.7-560,183.6-560.1,183.3L-560.1,183.3z M-319.3,160.7c-9.9-2-25.9-11.8-34.8-21.3c-4.4-4.7-7.4-9.5-10.1-15.9
		c-4.6-11.4-6.3-26.8-4.1-37.2c0.5-2.4,0.8-1.6,1.1,3.2c1.3,20.9,8.1,37.1,21.3,50.9c6.6,6.9,13.8,12,24.1,17.2
		c3.4,1.7,6.2,3.2,6.2,3.4C-315.6,161.2-316.7,161.2-319.3,160.7L-319.3,160.7z M-560.1,148.7l0.1-5.2l12.5-4.7
		c6.9-2.6,12.7-4.7,12.9-4.6c0.9,0.3-8.4,8.5-15.1,13.2c-3.3,2.3-9.9,6.5-10.3,6.5C-560.1,153.9-560.2,151.5-560.1,148.7
		L-560.1,148.7z M-272.3,121.7c0.1-0.6,0.9-3.8,1.7-7.1c3.8-15.3,10.6-32.7,18.8-47.9c3.9-7.3,5.9-10.7,6-10.5
		c0.2,0.2-26,65.9-26.4,66.3C-272.4,122.7-272.5,122.4-272.3,121.7z M-545.6,119.8c0-0.1,1-0.6,2.2-1c20.7-7.3,38.6-21.7,51.7-41.2
		c1.7-2.5,3-4.7,3-4.9c0-1.2-7.7-1.2-13.2,0c-15.7,3.4-33.5,14.8-53.3,33.9c-2.6,2.5-4.8,4.5-4.9,4.5c-0.1,0-0.2-3.5-0.2-7.8v-7.8
		l3.5-4.4c11-13.8,22.9-24.4,37.9-33.8c19.1-12,41.1-20.7,66.1-26.3c11-2.4,19.7-3.9,21.5-3.7c0.8,0.1,1.5,0.4,1.5,0.6
		c0,0.4-4.5,7.1-9.2,13.5c-17.4,23.9-35,43-52,56.3c-2,1.6-6,4.5-9,6.4c-13.3,8.9-24.5,13.7-36.1,15.4
		C-539.3,120.1-545.6,120.2-545.6,119.8L-545.6,119.8z M-372.9,104.1c-2.6-6.3-5.6-16.2-6.9-22.8c-1.7-8.5-1.8-13.8-0.6-26.3
		c0.1-1.4,0.2-2.7,0.1-2.9c-0.5-1.4-9.4,2.1-15.8,6.1c-1.6,1-3,1.8-3.1,1.7c-0.3-0.3,3-6.5,5.8-10.7c5.7-8.5,13.7-17.9,24.5-28.9
		c7.9-8.1,15.3-15.2,15.6-14.9c0.1,0.1-1,2.7-2.3,5.9c-10.5,24.5-16.2,46.9-17.4,68.8c-0.4,7.3-0.1,15.8,0.9,22.3
		c0.3,1.9,0.5,3.6,0.4,3.8C-371.8,106.4-372.3,105.5-372.9,104.1L-372.9,104.1z M-560.2,45.6V21.2l1.6-1.7c5-5.5,9.4-9.2,13.7-11.6
		c2.3-1.3,5.2-2.4,5.4-2.2c0.1,0.1-0.4,1.5-1,3.2c-1.5,3.9-2.6,7.7-3.6,12.7c-1,4.8-1.1,6.2-0.3,6.6c0.3,0.2,14.9,0.4,32.9,0.5
		c17.8,0.1,33.5,0.3,35,0.5l2.7,0.2l-2,0.6c-11.8,3.4-30.4,10.2-40.2,14.6c-13.3,6-27.6,14-38.7,21.9c-2.6,1.8-4.9,3.4-5.1,3.5
		C-560.1,70-560.2,65.1-560.2,45.6L-560.2,45.6z M-357,60.9c0-0.1,0.6-1.2,1.3-2.6c2.6-4.9,4.7-11.6,6-19.5
		c0.6-3.8,1.7-12.4,1.7-13.6c0-1,0.6,0.2,1,2c1.8,8.6-0.3,20.7-5,28.4C-353.8,58.4-357,61.9-357,60.9L-357,60.9z M-503.5,26.6
		c0-0.2,0.5-1.5,1-2.9c3.3-8.4,9.6-17.9,19-28.8c4-4.6,14.6-15.8,15.1-16c0.2-0.1-0.9,2.4-2.5,5.4c-3,5.8-5.1,11.7-4.6,12.2
		c0.4,0.4,5.4-2.5,6.8-4c0.5-0.5,1.8-2.7,2.9-4.7c5.4-10.1,13-19.3,20.4-24.8c2.7-2,2.7-2.5,0-3c-4.5-0.8-10.6-0.2-17.6,1.6
		c-21.9,5.7-44,24.2-63.9,53.3c-1.4,2.1-2.6,3.7-2.7,3.7c-0.3,0,3.5-7.4,6.7-12.8c17.8-31,38.2-49.4,60.1-54.2
		c3-0.7,4.4-0.8,10.6-0.7c7.8,0,10.5,0.4,16.7,2.5c3.1,1,9,3.8,10.5,4.9l0.8,0.6l-1.3,0.5c-12.4,5.1-23.2,12.6-33.8,23.4
		c-5,5.1-6.4,6.7-6,7.1c0.1,0.1,3-1.2,6.4-3c7.2-3.7,11.7-5.6,16.8-7.3c3.8-1.3,8.1-2.3,8.3-2.1c0.1,0.1-2,1.3-4.6,2.7
		c-18,9.8-36.3,22.7-60.3,42.6C-503.6,27.1-503.5,27.1-503.5,26.6L-503.5,26.6z M-549.9-1c-2.4-6-4.3-12.2-5.5-17.6
		c-1.7-7.4-2-10.3-2-17.5c0-6.3,0.1-7,0.9-10.4c3.8-15.1,14.7-22.9,29.8-21.4c8.3,0.8,16.4,2.9,22.1,5.8c1.6,0.8,4.9,2.8,7.5,4.4
		c2.6,1.6,6.9,4.4,9.7,6.1c2.8,1.7,5,3.2,4.9,3.2c-0.1,0.1-2.6-0.6-5.5-1.5c-14.9-4.6-21.6-5.7-29.6-5c-10.1,0.9-16.2,3.5-21.6,9.4
		c-2.6,2.7-4,4.9-5.6,8.7c-3.7,8.6-4.7,18.5-3.3,34.2c0.3,3.5,0.5,6.5,0.4,6.6C-547.8,4-548.8,1.8-549.9-1z M-427.3-20.3
		c0-1.1,2.8-6.5,5-9.3c2.5-3.3,8-8.9,12.9-13c2.1-1.7,3.7-3.3,3.7-3.6c0-0.5-1.9-1.8-6.1-4c-5.4-2.9-9.6-4.1-16.1-5l-3.1-0.4l2.2-1
		c3.9-1.8,7.2-2.2,12.3-1.3c5.6,1,10.8,3.2,16.8,7.2c5.1,3.4,16,11.9,15.7,12.2c-0.1,0.1-2.1,0.5-4.4,0.8
		c-17.5,2.4-29.3,7.6-37.4,16.4C-427-20-427.3-19.8-427.3-20.3L-427.3-20.3z M-364.2-34.3c0.1-0.7,0.4-3.5,0.7-6.2
		c0.7-6.3,1.2-7.6,5.4-12.5c1.7-2.1,3.1-4,3.1-4.4c0-0.7-0.9-1.8-1.5-1.8c-0.2,0-1.1,0.7-2.1,1.6c-5.8,5-6.3,5.4-7.4,5.4
		c-1.6,0-2.4-1-2.3-2.8c0-0.8,0.3-1.8,0.5-2.1s2.7-2.1,5.4-3.9c13.6-8.9,16.9-10.2,24.6-9.9c5.8,0.3,7.7,1.1,7.7,3.3
		c0,1.4-0.7,2-5.5,5.2c-18.4,12-22.4,15.7-26.2,23.8c-0.8,1.7-1.6,3.6-1.7,4.2C-363.9-32.9-364.5-32.7-364.2-34.3L-364.2-34.3z"/>
	<g id="g4998">
		
			<path id="path4945" inkscape:connector-curvature="0" sodipodi:nodetypes="cccscssssssssccsccssscssscscccsscsssssccssssscsscsssssssscssccsssscccsccccscsccscccscscscscacccsccscscccsssccscsscsssssscc" d="
			M-796.2,355.2c-1.6-0.8-2.8-2.3-3.3-4.2c-0.2-0.7-0.9-4.3-1.5-8c-2.4-14.1-5.8-24.8-11.3-35.5c-3.9-7.7-7.5-12.5-11.6-15.4
			c-2.6-1.8-4.6-2.7-9.2-4.1c-5.1-1.5-7.6-2.9-11.5-6.1c-2.5-2.1-4.7-4.8-10.9-13c-7.7-10.2-10.8-13.3-16.4-16.1
			c-6.8-3.4-11.9-3.9-28.3-2.5c-11.2,1-14.2,0.9-19.8-0.2c-5.8-1.2-11.3-3.5-15.9-7c-5.1-3.8-7.4-9.5-6.1-15.1
			c0.2-0.8,1.6-4.2,3.1-7.5c3.2-6.8,3.8-8.8,3.8-11.4c0-3.5-1.9-5.7-8.3-9.6c-4.1-2.5-5-3.2-5.7-4.8c-0.8-1.7-0.8-3,0-6.5
			c0.7-3.2,0.8-5.8,0.3-7.8c-0.2-0.7-1.1-2.8-2-4.6c-3.6-7.2-2.9-10.4,3.4-17.9c5.3-6.3,5.9-7.5,4.6-9.2c-1.1-1.4-3.8-2.4-8.8-3.4
			c-8.8-1.6-12.1-2.4-14.2-3.5c-3.5-1.7-5.4-4.5-5.7-8.1c-0.1-1.8,0-2.6,1.3-6.5c0.8-2.5,5.4-13.2,10.1-23.9
			c11.3-25.4,12.3-28.1,13-33.3c0.4-3.2,0.1-7.8-1.1-13.1c-0.4-1.7-0.8-5-0.8-7.4c-0.2-4.9,0.3-7.7,2.1-12.1c0.6-1.5,1.1-3,1.1-3.4
			s-0.5-1.3-1-2.1c-1.4-2-2.6-8.5-2.8-16.5C-950,4-947.7-12.9-944-25c3.2-10.7,7.7-20.4,14.4-31.2c3.9-6.2,4.8-8.2,9.2-20.5
			c4.4-12,7.7-16.7,15.3-21.7c6-3.9,23.2-15.4,23.9-15.9c0.7-0.6,0.8-0.5,1.8,0.7c2.8,3.5,4.6,4.6,7.2,4.6c2.1,0,4.2-0.9,9.2-3.9
			c5.1-3.1,15.9-8.4,19.3-9.5c2.2-0.8,4-1.1,6.1-1.2c3.6-0.2,5.7,0.2,9.2,1.8c3.5,1.6,4.5,1.7,5.7,0.8c0.5-0.4,1.7-2,2.7-3.4
			c2.8-4.4,3.2-4.6,12.4-6.2c5.2-0.9,5.6-0.8,8.3,2c2.8,2.9,4.5,3.5,9,3.2c1.6-0.1,4.2-0.3,5.8-0.4c3.8-0.3,6.7,0.2,12.4,2.1
			c6.7,2.2,12,3.5,13.9,3.5c0.9,0,2.8-0.3,4-0.7c1.5-0.4,3.3-0.7,5.1-0.7c4.6,0,7.4,1.2,17.2,7.6c5.9,3.8,6.7,4.3,9.3,4.8
			c1.6,0.3,2.7,0.3,5.2,0c1.7-0.2,3.7-0.3,4.4-0.2c5.5,0.9,6,1.3,5.3,4c-0.2,0.9-0.6,2.1-0.8,2.6c-0.5,1.3-0.5,2.9,0.1,3.8
			c0.3,0.4,1.7,1.6,3.1,2.6c1.4,1,6.1,5.4,10.3,9.7c10.1,10.1,10.4,10.3,23.7,16.3c4.5,2,5.8,2.8,5.8,3.4c0,0.2-0.5,1.5-1.2,3
			s-1.3,3.4-1.4,4.2c-0.2,1.4-0.1,1.6,0.8,2.3c1.1,0.9,2,0.8,4.9-0.6c2.4-1.2,2.8-1.2,3.7-0.3c0.5,0.6,0.6,1.2,0.6,4.1
			c0,2-0.3,4.4-0.6,6c-1.1,4.7-0.3,8,2.8,11.8c0.7,0.9,3.6,4.2,6.4,7.3c5.8,6.5,6.6,7.5,6.6,9.4c0,1.8-0.8,3.1-4,5.7
			c-5.6,4.7-5.5,5.8,2,14.1c1.6,1.7,3,3.3,3.1,3.5c0.1,0.2-1.7,2-5.1,4.8c-2.9,2.4-5.3,4.6-5.3,4.9c0,0.3,1.5,2.2,3.3,4.2
			s3.3,3.7,3.3,3.9c0,0.1-1.9,1.5-4.3,3.1c-2.4,1.6-4.6,3.3-5,3.9c-1.2,1.7-0.8,3.5,1.6,7.7c1.1,2,2,3.7,1.9,3.8s-1.8,0.7-3.8,1.4
			c-4.9,1.7-6.7,2.5-7.8,3.6c-1.2,1.1-1.4,2.4-0.7,3.9c0.8,1.6,3.7,4.2,6,5.4c0,0-5,17-8.5,25.1c-1.8,4-6.4,11.5-6.4,11.5
			c-0.6,0-4.6,4.6-5.3,6s-0.8,8.4-0.2,11.2c0.5,2.3,2,4.5,3.9,5.7c2.6,1.6,2.6,1.6,3.1,5.3c0.2,1.8,0.4,3.4,0.3,3.5
			c-0.1,0.1-3-0.5-6.4-1.4c-7-1.7-11.3-2.1-12.2-1.1c-0.9,0.9,0,2.9,3.7,8c1.9,2.7,3.7,5.4,3.9,6l0.5,1.2l-3.2,0.2
			c-2.5,0.1-3.6,0.3-4.9,0.9c-2.1,1-4.8,3.6-4.8,4.7c0,0.7,0.2,0.9,1.9,1.4c3.7,1,6.9,2.3,7.6,3c1.5,1.5,0.9,2.9-2.8,6.4
			c-6.2,5.8-7.5,7.2-8,8.1c-0.8,1.5-0.8,9.9,0.1,13.7c2.5,11.4,7.7,20.8,16.6,29.7c5.8,5.8,11.5,10.1,24.2,18.3
			c2.6,1.7,5.6,3.9,6.6,4.8c3.5,3.3,2.8,4.6-2.8,6.1c-10.1,2.6-22.7,10.4-33.1,20.5c-8.6,8.4-14.7,17.2-22.2,32.3
			c-4.5,8.9-7.5,14.2-12.3,20.9c-5.7,8.1-13.4,16.8-20.1,23c-17,15.4-32.2,23.8-48.2,26.7C-791.7,356.2-794.3,356.2-796.2,355.2
			L-796.2,355.2z"/>
		<g id="g4986">
			<g id="g4976">
				
					<path id="path4943" inkscape:connector-curvature="0" sodipodi:nodetypes="cscsssscccccssscssccscssccssssscsscccaccsssscsscccc" class="st0" d="
					M-735,98c2-0.3,4-0.7,4.4-1s0.9-1,1.1-1.8c1.1-3.5,6.9-5.7,14.3-5.3c3.2,0.2,5.2,0.6,21,4.2c4.8,1.1,9.3,2,10.3,2
					c1.6,0,2-0.2,3.4-1.3c2.3-1.8,6-5.8,7.9-8.6c1.3-2.3,2.4-3.2,3.3-5.9c0.7-1.1,2.5-7.7,3.3-12.9c1.3-8.8,0.1-17.1-3.7-24.4
					c-4.4-8.5-26.9-34.5-32.2-37.3c-1-0.5-2.4-0.6-9.9-0.8c-8.5-0.2-51.8-2.4-53.3-2.7c-2.6-0.6,2.3-4.3,10.3-7.6
					c2.4-1,3.2-1.7,2.7-2.2c-0.4-0.4-25.2-9.2-28.3-9.9c-2.9-0.8-5.6-0.8-6.5-0.2c-0.6,0.5-0.6,0.5,0,1.7c0.7,1.3,3.3,3.3,5.4,4
					c1.9,0.7,5.8,1.4,10.3,1.9c2.1,0.2,3.8,0.5,3.9,0.7c0.3,0.5-2.8,1.6-5.5,1.9c-8.2,0.9-21-2.7-31.9-8.9
					c-7.3-4.2-10.6-6.9-13.4-11c-1-1.4-2.2-2.8-2.7-3c-0.9-0.5-10.1-2.7-15.9-3.8c-5.3-1.1-10.7-1.7-16.3-1.9
					c-7.8-0.3-12,0.5-16.3,3.1c-1.8,1.1-2.6,1.2-2.6,0.3c0-0.2,1.4-2.4,3.1-4.9c1.7-2.4,3.1-4.7,3.1-5c0-0.7-0.5-0.8-5.6-1.1
					c-19.8-1-37.7-7.5-49.1-18c-1-1-2.1-1.7-2.3-1.6c-0.9,0.4-9.1,16.2-12.8,25c-3.2,7.5-7.3,18.7-7.3,20c0,0-1.1,3.3-1.5,4.9
					c-1.8,8.1-3.1,16.8-3.5,24.5c-0.3,6.9,1.8,17.7,3.1,18.9c0.5,0.5,0.2,0.3,6.2-0.1c13.8-0.8,31.8,0.9,46.8,4.2
					c7.3,1.6,28.8,7.1,47.3,12.1c33.7,9,39.2,10.3,48.5,11.2c5.6,0.6,8.5,0,12.9-2.6c10.3-6,23.8-8.6,31.1-6.1
					c9.2,3.2,14.3,12.3,14.9,26.2c0.3,8.2-0.5,11.9-3.3,15.9c-2.5,3.5-3.1,5.5-1.8,6.9C-741.5,98.7-740.2,98.8-735,98L-735,98z"/>
				<g id="g4969">
					<g id="g4928">
						<path id="path4916" inkscape:connector-curvature="0" class="st2" d="M-919.6,50.3c-3.5-0.2-7.1,0.1-10.7,0.6
							c-1.4,0.2-2.3,1.4-2.2,2.8c0.2,1.4,1.4,2.3,2.8,2.2h0.1c13.8-2,24.5,0.3,34.7,11c1,1,2.5,1,3.5,0.1c1-1,1-2.5,0.1-3.5
							C-899.8,54.6-909.2,50.8-919.6,50.3z"/>
						<path id="path4920" inkscape:connector-curvature="0" class="st2" d="M-921,65.9c-1.4,0-2.5,1.1-2.5,2.5s1.1,2.5,2.5,2.5h0.1
							c6.3-0.2,12.2,1.9,15.8,4c1.1,0.6,1.5,1.1,2.1,1.6c-3.9,1.2-9.1,3-14.6,6.8c-1.1,0.8-1.5,2.3-0.7,3.5s2.3,1.5,3.5,0.7
							c0,0,0,0,0.1,0c5.9-4.1,12.1-6,15.7-7c0.5-0.1,1.1-0.4,1.7-0.9s0.9-1.3,0.9-2c0.1-1.4-0.5-2.2-1-3c-1.1-1.5-2.8-2.8-5-4
							C-907,68-913.6,65.7-921,65.9z"/>
						<path id="path4922" inkscape:connector-curvature="0" class="st2" d="M-921.8,67.3c-0.8,0-1.5,0.7-1.4,1.6c0,0.1,0,0.2,0,0.3
							c0.8,3.2,1.5,6.1,2.4,8.5c0.9,2.4,1.6,4.3,3.1,5.4c0.7,0.6,1.9,0.9,2.9,0.6s1.7-1,2.4-2c1.4-1.9,2.6-4.9,4-9.6
							c0.2-0.8-0.2-1.6-1-1.9s-1.6,0.2-1.9,1l0,0c-1.4,4.6-2.7,7.4-3.6,8.7c-0.5,0.6-0.8,0.8-0.9,0.9s0.1,0.1-0.1-0.1
							c-0.4-0.3-1.4-1.9-2.1-4.1c-0.8-2.2-1.5-5.1-2.3-8.2C-920.5,67.7-921.1,67.2-921.8,67.3z"/>
					</g>
					<path id="path4937" inkscape:connector-curvature="0" class="st2" d="M-782.5,106.6c-0.2,0-0.4,0-0.5,0.1
						c-9,3.6-13.4,9-14.9,14c-1.5,5.1-0.5,9.6,1.3,12c3.2,4.4,8.4,6.5,13.8,6.5s11-2,15.6-6c0.6-0.5,0.7-1.5,0.2-2.1
						s-1.5-0.7-2.1-0.2l0,0c-4.1,3.5-9.1,5.3-13.7,5.3c-4.6,0-8.7-1.7-11.3-5.3c-1-1.3-2.1-5.2-0.9-9.4c1.3-4.2,4.8-8.8,13.2-12.1
						c0.8-0.3,1.2-1.2,0.9-1.9C-781.3,107-781.9,106.6-782.5,106.6L-782.5,106.6z"/>
				</g>
				
					<path id="path4941" inkscape:connector-curvature="0" sodipodi:nodetypes="cccccscccsscccsssssscsccsssccccssccsssccssccssscccc" d="
					M-671.5,83.4c-0.7-0.6-21-5.9-22.3-5.8c-0.8,0.1-1.1,0.3-1.2,0.8c-0.2,1.7,5.7,4.6,11.8,5.8c1.1,0.2,2.2,0.5,2.2,0.7
					c0.3,0.5-2.3,0.7-4.7,0.3c-12-1.9-25.5-8.4-32.2-15.4c-1.5-1.6-2.8-3.2-2.9-3.7c-0.5-1.9-0.2-1.9,5.4,0c2.9,1,10.3,3.2,16.4,4.9
					c13.7,3.9,17.3,5,23.7,7.6c2.8,1.1,5.3,1.9,5.5,1.8L-671.5,83.4z M-942.4-17.5c1.1,0.9,10.7,4.1,25.4,8.4
					c29.6,8.5,40.9,11.8,45.6,13.4c13.4,4.5,27,10.9,30.1,14.2c1.6,1.7,3.6,5.2,3.6,6.3c0,1.5-3.3,0.3-9.5-3.6
					c-2.4-1.4-4.4-2.2-14.4-5.5C-885,8-893.5,6-896,7.5c-1.4,0.9,1.9,4.1,6.3,6.3c4.2,2,8,3.1,21.1,5.9c0.6,0.1,1.1,0.4,1.1,0.6
					c0,0.7-2.4,0.9-8.1,0.7c-5.4-0.1-6.5-0.3-10.9-1.4c-15.3-3.7-28.9-9.7-42.4-18.6c-6.9-4.5-10.6-8.1-13.2-12.6
					c-0.8-1.4-1.5-2.2-1.8-2.1L-942.4-17.5z M-680.9,57.6c-3.7-1.6-11.5-4.2-21.3-7.1c-34.5-10.3-71.5-22.5-86.3-28.4
					c-5.7-2.3-12.7-5.7-13.5-6.6c-0.6-0.7-0.6-0.8,0-1.2c1.2-0.9,11-0.5,19.4,0.7c8.5,1.2,15.5,3.2,26.2,7.4
					c13.7,5.4,20.1,7.6,28.7,9.8c3.6,0.9,4.9,1.1,6.2,1c1.8-0.3,2-0.5,1.7-1.9c-0.4-1.7-3.5-4.6-6.8-6.2c-3.1-1.5-5.7-2.3-12.9-3.8
					c-2.7-0.6-5-1.2-5-1.4c-0.1-0.2,0.6-0.7,1.5-1.2c1.5-0.8,1.9-0.8,6.6-0.8c5.7,0,8.2,0.6,16.1,3.5c13.5,5,24.4,11.6,32.2,19.5
					c3.2,3.2,8.3,9.8,9.1,11.8c0.6,1.6,1.1,5.3,0.6,5.6C-678.5,58.5-679.7,58.2-680.9,57.6L-680.9,57.6z"/>
			</g>
			
				<path id="path4935" inkscape:connector-curvature="0" sodipodi:nodetypes="ssscssscscssscscscscscssssssscssscsscsssccssscsccsccccsccccsccscssccccsccsssccsscsccscccccssccscsscsscccscsccsccscccscsssscccc" d="
				M-645.9,360.6c-5.1-1.4-8.7-3.1-12.5-5.8c-8.4-6.2-15.9-18.9-18.4-31.4c-0.6-3-0.6-3.7-0.3-5.2c0.5-2.3,1-2.9,5.4-6.2
				c4.8-3.6,9.6-7.7,17.3-15c3.5-3.2,8.9-8.2,12.1-11.1c8.8-7.9,14.3-12.9,15.4-14.1c2.7-3,2.9-5.8,0.7-9.9
				c-5.3-10.2-7.3-14.8-7.7-17.5c-0.3-2.1,0.6-4.8,2.1-6.8c1.9-2.4,18.3-19.7,18.6-19.7c0.2,0,0.3,3.7,0.3,9.2v9.2l-3.9,2.7
				c-2.1,1.5-5.3,3.5-7,4.6c-4.7,2.8-6,4.2-6,6.6c0,1.7,0.7,3.3,2.8,6c2.5,3.3,9.1,10.6,11.8,13.1l2.3,2.1v6.4
				c0,3.5-0.1,6.4-0.2,6.4c-0.1,0-1-0.4-1.9-1c-3.8-2.3-6.6-1-15.8,7c-3.2,2.8-11.6,10.2-18.7,16.5c-7.1,6.3-14.7,13-16.8,14.8
				c-5.7,5-5.9,6-3.1,13c3.4,8.5,8.2,15,14.6,19.8c3.2,2.4,5.2,3.3,7.8,3.6c2.8,0.3,4.4-0.4,5.2-2.2c0.9-2.2,0.3-3.2-5.5-9
				c-6-5.9-6.7-6.8-6.7-8s1-1.8,3.3-2.2c1-0.2,2.7-0.5,3.9-0.7c3-0.5,5.5-1.6,7.1-3c0.8-0.7,2.8-3.2,4.5-5.6c3.3-4.7,6.6-8,10-10.3
				c4.2-2.9,7.9-6.2,11-9.8c0.5-0.6,1-1.1,1.1-1.1s0.2,8.3,0.2,18.4v18.4l-1.9,3.8c-1.7,3.4-2.2,4.1-5.1,6.9
				c-2.6,2.6-3.7,3.4-6.2,4.7C-632.2,361.5-639.6,362.3-645.9,360.6L-645.9,360.6z M-652.5,62.1c-8.1,5.4-8.7,9-12.4,16.7
				c-2,4.1-1.4,13.5-1.4,13.5l0.7,3.4c0.8,1.7,2.9,3.8,4.7,4.5c3.7,1.5,8.2,2.1,10.8,1.4l0,0c1.7-0.5,4.2-3,4.7-4.8
				c0.6-1.8,0.5-9.1-0.1-13.2c-0.5-3.5-1.6-8.9-3.2-15.7c-0.5-2.3-1-4.5-1.1-4.9C-650,61.2-651.5,61.6-652.5,62.1L-652.5,62.1z
				 M-658.1,53.3c4.2,1.4,8.2,1.3,12.2,0.2c0,0,10.1-9,14.6-20.5c2.4-6,3.9-11.7,5.1-18.9c0.7-4.4,1-15.8,0.5-20.7
				c-2-20.4-11-45-26.9-73.7c-6.5-11.7-6.8-13.3-4-19.2c3.2-6.5,7.3-11.8,12.5-16.1c8.3-6.8,17.2-8.2,28.1-4.6l3.2,1.1l-0.1,13.1
				l-0.1,13.1l-4.3,1.9c-8.8,3.8-13.4,7-20.9,14.4c-3.7,3.6-4.7,4.8-4.8,5.5c0,0.5,1.8,4.5,4,9c6.1,12.5,9.1,19.6,12.3,29.2
				c5.5,16.1,7.7,28.7,7.7,43.1c0,10.9-0.6,13.7-5.1,23.8c-1.7,3.8-3.7,10.7-3.7,12.7c0,0.8,0.3,2.1,0.6,2.9c1.3,3,3.4,3.6,5.3,1.7
				c1.6-1.6,2.3-3,5.5-10.7c1.6-3.8,3-7.1,3.2-7.3s0.3,2.9,0.3,7.8v8.2l-3.5,7.1c-1.9,3.9-3.5,7.5-3.5,8c0,1.1,1.6,2.7,3,3
				c0.6,0.1,1.7,0.1,2.5,0l1.5-0.2V70v2.8l-1.6,0.9c-2.2,1.3-7,5.1-7,5.6c0,0.7,0.8,0.7,4.5-0.2c2-0.5,3.8-0.9,3.9-0.9
				c0.1,0,0.2,1.1,0.2,2.5s-0.1,2.5-0.2,2.6c-0.3,0.2-5.8,0.8-13,1.4c-6.3,0.5-8.6,1.1-11.1,2.8c-4,2.8-6.7,8.8-5.8,13
				c0.5,2.4,1.4,3.9,3.6,6c5,4.8,12.5,8.3,22,10.2l4.4,0.9l0.1,5.4c0,3,0,5.6-0.1,5.9c-0.1,0.3-5.2-0.9-17.8-4
				c-15.2-3.8-17.7-4.4-18.4-4c-1,0.5-12.4,14.1-12.4,14.7c0,0.6,0,0.5,6.1,1.8c6,1.2,8,2.2,11.6,5.3c2.7,2.3,7.3,7.3,8.5,9.2
				c1.6,2.6,0.1,5.1-4.2,6.6c-1.9,0.7-2.8,1.4-2.3,1.8c0.5,0.5,9.1,4,13.1,5.3c4.7,1.6,8.5,2.3,12.6,2.6l3.1,0.2l0.1,2.1
				c0.1,1.1,0,2.1-0.1,2.1s-1.6-0.5-3.2-1.1c-3.5-1.3-9.2-2.6-16.6-3.7c-6.1-0.9-9.9-2-13.4-3.9c-8.3-4.4-13.3-12.1-16.3-25
				c-1.6-6.7-2.2-12.3-3-27.7c-0.6-10.9-2-15.2-2-15.2c-0.1-1.2-2.6-4.5-4.6-5.5l11.2-29.6L-658.1,53.3z"/>
		</g>
	</g>
	<g id="g4964">
		<path id="path4569" inkscape:connector-curvature="0" sodipodi:nodetypes="csccsssssssssccssssscc" class="st0" d="M-538.9,468.5
			c8.5-0.3,17.4-0.9,19.8-1.2l1.4-0.2v-24.3c-0.2-0.1-2.1,0.1-4,0.5c-5.1,1-13.3,2.2-19.4,2.8c-6.7,0.7-23.1,0.8-27.4,0.2
			c-10.3-1.5-16.7-4.9-19.1-9.9c-0.8-1.7-0.9-2.3-0.9-5.4c0-3.1,0.1-3.7,0.9-5.4c2.3-4.9,8-8,18-9.8c4.7-0.8,21-0.8,28.3,0
			c6.4,0.7,13.2,1.7,18.7,2.7c2.4,0.4,4.7,0.7,4.8,0.6V395l-1.6-0.2c-12.1-1.5-45.9-1.9-62.7-0.7c-43.2,3.1-67.5,13.5-71.9,30.9
			c-1.3,5.1-0.7,12,1.5,16.4c6.4,12.7,24.1,21,53.5,24.9C-582.4,468.5-560,469.3-538.9,468.5L-538.9,468.5z"/>
		<path id="path4567" inkscape:connector-curvature="0" sodipodi:nodetypes="ccccccccccccc" class="st0" d="M-896.4,393.2l-61,75.9
			h63.1l8.4-7.9h44.4l8.4,7.9h63.1l-61-75.9H-896.4z M-863.7,420.5l10.9,22.2h-21.8L-863.7,420.5z"/>
		<path id="path4954" inkscape:connector-curvature="0" sodipodi:nodetypes="ccccccccccccc" class="st0" d="M-341.4,393.2l-61,75.9
			h63.1l8.4-7.9h44.4l8.4,7.9h63.1l-61-75.9H-341.4z M-308.7,420.5l10.9,22.2h-21.8L-308.7,420.5z"/>
	</g>
</g>
<path id="path4591" inkscape:connector-curvature="0" d="M500,1.3L2.9,207.1c-0.1,0.1-0.3,6.3-0.6,14c-1.7,48.9-1.7,83.4-0.1,130
	c4,114.6,18.3,221.3,43.4,322.2c18.9,76.1,44.5,149.9,75,216.9c41.1,90,91.5,170.6,151.6,242.5c53.8,64.4,115.8,121.4,177.3,163
	c17.3,11.7,30.2,19.5,48.5,29.2l2,1.1l2.8-1.5c45.1-23.7,97.7-62.7,146.3-108.3c85.3-80.2,157.9-179,213.6-291.1
	c76.8-154.6,121.6-333,133.1-530.9c2.8-47.8,3.8-102.3,2.7-143.4c-0.5-17.8-1-33.7-1.3-39.6L997,207L500,1.3z M500,29.1l472.8,194.7
	c0.5,0.5,0.7,9.2,1.2,40.1c1.9,124.8-9.4,247.2-33.2,358.6c-4.5,21.3-11.4,50.1-13,55.1c-0.4,1.3-1.8,6-3,10.6
	c-9.2,34.8-20.1,69.7-32.3,103.4c-1.7,4.6-3,8.6-3,8.8c0,0.3-1.6,4.6-3.5,9.7c-20.4,53.7-43.9,104.1-70.9,152.2
	c-2.5,4.4-4.7,8.2-5,8.6c-0.3,0.4-2.3,3.6-4.3,7.1c-12.7,21.8-31.1,50.7-44.8,70.2c-1.6,2.3-3.1,4.6-3.4,5.1
	c-0.3,0.6-2.4,3.6-4.7,6.8c-31.4,43.7-68.1,86.7-101.9,119.6c-17.6,17.1-29,27.7-41.5,38.7c-3,2.6-5.6,5-5.7,5.2
	c-0.1,0.2-3.8,3.4-8.1,7c-21.2,17.7-41.6,33.1-61.6,46.4c-3.8,2.5-7.1,4.7-7.4,4.8s-3.9,2.3-7.9,4.8c-4.1,2.5-9.9,6-12.9,7.8
	s-5.6,3.2-5.8,3.2c-0.5,0-11.1-6.2-18.6-11c-4.1-2.5-7.6-4.7-7.9-4.8c-0.3-0.1-3.7-2.3-7.4-4.8c-20-13.3-40.4-28.7-61.6-46.4
	c-4.3-3.6-8-6.7-8.1-7c-0.1-0.2-2.7-2.6-5.7-5.2c-23.2-20.3-51.2-47.4-70.2-68.2c-29.6-32.3-60.1-70.4-80.6-100.8
	c-1.7-2.5-6.2-9.3-10.1-14.9c-13-19.3-25.2-38.7-37.8-60.3c-1-1.6-2.2-3.6-2.7-4.3s-2.7-4.5-4.9-8.5c-26.2-47-48.8-95.1-68.2-145.7
	c-2.6-6.6-4.9-12.9-5.2-13.9c-0.3-1-2.3-6.8-4.5-12.9c-12.6-35.9-22-66.1-30.8-99c-1.5-5.6-3-11.1-3.5-12.4s-1.8-6.3-3-11.3
	c-21.8-88.6-35.2-180-40.7-278.3c-2.2-39.8-3.1-84-2.5-124.2c0.5-30.9,0.7-39.6,1.2-40.1C27.2,223.8,500,29.1,500,29.1z"/>
</svg>
