<?xml version="1.0" encoding="utf-8"?>
<!-- Generator: Adobe Illustrator 26.0.2, SVG Export Plug-In . SVG Version: 6.00 Build 0)  -->
<svg version="1.1" id="Layer_1" xmlns="http://www.w3.org/2000/svg" xmlns:xlink="http://www.w3.org/1999/xlink" x="0px" y="0px"
	 width="64.4px" height="70.4px" viewBox="0 0 64.4 70.4" style="enable-background:new 0 0 64.4 70.4;" xml:space="preserve">
<style type="text/css">
	.st0{fill:#FCCB12;}
	.st1{fill:none;stroke:#FCCB12;stroke-width:0.2097;}
	.st2{fill:#0F793B;}
	.st3{fill:none;stroke:#0F793B;stroke-width:0.2097;}
	.st4{fill:#FFFFFF;}
	.st5{fill:none;stroke:#FFFFFF;stroke-width:0.2097;}
</style>
<g>
	<path class="st0" d="M33,59.5C8.8,43.6,9.1,24.2,9.1,24.2V1.9h46.5v22.6C54,47.5,33,59.5,33,59.5L33,59.5z"/>
	<path class="st1" d="M33,59.5C8.8,43.6,9.1,24.2,9.1,24.2V1.9h46.5v22.6C54,47.5,33,59.5,33,59.5L33,59.5z"/>
	<g>
		<polygon class="st0" points="10,19.3 18.1,19.3 18.1,15.2 26.4,15.2 26.4,10.9 38.3,10.9 38.3,15.2 47.2,15.2 47.2,19.3 
			54.7,19.3 54.7,2.9 10,2.9 		"/>
		<path class="st2" d="M9.6,2.5v22.2c0,0,1.1,19.5,23.4,34.2c0,0,19.6-11.6,22.1-33.9V2.5H9.6z M54.7,19.3h-7.5v-4.2h-8.9v-4.3H26.4
			v4.3H18v4.2h-8V2.9h44.7V19.3z"/>
	</g>
	<path class="st3" d="M18.1,19.3h-8V2.9h44.7v16.4h-7.5v-4.2h-8.9v-4.3h-12v4.3H18v4.2H18.1z M9.6,24.6V2.5h45.5v22.4
		C52.6,47.2,33,58.8,33,58.8C10.7,44.1,9.6,24.6,9.6,24.6L9.6,24.6z"/>
	<path class="st4" d="M24.5,23.9c3.1-3.4,6.9-5.7,6.9-5.7c0.5-0.4,0.6,0.3,0.6,0.3l0.3,1.4c0.3,1.4,0.6,0.1,0.6,0.1l0.1-1.5
		c0-1.1,0.7-0.3,0.7-0.3c3.8,2.5,7.5,6.1,7.5,6.1C40.1,25,39,26.5,39,26.5c-0.1-1.9,0.1-3.8,0.1-3.8c-1.7,0.2-3.5,3.7-3.5,3.7
		c-1.4-2.8-2.7-3.6-2.7-3.6c-1.2,0.5-2.5,3.3-2.5,3.3c-1.1-2.9-3.8-3.7-3.8-3.7c0.2,1.2,0.3,3.6,0.3,3.6
		C26.1,24.8,24.5,23.9,24.5,23.9L24.5,23.9z"/>
	<path class="st5" d="M24.5,23.9c3.1-3.4,6.9-5.7,6.9-5.7c0.5-0.4,0.6,0.3,0.6,0.3l0.3,1.4c0.3,1.4,0.6,0.1,0.6,0.1l0.1-1.5
		c0-1.1,0.7-0.3,0.7-0.3c3.8,2.5,7.5,6.1,7.5,6.1C40.1,25,39,26.5,39,26.5c-0.1-1.9,0.1-3.8,0.1-3.8c-1.7,0.2-3.5,3.7-3.5,3.7
		c-1.4-2.8-2.7-3.6-2.7-3.6c-1.2,0.5-2.5,3.3-2.5,3.3c-1.1-2.9-3.8-3.7-3.8-3.7c0.2,1.2,0.3,3.6,0.3,3.6
		C26.1,24.8,24.5,23.9,24.5,23.9L24.5,23.9z"/>
	<path class="st0" d="M23.9,23.5c3.7-3.5,7.2-5.8,7.2-5.8c0.7-0.5,1.2,0.3,1.2,0.3l0.2,0.8c0.2,0.5,0.2-0.3,0.2-0.3l0.1-0.6
		c0.1-0.9,1.4,0,1.4,0l7.6,6l-0.6,0.3c-4.6-4.4-7.5-6.2-7.5-6.2c-0.4-0.3-0.6,0.1-0.6,0.1c-0.1,1.2-0.2,1.8-0.2,1.8
		c-0.2,1-0.5-0.1-0.5-0.1L31.9,18c-0.1-0.3-0.7,0-0.7,0c-3.8,2.5-6.8,5.6-6.8,5.6L23.9,23.5z"/>
	<path class="st2" d="M23.9,23.5c3.7-3.5,7.2-5.8,7.2-5.8c0.7-0.5,1.2,0.3,1.2,0.3l0.2,0.8c0.2,0.5,0.2-0.3,0.2-0.3l0.1-0.6
		c0.1-0.9,1.4,0,1.4,0l7.6,6l-0.6,0.3c-4.6-4.4-7.5-6.2-7.5-6.2c-0.4-0.3-0.6,0.1-0.6,0.1c-0.1,1.2-0.2,1.8-0.2,1.8
		c-0.2,1-0.5-0.1-0.5-0.1L31.9,18c-0.1-0.3-0.7,0-0.7,0c-3.8,2.5-6.8,5.6-6.8,5.6L23.9,23.5z"/>
	<path class="st0" d="M32.9,23.8c2.5,2.8,2.7,7.2,2.7,7.2c-0.1,4.8-2.6,8.3-2.6,8.3c-2.8-4.3-2.6-8.4-2.6-8.4
		C30.4,26,32.9,23.8,32.9,23.8L32.9,23.8z"/>
	<path class="st1" d="M32.9,23.8c2.5,2.8,2.7,7.2,2.7,7.2c-0.1,4.8-2.6,8.3-2.6,8.3c-2.8-4.3-2.6-8.4-2.6-8.4
		C30.4,26,32.9,23.8,32.9,23.8L32.9,23.8z"/>
	<polygon class="st4" points="42.9,25.4 43.6,25.9 42.9,26.5 	"/>
	<polygon class="st5" points="42.9,25.4 43.6,25.9 42.9,26.5 	"/>
	<path class="st0" d="M42.9,25.4l0.1-0.6l1,0.9c1.2-1.5,2.8-2.3,2.8-2.3c-1.2,2.3-0.9,4.2-0.9,4.2c-1.2,9.9-9.2,11.5-9.2,11.5
		c7.3-4.9,6.2-12.6,6.2-12.6l0.6-0.6L42.9,25.4z"/>
	<path class="st1" d="M42.9,25.4l0.1-0.6l1,0.9c1.2-1.5,2.8-2.3,2.8-2.3c-1.2,2.3-0.9,4.2-0.9,4.2c-1.2,9.9-9.2,11.5-9.2,11.5
		c7.3-4.9,6.2-12.6,6.2-12.6l0.6-0.6L42.9,25.4z"/>
	<path class="st0" d="M39.3,27c1.2-1.7,3.2-2.8,3.2-2.8c-0.5,1-0.6,3.3-0.6,3.3c0.1,3.6-1.4,6.4-1.4,6.4c-2,3.3-5.4,5.1-5.4,5.1
		C40.1,34.7,39.3,27,39.3,27L39.3,27z"/>
	<path class="st1" d="M39.3,27c1.2-1.7,3.2-2.8,3.2-2.8c-0.5,1-0.6,3.3-0.6,3.3c0.1,3.6-1.4,6.4-1.4,6.4c-2,3.3-5.4,5.1-5.4,5.1
		C40.1,34.7,39.3,27,39.3,27L39.3,27z"/>
	<path class="st0" d="M36.1,26.8c0.9-2.2,2.5-3.2,2.5-3.2c-0.7,2-0.2,4.9-0.2,4.9c0.6,7.2-4,9.9-4,9.9c2.7-4.6,2.1-8.5,2.1-8.5
		C36.1,28,36.1,26.8,36.1,26.8L36.1,26.8z"/>
	<path class="st1" d="M36.1,26.8c0.9-2.2,2.5-3.2,2.5-3.2c-0.7,2-0.2,4.9-0.2,4.9c0.6,7.2-4,9.9-4,9.9c2.7-4.6,2.1-8.5,2.1-8.5
		C36.1,28,36.1,26.8,36.1,26.8L36.1,26.8z"/>
	<polygon class="st4" points="23.3,25 22.6,25.8 23.3,26.4 	"/>
	<polygon class="st5" points="23.3,25 22.6,25.8 23.3,26.4 	"/>
	<path class="st0" d="M23.3,25l-0.1-0.6c-0.3,0.6-1,1.2-1,1.2c-1.2-1.5-2.8-2.3-2.8-2.3c1.2,2.3,0.9,4.2,0.9,4.2
		c1.2,9.9,9.2,11.5,9.2,11.5c-7.3-4.9-6.2-12.6-6.2-12.6l-0.6-0.6L23.3,25z"/>
	<path class="st1" d="M23.3,25l-0.1-0.6c-0.3,0.6-1,1.2-1,1.2c-1.2-1.5-2.8-2.3-2.8-2.3c1.2,2.3,0.9,4.2,0.9,4.2
		c1.2,9.9,9.2,11.5,9.2,11.5c-7.3-4.9-6.2-12.6-6.2-12.6l-0.6-0.6L23.3,25z"/>
	<path class="st0" d="M26.7,27c-1.2-1.7-3.2-2.8-3.2-2.8c0.5,1,0.6,3.3,0.6,3.3c-0.1,3.6,1.4,6.4,1.4,6.4c2,3.3,5.4,5.1,5.4,5.1
		C26,34.7,26.7,27,26.7,27L26.7,27z"/>
	<path class="st1" d="M26.7,27c-1.2-1.7-3.2-2.8-3.2-2.8c0.5,1,0.6,3.3,0.6,3.3c-0.1,3.6,1.4,6.4,1.4,6.4c2,3.3,5.4,5.1,5.4,5.1
		C26,34.7,26.7,27,26.7,27L26.7,27z"/>
	<path class="st0" d="M29.9,26.9c-0.9-2.2-2.5-3.2-2.5-3.2c0.7,2,0.2,4.9,0.2,4.9c-0.6,7.2,4,9.9,4,9.9c-2.7-4.6-2.1-8.5-2.1-8.5
		C29.9,28,29.9,26.9,29.9,26.9L29.9,26.9z"/>
	<path class="st1" d="M29.9,26.9c-0.9-2.2-2.5-3.2-2.5-3.2c0.7,2,0.2,4.9,0.2,4.9c-0.6,7.2,4,9.9,4,9.9c-2.7-4.6-2.1-8.5-2.1-8.5
		C29.9,28,29.9,26.9,29.9,26.9L29.9,26.9z"/>
	<path class="st0" d="M34.6,48.2c0.2-6,5.3-6.6,5.3-6.6c6.8-0.5,6.5-4.3,6.5-4.3c1.7,7.8-3.1,8.7-3.1,8.7
		C37.5,46.2,34.6,48.2,34.6,48.2L34.6,48.2z"/>
	<path class="st1" d="M34.6,48.2c0.2-6,5.3-6.6,5.3-6.6c6.8-0.5,6.5-4.3,6.5-4.3c1.7,7.8-3.1,8.7-3.1,8.7
		C37.5,46.2,34.6,48.2,34.6,48.2L34.6,48.2z"/>
	<path class="st0" d="M31,48.1c-0.2-6-5.3-6.6-5.3-6.6c-6.8-0.5-6.5-4.3-6.5-4.3c-1.7,7.8,3.1,8.7,3.1,8.7C28.2,46,31,48.1,31,48.1
		L31,48.1z"/>
	<path class="st1" d="M31,48.1c-0.2-6-5.3-6.6-5.3-6.6c-6.8-0.5-6.5-4.3-6.5-4.3c-1.7,7.8,3.1,8.7,3.1,8.7C28.2,46,31,48.1,31,48.1
		L31,48.1z"/>
	<path class="st0" d="M31.7,53c1-2.5,0.9-4.9,0.9-4.9v-7.6h0.9V48c-0.1,2.4,1.1,5.1,1.1,5.1c-0.6-0.1-0.8,0.2-0.8,0.2
		c-0.1,0.2-0.2,0.6-0.2,0.6c-0.1,0.4-0.4,0.6-0.4,0.6c-0.3-0.1-0.4-0.6-0.4-0.6c0-0.3-0.3-0.6-0.3-0.6C32.2,53.1,31.7,53,31.7,53
		L31.7,53z"/>
	<path class="st1" d="M31.7,53c1-2.5,0.9-4.9,0.9-4.9v-7.6h0.9V48c-0.1,2.4,1.1,5.1,1.1,5.1c-0.6-0.1-0.8,0.2-0.8,0.2
		c-0.1,0.2-0.2,0.6-0.2,0.6c-0.1,0.4-0.4,0.6-0.4,0.6c-0.3-0.1-0.4-0.6-0.4-0.6c0-0.3-0.3-0.6-0.3-0.6C32.2,53.1,31.7,53,31.7,53
		L31.7,53z"/>
	<g>
		<path class="st0" d="M8.7,41.8c7.8,12.4,16.9,13.6,16.9,13.6l-0.2,4.3C33,62.5,41,60,41,60l-1-4.3c11.8-4,16.8-14,16.8-14
			c2.3,2.3,1.7,6.9,1.7,6.9c2.1-0.9,5.6-3.8,5.6-3.8c-1.1,7.4-7,11.3-7,11.3l2.1,2.4C49,70.7,32.4,70.1,32.4,70.1
			c-16.5,0-25.6-10-25.6-10l2.7-2.9c-8-6.8-9.4-13.3-9.4-13.3c4,3,6.4,3.9,6.4,3.9C6.6,44.2,8.7,41.8,8.7,41.8L8.7,41.8z"/>
		<path class="st1" d="M8.7,41.8c7.8,12.4,16.9,13.6,16.9,13.6l-0.2,4.3C33,62.5,41,60,41,60l-1-4.3c11.8-4,16.8-14,16.8-14
			c2.3,2.3,1.7,6.9,1.7,6.9c2.1-0.9,5.6-3.8,5.6-3.8c-1.1,7.4-7,11.3-7,11.3l2.1,2.4C49,70.7,32.4,70.1,32.4,70.1
			c-16.5,0-25.6-10-25.6-10l2.7-2.9c-8-6.8-9.4-13.3-9.4-13.3c4,3,6.4,3.9,6.4,3.9C6.6,44.2,8.7,41.8,8.7,41.8L8.7,41.8z"/>
		<path class="st2" d="M2,45.9c2.8,2.3,5.5,2.4,5.5,2.4c-0.3-2.7,1.3-5.2,1.3-5.2c5.6,10.3,16.5,13.1,16.5,13.1
			c-3.9,0.6-10.7-1.4-10.7-1.4c7.4,7.2,19.2,7,19.2,7C45.7,61.3,52.6,54,52.6,54c-7.2,1.7-11.7,2-11.7,2c11.4-4,16-13.2,16-13.2
			c1.4,2.4,1,6.5,1,6.5c1.5,0.1,5-2.7,5-2.7c-0.8,4-6.2,8.9-6.2,8.9l-2.4-2.2L53.6,54c2.1,1.4,4.4,4.2,4.4,4.2
			c-10.7,12.3-25.6,11-25.6,11c-15.6,0.2-24.3-9.3-24.3-9.3c2-2.7,4.8-5.3,4.8-5.3l-0.6-0.7L10,56.3C3.8,51.1,2,45.9,2,45.9L2,45.9z
			"/>
		<path class="st3" d="M2,45.9c2.8,2.3,5.5,2.4,5.5,2.4c-0.3-2.7,1.3-5.2,1.3-5.2c5.6,10.3,16.5,13.1,16.5,13.1
			c-3.9,0.6-10.7-1.4-10.7-1.4c7.4,7.2,19.2,7,19.2,7C45.7,61.3,52.6,54,52.6,54c-7.2,1.7-11.7,2-11.7,2c11.4-4,16-13.2,16-13.2
			c1.4,2.4,1,6.5,1,6.5c1.5,0.1,5-2.7,5-2.7c-0.8,4-6.2,8.9-6.2,8.9l-2.4-2.2L53.6,54c2.1,1.4,4.4,4.2,4.4,4.2
			c-10.7,12.3-25.6,11-25.6,11c-15.6,0.2-24.3-9.3-24.3-9.3c2-2.7,4.8-5.3,4.8-5.3l-0.6-0.7L10,56.3C3.8,51.1,2,45.9,2,45.9L2,45.9z
			"/>
	</g>
	<g>
		<path class="st4" d="M11.9,59.8l0.8,0.4c-0.1,0.3-0.2,0.5-0.1,0.7c0.1,0.2,0.2,0.4,0.4,0.5c0.2,0.2,0.5,0.2,0.7,0.2
			s0.3-0.1,0.4-0.2c0.1-0.1,0.1-0.2,0.1-0.3s-0.1-0.2-0.2-0.3c-0.1-0.1-0.2-0.3-0.5-0.6c-0.3-0.4-0.5-0.7-0.6-0.9
			c-0.1-0.4,0-0.7,0.2-1c0.1-0.2,0.3-0.3,0.5-0.4s0.5-0.1,0.7-0.1s0.5,0.2,0.8,0.4c0.5,0.3,0.8,0.7,0.9,1c0.1,0.4,0,0.7-0.2,1.1
			L15,59.8c0.1-0.2,0.1-0.4,0.1-0.6c0-0.2-0.2-0.3-0.4-0.4c-0.2-0.1-0.4-0.2-0.6-0.2c-0.1,0-0.2,0.1-0.3,0.2c-0.1,0.1-0.1,0.2,0,0.3
			c0,0.1,0.2,0.4,0.5,0.7s0.5,0.6,0.6,0.8s0.2,0.4,0.2,0.7S15,61.8,14.8,62c-0.1,0.2-0.3,0.4-0.6,0.5c-0.2,0.1-0.5,0.1-0.8,0.1
			c-0.3-0.1-0.6-0.2-0.9-0.4c-0.5-0.3-0.8-0.7-0.9-1.1C11.6,60.7,11.7,60.3,11.9,59.8z"/>
		<path class="st4" d="M15.7,61.5c0.2-0.4,0.4-0.7,0.7-0.9c0.2-0.2,0.4-0.3,0.6-0.4s0.5-0.1,0.7-0.1c0.3,0,0.6,0.1,1,0.3
			c0.6,0.3,1,0.7,1.2,1.3c0.2,0.5,0.1,1.1-0.2,1.8c-0.3,0.7-0.8,1.1-1.3,1.3s-1.1,0.1-1.7-0.1c-0.6-0.3-1-0.7-1.2-1.3
			C15.3,62.7,15.4,62.1,15.7,61.5z M16.6,61.8c-0.2,0.5-0.3,0.9-0.2,1.2s0.3,0.6,0.6,0.8c0.3,0.2,0.7,0.2,1,0
			c0.3-0.1,0.6-0.4,0.8-0.9c0.2-0.5,0.3-0.9,0.2-1.2s-0.3-0.6-0.6-0.7c-0.3-0.2-0.7-0.2-1-0.1C17.1,61.1,16.8,61.4,16.6,61.8z"/>
		<path class="st4" d="M20.8,61.4l0.9,0.3L20.9,64c-0.1,0.4-0.2,0.6-0.2,0.7c0,0.2,0,0.4,0.1,0.5c0.1,0.2,0.3,0.3,0.5,0.3
			c0.2,0.1,0.4,0.1,0.6,0s0.3-0.2,0.3-0.3c0.1-0.1,0.2-0.4,0.3-0.7l0.8-2.4l0.9,0.3l-0.7,2.2c-0.2,0.5-0.3,0.9-0.4,1.1
			s-0.3,0.3-0.4,0.5c-0.2,0.1-0.4,0.2-0.6,0.2s-0.5,0-0.9-0.1s-0.7-0.3-0.9-0.5c-0.2-0.2-0.3-0.3-0.4-0.5s-0.1-0.4-0.1-0.6
			c0-0.3,0.1-0.6,0.3-1.1L20.8,61.4z"/>
		<path class="st4" d="M24.8,67.2l0.8-3.7l-1.3-0.3l0.2-0.7l3.5,0.7L27.7,64l-1.3-0.3l-0.8,3.7L24.8,67.2z"/>
		<path class="st4" d="M27.6,67.8l0.4-4.5l0.9,0.1l-0.2,1.8l1.8,0.2l0.2-1.8l0.9,0.1l-0.4,4.5L30.3,68l0.2-2l-1.8-0.2l-0.2,2H27.6z"
			/>
		<path class="st4" d="M37.8,67.9l-1,0.1l-0.5-1l-1.8,0.1l-0.3,1l-1,0.1l1.4-4.6l1-0.1L37.8,67.9z M36,66.2l-0.7-1.6l-0.5,1.7
			L36,66.2z"/>
		<path class="st4" d="M38.4,67.7l-0.9-4.4l3-0.6l0.1,0.7l-2.1,0.4l0.2,1l1.8-0.4l0.1,0.7l-1.8,0.4l0.4,1.9L38.4,67.7z"/>
		<path class="st4" d="M42.2,66.9l-1.4-4.3l1.8-0.6c0.5-0.2,0.8-0.2,1-0.2s0.4,0.1,0.6,0.2c0.2,0.2,0.3,0.4,0.4,0.6
			c0.1,0.3,0.1,0.6,0,0.9s-0.4,0.5-0.7,0.7c0.2,0,0.4,0.1,0.6,0.2c0.2,0.1,0.4,0.3,0.7,0.5l0.8,0.7L45,66l-0.9-0.7
			c-0.3-0.3-0.6-0.4-0.7-0.5c-0.1-0.1-0.2-0.1-0.3-0.1s-0.3,0-0.5,0.1l-0.2,0.1l0.6,1.8L42.2,66.9z M42.2,64.2l0.6-0.2
			c0.4-0.1,0.7-0.2,0.8-0.3s0.2-0.2,0.2-0.3s0-0.2,0-0.4c0-0.1-0.1-0.2-0.2-0.3s-0.2-0.1-0.4-0.1c-0.1,0-0.3,0.1-0.6,0.2L41.9,63
			L42.2,64.2z"/>
		<path class="st4" d="M46.5,65.4l-1.8-4.1l0.8-0.4l1.8,4.1L46.5,65.4z"/>
		<path class="st4" d="M49.8,61.8l0.9-0.2c0.1,0.5,0.1,0.9,0,1.3c-0.2,0.4-0.4,0.7-0.9,0.9c-0.5,0.3-1,0.4-1.6,0.2s-1-0.6-1.3-1.2
			c-0.4-0.7-0.5-1.3-0.4-1.8c0.1-0.6,0.5-1,1-1.3s0.9-0.4,1.4-0.2c0.3,0.1,0.5,0.2,0.8,0.5L49,60.6c-0.2-0.2-0.4-0.3-0.6-0.3
			c-0.2,0-0.4,0-0.6,0.1c-0.3,0.2-0.5,0.4-0.5,0.7c-0.1,0.3,0,0.7,0.3,1.2s0.6,0.8,0.9,0.9c0.3,0.1,0.6,0.1,0.9-0.1
			c0.2-0.1,0.4-0.3,0.4-0.5C50,62.4,49.9,62.1,49.8,61.8z"/>
		<path class="st4" d="M55.4,59.8l-0.8,0.6l-0.9-0.6l-1.4,1.1l0.3,1l-0.8,0.6l-1.4-4.6l0.8-0.6L55.4,59.8z M52.9,59.4l-1.5-0.9
			l0.5,1.7L52.9,59.4z"/>
	</g>
</g>
</svg>
