<?xml version="1.0" encoding="utf-8"?>
<!-- Generator: Adobe Illustrator 26.0.2, SVG Export Plug-In . SVG Version: 6.00 Build 0)  -->
<svg version="1.1" id="Calque_1" xmlns="http://www.w3.org/2000/svg" xmlns:xlink="http://www.w3.org/1999/xlink" x="0px" y="0px"
	 width="234px" height="274px" viewBox="0 0 234 274" style="enable-background:new 0 0 234 274;" xml:space="preserve">
<style type="text/css">
	.st0{fill:#FFFFFF;}
	.st1{fill:#231F20;}
	.st2{fill:#999999;}
	.st3{fill:#666666;}
	.st4{fill:#161413;}
	.st5{fill:#FFC905;}
	.st6{fill:#D71822;}
	.st7{fill:#FFC905;stroke:#FFC905;stroke-width:0.7965;stroke-linejoin:round;}
</style>
<g id="Background">
	<g id="svg2">
		<g>
			<g id="Group55">
				<path class="st0" d="M6,161.3c0-61,49.7-110.7,110.7-110.7s110.7,49.6,110.7,110.7c0,61-49.7,110.7-110.7,110.7S6,222.4,6,161.3
					z"/>
				<g>
					<g id="Group54">
						<path class="st0" d="M201.2,161.4c0,46.7-37.8,84.5-84.4,84.5s-84.4-37.8-84.4-84.5c0-46.6,37.8-84.4,84.4-84.4
							C163.4,76.9,201.2,114.7,201.2,161.4z"/>
						<g>
							<g id="Group53">
								<path class="st1" d="M67.7,110.7c2.1,1.9,2.7,4.3,0.5,6.6l-1.1,1.2L60,112l1.1-1.2C63.2,108.4,65.6,108.7,67.7,110.7z
									 M69.1,109.1c-3.6-3.3-7.1-2.4-9.5,0.3l-2.5,2.7l10.1,9.2l2.5-2.7C72.1,116,72.7,112.4,69.1,109.1z"/>
								<path class="st1" d="M76.6,111.8l-8-11.1l7.1-5.2l1.2,1.6l-5.5,4l2,2.7l3.2-2.3l1.2,1.6l-3.2,2.3l2.5,3.5l5.7-4.1l1.2,1.6
									L76.6,111.8z"/>
								<path class="st1" d="M91.4,103c-3.1,1.4-5.6,0.1-7.1-3.4l-3.2-7.3l1.9-0.8l3.2,7.2c1,2.4,2.6,3.2,4.5,2.4
									c2-0.9,2.4-2.5,1.3-4.8L88.7,89l1.9-0.8l3.2,7.3C95.3,99,94.5,101.7,91.4,103z"/>
								<path class="st1" d="M102.3,87.2l2.4,11.4l-2,0.4l-2.4-11.4l-3.9,0.8l-0.4-2l9.8-2.1l0.4,2L102.3,87.2z"/>
								<path class="st1" d="M115.2,97.8c-2,0-3.7-0.8-4.9-2.1l1.4-1.5c0.9,1,2.3,1.6,3.6,1.6c1.9,0,2.8-0.7,2.8-2
									c0-1.1-0.8-1.6-3.1-2.2c-2.9-0.8-4.3-1.5-4.4-3.9c0-2.4,1.9-3.8,4.4-3.9c1.9,0,3.3,0.6,4.5,1.8l-1.4,1.5
									c-0.9-0.9-1.9-1.3-3.2-1.3c-1.6,0-2.3,0.8-2.3,1.7c0,1,0.7,1.4,3,2.1c2.7,0.8,4.4,1.6,4.5,4S118.7,97.7,115.2,97.8z"/>
								<path class="st1" d="M128.5,98.9c-3.5-0.6-5.2-3.9-4.4-8c0.8-4.1,3.5-6.5,7-5.9c2.2,0.4,3.5,1.6,4.1,3.4l-2,0.8
									c-0.5-1.2-1.1-1.9-2.5-2.1c-2.3-0.4-4,1.2-4.5,4.2c-0.6,3,0.4,5.2,2.7,5.6c1.4,0.3,2.4-0.2,3.3-1.1l1.5,1.4
									C132.3,98.6,130.5,99.2,128.5,98.9z"/>
								<path class="st1" d="M143.9,103.7l2.4-5.6l-5.8-2.5l-2.4,5.6l-1.9-0.8l5.3-12.6l1.9,0.8l-2.2,5.1l5.8,2.5l2.2-5.1l1.9,0.8
									l-5.3,12.6L143.9,103.7z"/>
								<path class="st1" d="M149,106.4l7.8-11.2l7.2,5.1l-1.1,1.6l-5.5-3.9l-1.9,2.8l3.2,2.3l-1.1,1.6l-3.2-2.3l-2.5,3.5l5.8,4
									l-1.1,1.6L149,106.4z"/>
								<path class="st1" d="M171.5,113.2c-1.1,1-2.2,0.8-3.2-0.2l-2.7-2.9l3.2-3l2.7,2.9C172.4,111,172.5,112.2,171.5,113.2z
									 M172.9,114.7c2.1-1.9,1.6-4.3,0-6l-4.1-4.4l-10,9.4l1.4,1.5l4-3.7l2.1,2.3l-2.1,5.7l1.6,1.7l2.2-5.9
									C169.6,116.3,171.3,116.2,172.9,114.7z"/>
								<path class="st1" d="M56.8,190.1l-3.2,1.6l1.8,3.5l-1.8,0.9l-1.8-3.5l-5.4,2.8l-0.9-1.8l12.2-6.2l4,7.8l-1.8,0.9L56.8,190.1
									z"/>
								<path class="st1" d="M55,209.7c-2.1-2.7-1.4-5.4,1.5-7.7l6.3-4.9l1.3,1.6l-6.2,4.9c-2,1.6-2.5,3.3-1.2,4.9
									c1.3,1.7,3,1.7,5,0.1l6.3-4.9l1.3,1.6l-6.3,4.9C59.9,212.5,57.1,212.3,55,209.7z"/>
								<path class="st1" d="M65.5,220.7c-1.5-1.3-2.3-3.1-2.2-4.8l2-0.1c0,1.4,0.7,2.7,1.6,3.6c1.4,1.2,2.6,1.3,3.4,0.3
									c0.7-0.8,0.4-1.7-0.9-3.7c-1.6-2.5-2.2-4-0.6-5.8c1.5-1.8,4-1.6,5.9,0.1c1.4,1.2,2,2.6,2.2,4.3l-2.1,0.2
									c-0.1-1.2-0.5-2.2-1.6-3.1c-1.2-1-2.2-0.9-2.8-0.2c-0.6,0.7-0.5,1.5,0.9,3.6c1.5,2.4,2.2,4.1,0.6,6
									C70.4,222.7,68.1,222.9,65.5,220.7z"/>
								<path class="st1" d="M76.9,228.9c-1.7-1-2.8-2.6-3.1-4.4l2-0.5c0.3,1.3,1.1,2.5,2.2,3.2c1.6,1,2.8,0.9,3.5-0.3
									c0.5-0.9,0.1-1.8-1.5-3.5c-2.1-2.2-2.9-3.5-1.7-5.6c1.2-2,3.6-2.3,5.8-1c1.6,0.9,2.5,2.2,2.9,3.9l-2,0.5
									c-0.3-1.2-0.9-2.1-2.1-2.7c-1.4-0.8-2.4-0.5-2.8,0.3c-0.5,0.8-0.2,1.6,1.5,3.3c1.9,2.1,2.9,3.7,1.7,5.8
									C82.2,230,80,230.7,76.9,228.9z"/>
								<path class="st1" d="M96.7,226.6c-0.3,0.8-1.1,1.5-2.4,1l-3.5-1.2l1.2-3.3l3.5,1.2C96.8,224.7,97,225.6,96.7,226.6z
									 M97.3,232.9c0.6-1.8-0.2-3.1-1.1-3.8c1.1-0.1,2.1-0.7,2.5-2c0.8-2.2-0.3-3.9-2.5-4.6l-5.3-1.9l-4.5,12.9l5.1,1.8
									C94.3,236.4,96.3,235.6,97.3,232.9z M95.3,232.3c-0.4,1.3-1.4,1.9-3.1,1.3l-3.4-1.2l1.5-4.3l3.5,1.2
									C95.2,229.9,95.8,231,95.3,232.3z"/>
								<path class="st1" d="M108.6,234l-4.2-0.6l1.5-2.9c0.5-1,1.2-2.4,1.4-3c0.1,0.6,0.4,2.3,0.6,3.3L108.6,234z M111.9,239.6
									l-3.1-14.2l-2.1-0.3L99.9,238l2.1,0.3l1.6-3.1l5.4,0.7l0.7,3.4L111.9,239.6z"/>
								<path class="st1" d="M116.8,239.6l-0.7-13.7l2-0.1l0.6,11.6l6.8-0.4l0.1,2L116.8,239.6z"/>
								<path class="st1" d="M130.5,238.4l-3.1-13.3l2-0.5l2.7,11.4l6.6-1.6l0.5,2L130.5,238.4z"/>
								<path class="st1" d="M137.2,230.4l-0.6-1.9l4.6-1.6l0.6,1.9L137.2,230.4z"/>
								<path class="st1" d="M150.4,220.6c0.4,0.8,0.3,1.8-0.9,2.4l-3.3,1.7l-1.6-3.1l3.3-1.7C149.1,219.2,149.9,219.7,150.4,220.6z
									 M155.4,224.5c-0.9-1.7-2.4-2-3.5-1.8c0.7-0.9,0.9-2,0.3-3.2c-1.1-2-3-2.4-5.1-1.3l-5,2.6l6.3,12.1l4.8-2.5
									C155.8,229,156.6,227,155.4,224.5z M153.6,225.5c0.6,1.2,0.5,2.3-1.1,3.2l-3.2,1.7l-2.1-4l3.3-1.7
									C151.7,223.9,152.9,224.3,153.6,225.5z"/>
								<path class="st1" d="M165.9,222.2c-2.6,2.1-5.4,1.6-7.8-1.4l-5-6.1l1.6-1.3l5,6.1c1.6,2,3.3,2.4,4.9,1.1c1.7-1.4,1.6-3,0-5
									l-5.1-6.2l1.6-1.3l5,6.2C168.7,217.2,168.5,220,165.9,222.2z"/>
								<path class="st1" d="M179.3,207.9l-10.1-1.1c-0.6-0.1-1.5-0.2-1.9-0.3c0.4,0.3,1.9,1.5,2.5,2l5.5,4.4l-1.2,1.6l-10.7-8.6
									l1.3-1.6l9.8,1.2c0.7,0.1,1.8,0.3,2.2,0.3c-0.4-0.3-1.9-1.5-2.5-2l-5.5-4.4l1.2-1.6l10.7,8.6L179.3,207.9z"/>
								<path class="st1" d="M181.4,190.8c2.6,1.3,3.7,3.4,2.2,6.3l-0.8,1.5l-8.6-4.4l0.8-1.5C176.5,189.8,178.9,189.5,181.4,190.8z
									 M182.4,188.9c-4.3-2.2-7.5-0.4-9.1,2.8l-1.7,3.3l12.2,6.2l1.7-3.3C187.1,194.8,186.7,191.1,182.4,188.9z"/>
							</g>
						</g>
						<path class="st2" d="M56.9,161.4c0,33,26.8,59.9,59.8,59.9s59.8-26.8,59.8-59.9c0-33-26.8-59.8-59.8-59.8
							C83.8,101.6,56.9,128.4,56.9,161.4z M60.4,161.4c0-31.1,25.3-56.4,56.4-56.4s56.4,25.3,56.4,56.4s-25.3,56.4-56.4,56.4
							C85.7,217.8,60.4,192.5,60.4,161.4z"/>
					</g>
				</g>
				<path class="st3" d="M116.7,54.7c-58.9,0-106.6,47.7-106.6,106.6c0,24.3,8.2,46.7,21.9,64.7l9-4.6c-13.2-16.5-21-37.4-21-60.1
					c0-53.4,43.3-96.7,96.8-96.7c53.4,0,96.8,43.3,96.8,96.7c0,22.7-7.8,43.6-20.9,60.1l9,4.6c13.7-17.9,21.8-40.3,21.8-64.6
					C223.3,102.4,175.6,54.7,116.7,54.7z"/>
				<path class="st4" d="M46.8,228.1l-8.8,5.1c11.2,12.2,25.2,21.9,41,27.8l4.5-8.9C69.4,247,56.9,238.7,46.8,228.1z"/>
				<path class="st5" d="M195.4,233.2l-8.8-5.1c-10.2,10.6-22.7,19-36.9,24.1l4.6,8.8C170.2,255.1,184.2,245.5,195.4,233.2z"/>
				<path class="st6" d="M116.7,258c-8.9,0-17.6-1.2-25.8-3.5l-3.5,9.3c9.3,2.7,19.2,4.1,29.3,4.1s19.9-1.4,29.2-4.1l-3.5-9.3
					C134.2,256.8,125.6,258,116.7,258z"/>
				<path class="st2" d="M34.2,161.3c0-45.5,37-82.5,82.5-82.5s82.5,37,82.5,82.5s-37,82.5-82.5,82.5S34.2,206.8,34.2,161.3z
					 M30.2,161.3c0,47.7,38.8,86.5,86.5,86.5s86.5-38.8,86.5-86.5s-38.8-86.5-86.5-86.5C69,74.9,30.2,113.6,30.2,161.3z"/>
				<path class="st4" d="M164.5,166.8c0,0-9.1-30.2-10.6-35c-1.3-4.1-4.5-3.9-4.5-3.9s-1.1,0.1-9.6,0c-8.3-0.1-9.1,2-3.2,9.7
					c1.9,2.5,1.1,2.8-3.6,3.7c-4.8,0.8-7.1-3.8-7.3-5.9c-0.3-2.1-1.3-9.4-1.5-9.7c-0.3-0.9,1.9-1.5,3-0.8c2,1.3,1.7,1.7,1.7-2.1
					c0-3.8-5-3.5-5-3.5c-0.3-4-6.3-3.3-8.3-3.2c-1.9,0.1-3.9,1.5-9,1.5s-4.2,6.6-4.2,6.6s2.4-0.7,4.2-0.7c1.8,0,6.4,0,5,2.8
					c0,0-3.7-1.3-5.5-1.3s-6,0-7-1.6c-1.1-1.5-1.4-2-1.4-2s-1.2,4.8,1.5,5.3s5.5,0,6.8-0.1s3.9-0.1,4.6,0s0,0.8-1.4,0.9
					s-4.5-0.1-3.6,1.3c0.8,1.4,2.3,2.2,3.1,2.4c0.9,0.2,3.3-0.2,2.2,2.4l-0.6,1.7c-0.7,2-2.8,6.6-7.6,5.8c-4.8-0.8-5.5-1.2-3.6-3.6
					c5.9-7.8,5.1-9.8-3.2-9.7c-8.6,0.1-9.6,0-9.6,0s-3.2-0.3-4.5,3.9c-1.5,4.8-12.9,35.5-12.9,35.5s-0.5,3,2,3.8
					c3.3,1.1,4.3-2.1,4.3-2.1l8.3-21.9c0.6,0.4,1.2,0.8,1.8,1.1L75,176.8c0,0-1.1,3.2,2.3,4.3c3,1,4.3-2.7,4.3-2.7l10-27.1
					c0.5,0.2,1.1,0.5,1.6,0.7l-10.5,30c0,0-1,3.2,2.1,4.3s4.3-2.6,4.3-2.6l10.4-29.4c0.6,0.2,1.2,0.3,1.8,0.5v0.1L96.2,172
					c0,0-0.9,3,2.1,4.2s4.6-2.8,4.6-2.8l4.8-15.6c0,0,2,8.1-1.5,13.8s-6.9,9.4-11.4,11.5c0,0,0.1,0.6,1.8,0.8c1.6,0.1,1.7,0.5,2,0.8
					l-2.3,3.6c0,0-0.4,1.3-1.9,0.6c-1.6-0.7-3.6-1.8-3.6-1.8s-2-0.5-2.5,0.5s-0.5,1-0.5,1s-2.3,0.2-2.6,1.6
					c-0.3,1.3,0.1,1.5,0.1,1.5s1.1-0.7,1.5-0.5c0.6,0.4,0.1,1.5,0.8,1.8c1.3,0.5,2.3-0.3,3-0.9c0.5-0.4,1.6,0.1,1.6,0.4
					c0.1,0.4-0.5,1.3-1.8,1.5s-4.3,0.7-4.1,2.2c0.2,1.3,0.2,1.4,0.2,1.4s-1.1,2.3,1.1,3.2c0,0,0.4-1.4,0.8-1.4
					c0.5,0,0.9,0.8,1.7,0.8c0.8,0,1.6-0.7,2-2.1c0.5-1.4,1.3-3.3,1.3-3.3s0.6-0.7,0.9-0.6c0.4,0.1,0.5,0.8,0.4,1.2s-0.4,1.3-0.4,1.6
					c-0.1,0.2-2,2.7-0.5,3.9c1.6,1.2,1.4,1.6,1.8,1.9c0.4,0.3,2,0.9,2.6,0.5c0,0-0.7-1.3-0.9-1.5c-0.2-0.2-0.1-0.7,1-0.7
					s1.1-1.4,0.4-2.5c-0.7-1-0.9-2.1-1.2-2.7c-0.5-1.4,0.8-1.9,1.3-0.5s0.3,2.7,1.5,2.5c0.9-0.1,1.1-0.7,1.5-0.7
					c0.4,0.1,1.6,0.9,0.9,2.4c0,0,2.7-0.4,1.8-2.9c-0.6-1.7-1.4-0.8-0.9-2.5c0.4-1.3-0.8-2.2-2.1-2.2c-1.3,0.1-2.9-0.3-2.1-1.8
					c0.8-1.6,2-3.6,2-3.6l1.9,2.2c0,0,1.8-4.6,3.4-6.6s3.6-4.6,4.6-4c0.9,0.5,1.2,7.1,0.5,10.4c-0.8,3.3-3.5,10.6-4.1,11.6
					s3.6-0.6,4.1-0.8s1.6-1.5,1.8,0.5c0.2,2,1,5.8,2.8,7.7l0,0c1.8-1.9,2.7-5.8,2.9-7.8c0.2-2,1.3-0.7,1.8-0.5s4.8,1.8,4.1,0.8
					c-0.6-1-3.4-8.3-4.1-11.6c-0.8-3.3-0.5-9.9,0.5-10.5c0.9-0.5,2.9,2,4.5,4s3.4,6.6,3.4,6.6l1.9-2.2c0,0,1.1,1.9,2,3.6
					c0.8,1.5-0.8,1.9-2.1,1.8c-1.3-0.1-2.5,0.9-2.1,2.2c0.5,1.6-0.3,0.8-0.9,2.5c-0.9,2.5,1.8,2.9,1.8,2.9c-0.6-1.5,0.5-2.3,0.9-2.4
					c0.4-0.1,0.6,0.5,1.5,0.7c1.2,0.2,1-1.1,1.5-2.5c0.6-1.4,1.8-0.9,1.3,0.5c-0.2,0.7-0.5,1.7-1.2,2.7s-0.7,2.5,0.4,2.5
					c1.1,0,1.2,0.5,1,0.7s-0.9,1.5-0.9,1.5c0.6,0.4,2.2-0.2,2.6-0.5c0.4-0.3,0.2-0.8,1.8-1.9c1.6-1.2-0.4-3.6-0.5-3.9
					c-0.1-0.2-0.3-1.2-0.4-1.6c-0.1-0.4,0.1-1,0.4-1.2c0.3-0.1,0.9,0.6,0.9,0.6s0.8,1.9,1.3,3.3c0.5,1.4,1.2,2.1,2,2.1
					s1.2-0.8,1.7-0.8s0.8,1.4,0.8,1.4c2.2-0.9,1.1-3.2,1.1-3.2s0-0.1,0.2-1.4c0.2-1.5-2.7-2-4.1-2.2c-1.3-0.2-1.9-1.1-1.8-1.5
					c0.1-0.4,1.2-0.8,1.6-0.4c0.7,0.6,1.6,1.4,2.9,0.9c0.7-0.3,0.2-1.4,0.8-1.8c0.5-0.3,1.5,0.5,1.5,0.5s0.4-0.2,0.1-1.5
					c-0.3-1.3-2.6-1.6-2.6-1.6s0,0-0.5-1s-2.5-0.5-2.5-0.5s-2,1.1-3.6,1.7c-1.6,0.7-1.9-0.6-1.9-0.6l-1.9-4c0.2-0.3,0.3-0.7,2-0.8
					c1.6-0.1,1.8-0.8,1.8-0.8c-4.5-2.1-6.8-5.2-10.3-10.9s-1.5-13.8-1.5-13.8l4.8,15.6c0,0,1.6,4,4.6,2.8s2.1-4.2,2.1-4.2l-5.4-18.1
					l0,0c0.6-0.2,1.2-0.3,1.8-0.5l8.9,29.7c0,0,1.3,3.7,4.3,2.6c3.1-1,2.1-4.3,2.1-4.3l-9.1-30.4c0.5-0.2,1-0.5,1.6-0.7l0,0
					l8.6,27.6c0,0,1.3,3.7,4.3,2.7c3.3-1.2,2.3-4.3,2.3-4.3l-9-29.3l0,0c0.6-0.4,1.2-0.7,1.7-1.1c0.2,0.2,0.2,0.4,0.2,0.4l6.8,22.2
					c0,0,1.1,3.2,4.3,2.1C165,169.7,164.5,166.8,164.5,166.8z M73.3,167.3c0,0-0.5,1.8-1.6,1.3c-1-0.5-0.3-2-0.3-2
					s7.9-20.3,8.7-22.2c0.6,0.4,1.1,0.8,1.7,1.2L73.3,167.3z M79.6,176.9c0,0-0.5,1.8-1.5,1.3s-0.3-1.9-0.3-1.9s8.5-23.5,9.8-27.2
					c0.6,0.3,1.2,0.6,1.8,0.9L79.6,176.9z M87.1,182.3c0,0-0.5,1.8-1.5,1.3c-1-0.4-0.3-1.9-0.3-1.9s8.6-24.7,10.2-29.2
					c0.6,0.2,1.3,0.4,1.9,0.6L87.1,182.3z M100.5,172.6c0,0-0.4,1.8-1.5,1.4c-1.1-0.4-0.4-1.9-0.4-1.9s4.1-13.8,5.2-17.4
					c0.7,0.1,1.4,0.2,2,0.3L100.5,172.6z M115.4,121.3c-0.8,0-1.6-0.9-1.6-0.9s0.4-0.8,1.5-0.8s1.6,0.8,1.6,0.8
					S116.2,121.3,115.4,121.3z M136.5,172.2c0,0,0.6,1.5-0.4,1.9c-1.1,0.4-1.5-1.4-1.5-1.4l-5.4-17.3c0,0-0.1-0.2,0.1-0.6
					c0.6-0.1,1.2-0.2,1.8-0.3C131.4,155.6,136.5,172.2,136.5,172.2z M148.4,181.6c0,0,0.6,1.5-0.4,1.9c-1.1,0.4-1.5-1.4-1.5-1.4
					l-9.1-29.4c0.6-0.2,1.3-0.4,1.9-0.7C140.3,155.2,148.4,181.6,148.4,181.6z M156,176.4c0,0,0.6,1.5-0.4,1.9
					c-1.1,0.4-1.5-1.4-1.5-1.4l-8.6-27.7c0.6-0.3,1.2-0.6,1.8-1C147.9,150.1,156,176.4,156,176.4z M161.7,168.4
					c-1,0.4-1.5-1.4-1.5-1.4l-6.9-22.6c0.6-0.4,1.1-0.8,1.7-1.3l0,0c0.2,0.5,7.1,23.3,7.1,23.3S162.7,168,161.7,168.4z"/>
			</g>
		</g>
		<g>
			<g id="_761874112">
				<path id="_polygon325" class="st7" d="M223.3,18.1L223.3,18.1l-13.4,9.7l5.1,15.7l-13.4-9.8l-13.4,9.6l5.2-15.6L180,18.1
					l16.5,0.1l5.1-15.8l5.1,15.8L223.3,18.1z"/>
				<path id="_polygon329" class="st7" d="M159.5,43.4L159.5,43.4l-13.3-9.7l-13.3,9.7l5.1-15.6l-13.3-9.7h16.5l5.1-15.6l5,15.7
					l16.5,0.1l-13.4,9.6L159.5,43.4z"/>
				<path id="_polygon333" class="st7" d="M87.7,33.7l-13.3,9.7l0,0l5.1-15.6l-13.4-9.6l16.5-0.1l5-15.6l5,15.6h16.5l-13.3,9.7
					l5.1,15.7L87.7,33.7z"/>
				<path id="_polygon3156" class="st7" d="M18.9,43.3l5.2-15.6l-13.3-9.8L27.3,18l5.2-15.6l4.9,15.7h16.5l-13.4,9.6l5,15.7
					l-13.2-9.8L18.9,43.3z"/>
			</g>
		</g>
	</g>
</g>
</svg>
