<?xml version="1.0" encoding="utf-8"?>
<!-- Generator: Adobe Illustrator 26.0.2, SVG Export Plug-In . SVG Version: 6.00 Build 0)  -->
<svg version="1.1" id="svg2483" xmlns:svg="http://www.w3.org/2000/svg"
	 xmlns="http://www.w3.org/2000/svg" xmlns:xlink="http://www.w3.org/1999/xlink" x="0px" y="0px" width="755.4px" height="734.6px"
	 viewBox="0 0 755.4 734.6" style="enable-background:new 0 0 755.4 734.6;" xml:space="preserve">
<style type="text/css">
	.st0{clip-path:url(#SVGID_00000091730426821631652050000003658437279275483293_);}
	.st1{clip-path:url(#SVGID_00000112625698632456923660000012085915422716870326_);}
	.st2{clip-path:url(#SVGID_00000006680149159159465770000000464325841524369815_);}
	.st3{fill-rule:evenodd;clip-rule:evenodd;fill:#F3F3F3;}
	.st4{fill-rule:evenodd;clip-rule:evenodd;fill:#808080;}
	.st5{fill:#CCCCCC;stroke:#000000;stroke-width:0.7472;stroke-miterlimit:49.8106;}
	.st6{stroke:#000000;stroke-width:1.3324;stroke-miterlimit:49.8106;}
	.st7{fill-rule:evenodd;clip-rule:evenodd;fill:#007AC1;stroke:#000000;stroke-width:1.4943;stroke-miterlimit:49.8106;}
	.st8{fill-rule:evenodd;clip-rule:evenodd;fill:#CCCCCC;stroke:#000000;stroke-width:1.4943;stroke-miterlimit:49.8106;}
	.st9{fill:#CCCCCC;stroke:#000000;stroke-width:0.523;stroke-miterlimit:49.8106;}
	.st10{fill-rule:evenodd;clip-rule:evenodd;fill:#FEC35A;stroke:#000000;stroke-width:1.0585;stroke-miterlimit:49.8106;}
	.st11{fill-rule:evenodd;clip-rule:evenodd;stroke:#000000;stroke-width:1.0585;stroke-miterlimit:49.8106;}
	.st12{fill:#FEC35A;stroke:#000000;stroke-width:1.0585;stroke-miterlimit:49.8106;}
</style>
<g id="g2492" transform="matrix(1.25,0,0,-1.25,-1.9883428,1048.0628)">
	<g id="g5128" transform="matrix(9.9621243,0,0,9.9621243,-4852.5485,-3778.2732)">
		<g>
			<defs>
				<rect id="SVGID_1_" x="95.2" y="-2.7" width="847.2" height="871.7"/>
			</defs>
			<clipPath id="SVGID_00000175304566157256957070000009886427908460533921_">
				<use xlink:href="#SVGID_1_"  style="overflow:visible;"/>
			</clipPath>
			<g id="g5130" style="clip-path:url(#SVGID_00000175304566157256957070000009886427908460533921_);">
				<g>
					<defs>
						
							<rect id="SVGID_00000075124627592471944810000003052753587069909652_" x="-3407.2" y="-4815.8" width="7409.3" height="10472.7"/>
					</defs>
					<clipPath id="SVGID_00000111892788265698133610000001716840467883307923_">
						<use xlink:href="#SVGID_00000075124627592471944810000003052753587069909652_"  style="overflow:visible;"/>
					</clipPath>
					<g id="g5136" style="clip-path:url(#SVGID_00000111892788265698133610000001716840467883307923_);">
						<g>
							<defs>
								
									<rect id="SVGID_00000017479588479172273170000010074083123165138108_" x="-3409.3" y="-4819.7" width="7414.8" height="10481.2"/>
							</defs>
							<clipPath id="SVGID_00000182503706880676403830000013936797360626358938_">
								<use xlink:href="#SVGID_00000017479588479172273170000010074083123165138108_"  style="overflow:visible;"/>
							</clipPath>
							<g id="g5142" style="clip-path:url(#SVGID_00000182503706880676403830000013936797360626358938_);">
								<path id="path5148" d="M518.2,404.9l8.4,4.3c9.1,0.2,14.8,5.3,14.8,5.3c6.5,5.1,3.9,14.9,3.9,14.9l2.4,1.9
									c-4.5,2-1.4,5.5-1.4,5.5c-6.9,1.3-4.9,8.2-4.9,8.2c1.6,6.4,5.4,11.1,5.4,11.1l-2.1,2.8c-9.1-2.3-13.8,3.2-13.8,3.2h-4.5
									c0,0-2.3-2-8.2-2c-5.2,0-8.3,2-8.3,2h-4.5c0,0-4.7-5.5-13.8-3.2l-2.1-2.8c0,0,3.8-4.4,5.4-11.2c0,0,2-6.5-4.8-8.1
									c0,0,3.3-2.5-1.4-5.5l2.4-1.9c0,0-2.6-10.5,3.9-15.1c0,0,5.8-5.2,14.8-5.3L518.2,404.9"/>
								<path id="path5150" class="st3" d="M518,459.6c-5-0.1-8.5,2-8.5,2h-4.1c0,0-4.8-5.3-13.6-3.3l-1.6-2.1c0,0,4.1-5.2,5.4-11.6
									c0,0,1.4-6.2-4.7-8.1c0,0,1.8-2.4-0.6-4.6H518V459.6"/>
								<path id="path5152" class="st3" d="M545.7,431.9H518v-26.2l8.2,4.1c8.6,0.2,14.2,4.9,14.2,4.9c6.7,5,4,15,4,15l2.2,1.6
									C546.1,431.5,545.8,431.8,545.7,431.9"/>
								<path id="path5154" class="st4" d="M545.7,431.9c-2.1,2-0.4,4.6-0.4,4.6c-6.6,1.6-4.6,8.7-4.6,8.7
									c1.4,6.3,5.1,10.9,5.1,10.9l-1.6,2.1c-8.9-1.9-13.8,3.3-13.8,3.3h-4c0,0-2.8-2-8.3-2c0,0,0,0-0.1,0v-27.6H545.7"/>
								<path id="path5156" class="st4" d="M490.4,431.9c-0.2-0.2-0.5-0.4-0.8-0.6l2.2-1.7c0,0-2.6-10.6,3.7-14.7
									c0,0,6-5.2,14.6-5.3l8-3.9v26.2H490.4"/>
								<path id="path5158" d="M516.5,445.5c-0.8,0.2-0.9,0.3-2.3,1.2c-1.5,0.9-1.5,1.5-2.2,1.6c-0.7,0.1-1.7-0.3-2.5-0.3
									c-0.7,0-1.8,0.1-1.8,0.1s-0.5,0.6-1.1,0.8c-0.6,0.3-1.2,0.7-1.2,0.7s-0.5,0.3-0.7,0.6c-0.2,0.3-0.5,0.5-0.5,0.5
									s0.1-0.1,0.4,0c0.2,0.1,0.3,0.2,0.3,0.2l1.9-1.6c0,0-0.9,1.2-0.6,1.2c0.1,0,0.2-0.1,0.3,0c-0.4-0.3,0.9-0.4,0.9-0.4
									c0,0.5,0.4,0.9-0.4,2.4c-0.8,1.5-1.2,2.4-1.2,2.4l4.5,3.3l-5.6-2.3c0,0-0.6,1.1-0.9,1.1s-0.6-1.3-0.6-1.3s-2.4-1.6-2.5-3.7
									c-0.1-2.2,0.6-3.3,1.2-5.7c0.7-2.3-1.5-5.5-3.8-6.4c-2.3-1-0.9-0.4-1.7-0.6c-0.8-0.2-1.5-0.8-1.8-2s-0.3-1.8-0.3-1.8
									l0.3,0.1c0,0-0.1-0.9,0.1-1.6s0.7-1.4,0.7-1.4l0,0.2c0,0,0.1-0.1,0.3-0.3c0.1-0.2,0.5-0.3,0.5-0.3s0,0.1,0,0.2
									c0,0.1,0.1-0.2,0.7-0.4c0.5-0.2,0.9-0.4,0.9-0.4l1-1.4c0,0,1.2-1.6,1-2.3c-0.2-0.7-0.3-0.9-0.3-0.9l2-0.6c0,0,0,0.4-0.4,1
									c-0.4,0.6-0.5,0.6-0.5,0.6s-0.3,1-0.8,1.6c-0.4,0.6-0.7,1.7-0.7,1.7s0.8,0.4,1.1,0.1c0.3-0.2,0.9,0.3,0.9,0.3s0.8,0,1-0.6
									c0.2-0.5,0.8-0.5,0.4,0c-0.4,0.4-1.3,1.8-1.3,1.8l0,0.2l-0.7,0.1l1.2,1.3c0,0,1.5-0.9,1.8-1.9c0.2-1-0.5-2.2-0.6-2.8
									s1-1,1-1s0.9-0.7,1.1-1.3c0.2-0.6,0-0.8,0-0.8l1.8-0.3c0,0-0.1,0.5-0.5,0.9c-0.5,0.4-1.1,1.3-1.1,1.3s-1.1,1.1-1,2
									c0.1,0.9,1.8,2.9,1.5,3.4s-1.4,2.3-1.4,2.3s-0.9,1.5-0.4,2.4c0.5,0.9,2.8,0.4,4,2.7c1.2,2.2,1.2,3.2,1.4,3.7
									c0.3,0.5,1.7,1.4,2.1,1.3c0.3-0.1,0.9-1,0.8-1.4c-0.1-0.4-0.5-1.4-1.2-1.6c-0.7-0.2-1.2-0.5-1.2-0.5l0.6-1.6
									c0,0,0.5,0.1,0.7,0.5c0.3,0.4-0.2,0.5,0.8,1.5c0.9,1,1.6,1.1,1.6,1.4c0,0.3-0.3,0.6-0.6,1.4c-0.4,0.9-0.2,0.9-0.2,0.9
									s0.6-0.2,1.4-0.7c0.8-0.4,1.5-0.6,1.6-1.3c0.2-0.7-0.2-0.7-0.2-0.7l1.7-0.3C517.2,443.9,517.3,445.3,516.5,445.5z
									 M497.2,435.5c-0.1,0.1-0.3,0.1-0.3,0.1l0.1,0.1c0,0-0.3,0.7-0.4,0.8c0,0.1-0.1,0.6-0.1,0.6l0.1,0c0,0,0,1,0,1.1
									c0.1,0.3,0.8,0.2,0.8,0.2s-0.2-1,0.2-1.7c0.4-0.7,0.9-2.2,0.9-2.2S497.6,435.1,497.2,435.5"/>
								<path id="path5160" class="st5" d="M503.4,438.4c0,0-0.1-1.4,0.6-2.4c0.7-1.1,0.9-1.4,1.1-2.1c0.1-0.7-1-2.6-1.1-3.3
									c-0.1-0.7,0.7-1.5,1-1.9c0.3-0.4,0.8-1,0.8-1s0.4-0.2,0.7-0.7c0.2-0.5,0.1-0.4,0.1-0.4l-1,0.2c0,0-0.5,1.3-1.1,1.8
									c-0.6,0.5-1,0.8-1.1,1.3c-0.1,0.5,0.5,1.8,0.5,2.8c0.1,0.9-2.2,2.2-2.2,2.2s0.4,0.3,0.6,1.2c0.2,0.9,0.2,0.9,0.3,1.4
									C502.8,437.9,503.4,438.4,503.4,438.4z"/>
								<path id="path5162" class="st5" d="M505.6,454.8c0,0,0.9-1.3,1.6-2.5c0.9-1.5,0.8-1.3,0.9-1.9c0,0-0.6-0.8-0.6-0.8
									s-0.1,0.3-0.2,0.4c-0.2,0.2-0.6,0.5-0.6,0.5c-0.1-0.1,0,0-0.1,0c-0.3-0.1,0.4-0.4,0.5-0.7c0-0.2,0.3-0.2,0.3-0.2
									c-0.1-0.1-0.5-0.3-0.5-0.3l-0.4,0.5l-1.2,1.3c0,0-0.4,0-0.8,0c-0.6,0.1-0.5-0.2-0.5-0.2s0.2,0.3,0.7-0.5
									c0.5-0.9,0.5-0.8,0.5-0.8s0.8-0.1,1.5-0.5c0.7-0.3,1.2-0.9,1.2-0.9s1.1-0.1,2.1-0.1c0.9,0,1.6,0.3,2.1,0.1
									c0.5-0.2,2.3-1.6,3.4-2.1c1.1-0.5,1.1-0.6,1.4-1.1c0.3-0.5,0.1-0.9,0.1-0.9l-1.2,0.1c0,0,0.2,1.1-0.3,1.3
									c-0.8,0.4-1.5,0.7-1.5,0.7l-1.3,0.7c0,0,0,0.7-0.8,0.8c-0.6,0.1-1.1,0-1.9,0c-0.8-0.1-1.9,0.2-1.9,0.2l1.9-0.4
									c0,0,1.7,0.1,2.2,0c0.3,0,0.7-1.5,0.8-1.7c0.2-0.6,0.5-0.8,0.5-1.2c0-0.4-0.9-0.7-1.2-1.1c-0.3-0.3-0.8-1.1-0.8-1.1
									s-0.2-0.4-0.4-0.6c-0.4-0.4-0.4-0.1-0.4-0.1l-0.4,1.1c0,0,0.6,0.2,1.2,0.6c0.7,0.5,0.9,0.9,1,1.5c0.2,0.6-0.9,1.7-0.9,1.7
									c-0.2,0.1-1.6-0.8-2-1.5c-0.2-0.3-0.5-1.4-1-2.4c-0.5-1-0.5-1.4-1.4-2.2c-0.9-0.7-3.2-1.2-3.8-1.5c-0.6-0.3-0.8-2.5-1.1-3.3
									c-0.2-0.8-1.1-1.9-1.8-2.4c-0.7-0.6-1.2-1.6-1.2-1.6s0.6,0.7,0.8,0.9c0.2,0.2,0.7,0.6,0.7,0.6l0.7-0.1l-0.1-0.2l0.4-0.6
									l1-1.2c0,0-0.1-0.7-0.4,0.1c-0.2,0.6-1.1,0.9-1.1,0.9s-0.5-0.6-0.9-0.5c-1,0.3-1.1-0.2-1.1-0.2s0.1-0.7,0.4-1.4
									c0.3-0.7,0.4-0.6,0.6-1c0.2-0.4,0.4-1,0.4-1s0.3-0.4,0.6-0.9c0.2-0.5,0.2-0.6,0.2-0.6l-1.8,0.6c0,0,0.2,0.5,0.3,1
									c0,0.5-0.4,1.3-0.9,2.4c-0.8,1.1-0.8,1.2-0.8,1.8c0,0.6,1,1.5,1.1,2.2c0.1,0.7-0.3,1.1-0.9,2.1c-0.6,1-0.5,2.1-0.5,2.1
									s-0.4,0.1-0.9,0c-0.4-0.1-0.3-1.2-0.3-1.2s-0.2,0.1-0.2-0.1c0-0.7,0.2-1.1,0.2-1.1l0.3-0.4l-0.2,0l1.9-1.4
									c0,0,0.2-0.1,0-0.5c-0.2-0.3-0.4-0.7-0.8-1.2c-0.3-0.5-0.2-0.8-0.2-0.8l-1.5,0.8l-0.1-0.2l-0.6,0.5l-0.1-0.2
									c0,0-0.2,0.4-0.6,1.2c-0.2,0.5-0.2,1.7-0.2,1.7s-0.1-0.1-0.1,0c0,0.4,0.1,1.2,0.5,1.9c0.5,0.9,1,1.3,1.7,1.5
									c0.7,0.3,2.2,0.7,3.5,1.7c2.2,1.8,2.7,2.4,2.4,4.8c-0.3,2.4-1.7,4-1.6,6.4c0.1,2.4,2.2,3.7,2.2,3.7s0.3,1,0.5,1
									c0.2,0,1.3-1.6,1.3-1.6l4.8,2.6L505.6,454.8z"/>
								<path id="path5164" class="st6" d="M504.6,454.1l0.1,0.1c0,0,0.3,0,0.6-0.3c0.2-0.3,0.3-0.9,0.3-0.9s-0.2,0.4-0.4,0.7
									C505,454,504.6,454.1,504.6,454.1z"/>
								<path id="path5166" d="M537.5,434.5c0,0,0.6,1.5,0.9,2.2c0.4,0.7,0.2,1.7,0.2,1.7s0.7,0.1,0.8-0.2c0.1-0.1,0-1.1,0-1.1
									l0.1,0c0,0-0.1-0.5-0.1-0.6c0-0.1-0.4-0.8-0.4-0.8l0.1-0.1c0,0-0.2,0-0.3-0.1C538.6,435.1,537.5,434.5,537.5,434.5z
									 M519,443.9l1.7,0.3c0,0-0.3,0.1-0.2,0.7c0.2,0.7,0.8,0.8,1.6,1.3c0.8,0.4,1.4,0.7,1.4,0.7s0.2,0-0.2-0.9
									c-0.4-0.9-0.6-1.1-0.6-1.4c0-0.3,0.7-0.4,1.6-1.4c0.9-1,0.5-1.1,0.8-1.5c0.3-0.4,0.7-0.5,0.7-0.5l0.6,1.6
									c0,0-0.6,0.3-1.2,0.5c-0.7,0.2-1.1,1.2-1.2,1.6c-0.1,0.4,0.5,1.3,0.8,1.4c0.3,0.1,1.8-0.9,2.1-1.3c0.3-0.5,0.3-1.4,1.4-3.7
									c1.2-2.2,3.4-1.8,4-2.7c0.5-0.9-0.4-2.4-0.4-2.4s-1.1-1.8-1.4-2.3c-0.3-0.5,1.4-2.4,1.5-3.4c0.1-0.9-1-2-1-2
									s-0.6-0.8-1.1-1.3c-0.5-0.4-0.5-0.9-0.5-0.9l1.8,0.3c0,0-0.2,0.2,0,0.8c0.2,0.6,1.1,1.3,1.1,1.3s1.2,0.4,1,1
									c-0.1,0.6-0.9,1.8-0.6,2.8c0.2,1,1.8,1.9,1.8,1.9l1.2-1.3l-0.7-0.1l0-0.2c0,0-0.9-1.3-1.3-1.8c-0.4-0.5,0.2-0.5,0.4,0
									c0.2,0.5,1,0.6,1,0.6s0.6-0.5,0.9-0.3c0.3,0.2,1.1-0.1,1.1-0.1s-0.3-1.2-0.7-1.7c-0.4-0.6-0.8-1.6-0.8-1.6s-0.1,0-0.5-0.6
									c-0.4-0.6-0.4-1-0.4-1l1.9,0.6c0,0-0.1,0.2-0.3,0.9s1,2.3,1,2.3l1,1.4c0,0,0.3,0.1,0.9,0.4c0.5,0.2,0.7,0.5,0.7,0.4
									c0-0.1,0-0.2,0-0.2s0.3,0.1,0.5,0.3c0.1,0.2,0.3,0.3,0.3,0.3l0-0.2c0,0,0.6,0.7,0.7,1.4c0.1,0.7,0.1,1.6,0.1,1.6l0.3-0.1
									c0,0,0.1,0.5-0.3,1.8s-1.1,1.8-1.8,2c-0.8,0.2,0.6-0.4-1.7,0.6c-2.3,1-4.4,4.1-3.8,6.4c0.7,2.3,1.3,3.5,1.2,5.6
									c-0.1,2.2-2.5,3.7-2.5,3.7s-0.3,1.3-0.6,1.3c-0.3,0-0.9-1.1-0.9-1.1l-5.6,2.3l4.5-3.3c0,0-0.4-0.8-1.2-2.4
									c-0.8-1.5-0.4-1.9-0.4-2.4c0,0,1.3,0.1,0.9,0.4c0.1-0.1,0.2,0.1,0.3,0c0.3,0-0.6-1.2-0.6-1.2l1.9,1.6c0,0,0-0.1,0.3-0.2
									c0.2-0.1,0.4,0,0.4,0s-0.4-0.3-0.5-0.5c-0.2-0.3-0.7-0.6-0.7-0.6s-0.7-0.4-1.2-0.7c-0.6-0.3-1.1-0.8-1.1-0.8s-1-0.1-1.8-0.1
									c-0.7,0-1.7,0.4-2.5,0.3c-0.7-0.1-0.8-0.7-2.2-1.6s-1.6-1-2.3-1.2C518.9,445.3,519,443.9,519,443.9"/>
								<path id="path5168" class="st5" d="M532.7,438.4c0,0,0.1-1.4-0.6-2.4s-0.9-1.4-1.1-2.1c-0.1-0.7,1-2.6,1.1-3.3
									c0.1-0.7-0.7-1.5-1-1.9c-0.3-0.4-0.8-1-0.8-1s-0.4-0.2-0.7-0.7c-0.2-0.5-0.1-0.4-0.1-0.4l1,0.2c0,0,0.5,1.3,1.1,1.8
									c0.6,0.5,1,0.8,1.1,1.3s-0.5,1.8-0.5,2.8c-0.1,0.9,2.2,2.2,2.2,2.2s-0.4,0.3-0.6,1.2c-0.2,0.9-0.2,0.9-0.3,1.4
									C533.3,437.9,532.7,438.4,532.7,438.4z"/>
								<path id="path5170" class="st5" d="M530.6,454.8c0,0-0.9-1.3-1.6-2.5c-0.9-1.5-0.9-1.9-0.9-1.9l0.6-0.8c0,0,0.1,0.3,0.2,0.4
									c0.2,0.2,0.6,0.5,0.6,0.5c0.1-0.1,0,0,0.2,0c0.3-0.1-0.4-0.4-0.5-0.7c0-0.2-0.3-0.2-0.3-0.2c0.1-0.1,0.5-0.3,0.5-0.3
									l0.4,0.5l1.2,1.3c0,0,0.4,0,0.8,0c0.6,0.1,0.5-0.2,0.5-0.2s-0.2,0.3-0.7-0.5c-0.4-0.7-0.5-0.8-0.5-0.8s-0.8-0.1-1.5-0.5
									c-0.7-0.3-1.2-0.9-1.2-0.9s-1.1-0.1-2.1-0.1c-0.9,0-1.6,0.3-2.1,0.1c-0.5-0.2-2.3-1.6-3.4-2.1c-1.1-0.5-1.1-0.6-1.4-1.1
									s-0.1-0.9-0.1-0.9l1.2,0.1c0,0-0.2,1.1,0.3,1.3c0.8,0.4,1.5,0.7,1.5,0.7l1.3,0.7c0,0,0,0.7,0.8,0.8c0.6,0.1,1.1,0,1.9,0
									c0.8-0.1,1.9,0.2,1.9,0.2l-1.9-0.4c0,0-1.7,0.1-2.2,0c-0.3,0-0.7-1.5-0.8-1.7c-0.2-0.6-0.5-0.8-0.5-1.2
									c0-0.4,0.9-0.7,1.2-1.1c0.3-0.3,0.8-1.1,0.8-1.1s0.2-0.4,0.4-0.6c0.4-0.4,0.4-0.1,0.4-0.1l0.4,1.1c0,0-0.6,0.2-1.2,0.6
									c-0.7,0.5-0.9,0.9-1,1.5c-0.2,0.6,0.9,1.7,0.9,1.7c0.2,0.1,1.6-0.8,2-1.5c0.2-0.3,0.5-1.4,1-2.4s0.5-1.4,1.4-2.2
									c0.9-0.7,3.2-1.2,3.8-1.5s0.8-2.5,1.1-3.3c0.2-0.8,1.1-1.9,1.8-2.4c0.7-0.6,1.2-1.6,1.2-1.6s-0.6,0.7-0.8,0.9
									c-0.2,0.2-0.7,0.6-0.7,0.6l-0.7-0.1l0.1-0.2l-0.4-0.6l-1-1.2c0,0,0.1-0.7,0.4,0.1c0.2,0.6,1.1,0.9,1.1,0.9s0.5-0.6,0.9-0.5
									c1,0.3,1.1-0.2,1.1-0.2s-0.1-0.7-0.4-1.4c-0.3-0.7-0.4-0.6-0.6-1c-0.2-0.4-0.4-1-0.4-1s-0.3-0.4-0.6-0.9
									c-0.2-0.5-0.2-0.6-0.2-0.6l1.8,0.6c0,0-0.2,0.5-0.3,1c0,0.5,0.4,1.3,0.9,2.4c0.8,1,0.8,1.2,0.8,1.8c0,0.6-1,1.5-1.1,2.2
									c-0.1,0.7,0.3,1.1,0.9,2.1c0.6,1,0.5,2.1,0.5,2.1s0.4,0.1,0.9,0c0.4-0.1,0.3-1.2,0.3-1.2s0.2,0.1,0.2-0.1
									c0-0.7-0.2-1.1-0.2-1.1l-0.3-0.4l0.2,0l-1.9-1.4c0,0-0.2-0.1,0-0.5c0.2-0.3,0.4-0.7,0.8-1.2c0.3-0.5,0.2-0.8,0.2-0.8
									l1.5,0.8l0.1-0.2l0.6,0.5l0.1-0.2c0,0,0.2,0.4,0.6,1.2c0.2,0.5,0.2,1.7,0.2,1.7s0.1-0.1,0.1,0c0,0.4-0.1,1.2-0.5,1.9
									c-0.5,0.9-1,1.3-1.7,1.5c-0.7,0.3-2.2,0.7-3.5,1.7c-2.2,1.8-2.7,2.4-2.4,4.8c0.3,2.4,1.7,4,1.6,6.4
									c-0.1,2.4-2.2,3.7-2.2,3.7s-0.3,1-0.5,1c-0.2,0-1.3-1.6-1.3-1.6l-4.8,2.6L530.6,454.8z"/>
								<path id="path5172" class="st6" d="M531.6,454.1l-0.1,0.1c0,0-0.3,0-0.6-0.3c-0.2-0.3-0.3-0.9-0.3-0.9s0.2,0.4,0.4,0.7
									C531.2,454,531.6,454.1,531.6,454.1z"/>
								<path id="path5174" class="st7" d="M528.7,426.3c-0.6-0.5-1.1-1-1.5-1.2c-0.8-0.5-1.7-0.7-2.6-0.7c-0.5,0-1,0.1-1.5,0.2
									c-0.7,0.2-1.3,0.7-1.8,1.3c0,0.1-0.1,0.1-0.1,0.2c-0.8,1-1.2,2.3-1.2,3.9c0,0,0,0.1,0,0.1l0,1.8c0.1,0,0.1-0.1,0.2-0.1
									c0.2,1.1,0.5,2,1.1,2.7c0.3,0.4,0.6,0.7,1,0.9c-0.1,0.4-0.3,0.7-0.4,1c-0.8-0.3-1.6-0.9-2.2-1.6c-1.1-1.3-1.7-2.9-1.7-4.7
									c0,0,0,0,0-0.1l-0.3,0.2l0.1-0.5c0.1-0.2,0.1-0.5,0.2-0.9c0.1-0.3,0.2-0.7,0.2-0.7c0,0,0,0,0,0c0.3-1,0.7-1.8,1.4-2.6
									c0.4-0.4,0.8-0.8,1.3-1.1c0.5-0.3,1.1-0.5,1.7-0.7c0.5-0.1,1.1-0.2,1.8-0.2c1.2,0,2.3,0.3,3.4,1c0.6,0.4,1.1,0.9,1.5,1.4
									L528.7,426.3z"/>
								<path id="path5176" class="st7" d="M524.4,436c1.3,0,2.3-0.5,3-1.5c0.4-0.5,0.7-1.2,1-2.1h0.4l-0.2,4.3h-0.4
									c-0.1-0.2-0.2-0.4-0.3-0.5s-0.3-0.2-0.5-0.2c-0.1,0-0.5,0.1-1.2,0.3c-0.7,0.2-1.4,0.3-2,0.3c-0.5,0-0.9,0-1.4-0.1l0.1-0.9
									C523.4,435.9,523.9,436,524.4,436z"/>
								<path id="path5178" class="st7" d="M516.5,438.4l-1.7,4.1h-0.4l-4.6-11.4c-0.7-1.7-1.2-2.8-1.5-3.1s-0.7-0.6-1.3-0.7v-0.4
									h4.4v0.4c-0.5,0-0.9,0.1-1.1,0.2c-0.3,0.2-0.5,0.4-0.5,0.8c0,0.2,0.1,0.5,0.2,0.8c0.1,0.3,0.5,1.3,1,2.8h4
									c-0.3,0.2-0.6,0.5-0.8,0.7c-0.1,0.1-0.1,0.1-0.2,0.2h-2.6l2.5,6.4l1.4-3.5c0,0,0.4-0.7,0.6-1c0.4-0.5,1-1,1.8-1.5l1.2-0.8
									L516.5,438.4z"/>
								<path id="path5180" class="st8" d="M522.8,429.4c-0.5,0.7-1.4,1.5-2.7,2.3c-0.1,0-1.1,0.7-1.1,0.7l-1.2,0.8
									c-0.8,0.5-1.4,1.1-1.8,1.5c-0.2,0.3-0.6,1-0.6,1l-1.1,2.7c-0.7-0.8-1.1-1.9-1.1-3.1c0-0.9,0.3-1.7,0.9-2.5
									c0.1-0.1,0.1-0.1,0.2-0.2c0.2-0.2,0.5-0.5,0.8-0.7c0.2-0.2,0.5-0.4,0.7-0.5l1.8-1.2l0.3-0.2c1.2-0.8,2-1.4,2.4-1.8
									c0.4-0.4,0.6-0.8,0.8-1.3c0.1-0.2,0.1-0.5,0.1-0.8c0-0.1,0.1-0.1,0.1-0.2c0.5-0.6,1.1-1,1.8-1.3c0.4,0.7,0.5,1.4,0.5,2.2
									C523.7,427.8,523.4,428.7,522.8,429.4z"/>
								<path id="path5182" class="st8" d="M520.3,423.8c-0.6-0.5-1.2-0.8-2-0.8c-1.4,0-2.7,0.6-3.6,1.8c-0.6,0.7-1,1.6-1.5,2.8
									h-0.6l0.7-5.5h0.5c0,0.2,0.1,0.4,0.2,0.6c0.1,0.2,0.3,0.3,0.6,0.3c0.1,0,0.6-0.2,1.4-0.5c0.8-0.3,1.6-0.5,2.4-0.5
									c1.5,0,2.8,0.5,3.7,1.4c0.1,0.1,0.2,0.2,0.2,0.2c-0.6,0.2-1.2,0.4-1.7,0.7C520.6,424.2,520.5,424,520.3,423.8z"/>
								<path id="path5184" class="st8" d="M518,438.8c0.9,0,1.7-0.3,2.6-1c0.5-0.3,0.9-0.8,1.2-1.5c0.2-0.3,0.3-0.6,0.4-1
									c0.1-0.3,0.2-0.7,0.3-1h0.6l-0.5,5.5h-0.5c-0.1-0.3-0.2-0.5-0.3-0.6c-0.1-0.2-0.3-0.2-0.6-0.2c-0.1,0-0.6,0.1-1.3,0.4
									c-0.8,0.3-1.5,0.4-2,0.4c-0.6,0-1.2-0.1-1.7-0.3l0.5-1.2C517,438.7,517.4,438.8,518,438.8z"/>
								<path id="path5186" d="M510.2,451.9c0-0.4,0.1-0.8,0.1-1.2c-0.1,0-0.1-0.1-0.2-0.1c-0.1,0-0.1-0.1-0.2-0.1l-0.1,4
									c0.1,0,0.1,0,0.2,0.1c0.1,0,0.1,0.1,0.2,0.1l2.8-2.8c-0.1-0.1-0.3-0.1-0.4-0.2c-0.1-0.1-0.3-0.1-0.4-0.2
									c-0.3,0.3-0.5,0.6-0.8,0.9L510.2,451.9z M511.1,452.7l-0.9,0.9l0.1-1.3L511.1,452.7"/>
								<path id="path5188" d="M515.7,456.3c0.1,0,0.1,0,0.2,0c0.1,0,0.1,0,0.2,0.1c0.4-1.4,0.8-2.5,1.1-3.5c-0.1,0-0.3,0-0.4-0.1
									c-0.1,0-0.3-0.1-0.4-0.1c-0.2,0.8-0.4,1.6-0.7,2.4c-0.2-0.9-0.4-1.8-0.6-2.6c-0.1,0-0.1,0-0.2,0c-0.5,0.7-1,1.4-1.5,2.1
									c0.1-0.9,0.1-1.7,0.2-2.4c-0.1,0-0.2,0-0.2,0c-0.1,0-0.1,0-0.2-0.1c0,1.1-0.1,2.3-0.2,3.7c0.1,0,0.1,0,0.2,0
									c0.1,0,0.1,0,0.2,0.1c0.5-0.7,1.1-1.5,1.6-2.2C515.2,454.4,515.5,455.3,515.7,456.3"/>
								<path id="path5190" d="M517.6,456.4c0.1,0,0.3,0,0.4,0c0.1,0,0.3,0,0.4,0l0.1-3.7c-0.1,0-0.3,0-0.4,0c-0.1,0-0.3,0-0.4,0
									L517.6,456.4"/>
								<path id="path5192" d="M521.3,456.2c0-0.1,0-0.2,0-0.2c0-0.1,0-0.2,0-0.2c-0.3,0.1-0.6,0.2-1.2,0.2l-0.1-1.1l0.5-0.1
									c0.2,0,0.4,0,0.6,0c0-0.1,0-0.2,0-0.2c0-0.1,0-0.2,0-0.2c-0.2,0-0.4,0.1-0.6,0.1l-0.5,0.1l-0.1-1.3c0.5,0,0.9-0.1,1.2,0
									c0-0.1,0-0.2,0-0.2c0-0.1,0-0.2,0-0.2l-1.9,0.2l0.3,3.6L521.3,456.2"/>
								<path id="path5194" d="M522.4,456l0.5-0.2c0.5-1,1-2,1.4-3l0.7,2.4c0.1,0,0.1-0.1,0.2-0.1c0.1,0,0.1,0,0.2,0l-1-3.5
									l-0.4,0.1c-0.4,0.8-0.7,1.6-1.1,2.4l-0.4,0.7l-0.7-2.5c-0.1,0-0.1,0.1-0.2,0.1c-0.1,0-0.1,0-0.2,0L522.4,456"/>
								<path id="path5196" d="M527.6,453.2c0,0.3-0.1,0.6-0.3,0.7c-0.4,0.2-0.6,0.1-0.7-0.2c-0.3-0.6,1.1-1.3,0.6-2.4
									c-0.3-0.6-1-0.8-1.7-0.4c-0.2,0.1-0.5,0.3-0.6,0.6c0.2,0.2,0.3,0.3,0.4,0.5l0.1,0c-0.1-0.4,0.1-0.7,0.4-0.9
									c0.3-0.2,0.6-0.1,0.8,0.2c0.4,0.8-1.1,1.2-0.5,2.4c0.3,0.5,0.8,0.8,1.5,0.4c0.3-0.2,0.6-0.5,0.6-0.6
									C527.9,453.4,527.8,453.3,527.6,453.2L527.6,453.2"/>
								<path id="path5198" d="M505.5,420.5c-0.1,0.1-0.2,0.2-0.3,0.3c-0.1,0.1-0.2,0.2-0.3,0.3l2.5,2.8l1.5-1.5
									c-0.1,0-0.1-0.1-0.2-0.2c-0.1-0.1-0.1-0.1-0.1-0.2c-0.2,0.3-0.4,0.5-0.8,1l-0.8-0.9l0.4-0.4c0.2-0.2,0.3-0.3,0.5-0.4
									c-0.1,0-0.1-0.1-0.2-0.2s-0.1-0.1-0.1-0.2c-0.1,0.2-0.3,0.4-0.4,0.5l-0.4,0.4L505.5,420.5"/>
								<path id="path5200" d="M508.8,417.7c-1,0.6-1.4,1.7-0.8,2.8c0.5,1,1.6,1.3,2.8,0.6c1.3-0.8,1.2-2,0.8-2.8
									C511.1,417.4,510,417,508.8,417.7z M508.8,419.9c-0.4-0.6-0.5-1.5,0.2-1.9c0.7-0.4,1.5,0.1,1.9,0.9c0.4,0.6,0.5,1.5-0.2,1.9
									C510,421.3,509.4,421,508.8,419.9"/>
								<path id="path5202" d="M513.7,415.7c-1.2,0.3-1.8,1.2-1.5,2.4c0.2,1.1,1.2,1.8,2.5,1.5c1.5-0.4,1.7-1.6,1.5-2.4
									C515.9,416.1,515,415.4,513.7,415.7z M513,417.7c-0.2-0.7,0-1.5,0.8-1.7c0.8-0.2,1.4,0.6,1.6,1.5c0.2,0.7,0,1.6-0.8,1.8
									C513.9,419.4,513.3,419,513,417.7"/>
								<path id="path5204" d="M518.5,415.2c-0.1,0-0.3,0-0.4,0c-0.1,0-0.3,0-0.4,0l0,3.5c-0.4,0-0.7,0-1-0.1c0,0.1,0,0.2,0,0.2
									c0,0.1,0,0.2,0,0.2l2.8,0c0-0.1,0-0.2,0-0.2c0-0.1,0-0.2,0-0.2c-0.3,0-0.6,0.1-1,0.1L518.5,415.2"/>
								<path id="path5206" d="M519.9,419.1l1.4,0.3c0.5,0.1,1.1,0,1.2-0.6c0.1-0.5-0.2-0.9-0.7-1.1l0,0c0.4,0,1,0,1.1-0.7
									c0.2-0.8-0.4-1.2-1.1-1.4l-1.2-0.3L519.9,419.1z M521,417.7c0.2,0.1,0.4,0.1,0.6,0.3c0.1,0.2,0.2,0.4,0.1,0.6
									c-0.1,0.4-0.3,0.6-0.7,0.5c-0.1,0-0.2,0-0.3-0.1L521,417.7z M521.4,415.9l0.3,0.1c0.3,0.1,0.6,0.4,0.5,0.9
									c-0.1,0.6-0.5,0.7-1,0.6L521.4,415.9"/>
								<path id="path5208" d="M524.3,417.7c0-0.5,0.1-0.8,0.1-1.2c-0.1,0-0.2-0.1-0.2-0.1c-0.1,0-0.2-0.1-0.2-0.1l-0.2,4.2
									c0.1,0,0.1,0,0.2,0.1c0.1,0,0.1,0.1,0.2,0.1l2.9-2.9c-0.1-0.1-0.3-0.1-0.4-0.2c-0.1-0.1-0.3-0.2-0.4-0.2
									c-0.3,0.3-0.5,0.6-0.8,0.9L524.3,417.7z M525.2,418.5l-1,1l0.1-1.4L525.2,418.5"/>
								<path id="path5210" d="M528.3,419.2c0.4,0.3,0.7,0.6,0.9,0.8c0-0.1,0.1-0.1,0.1-0.2c0-0.1,0.1-0.1,0.2-0.2l-1.6-1.3
									l-2.2,3.1c0.1,0.1,0.2,0.1,0.3,0.2c0.1,0.1,0.2,0.2,0.3,0.3L528.3,419.2"/>
								<path id="path5212" d="M530.6,421.3c0.3,0.4,0.6,0.7,0.8,1c0-0.1,0.1-0.1,0.2-0.2c0.1-0.1,0.1-0.1,0.2-0.1l-1.4-1.6
									l-2.7,2.6c0.1,0.1,0.2,0.2,0.3,0.3c0.1,0.1,0.2,0.2,0.3,0.3L530.6,421.3"/>
								<path id="path5214" class="st9" d="M536.5,422.7l0.5,0.3c0-0.2-0.2-0.6-0.2-0.9c0.3,0,0.7-0.2,0.8-0.4c-0.3,0-0.7,0-0.8-0.4
									c-0.1-0.2,0-0.4,0-0.6c0,0-0.2-0.1-0.2-0.1c0,0-0.1,0.3-0.1,0.3c-0.1,0.1-0.3,0.2-0.5,0.1l-0.4-0.5c0,0.3-0.1,0.7,0.1,1
									c-0.1,0.1-0.2,0.1-0.2,0.1c-0.2,0.1-0.5,0.2-0.8,0.4c0.2,0.1,0.4,0.2,0.6,0.5c0.4,0.7,0.3,1.5,0.1,2.3
									C535.9,424.2,536.2,423.4,536.5,422.7z"/>
								<path id="path5216" class="st9" d="M537,419.5c0.3,0,0.7,0.5,1,0.7l0.1-0.2c-0.3-0.3-1.1-1.1-1.7-1.9c0.1-0.1,0.3-0.1,0.5,0
									l0-0.5c-1.4-0.5-2.4-1.1-3.3-2.6l0.1-0.2c0.5,0.3,1,0.4,1.6,0.4c0.3,0.3,0.3,0.6,0.2,0.9c0.2-0.2,0.4-0.4,0.4-0.4
									c0.1,0.3,0.6,0.8,0.9,1c-0.1-0.2-0.2-0.4-0.2-0.8c0,0,0.4,0.1,0.4,0c0.6,0,1.1,0.1,1.6-0.3c-0.5,0-1.4,0-1.9-0.4
									c0-0.3,0.1-0.7,0.2-0.9c-0.4,0-0.8,0.2-0.9,0.6c-0.3-0.1-0.4-0.5-0.8-0.6c0,0.2,0.2,0.5,0.1,0.7c-0.2,0.1-0.6,0-0.8-0.1
									c-0.9-0.3-1.7-0.7-2.5-1.2c-0.1,0.1-0.2,0.5-0.1,0.6c0.7,0.4,0.9,0.6,1.3,1c0.8,0.9,1.6,1.6,2.2,2.3
									c0.7,0.7,1.4,1.6,1.4,2.7l0.2,0L537,419.5z"/>
								<path id="path5218" class="st9" d="M540.4,419c0.9,0.3,1.3,0.2,1.8-0.1c-0.6,0-1-0.1-1.8-0.6c-0.2-0.2-0.1-0.6,0-0.8
									c-0.4-0.1-0.8,0.1-1.1,0.4c-0.3-0.4-0.7-0.6-0.9-0.7c0.3,0.3,0.4,0.8,0.2,1.1c-0.4,0-0.8-0.2-1.2-0.3c0,0.1,0,0.3,0.1,0.3
									c0.2,0.1,0.7,0.1,0.9,0.2c0.1,0,0.3,0,0.3,0.1c-0.1,0.2-0.1,0.5-0.2,0.7c0.6-0.1,0.6-0.3,0.8-0.6c0.2,0.4,0.3,0.7,1,0.9
									C540.3,419.8,540.3,419.1,540.4,419z"/>
								<path id="path5220" class="st9" d="M532.5,417.9c0.2-0.1,0.6,0.2,0.8,0.3c-0.1-0.3-0.5-0.8-0.7-1c0-0.3,0.1-0.6,0.2-1
									c-0.2,0.3-0.4,0.4-0.6,0.4c-0.2-0.3-0.3-0.7-0.3-1.1h-0.3c0,0.3,0.2,0.8,0.1,1c-0.2,0.2-0.6-0.1-0.8-0.1
									c0.1,0.2,0.1,0.6,0.3,0.8c-0.1,0.4-0.3,0.9-0.2,1.2c0.2,0,0.4-0.5,0.7-0.4c0.2,0.8,0.6,1.6,1.2,2.1
									C532.4,419.6,532,418.2,532.5,417.9z"/>
								<path id="path5222" class="st9" d="M531.2,413.8c0.2-0.1,0.3,0.1,0.3,0.1l0.1-0.5c-0.2-0.4-1.2-0.7-1.5-1
									c-1-0.5-2.1-0.7-3.3-0.7c-0.3-0.2-1.2-0.3-1.5-0.5c-0.7-0.3-1.2-1.2-1.5-1.9c-0.3-0.2-1.1-0.8-1.3-0.9
									c0,1.1,1.3,2.3,1.8,2.8c1.1,1,4.6,0.8,6.1,1.9c0.4,0.2,0.8,1.4,0.9,1.8l0.2,0.1C531.6,415.2,531.4,414.3,531.2,413.8z"/>
								<path id="path5224" class="st9" d="M541.9,420.9l-0.1-0.6c-0.2,0-0.5,0.4-0.7,0.5l-0.7-0.7c0.1,0.5,0.1,0.6-0.1,0.8
									c-0.1,0.2-0.4,0.1-0.6,0.1l-0.3,0l-0.5-0.1c-0.3,0-0.4-0.6-0.6-0.2c0.4,0.7,0.9,1.4,1.4,2.1c0.3,0.5,0.8,1,0.3,1.5
									c-0.4,0.1-0.5,0.2-1.2-0.1c0.4,0.8,0.6,1,1,1.2c-0.3,0.5-0.4,1.1-0.4,1.5c1.4-0.1,1.5,0.4,1.9,0.8c1,1.4,0.9,1.7,1.2,2.7
									c0.1-0.1,0.2-0.6,0.2-0.7c0.1-1.2,0.2-1.9-0.1-3c-0.1-0.3-0.1-0.4,0.1-0.8c0.2-0.2,0.8-0.1,0.9-0.1
									c-0.2-0.3-0.5-0.6-0.8-0.8c-0.3-0.2-0.5-0.1-0.8-0.3c0-0.5,0.2-1.4-0.1-1.8c-0.2,0.5-0.7,1-1.2,1c-0.7-0.9-1.1-1.8-1.8-2.7
									l0.4,0.1c0.4,0.1,0.6,0.2,1,0.2c0.1,0.2,0,0.4,0,0.7c0.2-0.1,0.4,0,0.7-0.4c0.1,0.3,0.3,0.5,0.5,0.6l0-0.6
									c1.1-0.2,1.7,0,2.2,0.3C543.6,421.7,542.4,421,541.9,420.9z"/>
								<path id="path5226" class="st9" d="M499.8,423l-0.5,0.3c0-0.2,0.2-0.6,0.2-0.9c-0.3,0-0.7-0.2-0.8-0.4c0.3,0,0.7,0,0.8-0.4
									c0.1-0.2,0-0.4,0-0.6c0,0,0.2-0.1,0.2-0.1c0,0,0.1,0.3,0.1,0.3c0.1,0.1,0.3,0.2,0.5,0.1l0.4-0.5c0,0.3,0.1,0.7-0.1,1
									c0.1,0.1,0.2,0.1,0.2,0.1c0.2,0.1,0.5,0.2,0.8,0.4c-0.2,0.1-0.4,0.2-0.6,0.5c-0.4,0.7-0.3,1.5-0.1,2.3
									C500.4,424.4,500.1,423.6,499.8,423z"/>
								<path id="path5228" class="st9" d="M499.3,419.7c-0.3,0-0.7,0.5-1,0.7l-0.1-0.2c0.3-0.3,1.1-1.1,1.7-1.9
									c-0.1-0.1-0.3-0.1-0.5,0l0-0.5c1.4-0.5,2.4-1.1,3.3-2.6l-0.1-0.2c-0.5,0.3-1,0.4-1.6,0.4c-0.3,0.3-0.3,0.6-0.2,0.9
									c-0.2-0.2-0.4-0.4-0.4-0.4c-0.1,0.3-0.6,0.8-0.9,1c0.1-0.2,0.2-0.4,0.2-0.8c0,0-0.4,0.1-0.4,0c-0.6,0-1.1,0.1-1.6-0.3
									c0.5,0,1.4,0,1.9-0.4c0-0.3-0.1-0.7-0.2-0.9c0.4,0,0.8,0.2,0.9,0.6c0.3-0.1,0.4-0.5,0.8-0.6c0,0.2-0.2,0.5-0.1,0.7
									c0.2,0.1,0.6,0,0.8-0.1c0.9-0.3,1.7-0.7,2.5-1.2c0.1,0.1,0.2,0.5,0.1,0.6c-0.7,0.4-0.9,0.6-1.3,0.9
									c-0.8,0.9-1.6,1.6-2.2,2.3c-0.7,0.7-1.4,1.6-1.4,2.7l-0.2,0L499.3,419.7z"/>
								<path id="path5230" class="st9" d="M495.8,419.2c-0.9,0.3-1.3,0.2-1.8-0.1c0.6,0,1-0.1,1.8-0.6c0.2-0.2,0.1-0.6,0-0.8
									c0.4-0.1,0.8,0.1,1.1,0.4c0.3-0.4,0.7-0.6,0.9-0.7c-0.3,0.3-0.4,0.8-0.2,1.1c0.4,0,0.8-0.2,1.2-0.3c0,0.1,0,0.3-0.1,0.3
									c-0.2,0.1-0.7,0.1-0.9,0.2c-0.1,0-0.3,0-0.3,0.1c0.1,0.2,0.1,0.5,0.2,0.7c-0.6-0.1-0.6-0.3-0.8-0.6c-0.2,0.4-0.3,0.7-1,0.9
									C496,420,496,419.3,495.8,419.2z"/>
								<path id="path5232" class="st9" d="M503.8,418.1c-0.2-0.1-0.6,0.2-0.8,0.3c0.1-0.3,0.5-0.8,0.7-1c0-0.3-0.1-0.6-0.2-1
									c0.2,0.3,0.4,0.4,0.6,0.4c0.2-0.3,0.3-0.7,0.3-1.1h0.3c0,0.3-0.2,0.8-0.1,1c0.2,0.2,0.6-0.1,0.8-0.1
									c-0.1,0.2-0.1,0.6-0.3,0.8c0.1,0.4,0.3,0.9,0.2,1.2c-0.2,0-0.4-0.5-0.7-0.4c-0.2,0.8-0.6,1.6-1.2,2.1
									C503.9,419.8,504.3,418.4,503.8,418.1z"/>
								<path id="path5234" class="st9" d="M505.1,414.1c-0.2-0.1-0.3,0.1-0.3,0.1l-0.1-0.5c0.2-0.4,1.2-0.7,1.5-1
									c1-0.5,2.1-0.7,3.4-0.7c0.3-0.2,1.2-0.3,1.5-0.5c0.7-0.3,1.2-1.2,1.5-1.9c0.3-0.2,1.1-0.8,1.3-0.9c0,1.1-1.3,2.3-1.8,2.8
									c-1.1,1-4.6,0.8-6.1,1.9c-0.4,0.2-0.8,1.4-0.9,1.8l-0.2,0.1C504.6,415.4,504.9,414.6,505.1,414.1z"/>
								<path id="path5236" class="st9" d="M492.4,422.2c0.5-0.2,1.1-0.4,2.2-0.3l0,0.6c0.2-0.1,0.5-0.3,0.5-0.6
									c0.3,0.4,0.5,0.3,0.7,0.4c-0.1-0.3-0.1-0.5-0.1-0.7c0.4,0,0.6-0.1,1-0.2l0.4-0.1c-0.7,0.9-1.1,1.8-1.8,2.7
									c-0.4,0-0.9-0.6-1.2-1c-0.3,0.4-0.1,1.2-0.1,1.8c-0.3,0.2-0.5,0.1-0.8,0.3c-0.3,0.2-0.7,0.5-0.8,0.8c0.1,0,0.7-0.1,0.9,0.1
									c0.2,0.4,0.2,0.5,0.1,0.8c-0.2,1.1-0.2,1.8-0.1,3c0,0.2,0.1,0.6,0.2,0.7c0.3-0.9,0.2-1.2,1.2-2.7c0.4-0.4,0.5-0.9,1.9-0.8
									c0.1-0.4-0.1-1-0.4-1.5c0.5-0.2,0.7-0.5,1-1.2c-0.8,0.3-0.9,0.3-1.3,0.1c-0.5-0.5,0-1,0.3-1.5c0.5-0.7,1-1.4,1.4-2.1
									c-0.3-0.4-0.4,0.2-0.6,0.2l-0.5,0.1l-0.3,0c-0.2,0-0.4,0-0.6-0.1c-0.1-0.2-0.1-0.4-0.1-0.8l-0.7,0.7
									c-0.2-0.2-0.4-0.5-0.7-0.5l-0.1,0.6C493.8,421.2,492.6,421.9,492.4,422.2z"/>
								<path id="path5238" class="st10" d="M527.5,411.9c0.6,0,1-0.2,1.6-0.6c0.6-0.3,1-0.4,1.6-0.3c-0.6-0.2-1.1-0.2-1.8,0
									c-0.6,0.2-1.2,0.2-1.8,0c-0.6-0.2-1.1-0.2-1.8,0c-0.6,0.2-1.2,0.2-1.8,0c0,0.7,0,1.3,0,2c0.6,0.2,1.1,0.2,1.7,0
									c0.6-0.2,1.1-0.2,1.7,0c0.6,0.2,1.1,0.3,1.7,0.1c0.6-0.2,1.1-0.3,1.7-0.1c0,0-0.6-0.4-1.4-0.4c-0.7,0.1-1.4-0.1-1.7-0.2
									c-0.5-0.3-1.1-0.5-1.1-0.6C526.8,411.8,527.1,411.9,527.5,411.9z"/>
								<path id="path5240" class="st10" d="M508.8,412.2c-0.6,0-1-0.2-1.6-0.6c-0.6-0.3-1-0.4-1.6-0.3c0.6-0.2,1.1-0.2,1.8,0
									c0.6,0.2,1.1,0.2,1.8,0c0.6-0.2,1.1-0.2,1.8,0c0.6,0.2,1.1,0.2,1.8,0c0,0.7,0,1.3,0,2c-0.6,0.2-1.1,0.2-1.7,0
									s-1.1-0.2-1.7,0c-0.6,0.2-1.1,0.2-1.7,0.1c-0.6-0.2-1.1-0.3-1.7-0.1c0,0,0.6-0.4,1.4-0.3c0.7,0.1,1.4,0,1.7-0.2
									c0.5-0.3,1.1-0.5,1.1-0.6C509.5,412.1,509.2,412.2,508.8,412.2z"/>
								<path id="path5242" class="st11" d="M512.7,411.3v2l-1.6-0.4v-1.6H512.7z"/>
								<path id="path5244" class="st11" d="M525.1,411l0,1.9l-1.7,0.2v-2H525.1z"/>
								<path id="path5246" class="st12" d="M525.3,410.6c0,0.8,0,1.5,0,2.2c-0.7-0.1-1.3-0.2-1.9-0.2c-0.7,0-0.4,0.1-1.1,0.2
									c-0.7,0.1-1.3,0.2-1.9,0.2c-0.7,0-1.3-0.1-1.9-0.2c-0.7-0.1-1.3-0.2-1.9-0.2c-0.7,0-1.3,0.1-1.9,0.2c-0.7,0.1-1,0.3-1.6,0.3
									c-0.7,0-1.3-0.1-1.9-0.2c0-0.8,0-1.5,0-2.2c0.7,0.1,1.3,0.2,1.9,0.2c0.7,0,1-0.1,1.6-0.3c0.7-0.1,1.3-0.2,1.9-0.2
									c0.7,0,1.3,0.1,1.9,0.2c0.7,0.1,1.3,0.2,1.9,0.2c0.7,0,1.3-0.1,1.9-0.2c0.7-0.1,0.4-0.2,1.1-0.2
									C524,410.4,524.6,410.5,525.3,410.6z"/>
								<path id="path5248" d="M516.6,411.9c-0.1,0-0.1-0.1-0.2-0.1c0,0,0,0.1-0.1,0.1c0,0,0,0,0,0c0.2,0.1,0.3,0.2,0.5,0.2
									c0,0,0,0,0,0c0-0.4,0-0.8,0-1.2c0,0-0.1,0-0.1,0s-0.1,0-0.1,0C516.6,411.2,516.6,411.6,516.6,411.9"/>
								<path id="path5250" d="M517.3,411.1c0,0,0.1-0.1,0.1,0c0.2,0,0.3,0.3,0.3,0.5c0,0,0,0,0,0c0,0,0,0,0,0
									c-0.1-0.1-0.1-0.1-0.2-0.1c-0.2,0-0.3,0.1-0.3,0.3c0,0.1,0,0.2,0.1,0.3c0.1,0.1,0.2,0.1,0.3,0.1c0.1,0,0.2,0,0.3-0.1
									c0.1-0.1,0.1-0.2,0.1-0.3c0-0.2,0-0.3-0.1-0.5c-0.1-0.1-0.2-0.3-0.4-0.3c0,0-0.1,0-0.1,0C517.3,411,517.3,411,517.3,411.1
									C517.3,411.1,517.3,411.1,517.3,411.1C517.3,411.1,517.3,411.1,517.3,411.1z M517.6,412.1c-0.1,0-0.2-0.2-0.1-0.3
									c0-0.1,0-0.3,0.2-0.2c0.1,0,0.1,0.2,0.1,0.3C517.7,412,517.7,412.1,517.6,412.1"/>
								<path id="path5252" d="M518.9,411.9c0-0.2,0-0.4-0.1-0.5c-0.1-0.1-0.2-0.2-0.3-0.2c-0.1,0-0.2,0-0.3,0.1
									c-0.1,0.1-0.1,0.2-0.1,0.4c0,0.1,0,0.3,0.1,0.4c0.1,0.1,0.2,0.2,0.3,0.2C518.9,412.4,518.9,412.2,518.9,411.9z M518.5,411.3
									c0.1,0,0.1,0.2,0.2,0.5c0,0.4,0,0.5-0.1,0.5c-0.1,0-0.2-0.2-0.2-0.6C518.4,411.4,518.4,411.3,518.5,411.3"/>
								<path id="path5254" d="M519.4,412.3c-0.1-0.1-0.1-0.1-0.2-0.1c0,0,0,0.1-0.1,0.1c0,0,0,0,0,0c0.2,0.1,0.3,0.2,0.5,0.3
									c0,0,0,0,0,0c0-0.4,0-0.8,0-1.2c0,0-0.1,0-0.1,0c0,0-0.1,0-0.1,0C519.4,411.7,519.4,412,519.4,412.3"/>
							</g>
						</g>
					</g>
				</g>
			</g>
		</g>
	</g>
</g>
</svg>
