<?xml version="1.0" encoding="utf-8"?>
<!-- Generator: Adobe Illustrator 26.0.2, SVG Export Plug-In . SVG Version: 6.00 Build 0)  -->
<svg version="1.1"
	 id="svg4505" xmlns:cc="http://creativecommons.org/ns#" xmlns:dc="http://purl.org/dc/elements/1.1/" xmlns:inkscape="http://www.inkscape.org/namespaces/inkscape" xmlns:rdf="http://www.w3.org/1999/02/22-rdf-syntax-ns#" xmlns:sodipodi="http://sodipodi.sourceforge.net/DTD/sodipodi-0.dtd" xmlns:svg="http://www.w3.org/2000/svg"
	 xmlns="http://www.w3.org/2000/svg" xmlns:xlink="http://www.w3.org/1999/xlink" x="0px" y="0px" width="383.9px" height="523.2px"
	 viewBox="0 0 383.9 523.2" style="enable-background:new 0 0 383.9 523.2;" xml:space="preserve">
<style type="text/css">
	.st0{fill:#FFFFFF;}
	.st1{fill:#B1B022;}
	.st2{stroke:#000000;stroke-width:1.25;}
	.st3{stroke:#000000;stroke-width:1.3988;}
</style>
<sodipodi:namedview  bordercolor="#666666" borderopacity="1.0" fit-margin-bottom="5" fit-margin-left="5" fit-margin-right="5" fit-margin-top="5" id="base" inkscape:current-layer="g3833" inkscape:cx="72.510419" inkscape:cy="216.1514" inkscape:document-units="px" inkscape:pageopacity="0.0" inkscape:pageshadow="2" inkscape:window-height="706" inkscape:window-maximized="1" inkscape:window-width="1366" inkscape:window-x="-8" inkscape:window-y="-8" inkscape:zoom="0.7" pagecolor="#ffffff" showgrid="false">
	</sodipodi:namedview>
<g id="layer1" transform="translate(-182.33094,-380.8874)" inkscape:groupmode="layer" inkscape:label="Calque 1">
	<g id="g4468" transform="matrix(0.67852621,0.00386059,-0.00386059,0.67852621,135.60003,408.33055)">
		<g id="g3833" transform="matrix(0.99964007,-0.02682742,0.02682742,0.99964007,600.29209,-96.723884)">
			<path id="path3030-1" inkscape:connector-curvature="0" sodipodi:nodetypes="cccccc" d="M-503.5,90.9
				c143-50.4,356.5-49.4,504.7,10.8C28,288.5,23.6,454.6-6.8,619.6c-72.2,74.3-149.6,138.8-260.6,191.6
				c-81.7-45.9-166.2-106-249.2-200.7C-540.3,468.2-540.1,302.2-503.5,90.9z"/>
			<path id="path3030" inkscape:connector-curvature="0" sodipodi:nodetypes="cccccc" class="st0" d="M-484.2,107.4
				c152.6-45.5,307.3-41.3,464.9,9.8C5.8,291.4,1.3,455.3-27,609.2c-67.3,69.3-136.1,127.1-239.6,176.3
				c-76.2-42.8-152.6-97.2-230-185.5C-515,468-518.3,304.4-484.2,107.4z"/>
		</g>
		<g id="g3017" transform="translate(-1589.3742,920.68489)">
		</g>
		<g id="flowRoot2997" transform="translate(-235.32796,948.36903)">
		</g>
		<path id="path3924" inkscape:connector-curvature="0" sodipodi:nodetypes="ccc" class="st1" d="M121.1,297.1
			c47.5,101.9,99.6,203,169.8,301.1C199.5,512.1,149.7,419.8,121.1,297.1z"/>
		<path id="path3924-0" inkscape:connector-curvature="0" sodipodi:nodetypes="ccc" class="st1" d="M580.7,297.8
			C533.9,400,482.6,501.5,413.1,600.1C503.9,513.4,553,420.7,580.7,297.8z"/>
		<g id="g4210" transform="translate(35.963457,-90)">
			<path id="path3829" inkscape:connector-curvature="0" d="M316.3,202.1c-51.3,0.1-105.3,3-161.6,9.7
				c-22.8,30.7-41.1,51.3-71.3,126.5c54.9,117,109,233.5,232.6,406.3c63.7-92.8,131.1-187.2,235.5-408.2
				c-18.8-46.2-39-85.2-71.8-125.9C429.1,205.3,374.4,201.9,316.3,202.1z M284.4,207.2l64,0l0,54.8l-64,0L284.4,207.2z M439,212
				l38.5,4.4c11.7,14.1,22.9,28.9,32.7,45.2l-71.3,0L439,212z M193.3,212.9l0,49.6l-68.5,0c9.5-16.3,20.2-31.1,31.5-45.2
				L193.3,212.9z M439.8,408.6l72.3,0c-24.9,49.1-48.6,90.9-72.2,132.7L439.8,408.6z M285.1,409.9l63.8,0.1l1.3,276.3
				c-13.9,20.7-23.6,34.1-34.7,49.9c-8.8-12.9-18.5-25.2-29.1-40.8L285.1,409.9z M122.2,410.8l72,0l0,135.3
				C170.6,503.4,147,460.8,122.2,410.8z"/>
			<g id="g4202">
				<path id="path3909-9" inkscape:connector-curvature="0" sodipodi:nodetypes="ccccccsccccccccccsccc" d="M323.2,119.6l0,9.4
					c-4.4-3.4-9.9-4-14.6-4c-6.8,0.5-12.7,3.6-14.4,9.2c-0.7,2.6-1.1,5.8-1.1,9.5c-0.5,7,1.4,12.3,8,16.9c1.7,0.8,3.3,1.2,5.1,1.2
					c1.8,0,4.2-0.1,5.9-1.1v-13.2c0-1-0.2-1.9-0.4-2.5h12.5c-0.3,0.7-0.4,1.5-0.4,2.5v14.8c0,1.3,0.2,3.3,0.5,4.3
					c-6.2,1.6-13.3,2.5-19,2.5c-5.4,0-9.8-0.8-13.2-2.5c-4.3-2.1-7.6-5.3-9.7-9.5c-1.9-3.8-2.9-8.3-2.9-13.5
					c0-8.9,2.9-15.8,8.6-20.6c4.7-4,11-6,18.9-6C312,116.9,317.9,117.8,323.2,119.6"/>
				<path id="path3896-4" inkscape:connector-curvature="0" sodipodi:nodetypes="ccccccccccccccccscc" d="M347.9,118.9l31.6,0.5
					l-0.1,6.9c-0.8-0.2-1.7-0.4-2.5-0.4l-17.5-0.2l-0.3,12.9l14,0.2c1.2,0,2.1-0.1,2.9-0.2l-0.1,8.4c-0.7-0.2-1.6-0.3-2.7-0.3
					l-14.1-0.2l-0.3,14.3l17.9,0.2c1.2,0,2.2-0.1,3-0.3l-0.1,7.9l-32.5-0.5c0.3-0.6,0.4-1.4,0.5-2.4l0.7-44.4
					C348.2,120.3,348.1,119.5,347.9,118.9"/>
				<path id="path3907-8" inkscape:connector-curvature="0" sodipodi:nodetypes="cccccccccccccccccc" d="M226.6,138.8l1.8,30.4
					c0.1,1,0.2,1.8,0.5,2.5l-10.2,1c0.3-0.7,0.4-1.6,0.3-2.5l-1.8-45.4c-0.1-1-0.2-1.9-0.5-2.5l9.7-0.5c0.2,0.5,0.6,1.2,1.3,2.1
					l22.2,28.4l-1.3-29.1c-0.1-1-0.2-1.8-0.5-2.5l9.5-0.3c-0.2,0.5-0.4,1.3-0.3,2.5l2.4,45.5c0.1,0.9,0.3,1.7,0.6,2.4l-9.4,0.5
					c-0.2-0.5-0.7-1.2-1.5-2.2"/>
				<path id="path3905-8" inkscape:connector-curvature="0" sodipodi:nodetypes="cccccccccccccccccccc" d="M163.7,163.9l-3,10.6
					c-0.2,0.7-0.2,1.3-0.2,1.8c0,0.1,0.1,0.3,0.1,0.6l-9.9,0.9c0.4-0.7,0.8-1.5,1-2.5l13.2-47.1c0.2-0.7,0.2-1.3,0.2-1.8
					c0-0.1,0-0.3-0.1-0.4l11.6-1.3c0,0.5,0.3,1.2,0.7,2l22.7,44.8c0.4,0.8,1,1.5,1.7,2.1l-12.6,1.3c0-0.2,0-0.4,0-0.5
					c-0.1-0.5-0.3-1.1-0.6-1.7l-5.4-10.3 M165.5,156l14.4-1.3l-9.1-16.7"/>
				<path id="path3887-2" inkscape:connector-curvature="0" sodipodi:nodetypes="ccccccccccccccccccc" d="M457.2,171.5l2.1-8.4
					c2.2,2.6,4.8,3.2,4.8,3.2s4.4,1.9,7.9,2.4c4,0,8.4-1.7,8.8-5.3c0.2-2.3-0.5-4.1-2.3-5.6c-7.4-7.3-19-11.1-18.1-20.5
					c0.3-3.1,1.1-5.7,3.1-8c3.7-4.5,9.1-6.3,16.6-5.5c4.4,0.5,8.1,1.9,12.3,4.3l-2.2,8.3c-3.9-3.5-7.5-4.3-10.8-4.7
					c-1.9-0.2-3.6-0.5-5,0.6c-2.5,2.2-3,5.3-1,7.3c1.1,1.1,4.2,3.7,8,6.8c4.5,3.5,8.1,5.9,9.5,8.5c2.7,4.6,2.2,10.6-0.9,14.9
					c-3.8,5-10.5,6.8-19,6.7C465.1,176.2,459.3,173.8,457.2,171.5"/>
				<path id="path3890-4" inkscape:connector-curvature="0" sodipodi:nodetypes="cccccsccccccccccsccccc" d="M412.6,149.7l-0.9,18.5
					c0,0.9,0.1,1.8,0.3,2.4l-10.9-0.5c0.3-0.5,0.5-1.3,0.5-2.4l2-44.9c0-0.9-0.1-1.7-0.3-2.4l21.3,0.5c7.5,0.6,13.4,7.3,12.9,14.5
					c-0.1,4.3-6,10.5-10.5,13.2l14.3,21.2c0.7,1.1,1.3,1.8,1.8,2.3l-15.3-0.7c-0.1-0.8-0.3-1.6-0.7-2.3l-9.6-18.9 M412.8,142.9
					l6,0.3c2,0.1,3.7-0.4,5-1.4c2-1.6,2.6-3.3,2.7-6.4c0-4.4-3-7.2-6.9-7.5l-5.9-0.2L412.8,142.9"/>
			</g>
		</g>
		<g id="g4307" transform="translate(35.853037,-90)">
			<g id="text4251" transform="matrix(1,0,0,1.0360145,0,-17.601217)">
				<path id="path4263" inkscape:connector-curvature="0" sodipodi:nodetypes="ccccccccccc" class="st2" d="M328.2,473.6l-20.7,0
					v-3.9h7.5v-25.2l-7.1,2.3v-3.7l13-3.5v30h7.2L328.2,473.6z"/>
			</g>
			<g id="text4255" transform="matrix(1.06174,0,0,0.94185014,0.17677669,0)">
				<path id="path4260" inkscape:connector-curvature="0" sodipodi:nodetypes="ccssccccccssscccccc" class="st3" d="M288.2,574.7v-5
					c2.1,1.2,4.3,2,6.7,2c3.4,0,5.6-0.7,7.5-3.5c1.9-2.7,2.4-6.6,2.4-11.7c0,0-0.1,0-0.1,0c-1.6,3.2-3.4,4.9-7.4,4.9
					c-6.6-0.2-10.5-5.2-10.5-11.7c0-8.1,5.5-12.5,11.6-12.6c3.7,0,6.6,1.5,8.7,4.4c2.1,2.9,3.7,7.2,3.7,12.8
					c0,6.9-1.5,12.3-4.2,16.1c-2.7,3.8-6.9,5.6-11.6,5.6C292.2,575.9,290,575.5,288.2,574.7L288.2,574.7z M297.8,540.7
					c-4.9,0.4-6.4,3.8-6.4,8.3c-0.4,5.5,2.3,8.4,6.7,8.5c4.1-0.3,6.7-2.9,6.7-7.1C305,545,302.4,540.8,297.8,540.7z"/>
			</g>
			<g id="text4251-5" transform="matrix(1,0,0,1.0360145,4.9843101e-6,118.8704)">
				<path id="path4263-1" inkscape:connector-curvature="0" sodipodi:nodetypes="ccccccccccc" class="st2" d="M328.7,473.5H308v-3.8
					h7.5l0-25.2l-7.1,2.3v-3.7l13-3.5l0,30h7.2L328.7,473.5z"/>
			</g>
			<g id="text4255-7" transform="matrix(1.06174,0,0,0.94185014,0.79549482,136.73677)">
				<path id="path4260-1" inkscape:connector-curvature="0" sodipodi:nodetypes="ccssccccccssscccccc" class="st3" d="M288.2,574.7
					v-5c2.1,1.2,4.3,2,6.7,2c3.4,0,5.6-0.7,7.5-3.5c1.9-2.7,2.4-6.6,2.4-11.7c0,0-0.1,0-0.1,0c-1.6,3.2-3.4,4.9-7.4,4.9
					c-6.6-0.2-10.5-5.2-10.5-11.7c0-8.1,5.5-12.5,11.6-12.6c3.7,0,6.6,1.5,8.7,4.4c2.1,2.9,3.7,7.2,3.7,12.8
					c0,6.9-1.5,12.3-4.2,16.1c-2.7,3.8-6.9,5.6-11.6,5.6C292.2,575.9,290,575.5,288.2,574.7L288.2,574.7z M297.8,540.7
					c-4.9,0.4-6.4,3.8-6.4,8.3c-0.4,5.5,2.3,8.4,6.7,8.5c4.1-0.3,6.7-2.9,6.7-7.1C305,545,302.4,540.8,297.8,540.7z"/>
			</g>
		</g>
		<g id="g4452" transform="translate(38.183487,-90)">
			<path id="path4354-5" inkscape:connector-curvature="0" sodipodi:nodetypes="ccccccccc" class="st0" d="M270.3,301.9
				c-31.8,27.8-17.2,71,25.8,80.1c21.2,6.8,54.7,3.7,69.2-5.4l0.1-16.1c-17.5,12.5-49.7,12.7-63.6,5.6
				c-21.1-9.5-28.7-30.7-16.7-51.2c13.2-19.1,56.2-19.6,80.5-4.5l2.4-17C337.9,282.1,291.7,283.5,270.3,301.9z"/>
			<path id="path4354" inkscape:connector-curvature="0" sodipodi:nodetypes="cccccccssscccccscc" class="st0" d="M233.1,363.1
				c4.1-28-32.2-33.1-43.2-36.2c-7.3-2.1-13.7-3.6-17.6-5.3c-20.8-9.8-0.8-20.7,22.4-19.2c15,1.2,16.9,3.6,32.2,8.8
				c0.3-5.2,1.4-10.3,4.4-15.4c-9.1-3-15.1-4.9-24.5-7c-7.8-1.7-25.5-1.7-34.3,0c-8.5,1.6-20.6,7-25.3,11.6c-7.5,7.4-8.1,18-2.9,27
				c4.3,7.4,18.3,14,35.2,16.3c20,5.4,28.2,5.4,29.8,19.7c0.2,17.6-44.6,11.8-57.3,4.6l-4.9-4.2c-0.1,6.1-1.5,11.6-3.1,17.5l8.9,2.2
				c13.9,3.3,20.2,4.4,35.7,3.9C204.7,387.3,229.2,382.7,233.1,363.1L233.1,363.1z"/>
			<path id="path4354-5-2" inkscape:connector-curvature="0" sodipodi:nodetypes="ccscscscscssssssssss" class="st0" d="
				M488.1,355.5c0,0,1-20.1,1-21.5c0,0,1.2-11.3-0.9-18.1c-6.1-19.7-27.1-29.8-53.8-28.6c-21.8,0-36.6,8.6-43.2,20.4
				c-5,9-4.1,19.4-4.1,31c-0.8,9.1-0.1,17.3,2.8,24.3c5,11.9,19,20.5,30.5,21.9c9.7,1.8,24.5,1.9,37.1-0.9
				C473.9,380.5,487.7,366.9,488.1,355.5L488.1,355.5z M424.3,371.6c-3.8-1.1-8.5-3.8-10.5-7.5c-3.5-6.8-2.3-16.3-2.4-27.3
				c-0.1-8.1-0.7-17.7,2-24.2c4.3-10.5,13.1-12.1,24.8-12.1c12,0,22.1,3.1,24.5,11.3c1.6,5.6,1.2,12.6,1.2,24.5
				c0,20.5,0.7,25.2-4.6,30.4c-3.2,3.2-8.6,6.2-16.2,6.2C436.7,373,430.3,373.4,424.3,371.6L424.3,371.6z"/>
		</g>
	</g>
</g>
</svg>
