<?xml version="1.0" encoding="utf-8"?>
<!-- Generator: Adobe Illustrator 26.0.2, SVG Export Plug-In . SVG Version: 6.00 Build 0)  -->
<svg version="1.1"
	 id="svg2" xmlns:cc="http://creativecommons.org/ns#" xmlns:dc="http://purl.org/dc/elements/1.1/" xmlns:inkscape="http://www.inkscape.org/namespaces/inkscape" xmlns:rdf="http://www.w3.org/1999/02/22-rdf-syntax-ns#" xmlns:sodipodi="http://sodipodi.sourceforge.net/DTD/sodipodi-0.dtd" xmlns:svg="http://www.w3.org/2000/svg"
	 xmlns="http://www.w3.org/2000/svg" xmlns:xlink="http://www.w3.org/1999/xlink" x="0px" y="0px" viewBox="0 0 220 257.6"
	 enable-background="new 0 0 220 257.6" xml:space="preserve">
<sodipodi:namedview  bordercolor="#666666" borderopacity="1" fit-margin-bottom="0" fit-margin-left="0" fit-margin-right="0" fit-margin-top="0" gridtolerance="10" guidetolerance="10" id="namedview332" inkscape:current-layer="svg2" inkscape:cx="71.430446" inkscape:cy="172.3322" inkscape:lockguides="false" inkscape:pageopacity="0" inkscape:pageshadow="2" inkscape:window-height="1017" inkscape:window-maximized="1" inkscape:window-width="1920" inkscape:window-x="-8" inkscape:window-y="-8" inkscape:zoom="1.5405185" objecttolerance="10" pagecolor="#ffffff" showgrid="false">
	</sodipodi:namedview>
<g id="layer1" transform="translate(4.1393895,-452.17316)">
	<g id="g3009" transform="matrix(7.0924191,0,0,-7.0924191,-335.83045,988.60926)">
		<g>
			<g id="g3011">
				<g id="g3021" transform="translate(76.432999,44.166397)">
					<path id="path3023" inkscape:connector-curvature="0" fill="#FFFFFF" d="M0,12.1c0-7.6-4.9-13-14.2-15.6
						c-9.3,2.6-14.2,8-14.2,15.6v18.4H0V12.1z"/>
				</g>
				<g id="g3025" transform="translate(76.175003,44.168793)">
					<path id="path3027" inkscape:connector-curvature="0" fill="#2B57AC" d="M0,12.1C0,4.6-4.8-0.6-13.9-3.2
						C-23-0.6-27.8,4.6-27.8,12.1v18H0V12.1z M-28.5,30.9V12.1c0-3.8,1.2-7.1,3.6-9.8c2.5-2.8,6.2-4.9,11.1-6.2
						C-9-2.6-5.3-0.5-2.8,2.3c2.4,2.7,3.6,6,3.6,9.8v18.8H-28.5z"/>
				</g>
				<g id="g3029" transform="translate(61.847,39.451096)">
					<path id="path3031" inkscape:connector-curvature="0" fill="#1C5329" d="M0,12.1l0,0.1h-0.1c-0.1,0-0.1-0.1-0.2-0.3l0-0.1
						c-0.1-0.2-0.1-0.3-0.1-0.3s0.1,0.1,0.2,0.2l0,0.1L0,12.1"/>
				</g>
				<g id="g3033" transform="translate(61.111999,40.317306)">
					<path id="path3035" inkscape:connector-curvature="0" fill="#EA1F29" d="M0,12.1c-0.1-0.1-0.3-0.3-0.2-0.6
						c0.2-0.4,0.5-0.4,0.6-0.4l0,0.1c0,0.1,0.1,0.2,0.2,0.3c0,0.1,0,0.3-0.1,0.4c0,0.1-0.2,0.3-0.2,0.4C0.3,12.1,0.2,12.1,0,12.1"/>
				</g>
				<g id="g3037" transform="translate(62.251999,40.860504)">
					<path id="path3039" inkscape:connector-curvature="0" fill="#EA1F29" d="M0,12.1c0,0.1-0.1,0.2-0.1,0.4v0
						c-0.1,0.1-0.5,0.3-0.8,0.1c-0.4-0.3-0.2-0.7-0.2-0.8l0.3-0.1c0.1,0.1,0.2,0.2,0.3,0.2C-0.3,12-0.1,12.1,0,12.1"/>
				</g>
				<g id="g3041" transform="translate(61.1577,40.528198)">
					<path id="path3043" inkscape:connector-curvature="0" fill="#1C5329" d="M0,12.1c-0.2,0-0.4,0-0.4,0s0.1-0.1,0.3-0.2l0,0
						c0.2-0.1,0.3,0,0.3,0L0.4,12l0,0L0,12.1L0,12.1"/>
				</g>
				<g id="g3045" transform="translate(62.862198,39.675797)">
					<path id="path3047" inkscape:connector-curvature="0" fill="#EA1F29" d="M0,12.1c-0.1,0-0.3,0-0.5,0c-0.2,0-0.4-0.1-0.5-0.2
						l-0.1-0.2l0-0.1c0.1-0.1,0.3-0.3,0.7-0.3c0.5,0.1,0.6,0.4,0.6,0.5l0,0L0,12.1"/>
				</g>
				<g id="g3049" transform="translate(63.4272,40.580505)">
					<path id="path3051" inkscape:connector-curvature="0" fill="#EA1F29" d="M0,12.1l-0.1-0.1C-0.3,12-0.4,12-0.4,12
						c0-0.1-0.1-0.2-0.1-0.3c0-0.1,0-0.2,0-0.3c0.1,0,0.1-0.1,0.2-0.2l0,0l0-0.1c0.1,0,0.5,0,0.5,0.5C0.4,12,0.1,12.1,0,12.1"/>
				</g>
				<g id="g3053" transform="translate(63.371902,40.700806)">
					<path id="path3055" inkscape:connector-curvature="0" fill="#EA1F29" d="M0,12.1c0,0.1,0.1,0.5-0.3,0.8c-0.3,0.2-0.6,0-0.7-0.1
						l0-0.1c0-0.2,0-0.3,0-0.4c0,0,0.2-0.1,0.3-0.2c0.1-0.1,0.3-0.1,0.3-0.1l0.2,0.1L0,12.1"/>
				</g>
				<g id="g3057" transform="translate(62.365402,41.271805)">
					<path id="path3059" inkscape:connector-curvature="0" fill="#1C5329" d="M0,12.1L0,12.1c0,0.2-0.1,0.3-0.1,0.3s-0.1,0-0.1-0.3
						v0c0-0.2,0-0.3,0.1-0.4l0.1,0l0,0.1l0,0C0,11.8,0,12,0,12.1"/>
				</g>
				<g id="g3061" transform="translate(63.4272,40.580505)">
					<path id="path3063" inkscape:connector-curvature="0" fill="#1C5329" d="M0,12.1c0.1,0.1,0.2,0.1,0.2,0.1c0,0-0.1,0-0.3,0
						l-0.1,0l-0.2-0.1L-0.5,12l0.1,0c0.1,0,0.2,0,0.3,0.1L0,12.1"/>
				</g>
				<g id="g3065" transform="translate(63.173294,39.565002)">
					<path id="path3067" inkscape:connector-curvature="0" fill="#1C5329" d="M0,12.1c-0.1,0.1-0.2,0.2-0.2,0.2l-0.1,0l-0.1,0l0-0.1
						l0-0.1l0.2-0.3l0,0l0,0c0.1-0.1,0.2-0.1,0.2-0.1s0,0.1-0.1,0.2L0,12.1L0,12.1"/>
				</g>
				<g id="g3069" transform="translate(62.583801,40.315201)">
					<path id="path3071" inkscape:connector-curvature="0" fill="#F2BB0E" d="M0,12.1c0-0.2-0.1-0.3-0.3-0.4c-0.2,0-0.4,0-0.4,0.2
						c0,0.2,0.1,0.3,0.3,0.4C-0.2,12.4,0,12.3,0,12.1"/>
				</g>
				<g id="g3073" transform="translate(72.141907,39.451096)">
					<path id="path3075" inkscape:connector-curvature="0" fill="#1C5329" d="M0,12.1l0,0.1h-0.1c-0.1,0-0.1-0.1-0.2-0.3l0-0.1
						c-0.1-0.2-0.1-0.3-0.1-0.3s0.1,0.1,0.2,0.2l0,0.1L0,12.1"/>
				</g>
				<g id="g3077" transform="translate(71.405106,40.317306)">
					<path id="path3079" inkscape:connector-curvature="0" fill="#EA1F29" d="M0,12.1c-0.1-0.1-0.3-0.3-0.2-0.6
						c0.2-0.4,0.5-0.4,0.6-0.4l0,0.1c0,0.1,0.1,0.2,0.2,0.3c0,0.1,0,0.3-0.1,0.4c-0.1,0.1-0.2,0.3-0.2,0.4C0.3,12.1,0.2,12.1,0,12.1
						"/>
				</g>
				<g id="g3081" transform="translate(72.547806,40.860504)">
					<path id="path3083" inkscape:connector-curvature="0" fill="#EA1F29" d="M0,12.1c0,0.1-0.1,0.2-0.1,0.4l0,0
						c-0.1,0.1-0.5,0.3-0.8,0.1c-0.4-0.3-0.2-0.7-0.2-0.8l0.3-0.1c0.1,0.1,0.2,0.2,0.3,0.2C-0.3,12-0.1,12.1,0,12.1"/>
				</g>
				<g id="g3085" transform="translate(71.450806,40.528198)">
					<path id="path3087" inkscape:connector-curvature="0" fill="#1C5329" d="M0,12.1c-0.2,0-0.4,0-0.4,0s0.1-0.1,0.3-0.2l0,0
						c0.2-0.1,0.3,0,0.3,0L0.4,12l0,0L0,12.1L0,12.1"/>
				</g>
				<g id="g3089" transform="translate(73.156494,39.675797)">
					<path id="path3091" inkscape:connector-curvature="0" fill="#EA1F29" d="M0,12.1c-0.1,0-0.3,0-0.5,0c-0.2,0-0.4-0.1-0.5-0.2
						l-0.1-0.2l0-0.1c0.1-0.1,0.3-0.3,0.7-0.3c0.5,0.1,0.6,0.4,0.6,0.5l0,0L0,12.1"/>
				</g>
				<g id="g3093" transform="translate(73.724792,40.580505)">
					<path id="path3095" inkscape:connector-curvature="0" fill="#EA1F29" d="M0,12.1l-0.1-0.1C-0.3,12-0.4,12-0.4,12
						c0-0.1-0.1-0.2-0.1-0.3c0-0.1,0-0.2,0-0.3c0.1,0,0.1-0.1,0.2-0.2l0,0l0-0.1c0.1,0,0.5,0,0.5,0.5C0.4,12,0.1,12.1,0,12.1"/>
				</g>
				<g id="g3097" transform="translate(73.668396,40.700806)">
					<path id="path3099" inkscape:connector-curvature="0" fill="#EA1F29" d="M0,12.1c0,0.1,0.1,0.5-0.3,0.8c-0.3,0.2-0.6,0-0.7-0.1
						l0-0.1c0-0.2,0-0.3,0-0.4c0,0,0.2-0.1,0.3-0.2c0.1-0.1,0.3-0.1,0.3-0.1l0.2,0.1L0,12.1"/>
				</g>
				<g id="g3101" transform="translate(72.661896,41.271805)">
					<path id="path3103" inkscape:connector-curvature="0" fill="#1C5329" d="M0,12.1L0,12.1c-0.1,0.2-0.1,0.3-0.1,0.3
						s-0.1,0-0.1-0.3l0,0c0-0.2,0-0.3,0.1-0.4l0.1,0l0,0.1l0,0C0,11.8,0,12,0,12.1"/>
				</g>
				<g id="g3105" transform="translate(73.724792,40.580505)">
					<path id="path3107" inkscape:connector-curvature="0" fill="#1C5329" d="M0,12.1c0.1,0.1,0.2,0.1,0.2,0.1c0,0-0.1,0-0.3,0
						l-0.1,0l-0.2-0.1L-0.5,12l0.1,0c0.1,0,0.2,0,0.3,0.1L0,12.1"/>
				</g>
				<g id="g3109" transform="translate(73.468201,39.565002)">
					<path id="path3111" inkscape:connector-curvature="0" fill="#1C5329" d="M0,12.1c-0.1,0.1-0.2,0.2-0.2,0.2l-0.1,0l-0.1,0l0-0.1
						l0-0.1l0.2-0.3l0,0l0,0c0.1-0.1,0.2-0.1,0.2-0.1s0,0.1-0.1,0.2L0,12.1L0,12.1"/>
				</g>
				<g id="g3113" transform="translate(72.879593,40.315201)">
					<path id="path3115" inkscape:connector-curvature="0" fill="#F2BB0E" d="M0,12.1c0-0.2-0.1-0.3-0.3-0.4c-0.2,0-0.4,0-0.4,0.2
						c0,0.2,0.1,0.3,0.3,0.4C-0.2,12.4,0,12.3,0,12.1"/>
				</g>
				<g id="g3117" transform="translate(51.472,39.451096)">
					<path id="path3119" inkscape:connector-curvature="0" fill="#1C5329" d="M0,12.1l0,0.1h-0.1c-0.1,0-0.1-0.1-0.2-0.3l0-0.1
						c-0.1-0.2-0.1-0.3-0.1-0.3s0.1,0.1,0.2,0.2l0,0.1L0,12.1"/>
				</g>
				<g id="g3121" transform="translate(50.736404,40.317306)">
					<path id="path3123" inkscape:connector-curvature="0" fill="#EA1F29" d="M0,12.1c-0.1-0.1-0.3-0.3-0.2-0.6
						c0.2-0.4,0.5-0.4,0.6-0.4l0,0.1c0,0.1,0.1,0.2,0.2,0.3c0,0.1,0,0.3-0.1,0.4c0,0.1-0.2,0.3-0.2,0.4C0.3,12.1,0.2,12.1,0,12.1"/>
				</g>
				<g id="g3125" transform="translate(51.876694,40.860504)">
					<path id="path3127" inkscape:connector-curvature="0" fill="#EA1F29" d="M0,12.1c0,0.1-0.1,0.2-0.1,0.4l0,0
						c-0.1,0.1-0.5,0.3-0.8,0.1c-0.4-0.3-0.2-0.7-0.2-0.8l0.3-0.1c0.1,0.1,0.2,0.2,0.3,0.2C-0.3,12-0.1,12.1,0,12.1"/>
				</g>
				<g id="g3129" transform="translate(50.7827,40.528198)">
					<path id="path3131" inkscape:connector-curvature="0" fill="#1C5329" d="M0,12.1c-0.2,0-0.4,0-0.4,0s0.1-0.1,0.3-0.2l0,0
						c0.2-0.1,0.3,0,0.3,0L0.4,12l0,0L0,12.1L0,12.1"/>
				</g>
				<g id="g3133" transform="translate(52.488296,39.675797)">
					<path id="path3135" inkscape:connector-curvature="0" fill="#EA1F29" d="M0,12.1c-0.1,0-0.3,0-0.5,0c-0.2,0-0.4-0.1-0.5-0.2
						l-0.1-0.2l0-0.1c0.1-0.1,0.3-0.3,0.7-0.3c0.5,0.1,0.6,0.4,0.6,0.5l0,0L0,12.1"/>
				</g>
				<g id="g3137" transform="translate(53.055496,40.580505)">
					<path id="path3139" inkscape:connector-curvature="0" fill="#EA1F29" d="M0,12.1l-0.1-0.1C-0.3,12-0.4,12-0.4,12
						c0-0.1-0.1-0.2-0.1-0.3c0-0.1,0-0.2,0-0.3c0.1,0,0.1-0.1,0.2-0.2l0,0l0-0.1c0.1,0,0.5,0,0.5,0.5C0.4,12,0.1,12.1,0,12.1"/>
				</g>
				<g id="g3141" transform="translate(53,40.700806)">
					<path id="path3143" inkscape:connector-curvature="0" fill="#EA1F29" d="M0,12.1c0,0.1,0.1,0.5-0.3,0.8c-0.3,0.2-0.6,0-0.7-0.1
						l0-0.1c0-0.2,0-0.3,0-0.4c0,0,0.2-0.1,0.3-0.2c0.1-0.1,0.3-0.1,0.3-0.1l0.2,0.1L0,12.1"/>
				</g>
				<g id="g3145" transform="translate(51.992905,41.271805)">
					<path id="path3147" inkscape:connector-curvature="0" fill="#1C5329" d="M0,12.1L0,12.1c-0.1,0.2-0.1,0.3-0.1,0.3
						s-0.1,0-0.1-0.3l0,0c0-0.2,0-0.3,0.1-0.4l0.1,0l0,0.1v0C0,11.8,0,12,0,12.1"/>
				</g>
				<g id="g3149" transform="translate(53.055496,40.580505)">
					<path id="path3151" inkscape:connector-curvature="0" fill="#1C5329" d="M0,12.1c0.1,0.1,0.2,0.1,0.2,0.1c0,0-0.1,0-0.3,0
						l-0.1,0l-0.2-0.1L-0.5,12l0.1,0c0.1,0,0.2,0,0.3,0.1L0,12.1"/>
				</g>
				<g id="g3153" transform="translate(52.8004,39.565002)">
					<path id="path3155" inkscape:connector-curvature="0" fill="#1C5329" d="M0,12.1c-0.1,0.1-0.2,0.2-0.2,0.2l-0.1,0l-0.1,0l0-0.1
						l0-0.1l0.2-0.3l0,0l0,0c0.1-0.1,0.2-0.1,0.2-0.1s0,0.1-0.1,0.2L0,12.1L0,12.1"/>
				</g>
				<g id="g3157" transform="translate(52.210007,40.315201)">
					<path id="path3159" inkscape:connector-curvature="0" fill="#F2BB0E" d="M0,12.1c0-0.2-0.1-0.3-0.3-0.4c-0.2,0-0.4,0-0.4,0.2
						c0,0.2,0.1,0.3,0.3,0.4C-0.2,12.4,0,12.3,0,12.1"/>
				</g>
				<g id="g3161" transform="translate(61.847,49.046707)">
					<path id="path3163" inkscape:connector-curvature="0" fill="#1C5329" d="M0,12.1l0,0.1l-0.1,0c-0.1,0-0.1-0.1-0.2-0.3l0-0.1
						c-0.1-0.2-0.1-0.3-0.1-0.3s0.1,0.1,0.2,0.2l0,0L0,12.1"/>
				</g>
				<g id="g3165" transform="translate(61.111999,49.912796)">
					<path id="path3167" inkscape:connector-curvature="0" fill="#EA1F29" d="M0,12.1c-0.1-0.1-0.3-0.3-0.2-0.6
						c0.2-0.4,0.5-0.4,0.6-0.4l0,0.1c0,0.1,0.1,0.2,0.2,0.3c0,0.1,0,0.3-0.1,0.4c0,0.1-0.2,0.3-0.2,0.4C0.3,12.1,0.2,12.1,0,12.1"/>
				</g>
				<g id="g3169" transform="translate(62.251999,50.458404)">
					<path id="path3171" inkscape:connector-curvature="0" fill="#EA1F29" d="M0,12.1c0,0.1-0.1,0.2-0.1,0.4v0
						c-0.1,0.1-0.5,0.3-0.8,0c-0.4-0.3-0.2-0.7-0.2-0.8l0.3-0.1c0.1,0.1,0.2,0.2,0.3,0.2C-0.3,12-0.1,12.1,0,12.1"/>
				</g>
				<g id="g3173" transform="translate(61.1577,50.123901)">
					<path id="path3175" inkscape:connector-curvature="0" fill="#1C5329" d="M0,12.1c-0.2,0-0.4,0-0.4,0s0.1-0.1,0.3-0.2l0,0
						c0.2-0.1,0.3,0,0.3,0L0.4,12l0,0L0,12.1L0,12.1"/>
				</g>
				<g id="g3177" transform="translate(62.862198,49.270401)">
					<path id="path3179" inkscape:connector-curvature="0" fill="#EA1F29" d="M0,12.1c-0.1,0-0.3,0-0.5,0c-0.2,0-0.4-0.1-0.5-0.2
						l-0.1-0.2l0,0c0.1-0.1,0.3-0.3,0.7-0.3c0.5,0.1,0.6,0.4,0.6,0.5l0,0L0,12.1"/>
				</g>
				<g id="g3181" transform="translate(63.4272,50.176193)">
					<path id="path3183" inkscape:connector-curvature="0" fill="#EA1F29" d="M0,12.1l-0.1-0.1C-0.3,12-0.4,12-0.4,12
						c0-0.1-0.1-0.2-0.1-0.3c0-0.1,0-0.2,0-0.3c0.1,0,0.1-0.1,0.2-0.2l0,0l0-0.1c0.1,0,0.5,0,0.5,0.5C0.4,12,0.1,12.1,0,12.1"/>
				</g>
				<g id="g3185" transform="translate(63.371902,50.296204)">
					<path id="path3187" inkscape:connector-curvature="0" fill="#EA1F29" d="M0,12.1c0,0.1,0.1,0.5-0.3,0.8c-0.3,0.2-0.6,0-0.7-0.1
						l0-0.1c0-0.2,0-0.3,0-0.4c0,0,0.2-0.1,0.3-0.2c0.1-0.1,0.3-0.1,0.3-0.1l0.2,0.1L0,12.1"/>
				</g>
				<g id="g3189" transform="translate(62.365402,50.867294)">
					<path id="path3191" inkscape:connector-curvature="0" fill="#1C5329" d="M0,12.1L0,12.1c0,0.2-0.1,0.3-0.1,0.3s-0.1,0-0.1-0.3
						v0c0-0.2,0-0.3,0.1-0.4l0.1,0l0,0.1l0,0C0,11.8,0,12,0,12.1"/>
				</g>
				<g id="g3193" transform="translate(63.4272,50.176193)">
					<path id="path3195" inkscape:connector-curvature="0" fill="#1C5329" d="M0,12.1c0.1,0.1,0.2,0.1,0.2,0.1c0,0-0.1,0-0.3,0
						l-0.1,0l-0.2-0.1L-0.5,12l0.1,0c0.1,0,0.2,0,0.3,0.1L0,12.1"/>
				</g>
				<g id="g3197" transform="translate(63.173294,49.159607)">
					<path id="path3199" inkscape:connector-curvature="0" fill="#1C5329" d="M0,12.1c-0.1,0.1-0.2,0.2-0.2,0.2l-0.1,0l-0.1,0l0-0.1
						l0-0.1l0.2-0.3l0,0l0,0c0.1-0.1,0.2-0.1,0.2-0.1s0,0.1-0.1,0.2L0,12.1L0,12.1"/>
				</g>
				<g id="g3201" transform="translate(62.583801,49.910995)">
					<path id="path3203" inkscape:connector-curvature="0" fill="#F2BB0E" d="M0,12.1c0-0.2-0.1-0.3-0.3-0.4c-0.2,0-0.4,0-0.4,0.2
						c0,0.2,0.1,0.3,0.3,0.4C-0.2,12.4,0,12.3,0,12.1"/>
				</g>
				<g id="g3205" transform="translate(51.342697,49.046707)">
					<path id="path3207" inkscape:connector-curvature="0" fill="#1C5329" d="M0,12.1l0,0.1l-0.1,0c-0.1,0-0.1-0.1-0.2-0.3l0-0.1
						c-0.1-0.2-0.1-0.3-0.1-0.3s0.1,0.1,0.2,0.2l0,0L0,12.1"/>
				</g>
				<g id="g3209" transform="translate(50.607101,49.912796)">
					<path id="path3211" inkscape:connector-curvature="0" fill="#EA1F29" d="M0,12.1c-0.1-0.1-0.3-0.3-0.2-0.6
						c0.2-0.4,0.5-0.4,0.6-0.4l0,0.1c0,0.1,0.1,0.2,0.2,0.3c0,0.1,0,0.3-0.1,0.4c-0.1,0.1-0.2,0.3-0.2,0.4C0.3,12.1,0.2,12.1,0,12.1
						"/>
				</g>
				<g id="g3213" transform="translate(51.748306,50.458404)">
					<path id="path3215" inkscape:connector-curvature="0" fill="#EA1F29" d="M0,12.1c0,0.1-0.1,0.2-0.1,0.4v0
						c-0.1,0.1-0.5,0.3-0.8,0c-0.4-0.3-0.2-0.7-0.2-0.8l0.3-0.1c0.1,0.1,0.2,0.2,0.3,0.2C-0.3,12-0.1,12.1,0,12.1"/>
				</g>
				<g id="g3217" transform="translate(50.652801,50.123901)">
					<path id="path3219" inkscape:connector-curvature="0" fill="#1C5329" d="M0,12.1c-0.2,0-0.4,0-0.4,0s0.1-0.1,0.3-0.2l0,0
						c0.2-0.1,0.3,0,0.3,0L0.4,12l0,0L0,12.1L0,12.1"/>
				</g>
				<g id="g3221" transform="translate(52.3573,49.270401)">
					<path id="path3223" inkscape:connector-curvature="0" fill="#EA1F29" d="M0,12.1c-0.1,0-0.3,0-0.5,0c-0.2,0-0.4-0.1-0.5-0.2
						l-0.1-0.2l0,0c0.1-0.1,0.3-0.3,0.7-0.3c0.5,0.1,0.6,0.4,0.6,0.5l0,0L0,12.1"/>
				</g>
				<g id="g3225" transform="translate(52.925003,50.176193)">
					<path id="path3227" inkscape:connector-curvature="0" fill="#EA1F29" d="M0,12.1l-0.1-0.1C-0.3,12-0.4,12-0.4,12
						c0-0.1-0.1-0.2-0.1-0.3c0-0.1,0-0.2,0-0.3c0.1,0,0.1-0.1,0.2-0.2l0,0l0-0.1c0.1,0,0.5,0,0.5,0.5C0.4,12,0.1,12.1,0,12.1"/>
				</g>
				<g id="g3229" transform="translate(52.869095,50.296204)">
					<path id="path3231" inkscape:connector-curvature="0" fill="#EA1F29" d="M0,12.1c0,0.1,0.1,0.5-0.3,0.8c-0.3,0.2-0.6,0-0.7-0.1
						l0-0.1c0-0.2,0-0.3,0-0.4c0,0,0.2-0.1,0.3-0.2c0.1-0.1,0.3-0.1,0.3-0.1l0.2,0.1L0,12.1"/>
				</g>
				<g id="g3233" transform="translate(51.862396,50.867294)">
					<path id="path3235" inkscape:connector-curvature="0" fill="#1C5329" d="M0,12.1L0,12.1c0,0.2-0.1,0.3-0.1,0.3s-0.1,0-0.1-0.3
						v0c0-0.2,0-0.3,0.1-0.4l0.1,0l0,0.1l0,0C0,11.8,0,12,0,12.1"/>
				</g>
				<g id="g3237" transform="translate(52.925003,50.176193)">
					<path id="path3239" inkscape:connector-curvature="0" fill="#1C5329" d="M0,12.1c0.1,0.1,0.2,0.1,0.2,0.1c0,0-0.1,0-0.3,0
						l-0.1,0l-0.2-0.1L-0.5,12l0.1,0c0.1,0,0.2,0,0.3,0.1L0,12.1"/>
				</g>
				<g id="g3241" transform="translate(52.670197,49.159607)">
					<path id="path3243" inkscape:connector-curvature="0" fill="#1C5329" d="M0,12.1c-0.1,0.1-0.2,0.2-0.2,0.2l-0.1,0l-0.1,0l0-0.1
						l0-0.1l0.2-0.3l0,0l0,0c0.1-0.1,0.2-0.1,0.2-0.1s0,0.1-0.1,0.2L0,12.1L0,12.1"/>
				</g>
				<g id="g3245" transform="translate(52.080399,49.910995)">
					<path id="path3247" inkscape:connector-curvature="0" fill="#F2BB0E" d="M0,12.1c0-0.2-0.1-0.3-0.3-0.4c-0.2,0-0.4,0-0.4,0.2
						c0,0.2,0.1,0.3,0.3,0.4C-0.2,12.4,0,12.3,0,12.1"/>
				</g>
				<g id="g3249" transform="translate(72.373703,49.046707)">
					<path id="path3251" inkscape:connector-curvature="0" fill="#1C5329" d="M0,12.1l0,0.1l-0.1,0c-0.1,0-0.1-0.1-0.2-0.3l0-0.1
						c-0.1-0.2-0.1-0.3-0.1-0.3s0.1,0.1,0.2,0.2l0,0L0,12.1"/>
				</g>
				<g id="g3253" transform="translate(71.638397,49.912796)">
					<path id="path3255" inkscape:connector-curvature="0" fill="#EA1F29" d="M0,12.1c-0.1-0.1-0.3-0.3-0.2-0.6
						c0.2-0.4,0.5-0.4,0.6-0.4l0,0.1c0,0.1,0.1,0.2,0.2,0.3c0,0.1,0,0.3-0.1,0.4c0,0.1-0.2,0.3-0.2,0.4C0.3,12.1,0.2,12.1,0,12.1"/>
				</g>
				<g id="g3257" transform="translate(72.779907,50.458404)">
					<path id="path3259" inkscape:connector-curvature="0" fill="#EA1F29" d="M0,12.1c0,0.1-0.1,0.2-0.1,0.4l0,0
						c-0.1,0.1-0.5,0.3-0.8,0c-0.4-0.3-0.2-0.7-0.2-0.8l0.3-0.1c0.1,0.1,0.2,0.2,0.3,0.2C-0.3,12-0.1,12.1,0,12.1"/>
				</g>
				<g id="g3261" transform="translate(71.684402,50.123901)">
					<path id="path3263" inkscape:connector-curvature="0" fill="#1C5329" d="M0,12.1c-0.2,0-0.4,0-0.4,0s0.1-0.1,0.3-0.2l0,0
						c0.2-0.1,0.3,0,0.3,0L0.4,12l0,0L0,12.1L0,12.1"/>
				</g>
				<g id="g3265" transform="translate(73.391205,49.270401)">
					<path id="path3267" inkscape:connector-curvature="0" fill="#EA1F29" d="M0,12.1c-0.1,0-0.3,0-0.5,0c-0.2,0-0.4-0.1-0.5-0.2
						l-0.1-0.2l0,0c0.1-0.1,0.3-0.3,0.7-0.3c0.5,0.1,0.6,0.4,0.6,0.5l0,0L0,12.1"/>
				</g>
				<g id="g3269" transform="translate(73.957794,50.176193)">
					<path id="path3271" inkscape:connector-curvature="0" fill="#EA1F29" d="M0,12.1l-0.1-0.1C-0.3,12-0.4,12-0.4,12
						c0-0.1-0.1-0.2-0.1-0.3c0-0.1,0-0.2,0-0.3c0.1,0,0.1-0.1,0.2-0.2l0,0l0-0.1c0.1,0,0.5,0,0.5,0.5C0.4,12,0.1,12.1,0,12.1"/>
				</g>
				<g id="g3273" transform="translate(73.901901,50.296204)">
					<path id="path3275" inkscape:connector-curvature="0" fill="#EA1F29" d="M0,12.1c0,0.1,0.1,0.5-0.3,0.8c-0.3,0.2-0.6,0-0.7-0.1
						l0-0.1c0-0.2,0-0.3,0-0.4c0,0,0.2-0.1,0.3-0.2c0.1-0.1,0.3-0.1,0.3-0.1l0.2,0.1L0,12.1"/>
				</g>
				<g id="g3277" transform="translate(72.895706,50.867294)">
					<path id="path3279" inkscape:connector-curvature="0" fill="#1C5329" d="M0,12.1L0,12.1c0,0.2-0.1,0.3-0.1,0.3s-0.1,0-0.1-0.3
						l0,0c0-0.2,0-0.3,0.1-0.4l0.1,0l0,0.1l0,0C0,11.8,0,12,0,12.1"/>
				</g>
				<g id="g3281" transform="translate(73.957794,50.176193)">
					<path id="path3283" inkscape:connector-curvature="0" fill="#1C5329" d="M0,12.1c0.1,0.1,0.2,0.1,0.2,0.1c0,0-0.1,0-0.3,0
						l-0.1,0l-0.2-0.1L-0.5,12l0.1,0c0.1,0,0.2,0,0.3,0.1L0,12.1"/>
				</g>
				<g id="g3285" transform="translate(73.703003,49.159607)">
					<path id="path3287" inkscape:connector-curvature="0" fill="#1C5329" d="M0,12.1c-0.1,0.1-0.2,0.2-0.2,0.2l-0.1,0l-0.1,0l0-0.1
						l0-0.1l0.2-0.3l0,0l0,0c0.1-0.1,0.2-0.1,0.2-0.1s0,0.1-0.1,0.2L0,12.1L0,12.1"/>
				</g>
				<g id="g3289" transform="translate(73.111694,49.910995)">
					<path id="path3291" inkscape:connector-curvature="0" fill="#F2BB0E" d="M0,12.1c0-0.2-0.1-0.3-0.3-0.4c-0.2,0-0.4,0-0.4,0.2
						c0,0.2,0.1,0.3,0.3,0.4C-0.2,12.4,0,12.3,0,12.1"/>
				</g>
				<g id="g3293" transform="translate(61.847,58.641006)">
					<path id="path3295" inkscape:connector-curvature="0" fill="#1C5329" d="M0,12.1l0,0.1l-0.1,0c-0.1,0-0.1-0.1-0.2-0.3l0-0.1
						c-0.1-0.2-0.1-0.3-0.1-0.3s0.1,0.1,0.2,0.2l0,0L0,12.1"/>
				</g>
				<g id="g3297" transform="translate(61.111999,59.5074)">
					<path id="path3299" inkscape:connector-curvature="0" fill="#EA1F29" d="M0,12.1c-0.1-0.1-0.3-0.3-0.2-0.6
						c0.2-0.4,0.5-0.4,0.6-0.4l0,0.1c0,0.1,0.1,0.2,0.2,0.3c0,0.1,0,0.3-0.1,0.4c0,0.1-0.2,0.3-0.2,0.4C0.3,12.1,0.2,12.1,0,12.1"/>
				</g>
				<g id="g3301" transform="translate(62.251999,60.051498)">
					<path id="path3303" inkscape:connector-curvature="0" fill="#EA1F29" d="M0,12.1c0,0.1-0.1,0.2-0.1,0.4v0
						c-0.1,0.1-0.5,0.3-0.8,0.1c-0.4-0.3-0.2-0.7-0.2-0.8l0.3-0.1c0.1,0.1,0.2,0.2,0.3,0.2C-0.3,12-0.1,12.1,0,12.1"/>
				</g>
				<g id="g3305" transform="translate(61.1577,59.717895)">
					<path id="path3307" inkscape:connector-curvature="0" fill="#1C5329" d="M0,12.1c-0.2,0-0.4,0-0.4,0s0.1-0.1,0.3-0.2l0,0
						c0.2-0.1,0.3,0,0.3,0L0.4,12l0,0L0,12.1L0,12.1"/>
				</g>
				<g id="g3309" transform="translate(62.862198,58.864395)">
					<path id="path3311" inkscape:connector-curvature="0" fill="#EA1F29" d="M0,12.1c-0.1,0-0.3,0-0.5,0c-0.2,0-0.4-0.1-0.5-0.2
						l-0.1-0.2l0-0.1c0.1-0.1,0.3-0.3,0.7-0.3c0.5,0.1,0.6,0.4,0.6,0.5l0,0L0,12.1"/>
				</g>
				<g id="g3313" transform="translate(63.4272,59.769897)">
					<path id="path3315" inkscape:connector-curvature="0" fill="#EA1F29" d="M0,12.1l-0.1-0.1C-0.3,12-0.4,12-0.4,12
						c0-0.1-0.1-0.2-0.1-0.3c0-0.1,0-0.2,0-0.3c0.1,0,0.1-0.1,0.2-0.2l0,0l0-0.1c0.1,0,0.5,0,0.5,0.5C0.4,12,0.1,12.1,0,12.1"/>
				</g>
				<g id="g3317" transform="translate(63.371902,59.891098)">
					<path id="path3319" inkscape:connector-curvature="0" fill="#EA1F29" d="M0,12.1c0,0.1,0.1,0.5-0.3,0.8c-0.3,0.2-0.6,0-0.7-0.1
						l0-0.1c0-0.2,0-0.3,0-0.4c0,0,0.2-0.1,0.3-0.2c0.1-0.1,0.3-0.1,0.3-0.1l0.2,0.1L0,12.1"/>
				</g>
				<g id="g3321" transform="translate(62.365402,60.462204)">
					<path id="path3323" inkscape:connector-curvature="0" fill="#1C5329" d="M0,12.1L0,12.1c0,0.2-0.1,0.3-0.1,0.3s-0.1,0-0.1-0.3
						v0c0-0.2,0-0.3,0.1-0.4l0.1,0l0,0.1l0,0C0,11.8,0,12,0,12.1"/>
				</g>
				<g id="g3325" transform="translate(63.4272,59.769897)">
					<path id="path3327" inkscape:connector-curvature="0" fill="#1C5329" d="M0,12.1c0.1,0.1,0.2,0.1,0.2,0.1c0,0-0.1,0-0.3,0
						l-0.1,0l-0.2-0.1L-0.5,12l0.1,0c0.1,0,0.2,0,0.3,0.1L0,12.1"/>
				</g>
				<g id="g3329" transform="translate(63.173294,58.755096)">
					<path id="path3331" inkscape:connector-curvature="0" fill="#1C5329" d="M0,12.1c-0.1,0.1-0.2,0.2-0.2,0.2l-0.1,0l-0.1,0l0-0.1
						l0-0.1l0.2-0.3l0,0l0,0c0.1-0.1,0.2-0.1,0.2-0.1s0,0.1-0.1,0.2L0,12.1L0,12.1"/>
				</g>
				<g id="g3333" transform="translate(62.583801,59.504394)">
					<path id="path3335" inkscape:connector-curvature="0" fill="#F2BB0E" d="M0,12.1c0-0.2-0.1-0.3-0.3-0.4s-0.4,0-0.4,0.2
						c0,0.1,0.1,0.3,0.3,0.4C-0.2,12.4,0,12.3,0,12.1"/>
				</g>
				<g id="g3337" transform="translate(51.342697,58.641006)">
					<path id="path3339" inkscape:connector-curvature="0" fill="#1C5329" d="M0,12.1l0,0.1l-0.1,0c-0.1,0-0.1-0.1-0.2-0.3l0-0.1
						c-0.1-0.2-0.1-0.3-0.1-0.3s0.1,0.1,0.2,0.2l0,0L0,12.1"/>
				</g>
				<g id="g3341" transform="translate(50.607101,59.5074)">
					<path id="path3343" inkscape:connector-curvature="0" fill="#EA1F29" d="M0,12.1c-0.1-0.1-0.3-0.3-0.2-0.6
						c0.2-0.4,0.5-0.4,0.6-0.4l0,0.1c0,0.1,0.1,0.2,0.2,0.3c0,0.1,0,0.3-0.1,0.4c-0.1,0.1-0.2,0.3-0.2,0.4C0.3,12.1,0.2,12.1,0,12.1
						"/>
				</g>
				<g id="g3345" transform="translate(51.748306,60.051498)">
					<path id="path3347" inkscape:connector-curvature="0" fill="#EA1F29" d="M0,12.1c0,0.1-0.1,0.2-0.1,0.4v0
						c-0.1,0.1-0.5,0.3-0.8,0.1c-0.4-0.3-0.2-0.7-0.2-0.8l0.3-0.1c0.1,0.1,0.2,0.2,0.3,0.2C-0.3,12-0.1,12.1,0,12.1"/>
				</g>
				<g id="g3349" transform="translate(50.652801,59.717895)">
					<path id="path3351" inkscape:connector-curvature="0" fill="#1C5329" d="M0,12.1c-0.2,0-0.4,0-0.4,0s0.1-0.1,0.3-0.2l0,0
						c0.2-0.1,0.3,0,0.3,0L0.4,12l0,0L0,12.1L0,12.1"/>
				</g>
				<g id="g3353" transform="translate(52.3573,58.864395)">
					<path id="path3355" inkscape:connector-curvature="0" fill="#EA1F29" d="M0,12.1c-0.1,0-0.3,0-0.5,0c-0.2,0-0.4-0.1-0.5-0.2
						l-0.1-0.2l0-0.1c0.1-0.1,0.3-0.3,0.7-0.3c0.5,0.1,0.6,0.4,0.6,0.5l0,0L0,12.1"/>
				</g>
				<g id="g3357" transform="translate(52.925003,59.769897)">
					<path id="path3359" inkscape:connector-curvature="0" fill="#EA1F29" d="M0,12.1l-0.1-0.1C-0.3,12-0.4,12-0.4,12
						c0-0.1-0.1-0.2-0.1-0.3c0-0.1,0-0.2,0-0.3c0.1,0,0.1-0.1,0.2-0.2l0,0l0-0.1c0.1,0,0.5,0,0.5,0.5C0.4,12,0.1,12.1,0,12.1"/>
				</g>
				<g id="g3361" transform="translate(52.869095,59.891098)">
					<path id="path3363" inkscape:connector-curvature="0" fill="#EA1F29" d="M0,12.1c0,0.1,0.1,0.5-0.3,0.8c-0.3,0.2-0.6,0-0.7-0.1
						l0-0.1c0-0.2,0-0.3,0-0.4c0,0,0.2-0.1,0.3-0.2c0.1-0.1,0.3-0.1,0.3-0.1l0.2,0.1L0,12.1"/>
				</g>
				<g id="g3365" transform="translate(51.862396,60.462204)">
					<path id="path3367" inkscape:connector-curvature="0" fill="#1C5329" d="M0,12.1L0,12.1c0,0.2-0.1,0.3-0.1,0.3s-0.1,0-0.1-0.3
						v0c0-0.2,0-0.3,0.1-0.4l0.1,0l0,0.1l0,0C0,11.8,0,12,0,12.1"/>
				</g>
				<g id="g3369" transform="translate(52.925003,59.769897)">
					<path id="path3371" inkscape:connector-curvature="0" fill="#1C5329" d="M0,12.1c0.1,0.1,0.2,0.1,0.2,0.1c0,0-0.1,0-0.3,0
						l-0.1,0l-0.2-0.1L-0.5,12l0.1,0c0.1,0,0.2,0,0.3,0.1L0,12.1"/>
				</g>
				<g id="g3373" transform="translate(52.670197,58.755096)">
					<path id="path3375" inkscape:connector-curvature="0" fill="#1C5329" d="M0,12.1c-0.1,0.1-0.2,0.2-0.2,0.2l-0.1,0l-0.1,0l0-0.1
						l0-0.1l0.2-0.3l0,0l0,0c0.1-0.1,0.2-0.1,0.2-0.1s0,0.1-0.1,0.2L0,12.1L0,12.1"/>
				</g>
				<g id="g3377" transform="translate(52.080399,59.504394)">
					<path id="path3379" inkscape:connector-curvature="0" fill="#F2BB0E" d="M0,12.1c0-0.2-0.1-0.3-0.3-0.4s-0.4,0-0.4,0.2
						c0,0.1,0.1,0.3,0.3,0.4C-0.2,12.4,0,12.3,0,12.1"/>
				</g>
				<g id="g3381" transform="translate(72.373703,58.641006)">
					<path id="path3383" inkscape:connector-curvature="0" fill="#1C5329" d="M0,12.1l0,0.1l-0.1,0c-0.1,0-0.1-0.1-0.2-0.3l0-0.1
						c-0.1-0.2-0.1-0.3-0.1-0.3s0.1,0.1,0.2,0.2l0,0L0,12.1"/>
				</g>
				<g id="g3385" transform="translate(71.638397,59.5074)">
					<path id="path3387" inkscape:connector-curvature="0" fill="#EA1F29" d="M0,12.1c-0.1-0.1-0.3-0.3-0.2-0.6
						c0.2-0.4,0.5-0.4,0.6-0.4l0,0.1c0,0.1,0.1,0.2,0.2,0.3c0,0.1,0,0.3-0.1,0.4c0,0.1-0.2,0.3-0.2,0.4C0.3,12.1,0.2,12.1,0,12.1"/>
				</g>
				<g id="g3389" transform="translate(72.779907,60.051498)">
					<path id="path3391" inkscape:connector-curvature="0" fill="#EA1F29" d="M0,12.1c0,0.1-0.1,0.2-0.1,0.4l0,0
						c-0.1,0.1-0.5,0.3-0.8,0.1c-0.4-0.3-0.2-0.7-0.2-0.8l0.3-0.1c0.1,0.1,0.2,0.2,0.3,0.2C-0.3,12-0.1,12.1,0,12.1"/>
				</g>
				<g id="g3393" transform="translate(71.684402,59.717895)">
					<path id="path3395" inkscape:connector-curvature="0" fill="#1C5329" d="M0,12.1c-0.2,0-0.4,0-0.4,0s0.1-0.1,0.3-0.2l0,0
						c0.2-0.1,0.3,0,0.3,0L0.4,12l0,0L0,12.1L0,12.1"/>
				</g>
				<g id="g3397" transform="translate(73.391205,58.864395)">
					<path id="path3399" inkscape:connector-curvature="0" fill="#EA1F29" d="M0,12.1c-0.1,0-0.3,0-0.5,0c-0.2,0-0.4-0.1-0.5-0.2
						l-0.1-0.2l0-0.1c0.1-0.1,0.3-0.3,0.7-0.3c0.5,0.1,0.6,0.4,0.6,0.5l0,0L0,12.1"/>
				</g>
				<g id="g3401" transform="translate(73.957794,59.769897)">
					<path id="path3403" inkscape:connector-curvature="0" fill="#EA1F29" d="M0,12.1l-0.1-0.1C-0.3,12-0.4,12-0.4,12
						c0-0.1-0.1-0.2-0.1-0.3c0-0.1,0-0.2,0-0.3c0.1,0,0.1-0.1,0.2-0.2l0,0l0-0.1c0.1,0,0.5,0,0.5,0.5C0.4,12,0.1,12.1,0,12.1"/>
				</g>
				<g id="g3405" transform="translate(73.901901,59.891098)">
					<path id="path3407" inkscape:connector-curvature="0" fill="#EA1F29" d="M0,12.1c0,0.1,0.1,0.5-0.3,0.8c-0.3,0.2-0.6,0-0.7-0.1
						l0-0.1c0-0.2,0-0.3,0-0.4c0,0,0.2-0.1,0.3-0.2c0.1-0.1,0.3-0.1,0.3-0.1l0.2,0.1L0,12.1"/>
				</g>
				<g id="g3409" transform="translate(72.895706,60.462204)">
					<path id="path3411" inkscape:connector-curvature="0" fill="#1C5329" d="M0,12.1L0,12.1c0,0.2-0.1,0.3-0.1,0.3s-0.1,0-0.1-0.3
						l0,0c0-0.2,0-0.3,0.1-0.4l0.1,0l0,0.1l0,0C0,11.8,0,12,0,12.1"/>
				</g>
				<g id="g3413" transform="translate(73.957794,59.769897)">
					<path id="path3415" inkscape:connector-curvature="0" fill="#1C5329" d="M0,12.1c0.1,0.1,0.2,0.1,0.2,0.1c0,0-0.1,0-0.3,0
						l-0.1,0l-0.2-0.1L-0.5,12l0.1,0c0.1,0,0.2,0,0.3,0.1L0,12.1"/>
				</g>
				<g id="g3417" transform="translate(73.703003,58.755096)">
					<path id="path3419" inkscape:connector-curvature="0" fill="#1C5329" d="M0,12.1c-0.1,0.1-0.2,0.2-0.2,0.2l-0.1,0l-0.1,0l0-0.1
						l0-0.1l0.2-0.3l0,0l0,0c0.1-0.1,0.2-0.1,0.2-0.1s0,0.1-0.1,0.2L0,12.1L0,12.1"/>
				</g>
				<g id="g3421" transform="translate(73.111694,59.504394)">
					<path id="path3423" inkscape:connector-curvature="0" fill="#F2BB0E" d="M0,12.1c0-0.2-0.1-0.3-0.3-0.4c-0.2-0.1-0.4,0-0.4,0.2
						c0,0.1,0.1,0.3,0.3,0.4C-0.2,12.4,0,12.3,0,12.1"/>
				</g>
				<g id="g3425" transform="translate(61.847,31.281204)">
					<path id="path3427" inkscape:connector-curvature="0" fill="#1C5329" d="M0,12.1l0,0.1h-0.1c-0.1,0-0.1-0.1-0.2-0.3l0-0.1
						c-0.1-0.2-0.1-0.3-0.1-0.3s0.1,0.1,0.2,0.2l0,0.1L0,12.1"/>
				</g>
				<g id="g3429" transform="translate(61.111999,32.1465)">
					<path id="path3431" inkscape:connector-curvature="0" fill="#EA1F29" d="M0,12.1c-0.1-0.1-0.3-0.3-0.2-0.6
						c0.2-0.4,0.5-0.4,0.6-0.4l0,0.1c0,0.1,0.1,0.2,0.2,0.3c0,0.1,0,0.3-0.1,0.4c0,0.1-0.2,0.3-0.2,0.4C0.3,12.1,0.2,12.1,0,12.1"/>
				</g>
				<g id="g3433" transform="translate(62.251999,32.690598)">
					<path id="path3435" inkscape:connector-curvature="0" fill="#EA1F29" d="M0,12.1c0,0.1-0.1,0.2-0.1,0.4v0
						c-0.1,0.1-0.5,0.3-0.8,0.1c-0.4-0.3-0.2-0.7-0.2-0.8l0.3-0.1c0.1,0.1,0.2,0.2,0.3,0.2C-0.3,12-0.1,12.1,0,12.1"/>
				</g>
				<g id="g3437" transform="translate(61.1577,32.3582)">
					<path id="path3439" inkscape:connector-curvature="0" fill="#1C5329" d="M0,12.1c-0.2,0-0.4,0-0.4,0s0.1-0.1,0.3-0.2l0,0
						c0.2-0.1,0.3,0,0.3,0L0.4,12l0,0L0,12.1L0,12.1"/>
				</g>
				<g id="g3441" transform="translate(62.862198,31.504303)">
					<path id="path3443" inkscape:connector-curvature="0" fill="#EA1F29" d="M0,12.1c-0.1,0-0.3,0-0.5,0c-0.2,0-0.4-0.1-0.5-0.2
						l-0.1-0.2l0,0c0.1-0.1,0.3-0.3,0.7-0.3c0.5,0.1,0.6,0.4,0.6,0.5l0,0L0,12.1"/>
				</g>
				<g id="g3445" transform="translate(63.4272,32.409195)">
					<path id="path3447" inkscape:connector-curvature="0" fill="#EA1F29" d="M0,12.1l-0.1-0.1C-0.3,12-0.4,12-0.4,12
						c0-0.1-0.1-0.2-0.1-0.3c0-0.1,0-0.2,0-0.3c0.1,0,0.1-0.1,0.2-0.2l0,0l0-0.1c0.1,0,0.5,0,0.5,0.5C0.4,12,0.1,12.1,0,12.1"/>
				</g>
				<g id="g3449" transform="translate(63.371902,32.530396)">
					<path id="path3451" inkscape:connector-curvature="0" fill="#EA1F29" d="M0,12.1c0,0.1,0.1,0.5-0.3,0.8c-0.3,0.2-0.6,0-0.7-0.1
						l0-0.1c0-0.2,0-0.3,0-0.4c0,0,0.2-0.1,0.3-0.2c0.1-0.1,0.3-0.1,0.3-0.1l0.2,0.1L0,12.1"/>
				</g>
				<g id="g3453" transform="translate(62.365402,33.100998)">
					<path id="path3455" inkscape:connector-curvature="0" fill="#1C5329" d="M0,12.1L0,12.1c0,0.2-0.1,0.3-0.1,0.3s-0.1,0-0.1-0.3
						v0c0-0.2,0-0.3,0.1-0.4l0.1,0l0,0.1l0,0C0,11.8,0,12,0,12.1"/>
				</g>
				<g id="g3457" transform="translate(63.4272,32.409195)">
					<path id="path3459" inkscape:connector-curvature="0" fill="#1C5329" d="M0,12.1c0.1,0.1,0.2,0.1,0.2,0.1c0,0-0.1,0-0.3,0
						l-0.1,0l-0.2-0.1L-0.5,12l0.1,0c0.1,0,0.2,0,0.3,0.1L0,12.1"/>
				</g>
				<g id="g3461" transform="translate(63.173294,31.395203)">
					<path id="path3463" inkscape:connector-curvature="0" fill="#1C5329" d="M0,12.1c-0.1,0.1-0.2,0.2-0.2,0.2l-0.1,0l-0.1,0l0-0.1
						l0-0.1l0.2-0.3l0,0l0,0c0.1-0.1,0.2-0.1,0.2-0.1s0,0.1-0.1,0.2L0,12.1L0,12.1"/>
				</g>
				<g id="g3465" transform="translate(62.583801,32.143997)">
					<path id="path3467" inkscape:connector-curvature="0" fill="#F2BB0E" d="M0,12.1c0-0.1-0.1-0.3-0.3-0.4c-0.2,0-0.4,0-0.4,0.2
						c0,0.2,0.1,0.3,0.3,0.4C-0.2,12.4,0,12.3,0,12.1"/>
				</g>
				<g id="g3469" transform="translate(71.182999,38.212402)">
					<path id="path3471" inkscape:connector-curvature="0" fill="#2B57AC" d="M0,12.1c0,0,0.4,0.6-1,1.2c-1.1,0.4-2.5,0.3-3.5,0.5
						c-0.8,0.1-0.9,0.3-0.8,0.5c0.1,0.4,0.8,0.1,1.3-0.1c0.5-0.3,1.4-0.4,2,0.2c0.2,0.2,0.5,0.3,0.5,0.3s-0.4,0.2-0.7,0
						c-0.1-0.1-0.2-0.2-0.5-0.2c-0.5,0-0.5,0.1-0.5,0.1s0.2-0.2,0.8,0.1c0.7,0.4,0.3,1.2,0.3,1.2s0-0.3-0.3-0.5
						c-0.4-0.3-0.8,0-0.8,0s0.2-0.1,0.4,0c0.3,0.1,0.4,0.3,0.3,0.5c0,0.1-0.2,0.2-0.2,0.2s0.4-0.5-1.1-0.4c-0.7,0.1-1-0.7-1-0.7
						s-0.3,0.1-0.6,0c0,0.1,0,0.3-0.1,0.4c-0.1-0.4-0.4-0.6-0.5-0.8c-0.1-0.2-0.4-0.6-0.1-1.1c0.4-0.4,1-0.5,1.4-0.5
						c0.6,0,1.6-0.1,2.5-0.2c1.2-0.2,1-0.7,0.8-0.9c-0.1-0.2-0.4-0.2-1.3,0.1C-3.2,12.5-4,13-5.8,12.9c-2.4-0.1-4.1-1.8-4.9-1.7
						c0,0,0-0.2,0-0.4c-0.1-0.6-0.6-0.9-0.6-0.9l-0.1,0.1c-0.1,0,0-0.1-0.2-0.3c-0.2-0.1-0.3-0.3-0.4-0.6c0,0-0.1,0.2-0.2,0
						c-0.1-0.2-0.2-0.2-0.3-0.3L-12.4,9c-0.1,0-0.1-0.5-0.9-0.4l-0.1,0c-0.6-0.1-0.7,0.5-0.9,0.7c-0.1,0.1-0.3-0.1-0.3-0.1
						s-0.1,0.1-0.1,0.4c0,0.2,0.1,0.3,0,0.5c-0.1,0.1-0.4,0.4-0.3,0.9c-0.1,0-0.4,0.1-0.6,1l0.1,0c0,0.1-0.1,0.2-0.2,0.3
						c0,0.2-0.1,0.6,0.1,0.8c0.2,0.2,0.7,0.3,0.4,0.8l-0.1-0.1l-0.1-0.1l-0.2,0.2l0.1,0.1l0,0c-0.1,0-0.2,0-0.2,0
						c0,0.1,0.2,0.6-0.3,0.7l0-0.2l-0.1-0.1l-0.2,0.1l0,0.2l0,0.1c-0.4-0.1-0.3-0.6-0.3-0.7c0,0.1-0.3,0.5-0.5,0.3l0,0l0.1-0.1
						l0-0.1l-0.2-0.1l-0.1,0.1l0,0c-0.1-0.1-0.1-0.3,0.2-0.5c0.4-0.3,0.5-1.3,0.4-1.5c-0.1-0.2-0.3,0.1-0.3,0.1s0-0.2,0.1-0.5
						c0.3-0.4,0.4-0.6,0.2-0.6l-0.1,0.1c0,0,0-0.2,0.3-0.5c0.1-0.1,0.1-0.1,0-0.1c-0.1,0-0.2,0.1-0.2,0.1s0.1-0.2,0.2-0.4
						c0.2-0.3,0.5-0.5,0.5-0.5s-0.3,0-0.7,0.3c-0.6,0.3-0.3,0.6-0.5,1c-0.2,0.4-0.3,0.5-0.4,0.5h0l0-0.1l0-0.1l-0.2,0l-0.1,0.2
						C-18,11.3-18,11.1-18,11c-0.1,0.1-0.3,0.3-0.5,0.3c-0.1,0-0.2,0-0.3-0.1l0,0l0,0l0.1-0.1l-0.1-0.2l-0.2,0.1l0,0
						c-0.1-0.2-0.1-0.5,0.5-0.7c0,0-0.3,0-0.4-0.3l0.2,0l0.1-0.1l-0.1-0.2l-0.2,0l0,0c0.1-0.3,0.3-0.3,0.5-0.3
						c0.9,0,1.6-0.4,1.6-0.4s-0.2,0-0.3-0.2c-0.1-0.1-0.1-0.2-0.1-0.2s0.1,0.1,0.3,0.1c0.2,0,0.3,0,0.3,0s-0.3-0.1-0.2-0.5
						c0,0,0.1,0.2,0.4,0.2c0.2,0.1,0.4,0,0.5-0.1c0.1-0.2-0.4-0.3-0.4-0.3C-16,7.9-15.2,8-15.2,8s-0.5-0.1-0.5-0.4
						c0,0,0.3,0.2,0.9,0c1-0.4,2.1-0.5,3.6,0.1c1.9,0.8,2,2.4,4.6,3.3c0.1-0.1,0.7-0.7,1.4-1c0.6-0.2,1.5-0.4,1.7-0.4
						c0.4-0.1,1-0.2,0.6-1C-2.9,8.2-3.1,8.1-3.2,8c0,0-0.2,0.1-0.5,0.2c-0.2,0.1-0.3,0-0.3-0.1l0.1,0L-3.9,8L-4,7.8l-0.1,0l0,0
						c0-0.2,0.2-0.2,0.2-0.2s-0.2-0.1-0.2-0.3l0.1,0l0.1,0l0-0.2l-0.1-0.1l0,0c0.1-0.1,0.5,0,0.5,0s-0.1-0.2,0-0.3l0.1,0.1l0.1,0
						l0.1-0.1l-0.1-0.1l0,0l0.1,0c0.2,0,0.4,0.2,0.5,0.5c0.1,0.4,0.3,0.5,0.3,0.5S-2.1,8-2.3,7.4C-1.9,7.5-2,7.8-2,7.8l0.4-0.1
						c0.1,0.1,0,0.4,0.1,0.6c0.1,0.2,0.2,0,0.2-0.2c0,0,0.2,0.1,0.2,0.3C-1.1,8.6-1.1,8.9-1,9c0.1,0.1,0.2,0,0.1-0.2
						c0,0,0.2,0,0.2,0.3c0,0.2,0,0.2,0,0.2l0.1-0.1c0,0,0.1,0.3-0.2,0.5C-1.2,10-2.5,9.8-3.2,11c-0.3,0.4-0.1,0.6-0.1,0.6
						s1.4-0.6,2.1-0.5c0.9,0.1,0.9,0.6,0.9,0.6s0.1,0,0-0.3c0,0,0.2,0,0.2,0.3c0.1,0.4-0.1,0.7-0.1,0.7C0,12.4,0,12.1,0,12.1"/>
				</g>
				<g id="g3473" transform="translate(52.488296,35.863098)">
					<path id="path3475" inkscape:connector-curvature="0" fill="#EA1F29" d="M0,12.1l0.1,0.2L0,12.4l-0.2,0l0,0
						c-0.3,0-0.3-0.2-0.4-0.3c0,0,0.2,0.1,0.4,0.1l0,0L0,12.1"/>
				</g>
				<g id="g3477" transform="translate(52.328003,37.091003)">
					<path id="path3479" inkscape:connector-curvature="0" fill="#EA1F29" d="M0,12.1l0.1,0.2l-0.1,0.1l0,0l-0.2,0.1
						c-0.3,0-0.4-0.1-0.5-0.2c0,0,0.2,0.1,0.4,0l0,0L0,12.1"/>
				</g>
				<g id="g3481" transform="translate(53.380096,37.320908)">
					<path id="path3483" inkscape:connector-curvature="0" fill="#EA1F29" d="M0,12.1l0.2,0l0,0.1l0,0.1l-0.1,0.1
						c-0.2,0.2-0.4,0.2-0.5,0.1c0,0,0.2-0.1,0.3-0.3L0,12.1"/>
				</g>
				<g id="g3485" transform="translate(55.690506,39.812897)">
					<path id="path3487" inkscape:connector-curvature="0" fill="#EA1F29" d="M0,12.1L0.2,12L0.3,12l0.1,0.1l0,0.1
						c0.1,0.3-0.1,0.4-0.2,0.5c0,0,0.1-0.2-0.1-0.4l0,0L0,12.1"/>
				</g>
				<g id="g3489" transform="translate(54.977905,40.462494)">
					<path id="path3491" inkscape:connector-curvature="0" fill="#EA1F29" d="M0,12.1L0.2,12l0.1,0.1l0,0.2l0,0
						c0,0.3-0.2,0.3-0.3,0.4c0,0,0.1-0.1,0.1-0.4l0-0.1L0,12.1"/>
				</g>
				<g id="g3493" transform="translate(54.076004,39.975601)">
					<path id="path3495" inkscape:connector-curvature="0" fill="#EA1F29" d="M0,12.1l0.2,0.1l0,0.1l-0.1,0.1L0,12.5
						c-0.3,0.1-0.4,0-0.5-0.1c0,0,0.2,0,0.4-0.2l0,0L0,12.1"/>
				</g>
				<g id="g3497" transform="translate(67.204895,33.881805)">
					<path id="path3499" inkscape:connector-curvature="0" fill="#EA1F29" d="M0,12.1l0.1,0.2L0,12.4l-0.1,0l-0.1,0
						c-0.2,0-0.3-0.2-0.3-0.3c0,0,0.2,0.1,0.4,0.1l0,0L0,12.1"/>
				</g>
				<g id="g3501" transform="translate(67.2556,33.415695)">
					<path id="path3503" inkscape:connector-curvature="0" fill="#EA1F29" d="M0,12.1l-0.1,0l-0.1,0l-0.1-0.1
						c-0.2-0.1-0.2-0.3-0.1-0.4c0,0,0.1,0.2,0.3,0.2h0L0,11.9L0,12.1"/>
				</g>
				<g id="g3505" transform="translate(67.943497,32.857803)">
					<path id="path3507" inkscape:connector-curvature="0" fill="#EA1F29" d="M0,12.1l-0.1,0.1l-0.1,0l-0.1-0.1l0-0.1
						c0-0.2,0.1-0.4,0.2-0.4c0,0-0.1,0.2,0.1,0.4l0,0L0,12.1"/>
				</g>
				<g id="g3509" transform="translate(67.287293,35.475906)">
					<path id="path3511" inkscape:connector-curvature="0" fill="#2B57AC" d="M0,12.1c-1.5,0.3-1.9,0.5-2.5,1.1
						c-0.1,0-0.3-0.5,0.3-1.1c0.3-0.2,0.5-0.3,0.5-0.3s-0.5,0.1-1,0c-0.3,0.1-0.5,0.4-0.8,0.6c-0.1,0-0.2,0-0.3,0l0.1-0.1l0-0.1
						l-0.1-0.1l-0.1,0.1l0,0c0-0.1,0-0.2,0.1-0.3c-0.2,0-0.3-0.1-0.4-0.3l0.2,0l0.1-0.1l0-0.2l-0.1,0l-0.1,0l0,0
						c0.1-0.3,0.6-0.1,0.6-0.1s-0.3-0.2-0.1-0.4l0.1,0.1l0.1,0l0.1-0.1l-0.1-0.1l0,0c0.4-0.1,0.7,0.4,0.7,0.4c0-0.4,0.3-0.5,0.3-0.5
						s0,0.2,0.1,0.3c0.2,0.1,0.5,0.1,0.5,0.1c-0.1-0.2,0-0.3,0.1-0.3c0,0.4,0.8,0.4,0.8,0.4c0-0.2,0.2-0.2,0.2-0.2s0,0.2,0.2,0.4
						c0.2,0.1,0.5,0.1,0.8,0.3C0.6,11.7,0.5,12.1,0,12.1"/>
				</g>
				<g id="g3513" transform="translate(63.928299,34.132401)">
					<path id="path3515" inkscape:connector-curvature="0" fill="#EA1F29" d="M0,12.1l-0.1,0.1l-0.1-0.1l-0.1-0.1l0-0.1
						c0-0.2,0.1-0.4,0.2-0.4c0,0-0.1,0.2,0,0.3l0,0L0,12.1"/>
				</g>
				<g id="g3517" transform="translate(63.317306,34.708603)">
					<path id="path3519" inkscape:connector-curvature="0" fill="#EA1F29" d="M0,12.1l0,0.2l-0.1,0.1l-0.2,0l0,0
						c-0.2-0.1-0.2-0.3-0.2-0.4c0,0,0.1,0.2,0.3,0.2l0.1,0L0,12.1"/>
				</g>
				<g id="g3521" transform="translate(63.478897,35.436401)">
					<path id="path3523" inkscape:connector-curvature="0" fill="#EA1F29" d="M0,12.1l0.1,0.1l0,0.1L0,12.4l-0.1,0
						c-0.2,0.1-0.4-0.1-0.4-0.2c0,0,0.2,0.1,0.4-0.1l0,0L0,12.1"/>
				</g>
				<g id="g3525" transform="translate(59.588593,38.476898)">
					<path id="path3527" inkscape:connector-curvature="0" fill="#2B57AC" d="M0,12.1L0,12.1c0-0.1-0.1-0.3-0.4-0.4l0,0
						c-0.2,0-0.3,0.1-0.3,0.1s0,0-0.1-0.2c0-0.2-0.1-0.2-0.1-0.2s0,0.3,0,0.4c0.1,0.2,0.3,0.2,0.3,0.2h0l0-0.1
						c0-0.1,0.1-0.2,0.2-0.2c0.1,0,0.2,0.1,0.2,0.2l0,0.1L0,12.1L0,12.1L0,12.1z M-1,10.5c-0.2-0.2-0.2-0.5-0.2-0.7
						c-0.1-0.2-0.3-0.3-0.5-0.3c-0.2,0-0.4,0.2-0.4,0.4c0,0.2,0.4,0.6,0.1,0.9c-0.2,0.3-0.2,0.4-0.2,0.4S-2.1,11-2,11
						c0,0,0.5-0.2,0.5,0.1l-0.1,0.2l-0.1,0.1l0,0.2c0,0,0.1-0.1,0.3-0.2c0.2,0,0.4,0.1,0.4,0.1s0-0.1-0.1-0.2c-0.1,0-0.2,0-0.2-0.1
						c-0.1-0.4,0.5-0.3,0.6-0.3c0.1,0,0.2,0,0.2,0C-0.6,10.6-0.8,10.6-1,10.5 M-2.3,12.5L-2.3,12.5L-2.3,12.5L-2.3,12.5l0.3-0.1
						L-2,12.4c0-0.1,0-0.2,0.1-0.2l0.2,0.1l0,0.1h0c0,0,0.2-0.1,0.2-0.3c0-0.2-0.1-0.4-0.1-0.4s-0.1,0,0,0.2c0.1,0.2,0,0.2,0,0.2
						s-0.2,0-0.4,0l0,0C-2.2,12.2-2.3,12.5-2.3,12.5 M1,12.2c0.1,0.6-0.3,0.5-0.3,0.5s0.2,0.1,0.2,0.3c0.1,0.3-0.1,0.8-0.1,0.8
						s-0.2-0.4-0.5-0.1c0,0,0.1,0.1,0.1,0.5c0-0.1-0.8-0.7-1,0.4C-1,14.4-1,14-1.2,14c-0.1,0-0.3,0.1-0.2,0.4c0,0-0.4,0-0.5-0.4
						c-0.1-0.5-0.3,0.2-0.7,0.1c0,0-0.3-0.3-0.2-0.8c-0.3,0-0.4-0.3-0.5-0.6c-0.1-1.1-0.4-0.7-0.4-0.8c0.1-0.7,0.5-0.3,0.5-0.3
						c-0.1-0.5-0.5-0.2-0.5-0.2c0.1-0.7,0.4-0.5,0.4-0.5c-0.1-0.6,0.1-0.8,0.2-0.9c0.1-0.1,0.2-0.2,0.1-0.5c0-0.2,0-0.3,0-0.3
						s0.2,0.2,0.3,0c0.2-0.2,0.3-0.8,0.8-0.8c0,0-0.1,0.3,0,0.3l0.1-0.2c0.1,0,0.5-0.1,0.7,0.2c0.1,0.1,0.1,0.4,0.3,0.3
						c0.1,0,0.1-0.2,0.1-0.2C-0.6,9-0.6,9-0.5,9.2c0,0.2,0.2,0,0.2,0c0,0.2,0.1,0.3,0.3,0.5c0.2,0.1,0.2,0.5,0.3,0.6
						C0.3,10.4,0.4,10,0.4,10s0.5,0.4,0.3,1c-0.1,0.3-0.2,0.5-0.1,0.5c0.1,0,0.1-0.2,0.3-0.4c0.1-0.1,0.3,0,0.3,0
						C1,11.4,1,11.9,1,12.2"/>
				</g>
				<g id="g3529" transform="translate(57.820206,35.971497)">
					<path id="path3531" inkscape:connector-curvature="0" fill="#EA1F29" d="M0,12.1c0.5-0.1,0.5,0.4,0.5,0.4
						c0,0.5,0.4,0.5,0.4,0.6c-0.2,0-0.5,0-0.6,0.2c-0.1-0.1-0.3-0.1-0.5,0l0.1-0.2c0-0.1,0-0.3,0-0.4C-0.1,12.6-0.4,12.2,0,12.1"/>
				</g>
				<g id="g3533" transform="translate(69.979095,44.108704)">
					<path id="path3535" inkscape:connector-curvature="0" fill="#2B57AC" d="M0,12.1c-3.7,0.1-4.7,1.2-4.7,1.2s-0.4-0.7,1.3-1.4
						c0,0-0.6,0.1-0.9,0.1c-0.4,0-0.8-0.1-0.8-0.1s-0.4,0.4-0.7,0.5c-0.1,0-0.3,0.1-0.4,0l0.1-0.1l0.1-0.1l-0.2-0.2l-0.1,0.1l0,0
						c-0.1-0.2,0.1-0.3,0.2-0.4c-0.4-0.1-0.6-0.2-0.6-0.4l0.1,0l0.1,0l0-0.2l-0.2,0l0,0c0.1-0.2,0.3-0.2,0.6-0.1C-6,11-6,11-6,11
						s-0.2-0.3-0.1-0.5l0.1,0.1l0.1,0l0.1-0.2l-0.1-0.1l0,0l0.1,0c0.2-0.1,0.4,0.1,0.6,0.3c0.3,0.4,0.6,0.3,0.6,0.3
						c-0.2-0.2,0-0.5,0-0.5s0.2,0.4,0.5,0.3c-0.1-0.3,0.2-0.4,0.2-0.4s0.2,0.4,0.4,0.4c0.3,0,0.1-0.4,0.1-0.4s0.1,0,0.4,0.2
						c0.1,0.1,0.3,0.3,0.6,0.3c0,0,0-0.3,0.3-0.5c0,1,1.4,1.1,1.6,1.2C0.1,11.6,0,12.1,0,12.1"/>
				</g>
				<g id="g3537" transform="translate(63.812103,44.048996)">
					<path id="path3539" inkscape:connector-curvature="0" fill="#EA1F29" d="M0,12.1l0.2,0.2l-0.1,0.1L0,12.5l-0.1,0
						c-0.3,0-0.4-0.1-0.5-0.2c0,0,0.2,0.1,0.4,0l0,0L0,12.1"/>
				</g>
				<g id="g3541" transform="translate(63.461502,43.113098)">
					<path id="path3543" inkscape:connector-curvature="0" fill="#EA1F29" d="M0,12.1l0,0.2l-0.1,0l-0.1,0l-0.1,0
						c-0.2-0.2-0.2-0.4-0.2-0.5c0,0,0.1,0.2,0.3,0.2l0,0L0,12.1"/>
				</g>
				<g id="g3545" transform="translate(64.175003,42.395401)">
					<path id="path3547" inkscape:connector-curvature="0" fill="#EA1F29" d="M0,12.1l-0.1,0.2l-0.1,0l-0.1-0.1l0-0.1
						c-0.1-0.3,0-0.4,0.1-0.5c0,0,0,0.2,0.1,0.4l0,0L0,12.1"/>
				</g>
				<g id="g3549" transform="translate(57.059006,45.380402)">
					<path id="path3551" inkscape:connector-curvature="0" fill="#EA1F29" d="M0,12.1c0.5-0.2,0.6,0.4,0.6,0.5
						c0.1,0.6,0.5,0.6,0.5,0.6c-0.2,0-0.5,0-0.6,0.2c-0.1-0.1-0.3-0.1-0.6,0L0,13.3c0-0.1,0-0.3-0.1-0.4C-0.1,12.7-0.5,12.3,0,12.1"
						/>
				</g>
				<g id="g3553" transform="translate(59.2995,48.066193)">
					<path id="path3555" inkscape:connector-curvature="0" fill="#2B57AC" d="M0,12.1L0,12.1c0-0.1-0.2-0.4-0.5-0.4l0,0
						c-0.2,0-0.4,0.2-0.4,0.2s0,0-0.1-0.2c0-0.2-0.2-0.2-0.2-0.2s0,0.3,0.1,0.5c0.1,0.3,0.4,0.2,0.4,0.2h0l0-0.1
						c0-0.1,0.1-0.2,0.2-0.2c0.1,0,0.2,0.1,0.2,0.2l0,0.1L0,12.1L0,12.1L0,12.1z M-1.3,10.3c-0.3-0.2-0.2-0.5-0.3-0.7
						c-0.1-0.3-0.3-0.4-0.6-0.3c-0.2,0.1-0.4,0.2-0.4,0.5c0,0.3,0.5,0.6,0.2,1c-0.2,0.3-0.2,0.4-0.2,0.4s0.1-0.1,0.2-0.2
						c0.1,0,0.5-0.3,0.6,0.1c0,0.1,0,0.1-0.1,0.2L-2,11.3l0,0.2c0,0,0.1-0.2,0.3-0.2c0.2-0.1,0.4,0,0.4,0s0-0.2-0.1-0.2
						c-0.1,0-0.3,0-0.3-0.1c-0.1-0.4,0.5-0.4,0.7-0.4c0.2,0,0.2,0,0.2,0C-0.8,10.5-1,10.5-1.3,10.3 M-2.5,12.8L-2.5,12.8L-2.5,12.8
						L-2.5,12.8l0.4-0.1l-0.1-0.1c-0.1-0.1,0-0.2,0.1-0.3c0.1-0.1,0.2,0,0.3,0.1l0,0.1l0,0c0,0,0.2-0.1,0.2-0.4
						c0-0.2-0.2-0.5-0.2-0.5s-0.1,0.1,0,0.2c0.1,0.2,0.1,0.2,0.1,0.2s-0.2,0-0.4,0.1l0,0C-2.6,12.4-2.5,12.8-2.5,12.8 M1.2,12.8
						c0.2,0.4,0,1.1,0,1.1s-0.3-0.5-0.6-0.2c-0.2,0.2,0,0.6,0,0.6c-0.3,0.1-0.5-0.3-0.9-0.1c-0.3,0.1,0,0.6,0,0.6s-0.3,0-0.6-0.1
						c-0.3-0.1-0.4-0.2-0.6-0.2c-0.2,0-0.2,0.4-0.2,0.4s-0.3,0-0.5-0.3c-0.2-0.3-0.4-0.4-0.4-0.4c-0.1,0.1-0.3,0.1-0.4,0.2
						c-0.1,0-0.3,0.1-0.3,0.1s-0.3-0.5-0.1-1c-0.2-0.1-0.3-0.3-0.3-0.4c-0.2-0.9-0.6-0.5-0.6-0.5c0.1-0.8,0.5-0.7,0.5-0.9
						c-0.1-0.2-0.5,0.1-0.5,0.1c0-0.5,0.3-0.6,0.4-0.9c0.1-0.3-0.1-0.5,0.1-0.9c0.1-0.4,0-0.6,0-0.6c0.3,0,0.5,0.2,0.5,0.2
						C-3.2,9-2.9,8.7-2.9,8.7S-2.8,9-2.7,8.8C-2.5,8.2-2.2,8-2.2,8s0.3,0,0.8,0.5c0.3,0.4,0.2-0.1,0.2-0.1s0.2,0,0.7,0.9
						c0.2,0.3,0.4,0.5,0.5,0c0.6,0.6,0.4,1.3,0.4,1.5c0,0.2,0.1,0.2,0.1,0.1c0.1-0.6,0.7-0.4,0.7-0.4s-0.2,0.2,0,1.1
						c0.1,0.4-0.1,0.9-0.1,0.9L1.2,12.8"/>
				</g>
				<g id="g3557" transform="translate(74.374695,44.516098)">
					<path id="path3559" inkscape:connector-curvature="0" fill="#2B57AC" d="M0,12.1c0,0,0,0.5-0.4,0.7c-0.5,0.2-1.2-0.1-2.4,0.1
						c-3.1,0.3-2.7,1.4-2.7,1.4s2-0.9,2.8-0.5c0.5,0.2,0.4,0.6,0.4,0.6c0.1-0.2,0-0.5,0-0.5s0.8,0.6-0.2,1.5c-0.3,0.3-1,0.6-1.5,0.6
						c-1.4,0.2-1.9,0.1-2.9,0.2c-0.8,0.1-1,0.4-1,0.6c0.1,0.7,1.6-0.3,2.5,0.1c0.2,0.1,0.4,0.3,0.6,0.3c0.2,0,0.4,0,0.4,0
						s-0.2,0.4-0.8,0.2c-0.5-0.1-0.6,0.1-0.6,0.1s0.2,0,0.6,0.2c0.2,0.1,0.3,0.4,0.5,0.5c0.3,0.1,0.6,0,0.6,0s-0.4,0.6-1.1,0.3
						c-0.5-0.3-0.6-0.1-0.6-0.1l0.6,0.4c0.2,0.4,0.4,0.4,0.4,0.4s-0.4,0.2-0.7-0.1C-5.7,19-6,18.9-6.4,19c-0.6,0-0.9-0.7-0.9-0.7
						s-0.2,0-0.5-0.1C-8,18-8.2,17.8-8.2,17.8l0.1,0.2c0,0-0.5-0.2-0.5-0.9c0-1.2,1.3-1.3,1.7-1.3c0.6,0,1.8-0.1,2.7-0.2
						c1.2-0.2,1.3-0.7,1.1-1c-0.2-0.3-0.7-0.1-1.6,0.2c-0.9,0.3-1.6,0.8-3.3,0.7c-2.8-0.1-5.7-2-6.5-1.5c0-0.3,0-1-0.8-1.6
						c0,0.5-0.2,0.4-0.3,0.1c-0.5-0.8-0.9-0.9-0.9-0.9s0.1,0.3-0.2,0c-0.3-0.3-0.7-0.3-0.7-0.3s-0.4,0.3-0.5,0.8l-0.1-0.2
						c-0.4,0.2-0.5,0.8-0.5,0.8s-0.2-0.1-0.6,0c0,0,0.2,0.2,0,0.9c-0.5,0-2.5,0.3-2.7,1.4c-0.1,0.4-0.2,0.6-0.4,0.6l0.1-0.1l0-0.1
						l-0.2-0.1l-0.1,0.1l0,0.1c-0.2-0.2-0.1-0.5-0.1-0.5c-0.2,0.2-0.7,0.5-1,0.3l0.1-0.1l0.1-0.1c0-0.1-0.1-0.2-0.2-0.2l-0.2,0.1
						l-0.1,0.1c-0.2-0.4,0.5-0.8,0.5-0.8c-0.3,0-0.7-0.2-0.7-0.5l0.1,0l0.1,0l0-0.2l-0.2-0.1l0,0c0.1-0.2,0.2-0.3,0.6-0.2
						c0.9,0.3,1.5,0.1,1.5,0.1s0-0.3-0.4-0.2c0,0,0.2-0.2,0.5-0.2c0.5,0,0.8,0.2,0.8,0.2c0,0,0-0.1-0.1-0.2
						c-0.3-0.2-0.1-0.5-0.1-0.5c0.2,0.4,0.5,0.2,0.5,0.2c-0.1-0.1-0.1-0.3,0.1-0.4c0,0,0,0.2,0.3,0.3c0.2,0.1,0.4,0,0.4,0
						s-0.2-0.3,0-0.6c0,0,0.1,0.4,0.4,0.3c0.1-0.1,0.1-0.2,0.1-0.2l-0.2-0.1c0.5-0.2,0.6,0.1,1-0.2c-0.5-0.2-1.1-0.3-1.6-0.2
						c-1.1,0.1-1.4,0.3-1.6,0.6c-0.4,0.3-0.7,0.4-0.8,0.3l0.1,0l0.1-0.1c0-0.1-0.1-0.2-0.2-0.2l-0.2,0.1l0,0
						c-0.1-0.2,0.1-0.3,0.1-0.4l-0.2,0c-0.2,0.1-0.4,0-0.5-0.2l0.2,0l0.1-0.1l-0.1-0.2l-0.2,0l-0.1,0c0.1-0.3,0.4-0.3,0.7-0.4
						c-0.1-0.1-0.3-0.2-0.2-0.4l0.1,0.1l0.1,0l0.1-0.2l-0.1-0.1l0,0c0.2-0.2,0.8,0.1,0.9,0.2c0.4,0.2,0.8,0.2,1,0.1
						c0.4-0.2-0.1-0.4-0.1-0.4c0.1-0.1,0.3-0.1,0.5,0c0.1,0.1,0.2,0.1,0.3,0.1c0-0.1,0-0.1-0.1-0.2l-0.2-0.1c0.5-0.2,1,0.3,1,0.3
						s0-0.1,0-0.2C-19.8,9.7-20,9.6-20,9.6c0.5-0.2,0.8,0.5,0.8,0.5s0.3-0.2-0.1-0.5c0.4,0,0.5,0.4,0.7,0.2c0.1-0.1,0.1-0.3-0.1-0.3
						c0.5-0.2,0.5,0.3,1.1,0.2c0.9-0.2,1.9-0.3,3.4,0.3c2.4,0.9,2.6,3,5.2,3.3c0,0,0.2-0.5,2-0.9c1.9-0.5,4.7-0.1,4.6-1
						c-0.1-0.5-1.3,0.2-1.5-0.3l0,0l0.1,0l0.1-0.1l-0.1-0.2l-0.2,0l0,0c0.1-0.1,0.2-0.2,0.3-0.2c-0.2-0.1-0.2-0.1-0.3-0.3l0-0.1
						l0.1,0.1l0.1,0l0.1-0.2L-3.7,10l0,0c0.1-0.1,0.2-0.1,0.4-0.1c0.1,0,0.2,0.1,0.2,0.1c0-0.1-0.1-0.2-0.1-0.4l0.1-0.1l0.1,0.1
						L-3,9.7l0.2-0.1l-0.1-0.2l0,0c0.3,0,0.6,0.4,0.7,0.8c0.1,0.5,0.2,0.4,0.2,0.4l0.1-0.2l0.2-0.1c0,0.3,0.2,0.4,0.3,0.3
						c0.1-0.1,0-0.3,0-0.3s0.2-0.1,0.4,0.3c0.1,0.2,0.1,0.4,0.2,0.4c0.2,0,0.1-0.2,0.1-0.2c0.4,0.2,0.2,0.9,0.3,1
						c0.1,0,0.1-0.2,0.1-0.2S0,11.8,0,12.1C-0.2,12.5,0,12.1,0,12.1"/>
				</g>
				<g id="g3561" transform="translate(50.623795,45.847198)">
					<path id="path3563" inkscape:connector-curvature="0" fill="#EA1F29" d="M0,12.1l0,0.2l-0.1,0l-0.1,0l-0.1-0.1
						c-0.2-0.2-0.2-0.4-0.2-0.5c0,0,0.1,0.2,0.3,0.3l0,0L0,12.1"/>
				</g>
				<g id="g3565" transform="translate(50.759399,47.220093)">
					<path id="path3567" inkscape:connector-curvature="0" fill="#EA1F29" d="M0,12.1c0.1,0,0.2,0.1,0.2,0.2l-0.1,0.1L0,12.5l-0.1,0
						c-0.3,0.1-0.5-0.1-0.5-0.2c0,0,0.2,0.1,0.4,0l0.1-0.1L0,12.1"/>
				</g>
				<g id="g3569" transform="translate(51.994705,47.585602)">
					<path id="path3571" inkscape:connector-curvature="0" fill="#EA1F29" d="M0,12.1l0.2,0.1l0,0.1l-0.1,0.1L0,12.5
						c-0.3,0.1-0.4,0-0.6,0c0,0,0.2,0,0.4-0.2l0-0.1L0,12.1"/>
				</g>
				<g id="g3573" transform="translate(51.5867,42.671905)">
					<path id="path3575" inkscape:connector-curvature="0" fill="#EA1F29" d="M0,12.1l-0.1,0.2l-0.1,0l-0.1-0.1l-0.1-0.1
						c-0.2-0.2-0.1-0.4,0-0.5c0,0,0,0.2,0.2,0.3l0,0L0,12.1"/>
				</g>
				<g id="g3577" transform="translate(51.627304,44.330597)">
					<path id="path3579" inkscape:connector-curvature="0" fill="#EA1F29" d="M0,12.1c0.1,0,0.2,0.1,0.2,0.2l-0.1,0.1l-0.1,0
						l-0.2,0.1c-0.3,0.1-0.5-0.1-0.5-0.2c0,0,0.2,0.1,0.4-0.1l0,0L0,12.1"/>
				</g>
				<g id="g3581" transform="translate(51.063507,43.529999)">
					<path id="path3583" inkscape:connector-curvature="0" fill="#EA1F29" d="M0,12.1c0.1,0,0.1,0.1,0.1,0.2L0,12.5l-0.2,0l-0.1,0
						c-0.3-0.1-0.4-0.3-0.4-0.4c0,0,0.2,0.2,0.4,0.1l0.1,0L0,12.1"/>
				</g>
				<g id="g3585" transform="translate(70.673096,43.206802)">
					<path id="path3587" inkscape:connector-curvature="0" fill="#EA1F29" d="M0,12.1l0.1,0.2l-0.1,0.1l-0.1,0l-0.1,0
						c-0.3-0.1-0.3-0.3-0.3-0.4c0,0,0.1,0.2,0.4,0.2l0,0L0,12.1"/>
				</g>
				<g id="g3589" transform="translate(70.778198,42.459595)">
					<path id="path3591" inkscape:connector-curvature="0" fill="#EA1F29" d="M0,12.1l-0.1,0.2l-0.1,0l-0.1-0.1l-0.1-0.1
						c-0.2-0.2-0.1-0.4,0-0.5c0,0,0,0.2,0.3,0.3l0,0L0,12.1"/>
				</g>
				<g id="g3593" transform="translate(71.527603,41.973694)">
					<path id="path3595" inkscape:connector-curvature="0" fill="#EA1F29" d="M0,12.1l-0.2,0.1l-0.1-0.1L-0.3,12l0-0.1
						c0-0.3,0.2-0.4,0.3-0.4c0,0-0.1,0.2,0,0.4l0,0L0,12.1"/>
				</g>
				<g id="g3597" transform="translate(50.654007,56.766602)">
					<path id="path3599" inkscape:connector-curvature="0" fill="#EA1F29" d="M0,12.1c0.1,0,0.2,0,0.2,0.1l0,0.1l0,0.1L0,12.6
						c-0.3,0.1-0.5,0-0.6-0.1c0,0,0.3,0,0.5-0.2l0,0L0,12.1"/>
				</g>
				<g id="g3601" transform="translate(69.760193,53.281296)">
					<path id="path3603" inkscape:connector-curvature="0" fill="#2B57AC" d="M0,12.1c-3.2,0.1-4.3,1.3-4.3,1.3s-0.5-0.8,0.8-1.4
						c0,0-0.2,0.1-0.6,0.1c-0.4,0-0.5,0-0.5,0s-0.3,0.4-0.8,0.5c-0.1,0-0.3,0-0.4,0l0,0l0-0.1l-0.2-0.1L-6,12.5l-0.1,0.1l0,0
						c-0.1-0.1-0.1-0.2,0-0.4c-0.5-0.1-0.6-0.2-0.6-0.4l0.2,0l0.1-0.1l-0.1-0.2h-0.2l-0.1,0c0-0.2,0.3-0.4,0.8-0.2
						c0.1,0-0.3-0.1-0.1-0.5l0,0.1l0.1,0.1l0.2-0.1l-0.1-0.2l0-0.1l0,0c0.4-0.2,0.8,0.3,0.9,0.5c0,0,0-0.3,0.2-0.4
						c0,0,0,0.1,0.1,0.2c0.2,0.2,0.2,0,0.2,0c0-0.3,0.2-0.4,0.2-0.4s0,0.4,0.3,0.5c0.1-0.4,0.6,0.2,0.5,0c-0.1-0.4,0.1-0.6,0.1-0.6
						s0,0.5,1.1,0.6c0,0,0-0.3,0.3-0.5c0.1,1,1.5,1,1.7,1C0.2,11.5,0,12.1,0,12.1"/>
				</g>
				<g id="g3605" transform="translate(63.858093,53.555496)">
					<path id="path3607" inkscape:connector-curvature="0" fill="#EA1F29" d="M0,12.1l0.2,0.1l0,0.1l0,0l-0.2,0.1
						c-0.3,0.1-0.4-0.1-0.5-0.2c0,0,0.2,0.1,0.4-0.1l0.1,0L0,12.1"/>
				</g>
				<g id="g3609" transform="translate(63.046707,52.619507)">
					<path id="path3611" inkscape:connector-curvature="0" fill="#EA1F29" d="M0,12.1h0.2l0.1,0.2l-0.1,0.1l-0.2,0
						c-0.3-0.1-0.3-0.3-0.3-0.4c0,0,0.1,0.1,0.3,0.1L0,12.1"/>
				</g>
				<g id="g3613" transform="translate(63.940308,51.878799)">
					<path id="path3615" inkscape:connector-curvature="0" fill="#EA1F29" d="M0,12.1l-0.2,0.1l-0.1-0.1l0-0.1l0-0.1
						c0-0.3,0.2-0.4,0.3-0.4c0,0-0.1,0.1,0,0.3l0,0.1L0,12.1"/>
				</g>
				<g id="g3617" transform="translate(59.151398,57.290497)">
					<path id="path3619" inkscape:connector-curvature="0" fill="#2B57AC" d="M0,12.1L0,12.1c0-0.1-0.2-0.4-0.5-0.4l0,0
						c-0.2,0-0.4,0.1-0.4,0.1s0,0-0.1-0.2c0-0.2-0.2-0.2-0.2-0.2s0,0.3,0.1,0.5c0.1,0.3,0.3,0.2,0.3,0.2h0l0-0.1
						c0-0.1,0.1-0.2,0.2-0.2c0.1,0,0.2,0.1,0.2,0.2l0,0.1L0,12.1L0,12.1L0,12.1z M-1.2,10.3c-0.3-0.2-0.2-0.5-0.3-0.7
						c-0.1-0.3-0.3-0.4-0.6-0.3c-0.2,0.1-0.4,0.2-0.4,0.5c0,0.3,0.5,0.6,0.2,1c-0.2,0.3-0.2,0.5-0.2,0.5s0.1-0.1,0.2-0.2
						c0.1,0,0.5-0.3,0.6,0.1c0,0.1,0,0.1-0.1,0.2l-0.1,0.1l0,0.2c0,0,0.1-0.2,0.3-0.2c0.2-0.1,0.4,0,0.4,0s0-0.2-0.1-0.2
						c-0.1,0-0.3,0-0.3-0.1c-0.1-0.4,0.5-0.4,0.7-0.3c0.1,0,0.2,0,0.2,0C-0.8,10.5-1,10.5-1.2,10.3 M-2.5,12.8L-2.5,12.8L-2.5,12.8
						L-2.5,12.8l0.4-0.1l-0.1-0.1c-0.1-0.1,0-0.2,0.1-0.3c0.1-0.1,0.2,0,0.3,0.1l0,0.1h0c0,0,0.2-0.1,0.2-0.4c0-0.2-0.2-0.5-0.2-0.5
						s-0.1,0.1,0,0.2c0.1,0.2,0,0.2,0,0.2s-0.2,0-0.4,0.1l0,0C-2.5,12.4-2.5,12.7-2.5,12.8 M1.1,12.2c0.1,0.5-0.3,0.5-0.3,0.5
						s0.2,0.1,0.2,0.3C1.2,13.5,1,14,1,14s-0.1-0.4-0.6-0.2c0,0,0.2,0.3,0,0.7c0-0.1-0.1-0.2-0.2-0.3c-0.2-0.1-0.5-0.1-0.6,0.1
						c-0.1,0.1,0,0.3,0.2,0.5c-0.1,0-0.3,0.1-0.6,0c-0.3-0.1-0.7-0.3-0.7-0.3s-0.3,0.2-0.1,0.5c0,0-0.4,0-0.6-0.4
						c-0.1-0.2-0.2-0.2-0.2-0.2s0,0.3-0.3,0.4c0,0-0.6-0.4-0.6-1.1c-0.2-0.1-0.3-0.3-0.3-0.4c-0.3-1.5-0.6-0.8-0.6-0.8
						c0.1-0.8,0.6-0.7,0.6-0.7c-0.1-0.5-0.6-0.2-0.6-0.2c0.2-0.8,0.7-0.5,0.7-0.5c-0.3-0.6-0.1-1,0.1-1.4c0.2-0.4,0.2-0.7,0.2-0.7
						S-3.1,8.9-3,8.9c0.2,0,0.1-0.2,0.1-0.4C-2.9,8.1-2.7,8-2.7,8l0.1,0.1c0.1,0.1,0.1,0.1,0.1,0.1s0-0.4,0.2-0.6
						c0,0,0.4,0.5,0.6,0.5c0.1,0,0.2-0.4,0.2-0.4c1.1,0.7,1.2,2.2,1.4,1.6C0,9.3,0,9.2,0,9.2s0.7,0.4,0.6,1.9c0,0,0.1-0.1,0.3-0.2
						c0.2-0.1,0.3,0,0.3,0S0.9,11.3,1.1,12.2"/>
				</g>
				<g id="g3621" transform="translate(56.953903,54.567306)">
					<path id="path3623" inkscape:connector-curvature="0" fill="#EA1F29" d="M0,12.1c0.5-0.2,0.6,0.4,0.6,0.5
						c0.1,0.6,0.5,0.6,0.5,0.6c-0.2,0-0.5,0-0.6,0.2c-0.1-0.1-0.3-0.1-0.6,0L0,13.3c0-0.1,0-0.3-0.1-0.4C-0.1,12.7-0.5,12.3,0,12.1"
						/>
				</g>
				<g id="g3625" transform="translate(50.603897,55.364197)">
					<path id="path3627" inkscape:connector-curvature="0" fill="#EA1F29" d="M0,12.1l0,0.2l-0.1,0l-0.2-0.1l0,0
						c-0.2-0.2-0.2-0.4-0.2-0.5c0,0,0.1,0.2,0.3,0.3l0.1,0L0,12.1"/>
				</g>
				<g id="g3629" transform="translate(51.966904,57.182999)">
					<path id="path3631" inkscape:connector-curvature="0" fill="#EA1F29" d="M0,12.1l0.2,0.1l0,0.1l0,0l-0.1,0.2
						c-0.2,0.2-0.4,0.1-0.6,0.1c0,0,0.2,0,0.3-0.3l0,0L0,12.1"/>
				</g>
				<g id="g3633" transform="translate(51.588501,53.925797)">
					<path id="path3635" inkscape:connector-curvature="0" fill="#EA1F29" d="M0,12.1l0.2,0.1l0,0.1l-0.1,0.1l-0.1,0.1
						c-0.2,0.2-0.4,0.1-0.6,0.1c0,0,0.3,0,0.4-0.3l0,0L0,12.1"/>
				</g>
				<g id="g3637" transform="translate(50.868698,53.061203)">
					<path id="path3639" inkscape:connector-curvature="0" fill="#EA1F29" d="M0,12.1c0.1,0,0.1,0.1,0.1,0.2L0,12.5l-0.2,0l0,0
						c-0.3-0.1-0.4-0.3-0.4-0.4c0,0,0.2,0.1,0.4,0.1l0.1,0L0,12.1"/>
				</g>
				<g id="g3641" transform="translate(51.583694,52.2957)">
					<path id="path3643" inkscape:connector-curvature="0" fill="#EA1F29" d="M0,12.1l-0.1,0l-0.2-0.1l-0.1,0
						c-0.2-0.2-0.2-0.4-0.1-0.6c0,0,0.1,0.3,0.4,0.3l0,0L0,11.9L0,12.1"/>
				</g>
				<g id="g3645" transform="translate(73.861298,54.399796)">
					<path id="path3647" inkscape:connector-curvature="0" fill="#2B57AC" d="M0,12.1c-0.2,0.1-0.6,0.1-1,0c-0.3,0-0.7-0.1-1.1,0
						c-2.6,0.3-2.8,1.2-2.7,1.2c0,0,0.6-0.3,1.4-0.5c2.3-0.5,2.4,0.8,2.4,0.8S-1,13.6-1,13.4c0-0.2-0.1-0.4-0.1-0.4s0.3,0.2,0.3,0.5
						c0,0.5-0.3,0.7-0.3,0.7s0.1,0,0.2-0.1c0.1-0.1,0.2-0.3,0.2-0.3s0.1,0.4-0.3,0.8c-1.3,1-4,0.8-5,1c-0.9,0.1-1.2,0.5-1.1,0.9
						c0.1,0.6,1,0.7,1,0.7c0-0.7,0.8-1.1,1.6-1c0.5,0.1,0.7,0.3,1.1,0.5C-3.2,16.9-3,17-3,17c-0.4,0.1-0.7-0.1-0.9-0.2
						c-0.2-0.1-0.4-0.1-0.6-0.1C-5,16.6-5,17-5,17s0.4-0.2,0.9-0.1c1.4,0.3,1,1.7,1,1.7s-0.1-0.5-0.6-0.7C-4.2,17.7-4.5,18-4.5,18
						s0.7-0.1,0.8,0.5c0.1,0.3-0.2,0.5-0.2,0.5s0.1-0.7-1.6-0.6c-0.7,0-0.7-0.6-0.7-0.6s-0.1,0-0.4-0.1c-0.3-0.1-0.4-0.2-0.4-0.2
						c0.1,0.2,0.4,0.3,0.4,0.3c-0.4,0-0.7-0.3-0.7-0.3l0.1,0.2c0,0-0.4-0.4-0.5-1.1c0-0.4,0.1-0.7,0.3-1C-7.2,15.1-6.4,15-6,15
						c0.7-0.1,1.8-0.1,2.8-0.2c1.3-0.2,1.4-0.6,1.2-0.9c-0.2-0.3-0.8-0.3-1.7,0c-0.9,0.3-2.8,1-4.1,1c-3.5,0-5.1-1.5-6.2-1.2
						c0-1.4-0.9-1.9-0.9-1.9c-0.1,0.7,0-0.6-1.5-1.3c0,0,0,0.3-0.2,0.4c-0.2,0-0.5-0.5-0.5-0.5c-0.3,0.2-0.4,0.5-0.4,0.5l-0.1-0.2
						c0,0-0.2,0.1-0.3,0.4c-0.1,0.3,0,0.5-0.1,0.5c-0.1,0-0.4-0.2-0.4-0.2s0,0.4-0.2,0.9c-0.1,0.3-0.3,0.6-0.3,0.9
						c-1.1,0.2-2.5,0.7-2.5,1.1c0,0.4,0,0.8-0.4,1l0,0l0-0.1l-0.2-0.1l-0.1,0.2l0,0c-0.3-0.2-0.2-0.6-0.2-0.6
						c-0.2,0.2-0.6,0.6-0.9,0.4l0-0.1l0-0.1c0-0.1-0.1-0.2-0.2-0.1l-0.1,0.1c-0.3-0.4,0.3-0.9,0.3-0.9c-0.1,0-0.5-0.1-0.5-0.5
						l0.2,0.1l0.1,0l0-0.2l-0.2-0.1l-0.1,0c0.2-0.2,0.4-0.2,0.6-0.2c0.7,0.3,0.9,0.1,1.2,0.1c0.2,0,0.4,0,0.4-0.1
						c0-0.1-0.1-0.2-0.4-0.1c0,0,0.1-0.2,0.5-0.3c0.6-0.1,0.7,0.1,0.8,0c0.1-0.2-0.4-0.2-0.4-0.2c0.4-0.3,1-0.1,1-0.1
						c0-0.2-0.4-0.2-0.4-0.2s0.2-0.2,0.5-0.1c0.1,0,0.2,0.1,0.2,0.1s-0.1-0.3,0.2-0.5c0,0,0.2,0.6,0.4,0.4c0.1-0.1,0.1-0.2,0.1-0.2
						c-0.1-0.1-0.2-0.1-0.2-0.1c0.1-0.2,0.4-0.2,0.4-0.2S-19,11-20,11c-1.3,0.1-1.2,0.3-1.6,0.6C-21.8,12-22,12-22.1,12l0.1-0.1
						l0-0.1l-0.2-0.1l-0.1,0.1c-0.2-0.2-0.1-0.3-0.1-0.4c-0.1,0-0.7,0.1-0.8-0.2l0.2,0l0.1-0.1c0-0.1,0-0.2-0.1-0.2l-0.2,0l-0.1,0
						l0,0c0-0.4,0.6-0.4,0.9-0.4c-0.1-0.1-0.3-0.2-0.2-0.4l0.2,0.1l0.1,0l0-0.3l-0.2-0.1c0.4-0.3,0.7,0.1,0.9,0.2
						c0.4,0.2,1.1,0.2,1.3,0c0.1-0.1-0.1-0.3-0.1-0.3c0.3,0,0.5,0.1,0.5,0.1S-20,9.7-20,9.6c0-0.2,0.1-0.3,0.1-0.3
						c0.3,0.5,0.4,0.5,0.5,0.4c0.1-0.1-0.1-0.3-0.1-0.3c0.3-0.1,0.7,0.2,0.7,0.2s0-0.2,0.1-0.4c0.2,0.3,0.6,0.3,0.9,0.3
						c0,0-0.4-0.3-0.2-0.6c0.2,0.2,0.6,0.3,1,0.3c0.9-0.1,2.5-0.6,5.4,2c1.9,1.8,3.2,1.6,3.2,1.6c1.7-1.4,5-1.4,5.8-1.5
						c0.4,0,0.4-0.3,0.2-0.5c-0.1-0.1-0.3-0.2-0.3-0.2c0,0-0.8,0.3-1.1-0.1l0.2,0l0.1-0.1l-0.1-0.2l-0.2,0l-0.1,0
						c0-0.1,0.2-0.2,0.2-0.2l0,0c-0.2-0.2-0.2-0.3-0.2-0.4l0.1,0.1l0.1,0l0-0.2l-0.1-0.1l0,0C-3.5,9.1-3.4,9-3.2,9.1
						C-3,9.2-2.9,9.2-2.9,9.2c0,0-0.1-0.2,0-0.3l0,0l0.1,0.2l0.1,0L-2.5,9l-0.1-0.1l0,0h0.2C-2.2,8.8-2,9.1-2,9.6
						c0,0.2,0.1,0.3,0.1,0.3c0.1,0.1,0.3,0.2,0.3,0.2s0.1-0.2-0.1-0.4c0.5-0.1,0.6,0.7,0.6,0.7s0.1-0.2,0.2-0.3
						c0.1-0.1,0.3-0.1,0.3-0.1c-0.1,0.6,0.1,0.7,0.2,0.8c0.2,0.1,0.2-0.2,0.2-0.2S0,10.7-0.1,11c0,0.1-0.1,0.3-0.1,0.3
						s0.2,0.1,0.3-0.2c0,0,0.2,0.3,0,0.5l0.1,0l0.1-0.1C0.3,11.5,0.4,11.9,0,12.1"/>
				</g>
				<g id="g3649" transform="translate(70.2742,52.391006)">
					<path id="path3651" inkscape:connector-curvature="0" fill="#EA1F29" d="M0,12.1l0.1,0.2L0,12.4l-0.2,0l-0.1,0
						c-0.3-0.1-0.3-0.3-0.3-0.4c0,0,0.1,0.2,0.3,0.1l0.1,0L0,12.1"/>
				</g>
				<g id="g3653" transform="translate(70.420502,51.595993)">
					<path id="path3655" inkscape:connector-curvature="0" fill="#EA1F29" d="M0,12.1l0,0.2l-0.1,0l-0.1-0.1l-0.1-0.1
						c-0.2-0.2-0.1-0.4-0.1-0.5c0,0,0,0.2,0.2,0.3l0,0L0,12.1"/>
				</g>
				<g id="g3657" transform="translate(71.320404,51.256393)">
					<path id="path3659" inkscape:connector-curvature="0" fill="#EA1F29" d="M0,12.1l-0.1,0.2l-0.1,0l-0.1-0.2l0,0
						c-0.1-0.3,0.1-0.4,0.2-0.5c0,0-0.1,0.2,0.1,0.4l0,0L0,12.1"/>
				</g>
			</g>
		</g>
	</g>
</g>
</svg>
