<?xml version="1.0" encoding="utf-8"?>
<!-- Generator: Adobe Illustrator 26.0.2, SVG Export Plug-In . SVG Version: 6.00 Build 0)  -->
<svg version="1.1" id="svg824" xmlns:svg="http://www.w3.org/2000/svg"
	 xmlns="http://www.w3.org/2000/svg" xmlns:xlink="http://www.w3.org/1999/xlink" x="0px" y="0px" width="700px" height="700px"
	 viewBox="0 0 700 700" style="enable-background:new 0 0 700 700;" xml:space="preserve">
<style type="text/css">
	.st0{fill:#FFFFFF;}
	.st1{fill:#0E693B;}
	.st2{fill:#82CCB1;}
	.st3{fill:#35534E;}
	.st4{fill:#6C928C;}
	.st5{fill:#2B989C;}
</style>
<circle class="st0" cx="350" cy="350" r="350"/>
<g>
	<path id="path870" class="st1" d="M306,8.8c-21.5,0.1-38.1,4.8-43,6.3l0,0h0.4l2.2,3.5c28.2,0,53.3,17.6,59.1,21.6l0,0
		C222,7.7,129.9,72.9,96.4,115.3l0,0l3.1,3.1c57.3-30,113.3-33.1,114.2-33.1l0,0c-63.5,11.5-105.4,37.5-146.4,82.9l0,0
		C22,218.4,5.1,285.4,5,348.4l0,0v0.9c0.1,50.1,10.7,97.5,26.1,131.8l0,0v-0.4v0.4l5.3-1.3C10.8,356.4,65.9,268.2,110,221.5l0,0
		c45.4-48.1,133.6-95.7,218.2-92.1l0,0c141.1,5.3,169.7,73.6,170.6,86.4l0,0v0.4v0.9c0,0,40.1,4,58.6,34.8l0,0
		c5.3,8.8,9.3,17.2,11,26l0,0c2.2,20.7-6.6,48.1-30.9,66.1l0,0c0-15.4-9.7-36.6-40.1-36.6l0,0c-78,0.4-147.2,68.8-149,145.9l0,0
		c-2.2,82.4,60,167.1,165.8,165.3l0,0c37.9-26,61.3-92.1,61.3-92.1l0,0c0,0,0,0.9-0.4,2.6l0,0c-1.3,6.6-6.6,32.2-18.5,60l0,0
		l0.4,1.8c84.6-84.6,78-218.2,64.4-262.3l0,0c4.8,12.8,8.8,25.6,11.9,37.5l0,0c3.5,16.3,7.1,37,7.9,62.2l0,0
		c3.1,91.2-37.5,147.2-37.5,147.2l0,0l2.2,2.6c50.2-59,88.8-132.6,89-215.8l0,0v-1.4c0-16.4-1.6-33.2-4.8-50.4l0,0
		c-14.5-75.8-66.1-129.6-108-156.9l0,0c48.9,21.6,79.8,54.7,84.2,62.6l0,0l4-2.2C627.6,99.8,531.5,67.2,481.2,64.6l0,0
		c40.5-10.6,66.1,3.5,66.1,3.5l0,0l1.8-4.4c-15.9-12.3-68.8-41.9-123.9-24.3l0,0c-0.9-21.2-12.3-30-12.3-30l0,0
		c0,0-19.8,3.1-30.9,23.8l0,0c-24.8-19.1-52.3-24.3-74.7-24.4l0,0L306,8.8z"/>
	<path id="path1900" class="st2" d="M449.9,441.9l-17.6,53.8h5.7l11-11.5h16.8l3.5,10.1l13.7-0.4l-18.5-52L449.9,441.9z M457,457.3
		l5.3,17.6h-10.6L457,457.3z"/>
	<path id="path1928" class="st2" d="M386.9,445.9c-4,3.1-6.2,7.1-6.2,12.3l0,0c0,3.5,0.9,7,2.6,9.3l0,0c1.8,2.6,4.8,4.4,8.8,5.7l0,0
		c1.8,0.4,3.5,1.3,5.7,1.8l0,0c2.2,0.4,4,0.9,5.7,1.3l0,0c1.3,0.4,2.6,0.9,3.5,1.8l0,0c0.9,0.9,1.8,1.8,1.8,3.1l0,0
		c0,1.3-0.4,2.2-0.9,3.1l0,0c-0.4,0.9-1.3,1.3-2.2,1.8l0,0c-0.9,0.4-1.8,0.4-3.1,0.9l0,0c-1.3,0-2.2,0.4-3.1,0.4l0,0
		c-3.1,0-6.2-0.4-9.3-1.8l0,0c-0.4-0.4-1.3-0.4-1.8-0.9l0,0l-7.9,8.4c2.6,1.3,5.3,2.2,8.4,3.1l0,0c3.1,0.9,6.6,1.3,10.6,1.3l0,0
		c7.1,0,13.2-1.8,17.2-4.8l0,0c4-3.1,6.2-7.5,6.2-12.8l0,0c0-3.5-0.9-6.6-2.6-8.8l0,0c-1.8-2.6-4.8-4.8-8.8-6.2l0,0
		c-1.8-0.9-3.5-1.3-5.3-1.8l0,0c-1.8-0.4-3.5-0.9-5.3-1.3l0,0c-2.7-0.4-4.4-1.3-5.7-2.2l0,0c-0.9-0.9-1.3-1.8-1.3-3.1l0,0
		c0-0.9,0.4-1.8,0.9-2.6l0,0c0.4-0.9,1.3-1.3,2.2-1.8l0,0c0.9-0.4,1.8-0.9,3.1-0.9l0,0c0.9,0,1.8-0.4,3.1-0.4l0,0
		c3.1,0,5.7,0.4,8.8,1.8l0,0h0.4l7.9-7.9c-2.6-1.3-5.3-1.8-8.4-2.6l0,0c-3.1-0.9-6.2-0.9-9.3-0.9l0,0
		C396.6,441,391.3,442.8,386.9,445.9"/>
	<path id="path1956" class="st2" d="M504.1,440.6l-9.3,9.7v43.2h13.2V471h20.3v-10.1h-20.3v-10.1h22v-10.1L504.1,440.6z"/>
	<path id="path1984" class="st2" d="M553.5,438.8l-9.3,9.3v43.6h13.2v-22.5l18.5-0.9v-10.1l-18.5,0.9V449l20.3-0.9v-9.7L553.5,438.8
		z"/>
	<path id="path1374" class="st3" d="M81.8,356.4C43.4,493,114,577.2,125,591.4l0,0c34.8,45.4,82.4,73.2,130.1,87.7l0,0
		c106.2,32.2,192.2-7.5,227-31.3l0,0c-15,1.8-35.7,3.5-56.9,3.1l0,0c-4,0-10.1,2.2-13.2,5.3l0,0c-10.6,10.6-21.6,19.8-29.5,26l0,0
		c-9.3,1.3-36.1,2.6-42.8,2.2l0,0c4.8-2.6,31.3-20.3,42.3-32.6l0,0c3.5-4.4,5.3-11,2.2-19l0,0c-2.2-6.2-9.3-22.5-11-26.9l0,0
		c-1.8-4.4-7.9-8.8-19-9.7l0,0c-58.2-4.8-88.2-19-108.9-25.6l0,0c-4.8-1.8-12.8-1.3-16.8,1.8l0,0l-24.2,19
		c-4.4,3.1-7.1,9.3-5.7,14.1l0,0c4,18.1,23.8,48.9,24.2,49.4l0,0c-7.9-4-43.2-27.3-45.8-30l0,0c-4.4-10.1-11.9-27.3-12.8-31.3l0,0
		c-0.9-4-5.3-9.3-8.8-11l0,0c-10.6-4.9-19-9.7-30-15.9l0,0c-3.5-4.4-19-32.6-21.6-43.6l0,0c15.9,13.2,41.4,27.3,45.4,29.1l0,0
		c8.4,3.5,17.2,0,21.6-3.1l0,0l21.6-16.3c4.4-3.1,7.1-11,6.2-16.3l0,0c-6.2-33.9-11.9-76.7-8.4-110.7l0,0c0.4-5.3-3.5-14.5-8.4-17.6
		l0,0c0,0-37-26.5-38.8-26.9l0,0c-4-0.9-9.7-1.3-12.8,1.3l0,0c-15.9,12.3-32.2,26.9-42.3,39.2l0,0c1.3-13.2,4.4-26.9,7.5-40.6l0,0
		c10.6-10.1,21.2-19,33.1-26.9l0,0c4-2.6,6.6-6.6,7.1-11l0,0c0.9-16.3,3.5-35.3,7.9-51.6l0,0c21.6-26.5,49.4-48.1,74.5-63l0,0
		C121,248.4,88.9,332.1,81.8,356.4"/>
	<path id="path1400" class="st4" d="M81.8,356.4c-8.8,30.9-11.9,59.1-11,84.6l0,0c21.2,67,86.4,103.2,86.4,103.2l0,0v4l18.5-3.5
		l16.3-12.3c4.8-3.5,7.5-11.5,6.6-16.8l0,0h0c-6.2-33.9-11.9-76.7-8.4-110.6l0,0c0.4-5.3-3.5-14.6-8.4-17.6l0,0
		c0,0-37-26.4-38.8-26.9l0,0c-4-0.9-9.7-1.3-12.8,1.3l0,0C114.4,374,98.1,388.6,88,400.9l0,0c1.3-13.2,4.4-26.9,7.5-40.6l0,0
		c10.6-10.1,21.2-19,33.1-26.9l0,0c4-2.6,6.6-6.6,7.1-11l0,0c0.9-16.3,3.5-35.3,7.9-51.6l0,0c21.6-26.5,49.4-48.1,74.5-63l0,0
		C121,248.4,88.9,332.1,81.8,356.4"/>
	<path id="path1432" class="st5" d="M230.4,657.9c-0.9,0.4-19.4,3.1-19.4,3.1l0,0c14.5,7,29.1,13.2,44.1,17.6l0,0
		c90.4,27.3,166.2,3.1,208.1-19.8l0,0c-25.1,8.8-49.8,14.1-73.2,16.3l0,0c-2.6,2.2-5.3,4.4-7.5,6.2l0,0c-9.3,1.3-36.1,2.6-42.8,2.2
		l0,0c1.8-0.9,5.3-3.1,9.7-6.2l0,0c-61.3-0.4-100.1-15.4-105.8-17.6l0,0c-4.2-1.8-7.3-2.2-9.4-2.2l0,0
		C232,657.5,230.8,657.9,230.4,657.9"/>
	<path id="path1248" class="st4" d="M242.3,194.6c0.9,0.4,0.9,0.9,1.3,0.9l0,0c34.4-8.8,69.2-8.8,103.2-1.8l0,0
		c9.7,6.6,19.4,13.7,28.2,21.2l0,0c1.8,1.3,4.4,2.6,6.6,3.1l0,0c2.2,0.4,5.3,0.9,7.1,0.4l0,0c19.4-4.8,39.7-7.5,59.9-7.9l0,0v-0.9
		c-19-10.1-38.8-17.6-59.9-22.5l0,0c-7.9-1.8-15.9-3.1-24.2-4.4l0,0c-0.9,0-1.3,0-2.2-0.4l0,0c-2.6-0.4-5.7-0.9-8.4-0.9l0,0
		c-9.4-1-18.8-1.4-27.9-1.4l0,0C293.7,179.9,264.3,185.7,242.3,194.6"/>
</g>
</svg>
