<?xml version="1.0" encoding="utf-8"?>
<!-- Generator: Adobe Illustrator 26.0.2, SVG Export Plug-In . SVG Version: 6.00 Build 0)  -->
<svg version="1.1" id="Calque_1" xmlns="http://www.w3.org/2000/svg" xmlns:xlink="http://www.w3.org/1999/xlink" x="0px" y="0px"
	 width="365px" height="573px" viewBox="0 0 365 573" style="enable-background:new 0 0 365 573;" xml:space="preserve">
<style type="text/css">
	.st0{fill:#219730;stroke:#000000;stroke-width:4.0803;stroke-miterlimit:1;}
	.st1{fill:#C49414;stroke:#000000;stroke-width:3.4974;stroke-miterlimit:1;}
	.st2{fill:#FFFFFF;stroke:#000000;stroke-width:3.4974;stroke-miterlimit:1;}
	.st3{fill:#26ADCD;stroke:#000000;stroke-width:3.4974;stroke-miterlimit:1;}
	.st4{fill:#0E0C67;}
	.st5{fill:#FFFFFF;stroke:#000000;stroke-width:4.0803;stroke-miterlimit:1;}
	.st6{fill:#C49414;}
</style>
<g>
	<path class="st0" d="M85.2,559.7c11,5.3,26.2,7.1,42.1,3.9c20.6-4.1,37-15.3,43.3-28.2c-5.2-14.1-22.4-26.8-44.6-31.1
		c-14.3-2.8-28-1.7-38.6,2.4c-1.3,0.8-2.5,1.7-3.7,2.6c6.1,8.8,15.1,15.5,25.8,19l0,0v14.4l0,0C99.7,545.8,91.2,551.9,85.2,559.7
		L85.2,559.7z"/>
	<path class="st0" d="M85.2,559.7c1.1,0.5,2.3,1.1,3.6,1.5c6.6-5.4,18.8-9.9,34-12.4l0,0v-27.2l0,0c-17.1-2.8-30.3-8.1-36.1-14.4
		c-1,0.7-2,1.4-2.9,2.1c6.1,8.8,15.1,15.5,25.8,19l0,0v14.4l0,0C99.7,545.8,91.2,551.9,85.2,559.7L85.2,559.7z"/>
	<path class="st0" d="M170.5,535.6c0-0.1,0.1-0.1,0.1-0.2c-6.3-8.2-23.6-14-43.7-14c-20.3,0-37.6,6-43.8,14.2c0,0.1-0.1,0.1-0.1,0.2
		c6.3,8.2,23.6,14,43.7,14C147,549.8,164.3,543.9,170.5,535.6L170.5,535.6z"/>
	<path class="st0" d="M17.5,504.4c4.1,11.6,13.5,23.5,27,32.5c17.5,11.7,37,15.3,50.6,10.7c6.3-13.6,3.1-34.8-9.5-53.5
		c-8.1-12.1-18.6-21-29-25.6c-1.5-0.3-3-0.6-4.4-0.8c-1.9,10.5-0.3,21.7,4.8,31.7l0,0l-10.2,10.2l0,0
		C37.6,504.9,27.3,503.1,17.5,504.4L17.5,504.4z"/>
	<path class="st0" d="M17.5,504.4c0.4,1.2,0.9,2.4,1.4,3.6c8.5,0.8,20.2,6.3,32.8,15.3l0,0L71,504.1l0,0
		C60.9,490,55.3,477,55.6,468.4c-1.2-0.2-2.4-0.4-3.5-0.6c-1.9,10.5-0.3,21.7,4.8,31.7l0,0l-10.2,10.2l0,0
		C37.6,504.9,27.3,503.1,17.5,504.4L17.5,504.4z"/>
	<path class="st0" d="M94.8,547.7c0.1,0,0.1,0,0.2,0c1.3-10.3-6.7-26.6-21-40.8c-14.3-14.3-30.8-22.4-41-21c-0.1,0-0.1,0-0.2,0
		c-1.3,10.3,6.7,26.6,21,40.8C68.2,541.1,84.6,549.1,94.8,547.7L94.8,547.7z"/>
	<path class="st0" d="M7.7,408.5c-5.3,11-7.1,26.2-3.9,42.1c4.1,20.6,15.3,37,28.2,43.3c14.1-5.2,26.8-22.4,31.1-44.6
		c2.8-14.3,1.7-28-2.4-38.6c-0.8-1.3-1.7-2.5-2.6-3.7c-8.8,6.1-15.5,15.1-19,25.8l0,0H24.8l0,0C21.6,423,15.6,414.5,7.7,408.5
		L7.7,408.5z"/>
	<path class="st0" d="M7.7,408.5c-0.5,1.1-1.1,2.3-1.5,3.6c5.4,6.6,9.9,18.8,12.4,34l0,0h27.2l0,0c2.8-17.1,8.1-30.3,14.4-36.1
		c-0.7-1-1.4-2-2.1-2.9c-8.8,6.1-15.5,15.1-19,25.8l0,0H24.8l0,0C21.6,423,15.6,414.5,7.7,408.5L7.7,408.5z"/>
	<path class="st0" d="M31.8,493.8c0.1,0,0.1,0.1,0.2,0.1c8.2-6.3,14-23.6,14-43.7c0-20.3-6-37.6-14.2-43.8c-0.1,0-0.1-0.1-0.2-0.1
		c-8.2,6.3-14,23.6-14,43.7C17.6,470.2,23.5,487.5,31.8,493.8L31.8,493.8z"/>
	<path class="st0" d="M279.5,508.5c-11-5.3-26.2-7.1-42.1-3.9c-20.6,4.1-37,15.3-43.3,28.2c5.2,14.1,22.4,26.8,44.6,31.1
		c14.3,2.8,28,1.7,38.6-2.4c1.3-0.8,2.5-1.7,3.7-2.6c-6.1-8.8-15.1-15.5-25.8-19l0,0v-14.4l0,0C265,522.3,273.4,516.3,279.5,508.5
		L279.5,508.5z"/>
	<path class="st0" d="M279.5,508.5c-1.1-0.5-2.3-1.1-3.6-1.5c-6.6,5.4-18.8,9.9-34,12.4l0,0v27.2l0,0c17.1,2.8,30.3,8.1,36.1,14.4
		c1-0.7,2-1.4,2.9-2.1c-6.1-8.8-15.1-15.5-25.8-19l0,0v-14.4l0,0C265,522.3,273.4,516.3,279.5,508.5L279.5,508.5z"/>
	<path class="st0" d="M194.2,532.6c0,0.1-0.1,0.1-0.1,0.2c6.3,8.2,23.6,14,43.7,14c20.3,0,37.6-6,43.8-14.2c0-0.1,0.1-0.1,0.1-0.2
		c-6.3-8.2-23.6-14-43.7-14C217.7,518.3,200.4,524.3,194.2,532.6L194.2,532.6z"/>
	<path class="st0" d="M7.7,329.2c-5.3,11-7.1,26.2-3.9,42.1c4.1,20.6,15.3,37,28.2,43.3c14.1-5.2,26.8-22.4,31.1-44.6
		c2.8-14.3,1.7-28-2.4-38.6c-0.8-1.3-1.7-2.5-2.6-3.7c-8.8,6.1-15.5,15.1-19,25.8l0,0H24.8l0,0C21.6,343.7,15.6,335.2,7.7,329.2
		L7.7,329.2z"/>
	<path class="st0" d="M7.7,329.2c-0.5,1.1-1.1,2.3-1.5,3.6c5.4,6.6,9.9,18.8,12.4,34l0,0h27.2l0,0c2.8-17.1,8.1-30.3,14.4-36.1
		c-0.7-1-1.4-2-2.1-2.9c-8.8,6.1-15.5,15.1-19,25.8l0,0H24.8l0,0C21.6,343.7,15.6,335.2,7.7,329.2L7.7,329.2z"/>
	<path class="st0" d="M31.8,414.5c0.1,0,0.1,0.1,0.2,0.1c8.2-6.3,14-23.6,14-43.7c0-20.3-6-37.6-14.2-43.8c-0.1,0-0.1-0.1-0.2-0.1
		c-8.2,6.3-14,23.6-14,43.7C17.6,390.9,23.5,408.3,31.8,414.5L31.8,414.5z"/>
	<path class="st0" d="M7.7,249.9c-5.3,11-7.1,26.2-3.9,42.1c4.1,20.6,15.3,37,28.2,43.3c14.1-5.2,26.8-22.4,31.1-44.6
		c2.8-14.3,1.7-28-2.4-38.6c-0.8-1.3-1.7-2.5-2.6-3.7c-8.8,6.1-15.5,15.1-19,25.8l0,0H24.8l0,0C21.6,264.4,15.6,255.9,7.7,249.9
		L7.7,249.9z"/>
	<path class="st0" d="M7.7,249.9c-0.5,1.1-1.1,2.3-1.5,3.6c5.4,6.6,9.9,18.8,12.4,34l0,0h27.2l0,0c2.8-17.1,8.1-30.3,14.4-36.1
		c-0.7-1-1.4-2-2.1-2.9c-8.8,6.1-15.5,15.1-19,25.8l0,0H24.8l0,0C21.6,264.4,15.6,255.9,7.7,249.9L7.7,249.9z"/>
	<path class="st0" d="M31.8,335.2c0.1,0,0.1,0.1,0.2,0.1c8.2-6.3,14-23.6,14-43.7c0-20.3-6-37.6-14.2-43.8c-0.1,0-0.1-0.1-0.2-0.1
		c-8.2,6.3-14,23.6-14,43.7C17.6,311.7,23.5,329,31.8,335.2L31.8,335.2z"/>
	<path class="st0" d="M347.1,504.4c-4.1,11.6-13.5,23.5-27,32.5c-17.5,11.7-37,15.3-50.6,10.7c-6.3-13.6-3.1-34.8,9.5-53.5
		c8.1-12.1,18.6-21,29-25.6c1.5-0.3,3-0.6,4.4-0.8c1.9,10.5,0.3,21.7-4.8,31.7l0,0l10.2,10.2l0,0
		C327.1,504.9,337.4,503.1,347.1,504.4L347.1,504.4z"/>
	<path class="st0" d="M347.1,504.4c-0.4,1.2-0.9,2.4-1.4,3.6c-8.5,0.8-20.2,6.3-32.8,15.3l0,0l-19.2-19.2l0,0
		c10.1-14.1,15.7-27.1,15.4-35.7c1.2-0.2,2.4-0.4,3.5-0.6c1.9,10.5,0.3,21.7-4.8,31.7l0,0l10.2,10.2l0,0
		C327.1,504.9,337.4,503.1,347.1,504.4L347.1,504.4z"/>
	<path class="st0" d="M269.8,547.7c-0.1,0-0.1,0-0.2,0c-1.3-10.3,6.7-26.6,21-40.8c14.3-14.3,30.8-22.4,41-21c0.1,0,0.1,0,0.2,0
		c1.3,10.3-6.7,26.6-21,40.8C296.5,541.1,280.1,549.1,269.8,547.7L269.8,547.7z"/>
	<path class="st0" d="M356.9,408.5c5.3,11,7.1,26.2,3.9,42.1c-4.1,20.6-15.3,37-28.2,43.3c-14.1-5.2-26.8-22.4-31.1-44.6
		c-2.8-14.3-1.7-28,2.4-38.6c0.8-1.3,1.7-2.5,2.6-3.7c8.8,6.1,15.5,15.1,19,25.8l0,0h14.4l0,0C343.1,422.9,349.1,414.5,356.9,408.5
		L356.9,408.5z"/>
	<path class="st0" d="M356.9,408.5c0.5,1.1,1.1,2.3,1.5,3.6c-5.4,6.6-9.9,18.8-12.4,34l0,0h-27.2l0,0c-2.8-17.1-8.1-30.3-14.4-36.1
		c0.7-1,1.4-2,2.1-2.9c8.8,6.1,15.5,15.1,19,25.8l0,0h14.4l0,0C343.1,422.9,349.1,414.5,356.9,408.5L356.9,408.5z"/>
	<path class="st0" d="M332.9,493.8c-0.1,0-0.1,0.1-0.2,0.1c-8.2-6.3-14-23.6-14-43.7c0-20.3,6-37.6,14.2-43.8c0.1,0,0.1-0.1,0.2-0.1
		c8.2,6.3,14,23.6,14,43.7C347.1,470.2,341.1,487.5,332.9,493.8L332.9,493.8z"/>
	<path class="st0" d="M356.9,329.2c5.3,11,7.1,26.2,3.9,42.1c-4.1,20.6-15.3,37-28.2,43.3c-14.1-5.2-26.8-22.4-31.1-44.6
		c-2.8-14.3-1.7-28,2.4-38.6c0.8-1.3,1.7-2.5,2.6-3.7c8.8,6.1,15.5,15.1,19,25.8l0,0h14.4l0,0C343.1,343.7,349.1,335.2,356.9,329.2
		L356.9,329.2z"/>
	<path class="st0" d="M356.9,329.2c0.5,1.1,1.1,2.3,1.5,3.6c-5.4,6.6-9.9,18.8-12.4,34l0,0h-27.2l0,0c-2.8-17.1-8.1-30.3-14.4-36.1
		c0.7-1,1.4-2,2.1-2.9c8.8,6.1,15.5,15.1,19,25.8l0,0h14.4l0,0C343.1,343.7,349.1,335.2,356.9,329.2L356.9,329.2z"/>
	<path class="st0" d="M332.9,414.5c-0.1,0-0.1,0.1-0.2,0.1c-8.2-6.3-14-23.6-14-43.7c0-20.3,6-37.6,14.2-43.8c0.1,0,0.1-0.1,0.2-0.1
		c8.2,6.3,14,23.6,14,43.7C347.1,390.9,341.1,408.2,332.9,414.5L332.9,414.5z"/>
	<path class="st0" d="M356.9,249.9c5.3,11,7.1,26.2,3.9,42.1c-4.1,20.6-15.3,37-28.2,43.3c-14.1-5.2-26.8-22.4-31.1-44.6
		c-2.8-14.3-1.7-28,2.4-38.6c0.8-1.3,1.7-2.5,2.6-3.7c8.8,6.1,15.5,15.1,19,25.8l0,0h14.4l0,0C343.1,264.4,349.1,255.9,356.9,249.9
		L356.9,249.9z"/>
	<path class="st0" d="M356.9,249.9c0.5,1.1,1.1,2.3,1.5,3.6c-5.4,6.6-9.9,18.8-12.4,34l0,0h-27.2l0,0c-2.8-17.1-8.1-30.3-14.4-36.1
		c0.7-1,1.4-2,2.1-2.9c8.8,6.1,15.5,15.1,19,25.8l0,0h14.4l0,0C343.1,264.4,349.1,255.9,356.9,249.9L356.9,249.9z"/>
	<path class="st0" d="M332.9,335.2c-0.1,0-0.1,0.1-0.2,0.1c-8.2-6.3-14-23.6-14-43.7c0-20.3,6-37.6,14.2-43.8c0.1,0,0.1-0.1,0.2-0.1
		c8.2,6.3,14,23.6,14,43.7C347.1,311.7,341.1,329,332.9,335.2L332.9,335.2z"/>
	<path class="st0" d="M205.5,571.2c-11.8-6.9-19.7-19.9-19.7-34.8c0-5.4,1.1-10.6,3-15.3C197.9,527.6,204.8,547.3,205.5,571.2
		L205.5,571.2z"/>
	<path class="st0" d="M159.1,571.2c11.8-6.9,19.7-19.9,19.7-34.7c0-5.4-1.1-10.6-2.9-15.3C166.8,527.6,159.9,547.3,159.1,571.2
		L159.1,571.2z"/>
	<path class="st1" d="M62.8,90.8h119.6H302v367.5l0,0c-1.1,22.3-17.1,40.4-37.2,42.5l0,0H210l0,0c-1.2,0-2.5,0.1-3.7,0.3
		c-5.4,1.2-10.5,5-14.5,10.4c-2.5,3.4-4.7,7.5-6.2,12.1c-0.9,2.4-1.6,5.2-2.2,8.2c-0.2,1-0.3,1.9-0.5,2.9l0,0h-1.2l0,0
		c-0.1-0.9-0.3-1.9-0.5-2.9c-0.6-3-1.3-5.8-2.2-8.2c-1.5-4.5-3.7-8.6-6.2-12.1c-4-5.4-9.1-9.2-14.5-10.4c-1.3-0.3-2.5-0.4-3.7-0.3
		l0,0H100l0,0c-20.1-2.1-36.1-20.1-37.2-42.4l0,0V90.8L62.8,90.8z"/>
	<path class="st2" d="M301.9,168.9v24.8H62.8v-24.8H301.9L301.9,168.9z"/>
	<path class="st3" d="M32,132h300.6v37H32V132L32,132z"/>
	<path class="st3" d="M32,193.8h300.6v37H32V193.8L32,193.8z"/>
	<path class="st4" d="M172.7,434.8h-10.2l0,0c-1.6-0.2-3-1.2-3.7-2.5l0,0l-43-113.8l-44,116.3h-4.7v6.4h2.3h9.2H97v-6.4H85.7l0,0
		c-1.3-0.2-2.4-1.4-2.4-2.7c0-0.1,0-0.1,0-0.2l0,0L94.2,403h30.2l10.1,26.7l0,0c0,0.2,0.1,0.4,0.1,0.7c0,2.2-1.7,4-3.8,4.4l0,0h-8.6
		v6.4h50.5L172.7,434.8L172.7,434.8z"/>
	<path class="st4" d="M285.1,434.8l-44-116.3l-43.2,114.1l0,0c-0.7,1.2-1.9,2-3.4,2.2l0,0H187v6.4h7.6h10.7h21.2v-6.4h-8.9l0,0
		c-3-0.2-5.3-2.3-5.3-4.8c0-0.2,0-0.4,0.1-0.6l0,0l9.9-26.3h34.3l10.6,28.1l0,0c0,0.1,0,0.3,0,0.5c0,1.5-1.2,2.8-2.7,3.2l0,0h-12.8
		v6.4h40.8v-6.4L285.1,434.8L285.1,434.8z"/>
	<path class="st4" d="M248.4,272.8l7.7,40.2l0,0c0.9,6.5-0.1,11.7-2.5,12.3c-2.9,0.7-6.7-5.2-8.6-13.2c-1.4-4.4-3.7-7.6-5.8-8l0,0
		h-47.6v30.5h12.7l0,0c3-0.2,5.4-1.6,5.4-3.4c0-0.1,0-0.2,0-0.2c0.2-5.1,2.1-9.2,4.3-9.2c2.1,0,3.9,3.6,4.3,8.2l0,0v25l0,0
		c-0.4,4.7-2.1,8.2-4.3,8.2c-2.3,0-4.2-4.1-4.3-9.3c0-0.2,0-0.3,0-0.5c0-1.8-2-3.3-4.5-3.5l0,0h-13.7v89.4l0,0c0,0.5,0,1,0,1.4
		c0,14.9,11,27.1,24.6,27.1c2.8,0,5.5-0.5,8.1-1.5c-0.9,10-12.4,18-26.3,18c-5.8,0-11.2-1.4-15.5-3.7l0,0v-0.1l0,0
		c-12.5-7.2-23.8-15.1-33.8-23.8c10.6-2.2,18.4-9.8,18.6-18.7l0,0l0,0V308.2l0,0c0-0.1,0-0.1,0-0.2c0-2.2-1.6-4-3.7-4
		c-0.1,0-0.1,0-0.2,0c-26.6-2.9-46.6-14.8-46.6-29c0-2.2,0.5-4.3,1.4-6.3c8.6,6.6,41,11.5,79.4,11.5c12.4,0,24.2-0.5,34.8-1.4
		c2.6-0.5,4.8-1.8,5.8-3.6c1.2-3,3.8-5.3,6.3-5.3C246.4,269.9,247.8,271.1,248.4,272.8L248.4,272.8z"/>
	<path class="st5" d="M175.1,516.5h14.5v35.1h-14.5V516.5L175.1,516.5z"/>
	<polygon class="st6" points="98.8,391 119.9,391 109.4,363.2 	"/>
	<polygon class="st6" points="227.1,391 252.2,391 239.6,357.8 	"/>
</g>
<polygon class="st1" points="121.8,33.8 112.6,5.4 103.4,33.8 73.6,33.8 97.7,51.2 88.5,79.6 112.6,62.1 136.7,79.6 127.6,51.2 
	151.6,33.8 "/>
<polygon class="st1" points="290.4,33.8 260.6,33.8 251.4,5.4 242.2,33.8 212.4,33.8 236.5,51.2 227.3,79.6 251.4,62.1 275.5,79.6 
	266.3,51.2 "/>
</svg>
