<?xml version="1.0" encoding="utf-8"?>
<!-- Generator: Adobe Illustrator 26.0.2, SVG Export Plug-In . SVG Version: 6.00 Build 0)  -->
<svg version="1.1" id="Calque_1" xmlns="http://www.w3.org/2000/svg" xmlns:xlink="http://www.w3.org/1999/xlink" x="0px" y="0px"
	 width="498px" height="412px" viewBox="0 0 498 412" style="enable-background:new 0 0 498 412;" xml:space="preserve">
<style type="text/css">
	.st0{fill:url(#SVGID_1_);}
	.st1{fill:url(#SVGID_00000158715867635034632040000008672422118515114656_);}
	.st2{fill:url(#SVGID_00000074406730607676890920000014166770384073996220_);}
	.st3{fill:url(#SVGID_00000039853771134965034590000007723299870584922033_);}
	.st4{fill:url(#SVGID_00000067207504578865454740000013644017876935222170_);}
	.st5{fill:url(#SVGID_00000147200630914413298800000017623190564545502650_);}
	.st6{fill:url(#SVGID_00000031180242772985369370000002874295312730246586_);}
	.st7{fill:url(#SVGID_00000109711273504503253250000005428611391793526944_);}
	.st8{fill:url(#SVGID_00000035527737236669351250000014071610436092744858_);}
	.st9{fill:url(#SVGID_00000165214557341178365370000004383867374699236499_);}
	.st10{fill:url(#SVGID_00000123426208893947669190000009503632495062039479_);}
	.st11{fill:url(#SVGID_00000112618977545613741160000016756081427820807080_);}
	.st12{fill:url(#SVGID_00000113317966264190208640000015510649364094335616_);}
	.st13{fill:url(#SVGID_00000114772921578003929200000000500973465372413098_);}
	.st14{fill:#FFFFFF;}
</style>
<g>
	
		<linearGradient id="SVGID_1_" gradientUnits="userSpaceOnUse" x1="182.6023" y1="230.3324" x2="363.6796" y2="142.0151" gradientTransform="matrix(1 0 0 1 0 -152)">
		<stop  offset="0" style="stop-color:#0C2C84"/>
		<stop  offset="1" style="stop-color:#05143B"/>
	</linearGradient>
	<path class="st0" d="M174.8,79c-4,3.1-8.1,6.4-12.4,9.8c-10.6,8.6-21,17.9-31.1,27.6c10.5-3.2,19.3-6.3,23.6-7.8
		c37.4-14.8,65.2-29.2,101.7-52.7c30.7-19.7,42-35,43.8-40.9c0.5-1.5,0.1-2.2-0.3-2.6c-1.5-1.6-4.7-2.3-10-1.3
		c-7,1.4-13.5,3.2-21.1,6.3C253,41,191.7,71.8,191,72.1C186.2,74.5,180.7,76.8,174.8,79z"/>
	
		<linearGradient id="SVGID_00000067204834403970382450000004279911635129825155_" gradientUnits="userSpaceOnUse" x1="160.7815" y1="184.2238" x2="343.8514" y2="94.9347" gradientTransform="matrix(1 0 0 1 0 -152)">
		<stop  offset="0" style="stop-color:#0C2C84"/>
		<stop  offset="1" style="stop-color:#05143B"/>
	</linearGradient>
	<path style="fill:url(#SVGID_00000067204834403970382450000004279911635129825155_);" d="M176.1,32.7
		c22.6-11.9,31.4-19.9,33.5-23.3c2.1-3.3,0.6-3.4-0.7-3.5c-6.3-0.5-38.4,12.6-51.7,20.1c-8.2,4.6-15.5,9-19.7,11.9
		c-9.4,6.5-15.9,11.7-22.5,17.6c-0.3,0.2-0.5,0.5-0.8,0.7c-0.7,0.7-1.4,1.3-2.2,2c13-4.3,17.6-5.7,28-9.5
		C152.6,44.1,164.6,38.8,176.1,32.7z"/>
	
		<linearGradient id="SVGID_00000000203473624297812650000005517228298743199385_" gradientUnits="userSpaceOnUse" x1="220.2763" y1="307.5739" x2="401.3535" y2="219.2567" gradientTransform="matrix(1 0 0 1 0 -152)">
		<stop  offset="0" style="stop-color:#0C2C84"/>
		<stop  offset="1" style="stop-color:#05143B"/>
	</linearGradient>
	<path style="fill:url(#SVGID_00000000203473624297812650000005517228298743199385_);" d="M199.6,159.2
		c-4.7,4.4-15.4,14.6-25.8,25.9c-8,8.7-17.3,20.2-23.7,28.4c27.3-8.1,77.8-25.6,131.1-57c42.3-25,61.1-44.1,79-64.7
		c0.4-0.6,4.2-4.9,5.2-6.1l2.2-2.6C379,69.5,382,60.8,380.9,57c-0.8-2.8-3.6-3.6-17-0.7c-6.2,1.4-16.1,5.1-20.8,6.9
		c-21.2,27.5-68.7,59.9-114.8,82.8C218.8,150.7,209.2,155.1,199.6,159.2z"/>
	
		<linearGradient id="SVGID_00000130626726945532698930000007950546221827889826_" gradientUnits="userSpaceOnUse" x1="179.3828" y1="221.3186" x2="363.5067" y2="131.5154" gradientTransform="matrix(1 0 0 1 0 -152)">
		<stop  offset="0" style="stop-color:#0C2C84"/>
		<stop  offset="1" style="stop-color:#05143B"/>
	</linearGradient>
	<path style="fill:url(#SVGID_00000130626726945532698930000007950546221827889826_);" d="M72.1,126.6c3.4,2,12.9,0.9,21.5-0.7
		c8.2-10.1,16.2-19.5,23-26.4c1.4-1.5,2.9-2.9,4.3-4.3c-11.9,2.9-19.5,4.3-27.2,6.1c-6.3,1.4-12.3,2.7-18.1,3.9
		c-3.1,5.3-5.6,10.8-6.2,15.1C69,124,70.5,125.6,72.1,126.6z"/>
	
		<linearGradient id="SVGID_00000100353620296522131540000005529670761676463538_" gradientUnits="userSpaceOnUse" x1="264.9384" y1="399.1469" x2="446.0155" y2="310.8297" gradientTransform="matrix(1 0 0 1 0 -152)">
		<stop  offset="0" style="stop-color:#0C2C84"/>
		<stop  offset="1" style="stop-color:#05143B"/>
	</linearGradient>
	<path style="fill:url(#SVGID_00000100353620296522131540000005529670761676463538_);" d="M226.6,292c3.4-1.4,6.9-2.9,10.3-4.5
		c54.3-24.4,94-46.1,121.6-66.3c28.8-21.1,47.5-38.8,47.7-39l0,0c16.7-15.5,23.1-23.1,26.5-27.6c3-4,3.5-6.5,2.9-7.5
		c-0.6-1-3.2-1.9-8.9-1.1c-10,1.3-31.2,10.4-40.5,14.5c-27.1,26.7-66.8,55-110.8,77.7C256.2,256.4,239.9,274.7,226.6,292z"/>
	
		<linearGradient id="SVGID_00000048478353608866882040000016364352039451944070_" gradientUnits="userSpaceOnUse" x1="303.7742" y1="478.7689" x2="484.8515" y2="390.4516" gradientTransform="matrix(1 0 0 1 0 -152)">
		<stop  offset="0" style="stop-color:#0C2C84"/>
		<stop  offset="1" style="stop-color:#05143B"/>
	</linearGradient>
	<path style="fill:url(#SVGID_00000048478353608866882040000016364352039451944070_);" d="M184.5,381.9c3.2,6.8,25.4,4.1,50.1-3.2
		c2.5-8.1,8.1-19,16.8-32.2c-23.2,8.6-45.3,15.1-64.6,18.9C184.1,373,183,378.9,184.5,381.9z"/>
	
		<linearGradient id="SVGID_00000129895449056741626460000009084980032516041860_" gradientUnits="userSpaceOnUse" x1="305.6706" y1="482.5422" x2="487.6097" y2="393.8045" gradientTransform="matrix(1 0 0 1 0 -152)">
		<stop  offset="0" style="stop-color:#0C2C84"/>
		<stop  offset="1" style="stop-color:#05143B"/>
	</linearGradient>
	<path style="fill:url(#SVGID_00000129895449056741626460000009084980032516041860_);" d="M421.9,254.7c-2.2,0.7-4.6,1.5-6.8,2.4
		c-5,2-10.5,4.7-16.5,8.1c-12.2,9.7-26,19.5-40.8,29c-5.3,4.4-10.6,9.1-15.9,14.1c-1.6,1.5-3.2,3.1-4.8,4.6
		c-0.5,0.4-0.9,0.9-1.4,1.3c-1.2,1.2-2.4,2.4-3.6,3.6c-0.4,0.4-0.8,0.8-1.2,1.3c-1.5,1.5-2.9,3.1-4.4,4.6c-0.1,0.1-0.1,0.1-0.2,0.2
		c-8.4,9-16.1,18.4-22.5,27.4c9.6-4.2,31.5-14.2,47.8-24.4c21.4-13.4,40.4-28.7,40.6-28.9l0,0c5-3.9,17.5-14.5,17.5-14.5
		c11.1-9.6,23.4-20.7,24.6-25.8C435.5,252.7,427.9,253,421.9,254.7z"/>
	
		<linearGradient id="SVGID_00000137090759535919181430000006624153189895695032_" gradientUnits="userSpaceOnUse" x1="260.6037" y1="390.2575" x2="441.6806" y2="301.9403" gradientTransform="matrix(1 0 0 1 0 -152)">
		<stop  offset="0" style="stop-color:#0C2C84"/>
		<stop  offset="1" style="stop-color:#05143B"/>
	</linearGradient>
	<path style="fill:url(#SVGID_00000137090759535919181430000006624153189895695032_);" d="M96,317c1.7,4.3,10.8,5.4,19.5,5.2
		c8.8-0.7,21.1-2.6,35.5-5.9c5.8-11.4,13.5-24,22.6-37.2c-27.7,8-52.8,12.3-72.7,12.3C97.8,298.7,93.6,311.1,96,317z"/>
	
		<linearGradient id="SVGID_00000166653650935884024330000013872819960202675883_" gradientUnits="userSpaceOnUse" x1="214.1546" y1="295.0218" x2="395.2325" y2="206.7041" gradientTransform="matrix(1 0 0 1 0 -152)">
		<stop  offset="0" style="stop-color:#0C2C84"/>
		<stop  offset="1" style="stop-color:#05143B"/>
	</linearGradient>
	<path style="fill:url(#SVGID_00000166653650935884024330000013872819960202675883_);" d="M131.5,181.9c-24.5,5.9-46,8.1-61.1,6
		C55.9,209,54.5,219,56.6,221.8c2.5,3.3,15.1,7.4,38.8,4.4C104.2,213.6,116.1,198.9,131.5,181.9z"/>
	
		<linearGradient id="SVGID_00000031886390236158525110000007714402549013205380_" gradientUnits="userSpaceOnUse" x1="60.916" y1="416.5126" x2="246.948" y2="335.5811" gradientTransform="matrix(1 0 0 1 0 -152)">
		<stop  offset="0" style="stop-color:#7F7000"/>
		<stop  offset="1" style="stop-color:#FFE000"/>
	</linearGradient>
	<path style="fill:url(#SVGID_00000031886390236158525110000007714402549013205380_);" d="M269.1,241.4
		c77.7-38.7,143.4-95.6,152.7-132.4c0.5-2,0.8-3.9,1-5.8c-10.1-18.4-22.8-34.6-37.4-48.4c0,0,0,0,0,0.1c0.1,0.2,0.2,0.3,0.3,0.5
		c3.2,9.4-9.1,25-17.4,34.3c-19.7,23-38.1,43.4-84.6,70.9c-67.5,39.8-130.9,57.6-148.6,62.1c0,0-12.7,3.2-14.5,3.7c0,0,0,0,0,0
		c-41,10.4-63.1,4.9-68-1.7c-1-1.4-1.5-3.1-1.7-5c-0.1-0.1-0.1-0.1-0.1-0.1l0.3,4.8c2.5,19.8,8,39.6,16.9,58.7
		c0.4,0.9,0.9,1.9,1.4,2.8c1.5,0.8,3.2,1.5,5,2.1C109.7,300,189.8,280.9,269.1,241.4z"/>
	
		<linearGradient id="SVGID_00000095311492261634843830000013627099865087335817_" gradientUnits="userSpaceOnUse" x1="0.4452" y1="277.5167" x2="186.4781" y2="196.5848" gradientTransform="matrix(1 0 0 1 0 -152)">
		<stop  offset="0" style="stop-color:#7F7000"/>
		<stop  offset="1" style="stop-color:#FFE000"/>
	</linearGradient>
	<path style="fill:url(#SVGID_00000095311492261634843830000013627099865087335817_);" d="M129.4,93c17.1-4.5,44.3-12.3,61.6-20.9
		c0.9-0.4,85.6-42.9,81.8-66.3c-0.2-1.3-0.7-2.8-1.7-4.2c-18.4-2.1-39.6-1.3-58.5,1.9c0.2,0,0.5,0,0.7,0c0.4,0,2.2,0.4,2.8,1.4
		c0.4,0.7,0.2,1.8,0.2,2.1c-1.3,9.8-25,23.6-36.4,29.6C166.1,44,153.5,49.6,132.5,57c-17.4,6.1-38.9,12.1-58.8,18.6
		C59.5,80.3,49.9,83.4,42.3,87C30.5,92.7,21,103,10.8,123.2c-2.1,4.2-7.7,15.9-10.1,21.1c3.5-4.1,15.3-17.3,29-24.9
		c16.3-9.1,38.2-12.2,64-18.1C103.1,99.1,112.3,97.6,129.4,93z"/>
	
		<linearGradient id="SVGID_00000088093930596901347850000016514122733292772017_" gradientUnits="userSpaceOnUse" x1="25.103" y1="334.1956" x2="211.1352" y2="253.264" gradientTransform="matrix(1 0 0 1 0 -152)">
		<stop  offset="0" style="stop-color:#7F7000"/>
		<stop  offset="1" style="stop-color:#FFE000"/>
	</linearGradient>
	<path style="fill:url(#SVGID_00000088093930596901347850000016514122733292772017_);" d="M60.8,185.7
		c29.3,10.3,101.3-6.8,167.5-39.8c60-29.8,122.5-75.9,126.1-106.1c0.4-3.5,0.1-6.2-1-9.2c-14.6-9-29.8-16.1-46.1-21.1
		c0,0-3.5-1.2-4.3-1.3c0,0,0,0,0,0c0.9,0.3,1.6,0.6,2,1.1c1.7,2,1,4.2,0.1,7c-0.9,3-7.4,18.9-45.9,43.6
		c-35.9,23-63.7,37.5-100.1,52.2c-1.6,0.6-3.4,1.4-5.1,1.9c-9.1,3.2-28.4,9.7-46.3,13.8c-23.8,5.4-34.9,5.9-39.7,1.8
		c-1.3-1.1-3-3.2-2.6-6.8c0.2-1.4,0.7-3.3,1.8-5.9c-0.5,0.8-0.9,1.7-1.2,2.3c-0.9,2.2-2.4,7.2-2.6,7c-6.6,16.6-10.8,33.3-12.8,51.2
		c-0.1,0.6,0.9,2.8,1.5,3.4C54.5,182.9,57.3,184.5,60.8,185.7z"/>
	
		<linearGradient id="SVGID_00000051383600627432747410000003178030362113508235_" gradientUnits="userSpaceOnUse" x1="132.2603" y1="580.5095" x2="318.2922" y2="499.5779" gradientTransform="matrix(1 0 0 1 0 -152)">
		<stop  offset="0" style="stop-color:#7F7000"/>
		<stop  offset="1" style="stop-color:#FFE000"/>
	</linearGradient>
	<path style="fill:url(#SVGID_00000051383600627432747410000003178030362113508235_);" d="M413,287.4c0,0-31.2,25-31.4,25.1l0-0.1
		c-7.4,5.5-17,12.5-27.3,18.7c-27.4,16.5-64.1,31.9-86.4,41.1c-17.7,7.3-54.3,20.6-74.4,18.5c44.4,12.8,93.5,10.4,138.7-10.5
		c53.3-24.6,90.2-69.4,106.4-121.4c0.2-1.1,0.4-1.9,0.5-2.6c-0.1,0.4-0.1,0.7-0.2,1.1C435.7,267.6,426.6,275.6,413,287.4z"/>
	
		<linearGradient id="SVGID_00000020384502128224493070000005983534606790779794_" gradientUnits="userSpaceOnUse" x1="99.4914" y1="505.1998" x2="285.6863" y2="424.1974" gradientTransform="matrix(1 0 0 1 0 -152)">
		<stop  offset="0" style="stop-color:#7F7000"/>
		<stop  offset="1" style="stop-color:#FFE000"/>
	</linearGradient>
	<path style="fill:url(#SVGID_00000020384502128224493070000005983534606790779794_);" d="M444.3,162.9c0,0-1.7-9.2-2-10.7
		c-0.6-4.1-1.9-6.2-3.1-7.3c0.3,0.3,0.5,0.5,0.7,0.8c1.3,2.2,1.8,5.3-3.3,11.9c-4,5.3-12,14.7-35,35.5l-0.1-0.1
		c-8.2,7.2-22.2,19-40.2,32.2c-27.8,20.4-67.9,42.3-122.5,66.8c-39.3,17.7-82.2,29.6-110.7,33.8l0,0c-5.1,0.8-10.9,1.1-10.9,1.1
		c-9.6,0.5-22.4-0.4-25.8-7.8c0.8,2.2,2.3,5,4.1,7.3c2.9,3.5,12.1,16.8,49.2,43c35.2,2.3,101.4-16.6,164.6-48
		c65.1-32.4,122.2-77.8,137.8-108.4C448.5,195.9,447.7,180.2,444.3,162.9z"/>
	<path class="st14" d="M387.9,246.7c4.8-15,6.3-29,6.3-29s-6.7,7.8-15.4,15.7c-8.4-10.3-14.8-14.3-14.8-14.3s2.2,9.7,2.8,24
		c-10.2,7-19.8,9.2-19.8,9.2s8.7,2.2,19.8,5.3c-0.6,17.6-2.8,33-2.8,33s11.5-16.9,17.7-28.7c9.4,2.9,14.7,5.1,14.7,5.1
		S393.6,257,387.9,246.7z"/>
	<path class="st14" d="M246.4,86.9c8.2-17.8,13.2-27.1,13.2-27.1s-8.8,5.8-25.9,16c-13.1-10.6-34.3-25.4-34.3-25.4s6.2,18.7,10,39
		c-13.9,7.1-28.3,13.8-28.3,13.8s9.8,0.9,31.1,3.8c3.1,22.1,5.5,44.3,5.5,44.3s9.9-21.8,18.4-41.1c17.5,2.3,21.5,2.7,38.5,7.3
		C274.5,117.4,263.5,102.9,246.4,86.9z"/>
	<path class="st14" d="M335.2,151.9c5.3,21.5,9.4,43.9,9.4,43.9s9.9-14.9,17.1-42c14.5,1.6,28.9,3.7,28.9,3.7s-10.5-18.6-23.1-31.2
		c-0.1-0.1-0.1-0.1-0.2-0.2c2.7-16.7,3.9-26.5,3.3-39c-2.9,3.4-10.4,12.6-22.7,25c-15.8-9.4-33.1-16.6-33.1-16.6s7.6,14.9,14,34.1
		c-13.9,11.3-27.7,20.3-27.7,20.3S320.8,151.8,335.2,151.9z"/>
	<path class="st14" d="M358.3,340.7c8.3-14.5,13.5-27.2,13.5-27.2s-12.3,8.7-23.4,15.5c-9.4-10.8-14.7-16.4-14.7-16.4
		s-2.2,11.4-4.5,26.6c-14.7,7.3-24.1,11.6-24.1,11.6c6.6,3,14.5,5.2,21.6,6.4c-1,7.8-1.9,15.5-2.8,27c0,0,8.8-6.1,22.8-25.6
		c11.8,0.1,16.7-0.9,26.8-2.8C367.2,350.5,363.2,346.3,358.3,340.7z"/>
	<path class="st14" d="M186.8,213.7c-9.7,4.1-24.1,9.1-39.7,14.5c-9.8-14.5-14.6-21.8-19.8-30.9c0,0-3.9,14.5-5,38
		c-11.9,2.4-24.4,3.7-32.7,4c9.3,8.1,15.2,13.1,32.7,21.8c0.6,15.1,2.3,27.1,4.5,38.3c8.1-9.7,15.1-17.1,22-26.5
		c19,7,40.5,11.5,40.5,11.5c-12.1-14-18-21.2-26.6-33.3C169.3,240.4,177.2,228.1,186.8,213.7z"/>
</g>
</svg>
