<?xml version="1.0" encoding="utf-8"?>
<!-- Generator: Adobe Illustrator 26.0.2, SVG Export Plug-In . SVG Version: 6.00 Build 0)  -->
<svg version="1.1" id="Calque_1" xmlns="http://www.w3.org/2000/svg" xmlns:xlink="http://www.w3.org/1999/xlink" x="0px" y="0px"
	 width="480px" height="590px" viewBox="0 0 480 590" style="enable-background:new 0 0 480 590;" xml:space="preserve">
<style type="text/css">
	.st0{fill:#F50003;}
	.st1{fill:#FFFFFF;}
	.st2{fill:url(#SVGID_1_);}
	.st3{fill:url(#SVGID_00000039105298655989584440000014919237795938928054_);}
	.st4{fill:url(#SVGID_00000088134775675708424870000003248784106525431191_);}
	.st5{fill:url(#SVGID_00000021801916264136565220000014561093346824575665_);}
	.st6{fill:url(#SVGID_00000155104634596357121140000001814374698399754903_);}
	.st7{fill:url(#SVGID_00000149373076987200125640000018311736850719327130_);}
	.st8{fill:url(#SVGID_00000074441889119209000390000017160148683789765810_);}
	.st9{fill:url(#SVGID_00000142149225008082259460000017034710359481674920_);}
	.st10{fill:url(#SVGID_00000119818603971899935680000002075232778930704785_);}
	.st11{fill:url(#SVGID_00000065034992052434385290000003761610177713853369_);}
	.st12{fill:url(#SVGID_00000036223442100760634730000008317366864772801719_);}
	.st13{fill:url(#SVGID_00000145023149927936330350000008238967506498846616_);}
	.st14{fill:url(#SVGID_00000116922126565731613220000000047733453749800622_);}
	.st15{fill:#BFBFBF;}
	.st16{fill:url(#SVGID_00000016062217157090565240000003497765245371557251_);}
	.st17{fill:url(#SVGID_00000183242173410804770070000014685337828767269524_);}
	.st18{fill:url(#SVGID_00000133491429558959343120000013700889419144064440_);}
	.st19{fill:#FFC211;}
	.st20{fill:url(#SVGID_00000052815816311791740040000012926386811209704627_);}
	.st21{fill:url(#SVGID_00000171717184499988350620000011473836713818700448_);}
	.st22{fill:url(#SVGID_00000031900234990906951250000007955339828557412006_);}
	.st23{fill:url(#SVGID_00000074407642808478805980000014871648306551123641_);}
	.st24{fill:url(#SVGID_00000127011520988022888240000011639646619671841940_);}
	.st25{fill:url(#SVGID_00000146460658436725611580000012939775752254207625_);}
	.st26{fill:url(#SVGID_00000121983625667180790550000017670955537896671926_);}
	.st27{fill:#B70005;}
	.st28{fill:url(#SVGID_00000073681330194010920670000014175784313435762090_);}
	.st29{fill:url(#SVGID_00000045609052546184678170000012760987137871287728_);}
	.st30{fill:url(#SVGID_00000001658688737572710840000015502207688054068132_);}
	.st31{fill:url(#SVGID_00000111903541960080876900000012305555417550311300_);}
</style>
<g>
	<path d="M0.5,0.3h479V295c0,147.3-147.4,257.9-239.5,294.7C147.9,552.9,0.5,442.3,0.5,295V0.3z"/>
	<path class="st0" d="M44,402.7c23.8,44.2,59.4,82,98.7,112.8c29.6,23.1,62.6,43.8,97.2,58.2c34.6-14.4,67.7-35.1,97.2-58.2
		c39.3-30.8,75-68.6,98.7-112.8c6-11,11.1-22.4,15.4-34.1H28.6C32.9,380.3,38,391.7,44,402.7z"/>
	<rect x="15.3" y="14.9" class="st0" width="449.5" height="169.5"/>
	<path class="st1" d="M464.7,184.5H15.3v110.4c0,25.4,4.8,50.2,13.4,73.9h422.7c8.6-23.6,13.4-48.4,13.4-73.9L464.7,184.5
		L464.7,184.5z"/>
	<path d="M193.2,306.3c-3.7,6.3-8.3,12.2-10.6,13.7c-9.6,6.7-11.3,14.5-14.9,19.4c-3.6,5.2-13.9,16.6-19.8,13.9
		c-1.3-0.7-1.7-2.5-0.7-3.7c0.7-0.9,2.7-2.6,0.2-1.7c-2.4,0.8-3.8,5.3-0.7,8.1c3.8,3.7,7.2,0.4,8.1,2.1c1.1,2.3,5.3-0.2,8.9-3.1
		c2.4-3,6.1-5.4,6.1-5.4s-2.8,2.8-6.1,5.4c-1.8,2.2-2.9,4.8-1,6.8c0.7,0.7,2.1,0.6,2.7-0.3c-2.1-1.1-1.6-2.1-0.8-2.8
		c0.7-0.6,7.6-1.6,10.8-3.7c4.3-2.7,5.1-6.5,5.1-4.8c-0.4,2.3-2.3,2.3-2.7,5.3c-0.4,3.1-1.8,2.6-3,2.2c-1.8,0.7,0.5,3.4,3.9,2.2
		c1.7-1.6,3.4-2.5,3.4-2.5c-1.1,1.3-2.3,2.1-3.4,2.5c-1.3,1.3-2.7,3-3.2,5.1c-0.8,2.8-1,6.3-3.8,5.9c-1.3-0.2-1.8-1.8-1.1-3.7
		c0,0-2.6,2.1-1.7,4.1c2,4.2,6.6,2.6,9.9-1.5c0,0,7.4-1.1,11.1-4.4c3.7-3.4,5.1-5.7,4-1.2c-0.6,2.4,0.9,5.2,3.3,6.1
		c1.6,0.5,3.6,0.1,5.2-1.1c-5-0.9-1.7-6.2,0.3-9.7c1.4-2.8,8.5-8.9,11.7-21.2c1-4.4,1.5-8.8,2.4-11.8
		C206,321.7,197.3,314.1,193.2,306.3z"/>
	<path d="M261.5,327.5c0.5,2.7,1,6,1.8,9.2c3.2,12.3,10.2,18.3,11.7,21.2c2,3.5,5.2,8.7,0.2,9.6c1.8,1.2,3.6,1.6,5.2,1
		c2.4-0.7,3.8-3.6,3.3-6c-0.9-4.5,0.4-2.2,4.1,1.2c3.7,3.3,11.1,4.4,11.1,4.4c3.3,4.1,8,5.5,9.9,1.5c0.8-2.1-1.8-4.1-1.8-4.1
		c0.7,2,0.3,3.6-1.1,3.7c-2.7,0.4-2.9-3.1-3.7-5.9c-0.5-2.1-1.9-3.9-3.2-5.1c-1.1-0.4-2.2-1.1-3.4-2.5c0,0,1.7,0.9,3.4,2.5
		c3.3,1.2,5.7-1.5,3.8-2.2c-1,0.4-2.4,0.8-2.9-2.2c-0.4-3-2.4-3-2.7-5.3c-0.2-1.7,0.7,2.1,5.1,4.8c3.3,2.2,10,3.2,10.7,3.7
		c0.8,0.8,1.3,1.7-0.7,2.8c0.7,0.8,2.1,0.9,2.7,0.3c1.9-2,0.8-4.5-1-6.7c-3.3-2.6-6.2-5.4-6.2-5.4s3.7,2.5,6.2,5.4
		c3.6,2.9,7.8,5.4,8.9,3.1c0.8-1.7,4.3,1.7,8.1-2.1c3.1-2.8,1.7-7.3-0.7-8.1c-2.6-0.9-0.6,0.7,0.1,1.7c1,1.2,0.7,3.1-0.7,3.7
		c-6.1,2.6-16.2-8.7-19.9-13.9c-3.5-4.9-5.2-12.6-14.9-19.4c-1.9-1.3-5.4-5.6-8.7-10.7C281.7,315.9,272.5,323.1,261.5,327.5z"/>
	<path d="M449.9,236.4c0,0-5.9,3.3-19.9-16.4c-14.1-19.7-41.7-47.9-57.9-60.5c-4-3.1-7.9-5.2-11.3-6.6c0-0.3,0-0.6,0-0.8
		c11.3,4.6,26.1,16.2,30.2,18.5c3.9,2.3,11.6,8.3,18.2,13.6c0,2.6,2.2,5.2,3.4,2.3c0.3,1.4,0.7,3,1.8,3.6c1.1,0.7,3.1,0.9,1.4,2.7
		c1.4,0,2.3-0.8,1.3-3.2c6.8,5.6,21.1,5.6,22.9,5.8c6.2,0.8,9.5,4.7,9.5,4.7c-2.2-6.7-13.2-6.9-15-7.3c-7.6-1.2-11.3-4.3-15.3-7.6
		c-0.8-0.7-1.7-0.9-2.7-1.1c-0.2-1-0.2-1.9-1.7-2.1c-0.6-0.1-0.9-0.9-1.7-1.6c-3.5-3.2-8.6-6.6-12.8-9.5c-3.5-2.3-15.7-9-19.7-12.2
		c-2.3-1.9-5.5-3.6-9-5.3c1.5,0.2,3.1-0.1,4.8-0.7c3.1,7,11.8,5.8,11.8,5.8c4.3,4.7,6.4,3.1,7.3,4.1c2.1,2.2-2.1,1.8,0.3,2.7
		c5.6,0.7,1.9-3.7,1.9-3.7c5.8,4.8,9.5,7.1,13,8.6c3.6,1.6,5.8,1.6,8.2,2.8c3.3,1.8,1.8,3,1.8,3c3.1,0.4,4.1-2.6,3.3-4.3
		c-0.6-1.3-2.2-2.4-2.2-2.4c21.7,5.1,22.3-5.9,19.8-6.7c0,0-1.2,0.7-3.1,0.7s-8.5-1-13-4.2c-3.2-2.2-14.4-9.5-18.6-12.6
		c-4-2.9-20.4-12.5-45.3-20.4c-3.1-0.9-5.8-1.7-8.2-2.2c8.1,0.7,20.2,3.7,23.7,4.5c2.4,0.6,12.5,3.8,18.9,4.8
		c2.7,0.4,2.4,1.2,2.4,1.2c0.9,0.3,1.4-0.2,1.9-0.1c3.7,1.1,13.1,3.1,21,2.7c4.8-0.1,6.8-2.7,17-3.6c-0.6-0.7-4.4-0.7-8,0.4
		c-3.5,1-13.9,1.1-24.2-1.2c-10-2.2-25.7-7.3-38.8-10.6c-5.3-1.4-14.4-2.9-21.7-4.1c1.9,0.2,3.7,0.3,5.5,0.4c2,0.1,7.2-0.5,8.5,0.3
		c4.9,2.3,7.3,1.4,9.5,1.3c1.6,2.5,3.7,3.1,6,1.4c3.6,3.9,8.5,3.3,10.5,2.9c1.6-0.2,2.9-0.2,4.4-1c0.7,0.8-0.7,2.4,0.1,3
		c3.9-2.2,0.7-5.2,0.7-5.2c13.4,5.4,18.3-1.2,22.6,0c0-2.1-3.4-2.5-3.4-2.5c1.8,0.2,3.2-0.1,4.2-1.1c1.6-1.3,2.7-2.6,2.7-4
		s1.2-2.5,1.2-2.5c-1.8-0.4-3.5,1-5.7,1.2c-3,0.3-6.2-0.6-8.7-1c-9-1.8-20.4-6.6-43.5-9.6c-4.2-0.6-11,0-17.2,0.7
		c3-0.6,5.9-1.2,8-2.1c2.5-0.9,6.3-2.4,15.3-2c15.2,0.6,18.2-5.2,19.3-6.9c1-1.7,0.1-2.6-1-0.5c-2,3.4-8.3,4.9-13.5,4.2
		c-0.6,0.6-0.9,0.7-2.2,0.7c-2.9,0.1-5.5,0-7.2-0.1c-3-0.2-10.9,1.5-18.3,3.4c0.1-0.3,0.2-0.6,0.3-0.7c4.9-2.2,9.8-5,15.1-6.7
		c1.3-0.4,1.4-0.8,2.5-0.7c0.9,0.1,2.4,0.6,1.9-0.4c-0.9-1.2,2.6-2.8,4.1-1.1c1.1,1.2,2.2,2.8,3,1.4c1.9-3.7-3-4.3-3-4.3
		c8.7-4.5,3-9.3,1.6-9c-0.3,1.9-2.3,2.6-8.7,4.9c-3.3,1.2-13.2,4.4-21.9,7.1c7.4-7.6,1.8-14.1-2.7-12.7c2.1,1.9,1.7,5.2-9.5,8.2
		c-9.7,2.6-12.8,6.6-16.3,11.8c-3.5,5.1,1.5,6.9,0,10.7c-5.2,12.8,2.9,17.2,6.2,17.2c6.1,0,7.9-0.7,9.1-3.5c1.2-2.5,0.5-3.7,1.2-4.9
		c1.1-0.1,2.4,0.3,2.4,0.3s0.7-0.6-1.6,4.7c-2.2,5.2,0,10.8,0,10.8s1.6,2.7,2.9,4.7s-0.5,5.3-1.3,4.7c-2.8-2.2-4.3-0.5-4.9,0.6
		c-0.6,0.9,0.1,1.9-0.7,2.7c-0.8,0.7-2,0.4-3.1-0.4c-1-0.7-1.5-1.4-1.5-3.4c0-1.8,0-3.3-2.9-3.8c-1.9-0.4-3.5,1.6-4.9,3.7
		c-1.3-0.3-2,1.4-1.8,4.4c-0.8,2.1-1.6,2.4-2.2,3.2c-0.8,1.2-3.5,2.2-4.6,7c-1.6,7,5.1,5.9,8.1,8.5c2.9,2.4,2.7,5.2,2,6.7
		c-1.4,2.2-3.2,2.7-5.3,3.4c-2.8,0.8-1,2.5-4.4,3.7c-3,1-8.1-1.5-17.4,2.6c-10.3,4.5-14.2,9.9-15.5,14.2c-2.7-0.7-5.1-0.7-5.1-0.7
		c-3.6-5.7-8.1-4-8.1-4c-1.2-4.2-0.4-6.3-0.4-6.3c1.4,3.1,4,2.6,2.8,3.8c-0.8,0.8,0.2,0.4,0.7,0.3c1.2-0.3,0.9-1.7,0.9-1.7
		c5.5,0.4,4.2-4.1,4.2-4.1c-1.2,2.5-6.6,3.3-6.6-2.7c-0.1-9.8,2.5-15.6,2.5-15.6c0,7.9,3.2,9.4,3.7,10.6c1.1,2.9-1.9,2-1.9,2
		c0.5,2.1,2.9,2.6,3.5,1.7c0.6-0.7,0.8-1.3,1.6-1.3s1.7,3.2,6.8,2.2c7.5-1.4,6.3-7.6,5.1-9.4c-1.1-1.4-2.4-2-1.2,0.2
		c1.6,2.5-0.6,5.1-3.6,4.8c-4.2-0.7-5-4.5-6.3-10c-1.2-5.6,1.3-21.5,1.3-21.5s2.2,7.3,4.5,12.9c1.6,3.7,5.1,7.1,7.4,8.1
		c2.5,1,4.3-0.4,4.3-0.4c1.6,1.5,4.6,3,7,1.7c3.4-1.7,2-5,1.6-4.7c-0.2,0.3-0.3,1.3-0.7,2.2c-0.5,0.7-1.5,2.2-5.2,0.6
		c-6.1-3-8-11.1-6.9-9.9c1.2,1.4,2.1,2.4,3.7,1.7c3.4-1.2,0.5-4.3,0.5-4.3s0.8,2.5-1,2.5c-1.6,0-1.3-0.8-1.2-2.2
		c0.2-4.5-3.4-5.6-3.4-5.6c0.4-1.5,0.1-2.5-0.9-3.3s-1.9-0.8-1.9-0.8c-5.1-8.8-2.7-13.9-2.7-13.9c5.3,2.1,3.4,6.6,3.4,6.6
		c3.2,1,3.8-3,3.8-3c4,2.5,9.1,2.2,11.1-0.4c2.7-3.4,0.5-6.1-0.4-6.6c-0.7-0.5,1.6,2.6-1,3.8c-2.9,1.6-8.2-2.2-12.8-6.6
		c-4.7-4.6-7.1-11.7-7.1-11.7s3.7,2.1,5,2.8c1.5,1.1,4.7,0.9,4.7,1.5c0.3,1.7-1.4,1.1-2,1.5c-0.6,0.3,1.1,1,3.5,0.5
		c2.2-0.6,1.1-5.9,1.1-5.9c11.7,4,14.7,12.6,15.1,15.7c1,6.5,2.8,2.7,2.7,7.3c0,2.7-2.5,4.2-4.2,4.7c-2.1,0.6-3.5-1.4-3.5-1.4
		c0.7,2.7,3.7,3,6.5,1.2c3.7-2.2,3.7-7.1,3.7-7.1s0.6-3.2-0.5-6.7c-1.6-5.5-4-10.3-10.6-15.7c-7.4-6.2-27.7-15.8-27.7-15.8
		s2.1,0.4,4.2,0.8c2.7,0.7,4.6,1.3,8.1,2.3c3.7,1,8,1.9,12.5,0.1c3.7-1.3,4.3-2.6,5.5-0.7c1.4,1.8-2.3,3.6-2.3,3.6
		c3.2,0.2,6.1-3.4,6.4-5.6c0.2-2.8-3.6-3.2-3.6-3.2c7.8-3.2,11.5-12.4,11.1-18.2s-4.9-8-7.9-6.9c-3.7,1.4-2.3,4.1-2.3,4.1
		c0.2,0.6-0.1-2.7,3.3-2.3c1.8,0.3,3,4.6,2.6,7c-0.4,2.5-3,9.3-11.7,13c-8.4,3.6-28.9-2.3-28.9-2.3s10.1,1.4,13,0.8
		c3.3-0.7,2.5,1.4,2.5,1.4c3.1-0.3,2.2-3.8,2.2-3.8c2.2-1.4,4.8-3.6,4.8-6.8c0-4.6-2.2-5.8-3.7-5.7c-1.1,0.1-1.6,1.9-1.6,1.9
		s1-0.8,1.9-0.3c0.6,0.5,1.6,2.2,0.3,4.8c-3.1,6.4-22.9,3.1-22.9,3.1c7.1-1.1,12.4-2.1,13.6-4.9c2.2-5.1-2.2-5.1-2.7-4.3
		c0,0,2.2,1.1,0.1,3.2c-1.1,0.9-3.2,1.7-6.2,1.7c-0.7,0-3.7,0.1-6.5-0.2c-14-1.1-28.3-0.4-34.4,0.4c0,0-1.1-2.6-4.5-1.1
		s-1.9,5.5-1.9,5.5c-6.5-0.6-3.3,4.8-3.3,4.8s0,0,0,0.1l8.8,0.5c0,0,10.2-0.1,16.9,0.2c0,0,13.9,2.2,13.9,3.7
		c0,1.4-6.2,8.7-6.2,11.8c0,3,6.7,13.1,6.7,27.7c0,0-6.9,3-7,1.8c0.7,6.1-3.6,15.3-10.5,15.3c-5.1,0-5.5-3-6.5-5.7
		c-0.8-2.8,1.9-2.8,1.9-2.8c-2.1-2.2-3.9,0.2-3.9,0.2s-0.2,2.1-0.3-1.3c-0.3-3.4,3.4-4.5,5.6-3c1.2,0.8,1.5,2.8,1.5,2.8
		c1.7-1.7,0.9-6.5-5-6.9c-7.2-0.6-9.5,6.1-9.5,8.2c0.1,5.4,3.7,7.4,3.7,7.4s-3-1.5-5.3-3.5c-7.9-6.3-13.9-6.9-16.4-6.9
		c-2.2,0-8.1,0.9-11.7,3.6c-5.3,3.9-6.2,3.7-7,2c-2.1,1.7-0.4,4,1,3.5c-6.2,4.8-4.8,17.9-1,16.4c1.7,2.5,3.6,3.6,4.4,4.1
		c2.2,1.2,7.5,0.1,8.8-0.8c1.3-0.9,2.7-3.7,1.3-5.9c-1.7-2.5-3.5-0.4-3.5-0.4c0.3,0.5,1.1,1.2,0.7,2.4c-0.3,1.2-3.2,2.1-4.9,1.5
		c-2.7-0.8-3.7-3.6-3.9-4.7c-1.3-7.9,5.7-11.6,8.6-12.4c1.3-0.5,6-0.9,6.6,0.3c2.2,4.5,6.2,7.5,7.5,8.3c0.9,0.6,4.1,2,4.1,2
		c-1.5-0.7-9.1-0.2-9.1,8.2c0,4,3.5,6.6,6.1,6.6c1.5,0,2.2-0.9,2.2-0.9c-1.9-0.5-3.2-1.3-3.4-2c-2.1-4.8,1-6.7,3-7.2
		c1.1-0.2,2.8,0.7,3.7,2c0.1,0.1-0.9,0.6-1.4,1.7c-0.4,0.8-0.7,3,0.1,2.4c1.3-2.7,3.1-1.6,3.2-1.5c2.4,3.6,5.2,0.7,5.2,0.7
		c4.1,2.4,8.9-0.2,8.9-0.2c-8.9,7.9-10.9,23.4-10.9,23.4c-5.1-1.5-11,4.9-11,4.9c-0.1,0-0.2,0-0.3,0c-2.1-3.6-6.3-7.7-14.2-11.1
		c-9.3-4.1-14.4-1.6-17.4-2.6c-3.4-1.1-1.6-2.8-4.4-3.7c-2.2-0.7-3.9-1.2-5.3-3.4c-0.7-1.5-0.9-4.3,2-6.7c3.1-2.6,9.7-1.4,8.1-8.5
		c-1.1-4.9-3.7-5.8-4.6-7c-0.6-0.7-1.3-1.1-2.2-3.2c0.2-2.9-0.5-4.7-1.8-4.4c-1.4-2.2-3-4.1-4.9-3.7c-2.9,0.6-2.9,2.1-2.9,3.8
		c0,2-0.5,2.6-1.5,3.4c-1.1,0.7-2.2,1.2-3.1,0.4c-0.7-0.7-0.1-1.8-0.7-2.7c-0.6-1-2.1-2.8-4.9-0.6c-0.8,0.7-2.6-2.7-1.3-4.7
		c1.3-1.9,2.9-4.7,2.9-4.7s2.2-5.5,0-10.8c-2.2-5.2-1.6-4.7-1.6-4.7s1.3-0.4,2.4-0.3c0.7,1.1,0,2.3,1.2,4.9c1.2,2.7,3,3.6,9.1,3.6
		c3.3,0,11.4-4.5,6.2-17.3c-1.5-3.7,3.5-5.6,0-10.7s-6.6-9.2-16.3-11.8c-11.1-3-11.5-6.4-9.5-8.1c-4.5-1.5-10.1,5.1-2.7,12.6
		c-8.7-2.7-18.6-5.9-21.9-7.1c-6.4-2.2-8.4-3-8.7-4.9c-1.4-0.3-7.1,4.5,1.6,9c0,0-4.9,0.7-3,4.3c0.8,1.5,1.9-0.1,3-1.4
		c1.5-1.7,5.1-0.1,4.1,1.1c-0.6,0.9,0.9,0.5,1.9,0.4c1.1-0.1,1.2,0.4,2.5,0.7c5.2,1.9,10.2,4.6,15.1,6.7c0.1,0.2,0.2,0.5,0.3,0.7
		c-7.4-1.9-15.3-3.6-18.3-3.4c-1.7,0.1-4.3,0.3-7.2,0.1c-1.2,0-1.6-0.1-2.2-0.7c-5.1,0.7-11.5-0.7-13.5-4.2C94,89,93,90,94.1,91.7
		s4.1,7.5,19.3,6.9c9-0.5,12.7,1,15.3,2c2.2,0.8,5.1,1.5,8,2.1c-6.3-0.7-13-1.3-17.2-0.7c-23.1,3-34.5,7.9-43.5,9.6
		c-2.5,0.5-5.7,1.3-8.7,1c-2.2-0.2-3.9-1.6-5.7-1.2c0,0,1.2,1.1,1.2,2.5s1.1,2.7,2.7,4c1,1,2.4,1.3,4.2,1.1c0,0-3.4,0.5-3.4,2.5
		c4.4-1.2,9.3,5.4,22.7,0c0,0-3.4,3,0.6,5.2c0.8-0.6-0.6-2.2,0.1-3c1.5,0.8,2.8,0.8,4.4,1c2,0.4,6.9,1,10.5-2.9
		c2.3,1.7,4.4,1.1,6-1.4c2.2,0.1,4.6,1,9.5-1.3c1.3-0.7,6.6-0.2,8.5-0.3c1.8-0.1,3.6-0.2,5.5-0.4c-7.3,1.2-16.4,2.8-21.7,4.1
		c-13.1,3.3-28.8,8.3-38.8,10.6c-10.4,2.4-20.8,2.2-24.2,1.2c-3.6-0.9-7.4-1.1-8-0.4c10.2,0.8,12.3,3.5,17,3.6
		c7.9,0.4,17.2-1.6,21-2.7c0.5-0.1,0.9,0.4,1.9,0.2c0,0-0.3-0.9,2.4-1.3c6.4-0.9,16.5-4.2,18.9-4.8c3.5-0.8,15.5-3.7,23.7-4.5
		c-2.4,0.6-5.1,1.3-8.2,2.2c-24.9,7.9-41.3,17.5-45.3,20.4c-4.2,3.1-15.4,10.4-18.6,12.6c-4.5,3.2-11.1,4.2-13,4.2s-3.1-0.7-3.1-0.7
		c-2.4,0.8-1.9,11.9,19.8,6.7c0,0-1.6,1.2-2.2,2.4c-0.8,1.7,0.2,4.7,3.3,4.3c0,0-1.5-1.2,1.8-3c2.4-1.2,4.7-1.2,8.2-2.8
		c3.5-1.5,7.2-3.8,13-8.6c0,0-3.7,4.3,1.9,3.7c2.3-0.9-1.8-0.6,0.3-2.7c0.9-1,3,0.6,7.3-4.1c0,0,8.7,1.2,11.8-5.8
		c1.7,0.6,3.3,0.8,4.8,0.7c-3.5,1.7-6.6,3.5-9,5.3c-3.9,3.2-16.2,9.8-19.7,12.2c-4.2,3-9.4,6.4-12.8,9.5c-0.7,0.7-1.1,1.5-1.7,1.6
		c-1.5,0.3-1.5,1-1.7,2.1c-1,0.2-1.9,0.5-2.7,1.1c-3.8,3.3-7.7,6.4-15.3,7.6c-1.8,0.4-12.8,0.6-15,7.3c0,0,3.3-3.8,9.5-4.7
		c1.9-0.2,16.1-0.2,22.9-5.8c-1,2.3-0.1,3.2,1.3,3.2c-1.7-1.8,0.3-2,1.4-2.7c1-0.7,1.5-2.2,1.8-3.6c1.1,2.9,3.4,0.3,3.4-2.3
		c6.6-5.2,14.2-11.2,18.2-13.5c4.1-2.3,18.9-14,30.2-18.6c0,0.3,0,0.6,0,0.8c-3.5,1.4-7.3,3.6-11.3,6.6
		c-16.3,12.5-43.8,40.8-57.9,60.5c-14,19.7-19.9,16.4-19.9,16.4s-1.5,5.6,4.4,7.4c5.9,1.8,19.7-3.3,21.5-6.4c0,0-0.7,2.6-0.4,4.1
		c0.5,3.2,2.6,4.9,6,2.4c0,0-3.7-0.7-1.6-3.9c0.9-1.2,4.3-0.6,6.4-7.6c1.6,0.2,9.3-3.7,9.4-11.3c0-0.5,0-0.9,0-1.4
		c0,0.5,0,0.9,0,1.4c0.1,3,0.5,5.3,2.2,6.2c1.5,0.7,3.7,2.3,5.3,0c0,0,0.9-0.7-0.8-1c-3.3-0.6-2.5-5,0.3-5.5c1.7,3.5,7.3,1,6.7-8.2
		c2,1.6,7,1.4,11-10.6c2.1,2.5,8.2-2.5,8.5-9.2c0,0,4.2,4.4,8-6.4c0.8,0.6,2.2,0.3,3.7-0.7c-10.5,11.8-22.9,25.9-29.8,34.6
		c-14.9,19-22.5,27.6-30.4,40.4c-4.9,7.9-13.6,18.1-23.7,23.9c0,0,10.9,0.1,28.4-22.8l1.3-1.7c0.4,1.6,1.6,1.7,2.8,0.6
		c-1.3-0.4-2.1-0.9-0.2-3.7c1.6-2.1,5.2-2.7,5.6-6.9c2.4-0.4,3.2-1.3,3.8-4.3c2.2,1.3,4.3-1,3.6-5.1c0,0,15.5-21.4,20.5-27.1
		l8.2-10.2c0.7-0.8,1.3-1.7,2-2.4c-0.6,0.8-1.3,1.6-2,2.4c-7.8,9.8-17.3,23.4-20.1,34.8C74.3,278,65.2,298.9,59.3,313
		c-2.8,6.6-7.8,10-10.5,18.5c-1.8,5.8,0.7,16.1,7.7,13.9c0.7-0.1-0.6-1.6-0.4-3.7c0.6-6.4,15.2-8.5,21.3-17.5
		c1.7-2.3,4-7.7,5.8-13.8c1.3-5.1,2.2-11.1,2.2-11.1s-1.7,14.1,6.6,14.9c0,0-2.4-2.7,0-5c3.3-3.1,7.1-7.3,7.4-16c0-0.5,0-0.9,0-0.9
		c0,0.3,0,0.6,0,0.9c0,1.6,0.5,5,3.6,5.4c0,0-1.4-3.6-0.1-7.1c2.2-6.6,4.2-8.5,4.2-22.1s2-14.5,2-14.5s-2.8,11.1,3,13.4
		c-1.7-4.6,0.9-10.1,6.7-16.1c3.1-3.6,3.8-12.8,4.1-18.4c4.1-0.2,4.1-3.4,4.1-6.5c3.6-0.7,3.9-11.4,11.6-24.7
		c-8.6,26.9-20.4,63.1-24.3,72.4c-6.6,15.5-20.8,69.6-37.2,89.6c0,0,8-2.7,25.3-40.1c2.2,1.6,3.2,1.1,2.5-6c-0.1-0.3-0.1-0.7-0.1-1
		c0,0.4,0,0.7,0.1,1c0.5,2.3,2.6,3.3,3.5,1.9c-1.3-0.4-1.7-2.2-0.7-3.1c2.3-1.7,1-5.3,0.7-6c0,0,3.9,2.2,2.9-8.3
		c-0.4-5.1,19.7-60.1,30.9-97.4c0.2,0.1-15.4,60.5-16,62.7c-11.8,51.8-15.5,51.1-26.7,120.8c0,0,21.7,2.7,26-34.1
		c0,6.6,5.3,8.9,8.3,5.1c-3.9,0-6.2-4.2-3.4-7.4c6-6.7,3.6-20.8,3.6-28.7c0,0,1.2,5,3.1,6.5c1.3,1.1,5.2,3.6,2.8,9.6
		c0,0,7.6-5,1.4-14.6c4-3,5.8-10.4,5.3-17.4c-0.1,0.1-0.2,0.1-0.2,0.1c0.1-0.2,0.1-0.4,0.2-0.6c-0.3-2.7-0.9-5.3-1.9-7.6
		c-3.7-8-0.6-3-0.6-3s4.6,2.9,2.5,10.6c0,0.2,0,0.3,0,0.5c1-0.5,6-3.4,3.2-14.9c0,0,0.8-2.2,0-6.7c0,0,5.3,0,3.3-17.6
		c-0.1-0.7,1.2,1.4,2.3-1.1c0.8-1.3-2.8-4.3-2.6-5.7c0.4-2.7,2.2-0.7,2.6-4.9c0.4-2.3-1.1-4.8-0.3-9.2c0,0,3-13.4,4.6-18.8
		c0.7-2.7,1.6-6.2,2.2-10l0.3,0.2c-2.9,24-6.6,57.2-7,73.3c-0.7,26.7-1.5,41.5-6.7,48.2c0,0,8.4-7.3,10.7-25.6
		c0.1-1.8,0.4-3.5,0.4-5.2c1.2,1.1,2.3,0.3,2.5-1.3c-1.3,0.5-2.2,0.5-2.4-2.8c-0.1-2.6,2.5-5.3,0-8.9c1.5-1.1,3.1-2.7,0.5-5.6
		c1.2-0.8,2.3-3.9,0.4-5.8c0.1-3.1,3.4-46.7,5.7-68.4c0,0,0.1-0.1,0.2-0.2c-0.4,19.7-1.1,54.3-2.2,60.1c-1.5,8.1,0.1,25.5,1.4,34.1
		c2.2,14-1.4,19.9-1.4,19.9s13.3-1.9,13.3-31.5c0,0,0.1,2.8,0.7,6.5c1.4,3.7,6.5,5.9,8.1,2.2c-2-0.8-2.9-2.6-1.3-4.9
		c1.6-2.1,2-8.6-2.7-16.5c-0.4-0.6-0.6-1-0.6-1c0.2,0.3,0.4,0.7,0.6,1c0.9,1.3,2.6,3.4,4.9,3.9c1,0.3,2.8-0.2,3.5-3.2l0,0
		c-2.2,1.4-5.3-1.7-5.2-7.2c0,0,2.2,2.2,3.7,0.7s0.7-6.5-2.2-11.1c0,0-0.4-6.3-1.5-12.1c-0.7-3.3,0.5-10.1-3-15.3
		c0.7-0.8,1.5-1.8,2.1-7.9c0.3-2.3,0.7-4.3,0.6-6.7c1.2,11.6,2.7,26.2,3.7,31.4c0.8,4,1.4,7.5,1.9,10.7v-25
		c-0.1-0.1-0.2-0.2-0.4-0.3c0,0-0.5-10.6-0.7-20.1c0.1-0.2,0.2-0.3,0.3-0.4c0.2,2.5,0.5,5,0.8,7.6v-32.6h98.3V232
		c0.4-2.6,0.6-5.2,0.8-7.6c0.1,0.1,0.2,0.2,0.3,0.3c-0.3,9.6-0.7,20.2-0.7,20.2c-0.1,0.1-0.2,0.2-0.4,0.3v25
		c0.5-3.1,1.1-6.7,1.9-10.7c1-5.2,2.6-19.8,3.7-31.4c-0.1,2.3,0.3,4.4,0.6,6.7c0.6,6.1,1.3,7,2.1,7.8c-3.5,5.2-2.3,12.1-3,15.4
		c-1.1,5.8-1.5,12.1-1.5,12.1c-2.9,4.7-3.7,9.6-2.2,11.1c1.5,1.6,3.7-0.7,3.7-0.7c0.1,5.6-3.1,8.7-5.2,7.3l0,0
		c0.8,3,2.5,3.5,3.5,3.2c2.3-0.5,4-2.6,4.9-3.9c0.2-0.3,0.4-0.7,0.6-1c0,0-0.2,0.4-0.6,1c-4.7,7.9-4.3,14.4-2.7,16.5
		c1.6,2.2,0.7,3.9-1.3,4.9c1.7,3.7,6.7,1.6,8.1-2.2c0.7-3.7,0.7-6.5,0.7-6.5c0,29.7,13.3,31.5,13.3,31.5s-3.6-5.9-1.4-19.9
		c1.3-8.6,2.9-25.9,1.4-34.1c-1-5.8-1.8-40.4-2.2-60.1c0.1,0.1,0.2,0.2,0.2,0.2c2.3,21.7,5.6,65.3,5.7,68.4c-2,1.9-0.8,5,0.4,5.7
		c-2.6,3-1,4.6,0.5,5.7c-2.5,3.6,0.1,6.3,0,8.9c-0.3,3.3-1.1,3.3-2.4,2.8c0.2,1.6,1.3,2.4,2.5,1.3c0,1.8,0.3,3.5,0.4,5.1
		c2.2,18.3,10.7,25.6,10.7,25.6c-5.2-6.6-6-21.4-6.7-48.1c-0.5-16.1-4.1-49.3-7-73.3l0.3-0.2c0.7,3.7,1.5,7.3,2.2,10
		c1.6,5.4,4.6,18.8,4.6,18.8c0.8,4.4-0.7,6.8-0.3,9.2c0.5,4.1,2.2,2.2,2.6,4.9c0.2,1.4-3.5,4.3-2.6,5.7c1.1,2.5,2.4,0.4,2.3,1.1
		c-2.1,17.6,3.3,17.6,3.3,17.6c-0.8,4.5,0,6.7,0,6.7c-2.9,11.5,2.1,14.4,3.2,14.9c0-0.2,0-0.3,0-0.5c-2.1-7.7,2.5-10.6,2.5-10.6
		s3.2-5.1-0.6,3c-1,2.2-1.7,4.9-1.9,7.6c0.1,0.2,0.1,0.4,0.2,0.6c0,0-0.1,0-0.2-0.1c-0.6,6.9,1.3,14.3,5.3,17.4
		c-6.2,9.6,1.4,14.6,1.4,14.6c-2.4-6.1,1.5-8.5,2.8-9.6c1.9-1.5,3.1-6.5,3.1-6.5c-0.1,8-2.4,22,3.6,28.7c2.8,3.2,0.6,7.4-3.4,7.4
		c3,3.7,8.3,1.4,8.3-5.1c4.3,36.8,26,34.1,26,34.1c-11.1-69.7-14.9-69.1-26.7-120.8c-0.6-2.2-16.2-62.7-16-62.7
		c11.1,37.3,31.3,92.4,30.9,97.4c-1,10.6,2.9,8.3,2.9,8.3c-0.4,0.7-1.7,4.3,0.7,6c0.9,0.8,0.6,2.7-0.7,3.1c0.9,1.5,3,0.4,3.5-1.9
		c0-0.4,0.1-0.7,0.1-1.1c0,0.4-0.1,0.7-0.1,1.1c-0.7,7.1,0.2,7.6,2.5,6c17.3,37.3,25.3,40.1,25.3,40.1c-16.4-20-30.5-74-37.2-89.7
		c-3.9-9.3-15.7-45.5-24.3-72.4c7.7,13.2,8,24,11.6,24.7c0,3.1,0,6.3,4.1,6.5c0.3,5.5,1,14.9,4.1,18.4c5.8,6,8.4,11.5,6.7,16.1
		c5.8-2.2,3-13.4,3-13.4s2,0.8,2,14.5c0,13.5,2.1,15.5,4.2,22c1.3,3.6-0.1,7.2-0.1,7.2c3.1-0.4,3.6-3.8,3.6-5.4c0-0.3,0-0.6,0-0.9
		c0,0,0,0.3,0,0.9c0.2,8.7,4.1,12.9,7.4,16c2.4,2.2,0,5,0,5c8.3-0.7,6.6-14.9,6.6-14.9s0.9,6.1,2.2,11.1c1.8,6.1,4.1,11.4,5.8,13.8
		c6.2,9,20.8,11.1,21.3,17.5c0.2,2.2-0.9,3.7-0.4,3.7c6.9,2.2,9.5-8.1,7.7-13.9c-2.7-8.5-7.7-12-10.5-18.5
		c-5.9-14.1-15.1-35-31.5-74.8c-2.8-11.4-12.3-25-20.1-34.8l-2-2.4l2,2.4l8.2,10.2c5,5.7,20.5,27.1,20.5,27.1c-0.7,4,1.4,6.4,3.6,5
		c0.7,3.1,1.4,4,3.8,4.4c0.4,4.1,4,4.9,5.6,6.9c1.9,2.8,1.1,3.4-0.2,3.7c1.2,1.1,2.4,1,2.8-0.6l1.3,1.7
		c17.5,22.9,28.4,22.8,28.4,22.8c-10.1-5.8-18.8-16-23.7-23.9c-8-12.8-15.5-21.5-30.4-40.4c-6.8-8.7-19.3-22.8-29.8-34.6
		c1.5,0.9,2.8,1.2,3.7,0.7c3.7,10.8,8,6.4,8,6.4c0.3,6.6,6.5,11.7,8.5,9.2c4,12,9.1,12.2,11.1,10.6c-0.7,9.2,5,11.7,6.6,8.2
		c2.8,0.6,3.6,5,0.3,5.5c-1.8,0.4-0.8,1-0.8,1c1.7,2.3,3.8,0.7,5.3,0c1.7-0.9,2.1-3.3,2.2-6.2c0-0.4,0-0.9,0-1.3
		c0,0.5-0.1,0.9,0,1.3c0.1,7.7,7.8,11.6,9.4,11.3c2.1,7.1,5.4,6.4,6.4,7.7c2.2,3.2-1.6,3.9-1.6,3.9c3.4,2.4,5.5,0.7,6-2.4
		c0.4-1.5-0.4-4.1-0.4-4.1c1.9,3.1,15.6,8.1,21.5,6.4C451.3,241.9,449.9,236.4,449.9,236.4z"/>
	<path d="M222.3,328.7c-1.4,2.9-3.4,6.4-1.9,8.7c1,1.6-0.9,3.6,1.9,6.4c0.9,0.9,2.9,1.3,4.3,0.1c2-1.6,1.8,0.3,1.1,2.8
		c-1.1,4.4-5.7,11-8.1,15.1c-0.6,1-1.4,1.3-1.7,1.8c-1.4,1.5,0.1,2.4-0.9,2.2c-0.6-0.2-1.9-1.2-4.1,0.4c-1.7,1.2-2.1,4.6-3.7,5.1
		c-4.2-2.2-20.3,2.5-17.8,13.6c-3.4,5-2.6,14.3,4.4,15.4c6,0.7,6-4.5,4.7-2.6c-1.5,2-11.1-0.6-4.7-9c2-2.4,4.7-2.4,4.7-2.4
		s-1.6,2.3-1.8,4.5c-0.1,2,1.4,4,4.4,3.2c1.9-0.6,3.2-3.6,1.4-2.4c-3.6,2.4-4.2-2.3-2.2-3.4c1.5-0.7,2.5-1.3,2.7,0.6
		c0.3,1.7,4.1,1,5.8-3.3c1.1,0.3,6.2-2,14.3-12c1.7-2.2,1.5-2.6,3-4.5s0.7,0,0.5,2.6c-0.4,1.9-4.5,18-16.2,27
		c-0.6,0.8-0.1,0.5-0.8,0.5c-0.8,0-3.5,0.4-3.1,2.2c-4.2,2.3-8.8,3.6-14.5,3.5c-13.5-0.4-12-13.1-11.7-15.2c0.1-1.8,4.1-5.3,5.3-0.8
		c0,0,0.4,0.8,0.7-0.9c0.1-1.4-1.2-2.8-3.3-2.6c-2,0.1-5.1,1.7-5.7,4.6c0,0.5-6.4,4.4,0.1,14.4c0,0-6.2,0.6-4.7,7
		c0.5,1.6,2.3,3.9,5.8,2c0,0-2.2-0.5-1.9-2.4c0.2-1.6,1.1-2.3,2.8-1.5c0.4,0.2-0.5,0.8,0.6,1.6c0.6,0.5,0.7,0.6,1.5,0.5
		c1,2.5,3.6,7.4,23.4-0.2c0,0-6.8,4.4-11.1,5.5c-9.5,2.4-11.5-0.5-12.3,0.4c-0.6,0.6-0.9-0.8-1.6-0.9c-5.2-0.9-9,4.2-10.5,4.7
		c-1.4,0.4-2.9,0.7-3.5-1.7c-0.7-3,4.2-3.6,2.1-3.2c-5.7,0.7-6.2,6.5-3.1,8.7c0,0-5.5,0.3-5.6,4.1c0.1,0.1,0,0.2,0,0.2
		c0-0.1,0-0.1,0-0.2c-0.1-0.1-0.4-0.3-1.4-0.4c-1.8-0.4-4.5,2.5-5.1-2c-0.1-1.1,2.2-4.4,0-2.2c-2.2,2.2-3.7,13.1,7.2,14.4
		c3.5,0.5,5.7,0.1,5.7,0.1s-0.3,1.2-1.8,1.5c-4.3,1.1-10.3,1.7-13.9-4.9c-1.5-2.5-3.1-5-2-10.5c0.3-0.8,2-0.6,2.6-3.4
		c1.4-0.1,1.4-1-0.3-0.6c-1.5,0.4-0.3-2.4,0-2.7c1.2-2,2.4-3,3.8-3.6c2.9-1.5,4.7-1.1,6.4,1.5c0.5,0.7,0.2,3.2,0.2,3.2s1-0.8,1-3.1
		c0-2.4-3.1-4-5.9-4.6c-6.5-1.4-17.2,3.7-12.8,18.6c0,0-5.5,8.5,4.9,16.4c5.1,3.8,9.9,3.6,12.8,2.6c0,0-4.4,2.6-4,7
		c0.2,2.2-1.6,5.1-3.6,4.3c0,0-1.5-1.7,0,0.7c1.7,2.6,4.9-0.6,4.9-0.6s0.7,6.3,5.9,6c0,0,4.6-0.7,4-3.6c0,0-1.5,1.7-3.5,1.1
		c-1.8-0.6-2.3-4.2-1.2-5.3c1.1-1.1,1.5-0.7,2.2-0.6c0.7,0.3,1.7-0.9,1.3-1.7c-0.3-0.7,1.3-3.3,3.2-3c1.9,0.4,10-0.8,9.4-8
		c0,0,6.8-4.3,4.8-8.7c0,0,17.3-2.5,30.3-17.7c11.7-13.8,16.6-28.8,16.6-32.4c0-0.8,1-0.6,0.7,1.8c-0.2,2.2,0.7,14.8-6.4,29.2
		c-1.2,2.4-2.8,5.1-5,7.4c-2.1,2.2-6.6,5.7-7.1,5.9c-1.6,0.7-2.1-0.6-3.7,0.1c-2.2,1-1.6,2.7-1.6,2.7c-0.6,0.4-1.1-0.8-3.3-0.3
		c-1,0.2-2,1.1-2.3,1.9c-1.4,3.6-4.6,3.6-5,0.4c0,0-3.2,3.7,0.7,5.2c0,0-7.6,1.3-14.2,9.8c-6.7,8.5-5.2,28.4,2.6,30
		c1.5,0.3,0.8,8.5,16.9,8.2c3.6,0,7.6-2.1,7.9-5.3c0,0-0.7,0.9-1.2,1.5c-0.7,0.7-17.1,6.2-22.2-13.4c-3.5-13.8,6.7-20.1,11-21.3
		c4.3-1.4,7.5-2.1,7.5-2.1s-0.6,5.9,5,5.9c0.9,0,3.3-2.6,3.2-3.2c0,0-1.9,1.1-2.8,0.6c-0.9-0.6-0.9-3.5,0.6-4.1s3.7,0.8,3.2-2.7
		c0,0,10.2-5.1,12.6-13.5c0.3-1.4,1.3-3.7,1.7-2.2c0,0,0.6,3.5-1,9.1c-0.6,1.9-1.5,4.5-3,7c-1.2,1-1.2,1-1.6,2.6
		c-0.3,0.5-1.2,1.8-1.6,2.2c-1.9,2.6-4.3,5.4-7.4,8.5c-2.3,2.4-5.5,3.3-7.6,3.3s-6.9-0.7-7-3.8c-0.1-2.8,1.2-3.2,3.3-3.4
		c0,0-2.5-3-6.3,0.7c-3.4,3.3-3.7,12,4.1,14.3c0,0-8.6,2.5-3.7,9c1,1.2,3.6,1,2.8,0.4c-2.4-1.9-0.8-5-0.2-5.3
		c0.5-0.4,1.6-0.4,1.6-0.4c0.4,0.7,1.2,1.8,2.8,2.2c2.1,0.5,9.8,0.4,11.8-5.8c0,0,2.5,0.8,5.8-4c7.7-11.5,8-14.2,8.3-15.1
		c0.4-0.7,1.2-2,1.5,0c0.1,1.2-0.3,4.5-0.9,7.6c-0.7,0.8-0.4,1.4-0.5,1.8c-0.9,0.1-1.2,1.7-0.4,2.6c-0.3,0.3-1.1,0.6-1.6,0.9
		c-4.6,2.8-6.1,7.8-6.1,12c0,4.3-1,5.7-2.5,6c-1.6,0.4-2.9-0.7-2.6-2.3c0,0-1.2,0.4-1.4,1.8c-0.3,2.1,1.9,4.1,4,4.5
		c2.6,0.5,5.6-1.9,6.1-4.8c0.3-3.1,1-2,1.2-0.6c0.1,0.7,0.5,3.7,2.9,6.5c1.6,1.6,2.8,3.8,2.5,6.1c-0.1,2.3-2.1,7.9,2.7,11
		c3.2,2.2,7.2-0.9,6.4-2.3c0,0-7.7,4-4.1-6.8c0.7-2.2,0.6-3,0.6-3c5,1.7,6.2-10.2,6.5-11.4c0.2-1.4,0.7-2.6,1.1,0.3
		c0.4,3,4.4,6.9,8.5,5.1c2.1-0.9,3.6-2.1,3.2-4.1c-0.4-2.1-1.9-2.1-1.9-2.1c0.4,2-0.2,2.9-1.9,2.9c-1.6,0-2.6-1.9-2.4-6.4
		c0.4-5.2-2.2-8-5.3-11.1c-0.6-0.6-1.1-1.1-1.7-1.8c-3.7-3.8-4.2-10.9-3.9-12.9c0.2-2.1,1.1-0.3,1.4,0.4c0.4,0.7,1.2,5.3,9.3,15.2
		c8.7,10.9,12.3,8.5,12.3,8.5c1.1,0,2.3,0,3.8,0.6s2.6-1.9,4.3-1.8c2.6,0.2,2.5,3.9,1.9,4.4c-2.2,2-0.7,2.1-0.7,2.1
		c6.5-2.1,4.2-8,2-9.2c-1.1-0.7-2.7-0.7-2.7-0.7c6.4-6.3,5.2-11.1,3.5-13.9c-2.2-3.7-5.9-0.6-5.9-0.6c0.7,0.8,3.7-1.4,3.9,3.2
		c0.2,4.1-5.2,5.1-7.3,5.1c-2.1,0-6.7-1.8-9.1-4.2c-18-17.9-13.8-29.6-13.8-29.6c0.4-1.5,0.9,2.3,1.7,3.5
		c5.2,8.1,13.9,11.2,13.9,11.2c-1.3,3,1.5,4.5,3.6,3c2.7-2.1,5.3,2.5,1.5,4.4c-3,1.5-3.6-2.1-3.6-2.1c-1.3,2-0.2,4.1,1,4.9
		c5.2,3,8.6-2.9,6.9-5.7c-0.6-1,1.7,1.4,4.4,2.5c3.2,1.3,16.8,1.2,14.3,20.9c-2.3,20-18.1,16-20.2,15.3c-1.7-0.6-2.9-3.7-2.9-3.7
		c-1.5,5.6,5.5,6.4,9.1,6.4c3.5,0,7.3-1,12.6-4.5c1.8-1.1,7.7-8.2,7-13.9c6.6-2.6,1.7-16.8-1.4-20.6c-6.9-8.3-17.5-10.8-17.5-10.8
		c4.7-0.6,1.3-4.7,1.3-4.7c-1.1,2.6-3,2.6-6.2-0.6c-1-0.9,0-3.6-2.3-4.4c-2.5-0.9-3.6,0.7-4.3,0.3c0,0,0.7-1.4-0.3-2.3
		c-1.8-1.7-2.7,0-3.8-1.3c-0.4-0.4-7.3-9.7-8.7-12.4c-11.3-20.2-8.3-31.1-8.4-33.6c-0.3-2.4,0.3-2.1,0.3-1.4
		c0,3.6,5.1,25.4,16.8,39.1c10,11.7,32,20.2,32,20.2c-2.1,4.5,6.2,6.4,6.2,6.4c-0.8,7,6.2,7.5,8.1,7c1.8-0.4,3.6,2.2,3.2,3.1
		c-0.5,0.7,0.6,1.8,1.2,1.6c0.8-0.2,1.1-0.6,2.3,0.6c1.1,1.1,0.6,4.9-1.4,5.4c-1.8,0.6-3.3-1.1-3.3-1.1c-0.6,2.8,3.9,3.5,3.9,3.5
		c5.2,0.4,5.9-5.9,5.9-5.9s3.4,1.5,4.8,0.6c2.4-1.6,0-0.7,0-0.7c-1.9,0-3.7-2.1-3.6-4.3c0.5-4.5-4.6-8.3-4.6-8.3
		c2.8,0.9,7.2,1.3,12.8-1.5c4.3-2.2,9.5-7.1,7.1-14.7c1.4-1.3,1.5-6.7-0.8-10.6c-5.2-8.6-9.8-10-13.2-10.1c-2.8,0-5.6,2.5-6.4,4.8
		c-0.7,2.2,1.3,3.9,1.3,3.9s0.3,0.1-0.2-1.6c-0.7-3,3.2-5.6,8-3c2.5,1.3,6.3,6.3,5.7,12.4c-1.3,13.6-12.4,13.9-16.8,12.7
		c-1.1-0.3-1.5-0.7-1.6-1c-0.4,0-0.1-0.2-0.1-0.2s0,0.1,0.1,0.2c0.5,0,1.9-0.1,5.6-0.5c10.9-1.4,10.2-11.8,7.1-14.4
		c-2.2-2.2-3.6-1.3-2.1,0c2.1,1.5,0.7,4.7-0.9,5c-1.3,0.3-2.9-0.6-2.9-0.6c-1.7-5-6.4-2.9-6.4-2.9c3.7-4,1.1-10.1-2.7-9.7
		c-5.9,0.5-2.4,1.9-2.4,1.9c4.1-0.8,3.6,5.5,0.2,4.3c-1.8-0.6-4.8-2.1-5.6-2.1c-1.5,0-4.1-0.6-4.3-1.1c-0.6-1.5-5-2.1-7.8-1.4
		c-7.1,2-13.9-1.2-16.8-2.5c-4.1-1.6-6.1-6.2-6.1-6.2c17.2,9.9,26,3.9,28.5,2c4.2-3.6,4.5-0.9,4.4,0.8c0,1.3-3.5,1.8-3.5,1.8
		c2.9,3.5,6.6,0.3,6.6,0.3c5.8-7.5-2.3-8.7-2.3-8.7c3-3.2,4.3-11.1,1.7-11c-1,0-1.4-8.2-6.9-8.2c-4.6,0-4,2.7-4,2.7s-0.4,2,0.3,0.8
		c1.7-2.4,3.3-0.8,3.3-0.8s0.6,1.1,1.1,2.2c0.9,1.8,1.1,14.5-12.3,14.9c-26,0.7-34.2-30.6-34.5-33.1c-0.5-2.6-0.7-4.7,0.4-2.6
		c0.9,1.8,1.1,2.7,2.6,4.9c2.9,4.3,6.6,7,8.1,7s2.2,1.5,2.2,1.5c0.8,1.5,1.6,2.6,2.6,2.2c1.1-0.4,2,0.4,2.6,2.2
		c0.8,1.9,3.1,1.5,3.1,1.5s1.8-0.7,3.3,0s0.9,3.7-1.1,3.8c-2.1,0.3-2.4,0.6,0.7,1.4c5.9-0.7,4.5-5.1,3.4-6.9c3,1.8,5.3,2.1,6.1,3.7
		c3.6,7.3-4.7,8.3-4.7,8.3s-3,1.8,5.1,0.7c7-0.9,5.7-11.6,5.7-11.6c-1.5-15.7-16.2-13-15.4-13.9c1.7-2.2-3.6-3.6-4.7-3.9
		c-4.8-2.5-9.6-5.2-11.7-8.1c-2-2.5-6-9.6-7.6-14.9c-1.2-3.6-1-5,0.3-2.9c0.4,0.5,3.6,0.7,5.1-0.6c2.3-2.2,0.7-4.2,1.8-5.8
		c1.6-2.4,0.1-5.4-1.3-7.9c-4.9,1.4-10.1,2.1-15.2,2.1C234,331.8,228,330.7,222.3,328.7z"/>
	
		<linearGradient id="SVGID_1_" gradientUnits="userSpaceOnUse" x1="382.1642" y1="488.7694" x2="395.5983" y2="489.9447" gradientTransform="matrix(1 0 0 1 0 -200)">
		<stop  offset="1.040000e-02" style="stop-color:#FFB515"/>
		<stop  offset="9.190000e-02" style="stop-color:#FFB718"/>
		<stop  offset="0.1746" style="stop-color:#FFBC23"/>
		<stop  offset="0.258" style="stop-color:#FEC435"/>
		<stop  offset="0.3418" style="stop-color:#FECF50"/>
		<stop  offset="0.426" style="stop-color:#FEDE75"/>
		<stop  offset="0.5094" style="stop-color:#FFF0A4"/>
		<stop  offset="0.5208" style="stop-color:#FFF2AB"/>
		<stop  offset="0.538" style="stop-color:#FEEB98"/>
		<stop  offset="0.5778" style="stop-color:#FEDD72"/>
		<stop  offset="0.6212" style="stop-color:#FED053"/>
		<stop  offset="0.6685" style="stop-color:#FEC63B"/>
		<stop  offset="0.721" style="stop-color:#FEBF2A"/>
		<stop  offset="0.7818" style="stop-color:#FFB91E"/>
		<stop  offset="0.8581" style="stop-color:#FFB616"/>
		<stop  offset="1" style="stop-color:#FFB515"/>
	</linearGradient>
	<path class="st2" d="M395.8,287.1c0,0-3.2,0.3-6.9-0.1c-3.6-0.3-6.3-1.5-6.3-1.5l-0.4,6.3l12.8,1.4L395.8,287.1z"/>
	
		<linearGradient id="SVGID_00000053546237603416147660000018150934686097707693_" gradientUnits="userSpaceOnUse" x1="376.9943" y1="547.8795" x2="390.428" y2="549.0548" gradientTransform="matrix(1 0 0 1 0 -200)">
		<stop  offset="1.040000e-02" style="stop-color:#FFB515"/>
		<stop  offset="9.190000e-02" style="stop-color:#FFB718"/>
		<stop  offset="0.1746" style="stop-color:#FFBC23"/>
		<stop  offset="0.258" style="stop-color:#FEC435"/>
		<stop  offset="0.3418" style="stop-color:#FECF50"/>
		<stop  offset="0.426" style="stop-color:#FEDE75"/>
		<stop  offset="0.5094" style="stop-color:#FFF0A4"/>
		<stop  offset="0.5208" style="stop-color:#FFF2AB"/>
		<stop  offset="0.538" style="stop-color:#FEEB98"/>
		<stop  offset="0.5778" style="stop-color:#FEDD72"/>
		<stop  offset="0.6212" style="stop-color:#FED053"/>
		<stop  offset="0.6685" style="stop-color:#FEC63B"/>
		<stop  offset="0.721" style="stop-color:#FEBF2A"/>
		<stop  offset="0.7818" style="stop-color:#FFB91E"/>
		<stop  offset="0.8581" style="stop-color:#FFB616"/>
		<stop  offset="1" style="stop-color:#FFB515"/>
	</linearGradient>
	<path style="fill:url(#SVGID_00000053546237603416147660000018150934686097707693_);" d="M377.9,374.8c0,0-1.2,2.3-0.3,2.4
		c0,0-0.5-1.4,0.6-2.7c0.8-1.3,3.6-2.6,5.8-2.4c0.8,0.1,1.6,0.3,2.3,0.6l5.4-52.4c-2.8,2.2-8.2,1-10.9-1.3c-0.1,0-0.1-0.1-0.2-0.2
		l-5.6,58.3c0.1-0.3,0.3-0.7,0.8-1.2C376.6,375.2,377.1,374.8,377.9,374.8z"/>
	
		<linearGradient id="SVGID_00000072256406563691024340000006207837511012222385_" gradientUnits="userSpaceOnUse" x1="371.8033" y1="607.2028" x2="385.2388" y2="608.3781" gradientTransform="matrix(1 0 0 1 0 -200)">
		<stop  offset="1.040000e-02" style="stop-color:#FFB515"/>
		<stop  offset="9.190000e-02" style="stop-color:#FFB718"/>
		<stop  offset="0.1746" style="stop-color:#FFBC23"/>
		<stop  offset="0.258" style="stop-color:#FEC435"/>
		<stop  offset="0.3418" style="stop-color:#FECF50"/>
		<stop  offset="0.426" style="stop-color:#FEDE75"/>
		<stop  offset="0.5094" style="stop-color:#FFF0A4"/>
		<stop  offset="0.5208" style="stop-color:#FFF2AB"/>
		<stop  offset="0.538" style="stop-color:#FEEB98"/>
		<stop  offset="0.5778" style="stop-color:#FEDD72"/>
		<stop  offset="0.6212" style="stop-color:#FED053"/>
		<stop  offset="0.6685" style="stop-color:#FEC63B"/>
		<stop  offset="0.721" style="stop-color:#FEBF2A"/>
		<stop  offset="0.7818" style="stop-color:#FFB91E"/>
		<stop  offset="0.8581" style="stop-color:#FFB616"/>
		<stop  offset="1" style="stop-color:#FFB515"/>
	</linearGradient>
	<path style="fill:url(#SVGID_00000072256406563691024340000006207837511012222385_);" d="M380.2,431.9l4.7-45.8h-0.1
		c-3.2,0.9-5.3-1.3-5.5-2.6c0,0.4,0.1,1,0.1,1.3c0.1,1-0.4,1.2-1,1.3c-1.3,0.4-2.7-0.1-3.3-1.7c0,0,0,0.8,1,1.5
		c0.9,0.6,0.5,1.5-2.1,1.5l-1.8,19.3c0,0,0,0-0.1,0l-2.3,23.9C371.2,430.9,375.5,432.5,380.2,431.9z"/>
	
		<linearGradient id="SVGID_00000162354466948879277200000007746571993457795460_" gradientUnits="userSpaceOnUse" x1="369.0384" y1="638.8171" x2="382.473" y2="639.9925" gradientTransform="matrix(1 0 0 1 0 -200)">
		<stop  offset="1.040000e-02" style="stop-color:#FFB515"/>
		<stop  offset="9.190000e-02" style="stop-color:#FFB718"/>
		<stop  offset="0.1746" style="stop-color:#FFBC23"/>
		<stop  offset="0.258" style="stop-color:#FEC435"/>
		<stop  offset="0.3418" style="stop-color:#FECF50"/>
		<stop  offset="0.426" style="stop-color:#FEDE75"/>
		<stop  offset="0.5094" style="stop-color:#FFF0A4"/>
		<stop  offset="0.5208" style="stop-color:#FFF2AB"/>
		<stop  offset="0.538" style="stop-color:#FEEB98"/>
		<stop  offset="0.5778" style="stop-color:#FEDD72"/>
		<stop  offset="0.6212" style="stop-color:#FED053"/>
		<stop  offset="0.6685" style="stop-color:#FEC63B"/>
		<stop  offset="0.721" style="stop-color:#FEBF2A"/>
		<stop  offset="0.7818" style="stop-color:#FFB91E"/>
		<stop  offset="0.8581" style="stop-color:#FFB616"/>
		<stop  offset="1" style="stop-color:#FFB515"/>
	</linearGradient>
	<path style="fill:url(#SVGID_00000162354466948879277200000007746571993457795460_);" d="M369.4,434.3c-0.2,1.6-0.3,4.4,1,6.3
		c0.8,1,3.2,2.1,3.6,3.2c0.6-1,2.7-1.3,3.7-2.1c1.7-1.7,2.2-4.6,2.3-6.4C377.4,436.4,371.9,435.4,369.4,434.3z"/>
	
		<linearGradient id="SVGID_00000013182606983781848920000015724025896818328708_" gradientUnits="userSpaceOnUse" x1="379.6099" y1="514.5787" x2="393.1153" y2="515.7602" gradientTransform="matrix(1 0 0 1 0 -200)">
		<stop  offset="1.040000e-02" style="stop-color:#C47C00"/>
		<stop  offset="0.194" style="stop-color:#C57D03"/>
		<stop  offset="0.286" style="stop-color:#C8810A"/>
		<stop  offset="0.3577" style="stop-color:#CC8910"/>
		<stop  offset="0.4188" style="stop-color:#D1941E"/>
		<stop  offset="0.4733" style="stop-color:#D9A332"/>
		<stop  offset="0.523" style="stop-color:#E3B84E"/>
		<stop  offset="0.5688" style="stop-color:#EFD174"/>
		<stop  offset="0.6109" style="stop-color:#FEEFA6"/>
		<stop  offset="0.6146" style="stop-color:#FFF2AB"/>
		<stop  offset="0.6433" style="stop-color:#F0D378"/>
		<stop  offset="0.6739" style="stop-color:#E4BA51"/>
		<stop  offset="0.7075" style="stop-color:#DAA533"/>
		<stop  offset="0.7439" style="stop-color:#D2961F"/>
		<stop  offset="0.7845" style="stop-color:#CC8A10"/>
		<stop  offset="0.8315" style="stop-color:#C8810A"/>
		<stop  offset="0.8904" style="stop-color:#C57D03"/>
		<stop  offset="1" style="stop-color:#C47C00"/>
	</linearGradient>
	<path style="fill:url(#SVGID_00000013182606983781848920000015724025896818328708_);" d="M385.1,313.3l-5.5-0.7
		c-0.1,0.9,0.3,2.5,0.8,3c1.2,1.4,11.8,2.5,12.4,1c0.4-0.8,0.8-1.7,0.9-2.3l-5.1-0.6C387.5,313.6,386.3,313.5,385.1,313.3z"/>
	
		<linearGradient id="SVGID_00000115516753391397318080000011227381651195278013_" gradientUnits="userSpaceOnUse" x1="380.3364" y1="518.1015" x2="392.086" y2="519.1295" gradientTransform="matrix(1 0 0 1 0 -200)">
		<stop  offset="1.040000e-02" style="stop-color:#C47C00"/>
		<stop  offset="0.1064" style="stop-color:#C67F06"/>
		<stop  offset="0.204" style="stop-color:#CA850D"/>
		<stop  offset="0.3023" style="stop-color:#D0921B"/>
		<stop  offset="0.4012" style="stop-color:#D9A331"/>
		<stop  offset="0.5005" style="stop-color:#E5BC54"/>
		<stop  offset="0.5988" style="stop-color:#F4DC85"/>
		<stop  offset="0.6563" style="stop-color:#FFF2AB"/>
		<stop  offset="0.6648" style="stop-color:#F7E390"/>
		<stop  offset="0.6822" style="stop-color:#EBC866"/>
		<stop  offset="0.7019" style="stop-color:#E0B245"/>
		<stop  offset="0.7236" style="stop-color:#D79F2C"/>
		<stop  offset="0.7482" style="stop-color:#D0921B"/>
		<stop  offset="0.7768" style="stop-color:#CB870F"/>
		<stop  offset="0.8123" style="stop-color:#C78109"/>
		<stop  offset="0.862" style="stop-color:#C57D03"/>
		<stop  offset="1" style="stop-color:#C47C00"/>
	</linearGradient>
	<path style="fill:url(#SVGID_00000115516753391397318080000011227381651195278013_);" d="M380.4,315.6c-0.1-0.1-0.1-0.2-0.2-0.3
		c-0.5,0.6-0.2,3.2,0.6,3.7c2.8,2.4,8.5,3.7,11.2,1c0.6-1.3,1.1-2.8,0.6-3.1C390.9,318,381.5,316.9,380.4,315.6z"/>
	
		<linearGradient id="SVGID_00000096739185747499875400000009745946729241056933_" gradientUnits="userSpaceOnUse" x1="369.0181" y1="633.5353" x2="380.3673" y2="632.5424" gradientTransform="matrix(1 0 0 1 0 -200)">
		<stop  offset="1.040000e-02" style="stop-color:#FC9200"/>
		<stop  offset="0.1002" style="stop-color:#FD9507"/>
		<stop  offset="0.1915" style="stop-color:#FD9C10"/>
		<stop  offset="0.2835" style="stop-color:#FCA71F"/>
		<stop  offset="0.376" style="stop-color:#FCB638"/>
		<stop  offset="0.4689" style="stop-color:#FDCB5B"/>
		<stop  offset="0.5608" style="stop-color:#FEE28A"/>
		<stop  offset="0.6146" style="stop-color:#FFF2AB"/>
		<stop  offset="0.6433" style="stop-color:#FDDB7D"/>
		<stop  offset="0.6739" style="stop-color:#FDC958"/>
		<stop  offset="0.7075" style="stop-color:#FCB83B"/>
		<stop  offset="0.7439" style="stop-color:#FCAA24"/>
		<stop  offset="0.7845" style="stop-color:#FDA014"/>
		<stop  offset="0.8315" style="stop-color:#FD980C"/>
		<stop  offset="0.8904" style="stop-color:#FC9304"/>
		<stop  offset="1" style="stop-color:#FC9200"/>
	</linearGradient>
	<path style="fill:url(#SVGID_00000096739185747499875400000009745946729241056933_);" d="M369.6,430.5c1,0.2,5.6,2.1,10.7,1.3
		c0.7-0.1,0.3,3.2,0,3.4c-2.5,1.3-8.9,0.1-11.2-1C368.5,433.8,369.3,430.4,369.6,430.5z"/>
	
		<linearGradient id="SVGID_00000070796726522642914770000002167745403743035024_" gradientUnits="userSpaceOnUse" x1="360.815" y1="500.8847" x2="414.8156" y2="505.6092" gradientTransform="matrix(1 0 0 1 0 -200)">
		<stop  offset="0" style="stop-color:#C47C00"/>
		<stop  offset="1.040000e-02" style="stop-color:#C47C00"/>
		<stop  offset="0.2049" style="stop-color:#C57D03"/>
		<stop  offset="0.2749" style="stop-color:#C78109"/>
		<stop  offset="0.3249" style="stop-color:#CB870F"/>
		<stop  offset="0.3653" style="stop-color:#D0921B"/>
		<stop  offset="0.3998" style="stop-color:#D79F2C"/>
		<stop  offset="0.4305" style="stop-color:#E0B245"/>
		<stop  offset="0.4582" style="stop-color:#EBC866"/>
		<stop  offset="0.4828" style="stop-color:#F7E390"/>
		<stop  offset="0.4948" style="stop-color:#FFF2AB"/>
		<stop  offset="0.5073" style="stop-color:#F7E390"/>
		<stop  offset="0.533" style="stop-color:#EBC866"/>
		<stop  offset="0.5619" style="stop-color:#E0B245"/>
		<stop  offset="0.5938" style="stop-color:#D79F2C"/>
		<stop  offset="0.6299" style="stop-color:#D0921B"/>
		<stop  offset="0.672" style="stop-color:#CB870F"/>
		<stop  offset="0.7241" style="stop-color:#C78109"/>
		<stop  offset="0.7972" style="stop-color:#C57D03"/>
		<stop  offset="1" style="stop-color:#C47C00"/>
	</linearGradient>
	<polygon style="fill:url(#SVGID_00000070796726522642914770000002167745403743035024_);" points="361.9,289.7 360,310.2 
		413.8,316.8 415.7,295.5 	"/>
	
		<linearGradient id="SVGID_00000101084189772481394370000016979729001232134784_" gradientUnits="userSpaceOnUse" x1="390.9318" y1="606.0837" x2="395.1425" y2="613.3769" gradientTransform="matrix(1 0 0 1 0 -200)">
		<stop  offset="1.040000e-02" style="stop-color:#A87A00"/>
		<stop  offset="1" style="stop-color:#FFB515"/>
	</linearGradient>
	<path style="fill:url(#SVGID_00000101084189772481394370000016979729001232134784_);" d="M394.9,405.1c-0.1,4.8-4.6,6.1-6,4.3
		l-1-1.3c-1.4,0.7-2.4,1.1-2.4,1.1l2.2,5.1c3.7,2.1,7.3,0.2,7.9-3.3c3.6-0.9,2.2-6.1,1.7-7.7C396.9,404.5,396,405.5,394.9,405.1z"/>
	
		<linearGradient id="SVGID_00000116229891307610681170000016593299077796067003_" gradientUnits="userSpaceOnUse" x1="386.232" y1="587.6467" x2="397.3127" y2="606.8393" gradientTransform="matrix(1 0 0 1 0 -200)">
		<stop  offset="1.040000e-02" style="stop-color:#A87A00"/>
		<stop  offset="1" style="stop-color:#FFB515"/>
	</linearGradient>
	<path style="fill:url(#SVGID_00000116229891307610681170000016593299077796067003_);" d="M397.4,393.2c0.7-3.6,0.1-4.7-1-5.5
		c0.5-3-1.6-5-1.6-5c0,0.2,0,0.3,0,0.5c0.3,1,0.5,2.3,0.6,3.9c0,1.5-0.7,2.4-0.7,3.7c0,4.7-2.4,4.4-2.5,5.1
		c-0.8,5.6-6.2,6.8-9.2,4.2c-0.1,0-0.1,0-0.1,0c-0.3,3.5,2,3.9,2,3.9l4.2,5.3c1.4,1.8,5.9,0.5,6-4.3c2.4,0.8,3.6-4.4,2.2-5.5
		C399.4,396.5,398,393.5,397.4,393.2z"/>
	
		<linearGradient id="SVGID_00000175308771521792294890000016596479080980089511_" gradientUnits="userSpaceOnUse" x1="383.6469" y1="582.8527" x2="392.6425" y2="598.4335" gradientTransform="matrix(1 0 0 1 0 -200)">
		<stop  offset="1.040000e-02" style="stop-color:#A87A00"/>
		<stop  offset="1" style="stop-color:#FFB515"/>
	</linearGradient>
	<path style="fill:url(#SVGID_00000175308771521792294890000016596479080980089511_);" d="M390.2,379.1c0.5,1.1-0.7,2-2.1,3
		l-0.2,0.6c0,0-0.5,2.3-2.4,3.2c0.1,0.1,0.1,0.1,0.2,0.2c0.2,0.2-0.2,0.1-0.7,0c-0.1,0-0.1,0.1-0.2,0.1c-0.8,0.2-1.6,0.2-2.3,0.1
		c-0.1,0.1-0.2,0.1-0.3,0.2c-3.2,2.4-1.7,7.4-1.7,7.4l1.5,5.4c2.7,3.7,9.3,2.9,10.1-3.3c0.1-0.7,2.5-0.5,2.5-5.1
		c0-1.3,0.7-2.2,0.7-3.7C395.3,379,390.2,379.1,390.2,379.1z"/>
	
		<linearGradient id="SVGID_00000121252907954800562350000008368377600213102467_" gradientUnits="userSpaceOnUse" x1="383.0146" y1="570.7269" x2="358.963" y2="612.3854" gradientTransform="matrix(1 0 0 1 0 -200)">
		<stop  offset="1.040000e-02" style="stop-color:#D19700"/>
		<stop  offset="0.2101" style="stop-color:#D49802"/>
		<stop  offset="0.3231" style="stop-color:#DC9E08"/>
		<stop  offset="0.4142" style="stop-color:#E9A60D"/>
		<stop  offset="0.4936" style="stop-color:#FDB414"/>
		<stop  offset="0.5" style="stop-color:#FFB515"/>
		<stop  offset="0.6667" style="stop-color:#FEE886"/>
		<stop  offset="0.6856" style="stop-color:#F8DD70"/>
		<stop  offset="0.7297" style="stop-color:#ECC649"/>
		<stop  offset="0.7758" style="stop-color:#E2B42B"/>
		<stop  offset="0.824" style="stop-color:#DBA717"/>
		<stop  offset="0.875" style="stop-color:#D59D0D"/>
		<stop  offset="0.9307" style="stop-color:#D29805"/>
		<stop  offset="1" style="stop-color:#D19700"/>
	</linearGradient>
	<path style="fill:url(#SVGID_00000121252907954800562350000008368377600213102467_);" d="M384,372.1c-2.2-0.2-5,1.1-5.8,2.4
		c-1,1.3-0.6,2.7-0.6,2.7c-0.9-0.1,0.3-2.4,0.3-2.4c-0.7,0-1.3,0.4-2.1,1c-1,1.1-1,1.7-0.7,2.1c0.2,0.1,0.4,0.2,0.5,0.4
		c0,0-0.3-0.1-0.5-0.4c-1.7-0.8-4.3,0.6-6.2,2.5c-2.2,2.2-2.6,7-2.6,7v-1c-0.7,0-1.4-0.1-2-0.2c-2.3,0.1-3.9,2.2-5.7,5.9
		c-2.5,5,0.7,9.7,0.7,9.7s0.4,0.3,0.2,0.5c0.8,1.3,2.9,4,6.3,4.8c3.1,0.7,6.6-0.6,6.6-0.6l1.8-19.3c2.5,0,3-0.9,2.1-1.5
		c-1-0.7-1-1.5-1-1.5c0.6,1.6,2,2.1,3.3,1.7c0.7-0.1,1.1-0.3,1-1.3c0-0.4,0-1-0.1-1.3c0-0.1,0-0.2,0-0.3c0,0,0,0.1,0,0.3
		c0.2,1.4,2.3,3.5,5.5,2.6c2.6-0.6,3.2-3.5,3.2-3.5l1.6-5.4C389.5,373.7,386.5,372.4,384,372.1z"/>
	
		<linearGradient id="SVGID_00000153666631244913815660000003350905611748828576_" gradientUnits="userSpaceOnUse" x1="334.0121" y1="542.4747" x2="309.9592" y2="584.1356" gradientTransform="matrix(1 0 0 1 0 -200)">
		<stop  offset="1.040000e-02" style="stop-color:#D19700"/>
		<stop  offset="0.2101" style="stop-color:#D49802"/>
		<stop  offset="0.3231" style="stop-color:#DC9E08"/>
		<stop  offset="0.4142" style="stop-color:#E9A60D"/>
		<stop  offset="0.4936" style="stop-color:#FDB414"/>
		<stop  offset="0.5" style="stop-color:#FFB515"/>
		<stop  offset="0.6667" style="stop-color:#FEE886"/>
		<stop  offset="0.6856" style="stop-color:#F8DD70"/>
		<stop  offset="0.7297" style="stop-color:#ECC649"/>
		<stop  offset="0.7758" style="stop-color:#E2B42B"/>
		<stop  offset="0.824" style="stop-color:#DBA717"/>
		<stop  offset="0.875" style="stop-color:#D59D0D"/>
		<stop  offset="0.9307" style="stop-color:#D29805"/>
		<stop  offset="1" style="stop-color:#D19700"/>
	</linearGradient>
	<path style="fill:url(#SVGID_00000153666631244913815660000003350905611748828576_);" d="M342.6,385.3c0.9-4.1,2.7-6.3,3.7-7.1
		c-0.1-0.1-0.2-0.2-0.4-0.3c-0.3-1.7-2.2-2.5-2.8-1.7c-0.7-0.4-2.4-1.7-3.6-2.6c0.1-1.6-1.9-2.6-3.4-2c-0.5-0.3-2.2-1.3-3-1.9
		c0.4-1.6-2.2-3.1-3.2-2.4c-0.7-0.7-2.1-1.6-3.1-2.3c0-2.3-1.7-3-3-2.7c-1-0.6-3.2-2.5-4.1-3.6c0.3-0.6,0.1-1.1-0.3-1.7
		c-0.7-0.3-1.5-0.7-2.2-1.1c-0.2-0.1-0.4-0.1-0.6,0c-0.3-0.3-0.5-0.6-0.7-0.8c-0.7-0.5-1.3-1-2-1.5c1.8,2.2,2.8,4.7,1,6.6
		c-0.7,0.7-2.1,0.6-2.7-0.3c2.1-1.1,1.6-2,0.7-2.8c-0.7-0.6-7.4-1.6-10.7-3.7c-4.3-2.7-5.2-6.5-5.1-4.8c0.3,2.3,2.3,2.3,2.7,5.3
		c0.5,3.1,1.9,2.6,2.9,2.2c1.9,0.7-0.4,3.4-3.8,2.2c1.3,1.3,2.7,3,3.2,5.1c0.8,2.8,1,6.3,3.7,5.9c1.4-0.2,1.9-1.8,1.1-3.7
		c0,0,2.6,2.1,1.8,4.1c-2,4-6.6,2.6-9.9-1.5c0,0-7.4-1.1-11.1-4.4c-0.9-0.8-1.8-1.7-2.4-2.3c1.2,2.3,1.9,5.8,2.4,8
		c0.7,2.7,2.7,3.6,3.3,3.7c0.6,0.2,1.7-0.5,3,1.5c1.3,1.8,5.2,1.5,6.5,1.5c2.8,0,7.5,0.3,7.5,0.3c4.2,0.8,16.5,7.1,18.8,7.9
		c2.5,0.7,12.5,6.2,14,7c0.7,0.4,1.3,0.8,2,1.2C342.3,390.8,342,388.2,342.6,385.3z"/>
	<path class="st1" d="M387.7,409.5c2.6-0.5,4.4-2.5,3.2-6.4c-2.7-0.7-4.6-1.7-4.6-1.7c-0.7,4.7-6.2,3-6.6-1.5
		c-3.9,5.5,1.6,9.5,6.3,9.7c-1.9,0.1-3.9-0.1-5.4-1.8c-0.7,9.1,12.4,7.5,9.6,2.3C389.9,409.5,389,409.5,387.7,409.5z"/>
	<path class="st1" d="M387.1,391.1c4.2,12.8-17.4,10.7-11.1-0.3c0.9,4,3.8,4.4,5.7,0.9C384,393.4,385.7,392,387.1,391.1z"/>
	<path class="st1" d="M385.7,382.8c1.1-1.6,2.6-0.7,3.6,1.5c0.6,1.2,0.7,4.1,0.7,4.1c3.3-8.5-0.7-11.6-0.7-11.6s-1.2-1.6-3.1-1.4
		c-1.3,0.3-1.1,1-2.2,0.7c0,0-0.8,4.4,0.8,7.3L385.7,382.8z"/>
	<path class="st15" d="M346.7,382c0,0-1.3,2.3-1.6,5c-0.5,2.8,1.1,7,1.1,7c0,0.2,0,0.4,0,0.5l0,0c0.1-0.5,0-1.1,0-1.1
		s1.1,1.3,2.6,2.2c1.4,1,4.6,2.6,4.6,2.6l1.2,0.4c0-0.1,0-0.2,0-0.2c-0.4-2.7,0.3-5.5,0.9-7.4c0.6-1.5,1.2-2.7,2.5-4.2
		c0.6-0.7,1-1.1,1.3-1.5c-1.1-0.3-3-0.8-5-1.6c-2.9-1.3-3.9-2.2-5.2-3.1c-0.4-0.3-0.6-0.5-0.9-0.7c-0.1,0-0.1,0.1-0.2,0.1
		C347.7,380.5,346.7,382,346.7,382z"/>
	<path class="st1" d="M324.3,495.8c0,0,0.1,2.3-0.7,3.1c-0.7,0.8-1.6,3-3.7,5.2c0,0,5.1-3.3,6.1,1.4c0,0,2.2-3.5,2.2-3.9
		c0.2-0.8,1.3-6.1,1-6.9c-0.4-0.7-2.1-4.3-4.1-5.3c-1.5-0.8-2.9-0.8-4-0.7c0.1,1.7,0.4,3.4,0.5,4.8
		C322.7,493.9,323.9,493.2,324.3,495.8z"/>
	<path class="st1" d="M315.8,489.1c1.8-0.5-3.7-0.7-3.9,3.9c-0.1,1.5-0.7,2.5-1.9,2.9c-4.6,1.2-5.5,5.1-5.5,5.1s3.7-1.4,5.1,1.6
		c0,0,2.7-4.4,4.7-4.6c1.8-0.2,1.8-2,1.9-2.6c0.2-0.8,0.7-1.3,1.2-1.7c-0.3-1.4-0.5-3.2-0.5-4.8
		C316.3,489.1,315.9,489.1,315.8,489.1z"/>
	<path class="st1" d="M346.4,440.7L346.4,440.7c-2.5,0-2.7-2-3.5-3.5c-0.4-0.7-1.2-2.4-1.5-3.7c-0.4-1.2-0.7-1.9-0.9-2.7
		c-0.4-1.3,0.1-2.1,1.6-2.3l0.5-0.1c0-0.8,0.1-1.7,0.2-2.6l-3,0.5c-3.2,0.5-2.9,2.3-2.8,4.4c0.2,0.9,0.5,1.6,0.8,3.2
		c0.2,1.2,2.9,6.7,3.6,7.7c0.7,1.4,2.5,2.9,4.4,2.9c0.1,0,0.7-0.3,1.4-0.7c-0.1-0.5-0.1-1-0.2-1.3
		C346.9,441.9,346.6,441.3,346.4,440.7z"/>
	<path class="st1" d="M347.8,430.4c0.1,0.4,0.1,0.8,0.6,2.2c0.5,1.1,0.7,1.9,1.1,2.6c0.4,1,0.9,1.9,0.4,2.8c0.5,1,0.9,2.2,1.1,3.3
		c0.9-0.6,1.6-1.1,1.8-1.2c1.4-0.8,2.2-2.4,1-4.5c-1.1-1.9-1.4-2.4-2.1-3.5c-1.1-2.2-1.3-4.7-1.2-4.4c-0.3-1.1-1.2-2.3-2.8-2.3h-1.4
		c0,1-0.1,1.9-0.2,2.6C347.4,427.9,347.7,429.6,347.8,430.4z"/>
	<path class="st1" d="M316.7,484.6c-0.9-1-3-3.4-3.3-3.6c0.3,0.2-0.9-1.7,0.6-2.7c2.5-2,4.3-3.1,5.2-3.7c1-0.7,2.6-0.8,3.7,0
		c0.9-0.7,1.9-1.2,2.9-1.6l-0.8-1c-1.1-1.3-3.8-2.5-5.7-1.3c-1.3,1-6.8,4.7-8.2,6.1c-1.9,1.7-3.1,3-1.5,5.1c0.3,0.5,5,5,5.4,5.5
		c0.3,0.4,1,0.7,1.8,0.9c-0.1-1.5-0.1-2.7-0.1-3.3C316.7,484.9,316.7,484.8,316.7,484.6z"/>
	<path class="st1" d="M325.7,478.5c0.9,0.8-0.6,2.1-1.1,2.6c-0.6,0.7-2.3,1.7-3.7,2.7l-0.1,0.1c0.3,1.2,0.4,2.5,0.4,2.5
		c-0.1,0.6-0.1,1.1,0,1.7c0.4-0.1,0.8-0.3,1.1-0.6c1.9-1.6,5.5-4.8,6.6-5.5c1.1-1,1.5-2.6,0.7-4.2l-0.8-1.3
		C327.6,477.3,326.6,478,325.7,478.5L325.7,478.5z"/>
	<path class="st1" d="M343.8,468.3c-0.1,0.5-1,0.6-1.7,0.7c-1.6,0.5-2.3,0.8-3.6,2c-1.3,1.1-2.4,3.6-2.9,3.6c-0.3-0.1-0.8-0.5-1.2-1
		c-0.8,0.6-1.9,1.1-2.7,1.5c1,1.3,1.8,2.5,2,2.7c2.8,4,5.4-2.8,7.3-4.4s4.8-1.8,5.5-2.7c1.6-2.1-0.3-4-0.7-4.8l-0.5-0.7l-0.8,0.7
		c-0.5,0.5-0.9,1-1.3,1.4L343.8,468.3z"/>
	<path class="st1" d="M332.5,467.4c1.6-1.8,3.7-3.3,4.7-3.9c0.8-0.7,2.4-1.5,3.4,0.1l0.1,0.1c0.6-0.8,1.4-1.5,2.2-2.2l-1.3-1.8
		c-1.7-1.8-3.8-0.8-5.7,0.6c-1.3,1-3.4,2.9-4.9,4.3c-1.8,1.7-4,4.3-3,5.6c0.1,0.1,0.5,0.6,1,1.3c1-0.5,2-1.1,2.8-1.4
		C331,469,331.7,468.3,332.5,467.4z"/>
	<path class="st1" d="M343.1,420c-0.2,0-0.4,0-0.5,0c-0.9,0-1.2-1.7-1.2-3.4c0.2-2.5,0.2-3,0.4-4.7c0.2-0.1-0.1-1.3,2.1-1.4h0.5
		c0.1-1.1,0.3-2.2,0.6-3.3l-2-0.1c-3.4,0-3.6,1.1-4,3.3c-0.4,1.6-0.6,5.3-0.7,7.2c-0.1,2.4,0.1,5.1,1.9,5.2c0.2,0.1,1.4,0.2,2.9,0.4
		c0-0.2,0-0.4,0-0.5C343.1,422,343,421,343.1,420z"/>
	<path class="st1" d="M349.4,412.6c0,0.8,0,4.7-0.3,6.3c-0.1,1.7-0.7,1.8-1.3,1.8c-0.1,0-0.4,0-0.7-0.1c0,1.1-0.2,2.3-0.4,3.1
		c0.9,0.1,1.5,0.2,1.7,0.2c0.7-0.1,3.7,0.1,3.9-2.2c0.4-2.4,1.3-9.6,1.3-11c-0.1-1.3-1.9-2.2-3.8-2.5l-0.5-0.1
		c-0.2,1.1-0.5,2.2-0.8,3.2C349.2,411.4,349.4,412.1,349.4,412.6z"/>
	<path class="st1" d="M346.2,458.5c-0.7-1.1,1.1-2.7,0.9-4.3c-0.2-3-0.4-1.8-0.4-3.4c-0.2-1.1-0.2-1.4,1.2-1.7h0.3
		c-0.3-0.8-0.5-1.7-0.6-2.5l-1.3,0.4c-3.6,0.6-3.1,0.9-3,3.5c0.2,1.7,0.5,3.1,0.5,4.1c-0.1,1.3-1.1,2.8-1.3,3.9
		c-0.1,0.3,0.2,1.2,1.4,2.2c0.7-0.6,1.3-1.1,1.6-1.4C345.7,459,346,458.8,346.2,458.5z"/>
	<path class="st1" d="M357,450.4c-0.1-0.9,0.7-5-3.1-4.8l-2,0.2c0.2,1.1,0.3,2,0.3,2.8c0.6-0.1,1.4,0.5,1.4,1.1
		c0.1,1.9,0.1,4.3-0.5,6.3c-0.8,2.5-1.7,4.6-2.9,4.5c-0.1,0-0.2-0.1-0.4-0.1c-0.6,0.8-1.3,1.6-2,2.3c1.3,0.4,3.5,1,4.1,1.1
		c1.1,0.1,3-2.6,3.9-4.9C357,456,357.2,451.5,357,450.4z"/>
	<path class="st1" d="M361.4,384.5c-1.9,0.5-1.9,0.9-3.3,2.4c-1.3,1.5-2,2.7-2.5,4.2c-0.7,1.9-1.3,4.7-0.9,7.4c0,0,0,0.1,0,0.2
		l-1.2-0.4c0,0-3.2-1.6-4.6-2.6c-1.5-0.8-2.6-2.2-2.6-2.2s0.1,0.8,0,1.3c0-0.2,0-0.5,0-0.8c0,0-1.6-4.2-1.1-7c0.3-2.6,1.6-5,1.6-5
		s1-1.6,1.4-1.9c0.5-0.3,0.6-0.1,0.6-0.1s0.4-1,0.2-1.5c-0.6-1.2-1.6-1.1-2.2-0.7c-0.8,0.5-3.1,2.6-4.1,7.4s0.6,8.7,1.5,9.7
		c0.1,0.1,0.2,0.2,0.3,0.3c-0.3,0.2-0.7,0.4-0.8,0.7c-1.4,2.8-1.5,5,2.1,7.5c0.2-1.3,0.5-2.6,1.1-3.5c-0.2-0.2-0.4-0.4-0.5-0.6
		c-0.8-1.2,0.2-3,1.9-2.5c0,0,1.3,0.4,1.9,0.7c0.6,0.4,2.2,1.2,2.2,1.7c0.5,1.8,0.3,3.5-1.9,3.3c-0.1,0.8-0.3,1.6-0.5,2.6
		c2.2,0.6,6.5,0.9,4.9-5.7V399c0.3,1.2,1.3,4.3,4.3,3.5c0.7-0.2,0.1-0.7,0.1-0.7s-3.2-4.8-0.7-9.7c2.2-4.2,3.9-6.4,6.8-5.8
		C365.3,386.4,363.8,384.1,361.4,384.5z"/>
	<path class="st15" d="M346.5,424.6c0,0,1.9-7.1-1-7.4c-2.9-0.5-2.4,3.6-2.4,5.4c-0.1,2.8-1.4,8,0.8,8
		C346.2,431,346.3,428.8,346.5,424.6z"/>
	<path class="st15" d="M351.5,443.4c0,0-1.2-7.6-3.7-7.4c-3.6,0.4-1.2,4.5-0.7,6.3s0.6,8.7,3.3,9
		C353.2,451.5,352.2,447.8,351.5,443.4z"/>
	<path class="st15" d="M321.2,486.5c0,0-0.2-5.3-2.5-4.7c-1.6-0.3-2,1-2,3.3c0.1,1.9,0,12,2.6,11.7
		C323.4,496.5,320.7,490.8,321.2,486.5z"/>
	<path class="st15" d="M330,475.7c0,0,6.9-2.4,5.7-4.6c-1.7-3.1-4.7-0.7-8,0.9c-1,0.6-7,2.6-6.2,5.2
		C322.9,481.2,326.5,478,330,475.7z"/>
	<path class="st15" d="M346.4,464.1c0,0,5.1-4.6,4.1-5.9c-1.3-1.7-2.5-1.9-5.1,1c-1.2,1.3-7.7,5.4-5.6,8
		C342.1,470.1,343.1,466.9,346.4,464.1z"/>
	<path class="st15" d="M349.6,406.6c0.7-3.7,1.7-6.7-0.1-7.4c-3.2-1.2-3.6,3.3-4.1,6c-0.6,2.7-2.3,8,0.3,8.5
		C347.9,414.2,349,410.4,349.6,406.6z"/>
	<path d="M336.1,371.7c3.6,4.2-2.8,8.3-5.1,6.2C334.3,377.9,336.9,374.3,336.1,371.7z"/>
	<path d="M330,367.4c2.4,4-2.2,9.3-5.6,7.2C328.8,374.7,330.3,369.7,330,367.4z"/>
	<path d="M323.9,362.3c3.1,4-1.5,9.2-6.1,7.3C322.3,368.9,324.8,365.4,323.9,362.3z"/>
	<path d="M343.1,376.3c2.3,3.8-1.2,7-4.8,5.6C342.1,381.5,343.8,378.9,343.1,376.3z"/>
	
		<linearGradient id="SVGID_00000033370797138404092540000015215955737657807233_" gradientUnits="userSpaceOnUse" x1="85.9063" y1="556.4081" x2="101.3203" y2="555.0596" gradientTransform="matrix(1 0 0 1 0 -200)">
		<stop  offset="1.040000e-02" style="stop-color:#FFB515"/>
		<stop  offset="9.190000e-02" style="stop-color:#FFB718"/>
		<stop  offset="0.1746" style="stop-color:#FFBC23"/>
		<stop  offset="0.258" style="stop-color:#FEC435"/>
		<stop  offset="0.3418" style="stop-color:#FECF50"/>
		<stop  offset="0.426" style="stop-color:#FEDE75"/>
		<stop  offset="0.5094" style="stop-color:#FFF0A4"/>
		<stop  offset="0.5208" style="stop-color:#FFF2AB"/>
		<stop  offset="0.538" style="stop-color:#FEEB98"/>
		<stop  offset="0.5778" style="stop-color:#FEDD72"/>
		<stop  offset="0.6212" style="stop-color:#FED053"/>
		<stop  offset="0.6685" style="stop-color:#FEC63B"/>
		<stop  offset="0.721" style="stop-color:#FEBF2A"/>
		<stop  offset="0.7818" style="stop-color:#FFB91E"/>
		<stop  offset="0.8581" style="stop-color:#FFB616"/>
		<stop  offset="1" style="stop-color:#FFB515"/>
	</linearGradient>
	<path style="fill:url(#SVGID_00000033370797138404092540000015215955737657807233_);" d="M99,359.1c0.1,0,0.1,0,0.2,0.1
		c-0.2-2.4-0.4-4.7-0.6-6.7c-2.8,0.2-6.1,0.2-9.8-0.3c0.1,2.1,0.3,4.6,0.4,7.4C93.2,357.9,99,359.1,99,359.1z"/>
	
		<linearGradient id="SVGID_00000088133626585415972180000011877911226261732511_" gradientUnits="userSpaceOnUse" x1="87.1734" y1="570.8795" x2="102.5878" y2="569.5308" gradientTransform="matrix(1 0 0 1 0 -200)">
		<stop  offset="1.040000e-02" style="stop-color:#FFB515"/>
		<stop  offset="9.190000e-02" style="stop-color:#FFB718"/>
		<stop  offset="0.1746" style="stop-color:#FFBC23"/>
		<stop  offset="0.258" style="stop-color:#FEC435"/>
		<stop  offset="0.3418" style="stop-color:#FECF50"/>
		<stop  offset="0.426" style="stop-color:#FEDE75"/>
		<stop  offset="0.5094" style="stop-color:#FFF0A4"/>
		<stop  offset="0.5208" style="stop-color:#FFF2AB"/>
		<stop  offset="0.538" style="stop-color:#FEEB98"/>
		<stop  offset="0.5778" style="stop-color:#FEDD72"/>
		<stop  offset="0.6212" style="stop-color:#FED053"/>
		<stop  offset="0.6685" style="stop-color:#FEC63B"/>
		<stop  offset="0.721" style="stop-color:#FEBF2A"/>
		<stop  offset="0.7818" style="stop-color:#FFB91E"/>
		<stop  offset="0.8581" style="stop-color:#FFB616"/>
		<stop  offset="1" style="stop-color:#FFB515"/>
	</linearGradient>
	<path style="fill:url(#SVGID_00000088133626585415972180000011877911226261732511_);" d="M100.3,375.8c0.1,0.1,0.2,0.3,0.2,0.4h0.1
		c-0.2-2.8-0.6-7.3-1-11.9c-1.1-0.3-3-0.5-5.1-0.5c-2.2,0-4.1,0.5-5.1,0.9c0,0,0,0-0.1,0c0.2,3.5,0.3,7.2,0.5,10.7
		c1.1-1.2,2.9-1.8,4.5-1.9C96.7,373.2,99.4,374.6,100.3,375.8z"/>
	
		<linearGradient id="SVGID_00000027583142014483090530000000882898403830387381_" gradientUnits="userSpaceOnUse" x1="90.386" y1="607.6193" x2="105.7993" y2="606.2708" gradientTransform="matrix(1 0 0 1 0 -200)">
		<stop  offset="1.040000e-02" style="stop-color:#FFB515"/>
		<stop  offset="9.190000e-02" style="stop-color:#FFB718"/>
		<stop  offset="0.1746" style="stop-color:#FFBC23"/>
		<stop  offset="0.258" style="stop-color:#FEC435"/>
		<stop  offset="0.3418" style="stop-color:#FECF50"/>
		<stop  offset="0.426" style="stop-color:#FEDE75"/>
		<stop  offset="0.5094" style="stop-color:#FFF0A4"/>
		<stop  offset="0.5208" style="stop-color:#FFF2AB"/>
		<stop  offset="0.538" style="stop-color:#FEEB98"/>
		<stop  offset="0.5778" style="stop-color:#FEDD72"/>
		<stop  offset="0.6212" style="stop-color:#FED053"/>
		<stop  offset="0.6685" style="stop-color:#FEC63B"/>
		<stop  offset="0.721" style="stop-color:#FEBF2A"/>
		<stop  offset="0.7818" style="stop-color:#FFB91E"/>
		<stop  offset="0.8581" style="stop-color:#FFB616"/>
		<stop  offset="1" style="stop-color:#FFB515"/>
	</linearGradient>
	<path style="fill:url(#SVGID_00000027583142014483090530000000882898403830387381_);" d="M105.6,404.6c-0.1-0.4-0.1-0.8-0.2-1.2
		c0-0.3-0.1-0.6-0.1-0.9c-0.7-4.6-1.6-9.2-2.5-13.3c-2.1,0-1.6-1.2-0.9-1.9c-0.6,0.2-1.2,0.3-1.9,0c-0.7-0.1-1.1-0.4-1-1.4
		c0-0.3,0-0.7,0.1-1c-0.4,1.4-2.5,3.2-5.5,2.4c-2.6-0.6-3.2-3.6-3.2-3.6l-0.1-0.5c0.1,4.7,0.1,8.3,0,9.6c-0.7,4.8-0.6,40.1,9.6,38.4
		c6.8-1,7.3-12.1,6-24c-0.1-0.5-0.1-1-0.2-1.5C105.7,405.4,105.6,405,105.6,404.6z"/>
	<path class="st19" d="M100.1,431.3c2.2,0,2.7,0.9,3.2,2.9c0.4,1.8-0.5,3.3-2.2,3.6c-1.8,0.5-4.1-0.9-4.1-2.9
		C96.9,433,97.8,431.3,100.1,431.3z"/>
	
		<linearGradient id="SVGID_00000147924322340657064670000013484432132086046603_" gradientUnits="userSpaceOnUse" x1="88.2849" y1="562.5793" x2="100.0469" y2="561.3431" gradientTransform="matrix(1 0 0 1 0 -200)">
		<stop  offset="1.040000e-02" style="stop-color:#C47C00"/>
		<stop  offset="0.1002" style="stop-color:#C67F06"/>
		<stop  offset="0.1915" style="stop-color:#CA850D"/>
		<stop  offset="0.2835" style="stop-color:#D0921B"/>
		<stop  offset="0.376" style="stop-color:#D9A331"/>
		<stop  offset="0.4689" style="stop-color:#E5BC54"/>
		<stop  offset="0.5608" style="stop-color:#F4DC85"/>
		<stop  offset="0.6146" style="stop-color:#FFF2AB"/>
		<stop  offset="0.6433" style="stop-color:#F0D378"/>
		<stop  offset="0.6739" style="stop-color:#E4BA51"/>
		<stop  offset="0.7075" style="stop-color:#DAA533"/>
		<stop  offset="0.7439" style="stop-color:#D2961F"/>
		<stop  offset="0.7845" style="stop-color:#CC8A10"/>
		<stop  offset="0.8315" style="stop-color:#C8810A"/>
		<stop  offset="0.8904" style="stop-color:#C57D03"/>
		<stop  offset="1" style="stop-color:#C47C00"/>
	</linearGradient>
	<path style="fill:url(#SVGID_00000147924322340657064670000013484432132086046603_);" d="M88.3,362.5c0,1.7,0.4,2.7,1.3,2.2
		s2.8-0.9,5.1-0.9c2.2,0,4.1,0.3,5.1,0.6c1,0.4,0.5-1.1,0.3-2.7c-0.1-1.3,0.2-2.2-1-2.4c0,0-6.2-1.3-10.1,0.7
		C88.4,360.1,88.3,360.5,88.3,362.5z"/>
	
		<radialGradient id="SVGID_00000022522908102964540700000004921853576060501658_" cx="89.4341" cy="515.6754" r="34.478" gradientTransform="matrix(1 0 0 1 0 -200)" gradientUnits="userSpaceOnUse">
		<stop  offset="1.040000e-02" style="stop-color:#C47C00"/>
		<stop  offset="2.040000e-02" style="stop-color:#C67F06"/>
		<stop  offset="0.1261" style="stop-color:#D69E2A"/>
		<stop  offset="0.23" style="stop-color:#E5BB52"/>
		<stop  offset="0.3301" style="stop-color:#F0D276"/>
		<stop  offset="0.4254" style="stop-color:#F8E493"/>
		<stop  offset="0.5137" style="stop-color:#FDEEA5"/>
		<stop  offset="0.5885" style="stop-color:#FFF2AB"/>
		<stop  offset="0.6857" style="stop-color:#EFD174"/>
		<stop  offset="0.9023" style="stop-color:#D0921B"/>
		<stop  offset="1" style="stop-color:#C47C00"/>
	</radialGradient>
	<path style="fill:url(#SVGID_00000022522908102964540700000004921853576060501658_);" d="M108.4,350.6l-4.1-9.6
		c0,0-31.1,3.4-31.1-25.6c0-27,35.2-34.2,48-19.9c0,0-5.7-16.3-25.7-16.8C74.4,278.1,58.3,294,57.7,314
		c-0.8,19.9,13.6,35.2,27.8,37.8C99.5,354.3,108.4,350.6,108.4,350.6z"/>
	<path d="M116.8,290.6c-5.9-6.7-31.9-12.3-44.2,8.4c-11,18.6-1.7,35.8,10.8,42.8c9,5.2,19.4,3.1,19.4,3.1l1.8,3.1
		c0,0-14.3,4.3-27-3.6c-14-9-21-28-10.2-46.6C80,276.1,109.1,280.6,116.8,290.6z"/>
	
		<linearGradient id="SVGID_00000101061970728572050030000003573840473751962496_" gradientUnits="userSpaceOnUse" x1="83.0971" y1="614.8046" x2="87.465" y2="607.2394" gradientTransform="matrix(1 0 0 1 0 -200)">
		<stop  offset="1.040000e-02" style="stop-color:#A87A00"/>
		<stop  offset="1" style="stop-color:#FFB515"/>
	</linearGradient>
	<path style="fill:url(#SVGID_00000101061970728572050030000003573840473751962496_);" d="M83.5,406.3c-1.1,0.4-2-0.6-2.4-1.9
		c-0.5,1.5-2,6.8,1.7,7.7c0,0,1,6.6,7.3,4.1c0,0,0.3-0.2,0.6-0.7l2.2-5.1c0,0-1-0.4-2.4-1.1l-1,1.3
		C88.3,411.3,86.5,412.7,83.5,406.3z"/>
	
		<linearGradient id="SVGID_00000070113222160235636560000010803757620165929639_" gradientUnits="userSpaceOnUse" x1="81.4819" y1="607.7889" x2="92.3451" y2="588.9733" gradientTransform="matrix(1 0 0 1 0 -200)">
		<stop  offset="1.040000e-02" style="stop-color:#A87A00"/>
		<stop  offset="1" style="stop-color:#FFB515"/>
	</linearGradient>
	<path style="fill:url(#SVGID_00000070113222160235636560000010803757620165929639_);" d="M86.4,397.1c-0.2-0.7-2.6-0.5-2.6-5.1
		l0.1-0.7c-0.3-0.5-0.8-1.7-0.8-3.1c0-1.5,0.2-2.8,0.6-3.7c0-0.2,0-0.4,0-0.6c0,0-2.2,2-1.6,5.1c-1.1,0.7-1.7,1.8-0.9,5.4
		c-0.7,0.4-2,3.3,0.3,6.4c-1.3,1.1-0.2,6.4,2.2,5.5c3,6.4,4.8,5,6.1,4.3l4-5.3c0,0,2.4-0.4,2.1-3.9c0,0,0,0-0.1,0
		C92.5,403.9,87,402.8,86.4,397.1z"/>
	
		<linearGradient id="SVGID_00000115479149535080138300000013266363408757722793_" gradientUnits="userSpaceOnUse" x1="85.7431" y1="599.6786" x2="94.7162" y2="584.1368" gradientTransform="matrix(1 0 0 1 0 -200)">
		<stop  offset="1.040000e-02" style="stop-color:#A87A00"/>
		<stop  offset="1" style="stop-color:#FFB515"/>
	</linearGradient>
	<path style="fill:url(#SVGID_00000115479149535080138300000013266363408757722793_);" d="M93.6,387.4c-0.2,0-0.3-0.1-0.4-0.2
		c-0.3,0.1-0.7,0.2-0.5,0.1c0.1-0.1,0.2-0.1,0.2-0.2c-2-0.9-2.4-3.3-2.4-3.3l-0.2-0.6c-1.4-0.8-2.6-1.7-2.1-2.9c0,0-5-0.2-5.1,7.9
		c0,1.4,0.6,2.6,0.8,3.1l-0.1,0.7c0,4.7,2.4,4.5,2.6,5.1c0.7,6.3,7.3,7,10.1,3.3l1.4-5.4c0,0,1.9-5.4-1.7-7.4c0,0-0.1-0.1-0.3-0.1
		C95.3,387.6,94.5,387.6,93.6,387.4z"/>
	
		<linearGradient id="SVGID_00000154419113392273589180000006313440189365697457_" gradientUnits="userSpaceOnUse" x1="119.6339" y1="613.634" x2="95.5491" y2="571.918" gradientTransform="matrix(1 0 0 1 0 -200)">
		<stop  offset="1.040000e-02" style="stop-color:#D19700"/>
		<stop  offset="9.960000e-02" style="stop-color:#D29704"/>
		<stop  offset="0.1501" style="stop-color:#D59C0B"/>
		<stop  offset="0.1909" style="stop-color:#D9A312"/>
		<stop  offset="0.2265" style="stop-color:#E0AF23"/>
		<stop  offset="0.2588" style="stop-color:#E7BD3A"/>
		<stop  offset="0.2883" style="stop-color:#F1CF59"/>
		<stop  offset="0.3158" style="stop-color:#FDE682"/>
		<stop  offset="0.3177" style="stop-color:#FEE886"/>
		<stop  offset="0.3504" style="stop-color:#FEDA63"/>
		<stop  offset="0.3881" style="stop-color:#FECC45"/>
		<stop  offset="0.4278" style="stop-color:#FEC22F"/>
		<stop  offset="0.4698" style="stop-color:#FFBB20"/>
		<stop  offset="0.5157" style="stop-color:#FFB616"/>
		<stop  offset="0.5729" style="stop-color:#FFB515"/>
		<stop  offset="1" style="stop-color:#D19700"/>
	</linearGradient>
	<path style="fill:url(#SVGID_00000154419113392273589180000006313440189365697457_);" d="M119.4,403.4l-0.3,0.1
		c0,0,0.2-0.1,0.7-0.4c0.5-0.9,2.4-5.2,0.3-9.6c-1.9-3.7-3.5-5.8-5.8-6c-0.7,0.1-1.4,0.1-2.1,0.2v1.2c0,0-0.4-5-2.6-7.2
		c-1.9-1.9-4.5-3.3-6.1-2.6c-0.2,0.3-0.6,0.4-0.6,0.4c0.2-0.2,0.4-0.3,0.6-0.4c0.2-0.3,0.2-0.9-0.8-1.9c-0.6-0.7-1.4-1-2-1
		c0.2,0.4,0.3,0.7,0.4,1c0.2,0.6,0.4,1.3,0,1.3c0,0,0.2-0.6,0-1.3c-0.2-0.5-0.4-1-0.4-1l0,0c-0.1-0.1-0.1-0.3-0.2-0.4
		c-0.9-1.2-3.7-2.6-5.8-2.3c-2.6,0.2-5.6,1.5-5.7,5l1.6,5.4c0,0,0.6,3,3.2,3.6c3.1,0.7,5.1-1,5.5-2.4c0-0.4,0.1-0.6,0.1-0.6
		c0,0.2,0,0.4-0.1,0.6c0,0.3-0.1,0.8-0.1,1c-0.1,1,0.4,1.3,1,1.4c0.7,0.2,1.3,0.2,1.9,0c0.1-0.1,0.2-0.2,0.3-0.2
		c0.2-0.1,0.3-0.2,0.4-0.3c0.3-0.3,0.6-0.7,0.8-1.1c0,0,0,0.6-0.8,1.1c-0.2,0.2-0.5,0.4-0.7,0.5c-0.7,0.7-1.2,1.9,0.9,1.9
		c1.3,5.6,2.5,12.2,3.2,18.5c0,0,3.7,1.4,6.7,0.7c3.7-0.9,5.7-3.6,6.5-4.7C119,403.6,119.2,403.5,119.4,403.4z"/>
	
		<linearGradient id="SVGID_00000125576843659638576200000004546519421651355560_" gradientUnits="userSpaceOnUse" x1="168.5187" y1="585.4068" x2="144.4325" y2="543.6884" gradientTransform="matrix(1 0 0 1 0 -200)">
		<stop  offset="1.040000e-02" style="stop-color:#D19700"/>
		<stop  offset="9.960000e-02" style="stop-color:#D29704"/>
		<stop  offset="0.1501" style="stop-color:#D59C0B"/>
		<stop  offset="0.1909" style="stop-color:#D9A312"/>
		<stop  offset="0.2265" style="stop-color:#E0AF23"/>
		<stop  offset="0.2588" style="stop-color:#E7BD3A"/>
		<stop  offset="0.2883" style="stop-color:#F1CF59"/>
		<stop  offset="0.3158" style="stop-color:#FDE682"/>
		<stop  offset="0.3177" style="stop-color:#FEE886"/>
		<stop  offset="0.3504" style="stop-color:#FEDA63"/>
		<stop  offset="0.3881" style="stop-color:#FECC45"/>
		<stop  offset="0.4278" style="stop-color:#FEC22F"/>
		<stop  offset="0.4698" style="stop-color:#FFBB20"/>
		<stop  offset="0.5157" style="stop-color:#FFB616"/>
		<stop  offset="0.5729" style="stop-color:#FFB515"/>
		<stop  offset="1" style="stop-color:#D19700"/>
	</linearGradient>
	<path style="fill:url(#SVGID_00000125576843659638576200000004546519421651355560_);" d="M189.7,365.5c-3.7,3.3-11.1,4.4-11.1,4.4
		c-3.3,4.1-8,5.7-9.9,1.5c-0.9-2.1,1.7-4.1,1.7-4.1c-0.7,2-0.2,3.6,1.1,3.7c2.8,0.4,3-3.1,3.8-5.9c0.5-2.1,1.9-3.9,3.2-5.1
		c-3.3,1.2-5.7-1.5-3.9-2.2c1.2,0.4,2.6,0.8,3-2.2s2.3-3,2.7-5.3c0.1-1.7-0.7,2.1-5.1,4.8c-3.2,2.2-10,3.2-10.8,3.7
		c-0.7,0.7-1.2,1.7,0.8,2.8c-0.7,0.8-2.1,0.9-2.7,0.3c-1.8-1.9-0.9-4.4,0.8-6.5c-0.2,0.1-0.3,0.2-0.5,0.4c-0.4,0.5-0.7,0.9-1.3,1.5
		c-0.3,0-0.7,0-0.9,0c-0.7,0.5-1.2,0.8-1.8,1.1c-0.5,0.6-0.7,1.2-0.4,1.7c-0.8,1-3.2,3-4,3.6c-1.4-0.2-3.2,0.5-3.2,2.7
		c-0.9,0.8-2.3,1.7-3,2.4c-1-0.7-3.5,0.7-3.2,2.3c-0.8,0.6-2.4,1.6-2.9,2c-1.5-0.7-3.6,0.3-3.5,1.9c-1.2,0.9-2.9,2.3-3.7,2.6
		c-0.5-0.7-2.4,0-2.7,1.7c-0.1,0.1-0.2,0.2-0.4,0.3c1,0.9,2.9,3.1,3.8,7.1c0.6,2.9,0.2,5.6-0.4,7.4c0.7-0.4,1.4-0.8,2.1-1.2
		c1.4-0.9,11.4-6.4,13.9-7c2.4-0.8,14.7-7.1,18.9-7.9c0,0,4.7-0.4,7.5-0.4c1.3,0,5.1,0.4,6.6-1.5c1.2-1.9,2.3-1.3,2.9-1.4
		c0.6-0.3,2.6-0.9,3.3-3.7c0.7-2.5,1.5-6.8,3-8.9C192.9,362.3,191.6,363.7,189.7,365.5z"/>
	<path d="M142.4,373c-3.6,4.1,2.8,8.2,5.1,6.1C144.1,379.2,141.5,375.6,142.4,373z"/>
	<path d="M148.5,368.7c-2.3,3.9,2.2,9.2,5.6,7.1C149.7,376,148.1,371,148.5,368.7z"/>
	<path d="M154.6,363.5c-3.1,4,1.5,9.2,6,7.4C156.2,370.3,153.6,366.7,154.6,363.5z"/>
	<path d="M135.4,377.6c-2.3,3.9,1.2,7,4.7,5.6C136.3,382.7,134.6,380.1,135.4,377.6z"/>
	<path class="st15" d="M120.3,388.1c1.4,1.5,2,2.9,2.5,4.3c0.7,2,1.2,4.7,1,7.3c0,0,0,0.1-0.1,0.4l1.2-0.5c0,0,3.2-1.7,4.7-2.6
		s2.6-2.2,2.6-2.2s0,0.2,0,0.5c0.2-0.5,1.4-4.3,1.1-6.9c-0.4-2.9-1.7-5.1-1.7-5.1s-1-1.6-1.4-1.9c-0.1-0.1-0.2-0.1-0.3-0.1
		c-0.2,0.2-0.5,0.4-0.9,0.7c-1.2,0.8-2.2,1.8-5.2,3c-1.8,0.9-3.7,1.4-4.9,1.7C119.4,387.1,119.7,387.5,120.3,388.1z"/>
	<path class="st1" d="M125.6,457.9c-1.2,1.1-2.4,2.2-3.4,1.3c-0.4-0.3-3.1-3-3.4-3.4c-0.4-0.4-0.8-1.9,0.4-3.2
		c1.3-1.2,3.7-4.2,4.3-4.8c0.7-0.3,2.1-0.8,2.8-0.1c0.6-0.8,1.4-1.5,2.1-2.2l-0.7-0.7c-2.2-3.1-4.5-0.7-5.1-0.2
		c-1,0.7-5.1,5.3-6.9,7.2c-1.8,1.7-1,4.1-0.7,4.8c0.5,0.6,6.3,5.9,6.7,6.3c1.2,1.1,3.1,1.3,5.2-1c0.7-0.8,1.6-1.9,2.6-3
		c-0.3-0.2-1.7-1-2.9-2C126.4,457.1,126,457.5,125.6,457.9z"/>
	<path class="st1" d="M129.4,450.4l0.3,0.3c0.7,1.2,0.3,2-0.4,2.8c0.4,0.3,0.8,0.6,1.1,0.9s1,0.8,1.7,1.5c0.3-0.3,0.5-0.6,0.7-0.8
		c1.3-1.9,2.7-2.5,0.7-4.9l-2.1-1.9C130.7,449,130,449.8,129.4,450.4z"/>
	<path class="st1" d="M128.6,408.7c-1.9,0-3.1,1.5-3.1,2.6c0,1,1,8.2,1.5,10.6c0.4,2.2,3.2,1.8,3.8,1.8c0.2,0,0.9-0.1,1.8-0.2
		c-0.2-1.2-0.4-2.3-0.6-3.1c-0.2,0-0.3,0-0.3,0c-0.6,0-1.6,0.2-1.9-1.3c-0.2-1.6-0.4-5.1-0.4-6c0-0.4,0.2-1.5,1.1-1.7
		c-0.2-0.8-0.4-1.8-0.6-2.9L128.6,408.7z"/>
	<path class="st1" d="M140.2,417.4c-0.3-1.9-0.6-5.4-0.9-6.9c-0.6-1.9,0-3.3-3.2-3.2l-2.1,0.5c0.2,0.8,0.4,1.7,0.5,2.6
		c2.4,0.3,1.8,1.8,1.8,1.9c0.3,1,0.4,1.7,0.7,4.5c0.1,1.6,0.5,2.6-0.8,2.9h-0.1c0.2,0.9,0.3,1.9,0.5,3.1c1.1-0.2,2-0.3,2.2-0.4
		C140.3,422,140.4,419.6,140.2,417.4z"/>
	<path class="st1" d="M132.5,436.5c0.3-0.7,0.3-1.3,0.3-2.5c0-1.1-0.3-1.8-0.3-2.2c0.1-0.5,0.2-1.8,0.8-2.3c-0.1-0.8-0.2-1.8-0.3-3
		l-0.8,0.1c-1.4-0.1-2.5,2-2.6,3c-0.1,0.6,0.1,1.6,0.1,3.8c0.1,2.2-0.2,3.7-1.2,4.8c-1.6,1.8-1.1,3.7-0.4,3.8c0.2,0.1,1,0.6,2.1,1.3
		c0.5-0.9,1.1-2,1.7-3C130.5,439.1,132.1,438,132.5,436.5z"/>
	<path class="st1" d="M138.1,429.2c1.6,0.3,0.8,1.3,0.9,2.8c0.2,0.7,0.4,0.7,0.4,2.2c0,0.4-0.1,2.6-0.5,3.5c-0.4,1.4-1.3,3.4-3,4.1
		c-0.5,1.3-1.4,2.7-2.1,3.3c-0.1,0.1-0.2,0.2-0.3,0.3c1.3,0.7,2.4,1.1,3.1,0.9c1.6-0.4,6.5-5.9,6.6-8.1c0-0.7-0.2-3.1-0.2-4.2
		c0.1-1.5,0-3.1-0.1-3.9c-0.3-2.1,0.5-3.7-2.7-3.9l-3.2,0.1c0.2,0.9,0.4,2,0.5,3.1L138.1,429.2L138.1,429.2z"/>
	<path class="st1" d="M142.4,467.9c-0.4,0.5-0.8,0.9-0.9,1c-1.2,1.2-2.1,1.1-3.4,0c-1.3-1.2-4-3.3-4.5-4c-0.5-0.6-1.1-1.9-0.4-2.7
		c-0.6-0.6-1.3-1.3-2.1-2l-0.5,0.7c-1.4,0.9-1.1,3.9-0.4,4.9c0.7,0.9,6.3,5.7,8,7.4c1.9,1.7,4,0,4.9-1.2c0.2-0.2,0.8-1,1.6-2
		C144.1,469.4,143.1,468.7,142.4,467.9z"/>
	<path class="st1" d="M135.7,459.2l1.8-2.3c1.2-0.7,2.2,0,3,0.8c0.9,0.7,2.1,1.6,3.9,3.3c0.8,1.1,2,2.7,1.3,3.2c0,0,0,0-0.1,0.1
		c0.6,0.4,1.1,0.8,1.5,1.1c0.2,0.2,0.6,0.4,1,0.7c0.5-0.7,0.9-1.1,1-1.3c1.2-1.4-0.8-3.9-2.5-5.8c-1.4-1.5-4.1-4.2-5.5-5.3
		c-1.7-1.3-3.2-1.6-4.4-0.5l-3.1,4.1C134.3,457.8,135,458.5,135.7,459.2z"/>
	<path class="st1" d="M159.8,478.7c-0.9,0.9-1.7,1.7-1.9,1.9c-0.9,0.9-2.2,0.7-3.5-0.6c-1.1-1.1-2.8-2.6-3.4-3.3
		c-0.4-0.7-1.2-1.7-0.8-2.5c-0.9-0.6-1.8-1.3-2.6-1.9l-0.5,0.8c-1.4,1-0.4,3.8,0.5,4.9c0.7,1,3.9,3.7,5.8,5.3
		c2.8,2.8,5.1,2.1,6.9-0.2c0.1-0.2,0.8-1,1.6-2C161.4,480.6,160.5,479.7,159.8,478.7z"/>
	<path class="st1" d="M153.9,470.5l1-1.1c1.1-0.8,2.2-0.1,3,0.7c0.9,0.7,1,1.1,3.4,3.3c0.8,0.7,1.4,1.8,1.2,2.4
		c0.3,0.3,0.7,0.6,1,0.9c0.3,0.2,0.8,0.7,1.4,1.2c0.5-0.6,0.9-1,1-1.1c1.7-2.1,0-4.2-1.8-6c-1.3-1.5-3.6-3.9-4.9-5
		c-1.8-1.4-4.8-1-6.1,0.2l-1.9,2C152.2,468.9,153.2,469.7,153.9,470.5z"/>
	<path class="st1" d="M162.2,484.9c-1,2.1,0.5,6.6,0.1,7.3c-0.3,0.7-2.1,2.9-2.3,4c-0.4,1.1,1.1,5.1,1.1,5.1
		c0.6-3.3,4.3-2.5,4.3-2.5c-2.8-1.1,1.7-6.8,1.8-7.9c0.3-0.9-0.6-2-0.6-2c-0.9-1.5-0.7-2.4-0.1-3.1c-0.7-0.8-1.4-1.8-2.3-2.8
		C163.3,483.7,162.5,484.3,162.2,484.9z"/>
	<path class="st1" d="M178.3,486.5c-0.7-4.1-5.4-4.8-5.8-4.9c-0.3-0.1-1.7,0-2.7-0.3c-0.3,0-0.9,0.1-1.6,0.3c0.9,1,1.6,2,2,2.9
		c0.8,0,1.5,0.2,1.9,0.3c0.7,0.2,2.2,2,2.5,3c0.4,0.9-0.4,7.7-0.4,7.7c1.3-4.9,3.3-3.1,3.3-3.1c1.7-0.6,2.2-2.6,2.2-2.6
		S179.2,490.2,178.3,486.5z"/>
	<path class="st15" d="M129.6,458.9c0,0-5.3-3.1-4.5-4.8c1.4-2.6,3.8-0.9,5.1,0.3c1.4,1.2,8.3,6.6,7.2,8.2
		C135.4,465.7,133,461.6,129.6,458.9z"/>
	<path class="st15" d="M132.9,425.1c-0.6-5.2-2.1-7.2,0.5-7.9c2.6-0.8,2.7,2.5,3.4,7.6c0.4,1.7,1.9,7.3-0.6,7.3
		C133,432.1,133.6,430.3,132.9,425.1z"/>
	<path class="st15" d="M129.7,444.1c1.4-2,3-6.4,5.1-5.5c2.9,1,0.2,5.1-1,6.5c-1.1,1.2-5.7,8.4-7.9,6.5
		C123.5,449.3,128.2,446.2,129.7,444.1z"/>
	<path class="st15" d="M162.8,481.7c0,0-4.9-3.8-3.9-5.9c1.2-2.6,3.3-0.4,4.6,0.9c1.4,1.2,8.9,8.1,6.9,10.1
		C167.7,489.4,166.1,484.5,162.8,481.7z"/>
	<path class="st15" d="M146.3,471.1c-1.3-1-6-3.8-5.1-6.2c1.3-3.4,4.5-0.7,5.9,0.4c1.9,1.5,9.7,5.7,7.5,9.1
		C152.7,477.3,147.5,472.1,146.3,471.1z"/>
	<path class="st15" d="M129.9,407.6c0,0-1.8-4.2-0.2-5.9c2.7-3,3.9,4.6,3.9,4.6c0.3,1.6,2.2,7.1-0.6,7.5
		C130.9,414.2,130.5,411.4,129.9,407.6z"/>
	<path class="st1" d="M133.5,397c0.3-0.1,0.6-0.3,1-0.7c0.8-1,2.4-5.1,1.5-9.8c-1-4.6-3.4-6.8-4.2-7.4c-0.5-0.3-1.5-0.4-2.1,0.8
		c-0.3,0.5,0.1,1.5,0.1,1.5s0.1-0.4,0.6,0c0.4,0.3,1.4,1.9,1.4,1.9s1.3,2.2,1.7,5.1c0.3,2.5-0.9,6.3-1.1,6.9c0-0.3,0-0.5,0-0.5
		s-1.1,1.3-2.6,2.2s-4.7,2.6-4.7,2.6l-1.2,0.5c0-0.2,0.1-0.4,0.1-0.4c0.2-2.6-0.4-5.3-1-7.3c-0.6-1.4-1.1-2.8-2.5-4.3
		c-1.3-1.5-1.3-1.9-3.4-2.2c-2.2-0.5-3.7,1.7-3.7,1.7c2.8-0.6,4.7,1.7,6.8,5.9c2.4,5.1-0.4,9.8-0.4,9.8s-1,0.4-0.2,0.6
		c3,0.8,4-2.3,4.3-3.6v0.5c-2.1,9,5.8,5.5,5.8,5.5l-0.4-2.6c-3.1,1.2-3.7-0.8-3.1-2.9c0.3-0.5,1.9-1.4,2.4-1.7
		c0.6-0.5,1.1-0.9,1.7-0.8c1.7,0.3,3.3,1.9,2.8,3.2c-0.2,0.8-0.7,0.6-0.7,0.6c0.6,1.1,1,2.4,1,2.4C137.9,401,135.1,398.2,133.5,397z
		"/>
	<path class="st27" d="M245.4,114.8c-3-2.5-7.8-5.5-14.1-6.5c-11.5-1.7-22.3,0.8-29,2.3c0,0-0.8-2.5-2.9-3.1
		c-1.1-0.2-3.3-0.1-4.1,0.7c0,0-0.4-2.5-4.7-2.7c-2.8-0.2-1.8,3.6-1.8,3.6c-1.9,0.1-7.5-2-7.6-6.4c-0.3-4.8,4.8-5.5,6.2-4.1
		c0,0-1-2.9-3.9-2.9c-4.7,0-6.6,4-6.4,8.8c0.2,5.6,6.7,13.5,19.7,12.6c13-0.7,19.2-5.5,31.2-4.4c6.1,0.6,13.1,1.3,17.1,4.9
		c0.8,0.2,1.5,0.5,2.3,0.9C247.3,118.6,246.8,116.9,245.4,114.8z"/>
	
		<linearGradient id="SVGID_00000017477992388256676860000008398406165474838156_" gradientUnits="userSpaceOnUse" x1="200.4501" y1="316.0669" x2="255.7199" y2="295.9503" gradientTransform="matrix(1 0 0 1 0 -200)">
		<stop  offset="0" style="stop-color:#FFB515"/>
		<stop  offset="2.510000e-02" style="stop-color:#FFB719"/>
		<stop  offset="5.550000e-02" style="stop-color:#FFBE26"/>
		<stop  offset="8.860001e-02" style="stop-color:#FEC83C"/>
		<stop  offset="0.1235" style="stop-color:#FED75D"/>
		<stop  offset="0.1563" style="stop-color:#FEE886"/>
		<stop  offset="0.1815" style="stop-color:#FEDA65"/>
		<stop  offset="0.2095" style="stop-color:#FECF4A"/>
		<stop  offset="0.2418" style="stop-color:#FEC536"/>
		<stop  offset="0.2795" style="stop-color:#FFBE26"/>
		<stop  offset="0.3261" style="stop-color:#FFB91D"/>
		<stop  offset="0.3914" style="stop-color:#FFB616"/>
		<stop  offset="0.5729" style="stop-color:#FFB515"/>
		<stop  offset="0.6315" style="stop-color:#FFB616"/>
		<stop  offset="0.6752" style="stop-color:#FFBA1F"/>
		<stop  offset="0.7142" style="stop-color:#FEC22E"/>
		<stop  offset="0.7503" style="stop-color:#FECB43"/>
		<stop  offset="0.7842" style="stop-color:#FED85F"/>
		<stop  offset="0.8166" style="stop-color:#FEE784"/>
		<stop  offset="0.8177" style="stop-color:#FEE886"/>
		<stop  offset="0.8239" style="stop-color:#F7DA6C"/>
		<stop  offset="0.8346" style="stop-color:#ECC74B"/>
		<stop  offset="0.8466" style="stop-color:#E4B730"/>
		<stop  offset="0.8602" style="stop-color:#DDAB1D"/>
		<stop  offset="0.8761" style="stop-color:#D8A210"/>
		<stop  offset="0.8958" style="stop-color:#D49B0A"/>
		<stop  offset="0.9234" style="stop-color:#D29704"/>
		<stop  offset="1" style="stop-color:#D19700"/>
	</linearGradient>
	<path style="fill:url(#SVGID_00000017477992388256676860000008398406165474838156_);" d="M203.1,102.7c-0.9-5.5-4.8-5.3-2.6-15.3
		c0.7-3.3,3.6-3.7,5.5-3.7c2.3,0,6.3,0,6.3,0l9.6,0.6c0,0,10.2-0.1,16.9,0.2c0,0,13.9,2.2,13.9,3.7c0,1.4-6.2,8.7-6.2,11.8
		c0,3,6.7,13.1,6.7,27.7c0,0-6.9,3-7,1.8c-0.3-3.6-6.6-13.3-12.8-5.5c0,0-3.7-0.4-2.6-2.6c0,0-2,3.3-4.4,2.6c-4-1-7.8-0.2-5.1,2.7
		c0,0-0.3,0.1-1.2-0.4c-1.5-0.6-2.5-2.1-0.5-3.8c3.3-3,1.5-1.1,1.5-1.1s-3.1,2.4-5.3,2.8c-2.8,0.5-6.6-1.2-7.5-1.6
		c-3.2-1.2-4.2-1.1-5.8-0.4c0,0,2.2-2.8,5.1-2.3c3,0.4,4.5,1.1,6.5,1.1c1.8,0,3.3-3.7,8.8-3.7c0,0-1.9-1,0.5-2.6
		c0.7,1.7,3.3,1.1,3.3,1.1c0-1,0.7-1.8,0.7-1.8c6.5,2.6,13,1.7,19.8,4.7c0,0-2.5-9-13.4-11.7c-1.5-0.4-8.9,0-7.4-2.6
		c0,0-4.1,1.1-3.7-0.7c0,0-3.7,0-2.6-2c0,0-3.3-0.4-2.2-2.2c0,0-3.1-0.5-3.9-2c0,0-3.2,1.5-4.2,0c0,0-2.2-1.2-3.7-0.3
		c-1.4,0.8-1.3,5.7-1.3,5.7L203.1,102.7z"/>
	<path class="st1" d="M222.3,84.3c2,0,10.7,0,16.6,0.2c0,0,0.5,0,1.1,0.2l-3.8,6.6c-0.8,1.5-3.1,1.5-4.8,1.6
		c-0.8,0.1-1.4-0.9-2.2-0.9c-4.8-0.3-5.1-3.1-5.1-3.1C223.6,87.3,223,85.8,222.3,84.3z"/>
	<path d="M206.8,88.8v0.3c4.9,0.3,6.9,1,7.2,1.6c0,0.1,0.1,0.2-0.1,0.4c-0.2,0.2-0.4,0.4-0.3,0.6c0.1,0.2,0.7,0.1,2.6-0.6l0.3-0.1
		c0.3-0.1,0.5-0.4,0.4-0.7c-0.1-0.8-1.6-2-3-2C211.9,88.3,206.8,88.8,206.8,88.8z"/>
	<path d="M226.5,85.3c-1,0.7-0.6,2.3,1.2,2.3s1.2-2.3,1.2-2.3h2.3c0.7,0.7,0.8,4.2-3.2,3.7c-3.5-0.3-2.7-3-2.7-3.8L226.5,85.3z"/>
	
		<linearGradient id="SVGID_00000031907713702897840470000014913724748543176335_" gradientUnits="userSpaceOnUse" x1="219" y1="260.5" x2="261.3081" y2="260.5" gradientTransform="matrix(1 0 0 1 0 -200)">
		<stop  offset="0" style="stop-color:#FEE886"/>
		<stop  offset="0" style="stop-color:#FEE886"/>
		<stop  offset="3.410000e-02" style="stop-color:#FEE37B"/>
		<stop  offset="9.340000e-02" style="stop-color:#FED75D"/>
		<stop  offset="0.1702" style="stop-color:#FEC332"/>
		<stop  offset="0.2188" style="stop-color:#FFB515"/>
		<stop  offset="0.2703" style="stop-color:#FFB618"/>
		<stop  offset="0.3165" style="stop-color:#FFBB21"/>
		<stop  offset="0.3607" style="stop-color:#FEC232"/>
		<stop  offset="0.4036" style="stop-color:#FECC49"/>
		<stop  offset="0.4456" style="stop-color:#FEDA6B"/>
		<stop  offset="0.4863" style="stop-color:#FEEA95"/>
		<stop  offset="0.5052" style="stop-color:#FFF2AB"/>
		<stop  offset="0.5171" style="stop-color:#FEE486"/>
		<stop  offset="0.5306" style="stop-color:#FED865"/>
		<stop  offset="0.5458" style="stop-color:#FECD4A"/>
		<stop  offset="0.563" style="stop-color:#FEC435"/>
		<stop  offset="0.5831" style="stop-color:#FFBD26"/>
		<stop  offset="0.608" style="stop-color:#FFB91D"/>
		<stop  offset="0.6428" style="stop-color:#FFB616"/>
		<stop  offset="0.7396" style="stop-color:#FFB515"/>
		<stop  offset="0.7607" style="stop-color:#FFBB21"/>
		<stop  offset="0.8332" style="stop-color:#FECF4A"/>
		<stop  offset="0.8981" style="stop-color:#FEDC6A"/>
		<stop  offset="0.9524" style="stop-color:#FEE57E"/>
		<stop  offset="0.9896" style="stop-color:#FEE886"/>
	</linearGradient>
	<path style="fill:url(#SVGID_00000031907713702897840470000014913724748543176335_);" d="M219,48.6l0.3,3.1l1.4,0.4l1.6,12.8
		c0,0-1.6,0.5-1.3,1.8c0.4,1.4,1.8,1.5,1.8,1.5l0.3,3.1c0,0-1.1,0.1-1,1.7c0.2,1.6,0.7,1.7,0.7,1.7s8-0.9,17.1-0.9
		c9,0,16.3,0.5,16.3,0.5s2.2,0.4,2.2-1.2s-1.1-1.7-1.1-1.7l0.2-3.2c0,0,1.7-0.1,1.6-1.6S258,65,258,65l1.9-12.8l1.2-0.4l0.4-3.1
		l-9.2-1.3l-2.9,2.3l-0.2,2l0.7,0.5l-0.8,6.7l-4.4-0.3l0.2-7.9l0.5-0.5l0.1-3.5c0,0-3.6-0.4-5.8-0.4c-2.2,0.1-5.3,0.4-5.3,0.4
		l0.1,3.6l0.7,0.5l0.6,7.8l-4.2,0.5l-0.8-6.9l0.7-0.5l-0.2-1.9l-2.8-2.4L219,48.6z"/>
	
		<linearGradient id="SVGID_00000157272166992577531810000000147294573790792844_" gradientUnits="userSpaceOnUse" x1="221" y1="265.5473" x2="259.0128" y2="265.5473" gradientTransform="matrix(1 0 0 1 0 -200)">
		<stop  offset="0" style="stop-color:#A87A00"/>
		<stop  offset="0" style="stop-color:#FEE886"/>
		<stop  offset="3.250000e-02" style="stop-color:#FEE57B"/>
		<stop  offset="8.900001e-02" style="stop-color:#FEDC5E"/>
		<stop  offset="0.1621" style="stop-color:#FECE32"/>
		<stop  offset="0.2188" style="stop-color:#FFC211"/>
		<stop  offset="0.2747" style="stop-color:#FFC313"/>
		<stop  offset="0.3248" style="stop-color:#FFC61B"/>
		<stop  offset="0.3727" style="stop-color:#FECC2C"/>
		<stop  offset="0.4192" style="stop-color:#FED344"/>
		<stop  offset="0.4648" style="stop-color:#FEDD64"/>
		<stop  offset="0.509" style="stop-color:#FEEA8D"/>
		<stop  offset="0.5365" style="stop-color:#FFF2AB"/>
		<stop  offset="0.5379" style="stop-color:#FFF1A6"/>
		<stop  offset="0.5484" style="stop-color:#FEE67F"/>
		<stop  offset="0.5602" style="stop-color:#FEDC5F"/>
		<stop  offset="0.5733" style="stop-color:#FED445"/>
		<stop  offset="0.588" style="stop-color:#FECD30"/>
		<stop  offset="0.6053" style="stop-color:#FFC821"/>
		<stop  offset="0.6266" style="stop-color:#FFC416"/>
		<stop  offset="0.6565" style="stop-color:#FFC212"/>
		<stop  offset="0.7396" style="stop-color:#FFC211"/>
		<stop  offset="0.7702" style="stop-color:#FFC922"/>
		<stop  offset="0.8397" style="stop-color:#FED64B"/>
		<stop  offset="0.9019" style="stop-color:#FEE06B"/>
		<stop  offset="0.954" style="stop-color:#FEE67F"/>
		<stop  offset="0.9896" style="stop-color:#FEE886"/>
	</linearGradient>
	<path style="fill:url(#SVGID_00000157272166992577531810000000147294573790792844_);" d="M222.4,64.8c5.9-1.3,11.9-1.8,17.8-1.7
		c5.9,0,12.6,0.7,17.7,1.7c0.7,0.1,1.2,0.9,1.1,1.6s-0.7,1.7-1.5,1.6c-5.9-0.7-11.6-1.2-17.4-1.2c-5.7,0-11.8,0.7-17.3,1.2
		c-0.7,0-1.7-0.7-1.8-1.4C221,65.9,221.7,65,222.4,64.8z"/>
	
		<linearGradient id="SVGID_00000128455927246890815890000009540860136713580197_" gradientUnits="userSpaceOnUse" x1="222" y1="272.1538" x2="258.3" y2="272.1538" gradientTransform="matrix(1 0 0 1 0 -200)">
		<stop  offset="0" style="stop-color:#A87A00"/>
		<stop  offset="0" style="stop-color:#FEE886"/>
		<stop  offset="3.250000e-02" style="stop-color:#FEE57B"/>
		<stop  offset="8.900001e-02" style="stop-color:#FEDC5E"/>
		<stop  offset="0.1621" style="stop-color:#FECE32"/>
		<stop  offset="0.2188" style="stop-color:#FFC211"/>
		<stop  offset="0.2793" style="stop-color:#FFC313"/>
		<stop  offset="0.3335" style="stop-color:#FFC61B"/>
		<stop  offset="0.3853" style="stop-color:#FECC2C"/>
		<stop  offset="0.4357" style="stop-color:#FED344"/>
		<stop  offset="0.485" style="stop-color:#FEDD64"/>
		<stop  offset="0.5328" style="stop-color:#FEEA8D"/>
		<stop  offset="0.5625" style="stop-color:#FFF2AB"/>
		<stop  offset="0.5637" style="stop-color:#FFF1A6"/>
		<stop  offset="0.5729" style="stop-color:#FEE67F"/>
		<stop  offset="0.5832" style="stop-color:#FEDC5F"/>
		<stop  offset="0.5946" style="stop-color:#FED445"/>
		<stop  offset="0.6075" style="stop-color:#FECD30"/>
		<stop  offset="0.6225" style="stop-color:#FFC821"/>
		<stop  offset="0.6411" style="stop-color:#FFC416"/>
		<stop  offset="0.6672" style="stop-color:#FFC212"/>
		<stop  offset="0.7396" style="stop-color:#FFC211"/>
		<stop  offset="0.7702" style="stop-color:#FFC922"/>
		<stop  offset="0.8397" style="stop-color:#FED64B"/>
		<stop  offset="0.9019" style="stop-color:#FEE06B"/>
		<stop  offset="0.954" style="stop-color:#FEE67F"/>
		<stop  offset="0.9896" style="stop-color:#FEE886"/>
	</linearGradient>
	<path style="fill:url(#SVGID_00000128455927246890815890000009540860136713580197_);" d="M223.1,71.2c6-1.2,11-1.4,16.9-1.4
		s12.6,0.5,17.2,1.4c0.6,0.1,1.1,1,1.1,1.7c-0.1,0.7-0.3,1.3-2.2,1.2c-5.2-0.2-10.6-0.4-16.3-0.5c-5.9,0-11.3,0.5-17.1,0.9
		c-0.5,0.1-0.7-0.8-0.7-1.7C222,72.1,222.4,71.3,223.1,71.2z"/>
	<path d="M178.8,488.4c-0.2,0-0.7,0.1-1.1-0.1c-0.4-0.2-0.1,2.1-0.6,1.9c-0.7-0.4-2,0.3-2.4,1l0,0c-0.1,2.2-0.4,4.4-0.4,4.4
		c1.3-4.9,3.3-3.1,3.3-3.1c1.7-0.6,2.2-2.6,2.2-2.6S179.4,490.1,178.8,488.4z"/>
	<path d="M160.4,499.4L160.4,499.4c0.3-0.6,0.7-1.4,1.3-1.5c0.9-0.1,2.1-1.5,2.7-0.4c0,0.6,0.3,1,0.9,1.3c0,0-3.7-0.7-4.3,2.5
		C161.1,501.4,160.7,500.5,160.4,499.4z"/>
	<path class="st1" d="M98.8,401.2c-0.5,4.4-5.9,6.1-6.7,1.5c0,0-1.8,0.9-4.5,1.7c-1.2,3.9,0.5,5.8,3,6.4c-1.1-0.1-2,0-2.3,0.6
		c-2.8,5.2,10.5,6.7,9.6-2.2c-1.4,1.6-3.4,1.8-5.2,1.7C97.3,410.6,102.6,406.6,98.8,401.2z"/>
	<path class="st1" d="M91.4,392.3c-4.3,12.8,17.4,10.7,11.1-0.3c-1,4.1-3.8,4.4-5.8,0.9C94.5,394.6,92.7,393.3,91.4,392.3z"/>
	<path class="st1" d="M349.7,173.9c3.2-2.9,1.9-5.3-1.5-6.3c1.2-1.4,4.1-0.1,5.9,0.9c1.5-6-2.8-4-3.4-6.3c-0.6-2.2-2.4-3-4.4-3.6
		c0.9-0.7,1.6-2.2,2-2.9c3.1,1.6,4.8,0.9,6.7-1.7c-5.5-4.5-3.6-5.8,0.6-6.7c-0.5-2.1-2-3.4-3.7-4.1c4.9-1.2,2-6.5-2.2-6.8
		c0.7,5.1-4.1,4-4.5,1.8c4.4-2.5,7.3-6.9,1.6-7.8c-0.1,1.9-0.1,2.2-1.9,3c0.1-1.8-0.9-3-2.6-3.3c1-0.9,4-0.5,5.3-0.4
		c-1.2-2.6-1.8-3.8-5.1-3.5c1.5-0.7,1.8-1.4,3.7-1.9c-1.6-1.7-2.4-2-4.7-2.2c0.9-1.3,1.4-2.2,0.3-3.8c-5.1,1.6-1.5-2-0.8-3.2
		c-2.2,0.7-3.8,0.3-4.4-0.7c2.5-0.4,3.8-1.6,4.6-3.6c-1.6,0-2,0-3.7-0.8c1.3,0,3.4-1.9,2.3-4.9c-0.8,0.3-2.3,1.6-3.9,0.5
		c2.8-0.7,3.3-2.3,4.3-4.5c-2,0.5-2.5,0.7-4.4,0.5c2.7-1.5,3.5-2.5,3.8-4.9c-1.1,0.6-3.2,1.5-4.5,0.7c2.7-1.5,2.7-2.2,2.7-4.8
		c-1.1,0.4-2.2,0.5-3.4,0c2.2-1.4,4.4-2.8,6.5-4.4c-0.9,0.3-1.9,0.6-2.8,0.8c0.9-0.9,1.7-2,2.2-2.9l-9.5,6.5c1.5,1.2,3.5,2.1,5.3,2
		c-0.5,1.3-2.2,2.2-3.2,2.9c2,2,3.4,1.6,4.4,1.5c-0.8,1.3-2.2,2.2-4.9,3.4c0.9,0.7,4.4,0.6,5.3,0.5c-0.3,1.2-2.7,1.6-3.8,1.7
		c0.9,2.3,2.2,3.7,4.8,2.3c0,1.8-2.3,2.4-4,2.5c1.1,0.9,2.6,2.5,4.1,2.8c-1.6,0.8-3.4,0.7-5.1,0.8c1.2,2,1.8,3.5,4.4,3.7
		c-1.2,2-0.5,3.7,2.4,3.7c-0.7,1.5-3.4,2-4.7,2.4c3.1,1.8,3.6,0.8,6.8,1.2c-1.4,1-2.9,2.6-3.7,4c1.9-0.1,3.7-0.7,5.6-0.2
		c-3,0.2-4.5,1-5,4.9c3.8-1.3,3.8-0.8,2.9,3.6c1.9-0.8,4.5-1.4,5.4-3.3c-0.1,2.6-4.2,3.4-4.6,4.4c-1.4,3.8,8,5.3,8,0.9
		c1.1,0.5,2.2,2.7,0.7,3.1c-3.5,1-3.3,1.2-5.4,2.6c1.6,0.1,5.4-0.3,6.6,2.2c-3.8,1.1-3.6,5.7-0.2,8.1c-1.7,1.5-4.4-0.4-5.8-0.9
		c-0.6,3-1.1,4.1-4.8,5.6c0.5,0.1,6.1,1.2,6.3,3.2c0.4,3.3,3.3,2.1,3.7,3.9c-3.6-1.5-4.2-0.2-7.5,2.2c2.4,0.6,8.4,2,2.2,5.4
		c1.9,2.2,3.8,4.1,7.1,4c-1.5,3.7-8.3,1.4-10.4-0.9c0.8,1.8,2.3,3.9,2.3,6.2c-4-2.5-7.5-0.7-11.4,1.8c1.8,3.2,3.8,6.8,7.6,8
		c-4.1,2.9-9.4-2.6-12.3-4.6c1.4,2.5,3.9,6.8,2.7,9.8c-2.4-4.8-7.2-6.9-11.8-9.1c2.6,3.9,5.5,7.9,5.9,12.7
		c-2.7-2.7-6.8-4.4-10.4-5.8c2.8,3.2,9.9,9.8,6.5,14.7c-1.2-3.6-3.1-6.9-7.7-7.2c-1.2,3-1.7,5.2-0.9,8.8c-2.9-1.2-4.3-7.3-5.1-9.9
		c-2.9,4.1-3.8,6.2-3.6,12c-3.6-3.3-4.1-6.6-5.3-11.1c-2,5.1-3.4,8.3-2.3,14.3c-3.6,0.8-3.9-2.1-4.3-5.7c-3,2.5-4.2,4-3.9,8.1
		c-0.2-0.1-0.4-0.2-0.6-0.3v2c0.9,0.3,1.9,0.5,3,0.7c-0.4-2.5-0.7-4.6,0.4-7c1.3,4.7,4.6,4.2,7.9,3.7c-0.7-3.4-1-6.4-0.2-9.6
		c1.7,4.3,4,6.5,7.7,8.8c-0.3-4-0.8-7.5,0.9-11.4c2.1,6,3.3,7.3,8.5,8.1c-1-3.2-1.9-6.2-0.7-9.4c3.4,0.6,4.8,6.2,5.7,9.1
		c4.8-5.2,2.5-10.8,0.2-14c2.8,1.9,4.1,3.6,6.2,6.6c0.5-5.2,0.3-8.3-2.2-13.2c3.6,2.3,4.9,5.1,6.2,9.1c1.9-3,2.9-5.6,1.9-9.3
		c5.5,2.6,10,1.8,11.5-3.6c-3.2,3-6.5-0.2-8.9-4.7c3.4-3,6.5-2.8,10.6,0.7c0.3-2.4,0.2-3.7-0.7-5.9c3.6,2.2,8.4,0.6,9.1-3.8
		C353.2,176.5,351.9,175.9,349.7,173.9z"/>
	<path class="st1" d="M190.2,219.7c0.3-4.1-0.8-5.6-3.9-8.1c-0.4,3.7-0.7,6.6-4.3,5.7c1-6-0.3-9.2-2.3-14.3
		c-1.2,4.5-1.7,7.9-5.3,11.1c0.2-5.8-0.7-7.9-3.7-12c-0.8,2.6-2.2,8.7-5.1,9.9c0.7-3.6,0.4-5.8-0.9-8.8c-4.5,0.3-6.4,3.6-7.7,7.2
		c-3.5-4.9,3.7-11.5,6.5-14.7c-3.5,1.4-7.7,3.1-10.4,5.8c0.4-4.9,3.3-8.8,5.9-12.7c-4.5,2.2-9.4,4.3-11.7,9.1
		c-1.3-3,1.2-7.3,2.6-9.8c-2.9,2-8.1,7.5-12.3,4.6c3.7-1.1,5.9-4.8,7.6-8c-3.8-2.4-7.3-4.3-11.4-1.8c0-2.2,1.6-4.4,2.3-6.2
		c-2.1,2.3-8.9,4.7-10.4,0.9c3.3,0.1,5.3-1.8,7.1-4c-6.2-3.5-0.1-4.9,2.2-5.4c-3.3-2.3-3.9-3.7-7.5-2.2c0.6-1.9,3.4-0.7,3.7-3.9
		c0.2-2,5.8-3.1,6.3-3.2c-3.7-1.5-4.2-2.6-4.8-5.6c-1.4,0.6-4.1,2.4-5.7,0.9c3.4-2.3,3.6-6.9-0.3-8.1c1.2-2.4,5.1-2.1,6.6-2.2
		c-2.2-1.4-2-1.6-5.4-2.6c-1.4-0.4-0.4-2.6,0.7-3.1c0,4.4,9.4,2.9,8-0.9c-0.4-1-4.5-1.8-4.6-4.4c1,1.9,3.6,2.4,5.5,3.3
		c-1-4.4-1-4.9,2.8-3.6c-0.4-3.8-2-4.7-5-4.9c1.9-0.5,3.7,0.1,5.6,0.2c-0.8-1.4-2.3-3-3.6-4c3.2-0.4,3.6,0.6,6.7-1.2
		c-1.3-0.5-4-0.9-4.6-2.4c2.8,0.1,3.6-1.7,2.3-3.7c2.6-0.3,3.2-1.8,4.4-3.7c-1.8-0.1-3.6,0-5.1-0.8c1.5-0.3,3-1.9,4.2-2.8
		c-1.8-0.1-4.1-0.7-4.1-2.5c2.6,1.4,3.8,0,4.8-2.3c-1.1-0.1-3.6-0.5-3.8-1.7c0.9,0.1,4.5,0.2,5.4-0.5c-2.7-1.2-4.1-2.1-5-3.4
		c1,0.1,2.5,0.5,4.4-1.5c-0.9-0.7-2.7-1.6-3.2-2.9c2,0.1,3.8-0.7,5.3-2l-9.5-6.5c0.6,0.9,1.3,2,2.3,2.9c-0.9-0.3-2-0.6-2.9-0.8
		c2.1,1.6,4.2,3,6.5,4.4c-1.1,0.5-2.2,0.4-3.4,0c0,2.5,0,3.3,2.7,4.8c-1.3,0.8-3.4-0.1-4.5-0.7c0.4,2.3,1.1,3.4,3.8,4.9
		c-1.9,0.2-2.4,0-4.3-0.5c0.9,2.2,1.4,3.8,4.2,4.5c-1.6,1.1-3.1-0.2-3.8-0.5c-1,3,0.9,4.9,2.2,4.9c-1.7,0.8-2.2,0.8-3.7,0.8
		c0.7,2,2.1,3.2,4.6,3.6c-0.6,1-2.2,1.4-4.4,0.7c0.7,1.2,4.4,4.8-0.8,3.2c-1,1.7-0.7,2.5,0.3,3.8c-2.2,0.2-3.1,0.5-4.7,2.2
		c2,0.5,2.2,1.2,3.7,1.9c-3.4-0.4-3.9,0.8-5.1,3.5c1.3-0.1,4.3-0.6,5.3,0.4c-1.7,0.3-2.7,1.5-2.5,3.3c-1.9-0.8-1.9-1.1-2-3
		c-5.7,0.8-2.7,5.2,1.6,7.8c-0.3,2.2-5.2,3.3-4.4-1.8c-4.1,0.4-7.1,5.6-2.2,6.8c-1.9,0.7-3.4,2.1-3.8,4.1c4.1,0.9,6.1,2.2,0.6,6.7
		c2,2.6,3.6,3.3,6.7,1.7c0.4,0.7,1.1,2.2,2,2.9c-2,0.7-3.8,1.5-4.4,3.6c-0.6,2.2-4.8,0.3-3.4,6.3c1.8-1,4.7-2.3,5.9-0.9
		c-3.4,0.9-4.7,3.4-1.4,6.3c-2.2,2.1-3.6,2.6-6.5,2.3c0.7,4.4,5.4,6.1,9.2,3.8c-0.9,2.2-1,3.5-0.7,5.9c4.1-3.5,7.1-3.6,10.6-0.7
		c-2.5,4.5-5.8,7.7-9,4.7c1.5,5.3,6,6.2,11.5,3.6c-1,3.6,0,6.3,1.9,9.3c1.3-3.9,2.6-6.7,6.2-9.1c-2.5,4.9-2.7,8-2.2,13.2
		c2.1-2.9,3.4-4.7,6.2-6.6c-2.3,3.3-4.6,8.8,0.2,14c0.9-2.9,2.3-8.5,5.7-9.1c1.2,3.2,0.4,6.2-0.7,9.4c5.2-0.8,6.5-2.2,8.6-8.1
		c1.7,3.9,1.1,7.4,0.8,11.4c3.6-2.3,6.1-4.5,7.7-8.8c0.8,3.3,0.6,6.3-0.2,9.6c3.3,0.6,6.6,1,7.9-3.7c1.2,2.4,0.7,4.5,0.4,7
		c1.1-0.2,2.1-0.4,3-0.7v-2C190.6,219.6,190.4,219.7,190.2,219.7z"/>
	<path class="st1" d="M92.7,384.1c-1.1-1.6-2.5-0.7-3.5,1.4c-0.6,1.3-0.7,4.1-0.7,4.1c-3.4-8.5,0.7-11.6,0.7-11.6s1.1-1.6,3.1-1.3
		c1.2,0.2,1.1,1,2.2,0.7c0,0,0.7,4.4-0.9,7.4L92.7,384.1z"/>
	<path class="st1" d="M195.2,203.6c0,8,0,93.8,0,93.8c0,12.8,22.1,30,44.8,30c23.7,0,44.8-16.7,44.8-30c0,0,0-85.8,0-93.8
		C277.1,203.6,202.9,203.6,195.2,203.6z"/>
	<path class="st0" d="M199.6,297.4c0,9.6,19.6,25.6,40.4,25.6c20.4,0,40.4-14.6,40.4-25.6c0,0,0-5,0-12.7h-80.7
		C199.6,292.4,199.6,297.4,199.6,297.4z"/>
	<path class="st0" d="M280.4,208c-13.1,0-67.6,0-80.7,0c0,5.9,0,21.7,0,38.4h80.7C280.4,229.7,280.4,213.9,280.4,208z"/>
	<path d="M310.6,501.4l-1,1.3c0,0-0.9,5-2.2,1.6c-0.5-1.1,0.1-2-0.8-1.4c-2.1,1.2-0.9-1.4-2-1.9c0,0,0-1.2,0.7-1.1
		C305.1,499.9,308.5,499.2,310.6,501.4z"/>
	<path d="M325.9,505.5c-0.1,0.6-0.7,0.2-0.7,0.6c0.1,0.3,0.7,0.1,1,0.2c-0.6,0.1-1,0.7-1.3,0.6c-0.9-0.2-1.9-0.6-2.7-0.2
		c0.5-0.7,0.6-1.4,0.3-2.1c-0.7,0.5-3.9,0.9-2.7-0.5c1.3-1.5,4.9-1.4,4.9-1.4C325.5,503.4,325.9,504.3,325.9,505.5z"/>
</g>
</svg>
