<?xml version="1.0" encoding="utf-8"?>
<!-- Generator: Adobe Illustrator 26.0.2, SVG Export Plug-In . SVG Version: 6.00 Build 0)  -->
<svg version="1.1"
	 id="svg2" xmlns:cc="http://creativecommons.org/ns#" xmlns:dc="http://purl.org/dc/elements/1.1/" xmlns:inkscape="http://www.inkscape.org/namespaces/inkscape" xmlns:rdf="http://www.w3.org/1999/02/22-rdf-syntax-ns#" xmlns:sodipodi="http://sodipodi.sourceforge.net/DTD/sodipodi-0.dtd" xmlns:svg="http://www.w3.org/2000/svg"
	 xmlns="http://www.w3.org/2000/svg" xmlns:xlink="http://www.w3.org/1999/xlink" x="0px" y="0px" width="657.9px" height="830.5px"
	 viewBox="0 0 657.9 830.5" style="enable-background:new 0 0 657.9 830.5;" xml:space="preserve">
<style type="text/css">
	.st0{clip-path:url(#SVGID_00000043456849719667005490000013873139821031234978_);}
	.st1{fill:#004EA2;}
	.st2{fill:none;stroke:#FFFFFF;stroke-width:8.0767;stroke-miterlimit:76.1952;}
	.st3{fill:#FFFFFF;}
	.st4{fill:none;stroke:#FFFFFF;stroke-width:1.6191;stroke-miterlimit:76.1952;}
</style>
<defs>
	
		<inkscape:perspective  id="perspective2450" inkscape:persp3d-origin="372.04724 : 350.78739 : 1" inkscape:vp_x="0 : 526.18109 : 1" inkscape:vp_y="0 : 1000 : 0" inkscape:vp_z="744.09448 : 526.18109 : 1" sodipodi:type="inkscape:persp3d">
		</inkscape:perspective>
</defs>
<sodipodi:namedview  bordercolor="#666666" borderopacity="1.0" fit-margin-bottom="5" fit-margin-left="5" fit-margin-right="5" fit-margin-top="5" id="base" inkscape:current-layer="g26777" inkscape:cx="360.85803" inkscape:cy="446.38911" inkscape:document-rotation="0" inkscape:document-units="px" inkscape:guide-bbox="true" inkscape:pageopacity="0.0" inkscape:pageshadow="2" inkscape:window-height="1001" inkscape:window-maximized="1" inkscape:window-width="1920" inkscape:window-x="-9" inkscape:window-y="-9" inkscape:zoom="0.71799648" pagecolor="#ffffff" showgrid="false" showguides="true">
	</sodipodi:namedview>
<g id="layer1" transform="translate(-182.57189,-852.31462)" inkscape:groupmode="layer" inkscape:label="Calque 1">
	<g id="g2993" transform="matrix(1.25,0,0,-1.25,2.953125,1077.1482)" inkscape:label="caen">
		<g id="g7651" transform="translate(-239.85976,-130.96929)" inkscape:label="lorient">
			<g id="g11519" transform="translate(161.28495,-166.31875)" inkscape:label="evian valencienne">
				<g id="g17392" transform="translate(386.26834,-144.50913)" inkscape:label="sochaux nouveau">
					<g id="g26015" transform="translate(-521.04507,-81.052512)" inkscape:label="aja tfc">
						<g id="g26775" transform="matrix(15.239037,0,0,15.239037,-157.38549,-5392.037)">
							<g>
								<defs>
									<polygon id="SVGID_1_" points="34,354.3 68,354.3 68,399.7 34,399.7 34,354.3 									"/>
								</defs>
								<clipPath id="SVGID_00000071553590492981083350000000649692970177703572_">
									<use xlink:href="#SVGID_1_"  style="overflow:visible;"/>
								</clipPath>
								<g id="g26777" style="clip-path:url(#SVGID_00000071553590492981083350000000649692970177703572_);">
									<g id="g26783" transform="translate(51.0235,356.6052)">
										<path id="path26785" inkscape:connector-curvature="0" class="st1" d="M0,0c2.9,4.1,11.3,5.6,14.2,6.3
											c3,0.7,2.8,2.9,2.8,2.9v33.9h-34V9.2c0,0-0.2-2.1,2.8-2.9C-11.3,5.6-2.9,4.1,0,0"/>
									</g>
									<g id="g26787" transform="translate(50.9989,357.582)">
										<path id="path26789" inkscape:connector-curvature="0" class="st2" d="M0,0c-3,3.3-9.4,4.8-12.9,5.6
											c-0.5,0.1-0.9,0.2-1.2,0.3c-2.4,0.6-2.3,2.1-2.3,2.3c0,0,0,0,0,0l0,0v0v33.3v0h32.8V8.2v0l0,0c0,0,0,0,0,0
											c0-0.2,0.1-1.7-2.3-2.3c-0.3-0.1-0.7-0.2-1.2-0.3C9.4,4.8,3,3.3,0,0L0,0z"/>
									</g>
									<g id="g26791" transform="translate(51.0235,378.3148)">
										<path id="path26793" inkscape:connector-curvature="0" class="st3" d="M0,0l5.1,11L0,7.8L-5.1,11L0,0z"/>
									</g>
									<g id="g26795" transform="translate(51.0235,385.5286)">
										<path id="path26797" inkscape:connector-curvature="0" class="st1" d="M0,0l2.4,1.4L0-1.1l-2.4,2.4L0,0z"/>
									</g>
									<g id="g26799" transform="translate(51.0235,378.3148)">
										<path id="path26801" inkscape:connector-curvature="0" class="st3" d="M0,0l5.1-11L0-7.8L-5.1-11L0,0z"/>
									</g>
									<g id="g26803" transform="translate(51.0235,371.1009)">
										<path id="path26805" inkscape:connector-curvature="0" class="st1" d="M0,0l2.4-1.4L0,1.1l-2.4-2.4L0,0z"/>
									</g>
									<g id="g26807" transform="translate(51.0235,378.3148)">
										<path id="path26809" inkscape:connector-curvature="0" class="st3" d="M0,0l-11,5.1L-7.8,0L-11-5.1L0,0z"/>
									</g>
									<g id="g26811" transform="translate(43.8096,378.3148)">
										<path id="path26813" inkscape:connector-curvature="0" class="st1" d="M0,0l-1.4,2.4L1.1,0l-2.4-2.4L0,0z"/>
									</g>
									<g id="g26815" transform="translate(51.0235,378.3148)">
										<path id="path26817" inkscape:connector-curvature="0" class="st3" d="M0,0l11,5.1L7.8,0L11-5.1L0,0z"/>
									</g>
									<g id="g26819" transform="translate(58.2374,378.3148)">
										<path id="path26821" inkscape:connector-curvature="0" class="st1" d="M0,0l1.4,2.4L-1.1,0l2.4-2.4L0,0z"/>
									</g>
									<g id="g26823" transform="translate(51.0235,373.1779)">
										<path id="path26825" inkscape:connector-curvature="0" class="st1" d="M0,0c2.8,0,5.1,2.3,5.1,5.1S2.8,10.3,0,10.3
											S-5.1,8-5.1,5.1S-2.8,0,0,0"/>
									</g>
									<g id="g26827" transform="translate(51.0235,374.114)">
										<path id="path26829" inkscape:connector-curvature="0" class="st3" d="M0,0c2.3,0,4.2,1.9,4.2,4.2S2.3,8.4,0,8.4
											s-4.2-1.9-4.2-4.2S-2.3,0,0,0"/>
									</g>
									<g id="g26831" transform="translate(51.0235,374.5462)">
										<path id="path26833" inkscape:connector-curvature="0" class="st1" d="M0,0c2.1,0,3.8,1.7,3.8,3.8c0,2.1-1.7,3.8-3.8,3.8
											s-3.8-1.7-3.8-3.8C-3.8,1.7-2.1,0,0,0"/>
									</g>
									<g id="g26835" transform="translate(48.9017,381.4719)">
										<path id="path26837" inkscape:connector-curvature="0" class="st3" d="M0,0l-0.2-0.7l-0.6-0.1l0.2,0.3L0,0z"/>
									</g>
									<g id="g26839" transform="translate(48.732,379.6219)">
										<path id="path26841" inkscape:connector-curvature="0" class="st3" d="M0,0l-1.1-1.5l0.8-1.6l1.6,0.4l0,2L0,0z"/>
									</g>
									<g id="g26843" transform="translate(49.6147,376.4138)">
										<path id="path26845" inkscape:connector-curvature="0" class="st3" d="M0,0l0.4-1.2l1.1,0.4l1-0.3l0.5,1.1L2.2,0.2v1.1
											H0.8v-1L0,0z"/>
									</g>
									<g id="g26847" transform="translate(51.0235,378.3148)">
										<path id="path26849" inkscape:connector-curvature="0" class="st3" d="M0,0h-0.6l0,0.9l-0.7,0.4l0.7,1.1L0.2,2L1,2.3
											l0.7-1.1L0.9,0.8V0H0z"/>
									</g>
									<g id="g26851" transform="translate(52.2626,378.8242)">
										<path id="path26853" inkscape:connector-curvature="0" class="st3" d="M0,0v-1.9l1.4-0.4L2.2-1L1.4,0.6L0,0z"/>
									</g>
									<g id="g26855" transform="translate(54.7917,379.0447)">
										<path id="path26857" inkscape:connector-curvature="0" class="st3" d="M0,0l0.1-1l-0.3,0.5L0,0z"/>
									</g>
									<g id="g26859" transform="translate(53.8243,380.9288)">
										<path id="path26861" inkscape:connector-curvature="0" class="st3" d="M0,0l0-0.5l0.5-0.1L0,0z"/>
									</g>
									<g id="g26863" transform="translate(53.3319,381.1326)">
										<path id="path26865" inkscape:connector-curvature="0" class="st3" d="M0,0l-0.2,0.1v-0.2l-0.5-0.2l0.7-1l0.5,0.2l0.4-0.6
											l0.2,0.5L0.2-0.9L0,0z"/>
									</g>
									<g id="g26867" transform="translate(47.5438,379.5369)">
										<path id="path26869" inkscape:connector-curvature="0" class="st3" d="M0,0l0.2-0.7l-0.5-0.6l0,0.9L0,0z"/>
									</g>
									<g id="g26871" transform="translate(47.3572,378.0942)">
										<path id="path26873" inkscape:connector-curvature="0" class="st3" d="M0,0l0.3-0.7L0.1-1l-0.2,0.8L0,0z"/>
									</g>
									<g id="g26875" transform="translate(47.9173,376.7871)">
										<path id="path26877" inkscape:connector-curvature="0" class="st3" d="M0,0l0.4-0.6l0.8,0.1l0.4-1.2L1.4-1.8L0.7-1.4
											L0.1-0.8l-0.3,0.4L0,0z"/>
									</g>
									<g id="g26879" transform="translate(49.7673,374.7842)">
										<path id="path26881" inkscape:connector-curvature="0" class="st3" d="M0,0l1.3,0.5L2.4,0L1.9-0.2l-1.3,0L0,0z"/>
									</g>
									<g id="g26883" transform="translate(50.1578,381.9643)">
										<path id="path26885" inkscape:connector-curvature="0" class="st3" d="M0,0l-0.3-0.7l1.5-0.6l1.4,0.5L2.3-0.2L1.4,0.2
											l-0.7,0L0,0z"/>
									</g>
									<g id="g26887" transform="translate(52.5342,375.0557)">
										<path id="path26889" inkscape:connector-curvature="0" class="st3" d="M0,0l0.6,1.1l0.7-0.2l0.4,0.6l0.1-0.2L1.4,0.8
											L1,0.4L0.4-0.1L0.2-0.1L0,0z"/>
									</g>
									<g id="g26891" transform="translate(47.9003,380.2669)">
										<path id="path26893" inkscape:connector-curvature="0" class="st3" d="M0,0l0.2-0.8l0.5,0.6l0.5-0.2l0.7,1L1.5,0.8
											l0.1,0.3L1.3,1.2L1,0.2L0,0z"/>
									</g>
									<g id="g26895" transform="translate(47.6458,379.7915)">
										<path id="path26897" inkscape:connector-curvature="0" class="st4" d="M0,0l0.2-1.1l-0.4-0.6l0.4-0.8L0-2.8 M0-3.1
											l0.3,0.4l0.4-0.7l0.7,0.2L2-4.8L2-5 M2.6-2h1.8v-1.1l0.7-0.3L4.4-4.7l-1,0.4L2.2-4.7L1.8-3.3L2.6-3C2.6-3,2.6-2,2.6-2z
											 M4.9-5L4.7-4.8l0.7,1.3l0.7-0.2l1,1.6L6.7-1.3l0.3,0.8 M7-0.1L6.6-0.9L6.2-0.1L5.6-0.3L4.8,1.1l0.5,0.2L5.2,1.5l0.5,0
											 M5.9,1.3L6,0.5l0.7-0.3 M1.4,1.7L1.2,0.8L0.3,0.7 M0.1,0.4l0.4-1.1l0.6,0.7l0.6-0.2l0.8,1.2L1.9,1.4L2,1.7L1.5,1.8
											 M1.8-0.2l0.7-0.4l0-1h1.8l0.1,0.9l0.9,0.4L4.5,1L3.6,0.7L2.7,1C2.7,1,1.8-0.2,1.8-0.2z"/>
									</g>
									<g id="g26899" transform="translate(51.0235,382.2035)">
										<path id="path26901" inkscape:connector-curvature="0" class="st1" d="M0,0c-2.1,0-3.9-1.7-3.9-3.9C-3.9-6-2.1-7.8,0-7.8
											S3.9-6,3.9-3.9C3.9-1.7,2.1,0,0,0 M0-7.6c-2,0-3.7,1.7-3.7,3.7c0,2,1.7,3.7,3.7,3.7s3.7-1.7,3.7-3.7C3.7-5.9,2-7.6,0-7.6"
											/>
									</g>
									<g id="g26903" transform="translate(68.0315,365.805)">
									</g>
									<path id="path26905" inkscape:connector-curvature="0" class="st3" d="M66.7,398.4H35.3v-5.8h31.4V398.4z"/>
									<g id="g26907" transform="translate(37.6656,397.1206)">
										<path id="path26909" inkscape:connector-curvature="0" class="st1" d="M0,0l1.8-3.3L0.9-3.5L0.6-2.7h-1.3L-1-3.5l-0.8,0.2
											L0,0L0,0z M-0.4-2.1h0.9L0-1.3L-0.4-2.1z"/>
									</g>
									<g id="g26911" transform="translate(39.6196,394.2299)">
										<path id="path26913" inkscape:connector-curvature="0" class="st1" d="M0,0l0.6,0.6L1.1,0L0.6-0.6L0,0z"/>
									</g>
									<g id="g26915" transform="translate(41.8896,397.0437)">
										<path id="path26917" inkscape:connector-curvature="0" class="st1" d="M0,0l0.8,0.1v-2.2c0-0.7-0.4-1.2-1.2-1.2
											c-0.1,0-0.2,0-0.3,0l-0.2,0.8c0.1,0,0.2-0.1,0.4-0.1C-0.1-2.6,0-2.4,0-2L0,0z"/>
									</g>
									<g id="g26919" transform="translate(43.3088,394.2299)">
										<path id="path26921" inkscape:connector-curvature="0" class="st1" d="M0,0l0.6,0.6L1.1,0L0.6-0.6L0,0z"/>
									</g>
									<g id="g26923" transform="translate(46.3821,397.1206)">
										<path id="path26925" inkscape:connector-curvature="0" class="st1" d="M0,0l1.8-3.3L0.9-3.5L0.6-2.7h-1.3L-1-3.5l-0.8,0.2
											L0,0L0,0z M-0.4-2.1h0.9L0-1.3L-0.4-2.1z"/>
									</g>
									<g id="g26927" transform="translate(51.2025,394.8889)">
										<path id="path26929" inkscape:connector-curvature="0" class="st1" d="M0,0c0-0.8-0.6-1.2-1.4-1.2c-0.8,0-1.3,0.4-1.3,1.2
											v2.2l0.8,0.1V0.2c0-0.4,0.1-0.6,0.5-0.6c0.5,0,0.6,0.4,0.6,0.8v1.8L0,2.2V0z"/>
									</g>
									<g id="g26931" transform="translate(52.6709,395.4564)">
										<path id="path26933" inkscape:connector-curvature="0" class="st1" d="M0,0l-1,1.4l0.8,0.2l0.7-1l0.7,1l0.8-0.3L1,0L2-1.5
											L1.2-1.8L0.5-0.7l-0.7-1.1l-0.8,0.3L0,0z"/>
									</g>
									<g id="g26935" transform="translate(55.1146,393.7441)">
										<path id="path26937" inkscape:connector-curvature="0" class="st1" d="M0,0v3.3h1.9L2,2.6H0.8V2h0.9V1.3H0.8V0.7h1.3
											L1.9,0H0z"/>
									</g>
									<g id="g26939" transform="translate(57.684,397.0437)">
										<path id="path26941" inkscape:connector-curvature="0" class="st1" d="M0,0h0.9c0.8,0,1.3-0.3,1.3-1
											c0-0.3-0.2-0.7-0.5-0.8l0.9-1.3L1.8-3.4l-1,1.6h0v-1.4L0-3.3V0z M0.8-1.6c0.4,0,0.6,0.1,0.6,0.5c0,0.4-0.3,0.5-0.6,0.4
											C0.8-0.7,0.8-1.6,0.8-1.6z"/>
									</g>
									<g id="g26943" transform="translate(60.5994,397.0437)">
										<path id="path26945" inkscape:connector-curvature="0" class="st1" d="M0,0h0.9c0.8,0,1.3-0.3,1.3-1
											c0-0.3-0.2-0.7-0.5-0.8l0.9-1.3L1.8-3.4l-1,1.6h0v-1.4L0-3.3V0z M0.8-1.6c0.4,0,0.6,0.1,0.6,0.5c0,0.4-0.3,0.5-0.6,0.4
											C0.8-0.7,0.8-1.6,0.8-1.6z"/>
									</g>
									<g id="g26947" transform="translate(63.5916,393.7441)">
										<path id="path26949" inkscape:connector-curvature="0" class="st1" d="M0,0v3.3h1.9L2,2.6H0.8V2h0.9V1.3H0.8V0.7h1.3
											L1.9,0H0z"/>
									</g>
								</g>
							</g>
						</g>
					</g>
				</g>
			</g>
		</g>
	</g>
</g>
</svg>
