<?xml version="1.0" encoding="utf-8"?>
<!-- Generator: Adobe Illustrator 26.0.2, SVG Export Plug-In . SVG Version: 6.00 Build 0)  -->
<svg version="1.1" id="svg2" xmlns="http://www.w3.org/2000/svg" xmlns:xlink="http://www.w3.org/1999/xlink" x="0px" y="0px"
	 width="698px" height="886.3px" viewBox="0 0 698 886.3" style="enable-background:new 0 0 698 886.3;" xml:space="preserve">
<style type="text/css">
	.st0{fill:#FFFFFF;}
	.st1{fill:#231F20;}
	.st2{fill:#254991;}
	.st3{fill:none;stroke:#231F20;stroke-width:3.072;stroke-miterlimit:341.32;}
</style>
<path id="path14230" class="st0" d="M349,41.7L38.8,104.8c0,0,0.2,39.6,0.2,153.5c0,114,11.4,223.9,99.8,370.8
	c85.7,142.3,210,212.9,210,212.9s124.4-70.6,210.1-212.9c88.4-146.9,99.8-256.8,99.8-370.8c0-113.9,0.5-153.5,0.5-153.5L349,41.7z"
	/>
<g id="g14242">
	<path id="path14240" d="M0,75.1v159.4c0,129.4,11.1,270.2,110.9,424.8c104.2,161.4,237.7,226.8,237.8,226.9l0.3,0.1l0.3-0.1
		c0.1-0.1,133.6-65.5,237.8-226.9C686.9,504.6,698,363.9,698,234.5V75.1L349,0L0,75.1z"/>
	<path id="path15332" class="st0" d="M696.5,234.5c0,129.4-11.1,269.7-110.7,424C543.2,724.6,490,783.2,428.3,832
		c-18.3,14.5-37.3,27.8-57.2,40.1c-7.1,4.3-12.7,7.5-16.5,9.6c-1.9,1-3.4,1.8-4.4,2.3l-1.2,0.6l-1.2-0.6
		c-15-7.7-138.2-74.6-235.7-225.6C12.5,504.2,1.5,363.8,1.5,234.5V106.6V76.3L349,1.5l347.5,74.8V234.5L696.5,234.5z"/>
	<path id="path15342" class="st1" d="M349.1,12.5L14,85.4v154.3C14,365.4,24.7,501.9,120.6,652C220.7,808.6,349,872.1,349,872.1
		S477.3,808.6,577.4,652C673.3,501.9,684,365.4,684,239.6V85.4L349.1,12.5z"/>
</g>
<path id="path15344" class="st2" d="M349,44.1L43.6,106.5c0,0,0.2,39.1,0.2,151.6c0,112.6,11.2,221.2,98.2,366.3
	C226.5,765,348.8,834.8,348.8,834.8S471.3,765,555.7,624.4c87.1-145.1,98.2-253.7,98.2-366.3s0.4-151.6,0.4-151.6L349,44.1z"/>
<path id="path15346" class="st0" d="M556.7,287.2c-25.5-5.4-43.5-8.9-43.5-8.9l-8.8-1.7v26.6c-3.5-0.6-7.5-1.3-12.2-2.1l0,0
	c-9.6-1.6-17.1-2.6-22.7-3.3v-25.2l-6.3-0.9c-45-6.6-89.8-8-90-8l-7.6-0.2v27.7c-5.8-0.2-12.7-0.3-16.7-0.3
	c-3.9,0-10.6,0.1-16.2,0.3v-27.7l-7.6,0.2c-0.1,0-45,1.4-90,8l-6.3,0.9v25.2c-5.6,0.7-13.1,1.7-22.8,3.3l0,0
	c-4.6,0.8-8.6,1.5-12.2,2.1v-26.6l-8.8,1.7c0,0-18,3.5-43.5,8.9l-5.9,1.2v78.8l1,1.7c0,0,0.5,0.9,1.4,2.3
	c5.4,9.4,25.5,44.1,30.1,52.2c0.2,5.1,0.8,19.8,1.6,39.4c1.2,30.8,2.9,73.3,4.3,108.3c0.7,17.5,1.3,33.1,1.8,44.5
	c0.2,5.7,0.4,10.3,0.5,13.5c0.1,1.3,0.1,2.4,0.1,3.2c-1.7,3.1-5.5,10-8.9,16.3c-2,3.6-3.9,7-5.2,9.5c-1.4,2.6-2.3,4.2-2.3,4.2
	l12.9,7.1c0,0,4.3-7.8,8.6-15.7c2.2-4,4.4-8,6-11c0.8-1.5,1.5-2.8,2-3.7c0.3-0.4,0.4-0.8,0.6-1.1c0.1-0.1,0.1-0.2,0.2-0.4l0.1-0.1
	l0.1-0.1l0.1-0.2l0.7-1.5v-1.9c0-0.4,0-0.8,0-1.1c-0.3-8.4-2.4-60.7-4.4-111.2c-1-25.3-2-50.1-2.8-68.7c-0.4-9.3-0.7-17.1-0.9-22.6
	c-0.1-2.8-0.2-5-0.3-6.5c0-0.8,0-1.4,0-1.8c0-0.2,0-0.3,0-0.5v-2l-1-1.7c-1.1-1.9-26.1-45.2-31.4-54.4v-62.9
	c10.2-2.1,18.9-4,25.4-5.3c1.2-0.2,2.3-0.5,3.3-0.7V321l8.8-1.7c4.8-1,11.5-2.2,20.5-3.7l0,0c13.8-2.3,23-3.3,28.5-3.9l6.6-0.6
	v-25.7c19.9-2.7,39.4-4.4,54.4-5.5c8.3-0.6,15.2-1,20-1.2v27.8l7.7-0.4c5.1-0.2,17.7-0.5,23.3-0.5c5.6,0,18.5,0.3,23.7,0.5l7.7,0.4
	v-27.8c13.6,0.6,43.6,2.5,74.4,6.7v25.7l6.7,0.6c5.5,0.5,14.7,1.6,28.5,3.9c9,1.5,15.7,2.7,20.4,3.7l8.8,1.7v-26.5
	c6.6,1.3,16.6,3.4,28.7,5.9v62.9c-5.3,9.2-30.3,52.5-31.4,54.4l-1,1.7v2.8c-0.2,4.1-0.8,19.2-1.6,39.7c-1.2,30.7-2.9,73.3-4.4,108.4
	c-0.7,17.5-1.3,33.2-1.8,44.6c-0.2,5.7-0.4,10.3-0.5,13.5c-0.1,1.6-0.1,2.9-0.2,3.8c0,0.4,0,0.7,0,1.1v2.3l0.7,1.5l0.1,0.2l0.2,0.3
	c0.2,0.4,0.6,1.2,1.2,2.2c4.1,7.4,16.2,29.5,16.2,29.5l12.9-7.1c0,0-1.1-1.9-2.7-4.9c-2.4-4.4-6-11-9.1-16.6
	c-1.5-2.8-2.9-5.3-3.9-7.2c-0.3-0.5-0.5-1-0.8-1.4c0.4-10.6,2.5-61.3,4.4-110.3c1-25.3,2-50,2.8-68.7c0.4-9.3,0.7-17.1,0.9-22.6
	c0.1-2.8,0.2-5,0.3-6.5v-0.8c2.5-4.2,9.1-15.8,15.8-27.2c4-6.9,7.9-13.7,10.9-18.8c1.5-2.5,2.7-4.6,3.5-6.1c0.9-1.5,1.3-2.3,1.3-2.3
	l1-1.7v-78.8L556.7,287.2L556.7,287.2z"/>
<g id="g15348">
	<path id="path15350" class="st3" d="M538.2,662.4c0,0-1.1-1.9-2.7-4.9c-2.4-4.4-6-11-9.1-16.6c-1.5-2.8-2.9-5.3-3.9-7.2
		c-0.3-0.5-0.5-1-0.8-1.4c0.4-10.6,2.5-61.3,4.4-110.3c1-25.3,2-50,2.8-68.7c0.4-9.3,0.7-17.1,0.9-22.6c0.1-2.8,0.2-5,0.2-6.5
		c0-0.3,0-0.5,0-0.8c2.5-4.2,9.1-15.8,15.8-27.2c4-6.9,7.9-13.7,10.9-18.8c1.5-2.5,2.7-4.6,3.5-6.1c0.9-1.5,1.3-2.3,1.3-2.3l1-1.7
		v-78.8l-5.8-1.2c-25.5-5.4-43.5-8.9-43.5-8.9l-8.8-1.7v26.6c-3.5-0.6-7.5-1.3-12.2-2.1l0,0c-9.6-1.6-17.1-2.6-22.7-3.3v-25.2
		l-6.3-0.9c-29.8-4.2-59.9-6.9-90-8l-7.6-0.2v27.7c-5.8-0.2-12.7-0.3-16.7-0.3c-3.9,0-10.6,0.1-16.2,0.3v-27.7l-7.6,0.2
		c-30.1,1.1-60.1,3.8-90,8l-6.3,0.9v25.2c-5.6,0.7-13.1,1.7-22.7,3.3l0,0c-4.6,0.8-8.6,1.5-12.2,2.1v-26.6l-8.8,1.7
		c0,0-18,3.5-43.5,8.9l-5.9,1.2v78.8l1,1.7c0,0,0.5,0.9,1.4,2.3c5.4,9.4,25.5,44.1,30.1,52.2c0.2,5.1,0.8,19.8,1.6,39.4
		c1.2,30.7,2.9,73.2,4.3,108.3c0.7,17.5,1.3,33.1,1.8,44.5c0.2,5.7,0.4,10.3,0.5,13.5c0.1,1.3,0.1,2.4,0.1,3.2
		c-1.7,3.1-5.5,10-8.9,16.3c-2,3.6-3.9,7-5.3,9.6c-1.4,2.5-2.3,4.2-2.3,4.2"/>
</g>
<path id="path15352" class="st0" d="M39.4,105.3c0,1.8,0,4.1,0,5.5c0,9,0.2,51.2,0.2,149.8c0,56.4,2.8,112.1,16.6,172
	c13.8,59.8,38.5,123.7,82.3,196.6C181,700.1,233,753,274.4,788.3s72.2,52.8,72.4,52.9l2.2,1.3l2.2-1.3c0.2-0.1,31-17.7,72.5-52.9
	c41.5-35.3,93.5-88.2,136-159c43.8-72.9,68.5-136.8,82.3-196.6c13.8-59.9,16.6-115.6,16.6-172c0.1-50.9,0-106.9,0.5-155.3L349.1,42
	L39.4,105.3z M650.1,112.5c0,0-0.4,35.5-0.4,148.1c0,56.1-2.8,111.1-16.3,170s-37.9,121.9-81.2,194.1
	c-41.9,69.8-93.2,122-134.1,156.8c-16.3,13.9-33.3,26.9-51,39.1c-6.3,4.3-11.4,7.6-14.9,9.7l-3.1,1.8l-3.2-1.9
	c-10.7-6.7-36.2-23.4-67.6-50.3c-40.5-34.8-91-86.5-132.2-155.2c-43.3-72.2-67.7-135.2-81.2-194.1c-13.6-58.9-16.4-113.8-16.4-170
	c0-84.8-0.1-127.9-0.2-144v-4l300.9-61.7L650.1,112.5z"/>
<g id="g14177">
	<g id="g13966">
		<path id="path15354" class="st0" d="M102.8,251C84,255.6,74,249.1,73,230.9c-0.1-1.7-0.2-3.5-0.2-5.2c6.8-1.9,13.6-3.7,20.4-5.4
			c0.1,1.4,0.1,2.8,0.2,4.2c0.2,4.2,1,7.1,2.4,8.6c1.5,1.7,4.1,2.1,7.7,1.2c2.4-0.6,4.5-1.9,6-3.9c1.7-2.2,2.4-4.9,2.2-7.6
			c-0.1-3.5-1.2-5.9-3.1-7.3c-2-1.4-6-2.5-11.7-3.1c-8.3-0.9-14.4-2.8-18.1-5.9c-4.1-3.3-6.4-8.8-6.8-16.3
			c-0.5-8.8,1.7-16.5,6.6-22.7c4.6-6,11.4-10.2,20.2-12.3l0.2-0.1c8.5-2,15.4-1.6,20.4,1.3c5.6,3.2,8.5,9.2,8.9,17.8
			c0.1,1.3,0.1,2.7,0.2,4.1c-6.7,1.4-13.4,2.9-20,4.5c0-0.5,0-1-0.1-1.5c-0.5-10.5-4.9-10.6-8.2-9.9c-2.9,0.7-4.8,1.9-6.1,3.6
			c-1.4,2.1-2,4.7-1.7,7.2c0.1,2.6,0.7,4.5,1.7,5.7c1.2,1.4,3.4,2.4,6.7,3.1c4.5,0.9,9,1.8,13.6,2.8c6.7,1.4,11.4,4,14.3,7.4
			c2.5,3.2,3.8,7.8,4.1,13.8c0.8,19.2-9.4,31.1-30,36.1V251L102.8,251z"/>
		<path id="path15356" class="st1" d="M99.1,153.5h-0.2c-9.3,2.3-16.5,6.8-21.4,13.2c-5.2,6.6-7.5,14.7-7,23.9
			c0.4,7.9,2.9,13.7,7.2,17.3c3.9,3.3,10,5.3,18.7,6.2c6.9,0.7,9.8,1.9,11.1,2.8c1.6,1.1,2.5,3.2,2.6,6.3c0.2,2.3-0.4,4.6-1.8,6.4
			c-1.2,1.6-2.9,2.7-4.8,3.1c-4.6,1.1-5.9-0.3-6.3-0.8c-0.9-0.9-1.9-3-2.1-7.9c-0.1-0.9-0.1-1.7-0.1-2.6c0-1-0.1-2.1-0.1-3.1
			c-1.1,0.3-2.3,0.5-3.3,0.8c-5.7,1.5-11.4,3-17.1,4.5c-1.1,0.3-2.3,0.6-3.3,0.9c0.1,1,0.1,2.1,0.2,3.1c0.1,1.2,0.1,2.4,0.2,3.6
			c1,19,11.8,26,31.5,21.2h0.2c21.4-5.2,32.4-18,31.6-38c-0.3-6.3-1.7-11.2-4.4-14.6c-3-3.7-8.1-6.3-15-7.9c-4.5-1-9.1-1.9-13.6-2.8
			c-3.7-0.8-5.3-1.8-6-2.7c-0.8-1-1.3-2.6-1.4-4.9c-0.1-2.7,0.3-4.7,1.4-6.1c1.2-1.5,2.9-2.4,4.8-2.7c1.8-0.4,6-1.4,6.5,8.7
			c0,1,0.1,2.1,0.1,3.1c1.1-0.2,2.3-0.5,3.4-0.8c5.5-1.3,11.1-2.6,16.6-3.8l3.4-0.7c0-1.1-0.1-2.1-0.1-3.1c0-0.9-0.1-1.7-0.1-2.5
			c-0.4-9.1-3.6-15.4-9.5-18.8C115.3,151.8,108,151.3,99.1,153.5 M99.2,156.6c8.1-2,14.6-1.5,19.3,1.1c5.2,3,8,8.6,8.3,16.7
			c0,0.9,0.1,1.7,0.1,2.5c-5.6,1.2-11.1,2.5-16.6,3.8c-0.4-8.8-3.7-12.5-10-11l0,0c-6.6,1.6-9.7,5.9-9.4,12.8c0.1,2.9,0.8,5.1,2,6.5
			c1.4,1.6,3.9,2.7,7.4,3.4c4.5,0.9,9,1.8,13.6,2.8c6.4,1.4,10.9,3.7,13.5,6.9c2.3,3,3.6,7.3,3.8,13.1c0.8,18.3-8.7,29.4-28.4,34.1
			l-0.2,0.1c-17.9,4.3-27.2-1.8-28.1-19c-0.1-1.2-0.1-2.4-0.2-3.6c5.7-1.6,11.4-3.1,17.1-4.5c0,0.9,0.1,1.7,0.1,2.6
			c0.2,4.6,1.1,7.7,2.7,9.4c1.9,2,4.9,2.6,9.2,1.5l0,0c6.1-1.5,10.3-7.1,9.8-13.4c-0.2-3.9-1.4-6.7-3.7-8.2
			c-2.2-1.6-6.3-2.7-12.4-3.3c-8.1-0.8-13.9-2.7-17.3-5.6c-3.9-3.2-6-8.3-6.3-15.5c-0.4-8.5,1.6-15.6,6.2-21.5
			c4.3-5.6,10.7-9.5,19-11.5L99.2,156.6"/>
		<path id="path15358" class="st0" d="M137.7,218.5c6.4-1.3,12.8-2.6,19.2-3.8c0.3,7.5,0.6,15.1,0.9,22.7
			c-6.4,1.2-12.8,2.5-19.1,3.8L137.7,218.5"/>
		<path id="path15360" class="st1" d="M158.6,212.8c-1.1,0.2-2.3,0.4-3.4,0.6c-5.3,1-10.6,2-15.8,3.1l-3.4,0.7c0,1,0.1,2.1,0.1,3.1
			c0.3,6.5,0.5,13,0.8,19.5c0,1.1,0.1,2.1,0.1,3.1c1.1-0.2,2.2-0.5,3.3-0.7c5.3-1.1,10.5-2.1,15.8-3.1l3.4-0.6
			c0-1.1-0.1-2.1-0.1-3.1c-0.3-6.5-0.5-13-0.8-19.5C158.7,214.9,158.6,213.8,158.6,212.8 M155.3,216.6c0.3,6.5,0.5,13,0.8,19.5
			c-5.3,1-10.5,2.1-15.8,3.1c-0.2-6.5-0.5-13-0.8-19.5C144.8,218.6,150.1,217.6,155.3,216.6"/>
		<path id="path15362" class="st0" d="M194.7,232.8c-12.5,1.9-21.3-1.3-26.1-9.7c-3.7-6.2-5.7-17.1-6.3-33.1
			c-0.6-16.1,0.7-27.5,3.9-35c4.2-10,12.9-16.3,25.7-18.3h0.1c11.6-1.7,20,1.2,24.7,8.4c2.9,4.7,4.5,11.8,4.8,21.1
			c0,0.5,0,1.1,0.1,1.6c-7,0.9-14,1.8-21,2.8c0-0.5,0-1-0.1-1.6c-0.2-6.4-1-10.9-2.5-13.3c-1.3-2.2-3.4-3-6.7-2.5
			c-2.3,0.3-5.4,1.5-6.9,7.7c-1.3,4.8-1.7,13.8-1.3,26.6c0.4,12.6,1.6,21,3.5,25.1c1.4,3.1,3.6,4.3,6.9,3.8c2.7-0.2,5.1-1.9,6.3-4.3
			c1.8-3.4,2.6-9.6,2.3-18.2c0-0.5,0-1,0-1.6c7-1,13.9-1.9,20.9-2.8c0,0.5,0,1.1,0,1.6c0.3,11.4-1.3,20.4-4.8,26.7
			c-4.4,8.3-12.3,13.2-23.3,14.9L194.7,232.8L194.7,232.8z"/>
		<path id="path15364" class="st1" d="M192,135.1h-0.2c-13.6,2.1-22.7,8.7-27.2,19.5c-3.3,7.7-4.6,19.4-4,35.7s2.7,27.4,6.5,33.8
			c5.1,8.9,14.4,12.3,27.6,10.3h0.2c11.7-1.8,20-7,24.8-15.9c3.6-6.6,5.2-15.6,4.9-27.4c0-1.1-0.1-2.1-0.1-3.1
			c-1.1,0.1-2.3,0.3-3.4,0.4c-5.8,0.8-11.6,1.5-17.5,2.4c-1.1,0.2-2.3,0.3-3.4,0.5l0.1,3.2c0.3,10.4-1,15.2-2.1,17.4
			c-0.9,1.8-2.8,3.1-4.8,3.2c-1.8,0.3-3.8,0.1-5.3-3c-1.3-2.7-2.9-9.1-3.4-24.6c-0.4-12.7,0-21.5,1.2-26.2c1.5-5.7,4.2-6.1,5.3-6.3
			c3.3-0.5,4.4,0.6,5.2,1.8c1,1.5,2.1,5,2.4,12.7c0,1,0.1,2.1,0.1,3.1c1.1-0.2,2.3-0.3,3.4-0.5c5.8-0.9,11.7-1.6,17.5-2.4
			c1.1-0.2,2.3-0.3,3.4-0.4c0-1.1-0.1-2.1-0.1-3.1c-0.3-9.7-1.9-16.8-5-21.8C213.1,136.4,204.3,133.2,192,135.1 M192.1,138.2
			c11-1.6,18.7,1,23.1,7.8c2.8,4.5,4.3,11.3,4.6,20.4c-5.8,0.7-11.7,1.5-17.5,2.4c-0.2-6.7-1.1-11.4-2.7-14
			c-1.6-2.6-4.4-3.7-8.3-3.1l0,0c-4.3,0.6-7.2,3.7-8.5,9.1c-1.3,5-1.7,14-1.3,27c0.4,12.9,1.6,21.4,3.6,25.6
			c1.6,3.7,4.5,5.2,8.5,4.6l0,0c3.3-0.4,6.2-2.4,7.7-5.3c1.9-3.7,2.8-10,2.5-19c5.8-0.8,11.6-1.6,17.5-2.3
			c0.3,11.2-1.2,19.8-4.5,25.8c-4.2,7.8-11.5,12.4-21.9,13.9h-0.1c-11.9,1.8-20-1.2-24.6-9c-3.5-6-5.6-16.9-6.1-32.6
			s0.7-27.1,3.8-34.3c4-9.4,12-15.2,24.2-17.1V138.2"/>
		<path id="path15366" class="st0" d="M227.5,203.8c6.4-0.8,12.9-1.5,19.4-2.1c0.1,7.6,0.3,15.1,0.5,22.7
			c-6.4,0.7-12.9,1.4-19.3,2.1C227.9,218.9,227.7,211.3,227.5,203.8"/>
		<path id="path15368" class="st1" d="M248.6,199.9c-1.1,0.1-2.3,0.2-3.4,0.3c-5.3,0.5-10.7,1.2-16,1.8c-1.1,0.1-2.3,0.3-3.4,0.4
			c0,1.1,0.1,2.1,0.1,3.1c0.2,6.5,0.3,13,0.5,19.6c0,1.1,0.1,2.1,0.1,3.1l3.4-0.4c5.3-0.6,10.6-1.2,15.9-1.7
			c1.1-0.1,2.3-0.2,3.4-0.3c0-1.1,0-2.1-0.1-3.1c-0.1-6.6-0.3-13.1-0.4-19.6C248.6,202,248.6,200.9,248.6,199.9 M245.2,203.4
			c0.1,6.5,0.3,13,0.4,19.6c-5.3,0.5-10.6,1.1-15.9,1.7c-0.2-6.5-0.3-13-0.5-19.6C234.6,204.5,239.9,203.9,245.2,203.4"/>
		<path id="path15370" class="st0" d="M295.7,164.5c1.1-0.1,2.2-0.1,3.3-0.2c4.2-0.2,7.4-1.2,9.4-3s2.9-4.3,2.9-7.8
			c0-3.7-0.9-6.3-2.6-7.7s-4.5-2-8.4-1.9c0-0.5,0-1.1,0-1.6c0,0.5,0,1.1-0.1,1.6c-1.6,0.1-3.1,0.2-4.7,0.2
			C295.6,151,295.6,157.7,295.7,164.5 M296.3,204.1c1.7-0.1,3.4-0.2,5.1-0.3c4.2-0.2,7.3-1.3,9.3-3.3s3-5.1,3-9.2
			c-0.1-8.1-3.8-11.7-11.7-11.4c0-0.5,0-1.1,0-1.6c0,0.5,0,1.1,0,1.6c-2,0.1-3.9,0.2-5.9,0.3L296.3,204.1 M274.1,129.1
			c10.5-0.8,21.1-1.4,31.6-1.9c17.6-0.7,26.7,7.4,26.8,23.4c0.1,9.4-3.3,16-10,19.7c3.3,1.1,6.1,3.1,8.3,5.8c3.1,3.9,4.6,9,4.7,15.2
			c0.1,8.1-2,14.6-6.1,19.5c-4.9,5.7-12.5,8.8-22.5,9.2c-10.4,0.4-20.8,1.1-31.1,1.8C275.1,190.9,274.6,160,274.1,129.1"/>
		<path id="path15372" class="st1" d="M297.7,181.7l4.1-0.2c7-0.3,10,2.7,10.1,9.8c0.1,3.7-0.8,6.4-2.5,8.1
			c-1.6,1.7-4.4,2.6-8.1,2.8l-3.4,0.2C297.8,195.5,297.8,188.6,297.7,181.7 M297.2,145.7c1,0,1.9-0.1,2.9-0.1h0.1
			c3.4-0.2,5.8,0.3,7.2,1.5c1.3,1.1,2,3.4,2.1,6.6c0,3.1-0.8,5.2-2.4,6.7c-1.7,1.5-4.4,2.3-8.2,2.5c-0.5,0-1.1,0.1-1.6,0.1
			C297.4,157.1,297.3,151.4,297.2,145.7 M305.6,125.7h-0.2c-9.9,0.4-19.8,1-29.7,1.7c-1.2,0.1-2.3,0.2-3.5,0.3c0,1,0,2.1,0.1,3.1
			c0.5,29.9,1,59.7,1.5,89.6c0,1.1,0,2.1,0.1,3.1c1.1-0.1,2.3-0.2,3.4-0.2c9.8-0.7,19.6-1.3,29.5-1.7c10.6-0.5,18.6-3.8,23.8-9.9
			c4.3-5.1,6.5-11.9,6.5-20.4c0-6.5-1.7-11.9-5-16.1c-1.7-2.2-3.8-3.9-6.2-5.2c4.6-3.5,8.4-9.4,8.3-19.4
			C334,133.8,324.2,124.9,305.6,125.7 M294.6,205.7c2.3-0.1,4.5-0.2,6.8-0.3c9.4-0.5,14.1-5.1,14-14.2c-0.1-8.9-4.6-13.3-13.5-12.9
			h-0.1c-2.5,0.1-5.1,0.2-7.5,0.4C294.3,187.7,294.5,196.7,294.6,205.7 M294.1,166.2c1.6-0.1,3.3-0.2,5-0.3
			c9.4-0.5,14-4.6,13.9-12.5c0-4.2-1.1-7.1-3.1-8.8s-5.3-2.5-9.6-2.3h-0.1c-2.2,0.1-4.3,0.2-6.4,0.3
			C293.8,150.5,294,158.4,294.1,166.2 M305.7,128.8c16.6-0.7,24.9,6.8,25,21.9c0.1,10.5-4.3,17.1-13.1,19.9v0.3
			c4.6,0.4,8.8,2.6,11.6,6.2c2.9,3.7,4.4,8.4,4.4,14.2c0,7.8-1.9,13.9-5.7,18.5c-4.6,5.4-11.6,8.2-21.2,8.6
			c-9.8,0.4-19.6,1-29.5,1.7c-0.5-29.9-1-59.7-1.5-89.6c9.9-0.7,19.8-1.3,29.7-1.7H305.7"/>
		<path id="path15374" class="st0" d="M364.7,182.1c4.3,0,8.6,0.1,12.9,0.2c-2.2-10.3-4.3-20.7-6.5-31.1
			C369,161.5,366.9,171.8,364.7,182.1 M358.8,126.1c8.2,0.1,16.5,0.2,24.7,0.4c8,31.2,15.8,62.4,23.5,93.8
			c-7.2-0.3-14.5-0.6-21.7-0.9c-1.3-6.4-2.6-12.7-4-19.1c-6.8-0.2-13.5-0.3-20.3-0.3c-1.3,6.3-2.7,12.6-4,18.9
			c-7.3,0-14.5,0-21.8,0.1C343,188.1,350.9,157.1,358.8,126.1"/>
		<path id="path15376" class="st1" d="M366.8,180.5c1.5-7,2.9-14,4.4-21c1.5,7,2.9,14.1,4.4,21.1
			C372.7,180.6,369.7,180.6,366.8,180.5 M384.9,125l-2.7-0.1c-7.3-0.2-14.6-0.3-22-0.3c-0.9,0-1.8,0-2.7,0c-0.2,0.8-0.4,1.6-0.6,2.4
			c-7.7,29.9-15.3,59.8-22.7,89.9c-0.3,1.3-0.6,2.6-1,3.9l4.3-0.1c6.1-0.1,12.1-0.1,18.2-0.1h2.8c0.2-0.9,0.3-1.7,0.5-2.5
			c1.1-5.5,2.3-11,3.4-16.4c5.8,0.1,11.6,0.2,17.5,0.3c1.2,5.5,2.3,11,3.4,16.5c0.2,0.9,0.3,1.7,0.5,2.6c0.9,0,1.8,0,2.8,0.1
			c6,0.2,12.1,0.4,18.2,0.8l4.3,0.2c-0.3-1.3-0.6-2.6-1-3.9c-7.4-30.3-15-60.5-22.7-90.6C385.3,126.7,385.1,125.8,384.9,125
			 M362.6,183.7c5.7,0,11.4,0.1,17.1,0.3c-2.8-13.5-5.6-27-8.4-40.5H371C368.2,156.8,365.4,170.2,362.6,183.7 M382.1,128.1
			c7.7,30.1,15.3,60.3,22.8,90.6c-6.1-0.3-12.2-0.5-18.2-0.7c-1.3-6.3-2.7-12.7-4-19.1c-7.7-0.2-15.4-0.3-23.1-0.4
			c-1.3,6.3-2.7,12.7-4,19c-6.1,0-12.2,0-18.2,0.1c7.5-30,15.1-59.9,22.8-89.8C367.5,127.8,374.8,127.9,382.1,128.1"/>
		<path id="path15378" class="st0" d="M435.2,223.9c-19.2-1.5-28.9-11.2-28.8-29.6v-5.2c7,0.3,14,0.8,21,1.3c0,1.4,0,2.8,0,4.2
			c0,4.3,0.6,7.4,1.9,9.3c1.5,2.2,4,3.3,7.7,3.7c2.3,0.3,4.5-0.4,6.2-1.9s2.6-3.7,2.7-6.9c0-3.5-0.9-6.2-2.7-8.2
			c-2-2.1-5.9-4.4-11.6-6.8c-8.4-3.6-14.4-7.4-17.9-11.7c-4-4.6-5.9-10.8-5.9-18.4c0-8.9,2.7-15.8,8-20.4c5-4.4,12.1-6.4,21.1-5.7
			h0.2c8.7,0.7,15.5,3.4,20.4,7.9c5.4,4.9,8,11.8,7.9,20.5c0,1.4-0.1,2.7-0.1,4.1c-6.8-0.7-13.6-1.4-20.3-1.9c0-0.5,0-1.1,0-1.6
			c0.1-10.5-4.3-12.1-7.7-12.4c-2.9-0.2-4.9,0.3-6.3,1.6s-2.1,3.6-2.2,6.6c-0.1,2.2,0.3,4.3,1.4,6.2c1.1,1.7,3.3,3.5,6.6,5.2
			c4.5,2.4,9,4.8,13.5,7.2c6.6,3.6,11.2,7.6,13.8,11.9c2.3,3.9,3.4,9,3.3,15c-0.2,9.6-3,16.6-8.4,20.9c-5.4,4.3-13.4,6-23.8,5.2
			L435.2,223.9L435.2,223.9z"/>
		<path id="path15380" class="st1" d="M437.1,126.1H437c-9.5-0.8-17,1.3-22.4,6.1c-5.6,4.9-8.4,12.1-8.5,21.5
			c-0.1,7.9,2.1,14.4,6.3,19.4c3.7,4.5,9.8,8.5,18.5,12.2c6.8,2.9,9.8,5.1,11,6.4c1.5,1.6,2.3,4,2.3,7.1c-0.1,2.7-0.8,4.6-2.1,5.8
			c-1.4,1.2-3.2,1.7-5,1.5c-4.7-0.4-5.9-2.2-6.3-2.8c-0.8-1.2-1.7-3.5-1.6-8.4c0-0.9,0-1.8,0-2.6v-3.2c-1.1-0.1-2.3-0.1-3.4-0.2
			c-5.8-0.4-11.7-0.8-17.5-1.1c-1.1,0-2.3-0.1-3.4-0.1v3.1c0,1.2,0,2.4,0,3.6c-0.1,19.1,10.4,29.6,30.5,31.2h0.2
			c10.9,0.9,19.3-1,25-5.5c5.7-4.6,8.7-11.9,8.9-21.9c0.1-6.3-1.1-11.6-3.5-15.8c-2.8-4.6-7.7-8.9-14.6-12.6
			c-4.5-2.4-9-4.8-13.5-7.2c-2.9-1.5-4.9-3.1-5.9-4.5c-0.9-1.6-1.3-3.5-1.2-5.3c0-2.7,0.6-4.6,1.7-5.6c1-1,2.7-1.3,5-1.2
			c1.9,0.2,6.1,0.5,6,10.7c0,1,0,2.1,0,3.1c1.1,0.1,2.3,0.2,3.4,0.3c5.6,0.5,11.3,1.1,16.9,1.6c1.2,0.1,2.3,0.2,3.4,0.3
			c0-1,0-2.1,0-3.1c0-0.8,0-1.7,0.1-2.5c0.1-9.1-2.7-16.4-8.4-21.7C453.5,129.7,446.3,126.8,437.1,126.1 M437.1,129.2
			c8.3,0.7,14.7,3.2,19.3,7.3c5,4.6,7.5,11,7.3,19.2c0,0.9,0,1.7,0,2.5c-5.6-0.6-11.2-1.1-16.9-1.6c0.1-8.8-3-13.6-9.4-14.1l0,0
			c-6.7-0.5-10.1,2.7-10.2,9.7c-0.1,2.4,0.5,4.9,1.7,7c1.3,2,3.7,4,7.3,5.8c4.5,2.4,9,4.7,13.5,7.2c6.3,3.4,10.7,7.2,13.1,11.2
			c2.1,3.7,3.1,8.4,3.1,14.2c-0.3,18.4-10.5,26.3-30.4,24.7h-0.2c-18.2-1.5-27.2-10.5-27.1-27.9c0-1.2,0-2.4,0-3.6
			c5.8,0.3,11.7,0.6,17.5,1.1v2.6c-0.1,4.6,0.7,8,2.2,10.2c1.8,2.6,4.8,4.1,9.1,4.4h0.1c2.7,0.3,5.4-0.5,7.4-2.3
			c2-1.7,3.1-4.4,3.1-7.9c0.1-4-1-7.1-3.1-9.4c-2.2-2.3-6.2-4.7-12.2-7.3c-8.1-3.4-13.8-7.1-17.1-11.2c-3.7-4.4-5.6-10.2-5.5-17.4
			c0-8.5,2.5-15,7.5-19.3c4.7-4.2,11.3-6,19.9-5.3L437.1,129.2"/>
		<path id="path15382" class="st0" d="M488.5,152.7c-6.3-0.8-12.7-1.6-19.1-2.3c0.1-6,0.2-12,0.3-18c19.8,2.2,39.6,4.9,59.3,8.2
			c-0.2,6-0.3,11.9-0.5,17.9c-6.3-1.1-12.7-2-19-3c-0.6,24.9-1.2,49.8-1.8,74.7c-6.9-1-13.8-2-20.7-2.9
			C487.4,202.5,487.9,177.6,488.5,152.7"/>
		<path id="path15384" class="st1" d="M530.7,139.4c-1.2-0.2-2.3-0.4-3.4-0.6c-18.6-3-37.2-5.6-55.8-7.7c-1.2-0.1-2.3-0.2-3.4-0.4
			c0,1.1,0,2.1-0.1,3.1c-0.1,4.9-0.1,9.9-0.2,14.8c0,1.1,0,2.1,0,3.1c1.1,0.1,2.3,0.2,3.4,0.4c5.2,0.6,10.4,1.2,15.6,1.8
			c-0.5,23.9-1,47.8-1.4,71.6c0,1.1,0,2.1,0,3.1c1.1,0.2,2.3,0.3,3.4,0.4c5.8,0.8,11.6,1.5,17.3,2.4l3.4,0.5c0-1.1,0-2.1,0.1-3.1
			c0.6-23.9,1.2-47.7,1.7-71.6c5.2,0.8,10.4,1.6,15.6,2.5c1.1,0.2,2.3,0.4,3.4,0.5c0-1,0.1-2.1,0.1-3.1c0.1-4.9,0.2-9.8,0.4-14.8
			C530.6,141.4,530.7,140.4,530.7,139.4 M527.2,141.9c-0.1,4.9-0.3,9.9-0.4,14.8c-6.3-1.1-12.6-2-19-3c-0.6,24.9-1.2,49.8-1.8,74.7
			c-5.8-0.9-11.6-1.6-17.3-2.4c0.5-24.9,1-49.8,1.5-74.8c-6.3-0.8-12.7-1.6-19.1-2.3c0.1-4.9,0.2-9.9,0.2-14.8
			C490,136.3,508.6,138.9,527.2,141.9"/>
		<path id="path15386" class="st0" d="M534.3,141.5c7,1.2,14,2.5,21,3.8c-1,30.9-2,61.7-3,92.6c-6.9-1.3-13.7-2.6-20.6-3.8
			C532.5,203.3,533.4,172.4,534.3,141.5"/>
		<path id="path15388" class="st1" d="M557,144.1c-1.1-0.2-2.3-0.4-3.4-0.6c-5.8-1.1-11.7-2.2-17.5-3.2c-1.1-0.2-2.3-0.4-3.4-0.6
			c0,1.1-0.1,2.1-0.1,3.1c-0.8,29.8-1.7,59.7-2.5,89.5c0,1.1,0,2.1-0.1,3.1c1.1,0.2,2.2,0.4,3.3,0.6c5.8,1,11.5,2,17.3,3.1
			c1.1,0.2,2.2,0.4,3.3,0.6c0-1.1,0.1-2.1,0.1-3.1c1-29.8,1.9-59.6,2.9-89.4C556.9,146.2,556.9,145.2,557,144.1 M553.5,146.6
			c-0.9,29.8-1.9,59.6-2.8,89.4c-5.7-1.1-11.5-2.2-17.2-3.1c0.9-29.8,1.7-59.7,2.6-89.5C541.8,144.4,547.6,145.5,553.5,146.6"/>
		<path id="path15390" class="st0" d="M586,207.9c4.2,1,8.5,1.9,12.7,2.9c-1.7-10.8-3.4-21.6-5.2-32.3
			C591,188.2,588.5,198.1,586,207.9 M582.3,150.9c8.1,1.8,16.1,3.6,24.2,5.6c6.6,32.7,13.1,65.5,19.4,98.3
			c-7.1-1.9-14.1-3.7-21.2-5.5c-1.1-6.6-2.1-13.2-3.2-19.8c-6.6-1.6-13.3-3.1-19.9-4.6l-4.6,18c-7.1-1.5-14.3-3-21.4-4.4
			C564.4,209.2,573.3,180,582.3,150.9"/>
		<path id="path15392" class="st1" d="M588.1,206.8c1.7-6.7,3.4-13.3,5.1-20c1.2,7.3,2.4,14.6,3.5,22
			C593.8,208.1,590.9,207.4,588.1,206.8 M608,155.3c-0.9-0.2-1.8-0.4-2.7-0.6c-7.1-1.7-14.3-3.4-21.5-5c-0.9-0.2-1.8-0.4-2.7-0.6
			l-0.7,2.3c-8.7,28.2-17.3,56.4-25.8,84.7c-0.4,1.2-0.7,2.5-1.1,3.7c1.4,0.3,2.8,0.5,4.2,0.8c6,1.2,11.9,2.4,17.9,3.7
			c0.9,0.2,1.8,0.4,2.7,0.6c0.2-0.8,0.4-1.6,0.6-2.4c1.3-5.2,2.7-10.4,4-15.6c5.7,1.3,11.4,2.6,17.2,4c0.9,5.7,1.8,11.4,2.7,17.2
			c0.1,0.9,0.3,1.8,0.4,2.7c0.9,0.2,1.8,0.4,2.7,0.6c5.9,1.5,11.8,3,17.8,4.6c1.4,0.4,2.8,0.8,4.2,1.1c-0.2-1.4-0.5-2.8-0.8-4.1
			c-6.1-31.7-12.3-63.4-18.7-95C608.3,157,608.1,156.1,608,155.3 M583.9,209c5.6,1.3,11.2,2.6,16.8,3.9c-2.2-14.1-4.4-28.1-6.7-42.1
			h-0.2C590.4,183.4,587.1,196.2,583.9,209 M605.2,157.8c6.4,31.6,12.6,63.2,18.8,95c-5.9-1.6-11.8-3.1-17.8-4.6
			c-1-6.6-2.1-13.2-3.1-19.8c-7.5-1.8-15.1-3.6-22.7-5.3c-1.5,6-3.1,12-4.6,18.1c-6-1.3-11.9-2.5-17.9-3.7
			c8.5-28.3,17.1-56.5,25.8-84.6C590.8,154.4,598,156,605.2,157.8"/>
	</g>
	<g id="g14167">
		<path id="path15394" class="st0" d="M293.3,747.2v-34.8h-9.8v-8.7h2c6.2,0,9.7-2.3,10.5-7l0.2-0.9h9.4v51.5L293.3,747.2
			L293.3,747.2z"/>
		<path id="path15396" class="st1" d="M306.6,694.7h-11.4l-0.3,1.8c-0.4,2.6-1.9,6.1-9.4,6.1h-3.1v11h9.8v34.8h14.4V694.7z
			 M304.4,696.9v49.3h-10v-34.8h-9.8v-6.6h0.9c6.8,0,10.6-2.6,11.5-7.9H304.4"/>
		<path id="path15398" class="st0" d="M328.6,704.5c-1.5-0.2-2.9,0.7-3.5,2.1c-0.5,1.2-0.8,3.4-0.8,6.5s0.4,5.4,1.1,6.6
			c0.6,1.1,1.9,1.8,3.2,1.6c1.3,0.2,2.6-0.5,3.3-1.6c0.8-1.2,1.1-3.5,1.1-6.6c0.1-2-0.1-4-0.7-5.9
			C331.8,705.6,330.3,704.4,328.6,704.5 M328,748.2c-9.6,0-14.7-4.7-14.8-13.6v-1.1H325v1.1c0,4.2,1.8,4.8,3.4,4.8
			c1.9,0.1,3.5-1.1,4.1-2.9c0.6-1.6,0.9-4.4,1-8.2c-2.4,1.8-5.3,2.7-8.3,2.6c-8.7,0-13.1-5.5-13.1-16.5c0-12.4,5.7-18.7,17-18.7
			c6.7,0,11.4,2.6,13.9,7.6c1.8,3.6,2.7,9,2.7,16.5c0,9.3-0.7,15.6-2.2,19.3C340.9,745.2,335.7,748.2,328,748.2"/>
		<path id="path15400" class="st1" d="M328.6,720.3c-1.5,0-1.9-0.5-2.3-1.1c-0.4-0.8-1-2.4-1-6.1c0-3.6,0.4-5.3,0.7-6
			c0.3-0.8,0.9-1.5,2.5-1.5c1.2-0.1,2.4,0.7,2.6,1.9c0.5,1.8,0.8,3.7,0.6,5.6c0,3.7-0.5,5.3-1,6.1
			C330.6,719.7,330.1,720.3,328.6,720.3 M329,694.7c-8.3,0-18.1,3.4-18.1,19.8c0,14.5,7.7,17.6,14.2,17.6c2.5,0.1,4.9-0.5,7.1-1.5
			c0,1.9-0.3,3.9-0.9,5.7c-0.4,1.3-1.6,2.2-3,2.1c-0.9,0-2.3,0-2.3-3.7v-2.2h-14v2.3c0.1,6.7,3,14.6,15.9,14.6
			c8.2,0,13.8-3.3,16.4-9.7c1.6-3.8,2.4-10.2,2.4-19.7c0-7.7-1-13.3-2.8-17C341.2,697.5,336.2,694.7,329,694.7 M328.6,722.5
			c1.7,0.1,3.3-0.7,4.2-2.2c0.9-1.5,1.3-3.9,1.3-7.2c0.1-2.1-0.2-4.3-0.8-6.3c-0.6-2.1-2.5-3.5-4.7-3.4c-2-0.1-3.8,1-4.5,2.8
			c-0.7,2.2-1,4.6-0.9,6.9c0,3.3,0.4,5.7,1.3,7.2C325.3,721.8,326.9,722.7,328.6,722.5 M329,696.9c6.3,0,10.6,2.3,12.9,7
			c1.7,3.4,2.6,8.7,2.6,16c0,9.1-0.7,15.4-2.1,18.8c-2.3,5.6-7.1,8.4-14.4,8.4c-9,0-13.6-4.1-13.7-12.5h9.6c0,4,1.5,5.9,4.5,5.9
			c2.3,0.1,4.4-1.4,5.1-3.5c0.7-1.9,1-4.8,1-9v-2.4h-0.1c-1.8,2.8-5,4.2-9.2,4.2c-8,0-12-5.1-12-15.4
			C313.1,702.8,318.4,696.9,329,696.9"/>
		<path id="path15402" class="st0" d="M366.6,704.5c-1.7,0-2.7,0.8-3.3,2.7c-0.7,2.2-1.1,6.5-1.1,12.8v5.3c0,6,0.3,10,1,11.9
			c0.4,1.5,1.8,2.4,3.3,2.3c1.7,0,2.7-0.9,3.3-2.8c0.7-2.1,1-6.3,1-12.7v-5.4c0-6-0.3-10-1-11.9
			C369.5,705.3,368.1,704.4,366.6,704.5 M366.6,748.2c-6.2,0-10.6-2-13.1-5.9c-2.3-3.7-3.4-9.9-3.4-19.1c0-8.8,0.8-15,2.3-18.7
			c2.4-5.8,7.2-8.7,14.2-8.7c6.2,0,10.6,1.9,13,5.8c2.4,3.8,3.5,10,3.5,19.2c0,8.8-0.8,15-2.3,18.7
			C378.4,745.3,373.6,748.2,366.6,748.2"/>
		<path id="path15404" class="st1" d="M366.6,738.4c-1,0.2-2-0.5-2.3-1.5c-0.4-1.2-1-4.2-1-11.5V720c0-7.7,0.5-11.1,1-12.5
			c0.5-1.6,1.2-1.9,2.3-1.9c1-0.1,2,0.5,2.3,1.5c0.4,1.2,1,4.2,1,11.5v5.4c0,7.7-0.5,11-1,12.4C368.3,738.2,367.4,738.4,366.6,738.4
			 M366.6,694.7c-7.4,0-12.7,3.2-15.3,9.4c-1.6,3.9-2.4,10.1-2.4,19.1c0,9.4,1.2,15.8,3.6,19.7c2.7,4.3,7.4,6.5,14,6.5
			c7.4,0,12.7-3.2,15.3-9.4c1.6-3.9,2.4-10.1,2.4-19.1c0-9.4-1.2-15.8-3.7-19.8C377.9,696.8,373.2,694.7,366.6,694.7 M366.6,740.6
			c2.2,0,3.7-1.2,4.4-3.5c0.7-2.2,1-6.6,1-13v-5.4c0-6.2-0.4-10.2-1.1-12.3c-0.6-1.9-2.4-3.1-4.4-3c-2.2,0-3.6,1.2-4.3,3.4
			c-0.7,2.3-1.1,6.7-1.1,13.1v5.4c0,6.1,0.4,10.2,1.1,12.2C362.8,739.5,364.6,740.7,366.6,740.6 M366.6,696.9
			c5.8,0,9.9,1.8,12.1,5.3s3.3,9.8,3.3,18.6c0,8.6-0.8,14.7-2.3,18.3c-2.2,5.3-6.6,8-13.2,8c-5.8,0-9.9-1.8-12.2-5.4
			c-2.2-3.4-3.3-9.6-3.3-18.5c0-8.6,0.7-14.7,2.2-18.3C355.6,699.6,360,696.9,366.6,696.9"/>
		<path id="path15406" class="st0" d="M402.1,748.2c-10.2,0-15.6-5.1-15.6-14.8V731h11.8v1.1c0,7,2.8,7,3.8,7c1.2,0,4.7,0,4.7-8.5
			c0-4.8-0.6-6.9-1.1-7.7c-0.6-1.1-1.8-1.6-3.6-1.6c-2.2,0-3.3,1.1-3.6,3.6l-0.1,1h-11.1l1.9-29H417v10h-18.3l-0.7,7.4
			c2.3-1.5,5.1-2.2,7.8-2c8.7,0,13.1,5.7,13.1,16.8c0,6.2-1.1,10.8-3.3,13.8C413,746.4,408.4,748.2,402.1,748.2"/>
		<path id="path15408" class="st1" d="M418.1,695.7h-29.9l-0.1,2.1l-1.8,26.8l-0.2,2.4h13.3l0.2-1.9c0.3-2.2,1.2-2.6,2.6-2.6
			c2.1,0,2.5,0.8,2.7,1c0.3,0.6,0.9,2.4,0.9,7.2c0,7.4-2.6,7.4-3.6,7.4c-0.7,0-2.7,0-2.7-5.8v-2.2h-14v3.5
			c0,10.4,5.8,15.9,16.8,15.9c6.7,0,11.5-2,14.4-5.9c2.4-3.3,3.5-8,3.5-14.5c0-14.8-7.7-18-14.2-18c-2.2-0.1-4.5,0.4-6.5,1.2
			l0.4-4.3h18.4v-12.3H418.1z M415.9,697.9v7.8h-18.2l-1,11.2h0.1c1.8-2.5,4.8-3.7,9-3.7c8,0,12,5.2,12,15.7
			c0,5.9-1.1,10.3-3.1,13.1c-2.5,3.4-6.7,5.1-12.7,5.1c-9.7,0-14.5-4.6-14.5-13.7v-1.3h9.6c0,5.4,1.6,8.1,4.9,8.1
			c3.9,0,5.8-3.2,5.8-9.6c0-4.1-0.4-6.8-1.2-8.3c-0.8-1.4-2.3-2.2-4.6-2.2c-2.8,0-4.4,1.5-4.7,4.5h-9l1.8-26.8L415.9,697.9"/>
	</g>
</g>
<g id="g14122">
	<g id="g14115">
		<path id="path15410" class="st0" d="M349.1,669.1c-101.4-57.8-153.4-169.8-152.7-280.2c64.2-35.3,131.5-37.2,152.7-37.2h0.1
			c21.4,0,89.2,2,153.8,37.2C503.6,499.3,451.2,611.3,349.1,669.1L349.1,669.1L349.1,669.1z"/>
		<g id="g14026">
			<path id="path15412" class="st1" d="M349.1,669.1l1.8-3.2c-49.7-28.3-87.4-69.9-112.7-118S200,445.2,200,390.9v-2h-3.7l1.8,3.2
				c31.6-17.4,64.1-26.6,91.3-31.5c19.7-3.5,39.6-5.3,59.6-5.3h0.1c20.1,0,40.2,1.8,60,5.4c27.4,4.8,60.1,14,92,31.4l1.8-3.2h-3.7
				c0,0.6,0,1.3,0,2c0,54.3-13,108.9-38.4,156.9c-25.5,48.1-63.4,89.7-113.5,118L349.1,669.1l0.1-3.7h-0.1V669.1l1.8-3.2
				L349.1,669.1v3.7h0.1c0.6,0,1.3-0.2,1.8-0.5c51.4-29.1,90.3-71.7,116.4-121c26.1-49.2,39.3-105,39.3-160.4c0-0.7,0-1.4,0-2
				c0-1.3-0.7-2.6-1.9-3.2c-32.7-17.9-66.2-27.3-94.2-32.3c-20.2-3.6-40.8-5.4-61.3-5.5h-0.1c-20.4,0-40.8,1.9-60.9,5.5
				c-27.8,4.9-61.1,14.4-93.6,32.3c-1.2,0.6-1.9,1.9-1.9,3.2c0,0.7,0,1.3,0,2c0,55.5,13.1,111.2,39,160.4s64.5,91.9,115.6,121
				c0.6,0.3,1.2,0.5,1.8,0.5L349.1,669.1L349.1,669.1z"/>
			<path id="path15414" class="st0" d="M349.2,653.6c-92.7-53-140.2-155.7-139.6-257c58.6-32.4,120.2-34.2,139.6-34.2l0,0
				c19.6,0,81.6,1.8,140.6,34.2C490.4,497.8,442.5,600.6,349.2,653.6L349.2,653.6z"/>
			<path id="path15416" class="st1" d="M349.2,653.6l0.8-1.3c-45.8-26.2-80.6-64.6-103.8-109c-23.3-44.4-35.1-94.8-35.1-144.9v-1.8
				h-1.5l0.7,1.3c58.3-32.2,119.6-34,138.9-34l0,0c19.5,0,81.2,1.8,139.9,34l0.7-1.3h-1.5v1.8c0,50.1-11.9,100.5-35.3,144.9
				s-58.4,82.8-104.5,109L349.2,653.6v-1.5l0,0V653.6l0.8-1.3L349.2,653.6v1.5h0.4l0.3-0.2c46.7-26.5,82-65.3,105.7-110.2
				c23.7-44.9,35.7-95.7,35.7-146.3v-2.7l-0.8-0.4C431.1,362.7,368.9,361,349.2,361l0,0c-19.5,0-81.3,1.8-140.4,34.3l-0.8,0.4v0.9
				c0,0.6,0,1.3,0,1.9c0,50.5,11.9,101.4,35.5,146.3c23.5,44.8,58.6,83.7,105,110.2l0.3,0.2h0.4L349.2,653.6L349.2,653.6z"/>
		</g>
	</g>
	<g id="g13988">
		<path id="path15418" class="st0" d="M395.7,479.4l5.7,0.8l5.6-2l3.1-4.5l2.1-8l0.9-7.4l-4-13.3l-5.3-17l3.1,0.5l3.1-0.5l3.9-2.3
			l4.4-3.9l5.2-1.5l4.7,1l2.3,1.9l-1.3,2.8l-3.3,1.1l-5.3,0.8l-3.7,2.2v2.4l1,1.9l3,0.7l4.3-1.3l2.5-3.1l0.9-1.4l8.6-0.9l8.4-0.5
			l-13.7,34l-4.8,15.7l-2.6,4.7l-4.9,4l-9.6,3.4l-4.7,0.9l-7.8-3.9L395.7,479.4L395.7,479.4z"/>
		<path id="path15420" class="st0" d="M391.1,490l2.8,5.9l2.3,7.4l2.4,7.7l6.1,6.6l6.9,1.6l5.9,4.2l2.9,9.9l2,0.8l7.1-10.1
			l-0.4-13.8l-3-4l-9.4-3.7l-8.6-4.9l-4.4-6.5l-5-4.6L391.1,490z"/>
		<path id="path15422" class="st1" d="M396.2,476.1c4,1.5,7,0,5.8-1s-2.7-4.9-2.9-7.5c1.8-0.1,6.3-1.1,7.3-2.1
			c-0.2-0.4-3.7-4.4-3.7-4.8s2.7-1.2,3.6-1.5c0.9-0.2,1.4-1.1,1.1-2l0,0c-0.4-2-1.8-1.8-2.9-3.1c-1.1-1.3-1.3-6.3-1.4-7.4l1.9-3.2
			l-6.6-6.5l3.1-3.5c-0.2-1.1-2.6-1.6-4.5-2.2s-5.1-3.5-6.8-7.7c-1.7-4.2-3.5-4.4-4.5-4.8c0,0,1.1-2.7,1.1-2.9c-2.3-2-5.9-1.2-8-2.2
			c-2.5-1.3-11.1-4.5-12.5-5.2l-0.5-2.8c0,0-7.1,0-8.4-0.2c-3.3-0.4-5-3.2-6.5-3.3c-1.4-0.1-1.2,0.9-4,0.2
			c-8.3-2.8-15.8-1.8-17.5-0.8c0,0-0.1-2-0.3-3.4c-0.3-1.8-2-1.2-2.1-0.4c-2.1,5.6-11.4,4.9-14.8,6.7l-4-2c0,0-2.6,3.7-4,4.7
			c-2.4,1.3-5,2.5-7.6,3.4c-2.4,0.9-4.5,2.6-6.1,4.7h-3.7v2.5c0,2.4-1.8,3.6-3.1,5.6c-1.1,1.8-1.8,3.7-2.1,5.7
			c-0.3,2.4-2.9,2.7-4.7,4.5c-0.9,0.8-1.4,3.9-1.4,4.8c0,1,0.6,1.3,0.6,2.2c0.1,0.9-0.2,1.7-0.9,2.3c-1.5,1.1-2.3,3-2,4.9
			c0.2,1.9-0.8,3.6-0.9,4.6c-0.1,1.5,0.2,2.9,0.9,4.2c0.5,0.6,0.6,1.5,0.3,2.2c-0.5,1.3-2.1,7.1-2,9.2c0,1.7,0.4,3.3,1.2,4.8
			c0.3,0.7,0.4,1.6,0.1,2.3c-0.2,0.4-10.4,19.1-11.8,22.1c-0.9,1.6-2,4.2-1.9,6.3c0.2,4.2,3.1,4.8,4.6,4.9c0,0,3.6,0.1,5.6,0
			c0,0,0,0-0.1,2.7c-0.1,2.7-4.7,3.1-4.8,6.8c0,2.8,2.6,4.6,4,5.2c-0.9,2.1-1.4,2.6-1,5.5c0.5,3.6,5.6,3.4,7.6,3.4
			c3.2,7.7-0.7,9.1,0,14.3c1.5,9.4,16.8,11.4,31.7,7.6c4,16.5,18.6,7.9,23.3,36.2c27.1,8,39.3-22.4,52.5-34.8
			c4.8-5.3,16-10.9,16.2-11.1s0.8-0.5,0.1-1.2c-11-9.3-15.4-27-15.7-30.1c0,0,4.2-0.6,4.7-0.7c0.5-0.1,1.6-0.4,0.6-1.6
			c-1.1-1.2-5.1-6-4.7-6c2.4,0,4.7-0.2,7.1-0.5c-0.3-1.6-0.9-3.1-1.6-4.5c-0.9-1.2-1.2-2.8-1-4.3c0-1.2,0.3-2.4,0.9-3.4
			c1.8,1.9,6.3,0.7,8.9-4C401.1,482,396.8,479.8,396.2,476.1"/>
		<path id="path15424" class="st0" d="M280,434.7c1-0.4,4.6-2.3,5-4.5c0-0.5,0.5-0.9,1-0.8c0.1,0,0.3,0.1,0.4,0.1
			c2.2,0.2,32,13,37.4,17.5s-23.5-3.9-28.9-5.7c2.6,2.3,23.5,9.6,33.3,9.9c2.7,0.1,7.6-0.6,12.4,1.8c4.1,2,8.6,3.3,13.2,3.8
			c-1.7,0.5-3.6,0.8-5.4,0.7c3.3,1.6,7.7,2.5,9.8,3c10,2.5,17.6,11,21.7,13.3c3.2,2.2,11.1,4.4,11.3,10.3c0,1.5-1.7,1.8-2.3,1.8
			c-4.2-0.2-4.2-3.4-7.9-3.3c-5.6,0.4-10.5-2.7-14.3-1.3c3.8,0.2,5.2,1.6,9,2.9c3.4,1.5,6.2-0.9,8.1,1.9c-2.1,1.1-7.2,1.3-9.5,1.1
			c-4.6-0.2-5.5-2.2-7-2.9c-2-0.9-3.7-0.4-4.2,0.6c-1,2.2-2.7,4.2-4.7,5.5c-1.8,1-4.6,2.5-6,5.8s-4.3,10.2-9.5,9.8
			c-5.2-0.3-5.8-4-5.7-4.4c0.6,0.9,1.4,2.5,5.4,2.5s6.7-5.8,8.6-11c1.9-3.4,4.2-3.7,6.4-5.4c2.3-1.7,4.2-5.7,3.6-10.3
			c-0.4-2.9-4.8-10.2-14.1-8.1c-4.3,1.5-8.1,4.2-10.9,7.8c-5.2,0-15-4.3-15.8-4.7c2.7-0.1,5.4-0.7,7.9-1.7
			c-3.4-0.3-15.1,0.1-22.3-1.9c-7.2-2-15.9-6.4-18.2-7.3c-3.8-1.5-11.9-2.4-11.9-7.7c0.1-2.7,1.1-3.4,1.1-3.4l5.6,0.5
			c0,0-5.1-2.5-5.5-3.5c-0.6-0.9,0.1-3,0.4-3.3c0.3-1.2,1.5-2,2.7-1.8c1.1,0,2.3,0.2,3.4,0.6c0,0-4.5-3.5-4.7-4.6
			c-0.8-1.3-0.3-3,1.1-3.8C279.9,434.7,279.9,434.7,280,434.7"/>
		<path id="path15426" class="st1" d="M279,454.8c5.6-0.1,12-2,22.4,3.7c6.8,4.7,19.9,3.6,22.4,2.9c-3.3,2.6-17.5,3.4-24.7-1.2
			C292.8,456.2,284.3,455,279,454.8"/>
		<path id="path15428" class="st1" d="M354.4,463.3c8.3,1.1,15.2,4.7,22.3,10c4.1,3.1,10.7,5,11.6,9.1c-1.6-2.3-8.5-5.6-15.4-5.8
			c-6.9-0.3-8.5,0.1-10.1-2c-4.7-6.3-19.6-12.9-26.6-15.4c10.5,2.2,21.8,6.9,28.1,14.1c0.7,0.8,2.5,1.3,4.7,1.3c2.4,0,6.1,0.4,7.2,1
			C375.2,474.4,365.7,466.6,354.4,463.3"/>
		<path id="path15430" class="st0" d="M338.9,480.9c0,3.2,8.3-8.3,13.3-5.1c3.4,2.1,1.7,7.3,1.3,8.6c-0.2,1.9,1.9,0.5,2.7-1.4
			c0.5-1.6,1.7-6.5-2.7-9.2C348.5,470.7,339.4,477.6,338.9,480.9"/>
		<path id="path15432" class="st0" d="M346.7,483.4c0,1.2,2,1,2,2.2c0,1.3-2.2,2-3.5,3.3s-0.5,5.1-2.1,5.1c-1.5,0.1,0-2-2-1.8
			c-1.5,0.1-1.5,3.5,1.2,4.1c4,0.7,3.6-2.7,4.5-5.5c0.5-1.5,4.3-1.4,4.3-5.2C351.1,481.7,346.8,482.1,346.7,483.4"/>
		<path id="path15434" class="st0" d="M283.7,472.6c4,5.2,9.9,8.6,16.5,9.3c0,4.1-9.1,3.1-10.6,6.7c-1.6-1.6,1.5-4.8,6.4-5.2
			c-2.2-0.5-4.3-1.5-6.2-2.7c0.1,2-1,4.7-3.5,4.3c-2.5-0.2-2.7-6.4-1.2-7.3C285,477.7,281.7,474.6,283.7,472.6"/>
		<path id="path15436" class="st1" d="M396.4,478.5c1.3,0.4,7.1,1.4,10.6-2c3.8-3.4,6.5-13,3.7-22.7c-0.9-3-7.2-24.6-8.3-26.4
			c-0.9-1-1.4-2.2-1.5-3.5c-0.1-2,1.6-4.2,5.6-4.8c2.4-0.4,4.8-1,7.1-1.8v-10.5c2.9-0.5,11.2-2.2,11.4,4.5v8.3
			c1.4,0,6.3,0.4,6.4,4.5c0.2,3.5-3.3,4-5.4,4.2s-8.5-0.1-8.3,3.9c0.2,1.9,2.9,2.1,3.7,2c2.4,0,4.9-1.8,6.5-5.7l9.7-1.2
			c1.1-1.1,1.8-2.6,1.9-4.2c0.1-1.9-0.9-3.3-0.5-3.9s1.5-0.6,2.6-0.2s6.3,3.1,6.1,6.1c-0.3,3-13.8,31.2-17.1,43.7
			c-0.8,3-2.2,11.8-7.2,16.4c-3.8,3-12.6,6-14.4,6.5c-1.3,0.3-2.6,0.3-3.9,0c-2.1-0.4-8.1-4-9.4-6.6c-0.8-1.7,4.1,1.4,6.4,3.1
			c2.6,1.7,5.9,2,8.8,0.8c2.7-1.2,10.9-3.8,13.5-8.4c2.2-4,2.9-6.4,4.2-12s15.5-39.7,15.5-39.7c-4,0.4-14.4,1.2-14.4,1.2
			c-0.6,1.6-4.1,7.7-11.1,5.6c2.1,7.3,1.2,20.5-1,24.3c0.8-3,2-19.6-0.7-25.5c-0.9-0.8-1.4-1.9-1.3-3c0-1.6,2-4.3,5.7-4.7
			c3.7-0.4,8.1,0,8.1-2.7c0-2.8-3.8-2.5-4.9-2.5c-7.7,0-9.7,9.3-18.6,8.2c0,0,6.6,22.8,7.1,24.6c0.9,2.1,5,28.7-15.8,26.6
			c-0.2,1,13.2,2.1,18.1-3.2c-0.8,1.9-6,5.9-17.8,4.9c4.2,2.6,14.3,2.1,18.6-1.2c-3,3.2-9.9,5.6-18.5,2.7L396.4,478.5L396.4,478.5z"
			/>
		<path id="path15438" class="st0" d="M440.4,427c1.1-1.7,1.4-3.7,1-5.7c1.2,0,4.4,2.6,4.3,4S440.4,427,440.4,427"/>
		<path id="path15440" class="st0" d="M423,415.6v4c-7.1,0.5-9.3,8-15.8,8.4c-2.6,0-4-2.8-4-4c0-1.3,1.2-2.5,4.6-2.9
			C410.6,420.7,420,418.4,423,415.6"/>
		<path id="path15442" class="st0" d="M415.7,416.6v-8.1c1.1-0.3,7.3-1.3,7.3,2.7C423.1,414.8,415.7,416.6,415.7,416.6"/>
		<path id="path15444" class="st1" d="M405.6,428.5c0.9-1.7,2.3-3.2,4-4.1c-2.2,0.3-5.5,3-5,3.5L405.6,428.5z"/>
		<path id="path15446" class="st1" d="M403.7,426.8c1-1.6,2.5-2.9,4.3-3.6c-1.9,0.2-3.6,1-5,2.4"/>
		<path id="path15448" class="st1" d="M427.9,437.7c-2.4,3.3-1.4,10.7,1.3,11.4C426.2,444.8,427.9,437.7,427.9,437.7"/>
		<path id="path15450" class="st1" d="M429.4,435.2c1.7-2.4,3.1-2.2,5.4-2.3C433.4,432.5,430.6,431.9,429.4,435.2"/>
		<path id="path15452" class="st1" d="M395.7,490c0,1.7,2.5,12.8,8.8,18.3c-4.3-2.4-8.8-11.1-10-17C394.4,491,395.7,490,395.7,490"
			/>
		<path id="path15454" class="st1" d="M396.1,489.6c2.6,2.3,4.3,5.6,4.7,9c-0.3-3.8-0.2-6.2-3.8-9.6L396.1,489.6z"/>
		<path id="path15456" class="st1" d="M397.7,487.9c2.2,2,3.5,4.7,3.8,7.6c0.2-2.6-0.9-7-2.6-8.2L397.7,487.9z"/>
		<path id="path15458" class="st1" d="M404.2,490c0.8,1,2.9,5.3,4.5,7.1c3.4,4,10.4,4.4,16.9,8.3c2.6,1.7,4.3,3.8,4.3,6.9
			c0,3.1,0.2,11.8,0.2,11.8c1.5,1.9,2.7,5.2,2.1,9.6c-0.6,5.2-3.9,9.9-5.2,12c-2,3.5-2.8,12-3,17c-2.5,2.3-10.5,7-14.5,14.6
			c-0.2,2-2.3,9-8.9,8.8s-8.6-7.6-8.8-9.9c0-0.6,0.2-1.1,0.6-1.5c0.6-0.6,12.5-11.7,12.5-11.7c-0.2-2.5-2.8-10.7-4.5-14
			c1.7-1.2,13.7-4.8,19.3-13.6c-0.3-3.9-1.1-8.7-3.7-12.1c-2.6-3.4-11.7-2.8-16.5-9.5c-4.8-6.6-2.9-13-9.2-22.4l1.5,0.4l3.2-0.8
			l-2.3,0.8c5.6,8.7,4.5,16.1,8.6,21.2c5.8,7.1,19.2,2,20,20l6.7-9.5c0.1-2.8-0.3-11.2-0.3-11.2c-0.2-2.3-1.6-4.4-3.7-5.5
			c-3.8-2.2-13.5-3.8-17.3-9.1c-1.8-2.7-6.8-10.1-8.3-10.5L404.2,490L404.2,490z"/>
		<path id="path15460" class="st0" d="M402.6,549.8c0.8,0.7,5.7,12.8,6.2,24c2.1-3,9.9-10.5,13.3-12c0-2.3,0.8-13,3.7-17.9
			c2.9-4.4,6.3-10,3.3-17.8C424.3,531.5,420.7,543,402.6,549.8"/>
		<path id="path15462" class="st0" d="M405.3,565.7c0.3,2.7,4.6,12.3-0.7,17c-2,1.9-9.4,2.7-10.6-6.8L405.3,565.7L405.3,565.7z"/>
		<path id="path15464" class="st1" d="M404.1,584.2c-3.1-0.5-6.8-4.6-7-5.7c1,1.6,5,4.4,8,4.5C408,583,404.1,584.2,404.1,584.2"/>
		<path id="path15466" class="st1" d="M405.8,582c-3-0.4-6.8-4.6-7-5.7c1,1.6,5,4.4,8,4.5C409.8,580.9,405.8,582,405.8,582"/>
		<path id="path15468" class="st1" d="M407,579.9c-3-0.4-6.7-4.6-7-5.7c1,1.6,5,4.4,8,4.5C411,578.7,407,579.9,407,579.9"/>
		<path id="path15470" class="st1" d="M408.3,574.7c0.6-1,2-6.7,1.2-11.7c1.2,2.7,1.2,9,1,10.2C410.4,574.4,408.3,574.7,408.3,574.7
			"/>
		<path id="path15472" class="st1" d="M410.7,573.2c1.3-3.8,1.7-7.8,1.2-11.7c1.2,2.7,1.2,9,1,10.2S410.7,573.2,410.7,573.2"/>
		<path id="path15474" class="st1" d="M413.7,570.6c0.7-0.4,1.3-0.9,1.9-1.5c0.1-2.2-0.1-6.9-1.1-9.1
			C414.9,563.5,414.7,567.1,413.7,570.6"/>
		<path id="path15476" class="st1" d="M416.5,568.1c0.3-0.4,0.6-0.7,1-1c0.2-0.2,0.5-0.4,0.7-0.6c0-2.4-0.2-6.2-1.1-8.2
			C417.5,561.6,417.3,564.9,416.5,568.1"/>
		<path id="path15478" class="st1" d="M419.7,565.5c0.4-0.3,0.8-0.5,1.3-0.8c-0.2-2.4-0.7-5.7-1.6-7.4
			C419.9,560,420,562.8,419.7,565.5"/>
		<path id="path15480" class="st1" d="M422.9,531.4c0.3-0.4,0.6-0.7,1-1.1c0.2-0.2,0.5-0.4,0.7-0.6c-0.1-2.5-0.4-6.2-1.3-8.2
			C423.7,524.8,423.6,528.2,422.9,531.4"/>
		<path id="path15482" class="st1" d="M420.2,532c0.6,4.7,1.6,2.5,2,2.2c0.3-0.3-0.1-3.7,0-4.2c-0.1-2.9-0.3-6.9-1.6-9.7
			C421.2,524.1,421.1,528.1,420.2,532"/>
		<path id="path15484" class="st1" d="M425.3,530c0.4-0.3,0.9-0.5,1.3-0.8c-0.1-2.4-0.5-5.7-1.4-7.4
			C425.6,524.5,425.7,527.3,425.3,530"/>
		<path id="path15486" class="st0" d="M393.9,485.1c0.2-3.1-1.6-3.9-0.8-4.7c0.4-0.5,4.6-0.3,4.3,4.4c-0.3,4.7-6.3,7-6.9,5.6
			C389.8,488.5,393.3,488.2,393.9,485.1"/>
		<path id="path15488" class="st0" d="M404.8,447l1.6-2.8c0.8,2.7,1.7,5.8,2.8,9.4l0.2,0.6c2.6,8.9,0.4,18-3.2,21.2
			c-0.9,0.8-1.9,1.4-3.1,1.7c0.2-0.2,0.4-0.5,0.5-0.8c0.3-0.8,0-1.7-0.6-2.3c-0.6-0.5-1.6-2.9-2.1-5.1c2.1-0.3,5.5-1.1,6.7-2.4
			l0.2-1.7c-0.4-0.6-0.8-1.2-1.3-1.7c-0.4-0.5-1-1.3-1.5-1.9c0.4-0.1,1-0.3,1.7-0.5l0.3-0.1c1.5-0.5,2.5-2,2.1-3.6v-0.1
			c-0.3-1.3-1.1-2.4-2.3-3c-0.3-0.2-0.6-0.4-0.9-0.7c-0.2-0.3-0.6-1.5-1-6L404.8,447z M400.6,436.9c0.5-0.6,1.2-1.4,2.2-2.5l0.3-1.1
			c0.6,2,1.5,4.7,2.6,8.5C404,440.2,401.8,438.1,400.6,436.9 M421.3,432.7c-0.8,0-1.9-0.3-2-0.7c-0.1-1.6,2.8-2,5.8-2.2
			c0.2,0,0.3,0,0.5,0c-1.2,1.8-2.7,2.9-4.1,2.9L421.3,432.7L421.3,432.7z"/>
	</g>
</g>
</svg>
