<?xml version="1.0" encoding="utf-8"?>
<!-- Generator: Adobe Illustrator 26.0.2, SVG Export Plug-In . SVG Version: 6.00 Build 0)  -->
<svg version="1.1"
	 id="svg889" xmlns:cc="http://creativecommons.org/ns#" xmlns:dc="http://purl.org/dc/elements/1.1/" xmlns:inkscape="http://www.inkscape.org/namespaces/inkscape" xmlns:rdf="http://www.w3.org/1999/02/22-rdf-syntax-ns#" xmlns:sodipodi="http://sodipodi.sourceforge.net/DTD/sodipodi-0.dtd" xmlns:svg="http://www.w3.org/2000/svg"
	 xmlns="http://www.w3.org/2000/svg" xmlns:xlink="http://www.w3.org/1999/xlink" x="0px" y="0px" width="408.8px" height="800px"
	 viewBox="0 0 408.8 800" style="enable-background:new 0 0 408.8 800;" xml:space="preserve">
<style type="text/css">
	.st0{fill-rule:evenodd;clip-rule:evenodd;fill:#A38E58;}
	.st1{fill-rule:evenodd;clip-rule:evenodd;fill:#000105;}
	.st2{fill-rule:evenodd;clip-rule:evenodd;fill:#F9D238;}
	.st3{fill-rule:evenodd;clip-rule:evenodd;fill:#DA3130;}
	.st4{fill-rule:evenodd;clip-rule:evenodd;}
</style>
<sodipodi:namedview  bordercolor="#666666" borderopacity="1" gridtolerance="10" guidetolerance="10" id="namedview891" inkscape:current-layer="svg889" inkscape:cx="39.220174" inkscape:cy="52.824607" inkscape:document-rotation="0" inkscape:pageopacity="0" inkscape:pageshadow="2" inkscape:window-height="788" inkscape:window-maximized="0" inkscape:window-width="1440" inkscape:window-x="0" inkscape:window-y="23" inkscape:zoom="0.35" objecttolerance="10" pagecolor="#ffffff" showgrid="false">
	</sodipodi:namedview>
<desc  id="desc835">Created with Sketch.</desc>
<g id="g1375" transform="matrix(7.0081695,0,0,7.0081695,0,-1.0599325)">
	<path id="Fill-31" inkscape:connector-curvature="0" sodipodi:nodetypes="cssscc" class="st0" d="M0.7,25.1v50
		c0,15.8,12.8,28.6,28.5,28.6c15.7,0,28.5-12.8,28.5-28.6v-50H0.7z"/>
	<g id="g1100">
		<polyline id="Fill-1" class="st0" points="28.4,0.2 28.4,2.4 26.1,2.4 26.1,4 28.4,4 28.4,6.2 30,6.2 30,4 32.2,4 32.2,2.4 
			30,2.4 30,0.2 28.4,0.2 		"/>
		<polygon id="Fill-2" class="st0" points="19.2,21.9 39.1,21.9 39.1,20.3 19.2,20.3 		"/>
		<polygon id="Fill-3" class="st0" points="19.2,18.7 39.1,18.7 39.1,17 19.2,17 		"/>
		<polygon id="Fill-4" class="st0" points="28.4,15.4 30,15.4 30,7.8 28.4,7.8 		"/>
		<path id="Fill-5" inkscape:connector-curvature="0" class="st0" d="M20.1,14.9c-0.6-1.1-1.2-2.3-1.2-3.2c0-1.2,0.9-2.1,2.2-2.2
			c0.3,0,0.6,0,0.8,0.1c0.2-0.5,0.5-1,0.8-1.4c-0.5-0.2-1-0.3-1.7-0.3c-2.1,0.1-3.7,1.8-3.7,3.8c0,1.2,0.6,2.5,1.3,3.8h1.8
			C20.2,15.2,20.1,15,20.1,14.9"/>
		<path id="Fill-6" inkscape:connector-curvature="0" class="st0" d="M25.8,15.4c-0.1-0.1-0.1-0.3-0.2-0.4c-0.4-1.1-1-2.4-1-3.3
			c0-1.3,0.7-2,1.4-2.2c0.3-0.1,0.5-0.1,0.7,0V7.9c-0.3,0-0.7,0-1.1,0.1c-1.6,0.4-2.6,1.9-2.6,3.8c0,1.1,0.5,2.5,1,3.7L25.8,15.4"/>
		<path id="Fill-7" inkscape:connector-curvature="0" class="st0" d="M37.4,7.9c-0.7,0-1.2,0.1-1.7,0.3c0.3,0.4,0.6,0.9,0.8,1.4
			c0.2-0.1,0.5-0.1,0.8-0.1c1.3,0.1,2.2,1,2.2,2.2c0,0.9-0.6,2.1-1.2,3.2c-0.1,0.2-0.2,0.4-0.3,0.6h1.8c0.7-1.2,1.3-2.5,1.3-3.8
			C41.1,9.6,39.5,8,37.4,7.9"/>
		<path id="Fill-8" inkscape:connector-curvature="0" class="st0" d="M31.6,7.9v1.7c0.2-0.1,0.5-0.1,0.7,0c0.6,0.2,1.4,0.9,1.4,2.2
			c0,0.9-0.5,2.2-1,3.3c-0.1,0.1-0.1,0.3-0.2,0.4h1.7c0.5-1.2,1-2.5,1-3.7c0-1.9-1-3.3-2.6-3.8C32.3,7.9,31.9,7.8,31.6,7.9"/>
	</g>
	<g id="g1319">
		<path id="Fill-27" inkscape:connector-curvature="0" class="st1" d="M30,48.2v54c14.4-0.4,26.1-12.4,26.1-27v0
			C56,60.5,44.4,48.6,30,48.2"/>
		<path id="Fill-28" inkscape:connector-curvature="0" class="st2" d="M19.2,26.8h-7.6v68.8c2.2,1.9,4.8,3.5,7.6,4.7V26.8"/>
		<path id="Fill-29" inkscape:connector-curvature="0" class="st3" d="M20.8,100.8c2.4,0.8,4.9,1.3,7.6,1.3V26.8h-7.6V100.8"/>
		<path id="Fill-30" inkscape:connector-curvature="0" class="st1" d="M2.3,75.2c0,7.3,2.9,14,7.7,18.9V26.8H2.3V75.2"/>
	</g>
	<g id="g1090">
		<path id="Fill-9" inkscape:connector-curvature="0" class="st0" d="M53.1,103.5c-2.7,0-5.2,2-5.2,2h10.5
			C58.3,105.4,55.8,103.5,53.1,103.5"/>
		<path id="Fill-10" inkscape:connector-curvature="0" class="st0" d="M47.1,106.6c-2.7,0-5.2,2-5.2,2h10.5
			C52.4,108.6,49.8,106.6,47.1,106.6"/>
		<path id="Fill-12" inkscape:connector-curvature="0" class="st0" d="M43.2,110.2c-2.4-1.2-5.5-0.6-5.5-0.6l9.4,4.7
			C47,114.3,45.6,111.4,43.2,110.2"/>
		<path id="Fill-15" inkscape:connector-curvature="0" class="st0" d="M55.3,99.6c1.7-2.1,1.8-5.3,1.8-5.3l-6.7,8.1
			C50.5,102.4,53.6,101.7,55.3,99.6"/>
		<path id="Fill-16" inkscape:connector-curvature="0" class="st0" d="M48.9,102.5c1.5-2.2,1.3-5.5,1.3-5.5l-5.8,8.8
			C44.4,105.8,47.4,104.7,48.9,102.5"/>
		<path id="Fill-17" inkscape:connector-curvature="0" class="st0" d="M39.8,108c2.4-1.2,3.8-4.1,3.8-4.1l-9.4,4.7
			C34.2,108.6,37.4,109.2,39.8,108"/>
		<path id="Fill-19" inkscape:connector-curvature="0" class="st0" d="M5.2,103.5c2.7,0,5.2,2,5.2,2H0C0,105.4,2.6,103.5,5.2,103.5"
			/>
		<path id="Fill-20" inkscape:connector-curvature="0" class="st0" d="M11.2,106.6c2.7,0,5.2,2,5.2,2H6
			C6,108.6,8.5,106.6,11.2,106.6"/>
		<path id="Fill-21" inkscape:connector-curvature="0" class="st0" d="M15.1,110.2c2.4-1.2,5.5-0.6,5.5-0.6l-9.4,4.7
			C11.3,114.3,12.7,111.4,15.1,110.2"/>
		<path id="Fill-22" inkscape:connector-curvature="0" class="st0" d="M22.9,110.2c2.4-1.2,5.5-0.6,5.5-0.6l-9.4,4.7
			C19.1,114.3,20.5,111.4,22.9,110.2"/>
		<path id="Fill-24" inkscape:connector-curvature="0" class="st0" d="M3,99.6c-1.7-2.1-1.8-5.3-1.8-5.3l6.7,8.1
			C7.9,102.4,4.7,101.7,3,99.6"/>
		<path id="Fill-25" inkscape:connector-curvature="0" class="st0" d="M9.5,102.5C8,100.2,8.2,97,8.2,97l5.8,8.8
			C14,105.8,10.9,104.7,9.5,102.5"/>
		<path id="Fill-26" inkscape:connector-curvature="0" class="st0" d="M18.5,108c-2.4-1.2-3.8-4.1-3.8-4.1l9.4,4.7
			C24.1,108.6,20.9,109.2,18.5,108"/>
		<path id="Fill-13" inkscape:connector-curvature="0" class="st0" d="M35.4,110.2c-2.4-1.2-5.5-0.6-5.5-0.6l9.4,4.7
			C39.3,114.3,37.8,111.4,35.4,110.2"/>
	</g>
	<g id="g1305" transform="translate(11.078289)">
		<g id="g1234" transform="matrix(0.6349158,0,0,0.6349158,9.8675382,19.791752)">
			<polyline id="Fill-32" class="st4" points="31.4,39.8 32.5,39.8 32.5,34.8 31.4,34.9 31.4,33.9 32.8,33.4 34.3,33.4 34.3,39.8 
				35.4,39.8 35.4,41 31.4,41 31.4,39.8 			"/>
			<path id="Fill-33" inkscape:connector-curvature="0" class="st4" d="M36.3,34.4c0.1-0.1,0.2-0.2,0.3-0.3c0.1-0.1,0.3-0.3,0.5-0.4
				c0.2-0.1,0.5-0.2,0.8-0.3c0.3-0.1,0.7-0.1,1-0.1c0.4,0,0.8,0,1.1,0.1c0.3,0.1,0.6,0.2,0.8,0.3c0.2,0.1,0.4,0.3,0.5,0.4
				c0.1,0.1,0.2,0.2,0.3,0.3v1.9c-0.1,0.1-0.2,0.2-0.3,0.3c-0.1,0.1-0.3,0.3-0.6,0.4c0.3,0.1,0.5,0.3,0.7,0.5
				c0.2,0.2,0.3,0.4,0.4,0.5v1.6c-0.1,0.1-0.2,0.3-0.3,0.5c-0.2,0.2-0.3,0.3-0.6,0.5c-0.2,0.1-0.5,0.3-0.8,0.4
				c-0.3,0.1-0.7,0.1-1.1,0.1c-0.4,0-0.8,0-1.1-0.1c-0.3-0.1-0.6-0.2-0.8-0.4c-0.2-0.1-0.4-0.3-0.6-0.5c-0.2-0.2-0.3-0.3-0.3-0.5
				v-1.6c0.1-0.2,0.2-0.3,0.4-0.5c0.2-0.2,0.4-0.4,0.7-0.5c-0.2-0.1-0.4-0.3-0.6-0.4c-0.1-0.1-0.2-0.3-0.3-0.3L36.3,34.4z
				 M37.9,39.3c0.1,0.1,0.2,0.3,0.4,0.4c0.2,0.1,0.4,0.2,0.7,0.2c0.3,0,0.5-0.1,0.7-0.2c0.2-0.1,0.3-0.2,0.4-0.4v-1.2
				c-0.1-0.1-0.2-0.3-0.4-0.4c-0.2-0.1-0.4-0.2-0.7-0.2c-0.3,0-0.5,0.1-0.7,0.2c-0.2,0.1-0.3,0.2-0.4,0.4V39.3z M37.9,36.1
				c0.1,0.1,0.2,0.2,0.4,0.3c0.2,0.1,0.4,0.2,0.6,0.2c0.3,0,0.5-0.1,0.7-0.2c0.2-0.1,0.3-0.2,0.4-0.3V35c-0.1-0.1-0.2-0.2-0.4-0.3
				c-0.2-0.1-0.4-0.2-0.7-0.2c-0.3,0-0.5,0.1-0.6,0.2c-0.2,0.1-0.3,0.2-0.4,0.3V36.1z"/>
			<path id="Fill-34" inkscape:connector-curvature="0" class="st4" d="M48.2,39.7c-0.1,0.2-0.2,0.3-0.3,0.5
				c-0.2,0.2-0.3,0.3-0.6,0.5c-0.2,0.1-0.5,0.3-0.8,0.4c-0.3,0.1-0.7,0.1-1.1,0.1c-0.4,0-0.7,0-1.1-0.1s-0.6-0.2-0.8-0.3
				c-0.2-0.1-0.4-0.3-0.5-0.4c-0.1-0.1-0.2-0.3-0.3-0.4v-0.9h1.6v0.4c0.1,0.1,0.2,0.3,0.4,0.4c0.2,0.1,0.4,0.2,0.7,0.2
				c0.3,0,0.5-0.1,0.7-0.2c0.2-0.1,0.3-0.2,0.4-0.4v-1.5c-0.2,0.1-0.4,0.3-0.7,0.3c-0.3,0.1-0.6,0.1-0.9,0.1c-0.3,0-0.5,0-0.8-0.1
				c-0.2-0.1-0.4-0.2-0.6-0.3c-0.2-0.1-0.3-0.2-0.5-0.4c-0.1-0.1-0.2-0.3-0.3-0.4v-2.6c0.1-0.1,0.2-0.2,0.3-0.4
				c0.1-0.1,0.3-0.3,0.5-0.4c0.2-0.1,0.5-0.2,0.8-0.3c0.3-0.1,0.7-0.1,1.1-0.1c0.4,0,0.8,0,1.1,0.1s0.6,0.2,0.8,0.4
				c0.2,0.1,0.4,0.3,0.6,0.5c0.2,0.2,0.3,0.3,0.3,0.5L48.2,39.7z M45.4,37.1c0.2,0,0.4,0,0.5-0.1c0.2-0.1,0.3-0.1,0.5-0.2v-1.7
				c-0.1-0.1-0.2-0.3-0.4-0.4c-0.2-0.1-0.4-0.2-0.7-0.2c-0.3,0-0.5,0.1-0.7,0.2c-0.2,0.1-0.3,0.2-0.4,0.4v1.5
				c0.1,0.1,0.2,0.3,0.4,0.4C44.9,37.1,45.1,37.1,45.4,37.1L45.4,37.1z"/>
			<path id="Fill-35" inkscape:connector-curvature="0" class="st4" d="M49.2,38.9h1.6v0.4c0.1,0.1,0.2,0.3,0.4,0.4
				c0.2,0.1,0.4,0.2,0.7,0.2c0.3,0,0.5-0.1,0.7-0.2c0.2-0.1,0.3-0.2,0.4-0.4v-1.5c-0.1-0.1-0.2-0.3-0.4-0.4
				c-0.2-0.1-0.4-0.2-0.7-0.2c-0.2,0-0.5,0-0.6,0.1c-0.2,0.1-0.3,0.2-0.3,0.3h-1.6v-4.3h5.2v1.4h-3.6v1.8c0.2-0.1,0.4-0.3,0.7-0.3
				c0.2-0.1,0.5-0.1,0.9-0.1c0.3,0,0.5,0,0.8,0.1c0.2,0.1,0.4,0.2,0.6,0.3c0.2,0.1,0.3,0.2,0.4,0.4c0.1,0.1,0.2,0.3,0.3,0.4v2.6
				c-0.1,0.1-0.2,0.2-0.3,0.4c-0.1,0.1-0.3,0.3-0.5,0.4c-0.2,0.1-0.5,0.2-0.8,0.3c-0.3,0.1-0.7,0.1-1.1,0.1c-0.4,0-0.7,0-1.1-0.1
				c-0.3-0.1-0.6-0.2-0.8-0.3c-0.2-0.1-0.4-0.3-0.5-0.4c-0.1-0.1-0.2-0.3-0.3-0.4V38.9"/>
		</g>
		<g id="g1278" transform="translate(0.16779085)">
			<path id="path897" inkscape:connector-curvature="0" class="st4" d="M23,40.9l-1.2,4.4v0.6h0.9l0.3-1.3h1.5l0.3,1.3h1v-0.6
				l-1.2-4.4H23z M23.7,41.9h0.1l0.4,1.8h-1L23.7,41.9z"/>
			<path id="Fill-37" inkscape:connector-curvature="0" class="st4" d="M18.7,45.9h1.2v-2.1h1.7v-0.9h-1.7v-1.2h1.8v-0.9h-2.9V45.9z
				"/>
		</g>
		<g id="g1262" transform="matrix(0.27589851,0,0,0.27589851,-24.158246,27.553903)">
			<path id="path1137" inkscape:connector-curvature="0" class="st4" d="M222.6,25.5l-4.2,15.1v2.2h3.2l1.2-4.6h5.1l1.1,4.6h3.6
				v-2.2l-4.2-15.1H222.6z M225.2,28.9h0.5l1.5,6.3h-3.6L225.2,28.9z"/>
			<path id="path1129" inkscape:connector-curvature="0" class="st4" d="M171.4,42.8h10.5v-3h-6.5v-4.4h5.9v-3h-5.9v-4h6.3v-3h-10.3
				L171.4,42.8z"/>
			<path id="path1123" inkscape:connector-curvature="0" class="st4" d="M156,25.5v17.4h7.3c0.6,0,1.2-0.1,1.8-0.3
				c0.5-0.2,1-0.4,1.4-0.7c0.4-0.3,0.8-0.6,1.1-1c0.3-0.4,0.6-0.7,0.8-1.1v-4.2c-0.2-0.4-0.5-0.7-0.9-1c-0.4-0.3-0.7-0.6-1.1-0.7
				c0.4-0.2,0.7-0.5,1.1-0.8c0.4-0.3,0.6-0.7,0.8-0.9v-3.7c-0.2-0.3-0.4-0.7-0.8-1.1c-0.3-0.4-0.7-0.7-1.1-1
				c-0.4-0.3-0.9-0.5-1.4-0.7c-0.5-0.2-1.1-0.3-1.7-0.3H156z M160,28.4h2.4c0.5,0,0.9,0.1,1.3,0.3c0.4,0.2,0.6,0.5,0.8,0.9v1.8
				c-0.2,0.3-0.5,0.6-0.8,0.8c-0.3,0.2-0.7,0.3-1.2,0.3H160V28.4z M160,35.3h2.5c0.5,0,0.9,0.1,1.3,0.3c0.4,0.2,0.7,0.5,0.9,0.8v2.3
				c-0.2,0.3-0.4,0.6-0.8,0.9c-0.4,0.2-0.8,0.3-1.5,0.3H160V35.3z"/>
			<path id="path1141" inkscape:connector-curvature="0" class="st4" d="M235.2,42.8h3.7V32.3h0.4l4.9,10.5h4.5V25.5h-3.7V36h-0.5
				l-4.9-10.6h-4.5V42.8z"/>
			<path id="path1135" inkscape:connector-curvature="0" class="st4" d="M211.9,42.8h4V25.5h-4V42.8z"/>
			<path id="path1133" inkscape:connector-curvature="0" class="st4" d="M202.7,36.1h2.5v2.7c-0.2,0.3-0.5,0.7-0.9,0.9
				c-0.4,0.3-1,0.4-1.7,0.4c-0.7,0-1.3-0.1-1.7-0.4c-0.4-0.3-0.7-0.6-0.9-1v-9c0.2-0.4,0.5-0.7,0.9-1c0.4-0.3,1-0.4,1.6-0.4
				c0.7,0,1.2,0.1,1.6,0.4c0.4,0.3,0.7,0.6,0.9,1v1.8h3.9v-2.9c-0.2-0.3-0.4-0.7-0.8-1.1c-0.3-0.4-0.7-0.8-1.3-1.1
				c-0.5-0.3-1.1-0.6-1.9-0.9c-0.7-0.2-1.6-0.4-2.5-0.4c-1,0-1.8,0.1-2.6,0.4c-0.7,0.2-1.4,0.6-1.9,0.9c-0.5,0.4-1,0.8-1.3,1.2
				c-0.3,0.4-0.6,0.9-0.8,1.3v10.5c0.2,0.4,0.4,0.8,0.8,1.3c0.3,0.4,0.8,0.9,1.3,1.2c0.5,0.4,1.2,0.7,1.9,0.9
				c0.7,0.2,1.6,0.4,2.6,0.4c1,0,1.8-0.1,2.5-0.4c0.7-0.2,1.3-0.5,1.9-0.9c0.5-0.4,0.9-0.7,1.3-1.1c0.3-0.4,0.6-0.8,0.8-1.1v-6.6
				h-6.2L202.7,36.1z"/>
			<path id="path1131" inkscape:connector-curvature="0" class="st4" d="M184.7,42.8h9.3v-3h-5.3V25.5h-4L184.7,42.8z"/>
		</g>
		<g id="g1253" transform="matrix(0.27589851,0,0,0.27589851,-3.100508,20.987911)">
			<path id="path1117" inkscape:connector-curvature="0" class="st4" d="M127,25.5l-4.2,15.1v2.2h3.2l1.2-4.6h5.1l1.1,4.6h3.6v-2.2
				l-4.2-15.1H127z M129.5,28.9h0.5l1.5,6.3h-3.6L129.5,28.9z"/>
			<path id="path1113" inkscape:connector-curvature="0" class="st4" d="M101.4,25.1c-1,0-1.8,0.1-2.6,0.4c-0.7,0.2-1.4,0.6-1.9,0.9
				c-0.5,0.4-1,0.8-1.3,1.2c-0.3,0.4-0.6,0.9-0.8,1.3v10.5c0.2,0.4,0.4,0.8,0.8,1.3c0.3,0.4,0.8,0.9,1.3,1.2
				c0.5,0.4,1.2,0.7,1.9,0.9c0.7,0.2,1.6,0.4,2.6,0.4c1,0,1.8-0.1,2.6-0.4c0.7-0.2,1.4-0.6,1.9-0.9c0.5-0.4,1-0.8,1.3-1.2
				c0.3-0.4,0.6-0.9,0.8-1.3V28.9c-0.2-0.4-0.4-0.8-0.8-1.3c-0.3-0.4-0.8-0.9-1.3-1.2c-0.5-0.4-1.2-0.7-1.9-0.9
				C103.3,25.2,102.4,25.1,101.4,25.1z M101.4,28.2c0.7,0,1.2,0.1,1.6,0.4c0.4,0.3,0.7,0.6,0.9,1v9c-0.2,0.4-0.5,0.7-0.9,1
				c-0.4,0.3-1,0.4-1.6,0.4c-0.7,0-1.2-0.1-1.6-0.4c-0.4-0.3-0.7-0.6-0.9-1v-9c0.2-0.4,0.5-0.7,0.9-1
				C100.2,28.3,100.8,28.2,101.4,28.2z"/>
			<path id="Fill-38" inkscape:connector-curvature="0" class="st4" d="M79.7,25.5v17.4h4v-6.4h1.7l3.8,6.4h3.1v-2.2l-3-4.6
				c0.6-0.2,1.2-0.6,1.6-1c0.5-0.4,0.9-0.9,1.2-1.5v-5.1c-0.5-0.9-1.2-1.7-2.2-2.2c-0.9-0.5-1.9-0.8-3-0.8H79.7z M83.7,28.5h2.4
				c0.5,0,1,0.1,1.4,0.3c0.4,0.2,0.7,0.5,0.9,0.9v2.8c-0.2,0.4-0.5,0.7-0.9,0.9c-0.4,0.2-0.8,0.3-1.4,0.3h-2.4V28.5z"/>
			<path id="path1121" inkscape:connector-curvature="0" class="st4" d="M139.5,42.8h9.3v-3h-5.3V25.5h-4V42.8z"/>
			<path id="path1115" inkscape:connector-curvature="0" class="st4" d="M114.2,42.8h4V36l4.6-8.3v-2.2h-3.3l-2.8,6h-0.5l-2.8-6
				h-3.6v2.2l4.3,7.9V42.8z"/>
		</g>
		<circle id="path1280" cx="28" cy="43.5" r="0.6"/>
	</g>
</g>
</svg>
