<?xml version="1.0" encoding="utf-8"?>
<!-- Generator: Adobe Illustrator 26.0.2, SVG Export Plug-In . SVG Version: 6.00 Build 0)  -->
<svg version="1.1"
	 id="svg8" xmlns:cc="http://creativecommons.org/ns#" xmlns:dc="http://purl.org/dc/elements/1.1/" xmlns:inkscape="http://www.inkscape.org/namespaces/inkscape" xmlns:rdf="http://www.w3.org/1999/02/22-rdf-syntax-ns#" xmlns:sodipodi="http://sodipodi.sourceforge.net/DTD/sodipodi-0.dtd" xmlns:svg="http://www.w3.org/2000/svg"
	 xmlns="http://www.w3.org/2000/svg" xmlns:xlink="http://www.w3.org/1999/xlink" x="0px" y="0px" width="455.2px" height="525px"
	 viewBox="0 0 455.2 525" style="enable-background:new 0 0 455.2 525;" xml:space="preserve">
<style type="text/css">
	.st0{fill:#E6E6E6;}
	.st1{fill:#A3A3A5;}
	.st2{fill:#97989A;}
	.st3{fill:#143772;}
	.st4{fill:#E2E0DB;}
	.st5{fill:#FFFFFF;}
	.st6{fill:#194080;}
	.st7{fill:#C22B2D;}
</style>
<sodipodi:namedview  bordercolor="#666666" borderopacity="1.0" id="base" inkscape:current-layer="layer1" inkscape:cx="-39.717766" inkscape:cy="421.28515" inkscape:document-rotation="0" inkscape:document-units="mm" inkscape:pageopacity="0.0" inkscape:pageshadow="2" inkscape:window-height="780" inkscape:window-maximized="0" inkscape:window-width="1434" inkscape:window-x="0" inkscape:window-y="23" inkscape:zoom="0.49497475" pagecolor="#ffffff" showgrid="false">
	</sodipodi:namedview>
<g id="layer1" transform="translate(-48.014075,149.54758)" inkscape:groupmode="layer" inkscape:label="Calque 1">
	<g id="g2346" transform="matrix(0.90458857,0,0,0.90458857,4.5810923,-14.26855)">
		<g id="g2288">
			<path id="path1851" class="st0" d="M299.6-149.5c-98.3-0.1-184.1,20.9-244.2,45.4C45.5-28,47.3,35,50.7,78.6
				c11.1,133.9,94.6,305.2,248.9,352.2c154.3-47,237.8-218.3,248.9-352.2C552,35,553.7-28,543.8-104.2
				C483.7-128.6,398-149.6,299.6-149.5z"/>
			<path id="path1849" class="st1" d="M299.6-136c-98.3-0.1-172.1,16.4-232.2,40.9C56-16.8,60.4,30.5,63.9,74.1
				C76.1,207,150.7,365.7,299.6,417.3C448.5,365.7,523.1,207,535.4,74.1c3.5-43.6,7.9-90.9-3.5-169.3
				C471.7-119.6,398-136.1,299.6-136z M299.6-128.5c98.3-0.1,166.1,14.9,226.2,39.4c8.8,64,7,116.6,3.5,161.8
				c-12.7,132.9-86.7,285.6-229.7,337.2c-143-51.6-217-204.3-229.7-337.2c-3.5-45.2-5.2-97.8,3.5-161.8
				C133.5-113.6,201.3-128.6,299.6-128.5z"/>
			<path id="path1845" class="st2" d="M514.9,72.2c-6.5,1.5-13.1,3.1-19.9,4.5c-9.2,1.8-18.7,3.5-28.3,5c-9.6,1.5-19.3,2.8-29,4
				s-19.5,2.2-29.2,3.1s-19.4,1.7-28.9,2.3c-9.5,0.6-19,1.2-28.1,1.6c-9.2,0.4-18.2,0.7-26.8,0.9c-8.7,0.2-17,0.3-25,0.3
				c-8,0-16.4-0.1-25-0.3c-8.7-0.2-17.6-0.5-26.8-0.9c-9.2-0.4-18.6-0.9-28.1-1.6c-9.5-0.6-19.2-1.4-28.9-2.3s-19.5-1.9-29.2-3.1
				s-19.4-2.5-29-4c-9.6-1.5-19-3.2-28.3-5c-6.8-1.4-13.3-2.9-19.9-4.5c0,0.1,0,0.3,0,0.4c7.2,84.4,49.1,217.1,156.9,290.8
				c17.8,12.2,37.2,22.8,58.4,31.4c21.2-8.6,40.6-19.3,58.4-31.4C465.8,289.7,507.7,157,514.9,72.6
				C514.9,72.5,514.9,72.3,514.9,72.2L514.9,72.2z"/>
			<path id="path2077" class="st3" d="M299.6-115c-75.2,0.3-150.4,11.2-212.7,34.9C79.6-23.6,83,21.6,84,61.6
				c6.6,1.6,13.3,3.1,20.2,4.5c9.2,1.8,18.7,3.5,28.3,5s19.3,2.8,29,4c9.7,1.2,19.5,2.2,29.2,3.1c9.7,0.9,19.4,1.7,28.9,2.3
				c9.5,0.6,19,1.2,28.1,1.6c9.2,0.4,18.2,0.7,26.8,0.9c8.7,0.2,17,0.3,25,0.3c8,0,16.4-0.1,25-0.3c8.7-0.2,17.6-0.5,26.8-0.9
				c9.2-0.4,18.6-0.9,28.1-1.6c9.5-0.6,19.2-1.4,28.9-2.3c9.7-0.9,19.5-1.9,29.2-3.1c9.7-1.2,19.4-2.5,29-4s19-3.2,28.3-5
				c6.9-1.4,13.5-2.9,20.2-4.5c1-40,4.4-85.2-2.9-141.8C450-103.9,374.9-114.8,299.6-115z"/>
		</g>
		<g id="g2297">
			<path id="path1843" sodipodi:nodetypes="cccccccccccsccsccccccsccccsc" class="st4" d="M474,200.4l9.1-8.7l-6.8,32l8.6-7.8
				c-3.4,17.9-6.3,35.8-12.3,53.4c-5,18.1-15,26.1-24.1,35.8c-4.5,2.3-8.6,3.7-12.3,4.6c-10.9,4.6-19.5,10.7-29.1,16.2
				c-11.6,23.9-23.8,28.4-36.2,28.8c-13.6,0.8-27.3,0.7-43.4-28.4l-8.7-5.6c-11,8.2-20.8,15.7-29.7,21.1
				c-24.6,15.1-41.6,20.1-53.4,18.3c-18.2-1.9-33.7-16.7-48.4-44.2c-11.8-18.5-21.1-35.8-36.3-48.4c-13.7-11.4-27.8-21.2-48.1-26.1
				c50.2-47.6,100.1-79.6,147.3-15.9l-1.4-9.9l9,9l-6.5-32.9l8.8,9c-5.8-14.9-10.3-25.5-9.8-48.9c0.3-14.6,1.6-29.6,6.4-51.4
				l54.3,45.5c38.9-15.8,76.1-13.1,112.2,0.1l54.3-45.6c4,21.4,6.7,37.1,6.7,55.9C484.1,170.7,481.7,185.4,474,200.4L474,200.4z"/>
			<path id="path867" sodipodi:nodetypes="scsccccccccsssscccccccs" class="st3" d="M262,139.6c0,0-0.1,0-0.1,0.1
				c-3.6,3.9-4.1,17.6-3.8,22c1,14.5,4.2,32.9,15,48c-3.9-0.3-8.3-1.6-12.6-2.8c-0.3,0.3,3.3,6.4,7,12.2l-0.1,0.1L280,242l-20.8-6.8
				c1.7,7,3.3,13.9,5.6,20.9c1.8,5.4,3.7,9.4,6.1,13.7c9.1,16.6,21.5,28.3,36.9,35.1c3.6,1.6,5.8,2.6,5.3,1.6c-0.2-0.3-4-4-7.1-7.2
				s-7.1-7.6-8.9-9.8c-6.8-8.3-13.5-19.4-16.2-27.3c-2.1-5.6-3.6-12-4.4-17.1l17,4.6L271,215.8l13.6,6.7
				c-3.2-6.6-7.5-14.7-10.1-22.5c-6.6-18.3-11.2-35.8-12.2-52.9C261.7,142.8,262.4,139.4,262,139.6L262,139.6z"/>
			<path id="path865" sodipodi:nodetypes="sssssccscsccccsscsssscccccsss" class="st3" d="M187.9,215.7
				C187.8,215.7,187.8,215.8,187.9,215.7c-0.2,0.2,4.4,4.2,6.9,6.9s6.6,7.9,8.3,10.3c2.3,3,4.9,7.5,6.2,10.9
				c1.7,4.4,3.7,11.6,2.7,11.7c-7.6-0.4-11.7-1.2-19.9-1.8c-0.2,0.2,1.9,5.6,3.1,8.5c3.2,8.1,7.2,13.2,11.2,16.2s7.4,5,11.7,5.8
				c1.3,0.3,2.8,0.1,4.3,0.1c-7.9,8.2-17.5,6.2-27.1,4.3l14.7,12.9l0.2-0.1c1.5,1.5,5,3.6,10.5,6.3c10.8,5.4,23,8.6,36.7,9.6
				c9.5,0.7,26-0.7,35.1-2.1c9.2-1.4,6.3-1.7,1.4-1.4c-1.1,0.1-6-0.2-10.9-0.5c-20.1-1.2-34.4-4.5-45-10.5c-4.1-2.3-11.4-8.1-11-9.1
				c0.1-0.3,3.1-1.6,5.9-3l6.1-3l-8.3-4.7c-4.4-2.8-14.3-6.5-18.5-17.6c5.7-2.5,12.1-3.3,18.3-5c0.7-0.7-6.7-14.1-10.4-19.5
				c-3.5-5-10.9-12-16-15.8C199.9,222.2,189,215.7,187.9,215.7L187.9,215.7z"/>
			<path id="path841" class="st3" d="M265,112.8l44.7,61c25.3-13.7,51.7-22.9,82.1-14.5c2.3,0.4,4.4,1.4,6.5,2.1
				c5,1.8,11.3,4.7,16.5,7.8c2.1,1.2,4,2.2,4.3,2.2s8.6-4.9,18.5-11c9.9-6,18.3-11,18.8-11c0.9,0,2.7,4.1,3.4,8.2
				c1,5.4,0.2,12.6-2.2,18.8c-3.8,10-12.4,22.8-22.2,32.9l-3.9,4l-3.7,0.1c-2,0-4.6,0.3-5.7,0.6c-0.6,0.2-2.7,1-4.2,1.5l-0.4-1
				l-1.3,0.1c-3.1,0.3-6.3,1.9-8.6,3.9c-1,0.9-4.3,4.8-7.2,8.7c-7.1,9.4-16.4,18.8-20.4,20.6c-4.1,1.8-8.6,3.2-10.6,3.2h-1.6v-21.4
				c0-10.7-0.2-21.6-0.4-29.6c-0.2-9.9-1.1-18.1-2.4-24.3l-1,122.2c6.8,0.2,14.5-0.5,21-3.4c0.9,5,1.5,7.8,0.3,10.4
				c-3.1,6.5-5.8,2.8-10.6,4.6c-1.7,0.6-3.3,2.7-4.8,4.7c-1.8,3.6-4.6,6-1.8,0.2c1.1-2.4,1.9-3.9,3.1-4.8c4.3-3.3,9.6-0.3,11.9-4.5
				c1.2-2.1,1.3-5,0.6-8.4c-6.3,2.1-15.5,2.7-20.1,1.9l0,0c-3.9,0-8.3-1.4-12.7-2.2l0.1,3.8c0,4.6,0.8,5.7,4.5,5.7
				c7,0.7,8.8,1,8.4,6.7c-0.1,4.2,0.2,9.5,0.6,12.7c-2.4,1.7-4.9,0.6-6.8-0.6c-2.1-1.4-6.2-6.8-9.2-12.2c-1.4-2.5-2.3-4.7-2.9-4.8
				c-0.9-0.2-1.2,2.7-1.9,7.7c-0.5,4-0.5,5.3,0.2,8.6c2,9.9,8,16.4,17.2,18.6c4.1,1,14.7,1,18.4,0c7.4-1.9,12.7-6.7,19.6-17.8
				c2.5-4,5.5-8.2,6.5-9.3c1.2-1.3,4.6-3.4,9.4-5.9c4.1-2.1,9.9-5.2,12.7-7l5.7-3.8l1.7,0.2c17.6,0.3,27.8-21.5,31.4-30.4
				c4.1-10.6,8.3-27.3,6.9-27.3c-0.2,0-2.3,1.9-4.7,4.2c-3.6,3.5-8.5,8.4-11.3,9.8l-1.6,0.8l0.8-1.4c0.7-1.3,2-2.9,2.5-3.8
				c2.8-4.5,6.5-12.8,8.7-19.6c2.4-7.2,4.1-13.3,3.6-13.8c-0.2-0.2-2.9,2.3-5.6,4.8c-4.9,4.6-7.5,7.7-7.9,7.3c-0.1-0.1,0.8-4,1.3-7
				s1.1-7.7,1.3-10.4c0.3-4.6,0.5-5.1,2.1-7.2c11.2-14.6,16.1-31.5,16.1-55c0-10.1-0.5-16.5-2-27.3c-1.1-7.5-1.6-9.1-2.7-8.4
				c-0.4,0.2-7.8,6.6-16.6,14.1c-17.6,15.2-28.3,24-29.3,24c-0.4,0-5.1-1.5-10.5-3.3c-3.9-1.3-7.6-2.4-9.8-2.9
				c-35.4-11.7-69.1-2.9-95,7.1L265,112.8z M419.7,219l-0.4,2.4c-0.3,1.5-0.5,2.6-1.2,4.8c-1.7,5.3-4,9.9-7.9,13.6
				c-5,4.7-11.7,7.5-18.1,8.3c-1.6,0.2-2.6,0.5-5.1,1.2l0.9,3.9c3.5,14.4,4.7,29.5,3.4,42.4c-0.6,5.6-1.9,15-2.2,13.4
				c-0.1-0.6,0.6-9,0.5-10.4c-1.1-15.3-2.8-28.5-5.3-41.5c-0.8-4.1-1.5-7.7-1.5-8.1c0-0.3,1.4-1.7,3.1-3c1.7-1.3,4.3-3.5,5.8-4.9
				c0.8-0.7,1.3-1.2,1.5-1.4l1.6-1.4c0.7,0.9,1.2,1.2,2.2,2.2c1.9,1.3,3,1.7,4.3,1.7c6.3,0,10.2-8.5,6.6-14.4l-1.7-2.2l1.4-1.5
				c1.6-1.8,5.9-4.2,9.3-4.8L419.7,219z M402.5,230.2v6.7l-3.6-2.8L402.5,230.2z M424.4,244.2c0.6-0.2-0.1,8.3-1,13.2
				c-1.6,9.1-4.7,16.3-9,20.7c-2,2-2.1,2.3-2.4,6.1c-0.7,8.3-2.5,14.8-5.8,21.2c-1.1,2.1-2.6,4.5-3.5,5.5c-0.8,0.9-2.8,4.2-2.9,3.9
				c-0.1-0.4,2-4.8,3.2-8.6c1.3-4.3,1.4-5,1.4-14c0-8.1-0.2-10.1-1-13.2c-0.6-2.1-1.8-3.9-1.7-4.1c0.1-0.2,2.2-0.9,3.7-1.6
				c7-3.3,13.4-11.4,16.9-21.3C422.9,250.1,424.2,244.5,424.4,244.2L424.4,244.2L424.4,244.2z"/>
			<path id="path839" sodipodi:nodetypes="sccssssscssssscsccccccccccsssss" class="st3" d="M235.5,352.3
				c-15.5-2.4-26.8-11.9-41.4-35c-16.9-30.5-39.3-66.8-72.8-77.3c-2.5-0.8-5.3-1.4-5.3-1.5c0-0.7,12-11.1,18-15.9
				c12.4-9.9,25.4-17.5,36.6-21.2c5.9-2,13.7-3.2,17.4-3.5c3.6-0.2,5.1-0.3,5.3-0.2c0.3,0.2-4.5,1.1-10,2.9c-6,2.3-12.5,5.8-18.2,10
				c-5.4,3.9-11.4,9.1-11.4,10c0,0.5,1.8-0.2,6.8,0c15.3,0.6,27.2,6.8,34.7,17.8c1.8,2.7,5.3,8.2,4.9,8.2c-0.2,0-2.7-2.3-3.9-3
				c-7.5-4.4-16.9-4.6-24.9-0.5c-1.3,0.7-2.5,2.3-2.5,2.3c9.4,3.6,15.1,9.8,20.1,16.7c2.6,3.6,10.2,15.1,10.2,15.8L181,276
				c0.3,1.7,1.4,3.1,2.2,4.3c7.5,10.8,17.1,17.5,22.6,22.4c8.6,6.9,17.4,10.8,27,14.1c18,5.9,32.6,7.9,51.3,5.1
				c7.9-1.3,14.1-2.6,19.8-4.4c2.1-0.5,4.4-1.2,6.1-2l2.7,1.5c0.2,0.1-0.7,0.9-1.5,1.6c-4.5,4.2-21.1,15.8-31.2,21.5
				C263.1,349.7,247,354.1,235.5,352.3L235.5,352.3z"/>
			<path id="path1812" class="st3" d="M315.8,213.8c-6.4,9.6-3.2,20.2,5.5,27.6c5.7,4.9,13.7,9.4,23.6,13c-3.2,14-4.4,28.6-3.1,41.1
				c0.6,5.6,1.9,15,2.2,13.4c0.1-0.6-0.6-9-0.5-10.4c1.1-15.3,2.8-28.5,5.3-41.5c0.8-4,1.4-7.3,1.4-7.8l0.4-0.5
				c4.2,4.9,10.2,4.4,15.8,5l-2-2.3c-12.5,1.2-18.1-9.8-25.9-16.9C331.3,227.9,331.6,218.2,315.8,213.8L315.8,213.8z M313.4,219
				l3,0.5c3.4,0.6,7.6,2.9,9.3,4.8l1.4,1.5l-1.7,2.2c-3.6,5.9,0.3,14.4,6.6,14.4c1.2,0,2.3-0.4,4.3-1.7c1-1,1.5-1.3,2.2-2.2l1.6,1.4
				c0.2,0.2,0.7,0.7,1.5,1.4c1.5,1.3,4.1,3.5,5.8,4.9c1.6,1.3,2.7,2.4,2.9,2.8c-4.5,0.4-9.2-0.5-13-1.5c-5.1-1.3-10.2-3.8-14.2-7.5
				c-3.9-3.7-6.2-8.3-7.9-13.6c-0.7-2.2-0.9-3.3-1.2-4.8L313.4,219z M330.6,230.2l3.6,3.9l-3.6,2.8V230.2z"/>
			<path id="path1814" sodipodi:nodetypes="sssssssccsssss" class="st3" d="M323.9,305.4c-3.3-6.4-5.1-12.9-5.8-21.2
				c-0.3-3.8-0.4-4.1-2.4-6.1c-4.3-4.4-7.5-11.5-9-20.7c-0.9-5.1-1.6-13.9-0.9-13.1c0.2,0.3,1.5,5.8,2.1,7.6
				c3.4,9.9,9.9,17.9,16.9,21.3c1.4,0.7,3.6,1.4,3.7,1.6s-1.1,2.1-1.7,4.1c-0.9,3.2-1,5.2-1,13.2c0,9,0.1,9.7,1.4,14
				c1.2,3.8,3.3,8.3,3.2,8.6c-0.1,0.3-2.1-3-2.9-3.9C326.5,309.9,324.9,307.5,323.9,305.4z"/>
		</g>
		<g id="g2066">
			<g id="g1998">
				<path id="path1965" class="st5" d="M229.8-42H214v-36.3h15c3.7,0,6.6,1,8.6,2.9c2,1.9,3,4.5,3,7.7c0,1.8-0.4,3.3-1.2,4.4
					c-0.8,1.2-1.7,2.1-2.8,2.8c1.3,0.8,2.4,1.7,3.2,2.9c0.8,1.1,1.3,2.8,1.3,5c0,3.4-1.1,6-3.2,7.9C235.8-42.9,233.1-42,229.8-42z
					 M228.4-70.3h-5.6v5.9h5.6c1.1,0,1.9-0.3,2.4-0.9s0.8-1.3,0.8-2.1c0-0.8-0.3-1.5-0.8-2.1C230.4-70,229.6-70.3,228.4-70.3
					L228.4-70.3z M228.9-56.3h-6v6.4h6c1.1,0,1.9-0.3,2.4-0.9c0.5-0.6,0.8-1.4,0.8-2.3s-0.3-1.6-0.8-2.2
					C230.8-56,230-56.3,228.9-56.3L228.9-56.3z"/>
				<path id="path1967" class="st5" d="M247.2-42v-36.3h24.7v8h-15.8v6.1h13.5v8h-13.5v6.4h15.8v8h-24.7V-42z"/>
				<path id="path1969" class="st5" d="M296.6-42l-6.4-13.5h-3V-42h-8.9v-36.3h14.4c3.9,0,6.9,1.2,9.1,3.5c2.2,2.3,3.3,5,3.3,8.2
					c0,2.3-0.6,4.2-1.7,5.9c-1.2,1.6-2.5,2.8-4.2,3.6l7.9,15.1L296.6-42z M292.2-70.3h-5v7.3h5c1.2,0,2.1-0.4,2.8-1.1
					c0.7-0.7,1.1-1.6,1.1-2.6s-0.4-1.8-1.1-2.5S293.4-70.3,292.2-70.3z"/>
				<path id="path1971" class="st5" d="M334.6-45.7c-1.4,1.5-3,2.5-4.8,3.2c-1.7,0.6-3.7,0.9-5.8,0.9c-4,0-7.1-1.1-9.3-3.3
					c-2.2-2.2-3.5-4.4-3.9-6.4c-0.4-2.1-0.6-5-0.6-8.7c0-3.9,0.2-6.8,0.5-8.8c0.4-2,1.3-3.8,2.9-5.3c1.5-1.5,3.1-2.6,4.7-3.3
					c1.7-0.7,3.6-1.1,5.7-1.1c4.3,0,7.6,1.2,9.9,3.5c2.3,2.3,3.8,5.2,4.2,8.6h-9c-0.4-1.4-1-2.5-1.7-3.1c-0.8-0.6-1.9-1-3.5-1
					c-0.8,0-1.5,0.2-2.1,0.5s-1.1,0.7-1.5,1.2s-0.7,1.4-0.9,2.5c-0.2,1.1-0.3,3.2-0.3,6.3c0,3.1,0.1,5.2,0.3,6.3
					c0.2,1.2,0.6,2.1,1.2,3c0.6,0.8,1.8,1.2,3.3,1.2c1.8,0,3-0.4,3.7-1.1c0.7-0.7,1.1-1.4,1.3-2c0.2-0.7,0.4-1.4,0.4-2.2v-0.5h-5.4
					v-7.4h14.2v5c0,3.1-0.3,5.5-0.8,7.3C337-48.8,336-47.2,334.6-45.7L334.6-45.7z"/>
				<path id="path1973" class="st5" d="M344.4-42v-36.3h24.7v8h-15.8v6.1h13.5v8h-13.5v6.4h15.8v8h-24.7V-42z"/>
				<path id="path1975" class="st5" d="M393.8-42l-6.4-13.5h-3V-42h-8.9v-36.3h14.4c3.9,0,6.9,1.2,9.1,3.5c2.2,2.3,3.3,5,3.3,8.2
					c0,2.3-0.6,4.2-1.7,5.9c-1.2,1.6-2.5,2.8-4.2,3.6l7.9,15.1L393.8-42z M389.4-70.3h-5v7.3h5c1.2,0,2.1-0.4,2.8-1.1
					c0.7-0.7,1.1-1.6,1.1-2.6s-0.4-1.8-1.1-2.5C391.5-69.9,390.6-70.3,389.4-70.3z"/>
				<path id="path1977" class="st5" d="M429-42l-1.7-5.4h-11.2l-1.8,5.4H405l13.2-36.3h6.9L438.3-42H429z M421.9-64.5l-3.3,9.7h6.3
					L421.9-64.5z"/>
				<path id="path1979" class="st5" d="M454.6-41.6c-4,0-7.1-1.1-9.3-3.3c-2.2-2.2-3.5-4.4-3.9-6.4c-0.4-2.1-0.6-5-0.6-8.7
					c0-3.9,0.2-6.8,0.5-8.8c0.4-2,1.3-3.8,2.9-5.3c1.5-1.5,3.1-2.6,4.8-3.3c1.7-0.7,3.6-1.1,5.6-1.1c3.6,0,6.6,1,9.1,3
					c2.5,2,4,4.9,4.7,8.8h-9.1c-0.3-1.2-0.9-2.2-1.5-2.9c-0.7-0.7-1.7-1-3.1-1c-0.8,0-1.5,0.1-2.1,0.4c-0.6,0.2-1.1,0.6-1.5,1.2
					c-0.4,0.5-0.7,1.4-1,2.7c-0.2,1.2-0.4,3.3-0.4,6.3c0,3.1,0.1,5.2,0.3,6.3c0.2,1.1,0.6,2.1,1.3,2.9c0.6,0.8,1.8,1.3,3.3,1.3
					c1.4,0,2.4-0.3,3.1-1s1.2-1.7,1.6-2.9h9.1c-0.6,3.9-2.2,6.8-4.7,8.8C461.2-42.7,458.2-41.6,454.6-41.6L454.6-41.6z"/>
			</g>
			<g id="g2039" transform="translate(0,0.0997)">
				<path id="path2000" class="st5" d="M228.3-3.3h-5.5v13H214v-36.3h14.4c3.9,0,6.9,1.2,9.1,3.5c2.2,2.3,3.3,5,3.3,8.2
					s-1.1,5.9-3.3,8.2C235.2-4.5,232.2-3.3,228.3-3.3L228.3-3.3z M227.9-18.7h-5v7.3h5c1.2,0,2.1-0.4,2.8-1.1
					c0.7-0.7,1.1-1.6,1.1-2.6c0-1-0.4-1.8-1.1-2.5C230.1-18.3,229.1-18.7,227.9-18.7L227.9-18.7z"/>
				<path id="path2002" class="st5" d="M248.4,9.6v-36.3h24.7v8h-15.8v6.1h13.5v8h-13.5v6.4h15.8v8L248.4,9.6z M262.6-30.3h-5
					l2.5-9.2h8.6L262.6-30.3z"/>
				<path id="path2004" class="st5" d="M299.2,9.6l-6.4-13.5h-3V9.6h-8.9v-36.3h14.4c3.9,0,6.9,1.2,9.1,3.5s3.3,5,3.3,8.2
					c0,2.3-0.6,4.2-1.7,5.9c-1.2,1.6-2.6,2.8-4.2,3.6l7.9,15.1L299.2,9.6z M294.8-18.7h-5v7.3h5c1.2,0,2.1-0.4,2.8-1.1
					c0.7-0.7,1.1-1.6,1.1-2.6c0-1-0.4-1.8-1.1-2.5C296.9-18.3,296-18.7,294.8-18.7L294.8-18.7z"/>
				<path id="path2006" class="st5" d="M317.2,9.6v-36.3h8.9V9.6H317.2z"/>
				<path id="path2008" class="st5" d="M358.2,5.8c-1.4,1.5-3,2.5-4.8,3.2c-1.7,0.6-3.7,0.9-5.8,0.9c-4,0-7.1-1.1-9.3-3.3
					c-2.2-2.2-3.5-4.4-3.9-6.4c-0.4-2.1-0.6-5-0.6-8.7c0-3.9,0.2-6.8,0.5-8.8c0.4-2,1.3-3.8,2.9-5.3c1.5-1.5,3.1-2.6,4.7-3.3
					c1.7-0.7,3.6-1.1,5.7-1.1c4.3,0,7.6,1.2,9.9,3.5s3.8,5.2,4.2,8.6h-9c-0.4-1.4-1-2.5-1.7-3.1c-0.8-0.6-1.9-1-3.5-1
					c-0.8,0-1.5,0.2-2.1,0.5c-0.6,0.3-1.1,0.7-1.5,1.2s-0.7,1.4-0.9,2.6c-0.2,1.1-0.3,3.2-0.3,6.3s0.1,5.2,0.3,6.3
					c0.2,1.2,0.6,2.1,1.2,3c0.6,0.8,1.8,1.2,3.3,1.2c1.8,0,3-0.4,3.7-1.1s1.1-1.4,1.3-2c0.2-0.7,0.4-1.4,0.4-2.2v-0.5h-5.4v-7.4
					h14.2v5c0,3.1-0.3,5.5-0.8,7.3C360.5,2.8,359.6,4.4,358.2,5.8L358.2,5.8z"/>
				<path id="path2010" class="st5" d="M393.5,5.8c-1.4,1.4-2.9,2.4-4.5,3.1s-3.5,1-5.7,1c-4,0-7.2-1.1-9.4-3.3
					c-2.2-2.2-3.5-4.4-3.9-6.4c-0.4-2.1-0.6-5-0.6-8.7c0-3.9,0.2-6.8,0.5-8.8c0.4-2,1.3-3.8,2.9-5.3c1.6-1.6,3.2-2.7,4.8-3.4
					c1.6-0.7,3.5-1,5.7-1c4,0,7.2,1.1,9.4,3.3c2.2,2.2,3.5,4.4,3.9,6.5s0.6,5,0.6,8.7c0,3.9-0.2,6.8-0.6,8.8
					C396.3,2.2,395.2,4.1,393.5,5.8L393.5,5.8z M386.9-17.5c-0.3-0.5-0.8-0.8-1.5-1.1c-0.6-0.3-1.3-0.5-2.1-0.5
					c-0.8,0-1.5,0.2-2.1,0.5c-0.6,0.3-1.1,0.7-1.6,1.2c-0.4,0.5-0.7,1.4-0.9,2.6c-0.2,1.1-0.3,3.2-0.3,6.3s0.1,5.2,0.3,6.3
					c0.2,1.1,0.5,2,0.9,2.5s0.9,0.9,1.6,1.3c0.6,0.3,1.3,0.5,2.1,0.5c1.6,0,2.7-0.4,3.3-1.3c0.6-0.9,1.1-1.8,1.3-3
					c0.2-1.1,0.3-3.2,0.3-6.3c0-3-0.1-5.1-0.3-6.3C387.8-16,387.4-16.9,386.9-17.5z"/>
				<path id="path2012" class="st5" d="M423.2,9.6l-6.4-13.5h-3V9.6h-8.9v-36.3h14.4c3.9,0,6.9,1.2,9.1,3.5c2.2,2.3,3.3,5,3.3,8.2
					c0,2.3-0.6,4.2-1.7,5.9c-1.2,1.6-2.6,2.8-4.2,3.6l7.9,15.1L423.2,9.6z M418.9-18.7h-5v7.3h5c1.2,0,2.1-0.4,2.8-1.1
					c0.7-0.7,1.1-1.6,1.1-2.6s-0.4-1.8-1.1-2.5C421-18.3,420-18.7,418.9-18.7L418.9-18.7z"/>
				<path id="path2014" class="st5" d="M464.6,6c-1.2,1.2-2.6,2.1-4.3,2.7c-1.7,0.6-3.5,0.9-5.5,0.9h-13.5v-36.3h13.5
					c2,0,3.8,0.3,5.5,0.9s3.1,1.5,4.3,2.8c1.3,1.2,2.2,2.7,2.8,4.3c0.6,1.6,1,4.1,1,7.7v2.6v2.7c0,2.8-0.2,5.1-0.7,6.8
					C467.3,2.7,466.2,4.4,464.6,6L464.6,6z M458.4-16.7c-0.4-0.7-1-1.2-1.7-1.5c-0.6-0.3-1.5-0.5-2.6-0.5h-3.9V1.6h3.9
					c1.1,0,1.9-0.2,2.6-0.5c0.7-0.4,1.2-0.9,1.6-1.5s0.7-1.4,0.8-2.3c0.1-1,0.2-2.9,0.2-5.9s-0.1-4.9-0.2-5.9
					C459.1-15.4,458.8-16.2,458.4-16.7L458.4-16.7z"/>
			</g>
			<g id="g2043">
				<path id="path2016" class="st5" d="M321.7,34.1v6.4h13.5v8h-13.5v14h-8.9V26.1h24.7v8H321.7z"/>
				<path id="path2018" class="st5" d="M355.7,62.7c-4,0-7.1-1.1-9.3-3.3s-3.5-4.4-3.9-6.4c-0.4-2.1-0.6-5-0.6-8.7
					c0-3.9,0.2-6.8,0.5-8.8c0.4-2,1.3-3.8,2.9-5.3c1.5-1.5,3.1-2.6,4.8-3.3c1.7-0.7,3.6-1.1,5.6-1.1c3.6,0,6.6,1,9.1,3
					s4,4.9,4.7,8.8h-9.1c-0.3-1.2-0.9-2.2-1.5-2.9c-0.7-0.7-1.7-1-3.1-1c-0.8,0-1.5,0.1-2.1,0.4c-0.6,0.2-1.1,0.6-1.5,1.2
					c-0.4,0.5-0.7,1.4-1,2.7c-0.2,1.2-0.4,3.3-0.4,6.3c0,3.1,0.1,5.2,0.3,6.3c0.2,1.1,0.6,2.1,1.3,2.9c0.6,0.8,1.8,1.3,3.3,1.3
					c1.4,0,2.4-0.3,3.1-1c0.7-0.7,1.2-1.7,1.6-2.9h9.1c-0.6,3.9-2.2,6.8-4.7,8.8C362.4,61.7,359.3,62.7,355.7,62.7z"/>
			</g>
		</g>
		<g id="g2236">
			<path id="path2068" class="st5" d="M134.3-69.9c-3.2,0-6.2,0.8-8.8,2.3c-3.8,2.2-6.6,5.9-8.1,10.6l-0.3-0.8
				C98.5-38,89.2-13.5,127.5,35.8c5.7,22.8,15.2,43.7,27.9,60.3c15.3,20,35,35,57.7,44.6c-13.1-19.1-24.9-32.4-15.9-51.1l-22-12.3
				L157.8,60c-10.3-27.9-14.1-52.3-8.3-71.4c1.6-5.1,3.8-8.3,7.3-14.1l-0.9-0.1c6.5-7.2,6.9-19.5,0.8-29.9
				C151.5-64.2,142.8-69.9,134.3-69.9z"/>
			<path id="path951" class="st6" d="M134.9-59.9c-2.8-1.8-2.9-2.2-2.1-3.7c0.6-1.2,2.8-1.3,6.3-0.2c3.3,1,4.3,1.7,3.9,3.1
				c-0.2,0.8-1,1.3-2.7,1.9c-1.3,0.4-2.5,0.8-2.6,0.8C137.6-58.2,136.3-59,134.9-59.9L134.9-59.9z"/>
			<path id="path949" class="st6" d="M122.5-49.9c-1.5-2.3-0.1-7.9,2.1-8.8c1.8-0.7,2.3-0.1,2.5,3.4c0.1,2.4-0.1,3.2-1.1,4.8
				C124.4-48.3,123.6-48.2,122.5-49.9z"/>
			<path id="path947" class="st6" d="M153.6-42.7c-2.5-2.6-3.2-4.6-3.4-9.2c-0.2-3.9-0.1-4.1,0.7-3.3c1.4,1.2,4.2,7.3,4.9,10.4
				C156.7-41,155.9-40.3,153.6-42.7L153.6-42.7z"/>
			<path id="path945" class="st6" d="M138.1-40.2c-1.7-0.4-2.1-0.9-3.2-3.2c-0.7-1.5-1.3-3.5-1.5-4.4c-0.3-1.6-0.1-1.8,2.1-3.3
				c1.3-0.8,2.7-1.5,3-1.5s1.9,1.3,3.5,3l2.9,3l-0.3,2.6c-0.2,1.4-0.6,3-0.8,3.5C143.2-39.5,141.2-39.4,138.1-40.2L138.1-40.2z"/>
			<path id="path941" class="st6" d="M133.3-30c-2.6-1.7-6-5.3-7.3-7.7c-0.7-1.4-0.7-1.6-0.1-1c0.4,0.4,1.3,0.5,2,0.4
				c0.7-0.1,2.1,0.2,3.4,0.9c1.8,0.9,2.6,1.7,3.9,4.2c1.3,2.5,1.5,3.2,1,3.9C135.6-28.7,135.3-28.7,133.3-30L133.3-30z"/>
			<path id="path939" class="st6" d="M145.8-27.9c-0.7-0.8-0.3-2.9,0.8-4.6c0.6-0.9,1.2-1.1,3.5-1.1c3,0,3.6,0.5,3,2.7
				c-0.3,1.4-4,3.8-5.7,3.8C146.8-27.1,146.1-27.5,145.8-27.9L145.8-27.9z"/>
			<path id="path937" sodipodi:nodetypes="ssssssscsscs" class="st7" d="M144.1,47.3c-8.2-8.9-14.9-17.2-21.2-26.6
				C107.4-2.5,103-23,110.3-38.9c1.5-3.3,5.3-9.2,5.9-9.2c0.2,0,0.8,1.6,1.2,3.6c0.5,2,1.9,5.8,3.2,8.4c2.9,6,7.2,10.5,12.7,13.2
				c3.6,1.8,9.2,3.3,12.1,3.3c1.6,0,1.6,0-0.4,4.9c-5.8,14-4.6,39,3.1,62.8c0.7,2.1,2.3,6,2.2,6.1C150.1,54.3,146.7,50.1,144.1,47.3
				L144.1,47.3z"/>
			<path id="path875" sodipodi:nodetypes="sssssscccsss" class="st3" d="M193.5,124.6c-6.3-3.8-15.8-11.7-22.7-19
				C157.8,92,147,75,139.6,56.9c-3-7.4-6.2-17.5-5.9-18.4c0.1-0.3,2.7,3.2,5.6,6.7c9.1,11.3,16.5,19.7,25.3,28.5
				c9.1,9.1,15.7,14.5,21.8,17.7c1.3,0.7,2.6,1.3,4.1,1.8c-0.9,2.5-0.9,5.3-1,7.6c-0.3,7.1,0.8,11.8,4.7,19.6
				c1.5,3.1,3.8,6.7,3.7,6.8C197.6,127.2,195.1,125.5,193.5,124.6L193.5,124.6z"/>
		</g>
	</g>
</g>
</svg>
