<?xml version="1.0" encoding="utf-8"?>
<!-- Generator: Adobe Illustrator 26.0.2, SVG Export Plug-In . SVG Version: 6.00 Build 0)  -->
<svg version="1.1"
	 id="svg10" xmlns:cc="http://creativecommons.org/ns#" xmlns:dc="http://purl.org/dc/elements/1.1/" xmlns:inkscape="http://www.inkscape.org/namespaces/inkscape" xmlns:rdf="http://www.w3.org/1999/02/22-rdf-syntax-ns#" xmlns:sodipodi="http://sodipodi.sourceforge.net/DTD/sodipodi-0.dtd" xmlns:svg="http://www.w3.org/2000/svg"
	 xmlns="http://www.w3.org/2000/svg" xmlns:xlink="http://www.w3.org/1999/xlink" x="0px" y="0px" width="684.9px" height="800px"
	 viewBox="0 0 684.9 800" style="enable-background:new 0 0 684.9 800;" xml:space="preserve">
<style type="text/css">
	.st0{fill:#0D2360;}
	.st1{fill-rule:evenodd;clip-rule:evenodd;fill:#977C4A;}
	.st2{fill:#142B72;}
	.st3{fill:#D6D8D9;}
	.st4{fill:#FFFFFF;}
	.st5{fill-rule:evenodd;clip-rule:evenodd;fill:#B49357;}
	.st6{fill:#B49357;}
	.st7{fill-rule:evenodd;clip-rule:evenodd;fill:#FFFFFF;}
</style>
<sodipodi:namedview  bordercolor="#666666" borderopacity="1" gridtolerance="10" guidetolerance="10" id="namedview12" inkscape:current-layer="g18" inkscape:cx="542.86004" inkscape:cy="634.06642" inkscape:pageopacity="0" inkscape:pageshadow="2" inkscape:window-height="900" inkscape:window-maximized="0" inkscape:window-width="1440" inkscape:window-x="0" inkscape:window-y="0" inkscape:zoom="0.45105668" objecttolerance="10" pagecolor="#ffffff" showgrid="false">
	</sodipodi:namedview>
<g id="g18" transform="matrix(1.3333333,0,0,-1.3333333,6.6666665e-4,1268.1331)" inkscape:groupmode="layer" inkscape:label="Logo FC Girondins Bordeaux 2020">
	<path id="path311" class="st0" d="M256.8,951.1c0,0-146.6,0.8-256.8-44.8c0,0-0.1,0-0.1,0v-70c0,0,0.1,0,0.1,0v-287h0.6
		c-0.6-1-0.9-2.3-0.6-3.8C3,526.8,7.5,497.2,46,474.5l210.8-123.4l210.8,123.4c38.5,22.6,43,52.3,45.9,70.9c0.2,1.5,0,2.8-0.6,3.8
		h0.6v287c0,0,0.1,0,0.1,0v70c0,0-0.1,0-0.1,0C403.4,951.9,256.8,951.1,256.8,951.1z"/>
	<path id="path38" class="st1" d="M490.9,891.8c-105.5,39.5-234,36.6-234,36.6v10.7c0,0,133.7,2.5,244.8-40.4c0-7.1,0-352,0-352
		s0.3-38.3-34.1-58.7c-1.1-0.6-210.7-123.6-210.7-123.6v12c0,0,207.5,121.6,208.5,122.2c26.9,19.4,25.5,48.3,25.5,48.3
		S490.9,885.1,490.9,891.8"/>
	<path id="path42" sodipodi:nodetypes="ccccccccccc" class="st2" d="M256.8,951.1c0,0-146.6,0.8-256.8-44.8c0,0-0.1,0-0.1,0v-70
		c0,0,0.1,0,0.1,0v-287h0.6c-0.6-1-0.9-2.3-0.6-3.8C3,526.8,7.5,497.2,46,474.5l210.8-123.4V951.1z"/>
	<g id="g309" transform="matrix(0.63084876,0,0,0.63084876,-1.8457562e-4,351.09968)">
		<path id="path34" class="st3" d="M407.1,294.1c5.9,0,14,6,14,6l294,169c0,0,9,8.2,9-1c0-10.5,0-132.6,0-143
			c-0.1-8.9-2.4-23.8-20-35c-19-12.1-291-170-291-170s-2.9-2-6-2L407.1,294.1z"/>
		<path id="path46" class="st4" d="M407.1,294.1c-5.9,0-14,6-14,6l-294,169c0,0-9,8.2-9-1c0-10.5,0-132.6,0-143
			c0.1-8.9,2.4-23.8,20-35c19-12.1,291-170,291-170s2.9-2,6-2V294.1z"/>
	</g>
	<path id="path50" class="st5" d="M22.8,891.8c105.5,39.5,234,36.6,234,36.6v10.7c0,0-133.7,2.5-244.8-40.4c0-7.1,0-352,0-352
		s-0.3-38.3,34.1-58.7c1.1-0.6,210.7-123.6,210.7-123.6v12c0,0-207.5,121.6-208.5,122.2c-26.9,19.4-25.5,48.3-25.5,48.3
		S22.8,885.1,22.8,891.8"/>
	<g id="g299" transform="matrix(0.63084876,0,0,0.63084876,-1.8457562e-4,351.09968)">
		<path id="path54" class="st6" d="M205.9,493.7c4.7,4.7,7.1,11,7.1,18.8v37.6h-26.7v-17.6h7.8v-21.3c0-2.1-0.7-3.8-2-5.1
			c-1.3-1.3-3-2-5.1-2c-2.1,0-3.8,0.7-5.1,2c-1.3,1.3-2,3-2,5.1v74.6c0,2.1,0.7,3.8,2,5.1c1.3,1.3,3,2,5.1,2c2.1,0,3.8-0.7,5.1-2
			c1.3-1.3,2-3,2-5.1v-15.4h18.8v14.1c0,7.7-2.4,14-7.1,18.7c-4.8,4.8-11,7.1-18.7,7.1c-7.8,0-14.1-2.4-18.8-7.1
			c-4.7-4.7-7.1-11-7.1-18.8v-72.1c0-7.7,2.4-14,7.1-18.7c4.8-4.8,11-7.1,18.7-7.1C194.9,486.6,201.2,488.9,205.9,493.7"/>
		<path id="path56" class="st6" d="M242,608.1h-18.8V488.9H242V608.1z"/>
		<path id="path60" class="st6" d="M272.5,590.6h7.1c2.1,0,3.8-0.7,5.1-2c1.3-1.3,2-3,2-5.1v-26c0-2.1-0.7-3.8-2-5.1
			c-1.3-1.3-3-2-5.1-2h-7.1L272.5,590.6z M272.5,488.9v43.9h3l13.5-43.9h19.6L294,536.6c7.6,4.5,11.4,11.9,11.4,22.1v23.5
			c0,7.7-2.4,14-7.1,18.7c-4.8,4.8-11,7.1-18.7,7.1h-25.9V488.9L272.5,488.9z"/>
		<path id="path64" class="st6" d="M333.7,511.2v74.6c0,2.1,0.7,3.8,2,5.1c1.3,1.3,3,2,5.1,2c2.1,0,3.8-0.7,5.1-2c1.3-1.3,2-3,2-5.1
			v-74.6c0-2.1-0.7-3.8-2-5.1c-1.3-1.3-3-2-5.1-2c-2.1,0-3.8,0.7-5.1,2C334.3,507.4,333.7,509.1,333.7,511.2 M359.6,493.7
			c4.7,4.7,7.1,11,7.1,18.8v72.1c0,7.7-2.4,14-7.1,18.7c-4.8,4.8-11,7.1-18.7,7.1c-7.8,0-14.1-2.4-18.8-7.1s-7.1-11-7.1-18.8v-72.1
			c0-7.7,2.4-14,7.1-18.7c4.8-4.8,11-7.1,18.7-7.1C348.6,486.6,354.9,488.9,359.6,493.7"/>
		<path id="path68" class="st6" d="M395.6,488.9v57.9l20.4-57.9h15.7v119.2h-18.8v-58.3l-20.5,58.3h-15.5V488.9L395.6,488.9z"/>
		<path id="path72" class="st6" d="M462.3,590.6h7.1c2.1,0,3.8-0.7,5.1-2c1.3-1.3,2-3,2-5.1v-69.9c0-2.1-0.7-3.8-2-5.1
			c-1.3-1.3-3-2-5.1-2h-7.1V590.6z M469.3,488.9c7.8,0,14.1,2.4,18.8,7.1c4.7,4.7,7.1,11,7.1,18.8v67.4c0,7.7-2.4,14-7.1,18.7
			c-4.8,4.8-11,7.1-18.7,7.1h-25.9V488.9L469.3,488.9z"/>
		<path id="path74" class="st6" d="M524.2,608.1h-18.8V488.9h18.8L524.2,608.1z"/>
		<path id="path78" class="st6" d="M554.8,488.9v57.9l20.4-57.9h15.7v119.2h-18.8v-58.3l-20.5,58.3H536V488.9L554.8,488.9z"/>
		<path id="path82" class="st6" d="M645,493.7c4.7,4.7,7.1,11,7.1,18.8v9.4c0,5.3-1.1,10.3-3.4,14.8c-2.2,4.5-5,8.4-8.2,11.5
			c-3.2,3.1-6.5,6.1-9.7,9c-3.2,2.9-6,6-8.2,9.3c-2.2,3.3-3.4,6.7-3.4,10.3v9.1c0,2.1,0.7,3.8,2,5.1c1.3,1.3,3,2,5.1,2
			c2.1,0,3.8-0.7,5.1-2c1.3-1.3,2-3,2-5.1v-15.4H652v14.1c0,7.7-2.4,14-7.1,18.7c-4.8,4.8-11,7.1-18.7,7.1c-7.8,0-14.1-2.4-18.8-7.1
			c-4.7-4.7-7.1-11-7.1-18.8v-9.4c0-5.3,1.1-10.3,3.4-14.8c2.2-4.5,5-8.4,8.2-11.5c3.2-3.1,6.5-6.1,9.7-9c3.2-2.9,6-6,8.2-9.3
			c2.2-3.3,3.4-6.7,3.4-10.3v-9.1c0-2.1-0.7-3.8-2-5.1c-1.3-1.3-3-2-5.1-2c-2.1,0-3.8,0.7-5.1,2c-1.3,1.3-2,3-2,5.1v15.4h-18.8
			v-14.1c0-7.7,2.4-14,7.1-18.7c4.8-4.8,11-7.1,18.7-7.1C634,486.6,640.3,488.9,645,493.7"/>
	</g>
	<g id="g305" transform="matrix(0.63084876,0,0,0.63084876,-1.8457562e-4,351.09968)">
		<path id="path86" class="st7" d="M464.1,441.1h20v-61h-11v51h-9V441.1z"/>
		<path id="path90" class="st7" d="M325.1,441.1h20v-61h-11v51h-9V441.1z"/>
		<path id="path94" class="st7" d="M380,388.1c-5.2,0-9.5,4.3-9.5,9.5s4.3,9.5,9.5,9.5s9.5-4.3,9.5-9.5S385.3,388.1,380,388.1
			 M380,434.1c4.4,0,8-3.6,8-8s-3.6-8-8-8s-8,3.6-8,8S375.6,434.1,380,434.1 M394.2,413.5c3,3.4,4.8,7.7,4.8,12.6
			c0,10.5-8.5,19-19,19s-19-8.5-19-19c0-4.8,1.8-9.2,4.8-12.6c-4.2-3.8-6.8-9.3-6.8-15.4c0-11.6,9.4-21,21-21s21,9.4,21,21
			C401,404.2,398.4,409.7,394.2,413.5"/>
		<path id="path98" class="st7" d="M434,388.1c-5.2,0-9.5,4.3-9.5,9.5s4.3,9.5,9.5,9.5s9.5-4.3,9.5-9.5S439.3,388.1,434,388.1
			 M434,434.1c4.4,0,8-3.6,8-8s-3.6-8-8-8s-8,3.6-8,8S429.6,434.1,434,434.1 M448.2,413.5c3,3.4,4.8,7.7,4.8,12.6
			c0,10.5-8.5,19-19,19s-19-8.5-19-19c0-4.8,1.8-9.2,4.8-12.6c-4.2-3.8-6.8-9.3-6.8-15.4c0-11.6,9.4-21,21-21s21,9.4,21,21
			C455,404.2,452.4,409.7,448.2,413.5"/>
	</g>
	<g id="g288" transform="matrix(0.63084876,0,0,0.63084876,-1.8457562e-4,351.09968)">
		<path id="path102" class="st4" d="M664.4,642.4l22.5,65.7l22.5-65.7h18.7l-31.8,93.1l28.4,83.3h-18.7l-19.2-56.1l-19.2,56.1H649
			l28.4-83.3l-31.8-93.1H664.4z"/>
		<path id="path106" class="st4" d="M635.9,674.2v144.5h-17.6V672.3c0-4.7-1.3-8.6-4-11.5s-6.1-4.4-10.4-4.4
			c-4.3,0-7.7,1.5-10.4,4.4s-4,6.8-4,11.5v146.5h-17.6V674.2c0-10.6,2.9-19.2,8.8-25.7c5.9-6.5,13.6-9.8,23.2-9.8
			c9.6,0,17.3,3.3,23.2,9.8C632.9,655,635.9,663.6,635.9,674.2"/>
		<path id="path110" class="st4" d="M522.8,801.2h2.2l11.5-99.2h-25.1L522.8,801.2z M504.5,642.4l4.9,41.9h29.1l4.9-41.9h17.6
			l-22.3,176.4h-29.5l-22.3-176.4L504.5,642.4z"/>
		<path id="path114" class="st4" d="M477.5,642.4V660h-41.9v61.7h33.1v17.6h-33.1v61.7h41.9v17.6H418V642.4H477.5z"/>
		<path id="path118" class="st4" d="M353.7,801.2H368c4.3,0,7.7-1.5,10.4-4.4s4-6.8,4-11.5V676c0-4.7-1.3-8.6-4-11.5
			s-6.1-4.4-10.4-4.4h-14.3V801.2z M368,642.4c9.6,0,17.3,3.3,23.2,9.8c5.9,6.5,8.8,15.1,8.8,25.7v105.3c0,10.6-2.9,19.2-8.8,25.7
			c-5.9,6.5-13.6,9.8-23.2,9.8h-32V642.4L368,642.4z M336.3,823.7H336v-0.2L336.3,823.7z"/>
		<path id="path122" class="st4" d="M270.1,801.2h14.3c4.3,0,7.7-1.5,10.4-4.4s4-6.8,4-11.5v-40.7c0-4.7-1.3-8.6-4-11.5
			s-6.1-4.4-10.4-4.4h-14.3V801.2z M270.1,642.4V711H282l18.7-68.6h18.5l-19.8,72c11.3,5.7,17,16.4,17,32.1v36.8
			c0,10.6-2.9,19.2-8.8,25.7c-5.9,6.5-13.6,9.8-23.2,9.8h-32V642.4L270.1,642.4z"/>
		<path id="path126" class="st4" d="M188,671.6v116.6c0,4.7,1.3,8.6,4,11.5s6.1,4.4,10.4,4.4c4.3,0,7.7-1.5,10.4-4.4s4-6.8,4-11.5
			V671.6c0-4.7-1.3-8.6-4-11.5c-2.6-2.9-6.1-4.4-10.4-4.4c-4.3,0-7.7,1.5-10.4,4.4S188,666.9,188,671.6 M234.3,673.6v112.7
			c0,10.6-2.9,19.2-8.8,25.7c-5.9,6.5-13.6,9.8-23.2,9.8c-9.6,0-17.3-3.3-23.2-9.8c-5.9-6.5-8.8-15.1-8.8-25.7V673.6
			c0-10.6,2.9-19.2,8.8-25.7c5.9-6.5,13.6-9.8,23.2-9.8c9.6,0,17.3,3.3,23.2,9.8C231.3,654.4,234.3,663,234.3,673.6"/>
		<path id="path130" class="st4" d="M107.4,721.1h14.3c4.3,0,7.7-1.5,10.4-4.4s4-6.8,4-11.5v-29.9c0-4.7-1.3-8.6-4-11.5
			s-6.1-4.4-10.4-4.4h-14.3V721.1z M107.4,800.5h14.3c4.3,0,7.7-1.5,10.4-4.4s4-6.8,4-11.5v-29.9c0-4.7-1.3-8.6-4-11.5
			s-6.1-4.4-10.4-4.4h-14.3V800.5z M121.7,641.7c9.6,0,17.3,3.3,23.2,9.8c5.9,6.5,8.8,15.1,8.8,25.7v23.3c0,13.2-4.3,23-12.8,29.4
			c8.5,6.4,12.8,16.2,12.8,29.4v23.3c0,10.6-2.9,19.2-8.8,25.7c-5.9,6.5-13.6,9.8-23.2,9.8h-32V641.7L121.7,641.7z"/>
	</g>
</g>
</svg>
