<?xml version="1.0" encoding="utf-8"?>
<!-- Generator: Adobe Illustrator 26.0.2, SVG Export Plug-In . SVG Version: 6.00 Build 0)  -->
<svg version="1.1" id="svg49890" xmlns:svg="http://www.w3.org/2000/svg"
	 xmlns="http://www.w3.org/2000/svg" xmlns:xlink="http://www.w3.org/1999/xlink" x="0px" y="0px" width="711.3px" height="846.2px"
	 viewBox="0 0 711.3 846.2" style="enable-background:new 0 0 711.3 846.2;" xml:space="preserve">
<style type="text/css">
	.st0{clip-path:url(#SVGID_00000120546347276520871650000018442085225470514836_);}
	.st1{clip-path:url(#SVGID_00000165948099090918425110000002132371114653124777_);}
	.st2{clip-path:url(#SVGID_00000059993967987433613450000018038240001021810819_);}
	.st3{fill:#001B50;stroke:#FFFFFF;stroke-width:0.146;}
	.st4{fill:#FFFFFF;}
	.st5{fill:none;stroke:#FFFFFF;stroke-width:2.633;}
</style>
<g id="g49899" transform="matrix(1.25,0,0,-1.25,-0.3743794,1050.0024)">
	<g id="g50571" transform="matrix(9.6870574,0,0,9.7011026,-1449.7228,-4742.1899)">
		<g>
			<defs>
				<rect id="SVGID_1_" x="-198" y="115.5" width="758.6" height="848.8"/>
			</defs>
			<clipPath id="SVGID_00000004527877373253873650000016457958704282163132_">
				<use xlink:href="#SVGID_1_"  style="overflow:visible;"/>
			</clipPath>
			<g id="g50573" style="clip-path:url(#SVGID_00000004527877373253873650000016457958704282163132_);">
				<g>
					<defs>
						
							<rect id="SVGID_00000076602537464161248350000010269025754786280862_" x="-3304.9" y="-4678.6" width="7204.7" height="10198.3"/>
					</defs>
					<clipPath id="SVGID_00000076585246336357291210000005796132261392151996_">
						<use xlink:href="#SVGID_00000076602537464161248350000010269025754786280862_"  style="overflow:visible;"/>
					</clipPath>
					<g id="g50579" style="clip-path:url(#SVGID_00000076585246336357291210000005796132261392151996_);">
						<g>
							<defs>
								
									<rect id="SVGID_00000008139339001935839710000003014563574828509602_" x="-3307" y="-4682.4" width="7210.1" height="10206.5"/>
							</defs>
							<clipPath id="SVGID_00000027602555886150383210000003834246953306555320_">
								<use xlink:href="#SVGID_00000008139339001935839710000003014563574828509602_"  style="overflow:visible;"/>
							</clipPath>
							<g id="g50585" style="clip-path:url(#SVGID_00000027602555886150383210000003834246953306555320_);">
								<path id="path50591" class="st3" d="M206.2,568.5l0.5-30.5c0,0,1.2-23.6-27.3-31.5c0,0-25.6,5-27.8,31.5l0.6,30.4
									C152.2,568.4,178.6,580.6,206.2,568.5z"/>
								<path id="path50593" class="st4" d="M176.6,533.7c0-0.2,0.1-0.3,0.3-0.3c0.1,0,0.1,0,0.1-0.1c0,0,0-0.1-0.1-0.1
									c-0.2,0-0.4,0-0.6,0c-0.2,0-0.4,0-0.6,0c0,0-0.1,0-0.1,0.1c0,0,0,0.1,0.1,0.1c0.2,0,0.3,0,0.3,0.2v1.8c0,0.1,0,0.1-0.1,0.1
									c-0.1,0-0.2-0.1-0.3-0.1c0,0-0.1,0-0.1,0.1c0,0,0,0.1,0.4,0.3c0.4,0.2,0.5,0.2,0.5,0.2c0,0,0.1,0,0.1-0.1V533.7"/>
								<path id="path50595" class="st4" d="M178.6,534.8c0.3-0.2,0.7-0.4,0.7-0.8c0-0.5-0.5-0.8-1-0.8c-0.4,0-0.9,0.2-0.9,0.7
									c0,0.4,0.3,0.5,0.5,0.6c-0.2,0.1-0.5,0.4-0.5,0.7c0,0.5,0.4,0.7,0.9,0.7c0.5,0,0.8-0.2,0.8-0.6
									C179.1,535.1,178.8,534.9,178.6,534.8z M178,534.5c-0.1-0.2-0.1-0.3-0.1-0.5c0-0.4,0.2-0.6,0.4-0.6c0.3,0,0.4,0.2,0.4,0.4
									C178.7,534.2,178.3,534.3,178,534.5z M178.5,534.9c0.1,0.1,0.2,0.2,0.2,0.4c0,0.2-0.1,0.5-0.4,0.5c-0.2,0-0.3-0.2-0.3-0.3
									C178,535.2,178.2,535,178.5,534.9"/>
								<path id="path50597" class="st4" d="M180.8,534.8c0.3-0.2,0.7-0.4,0.7-0.8c0-0.5-0.5-0.8-1-0.8c-0.4,0-0.9,0.2-0.9,0.7
									c0,0.4,0.3,0.5,0.5,0.6c-0.2,0.1-0.5,0.4-0.5,0.7c0,0.5,0.4,0.7,0.9,0.7c0.5,0,0.8-0.2,0.8-0.6
									C181.3,535.1,181,534.9,180.8,534.8z M180.2,534.5c-0.1-0.2-0.1-0.3-0.1-0.5c0-0.4,0.2-0.6,0.4-0.6c0.3,0,0.4,0.2,0.4,0.4
									C180.9,534.2,180.5,534.3,180.2,534.5z M180.7,534.9c0.1,0.1,0.2,0.2,0.2,0.4c0,0.2-0.1,0.5-0.4,0.5c-0.2,0-0.3-0.2-0.3-0.3
									C180.2,535.2,180.4,535,180.7,534.9"/>
								<path id="path50599" class="st4" d="M182.9,533.7c0-0.2,0.1-0.3,0.3-0.3c0.1,0,0.1,0,0.1-0.1c0,0,0-0.1-0.1-0.1
									c-0.2,0-0.4,0-0.6,0c-0.2,0-0.4,0-0.6,0c0,0-0.1,0-0.1,0.1c0,0,0,0.1,0.1,0.1c0.2,0,0.3,0,0.3,0.2v1.8c0,0.1,0,0.1-0.1,0.1
									c-0.1,0-0.2-0.1-0.3-0.1c0,0-0.1,0-0.1,0.1c0,0,0,0.1,0.4,0.3c0.4,0.2,0.5,0.2,0.5,0.2c0,0,0.1,0,0.1-0.1V533.7"/>
								<path id="path50601" class="st4" d="M172,543.1c0-0.1,0-0.2,0.1-0.2c0.1,0,0.3,0,0.3,0c0.1,0,0.2,0.1,0.2,0.2
									c0,0.1,0,0.1,0.1,0.1c0.1,0,0.1,0,0.1-0.1c0-0.1,0-0.2,0-0.4c0-0.1,0-0.2,0-0.4c0-0.1,0-0.1-0.1-0.1c-0.2,0-0.1,0.4-0.5,0.4
									l-0.2,0c-0.1,0-0.1-0.1-0.1-0.2V542c0-0.2,0-0.3,0.2-0.4c0.1,0,0.1,0,0.1-0.1c0-0.1,0-0.1-0.1-0.1c-0.2,0-0.4,0-0.6,0
									c-0.2,0-0.4,0-0.6,0c-0.1,0-0.1,0-0.1,0.1c0,0.1,0.1,0.1,0.1,0.1c0.3,0,0.3,0.1,0.3,0.4v1.5c0,0.2,0,0.4-0.2,0.4
									c-0.1,0-0.1,0-0.1,0.1c0,0.1,0,0.1,0.1,0.1c0.4,0,0.8,0,1.1,0c0.3,0,0.5,0,0.8,0c0.1,0,0.1,0,0.1-0.1v-0.4
									c0-0.1,0-0.1-0.1-0.1c-0.1,0-0.1,0.1-0.2,0.2c-0.1,0.1-0.1,0.2-0.2,0.2c-0.1,0.1-0.3,0.1-0.4,0.1c0,0-0.2,0-0.2,0
									c0,0,0-0.1,0-0.1V543.1"/>
								<path id="path50603" class="st4" d="M188.3,541.8c0-0.1,0-0.2-0.1-0.3c-0.2-0.1-0.5-0.2-0.8-0.2c-0.4,0-0.8,0.1-1.1,0.3
									c-0.3,0.2-0.5,0.6-0.5,1c0,0.4,0.2,0.8,0.5,1c0.3,0.2,0.8,0.3,1.2,0.3c0.2,0,0.4,0,0.6-0.1c0.1,0,0.1,0,0.1-0.2l0-0.2
									c0,0,0-0.1,0-0.1c0,0,0-0.1-0.1-0.1c-0.2,0-0.2,0.5-0.8,0.5c-0.3,0-0.5-0.2-0.7-0.4c-0.2-0.2-0.2-0.5-0.2-0.8
									c0-0.3,0.1-0.6,0.2-0.8c0.2-0.2,0.4-0.4,0.7-0.4c0.2,0,0.3,0.1,0.4,0.2c0.1,0.1,0.2,0.2,0.3,0.4c0,0,0,0.1,0.1,0.1
									c0.1,0,0.1-0.1,0.1-0.2L188.3,541.8"/>
								<path id="path50605" class="st4" d="M166.8,559.7c0-0.3,0.1-0.3,0.3-0.3c0.1,0,0.3-0.1,0.3-0.2c0-0.1-0.1-0.1-0.2-0.1
									c-0.2,0-0.4,0-1,0c-0.5,0-0.8,0-1,0c-0.1,0-0.2,0-0.2,0.1c0,0.2,0.1,0.2,0.3,0.2c0.2,0,0.2,0.2,0.2,0.5v3.8
									c0,0.2,0,0.3-0.2,0.4c-0.1,0.1-0.3,0.1-0.3,0.2c0,0.1,0.1,0.1,0.3,0.1c0.1,0,0.4,0,0.9,0c0.5,0,0.8,0,1,0
									c0.1,0,0.2,0,0.2-0.1c0-0.1-0.2-0.2-0.3-0.2c-0.2-0.1-0.2-0.2-0.2-0.4V559.7"/>
								<path id="path50607" class="st4" d="M175.2,558.9c-1.5,0-2.4,1.5-2.4,2.8c0,1.5,0.8,2.8,2.4,2.8c1.5,0,2.4-1.5,2.4-2.8
									C177.6,560.3,176.7,558.9,175.2,558.9z M175.1,564.2c-0.6,0-0.9-1.1-0.9-2c0-1.6,0.4-3.1,1.1-3.1c0.5,0,0.8,0.8,0.8,2.1
									C176.1,562.7,175.8,564.2,175.1,564.2"/>
								<path id="path50609" class="st4" d="M181.6,563.4c0,0.3-0.1,0.6-0.3,0.7c-0.1,0-0.3,0.1-0.3,0.2c0,0.1,0.1,0.1,0.1,0.1
									c0.2,0,0.3,0,0.6,0c0.2,0,0.4,0,0.6,0c0.1,0,0.2,0,0.2-0.1c0-0.1-0.1-0.1-0.3-0.2c-0.2,0-0.3-0.2-0.3-0.5V559
									c0-0.1-0.1-0.1-0.2-0.1c-0.1,0-0.2,0-0.2,0.1l-2.7,4.2h0V560c0-0.5,0.2-0.6,0.3-0.6c0.2,0,0.3,0,0.3-0.2
									c0-0.1-0.1-0.1-0.2-0.1c-0.2,0-0.4,0-0.6,0c-0.2,0-0.4,0-0.6,0c-0.1,0-0.2,0-0.2,0.1c0,0.3,0.5,0,0.5,0.5v4.1
									c0,0.6-0.5,0.3-0.5,0.5c0,0.1,0.1,0.2,0.2,0.2c0.2,0,0.4,0,0.6,0c0.2,0,0.4,0,0.6,0c0.2,0,0.3,0,0.3-0.1l1.9-3.1h0V563.4"/>
								<path id="path50611" class="st4" d="M183.5,563.7c0,0.5-0.6,0.1-0.6,0.4c0,0.2,0.6,0.5,2,0.5c1.8,0,2.8-1,2.8-2.8
									c0-1.7-1-2.7-2.4-2.7c-0.6,0-1,0-1.3,0c-0.4,0-0.7,0-0.9,0c-0.1,0-0.2,0-0.2,0.1c0,0.2,0.1,0.2,0.3,0.2
									c0.1,0,0.3,0.1,0.3,0.3V563.7z M184.8,559.8c0-0.2,0.2-0.5,0.4-0.5c0.6,0,1.1,0.5,1.1,2.5c0,1.6-0.4,2.4-1.1,2.4
									c-0.3,0-0.4-0.1-0.4-0.4V559.8"/>
								<path id="path50613" class="st4" d="M190.1,559.7c0-0.3,0.1-0.3,0.3-0.3c0.1,0,0.3-0.1,0.3-0.2c0-0.1-0.1-0.1-0.2-0.1
									c-0.2,0-0.4,0-1,0c-0.5,0-0.8,0-1,0c-0.1,0-0.2,0-0.2,0.1c0,0.2,0.1,0.2,0.3,0.2c0.2,0,0.2,0.2,0.2,0.5v3.8
									c0,0.2,0,0.3-0.2,0.4c-0.1,0.1-0.4,0.1-0.4,0.2c0,0.1,0.1,0.1,0.3,0.1c0.1,0,0.4,0,0.9,0c0.5,0,0.8,0,1,0
									c0.1,0,0.2,0,0.2-0.1c0-0.1-0.2-0.2-0.3-0.2c-0.2-0.1-0.2-0.2-0.2-0.4V559.7"/>
								<path id="path50615" class="st4" d="M194.6,563.4c0,0.3-0.1,0.6-0.3,0.7c-0.1,0-0.3,0.1-0.3,0.2c0,0.1,0.1,0.1,0.1,0.1
									c0.2,0,0.3,0,0.6,0c0.2,0,0.4,0,0.6,0c0.1,0,0.2,0,0.2-0.1c0-0.1-0.1-0.1-0.3-0.2c-0.2,0-0.3-0.2-0.3-0.5V559
									c0-0.1-0.1-0.1-0.2-0.1c-0.1,0-0.2,0-0.2,0.1l-2.7,4.2h0V560c0-0.5,0.2-0.6,0.3-0.6c0.2,0,0.3,0,0.3-0.2
									c0-0.1-0.1-0.1-0.2-0.1c-0.2,0-0.4,0-0.6,0c-0.2,0-0.4,0-0.6,0c-0.1,0-0.2,0-0.2,0.1c0,0.3,0.5,0,0.5,0.5v4.1
									c0,0.6-0.5,0.3-0.5,0.5c0,0.1,0.1,0.2,0.2,0.2c0.2,0,0.4,0,0.6,0c0.2,0,0.4,0,0.6,0c0.2,0,0.3,0,0.3-0.1l1.9-3.1h0V563.4"/>
								<path id="path50617" class="st4" d="M197.7,564.5c0.3,0,0.8-0.1,1.1-0.2c0.1,0,0.2-0.1,0.2-0.2c0-0.3,0-0.6,0-0.8
									c0-0.3,0-0.4-0.2-0.4c-0.4,0-0.4,1.4-1.2,1.4c-0.4,0-0.6-0.3-0.6-0.6c0-1.1,2.2-1.3,2.2-2.9c0-1.1-0.9-1.8-2-1.8
									c-0.2,0-1.4,0-1.4,0.5c0,0.5,0,0.7,0,0.9c0,0.4,0.1,0.6,0.3,0.6c0.4,0,0.2-1.7,1.2-1.7c0.5,0,0.8,0.4,0.8,0.8
									c0,1.2-2.2,1.5-2.2,3C195.9,564,196.8,564.5,197.7,564.5"/>
								<path id="path50619" class="st4" d="M160.4,555.7c0,0.2-0.1,0.2-0.2,0.2c-0.1,0-0.2,0-0.2,0c-0.1,0-0.1,0-0.1,0.1
									c0,0.2,1.1,0.3,1.7,0.3c1.4,0,2.2-0.9,2.2-2.4c0-1-0.6-2.4-2-2.4c-0.3,0-0.6,0-0.9,0c-0.6,0-0.8,0-1,0c0,0-0.1,0-0.1,0.1
									c0,0.1,0,0.1,0.3,0.1c0.2,0,0.3,0.1,0.3,0.5V555.7z M161.1,552.4c0-0.4,0.2-0.6,0.6-0.6c0.8,0,1.2,0.9,1.2,2.1
									c0,1.4-0.5,2.3-1.3,2.3c-0.3,0-0.5-0.1-0.5-0.4V552.4"/>
								<path id="path50621" class="st4" d="M164.5,555.8c0,0.2-0.1,0.2-0.3,0.3c-0.1,0-0.2,0-0.2,0.1c0,0.1,0.1,0.1,0.2,0.1
									c0.1,0,0.2,0,1.2,0c0.8,0,1.1,0,1.3,0c0.1,0,0.2,0,0.2-0.1v-0.9c0-0.1,0-0.1-0.1-0.1c-0.1,0-0.1,0-0.2,0.4
									c-0.2,0.4-0.4,0.6-1,0.6c-0.4,0-0.4,0-0.4-0.2v-1.5c0-0.1,0-0.1,0.2-0.1c0.6,0,0.6,0,0.8,0.3c0.1,0.2,0.1,0.3,0.2,0.3
									c0.1,0,0.1,0,0.1-0.1c0-0.2,0-0.4,0-0.6c0-0.3,0-0.5,0-0.6c0-0.1,0-0.2-0.1-0.2c-0.1,0-0.1,0.1-0.2,0.4
									c-0.1,0.3-0.1,0.4-0.6,0.4c-0.3,0-0.3,0-0.3-0.1v-1.4c0-0.5,0.1-0.7,0.6-0.7c0.5,0,0.7,0.2,0.9,0.7c0.1,0.4,0.1,0.4,0.2,0.4
									c0.1,0,0.1,0,0.1-0.2v-1c0-0.1,0-0.1-0.2-0.1c-0.2,0-0.6,0-1.3,0c-0.8,0-1,0-1.4,0c-0.1,0-0.2,0-0.2,0.1
									c0,0.1,0,0.1,0.1,0.1c0.3,0.1,0.4,0.1,0.4,0.3V555.8"/>
								<path id="path50623" class="st4" d="M169.9,555.9c0,0.1,0,0.2-0.2,0.2h-0.2c-0.1,0-0.1,0-0.1,0.1c0,0.1,0.1,0.1,0.2,0.1
									c0.6,0.1,1,0.1,1.4,0.1c1,0,1.6-0.3,1.6-1.1c0-0.6-0.4-0.9-0.9-1.1v0c0.7-0.1,1.2-0.6,1.2-1.3c0-0.7-0.5-1.4-1.3-1.4
									c-0.3,0-0.6,0-1.1,0c-0.4,0-0.7,0-0.9,0c-0.1,0-0.2,0-0.2,0.1c0,0.1,0,0.1,0.2,0.1c0.2,0.1,0.3,0.1,0.3,0.3V555.9z
									 M170.7,554.6c0-0.3,0.1-0.3,0.3-0.3c0.5,0,0.9,0.3,0.9,1c0,0.5-0.3,0.9-0.8,0.9c-0.3,0-0.4-0.1-0.4-0.3V554.6z
									 M170.7,552.3c0-0.4,0.2-0.5,0.6-0.5c0.4,0,0.9,0.3,0.9,1.2c0,0.6-0.3,1.1-1,1.1c-0.3,0-0.4,0-0.4-0.2V552.3"/>
								<path id="path50625" class="st4" d="M175.1,551.5c-1.1,0-1.8,1.3-1.8,2.4c0,1.2,0.7,2.4,1.8,2.4c1.1,0,1.8-1.3,1.8-2.4
									C176.9,552.8,176.2,551.5,175.1,551.5z M175.1,556.2c-0.7,0-1-1.3-1-2.2c0-0.9,0.3-2.2,1-2.2c0.7,0,1,1.3,1,2.2
									C176.1,554.8,175.8,556.2,175.1,556.2"/>
								<path id="path50627" class="st4" d="M178.5,552.2c0-0.2,0.1-0.4,0.3-0.4c0.3-0.1,0.3-0.1,0.3-0.1c0-0.1,0-0.1-0.1-0.1
									c-0.2,0-0.4,0-0.8,0c-0.4,0-0.6,0-0.8,0c-0.1,0-0.1,0-0.1,0.1c0,0.1,0,0.1,0.2,0.1c0.2,0,0.3,0.2,0.3,0.3v3.6
									c0,0.2-0.1,0.3-0.3,0.3c-0.2,0-0.2,0-0.2,0.1c0,0.1,0.1,0.1,0.1,0.1c0.2,0,0.4,0,0.7,0c0.4,0,0.7,0,1.1,0
									c0.8,0,1.3-0.5,1.3-1.2c0-0.7-0.5-1-1.1-1.1v0c0.2,0,0.3-0.1,0.4-0.4c0.6-1.2,0.7-1.6,0.9-1.8c0.1-0.1,0.3,0,0.3-0.1
									c0,0,0-0.1-0.1-0.1c-0.2,0-0.3,0-0.5,0c-0.2,0-0.2,0-0.4,0c-0.1,0-0.1,0-0.1,0.1l-0.9,2c0,0.1-0.1,0.2-0.2,0.2
									c-0.2,0-0.2,0-0.2-0.2V552.2z M178.5,554.2c0-0.1,0-0.2,0.2-0.2c0.7,0,1,0.3,1,1c0,0.5-0.4,1-0.8,1c-0.4,0-0.5-0.1-0.5-0.4
									V554.2"/>
								<path id="path50629" class="st4" d="M181.7,555.7c0,0.2-0.1,0.2-0.2,0.2c-0.1,0-0.2,0-0.2,0c-0.1,0-0.1,0-0.1,0.1
									c0,0.2,1.1,0.3,1.7,0.3c1.4,0,2.2-0.9,2.2-2.4c0-1-0.6-2.4-2-2.4c-0.3,0-0.6,0-0.9,0c-0.6,0-0.8,0-1,0c0,0-0.1,0-0.1,0.1
									c0,0.1,0,0.1,0.3,0.1c0.2,0,0.3,0.1,0.3,0.5V555.7z M182.4,552.4c0-0.4,0.2-0.6,0.6-0.6c0.8,0,1.2,0.9,1.2,2.1
									c0,1.4-0.5,2.3-1.3,2.3c-0.3,0-0.5-0.1-0.5-0.4V552.4"/>
								<path id="path50631" class="st4" d="M185.8,555.8c0,0.2-0.1,0.2-0.3,0.3c-0.1,0-0.2,0-0.2,0.1c0,0.1,0.1,0.1,0.2,0.1
									c0.1,0,0.2,0,1.2,0c0.8,0,1.1,0,1.3,0c0.1,0,0.2,0,0.2-0.1v-0.9c0-0.1,0-0.1-0.1-0.1c-0.1,0-0.1,0-0.2,0.4
									c-0.2,0.4-0.4,0.6-1,0.6c-0.4,0-0.4,0-0.4-0.2v-1.5c0-0.1,0-0.1,0.2-0.1c0.6,0,0.6,0,0.8,0.3c0.1,0.2,0.1,0.3,0.2,0.3
									c0.1,0,0.1,0,0.1-0.1c0-0.2,0-0.4,0-0.6c0-0.3,0-0.5,0-0.6c0-0.1,0-0.2-0.1-0.2c-0.1,0-0.1,0.1-0.2,0.4
									c-0.1,0.3-0.1,0.4-0.6,0.4c-0.3,0-0.3,0-0.3-0.1v-1.4c0-0.5,0.1-0.7,0.6-0.7c0.5,0,0.7,0.2,0.9,0.7c0.1,0.4,0.1,0.4,0.2,0.4
									c0.1,0,0.1,0,0.1-0.2v-1c0-0.1,0-0.1-0.2-0.1c-0.2,0-0.6,0-1.3,0c-0.8,0-1,0-1.4,0c-0.1,0-0.2,0-0.2,0.1
									c0,0.1,0,0.1,0.1,0.1c0.3,0.1,0.4,0.1,0.4,0.3V555.8"/>
								<path id="path50633" class="st4" d="M189.7,553.3c-0.1,0-0.1,0-0.2-0.5c-0.1-0.6-0.2-0.7-0.2-0.8c0-0.1,0.1-0.2,0.2-0.2
									c0.1,0,0.3,0,0.3-0.1c0,0,0-0.1-0.1-0.1c-0.1,0-0.4,0-0.5,0c-0.4,0-0.5,0-0.6,0c-0.1,0-0.1,0-0.1,0.1c0,0.1,0.1,0.1,0.3,0.1
									c0.2,0.1,0.2,0.4,0.8,2.4c0.7,2.1,0.6,2.2,0.7,2.2c0.2,0,0.1-0.1,1-3c0.4-1.2,0.4-1.5,0.6-1.5c0.2-0.1,0.3,0,0.3-0.1
									c0-0.1,0-0.1-0.2-0.1c-0.1,0-0.4,0-0.6,0c-0.4,0-0.7,0-0.7,0c-0.1,0-0.1,0-0.1,0.1c0,0.1,0.1,0.1,0.3,0.1
									c0.1,0,0.1,0.1,0.1,0.2c0,0.1,0,0.2-0.2,0.7c-0.1,0.5-0.1,0.6-0.2,0.6H189.7z M190.6,553.5
									C190.6,553.5,190.6,553.5,190.6,553.5c0.1,0.1,0,0.2-0.3,1.2c-0.1,0.4-0.1,0.4-0.1,0.4c0,0,0,0-0.3-0.9
									c-0.2-0.6-0.2-0.6-0.2-0.7c0,0,0,0,0.1,0H190.6"/>
								<path id="path50635" class="st4" d="M195.1,552.9v2.6c0,0.5-0.1,0.6-0.3,0.6c-0.2,0-0.2,0-0.2,0.1c0,0.1,0,0.1,0.2,0.1
									c0.1,0,0.2,0,0.5,0c0.3,0,0.4,0,0.5,0c0.1,0,0.1,0,0.1-0.1c0-0.1,0-0.1-0.2-0.1c-0.2,0-0.3-0.1-0.3-0.4V553
									c0-1-0.5-1.5-1.3-1.5c-0.8,0-1.5,0.2-1.5,1.1v3.2c0,0.2,0,0.3-0.1,0.3c-0.3,0-0.3,0.1-0.3,0.1c0,0,0,0.1,0.1,0.1
									c0.1,0,0.3,0,0.7,0c0.5,0,0.7,0,0.8,0c0.1,0,0.1,0,0.1-0.1c0-0.1,0-0.1-0.3-0.1c-0.2,0-0.3-0.1-0.3-0.3v-3
									c0-0.7,0.3-1,0.9-1C194.7,551.8,195.1,552.1,195.1,552.9"/>
								<path id="path50637" class="st4" d="M196.2,555.7c-0.1,0.2-0.1,0.3-0.3,0.3c-0.1,0-0.2,0-0.2,0.1c0,0.1,0,0.1,0.1,0.1
									c0.1,0,0.3,0,0.6,0c0.5,0,0.6,0,0.8,0c0.1,0,0.1,0,0.1-0.1c0-0.1,0-0.1-0.3-0.1c-0.1,0-0.2-0.1-0.2-0.1
									c0-0.1,0.1-0.2,0.6-1.3c0.5,1,0.6,1.2,0.6,1.3c0,0.1-0.1,0.2-0.3,0.2c-0.1,0-0.1,0-0.1,0.1c0,0.1,0.1,0.1,0.2,0.1
									s0.2,0,0.6,0c0.2,0,0.4,0,0.5,0c0.1,0,0.1,0,0.1-0.1c0-0.1,0-0.1-0.1-0.1c-0.3,0-0.5-0.1-0.6-0.4l-0.7-1.4l0.6-1.2
									c0.6-1.2,0.6-1.2,0.8-1.3c0.1-0.1,0.2-0.1,0.2-0.1c0-0.1,0-0.1-0.1-0.1c-0.1,0-0.4,0-0.6,0c-0.6,0-0.7,0-0.8,0
									c-0.1,0-0.1,0-0.1,0.1c0,0.1,0.1,0.1,0.2,0.1c0.1,0,0.2,0.1,0.2,0.2c0,0.1-0.1,0.2-0.5,1.2c-0.2,0.4-0.2,0.4-0.2,0.4
									c0,0-0.1-0.1-0.4-0.6c-0.3-0.6-0.4-0.7-0.4-0.9c0-0.1,0.1-0.2,0.3-0.3c0.1,0,0.2,0,0.2-0.1c0-0.1,0-0.1-0.1-0.1
									c-0.1,0-0.2,0-0.6,0c-0.4,0-0.5,0-0.6,0c-0.1,0-0.1,0-0.1,0.1c0,0.1,0.1,0.1,0.2,0.1c0.2,0.1,0.3,0.1,0.5,0.5l0.8,1.5
									L196.2,555.7"/>
								<path id="path50639" class="st5" d="M203.5,566.2l0.2-27.9c0,0,1.5-21.4-24.3-28.5c0,0-22.8,4.5-24.8,28.5l0.3,27.8
									C154.9,566.1,178.4,577.2,203.5,566.2z"/>
								<path id="path50641" class="st4" d="M158.3,534.7h13l8.1-8.8l8.1,8.8h13l-21.1-20.1L158.3,534.7"/>
								<path id="path50643" class="st4" d="M179.6,549.2c0,0,2.1-3.1,0.7-5.6c-1.4-2.6-5.1-2.4-5.1-2.4s4.5-1.5,6.3,1.8
									C183.2,546,179.6,549.2,179.6,549.2"/>
								<path id="path50645" class="st4" d="M179.4,549.1c0,0-2.1-3.1-0.7-5.6c1.4-2.6,5.1-2.4,5.1-2.4s-4.5-1.5-6.3,1.8
									C175.9,545.9,179.4,549.1,179.4,549.1"/>
								<path id="path50647" class="st4" d="M184.1,541.5c0,0-1.7,3.3-4.6,3.3c-2.9,0-4.6-3.3-4.6-3.3s0.9,4.7,4.6,4.6
									C183.1,546.1,184.1,541.5,184.1,541.5"/>
								<path id="path50649" class="st4" d="M168.6,563.8c0,0.3-0.1,0.4-0.3,0.4c-0.1,0-0.3,0.1-0.3,0.2c0,0.1,0.1,0.1,0.2,0.1
									c0.2,0,0.4,0,1,0c0.4,0,0.9,0,1.4,0c0.9,0,1.6-0.4,1.6-1.3c0-1.3-1.5-1.2-1.5-1.3c0,0,0.1-0.1,0.2-0.1
									c0.4,0,0.7-0.1,0.8-0.5l0.6-1.5c0.2-0.6,0.6-0.3,0.6-0.6c0-0.1-0.1-0.1-0.2-0.1h-1.2c-0.4,0-0.4,0-0.5,0.4l-0.6,1.7
									c-0.1,0.3-0.2,0.5-0.5,0.5c-0.1,0-0.1,0-0.1-0.1v-1.6c0-0.3,0-0.5,0.2-0.6c0.2-0.1,0.3,0,0.3-0.2c0-0.1-0.1-0.1-0.2-0.1
									c-0.1,0-0.4,0-1,0c-0.5,0-0.8,0-1,0c-0.1,0-0.2,0-0.2,0.1c0,0.2,0.1,0.2,0.2,0.2c0.1,0,0.3,0.1,0.3,0.3V563.8z M170,561.9
									C170,561.9,170,561.9,170,561.9c0.7,0,1,0.4,1,1.1c0,0.6-0.3,1.1-0.8,1.1c-0.2,0-0.3-0.1-0.3-0.4V561.9"/>
								<path id="path50651" class="st4" d="M164.1,559.6c0-0.3-0.9-0.7-1.7-0.7c-1.4,0-2.4,1.3-2.4,2.7c0,1.8,1.1,3,2.6,3
									c0.4,0,0.7-0.1,1-0.2c0.2-0.1,0.3-0.1,0.3-0.3c0-0.3,0-0.6,0-1.1c0-0.2-0.1-0.2-0.2-0.2c-0.5,0-0.4,1.5-1.3,1.5
									c-0.5,0-1-0.7-1-2.5c0-1.7,0.4-2.6,1.1-2.6c0.2,0,0.3,0.2,0.3,0.6v1.3c0,0.5-0.5,0.2-0.5,0.4c0,0.1,0.1,0.2,0.2,0.2
									c0.3,0,0.7,0,1,0c0.3,0,0.6,0,0.9,0c0.2,0,0.2,0,0.2-0.1c0-0.2-0.4,0-0.4-0.5V559.6"/>
							</g>
						</g>
					</g>
				</g>
			</g>
		</g>
	</g>
</g>
</svg>
