<?xml version="1.0" encoding="utf-8"?>
<!-- Generator: Adobe Illustrator 26.0.2, SVG Export Plug-In . SVG Version: 6.00 Build 0)  -->
<svg version="1.1"
	 id="HQFL" xmlns:cc="http://creativecommons.org/ns#" xmlns:dc="http://purl.org/dc/elements/1.1/" xmlns:inkscape="http://www.inkscape.org/namespaces/inkscape" xmlns:rdf="http://www.w3.org/1999/02/22-rdf-syntax-ns#" xmlns:sodipodi="http://sodipodi.sourceforge.net/DTD/sodipodi-0.dtd" xmlns:svg="http://www.w3.org/2000/svg"
	 xmlns="http://www.w3.org/2000/svg" xmlns:xlink="http://www.w3.org/1999/xlink" x="0px" y="0px" width="600px" height="600px"
	 viewBox="0 0 600 600" style="enable-background:new 0 0 600 600;" xml:space="preserve">
<style type="text/css">
	.st0{fill:#CACACA;}
	.st1{fill:#234287;}
	.st2{fill:#FFFFFF;}
	.st3{fill-rule:evenodd;clip-rule:evenodd;fill:url(#path4288_00000066479684886183603710000008700423867683213731_);}
	.st4{fill-rule:evenodd;clip-rule:evenodd;fill:url(#path4299_00000135672628952569595580000014349041211613925261_);}
	.st5{fill-rule:evenodd;clip-rule:evenodd;fill:url(#path4304_00000024702363348265826500000017838174241930962367_);}
	.st6{fill-rule:evenodd;clip-rule:evenodd;fill:url(#path4315_00000060028239404587236110000006127636561380811965_);}
	.st7{fill-rule:evenodd;clip-rule:evenodd;fill:url(#path4317_00000074436261104252393610000008656085352598680993_);}
	.st8{fill:#333333;}
	.st9{fill:#2F4996;}
</style>
<sodipodi:namedview  bordercolor="#666666" borderopacity="1" gridtolerance="10" guidetolerance="10" id="namedview91" inkscape:current-layer="HQFL" inkscape:cx="300" inkscape:cy="149.37948" inkscape:pageopacity="0" inkscape:pageshadow="2" inkscape:window-height="691" inkscape:window-maximized="1" inkscape:window-width="1280" inkscape:window-x="0" inkscape:window-y="1" inkscape:zoom="0.7" objecttolerance="10" pagecolor="#ffffff" showgrid="false" showguides="false">
	</sodipodi:namedview>
<g id="g6133" transform="matrix(1.5119061,0,0,1.5119061,605.08468,3.7792969e-5)">
	<g id="g6125">
		<circle id="circle4336" class="st0" cx="-201.8" cy="198.4" r="198.4"/>
		<circle id="circle4334" class="st1" cx="-201.8" cy="198.4" r="192.5"/>
		<circle id="path4332" class="st2" cx="-201.8" cy="198.4" r="150.5"/>
	</g>
	<g id="g6104">
		<g id="g4325">
			
				<radialGradient id="path4288_00000170259364207914703130000006924432129495695025_" cx="-828.7535" cy="334.1689" r="142.3091" gradientTransform="matrix(2.3769 1.279695e-02 -1.247622e-02 2.3173 1769.719 -569.5347)" gradientUnits="userSpaceOnUse">
				<stop  offset="0" style="stop-color:#FFFFFF"/>
				<stop  offset="0.6586" style="stop-color:#FFEE7B"/>
				<stop  offset="0.8392" style="stop-color:#FDDF41"/>
				<stop  offset="1" style="stop-color:#F7D60A"/>
			</radialGradient>
			
				<path id="path4288" inkscape:connector-curvature="0" style="fill-rule:evenodd;clip-rule:evenodd;fill:url(#path4288_00000170259364207914703130000006924432129495695025_);" d="
				M-201.8,56.9c-15.5,0-32.4,1.6-35.4,6.4c-6.4,9.6-9.7,19.1-12.6,28.7c19,0.2,34.5,8.3,48,14.3c13.5-6,29-14.1,48-14.3
				c-2.9-9.6-6.2-19.1-12.6-28.7C-169.4,58.5-186.3,56.9-201.8,56.9z"/>
			
				<radialGradient id="path4299_00000062174097860232646540000001527785323149358227_" cx="-828.7535" cy="334.1689" r="142.3091" gradientTransform="matrix(2.3769 1.279695e-02 -1.247622e-02 2.3173 1769.719 -569.5347)" gradientUnits="userSpaceOnUse">
				<stop  offset="0" style="stop-color:#FFFFFF"/>
				<stop  offset="0.6586" style="stop-color:#FFEE7B"/>
				<stop  offset="0.8392" style="stop-color:#FDDF41"/>
				<stop  offset="1" style="stop-color:#F7D60A"/>
			</radialGradient>
			
				<path id="path4299" inkscape:connector-curvature="0" style="fill-rule:evenodd;clip-rule:evenodd;fill:url(#path4299_00000062174097860232646540000001527785323149358227_);" d="
				M-337.9,154.3c-4.7,14.8-8.4,31.3-4.7,35.6c7.2,9.1,15.3,15.1,23.5,20.7c6-18,18.4-30.3,28.3-41.3c-1.6-14.7-4.6-31.9,0.9-50.1
				c-10-0.2-20.1,0-31.2,3.3C-326.6,123.9-333.2,139.5-337.9,154.3L-337.9,154.3z"/>
			
				<radialGradient id="path4304_00000027601972877836244380000004355147087563893381_" cx="-828.7535" cy="334.1689" r="142.3091" gradientTransform="matrix(2.3769 1.279695e-02 -1.247622e-02 2.3173 1769.719 -569.5347)" gradientUnits="userSpaceOnUse">
				<stop  offset="0" style="stop-color:#FFFFFF"/>
				<stop  offset="0.6586" style="stop-color:#FFEE7B"/>
				<stop  offset="0.8392" style="stop-color:#FDDF41"/>
				<stop  offset="1" style="stop-color:#F7D60A"/>
			</radialGradient>
			
				<path id="path4304" inkscape:connector-curvature="0" style="fill-rule:evenodd;clip-rule:evenodd;fill:url(#path4304_00000027601972877836244380000004355147087563893381_);" d="
				M-286.3,314.2c12.5,9.2,27,17.9,32.3,15.8c10.9-3.9,19.2-9.7,27.2-15.7c-15.1-11.4-22.9-27.1-30.2-40
				c-14.4-3.1-31.7-5.8-47.1-16.9c-3.3,9.4-6.4,19.1-6.8,30.6C-311.5,293.8-298.7,305-286.3,314.2L-286.3,314.2z"/>
			
				<radialGradient id="path4315_00000178923662828621554100000012025450952440141698_" cx="-828.7535" cy="334.1689" r="142.3091" gradientTransform="matrix(2.3769 1.279695e-02 -1.247622e-02 2.3173 1769.719 -569.5347)" gradientUnits="userSpaceOnUse">
				<stop  offset="0" style="stop-color:#FFFFFF"/>
				<stop  offset="0.6586" style="stop-color:#FFEE7B"/>
				<stop  offset="0.8392" style="stop-color:#FDDF41"/>
				<stop  offset="1" style="stop-color:#F7D60A"/>
			</radialGradient>
			
				<path id="path4315" inkscape:connector-curvature="0" style="fill-rule:evenodd;clip-rule:evenodd;fill:url(#path4315_00000178923662828621554100000012025450952440141698_);" d="
				M-65.7,154.3c4.7,14.8,8.4,31.3,4.7,35.6c-7.2,9.1-15.3,15.1-23.5,20.7c-6-18-18.4-30.3-28.3-41.3c1.6-14.7,4.6-31.9-0.9-50.1
				c10-0.2,20.1,0,31.2,3.3C-77,123.9-70.4,139.5-65.7,154.3L-65.7,154.3z"/>
			
				<radialGradient id="path4317_00000025413236478807991780000015249393447918183080_" cx="-828.7535" cy="334.1689" r="142.3091" gradientTransform="matrix(2.3769 1.279695e-02 -1.247622e-02 2.3173 1769.719 -569.5347)" gradientUnits="userSpaceOnUse">
				<stop  offset="0" style="stop-color:#FFFFFF"/>
				<stop  offset="0.6586" style="stop-color:#FFEE7B"/>
				<stop  offset="0.8392" style="stop-color:#FDDF41"/>
				<stop  offset="1" style="stop-color:#F7D60A"/>
			</radialGradient>
			
				<path id="path4317" inkscape:connector-curvature="0" style="fill-rule:evenodd;clip-rule:evenodd;fill:url(#path4317_00000025413236478807991780000015249393447918183080_);" d="
				M-117.3,314.2c-12.5,9.2-27,17.9-32.3,15.8c-10.9-3.9-19.2-9.7-27.2-15.7c15.1-11.4,22.9-27.1,30.2-40
				c14.4-3.1,31.7-5.8,47.1-16.9c3.3,9.4,6.4,19.1,6.8,30.6C-92.1,293.8-104.8,305-117.3,314.2L-117.3,314.2z"/>
		</g>
		<g id="g6100">
			<polygon id="polygon4394" class="st8" points="-101,156.4 -99.4,154.8 -96.5,151.2 -95.7,146.8 -96.5,144.4 -95.7,143.6 
				-94.8,138.4 -94.8,136 -95.7,136 -97.7,136.8 -100.2,135.1 -101.9,134.3 -105.6,135.1 -106.4,135.1 -108.1,135.1 -108.1,136 
				-111,137.6 -111.8,138.4 -114.3,139.2 -115.1,139.2 -115.9,139.2 -118.8,138.4 -123.8,138.4 -126.7,137.6 -129.2,134.3 
				-129.2,132.3 -128.3,130.8 -128.3,129.1 -129.2,128.3 -132.9,126.8 -132.9,124.7 -132.9,123.9 -133.7,121.5 -136.2,123.9 
				-137,121.5 -137.9,120.7 -139.9,120.7 -142.4,122.3 -142.4,123.1 -144.1,124.7 -147.8,123.9 -148.6,123.1 -148.6,121.5 
				-149.4,121.5 -150.3,119.1 -151.9,119.1 -154.8,119.1 -156.5,119.1 -159,117.1 -160.2,119.1 -160.2,119.9 -162.7,121.5 
				-166.8,121.5 -168.9,121.5 -169.7,120.7 -169.7,119.1 -171.3,119.1 -172.2,119.1 -175.9,122.3 -178.4,124.7 -182.1,123.9 
				-184.6,123.1 -187.9,120.7 -189.1,119.9 -190,119.1 -192.5,119.1 -197,119.1 -199.5,119.9 -203.2,119.9 -204,117.9 -204,117.1 
				-204.9,117.1 -206.5,117.9 -209,117.9 -211,115.5 -212.7,115.5 -213.5,114.7 -216.4,113.1 -219.7,113.9 -224.3,113.1 
				-225.1,112.3 -227.6,111.1 -232.2,109.5 -232.2,108.7 -232.2,107.9 -233,106.3 -233,105.5 -233.8,105.5 -235.5,107.1 
				-236.3,110.3 -238.4,112.3 -240,112.3 -242.5,111.1 -247.9,111.1 -253.3,108.7 -255.7,108.7 -258.2,110.3 -259.4,111.1 
				-262.7,114.7 -263.6,114.7 -265.2,119.1 -265.2,119.9 -266.1,121.5 -269,121.5 -270.6,121.5 -272.3,119.9 -274.3,117.9 
				-277.6,117.1 -280.5,117.1 -281.4,114.7 -282.2,113.1 -283,107.9 -283.9,107.1 -286.3,107.1 -288.4,105.5 -290.9,104.7 
				-293.4,104.7 -296.3,108.7 -296.3,113.1 -297.9,115.5 -297.9,116.3 -297.9,117.9 -299.5,120.7 -302.4,123.1 -302.4,125.9 
				-302.4,130.8 -304.1,132.3 -305.8,135.1 -305,136.8 -301.2,142 -299.5,144.4 -299.5,149.6 -298.8,152.8 -297.9,155.6 
				-296.3,156.4 -294.6,157.2 -292.5,156.4 -290.1,155.6 -290.1,156.4 -282.2,162 -282.2,164 -282.2,165.6 -283,168.8 -283,170.1 
				-281.4,173.3 -280.5,174.9 -280.5,178.5 -279.3,182.5 -277.6,184.5 -276.8,186.9 -276.8,189.3 -274.3,192.1 -271.4,192.9 
				-267.3,195.3 -265.2,196.9 -260.3,201.3 -258.2,202.2 -257.4,205.3 -250.4,210.6 -250.4,212.2 -250.4,214.2 -249.5,215 
				-249.5,215.8 -247.1,216.6 -242.5,221.8 -241.7,222.6 -241.7,224.2 -238.4,226.6 -235.5,229.4 -231.3,230.2 -229.3,230.2 
				-227.6,229.4 -226.8,229.4 -225.1,231 -222.2,233.4 -221.4,236.2 -221.4,240.2 -220.6,246.3 -218.1,250.3 -218.1,251.5 
				-216.4,253.1 -212.7,256.3 -208.1,260.7 -202,265.1 -199.5,267.5 -197.8,269.9 -196.2,275.2 -200.3,276.7 -202,276.7 
				-206.5,277.5 -204.9,278.4 -203.2,279.6 -201.6,281.2 -200.3,282 -199.5,281.2 -199.5,280.4 -198.7,280.4 -197.8,280.4 
				-190,281.2 -187.9,281.2 -186.2,282 -184.6,282 -183.8,283.6 -182.9,284.4 -182.9,285.2 -182.1,287.2 -178.4,288 -176.7,290.4 
				-175.9,292.8 -175.1,294 -174.2,294.8 -174.2,295.6 -170.5,298 -170.5,299.6 -168.9,301.2 -164.3,304 -161.9,306.4 -161,308 
				-159,310 -157.3,310.9 -155.6,313.2 -154.8,314.9 -151.9,316.9 -150.3,314.1 -150.3,313.2 -150.3,311.7 -149.4,310.9 
				-148.6,307.2 -144.9,302.4 -144.9,301.2 -144.9,298.8 -146.1,298 -147,296.4 -148.6,295.6 -149.4,294.8 -149.4,292 -148.6,288 
				-147.8,284.4 -148.6,283.6 -149.4,281.2 -149.4,280.4 -148.6,278.4 -147.8,276.7 -146.1,275.2 -142.4,273.5 -137,272.4 
				-137.9,269.1 -137.9,268.3 -137.9,266.7 -136.2,262.3 -135.4,260.7 -136.2,259.1 -136.2,254.7 -133.7,255.5 -130.8,254.7 
				-130,253.9 -130,252.3 -128.3,251.5 -127.5,250.3 -126.7,249.5 -123,249.5 -120.5,250.3 -119.6,252.3 -119.6,253.9 -118.8,255.5 
				-115.9,258.3 -111.8,253.1 -108.1,253.1 -107.3,251.5 -111.8,247.9 -112.6,247.9 -112.6,247.1 -115.1,246.3 -115.1,245.5 
				-114.3,242.7 -119.6,241 -118.8,237 -118.8,234.2 -115.1,237 -113.5,237.8 -109.7,237 -107.3,236.2 -105.6,237.8 -102.7,237 
				-101.9,237.8 -100.2,231.8 -97.7,231 -96.5,231.8 -95.7,231.8 -93.2,231.8 -89.9,231.8 -88.6,230.2 -88.6,227.4 -88.6,225 
				-88.6,222.6 -90.7,219 -91.5,217.4 -94,215.8 -94.8,214.2 -94.8,212.2 -96.5,209 -98.6,207.3 -100.2,206.2 -101.9,206.2 
				-101,205.3 -101.9,203.8 -101.9,203 -101,202.2 -99.4,201.3 -99.4,202.2 -98.6,203 -96.5,203.8 -93.2,204.5 -89.9,205.3 
				-87,205.3 -85.3,204.5 -83.7,202.2 -81.6,200.5 -80.8,197.7 -83.7,197.7 -86.1,196.9 -87.8,195.3 -87,193.7 -88.6,192.9 
				-89.9,192.9 -91.5,192.9 -94,192.9 -94.8,190.1 -96.5,188.5 -96.5,184.5 -97.7,182.5 -101.9,182.5 -103.9,181.7 -106.4,180.1 
				-107.3,179.3 -108.9,174.1 -108.1,171.7 -108.1,168.8 -108.1,166.5 -106.4,164 -102.7,158.8 			"/>
			<polygon id="polygon13" class="st9" points="-101,156.4 -99.4,154.8 -96.5,151.2 -95.7,146.8 -96.5,144.4 -95.7,143.6 
				-94.8,138.4 -94.8,136 -95.7,136 -97.7,136.8 -100.2,135.1 -101.9,134.3 -105.6,135.1 -106.4,135.1 -108.1,135.1 -108.1,136 
				-111,137.6 -111.8,138.4 -114.3,139.2 -115.1,139.2 -115.9,139.2 -118.8,138.4 -123.8,138.4 -126.7,137.6 -129.2,134.3 
				-129.2,132.3 -128.3,130.8 -128.3,129.1 -129.2,128.3 -132.9,126.8 -132.9,124.7 -132.9,123.9 -133.7,121.5 -136.2,123.9 
				-137,121.5 -137.9,120.7 -139.9,120.7 -142.4,122.3 -142.4,123.1 -144.1,124.7 -147.8,123.9 -148.6,123.1 -148.6,121.5 
				-149.4,121.5 -150.3,119.1 -151.9,119.1 -154.8,119.1 -156.5,119.1 -159,117.1 -160.2,119.1 -160.2,119.9 -162.7,121.5 
				-166.8,121.5 -168.9,121.5 -169.7,120.7 -169.7,119.1 -171.3,119.1 -172.2,119.1 -175.9,122.3 -178.4,124.7 -182.1,123.9 
				-184.6,123.1 -187.9,120.7 -189.1,119.9 -190,119.1 -192.5,119.1 -197,119.1 -199.5,119.9 -203.2,119.9 -204,117.9 -204,117.1 
				-204.9,117.1 -206.5,117.9 -209,117.9 -211,115.5 -212.7,115.5 -213.5,114.7 -216.4,113.1 -219.7,113.9 -224.3,113.1 
				-225.1,112.3 -227.6,111.1 -232.2,109.5 -232.2,108.7 -232.2,107.9 -233,106.3 -233,105.5 -233.8,105.5 -235.5,107.1 
				-236.3,110.3 -238.4,112.3 -240,112.3 -242.5,111.1 -247.9,111.1 -253.3,108.7 -255.7,108.7 -258.2,110.3 -259.4,111.1 
				-262.7,114.7 -263.6,114.7 -265.2,119.1 -265.2,119.9 -266.1,121.5 -269,121.5 -270.6,121.5 -272.3,119.9 -274.3,117.9 
				-277.6,117.1 -280.5,117.1 -281.4,114.7 -282.2,113.1 -283,107.9 -283.9,107.1 -286.3,107.1 -288.4,105.5 -290.9,104.7 
				-293.4,104.7 -296.3,108.7 -296.3,113.1 -297.9,115.5 -297.9,116.3 -297.9,117.9 -299.5,120.7 -302.4,123.1 -302.4,125.9 
				-302.4,130.8 -304.1,132.3 -305.8,135.1 -305,136.8 -301.2,142 -299.5,144.4 -299.5,149.6 -298.8,152.8 -297.9,155.6 
				-296.3,156.4 -294.6,157.2 -292.5,156.4 -290.1,155.6 -290.1,156.4 -282.2,162 -282.2,164 -282.2,165.6 -283,168.8 -283,170.1 
				-281.4,173.3 -280.5,174.9 -280.5,178.5 -279.3,182.5 -277.6,184.5 -276.8,186.9 -276.8,189.3 -274.3,192.1 -271.4,192.9 
				-267.3,195.3 -265.2,196.9 -260.3,201.3 -258.2,202.2 -257.4,205.3 -250.4,210.6 -250.4,212.2 -250.4,214.2 -249.5,215 
				-249.5,215.8 -247.1,216.6 -242.5,221.8 -241.7,222.6 -241.7,224.2 -238.4,226.6 -235.5,229.4 -231.3,230.2 -229.3,230.2 
				-227.6,229.4 -226.8,229.4 -225.1,231 -222.2,233.4 -221.4,236.2 -221.4,240.2 -220.6,246.3 -218.1,250.3 -218.1,251.5 
				-216.4,253.1 -212.7,256.3 -208.1,260.7 -202,265.1 -199.5,267.5 -197.8,269.9 -196.2,275.2 -200.3,276.7 -202,276.7 
				-206.5,277.5 -204.9,278.4 -203.2,279.6 -201.6,281.2 -200.3,282 -199.5,281.2 -199.5,280.4 -198.7,280.4 -197.8,280.4 
				-190,281.2 -187.9,281.2 -186.2,282 -184.6,282 -183.8,283.6 -182.9,284.4 -182.9,285.2 -182.1,287.2 -178.4,288 -176.7,290.4 
				-175.9,292.8 -175.1,294 -174.2,294.8 -174.2,295.6 -170.5,298 -170.5,299.6 -168.9,301.2 -164.3,304 -161.9,306.4 -161,308 
				-159,310 -157.3,310.9 -155.6,313.2 -154.8,314.9 -151.9,316.9 -150.3,314.1 -150.3,313.2 -150.3,311.7 -149.4,310.9 
				-148.6,307.2 -144.9,302.4 -144.9,301.2 -144.9,298.8 -146.1,298 -147,296.4 -148.6,295.6 -149.4,294.8 -149.4,292 -148.6,288 
				-147.8,284.4 -148.6,283.6 -149.4,281.2 -149.4,280.4 -148.6,278.4 -147.8,276.7 -146.1,275.2 -142.4,273.5 -137,272.4 
				-137.9,269.1 -137.9,268.3 -137.9,266.7 -136.2,262.3 -135.4,260.7 -136.2,259.1 -136.2,254.7 -133.7,255.5 -130.8,254.7 
				-130,253.9 -130,252.3 -128.3,251.5 -127.5,250.3 -126.7,249.5 -123,249.5 -120.5,250.3 -119.6,252.3 -119.6,253.9 -118.8,255.5 
				-115.9,258.3 -111.8,253.1 -108.1,253.1 -107.3,251.5 -111.8,247.9 -112.6,247.9 -112.6,247.1 -115.1,246.3 -115.1,245.5 
				-114.3,242.7 -119.6,241 -118.8,237 -118.8,234.2 -115.1,237 -113.5,237.8 -109.7,237 -107.3,236.2 -105.6,237.8 -102.7,237 
				-101.9,237.8 -100.2,231.8 -97.7,231 -96.5,231.8 -95.7,231.8 -93.2,231.8 -89.9,231.8 -88.6,230.2 -88.6,227.4 -88.6,225 
				-88.6,222.6 -90.7,219 -91.5,217.4 -94,215.8 -94.8,214.2 -94.8,212.2 -96.5,209 -98.6,207.3 -100.2,206.2 -101.9,206.2 
				-101,205.3 -101.9,203.8 -101.9,203 -101,202.2 -99.4,201.3 -99.4,202.2 -98.6,203 -96.5,203.8 -93.2,204.5 -89.9,205.3 
				-87,205.3 -85.3,204.5 -83.7,202.2 -81.6,200.5 -80.8,197.7 -83.7,197.7 -86.1,196.9 -87.8,195.3 -87,193.7 -88.6,192.9 
				-89.9,192.9 -91.5,192.9 -94,192.9 -94.8,190.1 -96.5,188.5 -96.5,184.5 -97.7,182.5 -101.9,182.5 -103.9,181.7 -106.4,180.1 
				-107.3,179.3 -108.9,174.1 -108.1,171.7 -108.1,168.8 -108.1,166.5 -106.4,164 -102.7,158.8 			"/>
		</g>
	</g>
	<g id="g6006">
		<g id="g5778">
			<path id="path4547" inkscape:connector-curvature="0" class="st2" d="M-364.2,128.2c-0.4,0-0.8,0.1-1.2,0.4
				c-0.8,0.5-1.4,1.3-1.9,2.4l-1.6,4l0.1,0.1l11.3,4.6l1.7-4.2c0.5-1.3,0.6-2.4,0.4-3.3c-0.3-0.9-1-1.6-2-2.1
				c-0.8-0.3-1.5-0.4-2.2-0.2l0,0c-0.6,0.2-1.1,0.6-1.5,1.2c0.1-0.6,0.1-1.1-0.2-1.5c-0.3-0.5-0.8-0.9-1.5-1.2
				C-363.3,128.3-363.8,128.2-364.2,128.2L-364.2,128.2z M-364.2,130.2c0.2,0,0.5,0,0.7,0.2c0.5,0.2,0.8,0.5,1,1
				c0.1,0.4,0,1-0.2,1.7l-0.9,2.1l-3.1-1.3l0.9-2.1c0.3-0.7,0.6-1.2,1-1.4l0,0C-364.6,130.3-364.4,130.2-364.2,130.2L-364.2,130.2z
				 M-359.2,131.8c0.3,0,0.6,0.1,0.9,0.2c0.7,0.3,1.1,0.6,1.2,1.1c0.2,0.5,0.1,1.1-0.2,1.9l-0.9,2.3l-3.8-1.5l0.9-2.3
				c0.3-0.8,0.7-1.3,1.2-1.5l0,0C-359.8,131.8-359.5,131.8-359.2,131.8L-359.2,131.8z"/>
			<path id="path4549" inkscape:connector-curvature="0" class="st2" d="M-357.1,116.2c-0.6,0-1.2,0-1.7,0.2c-1.5,0.4-2.7,1.4-3.4,3
				c-0.8,1.6-0.9,3.1-0.3,4.5s1.8,2.6,3.5,3.5c1.7,0.9,3.4,1.1,4.9,0.7c1.5-0.4,2.6-1.4,3.4-3c0.8-1.5,0.9-3.1,0.3-4.5
				s-1.8-2.6-3.5-3.5c-0.9-0.4-1.7-0.7-2.5-0.8C-356.7,116.2-356.9,116.2-357.1,116.2L-357.1,116.2z M-357.7,118.2
				c0.3,0,0.6,0,0.9,0.1c0.6,0.1,1.2,0.3,1.9,0.7c1.3,0.7,2.2,1.5,2.7,2.5s0.5,1.9-0.1,3c-0.5,1-1.3,1.6-2.3,1.9
				c-1.1,0.2-2.3,0-3.6-0.6c-1.3-0.7-2.2-1.5-2.7-2.5s-0.4-2,0.1-3s1.3-1.6,2.3-1.9C-358.2,118.2-358,118.2-357.7,118.2
				L-357.7,118.2z"/>
			<path id="path4551" inkscape:connector-curvature="0" class="st2" d="M-353.9,105.3L-353.9,105.3c-0.6,0.5-1,0.9-1.4,1.4
				s-0.7,0.9-1,1.4c-0.7,1.2-0.9,2.2-0.8,3.2c0.2,1,0.7,1.8,1.7,2.3c0.8,0.5,1.6,0.6,2.4,0.4s1.6-0.8,2.4-1.8l0.7-0.8
				c0.6-0.6,1.1-1,1.5-1.1s0.9-0.1,1.4,0.2c0.6,0.3,0.8,0.8,0.9,1.3c0.1,0.6-0.1,1.3-0.6,2c-0.3,0.5-0.7,1-1.2,1.4s-1,0.9-1.7,1.2
				l-0.2,0.1l1.8,1l0.1-0.1c0.6-0.5,1.1-1,1.5-1.5s0.8-1,1.1-1.5c0.8-1.3,1.1-2.5,1-3.5s-0.7-1.9-1.8-2.5c-0.9-0.5-1.7-0.7-2.6-0.4
				c-0.8,0.2-1.7,0.8-2.5,1.7l-0.7,0.8c-0.6,0.7-1.1,1.1-1.4,1.2l0,0c-0.4,0.1-0.7,0.1-1.2-0.2c-0.5-0.3-0.8-0.7-0.8-1.2
				s0.1-1.2,0.6-2c0.3-0.4,0.6-0.8,1-1.2c0.4-0.4,0.9-0.8,1.4-1.2l0.2-0.1L-353.9,105.3L-353.9,105.3z"/>
			<path id="path4553" inkscape:connector-curvature="0" class="st2" d="M-346.9,94l-1.1,1.6l8,5.4l-10.8-1.2l-1.4,2l0.1,0.1
				l10.1,6.9l1.1-1.6l-8-5.4l10.8,1.2l1.4-2L-346.9,94L-346.9,94z"/>
			<path id="path4555" inkscape:connector-curvature="0" class="st2" d="M-341.4,86.9l-1.3,1.6l0.1,0.1l6.7,11.3l1.3-1.6l-1.7-2.8
				l3.2-4.1l3.1,1.1l1.3-1.6L-341.4,86.9L-341.4,86.9z M-340.3,89.1l5.5,1.8l-2.5,3.1L-340.3,89.1z"/>
		</g>
		<path id="path4557" inkscape:connector-curvature="0" class="st2" d="M-332.1,76.1l-1.3,1.4l0.1,0.1l8.9,8.3l1.3-1.4L-332.1,76.1z
			"/>
		<g id="g5785">
			<path id="path4559" inkscape:connector-curvature="0" class="st2" d="M-318.6,63.1l-1.4,1.3l3.3,3.7l-4.2,3.8l-3.3-3.7l-1.4,1.3
				l0.1,0.1l8.2,9l1.4-1.3l-3.9-4.2l4.2-3.8l3.9,4.2l1.4-1.3L-318.6,63.1z"/>
			<path id="path4561" inkscape:connector-curvature="0" class="st2" d="M-309.5,55.8l-6.2,4.9l0.1,0.1l7.6,9.6l6.3-5l-1-1.3
				l-4.8,3.8l-2.5-3.2l4.5-3.6l-1-1.3l-4.5,3.6l-2-2.6l4.7-3.7L-309.5,55.8z"/>
			<path id="path4563" inkscape:connector-curvature="0" class="st2" d="M-300.5,50.5c-0.9-0.1-2,0.3-3.1,1.1l-3.2,2.2l7,10.2
				l1.6-1.1l-2.9-4.2l1.3-0.9c0.5-0.4,1-0.5,1.4-0.5s1,0.2,1.8,0.6l3.1,1.7l1.7-1.2l-3.4-1.9l0,0c-0.7-0.4-1.3-0.6-1.8-0.8l0,0
				c-0.4-0.1-0.8-0.1-1.1,0c0.4-0.5,0.6-1,0.6-1.6s-0.2-1.3-0.7-1.9C-298.8,51.2-299.6,50.6-300.5,50.5L-300.5,50.5z M-301.4,52.4
				c0.1,0,0.3,0,0.4,0l0,0l0,0c0.5,0.1,0.9,0.3,1.3,0.9s0.5,1.1,0.4,1.5c-0.1,0.5-0.5,0.9-1.1,1.4l-1.6,1.1l-2.3-3.3l1.6-1.1
				C-302.2,52.6-301.8,52.5-301.4,52.4L-301.4,52.4z"/>
			<path id="path4565" inkscape:connector-curvature="0" class="st2" d="M-288.8,43.4c-0.7,0-1.4,0-2,0.2c-0.7,0.2-1.3,0.4-1.9,0.8
				c-1.6,1-2.6,2.2-2.9,3.8c-0.3,1.5,0,3.2,1,4.8c1,1.7,2.3,2.8,3.8,3.2s3.1,0.2,4.7-0.8c0.6-0.4,1.2-0.8,1.6-1.3
				c0.5-0.5,0.8-1.1,1.1-1.7v-0.1l-1.1-1.8l-0.1,0.3c-0.2,0.7-0.5,1.3-0.9,1.8s-0.9,1-1.5,1.3c-1.2,0.7-2.2,0.9-3.2,0.5
				c-1-0.3-1.9-1.2-2.7-2.5c-0.8-1.3-1.1-2.5-0.9-3.6s0.8-1.9,2-2.6c0.6-0.3,1.2-0.6,1.8-0.7l0,0c0.6-0.1,1.3-0.1,2,0.1l0.3,0.1
				L-288.8,43.4L-288.8,43.4L-288.8,43.4z"/>
			<path id="path4567" inkscape:connector-curvature="0" class="st2" d="M-279.5,37.5l-7.1,3.6l0.1,0.1l5.6,10.9l7.2-3.7l-0.8-1.5
				l-5.5,2.8l-1.9-3.6l5.1-2.6l-0.8-1.5l-5.1,2.6l-1.5-2.9l5.3-2.7L-279.5,37.5L-279.5,37.5z"/>
			<path id="path4569" inkscape:connector-curvature="0" class="st2" d="M-268.2,33c-0.4,0-0.7,0-1.1,0.1c-0.7,0.1-1.5,0.3-2.2,0.6
				c-1.8,0.8-2.9,1.9-3.5,3.3c-0.6,1.5-0.4,3.1,0.3,5c0.8,1.8,1.9,3.1,3.4,3.7l0,0c1.5,0.6,3.1,0.5,4.8-0.2c0.8-0.3,1.5-0.8,2.1-1.3
				l0,0c0.6-0.5,1.1-1.1,1.5-1.8v-0.1l-2.1-5l-4.2,1.8l0.6,1.5l2.5-1l1.2,2.7c-0.2,0.3-0.5,0.6-0.8,0.8c-0.4,0.3-0.8,0.5-1.3,0.7
				c-1.3,0.6-2.5,0.6-3.4,0.2c-1-0.4-1.8-1.4-2.4-2.9s-0.8-2.7-0.4-3.7l0,0c0.3-1,1.2-1.8,2.5-2.4c0.7-0.3,1.4-0.4,2.1-0.5
				c0.7,0,1.4,0.1,2.2,0.3l0.3,0.1l-0.8-2h-0.1C-267.5,33-267.9,33-268.2,33L-268.2,33z"/>
			<path id="path4571" inkscape:connector-curvature="0" class="st2" d="M-257.3,28.6c-0.6,0-1.2,0.1-1.8,0.3
				c-1.6,0.6-2.8,1.6-3.4,3c-0.6,1.4-0.6,3.1,0,4.9s1.6,3.1,3,3.9c1.4,0.8,2.9,0.9,4.5,0.3c1.6-0.6,2.8-1.6,3.4-3
				c0.6-1.4,0.6-3.1,0-4.9c-0.6-1.8-1.6-3.1-3-3.9l0,0c-0.7-0.4-1.4-0.6-2.2-0.7C-256.9,28.6-257.1,28.6-257.3,28.6L-257.3,28.6z
				 M-257,30.3c0.5,0.1,1,0.2,1.4,0.5l0,0c0.9,0.6,1.6,1.6,2.1,3s0.5,2.6,0.2,3.6c-0.4,1-1.1,1.7-2.1,2.1c-1,0.4-2.1,0.3-3-0.3l0,0
				c-0.9-0.6-1.6-1.6-2.1-3s-0.5-2.6-0.2-3.7c0.4-1,1.1-1.7,2.2-2.1C-258,30.3-257.5,30.2-257,30.3L-257,30.3z"/>
			<path id="path4573" inkscape:connector-curvature="0" class="st2" d="M-241.2,24l-2,0.5l-1.1,10.5l-6.1-8.6l-2,0.5l7.7,10.8h0.1
				l1.9-0.5L-241.2,24L-241.2,24z"/>
			<path id="path4575" inkscape:connector-curvature="0" class="st2" d="M-237.3,23.3l-1.9,0.4v0.1l2.5,12l1.9-0.4L-237.3,23.3z"/>
			<path id="path4577" inkscape:connector-curvature="0" class="st2" d="M-224.5,21.1l-1.9,0.3l1.5,9.5l-6.5-8.7l-2.4,0.4v0.1
				l1.9,12.1l1.9-0.3l-1.5-9.5l6.5,8.7l2.4-0.4L-224.5,21.1L-224.5,21.1z"/>
			<path id="path4579" inkscape:connector-curvature="0" class="st2" d="M-215.5,20.3l-2.1,0.2v0.1l-3.7,12.6l2-0.2l0.8-3.2l5.2-0.4
				l1.3,3l2-0.2L-215.5,20.3L-215.5,20.3z M-216.4,22.5l2.4,5.2l-4,0.3L-216.4,22.5z"/>
		</g>
		<g id="g5798">
			<path id="path4581" inkscape:connector-curvature="0" class="st2" d="M-203,19.7l-0.2,12.3l4.5,0.1c0.8,0,1.5,0,2-0.2
				c0.5-0.1,1-0.4,1.5-0.8c0.4-0.3,0.7-0.7,1-1.2l0,0c0.2-0.5,0.3-1,0.4-1.5l0,0v-0.1c0-0.6-0.1-1.2-0.3-1.7s-0.5-0.9-0.9-1.3
				c-0.5-0.4-1-0.6-1.5-0.7l0,0c-0.5-0.1-1.2-0.2-2-0.2h-2.7l0.1-3l6.5,0.1v-1.7L-203,19.7L-203,19.7z M-201.2,26.2h2.2
				c0.7,0,1.2,0,1.6,0.1c0.4,0,0.7,0.2,1,0.4l0,0c0.3,0.2,0.4,0.4,0.6,0.7c0.1,0.3,0.2,0.6,0.2,1l0,0c0,0.4-0.1,0.8-0.2,1
				c-0.1,0.3-0.3,0.5-0.6,0.7s-0.6,0.3-1,0.4s-0.9,0.1-1.6,0.1h-2.1L-201.2,26.2L-201.2,26.2z"/>
			<path id="path4583" inkscape:connector-curvature="0" class="st2" d="M-186.3,20.2c-0.6,0-1.2,0.1-1.8,0.2
				c-0.7,0.2-1.4,0.6-1.9,1.1l0,0c-0.6,0.5-1,1.2-1.3,1.9c-0.3,0.8-0.5,1.6-0.6,2.6s0,1.9,0.2,2.7l0,0c0.2,0.8,0.5,1.5,1,2.1
				c0.4,0.6,1,1.1,1.7,1.4c0.7,0.4,1.5,0.6,2.3,0.6c0.9,0.1,1.7,0,2.4-0.2s1.4-0.6,1.9-1.1c0.5-0.5,1-1.1,1.3-1.9l0,0
				c0.3-0.8,0.6-1.7,0.7-2.7c0.1-1,0-1.9-0.2-2.7l0,0c-0.2-0.8-0.5-1.5-1-2.1c-0.4-0.6-1-1-1.7-1.4l0,0c-0.7-0.4-1.5-0.6-2.3-0.7
				C-185.9,20.2-186.1,20.2-186.3,20.2L-186.3,20.2z M-186.7,21.9c0.3,0,0.5,0,0.8,0c1.2,0.1,2,0.6,2.6,1.5s0.8,2.1,0.7,3.6
				s-0.6,2.7-1.3,3.4c-0.7,0.7-1.7,1.1-2.8,0.9c-1.2-0.1-2-0.6-2.6-1.4c-0.6-0.9-0.8-2.1-0.7-3.6s0.6-2.7,1.3-3.4
				C-188.1,22.3-187.5,22-186.7,21.9z"/>
			<path id="path4585" inkscape:connector-curvature="0" class="st2" d="M-172.8,22c-0.4,0-0.8,0-1.2,0.1c-0.8,0.2-1.5,0.5-2.1,0.9
				c-0.6,0.5-1.1,1.1-1.6,1.8c-0.4,0.7-0.7,1.6-0.9,2.6s-0.2,2,0,2.8c0.2,0.8,0.5,1.6,0.9,2.2s1,1.1,1.7,1.5l0,0
				c0.7,0.4,1.5,0.6,2.3,0.8c0.5,0.1,0.9,0.1,1.3,0.1c0.4,0,0.8,0,1.1-0.1c0.4-0.1,0.7-0.1,1-0.2c0.2-0.1,0.4-0.1,0.6-0.2v0.3
				l0.7-0.7l-0.3,0.1l0.3-1.8l-0.3-0.1l0,0c-0.7,0.4-1.3,0.7-2,0.8s-1.4,0.2-2.1,0c-0.5-0.1-1-0.3-1.5-0.5l0,0
				c-0.4-0.3-0.8-0.6-1.1-1s-0.5-0.9-0.6-1.6c-0.1-0.6-0.1-1.3,0-2.2c0.1-0.8,0.3-1.5,0.6-2l0,0c0.3-0.6,0.7-1,1.1-1.3
				c0.4-0.3,0.9-0.6,1.4-0.7s1-0.1,1.6,0c0.7,0.1,1.4,0.4,2,0.7c0.6,0.3,1.2,0.8,1.7,1.5l0,0l0.3,0.1l0.3-2.1l-0.1-0.1
				c-0.7-0.5-1.4-0.9-2-1.2c-0.6-0.3-1.3-0.4-1.9-0.6C-172,22-172.4,22-172.8,22L-172.8,22z"/>
			<path id="path4587" inkscape:connector-curvature="0" class="st2" d="M-164.6,23.6l-2.9,12l1.8,0.4l1.4-5.7l5.5,1.3l-1.4,5.7
				l1.8,0.4v-0.1l2.8-11.8l-1.8-0.4l-1.1,4.6l-5.5-1.3l1.1-4.6L-164.6,23.6L-164.6,23.6z"/>
			<path id="path4589" inkscape:connector-curvature="0" class="st2" d="M-148.8,27.8l-8,10.4l1.9,0.6l2.1-2.8l4.8,1.5l0.1,3.6
				l1.9,0.6v-0.2l-0.5-12.9L-148.8,27.8L-148.8,27.8z M-148.3,30l0.2,5.6l-3.6-1.2L-148.3,30z"/>
		</g>
		<path id="path4591" inkscape:connector-curvature="0" class="st2" d="M-134.3,32.9l-5,11.3l1.7,0.7l9-6.2l-3.7,8.5l1.7,0.8
			l0.1-0.1l4.9-11.1l-1.8-0.8l-8.9,6.1l3.7-8.3L-134.3,32.9L-134.3,32.9z"/>
		<g id="g5805">
			<path id="path4593" inkscape:connector-curvature="0" class="st2" d="M-117.6,40.7l0.6,7.4l-6.8,3.2l1.8,1l5.2-2.6l0.4,5.8
				l1.9,1.1l-0.6-7.5l6.7-3.2l-0.2-0.1l-1.6-0.9l-5.2,2.5l-0.4-5.7L-117.6,40.7z"/>
			<path id="path4595" inkscape:connector-curvature="0" class="st2" d="M-106.2,47.4l-6.8,10.3l6.9,4.5l0.1-0.1l0.9-1.3l-5.3-3.5
				l2.3-3.5l5.3,3.5l1-1.4l-5.3-3.5l1.7-2.5l5.3,3.5l1-1.4L-106.2,47.4L-106.2,47.4z"/>
			<path id="path4597" inkscape:connector-curvature="0" class="st2" d="M-96.9,53.7l-7.4,9.8l1.5,1.1l2.7-3.6l1.1,1
				c0.7,0.5,1.3,0.9,1.9,1.1l0,0c0.6,0.2,1.2,0.2,1.8,0.1c0.5-0.1,0.9-0.2,1.4-0.5c0.4-0.3,0.8-0.6,1.2-1.1c0.4-0.6,0.7-1.1,0.8-1.7
				l0,0c0.1-0.5,0-1.1-0.2-1.6s-0.4-0.9-0.7-1.3c-0.3-0.4-0.8-0.8-1.4-1.3L-96.9,53.7z M-96.4,56.2l1.1,0.9c0.4,0.3,0.7,0.6,0.9,0.8
				l0,0c0.2,0.2,0.4,0.5,0.5,0.8s0.1,0.6,0.1,0.9c-0.1,0.3-0.2,0.6-0.5,0.9c-0.2,0.3-0.4,0.5-0.7,0.6l0,0l0,0
				c-0.2,0.2-0.5,0.3-0.9,0.3c-0.3,0-0.7,0-1-0.1l0,0c-0.4-0.1-0.8-0.4-1.3-0.8l-1-0.7L-96.4,56.2L-96.4,56.2z"/>
			<path id="path4599" inkscape:connector-curvature="0" class="st2" d="M-88.3,60.3l-8.1,9.3l6.6,5.7l-1.8,2.1l1.4,1.2l2.9-3.3
				l-0.9-0.7l7-8l-1.4-1.2l-7,8l-4.2-3.7l7-8L-88.3,60.3z"/>
			<path id="path4601" inkscape:connector-curvature="0" class="st2" d="M-78.3,69.3L-87,78l5.8,5.8l0.1-0.1l1.1-1.1l-4.5-4.5l2.9-3
				l4.5,4.5l1.2-1.2l-4.5-4.5l2.1-2.1l4.5,4.5l1.2-1.2L-78.3,69.3z"/>
			<path id="path4603" inkscape:connector-curvature="0" class="st2" d="M-70.5,77.3l-9.2,8.2l1.3,1.4l7.9-7.1l4.1,4.6l0.1-0.1
				l1.2-1L-70.5,77.3z"/>
			<path id="path4605" inkscape:connector-curvature="0" class="st2" d="M-64.9,86.5c-0.6,0-1.2,0.1-1.8,0.4
				c-0.8,0.3-1.6,0.7-2.4,1.3c-0.8,0.6-1.4,1.3-1.9,2l0,0c-0.5,0.7-0.8,1.4-0.9,2.1s-0.1,1.5,0.1,2.2s0.6,1.5,1.1,2.1
				c0.5,0.7,1.1,1.2,1.8,1.6c0.7,0.4,1.4,0.6,2.1,0.7s1.5-0.1,2.3-0.3c0.8-0.3,1.6-0.7,2.4-1.3c0.8-0.6,1.4-1.3,1.9-2l0,0
				c0.5-0.7,0.8-1.4,0.9-2.2c0.1-0.7,0.1-1.5-0.1-2.2l0,0c-0.2-0.7-0.6-1.5-1.1-2.1c-0.5-0.7-1.1-1.2-1.8-1.6s-1.4-0.6-2.1-0.7l0,0
				C-64.5,86.5-64.7,86.5-64.9,86.5L-64.9,86.5z M-64.4,88.3c1.1,0,1.9,0.5,2.7,1.4c0.7,0.9,1,1.9,0.7,2.9c-0.2,1-0.9,2-2.2,3
				c-1.2,1-2.4,1.4-3.4,1.3c-1.1,0-1.9-0.5-2.6-1.4s-1-1.9-0.7-2.9c0.2-1,0.9-2,2.2-3C-66.6,88.8-65.5,88.3-64.4,88.3z"/>
			<path id="path4607" inkscape:connector-curvature="0" class="st2" d="M-55.3,96l-10.3,6.8l2.4,3.7c0.5,0.7,0.9,1.2,1.4,1.6
				c0.4,0.4,0.9,0.7,1.5,0.9c0.5,0.2,1,0.2,1.5,0.1s0.9-0.3,1.3-0.5v0.1l0.2-0.2c0.7-0.5,1.2-1.1,1.4-1.8c0.2-0.7,0.1-1.4-0.2-2.1
				c0.4,0.2,0.9,0.4,1.3,0.4l0,0c0.5,0,1.1-0.1,1.5-0.5c0.4-0.3,0.8-0.6,1-1l0,0c0.2-0.4,0.3-0.9,0.2-1.4l0,0
				c-0.1-0.5-0.2-0.9-0.4-1.3s-0.5-1-1-1.7L-55.3,96L-55.3,96z M-55.7,98.5l1,1.5c0.3,0.4,0.5,0.8,0.7,1.1l0,0
				c0.2,0.3,0.3,0.6,0.3,0.9c0,0.2,0,0.4-0.1,0.6s-0.3,0.3-0.5,0.5c-0.3,0.2-0.5,0.3-0.8,0.3l0,0c-0.2,0-0.5,0-0.7-0.1
				c-0.3-0.1-0.5-0.3-0.7-0.5l0,0c-0.2-0.2-0.4-0.5-0.7-0.9l-1.1-1.6L-55.7,98.5L-55.7,98.5z M-59.7,101.2l1.3,2
				c0.3,0.4,0.5,0.8,0.7,1.1l0,0l0,0c0.2,0.3,0.3,0.6,0.3,0.9c0,0.4,0,0.7-0.2,1c-0.1,0.2-0.4,0.5-0.8,0.8c-0.3,0.2-0.6,0.3-0.9,0.4
				c-0.3,0-0.6,0-0.9-0.1l0,0c-0.3-0.1-0.6-0.3-0.9-0.7l0,0c-0.3-0.3-0.6-0.8-1-1.4l-1.1-1.6L-59.7,101.2L-59.7,101.2z"/>
			<path id="path4609" inkscape:connector-curvature="0" class="st2" d="M-48.7,106.3l-10.7,6.1l0.9,1.6l10.9,0.4l-8.1,4.6l0.9,1.6
				l0.1-0.1l10.6-6l-0.9-1.7l-10.7-0.4l7.9-4.5L-48.7,106.3L-48.7,106.3z"/>
			<path id="path4611" inkscape:connector-curvature="0" class="st2" d="M-42.2,117.9l-11.2,5.3l0.8,1.7l5.3-2.5l2.4,5.2l-5.3,2.5
				l0.8,1.7l0.1-0.1l11-5.2l-0.8-1.7l-4.3,2l-2.4-5.2l4.3-2L-42.2,117.9L-42.2,117.9z"/>
			<path id="path4613" inkscape:connector-curvature="0" class="st2" d="M-35.6,132.8l-13.1,0.3l0.7,1.8l3.6-0.1l1.8,4.7l-2.7,2.3
				l0.7,1.9l0.2-0.1l9.7-8.5L-35.6,132.8z M-37.1,134.6l-4.3,3.7l-1.4-3.5L-37.1,134.6z"/>
		</g>
		<g id="g5702">
			<path id="path5168" inkscape:connector-curvature="0" class="st2" d="M-381.2,171.6l-0.2,1.9l9.6,1.1l-10.2,4l-0.3,2.4l12.3,1.4
				l0.2-1.9l-9.6-1.1l10.2-4l0.3-2.4h-0.1L-381.2,171.6L-381.2,171.6z"/>
			<path id="path5170" inkscape:connector-curvature="0" class="st2" d="M-377,184.3c-1.6,0.1-3,0.5-4,1.4c-1.2,1-1.8,2.4-1.9,4.1
				c-0.1,1.7,0.5,3.1,1.6,4.2c1.1,1.1,2.7,1.7,4.6,1.7c1.9,0.1,3.5-0.4,4.7-1.4s1.8-2.4,1.9-4.1c0.1-1.7-0.5-3.2-1.6-4.2
				c-1.1-1.1-2.7-1.7-4.6-1.7C-376.6,184.3-376.8,184.3-377,184.3L-377,184.3z M-376.4,186.4c1.5,0.1,2.7,0.4,3.5,1.1
				c0.8,0.7,1.2,1.6,1.2,2.8c0,1.1-0.5,2-1.4,2.6l0,0c-0.9,0.6-2.1,0.9-3.6,0.9c-1.5-0.1-2.6-0.4-3.5-1.1l0,0
				c-0.8-0.7-1.2-1.6-1.2-2.7c0-1.1,0.5-2,1.4-2.7S-377.9,186.3-376.4,186.4z"/>
			<path id="path5172" inkscape:connector-curvature="0" class="st2" d="M-376,197.8c-0.2,0-0.5,0-0.7,0c-2,0.1-3.5,0.7-4.6,1.8
				s-1.6,2.7-1.5,4.6c0,0.9,0.2,1.7,0.4,2.5c0.3,0.8,0.6,1.5,1.1,2.1v0.1l5.4-0.2l-0.2-4.6l-1.6,0.1l0.1,2.7l-3,0.1
				c-0.2-0.3-0.4-0.7-0.5-1.1c-0.1-0.4-0.2-0.9-0.2-1.5c-0.1-1.4,0.3-2.5,1.1-3.3c0.8-0.7,1.9-1.1,3.5-1.2c1.6-0.1,2.8,0.3,3.6,0.9
				c0.8,0.7,1.3,1.7,1.3,3.2c0,0.7-0.1,1.4-0.3,2.1c-0.2,0.7-0.6,1.3-1.1,1.9l-0.2,0.3l2.1-0.1v-0.1c0.4-0.6,0.6-1.3,0.8-2
				c0.2-0.7,0.2-1.5,0.2-2.3c-0.1-1.9-0.7-3.4-1.9-4.5C-373,198.3-374.4,197.9-376,197.8L-376,197.8z"/>
			<path id="path5174" inkscape:connector-curvature="0" class="st2" d="M-374.8,211c-0.4,0-0.9,0-1.4,0.1c-1.9,0.2-3.4,0.9-4.4,2.1
				l0,0c-1,1.2-1.5,2.6-1.3,4.4c0.2,1.7,0.9,3,2.2,3.9c1.3,0.9,2.9,1.2,4.8,1s3.4-0.9,4.4-2.1c1-1.2,1.5-2.6,1.3-4.3s-0.9-3-2.2-4
				C-372.3,211.4-373.5,211-374.8,211L-374.8,211z M-374.9,213c1,0,1.9,0.2,2.5,0.7c0.9,0.6,1.4,1.4,1.6,2.5
				c0.1,1.1-0.2,2.1-0.9,2.8c-0.8,0.8-1.9,1.2-3.4,1.4s-2.7,0-3.6-0.6s-1.4-1.4-1.6-2.5s0.2-2.1,0.9-2.8c0.8-0.8,1.9-1.2,3.4-1.4
				C-375.6,213-375.2,213-374.9,213z"/>
			<path id="path5176" inkscape:connector-curvature="0" class="st2" d="M-368.4,223.9h-0.1l-12,2.4l0.4,1.8l9.7-1.9l-6.9,4.3
				l0.4,1.8l8,1.3l-9.7,1.9l0.4,1.9l12.1-2.4l-0.5-2.6l-8.4-1.4l7.2-4.5L-368.4,223.9z"/>
			<path id="path5178" inkscape:connector-curvature="0" class="st2" d="M-365.4,237.8h-0.1l-11.8,3.3l2.2,7.8l1.6-0.4l-1.6-5.9
				l3.9-1.1l1.5,5.5l1.6-0.4l-1.5-5.5l3.2-0.9l1.6,5.8l1.6-0.4L-365.4,237.8L-365.4,237.8z"/>
			<path id="path5180" inkscape:connector-curvature="0" class="st2" d="M-363.1,246.4h-0.1l-1.4,0.5l1.4,4l-10.1,3.5l0.6,1.8
				l10.1-3.5l1.4,4l1.6-0.5L-363.1,246.4L-363.1,246.4z"/>
			<path id="path5182" inkscape:connector-curvature="0" class="st2" d="M-359.1,257.6l-0.1,0.1l-11.2,4.7l0.7,1.7l8.9-3.7l-6.9,8.5
				l0.9,2.2l11.4-4.8l-0.7-1.7l-8.9,3.7l6.9-8.4L-359.1,257.6z"/>
			<path id="path5184" inkscape:connector-curvature="0" class="st2" d="M-354,269.2l-0.1,0.1l-11,5.3l0.8,1.7l11.1-5.4L-354,269.2
				L-354,269.2z"/>
		</g>
		<path id="path5186" inkscape:connector-curvature="0" class="st2" d="M-347.6,281.3h-0.1l-14.1,3.2l0.8,1.5l14.2-3.2L-347.6,281.3
			z"/>
		<g id="g5713">
			<path id="path5188" inkscape:connector-curvature="0" class="st2" d="M-342.9,289l-0.1,0.1l-10.1,6.9l1.1,1.6l4.8-3.3l2.7,3.9
				l1.4-0.9l-2.7-3.9l2.7-1.8l3,4.4l1.4-0.9L-342.9,289L-342.9,289z"/>
			<path id="path5190" inkscape:connector-curvature="0" class="st2" d="M-337.5,296.8l-0.1,0.1l-5.9,4.7c-1.3,1-2,2.1-2.1,3.2
				c-0.2,1.2,0.3,2.4,1.2,3.6c1,1.2,2,1.9,3.2,2s2.4-0.3,3.6-1.3l6-4.7l-1.2-1.5l-5.9,4.6c-1,0.8-1.9,1.2-2.5,1.1
				c-0.7,0-1.3-0.4-2-1.2c-0.6-0.8-0.9-1.5-0.7-2.2c0.1-0.7,0.7-1.4,1.7-2.2l5.9-4.6L-337.5,296.8L-337.5,296.8z"/>
			<path id="path5192" inkscape:connector-curvature="0" class="st2" d="M-329.8,306.4l-0.1,0.1l-9,8.2l2.4,2.6
				c1.6,1.7,3.1,2.7,4.6,2.9c1.5,0.2,3.1-0.5,4.6-1.9s2.3-2.9,2.3-4.4s-0.8-3.1-2.4-4.9L-329.8,306.4z M-329.7,308.9l1.2,1.3
				c1.1,1.2,1.6,2.3,1.6,3.4c0,1-0.6,2.1-1.8,3.1c-1.2,1.1-2.3,1.6-3.3,1.5s-2.1-0.7-3.2-1.9l-1.2-1.3L-329.7,308.9z"/>
			<path id="path5194" inkscape:connector-curvature="0" class="st2" d="M-321.1,315.7l-0.1,0.1l-8.4,8.9l3.3,3.1c1,0.9,2,1.5,3,1.6
				s1.9-0.3,2.6-1.1c0.6-0.6,0.9-1.3,1-2c0.1-0.6-0.2-1.3-0.6-1.9c0.5,0.3,1,0.5,1.5,0.4c0.6-0.1,1.2-0.4,1.7-1
				c0.7-0.7,1-1.5,0.8-2.4c-0.1-0.9-0.7-1.8-1.6-2.6L-321.1,315.7z M-320.9,318.2l1.6,1.6c0.6,0.5,0.9,1,0.9,1.5l0,0
				c0.1,0.4-0.1,0.9-0.5,1.3s-0.8,0.6-1.2,0.5c-0.4,0-0.9-0.3-1.5-0.9l-1.6-1.6L-320.9,318.2L-320.9,318.2z M-324.3,321.8l1.8,1.7
				c0.6,0.6,0.9,1.1,1,1.6l0,0c0.1,0.5-0.1,1-0.6,1.5s-1,0.8-1.5,0.7c-0.5,0-1.1-0.3-1.7-0.9l-1.8-1.7L-324.3,321.8L-324.3,321.8z"
				/>
			<path id="path5196" inkscape:connector-curvature="0" class="st2" d="M-310.3,325.5L-310.3,325.5l-11.5,6.5l1.6,1.3l2.8-1.7
				l4,3.3l-1.1,3.1l1.6,1.3l4.2-12.5L-310.3,325.5L-310.3,325.5z M-310.9,327.8l-1.9,5.5l-3.1-2.6L-310.9,327.8z"/>
			<path id="path5198" inkscape:connector-curvature="0" class="st2" d="M-303.9,330.7l-0.1,0.1l-7.2,9.9l6.3,4.6l1-1.4l-4.8-3.5
				l6.3-8.6L-303.9,330.7z"/>
			<path id="path5200" inkscape:connector-curvature="0" class="st2" d="M-295.3,337.1c-0.3,0-0.5,0-0.8,0c-1,0.1-1.8,0.7-2.4,1.6
				c-0.5,0.8-0.7,1.6-0.5,2.4s0.7,1.6,1.7,2.5l0.7,0.7c0.6,0.6,0.9,1.1,1.1,1.5c0.1,0.4,0,0.9-0.3,1.3c-0.3,0.5-0.8,0.8-1.4,0.8
				s-1.3-0.2-2-0.7c-0.5-0.3-1-0.7-1.4-1.2s-0.8-1.1-1.2-1.7l-0.1-0.2l-1.1,1.7l0.1,0.1c0.4,0.6,0.9,1.1,1.4,1.6s1,0.9,1.5,1.2
				c1.3,0.8,2.5,1.2,3.5,1.1s1.9-0.7,2.5-1.7c0.5-0.9,0.7-1.7,0.5-2.6c-0.2-0.8-0.7-1.7-1.6-2.6l0,0l-0.7-0.7
				c-0.7-0.6-1-1.1-1.1-1.5l0,0c-0.1-0.4,0-0.7,0.2-1.2c0.3-0.5,0.7-0.8,1.3-0.8c0.6,0,1.2,0.2,1.9,0.7c0.4,0.3,0.8,0.6,1.2,1
				c0.4,0.4,0.7,0.9,1.1,1.5l0.1,0.2l1-1.6l-0.1-0.1c-0.4-0.5-0.8-1-1.3-1.4c-0.4-0.4-0.9-0.8-1.4-1.1
				C-293.7,337.5-294.5,337.2-295.3,337.1L-295.3,337.1z"/>
			<path id="path5202" inkscape:connector-curvature="0" class="st2" d="M-287.2,341.8l-0.1,0.1l-5.9,10.7l1.7,0.9l2.7-4.9l2.2,7.6
				l2.3,1.2l-2.6-8.9l8.2-2.1l-2.2-1.2l-6.9,1.8l2.4-4.3L-287.2,341.8L-287.2,341.8z"/>
			<path id="path5204" inkscape:connector-curvature="0" class="st2" d="M-277.4,347.1l-0.1,0.1l-5.4,11l1.7,0.8l5.4-11.1
				L-277.4,347.1L-277.4,347.1z"/>
		</g>
		<g id="g5724">
			<path id="path5206" inkscape:connector-curvature="0" class="st2" d="M-265.6,352.4c-0.6,0-1.1,0-1.6,0.2c-1,0.3-1.7,1-2.1,2
				c-0.3,0.9-0.4,1.7,0,2.4c0.3,0.7,1,1.4,2.1,2.1l0.9,0.5c0.7,0.4,1.1,0.9,1.3,1.3c0.2,0.4,0.2,0.9,0,1.4c-0.2,0.6-0.6,0.9-1.2,1.1
				c-0.6,0.1-1.3,0.1-2.1-0.3c-0.6-0.2-1.1-0.5-1.6-0.9s-1-0.9-1.5-1.5l-0.2-0.2l-0.7,1.9l0.1,0.1c0.6,0.5,1.1,0.9,1.7,1.3
				s1.1,0.6,1.7,0.9c1.4,0.6,2.6,0.7,3.6,0.4c1-0.3,1.7-1,2.2-2.1c0.4-0.9,0.4-1.8,0-2.6c-0.3-0.8-1-1.5-2.1-2.2l-0.8-0.5
				c-0.8-0.5-1.2-0.9-1.4-1.2c-0.2-0.3-0.2-0.7,0-1.2c0.2-0.6,0.6-0.9,1.1-1s1.2-0.1,2,0.3c0.5,0.2,0.9,0.4,1.4,0.8
				c0.4,0.3,0.9,0.7,1.4,1.2l0.2,0.2l0.7-1.9h-0.2c-0.5-0.4-1-0.8-1.5-1.1c-0.5-0.3-1-0.6-1.6-0.8
				C-264.4,352.6-265,352.5-265.6,352.4L-265.6,352.4z"/>
			<path id="path5208" inkscape:connector-curvature="0" class="st2" d="M-254.1,356.5v0.2l0,0l-0.1-0.2l-8.2,10.3l1.9,0.6l2-2.6
				l5,1.6l0.1,3.3l1.9,0.6l-0.7-13.2l-1.7-0.5l0.1-0.1L-254.1,356.5L-254.1,356.5z M-253.9,358.9l0.3,5.8l-3.8-1.2L-253.9,358.9
				L-253.9,358.9z"/>
			<path id="path5210" inkscape:connector-curvature="0" class="st2" d="M-248.8,358.3l1.6,13.1h0.1l1.9,0.5l7.5-10.9l-2-0.5l-6,8.7
				l-1.2-10.5L-248.8,358.3L-248.8,358.3z"/>
			<path id="path5212" inkscape:connector-curvature="0" class="st2" d="M-236.2,361.3v0.1l-2.2,12l7.9,1.4l0.3-1.6l-6-1.1l0.7-4
				l5.7,1l0.3-1.6l-5.7-1l0.6-3.2l5.9,1.1l0.3-1.6L-236.2,361.3L-236.2,361.3z"/>
			<path id="path5214" inkscape:connector-curvature="0" class="st2" d="M-226.5,363v0.1l-0.2,1.5l7.2,0.8l-8.5,8.3l-0.2,1.4
				l10.1,1.1l0.2-1.7l-7.6-0.9l8.5-8.3l0.2-1.4L-226.5,363L-226.5,363z"/>
		</g>
		<g id="g5749">
			<path id="path5216" inkscape:connector-curvature="0" class="st2" d="M-208.7,364.6l-0.1,12.3h1.9V371h5.7v5.9h1.9v-0.2l0.1-12.2
				h-1.9v4.7h-5.7v-4.7L-208.7,364.6L-208.7,364.6z"/>
			<path id="path5218" inkscape:connector-curvature="0" class="st2" d="M-190.7,364c-0.2,0-0.4,0-0.6,0c-0.8,0.1-1.6,0.3-2.3,0.6
				c-0.7,0.3-1.3,0.8-1.7,1.4c-0.5,0.6-0.8,1.3-1,2.1c-0.2,0.8-0.3,1.7-0.2,2.7s0.3,1.9,0.6,2.7c0.3,0.8,0.8,1.4,1.3,1.9
				s1.2,0.9,1.9,1.1s1.5,0.3,2.4,0.3c0.9-0.1,1.7-0.3,2.3-0.6c0.7-0.3,1.3-0.8,1.7-1.4c0.5-0.6,0.8-1.3,1-2.1
				c0.2-0.8,0.3-1.7,0.2-2.7s-0.3-1.9-0.6-2.7c-0.3-0.8-0.7-1.4-1.3-1.9l0,0c-0.5-0.5-1.2-0.9-1.9-1.1l0,0
				C-189.4,364.1-190,364-190.7,364L-190.7,364z M-191.2,365.7c1.2-0.1,2.1,0.3,2.8,1c0.7,0.8,1.1,1.9,1.2,3.4
				c0.1,1.6-0.2,2.7-0.8,3.6l0,0c-0.6,0.8-1.5,1.3-2.6,1.4c-1.2,0.1-2.1-0.3-2.8-1c-0.7-0.8-1.2-1.9-1.3-3.5
				c-0.1-1.5,0.2-2.7,0.8-3.6C-193.2,366.2-192.4,365.8-191.2,365.7L-191.2,365.7z"/>
			<path id="path5220" inkscape:connector-curvature="0" class="st2" d="M-175.2,362.5l-8,1.1l1.7,12.2l1.9-0.3L-181,365l6.1-0.8
				v-0.1L-175.2,362.5L-175.2,362.5z"/>
			<path id="path5222" inkscape:connector-curvature="0" class="st2" d="M-167.7,360.9c-0.4,0-0.8,0.1-1.2,0.1
				c-0.8,0.2-1.6,0.5-2.2,0.9c-0.6,0.4-1.2,1-1.5,1.6c-0.4,0.7-0.6,1.4-0.7,2.2c-0.1,0.8,0,1.7,0.2,2.7s0.5,1.8,0.9,2.6l0,0
				c0.4,0.7,0.9,1.3,1.5,1.7c0.6,0.4,1.3,0.7,2,0.9c0.8,0.1,1.6,0.1,2.4-0.1c0.9-0.2,1.6-0.5,2.2-0.9c0.6-0.4,1.1-1,1.5-1.6
				s0.6-1.4,0.7-2.2c0.1-0.8,0.1-1.8-0.1-2.7c-0.2-1-0.5-1.8-0.9-2.6c-0.4-0.7-0.9-1.3-1.5-1.8c-0.6-0.4-1.3-0.7-2-0.9l0,0
				C-166.9,360.9-167.3,360.9-167.7,360.9L-167.7,360.9z M-167.8,362.6c0.3,0,0.5,0,0.8,0.1c0.5,0.1,0.9,0.3,1.3,0.7l0,0
				c0.8,0.7,1.4,1.7,1.7,3.2s0.2,2.7-0.3,3.7c-0.5,0.9-1.3,1.5-2.4,1.7c-1.1,0.2-2.1,0-2.9-0.6c-0.8-0.7-1.4-1.7-1.7-3.3
				c-0.3-1.5-0.2-2.7,0.3-3.6l0,0c0.5-0.9,1.3-1.5,2.5-1.8C-168.3,362.6-168.1,362.6-167.8,362.6L-167.8,362.6z"/>
			<path id="path5224" inkscape:connector-curvature="0" class="st2" d="M-150.6,356.5l-2.4,0.7l-1.1,7.1l-4.8-5.4l-2.3,0.7
				l3.4,11.8l1.7-0.5l-2.7-9.5l4.8,5.4l1.1-0.3l1.2-7.1l2.7,9.5l1.8-0.5v-0.1L-150.6,356.5L-150.6,356.5z"/>
			<path id="path5226" inkscape:connector-curvature="0" class="st2" d="M-140.1,352.7l-7.7,2.9l4.3,11.6l7.7-2.9l-0.1-0.1l-0.5-1.5
				l-5.9,2.2l-1.4-3.9l5.9-2.2l-0.6-1.6l-5.9,2.2l-1-2.8l5.9-2.2L-140.1,352.7L-140.1,352.7z"/>
			<path id="path5228" inkscape:connector-curvature="0" class="st2" d="M-129.8,348.1l-9.6,4.3l0.7,1.6l3.9-1.7l4.3,9.7l1.7-0.8
				l-4.3-9.7l3.9-1.7l-0.1-0.1L-129.8,348.1L-129.8,348.1z"/>
			<path id="path5230" inkscape:connector-curvature="0" class="st2" d="M-120.1,343.1l-1.7,0.9l2.2,4.2l-5,2.7l-2.2-4.2l-1.7,0.9
				l5.8,10.9l1.7-0.9l-2.7-5.2l5-2.7l2.7,5.2l1.7-0.9l-0.1-0.1L-120.1,343.1L-120.1,343.1z"/>
			<path id="path5232" inkscape:connector-curvature="0" class="st2" d="M-109.5,336.6l-1.6,1v10.7l-4.8-7.7l-1.6,1l6.5,10.4l1.6-1
				v-10.9l4.9,7.8l1.6-1l-0.1-0.1L-109.5,336.6L-109.5,336.6z"/>
		</g>
		<path id="path5234" inkscape:connector-curvature="0" class="st2" d="M-97.7,327.2l-0.2,0.1l-1.2,0.9l4.7,15.7l1.4-1L-97.7,327.2z
			"/>
		<g id="g5760">
			<path id="path5236" inkscape:connector-curvature="0" class="st2" d="M-82,317.4c-0.6,0-1.3,0.1-1.9,0.4s-1.2,0.7-1.8,1.1
				l-0.9-0.9l-1.4,1.3l0.9,0.9c-0.5,0.5-1,1.1-1.2,1.7c-0.3,0.6-0.5,1.3-0.5,1.9s0.1,1.2,0.3,1.8c0.2,0.6,0.6,1.1,1.1,1.7
				s1.1,1,1.7,1.2l0,0l0,0c0.6,0.3,1.2,0.4,1.8,0.4c0.7,0,1.3-0.1,2-0.4c0.6-0.3,1.2-0.6,1.7-1.1l0.9,1l1.4-1.3l-0.9-1
				c0.5-0.5,0.9-1,1.2-1.7l0,0c0.3-0.6,0.5-1.3,0.5-1.9l0,0c0-0.6-0.1-1.2-0.3-1.8l0,0c-0.2-0.6-0.6-1.2-1.1-1.8
				c-0.5-0.5-1.1-0.9-1.6-1.2C-80.8,317.5-81.4,317.4-82,317.4L-82,317.4L-82,317.4z M-82.5,319.1c0.4,0,0.8,0.1,1.2,0.3
				c0.4,0.2,0.8,0.5,1.2,0.9c0.4,0.5,0.7,0.9,0.9,1.3c0.2,0.4,0.3,0.9,0.2,1.3l0,0c0,0.3-0.1,0.7-0.3,1.1c-0.2,0.3-0.4,0.7-0.7,1
				l-4.7-5c0.4-0.3,0.7-0.6,1-0.7C-83.3,319.2-82.9,319.1-82.5,319.1L-82.5,319.1z M-86,321.4l4.7,5c-0.3,0.3-0.7,0.5-1,0.7
				c-0.4,0.2-0.8,0.2-1.1,0.2c-0.4,0-0.9-0.1-1.3-0.3l0,0c-0.4-0.2-0.9-0.5-1.3-1c-0.3-0.4-0.6-0.8-0.8-1.2l0,0
				c-0.2-0.4-0.3-0.9-0.2-1.3c0-0.4,0.1-0.8,0.3-1.1C-86.7,322-86.4,321.7-86,321.4L-86,321.4z"/>
			<path id="path5238" inkscape:connector-curvature="0" class="st2" d="M-75.4,306.1l-0.1,0.5l0,0l-1.1,1.3l3,6.9l-7.4-2.1
				l-1.4,1.6l9.8,2.8l0.2,0.6c0.1,0.3,0.2,0.5,0.1,0.7l0,0c0,0.2,0,0.4-0.1,0.5l0,0c-0.1,0.1-0.1,0.3-0.2,0.4
				c-0.1,0.2-0.2,0.3-0.3,0.3c-0.2,0.2-0.3,0.3-0.4,0.4s-0.2,0.2-0.3,0.3l0,0l-0.2,0.2l1.3,1.2l0.1-0.1c0.1-0.1,0.2-0.2,0.4-0.4
				c0.2-0.2,0.4-0.4,0.6-0.6s0.3-0.4,0.5-0.6l0,0l0,0c0.2-0.2,0.3-0.5,0.4-0.8l0,0l0,0c0.1-0.3,0.1-0.7,0.1-1.1l0,0
				c0-0.4-0.1-0.8-0.3-1.2L-75.4,306.1L-75.4,306.1z"/>
			<path id="path5240" inkscape:connector-curvature="0" class="st2" d="M-68.7,298.2l-4.6,5.8l0.1,0.1c1.7,1.4,3.2,2.8,4.3,4.3
				c1.2,1.4,2,2.8,2.4,4l-0.6,0.8l3.5,2.8l1.1-1.4l-2.2-1.7l5.1-6.4l2.2,1.7l1.1-1.4l-0.1-0.1l-3.4-2.7l-0.7,0.9L-68.7,298.2z
				 M-68.6,300.7l7,5.6l-3.7,4.6c-0.4-1.1-1.1-2.3-2-3.5c-1-1.3-2.2-2.5-3.6-3.8L-68.6,300.7z"/>
			<path id="path5242" inkscape:connector-curvature="0" class="st2" d="M-62.1,288.7l-4.7,6.9l10.1,7l2.6-3.7
				c0.5-0.7,0.8-1.3,1-1.8s0.2-1.1,0.2-1.7c0-0.5-0.2-1-0.5-1.5l0,0c-0.3-0.5-0.7-0.9-1.2-1.2c-0.5-0.3-1-0.6-1.5-0.7l0,0
				c-0.5-0.1-1-0.1-1.6,0.1c-0.6,0.2-1.1,0.5-1.4,0.9c-0.4,0.4-0.8,0.9-1.3,1.6l-1.5,2.2l-2.5-1.7l3.7-5.3L-62.1,288.7L-62.1,288.7z
				 M-57,293.9c0.1,0,0.3,0,0.4,0c0.3,0.1,0.6,0.2,0.9,0.4c0.3,0.2,0.6,0.5,0.7,0.7c0.1,0.2,0.2,0.5,0.2,0.9c0,0.3-0.1,0.7-0.2,1
				l0,0c-0.2,0.3-0.4,0.8-0.8,1.4L-57,300l-3.5-2.4l1.2-1.8c0.4-0.6,0.7-1,1-1.3c0.2-0.3,0.5-0.5,0.8-0.6l0,0
				C-57.3,294-57.2,293.9-57,293.9L-57,293.9z"/>
			<path id="path5244" inkscape:connector-curvature="0" class="st2" d="M-57.7,281.6l-1.2,2l8.3,10.2l1-1.7l-2.3-2.7l2.6-4.3
				l3.5,0.7l1-1.7H-45L-57.7,281.6L-57.7,281.6z M-56.6,283.6l5.5,1.1L-53,288L-56.6,283.6z"/>
			<path id="path5246" inkscape:connector-curvature="0" class="st2" d="M-50.5,268.1L-54,275l0.1,0.1c0.6,0.3,1.3,0.7,2.1,1.2
				c0.8,0.4,1.4,0.8,1.8,1l0,0c1.4,0.8,2.5,1.5,3.2,2s1.1,1.1,1.3,1.5l0,0l0,0c0,0.1,0.1,0.3,0,0.4c0,0.2-0.1,0.3-0.2,0.5
				c0,0.1-0.1,0.1-0.1,0.2s-0.1,0.1-0.1,0.2l0,0l-0.1,0.2l1.7,0.8l0.1-0.1c0-0.1,0.1-0.2,0.2-0.3l0,0c0.1-0.1,0.1-0.3,0.2-0.4
				c0.2-0.3,0.3-0.7,0.3-1l0,0c0-0.3,0-0.6-0.1-1c-0.1-0.3-0.2-0.7-0.4-1s-0.5-0.7-0.8-1c-0.4-0.4-0.9-0.8-1.5-1.2
				c-0.6-0.4-1.4-0.9-2.5-1.5c-0.4-0.2-0.9-0.5-1.4-0.8l0,0c-0.5-0.3-1-0.5-1.4-0.8l1.8-3.6l9.5,4.8l0.9-1.7l-0.1-0.1L-50.5,268.1
				L-50.5,268.1z"/>
			<path id="path5248" inkscape:connector-curvature="0" class="st2" d="M-44.8,256.9L-44.8,256.9c-0.7,0.6-1.3,1.2-1.7,1.7
				s-0.7,1.1-1,1.7c-0.3,0.8-0.5,1.6-0.6,2.4c0,0.8,0.1,1.5,0.4,2.2c0.3,0.7,0.8,1.4,1.4,1.9c0.6,0.6,1.4,1.1,2.3,1.4
				c1,0.4,1.9,0.6,2.8,0.7c0.9,0,1.6-0.1,2.3-0.4s1.3-0.7,1.8-1.3l0,0l0,0c0.5-0.6,0.9-1.3,1.3-2.1c0.2-0.4,0.3-0.8,0.4-1.2l0,0
				c0.1-0.4,0.1-0.8,0.2-1.1c0-0.4,0-0.7,0-1s0-0.6,0-0.9l-0.1,0.1l0,0l0.1-0.3l-1.9-0.8l-0.1,0.3v0.1c0.3,0.7,0.4,1.4,0.4,2.1
				s-0.2,1.4-0.5,2.1c-0.2,0.5-0.5,0.9-0.8,1.3c-0.4,0.4-0.8,0.6-1.3,0.8c-0.5,0.2-1,0.3-1.7,0.2c-0.6,0-1.3-0.2-2.1-0.5
				c-0.7-0.3-1.3-0.7-1.8-1.1l0,0c-0.5-0.4-0.8-0.9-1-1.3c-0.2-0.5-0.3-1-0.3-1.5l0,0c0-0.5,0.1-1,0.3-1.6c0.3-0.7,0.7-1.2,1.1-1.7
				c0.5-0.5,1.1-0.9,1.8-1.3l0,0l0.1-0.3L-44.8,256.9L-44.8,256.9z"/>
			<path id="path5250" inkscape:connector-curvature="0" class="st2" d="M-42,245.9l-0.3,0.7c-0.3,0.9-0.4,1.7-0.2,2.4l0,0
				c0.2,0.6,0.7,1.3,1.4,1.9l0,0c0.2,0.2,0.4,0.3,0.6,0.5l0,0c0.2,0.2,0.3,0.3,0.4,0.4c0.3,0.3,0.5,0.5,0.6,0.8s0.2,0.5,0.3,0.7l0,0
				l0,0c0.1,0.2,0.1,0.5,0,0.7c0,0.2-0.1,0.4-0.1,0.6l-5.1-1.7l-0.6,1.8l11.7,4l0.6-1.8l-5.2-1.8l0.3-0.8l6.8-2.9l0.8-2.3l-0.3,0.1
				l-7.6,3.2c-0.1-0.5-0.2-0.9-0.4-1.3c-0.2-0.4-0.7-0.9-1.2-1.4l0,0c-0.3-0.2-0.5-0.4-0.7-0.6c-0.2-0.2-0.3-0.4-0.4-0.5l0,0l0,0
				c-0.1-0.2-0.1-0.4-0.1-0.6l0,0l0,0c0-0.2,0.1-0.5,0.2-0.8l0.3-0.8L-42,245.9L-42,245.9z"/>
			<path id="path5252" inkscape:connector-curvature="0" class="st2" d="M-38.9,234.5l-0.5,1.9l7.4,7.8l-8.8-2.3l-0.5,1.8l11.9,3.1
				l0.5-1.8l-7.5-7.9l9,2.3l0.5-1.8H-27L-38.9,234.5L-38.9,234.5z"/>
		</g>
		<g id="g5771">
			<path id="path5254" inkscape:connector-curvature="0" class="st2" d="M-34.8,216.2L-34.8,216.2c-0.6,0.8-0.9,1.5-1.2,2.1
				s-0.4,1.3-0.5,1.9c-0.1,0.9-0.1,1.7,0.1,2.5c0.2,0.8,0.5,1.5,0.9,2.1c0.5,0.6,1.1,1.1,1.8,1.5s1.6,0.7,2.6,0.8c1,0.2,2,0.1,2.8,0
				c0.8-0.2,1.6-0.5,2.2-0.9c0.6-0.5,1.1-1,1.5-1.7l0,0c0.4-0.7,0.6-1.5,0.7-2.3c0.1-0.5,0.1-0.9,0.1-1.3l0,0c0-0.4,0-0.8-0.1-1.1
				l0,0c-0.1-0.4-0.1-0.7-0.2-1c-0.1-0.2-0.2-0.5-0.2-0.8v-0.1l-2.1-0.3v0.3l0,0c0.4,0.6,0.7,1.3,0.9,2c0.2,0.7,0.2,1.4,0.1,2.1
				c-0.1,0.5-0.2,1-0.5,1.5c-0.3,0.4-0.6,0.8-1,1.1s-0.9,0.5-1.5,0.6c-0.6,0.1-1.3,0.1-2.2,0c-0.8-0.1-1.5-0.3-2-0.6
				c-0.6-0.3-1-0.6-1.3-1s-0.6-0.9-0.7-1.4l0,0c-0.1-0.5-0.1-1-0.1-1.6c0.1-0.7,0.3-1.4,0.7-2c0.3-0.6,0.8-1.2,1.5-1.7l0,0v-0.3
				L-34.8,216.2L-34.8,216.2z"/>
			<path id="path5256" inkscape:connector-curvature="0" class="st2" d="M-22.5,205.1l-0.2,0.1l-12.4,3.5l-0.2,2.3l11.9,5.4l0.2-1.9
				l-3.2-1.4l0.4-5l3.4-0.9L-22.5,205.1L-22.5,205.1z M-27.8,208.5l-0.3,3.8l-5.1-2.3L-27.8,208.5z"/>
			<path id="path5258" inkscape:connector-curvature="0" class="st2" d="M-26.2,193.3c-0.9,0-1.6,0.2-2.2,0.7
				c-0.5,0.4-0.8,1.1-1,1.8c-0.2-0.4-0.5-0.8-0.9-1.1s-0.9-0.5-1.5-0.5c-0.5,0-1,0.1-1.4,0.3c-0.4,0.2-0.7,0.6-1,1l0,0
				c-0.2,0.4-0.4,0.8-0.4,1.3c-0.1,0.4-0.1,1.1-0.1,2v3.7l12.3,0.1v-4.4c0-0.8-0.1-1.5-0.2-2.1c-0.2-0.6-0.4-1.1-0.8-1.6
				c-0.3-0.4-0.7-0.7-1.2-1c-0.4-0.2-0.9-0.3-1.5-0.3l0,0L-26.2,193.3L-26.2,193.3z M-26.1,195.3c0.4,0,0.7,0.1,1,0.2
				c0.2,0.1,0.5,0.3,0.7,0.6s0.3,0.6,0.4,1s0.1,1,0.1,1.7v2h-4.2v-2.4c0-0.5,0-1,0.1-1.3l0,0c0-0.4,0.1-0.7,0.2-0.9
				c0.2-0.4,0.4-0.6,0.7-0.7C-26.9,195.4-26.6,195.3-26.1,195.3L-26.1,195.3z M-31.6,196.3c0.3,0,0.6,0.1,0.9,0.2l0,0
				c0.2,0.1,0.4,0.2,0.5,0.5c0.1,0.2,0.2,0.5,0.3,0.8c0,0.3,0.1,0.7,0.1,1.2v1.9H-33v-1.8c0-0.5,0-1,0.1-1.3l0,0
				c0-0.3,0.1-0.6,0.3-0.9c0.1-0.2,0.3-0.3,0.4-0.4C-32.1,196.3-31.9,196.3-31.6,196.3L-31.6,196.3z"/>
			<path id="path5260" inkscape:connector-curvature="0" class="st2" d="M-23.2,182.3l-1.4,0.1l0.4,6.3l-4.2,0.2l-0.4-6.3l-1.7,0.1
				l0.4,6.3l-3,0.2l-0.4-6.3l-1.7,0.1l0.5,8.2l12.3-0.7l-0.4-8.1l0,0h-0.3L-23.2,182.3L-23.2,182.3z"/>
			<path id="path5262" inkscape:connector-curvature="0" class="st2" d="M-27.4,171.6c-0.1,0-0.3,0-0.4,0c-0.6,0.1-1,0.2-1.4,0.4
				c-0.3,0.2-0.6,0.5-0.8,0.8c-0.2,0.3-0.3,0.6-0.4,1c-0.1,0.3-0.1,0.5-0.1,0.7c-0.2-0.6-0.6-1.1-1-1.4c-0.6-0.4-1.2-0.6-1.9-0.5
				c-0.5,0.1-0.9,0.2-1.3,0.5c-0.4,0.3-0.6,0.7-0.9,1.1l0,0l0,0c-0.2,0.4-0.3,0.9-0.4,1.4c-0.1,0.5,0,1.1,0,1.7
				c0.1,0.7,0.2,1.4,0.5,2c0.2,0.7,0.4,1.2,0.7,1.6v0.1l2-0.2v-0.3l0,0c-0.1-0.1-0.2-0.3-0.4-0.5s-0.3-0.5-0.4-0.7l0,0
				c-0.1-0.3-0.3-0.6-0.4-1c-0.1-0.3-0.2-0.7-0.2-1.1c0-0.4-0.1-0.7,0-1l0,0c0-0.3,0.1-0.6,0.2-0.8l0,0l0,0c0.1-0.2,0.2-0.4,0.4-0.6
				l0,0l0,0c0.2-0.2,0.4-0.2,0.7-0.3c0.6-0.1,1.1,0.1,1.4,0.6c0.4,0.5,0.6,1.2,0.7,2.1l0.2,1.6l1.7-0.2l-0.2-1.8
				c-0.1-0.5-0.1-0.9,0-1.3l0,0c0-0.4,0.1-0.7,0.2-1s0.3-0.5,0.5-0.7l0,0c0.2-0.2,0.5-0.3,0.9-0.3c0.4,0,0.7,0,1,0.1
				s0.6,0.2,0.8,0.5c0.2,0.2,0.4,0.6,0.6,1s0.3,0.8,0.3,1.2c0.1,0.6,0,1.2-0.1,1.9s-0.3,1.3-0.6,1.8l0,0v0.3l2-0.2V180
				c0.1-0.4,0.2-1,0.3-1.7l0,0c0.1-0.7,0.1-1.5,0-2.2s-0.3-1.4-0.5-2c-0.3-0.6-0.6-1.1-1-1.5c-0.4-0.3-0.8-0.6-1.3-0.8l0,0
				C-26.6,171.7-27,171.6-27.4,171.6L-27.4,171.6z"/>
		</g>
	</g>
</g>
</svg>
