<?xml version="1.0" encoding="utf-8"?>
<!-- Generator: Adobe Illustrator 26.0.2, SVG Export Plug-In . SVG Version: 6.00 Build 0)  -->
<svg version="1.1" id="Calque_1" xmlns="http://www.w3.org/2000/svg" xmlns:xlink="http://www.w3.org/1999/xlink" x="0px" y="0px"
	 width="409px" height="586px" viewBox="0 0 409 586" style="enable-background:new 0 0 409 586;" xml:space="preserve">
<style type="text/css">
	.st0{fill:#0B2775;}
	.st1{fill:#FFE611;}
	.st2{fill:#008837;}
	.st3{fill:#FFFFFF;}
</style>
<g>
	<path class="st0" d="M100.8,135.3L100.8,135.3l-0.1,0.1c-23.3,26.3-56.4,48.5-96,64.1L0.9,201l3,2.8c24.3,23,37.7,53.7,37.7,86.3
		v129.5v0.1c3.4,50,40.5,94.9,99.4,120.2c25.1,10.5,46.4,25.3,61.6,43l2,2.3l2-2.3c15.3-17.6,36.6-32.5,61.6-43
		c58.9-25.3,96-70.3,99.4-120.2v-0.1V290.1c0-32.6,13.4-63.3,37.7-86.3l3-2.8l-3.8-1.5c-39.5-15.6-72.7-37.8-96-64.1l-0.1-0.1
		l-0.1-0.1c-28.2-27.1-65.1-42.3-103.8-42.5C165.9,93,129,108.1,100.8,135.3z"/>
	<path class="st1" d="M304.7,139.1c-27.2-26.2-62.8-40.8-100.1-41c-37.3,0.2-72.9,14.8-100.1,41c-23,26-55.6,48-94.2,63.7
		c23.5,23.7,36.5,54.5,36.5,87.3c0,0,0,129,0,129.3c3.2,48,39.2,91.2,96.2,115.7c24.8,10.3,45.9,24.9,61.6,42.3
		c15.6-17.4,36.8-32,61.6-42.3c57-24.6,93-67.8,96.2-115.7c0-0.3,0-129.3,0-129.3c0-32.8,13-63.6,36.5-87.3
		C360.2,187,327.7,165.1,304.7,139.1z"/>
	<path class="st0" d="M302.4,393.9l-36-37.4h-26.7v26.7l37.4,36.1v6.6h-28.3v92.7c10.3-4.8,20.7-9.4,30.6-15.1
		c16.6-10.2,30.6-21.9,42.5-37.5c10.3-14.7,16.7-29.6,18.3-47.6v-52.8H309v28.2H302.4z"/>
	<path class="st0" d="M106.8,249.1l36,37.4h26.7v-26.7l-37.3-36.1v-6.6h28.2v-88.1c-14.6,5.8-28,14.4-40,25.6
		c-21,23.3-47.1,42.4-74.9,56.6c13.2,20,20.7,42.6,22.9,66.2h31.8v-28.3H106.8z"/>
	<path class="st0" d="M277,223.7l-37.4,36.1v26.7h26.7l36-37.4h6.6v28.3h31.8c2.2-23.6,9.7-46.2,22.9-66.2
		c-21.6-11-41.7-24.9-59.7-41.2c-7.9-7.4-15-15.6-23.4-22.5c-9.9-7.7-20.5-14-31.8-18.5v88.1H277L277,223.7L277,223.7L277,223.7z"/>
	<path class="st0" d="M132.2,419.3l37.3-36.1v-26.7h-26.7l-36,37.4h-6.6v-28.2H69l0.1,52.8c0.9,9.8,3.1,18.4,6.8,27.6
		c14.2,31.4,40.8,52.1,71.3,66.7l7.1,3.1c2.1,0.9,4.1,1.9,6.2,2.8v-92.7h-28.2V419.3z"/>
	<polygon class="st2" points="124.4,51.8 115.2,23.4 106,51.8 76.2,51.8 100.2,69.3 91.1,97.7 115.2,80.2 139.3,97.7 130.1,69.3 
		154.2,51.8 	"/>
	<polygon class="st2" points="333,51.8 303.1,51.8 293.9,23.4 284.8,51.8 255,51.8 279.1,69.3 269.9,97.7 293.9,80.2 318,97.7 
		308.9,69.3 	"/>
	<polygon class="st2" points="405.4,109.4 375.6,109.4 366.4,81 357.1,109.4 327.3,109.4 351.5,126.9 342.2,155.3 366.4,137.7 
		390.5,155.3 381.3,126.9 	"/>
	<polygon class="st2" points="52,109.4 42.8,81 33.6,109.4 3.8,109.4 27.9,126.9 18.7,155.3 42.8,137.7 66.9,155.3 57.7,126.9 
		81.8,109.4 	"/>
	<polygon class="st2" points="213.7,28.5 204.6,0.1 195.4,28.5 165.6,28.5 189.7,46 180.5,74.4 204.6,56.8 228.6,74.4 219.5,46 
		243.5,28.5 	"/>
	<path class="st2" d="M181.1,529.7c8.2,5,16.1,10.6,23.5,16.8c7.3-6.3,15.2-11.8,23.5-16.8V425.9h-46.9V529.7z"/>
	<path class="st2" d="M228,122.7c-8.6-1.7-17.4-2.6-26.4-2.4c-7.1,0.4-13.9,1.2-20.6,2.5v94.2H228V122.7z"/>
	<rect x="69" y="298.1" class="st2" width="31.2" height="46.9"/>
	<rect x="309" y="298.1" class="st2" width="31.1" height="46.9"/>
	<polygon class="st3" points="302.4,249.1 266.4,286.5 239.6,286.5 239.6,259.8 277,223.7 277,217.1 132.2,217.1 132.2,223.7 
		169.5,259.8 169.5,286.5 142.8,286.5 106.8,249.1 100.2,249.1 100.2,393.9 106.8,393.9 142.8,356.5 169.5,356.5 169.5,383.2 
		132.2,419.3 132.2,425.9 277,425.9 277,419.3 239.6,383.2 239.6,356.5 266.4,356.5 302.4,393.9 309,393.9 309,249.1 	"/>
	<path class="st0" d="M157.3,303.5c3.8,0,6.5,1.2,8.4,3.5c1.2,1.2,2.3,3.1,3,5.8h10.7c-0.4-3.5-1.5-6.5-3.8-9.6
		c-3.8-5.8-10.4-8.8-19.2-8.8c-6.5,0-11.9,2.3-16.1,6.5c-4.6,5-7.3,11.9-7.3,20.6c0,8.4,2.3,14.9,6.5,19.9c4.2,5,10.4,7.3,17.6,7.3
		c12.2,0,20.2-8.1,22.2-19.2h-10.7c-0.7,2.7-1.9,4.6-3,6.1c-1.9,2.3-4.6,3.5-8.4,3.5c-7.7,0-13-5.8-13-17.2
		C144.2,310.4,149.2,303.5,157.3,303.5z"/>
	<polygon class="st0" points="276,304.7 276,295.5 239.3,295.5 239.3,347.1 250,347.1 250,325.3 273,325.3 273,316.6 250,316.6 
		250,304.7 	"/>
	<path class="st0" d="M222.1,319.2c1.9-0.7,3-1.9,4.2-2.7c1.6-1.9,2.3-4.6,2.3-7.6c0-3.1-0.7-5.8-2.3-8.1c-2.7-3.5-7.3-5.3-13.4-5.3
		h-25.1v51.6h23.3c5.3,0,9.9-0.7,13.4-3.5c1.5-1.2,2.7-2.2,3.5-3.8c1.5-2.7,2.3-5.3,2.3-8.4C230.2,325.7,227.5,321.1,222.1,319.2z
		 M198.1,304.3h11.4c2.2,0,4.2,0.4,6.1,0.8c1.9,0.7,2.7,2.3,2.7,5c0,4.2-3.1,5.7-7.6,5.7h-12.6V304.3z M216,337.2
		c-1.2,0.8-3.1,0.8-5.3,0.8h-12.6v-13.8h12.6c2.2,0,4.2,0.4,5.3,1.2c2.3,0.8,3.5,2.7,3.5,5.4C219.5,334.1,218.3,336,216,337.2z"/>
</g>
</svg>
