<?xml version="1.0" encoding="utf-8"?>
<!-- Generator: Adobe Illustrator 26.0.2, SVG Export Plug-In . SVG Version: 6.00 Build 0)  -->
<svg version="1.1"
	 id="svg2" xmlns:cc="http://creativecommons.org/ns#" xmlns:dc="http://purl.org/dc/elements/1.1/" xmlns:inkscape="http://www.inkscape.org/namespaces/inkscape" xmlns:rdf="http://www.w3.org/1999/02/22-rdf-syntax-ns#" xmlns:sodipodi="http://sodipodi.sourceforge.net/DTD/sodipodi-0.dtd" xmlns:svg="http://www.w3.org/2000/svg"
	 xmlns="http://www.w3.org/2000/svg" xmlns:xlink="http://www.w3.org/1999/xlink" x="0px" y="0px" width="809.5px" height="980.7px"
	 viewBox="0 0 809.5 980.7" style="enable-background:new 0 0 809.5 980.7;" xml:space="preserve">
<style type="text/css">
	.st0{clip-path:url(#SVGID_00000133499179825309936580000013419692910777431461_);}
	.st1{fill:#231F20;}
	.st2{clip-path:url(#SVGID_00000152247174714728562440000008646282411466826665_);}
	.st3{fill:#ED1C24;}
	.st4{fill:#FFFFFF;}
	.st5{fill:none;stroke:#231F20;stroke-width:3.2846;stroke-miterlimit:23.8016;}
</style>
<sodipodi:namedview  bordercolor="#666666" borderopacity="1.0" fit-margin-bottom="0" fit-margin-left="0" fit-margin-right="0" fit-margin-top="0" id="base" inkscape:current-layer="g2993" inkscape:cx="-2.3614356" inkscape:cy="-404.36607" inkscape:document-units="px" inkscape:pageopacity="0.0" inkscape:pageshadow="2" inkscape:window-height="403" inkscape:window-maximized="0" inkscape:window-width="511" inkscape:window-x="212" inkscape:window-y="150" inkscape:zoom="0.175" pagecolor="#ffffff" showgrid="false">
	</sodipodi:namedview>
<g id="layer1" transform="translate(-195.98746,-75.280537)" inkscape:groupmode="layer" inkscape:label="Calque 1">
	<g id="g2993" transform="matrix(1.25,0,0,-1.25,2.953125,1077.1482)" inkscape:label="dijon brest">
		<g id="g3753" transform="matrix(19.041284,0,0,19.041284,-493.35701,-6808.9453)">
			<g>
				<defs>
					<polygon id="SVGID_1_" points="34,358.5 68,358.5 68,399.7 34,399.7 34,358.5 					"/>
				</defs>
				<clipPath id="SVGID_00000052826609150009243590000016864049220303992724_">
					<use xlink:href="#SVGID_1_"  style="overflow:visible;"/>
				</clipPath>
				<g id="g3755" style="clip-path:url(#SVGID_00000052826609150009243590000016864049220303992724_);">
					<g id="g3761" transform="translate(51.0195,398.2864)">
						<path id="path3763" inkscape:connector-curvature="0" class="st1" d="M0,0c-0.7,0-3.5,0.2-5.7,1.4C-9.9-1.5-11.8-2.6-17-4
							c0.2-4.5,0-24.7,17-35.8l0,0l0,0C17.2-28.7,16.8-8.4,17-4c-5.2,1.4-7,2.4-11.2,5.4C3.7,0.2,0.7,0,0,0"/>
					</g>
				</g>
			</g>
		</g>
		<g id="g3765" transform="matrix(19.041284,0,0,19.041284,-493.35701,-6808.9453)">
			<g>
				<defs>
					<polygon id="SVGID_00000013895386371956839200000009599902230374125700_" points="34,354.3 68,354.3 68,399.7 34,399.7 
						34,354.3 					"/>
				</defs>
				<clipPath id="SVGID_00000016766847298635442420000014237802993704560012_">
					<use xlink:href="#SVGID_00000013895386371956839200000009599902230374125700_"  style="overflow:visible;"/>
				</clipPath>
				<g id="g3767" style="clip-path:url(#SVGID_00000016766847298635442420000014237802993704560012_);">
					<g id="g3773" transform="translate(67.0794,393.6371)">
						<path id="path3775" inkscape:connector-curvature="0" class="st3" d="M0,0c-5,1.3-6.4,2.3-10.4,5.1C-12.5,4-15.2,4-15.9,4v0
							L-16,4L-16,4v0c-0.7,0-3.3,0-5.5,1.1c-4-2.8-5.4-3.8-10.4-5.1c0.2-4.3-0.5-23.9,15.9-34.7l0,0l0,0C0.5-23.9-0.2-4.3,0,0"/>
					</g>
					<g id="g3777" transform="translate(66.3045,392.909)">
						<path id="path3779" inkscape:connector-curvature="0" class="st4" d="M0,0c-4.7,1.2-6,2.2-9.8,4.8c-2-1.1-4.5-1.1-5.2-1v0
							l-0.1,0l-0.1,0v0c-0.6,0-3.2,0-5.2,1c-3.8-2.7-5.1-3.6-9.8-4.8c0.2-4.1-0.5-22.6,15-32.7l0,0l0,0C0.4-22.6-0.2-4.1,0,0"/>
					</g>
					<g id="g3781" transform="translate(66.0893,392.8485)">
						<path id="path3783" inkscape:connector-curvature="0" class="st3" d="M0,0c-4.6,1.2-5.9,2.1-9.7,4.6c-2-1-4.5-1-5.1-1v0
							l-0.1,0l-0.1,0v0c-0.6,0-3.1,0-5.1,1c-3.8-2.5-5-3.4-9.7-4.6c0.2-3.9-0.4-21.3,14.8-30.9V-31l0,0l0,0v0C0.4-21.3-0.2-3.9,0,0"
							/>
					</g>
					<g id="g3785" transform="translate(52.9892,364.5672)">
						<path id="path3787" inkscape:connector-curvature="0" class="st1" d="M0,0C0,0,0,0,0,0C0,0,0,0,0,0L0,0 M-0.3-0.1
							c-0.1,0-0.3,0.1-0.4,0.2c-0.1,0.1-0.1,0.3-0.1,0.4c0,0.1,0.1,0.3,0.3,0.3c0.1,0,0.3-0.1,0.4-0.2C-0.1,0.4,0,0.3,0,0.1
							C0,0-0.1-0.1-0.3-0.1 M-0.4,0.8C-0.8,0.8-1,0.6-1,0.3c0,0,0-0.1,0-0.1v0c0,0,0,0,0,0c0-0.2,0.3-0.4,0.5-0.4c0.1,0,0.1,0,0.1,0
							c0.3,0,0.6,0.3,0.6,0.6C0.2,0.6-0.1,0.8-0.4,0.8 M-1.4-0.5C-1.4-0.5-1.4-0.5-1.4-0.5C-1.4-0.5-1.4-0.5-1.4-0.5
							C-1.4-0.5-1.4-0.5-1.4-0.5 M-1.6,0.3c0,0-0.1,0-0.2,0c0,0,0,0,0,0c0,0,0,0,0,0.1c0,0.1,0,0.1,0,0.2c0,0,0.1,0,0.2,0
							c0.1,0,0.2,0,0.3,0c0,0,0,0,0.1,0c0,0,0.1,0,0.1,0.1c0,0,0,0.1,0.1,0.2c0,0,0,0,0,0c0,0,0,0,0,0c0,0,0,0,0,0
							c-0.1-0.1-0.1-0.1-0.2-0.1h-0.5c-0.1,0-0.1,0-0.1-0.1c0-0.2,0-0.3-0.1-0.4c0-0.1,0-0.1,0-0.2c0,0,0-0.1,0.1-0.1c0,0,0,0,0,0
							c0.1,0,0.2,0,0.2,0c0.2,0,0.3-0.1,0.4-0.3c0,0,0,0,0,0c0,0,0,0,0,0c0,0,0,0,0,0c0,0,0,0,0,0c-0.1-0.1-0.2-0.2-0.4-0.2
							c-0.1,0-0.2,0-0.3,0.1c0,0,0,0,0,0c0,0,0,0,0,0c0-0.1,0.2-0.1,0.4-0.1C-1.3-0.6-1-0.4-1-0.1C-1,0.1-1.2,0.3-1.6,0.3 M-2.6,0
							c-0.2,0-0.4,0.2-0.4,0.4c0,0.2,0.1,0.3,0.3,0.3c0.2,0,0.4-0.2,0.4-0.5C-2.3,0.2-2.4,0-2.6,0 M-2.5,0.8
							C-2.5,0.8-2.5,0.8-2.5,0.8C-2.5,0.8-2.5,0.8-2.5,0.8C-2.5,0.8-2.5,0.8-2.5,0.8 M-2.1,0.7c-0.1,0.1-0.3,0.2-0.5,0.2
							c-0.2,0-0.4-0.1-0.5-0.2c-0.1-0.1-0.1-0.2-0.1-0.3c0-0.2,0.2-0.4,0.5-0.4c0.1,0,0.2,0,0.4,0.1c0,0,0,0,0.1,0c0,0,0,0,0,0
							c0,0-0.1-0.2-0.1-0.2C-2.6-0.4-2.8-0.5-3-0.6c0,0-0.1,0-0.1,0c0,0,0,0,0.1,0c0.2,0,0.4,0.1,0.6,0.2C-2.2-0.3-2,0-2,0.3
							C-2,0.4-2,0.6-2.1,0.7 M-3-0.2C-3-0.2-3-0.2-3-0.2c-0.2,0-0.3,0.1-0.3,0.3v0.5c0,0.1,0,0.2,0,0.2c0,0,0,0,0,0.1c0,0,0,0,0,0
							c0,0,0,0,0,0c-0.1-0.1-0.2-0.1-0.3-0.1c-0.2,0-0.2,0-0.2-0.1c0,0,0,0,0,0c0,0,0,0,0,0c0,0,0.1,0,0.1,0c0,0,0.1,0,0.1,0l0,0
							c0,0,0,0,0,0l0-0.2V0c0,0,0,0,0,0l0-0.1c0,0-0.1-0.1-0.1-0.1c-0.1,0-0.1,0-0.1,0c0,0,0,0,0.1,0c0,0,0,0,0.1,0
							c0.1,0,0.2,0,0.3,0C-3.3-0.2-3.2-0.2-3-0.2C-3.1-0.2-3.1-0.2-3-0.2C-3-0.2-3-0.2-3-0.2"/>
					</g>
					<g id="g3789" transform="translate(53.985,392.5682)">
						<path id="path3791" inkscape:connector-curvature="0" class="st1" d="M0,0c0,0-1.2,0.7-1.5-0.2c0,0,0-0.1,0-0.1c0,0,0,0,0,0
							l0,0c0,0,0,0,0,0l0,0c0,0,0,0,0,0c0,0,0-0.1,0-0.1C-1.2-1.4,0-0.9,0-0.9c0.6,0.2,1,0.3,1.1,0.4l0,0C1.1-0.5,0.6-0.3,0,0
							 M-2.6,0.7c0,0,0.1,0,0.1,0c0,0,0,0,0,0v0c0,0,0,0,0,0v0c0,0,0,0,0,0c0,0,0.1,0,0.1,0c1,0.2,0.3,1.4,0.3,1.4
							c-0.3,0.6-0.5,1.1-0.5,1.1v0c0-0.1-0.2-0.5-0.4-1C-2.8,2.2-3.4,1.1-2.6,0.7 M-3.2-0.5c0,0,0,0.1,0,0.1c0,0,0,0,0,0l0,0
							c0,0,0,0,0,0h0c0,0,0,0,0,0c0,0.1,0,0.1,0,0.2c-0.3,0.9-1.5,0.3-1.5,0.3c-0.6-0.3-1.1-0.4-1.1-0.4l0,0c0.1,0,0.5-0.2,1.1-0.5
							C-4.7-0.7-3.5-1.3-3.2-0.5 M-2.4-0.1L-2.4-0.1C-2.4,0-2.4,0-2.4-0.1c0,0.1,0,0.2,0,0.2L-2.4-0.1c-0.1-0.8-0.4-4-2.7-5.6l0.5,0
							C-4-5.8-2.9-6.3-2.5-8.5c0,0,0,0.1,0,0.1l0,0v0C-2.2-7.8-1.5-5.7,0-5.8C-2-4-2.3-0.8-2.4-0.1"/>
					</g>
					<g id="g3793" transform="translate(51.6682,392.5005)">
						<path id="path3795" inkscape:connector-curvature="0" class="st1" d="M0,0C0,0,0,0,0,0c0,0.1-0.1,0.1-0.1,0c0,0,0,0,0,0L0,0
							c0,0.1,0,0.1,0,0.2c0,0.1-0.1,0.1-0.1,0c0-2.1-1-4.4-2.7-5.7c0,0,0-0.1,0-0.1C-1.2-5.7-0.5-7-0.2-8.5c0-0.1,0.1-0.1,0.1,0
							c0,0,0,0.1,0,0.1h-0.1c0,0,0,0,0,0c0-0.1,0.1-0.1,0.1,0c0,0.4,0.4,1,0.6,1.4c0.4,0.6,1,1.2,1.8,1.1c0.1,0,0.1,0.1,0,0.1
							C0.8-4.3,0.1-2.1,0,0c0,0.1-0.1,0.1-0.1,0C0-1.8,0.5-3.6,1.6-5c0.2-0.2,0.3-0.4,0.5-0.6c0.1-0.1,0.2-0.1,0-0.1
							c-0.1,0-0.2,0-0.3,0c-0.4-0.1-0.7-0.4-1-0.7C0.5-6.7,0.3-7.1,0.1-7.5C0-7.7-0.2-8.1-0.2-8.3c0,0,0.1,0,0.1,0c0,0,0,0,0,0
							c0,0.1-0.1,0.1-0.1,0c0,0,0-0.1,0-0.1h0.1c-0.3,1.5-1,2.8-2.7,2.9c0,0,0-0.1,0-0.1C-1-4.3,0-2,0,0.2h-0.1c0,0,0-0.1,0-0.1
							C-0.1-0.1,0-0.1,0,0C0,0,0,0,0,0l-0.1,0c0,0,0,0,0,0C-0.1-0.1,0-0.1,0,0"/>
					</g>
					<g id="g3797" transform="translate(50.8481,392.0586)">
						<path id="path3799" inkscape:connector-curvature="0" class="st1" d="M0,0C0,0.1,0,0.1,0,0.2c0,0,0,0.1-0.1,0.1
							c0,0,0-0.1,0-0.1c0,0,0.1,0,0.1,0.1c-0.3,1.4-1.9,0.4-2.7,0.2c-0.1,0-0.1-0.1,0-0.1C-1.9,0.2-0.6-1.2,0,0c0,0.1-0.1,0.1-0.1,0
							C-0.6-1-2,0.3-2.6,0.4c0,0,0-0.1,0-0.1c0.4,0.1,0.8,0.3,1.2,0.5C-1.2,0.8-1,0.8-0.8,0.8c0.1,0,0.3,0,0.4-0.1
							c0.1-0.1,0.2-0.2,0.3-0.4c0-0.2,0-0.2,0.1-0.1c0,0-0.1,0-0.1-0.1c0,0,0,0,0,0c0,0,0-0.1,0.1-0.1C-0.1,0.2-0.1,0.2-0.1,0
							C-0.1,0,0-0.1,0,0"/>
					</g>
					<g id="g3801" transform="translate(51.4124,393.2392)">
						<path id="path3803" inkscape:connector-curvature="0" class="st1" d="M0,0c0.1,0,0.1,0,0.2-0.1c0,0,0.1,0,0.1,0.1
							c0,0-0.1,0-0.1,0c0,0,0-0.1,0.1-0.1c1.5,0.2,0.3,1.9,0,2.6c0,0.1-0.1,0.1-0.1,0c0-0.3-0.3-0.7-0.4-1c-0.1-0.1-0.1-0.3-0.2-0.4
							C-0.6,0.7-0.5,0.2,0,0c0.1,0,0.1,0.1,0,0.1c-1.1,0.5,0.2,1.7,0.2,2.5c0,0-0.1,0-0.1,0c0.1-0.4,0.3-0.8,0.5-1.2
							C0.7,1.2,0.8,1,0.8,0.8c0-0.2,0-0.4-0.1-0.5C0.6,0.1,0.3,0.1,0.3,0c0,0,0,0.1-0.1,0.1c0,0,0,0,0,0c0,0-0.1,0-0.1-0.1
							c0.1,0.1,0,0.1-0.1,0.1C0,0.1-0.1,0,0,0"/>
					</g>
					<g id="g3805" transform="translate(54.0156,392.6203)">
						<path id="path3807" inkscape:connector-curvature="0" class="st1" d="M0,0c-0.6,0.4-1.4,0.4-1.6-0.4c0,0,0-0.1,0.1-0.1
							c0,0,0,0.1,0,0.1c0,0-0.1,0-0.1-0.1c0.3-1.5,1.9-0.1,2.7-0.2c0.1,0,0.1,0.1,0,0.1C0.7-0.4,0.3-0.2,0,0c-0.1,0-0.1-0.1-0.1-0.1
							c0.4-0.2,0.7-0.4,1.1-0.5c0,0,0,0.1,0,0.1c-0.4,0-0.9-0.3-1.2-0.4C-0.3-1-0.5-1-0.7-1C-0.8-1-1-1-1.1-1
							c-0.2,0.1-0.3,0.1-0.3,0.3c0,0.2,0,0.3-0.1,0.2c0,0,0.1,0,0.1,0.1c0,0,0,0,0,0c0,0,0,0.1-0.1,0.1c0.1,0,0.2,0.3,0.4,0.5
							c0.2,0.1,0.4,0.1,0.6,0c0.2,0,0.4-0.1,0.5-0.2C0-0.1,0.1,0,0,0"/>
					</g>
					<g id="g3809" transform="translate(54.1104,392.6807)">
						<path id="path3811" inkscape:connector-curvature="0" class="st4" d="M0,0c0,0-1.2,0.7-1.5-0.2c0,0,0-0.1,0-0.1c0,0,0,0,0,0h0
							c0,0,0,0,0,0l0,0c0,0,0,0,0,0c0,0,0-0.1,0-0.1C-1.2-1.4,0-0.9,0-0.9c0.6,0.2,1,0.4,1.1,0.4l0,0C1.1-0.5,0.6-0.3,0,0 M-2.6,0.7
							c0,0,0.1,0,0.1,0c0,0,0,0,0,0v0c0,0,0,0,0,0v0c0,0,0,0,0,0c0,0,0.1,0,0.1,0c1,0.2,0.3,1.4,0.3,1.4c-0.3,0.6-0.5,1.1-0.5,1.1v0
							c0-0.1-0.2-0.5-0.4-1C-2.8,2.2-3.4,1.1-2.6,0.7 M-5.4-0.2L-5.4-0.2L-5.4-0.2z M-3.2-0.5c0,0,0,0.1,0,0.1c0,0,0,0,0,0l0,0
							c0,0,0,0,0,0h0c0,0,0,0,0,0c0,0.1,0,0.1,0,0.2c-0.3,0.9-1.5,0.3-1.5,0.3c-0.6-0.3-1.1-0.4-1.1-0.4l0,0c0.1,0,0.5-0.2,1.1-0.5
							C-4.7-0.7-3.5-1.3-3.2-0.5 M-2.4-0.1L-2.4-0.1C-2.4,0-2.4,0-2.4-0.1c0,0.1,0,0.2,0,0.2L-2.4-0.1c-0.1-0.8-0.4-4-2.7-5.6l0.5,0
							C-4-5.8-2.9-6.3-2.5-8.5c0,0,0,0.1,0,0.1l0,0v0C-2.2-7.8-1.5-5.7,0-5.8C-2-4-2.3-0.8-2.4-0.1"/>
					</g>
					<g id="g3813" transform="translate(59.206,375.0772)">
						<path id="path3815" inkscape:connector-curvature="0" class="st1" d="M0,0c-0.3-0.2-0.6-0.4-1-0.6c-0.5-0.2-1-0.2-1.8-0.2
							c-2.3,0-3,0.4-3,1.5v2c0,0.5,0.3,0.6,1.5,0.6c1.9,0,3.2-0.2,4-0.7c0.7-0.5,0.8-1.1,0.9-1.3c0,0,0,0,0-0.1C0.6,0.7,0.3,0.3,0,0
							 M-5-5c-1.3,0-2.2,0.9-2.2,2.2c0,1,0.7,1.6,1.7,1.7c0.1,0,0.1,0,0.2,0c1.2-0.1,2.3-1.1,2.3-2.3C-3.1-4.4-3.9-5-5-5 M-5.7,6.6
							c0,0.5,0.6,0.8,1.7,0.8c2.1,0,3.7-1,3.7-2.2c0-0.8-0.8-1.3-2.1-1.3h-1.8c-1,0-1.5,0.3-1.5,0.8L-5.7,6.6L-5.7,6.6z M-17.5,4.3
							l0.6-0.4C-17.2,4-17.4,4.2-17.5,4.3 M1.2,3.5C0.7,3.6,0.3,3.7-0.5,3.8c1.6,0.3,2.5,1,2.5,1.8c0,0.8-0.8,1.6-2.2,1.9
							C-1,7.8-2.2,7.9-3.5,7.9c-0.4,0-0.8,0-1.1,0c-2.1-0.1-2.1-0.1-3-0.1c-0.5,0-0.9,0-1.1,0c-0.3,0-0.5,0-0.5,0.1c0,0,0,0,0,0
							c-0.4,0-0.4-0.1-0.4-0.3s0-0.2,0.4-0.2c0.4,0,0.6-0.1,0.8-0.2L-8.2,7l0.2-3.8V0.5c0-0.8-0.3-1.1-0.9-1.3C-9.6-1-9.7-1-9.7-1.1
							s0.1-0.2,0.4-0.2c0.1,0,0.1,0,0.6,0c0.4,0,1,0.1,1.7,0.1C-7.4-1.4-7.7-1.5-8-1.8c-0.5-0.5-0.8-1.1-0.8-1.8
							c0-0.4,0.1-0.8,0.3-1.1c0,0-0.1,0-0.1-0.1C-9-5-9.2-5.1-9.5-5.3c-0.4-0.1-1.1-0.2-1.7-0.2c-0.7,0-1.4,0.1-1.4,0.2
							c0,0,0,0.1,0.7,0.4c2.5,1.4,2.9,1.6,2.9,2.3c0,0.8-1.1,1.5-2.5,1.5c-0.1,0-0.3,0-0.4,0c1.6,0.5,2.6,1.5,2.6,2.6
							c0,1.3-1,2.1-3.1,2.8L-15,5c-1.2,0.4-1.8,0.8-1.8,1.3c0,0.8,1.1,1.4,2.4,1.4c1.8,0,3.7-1,4.1-2.3c0.1-0.3,0.2-0.4,0.4-0.4
							c0.2,0,0.3,0.1,0.3,0.3c0,0.1,0,0.1,0,0.2c-0.2,1.1-0.3,1.3-0.3,1.7v0.1c0,0.2,0,0.3,0,0.3c0,0.1-0.1,0.2-0.3,0.2
							c-0.1,0-0.2,0-0.3-0.1c-0.3-0.1-0.3-0.1-0.5-0.1c-0.2,0-0.3,0-0.9,0.2c-0.8,0.2-1.6,0.4-2.5,0.4c-1.1,0-2.1-0.2-2.8-0.7v0
							c0,0,0,0,0,0c-0.8-0.5-1.3-1.2-1.3-2c0-0.3,0-0.5,0.1-0.7c0,0,0,0,0,0l0,0c0.3-0.7,1-1.2,2.3-1.6l3.3-1
							c1.3-0.4,1.8-0.8,1.8-1.4V0.7c-0.1-0.9-1.3-1.6-2.8-1.6c-1.7,0-3.9,1.3-4.4,2.6C-18.1,1.9-18.2,2-18.4,2s-0.3-0.1-0.3-0.3
							s0.1-0.4,0.4-1.1c0.2-0.4,0.2-0.6,0.3-0.8l0.1-0.5c1.1-0.4,2.7-0.7,4-0.7c0.3,0,0.6,0,0.9,0.1c-0.4-0.1-0.7-0.3-1-0.5
							c-0.5-0.3-0.8-0.6-0.8-0.8c0-0.1,0.1-0.1,0.2-0.1c0.1,0,0.1,0,0.2,0.1c0.6,0.5,1.2,0.7,2,0.7c0.9,0,1.6-0.5,1.6-1.1
							c0-0.3-0.1-0.5-0.4-0.8c-0.3-0.3-0.5-0.4-1.7-1.1c-2.2-1.3-2.2-1.3-2.2-1.4c0-0.1,0.1-0.1,0.2-0.1c0.1,0,0.2,0,0.3,0
							c0.4,0,0.7,0,1.1,0c0.3,0,0.8,0,1.5,0c0.8,0,1.2,0,2.2,0c0.3,0,0.4,0,0.4,0c0.1,0,0.2,0.2,0.6,0.7l0.4,0.6
							C-8.4-5-8.3-4.9-8.3-4.9C-7.8-5.4-7-5.7-6.1-5.7c0.7,0,1.3,0.1,2.1,0.5C-3.8-5.1-3.7-5-3.7-5c0.1,0,0.1,0,0.1-0.1
							c0-0.2-0.3-0.8-0.7-1.2c-0.8-0.9-2-1.4-3.6-1.7c-0.3,0-0.4-0.1-0.4-0.2s0.1-0.2,0.3-0.2c1,0,2.6,0.4,3.7,0.9
							c1.7,0.8,2.8,2.2,2.8,3.6c0,0.8-0.3,1.5-0.9,2.1c-0.2,0.2-0.5,0.4-0.7,0.5c0.2,0,0.4,0,0.6,0c1.6,0,2.8,0.2,3.7,0.5
							c1.2,0.5,1.9,1.4,1.9,2.3C3.1,2.4,2.5,3.1,1.2,3.5 M-9.3,7.8C-9.2,7.8-9.5,7.9-9.3,7.8"/>
					</g>
					<g id="g3817" transform="translate(59.206,375.0772)">
						<path id="path3819" inkscape:connector-curvature="0" class="st5" d="M0,0c-0.3-0.2-0.6-0.4-1-0.6c-0.5-0.2-1-0.2-1.8-0.2
							c-2.3,0-3,0.4-3,1.5v2c0,0.5,0.3,0.6,1.5,0.6c1.9,0,3.2-0.2,4-0.7c0.7-0.5,0.8-1.1,0.9-1.3c0,0,0,0,0-0.1C0.6,0.7,0.3,0.3,0,0
							z M-5-5c-1.3,0-2.2,0.9-2.2,2.2c0,1,0.7,1.6,1.7,1.7c0.1,0,0.1,0,0.2,0c1.2-0.1,2.3-1.1,2.3-2.3C-3.1-4.4-3.9-5-5-5L-5-5z
							 M-5.7,6.6c0,0.5,0.6,0.8,1.7,0.8c2.1,0,3.7-1,3.7-2.2c0-0.8-0.8-1.3-2.1-1.3h-1.8c-1,0-1.5,0.3-1.5,0.8L-5.7,6.6L-5.7,6.6z
							 M-17.5,4.3l0.6-0.4C-17.2,4-17.4,4.2-17.5,4.3z M1.2,3.5C0.7,3.6,0.3,3.7-0.5,3.8c1.6,0.3,2.5,1,2.5,1.8
							c0,0.8-0.8,1.6-2.2,1.9C-1,7.8-2.2,7.9-3.5,7.9c-0.4,0-0.8,0-1.1,0c-2.1-0.1-2.1-0.1-3-0.1c-0.5,0-0.9,0-1.1,0
							c-0.3,0-0.5,0-0.5,0.1c0,0,0,0,0,0c-0.4,0-0.4-0.1-0.4-0.3s0-0.2,0.4-0.2c0.4,0,0.6-0.1,0.8-0.2L-8.2,7l0.2-3.8V0.5
							c0-0.8-0.3-1.1-0.9-1.3C-9.6-1-9.7-1-9.7-1.1s0.1-0.2,0.4-0.2c0.1,0,0.1,0,0.6,0c0.4,0,1,0.1,1.7,0.1C-7.4-1.4-7.7-1.5-8-1.8
							c-0.5-0.5-0.8-1.1-0.8-1.8c0-0.4,0.1-0.8,0.3-1.1c0,0-0.1,0-0.1-0.1C-9-5-9.2-5.1-9.5-5.3c-0.4-0.1-1.1-0.2-1.7-0.2
							c-0.7,0-1.4,0.1-1.4,0.2c0,0,0,0.1,0.7,0.4c2.5,1.4,2.9,1.6,2.9,2.3c0,0.8-1.1,1.5-2.5,1.5c-0.1,0-0.3,0-0.4,0
							c1.6,0.5,2.6,1.5,2.6,2.6c0,1.3-1,2.1-3.1,2.8L-15,5c-1.2,0.4-1.8,0.8-1.8,1.3c0,0.8,1.1,1.4,2.4,1.4c1.8,0,3.7-1,4.1-2.3
							c0.1-0.3,0.2-0.4,0.4-0.4c0.2,0,0.3,0.1,0.3,0.3c0,0.1,0,0.1,0,0.2c-0.2,1.1-0.3,1.3-0.3,1.7v0.1c0,0.2,0,0.3,0,0.3
							c0,0.1-0.1,0.2-0.3,0.2c-0.1,0-0.2,0-0.3-0.1c-0.3-0.1-0.3-0.1-0.5-0.1c-0.2,0-0.3,0-0.9,0.2c-0.8,0.2-1.6,0.4-2.5,0.4
							c-1.1,0-2.1-0.2-2.8-0.7v0c0,0,0,0,0,0c-0.8-0.5-1.3-1.2-1.3-2c0-0.3,0-0.5,0.1-0.7c0,0,0,0,0,0l0,0c0.3-0.7,1-1.2,2.3-1.6
							l3.3-1c1.3-0.4,1.8-0.8,1.8-1.4V0.7c-0.1-0.9-1.3-1.6-2.8-1.6c-1.7,0-3.9,1.3-4.4,2.6C-18.1,1.9-18.2,2-18.4,2
							s-0.3-0.1-0.3-0.3s0.1-0.4,0.4-1.1c0.2-0.4,0.2-0.6,0.3-0.8l0.1-0.5c1.1-0.4,2.7-0.7,4-0.7c0.3,0,0.6,0,0.9,0.1
							c-0.4-0.1-0.7-0.3-1-0.5c-0.5-0.3-0.8-0.6-0.8-0.8c0-0.1,0.1-0.1,0.2-0.1c0.1,0,0.1,0,0.2,0.1c0.6,0.5,1.2,0.7,2,0.7
							c0.9,0,1.6-0.5,1.6-1.1c0-0.3-0.1-0.5-0.4-0.8c-0.3-0.3-0.5-0.4-1.7-1.1c-2.2-1.3-2.2-1.3-2.2-1.4c0-0.1,0.1-0.1,0.2-0.1
							c0.1,0,0.2,0,0.3,0c0.4,0,0.7,0,1.1,0c0.3,0,0.8,0,1.5,0c0.8,0,1.2,0,2.2,0c0.3,0,0.4,0,0.4,0c0.1,0,0.2,0.2,0.6,0.7l0.4,0.6
							C-8.4-5-8.3-4.9-8.3-4.9C-7.8-5.4-7-5.7-6.1-5.7c0.7,0,1.3,0.1,2.1,0.5C-3.8-5.1-3.7-5-3.7-5c0.1,0,0.1,0,0.1-0.1
							c0-0.2-0.3-0.8-0.7-1.2c-0.8-0.9-2-1.4-3.6-1.7c-0.3,0-0.4-0.1-0.4-0.2s0.1-0.2,0.3-0.2c1,0,2.6,0.4,3.7,0.9
							c1.7,0.8,2.8,2.2,2.8,3.6c0,0.8-0.3,1.5-0.9,2.1c-0.2,0.2-0.5,0.4-0.7,0.5c0.2,0,0.4,0,0.6,0c1.6,0,2.8,0.2,3.7,0.5
							c1.2,0.5,1.9,1.4,1.9,2.3C3.1,2.4,2.5,3.1,1.2,3.5L1.2,3.5z M-9.3,7.8C-9.2,7.8-9.5,7.9-9.3,7.8z"/>
					</g>
					<g id="g3821" transform="translate(59.2336,375.3005)">
						<path id="path3823" inkscape:connector-curvature="0" class="st4" d="M0,0c-0.3-0.2-0.6-0.4-1-0.6c-0.5-0.2-1-0.2-1.8-0.2
							c-2.3,0-3,0.4-3,1.5v2c0,0.5,0.3,0.6,1.5,0.6c1.9,0,3.2-0.2,4-0.7c0.7-0.5,0.8-1.1,0.9-1.3c0,0,0,0,0-0.1C0.6,0.7,0.3,0.3,0,0
							 M-3-3.6c0-0.9-0.7-1.5-1.8-1.5c-1.3,0-2.2,0.9-2.2,2.2c0,1,0.7,1.7,1.7,1.7C-4.1-1.2-3-2.3-3-3.6 M-5.7,6.6
							c0,0.5,0.6,0.8,1.7,0.8c2.1,0,3.7-1,3.7-2.2c0-0.8-0.8-1.3-2.1-1.3h-1.8c-1,0-1.5,0.3-1.5,0.8L-5.7,6.6L-5.7,6.6z M-11.2,1.8
							L-11.2,1.8L-11.2,1.8L-11.2,1.8 M-17.5,4.3l0.6-0.4C-17.2,4-17.4,4.2-17.5,4.3 M1.2,3.5C0.7,3.6,0.3,3.7-0.5,3.8
							c1.6,0.3,2.5,1,2.5,1.8c0,0.8-0.8,1.6-2.2,1.9C-1,7.8-2.2,7.9-3.5,7.9c-0.4,0-0.8,0-1.1,0c-2.1-0.1-2.1-0.1-3-0.1
							c-0.5,0-1,0-1.1,0c-0.3,0-0.5,0-0.5,0.1c0,0,0,0,0,0c-0.4,0-0.4-0.1-0.4-0.3c0-0.1,0-0.2,0.4-0.2c0.4,0,0.6-0.1,0.8-0.2
							L-8.2,7l0.2-3.8V0.5c0-0.8-0.3-1.1-0.9-1.3C-9.6-1-9.7-1-9.7-1.1c0-0.1,0.1-0.2,0.4-0.2c0.1,0,0.1,0,0.6,0
							c0.5,0,1.1,0.1,1.9,0.1c-0.4-0.1-0.7-0.3-1-0.6c-0.5-0.5-0.8-1.1-0.8-1.8c0-0.4,0.1-0.8,0.3-1.1c0,0-0.1,0-0.1-0.1
							C-8.9-5-9.1-5.2-9.4-5.3c-0.4-0.1-1.1-0.2-1.7-0.2c-0.7,0-1.4,0.1-1.4,0.2c0,0,0,0.1,0.7,0.4C-9.3-3.5-9-3.3-9-2.7
							c0,0.8-1.1,1.5-2.5,1.5c-0.3,0-0.6,0-0.9-0.1c1.8,0.4,3,1.5,3,2.7c0,1.3-1,2.1-3.2,2.8L-15,5c-1.2,0.4-1.8,0.8-1.8,1.3
							c0,0.8,1.1,1.4,2.4,1.4c1.8,0,3.7-1,4.1-2.3c0.1-0.3,0.2-0.4,0.4-0.4c0.2,0,0.3,0.1,0.3,0.3c0,0.1,0,0.1,0,0.2
							c-0.2,1.1-0.3,1.3-0.3,1.7v0.1c0,0.2,0,0.3,0,0.3c0,0.1-0.1,0.2-0.3,0.2c-0.1,0-0.2,0-0.3-0.1c-0.3-0.1-0.3-0.1-0.5-0.1
							c-0.2,0-0.3,0-0.9,0.2c-0.8,0.2-1.6,0.4-2.5,0.4c-1.1,0-2.1-0.2-2.8-0.7l0,0c0,0,0,0,0,0c-0.8-0.5-1.3-1.2-1.3-2
							c0-0.3,0-0.5,0.1-0.7c0,0,0,0,0,0h0c0.3-0.7,1-1.2,2.3-1.6l3.3-1c1.3-0.4,1.8-0.8,1.8-1.4V0.7c-0.1-0.9-1.3-1.6-2.8-1.6
							c-1.7,0-3.9,1.3-4.4,2.6C-18.1,1.9-18.2,2-18.4,2s-0.3-0.1-0.3-0.3c0-0.2,0.1-0.4,0.4-1.1c0.2-0.4,0.2-0.6,0.3-0.8l0.1-0.5
							c1.1-0.4,2.7-0.7,4-0.7c0.5,0,1,0,1.4,0.1c-0.5-0.1-1-0.3-1.4-0.6c-0.5-0.3-0.8-0.6-0.8-0.8c0-0.1,0.1-0.1,0.2-0.1
							c0.1,0,0.1,0,0.2,0.1c0.6,0.5,1.2,0.7,2,0.7c0.9,0,1.6-0.5,1.6-1.1c0-0.3-0.1-0.5-0.4-0.8c-0.3-0.3-0.5-0.4-1.7-1.1
							C-15-6.3-15-6.3-15-6.4c0-0.1,0.1-0.1,0.2-0.1c0.1,0,0.2,0,0.3,0c0.4,0,0.7,0,1.1,0c0.3,0,0.8,0,1.5,0c0.8,0,1.2,0,2.2,0
							c0.3,0,0.4,0,0.4,0c0.1,0,0.2,0.2,0.6,0.7l0.4,0.6C-8.2-5-8.2-5-8.1-4.9C-7.7-5.4-6.9-5.7-6-5.7c0.7,0,1.3,0.1,2.1,0.5
							c0.2,0.1,0.2,0.1,0.3,0.1s0.1,0,0.1-0.1c0-0.2-0.3-0.8-0.7-1.2c-0.8-0.9-2-1.4-3.6-1.7c-0.3,0-0.4-0.1-0.4-0.2S-8-8.5-7.7-8.5
							c1,0,2.6,0.4,3.7,0.9c1.7,0.8,2.8,2.2,2.8,3.6c0,0.8-0.3,1.5-0.9,2.1C-2.5-1.6-2.7-1.4-3-1.3c0.2,0,0.4,0,0.5,0
							c1.6,0,2.8,0.2,3.7,0.5c1.2,0.5,1.9,1.4,1.9,2.3C3.1,2.4,2.5,3.1,1.2,3.5 M-9.3,7.8C-9.2,7.8-9.5,7.9-9.3,7.8"/>
					</g>
					<g id="g3825" transform="translate(43.5029,379.3921)">
						<path id="path3827" inkscape:connector-curvature="0" class="st4" d="M0,0l-1.2-0.3l-0.7,0.7l0.7,0.3L0,0z"/>
					</g>
				</g>
			</g>
		</g>
	</g>
</g>
</svg>
