<?xml version="1.0" encoding="utf-8"?>
<!-- Generator: Adobe Illustrator 26.0.2, SVG Export Plug-In . SVG Version: 6.00 Build 0)  -->
<svg version="1.1"
	 id="Ebene_1" xmlns:cc="http://creativecommons.org/ns#" xmlns:dc="http://purl.org/dc/elements/1.1/" xmlns:inkscape="http://www.inkscape.org/namespaces/inkscape" xmlns:rdf="http://www.w3.org/1999/02/22-rdf-syntax-ns#" xmlns:sodipodi="http://sodipodi.sourceforge.net/DTD/sodipodi-0.dtd" xmlns:svg="http://www.w3.org/2000/svg"
	 xmlns="http://www.w3.org/2000/svg" xmlns:xlink="http://www.w3.org/1999/xlink" x="0px" y="0px" width="800px" height="800px"
	 viewBox="0 0 800 800" style="enable-background:new 0 0 800 800;" xml:space="preserve">
<style type="text/css">
	.st0{fill:#FFFFFF;}
	.st1{fill:#E2001A;}
	.st2{fill:#009036;}
	.st3{fill:url(#rect8262_00000061469404272245097310000008618278359240626873_);}
	.st4{fill:url(#rect8264_00000063626758363883593360000011805833758960807852_);}
	.st5{fill:url(#path6670_00000021106153707312666380000004208393215343540371_);}
	.st6{fill:url(#circle6674_00000039098131759250230040000001496668105362043316_);}
	.st7{fill-rule:evenodd;clip-rule:evenodd;fill:url(#path8075_00000129196101659025849630000000635779740348823448_);}
	.st8{fill-rule:evenodd;clip-rule:evenodd;fill:url(#path8085_00000060719195861677141280000011253204469350159501_);}
	.st9{fill-rule:evenodd;clip-rule:evenodd;}
	.st10{fill:url(#circle8241_00000097488936288061146100000012973858050844253063_);}
</style>
<sodipodi:namedview  bordercolor="#666666" borderopacity="1" gridtolerance="10" guidetolerance="10" id="namedview1131" inkscape:current-layer="Ebene_1" inkscape:cx="452.02259" inkscape:cy="282.4345" inkscape:pageopacity="0" inkscape:pageshadow="2" inkscape:window-height="691" inkscape:window-maximized="1" inkscape:window-width="1280" inkscape:window-x="0" inkscape:window-y="1" inkscape:zoom="1.1736798" objecttolerance="10" pagecolor="#ffffff" showgrid="false">
	</sodipodi:namedview>
<g id="g8348" transform="matrix(4,0,0,4,0,-4.3046758)">
	<g id="g8343">
		<path id="path8341" inkscape:connector-curvature="0" sodipodi:nodetypes="cscc" class="st0" d="M198.9,101.1
			c0-54.6-44.3-98.9-98.9-98.9S1.1,46.5,1.1,101.1H198.9z"/>
		<path id="circle8226" inkscape:connector-curvature="0" sodipodi:nodetypes="cscc" class="st1" d="M198.9,101.1
			c0,54.6-44.3,98.9-98.9,98.9S1.1,155.7,1.1,101.1H198.9z"/>
		<path id="rect6682" inkscape:connector-curvature="0" sodipodi:nodetypes="ccccccc" class="st2" d="M7.1,67.6
			c-3.9,10.7-5.9,22.1-6,33.5c0,11.4,2,22.8,5.9,33.5h185.9c3.9-10.7,5.9-22.1,6-33.5c0-11.4-2-22.8-5.9-33.5L7.1,67.6z"/>
	</g>
	<g id="g8332">
		<g id="g8280">
			
				<linearGradient id="rect8262_00000078039061849224474210000014707065028756719039_" gradientUnits="userSpaceOnUse" x1="40.0153" y1="161.4366" x2="39.1633" y2="363.3656" gradientTransform="matrix(16 0 0 16 -540 -2583.4141)">
				<stop  offset="0" style="stop-color:#F1B85C"/>
				<stop  offset="0.1051" style="stop-color:#F1BF69"/>
				<stop  offset="0.1952" style="stop-color:#F1B85C"/>
				<stop  offset="0.3334" style="stop-color:#F4D797"/>
				<stop  offset="0.5135" style="stop-color:#F7EEC3"/>
				<stop  offset="0.6727" style="stop-color:#EDC577"/>
				<stop  offset="0.8289" style="stop-color:#D38E32"/>
				<stop  offset="0.9159" style="stop-color:#DA9B32"/>
				<stop  offset="1" style="stop-color:#D38E32"/>
			</linearGradient>
			
				<path id="rect8262" inkscape:connector-curvature="0" style="fill:url(#rect8262_00000078039061849224474210000014707065028756719039_);" d="
				M7.7,65.8c-0.4,1.2-0.9,2.3-1.3,3.5h187.1c-0.4-1.2-0.8-2.3-1.2-3.5H7.7z"/>
			
				<linearGradient id="rect8264_00000116957021141678740370000018381051395416799678_" gradientUnits="userSpaceOnUse" x1="40.0414" y1="161.4367" x2="39.1894" y2="363.3657" gradientTransform="matrix(16 0 0 16 -540 -2583.4141)">
				<stop  offset="0" style="stop-color:#F1B85C"/>
				<stop  offset="0.1051" style="stop-color:#F1BF69"/>
				<stop  offset="0.1952" style="stop-color:#F1B85C"/>
				<stop  offset="0.3334" style="stop-color:#F4D797"/>
				<stop  offset="0.5135" style="stop-color:#F7EEC3"/>
				<stop  offset="0.6727" style="stop-color:#EDC577"/>
				<stop  offset="0.8289" style="stop-color:#D38E32"/>
				<stop  offset="0.9159" style="stop-color:#DA9B32"/>
				<stop  offset="1" style="stop-color:#D38E32"/>
			</linearGradient>
			
				<path id="rect8264" inkscape:connector-curvature="0" style="fill:url(#rect8264_00000116957021141678740370000018381051395416799678_);" d="
				M6.5,132.8c0.4,1.2,0.8,2.3,1.2,3.5h184.7c0.4-1.2,0.9-2.3,1.3-3.5H6.5z"/>
		</g>
		<circle id="circle8187" class="st0" cx="100" cy="101.1" r="62.3"/>
		<g id="g8328">
			
				<linearGradient id="path6670_00000106830242441804164530000015446864799339437480_" gradientUnits="userSpaceOnUse" x1="40.038" y1="161.4534" x2="38.8331" y2="362.0759" gradientTransform="matrix(16 0 0 16 -540 -2583.4141)">
				<stop  offset="0" style="stop-color:#F1B85C"/>
				<stop  offset="0.1051" style="stop-color:#F1BF69"/>
				<stop  offset="0.1952" style="stop-color:#F1B85C"/>
				<stop  offset="0.3334" style="stop-color:#F4D797"/>
				<stop  offset="0.5135" style="stop-color:#F7EEC3"/>
				<stop  offset="0.6727" style="stop-color:#EDC577"/>
				<stop  offset="0.8289" style="stop-color:#D38E32"/>
				<stop  offset="0.9159" style="stop-color:#DA9B32"/>
				<stop  offset="1" style="stop-color:#D38E32"/>
			</linearGradient>
			
				<path id="path6670" inkscape:connector-curvature="0" style="fill:url(#path6670_00000106830242441804164530000015446864799339437480_);" d="
				M100,1.1C44.8,1.1,0,45.8,0,101.1s44.8,100,100,100s100-44.8,100-100S155.2,1.1,100,1.1z M100,4.6c53.3,0,96.5,43.2,96.5,96.5
				s-43.2,96.5-96.5,96.5S3.5,154.4,3.5,101.1S46.7,4.6,100,4.6z"/>
			
				<linearGradient id="circle6674_00000039099404143705105410000013684191420805878659_" gradientUnits="userSpaceOnUse" x1="40.038" y1="161.4534" x2="38.8331" y2="362.0759" gradientTransform="matrix(16 0 0 16 -540 -2583.4141)">
				<stop  offset="0" style="stop-color:#F1B85C"/>
				<stop  offset="0.1051" style="stop-color:#F1BF69"/>
				<stop  offset="0.1952" style="stop-color:#F1B85C"/>
				<stop  offset="0.3334" style="stop-color:#F4D797"/>
				<stop  offset="0.5135" style="stop-color:#F7EEC3"/>
				<stop  offset="0.6727" style="stop-color:#EDC577"/>
				<stop  offset="0.8289" style="stop-color:#D38E32"/>
				<stop  offset="0.9159" style="stop-color:#DA9B32"/>
				<stop  offset="1" style="stop-color:#D38E32"/>
			</linearGradient>
			
				<path id="circle6674" inkscape:connector-curvature="0" style="fill:url(#circle6674_00000039099404143705105410000013684191420805878659_);" d="
				M100,37.1c-35.3,0-64,28.7-64,64s28.7,64,64,64s64-28.7,64-64S135.3,37.1,100,37.1L100,37.1z M100,40.6
				c33.4,0,60.5,27.1,60.5,60.5s-27.1,60.5-60.5,60.5l0,0c-33.4,0-60.5-27.1-60.5-60.5l0,0C39.5,67.7,66.6,40.6,100,40.6L100,40.6z"
				/>
		</g>
	</g>
	<g id="g8306">
		<g id="g8152">
			<g id="g8073" transform="translate(-238.809,0)">
				
					<linearGradient id="path8075_00000030473043889957884240000008057880739111101874_" gradientUnits="userSpaceOnUse" x1="353.4902" y1="161.5432" x2="352.2853" y2="362.1657" gradientTransform="matrix(16 0 0 16 -5316.1802 -2583.4141)">
					<stop  offset="0" style="stop-color:#F1B85C"/>
					<stop  offset="0.1051" style="stop-color:#F1BF69"/>
					<stop  offset="0.1952" style="stop-color:#F1B85C"/>
					<stop  offset="0.3334" style="stop-color:#F4D797"/>
					<stop  offset="0.5135" style="stop-color:#F7EEC3"/>
					<stop  offset="0.6727" style="stop-color:#EDC577"/>
					<stop  offset="0.8289" style="stop-color:#D38E32"/>
					<stop  offset="0.9159" style="stop-color:#DA9B32"/>
					<stop  offset="1" style="stop-color:#D38E32"/>
				</linearGradient>
				
					<path id="path8075" inkscape:connector-curvature="0" sodipodi:nodetypes="cccccccccccccccccccccccccccccccccccccccccccccccccccccscccccccccccccccccccccccsscccccccccccccccccccccccccccccccccccccccccccccccccccccccccccccccccccccccccccccccccccccccccccccccccccccccccccccccscccccccccccsccccccccccccccccccccccccccccccccccccccccccccccccccccccccsscccccscscccccccccccccccccccccccscccccccc" style="fill-rule:evenodd;clip-rule:evenodd;fill:url(#path8075_00000030473043889957884240000008057880739111101874_);" d="
					M325.8,8.8l2.3,4.4l5.2,10.2l-4.9,8.7h10.5l8.1-16.6l-0.6,2.8l3.3,0.4l-2.5,14.1l9.1,1l2.5-13.7l3,0.3l2.1-8.5L350,9.3l0.3-0.5
					H340l-1.9,4.2l-1.9-4.2H325.8z M317.1,10.3l-2.9,0.7l-5.9,1.5l0.6,2.3c-4.2,2.7-6.8,7.4-5.6,12.3l0,0l0,0
					c1.2,4.8,5.7,7.8,10.7,8.2l0.6,2.3l8.8-2.2l-0.6-2.3c4.2-2.7,6.8-7.4,5.6-12.3l0,0l0,0c-1.2-4.8-5.7-7.8-10.7-8.2L317.1,10.3
					L317.1,10.3z M365.2,12.2l-1.1,2.7l-7.4,18.6l7,2.9l0,0c2.1,0.8,4.3,1.4,6.8,0.8l0.3-0.1l0.3-0.1c0.7-0.4,1.8-0.9,2.9-2l0,0l0,0
					c0.8-0.8,1-1.3,1.2-1.9c-0.2,0.8-0.5,1.6-0.5,2.5c0,6.6,5.4,12,12,12s12-5.4,12-12s-5.4-12-12-12c-4.5,0-8.4,2.7-10.4,6.4
					c0-0.6,0-1,0-1.4c0-1.5-0.5-2.4-0.8-3.1l0.6,0.2l3.2-8.4L365.2,12.2L365.2,12.2z M283.1,27.3l-2.2,1.9l-3.8,3.3l1.2,4.9
					l-3.1-3.2l-6.2,6.2l-0.1-0.5l-3.6,5.3l-3,4.4l0.6,1.7l-1.3-0.8l-5.2,7.3l7.9,5.1l-3.1,0.3c-5.5,0.5-9.9,4.6-10.8,10.1l0,0l0,0
					c-0.8,5.2,1.9,10,6.4,12.4c-0.5-0.1-1.1-0.3-1.7-0.3c-0.7,0-2-0.2-3.8,0.7c-0.7,0.4-1.8,0.9-2.9,2l-0.3,0.3l-0.2,0.4
					c-0.8,1.9-1.1,3.6-1.4,5.7l-0.6,7.2l16.2,1.3l-15.5,8.8l0.9,6.4l24.1,7.1l-1-9.9L266,114l-0.2-2.1l4.4-2.6l-1.1-5.7h0.4v-9.1
					l-6.3-0.7v-3.1c-0.6-0.9-1.1-1.4-1.6-1.9c1.9,2.1-1.7-1.8-2.4-2.2c0.5,0.1,0.9,0.4,1.4,0.5c6.5,1,12.7-3.5,13.7-10l0,0l0,0
					c0.5-3.4-0.5-6.9-2.7-9.5l4.8,3.1l5.2-7.3l-1.2-0.8h1.3l4.4-6.7l4.3-3.7l-1-4.4l2.4,2.6l7-6L283.1,27.3L283.1,27.3z M386.7,32.7
					c1.6,0,2.9,1.3,2.9,2.9c0,1.6-1.3,2.9-2.9,2.9s-2.9-1.3-2.9-2.9C383.8,34,385,32.7,386.7,32.7z M269.1,40.7l11.7,12.8h-7.9
					L269.1,40.7z M409.8,41l-2,0.6l-21.6,6.9l6,8l6-2.3l-3.4,5.3l4,4.6l-0.4,0.2l6.3,12.1l-0.3,0.1l3.1,8.4l5.5-1.1l-5.8,1.4l2,9
					l23.1-5.8l-3.1-8.4l-6.3,1.3v-0.1l6.6-1.4l-2-9.1l-3,0.7L411,74.9l2.6-1.3l-0.1-0.3l6.5-3.2l0,0l6.4-3.2l-7.6-13.4l-2.6,1.4
					l-10.8,5.8l8.5-14.7L409.8,41L409.8,41z M265.7,63.9l1.2,0.8l-2.8,7.9l0.7,1.2c0.4,0.6,0.5,1.3,0.4,1.9
					c-0.3,1.6-1.7,2.7-3.3,2.4c-1.6-0.3-2.7-1.7-2.4-3.3c0.2-1,0.9-1.9,1.8-2.3l1.3-0.5L265.7,63.9z M419.2,105.9
					c-6.6,0-12,5.4-12,12l0,0l0,0c0,3.9,1.9,7.5,5.1,9.8l3.8,2.7l1.8-9.5l-0.9-1.1c-0.4-0.5-0.7-1.2-0.7-1.9c0-1.6,1.3-2.9,2.9-2.9
					s2.9,1.3,2.9,2.9l0,0c0,1-0.6,2-1.5,2.5l-1.2,0.7l-2,9.6l2-0.5l-1.1,2.2l-12.6-6.3l-1.4,2.5l-2.1,3.9l0.1-0.1
					c-1.4,2.3-2.2,4.5-1.3,7.1l-0.2-0.9c0,0.9,0.2,1.5,0.4,2.1c0.1,0.4,0.5,0.8,0.7,1.1l-2.5-2.3l-2,2.4l-4,4.6l1.9,1.8
					c-6.1,0.5-11,5.6-11,11.8c0,6.6,5.4,12,12,12c6.4,0,11.7-5.2,11.9-11.6l2.1,2.1l6.1-7.1l-10.9-10.3c1.3,0.4,2.6,0.5,3.2,0.5
					c0.7,0,2,0.2,3.8-0.7l0.2-0.1l0.2-0.1c1-0.7,2.1-1.9,3.1-3.4l6,3.2l5.4-10.9l-6.8-3.9l1.4-0.3c5.3-1.3,9.1-6.1,9.1-11.6l0,0l0,0
					C431.2,111.3,425.8,105.9,419.2,105.9L419.2,105.9z M273.2,125.1l-12.9,5.2l-2.1-5.2l-2.8,1l-5.6,2.1l5.3,14.1l14.5-5.7
					l-10.1,13.3l3.7,5.6l15.6-3.1c-1.6,1.9-2.5,4.4-2,7v0.1v0.1c0.5,1.9,1.6,4.1,3.8,5.8l-0.2-0.2l-1.3-1.3l-4.7,5l8.9,8.2l6.4-6.4
					l-2.5-2.1l9.7-10l-5.2-5.2l0,0c-1.2-1.2-2.6-2-3.9-2.6V150l-1.1-0.1l-4.4-7.9l-6.3,1.6l3.9-4.9l-2.8-5l0,0L273.2,125.1
					L273.2,125.1z M406,141.6c0.2,0.2,0.4,0.2,0.6,0.4c0.1,0,0.1,0.2,0.2,0.2L406,141.6z M396.3,157.1c1.6,0,2.9,1.3,2.9,2.9
					c0,1.6-1.3,2.9-2.9,2.9s-2.9-1.3-2.9-2.9C393.4,158.4,394.7,157.1,396.3,157.1z M378.5,160.9c-1.6,0-3.3,0.4-4.8,1.3
					c-1.8,1.1-3.3,2.7-4,4.8s-0.5,4.7,0.9,6.8l0,0l0,0c0.9,1.5,2.2,2.4,3.6,3c0,1.3,0.3,2.6,1.1,3.9c1.1,1.8,2.9,3.1,4.9,3.5
					s4.2-0.1,6.1-1.2c2-1.2,3.4-3,3.9-5.1s0-4.3-1-6.2l-1.5-2.7l-3.2,1.9l-0.6-1l3.4-2.1l-1.6-2.6c-0.3-0.4-0.2-0.3-0.3-0.4
					c-0.1-0.1-0.1-0.2-0.2-0.2c-0.1-0.2-0.4-0.6-0.1-0.2C383.5,162.5,381.2,161,378.5,160.9L378.5,160.9z M298.9,161.1h-0.1
					c-2.7,0.2-4.6,1.9-6,3.6l-0.1,0.1l-0.1,0.1c-1.5,2.2-1.4,4.7-0.7,6.7l-0.4-0.2l-5.2,7.3l13.4,8.2l11.9-19.9l-6.1-3.7l0.1,0.1
					C303.2,161.8,300.9,161.1,298.9,161.1L298.9,161.1L298.9,161.1z M296.2,176.8c0.2,0.1,0.4,0.3,0.6,0.5l-0.1-0.1L296.2,176.8
					L296.2,176.8L296.2,176.8z"/>
			</g>
			
				<linearGradient id="path8085_00000008828921454521648730000002522638625471803289_" gradientUnits="userSpaceOnUse" x1="40.102" y1="161.4538" x2="38.8971" y2="362.0763" gradientTransform="matrix(16 0 0 16 -540 -2583.4141)">
				<stop  offset="0" style="stop-color:#F1B85C"/>
				<stop  offset="0.1051" style="stop-color:#F1BF69"/>
				<stop  offset="0.1952" style="stop-color:#F1B85C"/>
				<stop  offset="0.3334" style="stop-color:#F4D797"/>
				<stop  offset="0.5135" style="stop-color:#F7EEC3"/>
				<stop  offset="0.6727" style="stop-color:#EDC577"/>
				<stop  offset="0.8289" style="stop-color:#D38E32"/>
				<stop  offset="0.9159" style="stop-color:#DA9B32"/>
				<stop  offset="1" style="stop-color:#D38E32"/>
			</linearGradient>
			
				<path id="path8085" inkscape:connector-curvature="0" style="fill-rule:evenodd;clip-rule:evenodd;fill:url(#path8085_00000008828921454521648730000002522638625471803289_);" d="
				M108.2,194.4l-7.3-4.4l-8,4.4l2.2-8.7l-6.5-5.8l8.7-0.7l3.6-8l2.9,8l0,0l8.7,0.7l-6.5,5.8L108.2,194.4z"/>
		</g>
		<g id="g8302">
			
				<path id="path6690" inkscape:connector-curvature="0" sodipodi:nodetypes="ccccccccccccccccccccccccccccccccccsscccccccccccccccccccccccccccccccccccccccccccccccccccccccccccccccccccccccccccccccccccccccccccccccccccccccsccccccccsccccccccccccccccccccccccccccccccccccccccccscsccccccccccccccccccccccccccccccccccccccccccccccccccccccccscccccsccccccccsscccccscccsscccccccccccccccccsscc" class="st9" d="
				M91.9,11.8l6,11.6L94.7,29h3.5l8.4-17.2h-3.5l-3.9,8.4l-3.9-8.4L91.9,11.8z M112,12.5l-0.7,3.2l3.2,0.4l-2.5,14l3.2,0.4l2.5-13.7
				l3.2,0.4l0.7-2.8L112,12.5z M76.1,13.9l-2.9,0.7l0.4,1.5c-4.5,1.8-7.1,6.1-6.1,10.1s5.3,6.6,10.2,6l0.4,1.5L81,33l-0.4-1.5
				c4.5-1.8,7.1-6.1,6.1-10.1s-5.3-6.6-10.2-6L76.1,13.9z M128.1,16l-6.3,15.8l4.2,1.8c1.8,0.7,3.5,1.1,4.9,0.7
				c0.7-0.4,1.4-0.7,2.1-1.4c0.4-0.4,0.7-1.1,1.1-1.8s0.4-1.8,0.4-2.5s-0.3-1.4-0.7-2.1c-0.7-1.1-2.1-2.1-4.2-2.8l-1.1-0.4l1.4-3.5
				l5.6,2.1l1.1-2.8L128.1,16z M77.7,17.8c3.1,0,5.6,1.8,6.3,4.4c0.7,2.8-1,5.7-4,7.1l-2.9-11.4C77.3,17.8,77.5,17.8,77.7,17.8z
				 M74.1,18.5L77,30c-3.3,0.2-6.2-1.6-6.9-4.4C69.4,22.9,71.1,19.9,74.1,18.5z M127.4,26.2c1,0.3,1.9,0.6,2.8,1.1
				c1,0.5,1.7,1,1.1,2.7c-0.6,1.5-1.2,1.6-2.7,1.2c-1-0.3-1.5-0.5-2.5-1.1L127.4,26.2z M147.9,26.6c-5,0-9,4-9,9s4,9,9,9s9-4,9-9
				C156.9,30.7,152.8,26.6,147.9,26.6z M147.9,29.7c3.3,0,5.9,2.6,5.9,5.9c0,3.3-2.6,5.9-5.9,5.9c-3.3,0-5.9-2.6-5.9-5.9
				C142,32.4,144.6,29.7,147.9,29.7z M44.1,31.5l-2.5,2.1L44.8,47l0.4,0.7l-8.8-9.1l-2.1,2.1l11.6,12.7l2.5-2.1l-3.2-13.7l8.1,8.8
				l2.5-2.1L44.1,31.5z M170,44.5l-17.6,5.6l2.1,2.8l12-4.6l0.7-0.4l-0.4,0.4l-7,10.9l2.5,2.8l9.1-15.8L170,44.5z M29,47l-2.1,3.2
				l3.2,8.4l-6.3-3.9L22,57.2l14.8,9.5l1.8-2.5l-7.4-4.9l10.2,0.4l2.1-3.2H31.8L29,47z M178.8,57.5l-15.1,8.1l4.2,8.1l2.8-1.4
				l-2.8-5.3l3.5-2.1l2.8,5.3l2.8-1.4l-2.8-5.3l3.5-1.8l2.8,5.3l2.8-1.4L178.8,57.5z M22.7,66.3c-4.1,0.4-7.5,3.5-8.1,7.6
				c-0.8,4.9,2.6,9.5,7.5,10.3s9.5-2.6,10.3-7.5c0.5-2.9-0.5-5.8-2.6-7.8l-1.2,3.4c0.7,1.2,1,2.6,0.8,4c-0.5,3.2-3.5,5.4-6.8,4.9
				c-3.2-0.5-5.4-3.5-4.9-6.8c0.3-2.1,1.8-3.8,3.7-4.6L22.7,66.3z M186.5,74.4l-16.9,4.2l1.1,2.8l7-1.4l1.4,5.6l-7,1.8l0.7,3.2
				l16.9-4.2l-1.1-2.8l-6.7,1.4l-1.4-6l6.7-1.4L186.5,74.4z M16.3,88.5c-0.7,0-1.8,0-2.5,0.4c-2.7,1.7-2.9,3-3.2,6L10.3,99l17.2,1.4
				v-3.2l-6.3-0.7V92c-0.1-0.9-1.3-2.2-2.5-2.8C18.1,88.8,17.4,88.5,16.3,88.5z M16.2,91.6c1.3,0.1,2.1,0.9,2,1.8
				c0.1,1.2,0,2.1-0.2,3.1l-4.6-0.4c0-1.1,0.1-2.1,0.3-3C13.9,92,14.9,91.5,16.2,91.6z M27.2,104.3L11,113.5l0.4,2.5l17.9,5.3
				l-0.4-3.5l-4.6-1.4l-0.7-6l4.2-2.5L27.2,104.3z M180.4,108.9c-5,0-9,4-9,9c0,2.9,1.4,5.7,3.8,7.3l0.7-3.5
				c-0.9-1.1-1.4-2.4-1.4-3.8c0-3.3,2.6-5.9,5.9-5.9c3.3,0,5.9,2.6,5.9,5.9c0,2.1-1.1,4.1-3,5.1l-0.8,3.6c4-1,6.8-4.6,6.8-8.7
				C189.4,112.9,185.4,108.9,180.4,108.9L180.4,108.9z M20.9,111.7l0.7,4.2l-5.6-1.4h-0.7l0.7-0.4L20.9,111.7z M17.7,128.9l-2.8,1.1
				l3.2,8.4l16.2-6.3l-1.4-3.2l-13,5.3L17.7,128.9z M168.2,130l-2.1,3.9c-1.1,1.8-1.4,3.5-1.1,4.6c0,0.7,0.4,1.8,0.7,2.1
				c0.7,0.7,1.1,1.4,1.8,1.8c1.1,0.4,1.8,0.4,2.5,0.4s1.8,0,2.5-0.4c1.1-0.7,2.1-1.8,3.2-3.9l0.4-1.1l6,3.2l2.8-5.6l-2.5-1.4
				l-1.4,2.8L168.2,130z M169.3,134.2l4.2,1.8l-0.7,1.4c-0.4,0.7-0.7,1.1-1.1,1.4c0,0.4-0.4,0.7-1.1,0.7c-0.4,0.4-1.1,0.4-1.4,0
				c-1.4-0.7-1.4-2.1-0.4-4.2L169.3,134.2z M35.6,135.3l-11.3,14.8l1.4,2.1l17.9-3.5l-1.8-3.2l-12.7,3.2l8.1-10.2L35.6,135.3z
				 M160.8,143.7l-2.1,2.5l5.3,4.9l-1.5,1.5c-1.5-1-3.2-1.5-5-1.5c-5,0-9,4-9,9s4,9,9,9s9-4,9-9c0-1.8-0.5-3.5-1.5-5l1.5-1.8
				l4.9,4.9l2.1-2.5L160.8,143.7z M46,152.8c-1.4-0.1-2.6,0.6-3.6,1.5c-1.2,1.4-1.7,3-1.4,4.6c0.4,1.4,1.1,2.8,2.8,4.2l0.7,0.7
				l-4.6,4.9l4.6,4.2l2.1-2.1l-2.5-2.1l9.8-10.2l-3.2-3.2c-1.4-1.4-2.8-2.1-4.2-2.5C46.4,152.8,46.2,152.8,46,152.8L46,152.8z
				 M157.5,154.1c3.3,0,5.9,2.6,5.9,5.9c0,3.3-2.6,5.9-5.9,5.9c-3.3,0-5.9-2.6-5.9-5.9C151.6,156.8,154.3,154.1,157.5,154.1z
				 M45.8,156.1c0.8,0,1.8,0.4,2.9,1.3l1.1,1.1l-3.2,3.2l-1.1-1.1c-1-0.9-1.3-1.6-1.4-2.5C44.1,156.8,44.7,156.2,45.8,156.1z
				 M139.6,163.9c-1,0-2.1,0.2-3.2,0.9c-2.5,1.5-4,4.5-2.1,7.5c1.4,2.3,3.5,2.5,4.8,2l0.1,0.2c-0.8,0.7-1.6,2.6-0.2,4.7
				c1.4,2.3,4.1,2.9,6.9,1.3c2.8-1.7,3.4-4.5,1.9-7.3l-2.7,1.7c0.5,0.9,0.4,2.2-0.7,2.8c-0.9,0.6-2.1,0.3-2.7-0.7
				c-0.6-1-0.4-2.2,0.6-2.8l1.3-0.8l-1.7-2.7l-1.4,0.8c-1.2,0.7-2.4,0.3-3.1-0.8c-0.7-1.1-0.4-2.4,0.8-3.1c1-0.6,2.1-0.5,2.8,0.3
				c0.1,0.1,0.5,0.6,0.6,0.7l2.7-1.6c-0.1-0.1-0.5-0.6-0.5-0.7C142.7,164.9,141.3,164,139.6,163.9L139.6,163.9z M60.3,164.1
				c-1.5,0.1-2.8,1.1-3.9,2.5c-1,1.5-0.9,3.3-0.3,4.6c0.7,1.4,1.8,2.5,3.5,3.5l1.1,0.7l-1.8,3.2l-5.3-3.2l-1.8,2.5l8.1,4.9l8.8-14.8
				l-3.5-2.1C63.1,164.5,61.7,164.1,60.3,164.1z M61,167.4c1,0,1.8,0.5,2.4,0.9l1.1,0.7l-2.5,3.9l-1.1-0.7c-0.9-0.6-1.8-1.4-2.1-2.1
				s-0.3-1.2,0.2-1.9S60,167.4,61,167.4z"/>
			<path id="polygon6692" inkscape:connector-curvature="0" class="st9" d="M104.2,188.8l-3.5-2.1l-3.9,2.1l1.1-4.2l-3.2-2.8
				l4.2-0.4l1.8-3.9l1.4,3.9l0,0l4.2,0.4l-3.2,2.8L104.2,188.8z"/>
		</g>
	</g>
	<g id="g8315">
		
			<radialGradient id="circle8241_00000079487137453191176100000015766599102897131400_" cx="44.6121" cy="173.4748" r="56.5" gradientTransform="matrix(-0.1206 17.1308 -15.9996 -0.1127 2881.8743 -647.9935)" gradientUnits="userSpaceOnUse">
			<stop  offset="0" style="stop-color:#FFFFFF"/>
			<stop  offset="0.3591" style="stop-color:#FFFFFF"/>
			<stop  offset="0.7396" style="stop-color:#FCFBFB"/>
			<stop  offset="0.8662" style="stop-color:#EAE7E9"/>
			<stop  offset="1" style="stop-color:#E6E5E5"/>
		</radialGradient>
		
			<circle id="circle8241" style="fill:url(#circle8241_00000079487137453191176100000015766599102897131400_);" cx="100" cy="101.1" r="56.5"/>
		<g id="g8244">
			<path id="path6668" inkscape:connector-curvature="0" class="st9" d="M80.7,127.3c-9.5,3.2-16.2,2.5-24.6-2.1
				c0.4,3.9,0.4,7.4-0.4,10.9c5.6,7.7,15.1,14.8,24.3,17.9c3.2-2.1,6.7-3.2,10.2-3.9C83.5,143.5,80.3,137.2,80.7,127.3L80.7,127.3z
				 M119,127.7c0,9.9-2.8,15.8-9.5,22.9c3.5,0.4,7,1.8,10.2,3.5c9.1-2.8,18.6-9.9,24.3-17.6c-0.7-3.5-0.7-7.4-0.4-10.9
				C135.2,129.8,128.5,130.9,119,127.7L119,127.7L119,127.7z M100,80.2l19.7,14.4l-8.4,22.2H88.4l-7.7-22.2L100,80.2L100,80.2z
				 M130.9,91.1c9.5,2.8,14.4,7.7,19,16.2c1.8-3.2,3.9-6,6.7-8.4c0-9.9-3.9-21.1-9.5-28.9c-3.5-0.4-7-1.4-10.6-3.2
				C138.3,76.3,136.9,83.4,130.9,91.1L130.9,91.1L130.9,91.1z M100,68.6c5.6-8.4,12-11.6,21.5-13c-2.8-2.8-4.9-5.6-6.3-9.2
				c-9.1-2.8-21.1-2.8-30.2,0c-1.4,3.5-3.5,6.3-6,9.2C88.4,57,94.4,60.1,100,68.6L100,68.6L100,68.6z M69.1,90.7
				c-6-7.7-7.4-14.8-5.6-23.9c-3.5,1.4-7,2.5-10.5,2.8c-5.6,7.7-9.5,19.4-9.5,28.8c2.8,2.5,4.9,5.3,6.7,8.4
				C54.6,98.5,59.6,93.6,69.1,90.7L69.1,90.7z"/>
			<path id="path6678" inkscape:connector-curvature="0" d="M100,43.6c-31.8,0-57.5,25.7-57.5,57.5s25.7,57.5,57.5,57.5
				s57.5-25.7,57.5-57.5S131.8,43.6,100,43.6z M100,45.1c30.9,0,56,25.1,56,56s-25.1,56-56,56s-56-25.1-56-56S69.1,45.1,100,45.1
				L100,45.1z"/>
		</g>
	</g>
</g>
</svg>
