<?xml version="1.0" encoding="utf-8"?>
<!-- Generator: Adobe Illustrator 26.0.2, SVG Export Plug-In . SVG Version: 6.00 Build 0)  -->
<svg version="1.1"
	 id="svg2" xmlns:cc="http://creativecommons.org/ns#" xmlns:dc="http://purl.org/dc/elements/1.1/" xmlns:inkscape="http://www.inkscape.org/namespaces/inkscape" xmlns:rdf="http://www.w3.org/1999/02/22-rdf-syntax-ns#" xmlns:sodipodi="http://sodipodi.sourceforge.net/DTD/sodipodi-0.dtd" xmlns:svg="http://www.w3.org/2000/svg"
	 xmlns="http://www.w3.org/2000/svg" xmlns:xlink="http://www.w3.org/1999/xlink" x="0px" y="0px" width="750px" height="1000px"
	 viewBox="0 0 750 1000" style="enable-background:new 0 0 750 1000;" xml:space="preserve">
<style type="text/css">
	.st0{fill:#FFFFFF;}
	.st1{fill:#CBA864;}
	.st2{fill:#24355E;}
	.st3{fill:#EC1D26;}
	.st4{fill:#23345D;}
</style>
<sodipodi:namedview  bordercolor="#666666" borderopacity="1" gridtolerance="10" guidetolerance="10" id="namedview5958" inkscape:current-layer="svg2" inkscape:cx="3538.4156" inkscape:cy="664.79559" inkscape:pageopacity="0" inkscape:pageshadow="2" inkscape:window-height="691" inkscape:window-maximized="1" inkscape:window-width="1280" inkscape:window-x="0" inkscape:window-y="1" inkscape:zoom="0.072462309" objecttolerance="10" pagecolor="#ffffff" showgrid="false">
	</sodipodi:namedview>
<path id="path15510" inkscape:connector-curvature="0" class="st0" d="M236.2,747.6l-4.9-3.9c-13.6-10.9-26.5-21.2-38.5-31.8
	c-38.3-31.6-69.8-59.1-97.4-102.4l-0.6-0.9v0c-10-15.9-15.5-34.7-17.2-59.3c-0.3-5.2-0.6-9.9-0.7-14.4V213.9l-22.3-51.6l10.2-4.1
	c52.4-21.2,107.4-37,163.6-46.9c48.1-8.5,97.5-12.8,146.6-12.8h10.8v0.1c45.6,0.6,91.3,4.9,135.9,12.9c56.1,10,111.1,25.8,163.4,47
	l10.2,4.1l-21.9,51.5v320.9c-0.4,21.6-2.9,49.4-18.1,73.7v0l-0.6,0.9c-27.2,42.5-59.4,70.9-92.8,98.6
	c-13.3,11.9-27.7,23.5-42.9,35.6l-4.8,3.9l-139.2,99.6L236.2,747.6L236.2,747.6z"/>
<g id="g22496" transform="matrix(1.0043975,0,0,1.0043975,-3460.741,500.38628)">
	<path id="path15512" inkscape:connector-curvature="0" class="st1" d="M3819-410.9c-49.6,0-99.3,4.4-147.9,13
		c-56.7,10.1-112.2,26-165.1,47.3l-20.4,8.2l8.7,20.2l8,18.6l8.9,20.7V34.1v0.2v0.2c0,4.7,0.3,9.6,0.7,14.9
		c1.8,25.9,7.6,46,18.2,63.2l0,0.1l1.1,1.7c28.3,44.3,60.3,72.4,99.1,104.4c12.1,10.6,25,20.9,38.6,31.9l4.7,3.7l0.5,0.3l0.5,0.3
		l131.7,94.5l12.5,8.9l12.5-8.9l132.1-94.5l0.5-0.3l0.5-0.4l4.6-3.7c15.2-12.2,29.6-23.7,43-35.8c33.9-28.1,66.6-56.9,94.5-100.5
		l1.1-1.7l0-0.1c16.1-26.2,18.7-55.4,19.1-78v-0.2v-0.2v-317.1l16.6-39.2l8.5-20.1l-20.2-8.2c-52.8-21.4-108.3-37.3-164.9-47.3
		c-41.5-7.4-84-11.7-126.5-12.8v-0.3L3819-410.9L3819-410.9z M3819-389.5L3819-389.5c49.2,0,97.6,4.4,144.2,12.7
		c55.9,9.9,109.7,25.5,160.6,46.1l-18.3,43.2V34.1c-0.5,24.9-3.9,48.1-16.6,68.1l-0.3,0.3c0,0.1,0,0.2-0.3,0.3
		c-25.6,40.2-55.1,66.6-90.4,95.8c-14.3,12.9-29.9,25.2-47,39l-132.1,94.5L3687,237.6c-15.4-12.4-29.6-23.6-42.8-35.2
		c-37.3-30.7-68.2-57.7-94.9-99.6c0-0.1,0-0.2,0-0.3l-0.3-0.3c-10.3-16.3-14.2-34.6-15.7-54.3c-0.3-4.5-0.6-9.1-0.6-13.8v-321.5
		l-10.7-24.7l-8-18.6c51-20.6,104.8-36.2,160.8-46.1c46.6-8.3,94.9-12.7,144.1-12.7"/>
	<g id="g22485">
		<path id="path15516" inkscape:connector-curvature="0" class="st2" d="M3819-389.5v721.2l144.2-105.5v-603
			C3916.5-385,3868.2-389.4,3819-389.5"/>
		<path id="path15518" inkscape:connector-curvature="0" class="st2" d="M3532.9,34.1c0.5,24.9,3.6,48.1,16.3,68.1l0.3,0.3
			c0,0.1,0,0.2,0,0.3c31,48.5,67.5,77,113.1,114.5l12.2,8.9v-603.1c-55.9,9.9-109.8,25.5-160.7,46.1l18.7,43.3L3532.9,34.1
			L3532.9,34.1z"/>
		<path id="path15514" inkscape:connector-curvature="0" class="st3" d="M4105.4-287.4l18.3-43.2c-50.9-20.6-104.7-36.2-160.6-46.1
			v603l12.2-9c45.6-37.4,82.1-65.9,113.1-114.5c0-0.1,0-0.2,0.3-0.3l0.3-0.3c12.7-20,16-43.2,16.5-68.1"/>
		<path id="path15520" inkscape:connector-curvature="0" class="st3" d="M3674.9-376.8v603.1L3819,331.7v-721.2
			C3769.8-389.5,3721.5-385.1,3674.9-376.8"/>
		<path id="path15522" inkscape:connector-curvature="0" class="st2" d="M3618.6-68.5c-30.6,72.4-62.7,156.4-27,211.6
			c26.1,40,57.1,63.7,95.6,94.5l131.8,94.5l132.1-94.5c38.4-30.8,69.3-54.3,95.4-94.2c0-0.1,0-0.2,0.3-0.2v-0.3
			c35.7-55.2,3.7-138.9-26.9-211.3l-26.7-78.9c24.9-17,37.1-41.9,39-66.6c1.4-17.3-2.2-34.6-9.9-48.9c-4.7-8.7-10.9-16.3-18.5-22.3
			c-2.5-2-5.2-3.8-8-5.4c-4.9-2.7-9.3-5-13.5-6.9c-2.1-1-4.2-1.8-6.2-2.6c-4.1-1.6-8-2.9-11.9-4.1c-2-0.6-4-1.1-6-1.6
			c-3-0.8-6.1-1.4-9.3-2.1c-1-0.2-2.1-0.5-3.2-0.7c-4-0.8-7.8-1.7-11.5-2.8c-25.6-7.5-42.6-21.9-50.6-45.9
			c-5.1,9.4-9.7,18.6-9.8,27.5c0,14.8,6.6,28.6,20.2,39.9c1.7,1.4,3.5,2.7,5.2,4.1c6.9,5.5,14.1,10.9,21.3,16
			c1.8,1.3,3.6,2.6,5.4,3.9c10,7.1,14.9,17.4,15.1,27.6c0,6.1-1.5,12.2-4.7,17.5c-8-5.2-16.5-10.1-25.6-14.7
			c-18.1-9.1-38.3-16.8-60-23.2c-10.9-3.2-20.1-6.1-31.7-8.7c-11.6,2.6-20.7,5.4-31.6,8.7c-21.8,6.4-41.9,14.1-60.1,23.2
			c-9,4.6-17.6,9.5-25.6,14.7c-3.2-5.3-4.8-11.4-4.7-17.5c0.3-10.2,5.1-20.4,15.2-27.6c1.8-1.3,3.6-2.6,5.4-3.9
			c7.2-5.2,14.3-10.5,21.3-16c1.7-1.4,3.6-2.7,5.2-4.1c13.6-11.3,20.3-25.1,20.2-39.9c0-8.9-4.7-18.2-9.8-27.5
			c-8.1,24-25,38.4-50.6,45.9c-3.6,1.1-7.5,2-11.5,2.8c-1.1,0.2-2.1,0.5-3.2,0.7c-3.2,0.7-6.3,1.3-9.3,2.1c-2,0.5-4,1-6,1.6
			c-3.9,1.1-7.8,2.4-11.9,4.1c-2,0.8-4.1,1.7-6.2,2.6c-4.2,1.9-8.7,4.2-13.5,6.9c-2.8,1.6-5.5,3.4-8,5.4c-7.6,6-13.8,13.6-18.5,22.3
			c-7.8,14.3-11.3,31.6-9.9,48.9c2,24.7,14.1,49.6,39,66.6L3618.6-68.5L3618.6-68.5z"/>
	</g>
</g>
<g id="g22422" transform="matrix(1.0043975,0,0,1.0043975,-3460.741,500.38628)">
	<path id="path15524" inkscape:connector-curvature="0" class="st0" d="M3819,59.2c33.8,0,61.2,18.6,61.2,41.5l-21.1,31.3
		l-20.9-40.2v-9.5h-38.4v9.5l-20.9,40.2l-21.1-31.3C3757.8,77.8,3785.2,59.2,3819,59.2"/>
	<path id="path15526" inkscape:connector-curvature="0" class="st0" d="M3775-54.3l-46.7,8.2L3703-66.8
		C3703-66.8,3775-54.3,3775-54.3z"/>
	<path id="path15528" inkscape:connector-curvature="0" class="st0" d="M3862.4-54.3l46.7,8.2l25.3-20.7
		C3934.4-66.8,3862.4-54.3,3862.4-54.3z"/>
	<path id="path15530" inkscape:connector-curvature="0" class="st0" d="M4032.2-214c1.4-17.3-2.2-34.6-10-48.9
		c-4.7-8.7-11-16.3-18.5-22.3c-2.5-2-5.2-3.8-8-5.4c-4.9-2.7-9.3-5-13.6-6.9c-2.1-1-4.2-1.8-6.2-2.6c-4.1-1.6-8-2.9-11.9-4.1
		c-2-0.6-4-1.1-6-1.6c-3-0.7-6.1-1.4-9.3-2c-1-0.2-2-0.5-3.2-0.7c-4.1-0.8-7.9-1.7-11.5-2.8c-25.7-7.5-42.6-21.9-50.7-45.9
		c-5,9.4-9.7,18.6-9.8,27.5c0,14.8,6.6,28.6,20.1,39.9c1.7,1.4,3.6,2.7,5.3,4.1c6.9,5.5,14,10.9,21.3,16c1.8,1.3,3.6,2.6,5.4,3.9
		c10,7.1,15,17.4,15.1,27.6c0,6.1-1.5,12.2-4.7,17.5c-8-5.2-16.5-10.1-25.6-14.7c-18.2-9.1-38.3-16.8-60.1-23.3
		c-10.8-3.2-20.1-6.1-31.7-8.6c-11.6,2.6-20.7,5.4-31.6,8.6c-21.8,6.4-41.9,14.2-60.1,23.3c-9,4.6-17.6,9.5-25.6,14.7
		c-3.2-5.3-4.7-11.4-4.7-17.5c0.3-10.2,5.2-20.4,15.2-27.6c1.8-1.3,3.6-2.6,5.4-3.9c7.2-5.2,14.3-10.5,21.3-16
		c1.7-1.4,3.5-2.7,5.2-4.1c13.5-11.3,20.3-25.1,20.1-39.9c0-8.9-4.7-18.1-9.8-27.5c-8,24-25,38.4-50.6,45.9c-3.7,1.1-7.5,2-11.5,2.8
		c-1.1,0.2-2.1,0.4-3.2,0.7c-3.2,0.7-6.3,1.3-9.3,2c-2,0.5-4,1-6,1.6c-3.9,1.1-7.9,2.5-11.9,4.1c-2,0.8-4.1,1.7-6.2,2.6
		c-4.2,1.9-8.7,4.2-13.6,6.9c-2.8,1.6-5.4,3.4-8,5.4c-7.6,6-13.7,13.6-18.4,22.3c-7.8,14.3-11.3,31.6-9.9,48.9
		c2,24.7,14.1,49.6,39,66.6l-26.3,79l45-44.1L3791-77.2l3,52.1l-80.9,14.9l-1.2-6.2L3674-60.8l-12.8,25.1l68.9,95l0.6,3
		c13.7-16.6,41.9-32.1,70.2-36.5l-5.1-19.4h46.4l-5.1,19.4c28.3,4.3,56.5,16.6,70.2,33.2l0.6,3.6l69-98.3L3964-60.8l-37.8,44.5
		l-1.2,6.2l-80.9-14.9l2.9-52.1l127.5-35.4l45.3,44.1l-26.7-79C4018.1-164.4,4030.2-189.3,4032.2-214"/>
	<path id="path15532" inkscape:connector-curvature="0" class="st2" d="M3682.7-152.4c0-7.4,6.3-13.4,14.1-13.4
		c7.8,0,14.1,6,14.1,13.4c0,7.4-6.3,13.4-14.1,13.4C3689-139,3682.7-145,3682.7-152.4 M3804.9-121.6c0-7.4,6.3-13.4,14.1-13.4
		c7.8,0,14.1,6,14.1,13.4c0,7.4-6.3,13.4-14.1,13.4C3811.3-108.2,3804.9-114.2,3804.9-121.6 M3927.2-152.4c0-7.4,6.3-13.4,14.1-13.4
		c7.8,0,14.1,6,14.1,13.4c0,7.4-6.3,13.4-14.1,13.4C3933.5-139,3927.2-145,3927.2-152.4"/>
</g>
<g id="g22505" transform="matrix(1.0043975,0,0,1.0043975,-3460.741,500.38628)">
	<path id="path15498" inkscape:connector-curvature="0" class="st4" d="M3818.7,488.8c-104.5,0-206.4-19.7-302.9-58.6l-6.7-2.7
		l9.9-24.5c-17-6.8-33.5-14-49-21.5l-10.2-4.9l65.3-52.9v-83.3l10.3,4.9c20.6,9.9,42,18.8,63.6,26.5l7.2,2.5l-9.5,22.2
		c71.3,25.6,145.9,38.6,221.9,38.6l0,0c76,0,150.6-13,221.8-38.5l-9.5-22.2l7.2-2.6c21.6-7.6,43-16.5,63.6-26.4l10.3-4.9v83.2
		l66,53.9l-10.2,4.9c-15.6,7.5-32.1,14.7-49.1,21.5l9.5,23.6l-6.6,2.7C4025.2,469.1,3923.2,488.8,3818.7,488.8"/>
	<path id="path15534" inkscape:connector-curvature="0" class="st4" d="M3819,485.2c-104.1,0-205.5-19.7-301.6-58.4l-3.3-1.3
		l54.9-135.8l3.3,1.3c78.6,31.7,161.6,47.8,246.7,47.8h0c85.1,0,168.1-16,246.7-47.8l3.3-1.3l54.9,135.8l-3.3,1.3
		C4024.5,465.6,3923,485.2,3819,485.2"/>
	<g id="g22492">
		<path id="path15500" inkscape:connector-curvature="0" class="st1" d="M3518.1,228.9v22.7v68.5l-53.9,43.7l-17.6,14.2l20.4,9.8
			c13.7,6.6,28,12.9,42.8,19l-4.5,11.3l-5.4,13.3l13.3,5.3c48.5,19.5,99.1,34.5,150.5,44.4c50.9,9.8,103.1,14.8,155.1,14.8
			c51.9,0,104.1-5,155.1-14.8c51.4-9.9,102-24.9,150.5-44.4l13.3-5.3l-5.4-13.3l-4.1-10.3c14.8-6.1,29.2-12.4,42.9-19l20.3-9.7
			l-17.4-14.2l-54.7-44.7v-68.5V229l-20.5,9.8c-20.4,9.8-41.6,18.5-62.9,26.1l-14.3,5.1l6,14l3.5,8.1
			c-68.2,23.6-139.5,35.6-212.2,35.6c-72.7,0-144.1-12-212.4-35.6l3.5-8.2l6-14l-14.3-5.1c-21.4-7.6-42.5-16.4-63-26.2L3518.1,228.9
			z M3532.3,251.6c21.1,10.1,42.6,19,64.4,26.8l-9.5,22.1c74.6,27.8,153,41.6,231.5,41.6c78.4,0,156.8-13.9,231.3-41.6l-9.4-22.1
			c21.8-7.7,43.3-16.6,64.3-26.7V327l60,49c-18.2,8.7-36.7,16.7-55.4,23.9l9.5,23.6c-96.1,38.8-198.2,58.2-300.2,58.2
			c-102.1,0-204.2-19.4-300.3-58.2l9.9-24.6c-18.6-7.3-37.1-15.2-55.3-24l59.2-48V251.6"/>
		<path id="path15536" inkscape:connector-curvature="0" class="st1" d="M4071,285l-6.6,2.7c-78.2,31.5-160.7,47.5-245.4,47.5
			c-84.6,0-167.2-16-245.4-47.5l-6.7-2.7l-2.7,6.6l-52.2,129.2l-2.7,6.7l6.7,2.7c48,19.4,98.2,34.2,149.2,44
			c50.5,9.7,102.2,14.7,153.7,14.7s103.2-4.9,153.7-14.7c51-9.8,101.2-24.6,149.2-44l6.6-2.7l-2.7-6.7l-52.2-129.2L4071,285
			L4071,285z M4067,294.3l52.2,129.2c-96.1,38.8-198.2,58.1-300.2,58.1c-102.1,0-204.2-19.4-300.2-58.1l52.2-129.2
			c79.4,32,163.7,48,248.1,48C3903.3,342.3,3987.7,326.3,4067,294.3"/>
	</g>
</g>
<g id="g22441" transform="matrix(1.0043975,0,0,1.0043975,-3460.741,500.38628)">
	<g id="g22407">
		<path id="path15538" inkscape:connector-curvature="0" class="st1" d="M3468.4-380.3c-1.5-3.4-0.4-6.5,2.6-7.8
			c3.2-1.4,6.2,0.1,7.2,2.5c0.5,1.1,0.6,2.1,0.6,3.2c2.3,0.5,5.3,0.1,8.4-1.2c5.2-2.3,7.5-6,5.8-10.1c-1.7-3.9-6.5-4.1-12-3.7
			c-10.2,0.6-17.6,0.5-21.4-8.4c-3.3-7.6,0.3-16.2,10-20.3c8.9-3.8,17.7-2.2,20.2,3.5c1.5,3.4,0.3,6.2-2.6,7.4
			c-3.3,1.4-6.2-0.2-7.3-2.6c-0.5-1.1-0.5-1.8-0.5-2.5c-1.6-0.2-4,0-6.9,1.2c-4.7,2-6.4,5.6-5,9c1.7,3.9,6.4,4,11.9,3.6
			c9.8-0.6,17.5-0.4,21.3,8.4c3.9,9-0.9,17.2-10.7,21.4C3480.7-372.5,3470.8-374.6,3468.4-380.3"/>
		<path id="path15540" inkscape:connector-curvature="0" class="st1" d="M3521.7-399l6.1-2.2l-12.3-34l-9,3.3l2.8,7.7l-7.9,2.9
			l-5.4-15l42.3-15.3l5.4,15l-7.9,2.9l-2.8-7.7l-9,3.2l12.3,34l6.1-2.2l2.7,7.5l-20.5,7.4L3521.7-399L3521.7-399z"/>
		<path id="path15542" inkscape:connector-curvature="0" class="st1" d="M3583.1-435.8l-12.7-17.5l-1.2,21.6L3583.1-435.8
			L3583.1-435.8z M3555.5-411.2l4.3-1.2l2.2-38.1l-5.4,1.6l-2.2-7.6l28.1-8.2l2.3,7.6l-5.5,1.6l22.5,30.8l4.3-1.2l2.3,7.6l-19.1,5.6
			l-2.2-7.6l5.8-1.7l-5.2-7.3L3569-424l-0.4,9l6-1.8l2.2,7.5l-19.1,5.6L3555.5-411.2L3555.5-411.2z"/>
		<path id="path15544" inkscape:connector-curvature="0" class="st1" d="M3632.6-432.1c13.1-2.9,18.3-11.4,15.9-22.3
			c-2.4-11.1-11.6-15.4-24.2-12.7l-4.4,1l7.7,35L3632.6-432.1L3632.6-432.1z M3613.2-427.8l5.8-1.2l-7.7-35l-5.8,1.2l-1.7-7.7
			l19.1-4.2c18.3-4,31.2,3.2,34.6,18.4c3.4,15.4-4.6,28-24.4,32.3l-18.2,4L3613.2-427.8L3613.2-427.8z"/>
		<path id="path15554" inkscape:connector-curvature="0" class="st1" d="M3671.5-440.1l5.8-0.9l-5.4-35.5l-5.9,0.9l-1.2-7.8
			l38.2-5.8l2.2,14.6l-8.4,1.3l-1-6.9l-15.2,2.3l2.1,13.7l15.5-2.3l1.1,7.5l-15.5,2.4l2.2,14.5l15.3-2.3l-1-6.9l8.4-1.3l2.2,14.6
			l-38.3,5.9L3671.5-440.1z"/>
		<path id="path15556" inkscape:connector-curvature="0" class="st1" d="M3740.7-449.7l6.1-0.3l-0.3-35.9l-6.4,0.4l-0.5-7.9
			l14.1-0.8l17.5,27.9l14.3-29.6l14-0.8l0.5,7.9l-6.4,0.4l3.6,35.7l6.1-0.3l0.5,7.9l-21.2,1.2l-0.5-7.9l6.2-0.3l-2.5-26.6
			l-13.3,26.7l-1.2,0.1l-16.2-25.1l0.4,26.7l6.2-0.3l0.5,7.9l-21,1.1L3740.7-449.7L3740.7-449.7z"/>
		<path id="path15566" inkscape:connector-curvature="0" class="st1" d="M3843.6-468.2l-6.8-20.5l-7.7,20.2L3843.6-468.2
			L3843.6-468.2z M3809.8-453l4.5,0.1l13.7-35.7l-5.7-0.1v-7.9l29.3,0.6v7.9l-5.7-0.1l12.2,36.2l4.5,0.1v7.9l-19.9-0.4l0.3-7.9
			l6,0.1l-2.7-8.6l-19.4-0.4l-3.1,8.4l6.3,0.1v7.9l-19.9-0.4v-7.9L3809.8-453z"/>
		<path id="path15568" inkscape:connector-curvature="0" class="st1" d="M3870-451.3l5.9,0.5l3-35.7l-5.9-0.5l0.7-7.9l21.6,1.8
			l-0.7,7.9l-6.8-0.6l-3,35.8l14.2,1.2l0.6-7.3l8.5,0.7l-1.2,15.1l-37.5-3.1L3870-451.3z"/>
		<path id="path15570" inkscape:connector-curvature="0" class="st1" d="M3916.5-447.4l5.8,0.9l5.3-35.5l-5.9-0.9l1.2-7.9l21,3.1
			l-1.2,7.8l-6.4-0.9l-2,13.6l23.6,3.5l2-13.6l-6.4-0.9l1.1-7.9l21,3.1l-1.1,7.8l-5.9-0.8l-5.2,35.5l5.8,0.9l-1.1,7.9l-21-3.1
			l1.1-7.9l6.4,1l2.1-14.2l-23.6-3.5l-2.1,14.2l6.4,1l-1.2,7.8l-21-3.1L3916.5-447.4L3916.5-447.4z"/>
		<path id="path15572" inkscape:connector-curvature="0" class="st1" d="M3978.6-437.7l5.8,1.2l7.6-35l-5.8-1.2l1.7-7.8l37.7,8.2
			l-3.1,14.5l-8.3-1.8l1.5-6.8l-15-3.3l-2.9,13.5l15.3,3.3l-1.6,7.3l-15.3-3.3l-3.1,14.3l15.1,3.3l1.5-6.8l8.3,1.8l-3.2,14.4
			l-37.8-8.2L3978.6-437.7L3978.6-437.7z"/>
		<path id="path15574" inkscape:connector-curvature="0" class="st1" d="M4064.2-445.4c1.5-5.2-2.1-8.9-9-10.9l-4.6-1.3l-4.5,15.9
			c0.9,0.3,2.1,0.8,4.8,1.5C4057.2-438.2,4062.7-440.1,4064.2-445.4 M4026.6-427.1l5.6,1.6l9.7-34.5l-5.6-1.6l2.1-7.7l19.3,5.4
			c11.4,3.2,18.2,10.5,15.4,20.6c-1.8,6.4-7.1,10.2-13.2,10.9l3.8,15.7l5.7,1.6l-2.1,7.7l-11.5-3.3l-4.7-21.7
			c-1.1-0.2-2.1-0.4-3.1-0.7c-1.6-0.5-3.1-0.9-4.1-1.2l-3.2,11.2l6.2,1.8l-2.1,7.6l-20.4-5.8L4026.6-427.1L4026.6-427.1z"/>
		<path id="path15576" inkscape:connector-curvature="0" class="st1" d="M4103.7-426.4c5.9,2,10.1,0.5,11.5-3.7
			c1.5-4.2-1.1-7.7-7.1-9.7l-5.5-1.9l-4.7,13.3L4103.7-426.4z M4097.3-405.3c5.8,2,10.5,1,12.1-3.7c1.6-4.5-1.1-8.3-7.4-10.5
			l-6.4-2.3l-4.9,14.1L4097.3-405.3z M4076.9-412.5l5.5,1.9l11.9-33.9l-5.6-1.9l2.6-7.5l19.5,6.8c12,4.2,15.9,11.8,13.3,19.1
			c-2,5.6-6.8,8.1-12.2,8c5.5,3.9,7.9,8.7,5.8,14.8c-2.8,8.1-11.3,11.4-23.2,7.2l-20.4-7.1L4076.9-412.5L4076.9-412.5z"/>
		<path id="path15578" inkscape:connector-curvature="0" class="st1" d="M4124.5-395.6l5.4,2.3l13.8-33.1l-5.4-2.3l3.1-7.3
			l35.6,14.9l-5.7,13.7l-7.8-3.3l2.7-6.4l-14.1-5.9l-5.3,12.8l14.4,6l-2.9,7l-14.4-6l-5.6,13.5l14.2,5.9l2.7-6.4l7.8,3.3l-5.7,13.7
			l-35.7-14.9L4124.5-395.6L4124.5-395.6z"/>
	</g>
	<g id="g22429">
		<path id="path15584" inkscape:connector-curvature="0" class="st0" d="M3663,396.1c3.5-20.9,22.4-33.3,42.7-29.8
			c16.2,2.7,25.5,13,24.1,21.4c-0.9,5.1-4.7,8-9.1,7.3c-4.7-0.8-7.5-4.3-6.8-8.9c0.3-1.4,0.8-2.7,1.4-3.5c-1.7-1.9-5.5-4.2-11.9-5.2
			c-13.5-2.3-25.6,6.3-28.1,20.8c-2.4,14,5.5,26.7,20.2,29.2c8.1,1.4,15.4-1.1,21.5-5.8l6.6,9.6c-8,6.3-18.9,9.2-30,7.3
			C3672.3,434.7,3659.4,417.7,3663,396.1"/>
		<path id="path15586" inkscape:connector-curvature="0" class="st0" d="M3784.4,414l-8.2-28.3l-11.5,27.2L3784.4,414L3784.4,414z
			 M3737.6,432.9l6.1,0.3l20.4-47.9l-7.7-0.5l0.6-10.7l39.9,2.3l-0.6,10.7l-7.7-0.5l14.7,50l6.1,0.3l-0.6,10.8l-27.1-1.6l0.6-10.7
			l8.1,0.5l-3.3-11.8l-26.4-1.5l-4.6,11.3l8.6,0.5l-0.6,10.7l-27.1-1.6L3737.6,432.9L3737.6,432.9z"/>
		<path id="path15588" inkscape:connector-curvature="0" class="st0" d="M3822.9,436.7l8-0.3l-2-48.9l-8,0.3l-0.5-10.8l52.6-2.1
			l0.8,20.2l-11.6,0.5l-0.3-9.4l-20.9,0.8l0.8,18.9l21.4-0.9l0.4,10.3l-21.4,0.8l0.8,19.9l21-0.8l-0.4-9.4l11.6-0.5l0.8,20.1
			l-52.8,2.1L3822.9,436.7L3822.9,436.7z"/>
		<path id="path15590" inkscape:connector-curvature="0" class="st0" d="M3906.9,393.2l5.4,37.5l8.7-1.2l1.6,10.7l-28.4,4.2
			l-1.6-10.7l7.9-1.1l-7-48.4l-8,1.1l-1.6-10.7l18.2-2.7l40.8,38.9l-4.8-33.1l-8.7,1.2L3928,368l28.1-4.1l1.5,10.7l-7.6,1.1
			l8.6,59.3l-6.4,1.1L3906.9,393.2L3906.9,393.2z"/>
	</g>
	<g id="g22435">
		<path id="path15580" inkscape:connector-curvature="0" class="st1" d="M3579.7,388.2l6.4,2l7.8-24l-6.3-0.5l0.3-5.7l11.2,0.7
			l3.1,1l-9.8,30.5l6.3,2l-1.8,5.5l-18.9-6.1L3579.7,388.2L3579.7,388.2z"/>
		<path id="path15582" inkscape:connector-curvature="0" class="st1" d="M3632.5,383.1c0.5-1.9,0-3.8-1-5.4c-1.1-1.7-2.8-3-5.1-3.6
			c-4-1.1-7.9,1-8.9,4.5c-1,3.8,1.4,7.1,5.9,8.4C3627.5,388.2,3631.5,386.7,3632.5,383.1 M3612.5,393.5c2.6,0.7,3.3,3,2.8,4.7
			c0,0.5-0.3,0.9-0.5,1.2c0.7,0.5,1.7,0.9,3,1.3c5.2,1.5,11-2.6,13-9.7c-2.8,1.6-6.6,2-9.8,1.2c-7.5-2-11.6-8.5-9.8-15
			c1.9-6.8,9.1-10.5,16.9-8.3c4.2,1.1,7.1,3.6,8.8,6.6c2.2,4,2.3,8.7,0.6,14.8c-3.5,12.7-12.5,18.2-21.2,15.8
			c-3.2-0.9-5.9-2.5-7.4-4.5c-1.2-1.6-1.7-3.4-1.2-5.2C3608.4,393.6,3610.6,393,3612.5,393.5"/>
		<path id="path15592" inkscape:connector-curvature="0" class="st1" d="M3995.5,405.2l7.3-1.9l-7.1-27.5l-6.3,3.4l-3.2-5.6l11-6.1
			l3.6-0.9l9,34.9l7.2-1.9l1.6,6.3l-21.6,5.6L3995.5,405.2L3995.5,405.2z"/>
		<path id="path15594" inkscape:connector-curvature="0" class="st1" d="M4046.4,385.4c-0.8-2.5-2.6-4.1-5.9-4.3
			c-1.8-0.1-4.1,0.2-6.9,1.1l-2.6,0.8l-1.9-6.2l2.8-0.9c2.6-0.8,4.7-2,6.1-3.3c1.8-1.8,2.4-3.8,1.7-6.2c-1.1-3.4-5.2-3.8-8.8-2.6
			c-2.5,0.8-4.3,1.9-5.2,3.1c0.7,0.5,1.3,1.4,1.6,2.1c0.7,2.3-0.6,4.8-2.9,5.5c-2.3,0.7-5-0.6-5.9-3.6c-0.3-1.1-0.3-2.6,0.3-4.2
			c1.1-3.3,4.4-7,10.7-8.9c8-2.5,15.6,0,17.5,6.1c1.1,3.4,0,7-2.2,9.6c-0.8,1-2,1.9-3.1,2.5c1.3,0,2.7,0.1,4.1,0.4
			c3.6,0.8,7,2.8,8.3,7.1c2.3,7.1-3.5,13.6-11.9,16.3c-6,1.9-11.8,1-15.2-1.4c-1.3-0.9-2.3-2.2-2.7-3.6c-0.8-2.6,0.3-5.3,2.8-6.1
			c2.4-0.8,4.8,0.5,5.5,2.8c0.3,0.9,0.3,1.9,0,2.8c2.1,0.7,5.2,0.4,7.8-0.4c4.2-1.3,7.6-4.8,6.4-8.5"/>
	</g>
</g>
</svg>
