<?xml version="1.0" encoding="utf-8"?>
<!-- Generator: Adobe Illustrator 26.0.2, SVG Export Plug-In . SVG Version: 6.00 Build 0)  -->
<svg version="1.1"
	 id="svg824" xmlns:inkscape="http://www.inkscape.org/namespaces/inkscape" xmlns:sodipodi="http://sodipodi.sourceforge.net/DTD/sodipodi-0.dtd" xmlns:svg="http://www.w3.org/2000/svg"
	 xmlns="http://www.w3.org/2000/svg" xmlns:xlink="http://www.w3.org/1999/xlink" x="0px" y="0px" width="625px" height="700px"
	 viewBox="0 0 625 700" style="enable-background:new 0 0 625 700;" xml:space="preserve">
<style type="text/css">
	.st0{fill:#D2BC20;}
	.st1{fill-rule:evenodd;clip-rule:evenodd;}
	.st2{fill-rule:evenodd;clip-rule:evenodd;fill:#ED1C24;}
	.st3{fill-rule:evenodd;clip-rule:evenodd;fill:#449D47;}
	.st4{fill-rule:evenodd;clip-rule:evenodd;fill:#F8D712;}
	.st5{fill-rule:evenodd;clip-rule:evenodd;fill:#D2BC20;}
	.st6{fill-rule:evenodd;clip-rule:evenodd;fill:#F0D539;}
	.st7{fill-rule:evenodd;clip-rule:evenodd;fill:#FFFFFF;}
	.st8{fill-rule:evenodd;clip-rule:evenodd;fill:#231F20;}
	.st9{fill:#D2BC20;stroke:#D2BC20;stroke-width:1.1427;stroke-miterlimit:40.7573;}
	.st10{fill:#D2BC20;stroke:#D2BC20;stroke-width:1.1427;stroke-miterlimit:30.568;}
</style>
<sodipodi:namedview  bordercolor="#666666" borderopacity="1.0" id="namedview826" inkscape:current-layer="g830" inkscape:cx="273.75819" inkscape:cy="304.17576" inkscape:pagecheckerboard="0" inkscape:pageopacity="0.0" inkscape:pageshadow="2" inkscape:window-height="900" inkscape:window-maximized="0" inkscape:window-width="1440" inkscape:window-x="0" inkscape:window-y="0" inkscape:zoom="0.44382234" pagecolor="#ffffff" showgrid="false">
	</sodipodi:namedview>
<g id="g830" transform="matrix(1.3333333,0,0,-1.3333333,-104.152,690.60398)" inkscape:groupmode="layer" inkscape:label="Logo FeÃÅdeÃÅration Camerounaise Football">
	<g id="g1412">
		<path id="path1317" class="st0" d="M154.3,74.8c-10.8,0-18.6-2.2-26.9-4.6c-9.9-2.8-20.5-5.8-38-5.2l-11.3,0.4l8.3-7.7
			c3-2.8,5.7-6.3,8.3-9.7c5.1-6.7,10.3-13.5,18.9-17.2c-1.9-4.5-4.3-8.7-7.2-12.8c-3.8-5.3-8.3-10.3-13.4-15.1l-7.7-7.3L96-4.4
			c18,0.2,29.6,3.9,40.2,7.4c14.7,4.7,27.3,6.8,42.5,3l2.5,6l-18.3,59.7l-0.8,2.8l-3,0.2C157.5,74.7,155.9,74.8,154.3,74.8z"/>
		<path id="path838" class="st1" d="M158.9,70.4c-26.6,1.5-35-10.8-69.6-9.7c9.9-9.2,14.8-23.3,29.8-27.5
			C114.9,20.6,106.4,9.8,96-0.2c38.2,0.3,47.2,17.7,80.4,11.1L158.9,70.4"/>
		<path id="path1387" class="st0" d="M151.4,48.5c-1.8,0-3.4-1.2-4-3c-0.4-1.3-0.1-2.7,0.7-3.7l0,0l-1.6-0.4l26.4-33
			c1.4-1.9,4-2.3,5.9-0.9c0.7,0.5,1.1,1.1,1.4,1.8h0l9.2,23.5c0.8,2.2-0.2,4.6-2.4,5.5c-0.2,0.1-0.4,0.1-0.6,0.2l-33.9,9.9
			C152.3,48.4,151.9,48.5,151.4,48.5z"/>
		<path id="path842" class="st1" d="M150.6,44l25.8-33.2l9.2,23.5L150.6,44"/>
	</g>
	<g id="g1418">
		<path id="path1340" class="st0" d="M470.6,74.8c-1.5,0-3.1,0-4.8-0.1l-3-0.2l-0.8-2.8l-18-60l1.8-5.7l3.5,0.8
			c17,3.4,27.5,0.1,39.3-3.8C499.3-0.5,511-4.2,529-4.4l10.6-0.1l-7.7,7.3c-5,4.8-9.6,9.8-13.4,15.1c-2.9,4.1-5.3,8.3-7.2,12.8
			c8.6,3.7,13.8,10.4,18.9,17.2c2.6,3.5,5.3,6.9,8.3,9.7l8.3,7.7L535.6,65c-17.5-0.6-28.1,2.4-38,5.2
			C489.2,72.5,481.4,74.7,470.6,74.8z"/>
		<path id="path834" class="st1" d="M466.1,70.4c26.6,1.5,35-10.8,69.6-9.7c-9.9-9.2-14.8-23.3-29.8-27.5
			c4.2-12.7,12.7-23.5,23.1-33.5c-38.2,0.3-47.2,17.7-80.4,11.1L466.1,70.4"/>
		<path id="path1364" class="st0" d="M473.5,48.5c-0.4,0-0.8,0-1.3-0.2l-33.9-9.9c-0.2,0-0.4-0.1-0.5-0.2c-2.2-0.8-3.2-3.3-2.4-5.5
			l9.2-23.5l0,0c0.3-0.7,0.7-1.4,1.4-1.8c1.9-1.4,4.5-1,5.9,0.9l26.2,33l-0.7,4.1C477,47.3,475.3,48.4,473.5,48.5z"/>
		<path id="path846" class="st1" d="M473.4,44.3l-24.8-33.4l-9.2,23.5L473.4,44.3"/>
	</g>
	<path id="path1294" class="st0" d="M125.8,518l1.7-232.5c-0.9-125.6,49.7-171.7,89.9-203.7l-49.7,18.8l-4.3,1.6l-17.1-60.7l4-1.2
		l161-46.9l1.2-0.3l1.2,0.3l161,46.9l4,1.2l-17.1,60.7l-4.3-1.6l-49.7-18.8c40.2,32,90.8,78.2,89.9,203.7l1.7,232.5H130.1H125.8z"/>
	<path id="path850" class="st1" d="M312.5,513.7H130.1l1.7-228.3c-1-146.6,69.1-183.1,109-217l-74.4,28.2l-14.8-52.3l161-46.9
		l161,46.9l-14.8,52.3l-74.4-28.2c39.9,33.9,110,70.5,109,217l1.7,228.3H312.5"/>
	<g id="g1425">
		<path id="path1049" class="st0" d="M148.8,438.8h327.3h4.2l0.6-151.4v-0.1C478.6,120.8,365.1,73.7,323,56.3
			c-3.6-1.5-6.7-2.8-8.8-3.7l-1.7-0.8l-1.7,0.8c-2.1,1-5.2,2.2-8.8,3.7c-42.1,17.5-155.6,64.6-157.9,231.1v0.1l0.6,151.4
			L148.8,438.8"/>
		<g id="g1280">
			<path id="path854" class="st2" d="M261.9,434.6V80c22-12.6,41.1-19.3,50.6-23.7C322,60.7,341.1,67.5,363,80v2.5v352.1h-50.6
				L261.9,434.6L261.9,434.6z"/>
			<path id="path858" class="st3" d="M257.7,434.6V82.5c-48.3,28.8-107.8,85.8-109.5,204.9l0.6,147.2L257.7,434.6"/>
			<path id="path862" class="st4" d="M367.3,82.5v352.1h108.9l0.6-147.2C475.1,168.3,415.5,111.3,367.3,82.5"/>
		</g>
	</g>
	<g id="g1045">
		<path id="path864" class="st5" d="M343.4,382.9L324.3,369l7.3-22.6l-19.2,13.9l-19.2-13.9l7.3,22.6l-19.1,13.9h23.7l7.3,22.6
			l7.3-22.6H343.4"/>
		<path id="path866" class="st6" d="M312.3,362.6V374l-14.1-21.1L312.3,362.6"/>
		<path id="path868" class="st6" d="M312.3,374.1l-25.8,7.2l15.2-11.2L312.3,374.1"/>
		<path id="path870" class="st6" d="M327,352.7l-5.5,16.5l-9.2,4.8L327,352.7"/>
		<path id="path872" class="st6" d="M312.3,374.1v26.2l-5.3-17.4L312.3,374.1"/>
		<path id="path874" class="st6" d="M337.2,381h-17.6l-7.3-6.8L337.2,381"/>
	</g>
	<g id="g1503">
		<path id="path876" class="st7" d="M312.6,313.4c46.5,0,84.8-37.9,84.8-84.8c0-46.8-38.3-84.4-84.8-84.4
			c-46.5,0-84.4,37.6-84.4,84.4C228.2,275.5,266.1,313.4,312.6,313.4"/>
		<path id="path878" class="st0" d="M312.6,314.7L312.6,314.7L312.6,314.7c23.6,0,45.1-9.6,60.7-25.2c15.6-15.6,25.3-37.1,25.3-60.8
			h0v0h0c0-23.8-9.7-45.2-25.3-60.7c-15.6-15.5-37.1-25-60.7-25v0h0v0c-23.6,0-45,9.5-60.5,25c-15.5,15.5-25.1,36.9-25.1,60.6h0v0h0
			c0,23.8,9.6,45.3,25.1,60.8C267.6,305,289,314.6,312.6,314.7L312.6,314.7L312.6,314.7z M312.6,312.1L312.6,312.1L312.6,312.1
			L312.6,312.1c-22.9,0-43.7-9.3-58.8-24.5c-15.1-15.1-24.4-36-24.4-59.1h0v0h0c0-23.1,9.3-43.8,24.4-58.9
			c15.1-15,35.9-24.3,58.8-24.3v0h0v0c22.9,0,43.8,9.3,58.9,24.3c15.2,15,24.6,35.8,24.6,58.9h0v0h0c0,23.1-9.4,43.9-24.6,59.1
			C356.4,302.8,335.5,312.1,312.6,312.1"/>
		<path id="path880" class="st8" d="M312.6,313.4c7.9,0,15.7-1,23.2-3.4l1.4-10.9c12.3-7.2,23.9-15.7,34.2-25l11.3,2.1
			c8.5-13,14-28,14.4-44.4l-9.9-5.1c-3.1-13.7-7.5-27.3-13.3-40l5.5-9.9c-9.6-12.3-22.9-21.9-37.9-27.3l-7.5,7.9
			c-14.4-1-28-1-42,0.3l-7.9-8.2c-15,5.5-28,15-37.9,27.3l5.1,9.6c-5.5,13-9.9,26.7-12.7,40.3l-10.3,5.1
			c0.3,16.4,5.8,31.5,14.4,44.4l10.9-2.1c10.6,9.2,22.2,17.8,34.5,24.6l1.4,11.3C296.9,312.4,304.7,313.4,312.6,313.4L312.6,313.4z
			 M256.9,271.7l6.5-25.3l42.4-13.7l-1-3.4l-42.4,14l-20.2-16.7c3.1-13,7.2-25.6,12.3-37.9l26.3-1.4l26,35.9l2.7-1.7l-26-36.2
			l9.2-23.9c13.3-1,26.3-1,39.7-0.3l9.6,24.3l-26.3,36.2l2.7,1.7l26.3-35.9l26,1.4c5.1,12.3,9.2,25.3,12.3,37.9l-20.2,16.7l-42.4-14
			l-1,3.4l42.4,13.7l6.5,25.3c-10.3,8.6-20.8,16.4-32.1,23.6l-21.9-14.4v-44.4h-3.1v44.4l-21.9,14
			C277.7,288.1,266.8,280.2,256.9,271.7"/>
		<path id="path882" class="st0" d="M312.6,314.7L312.6,314.7L312.6,314.7c4,0,8-0.3,11.9-0.8c0.6-0.1,1.3-0.2,1.9-0.3
			c3.3-0.6,6.5-1.3,9.8-2.4l0.8-0.2l0.1-0.8l1.3-10.3c1.5-0.9,3.1-1.8,4.6-2.8c1.7-1.1,3.4-2.1,5.1-3.3c8.4-5.6,16.4-11.8,23.7-18.3
			l10.7,1.9l0.8,0.1l0.5-0.7l0.1-0.1c1.2-1.8,2.3-3.7,3.4-5.6c1.1-1.9,2.1-3.9,3-5.9c4.8-10.2,7.7-21.5,8-33.4l0-0.8l-10.1-5.2
			c-0.4-1.8-0.8-3.5-1.3-5.2c-0.5-1.9-1-3.8-1.5-5.8c-2.7-9.6-6.1-19.1-10.2-28.1l5.2-9.4l0.4-0.7l-0.5-0.7l0,0v0
			c-1.4-1.7-2.8-3.4-4.3-5.1c-1.5-1.6-3.1-3.2-4.7-4.7c-8.4-7.8-18.5-13.9-29.5-17.9l-0.8-0.3l-0.6,0.6l-7.1,7.4
			c-7-0.5-13.8-0.7-20.7-0.7c-6.8,0-13.6,0.4-20.4,1l-7.4-7.8l-0.6-0.6l-0.8,0.3L312.6,314.7z M312.6,312.1L312.6,312.1L312.6,312.1
			c-5.6,0-11.2-0.5-16.6-1.7c-1.1-0.2-2.1-0.5-3.2-0.8c-0.8-0.2-1.6-0.4-2.4-0.7l-1.3-10.5l-0.1-0.6l-0.6-0.3
			c-8.8-4.9-17.2-10.7-25.2-16.9c-1.5-1.2-3.1-2.5-4.6-3.7c-1.5-1.2-3-2.5-4.5-3.8h0l-0.4-0.4l-0.6,0.1l-10.1,1.9
			c-5.8-9-10.1-19-12.2-29.7c-0.4-2.1-0.8-4.3-1-6.5c-0.2-2-0.4-4-0.4-6.1l9.5-4.8l0.6-0.3l0.1-0.6c2-9.8,4.8-19.6,8.3-29.1
			c0.7-1.8,1.4-3.7,2.1-5.5c0.7-1.9,1.5-3.7,2.2-5.5l0,0l0,0l0.2-0.5l-0.3-0.5l-4.7-8.8c6.9-8.4,15.4-15.6,24.9-20.9
			c1.9-1.1,3.9-2,5.8-2.9c1.8-0.8,3.5-1.5,5.4-2.2l7.3,7.6l0.4,0.4l0.6-0.1c7-0.7,13.9-1,20.8-1.1c6.9,0,13.9,0.2,21.1,0.7l0.6,0
			l0.4-0.4l6.9-7.3c10.4,3.9,19.9,9.8,27.9,17.1c1.6,1.5,3.1,3,4.6,4.6c1.3,1.4,2.5,2.8,3.7,4.3l-5.1,9.2l-0.3,0.6l0.3,0.6
			c4.1,9,7.6,18.6,10.3,28.3c0.5,1.9,1,3.8,1.5,5.7c0.5,2,1,3.9,1.4,5.7h0l0,0l0.1,0.6l0.5,0.3l9.2,4.8c-0.4,11.3-3.2,21.9-7.8,31.6
			c-0.9,1.9-1.9,3.9-2.9,5.7c-0.9,1.7-1.9,3.3-3,4.9l-10.5-1.9l-0.6-0.1l-0.5,0.4c-7.3,6.6-15.4,12.9-23.9,18.5
			c-1.6,1.1-3.3,2.2-5,3.2c-1.6,1-3.3,2.1-5.1,3.1l0,0l0,0l-0.5,0.3l-0.1,0.6l-1.3,10.1c-2.8,0.9-5.7,1.5-8.6,2
			c-0.6,0.1-1.2,0.2-1.9,0.3C320.3,311.9,316.5,312.1,312.6,312.1L312.6,312.1z M283.4,148.2c-2.1,0.8-4.2,1.6-6.3,2.6
			c-2,0.9-4.1,2-6,3c-10.1,5.6-18.9,13.1-26.2,22.1l-0.5,0.6l0.4,0.7l4.8,9.1c-0.7,1.7-1.4,3.4-2,5c-0.7,1.8-1.4,3.7-2.1,5.6
			c-3.4,9.5-6.3,19.2-8.2,28.8l-9.7,4.9l-0.7,0.3l0,0.8l0,0.2c0,2.4,0.2,4.7,0.5,6.9c0.3,2.3,0.6,4.5,1,6.7
			c2.2,11.3,6.9,21.8,13.1,31.3l0.5,0.7l0.8-0.2l10.3-1.9c1.3,1.2,2.7,2.3,4.1,3.5c1.5,1.3,3.1,2.5,4.6,3.8
			c7.9,6.2,16.3,11.9,25,16.8l1.3,10.6l0.1,0.8l0.8,0.2l0,0c1.1,0.4,2.2,0.7,3.2,1c1.1,0.3,2.2,0.5,3.3,0.8
			c5.6,1.2,11.4,1.8,17.1,1.8L283.4,148.2z M258.3,271.3l6.1-23.9l41.7-13.5l1.2-0.4l-0.4-1.2l-1-3.4l-0.4-1.2l-1.2,0.4l-41.7,13.8
			l-19-15.8c1.5-6.2,3.2-12.4,5.2-18.4c2-6,4.2-12,6.6-17.9l24.9-1.3l25.6,35.3l0.7,0.9l1-0.6l2.7-1.7l1.1-0.7l-0.8-1.1L285,185
			l8.7-22.5c6.4-0.5,12.7-0.7,19-0.8c6.3,0,12.6,0.1,18.9,0.4l9,22.9l-25.9,35.7l-0.8,1.1l1.1,0.7l2.7,1.7l1,0.6l0.7-0.9l25.9-35.3
			l24.5,1.3c0.6,1.5,1.2,3,1.8,4.5c0.7,1.7,1.3,3.5,2,5.2c3.2,8.8,5.8,17.7,8,26.6l-19,15.8l-41.7-13.8l-1.2-0.4l-0.4,1.2l-1,3.4
			l-0.3,1.2l1.2,0.4l41.7,13.5l6.1,23.9c-4.9,4.1-9.9,8-15,11.7c-5.1,3.7-10.3,7.3-15.7,10.8l-20.6-13.5v-45H310v45l-20.7,13.2
			c-1.4-0.8-2.7-1.7-4.2-2.5c-1.7-1-3.2-2-4.7-3C272.6,282.8,265.2,277.2,258.3,271.3L258.3,271.3z M262.2,246.1l-6.5,25.3l-0.2,0.8
			l0.6,0.5c7.2,6.2,14.9,12,23,17.4c1.6,1.1,3.2,2.1,4.8,3.1c1.5,1,3.2,1.9,4.9,2.9l0,0l0.7,0.4l0.6-0.4l21.9-14l0.6-0.4v-43.9h0.6
			v43.9l0.6,0.4l21.9,14.4l0.7,0.4l0.7-0.4c5.7-3.6,11.1-7.4,16.5-11.3c5.3-3.9,10.6-8.1,15.7-12.3l0.6-0.5l-0.2-0.8l-6.5-25.3
			l-0.2-0.7l-0.7-0.2L321,231.9l0.3-1l41.2,13.6l0.7,0.2l0.5-0.4l20.2-16.8l0.6-0.5l-0.2-0.8c-2.2-9.1-5-18.5-8.3-27.6v0
			c-0.6-1.8-1.3-3.5-2-5.3c-0.7-1.8-1.4-3.6-2.1-5.2l0,0l-0.3-0.7l-0.8,0l-26-1.4l-0.7,0l-0.4,0.5l-25.6,35l-0.6-0.4L343,186
			l0.4-0.6l-0.3-0.6l-9.6-24.3l-0.3-0.8l-0.8,0c-6.7-0.4-13.3-0.5-19.9-0.5c-6.6,0-13.3,0.3-19.9,0.8l-0.8,0.1l-0.3,0.7l-9.2,23.9
			l-0.3,0.6l0.4,0.5l25.2,35.1l-0.6,0.4l-25.3-34.9l-0.4-0.6l-0.7,0l-26.3,1.4l-0.8,0l-0.3,0.7c-2.6,6.2-4.9,12.4-6.9,18.8
			c-2.1,6.4-3.9,12.8-5.4,19.3l-0.2,0.8l0.6,0.5l20.2,16.8l0.5,0.4l0.7-0.2l41.2-13.6l0.3,1L263,245.2l-0.7,0.2L262.2,246.1"/>
		<path id="path884" class="st8" d="M341.1,238.6l-10.8-32.5l-34.4,0.3l-10.8,32.1l28,20.2L341.1,238.6"/>
		<path id="path886" class="st0" d="M342.3,238.2l-10.8-32.5l-0.3-0.9l-0.9,0l-34.4,0.3l-0.9,0l-0.3,0.8l-10.8,32.1l-0.3,0.9
			l0.7,0.5l28,20.3l0.7,0.5l0.7-0.5l28-20.2l0.7-0.5L342.3,238.2z M329.4,207.4l10.2,30.7L313,257.3l-26.5-19.2l10.2-30.4
			L329.4,207.4"/>
	</g>
	<g id="g1290">
		<path id="path888" class="st0" d="M179.3,50.5l7,20.6l15.2-4.4l-1.2-3.5l-10.7,3.1l-1.6-4.9l9.3-2.7l-1.2-3.5l-9.3,2.7l-3-8.8
			L179.3,50.5"/>
		<path id="path890" class="st0" d="M209,41.8l7,20.6l16.5-4.8l-1.2-3.5l-12,3.5l-1.5-4.6l11.2-3.2l-1.2-3.5l-11.2,3.2l-1.9-5.6
			l12.4-3.6l-1.2-3.5L209,41.8"/>
		<path id="path892" class="st0" d="M257.1,36.2l3.9-2.5c-1.4-2.1-3.1-3.4-5-4c-1.9-0.6-4.1-0.6-6.5,0.1c-2.9,0.9-5.1,2.5-6.3,4.9
			c-1.3,2.4-1.4,5.3-0.3,8.5c1.2,3.4,3,5.8,5.6,7.2c2.5,1.3,5.4,1.6,8.5,0.7c2.7-0.8,4.7-2.2,5.9-4.2c0.7-1.2,1-2.7,1-4.5l-4.8,0.3
			c0.1,1.1-0.2,2.1-0.8,3c-0.6,0.9-1.5,1.5-2.7,1.8c-1.6,0.5-3.2,0.3-4.6-0.5c-1.4-0.8-2.5-2.4-3.3-4.9c-0.9-2.6-1-4.6-0.4-6
			c0.6-1.4,1.8-2.3,3.4-2.8c1.2-0.3,2.3-0.3,3.4,0.2C255.3,33.8,256.2,34.8,257.1,36.2"/>
		<path id="path894" class="st0" d="M293.5,17.3l-4.9,1.4l-0.4,5.2l-8.9,2.6l-3.4-4.2l-4.8,1.4l15.6,18.1l4.7-1.4L293.5,17.3z
			 M288,27.8l-0.5,8.5l-5.6-6.8L288,27.8"/>
		<path id="path896" class="st0" d="M327.6,16.2l-5.2,21.2l15.9,4.4l0.9-3.6L328,35.1l1.2-5l9.7,2.7l0.9-3.6l-9.7-2.7l2.2-9
			L327.6,16.2"/>
		<path id="path898" class="st0" d="M355,34.9c-0.5,2.2-0.6,4.1-0.3,5.7c0.3,1.2,0.7,2.4,1.4,3.5c0.7,1.1,1.5,2,2.5,2.7
			c1.3,1,2.9,1.7,4.8,2.2c3.4,0.9,6.4,0.7,8.9-0.6c2.5-1.4,4.2-3.8,5.1-7.2c0.8-3.4,0.5-6.4-1.1-8.9c-1.6-2.5-4-4.2-7.4-5.1
			c-3.5-0.9-6.4-0.7-8.9,0.6C357.5,29.1,355.9,31.5,355,34.9L355,34.9z M359.8,36.3c0.6-2.4,1.7-4,3.2-4.9c1.5-0.9,3.2-1.1,5.1-0.6
			c1.9,0.5,3.2,1.5,4.1,3.1c0.9,1.6,1,3.6,0.4,6c-0.6,2.4-1.6,4.1-3.1,4.9c-1.5,0.9-3.2,1-5.1,0.5c-1.9-0.5-3.3-1.6-4.2-3.1
			C359.4,40.8,359.2,38.8,359.8,36.3"/>
		<path id="path900" class="st0" d="M391.4,44.8c-0.5,2.2-0.6,4.1-0.3,5.7c0.3,1.2,0.7,2.4,1.4,3.5c0.7,1.1,1.5,2,2.5,2.7
			c1.3,1,2.9,1.7,4.8,2.2c3.4,0.9,6.4,0.7,8.9-0.6c2.5-1.4,4.2-3.8,5.1-7.2c0.8-3.4,0.5-6.4-1.1-8.9c-1.6-2.5-4-4.2-7.4-5.1
			c-3.5-0.9-6.4-0.7-8.9,0.6C393.9,39.1,392.2,41.5,391.4,44.8L391.4,44.8z M396.2,46.3c0.6-2.4,1.7-4,3.2-4.9
			c1.5-0.9,3.2-1.1,5.1-0.6c1.9,0.5,3.2,1.5,4.1,3.1c0.9,1.6,1,3.6,0.4,6c-0.6,2.4-1.6,4.1-3.1,4.9c-1.5,0.9-3.2,1-5.1,0.5
			c-1.9-0.5-3.3-1.6-4.2-3.1C395.7,50.7,395.6,48.8,396.2,46.3"/>
		<path id="path902" class="st0" d="M436.5,46.1l-4.3,17.6l-6.9-1.9l-0.9,3.6l18.4,5.1l0.9-3.6l-6.9-1.9l4.3-17.6L436.5,46.1"/>
	</g>
	<g id="g1037">
		<path id="path1006" class="st9" d="M432.9,493h7l17.1-29.5V493h5.1v-35.2h-7L438,487.2v-29.5h-5.1V493z"/>
		<path id="path1004" class="st9" d="M392.9,493h5.3v-21.4c0-3.8,0.8-6.5,2.3-8.2c1.5-1.7,3.9-2.5,7.3-2.5c3.4,0,5.8,0.8,7.3,2.5
			c1.5,1.7,2.3,4.4,2.3,8.2V493h5.3v-22c0-4.6-1.2-8.1-3.7-10.4c-2.5-2.3-6.2-3.5-11-3.5c-4.9,0-8.6,1.2-11.1,3.5
			c-2.5,2.3-3.7,5.8-3.7,10.4L392.9,493z"/>
		<path id="path1002" class="st10" d="M365.9,493.1c-5.4,0-9.8-1.7-13-5c-3.3-3.3-4.9-7.7-4.9-13.3c0-5.6,1.6-10,4.9-13.3
			c3.3-3.3,7.6-5,13-5c5.4,0,9.8,1.7,13,5c3.2,3.3,4.9,7.7,4.9,13.3c0,5.6-1.6,10-4.9,13.3C375.7,491.5,371.3,493.1,365.9,493.1z
			 M365.9,489.3c3.8,0,6.8-1.3,9-3.9c2.2-2.6,3.3-6.1,3.3-10.5c0-4.4-1.1-7.9-3.3-10.5c-2.2-2.6-5.2-3.9-9-3.9c-3.8,0-6.8,1.3-9,3.9
			c-2.2,2.6-3.4,6.1-3.4,10.5c0,4.4,1.1,8,3.4,10.5C359.1,488,362.1,489.3,365.9,489.3z"/>
		<path id="path996" class="st10" d="M316.5,492.5v-35.2h5.2v14.9h5.7c2.1,0,3.7-0.4,4.9-1.2c1.2-0.8,2.4-2.3,3.7-4.7l4.9-9h5.6
			l-5.3,9.6c-1.1,2-2.1,3.5-3.2,4.7c-1.1,1.1-2.2,1.9-3.3,2.2c2.2,0.6,3.8,1.6,4.9,3c1.1,1.5,1.7,3.3,1.7,5.5c0,3.4-1.1,5.9-3.3,7.6
			c-2.2,1.7-5.5,2.5-9.9,2.5H316.5z M321.8,488.6h6.6c2.5,0,4.4-0.5,5.7-1.6c1.3-1,1.9-2.6,1.9-4.7c0-2.1-0.6-3.6-1.9-4.7
			c-1.3-1.1-3.2-1.6-5.7-1.6h-6.6V488.6z"/>
		<path id="path994" class="st9" d="M284.1,493h20.4v-4h-15.2v-10.4h14.4v-4h-14.4v-12.8H305v-4h-20.9V493z"/>
		<path id="path992" class="st9" d="M240.7,492.7h7.8l8.4-16l8.2,16h7.8v-35.2h-5.1v30.9l-8.3-16.2h-5.3l-8.5,16.2v-30.9h-5.1
			L240.7,492.7z"/>
		<path id="path990" class="st10" d="M214.7,492.5l-14.8-35.2h5.5l3.5,9h17.4l3.5-9h5.4l-14.7,35.2H214.7z M217.6,487.8l7.1-17.5
			h-14.2L217.6,487.8z"/>
		<path id="path904" class="st9" d="M194,490.3v-5c-1.8,1.5-3.6,2.6-5.6,3.4c-2,0.7-4.1,1.1-6.4,1.1c-4.4,0-7.8-1.2-10.2-3.7
			c-2.3-2.5-3.5-6-3.5-10.7c0-4.6,1.2-8.2,3.5-10.7c2.3-2.5,5.7-3.7,10.2-3.7c2.2,0,4.4,0.4,6.4,1.1c2,0.7,3.9,1.9,5.6,3.4v-5
			c-1.8-1.1-3.8-2-5.8-2.5c-2-0.6-4.2-0.9-6.5-0.9c-5.9,0-10.5,1.6-13.8,4.9c-3.4,3.3-5,7.7-5,13.4c0,5.7,1.7,10.1,5,13.4
			c3.4,3.3,8,4.9,13.8,4.9c2.3,0,4.5-0.3,6.5-0.8C190.3,492.2,192.2,491.4,194,490.3L194,490.3z"/>
	</g>
</g>
</svg>
