<?xml version="1.0" encoding="utf-8"?>
<!-- Generator: Adobe Illustrator 26.0.2, SVG Export Plug-In . SVG Version: 6.00 Build 0)  -->
<svg version="1.1"
	 id="svg15783" xmlns:cc="http://creativecommons.org/ns#" xmlns:dc="http://purl.org/dc/elements/1.1/" xmlns:rdf="http://www.w3.org/1999/02/22-rdf-syntax-ns#" xmlns:svg="http://www.w3.org/2000/svg"
	 xmlns="http://www.w3.org/2000/svg" xmlns:xlink="http://www.w3.org/1999/xlink" x="0px" y="0px" width="300px" height="300.1px"
	 viewBox="0 0 300 300.1" style="enable-background:new 0 0 300 300.1;" xml:space="preserve">
<style type="text/css">
	.st0{clip-path:url(#SVGID_00000168797918238581898390000001585365286135215751_);}
	.st1{fill:#C5281C;}
</style>
<g id="layer1" transform="translate(112.95226,-180.4172)">
	<g id="g8191" transform="matrix(7.2946875,0,0,-7.2946875,-3997.8621,4003.3149)">
		<g>
			<g>
				<defs>
					<polygon id="SVGID_1_" points="532.6,482.9 573.7,482.9 573.7,524.1 532.6,524.1 532.6,482.9 					"/>
				</defs>
				<clipPath id="SVGID_00000010275262082697039600000008888730934201160350_">
					<use xlink:href="#SVGID_1_"  style="overflow:visible;"/>
				</clipPath>
				<g id="g8193" style="clip-path:url(#SVGID_00000010275262082697039600000008888730934201160350_);">
					<g id="g8199" transform="translate(572.4612,498.0374)">
						<path id="path8201" class="st1" d="M0,0L0,0c-0.3,0-3.2-0.8-3.2-0.8c-0.3-0.1-0.6-0.3-0.7-0.5c-0.7-1.5-1.5-3.2-3.7-5.4
							c0,0-0.2-0.2-0.1-0.6c0.1-0.3,0.5-2.4,0.5-2.4c0.1-0.2,0.3-0.3,0.5-0.2c-1.9-1.6-4.2-2.9-6.7-3.7c0.3,0.2,0.3,0.5-0.1,0.9
							l-1.3,1.4c-0.2,0.2-0.5,0.3-0.9,0.2c-1.4-0.4-3-0.4-3.8-0.4c-0.8,0-2.3,0.1-3.8,0.4c-0.4,0.1-0.7,0-0.9-0.2l-1.3-1.4
							c-0.4-0.3-0.4-0.7-0.1-0.9c-2.5,0.8-4.7,2.1-6.7,3.7c0.2,0,0.4,0,0.5,0.2c0,0,0.5,2,0.5,2.4c0.1,0.4-0.1,0.6-0.1,0.6
							c-2.2,2.2-3,3.9-3.7,5.4c-0.1,0.2-0.5,0.4-0.7,0.5c0,0-2.9,0.8-3.2,0.8c-0.3,0-0.2-0.3-0.2-0.3c2.4-8.6,10.3-14.8,19.7-14.8
							S-2.2-8.8,0.2-0.3C0.2-0.3,0.3,0,0,0 M-12.7-5.8c0.1-0.2,0.3-0.3,0.5-0.3l3.1-0.1c0.3,0,0.7,0.1,1.1,0.6c0,0,1.9,2.1,2.8,4
							C-4.6-0.4-4.8,0-6,0l-7.3,0c-0.4,0-0.7-0.2-0.8-0.5l-0.7-1.8c-0.1-0.3,0-0.7,0.1-0.9C-14.7-3.2-12.7-5.8-12.7-5.8z M-25.2-7.5
							l2-2.3c0.1-0.1,0.3-0.4,0.8-0.5c0.9-0.1,2.1-0.3,3-0.3c1,0,2.2,0.1,3,0.3c0.4,0.1,0.6,0.3,0.8,0.5l2,2.3
							c0.2,0.2,0.2,0.7,0.1,0.9l-2.1,2.9c-0.2,0.2-0.6,0.4-0.9,0.4c0,0-2.8-0.1-2.8-0.1s-2.8,0.1-2.8,0.1c-0.3,0-0.7-0.2-0.9-0.4
							l-2.1-2.9C-25.4-6.8-25.4-7.3-25.2-7.5 M-30.9-5.6c0.4-0.5,0.8-0.6,1.1-0.6l3.1,0.1c0.2,0,0.4,0.1,0.5,0.3l2,2.7
							C-24-3-24-2.6-24.1-2.3l-0.7,1.8C-24.9-0.2-25.2,0-25.6,0l-7.3,0c-1.2,0-1.4-0.4-0.8-1.6C-32.9-3.5-30.9-5.6-30.9-5.6"/>
					</g>
					<g id="g8203" transform="translate(534.5847,502.0875)">
						<path id="path8205" d="M0,0c0-0.8,0.5-1.7,1.6-1.7c0.4,0,0.8,0.1,1.1,0.4C2.9-1.1,3-0.9,3.1-0.8L4.9-1
							C4.9-1.2,4.8-1.4,4.6-1.6C4-2.6,2.7-2.9,1.6-2.9c-0.5,0-1,0-1.5,0.2C-1.1-2.3-2-1.5-2,0c0,1,0.6,2.9,3.6,2.9
							c2.6,0,3-1.2,3.2-1.7L3,0.9C3,1.1,2.9,1.3,2.6,1.4C2.3,1.6,1.9,1.7,1.7,1.7C0.8,1.7,0,1.1,0,0"/>
					</g>
					<g id="g8207" transform="translate(542.6972,503.2873)">
						<path id="path8209" d="M0,0l-0.6-1.8h1.3L0,0z M-1.1,1.5h2.2l2.3-5.4H1.3L1-3H-1l-0.3-0.9h-2.1C-3.4-3.9-1.1,1.5-1.1,1.5z"/>
					</g>
					<g id="g8211" transform="translate(546.588,504.7852)">
						<path id="path8213" d="M0,0h1.6l1.7-1.8c0.5-0.5,0.6-0.6,1-1.1c0,0.7,0,1,0,1.7V0h1.9v-5.4H4.5l-2,2.2
							C2.2-2.8,2.1-2.7,1.9-2.4c0-0.9,0-1.1,0-1.8v-1.1H0C0-5.4,0,0,0,0z"/>
					</g>
					<g id="g8215" transform="translate(556.6045,503.2873)">
						<path id="path8217" d="M0,0l-0.6-1.8h1.3L0,0z M-1.1,1.5h2.2l2.3-5.4H1.3L1-3H-1l-0.3-0.9h-2.1C-3.4-3.9-1.1,1.5-1.1,1.5z"/>
					</g>
					<g id="g8219" transform="translate(562.376,500.6125)">
						<path id="path8221" d="M0,0h0.8c0.7,0,1,0.1,1.3,0.3C2.4,0.6,2.5,1,2.5,1.5c0,0.5-0.2,0.9-0.5,1.1C1.7,2.9,1.3,2.9,0.9,2.9H0
							C0,2.9,0,0,0,0z M-1.9,4.2h3.1c0.6,0,2.1,0,2.9-1.3c0.1-0.2,0.4-0.7,0.4-1.5c0-0.4-0.1-0.8-0.2-1.2C4-0.1,3.8-0.6,3.2-0.9
							C2.6-1.2,2.1-1.2,1.5-1.2h-3.4C-1.9-1.2-1.9,4.2-1.9,4.2z"/>
					</g>
					<g id="g8223" transform="translate(570.0104,503.2873)">
						<path id="path8225" d="M0,0l-0.6-1.8h1.3L0,0z M-1.1,1.5h2.2l2.3-5.4H1.3L1-3H-1l-0.3-0.9h-2.1C-3.4-3.9-1.1,1.5-1.1,1.5z"/>
					</g>
					<g id="g8227" transform="translate(552.9928,524.066)">
						<path id="path8229" class="st1" d="M0,0c-0.1,0-0.2,0-0.2-0.1l-2.9-4.6c-0.1-0.2-0.3-0.2-0.5-0.2l-2.8,1.6
							c-0.2,0.1-0.3-0.1-0.3-0.2l1-11.1c0-0.2-0.1-0.2-0.2-0.1l-6.2,7.3c-0.1,0.1-0.3,0.1-0.4-0.1l-0.4-1.6
							c-0.1-0.2-0.3-0.3-0.4-0.3l-4.2-0.9c-0.2,0-0.3-0.2-0.3-0.3l0.1-4.8c0-0.2-0.1-0.4-0.3-0.5l-1.8-0.5c-0.2-0.1-0.2-0.2-0.1-0.4
							l0.8-0.9c0.1-0.1,0.3-0.3,0.6-0.3h37.1c0.2,0,0.4,0.1,0.6,0.3l0.8,0.9c0.1,0.1,0.1,0.3-0.1,0.4L18-15.9
							c-0.2,0.1-0.3,0.3-0.3,0.5l0.1,4.8c0,0.2-0.1,0.3-0.3,0.3l-4.2,0.9c-0.2,0-0.4,0.1-0.4,0.3l-0.4,1.6c-0.1,0.2-0.2,0.2-0.4,0.1
							l-6.2-7.3c-0.1-0.1-0.2-0.1-0.2,0.1l1,11.1c0,0.2-0.1,0.3-0.3,0.2L3.6-4.9c-0.2-0.1-0.4,0-0.5,0.2L0.2-0.1C0.2,0,0.1,0,0,0"/>
					</g>
					<g id="g8231" transform="translate(572.7478,504.9091)">
						<path id="path8233" d="M0,0h0.1c0.1,0,0.1,0,0.1,0c0,0,0,0.1,0,0.1c0,0,0,0.1-0.1,0.1c0,0,0,0-0.2,0H0C0,0.2,0,0,0,0z
							 M0.1,0.4c0.1,0,0.2,0,0.2,0c0.1,0,0.2-0.2,0.2-0.3c0-0.2-0.1-0.2-0.2-0.2c0.1,0,0.1-0.1,0.1-0.2c0-0.1,0-0.2,0.1-0.3H0.3
							c0,0.1,0,0.1-0.1,0.2c0,0.2,0,0.2-0.2,0.2h0v-0.4h-0.3v1.1C-0.3,0.4,0.1,0.4,0.1,0.4z M0.1,0.6c-0.4,0-0.7-0.3-0.7-0.7
							c0-0.4,0.3-0.7,0.7-0.7c0.4,0,0.7,0.3,0.7,0.7C0.9,0.3,0.6,0.6,0.1,0.6 M0.1-0.9c-0.4,0-0.8,0.3-0.8,0.8
							c0,0.5,0.4,0.8,0.8,0.8c0.5,0,0.8-0.4,0.8-0.8C0.9-0.6,0.6-0.9,0.1-0.9"/>
					</g>
				</g>
			</g>
		</g>
	</g>
</g>
</svg>
