<?xml version="1.0" encoding="utf-8"?>
<!-- Generator: Adobe Illustrator 26.0.2, SVG Export Plug-In . SVG Version: 6.00 Build 0)  -->
<svg version="1.1"
	 id="svg2" xmlns:cc="http://creativecommons.org/ns#" xmlns:dc="http://purl.org/dc/elements/1.1/" xmlns:inkscape="http://www.inkscape.org/namespaces/inkscape" xmlns:rdf="http://www.w3.org/1999/02/22-rdf-syntax-ns#" xmlns:sodipodi="http://sodipodi.sourceforge.net/DTD/sodipodi-0.dtd" xmlns:svg="http://www.w3.org/2000/svg"
	 xmlns="http://www.w3.org/2000/svg" xmlns:xlink="http://www.w3.org/1999/xlink" x="0px" y="0px" width="600px" height="600px"
	 viewBox="0 0 600 600" style="enable-background:new 0 0 600 600;" xml:space="preserve">
<style type="text/css">
	.st0{fill-rule:evenodd;clip-rule:evenodd;fill:#FCC700;}
	.st1{fill-rule:evenodd;clip-rule:evenodd;fill:#1B1918;}
	.st2{fill-rule:evenodd;clip-rule:evenodd;fill:#007EC0;}
</style>
<sodipodi:namedview  bordercolor="#666666" borderopacity="1" gridtolerance="10" guidetolerance="10" id="namedview61" inkscape:current-layer="svg2" inkscape:cx="254.11536" inkscape:cy="402.0082" inkscape:pageopacity="0" inkscape:pageshadow="2" inkscape:window-height="691" inkscape:window-maximized="1" inkscape:window-width="1280" inkscape:window-x="0" inkscape:window-y="1" inkscape:zoom="0.61867883" objecttolerance="10" pagecolor="#ffffff" showgrid="false">
	</sodipodi:namedview>
<g id="g4472">
	<g id="g4461">
		<path id="path5" inkscape:connector-curvature="0" class="st0" d="M300,0c165.7,0,300,134.3,300,300S465.7,600,300,600
			S0,465.7,0,300S134.3,0,300,0L300,0z"/>
		<path id="path7" inkscape:connector-curvature="0" class="st1" d="M300,8.2c161.1,0,291.8,130.6,291.8,291.8l0,0
			c0,161.1-130.6,291.8-291.8,291.8S8.2,461.1,8.2,300S138.9,8.2,300,8.2z"/>
		<g id="Layer1001" transform="matrix(1.0583332,0,0,1.0583332,-14.999968,-145.49996)">
			<path id="path14" inkscape:connector-curvature="0" sodipodi:nodetypes="ccccc" class="st2" d="M159.7,545.6l-39-64.5v-120
				l39-66.4V545.6z"/>
			<path id="path16" inkscape:connector-curvature="0" sodipodi:nodetypes="ccccc" class="st2" d="M199.1,263.8l39-19.1v352.9
				l-39-19.1V263.8z"/>
			<path id="path18" inkscape:connector-curvature="0" sodipodi:nodetypes="ccccc" class="st2" d="M316.2,233.5V605l-39-0.3V233.8
				L316.2,233.5z"/>
			<path id="path20" inkscape:connector-curvature="0" sodipodi:nodetypes="ccccc" class="st2" d="M355.7,243.8l39,18.4v316
				l-39,18.4V243.8z"/>
			<path id="path22" inkscape:connector-curvature="0" sodipodi:nodetypes="ccccc" class="st2" d="M434.1,291.8l39,61.2v136.2
				l-39,61.2V291.8z"/>
		</g>
		<path id="path9" class="st0" d="M300.6,96.4c-112,0-202.8,90.8-202.8,202.8c0,112,90.8,202.8,202.8,202.8s202.8-90.8,202.8-202.8
			c0,0,0,0,0,0C503.4,187.2,412.6,96.4,300.6,96.4z M300.6,106.7c106.3,0,192.5,86.2,192.5,192.5c0,106.3-86.2,192.5-192.5,192.5
			S108,405.5,108,299.2C108,192.9,194.2,106.7,300.6,106.7C300.6,106.7,300.6,106.7,300.6,106.7z"/>
	</g>
	<g id="g4432">
		<g id="Layer1002" transform="matrix(1.0583332,0,0,1.0583332,-14.999968,-145.49996)">
			<path id="path25" inkscape:connector-curvature="0" class="st0" d="M216.1,641.3c-2.2,4.1-5,7.4-8.4,9.9s-7.1,4.1-11.1,4.9
				c-4,0.8-8.2,0.9-12.5,0.2c-4.3-0.7-8.4-2.1-12.4-4.2c-3.9-2.1-7.4-4.7-10.3-7.8c-3-3.1-5.2-6.6-6.8-10.4
				c-1.5-3.8-2.3-7.7-2.2-11.9c0.1-4.1,1.2-8.3,3.3-12.4c2.2-4.2,5-7.5,8.5-9.9c3.4-2.4,7.2-4,11.3-4.8c4.1-0.8,8.2-0.8,12.6-0.1
				c4.3,0.7,8.5,2.2,12.5,4.3c3.9,2,7.3,4.6,10.2,7.8c2.9,3.1,5.1,6.6,6.6,10.4c1.5,3.8,2.2,7.7,2.1,11.9
				C219.3,633.2,218.2,637.2,216.1,641.3z M205.6,635.8c1.4-2.7,2.2-5.5,2.4-8.3c0.1-2.8-0.3-5.5-1.2-8c-1-2.6-2.4-4.9-4.3-7.1
				c-1.9-2.2-4.3-4-7-5.4c-2.7-1.4-5.5-2.3-8.3-2.7c-2.8-0.3-5.6-0.2-8.2,0.5c-2.6,0.7-5,1.9-7.2,3.6c-2.2,1.7-4,3.9-5.4,6.7
				c-1.4,2.7-2.2,5.5-2.4,8.2c-0.2,2.8,0.2,5.4,1.1,8c0.9,2.6,2.3,4.9,4.2,7.1c1.9,2.1,4.2,3.9,6.9,5.4c2.8,1.5,5.6,2.4,8.5,2.7
				c2.9,0.4,5.6,0.2,8.3-0.5c2.6-0.7,5.1-1.9,7.3-3.6C202.4,640.7,204.2,638.5,205.6,635.8L205.6,635.8z"/>
			<path id="path27" inkscape:connector-curvature="0" class="st0" d="M263.8,678.5l-17.5-2.7l0.3-1.9c1-0.1,1.7-0.3,2.2-0.7
				c0.4-0.3,0.7-1,0.9-2l6.9-45.9c0.2-1,0.1-1.8-0.2-2.2c-0.3-0.4-0.9-0.9-1.9-1.3l0.3-1.9l17.5,2.7l-0.3,1.9
				c-1.1,0.1-1.8,0.3-2.3,0.6c-0.4,0.3-0.7,1-0.9,2l-6.9,45.9c-0.2,1-0.1,1.8,0.3,2.2c0.3,0.4,1,0.9,2,1.3L263.8,678.5L263.8,678.5z
				"/>
			<path id="path29" inkscape:connector-curvature="0" class="st0" d="M361,655.7c0.3,2.4,0.2,4.5-0.4,6.5c-0.6,2-1.6,3.8-2.9,5.4
				c-1.3,1.6-2.9,3.1-4.7,4.4c-1.8,1.3-3.7,2.4-5.8,3.3c-2,0.9-4.1,1.7-6.3,2.3c-2.1,0.6-4.1,1-6,1.3c-4,0.6-7.9,0.8-11.8,0.8
				c-3.9-0.1-7.7-0.7-11.6-1.8c-0.8-0.2-1.6-0.3-2.2-0.2c-0.6,0.1-1.2,0.5-1.7,1.4l-2.4-0.6l4.1-14.7l2.3,0.5
				c-0.1,0.5,0,1.1,0.2,1.6c0.2,0.5,0.6,0.9,1.1,1.3c1.3,0.7,2.8,1.2,4.6,1.6c1.8,0.4,3.7,0.6,5.6,0.7c1.9,0.1,3.8,0.1,5.7,0.1
				c1.9-0.1,3.5-0.2,5-0.4c1.1-0.2,2.5-0.5,4.1-0.9c1.7-0.4,3.3-1,4.8-1.8c1.5-0.8,2.8-1.7,3.8-2.9c1-1.1,1.4-2.5,1.2-4
				c-0.3-1.8-1.7-3.1-4.2-3.9c-2.5-0.8-6.2-1-11-0.5c-1.9,0.2-3.9,0.4-6,0.7c-2.1,0.2-4.2,0.3-6.4,0.3c-2.1,0-4.2-0.2-6.2-0.5
				c-2-0.4-3.9-1-5.6-2c-1.9-1-3.4-2.4-4.4-4.2c-1.1-1.8-1.8-3.8-2.1-6.1c-0.4-2.8-0.2-5.4,0.8-7.9c0.9-2.5,2.4-4.7,4.5-6.7
				c2.1-2,4.7-3.6,7.7-5c3.1-1.4,6.6-2.4,10.6-2.9c3.2-0.5,6.7-0.7,10.4-0.6c3.7,0.1,7.6,0.7,11.7,1.7c1.5,0.5,2.6,0.7,3.3,0.7
				c0.7,0,1.5-0.4,2.3-1.2l1.9,0.7l-5,14.4l-2.2-0.7c-0.2-1.1-0.7-2-1.6-2.7c-1.2-0.9-2.7-1.5-4.3-2c-1.6-0.5-3.4-0.8-5.1-1
				c-1.8-0.2-3.5-0.2-5.2-0.2c-1.7,0.1-3.3,0.2-4.8,0.4c-1,0.2-2.3,0.4-3.9,0.8c-1.5,0.4-3,1-4.4,1.7c-1.4,0.8-2.5,1.7-3.4,2.7
				c-0.9,1.1-1.2,2.4-1,3.9c0.2,1.4,0.8,2.5,1.7,3.2c0.9,0.8,2,1.3,3.2,1.6c1.2,0.3,2.5,0.5,3.7,0.5c1.3,0,2.5-0.1,3.5-0.2
				c3.8-0.3,7.4-0.6,10.8-0.9c3.4-0.3,6.7-0.2,10.1,0.3c1.7,0.3,3.3,0.8,4.9,1.5c1.6,0.6,3,1.5,4.2,2.5c1.3,1,2.3,2.2,3.2,3.6
				C360.2,652.5,360.8,654,361,655.7L361,655.7z"/>
			<path id="path31" inkscape:connector-curvature="0" class="st0" d="M450.9,635.6l-1.6,0.9c-0.5-0.5-0.9-0.8-1.3-0.9
				c-0.4-0.1-1.2,0.2-2.3,0.8l-42.1,23l-0.9-1.7c0.7-0.7,1.2-1.3,1.3-1.9c0.2-0.5,0-1.3-0.6-2.2L381.1,613c-0.5-0.9-1-1.5-1.5-1.6
				c-0.5-0.2-1.3-0.1-2.3,0.2l-0.9-1.7l41.4-22.7c1-0.5,1.6-1,1.9-1.3c0.3-0.3,0.3-1,0-1.9l1.7-0.9l7,12.8l-1.7,0.9
				c-0.6-0.7-1.2-1.1-1.7-1.4c-0.5-0.2-1.2-0.1-1.9,0.3l-28.7,15.7l6.4,11.7l17-9.3c1-0.5,1.5-1,1.7-1.5c0.2-0.5,0.1-1.2-0.1-2.3
				l1.6-0.9l6.9,12.6l-1.6,0.9c-0.7-0.8-1.4-1.2-1.9-1.4c-0.5-0.1-1.3,0.1-2.2,0.6l-17,9.3l6.6,12.1l28.8-15.8c1-0.5,1.5-1,1.7-1.5
				c0.2-0.5,0.1-1.2-0.1-2.3l1.6-0.9L450.9,635.6L450.9,635.6z"/>
		</g>
		<g id="Layer1003" transform="matrix(1.0583332,0,0,1.0583332,-14.999968,-145.49996)">
			<path id="path34" inkscape:connector-curvature="0" class="st0" d="M83.7,301l-0.7,1.5c-0.9-0.2-1.6-0.2-2.1,0
				c-0.4,0.1-0.8,0.5-1.1,1.2l-11.4,26.2l10.5,4.6l6.8-15.6c0.4-1,0.6-1.7,0.4-2c-0.2-0.4-0.7-0.8-1.5-1.4l0.7-1.5l12.1,5.2
				l-0.7,1.5c-0.9-0.2-1.5-0.3-2-0.1c-0.4,0.2-0.8,0.7-1.2,1.6l-6.8,15.6l16.7,7.2c1,0.4,1.7,0.5,2.1,0.4c0.4-0.2,0.9-0.6,1.4-1.3
				l1.7,0.7l-6.1,14.1l-1.7-0.7c0.1-0.9,0.1-1.5-0.1-2c-0.2-0.5-0.8-0.9-1.7-1.3l-39.2-17c-0.9-0.4-1.5-0.5-2-0.4
				c-0.5,0.1-1,0.6-1.5,1.3l-1.7-0.7l16.4-37.9c0.4-0.8,0.5-1.4,0.6-1.8c0-0.4-0.3-0.8-1.1-1.3l0.7-1.5
				C71.4,295.6,83.7,301,83.7,301z"/>
			<path id="path36" inkscape:connector-curvature="0" class="st0" d="M152.3,266.2l-0.1,1.6c-0.5,0.1-0.9,0.2-1.2,0.4
				c-0.4,0.1-0.6,0.4-0.6,0.7c-0.4,4.2-1.3,8.3-2.9,12.5c-1.5,4.2-3.8,8-6.7,11.6c-2.6,3.2-5.5,5.7-8.8,7.5c-3.3,1.8-6.7,3-10.2,3.4
				c-3.5,0.4-7,0.2-10.6-0.8c-3.5-1-6.8-2.7-9.9-5.2c-3.1-2.5-5.5-5.4-7.2-8.7c-1.7-3.3-2.7-6.7-2.9-10.2c-0.2-3.6,0.2-7.2,1.5-10.9
				c1.3-3.7,3.3-7.3,6.1-10.8c1.5-1.8,3.1-3.5,4.9-4.9c1.8-1.5,3.5-2.8,5.1-3.8c1.6-1.1,3.1-2,4.3-2.7c1.2-0.7,2.1-1.2,2.6-1.5
				c0.4-0.2,0.7-0.6,1.1-1c0.4-0.5,0.5-1,0.4-1.5l1.7-0.5l5,13.4l-1.7,0.6l-0.5-0.9c-0.6-0.5-1.5-0.6-2.7-0.3
				c-1.2,0.3-2.6,0.8-4.2,1.6c-1.6,0.8-3.1,1.9-4.8,3.2c-1.6,1.3-3.1,2.7-4.3,4.3c-1.8,2.2-3,4.4-3.8,6.8c-0.8,2.4-1,4.7-0.8,7
				c0.2,2.3,0.8,4.5,2,6.5c1.1,2.1,2.7,4,4.7,5.6c2.1,1.7,4.4,3,6.8,3.7c2.4,0.8,4.8,1,7.1,0.8c2.4-0.2,4.7-0.9,6.9-2.2
				c2.2-1.2,4.2-2.9,6-5.1c1.2-1.5,2.3-3.2,3.1-5.1c0.8-1.9,1.5-3.7,1.9-5.5c0.5-1.8,0.7-3.4,0.8-4.9c0.1-1.5,0-2.6-0.1-3.4
				c-0.1-0.5-0.4-0.8-0.8-1.1c-0.4-0.3-0.8-0.4-1.3-0.6l0.2-1.7L152.3,266.2L152.3,266.2z"/>
			<path id="path38" inkscape:connector-curvature="0" class="st0" d="M221.3,222.7l-0.7,1.5c-0.5-0.1-0.9-0.1-1.3-0.1
				c-0.4,0-0.7,0.1-0.8,0.4c-1.9,3.7-4.3,7.2-7.3,10.5c-3,3.3-6.5,6-10.5,8.3c-3.6,2-7.2,3.2-11,3.7c-3.7,0.5-7.3,0.3-10.7-0.7
				c-3.4-0.9-6.6-2.5-9.5-4.7s-5.3-5.1-7.2-8.5c-1.9-3.5-3.1-7.1-3.4-10.7c-0.4-3.7,0-7.2,1.1-10.6c1.1-3.4,2.9-6.6,5.5-9.6
				c2.6-3,5.8-5.6,9.7-7.7c2-1.1,4.2-2,6.4-2.8c2.2-0.7,4.2-1.3,6.2-1.7c1.9-0.4,3.6-0.7,5-0.9c1.4-0.2,2.4-0.3,3-0.4
				c0.4-0.1,0.9-0.3,1.4-0.6c0.5-0.3,0.8-0.7,0.9-1.2l1.7,0.2l-0.3,14.3l-1.7-0.1l-0.2-1c-0.3-0.6-1.1-1.1-2.4-1.3
				c-1.2-0.2-2.7-0.2-4.5-0.1c-1.8,0.2-3.6,0.6-5.6,1.2c-2,0.6-3.9,1.4-5.6,2.4c-2.4,1.3-4.4,3-6,4.9c-1.6,1.9-2.7,4-3.4,6.1
				c-0.7,2.2-0.9,4.4-0.6,6.8c0.2,2.4,1,4.7,2.3,6.9c1.3,2.4,2.9,4.4,4.9,6c1.9,1.6,4,2.7,6.3,3.4c2.3,0.7,4.7,0.9,7.2,0.6
				c2.5-0.3,5-1.2,7.5-2.5c1.7-1,3.3-2.1,4.8-3.6c1.5-1.4,2.8-2.9,3.8-4.3c1.1-1.5,1.9-2.9,2.6-4.2c0.6-1.3,1-2.4,1.1-3.2
				c0.1-0.5-0.1-0.9-0.4-1.3c-0.3-0.4-0.6-0.7-1-1l0.8-1.5L221.3,222.7L221.3,222.7z"/>
			<path id="path40" inkscape:connector-curvature="0" class="st0" d="M280.5,215.8l-14.9,3.2l-0.4-1.8c0.8-0.4,1.3-0.8,1.5-1.2
				c0.2-0.4,0.2-1.1,0-2.1l-3.5-16.6l-26,5.6l3.5,16.6c0.2,1,0.5,1.6,0.8,1.9c0.4,0.3,1,0.4,2,0.5l0.4,1.8l-14.9,3.2l-0.4-1.8
				c0.9-0.5,1.4-0.9,1.6-1.3c0.2-0.4,0.2-1.1,0-2.1l-8.9-41.8c-0.2-0.9-0.5-1.6-0.8-1.8c-0.4-0.3-1-0.5-2-0.5l-0.4-1.8l14.9-3.2
				l0.4,1.8c-0.8,0.4-1.4,0.9-1.6,1.3c-0.2,0.4-0.2,1.1-0.1,2l3.5,16.2l26-5.6l-3.5-16.2c-0.2-1-0.5-1.6-0.8-1.9
				c-0.3-0.3-1-0.4-2-0.5l-0.4-1.8l14.9-3.2l0.4,1.8c-0.8,0.4-1.3,0.8-1.6,1.3c-0.2,0.4-0.2,1.1,0,2l8.9,41.8
				c0.2,0.9,0.5,1.6,0.8,1.9c0.3,0.3,1,0.5,2,0.5L280.5,215.8L280.5,215.8z"/>
			<path id="path42" inkscape:connector-curvature="0" class="st0" d="M302,204.6l-2.4,5.6c-1.2,2.2-0.8,3.6,1.3,4.2l-0.1,1.8
				l-16.6-1.3l0.1-1.8c1.3-0.2,2.3-0.8,3-1.7c0.7-0.9,1.4-1.9,2-3l18.4-38.1c0.2-0.4,0.4-0.7,0.5-1.1c0.1-0.4,0.1-0.8,0-1.1
				c-0.1-0.4-0.3-0.7-0.6-1c-0.3-0.3-0.8-0.6-1.5-0.8l0.1-1.8l23.8,1.9l-0.1,1.8c-0.8,0.1-1.4,0.3-1.7,0.6c-0.4,0.3-0.6,0.6-0.8,1
				c-0.1,0.4-0.1,0.7-0.1,1.1c0.1,0.4,0.2,0.8,0.3,1.2l12.1,40.4c0.4,1.1,0.9,2.2,1.5,3.3c0.6,1,1.5,1.8,2.7,2.2l-0.1,1.8l-16.6-1.3
				l0.1-1.8c1-0.2,1.8-0.5,2.2-1.2c0.4-0.6,0.4-1.5,0-2.8l-1.6-5.9L302,204.6z M318.9,174.3l-3.1-0.2l-10.4,22.9l20.2,1.6
				L318.9,174.3z"/>
			<path id="path44" inkscape:connector-curvature="0" class="st0" d="M449.2,261.2c1.1-1.2,1.7-2.3,1.9-3.4
				c0.2-1.1,0.1-2.1-0.3-3.2c-0.4-1-1-2-1.8-2.9c-0.8-0.9-1.6-1.7-2.5-2.5l-12-10.2l-9.2,10.9l10.8,9.2c0.9,0.8,1.9,1.5,3,2.3
				c1.1,0.7,2.2,1.3,3.3,1.6c1.1,0.3,2.3,0.4,3.4,0.2C447.1,263,448.2,262.3,449.2,261.2z M462.5,243.5c1.4-1.7,1.8-3.4,1.1-4.9
				c-0.7-1.5-2.1-3.2-4.2-5l-11.8-10l-7.6,9l13.2,11.2c1.7,1.4,3.3,2.2,4.8,2.2C459.7,246.1,461.1,245.2,462.5,243.5z M457.5,269.7
				c-1.9,2.2-3.9,3.7-6.1,4.3c-2.2,0.6-4.3,0.8-6.5,0.3c-2.2-0.4-4.3-1.2-6.4-2.5c-2.1-1.2-4-2.6-5.8-4.1l-22.9-19.5l1.2-1.4
				c0.8,0.4,1.5,0.6,2,0.5s1-0.5,1.7-1.3l27.6-32.6c0.6-0.7,0.9-1.3,0.9-1.8c0-0.5-0.3-1.1-0.8-1.9l1.2-1.4l23.2,19.7
				c1.5,1.3,2.9,2.8,4.2,4.5c1.3,1.7,2.2,3.5,2.8,5.3c0.6,1.9,0.8,3.8,0.5,5.8c-0.3,2-1.3,4-3,6c-1.5,1.8-3.2,3.1-5.1,3.9
				c-1.9,0.8-4.1,1-6.5,0.6l-0.3,0.3c0.6,1,1,2.1,1.3,3.4c0.3,1.2,0.3,2.5,0.2,3.8c-0.1,1.3-0.5,2.6-1,3.9
				C459.3,267.2,458.5,268.5,457.5,269.7L457.5,269.7z"/>
			<path id="path46" inkscape:connector-curvature="0" class="st0" d="M405.7,244.7l-13.8-5.9l0.7-1.7c0.9,0.1,1.6,0.1,2-0.1
				c0.4-0.2,0.8-0.8,1.2-1.6l12.4-29.3l-31.7,24.8l-3.4-39.6l-12.4,29.3c-0.4,0.9-0.5,1.5-0.4,2c0.1,0.4,0.6,1,1.3,1.5l-0.7,1.7
				l-13.1-5.5l0.7-1.7c0.9,0.1,1.5,0.1,2-0.1c0.5-0.2,0.9-0.7,1.2-1.6l16.7-39.4c0.4-0.9,0.5-1.6,0.3-2c-0.2-0.5-0.6-1-1.3-1.5
				l0.7-1.7l17.2,7.3l-0.7,1.7c-0.7-0.2-1.3,0-1.8,0.5c-0.5,0.6-0.7,1.2-0.6,2l2.4,29.6l23.2-18.2c0.7-0.6,1.2-1.2,1.3-2
				c0.1-0.7-0.1-1.4-0.7-2l0.7-1.7l16.9,7.1l-0.7,1.7c-1.1-0.1-1.9,0-2.3,0.2c-0.4,0.3-0.7,0.8-1,1.5l-16.7,39.4
				c-0.4,0.9-0.5,1.6-0.3,2c0.2,0.5,0.6,1,1.4,1.6L405.7,244.7L405.7,244.7z"/>
			<path id="path48" inkscape:connector-curvature="0" class="st0" d="M473.4,318.5l-1-1.4c0.5-0.6,0.7-1.1,0.7-1.5
				c0-0.4-0.3-1-0.8-1.7l-21-29l1.5-1.1c0.7,0.5,1.3,0.9,1.8,0.9c0.5,0.1,1.1-0.2,1.9-0.8l34.6-25.1c0.8-0.6,1.2-1.1,1.3-1.6
				c0.1-0.5,0-1.2-0.3-1.9l1.5-1.1l9,12.4l-1.5,1.1c-0.7-0.6-1.3-0.9-1.8-0.9c-0.4,0-1.1,0.3-1.9,0.9l-30.8,22.4l13.3,18.3
				c0.5,0.7,1.1,1.1,1.6,1.2c0.5,0.1,1.2-0.1,2-0.5l1,1.4L473.4,318.5L473.4,318.5z"/>
			<path id="path50" inkscape:connector-curvature="0" class="st0" d="M540.4,339.7c-0.9-1-2-1.9-3.3-2.5c-1.3-0.6-2.6-1.1-3.9-1.3
				l-30.3-2.9l-13,6c-0.9,0.4-1.5,0.8-1.7,1.3c-0.2,0.4-0.2,1.1-0.1,2l-1.6,0.8l-6.8-14.7l1.6-0.8c0.6,0.7,1.1,1.1,1.6,1.2
				c0.5,0.1,1.2,0,2-0.4l12-5.5l18.6-25.1c0.8-1.3,1.3-2.6,1.7-4c0.3-1.4,0.3-2.8,0-4.3l1.6-0.8l8.5,18.5l-1.6,0.8
				c-0.7-1-1.5-1.4-2.2-1.3c-0.8,0.1-1.5,0.6-2,1.5l-12.3,16.2l20.5,1.7c1.1,0.2,1.9,0,2.5-0.6c0.6-0.6,0.7-1.4,0.5-2.4l1.6-0.8
				l7.6,16.5L540.4,339.7L540.4,339.7z"/>
		</g>
		<g id="g4418">
			<g id="g4223">
				<g id="Layer1004" transform="matrix(1.0583332,0,0,1.0583332,-14.999968,-145.49996)">
					<path id="path53" inkscape:connector-curvature="0" sodipodi:nodetypes="ccccccc" class="st1" d="M134.5,369v26.5h10.3v70.6
						h36.6V369H134.5z"/>
					<path id="path4236" inkscape:connector-curvature="0" sodipodi:nodetypes="csccccccccccccsscccccc" class="st1" d="
						M231.8,367.5c-15.6,0.1-25.2,2.6-32,8.1c-7.8,6.3-10.2,16-10.2,27.2c0,5.4,0.8,10.6,2.2,14.8c1.5,4.5,3.9,7.9,6.7,10.6
						c2.4,2.3,5.2,4,8.1,5.2l-15,0l0,4.7c0,6.2,1.5,12.1,5.1,17c6.3,8.5,18.3,12.8,37.6,12.5c8.6-0.2,16.5-1,23.8-5.1
						c5.6-3.1,10.1-7.2,12.7-12.5v0c4.7-9.8,4.2-21.6,4.2-31.2c0-10.4,0-18.8-1.8-26.1c-1.7-7.3-5.4-13-11.1-17.2
						C255.3,370.4,245.8,367.5,231.8,367.5L231.8,367.5L231.8,367.5L231.8,367.5C231.8,367.5,231.8,367.5,231.8,367.5L231.8,367.5z"
						/>
					<path id="path57" inkscape:connector-curvature="0" sodipodi:nodetypes="csccssccccscccccccc" class="st1" d="M322.3,367.7
						c-6.6,0-17.8-0.1-26.9,5.3c-7.1,4.3-12.1,11.4-12.2,22.4c-0.1,8.7,3.6,15.1,8.8,19c-0.6,0.3-1.1,0.5-1.7,0.9
						c-4,2.4-6.7,6-8.2,10s-1.9,8.3-2,12.9v0c0,6.8,2.2,15,10.3,21.5c8.6,6.9,21.2,7.7,31.6,8c6.8,0.2,14.5-0.4,21.7-2.6
						c7.2-2.3,14.1-6.3,18.2-13.3c2.4-4.1,3.3-8.8,3.2-13.5c-0.1-8.9-2.3-17.3-9.5-22.3c-0.8-0.6-1.7-1-2.5-1.5
						c5.3-4.1,8.1-9.9,8.7-16.2c0.8-8.9-2-15.9-6.5-20.5C346.7,368.8,333.1,367.6,322.3,367.7L322.3,367.7z"/>
					<path id="path59" inkscape:connector-curvature="0" sodipodi:nodetypes="csccccccccccccsscccccc" class="st1" d="M412.3,367.5
						c-15.6,0.1-25.2,2.6-32,8.1c-7.8,6.3-10.2,16-10.2,27.2c0,5.4,0.8,10.6,2.2,14.8c1.5,4.5,3.9,7.9,6.7,10.6
						c2.4,2.3,5.2,4,8.1,5.2l-15,0l0,4.7c0,6.2,1.5,12.1,5.1,17c6.3,8.5,18.3,12.8,37.6,12.5c8.6-0.2,16.5-1,23.8-5.1
						c5.6-3.1,10.1-7.2,12.7-12.5v0c4.7-9.8,4.2-21.6,4.2-31.2c0-10.4,0-18.8-1.8-26.1c-1.7-7.3-5.4-13-11.1-17.2
						C435.9,370.4,426.4,367.5,412.3,367.5L412.3,367.5L412.3,367.5L412.3,367.5C412.4,367.5,412.4,367.5,412.3,367.5L412.3,367.5z"
						/>
				</g>
			</g>
			<g id="Layer1004-2" transform="matrix(1.0583332,0,0,1.0583332,-14.990532,-145.4989)">
				<path id="path4343" inkscape:connector-curvature="0" class="st0" d="M139.2,373.7h37.5v87.7h-27.2v-70.6h-10.3L139.2,373.7
					L139.2,373.7z"/>
				<path id="path4345" inkscape:connector-curvature="0" class="st0" d="M231.9,372.3c13.4-0.1,21.7,2.6,27.5,7
					c5,3.7,7.8,8.1,9.3,14.6c1.6,6.5,1.6,15.1,1.5,25.5c-0.2,12.1-0.7,21.3-3.4,27.6c-2.4,5.5-6.6,8.9-10.7,11.2
					c-6.3,3.6-13.4,4.5-21.8,4.6c-18.5,0.3-28.7-3.8-33.7-10.6c-2.9-3.9-4.2-8.6-4.1-14.1l26.6,0l0.1,1.5c0.1,1.4,0.2,4.5,2.8,6.3
					c2,1.4,4.6,1.7,7.3,1.6c2.4-0.1,5.8-0.5,7.8-2.6c2-2.1,2.4-5.9,2.4-11l0-4.2c-4.5,3.1-16.8,3.7-27.2,1.6
					c-5.5-1.1-10.5-2.9-14.3-6.5c-2.4-2.3-4.2-4.8-5.5-8.7c-1.2-3.6-2-8.4-2-13.3c-0.1-10.5,2-18.3,8.4-23.5
					C208.4,374.8,216.8,372.3,231.9,372.3L231.9,372.3z M232.5,387.6c5.7,0,10.9,1.2,10.9,15s-6.2,14.5-11.5,14.5
					c-5.3,0-11.2-0.9-11.2-15.2C220.7,388.2,226.8,387.6,232.5,387.6L232.5,387.6z"/>
				<path id="path4347" inkscape:connector-curvature="0" class="st0" d="M339.3,415.2c5.3,0.7,10.1,2,13.6,4.5
					c5.6,3.9,7.4,10.3,7.5,18.5c0.1,4.1-0.7,7.9-2.5,11.1c-6.7,11.3-22.9,13.9-35.7,13.6c-10.1-0.3-21.9-1.5-28.8-6.9
					c-7.1-5.6-8.5-11.7-8.5-17.8c0-8.6,1.7-15.1,7.9-18.9c3.4-2.1,7.7-3.4,13.7-4.1c-3.3-0.6-6.5-1.4-9.2-2.8c-5.6-2.9-9.4-8-9.3-17
					c0.1-9.9,3.6-14.6,9.9-18.4c7.4-4.4,18-4.6,24.5-4.7c10.3,0,22.8,1.5,29.7,8.5c3.7,3.8,5.9,8.9,5.2,16.8
					c-0.6,6.2-2.9,10.8-8.4,14.1C346,413.5,342.8,414.6,339.3,415.2z M323,387.4c4.4,0,8.4,0.9,8.4,10.5c0,9.6-4.8,10.5-8.8,10.5
					s-8.7-1.1-8.7-11C313.9,387.9,318.6,387.4,323,387.4z M323.1,422.8c6.4,0,10.5,1.6,10.5,12.8c0,11.3-5.3,12.2-11.2,12.2
					c-5.9,0-10.9-1.4-10.9-13.1C311.6,423.7,316.7,422.8,323.1,422.8z"/>
				<path id="path4349" inkscape:connector-curvature="0" class="st0" d="M412.4,372.3c13.4-0.1,21.7,2.6,27.5,7
					c5,3.7,7.8,8.1,9.3,14.6c1.6,6.5,1.7,14.6,1.6,25c0,9.7,0.3,20.9-3.7,29.1c-2.1,4.3-5.7,7.6-10.7,10.5
					c-6.3,3.5-13.3,4.3-21.6,4.5c-18.5,0.3-28.7-3.8-33.7-10.6c-2.9-3.9-4.2-8.6-4.1-14.1l26.6,0l0.1,1.5c0.1,1.4,0.2,4.5,2.8,6.3
					c2,1.4,4.6,1.7,7.3,1.6c2.4-0.1,5.8-0.5,7.8-2.6c2-2.1,2.4-5.9,2.4-11l0-4.2c-4.5,3.1-16.8,3.7-27.2,1.6
					c-5.5-1.1-10.5-2.9-14.3-6.5c-2.4-2.3-4.2-4.8-5.5-8.7c-1.2-3.6-2-8.4-2-13.3c-0.1-10.5,2-18.3,8.4-23.5
					C388.9,374.8,397.3,372.3,412.4,372.3L412.4,372.3z M413,387.6c5.7,0,10.9,1.2,10.9,15s-6.2,14.5-11.5,14.5s-11.2-0.9-11.2-15.2
					C401.2,388.2,407.3,387.6,413,387.6L413,387.6z"/>
			</g>
		</g>
	</g>
</g>
</svg>
