<?xml version="1.0" encoding="utf-8"?>
<!-- Generator: Adobe Illustrator 26.0.2, SVG Export Plug-In . SVG Version: 6.00 Build 0)  -->
<svg version="1.1"
	 id="Ebene_1" xmlns:cc="http://creativecommons.org/ns#" xmlns:dc="http://purl.org/dc/elements/1.1/" xmlns:inkscape="http://www.inkscape.org/namespaces/inkscape" xmlns:rdf="http://www.w3.org/1999/02/22-rdf-syntax-ns#" xmlns:sodipodi="http://sodipodi.sourceforge.net/DTD/sodipodi-0.dtd" xmlns:svg="http://www.w3.org/2000/svg"
	 xmlns="http://www.w3.org/2000/svg" xmlns:xlink="http://www.w3.org/1999/xlink" x="0px" y="0px" width="1000px" height="1000px"
	 viewBox="0 0 1000 1000" style="enable-background:new 0 0 1000 1000;" xml:space="preserve">
<style type="text/css">
	.st0{fill:#00448D;}
	.st1{fill:#E10019;}
	.st2{fill:#FFFFFF;}
	.st3{fill:#00448D;stroke:#00448D;stroke-width:3.0385;stroke-miterlimit:4.0514;}
	.st4{fill:#E10019;stroke:#E10019;stroke-width:3.0385;stroke-miterlimit:4.0514;}
	.st5{fill-rule:evenodd;clip-rule:evenodd;fill:#FFFFFF;}
</style>
<sodipodi:namedview  bordercolor="#666666" borderopacity="1" gridtolerance="10" guidetolerance="10" id="namedview87" inkscape:current-layer="Ebene_1" inkscape:cx="-44.625297" inkscape:cy="519.61052" inkscape:pageopacity="0" inkscape:pageshadow="2" inkscape:window-height="691" inkscape:window-maximized="0" inkscape:window-width="1280" inkscape:window-x="9" inkscape:window-y="0" inkscape:zoom="0.48243153" objecttolerance="10" pagecolor="#ffffff" showgrid="false">
	</sodipodi:namedview>
<g id="g4908" transform="matrix(1.0128386,0,0,1.0128386,721.93875,274.19213)">
	<circle id="path3594" class="st0" cx="-219.1" cy="222.9" r="493.7"/>
	<circle id="circle3596" class="st1" cx="-219.1" cy="222.9" r="466"/>
	<circle id="circle3658" class="st2" cx="-219.1" cy="222.9" r="443.3"/>
</g>
<g id="g4904" transform="matrix(1.0128386,0,0,1.0128386,721.93875,274.19213)">
	<path id="circle3660" inkscape:connector-curvature="0" sodipodi:nodetypes="sccs" class="st1" d="M75.6,222.9
		c0,162.8-131.9,294.7-294.7,294.7V-71.7C-56.4-71.7,75.6,60.2,75.6,222.9L75.6,222.9z"/>
	<path id="circle3598" inkscape:connector-curvature="0" sodipodi:nodetypes="cscc" class="st0" d="M-219.1,517.6
		c-162.8,0-294.7-131.9-294.7-294.7S-381.9-71.7-219.1-71.7L-219.1,517.6z"/>
</g>
<g id="g4863" transform="matrix(1.0128386,0,0,1.0128386,721.93875,274.19213)">
	<g id="g3649" transform="translate(0.59977,0)">
		<path id="circle3609" inkscape:connector-curvature="0" sodipodi:nodetypes="cccccsscc" class="st2" d="M-190.6,251
			c-14.3,9.3-31.4,14.8-49.7,14.8c-50.2,0-91-40.7-91-91c0-50.2,40.7-91,91-91V60.7c-63,0-114.1,51.1-114.1,114.1
			s51.1,114.1,114.1,114.1c22.4,0,43.4-6.5,61-17.7L-190.6,251z"/>
		<path id="circle3602" inkscape:connector-curvature="0" sodipodi:nodetypes="csssccssscc" class="st2" d="M-78.2,361.4
			c-32.3,31.7-84.3,54.7-137.4,54.7c-107.7,0-195-87.3-195-195c0-107.7,87.3-195,195-195c52.9,0,100.9,21.1,136,55.3l26.2-21.7
			C-94.8,18.1-152.2-7.7-215.6-7.7c-126.4,0-228.8,102.4-228.8,228.8c0,126.4,102.4,228.8,228.8,228.8c62,0,120.6-28.9,158.5-65.7
			L-78.2,361.4z"/>
		<path id="rect3612" inkscape:connector-curvature="0" class="st2" d="M-289.4,114.5h19.6v120.2h-19.6V114.5z"/>
		<path id="rect3614" inkscape:connector-curvature="0" sodipodi:nodetypes="ccccc" class="st2" d="M-249.8,234.8v-19.6h-39.6v19.6
			H-249.8z"/>
		<path id="rect3616" inkscape:connector-curvature="0" sodipodi:nodetypes="ccccc" class="st2" d="M-242.4,60.7h22.7v267.6
			l-22.7,20V60.7z"/>
		<path id="circle3623" inkscape:connector-curvature="0" sodipodi:nodetypes="csssccssscc" class="st2" d="M-317.8,337.4
			c23,29.9,59,49.2,99.6,49.2c69.3,0,125.6-56.2,125.6-125.6c0-69.3-56.2-125.6-125.6-125.6c-3.4,0-6.8,0.1-10.1,0.4l0,22.3
			c3.3-0.3,6.7-0.5,10.1-0.5c57,0,103.3,46.2,103.3,103.3c0,57-46.2,103.3-103.3,103.3c-33.2,0-62.7-15.6-81.6-40L-317.8,337.4z"/>
		<path id="circle3628" inkscape:connector-curvature="0" sodipodi:nodetypes="ccccccssscc" class="st2" d="M-226.6,156.4
			c2.3,0.3,4.7,0.5,7,0.5c26.6,0,48.1-21.5,48.1-48.1c0-26.6-21.5-48.1-48.1-48.1c-2.6,0-5.1,0.2-7.6,0.6l1.4,22.9
			c2-0.5,4.1-0.8,6.3-0.8c14,0,25.4,11.4,25.4,25.4c0,14-11.4,25.4-25.4,25.4c-2.8,0-5.5-0.5-8-1.3L-226.6,156.4z"/>
	</g>
	<g id="text4505">
		<path id="path4592" inkscape:connector-curvature="0" class="st3" d="M-604.3,89.7l4.8-12.1l52.2,21.1l11.2-27.6l10.4,4.2
			l-16,39.7L-604.3,89.7L-604.3,89.7z"/>
		<path id="path4594" inkscape:connector-curvature="0" class="st3" d="M-512.2,23.5l-13.2,20.6l10,12.4l-7.3,11.5l-43.7-56.8
			l7.1-11.1l69.9,15.9l-7.3,11.5C-496.8,27.4-512.2,23.5-512.2,23.5z M-532.4,35l9.1-14.2l-10.3-2.7l-17.2-5.1l-0.1,0.2l11.8,13.5
			L-532.4,35z"/>
		<path id="path4596" inkscape:connector-curvature="0" class="st3" d="M-458.8-82.8c1.1,1.3,2,2.7,2.6,4.1c0.5,1.4,0.8,2.8,0.9,4.2
			s0,2.8-0.2,4.2c-0.3,1.3-0.6,2.5-1.1,3.6c3.1-1.5,6.3-1.9,9.8-1.4c3.4,0.5,6.6,2.4,9.6,5.7c1.8,2.1,3.2,4.4,4,6.8
			c0.9,2.4,1.1,5,0.8,7.7c-0.4,2.7-1.5,5.4-3.2,8.3c-1.7,2.8-4.2,5.7-7.5,8.6l-20.3,17.8l-44.5-50.6l20.6-18.1
			c5.7-5,10.9-7.4,15.8-7.3C-466.6-89-462.4-86.9-458.8-82.8L-458.8-82.8z M-450.3-38.8c3-2.6,4.8-5.4,5.3-8.2
			c0.6-2.8-0.2-5.3-2.1-7.6c-2-2.3-4.4-3.2-7.1-2.8c-2.7,0.3-5.6,1.9-8.7,4.6l-10.4,9.2l12.4,14.1C-461-29.4-450.3-38.8-450.3-38.8z
			 M-469.1-61.3c2.1-1.8,3.4-3.9,3.9-6.1c0.4-2.2-0.4-4.5-2.3-6.7c-1.7-1.9-3.6-2.8-5.8-2.7c-2.3,0-4.5,1.1-6.8,3l-11.1,9.8l11,12.5
			C-480.3-51.4-469.1-61.3-469.1-61.3z"/>
		<path id="path4598" inkscape:connector-curvature="0" class="st3" d="M-446.3-113.6l37.7-22.3l5.6,9.5l-26.9,15.9l8.4,14.2
			l25.2-14.9l5.6,9.5l-25.2,14.9l9.1,15.4l27.4-16.2l5.6,9.5L-412-55.6L-446.3-113.6z"/>
		<path id="path4600" inkscape:connector-curvature="0" class="st3" d="M-329.4-145.3c1.6,4.4,1.7,8.6,0.3,12.6
			c-1.3,4-3.7,7.3-7.1,10.1l24.4,20.4l-13.1,4.8l-22.3-18.7l-9.3,3.4l8.6,23.7l-12.2,4.5l-23.1-63.3l23.8-8.7
			c3.6-1.3,7.1-2,10.3-1.9c3.2,0,6.1,0.5,8.6,1.5c2.6,1,4.8,2.6,6.7,4.7C-331.9-150.3-330.4-148-329.4-145.3L-329.4-145.3z
			 M-341.7-140.8c-1-2.8-2.7-4.6-5-5.6c-2.3-1.1-5.2-1-8.7,0.3l-11.6,4.3l6.8,18.6l11.6-4.3c3.3-1.2,5.5-3,6.7-5.3
			C-340.7-135.2-340.6-137.9-341.7-140.8L-341.7-140.8z"/>
		<path id="path4602" inkscape:connector-curvature="0" class="st3" d="M-257.6-158.8c0.7,4.6,0,8.7-2.1,12.4
			c-2.1,3.6-5,6.5-8.9,8.6l20,24.6l-13.7,2.2l-18.3-22.6l-9.8,1.6l4,24.9l-12.8,2.1l-10.6-66.6l25-4c3.8-0.6,7.3-0.6,10.4,0.1
			c3.1,0.6,5.9,1.6,8.2,3.1s4.2,3.5,5.7,5.9C-259-164.2-258-161.6-257.6-158.8L-257.6-158.8z M-270.4-156.7
			c-0.5-2.9-1.8-5.1-3.9-6.5c-2.1-1.5-4.9-1.9-8.6-1.4l-12.2,2l3.1,19.6l12.2-2c3.4-0.5,5.9-1.9,7.6-3.9
			C-270.5-151-269.9-153.6-270.4-156.7L-270.4-156.7z"/>
		<path id="path4604" inkscape:connector-curvature="0" class="st3" d="M-222.5-112.9l-13,0.2l-1.1-67.4l13-0.2
			C-223.6-180.3-222.5-112.9-222.5-112.9z"/>
		<path id="path4606" inkscape:connector-curvature="0" class="st3" d="M-175.7-108.4c-5.2-0.6-9.7-2.1-13.5-4.3
			c-3.8-2.3-6.8-5.1-9.1-8.6c-2.3-3.4-3.9-7.4-4.8-11.8c-0.9-4.4-1-9.1-0.4-14c0.6-4.9,1.9-9.4,3.8-13.4c1.9-4.1,4.4-7.5,7.5-10.3
			s6.7-4.8,10.9-6c4.3-1.3,9-1.6,14.1-1c3.6,0.4,6.9,1.2,9.9,2.3c3,1.1,5.8,2.6,8.4,4.5l-4.4,9.4c-4.4-3.1-9.1-4.9-14.2-5.6
			c-6.7-0.8-12,0.7-15.9,4.5c-3.9,3.8-6.3,9.5-7.2,17.1c-0.9,7.6,0,13.7,2.9,18.4c2.9,4.7,7.7,7.4,14.3,8.2c2,0.2,4.4,0.2,7.2-0.1
			c2.9-0.3,5.7-1,8.6-2.2l1.8,10.3c-2.8,1.2-6,2-9.4,2.5C-168.6-107.9-172.1-107.9-175.7-108.4L-175.7-108.4z"/>
		<path id="path4608" inkscape:connector-curvature="0" class="st3" d="M-95-118.7l-26-8.7l-9.1,27.3l-12.3-4.1l21.3-63.9l12.3,4.1
			l-8.7,26l26,8.7l8.7-26l12.3,4.1l-21.3,63.9l-12.3-4.1C-104.1-91.4-95-118.7-95-118.7z"/>
		<path id="path4610" inkscape:connector-curvature="0" class="st3" d="M-49.5-103.7c-3.9,6.6-5.7,12.5-5.2,17.8
			c0.5,5.3,3.4,9.5,8.6,12.6s10.2,3.6,15.1,1.6c4.9-2.1,9.3-6.4,13.2-13s5.7-12.5,5.2-17.8c-0.5-5.3-3.4-9.5-8.6-12.6
			c-5.2-3.1-10.2-3.6-15.1-1.6S-45.5-110.3-49.5-103.7z M-60.6-110.4c2.5-4.2,5.5-7.8,8.8-10.8c3.3-3,6.9-5.1,10.8-6.5
			c3.9-1.3,8-1.7,12.2-1.2c4.3,0.5,8.7,2,13.1,4.7c4.5,2.7,7.9,5.8,10.4,9.3c2.5,3.5,4,7.3,4.7,11.3c0.7,4.1,0.5,8.3-0.5,12.6
			c-1,4.3-2.8,8.6-5.4,12.9s-5.5,7.8-8.8,10.8c-3.3,3-6.9,5.1-10.8,6.4c-3.8,1.4-7.9,1.8-12.2,1.3c-4.3-0.5-8.6-2.1-13.1-4.8
			c-4.5-2.7-7.9-5.8-10.4-9.3c-2.5-3.6-4-7.4-4.7-11.4c-0.6-4-0.4-8.2,0.6-12.6S-63.1-106.1-60.6-110.4L-60.6-110.4z"/>
		<path id="path4612" inkscape:connector-curvature="0" class="st3" d="M63.8-60.6l9.5,8.9L27-2.7l-9.5-8.9l9.5-43.6
			c0.6-2.7,1.2-5.2,2-7.6c0.8-2.4,1.7-4.7,2.8-7.1l-0.2-0.2c-1.5,2.4-3.1,4.7-4.8,6.8c-1.5,2.1-3,4-4.5,5.5L-2.9-30.9l-9.5-8.9
			l46.3-49l10.2,9.6L33.8-36.4c-0.6,2.7-1.3,5.2-2,7.6c-0.7,2.4-1.7,4.8-2.8,7.2l0.2,0.2c1.5-2.4,3.1-4.7,4.6-6.8
			c1.6-2.1,3.2-4,4.7-5.5C38.5-33.8,63.8-60.6,63.8-60.6z"/>
		<path id="path4614" inkscape:connector-curvature="0" class="st3" d="M117.8,7.3l7.3,10.7L69.5,56l-7.3-10.7L80.8,4.8
			c1.1-2.5,2.3-4.8,3.6-7c1.3-2.2,2.7-4.3,4.3-6.3l-0.2-0.2c-2,2-4,3.9-6.1,5.6c-2,1.7-3.8,3.2-5.6,4.4L46.3,22l-7.3-10.7l55.7-38
			l7.9,11.6L83.4,24.6c-1.1,2.5-2.3,4.8-3.6,6.9c-1.2,2.2-2.6,4.3-4.2,6.4l0.2,0.2c2-2,4-3.9,6-5.6c2.1-1.7,4-3.2,5.7-4.4L117.8,7.3
			z"/>
		<path id="path4616" inkscape:connector-curvature="0" class="st3" d="M139.7,46l17.1,40.3l-10.1,4.3l-12.2-28.7l-15.2,6.5l11.5,27
			l-10.1,4.3l-11.5-27l-16.5,7l12.4,29.3l-10.1,4.3L77.7,72.4L139.7,46z"/>
	</g>
	<g id="text4516" transform="matrix(0.99983848,-0.01797258,0.01797258,0.99983848,-8.4676499,-3.8919792)">
		<path id="path4619" inkscape:connector-curvature="0" class="st4" d="M-614.5,360.4c-2-6.2-2.8-12-2.3-17.5
			c0.6-5.4,2.2-10.4,4.9-14.9s6.3-8.3,10.8-11.6c4.5-3.3,9.7-5.9,15.6-7.8c5.9-1.9,11.6-2.8,17.2-2.8c5.6,0,10.8,1.1,15.6,3.1
			c4.8,2,9,5.1,12.6,9.2c3.7,4.1,6.6,9.3,8.6,15.5c1.4,4.4,2.3,8.5,2.6,12.4c0.3,3.9,0.1,7.9-0.6,11.9l-13,0
			c1.2-6.6,0.8-13-1.2-19.1c-2.6-8-7.1-13.2-13.5-15.6c-6.4-2.4-14.1-2.1-23.3,0.8c-9.1,3-15.6,7.3-19.3,13
			c-3.7,5.8-4.3,12.6-1.8,20.5c0.8,2.4,2.1,5.1,3.9,8.1c1.9,3.1,4.2,6,7,8.6l-10.7,7.4c-2.9-2.6-5.4-5.7-7.7-9.3
			C-611.2,368.7-613.1,364.8-614.5,360.4L-614.5,360.4z"/>
		<path id="path4621" inkscape:connector-curvature="0" class="st4" d="M-532.3,441l-18.2-29l-30.5,19.2l-8.7-13.8l71.3-44.8
			l8.7,13.8l-29,18.2l18.2,29l29-18.2l8.7,13.8l-71.3,44.8l-8.7-13.8L-532.3,441L-532.3,441z"/>
		<path id="path4623" inkscape:connector-curvature="0" class="st4" d="M-480.2,524.7l-22.1-21l-17.6,9.3l-12.3-11.7l80.1-40
			l11.9,11.4l-36.1,81.9l-12.3-11.7L-480.2,524.7L-480.2,524.7z M-489.5,497.1l15.2,14.5l5.7-12l10.3-19.9l-0.2-0.2l-19.4,11.2
			L-489.5,497.1z M-425.4,476l-11.4-10.9l2.6-10.8l-10.7,3.1l-11.4-10.9l24.8-1.7l6.7,6.4L-425.4,476L-425.4,476z"/>
		<path id="path4625" inkscape:connector-curvature="0" class="st4" d="M-424.8,586.6l-14-8.3l36.1-60.5l-20.8-12.1l7.2-12l55.4,33
			l-7.2,12l-20.6-12.6L-424.8,586.6L-424.8,586.6z"/>
		<path id="path4627" inkscape:connector-curvature="0" class="st4" d="M-346.5,532.4l52,17.1l-4.3,13.1l-37.1-12.2l-6.4,19.6
			l34.8,11.4l-4.3,13.1l-34.8-11.4l-7,21.3l37.8,12.4l-4.3,13.1l-52.7-17.3L-346.5,532.4L-346.5,532.4z"/>
		<path id="path4629" inkscape:connector-curvature="0" class="st4" d="M-234.6,622.5L-265,620l-7.9,18.3l-16.9-1.4l37.2-81.5
			l16.4,1.3l23.4,86.5l-16.9-1.4L-234.6,622.5L-234.6,622.5z M-259.1,606.9l20.9,1.7l-3.1-12.9l-4.5-21.9l-0.2,0l-8,20.9
			L-259.1,606.9L-259.1,606.9z"/>
		<path id="path4631" inkscape:connector-curvature="0" class="st4" d="M-148.4,623.7c5.4-0.9,9.3-3.5,11.8-7.6
			c2.5-4.2,3.1-10,1.8-17.4l-8.5-49.4l16-2.8l8.5,49.3c2.1,12,0.6,21.4-4.3,28.1c-4.9,6.8-12.6,11-23,12.8
			c-10.4,1.8-19.1,0.3-26-4.4c-6.9-4.7-11.4-13.1-13.4-25.1l-8.5-49.3l16-2.8l8.5,49.4c1.3,7.4,3.7,12.7,7.4,15.8
			C-158.4,623.6-153.8,624.7-148.4,623.7z"/>
		<path id="path4633" inkscape:connector-curvature="0" class="st4" d="M-40,538.3c2.4,5.3,2.9,10.5,1.5,15.6
			c-1.3,5.1-3.9,9.5-7.9,13.3l32.2,23.3l-15.9,7.1l-29.4-21.3l-11.3,5.1l12.9,28.8l-14.8,6.6l-34.4-76.9l28.9-12.9
			c4.4-2,8.6-3.1,12.6-3.3c4-0.3,7.6,0.1,10.9,1.1c3.3,1.1,6.2,2.8,8.8,5.2C-43.5,532.2-41.5,535-40,538.3L-40,538.3z M-54.8,544.9
			c-1.5-3.3-3.8-5.5-6.8-6.6c-3-1.1-6.6-0.7-10.8,1.2l-14.1,6.3l10.1,22.6l14.1-6.3c4-1.8,6.6-4.2,7.9-7.2
			C-53.1,551.8-53.2,548.5-54.8,544.9L-54.8,544.9z"/>
		<path id="path4635" inkscape:connector-curvature="0" class="st4" d="M-0.8,531.4c6,7.5,12.2,12.1,18.6,13.8s12.5,0.2,18.5-4.5
			c5.9-4.7,8.8-10.4,8.5-17c-0.3-6.6-3.4-13.7-9.4-21.1c-6-7.5-12.2-12.1-18.6-13.8s-12.5-0.2-18.5,4.5c-5.9,4.7-8.8,10.4-8.5,17
			C-9.9,516.8-6.7,523.9-0.8,531.4L-0.8,531.4z M-13.5,541.5c-3.8-4.8-6.8-9.8-8.8-15s-3-10.4-2.9-15.4c0.2-5.1,1.5-10.1,4-14.9
			c2.4-4.8,6.2-9.3,11.3-13.3c5.1-4.1,10.2-6.7,15.5-8.1c5.2-1.4,10.3-1.5,15.3-0.5c5,1,9.9,3,14.5,6.2c4.6,3.1,8.9,7.1,12.7,11.9
			c3.8,4.8,6.8,9.8,8.8,15c2,5.2,3,10.4,2.8,15.5c-0.1,5.1-1.4,10-3.8,14.9c-2.5,4.8-6.3,9.2-11.4,13.2c-5.1,4.1-10.2,6.8-15.4,8.1
			c-5.2,1.3-10.4,1.5-15.4,0.5c-5-1-9.8-3.1-14.4-6.2C-5.4,550.3-9.6,546.3-13.5,541.5z"/>
		<path id="path4637" inkscape:connector-curvature="0" class="st4" d="M110.7,463c3.3-4.4,4.3-9,3.2-13.6
			c-1.1-4.8-4.7-9.4-10.8-13.8l-40.4-29.7l9.6-13.1l40.3,29.6c9.8,7.2,15.3,14.9,16.4,23.2c1.2,8.3-1.4,16.7-7.7,25.2
			c-6.3,8.5-13.5,13.5-21.8,14.9c-8.3,1.4-17.3-1.5-27.1-8.7l-40.3-29.6l9.6-13.1L82.3,464c6,4.4,11.5,6.5,16.3,6.3
			C103.4,469.9,107.5,467.4,110.7,463z"/>
		<path id="path4639" inkscape:connector-curvature="0" class="st4" d="M133.8,353.7l51.5-11.5l-6.6,16.6l-37.6,7.3l-0.1,0.2
			l22.3,31.1l-6.6,16.6l-29.5-43.7l-48,10.6l6.7-16.8l33.9-6.3l0.1-0.2l-20.2-28l6.7-16.8L133.8,353.7L133.8,353.7z"/>
	</g>
	<g id="g4856">
		<path id="path4842" inkscape:connector-curvature="0" class="st2" d="M-21.4,215.5l-5.1-3.8l10.9-14.9c-0.6,0.1-1.1,0.1-1.5,0.2
			c-0.4,0-0.7,0.1-1,0.1c-3.7,0-6.9-1.4-9.6-4.2c-2.7-2.8-4-6.2-4-10.1c0-4.2,1.5-7.8,4.5-10.8c3-3,6.6-4.5,10.8-4.5
			c4.2,0,7.8,1.5,10.8,4.4c3.1,2.9,4.6,6.4,4.6,10.4c0,3.5-1.5,7.4-4.5,11.5L-21.4,215.5L-21.4,215.5z M-25,182.3
			c0,2.5,0.8,4.5,2.5,6.2c1.7,1.7,3.7,2.5,6.1,2.5c2.4,0,4.4-0.8,6.1-2.5c1.7-1.7,2.5-3.7,2.5-6.1c0-2.4-0.8-4.4-2.5-6.1
			c-1.7-1.7-3.7-2.5-6.1-2.5c-2.4,0-4.4,0.8-6.1,2.5C-24.1,178-25,180-25,182.3z"/>
		<path id="path4846" inkscape:connector-curvature="0" class="st2" d="M-11.3,220.3l5.1,3.8l-10.9,14.8c0.6-0.1,1.1-0.1,1.5-0.2
			c0.4,0,0.7-0.1,1-0.1c3.7,0,6.9,1.4,9.6,4.3c2.7,2.8,4,6.2,4,10.1c0,4.2-1.5,7.8-4.5,10.8c-3,3-6.5,4.5-10.7,4.5
			c-4.1,0-7.8-1.5-10.9-4.4c-3.1-2.9-4.6-6.4-4.6-10.4c0-3.6,1.5-7.4,4.5-11.5L-11.3,220.3L-11.3,220.3z M-7.7,253.4
			c0-2.4-0.8-4.5-2.5-6.1c-1.7-1.7-3.7-2.5-6.1-2.5c-2.4,0-4.4,0.8-6.1,2.5c-1.7,1.7-2.5,3.7-2.5,6.1c0,2.4,0.8,4.4,2.5,6.1
			c1.7,1.7,3.7,2.5,6.1,2.5c2.4,0,4.4-0.8,6.1-2.5C-8.6,257.7-7.7,255.7-7.7,253.4L-7.7,253.4z"/>
		<path id="path4852" inkscape:connector-curvature="0" sodipodi:nodetypes="ccccccccccc" class="st5" d="M-55.1,205.6v6.6h19.2
			v-6.8h-6.2v-38L-59,183.1l4.9,4.8l5.2-4.4v22.1L-55.1,205.6z"/>
		<path id="path4854" inkscape:connector-curvature="0" sodipodi:nodetypes="ccccccccccc" class="st5" d="M-55.1,259.6v6.6h19.2
			v-6.8h-6.2v-38L-59,237.1l4.9,4.8l5.2-4.4v22.1L-55.1,259.6z"/>
	</g>
</g>
</svg>
