<?xml version="1.0" encoding="utf-8"?>
<!-- Generator: Adobe Illustrator 26.0.2, SVG Export Plug-In . SVG Version: 6.00 Build 0)  -->
<svg version="1.1"
	 id="Ebene_1" xmlns:cc="http://creativecommons.org/ns#" xmlns:dc="http://purl.org/dc/elements/1.1/" xmlns:inkscape="http://www.inkscape.org/namespaces/inkscape" xmlns:rdf="http://www.w3.org/1999/02/22-rdf-syntax-ns#" xmlns:sodipodi="http://sodipodi.sourceforge.net/DTD/sodipodi-0.dtd" xmlns:svg="http://www.w3.org/2000/svg"
	 xmlns="http://www.w3.org/2000/svg" xmlns:xlink="http://www.w3.org/1999/xlink" x="0px" y="0px" width="606px" height="693px"
	 viewBox="0 0 606 693" style="enable-background:new 0 0 606 693;" xml:space="preserve">
<style type="text/css">
	.st0{fill:#C30140;}
	.st1{fill:#002F67;}
	.st2{fill:#FFFFFF;}
</style>
<sodipodi:namedview  bordercolor="#666666" borderopacity="1" gridtolerance="10" guidetolerance="10" id="namedview63" inkscape:current-layer="Ebene_1" inkscape:cx="362.12203" inkscape:cy="247.26786" inkscape:pageopacity="0" inkscape:pageshadow="2" inkscape:window-height="691" inkscape:window-maximized="1" inkscape:window-width="1280" inkscape:window-x="0" inkscape:window-y="1" inkscape:zoom="7.0615352" objecttolerance="10" pagecolor="#ffffff" showgrid="false" showguides="true">
	</sodipodi:namedview>
<g id="g4721" transform="translate(-627.66568,-4.0488302)">
	<path id="path4620" inkscape:connector-curvature="0" sodipodi:nodetypes="scccsccccccscccss" class="st0" d="M927.6,4.2
		c-44.4,0-84.1,7.5-109.6,13.8C746,35.8,683.4,68.5,631.8,115l-4.1,3.7v5.5c0,28.2,1.1,55.4,3.3,81.7h-0.2
		c2.1,22.7,5.1,44.6,8.9,65.9h575.8c3.3-18.5,5.9-37.6,8-57.1h0.3c2.7-29,4.1-59.1,4.1-90.5v-5.5l-4.1-3.7
		c-51.6-46.6-114.2-79.2-186.2-97c-25.5-6.3-65.2-13.8-109.6-13.8H927.6z"/>
	<path id="path4629" inkscape:connector-curvature="0" sodipodi:nodetypes="ccccccsccc" class="st1" d="M639.6,271.9
		c9.8,55.2,25.2,106.4,46.5,154c23.1,51.8,53.5,99.8,90.3,142.6c39.8,46.3,88.3,88.1,144.2,124.1l6.9,4.5l6.9-4.5
		c55.9-36,104.4-77.7,144.2-124.1c36.8-42.9,67.2-90.8,90.3-142.6c21.3-47.7,36.7-98.7,46.5-154H639.6z"/>
</g>
<g id="g4789" transform="translate(-627.66568,-4.0488302)">
	<path id="path4631" inkscape:connector-curvature="0" sodipodi:nodetypes="ccccccsccc" class="st0" d="M665.1,271.9
		c8.8,53.4,23.2,102.7,43.2,148.5c21,48,48.5,92.4,82,132.1c36.1,42.9,80.2,81.5,130.9,114.9l6.3,4.1l6.3-4.1
		c50.8-33.3,94.8-72,130.9-114.9c33.4-39.7,61-84.1,82-132.1c20.1-45.9,34.4-95,43.2-148.5H665.1z"/>
	<path id="path4633" inkscape:connector-curvature="0" sodipodi:nodetypes="scccsccccccscccss" class="st1" d="M927.6,29.8
		c-40.3,0-76.4,7-99.5,12.8C762.7,59.1,705.8,89.3,659,132.5l-3.7,3.4v5.1c0,26.1,1,51.3,3,75.6H658c1.7,19,4.1,37.3,7.1,55.3h524.8
		c2.5-15.3,4.6-31.1,6.2-47.1h0.3c2.5-26.9,3.7-54.8,3.7-83.8v-5.1l-3.7-3.4c-46.9-43.2-103.7-73.4-169.1-89.9
		c-23.2-5.8-59.2-12.8-99.5-12.8H927.6z"/>
</g>
<g id="g4532" transform="translate(-3.8688803,26.648805)">
	<path id="path4534" inkscape:connector-curvature="0" class="st2" d="M95.5,150.8c-8.3,5.6-18.4,0.4-23.9-6.8
		c-5.8-7.6-6-18.5,2.5-24.3c1.4-1,2.8-1.7,4.4-2.3c-2.4-3.5-3.6-5.3-5.9-8.9c-2.3,0.7-4.4,1.7-6.3,3c-13.6,9.4-15.5,28.3-5.4,40.9
		c9.5,11.7,26.9,17.3,40.1,8.1c1.5-1.1,2.8-2.3,3.9-3.9c-2.4-3.6-3.7-5.5-6.1-9.1C97.7,148.7,96.7,149.9,95.5,150.8L95.5,150.8z"/>
	<path id="path4536" inkscape:connector-curvature="0" class="st2" d="M114.1,138.2c-8.2-13.6-16.4-27.2-24.7-40.9
		c-4.6,2.8-6.9,4.2-11.4,7.1c10.6,16.4,21.3,32.8,31.9,49.2c7.9-5.2,12-7.6,20.2-12.1c-2.1-3.8-3.2-5.7-5.3-9.5
		C120.5,134.4,118.4,135.7,114.1,138.2L114.1,138.2z"/>
	<path id="path4538" inkscape:connector-curvature="0" class="st2" d="M140,124c-2.4-4.7-3.6-7.1-5.9-11.9c3.9-1.9,5.8-2.9,9.8-4.7
		c-1.8-3.9-2.8-5.9-4.6-9.9c-4,1.9-6,2.8-10,4.8c-2.3-4.6-3.4-6.8-5.7-11.4c4.7-2.3,7-3.5,11.8-5.7c-1.8-4-2.7-5.9-4.5-9.9
		c-9.7,4.4-14.4,6.8-23.9,11.9c9.3,17.2,18.6,34.4,27.9,51.6c8.1-4.4,12.3-6.5,20.6-10.3c-1.8-4-2.7-5.9-4.6-9.9
		C146.4,120.8,144.3,121.9,140,124z"/>
	<path id="path4540" inkscape:connector-curvature="0" class="st2" d="M177.6,74.9c-3.9-12.6-17.3-12.2-27.2-7.9
		c-4.9,2-7.4,3-12.2,5.1c7.8,17.9,15.6,35.8,23.4,53.7c4.2-1.8,6.2-2.7,10.4-4.3c-4-10.1-6-15.1-10-25.1c0.1,0,0.1,0,0.2-0.1
		c6.6,7,13,14.2,19.3,21.6c4.5-1.6,6.7-2.4,11.2-3.9c-5.9-7.5-12.1-14.7-18.4-21.9C178.8,87.1,179.5,81,177.6,74.9z M161.7,89.8
		c-0.8,0.3-1.2,0.4-2,0.7c-2.3-5.8-3.5-8.7-5.8-14.5c0.7-0.3,1-0.4,1.6-0.6c5.9-2.7,9.2-0.2,10.7,3.8
		C167.8,83.6,166.9,87.7,161.7,89.8z"/>
	<path id="path4542" inkscape:connector-curvature="0" class="st2" d="M212.9,47.7c0.8,11.6,1.8,23.3,3,34.8c-0.1,0-0.1,0-0.2,0
		c-4.6-10.8-9.4-21.5-14.3-32.1c-6.7,1.7-10,2.6-16.5,4.6c3.8,19.3,7.9,38.5,12.1,57.6c4.6-1.4,6.9-2.1,11.6-3.4
		c-3.3-13.7-6.4-27.4-9.6-41.2c0.1,0,0.1,0,0.2-0.1c0.1,0.4,0.2,0.6,0.3,1.1c2.2,4.8,3.3,7.2,5.4,12.1c4.3,8.5,8.5,17.1,12.6,25.7
		c3.3-0.8,5-1.2,8.4-2c-0.5-9.4-0.8-18.8-1.1-28.2c-0.4-5.8-0.6-8.7-1-14.6c0.1,0,0.1,0,0.2,0c3.8,13.6,7.5,27.2,11.2,40.8
		c4.5-0.9,6.8-1.3,11.3-2c-5.2-19-10.7-37.9-16.4-56.7C223.1,45.4,219.7,46.1,212.9,47.7z"/>
	<path id="path4544" inkscape:connector-curvature="0" class="st2" d="M263.8,38.5c-16.3,1.6-20.5,19.2-18.3,32.8
		c2,12.3,9.5,28.9,24.2,27.4c14.8-1.4,18.9-19.2,18.4-31.6C287.6,53.4,280.1,36.9,263.8,38.5z M268.7,88.1
		c-7.6,0.7-9.9-13.9-10.4-18.5c-0.6-5.2-1.8-19.5,6.6-20.4c8.4-0.8,10.1,13.5,10.4,18.7C275.7,72.5,276.2,87.3,268.7,88.1
		L268.7,88.1z"/>
	<path id="path4546" inkscape:connector-curvature="0" class="st2" d="M320.4,64.1c-0.1,3,0,6.1,0.6,8.9c-0.1,0.1-0.1,0.1-0.2,0.2
		c-4.5-12.1-9.4-24-14.7-35.7c-5,0-7.5,0-12.5,0.1c0.5,19.5,1,39.1,1.5,58.6c4.5-0.1,6.7-0.2,11.1-0.1c0-10.8,0.1-16.1,0.1-26.9
		c0-1,0-1.4-0.1-2.4c-0.2-2.4-0.3-3.5-0.5-5.9c0.1-0.1,0.1-0.1,0.2-0.1c5,11.7,9.5,23.6,13.6,35.7c4.2,0.2,6.3,0.3,10.5,0.6
		c1.4-19.5,2.8-39,4.2-58.5c-5.2-0.4-7.8-0.5-12.9-0.7C321.1,48.3,320.9,53.6,320.4,64.1L320.4,64.1z"/>
	<path id="path4548" inkscape:connector-curvature="0" class="st2" d="M339.3,49.8c4,0.3,5.9,0.5,9.9,1c-1.7,15.8-3.5,31.6-5.2,47.5
		c4.4,0.5,6.7,0.8,11.1,1.4c2.2-15.8,4.5-31.5,6.7-47.3c4,0.6,5.9,0.9,9.9,1.5c0.7-4.3,1.1-6.4,1.8-10.7
		c-11.1-1.7-22.1-3.1-33.2-4.2C339.9,43.3,339.7,45.5,339.3,49.8z"/>
	<path id="path4550" inkscape:connector-curvature="0" class="st2" d="M410.1,62.3c5,1.3,7.5,2.1,12.5,3.6c1.3-4.2,1.9-6.3,3.2-10.4
		c-10.1-3.1-15.2-4.4-25.5-6.9c-4.5,19-9,38.1-13.5,57.1c4.4,1,6.5,1.6,10.9,2.8c2.5-9.4,3.8-14.1,6.3-23.5c4.2,1.1,6.4,1.7,10.6,3
		c1.2-4.2,1.9-6.2,3.1-10.4c-4.3-1.3-6.5-1.9-10.9-3.1C408.2,69.5,408.8,67.1,410.1,62.3z"/>
	<path id="path4552" inkscape:connector-curvature="0" class="st2" d="M453.7,64c-15.4-5.9-27.1,7.8-31.3,21.1
		c-3.8,12-4.3,30.1,9.7,35.4c14,5.3,25.8-8.4,31-19.9C468.9,87.9,469.1,69.9,453.7,64z M451,95.5c-1.8,4.3-7.9,17.8-15.1,15
		c-7.2-2.8-2.8-16.9-1.2-21.2c1.7-4.9,7.2-18.3,15.1-15.2C457.9,77.1,453,90.6,451,95.5z"/>
	<path id="path4554" inkscape:connector-curvature="0" class="st2" d="M500.9,85.5c-14.6-7.8-28.1,4.1-33.9,16.9
		c-5.3,11.6-7.8,29.4,5.5,36.5c13.3,7.1,26.8-4.8,33.5-15.7C513.4,111.1,515.5,93.3,500.9,85.5z M494.5,116.5
		c-2.3,4.1-10,16.7-16.9,13c-6.9-3.7-0.8-17.1,1.3-21.3c2.4-4.7,9.4-17.3,17-13.2C503.5,99,497,111.9,494.5,116.5z"/>
	<path id="path4556" inkscape:connector-curvature="0" class="st2" d="M524.3,100.1c-2.3,3.7-3.4,5.5-5.7,9.2
		c3.5,2.2,5.2,3.3,8.7,5.6c-8.7,13.3-17.5,26.6-26.2,39.9c3.9,2.6,5.8,3.9,9.6,6.6c9.2-13,18.3-26,27.5-39c3.4,2.4,5.1,3.7,8.5,6.2
		c2.6-3.5,3.9-5.2,6.5-8.7C543.9,112.8,534.3,106.2,524.3,100.1L524.3,100.1z"/>
</g>
<g id="g4729" transform="translate(-627.66568,-4.0488302)">
	
		<path id="path4566" inkscape:connector-curvature="0" sodipodi:nodetypes="cccccccccccccccccccccssccccsccccccccccccssssscsssscccccccccccccccccccccccccccccccccccccccccccccccccccccccc" class="st2" d="
		M1059.1,432.6c-3.3-1.9-14.5-11.1-17.1-11.2c-0.8-2.7-0.2-4.4-1.5-6.5c-3.6-5.6-10.7-4.3-15.8-1.7c-1.2,0.6-11.8,4.2-13.1,1.1
		c1.9-2,3.7-4,5.5-6.1c-0.3-3.7-2.4-8.8-4.2-13.3c-3.9-10.1-6.6-23.4-8.4-35.4c0.4-0.2,0.9-0.5,1.3-0.8c2-0.8,4.3,1.6,5.5,2.5
		c3.3,2.4,7,4.5,11.6,5.7c4.7,1.3,11-5.5,14.3-6.1c-0.1-4.8-3.2-9-4.7-12.6c-2.9-6.7-5.5-13.4-8-20.2c-0.6-1.5-1.2-5.7-2.1-7
		c-2.4-3.4-5.6-11.3-5.9-14.4c-0.6-0.1-1.1-0.1-1.7-0.2l-8.9,4.2c-4.2-5.3-4.1-4.3-7.4-10.1c-0.2-0.1-0.4-0.3-0.6-0.4l-10,4l1.3,5.1
		c0.8,3.1,2.9,5.8,0.8,5.8c-6.9,0-13.8-0.1-20.6-0.1l-10.2,4.8l12.9,6.4c0,2-19.2,0.4-17.6,1.5l-4.5,3.5c-4,3.2,8,12.6,5.9,14.5
		c-0.6-0.2-6.9-15.9-7-19.2c2.7-0.7,3.4-2.3,4.9-4c7.2-8.2-4.5-17.7-8-22.6H945l-9.6,4.1c-3.2,0.1-1,3.9-3.7,4.2
		c0.3-6.8,3.6-12,3.6-18.1h-1.1c-1.2,1.8-7.5,2.5-9,4.3l-5.8,19.1c-4-5.2-9.2-9.1-12.7-14.7c-0.7-3.7-4.3-5.5-4.3-7.4
		c0-1.3,5.6-3.7,0.2-8c-1.4-1.1-3.7,0.5-5.9,1.2l-2.4,0.8c-0.9,0.3,3.2-9.9,3.3-23c0.1-8.5,2.1-18,1.8-17.9c-0.5,0.5-1-2.3-2.9,6.3
		c-1.1,4.9-1.4,12.1-3.2,18.7c-1.8,6.8-2.5,13.3-2.5,17.2c0,1-3.8,2.1-3.4,4.2c1.2,6.4,10.6,11.5,10.7,11.8c2,10.5,6,16.7,10.4,23.8
		c1.2,1.9,1.6,4.9,3.4,6.1v0.6c-6.4-0.6-11.2-2.3-17.9-2.3l-10,3.9c0.7,0.3,3.3,4.1,3.3,4.1c-0.9,0.3-6.1,6-7,7.2
		c-7,9.6-11.5,25.3-11.2,43h29.1c-0.9,1.4-1.9,3.5-1.9,4.8c-3.8,2.4-9.8,0.9-14.1,2.5c-4.4,1.6-11.9,1.1-17.3,3
		c-5.9,2.2-12.3,3.1-17.5,5.1c-2,0.6-4.1,1.3-6.1,1.9c-5.4,3.3-11.3,6.1-15.2,10.8c-2.9,3.5-4,7.7-6.6,11.6
		c-3.5,5.2-22.9,11.2-32.3,11.2l-10.2,3.9c8.1,4.2,34.2,1.1,43.5-1.8c2.3-0.7,12.7-5.6,13.5-5.3c5.2-4.7,11.9-8.6,16.9-12.9
		c4.1-3.5,9.5-9.7,15.8-10.8c-9.2,12-4.6,32.2-20,39c-2.2,1-8.2,2.5-11.6,1.5c-1.7-0.5-5.5-1-7-0.8l-10.4,4c1,4.3,11,10.9,9.8,13.5
		c-3.8,8.5-7.5,16.8-16.9,20.9c-0.4-0.1-0.8-0.1-1.1-0.2c-1.6,0-3.3,0.7-4.9-0.2c-1.9-1-3.7-1.9-5.5-2.9h-0.6l-9.8,4.2
		c0.1,0.3,1,7.9,1.1,8.1c14.9,3.2,49.7-3.5,56.9-10.6c4.3-4.4,0.1-17.5,6.3-20.4c5.3-2.4,12.2,1.2,16.3,2.9c4.4,1.7,16.3,0.5,20-0.8
		c9.4-3.2,14.4-10.5,23.2-13.9c6-0.4,12-0.9,18.1-1.3c7.1-1.2,15.4-3.6,22.4-5.1c4.1-2.2,9.2-1.4,13.1-3.2c3.8-1.3,7.6-2.5,11.4-3.8
		c4.7-2.5,13.3-5.2,18.3-6.3c12.2-2.6,23.8-8.9,37.5-3.4c-1.1,6.8-3.5,16-11.1,16.3l-13.9,17.7c3.1-0.1,16.1-7.1,18.1-8.7
		c6.2-4.8,17.5-12,17.1-22c4.5,1.6,9,3.2,13.5,4.7l35.1,23.4c4.2,0,6.9-2.1,10.2-3.5h0.4v-1.5
		C1087.4,451.7,1074.3,441.4,1059.1,432.6L1059.1,432.6z"/>
	<path id="path4558" inkscape:connector-curvature="0" class="st1" d="M889.6,292.9c-0.3,0-0.6,0.1-1,0.1c-1.4,1.4-1,11.5-0.6,13.9
		c2,10.5,6,16.7,10.4,23.8c1.2,1.9,1.6,4.9,3.4,6.1v0.6c-6.4-0.6-11.2-2.3-17.9-2.3c0,0.1-0.6,3.4-0.6,3.4c-1.2,1.5-3.8,2.6-5.5,3.6
		c0.7,0.3-0.6,1-0.6,1c-0.9,0.3-6.1,6-7,7.2c-7,9.6-11.5,25.3-11.2,43h29.1c-0.9,1.4-1.9,3.5-1.9,4.8c-3.8,2.4-9.8,0.9-14.1,2.5
		c-4.4,1.6-11.9,1.1-17.3,3c-5.9,2.2-12.3,3.1-17.5,5.1c-2,0.6-4.1,1.3-6.1,1.9c-5.4,3.3-11.3,6.1-15.2,10.8
		c-2.9,3.5-4,7.7-6.6,11.6c-3.5,5.2-22.9,11.2-32.3,11.2v1c8.1,4.2,24,4,33.3,1.1c2.3-0.7,12.7-5.6,13.5-5.3
		c5.2-4.7,11.9-8.6,16.9-12.9c4.1-3.5,9.5-9.7,15.8-10.8c-9.2,12-4.6,32.2-20,39c-2.2,1-8.2,2.5-11.6,1.5c-1.7-0.5-5.5-1-7-0.8h-0.6
		c0.6,2,1.3,3.9,1.9,5.9c1,4.3-0.7,9-1.9,11.6c-3.8,8.5-7.5,16.8-16.9,20.9c-0.4-0.1-0.8-0.1-1.1-0.2c-1.6,0-3.3,0.7-4.9-0.2
		c-1.9-1-3.7-1.9-5.5-2.9h-0.6c-3,3.9-6,7.7-8.9,11.6c0.1,0.3,0.1,0.5,0.2,0.8c14.9,3.2,49.7-3.5,56.8-10.6
		c4.3-4.4,0.1-17.5,6.3-20.3c5.3-2.4,12.2,1.2,16.3,2.9c4.4,1.7,16.3,0.5,20-0.8c9.4-3.2,14.4-10.5,23.2-13.9c6-0.4,12-0.9,18.1-1.3
		c7.1-1.2,15.4-3.6,22.4-5.1c2,0.1,3.9,0.3,5.9,0.4c2-0.6,5.1-2.6,7.2-3.6c3.8-1.3,7.6-2.5,11.4-3.8c4.7-2.5,13.3-5.2,18.3-6.3
		c12.2-2.6,23.8-8.9,37.5-3.4c-1.1,6.8-7.6,10.2-15.2,10.4v19.4c3.1-0.1,6.3-3,8.4-4.6c6.2-4.8,17.5-12,17.1-22
		c4.5,1.6,9,3.2,13.5,4.7c9.5,4.4,22.2,12.8,27.4,21.5c4.2,0,14.6-0.2,17.9-1.5h0.4v-1.5c-15.1-9.3-28.1-19.5-43.4-28.3
		c-3.3-1.9-14.5-11.1-17.1-11.2c-0.8-2.7-0.2-4.4-1.5-6.5c-3.6-5.6-10.7-4.3-15.8-1.7c-1.2,0.6-11.8,4.2-13.1,1.1
		c1.9-2,3.7-4,5.5-6.1c-0.3-3.7-2.4-8.8-4.2-13.3c-3.9-10.1-6.6-23.4-8.4-35.4c0.4-0.2,0.9-0.5,1.3-0.8c2-0.8,4.3,1.6,5.5,2.5
		c3.3,2.4,7,4.5,11.6,5.7c4.7,1.3,11-5.5,14.3-6.1c-0.1-4.8-3.2-9-4.7-12.6c-2.9-6.7-5.5-13.4-8-20.2c-0.6-1.5-1.2-5.7-2.1-7
		c-2.4-3.4-5.6-11.3-5.9-14.4c-0.6-0.1-1.1-0.1-1.7-0.2c0,2.9-0.6,9.4-3,11c-0.2,0.7-0.1,0.6-0.6,1c-4.2-5.3-9.4-12.1-12.7-17.9
		c-0.2-0.1-0.4-0.3-0.6-0.4c-0.9,1.1-0.2,12.4,0.6,15c-9.7-0.1-19.4-0.1-29.1-0.2v1.3c2.9,2.8,5.8,5.7,8.7,8.5
		c-4.2,2.8-15.6,1.4-21.9,1.3c0,2,5.7,11.2,7.2,12.4c-0.6,5-4.8,4.5-7.6,7.2c-0.6-0.2-6.9-15.9-7-19.2c2.7-0.7,3.4-2.3,4.9-4
		c7.2-8.2-4.5-17.7-8-22.6H935c-1.3,4.1-0.1,10.1-1,13.5h-0.2c-1.7-2.6-3.7-5-5.5-7.2c-3.2,0.1-4,1.7-6.6,2.1
		c0.3-6.8,3.6-12,3.6-18.1h-1.1c-1.2,1.8-3.2,2.9-4.7,4.8c-4.7,5.5-7.4,15.5-5.7,26c-2-2.1-2.4-4.8-4.4-7.4c-4-5.2-7.5-10.1-11-15.8
		C896.3,298.8,894.4,292.6,889.6,292.9L889.6,292.9z M934.1,378.2c1.1,0,3.3,0.8,6.1,2.2c2.2,1.1,4.6,2,6.4,2.6
		c1.9,0.5,4.5,1.6,7,2.8c2.2,1,4.5,2,5,2.2c0.6,0.2,1.1,0.4,1.2,0.6c0.1,0.2-3.2,7.3-7.2,15.8c-4,8.5-7.4,15.7-7.6,15.8
		c-0.3,0.3-1.1,0.1-1.5-0.5c-0.2-0.2-0.4-1-0.6-1.8c-0.1-0.8-0.6-2.1-1-2.9c-0.9-1.7-1.1-3.7-0.6-5.4c0.2-0.6,1.1-2.3,2.1-3.8
		c2.2-3.3,2.8-4.7,2.6-6.3c-0.2-1.5-0.6-2.1-2-3.1c-3.5-2.3-9.7-8.5-11.2-11.1c-1.4-2.4-1.4-3-0.1-5.3
		C933.4,379.1,934,378.2,934.1,378.2z M936.2,436.4l1.5,2c0.8,1.1,2.7,3.3,4.2,5s3.2,3.8,3.9,4.8c1.4,2,1.4,2.2-0.1,3
		c-1.6,0.8-3.9,0.7-5.9-0.2c-1.4-0.7-3.1-2.6-4.2-4.8c-0.9-1.8-1-2.2-1.1-4c-0.1-1.9,0-2.1,0.8-3.9L936.2,436.4L936.2,436.4z"/>
</g>
<g id="g4780" transform="translate(-627.66568,-4.0488302)">
	<path id="path4583" inkscape:connector-curvature="0" sodipodi:nodetypes="cccsc" class="st2" d="M1037.3,597l-109.6,88L818,597
		c0-60.5,49.1-109.6,109.6-109.6C988.2,487.4,1037.3,536.5,1037.3,597z"/>
	<g id="g4773">
		
			<path id="path4568" inkscape:connector-curvature="0" sodipodi:nodetypes="sccccscsccsscccsssscsssssssssscccccccssssss" class="st1" d="
			M960.7,550.5c-11.6,0.4-21.3,5.4-25.4,13.6l-2.4,6.7l17.6,1.6c1.8-0.2,2.2-1.2,2.7-3c1-3.8,4.1-5.9,8.9-5.9
			c7.6,0,10.2,9.5,3.9,14.4c-1.9,1.5-4.6,2-3.3,1.9c1.2-0.1-3.5,0.5-5.5,0.4l-0.2,13.1c0.7,0.6,2.2,0.6,5,0.6
			c7.3,0,10.4,3.2,10.4,10.6c0,12.6-14.1,16.4-18.8,5.1l-1.7-4.2l-19.1,0.4c-0.3,0.3-0.1,3.9,0.3,5.8c1.2,4.7,9.8,13,15.3,14.8
			c2.5,0.8,9,1.5,14.5,1.6c19.4,0.3,31.1-10,29.8-26.1c-0.5-6-1.2-7.7-4.7-10.9c-2.3-2-5.1-3.3-6.1-3.3c-2.8,0-2.4-1.9,1.1-5
			c11.9-10.3,6.2-27.1-10.4-30.9C968.6,550.7,964.5,550.4,960.7,550.5L960.7,550.5z M894.5,550.6c-12.2,0.2-24.6,6.4-29.1,18
			c-2.6,6.7-3.8,21.5-2.4,30.8c2.2,14.6,7.8,22.9,18,26.6c7,2.6,23.3,1.8,29.8-1.4c10-4.9,15.4-19.6,11.4-31.5
			c-4.7-14.1-22.5-20.2-35.2-11.9c-1.8,1.2-2.3,1.4-2.6,1c-1.4-1.4,1.2-14.7,3.5-16.8c3.6-3.2,10.9-2.2,12.5,1.7
			c0.6,1.5,1.1,2.3,2.5,2.5l19.2-0.2c0.3-0.3-0.5-3.3-1.3-5C915.9,554.9,905.3,550.4,894.5,550.6L894.5,550.6z M894,589.5
			c5.6,0,10.2,5.9,10.2,13.1c0,7.3-4.5,13.2-10.2,13.2s-10.2-5.9-10.2-13.2S888.4,589.5,894,589.5z"/>
		<path id="path4581" inkscape:connector-curvature="0" class="st1" d="M890.4,533l23-39.9l-2.6-4.6c-27.8,4.3-52.1,19-69.1,39.9
			l2.6,4.5L890.4,533L890.4,533z"/>
		<path id="path4585" inkscape:connector-curvature="0" sodipodi:nodetypes="cccccc" class="st1" d="M845.5,612.1l6.5-11.2
			L828.9,561h-5.3c-2.9,7.4-5,15.3-6.2,23.4L845.5,612.1z"/>
		<path id="path4595" inkscape:connector-curvature="0" class="st1" d="M964.4,533l-23-39.9l2.6-4.6c27.8,4.3,52.1,19,69.1,39.9
			l-2.6,4.5L964.4,533L964.4,533z"/>
		<path id="path4597" inkscape:connector-curvature="0" sodipodi:nodetypes="cccccc" class="st1" d="M1009.4,612.1l-6.5-11.2
			L1026,561h5.3c2.9,7.4,5,15.3,6.2,23.4L1009.4,612.1z"/>
	</g>
</g>
<path id="path4753" inkscape:connector-curvature="0" class="st1" d="M11.9,267.8c9.8,55.2,25.2,106.4,46.5,154
	c23.1,51.8,53.5,99.8,90.3,142.6c39.8,46.3,88.3,88.1,144.2,124.1l6.9,4.5l6.9-4.5c55.9-36,104.4-77.7,144.2-124.1
	c36.8-42.9,67.2-90.8,90.3-142.6c21.3-47.7,36.7-98.7,46.5-154h-25.5c-8.8,53.5-23.2,102.6-43.2,148.5c-21,48-48.5,92.4-82,132.1
	c-36.1,42.9-80.2,81.5-130.9,114.9l-6.3,4.1l-6.3-4.1c-50.8-33.3-94.8-72-130.9-114.9c-33.4-39.7-61-84.1-82-132.1
	c-20-45.8-34.4-95.1-43.2-148.5H11.9z"/>
</svg>
