<?xml version="1.0" encoding="utf-8"?>
<!-- Generator: Adobe Illustrator 26.0.2, SVG Export Plug-In . SVG Version: 6.00 Build 0)  -->
<svg version="1.1" id="svg824" xmlns:svg="http://www.w3.org/2000/svg"
	 xmlns="http://www.w3.org/2000/svg" xmlns:xlink="http://www.w3.org/1999/xlink" x="0px" y="0px" width="513.6px" height="700px"
	 viewBox="0 0 513.6 700" style="enable-background:new 0 0 513.6 700;" xml:space="preserve">
<style type="text/css">
	.st0{fill:none;stroke:#041A54;stroke-width:17;stroke-miterlimit:10;}
	.st1{fill:none;stroke:#DB313C;stroke-width:10;stroke-miterlimit:10;}
	.st2{fill:#FFFFFF;}
	.st3{fill:#041A54;}
</style>
<rect x="37.8" y="10.5" class="st0" width="438" height="679"/>
<rect x="76" y="47.5" class="st1" width="361.6" height="605.1"/>
<g id="g830" transform="matrix(1.3333333,0,0,-1.3333333,-972.72313,892.09698)">
	<g id="g14258" transform="matrix(0.6191857,0,0,0.6191857,277.85578,253.81556)">
		<path id="path860" class="st2" d="M1040.5,595.6l-311-241.3l33.9-102.4l-32.3-95.6l309.4-258.4l309.4,258.4l-32.3,95.6l33.9,102.4
			L1040.5,595.6z"/>
		<g id="g7064">
			<path id="path868" class="st3" d="M1040.5,570.2l-124.7-95.6l106.3,58.6l18.4-114.6l18.4,114.6l106.3-58.6L1040.5,570.2z"/>
			<path id="path880" class="st3" d="M1021.8,306.4l-53.9,122.9l19.8,25.6L1021.8,306.4z"/>
			<path id="path888" class="st3" d="M926,205.7l-80.2-51.3l9.7-67.6l64.7-48.5l12.7-25.8l14.5,31.7l93.2,37.9l93.2-37.9l14.5-31.7
				l12.7,25.8l64.7,48.5l9.7,67.6l-80.2,51.3l52-50.4l-5.9-51L1149.4,70l-105.9,52.4l62.1,52.6l16.5,27.2l-29.9-18.3H988.8
				l-29.9,18.3l16.5-27.2l62.1-52.6L931.6,70l-51.8,34.3l-5.9,51L926,205.7z"/>
			<path id="path900" class="st3" d="M1017.1,509.7L859,428.6l145.6,51.4l36.1-195.4l36.1,195.4l145.6-51.4L1064,509.7l-23.5-148.5
				L1017.1,509.7z"/>
			<path id="path876" class="st3" d="M975.1,319.7l5-92.2l-25.2,70.1l-74.2,9.1l-5.1,27l-44.7,26.7L975.1,319.7z"/>
			<path id="path864" class="st3" d="M745.5,340.1l31.5-99.6L747.2,150l60.3-46.4l-34.1,53l27.5,82.8l-29.8,93.9l46.7,63.1
				L745.5,340.1z"/>
			<path id="path872" class="st3" d="M794,330.2l29.4-88.1l-27-83.3l33.9-58.7l-10.4,63.8l117.6,65.8l-110.6-38l15.6,49.1L810.3,334
				l8.2,31.7L794,330.2z"/>
			<path id="path884" class="st3" d="M881.9,245.3l41.6-3.1l-66.1-21.5l6.6,17.5L833.4,321L881.9,245.3z"/>
			<path id="path896" class="st3" d="M946.6,22.4l6.3-31.3l87.6-67.9l87.6,67.9l6.3,31.3l-43.8-33.1H990.5L946.6,22.4z"/>
			<path id="path6928" class="st3" d="M1106,319.7l-5-92.2l25.2,70.1l74.2,9.1l5.1,27l44.7,26.7L1106,319.7z"/>
			<path id="path6930" class="st3" d="M1335.6,340.1l-31.5-99.6l29.8-90.5l-60.3-46.4l34.1,53l-27.5,82.8l29.8,93.9l-46.7,63.1
				L1335.6,340.1z"/>
			<path id="path6932" class="st3" d="M1287.1,330.2l-29.4-88.1l27-83.3l-33.9-58.7l10.4,63.8l-117.6,65.8l110.6-38l-15.6,49.1
				l32.2,93.2l-8.2,31.7L1287.1,330.2z"/>
			<path id="path6934" class="st3" d="M1199.2,245.3l-41.6-3.1l66.1-21.5l-6.6,17.5l30.7,82.8L1199.2,245.3z"/>
		</g>
	</g>
</g>
</svg>
