<?xml version="1.0" encoding="utf-8"?>
<!-- Generator: Adobe Illustrator 26.0.2, SVG Export Plug-In . SVG Version: 6.00 Build 0)  -->
<svg version="1.1"
	 id="svg836" xmlns:inkscape="http://www.inkscape.org/namespaces/inkscape" xmlns:sodipodi="http://sodipodi.sourceforge.net/DTD/sodipodi-0.dtd" xmlns:svg="http://www.w3.org/2000/svg"
	 xmlns="http://www.w3.org/2000/svg" xmlns:xlink="http://www.w3.org/1999/xlink" x="0px" y="0px" width="700px" height="805px"
	 viewBox="0 0 700 805" style="enable-background:new 0 0 700 805;" xml:space="preserve">
<style type="text/css">
	.st0{fill:#EBC17D;}
	.st1{fill:#FFFFFF;}
	.st2{fill:#132361;}
	.st3{fill:#EC1D25;}
</style>
<sodipodi:namedview  bordercolor="#666666" borderopacity="1.0" id="namedview838" inkscape:current-layer="svg836" inkscape:cx="1677.2861" inkscape:cy="340.81286" inkscape:pagecheckerboard="0" inkscape:pageopacity="0.0" inkscape:pageshadow="2" inkscape:window-height="900" inkscape:window-maximized="0" inkscape:window-width="1440" inkscape:window-x="0" inkscape:window-y="0" inkscape:zoom="0.20539131" pagecolor="#ffffff" showgrid="false">
	</sodipodi:namedview>
<g id="g25955" transform="matrix(0.60552388,0,0,0.60552388,311.6261,540.13102)">
	<g id="g25846">
		<g id="g25836">
			<path id="path5311" class="st0" d="M-15.8-892c-11.8,35.4-25.6,61.7-40,86.1c-15.7-23.4-31.1-47.4-43.6-80.4L-242.9-859
				c-33.6,135.7-150.5,232.3-271.5,270v235.2h52.7c17.8,0,32.2,14.3,32.2,32c0,17.7-14.4,32-32.2,32h-52.7v247.5
				c-0.2,176.3,141.9,260,192.1,286.5L63.6,437.4L449.5,244c50.3-26.4,192.3-110.1,192.1-286.5V-290h-52.7
				c-17.8,0-32.2-14.3-32.2-32c0-17.7,14.4-32,32.2-32h52.7V-589c-121-37.6-237.9-134.3-271.5-270l-143.6-27.4
				c-12.5,33-27.9,57-43.6,80.4c-14.4-24.4-28.2-50.7-40-86.1H63.6H-15.8z"/>
			<path id="path4062" class="st1" d="M-1.8-873.9c-14.1,42.9-31.9,77.7-54,106.1c-20.4-27.4-39.8-64-57-96.2l-113.7,21.9
				c-12.2,50-41.2,103.8-90.6,155.2c-36.3,37.7-96.8,84.8-177.4,111.9v199.7h30.4c31,0,55.9,23.4,55.9,52.5
				c0,29.1-25,52.5-55.9,52.5h-30.4v227.9c1.1,164.2,138.9,246.4,178.1,266.5L63.6,413.4L443.5,224
				c39.2-20.1,177.1-102.3,178.1-266.5v-227.9h-30.4c-31,0-55.9-23.4-55.9-52.5c0-29.1,25-52.5,55.9-52.5h30.4V-575
				c-80.6-27-141.1-74.1-177.4-111.9c-49.4-51.4-78.4-105.2-90.6-155.2L239.9-864c-17.2,32.2-36.6,68.8-57,96.2
				c-22.1-28.4-39.9-63.1-54-106.1H63.6H-1.8z"/>
			<path id="path6409" class="st2" d="M-328.9-631c-50.3,44.5-92.4,64.7-132.3,80.8v141c49.6,2.1,88.9,40,88.9,86.9v0.6
				c0,46.9-39.3,84.9-88.9,86.9v178.4c0,120.4,66,199,155.8,245.9l369,185.6l369-185.6c89.8-46.9,155.8-125.5,155.8-245.9v-178.4
				c-49.6-2.1-88.9-40.1-88.9-86.9v-0.6c0-46.9,39.3-84.9,88.9-86.9v-141c-39.9-16.2-82-36.3-132.3-80.8v593
				c-1.1,99.7-45.8,140.8-94.1,169.4l-298.3,162l-298.3-162c-48.3-28.6-93.1-69.8-94.1-169.4V-631z"/>
		</g>
		<g id="g25831">
			<path id="path6210" sodipodi:nodetypes="cccccc" class="st2" d="M-131.3-824.9l-67.6,12.2c-21.4,62.7-55.2,105.8-88.2,143.7v13.6
				c58.1-27.7,144.4-49.7,233-60.7C-88-748.7-112.4-785.6-131.3-824.9z"/>
			<path id="path25707" class="st2" d="M258.5-824.9l67.6,12.2c21.4,62.7,55.2,105.8,88.2,143.7v13.6
				c-58.1-27.7-144.4-49.7-233-60.7C215.1-748.7,239.6-785.6,258.5-824.9L258.5-824.9z"/>
			<path id="path6107" sodipodi:nodetypes="cccccc" class="st3" d="M22-840.1c-17.5,49.8-43.9,86.8-75.8,123.9
				c39.5-4.9,79.4-7.6,117.4-7.7c38,0.1,77.8,2.8,117.4,7.7c-31.9-37.1-58.4-74.1-75.8-123.9H22z"/>
		</g>
	</g>
	<g id="g3702" transform="translate(-0.58478005)">
		<path id="path1162" sodipodi:nodetypes="csccccccccccccccc" class="st3" d="M27.1-629.3c-49,0.4-175.5,18.7-220.6,37.4
			c-28.1,11.7-45.8,29.6-45.4,57.3v485.9c-0.1,30.6-1.8,65.2,35.3,88.6l230.7,133v-342.6L-68-102.1V12.4l-63.3-37.9
			c-11.4-7.6-13.7-16.4-13.8-33.1v-425.2c-0.5-12.6,1.3-24.3,19.4-29.7l57.7-14.2V-279l95.1-67.6L27.1-629.3L27.1-629.3z"/>
		<path id="path1843" sodipodi:nodetypes="cccccccccccccsccscccccccc" class="st3" d="M101.2-629.3v802.2l75.2-43.4
			c15.3-7.7,20.2-21.2,19.9-31.5v-324.8l65.4,46.4c7.5,6,11.6,11,11.6,19.9V73.6l58.5-33.7c37.1-23.5,35.3-58,35.3-88.6V-194
			c0.3-13.3-3.8-23.1-12.5-29.5l-54.2-39.2c15.8-11.1,33.9-18.7,48.3-36.9c6.5-8.3,18.9-30.5,18.4-50.5v-184.6
			c0.4-27.7-17.2-45.6-45.4-57.3C276.6-610.6,150.1-628.9,101.2-629.3z M196.3-527.7l57.7,14.2c18.1,5.4,19.9,17.1,19.4,29.7v150.9
			c0.2,9.9-6.6,15.5-11.6,18.7l-65.4,46.4V-527.7z"/>
	</g>
</g>
</svg>
