<?xml version="1.0" encoding="utf-8"?>
<!-- Generator: Adobe Illustrator 26.0.2, SVG Export Plug-In . SVG Version: 6.00 Build 0)  -->
<svg version="1.1" id="Calque_1" xmlns="http://www.w3.org/2000/svg" xmlns:xlink="http://www.w3.org/1999/xlink" x="0px" y="0px"
	 width="245.1px" height="239px" viewBox="0 0 245.1 239" style="enable-background:new 0 0 245.1 239;" xml:space="preserve">
<style type="text/css">
	.st0{fill:#FFFFFF;stroke:#EF792A;stroke-width:4;stroke-linecap:round;stroke-linejoin:round;stroke-miterlimit:10;}
	.st1{fill:#00A18A;}
	.st2{fill:#F07E26;}
	.st3{fill:#E40439;}
	.st4{fill:#FFFFFF;}
	.st5{clip-path:url(#SVGID_00000030471260393697037100000002446004761329818772_);}
	.st6{fill:none;stroke:#FFFFFF;stroke-miterlimit:10;}
	.st7{clip-path:url(#SVGID_00000060028223180562188720000015645973928149084077_);}
</style>
<g id="Calque_1_00000165217671865366964400000012182337688072013223_">
</g>
<g id="Calque_2_00000155836754071080614000000007343569850950889352_">
	<path class="st0" d="M49.9,231.3c-3.7,0-10.5-0.6-14.2-4.9c-1.9-2.2-2.7-5.1-2.3-8.4c0.5-3.5,0.7-6.6,0.9-9.3
		c0.5-6.4,0.9-11,3.5-15.9c1.2-2.3,2.2-3.9,3-5.2c1.4-2.2,2.1-3.3,2.2-5.1c-2.1-1.5-6.8-5.4-8.1-8.7c-0.3-0.7-0.5-1.5-0.8-2.2
		c-1-3.1-1.8-5-3.7-5.7c-3.8-1.3-18.2-8.9-18.8-9.2l-0.2-0.1c-1.3-0.9-3.4-3.6-3.1-7.6c0.3-4.5,2.3-9.1,5-11.6l0.2-0.2
		c3.2-2.8,6.3-6.2,3.6-11.4c-5.5-10.7-1.5-15.9,0.5-17.6c2.8-2.5,5.5-3.7,7.3-4.1l5.2-8.2c-2.3-3.1-4.5-8.8-0.8-13.9
		c3-4.2,6.4-5.9,8.7-6.6c-0.8-3.1-1.4-8.6,2.5-12.7c-0.2-1.2-0.4-3.3-0.4-4.4c-0.1-0.1-0.5-0.5-0.8-0.9c-0.7-0.7-1.7-1.7-2.3-3.2
		c-1.2-2.7-1.9-6.7-1.6-10c0.2-2.2-0.2-4.3-0.5-5.6l-0.1-0.5c-0.3-1.7-1.3-6.4,1.7-9.6c1.4-1.5,3.7-2.7,6.1-3.9c2-1,4-2.1,5.3-3.2
		c0.6-0.5,1.3-1.3,2-2.1c2.8-3,6.7-7.2,12.5-6.6c6.2,0.6,8.8,0.9,12.9,4.9c2.2,2.1,4.5,3.4,5.9,4c1.7-1.5,3.5-3,5.5-3.7
		c0.1-1.4,0.4-3.2,1.8-5c2-2.7,5.5-4.4,10.4-4.8c1.4-0.1,2.8-0.2,4.1-0.2c6.7,0,11.9,1.7,14.8,4.8c1.6,1.7,2.3,3.7,2.2,5.9l-0.1,1.8
		c2-0.9,4.7-1.8,7.2-1.8c1.1,0,2.1,0.2,3,0.5c2.1,0.8,4.7,2,7.2,3.1c2.8,1.3,5.7,2.6,7.7,3.2c4.7,1.5,7.3,3.7,9,7.6
		c1,2.4,2,4.4,2.5,5.5l23.2,6.4c1.8-1.3,6.1-3.7,12.5-3.7c0.7,0,1.4,0,2.2,0.1c10,0.9,17.2,3.5,29,15.6c4.4,4.8,8.4,13.6,7.5,21.3
		c1.3,0.9,3.2,2.7,4.2,5.4c0.7,1.9,2.8,8.2,1.1,10.8c-0.4,1-0.5,5.4-0.2,6.4c0.7,1.6,2.7,11.9-6.1,20.1c-0.9,0.8-1.7,1.6-2.5,2.3
		c-5.9,5.4-7.1,6.5-8.8,17.4l-0.1,0.3c-2,6.2-4.7,10.9-7.4,13.1c-0.5,1.8-2,6.4-5.4,9.6c0.3,2.3,1,8.2,1.8,13c0.6,3.5,1.3,5.5,1.9,7
		c0.4,1.2,0.8,2.1,0.8,3.1c0,0.8-0.2,1.4-0.3,1.8c0,0.1-0.1,0.2-0.1,0.3c0.1,0.1,0.2,0.2,0.5,0.5c0.2,0.2,0.5,0.3,0.7,0.5
		c2.9,2.1,8.9,6.5,7.8,14.9c-1,8.2-4.8,17.8-12.1,17.8c-4.3,0-6.2,0.9-7.7,1.7c-0.3,0.2-0.6,0.3-0.8,0.4c-0.8,0.4-1.8,0.5-3.2,0.5
		c-2.2,0-5.1-0.5-7.4-1.4c-2.2-0.8-18.8-3.5-29.6-5.1l-29.4-0.4c0,0-3.9-0.3-9.4-0.3c-6.5,0-16,0.4-24.3,2.4
		c-16.3,3.9-26.4,6.6-34.8,9.4C57,230.8,53.4,231.3,49.9,231.3z M235.9,94.3L235.9,94.3L235.9,94.3z"/>
	<path class="st1" d="M103,15.8c6,0,8.5,1.7,9,2.2l-0.4,5.2c-0.2,2.2,1,4.4,2.9,5.5c1,0.6,2,0.9,3.1,0.9s2.2-0.3,3.1-0.9
		c1.5-0.9,4.6-2.3,6.3-2.3c0.1,0,0.2,0,0.2,0c1.9,0.7,4.3,1.8,6.6,2.9c3.1,1.4,6.1,2.8,8.6,3.6c2.9,0.9,3.5,1.7,4.1,3.2
		c1.6,3.7,3,6.6,3.1,6.7c0.8,1.5,2.1,2.6,3.8,3.1l25,6.9c0.6,0.2,1.2,0.2,1.7,0.2c1.4,0,2.7-0.5,3.8-1.5c0.4-0.3,3.2-2.4,8.1-2.4
		c0.5,0,1,0,1.5,0.1c7.3,0.6,12.9,1.9,23.9,13.1c3.3,3.6,6.2,10.5,5.2,15.6c-0.5,2.6,0.8,5.2,3.1,6.5c0,0,1.2,0.8,1.6,1.9
		c0.8,2.1,1.2,4,1.2,4.9c-1.5,3.7-1.3,9.8-0.4,12.4c0.1,0.5,1.3,6.3-4.1,11.4c-0.9,0.8-1.7,1.5-2.4,2.2c-6.9,6.3-9.2,8.9-11.2,21.6
		c-2.4,7.1-4.7,8.9-4.7,8.9c-1.4,0.9-2.3,2.2-2.6,3.8c-0.3,1.2-1.4,4.8-3.7,6.6c-1.6,1.3-2.4,3.3-2.2,5.3c0,0.3,0.9,8.1,2,14.4
		c0.7,4.3,1.7,7,2.3,8.6c0,0.1,0.1,0.2,0.1,0.4c-0.9,3.5,0.3,6.5,3.3,8.9c0.3,0.2,0.6,0.4,0.9,0.7c3.4,2.5,5,4.3,4.6,7.5
		c-0.9,6.8-3.3,10.4-4.2,10.8c-5.7,0-8.8,1.3-11.2,2.6c-0.1,0-0.1,0.1-0.2,0.1c-0.1,0-0.1,0-0.2,0c-1.3,0-3.2-0.4-4.7-0.9
		c-3.4-1.2-22.9-4.3-31.2-5.5c-0.3,0-0.5-0.1-0.8-0.1l-29.2-0.4c-0.9-0.1-4.7-0.3-9.8-0.3c-6.9,0-17.1,0.5-26.2,2.6
		c-16.5,4-26.8,6.7-35.5,9.6c-2.2,0.7-4.9,1.1-7.6,1.1c-4.4,0-7.3-1.1-8.2-2.2c-0.2-0.2-0.6-0.6-0.4-2c0.5-3.7,0.8-6.9,1-9.6
		c0.5-5.8,0.8-9.4,2.6-12.9c1-2,1.9-3.4,2.7-4.7c1.8-2.9,3.5-5.6,3.5-10.4c0-1.9-1-3.8-2.6-4.9c-2.6-1.9-5.6-4.6-6.2-5.7
		c-0.2-0.6-0.4-1.2-0.7-1.8c-1.2-3.5-2.9-8.7-8.7-10.7c-2.1-0.7-10.7-5.1-16.7-8.2c0-0.1-0.1-0.4-0.1-0.7c0.2-2.9,1.5-5.3,2.3-6.1
		l0.2-0.2c1.4-1.2,4-3.5,5.7-6.9c2.3-4.5,2.2-9.4-0.2-14.2c-2.4-4.6-2.1-7.3-1.4-8c1.7-1.5,3.1-2.1,3.6-2.2c1.9-0.1,3.7-1.1,4.7-2.8
		L37.6,99c1.5-2.3,1.3-5.3-0.6-7.3c-0.3-0.3-2.6-3.1-1.2-5.1c2.2-3.1,4.5-3.6,5.1-3.7c0.1,0,0.1,0,0.2,0c2,0,3.6-0.9,4.7-2.6
		c1.2-1.7,1.2-3.9,0.3-5.8c-0.1-0.3-1.7-4.7,0.4-6.6c1.6-1.3,2.3-3.4,2-5.4c-0.2-1.3-0.5-3.6-0.5-4.4c0-3.3-2-5.3-3-6.4
		c-0.4-0.4-0.7-0.8-0.8-1c-0.6-1.4-1-4-0.9-5.9c0.3-3.4-0.3-6.4-0.6-8l-0.1-0.4v-0.1c-0.3-1.5-0.3-2.2-0.2-2.5
		c0.7-0.6,2.5-1.5,3.8-2.2c2.3-1.2,4.9-2.5,6.9-4.3c0.9-0.8,1.8-1.7,2.6-2.6c1.8-1.9,3.8-4.1,5.5-4.1c0.1,0,0.2,0,0.3,0
		c5.9,0.6,6.1,0.7,8.2,2.7c4.4,4.2,9.3,6,9.9,6.2s1.3,0.3,1.9,0.3c1.4,0,2.9-0.5,4-1.5L86,28c1-0.9,2.7-2.4,3.4-2.6
		c1.8-0.2,3.4-0.9,4.4-2.4s1.3-3,0.8-4.7c0-0.2,0-0.5,0.3-0.8c0.5-0.6,2-1.3,4.7-1.6C100.8,15.8,101.9,15.8,103,15.8"/>
	<circle class="st2" cx="130.8" cy="111.4" r="18.3"/>
	<path class="st3" d="M130.9,57.4c0.1,0.2,0.3,0.4,0.4,0.6c0.5-0.4,1.2-0.8,1.4-1.3c0.3-0.6,0.1-1.4,0.1-2.2c-0.7,0-1.2,0.1-2.1,0.1
		c0.3,0.8,0.6,1.4,0.8,2C131.3,56.8,131.1,57.1,130.9,57.4z"/>
	<g>
		<path class="st4" d="M123.5,188.3c2.5,0,4.4,0.1,4.3,3.6s-1.1,6.8-1.2,8.9c-0.1,2.1-0.5,5.6-2.2,5.7c-1.7,0.1-3.5-0.8-3.4-3.8
			c0.1-3.1-0.3-4.7-0.6-5.8c-0.3-1.1-1.1-3.2-1-5.7C119.6,188.6,123.5,188.3,123.5,188.3z"/>
		<path class="st4" d="M128.6,174.9c-1.4-2-3.2-3.9-1.1-4.4c2-0.5,3.4,0.5,4,2.2s0.8,3.7,0.9,5.5c0.1,1.7-0.5,2.5-0.9,1.6
			C131.1,178.9,129.2,175.8,128.6,174.9z"/>
		<path class="st4" d="M154.4,157.9c5.6-6.8,7.4-12.7,9.1-18.2l4.7-5c0,0-1.5,11.3-8.5,19.1C156.9,157.1,154.4,157.9,154.4,157.9z"
			/>
		<path class="st4" d="M171.7,131.7c6-7.4,8.4-14.3,10.8-20.8c0,0,2.5,8-2.2,15.7c-1.9,3-4.6,4.9-6.2,5.9S171.1,133.9,171.7,131.7z"
			/>
		<path class="st4" d="M172.1,96.7c0,0,3.5,13.4-4.9,26.1s-19.3,16.1-23.6,18.3s-4.6,3.9-5,6.3c-0.2,4.3,4.2,3.3,7.5,1.8
			c16-8.2,23-19.5,27.4-27.2C178.3,113,172.1,96.7,172.1,96.7z M145.2,148c-2.8,1-4.6,1.6-4.9,0.4s1.1-2.1,1.1-2.1
			c5.2-2,22.6-9.5,31.4-29.2C169.1,127.6,165.1,136.2,145.2,148z"/>
		<path class="st4" d="M50.4,193.8c-1,1.7-2,3.6-2.8,5c-1.8,3.2-0.8,5.8-1.8,7.5c-1.1,1.6-0.6,12.9-0.6,12.9s2.2,1.5,13.4-1.1
			c2.8-0.7,5.5-1.4,8.1-2C57,208.1,52.4,199,50.4,193.8z"/>
		<path class="st4" d="M163.3,111.9c1.2-0.7,2.3-1.4,4.4-1c-0.1-1.2-0.2-2.5-0.5-3.7c-2.1-1.5-6.2-2.2-6.2-2.2
			c0.8-1.2,2.9-1.9,5.1-1.8c-0.4-1.1-0.9-2.2-1.4-3.2c-2.5-1-6.8-1.1-6.8-1.1c1-1.4,2.9-2,5-2c-0.6-1-1.2-1.9-1.9-2.8
			c-2.8-0.1-6.7,0.8-6.7,0.8l0.4-0.6c0.8-2,2.4-2.5,4.1-3.1c-0.6-0.7-1.1-1.3-1.7-1.9c-1.9,0-4.3,0.2-5.8,1c0.8-1.2,1.9-2.5,3.1-3.5
			c-0.2-0.2-0.4-0.4-0.7-0.6s-0.5-0.4-0.8-0.6c-4.8,0.3-7.3,2.4-7.3,2.4v-1c0.8-2.1,2.2-3.1,3.4-3.6c-0.7-0.3-1.4-0.6-2.2-0.8
			c-2.5,1.1-5,3-5,3v-1.5c0.4-1,1.5-1.7,2.5-2.3c-1.1-0.3-2.4-0.6-3.7-0.9c-3.2,1.7-5.1,3.9-5.1,3.9s-0.6-0.6,0-2.2
			c0.3-0.7,1.1-1.5,1.9-2.2c-1-0.2-2.1-0.3-3.2-0.4c-2,1.7-3.8,3.7-3.8,3.7c0.1-1.9,0.5-3.2,0.9-4c-1.3-0.1-2.6-0.2-4-0.3l-2.6,4.4
			c0,0-1.1-0.3-1.2-1.6c0-0.7,0.1-1.9,0.3-2.9c-0.9,0-1.9-0.1-2.8-0.1c-0.8,4.7-1.6,3.9-1.9,4S118,82.8,118,82
			c0-0.5,0.1-1.7,0.3-2.8c-3.2,0-6.6,0-10.3,0.1c-28.7,0.8-42.1-5-38.7-17.4c3.4-12.4,14.9-12.3,14.9-12.3l3.4-3.3
			c0,0-13.8-4.2-21.4,6.2c-4.8,7.8-10,19.9,5.7,30.8s34.7,6.7,48.4,6.9c13.8,0.2,32.4,2.3,31.8,21.1s-18,21.6-18,21.6
			s-10,2.3-16.1-5.2c-5.9-4.2-13.8-5-22.2,0.6c1.3,1.9,2.2,2.8,1.9,4.3s-0.3,2.7-1.6,2.2c-1.3-0.5-0.7-3.6-2.4-5.3
			c-1.7-1.6-3.4-2.7-6.2-3.7c-2.9-0.9-6-4.8-7.6-7.3c-1.5-2.6-5.2-8.9-16.4-8.2c-11.2,0.7-22.7,6-32.1,19.2c-3.4,6.1-4.8,8.4-6,10.9
			s-4.4,8.2-1.2,10.1c3.2,1.8,7.4,2.9,9.2,3.5c1.8,0.7,5.4,2.8,6.8,4.4c1.4,1.6,3.2,3,3.4,5.2s1.4,6.1,4.4,7.9s7,4.2,6.8,6.9
			s-1.1,9.1-1.8,10.3c-0.1,0.3-0.4,0.8-0.7,1.4c1.2,3.9,5.7,15.7,18.1,24.8c6.3-1.7,11.6-3.2,14.6-4c4.8-1.3,16.8-4.6,18.8-4.8
			c1.3-6.1,8.2-14.2-2.1-23.7S88.3,170,91,157s4-25.3-13.4-25.5c10-3.4,20.7,1.9,19.7,16.9c-1,14.9-3.4,20.9,5,28.1
			c6.5,4.8,11.7,2.5,15.7,3.3s14.2,5.4,16.7,13.4c0,0,3.3-2.1,2.9-8.6c-0.4-6.5,0-13.4,0-13.4l5.7-5l-8.4,3.4c0,0,1.3,12.3,1.1,14.9
			c-0.2,2.7-0.8,6.1-3.3,0.8c-2.5-5.4-10.3-12.3-12.4-13.8s-3.5-3.7-1.5-6.1c1.5-1.9,3.2-3.7,4.1-4.3c1-0.6,3.1-3.2,1.6-4.7
			s-3.2-2.6-3.7-4.2c0,0,0.8-0.9,2.3-0.3c1.5,0.6,5.5,1.1,8.5,1.1s5.5-1.7,5.1-2.6c-0.4-0.9-1.1-5.8-0.5-6.8s6.1-4.9,9.5-6.8
			c3.4-1.9,20.1-9.2,21.8-22c0-0.1,0-0.2,0-0.4c-0.8-0.8-2.1-1.9-2.9-2.2C163.3,111.9,163.3,111.9,163.3,111.9z M120.9,140.1
			c-0.9-0.5-1-1.1-2.2-1s-1.1,1.5-2,1.6s-1.1-1.1-1.1-1.1s0.3-1-0.6-0.9s-0.4,1.3-1.8,1.1s-3.2-1-2.4-2.4c0.8-1.4,1.4-1.8,3.2-1.6
			c1.7,0.2,4.6,0.9,4.6,0.9s-1.8-2.7-5.7-3.6c-1.5,0.1-2.1,0.5-2.4,1s-1.2,1.8-2,1.7c-1-0.1-2.3-2.1-0.8-3.7c2.1-1.6,4.4-2,7.9,0
			c3.4,2,8.7,7.9,8.7,7.9S121.8,140.6,120.9,140.1z"/>
		<path class="st4" d="M182.4,54.6c0,9.4,0,18.5,0,27.8c2.1,1.2,4.1,2.4,6.3,3.6c0-1.1,0-2,0-2.9c-1.3-0.8-2.5-1.7-3.8-2.5
			c0-3.4,0-6.8,0-10.4c1.4,0,2.8,0,4.1,0c0-1,0-1.7,0-2.7c-1.4,0-2.8,0-4.1,0c0-3.3,0-6.4,0-9.5c1.5-0.1,2.9-0.1,4.3-0.2
			c0-1.2,0-2.1,0-3.1C186.9,54.6,184.8,54.6,182.4,54.6z"/>
		<path class="st4" d="M111.7,68.6c-1.8,0-3.3,0-4.8,0c0-1.6,0-3,0-4.7c1.5,0,2.9,0,4.2,0c0-1.1,0-1.9,0-2.9c-1.5,0-2.9,0-4.2,0
			c0-1.3,0-2.4,0-3.7c1.6,0,3,0,4.6,0c0-1.1,0-2,0-2.8c-2.2,0-4.3,0-6.4,0c0,5.9,0,11.7,0,17.6c2.3-0.3,4.5-0.6,6.7-0.8
			C111.7,70.5,111.7,69.7,111.7,68.6z"/>
		<path class="st4" d="M147.9,54.5c-0.8,3.9-1.6,7.6-2.4,11.3c-0.1,0-0.2,0-0.3-0.1c-0.8-3.8-1.7-7.5-2.5-11.2c-0.9,0-1.6,0-2.4,0
			c1.3,5.6,2.5,11,3.8,16.5c0.9,0.1,1.6,0.2,2.4,0.3c1.3-5.7,2.5-11.1,3.8-16.8C149.4,54.5,148.7,54.5,147.9,54.5z"/>
		<path class="st4" d="M103.1,54.6c-2.8,0-5.6,0-8.2,0c0,1.1,0,2.1,0,3c1,0.1,1.9,0.1,3,0.2c0,5.2,0,10.3,0,15.6
			c0.9-0.2,1.5-0.3,2.2-0.5c0-5.1,0-10.1,0-15.1c1.1-0.1,2-0.1,3-0.2C103.1,56.6,103.1,55.7,103.1,54.6z"/>
		<path class="st4" d="M164.4,54.4c0,7,0,13.7,0,20.6c0.8,0.2,1.5,0.4,2.3,0.6c0-7.2,0-14.2,0-21.2
			C165.9,54.4,165.3,54.4,164.4,54.4z"/>
		<path class="st4" d="M135,54.5c0,5.4,0,10.5,0,15.8c0.8,0,1.5,0,2.3,0c0-2.7,0-5.4,0-8s0-5.2,0-7.8
			C136.4,54.5,135.7,54.5,135,54.5z"/>
		<path class="st4" d="M172.9,68.1c0,3.1,0,6.3,0,9.8c-0.9-0.3-1.6-0.6-2.3-0.9c0-7.5,0-14.9,0-22.5c1.9,0,3.9-0.1,5.8,0.1
			c0.7,0.1,1.6,0.8,2,1.4c1.6,2.5,1.4,9.7-1.1,11.6c0.9,4.5,1.8,8.8,2.7,13.5c-1.3-0.6-2.1-1-2.8-1.3c-1.4-4,0-8.8-3.4-12
			C173.5,67.9,173.2,68,172.9,68.1z M173.1,58.1c0,2.3,0,4.5,0,6.9c1.2-0.1,2.2-0.2,3.1-0.3c1.3-2.4,1.3-4.8-0.2-6.6
			C175,58.1,174.1,58.1,173.1,58.1z"/>
		<path class="st4" d="M82.2,65.1c0.6-2.7,1-5.3,1.7-7.7c0.5-1.7,1.6-3,3.7-3s3.2,1.2,3.8,2.9c2,5.2,2,10.5-0.1,15.7
			c-0.6,1.6-1.9,2.7-3.8,2.7c-1.8,0-3-1.1-3.5-2.7C83.3,70.4,82.8,67.7,82.2,65.1z M90.9,65.1c-0.4-1.8-0.6-3.7-1.1-5.4
			c-0.2-0.7-1.3-1.5-1.9-1.5c-0.7,0-1.7,0.8-2,1.5c-1.3,3.5-1.4,7.2,0.1,10.7c0.3,0.7,1.3,1.6,2,1.5c0.7,0,1.6-0.9,1.9-1.6
			C90.3,68.6,90.5,66.9,90.9,65.1z"/>
		<path class="st4" d="M182.4,54.6c2.4,0,4.5,0,6.8,0c0,1,0,2,0,3.1c-1.4,0.1-2.8,0.1-4.3,0.2c0,3.2,0,6.2,0,9.5c1.4,0,2.7,0,4.1,0
			c0,1,0,1.7,0,2.7c-1.4,0-2.7,0-4.1,0c0,3.6,0,7,0,10.4c1.3,0.8,2.5,1.7,3.8,2.5c0,0.9,0,1.7,0,2.9c-2.2-1.3-4.2-2.4-6.3-3.6
			C182.4,73.1,182.4,63.9,182.4,54.6z"/>
		<path class="st4" d="M151.3,64.1c0.6-2.5,1-4.9,1.6-7.1c0.5-1.7,1.8-2.9,3.8-2.9c1.9,0,3.2,1,3.8,2.6c2,4.7,2.1,9.6-0.1,14.3
			c-1.4,3.1-5.8,3.1-7.3,0C152.1,68.8,151.9,66.4,151.3,64.1z M157,70.4c0.6-0.6,1.5-1.1,1.8-1.8c1.3-3.2,1.3-6.4,0.1-9.6
			c-0.3-0.7-1.3-1.5-2-1.5s-1.9,0.9-2,1.5c-0.4,2.4-0.6,4.9-0.6,7.3C154.2,68,154.8,69.5,157,70.4z"/>
		<path class="st4" d="M119.8,70.6c0-5.4,0-10.7,0-16.1c1.8,0,3.6-0.1,5.3,0c1.8,0.1,2.8,1.4,3.3,3c1.1,3.2,1.1,6.4,0.1,9.6
			c-0.7,2.1-2.1,3.2-4.4,3.2C122.7,70.3,121.4,70.5,119.8,70.6z M122.3,57.9c0,3.1,0,6.1,0,9.1c3.4,0.7,4.5-0.1,4.7-3.4
			c0-0.7,0-1.3,0-2C126.8,58.4,125.8,57.5,122.3,57.9z"/>
		<path class="st4" d="M111.7,68.6c0,1.1,0,1.8,0,2.7c-2.2,0.3-4.4,0.6-6.7,0.8c0-5.9,0-11.7,0-17.6c2.1,0,4.2,0,6.4,0
			c0,0.9,0,1.7,0,2.8c-1.5,0-3,0-4.6,0c0,1.3,0,2.4,0,3.7c1.4,0,2.7,0,4.2,0c0,1,0,1.8,0,2.9c-1.3,0-2.7,0-4.2,0c0,1.7,0,3.1,0,4.7
			C108.4,68.6,109.9,68.6,111.7,68.6z"/>
		<path class="st4" d="M147.9,54.5c0.8,0,1.5,0,2.4,0c-1.3,5.6-2.5,11.1-3.8,16.8c-0.8-0.1-1.6-0.2-2.4-0.3
			c-1.3-5.5-2.5-10.9-3.8-16.5c0.8,0,1.5,0,2.4,0c0.8,3.7,1.7,7.5,2.5,11.2c0.1,0,0.2,0,0.3,0.1C146.3,62.1,147.1,58.4,147.9,54.5z"
			/>
		<path class="st4" d="M103.1,54.6c0,1.1,0,2,0,3c-1,0.1-1.9,0.1-3,0.2c0,5.1,0,10,0,15.1c-0.7,0.2-1.3,0.3-2.2,0.5
			c0-5.3,0-10.4,0-15.6c-1.1-0.1-2-0.2-3-0.2c0-1,0-1.9,0-3C97.6,54.6,100.3,54.6,103.1,54.6z"/>
		<path class="st4" d="M164.4,54.4c0.9,0,1.5,0,2.3,0c0,7,0,14,0,21.2c-0.8-0.2-1.5-0.4-2.3-0.6C164.4,68.1,164.4,61.4,164.4,54.4z"
			/>
		<path class="st4" d="M135,54.5c0.8,0,1.4,0,2.3,0c0,2.6,0,5.2,0,7.8c0,2.6,0,5.2,0,8c-0.9,0-1.5,0-2.3,0C135,65,135,59.9,135,54.5
			z"/>
		<path class="st4" d="M87.8,52.5c-0.9,0.2-1.5,0.4-2.7,0.7c0.7-1.2,1.2-1.9,1.6-2.7c0.6,0,1.3,0,2,0c0.4,0.7,0.9,1.4,1.3,2.1
			c-0.1,0.1-0.2,0.3-0.2,0.4C89.1,52.9,88.4,52.7,87.8,52.5z"/>
	</g>
	<path class="st4" d="M130.9,57.4c0.2-0.3,0.5-0.6,0.6-0.8c-0.3-0.6-0.5-1.2-0.8-2c0.8,0,1.4-0.1,2.1-0.1c0,0.8,0.2,1.6-0.1,2.2
		c-0.2,0.5-0.9,0.9-1.4,1.3C131.1,57.8,131,57.6,130.9,57.4z"/>
	<g>
		<g>
			<defs>
				<circle id="SVGID_1_" cx="130.8" cy="111.4" r="18.3"/>
			</defs>
			<clipPath id="SVGID_00000025439654057213379820000001750437457772135066_">
				<use xlink:href="#SVGID_1_"  style="overflow:visible;"/>
			</clipPath>
			<g style="clip-path:url(#SVGID_00000025439654057213379820000001750437457772135066_);">
				<path class="st6" d="M118.7,125.9c-1.4-6.6-1.1-22.7,0.3-29.2"/>
				<path class="st6" d="M126.5,125.2c-1.2-6.4-1-19.9,0.2-26.9"/>
				<path class="st6" d="M135.6,125.2c1.2-6.4,1-19.9-0.2-26.9"/>
				<path class="st6" d="M144.7,125.9c1.4-6.6,1.1-22.7-0.3-29.2"/>
				<path class="st6" d="M118.4,100.7c6.2-2.7,16.9-3.8,26.7,0"/>
				<path class="st6" d="M118.4,122.8c6.2,2.7,16.9,3.8,26.7,0"/>
				<g>
					<path class="st6" d="M118,104.5c0,0-4.2,0.6-6,3"/>
					<path class="st6" d="M118,119.1c0,0-4.2-0.6-6-3"/>
				</g>
				<g>
					<path class="st6" d="M145.5,118.6c1.4-0.4,3.1-1.2,4.1-2.5"/>
					<path class="st6" d="M145.4,105c1.4,0.4,3.2,1.2,4.3,2.6"/>
				</g>
			</g>
		</g>
		<g>
			<defs>
				<circle id="SVGID_00000108286480250031505290000013483432493239297190_" cx="130.8" cy="111.4" r="18.3"/>
			</defs>
			<clipPath id="SVGID_00000044176850316450032640000001276094885556770965_">
				<use xlink:href="#SVGID_00000108286480250031505290000013483432493239297190_"  style="overflow:visible;"/>
			</clipPath>
			<g style="clip-path:url(#SVGID_00000044176850316450032640000001276094885556770965_);">
				<path class="st4" d="M119.3,106h4.4v1.3h-3.3v3.9h3.1v1.2h-3.1v5.3h-1L119.3,106L119.3,106z"/>
				<path class="st4" d="M131.8,106v11.6h-1V106H131.8z"/>
				<path class="st4" d="M139,106h4.4v1.3h-3.3v3.9h3.1v1.2h-3.1v5.3h-1L139,106L139,106z"/>
			</g>
		</g>
	</g>
</g>
</svg>
