<?xml version="1.0" encoding="utf-8"?>
<!-- Generator: Adobe Illustrator 26.0.2, SVG Export Plug-In . SVG Version: 6.00 Build 0)  -->
<svg version="1.1" id="Ebene_1" xmlns="http://www.w3.org/2000/svg" xmlns:xlink="http://www.w3.org/1999/xlink" x="0px" y="0px"
	 width="444.4px" height="561.3px" viewBox="0 0 444.4 561.3" style="enable-background:new 0 0 444.4 561.3;" xml:space="preserve"
	>
<style type="text/css">
	.st0{fill-rule:evenodd;clip-rule:evenodd;fill:#DFB774;}
	.st1{fill-rule:evenodd;clip-rule:evenodd;fill:#005EA8;}
	.st2{fill-rule:evenodd;clip-rule:evenodd;fill:#FFFFFF;}
	.st3{fill-rule:evenodd;clip-rule:evenodd;fill:#E32219;}
</style>
<path class="st0" d="M437,91.5c-28.3-1.8-53-7.4-73.2-16.8c-16-7.4-29.2-17.2-39.4-29c-17.4-20.1-20-39.7-20-39.9L303.7,0l-163,0
	L140,5.8c0,0.2-2.6,19.8-20,39.9c-10.2,11.8-23.5,21.6-39.4,29c-20.2,9.4-44.8,15-73.2,16.8L0,92l1.4,7.3
	c0.2,0.8,15.5,82.5,49.6,173c20.1,53.3,42.7,99.3,67.1,136.6c30.9,47.1,64.9,80.7,101.1,99.8l3.1,1.6l3.1-1.6
	c36.2-19.1,70.3-52.6,101.1-99.8c24.5-37.3,47-83.3,67.1-136.6c34.1-90.5,49.4-172.2,49.6-173l1.4-7.3L437,91.5L437,91.5z"/>
<path class="st1" d="M245.7,419c0.2-0.8,0.3-1.7,0.5-2.5c7.7-41.7,15.6-98.6,23.3-169.1c11.4-103.6,19.3-206.8,21.4-234.2
	c-11.6,0-125.6,0-137.2,0c2,27.4,9.9,130.6,21.4,234.2c7.8,70.5,15.6,127.5,23.3,169.1c0.2,0.9,0.3,1.7,0.5,2.5
	c7.4-2.5,15.3-3.9,23.5-3.9C230.4,415.1,238.3,416.5,245.7,419L245.7,419z"/>
<path class="st0" d="M195.6,341.7h18.6c0.5,3.1,1.4,5.3,2.8,6.7c1.4,1.4,3.3,2,5.9,2c2.2,0,4-0.5,5.3-1.7c1.3-1.1,1.9-2.6,1.9-4.5
	c0-3.1-2.7-5.6-8-7.5c-1-0.4-1.8-0.7-2.4-0.9c-4.4-1.6-7.9-3.1-10.5-4.4c-2.6-1.4-4.5-2.6-5.7-3.7c-2.3-2.4-4-5.2-5.1-8.5
	c-1.1-3.3-1.7-7-1.7-11.3c0-8.5,2.2-15.1,6.7-20c4.5-4.8,10.5-7.2,18.2-7.2c7.7,0,13.6,2.3,18,6.9c4.4,4.6,6.9,11.3,7.4,19.9h-18.1
	c-0.3-2.5-1-4.4-2.3-5.6c-1.3-1.2-3-1.8-5.3-1.8c-2,0-3.6,0.5-4.6,1.4c-1,1-1.5,2.4-1.5,4.4c0,2.8,2.6,5.2,7.8,7.1
	c0.4,0.2,0.8,0.4,1,0.4c0.8,0.3,1.9,0.7,3.4,1.2c6.9,2.5,11.4,4.8,13.6,6.9c2.6,2.5,4.6,5.4,5.8,8.6c1.2,3.2,1.8,7,1.8,11.4
	c0,9.4-2.3,16.7-6.9,21.8c-4.6,5-11.1,7.6-19.7,7.6c-7.8,0-14.1-2.5-18.7-7.6C198.8,358,196.2,350.9,195.6,341.7L195.6,341.7z"/>
<path class="st0" d="M194.2,250v-85.4h18.1c0,0,19.4,49,20.1,51.9c-0.2-1.5-0.5-51.9-0.5-51.9h18.2V250h-18.2
	c0,0-19.5-48.9-20.1-51.7c0.2,1.5,0.5,51.7,0.5,51.7L194.2,250L194.2,250z"/>
<polygon class="st0" points="194.2,131.7 194.2,46.3 213.3,46.3 213.3,75.3 231,75.3 231,46.3 250.1,46.3 250.1,131.7 231,131.7 
	231,98.6 213.3,98.6 213.3,131.7 "/>
<path class="st2" d="M347.5,226.4c-0.4,2-0.9,4-1.3,5.9c15.6-2,32.4-4.5,50.1-7.5c7.6-23.2,13.8-44.9,18.8-63.5
	c-19.6,3.1-38.4,5.6-56,7.8C355.6,187.3,351.7,206.6,347.5,226.4L347.5,226.4z"/>
<path class="st2" d="M153.1,162.9c-2.4-24.7-4.4-48.1-6.2-68.8c-18.8-1.2-40-2.7-62.1-4.9c3,18.7,7,42.1,11.8,68
	C117.5,159.6,136.5,161.5,153.1,162.9L153.1,162.9z"/>
<path class="st2" d="M359.6,89.2c-22.1,2.2-43.2,3.8-62.1,4.9c-1.8,20.7-3.9,44.1-6.2,68.8c16.6-1.4,35.6-3.2,56.5-5.7
	C352.6,131.2,356.6,107.8,359.6,89.2L359.6,89.2z"/>
<path class="st3" d="M112.1,234c18.1,2.2,34.4,3.8,48.7,4.9c-2.3-21.3-4.4-42.4-6.4-62.8c-16.2-1.3-34.8-3.1-55.2-5.5
	C103,190.9,107.4,212.3,112.1,234L112.1,234z"/>
<path class="st2" d="M115.2,247.7c4.5,19.6,9.3,39.3,14.4,58.6c14.7,2,27.9,3.5,39.6,4.6c-2.2-17.4-4.4-35.9-6.6-55.5
	c-0.1-1-0.2-2.1-0.3-3.1c-9.4-0.7-19.7-1.7-30.8-2.8C126.3,249,120.9,248.4,115.2,247.7L115.2,247.7z"/>
<path class="st3" d="M152.4,380.1c9.9,1.7,19,2.9,27.1,3.9c-2.8-18-5.7-37.9-8.5-59.8c-11-1-23.6-2.4-37.5-4.2
	C139.3,341.2,145.6,361.5,152.4,380.1L152.4,380.1z"/>
<path class="st2" d="M181.6,397.6c-7.2-0.8-15.2-1.9-23.9-3.2c5.5,14.1,11.3,27,17.3,38.2c3.5-3,7.4-5.7,11.4-8
	C184.8,416.2,183.2,407.2,181.6,397.6L181.6,397.6z"/>
<path class="st2" d="M286.7,394.4c-8.7,1.4-16.8,2.4-23.9,3.2c-1.6,9.6-3.2,18.6-4.8,26.9c4.1,2.3,7.9,5,11.5,8
	C275.4,421.4,281.2,408.5,286.7,394.4L286.7,394.4z"/>
<path class="st3" d="M311.1,320c-13.9,1.8-26.5,3.2-37.5,4.2c-2.8,21.8-5.7,41.8-8.5,59.8c8.1-1,17.2-2.3,27.1-3.9
	C298.8,361.5,305.1,341.2,311.1,320L311.1,320z"/>
<path class="st2" d="M329.2,247.7c-5.7,0.7-11.1,1.3-16.3,1.8c-11.1,1.2-21.4,2.1-30.8,2.8c-0.1,1-0.2,2.1-0.3,3.1
	c-2.2,19.6-4.4,38.1-6.6,55.5c11.6-1.1,24.9-2.6,39.6-4.6C320,287,324.8,267.3,329.2,247.7L329.2,247.7z"/>
<path class="st3" d="M345.3,170.7c-20.4,2.3-39,4.1-55.2,5.5c-2,20.4-4.1,41.5-6.4,62.8c14.2-1.2,30.6-2.8,48.7-4.9
	C337.1,212.3,341.4,190.9,345.3,170.7L345.3,170.7z"/>
<path class="st3" d="M372.4,92.4c-2.8,17.6-6.5,39.2-10.9,63.2c18-2.2,37.2-4.9,57.1-8.1c5-19.8,8.3-35.1,10.1-43.4
	C408,102.2,389.1,98.3,372.4,92.4L372.4,92.4z"/>
<path class="st3" d="M313.9,53.6c-4.8-5.7-8.7-11.4-11.7-16.7c-0.9,11.9-2.1,26.8-3.6,43.9c13.4-0.8,28-1.9,43.1-3.2
	C331,70.8,321.6,62.7,313.9,53.6L313.9,53.6z"/>
<path class="st3" d="M142.2,36.9c-3,5.3-6.8,10.9-11.7,16.7c-7.8,9.2-17.1,17.2-27.9,24.1c15.2,1.3,29.7,2.4,43.1,3.2
	C144.4,63.7,143.2,48.8,142.2,36.9L142.2,36.9z"/>
<path class="st3" d="M72,92.4c-16.7,5.9-35.5,9.8-56.3,11.7c1.7,8.3,5,23.6,10.1,43.4c20,3.2,39.1,5.9,57.1,8.1
	C78.5,131.6,74.9,110,72,92.4L72,92.4z"/>
<path class="st2" d="M97,226.4c-4.2-19.7-8.1-39-11.5-57.3c-17.6-2.2-36.4-4.7-56-7.8c5,18.7,11.2,40.3,18.8,63.5
	c17.7,3,34.4,5.4,50.1,7.5C97.8,230.3,97.4,228.3,97,226.4L97,226.4z"/>
<path class="st3" d="M101.3,246c-14.8-1.9-31-4.2-48.3-7.1c3.2,9.5,6.7,19.1,10.4,28.9c3.8,10.1,7.7,19.9,11.7,29.4
	c14.2,2.7,27.8,5,40.4,7C110.7,286.1,105.9,266.7,101.3,246L101.3,246z"/>
<path class="st2" d="M119.1,318c-11.9-1.7-24.6-3.8-37.9-6.3c9.5,21.6,19.4,41.7,29.8,60c9.3,2.2,18.1,4,26.5,5.6
	C131.3,359.7,125.2,339.9,119.1,318L119.1,318z"/>
<path class="st3" d="M142.7,391.8c-7.2-1.3-14.7-2.8-22.6-4.5c3,4.9,6,9.7,9,14.4c10.8,16.5,22,31.3,33.6,44.3
	c0.9-1.2,1.8-2.5,2.8-3.6C157.8,428.6,150.2,411.8,142.7,391.8L142.7,391.8z"/>
<path class="st3" d="M279,442.3c1,1.2,1.9,2.4,2.8,3.6c11.5-13,22.7-27.7,33.5-44.2c3-4.6,6.1-9.4,9-14.4
	c-7.9,1.7-15.4,3.2-22.6,4.5C294.3,411.7,286.7,428.6,279,442.3L279,442.3z"/>
<path class="st2" d="M307,377.4c8.4-1.6,17.2-3.5,26.5-5.6c10.3-18.4,20.3-38.4,29.8-60c-13.4,2.5-26.1,4.5-37.9,6.3
	C319.3,339.9,313.2,359.7,307,377.4L307,377.4z"/>
<path class="st3" d="M329,304.2c12.7-1.9,26.2-4.2,40.4-7c4-9.5,7.9-19.3,11.7-29.4c3.7-9.8,7.1-19.4,10.4-28.9
	c-17.4,2.8-33.6,5.2-48.3,7.1C338.5,266.7,333.8,286.1,329,304.2L329,304.2z"/>
<path class="st2" d="M222.2,415.1c40.3,0,73.1,32.8,73.1,73.1s-32.8,73.1-73.1,73.1c-40.2,0-73-32.8-73-73.1S182,415.1,222.2,415.1
	L222.2,415.1z"/>
<path class="st0" d="M239.9,510.6c-4.1-7.3-9-15.6-18-20.3c-23.6,6.4-41.7,6.6-72.7-0.3c0.3,10.1,2.6,19.6,6.5,28.3
	C184.7,522.9,216.2,522.3,239.9,510.6L239.9,510.6z"/>
<path class="st0" d="M232.7,461.5c-4.2,7.2-7.6,17.4-7.5,25.5c17.5,17.4,26.8,31.8,37.3,62.1c7.8-5.2,14.5-11.8,19.8-19.5
	C271.7,502.6,254.5,476.1,232.7,461.5L232.7,461.5z"/>
<path class="st0" d="M220.6,485.1c6.2-23.3,14.8-38.8,35.5-61.6c-8.5-4.5-17.9-7.3-28-8.1c-17.7,22.5-31.8,49.6-33.5,75.4
	C202.9,490.8,212.9,488.8,220.6,485.1L220.6,485.1z"/>
<path class="st0" d="M255.4,538.4c-4.2-9.9-8-17-13.6-24.6c-25.1,12.1-53.9,12.7-83.7,9.1c5.7,10.5,13.9,19.4,23.7,26
	C208,550.8,232.1,545.7,255.4,538.4L255.4,538.4z"/>
<path class="st0" d="M250.7,435.3c-7.6,7.6-11.8,14.4-15.5,23.1c22.9,15.7,37.9,40.2,49.6,67.6c6.1-10,9.8-21.5,10.5-33.9
	C283.8,468.8,268.4,451.7,250.7,435.3L250.7,435.3z"/>
<path class="st0" d="M190.1,490.3c2.1-27.1,15.3-51.8,32.6-75.2c-0.2,0-0.3,0-0.5,0c-12.4,0-24.1,3.1-34.4,8.7
	c-13.4,20.8-20.4,42-25.4,64.7C172.8,491.2,180.8,491.5,190.1,490.3L190.1,490.3z"/>
<path class="st0" d="M178.7,429.6c-17.2,12.9-28.7,33.1-29.5,56l8.9,1.4C161.1,465.8,169.6,447.9,178.7,429.6L178.7,429.6z"/>
<path class="st0" d="M190,553.7c9.7,4.8,20.7,7.6,32.3,7.6c13.6,0,26.3-3.7,37.2-10.2l-3.3-8.6C234.3,551.3,212.6,552.3,190,553.7
	L190,553.7z"/>
<path class="st0" d="M295.2,485.4c-1-25.5-15.1-47.8-35.8-60.1l-6.9,7.9C270.5,447.2,284.2,466.2,295.2,485.4L295.2,485.4z"/>
</svg>
