<?xml version="1.0" encoding="utf-8"?>
<!-- Generator: Adobe Illustrator 26.0.2, SVG Export Plug-In . SVG Version: 6.00 Build 0)  -->
<svg version="1.1" id="Calque_1" xmlns="http://www.w3.org/2000/svg" xmlns:xlink="http://www.w3.org/1999/xlink" x="0px" y="0px"
	 width="234px" height="233px" viewBox="0 0 234 233" style="enable-background:new 0 0 234 233;" xml:space="preserve">
<style type="text/css">
	.st0{fill:#FFFFFF;}
	.st1{fill:#FF1100;}
</style>
<g>
	<path class="st0" d="M116.5,8.9C56.2,8.9,7.4,57.7,7.4,118s48.8,109.1,109.1,109.1S225.6,178.3,225.6,118S176.8,8.9,116.5,8.9z"/>
	<path class="st1" d="M116.5,8c-29.4,0-57,11.4-77.8,32.2S6.5,88.6,6.5,118s11.4,57,32.2,77.8S87.1,228,116.5,228s57-11.4,77.8-32.2
		s32.2-48.4,32.2-77.8s-11.4-57-32.2-77.8S145.9,8,116.5,8z M224.9,118c0,29-11.3,56.2-31.8,76.7s-47.7,31.8-76.7,31.8
		s-56.2-11.3-76.7-31.8C19.3,174.2,8.1,147,8.1,118s11.3-56.2,31.8-76.7C60.3,20.8,87.5,9.6,116.5,9.6s56.2,11.3,76.7,31.8
		C213.7,61.8,224.9,89,224.9,118z"/>
	<path class="st1" d="M116.5,223.3c58.2,0,105.3-47.2,105.3-105.3c0-58.2-47.2-105.3-105.3-105.3C58.3,12.7,11.2,59.8,11.2,118
		S58.3,223.3,116.5,223.3z"/>
	<circle class="st0" cx="68.6" cy="195" r="1.8"/>
	<path class="st0" d="M167.2,195.1c1,0,1.8-0.8,1.8-1.8s-0.8-1.8-1.8-1.8s-1.8,0.8-1.8,1.8S166.2,195.1,167.2,195.1z"/>
	<circle class="st0" cx="41.4" cy="67" r="1.8"/>
	<path class="st0" d="M116.5,193.1c41.4,0,75.1-33.7,75.1-75.1s-33.7-75.1-75.1-75.1S41.4,76.6,41.4,118
		C41.4,159.4,75.1,193.1,116.5,193.1z M43.4,118c0-40.3,32.8-73.1,73.1-73.1s73.1,32.8,73.1,73.1s-32.8,73.1-73.1,73.1
		S43.4,158.3,43.4,118z"/>
	<path class="st0" d="M86.3,100.7c-4.2-5.9-5.2-13.3-5.2-13.3H56.9l-1.8,4.7c1.4,0.2,5.9,3.7,5.9,7.5c0,3.9,0,28.6,0,29.5
		c0,1.6-2.2,5-7.2,7.1l2,5c0,0,22.5,0,24.3,0s16.3-1.5,16-19.5C95.9,114.9,91,107.3,86.3,100.7z M85.5,120.4
		c-1.3,10.1-9.1,9.3-9.1,9.3h-5.5c0,0,0-29.2,0-31.2C70.9,99.5,87,109.3,85.5,120.4z"/>
	<path class="st0" d="M133.4,118.9c-1.1-2.1-6.3-8-6.3-8c2.7-3.6,5.7-7.8,4.6-14.7c-0.8-4.7-3.8-9.3-10.2-12
		c-10.1-4.2-21.3-1.5-27.6,4.8c0,0,5,3.7,5,9.9c0,6.2,0,25.3,0,27.7c0,3.5-3.1,11.9-8.9,14.7h14.8c0,0-3.8-3.6-3-8.6
		c0.8-4.7,4.2-8.4,7.7-8.5v-14.6l12,12.6c0,0,3,3.4,1.5,7.6c-1.2,3.2-4.1,4.4-6.1,4c-2.6-0.5-4.5-1.8-4.6-4.1s-1.4-2.6-2.1-2.8
		c-0.8-0.2-2.4,0.3-3.2,1.1c-1.1,1-3.1,3.8-2.5,7.1s3.8,9.6,12.6,9.6c6.8,0,13.1-2.2,16.8-8.8C138.2,128.2,134.5,121,133.4,118.9z
		 M122.8,98.7c-0.2,5.1-3.4,7.3-3.4,7.3s-7.8-7.4-8.5-8.1c-0.8-0.7-3-3.7-0.1-6.5s6.2-0.8,7.7,0C119.3,91.8,123,95.3,122.8,98.7z"/>
	<path class="st0" d="M154.4,87.4h-10.9l-2.3,4.5c0,0,2.8,1.7,2.9,5.2c0.1,7.6-6.4,18.2-8.3,20.7c0,0,6,9.9,0.3,18.2
		c0,0,3.2,5.1,9.9,5.1c6.6,0,30.9,0,30.9,0l2-5c-2.9-1.1-7.2-4.6-7.2-7.2c0-5.3,0-27.3,0-28.9c0-3,2.6-6.9,5.9-8.1l-1.8-4.7h-14.5
		v42.3c0,0-12.4,2.9-14.4-8.2c-0.7-3.8,0-8.8,4.1-18c3.8-8.6,3.4-9.5,3.4-11.3C154.4,91,154.4,87.4,154.4,87.4z"/>
	<path class="st0" d="M51.3,190.3l-0.8-0.8c-3.8-3.8-4.7-9.1-1.3-12.5s7.3-1.9,11,1.8l1.3,1.3L51.3,190.3z M67.3,182.6l-6.4-6.4
		c-7-7-12.6-5-15.1-2.5c-3.5,3.5-3.8,10.5,2.6,16.9l5.5,5.5l0.7-0.7c-1-1.3-0.4-1.8,0.4-2.6l9-9c0.8-0.8,1.4-1.4,2.6-0.4L67.3,182.6
		z"/>
	<path class="st0" d="M38.8,163l-6.9,0.4l4.2-5.6L38.8,163z M27.4,162.3l2.2,4.1l17.7-0.9c0.8,0,2-0.2,2.6,0.8l0.9-0.5l-2.9-5.6
		l-0.9,0.5c0.4,1.5-0.1,1.7-1.3,1.8l-4.3,0.3l-3.6-6.9l2.6-3.6c0.7-1,1.2-1.4,2.2-0.1l0.9-0.5l-3.5-6.6l-0.9,0.5
		c0.4,0.9,0,1.4-0.5,2L27.4,162.3z"/>
	<path class="st0" d="M23.3,141l12-2.2c1.1-0.2,1.9-0.3,1.9-1.8l1-0.2l1.1,5.9l-1,0.2c-0.5-1.3-1.2-1.2-2.4-1l-12.5,2.3
		c-1.1,0.2-1.9,0.3-1.9,1.8l-1,0.2l-1.2-6.4l6.6-11.4l-5.2,0.9c-1.1,0.2-1.9,0.3-1.9,1.8l-1,0.2l-1.1-5.9l1-0.2
		c0.5,1.3,1.2,1.2,2.4,1l12.5-2.3c1.1-0.2,1.9-0.3,1.9-1.8l1-0.2l1.1,5.9l-1,0.2c-0.5-1.3-1.2-1.2-2.4-1l-2.5,0.4L23.3,141z"/>
	<path class="st0" d="M28.9,113.3l0.9-0.9c0.3,0.5,0.8,0.8,1.3,0.9c2.1,0.2,3.3-2.8,3.5-4.8c0.3-2.3-0.3-5.5-2.6-5.8
		c-5-0.6-3.1,14.1-10.3,13.3c-4.1-0.5-4.9-5.5-4.4-9.6c0.4-3.7,1.9-7,4.6-9l2.2,3.9l-0.7,1c-0.2-0.2-0.4-0.3-0.8-0.4
		c-1.9-0.2-2.8,2.9-3,4.7c-0.2,1.8-0.2,4.6,1.7,4.9c4,0.5,2.8-14.4,10.5-13.5c4.4,0.5,5.6,6,5.1,10.5c-0.6,5.1-2.4,7.5-6,9.7
		L28.9,113.3z"/>
	<path class="st0" d="M44.4,76.6c0.7-0.2,1.3-0.5,1.7-1.2l0.9,0.4l-3,7l-0.9-0.4c0.5-1.5,0-1.4-0.7-1.2l-9.6,2.6l1.1,3.8l3.8,1.7
		c1.1,0.5,1.8,0.8,2.5-0.4l0.9,0.4l-2.8,6.6l-0.9-0.4c0.4-1.4-0.4-1.7-1.4-2.1l-11.7-5c-1.1-0.5-1.8-0.8-2.5,0.4L21,88.3l2.8-6.6
		l0.9,0.4c-0.4,1.4,0.4,1.7,1.4,2.1l4.8,2.1l-2.7-8.6c-0.4-1.3-1-1-1.6,0.1l-0.9-0.4l3.3-7.7l0.9,0.4c-0.6,1.4-0.2,2.6,0.2,3.9
		l1.7,6L44.4,76.6z"/>
	<path class="st0" d="M57.9,59.4l-4.6-5.1l3.1-2.8c2.1-1.9,4.7-2.9,6.5-1c1.6,1.8,0.3,4.1-1.6,5.8L57.9,59.4z M55.2,65l8.8-8
		c3-2.7,4.8-6.5,2.3-9.2c-1.8-2-4.9-1.8-7.4,0l0,0c1.3-2,1.6-4.3,0.3-5.8c-1.9-2.2-5.3-1.3-7.5,0.7L42.5,51l0.7,0.7
		c1.2-0.8,1.7-0.2,2.5,0.7l8.5,9.5c0.8,0.9,1.3,1.4,0.4,2.5L55.2,65z M51.7,52.6l-3.5-3.9l3.3-3c1.4-1.3,3.2-2,4.5-0.6
		c1.4,1.6,0.4,3.2-1.2,4.7L51.7,52.6z"/>
	<path class="st0" d="M82.5,42.8c-4.7,2.1-8.3-0.1-9.9-3.6c-1.7-3.7-0.9-7.9,3.9-10c4.5-2,8.2,0,9.8,3.6
		C87.9,36.3,87.4,40.6,82.5,42.8z M83.5,45.1c6.6-3,9.4-8.8,7-14.2c-2.4-5.2-8.9-6.7-15-3.9c-6.2,2.8-9.4,8.8-7.1,14.1
		C70.8,46.4,77.1,48,83.5,45.1z"/>
	<path class="st0" d="M97.2,38.5c1.4-0.4,1.3-1.2,1.1-2.3l-1.8-12.6c-0.2-1.1-0.3-1.9-1.7-1.9l-0.1-1l7.1-1l0.1,1
		c-1.4,0.4-1.3,1.2-1.1,2.3l1.9,13.5l6.1-0.9c1.7-0.2,3.2-0.7,3.1-2.4l1.6-0.2l0.6,4.2l-16.8,2.4L97.2,38.5z"/>
	<path class="st0" d="M128,31l0.8,1c-0.5,0.3-0.9,0.7-1,1.2c-0.4,2,2.6,3.5,4.5,3.8c2.2,0.4,5.5,0.1,6-2.1c1-4.9-13.8-4.2-12.5-11.3
		c0.8-4,5.8-4.5,9.9-3.7c3.6,0.7,6.8,2.4,8.6,5.3l-4.1,1.9l-1-0.8c0.2-0.2,0.4-0.4,0.4-0.7c0.4-1.9-2.7-3-4.4-3.3
		c-1.8-0.3-4.6-0.6-5,1.3c-0.8,4,14.2,3.9,12.7,11.5c-0.8,4.3-6.4,5.1-10.9,4.2c-5-1-7.2-3-9.2-6.8L128,31z"/>
	<path class="st0" d="M157.2,29.7l2.9,1.5c2.3,1.1,3.8,3.3,2.8,5.4c-1.5,2.9-6.7,1.9-9.8,1.4L157.2,29.7z M155.1,40.6
		c4.6,1,10,1.9,12.1-2.3c1.4-2.7,0.2-6-4.8-8.5l-9.4-4.7l-0.4,0.9c1.2,0.8,0.8,1.5,0.3,2.6L147.2,40c-0.5,1-0.9,1.7-2.2,1.3
		l-0.4,0.9l6.4,3.2l0.4-0.9c-1.2-0.8-0.8-1.5-0.3-2.6l1-1.9L155.1,40.6z"/>
	<path class="st0" d="M169.4,53.2c-0.7,0.9-1.2,1.5-0.2,2.6l-0.6,0.8l-5.7-4.4l0.6-0.8c1.2,0.7,1.7,0.1,2.4-0.8l7.8-10.1
		c0.7-0.9,1.2-1.5,0.2-2.6l0.6-0.8l5.7,4.4l-0.6,0.8c-1.2-0.7-1.7-0.1-2.4,0.8L169.4,53.2z"/>
	<path class="st0" d="M171.9,57.8c1.1,0.9,1.7,0.4,2.5-0.4L184,49c0.9-0.8,1.4-1.3,0.7-2.5l0.7-0.7l4.8,5.3l-0.7,0.7
		c-1.1-0.9-1.7-0.4-2.6,0.4l-10.1,9.1l4.1,4.6c1.1,1.3,2.3,2.2,3.7,1.2l1.1,1.2l-3.2,2.8l-11.3-12.6L171.9,57.8z"/>
	<path class="st0" d="M196.4,72.5l-2.3,1.4l-4-6.3l2.3-1.4L196.4,72.5z"/>
	<path class="st0" d="M208.9,90.5c1.1-0.4,1.8-0.6,1.6-2l0.9-0.3l2.3,6.8l-0.9,0.3c-0.7-1.3-1.4-1-2.5-0.6l-12,4.2
		c-1.1,0.4-1.8,0.6-1.6,2l-0.9,0.3l-3.3-9.5c-2.5-7.1,1.4-10.9,4.5-11.9c4.1-1.4,9.3,1,10.1,0.8c0.5-0.2,0.4-0.9,0.2-1.3l0.9-0.3
		l2.3,6.6l-0.9,0.3c-2.1-2.7-7.8-3-10.6-2.1c-3.7,1.3-5,4.6-3.5,9l0.8,2.3L208.9,90.5z"/>
	<path class="st0" d="M212,108.5l-12.2,0.4c-1.1,0-1.9,0.1-2.1,1.5h-1l-0.2-6h1c0.3,1.4,1.1,1.4,2.2,1.3l12.7-0.5
		c1.1,0,1.9-0.1,2.1-1.5h1l0.2,6.5l-8.1,10.3l5.3-0.2c1.1,0,1.9-0.1,2.1-1.5h1l0.2,6h-1c-0.3-1.4-1.1-1.4-2.2-1.3l-12.7,0.5
		c-1.1,0-1.9,0.1-2.1,1.5h-1l-0.2-6h1c0.3,1.4,1.1,1.4,2.2,1.3l2.5-0.1L212,108.5z"/>
	<path class="st0" d="M198.4,135.1c-1.1-0.2-1.9-0.3-2.4,1l-1-0.2l1.3-7.1l1,0.2c0,1.4,0.7,1.6,1.9,1.8l12.5,2.3
		c1.1,0.2,1.9,0.3,2.4-1l1,0.2l-1.3,7.1l-1-0.2c0-1.4-0.7-1.6-1.9-1.8L198.4,135.1z"/>
	<path class="st0" d="M192.1,151.1c2.1-4.7,6.2-5.5,9.8-3.9c3.7,1.6,6,5.2,3.8,10c-2,4.5-6.1,5.4-9.6,3.9
		C192.4,159.5,189.9,156,192.1,151.1z M189.9,150.1c-2.9,6.6-1.1,12.8,4.3,15.2c5.2,2.3,11.1-0.9,13.8-7.1
		c2.8-6.3,1.1-12.8-4.2-15.2C198.4,140.6,192.7,143.6,189.9,150.1z"/>
	<path class="st0" d="M191.9,177.4l-9.1-8.1c-0.9-0.8-1.5-1.3-2.5-0.4l-0.7-0.7l4-4.5l0.7,0.7c-0.8,1.2-0.2,1.7,0.7,2.5l9.5,8.5
		c0.9,0.8,1.4,1.3,2.5,0.4l0.7,0.7l-4.4,4.9l-13,1.8l4,3.6c0.9,0.8,1.4,1.3,2.5,0.4l0.7,0.7l-4,4.5l-0.7-0.7
		c0.8-1.2,0.2-1.7-0.7-2.5l-9.5-8.5c-0.9-0.8-1.5-1.3-2.5-0.4l-0.7-0.7l4-4.5l0.7,0.7c-0.8,1.2-0.2,1.7,0.7,2.5l1.9,1.7L191.9,177.4
		z"/>
	<path class="st0" d="M89.7,194.3l-6.1,15.4c-0.6,1.5-0.2,2,1.7,2.9l-0.4,0.9l-9.6-3.8l0.4-0.9c2.8,1,3.2,0.5,3.9-1.2l4.8-12.2
		c-1.4,0-2.8-0.2-4.3-0.6l0.6-1.4c2.1,0.3,4.3,0.5,6.1-0.2L89.7,194.3z"/>
	<path class="st0" d="M99.8,211.3c0.3-2.2,1.7-3.8,4.6-3.4c2.7,0.4,4,2.3,3.7,4.4c-0.3,2.1-2,3.8-4.7,3.4
		C100.6,215.3,99.5,213.4,99.8,211.3z M100.5,206.1c-3,0.3-5.1,2-5.4,4.6c-0.6,4.3,3.3,6.8,7.9,7.4c4.7,0.6,9.2-1.1,9.8-5.3
		c0.3-2.4-1.4-4.7-4.2-5.6v-0.1l0,0c2.4-0.3,4-1.6,4.3-3.6c0.5-3.5-3.7-5.3-7.2-5.8c-3.4-0.5-8,0.4-8.4,3.7
		C97,203.2,98.4,205.3,100.5,206.1L100.5,206.1z M105.3,200.1c2.1,0.3,3.5,1.4,3.3,3.2c-0.2,1.7-2.1,2.5-4,2.2
		c-2.1-0.3-3.5-1.5-3.2-3.3C101.7,200.4,103.3,199.8,105.3,200.1z"/>
	<path class="st0" d="M124.3,212.4c-0.3-2.2,0.7-4.1,3.6-4.5c2.7-0.3,4.4,1.2,4.7,3.3s-1,4.1-3.7,4.5
		C126.2,216.1,124.6,214.5,124.3,212.4z M123.7,207.2c-2.8,1.1-4.4,3.2-4.1,5.8c0.5,4.3,4.9,5.7,9.6,5.1c4.7-0.6,8.6-3.4,8.1-7.6
		c-0.3-2.4-2.6-4.2-5.5-4.3v-0.1l0,0c2.2-0.9,3.5-2.5,3.2-4.6c-0.4-3.5-4.9-4.2-8.4-3.7c-3.4,0.4-7.6,2.5-7.2,5.8
		C119.6,205.4,121.5,207,123.7,207.2L123.7,207.2z M126.9,200.2c2.1-0.3,3.8,0.4,4,2.3c0.2,1.7-1.4,2.9-3.3,3.2
		c-2.1,0.3-3.7-0.6-4-2.4C123.4,201.5,124.9,200.4,126.9,200.2z"/>
	<path class="st0" d="M147.7,194.9c2.4-1,4.6,0,5.4,2c0.8,1.9-0.3,4.2-2.5,5.1c-2.3,0.9-4.3-0.1-5.1-2
		C144.6,198,145.2,195.9,147.7,194.9z M155,201.2c1.5,3.7,0.8,7.4-3.6,9.1c-1.3,0.5-3.1,1.1-3.9-0.1l-1.5,0.6l1.2,2.9
		c1.8-0.3,3.5-0.8,5.3-1.5c6.9-2.8,8.7-9,6.4-14.6c-1.9-4.7-6.2-7.6-12.3-5.1c-4.3,1.7-6.8,5.5-5.3,9.2c1.4,3.3,5.3,4.6,9.3,2.9
		c1.9-0.8,4-2.5,4.3-4.3h0.1V201.2z"/>
	<path class="st0" d="M121.7,23.2c-0.2-3-3.3-6-8.7-5.7l-4.5,0.3h-0.3v0.3v0.6V19h0.3c0.6,0,0.6,0.2,0.7,0.9l0.5,7.4
		c0,0.7,0.1,0.8-0.6,1l-0.3,0.1v0.3v0.6v0.3h0.3l5.2-0.3C120,28.9,121.8,25.9,121.7,23.2z M112.9,27.3l-0.5-7.7h0.4
		c3.1-0.2,5.5,1.5,5.6,3.9c0.1,2.3-1.4,3.5-4.7,3.8L112.9,27.3z"/>
	<path class="st0" d="M116,50.2c0,0-5.4,0.1-7,1.9c0,0,7.5,11.6-1.4,12c-1.8,0.1-3.9-0.3-4.8-2c-1.2-2.3-0.5-5.8,2.1-6.1
		c0,0-4.2-5.4-11.6-2c-4.2,1.9-4.5,7.9-4,9.5c0,0-9.1-2.2-13,5.2c-1.1,2.1-1.9,7,0.2,10.1c0,0,2.7-2.9,8.3-3.9
		c2.9-0.5,11.8,2,14.6,1.7c3.2-0.3,10-0.4,13.4-8.1c0.6-1.4,1.1-2.9,1.5-1.8c0.7,1.9,1.2,2.3,1.5,2.3c0.1,0,0.2,0.1,0.3,0.1
		c0.1,0,0.2,0,0.3-0.1c0.3,0,0.8-0.4,1.5-2.3c0.4-1.1,0.9,0.5,1.5,1.8c3.4,7.6,10.2,7.8,13.4,8.1c2.8,0.3,11.7-2.2,14.6-1.7
		c5.6,1,8.3,3.9,8.3,3.9c2-3.1,1.3-8,0.2-10.1c-3.9-7.4-13-5.2-13-5.2c0.5-1.6,0.2-7.6-4-9.5c-7.4-3.4-11.6,2-11.6,2
		c2.5,0.3,3.3,3.8,2.1,6.1c-0.9,1.7-3,2-4.8,2c-8.9-0.3-1.4-12-1.4-12C121.4,50.3,116,50.2,116,50.2"/>
	<path class="st1" d="M154.6,72.4c-0.5-3.4-2.8-6-8.1-6.9c-1.6-0.3-4.1-0.1-6.3,0.2c0.3-0.9,0.5-2,0.5-3.3c0-2.3-0.7-4.4-2.1-5.7
		c-2.4-2.2-5.8-1.5-6-1.5l-2.2,0.7c0,0,0.5,0.2,1.2,1.7c0.7,1.6,0.8,3.7-0.9,5.9c-2.4,3.1-5.7,2.9-7.8,2.6c-2.1-0.4-3.3-1.9-3.3-1.9
		s1,2.6,1.6,3.8c0.7,1.4,4.4,9.1,18.4,5.4c7.7-2,12.7,0.5,12.7,0.5s1.9,1,2.3,1.5C154.5,75.4,155,74.9,154.6,72.4z"/>
	<path class="st1" d="M77.3,72.4c0.5-3.4,2.8-6,8.1-6.9c1.6-0.3,4.1-0.1,6.3,0.2c-0.3-0.9-0.5-2-0.5-3.3c0-2.3,0.7-4.4,2.1-5.7
		c2.4-2.2,5.8-1.5,6-1.5l2.2,0.7c0,0-0.5,0.2-1.2,1.7c-0.7,1.6-0.8,3.7,0.9,5.9c2.4,3.1,5.7,2.9,7.8,2.6c2.1-0.4,3.3-1.9,3.3-1.9
		s-1,2.6-1.6,3.8c-0.7,1.4-4.4,9.1-18.4,5.4c-7.7-2-12.7,0.5-12.7,0.5s-1.9,1-2.3,1.5C77.4,75.4,77,74.9,77.3,72.4z"/>
	<path class="st1" d="M115.9,65.2c-0.3,0-0.5-0.2-0.6-0.5c0,0-1.2-5.1-1.8-7c-0.6-1.9-1.6-4.2-1.6-4.2c0.9-0.7,2.5-1,4-1h0.3
		c1.5,0,3.1,0.3,4,1c0,0-1,2.3-1.6,4.2s-1.8,7-1.8,7c-0.1,0.3-0.3,0.5-0.6,0.5H115.9z"/>
	<path class="st0" d="M116.6,186.1c0,0-3.4,0-5.4-0.9c-5.5-2.6-3.2-7.9-3.2-7.9c-2.9,2.1-7.4,0.1-8.8-5c-1.7-6.2,1.3-10.1,1.3-10.1
		c-2.2-1.1-6.3,0.7-6.8,4.6c-0.7,4.6,1,7.9,1,7.9s-1.6,1.1-5.2-0.4c-5.1-2.1-4.4-8.3-4.4-8.3s-4.2,1.8-8-1.3
		c-6.9-5.6-6.5-11.4-6.5-11.4s8.6,3.4,12.8,2.9c3.1-0.4,6.9-1.5,10-2c7.8-1.2,14.8,5.9,14.8,5.9c-2.2-8.6,6.8-9.1,8.4-9
		c1.6,0,10.6,0.4,8.4,9c0,0,7-7.2,14.8-5.9c3.1,0.5,6.9,1.6,10,2c4.2,0.5,12.8-2.9,12.8-2.9s0.4,5.8-6.5,11.4c-3.9,3.1-8,1.3-8,1.3
		s0.7,6.2-4.4,8.3c-3.6,1.5-5.2,0.4-5.2,0.4s1.7-3.3,1-7.9c-0.6-3.8-4.6-5.7-6.8-4.6c0,0,3,3.9,1.3,10.1c-1.4,5.1-5.9,7.1-8.8,5
		c0,0,2.3,5.3-3.2,7.9C120,186.1,116.6,186.1,116.6,186.1z"/>
	<path class="st1" d="M90.9,156.6c8.1-2.8,14.8,3.7,14.8,3.7s-2.6-0.6-4.2,0.8c0,0-4.2-2.1-7.8,1.8c-3.3,3.6-1,10.7-1,10.7
		s-7.8-0.3-5.6-9.8c-1.2,0.3-3.3,1-5.1,1.1c-5.6,0.1-9.7-9.1-9.7-9.1S80.4,160.2,90.9,156.6z"/>
	<path class="st1" d="M129.7,162.1c-1.6-0.6-3.6-0.3-4.5,0c-1,0.4-4.1,3.1-4.1,3.1s1.1,1.4,1.1,3.2c0,2-1,3.1-1,3.1s3.7,3.4,4.3,3.8
		c1.9,1,3.7,1,4.9-0.3c3.2-3.5,2.5-8.3,1.4-10.8C131.4,163.2,130.7,162.5,129.7,162.1z"/>
	<path class="st1" d="M142.3,156.6c-8.1-2.8-14.8,3.7-14.8,3.7s2.6-0.6,4.2,0.8c0,0,4.2-2.1,7.8,1.8c3.3,3.6,1,10.7,1,10.7
		s7.8-0.3,5.6-9.8c1.2,0.3,3.3,1,5.1,1.1c5.6,0.1,9.7-9.1,9.7-9.1S152.9,160.2,142.3,156.6z"/>
	<path class="st1" d="M103.5,162.1c1.6-0.6,3.6-0.3,4.5,0c1,0.4,4.1,3.1,4.1,3.1s-1.1,1.4-1.1,3.2c0,2,1,3.1,1,3.1s-3.7,3.4-4.3,3.8
		c-1.9,1-3.7,1-4.9-0.3c-3.2-3.5-2.5-8.3-1.4-10.8C101.8,163.2,102.5,162.5,103.5,162.1z"/>
	<path class="st1" d="M122.9,155.3c-1.7-1.9-4-2.5-6.2-2.4l0,0h-0.1h-0.1l0,0c-2.2,0-4.5,0.5-6.2,2.4c-1.2,1.4-1.1,4.4-0.3,5.9
		c0.9,1.6,2.9,2.9,2.9,2.9s1.2-1.1,3.7-1.1s3.7,1.1,3.7,1.1s2-1.3,2.9-2.9C124,159.7,124.1,156.7,122.9,155.3z"/>
	<path class="st1" d="M123.4,177c-0.5-0.9-3.1-4.4-3.1-4.4s-1.5,0.9-3.7,1c-2.2,0-3.7-1-3.7-1s-2.7,3.4-3.1,4.4
		c-0.2,0.5-0.6,2.4,0,3.9c0.3,1,1,1.7,2,2.1c1.2,0.5,2.9,1,4.7,1l0,0h0.1h0.1l0,0c1.8,0,3.5-0.5,4.7-1c1-0.4,1.7-1.2,2-2.1
		C124,179.4,123.7,177.5,123.4,177z"/>
</g>
</svg>
