<?xml version="1.0" encoding="utf-8"?>
<!-- Generator: Adobe Illustrator 26.0.2, SVG Export Plug-In . SVG Version: 6.00 Build 0)  -->
<svg version="1.1"
	 id="Calque_1" xmlns:cc="http://creativecommons.org/ns#" xmlns:dc="http://purl.org/dc/elements/1.1/" xmlns:inkscape="http://www.inkscape.org/namespaces/inkscape" xmlns:rdf="http://www.w3.org/1999/02/22-rdf-syntax-ns#" xmlns:sodipodi="http://sodipodi.sourceforge.net/DTD/sodipodi-0.dtd" xmlns:svg="http://www.w3.org/2000/svg"
	 xmlns="http://www.w3.org/2000/svg" xmlns:xlink="http://www.w3.org/1999/xlink" x="0px" y="0px" width="458px" height="500px"
	 viewBox="0 0 458 500" style="enable-background:new 0 0 458 500;" xml:space="preserve">
<style type="text/css">
	.st0{fill:#D3072A;}
	.st1{fill:#FFFFFF;}
</style>
<sodipodi:namedview  bordercolor="#666666" borderopacity="1" gridtolerance="10" guidetolerance="10" id="namedview67" inkscape:current-layer="Calque_1" inkscape:cx="178.51729" inkscape:cy="373.11787" inkscape:pageopacity="0" inkscape:pageshadow="2" inkscape:window-height="691" inkscape:window-maximized="1" inkscape:window-width="1280" inkscape:window-x="0" inkscape:window-y="1" inkscape:zoom="1.1268013" objecttolerance="10" pagecolor="#ffffff" showgrid="false">
	</sodipodi:namedview>
<g id="g3" transform="matrix(1.232924,0,0,1.232924,-34.950149,-34.957093)">
	<g id="fond">
		<path id="fondrouge" inkscape:connector-curvature="0" class="st0" d="M214,32.9C89,32.9,55.2,69.3,53.8,70.8
			c-0.4,0.6-26.7,45.6-20.1,111.9c6.1,61.1,42.2,153.4,179.8,246l0.6,0.4l0.6-0.4c137.5-92.6,173.6-184.9,179.8-246
			c6.6-66.3-19.7-111.3-20-111.8C372.9,69.3,339,32.9,214,32.9z"/>
		<path id="contourext" inkscape:connector-curvature="0" class="st1" d="M378.1,67.5L378.1,67.5L378.1,67.5
			c-1.5-1.7-35.8-39.1-164.1-39.1C86.3,28.4,51.5,65.6,50.1,67.2c-0.3,0.5-27.5,46.7-20.7,114.7c6.2,62.5,43.1,156.8,183.6,251.4
			l1,0.7l1-0.7c140.5-94.6,177.4-188.9,183.6-251.4C405.4,114,378.4,67.9,378.1,67.5z M394.4,182.8c-6.1,61.1-42.2,153.4-179.8,246
			l-0.6,0.4l-0.6-0.4C75.9,336.1,39.8,243.9,33.7,182.8C27,116.4,53.4,71.4,53.8,70.8C55.2,69.3,89,32.9,214,32.9
			c125,0,158.9,36.3,160.3,38.1C374.6,71.4,401,116.4,394.4,182.8z"/>
	</g>
	<g id="contour">
		<path id="contourbas" inkscape:connector-curvature="0" class="st1" d="M214,49.1c65.3,0,103.7,10.7,124.9,20.1h6.9
			c1.9,0,3.6,0.1,5.3,0.1c-19-10.6-59.4-25.5-137.1-25.5c-77.5,0-117.9,14.8-136.9,25.4h12C110.3,59.8,148.7,49.1,214,49.1z"/>
		<path id="contourhaut" inkscape:connector-curvature="0" class="st1" d="M381.9,127.6v11.3c0,2-0.4,5.4-2.5,8.9
			c1,11.3,1.1,23.7-0.2,37.1c-5.6,56.3-38.9,141.2-165.2,227C87.7,326,54.4,241.2,48.8,184.9c-2.3-23.3-0.3-43.7,3.2-60v-20.2
			c-6.1,18.7-11.9,46.8-8.5,80.8c5.8,57.7,39.9,144.9,169.9,232.5l0.6,0.4l0.6-0.4c130-87.5,164.1-174.8,169.9-232.5
			C386.7,163.3,385,143.7,381.9,127.6z"/>
	</g>
	<g id="grpchouette">
		<g id="tete">
			<path id="path13" inkscape:connector-curvature="0" class="st1" d="M240.7,271.9c-0.4-2.1-7-6-9.7-6.4c-7.2-0.9,5.9-3.8,4.7-4.7
				c-5.2-4.6-4.6-6-4.6-6c-9.3-3.2-10.2-5-10.2-5c-7.4-1.5-18,1-18,1.1c-2.9,1.3-4.2,1.9-4.7,2.2c0.5,0,2,0.2-3.3,2
				c-2.2,0.7,0.8,7.6-0.8,10c-1.8,2.5-7,6.5-7.2,8c-0.8,6.6,5.1,20,7.8,23.9c3.7,5.5,5.6,9.7,8.2,11.7c10.6,9.9,19,2,20.1,1
				c4.5-4.2,5.7-6.7,8.5-10.6c1.5-2,8.2-14.7,9-18.9C241,277.2,240.7,271.6,240.7,271.9L240.7,271.9z M198.1,266.1
				c5.1-2.1,2.4-2.6,3.7-3.6c2-1.6-5.1-0.3-3.6-1.5c4.8-3.6,0.4-4.1,0.4-4.1c0-1.5,6.4,1.8,7-2.9c0,0,4.5-0.2,8.3-0.9
				c4.2-0.8,4.8,2.3,8.3,2.1c0,0,0,2,2.9,3c0,0,2.5-0.7,4.3,0.5c1.1,0.7-6.6,1-3.2,3.8c0.6,0.5-5.9,0.6-3.3,2.4
				c2.3,1.5,7.9,2.3,8.4,3.4c-1.8-0.5,1,1.9-1.8,1.6c-5.8-0.6-13.7,5.8-13.4,7.5c-0.5-3.3-9.1-7.1-18.1-8.1c-2.2-0.1-1.7-0.1-4,0.1
				C195.2,268,195.8,267,198.1,266.1L198.1,266.1z M235.4,283.6c0,0-2.8,6.7-6.6,13.1c-3.9,6.7-8.6,10.7-8.6,10.7s-4.5,3.7-10.4,1.5
				c0,0-1.5-0.2-6-4.1c-4.4-4-7.1-10-7.1-10s-9.6-20.8-4.5-20.9c0,0,7.8-1,13.4,2c0,0,7.8,2.8,9.6,7.2c0,0,4.4-4.3,9.2-6.8
				c4.8-2.6,6.1-3.9,13-3C237.5,273.2,237.5,278.9,235.4,283.6L235.4,283.6z"/>
			<path id="path15" inkscape:connector-curvature="0" class="st1" d="M192.8,278.2l8.7,2.9c0,0-1.4,6.4,4,6.7c0,0,1-0.2,1.8,0.9
				c1.1,1.7,3.8,8.2,3.8,8.5c0,0,1.7-10.1-5.2-15.3C200,277.5,192.8,278.2,192.8,278.2L192.8,278.2z"/>
			<path id="path17" inkscape:connector-curvature="0" class="st1" d="M235.5,278.7l-7.4,3.3c0,0,3,5.9-5.2,7.1
				c-0.7,0.1-5.9,8-5.9,8.4c0,0,1.2-10.9,5.5-14.4C228.5,278.4,235.5,278.7,235.5,278.7L235.5,278.7z"/>
			<path id="path19" inkscape:connector-curvature="0" class="st1" d="M216.2,302.1c0,1.9-2,4.9-2.4,4.9c-0.4,0-1.6-3.2-1.5-5.2
				c0.1-1.9,1.4-2.6,1.9-2.6C214.6,299.2,216.3,300.1,216.2,302.1L216.2,302.1z"/>
		</g>
		<g id="pattedroite">
			<path id="path22" inkscape:connector-curvature="0" class="st1" d="M201.3,342.1c-6.5,0-11.6,20.8-11.2,18.1
				C190.1,360.2,203.4,350.3,201.3,342.1z"/>
			<path id="path24" inkscape:connector-curvature="0" class="st1" d="M203.4,360.1l4.7-10.9C208,349.3,209.5,359.2,203.4,360.1z"/>
			<path id="path26" inkscape:connector-curvature="0" class="st1" d="M205.2,389.8c7.2-0.6,9.7-4.2,6.8-8.4
				c-0.5-0.6-2.5-1.4-2.8-2.2c0.6-0.6,0.2-4.6-0.2-5.8c-0.4-1.6-3.2-2.4-3.7-3.6c-0.5-1.2-1.1-3.4-1.9-5.1
				c-6.3-13.2-11.5-1.5-6.8,0.7c-1-0.4,0.8-2.4,1.7-2.3c0.4,0.9-0.5,0.9,0.3,3.6c1.7,4.8,3.4,2.7,0.5,3.2c-4.3,2-8.7-6.6-12.5-6.4
				c-8.4,0.4-3.8,7.8-3.6,7.9c0.1-4.1,2.2-4.7,2.8-4.6c-0.5,2.4,1.3,3.4,3.9,4c2.5,0.6,3,3.5,3,3.5c-1.1,0.2-6.1,2.3-7.9,2.9
				c-6.8,2-5,8-4.8,7.8c0-1.4,2.3-3.4,4.4-3.6c1.1,0.3,1.6,2.2,4.4,1.1c3.6-1.4,3-2.6,4.9-2.8c2.4-0.3,3,2,4.9,1.3
				c3.2-0.2,5.3-1.5,6.1-1c1.6,1-0.1,0.5,0,2.7c0.1,2.6,2.5,2.5,2.9,3.2C207.6,385.9,208.3,387.2,205.2,389.8L205.2,389.8z"/>
		</g>
		<g id="pattegauche">
			<path id="path29" inkscape:connector-curvature="0" class="st1" d="M227.2,342.1c6.5,0,11.6,20.8,11.2,18.1
				C238.4,360.2,225,350.3,227.2,342.1z"/>
			<path id="path31" inkscape:connector-curvature="0" class="st1" d="M223.3,356.7l-4.7-10.9C218.6,345.9,217.1,355.8,223.3,356.7z
				"/>
			<path id="path33" inkscape:connector-curvature="0" class="st1" d="M223.2,389.8c-7.2-0.6-9.7-4.2-6.8-8.4
				c0.5-0.6,2.5-1.4,2.8-2.2c-0.6-0.6-0.2-4.6,0.2-5.8c0.4-1.6,3.2-2.4,3.7-3.6c0.5-1.2,1.1-3.4,1.9-5.1c6.3-13.2,11.5-1.5,6.8,0.7
				c1-0.4-0.8-2.4-1.7-2.3c-0.4,0.9,0.5,0.9-0.3,3.6c-1.7,4.8-3.4,2.7-0.5,3.2c4.3,2,8.7-6.6,12.5-6.4c8.4,0.4,3.8,7.8,3.6,7.9
				c-0.1-4.1-2.2-4.7-2.8-4.6c0.5,2.4-1.3,3.4-3.9,4c-2.5,0.6-3,3.5-3,3.5c1.1,0.2,6.1,2.3,7.9,2.9c6.8,2,5,8,4.8,7.8
				c0-1.4-2.3-3.4-4.4-3.6c-1.1,0.3-1.6,2.2-4.4,1.1c-3.6-1.4-3-2.6-4.9-2.8c-2.4-0.3-3,2-4.9,1.3c-3.2-0.2-5.3-1.5-6.1-1
				c-1.6,1,0.1,0.5,0,2.7c-0.1,2.6-2.5,2.5-2.9,3.2C220.9,385.9,220.1,387.2,223.2,389.8L223.2,389.8z"/>
		</g>
		<g id="chouettedate">
			<path id="path36" inkscape:connector-curvature="0" class="st1" d="M375.2,161.5c-0.2,0-46.6-3.1-87.1,11.6
				c-1.1,0.4-16.2,7.6-24.6,13.1V181c0-0.6-0.1-1.6-0.8-2.6c0.5-0.8,0.8-1.8,0.8-2.8v-7.3c0-2.8-1.4-7.5-11-7.5h-8.4
				c-3.5,0-6.2,0.6-8,1.8c-0.6-0.4-1.2-0.7-2-1c-1.4-0.6-3.4-0.8-6.2-0.8h-8.4c-2.4,0-4.4,0.3-6.1,1c-0.6,0.2-1.2,0.5-1.7,0.9
				c-0.6-0.4-1.3-0.8-2.1-1.1c-1.5-0.6-3.5-0.9-6.3-0.9H195c-2.3,0-4.4,0.3-6.2,1c-0.8,0.3-1.4,0.7-2,1.1c-0.6-0.4-1.2-0.7-1.9-1
				c-1.8-0.8-3.8-1.1-6.1-1.1h-15.4l7.5,12.4h2.1v18.9c-0.8-0.6-1.5-1.2-2-1.7c-2.2-2.4-29-16.7-30.5-17.3
				c-37.9-14.7-86.9-11.6-87.1-11.6l1.1,2.4c-1,4.2-3.9,15,7.3,19c-0.8,4.9-1.8,14.9,8,18.5c0,0,0.4,0.1,0.6,0.2
				c0,4.9,2.5,14.2,15.5,19.2c1.2,6.5,5.5,18.6,21.5,22.8c0.9,8.4,4.2,22.7,24.9,25.7c0.3,0.8,0.7,1.5,1,2.3
				c0.5,1.1,1.6-0.7,2.1,0.3c3.7,7.5,7.1,19,13.3,25.6c0.3,0.3,0.6,0.5,0.8,0.9c4.9,5.1,9.4,13,16.1,15.9c0.2,0.1,0.5,0.2,0.7,0.3
				c0.4-0.3,0.8,0.1,1.2-0.2c3.9-2.3,13.7-7.9,17.1-9.6c1.5,3.1,2.1,3.7,2.7,7.3c-18.4,7.5-37.6,29.8-37.9,30.3
				c-1.6,2.4,1.3,9.4,14.7,11.5c1.8,2.9,6.1,6.4,13.4,5.9c1.1,1.1,3.4,1.4,5.3,2.3h4.9c-1.4-0.4-2.5-3.2-4.1-3.7l-0.9-2
				c0.6-3.6,5.4-8.7,7.8-19.8c0,0-14.5,19.8-13.9,20.5c-3.2-0.8-4.4-2-7.5-5.1l0.8-1.6c6.2-8.8,17.9-23.3,19.3-27.3
				c0,0-25.9,25.3-25,27.2c-3-1.6-6.7-2.7-8.8-7.5c0,0,22.7-23.7,33.1-27.9c0.1,1,1.8,7.1,1.6,7.9c0.2-0.7,3-4.1,3-5.4
				c0.8-2.3-0.5-10.1-2-15.4c-0.4-1.5-4.7-11.2-6-9.3c-0.1,0.2-1.8,7.2-1.8,7.2c-5.1,1.9-11.4,7.5-15,7.6
				c-2.4,0.1-5.1-4.6-11.8-12.1c3.6-9.6,8.9-20.9,20.5-39.8c-7,11.3-22.4,23.1-25.9,33.5c-4.7-5.5-7-9.3-11.8-18
				c0.4-0.6,0.7-1.2,1-1.8c1.4,0.1,2.8,0.1,4.3,0.1c0,0-1.5-0.1-4-0.7c9.5-17.1,16.5-26.5,38.9-38.5c0,0-35.6,7-43.9,33.9
				c-2-3.8-1.9-4.2-3.8-8.7c-0.2-0.4-0.3-0.8-0.5-1.2c-1.4-3.5-2.8-7.3-4.2-11.3c0,0,0.8,4.3,2.7,10.7c0.1,0.4,0.3,0.9,0.4,1.3
				c1.1,3.6,2.6,7.8,4.4,12.2c-8.5-3-17.5-8.9-21.8-23.7c0.7,0.1,1.4,0.3,2.2,0.4c0,0-0.6-0.3-1.7-0.9c10.9-7.9,17.3-12.2,26.3-14.8
				c4.2,1.5,11,1.6,15.9,2.7c0,0-4.2-1.5-10.6-4.7c8.7-2.3,14.7-2.6,14.7-2.6c0.6-4.1-9.2-2.8-21.3-0.3c-2.4,0.5-9.8-6.1-18.3-12.9
				c12-1.7,20.3-1.3,20.3-1.3c4.3-3.7-9.6-3.3-23.7-1.2c-0.8,0.1-6.9-6-11.8-11.5c13.3-0.2,22,0.3,22,0.3c3.3-2.9-9.6-3.7-24.2-2.8
				c-3.5-4.1-3.6-5.1-8-11.3c1,1.4,12.7,0.3,12.7,0.3c3.1-2.7-4.4-3.7-14.8-3.6c-1.4-2.3-3.4-5.3-4.7-7.8c0,0-0.2,3.4,1.6,7.8
				c-9.5,0.2-19.2,0.7-25,2.1c0-0.7-0.6-2.6-0.5-3.3c0,0-0.8,1.8-1.1,3.1l-0.1,0c-3.1-3-7.4-8.2-7.8-15.9
				c53,0.8,89.1,22.3,113.4,32.8c13.5,16.2,17.7,19.4,41.8,50.3c0,0,0.9-17.1-32.6-52.4h12.4V190l3.5,5.7h10c2.3,0,4.3-0.4,6.2-1.1
				c3.2-1.3,4.3-3.2,4.7-4.8l3.6,6h10c2.3,0,4.4-0.4,6.1-1.1c0.8-0.3,1.5-0.7,2.1-1.1c0.6,0.4,1.2,0.7,1.9,1
				c1.8,0.8,3.9,1.2,6.1,1.2h6.9c-33.5,35.3-32.6,52.4-32.6,52.4c24.1-30.9,28.4-34.2,41.8-50.3c24.3-10.5,60.4-32,113.4-32.8
				c-0.4,7.6-4.8,12.9-7.8,15.9l-0.1,0c-0.3-1.3-1.1-3.1-1.1-3.1c0.1,0.7-0.5,2.6-0.5,3.3c-5.8-1.3-15.5-1.9-25-2.1
				c1.8-4.4,1.6-7.8,1.6-7.8c-1.3,2.5-3.2,5.5-4.7,7.8c-10.4-0.1-17.9,0.9-14.8,3.6c0,0,11.7,1.1,12.7-0.3c-4.4,6.2-4.5,7.3-8,11.3
				c-14.6-1-27.5-0.1-24.2,2.8c0,0,8.7-0.5,22-0.3c-4.9,5.5-11,11.6-11.8,11.5c-14-2.1-28-2.5-23.7,1.2c0,0,8.3-0.4,20.3,1.3
				c-8.5,6.8-15.9,13.4-18.3,12.9c-12.2-2.4-22-3.7-21.3,0.3c0,0,5.9,0.3,14.7,2.6c-6.4,3.2-10.6,4.7-10.6,4.7
				c4.9-1,11.7-1.2,15.9-2.7c9,2.6,15.5,6.9,26.3,14.8c-1.1,0.6-1.7,0.9-1.7,0.9c0.7-0.1,1.4-0.3,2.2-0.4
				c-4.3,14.9-13.3,20.8-21.8,23.7c1.9-4.4,3.3-8.6,4.4-12.2c0.1-0.4,0.3-0.9,0.4-1.3c1.9-6.4,2.7-10.7,2.7-10.7
				c-1.3,4-2.7,7.8-4.2,11.3c-0.1,0.4-0.3,0.8-0.5,1.2c-1.9,4.5-1.8,4.9-3.8,8.7c-8.3-26.9-43.9-33.9-43.9-33.9
				c22.3,12.1,29.3,21.5,38.9,38.5c-2.4,0.5-4,0.7-4,0.7c1.5,0,2.9,0,4.3-0.1c0.3,0.6,0.7,1.2,1,1.8c-4.8,8.8-7.1,12.6-11.8,18
				c-3.5-10.4-19-22.2-25.9-33.5c11.6,18.9,16.9,30.2,20.5,39.8c-6.6,7.5-9.4,12.2-11.8,12.1c-3.6-0.2-9.9-5.7-15-7.6
				c0,0-1.7-7-1.8-7.2c-1.2-1.9-5.5,7.9-6,9.3c-1.5,5.3-2.9,12.1-2.2,14.4c0.1,1.3,2.8,4.7,3,5.4c-0.2-0.8,1.7-5.9,1.8-6.9
				c10.4,4.2,33.1,27.9,33.1,27.9c-2.2,4.8-5.8,5.9-8.8,7.5c0.9-1.9-25-27.2-25-27.2c1.5,4,13.2,18.6,19.3,27.3l0.8,1.6
				c-3.1,3-4.3,4.2-7.5,5.1c0.6-0.7-13.9-20.5-13.9-20.5c2.3,11,7.2,16.2,7.8,19.8l-0.9,2c-1.6,0.5-2.8,3.3-4.1,3.7h4.9
				c2-0.9,4.3-1.2,5.3-2.3c7.2,0.5,11.6-2.9,13.4-5.9c13.3-2.1,16.3-9.1,14.7-11.5c-0.4-0.5-19.5-22.8-37.9-30.3
				c0.6-3.6,1.2-4.1,2.7-7.3c3.4,1.6,13.2,7.3,17.1,9.6c0.4,0.3,0.8-0.1,1.2,0.2c0.2-0.1,0.5-0.2,0.7-0.3
				c6.7-2.8,11.2-10.8,16.1-15.9c0.2-0.3,0.5-0.6,0.8-0.9c6.1-6.5,9.6-18.1,13.3-25.6c0.5-1,1.6,0.7,2.1-0.3c0.3-0.7,0.7-1.5,1-2.3
				c20.7-3,23.9-17.3,24.9-25.7c16-4.2,20.3-16.3,21.5-22.8c13-5,15.5-14.3,15.5-19.2c0.2-0.1,0.6-0.2,0.6-0.2
				c9.8-3.6,8.9-13.6,8-18.5c11.2-4,8.3-14.8,7.3-19L375.2,161.5L375.2,161.5z M130.9,225.2c-10.5,3.6-12.6,5.1-20.5,13.2l-1.1-0.2
				c-0.4-1.6-1.1-2-1.3-3.8c0,0-0.8,1.6-0.5,4.3c-5.2-3.2-13.1-7.7-18.2-18.1c0.6,0.2,1.6-0.1,2.2,0.1c0,0-0.4-1.6-1.5-1.4
				c10-2.8,16.9-6.1,24.6-7.6C121.5,217.7,123.2,221.2,130.9,225.2L130.9,225.2z M111.4,209.2c-8.9,2.1-17.1,4.7-23.5,7.5
				c-0.4-0.9,0.3-1.7,0-2.6c0,0-1.7,1.5-1.5,3.1c-4.2-3.6-9.4-7.5-11.9-14.5c0.2,0.1,3.2-0.2,3.5-0.1c0,0-1.2-0.8-1.8-1.3
				c-0.1-0.2-0.7-0.5-0.9-0.4c12.8-2,16.6-3.9,24.6-4.4C103.5,201.5,105.5,204.2,111.4,209.2z M90.6,182c1.6,3.8,4,6.8,7.5,12
				c-9.4,0.8-19,2.4-24.8,4.5c-0.1-0.4-0.2-0.9-0.2-1.4c0,0-0.1,0.6-0.2,1.5c-0.2,0.1-0.4,0.2-0.5,0.2c-2.9-2.9-6.4-6.8-7.2-14
				c0.5,0.2,2.2-0.1,2.8,0c0,0-1.9-1.1-3-2c0-0.1,0.1-0.3,0-0.3C78.2,183.4,82.5,182.1,90.6,182L90.6,182z M244.1,194
				c-1.9,0-3.7-0.3-5.4-1.1c-1.2-0.5-2-1-2.6-1.6c-0.6,0.6-1.4,1.2-2.7,1.7c-1.6,0.7-3.5,1-5.5,1h-9l-5.4-8.9c0,0,8.6,0,10.4,0
				c0-0.9,0-1.5,0-2.4c-1.5,0-4.3,0-4.3,0c-1.2,0-2.4-0.1-3.5-0.4c-1.3-0.3-2.4-0.8-3.3-1.4v7.4c0,1.5-0.7,3.5-3.8,4.7
				c-1.7,0.7-3.5,1-5.5,1h-9l-5.5-8.9c0,0,8.6,0,10.4,0c0-0.9,0-1.5,0-2.4c-1.5,0-4.3,0-4.3,0c-1.2,0-2.4-0.1-3.5-0.4
				c-1.3-0.3-2.5-0.8-3.4-1.4V194h-12.6h-0.8c0,0,0-0.2,0-0.6c0-3.3,0-20,0-21.9c-1,0-2.9,0-2.9,0l-5.4-8.9h12.3c2,0,3.8,0.3,5.5,1
				c1.2,0.5,2.1,1,2.6,1.6c0.6-0.6,1.4-1.2,2.6-1.7c1.6-0.6,3.5-0.9,5.5-0.9h8.3c2.5,0,4.3,0.2,5.7,0.7c1.2,0.4,2,1,2.6,1.7
				c0.6-0.6,1.4-1.1,2.5-1.5c1.6-0.6,3.4-0.9,5.5-0.9h8.4c2.5,0,4.4,0.2,5.6,0.7c1.2,0.4,2,1,2.5,1.6c1.3-1.3,3.7-2.3,8.1-2.3h8.4
				c7.7,0,9.3,3.1,9.3,5.7v7.3c0,1.1-0.5,2.1-1.4,2.8c1.1,0.9,1.4,1.8,1.4,2.6v6.3v1c0,2.6-1.6,5.5-8.7,5.7c-0.2,0-0.4,0-0.6,0
				L244.1,194L244.1,194L244.1,194z M321,238.8c0.2-2.7-0.5-4.3-0.5-4.3c-0.2,1.8-0.9,2.2-1.3,3.8l-1.1,0.2
				c-7.9-8.2-10-9.7-20.5-13.2c7.7-4.1,9.4-7.5,16.3-13.4c7.7,1.6,14.6,4.9,24.6,7.6c-1.1-0.3-1.5,1.4-1.5,1.4
				c0.6-0.2,1.6,0.1,2.2-0.1C334.1,231.1,326.1,235.5,321,238.8L321,238.8z M342,217.2c0.2-1.6-1.5-3.1-1.5-3.1
				c-0.3,1,0.4,1.7,0,2.6c-6.5-2.9-14.6-5.4-23.5-7.5c5.9-5.1,8-7.7,11.5-12.8c8,0.5,11.8,2.4,24.6,4.4c-0.2,0-0.8,0.3-0.9,0.4
				c-0.5,0.5-1.8,1.3-1.8,1.3c0.3-0.1,3.2,0.2,3.5,0.1C351.5,209.7,346.2,213.7,342,217.2L342,217.2z M363.6,183c-1,0.9-3,2-3,2
				c0.6-0.1,2.2,0.1,2.8,0c-0.7,7.2-4.3,11.1-7.2,14c-0.2-0.1-0.4-0.2-0.5-0.2c-0.1-0.9-0.2-1.5-0.2-1.5c0,0.4-0.1,0.9-0.2,1.4
				c-5.8-2.1-15.3-3.7-24.8-4.5c3.5-5.2,5.9-8.2,7.5-12c8.1,0.1,12.4,1.4,25.7,0.7C363.5,182.7,363.6,182.9,363.6,183z"/>
			<path id="path38" inkscape:connector-curvature="0" class="st1" d="M210.2,168.3C210.2,168.3,210.2,168.2,210.2,168.3
				c0-1.4-0.6-2.2-2-2.7c-1.1-0.4-2.7-0.6-4.8-0.6H195c-1.8,0-3.3,0.3-4.7,0.8c-2,0.8-2.2,1.8-2.2,2.5v0v8.8c0,0.2,0,0.9,1.2,1.7
				c0.7,0.5,1.6,0.9,2.7,1.2c1,0.2,1.9,0.3,3,0.3h6.7v7.3c0,0-5.9,0-8.5,0c1,1.6,2,3.4,2.5,4c1.1,0,7.6,0,7.6,0
				c1.7,0,3.2-0.3,4.6-0.9c2.3-0.9,2.3-1.9,2.3-2.4v-11.1c0,0,0-0.1,0-0.1L210.2,168.3L210.2,168.3L210.2,168.3z M201.7,176.3h-5.2
				V169h5.2V176.3z"/>
			<path id="path40" inkscape:connector-curvature="0" class="st1" d="M183.3,165.9c-1.4-0.5-2.9-0.8-4.6-0.8c0,0-5.3,0-8,0
				c1,1.6,2.1,3.4,2.4,4c0.9,0,4,0,4,0s0,20.3,0,22.5c1.7,0,6.8,0,8.4,0c0-2.2,0-23.3,0-23.3C185.6,167.9,185.6,166.8,183.3,165.9z"
				/>
			<path id="path42" inkscape:connector-curvature="0" class="st1" d="M232.6,165.6c-1-0.4-2.6-0.6-4.8-0.6h-8.4
				c-1.7,0-3.3,0.3-4.6,0.8c-2,0.8-2.3,1.8-2.3,2.5v8.8c0,0.2,0,0.9,1.2,1.7c0.7,0.5,1.6,0.9,2.7,1.2c1,0.2,1.9,0.3,2.9,0.3h6.8v7.3
				c0,0-6,0-8.5,0c1,1.6,2.1,3.4,2.4,4c1.2,0,7.6,0,7.6,0c1.7,0,3.2-0.3,4.6-0.9c2.3-0.9,2.3-1.9,2.3-2.4v-20
				C234.7,167,234.1,166.1,232.6,165.6L232.6,165.6z M226.3,176.3h-5.2V169h5.2V176.3z"/>
			<path id="path44" inkscape:connector-curvature="0" class="st1" d="M256.9,191c1.6-0.5,2.1-1.3,2.3-2c0.1-0.3,0.1-0.6,0.1-0.8
				V181c0-0.1,0-0.4-0.7-0.8c-0.5-0.4-1-0.6-1.6-0.7l0.2-2.4c0.6,0,1.1-0.2,1.6-0.5c0.4-0.2,0.5-0.6,0.5-0.9v-7.3
				c0-0.8,0-3.3-6.8-3.3h-8.4c-6.9,0-6.9,2.5-6.9,3.3v7.3c0,0.3,0.1,0.6,0.6,0.9c0.4,0.3,1,0.5,1.7,0.5l0,2.4
				c-0.6,0.1-1.2,0.3-1.6,0.6c-0.6,0.4-0.6,0.7-0.6,0.9v7.3c0,0.4,0,1.4,2.3,2.3c1.4,0.6,3,0.9,4.5,0.9h8.4
				C254.5,191.6,255.9,191.3,256.9,191z M250.9,187.5h-5.2v-7.3h5.2V187.5z M250.9,176.3h-5.2V169h5.2V176.3z"/>
			<path id="path46" inkscape:connector-curvature="0" class="st1" d="M222.6,365.3c-10.4-13.5-6.4-31.3-6.4-31.3
				c-1.7,3.6-4.9,0-4.9,0c1.3,3.1,3.1,22.7-6,30c0,0,9.3,1.5,9.3-9.3C214.6,363.5,222.6,365.3,222.6,365.3L222.6,365.3z"/>
		</g>
	</g>
	<g id="typodfco">
		<path id="path49" inkscape:connector-curvature="0" class="st1" d="M114.3,80H62.8v69.7h51.5c3.6,0,7.1-0.3,10.4-1
			c3.7-0.7,6.9-1.7,9.6-3.2c2.7-1.5,4.4-3.1,5-4.8V88.4C137.6,82.8,129.2,80,114.3,80z M118.5,132.1c-1.9,1.9-5.3,2-6,2
			c-0.1,0-0.1,0-0.1,0H91V95.4H112c0,0,0.6,0,1.4,0c1.6,0,4.2,0.1,5.1,1c1.3,1.3,1,6.5,1,6.5v23.9
			C119.5,126.8,119.6,131,118.5,132.1L118.5,132.1z"/>
		<polygon id="polygon51" class="st1" points="217.2,102.9 217.2,99.6 181.8,99.6 181.8,102.9 212.4,102.9 		"/>
		<path id="path53" inkscape:connector-curvature="0" class="st1" d="M143.5,87.7v53.7v8.3h34.2v-27.2h24.8l9.9-15.4h-34.7V95.4
			h39.5v-4.6c0-0.5,0-1.1,0.1-1.7v-9h-73.8C143.5,80,143.5,87.7,143.5,87.7z"/>
		<path id="path55" inkscape:connector-curvature="0" class="st1" d="M113.4,99.5c-0.7,0-1.1,0-1.1,0l-0.1,0H112H95.2V130h17.2l0,0
			l0.1,0c1,0,2-0.2,2.6-0.5c0.1-0.6,0.2-1.7,0.1-2.5l0-0.1v-0.1v-23.9v-0.1l0-0.1c0.1-0.9,0-2.1-0.1-3
			C114.8,99.6,114.2,99.5,113.4,99.5z M113.2,102.5l0,24.3l0,0.2c0,0.3,0,0.6,0,0.8c-0.2,0-0.4,0-0.6,0.1l-0.2,0l-15.1,0v-26.2H112
			l0.4,0c0,0,0.3,0,0.8,0C113.2,101.9,113.2,102.2,113.2,102.5z"/>
		<path id="path57" inkscape:connector-curvature="0" class="st1" d="M342.1,99.6L342.1,99.6L342.1,99.6h-13h0l-0.1,0l0,0
			c-0.1,0-0.3,0-0.4,0c0,0.1,0,0.2,0,0.2l0.1,0.3v0.5v27.9v0.1l0,0.1c0,0.4,0,0.8,0,1.2c0.2,0,0.5,0,0.9,0c0.4,0,0.7,0,0.7,0l0.2,0
			h0.2h10.7l0.1,0l0.2,0c0,0,0,0,0.1,0c0.3,0,0.6,0,0.8-0.1c0.1-0.4,0.1-0.9,0.1-1.3v0v0v-27.6l0-0.2l0-0.3c0-0.2,0-0.5,0-0.8
			C342.5,99.6,342.3,99.6,342.1,99.6z M340.6,127.9h-9.9v-26.2h9.9V127.9z"/>
		<path id="path59" inkscape:connector-curvature="0" class="st1" d="M367.2,76.9c-5-2.1-12-3.2-21.4-3.2h-26.1
			c-3.4,0-6.5,0.1-9.3,0.4l0.3-0.4h-63.8c-6.6,0-12.6,0.8-17.7,2.4c-2,0.6-3.9,1.3-5.5,2.2v-4.6h-86.4v3.9c-0.5-0.2-1-0.5-1.5-0.7
			c-5.1-2.1-12.1-3.2-21.5-3.2H56.5v82.2h57.7c4.2,0,8-0.4,11.6-1.1c4.2-0.8,8-2,11.4-3.8v4.9h46.7v-27.2h21.9l9.2-14.3v24.5
			c0,4.7,2.5,10.9,14.2,14.4c5.4,1.7,11.2,2.6,17.6,2.6h35.8l7-10.9c1.8,3.1,5.4,6.2,12.4,8.4c5.3,1.7,11.2,2.6,17.7,2.6h26.1
			c6.7,0,12.7-0.8,17.7-2.3c12-3.7,13.8-10.8,13.8-14.7V90.7C377.4,87.2,376.1,80.6,367.2,76.9L367.2,76.9z M375.3,138.9
			c0,4.1-2.1,9.6-12.3,12.7c-4.8,1.5-10.6,2.2-17.1,2.2h-26.1c-6.2,0-11.9-0.8-17-2.5c-9.2-2.8-12-7.3-12.5-11.1l-7.5,11.6l-1.2,1.9
			h-2.3h-32.4c-6.2,0-11.7-0.8-16.9-2.5c-10.5-3.1-12.7-8.5-12.7-12.5v-31.6l-1.3,2l-10,15.4l-1.2,1.9h-2.3h-20.6v23v4.2h-4.2h-34.2
			h-4.2v-4.2v-2.5c-0.9,0.7-1.9,1.4-3,2l0,0l0,0c-3.1,1.6-6.7,2.8-10.7,3.6c-3.5,0.7-7.2,1.1-11.2,1.1H62.8h-4.2v-4.2V80v-4.2h4.2
			h51.5c9.1,0,15.9,1,20.7,3c1.8,0.8,3.2,1.6,4.4,2.6V80v-4.2h4.2h73.8h4.2V80v2.2c1.9-1.5,4.5-2.9,8.2-4c5-1.6,10.8-2.4,17.1-2.4
			h52.3h7.7l-0.7,1c3.8-0.7,8.3-1,13.6-1h26.1c9.1,0,15.8,1,20.6,3c7.3,3.1,8.9,8.2,8.9,11.9L375.3,138.9L375.3,138.9L375.3,138.9z"
			/>
		<path id="path61" inkscape:connector-curvature="0" class="st1" d="M345.8,80h-26.1c-7.1,0-12.7,0.6-16.8,1.9
			c-5.7,1.7-8.6,4.7-8.6,8.9v4.4v34.8v4v5c0,3.6,3.2,6.5,9.7,8.5c4.8,1.5,10,2.3,15.8,2.3h26.1c6.1,0,11.5-0.7,15.9-2
			c6.2-1.9,9.4-4.8,9.4-8.7V90.7C371.1,83.5,362.7,80,345.8,80L345.8,80z M345.9,132.7c-1.3,1.3-3.2,1.5-4.1,1.5c-0.3,0-0.4,0-0.4,0
			h-10.7c0,0-0.4,0-1,0c-1.2,0-3.2-0.2-4.1-1c-1.2-1.2-1-4.6-1-4.6v-27.9c0,0-0.5-2.7,1-4.3c0.9-0.9,2.9-1,3.5-1c0.1,0,0.2,0,0.2,0
			h12.9c0,0,0,0,0,0c0.3,0,2.8,0,3.8,1c1.4,1.4,1,4.5,1,4.5v27.6C346.9,128.5,347,131.7,345.9,132.7L345.9,132.7z"/>
		<path id="path63" inkscape:connector-curvature="0" class="st1" d="M246.8,80c-5.9,0-11.2,0.7-15.9,2.2c-5.6,1.7-8.8,4.1-9.4,7.3
			v5.9v4.2h-0.1v39.3c0,3.6,3.2,6.5,9.8,8.5c4.8,1.5,10,2.3,15.7,2.3h32.4l10-15.5h-33.7V95.4h33.7l0.9-1.4v-3.2
			c0-3.3,1.2-7.6,6.6-10.8L246.8,80L246.8,80L246.8,80z"/>
		<path id="path65" inkscape:connector-curvature="0" class="st1" d="M259.7,99.6v30.4h29.5h0.9V99.6h-0.9H259.7z M288,127.9h-26.2
			v-26.2H288V127.9z"/>
	</g>
</g>
</svg>
