<?xml version="1.0" encoding="utf-8"?>
<!-- Generator: Adobe Illustrator 26.0.2, SVG Export Plug-In . SVG Version: 6.00 Build 0)  -->
<svg version="1.1"
	 id="svg2" xmlns:cc="http://creativecommons.org/ns#" xmlns:dc="http://purl.org/dc/elements/1.1/" xmlns:inkscape="http://www.inkscape.org/namespaces/inkscape" xmlns:rdf="http://www.w3.org/1999/02/22-rdf-syntax-ns#" xmlns:sodipodi="http://sodipodi.sourceforge.net/DTD/sodipodi-0.dtd" xmlns:svg="http://www.w3.org/2000/svg"
	 xmlns="http://www.w3.org/2000/svg" xmlns:xlink="http://www.w3.org/1999/xlink" x="0px" y="0px" width="350px" height="550px"
	 viewBox="0 0 350 550" style="enable-background:new 0 0 350 550;" xml:space="preserve">
<style type="text/css">
	.st0{fill-rule:evenodd;clip-rule:evenodd;fill:#000200;}
	.st1{fill-rule:evenodd;clip-rule:evenodd;fill:#FFFFFF;}
	.st2{fill:url(#path4217_00000159449733746628916280000005841157138309470655_);}
	.st3{fill:url(#path4247_00000052824598406521926800000008628970751622253480_);}
	.st4{fill:url(#path4269_00000147204262412090979750000002683230048616640434_);}
	.st5{fill:url(#path4313_00000005252466176292068580000005574965926967852969_);}
	.st6{fill-rule:evenodd;clip-rule:evenodd;fill:#D4D5D7;}
	.st7{fill:url(#path4331_00000158726839371042576020000014275979742798789008_);}
	.st8{fill:url(#path4347_00000150090654256372402550000004565997501929152670_);}
	.st9{fill-rule:evenodd;clip-rule:evenodd;fill:#D9DADB;}
	.st10{fill:url(#path4361_00000061431397819794887860000005247644901371779770_);}
	.st11{fill:url(#path4375_00000078022286501336942100000008457881805954539192_);}
	.st12{fill:url(#path4393_00000131336957974803447440000015217506542190294421_);}
	.st13{fill-rule:evenodd;clip-rule:evenodd;fill:#FCFBFB;}
	.st14{fill:url(#path4409_00000017509223162727371480000010845107994698570124_);}
	.st15{fill-rule:evenodd;clip-rule:evenodd;fill:#888986;}
	.st16{fill-rule:evenodd;clip-rule:evenodd;fill:#888885;}
	.st17{fill:url(#path4429_00000029005643360949948020000017683810252085907599_);}
	.st18{fill:url(#path4443_00000180343011017447682530000011495350644478508958_);}
	.st19{fill:url(#path4457_00000131362488835913354180000000420272162509417389_);}
	.st20{fill:url(#path4471_00000101806900790168647650000011140901999001513899_);}
	.st21{fill-rule:evenodd;clip-rule:evenodd;fill:#D4D3D2;}
	.st22{fill-rule:evenodd;clip-rule:evenodd;fill:#F6F6F7;}
	.st23{fill-rule:evenodd;clip-rule:evenodd;fill:#F7F7F7;}
	.st24{fill-rule:evenodd;clip-rule:evenodd;fill:#DCDBDC;}
	.st25{fill:url(#path4503_00000125588556469846506810000017508553271708984992_);}
	.st26{fill:url(#path4517_00000068671967589225938100000009049402976050234803_);}
	.st27{fill-rule:evenodd;clip-rule:evenodd;fill:#C7C7C8;}
	.st28{fill:url(#path4545_00000064345831707033578930000007666124972277008525_);}
	.st29{fill-rule:evenodd;clip-rule:evenodd;fill:#0A130C;}
	.st30{fill:url(#path4569_00000081632764970880943030000006286537938117743252_);}
	.st31{fill:url(#path4583_00000143593015558373310930000005834371621548056216_);}
	.st32{fill:url(#path4599_00000081609504264200299910000014436459801410101389_);}
	.st33{fill:url(#path4613_00000149350897618341530800000011690228241034190993_);}
	.st34{fill:url(#path4627_00000156567695350430011260000015100441140133392007_);}
	.st35{fill:url(#path4637_00000054958124074921146720000003508490452206889623_);}
	.st36{fill-rule:evenodd;clip-rule:evenodd;fill:#4F5651;}
	.st37{fill-rule:evenodd;clip-rule:evenodd;fill:#434D4A;}
	.st38{fill-rule:evenodd;clip-rule:evenodd;fill:#3D4845;}
	.st39{fill-rule:evenodd;clip-rule:evenodd;fill:#454C48;}
	.st40{fill-rule:evenodd;clip-rule:evenodd;fill:#000200;stroke:#000200;stroke-width:0.2464;stroke-miterlimit:4.5632;}
	.st41{fill:url(#path4665_00000174569001397494378270000001237379176398421924_);}
	.st42{fill:url(#path4679_00000010989691238284541570000016023426776603121557_);}
	.st43{fill:url(#path4693_00000024714226461246247710000003001011846361866660_);}
	.st44{fill:url(#path4707_00000112598252275727486200000017065340013843421624_);}
	.st45{fill:url(#path4721_00000088099421856444376000000005400299608420379043_);}
	.st46{fill:url(#path4735_00000164502710044241871560000007179534517600525984_);}
	.st47{fill:url(#path4752_00000081629369723982317800000006734787201257529254_);}
	.st48{fill:url(#path4766_00000083080240443700445960000000231062846537184404_);}
	.st49{fill:url(#path4780_00000140714354446004648230000012964204553832320668_);}
	.st50{fill:url(#path4794_00000000184152143295227090000014825959268681947830_);}
	.st51{fill:url(#path4808_00000048492355706768270720000013939317763985790620_);}
	.st52{fill:url(#path4822_00000086668793920803629220000015083326173603009189_);}
	.st53{fill:url(#path4836_00000096037859363782975130000017451829687024580509_);}
	.st54{fill:url(#path4850_00000054982725486610389470000005492071963173747095_);}
	.st55{fill:url(#path4864_00000006677386518922439720000015710624253430626984_);}
	.st56{fill:url(#path4878_00000161597564711602831790000002899779596304734123_);}
	.st57{fill:url(#path4892_00000111190956685684321580000008454150685627239855_);}
	.st58{fill:url(#path4906_00000081648172237670801400000016058974761617666222_);}
	.st59{fill:url(#path4920_00000178923157212814384800000001396595078281418932_);}
</style>
<sodipodi:namedview  bordercolor="#666666" borderopacity="1.0" id="base" inkscape:current-layer="layer1" inkscape:cx="504.45638" inkscape:cy="369.09458" inkscape:document-units="px" inkscape:pageopacity="0.0" inkscape:pageshadow="2" inkscape:window-height="691" inkscape:window-maximized="1" inkscape:window-width="1280" inkscape:window-x="0" inkscape:window-y="1" inkscape:zoom="0.19311523" pagecolor="#ffffff" showgrid="false" units="px">
	</sodipodi:namedview>
<g id="layer1" transform="translate(0,-502.36211)" inkscape:groupmode="layer" inkscape:label="Calque 1">
	<g id="g8040" transform="matrix(1.0680787,0,0,1.0680787,-472.10177,32.466436)">
		<g id="g6832">
			<path id="path4193" inkscape:connector-curvature="0" class="st0" d="M442,440.1h327.7v351.1c0,90.1-73.7,163.7-163.8,163.7
				s-163.8-73.6-163.8-163.7L442,440.1L442,440.1z"/>
			<path id="path4195" inkscape:connector-curvature="0" class="st1" d="M445,443.1h321.7v348.1c0,88.4-72.3,160.7-160.8,160.7
				s-160.8-72.3-160.8-160.7L445,443.1L445,443.1z"/>
			
				<linearGradient id="path4217_00000127763671281476114320000005256249603097569670_" gradientUnits="userSpaceOnUse" x1="1184.5223" y1="411.0667" x2="1184.5223" y2="787.264" gradientTransform="matrix(0.8942 0 0 1.4554 -453.3447 -139.3519)">
				<stop  offset="1" style="stop-color:#005A9C"/>
				<stop  offset="1" style="stop-color:#005A9C"/>
				<stop  offset="1" style="stop-color:#006EAE"/>
				<stop  offset="1" style="stop-color:#008ECC"/>
				<stop  offset="1" style="stop-color:#008ECC"/>
				<stop  offset="1" style="stop-color:#0083C1"/>
				<stop  offset="1" style="stop-color:#005A9C"/>
				<stop  offset="1" style="stop-color:#005A9C"/>
			</linearGradient>
			
				<path id="path4217" inkscape:connector-curvature="0" style="fill:url(#path4217_00000127763671281476114320000005256249603097569670_);" d="
				M458.4,458.9h294.9v332.5c0,81.1-66.3,147.4-147.4,147.4l0,0c-81.1,0-147.4-66.3-147.4-147.4V458.9H458.4z"/>
			<path id="path4219" inkscape:connector-curvature="0" class="st1" d="M605.7,791.2h-131c0,72.5,58.7,132,131.1,132
				c72.5,0,131.8-59.3,131.8-131.8V474.6H606.2L605.7,791.2z"/>
		</g>
		<g id="g7800">
			<g id="g6588">
				<path id="path4647" inkscape:connector-curvature="0" class="st1" d="M512.7,670.1c13.6-8,28.1-12.1,42.8-11.1
					c11.9,0.8,21,5.3,29.1,13.8c6,0,9.9,4.8,10.6,9.3c1,6.2-2.2,12.4-8.4,14c-18.7,4.9-36.7,14-51.3,26.7
					c-10.4,9.1-20.8,20.6-28.1,32.3c-5.2,8.1-12.6,18.3-12.6,28.3c0,4.6,1.8,8.4,4.3,12.6l5.3,11.9l-12.8-2.6
					c-3-0.6-5.9-1.7-8.7-2.7c-2.2-0.8-4.6-1.7-6.9-2.2l-1.1-9V772c4.3-19.3,10.7-40.8,17.5-59.2c1.6-4.5,0.1-7-2.8-9.2
					c-2.2-1.7-5.3-3.4-8.3-5.1c-5.7-2.7-6.2-13.1-2.2-17.5C487.9,671.1,498.4,668,512.7,670.1L512.7,670.1z M477.2,793.7
					c2.9-25.3,10.4-51,20.6-78.7c4.2-11.4-3.8-19.1-13.9-23.7c-2-0.9-2.3-3.1-0.5-4.9c6.4-6.7,14.2-10.9,29.8-8
					c14.4-8.3,29.9-12.4,42.1-11.6c10.8,0.7,20.1,5.3,27.4,14.1c1.1-0.2,2.5-0.3,4.1,0.3c1.2,0.4,2.7,1.4,3,2.9
					c0.2,1.3-1.1,3.3-4.9,4.3c-19.7,5.2-38.2,15.1-53.5,28.5c-14.9,13-27.2,29.6-36.6,46.9c-3.4,6.4-5.7,12.5-5.7,19
					c0,4.7,1.1,9.6,3.9,15.8C488.1,797.7,482,794.7,477.2,793.7L477.2,793.7z"/>
				<path id="path4649" inkscape:connector-curvature="0" class="st1" d="M561,679.4c2.9,0,5.2,2.3,5.2,5.1l0,0
					c0,2.8-2.3,5.1-5.2,5.1s-5.2-2.3-5.2-5.1S558.1,679.4,561,679.4z"/>
			</g>
			<g id="g6346">
				<path id="path4223" inkscape:connector-curvature="0" class="st1" d="M478.4,478.1H501v120.4c0,10.1,1.9,16.8,5.7,20.3
					c3.3-4.3,5-10.4,5-18.2V478.1h22.6v120.4c0,15.1-3.4,27.2-10.2,36.1c-5.2,6.7-11,10-17.5,10c-4.5,0-8.9-1.7-13.4-5.1
					c-4.5-3.4-7.9-8.4-10.2-14.9c-3.1-8.9-4.6-17.6-4.6-26L478.4,478.1L478.4,478.1z"/>
				<path id="path4225" inkscape:connector-curvature="0" class="st1" d="M552.3,618.6c3.4,1.5,6.5,2.2,9.3,2.2c3.9,0,7-1.3,9.3-3.8
					s3.4-6.3,3.4-11.3c0-4-0.4-7.7-1.1-11.4c-1.5-7.2-4.7-16.5-9.2-27.9s-7.7-21.8-9.8-31.1c-1.2-5.3-1.8-11.2-1.8-17.7
					c0-14.1,2.8-24.3,8.3-30.7c5.5-6.4,12.7-9.6,21.5-9.6c4.1,0,8.8,0.8,14.2,2.5v21.7c-3.1-1.5-5.8-2.2-8.4-2.2
					c-3.7,0-6.9,1.5-9.5,4.6s-3.9,7.6-3.9,13.5c0,3.9,0.3,7.7,1,11.5c1.3,7,4.6,16.4,8.6,26.8c5.1,13.1,8.2,24.2,10.6,34.5
					c1.2,5.2,1.8,10.8,1.8,16.8c0,11.8-2.9,20.9-8.6,27.2c-5.8,6.3-13,9.5-21.6,9.5c-3.8,0-8.5-0.9-14-2.6L552.3,618.6L552.3,618.6z
					"/>
				
					<linearGradient id="path4247_00000159446573032411335880000009944943193931859843_" gradientUnits="userSpaceOnUse" x1="1502.8969" y1="400.7128" x2="1502.8969" y2="475.3217" gradientTransform="matrix(0.5212 0 0 2.4968 -143.8937 -521.3189)">
					<stop  offset="1" style="stop-color:#005A9C"/>
					<stop  offset="1" style="stop-color:#005A9C"/>
					<stop  offset="1" style="stop-color:#006EAE"/>
					<stop  offset="1" style="stop-color:#008ECC"/>
					<stop  offset="1" style="stop-color:#008ECC"/>
					<stop  offset="1" style="stop-color:#0083C1"/>
					<stop  offset="1" style="stop-color:#005A9C"/>
					<stop  offset="1" style="stop-color:#005A9C"/>
				</linearGradient>
				
					<path id="path4247" inkscape:connector-curvature="0" style="fill:url(#path4247_00000159446573032411335880000009944943193931859843_);" d="
					M622.5,479.2h21.4v141.7h12.6v21.6h-34.1L622.5,479.2L622.5,479.2z"/>
				
					<linearGradient id="path4269_00000170280822077375091880000009026207899696293565_" gradientUnits="userSpaceOnUse" x1="1445.8271" y1="410.9129" x2="1445.8271" y2="506.982" gradientTransform="matrix(0.6741 0 0 1.9308 -270.6809 -313.6767)">
					<stop  offset="1" style="stop-color:#005A9C"/>
					<stop  offset="1" style="stop-color:#005A9C"/>
					<stop  offset="1" style="stop-color:#006EAE"/>
					<stop  offset="1" style="stop-color:#008ECC"/>
					<stop  offset="1" style="stop-color:#008ECC"/>
					<stop  offset="1" style="stop-color:#0083C1"/>
					<stop  offset="1" style="stop-color:#005A9C"/>
					<stop  offset="1" style="stop-color:#005A9C"/>
				</linearGradient>
				
					<path id="path4269" inkscape:connector-curvature="0" style="fill:url(#path4269_00000170280822077375091880000009026207899696293565_);" d="
					M675.5,479.7h6.5c8.2,0,15.3,1.5,21.2,4.4s11,7.8,15.3,14.5c4.3,6.8,7.7,15.2,10.1,25.4c2.5,10.2,3.7,22.4,3.7,36.5
					c0,14.4-1.3,27.3-3.8,38.6s-6.2,20.4-11,27.3c-3.6,5.1-7.4,8.8-11.5,11.2c-5.6,3.2-12.3,4.8-20.3,4.8h-10.1L675.5,479.7
					L675.5,479.7z M697.1,506.2v110c12.9-7.5,13-41.3,13-55.7C710.1,544.1,709.9,516,697.1,506.2L697.1,506.2z"/>
			</g>
			<g id="Layer1004" transform="translate(308.21798,302.59712)">
				<path id="path4295" inkscape:connector-curvature="0" class="st1" d="M297.6,410.3c35.3,0,66.5,23.1,76.2,57.2
					c2,7.1,2.9,14.8,2.9,22.2c0,21.5-8.6,42.6-24.1,57.6C337.8,561.6,318,569,297.5,569c-13,0-25.8-2.9-37.3-9.1
					c-25.8-13.8-41.8-40.9-41.8-70.1C218.4,446,253.9,410.3,297.6,410.3L297.6,410.3z"/>
				
					<linearGradient id="path4313_00000016073795812716157830000008155352851623170183_" gradientUnits="userSpaceOnUse" x1="538.0084" y1="698.2506" x2="538.0084" y2="760.3986" gradientTransform="matrix(1.1455 0 0 1.1361 -286.4465 -302.9934)">
					<stop  offset="1" style="stop-color:#F9F9FA"/>
					<stop  offset="1" style="stop-color:#F7F8F9"/>
					<stop  offset="1" style="stop-color:#EFEFF0"/>
					<stop  offset="1" style="stop-color:#E5E5E5"/>
					<stop  offset="1" style="stop-color:#E4E5E5"/>
					<stop  offset="1" style="stop-color:#E3E4E4"/>
				</linearGradient>
				
					<path id="path4313" inkscape:connector-curvature="0" style="fill:url(#path4313_00000016073795812716157830000008155352851623170183_);" d="
					M326.5,490.3l-27.8,28.2l5.8,30.7c9.2,2.6,19.7,3.5,31.6,2.8c9-5.7,17.3-14,24.9-24.4l-4.4-31.6L326.5,490.3L326.5,490.3z"/>
				<path id="path4317" inkscape:connector-curvature="0" class="st6" d="M347.7,437c7.2,9.9,13.9,21.9,19.1,38.5l3-1.5
					c-2.4-13.5-9.6-26.3-20.1-38.5L347.7,437z"/>
				
					<linearGradient id="path4331_00000123424343556335945770000009696112137590280078_" gradientUnits="userSpaceOnUse" x1="557.6973" y1="633.1552" x2="557.6973" y2="697.4457" gradientTransform="matrix(1.097 0 0 1.1862 -275.1572 -320.354)">
					<stop  offset="1" style="stop-color:#FFFFFF"/>
					<stop  offset="1" style="stop-color:#FCFBFB"/>
					<stop  offset="1" style="stop-color:#E5E3E4"/>
					<stop  offset="1" style="stop-color:#E3E2E3"/>
				</linearGradient>
				
					<path id="path4331" inkscape:connector-curvature="0" style="fill:url(#path4331_00000123424343556335945770000009696112137590280078_);" d="
					M322.2,430.7c-5.5,9.4-11,18.8-16.5,28.1c6.3,10.4,12.7,20.9,19,31.3c12.7,2.5,25.4,4.9,38.1,7.4c1.6-8.9,3.2-17.8,4.8-26.8
					c-3.9-11.7-10.3-22.7-17.8-33.4C340.6,435.1,331.4,432.9,322.2,430.7z"/>
				
					<linearGradient id="path4347_00000039131038123493501260000001701708108789344171_" gradientUnits="userSpaceOnUse" x1="456.5667" y1="688.4846" x2="456.5667" y2="749.3779" gradientTransform="matrix(1.3701 0 0 0.9498 -338.7565 -238.2611)">
					<stop  offset="1" style="stop-color:#E1E1E2"/>
					<stop  offset="1" style="stop-color:#E3E3E5"/>
					<stop  offset="1" style="stop-color:#F0EFF0"/>
					<stop  offset="1" style="stop-color:#FCFCFC"/>
					<stop  offset="1" style="stop-color:#FFFFFF"/>
				</linearGradient>
				
					<path id="path4347" inkscape:connector-curvature="0" style="fill:url(#path4347_00000039131038123493501260000001701708108789344171_);" d="
					M250.2,441l23.9,25.4l30.2-4.8l19.1-33.2l-17.1-12.6c-13.7-0.9-30,1.8-43.7,7.5L250.2,441L250.2,441z"/>
				<path id="path4349" inkscape:connector-curvature="0" class="st9" d="M306.5,417.6c-14.4-0.3-28.5,1.3-42.2,6.3l-2.5-1.3
					c14.6-8,29.2-9.7,43.7-7L306.5,417.6L306.5,417.6z"/>
				<path id="path4351" inkscape:connector-curvature="0" class="st6" d="M231.9,454.6c-5.4,14.3-8.1,29.1-6.8,44.7l-2.8-1.8
					c-1.1-14.8,1.4-29.3,7-43.5L231.9,454.6z"/>
				
					<linearGradient id="path4361_00000008110911782807496490000013375364106743447976_" gradientUnits="userSpaceOnUse" x1="453.9088" y1="692.7925" x2="453.9088" y2="745.9606" gradientTransform="matrix(1.3876 0 0 0.9379 -342.8206 -234.0967)">
					<stop  offset="0" style="stop-color:#F3F3F5"/>
					<stop  offset="1" style="stop-color:#FFFFFF"/>
				</linearGradient>
				
					<path id="path4361" inkscape:connector-curvature="0" style="fill:url(#path4361_00000008110911782807496490000013375364106743447976_);" d="
					M266,422.2c11.7-5,27.5-7.5,38.1-6.2c5.1,3.9,10.3,6.1,15.3,9.9c-2.2,9.1-8.2,21.3-14.6,28.7c-9.8,1.9-18.1,3.2-28.3,4.7
					c-3.5,0.5-5.9-0.5-8.5-2.6c-3.6-3-8.1-6.9-10.9-9.9c-2.4-2.7-2.8-4.7-2.1-8.7C258.8,431.7,262.2,428.5,266,422.2L266,422.2z"/>
				
					<linearGradient id="path4375_00000065784868987312169470000000151892028456473491_" gradientUnits="userSpaceOnUse" x1="520.7325" y1="597.5872" x2="520.7325" y2="657.8243" gradientTransform="matrix(0.93 0 0 1.3994 -236.2502 -394.4617)">
					<stop  offset="1" style="stop-color:#FFFFFF"/>
					<stop  offset="1" style="stop-color:#FCFBFB"/>
					<stop  offset="1" style="stop-color:#E5E3E4"/>
					<stop  offset="1" style="stop-color:#E3E2E3"/>
				</linearGradient>
				
					<path id="path4375" inkscape:connector-curvature="0" style="fill:url(#path4375_00000065784868987312169470000000151892028456473491_);" d="
					M251,441.8l21.6,22.9l-5.8,34.7l-29.2,16.3l-13.8-18.5c-1.6-13.7,2.3-28.5,7.7-42.9L251,441.8L251,441.8z"/>
				
					<linearGradient id="path4393_00000134220198646627452570000011687006634228840113_" gradientUnits="userSpaceOnUse" x1="480.3984" y1="716.085" x2="480.3984" y2="779.5131" gradientTransform="matrix(1.1776 0 0 1.1052 -293.8965 -292.2661)">
					<stop  offset="1" style="stop-color:#F9F9FA"/>
					<stop  offset="1" style="stop-color:#F7F8F9"/>
					<stop  offset="1" style="stop-color:#EFEFF0"/>
					<stop  offset="1" style="stop-color:#E5E5E5"/>
					<stop  offset="1" style="stop-color:#E4E5E5"/>
					<stop  offset="1" style="stop-color:#E3E4E4"/>
				</linearGradient>
				
					<path id="path4393" inkscape:connector-curvature="0" style="fill:url(#path4393_00000134220198646627452570000011687006634228840113_);" d="
					M239.1,514.6l27.6-15.5l31,16.5l6.8,32.9l-26.6,12.1c-10.5-3.7-20.5-9.2-30-16L239.1,514.6L239.1,514.6z"/>
				<path id="path4395" inkscape:connector-curvature="0" class="st13" d="M267,421.4c7.3-4.2,24.3-7.1,35.6-6.3
					c3.7-1,6.8-1.8,14.7-2.7c-16.5-2.9-38.5-4.9-61.1,9.6C261.8,421.6,263.8,421.3,267,421.4z"/>
				
					<linearGradient id="path4409_00000051363734531401900210000003745574143657452731_" gradientUnits="userSpaceOnUse" x1="519.1198" y1="601.6382" x2="519.1198" y2="652.563" gradientTransform="matrix(0.9263 0 0 1.405 -235.3878 -396.3722)">
					<stop  offset="1" style="stop-color:#F1F1F2"/>
					<stop  offset="1" style="stop-color:#F1F1F2"/>
					<stop  offset="1" style="stop-color:#F6F5F7"/>
					<stop  offset="1" style="stop-color:#F6F6F8"/>
				</linearGradient>
				
					<path id="path4409" inkscape:connector-curvature="0" style="fill:url(#path4409_00000051363734531401900210000003745574143657452731_);" d="
					M251.4,448.9c4.4,4.7,9.5,9,13.1,13.3c2.2,2.7,1.8,7.9,1.3,11.4c-1.3,8.9-2.6,16.4-4,25c-6.9,5.2-14.5,9.3-20.9,13.1
					c-7-5.6-12.6-13.1-16.1-20.7c0.4-10.7,1.7-21.4,5.1-29.4C235.3,457.4,242.5,452.9,251.4,448.9L251.4,448.9z"/>
				<path id="path4411" inkscape:connector-curvature="0" class="st15" d="M246.5,541.2l-1,1.9c9.3,8,20,14.2,32.3,18.8v-3.6
					C277.7,560.7,247.2,544.5,246.5,541.2z"/>
				<path id="path4413" inkscape:connector-curvature="0" class="st16" d="M358.3,523.7c-7.9,12.8-16.8,22.3-26.6,28.4l1.8,3
					c11.1-6.5,21-16.2,29.4-30.2L358.3,523.7L358.3,523.7z"/>
				<path id="path4415" inkscape:connector-curvature="0" class="st1" d="M228.8,450.5c6.8-12,16.7-22.1,28.6-29.1
					c2.7-0.7,8.9-0.4,12.2-0.4c-6,6.6-12,15.4-16.4,23l-0.2,0.3l-0.4,0.2c-8.4,4.2-15.3,9.3-22.4,15.4l-2.3,2.1l0.1-3.1
					c0.1-2.5,0.3-4.9,0.6-7.3C228.7,451.2,228.7,450.9,228.8,450.5L228.8,450.5z"/>
				
					<linearGradient id="path4429_00000070831522519381114590000012507301080968714112_" gradientUnits="userSpaceOnUse" x1="464.2007" y1="641.3972" x2="464.2007" y2="679.6431" gradientTransform="matrix(1.1606 0 0 1.1214 -289.9396 -297.8475)">
					<stop  offset="1" style="stop-color:#101A13"/>
					<stop  offset="1" style="stop-color:#111A13"/>
					<stop  offset="1" style="stop-color:#4E5751"/>
					<stop  offset="1" style="stop-color:#535B55"/>
				</linearGradient>
				
					<path id="path4429" inkscape:connector-curvature="0" style="fill:url(#path4429_00000070831522519381114590000012507301080968714112_);" d="
					M268.2,421.4c-2.6,0.1-7.1,0.1-12.2,0.8c-10.3,6.4-19,15.1-25.4,25.3c-0.6,3.8-1.1,7.7-1.2,11.5c6.3-5.5,13.1-10.9,22.7-15.6
					C258.7,431.7,262.3,427.8,268.2,421.4L268.2,421.4z"/>
				
					<linearGradient id="path4443_00000158714715162527986230000016747035511825670805_" gradientUnits="userSpaceOnUse" x1="470.9136" y1="737.9225" x2="470.9136" y2="794.7649" gradientTransform="matrix(1.2257 0 0 1.0618 -305.1118 -277.1426)">
					<stop  offset="1" style="stop-color:#EAE9EA"/>
					<stop  offset="1" style="stop-color:#E1E0E0"/>
					<stop  offset="1" style="stop-color:#DAD8D8"/>
					<stop  offset="1" style="stop-color:#BFBEBE"/>
				</linearGradient>
				
					<path id="path4443" inkscape:connector-curvature="0" style="fill:url(#path4443_00000158714715162527986230000016747035511825670805_);" d="
					M241.6,515.8c5.9-2.8,10.6-5.4,17.8-8.8c2.1-1,4.7-0.7,6.8,0.1c8.7,3.6,18.1,7.5,27.9,12.1c1.2,0.5,2,0.7,2.5,2.8
					c1.8,7.8,4.2,17.5,6,26c-6.9,4.6-15.5,8.8-26.3,11.3c-10.2-3.9-18.4-8.2-26.8-14.1C246,535.9,242.3,525.5,241.6,515.8
					L241.6,515.8z"/>
				
					<linearGradient id="path4457_00000093867943176542973220000002584199090560337295_" gradientUnits="userSpaceOnUse" x1="539.5361" y1="700.3238" x2="539.5361" y2="756.0925" gradientTransform="matrix(1.1409 0 0 1.1407 -285.3679 -304.5804)">
					<stop  offset="1" style="stop-color:#EAE9EA"/>
					<stop  offset="1" style="stop-color:#E1E0E0"/>
					<stop  offset="1" style="stop-color:#DAD8D8"/>
					<stop  offset="1" style="stop-color:#BFBEBE"/>
				</linearGradient>
				
					<path id="path4457" inkscape:connector-curvature="0" style="fill:url(#path4457_00000093867943176542973220000002584199090560337295_);" d="
					M330.3,494.3c-1.3-0.1-2.4,0.3-3.6,1c-5.2,3.3-20.3,19-24.4,24c0.8,10.5,1.7,17.5,3,27.9c9.7,2.4,20.8,3.4,31.3,2.5
					c10.4-6.9,16.7-15.1,21.4-22c0.4-11-0.3-22.5-3.6-31L330.3,494.3L330.3,494.3z"/>
				
					<linearGradient id="path4471_00000094604735923527602910000013969857261266118326_" gradientUnits="userSpaceOnUse" x1="562.6877" y1="635.37" x2="562.6877" y2="690.506" gradientTransform="matrix(1.0899 0 0 1.1941 -273.4849 -323.1363)">
					<stop  offset="1" style="stop-color:#F1F1F2"/>
					<stop  offset="1" style="stop-color:#F1F1F2"/>
					<stop  offset="1" style="stop-color:#F6F5F7"/>
					<stop  offset="1" style="stop-color:#F6F6F8"/>
				</linearGradient>
				
					<path id="path4471" inkscape:connector-curvature="0" style="fill:url(#path4471_00000094604735923527602910000013969857261266118326_);" d="
					M325.2,437.4c-4.7,6.3-7.7,10.8-11,16.6c-0.9,1.7-1,2.3-0.3,4.1c3.7,9.7,8.5,19.8,13.6,29.1c9.2,2.3,18.7,4.4,27.9,6
					c5.1-8.1,7.8-14.7,10.7-24.3c-3.8-9.6-10.1-19.7-15-27.3c-8.1-3.1-14.9-5.5-22.5-6.2C326.8,435.4,326.4,435.8,325.2,437.4z"/>
				<path id="path4473" inkscape:connector-curvature="0" class="st21" d="M360.5,526.6c-7.5,11.3-15,18.8-24,25.1
					c-2.1,4.7-3.8,7.2-7.3,11.4c13.4-6.7,32.1-16.7,43.2-46.5C367.8,522.1,363.8,524.8,360.5,526.6z"/>
				<path id="path4475" inkscape:connector-curvature="0" class="st21" d="M248.4,545.3c7.6,5.8,17.7,11.5,28,15.1
					c2.3,2.8,7.5,6.1,12.6,8.7c-21.2-2.9-39.5-11.6-53.3-29.7C238.9,542.2,243.5,544.4,248.4,545.3L248.4,545.3z"/>
				<path id="path4477" inkscape:connector-curvature="0" class="st22" d="M228,461.8c-2.8,8.6-4.9,17.9-5.5,27.5
					c-0.9,4.1-2.8,10.2-3,14.3c-3.1-17-0.9-35.6,9.4-54C228.2,453.5,227.9,458.4,228,461.8z"/>
				<path id="path4479" inkscape:connector-curvature="0" class="st23" d="M351.7,438.1c6.4,9.4,12.3,19.5,16.2,30.7
					c3,2.9,5.8,4.8,8.3,10.9c-1.3-18.9-9.7-36.5-28.1-51.6C350,431.6,350.9,434.7,351.7,438.1z"/>
				<path id="path4481" inkscape:connector-curvature="0" class="st24" d="M264.3,501l-24.8,14.3l-1.3-0.5l25.5-14.6L264.3,501
					L264.3,501z"/>
				
					<linearGradient id="path4503_00000096756195030144239200000015846205626007792302_" gradientUnits="userSpaceOnUse" x1="540.105" y1="599.532" x2="540.105" y2="641.5868" gradientTransform="matrix(0.828 0 0 1.5718 -212.4933 -454.3499)">
					<stop  offset="1" style="stop-color:#F7F6F6"/>
					<stop  offset="1" style="stop-color:#D7D6D7"/>
					<stop  offset="1" style="stop-color:#D2D1D1"/>
					<stop  offset="1" style="stop-color:#8C8C8A"/>
					<stop  offset="1" style="stop-color:#838887"/>
					<stop  offset="1" style="stop-color:#8A8A88"/>
					<stop  offset="1" style="stop-color:#727676"/>
					<stop  offset="1" style="stop-color:#7B8180"/>
				</linearGradient>
				
					<path id="path4503" inkscape:connector-curvature="0" style="fill:url(#path4503_00000096756195030144239200000015846205626007792302_);" d="
					M236.3,540.1c-8.7-10.7-14.5-23.6-16.8-37.4c0-0.3,0.1-0.7,0.1-1c0.5-3.4,1.4-6.5,2.2-9.8l1-4l1.5,3.8c2.7,6.7,8.6,13.8,13.6,19
					c1,1,2,2,3,2.9l0.4,0.4v0.5c0.7,10,3.8,19.6,7.6,28.9l1,2.5l-2.6-0.7C243.9,544.3,239.8,542.5,236.3,540.1L236.3,540.1z"/>
				
					<linearGradient id="path4517_00000061443278296063402670000015249325680578921882_" gradientUnits="userSpaceOnUse" x1="538.4619" y1="603.0166" x2="538.4619" y2="640.612" gradientTransform="matrix(0.8304 0 0 1.5672 -213.0556 -452.743)">
					<stop  offset="1" style="stop-color:#101A13"/>
					<stop  offset="1" style="stop-color:#111A13"/>
					<stop  offset="1" style="stop-color:#4E5751"/>
					<stop  offset="1" style="stop-color:#535B55"/>
				</linearGradient>
				
					<path id="path4517" inkscape:connector-curvature="0" style="fill:url(#path4517_00000061443278296063402670000015249325680578921882_);" d="
					M223.1,492.3c-0.7,2.8-2.4,8.4-2.7,15.1c2.2,9.6,6.1,18.6,11.5,26.7l0.3,0.3c2.5,3.5,8.5,7.6,15.6,9.6
					c-3.5-8.7-6.9-18.7-7.7-29.3C232.6,507.7,225.9,499.2,223.1,492.3L223.1,492.3z"/>
				<path id="path4519" inkscape:connector-curvature="0" class="st27" d="M299.3,518c1.7,10.3,3.7,20.6,6,30.9l-0.9,0.1
					c-2.4-10-4.5-20-6.3-30.7L299.3,518L299.3,518z"/>
				<path id="path4521" inkscape:connector-curvature="0" class="st24" d="M325.5,490.5c9.7,1.9,19.4,3.9,29.8,5.8v-1
					c-9.8-2-19.2-3.8-29.5-5.7L325.5,490.5L325.5,490.5z"/>
				<path id="path4523" inkscape:connector-curvature="0" class="st24" d="M252.3,444l17.7,18.6l0.8-0.6l-18-18.7L252.3,444z"/>
				<path id="path4525" inkscape:connector-curvature="0" class="st24" d="M321.6,432.7l-14.5,24.9l-0.9-0.3L321,432L321.6,432.7
					L321.6,432.7z"/>
				
					<linearGradient id="path4545_00000022560656139669570960000014568508707767892651_" gradientUnits="userSpaceOnUse" x1="403.7036" y1="1014.7827" x2="403.7036" y2="1051.7516" gradientTransform="matrix(1.9083 0 0 0.682 -464.1024 -145.1949)">
					<stop  offset="1" style="stop-color:#D7D6D7"/>
					<stop  offset="1" style="stop-color:#D2D1D1"/>
					<stop  offset="1" style="stop-color:#8C8C8A"/>
					<stop  offset="1" style="stop-color:#838887"/>
					<stop  offset="1" style="stop-color:#8A8A88"/>
					<stop  offset="1" style="stop-color:#727676"/>
					<stop  offset="1" style="stop-color:#7B8180"/>
				</linearGradient>
				
					<path id="path4545" inkscape:connector-curvature="0" style="fill:url(#path4545_00000022560656139669570960000014568508707767892651_);" d="
					M329.3,562.7c-10,4.2-20.8,6.3-31.8,6.3c-3.2,0-6.4-0.2-9.6-0.5c-0.8-0.4-1.6-0.8-2.3-1.2c-3-1.6-6-3.7-8.5-6l-1.7-1.6l2.3-0.6
					c5.5-1.5,10.8-3.3,15.9-5.8c3.6-1.8,7-3.8,10.3-6l0.5-0.3l0.6,0.2c9.7,2.8,20.2,3.1,30.2,2.8l2-0.1l-0.7,1.9
					C334.7,556.1,332.3,559.7,329.3,562.7L329.3,562.7z"/>
				<path id="path4547" inkscape:connector-curvature="0" class="st29" d="M278,560.2c1.7,1.6,6.8,6,14.5,8.6
					c1.6,0.1,3.3,0.1,4.9,0.1c9.7,0,19.1-1.6,28-4.8c4.1-3.1,7.4-7.2,9.7-13c-9.4,0.3-20.4,0.1-30.6-2.8
					C298.8,552.1,291.3,556.7,278,560.2z"/>
				
					<linearGradient id="path4569_00000003103585137664764860000018321508282051518358_" gradientUnits="userSpaceOnUse" x1="784.761" y1="548.7173" x2="784.761" y2="585.7697" gradientTransform="matrix(0.6977 0 0 1.8652 -182.1536 -556.26)">
					<stop  offset="1" style="stop-color:#F7F6F6"/>
					<stop  offset="1" style="stop-color:#D7D6D7"/>
					<stop  offset="1" style="stop-color:#D2D1D1"/>
					<stop  offset="1" style="stop-color:#8C8C8A"/>
					<stop  offset="1" style="stop-color:#838887"/>
					<stop  offset="1" style="stop-color:#8A8A88"/>
					<stop  offset="1" style="stop-color:#727676"/>
					<stop  offset="1" style="stop-color:#7B8180"/>
				</linearGradient>
				
					<path id="path4569" inkscape:connector-curvature="0" style="fill:url(#path4569_00000003103585137664764860000018321508282051518358_);" d="
					M376.1,479.5c0.4,3.4,0.6,6.9,0.6,10.2c0,9.5-1.7,18.9-4.9,27.8c-0.9,1.1-1.9,2.1-2.9,3c-2.6,2.5-5.8,4.8-9.1,6.4l-2,0.9
					l0.1-2.2c0.4-10-0.6-19.8-3.7-29.3l-0.2-0.6l0.3-0.5c5.7-9,9.6-17.7,12-28C370.8,470.6,373.9,474.4,376.1,479.5L376.1,479.5z"/>
				
					<linearGradient id="path4583_00000038389707712579597680000010114433380944055701_" gradientUnits="userSpaceOnUse" x1="786.7367" y1="549.2056" x2="786.7367" y2="583.9203" gradientTransform="matrix(0.6965 0 0 1.8686 -181.8577 -557.448)">
					<stop  offset="1" style="stop-color:#101A13"/>
					<stop  offset="1" style="stop-color:#111A13"/>
					<stop  offset="1" style="stop-color:#4E5751"/>
					<stop  offset="1" style="stop-color:#535B55"/>
				</linearGradient>
				
					<path id="path4583" inkscape:connector-curvature="0" style="fill:url(#path4583_00000038389707712579597680000010114433380944055701_);" d="
					M359.3,525.6c3.1-1.4,8.8-5,13.8-11.9c2.4-7.7,3.6-15.8,3.6-24c0-1.8-0.1-3.7-0.2-5.5c-1.9-5.5-5.1-11.9-9.6-15.4
					c-2.1,9.1-5.7,18-11.4,27.1C357.7,502.4,359.8,511.9,359.3,525.6z"/>
				<path id="path4585" inkscape:connector-curvature="0" class="st1" d="M315.8,412.4c12.1,2.8,23.2,8.4,32.6,16.1
					c1.5,4.4,3.4,7.7,3.9,12.6c-10.1-4.9-20-6.7-31-7.9l-0.5-0.1l-0.3-0.4c-2.8-3.9-5.5-6.9-9.5-9.8c-3.7-2.7-6.7-5-10.6-7.4
					C305.1,414.2,309.4,412.8,315.8,412.4L315.8,412.4z"/>
				
					<linearGradient id="path4599_00000019655109584004160820000006537680282833675650_" gradientUnits="userSpaceOnUse" x1="455.7702" y1="730.6512" x2="455.7702" y2="766.889" gradientTransform="matrix(1.5527 0 0 0.8382 -381.2591 -199.4944)">
					<stop  offset="1" style="stop-color:#101A13"/>
					<stop  offset="1" style="stop-color:#111A13"/>
					<stop  offset="1" style="stop-color:#4E5751"/>
					<stop  offset="1" style="stop-color:#535B55"/>
				</linearGradient>
				
					<path id="path4599" inkscape:connector-curvature="0" style="fill:url(#path4599_00000019655109584004160820000006537680282833675650_);" d="
					M351.1,439.6c-0.3-2.6-2.2-7.5-5.4-13.1c-8.2-6.2-17.6-10.8-27.8-13.5c-5.1,0.4-10.9,1.3-16.2,2.8c8,4.9,12.9,7.9,19.7,16.2
					C332.6,433.1,343.3,435.7,351.1,439.6z"/>
				
					<linearGradient id="path4613_00000088848415781501716070000004033595875975513507_" gradientUnits="userSpaceOnUse" x1="509.0209" y1="665.5654" x2="509.0209" y2="729.7331" gradientTransform="matrix(1.1397 0 0 1.1418 -285.1051 -304.9269)">
					<stop  offset="1" style="stop-color:#FFFFFF"/>
					<stop  offset="1" style="stop-color:#FDFDFD"/>
					<stop  offset="1" style="stop-color:#E6E4E4"/>
					<stop  offset="1" style="stop-color:#E5E3E3"/>
				</linearGradient>
				
					<path id="path4613" inkscape:connector-curvature="0" style="fill:url(#path4613_00000088848415781501716070000004033595875975513507_);" d="
					M269.5,461.6l38.8-6.6l18.8,35.2l-28.4,29L263,501L269.5,461.6L269.5,461.6z"/>
				
					<linearGradient id="path4627_00000115494712376835655300000011919966596891165844_" gradientUnits="userSpaceOnUse" x1="508.4619" y1="667.4855" x2="508.4619" y2="728.9047" gradientTransform="matrix(1.142 0 0 1.1396 -285.6084 -304.1933)">
					<stop  offset="1" style="stop-color:#101A13"/>
					<stop  offset="1" style="stop-color:#111A13"/>
					<stop  offset="1" style="stop-color:#3B3E3D"/>
					<stop  offset="1" style="stop-color:#3D3F3E"/>
				</linearGradient>
				
					<path id="path4627" inkscape:connector-curvature="0" style="fill:url(#path4627_00000115494712376835655300000011919966596891165844_);" d="
					M270.7,462.8l-6.4,37.7l34.3,17.4l27.2-27.6l-18.1-33.8L270.7,462.8L270.7,462.8z"/>
				
					<linearGradient id="path4637_00000095332935000001461330000009339745866353912990_" gradientUnits="userSpaceOnUse" x1="456.8485" y1="742.0629" x2="456.8485" y2="787.8877" gradientTransform="matrix(1.403 0 0 0.9275 -346.4215 -230.4879)">
					<stop  offset="0" style="stop-color:#817E7E"/>
					<stop  offset="1" style="stop-color:#161F1A"/>
				</linearGradient>
				
					<path id="path4637" inkscape:connector-curvature="0" style="fill:url(#path4637_00000095332935000001461330000009339745866353912990_);" d="
					M266.4,495c1.6-10.4,3.5-20.8,5.6-31.2c11.9-2.2,23.6-4.2,35.1-6.1c5.6,9.9,11.1,19.8,15.6,29.2c-5.3-8.3-10.1-17.6-15.9-25.4
					c-0.7-0.9-0.9-1.3-2.7-1.2c-8.7,0.5-22.4,3.3-28.9,5.1c-1.8,0.5-2.1,1.4-2.4,2.5C270.6,476.1,268.7,485.2,266.4,495L266.4,495z"
					/>
				<path id="path4639" inkscape:connector-curvature="0" class="st36" d="M297.6,409.4c36.6,0,67.5,24.2,77.1,57.8
					c2,7,2.9,14.8,2.9,22.4c0,22.6-9.3,43.6-24.4,58.2c-14.4,14-34.1,21.9-55.8,21.9c-13.7,0-26.5-3.2-37.8-9.2
					c-25.1-13.5-42.2-40.3-42.2-70.9C217.5,445.5,253.5,409.4,297.6,409.4L297.6,409.4z M297.6,410.6c-43.6,0-79,35.6-79,79.1
					c0,29.2,16,56.1,41.6,69.9c11.5,6.2,24.2,9.1,37.2,9.1c20.5,0,40.2-7.3,55-21.6c15.4-15,24-36,24-57.4c0-7.4-0.9-15-2.9-22.1
					C364,433.7,332.9,410.6,297.6,410.6z"/>
				<path id="path4641" inkscape:connector-curvature="0" class="st37" d="M285.7,564.5c-1.8-1-3.5-2.2-5.3-3.6
					c8.2-3,16.3-6.3,24.5-10.8c8.7,1.6,18.2,2.4,28.8,2c-1,2.4-2.4,4.7-3.9,6.9c1-2.1,1.8-4.1,2.3-5.7c-10.1,0.2-19.1-0.5-26.8-1.3
					c-7.1,3.3-15.3,6.6-23.1,9.2C283,562.5,284.6,563.4,285.7,564.5L285.7,564.5z"/>
				<path id="path4643" inkscape:connector-curvature="0" class="st38" d="M221.8,502.2c0.2-1.7,0.9-4.2,1.6-6.2
					c4.5,7.1,7.5,11.3,15.3,19.5c0.7,5.5,2.2,10.9,3.6,16.3c-2-5.3-3.4-9.8-4.8-15.3c-4.8-5.7-9.7-12.2-14.1-18
					C222.9,499.5,222.2,501.2,221.8,502.2L221.8,502.2z"/>
				<path id="path4645" inkscape:connector-curvature="0" class="st39" d="M368.7,472.3c-2.7,7.2-6,14.7-11.4,23.4
					c1.3,4.8,2.6,9.7,3,16.3c0.3-4.8-0.2-10.4-1.2-16.5c3.7-5.7,7.3-13.3,10-21c2.4,2.2,4.7,5.2,5.9,8.4
					C374,478.8,372,475.3,368.7,472.3L368.7,472.3z"/>
			</g>
			<g id="g6248">
				<path id="path4737" inkscape:connector-curvature="0" class="st40" d="M704.3,827.7l5.1-17.6l4.4,1.4l-0.2,0.6
					c-0.3,1.1-0.6,2.1-1,3.2c-0.2,0.7-0.5,1.5-0.7,2.2c1.5,0.4,3,0.9,4.4,1.4c2,0.7,3.9,1.3,5.9,2c1.7,0.6,3.4,1.1,5.1,1.6l0.6,0.2
					l-1.7,5.9l-0.7-0.3c-1.9-0.7-3.7-1.4-5.6-2.1c-1.6-0.6-3.3-1.2-4.9-1.7c-1.6-0.5-3.2-1-4.8-1.5c-0.3,1.2-0.7,2.4-1,3.6
					c-0.1,0.6-0.3,1.2-0.4,1.8l-0.2,0.7L704.3,827.7l3.9,2.2l-0.4,0.6c-0.4,0.6-0.8,1.4-1.1,2c-0.4,0.8-0.8,1.6-1.2,2.4l-1.9,3.8
					l3.4,1.9l1.8-3.7c0.3-0.7,0.7-1.4,1-2.1c0.2-0.5,0.5-1,0.7-1.5l0.3-0.8l3.9,2.2l-3.9,7.9l3.7,2l2.2-4.6c0.3-0.6,0.6-1.3,0.9-1.9
					c0.3-0.6,0.6-1.3,0.8-2l0.3-0.7l4.2,2.3l-7,14.3l-0.6-0.3c-2.1-1-4.1-2.1-6.1-3.2c-2.1-1.2-4.3-2.4-6.4-3.6
					c-1.7-0.9-3.4-1.9-5.1-2.7l-0.6-0.3l7.1-14.4L704.3,827.7L704.3,827.7z M659,881.7L659,881.7l14.8-10.9l2.6,3.9l-0.5,0.4
					c-0.9,0.7-1.8,1.3-2.7,1.9c-0.6,0.4-1.3,0.9-1.9,1.3c0.9,1.3,1.8,2.5,2.6,3.8c1.1,1.7,2.3,3.5,3.4,5.2c1,1.5,2,3,3,4.4l0.4,0.5
					l-4.9,3.6l-0.4-0.6c-1-1.7-2.1-3.4-3.1-5.1c-0.9-1.5-1.9-2.9-2.8-4.4c-0.9-1.4-1.9-2.8-2.8-4.1c-1,0.7-2,1.5-3,2.2
					c-0.5,0.4-1,0.8-1.5,1.2l-0.6,0.5l-2.4-3.6l0.2,0.5c1.2,3.4,2.4,6.7,3.7,10.1c1.1,2.9,2.2,5.8,3.5,8.6l0.3,0.6l-5.8,2.6
					l-13.2-8.8c0.4,0.9,0.7,1.8,1.1,2.7c0.8,1.9,1.5,3.8,2.3,5.7c0.5,1.2,0.9,2.4,1.5,3.5l0.3,0.6l-5,2.2l-0.3-0.6
					c-0.9-2.1-1.8-4.3-2.7-6.4c-0.9-2.3-1.8-4.6-2.6-6.9c-0.7-1.8-1.4-3.6-2.2-5.3l-0.3-0.6l6-2.7l0.3,0.2c1.6,1.2,3.2,2.3,4.8,3.4
					c1.7,1.1,3.3,2.2,4.9,3.3c1,0.7,2,1.3,3,2c-0.3-0.8-0.6-1.6-0.9-2.4c-0.7-1.9-1.5-3.7-2.2-5.6c-0.5-1.3-1-2.7-1.6-4L654,884
					L659,881.7L659,881.7z M622.1,894.6l15.3-3.8l0.9,4.7l-0.7,0.1c-0.7,0.1-1.6,0.3-2.3,0.4c-0.9,0.2-1.7,0.4-2.6,0.6l-4.1,1
					l0.7,3.8l4-1c0.7-0.2,1.5-0.4,2.2-0.6c0.5-0.1,1.1-0.3,1.6-0.5l0.7-0.3l0.8,4.4l-8.5,2.1l0.9,4.1l5-1.2c0.7-0.2,1.3-0.3,2-0.5
					s1.4-0.4,2-0.7l0.7-0.3l0.9,4.7l-15.5,3.9l-0.2-0.6c-0.6-2.2-1-4.5-1.5-6.8c-0.5-2.4-0.9-4.8-1.4-7.2c-0.3-1.5-0.6-3.1-0.9-4.6
					c-1,2-1.9,4-2.9,5.9c-1.1,2.3-2.1,4.5-3.2,6.8c-1,2.3-2,4.5-3,6.8l-0.2,0.4l-6.2,0.2l-0.2-0.5c-1.2-3.3-2.5-6.6-3.8-9.9
					c-1.3-3.3-2.6-6.6-3.9-9.9l-0.4-0.9l6.2-0.2l0.2,0.5c0.6,1.8,1.2,3.6,1.9,5.4c0.7,1.8,1.3,3.5,2,5.3c0.5,1.2,0.9,2.5,1.3,3.7
					c0.6-1.3,1.1-2.6,1.7-3.9c0.8-1.8,1.7-3.7,2.5-5.5s1.6-3.7,2.3-5.6l0.2-0.4L622.1,894.6L622.1,894.6z M507,827.4l-4.8,1.3
					l0.1-0.9c0.1-0.8,0.1-1.7,0.1-2.5c0-0.7-0.1-1.4-0.3-2.1c-0.4-1.9-1.3-3.6-3-4.8c-1.6-1.1-3.5-1.3-5.4-0.9
					c-1.7,0.4-3.2,1.1-4,2.7c-0.9,1.5-0.9,3.3-0.5,5c0.2,0.7,0.4,1.4,0.6,2c0.3,0.9,0.9,1.9,1.3,2.7l0.5,0.9l-5.1,0.3l-0.2-0.4
					c-0.4-0.9-0.7-1.8-1-2.7s-0.5-1.7-0.7-2.6c-0.6-2.9-0.6-5.8,0.7-8.5c1.4-2.8,3.9-4.5,6.9-5.1c3.3-0.7,6.5-0.4,9.3,1.6
					c2.7,2,4.2,4.9,4.9,8.2c0.2,0.8,0.3,1.7,0.4,2.5c0.1,0.9,0.1,1.9,0.2,2.8V827.4z M513.4,838.6c1.4,2.7,2,5.6,1.3,8.6
					c-0.7,3.1-2.8,5.2-5.5,6.6c-3,1.5-6.1,2-9.2,0.8c-3-1.2-5.1-3.7-6.6-6.6c-1.3-2.6-2.1-5.6-1.5-8.5c0.6-3.1,2.6-5.3,5.4-6.7
					c3-1.5,6.2-2,9.4-0.8C509.8,833.1,511.9,835.6,513.4,838.6L513.4,838.6z M509.3,840.5c-0.8-1.7-2.1-2.9-3.9-3.4
					s-3.6-0.1-5.3,0.7c-1.5,0.8-2.7,1.9-3.2,3.5s-0.2,3.3,0.6,4.8c0.8,1.6,2,2.8,3.8,3.3s3.6,0.1,5.2-0.8c1.5-0.8,2.7-1.9,3.3-3.5
					C510.4,843.5,510.1,842,509.3,840.5L509.3,840.5z M518.7,870.3c0.7-0.5,1.3-1.1,2-1.6c1.6-1.2,3.1-2.5,4.7-3.7
					c1.1-0.9,2.3-1.8,3.4-2.7l0.5-0.4l3.6,4.2l-0.6,0.4c-2.9,2.1-5.8,4.3-8.6,6.5c-2.4,1.9-4.9,3.8-7.2,5.8l-0.5,0.4l-4.2-4.8
					l4.7-15.2c-0.7,0.6-1.5,1.2-2.2,1.8c-1.6,1.3-3.2,2.5-4.8,3.8c-1,0.8-2,1.6-3,2.4l-0.5,0.4l-3.5-4.1l0.5-0.4
					c1.8-1.5,3.6-3,5.4-4.4c1.9-1.5,3.9-3,5.8-4.5c1.5-1.2,3-2.4,4.5-3.6l0.5-0.4l4.3,5l-0.1,0.4c-0.7,1.8-1.3,3.7-1.9,5.6
					c-0.6,1.9-1.2,3.8-1.8,5.7C519.4,868,519,869.2,518.7,870.3L518.7,870.3z M539.6,877.2c-1,1.2-2,2.4-3,3.5
					c-1.4,1.5-2.8,3.1-4.1,4.6c-1.2,1.3-2.4,2.7-3.5,4.1l-0.4,0.5l-4.7-3.8l0.5-0.5c1.4-1.4,2.8-2.9,4.1-4.3
					c1.2-1.3,2.3-2.5,3.5-3.8c1.1-1.2,2.2-2.5,3.2-3.8c-1-0.8-2-1.6-2.9-2.3c-0.5-0.4-1-0.7-1.5-1.1l-0.6-0.4l3.1-3.5l14.3,11.6
					l-3.1,3.5l-0.5-0.4c-0.9-0.7-1.7-1.4-2.5-2.1C540.8,878.2,540.2,877.7,539.6,877.2L539.6,877.2z M552.4,894.3l-0.2,10.7
					l-5.6-3.2l0.1-0.5c0.3-2,0.5-4,0.6-6c0.1-1.6,0.2-3.3,0.3-4.9c-0.9,1.4-1.7,2.8-2.6,4.2c-0.9,1.4-1.7,2.7-2.5,4.1l-0.3,0.6
					l-5.3-3l0.3-0.6c1.1-2,2.3-4,3.6-6c1.3-2.1,2.6-4.2,4-6.2c1-1.6,2.1-3.2,3-4.9l0.3-0.6l8.5,4.8c1.5,0.8,2.9,2,3.7,3.5
					c0.9,1.7,0.7,3.4-0.2,5c-0.8,1.5-2.1,2.6-3.7,3.1C555,894.7,553.6,894.6,552.4,894.3z M548.6,888.7L548.6,888.7
					c0.5,0.5,1,0.8,1.5,1.1c0.8,0.5,1.8,0.8,2.7,0.7s1.6-0.6,2-1.4c0.3-0.4,0.4-0.9,0.2-1.4c-0.3-0.8-1.4-1.5-2.1-1.9
					c-0.6-0.4-1.3-0.7-1.9-1C550.2,886.1,549.4,887.4,548.6,888.7z M568.7,893.3l-1.5,3.6l3.9,1.4c0.7,0.3,1.4,0.5,2.1,0.7
					c0.5,0.2,1.1,0.4,1.6,0.5l0.8,0.2l-1.8,4.1l-8.2-3l-1.6,3.9l4.8,1.7c0.7,0.2,1.3,0.5,2,0.7s1.4,0.4,2,0.6l0.8,0.2l-1.9,4.4
					l-15-5.5l0.2-0.6c0.8-2.2,1.7-4.3,2.6-6.5c1-2.3,1.9-4.5,2.9-6.8c0.8-1.8,1.5-3.5,2.2-5.3l0.2-0.6l15.1,5.5L578,897l-0.7-0.4
					c-0.6-0.3-1.5-0.7-2.1-0.9c-0.8-0.3-1.7-0.7-2.5-1L568.7,893.3L568.7,893.3z M683.7,861.5l3.8,3.3l-0.9,0.4
					c-0.7,0.3-1.3,0.6-1.9,1c-0.6,0.3-1.1,0.7-1.5,1.2c-0.5,0.5-0.9,1.1-1.1,1.7c-0.1,0.5-0.1,0.9,0.3,1.2c0.6,0.6,2.2,0.5,2.9,0.5
					c1.6-0.1,3.2-0.3,4.8-0.4l0,0l0,0c1.7,0,3.5,0.4,4.7,1.7c1.1,1.1,1.6,2.5,1.6,4.1c-0.1,2.3-1.4,4.2-3,5.8
					c-0.6,0.6-1.3,1.2-2,1.7c-0.9,0.6-1.8,1.2-2.7,1.7l-0.4,0.3l-4.1-3.5l1.1-0.4c0.9-0.3,1.7-0.7,2.5-1.1c0.7-0.4,1.4-0.9,2-1.5
					c0.5-0.4,0.9-1,1-1.6c0.2-0.5,0.1-1-0.3-1.4c-0.6-0.6-2.2-0.6-3-0.5c-1.2,0.1-2.4,0.2-3.6,0.3c-0.4,0-0.9,0.1-1.3,0.1
					c-1.7,0-3.6-0.5-4.8-1.8c-1.3-1.4-1.8-3-1.3-4.9c0.4-1.8,1.5-3.3,2.8-4.6c0.6-0.6,1.2-1.1,1.9-1.6s1.3-1,2-1.4L683.7,861.5
					L683.7,861.5z"/>
				<path id="path4651" inkscape:connector-curvature="0" class="st0" d="M731.8,764.9l-0.7-0.4c-3.3-1.8-6.6-3.5-9.9-5.2
					c-3.4-1.7-6.7-3.4-10.1-5l-0.4-0.2v-6.4l0.4-0.2c2.3-0.8,4.5-1.6,6.8-2.4c2.3-0.8,4.5-1.7,6.8-2.6c2.2-0.8,4.4-1.7,6.5-2.6
					l0.9-0.4v6.3l-0.5,0.1c-1.2,0.4-2.4,0.7-3.6,1.2c-1,0.3-2,0.7-3,1.1v6.9c1,0.5,2,1,3,1.5c1.2,0.5,2.3,1.1,3.5,1.5l0.4,0.2V770
					h-0.7c-1.7,0-3.3,0-5,0c-2.4-0.1-4.8-0.1-7.2-0.1l12.9,4.7v5l-10.7,3.2c-0.8,0.2-1.5,0.5-2.3,0.7c1.5,0.1,2.9,0.2,4.4,0.3
					c2.6,0.2,5.3,0.3,7.9,0.2h0.7v5.3l-0.7-0.1c-2.5-0.3-4.9-0.5-7.4-0.6c-2.7-0.2-5.5-0.4-8.2-0.5c-1.5-0.1-3-0.2-4.4-0.2h-0.6
					v-7.1l0.5-0.1c0.7-0.1,1.5-0.3,2.2-0.5c1.2-0.4,2.4-0.8,3.7-1.2c1.5-0.5,2.9-0.9,4.4-1.4c0.8-0.2,1.5-0.4,2.3-0.7
					c-1.1-0.4-2.3-0.8-3.4-1.3c-1.1-0.4-2.2-0.9-3.3-1.3c-1-0.4-2-0.8-3-1.2c-0.9-0.4-1.9-0.7-2.9-1l-0.5-0.1v-7.2h0.7
					c2,0,3.9,0,5.9,0c2.3,0,4.7,0.1,7,0.1c2.4,0,4.8,0,7.2,0H731.8L731.8,764.9z M720.5,753.3v-3.6l-4.3,1.6L720.5,753.3
					L720.5,753.3z M722.7,726.4l9.4-5.2v6.4l-0.4,0.2c-1.9,0.7-3.7,1.6-5.6,2.5c-1.5,0.8-3,1.5-4.4,2.3c1.6,0.1,3.3,0.1,4.9,0.2
					c1.6,0.1,3.2,0.1,4.8,0.1h0.7v6.1h-0.7c-2.3,0-4.6,0-6.9-0.1c-2.5-0.1-4.9-0.2-7.4-0.3c-1.9-0.1-3.8-0.2-5.8-0.1h-0.7v-9.8
					c0-1.7,0.3-3.5,1.2-5c1-1.6,2.6-2.3,4.5-2.3c1.7,0,3.3,0.5,4.5,1.7C721.8,724,722.3,725.2,722.7,726.4L722.7,726.4z
					 M719.6,732.5L719.6,732.5c0.1-0.6,0.2-1.2,0.2-1.8c0-0.9-0.2-1.9-0.7-2.7s-1.3-1.1-2.2-1c-0.5,0-1,0.1-1.3,0.5
					c-0.5,0.7-0.6,2-0.6,2.8c0,0.7,0,1.4,0.1,2.2C716.6,732.4,718.1,732.5,719.6,732.5L719.6,732.5z M715.2,712.1l3.9,0.1v-4.1
					c0-0.8,0-1.5,0-2.3c0-0.5,0-1.1-0.1-1.7l-0.1-0.8l4.5,0.2v8.8l4.2,0.1v-5.1c0-0.7,0-1.4,0-2.1c0-0.7-0.1-1.4-0.1-2.1l-0.1-0.8
					l4.8,0.2v15.9h-0.7c-2.3,0-4.6,0-6.9-0.1c-2.5-0.1-4.9-0.2-7.4-0.3c-1.9-0.1-3.8-0.2-5.8-0.1h-0.7v-16.1l4.8,0.2l-0.1,0.7
					c-0.1,0.7-0.1,1.6-0.1,2.3c0,0.9,0,1.8,0,2.7L715.2,712.1L715.2,712.1z M715.2,692.4l3.9,0.1v-4.1c0-0.8,0-1.5,0-2.3
					c0-0.5,0-1.1-0.1-1.7l-0.1-0.8l4.5,0.2v8.8l4.2,0.1v-5.1c0-0.7,0-1.4,0-2.1c0-0.7-0.1-1.4-0.1-2.1l-0.1-0.8l4.8,0.2v15.9h-0.7
					c-2.3,0-4.6,0-6.9-0.1c-2.5-0.1-4.9-0.2-7.4-0.3c-1.9-0.1-3.8-0.2-5.8-0.1h-0.7v-16.1l4.8,0.2l-0.1,0.7
					c-0.1,0.7-0.1,1.6-0.1,2.3c0,0.9,0,1.8,0,2.7v4.4H715.2z M711,666.7l5.1-0.5l-0.3,1c-0.2,0.7-0.4,1.4-0.6,2.1
					c-0.1,0.6-0.2,1.3-0.2,1.9c0,0.7,0.1,1.4,0.5,2c0.3,0.4,0.6,0.6,1.1,0.6c0.8,0,1.9-1.2,2.4-1.8c1-1.3,2-2.5,3-3.8l0,0l0,0
					c1.2-1.3,2.7-2.3,4.5-2.3c1.6,0,2.9,0.5,4,1.6c1.6,1.6,2.1,3.9,2.1,6.2c0,0.9,0,1.8-0.2,2.7c-0.2,1.1-0.4,2.1-0.6,3.2l-0.1,0.5
					l-5.4,0.6l0.5-1.1c0.4-0.8,0.7-1.7,0.9-2.6c0.2-0.8,0.3-1.6,0.3-2.5c0-0.6-0.1-1.3-0.4-1.8c-0.3-0.5-0.6-0.8-1.2-0.8
					c-0.9,0-1.9,1.2-2.4,1.8c-0.8,0.9-1.5,1.9-2.3,2.8c-0.3,0.3-0.6,0.7-0.9,1c-1.2,1.2-2.8,2.3-4.6,2.3c-1.9,0-3.4-0.8-4.5-2.4
					c-1-1.5-1.4-3.4-1.4-5.2c0-0.8,0.1-1.6,0.2-2.4c0.1-0.8,0.2-1.6,0.4-2.5L711,666.7L711,666.7z"/>
				
					<linearGradient id="path4665_00000051366758903704187740000009455678503865084591_" gradientUnits="userSpaceOnUse" x1="1238.5199" y1="668.5786" x2="1238.5199" y2="690.2008" gradientTransform="matrix(1.0588 0 0 1.2291 -589.8782 -56.3685)">
					<stop  offset="1" style="stop-color:#979897"/>
					<stop  offset="1" style="stop-color:#969796"/>
					<stop  offset="1" style="stop-color:#646B65"/>
					<stop  offset="1" style="stop-color:#626963"/>
				</linearGradient>
				
					<path id="path4665" inkscape:connector-curvature="0" style="fill:url(#path4665_00000051366758903704187740000009455678503865084591_);" d="
					M731.4,775.2v4.1l-10.3,3c-1.9,0.6-3.7,1.2-5.6,1.7c3,0.3,5.6,0.5,7.9,0.6c3,0.2,5.7,0.2,8,0.2v3.9c-1.7-0.2-4.2-0.4-7.4-0.6
					c-3.2-0.2-6-0.4-8.2-0.5c-1.5-0.1-3-0.2-4.4-0.2v-5.9c0.8-0.2,1.6-0.3,2.3-0.5c0.3-0.1,1.5-0.5,3.7-1.2c1.3-0.4,2.8-0.9,4.4-1.4
					c1.9-0.6,3.4-1,4.3-1.2c-2.4-0.9-4.2-1.5-5.4-2c-0.8-0.3-1.9-0.7-3.3-1.3c-1-0.4-2-0.8-3-1.2s-2-0.7-2.9-1v-6.1
					c1.8,0,3.8,0,5.8,0s4.4,0.1,7,0.1s5,0,7.2,0v4c-1.2,0-2.9,0-5,0c-4.8-0.1-7.9-0.2-9.3-0.1h-1.6L731.4,775.2L731.4,775.2z"/>
				
					<linearGradient id="path4679_00000094578001173589733060000011078698275262913682_" gradientUnits="userSpaceOnUse" x1="1238.5515" y1="648.2978" x2="1238.5515" y2="669.9264" gradientTransform="matrix(1.0585 0 0 1.2296 -589.6148 -56.5678)">
					<stop  offset="1" style="stop-color:#979897"/>
					<stop  offset="1" style="stop-color:#969796"/>
					<stop  offset="1" style="stop-color:#646B65"/>
					<stop  offset="1" style="stop-color:#626963"/>
				</linearGradient>
				
					<path id="path4679" inkscape:connector-curvature="0" style="fill:url(#path4679_00000094578001173589733060000011078698275262913682_);" d="
					M724.4,747.9v7.8c1.3,0.7,2.5,1.2,3.4,1.7c1.3,0.6,2.4,1.1,3.6,1.6v5c-3-1.6-6.3-3.4-10-5.2c-3.2-1.6-6.5-3.3-10.1-5v-5.5
					c2.5-0.9,4.7-1.7,6.8-2.5c2.5-0.9,4.8-1.8,6.8-2.6c1.5-0.6,3.7-1.5,6.5-2.6v4.8c-1.2,0.4-2.4,0.8-3.6,1.2
					C727.3,746.8,726.1,747.2,724.4,747.9z M721.2,754.4v-5.6l-6.7,2.4L721.2,754.4L721.2,754.4z"/>
				
					<linearGradient id="path4693_00000054254815771754806680000017652514666995894421_" gradientUnits="userSpaceOnUse" x1="1171.2147" y1="685.7941" x2="1171.2147" y2="703.8577" gradientTransform="matrix(1.2673 0 0 1.0269 -762.9016 17.8127)">
					<stop  offset="1" style="stop-color:#979897"/>
					<stop  offset="1" style="stop-color:#969796"/>
					<stop  offset="1" style="stop-color:#646B65"/>
					<stop  offset="1" style="stop-color:#626963"/>
				</linearGradient>
				
					<path id="path4693" inkscape:connector-curvature="0" style="fill:url(#path4693_00000054254815771754806680000017652514666995894421_);" d="
					M722.2,727.5l9.2-5.1v4.9c-1.7,0.7-3.6,1.5-5.6,2.5c-1.8,0.9-3.7,1.9-5.5,2.8c0.1-0.5,0.2-1.1,0.2-1.8c0-1.3-0.3-2.3-0.8-3.1
					c-0.6-0.9-1.5-1.3-2.8-1.3c-0.8,0-1.4,0.3-1.9,0.8c-0.5,0.6-0.8,1.7-0.8,3.2c0,1.1,0.1,2.1,0.2,2.8c1.6,0,3.4,0,5.5,0.1
					s4.3,0.1,6.6,0.2c2.3,0.1,3.9,0.1,4.9,0.1v4.7c-2.1,0-4.4,0-6.9-0.1s-5-0.2-7.4-0.3s-4.3-0.1-5.8-0.1v-9.1c0-2,0.4-3.5,1.1-4.6
					c0.9-1.3,2.2-2,3.9-2s3,0.5,4,1.5C721.3,724.4,721.9,725.8,722.2,727.5L722.2,727.5z"/>
				
					<linearGradient id="path4707_00000170252105386302399390000000005250521158555046_" gradientUnits="userSpaceOnUse" x1="1160.3607" y1="676.7901" x2="1160.3607" y2="694.2762" gradientTransform="matrix(1.3091 0 0 0.9941 -797.6296 29.8118)">
					<stop  offset="1" style="stop-color:#979897"/>
					<stop  offset="1" style="stop-color:#969796"/>
					<stop  offset="1" style="stop-color:#646B65"/>
					<stop  offset="1" style="stop-color:#626963"/>
				</linearGradient>
				
					<path id="path4707" inkscape:connector-curvature="0" style="fill:url(#path4707_00000170252105386302399390000000005250521158555046_);" d="
					M711.3,717.3v-14.7l3.4,0.1c-0.1,0.4-0.1,1.2-0.1,2.4c0,1.3,0,2.2,0,2.7v4.9l5.3,0.2v-4.8c0-0.7,0-1.5,0-2.3s-0.1-1.4-0.1-1.7
					l3.1,0.1v8.8l5.5,0.1v-5.8c0-0.8,0-1.5,0-2.1c0-0.7-0.1-1.4-0.2-2.2l3.4,0.1v14.6c-2.1,0-4.4,0-6.9-0.1s-5-0.2-7.4-0.3
					C714.8,717.3,712.8,717.3,711.3,717.3L711.3,717.3z"/>
				
					<linearGradient id="path4721_00000123417625265174277360000014635671500629192357_" gradientUnits="userSpaceOnUse" x1="1160.3607" y1="656.9619" x2="1160.3607" y2="674.4481" gradientTransform="matrix(1.3091 0 0 0.9941 -797.6296 29.8118)">
					<stop  offset="1" style="stop-color:#979897"/>
					<stop  offset="1" style="stop-color:#969796"/>
					<stop  offset="1" style="stop-color:#646B65"/>
					<stop  offset="1" style="stop-color:#626963"/>
				</linearGradient>
				
					<path id="path4721" inkscape:connector-curvature="0" style="fill:url(#path4721_00000123417625265174277360000014635671500629192357_);" d="
					M711.3,697.6v-14.7l3.4,0.1c-0.1,0.4-0.1,1.2-0.1,2.4c0,1.3,0,2.2,0,2.7v4.9l5.3,0.2v-4.8c0-0.7,0-1.5,0-2.3s-0.1-1.4-0.1-1.7
					l3.1,0.1v8.8l5.5,0.1v-5.8c0-0.8,0-1.5,0-2.1c0-0.7-0.1-1.4-0.2-2.2l3.4,0.1V698c-2.1,0-4.4,0-6.9-0.1s-5-0.2-7.4-0.3
					C714.8,697.6,712.8,697.6,711.3,697.6L711.3,697.6z"/>
				
					<linearGradient id="path4735_00000048469908107399150930000011662732132809905545_" gradientUnits="userSpaceOnUse" x1="1131.5378" y1="666.4871" x2="1131.5378" y2="683.035" gradientTransform="matrix(1.4337 0 0 0.9078 -900.9157 61.4621)">
					<stop  offset="1" style="stop-color:#979897"/>
					<stop  offset="1" style="stop-color:#969796"/>
					<stop  offset="1" style="stop-color:#646B65"/>
					<stop  offset="1" style="stop-color:#626963"/>
				</linearGradient>
				
					<path id="path4735" inkscape:connector-curvature="0" style="fill:url(#path4735_00000048469908107399150930000011662732132809905545_);" d="
					M711.5,667.3l3.5-0.4c-0.2,0.7-0.5,1.4-0.6,2.1c-0.2,0.7-0.3,1.4-0.3,2.1c0,0.9,0.2,1.7,0.6,2.3c0.4,0.6,1,0.9,1.6,0.9
					c0.8,0,1.8-0.7,2.9-2.1c1-1.3,2-2.5,3-3.8c1.3-1.4,2.7-2.1,4-2.1c1.4,0,2.6,0.4,3.6,1.4c1.3,1.3,1.9,3.2,1.9,5.7
					c0,1-0.1,1.8-0.2,2.6c-0.1,0.8-0.3,1.8-0.6,3.1l-3.7,0.4c0.4-0.9,0.7-1.8,1-2.7c0.2-0.9,0.3-1.8,0.3-2.6c0-0.9-0.2-1.6-0.5-2.2
					c-0.4-0.7-1-1.1-1.8-1.1s-1.8,0.7-2.9,2.1c-2,2.5-3.1,3.7-3.1,3.8c-1.4,1.4-2.8,2.1-4.1,2.1c-1.7,0-3-0.7-3.9-2.1
					c-0.8-1.3-1.2-2.9-1.2-4.8c0-0.8,0.1-1.5,0.2-2.4C711.2,668.9,711.4,668.1,711.5,667.3z"/>
				
					<linearGradient id="path4752_00000103237925542047747730000013675884926767299200_" gradientUnits="userSpaceOnUse" x1="997.5591" y1="762.5441" x2="997.5591" y2="782.3951" gradientTransform="matrix(1.233 0 0 1.0555 -734.4319 7.2936)">
					<stop  offset="1" style="stop-color:#979897"/>
					<stop  offset="1" style="stop-color:#969796"/>
					<stop  offset="1" style="stop-color:#646B65"/>
					<stop  offset="1" style="stop-color:#626963"/>
				</linearGradient>
				
					<path id="path4752" inkscape:connector-curvature="0" style="fill:url(#path4752_00000103237925542047747730000013675884926767299200_);" d="
					M506.3,826.9l-3.3,0.9c0.1-1,0.1-1.9,0.1-2.6c0-0.7-0.1-1.5-0.3-2.2c-0.5-2.3-1.6-4-3.3-5.2c-1.7-1.2-3.6-1.5-5.9-1
					c-2.1,0.5-3.6,1.5-4.5,3s-1.1,3.3-0.6,5.5c0.2,0.7,0.4,1.4,0.6,2.1c0.3,0.7,0.7,1.6,1.4,2.8l-3.6,0.2c-0.4-1-0.7-1.9-1-2.6
					c-0.3-0.7-0.5-1.6-0.7-2.5c-0.7-3.1-0.5-5.8,0.7-8.1c1.2-2.5,3.4-4.1,6.5-4.8c3.4-0.8,6.3-0.3,8.8,1.5c2.3,1.7,3.8,4.3,4.6,7.8
					c0.2,0.8,0.3,1.6,0.4,2.4C506.2,824.9,506.3,825.9,506.3,826.9L506.3,826.9z"/>
				
					<linearGradient id="path4766_00000155148177216962654460000017804602116426421153_" gradientUnits="userSpaceOnUse" x1="1020.7419" y1="744.58" x2="1020.7419" y2="766.963" gradientTransform="matrix(1.124 0 0 1.1578 -644.0295 -30.2267)">
					<stop  offset="1" style="stop-color:#979897"/>
					<stop  offset="1" style="stop-color:#969796"/>
					<stop  offset="1" style="stop-color:#646B65"/>
					<stop  offset="1" style="stop-color:#626963"/>
				</linearGradient>
				
					<path id="path4766" inkscape:connector-curvature="0" style="fill:url(#path4766_00000155148177216962654460000017804602116426421153_);" d="
					M512.8,838.9c1.5,2.9,1.9,5.6,1.3,8.1c-0.6,2.7-2.4,4.7-5.2,6.2c-3.1,1.6-6,1.8-8.7,0.7c-2.6-1-4.7-3.1-6.3-6.3
					c-1.5-2.9-1.9-5.6-1.4-8.1c0.6-2.8,2.3-4.8,5-6.3c3.1-1.6,6.1-1.8,8.9-0.7C509,833.6,511.2,835.7,512.8,838.9z M509.9,840.2
					c-1-2-2.4-3.2-4.3-3.7s-3.8-0.3-5.8,0.8c-1.8,0.9-3,2.2-3.6,3.9s-0.3,3.4,0.6,5.3c1,1.9,2.4,3.1,4.2,3.6
					c1.8,0.5,3.7,0.2,5.7-0.8c1.8-0.9,3-2.2,3.6-3.8C511,843.7,510.8,842,509.9,840.2L509.9,840.2z"/>
				
					<linearGradient id="path4780_00000019676747138727112850000017207653657868849282_" gradientUnits="userSpaceOnUse" x1="1025.6127" y1="777.0395" x2="1025.6127" y2="804.8645" gradientTransform="matrix(1.1689 0 0 1.1134 -681.2443 -13.929)">
					<stop  offset="1" style="stop-color:#979897"/>
					<stop  offset="1" style="stop-color:#969796"/>
					<stop  offset="1" style="stop-color:#646B65"/>
					<stop  offset="1" style="stop-color:#626963"/>
				</linearGradient>
				
					<path id="path4780" inkscape:connector-curvature="0" style="fill:url(#path4780_00000019676747138727112850000017207653657868849282_);" d="
					M512.6,874.3l5.2-16.8l-0.1-0.1c-1.1,1-2.4,2-3.8,3.2c-1.4,1.1-3,2.4-4.8,3.8c-1.8,1.4-2.8,2.2-3,2.4l-2.7-3.1
					c1.6-1.4,3.4-2.8,5.4-4.4c2-1.5,3.9-3,5.8-4.5s3.4-2.7,4.5-3.6l3.6,4.2c-0.6,1.8-1.3,3.6-1.9,5.6c-0.1,0.3-0.7,2.2-1.8,5.7
					c-0.8,2.7-1.4,4.6-1.8,5.6c0.9-0.8,2.2-1.8,3.8-3s3.1-2.5,4.7-3.7c1.6-1.2,2.7-2.1,3.4-2.7l2.7,3.2c-2.6,1.9-5.4,4-8.6,6.5
					c-3.2,2.5-5.6,4.4-7.2,5.8L512.6,874.3L512.6,874.3z"/>
				
					<linearGradient id="path4794_00000105426802550771176980000004814350961909106048_" gradientUnits="userSpaceOnUse" x1="1046.9329" y1="779.813" x2="1046.9329" y2="801.6395" gradientTransform="matrix(1.1373 0 0 1.1443 -655.0167 -25.3078)">
					<stop  offset="1" style="stop-color:#979897"/>
					<stop  offset="1" style="stop-color:#969796"/>
					<stop  offset="1" style="stop-color:#646B65"/>
					<stop  offset="1" style="stop-color:#626963"/>
				</linearGradient>
				
					<path id="path4794" inkscape:connector-curvature="0" style="fill:url(#path4794_00000105426802550771176980000004814350961909106048_);" d="
					M533.2,867.1l13.3,10.7l-2.2,2.5c-0.6-0.5-1.4-1.2-2.5-2.1c-1.1-0.9-1.9-1.6-2.3-1.9c-1,1.2-2.1,2.6-3.4,4
					c-1.3,1.4-2.7,3-4.1,4.6c-1.5,1.6-2.6,3-3.5,4.1l-3.7-3c1.6-1.7,3-3.1,4.1-4.4c1.1-1.2,2.3-2.5,3.5-3.9s2.4-2.8,3.7-4.4
					c-1.7-1.4-2.9-2.3-3.5-2.8s-1.1-0.8-1.5-1.1L533.2,867.1L533.2,867.1z"/>
				
					<linearGradient id="path4808_00000142870735417130916660000004183431734340527002_" gradientUnits="userSpaceOnUse" x1="1070.0696" y1="770.2187" x2="1070.0696" y2="793.8479" gradientTransform="matrix(1.0836 0 0 1.2011 -610.457 -46.1116)">
					<stop  offset="1" style="stop-color:#979897"/>
					<stop  offset="1" style="stop-color:#969796"/>
					<stop  offset="1" style="stop-color:#646B65"/>
					<stop  offset="1" style="stop-color:#626963"/>
				</linearGradient>
				
					<path id="path4808" inkscape:connector-curvature="0" style="fill:url(#path4808_00000142870735417130916660000004183431734340527002_);" d="
					M551.7,893.4l-0.1,10.4l-4.2-2.4c0.3-1.8,0.5-3.8,0.6-6.1c0.1-2,0.2-4.1,0.3-6.1c0.4,0.4,0.9,0.7,1.5,1c1.1,0.6,2.2,0.9,3.1,0.8
					c1.1-0.1,2-0.7,2.5-1.7c0.4-0.7,0.5-1.4,0.2-2c-0.3-0.7-1.1-1.5-2.4-2.2c-1-0.5-1.8-1-2.5-1.3c-0.8,1.4-1.7,3-2.8,4.7
					c-1.1,1.8-2.3,3.6-3.5,5.6c-1.2,1.9-2.1,3.3-2.5,4.2l-4.1-2.3c1-1.8,2.2-3.8,3.6-5.9c1.3-2.1,2.7-4.2,4-6.2s2.3-3.7,3-5l7.9,4.5
					c1.7,1,2.9,2,3.5,3.2c0.7,1.4,0.6,2.8-0.2,4.4c-0.8,1.5-1.9,2.4-3.3,2.7C554.8,894.1,553.4,894,551.7,893.4L551.7,893.4z"/>
				
					<linearGradient id="path4822_00000031204764793777909010000000345615119601324974_" gradientUnits="userSpaceOnUse" x1="1086.718" y1="779.3925" x2="1086.718" y2="801.8896" gradientTransform="matrix(1.0882 0 0 1.1959 -614.2716 -44.1973)">
					<stop  offset="1" style="stop-color:#979897"/>
					<stop  offset="1" style="stop-color:#969796"/>
					<stop  offset="1" style="stop-color:#646B65"/>
					<stop  offset="1" style="stop-color:#626963"/>
				</linearGradient>
				
					<path id="path4822" inkscape:connector-curvature="0" style="fill:url(#path4822_00000031204764793777909010000000345615119601324974_);" d="
					M565.2,887.9l13.8,5l-1.3,3.1c-0.3-0.2-1.1-0.5-2.2-1c-1.2-0.5-2-0.8-2.5-1l-4.6-1.7l-2.1,4.8l4.5,1.6c0.7,0.2,1.4,0.5,2.2,0.8
					s1.3,0.4,1.7,0.5l-1.2,2.8l-8.3-3l-2.1,5.1l5.4,2c0.7,0.3,1.4,0.5,2,0.7s1.3,0.4,2.1,0.6l-1.3,3.1l-13.8-5
					c0.7-2,1.6-4.1,2.5-6.4c1-2.3,2-4.6,2.9-6.8C564,891.1,564.7,889.3,565.2,887.9L565.2,887.9z"/>
				
					<linearGradient id="path4836_00000030475951826065554810000008978433312165357747_" gradientUnits="userSpaceOnUse" x1="1100.1156" y1="825.415" x2="1100.1156" y2="846.93" gradientTransform="matrix(1.1918 0 0 1.092 -700.2264 -6.113)">
					<stop  offset="1" style="stop-color:#979897"/>
					<stop  offset="1" style="stop-color:#969796"/>
					<stop  offset="1" style="stop-color:#646B65"/>
					<stop  offset="1" style="stop-color:#626963"/>
				</linearGradient>
				
					<path id="path4836" inkscape:connector-curvature="0" style="fill:url(#path4836_00000030475951826065554810000008978433312165357747_);" d="
					M612.6,915.7l-5.3,0.2c-1.1-3.1-2.4-6.4-3.8-9.9c-1.3-3.3-2.6-6.6-3.9-9.9l4.7-0.2c0.5,1.6,1.1,3.4,1.9,5.4
					c0.7,1.8,1.3,3.5,2,5.3c0.8,2.1,1.4,3.9,1.9,5.4c0.7-1.6,1.5-3.4,2.4-5.5c0.8-1.8,1.7-3.7,2.5-5.5c0.9-2.1,1.7-4,2.3-5.6
					l4.8-0.2c-1.3,2.7-2.4,5-3.2,6.8c-1.3,2.7-2.3,4.9-3.2,6.8C614.8,910.7,613.8,913,612.6,915.7L612.6,915.7z"/>
				
					<linearGradient id="path4850_00000110436833031864442330000014722508817869997988_" gradientUnits="userSpaceOnUse" x1="1169.0485" y1="753.2412" x2="1169.0485" y2="773.8407" gradientTransform="matrix(1.0117 0 0 1.2864 -550.808 -77.3921)">
					<stop  offset="1" style="stop-color:#979897"/>
					<stop  offset="1" style="stop-color:#969796"/>
					<stop  offset="1" style="stop-color:#646B65"/>
					<stop  offset="1" style="stop-color:#626963"/>
				</linearGradient>
				
					<path id="path4850" inkscape:connector-curvature="0" style="fill:url(#path4850_00000110436833031864442330000014722508817869997988_);" d="
					M622.7,895.1l14.3-3.6l0.6,3.3c-0.4,0-1.2,0.2-2.4,0.5s-2.1,0.5-2.6,0.6l-4.7,1.2l1,5.2l4.7-1.2c0.7-0.2,1.4-0.4,2.2-0.6
					c0.8-0.2,1.3-0.4,1.7-0.5l0.6,3l-8.5,2.1l1.2,5.4l5.6-1.4c0.7-0.2,1.4-0.4,2-0.5c0.6-0.2,1.3-0.4,2.1-0.7l0.6,3.3l-14.2,3.5
					c-0.5-2-1-4.3-1.5-6.7c-0.5-2.5-0.9-4.9-1.4-7.2C623.4,898.5,623,896.6,622.7,895.1L622.7,895.1z"/>
				
					<linearGradient id="path4864_00000143599676061297428470000013085857054390136995_" gradientUnits="userSpaceOnUse" x1="1159.0652" y1="782.3881" x2="1159.0652" y2="808.2631" gradientTransform="matrix(1.108 0 0 1.1746 -630.7232 -36.375)">
					<stop  offset="1" style="stop-color:#979897"/>
					<stop  offset="1" style="stop-color:#969796"/>
					<stop  offset="1" style="stop-color:#646B65"/>
					<stop  offset="1" style="stop-color:#626963"/>
				</linearGradient>
				
					<path id="path4864" inkscape:connector-curvature="0" style="fill:url(#path4864_00000143599676061297428470000013085857054390136995_);" d="
					M661.1,903.5l-14.6-9.8h-0.1c0.6,1.4,1.3,2.9,1.9,4.6c0.7,1.7,1.4,3.5,2.3,5.7c0.9,2.1,1.3,3.3,1.5,3.6l-3.7,1.7
					c-0.9-1.9-1.7-4-2.6-6.4c-0.9-2.4-1.8-4.7-2.6-6.9s-1.6-4-2.2-5.4l5-2.3c1.5,1.1,3.1,2.3,4.8,3.4c0.3,0.2,1.9,1.3,4.9,3.3
					c2.3,1.6,4,2.7,4.9,3.3c-0.5-1.1-1.1-2.6-1.8-4.5s-1.5-3.7-2.2-5.6c-0.7-1.9-1.3-3.2-1.6-4l3.8-1.7c1.1,3,2.3,6.4,3.8,10.1
					c1.4,3.7,2.6,6.6,3.5,8.6L661.1,903.5z"/>
				
					<linearGradient id="path4878_00000132803381244349605730000012447769215184478141_" gradientUnits="userSpaceOnUse" x1="1190.1683" y1="754.7374" x2="1190.1683" y2="776.1924" gradientTransform="matrix(1.0577 0 0 1.2304 -589.0131 -56.9005)">
					<stop  offset="1" style="stop-color:#979897"/>
					<stop  offset="1" style="stop-color:#969796"/>
					<stop  offset="1" style="stop-color:#646B65"/>
					<stop  offset="1" style="stop-color:#626963"/>
				</linearGradient>
				
					<path id="path4878" inkscape:connector-curvature="0" style="fill:url(#path4878_00000132803381244349605730000012447769215184478141_);" d="
					M659.9,881.8l13.8-10l1.8,2.7c-0.6,0.4-1.5,1.1-2.7,1.9c-1.2,0.8-2,1.4-2.4,1.7c0.9,1.3,1.9,2.7,3,4.4c1.1,1.6,2.2,3.4,3.4,5.2
					s2.2,3.3,3,4.5L676,895c-1.2-2-2.2-3.7-3.1-5.1c-0.9-1.4-1.8-2.9-2.8-4.4s-2.1-3.1-3.3-4.7c-1.8,1.3-3,2.2-3.6,2.7
					s-1.1,0.9-1.5,1.2L659.9,881.8L659.9,881.8z"/>
				
					<linearGradient id="path4892_00000178164138827021152060000005138489093471833739_" gradientUnits="userSpaceOnUse" x1="1212.3224" y1="740.8692" x2="1212.3224" y2="761.3889" gradientTransform="matrix(1.0404 0 0 1.2508 -574.6733 -64.3652)">
					<stop  offset="1" style="stop-color:#979897"/>
					<stop  offset="1" style="stop-color:#969796"/>
					<stop  offset="1" style="stop-color:#646B65"/>
					<stop  offset="1" style="stop-color:#626963"/>
				</linearGradient>
				
					<path id="path4892" inkscape:connector-curvature="0" style="fill:url(#path4892_00000178164138827021152060000005138489093471833739_);" d="
					M683.7,862.3l2.7,2.3c-0.7,0.3-1.3,0.7-2,1c-0.6,0.4-1.2,0.8-1.7,1.3c-0.7,0.6-1.1,1.3-1.2,2.1c-0.2,0.7,0,1.4,0.5,1.8
					c0.6,0.6,1.7,0.8,3.5,0.7c1.6-0.1,3.2-0.3,4.8-0.4c1.9,0,3.3,0.5,4.3,1.5s1.4,2.2,1.4,3.6c-0.1,1.8-1,3.6-2.8,5.3
					c-0.7,0.7-1.3,1.2-2,1.7c-0.6,0.4-1.5,1-2.7,1.7l-2.8-2.4c1-0.3,1.8-0.7,2.6-1.2c0.8-0.4,1.5-1,2.1-1.6s1-1.2,1.2-1.9
					c0.3-0.8,0.1-1.5-0.4-2.1c-0.6-0.6-1.7-0.8-3.5-0.7c-3.2,0.2-4.8,0.3-4.8,0.3c-1.9,0-3.4-0.6-4.3-1.5c-1.2-1.2-1.5-2.6-1.2-4.3
					c0.3-1.5,1.2-2.9,2.6-4.3c0.5-0.5,1.1-1,1.8-1.5C682.3,863.2,683,862.8,683.7,862.3L683.7,862.3z"/>
				
					<linearGradient id="path4906_00000098920685533604190260000013585810411515888818_" gradientUnits="userSpaceOnUse" x1="1188.8235" y1="758.2806" x2="1188.8235" y2="781.7076" gradientTransform="matrix(1.1736 0 0 1.1089 -685.1591 -12.2851)">
					<stop  offset="1" style="stop-color:#979897"/>
					<stop  offset="1" style="stop-color:#969796"/>
					<stop  offset="1" style="stop-color:#646B65"/>
					<stop  offset="1" style="stop-color:#626963"/>
				</linearGradient>
				
					<path id="path4906" inkscape:connector-curvature="0" style="fill:url(#path4906_00000098920685533604190260000013585810411515888818_);" d="
					M698,841.8l6.5-13.2l2.9,1.6c-0.2,0.3-0.6,1-1.2,2.1c-0.6,1.1-1,1.9-1.2,2.4l-2.1,4.4l4.6,2.6l2.1-4.3c0.3-0.6,0.6-1.3,1-2.1
					c0.3-0.7,0.6-1.3,0.7-1.6l2.7,1.5l-3.9,7.9l4.9,2.6l2.5-5.2c0.3-0.7,0.6-1.3,0.9-1.9c0.3-0.6,0.5-1.3,0.8-2l2.9,1.6l-6.4,13.2
					c-1.9-0.9-3.9-2-6.1-3.2c-2.2-1.2-4.3-2.4-6.4-3.6C701.1,843.3,699.3,842.4,698,841.8L698,841.8z"/>
				
					<linearGradient id="path4920_00000003099981752854496770000006350826167577532292_" gradientUnits="userSpaceOnUse" x1="1162.8246" y1="777.4194" x2="1162.8246" y2="797.0214" gradientTransform="matrix(1.2832 0 0 1.0142 -776.075 22.3752)">
					<stop  offset="1" style="stop-color:#979897"/>
					<stop  offset="1" style="stop-color:#969796"/>
					<stop  offset="1" style="stop-color:#646B65"/>
					<stop  offset="1" style="stop-color:#626963"/>
				</linearGradient>
				
					<path id="path4920" inkscape:connector-curvature="0" style="fill:url(#path4920_00000003099981752854496770000006350826167577532292_);" d="
					M705.1,827.3l4.7-16.4l3.1,1c-0.2,0.7-0.5,1.8-1,3.2c-0.4,1.4-0.7,2.3-0.9,2.8c1.5,0.4,3.2,1,5,1.6s3.8,1.3,5.9,2
					c2.1,0.7,3.8,1.3,5.1,1.7l-1.3,4.5c-2.2-0.8-4-1.5-5.6-2.1s-3.2-1.1-4.9-1.7c-1.7-0.6-3.5-1.1-5.5-1.7c-0.6,2.1-1,3.5-1.2,4.3
					s-0.3,1.4-0.4,1.8L705.1,827.3L705.1,827.3z"/>
			</g>
		</g>
	</g>
</g>
</svg>
