<?xml version="1.0" encoding="utf-8"?>
<!-- Generator: Adobe Illustrator 26.0.2, SVG Export Plug-In . SVG Version: 6.00 Build 0)  -->
<svg version="1.1"
	 id="svg4350" xmlns:cc="http://creativecommons.org/ns#" xmlns:dc="http://purl.org/dc/elements/1.1/" xmlns:inkscape="http://www.inkscape.org/namespaces/inkscape" xmlns:rdf="http://www.w3.org/1999/02/22-rdf-syntax-ns#" xmlns:sodipodi="http://sodipodi.sourceforge.net/DTD/sodipodi-0.dtd" xmlns:svg="http://www.w3.org/2000/svg"
	 xmlns="http://www.w3.org/2000/svg" xmlns:xlink="http://www.w3.org/1999/xlink" x="0px" y="0px" width="557px" height="800px"
	 viewBox="0 0 557 800" style="enable-background:new 0 0 557 800;" xml:space="preserve">
<style type="text/css">
	.st0{fill:#0D010F;}
	.st1{fill:#FCB507;}
	.st2{fill:#03114E;}
	.st3{fill:#5C0019;}
	.st4{fill:#021250;}
	.st5{fill:#880F14;}
	.st6{fill:#8B0D11;}
	.st7{fill:#9CA1A4;}
	.st8{fill:#F7B410;}
	.st9{fill:#2D100C;}
	.st10{fill:#961015;}
	.st11{fill:#004C00;}
	.st12{fill-rule:evenodd;clip-rule:evenodd;fill:#FCB507;}
</style>
<sodipodi:namedview  bordercolor="#666666" borderopacity="1.0" id="base" inkscape:current-layer="layer1" inkscape:cx="277.76746" inkscape:cy="626.0817" inkscape:document-units="px" inkscape:pageopacity="0.0" inkscape:pageshadow="2" inkscape:window-height="691" inkscape:window-maximized="1" inkscape:window-width="1280" inkscape:window-x="0" inkscape:window-y="1" inkscape:zoom="0.49497475" pagecolor="#ffffff" showgrid="false" showguides="false" units="px">
	<sodipodi:guide  id="guide7886" orientation="1,0" position="143.44166,591.44433"></sodipodi:guide>
</sodipodi:namedview>
<g id="layer1" transform="translate(0,-252.36235)" inkscape:groupmode="layer" inkscape:label="Calque 1">
	<g id="g11476" transform="matrix(1.0000012,0,0,1.0000012,0,-3.5810915e-4)">
		<path id="path3797" inkscape:connector-curvature="0" sodipodi:nodetypes="cccccccccccsccccccccccc" class="st0" d="M250.6,388.6
			c55.3-2.3,113.2,1.9,167,15.3c24.3,6,48.1,14,70.9,24.2c14.7,6.7,29.3,14.1,42.5,23.6c-3,8.6-6.4,21.6-9.1,30.3
			c-11.9,36.6-18.9,74.7-21.3,113.1c-2.3,36-0.3,72.1,4,107.9c3,25.8,7.7,51.4,10.9,77.2c1.1,9,2,18.1,1.6,27.2
			c-1.1,21.8-9.1,42.8-20.1,61.5c-12.1,20.4-28.1,38.5-46.4,53.5c-44.9,42.4-114.6,74.2-172.3,74.8s-127.3-34-171.9-74.8
			c-18.8-15.6-35.3-34.2-47.4-55.5c-8.8-15.5-15.5-32.4-18.1-50.1c-2-13.5-0.5-27.2,1.3-40.7c3.5-25.5,7.9-50.9,10.8-76.5
			c3.3-28.6,5.2-57.4,4.4-86.2c-1.1-49.4-10-98.6-26.8-145.1c-1.4-4-3.1-12.5-4.4-16.5c8-5.8,16.6-10.7,25.3-15.3
			c22.3-11.6,46-20.5,70.1-27.6C163,396.8,207.8,390.5,250.6,388.6"/>
		<path id="path3714" inkscape:connector-curvature="0" class="st1" d="M278.6,252.4c0.9,1.8,1.4,3.8,2,5.7
			c4.2,12.9,8.4,25.9,12.5,38.8c15.7,0,31.4,0,47.1,0c-12.6,9.4-25.4,18.4-38.1,27.7c4.7,15,9.8,29.8,14.5,44.7
			c-12.8-9.1-25.3-18.5-38.1-27.6c-12.5,9.1-25,18.2-37.5,27.3c-0.3,0.2-0.6,0.3-0.9,0.4l0.5-0.7c4.7-14.1,9.2-28.3,13.9-42.4
			c0.2-0.7,0.7-1.7-0.2-2.1c-12.5-9.2-25.1-18.1-37.6-27.3c15.8,0.1,31.5,0,47.3,0.1C269,282,273.7,267.2,278.6,252.4z"/>
		<g id="g10788">
			<g id="g10773">
				<g id="g7651">
					<path id="path3724" inkscape:connector-curvature="0" class="st1" d="M94,456.6c1.4-2.6,4.1-4.1,6-6.1c2.2,1.1,4,3.3,4,5.9
						c0.2,8,0,16,0.1,24c0,1.6,1.4,2.5,2.5,3.3c1-0.9,1.9-1.7,3-2.5c-1.2,2.7-4.2,4.1-6.2,6.2c-1.9-1.4-3.8-2.7-5.7-4
						c0.6-1,1.6-1.8,1.5-3.1c0-6.9,0-13.7,0-20.6c0-1.7-0.5-3.9-2.2-4.7C95.9,454.9,95,456.1,94,456.6L94,456.6z"/>
					<path id="path3726" inkscape:connector-curvature="0" class="st1" d="M124.9,450.4c-4.8,3.2-9.9,7.3-11,13.3
						c-1,4.9,2.3,9.6,6.6,11.5c3.4-2.4,6.6-4.9,9.9-7.3c0.5-0.4,1-0.9,1.7-0.7c0.5,5.5-0.8,11.1-3.7,15.8c-3.2-1.3-6.2-3-9.3-4.5
						c-1.1,1.5-2.2,2.9-3.2,4.4c3,1.5,5.9,2.9,8.9,4.5c3.8-3.2,7.4-6.9,9.7-11.3c2.7-5.8,3-13-0.3-18.6
						C132.2,454,128.7,451.7,124.9,450.4L124.9,450.4z M120.2,454.9c3.6,1,7.4,2.6,9.5,5.9c1.1,1.6,1.7,3.4,2.2,5.3
						c-2.3,1.6-4.4,3.3-6.8,4.8c-2.3-1-4.9-2.2-6.2-4.5C116.6,462.8,117.4,458,120.2,454.9z"/>
					<path id="path3728" inkscape:connector-curvature="0" class="st1" d="M432.9,450.4c-3.8,3.2-7.3,6.8-9.6,11.2
						c-2.8,5.9-3,13.4,0.6,19c2,3.3,5.5,5.5,9.1,6.7c4-3.5,7.9-7.4,10.1-12.3c2.3-5.7,2.4-12.5-0.9-17.8
						C440,453.9,436.6,451.6,432.9,450.4z M429.3,454.8c4.8,1.7,9.4,5.3,10.5,10.6c1.1,6,0,12.6-3.4,17.7c-4.5-1.8-8.9-5-10.2-9.9
						C424.7,466.9,426,460.2,429.3,454.8z"/>
					<path id="path3730" inkscape:connector-curvature="0" class="st1" d="M461.2,450.4c-3.1,2-6.1,4.3-8.3,7.3
						c-2.7,3.3-4,8.2-1.8,12.2c1.1,2.5,3.4,4.1,5.7,5.3c3.4-2.4,6.6-4.9,9.9-7.3c0.5-0.4,1-0.8,1.7-0.7c0.5,5.5-0.8,11.1-3.7,15.8
						c-3.2-1.3-6.2-3-9.3-4.5c-1.1,1.4-2.2,2.9-3.2,4.4c3,1.5,5.9,2.9,8.9,4.5c3.8-3.2,7.3-6.9,9.7-11.3c2.7-5.8,3-13-0.3-18.6
						C468.4,454,464.9,451.7,461.2,450.4z M456.2,455c5.7,0.8,11.1,5.1,11.8,11.1c-2.2,1.7-4.4,3.3-6.7,4.9
						c-2.6-1.1-5.4-2.5-6.6-5.2C452.9,462.2,454,458,456.2,455z"/>
				</g>
				<g id="g7770">
					<path id="path4104" inkscape:connector-curvature="0" sodipodi:nodetypes="cccscccccccccc" class="st2" d="M154,836.8
						c-6.7,0.2-13.4-0.2-19.8-2c-4.6-1.3-8.6-3.9-13.2-5.2c-2.2-0.6-4.5-0.8-6.8-0.7c-1.4,0-2.7,0.2-4.1,0.4
						c-4.9,0.9-8.8,4.1-13.6,5.2c-6.1,1.4-12.3,1.7-18.5,1.6l-0.1,29.5c4.8,0,9.7-0.5,14.4-1.2c5.2-0.8,9.9-3.2,15-4.5
						c3.7-0.9,7.6-0.6,11.4-0.5c4.5,0.1,8.8,1.8,13.1,3.1c7.2,2.3,14.8,3,22.3,3.3L154,836.8z"/>
					<path id="path4117" inkscape:connector-curvature="0" class="st3" d="M94.3,840c6.6-1.9,13-4.8,19.9-4.9
						c6.6-0.2,12.8,2.3,19.1,4c6.8,2,13.9,2.6,20.9,1.9c0,1.8,0,3.7,0,5.6c-4.4,0.2-8.8,0.3-13.1-0.4c-7.6-1.2-14.8-3.9-22.3-5.4
						c-7.2-1.2-14.3,1.6-21.1,3.7c-5.9,2-12,3.6-18.2,4.2c-0.4,0-1.1,0.1-1.4,0.1c0-1.8,0-3.6,0-5.4C83.5,842.7,89,841.8,94.3,840
						L94.3,840z"/>
					<path id="path4121" inkscape:connector-curvature="0" class="st3" d="M80.6,855c9.7-1,18.6-5.2,28-7.4
						c4.9-0.6,9.9-0.7,14.7,0.6c6.2,1.5,12.3,3.6,18.7,4.6c4.1,0.6,8.2,0.4,12.3,0.3c0,1.8,0,3.5,0,5.3c-6.7,0.4-13.5,0-19.9-1.9
						c-6.3-1.5-12.4-3.9-18.9-4.2c-7.3,0.1-14,3-20.9,5c-5.3,1.7-10.8,2.9-16.4,3.3c0-1.8,0-3.6,0-5.3
						C78.8,855.2,79.7,855.1,80.6,855L80.6,855z"/>
				</g>
				<g id="g7775" transform="translate(324.57726,0)">
					<path id="path7777" inkscape:connector-curvature="0" sodipodi:nodetypes="cccscccccccccc" class="st2" d="M154,836.8
						c-6.7,0.2-13.4-0.2-19.8-2c-4.6-1.3-8.6-3.9-13.2-5.2c-2.2-0.6-4.5-0.8-6.8-0.7c-1.4,0-2.7,0.2-4.1,0.4
						c-4.9,0.9-8.8,4.1-13.6,5.2c-6.1,1.4-12.3,1.7-18.5,1.6l-0.1,29.5c4.8,0,9.7-0.5,14.4-1.2c5.2-0.8,9.9-3.2,15-4.5
						c3.7-0.9,7.6-0.6,11.4-0.5c4.5,0.1,8.8,1.8,13.1,3.1c7.2,2.3,14.8,3,22.3,3.3L154,836.8z"/>
					<path id="path7779" inkscape:connector-curvature="0" class="st3" d="M94.3,840c6.6-1.9,13-4.8,19.9-4.9
						c6.6-0.2,12.8,2.3,19.1,4c6.8,2,13.9,2.6,20.9,1.9c0,1.8,0,3.7,0,5.6c-4.4,0.2-8.8,0.3-13.1-0.4c-7.6-1.2-14.8-3.9-22.3-5.4
						c-7.2-1.2-14.3,1.6-21.1,3.7c-5.9,2-12,3.6-18.2,4.2c-0.4,0-1.1,0.1-1.4,0.1c0-1.8,0-3.6,0-5.4C83.5,842.7,89,841.8,94.3,840
						L94.3,840z"/>
					<path id="path7781" inkscape:connector-curvature="0" class="st3" d="M80.6,855c9.7-1,18.6-5.2,28-7.4
						c4.9-0.6,9.9-0.7,14.7,0.6c6.2,1.5,12.3,3.6,18.7,4.6c4.1,0.6,8.2,0.4,12.3,0.3c0,1.8,0,3.5,0,5.3c-6.7,0.4-13.5,0-19.9-1.9
						c-6.3-1.5-12.4-3.9-18.9-4.2c-7.3,0.1-14,3-20.9,5c-5.3,1.7-10.8,2.9-16.4,3.3c0-1.8,0-3.6,0-5.3
						C78.8,855.2,79.7,855.1,80.6,855L80.6,855z"/>
				</g>
			</g>
			<g id="g10617" transform="translate(-0.13909741,0)">
				<g id="g8260" transform="translate(-0.01144741,0)">
					<g id="g8247" transform="translate(-0.29362,0)">
						<path id="path3718" inkscape:connector-curvature="0" class="st1" d="M275.8,404.6c2.1,0,4.1,0,6.2,0c0,2.7,0,5.5,0,8.2
							c2.3,0,4.7,0,7,0c0,2.1,0,4.2,0,6.3c-2.3,0-4.7,0-7,0c-0.1,2.9,0.2,5.8-0.2,8.7c-1.8-0.8-4-0.8-5.8,0
							c-0.4-2.9-0.1-5.8-0.2-8.7c-2.3,0-4.7,0-7,0c0-2.1,0-4.2,0-6.3c2.3,0,4.7,0,7,0C275.8,410.1,275.8,407.3,275.8,404.6
							L275.8,404.6z"/>
						<path id="path3720" inkscape:connector-curvature="0" class="st1" d="M271.2,431.4c5.2-0.1,10.4-0.1,15.5,0
							c3.3-0.1,4,4,4.5,6.5c-0.4,0.1-1.1,0.2-1.4,0.3c-7.2,0.2-14.5,0.2-21.8,0c-0.4-0.1-1.1-0.2-1.4-0.3c0.2-2.4,1.1-4.6,2.7-6.4
							C269.9,431.5,270.5,431.4,271.2,431.4L271.2,431.4z"/>
						<path id="path3836" inkscape:connector-curvature="0" class="st4" d="M276,427.8c1.8-0.8,4-0.8,5.8,0c1.7,1.1,3.7,1.9,4.9,3.6
							c-5.2,0-10.4-0.1-15.5,0C272.3,429.6,274.3,428.9,276,427.8L276,427.8z"/>
						<path id="path3838" inkscape:connector-curvature="0" class="st4" d="M268,438.2c7.2,0.2,14.5,0.2,21.8,0c0,4-2.1,7.9-5.7,9.9
							c-2.3,1.4-5.1,1.6-7.7,1.1C271.5,448,267.9,443.2,268,438.2L268,438.2z"/>
					</g>
					<path id="path3965" inkscape:connector-curvature="0" sodipodi:nodetypes="sccccccccccccccccccsccccs" class="st5" d="
						M256.8,463.8c-6.9,0.1-13.9,1.1-20.5,3.3c-3.8,1.2-7.3,3-11,4.5l-8.7,2.9l-11.1,1.8c-2.5,0.6-5,1.3-7.4,2.2
						c-7,2.5-13.3,7.2-17.5,13.4c-1.2,1.7-2.7,4.4-4.2,6c1.8,4.6,3.2,9.9,6,13.9l26.1,34.4h139.9l26.1-34.4c2.9-4,4.2-9.3,6-13.9
						c-1.5-1.5-2.9-4.3-4.2-6c-4.2-6.2-10.5-10.8-17.5-13.4c-2.4-0.9-4.9-1.6-7.4-2.2l-11.1-1.8l-8.7-2.9c-3.7-1.5-7.2-3.3-11-4.5
						c-6.6-2.2-13.5-3.2-20.5-3.3c-2.3,0-8.6,0-10.9,0.2l-3.5,22.8h-14.8l-3.5-22.8C265.4,463.9,259.1,463.8,256.8,463.8z"/>
					<path id="path3722" inkscape:connector-curvature="0" class="st1" d="M242.8,443.7c-3.7-0.1-7.3,0.4-9.4,1
						c-3.6,1.2-7.8,3-10.8,5.8c-2.3,2.1-3.5,5.5-4.9,8.5c-1.1,4.4-1.6,10.4-1,15.5c0.8,7,2.7,13.7,4.9,20.4l-4.8,2.6l9.3,9.8
						l-0.5,0.5l-14.1,2l8.8,15.7c2.8-2.1,5.5-4.2,8.4-6.2c-1.7,5.5-4.3,11-8.9,14.6c-0.9,0.7-1.8,1.2-2.7,1.7
						c-4.9,2.6-10.7,0.5-14.9-2.4c2.1-1.4,4.2-2.7,6.4-4c-3.2-5.7-6.6-11.3-10-16.9c-2.3,3.4-4.5,6.9-6.9,10.2
						c-1.2-4.9-1.6-10-2.3-14.9c-1.6,0.9-3.2,1.7-4.7,2.6c-2.9-4-5.6-8.2-7.4-12.8c-1.8-4.1-2.1-8.7-1.6-13.1
						c0.8-6.2,4.7-12.1,10.3-15c5.4-2.9,11.9-3,17.8-1.7c0.4-2.9,1-5.8,1.3-8.7c-4.2-0.9-10.7-1.7-15.8-0.4
						c-3.3,1.1-7.5,2.4-10.9,4.6c-2.8,1.9-5.9,4.9-8,8.2c-1.7,2.3-2.6,5.3-3.5,8.1c-1.2,4-1.1,8.1-1.1,12.7
						c0.5,3.7,2.2,8.7,4.1,12.3l51.1,65c13.6-5.4,27.8-9.3,42.3-11.3c5.1-0.7,10.3-1,15.5-1c5.1,0,10.4,0.3,15.5,1
						c14.5,2,28.7,5.9,42.3,11.3l51.1-65c1.9-3.6,3.5-8.6,4.1-12.3c0-4.6,0.1-8.6-1.1-12.7c-0.9-2.8-1.8-5.9-3.5-8.1
						c-2.1-3.3-5.2-6.3-8-8.2c-3.3-2.1-7.5-3.5-10.9-4.6c-5.1-1.3-11.6-0.5-15.8,0.4c0.3,2.9,0.9,5.8,1.3,8.7
						c5.9-1.3,12.4-1.2,17.8,1.7c5.7,2.9,9.5,8.7,10.3,15c0.5,4.4,0.3,9-1.6,13.1c-1.8,4.6-4.5,8.8-7.4,12.8
						c-1.6-0.9-3.1-1.8-4.7-2.6c-0.7,5-1.1,10-2.3,14.9c-2.3-3.4-4.6-6.8-6.9-10.2c-3.4,5.6-6.8,11.2-10,16.9c2.1,1.3,4.3,2.6,6.4,4
						c-4.3,2.9-10,4.9-14.9,2.4c-1-0.5-1.9-1.1-2.7-1.7c-4.6-3.6-7.2-9.1-8.9-14.6c2.8,2,5.6,4.2,8.4,6.2l8.8-15.7l-14.1-2l-0.5-0.5
						l9.3-9.8l-4.8-2.6c2.2-6.6,4.1-13.4,4.9-20.4c0.6-5.2,0.1-11.1-1-15.5c-1.4-3-2.5-6.4-4.9-8.5c-3-2.7-7.1-4.5-10.8-5.8
						c-2.8-0.9-8.2-1.3-13.2-0.8c-5.6,0.6-10.4,1.7-15.4,2.9c-5.9,1.5-11.8,3.4-16.6,5c-4.9-1.7-10.7-3.5-16.6-5
						c-5-1.2-9.9-2.3-15.4-2.9C245.3,443.8,244,443.7,242.8,443.7z M244.5,453.9c7-0.1,13.9,1.5,20.6,3.5c-0.4,2.2-0.8,4.4-1.3,6.6
						c-1.1,5.9-1.7,12.3,0.4,18.2c1.1,3.1,3.8,5.3,6.8,6.5c1.2,3,2.4,6.1,3.6,9.1c-3.8-1.2-7.7-2.4-11.5-3.5c0,6.5,0,12.9,0,19.4
						c3.9-1.2,7.7-2.4,11.6-3.5c-1.5,3.2-3.4,6.3-6.1,8.6c-5.1,4.6-12.5,6.1-19.1,4.5c-4.9-1.1-9.1-3.9-12.5-7.4l0.2-0.2l11.2-0.5
						l-2.7-18.4l-13.5,8.1l1.2-14l-5.4,1.5c-1.7-6.8-2.9-13.7-2.5-20.7c0.1-4.2,1.3-8.6,4.1-11.9c2.9-3.6,7.5-5.2,12-5.6
						C242.5,454,243.5,454,244.5,453.9L244.5,453.9z M311.3,453.9c1.5,0,3,0,4.5,0.2c4.5,0.4,9.1,2.1,12,5.6c2.8,3.3,4,7.7,4.1,11.9
						c0.3,7-0.9,13.9-2.5,20.7l-5.4-1.5l1.2,14l-13.5-8.1l-2.7,18.4l11.2,0.5l0.2,0.2c-3.4,3.5-7.7,6.3-12.5,7.4
						c-6.6,1.6-14,0.1-19.1-4.5c-2.7-2.3-4.6-5.4-6.1-8.6c3.9,1.1,7.7,2.4,11.6,3.5c0-6.5,0-12.9,0-19.4c-3.8,1.2-7.7,2.4-11.5,3.5
						c1.2-3,2.4-6.1,3.6-9.1c3-1.2,5.7-3.4,6.8-6.5c2.1-5.8,1.5-12.2,0.4-18.2c-0.5-2.2-0.9-4.4-1.3-6.6
						C298.4,455.6,304.8,454,311.3,453.9L311.3,453.9z M278.6,456.2c3.9,0,7,6.4,7,14.2c0,7.8-3.1,14.2-7,14.2s-7-6.4-7-14.2
						S274.7,456.2,278.6,456.2z"/>
					<g id="g8253">
						<path id="path3840" inkscape:connector-curvature="0" class="st4" d="M235.5,543.7c5-1.3,10.1-2.5,15.1-3.8
							c0.9,3.4,1.7,6.8,2.6,10.2c-5,1.3-10.1,2.5-15.1,3.8C237.2,550.6,236.4,547.2,235.5,543.7z"/>
						<path id="path3977" inkscape:connector-curvature="0" sodipodi:nodetypes="ccccc" class="st6" d="M271.1,537.2v10.4H286v-10.4
							H271.1z"/>
						<path id="path3983" inkscape:connector-curvature="0" class="st6" d="M210.5,555.9c1.6-1.7,3.6-2.9,5.5-4.3
							c2.1,2.7,4.2,5.5,6.2,8.3c-1.8,1.3-3.5,2.7-5.5,3.8c-1,0.4-2,0.8-2.9,1.2c-1.7-2.4-3.5-4.6-5.2-7
							C209.2,557.2,209.8,556.5,210.5,555.9L210.5,555.9z"/>
						<path id="path8041" inkscape:connector-curvature="0" class="st4" d="M321.7,543.7c-5-1.3-10.1-2.5-15.1-3.8
							c-0.9,3.4-1.7,6.8-2.6,10.2c5,1.3,10.1,2.5,15.1,3.8C320.1,550.6,320.9,547.2,321.7,543.7L321.7,543.7z"/>
						<path id="path8047" inkscape:connector-curvature="0" class="st6" d="M346.8,555.9c-1.6-1.7-3.6-2.9-5.5-4.3
							c-2.1,2.7-4.2,5.5-6.2,8.3c1.8,1.3,3.5,2.7,5.5,3.8c1,0.4,2,0.8,2.9,1.2c1.7-2.4,3.5-4.6,5.2-7
							C348,557.2,347.4,556.5,346.8,555.9L346.8,555.9z"/>
					</g>
					<g id="g8203">
						<circle id="circle7890" class="st7" cx="171.5" cy="517.5" r="5.5"/>
						<circle id="circle7892" class="st7" cx="164.4" cy="506.1" r="5.5"/>
						<circle id="circle7894" class="st7" cx="160.3" cy="493.5" r="5.5"/>
						<circle id="circle7896" class="st7" cx="161.1" cy="479.5" r="5.5"/>
						<circle id="circle7898" class="st7" cx="166.6" cy="466.7" r="5.5"/>
						<circle id="circle7900" class="st7" cx="176.2" cy="457.5" r="5.5"/>
						<circle id="circle7902" class="st7" cx="188.9" cy="452.6" r="5.5"/>
						<circle id="circle7904" class="st7" cx="201.7" cy="452.2" r="5.5"/>
						<circle id="circle7906" class="st7" cx="212.1" cy="458.7" r="5.5"/>
						<circle id="circle7908" class="st7" cx="211.1" cy="473.5" r="5.5"/>
						<circle id="circle7910" class="st7" cx="212.3" cy="487" r="5.5"/>
						<circle id="circle7912" class="st7" cx="215.2" cy="529.9" r="5.5"/>
						<circle id="circle7916" class="st7" cx="256.4" cy="517.8" r="5.5"/>
						<circle id="circle7922" class="st7" cx="219" cy="445.9" r="5.5"/>
						<circle id="circle7924" class="st7" cx="231.7" cy="439.4" r="5.5"/>
						<circle id="circle7926" class="st7" cx="245.7" cy="438.3" r="5.5"/>
						<circle id="circle7928" class="st7" cx="258.6" cy="440.1" r="5.5"/>
						<circle id="circle7932" class="st7" cx="258.6" cy="440.1" r="5.5"/>
						<circle id="circle7980" class="st7" cx="231.1" cy="511.6" r="7"/>
						<circle id="circle7982" class="st7" cx="192.1" cy="531.6" r="7"/>
						<circle id="circle8051" class="st7" cx="385.8" cy="517.5" r="5.5"/>
						<circle id="circle8053" class="st7" cx="392.9" cy="506.1" r="5.5"/>
						<circle id="circle8055" class="st7" cx="396.9" cy="493.5" r="5.5"/>
						<circle id="circle8057" class="st7" cx="396.1" cy="479.5" r="5.5"/>
						<circle id="circle8059" class="st7" cx="390.6" cy="466.7" r="5.5"/>
						<circle id="circle8061" class="st7" cx="381" cy="457.5" r="5.5"/>
						<circle id="circle8063" class="st7" cx="368.4" cy="452.6" r="5.5"/>
						<circle id="circle8065" class="st7" cx="355.6" cy="452.2" r="5.5"/>
						<circle id="circle8067" class="st7" cx="345.2" cy="458.7" r="5.5"/>
						<circle id="circle8069" class="st7" cx="346.2" cy="473.5" r="5.5"/>
						<circle id="circle8071" class="st7" cx="345" cy="487" r="5.5"/>
						<circle id="circle8073" class="st7" cx="342" cy="529.9" r="5.5"/>
						<circle id="circle8075" class="st7" cx="300.8" cy="517.8" r="5.5"/>
						<circle id="circle8077" class="st7" cx="338.2" cy="445.9" r="5.5"/>
						<circle id="circle8079" class="st7" cx="325.5" cy="439.4" r="5.5"/>
						<circle id="circle8081" class="st7" cx="311.6" cy="438.3" r="5.5"/>
						<circle id="circle8083" class="st7" cx="298.6" cy="440.1" r="5.5"/>
						<circle id="circle8085" class="st7" cx="298.6" cy="440.1" r="5.5"/>
						<circle id="circle8087" class="st7" cx="326.1" cy="511.6" r="7"/>
						<circle id="circle8089" class="st7" cx="365.1" cy="531.6" r="7"/>
						<circle id="circle8171" class="st7" cx="278.8" cy="464.5" r="5"/>
						<circle id="circle8175" class="st7" cx="278.8" cy="476.7" r="5"/>
					</g>
				</g>
				<g id="g10385">
					<g id="g7802">
						<path id="path3941" inkscape:connector-curvature="0" sodipodi:nodetypes="ccccc" class="st7" d="M427.4,614.9v181.8h27.8
							V614.9H427.4z"/>
						<path id="path3778" inkscape:connector-curvature="0" class="st1" d="M427.4,792.7c9.3,0,18.5,0,27.8,0
							c3.2,8.5,6.8,16.8,10.1,25.2c-16,0-32,0-48,0C420.6,809.5,424.2,801.1,427.4,792.7L427.4,792.7z"/>
						<g id="g7738">
							<path id="path3973" inkscape:connector-curvature="0" sodipodi:nodetypes="cccccccccccccccc" class="st6" d="M441,531.3
								l-4.4,0.4c-3.2,0.9-6.6,1.7-9.4,3.6c-2,1.3-3.6,3.1-5.3,4.9l-5.4,4c-2.3,0.5-4.8,0.9-6.8,2.2c-2,1.2-3.6,2.9-5.1,4.6
								c4,7.8,8.9,15.1,14.3,22h44c5.4-6.9,10.3-14.2,14.3-22c-1.5-1.7-3.1-3.5-5.1-4.6c-2.1-1.3-4.5-1.7-6.8-2.2l-5.4-4
								c-1.6-1.8-3.2-3.6-5.3-4.9c-2.8-1.9-6.2-2.7-9.4-3.6L441,531.3z"/>
							
								<path id="path3732" inkscape:connector-curvature="0" sodipodi:nodetypes="cccccccccccccccccccccccccccccccccscccccccssccccccccssccccccsssccccccsscc" class="st1" d="
								M461,587c7.2-11,14.2-22.2,21.3-33.2c2.5-3.7,4.6-7.8,4.7-12.3c0.1-3.8-2-7.5-5.1-9.6c-3.6-2.5-8.3-3.8-12.7-2.7
								c-0.2-5-1.1-10.9-5.7-13.8c-5.5-3.4-12.3-1.9-18,0c0-1.9,0-3.8,0-5.8c1.5,0,3,0,4.6,0V502c-1.5,0-3.1,0-4.6,0
								c0-1.4,0-2.9,0-4.3c-2.9,0-5.8,0-8.7,0c0,1.4,0,2.9,0,4.3c-1.5,0-3.1,0-4.6,0c0,2.5,0,5,0,7.6c1.5,0,3,0,4.6,0
								c0,1.9,0,3.8,0,5.8c-5.7-1.9-12.6-3.4-18.1,0c-4.5,3-5.6,8.8-5.7,13.8c-4.5-1.1-9.3,0.2-13,2.9c-3,2.1-4.9,5.7-4.8,9.4
								c0.1,4,1.7,7.7,3.8,11c7.4,11.6,14.8,23.2,22.2,34.9l0.2,0.3c-2.3,2.4-4.3,5.3-4.6,8.7c0.1,1.8,0.3,3.5,0.8,5.2l9.9,15.4
								h27.7l10-15.6c0.4-1.7,0.6-3.4,0.8-5.1c-0.3-3.4-2.4-6.5-4.6-8.9L461,587z M427.3,520.2c3.3,0.1,6.4,1.7,9.3,3.2
								c0.1,2.8,0.1,5.6,0,8.3c-0.2,11.6,0,23.2-0.1,34.8c-0.7,0-1.4,0-2,0c-5.1-8.3-9.6-17.1-12.5-26.4c-1.5-4.7-2.6-9.8-1.5-14.7
								c0.5-2.6,2.6-5.1,5.4-5.2C426.3,520.2,426.8,520.2,427.3,520.2L427.3,520.2z M454.9,520.2c0.8,0,1.6,0.1,2.3,0.2
								c2.7,0.7,4.2,3.5,4.5,6.1c0.5,4.6-0.3,9.3-1.7,13.7c-3,9.3-7.4,18-12.5,26.3h-2.1c0-11.6,0.1-23.2-0.1-34.8
								c-0.1-2.8-0.1-5.6,0-8.4l0,0C448.4,521.8,451.6,520.2,454.9,520.2L454.9,520.2z M410.2,535.7c0.6,0,1.2,0.1,1.7,0.3
								c2.9,1.2,3.5,4.5,4.3,7.2c2.8,8.6,7.3,16.6,11.7,24.4c-3.3,1.3-6.2,3.4-9,5.5c-5.4-6.9-10.3-14.2-14.3-22
								c-1.7-2.7-3-5.9-2.2-9.1c0.7-3.3,3.8-6.1,7.1-6.3C409.9,535.7,410.1,535.7,410.2,535.7L410.2,535.7z M471.7,535.7
								c3.8-0.2,7.3,3.1,7.9,6.9c0.6,3-0.7,5.9-2.3,8.5c-4.1,7.8-8.9,15.2-14.3,22c-2.8-2.2-5.7-4.2-9-5.6
								c4.5-7.7,8.9-15.7,11.6-24.2c0.9-2.7,1.4-6.1,4.4-7.3C470.6,535.8,471.2,535.7,471.7,535.7z"/>
							<path id="path3991" inkscape:connector-curvature="0" class="st6" d="M421.2,587.3c6.8-5.8,16.2-8.1,25-6.8
								c5.3,0.9,10.9,2.7,14.8,6.6c0.1,0.2,0.4,0.5,0.5,0.6c-13.4,0-26.8,0.1-40.1-0.1L421.2,587.3z"/>
							<path id="path3995" inkscape:connector-curvature="0" class="st6" d="M416.8,596.2c16.4,0,32.8,0,49.3,0
								c-0.1,1.7-0.4,3.4-0.8,5.1c-12.4,0-24.7,0-37.1,0c-3.5,0-7.1-0.1-10.6,0.2C417,599.7,416.8,598,416.8,596.2L416.8,596.2z"/>
						</g>
						<g id="g7792">
							<path id="path3999" inkscape:connector-curvature="0" sodipodi:nodetypes="cccccccccccccc" class="st6" d="M410.4,650.9
								c5.7-0.4,11.4,0.1,17-0.3c5.8-0.2,11.5,0.3,17.3,0.7c3.5,0.4,7,0.4,10.4,1.3c8.6,1.8,17.4,2.9,25.4,6.5c4.9,2,9.8,5,12.4,9.8
								c2.3,4.2,1.6,9.3-0.2,13.6c-2.4,5.9-7.4,10.2-12.8,13.3c-7.6,4.3-16.1,6.7-24.7,8.1c0.2-4.8,0.1-9.5,0.1-14.3
								c-6-1.9-12.3-3.4-18.6-4.1c-3.1-0.4-6.2-0.4-9.3-1c-5.7-0.7-11.4-0.3-17.1-0.3C410.4,673.1,410.4,662,410.4,650.9"/>
							<path id="path4003" inkscape:connector-curvature="0" class="st6" d="M419.4,714.2c1.1-3.6,4.1-6.7,8-7.2
								c-0.2,4.3,3.4,7.4,6.8,9.4c6.7,3.9,14.3,6,21,10.1c0.8,1.6,2.6,2.2,3.9,3.4c5,3.8,8.5,9.6,9.1,15.9c0.6,7-1.4,14-3.8,20.5
								c-1.3-4.2-2.3-8.5-4-12.5c-1.3-2.8-2.4-5.9-5-7.8c-1.9-1.7-4-3.3-6.4-4.1c0.8,3,1.9,6,2.4,9.1c0.8,4.9,0.7,9.9,0.3,14.9
								c-2.1-6.3-5.9-12.1-11.3-16.2c-3.9-3.1-8.4-5.2-12.7-7.8c-0.1-0.1-0.3-0.3-0.4-0.5c-1.8-1.5-3.8-2.9-5-5.1
								C418.2,729.8,417,721.5,419.4,714.2z"/>
							<g id="g7680">
								<path id="path3750" inkscape:connector-curvature="0" class="st1" d="M415.7,655.6c0.9-0.5,2.3,0,2.4,1.1
									c0.3,4.2-0.7,8.4-0.1,12.6c0.6,2.9,5.7,3.1,6.2,0c0.8-4,0.3-8.2,0.9-12.2c0.3-1.6,2.8-1.4,3,0.2c0.1,3.5-0.2,7.1-0.4,10.6
									c-0.1,2.5-1.1,5.5-3.8,6.3c-2.6,0.7-5.7,0.5-7.8-1.4c-2-2.1-1.7-5.3-1.6-8c0.3-2.8,0-5.7,0.6-8.4
									C415.3,656.1,415.6,655.8,415.7,655.6L415.7,655.6z"/>
								<path id="path3754" inkscape:connector-curvature="0" class="st1" d="M432.3,657.9c0.2-2,3.4-1.4,3.1,0.5
									c-0.2,4.6-0.7,9.1-1,13.7c2.3,0.3,4.6,0.3,6.9,0.8c1.5,0.4,1.1,3.3-0.6,2.9c-2.9-0.2-5.7-0.4-8.6-0.9
									c-1.4-0.4-1.1-2.1-1-3.2C431.6,667,431.7,662.4,432.3,657.9z"/>
								<path id="path3758" inkscape:connector-curvature="0" class="st1" d="M445.5,661c-0.9-1.1,0-3.2,1.5-2.6
									c3.4,0.6,6.9,1.1,10.3,1.8c1.5,0.2,1.6,2.8,0,3c-1.4-0.1-2.8-0.4-4.2-0.6c-0.6,4.1-1.1,8.3-1.7,12.4c-0.1,1-0.4,2.4-1.6,2.6
									c-1.4,0-1.9-1.5-1.6-2.7c0.5-4.3,1.3-8.6,1.7-12.9C448.5,661.7,446.9,661.8,445.5,661L445.5,661z"/>
								<path id="path3760" inkscape:connector-curvature="0" class="st1" d="M463.4,661.8c-0.6,0-1.1,0.1-1.3,0.8
									c-1,3-1.4,6.1-2.1,9.2c-0.4,2.2-1.2,4.3-1.2,6.6c0,1.5,2.5,2,2.9,0.5c0.7-2.1,1-4.3,1.5-6.5c1,0.4,2.2,0.5,2.8,1.5
									c1.5,2.5,1.4,5.5,2.7,8c0.6,1.1,2.8,0.7,2.7-0.7c-0.1-2.7-1-5.3-2.5-7.6c1.2-0.3,2.6-0.3,3.4-1.2c2.1-2.2,1.9-6.5-0.9-8.1
									c-2-1-4.2-1.4-6.3-2C464.6,662.1,463.9,661.8,463.4,661.8z M464.7,665c1.5,0.4,3.2,0.7,4.6,1.5c1.7,0.9,1.3,4-0.6,4.3
									c-1.7,0-3.4-0.6-5-1.1C464,668.2,464.4,666.6,464.7,665z"/>
								<path id="path3766" inkscape:connector-curvature="0" class="st1" d="M484.5,668.6c-0.5,0-1.1,0.2-1.5,0.7
									c-3.2,3.9-6.2,8-9.2,12c-1.1,1.3-0.1,2.8,1.3,3.3c1.1-1.2,2.2-2.4,3.1-3.7c1.9,0.8,3.9,1.6,5.8,2.4c0.1,1.6,0,3.1,0.3,4.7
									c0.7,1.6,3.2,0.7,2.9-1c0-5.3-0.3-10.6-0.5-15.9C486.9,669.7,485.7,668.6,484.5,668.6z M484.1,672.7c0,2.5,0,5.1,0,7.6
									c-1.4-0.6-2.9-1.2-4.3-1.8C481.2,676.5,482.6,674.6,484.1,672.7L484.1,672.7z"/>
							</g>
						</g>
					</g>
					<g id="g7854">
						<path id="path7698" inkscape:connector-curvature="0" sodipodi:nodetypes="ccccc" class="st7" d="M130.1,614.9v181.8h-27.8
							V614.9H130.1z"/>
						<path id="path7702" inkscape:connector-curvature="0" class="st1" d="M130.1,792.7c-9.3,0-18.5,0-27.8,0
							c-3.2,8.5-6.8,16.8-10.1,25.2c16,0,32,0,48,0C136.9,809.5,133.3,801.1,130.1,792.7z"/>
						<g id="g7783">
							<path id="path7700" inkscape:connector-curvature="0" sodipodi:nodetypes="cccccccccccccc" class="st6" d="M147.1,650.9
								c-5.7-0.4-11.4,0.1-17-0.3c-5.8-0.2-11.5,0.3-17.3,0.7c-3.5,0.4-7,0.4-10.4,1.3c-8.6,1.8-17.4,2.9-25.4,6.5
								c-4.9,2-9.8,5-12.4,9.8c-2.3,4.2-1.6,9.3,0.2,13.6c2.4,5.9,7.4,10.2,12.8,13.3c7.6,4.3,16.1,6.7,24.7,8.1
								c-0.2-4.8-0.1-9.5-0.1-14.3c6-1.9,12.3-3.4,18.6-4.1c3.1-0.4,6.2-0.4,9.3-1c5.7-0.7,11.4-0.3,17.1-0.3
								C147.1,673.1,147.1,662,147.1,650.9"/>
							<path id="path7710" inkscape:connector-curvature="0" class="st6" d="M138.1,714.2c-1.1-3.6-4.1-6.7-8-7.2
								c0.2,4.3-3.4,7.4-6.8,9.4c-6.7,3.9-14.3,6-21,10.1c-0.8,1.6-2.6,2.2-3.9,3.4c-5,3.8-8.5,9.6-9.1,15.9c-0.6,7,1.4,14,3.8,20.5
								c1.3-4.2,2.3-8.5,4-12.5c1.3-2.8,2.4-5.9,5-7.8c1.9-1.7,4-3.3,6.4-4.1c-0.8,3-1.9,6-2.4,9.1c-0.8,4.9-0.7,9.9-0.3,14.9
								c2.1-6.3,5.9-12.1,11.3-16.2c3.9-3.1,8.4-5.2,12.7-7.8c0.1-0.1,0.3-0.3,0.4-0.5c1.8-1.5,3.8-2.9,5-5.1
								C139.2,729.8,140.5,721.5,138.1,714.2L138.1,714.2z"/>
							<g id="g7258">
								<path id="path3752" inkscape:connector-curvature="0" class="st1" d="M132.1,656.5c2.4-0.6,5.1-0.7,7.2,0.7
									c1.2,0.7,2.2,2,2.1,3.5c-0.1,1.2-1.6,2-2.6,1.2c-1.2-1.2-2-3.3-4.1-3c-1.8-0.3-4.7,1.7-2.9,3.5c2.7,1.7,6.4,1,9.1,2.9
									c2.7,1.9,2.5,6.4,0,8.4c-2.2,1.8-5.3,2.1-8,1.7c-2.4-0.4-4.8-2.4-5-5c-0.1-1.3,1.5-2.2,2.6-1.5c1.1,1,1.4,2.7,2.8,3.4
									c1.8,0.8,4.4,0.4,5.5-1.4c0.7-1.2-0.1-2.8-1.4-3.2c-3-1.1-7.1-0.6-9.1-3.6C126.5,661.1,128.7,657,132.1,656.5L132.1,656.5z"
									/>
								<path id="path3756" inkscape:connector-curvature="0" class="st1" d="M120.1,657.5c1.3-0.4,2.5,0.7,2.5,2
									c0.5,3.8,1.1,7.7,1.3,11.5c0.1,3-2.2,5.6-5.1,6.1c-2.8,0.6-6.2,0.9-8.5-1.2c-2.1-2.1-2.2-5.2-2.5-7.9
									c-0.2-2.6-0.8-5.1-0.8-7.7c0.2-1.8,3.3-2,3.6-0.2c0.9,3.9,0.7,8,1.8,11.9c0.7,2.7,4.2,2.9,6.2,1.6c1.4-0.8,1.5-2.5,1.4-3.9
									c-0.3-3.5-1-6.9-1.2-10.3C118.7,658.7,119.3,657.7,120.1,657.5L120.1,657.5z"/>
								<path id="path3762" inkscape:connector-curvature="0" class="st1" d="M89.5,664.7c-0.4-1.2,0.6-2.5,1.9-2.4
									c1.2-0.1,1.8,1.1,2,2.1c0.9,4.4,1.9,8.8,2.8,13.2c2.8-0.5,5.5-1.3,8.4-1.7c1.6,0,2,2.6,0.4,3c-3.3,0.9-6.7,1.5-10.1,2.2
									c-1.6,0.4-2.2-1.3-2.4-2.5C91.4,673.9,90.3,669.3,89.5,664.7z"/>
								<path id="path3764" inkscape:connector-curvature="0" class="st1" d="M80.1,666c-2.1-0.1-4,0.9-6,1.5
									c-1.3,0.5-2.9,0.8-4,1.8c-0.7,1,0,2.1,0.3,3.1c1.4,3.9,2.9,7.8,4.3,11.7c0.4,0.9,0.6,2.1,1.7,2.5c1.2,0.4,2.7-0.7,2.5-2
									c-0.4-2-1.4-3.9-1.9-5.9c2.7-1,6-1.7,7.6-4.3c1.6-3-0.1-7.5-3.6-8.3C80.7,666,80.4,666,80.1,666z M78.8,669.3
									c2.1,0,3.4,3.2,1.8,4.6c-1.3,1.1-3.1,1.5-4.6,2.1c-0.6-1.7-1.3-3.5-1.9-5.2C75.5,670.2,77.1,669.5,78.8,669.3z"/>
							</g>
						</g>
						<g id="g7749" transform="translate(0.089934,0)">
							<path id="path7704" inkscape:connector-curvature="0" class="st1" d="M116.4,519.6c-0.6,0-1.1,0-1.7,0.2
								c-3.9,0.8-6.7,5.4-5.1,9.1c0.8,2.3,2.8,3.6,4.9,4.5c-2.3,5.1-4.3,10.3-7.1,15.2c-3.6-3.7-7.4-7.3-10.9-11.1
								c1.5-1.6,3-3.5,2.9-5.9c0.1-4.6-5.2-8.3-9.4-6.4c-3.8,1.4-5.6,6.4-3.4,9.8c1.3,2.5,4.2,3.5,6.9,3.7c-0.7,5.1-1.2,10.2-2,15.3
								c-6.1-3.3-12.1-7-18.1-10.5l25.1,41.8c1.4-1.6,3.5-2.4,5.4-3.2c7.6-3,16.3-3,23.9,0c1.9,0.8,4,1.6,5.5,3.2l25-41.8
								c-6,3.5-11.9,7.1-18,10.4c-0.7-5.1-1.3-10.2-1.9-15.3c3-0.1,6.2-1.5,7.3-4.5c1.9-3.8-1-8.6-5-9.4c-4.5-1.1-9.1,3.4-8.2,7.9
								c0.3,1.9,1.6,3.4,2.9,4.8c-3.7,3.7-7.3,7.6-11.2,11.1c-2.3-5.1-4.6-10.1-6.8-15.2c2.5-1,4.8-2.9,5.3-5.7
								C123.8,523.8,120.3,519.8,116.4,519.6z M96.5,587l-0.4,0.3c-2.2,2.4-4.3,5.5-4.6,8.9c0.1,1.7,0.4,3.4,0.8,5.1l10,15.6H130
								l9.9-15.4c0.5-1.7,0.7-3.5,0.8-5.2c-0.3-3.4-2.3-6.3-4.6-8.7l0.2-0.3L96.5,587z"/>
							<g id="g7744">
								<path id="path7706" inkscape:connector-curvature="0" class="st6" d="M136.3,587.3c-6.8-5.8-16.2-8.1-25-6.8
									c-5.3,0.9-10.9,2.7-14.8,6.6c-0.1,0.2-0.4,0.5-0.5,0.6c13.4,0,26.8,0.1,40.1-0.1L136.3,587.3z"/>
								<path id="path7708" inkscape:connector-curvature="0" class="st6" d="M140.7,596.2c-16.4,0-32.8,0-49.3,0
									c0.1,1.7,0.4,3.4,0.8,5.1c12.4,0,24.7,0,37.1,0c3.5,0,7.1-0.1,10.6,0.2C140.4,599.7,140.6,598,140.7,596.2L140.7,596.2z"/>
								<path id="path7727" inkscape:connector-curvature="0" class="st6" d="M116.3,560.4c-9.8-0.1-19.6,2.9-27.7,8.4l2.4,4.1
									c8.3-5.7,18.7-8.5,28.8-7.5c7.5,0.7,14.9,3.5,21.1,7.8l2.4-4.1c-6.8-4.6-14.8-7.6-23-8.4
									C119.1,560.5,117.7,560.4,116.3,560.4z"/>
							</g>
						</g>
					</g>
				</g>
				<g id="g10322" transform="translate(0.50368259,0)">
					<path id="path9390" inkscape:connector-curvature="0" sodipodi:nodetypes="cssssscc" class="st1" d="M145.8,571.9V773
						c0,34.6,13.3,62.9,37.6,84.9c24.2,22,58.3,30.1,94.7,30.1s70.5-8.1,94.7-30.1s37.6-50.3,37.6-84.9V571.9H145.8z"/>
					<g id="g7587">
						<g id="g6595">
							<path id="path4022" inkscape:connector-curvature="0" sodipodi:nodetypes="cccccc" class="st5" d="M157.6,582.3l114.5-0.1
								l0.1,122.6H157.6V582.3L157.6,582.3z"/>
							<g id="g6588">
								
									<path id="path3738" inkscape:connector-curvature="0" sodipodi:nodetypes="ccccccccccccccccccccccccccccccccccccccccccccccccccc" class="st1" d="
									M203.9,587.3h5.1v4.5h11.8l0.1-4.5h5.1v9h-7.4v33.8h14.9v-15.2h-7.4v-9h5.1v4.4H243v-4.4h5.1v9h-7.5v15.2h11.3v13.2h-11.8
									v29.9h4.1v17.3l-19.1,0.1h-20.8l-28.9-0.1v-17.3h14v-29.9h-11.8v-13.2H189v-15.2h-7.4v-9h5.1v4.4h11.8v-4.4h5.1v9h-7.4v15.2
									h14.9v-33.8h-7.4L203.9,587.3"/>
								<g id="g6583">
									<path id="path3844" inkscape:connector-curvature="0" class="st4" d="M198.1,652.4c4.4,0,8.7,0,13.1,0c0,3.8,0,7.6,0,11.4
										c-4.4,0-8.7,0-13.1,0C198.1,660,198.1,656.2,198.1,652.4z"/>
									<path id="path3846" inkscape:connector-curvature="0" class="st4" d="M218.7,652.4c4.3,0,8.6,0,12.9,0
										c0,3.8,0.1,7.6,0,11.5c-4.3-0.1-8.6,0-12.9,0C218.7,660,218.7,656.2,218.7,652.4L218.7,652.4z"/>
									<path id="path3850" inkscape:connector-curvature="0" class="st4" d="M204.6,677.6c6.9,0,13.8,0,20.7,0
										c0,4.4-0.1,8.7,0.1,13.1c-6.9,0.2-13.8,0.2-20.8,0C204.6,686.3,204.5,681.9,204.6,677.6L204.6,677.6z"/>
								</g>
							</g>
						</g>
						<g id="g6604">
							<path id="path4032" inkscape:connector-curvature="0" sodipodi:nodetypes="ccccc" class="st5" d="M173.8,716.7h11.7v128
								c-4.3-4.8-8.5-9.8-11.6-15.4L173.8,716.7z"/>
							<path id="path4034" inkscape:connector-curvature="0" sodipodi:nodetypes="ccccc" class="st5" d="M197.6,716.7h11.7
								l-0.1,146.1c-4.1-2-7.9-4.7-11.6-7.4L197.6,716.7z"/>
							<path id="path4036" inkscape:connector-curvature="0" sodipodi:nodetypes="ccccc" class="st5" d="M220.5,716.7h11.7v130.5
								c-3.7,3.3-7.5,6.4-11.7,9V716.7z"/>
							<path id="path4046" inkscape:connector-curvature="0" sodipodi:nodetypes="cccccc" class="st5" d="M244.4,716.7H256
								l-0.1,98.7l-11.5,18.4V716.7L244.4,716.7z"/>
						</g>
						<g id="g6576">
							<path id="path3937" inkscape:connector-curvature="0" sodipodi:nodetypes="ccccc" class="st7" d="M284,582.2h114.4l0.1,122.6
								H284V582.2"/>
							<g id="g6472">
								
									<path id="path4024" inkscape:connector-curvature="0" sodipodi:nodetypes="ccccccccccccccccccccccccccccccccccccccccccccccccccccccccccccccccccccccccccccccccccccccccccccccccccccccccccccccccccccccccccccccccccccccccccccccccccccccccccccccccc" class="st5" d="
									M375.8,604.4c0.8-4.1,5.6-4.7,7.8-7.8c-0.4,2.2-0.4,4.6-1.7,6.4c-1.1,1.6-2.4,3-3.6,4.5c1.5-0.3,3-0.5,4.5-0.6
									c-1.7,2-3.5,4-4.4,6.4c-0.6,1.7-1.2,3.6-2.6,4.8s-3.5,2.1-3.8,4.2c-0.7,4.1-0.2,8.5,1.5,12.4c1.2,3.3,2.7,6.6,3.4,10.1
									c0.5,4.2,0,9.2-3.4,12.2c-2.2,2-5.2,2.1-7.9,3c-1.8,1.1-2.7,3.3-3,5.3c-0.2,2.3-0.3,5.1,1.6,6.9c0.9,1.1,2.4,1.5,3.7,1.9
									c0.6,1.1,1.4,2.1,1.8,3.3c0.2,1.1-0.7,1.9-1.2,2.8c-1.9,2.5-3,5.6-3.5,8.6c-0.4,2.1,1.2,3.7,1.6,5.6
									c-0.6,0.4-1.5,0.6-1.8,1.3c-0.6,1.2,0.2,2.4,0.3,3.6c-1.6-0.7-3.3-1.8-3.4-3.8c-0.2-0.2-0.7-0.5-0.9-0.7
									c-0.1-1.2-0.3-2.3-0.8-3.4c-0.5,1.1-0.7,2.2-0.9,3.3c-0.9,0.2-1.9,0.2-2.6,0.7c-0.7,0.6-0.6,1.7-0.9,2.5
									c-0.5-1-1.1-1.9-1.4-2.9c0.4-1.6,0.5-3.8,2.2-4.7c0.6-0.4,1.2-0.7,1.8-1.1c-1-0.7-2.1-0.1-3.2-0.2c-1-0.4-1.9-1.1-3-1.2
									c-1,0.2-1.9,0.8-2.8,1.2c0.6-1.1,1-2.6,2.1-3.3c0.8-0.3,1.6-0.4,2.4-0.5c0.7-0.8,1.6-1.4,2.7-0.8c1.8,0.9,4.3-0.3,4.3-2.5
									c0.2-2.5-2.7-3.2-3.4-5.3c-0.1,1.4-0.3,2.9-0.4,4.3c-1.3-1.4-2.4-3-3-4.9c-0.1,1.8,0,3.5,0.7,5.2c-1.5-1.4-3.1-2.7-4.3-4.3
									c-1.8-3.1-2.4-7.1-0.7-10.4c-2.1,0.2-4.3-0.4-6.3,0.2c-1.1,1.3-0.7,3.1-0.5,4.6c0.4,2.7,1.6,5.3,1.7,8.1
									c-0.6,1.3-1.9,3-3.5,2.1c-2.5-1.1-5.2-0.3-7.7-1.2c-0.9-0.5-2-0.2-2.6,0.7c0,0.7-0.1,1.4,0,2.1c-0.9,0.4-2.2,0.6-2.6,1.7
									c-0.1,0.7-0.1,1.4-0.1,2.2c-3.2-1.6-2.7-5.7-1.1-8.3c-1.3,0.1-2.4,0.8-3.5,1.5c-0.7-0.7-1.5-1.6-2.6-1.6
									c-1.1-0.3-2,0.7-3,1.2c0.3-1.1,0.4-2.2,1.1-3.1c0.8-1,2.8-0.5,2.9-2.1c1.3,0.3,2.6,0.5,3.9,0.8c0.4-1.4-0.9-2.2-1.7-3.1
									c0.2-1.9-1.5-3-3.2-2.9c1.6-1.4,3.9-2,5.7-0.6c0.7-0.3,1.8-0.3,1.8,0.8c0.2,1.8,1.4,3.5,3.1,4.2c1.8,0.5,3.6,0,5.3-0.4
									c-0.1-1.9-0.1-3.7-0.1-5.6c-0.8,1-1.4,2-2.1,3.1c-0.6-2.1,0.2-4.4-0.4-6.6c-0.6,1.5-0.9,3.1-1.2,4.7c-1.8-2.3-0.8-5.4-0.9-8
									c0.6-2.4,2.7-4.9,5.4-4.7c3.4,0,6.9,0.3,10.2-0.7c-3.8-2.4-8.2-3.9-11-7.5c-1.6-1.7-2.6-3.9-3.3-6.2c-3,0.5-5.2,3-6.7,5.5
									c0-1.5,0.1-2.9,0.1-4.4c-1,2.9-3.5,4.6-5.7,6.5c0.1-1.3,0.3-2.7,0.4-4c-1.7,2.1-4.6,1.4-6.7,2.6c-0.3,1.6,0.6,3.6-1,4.7
									c-1.4,0.9-0.8,2.6-0.6,4c-2.5-0.8-3.4-3.4-3.5-5.8c0.4-0.8,0.9-1.5,1.4-2.2c-1.1,0.3-2.2,0.6-3.2,0.9
									c-1.4-0.9-3.2-1.5-4.6-0.3c0.2-1.2,0.5-2.6,1.7-3.2c1.7-1.1,4-1,5.7-2.1c-1.2-0.6-2.4-1.2-3.7-1.7c0-0.4,0.1-1.1,0.1-1.5
									c-1.1-0.6-2.3-0.7-3.6-0.6c0.8-0.8,1.5-1.8,2.6-2.1c1.3-0.1,2.7,0.2,4,0.1c1,1,1.6,2.9,3.4,2.7c4.4,0.2,7.3-3.6,10.8-5.7
									c-1.7-1.2-3.1-2.9-4.6-4.3c-2.5-1.5-5.5-1.8-8.3-2.7c1.2-0.7,2.3-1.5,3.4-2.3c-2.4,0.1-4.4-1.6-6.8-1.8c1.5-0.6,3-1,4.6-1.1
									c-2.3-1-3-3.6-4.5-5.3c-1.2,0.4-2.5,1.4-3.7,0.6c-1.6-0.8-3.3-0.4-4.7,0.6c0.2-1,0.3-2.1,0.8-3c0.9-0.9,2.1-1.5,3-2.4
									c1.1-0.1,2.2-0.1,3.3-0.1c-0.9-1.3-2.3-2.1-3.6-3c-0.3-0.9-0.3-2.1-1.2-2.7c-0.9-0.2-1.9-0.3-2.8-0.5
									c1.7-1.6,4.5-2.7,6.3-0.7c0.4-0.1,0.9-0.2,1.3-0.3c0.8,1.1,1.6,2.4,2.9,3.1c0.2-1.5,0.3-2.9,0.2-4.4c2.1-0.7,2.5-3,1.9-4.8
									c0.9,0.8,2.2,1.4,2.5,2.7c0.3,1.2,0.4,2.4,0.9,3.5c-0.8,1.7-2.4,3.1-2.2,5.1c0.4,1.6,1.4,3.1,2.7,4.2
									c1.7,1.1,3.7,1.6,5.2,2.8c1.8,1.4,3.7,2.8,5.9,3.5c3.6-1.1,8.2,0.9,11.1-2.3c1-2.2-2.8-2.6-2.9-4.5c0.6-0.7,1.2-1.3,1.9-1.9
									c0.3,0.3,0.7,0.6,1.1,1c0.2-0.3,0.7-0.9,0.9-1.2c0.3,0.3,0.8,0.9,1.1,1.2c1-0.3,2.1-0.8,2.5-1.9c-3.3-0.6-6.6-0.3-9.9-0.4
									c-2.5,0-4.2-2.1-5.7-3.8c-1.1-1.4-2.6-2.4-4.1-3.4c2-0.7,4.3-1.4,6.3-0.5c2,1.4,3.5,3.4,5.8,4.5c2.5,1.4,5.4,1.5,8.2,1.3
									c-0.3-0.7-0.3-1.7-1.1-2.1c-0.7-0.7-1.4,0.4-2.1,0.6c-0.1-0.4-0.3-1.1-0.4-1.5c-0.6,0.3-1.2,0.6-1.8,1
									c-0.6-1.7-2.1-3.1-2.2-5c-0.4-1,0.8-1.5,1.5-1.6c2-0.5,4.3,0,6.2-0.9c0.9-1.8,2.6-3.2,4.7-2.9c4.6,2.1,8.8,5.3,11.7,9.5
									c0.5,2.2,0.1,4.4,0.1,6.7c0.2,1.6,0.9,3.1,1.2,4.7c-1-0.7-2.1-1.5-3.1-2.3c0.1,2.3,0.6,4.8,2.4,6.5c1.5,1.4,1.8,3.4,1.9,5.4
									c-1.1-1.5-2.7-2.4-4.4-3.2c1.6,2.1,1.4,4.8,0.7,7.2c-1.2-1.8-2.6-3.4-4.4-4.8c1.3,3.3,0.9,6.9,0.7,10.4
									c-1.1-1.3-2.3-2.5-3.6-3.6c0.4,1.4,0.7,2.8,1,4.2c1,4.8,3.6,9.1,6.5,13c2.1,2.7,5.6,4.6,9,3.8c2.5-0.3,4.7-2.2,5.2-4.6
									c0.8-3.6,0-7.2-1-10.7c-1.2-3.8-2.2-7.7-2.5-11.7c-0.3-3.5,1.3-6.8,1-10.3c-0.2-2.1-0.2-4.1,0.2-6.2
									c0.8-4.4,3.8-8.1,3.7-12.7C375.1,600.1,375.7,602.2,375.8,604.4"/>
								<path id="path4095" inkscape:connector-curvature="0" class="st8" d="M346.9,587.4c-0.2,0-0.4,0-0.6,0
									c0.7,1.1,1.2,2.4,1.2,3.8c0.7,0.6,2.5,1.4,2.7-0.1c0.1-1-0.4-1.4-1.5-1.3C349.2,588.4,348.2,587.5,346.9,587.4L346.9,587.4z
									 M353.8,590.4c-0.2,0-0.4,0-0.5,0c0,0.3-0.1,0.9-0.1,1.2c-0.5-0.2-1-0.4-1.6-0.7c-1.1,1-0.6,2.3,0.8,2.7
									c-0.9,0.8-2,0.3-2.9-0.1c-0.3-0.5-0.7-1-1.1-1.3c-0.4,1.6-0.5,3.2-1,4.8l0.3,0.1c4.6,2.1,8.8,5.3,11.7,9.5l0.2,0.2
									c2.9-1.7,6.5-2.1,9.6-1c-0.3-0.9-0.7-1.7-1.4-2.3c-0.5,0.2-1,0.4-1.5,0.6c-0.1-0.3-0.3-0.9-0.4-1.3c-1.3-0.7-2.5,1-1.2,1.9
									c-0.7-0.2-1.3-0.4-2-0.5c-0.4-0.7-0.9-1.3-1.3-2c0.5-1.2,1.3-0.9,1.6,0.3c1.3-0.3,2-1.5,0.9-2.5l1-0.6
									c-0.1-0.3-0.2-0.9-0.3-1.2c-0.3-0.1-1-0.3-1.3-0.4c-0.3,0.4-0.7,0.8-1,1.2c-0.1-0.3-0.3-1-0.5-1.3c-0.6,0.4-1.2,0.8-1.8,1.3
									c0.5,0.6,0.9,1.2,1.4,1.8c-1.7,0.6-3.3-1.1-3.9-2.4c-0.2-1.5,1.2-0.9,1.7-0.1c1.3-0.4,1.7-2.3,0-2.4c0.5-0.3,1-0.5,1.5-0.8
									c-0.4-1.2-1.7-1.9-2.6-0.8c-1.1-0.6-2.1,0.1-2.3,1.3c0.4,0.3,1.1,0.8,1.5,1.1c-0.7,0.3-1.3,0.6-2,0.8
									c-0.2-0.3-0.5-0.9-0.7-1.2c-0.4-0.1-1.2-0.3-1.5-0.4c0.1-0.7,0.2-1.4,0.3-2.1c0.3,0.3,0.9,1,1.1,1.3c1.2-0.7,1.7-2.3,0-2.7
									C356,591.8,355,590.5,353.8,590.4L353.8,590.4z"/>
								<path id="path4098" inkscape:connector-curvature="0" class="st9" d="M344.6,600.1c2.3-0.1,4,1.4,5,3.4
									c-1.2-0.5-2.4-0.8-3.7-0.9C345.4,601.7,344.9,600.9,344.6,600.1z"/>
							</g>
						</g>
						<g id="g6570">
							<path id="path3951" inkscape:connector-curvature="0" sodipodi:nodetypes="ccccccccc" class="st7" d="M254.4,841
								c11.6-14.9,19-32.5,23.7-50.6c5.7,23.2,16.7,45.6,34.1,62.3c6.7,6.4,14.4,12,22.9,15.9c-11.1,4.6-22.9,7.2-34.8,8.7
								c-12.7,1.5-25.5,1.6-38.2,0.6c-13.8-1.2-27.6-3.9-40.5-9.1c0-0.1,0.1-0.3,0.1-0.5C234.6,862,245.7,852.3,254.4,841"/>
							<g id="g6566">
								<path id="path4101" inkscape:connector-curvature="0" class="st10" d="M276.1,823.4c0.6-1.6,1-3.4,2.1-4.7
									c2.2,5.3,3.9,10.9,3.9,16.7c1.8-3.2,5.1-5,7.8-7.3c-1.8,4.1-2.8,8.5-3.1,13c-0.4,3.4-0.1,7-1.6,10.2c-1,2.2-3.4,3.2-5.6,3.3
									c-2.9,0.2-6.3,0.1-8.2-2.4c-1.8-2.6-1.7-5.9-2-8.9c-0.3-5.2-1-10.6-3.4-15.3c2.8,2.2,6,4.1,7.9,7.3
									C274.1,831.3,274.8,827.2,276.1,823.4z"/>
								<path id="path4126" inkscape:connector-curvature="0" class="st11" d="M258,853.6c4.2-0.6,8.7-0.2,12.5,1.8
									c1.9,0.9,3.6,2.1,5.4,3.3c0-1.3-0.1-2.6-0.1-3.8c1.7,0,3.3,0,5,0c0,1.2-0.1,2.4-0.2,3.7c4.8-4,11.2-6,17.4-5
									c-0.4,3.2-2.2,6.1-4.8,8c-3.7,2.8-8.3,4.1-12.8,5.1c0,2.9,0,5.7,0,8.6c-1.6,0-3.3,0-4.9,0c0-2.9,0-5.7,0-8.6
									c-5.1-1.1-10.5-2.6-14.3-6.4C259.4,858.4,258.5,856,258,853.6L258,853.6z"/>
							</g>
						</g>
						<g id="g7554">
							<path id="path6477" inkscape:connector-curvature="0" sodipodi:nodetypes="cccccccc" class="st5" d="M398.6,716.7
								c0,17.9,0,35.8,0,53.7c-0.1,22.8-6.6,45.9-20,64.6c-8.1,11.4-18.9,20.8-31,27.7c-16.9-7.2-30.6-20.4-40.6-35.5
								c-11.8-18-18.3-39-21.1-60.2v-50.3H398.6z"/>
							<g id="g7523">
								<g id="g7024">
									<path id="circle6725" inkscape:connector-curvature="0" class="st1" d="M378,727.5c-5.6,0-10.1,4.5-10.1,10.1l0,0
										c0,5.6,4.5,10.1,10.1,10.1l0,0c5.6,0,10.1-4.5,10.1-10.1S383.6,727.5,378,727.5L378,727.5z M378,730.2
										c4.1,0,7.4,3.3,7.4,7.4c0,4.1-3.3,7.4-7.4,7.4s-7.4-3.3-7.4-7.4S373.9,730.2,378,730.2z"/>
									<path id="circle6731" inkscape:connector-curvature="0" class="st1" d="M376,762c-5.6,0-10.1,4.5-10.1,10.1l0,0
										c0,5.6,4.5,10.1,10.1,10.1l0,0c5.6,0,10.1-4.5,10.1-10.1S381.6,762,376,762L376,762z M376,764.7c4.1,0,7.4,3.3,7.4,7.4
										c0,4.1-3.3,7.4-7.4,7.4s-7.4-3.3-7.4-7.4S371.9,764.7,376,764.7z"/>
									<path id="circle6737" inkscape:connector-curvature="0" class="st1" d="M365.3,796c-5.6,0-10.1,4.5-10.1,10.1l0,0
										c0,5.6,4.5,10.1,10.1,10.1s10.1-4.5,10.1-10.1l0,0C375.4,800.5,370.8,796,365.3,796L365.3,796z M365.3,798.6
										c4.1,0,7.4,3.3,7.4,7.4c0,4.1-3.3,7.4-7.4,7.4s-7.4-3.3-7.4-7.4C357.8,802,361.2,798.6,365.3,798.6z"/>
									<path id="path6921" inkscape:connector-curvature="0" class="st1" d="M307.2,727.5c5.6,0,10.1,4.5,10.1,10.1l0,0
										c0,5.6-4.5,10.1-10.1,10.1l0,0c-5.6,0-10.1-4.5-10.1-10.1S301.6,727.5,307.2,727.5L307.2,727.5z M307.2,730.2
										c-4.1,0-7.4,3.3-7.4,7.4c0,4.1,3.3,7.4,7.4,7.4s7.4-3.3,7.4-7.4S311.3,730.2,307.2,730.2z"/>
									<path id="path6923" inkscape:connector-curvature="0" class="st1" d="M309.2,762c5.6,0,10.1,4.5,10.1,10.1l0,0
										c0,5.6-4.5,10.1-10.1,10.1l0,0c-5.6,0-10.1-4.5-10.1-10.1S303.6,762,309.2,762L309.2,762z M309.2,764.7
										c-4.1,0-7.4,3.3-7.4,7.4c0,4.1,3.3,7.4,7.4,7.4s7.4-3.3,7.4-7.4S313.3,764.7,309.2,764.7z"/>
									<path id="path6925" inkscape:connector-curvature="0" class="st1" d="M319.9,796c5.6,0,10.1,4.5,10.1,10.1l0,0
										c0,5.6-4.5,10.1-10.1,10.1s-10.1-4.5-10.1-10.1l0,0C309.8,800.5,314.3,796,319.9,796L319.9,796z M319.9,798.6
										c-4.1,0-7.4,3.3-7.4,7.4c0,4.1,3.3,7.4,7.4,7.4s7.4-3.3,7.4-7.4C327.3,802,324,798.6,319.9,798.6z"/>
									<path id="circle6755" inkscape:connector-curvature="0" class="st1" d="M342.6,823.1c-5.6,0-10.1,4.5-10.1,10.1l0,0
										c0,5.6,4.5,10.1,10.1,10.1l0,0c5.6,0,10.1-4.5,10.1-10.1S348.2,823.1,342.6,823.1L342.6,823.1z M342.6,825.8
										c4.1,0,7.4,3.3,7.4,7.4c0,4.1-3.3,7.4-7.4,7.4s-7.4-3.3-7.4-7.4S338.5,825.8,342.6,825.8z"/>
									<path id="circle6715" inkscape:connector-curvature="0" class="st1" d="M342.6,727.5c-5.6,0-10.1,4.5-10.1,10.1l0,0
										c0,5.6,4.5,10.1,10.1,10.1l0,0c5.6,0,10.1-4.5,10.1-10.1S348.2,727.5,342.6,727.5L342.6,727.5z M342.6,730.2
										c4.1,0,7.4,3.3,7.4,7.4c0,4.1-3.3,7.4-7.4,7.4s-7.4-3.3-7.4-7.4S338.5,730.2,342.6,730.2z"/>
								</g>
								<g id="g7519">
									<path id="circle6749" inkscape:connector-curvature="0" sodipodi:nodetypes="sssss" class="st1" d="M342.6,758.5
										c-7.5,0-13.6,6.1-13.6,13.6s6.1,13.6,13.6,13.6s13.6-6.1,13.6-13.6S350.1,758.5,342.6,758.5z"/>
									<path id="path7051" inkscape:connector-curvature="0" sodipodi:nodetypes="ccccc" class="st4" d="M342.6,760.7
										c6.3,0,11.4,5.1,11.4,11.4c0,6.3-5.1,11.4-11.4,11.4s-11.4-5.1-11.4-11.4S336.3,760.7,342.6,760.7z"/>
								</g>
								<g id="g7421">
									<path id="path6697" inkscape:connector-curvature="0" sodipodi:nodetypes="ccccc" class="st1" d="M354.6,770.8h13.1v2.6
										h-13.1V770.8z"/>
									<path id="rect6634" inkscape:connector-curvature="0" sodipodi:nodetypes="ccccc" class="st1" d="M350.1,732.1h20.6v2.6
										h-20.6V732.1z"/>
									<path id="path6699" inkscape:connector-curvature="0" sodipodi:nodetypes="ccccc" class="st1" d="M350.2,762.3l19.9-21.3
										l1.9,1.8l-19.7,21.1L350.2,762.3z"/>
									<path id="path6701" inkscape:connector-curvature="0" sodipodi:nodetypes="ccccc" class="st1" d="M347.9,783.7l12.3,15.6
										l2-1.7l-11.9-15.1L347.9,783.7z"/>
									<path id="path6721" inkscape:connector-curvature="0" sodipodi:nodetypes="csccsscc" class="st12" d="M369.4,814.9
										c-3.5,5.5-7.1,11.8-11.4,16.4c-2.8,3.1-6.1,5.7-9.4,8.1l-1.3,2.7c0.1,0,1.9-1.1,2-1.1c9.8-5.4,16.3-15,22.3-25.3
										c0.1-0.1,2.3-4.4,2.4-4.5L369.4,814.9z"/>
									<path id="path6879" inkscape:connector-curvature="0" sodipodi:nodetypes="ccccc" class="st1" d="M364.6,797l17.7-16.9
										l-4.9,1.1l-17.1,16.3L364.6,797z"/>
									<path id="path6909" inkscape:connector-curvature="0" sodipodi:nodetypes="ccccc" class="st1" d="M330.6,770.8h-13.1v2.6
										h13.1V770.8z"/>
									<path id="path6911" inkscape:connector-curvature="0" sodipodi:nodetypes="ccccc" class="st1" d="M335.1,732.1h-20.6v2.6
										h20.6V732.1z"/>
									<path id="path6913" inkscape:connector-curvature="0" sodipodi:nodetypes="ccccc" class="st1" d="M335,762.3L315.1,741
										l-1.9,1.8l19.7,21.1L335,762.3z"/>
									<path id="path6915" inkscape:connector-curvature="0" sodipodi:nodetypes="ccccc" class="st1" d="M337.2,783.7L325,799.3
										l-2-1.7l11.9-15.1L337.2,783.7z"/>
									<path id="path6917" inkscape:connector-curvature="0" sodipodi:nodetypes="cccccc" class="st1" d="M317.5,766.7l-18.1-27
										l-0.3,3.7l13.9,21.3l2.3,1.9L317.5,766.7z"/>
									<path id="path6919" inkscape:connector-curvature="0" sodipodi:nodetypes="csccsscc" class="st12" d="M315.8,814.9
										c3.5,5.5,7.1,11.8,11.4,16.4c2.8,3.1,6.1,5.7,9.4,8.1l1.3,2.7c-0.1,0-1.9-1.1-2-1.1c-9.8-5.4-16.3-15-22.3-25.3
										c-0.1-0.1-2.3-4.4-2.4-4.5L315.8,814.9z"/>
									<path id="path6927" inkscape:connector-curvature="0" sodipodi:nodetypes="ccccc" class="st1" d="M320.6,797l-17.7-17
										l4.9,1.1l17.1,16.3L320.6,797z"/>
									<path id="path6711" inkscape:connector-curvature="0" sodipodi:nodetypes="ccccc" class="st1" d="M343.9,759.4v-13.6h-2.6
										v13.6H343.9z"/>
									<path id="path6883" inkscape:connector-curvature="0" sodipodi:nodetypes="ccccc" class="st1" d="M343.9,825.4v-41.1h-2.6
										v41.1H343.9z"/>
									<path id="path6703" inkscape:connector-curvature="0" sodipodi:nodetypes="cccccc" class="st1" d="M367.6,766.7l18.1-27
										l0.3,3.7l-13.9,21.3l-2.3,1.9L367.6,766.7z"/>
								</g>
							</g>
						</g>
						<g id="g6479">
							<path id="path6461" inkscape:connector-curvature="0" sodipodi:nodetypes="cccccccccc" class="st4" d="M244.3,658.5l0.1,74.6
								c1.1,9.7,4.1,20,11.6,26.7c2.2,1.8,4.6,3.6,7.2,4.8c4.7,2.3,9.6,3.1,14.9,3.1c5.2,0.1,10.1-0.8,14.9-3.1c2.6-1.2,5-3,7.2-4.8
								c7.5-6.7,10.5-17,11.6-26.7l0.1-74.6H244.3z"/>
							
								<path id="path6463" inkscape:connector-curvature="0" sodipodi:nodetypes="cccccccccccccccccccccccccccccccccccccccccccccccccccc" class="st1" d="
								M262.3,673.7c-2.2,2.4-2.3,6-2,9.1c-2.9-0.4-6.3-1-8.9,1c-1.9,1.8-2,4.6-1.7,7c1.4-1.2,2.5-3,4.4-3.7
								c1.6-0.3,2.5,1.3,3.1,2.5c1.4,3.4,1.9,7.1,2.4,10.7c-2.2,0.2-4.6,0.5-6.2,2.1c3.4,0.9,6.9,2.3,10.4,1.8
								c2.4-0.4,4.7-1.1,7.1-1.8c-1.6-1.7-4.1-1.9-6.2-2.1c0.5-3.6,1-7.3,2.4-10.7c0.6-1.2,1.4-2.7,2.9-2.5c2,0.6,3.1,2.5,4.6,3.8
								c0.2-2.5,0.2-5.4-1.9-7.2c-2.4-1.9-5.8-1.3-8.6-0.9C264.3,679.7,263.9,676.4,262.3,673.7z M294.3,673.9
								c-0.8,0-0.9,0.8-1.2,1.3c-1,2.4-1.3,5-0.9,7.6c-2.9-0.4-6.3-1-8.8,1c-1.9,1.8-2.1,4.6-1.7,7.1c1.3-1.2,2.4-2.8,4.1-3.6
								c1.5-0.6,2.7,0.8,3.2,2c1.6,3.4,2,7.3,2.6,11c-2.2,0.2-4.6,0.5-6.3,2c3.6,1,7.3,2.5,11.1,1.7c2.2-0.4,4.3-1.1,6.5-1.7
								c-1.7-1.6-4.1-1.9-6.3-2.1c0.6-3.4,0.9-6.9,2.2-10.2c0.6-1.3,1.4-3.2,3.2-3c2,0.5,3.1,2.5,4.6,3.8c0.2-2.5,0.2-5.5-1.9-7.2
								c-2.4-1.9-5.8-1.3-8.6-0.9C296.2,679.8,296,676.5,294.3,673.9z M278.1,710.5c-2.6,3.6-3.4,8.3-2.6,12.7
								c-4.1-0.7-8.9-1.4-12.6,1.1c-3,2.2-3.1,6.3-2.8,9.7c2.5-1.5,4-4.7,7.1-4.9c2.2,0.2,3.3,2.4,4.1,4.1c1.8,4.4,2.5,9.1,3.1,13.7
								c-3.1,0.4-6.7,0.6-9.1,3c4.6,1,9.1,2.8,13.9,2.5c4-0.2,7.7-1.7,11.6-2.5c-2.3-2.5-5.9-2.6-9-3c0.8-4.9,1.4-9.9,3.5-14.4
								c0.8-1.7,2.1-3.7,4.2-3.4c2.9,0.5,4.3,3.4,6.6,4.9c0.6-3.5,0.1-7.8-3.2-9.9c-3.6-2.2-8.1-1.5-12.1-0.9
								C281.2,718.9,280.8,714.2,278.1,710.5z"/>
						</g>
					</g>
				</g>
			</g>
		</g>
		
			<path id="path3716" inkscape:connector-curvature="0" sodipodi:nodetypes="ccscccccccccccccccccccccccccccccccccccccccccccccsccccccccccccccccccccccccccccccccccccccccccc" class="st1" d="
			M278.5,382.9c-26.1,0-52.1,1.5-78,4.6c-23.8,3.4-50.4,7.8-74.8,14.3c-28.3,7.5-55.9,17.5-82.2,30.6c-10.6,5.6-21.2,11.3-31,18.3
			c12.3,25.7,21.9,52.6,28,80.4c9.6,42.3,11.4,86,7.9,129.1c-2.7,36.5-9.8,72.4-16.3,108.3c-2,11.9-3.9,23.9-4.4,36
			c-0.3,10.4,1.6,20.6,4.6,30.5c6.8,22.1,18.9,42.3,33.6,60.1c2.9,3.6,6.1,6.9,8.8,10.6c-3.5-0.9-7-2-10.7-1.9
			c-7-0.3-13.8,1.6-20.2,4.2c-12.3,5.1-23.3,12.9-33.4,21.5c-4,3.8-9.2,7.5-10.3,13.3v0.6c0.8,3.8,3.3,6.8,5,10.3
			c5.6,10.2,11.1,20.5,16.8,30.7c10.5,2.3,21.3,1.1,31.9,0.1c14.9-1.8,29.6-4.6,44.1-8.1c2-0.4,4-1.3,6.1-1.1
			c28,19.7,57.4,37.5,88.3,52.2c22.1,10.4,45.2,19.2,69.3,23.3c3.7,0.7,7.5,0.8,11.1,1.5h5.8h5.8c3.7-0.7,7.5-0.8,11.1-1.5
			c24.2-4.1,47.2-12.9,69.3-23.3c30.9-14.7,60.3-32.5,88.3-52.2c2.1-0.2,4.1,0.7,6.1,1.1c14.5,3.5,29.3,6.4,44.1,8.1
			c10.6,1,21.4,2.2,31.9-0.1c5.7-10.2,11.2-20.5,16.8-30.7c1.6-3.4,4.2-6.5,5-10.3v-0.6c-1.1-5.8-6.3-9.4-10.3-13.3
			c-10.1-8.6-21.1-16.4-33.4-21.5c-6.4-2.6-13.3-4.5-20.2-4.2c-3.7-0.2-7.2,1-10.7,1.9c2.7-3.7,5.9-7,8.8-10.6
			c14.6-17.8,26.8-38,33.6-60.1c3-9.9,4.9-20.2,4.6-30.5c-0.5-12.1-2.4-24.1-4.4-36c-6.4-35.9-13.6-71.9-16.3-108.3
			c-3.5-43.1-1.7-86.8,7.9-129.1c6.2-27.8,15.7-54.8,28-80.4c-9.7-7.1-20.3-12.8-31-18.3c-26.3-13-53.9-23.1-82.2-30.6
			c-24.4-6.5-51-10.8-74.8-14.3C330.6,384.4,304.6,382.9,278.5,382.9L278.5,382.9z M278.5,392.6c9.6,0,18.3,0.2,27.8,0.6
			c42.8,1.9,85.6,8.2,126.8,20.2c24.1,7.1,47.8,16,70.1,27.6c8.7,4.6,17.3,9.5,25.3,15.3c-1.3,4-3,7.9-4.4,11.9
			c-16.9,46.5-25.7,95.7-26.8,145.1c-0.8,28.8,1.1,57.6,4.4,86.2c2.9,25.6,7.4,50.9,10.8,76.5c1.7,13.5,3.3,27.2,1.2,40.7
			c-2.5,17.7-9.3,34.6-18.1,50.1c-12.2,21.2-28.6,39.8-47.4,55.5c-40.9-17.8-84.1-30.9-128.3-36.9c-13.6-1.7-27.8-2.4-41.6-2.6
			c-13.8,0.2-28,0.8-41.6,2.6c-44.3,6.1-87.4,19.2-128.3,36.9c-18.8-15.6-35.3-34.2-47.4-55.5c-8.8-15.5-15.5-32.4-18.1-50.1
			c-2-13.5-0.5-27.2,1.2-40.7c3.5-25.5,7.9-50.9,10.8-76.5c3.3-28.6,5.2-57.4,4.4-86.2c-1.1-49.4-10-98.6-26.8-145.1
			c-1.4-4-3.1-7.9-4.4-11.9c8-5.8,16.6-10.7,25.3-15.3c22.3-11.6,46-20.5,70.1-27.6c41.2-12,84-18.3,126.8-20.2
			C260.2,392.8,268.9,392.6,278.5,392.6z M249.8,937.7c-1.2,1.2-2.8,1.9-4.2,2.9c-11.5,7.5-20.3,19-24.6,32
			c-12.3-3.6-24.3-8-36.4-12.3c-4.4-1.7-8.8-3.2-13.1-5c1.5-0.9,3.2-1.3,4.8-1.8C200.2,945.9,224.7,939.7,249.8,937.7z M307.2,937.7
			c25,2,49.5,8.2,73.4,15.7c1.6,0.5,3.3,0.9,4.8,1.8c-4.3,1.8-8.7,3.3-13.1,5c-12,4.3-24.1,8.7-36.4,12.3c-4.3-13-13.1-24.6-24.6-32
			C310,939.6,308.4,938.9,307.2,937.7z"/>
		<g id="g11448">
			<g id="g11429">
				<g id="g11422">
					<path id="path4074" inkscape:connector-curvature="0" class="st5" d="M41.5,916.8c2.9-1.6,5.9-3.8,9.4-3.1
						c4.6,0.9,8,4.4,11.4,7.4c4.7,4.7,9.5,9.5,13.9,14.5c-20.9,7-42.9,11.8-65,11.5c-1.8-1.2-2.4-3.7-1.5-5.6
						c1.5-3.7,4.7-6.4,7.6-8.9C24.7,926.4,33,921.5,41.5,916.8L41.5,916.8z"/>
					<path id="path4078" inkscape:connector-curvature="0" class="st5" d="M66.7,913.6c5.4,1.9,9.8,5.7,14.1,9.3c2.9,2.6,6,5,8.4,8
						c-2.4,0.9-4.8,1.8-7.3,2.6C77,926.8,71.3,920.7,66.7,913.6z"/>
					<path id="path4082" inkscape:connector-curvature="0" class="st5" d="M86.9,920.3c5.4-0.4,9.8,3.3,14.1,6
						c-1.6,0.7-3.2,1.4-4.7,2.1c-1.9-1.6-3.9-3.2-6-4.6C89,922.8,87.4,922,86.9,920.3z"/>
					<path id="path4086" inkscape:connector-curvature="0" class="st5" d="M150,962.2c5-1.7,10-3.3,15-4.9
						c17.9,7.4,36.1,13.9,54.4,20.1c-1.2,4.8-1.6,9.6-1.7,14.5c-20.7-7.3-40.8-16.3-60.6-25.9C154.8,964.7,152.2,963.7,150,962.2
						L150,962.2z"/>
					<path id="path4090" inkscape:connector-curvature="0" class="st5" d="M116.3,972.4c4-1.1,8-2.3,12-3.4
						c16.7,10.1,34.1,19,51.9,27c13.4,6,27.1,11.5,41.1,16c2.6,7.4,6.8,14.1,11.9,20c-19.3-5.7-37.9-13.8-55.9-22.9
						c-18.8-9.6-37-20.4-54.6-32.1C120.6,975.5,118.3,974.2,116.3,972.4L116.3,972.4z"/>
				</g>
				<path id="path4005" inkscape:connector-curvature="0" class="st6" d="M278.5,889.7c-21.4,0-42.8,1.8-63.9,5.8
					c-21.9,4.1-43.2,10.8-64,18.7c-22.9,8.6-45.5,18.5-68.9,25.7c-22.3,6.9-45.5,11.1-68.8,12c5.8,8.5,11.1,17.5,14.3,27.4
					c25.9-0.6,51.7-4,76.7-10.8c23.2-6.2,45.4-15.6,68.3-23.1c22.5-7.4,45.8-12.3,69.4-14.4c12.3-1.1,24.6-1.6,36.9-1.6
					s24.7,0.6,36.9,1.6c23.6,2.1,46.9,7,69.4,14.4c22.8,7.4,45,16.8,68.3,23.1c25,6.9,50.8,10.2,76.7,10.8
					c3.1-9.9,8.5-18.9,14.3-27.4c-23.3-0.9-46.5-5.1-68.8-12c-23.5-7.2-46-17-68.9-25.7c-20.8-7.9-42.1-14.5-64-18.7
					C321.3,891.5,299.9,889.7,278.5,889.7z"/>
				<g id="g11381" transform="matrix(-1,0,0,1,556.93,0)">
					<path id="path11385" inkscape:connector-curvature="0" class="st5" d="M41.5,916.8c2.9-1.6,5.9-3.8,9.4-3.1
						c4.6,0.9,8,4.4,11.4,7.4c4.7,4.7,9.5,9.5,13.9,14.5c-20.9,7-42.9,11.8-65,11.5c-1.8-1.2-2.4-3.7-1.5-5.6
						c1.5-3.7,4.7-6.4,7.6-8.9C24.7,926.4,33,921.5,41.5,916.8L41.5,916.8z"/>
					<path id="path11387" inkscape:connector-curvature="0" class="st5" d="M66.7,913.6c5.4,1.9,9.8,5.7,14.1,9.3c2.9,2.6,6,5,8.4,8
						c-2.4,0.9-4.8,1.8-7.3,2.6C77,926.8,71.3,920.7,66.7,913.6z"/>
					<path id="path11389" inkscape:connector-curvature="0" class="st5" d="M86.9,920.3c5.4-0.4,9.8,3.3,14.1,6
						c-1.6,0.7-3.2,1.4-4.7,2.1c-1.9-1.6-3.9-3.2-6-4.6C89,922.8,87.4,922,86.9,920.3z"/>
					<path id="path11391" inkscape:connector-curvature="0" class="st5" d="M150,962.2c5-1.7,10-3.3,15-4.9
						c17.9,7.4,36.1,13.9,54.4,20.1c-1.2,4.8-1.6,9.6-1.7,14.5c-20.7-7.3-40.8-16.3-60.6-25.9C154.8,964.7,152.2,963.7,150,962.2
						L150,962.2z"/>
					<path id="path11393" inkscape:connector-curvature="0" class="st5" d="M116.3,972.4c4-1.1,8-2.3,12-3.4
						c16.7,10.1,34.1,19,51.9,27c13.4,6,27.1,11.5,41.1,16c2.6,7.4,6.8,14.1,11.9,20c-19.3-5.7-37.9-13.8-55.9-22.9
						c-18.8-9.6-37-20.4-54.6-32.1C120.6,975.5,118.3,974.2,116.3,972.4L116.3,972.4z"/>
				</g>
			</g>
			<g id="g11444">
				<ellipse id="path8318" cx="278.5" cy="991.5" rx="53.5" ry="53.5"/>
				
					<path id="path11353" inkscape:connector-curvature="0" sodipodi:nodetypes="cccccccccccccccccccccccccccccccccccccccccccccccccccccsscccccccsscccccccccccccccc" class="st1" d="
					M269.7,938.3c-0.9,0.1-1.8,0.5-2.7,0.7c-0.1,0.2-0.2,0.5-0.2,0.6c-3,6.6-4.3,13.9-4.5,21.1c-7.4,3.3-16.2,4-23.6,0.4
					c1-2.9,1.5-6.3,3.1-8.9l-4.2,4.6c-1.2,5-2.9,10.7-3.7,15.8c-2.8,14.8-2.4,30.3,1.2,44.9c0.5,2.4,1.6,5.8,2.2,8.2
					c1.2,1.5,2.5,2.9,3.9,4.3c-1.2-2.4-1.9-5.1-2.7-7.5c7.5-4,16.7-3.3,24.3,0.2c0.1,7.2,1.6,14.4,4.6,21.1c0,0,0.1,0.2,0.2,0.3
					c0.9,0.2,1.7,0.5,2.6,0.6c-3.6-6.6-5-14.2-5.2-21.6c4.7,0.1,9,0.1,13.7,0.2c4.7,0,9-0.1,13.7-0.2c-0.2,7.4-1.6,15-5.2,21.6
					c0.9-0.1,1.8-0.4,2.6-0.6c0.1-0.2,0.1-0.3,0.2-0.3c2.9-6.6,4.4-13.8,4.6-21.1c7.5-3.5,16.8-4.2,24.3-0.2
					c-0.9,2.4-1.5,5.1-2.7,7.5c1.4-1.3,2.7-2.8,3.9-4.3c0.5-2.4,1.6-5.8,2.2-8.2c3.6-14.7,4-30.1,1.2-44.9
					c-0.8-5.1-2.5-10.8-3.7-15.8l-4.2-4.6c1.6,2.7,2.2,6,3.1,8.9c-7.4,3.6-16.2,2.9-23.6-0.4c-0.2-7.2-1.5-14.5-4.5-21.1
					c0-0.1-0.1-0.3-0.2-0.6c-0.9-0.2-1.8-0.5-2.7-0.7c3.6,6.6,5.1,14.4,5.3,21.8c-4.6-0.1-9.4-0.1-14.1-0.2c-4.6,0-9.4,0.1-14.1,0.2
					C264.6,952.6,266.1,944.9,269.7,938.3L269.7,938.3z M278.5,962.1c4.9,0,9.9,0.1,14.8,0.2c2,0.7,3.9,1.4,5.9,2l5.9,1.1
					c4.7,0.6,9.4-0.8,13.8-2.3c1.5,5.9,2.8,11.9,3.4,18c-14-5.3-28.8-8.4-43.8-8.2c-15-0.2-29.8,2.8-43.8,8.2
					c0.6-6.1,1.8-12.1,3.4-18c4.4,1.6,9,2.9,13.8,2.3l5.9-1.1c2-0.6,4-1.3,5.9-2C268.6,962.1,273.5,962.1,278.5,962.1z M278.5,975
					c5.4,0,10.8,0.3,16.1,1c5,0.7,10,1.6,14.8,3c4.4,1.2,8.7,2.7,12.9,4.4c0.8,3.7,0.5,7.6,0.6,11.4c-0.1,0.9-0.8,1.1-1.5,1.3
					c-13.7,5.5-28,10.5-42.9,10.4c-14.9,0.1-29.1-4.9-42.9-10.4c-0.7-0.3-1.4-0.4-1.5-1.3c0.1-3.8-0.3-7.8,0.6-11.4
					c4.2-1.7,8.5-3.2,12.9-4.4c4.9-1.3,9.8-2.3,14.8-3C267.7,975.3,273.1,975,278.5,975z M234.2,997.8c12.5,4.7,25.2,9.6,38.7,10.6
					c1.9,0.2,3.7,0.2,5.6,0.2c1.8,0,3.7-0.1,5.6-0.2c13.5-1,26.2-5.9,38.7-10.6c-0.3,7.6-1.6,15.2-3.6,22.5
					c-2.3-0.9-4.7-1.9-7.2-2.3c-5.8-1.1-11.8,0-17.2,2.3c-1.5,0.8-3.3,0.6-5,0.7c-3.8,0-7.5,0-11.3,0.1c-3.8,0-7.5-0.1-11.3-0.1
					c-1.7-0.1-3.4,0.1-5-0.7c-5.4-2.3-11.4-3.4-17.2-2.3c-2.5,0.4-4.9,1.4-7.2,2.3C235.8,1013,234.6,1005.4,234.2,997.8L234.2,997.8
					z"/>
			</g>
			<g id="g7872">
				<path id="path3780" inkscape:connector-curvature="0" class="st1" d="M250,895.4c1-0.5,1.5-1.6,2.2-2.4c0.3,1.6,0.1,3.3-1.3,4.4
					c-1.7,1.6-4.2,1.4-6.3,1.2c0.1,1.5,0.3,2.9,0.4,4.4c1.9-0.3,3.8-0.6,5.6-0.9c-0.3,0.9-0.5,1.8-0.8,2.8c-1.5,0.2-3.1,0.5-4.6,0.7
					c0.3,3.4,0.8,6.9,0.9,10.3c0.1,2.3-1.4,4.3-3.2,5.5c-3.1,2.2-6.6,3.6-10,5.4c-1.8,1.1-3.8-0.2-5.8,0.1c-0.7,0.6-1.2,1.2-1.8,1.8
					c-0.2-1.8,0.3-3.8,2-4.6c2.4-1.2,4.9,0.2,7.3,0.4c1.5,0.1,1.9-1.7,1.8-2.8c-0.3-4.8-0.9-9.6-1.3-14.5c-1.7,0.3-3.4,0.5-4.9,1.4
					c-1.2,0.7-1.7,2.2-3.1,2.5c0.4-1.5,0.8-3.1,2-4.2c1.5-1.5,3.7-2,5.8-2.4c-0.1-1.2-0.2-2.4-0.3-3.5c4.1-0.5,7.9-2.8,9.9-6.4
					C246.2,895.1,248.1,896,250,895.4 M238.4,901.2c0.4,5.7,1.3,11.3,1.4,17c0.1,2-1.2,3.7-2.2,5.3c2.5-1.5,5-3.8,4.9-7
					c-0.2-5.5-1-11.1-1.4-16.6C240.1,900.3,239.3,900.7,238.4,901.2L238.4,901.2z"/>
				<path id="path3782" inkscape:connector-curvature="0" class="st1" d="M310.8,902.4c3.1-1.9,6.1-4,9.2-5.8c2.7,2,5.9,3.3,9.3,3.6
					c0.2,0.7-0.6,1-1,1.4c-2,1.6-4.1,2.9-5.8,4.8c1.6,0.3,3.2,0.6,4.9,0.9c-0.8,1.1-1.4,2.6-2.6,3.4c-2.4-0.2-4.8-0.9-7.2-1.1
					c-0.3,4.2-0.8,8.5-1.1,12.7c1.8,0.2,3.7,0.5,5.5,0c2.3-0.4,4.1-1.9,6.2-2.9c-0.4,2-2.3,3.3-3.9,4.5c-6.4,3.9-15.7,1.4-19.5-4.9
					c-3.1-4.7-3.2-11.4,0.3-15.9c2-2.6,5-4.6,8.3-5.1c-0.9,1.3-2.5,1.8-3.7,2.9c-2.5,2.2-3.9,5.6-3.7,8.9c0.1,2.3,1,4.4,1.9,6.4
					c1.4-0.7,1.9-2.1,2-3.5C310.3,909.1,310.5,905.8,310.8,902.4 M315,901.5c-0.5,3.2-0.5,6.4-0.9,9.5c-0.2,3-3.6,4.1-5.6,5.8
					c1.8,2.3,4.1,4.2,7,5c0.6-7.4,1.4-14.8,1.9-22.2C316.6,900.3,315.6,900.7,315,901.5 M318.4,900.1c-0.2,2.8-0.5,5.7-0.7,8.5
					c2.3-1.8,4.6-3.5,6.9-5.4C322.3,902.4,320.3,901.4,318.4,900.1z"/>
				<path id="path3784" inkscape:connector-curvature="0" class="st1" d="M276,906.5c1.7-0.9,3.8,0.7,3.9,2.5
					c0.4,1.9-1.5,4.2-3.5,3.5C273.7,911.7,273.6,907.6,276,906.5L276,906.5z"/>
				<path id="path3786" inkscape:connector-curvature="0" class="st1" d="M161.3,921.1c2-2.6,4-5.2,6-7.8c2.8,1.7,5.5,3.4,8.3,5
					c-1.6,2.1-3.3,4.2-4.9,6.3c2.3,0.5,4.8,1.3,6.4,3.1c1.6,1.7,2.4,4.1,4.4,5.3c0.7-1,1.2-2.2,2.5-2.4c-1,2.2-2.4,4.1-3.7,6.1
					c-3.3-0.5-4.2-4-6.2-6.1c-1.6-1.8-4.1-2.6-6.5-2.2c-0.6,0.3-1.3,1-1.1,1.7c0.4,2.3,1.1,4.5,1.6,6.8c1.3,0,2.6,0,3.9,0
					c0.7-0.9,1-2.4,2.4-2.3c-1.2,2.1-2.6,4.1-4,6.1c-4.2-0.3-8.6,0.5-12.1,3c-1.7,1-2.7,2.8-4.4,3.8c1.1-3.7,3.8-6.7,7.1-8.7
					c-0.5-1.4-0.9-3.1-2.3-4c-2.2-1.6-4.9-1.8-7.5-1.7c2.1-2.6,4.3-5.1,6.3-7.7c-0.5-1.6-0.8-3.8-2.8-4.2c-2.3-0.5-3.9,1.5-5.5,2.7
					c0.8-3.5,4.5-5.9,8-5.8C159.4,918.2,160.5,919.8,161.3,921.1 M164,919c0.7,3.2,1.6,6.4,2.3,9.6c2-2.4,4-5,6-7.5
					c-2.3-1.3-4.5-2.7-6.7-4.1C165,917.7,164.5,918.4,164,919 M161.4,922.6c1.3,4.9,2.5,9.9,3.7,14.9c0.8-0.1,1.5-0.2,2.3-0.3
					c-1.4-5.6-2.8-11.3-4.2-16.9C162.5,920.9,161.9,921.7,161.4,922.6 M154.9,930.7c1.6,0.2,3.1,0.6,4.6,1c-0.4-1.7-0.9-3.4-1.3-5
					C157,927.9,155.9,929.3,154.9,930.7z"/>
				<path id="path3788" inkscape:connector-curvature="0" class="st1" d="M200.5,914.3c1.8-1.2,4.2,0.7,4.1,2.7
					c0.2,1.9-1.8,3.9-3.7,3C198.5,919.2,198.3,915.5,200.5,914.3L200.5,914.3z"/>
				<path id="path3790" inkscape:connector-curvature="0" class="st1" d="M352.5,914.5c1.8-0.9,3.9,0.6,4,2.5c0.4,2-1.6,4.1-3.6,3.4
					C350.3,919.6,350.2,915.6,352.5,914.5z"/>
				<path id="path3792" inkscape:connector-curvature="0" class="st1" d="M389.3,916.5c3.9,1.5,8.3,1.1,11.8-1.2
					c1.3,1.3,2.7,3.1,4.7,3.2c1-0.2,1.9-0.8,3-1c-0.7,1.3-1.5,2.7-3,3.1c-2.3,0.9-4.6-0.4-6.5-1.7c-0.5,1.4-1.1,2.7-1.5,4.1
					c1.8,0.5,3.5,1.1,5.3,1.7c-0.6,0.7-1.3,1.5-1.9,2.2c-1.5-0.5-3-1-4.5-1.4c-1.3,3.2-2.4,6.4-3.9,9.5c-0.9,2.1-3.1,3.2-5.3,3.5
					c-3.8,0.5-7.6,0.2-11.4,0.3c-2.1,0.2-3.3-1.9-5.1-2.5c-0.8,0.3-1.6,0.6-2.4,0.9c0.3-2.1,2.5-3.7,4.6-3.2
					c2.3,0.5,3.7,2.7,5.8,3.7c1.2,0.5,2.2-0.9,2.6-1.9c1.9-4.4,3.6-9,5.4-13.4c-1.7-0.5-3.4-1.2-5.2-1c-1.3,0.2-2.5,0.8-3.8,1.2
					c1.7-3.7,6.5-4,9.9-2.6C388.4,918.6,388.9,917.6,389.3,916.5 M392.6,918.6c-2.3,5.1-3.9,10.4-6.3,15.4c-0.8,1.8-2.6,2.8-4.1,3.8
					c2.9-0.1,6-1.3,7.2-4.2c2.3-5,4.1-10.2,6.2-15.3C394.6,918.4,393.5,918.1,392.6,918.6L392.6,918.6z"/>
				<path id="path3794" inkscape:connector-curvature="0" class="st1" d="M420.4,936.7c1.8-1.3,4.3,0.5,4.2,2.6
					c0.2,1.9-1.7,3.8-3.6,3.2C418.6,941.7,418.3,938,420.4,936.7z"/>
			</g>
		</g>
	</g>
</g>
</svg>
