<?xml version="1.0" encoding="utf-8"?>
<!-- Generator: Adobe Illustrator 26.0.2, SVG Export Plug-In . SVG Version: 6.00 Build 0)  -->
<svg version="1.1"
	 id="svg23" xmlns:cc="http://creativecommons.org/ns#" xmlns:dc="http://purl.org/dc/elements/1.1/" xmlns:inkscape="http://www.inkscape.org/namespaces/inkscape" xmlns:rdf="http://www.w3.org/1999/02/22-rdf-syntax-ns#" xmlns:sodipodi="http://sodipodi.sourceforge.net/DTD/sodipodi-0.dtd" xmlns:svg="http://www.w3.org/2000/svg"
	 xmlns="http://www.w3.org/2000/svg" xmlns:xlink="http://www.w3.org/1999/xlink" x="0px" y="0px" width="208.1px" height="284.1px"
	 viewBox="0 0 208.1 284.1" style="enable-background:new 0 0 208.1 284.1;" xml:space="preserve">
<style type="text/css">
	.st0{fill:#1F2742;}
	.st1{fill:#FFFFFF;}
	.st2{fill:#BB2533;}
</style>
<sodipodi:namedview  bordercolor="#666666" borderopacity="1" fit-margin-bottom="0" fit-margin-left="0" fit-margin-right="0" fit-margin-top="0" gridtolerance="10" guidetolerance="10" id="namedview25" inkscape:current-layer="svg23" inkscape:cx="147.45588" inkscape:cy="246.5284" inkscape:guide-bbox="true" inkscape:measure-end="52,353" inkscape:measure-start="104.053,353" inkscape:pageopacity="0" inkscape:pageshadow="2" inkscape:window-height="1017" inkscape:window-maximized="1" inkscape:window-width="1920" inkscape:window-x="-8" inkscape:window-y="-8" inkscape:zoom="1.7565427" objecttolerance="10" pagecolor="#ffffff" showgrid="false" showguides="true">
	<sodipodi:guide  id="guide4600" inkscape:locked="false" orientation="1,0" position="3.3684822e-006,284.06612"></sodipodi:guide>
	<sodipodi:guide  id="guide4602" inkscape:locked="false" orientation="1,0" position="208.06422,284.06612"></sodipodi:guide>
	<sodipodi:guide  id="guide4604" inkscape:locked="false" orientation="0,1" position="3.3684822e-006,284.06612"></sodipodi:guide>
	<sodipodi:guide  id="guide4606" inkscape:locked="false" orientation="0,1" position="-6.6315175e-006,333.52823">
		</sodipodi:guide>
	<sodipodi:guide  id="guide4608" inkscape:locked="false" orientation="1,0" position="104.05341,-1.0385727e-005">
		</sodipodi:guide>
	<sodipodi:guide  id="guide4673" inkscape:locked="false" orientation="1,0" position="51.999999,352.99999"></sodipodi:guide>
	<sodipodi:guide  id="guide4675" inkscape:locked="false" orientation="0,1" position="14.388516,322.88083"></sodipodi:guide>
	<sodipodi:guide  id="guide3809" inkscape:locked="false" orientation="1,0" position="156,353.06249"></sodipodi:guide>
	<inkscape:grid  id="grid3811" type="xygrid"></inkscape:grid>
	<sodipodi:guide  id="guide3815" inkscape:locked="false" orientation="0,1" position="8.9588893,305.85668"></sodipodi:guide>
</sodipodi:namedview>
<path id="outline" inkscape:connector-curvature="0" class="st0" d="M0,0v179.2c0,19.1,9.3,37.1,24.8,48.2l79.3,56.7l79.3-56.7
	c15.5-11.1,24.8-29.1,24.8-48.2V0H0z"/>
<path id="fill" inkscape:connector-curvature="0" class="st1" d="M5.1,5.1v174.1c0,17.4,8.5,33.9,22.6,44l76.3,54.6l76.3-54.6
	c14.2-10.1,22.6-26.6,22.6-44V5.1H5.1z"/>
<g id="stripes" transform="matrix(1.4203307,0,0,1.4203307,7.1101533e-6,68.999215)">
	<path id="path4" inkscape:connector-curvature="0" class="st2" d="M22.1,98.7l3.6,2.6c-1.8-2.4-3-5.4-3.3-8.5
		c-0.1-0.7-0.1-1.4-0.1-2.2V24.1L13,19.9v59.7C13,87.2,16.1,94.2,22.1,98.7"/>
	<polygon id="polygon6" class="st2" points="40.8,32.7 31.5,28.4 31.5,105.1 40.8,111.8 	"/>
	<polygon id="polygon8" class="st2" points="50.1,118.5 59.3,125.2 59.3,41.2 50.1,36.9 	"/>
	<polygon id="polygon10" class="st2" points="73.3,135.3 77.9,132 77.9,45.5 73.2,47.6 68.6,45.5 68.6,131.9 	"/>
	<polygon id="polygon12" class="st2" points="96.4,37 87.2,41.2 87.2,125.3 96.4,118.6 	"/>
	<polygon id="polygon14" class="st2" points="115,28.5 105.7,32.7 105.7,111.9 115,105.2 	"/>
	<path id="path16" inkscape:connector-curvature="0" class="st2" d="M124.3,24.1v66.5c0,0.7-0.1,1.4-0.1,2.2c-0.4,3.1-1.5,6-3.3,8.5
		l3.6-2.6c6-4.4,9.2-11.4,9.2-19.1V19.9L124.3,24.1z"/>
</g>
<g id="usa" transform="matrix(1.4203307,0,0,1.4203307,7.1101533e-6,68.999215)">
	<path id="a" inkscape:connector-curvature="0" class="st0" d="M111.6,18l-11,5v-53.5c0-2.6,2.1-4.8,4.8-4.8h28.1V3.4
		c0,2.8-1.6,5.3-4.1,6.5l-6.8,3.1V0.9l-9,4.1c-1.2,0.5-2,1.7-2,3.1L111.6,18z M111.6-6.1l10.9-5v-13.7h-10.9V-6.1z"/>
	<path id="s" inkscape:connector-curvature="0" class="st0" d="M60.9,29.9c-2.5-1.2-4.1-3.7-4.1-6.4v-16l11,5.1v9.3l5.5,2.5l5.5-2.5
		V6.1L61.1-2c-2.6-1.2-4.3-3.8-4.3-6.6v-22c0-2.6,2.1-4.6,4.6-4.6H85c2.6,0,4.6,2.1,4.6,4.6v18.8l-11-5.1v-8H67.8v13.6l17.6,8.1
		C88-2,89.7,0.6,89.7,3.4v19.9c0,2.8-1.6,5.3-4.1,6.4l-12.3,5.6L60.9,29.9"/>
	<path id="u" inkscape:connector-curvature="0" class="st0" d="M17.2,9.8l28.6,13.1v-58.2h-11V5.9l-9.1-4.2
		c-1.1-0.5-1.8-1.6-1.8-2.9v-34.1H13V3.1C13,6,14.6,8.6,17.2,9.8"/>
</g>
</svg>
