<?xml version="1.0" encoding="utf-8"?>
<!-- Generator: Adobe Illustrator 26.0.2, SVG Export Plug-In . SVG Version: 6.00 Build 0)  -->
<svg version="1.1"
	 id="Calque_1" xmlns:inkscape="http://www.inkscape.org/namespaces/inkscape" xmlns:sodipodi="http://sodipodi.sourceforge.net/DTD/sodipodi-0.dtd" xmlns:svg="http://www.w3.org/2000/svg"
	 xmlns="http://www.w3.org/2000/svg" xmlns:xlink="http://www.w3.org/1999/xlink" x="0px" y="0px" width="606.2px" height="700px"
	 viewBox="0 0 606.2 700" style="enable-background:new 0 0 606.2 700;" xml:space="preserve">
<style type="text/css">
	.st0{fill:#E30613;}
	.st1{fill:#FFFFFF;}
</style>
<sodipodi:namedview  bordercolor="#666666" borderopacity="1.0" id="namedview905" inkscape:current-layer="Calque_1" inkscape:cx="161.88679" inkscape:cy="199.24528" inkscape:pagecheckerboard="0" inkscape:pageopacity="0.0" inkscape:pageshadow="2" inkscape:window-height="900" inkscape:window-maximized="0" inkscape:window-width="1440" inkscape:window-x="0" inkscape:window-y="0" inkscape:zoom="1.325" pagecolor="#ffffff" showgrid="false">
	</sodipodi:namedview>
<polygon id="polygon826" class="st0" points="606.2,175.1 303,0 0,175.1 0,525.1 303,700 606.2,525.1 "/>
<path id="path832" class="st1" d="M526.8,174.7l-223.6-129l-223.5,129c-24.7,14.2-40,40.7-40,69.1v212.1c0,28.6,15.2,54.9,40,69.1
	L211,600.6V579c0-5.6-3-10.7-7.7-13.3L92.9,502c-8.1-4.7-14.9-11.4-19.6-19.6c-4.7-8.1-7.2-17.4-7.2-26.6V243.6
	c0-9.3,2.5-18.6,7.2-26.6c4.7-8.1,11.4-14.9,19.6-19.6L303.2,76.1l210.3,121.5c8.1,4.7,14.9,11.4,19.6,19.6
	c4.7,8.1,7.2,17.4,7.2,26.6v212.1c0,9.3-2.5,18.6-7.2,26.6s-11.4,14.9-19.6,19.6l-110.4,63.8c-4.7,2.8-7.7,7.9-7.7,13.3v21.6
	l131.4-75.9c24.7-14.2,40-40.7,40-69.1v-212C566.6,215.4,551.4,189.1,526.8,174.7L526.8,174.7z"/>
<g id="g1373" transform="matrix(1.7526289,0,0,1.7526289,0,-1.0515773)">
	<polygon id="polygon834" class="st1" points="139.4,337.9 139.4,340.5 141.9,340.5 141.9,349.3 145.1,349.3 145.1,337.9 	"/>
	<path id="path836" class="st1" d="M160.6,337.6c-3.7,0-6.5,1.7-6.5,3.9c0,2.3,2.8,4,6.5,3.8c0.1,0,0.3,0,0.5,0l-3,4h3.8
		c0,0,4.2-5.5,4.5-6c0.4-0.5,0.7-1.1,0.7-1.8C167.1,339.2,164.3,337.6,160.6,337.6z M160.6,342.8c-1.8,0-3.2-0.6-3.2-1.3
		c0-0.7,1.4-1.3,3.2-1.3s3.2,0.6,3.2,1.3C163.8,342.2,162.4,342.8,160.6,342.8z"/>
	<path id="path838" class="st1" d="M187.3,341.7c0-2.4-2.6-4.1-6-4.1s-6,1.7-6,4.1h3.2c0-0.8,1.2-1.5,2.8-1.5c1.5,0,2.8,0.7,2.8,1.5
		c0,1.6-4.7,3.2-8.7,4.9v2.6h12.2v-2.6h-7C184.2,345.2,187.3,344,187.3,341.7z"/>
	<polygon id="polygon840" class="st1" points="206.5,337.8 195.7,337.8 195.7,340.5 203,340.5 197.6,349.3 201.1,349.3 206.5,340.5 
			"/>
</g>
<g id="g870" transform="matrix(1.7526289,0,0,1.7526289,0,-1.0515773)">
	<g id="g846">
		<path id="path844" class="st1" d="M173,63.4l-8.9,5.1c-1,0.6-1.6,1.6-1.6,2.7v8.5c0,1.1,0.6,2.1,1.6,2.7l8.9,5.1l8.9-5.1
			c1-0.6,1.6-1.6,1.6-2.7v-8.5c0-1.1-0.6-2.1-1.6-2.7L173,63.4z"/>
	</g>
	<g id="g864">
		<g id="g850">
			<path id="path848" class="st0" d="M162.6,80c0,1,0.5,1.9,1.4,2.3l6.5,3.8v-8h-7.9V80z"/>
		</g>
		<g id="g854">
			<path id="path852" class="st0" d="M162.6,71v1.9h7.9v-8l-6.5,3.8C163.1,69.2,162.6,70,162.6,71L162.6,71z"/>
		</g>
		<g id="g858">
			<path id="path856" class="st0" d="M182.1,68.7l-6.5-3.8v8h7.9V71C183.5,70,183,69.2,182.1,68.7z"/>
		</g>
		<g id="g862">
			<path id="path860" class="st0" d="M175.6,86.1l6.5-3.8c0.8-0.5,1.4-1.4,1.4-2.3v-1.9h-7.9V86.1z"/>
		</g>
	</g>
	<g id="g868">
		<path id="path866" class="st1" d="M173,64.9l7.8,4.5c0.8,0.5,1.4,1.4,1.4,2.4v7.4c0,1-0.5,1.9-1.4,2.4l-7.8,4.5l-7.8-4.5
			c-0.8-0.5-1.4-1.4-1.4-2.4v-7.4c0-1,0.5-1.9,1.4-2.4L173,64.9 M173,62.2l-1.2,0.7l-7.8,4.5c-1.6,0.9-2.5,2.6-2.5,4.4v7.4
			c0,1.8,1,3.5,2.5,4.4l7.8,4.5l1.2,0.7l1.2-0.7l7.8-4.5c1.6-0.9,2.5-2.6,2.5-4.4v-7.4c0-1.8-1-3.5-2.5-4.4l-7.8-4.5L173,62.2z"/>
	</g>
</g>
<g id="g1363" transform="matrix(1.7526289,0,0,1.7526289,0,-1.0515773)">
	<path id="path872" class="st1" d="M118.1,100.4c1,0,2,0.6,2.5,1.5l7.7,15.2H123l-1.4-2.8h-9.3l-1.4,2.8h-5.3l8.4-16.7L118.1,100.4z
		 M119.6,110.5l-2.7-5.4l-2.7,5.4H119.6z"/>
	<path id="path876" class="st1" d="M151.4,100.4v16.7h-4.7l-11.5-12.2v12.2h-4.7v-16.7h4.5c0.8,0,1.5,0.3,2,0.9l9.6,10.1v-11
		L151.4,100.4z"/>
	<path id="path880" class="st1" d="M176.2,100.4v16.7h-4.7L160,104.9v12.2h-4.7v-16.7h4.5c0.8,0,1.5,0.3,2,0.9l9.6,10.1v-11
		L176.2,100.4z"/>
	<path id="path884" class="st1" d="M184.7,104.3v2.6h10.2v3.8h-10.2v2.6h11.4v3.8H180v-13.9c0-1.5,1.2-2.8,2.8-2.8h13.4v3.8
		L184.7,104.3L184.7,104.3z"/>
	<path id="path888" class="st1" d="M219.9,110.7c-1.1,3.9-5.5,6.9-10.7,6.9c-6.1,0-11-3.9-11-8.7c0-4.8,4.9-8.7,11-8.7
		c5.2,0,9.6,2.9,10.7,6.8h-5c-1-1.8-3.2-3-5.8-3c-3.5,0-6.3,2.2-6.3,4.9c0,2.7,2.8,4.9,6.3,4.9c2.6,0,4.9-1.3,5.8-3.1L219.9,110.7z"
		/>
	<path id="path892" class="st1" d="M232.5,113v4.2h-4.7V113l-8.1-12.5h3.7c1,0,1.9,0.5,2.4,1.4l4.3,7.3l5.1-8.7h5.3L232.5,113z"/>
</g>
<g id="g1337" transform="matrix(1.7526289,0,0,1.7526289,0,-1.0515773)">
	<g id="g902">
		<path id="path898" class="st1" d="M144,240.5l10.6,6.1v-67.8h17.7c2.3,0,4.6-0.9,6.2-2.6l12.4-12.4h-36.4v-15.1H206l15-15h-69.7
			l0,0h-19.2l4.5,9.1c1.7,3.4,2.7,7.1,2.9,10.9v11.4c-11.4,2.5-21.9,7.9-30.4,16.1c-5.8,5.5-10.4,12-13.5,19.2
			c-3.3,7.5-5,15.4-5,23.6c0,8.2,1.7,16.1,5,23.6c3.2,7.2,7.7,13.6,13.5,19.2c11.8,11.3,28.5,17.9,45.4,17.5c0-7.3,0-15,0-15
			c-27.4,0.7-49.1-20.3-49.1-45.3c0-20.5,14.4-37.8,34.1-43.4V233C139.6,236,141.3,238.9,144,240.5z"/>
		<path id="path900" class="st1" d="M230.8,183.2c-6.5-7.2-15.8-12.5-27.5-15.7l-12.7,12.7c13.1,2.1,23.2,6.5,29,13.1
			c4.9,5.5,7,12.6,6.1,21c-0.6,5.8-3.3,10.9-8.3,15.9c-4.9,4.8-11.3,8.9-17.5,12.8c-5.3,3.3-10.3,6.5-14.4,10.1
			c-1.7,1.5-3.2,2.9-4.6,4.3v-67.5l-12.4,12.4c-1.7,1.7-2.6,3.9-2.6,6.2v110.2l15-8.7v-14.5c0.5-15.3,3.9-22,14.5-31.3
			c3.3-2.8,7.8-5.7,12.5-8.7c5.8-3.7,12.3-7.7,17.9-12.8V284l10.6-6.1c2.7-1.6,4.4-4.5,4.4-7.6c0,0,0-54.6,0-62.3
			S236.9,190.1,230.8,183.2L230.8,183.2z"/>
	</g>
</g>
</svg>
