<?xml version="1.0" encoding="utf-8"?>
<!-- Generator: Adobe Illustrator 26.0.2, SVG Export Plug-In . SVG Version: 6.00 Build 0)  -->
<svg version="1.1" id="svg1190" xmlns="http://www.w3.org/2000/svg" xmlns:xlink="http://www.w3.org/1999/xlink" x="0px" y="0px"
	 width="181px" height="230.7px" viewBox="0 0 181 230.7" style="enable-background:new 0 0 181 230.7;" xml:space="preserve">
<style type="text/css">
	.st0{fill:#FFD800;}
	.st1{fill:#009640;}
</style>
<path class="st0" d="M177.7,154.9V0H3.4v154.9c0,11.9,6.1,23,16.1,29.4l71,45.7l71.1-45.7C171.6,177.9,177.7,166.8,177.7,154.9z"/>
<g id="layer1">
	<g id="g1182">
		<g id="g302">
			<path id="path304" class="st1" d="M24.2,25.5v4.1h6.1v3.6h-6.1V41h-4.4V21.9h11.7v3.6H24.2z"/>
		</g>
		<g id="g306">
			<g id="g308">
				<g id="g314">
					<path id="path316" class="st1" d="M32.8,31.4c0-5.9,3.8-9.7,9.4-9.7c2.7-0.1,5.2,1,7,3l-2.7,2.8c-0.9-1.4-2.5-2.3-4.2-2.2
						c-2.9,0-4.9,2.5-4.9,6.2s2,6.2,5.1,6.2c1.9,0,3.7-1.1,4.5-2.9l2.9,2.6c-1.7,2.5-4.5,4-7.5,3.9C36.6,41.2,32.8,37.2,32.8,31.4"
						/>
				</g>
			</g>
		</g>
		<g id="g318">
			<path id="path320" class="st1" d="M57.6,21.9h2.7l10,11.1l-0.1-11.1h4.3V41h-2.6l-10-11.1l0,11.1h-4.4L57.6,21.9L57.6,21.9z"/>
		</g>
		<g id="g322">
			<path id="path324" class="st1" d="M89,37.8h-6.9L81,41h-4.7l7.2-19.1h4L94.7,41h-4.6L89,37.8z M87.8,34.1l-2.2-6.8l-2.3,6.8H87.8
				z"/>
		</g>
		<g id="g326">
			<path id="path328" class="st1" d="M96.6,21.9h2.7l10,11.1l-0.1-11.1h4.3V41h-2.7l-10-11.1l0.1,11.1h-4.4L96.6,21.9L96.6,21.9z"/>
		</g>
		<g id="g330">
			<path id="path332" class="st1" d="M130.3,25.5h-5V41h-4.4V25.5h-5v-3.6h14.4V25.5z"/>
		</g>
		<g id="g334">
			<path id="path336" class="st1" d="M145,37.4V41h-12.4V21.9H145v3.6h-8v4.1h7.2v3.6H137v4.1L145,37.4z"/>
		</g>
		<g id="g338">
			<g id="g340">
				<g id="g346">
					<path id="path348" class="st1" d="M147.7,38.8l1.6-2.9c1.2,1.1,2.9,1.8,4.5,1.8c1.7,0,2.7-0.6,2.7-1.8s-1.2-1.8-3-2.4l-0.9-0.3
						c-3.1-1-5.3-2.3-5.3-5.5c0-3.6,2.7-6,6.7-6c2.2,0,4.4,0.8,6.1,2.2l-1.9,3c-1.1-1-2.5-1.6-4.1-1.6c-1.5,0-2.4,0.7-2.4,1.7
						s1.2,1.7,2.8,2.2l0.9,0.3c2.7,0.9,5.6,2.5,5.6,5.9s-2.8,5.9-6.9,5.9C151.8,41.3,149.5,40.4,147.7,38.8"/>
				</g>
				<g id="g350">
					<path id="path352" class="st1" d="M112,181c0-2.3,1.2-4.5,3.2-5.7c4.7-2.9,9.7-6.1,13.1-8.3c7.1-4.8,11.4-8.4,11.4-20V54.5
						h10.8V147c0,16.5-7.6,23.1-16.1,28.9c-6.7,4.5-20.5,12.9-22.3,14L112,181z"/>
				</g>
				<g id="g354">
					<path id="path356" class="st1" d="M119.3,152.6L59.1,83.4c-0.2-0.2-0.5-0.2-0.7,0c-0.1,0.1-0.2,0.2-0.2,0.4v62.6
						c0,2.6,1.3,5,3.5,6.4l7.3,4.6v-44.6c0-0.3,0.3-0.6,0.6-0.6c0.1,0,0.3,0.1,0.4,0.2l38.2,43.9c1.1,1.3,3,1.6,4.5,0.6L119.3,152.6
						z"/>
				</g>
				<g id="g358">
					<path id="path360" class="st1" d="M122.7,54.5h-7.4c-1.8,0-3.3,1.5-3.3,3.3v42.7c0,0.3-0.3,0.6-0.6,0.6c-0.1,0-0.3-0.1-0.4-0.2
						L73,57.2c-1.5-1.7-3.7-2.7-6-2.7H56.4l65.5,75.3c0.2,0.2,0.5,0.2,0.7,0c0.1-0.1,0.2-0.2,0.2-0.4L122.7,54.5L122.7,54.5z"/>
				</g>
				<g id="g362">
					<path id="path364" class="st1" d="M91.3,177.8c-0.1-0.3-0.3-0.6-0.7-0.7h-0.2h-0.2c-0.3,0.1-0.6,0.3-0.7,0.7l-6.9,20.3l7.8,4.9
						l7.8-4.9L91.3,177.8z"/>
				</g>
				<g id="g366">
					<path id="path368" class="st1" d="M99.4,177.5c2.1-0.6,4.1-1.5,6.1-2.6c0.1-0.1,0.1-0.2,0.1-0.3s-0.1-0.2-0.1-0.3
						c-1.5-0.9-3.1-1.6-4.7-2.2c-1.1-0.4-2.3-0.7-3.5-0.7c-2.1,0.1-4,1.2-5.1,3c-0.1,0.1-0.1,0.2,0,0.3c0.5,0.8,1.2,1.5,2,2.1
						c0.4,0.3,0.9,0.5,1.3,0.7c0.6,0.2,1.2,0.3,1.8,0.3C98,177.8,98.8,177.6,99.4,177.5"/>
				</g>
				<g id="g370">
					<path id="path372" class="st1" d="M80.4,172c-1.7,0.6-3.4,1.4-5,2.3c-0.1,0.1-0.1,0.2-0.1,0.3s0.1,0.2,0.1,0.3
						c1.9,1.1,3.9,2,6.1,2.6c0.7,0.2,1.4,0.3,2.1,0.3c0.6,0,1.2-0.1,1.8-0.3c0.6-0.2,1.1-0.5,1.6-0.8c0.7-0.5,1.3-1.2,1.7-1.9
						c0.1-0.1,0.1-0.2,0-0.3c-1.1-1.8-3-2.9-5.1-3C82.5,171.4,81.4,171.6,80.4,172"/>
				</g>
				<g id="g374">
					<path id="path376" class="st1" d="M90.3,172.4c0.1,0,0.1,0,0.2,0s0.1,0,0.2,0c1.9-1.3,3-3.4,3-5.7c0-3.6-2.8-8.9-2.9-9.1
						c-0.1-0.1-0.3-0.2-0.4-0.1l-0.1,0.1c-0.1,0.2-2.9,5.5-2.9,9.1C87.3,169,88.4,171.1,90.3,172.4"/>
				</g>
				<g id="g378">
					<path id="path380" class="st1" d="M69,181.1c0-2.3-1.2-4.5-3.2-5.7c-4.7-2.9-9.7-6.1-13.1-8.4c-7.1-4.8-11.4-8.4-11.4-20V54.5
						H30.5V147c0,16.5,7.6,23.1,16.1,28.9c6.7,4.5,20.5,12.9,22.3,14L69,181.1z"/>
				</g>
			</g>
		</g>
	</g>
</g>
</svg>
