<?xml version="1.0" encoding="utf-8"?>
<!-- Generator: Adobe Illustrator 26.0.2, SVG Export Plug-In . SVG Version: 6.00 Build 0)  -->
<svg version="1.1" id="Calque_1" xmlns="http://www.w3.org/2000/svg" xmlns:xlink="http://www.w3.org/1999/xlink" x="0px" y="0px"
	 width="185px" height="239px" viewBox="0 0 185 239" style="enable-background:new 0 0 185 239;" xml:space="preserve">
<style type="text/css">
	.st0{fill:#C79C4A;}
	.st1{fill:#0258A3;}
	.st2{fill:none;stroke:#FFFFFF;stroke-width:2.269;}
	.st3{fill-rule:evenodd;clip-rule:evenodd;fill:#FFFFFF;}
	.st4{fill:none;stroke:#0258A3;stroke-width:0.597;}
</style>
<g transform="translate(0, 0.302734)">
	<path class="st0" d="M184,67.5c0-10-0.2-16-1.3-26.5v0c-0.8-7.1-2.1-14-2.9-18c-0.1-0.6-0.7-3.7-1-4.6c-0.8-2.9-2.3-5.8-4.6-8.4
		c-2.4-2.6-5.8-4.6-9.9-5.2C157.7,3.7,122.4,0,92,0C61.6,0,30.1,2.7,25.6,3.4c-6.1,0.5-11,2.9-14.5,6c-3.5,3.1-5.7,6.8-6.3,10.5
		C4.6,20.9,1.9,33.1,1.2,41C0.5,48.9,0,56.9,0,66.8c0,7.9,0.3,16.5,1.2,25.7c5.9,59.9,37,108.1,86.8,141.3l0.1,0l0,0
		c0.6,0.4,0.9,0.5,1.4,0.9l2,1.3l2-1.3c0.6-0.3,0.8-0.5,1.4-0.9c0.7-0.4,1.5-0.9,2.2-1.4c49.1-32,80-81.2,85.6-140.7
		c0.8-8.6,1.1-16.7,1.1-24.1C184,67.5,184,67.5,184,67.5"/>
</g>
<g transform="translate(7.16699, 12.5732)">
	<path class="st1" d="M168.1,30.9c-0.7-7.1-2-14.1-2.8-18c-0.1-0.7-0.3-2-0.6-2.8c-1.3-4.9-6.1-10-13.1-10c-3,0-131.1,0-134.1,0
		C12.1,0,4.8,5,3.9,11.5c0,0-2.2,11.4-2.8,19.4c-0.7,8-1.1,16-1.1,26c0,7.9,0.3,16.6,1.2,25.9c5.5,58.7,33.6,107.1,81.7,141.4
		c0.5,0.4,0.8,0.5,1.4,0.9c0.5-0.4,0.8-0.5,1.4-0.9c0.7-0.5,1.4-0.9,2.1-1.4c48.3-32.3,75.4-83.7,80.5-140.7c0.8-8.6,1-16.8,1-24.2
		C169.3,47.5,169.2,41.7,168.1,30.9"/>
</g>
<g transform="translate(7.16699, 12.5732)">
	<path class="st2" d="M168.1,30.9l-0.6-5.3l-0.7-5l-0.8-4.3l-0.7-3.5l-0.1-0.6l-0.1-0.8l-0.2-0.8l-0.2-0.7l-0.6-1.8l-1-1.8l-1.3-1.7
		l-1.5-1.5l-1.8-1.3l-2.1-1l-2.3-0.6L151.6,0H151h-1.3h-2h-2.6H142h-3.6h-4.1h-4.5H125h-5.2h-5.5h-5.7h-5.9h-6h-6.1h-6.1h-6.1h-6.1
		h-6h-5.9h-5.7h-5.5h-5.2h-4.9h-4.5h-4.1h-3.6H24h-2.6h-2h-1.3h-0.6l-2.1,0.2l-2.2,0.7l-2.2,1L9,3.3L7.2,5L5.7,7L4.5,9.2l-0.6,2.4
		L3.8,12l-0.3,1.4l-0.4,2.1l-0.4,2.7l-0.5,3l-0.5,3.2l-0.4,3.3l-0.3,3.1l-0.5,6l-0.4,6.2l-0.2,6.6L0,56.9L0.1,63l0.2,6.4L0.6,76
		l0.5,6.8l1.3,10.9l1.8,10.6l2.3,10.4l2.9,10.1l3.4,9.9l3.9,9.6l4.4,9.3l4.9,9l5.4,8.8l5.9,8.5l6.4,8.2l6.9,7.9l7.4,7.5l7.8,7.2
		l8.3,6.9l8.8,6.6l0.7,0.5l0.7,0.5l0.7-0.5l0.7-0.5l2.1-1.4l8.8-6.3l8.3-6.7l7.8-7.1l7.3-7.5l6.8-7.9l6.3-8.2l5.8-8.5l5.3-8.9
		l4.8-9.1l4.3-9.4l3.8-9.7l3.3-9.9l2.8-10.1l2.2-10.3l1.7-10.5l1.2-10.6l0.8-12.5l0.2-11.7l0-3.7l0-3.4l-0.1-3.2l-0.1-3.1l-0.2-3.1
		l-0.2-3.2l-0.3-3.5L168.1,30.9"/>
</g>
<g transform="translate(18.0977, 22.6787)">
	<path class="st3" d="M92.3,103.3c0,29.7,0,59.4,0,89.1c15.3-14.2,28.2-30.9,37.3-50.6c5.7-12.3,9.9-25.3,12.8-38.5
		C125.6,103.3,109.4,103.3,92.3,103.3z M5.4,103.3c3,13.7,7.4,27.1,13.3,39.7c8.8,18.7,21.2,35.4,36.2,49.5v-89.2
		C38.1,103.3,22.1,103.3,5.4,103.3z M146.9,30.9H92.3v34.6c18.7,0,36.4,0,55,0c0.2-4.5,0.3-9,0.3-13.5
		C147.7,43.7,147.6,38.6,146.9,30.9z M146.3,21.2L144,5.7c-0.5-3.1-3.2-5.7-6-5.7H9.4c-2.8,0-5.6,2.6-6,5.7L1,24.5h145.7L146.3,21.2
		z M0,51.2c0,4.8,0.3,9.6,0.5,14.3H55V30.9H0.7C0.3,36.5,0,43.1,0,51.2z"/>
</g>
<g transform="translate(33.5947, 27.6064)">
	<path class="st1" d="M7.5,14.7H1.2c-0.7,0-1.2-0.5-1.1-1.1l0.3-1.5H7c0.6,0,1.2-0.4,1.3-1l0.3-1.6c0.1-0.5-0.3-1-1-1H4.9
		c-2,0-3.4-1.3-3.1-2.9l0.5-2.8C2.6,1.3,4.4,0,6.4,0h5.4c0.7,0,1.2,0.5,1.1,1.1l-0.3,1.5H7c-0.6,0-1.2,0.4-1.3,1L5.4,5.1
		c-0.1,0.5,0.3,1,1,1h2.7c2,0,3.4,1.3,3.1,2.9l-0.5,2.8C11.4,13.4,9.6,14.7,7.5,14.7"/>
</g>
<g transform="translate(33.7061, 27.6064)">
	<path class="st4" d="M7.4,14.7H1.1l-0.5-0.1l-0.4-0.2L0,14.1l0-0.4l0.3-1.5h6.6l0.5-0.1l0.4-0.2L8,11.6l0.2-0.4l0.3-1.6l0-0.4
		L8.3,8.9L7.9,8.7L7.5,8.6H4.8L4,8.6L3.4,8.4L2.8,8.1L2.3,7.8L2,7.3L1.7,6.8L1.6,6.3l0-0.6l0.5-2.8l0.5-1.2l0.9-0.9l1.3-0.6L6.3,0
		h5.4l0.5,0.1l0.4,0.2l0.2,0.3l0,0.4l-0.3,1.5H6.9L6.5,2.6L6,2.9L5.7,3.2L5.6,3.6L5.3,5.1l0,0.4l0.2,0.3L5.8,6l0.4,0.1H9l0.7,0.1
		l0.7,0.2L11,6.6l0.5,0.4l0.4,0.4l0.2,0.5l0.1,0.6l0,0.6l-0.5,2.8L11.1,13l-1,0.9l-1.3,0.6L7.4,14.7"/>
</g>
<g transform="translate(59.1533, 27.6064)">
	<path class="st1" d="M10.6,14.7H9.2l-0.5-0.8c-0.1-0.1-0.2-0.2-0.3-0.2c-0.6,0-2.2,1.1-3.9,1.1h-1c-2.5,0-3.4-1.2-3.1-2.9l2-10.8
		C2.4,0.5,3,0,3.8,0h1c0.7,0,1.2,0.5,1.1,1.1L4,11.2c-0.1,0.5,0.3,0.9,0.9,0.9h2.8c0.6,0,1.2-0.4,1.3-0.9l1.8-10.1
		C10.9,0.5,11.6,0,12.3,0h1c0.7,0,1.2,0.5,1.1,1.1l-2.3,12.6C12,14.3,11.3,14.7,10.6,14.7"/>
</g>
<g transform="translate(59.4023, 27.6064)">
	<path class="st4" d="M10.3,14.7H8.9l-0.5-0.8l-0.3-0.2l-0.6,0.2l-0.9,0.4l-1.1,0.4l-1.3,0.2h-1l-0.9-0.1l-0.7-0.2L1,14.3L0.6,14
		l-0.3-0.4l-0.2-0.5L0,12.5l0.1-0.6L2,1.1l0.2-0.4l0.3-0.3L3,0.1L3.5,0h1L5,0.1l0.4,0.2l0.2,0.3l0,0.4L3.7,11.2l0,0.4l0.2,0.3
		l0.3,0.2l0.4,0.1h2.8l0.4-0.1l0.4-0.2l0.3-0.3l0.2-0.4l1.8-10.1l0.2-0.4l0.3-0.3l0.5-0.2L12.1,0h1l0.5,0.1l0.4,0.2l0.2,0.3l0,0.4
		l-2.3,12.6l-0.2,0.4l-0.3,0.3l-0.5,0.2L10.3,14.7"/>
</g>
<g transform="translate(86.1563, 27.6064)">
	<path class="st1" d="M10.8,3.6c0.1-0.5-0.3-1-1-1H6.7C6,2.6,5.4,3,5.3,3.6L4,11.2c-0.1,0.5,0.3,1,1,1H8c0.6,0,1.2-0.4,1.3-1
		L10.8,3.6z M8.6,14.7H3.4c-2,0-3.4-1.3-3.1-2.9l1.6-8.9C2.2,1.3,4.1,0,6.1,0h5.2c2,0,3.4,1.3,3.1,2.9l-1.6,8.9
		C12.5,13.4,10.6,14.7,8.6,14.7z"/>
</g>
<g transform="translate(90.1074, 30.1807)">
	<path class="st4" d="M6.8,1l0-0.4L6.6,0.3L6.3,0.1L5.8,0H2.7L2.3,0.1L1.9,0.3L1.5,0.6L1.4,1L0,8.6L0,9l0.2,0.3l0.3,0.2L1,9.6h3.1
		l0.5-0.1L5,9.3L5.3,9l0.2-0.4L6.8,1"/>
</g>
<g transform="translate(86.4189, 27.6064)">
	<path class="st4" d="M8.3,14.7H3.1l-0.7-0.1l-0.7-0.2l-0.6-0.3l-0.5-0.4l-0.4-0.4L0.1,13L0,12.4l0-0.6l1.6-8.9l0.5-1.2l0.9-0.9
		l1.3-0.6L5.8,0H11l0.7,0.1l0.7,0.2L13,0.5l0.5,0.4l0.4,0.4l0.2,0.5l0.1,0.6l0,0.6l-1.6,8.9L12,13l-1,0.9l-1.3,0.6L8.3,14.7"/>
</g>
<g transform="translate(113.393, 27.6064)">
	<path class="st1" d="M12.8,14.7h-1c-0.7,0-1.2-0.5-1.1-1.1l1.5-8.5L9.7,7.5C9.5,7.7,9.1,8.1,8.4,8.1H8c-0.7,0-1-0.4-1.1-0.6
		L5.2,5.1l-1.5,8.5c-0.1,0.6-0.8,1.1-1.5,1.1h-1c-0.7,0-1.2-0.5-1.1-1.1L2.4,1.1C2.5,0.5,3.2,0,3.9,0h0.8c0.5,0,0.8,0.2,1,0.5
		l3.1,4.3l4.7-4.3C13.8,0.2,14.1,0,14.6,0h2.1l-2.5,13.7C14.1,14.3,13.5,14.7,12.8,14.7"/>
</g>
<g transform="translate(113.504, 27.6064)">
	<path class="st4" d="M12.7,14.7h-1l-0.5-0.1l-0.4-0.2l-0.2-0.3l0-0.4l1.5-8.5L9.6,7.5L9.4,7.7L9.1,7.9L8.7,8L8.2,8.1H7.9L7.5,8
		L7.1,7.9L6.9,7.7L6.8,7.5L5.1,5.1l-1.5,8.5l-0.2,0.4L3,14.4l-0.5,0.2l-0.5,0.1h-1l-0.5-0.1l-0.4-0.2L0,14.1l0-0.4L2.3,1.1l0.2-0.4
		l0.3-0.3l0.4-0.2L3.8,0h0.8l0.6,0.1l0.4,0.4l3.1,4.3l4.7-4.3l0.5-0.4L14.5,0h2.1l-2.5,13.7L14,14.1l-0.3,0.3l-0.4,0.2L12.7,14.7"/>
</g>
<g transform="translate(142.682, 27.6064)">
	<path class="st1" d="M2.2,14.7h-1c-0.7,0-1.2-0.5-1.1-1.1L2.4,1.1C2.5,0.5,3.2,0,3.9,0h1c0.7,0,1.2,0.5,1.1,1.1L3.6,13.7
		C3.5,14.3,2.9,14.7,2.2,14.7"/>
</g>
<g transform="translate(142.793, 27.6064)">
	<path class="st4" d="M2.1,14.7h-1l-0.5-0.1l-0.4-0.2L0,14.1l0-0.4L2.3,1.1l0.2-0.4l0.3-0.3l0.4-0.2L3.8,0h1l0.5,0.1l0.4,0.2
		l0.2,0.3l0,0.4L3.5,13.7l-0.2,0.4L3,14.4l-0.4,0.2L2.1,14.7"/>
</g>
</svg>
