<?xml version="1.0" encoding="utf-8"?>
<!-- Generator: Adobe Illustrator 26.0.2, SVG Export Plug-In . SVG Version: 6.00 Build 0)  -->
<svg version="1.1"
	 id="Calque_1" transform="matrix(.99933 0 0 .99933 .13310 -.00016785)" xmlns:cc="http://creativecommons.org/ns#" xmlns:dc="http://purl.org/dc/elements/1.1/" xmlns:rdf="http://www.w3.org/1999/02/22-rdf-syntax-ns#"
	 xmlns="http://www.w3.org/2000/svg" xmlns:xlink="http://www.w3.org/1999/xlink" x="0px" y="0px" width="398px" height="599.6px"
	 viewBox="0 0 398 599.6" style="enable-background:new 0 0 398 599.6;" xml:space="preserve">
<style type="text/css">
	.st0{fill:url(#SVGID_1_);}
	.st1{fill:url(#SVGID_00000016782561686759709050000014334262471661244591_);}
	.st2{fill:#C4AE75;}
	.st3{fill:#FFFFFF;}
	.st4{fill-rule:evenodd;clip-rule:evenodd;fill:#CEAC76;}
	.st5{fill:#D91C1F;}
</style>
<linearGradient id="SVGID_1_" gradientUnits="userSpaceOnUse" x1="689.0718" y1="524.6098" x2="410.0718" y2="280.3098" gradientTransform="matrix(1.3881 0 0 -1.3881 -562.6286 896.9513)">
	<stop  offset="0" style="stop-color:#CCAA72"/>
	<stop  offset="0.1372" style="stop-color:#D1BF89"/>
	<stop  offset="0.2643" style="stop-color:#D8B98A"/>
	<stop  offset="0.3757" style="stop-color:#DEC78A"/>
	<stop  offset="0.4993" style="stop-color:#D5CB99"/>
	<stop  offset="0.5982" style="stop-color:#D5BD93"/>
	<stop  offset="0.7145" style="stop-color:#C5A66D"/>
	<stop  offset="0.8479" style="stop-color:#C69467"/>
	<stop  offset="1" style="stop-color:#C3976A"/>
</linearGradient>
<path class="st0" d="M199,78.1l-198.9,90v342.6L199,599.2l198.9-88.5l0-342.6L199,78.1z"/>
<linearGradient id="SVGID_00000052106309470745572450000004390105961538112942_" gradientUnits="userSpaceOnUse" x1="677.2223" y1="513.274" x2="423.6223" y2="285.8741" gradientTransform="matrix(1.3441 0 0 -1.3441 -541.1069 876.6868)">
	<stop  offset="0" style="stop-color:#0276B7"/>
	<stop  offset="0.158" style="stop-color:#005DA9"/>
	<stop  offset="0.333" style="stop-color:#1A4C87"/>
	<stop  offset="0.5037" style="stop-color:#242866"/>
	<stop  offset="0.6804" style="stop-color:#20255D"/>
	<stop  offset="0.8725" style="stop-color:#1B1F4E"/>
	<stop  offset="1" style="stop-color:#181947"/>
</linearGradient>
<path style="fill:url(#SVGID_00000052106309470745572450000004390105961538112942_);" d="M11.8,174.5v329.8L199,587.6l187.2-83.3
	V174.5L199,89.7L11.8,174.5z"/>
<path class="st2" d="M138.6,0l-8.2,26H104l21.4,16.1l-8.2,22.5l21.4-12.5L160,64.6l-8.2-22.5L173.2,26h-26.4l-8-26L138.6,0z
	 M260.5,0l-8.2,26h-26.4l21.4,16.1l-8.2,22.5l21.4-12.5l21.4,12.5l-8.2-22.5L295.1,26h-26.4L260.5,0L260.5,0z"/>
<path class="st3" d="M272,442.9c-10.3,0-21.2,6.4-21.2,19.8c0,12.3,10.9,19.3,21.2,19.3c6.9,0,11.7-2,13.6-3l-1.2-6.9
	c-1.7,1.2-5.1,2.8-11,2.8c-7.6,0-13.9-4-13.9-12.8c0-7.6,6.3-12.6,13.9-12.6c5.5,0,9,1.9,10.7,2.8l1.2-6.7
	C283.7,444.6,278.3,442.9,272,442.9L272,442.9z M73.9,443.4v38.1h8.6v-13.6h18.2v-7.2H82.5v-10h23v-7.3L73.9,443.4L73.9,443.4z
	 M116,443.4v38.1h8.1v-11h9.6l8.1,11h9.8l-9.4-12.7c4.9-2.6,6.8-7.1,6.8-11.9c0-7.8-5.1-13.5-13.9-13.5L116,443.4L116,443.4z
	 M173.5,443.4l-16.7,38.1h9.3l2.8-6.5H187l2.8,6.5h9.3l-16.7-38.1H173.5L173.5,443.4z M205.7,443.4v38.1h8.6v-24.9l20.3,24.9h8.2
	v-38.1h-8.6v25.4l-20.3-25.4H205.7z M293.3,443.4v38.1h31.8v-7.1h-23.4v-8.1h16.1v-7.3h-16.1v-8.4h22.5v-7.2L293.3,443.4
	L293.3,443.4z M124.1,450.7h10.5c4.2,0,6,2.6,6,6.2c0,4-1.8,6.9-6,6.9h-10.5L124.1,450.7L124.1,450.7z M178,453.5l5.9,14.4h-12.1
	L178,453.5L178,453.5z"/>
<path class="st4" d="M143.8,499.9v27.3h7.1v-9.4h18.2v-5.7h-18.2V506H172v-6.1L143.8,499.9L143.8,499.9z M185.4,499.9v27.3h7.1v-9.4
	h18.2v-5.7h-18.2V506h21.1v-6.1L185.4,499.9L185.4,499.9z M227.1,499.9v27.3h7.1v-9.4h18.2v-5.7h-18.2V506h21.1v-6.1L227.1,499.9
	L227.1,499.9z"/>
<path class="st3" d="M289.8,181.9c-4,4.5-10.8,11.9-8.1,18.3c2.9,6.3,15.5,4.9,17.5,4.7C285.1,201.7,282.4,195.2,289.8,181.9
	L289.8,181.9z M273.4,193.2c-1.8,0-3.4,1.6-3.4,3.4c0,2,1.6,3.6,3.4,3.6c2,0,3.6-1.6,3.6-3.6C277.1,194.7,275.5,193.2,273.4,193.2z
	 M165.1,197.1c-16.5,0-33.7,4-48,14c35.2-10.4,63.3,2.7,74.4,28.4c15.6,2.2,29,8,40.7,15C228,222.8,203.7,197.1,165.1,197.1z
	 M142.2,215.3c-20.8,0.2-42.5,10.2-53.6,24.4c-24.3,30.8-12.3,70.7,1.1,84.8c-9.4-55.6,25.2-101.5,86.5-97.9
	C166.8,218.6,154.7,215.2,142.2,215.3L142.2,215.3z M261.5,226.9c4.5,10.1,8.3,25.4,8.3,36.5c0,45.3-37.3,60.5-58.6,94.3
	c24.5-18.8,60.6-35.3,73.8-66.3C293.8,270.9,287.1,241.1,261.5,226.9L261.5,226.9z M177.7,243.1c-46.9,0-73.7,33.7-73.7,72.9
	c0,22.7,11.1,40.6,16.2,45.7c-13.1-40.4,14.2-84.8,56.2-84.8c27,0,48.2,20.7,69.3,34.3c7.5-8.6,13.6-17.7,16.9-28.8
	C242.2,266.4,216.3,243.1,177.7,243.1L177.7,243.1z M302.7,243.8c5.6,16.7,2.5,36.9-7.8,48.8c11.1-1.8,19.6-11.2,19.6-22.1
	C314.5,263.3,311.2,250.8,302.7,243.8L302.7,243.8z M314.6,284.5c-6.1,8.1-13.8,12.7-23,12.7c-1.3,0-2.7-0.1-4.1-0.4
	c-4.7,9.4-11.4,17.6-19.1,24.9c2.9,0.7,5.8,1,8.8,1C299.4,322.7,313.4,303.9,314.6,284.5L314.6,284.5z M194.9,284.9
	c-6.8,42.3-29.7,87.5,4.7,134.7c-16.5-45.6,11.1-80,25.4-117.3C215.4,295.4,205.5,288.8,194.9,284.9L194.9,284.9z M129.5,313.8
	c-13.9,26.4-2,49.8,22.7,46.4C136.5,354.8,125.7,332.5,129.5,313.8z"/>
<path class="st5" d="M251.9,160.6c-3.8,4.3-5.6,9.5-2.9,14c-3.2,1.6-7.2,2.2-10.5,0.7c-3.4,4.5-3.2,10.2-1.1,13.5
	c-2.7,2-6.8,3.4-10.4,2.5c1.1,4,4.9,6.9,8.8,6.9c-0.7,3-1.8,4.3-4.3,5.2c3.2,6.1,13.5,7.6,20.4,5.1c-0.7-0.7-2-2.9-2-6.5
	c0-9.7,8.2-16.1,19.4-16.1c4.7,0,7.6,0.7,9.3,0.9c0.7,0.1,1.3,0.2,1.7-0.9c1.2-3,2.3-8.4-2.8-12.7C268.9,166,256,169.2,251.9,160.6
	L251.9,160.6z M285.4,207.2c-3.8,11.5,3.2,23.4,13.5,23.4c5.8,0,8.8-3.8,8.8-8.3c0-3.8-3-7-7.9-7.9
	C295.2,213.4,286.7,213.1,285.4,207.2L285.4,207.2z"/>
</svg>
