<?xml version="1.0" encoding="utf-8"?>
<!-- Generator: Adobe Illustrator 26.0.2, SVG Export Plug-In . SVG Version: 6.00 Build 0)  -->
<svg version="1.1" id="Calque_1" xmlns="http://www.w3.org/2000/svg" xmlns:xlink="http://www.w3.org/1999/xlink" x="0px" y="0px"
	 width="480px" height="633px" viewBox="0 0 480 633" style="enable-background:new 0 0 480 633;" xml:space="preserve">
<style type="text/css">
	.st0{fill:#FFF200;}
	.st1{fill:#E50009;}
	.st2{fill:#FFFFFF;}
	.st3{fill:#118E34;}
</style>
<g>
	<path class="st0" d="M438.6,122.1C456.1,89.3,466.8,48.7,468.1,1H253.2c1,14.4,1.4,29,1.4,45.5c0,44.4-9.6,78.1-24.3,104.2
		c-23.8,42.3-54,69.6-80.7,85.1C95,267.1,58.4,325.9,58.4,393.3c0,100.5,81.4,181.9,181.9,181.9c100.5,0,181.9-81.4,181.9-181.9
		c0-73.9-44.1-137.5-107.4-165.9C359.6,208.3,408.8,177.8,438.6,122.1z"/>
	<path class="st1" d="M330.1,235.1c-4.9,2-9.7,3.8-14.5,5.5c56.3,27.8,95,85.7,95,152.7c0,94-76.2,170.3-170.3,170.3
		C146.2,563.6,70,487.4,70,393.3c0-56.9,27.9-107.3,70.8-138.2c28-20.2,46.6-22.9,79.4-43.1c33.3-20.6,86.2-64.1,96.5-188.3h-62.4
		c0.2,7.3,0.3,14.8,0.3,22.7c0,44.4-9.6,78.1-24.3,104.2c-23.8,42.3-54,69.6-80.7,85.1C95,267.1,58.4,325.9,58.4,393.3
		c0,100.5,81.4,181.9,181.9,181.9c100.5,0,181.9-81.5,181.9-181.9C422.2,325.5,385.1,266.4,330.1,235.1z"/>
	<path d="M20.1,393.7L20,408.3l-18.8-0.1l0-4.9l4.4-0.7c-2.1-1.9-5.3-4.5-5.3-10.9c0-8.4,6.1-16,18.4-16c9.5,0,18.5,5.4,18.4,17.1
		c0,10.7-7,14.9-11.8,15.3l0-7.3c1.4,0,5.8-2.5,5.8-7.6c0-5.2-3.6-10-12.5-10.1c-9.5,0-12,5.2-12.1,10.1c0,1.6,0.6,7,7.7,8.5l0-8.1
		L20.1,393.7z"/>
	<path d="M18.4,419.8l-15.5,2.3l-1.1-7.2l34.5-5.2l1.1,7.2L24.4,419l2,13.5l13.1-1.9l1.1,7.2L6,442.9l-1.1-7.2l15.5-2.3L18.4,419.8z
		"/>
	<path d="M37.4,455.1L37.4,455.1l-11.9,8.3l-2.6-8.5L37.4,455.1z M16.6,454.7l3.8,12.3l-6.2,4.2l2.3,7.6l29.8-21.9l-2.4-8.1l-37-1.8
		l2.2,7.4L16.6,454.7z"/>
	<path d="M58.8,487l2.9,6.2l-31.6,14.9l-3.1-6.6L43.4,478l0-0.1l-22.5,10.6l-2.9-6.2l31.6-14.9l3.3,7l-16.1,22.9l0,0.1L58.8,487z"/>
	<path d="M63.5,510.3L63.5,510.3l-9.1,11.3l-4.9-7.4L63.5,510.3z M43.4,515.9l7.1,10.7l-4.8,5.8l4.4,6.6l22.3-29.6l-4.7-7l-36,8.9
		l4.2,6.4L43.4,515.9z"/>
	<path d="M66.3,557.3l-5.1-5.2l25-24.4l17.3,17.8l-4.4,4.3l-12.2-12.6l-5.6,5.5l10.7,11l-4.4,4.3l-10.7-11L66.3,557.3z"/>
	<path d="M97.4,562.9c6-7.7,11.9-6.3,15-3.9c3.1,2.4,6,7.7,0,15.5c-6,7.7-11.9,6.3-15,3.9C94.3,576,91.4,570.7,97.4,562.9z
		 M91.6,558.5c-10,13-1.6,22,2,24.8c3.7,2.8,14.5,8.7,24.5-4.3c10-13,1.6-22-2-24.8C112.5,551.4,101.7,545.5,91.6,558.5z"/>
	<path d="M126.6,583.8c4.7-8.6,10.7-8.1,14.2-6.2c3.5,1.9,7.2,6.7,2.5,15.3c-4.7,8.6-10.7,8.1-14.2,6.2
		C125.7,597.2,122,592.4,126.6,583.8z M120.2,580.3c-7.8,14.4,1.9,22,6,24.2c4.1,2.2,15.7,6.2,23.5-8.2c7.8-14.4-1.9-22-6-24.2
		C139.7,570,128,565.9,120.2,580.3z"/>
	<path d="M159,618.2l-6.8-2.6l10.2-26.9l-9.9-3.7l2.2-5.8l26.6,10.1l-2.2,5.8l-9.9-3.7L159,618.2z"/>
	<path d="M183.3,609.8l9.1,2.1c2.6,0.6,4.9,2.3,4.2,5.3c-0.8,3.5-3.1,4.5-6.6,3.7l-8.7-2L183.3,609.8z M173,623.2l14.4,3.3
		c7,1.6,9.1,0.8,11.5-0.6c2.2-1.3,3.9-3.6,4.6-6.3c0.8-3.4,0.4-6.9-3.4-9.5c1.6-0.4,4.7-1.1,5.8-6c0.8-3.5-0.1-9.2-8.5-11.1
		l-16.5-3.8L173,623.2z M186.3,596.6l8.2,1.9c3.2,0.7,5,2,4.4,4.9c-0.6,2.7-3.1,3.3-5.9,2.6l-8.3-1.9L186.3,596.6z"/>
	<path d="M222.8,604.6L222.8,604.6l3.3,14.1l-8.9-0.7L222.8,604.6z M214.8,623.9l12.9,1l1.6,7.4l7.9,0.6l-9.4-35.8l-8.4-0.7
		l-15.2,33.8l7.7,0.6L214.8,623.9z"/>
	<path d="M246.4,626l17.4-0.7l0.3,6.3l-24.6,1l-1.5-34.9l7.3-0.3L246.4,626z"/>
	<path d="M272.3,623.9l17.2-2.7l1,6.2l-24.4,3.8l-5.3-34.5l7.2-1.1L272.3,623.9z"/>
	<path d="M307.8,594.3L307.8,594.3l8.6,11.7l-8.4,2.8L307.8,594.3z M308.1,615.2l12.2-4.1l4.4,6.1l7.5-2.5l-22.8-29.2l-8,2.7
		l-0.7,37.1l7.3-2.5L308.1,615.2z"/>
	<path d="M337.1,600.3c0.9,1.7,3.5,4.6,9.1,1.7c3.1-1.6,6.1-4,4.5-7.3c-1.2-2.4-3.9-1.9-7.6-1l-3.7,0.9c-5.6,1.4-11.1,2.7-14.5-4.1
		c-1.8-3.5-3-10.5,7.1-15.7c9.5-4.8,15.3,0.1,17.3,3.9l-6.2,3.2c-0.9-1.3-3.1-4.3-8.8-1.4c-2.5,1.3-5,3.7-3.5,6.5
		c1.2,2.4,3.5,1.9,4.9,1.6l8.5-2c4.8-1.1,9.6-1.4,12.4,4.2c4.8,9.4-4.4,15-7.1,16.4c-11.4,5.8-16.6,0.2-18.6-3.6L337.1,600.3z"/>
	<path d="M364.4,585.1c1.2,1.6,4.1,4,9.3,0.4c2.8-2,5.5-4.8,3.4-7.9c-1.6-2.2-4.1-1.3-7.7,0.1l-3.6,1.4c-5.4,2.1-10.6,4.2-15-2.1
		c-2.2-3.2-4.4-10,4.9-16.5c8.8-6.1,15.1-2,17.6,1.5l-5.8,4c-1-1.2-3.6-3.9-8.9-0.2c-2.3,1.6-4.4,4.3-2.6,6.9
		c1.6,2.2,3.7,1.4,5.1,0.9l8.2-3.1c4.6-1.8,9.3-2.7,12.9,2.5c6,8.6-2.3,15.5-4.8,17.2c-10.5,7.3-16.5,2.5-18.9-1.1L364.4,585.1z"/>
	<path d="M385.7,560.7c-6.7-7.1-4.4-12.7-1.5-15.4c2.9-2.7,8.6-4.8,15.3,2.3c6.7,7.1,4.4,12.7,1.5,15.4
		C398.2,565.8,392.5,567.8,385.7,560.7z M380.4,565.8c11.3,11.9,21.5,5,24.8,1.8c3.4-3.2,10.8-13-0.5-24.9
		c-11.3-11.9-21.5-5-24.8-1.8S369.2,553.9,380.4,565.8z"/>
	<path d="M416.3,518c-2-0.8-5.8-2.3-9.5,2.5c-2.1,2.8-3.4,8.3,4.4,14.3c5,3.8,11,5.3,14.7,0.4c2.5-3.2,2.4-6.8-0.5-10.1l4.5-5.8
		c5.1,5.8,6.3,13,1,19.9c-5.7,7.4-14.7,8.8-24.3,1.5c-9.7-7.4-10.3-16.8-4.8-24c6.4-8.3,14.7-7.2,19-4.4L416.3,518z"/>
	<path d="M445.4,516.2l-3.9,6.2L411.8,504l3.9-6.2L445.4,516.2z"/>
	<path d="M430.7,486.5L430.7,486.5l14.4,2.1l-3.9,8L430.7,486.5z M445.7,501l5.7-11.6l7.4,1.2l3.5-7.1l-36.8-4.3l-3.7,7.6l25.9,26.6
		l3.4-6.9L445.7,501z"/>
	<path d="M467.1,469.1l-2.4,6.9l-27.1-9.5l-3.5,10l-5.8-2l9.4-26.8l5.8,2l-3.5,10L467.1,469.1z"/>
	<path d="M472.8,449L471,456l-33.9-8.6l1.8-7.1L472.8,449z"/>
	<path d="M458.3,434.4c-9.7-1.4-11.3-7.2-10.7-11.1c0.6-3.9,3.8-9,13.4-7.7c9.7,1.4,11.3,7.2,10.7,11.1
		C471.1,430.7,467.9,435.8,458.3,434.4z M457.2,441.7c16.2,2.3,19.9-9.4,20.6-14c0.7-4.6,0.4-16.9-15.8-19.2
		c-16.2-2.3-19.9,9.4-20.6,14C440.7,427,441,439.3,457.2,441.7z"/>
	<path d="M444.3,383.3l-0.1-6.8l34.9-0.4l0.1,7.3l-24.7,14.6v0.1l24.9-0.3l0.1,6.8l-34.9,0.4l-0.1-7.7l24.2-14.2V383L444.3,383.3z"
		/>
	<path class="st2" d="M149.9,463.9c-11.8-0.3-21.1-1.6-28.6-3.8c19.2,34.1,52.6,59.2,92.3,67c-4.4-6.4-8.5-14.8-12.4-25.9
		C180.8,493.8,163,480.7,149.9,463.9z"/>
	<path class="st2" d="M355,389.5c9.3,7.2,16.1,13.6,20.8,19.8c0.6-5.2,1-10.5,1-15.9c0-35.7-13.7-68.2-36.2-92.5
		c-0.2,7.8-1.9,16.9-5.2,28.2C347.1,346.4,354.2,367.2,355,389.5z"/>
	<path class="st2" d="M240.3,278.6c11,0,21.7,1.6,31.8,4.5c9.7-6.7,17.9-11.1,25.3-13.7c-17.4-8-36.7-12.5-57-12.5
		c-20.4,0-39.7,4.5-57,12.5c7.3,2.6,15.5,7,25.3,13.7C218.6,280.2,229.3,278.6,240.3,278.6z"/>
	<path class="st2" d="M125.6,389.5c0.7-22.3,7.9-43,19.6-60.4c-3.3-11.3-5-20.5-5.2-28.3c-22.4,24.3-36.2,56.8-36.2,92.5
		c0,5.4,0.3,10.7,1,15.9C109.6,403.1,116.3,396.6,125.6,389.5z"/>
	<path class="st2" d="M279.4,501.2c-3.9,11.1-8,19.5-12.4,25.9c39.6-7.9,73.1-32.9,92.3-67c-7.5,2.2-16.7,3.5-28.5,3.8
		C317.6,480.7,299.8,493.8,279.4,501.2z"/>
	<path d="M355,389.5c-0.7-22.3-7.9-43-19.6-60.4c3.3-11.3,5-20.5,5.2-28.2c-12.1-13.1-26.8-23.9-43.2-31.4
		c-7.3,2.6-15.5,7-25.3,13.7c-10.1-2.9-20.7-4.5-31.8-4.5c-11,0-21.7,1.6-31.8,4.5c-9.7-6.7-17.9-11.1-25.3-13.7
		c-16.4,7.6-31.1,18.3-43.2,31.4c0.2,7.8,1.9,17,5.2,28.3c-11.8,17.3-18.9,38.1-19.6,60.4c-9.3,7.2-16.1,13.6-20.8,19.8
		c2.1,18.3,7.9,35.5,16.5,50.8c7.5,2.2,16.7,3.5,28.6,3.8c13.2,16.8,30.9,29.9,51.3,37.4c3.9,11.1,8,19.5,12.4,25.9
		c8.6,1.7,17.6,2.6,26.7,2.6s18.1-0.9,26.7-2.6c4.4-6.4,8.5-14.8,12.4-25.9c20.4-7.4,38.2-20.5,51.3-37.4
		c11.8-0.3,21.1-1.6,28.5-3.8c8.6-15.4,14.4-32.5,16.5-50.8C371,403.1,364.3,396.6,355,389.5z"/>
	<path class="st3" d="M385.7,76.1c-16.9,82.9-80.7,138.8-128.5,152.8c-18.1,5.3-36.2,7.1-57,12.6c-67.3,17.7-117,79-117,151.9
		c0,86.7,70.3,157.1,157.1,157.1c86.7,0,157.1-70.3,157.1-157.1c0-66.9-41.9-124.1-100.9-146.7c-7.3,1.9-15.2,3.6-23.1,5.1
		c64.4,15,112.3,72.7,112.3,141.6c0,80.3-65.1,145.4-145.4,145.4c-80.3,0-145.4-65.1-145.4-145.4c0-77.7,61-141.2,137.7-145.2
		c10.6-0.6,29.6-1.1,55.3-10.2c50.6-18,114.8-48.6,150.7-115.8c7.4-13.9,13.6-29.3,18.4-46L385.7,76.1L385.7,76.1L385.7,76.1z"/>
	<polygon points="356.6,19.1 362.2,36.4 380.4,36.4 365.7,47 371.3,64.3 356.6,53.6 342,64.3 347.6,47 332.9,36.4 351,36.4 	"/>
	<path class="st2" d="M199.4,403.8l14-43l-26-35.8l-37.5,6.7c-11.4,16.7-18.3,36.8-19,58.3l26.4,27.5L199.4,403.8z"/>
	<path class="st2" d="M279.5,408.9l-36.6,26.6v44.3l34.3,16.6c19.8-7.1,36.9-19.8,49.6-36.1l-5.2-37.7L279.5,408.9z"/>
	<path class="st2" d="M158.9,422.6l-5.2,37.7c12.7,16.3,29.8,29,49.6,36.1l34.3-16.6v-44.3l-36.6-26.6L158.9,422.6z"/>
	<path class="st2" d="M293.2,325l-26,35.9l14,43l42.2,13.7l26.4-27.5c-0.6-21.6-7.5-41.6-19-58.4L293.2,325z"/>
	<path class="st2" d="M288.9,321.9l-18-33.6c-9.7-2.8-20-4.4-30.7-4.4c-10.6,0-20.9,1.6-30.7,4.4l-18,33.6l26,35.9h45.2L288.9,321.9
		z"/>
</g>
</svg>
