<?xml version="1.0" encoding="utf-8"?>
<!-- Generator: Adobe Illustrator 26.0.2, SVG Export Plug-In . SVG Version: 6.00 Build 0)  -->
<svg version="1.1"
	 id="svg40578" xmlns:cc="http://creativecommons.org/ns#" xmlns:dc="http://purl.org/dc/elements/1.1/" xmlns:inkscape="http://www.inkscape.org/namespaces/inkscape" xmlns:rdf="http://www.w3.org/1999/02/22-rdf-syntax-ns#" xmlns:sodipodi="http://sodipodi.sourceforge.net/DTD/sodipodi-0.dtd" xmlns:svg="http://www.w3.org/2000/svg"
	 xmlns="http://www.w3.org/2000/svg" xmlns:xlink="http://www.w3.org/1999/xlink" x="0px" y="0px" width="604px" height="733.9px"
	 viewBox="0 0 604 733.9" style="enable-background:new 0 0 604 733.9;" xml:space="preserve">
<style type="text/css">
	.st0{fill:#005DA3;stroke:#005DA3;stroke-width:10.2138;}
	.st1{fill:#FFFFFF;}
	.st2{fill:#005DA3;stroke:#005DA3;stroke-width:2.5565;}
	.st3{fill:#005DA3;}
</style>
<sodipodi:namedview  bordercolor="#666666" borderopacity="1" gridtolerance="10" guidetolerance="10" id="namedview228" inkscape:current-layer="svg40578" inkscape:cx="353.30313" inkscape:cy="351.66814" inkscape:pageopacity="0" inkscape:pageshadow="2" inkscape:window-height="706" inkscape:window-maximized="1" inkscape:window-width="1366" inkscape:window-x="-8" inkscape:window-y="-8" inkscape:zoom="0.39498852" objecttolerance="10" pagecolor="#ffffff" showgrid="false">
	</sodipodi:namedview>
<g id="g3493" transform="translate(-14.288741,-98.619043)">
	<path id="path43463" inkscape:connector-curvature="0" class="st0" d="M302.1,188.7c-33.8,0.2-173.7,3.2-250.2,34.8
		c0,0-107.4,328.7,257.7,601.9V188.7C309.6,188.7,307,188.7,302.1,188.7L302.1,188.7z M318.5,188.7v636.6
		c365-273.1,257.7-601.9,257.7-601.9C488.7,187.5,318.5,188.7,318.5,188.7z"/>
	<path id="path43467" inkscape:connector-curvature="0" class="st1" d="M318.5,195.3h-8.9c-1.7,0-166.4-0.8-252.5,33.2
		c-3.1,10.8-13.5,52-13.5,111.2c0,24.5,1.8,52.2,6.7,82c10.9,66.6,34.7,131,70.8,191.5c45.2,75.6,109.8,145.2,192.2,206.9
		c0.1,0,0.5,0.3,0.8,0.5c0.3-0.2,0.7-0.5,0.8-0.5c82.3-61.6,147-131.2,192.2-206.8c36.1-60.4,59.9-124.8,70.8-191.5
		c4.9-29.8,6.7-57.5,6.7-82c0-59.2-10.4-100.4-13.5-111.2C484.8,194.5,320.2,195.3,318.5,195.3"/>
	<path id="path43493" inkscape:connector-curvature="0" sodipodi:nodetypes="ccsccc" class="st2" d="M314,195.3
		c-1.7,0-170.8-0.8-256.8,33.2c-3.1,10.8-13.5,52-13.5,111.2c0,24.5,1.8,52.2,6.7,82c10.9,66.6,34.7,131,70.8,191.5
		c45.2,75.6,110.6,150.3,193,212"/>
	<path id="path43469" inkscape:connector-curvature="0" class="st3" d="M62.4,174.9c-1.8,4.6-6.8,8.3-14,9.9
		c-14.7,3.4-26.9-5.2-31-23c-4.1-17.9,3.7-31.4,20.4-35.2c12.8-2.9,22.8,2.3,27.7,14.6l-15.8,5.3c-2-5.4-5.6-7.9-9.5-7
		c-6.1,1.4-7.4,7.2-4.9,18.3c2.4,10.6,6.3,15,12.6,13.6c4.2-1,6.6-4.3,6.1-8.1l-0.1-0.7l-9.3,2.1L42,153l25.1-5.8l7.1,31l-8.2,1.9
		L62.4,174.9"/>
	<path id="path43471" inkscape:connector-curvature="0" class="st3" d="M75.5,135.4l14-2.2l1.3,8.5c0.4-6.6,3.5-10.4,9.4-11.3
		c0.7-0.1,1.5-0.2,2.2-0.2l2.3,14.7c-1.3,0-2.3,0-3.1,0.2c-5.5,0.9-7.7,4-6.9,9.6l3.2,20.3l-16,2.5L75.5,135.4"/>
	<path id="path43473" inkscape:connector-curvature="0" class="st3" d="M129.6,143.8c0-0.2-0.1-0.4-0.1-0.7
		c-0.5-4.1,1.5-6.8,5.1-7.3c3.8-0.4,6.3,1.8,6.8,6.3c0,0.1,0,0.2,0,0.2L129.6,143.8L129.6,143.8z M159.7,152.8l-15.9,0.9
		c-0.3,3.4-2.3,5.5-5.7,5.9c-4.4,0.5-7.1-1.9-7.6-6.8c0-0.2,0-0.3-0.1-0.5l28.9-3.4c0-1.1-0.1-2.1-0.2-3
		c-1.5-13-11.9-21.4-26.1-19.7c-6.6,0.8-11.7,3.4-15.2,7.6c-4.1,4.9-6,10.9-5.2,17.4c0.8,6.8,4.7,12.9,10.5,16.5
		c4.4,2.6,9.7,3.6,15.9,2.9C150.6,169.2,158,162.7,159.7,152.8"/>
	<path id="path43475" inkscape:connector-curvature="0" class="st3" d="M166.2,123.6l15-1.3l0.5,6c1.9-4.9,5.9-7.7,11.5-8.2
		c9.8-0.8,14.1,3.8,15,14.5l2.3,27.9l-16.2,1.4l-2.2-26.1c-0.3-4-1.7-5.8-4.4-5.6c-2.8,0.2-4.4,2.4-4,6.4l2.2,26l-16.2,1.4
		L166.2,123.6"/>
	<path id="path43477" inkscape:connector-curvature="0" class="st3" d="M240.7,151.1c-4,0.2-5.9-3.5-6.4-11.4s1-11.8,5-12.1
		c4-0.2,5.9,3.5,6.4,11.4C246.2,147,244.7,150.9,240.7,151.1L240.7,151.1z M241.3,161.8c13.8-0.8,22.4-10.3,21.7-23.7
		c-0.8-13.5-10.5-21.8-24.2-21.1c-13.7,0.8-22.4,10.2-21.7,23.7C217.9,154.1,227.6,162.6,241.3,161.8"/>
	<path id="path43479" inkscape:connector-curvature="0" class="st3" d="M287.8,143.5l-0.4-13.3c-0.1-3,1.8-4.9,4.2-4.9
		c4.2-0.1,5.9,3.2,6.1,10.7c0.3,8.7-0.9,12.8-5,13C289.5,148.9,287.9,147.2,287.8,143.5L287.8,143.5z M272,158.9l8.9-0.3l2.2-6
		c3.6,4.7,8.5,6.9,14.6,6.7c4.6-0.1,9.2-2.4,12.1-6.2c3.4-4.4,5.3-10.3,5.1-17c-0.4-13.9-7.1-21.9-17.4-21.6
		c-5.4,0.2-9.1,2.4-10.5,6.3l-0.6-19.7l-16.3,0.5L272,158.9"/>
	<path id="path43481" inkscape:connector-curvature="0" class="st3" d="M324.4,100.6l16.9,0.2l-0.8,57.4l-16.9-0.2L324.4,100.6"/>
	<path id="path43483" inkscape:connector-curvature="0" class="st3" d="M367.3,132.6c0-0.3,0-0.4,0-0.7c0.2-4.1,2.6-6.5,6.2-6.4
		c3.8,0.2,5.9,2.7,5.7,7.3c0,0.1,0,0.2,0,0.2L367.3,132.6L367.3,132.6z M395.6,146.3l-15.8-1.7c-0.8,3.4-3.1,5.1-6.6,4.9
		c-4.4-0.2-6.7-3-6.5-8c0-0.2,0-0.3,0-0.5l29.1,1.2c0.1-1.1,0.3-2.1,0.3-3c0.5-13.1-8.3-23-22.6-23.6c-6.6-0.3-12.1,1.5-16.3,5.1
		c-4.8,4.2-7.6,9.8-7.9,16.4c-0.3,6.9,2.6,13.5,7.8,18c3.9,3.3,9,5.1,15.2,5.4C383.9,161,392.3,155.7,395.6,146.3"/>
	<path id="path43485" inkscape:connector-curvature="0" class="st3" d="M437.1,105.7l41.3,4.1l-1.3,13.3l-23.8-2.3l-0.9,9.5
		l18.7,1.8l-1.3,12.8l-18.7-1.8l-2.1,21.5l-17.5-1.7L437.1,105.7"/>
	<path id="path43487" inkscape:connector-curvature="0" class="st3" d="M499.5,161c-4-0.6-5.1-4.6-4-12.4c1.1-7.9,3.3-11.4,7.3-10.8
		c3.9,0.6,5.1,4.6,4,12.4C505.7,158,503.4,161.6,499.5,161z M498,171.6c13.7,1.9,24-5.7,25.9-19c1.9-13.3-5.9-23.5-19.6-25.4
		c-13.6-1.9-24,5.6-25.9,19C476.5,159.4,484.4,169.6,498,171.6"/>
	<path id="path43489" inkscape:connector-curvature="0" class="st3" d="M550.9,169.8c-4-0.8-4.8-4.9-3.3-12.6s4-11.2,7.9-10.4
		c3.9,0.8,4.8,4.9,3.3,12.6C557.2,167.2,554.8,170.5,550.9,169.8z M548.8,180.2c13.5,2.7,24.3-4.3,27-17.4
		c2.7-13.2-4.5-23.8-18.1-26.5c-13.5-2.7-24.3,4.2-27,17.4C528,166.8,535.3,177.5,548.8,180.2"/>
	<path id="path43491" inkscape:connector-curvature="0" class="st3" d="M589.3,155.6l-6.2-1.7l2.9-10.4l6.9,1.9l4.5-12.2l14.2,3.2
		l-3.7,13.2l7.7,2.1l-2.9,10.4l-7.7-2.1l-4.5,16.3c-0.7,2.6,0,4,2.8,4.7c1.1,0.3,2.6,0.5,4.6,0.5l-3.1,11.4
		c-3.5-0.2-6.8-0.7-9.8-1.5c-9.7-2.7-13.3-8.2-10.8-17.2L589.3,155.6"/>
	<path id="path43495" inkscape:connector-curvature="0" class="st1" d="M258.8,724.4c1.3,8.7,6.6,13.7,13.5,13.7s11.1-4.4,11.1-10.5
		c0-6.3-4.2-10.3-11.5-10.3h-11.7v-20.5h10.3c6.9,0,10.9-3.4,10.9-8.7s-4-9.3-9.3-9.3c-5.8,0-9.5,3.8-10.9,11.3l-23.1-3.6
		c4.1-18.8,17-29.6,34.7-29.6c21.3,0,34.5,11.8,34.5,27.9c0,10.3-5.3,18.4-14.2,21.4c10.9,3,17,11.5,17,23.2
		c0,17.8-13.9,30.5-36.7,30.5c-20.7,0-34.1-11.4-38.3-32.2L258.8,724.4"/>
	<path id="path43497" inkscape:connector-curvature="0" class="st3" d="M347.3,718.6c13,4.7,19.4,8,19.4,14c0,5-4.1,8.3-11.7,8.3
		c-9.2,0-14.5-4.4-14.5-11.3C340.5,724.8,342.8,721,347.3,718.6z M360.7,696.8c-11-4.1-16.4-7.4-16.4-12.8c0-4.7,4.1-8,10.7-8
		c6.5,0,11.5,5.1,11.5,10.5C366.5,691.1,364.5,694.6,360.7,696.8L360.7,696.8z M331.8,709.3c-9.9,4.6-14.7,11.8-14.7,22.4
		c0,17,13.5,28.1,37.2,28.1c23.5,0,38.2-13,38.2-30.5c0-12.3-5-20.8-15-25.5c7.8-4.6,11.5-11.3,11.5-20.4
		c0-16.1-12.3-26.6-34.3-26.6c-21.3,0-35,13.4-35,30.6C319.7,696.6,323.8,704.2,331.8,709.3"/>
	<path id="path43499" inkscape:connector-curvature="0" class="st1" d="M279.9,627.6c-10,15-31.1,24.1-58,24.1
		c-55,0-91.5-40.9-91.5-108.4c0-67.8,38.7-109.9,101.5-109.9c48,0,79.1,27.2,86.7,75.4l-60.7,6.1c-2.7-21.1-13.6-33-28.1-33
		c-22.9,0-32.3,19.8-32.3,62c0,40,10.3,59.2,33.8,59.2c15.7,0,26.9-10.1,28.4-24.1l0.3-2.4h-34.7v-44.6h94.2v117.5h-30.8
		L279.9,627.6"/>
	<path id="path43501" inkscape:connector-curvature="0" class="st3" d="M333.6,437.7h151.6v49.5H398v35.1h68.5v47.6H398v79.7h-64.3
		V437.7"/>
	<path id="path43503" inkscape:connector-curvature="0" class="st1" d="M314.3,391.1c0,0-20.5,2.4-23.4-23.9c0,0-2.5-5.9,8.9-21.6
		l-3.8-3.4c0,0-8.9,18.6-27.9,15.7c-12.7-2-24.2-12.7-21.6-26.4c2.3-12.1,12.8-19.6,25-19.8c0,0,8.9,0,16.5,3.4l2.1-5.5
		c0,0-12.3-1.3-19.1-9.7c0,0-16.9-19.5,1.7-36c6.3-5.6,18.7-5.1,25.6-1.4c10.9,5.9,13.6,18.7,14.3,30c0.5,0,1.3,0,1.8-0.1
		c0-8.8,0-17.5,0-26.3c0-4.1-6.1-9.8-8.8-12.1c-8.6-7.3-23.6-8.4-32-5.4c-14.2,5-21.2,18.3-21.6,32.6c0,0-0.4,15.2,11,22.9
		c-4-2.7-15.9,5-18.5,7.2c-11.1,9.5-13.1,24.1-8.9,37.5c4.1,13.3,16.5,20.3,30.4,20.5c0,0,7.2,2.1,16.9-4.7c0,0-10.3,34.2,31.5,40.4
		V391.1"/>
	<path id="path43505" inkscape:connector-curvature="0" class="st3" d="M314.5,391.1c0,0,20.5,2.4,23.4-23.9c0,0,2.5-5.9-8.9-21.6
		l3.8-3.4c0,0,8.9,18.6,27.9,15.7c12.7-2,24.2-12.7,21.6-26.4c-2.3-12.1-12.8-19.6-25-19.8c0,0-8.9,0-16.5,3.4l-2.1-5.5
		c0,0,12.3-1.3,19.1-9.7c0,0,16.9-19.5-1.7-36c-6.3-5.6-18.7-5.1-25.6-1.4c-10.9,5.9-13.6,18.7-14.3,30c-0.5,0-1.3,0-1.8-0.1
		c0-8.8,0-17.5,0-26.3c0-4.1,6.1-9.8,8.8-12.1c8.6-7.3,23.6-8.4,32-5.4c14.2,5,21.2,18.3,21.6,32.6c0,0,0.4,15.2-11,22.9
		c4-2.7,15.9,5,18.5,7.2c11.1,9.5,13.1,24.1,8.9,37.5c-4.1,13.3-16.5,20.3-30.4,20.5c0,0-7.2,2.1-16.9-4.7c0,0,10.3,34.2-31.5,40.4
		L314.5,391.1"/>
	<path id="path43507" inkscape:connector-curvature="0" class="st1" d="M314.3,207.3c0,0-12.4,6.2-23.9,36.7c0,0,11,0.9,17.8,7.6
		c0,0,1.2-11.1,6.1-28.2L314.3,207.3"/>
	<path id="path43509" inkscape:connector-curvature="0" class="st3" d="M314,207.4c0,0,12.4,6.2,23.9,36.7c0,0-11,0.8-17.8,7.6
		c0,0-1.2-11.1-6.1-28.2V207.4"/>
	<path id="path43519" inkscape:connector-curvature="0" class="st3" d="M380.8,274.6c0,0,2.4,10.8-2.1,19.2c0,0,10.9-2.1,28.5-2.4
		c-14.6,9.5-24.8,13.8-24.8,13.8c8.5,4.5,13.5,14,13.5,14c25.8-19.9,27.1-32.8,27.1-32.8h0l-0.3,0.1
		C421.9,285.7,411.9,276.5,380.8,274.6L380.8,274.6z"/>
	<path id="path3483" inkscape:connector-curvature="0" class="st3" d="M379.6,368.4c0,0-9.4,5.8-18.8,4.3c0,0,5.6,9.6,11.6,26.1
		c-13.8-10.7-21.2-18.9-21.2-18.9c-1.5,9.5-8.8,17.3-8.8,17.3c27.2,17.9,39.8,14.9,39.8,14.9l0,0l-0.2-0.3
		C382.5,410.9,387.9,398.5,379.6,368.4L379.6,368.4z"/>
	<path id="path43527" inkscape:connector-curvature="0" class="st1" d="M312.4,294.7l-30.9-22.9c0,0-4.6-2.4-3.8,2.4l14.8,35.2
		C292.4,309.4,306.2,293.9,312.4,294.7"/>
	<path id="path43529" inkscape:connector-curvature="0" class="st1" d="M288,315.8l-31.7,21.8c0,0-3.7,3.5,1,4.4l38.1-2.5
		C295.4,339.5,285.3,321.4,288,315.8"/>
	<path id="path43531" inkscape:connector-curvature="0" class="st1" d="M314.3,346.1c-5.1,0.2-10.2-0.2-12.2-2.1l10.2,37.1
		c0,0,0.8,1.8,2,2.2c0.7,0.2,1.6-0.1,2.4-1.7l10.2-36.8C327,344.8,320.7,345.9,314.3,346.1"/>
	<path id="path43533" inkscape:connector-curvature="0" class="st3" d="M314.3,383.5c0.7,0.2,1.6-0.1,2.4-1.7l10.2-36.8
		c0,0-6.3,1.1-12.6,1.4"/>
	<path id="path43535" inkscape:connector-curvature="0" class="st3" d="M333.1,340.2l38.4,1.6c0,0,5.1-0.6,1.8-4.1l-32-20.9
		C341.4,316.8,338.6,337.3,333.1,340.2"/>
	<path id="path43537" inkscape:connector-curvature="0" class="st3" d="M317.1,294.7l30.9-22.9c0,0,4.6-2.4,3.8,2.4l-14.8,35.2
		C337.1,309.4,323.3,293.9,317.1,294.7"/>
	<path id="path43539" inkscape:connector-curvature="0" class="st3" d="M293.6,320.5c0-11.5,9.2-20.8,20.7-20.9v-6.4
		c-15,0.1-27.1,12.3-27.1,27.3c0,15,12.1,27.2,27.1,27.3v-6.4C302.9,341.3,293.6,332,293.6,320.5"/>
	<path id="path43541" inkscape:connector-curvature="0" class="st1" d="M314.5,293.1c-0.1,0-0.2,0-0.3,0v6.4c0.1,0,0.2,0,0.3,0
		c11.6,0,20.9,9.4,20.9,20.9c0,11.6-9.4,20.9-20.9,20.9c-0.1,0-0.2,0-0.3,0v6.4c0.1,0,0.2,0,0.3,0c15.1,0,27.3-12.2,27.3-27.3
		S329.7,293.1,314.5,293.1"/>
	<path id="path43543" inkscape:connector-curvature="0" class="st1" d="M293.6,320.5c0,11.5,9.2,20.8,20.7,20.9v-9
		c-6.5-0.1-11.6-5.4-11.6-11.9s5.2-11.7,11.6-11.9v-9C302.9,299.7,293.6,309,293.6,320.5"/>
	<path id="path43545" inkscape:connector-curvature="0" class="st3" d="M314.5,308.6c6.6,0,11.9,5.3,11.9,11.9
		c0,6.6-5.3,11.9-11.9,11.9c-0.1,0-0.2,0-0.3,0v9c0.1,0,0.2,0,0.3,0c11.6,0,20.9-9.4,20.9-20.9c0-11.6-9.4-20.9-20.9-20.9
		c-0.1,0-0.2,0-0.3,0v9C314.4,308.6,314.5,308.6,314.5,308.6"/>
	<path id="path43547" inkscape:connector-curvature="0" class="st3" d="M302.6,320.5c0,6.5,5.2,11.7,11.6,11.9v-23.8
		C307.8,308.8,302.6,314,302.6,320.5"/>
	<path id="path43549" inkscape:connector-curvature="0" class="st1" d="M326.5,320.5c0-6.6-5.3-11.9-11.9-11.9c-0.1,0-0.2,0-0.3,0
		v23.8c0.1,0,0.2,0,0.3,0C321.1,332.4,326.5,327.1,326.5,320.5"/>
	<path id="path3487" inkscape:connector-curvature="0" class="st1" d="M234.7,320.3c0,0,4.3-10.2,12.9-14.4c0,0-10.1-4.6-24.6-14.6
		c17.4,0.8,28.2,3.1,28.2,3.1c-4.3-8.6-2.9-19.2-2.9-19.2c-32.5,1.2-41.1,10.9-41.1,10.9l0,0l0.3,0.1
		C207.7,287.3,210.4,300.6,234.7,320.3z"/>
	<path id="path3489" inkscape:connector-curvature="0" class="st1" d="M288.3,396.4c0,0-8.4-7.2-9.9-16.6c0,0-7.4,8.2-21.3,19
		c6-16.4,11.5-25.9,11.5-25.9c-9.5,1.5-19.2-3.1-19.2-3.1c-8.7,31.4-2,42.5-2,42.5l0,0l0.2-0.3C248.7,412.2,262.2,413.6,288.3,396.4
		L288.3,396.4z"/>
</g>
</svg>
