<?xml version="1.0" encoding="utf-8"?>
<!-- Generator: Adobe Illustrator 26.0.2, SVG Export Plug-In . SVG Version: 6.00 Build 0)  -->
<svg version="1.1" id="Calque_1" xmlns="http://www.w3.org/2000/svg" xmlns:xlink="http://www.w3.org/1999/xlink" x="0px" y="0px"
	 width="800px" height="800px" viewBox="0 0 800 800" style="enable-background:new 0 0 800 800;" xml:space="preserve">
<style type="text/css">
	.st0{fill-rule:evenodd;clip-rule:evenodd;fill:#FFFFFF;}
	.st1{fill-rule:evenodd;clip-rule:evenodd;fill:#E30613;}
	.st2{fill:#FFFFFF;}
	.st3{fill-rule:evenodd;clip-rule:evenodd;}
</style>
<polygon class="st0" points="740.5,367.8 631.4,317.1 631.4,211.1 740.5,261.8 "/>
<polygon class="st0" points="214.6,506.3 59.6,459.6 59.6,353.6 214.6,362.9 "/>
<path class="st1" d="M124.4,41v461.1c0,0,40.1,129.5,275.1,255.7c234.9-126.2,275.1-255.7,275.1-255.7V41H124.4z"/>
<path class="st2" d="M399.5,767.8l-4.2-2.2C160,639.1,117.7,510.2,116.1,504.7l-0.4-1.3V32.2h567.7v471.2l-0.4,1.3
	c-1.7,5.4-43.9,134.3-279.3,260.8L399.5,767.8z M133.2,500.7c4.7,12.8,53,131.4,266.3,247.2c213.1-115.7,261.6-234.3,266.3-247.2
	V49.8H133.2V500.7z"/>
<g>
	<polygon class="st2" points="285.3,256.9 209,256.9 209,209.1 281.1,209.1 281.1,169.4 209,169.4 209,126.2 285.3,126.2 
		285.3,83.2 167,83.2 167,299.9 285.3,299.9 	"/>
	<path class="st2" d="M414.1,83.2h-49.8L307,299.8h43l8.5-39.5h60.7l8,29.5l40.1-5.4L414.1,83.2z M367.3,220.7l21.9-77.8l21.3,77.8
		H367.3z"/>
	<path class="st2" d="M632,183.9h-76.3v39.7h34v16.6c0,16.6-5.7,16.6-16.1,16.6h-27.8c-10.5,0-14.9,0-14.9-16.7v-100
		c0-14,3-14,15.6-14.1h32.3c0.4,0,0.8,0,1.2,0c4.9,0.5,9.7,2.2,9.7,15.5V157H632v-34.6c0-23.5-15.3-39.3-38.2-39.3h-61.3
		c-24.7,0-43.8,24.6-43.8,45.8v125.6c0,8.4,3.7,17.7,9.6,25.7l133.7-18V183.9z"/>
</g>
<g>
	<polygon class="st3" points="741.4,367.8 58.6,459.6 58.6,353.6 741.4,261.8 	"/>
	<path class="st2" d="M94,420l18.3-2.6v9.2L81.2,431L81,375.2l30.4-4.3v9.2l-17.6,2.5v13.6l15-2.1v9.2l-15,2.1L94,420z"/>
	<path class="st2" d="M141.5,366.6l11.7-1.7l0.2,55.9l-11.5,1.6l-12.6-31.7l0.1,33.5l-11.6,1.6l-0.2-55.9l11.6-1.6l12.4,31.6
		L141.5,366.6z"/>
	<path class="st2" d="M203.4,413.7l-2-9.8l-13,1.8l-1.9,10.4l-12.6,1.8l12.7-57.7l16.3-2.3l13.5,54L203.4,413.7z M190.2,396.4
		l9.3-1.3l-4.7-23L190.2,396.4z"/>
	<path class="st2" d="M244.6,352l13.3-1.9l-12.3,57.6l-15.7,2.2l-12.9-54l13.4-1.9l7.2,40.4L244.6,352z"/>
	<path class="st2" d="M288.7,401.7l-2-9.8l-13,1.8l-1.9,10.4l-12.6,1.8l12.7-57.7l16.3-2.3l13.5,54L288.7,401.7z M275.5,384.3
		l9.3-1.3l-4.7-23L275.5,384.3z"/>
	<path class="st2" d="M329.7,340l11.7-1.7l0.2,55.9l-11.5,1.6l-12.6-31.7l0.1,33.5l-11.7,1.6l-0.2-55.9l11.6-1.6l12.4,31.6V340z"/>
	<path class="st2" d="M379.5,333v9.2l-10.5,1.5l0.2,46.6l-12.8,1.8l-0.2-46.6l-10.4,1.5v-9.2L379.5,333z"/>
	<path class="st2" d="M433.8,343.4l-12.8,1.8v-7.3c0-1.5-0.8-2.1-2.4-1.9l-3.7,0.5c-1.6,0.2-2.4,1.1-2.4,2.5l0.1,34.3
		c0,0.8,0.2,1.4,0.5,1.6c0.4,0.3,1,0.3,1.9,0.2l3.7-0.5c0.9-0.1,1.5-0.4,1.9-0.7c0.4-0.4,0.5-1,0.5-1.8v-10.9l-4.5,0.6v-8.3
		l17.3-2.4l0.1,20.4c0,6.4-3.7,10.2-11.3,11.3l-11.6,1.6c-7.5,1.1-11.3-1.6-11.3-8.1l-0.1-36.5c0-6.4,3.7-10.2,11.3-11.3l11.6-1.6
		c7.5-1.1,11.3,1.6,11.3,8.1L433.8,343.4z"/>
	<path class="st2" d="M462.6,321.2l12.8-1.8l0.2,46.1c0,6.5-3.8,10.3-11.3,11.4l-12,1.7c-7.5,1.1-11.3-1.6-11.3-8.2l-0.2-46.1
		l12.8-1.8l0.2,44.4c0,1.5,0.8,2.1,2.3,1.9l4.3-0.6c1.6-0.2,2.4-1.1,2.4-2.5L462.6,321.2z"/>
	<path class="st2" d="M483.7,318.2l12.7-1.8l0.2,55.9l-12.7,1.8L483.7,318.2z"/>
	<path class="st2" d="M528.6,311.9l11.7-1.7l0.2,55.9l-11.5,1.6L516.5,336l0.1,33.5l-11.7,1.6l-0.2-55.9l11.6-1.6l12.4,31.6
		L528.6,311.9z"/>
	<path class="st2" d="M582.1,322.4l-12.8,1.8v-7.3c0-1.5-0.8-2.1-2.4-1.9l-3.7,0.5c-1.6,0.2-2.4,1.1-2.4,2.5l0.1,34.3
		c0,0.8,0.2,1.4,0.5,1.6c0.4,0.3,1,0.3,1.9,0.2l3.7-0.5c0.9-0.1,1.5-0.4,1.9-0.7c0.4-0.4,0.5-1,0.5-1.8v-10.9l-4.5,0.6v-8.3
		l17.3-2.4l0.1,20.4c0,6.4-3.7,10.2-11.3,11.3l-11.6,1.6c-7.5,1.1-11.3-1.6-11.3-8.1l-0.1-36.5c0-6.4,3.7-10.2,11.3-11.3l11.6-1.6
		c7.5-1.1,11.3,1.6,11.3,8.1L582.1,322.4z"/>
	<path class="st2" d="M615.4,355.5l-2-9.8l-13,1.8l-1.9,10.4l-12.6,1.8l12.7-57.7l16.3-2.3l13.5,54L615.4,355.5z M602.1,338.1
		l9.3-1.3l-4.7-23L602.1,338.1z"/>
	<path class="st2" d="M643.9,351.4l-11.3,1.6l-0.2-55.9l14-2l9.5,30.3l9.3-32.9l14-2l0.2,55.9l-11.3,1.6l-0.1-37.5l-7.3,26.4
		l-9.5,1.3l-7.4-24.3L643.9,351.4z"/>
	<path class="st2" d="M687.3,289.4l23.5-3.3c7.5-1.1,11.3,1.6,11.3,8.1l0.1,16.9c0,6.5-3.7,10.3-11.3,11.3l-10.8,1.5l0.1,19.5
		l-12.7,1.8L687.3,289.4z M709.3,311.3v-13.5c0-1.5-0.8-2.1-2.3-1.9l-6.9,1l0.1,17.9l6.9-1C708.6,313.6,709.3,312.7,709.3,311.3z"/>
</g>
<g>
	<path d="M169,498.6c0,0,33.8,109.5,231.4,216.3C598,608.1,631.8,498.6,631.8,498.6v-102L169,459.2V498.6z"/>
	<g>
		<path class="st2" d="M545.8,486c-27.6-4.2-55.5,9.1-68.4,32.6c-11.5,21-8.9,46.4,6.6,62.6c13.4,14,33.4,17.2,48.8,7.8
			c9.2-5.6,14.3-16.5,12.4-26.1c-1.4-7-6.6-12.2-12.5-12.5c-4.5-0.2-7.3,2.1-7.9,6.4c-0.7,5.1-4.1,7.6-9.2,6.7
			c-5.3-1-8.7-4.5-10.4-9.4c-3.1-8.9-0.8-16.9,5.3-23.6c9.2-10.1,21-12.8,34-9.7c21,4.9,35.6,25.7,34.7,49
			c-0.2,4.1-0.8,8.1-1.7,11.9c13.8-15.3,24.2-29.2,32.1-41C600,511.7,575.8,490.6,545.8,486z"/>
		<path class="st2" d="M260.1,462.5c4.6,28.9,21.3,48.8,49.9,57c24.5,7,50.4-3.1,62.9-23.8c9.8-16.2,8.5-36.5-3-49.7
			c-6.3-7.2-14.8-11-23.3-10.8l-6.3,0.9c-1.3,0.3-2.5,0.7-3.8,1.3c-6.9,2.9-11.6,10.1-10.9,16.7c0.7,6.1,6,10.3,11.5,7.2
			c3.1-1.7,6.4-0.3,8.4,2.8c3.4,5.3,1.8,13-3.8,17.9c-7.3,6.4-18.5,7.8-28.2,2.7c-14.5-7.6-20.6-20.2-20-36.1
			c0.1-2.1,0.3-4.2,0.7-6.3L259,447C258.9,452,259.3,457.1,260.1,462.5z"/>
		<path class="st2" d="M404.1,434.8c15.4,26.8,12.8,61.2-6.6,86.4c-14.7,19.1-34.3,30.1-57.9,34.1c-13,2.2-25.3,6.4-32.2,10.3
			c-15,8.4-24.3,15.7-32.4,24.4c-7.2,7.8-13.1,16.5-17.6,25.7c8.5,7.7,17.7,15.7,27.8,23.8c6.3-19.2,21.1-35.8,41.6-44.1
			c34.7-14.1,66-6.4,93.1,18.8c6,5.6,11,12.3,16.9,18.1c14.9,14.4,32.6,23.8,51.1,28.2c16.1-11.6,30.5-22.9,43.3-34
			c-35.6,9.1-74-10.2-89.3-47.6c-9.1-22.2-7.9-44.4-0.1-67c11-32,10-62.1-4.4-89.1l-37.8,5.1C401.2,430.2,402.7,432.4,404.1,434.8z"
			/>
		<path class="st2" d="M388.6,633.1c-18.4-13.2-42.7-13-59.2,0.7c-9,7.4-13.8,18.2-13.4,29c10,7.1,20.6,14.2,31.9,21.4
			c0.5-0.5,1-1.1,1.4-1.7c2.4-3.4,2-7.3-0.8-9.7c-5.7-4.9-5.1-10.9,1.5-14.5c6.3-3.5,14.9-2,21,4c9,9,10.4,19.8,6.5,31.4
			c-0.8,2.4-1.8,4.6-3,6.7c8.3,4.8,16.9,9.7,25.8,14.5c2.5-1.3,4.9-2.7,7.3-4c0.2-0.4,0.4-0.9,0.6-1.3
			C420.2,681.8,412,649.9,388.6,633.1z"/>
	</g>
	<g>
		<path d="M362.5,559.3h-3.8v-6.1h10.7v28.2h-6.9L362.5,559.3L362.5,559.3z"/>
		<path d="M381,573.1c0.4,2,1.5,3,3.6,3c2.8,0,3.7-2.4,3.7-7.7c-1.1,1.6-3.2,2.5-5.6,2.5c-4.8,0-8.5-3-8.5-9c0-5.7,3.7-9.4,9.7-9.4
			c8,0,10.3,5.5,10.3,14c0,9.6-2.2,15-9.8,15c-6.1,0-9.1-4.1-9.4-8.4L381,573.1L381,573.1z M387.7,562.1c0-2.5-1.5-3.9-3.7-3.9
			c-2.3,0-3.7,1.5-3.7,3.8c0,2.1,1.2,3.7,3.8,3.7C386.4,565.8,387.7,564.4,387.7,562.1z"/>
		<path d="M400.8,559.3H397v-6.1h10.7v28.2h-6.9L400.8,559.3L400.8,559.3z"/>
		<path d="M411.9,576.1c6-4.9,12.4-9.8,12.4-14.6c0-2-0.9-3.4-2.9-3.4s-3.1,1.5-3.1,4.2h-6.4c0.2-6.8,4.6-9.8,9.8-9.8
			c6.4,0,9.3,3.7,9.3,8.5c0,6.2-5.5,11.1-10,14.6h10.4v5.4H412L411.9,576.1L411.9,576.1z"/>
	</g>
</g>
</svg>
