<?xml version="1.0" encoding="utf-8"?>
<!-- Generator: Adobe Illustrator 26.0.2, SVG Export Plug-In . SVG Version: 6.00 Build 0)  -->
<svg version="1.1"
	 id="Ebene_1" xmlns:cc="http://creativecommons.org/ns#" xmlns:dc="http://purl.org/dc/elements/1.1/" xmlns:inkscape="http://www.inkscape.org/namespaces/inkscape" xmlns:rdf="http://www.w3.org/1999/02/22-rdf-syntax-ns#" xmlns:sodipodi="http://sodipodi.sourceforge.net/DTD/sodipodi-0.dtd" xmlns:svg="http://www.w3.org/2000/svg"
	 xmlns="http://www.w3.org/2000/svg" xmlns:xlink="http://www.w3.org/1999/xlink" x="0px" y="0px" width="600px" height="600px"
	 viewBox="0 0 600 600" style="enable-background:new 0 0 600 600;" xml:space="preserve">
<style type="text/css">
	.st0{fill:#D9B717;}
	.st1{fill:#17981A;}
	.st2{fill:#D5160C;}
	.st3{fill-rule:evenodd;clip-rule:evenodd;fill:#D9B717;}
	.st4{fill-rule:evenodd;clip-rule:evenodd;fill:#17981A;}
	.st5{fill-rule:evenodd;clip-rule:evenodd;fill:#FFFFFF;}
	.st6{fill:#FFFFFF;}
</style>
<sodipodi:namedview  bordercolor="#666666" borderopacity="1" gridtolerance="10" guidetolerance="10" id="namedview85" inkscape:current-layer="Ebene_1" inkscape:cx="179.71589" inkscape:cy="191.70166" inkscape:pageopacity="0" inkscape:pageshadow="2" inkscape:window-height="691" inkscape:window-maximized="1" inkscape:window-width="1280" inkscape:window-x="0" inkscape:window-y="1" inkscape:zoom="0.59468161" objecttolerance="10" pagecolor="#ffffff" showgrid="false">
	</sodipodi:namedview>
<g id="g5437" transform="matrix(1.511335,0,0,1.511335,0.1125937,0.11335682)">
	<g id="g5432">
		<path id="path4976" inkscape:connector-curvature="0" sodipodi:nodetypes="sssss" class="st0" d="M198.4-0.1
			C88.8-0.1-0.1,88.8-0.1,198.4c0,109.6,88.9,198.5,198.5,198.5c109.6,0,198.5-88.9,198.5-198.5C396.9,88.8,308.1-0.1,198.4-0.1z"/>
		<path id="path4978" inkscape:connector-curvature="0" sodipodi:nodetypes="sssss" class="st1" d="M198.4,5.2
			c106.7,0,193.2,86.5,193.2,193.2c0,106.7-86.5,193.2-193.2,193.2C91.7,391.6,5.2,305.1,5.2,198.4C5.2,91.7,91.7,5.2,198.4,5.2z"/>
		<circle id="circle4973" class="st2" cx="198.4" cy="198.4" r="145.9"/>
	</g>
	<g id="g5157">
		<g id="g5119">
			<path id="path21" inkscape:connector-curvature="0" class="st0" d="M76.9,306.8l-20.7,6.6l-8-9.5l0.6-0.5l0.6,0.8
				c0.6,0.7,1.2,1.1,1.7,1.3c0.4,0.1,0.9,0.2,1.4,0c0.4-0.1,1.1-0.6,2.3-1.6l15.4-12.9c1.2-1,1.9-1.7,2.1-2.1
				c0.2-0.4,0.2-0.9,0.1-1.4c-0.1-0.6-0.4-1.2-1-1.9l-0.6-0.8l0.6-0.5l10.2,12.2l-0.6,0.5l-0.6-0.8c-0.6-0.7-1.2-1.1-1.8-1.3
				c-0.4-0.1-0.9-0.2-1.4,0c-0.4,0.1-1.1,0.6-2.3,1.6L57.8,311l28.7-8.9l0.3,0.4l-13.5,26.8l16.4-13.8c1.1-1,1.8-1.6,2-1.9
				c0.4-0.6,0.6-1.3,0.6-2.1c-0.1-0.8-0.5-1.7-1.4-2.8l0.6-0.5l6.7,8l-0.6,0.5l-0.2-0.2c-0.4-0.5-0.9-0.9-1.5-1.2
				c-0.6-0.3-1.1-0.4-1.6-0.4c-0.5,0-1.1,0.2-1.7,0.5c-0.1,0.1-0.7,0.6-1.8,1.4l-14.7,12.4c-1.2,1-1.9,1.7-2,2
				c-0.2,0.4-0.2,0.9-0.1,1.4c0.1,0.6,0.4,1.2,1,1.8l0.6,0.7l-0.6,0.5l-8-9.5L76.9,306.8L76.9,306.8L76.9,306.8z"/>
			<path id="path23" inkscape:connector-curvature="0" class="st0" d="M54.9,271l5,9.5l3.2-0.3c1.1-0.1,1.9-0.3,2.5-0.6
				c0.8-0.4,1.2-1,1.2-1.8c0-0.5-0.3-1.4-0.9-2.9l0.7-0.4l4.7,8.9l-0.7,0.4c-0.7-0.9-1.5-1.5-2.5-1.7c-1-0.3-2.7-0.3-5.3-0.1
				l-26.5,1.8l-0.2-0.4L53,262c1.6-2,2.5-3.5,2.7-4.4c0.2-0.7,0.1-1.4-0.3-2.3l0.7-0.4l6.9,13l-0.7,0.4l-0.3-0.5
				c-0.6-1-1.1-1.7-1.6-2c-0.4-0.2-0.7-0.2-1.1,0c-0.2,0.1-0.5,0.3-0.7,0.5c-0.1,0.1-0.5,0.6-1.2,1.4L54.9,271
				C54.9,271,54.9,271,54.9,271z M53.8,272.4l-7.1,8.9l11.4-0.8L53.8,272.4L53.8,272.4z"/>
			<path id="path25" inkscape:connector-curvature="0" class="st0" d="M19.7,241.9l10.2-3.1l0.2,0.8c-2.5,1.8-4.2,3.9-5.1,6.3
				c-0.9,2.4-1,4.7-0.3,6.9c0.7,2.2,1.8,3.8,3.5,4.9c1.7,1.1,3.7,1.6,6,1.5c2.4-0.1,4.7-0.5,7-1.2c2.8-0.9,5.1-1.9,7-3.2
				c1.9-1.3,3.1-2.8,3.7-4.6c0.5-1.8,0.5-3.7-0.1-5.7c-0.2-0.7-0.5-1.4-0.9-2.1c-0.4-0.7-0.8-1.4-1.3-2.1l-6,1.9
				c-1.1,0.3-1.9,0.7-2.1,0.9c-0.3,0.3-0.5,0.7-0.6,1.3c-0.1,0.6-0.1,1.2,0.1,1.9l0.2,0.7l-0.8,0.2l-4.3-14.1l0.8-0.2
				c0.4,1,0.8,1.7,1.1,2.1c0.4,0.3,0.8,0.6,1.4,0.6c0.3,0,1-0.1,2.1-0.4l6-1.8c1.4,1.6,2.6,3.3,3.6,5.2c1,1.9,1.9,3.9,2.5,6.1
				c0.8,2.8,1.2,5.2,1,7.2c-0.2,2.1-0.7,4-1.5,5.7c-0.8,1.8-1.8,3.3-3.1,4.5c-1.7,1.6-3.7,2.8-6.2,3.5c-4.4,1.3-8.5,0.9-12.5-1.2
				c-4-2.2-6.6-5.6-8.1-10.2c-0.4-1.4-0.7-2.8-0.9-4c-0.1-0.7-0.1-1.8,0-3.4c0.1-1.6,0.1-2.5,0-2.7c-0.1-0.4-0.4-0.7-0.8-1
				c-0.4-0.3-1.1-0.4-2-0.4L19.7,241.9L19.7,241.9L19.7,241.9z"/>
			<path id="path27" inkscape:connector-curvature="0" class="st0" d="M14.8,204.7l0.8-0.1c0.3,1,0.7,1.7,1.2,2.2
				c0.7,0.7,2.6,1.6,5.6,2.8l11.8,5l7.3-1c1.6-0.2,2.5-0.4,2.9-0.7c0.3-0.2,0.6-0.6,0.9-1.1c0.2-0.5,0.3-1.2,0.2-2l-0.2-1.7L46,208
				l2.4,16.9l-0.8,0.1l-0.2-1.6c-0.1-0.9-0.4-1.6-0.8-2c-0.3-0.4-0.7-0.6-1.2-0.8c-0.4-0.1-1.3-0.1-2.8,0.1l-6,0.8l-11.9,8.9
				c-2.3,1.8-3.7,3-4.1,3.6c-0.4,0.6-0.5,1.4-0.4,2.4l-0.8,0.1l-2-14.4l0.8-0.1l0.1,0.6c0.1,0.9,0.3,1.5,0.6,1.8
				c0.3,0.3,0.6,0.4,0.9,0.4c0.5-0.1,1.8-0.9,3.8-2.3l9.2-6.8l-9.9-4.1c-2.4-1-4-1.5-4.7-1.4c-0.4,0.1-0.7,0.3-0.9,0.7
				c-0.3,0.6-0.4,1.5-0.3,2.9l-0.8,0.1L14.8,204.7L14.8,204.7L14.8,204.7z"/>
			<path id="path29" inkscape:connector-curvature="0" class="st0" d="M37.5,187.8l-0.2,10.7l2.9,1.3c1,0.4,1.8,0.7,2.4,0.7
				c0.9,0,1.5-0.3,1.9-1c0.3-0.4,0.4-1.4,0.6-3l0.8,0l-0.2,10.1l-0.8,0c-0.1-1.1-0.6-2-1.3-2.7c-0.7-0.7-2.2-1.6-4.5-2.7L15.1,190
				l0-0.4l25.1-10.5c2.4-1,3.9-1.8,4.5-2.5c0.5-0.5,0.8-1.2,0.8-2.1l0.8,0l-0.3,14.7l-0.8,0l0-0.6c0-1.2-0.1-2-0.5-2.5
				c-0.2-0.3-0.6-0.5-1-0.5c-0.3,0-0.5,0-0.8,0.1c-0.1,0-0.7,0.2-1.7,0.6L37.5,187.8L37.5,187.8L37.5,187.8z M35.8,188.6l-10.5,4.3
				l10.4,4.9L35.8,188.6L35.8,188.6z"/>
			<path id="path31" inkscape:connector-curvature="0" class="st0" d="M36.7,157.8l8.2,2.5c1.6,0.5,2.6,0.7,3.1,0.6
				c0.5-0.1,0.9-0.3,1.3-0.7c0.4-0.4,0.8-1.3,1.2-2.6l0.8,0.2l-4.6,14.9l-0.8-0.2c0.4-1.3,0.6-2.3,0.5-2.9c-0.1-0.6-0.3-1-0.7-1.3
				c-0.3-0.3-1.3-0.7-2.9-1.2l-18.9-5.8c-1.6-0.5-2.6-0.7-3.1-0.6c-0.5,0.1-0.9,0.3-1.3,0.7c-0.4,0.4-0.8,1.3-1.2,2.6l-0.8-0.2
				l4.1-13.5c1.1-3.5,2.1-6,3.1-7.5c1-1.5,2.3-2.5,3.9-3.2c1.6-0.6,3.3-0.7,5.1-0.1c2.1,0.7,3.7,2,4.6,3.9c0.6,1.3,0.8,2.8,0.7,4.7
				l12-4c1.6-0.5,2.5-0.9,3-1.2c0.6-0.5,1.1-1.1,1.4-1.8l0.8,0.2l-2.8,9.2l-16.1,5.3L36.7,157.8C36.7,157.8,36.7,157.8,36.7,157.8z
				 M22.4,153.5l12.7,3.9l0.4-1.2c0.6-2,0.9-3.5,0.8-4.6c-0.1-1.1-0.5-2.1-1.3-2.9c-0.8-0.9-1.9-1.5-3.5-2c-2.2-0.7-4-0.7-5.4,0.1
				c-1.4,0.7-2.4,2.2-3.1,4.5L22.4,153.5L22.4,153.5L22.4,153.5z"/>
			<path id="path33" inkscape:connector-curvature="0" class="st0" d="M73.2,93.3l8,7.2l-15.9,21.8l-0.7-0.5l0.6-0.8
				c0.5-0.7,0.8-1.4,0.9-2c0.1-0.4-0.1-0.9-0.3-1.4c-0.2-0.3-0.9-1-2.1-1.9l-16.2-11.8c-1.3-0.9-2.1-1.4-2.5-1.5
				c-0.4-0.1-0.9,0-1.4,0.2c-0.5,0.2-1,0.7-1.5,1.4l-0.6,0.8l-0.7-0.5l9.5-13.1l0.7,0.5l-0.8,1.1c-0.5,0.7-0.8,1.4-0.9,2
				c-0.1,0.4,0.1,0.9,0.3,1.4c0.2,0.3,0.9,1,2.1,1.9l15.7,11.4c1.3,0.9,2.1,1.4,2.6,1.5c0.5,0.1,0.9,0,1.4-0.3
				c0.3-0.2,0.9-0.9,1.8-2.1l1.5-2.1c0.9-1.3,1.5-2.6,1.7-3.8c0.2-1.2,0-2.5-0.5-3.8c-0.5-1.4-1.6-3-3.1-5L73.2,93.3L73.2,93.3
				L73.2,93.3z"/>
			<path id="path35" inkscape:connector-curvature="0" class="st0" d="M89.3,80.3l-7.9,7.3l1.1,3c0.4,1,0.8,1.7,1.2,2.2
				c0.6,0.6,1.3,0.9,2,0.7c0.5-0.1,1.3-0.6,2.5-1.6l0.6,0.6l-7.4,6.9l-0.6-0.6c0.7-0.9,1-1.8,1-2.8c0-1-0.4-2.7-1.2-5.1l-8.6-25.2
				l0.3-0.3l25,10.8c2.4,1,4,1.5,4.9,1.5c0.7,0,1.4-0.3,2.1-0.9l0.6,0.6l-10.8,10l-0.6-0.6l0.4-0.4c0.9-0.8,1.4-1.5,1.5-2.1
				c0.1-0.4,0-0.8-0.3-1.1c-0.2-0.2-0.4-0.4-0.7-0.5c-0.1-0.1-0.7-0.3-1.6-0.8L89.3,80.3L89.3,80.3L89.3,80.3z M87.6,79.6L77.2,75
				l3.7,10.8L87.6,79.6L87.6,79.6L87.6,79.6z"/>
			<path id="path37" inkscape:connector-curvature="0" class="st0" d="M113.6,52.5c2.8-1,4.9-1.4,6.4-1.3c2.1,0.2,3.8,1.3,5,3.1
				c1.2,1.9,1.5,4,0.8,6.3c-0.9,2.8-3.2,5.3-6.8,7.6l-13,8.4l-0.5-0.7c1.2-0.8,1.9-1.4,2.2-1.9c0.3-0.5,0.4-1,0.3-1.4
				c-0.1-0.5-0.5-1.4-1.4-2.8L95.9,53.3c-0.9-1.4-1.5-2.2-1.9-2.4c-0.4-0.3-0.9-0.3-1.4-0.3c-0.6,0.1-1.4,0.5-2.6,1.2l-0.5-0.7
				l12.2-7.9c2.9-1.9,5.2-3,6.7-3.2c1.6-0.3,3-0.1,4.4,0.5c1.4,0.6,2.4,1.5,3.2,2.6c0.8,1.2,1.1,2.6,0.8,4.2
				C116.5,48.7,115.4,50.4,113.6,52.5L113.6,52.5L113.6,52.5z M106.4,56.4c1.8-1.2,3-2.2,3.5-3.2c0.6-1,0.9-1.9,0.9-3
				c0-1-0.4-2.1-1.1-3.2c-0.7-1.1-1.6-1.9-2.5-2.3c-0.9-0.4-1.9-0.6-3-0.4s-2.5,0.8-4.3,2L106.4,56.4L106.4,56.4L106.4,56.4z
				 M107.3,57.9l5.3,8.2l0.6,1c0.4,0.7,0.9,1.1,1.5,1.2c0.6,0.1,1.2,0,1.9-0.5c1-0.7,1.8-1.5,2.3-2.5c0.6-1,0.8-2.1,0.7-3.2
				c-0.1-1.1-0.5-2.2-1.2-3.3c-0.8-1.2-1.7-2.1-2.9-2.7c-1.2-0.6-2.4-0.8-3.6-0.5C110.8,55.9,109.2,56.6,107.3,57.9L107.3,57.9
				L107.3,57.9z"/>
			<path id="path39" inkscape:connector-curvature="0" class="st0" d="M130.4,61.3l-0.3-0.8l0.9-0.4c0.8-0.3,1.4-0.7,1.7-1.2
				c0.3-0.4,0.5-0.9,0.5-1.4c0-0.3-0.3-1.2-0.9-2.7L125,36.3c-0.6-1.4-1-2.3-1.3-2.6c-0.3-0.3-0.7-0.5-1.3-0.6c-0.6-0.1-1.3,0-2,0.4
				l-0.9,0.4l-0.3-0.8l12.6-5.1c3.4-1.4,6.3-2,8.7-1.9c3,0.1,5.6,1,7.8,2.8c2.2,1.8,3.9,4.1,5.1,6.9c0.8,2,1.2,3.9,1.3,5.9
				c0,1.9-0.2,3.6-0.8,5.1c-0.6,1.5-1.4,2.8-2.4,4c-1.1,1.2-2.5,2.4-4.2,3.5c-0.8,0.5-2.1,1.1-3.9,1.9L130.4,61.3
				C130.4,61.3,130.4,61.3,130.4,61.3z M130.4,30.3l8.9,22c0.5,1.2,0.8,1.9,1,2.1c0.2,0.2,0.5,0.3,0.8,0.4c0.5,0.1,1-0.1,1.8-0.3
				c2.3-0.9,3.8-2.4,4.3-4.5c0.8-2.8,0.3-6.5-1.5-10.9c-1.5-3.6-3.2-6.3-5.2-8c-1.6-1.3-3.2-2-4.9-2
				C134.5,28.9,132.8,29.4,130.4,30.3L130.4,30.3L130.4,30.3z"/>
			<path id="path41" inkscape:connector-curvature="0" class="st0" d="M171.8,39.4l-10.6,1.7l-0.8,3.1c-0.3,1-0.3,1.9-0.2,2.5
				c0.1,0.8,0.6,1.4,1.3,1.7c0.4,0.2,1.4,0.2,3,0.1l0.1,0.8l-10,1.6l-0.1-0.8c1-0.3,1.9-0.9,2.4-1.8c0.6-0.8,1.2-2.5,1.9-4.9
				l6.9-25.7l0.4-0.1l14.7,22.9c1.4,2.2,2.5,3.5,3.2,4c0.6,0.4,1.3,0.5,2.3,0.5l0.1,0.8L172,48.1l-0.1-0.8l0.6-0.1
				c1.2-0.2,2-0.5,2.4-0.9c0.3-0.3,0.4-0.7,0.3-1.1c0-0.3-0.1-0.5-0.3-0.8c-0.1-0.1-0.4-0.6-0.9-1.6L171.8,39.4
				C171.8,39.4,171.8,39.4,171.8,39.4z M170.8,37.9l-6.1-9.6l-3,11.1L170.8,37.9L170.8,37.9z"/>
			<path id="path43" inkscape:connector-curvature="0" class="st0" d="M199.2,32v8.5c0,1.6,0.1,2.7,0.3,3.1c0.2,0.4,0.6,0.8,1.1,1
				c0.5,0.3,1.5,0.4,2.9,0.4v0.8h-15.6v-0.8c1.4,0,2.4-0.1,2.9-0.4c0.5-0.3,0.9-0.6,1.1-1c0.2-0.4,0.3-1.4,0.3-3.1V20.8
				c0-1.6-0.1-2.7-0.3-3.1c-0.2-0.4-0.6-0.8-1.1-1c-0.5-0.3-1.5-0.4-2.8-0.4v-0.8H202c3.7,0,6.4,0.3,8.1,0.8
				c1.7,0.5,3.1,1.4,4.2,2.8c1.1,1.4,1.6,3,1.6,4.8c0,2.2-0.8,4.1-2.4,5.6c-1,0.9-2.5,1.6-4.3,2.1l7.3,10.3c1,1.3,1.6,2.2,2,2.5
				c0.6,0.5,1.3,0.7,2.1,0.8v0.8H211L201.2,32L199.2,32L199.2,32L199.2,32z M199.2,17.1v13.3h1.3c2.1,0,3.6-0.2,4.7-0.6
				c1-0.4,1.8-1.1,2.4-2.1c0.6-1,0.9-2.3,0.9-3.9c0-2.3-0.5-4-1.6-5.1c-1.1-1.1-2.8-1.7-5.2-1.7L199.2,17.1L199.2,17.1L199.2,17.1z"
				/>
			<path id="path45" inkscape:connector-curvature="0" class="st0" d="M222.1,16.4l15.4,3.3l-0.2,0.8l-0.8-0.2
				c-1.2-0.2-2-0.3-2.5-0.1c-0.5,0.1-0.9,0.4-1.1,0.8c-0.3,0.4-0.6,1.4-1,3.1l-3.1,14.6c-0.6,2.7-0.7,4.5-0.5,5.4
				c0.2,0.9,0.7,1.8,1.5,2.6c0.8,0.8,1.9,1.3,3.3,1.6c1.6,0.3,3.1,0.3,4.3-0.2c1.3-0.5,2.4-1.3,3.2-2.5c0.8-1.2,1.6-3.3,2.3-6.5
				l2.6-12.1c0.3-1.3,0.3-2.3,0.2-2.9c-0.2-0.6-0.4-1.1-0.8-1.4c-0.6-0.5-1.5-0.8-2.7-1.1l0.2-0.8l10.3,2.2l-0.2,0.8l-0.6-0.1
				c-0.8-0.2-1.6-0.2-2.2,0.1c-0.6,0.2-1.1,0.6-1.5,1.3c-0.3,0.4-0.6,1.2-0.8,2.5L245,38.6c-0.7,3.5-1.5,6-2.3,7.4
				c-0.8,1.5-2.2,2.6-4.3,3.6c-2.1,0.9-4.6,1.1-7.7,0.4c-2.6-0.5-4.5-1.3-5.7-2.3c-1.7-1.3-2.8-2.8-3.3-4.5
				c-0.5-1.6-0.5-3.7,0.1-6.2l3.1-14.6c0.4-1.7,0.5-2.8,0.4-3.2c-0.1-0.5-0.4-0.9-0.8-1.2c-0.4-0.4-1.2-0.6-2.5-0.9L222.1,16.4
				L222.1,16.4L222.1,16.4z M243.7,17.9l-7.2,0l-0.1-0.4l6.3-3.7C246.5,11.5,249.2,17.9,243.7,17.9L243.7,17.9z"/>
			<path id="path47" inkscape:connector-curvature="0" class="st0" d="M309,48.1l-6.7-2.7l0.1-0.4l7.2-1.1
				C314,43.2,314.2,50.2,309,48.1L309,48.1L309,48.1z"/>
			<path id="path49" inkscape:connector-curvature="0" class="st0" d="M350.5,305.6l2.6-6.7l0.4,0.1l1.1,7.2
				C355.4,310.6,348.5,310.8,350.5,305.6L350.5,305.6z"/>
			<path id="path51" inkscape:connector-curvature="0" class="st0" d="M280.9,33l-3.7,10.1l-0.8-0.3c0.1-3.1-0.6-5.7-2-7.8
				c-1.4-2.1-3.2-3.6-5.4-4.4c-2.1-0.8-4.1-0.8-6-0.1c-1.9,0.7-3.5,2-4.8,3.9c-1.4,1.9-2.5,4-3.3,6.3c-1,2.7-1.5,5.3-1.7,7.6
				c-0.1,2.3,0.4,4.2,1.5,5.7c1.1,1.5,2.6,2.6,4.6,3.3c0.7,0.3,1.4,0.4,2.2,0.5c0.8,0.1,1.6,0.2,2.5,0.2l2.2-5.9
				c0.4-1.1,0.6-1.9,0.6-2.3c0-0.4-0.2-0.8-0.6-1.2c-0.4-0.4-0.9-0.8-1.6-1l-0.7-0.3l0.3-0.8l13.9,5.1l-0.3,0.8
				c-1.1-0.3-1.9-0.4-2.4-0.4c-0.5,0.1-0.9,0.3-1.4,0.7c-0.2,0.2-0.5,0.9-0.9,1.9l-2.2,5.9c-2.1,0.1-4.2,0.1-6.4-0.2
				c-2.1-0.3-4.2-0.8-6.4-1.6c-2.7-1-4.8-2.2-6.4-3.6c-1.5-1.4-2.8-2.9-3.7-4.6c-0.9-1.7-1.5-3.4-1.7-5.2c-0.3-2.3,0-4.7,0.9-7.1
				c1.6-4.3,4.4-7.4,8.5-9.2c4.1-1.9,8.4-2,13-0.3c1.4,0.5,2.7,1.1,3.7,1.7c0.6,0.3,1.5,1,2.7,2.1c1.2,1,1.9,1.6,2.2,1.7
				c0.4,0.1,0.8,0.1,1.2,0s1-0.6,1.5-1.3L280.9,33L280.9,33L280.9,33z"/>
			<path id="path53" inkscape:connector-curvature="0" class="st0" d="M302.5,47.3c4.1,2.6,6.5,6,7.2,10.2c0.8,4.2-0.2,8.1-2.8,11.8
				c-2.2,3.2-5.1,5.3-8.6,6.4c-4.7,1.5-9.3,0.6-13.7-2.5c-4.5-3.1-6.9-7.1-7.2-11.8c-0.2-3.8,0.8-7.3,3.1-10.6
				c2.6-3.7,6-5.9,10.2-6.6C295,43.6,298.9,44.6,302.5,47.3C302.5,47.3,302.5,47.3,302.5,47.3z M301.9,48.7
				c-2.3-1.6-4.8-1.6-7.6-0.2c-2.3,1.2-4.7,3.6-7.2,7.2c-3,4.3-4.4,7.9-4.4,11c0,2.2,1,3.9,2.9,5.2c1.3,0.9,2.5,1.3,3.8,1.3
				c1.6,0,3.3-0.7,5.1-2c1.8-1.3,3.7-3.3,5.6-6.1c2.3-3.3,3.7-6,4.3-8c0.5-2.1,0.6-3.8,0.1-5.1C304,50.6,303.1,49.5,301.9,48.7
				L301.9,48.7L301.9,48.7z"/>
			<path id="path55" inkscape:connector-curvature="0" class="st0" d="M353.5,99.5l-8.2,6l-0.5-0.8c1.8-1.8,2.9-3.9,3.2-6.1
				c0.3-2.3-0.1-4.2-1.3-5.8c-0.9-1.2-1.9-2-3.1-2.3c-1.2-0.3-2.2-0.1-3.1,0.5c-0.5,0.4-0.9,0.9-1.2,1.4c-0.3,0.8-0.5,1.7-0.5,2.9
				c0,0.9,0.2,2.7,0.6,5.5c0.6,3.9,0.6,6.8,0.1,8.7c-0.6,1.9-1.7,3.4-3.3,4.6c-2.1,1.5-4.4,1.9-7.1,1.3c-2.6-0.6-4.8-2.1-6.6-4.6
				c-0.5-0.8-1-1.6-1.3-2.4c-0.3-0.8-0.6-1.9-0.9-3.3c-0.2-0.8-0.4-1.3-0.7-1.7c-0.2-0.3-0.6-0.6-1.1-0.8c-0.5-0.2-1.1-0.2-1.7-0.1
				l-0.5-0.7l9.4-6.6l0.5,0.7c-2.3,2.4-3.6,4.8-3.9,7.4c-0.3,2.5,0.1,4.7,1.4,6.4c1,1.4,2.1,2.2,3.4,2.5c1.3,0.3,2.5,0.1,3.5-0.6
				c0.6-0.4,1-1,1.4-1.7c0.3-0.7,0.5-1.5,0.6-2.5c0-1-0.1-2.6-0.4-4.7c-0.5-3-0.7-5.3-0.6-6.9c0.1-1.5,0.4-2.9,1-4.1
				c0.6-1.2,1.5-2.2,2.6-3c2-1.4,4.2-1.8,6.6-1.4c2.4,0.5,4.4,1.8,5.9,4c0.6,0.8,1,1.7,1.4,2.6c0.3,0.7,0.5,1.6,0.6,2.7
				c0.2,1.1,0.4,1.8,0.6,2.2c0.2,0.3,0.5,0.5,0.8,0.5c0.3,0.1,0.9-0.1,1.8-0.5L353.5,99.5L353.5,99.5L353.5,99.5z"/>
			<path id="path57" inkscape:connector-curvature="0" class="st0" d="M368,127.3l-33.8-1.7l2.8,5.1c1.3,2.4,2.4,4,3.2,4.8
				c1.3,1.3,2.9,2.2,4.8,2.6c1.9,0.4,4,0.3,6.4-0.5l0.4,0.8l-10.2,4.3l-13.5-24.4l33.8,1.7l-2.2-3.9c-0.9-1.5-1.5-2.5-1.8-2.9
				c-0.7-0.8-1.5-1.5-2.4-2c-0.9-0.5-2-0.8-3.1-0.9c-1.1-0.1-2.4,0.1-3.9,0.5l-0.4-0.7l8.2-3.6L368,127.3L368,127.3L368,127.3z"/>
			<path id="path59" inkscape:connector-curvature="0" class="st0" d="M375.2,149.4c1.6,4.6,1.4,8.8-0.6,12.5
				c-2,3.8-5.1,6.3-9.5,7.6c-3.7,1.1-7.3,1-10.7-0.3c-4.6-1.7-7.7-5.2-9.3-10.4c-1.6-5.2-1.1-9.8,1.6-13.8c2.1-3.1,5.1-5.3,8.9-6.4
				c4.3-1.3,8.4-0.9,12.1,1.1C371.6,141.8,374.1,145,375.2,149.4L375.2,149.4L375.2,149.4z M374,150c-0.8-2.7-2.8-4.3-5.9-4.8
				c-2.6-0.4-5.9,0-10.1,1.2c-5,1.5-8.4,3.5-10.2,6c-1.3,1.7-1.6,3.7-0.9,5.9c0.4,1.5,1.2,2.6,2.2,3.4c1.3,1,3.1,1.5,5.3,1.6
				c2.2,0.1,4.9-0.4,8.2-1.3c3.9-1.2,6.6-2.4,8.3-3.7c1.7-1.3,2.8-2.6,3.2-4C374.4,152.9,374.4,151.5,374,150L374,150L374,150z
				 M383.8,151.7c0.2,0.8,0.2,1.6-0.2,2.3c-0.4,0.7-1,1.2-1.8,1.4c-0.8,0.2-1.5,0.2-2.3-0.2c-0.7-0.4-1.2-1-1.4-1.8
				c-0.2-0.8-0.2-1.5,0.2-2.3c0.4-0.7,1-1.2,1.8-1.4c0.8-0.2,1.5-0.2,2.3,0.2C383.1,150.3,383.6,150.9,383.8,151.7L383.8,151.7
				L383.8,151.7z M381.4,143.7c0.2,0.8,0.2,1.6-0.2,2.3c-0.4,0.7-1,1.2-1.8,1.4c-0.8,0.2-1.5,0.2-2.3-0.2c-0.7-0.4-1.2-1-1.5-1.8
				c-0.2-0.8-0.2-1.5,0.2-2.3c0.4-0.7,1-1.2,1.8-1.5c0.8-0.2,1.5-0.2,2.3,0.2C380.6,142.3,381.1,142.9,381.4,143.7L381.4,143.7
				L381.4,143.7z"/>
			<path id="path61" inkscape:connector-curvature="0" class="st0" d="M381.9,197.1l-0.8,0.1c-0.3-1.1-0.9-2-2-2.8
				c-0.8-0.6-2.6-1.3-5.5-2.3l-24.1-8.4l-0.1-0.7l23.2-12.5c2.8-1.5,4.4-2.5,4.9-3c0.5-0.5,0.7-1.3,0.8-2.5l0.8-0.1l1.3,14.5
				l-0.8,0.1l0-0.5c-0.1-1.3-0.4-2.2-0.7-2.6c-0.3-0.3-0.6-0.5-1-0.4c-0.3,0-0.6,0.1-0.9,0.3c-0.3,0.2-1.3,0.6-2.8,1.5l-14.5,7.8
				l13.9,4.8c1.7,0.6,2.8,0.9,3.4,1c0.6,0.1,1,0.2,1.4,0.1c0.4,0,0.8-0.2,1.1-0.5c0.3-0.3,0.6-0.6,0.7-1.1c0.2-0.7,0.2-1.5,0.2-2.6
				l0.8-0.1L381.9,197.1L381.9,197.1L381.9,197.1z"/>
			<path id="path63" inkscape:connector-curvature="0" class="st0" d="M379.3,210.1l-12.3-0.9l0,0.6c-0.1,1.9,0.4,3.4,1.5,4.3
				c1.1,0.9,2.9,1.6,5.2,2l-0.1,0.8l-15.9-1.1l0.1-0.8c1.7-0.1,3.2-0.3,4.3-0.8c1.1-0.5,1.9-1.1,2.4-1.9c0.4-0.7,0.7-1.8,0.8-3.3
				l-8.5-0.6c-1.7-0.1-2.7-0.1-3.1,0c-0.4,0.1-0.7,0.4-1,0.7c-0.3,0.4-0.4,1-0.5,1.9l-0.1,1.8c-0.2,2.8,0.3,5.1,1.5,6.9
				c1.2,1.8,3.1,3.2,5.7,4.1l-0.1,0.8l-9.5-2l1.8-26.2l0.8,0.1l-0.1,1c-0.1,0.9,0,1.6,0.3,2.2c0.2,0.4,0.5,0.7,1,1
				c0.3,0.2,1.3,0.3,2.8,0.4l20,1.4c1.4,0.1,2.2,0.1,2.5,0.1c0.5-0.1,1-0.4,1.3-0.7c0.5-0.5,0.7-1.3,0.8-2.3l0.1-1l0.8,0.1
				l-1.8,25.4l-9-0.6l0.1-0.8c2.2-0.3,3.8-0.8,4.8-1.5c1-0.7,1.8-1.8,2.3-3.2c0.3-0.8,0.6-2.4,0.7-4.7L379.3,210.1L379.3,210.1
				L379.3,210.1z"/>
			<path id="path65" inkscape:connector-curvature="0" class="st0" d="M371.8,258l-7.9-2.3l0.2-0.8c2,0.1,3.4-0.1,4.4-0.4
				c1-0.3,1.8-0.9,2.6-1.8c0.4-0.5,0.8-1.4,1.2-2.8l0.6-2.2l-22.5-6.5c-1.5-0.4-2.5-0.6-2.9-0.6c-0.4,0.1-0.8,0.3-1.3,0.7
				c-0.4,0.4-0.8,1-1,1.8l-0.3,1l-0.8-0.2l4.4-15.3l0.8,0.2l-0.3,1c-0.2,0.8-0.3,1.6-0.1,2.2c0.1,0.4,0.4,0.8,0.8,1.2
				c0.3,0.3,1.2,0.6,2.6,1l22.5,6.5l0.6-2.1c0.6-2,0.6-3.5,0-4.6c-0.8-1.6-2.2-2.9-4.3-3.8l0.2-0.8l7.9,2.3L371.8,258L371.8,258
				L371.8,258z"/>
			<path id="path67" inkscape:connector-curvature="0" class="st0" d="M362.2,282.2l-9.4-3.9l0.4-0.8c2.5,0.6,4.8,0.5,6.9-0.4
				c2.1-0.9,3.6-2.3,4.4-4.1c0.6-1.4,0.7-2.7,0.4-3.8c-0.4-1.1-1.1-1.9-2-2.4c-0.6-0.3-1.2-0.4-1.8-0.3c-0.8,0.1-1.7,0.5-2.7,1.1
				c-0.7,0.4-2.2,1.6-4.4,3.4c-3,2.5-5.5,4.1-7.5,4.6c-1.9,0.5-3.8,0.3-5.6-0.5c-2.3-1-3.9-2.8-4.8-5.4c-0.9-2.6-0.7-5.2,0.6-8
				c0.4-0.9,0.9-1.7,1.4-2.4c0.5-0.7,1.3-1.5,2.3-2.5c0.6-0.5,0.9-1,1.1-1.4c0.2-0.4,0.2-0.8,0.1-1.3c-0.1-0.5-0.4-1-0.8-1.5
				l0.3-0.8l10.5,4.7l-0.3,0.8c-3.2-0.7-6-0.6-8.3,0.5c-2.3,1-3.9,2.5-4.8,4.5c-0.7,1.5-0.8,2.9-0.4,4.2c0.4,1.3,1.2,2.2,2.3,2.7
				c0.7,0.3,1.4,0.4,2.1,0.3c0.8-0.1,1.6-0.3,2.5-0.8c0.9-0.5,2.1-1.4,3.8-2.8c2.4-2,4.2-3.3,5.6-4c1.4-0.7,2.7-1.1,4.1-1.2
				c1.3-0.1,2.7,0.1,4,0.7c2.2,1,3.7,2.6,4.6,5c0.8,2.3,0.7,4.7-0.4,7.2c-0.4,0.9-0.9,1.7-1.5,2.5c-0.5,0.6-1.1,1.2-2,1.9
				c-0.9,0.7-1.4,1.3-1.5,1.6c-0.2,0.4-0.2,0.7,0,1c0.1,0.3,0.6,0.7,1.3,1.3L362.2,282.2L362.2,282.2L362.2,282.2z"/>
			<path id="path69" inkscape:connector-curvature="0" class="st0" d="M350.9,296l-10.6-6.4l-0.3,0.5c-1,1.7-1.2,3.2-0.6,4.5
				c0.6,1.4,1.8,2.8,3.7,4.2l-0.4,0.7l-13.6-8.2l0.4-0.7c1.6,0.7,3,1.1,4.2,1.2c1.3,0.1,2.2-0.1,3-0.6c0.7-0.5,1.4-1.3,2.2-2.5
				l-7.3-4.4c-1.4-0.9-2.3-1.3-2.7-1.4c-0.4-0.1-0.8,0-1.2,0.2c-0.4,0.2-0.8,0.7-1.3,1.4l-0.9,1.6c-1.5,2.4-2.1,4.7-1.8,6.9
				c0.2,2.1,1.3,4.2,3.2,6.3l-0.4,0.7l-7.6-6.1l13.5-22.5l0.7,0.4l-0.5,0.9c-0.5,0.8-0.7,1.4-0.7,2.1c0,0.4,0.1,0.9,0.5,1.3
				c0.2,0.3,1,0.9,2.3,1.7l17.1,10.3c1.2,0.7,1.9,1.1,2.2,1.2c0.5,0.1,1,0.1,1.5-0.1c0.7-0.3,1.2-0.8,1.7-1.7l0.5-0.9l0.7,0.4
				l-13.1,21.8l-7.7-4.6l0.4-0.7c2.1,0.8,3.8,1.1,5,0.9c1.2-0.2,2.4-0.8,3.5-1.8c0.7-0.6,1.6-1.9,2.8-3.8L350.9,296L350.9,296
				L350.9,296z"/>
			<path id="path71" inkscape:connector-curvature="0" class="st0" d="M317.2,338.7l-7.4-7.7l0.6-0.6c2.8,1.4,5.4,2,7.9,1.7
				c2.5-0.3,4.6-1.3,6.3-2.9c1.6-1.6,2.5-3.4,2.7-5.3c0.2-2-0.3-4-1.4-6.1c-1.1-2.1-2.5-4-4.2-5.7c-2-2.1-4-3.7-6.1-4.8
				c-2-1.1-3.9-1.5-5.8-1.2c-1.8,0.3-3.5,1.2-5,2.7c-0.5,0.5-1,1.1-1.5,1.7c-0.4,0.6-0.9,1.4-1.2,2.1l4.4,4.5
				c0.8,0.9,1.4,1.4,1.8,1.5c0.4,0.1,0.8,0.1,1.4,0c0.6-0.2,1.1-0.5,1.6-1l0.6-0.5l0.6,0.6L301.9,328l-0.6-0.6
				c0.8-0.8,1.2-1.5,1.4-2c0.1-0.5,0.1-1-0.1-1.5c-0.1-0.3-0.5-0.8-1.3-1.6l-4.4-4.5c0.8-2,1.8-3.9,3-5.6c1.2-1.8,2.6-3.5,4.2-5
				c2.1-2,4.1-3.4,6-4.1c1.9-0.8,3.8-1.2,5.8-1.3c1.9-0.1,3.8,0.2,5.5,0.7c2.2,0.8,4.2,2.1,5.9,3.9c3.2,3.3,4.7,7.2,4.6,11.7
				s-1.9,8.4-5.4,11.8c-1.1,1-2.1,1.9-3.2,2.6c-0.6,0.4-1.6,0.9-3,1.5c-1.4,0.6-2.3,1-2.5,1.2c-0.3,0.3-0.5,0.7-0.5,1.1
				c0,0.5,0.1,1.1,0.5,1.9L317.2,338.7L317.2,338.7L317.2,338.7z"/>
		</g>
		<g id="g5147">
			<path id="path73" inkscape:connector-curvature="0" class="st0" d="M147.1,352.6c0.3-1.4,0.1-3-1.4-3.4l-0.8-0.2l0.3-1.3
				c2.7,0.7,6.6,0.5,9.6-0.2l1.1,0.3l-7.3,29.1c-0.6,2.6,0.3,3.6,2.7,4.2l-0.2,0.8l-14.2-3.6l0.2-0.8c2.9,0.8,4,0,4.5-2L147.1,352.6
				L147.1,352.6L147.1,352.6z"/>
			<path id="path75" inkscape:connector-curvature="0" class="st0" d="M233.4,356.5c-0.3-1.4-1.2-2.8-2.8-2.4l-0.8,0.2l-0.3-1.3
				c2.8-0.6,6.1-2.4,8.5-4.4l1.1-0.2l6.3,29.4c0.6,2.6,1.8,3.1,4.3,2.6l0.2,0.8l-14.3,3l-0.2-0.8c2.9-0.6,3.6-1.8,3.2-3.8
				L233.4,356.5L233.4,356.5L233.4,356.5z"/>
			<path id="path77" inkscape:connector-curvature="0" class="st0" d="M172.6,383.2c5.4,0.6,8.2-5.2,8.7-10.6
				c-2.6,2.2-5.2,2.3-7.6,2.2c-6.6-0.3-11.6-5-11-11.7c0.6-7.7,6.8-12.1,13.7-11.6c3,0.2,5.5,1.2,7.5,3s3.3,3.9,4.1,6.6
				c0.8,2.7,1,5.5,0.8,8.6c-0.2,2.7-0.8,5.1-1.7,7.3c-0.9,2.2-2.2,4-3.8,5.5c-1.6,1.5-3.5,2.6-5.6,3.3c-2.2,0.7-4.5,0.9-7.1,0.7
				c-2.7-0.2-5.2-1-8-2.4l1.7-10l1.2,0C165.6,379.1,168.3,382.8,172.6,383.2L172.6,383.2L172.6,383.2z M175.1,372.6
				c3.6,0.3,5.4-4.1,5.7-8.5c0.4-4.4-0.9-9.7-4.9-10.1c-3.9-0.3-5.4,4.5-5.8,8.9C169.8,367.3,171.4,372.3,175.1,372.6L175.1,372.6
				L175.1,372.6z"/>
			<path id="path79" inkscape:connector-curvature="0" class="st0" d="M221.9,369.8c0.1,2.5-0.1,4.8-0.6,6.9
				c-0.5,2.1-1.2,3.9-2.3,5.5c-1.1,1.5-2.3,2.8-3.9,3.6c-1.5,0.9-3.1,1.4-4.9,1.5c-2,0.1-3.9-0.3-5.5-1.1c-1.6-0.8-3-2-4.1-3.5
				c-1.2-1.5-2.1-3.2-2.7-5.2c-0.6-2-1-4.1-1.1-6.3c-0.1-2.2,0.1-4.3,0.6-6.3c0.5-2.1,1.3-3.9,2.3-5.6c1-1.6,2.4-3,3.9-4
				c1.6-1,3-1.5,5-1.6c1.8-0.1,3.6,0.5,5.2,1.2c1.5,0.7,2.8,1.8,4,3.2c1.2,1.4,2.2,3.3,2.9,5.3C221.3,365.5,221.8,367.3,221.9,369.8
				L221.9,369.8L221.9,369.8z M210,384c3.9-0.2,3.9-8.3,3.6-13.5c-0.3-4.6-0.6-13.8-4.9-13.6c-4.4,0.2-3.9,8.8-3.8,13.5
				C204.9,375.1,205.9,384.2,210,384L210,384z"/>
		</g>
		<g id="g5153">
			<path id="path81" inkscape:connector-curvature="0" class="st3" d="M109.9,339c4,0,7.2,3.2,7.2,7.2c0,4-3.2,7.2-7.2,7.2
				c-4,0-7.2-3.2-7.2-7.2C102.8,342.3,106,339,109.9,339L109.9,339z"/>
			<path id="path83" inkscape:connector-curvature="0" class="st3" d="M280.8,342.6c4,0,7.2,3.2,7.2,7.2c0,4-3.2,7.2-7.2,7.2
				c-4,0-7.2-3.2-7.2-7.2S276.8,342.6,280.8,342.6L280.8,342.6z"/>
		</g>
	</g>
	<g id="g5395">
		<g id="g5281">
			<path id="path5194" inkscape:connector-curvature="0" sodipodi:nodetypes="ccccccccccccc" class="st4" d="M325.8,273.5
				l-14.3-10.1l-11.9-3.6l-10.1-8.9l-20.8-7.4l-44,13.1h-26.5v90.4l30.7-3.3l35.7-12.5l30-20.2l21.4-21.4L325.8,273.5z"/>
			<g id="g4982">
				
					<path id="path15" inkscape:connector-curvature="0" sodipodi:nodetypes="cccsccccsccsccccscsccccscsccccsccsccccccc" class="st3" d="
					M251.9,238.1v-24.8h-24.4c-3.6,0-6.6,3-7.5,5.5l-2.1,0v-42.5l2.1,0c0.8,2.4,3.8,5.6,7.4,5.6h24.4v-27h-16.9
					c-3.6,0-6.6,3-7.5,5.5l-2.1,0V118l2.1,0c0.8,2.4,3.8,5.6,7.4,5.6h17v-18.1c0-3.6-3-6.6-5.5-7.5l0-2.1h42.5l0,2.1
					c-2.4,0.8-5.6,3.8-5.6,7.4v18.1h17.2c3.6,0,6.6-3.1,7.4-5.6l2.1,0v42.5l-2.1,0c-0.9-2.6-3.9-5.5-7.5-5.5h-17.1v27h24.6
					c3.6,0,6.6-3.1,7.4-5.6l2.1,0v42.5l-2.1,0c-0.9-2.6-3.9-5.5-7.5-5.5h-24.6v24.4L251.9,238.1z"/>
				<path id="path11" inkscape:connector-curvature="0" sodipodi:nodetypes="ccsccsccscccsccsccccsccsccsccsccccc" class="st5" d="
					M252.3,99h30.8c-1.5,1.3-2.9,3.4-2.9,6.4v21.3h0.4h19.9c3,0,5.1-1.4,6.4-2.9v30.8c-2-1.9-4.1-2.7-6.4-2.7h-20.1h-0.2V185h27.8
					c3,0,5.1-1.4,6.4-2.9v30.8c-2-1.9-4.1-2.7-6.4-2.7h-27.7v26.7H255v-26.7h-27.5c-2.3,0-4.4,0.8-6.4,2.7v-30.8
					c1.3,1.5,3.4,2.9,6.4,2.9H255v-33.2h-20.1c-2.3,0-4.4,0.8-6.4,2.7v-30.8c1.3,1.5,3.4,2.9,6.4,2.9h19.9h0.2v-21.2
					C255,103.1,254.2,101.1,252.3,99L252.3,99z"/>
			</g>
			<path id="path4996" inkscape:connector-curvature="0" class="st3" d="M267.7,225.9c-5.4,2.6-7.3,6.3-8.4,9.5
				c-0.9-2.1-2.4-3.8-4.1-5c-1.4-0.8-2.2-1.2-3.1-1.6c-3.6-1.3-7.8-1.1-11.5,0.9c8,3.3,10.9,8.4,12,16.1c-3.6,1.1-6.8,2.6-9.5,4.4
				c-3,2-5.6,4.4-7.7,7.3c-4.1,0.5-8.3,1.7-12,3.3c-5.3,2.4-9.9,5.6-13.5,9.4l2,3.4c3.4-3.9,8-7.1,13.1-9.3c2.7-1.2,5.3-2.1,7.9-2.7
				c-1.9,3.9-3,8.5-3.1,13.7l3.9,0c0.6-20.5,18.4-28,34-28c15.6,0,33.4,7.6,34,28l3.9,0c-0.1-5.2-1.2-9.7-3.1-13.7
				c2.6,0.6,5.3,1.5,7.9,2.7c5.1,2.2,9.6,5.4,13.1,9.3l2-3.4c-3.6-3.8-8.2-7-13.5-9.4c-3.7-1.7-7.8-2.8-12-3.3
				c-2.1-2.9-4.7-5.4-7.7-7.3c-2.7-1.8-5.9-3.3-9.5-4.4c1.1-7.7,3.9-12.9,12-16.1c-3.8-2-8-2.2-11.5-0.9c-0.9,0.4-1.7,0.8-3.1,1.6
				c-1.7,1.2-3.2,2.9-4.1,5C275,232.2,273.1,228.5,267.7,225.9z"/>
		</g>
		<g id="g5364">
			<g id="g5196">
				<g id="g4967">
					<path id="rect4859" inkscape:connector-curvature="0" class="st0" d="M112.7,78c-14.1,10-26.3,22.3-36.2,36.5H198V78H112.7z"/>
					<path id="path4875" inkscape:connector-curvature="0" class="st0" d="M61.2,143.4c-4.7,11.7-7.9,24-9.4,36.5H198v-36.5H61.2z"
						/>
					<path id="path4877" inkscape:connector-curvature="0" class="st0" d="M50.8,208.9c0.9,12.4,3.5,24.7,7.5,36.5H198v-36.5H50.8z"
						/>
					<path id="path4879" inkscape:connector-curvature="0" class="st0" d="M71.7,274.5c8.2,13.8,18.6,26.1,30.8,36.5H198v-36.5H71.7
						z"/>
				</g>
				<g id="g4961">
					<path id="rect4841" inkscape:connector-curvature="0" class="st6" d="M109.5,80.3c-11.8,8.9-22.2,19.5-30.9,31.5H198V80.3
						H109.5z"/>
					<path id="rect4843" inkscape:connector-curvature="0" class="st6" d="M60.3,145.9c-3.9,10.2-6.6,20.8-8.1,31.5H198v-31.5H60.3z
						"/>
					<path id="rect4845" inkscape:connector-curvature="0" class="st6" d="M51.1,211.4c1,10.7,3.1,21.3,6.4,31.5H198v-31.5H51.1z"/>
					<path id="rect4847" inkscape:connector-curvature="0" class="st6" d="M73.1,277c7.4,11.7,16.4,22.3,26.7,31.5H198V277H73.1z"/>
				</g>
			</g>
			<g id="g5208">
				<path id="path4259" inkscape:connector-curvature="0" class="st0" d="M198.4,48.6c-82.8,0-149.9,67.1-149.9,149.9
					c0,82.8,67.1,149.9,149.9,149.9c82.8,0,149.9-67.1,149.9-149.9C348.3,115.7,281.2,48.6,198.4,48.6
					C198.4,48.6,198.4,48.6,198.4,48.6z M198.4,52.6c80.6,0,145.9,65.3,145.9,145.9c0,0,0,0,0,0c0,80.6-65.3,145.9-145.9,145.9
					c-80.6,0-145.9-65.3-145.9-145.9C52.6,117.9,117.9,52.6,198.4,52.6z"/>
				<rect id="rect4905" x="196.2" y="49.9" class="st0" width="4.2" height="296.7"/>
			</g>
		</g>
		<g id="g5106" transform="matrix(0.95708428,0,0,0.95708428,421.71746,8.8201955)">
			<circle id="circle5069" class="st6" cx="-233.5" cy="286.8" r="67.9"/>
			<circle id="path5067" class="st0" cx="-233.5" cy="286.8" r="66.1"/>
			<g id="g5072">
				<g id="g5021">
					<path id="path5003" inkscape:connector-curvature="0" class="st5" d="M-267,271.6c-1.1,0-2,1-1.9,2.1c0,0.5,0.2,0.9,0.5,1.3
						c2.2,2.6,2.6,3.2,3,7.4c0.1,1.1,1,1.9,2.1,1.8c1.1-0.1,1.9-1,1.8-2.1c0,0,0,0,0,0c-0.4-4.5-1.5-6.9-3.9-9.7
						C-265.8,271.9-266.3,271.6-267,271.6z"/>
					<path id="path5011" inkscape:connector-curvature="0" class="st5" d="M-257.2,265.9c-1.1,0-2,1-1.9,2.1c0,0.5,0.2,0.9,0.5,1.3
						c2.2,2.6,2.6,3.2,3,7.4c0.1,1.1,1,1.9,2.1,1.8c1.1-0.1,1.9-1,1.8-2.1c0,0,0,0,0,0c-0.4-4.5-1.5-6.9-3.9-9.7
						C-256,266.2-256.6,265.9-257.2,265.9z"/>
					<path id="path5013" inkscape:connector-curvature="0" class="st5" d="M-247,260.9c-1.1,0-2,1-1.9,2.1c0,0.5,0.2,0.9,0.5,1.3
						c2.2,2.6,2.6,3.2,3,7.4c0.1,1.1,1,1.9,2.1,1.8c1.1-0.1,1.9-1,1.8-2.1c0,0,0,0,0,0c-0.4-4.5-1.5-6.9-3.9-9.7
						C-245.8,261.1-246.4,260.8-247,260.9z"/>
					<path id="path5015" inkscape:connector-curvature="0" class="st5" d="M-236,256.8c-1.1,0-2,1-1.9,2.1c0,0.5,0.2,0.9,0.5,1.3
						c2.2,2.6,2.6,3.2,3,7.4c0.1,1.1,1,1.9,2.1,1.8c1.1-0.1,1.9-1,1.8-2.1c0,0,0,0,0,0c-0.4-4.5-1.5-6.9-3.9-9.7
						C-234.8,257-235.4,256.8-236,256.8z"/>
					<path id="path5017" inkscape:connector-curvature="0" class="st5" d="M-223.9,253.4c-1.1,0-2,1-1.9,2.1c0,0.5,0.2,0.9,0.5,1.3
						c2.2,2.6,2.6,3.2,3,7.4c0.1,1.1,1,1.9,2.1,1.8c1.1-0.1,1.9-1,1.8-2.1c0,0,0,0,0,0c-0.4-4.5-1.5-6.9-3.9-9.7
						C-222.7,253.6-223.3,253.3-223.9,253.4L-223.9,253.4z"/>
					<path id="path5019" inkscape:connector-curvature="0" class="st5" d="M-212.6,250.2c-1.1,0-2,1-1.9,2.1c0,0.5,0.2,0.9,0.5,1.3
						c2.2,2.6,2.6,3.2,3,7.4c0.1,1.1,1,1.9,2.1,1.8c1.1-0.1,1.9-1,1.8-2.1c0,0,0,0,0,0c-0.4-4.5-1.5-6.9-3.9-9.7
						C-211.4,250.5-211.9,250.2-212.6,250.2L-212.6,250.2z"/>
				</g>
				
					<path id="path5029" inkscape:connector-curvature="0" sodipodi:nodetypes="cccccccccsccccccccccccccccccccccccccccccccccsccccccc" class="st5" d="
					M-245.1,223.3l-0.2,5.7c-5.3,1.5-10.2,3.3-14.8,5.4l-3.7-4.8l-4.6,2.8l2.7,4.8c-7.5,4-14.2,8.8-20.7,14.1l-0.6,0.5l-0.2,0.7
					c-5.7,19-5.5,35.9-1.4,46.9c6.6,18,16.2,23.3,26.7,31.4l0.9,0.7l10.6,18l6.5,0.9l-12.7-21.2c6-4.2,11.2-7.9,17.5-11.5
					c3,10.1,9.6,22.7,15.4,32.8l6-1.1c-6.1-10.5-11.5-25.1-14.4-35.3c6.8-3.6,11.9-6.1,19.4-8.4l9.7,37.9l5.7-3l-7.3-37.1
					c6.5-1.6,12.2-2.3,19.4-2.6l3.5,24.6l4.4-5.6l-3.2-21.4c3.2-13,2.4-24.4,1.2-34.9l0-0.2l-0.1-0.2c-4.8-16.9-15.8-30.1-34.4-38.2
					l-0.5-0.2l-0.5,0c-9.1,0.1-17.1,1.1-24.4,2.6l-0.2-5.5L-245.1,223.3z M-215.3,230c7.2,3.2,13,7.1,17.7,11.6
					c-36.7,0.9-64.8,14.9-88.7,34.5c0.4-6.5,1.6-13.8,3.8-21.4C-265.2,240.7-247.2,230.6-215.3,230z M-193.3,246.4
					c3.9,5,6.7,10.6,8.6,16.9c-36.6,2.3-72.7,17.2-97.9,38c-0.5-1.1-1-2.3-1.4-3.6c-1.5-4-2.4-9.1-2.5-15.1
					C-261.7,261.5-231.9,246.6-193.3,246.4z M-183.9,268.3c0.8,8.7,1,17.8-1.3,27.8c-30,1.1-53.3,14.5-75.2,29.8
					c-8.1-6.2-14.6-10.2-19.9-19.9C-255.9,285.4-219.9,270.5-183.9,268.3z"/>
			</g>
		</g>
	</g>
</g>
</svg>
