<?xml version="1.0" encoding="utf-8"?>
<!-- Generator: Adobe Illustrator 26.0.2, SVG Export Plug-In . SVG Version: 6.00 Build 0)  -->
<svg version="1.1"
	 id="svg18488" xmlns:inkscape="http://www.inkscape.org/namespaces/inkscape" xmlns:sodipodi="http://sodipodi.sourceforge.net/DTD/sodipodi-0.dtd" xmlns:svg="http://www.w3.org/2000/svg"
	 xmlns="http://www.w3.org/2000/svg" xmlns:xlink="http://www.w3.org/1999/xlink" x="0px" y="0px" width="429.6px" height="700px"
	 viewBox="0 0 429.6 700" style="enable-background:new 0 0 429.6 700;" xml:space="preserve">
<style type="text/css">
	.st0{fill:#231F20;}
	.st1{fill:#FFFFFF;}
	.st2{fill:#ED1C24;}
	.st3{fill:#00A650;}
	.st4{fill:none;stroke:#00A650;stroke-width:0.2106;stroke-miterlimit:2.6103;}
	.st5{fill:none;stroke:#ED1C24;stroke-width:0.2106;stroke-miterlimit:2.6103;}
	.st6{fill:#BBBDC0;}
	.st7{fill:#DCDDDE;}
	.st8{fill:#939598;}
</style>
<sodipodi:namedview  bordercolor="#666666" borderopacity="1.0" id="namedview1134" inkscape:current-layer="svg18488" inkscape:cx="207.37636" inkscape:cy="387.33106" inkscape:pagecheckerboard="0" inkscape:pageopacity="0.0" inkscape:pageshadow="2" inkscape:window-height="900" inkscape:window-maximized="0" inkscape:window-width="1440" inkscape:window-x="0" inkscape:window-y="0" inkscape:zoom="0.87522029" pagecolor="#ffffff" showgrid="false">
	</sodipodi:namedview>
<g id="g2574" transform="matrix(0.80782316,0,0,0.80782316,-15.470129,-13.253349)">
	<path id="path19263" class="st0" d="M550.9,16.4L19.2,17v7.5v614.3l0,0.2c0,0,3.1,61,37.6,121.9s101.7,122.3,226.1,122
		c124.2-0.3,192.3-58.3,227.8-116s39.7-115.4,39.7-115.4l0-0.3L550.9,16.4z"/>
	<path id="path2534" class="st1" d="M535.8,31.5l-0.5,619.1c0,0.5-4.1,54.3-37.4,108.4c-33.5,54.4-95.4,108.6-215,108.8
		c-119.5,0.3-180.3-56.8-213-114.4c-32.5-57.4-35.7-114.9-35.7-115.2V32L535.8,31.5z"/>
</g>
<g id="g1767" transform="matrix(0.80782316,0,0,0.80782316,-15.470129,-13.253349)">
	<path id="path18871" class="st0" d="M461.3,365l-1.6-20.8l1.2-2.9C461.8,348.5,463.1,356.7,461.3,365"/>
	<path id="path18873" class="st0" d="M332.3,344.2c-3.9,7.2,2,15.6-1.8,23.7c-1.6,2.9-5,1.6-7.3,3c-2.3-0.5-5.7-1.6-5.6-4.7l1.3-6.1
		c-0.9,3.2,0.2,6.8,3.9,7.7c2.9,0.7,6.3-0.7,8.1-2.9l-2.5-20.8l1.8-2.5C330.9,342.4,330,345.1,332.3,344.2"/>
	<path id="path18875" class="st0" d="M346,362.8l2.7-3c0.2,1.3,0.9,3,2.5,3c2-0.5,4.9,1.1,5.6-1.4c-0.2-2.3-1.6-2.3-0.4-4.7
		c1.8,1.4,2.2,4.5,1.3,6.8c-2.2,2.1-6.5,2.3-9,0.9c-1.1-1.8-2.3,1.1-3.9,0.9c-2.9,0.2-6.6,0.2-6.8-3.4c-0.4-6.3-3.2-14.2-0.9-20.3
		C340.6,348.5,333.9,363.2,346,362.8"/>
	<path id="path18877" class="st0" d="M194.9,366.2c-0.4-7.9-2.5-16.5-0.4-23.7C194.6,349.9,198,358.5,194.9,366.2"/>
	<path id="path18879" class="st0" d="M83,366.6l-1.8-21.5l1.4-1.6C82.1,350.8,85.3,359.4,83,366.6"/>
	<path id="path18881" class="st0" d="M112.8,343.5c0.9,6.8,1.8,15.4,0.7,23.1l-2.2-21.5C111.9,344.5,112.2,343.6,112.8,343.5"/>
	<path id="path18883" class="st0" d="M170.9,363.6c2.7,1.1,4.8-1.3,5.6-3.4c0.5,1.3,0.4,3.2,2.2,3.4c2.1,0,4.8-1.3,5.2-3.4
		c-0.2,1.8,2,2,2.9,3c3.4,1.3,1.4-2.7,2.7-3.9c0.9,1.6,0.4,5-1.3,6.1c-5.2-3.9-8.6,4.5-12.9-0.4c-1.3,1.8-3.8,1.1-5.7,1.3
		c-2.3-2.5-2.9-5.9-3.8-9.2c-1.4,3.8-2.2,8.4-6.1,10.4c-2.3,0.2-4.3,1.3-6.8,0.9c3.4-2.2,8.1-3.4,9.9-7.7c-1.1-3.9-3.8-7.5-7.4-10.1
		c-2,1.6-3.6-0.7-5.2-1.6c-0.2-1.3,0.4-2.2,0.9-3c5.6,1.4,10.2,6.5,12,12c3.6-3.9,0.5-10.2,2.7-14.5
		C168,349.9,165.9,358.5,170.9,363.6"/>
	<path id="path18885" class="st0" d="M500.9,346.9c-1.3,0.7-1.4,2.5-3.1,1.3l-1.2-1.3l2.1-2.1L500.9,346.9"/>
	<path id="path18887" class="st0" d="M382.6,348.5c-0.5,0.9-1.4,1.1-2.1,0.5c-2-1.1,0.2-2.3,0.5-3.4
		C382.2,346,384,346.9,382.6,348.5"/>
	<path id="path18889" class="st0" d="M494.1,361.9c2.5-0.2,7.2,0.9,8.1-2.7c-1.1-0.9-3.2,0.5-5,0c-1.4-1.4-1.4-4.5,0-5.9
		c1.1-0.4,1.8-1.8,3.4-1.3c3.1,2,3.1,4.3,3.1,7.7c0.4,2.5-1.8,3.4-3.6,4.3c-2.2,0.7-4.8,0.2-7.2,0.4l-2.2-3
		c-2.3,2.2-5.2,4.5-9.1,3.6c-1.4-1.1-0.5-2.9-0.9-4.3c2.5,2.5,4.7,1.2,7.4,0.4c4.8-3.2-2.2-7.5,1.3-11.7
		C490.9,353.5,491.1,358.4,494.1,361.9"/>
	<path id="path18891" class="st0" d="M356.4,351.5c1.1-0.2,2.7-3.2,3.4-0.9c0.5,0.4,0.5,1.1,0,1.4c-2.2,2-3.6-1.6-5.9,0.7
		c-2.5-0.5-0.5-2,0.4-2.9C354.9,350.1,355.6,351,356.4,351.5"/>
	<path id="path18893" class="st0" d="M405.9,354.2c-1.1,1.6-2.5,1.8-3.9,0.4C401.9,351.9,405.2,352.4,405.9,354.2"/>
	<path id="path18895" class="st0" d="M386.1,358c0.7,3.2-1.1,7-4.3,7c-1.6,0.7-3.8,0.2-5.7,0.4c-1.6,3-3.1,7.5-7.2,8.2
		c-2.7,0.5-5-0.9-6.5-2.2c4.3,0.7,9.3-1.6,11.5-5.7c-1.6-0.7-3.9-0.2-5-2.1c0.4-2,0.4-4.7,2.9-5.6c2.2-0.2,2.7,1.8,3.9,2.7
		c-0.5,0.2-0.5,1.1,0,1.2c2.5,0.7,5.2,0.5,8.2,0c0.4-0.7,1.3-1.1,1.3-1.8c-1.6-1.8-5.6,2.1-6.5-1.6c-0.5-2,0.7-4.1,2.2-5.7
		C384.3,352.4,385.4,355.5,386.1,358"/>
	<path id="path18897" class="st0" d="M228.1,354.9c0.2,3.9-3.8-0.4-5.2,2.2l-3.4,3.6c1.3,4.7,12.4,0.7,6.5,8.1
		c-4.3,2.9-9.2,5.7-14.7,3.9c-2.9-1.8-3.9-5.6-3.4-8.6l1.8-3.4c-0.7,2.1-1.4,9,3.8,9.3c4.8,0.7,9.2-0.5,12-3.8
		c-3.2-0.9-8.6-1.1-6.5-6.1c1.8-2.7,3.2-5.6,6.5-6.8C226.8,353,227.9,353.7,228.1,354.9"/>
	<path id="path18899" class="st0" d="M71.3,355.8c0,0.7-0.9,1.1-1.3,1.8c-1.3,0.4-1.8-0.7-2.5-1.3C67.5,353.9,70.4,353.7,71.3,355.8
		"/>
	<path id="path18901" class="st0" d="M269,361.4c-0.5,0.4-0.5,0.9-0.5,1.4c6.3,3.8,7.2-7.4,12.6-3.9c1.8,1.8,2.9,5,6.5,4.3
		c3.2-0.7,7-0.2,9.5-2.5c-2.3-1.3-5.4-2.7-7.7-0.9c0.5-2,1.8-3.2,3.8-3.9c4.1,1.8,7.9,4.3,12.9,3.9c-0.4,4.3-6.3,2.3-8.6,3.4
		c-3.9,1.8-9.1,3.8-13.8,1.8c-2.5,2.2-5.4-0.4-7.7-1.4c-1.1,3.9-9.5,0.9-5.2,6.5c-0.2,1.8-1.1,3.8-2.9,3.9
		c-7.4,1.1-1.4-10.9-9.5-7.4c-2,3.9-2.7,6.5-7.3,7.7c-2.5,0.4-4.3-0.5-6.1-2.1c4.5,0,8.6-0.7,11.3-4.7c0.4-3.2-4.1-0.5-5.2-3.4
		c1.1-2,1.3-4.3,3.4-5.6c4.8-0.9,2,7.7,8.2,4.7c1.8-3,3-6.6,5.6-9C271,355.1,269.9,359.6,269,361.4"/>
	<path id="path18903" class="st1" d="M500,355.5c0,0.4,0.2,0.9-0.4,1.3c-0.7,0.2-1.2-0.4-1.8-0.9C497.9,354.6,499.7,354.8,500,355.5
		"/>
	<path id="path18905" class="st1" d="M382.6,356.4c0.5,1.1-0.7,0.9-1.3,1.3h-0.4v-2.2C381.6,355.1,382.2,355.8,382.6,356.4"/>
	<path id="path18907" class="st0" d="M476.4,359.8c0,4.3-0.9,8.6-4.3,11.1c-3,1.1-4.8,0-7.7-0.9c4.8,0.5,9-2.9,11.3-6.8
		c0.7-2.9-5.4-5.2-1.4-6.8L476.4,359.8"/>
	<path id="path18909" class="st0" d="M431.7,361.9l2.2-3c0.4,2.2,2.2,3.8,4.7,3c2,0.4,3-1.8,3.9-3c0.2,1.4,1.4,3,3.4,3
		c2,0.2,3.6-2,3.9-3.4c-0.2,1.8,2,2,2.9,2.9c1.6,0.5,2.7-0.5,2.2-2.2V358h0.9c-0.2,2,0.7,4.3-1.3,5.6c-3.9-0.9-7.2,2-11.7,0.9
		c-2.3-1.1-7,2.3-9.3-1.3c-3.8,1.8-8.1,3-8.6,7.7c-3,2.3-6.1,2.9-9.5,1.3l-1.3-1.3c4.9,0.7,8.6-0.5,11.5-4.7c-0.4-2.3-3.9-0.7-5-3
		c1.1-2,0.7-4.7,3.4-5.6C427.6,357.8,426.9,364.6,431.7,361.9"/>
	<path id="path18911" class="st0" d="M104.9,365c-1.4,1.1-3.1,2.3-5,2.2c-1.8,3.2-3.2,7.9-7.3,9c-2.5,0.7-4.1-1.1-6.1-1.8
		c4.5,1.1,9.2-2.7,12-6.8c-0.4-2-3.4-2-1.6-4.3c1.8,1.3,4.8,0.9,6.8,0.4c2-1.6-2-3.4,0-5.6C105.4,359.4,106.5,362.7,104.9,365"/>
	<path id="path18913" class="st0" d="M148.5,361.9c0.2,1.4-0.2,2.5-1.3,3.4c-3.2,0.7-6.3-3.6-8.2,1.3c-2.5-0.4-4.5,0.5-6.5,1.3
		c1.8,1.4,5.9,0.9,4.3,4.9c-4.7,3.2-10,6.8-16,4.3c-3.4-2.5-2.7-5.6-2.1-9.2c0.7-0.5,0.4-1.6,1.3-2.2c-1.1,1.8-2,8.1,2.7,8.6
		c4.1,1.1,8.4,0.2,11.7-2.1c-1.1-2.2-7.2-0.5-4.9-4.7c3.8-6.5,12.2-0.9,15.1-9.5C147.9,356.6,147,360.7,148.5,361.9"/>
	<path id="path18915" class="st0" d="M242.6,361.4c0.4,4.5-2.1,7.5-4.7,10.8c-2.3,1.8-5.4,0.5-7.7-0.4c4.5,0.2,9-3.2,11.1-7.4
		c0.4-2.5-4.1-3.8-2.2-6.5C241.2,358,241.6,360.3,242.6,361.4"/>
	<path id="path18917" class="st1" d="M268.5,359.2l-2.9,2.2c-1.3-0.7,0.7-2.3,1.3-3.4C267.9,357.5,267.9,358.9,268.5,359.2"/>
	<path id="path18919" class="st0" d="M412.3,366.2c-0.4,3.4-3.9,4.5-6.5,5.9c-2.3,0-6.5,0.5-7.7-2.5c-1.1-2.9-0.4-6.1,1.6-8.2
		c-0.2,2-1.3,3.6-0.7,5.7c1.8,2.1,4.8,3.2,7.7,2.1c1.4-0.9,3.2-0.9,4.3-2.7c0.4-3.2-3.9-5.2-1.8-8.6
		C411.8,359.8,411.8,363.2,412.3,366.2"/>
	<path id="path18921" class="st0" d="M77.4,369.7c-2.5,3.4-5.7,4.5-9.5,4.7c-1.6-0.9-3.9-1.2-4.7-3.4c-0.2-2.5-0.2-5,1.6-6.8
		c0,0.5-1.6,3.8,0,5.6c2.9,1.8,7,2.3,9.9,0.4c4.3-2.7-2.7-7.5,0.9-9.9C77.6,362.8,77.4,366.2,77.4,369.7"/>
	<path id="path18923" class="st1" d="M279.8,361.4v1.4c-0.9-0.4-1.4-1.1-2.1-1.8C277.6,359.4,279.8,360.3,279.8,361.4"/>
	<path id="path18925" class="st1" d="M425.2,361.9c-0.9-0.2-2,0.4-2.5-0.5C423.1,360.1,425.4,360,425.2,361.9"/>
	<path id="path18927" class="st1" d="M145.8,361.4v0.9l-2.2-1.3C144.3,360.1,145.4,360.7,145.8,361.4"/>
	<path id="path18929" class="st1" d="M373.6,362.3h-2.5C370.4,360.3,374.3,360.3,373.6,362.3"/>
	<path id="path18931" class="st1" d="M255.5,362.8h-2.2l0.5-1.4C254.7,361.4,256.1,361.6,255.5,362.8"/>
	<path id="path18933" class="st1" d="M268.5,370c-1.1,0.7-3.9,0.2-3.4-2.2C266.3,368.4,268.5,368.8,268.5,370"/>
	<path id="path18935" class="st0" d="M432.6,369.7c-0.7,0.4-1.4,2.2-2.2,0.9l-0.9-0.9C429.5,367.7,432.4,367.9,432.6,369.7"/>
	<path id="path18937" class="st0" d="M436.9,369.3c-0.2,0.9-1.3,1.3-2.2,1.3c-0.4-0.9-1.6-2,0-2.7
		C435.8,367.7,436.5,368.2,436.9,369.3"/>
	<path id="path18939" class="st0" d="M349.9,370.6l-1.8,1.6c-0.5-0.4-0.9-1.3-1.6-1.3l1.3-2.5C348.5,369.1,350.3,368.9,349.9,370.6"
		/>
	<path id="path18941" class="st0" d="M298.2,372.2l-2.5-1.3c-0.2-1.6,2.3-3.2,3.4-1.3L298.2,372.2"/>
	<path id="path18943" class="st0" d="M105.8,370c0.9-1.3,1.3,0.7,2.2,0.5c0.5,1.1-0.9,1.4-1.3,2.2c-1.4-1.3-3-2.5-4.3,0
		c-0.7,0-1.1-0.9-1.8-1.3C101.6,366.6,104,373.2,105.8,370"/>
</g>
<g id="g2469" transform="matrix(0.80782316,0,0,0.80782316,-15.470129,-13.253349)">
	<path id="path18945" class="st0" d="M233.9,518h8.4v-25.6h-8.4V518z"/>
	<path id="path18947" class="st0" d="M272,518l9.2-25.6h8.5l9.2,25.6h-8.3l-1-4.5h-8.3l-1,4.5H272z M285.3,500.2l-2.6,8.1h5.3
		L285.3,500.2"/>
	<path id="path18949" class="st0" d="M319.7,506.4l-0.3-5.8v-8.1h8V518h-7.8l-9.1-13.9l0.3,5.8v8.1h-8v-25.6h7.8L319.7,506.4"/>
	<path id="path18951" class="st0" d="M258,497.7c1.4,0,2.4,0.2,2.9,0.7c0.5,0.4,0.8,1.1,0.8,1.9c0,0.6-0.2,1.1-0.5,1.5
		c-0.3,0.4-0.8,0.7-1.3,0.8c-1,0.2-1.7,0.4-2.1,0.4h-3.3v-5.2H258z M254.5,507.7h0.7c0.7,0,1.4,0.2,1.9,0.6c0.4,0.3,0.9,1,1.4,2
		l4.2,7.8h8.9l-3.8-7.4c-0.2-0.4-0.6-0.9-1.1-1.6c-0.6-0.7-1-1.1-1.3-1.3c-0.4-0.3-1.1-0.6-2.1-0.9c1.2-0.3,2.1-0.6,2.8-1
		c1.1-0.6,1.9-1.5,2.5-2.5s0.9-2.2,0.9-3.6c0-1.6-0.4-3-1.2-4.1c-0.8-1.1-1.8-1.9-3.1-2.3c-1.3-0.4-3.1-0.6-5.6-0.6h-13.1V518h7.9
		L254.5,507.7"/>
</g>
<g id="g2158" transform="matrix(0.80782316,0,0,0.80782316,-15.470129,-13.253349)">
	<path id="path19261" class="st0" d="M38,36.5v268.4h0.5h491.4V36.5H38z"/>
	<path id="path1929" class="st1" d="M39.1,37.6h489.8v266.2H39.1V37.6z"/>
	<g id="g1773">
		<path id="path18953" class="st2" d="M292.7,142.4c-0.9,1.1-1,3.1-2.6,3.5c-1.9-1.5-5.9-3-8.6-0.3c-2,0.7-2.7-1.1-4-2.3
			c0.7-0.7,4.5,1.1,6-0.9c0.4-2,3.4-1.5,4.3-0.4C289.3,144,290.9,142.7,292.7,142.4"/>
		<path id="path18955" class="st2" d="M315.4,163.4c0.4,6.2,0,13.2-4,18.1c-2.7,2.7-5.4,6-8.7,6.5c4.3-5.8,9.4-15.8,7.4-25.6
			c-1.5-5.8-4.3-12-8.7-15.8C308.9,149.2,313.2,156.3,315.4,163.4"/>
		<path id="path18957" class="st2" d="M261,169.4c0.9,7.6,4.3,15.2,8.7,20.5c-6.5-2.9-12.5-9.2-13.6-16.5c-0.7-10,3.6-19,11.4-24.5
			l2.2-0.7C264.7,153.4,261.6,161.4,261,169.4"/>
		<path id="path18959" class="st2" d="M288.4,151.6v32.6c3.8,0,6.7-5.1,8.7-8.3c4.2-7.8,3.4-18.5-0.6-26.1
			c4.5,4.5,6.4,10.3,6.5,16.5c-0.2,9.4-4.9,18.7-13.4,23.2c0.2,2.7,4.3,3.1,5.3,5.1c-2.9,1.1-6.3-2-9.6-2.9c-4,0.4-8.5,3.5-10.9,2.9
			c-0.4-2.3,6.7-2.3,5.6-5.6c-8.9-5.8-13.8-16.8-10.9-28.6c2-3.1,2.2-7.2,5.6-9.2c-5.2,10.9-2,24.5,5.8,33.2h0.7l0.6-33.9
			C282.6,146.5,289.1,147.6,288.4,151.6"/>
	</g>
	<path id="path18961" class="st3" d="M38.5,126.7h490.8V37H38.5V126.7z"/>
	<g id="g1847">
		<path id="path18963" class="st1" d="M79.7,106.2l0.1,12.3h4l-0.2-12.3h2.8l-0.1,12h3.9v-12h2.7v14.9L77.1,121l0-6.3l-6.5,0.1
			l0.1,3.5l2.7-0.1l0.1,2.7l-6,0.2l0.1-8.9l9.4-0.1V106L79.7,106.2"/>
		<path id="path18965" class="st4" d="M79.7,106.2l0.1,12.3h4l-0.2-12.3h2.8l-0.1,12h3.9v-12h2.7v14.9L77.1,121l0-6.3l-6.5,0.1
			l0.1,3.5l2.7-0.1l0.1,2.7l-6,0.2l0.1-8.9l9.4-0.1V106L79.7,106.2z"/>
		<path id="path18967" class="st1" d="M53.7,112.2l-0.1,6.2l8.2-0.1l0-3.4l-4,0.1l0.1-2.7h6.3l-0.1,8.6H51.7l0.1-6.2l-7.2,0
			l-0.1,6.3l-2,0.1l-0.1-8.8L53.7,112.2"/>
		<path id="path18969" class="st4" d="M53.7,112.2l-0.1,6.2l8.2-0.1l0-3.4l-4,0.1l0.1-2.7h6.3l-0.1,8.6H51.7l0.1-6.2l-7.2,0
			l-0.1,6.3l-2,0.1l-0.1-8.8L53.7,112.2z"/>
		<path id="path18971" class="st1" d="M41.9,108.9h31.6v-2.7H41.9V108.9z"/>
		<path id="path18973" class="st4" d="M41.9,108.9h31.6v-2.7H41.9V108.9z"/>
		<path id="path18975" class="st1" d="M47.8,121.3c0.7,0,1.3-0.6,1.3-1.3c0-0.7-0.6-1.3-1.3-1.3c-0.7,0-1.3,0.6-1.3,1.3
			S47.1,121.3,47.8,121.3"/>
		<path id="path18977" class="st4" d="M47.8,121.3c0.7,0,1.3-0.6,1.3-1.3c0-0.7-0.6-1.3-1.3-1.3c-0.7,0-1.3,0.6-1.3,1.3
			S47.1,121.3,47.8,121.3z"/>
		<path id="path18979" class="st1" d="M133.6,106.2l0.1,12.3h4l-0.2-12.3h2.8l-0.1,12h3.9v-12h2.7v14.9L131,121l0-6.3l-6.5,0.1
			l0.1,3.5l2.7-0.1l0.1,2.7l-6,0.2l0.1-8.9l9.4-0.1v-6.1L133.6,106.2"/>
		<path id="path18981" class="st4" d="M133.6,106.2l0.1,12.3h4l-0.2-12.3h2.8l-0.1,12h3.9v-12h2.7v14.9L131,121l0-6.3l-6.5,0.1
			l0.1,3.5l2.7-0.1l0.1,2.7l-6,0.2l0.1-8.9l9.4-0.1v-6.1L133.6,106.2z"/>
		<path id="path18983" class="st1" d="M107.6,112.2l-0.1,6.2l8.2-0.1l0-3.4l-4,0.1l0.1-2.7h6.3l-0.1,8.6h-12.3l0.1-6.2l-7.2,0
			l-0.1,6.3l-2,0.1l-0.1-8.8L107.6,112.2"/>
		<path id="path18985" class="st4" d="M107.6,112.2l-0.1,6.2l8.2-0.1l0-3.4l-4,0.1l0.1-2.7h6.3l-0.1,8.6h-12.3l0.1-6.2l-7.2,0
			l-0.1,6.3l-2,0.1l-0.1-8.8L107.6,112.2z"/>
		<path id="path18987" class="st1" d="M95.8,108.9h31.6v-2.7H95.8V108.9z"/>
		<path id="path18989" class="st4" d="M95.8,108.9h31.6v-2.7H95.8V108.9z"/>
		<path id="path18991" class="st1" d="M101.7,121.3c0.7,0,1.3-0.6,1.3-1.3c0-0.7-0.6-1.3-1.3-1.3c-0.7,0-1.3,0.6-1.3,1.3
			C100.4,120.8,101,121.3,101.7,121.3"/>
		<path id="path18993" class="st4" d="M101.7,121.3c0.7,0,1.3-0.6,1.3-1.3c0-0.7-0.6-1.3-1.3-1.3c-0.7,0-1.3,0.6-1.3,1.3
			C100.4,120.8,101,121.3,101.7,121.3z"/>
		<path id="path18995" class="st1" d="M187.7,106.2l0.1,12.3h4l-0.2-12.3h2.8l-0.1,12h3.9v-12h2.7v14.9l-15.7-0.1l0-6.3l-6.5,0.1
			l0.1,3.5l2.7-0.1l0.1,2.7l-6,0.2l0.1-8.9l9.4-0.1v-6.1L187.7,106.2"/>
		<path id="path18997" class="st4" d="M187.7,106.2l0.1,12.3h4l-0.2-12.3h2.8l-0.1,12h3.9v-12h2.7v14.9l-15.7-0.1l0-6.3l-6.5,0.1
			l0.1,3.5l2.7-0.1l0.1,2.7l-6,0.2l0.1-8.9l9.4-0.1v-6.1L187.7,106.2z"/>
		<path id="path18999" class="st1" d="M161.7,112.2l-0.1,6.2l8.2-0.1l0-3.4l-4,0.1l0.1-2.7h6.3l-0.1,8.6h-12.3l0.1-6.2l-7.2,0
			l-0.1,6.3l-2,0.1l-0.1-8.8L161.7,112.2"/>
		<path id="path19001" class="st4" d="M161.7,112.2l-0.1,6.2l8.2-0.1l0-3.4l-4,0.1l0.1-2.7h6.3l-0.1,8.6h-12.3l0.1-6.2l-7.2,0
			l-0.1,6.3l-2,0.1l-0.1-8.8L161.7,112.2z"/>
		<path id="path19003" class="st1" d="M149.9,108.9h31.6v-2.7h-31.6L149.9,108.9z"/>
		<path id="path19005" class="st4" d="M149.9,108.9h31.6v-2.7h-31.6L149.9,108.9z"/>
		<path id="path19007" class="st1" d="M155.8,121.3c0.7,0,1.3-0.6,1.3-1.3c0-0.7-0.6-1.3-1.3-1.3s-1.3,0.6-1.3,1.3
			S155.1,121.3,155.8,121.3"/>
		<path id="path19009" class="st4" d="M155.8,121.3c0.7,0,1.3-0.6,1.3-1.3c0-0.7-0.6-1.3-1.3-1.3s-1.3,0.6-1.3,1.3
			S155.1,121.3,155.8,121.3z"/>
		<path id="path19011" class="st1" d="M241.5,106.2l0.1,12.3h4l-0.2-12.3h2.8l-0.1,12h3.9v-12h2.7v14.9l-15.7-0.1l0-6.3l-6.5,0.1
			l0.1,3.5l2.7-0.1l0.1,2.7l-6,0.2l0.1-8.9l9.4-0.1v-6.1L241.5,106.2"/>
		<path id="path19013" class="st4" d="M241.5,106.2l0.1,12.3h4l-0.2-12.3h2.8l-0.1,12h3.9v-12h2.7v14.9l-15.7-0.1l0-6.3l-6.5,0.1
			l0.1,3.5l2.7-0.1l0.1,2.7l-6,0.2l0.1-8.9l9.4-0.1v-6.1L241.5,106.2z"/>
		<path id="path19015" class="st1" d="M215.5,112.3l-0.1,6.2l8.2-0.1l0-3.4l-4,0.1l0.1-2.7h6.3l-0.1,8.6h-12.3l0.1-6.2l-7.2,0
			l-0.1,6.3l-2,0.1l-0.1-8.8L215.5,112.3"/>
		<path id="path19017" class="st4" d="M215.5,112.3l-0.1,6.2l8.2-0.1l0-3.4l-4,0.1l0.1-2.7h6.3l-0.1,8.6h-12.3l0.1-6.2l-7.2,0
			l-0.1,6.3l-2,0.1l-0.1-8.8L215.5,112.3z"/>
		<path id="path19019" class="st1" d="M203.7,109h31.6v-2.7h-31.6V109z"/>
		<path id="path19021" class="st4" d="M203.7,109h31.6v-2.7h-31.6V109z"/>
		<path id="path19023" class="st1" d="M209.6,121.4c0.7,0,1.3-0.6,1.3-1.3c0-0.7-0.6-1.3-1.3-1.3c-0.7,0-1.3,0.6-1.3,1.3
			C208.4,120.8,208.9,121.4,209.6,121.4"/>
		<path id="path19025" class="st4" d="M209.6,121.4c0.7,0,1.3-0.6,1.3-1.3c0-0.7-0.6-1.3-1.3-1.3c-0.7,0-1.3,0.6-1.3,1.3
			C208.4,120.8,208.9,121.4,209.6,121.4z"/>
		<path id="path19027" class="st1" d="M296,106.2l0.1,12.3h4l-0.2-12.3l2.8,0l-0.1,12h3.9v-12h2.7v14.9l-15.7-0.1l0-6.3l-6.5,0.1
			l0.1,3.5l2.7-0.1l0.1,2.7l-6,0.2l0.1-8.9l9.4-0.1V106L296,106.2"/>
		<path id="path19029" class="st4" d="M296,106.2l0.1,12.3h4l-0.2-12.3l2.8,0l-0.1,12h3.9v-12h2.7v14.9l-15.7-0.1l0-6.3l-6.5,0.1
			l0.1,3.5l2.7-0.1l0.1,2.7l-6,0.2l0.1-8.9l9.4-0.1V106L296,106.2z"/>
		<path id="path19031" class="st1" d="M270,112.2l-0.1,6.2l8.2-0.1l0-3.4l-4,0.1l0.1-2.7h6.3l-0.1,8.6h-12.3l0.1-6.2l-7.2,0
			l-0.1,6.3l-2,0.1l-0.1-8.8L270,112.2"/>
		<path id="path19033" class="st4" d="M270,112.2l-0.1,6.2l8.2-0.1l0-3.4l-4,0.1l0.1-2.7h6.3l-0.1,8.6h-12.3l0.1-6.2l-7.2,0
			l-0.1,6.3l-2,0.1l-0.1-8.8L270,112.2z"/>
		<path id="path19035" class="st1" d="M258.2,108.9h31.6v-2.7h-31.6V108.9z"/>
		<path id="path19037" class="st4" d="M258.2,108.9h31.6v-2.7h-31.6V108.9z"/>
		<path id="path19039" class="st1" d="M264.1,121.3c0.7,0,1.3-0.6,1.3-1.3c0-0.7-0.6-1.3-1.3-1.3c-0.7,0-1.3,0.6-1.3,1.3
			C262.8,120.7,263.4,121.3,264.1,121.3"/>
		<path id="path19041" class="st4" d="M264.1,121.3c0.7,0,1.3-0.6,1.3-1.3c0-0.7-0.6-1.3-1.3-1.3c-0.7,0-1.3,0.6-1.3,1.3
			C262.8,120.7,263.4,121.3,264.1,121.3z"/>
		<path id="path19043" class="st1" d="M349.9,106.4l0.1,12.3h4l-0.2-12.3h2.8l-0.1,12l3.9,0v-12h2.7v14.9l-15.7-0.1l0-6.3l-6.5,0.1
			l0.1,3.5l2.7-0.1l0.1,2.7l-6,0.2l0.1-8.9l9.4-0.1v-6L349.9,106.4"/>
		<path id="path19045" class="st4" d="M349.9,106.4l0.1,12.3h4l-0.2-12.3h2.8l-0.1,12l3.9,0v-12h2.7v14.9l-15.7-0.1l0-6.3l-6.5,0.1
			l0.1,3.5l2.7-0.1l0.1,2.7l-6,0.2l0.1-8.9l9.4-0.1v-6L349.9,106.4z"/>
		<path id="path19047" class="st1" d="M323.8,112.4l-0.1,6.2l8.2-0.1l0-3.4l-4,0.1l0.1-2.7h6.3l-0.1,8.6h-12.3l0.1-6.2l-7.2,0
			l-0.1,6.3l-2,0.1l-0.1-8.8L323.8,112.4"/>
		<path id="path19049" class="st4" d="M323.8,112.4l-0.1,6.2l8.2-0.1l0-3.4l-4,0.1l0.1-2.7h6.3l-0.1,8.6h-12.3l0.1-6.2l-7.2,0
			l-0.1,6.3l-2,0.1l-0.1-8.8L323.8,112.4z"/>
		<path id="path19051" class="st1" d="M312,109.1h31.6v-2.7H312V109.1z"/>
		<path id="path19053" class="st4" d="M312,109.1h31.6v-2.7H312V109.1z"/>
		<path id="path19055" class="st1" d="M317.9,121.5c0.7,0,1.3-0.6,1.3-1.3c0-0.7-0.6-1.3-1.3-1.3s-1.3,0.6-1.3,1.3
			C316.7,120.9,317.2,121.5,317.9,121.5"/>
		<path id="path19057" class="st4" d="M317.9,121.5c0.7,0,1.3-0.6,1.3-1.3c0-0.7-0.6-1.3-1.3-1.3s-1.3,0.6-1.3,1.3
			C316.7,120.9,317.2,121.5,317.9,121.5z"/>
		<path id="path19059" class="st1" d="M403.9,106.3l0.1,12.3h4l-0.2-12.3h2.8l-0.1,12h3.9v-12h2.7v14.9l-15.7-0.1l0-6.3l-6.5,0.1
			l0.1,3.5l2.7-0.1l0.1,2.7l-6,0.2l0.1-8.9l9.4-0.1v-6.1L403.9,106.3"/>
		<path id="path19061" class="st4" d="M403.9,106.3l0.1,12.3h4l-0.2-12.3h2.8l-0.1,12h3.9v-12h2.7v14.9l-15.7-0.1l0-6.3l-6.5,0.1
			l0.1,3.5l2.7-0.1l0.1,2.7l-6,0.2l0.1-8.9l9.4-0.1v-6.1L403.9,106.3z"/>
		<path id="path19063" class="st1" d="M377.9,112.3l-0.1,6.2l8.2-0.1l0-3.4l-4,0.1l0.1-2.7h6.3l-0.1,8.6h-12.3l0.1-6.2l-7.2,0
			l-0.1,6.3l-2,0.1l-0.1-8.8L377.9,112.3"/>
		<path id="path19065" class="st4" d="M377.9,112.3l-0.1,6.2l8.2-0.1l0-3.4l-4,0.1l0.1-2.7h6.3l-0.1,8.6h-12.3l0.1-6.2l-7.2,0
			l-0.1,6.3l-2,0.1l-0.1-8.8L377.9,112.3z"/>
		<path id="path19067" class="st1" d="M366.1,109h31.6v-2.7h-31.6V109z"/>
		<path id="path19069" class="st4" d="M366.1,109h31.6v-2.7h-31.6V109z"/>
		<path id="path19071" class="st1" d="M372,121.4c0.7,0,1.3-0.6,1.3-1.3c0-0.7-0.6-1.3-1.3-1.3c-0.7,0-1.3,0.6-1.3,1.3
			S371.3,121.4,372,121.4"/>
		<path id="path19073" class="st4" d="M372,121.4c0.7,0,1.3-0.6,1.3-1.3c0-0.7-0.6-1.3-1.3-1.3c-0.7,0-1.3,0.6-1.3,1.3
			S371.3,121.4,372,121.4z"/>
		<path id="path19075" class="st1" d="M457.6,106.3l0.1,12.3h4l-0.2-12.3h2.8l-0.1,12h3.9v-12h2.7v14.9l-15.7-0.1l0-6.3l-6.5,0.1
			l0.1,3.5l2.7-0.1l0.1,2.7l-6,0.2l0.1-8.9l9.4-0.1v-6.1L457.6,106.3"/>
		<path id="path19077" class="st4" d="M457.6,106.3l0.1,12.3h4l-0.2-12.3h2.8l-0.1,12h3.9v-12h2.7v14.9l-15.7-0.1l0-6.3l-6.5,0.1
			l0.1,3.5l2.7-0.1l0.1,2.7l-6,0.2l0.1-8.9l9.4-0.1v-6.1L457.6,106.3z"/>
		<path id="path19079" class="st1" d="M431.6,112.3l-0.1,6.2l8.2-0.1l0-3.4l-4,0.1l0.1-2.7h6.3l-0.1,8.6h-12.3l0.1-6.2l-7.2,0
			l-0.1,6.3l-2,0.1l-0.1-8.8L431.6,112.3"/>
		<path id="path19081" class="st4" d="M431.6,112.3l-0.1,6.2l8.2-0.1l0-3.4l-4,0.1l0.1-2.7h6.3l-0.1,8.6h-12.3l0.1-6.2l-7.2,0
			l-0.1,6.3l-2,0.1l-0.1-8.8L431.6,112.3z"/>
		<path id="path19083" class="st1" d="M419.8,109h31.6v-2.7h-31.6V109z"/>
		<path id="path19085" class="st4" d="M419.8,109h31.6v-2.7h-31.6V109z"/>
		<path id="path19087" class="st1" d="M425.7,121.4c0.7,0,1.3-0.6,1.3-1.3c0-0.7-0.6-1.3-1.3-1.3c-0.7,0-1.3,0.6-1.3,1.3
			S425,121.4,425.7,121.4"/>
		<path id="path19089" class="st4" d="M425.7,121.4c0.7,0,1.3-0.6,1.3-1.3c0-0.7-0.6-1.3-1.3-1.3c-0.7,0-1.3,0.6-1.3,1.3
			S425,121.4,425.7,121.4z"/>
		<path id="path19091" class="st1" d="M512.2,106.2l0.1,12.3h4l-0.2-12.3h2.8l-0.1,12h3.9v-12h2.7v14.9l-15.7-0.1l0-6.3l-6.5,0.1
			l0.1,3.5l2.7-0.1l0.1,2.7l-6,0.2l0.1-8.9l9.4-0.1v-6.1L512.2,106.2"/>
		<path id="path19093" class="st4" d="M512.2,106.2l0.1,12.3h4l-0.2-12.3h2.8l-0.1,12h3.9v-12h2.7v14.9l-15.7-0.1l0-6.3l-6.5,0.1
			l0.1,3.5l2.7-0.1l0.1,2.7l-6,0.2l0.1-8.9l9.4-0.1v-6.1L512.2,106.2z"/>
		<path id="path19095" class="st1" d="M486.2,112.2l-0.1,6.2l8.2-0.1l0-3.4l-4,0.1l0.1-2.7h6.3l-0.1,8.6h-12.3l0.1-6.2l-7.2,0
			l-0.1,6.3l-2,0.1l-0.1-8.8L486.2,112.2"/>
		<path id="path19097" class="st4" d="M486.2,112.2l-0.1,6.2l8.2-0.1l0-3.4l-4,0.1l0.1-2.7h6.3l-0.1,8.6h-12.3l0.1-6.2l-7.2,0
			l-0.1,6.3l-2,0.1l-0.1-8.8L486.2,112.2z"/>
		<path id="path19099" class="st1" d="M474.4,108.9h31.6v-2.7h-31.6V108.9z"/>
		<path id="path19101" class="st4" d="M474.4,108.9h31.6v-2.7h-31.6V108.9z"/>
		<path id="path19103" class="st1" d="M480.3,121.3c0.7,0,1.3-0.6,1.3-1.3c0-0.7-0.6-1.3-1.3-1.3c-0.7,0-1.3,0.6-1.3,1.3
			C479,120.8,479.6,121.3,480.3,121.3"/>
		<path id="path19105" class="st4" d="M480.3,121.3c0.7,0,1.3-0.6,1.3-1.3c0-0.7-0.6-1.3-1.3-1.3c-0.7,0-1.3,0.6-1.3,1.3
			C479,120.8,479.6,121.3,480.3,121.3z"/>
	</g>
	<path id="path19107" class="st2" d="M38.5,304.4h490.8v-89.7H38.5V304.4z"/>
	<g id="g1921">
		<path id="path19109" class="st1" d="M81.1,218.2l0.1,12.3h4l-0.2-12.3h2.8l-0.1,12h3.9v-12h2.7v14.9l-15.7-0.1l0-6.3l-6.5,0.1
			l0.1,3.5l2.7-0.1l0.1,2.7l-6,0.2l0.1-8.9l9.4-0.1v-6.1L81.1,218.2"/>
		<path id="path19111" class="st5" d="M81.1,218.2l0.1,12.3h4l-0.2-12.3h2.8l-0.1,12h3.9v-12h2.7v14.9l-15.7-0.1l0-6.3l-6.5,0.1
			l0.1,3.5l2.7-0.1l0.1,2.7l-6,0.2l0.1-8.9l9.4-0.1v-6.1L81.1,218.2z"/>
		<path id="path19113" class="st1" d="M55.1,224.3l-0.1,6.2l8.2-0.1l0-3.4l-4,0.1l0.1-2.7h6.3l-0.1,8.6H53l0.1-6.2l-7.2,0l-0.1,6.3
			l-2,0.1l-0.1-8.8L55.1,224.3"/>
		<path id="path19115" class="st5" d="M55.1,224.3l-0.1,6.2l8.2-0.1l0-3.4l-4,0.1l0.1-2.7h6.3l-0.1,8.6H53l0.1-6.2l-7.2,0l-0.1,6.3
			l-2,0.1l-0.1-8.8L55.1,224.3z"/>
		<path id="path19117" class="st1" d="M43.3,221h31.6v-2.7H43.3V221z"/>
		<path id="path19119" class="st5" d="M43.3,221h31.6v-2.7H43.3V221z"/>
		<path id="path19121" class="st1" d="M49.2,233.4c0.7,0,1.3-0.6,1.3-1.3c0-0.7-0.6-1.3-1.3-1.3c-0.7,0-1.3,0.6-1.3,1.3
			C47.9,232.8,48.5,233.4,49.2,233.4"/>
		<path id="path19123" class="st5" d="M49.2,233.4c0.7,0,1.3-0.6,1.3-1.3c0-0.7-0.6-1.3-1.3-1.3c-0.7,0-1.3,0.6-1.3,1.3
			C47.9,232.8,48.5,233.4,49.2,233.4z"/>
		<path id="path19125" class="st1" d="M135,218.3l0.1,12.3h4l-0.2-12.3h2.8l-0.1,12h3.9v-12h2.7v14.9l-15.7-0.1l0-6.3l-6.5,0.1
			l0.1,3.5l2.7-0.1l0.1,2.7l-6,0.2l0.1-8.9l9.4-0.1v-6.1L135,218.3"/>
		<path id="path19127" class="st5" d="M135,218.3l0.1,12.3h4l-0.2-12.3h2.8l-0.1,12h3.9v-12h2.7v14.9l-15.7-0.1l0-6.3l-6.5,0.1
			l0.1,3.5l2.7-0.1l0.1,2.7l-6,0.2l0.1-8.9l9.4-0.1v-6.1L135,218.3z"/>
		<path id="path19129" class="st1" d="M108.9,224.3l-0.1,6.2l8.2-0.1l0-3.4l-4,0.1l0.1-2.7h6.3l-0.1,8.6h-12.3l0.1-6.2l-7.2,0
			l-0.1,6.3l-2,0.1l-0.1-8.8L108.9,224.3"/>
		<path id="path19131" class="st5" d="M108.9,224.3l-0.1,6.2l8.2-0.1l0-3.4l-4,0.1l0.1-2.7h6.3l-0.1,8.6h-12.3l0.1-6.2l-7.2,0
			l-0.1,6.3l-2,0.1l-0.1-8.8L108.9,224.3z"/>
		<path id="path19133" class="st1" d="M97.1,221h31.6v-2.7H97.1V221z"/>
		<path id="path19135" class="st5" d="M97.1,221h31.6v-2.7H97.1V221z"/>
		<path id="path19137" class="st1" d="M103,233.4c0.7,0,1.3-0.6,1.3-1.3s-0.6-1.3-1.3-1.3c-0.7,0-1.3,0.6-1.3,1.3
			S102.3,233.4,103,233.4"/>
		<path id="path19139" class="st5" d="M103,233.4c0.7,0,1.3-0.6,1.3-1.3s-0.6-1.3-1.3-1.3c-0.7,0-1.3,0.6-1.3,1.3
			S102.3,233.4,103,233.4z"/>
		<path id="path19141" class="st1" d="M189,218.3l0.1,12.3h4l-0.2-12.3h2.8l-0.1,12h3.9v-12h2.7v14.9l-15.7-0.1l0-6.3l-6.5,0.1
			l0.1,3.5l2.7-0.1l0.1,2.7l-6,0.2l0.1-8.9l9.4-0.1v-6.1L189,218.3"/>
		<path id="path19143" class="st5" d="M189,218.3l0.1,12.3h4l-0.2-12.3h2.8l-0.1,12h3.9v-12h2.7v14.9l-15.7-0.1l0-6.3l-6.5,0.1
			l0.1,3.5l2.7-0.1l0.1,2.7l-6,0.2l0.1-8.9l9.4-0.1v-6.1L189,218.3z"/>
		<path id="path19145" class="st1" d="M163,224.3l-0.1,6.2l8.2-0.1l0-3.4l-4,0.1l0.1-2.7h6.3l-0.1,8.6h-12.3l0.1-6.2l-7.2,0
			l-0.1,6.3l-2,0.1l-0.1-8.8L163,224.3"/>
		<path id="path19147" class="st5" d="M163,224.3l-0.1,6.2l8.2-0.1l0-3.4l-4,0.1l0.1-2.7h6.3l-0.1,8.6h-12.3l0.1-6.2l-7.2,0
			l-0.1,6.3l-2,0.1l-0.1-8.8L163,224.3z"/>
		<path id="path19149" class="st1" d="M151.2,221h31.6v-2.7h-31.6L151.2,221z"/>
		<path id="path19151" class="st5" d="M151.2,221h31.6v-2.7h-31.6L151.2,221z"/>
		<path id="path19153" class="st1" d="M157.1,233.4c0.7,0,1.3-0.6,1.3-1.3s-0.6-1.3-1.3-1.3c-0.7,0-1.3,0.6-1.3,1.3
			S156.4,233.4,157.1,233.4"/>
		<path id="path19155" class="st5" d="M157.1,233.4c0.7,0,1.3-0.6,1.3-1.3s-0.6-1.3-1.3-1.3c-0.7,0-1.3,0.6-1.3,1.3
			S156.4,233.4,157.1,233.4z"/>
		<path id="path19157" class="st1" d="M242.9,218.3l0.1,12.3h4l-0.2-12.3h2.8l-0.1,12h3.9v-12h2.7v14.9l-15.7-0.1l0-6.3l-6.5,0.1
			l0.1,3.5l2.7-0.1l0.1,2.7l-6,0.2l0.1-8.9l9.4-0.1v-6.1L242.9,218.3"/>
		<path id="path19159" class="st5" d="M242.9,218.3l0.1,12.3h4l-0.2-12.3h2.8l-0.1,12h3.9v-12h2.7v14.9l-15.7-0.1l0-6.3l-6.5,0.1
			l0.1,3.5l2.7-0.1l0.1,2.7l-6,0.2l0.1-8.9l9.4-0.1v-6.1L242.9,218.3z"/>
		<path id="path19161" class="st1" d="M216.9,224.4l-0.1,6.2l8.2-0.1l0-3.4l-4,0.1l0.1-2.7h6.3l-0.1,8.6h-12.3l0.1-6.2l-7.2,0
			l-0.1,6.3l-2,0.1l-0.1-8.8L216.9,224.4"/>
		<path id="path19163" class="st5" d="M216.9,224.4l-0.1,6.2l8.2-0.1l0-3.4l-4,0.1l0.1-2.7h6.3l-0.1,8.6h-12.3l0.1-6.2l-7.2,0
			l-0.1,6.3l-2,0.1l-0.1-8.8L216.9,224.4z"/>
		<path id="path19165" class="st1" d="M205.1,221.1h31.6v-2.7h-31.6V221.1z"/>
		<path id="path19167" class="st5" d="M205.1,221.1h31.6v-2.7h-31.6V221.1z"/>
		<path id="path19169" class="st1" d="M211,233.4c0.7,0,1.3-0.6,1.3-1.3s-0.6-1.3-1.3-1.3c-0.7,0-1.3,0.6-1.3,1.3
			S210.3,233.4,211,233.4"/>
		<path id="path19171" class="st5" d="M211,233.4c0.7,0,1.3-0.6,1.3-1.3s-0.6-1.3-1.3-1.3c-0.7,0-1.3,0.6-1.3,1.3
			S210.3,233.4,211,233.4z"/>
		<path id="path19173" class="st1" d="M297.3,218.3l0.1,12.3h4l-0.2-12.3h2.8l-0.1,12l3.9,0v-12h2.7v14.9l-15.7-0.1l0-6.3l-6.5,0.1
			l0.1,3.5l2.7-0.1l0.1,2.7l-6,0.2l0.1-8.9l9.4-0.1v-6.1L297.3,218.3"/>
		<path id="path19175" class="st5" d="M297.3,218.3l0.1,12.3h4l-0.2-12.3h2.8l-0.1,12l3.9,0v-12h2.7v14.9l-15.7-0.1l0-6.3l-6.5,0.1
			l0.1,3.5l2.7-0.1l0.1,2.7l-6,0.2l0.1-8.9l9.4-0.1v-6.1L297.3,218.3z"/>
		<path id="path19177" class="st1" d="M271.3,224.3l-0.1,6.2l8.2-0.1l0-3.4l-4,0.1l0.1-2.7h6.3l-0.1,8.6h-12.3l0.1-6.2l-7.2,0
			l-0.1,6.3l-2,0.1l-0.1-8.8L271.3,224.3"/>
		<path id="path19179" class="st5" d="M271.3,224.3l-0.1,6.2l8.2-0.1l0-3.4l-4,0.1l0.1-2.7h6.3l-0.1,8.6h-12.3l0.1-6.2l-7.2,0
			l-0.1,6.3l-2,0.1l-0.1-8.8L271.3,224.3z"/>
		<path id="path19181" class="st1" d="M259.5,221h31.6v-2.7h-31.6V221z"/>
		<path id="path19183" class="st5" d="M259.5,221h31.6v-2.7h-31.6V221z"/>
		<path id="path19185" class="st1" d="M265.4,233.4c0.7,0,1.3-0.6,1.3-1.3c0-0.7-0.6-1.3-1.3-1.3s-1.3,0.6-1.3,1.3
			C264.2,232.8,264.7,233.4,265.4,233.4"/>
		<path id="path19187" class="st5" d="M265.4,233.4c0.7,0,1.3-0.6,1.3-1.3c0-0.7-0.6-1.3-1.3-1.3s-1.3,0.6-1.3,1.3
			C264.2,232.8,264.7,233.4,265.4,233.4z"/>
		<path id="path19189" class="st1" d="M351.2,218.5l0.1,12.3h4l-0.2-12.3l2.8,0l-0.1,12h3.9v-12h2.7v14.9l-15.7-0.1l0-6.3l-6.5,0.1
			l0.1,3.5l2.7-0.1l0.1,2.7l-6,0.2l0.1-8.9l9.4-0.1v-6.1L351.2,218.5"/>
		<path id="path19191" class="st5" d="M351.2,218.5l0.1,12.3h4l-0.2-12.3l2.8,0l-0.1,12h3.9v-12h2.7v14.9l-15.7-0.1l0-6.3l-6.5,0.1
			l0.1,3.5l2.7-0.1l0.1,2.7l-6,0.2l0.1-8.9l9.4-0.1v-6.1L351.2,218.5z"/>
		<path id="path19193" class="st1" d="M325.2,224.5l-0.1,6.2l8.2-0.1l0-3.4l-4,0.1l0.1-2.7h6.3l-0.1,8.6h-12.3l0.1-6.2l-7.2,0
			l-0.1,6.3l-2,0.1l-0.1-8.8L325.2,224.5"/>
		<path id="path19195" class="st5" d="M325.2,224.5l-0.1,6.2l8.2-0.1l0-3.4l-4,0.1l0.1-2.7h6.3l-0.1,8.6h-12.3l0.1-6.2l-7.2,0
			l-0.1,6.3l-2,0.1l-0.1-8.8L325.2,224.5z"/>
		<path id="path19197" class="st1" d="M313.4,221.2H345v-2.7h-31.6V221.2z"/>
		<path id="path19199" class="st5" d="M313.4,221.2H345v-2.7h-31.6V221.2z"/>
		<path id="path19201" class="st1" d="M319.3,233.6c0.7,0,1.3-0.6,1.3-1.3c0-0.7-0.6-1.3-1.3-1.3c-0.7,0-1.3,0.6-1.3,1.3
			C318,233,318.6,233.6,319.3,233.6"/>
		<path id="path19203" class="st5" d="M319.3,233.6c0.7,0,1.3-0.6,1.3-1.3c0-0.7-0.6-1.3-1.3-1.3c-0.7,0-1.3,0.6-1.3,1.3
			C318,233,318.6,233.6,319.3,233.6z"/>
		<path id="path19205" class="st1" d="M405.2,218.4l0.1,12.3h4l-0.2-12.3h2.8l-0.1,12h3.9v-12h2.7v14.9l-15.7-0.1l0-6.3l-6.5,0.1
			l0.1,3.5l2.7-0.1l0.1,2.7l-6,0.2l0.1-8.9l9.4-0.1v-6.1L405.2,218.4"/>
		<path id="path19207" class="st5" d="M405.2,218.4l0.1,12.3h4l-0.2-12.3h2.8l-0.1,12h3.9v-12h2.7v14.9l-15.7-0.1l0-6.3l-6.5,0.1
			l0.1,3.5l2.7-0.1l0.1,2.7l-6,0.2l0.1-8.9l9.4-0.1v-6.1L405.2,218.4z"/>
		<path id="path19209" class="st1" d="M379.3,224.4l-0.1,6.2l8.2-0.1l0-3.4l-4,0.1l0.1-2.7h6.3l-0.1,8.6h-12.3l0.1-6.2l-7.2,0
			l-0.1,6.3l-2,0.1l-0.1-8.8L379.3,224.4"/>
		<path id="path19211" class="st5" d="M379.3,224.4l-0.1,6.2l8.2-0.1l0-3.4l-4,0.1l0.1-2.7h6.3l-0.1,8.6h-12.3l0.1-6.2l-7.2,0
			l-0.1,6.3l-2,0.1l-0.1-8.8L379.3,224.4z"/>
		<path id="path19213" class="st1" d="M367.4,221.1H399v-2.7h-31.6V221.1z"/>
		<path id="path19215" class="st5" d="M367.4,221.1H399v-2.7h-31.6V221.1z"/>
		<path id="path19217" class="st1" d="M373.3,233.5c0.7,0,1.3-0.6,1.3-1.3c0-0.7-0.6-1.3-1.3-1.3s-1.3,0.6-1.3,1.3
			C372.1,232.9,372.6,233.5,373.3,233.5"/>
		<path id="path19219" class="st5" d="M373.3,233.5c0.7,0,1.3-0.6,1.3-1.3c0-0.7-0.6-1.3-1.3-1.3s-1.3,0.6-1.3,1.3
			C372.1,232.9,372.6,233.5,373.3,233.5z"/>
		<path id="path19221" class="st1" d="M458.9,218.4l0.1,12.3h4l-0.2-12.3h2.8l-0.1,12h3.9v-12h2.7v14.9l-15.7-0.1l0-6.3l-6.5,0.1
			l0.1,3.5l2.7-0.1l0.1,2.7l-6,0.2l0.1-8.9l9.4-0.1v-6.1L458.9,218.4"/>
		<path id="path19223" class="st5" d="M458.9,218.4l0.1,12.3h4l-0.2-12.3h2.8l-0.1,12h3.9v-12h2.7v14.9l-15.7-0.1l0-6.3l-6.5,0.1
			l0.1,3.5l2.7-0.1l0.1,2.7l-6,0.2l0.1-8.9l9.4-0.1v-6.1L458.9,218.4z"/>
		<path id="path19225" class="st1" d="M432.9,224.4l-0.1,6.2l8.2-0.1l0-3.4l-4,0.1l0.1-2.7h6.3l-0.1,8.6h-12.3l0.1-6.2l-7.2,0
			l-0.1,6.3l-2,0.1l-0.1-8.8L432.9,224.4"/>
		<path id="path19227" class="st5" d="M432.9,224.4l-0.1,6.2l8.2-0.1l0-3.4l-4,0.1l0.1-2.7h6.3l-0.1,8.6h-12.3l0.1-6.2l-7.2,0
			l-0.1,6.3l-2,0.1l-0.1-8.8L432.9,224.4z"/>
		<path id="path19229" class="st1" d="M421.1,221.1h31.6v-2.7h-31.6V221.1z"/>
		<path id="path19231" class="st5" d="M421.1,221.1h31.6v-2.7h-31.6V221.1z"/>
		<path id="path19233" class="st1" d="M427,233.5c0.7,0,1.3-0.6,1.3-1.3s-0.6-1.3-1.3-1.3c-0.7,0-1.3,0.6-1.3,1.3
			S426.3,233.5,427,233.5"/>
		<path id="path19235" class="st5" d="M427,233.5c0.7,0,1.3-0.6,1.3-1.3s-0.6-1.3-1.3-1.3c-0.7,0-1.3,0.6-1.3,1.3
			S426.3,233.5,427,233.5z"/>
		<path id="path19237" class="st1" d="M513.5,218.3l0.1,12.3h4l-0.2-12.3h2.8l-0.1,12h3.9v-12h2.7v14.9l-15.7-0.1l0-6.3l-6.5,0.1
			l0.1,3.5l2.7-0.1l0.1,2.7l-6,0.2l0.1-8.9l9.4-0.1v-6.1L513.5,218.3"/>
		<path id="path19239" class="st5" d="M513.5,218.3l0.1,12.3h4l-0.2-12.3h2.8l-0.1,12h3.9v-12h2.7v14.9l-15.7-0.1l0-6.3l-6.5,0.1
			l0.1,3.5l2.7-0.1l0.1,2.7l-6,0.2l0.1-8.9l9.4-0.1v-6.1L513.5,218.3z"/>
		<path id="path19241" class="st1" d="M487.5,224.3l-0.1,6.2l8.2-0.1l0-3.4l-4,0.1l0.1-2.7h6.3l-0.1,8.6h-12.3l0.1-6.2l-7.2,0
			l-0.1,6.3l-2,0.1l-0.1-8.8L487.5,224.3"/>
		<path id="path19243" class="st5" d="M487.5,224.3l-0.1,6.2l8.2-0.1l0-3.4l-4,0.1l0.1-2.7h6.3l-0.1,8.6h-12.3l0.1-6.2l-7.2,0
			l-0.1,6.3l-2,0.1l-0.1-8.8L487.5,224.3z"/>
		<path id="path19245" class="st1" d="M475.7,221h31.6v-2.7h-31.6V221z"/>
		<path id="path19247" class="st5" d="M475.7,221h31.6v-2.7h-31.6V221z"/>
		<path id="path19249" class="st1" d="M481.6,233.4c0.7,0,1.3-0.6,1.3-1.3s-0.6-1.3-1.3-1.3s-1.3,0.6-1.3,1.3
			S480.9,233.4,481.6,233.4"/>
		<path id="path19251" class="st5" d="M481.6,233.4c0.7,0,1.3-0.6,1.3-1.3s-0.6-1.3-1.3-1.3s-1.3,0.6-1.3,1.3
			S480.9,233.4,481.6,233.4z"/>
	</g>
</g>
<g id="g2509" transform="matrix(0.80782316,0,0,0.80782316,-15.470129,-13.253349)">
	<path id="path19265" class="st0" d="M79.1,440.6l-0.1,22l-7.8,0v-0.9c4-0.8,6.5-1.9,6.5-8.5c0-2.1-0.1-2.8-1.8-2.8l-9,0
		c-0.1,4.8,2.6,5.4,5.8,6l0,1l-13.1,0v-1c3.2-0.4,6-1,6-5.9l-9,0c-2.6,0-2.6,1.5-2.8,4.3h-1l0.1-14l1,0c0.2,2.2,0.3,3.4,2.7,3.4
		l18.8,0.1c2.6,0,2.6-1.6,2.8-3.4L79.1,440.6"/>
	<path id="path19267" class="st0" d="M65.7,492.4c-8.1,0-13.7-5.8-13.7-13.8c0-7.9,5.7-13.7,13.8-13.7c8.4,0,13.7,6.3,13.7,13.8
		C79.5,486.2,74.1,492.4,65.7,492.4z M65.8,471.8c-3.4,0-12.5,0.2-12.5,6.8c0,6.6,9.1,6.9,12.5,6.9c5.6,0,12.5-1.4,12.5-6.8
		C78.3,473.3,71.4,471.9,65.8,471.8"/>
	<path id="path19269" class="st0" d="M65.6,522.6c-8.1,0-13.7-5.8-13.7-13.8c0-7.9,5.7-13.7,13.8-13.7c8.4,0,13.7,6.3,13.7,13.8
		C79.4,516.4,74,522.6,65.6,522.6z M65.7,502c-3.4,0-12.5,0.2-12.5,6.8s9.1,6.9,12.5,6.9c5.7,0,12.5-1.4,12.5-6.8
		C78.1,503.5,71.3,502,65.7,502"/>
	<path id="path19271" class="st0" d="M52.5,543.7l0.1-13.8h1c0.2,2.8,0.3,3.8,3.6,3.8l20.4,0.1c-0.1-2.7-0.3-6.7-6.5-7.5v-1.1
		l7.8,0.2l-0.1,23.2l-7.8,0l0-1.1c6.2-0.7,6.4-4.7,6.6-7.4L57,540c-3.3,0-3.4,0.9-3.6,3.8L52.5,543.7"/>
	<path id="path19273" class="st0" d="M53.4,550.3c0.2,2.2,0.4,3.4,2.7,3.4l18.8,0.1c2.6,0,2.6-1.6,2.8-3.4h1l0,12
		c0,2.2-0.2,10.1-6.2,10.1c-4.3,0-5.3-4.4-5.8-6h-0.1c-0.6,3.3-2.5,7.3-6.9,7.3c-3.3,0-7-2.7-7.2-10.9l0-12.5H53.4z M56,560
		c-1.7,0-2.4,0.7-2.4,2.3c0,4.3,3.4,4.8,5.8,4.8c5.5,0,6.1-3.4,6.3-5.9V560L56,560z M66.9,560c0,5.2,1.6,6,5.6,6.1c2.7,0,5-0.8,5-4
		c0-2-1-2-1.9-2.1L66.9,560"/>
	<path id="path19275" class="st0" d="M52.3,602.3l0-12.6l1,0c0.2,2.4,0.2,3.1,1.5,3.1c1,0,3.9-1.2,5.2-1.8l0-8.7
		c-2.8-1.1-4.4-1.7-5-1.7c-1.5,0-1.6,1.9-1.7,3.2h-1l0-7.9h1c0.3,2.1,1.6,2.6,4.5,3.8l21.2,8.7v1.1l-20.4,8.6
		c-4.1,1.7-5.5,2.3-5.4,4.2L52.3,602.3z M61.5,590.5l9.4-3.9l-9.4-3.7L61.5,590.5"/>
	<path id="path19277" class="st0" d="M52.2,626.6l0.1-22.4h1c0.3,2.2,0.4,3.3,2.7,3.4l18.8,0.1c2.6,0,2.6-1.6,2.8-3.3h1l0,13.5h-1
		c-0.1-2.7-0.1-3.9-3.5-3.9l-18.3-0.1c-1.9,0-2.2,0.8-2.2,3.4c0,5.8,3.2,8,7.6,9.8v1.1L52.2,626.6"/>
	<path id="path19279" class="st0" d="M55.5,655.5l-3.6-22.1l0.9-0.2c0.6,2.1,0.9,3.2,3.3,2.8l18.5-3.1c2.5-0.4,2.3-2,2.2-3.7
		l0.9-0.1l2.2,13.3l-1,0.2c-0.6-2.7-0.8-3.8-4.1-3.3l-18,3c-1.8,0.3-2,1.2-1.6,3.8c0.9,5.8,4.5,7.4,9.1,8.4l0.2,1.1L55.5,655.5"/>
	<path id="path19281" class="st0" d="M84.1,663.6l6.1,21.1l-7.5,2.2l-0.3-0.9c3.6-1.9,5.7-3.6,3.8-10c-0.6-2-0.9-2.6-2.5-2.2
		l-8.6,2.5c1.3,4.6,4.1,4.4,7.2,4.1l0.3,0.9L70,684.9l-0.3-0.9c2.9-1.3,5.5-2.7,4.1-7.4l-8.7,2.5c-2.4,0.7-2.1,2.2-1.5,4.9l-0.9,0.3
		l-3.9-13.4l0.9-0.3c0.8,2.1,1.3,3.2,3.6,2.5l18-5.2c2.4-0.7,2.1-2.3,1.7-4L84.1,663.6"/>
	<path id="path19283" class="st0" d="M89.8,683.9l8.1,20.8l-7.3,2.8l-0.3-0.9c4.8-2.8,4.7-5.7,2.8-10.6c-0.8-2-1.2-2.6-2.7-2
		l-8.4,3.3c1.3,3.5,3,5,7.7,3.8L90,702l-12.2,4.7l-0.4-0.9c4.3-2.2,4.7-4.5,3.3-8l-8.7,3.4c-1.6,0.6-1.8,1.5-0.8,3.8
		c1.4,3.5,3.7,6.9,10.1,7l0.4,1l-8.1,1.5l-8.2-21.1l0.9-0.4c1,2,1.6,3.1,3.8,2.2l17.5-6.8c2.4-0.9,1.9-2.5,1.3-4.2L89.8,683.9"/>
	<path id="path19285" class="st0" d="M75.7,717.4c1.2,2.1,2.5,2.3,3.8,1.6l16.8-9.1c2.1-1.1,1.3-2.7,0.7-4.1l0.9-0.5l5.6,10.4
		c5.2,9.5,0.9,15.9-4.3,18.7c-6.3,3.4-13.6,2.6-18.5-5.8l-5.8-10.8L75.7,717.4z M82.5,724.5c-1.4,0.7-1.8,1.4-0.9,3
		c2.1,3.8,5.9,5.6,14,1.2c3.1-1.7,9.9-6.4,6.8-12.3c-1.2-2.2-2-1.7-2.7-1.2L82.5,724.5"/>
	<path id="path19287" class="st0" d="M109.5,727.4l14,17.4l-6.1,4.9l-0.6-0.7c3.7-4.1,2.8-6.9-0.5-11c-1.3-1.7-1.9-2.1-3.2-1.1
		l-7,5.6c2.3,2.9,4.3,3.8,8.4,1.3l0.6,0.8l-10.2,8.2l-0.6-0.8c3.5-3.4,3.2-5.7,0.7-8.6l-7.3,5.9c-1.3,1.1-1.2,1.9,0.4,3.9
		c2.4,3,5.6,5.4,11.7,3.6l0.7,0.8l-7.3,3.8l-14.2-17.7l0.8-0.6c1.6,1.6,2.4,2.4,4.3,0.9l14.6-11.7c2-1.6,1-2.9,0-4.4L109.5,727.4"/>
	<path id="path19289" class="st0" d="M126.6,782.5l-5.9-5.3l2.1-14.4l-0.8-0.7l-5.1,5.7c-2.1,2.3-1.5,3,0.2,4.9l-0.6,0.7l-9.8-8.7
		l0.6-0.7c2.2,1.5,2.8,2,4.9-0.4l11.4-12.8c2.2-2.5,1.4-3.3-0.2-4.9l0.6-0.7l9.3,8.3c2,1.8,7.9,7.5,3.6,12.3c-3.2,3.6-6.9,1.8-9,0.9
		l-1.5,13.4c-0.1,0.9,0.4,1.3,0.7,1.6L126.6,782.5z M122.8,761.2c3.8,3.4,5.9,4.1,9.2,0.3c2.6-2.9,2.5-5.2,0.2-7.3
		c-1.6-1.4-1.9-1.2-2.9-0.4L122.8,761.2"/>
	<path id="path19291" class="st0" d="M148.4,798.4l-10.1-7.4l0.6-0.8c2.1,1.3,2.6,1.6,3.4,0.6c0.6-0.8,1.3-3.9,1.6-5.2l-7-5.1
		c-2.5,1.6-4,2.5-4.3,3c-0.9,1.2,0.6,2.4,1.6,3.2l-0.6,0.8l-6.4-4.6l0.6-0.8c1.9,1,3.1,0.2,5.7-1.4l19.5-12.1l0.9,0.6l-5,21.5
		c-1,4.4-1.3,5.8,0.2,6.9L148.4,798.4z M144.2,784.1l2.4-9.9l-8.5,5.4L144.2,784.1"/>
	<path id="path19293" class="st0" d="M166.7,809.2l-12-6.9l0.5-0.8c2.6,1.2,3.4,1.6,5-1.2l10.2-17.7c-2.4-1.2-6-3.1-9.7,1.9l-1-0.6
		l4-6.7l20.1,11.6l-3.8,6.8l-1-0.6c2.4-5.8-0.9-7.9-3.2-9.4l-10.2,17.7c-1.6,2.8-0.9,3.4,1.5,5L166.7,809.2"/>
	<path id="path19295" class="st0" d="M184.7,817.9l-12.3-5.8l0.4-0.9c2,0.7,3.4,1.2,4.4-1l8-17c1.1-2.3-0.5-3.2-2.1-4l0.4-0.9
		l12.3,5.8l-0.4,0.9c-1.7-0.7-3.4-1.5-4.5,0.9l-8,17c-1.1,2.2,0.3,3,2.2,4.1L184.7,817.9"/>
	<path id="path19297" class="st0" d="M216.6,816c-2.7,7.7-10.1,11-17.6,8.3c-7.5-2.7-11-9.9-8.3-17.6c2.8-7.9,10.5-10.8,17.5-8.3
		S219.5,808,216.6,816z M197.3,809c-1.1,3.2-4,11.8,2.2,14c6.2,2.2,9.5-6.3,10.7-9.4c1.9-5.3,2.9-12.2-2.2-14
		C202.8,797.8,199.2,803.7,197.3,809"/>
	<path id="path19299" class="st0" d="M214.8,827.9c2.3,0.2,3.4,0.2,4-2.3l4-17.9c-1.5-3.1-2.1-3.3-2.6-3.4l0.2-0.9l8,1.8l9.5,19.1
		l0.1,0l2.6-11.5c0.5-2.3,0.3-3.6-2.7-4.5l0.2-0.9l8.1,1.8l-0.2,0.9c-2.8-0.3-3.2,0.6-3.6,2.4l-5,22.3l-1.1-0.2l-12.2-24.3l-0.1,0
		l-3.4,15.1c-0.6,2.7,0,3.6,2.8,4.5l-0.2,0.9l-8.6-1.9L214.8,827.9"/>
	<path id="path19301" class="st0" d="M267.5,837.7l-13.5-1.3l0.1-1c2.1,0,3.6,0,3.8-2.4l1.8-18.7c0.2-2.5-1.6-2.8-3.3-3.1l0.1-1
		l13.5,1.3l-0.1,1c-1.8-0.1-3.7-0.2-3.9,2.4l-1.8,18.7c-0.2,2.5,1.3,2.7,3.4,3.1L267.5,837.7"/>
	<path id="path19303" class="st0" d="M287.6,820c-0.6-2.7-2.8-7.3-7.4-7.4c-2-0.1-4.2,1-4.2,3.6c-0.1,2.1,0.6,3,3.9,4.7l5.6,3
		c1.3,0.7,4.2,3,4.1,7.2c-0.1,3.4-2.7,8-9.8,7.8c-3.7-0.1-5.4-1.5-6.6-1.5c-0.8,0-1,0.7-1.2,1.3l-1.1,0l0.3-9.6l1.1,0
		c0.7,3.9,2.8,8.4,7.7,8.5c4.7,0.1,5-3.7,5-4.2c0.1-2.6-1.7-3.6-4.2-4.9l-2.6-1.3c-6.5-3.4-6.4-6.7-6.4-8.5c0.1-2.4,1.4-7.6,8.8-7.4
		c3.1,0.1,4.9,1.4,6,1.4c0.9,0,1.1-0.5,1.3-1.3l1.2,0l-0.2,8.4L287.6,820"/>
	<path id="path19305" class="st0" d="M316.3,836.3l-22.3,2.2l-0.1-1c2.1-0.5,3.3-0.7,3.1-3.1l-1.8-18.7c-0.2-2.6-1.8-2.5-3.6-2.4
		l-0.1-1l13.5-1.3l0.1,1c-2.7,0.4-3.9,0.5-3.6,3.9l1.7,18.2c0.2,1.8,1.1,2.1,3.6,1.8c5.8-0.6,7.7-4,9-8.5l1.1-0.1L316.3,836.3"/>
	<path id="path19307" class="st0" d="M345.6,830.6l-12.3,2.6l-0.2-0.9c2.3-0.7,3-0.9,2.7-2.1c-0.2-1-2-3.6-2.8-4.7l-8.5,1.8
		c-0.5,2.9-0.8,4.6-0.7,5.2c0.3,1.4,2.1,1.2,3.4,1l0.2,0.9l-7.7,1.6l-0.2-0.9c2-0.7,2.2-2.1,2.8-5.2l4.1-22.5l1.1-0.2l12.6,18.2
		c2.6,3.7,3.4,4.9,5.2,4.4L345.6,830.6z M332.2,824l-5.8-8.4l-1.6,10L332.2,824"/>
	<path id="path19309" class="st0" d="M381.5,818.9l-12.2,4.1l-0.3-0.9c2.1-1,3.2-1.4,2.3-3.9l-6.3-18.5l-0.1,0l-1.7,25.3l-1,0.3
		l-16.5-18.5l-0.1,0l5.8,17.1c0.9,2.6,1.8,3.2,4.9,2.4l0.3,0.9l-8.6,2.9l-0.3-0.9c2.8-1.2,3.1-1.9,2.4-4.1l-5.9-17.4
		c-0.6-1.9-1.5-2.2-4.1-1.5l-0.3-0.9l9.3-3.1l13.2,14.9l1.5-19.8l9.2-3.1l0.3,0.9c-2,0.8-3.2,1.3-2.1,4.5l5.5,16.2
		c1,2.9,1.8,2.8,4.4,2.3L381.5,818.9"/>
	<path id="path19311" class="st0" d="M395.4,812.2l-12.4,5.5l-0.4-0.9c1.8-1,3.1-1.8,2.2-4l-7.7-17.1c-1-2.3-2.7-1.7-4.4-1l-0.4-0.9
		l12.4-5.6l0.4,0.9c-1.6,0.8-3.3,1.6-2.2,4l7.7,17.1c1,2.3,2.5,1.7,4.5,1L395.4,812.2"/>
	<path id="path19313" class="st0" d="M417.1,795c-0.9,4.2-2.4,7.8-6.7,10.2c-7.9,4.4-15.3,1.2-18.8-5.2c-3.8-6.9-1.9-14.9,5.3-18.8
		c3-1.7,6.6-1.5,7.5-2c0.9-0.5,0.8-1.4,0.7-2.4l0.9-0.5l4.4,7.9l-0.9,0.5c-2.8-2.3-7.8-4.7-11.7-2.5c-5,2.7-3.4,8.6-0.2,14.4
		c1.1,2,3.1,5.2,5.6,6.7c2.8,1.7,5.7,0.7,6.8,0.1c2.6-1.5,4.6-3.9,5.7-8.6L417.1,795"/>
	<path id="path19315" class="st0" d="M451.7,775.1l-6.2,5l-13.8-4.5l-0.8,0.7l4.7,5.9c1.9,2.4,2.7,2,4.9,0.6l0.6,0.8l-10.2,8.2
		l-0.6-0.7c1.9-1.9,2.4-2.5,0.4-4.9L420,772.7c-2.1-2.6-3.1-1.9-4.9-0.7l-0.6-0.8l9.7-7.8c2.1-1.7,8.7-6.6,12.8-1.5
		c3,3.7,0.6,7.1-0.6,9l13,3.8c0.9,0.2,1.3-0.1,1.7-0.4L451.7,775.1z M430.1,775.3c3.9-3.2,5-5.1,1.8-9c-2.4-3.1-4.7-3.4-7.1-1.4
		c-1.7,1.3-1.5,1.7-0.9,2.8L430.1,775.3"/>
	<path id="path19317" class="st0" d="M434.7,755.2l15.3-16.3l5.7,5.3L455,745c-4.6-3.1-7.2-1.8-10.8,2c-1.5,1.5-1.8,2.2-0.6,3.3
		l6.5,6.2c2.6-2.7,3.2-4.8,0.1-8.5l0.7-0.7l9.5,9l-0.7,0.7c-3.8-3-6-2.3-8.7,0.4l6.8,6.4c1.2,1.2,2.1,0.9,3.8-0.9
		c2.6-2.8,4.6-6.3,2-12.1l0.7-0.8l4.8,6.7l-15.5,16.5l-0.7-0.7c1.3-1.8,2.1-2.7,0.3-4.4l-13.6-12.8c-1.9-1.8-3-0.6-4.3,0.6
		L434.7,755.2"/>
	<path id="path19319" class="st0" d="M472.1,751.6c0.8-1.8,0.8-1.8,0.8-2.2c0-0.6-0.2-1.3-2-2.5l-14.3-9.4c-2.7-1.8-3.5-0.8-4.8,0.8
		l-0.8-0.5l6.9-10.4c1.7-2.6,6.1-8.2,11.5-4.6c1.1,0.7,3.2,2.6,3,6.2c-0.2,2.8-1.3,4.5-4,8.8l6,4c2.6,1.7,3.1,1.1,4.9-0.9l0.8,0.5
		l-7.1,10.8L472.1,751.6z M467.2,737c2.6-3.9,2.7-5.9-1.3-8.6c-3.7-2.4-5.7-2.1-7.4,0.6c-0.7,1.1-0.6,1.8,0.1,2.3L467.2,737"/>
	<path id="path19323" class="st0" d="M498.2,703.7c0.5-2.1,0.7-3.4-1.5-4.1l-17.8-6c-2.4-0.8-3,0.7-3.7,2.4l-0.9-0.3l3.8-11.3
		c0.7-2.1,3.4-9.5,9.1-7.6c4.1,1.4,3.6,5.8,3.6,7.5l0.1,0c1.6-2.9,4.7-6.1,8.9-4.7c3.1,1,5.8,4.8,3.3,12.6l-4,11.8L498.2,703.7z
		 M498.8,693.7c1.7,0.6,2.5,0.1,3-1.5c1.4-4-1.7-5.6-4-6.4c-5.2-1.8-6.9,1.3-7.8,3.6l-0.4,1.1L498.8,693.7z M488.5,690.3
		c1.7-4.9,0.4-6.2-3.4-7.5c-2.6-0.9-5-0.8-6,2.2c-0.6,1.9,0.3,2.2,1.1,2.5L488.5,690.3"/>
	<path id="path19325" class="st0" d="M512.8,656.7l-5.2,21.8l-0.9-0.2c0.2-2.2,0.4-3.3-1.9-3.9l-18.2-4.4c-2.5-0.6-2.9,0.9-3.5,2.6
		l-0.9-0.2l3.2-13.1l0.9,0.2c-0.5,2.7-0.8,3.8,2.6,4.6l17.8,4.3c1.8,0.4,2.3-0.3,2.9-2.8c1.4-5.7-1.3-8.6-5.1-11.3l0.3-1.1
		L512.8,656.7"/>
	<path id="path19327" class="st0" d="M515.8,639.4l-2.3,13.4l-1-0.2c0.2-2.1,0.3-3.6-2.1-4l-18.5-3.1c-2.5-0.4-2.9,1.3-3.3,3.1
		l-1-0.2L490,635l1,0.2c-0.2,1.8-0.5,3.6,2.1,4.1l18.5,3.2c2.4,0.4,2.8-1.1,3.3-3.2L515.8,639.4"/>
	<path id="path19329" class="st0" d="M512.3,609.6c3.2,2.8,5.6,5.9,5.6,10.8c0,9-6.4,13.9-13.7,13.8c-7.9,0-13.9-5.6-13.8-13.8
		c0-3.5,1.9-6.5,1.9-7.5c0-1-0.8-1.4-1.8-1.8v-1l9.1,0v1c-3.4,1.3-7.9,4.6-7.9,9c0,5.6,5.9,7.2,12.4,7.2c2.3,0,6-0.2,8.5-1.6
		c2.8-1.6,3.4-4.7,3.4-5.9c0-3-1.1-5.9-4.7-9.2L512.3,609.6"/>
	<path id="path19331" class="st0" d="M504.4,568.9c8.1,0,13.7,5.8,13.7,13.8c0,7.9-5.7,13.7-13.8,13.6c-8.4,0-13.7-6.3-13.7-13.8
		C490.6,575.1,496,568.9,504.4,568.9z M504.3,589.5c3.4,0,12.5-0.2,12.5-6.8c0-6.6-9.1-6.9-12.4-6.9c-5.7,0-12.5,1.4-12.5,6.8
		C491.9,588,498.7,589.5,504.3,589.5"/>
	<path id="path19333" class="st0" d="M491.3,566.9l0.1-22l7.8,0v0.9c-4,0.8-6.5,1.9-6.5,8.5c0,2.1,0.1,2.8,1.8,2.8l9,0
		c0.1-4.8-2.6-5.4-5.7-6v-1l13.1,0.1l0,1c-3.2,0.4-6,1-6,5.9l9,0c2.6,0,2.6-1.5,2.8-4.3l1,0l-0.1,13.9l-1,0
		c-0.2-2.2-0.3-3.4-2.7-3.4l-18.8-0.1c-2.6,0-2.6,1.6-2.8,3.4L491.3,566.9"/>
	<path id="path19335" class="st0" d="M517.7,516.6l-0.1,13.6h-1c-0.2-2.1-0.3-3.6-2.7-3.6l-18.7-0.1c-2.6,0-2.6,1.8-2.8,3.6l-1,0
		l0.1-13.6l1,0c0.1,1.8,0.1,3.7,2.7,3.7l18.8,0.1c2.5,0,2.6-1.5,2.8-3.7L517.7,516.6"/>
	<path id="path19337" class="st0" d="M517.8,488.2l0,7.9l-12.2,8v1l7.6,0c3.1,0,3.2-0.8,3.6-3.4l1,0l-0.1,13.1l-1,0
		c-0.3-2.6-0.4-3.4-3.6-3.4l-17.1-0.1c-3.3,0-3.4,1.2-3.6,3.4h-1l0.1-12.5c0-2.7,0.4-10.9,6.9-10.9c4.8,0,5.9,4,6.6,6.1l11.1-7.7
		c0.7-0.5,0.7-1.1,0.7-1.6L517.8,488.2z M504.4,505.2c0-5.1-0.9-7.1-5.9-7.1c-3.9,0-5.6,1.6-5.6,4.7c0,2.1,0.4,2.2,1.6,2.4
		L504.4,505.2"/>
	<path id="path19339" class="st0" d="M517.9,461.2l-0.1,12.6h-1c-0.2-2.4-0.2-3.1-1.5-3.1c-1,0-3.9,1.2-5.2,1.8l0,8.7
		c2.8,1.1,4.4,1.7,5,1.7c1.5,0,1.6-1.9,1.7-3.2h1l0,7.9h-1c-0.3-2.1-1.6-2.6-4.5-3.8l-21.2-8.7V474l20.4-8.6
		c4.2-1.7,5.5-2.3,5.4-4.2L517.9,461.2z M508.7,473l-9.4,3.9l9.4,3.7L508.7,473"/>
	<path id="path19341" class="st0" d="M517,459.3c-0.3-2.3-0.5-3.4-3.1-3.4l-18.4-0.1c-2.7,2.2-2.8,2.8-2.8,3.3h-1l0-8.2l16.6-13.4
		v-0.1l-11.8-0.1c-2.3,0-3.6,0.4-3.8,3.6l-1,0l0-8.3h1c0.3,2.8,1.2,3,3.1,3l22.8,0.1v1.1l-21.1,17.2v0.1l15.5,0.1
		c2.8,0,3.5-0.8,3.9-3.7h1l0,8.8L517,459.3"/>
</g>
<g id="g2526" transform="matrix(0.80782316,0,0,0.80782316,-15.470129,-13.253349)">
	<path id="path19321" class="st0" d="M475.3,695.9c-0.6,2.1-0.6,3,1.7,4.1l11.2,5.3c2.1,1,5,2.9,5.8,5.1c1.1,2.6,0.3,6-0.7,8.1
		c-0.7,1.5-2.5,4.7-5.6,6.1c-2.1,0.9-3.7,1.2-7.5-0.6l-11.7-5.5c-2.9-1.4-3.4-0.5-4.6,1.4l-0.9-0.4l5.6-11.9l0.9,0.4
		c-1,2.4-1.5,3.5,1.6,4.9l11.7,5.5c2,0.9,6.8,3.2,9.2-1.8c2.9-6.2-2.4-8.8-4.7-9.8l-10.7-5c-2.1-1-3.5-1.1-5.1,1.8l-0.9-0.4l3.6-7.7
		L475.3,695.9"/>
	<path id="path19343" class="st6" d="M140.4,703.9l15.6,7.7l11.7,3.1l5.9,6.5l15.4,12.2l16,9.9l14.9,7.5l12.4,7l10.6,15.8l0.9,2.9
		l-4.5-0.9l-19.6-6.3l-35.9-21.5L165.9,734L153,721.8l-10-11.8L140.4,703.9"/>
	<path id="path19345" class="st6" d="M354.5,747l14.2-8l19.6-13.3l11.3-12.9l7.4-9.7l14-3.9l10.6-3.8v3.4l-13.1,15.4l-10.4,11.3
		l-11.5,10l-11.8,8.8l-11.7,7.4l-9.9,5.4l-14,6.8l-10,4.1l0.2-5.2L354.5,747"/>
	<path id="path19347" class="st7" d="M173.1,648.5c0,0-1.4,57,39.6,78.6c39.3,20.7,73.2,0.5,73.2,0.5L235,755.4l-6.7-0.3l-11-5.9
		l-27.4-15.1l-18.8-16.4l-2.4-4.9l-0.7-31.6L173.1,648.5"/>
	<path id="path19349" class="st7" d="M290.4,727.7c0,0,29.3,16.1,61.9,5.6c32-10.2,53.3-30.4,53.3-30.4l-6.5,10.5l-14.3,14.3
		l-15.1,10.2l-15.3,9.2l-37.9-4.6l-26.6-13.7L290.4,727.7"/>
	<path id="path19351" class="st7" d="M326.1,550.7c0,0,23.9,48.8,32.8,58.1c18.1,18.8,45.9,28.9,45.9,28.9l-6.8-1.1l-15.6-4.5
		l-19.2-5.2l-14-5l-4.1-17l-7.5-22.6l-12.2-31.4L326.1,550.7"/>
	<path id="path19353" class="st7" d="M145.6,500.5L135.1,514l-11.8,23.2l-6.5,19.6l-4,19.6l-3.2,22.6l0.5,17l1.1,19.1l0.8,3l3.2-5.9
		l10.5-19.4l5.6-10.8c0,0-8.1-0.8-11-19.4c-3-18.6,5.7-37.1,7.3-42.5S145.6,500.5,145.6,500.5"/>
	<path id="path19355" class="st7" d="M132.7,602.3c0,0,21.3,29,33.6,30.4c23.4,2.7,57.9-5.1,57.9-5.1l-11.3,5.3l-24.8,9.5l-14,5.1
		l-3.4-0.3l-9.9-7.5l-5.7-5.1c0,0-10.4-11.9-13.2-15.6c-2.8-3.8-8.1-13.3-8.1-13.3L132.7,602.3"/>
	<path id="path19357" class="st7" d="M213.3,509.3c0,0,6.5-0.5,15.2,8.8c3.8,4,14.2,20.2,24.2,24.9c7.3,3.4,28.9,0.5,35,0.4
		c18.3-0.2,33.5,0.9,36.3,3.6c2.9,2.7,0.9,3.5,0.9,3.5l-12.9-0.3l-16.5-0.7l-19.4,0.7l-14.5,0.7l-8.4,1.1l-6.1,1.4l-10.4-11.5
		l-7-8.4l-9-12.7L213.3,509.3"/>
	<path id="path19359" class="st8" d="M214,448.3c0,0-25.3,8.3-38.7,18.6c-13.5,10.2-27.9,28-27.9,28s1,19.6,10.2,22.8
		c9.2,3.2,40.9-6.5,40.9-6.5l14.9-3.2l14.7-24.5l11.6-12.9l15.1-10.8L214,448.3"/>
	<path id="path19361" class="st8" d="M313.1,458.1l14.1-5l21.1-2.2c0,0,22.6,4.9,35.9,14.8c13.3,9.9,20.2,16.8,20.2,16.8l4.5,17.4
		l1.7,11.4l-0.4,9.4l-11.7-7.8l-41.2-9.2l-28.7-31.5L313.1,458.1"/>
	<path id="path19363" class="st8" d="M435.3,596.3l3.6-9.1l9.4,11l7.5,13.2l5.9,12.1c0,0,0,17.8-7.3,36.1s-19.4,33.8-19.4,33.8
		l-19.1,2.5l-10.2-56.5l20.7-26.9L435.3,596.3"/>
	<path id="path19365" class="st8" d="M247.4,553.8l13.2-2.7L288,549l20.2,1.1h16.1l6.2,15.6l9.2,24.2l5.1,16.4l2.7,16L320,642.1
		l-33.9,14.8l-33.9-11.6L231.5,631l-5.4-3.2l5.4-34.7L247.4,553.8"/>
	<path id="path19367" class="st8" d="M133.1,604.3l-0.9-2.6l-11.6,20.9l-8.2,16.1l-0.7,3.5l8.9,26.9l14.3,25.6l25.3,16.1l8.6,3.2
		l-0.5-13.7l-0.2-18.1l1.1-12.9l1.8-11.2l2.2-9.7l-11.8-8.1l-12.9-12.6l-12-17.9L133.1,604.3"/>
	<path id="path19369" class="st0" d="M229.6,755c-4.2-0.5-8-3.7-11.6-5.5c-12.8-6.4-26.3-13.8-36.7-22.5c-2.5-2.1-6.9-5.9-6.9-5.9
		s-3.8-3.7-4.6-5.6c-1.1-2.7-1.4-6.4-1.4-8c0-13.3-0.8-23,0.8-36.7c0.8-6.8,4.7-22.8,4.7-22.8l26.7-9.5c0,0,20.3-9.1,24.9-8.9
		c2.4,0.1,17.5,14.3,20.9,16.6c10.6,7.1,22.9,14,34.5,19.6c1.9,0.9,6.2,1.3,7.2,3c3.7,6.4,1.1,52.4-1.7,57.9
		C285,729.5,236.3,755.7,229.6,755L229.6,755z M460.3,581.8c-1.1-6.7-4.6-22.6-4.9-22.6c-1.9-10-11.7-30.3-12.1-30.9
		c-0.1-0.2-4-6.3-4.5-7.2c-0.2-0.3-7.8-11.4-10.9-15.8c-2.1-3-10.2-11.8-11.7-13.3c-4.2-4.3-11.7-9.4-11.7-9.4s2.5,10.8,3,12.8
		c1.7,7.5,2.6,15.7,2.6,24.7c-4.5-3.5-8.4-8.2-14-10.6c-12.9-5.5-28.5-4-39.6-11.1c-10.1-6.4-15.9-17.8-23.4-26.8
		c-4.7-5.5-12.7-9.1-19.2-12.8c5.1-1.6,9.9-4,15.3-5.1c6.3-1.3,13.5-1.2,19.6-2.6c-4.3-1.6-8.5-2.8-12.6-4.4
		c-3.1-1.3-6.5-2.7-9.6-3.6c-14.2-4.2-29.7-7.8-48.1-7.2c-20,0.6-39.4,3.4-54.9,9.4c-3.7,1.4-7.4,2.5-11.1,3.8l-2.1,0.7
		c14,1,31.5,6.8,43.4,11.2c-18.5,8.6-31.9,28.8-40.4,47.3c-5.9-0.2-14.2,0-20.4,1.3c-8.9,1.9-25.4,11.6-35.8,4.3
		c-5-3.5-7-13.2-9.8-18.7c-7.9,13-18.3,25.1-24.3,40c-12.8,31.8-18,69-11.9,108.2c2.6,17.1,4.1,24.9,10.3,37.8
		c3.3,6.9,8.1,12.9,12.7,18.4c6,7.1,10.8,14.8,17,21.7c11.6,13,26.9,24.3,42.2,33.6c10.4,6.3,21.3,13.9,33.6,18.3
		c23.7,8.4,60,12,87.7,5.1c6.2-1.6,13.3-4.6,18.7-6.8c11.3-4.7,17.3-7.1,27.9-12c5-2.3,12.3-6.5,16.8-9.3
		c16.6-10.2,29.8-21.8,42.2-36.2c5.3-6.2,11.6-12.3,14.9-20.4c-2,0.2-4.6,0.5-7.1,0.9c-3.1,0.5-6.1,0.9-8.2-0.1
		c-5-2.3-11.7-48.2-13.2-55.4c9.2-10,18.7-22.5,26-35.8c2.3-4.3,6.7-15.4,6.7-15.4s13.7,18.2,17.6,26.9c1.7,3.9,3.8,7.2,5.1,9.8
		C463.7,612.9,462.5,595.8,460.3,581.8L460.3,581.8z M118.8,658c-1.5-4.1-6.7-11.5-6.4-16.2c0.1-1.1,2.1-3.6,2.6-4.7
		c5.2-12.4,11.5-22.6,17.5-34.1c9.5,19,22.3,34.8,40,45.6c-0.7,4.7-1.8,9-2.6,13.2c-2.8,15.9-2.4,34.5-1.7,51.9
		c-4.1-3.3-8.2-7.1-12.8-9.8c-5.6-3.4-12-5.9-16.6-10.2C129.6,685.2,123.6,670.7,118.8,658L118.8,658z M229.5,772.1
		c-0.6-0.3-6.2-2.3-9.4-3.4c-1.6-0.6-6.4-3.4-7.7-3.8c-1.6-0.6-6.3-3.3-7.8-4.5c-0.3-0.3-10-6.4-10.2-6.2c-1.2-0.6-6.1-4.1-7.1-4.7
		c-7-4.2-9.6-7.1-16.6-12.2c-3.1-2.3-8.9-7.8-11-9.4c-6.3-5.2-16-15.6-18.9-22.1c4.7,2.3,12.4,6.4,17,8.1c2.9,1.1,9.6,2,9.6,2
		s4.5,4.6,6.6,6.5c5.7,5.4,13.3,11.1,20,15.3c8.2,5.2,17.2,10.2,26.4,14.1c2.9,1.2,4.7,2.7,7.3,4.4c2.6,1.7,4.3,3.9,5.9,6.7
		c2.4,4.1,5.1,8.2,7.7,12.3C238.1,774.4,233.1,773.6,229.5,772.1L229.5,772.1z M247.9,456.1c-5.5-1.9-12.8-3.6-18.8-5.1
		c-3.9-1-9-1.9-10-2.1c1.8-0.5,4-1.6,5.5-2.1c15.2-5.1,32.7-8.4,51.7-9c11.4-0.4,23,1,34.8,3.4c10.2,2.1,20.4,6.1,29.6,9.4
		c-1.6,0.1-3,0-5.5,0.4c-7.9,1.4-14.3,3.6-21.9,5.8c-3.5,1-8.4,0-11.3-0.3c-8.4-0.6-19.7-1-27.3-0.4c-7.4,0.5-17.6,2.5-19.6,2.5
		C253.1,458.8,249.2,456.6,247.9,456.1z M221.4,496.6c7.9-12.2,13.1-20.6,26-29.4c2.1-1.5,3.8-4,6.4-5.1c6-2.6,13.2-2.8,18.3-3.4
		c7.8-1,34-0.6,39.2,1.7c4.7,2.1,13.1,13.9,16.6,18.3c2.6,3.3,21,30.2,20.9,32.8c-0.3,4.5-9.7,16.9-12.3,20.9
		c-1.8,2.8-9.4,15.8-11.6,16.5c-5.7,1.9-20.7,0.1-26.6,0c-16.2-0.5-34.3,0.5-50.4,4.3c-4.1-5.7-9.2-9.8-14-15.7
		c-0.9-1.1-19.9-28-19.9-28S220,498.7,221.4,496.6L221.4,496.6z M347.4,622.3c-17.5,9.1-38.3,28.7-59.6,31.9c-6.6,1-13.7-1.4-18.8-3
		c-12.6-4.1-29.9-15.2-40.4-22.5l-1.3-0.4c-4.5-11.4,17.9-72.3,20.4-73.7c4.3-2.4,23.4-3.4,29.8-3.8c15.5-1.2,31.9,0.4,46.8,0.4
		C332.8,573.7,343.9,595.9,347.4,622.3L347.4,622.3z M153.2,530.7c0,0,7.3-5,9.3-5.9c10.8-4.6,20.8-7.8,33.2-11.1
		c3.7-1,16.9-4,16.9-4s8.8,12.6,10.8,15.7c6.5,10.1,14.9,19,22.4,28.2c-5.9,13.6-11.7,27.1-15.3,42.3c-1.6,6.8-4.1,14.2-4.6,21.3
		c-0.2,2.8-1.1,6.5-2,9.2c-0.1,0.2-0.4,0.6-0.6,0.8c-0.8,0.5-0.9,0.8-1.1,0.9c-2.7,2-49.7,19-50.7,18.7c-1.1-0.3-5.8-4-7.2-5.1
		c-0.4-0.3-8.5-7.2-8.5-7.2c-0.2-0.4-12-13.3-13.2-15.3c-2.2-3.8-4.4-6.6-6.6-10.4c-1.3-2.3-2.9-5.1-3.2-7.5
		c-0.4-3.1,1.9-12.3,2.1-13.6c0.1-0.7,2.3-12.9,6.1-25.3c3.9-13.2,9.2-26.7,9.8-27.5C150.6,534.8,153.2,530.7,153.2,530.7
		L153.2,530.7z M110.5,621c-0.6-7.5-0.5-14.1,0.2-21.7c1.2-13.5,2.2-27.3,6.7-42.9c1.1-3.9,5.7-17.7,6.1-18.6
		c3-7.5,15-27.7,17.1-29.7c0.4-0.4,1.8-2.4,1.7-2.6c1-1.5,2.7-3.3,4.3-4.3c0.6,3.4,1.3,9.7,2.1,15.3c0.5,3.8,3.4,13.2,3.4,13.2
		s-6.5,14.2-7.8,18.6c-3.8,12.5-7.8,24.2-10.2,38.1c-1.3,7.2-1.4,14-4.1,18.7c-6.2,10.7-13.3,21.5-17.5,33.6
		C112.1,632,111,626.2,110.5,621L110.5,621z M404.9,703.9c-0.4,1.2-2.9,5-6.3,9.2c-4.4,5.4-10.2,11.4-13.3,14
		c-5.4,4.6-21.1,14.5-29.5,18.8c2.1-0.8-2.6,2.9-1,2c6.6-3.7,23.7-13.6,31.9-21c4.8-4.3,12.1-12.2,15.3-16.6c1.3-1.8,3.4-5,5.2-6.2
		c4-2.6,16.5-3.9,20.7-5.2c0.7-0.2,2.3-0.4,2.3-0.4s-3.8,5.7-4,6c-24.2,31.3-52,49.3-87.7,63.9c3.5-3.4,8.8-9.4,12.4-14
		c1.2-1.7,3.3-5.8,4-6.4c0.9-0.9,2.1-1.8,3.4-2.5c-1.3,0.5-2.7,0.2-4,0.4c-9.4,1.7-24.2-2.1-35.8-4.7c-3.3-0.7-6.8-2.8-10.7-3.8
		c0.1-0.3-11.6-6.2-17-8.9c0-0.3-0.9-0.9-1.1-1.6c-0.9-3.5,1.4-12.1,1.6-14c0.9-7,0.7-11.2,0.7-19.2c0,0.1-0.2-15.8-0.4-18
		c-0.2-2.3-0.6-5.8-0.9-7.7c4.8-2.5,9.7-4.5,13.6-7.2c1.9-1.3,8-5.2,8.5-5.5c0.1-0.1,22-18.1,22-18.1c5.5-4.3,14.2-13.9,14.2-13.9
		s9.3,3,14.5,4.7c12.3,4,26.9,7.3,41.3,11.5C407.6,657.5,409.4,690,404.9,703.9L404.9,703.9z M438.1,586.4c0,0-2.2,7.7-3.1,9.5
		c-5.6,10.2-10.3,18.9-16.5,27.2c-2.2,3-13,14.8-13,14.8s-15.2-3.7-21.5-5.7c-2.7-0.9-6.7-1.6-10.8-2.9c-2.7-0.8-24-7.3-24-7.3
		s-2-10.8-3.5-16.7c-2-8-6.2-17.6-9.4-26.4c-1-2.8-10.1-26.2-10.2-26.2c0,0,0,0.4,0.4-1.9c0.3-2.1,13.3-19.7,14-20.9
		c3.9-6.1,7.6-12,10.2-17.5c3.9,0,8.7-0.4,11.9-0.4c17.7,0,34.9,3.5,46,10.7c1.5,0.9,2.9,2.9,3.8,4.4c6.7,10.8,11.9,19.9,17,33
		C431.7,565.4,438.1,586.4,438.1,586.4L438.1,586.4z M461.2,619.6c-3.9-9.6-18.8-29.5-19.1-30c-0.8-1.3-2.6-3.5-2.6-3.5
		s-1.9-6.5-4.2-13.6c-2.6-7.8-5.9-16.4-6.6-18.2c-0.9-2.2-7.2-15.7-10.9-21.7c-2-3.1-6.2-9.8-6.2-9.8s-0.6-14-1.1-17
		c-1.2-7.2-2.1-10.8-3.5-17.4c0.6,0.3-0.7-2.6-0.2-2.3c1.6,1.1,6.2,5.5,7.8,6.8c0.8,0.7,13,14.7,21.5,27.6
		c7.1,10.9,11.1,21.3,11.3,21.5c0,0,2.4,5.1,3.1,7.2c9.5,25.8,10.6,61.2,10.6,61.2S461.7,616.5,461.2,619.6"/>
</g>
</svg>
