<?xml version="1.0" encoding="utf-8"?>
<!-- Generator: Adobe Illustrator 26.0.2, SVG Export Plug-In . SVG Version: 6.00 Build 0)  -->
<svg version="1.1"
	 id="Livello_1" xmlns:cc="http://creativecommons.org/ns#" xmlns:dc="http://purl.org/dc/elements/1.1/" xmlns:rdf="http://www.w3.org/1999/02/22-rdf-syntax-ns#"
	 xmlns="http://www.w3.org/2000/svg" xmlns:xlink="http://www.w3.org/1999/xlink" x="0px" y="0px" width="4880.8px" height="8192px"
	 viewBox="0 0 4880.8 8192" style="enable-background:new 0 0 4880.8 8192;" xml:space="preserve">
<style type="text/css">
	.st0{fill:#C8B67F;}
	.st1{fill:#0064AA;}
	.st2{fill:#009C3D;}
	.st3{fill:#FFFFFF;}
	.st4{fill:#E30521;}
</style>
<g>
	<polygon class="st0" points="1795.8,26.7 1674.7,258.4 1651,261.9 1532,279.4 1386.4,301.3 1376.3,302.8 1386.7,312.6 
		1532.8,453.7 1593.4,512.5 1544.1,809.5 1653.3,751.2 1798.5,673.5 1809,668.1 1809.4,668.1 1917.8,724.6 2063.8,800.4 2077,807.3 
		2063.4,731.1 2024.8,510.6 2062.4,473.2 2181,356.4 2239.2,299 2180.7,290.8 2061.7,273.9 1941.2,257.3 1915.6,206.2 1806.5,5.9 
		1806.1,5.3 	"/>
	<polygon class="st0" points="3019.7,21.4 2898.6,253.1 2874.9,256.5 2755.7,274.1 2610.3,295.9 2600.2,297.5 2610.3,307.2 
		2756.7,448.4 2817.3,506.9 2767.8,804.2 2877,745.9 3022.4,668.2 3032.9,662.8 3033.3,662.8 3141.8,719.3 3287.7,795 3300.9,801.9 
		3287.5,725.8 3248.7,505.2 3286.4,467.9 3404.9,351 3463.1,293.6 3404.6,285.4 3285.6,268.6 3165.1,251.9 3139.4,200.8 3030.4,0.6 
		3030.1,0 	"/>
	<polygon class="st0" points="651.9,287.6 531,537 507.3,540.5 388.3,558.3 242.8,579.9 232.6,581.4 242.9,591.2 389.1,732.5 
		449.8,791.1 400.4,1088.1 509.6,1030 654.8,952.4 665.3,946.8 665.7,947 774.2,1003.2 920.1,1079 933.3,1085.9 919.7,1009.9 
		881.1,789.2 918.8,751.8 1037.4,635 1095.6,577.8 1037,569.4 918,552.7 797.3,536.1 771.9,484.8 662.9,267 662.5,266.2 	"/>
	<polygon class="st0" points="4165.6,272.3 4044.5,521.7 4021,525.2 3901.8,543 3756.4,564.6 3746.3,566.1 3756.4,575.8 
		3902.8,717.2 3963.4,775.7 3913.9,1072.8 4023.1,1014.7 4168.5,937 4179,931.4 4179.4,931.7 4287.9,987.9 4433.8,1063.7 
		4447,1070.6 4433.5,994.4 4394.6,773.9 4432.3,736.5 4551.1,619.7 4609.2,562.3 4550.7,554.1 4431.5,537.4 4311,520.5 
		4285.6,469.5 4176.3,251.6 4175.9,250.8 	"/>
	<g>
		<path class="st1" d="M2453.3,8023.9C4472.6,7219.5,4727.8,6136,4723.6,5280.4c5.2-230.1-22.6-2481.6-65.4-3571.2
			c-973.5-35.6-1781.5-277.4-2234.5-502.4c-488.4,249.8-1314.5,511.1-2230.1,525.3c-33.5,1090.2-41.7,3338.2-34.6,3566.1
			C162.4,6155.3,426.9,7236.3,2453.3,8023.9"/>
		<path class="st0" d="M4811.7,1629.9l-3.1-73.3l-73.3-1.9c-1006.6-25.6-1835.8-277.9-2276.2-505.6l-36.3-18.7l-36.2,19.1
			c-476,252-1317.1,522.5-2249.4,526.5l-95.1,0.2l-2.7,75.5C4,2710.7-4.9,5069,2.5,5301c5.2,1350.2,752.6,2238.3,2423.1,2880.1
			l28.5,10.9l28.3-11.3c1664.8-655.6,2404.3-1550.2,2397.9-2898.8C4885.6,5047.7,4856.1,2689.3,4811.7,1629.9 M193.5,1732
			c915.5-14.1,1741.9-275.3,2230.3-525.3c452.8,225,1260.8,466.7,2234.3,502.4c42.9,1089.6,70.6,3341.1,65.4,3571.4
			c4.2,855.5-251,1938.9-2270.3,2743.3C426.9,7236.3,162.3,6155.3,158.9,5298.1C151.8,5070.3,160.1,2822.2,193.5,1732"/>
		<g>
			<path class="st2" d="M1530.1,3531.6c-0.2-34.8,1.7-69.1,5.2-102.9c-325.8,42.1-649.8,106.4-971,192.8
				c-3.4,570.1-4,1111.2-1.2,1681.1c2.9,537.7,131.2,947.3,399.2,1293.9c197,253.9,477.3,486.4,845.5,695.7l-13.6-3104.4
				C1632.1,4019.6,1531.3,3788,1530.1,3531.6"/>
			<path class="st3" d="M2438,4462.5c-251.4,1.2-479-104.1-643.7-274.7l13.6,3104.5c190.7,108.4,404.6,210.6,643.5,306.1
				c237.9-97.3,450.9-201.2,640.6-311.2l-13.6-3104.1C2915.4,4354.6,2688.9,4461.4,2438,4462.5"/>
			<path class="st4" d="M3337.4,3523.8c1.2,256.7-98,489.5-259,659.2l13.6,3104.1c366.4-212.3,644.8-447.4,839.6-703.2
				c265-348.9,389.6-759.8,387.8-1297.5c-1.9-570.1-7.3-1111.4-15.5-1681.5c-321.9-83.6-646.6-144.8-972.3-184.2
				C3335.2,3454.5,3337.3,3488.9,3337.4,3523.8"/>
		</g>
		<g>
			<path class="st0" d="M3248.6,3122.7c352,35,702.6,93.9,1050,176.8c-0.8-54-1.7-107.9-2.7-161.8
				c-379.2-88.4-761.9-148.6-1146.2-181.3C3188,3007.9,3221.2,3063.6,3248.6,3122.7"/>
			<path class="st0" d="M1614.9,3131.3c26.8-59.5,59.5-115.5,97.2-167.6c-383.7,36.7-765.9,101.2-1144.1,193.4
				c-0.4,54.1-0.8,107.9-1.2,161.8C913.2,3232.7,1263.3,3169.9,1614.9,3131.3"/>
			<g>
				<path class="st0" d="M2240.8,4247.9c64.7,23.4,135.2,35,209.4,34.6c126.6-0.6,253.9-37.1,357.9-102.9
					c131-82.8,211-186.3,259.6-276.6c-98.5,124.1-248.5,219.4-423.7,220.2c-104.3,0.4-206.4-32.5-303.4-98
					c-203.2-136.6-334.2-353.7-358.7-589.4c-86.5,107.5-120.3,260.5-89,413.2C1931.7,4036.7,2058.5,4182.1,2240.8,4247.9"/>
				<path class="st0" d="M2065.9,3174.8c117.1-63.3,239.9-95.6,365.2-96.2c104.8-0.4,207.9,21.8,301.7,65.1
					c-62.2-184-247.3-316.2-452.4-315.4c-124.4,0.6-243.5,49.8-344.5,141.8c-142.1,130.7-231.7,347.8-228,553.2
					c2.7,155.7,45.1,277.4,93.2,366.1c-35.9-105.4-45.1-221.1-23.9-329.8C1800.3,3443,1868.9,3281.8,2065.9,3174.8"/>
				<path class="st0" d="M2797.4,2848.1c-111.5-64.8-234.9-98.9-357-98.3c-1.9,0-3.8,0-5.7,0c121.1,20.3,236.2,79.2,319.7,166.1
					c107.5,111.9,160.3,262.1,152.6,434.4c-11.3,253.6-125.9,482.3-309.3,622.7c149.8,29.5,319.1-37.9,428.1-169.7
					c105.6-127.4,145.6-294.8,113-471.4C3102,3136.8,2968.2,2946.9,2797.4,2848.1"/>
				<polygon class="st0" points="2118.9,3622.6 2118.5,3514.3 2216,3513.7 2215.9,3463.6 2118.1,3464 2117.9,3407.4 2238.4,3406.8 
					2238.2,3356.7 2064.7,3357.5 2065.9,3622.8 				"/>
				<polygon class="st0" points="2337.5,3356.3 2284.5,3356.5 2285.7,3621.8 2338.7,3621.6 				"/>
				<path class="st0" d="M2526.8,3354l-87.4,0.4c-30.8,0.2-52.2,21.6-52,52.6l0.8,163.6c0.2,31,21.6,52.2,52.4,52.2l87.4-0.4
					c31-0.2,52.2-21.6,52.2-52.6l-0.4-84.9l-86.5,0.4l0.2,48l33.3-0.2l0.2,26.6c0,8.4-4,12.6-12.6,12.6l-60.6,0.2
					c-8.4,0-12.6-4-12.6-12.4l-0.6-142.9c0-8.6,4-12.6,12.4-12.6l60.8-0.4c8.4,0,12.4,4,12.6,12.6v24.3l53.2-0.4l-0.2-34.4
					C2579.2,3375.2,2557.8,3353.8,2526.8,3354"/>
				<path class="st0" d="M2765,3353l-84,0.4c-31,0.2-52.2,21.6-52.2,52.6l0.8,163.6c0.2,31,21.6,52.2,52.6,52l84-0.2
					c31-0.2,52.2-21.6,52.2-52.6l-0.2-33.8l-53.2,0.2l0.2,23.5c0,8.4-4,12.6-12.4,12.6l-57.6,0.2c-8.4,0-12.6-4-12.6-12.4L2682,3416
					c0-8.4,4-12.4,12.4-12.4l57.6-0.4c8.4,0,12.4,4,12.6,12.6v22.2l53.2-0.4l-0.2-32.3C2817.4,3374.2,2795.8,3352.8,2765,3353"/>
			</g>
			<g>
				<path class="st0" d="M573.7,2075.2l-4,0.9l3.4,787.3l6.5-1.6c47.3-11.5,94.7-22.7,142.3-33.5l4-0.9l-3.4-787.3l-6.3,1.3
					C668.5,2052.4,621.1,2063.5,573.7,2075.2"/>
				<path class="st0" d="M987.6,1985.2l-4.2,0.8l0.6,145l6.1-1.2c58.9-11.1,120.1-22,181.7-32.1l2.7,636.6
					c51.5-9.2,103.1-17.6,154.6-25.6l-2.7-634.9c62-9,124-17.2,184.2-24.5l4.6-0.6l-0.6-144.8l-5.9,0.6
					C1334.6,1925.6,1159.4,1952.7,987.6,1985.2"/>
				<path class="st0" d="M1943.3,2639.1l-0.8-157.4c72.3-5.2,145.8-9.2,218.1-12.3l0.8,157.2c52-2.1,104.1-3.7,155.9-4.6l-2.7-624.9
					c-0.4-87-62.6-146.5-149.6-143.3c-76.9,3.3-155.1,7.5-232.6,13c-87.2,6.1-147.9,71.6-147.5,159l2.7,626.1
					C1839.4,2646.9,1891.2,2642.7,1943.3,2639.1 M1940.6,2042.4c0-20.3,9-30,29.5-31.4c52.2-3.4,106-6.3,159.5-8.8h2.7
					c18.6-0.2,26.4,8,26.4,27.6l1.3,292.7c-72.5,3.1-145.9,7.3-218.1,12.3L1940.6,2042.4z"/>
				<path class="st0" d="M2763.8,1852.6c-48.6-1.7-97.2-3.1-145.8-4h-5.4l3.4,773.6c150.1,3.1,300.5,10.9,450.7,23.4l-0.6-136
					l-4.8-0.4c-96-7.1-193.6-12.4-289.8-16.1l-2.9-640.2L2763.8,1852.6z"/>
				<path class="st0" d="M3348.4,1897l-5.8-0.6l3.4,777.4c51.6,6.3,103.5,13.2,155.1,20.5l-3.4-779l-4.4-0.8
					C3447.3,1908.7,3399.9,1902.8,3348.4,1897"/>
				<path class="st0" d="M3911.5,1981c-47.6-9-89.4,2.3-115.9,31.4c-20.9,22.4-31.7,53.7-31.6,91.1l2.9,633.5
					c51.3,9.2,102.7,18.9,154.2,29.3l-0.8-168.7c72.3,13.6,144.4,28.1,214.4,43.2l0.8,171.8c51.1,11.9,102.2,24.3,153,37.1
					l-2.9-643.1c-0.4-87-60.1-160.9-145.2-179.4C4064.2,2010.5,3987.1,1995,3911.5,1981 M4134.2,2493.7
					c-70.8-15.3-142.9-29.8-214.7-43.2l-1.2-293.4c-0.2-20.9,9.2-23.7,18.2-23.7c2.9,0,5.9,0.4,9.4,0.9c54,10.3,106.9,21,157.2,31.8
					c20.5,4.4,29.7,15.7,29.7,36.3L4134.2,2493.7z"/>
			</g>
		</g>
	</g>
</g>
</svg>
