<?xml version="1.0" encoding="utf-8"?>
<!-- Generator: Adobe Illustrator 26.0.2, SVG Export Plug-In . SVG Version: 6.00 Build 0)  -->
<svg version="1.1"
	 id="svg8" xmlns:cc="http://creativecommons.org/ns#" xmlns:dc="http://purl.org/dc/elements/1.1/" xmlns:inkscape="http://www.inkscape.org/namespaces/inkscape" xmlns:rdf="http://www.w3.org/1999/02/22-rdf-syntax-ns#" xmlns:sodipodi="http://sodipodi.sourceforge.net/DTD/sodipodi-0.dtd" xmlns:svg="http://www.w3.org/2000/svg"
	 xmlns="http://www.w3.org/2000/svg" xmlns:xlink="http://www.w3.org/1999/xlink" x="0px" y="0px" width="88.2px" height="116.6px"
	 viewBox="0 0 88.2 116.6" style="enable-background:new 0 0 88.2 116.6;" xml:space="preserve">
<style type="text/css">
	.st0{fill-rule:evenodd;clip-rule:evenodd;fill:#FFFFFF;}
	.st1{fill-rule:evenodd;clip-rule:evenodd;fill:#E30016;}
	.st2{fill-rule:evenodd;clip-rule:evenodd;fill:#0F0D04;}
	.st3{fill-rule:evenodd;clip-rule:evenodd;fill:#B09438;}
</style>
<sodipodi:namedview  bordercolor="#666666" borderopacity="1.0" fit-margin-bottom="0.1" fit-margin-left="0.1" fit-margin-right="0.1" fit-margin-top="0.1" id="base" inkscape:current-layer="layer1" inkscape:cx="98.306522" inkscape:cy="5.8763994" inkscape:document-units="mm" inkscape:pageopacity="0" inkscape:pageshadow="2" inkscape:window-height="1017" inkscape:window-maximized="1" inkscape:window-width="1920" inkscape:window-x="-8" inkscape:window-y="-8" inkscape:zoom="1.4" pagecolor="#00ffff" showgrid="false" units="px">
	</sodipodi:namedview>
<g id="layer1" transform="translate(-106.46008,-96.622865)" inkscape:groupmode="layer" inkscape:label="Layer 1">
	<g id="Layer1000" transform="matrix(0.26458333,0,0,0.26458333,37.170635,7.27453)">
		<g id="Layer1001">
			<path id="path4353" inkscape:connector-curvature="0" class="st0" d="M428.6,732.9c6.4-4.4,14.3-9.6,23.6-15
				c11.7-6.8,25.9-14.3,42.3-21.4c10.8-4.7,19.7-9.1,27.2-13.4c7.2-4.2,13-8.2,17.7-12.2c3.8-3.3,6.8-6.7,9.2-10.1
				c2.4-3.5,4.2-7,5.6-10.6c6.5-16.9,5.7-45.2,5.6-48l-0.1-195.8h-262l-0.1,195.8c-0.1,2.8-0.9,31.1,5.6,48
				c1.4,3.7,3.2,7.2,5.6,10.6c2.4,3.5,5.4,6.8,9.2,10.1c4.7,4,10.4,8.1,17.7,12.2c7.5,4.3,16.4,8.7,27.2,13.4
				c16.4,7.1,30.6,14.6,42.3,21.4C414.3,723.3,422.3,728.4,428.6,732.9L428.6,732.9z M408.9,436.1c-2.9,0-5.3,2.4-5.3,5.3
				c0,2.9,2.4,5.3,5.3,5.3c2.9,0,5.3-2.4,5.3-5.3C414.1,438.5,411.8,436.1,408.9,436.1z M417.4,437.9c0.1,0.2,0.2,4.7,0.2,4.7
				l12.2-5c0,0,0.4-0.6,0.1-0.9c-0.2-0.3-0.6-0.2-0.6-0.2L417.4,437.9z M408.9,438.9c-1.4,0-2.5,1.1-2.5,2.5c0,1.4,1.1,2.5,2.5,2.5
				c1.4,0,2.5-1.1,2.5-2.5C411.3,440,410.2,438.9,408.9,438.9z"/>
			<path id="path4355" inkscape:connector-curvature="0" class="st0" d="M507.8,727.9c-43.4,18.8-68.8,40.6-69.2,41
				c-3.1,3-7.4,6.3-10.8,9.1l-9.7-9.7c-2.8-2.3-13.7-11-31.3-21.4c-10.3-6.1-22.9-12.8-37.2-19c-12.3-5.3-22.5-10.4-31.2-15.5
				c-8.9-5.2-16.2-10.3-22.3-15.6c-6.5-5.6-11.6-11.4-15.8-17.4c-4.1-6-7.3-12.2-9.8-18.9c-3.2-8.4-5.2-18.2-6.4-27.4
				c-1.8-14.3-1.8-27.6-1.7-32.6V338.1H595v262.4c0.1,5.1,0.1,18.3-1.7,32.6c-1.2,9.3-3.2,19-6.4,27.4c-2.6,6.6-5.7,12.9-9.8,18.9
				c-4.2,6-9.3,11.8-15.8,17.4c-6.1,5.3-13.4,10.5-22.3,15.6C530.3,717.5,520,722.6,507.8,727.9z M428.6,766.9
				c0,0,28.5-24.5,76.7-45.4c48.2-20.9,65.4-38.6,74.3-61.6c8.9-23,7.4-59,7.4-59V345H270.3v255.8c0,0-1.5,36,7.4,59
				c8.9,23,26.1,40.7,74.3,61.6C400.2,742.4,428.6,766.9,428.6,766.9z"/>
			<path id="path4357" inkscape:connector-curvature="0" class="st0" d="M383.9,384.9h-8.2l3.4-8l0-0.1l3.2-7.7l0.1-0.3l2.9-6.8h0
				l1.1-2.7l0,0l0.2-0.4c0.3-0.5,0.9-1.4,2.4-1.4h9l-1.3,3l0.6,1.4h0l2.9,6.8l0.1,0.3l3.2,7.7l0,0.1l3.4,8h-8.2l-1.6-3.9h-11.6
				L383.9,384.9z M483.1,357.4h2.9h4.5l10.6,14.7V364v-5.7c0-0.5,0.4-0.9,0.9-0.9h2.9h4.5v20.8v5.7c0,0.5-0.4,0.9-0.9,0.9h-2.9h-4.5
				l-10.6-14.7v8.1v5.7c0,0.5-0.4,0.9-0.9,0.9h-2.9h-4.5V364v-5.7C482.2,357.9,482.6,357.5,483.1,357.4z M416,357.4h0.4h6.9h5.9h0.2
				v0c5.7,0.1,10.2,4.7,10.2,10.4c0,5.7-4.6,10.3-10.2,10.4h0l-0.2,0l-0.2,0h-5.7v6.5h-8.3v-26.5C415.1,357.9,415.5,357.4,416,357.4
				z M423.4,363.6v8.5h3.5h0.1h0.1h0c2.3,0,4.2-1.9,4.2-4.3c0-2.3-1.9-4.2-4.2-4.3l0,0h-0.1L423.4,363.6z M451.6,384.9h-8.2l3.4-8
				l0-0.1l3.2-7.7l0.1-0.3l2.9-6.8h0l1.1-2.7l0,0l0.2-0.4c0.3-0.5,0.9-1.4,2.4-1.4h9l-1.3,3l0.6,1.4h0l2.9,6.8l0.1,0.3l3.2,7.7
				l0,0.1l3.4,8h-8.2l-1.6-3.9h-11.6L451.6,384.9z M459,367.1l-0.7,1.6l-0.1,0.3l0,0l-2.6,6.3h6.8l-2.6-6.3l0,0l-0.1-0.3L459,367.1z
				 M366.6,381.2c-2,2.2-6.2,3.6-10.9,3.6c-3.3,0-6.4-0.7-8.6-1.9l2.6-6.3l0,0c1.7,0.8,3.8,1.5,6,1.5c5.1,0,4.8-3.9,4.8-3.9v-2.2
				v-8.3h-5.8l2.6-6.3h3.2h3.2h3.4c1,0,1.8,0.7,1.8,1.5v15.4C368.8,380,366.6,381.2,366.6,381.2L366.6,381.2z M391.3,367.1l-0.7,1.6
				l-0.1,0.3l0,0l-2.6,6.3h6.8l-2.6-6.3l0,0l-0.1-0.3L391.3,367.1z"/>
			<path id="path4359" inkscape:connector-curvature="0" class="st0" d="M408.9,436.1c-2.9,0-5.3,2.4-5.3,5.3c0,2.9,2.4,5.3,5.3,5.3
				c2.9,0,5.3-2.4,5.3-5.3C414.1,438.5,411.8,436.1,408.9,436.1z M417.4,437.9c0.1,0.2,0.2,4.7,0.2,4.7l12.2-5c0,0,0.4-0.6,0.1-0.9
				c-0.2-0.3-0.6-0.2-0.6-0.2L417.4,437.9z M408.9,438.9c-1.4,0-2.5,1.1-2.5,2.5c0,1.4,1.1,2.5,2.5,2.5c1.4,0,2.5-1.1,2.5-2.5
				C411.3,440,410.2,438.9,408.9,438.9z"/>
		</g>
		<g id="Layer1002">
			<path id="path4362" inkscape:connector-curvature="0" class="st1" d="M348.4,565.1c15.4,0,27.9,12.5,27.9,27.9
				s-12.5,27.9-27.9,27.9c-15.4,0-27.9-12.5-27.9-27.9S333,565.1,348.4,565.1L348.4,565.1z"/>
			<path id="path4364" inkscape:connector-curvature="0" class="st1" d="M388.8,414.3V432c4.6-2.5,9.5-5.3,11.2-6.3
				c3.5-2.1,6.1-0.6,6.1-0.6s6.9,4.7,7.8,5c0.9,0.3,2.4-0.8,2.8-2.3c0.4-1.5,1.9-0.7,1.9-0.7s3.5,2.7,4.3,3.5
				c0.8,0.8,1.8,0.8,1.8,0.8s22.7,0,23.5,0c0.8,0,1.6,0.7,1.6,0.7s4,2.1,5.9,3.7c1.9,1.5-0.8,2.7-0.8,2.7l-37,18.1
				c-7,3.2-2.6,9.2-2.6,9.2l17.5,18.7l24-37.9l7.3-11.5c0.8-1.1,2-2.7,3.9-4.3v-16.3H388.8z M422.2,627.2h-2.7h-8.9
				c-1.7,0-3.1,1.4-3.1,3.1v55.8h14.8v-20.7h13.6l4.2-12.3h-17.9v-12.4h11.3h1.9h9.4l4.7-13.6h-6.8h-4.5L422.2,627.2z M388.8,552.8
				v1.3h0.7L388.8,552.8z M388.8,571.6v37c1.6,0.5,3.1,0.4,3.1,0.4h7.1c1.9-3.7,4.9-9.3,6.7-12.5c2.9-5.1,0.6-9.1,0.6-9.1
				s-5.8-11.5-12.7-25.1v0l-4.6,9.4L388.8,571.6z M388.8,617.5v9.7h0.7c1.7,0,3.1,1.4,3.1,3.1v33.2c0,12.1-3.8,14.8-3.8,14.8v21.5
				l0.5,0.3c7.2,3.7,13.8,7.3,19.8,10.8c4.5,2.6,8.9,5.4,13.1,8.1c2.2,1.4,4.3,2.8,6.4,4.2c2.4-1.6,4.8-3.2,7.3-4.8
				c3.8-2.4,7.9-4.9,12.2-7.5c5.8-3.4,12.4-7,19.7-10.7v-22.4h-6.1l-2.9,8.3h-14.6l6-17.3l0.1-0.2L456,652l0.2-0.6l5.1-14.7h0l2-5.8
				l0,0l0.3-0.8c0.5-1.1,1.7-2.9,4.2-2.9v-9.7h-10.5V616h-20.9c0,0-3.1,0.2-4.9,2.7c-1.8,2.5,1.3-9.8,7.1-9.8h9.8l-20-38.6h-9.1
				l8,5.5l-8.9,4.5l11,6l-13.8,8.6l-6.7,14h9.8c5.8,0,8.9,12.3,7.1,9.8c-1.8-2.5-4.9-2.7-4.9-2.7H400v1.4L388.8,617.5z M467.8,608.8
				v-29.2l-8.3-9.2h-8.7l8,5.5l-8.9,4.5l11,6l-10.9,6.8L458,609h7.5C465.5,609,466.5,609.1,467.8,608.8L467.8,608.8z"/>
		</g>
		<g id="Layer1003">
			<path id="path4367" inkscape:connector-curvature="0" class="st2" d="M428.6,742.7c13.4-9.6,37.2-25,69.1-38.8
				c22.1-9.6,36.9-18.2,46.9-26.9c8.8-7.6,13.7-15.3,17-23.9c7.4-19.3,6.1-51.3,6.1-51.4l-0.1-0.8V398.3H289.6v202.5l-0.1,0.8
				c0,0.1-1.3,32.1,6.1,51.4c3.3,8.6,8.3,16.3,17,23.9c10,8.7,24.8,17.3,46.9,26.9C391.4,717.6,415.2,733,428.6,742.7L428.6,742.7z
				 M383.9,384.9h-8.2l3.4-8l0-0.1l3.2-7.7l0.1-0.3l2.9-6.8h0l1.1-2.7l0,0l0.2-0.4c0.3-0.5,0.9-1.4,2.4-1.4h9l-1.3,3l0.6,1.4h0
				l2.9,6.8l0.1,0.3l3.2,7.7l0,0.1l3.4,8h-8.2l-1.6-3.9h-11.6L383.9,384.9z M483.1,357.4h2.9h4.5l10.6,14.7V364v-5.7
				c0-0.5,0.4-0.9,0.9-0.9h2.9h4.5v20.8v5.7c0,0.5-0.4,0.9-0.9,0.9h-2.9h-4.5l-10.6-14.7v8.1v5.7c0,0.5-0.4,0.9-0.9,0.9h-2.9h-4.5
				V364v-5.7C482.2,357.9,482.6,357.5,483.1,357.4z M416,357.4h0.4h6.9h5.9h0.2v0c5.7,0.1,10.2,4.7,10.2,10.4
				c0,5.7-4.6,10.3-10.2,10.4h0l-0.2,0l-0.2,0h-5.7v6.5h-8.3v-26.5C415.1,357.9,415.5,357.4,416,357.4z M423.4,363.6v8.5h3.5h0.1
				h0.1h0c2.3,0,4.2-1.9,4.2-4.3c0-2.3-1.9-4.2-4.2-4.3l0,0h-0.1L423.4,363.6z M451.6,384.9h-8.2l3.4-8l0-0.1l3.2-7.7l0.1-0.3
				l2.9-6.8h0l1.1-2.7l0,0l0.2-0.4c0.3-0.5,0.9-1.4,2.4-1.4h9l-1.3,3l0.6,1.4h0l2.9,6.8l0.1,0.3l3.2,7.7l0,0.1l3.4,8h-8.2l-1.6-3.9
				h-11.6L451.6,384.9z M459,367.1l-0.7,1.6l-0.1,0.3l0,0l-2.6,6.3h6.8l-2.6-6.3l0,0l-0.1-0.3L459,367.1z M366.6,381.2
				c-2,2.2-6.2,3.6-10.9,3.6c-3.3,0-6.4-0.7-8.6-1.9l2.6-6.3l0,0c1.7,0.8,3.8,1.5,6,1.5c5.1,0,4.8-3.9,4.8-3.9v-2.2v-8.3h-5.8
				l2.6-6.3h3.2h3.2h3.4c1,0,1.8,0.7,1.8,1.5v15.4C368.8,380,366.6,381.2,366.6,381.2L366.6,381.2z M391.3,367.1l-0.7,1.6l-0.1,0.3
				l0,0l-2.6,6.3h6.8l-2.6-6.3l0,0l-0.1-0.3L391.3,367.1z M428.6,766.9c0,0,28.5-24.5,76.7-45.4c48.2-20.9,65.4-38.6,74.3-61.6
				c8.9-23,7.4-59,7.4-59V345H270.3v255.8c0,0-1.5,36,7.4,59c8.9,23,26.1,40.7,74.3,61.6C400.2,742.4,428.6,766.9,428.6,766.9z"/>
			<path id="path4369" inkscape:connector-curvature="0" class="st2" d="M555.7,424.2H499H486c-13.2,0-19.9,7.7-22.1,10.8l-7.3,11.5
				l-24,37.9l-17.5-18.7c0,0-4.4-6,2.6-9.2l37-18.1c0,0,2.7-1.1,0.8-2.7c-1.9-1.6-5.9-3.7-5.9-3.7s-0.8-0.7-1.6-0.7s-23.5,0-23.5,0
				s-1,0-1.8-0.8c-0.8-0.8-4.3-3.5-4.3-3.5s-1.5-0.8-1.9,0.7c-0.4,1.5-1.9,2.6-2.8,2.3c-0.9-0.3-7.8-5-7.8-5s-2.6-1.4-6.1,0.6
				c-3.5,2.1-20.4,11.4-20.4,11.4s-3.4,2-3.4,7.4c0,5.4,0,50.4,0,50.4l-5,17c0,0-1.6,3.9,0.5,7.6c1,1.8,9.4,18.3,17.7,34.6h-37.9
				l-5.1-4.1h-1.8v5.1h-8.8l-5.1,10.3c5.1-3.2,11.1-5.1,17.6-5.1c16.6,0,30.2,12.3,32.4,28.3l0,0l4.4-8.9v0l0,0
				c0-0.1,0.9-3.1-0.3-4.3c-1.2-1.2-12.3-13.4-12.3-13.4h7.4l9.1,9.8l4.6-9.4v0c6.9,13.6,12.7,25.1,12.7,25.1s2.3,4-0.6,9.1
				c-1.8,3.2-4.8,8.7-6.7,12.5h-7.1c0,0-4.7,0.2-6.5-2.8v5h-8.7c0,0-6.2,0-5.9,9.7c0,0,3.2-3.4,6.4-3.4s22.9,0,22.9,0V616h20.9
				c0,0,3.1,0.2,4.9,2.7c1.8,2.5-1.3-9.8-7.1-9.8h-9.8l6.7-14l13.8-8.6l-11-6l8.9-4.5l-8-5.5h9.1l20,38.6h-9.8
				c-5.8,0-8.9,12.3-7.1,9.8c1.8-2.5,4.9-2.7,4.9-2.7h20.9v1.4c0,0,19.7,0,22.9,0c3.2,0,6.4,3.4,6.4,3.4c0.3-9.7-5.9-9.7-5.9-9.7
				H472v-5c-1.8,3.1-6.5,2.8-6.5,2.8H458l-8.1-15.8l10.9-6.8l-11-6l8.9-4.5l-8-5.5h8.7l24.7,27.3h10.2l-34.8-38.5h7.9l34.8,38.5
				h10.6l-44.8-49.5h7.9l44.8,49.5h13.4l-52.8-58.3h26.2l-17.1-17.1h-24.6l-5.5-6.1h27l12.7-17.1h-48.3l3.9-6.1h49l12.7-17.1h-50.9
				l3.9-6.1h51.6l12.7-17.1h-53.5l3.9-6.1h54.2L555.7,424.2z M408.9,436.1c-2.9,0-5.3,2.4-5.3,5.3c0,2.9,2.4,5.3,5.3,5.3
				c2.9,0,5.3-2.4,5.3-5.3C414.1,438.5,411.8,436.1,408.9,436.1z M417.4,437.9c0.1,0.2,0.2,4.7,0.2,4.7l12.2-5c0,0,0.4-0.6,0.1-0.9
				c-0.2-0.3-0.6-0.2-0.6-0.2L417.4,437.9z M408.9,438.9c-1.4,0-2.5,1.1-2.5,2.5c0,1.4,1.1,2.5,2.5,2.5c1.4,0,2.5-1.1,2.5-2.5
				C411.3,440,410.2,438.9,408.9,438.9z"/>
			<path id="path4371" inkscape:connector-curvature="0" class="st2" d="M388.8,678.3c-3.6,4.6-11,7.8-19.5,7.8
				c-5.9,0-11.3-1.6-15.3-4.1l4.6-13.5v0c3.1,1.8,6.8,3.3,10.7,3.3c9.1,0,8.5-8.4,8.5-8.4v-4.8v-17.9h-10.4l4.7-13.6h5.7h5.7h6
				c1.7,0,3.1,1.4,3.1,3.1v33.2C392.6,675.6,388.8,678.3,388.8,678.3L388.8,678.3z M458.8,686.2h-14.6l6-17.3l0.1-0.2L456,652
				l0.2-0.6l5.1-14.7h0l2-5.8l0,0l0.3-0.8c0.5-1.1,1.7-2.9,4.2-2.9h16.1l-2.3,6.5l1,3h0l5.1,14.7l0.2,0.6l5.8,16.7l0.1,0.2l6,17.3
				h-14.6l-2.9-8.3h-20.6L458.8,686.2z M472,648l-1.2,3.4l-0.2,0.6h0l-4.7,13.5h12.1l-4.7-13.5h0l-0.2-0.6L472,648z M422.2,627.2
				h-2.7h-8.9c-1.7,0-3.1,1.4-3.1,3.1v55.8h14.8v-20.7h13.6l4.2-12.3h-17.9v-12.4h11.3h1.9h9.4l4.7-13.6h-6.8h-4.5L422.2,627.2z"/>
		</g>
		<path id="path4374" inkscape:connector-curvature="0" class="st3" d="M428.6,732.9c6.4-4.4,14.3-9.6,23.6-15
			c11.7-6.8,25.9-14.3,42.3-21.4c10.8-4.7,19.7-9.1,27.2-13.4c7.2-4.2,13-8.2,17.7-12.2c3.8-3.3,6.8-6.7,9.2-10.1
			c2.4-3.5,4.2-7,5.6-10.6c6.5-16.9,5.7-45.2,5.6-48l-0.1-195.8h-262l-0.1,195.8c-0.1,2.8-0.9,31.1,5.6,48c1.4,3.7,3.2,7.2,5.6,10.6
			c2.4,3.5,5.4,6.8,9.2,10.1c4.7,4,10.4,8.1,17.7,12.2c7.5,4.3,16.4,8.7,27.2,13.4c16.4,7.1,30.6,14.6,42.3,21.4
			C414.3,723.3,422.3,728.4,428.6,732.9L428.6,732.9z M567.8,601.7l0,2.2c0,0,0.1,1.6,0.1,4.1c0,10.4-0.8,31-6.2,45
			c-3.3,8.6-8.3,16.3-17,23.9c-10,8.7-24.8,17.3-46.9,26.9c-31.8,13.8-55.6,29.2-69.1,38.8c-13.4-9.6-37.2-25-69.1-38.8
			c-22.1-9.6-36.9-18.2-46.9-26.9c-8.8-7.6-13.7-15.3-17-23.9c-5.4-14-6.2-34.6-6.2-45c0-2.6,0.1-4.1,0.1-4.1l0-2.2l0-0.1l0.1-0.8
			V398.3h139.1h139.1v202.5l0.1,0.8L567.8,601.7z"/>
	</g>
</g>
</svg>
