<?xml version="1.0" encoding="utf-8"?>
<!-- Generator: Adobe Illustrator 26.0.2, SVG Export Plug-In . SVG Version: 6.00 Build 0)  -->
<svg version="1.1" id="Calque_1" xmlns="http://www.w3.org/2000/svg" xmlns:xlink="http://www.w3.org/1999/xlink" x="0px" y="0px"
	 width="546px" height="546px" viewBox="0 0 546 546" style="enable-background:new 0 0 546 546;" xml:space="preserve">
<style type="text/css">
	.st0{fill:#00A0C6;}
	.st1{fill:#FFFF00;}
	.st2{fill:#FFFFFF;}
</style>
<g>
	<circle class="st0" cx="273" cy="272.8" r="272.2"/>
	<path class="st1" d="M518.8,281.7c-4.6-5-15.4,0.1-15.4,0.1s-2.9,27.4-3.2,29.3c-0.3,1.9,1.4,3.7,5.2,3.9c3.9,0.2,5.9-1,5.9-3.4
		c0-2.4-1.3-4.1-0.8-7.1c0.6-3.2,2.9-4.2,4.5-5c-3.4-0.5-6.1,0-6.9,2.4c-0.8,2.4,0.9,5.2,0.6,7.3c-3.1-1.9-6.5-0.8-6.5,1.8
		c0,2.4,3.8,2.7,3.9,1.8c0.1-1.1-1.4-0.5-0.9-1.6c0.3-0.8,3.1-0.3,3.1,1.1s-1.7,1.8-2.9,1.8c-1.9-0.1-4.3-1.2-4.3-3
		c0-2.2,17.5-22.3,17.5-22.3S522,285.1,518.8,281.7z M514.3,288.8c0,0-4.9,8.5-12.8,16.8c1.4-4.4,2.3-8.1,3.1-11.5
		c0.4-1.9,4.2-2,4.3,0.1c2-0.4,1.4-2.4-0.1-3.4c-1.5-1-3.5-0.5-3.5-0.5c0.2-1.2,0.4-2.3,0.5-3.2c0.1-0.8,4.5-0.6,4.3,1.9
		c2.3-1,2.5-2.7,1.4-3.7c-1.8-1.7-5.4-1.1-5.4-1.1c0.1-0.7,0.1-1.1,0.1-1.1c0.3-1.6,6.4-3.1,8.9,0
		C516.8,285.1,514.3,288.8,514.3,288.8z"/>
	<path class="st1" d="M486.8,285.8c0,0,12.8,22.4,12.4,24.5c-0.3,1.7-2.9,2.2-4.7,1.9c-1.2-0.2-2.7-1-2.5-2.3
		c0.3-1.3,3.1-1.2,3.2-0.4c0.2,1.2-1,0.3-1.2,1.3c-0.1,0.8,3.6,1.3,4.1-0.9c0.5-2.4-2.5-4.2-5.9-3c0.1-2.1,2.3-4.4,2-6.8
		c-0.3-2.4-2.8-3.4-6.2-3.6c1.4,1.1,3.5,2.5,3.4,5.6c-0.1,2.9-1.7,4.3-2.2,6.5c-0.5,2.3,1.3,3.8,5,4.4c3.6,0.6,5.6-0.8,5.7-2.7
		s2.9-28.8,2.9-28.8s-9.5-6.3-15-2.5C484.2,281.7,486.8,285.8,486.8,285.8z M491.1,281.3c3-2.4,8.6,0.2,8.6,1.8c0,0,0,0.4-0.1,1.1
		c0,0-3.3-1.3-5.4-0.1c-1.2,0.7-1.4,2.3,0.6,3.8c0.3-2.4,4.6-1.7,4.5-0.9c0,0.9-0.1,1.9-0.1,3.1c0,0-1.9-0.8-3.5-0.2
		c-1.6,0.6-2.7,2.4-0.8,3.1c0.5-2,4.2-1.1,4.2,0.8c0.1,3.4,0.2,7.4,0.7,11.8c-6-9.4-9.1-18.8-9.1-18.8S489.2,282.8,491.1,281.3z"/>
	<path class="st1" d="M508,345.2c0,0-9.3-25-8.5-27c0.6-1.7,3.3-1.9,5.1-1.3c1.2,0.4,2.6,1.4,2.1,2.7c-0.5,1.3-3.3,0.8-3.3-0.1
		c-0.1-1.3,1.1-0.1,1.4-1.2c0.2-0.8-3.4-1.9-4.3,0.4c-0.9,2.4,1.9,4.7,5.4,3.9c-0.4,2.1-3,4.1-3.1,6.7c-0.1,2.5,2.3,3.9,5.6,4.7
		c-1.3-1.3-3.1-3.1-2.5-6.3c0.6-3,2.4-4.1,3.2-6.4s-0.7-4.1-4.4-5.3c-3.6-1.1-5.8,0-6.2,1.9c-0.4,1.9-7.3,28.5-7.3,28.5
		s8.3,8.5,14.4,5.5C509.9,349.8,508,345.2,508,345.2z M502.9,349.2c-3.5,2-8.7-1.5-8.3-3.1c0,0,0.1-0.4,0.3-1.1c0,0,3.1,1.9,5.4,0.9
		c1.4-0.6,1.8-2.2,0-4c-0.7,2.4-4.9,1-4.7,0.3c0.2-0.9,0.4-2,0.6-3.2c0,0,1.7,1.1,3.4,0.8c1.8-0.4,3.1-2,1.3-3.1
		c-0.9,2-4.4,0.5-4.1-1.4c0.5-3.5,1-7.2,1.2-11.9c4.5,10.6,6.1,20.2,6.1,20.2S505,347.9,502.9,349.2z"/>
	<path class="st1" d="M476.4,343c3.8,5.4,14.5,3.3,14.5,3.3s6.9-26.2,7.4-28c0.5-1.8-0.8-3.8-4.4-4.5c-3.7-0.8-5.9,0.1-6.3,2.4
		c-0.3,2.3,0.7,4.1-0.3,6.9c-1,3-3.4,3.6-5.1,4.1c3.3,1,6,0.9,7.1-1.2s-0.2-5.1,0.5-7c2.7,2.3,6.2,1.7,6.5-0.7
		c0.3-2.3-3.4-3.1-3.5-2.3c-0.2,1.1,1.3,0.7,0.6,1.7c-0.4,0.7-3.1-0.2-2.9-1.5s1.9-1.5,3.1-1.3c1.8,0.4,4,1.8,3.7,3.5
		c-0.3,2.1-19.8,18.2-19.8,18.2S473.8,339.2,476.4,343z M481.4,337.3c0,0,6.2-7.7,15.1-14.4c-2,4-3.6,7.7-4.8,10.8
		c-0.7,1.7-4.4,1.3-4.2-0.8c-2,0.1-1.7,2.1-0.4,3.2c1.3,1.1,3.3,1,3.3,1c-0.4,1.1-0.7,2.1-1,3c-0.2,0.7-4.5-0.1-3.9-2.4
		c-2.4,0.6-2.8,2.2-1.9,3.3c1.5,1.9,5.1,1.8,5.1,1.8c-0.2,0.7-0.3,1-0.3,1c-0.5,1.5-6.6,2-8.7-1.3
		C478.4,340.4,481.4,337.3,481.4,337.3z"/>
	<path class="st1" d="M502.9,358c-2.9-6.2-14.7-4.7-14.7-4.7s-11.3,25.1-12.1,26.9c-0.8,1.7,0.2,4,3.7,5.4c3.6,1.4,6,0.9,6.7-1.4
		c0.7-2.3,0-4.3,1.5-7c1.5-2.9,4-3.1,5.9-3.4c-3.1-1.5-5.8-1.9-7.3,0.1c-1.5,2-0.7,5.2-1.7,7.2c-2.3-2.8-5.9-2.8-6.7-0.3
		c-0.7,2.3,2.8,3.7,3.1,3c0.4-1.1-1.2-0.9-0.4-1.8c0.6-0.7,3.1,0.7,2.7,2c-0.4,1.3-2.2,1.2-3.4,0.8c-1.8-0.7-3.7-2.5-3.2-4.2
		c0.7-2.1,23.5-15.8,23.5-15.8S504.9,362.2,502.9,358z M496.4,363.3c0,0-7.3,6.5-17.4,12c2.7-3.7,4.7-7,6.5-10
		c1-1.7,4.7-0.6,4.1,1.5c2.1,0.3,2.1-1.8,0.9-3.2c-1.1-1.4-3.2-1.6-3.2-1.6c0.6-1.1,1.1-2,1.5-2.9c0.3-0.7,4.5,0.8,3.5,3.1
		c2.5-0.3,3.2-1.8,2.5-3.1c-1.2-2.2-4.8-2.7-4.8-2.7c0.3-0.7,0.4-1,0.4-1c0.8-1.5,7-1,8.5,2.8C499.9,360.6,496.4,363.3,496.4,363.3z
		"/>
	<path class="st1" d="M471.2,351.9c0,0,5.2,25.3,4.2,27.1c-0.8,1.5-3.5,1.2-5.1,0.4c-1.1-0.6-2.3-1.8-1.6-2.9
		c0.7-1.1,3.3-0.2,3.2,0.7c-0.1,1.2-1.1-0.1-1.6,0.9c-0.4,0.7,3,2.4,4.2,0.4c1.2-2.1-1.1-4.7-4.7-4.6c0.7-2,3.5-3.4,4-5.8
		c0.5-2.4-1.6-4.1-4.8-5.4c1,1.5,2.5,3.5,1.5,6.4c-1,2.7-2.9,3.5-4.1,5.5c-1.2,2,0,4,3.4,5.8c3.3,1.7,5.6,1,6.3-0.7
		c0.7-1.7,11.7-26.5,11.7-26.5s-7.1-8.9-13.4-7.1C470,347.3,471.2,351.9,471.2,351.9z M476.7,349c3.6-1.3,8.1,2.9,7.6,4.4
		c0,0-0.2,0.3-0.4,1c0,0-2.7-2.3-5.1-1.8c-1.4,0.3-2.1,1.8-0.6,3.8c1-2.2,4.9-0.1,4.6,0.6c-0.3,0.8-0.7,1.8-1.1,2.9
		c0,0-1.5-1.4-3.2-1.3c-1.8,0.1-3.3,1.4-1.7,2.7c1.1-1.7,4.3,0.2,3.8,2c-1,3.2-2.1,7.1-3,11.5c-2.8-10.8-2.8-20.7-2.8-20.7
		S474.4,349.8,476.7,349z"/>
	<path class="st1" d="M472.9,415c0,0-1-26.6,0.3-28.4c1.1-1.4,3.7-0.8,5.2,0.4c1,0.7,2,2.2,1.2,3.2c-0.9,1.1-3.4-0.3-3.1-1.1
		c0.3-1.2,1.1,0.2,1.7-0.7c0.5-0.7-2.7-2.9-4.2-1c-1.6,2,0.3,5,3.9,5.4c-1,1.9-4.1,3-5,5.4c-0.9,2.4,0.9,4.4,3.9,6.2
		c-0.8-1.7-2-3.9-0.4-6.7c1.4-2.6,3.5-3.2,5-5.1s0.6-4.1-2.5-6.4c-3.1-2.2-5.5-1.8-6.5-0.1c-1,1.7-15.8,24.9-15.8,24.9
		s5.2,10.7,12,9.7C473.3,419.9,472.9,415,472.9,415z M466.8,417.2c-3.9,0.9-7.8-4.1-7-5.6c0,0,0.2-0.3,0.6-0.9c0,0,2.3,2.7,4.8,2.5
		c1.5-0.1,2.4-1.5,1.2-3.8c-1.4,2.1-5-0.5-4.6-1.2c0.5-0.8,1-1.8,1.6-2.8c0,0,1.3,1.6,3,1.8c1.8,0.2,3.6-1,2.2-2.6
		c-1.4,1.6-4.3-0.9-3.5-2.6c1.5-3.2,3.2-6.6,4.8-10.9c1,11.5-0.5,21.1-0.5,21.1S469.2,416.7,466.8,417.2z"/>
	<path class="st1" d="M443.5,403c1.9,6.3,12.7,7.6,12.7,7.6s14.7-22.8,15.8-24.3c1.1-1.5,0.4-3.8-2.8-5.7c-3.3-1.9-5.6-1.8-6.7,0.3
		c-1,2.1-0.6,4.1-2.4,6.4c-1.9,2.5-4.3,2.3-6.1,2.3c2.8,2,5.4,2.7,7.1,1c1.7-1.7,1.4-4.9,2.7-6.5c1.9,3,5.4,3.5,6.4,1.4
		c1-2.1-2.2-4-2.6-3.3c-0.5,1,1,1,0.1,1.8c-0.6,0.5-2.9-1.1-2.3-2.3c0.6-1.2,2.3-0.8,3.4-0.2c1.6,0.9,3.3,2.9,2.5,4.5
		c-1,1.9-24.5,11.1-24.5,11.1S442.2,398.7,443.5,403z M450,399.2c0,0,8.3-5.4,18.8-9c-3.2,3.1-5.8,6.2-8,8.8c-1.2,1.4-4.6-0.1-3.7-2
		c-2-0.6-2.2,1.4-1.4,2.9c0.9,1.5,2.8,2,2.8,2c-0.7,0.9-1.3,1.8-1.8,2.5c-0.4,0.6-4.2-1.5-3-3.5c-2.5-0.1-3.4,1.2-2.9,2.6
		c0.9,2.3,4.2,3.3,4.2,3.3c-0.4,0.6-0.6,0.9-0.6,0.9c-0.9,1.3-6.9-0.2-7.8-3.9C446.3,401.3,450,399.2,450,399.2z"/>
	<path class="st1" d="M464.6,425.6c-0.8-6.8-12.5-9-12.5-9s-18.4,20.5-19.7,21.9c-1.3,1.4-1,3.9,1.9,6.2c3,2.4,5.4,2.7,6.8,0.7
		c1.4-1.9,1.4-4.1,3.5-6.2c2.3-2.3,4.8-1.7,6.6-1.4c-2.5-2.4-5-3.6-7-2.1s-2.3,4.8-3.8,6.3c-1.3-3.4-4.8-4.4-6.3-2.4
		c-1.4,2,1.6,4.4,2.1,3.8c0.7-0.9-0.9-1.2,0.2-1.9c0.7-0.5,2.7,1.6,1.9,2.7c-0.8,1.1-2.5,0.5-3.4-0.3c-1.5-1.2-2.8-3.5-1.7-4.9
		c1.3-1.8,27.2-7.9,27.2-7.9S465.2,430.2,464.6,425.6z M456.8,428.7c0,0-8.9,4-20.2,6.1c3.7-2.7,6.6-5.2,9.2-7.5
		c1.5-1.3,4.6,0.8,3.4,2.7c1.9,0.9,2.5-1.1,1.9-2.8c-0.6-1.6-2.5-2.4-2.5-2.4c0.9-0.8,1.6-1.6,2.3-2.3c0.5-0.6,4,2.1,2.4,4.1
		c2.5,0.5,3.6-0.8,3.3-2.2c-0.5-2.5-3.7-4-3.7-4c0.5-0.5,0.7-0.8,0.7-0.8c1.2-1.2,7,1.2,7.2,5.2C461,427.1,456.8,428.7,456.8,428.7z
		"/>
	<path class="st1" d="M436.2,410.1c0,0-2.8,25.7-4.3,27.1c-1.3,1.2-3.7,0.1-5-1.2c-0.8-0.9-1.6-2.4-0.7-3.3c1-0.9,3.2,0.8,2.8,1.6
		c-0.5,1.1-1-0.4-1.8,0.4c-0.6,0.5,2.1,3.2,3.9,1.6c1.8-1.6,0.4-4.9-3-5.8c1.3-1.6,4.4-2.2,5.6-4.3s-0.3-4.4-2.9-6.6
		c0.5,1.7,1.3,4.1-0.6,6.5c-1.8,2.3-3.9,2.5-5.6,4c-1.7,1.5-1.2,3.9,1.5,6.5c2.6,2.6,5,2.6,6.2,1.2c1.2-1.4,19.2-21.7,19.2-21.7
		s-4-10.7-10.6-10.8C436.6,405.3,436.2,410.1,436.2,410.1z M442.4,409c3.9-0.2,6.9,5.2,5.9,6.5c0,0-0.3,0.3-0.7,0.8
		c0,0-1.9-3-4.3-3.2c-1.4-0.1-2.5,1.1-1.7,3.4c1.7-1.8,4.7,1.4,4.2,1.9c-0.6,0.7-1.2,1.5-1.9,2.4c0,0-1-1.8-2.7-2.2
		c-1.7-0.5-3.6,0.3-2.5,2.1c1.6-1.3,4,1.5,3,3.1c-1.9,2.8-4.2,6.1-6.4,10c0.7-11.1,3.7-20.5,3.7-20.5S440,409.1,442.4,409z"/>
	<path class="st1" d="M418.6,470.7c0,0,7.1-25.7,9-26.9c1.5-1,3.8,0.4,4.9,1.9c0.7,1,1.3,2.7,0.1,3.4c-1.1,0.8-3.1-1.3-2.6-2
		c0.7-1,0.9,0.5,1.9-0.1c0.7-0.5-1.7-3.5-3.7-2.2c-2.1,1.4-1.2,4.9,2.1,6.4c-1.6,1.5-4.9,1.6-6.4,3.6c-1.6,2-0.5,4.5,1.8,7.1
		c-0.3-1.8-0.7-4.3,1.7-6.5c2.2-2.1,4.3-1.9,6.3-3.3c2-1.3,1.9-3.7-0.4-6.8c-2.2-3-4.7-3.4-6.1-2.1c-1.5,1.3-22.7,18.8-22.7,18.8
		s1.7,11.8,8.5,12.9C417.5,475.5,418.6,470.7,418.6,470.7z M412.1,470.9c-4-0.4-6.1-6.3-4.9-7.4c0,0,0.3-0.2,0.9-0.7
		c0,0,1.4,3.3,3.8,3.9c1.4,0.3,2.7-0.7,2.3-3.2c-2,1.6-4.6-2-4-2.6c0.7-0.6,1.5-1.4,2.4-2.2c0,0,0.7,1.9,2.3,2.6
		c1.7,0.7,3.7,0.2,2.9-1.8c-1.9,1.1-3.8-2.1-2.5-3.5c2.4-2.6,5-5.3,7.9-8.9c-2.6,11.2-6.9,20-6.9,20S414.6,471.2,412.1,470.9z"/>
	<path class="st1" d="M394.3,450.3c-0.1,6.6,9.8,11.2,9.8,11.2s21-17.2,22.4-18.3s1.5-3.5-1-6.3c-2.6-2.8-4.8-3.4-6.5-1.8
		s-1.9,3.7-4.2,5.4c-2.5,1.8-4.8,0.9-6.6,0.3c2.1,2.7,4.3,4.3,6.5,3.2c2.2-1.1,2.8-4.2,4.5-5.4c0.8,3.5,4,5,5.7,3.3
		c1.6-1.7-0.9-4.5-1.5-3.9c-0.8,0.7,0.7,1.3-0.5,1.7c-0.8,0.3-2.4-2-1.5-2.9c0.9-0.9,2.4-0.1,3.3,0.8c1.3,1.4,2.2,3.8,1,5
		c-1.5,1.5-26.7,3.1-26.7,3.1S394.4,445.8,394.3,450.3z M401.7,448.7c0,0,9.5-2.6,20.7-2.8c-4,2-7.4,4.1-10.3,5.9
		c-1.6,1-4.3-1.5-2.9-3.1c-1.7-1.2-2.6,0.7-2.2,2.4c0.4,1.7,2.1,2.7,2.1,2.7c-1,0.7-1.8,1.3-2.5,1.8c-0.6,0.5-3.6-2.7-1.8-4.3
		c-2.3-0.9-3.6,0.1-3.5,1.6c0.1,2.4,3,4.4,3,4.4c-0.5,0.4-0.8,0.7-0.8,0.7c-1.3,0.9-6.6-2.3-6.2-6.1
		C397.5,449.5,401.7,448.7,401.7,448.7z"/>
	<path class="st1" d="M407,478.1c1.3-6.7-9.1-12.4-9.1-12.4s-23.9,13.7-25.6,14.7c-1.7,0.9-2.2,3.3-0.2,6.5c2.1,3.2,4.3,4.2,6.3,2.8
		s2.6-3.5,5.3-4.8c2.9-1.4,5.1-0.2,6.7,0.7c-1.6-3.1-3.6-5-6-4.2c-2.4,0.8-3.7,3.8-5.6,4.8c-0.2-3.6-3.2-5.7-5.2-4.2
		c-1.9,1.4,0.1,4.7,0.8,4.2c1-0.6-0.4-1.4,0.8-1.7c0.8-0.2,2.1,2.4,1,3.2c-1.1,0.8-2.5-0.3-3.2-1.3c-1-1.6-1.6-4.2-0.1-5.2
		c1.8-1.3,28.3,1,28.3,1S406.1,482.6,407,478.1z M398.6,478.6c0,0-9.7,1-21.1-0.5c4.4-1.4,7.9-2.9,11.1-4.3c1.8-0.8,4.1,2.2,2.4,3.6
		c1.5,1.4,2.7-0.3,2.6-2.1c-0.1-1.7-1.6-3.1-1.6-3.1c1.1-0.5,2.1-1,2.9-1.5c0.7-0.4,3.2,3.3,1,4.6c2.2,1.3,3.7,0.4,3.9-1
		c0.3-2.5-2.3-5-2.3-5c0.6-0.4,1-0.6,1-0.6c1.5-0.8,6.3,3.3,5.2,7.2C403,478.4,398.6,478.6,398.6,478.6z"/>
	<path class="st1" d="M384.8,454.6c0,0-10.6,23.5-12.5,24.4c-1.6,0.7-3.5-1-4.3-2.7c-0.5-1.1-0.8-2.8,0.4-3.3
		c1.2-0.5,2.8,1.8,2.2,2.4c-0.8,0.9-0.8-0.7-1.8-0.2c-0.7,0.4,1.1,3.7,3.2,2.8c2.2-1,1.9-4.5-1.1-6.5c1.7-1.2,4.9-0.7,6.7-2.4
		s1.1-4.3-0.7-7.1c0,1.8,0,4.3-2.6,6c-2.4,1.6-4.4,1.1-6.5,2.1s-2.3,3.3-0.6,6.7c1.7,3.3,4,4.1,5.5,3.1c1.6-1,25-14.6,25-14.6
		s-0.5-11.4-6.7-13.6C386.6,450.1,384.8,454.6,384.8,454.6z M391.1,455.4c3.7,1,4.9,7.1,3.6,8c0,0-0.3,0.2-0.9,0.5
		c0,0-0.8-3.4-3.1-4.4c-1.3-0.6-2.7,0.2-2.7,2.7c2.1-1.2,4,2.7,3.4,3.1c-0.8,0.5-1.6,1.1-2.6,1.7c0,0-0.4-2-1.8-2.9
		c-1.5-1-3.5-0.8-3,1.2c1.9-0.8,3.3,2.7,1.9,3.8c-2.7,2.1-5.9,4.5-9.2,7.5c4.1-10.4,9.9-18.4,9.9-18.4S388.7,454.8,391.1,455.4z"/>
	<path class="st1" d="M349.3,506.7c0,0,14.7-22.2,16.9-22.8c1.7-0.5,3.4,1.6,4,3.3c0.4,1.2,0.4,3-0.9,3.3c-1.3,0.4-2.5-2.2-1.9-2.8
		c1-0.8,0.7,0.8,1.8,0.4c0.8-0.3-0.5-3.9-2.8-3.2c-2.5,0.7-2.7,4.3,0,6.7c-2,0.9-5.1,0-7.2,1.4c-2.1,1.4-1.8,4.1-0.4,7.3
		c0.3-1.8,0.7-4.3,3.6-5.7c2.7-1.3,4.7-0.5,7-1.1c2.3-0.6,2.9-3,1.7-6.6c-1.2-3.6-3.4-4.7-5.2-3.9s-27.4,10.9-27.4,10.9
		s-2,11.7,4,14.9C346.7,510.9,349.3,506.7,349.3,506.7z M343,504.9c-3.7-1.6-3.9-7.9-2.4-8.6c0,0,0.4-0.1,1-0.4c0,0,0.3,3.6,2.4,4.9
		c1.3,0.8,2.8,0.1,3.2-2.4c-2.4,0.9-3.7-3.4-3-3.7c0.9-0.4,1.9-0.8,2.9-1.4c0,0,0.1,2.1,1.4,3.2c1.4,1.2,3.5,1.3,3.3-0.8
		c-2.1,0.5-3-3.2-1.3-4.1c3.1-1.7,6.4-3.5,10.3-6c-5.9,9.9-12.8,16.8-12.8,16.8S345.3,505.9,343,504.9z"/>
	<path class="st1" d="M332.5,479.8c-2.2,6.3,5.8,13.7,5.8,13.7s25.3-9.8,27-10.4c1.8-0.6,2.5-2.9,1-6.2c-1.6-3.5-3.5-4.7-5.6-3.7
		c-2,1.1-2.9,3-5.7,3.8c-3,0.9-4.9-0.6-6.3-1.7c1.1,3.2,2.8,5.4,5.2,5c2.4-0.4,4-3.1,6-3.7c-0.3,3.5,2.3,6,4.4,4.9
		c2-1.1,0.5-4.5-0.2-4.2c-1,0.5,0.2,1.4-1,1.5c-0.8,0.1-1.7-2.6-0.5-3.2c1.2-0.6,2.3,0.7,2.9,1.8c0.8,1.7,0.9,4.3-0.6,5.1
		c-1.9,1-26.3-5.3-26.3-5.3S334,475.5,332.5,479.8z M340,480.5c0,0,9.8,0.5,20.5,3.7c-4.4,0.7-8.3,1.6-11.6,2.5
		c-1.8,0.5-3.6-2.8-1.8-3.8c-1.3-1.6-2.7-0.2-2.8,1.6c-0.2,1.7,1.1,3.3,1.1,3.3c-1.1,0.3-2.1,0.7-3,1c-0.7,0.3-2.6-3.7-0.3-4.6
		c-1.9-1.6-3.5-1-3.8,0.4c-0.6,2.4,1.5,5.1,1.5,5.1c-0.6,0.2-1,0.4-1,0.4c-1.5,0.5-5.5-4.2-4-7.8C335.8,480,340,480.5,340,480.5z"/>
	<path class="st1" d="M335.5,509.8c3.4-5.9-4.6-14.7-4.6-14.7s-27,5.2-29,5.5c-1.9,0.3-3.2,2.4-2.3,6.1c0.9,3.7,2.7,5.4,5,4.7
		c2.3-0.7,3.6-2.5,6.6-2.8c3.2-0.4,4.9,1.5,6.1,2.9c-0.5-3.4-1.8-5.9-4.3-5.9c-2.5,0-4.7,2.4-6.9,2.7c1-3.5-1.1-6.4-3.6-5.7
		c-2.3,0.7-1.4,4.4-0.6,4.2c1.1-0.3,0-1.5,1.3-1.3c0.9,0.1,1.2,2.9-0.1,3.3c-1.3,0.4-2.3-1.1-2.6-2.3c-0.5-1.8-0.1-4.5,1.6-5
		c2.1-0.6,26.5,10.2,26.5,10.2S333.2,513.8,335.5,509.8z M327.4,507.5c0,0-9.5-2.2-19.8-7.4c4.6,0.1,8.4-0.2,11.9-0.4
		c1.9-0.1,3.2,3.5,1.1,4.2c1,1.9,2.7,0.6,3.2-1.1c0.5-1.7-0.5-3.5-0.5-3.5c1.2-0.1,2.3-0.3,3.2-0.4c0.8-0.1,1.9,4.1-0.6,4.7
		c1.7,1.9,3.3,1.6,4,0.3c1.1-2.3-0.5-5.4-0.5-5.4c0.7-0.1,1.1-0.2,1.1-0.2c1.6-0.2,4.8,5.2,2.6,8.5
		C331.6,508.8,327.4,507.5,327.4,507.5z"/>
	<path class="st1" d="M322.2,480.3c0,0-17.7,18.8-19.8,19c-1.7,0.2-3-2.1-3.2-4c-0.2-1.2,0.2-2.9,1.5-3c1.3-0.1,2,2.6,1.3,3
		c-1.1,0.6-0.5-0.9-1.6-0.8c-0.8,0.1-0.2,3.8,2.1,3.6c2.4-0.2,3.3-3.6,1.1-6.5c2-0.5,4.8,0.9,7.1-0.1c2.2-1,2.5-3.7,1.7-7
		c-0.6,1.7-1.4,4-4.4,4.9c-2.8,0.8-4.6-0.4-6.9-0.2c-2.3,0.2-3.3,2.3-2.8,6.1c0.5,3.6,2.4,5.1,4.2,4.7c1.8-0.4,28.4-5.7,28.4-5.7
		s3.3-10.9-1.9-15C325.4,476.7,322.2,480.3,322.2,480.3z M327.8,483.2c3.2,2.2,2.3,8.3,0.8,8.7c0,0-0.4,0.1-1,0.2
		c0,0,0.3-3.5-1.5-5.2c-1.1-1-2.7-0.7-3.4,1.7c2.4-0.4,2.9,3.9,2.2,4.1c-0.9,0.2-1.9,0.5-3,0.8c0,0,0.3-2-0.8-3.4
		c-1.1-1.4-3-1.9-3.2,0.2c2.1-0.1,2.3,3.7,0.5,4.2c-3.2,1.1-7,2.4-11.1,4.1c7.3-8.5,15.3-14.2,15.3-14.2S325.8,481.8,327.8,483.2z"
		/>
	<path class="st1" d="M271.6,517.9c0,0,21.2-16.1,23.4-16c1.8,0.1,2.7,2.6,2.7,4.5c0,1.2-0.6,2.9-2,2.8c-1.4-0.1-1.7-2.9-0.9-3.2
		c1.2-0.4,0.4,1,1.6,1c0.8,0,0.8-3.8-1.6-4c-2.5-0.2-3.9,3.1-2.2,6.3c-2.2,0.2-4.8-1.7-7.3-1c-2.4,0.6-3.1,3.3-2.8,6.8
		c0.9-1.6,2.1-3.8,5.3-4.2c3-0.3,4.6,1.1,7,1.2c2.4,0.2,3.8-1.9,3.8-5.7c0-3.7-1.7-5.5-3.6-5.4c-1.9,0.1-29.4,1.3-29.4,1.3
		s-5.8,10.4-1,15.4C267.8,521.1,271.6,517.9,271.6,517.9z M266.2,514.2c-2.9-2.7-1.1-8.7,0.6-8.9c0,0,0.4,0,1.1,0
		c0,0-0.9,3.5,0.7,5.4c0.9,1.1,2.6,1.1,3.8-1.2c-2.5,0-2.4-4.4-1.6-4.4c0.9-0.1,2-0.2,3.2-0.3c0,0-0.6,2,0.3,3.5
		c0.9,1.6,2.8,2.4,3.3,0.3c-2.1-0.2-1.8-4,0.1-4.3c3.5-0.6,7.2-1.2,11.7-2.3c-8.8,7.4-17.6,11.7-17.6,11.7S268.1,515.9,266.2,514.2z
		"/>
	<path class="st1" d="M264.5,487c-4.1,5.2,1.1,14.8,1.1,14.8s27.1-1,28.9-1c1.9,0,3.4-1.9,3-5.6c-0.3-3.8-1.8-5.6-4.1-5.3
		c-2.3,0.3-3.7,1.8-6.6,1.7c-3.1-0.1-4.4-2.2-5.4-3.7c0,3.4,0.8,6,3.2,6.4c2.4,0.4,4.8-1.6,6.9-1.6c-1.4,3.3,0.2,6.4,2.6,6
		c2.3-0.4,2-4.1,1.2-4c-1.1,0.1-0.3,1.4-1.4,1.1c-0.8-0.2-0.7-3,0.6-3.2c1.3-0.2,2,1.4,2.1,2.6c0.2,1.8-0.5,4.4-2.2,4.6
		c-2.1,0.3-23.2-13.6-23.2-13.6S267.3,483.5,264.5,487z M271.4,490.2c0,0,9.2,3.7,18.2,10.2c-4.4-0.8-8.4-1.2-11.8-1.5
		c-1.9-0.2-2.5-3.8-0.5-4.2c-0.7-1.9-2.5-1-3.2,0.6c-0.7,1.6,0,3.5,0,3.5c-1.2,0-2.2-0.1-3.1-0.1c-0.8,0-1.2-4.3,1.2-4.5
		c-1.3-2.1-2.9-2-3.7-0.9c-1.4,2-0.2,5.4-0.2,5.4c-0.7,0-1.1,0-1.1,0c-1.6,0-3.9-5.8-1.3-8.7C267.5,488.3,271.4,490.2,271.4,490.2z"
		/>
	<path class="st1" d="M257.9,516.8c5.1-4.5,0.2-15.4,0.2-15.4s-27.3-3.5-29.2-3.8c-1.9-0.3-3.8,1.3-4.1,5.1c-0.3,3.8,0.9,6,3.3,6
		c2.4,0,4.2-1.2,7.1-0.6c3.2,0.6,4.2,2.9,4.9,4.6c0.6-3.4,0.1-6.1-2.2-7c-2.4-0.8-5.2,0.8-7.3,0.4c2-3,0.9-6.5-1.6-6.5
		c-2.4,0-2.7,3.8-1.9,3.8c1.1,0.1,0.5-1.4,1.6-0.9c0.8,0.4,0.2,3.2-1.1,3.1c-1.4,0-1.8-1.8-1.7-3c0.1-1.9,1.3-4.3,3.1-4.2
		c2.2,0.1,22,17.9,22,17.9S254.4,519.9,257.9,516.8z M250.9,512.1c0,0-8.4-5.1-16.5-13.2c4.4,1.5,8,2.4,11.5,3.3
		c1.9,0.5,1.9,4.3-0.2,4.3c0.3,2.1,2.4,1.4,3.4,0c1-1.4,0.6-3.5,0.6-3.5c1.2,0.2,2.3,0.4,3.2,0.6c0.8,0.1,0.5,4.5-2,4.3
		c1,2.3,2.7,2.5,3.7,1.5c1.8-1.8,1.2-5.3,1.2-5.3c0.7,0.1,1.1,0.1,1.1,0.1c1.6,0.3,3,6.4-0.2,8.9
		C254.5,514.7,250.9,512.1,250.9,512.1z"/>
	<path class="st1" d="M254.4,484.7c0,0-22.7,12.4-24.8,11.9c-1.7-0.4-2.2-2.9-1.8-4.8c0.2-1.2,1.1-2.7,2.3-2.4
		c1.3,0.3,1.1,3.1,0.3,3.2c-1.2,0.2-0.2-1-1.3-1.2c-0.8-0.1-1.4,3.6,0.9,4.1c2.4,0.6,4.2-2.4,3.1-5.8c2.1,0.1,4.3,2.4,6.7,2.1
		c2.4-0.2,3.5-2.7,3.8-6.1c-1.1,1.4-2.6,3.4-5.7,3.3c-2.9-0.1-4.2-1.8-6.5-2.3c-2.2-0.5-3.9,1.2-4.5,4.9c-0.6,3.6,0.7,5.6,2.5,5.8
		c1.9,0.2,28.8,3.4,28.8,3.4s6.5-9.4,2.8-14.9C258.5,482.2,254.4,484.7,254.4,484.7z M258.8,489.1c2.3,3.1-0.4,8.6-2,8.5
		c0,0-0.4-0.1-1.1-0.1c0,0,1.4-3.2,0.2-5.4c-0.7-1.2-2.3-1.4-3.8,0.5c2.4,0.4,1.6,4.6,0.8,4.5c-0.9-0.1-1.9-0.1-3.1-0.2
		c0,0,0.9-1.8,0.3-3.4c-0.6-1.6-2.3-2.7-3.1-0.8c2,0.6,1,4.2-0.8,4.2c-3.4,0-7.4,0.1-11.9,0.5c9.5-5.8,19-8.7,19-8.7
		S257.4,487.2,258.8,489.1z"/>
	<path class="st1" d="M194.6,504.7c0,0,25.1-8.8,27.2-8c1.7,0.6,1.8,3.3,1.2,5.1c-0.4,1.2-1.5,2.6-2.8,2.1c-1.3-0.5-0.7-3.3,0.2-3.3
		c1.3,0,0.1,1.1,1.2,1.5c0.8,0.3,2-3.4-0.3-4.3c-2.3-1-4.7,1.8-4,5.3c-2.1-0.5-4.1-3.1-6.6-3.2c-2.5-0.2-4,2.2-4.8,5.6
		c1.4-1.3,3.2-3,6.3-2.4c2.9,0.6,4.1,2.5,6.3,3.4c2.2,0.9,4.1-0.6,5.4-4.2c1.2-3.6,0.1-5.8-1.8-6.2c-1.9-0.5-28.4-7.9-28.4-7.9
		s-8.7,8.1-5.8,14.3C190,506.5,194.6,504.7,194.6,504.7z M190.7,499.5c-2-3.5,1.7-8.6,3.3-8.3c0,0,0.4,0.1,1.1,0.3c0,0-1.9,3-1,5.4
		c0.5,1.4,2.2,1.8,4,0.1c-2.4-0.8-0.9-4.9-0.2-4.7c0.9,0.2,2,0.5,3.2,0.7c0,0-1.2,1.7-0.8,3.4c0.4,1.8,2,3.1,3.1,1.4
		c-2-0.9-0.4-4.4,1.5-4.1c3.5,0.5,7.2,1.1,11.8,1.4c-10.7,4.3-20.4,5.7-20.4,5.7S191.9,501.7,190.7,499.5z"/>
	<path class="st1" d="M197.5,473.1c-5.5,3.7-3.6,14.4-3.6,14.4s26.1,7.4,27.8,8c1.8,0.6,3.8-0.8,4.6-4.4c0.8-3.7,0-5.9-2.2-6.3
		c-2.3-0.4-4.1,0.6-6.8-0.4c-2.9-1.1-3.5-3.5-4-5.2c-1.1,3.2-1.1,6,1.1,7.1c2.1,1.1,5.1-0.1,7,0.6c-2.4,2.7-1.8,6.2,0.6,6.5
		c2.3,0.4,3.2-3.3,2.4-3.5c-1.1-0.2-0.7,1.3-1.7,0.6c-0.7-0.5,0.2-3.1,1.5-2.9c1.3,0.2,1.5,2,1.2,3.1c-0.4,1.8-1.9,4-3.5,3.7
		c-2.1-0.4-17.8-20.2-17.8-20.2S201.2,470.6,197.5,473.1z M203,478.3c0,0,7.6,6.3,14.1,15.4c-3.9-2.1-7.6-3.7-10.7-5.1
		c-1.7-0.7-1.2-4.4,0.9-4.2c0-2-2-1.7-3.2-0.4c-1.2,1.3-1.1,3.3-1.1,3.3c-1.1-0.4-2.1-0.7-2.9-1c-0.7-0.2,0.2-4.5,2.5-3.9
		c-0.6-2.4-2.2-2.9-3.3-2c-1.9,1.5-1.9,5-1.9,5c-0.7-0.2-1-0.3-1-0.3c-1.5-0.5-1.9-6.7,1.5-8.6C199.9,475.3,203,478.3,203,478.3z"/>
	<path class="st1" d="M182.1,499.9c6.2-2.8,4.9-14.6,4.9-14.6s-25-11.6-26.7-12.5c-1.7-0.9-4,0.1-5.4,3.6c-1.5,3.6-1,5.9,1.3,6.7
		s4.3,0.1,7,1.6c2.8,1.6,3.1,4.1,3.3,5.9c1.6-3.1,2-5.8,0-7.3c-2-1.5-5.2-0.8-7.1-1.8c2.8-2.3,2.8-5.9,0.4-6.7
		c-2.3-0.8-3.8,2.8-3,3.1c1.1,0.4,0.9-1.2,1.8-0.3c0.6,0.6-0.7,3.1-2,2.6s-1.2-2.2-0.7-3.4c0.7-1.7,2.5-3.7,4.2-3.1
		c2.1,0.7,15.5,23.8,15.5,23.8S177.8,501.8,182.1,499.9z M176.8,493.3c0,0-6.4-7.4-11.7-17.6c3.7,2.8,6.9,4.8,9.9,6.6
		c1.6,1,0.5,4.7-1.5,4.1c-0.3,2.1,1.8,2.1,3.2,1c1.4-1.1,1.6-3.1,1.6-3.1c1.1,0.6,2,1.1,2.9,1.5c0.7,0.3-0.9,4.5-3.2,3.5
		c0.2,2.5,1.8,3.2,3.1,2.6c2.2-1.2,2.7-4.7,2.7-4.7c0.7,0.3,1,0.5,1,0.5c1.5,0.8,0.9,7-2.9,8.4C179.5,496.8,176.8,493.3,176.8,493.3
		z"/>
	<path class="st1" d="M188.6,468.2c0,0-25.4,4.8-27.2,3.8c-1.5-0.9-1.2-3.5-0.3-5.1c0.6-1.1,1.8-2.3,3-1.6c1.1,0.7,0.1,3.3-0.7,3.2
		c-1.2-0.2,0.1-1-0.9-1.6c-0.7-0.4-2.4,3-0.4,4.2c2.1,1.3,4.8-1,4.7-4.6c1.9,0.7,3.4,3.6,5.8,4.1c2.4,0.5,4.1-1.5,5.4-4.7
		c-1.5,1-3.5,2.5-6.4,1.4c-2.7-1-3.5-3-5.5-4.1c-2-1.2-4,0-5.8,3.3c-1.7,3.3-1.1,5.6,0.7,6.3c1.7,0.7,26.3,12.1,26.3,12.1
		s9-6.9,7.3-13.3C193.2,467.1,188.6,468.2,188.6,468.2z M191.4,473.8c1.3,3.7-3,8.1-4.5,7.5c0,0-0.3-0.2-1-0.4c0,0,2.3-2.6,1.8-5
		c-0.3-1.4-1.8-2.1-3.8-0.6c2.2,1.1,0.1,4.9-0.6,4.6c-0.8-0.3-1.8-0.7-2.9-1.1c0,0,1.4-1.5,1.3-3.2c-0.1-1.8-1.4-3.3-2.7-1.8
		c1.7,1.1-0.3,4.3-2.1,3.7c-3.2-1-7.1-2.2-11.4-3.2c10.9-2.6,20.7-2.5,20.7-2.5S190.6,471.5,191.4,473.8z"/>
	<path class="st1" d="M125.5,469c0,0,26.6-0.7,28.3,0.7c1.4,1.1,0.7,3.7-0.4,5.2c-0.7,1-2.2,2-3.2,1.1c-1.1-0.9,0.3-3.4,1.2-3.1
		c1.2,0.4-0.2,1,0.7,1.7c0.6,0.5,2.9-2.6,1-4.2c-1.9-1.6-5,0.3-5.5,3.9c-1.9-1.1-2.9-4.2-5.3-5.1c-2.4-0.9-4.4,0.9-6.2,3.8
		c1.7-0.8,3.9-1.9,6.8-0.3c2.6,1.5,3.1,3.6,5,5.1c1.9,1.5,4.1,0.7,6.4-2.4c2.2-3,1.9-5.5,0.2-6.5c-1.6-1-24.6-16.2-24.6-16.2
		s-10.8,5.1-9.9,11.9C120.5,469.4,125.5,469,125.5,469z M123.4,462.9c-0.8-3.9,4.2-7.7,5.7-6.9c0,0,0.3,0.2,0.9,0.6
		c0,0-2.8,2.3-2.6,4.8c0.1,1.5,1.5,2.4,3.8,1.3c-2.1-1.5,0.6-5,1.3-4.5c0.8,0.5,1.7,1,2.8,1.6c0,0-1.6,1.3-1.8,3
		c-0.2,1.8,0.9,3.6,2.5,2.2c-1.6-1.5,0.9-4.3,2.7-3.4c3.1,1.6,6.5,3.3,10.8,5c-11.5,0.8-21.1-0.8-21.1-0.8S123.9,465.3,123.4,462.9z
		"/>
	<path class="st1" d="M137.9,439.9c-6.4,1.8-7.8,12.6-7.8,12.6s22.5,15,24.1,16.1c1.5,1.1,3.8,0.4,5.7-2.7c1.9-3.3,1.8-5.6-0.2-6.7
		c-2-1.1-4.1-0.7-6.4-2.5c-2.5-1.9-2.3-4.4-2.2-6.2c-2,2.8-2.8,5.3-1.1,7.1s4.9,1.5,6.5,2.8c-3.1,1.8-3.6,5.3-1.4,6.4
		c2.1,1,4-2.2,3.3-2.6c-1-0.6-1,1-1.8,0.1c-0.5-0.7,1.2-2.9,2.3-2.3s0.8,2.3,0.2,3.4c-0.9,1.6-3,3.2-4.5,2.4
		c-1.9-1-10.8-24.6-10.8-24.6S142.2,438.6,137.9,439.9z M141.6,446.4c0,0,5.3,8.3,8.7,19c-3.1-3.2-6.1-5.9-8.7-8.1
		c-1.4-1.2,0.2-4.6,2.1-3.7c0.6-2-1.4-2.3-2.9-1.4c-1.5,0.9-2,2.8-2,2.8c-0.9-0.7-1.8-1.4-2.5-1.9c-0.6-0.4,1.5-4.2,3.6-2.9
		c0.2-2.5-1.2-3.4-2.5-2.9c-2.3,0.8-3.3,4.2-3.3,4.2c-0.6-0.4-0.9-0.6-0.9-0.6c-1.3-1,0.3-6.9,4.1-7.8
		C139.6,442.6,141.6,446.4,141.6,446.4z"/>
	<path class="st1" d="M115.5,460.1c6.7-0.7,9-12.1,9-12.1s-19.7-18.4-21-19.8c-1.3-1.3-3.8-1.1-6.1,1.7c-2.4,2.9-2.7,5.2-0.8,6.7
		c1.9,1.4,4,1.4,6,3.6c2.2,2.3,1.6,4.7,1.3,6.5c2.4-2.4,3.6-4.8,2.2-6.8s-4.6-2.3-6.1-3.9c3.3-1.3,4.4-4.6,2.4-6.1
		c-1.9-1.4-4.3,1.4-3.7,1.9c0.9,0.7,1.2-0.8,1.8,0.2c0.4,0.7-1.6,2.6-2.7,1.8c-1.1-0.8-0.4-2.4,0.3-3.4c1.2-1.4,3.5-2.7,4.9-1.6
		c1.7,1.3,7.2,26.8,7.2,26.8S110.9,460.6,115.5,460.1z M112.6,452.3c0,0-3.7-8.8-5.6-19.9c2.6,3.7,5,6.6,7.2,9.2
		c1.2,1.4-0.9,4.5-2.7,3.3c-0.9,1.8,1,2.5,2.7,1.9c1.6-0.6,2.4-2.4,2.4-2.4c0.8,0.9,1.5,1.6,2.2,2.3c0.6,0.5-2.2,3.9-4,2.3
		c-0.6,2.4,0.7,3.6,2.1,3.3c2.4-0.4,4-3.6,4-3.6c0.5,0.5,0.8,0.7,0.8,0.7c1.1,1.2-1.3,6.8-5.3,7C114,456.5,112.6,452.3,112.6,452.3z
		"/>
	<path class="st1" d="M131.2,432.6c0,0-25.1-3.2-26.5-4.8c-1.1-1.3,0-3.6,1.3-4.8c0.9-0.8,2.4-1.6,3.2-0.6c0.8,1-0.9,3.1-1.6,2.7
		c-1.1-0.5,0.4-1-0.3-1.7c-0.5-0.6-3.1,2-1.7,3.8c1.5,1.8,4.7,0.5,5.8-2.8c1.6,1.3,2.1,4.4,4.1,5.6c2.1,1.2,4.3-0.2,6.5-2.7
		c-1.7,0.5-4,1.2-6.4-0.7c-2.2-1.8-2.3-3.8-3.8-5.5c-1.5-1.7-3.8-1.3-6.4,1.3c-2.6,2.5-2.7,4.9-1.3,6.1c1.4,1.2,20.8,19.2,20.8,19.2
		s10.5-3.7,10.8-10.2C135.8,433,131.2,432.6,131.2,432.6z M132.1,438.7c0.1,3.8-5.3,6.6-6.5,5.6c0,0-0.3-0.3-0.8-0.7
		c0,0,3-1.8,3.2-4.1c0.2-1.4-1-2.5-3.3-1.8c1.7,1.7-1.4,4.6-2,4.1c-0.7-0.6-1.5-1.2-2.4-1.9c0,0,1.8-1,2.2-2.6
		c0.5-1.6-0.3-3.5-2-2.5c1.3,1.6-1.6,3.9-3.1,2.8c-2.7-1.9-5.9-4.2-9.7-6.4c10.9,0.9,20,4,20,4S132,436.3,132.1,438.7z"/>
	<path class="st1" d="M72.2,414.1c0,0,25,7.5,26.2,9.3c1,1.5-0.5,3.7-2,4.7c-1,0.7-2.7,1.2-3.4,0.1c-0.7-1.1,1.3-3,2-2.5
		c1,0.7-0.5,0.9,0.1,1.8c0.5,0.7,3.5-1.6,2.2-3.6c-1.3-2.1-4.7-1.3-6.3,1.9c-1.4-1.6-1.5-4.8-3.4-6.4c-1.9-1.6-4.4-0.6-7,1.7
		c1.8-0.2,4.2-0.6,6.4,1.8c2,2.2,1.8,4.3,3.1,6.3c1.3,2,3.6,1.9,6.7-0.3c3-2.1,3.4-4.5,2.2-6c-1.2-1.5-18-22.6-18-22.6
		s-11.6,1.5-12.8,8C67.5,413,72.2,414.1,72.2,414.1z M72.1,407.8c0.5-3.9,6.3-5.9,7.4-4.7c0,0,0.2,0.3,0.7,0.9c0,0-3.3,1.3-3.9,3.7
		c-0.4,1.4,0.7,2.7,3.1,2.3c-1.5-2,2.1-4.4,2.6-3.8c0.6,0.7,1.3,1.5,2.1,2.4c0,0-1.9,0.7-2.6,2.2c-0.7,1.6-0.2,3.6,1.7,2.8
		c-1.1-1.8,2.2-3.7,3.5-2.4c2.5,2.4,5.1,5,8.6,7.9c-10.9-2.7-19.4-7.2-19.4-7.2S71.8,410.2,72.1,407.8z"/>
	<path class="st1" d="M92.6,390.7c-6.5-0.2-11.1,9.4-11.1,9.4S97.9,421,99,422.5c1.1,1.5,3.4,1.6,6.1-0.8c2.8-2.4,3.4-4.7,1.9-6.3
		c-1.6-1.6-3.6-1.9-5.2-4.2c-1.7-2.5-0.8-4.8-0.2-6.4c-2.7,2-4.3,4.1-3.2,6.3c1,2.1,4.1,2.9,5.2,4.5c-3.4,0.8-5,3.8-3.3,5.5
		c1.6,1.6,4.4-0.8,3.9-1.4c-0.7-0.8-1.3,0.6-1.7-0.5c-0.3-0.8,2-2.3,2.9-1.4s0,2.4-0.9,3.2c-1.3,1.2-3.8,2.1-4.9,0.9
		c-1.4-1.5-2.5-26.2-2.5-26.2S97,390.9,92.6,390.7z M94.1,398c0,0,2.4,9.4,2.4,20.3c-1.9-3.9-3.9-7.3-5.6-10.2
		c-0.9-1.6,1.6-4.2,3.1-2.8c1.2-1.6-0.6-2.5-2.3-2.2c-1.6,0.3-2.7,2-2.7,2c-0.6-1-1.2-1.8-1.7-2.5c-0.5-0.6,2.7-3.5,4.2-1.6
		c0.9-2.3-0.1-3.5-1.5-3.5c-2.4,0.1-4.4,2.9-4.4,2.9c-0.4-0.5-0.6-0.8-0.6-0.8c-0.9-1.3,2.4-6.4,6.1-6C93.3,393.9,94.1,398,94.1,398
		z"/>
	<path class="st1" d="M64.5,403c6.7,1.5,12.8-8.5,12.8-8.5s-13-23.7-13.9-25.4c-0.9-1.7-3.3-2.2-6.5-0.4c-3.3,1.9-4.4,4.1-3,6
		c1.4,1.9,3.4,2.6,4.7,5.3c1.3,2.9,0,5-0.9,6.5c3.1-1.5,5.1-3.3,4.4-5.7c-0.7-2.4-3.7-3.7-4.6-5.6c3.7-0.1,5.8-2.9,4.4-4.9
		c-1.4-1.9-4.7,0-4.3,0.6c0.6,1,1.4-0.4,1.7,0.8c0.2,0.8-2.5,2-3.2,0.9c-0.8-1.1,0.4-2.4,1.4-3.1c1.6-1,4.3-1.4,5.3,0.1
		c1.2,1.8-2,27.6-2,27.6S59.9,402,64.5,403z M64.3,394.8c0,0-0.7-9.5,1.2-20.6c1.3,4.3,2.7,7.8,3.9,11c0.7,1.8-2.4,4-3.7,2.3
		c-1.5,1.4,0.2,2.7,2,2.6c1.8,0,3.2-1.5,3.2-1.5c0.5,1.1,1,2,1.4,2.9c0.4,0.7-3.4,3-4.7,0.8c-1.3,2.1-0.5,3.6,0.9,3.8
		c2.5,0.4,5.1-2.1,5.1-2.1c0.3,0.6,0.5,0.9,0.5,0.9c0.7,1.5-3.6,6-7.4,4.9C64.3,399.1,64.3,394.8,64.3,394.8z"/>
	<path class="st1" d="M88.9,382.1c0,0-23.3-11.1-24.2-13c-0.7-1.5,1.2-3.4,2.8-4.1c1.1-0.5,2.9-0.7,3.3,0.5s-1.9,2.6-2.5,2.1
		c-0.9-0.8,0.7-0.8,0.2-1.7c-0.3-0.7-3.7,0.9-2.9,3c0.9,2.2,4.5,2,6.6-0.8c1.1,1.7,0.6,4.8,2.2,6.6c1.6,1.8,4.2,1.2,7.2-0.5
		c-1.8-0.1-4.3-0.1-6-2.7c-1.6-2.4-1-4.4-1.9-6.4c-0.9-2.1-3.2-2.4-6.7-0.8c-3.4,1.5-4.2,3.7-3.3,5.3c0.9,1.6,13.9,24.8,13.9,24.8
		s11.5-0.1,13.9-6.1C93.3,384,88.9,382.1,88.9,382.1z M87.8,388.2c-1.2,3.6-7.3,4.6-8.2,3.2c0,0-0.2-0.3-0.5-0.9
		c0,0,3.5-0.7,4.5-2.9c0.6-1.3-0.2-2.7-2.7-2.7c1.1,2.1-2.9,3.9-3.3,3.2c-0.5-0.8-1-1.6-1.7-2.6c0,0,2-0.3,3-1.7
		c1-1.4,0.9-3.4-1.1-3c0.7,1.9-2.8,3.2-3.9,1.7c-2-2.7-4.4-5.9-7.3-9.2c10.3,4.3,18.2,10.2,18.2,10.2S88.5,385.9,87.8,388.2z"/>
	<path class="st1" d="M37.8,345.1c0,0,22.1,14.9,22.7,17c0.5,1.7-1.7,3.3-3.6,3.8c-1.2,0.3-3,0.3-3.4-1c-0.3-1.3,2.3-2.4,2.9-1.7
		c0.8,1-0.8,0.7-0.5,1.7c0.2,0.8,4-0.3,3.4-2.6c-0.6-2.4-4.2-2.7-6.8-0.2c-0.9-1.9,0.2-4.9-1.2-7c-1.4-2.1-4.2-1.9-7.4-0.7
		c1.8,0.4,4.4,0.8,5.7,3.7c1.2,2.7,0.3,4.6,0.9,6.8s2.9,2.9,6.7,1.9c3.7-1,4.9-3.1,4.2-4.9c-0.7-1.7-10.2-26.7-10.2-26.7
		s-11.9-2.3-15.3,3.4C33.6,342.5,37.8,345.1,37.8,345.1z M39.9,339.2c1.8-3.5,8.2-3.5,8.8-2c0,0,0.1,0.4,0.4,1c0,0-3.7,0.2-5.1,2.2
		c-0.8,1.2-0.2,2.7,2.3,3.2c-0.8-2.3,3.6-3.5,3.8-2.8c0.4,0.8,0.8,1.8,1.3,2.9c0,0-2.1,0-3.3,1.3c-1.3,1.3-1.4,3.3,0.7,3.2
		c-0.4-2,3.4-2.8,4.3-1.1c1.6,3,3.3,6.3,5.8,10.1c-9.9-6-16.8-12.8-16.8-12.8S38.8,341.4,39.9,339.2z"/>
	<path class="st1" d="M65.9,329.9c-6.3-2.3-14.1,5.2-14.1,5.2s9.2,24.6,9.7,26.4c0.6,1.7,2.9,2.5,6.3,1.2c3.6-1.4,5-3.3,3.9-5.3
		c-1-2-2.9-2.9-3.7-5.6c-0.8-2.9,0.8-4.7,2-6c-3.3,1-5.6,2.5-5.3,4.8c0.3,2.3,3,4,3.6,5.9c-3.6-0.4-6.2,2-5.1,4.1c1,2,4.6,0.6,4.3,0
		c-0.4-1-1.5,0.2-1.5-1c0-0.8,2.7-1.5,3.3-0.4c0.6,1.1-0.8,2.2-1.9,2.7c-1.7,0.7-4.4,0.8-5.2-0.7c-0.9-1.9,6.3-25.2,6.3-25.2
		S70.2,331.4,65.9,329.9z M64.9,337.1c0,0-0.8,9.5-4.5,19.6c-0.6-4.3-1.4-8.1-2.1-11.3c-0.4-1.7,3-3.4,4-1.6
		c1.7-1.2,0.3-2.5-1.5-2.8c-1.7-0.2-3.4,1-3.4,1c-0.3-1.1-0.6-2.1-0.9-2.9c-0.2-0.7,3.8-2.4,4.7-0.2c1.7-1.8,1.1-3.3-0.3-3.7
		c-2.4-0.7-5.3,1.3-5.3,1.3c-0.2-0.6-0.4-1-0.4-1c-0.5-1.5,4.5-5.2,8.1-3.6C65.6,333,64.9,337.1,64.9,337.1z"/>
	<path class="st1" d="M34.4,332.8c5.8,3.3,14.8-4.1,14.8-4.1s-4.7-25.6-5-27.4s-2.4-3-6-2.2c-3.8,0.8-5.4,2.5-4.8,4.6
		c0.7,2.2,2.4,3.4,2.7,6.2c0.3,3-1.6,4.6-3,5.7c3.4-0.4,5.9-1.6,6-4c0.1-2.4-2.3-4.5-2.6-6.5c3.5,1,6.4-1,5.7-3.3
		c-0.7-2.2-4.4-1.4-4.2-0.7c0.3,1.1,1.5,0.1,1.3,1.2c-0.1,0.8-2.9,1.1-3.3-0.1c-0.4-1.2,1.1-2.1,2.3-2.4c1.8-0.4,4.5,0,5,1.6
		c0.6,2-10.6,24.8-10.6,24.8S30.4,330.5,34.4,332.8z M36.7,325.1c0,0,2.4-9,7.7-18.6c-0.2,4.4,0,7.9,0.2,11.2c0.1,1.8-3.5,2.9-4.2,1
		c-1.9,0.9-0.7,2.5,1,3c1.7,0.5,3.5-0.5,3.5-0.5c0.1,1.1,0.3,2.2,0.4,3c0.1,0.7-4.2,1.7-4.7-0.6c-1.9,1.5-1.6,3.1-0.3,3.8
		c2.2,1.1,5.4-0.4,5.4-0.4c0.1,0.7,0.2,1,0.2,1c0.2,1.6-5.3,4.5-8.6,2.3C35.4,329.1,36.7,325.1,36.7,325.1z"/>
	<path class="st1" d="M64,320.7c0,0-18.5-17-18.7-19c-0.1-1.6,2.2-2.8,4-3c1.2-0.1,2.9,0.2,3,1.4c0.1,1.2-2.6,1.9-3,1.2
		c-0.6-1,0.9-0.5,0.8-1.5c-0.1-0.7-3.8-0.3-3.7,1.9c0.1,2.3,3.6,3.1,6.5,1.2c0.5,1.9-1,4.5-0.1,6.7s3.6,2.4,7,1.7
		c-1.7-0.6-4-1.4-4.8-4.2c-0.7-2.6,0.4-4.3,0.3-6.5c-0.2-2.2-2.3-3.1-6.1-2.7c-3.7,0.4-5.2,2.2-4.8,3.9c0.4,1.7,5.2,26.9,5.2,26.9
		s10.9,3.2,15.1-1.6C67.6,323.7,64,320.7,64,320.7z M61.1,325.9c-2.3,3-8.4,2.1-8.7,0.6c0,0-0.1-0.3-0.2-1c0,0,3.5,0.4,5.2-1.3
		c1-1,0.7-2.5-1.6-3.3c0.4,2.3-4,2.7-4.1,2c-0.2-0.8-0.4-1.8-0.7-2.9c0,0,2,0.3,3.4-0.7c1.4-1,1.9-2.8-0.1-3c0.1,2-3.7,2.1-4.2,0.4
		c-1-3-2.3-6.7-4-10.6c8.3,7,13.9,14.7,13.9,14.7S62.5,324.1,61.1,325.9z"/>
	<path class="st1" d="M27.2,272.3c0,0,15.8,20.2,15.6,22.3c-0.1,1.7-2.6,2.6-4.5,2.5c-1.2,0-2.9-0.6-2.8-1.9c0.1-1.3,3-1.5,3.2-0.8
		c0.4,1.1-1,0.4-1,1.5c0,0.8,3.8,0.8,4-1.4c0.2-2.4-3.1-3.7-6.3-2.1c-0.2-2,1.7-4.5,1.2-6.9c-0.6-2.3-3.2-3-6.7-2.8
		c1.6,0.9,3.8,2,4.1,5.1c0.3,2.8-1.2,4.4-1.3,6.6c-0.2,2.3,1.8,3.6,5.6,3.7c3.7,0.1,5.6-1.5,5.5-3.3c-0.1-1.8-0.8-27.8-0.8-27.8
		s-10.3-5.6-15.4-1.2C24.1,268.7,27.2,272.3,27.2,272.3z M31.1,267.4c2.8-2.7,8.7-0.9,8.9,0.7c0,0,0,0.4,0,1c0,0-3.5-0.9-5.4,0.6
		c-1.1,0.9-1.1,2.5,1.1,3.6c0-2.4,4.4-2.2,4.5-1.5c0.1,0.9,0.2,1.9,0.3,3.1c0,0-2-0.6-3.5,0.2c-1.6,0.8-2.4,2.6-0.4,3.2
		c0.3-2,4.1-1.6,4.3,0.2c0.5,3.3,1.1,6.8,2.1,11.1c-7.2-8.4-11.5-16.8-11.5-16.8S29.3,269.1,31.1,267.4z"/>
	<path class="st1" d="M58.3,266.1c-5.1-3.9-14.8,0.8-14.8,0.8s0.6,25.6,0.6,27.3c0,1.8,1.8,3.2,5.5,2.9c3.8-0.3,5.7-1.6,5.4-3.8
		c-0.3-2.2-1.8-3.6-1.6-6.3c0.2-2.9,2.3-4.1,3.8-5c-3.4,0-6,0.7-6.5,3c-0.5,2.2,1.6,4.6,1.5,6.5c-3.2-1.4-6.4,0.1-6.1,2.3
		c0.3,2.2,4.1,1.9,4,1.2c-0.1-1-1.4-0.3-1.1-1.4c0.2-0.8,3-0.6,3.2,0.6c0.2,1.2-1.5,1.9-2.7,2c-1.8,0.1-4.4-0.6-4.6-2.2
		c-0.2-2,14-21.6,14-21.6S61.8,268.8,58.3,266.1z M55,272.6c0,0-3.8,8.6-10.5,17c0.9-4.1,1.3-7.9,1.7-11.1c0.2-1.7,3.9-2.3,4.2-0.4
		c2-0.6,1.1-2.3-0.5-3c-1.5-0.7-3.5,0-3.5,0c0.1-1.1,0.1-2.1,0.1-2.9c0-0.7,4.3-1.1,4.4,1.2c2.1-1.2,2.1-2.7,0.9-3.5
		c-2-1.3-5.4-0.3-5.4-0.3c0-0.7,0-1,0-1c0.1-1.5,5.8-3.5,8.7-1.1C57,269,55,272.6,55,272.6z"/>
	<path class="st1" d="M27.4,260c4.6,4.8,15.4,0.1,15.4,0.1s3.2-25.9,3.5-27.7c0.3-1.8-1.4-3.6-5.1-3.8c-3.8-0.2-5.9,0.9-6,3.2
		c0,2.3,1.3,3.9,0.7,6.7c-0.6,3-2.9,4-4.6,4.7c3.4,0.5,6.1,0.1,6.9-2.2c0.8-2.3-0.9-4.9-0.5-6.9c3.1,1.9,6.5,0.8,6.5-1.6
		c0-2.3-3.8-2.5-3.9-1.8c-0.1,1.1,1.4,0.5,0.9,1.5c-0.3,0.8-3.2,0.2-3.1-1c0-1.3,1.7-1.7,3-1.7c1.9,0.1,4.3,1.2,4.3,2.9
		c0,2.1-17.7,21-17.7,21S24.2,256.7,27.4,260z M32,253.3c0,0,5-8,13-15.8c-1.5,4.2-2.4,7.6-3.2,10.9c-0.5,1.8-4.3,1.9-4.3-0.2
		c-2.1,0.3-1.4,2.2,0.1,3.2c1.5,0.9,3.5,0.5,3.5,0.5c-0.2,1.1-0.4,2.1-0.6,3c-0.1,0.7-4.5,0.5-4.3-1.8c-2.3,1-2.5,2.6-1.5,3.5
		c1.8,1.6,5.3,1.1,5.3,1.1c-0.1,0.7-0.1,1-0.1,1c-0.3,1.5-6.4,2.9-8.9-0.1C29.5,256.7,32,253.3,32,253.3z"/>
	<path class="st1" d="M59.5,256.4c0,0-12.6-21.3-12.1-23.3c0.4-1.6,2.9-2.1,4.7-1.8c1.2,0.2,2.7,1,2.5,2.2s-3.1,1.1-3.2,0.3
		c-0.2-1.1,1-0.2,1.2-1.3c0.1-0.7-3.6-1.3-4.1,0.9c-0.6,2.2,2.5,4,5.8,2.9c-0.1,2-2.3,4.1-2.1,6.4c0.3,2.3,2.8,3.3,6.2,3.5
		c-1.4-1-3.4-2.4-3.3-5.4c0.1-2.7,1.7-4,2.2-6.1c0.5-2.1-1.2-3.6-5-4.2c-3.6-0.6-5.6,0.7-5.8,2.5c-0.1,1.8-3.2,27.2-3.2,27.2
		s9.4,6,14.9,2.5C62,260.2,59.5,256.4,59.5,256.4z M55,260.6c-3.1,2.2-8.6-0.3-8.5-1.8c0,0,0.1-0.3,0.1-1c0,0,3.2,1.3,5.4,0.1
		c1.2-0.7,1.4-2.2-0.6-3.6c-0.3,2.3-4.6,1.5-4.5,0.8c0.1-0.9,0.1-1.8,0.2-2.9c0,0,1.8,0.8,3.4,0.3c1.6-0.6,2.7-2.2,0.8-3
		c-0.5,1.9-4.2,1-4.2-0.8c0-3.2-0.1-7-0.6-11.2c5.9,9,8.9,17.9,8.9,17.9S57,259.2,55,260.6z"/>
	<path class="st1" d="M38.9,199.9c0,0,9,23.7,8.2,25.7c-0.6,1.6-3.3,1.7-5.1,1.2c-1.2-0.4-2.6-1.4-2.1-2.6c0.5-1.2,3.3-0.7,3.3,0.1
		c0,1.2-1.1,0.1-1.4,1.1c-0.3,0.7,3.4,1.8,4.3-0.3c0.9-2.2-1.8-4.4-5.4-3.8c0.4-2,3-3.9,3.2-6.3c0.1-2.4-2.2-3.7-5.6-4.5
		c1.3,1.3,3,3,2.4,6c-0.6,2.8-2.4,3.9-3.3,6c-0.9,2.1,0.6,3.9,4.3,5c3.6,1.1,5.8,0.1,6.2-1.7c0.5-1.8,7.6-26.9,7.6-26.9
		s-8.2-8.2-14.4-5.3C37,195.6,38.9,199.9,38.9,199.9z M44,196.2c3.5-1.9,8.7,1.5,8.3,3c0,0-0.1,0.4-0.3,1c0,0-3-1.8-5.4-0.9
		c-1.4,0.5-1.8,2.1,0,3.8c0.7-2.3,4.9-0.9,4.7-0.2c-0.2,0.9-0.4,1.9-0.7,3c0,0-1.7-1.1-3.4-0.7c-1.8,0.4-3.1,1.9-1.3,2.9
		c0.9-1.9,4.4-0.4,4.1,1.4c-0.5,3.3-1,6.8-1.3,11.2c-4.4-10.1-5.9-19.2-5.9-19.2S41.9,197.4,44,196.2z"/>
	<path class="st1" d="M70.5,202.4c-3.7-5.2-14.4-3.3-14.4-3.3s-7.2,24.7-7.7,26.4c-0.5,1.7,0.8,3.6,4.4,4.3c3.7,0.8,5.9,0,6.3-2.2
		c0.4-2.2-0.6-3.9,0.3-6.5c1-2.8,3.4-3.3,5.2-3.8c-3.3-1-6-0.9-7.1,1.1c-1.1,2,0.1,4.8-0.6,6.7c-2.7-2.2-6.2-1.7-6.5,0.6
		c-0.3,2.2,3.3,3,3.5,2.2c0.2-1-1.3-0.6-0.6-1.6c0.5-0.7,3.1,0.2,2.9,1.4c-0.2,1.2-2,1.4-3.1,1.2c-1.8-0.4-4-1.7-3.7-3.3
		c0.4-2,20-17,20-17S73,205.9,70.5,202.4z M65.4,207.7c0,0-6.3,7.2-15.2,13.5c2.1-3.7,3.7-7.2,4.9-10.2c0.7-1.6,4.4-1.2,4.2,0.8
		c2,0,1.7-1.9,0.4-3c-1.3-1.1-3.3-1-3.3-1c0.4-1,0.7-2,1-2.8c0.2-0.7,4.5,0.1,3.9,2.3c2.4-0.6,2.8-2.1,2-3.1c-1.5-1.8-5-1.8-5-1.8
		c0.2-0.6,0.3-1,0.3-1c0.5-1.4,6.7-1.8,8.6,1.3C68.4,204.8,65.4,207.7,65.4,207.7z"/>
	<path class="st1" d="M42.3,188.1c2.9,5.8,14.6,4.4,14.6,4.4s11-23.6,11.9-25.3c0.8-1.6-0.2-3.7-3.7-5c-3.6-1.3-5.9-0.8-6.6,1.3
		c-0.7,2.1,0,4.1-1.4,6.6c-1.5,2.7-4,2.9-5.8,3.2c3.1,1.4,5.8,1.8,7.2-0.1c1.5-1.9,0.7-4.9,1.7-6.7c2.3,2.6,5.9,2.6,6.6,0.3
		c0.7-2.2-2.8-3.5-3.1-2.8c-0.4,1,1.2,0.8,0.4,1.7c-0.6,0.6-3.1-0.6-2.6-1.9c0.4-1.2,2.2-1.1,3.3-0.8c1.7,0.6,3.7,2.3,3.1,3.9
		c-0.7,2-23.2,14.9-23.2,14.9S40.4,184.2,42.3,188.1z M48.7,183.1c0,0,7.2-6.2,17.2-11.3c-2.7,3.5-4.6,6.6-6.4,9.4
		c-1,1.6-4.6,0.6-4-1.4c-2-0.2-2,1.7-0.9,3c1.1,1.3,3.1,1.4,3.1,1.4c-0.6,1-1.1,1.9-1.5,2.7c-0.3,0.7-4.4-0.7-3.5-2.9
		c-2.5,0.3-3.2,1.7-2.5,2.9c1.2,2.1,4.7,2.5,4.7,2.5c-0.3,0.6-0.4,1-0.4,1c-0.7,1.4-7,0.9-8.4-2.6C45.3,185.7,48.7,183.1,48.7,183.1
		z"/>
	<path class="st1" d="M73.8,193.7c0,0-5.3-23.7-4.3-25.5c0.8-1.4,3.4-1.2,5-0.4c1.1,0.5,2.3,1.7,1.6,2.7c-0.6,1.1-3.3,0.2-3.2-0.6
		c0.1-1.1,1,0.1,1.5-0.9c0.3-0.7-3-2.2-4.1-0.3c-1.2,2,1.1,4.5,4.6,4.3c-0.7,1.8-3.5,3.2-3.9,5.5c-0.5,2.2,1.6,3.9,4.7,5
		c-1-1.4-2.5-3.2-1.5-6c1-2.6,2.9-3.3,4-5.2c1.1-1.9-0.1-3.8-3.4-5.4c-3.3-1.6-5.5-0.9-6.2,0.7c-0.7,1.6-11.4,24.9-11.4,24.9
		s7,8.4,13.3,6.6C75,198,73.8,193.7,73.8,193.7z M68.3,196.4c-3.6,1.3-8.1-2.7-7.5-4.1c0,0,0.2-0.3,0.4-0.9c0,0,2.7,2.1,5,1.6
		c1.4-0.3,2-1.7,0.6-3.6c-1,2.1-4.8,0.2-4.5-0.5c0.3-0.8,0.7-1.7,1.1-2.7c0,0,1.5,1.3,3.2,1.2c1.7-0.1,3.2-1.3,1.7-2.6
		c-1.1,1.6-4.3-0.2-3.7-1.9c1-3,2-6.7,2.9-10.8c2.8,10.1,2.9,19.4,2.9,19.4S70.5,195.6,68.3,196.4z"/>
	<path class="st1" d="M71.7,134.4c0,0,1.2,25-0.2,26.6c-1.1,1.3-3.7,0.7-5.2-0.3c-1-0.7-2-2-1.2-3c0.8-1,3.3,0.3,3.1,1.1
		c-0.3,1.1-1-0.2-1.7,0.7c-0.5,0.6,2.6,2.7,4.1,0.9c1.6-1.9-0.3-4.7-3.9-5.1c1-1.8,4.1-2.8,5-5.1c0.9-2.2-0.9-4.2-3.9-5.8
		c0.8,1.6,2,3.7,0.4,6.3c-1.4,2.5-3.5,3-5,4.8c-1.5,1.8-0.6,3.9,2.5,6c3,2,5.4,1.7,6.4,0.1c1-1.6,15.5-23.4,15.5-23.4
		s-5.2-10-11.9-9.1C71.3,129.8,71.7,134.4,71.7,134.4z M77.8,132.4c3.9-0.8,7.7,3.8,6.9,5.2c0,0-0.2,0.3-0.6,0.9
		c0,0-2.3-2.5-4.8-2.3c-1.5,0.1-2.4,1.5-1.2,3.6c1.4-2,4.9,0.5,4.5,1.1c-0.5,0.8-1,1.7-1.6,2.7c0,0-1.3-1.5-3-1.7
		c-1.8-0.2-3.5,0.9-2.2,2.4c1.4-1.5,4.3,0.8,3.4,2.4c-1.5,3-3.1,6.2-4.7,10.3C73.6,146.1,75,137,75,137S75.4,132.9,77.8,132.4z"/>
	<path class="st1" d="M100.9,145.6c-1.9-5.9-12.7-7.1-12.7-7.1s-14.4,21.4-15.5,22.9c-1,1.4-0.4,3.6,2.8,5.3
		c3.3,1.8,5.6,1.6,6.6-0.3c1-1.9,0.6-3.9,2.3-6c1.8-2.3,4.3-2.2,6.1-2.2c-2.8-1.8-5.3-2.6-7-0.9c-1.7,1.6-1.4,4.6-2.6,6.1
		c-1.9-2.8-5.3-3.3-6.4-1.2c-1,2,2.2,3.7,2.6,3.1c0.5-0.9-1-1-0.1-1.7c0.6-0.5,2.9,1.1,2.3,2.2c-0.6,1.1-2.3,0.8-3.3,0.2
		c-1.6-0.8-3.3-2.7-2.5-4.2c1-1.8,24.2-10.5,24.2-10.5S102.2,149.6,100.9,145.6z M94.4,149.2c0,0-8.2,5.1-18.6,8.5
		c3.1-3,5.7-5.8,7.8-8.3c1.2-1.3,4.6,0.1,3.7,1.9c1.9,0.5,2.2-1.3,1.3-2.8c-0.9-1.4-2.8-1.8-2.8-1.8c0.7-0.9,1.3-1.7,1.8-2.4
		c0.4-0.6,4.2,1.4,3,3.3c2.5,0.1,3.3-1.2,2.8-2.4c-0.9-2.1-4.2-3.1-4.2-3.1c0.4-0.5,0.6-0.8,0.6-0.8c0.9-1.2,6.9,0.1,7.8,3.7
		C98.2,147.2,94.4,149.2,94.4,149.2z"/>
	<path class="st1" d="M79.1,123.7c0.8,6.6,12.2,8.8,12.2,8.8s18-19.9,19.3-21.3c1.3-1.4,1-3.8-1.8-6.1c-2.9-2.4-5.3-2.6-6.6-0.7
		c-1.4,1.9-1.3,4-3.5,6c-2.3,2.2-4.7,1.7-6.5,1.4c2.4,2.4,4.8,3.5,6.8,2.1c2-1.4,2.2-4.6,3.8-6.1c1.3,3.3,4.7,4.3,6.1,2.3
		c1.4-1.9-1.5-4.3-2-3.7c-0.7,0.9,0.8,1.2-0.2,1.8c-0.7,0.4-2.7-1.6-1.9-2.7s2.4-0.5,3.3,0.3c1.4,1.1,2.7,3.4,1.7,4.8
		c-1.3,1.7-26.6,7.6-26.6,7.6S78.6,119.2,79.1,123.7z M86.8,120.7c0,0,8.7-3.9,19.8-5.9c-3.7,2.7-6.4,5.1-9,7.3
		c-1.4,1.2-4.5-0.8-3.3-2.6c-1.8-0.9-2.5,1.1-1.8,2.7c0.6,1.6,2.5,2.4,2.5,2.4c-0.9,0.8-1.6,1.6-2.3,2.2c-0.5,0.6-3.9-2.1-2.3-4
		c-2.4-0.5-3.5,0.7-3.3,2.1c0.5,2.4,3.6,3.9,3.6,3.9c-0.5,0.5-0.7,0.8-0.7,0.8c-1.1,1.1-6.8-1.2-7-5.1
		C82.7,122.2,86.8,120.7,86.8,120.7z"/>
	<path class="st1" d="M106.8,138.9c0,0,2.8-25,4.3-26.5c1.2-1.1,3.6-0.1,4.8,1.2c0.8,0.8,1.6,2.4,0.6,3.2c-0.9,0.9-3.1-0.8-2.8-1.6
		c0.5-1.1,1,0.4,1.7-0.4c0.5-0.5-2.1-3.1-3.8-1.6c-1.8,1.6-0.4,4.7,2.9,5.7c-1.2,1.6-4.3,2.1-5.5,4.2s0.2,4.3,2.8,6.4
		c-0.5-1.7-1.3-4,0.6-6.4c1.7-2.2,3.8-2.4,5.4-3.9c1.7-1.5,1.2-3.8-1.4-6.4c-2.6-2.5-4.9-2.6-6.1-1.2c-1.2,1.4-18.8,21.1-18.8,21.1
		s3.9,10.4,10.3,10.6C106.5,143.5,106.8,138.9,106.8,138.9z M100.7,139.9c-3.8,0.2-6.7-5.1-5.7-6.3c0,0,0.2-0.3,0.7-0.8
		c0,0,1.8,2.9,4.2,3.2c1.4,0.1,2.5-1.1,1.7-3.4c-1.6,1.7-4.6-1.3-4.1-1.9c0.6-0.7,1.2-1.5,1.9-2.4c0,0,1,1.7,2.6,2.2
		c1.6,0.5,3.5-0.3,2.4-2c-1.6,1.3-3.9-1.5-2.9-3c1.9-2.7,4.1-6,6.2-9.8c-0.7,10.9-3.6,20-3.6,20S103.1,139.8,100.7,139.9z"/>
	<path class="st1" d="M124.1,79.8c0,0-7,25-8.8,26.2c-1.4,1-3.7-0.4-4.7-1.9c-0.7-1-1.2-2.6-0.1-3.4c1.1-0.7,3,1.3,2.6,2
		c-0.7,1-0.9-0.5-1.8,0.1c-0.6,0.5,1.6,3.4,3.6,2.2c2.1-1.3,1.2-4.7-2-6.2c1.5-1.4,4.8-1.5,6.3-3.5c1.5-1.9,0.5-4.4-1.8-6.9
		c0.2,1.8,0.7,4.2-1.7,6.4c-2.1,2-4.2,1.9-6.2,3.2c-2,1.3-1.8,3.6,0.4,6.7c2.2,2.9,4.6,3.3,6,2.1c1.4-1.2,22.2-18.3,22.2-18.3
		s-1.6-11.5-8.2-12.6C125.2,75.1,124.1,79.8,124.1,79.8z M130.5,79.6c3.9,0.4,6,6.2,4.8,7.3c0,0-0.3,0.2-0.8,0.7
		c0,0-1.4-3.2-3.7-3.8c-1.4-0.3-2.7,0.7-2.3,3.2c1.9-1.5,4.5,2,3.9,2.5c-0.7,0.6-1.5,1.3-2.3,2.1c0,0-0.7-1.9-2.3-2.6
		c-1.6-0.7-3.6-0.2-2.8,1.7c1.8-1.1,3.7,2.1,2.4,3.5c-2.4,2.5-4.9,5.2-7.7,8.7c2.5-10.9,6.8-19.5,6.8-19.5S128,79.3,130.5,79.6z"/>
	<path class="st1" d="M147.8,99.7c0.1-6.5-9.5-10.9-9.5-10.9s-20.5,16.7-21.9,17.8c-1.4,1.1-1.5,3.4,0.9,6.1
		c2.5,2.7,4.7,3.3,6.3,1.7c1.6-1.6,1.8-3.6,4.1-5.3c2.5-1.7,4.7-0.9,6.4-0.3c-2-2.7-4.2-4.2-6.3-3.1c-2.1,1.1-2.8,4.1-4.4,5.3
		c-0.8-3.4-3.9-4.9-5.6-3.2c-1.6,1.6,0.9,4.4,1.4,3.8c0.8-0.7-0.6-1.3,0.4-1.7c0.8-0.3,2.3,1.9,1.4,2.8c-0.9,0.9-2.4,0.1-3.2-0.8
		c-1.2-1.3-2.2-3.7-1-4.9c1.5-1.5,26.1-3,26.1-3S147.7,104.2,147.8,99.7z M140.6,101.3c0,0-9.3,2.5-20.2,2.7c3.9-2,7.2-4,10-5.8
		c1.5-1,4.2,1.5,2.9,3c1.6,1.1,2.5-0.6,2.1-2.3c-0.4-1.6-2-2.7-2-2.7c0.9-0.7,1.8-1.2,2.5-1.8c0.6-0.5,3.5,2.6,1.7,4.2
		c2.3,0.9,3.5-0.1,3.4-1.5c-0.1-2.4-3-4.3-3-4.3c0.5-0.4,0.8-0.7,0.8-0.7c1.3-0.9,6.4,2.2,6.1,6
		C144.7,100.5,140.6,101.3,140.6,101.3z"/>
	<path class="st1" d="M134.8,71.2c-1.3,6.7,8.6,12.5,8.6,12.5s22.7-13.7,24.3-14.6c1.6-0.9,2.1-3.3,0.2-6.5c-2-3.2-4.1-4.2-5.9-2.8
		c-1.8,1.4-2.5,3.5-5,4.8c-2.8,1.4-4.8,0.1-6.4-0.7c1.5,3.1,3.4,5,5.7,4.2c2.3-0.8,3.5-3.8,5.3-4.8c0.2,3.6,3,5.7,4.9,4.2
		c1.8-1.4-0.1-4.7-0.7-4.2c-0.9,0.6,0.4,1.4-0.7,1.7c-0.8,0.2-2-2.4-0.9-3.2s2.4,0.3,3,1.3c1,1.6,1.5,4.2,0.1,5.2
		c-1.7,1.3-26.9-1.1-26.9-1.1S135.6,66.6,134.8,71.2z M142.8,70.7c0,0,9.2-1,20,0.6c-4.2,1.4-7.5,2.9-10.6,4.3
		c-1.7,0.8-3.9-2.2-2.3-3.6c-1.4-1.4-2.6,0.3-2.5,2.1c0.1,1.8,1.5,3.1,1.5,3.1c-1,0.5-2,1-2.8,1.4c-0.7,0.4-3-3.3-0.9-4.6
		c-2.1-1.3-3.5-0.4-3.7,1c-0.3,2.5,2.2,5,2.2,5c-0.6,0.4-0.9,0.6-0.9,0.6c-1.4,0.8-5.9-3.3-4.9-7.2
		C138.5,70.9,142.8,70.7,142.8,70.7z"/>
	<path class="st1" d="M155.7,94.8c0,0,10.1-23.5,12-24.4c1.5-0.7,3.3,1,4.1,2.7c0.5,1.1,0.8,2.8-0.4,3.3c-1.1,0.5-2.6-1.8-2.1-2.4
		c0.8-0.9,0.8,0.7,1.7,0.2c0.7-0.3-1-3.7-3-2.8c-2.1,1-1.8,4.5,1,6.5c-1.6,1.2-4.6,0.7-6.3,2.3c-1.7,1.6-1.1,4.3,0.6,7.2
		c0-1.8,0-4.3,2.5-6c2.3-1.6,4.2-1.1,6.2-2.1c2-0.9,2.2-3.3,0.6-6.7c-1.6-3.3-3.7-4.1-5.2-3.1c-1.5,1-23.7,14.6-23.7,14.6
		s0.4,11.4,6.4,13.6C154,99.2,155.7,94.8,155.7,94.8z M149.8,93.9c-3.5-1.1-4.6-7.1-3.4-8c0,0,0.3-0.2,0.9-0.5c0,0,0.8,3.4,2.9,4.4
		c1.2,0.6,2.6-0.2,2.6-2.7c-2,1.2-3.8-2.8-3.2-3.1c0.7-0.5,1.5-1.1,2.5-1.7c0,0,0.4,2,1.7,2.9c1.4,1,3.3,0.8,2.8-1.2
		c-1.8,0.8-3.2-2.7-1.8-3.8c2.6-2,5.6-4.5,8.7-7.5c-3.9,10.4-9.4,18.4-9.4,18.4S152.1,94.5,149.8,93.9z"/>
	<path class="st1" d="M189.6,42.8c0,0-14,22.1-16.1,22.7c-1.6,0.5-3.3-1.6-3.8-3.4c-0.4-1.2-0.3-3,0.9-3.3c1.2-0.4,2.4,2.2,1.8,2.8
		c-0.9,0.8-0.7-0.8-1.7-0.5c-0.7,0.2,0.4,3.9,2.7,3.3c2.3-0.6,2.5-4.2,0-6.7c1.9-0.9,4.9,0,6.9-1.4c2-1.4,1.8-4.1,0.4-7.3
		c-0.3,1.8-0.7,4.3-3.5,5.7c-2.6,1.3-4.5,0.5-6.7,1.1c-2.2,0.6-2.8,3-1.6,6.6c1.1,3.6,3.2,4.7,4.9,3.9s26-10.8,26-10.8
		s2-11.7-3.8-14.9C192.1,38.5,189.6,42.8,189.6,42.8z M195.6,44.6c3.5,1.6,3.7,7.9,2.2,8.6c0,0-0.3,0.1-1,0.4c0,0-0.3-3.6-2.3-4.9
		c-1.2-0.8-2.7-0.2-3.1,2.4c2.3-0.9,3.5,3.4,2.8,3.7c-0.8,0.4-1.8,0.8-2.8,1.4c0,0-0.1-2.1-1.3-3.2c-1.3-1.2-3.3-1.3-3.1,0.8
		c2-0.5,2.8,3.2,1.2,4.1c-2.9,1.7-6.1,3.5-9.8,6c5.6-9.8,12.2-16.8,12.2-16.8S193.4,43.6,195.6,44.6z"/>
	<path class="st1" d="M205.5,69.7c2.1-6.3-5.5-13.7-5.5-13.7s-24,9.7-25.7,10.4c-1.7,0.6-2.4,2.9-1,6.2c1.5,3.5,3.4,4.7,5.3,3.7
		c1.9-1.1,2.8-3,5.4-3.8c2.8-0.9,4.6,0.7,6,1.8c-1.1-3.2-2.6-5.4-4.9-5c-2.3,0.4-3.8,3.1-5.7,3.7c0.3-3.5-2.1-6-4.2-4.9
		c-1.9,1.1-0.5,4.5,0.2,4.2c1-0.5-0.2-1.4,0.9-1.5c0.8-0.1,1.6,2.6,0.5,3.2c-1.1,0.6-2.2-0.7-2.7-1.8c-0.7-1.7-0.9-4.3,0.6-5.1
		c1.8-0.9,25,5.4,25,5.4S204.1,74,205.5,69.7z M198.3,69c0,0-9.3-0.5-19.5-3.8c4.2-0.7,7.9-1.6,11-2.4c1.7-0.5,3.4,2.8,1.7,3.9
		c1.2,1.6,2.5,0.2,2.7-1.6c0.2-1.7-1.1-3.3-1.1-3.3c1.1-0.3,2-0.7,2.8-0.9c0.7-0.3,2.4,3.7,0.3,4.6c1.8,1.6,3.3,1,3.6-0.4
		c0.6-2.4-1.4-5.1-1.4-5.1c0.6-0.2,0.9-0.4,0.9-0.4c1.4-0.5,5.2,4.2,3.8,7.8C202.4,69.5,198.3,69,198.3,69z"/>
	<path class="st1" d="M201.2,38.4c-3.1,6,5.1,14.5,5.1,14.5s26.5-6.3,28.4-6.7c1.9-0.4,3-2.6,2-6.2c-1.1-3.7-2.9-5.3-5.1-4.5
		c-2.2,0.8-3.4,2.6-6.4,3.1c-3.2,0.5-4.9-1.3-6.2-2.6c0.7,3.4,2,5.8,4.5,5.7c2.5-0.1,4.6-2.6,6.7-3c-0.8,3.5,1.4,6.4,3.8,5.5
		c2.2-0.8,1.2-4.5,0.4-4.3c-1.1,0.3,0,1.5-1.2,1.4c-0.9-0.1-1.3-2.9,0-3.3s2.3,1,2.6,2.2c0.5,1.8,0.3,4.5-1.4,5
		c-2.1,0.7-26.6-9.1-26.6-9.1S203.3,34.2,201.2,38.4z M209.3,40.3c0,0,9.5,1.8,19.9,6.5c-4.6,0.1-8.3,0.5-11.8,0.9
		c-1.9,0.2-3.3-3.3-1.3-4.1c-1-1.8-2.7-0.5-3.1,1.2c-0.4,1.7,0.7,3.5,0.7,3.5c-1.2,0.2-2.2,0.4-3.2,0.6c-0.8,0.2-2.1-4.1,0.4-4.7
		c-1.7-1.8-3.4-1.4-4-0.1c-1,2.3,0.8,5.4,0.8,5.4c-0.7,0.2-1.1,0.3-1.1,0.3c-1.6,0.3-5-5-2.9-8.4C205,39.2,209.3,40.3,209.3,40.3z"
		/>
	<path class="st1" d="M215.5,67.3c0,0,16.7-19.5,18.8-19.8c1.7-0.2,3,2,3.4,3.8c0.2,1.2,0,2.9-1.3,3.1c-1.3,0.2-2.1-2.5-1.4-2.9
		c1-0.6,0.6,0.9,1.6,0.7c0.8-0.1,0-3.8-2.2-3.6c-2.4,0.3-3.1,3.8-0.8,6.5c-2,0.6-4.8-0.7-7,0.4s-2.3,3.8-1.4,7
		c0.5-1.7,1.2-4.1,4.1-5c2.7-0.9,4.5,0.2,6.8-0.1c2.3-0.3,3.2-2.5,2.5-6.2c-0.7-3.6-2.6-5-4.4-4.5s-27.8,6.8-27.8,6.8
		s-2.8,11,2.5,14.9C212.6,71,215.5,67.3,215.5,67.3z M209.9,64.6c-3.2-2.1-2.6-8.2-1.1-8.7c0,0,0.4-0.1,1-0.2c0,0-0.2,3.5,1.7,5.1
		c1.1,0.9,2.7,0.5,3.3-1.8c-2.4,0.5-3.1-3.8-2.3-4c0.9-0.3,1.8-0.6,2.9-0.9c0,0-0.2,2,0.9,3.3c1.1,1.3,3.1,1.7,3.2-0.3
		c-2,0.2-2.4-3.6-0.7-4.2c3.1-1.2,6.9-2.7,10.8-4.6C222.8,57,215.1,63,215.1,63S211.9,65.9,209.9,64.6z"/>
	<path class="st1" d="M264,27.5c0,0-20.3,17-22.5,17c-1.8,0-2.8-2.5-2.9-4.4c0-1.2,0.5-2.9,1.8-2.9s1.8,2.9,1,3.2
		c-1.2,0.5-0.5-1-1.6-0.9c-0.8,0-0.6,3.8,1.7,3.9c2.5,0.1,3.7-3.3,1.9-6.4c2.1-0.3,4.9,1.5,7.2,0.7c2.4-0.7,2.9-3.4,2.5-6.9
		c-0.8,1.6-1.9,3.9-5.1,4.4c-2.9,0.5-4.6-0.9-7-0.9c-2.4-0.1-3.6,2-3.5,5.9c0.1,3.7,1.9,5.5,3.8,5.2c1.9-0.2,29.1-2.6,29.1-2.6
		s5.3-10.7,0.4-15.4C267.7,24.2,264,27.5,264,27.5z M269.5,31.1c3,2.6,1.4,8.7-0.2,8.9c0,0-0.4,0-1.1,0.1c0,0,0.7-3.5-0.9-5.4
		c-1-1.1-2.6-1-3.7,1.3c2.5-0.1,2.6,4.3,1.8,4.4c-0.9,0.1-2,0.3-3.2,0.5c0,0,0.5-2-0.4-3.5c-0.9-1.5-2.9-2.2-3.3-0.2
		c2.1,0.1,1.9,3.9,0,4.3c-3.4,0.7-7.1,1.5-11.5,2.8c8.4-7.7,16.9-12.5,16.9-12.5S267.6,29.4,269.5,31.1z"/>
	<path class="st1" d="M272.3,58.1c3.8-5.4-1.7-14.8-1.7-14.8s-26.7,2.2-28.6,2.2s-3.2,2-2.8,5.7c0.5,3.8,2,5.6,4.3,5.1
		c2.2-0.4,3.6-2,6.5-2c3.1,0,4.5,2,5.5,3.5c-0.1-3.4-1.1-5.9-3.5-6.3c-2.4-0.3-4.7,1.8-6.7,1.9c1.3-3.3-0.4-6.4-2.8-5.9
		c-2.2,0.5-1.8,4.2-1,4.1c1.1-0.2,0.2-1.4,1.4-1.2c0.8,0.2,0.8,3-0.4,3.2c-1.3,0.2-2-1.3-2.2-2.5c-0.3-1.8,0.3-4.4,2-4.7
		c2.1-0.4,23.5,12.7,23.5,12.7S269.7,61.8,272.3,58.1z M265.4,55.3c0,0-9.2-3.3-18.4-9.5c4.4,0.6,8.4,0.8,11.7,1
		c1.8,0.1,2.7,3.7,0.7,4.2c0.7,1.9,2.5,0.9,3.1-0.7c0.6-1.6-0.2-3.5-0.2-3.5c1.2,0,2.2,0,3.1-0.1c0.8-0.1,1.4,4.3-1,4.5
		c1.4,2.1,3,1.9,3.7,0.7c1.3-2.1,0-5.4,0-5.4c0.7,0,1-0.1,1-0.1c1.6,0,4.1,5.6,1.6,8.6C269.3,57,265.4,55.3,265.4,55.3z"/>
	<path class="st1" d="M277.9,26.7c-4.9,4.6,0.1,15.1,0.1,15.1s27,2.9,28.8,3.1c1.9,0.3,3.7-1.4,3.9-5c0.2-3.8-1-5.8-3.4-5.8
		c-2.4,0-4.1,1.3-7,0.8c-3.1-0.6-4.1-2.8-4.9-4.4c-0.5,3.4,0,6,2.3,6.8c2.4,0.8,5.1-0.9,7.2-0.6c-1.9,3-0.8,6.4,1.7,6.3
		c2.4,0,2.6-3.8,1.8-3.8c-1.1-0.1-0.5,1.4-1.6,0.9c-0.8-0.3-0.3-3.1,1.1-3.1c1.3,0,1.8,1.7,1.8,2.9c-0.1,1.8-1.2,4.2-2.9,4.2
		c-2.2,0-22-17.1-22-17.1S281.3,23.6,277.9,26.7z M285,31.2c0,0,8.3,4.8,16.5,12.6c-4.3-1.4-8-2.2-11.3-3c-1.9-0.4-2-4.2,0.1-4.2
		c-0.4-2-2.3-1.4-3.3,0.1c-0.9,1.4-0.5,3.4-0.5,3.4c-1.2-0.2-2.2-0.4-3.2-0.5c-0.8-0.1-0.6-4.4,1.9-4.2c-1-2.3-2.7-2.4-3.7-1.4
		c-1.7,1.8-1,5.2-1,5.2c-0.7-0.1-1.1-0.1-1.1-0.1c-1.6-0.3-3.1-6.3,0-8.7C281.3,28.7,285,31.2,285,31.2z"/>
	<path class="st1" d="M282,58.1c0,0,22.1-12.5,24.1-12.1c1.7,0.3,2.2,2.8,1.9,4.6c-0.2,1.2-1,2.7-2.2,2.4c-1.3-0.3-1.2-3-0.4-3.2
		c1.2-0.2,0.3,1,1.3,1.2c0.8,0.1,1.3-3.5-0.9-4c-2.3-0.5-4.1,2.5-2.9,5.7c-2-0.1-4.3-2.2-6.7-2c-2.4,0.3-3.4,2.7-3.6,6.1
		c1.1-1.4,2.5-3.4,5.5-3.3c2.8,0.1,4.2,1.6,6.4,2.1c2.2,0.5,3.8-1.3,4.3-4.9c0.6-3.6-0.8-5.5-2.6-5.6c-1.8-0.1-28.4-2.8-28.4-2.8
		s-6.2,9.3-2.5,14.7C278,60.6,282,58.1,282,58.1z M277.6,53.8c-2.4-3,0.2-8.5,1.8-8.4c0,0,0.4,0,1,0.1c0,0-1.3,3.2-0.1,5.3
		c0.7,1.2,2.3,1.4,3.7-0.6c-2.4-0.3-1.6-4.5-0.9-4.4c0.9,0,1.9,0.1,3.1,0.1c0,0-0.8,1.8-0.2,3.4c0.6,1.6,2.3,2.6,3.1,0.8
		c-2-0.5-1.1-4.1,0.7-4.1c3.3-0.1,7.3-0.2,11.7-0.7c-9.3,5.9-18.5,8.9-18.5,8.9S279,55.7,277.6,53.8z"/>
	<path class="st1" d="M340.5,37.3c0,0-24.6,9.1-26.6,8.3c-1.7-0.6-1.8-3.2-1.3-5c0.4-1.1,1.4-2.6,2.7-2.1c1.3,0.5,0.7,3.2-0.1,3.3
		c-1.2,0-0.1-1-1.2-1.4c-0.8-0.2-1.9,3.3,0.4,4.2c2.3,0.9,4.6-1.8,3.9-5.3c2.1,0.4,4.1,2.9,6.6,3.1s3.9-2.2,4.6-5.5
		c-1.3,1.3-3.1,3-6.2,2.4c-2.9-0.5-4.1-2.3-6.3-3.2c-2.2-0.8-4.1,0.7-5.2,4.3c-1.1,3.5,0,5.7,1.9,6.1c1.9,0.4,28.1,7.2,28.1,7.2
		s8.4-8.1,5.4-14.1C345,35.5,340.5,37.3,340.5,37.3z M344.4,42.4c2,3.4-1.5,8.5-3.1,8.2c0,0-0.4-0.1-1.1-0.3c0,0,1.8-3,0.9-5.3
		c-0.6-1.3-2.2-1.8-3.9,0c2.4,0.7,1,4.8,0.3,4.6c-0.9-0.2-2-0.4-3.1-0.6c0,0,1.1-1.7,0.7-3.4c-0.4-1.7-2-3-3.1-1.3
		c2,0.8,0.5,4.3-1.4,4c-3.4-0.5-7.1-0.9-11.7-1.2c10.4-4.4,19.9-6,19.9-6S343.2,40.3,344.4,42.4z"/>
	<path class="st1" d="M338.3,68.3c5.4-3.7,3.3-14.2,3.3-14.2s-25.8-6.8-27.6-7.3c-1.8-0.5-3.7,0.8-4.4,4.4c-0.8,3.6,0.1,5.8,2.3,6.1
		c2.2,0.3,4.1-0.7,6.7,0.3c2.9,1,3.5,3.3,4,5c1-3.2,0.9-5.9-1.2-6.9c-2.1-1.1-5,0.2-6.9-0.5c2.3-2.7,1.7-6.1-0.7-6.4
		c-2.3-0.3-3,3.3-2.3,3.4c1.1,0.2,0.6-1.3,1.7-0.6c0.7,0.4-0.2,3-1.5,2.8c-1.3-0.2-1.5-1.9-1.2-3.1c0.4-1.8,1.8-3.9,3.4-3.7
		c2.1,0.3,17.9,19.4,17.9,19.4S334.6,70.9,338.3,68.3z M332.7,63.4c0,0-7.6-6.1-14.2-14.8c3.9,2,7.6,3.5,10.7,4.7
		c1.7,0.7,1.3,4.3-0.8,4.1c0.1,2,2,1.7,3.2,0.4c1.1-1.3,1-3.2,1-3.2c1.1,0.4,2.1,0.7,2.9,1c0.7,0.2-0.1,4.4-2.4,3.8
		c0.6,2.4,2.2,2.8,3.3,1.9c1.9-1.5,1.8-5,1.8-5c0.7,0.2,1,0.3,1,0.3c1.5,0.5,2,6.5-1.3,8.5C335.8,66.3,332.7,63.4,332.7,63.4z"/>
	<path class="st1" d="M353.6,39.8c-6.1,2.9-4.5,14.7-4.5,14.7s25,10.9,26.8,11.7c1.7,0.8,4-0.2,5.3-3.7c1.3-3.6,0.8-5.9-1.5-6.7
		s-4.3,0-6.9-1.4c-2.9-1.5-3.1-4-3.4-5.8c-1.5,3.1-1.8,5.8,0.2,7.3c2,1.5,5.2,0.7,7.1,1.6c-2.8,2.3-2.7,5.9-0.2,6.7
		c2.3,0.7,3.6-2.9,2.9-3.1c-1.1-0.4-0.9,1.2-1.8,0.4c-0.7-0.6,0.7-3.1,1.9-2.7c1.3,0.4,1.2,2.2,0.8,3.3c-0.6,1.8-2.4,3.7-4.1,3.2
		c-2.1-0.7-15.9-23.2-15.9-23.2S357.8,37.8,353.6,39.8z M359,46.3c0,0,6.6,7.2,12.1,17.2c-3.7-2.7-7-4.6-10-6.3
		c-1.7-1-0.7-4.6,1.4-4.1c0.2-2.1-1.8-2-3.2-0.9c-1.3,1.1-1.5,3.2-1.5,3.2c-1.1-0.6-2-1-2.9-1.5c-0.7-0.3,0.7-4.5,3.1-3.5
		c-0.3-2.5-1.8-3.2-3.1-2.5c-2.2,1.2-2.6,4.8-2.6,4.8c-0.7-0.3-1-0.4-1-0.4c-1.5-0.7-1-7,2.6-8.5C356.2,42.8,359,46.3,359,46.3z"/>
	<path class="st1" d="M348,71.5c0,0,25-5.5,26.9-4.5c1.5,0.8,1.3,3.4,0.4,5.1c-0.5,1.1-1.8,2.3-2.9,1.7c-1.1-0.6-0.2-3.3,0.6-3.2
		c1.2,0.1-0.1,1,0.9,1.5c0.7,0.3,2.3-3,0.3-4.2c-2.1-1.2-4.7,1.2-4.5,4.7c-1.9-0.7-3.4-3.5-5.8-3.9s-4.1,1.6-5.3,4.8
		c1.5-1,3.4-2.5,6.3-1.5c2.7,0.9,3.5,2.9,5.5,4c2,1.1,4-0.1,5.7-3.5c1.6-3.3,0.9-5.6-0.8-6.2c-1.7-0.7-26.4-11.3-26.4-11.3
		s-8.8,7.1-6.8,13.4C343.4,72.7,348,71.5,348,71.5z M345,66c-1.4-3.6,2.8-8.1,4.2-7.6c0,0,0.3,0.2,1,0.4c0,0-2.2,2.7-1.7,5.1
		c0.3,1.4,1.8,2,3.8,0.5c-2.2-1-0.2-4.9,0.5-4.6c0.8,0.3,1.8,0.7,2.9,1c0,0-1.3,1.5-1.2,3.2c0.1,1.7,1.4,3.2,2.7,1.7
		c-1.7-1.1,0.2-4.3,2-3.8c3.2,0.9,7.1,2,11.4,2.8c-10.7,2.9-20.5,3-20.5,3S345.9,68.3,345,66z"/>
	<path class="st1" d="M410.5,69c0,0-26.4,1.4-28.1,0c-1.4-1.1-0.8-3.7,0.3-5.2c0.7-1,2.1-2,3.2-1.2c1.1,0.8-0.3,3.4-1.1,3.1
		c-1.2-0.3,0.2-1.1-0.7-1.7c-0.7-0.5-2.8,2.7-0.9,4.2c2,1.6,5-0.4,5.3-4c1.9,1,3,4.1,5.4,4.9c2.4,0.9,4.4-1,6.1-4
		c-1.6,0.8-3.8,2-6.7,0.5c-2.6-1.4-3.2-3.5-5.1-5c-1.9-1.5-4.1-0.6-6.3,2.6c-2.1,3.1-1.7,5.5-0.1,6.5c1.7,1,24.8,15.5,24.8,15.5
		s10.5-5.3,9.5-12.1C415.4,68.6,410.5,69,410.5,69z M412.7,75.1c0.9,3.9-4,7.8-5.4,7c0,0-0.3-0.2-0.9-0.6c0,0,2.7-2.4,2.4-4.8
		c-0.1-1.5-1.6-2.4-3.8-1.2c2.1,1.4-0.5,5-1.2,4.6c-0.8-0.5-1.8-1-2.8-1.5c0,0,1.6-1.3,1.7-3c0.1-1.8-1-3.5-2.6-2.2
		c1.6,1.4-0.8,4.3-2.5,3.5c-3.2-1.5-6.5-3.1-10.9-4.6c11.3-1.1,21,0.2,21,0.2S412.2,72.7,412.7,75.1z"/>
	<path class="st1" d="M399,98.4c6.3-2,7.4-12.8,7.4-12.8s-22.7-14.4-24.3-15.4c-1.5-1-3.8-0.3-5.6,2.9c-1.8,3.3-1.7,5.6,0.4,6.7
		c2.1,1,4.1,0.6,6.4,2.3c2.5,1.8,2.4,4.3,2.3,6.1c1.9-2.8,2.7-5.4,0.9-7.1c-1.7-1.7-4.8-1.4-6.5-2.6c3-1.9,3.4-5.4,1.3-6.4
		c-2.1-1-3.9,2.3-3.2,2.6c1,0.5,1-1,1.8-0.1c0.5,0.6-1.1,2.9-2.3,2.3c-1.2-0.6-0.8-2.3-0.3-3.3c0.9-1.6,2.9-3.3,4.4-2.5
		c1.9,1,11.3,24.2,11.3,24.2S394.7,99.8,399,98.4z M395.1,92c0,0-5.4-8.2-9.1-18.6c3.2,3.1,6.2,5.7,8.8,7.8c1.4,1.2-0.1,4.6-2,3.8
		c-0.6,2,1.4,2.2,2.9,1.3c1.4-0.9,1.9-2.8,1.9-2.8c0.9,0.7,1.8,1.3,2.5,1.8c0.6,0.4-1.4,4.2-3.5,3c-0.1,2.5,1.3,3.3,2.6,2.8
		c2.3-0.9,3.2-4.3,3.2-4.3c0.6,0.4,0.9,0.6,0.9,0.6c1.3,0.9-0.1,6.9-3.8,7.8C397.2,95.7,395.1,92,395.1,92z"/>
	<path class="st1" d="M421.4,77.1c-6.8,0.9-8.9,12.6-8.9,12.6s20.5,18.4,21.9,19.7c1.4,1.3,3.9,1,6.2-1.9c2.4-3,2.6-5.4,0.7-6.8
		c-2-1.4-4.1-1.4-6.2-3.5c-2.3-2.3-1.8-4.8-1.4-6.6c-2.4,2.5-3.6,5-2.1,7c1.5,2,4.8,2.3,6.3,3.8c-3.4,1.4-4.4,4.8-2.3,6.3
		c2,1.4,4.4-1.6,3.8-2.1c-0.9-0.7-1.2,0.9-1.9-0.2c-0.5-0.7,1.6-2.7,2.7-1.9c1.1,0.8,0.5,2.5-0.3,3.4c-1.2,1.5-3.5,2.8-4.9,1.7
		c-1.8-1.3-7.9-27.2-7.9-27.2S426,76.5,421.4,77.1z M424.5,84.9c0,0,4,8.9,6.1,20.2c-2.7-3.7-5.2-6.6-7.6-9.2
		c-1.3-1.4,0.8-4.6,2.6-3.4c0.9-1.9-1.1-2.5-2.8-1.9c-1.6,0.6-2.4,2.5-2.4,2.5c-0.8-0.9-1.6-1.6-2.3-2.3c-0.6-0.5,2.1-4,4.1-2.4
		c0.5-2.5-0.8-3.6-2.2-3.3c-2.5,0.5-4,3.7-4,3.7c-0.5-0.5-0.8-0.7-0.8-0.7c-1.2-1.2,1.2-7,5.2-7.2C423,80.8,424.5,84.9,424.5,84.9z"
		/>
	<path class="st1" d="M406,105.5c0,0,25.7,2.7,27.1,4.2c1.2,1.3,0.1,3.7-1.2,5c-0.9,0.8-2.4,1.6-3.3,0.7c-0.9-1,0.8-3.2,1.6-2.8
		c1.1,0.5-0.4,1,0.4,1.8c0.5,0.6,3.2-2.2,1.6-3.9c-1.6-1.8-4.9-0.4-5.8,3c-1.6-1.3-2.2-4.4-4.3-5.6c-2.1-1.2-4.4,0.3-6.6,2.9
		c1.7-0.5,4.1-1.3,6.5,0.6c2.3,1.8,2.5,3.8,4,5.5c1.6,1.7,3.9,1.2,6.5-1.5c2.6-2.6,2.6-5,1.2-6.2C432.4,108,412.1,90,412.1,90
		s-10.6,4-10.8,10.7C401.2,105.2,406,105.5,406,105.5z M404.9,99.3c-0.2-3.9,5.2-6.9,6.5-5.9c0,0,0.3,0.3,0.8,0.7c0,0-3,1.9-3.2,4.3
		c-0.1,1.4,1.1,2.5,3.4,1.7c-1.8-1.7,1.3-4.7,1.9-4.2c0.7,0.6,1.5,1.2,2.5,1.9c0,0-1.8,1-2.2,2.7c-0.5,1.7,0.4,3.6,2.1,2.5
		c-1.3-1.6,1.5-4,3.1-3c2.8,1.9,6.1,4.2,10,6.3c-11.1-0.6-20.6-3.6-20.6-3.6S405,101.8,404.9,99.3z"/>
	<path class="st1" d="M466.7,123c0,0-25.7-7.1-26.9-8.9c-1-1.5,0.4-3.8,1.9-4.9c1-0.7,2.7-1.3,3.4-0.1c0.8,1.1-1.3,3.1-2,2.6
		c-1-0.7,0.5-0.9-0.1-1.9c-0.5-0.7-3.5,1.7-2.2,3.7c1.4,2.1,4.9,1.2,6.3-2.1c1.5,1.6,1.6,4.9,3.6,6.4c2,1.6,4.5,0.5,7.1-1.9
		c-1.8,0.3-4.3,0.7-6.6-1.7c-2.1-2.2-2-4.3-3.3-6.3c-1.3-2-3.7-1.9-6.8,0.5c-3,2.2-3.4,4.7-2.1,6.1c1.3,1.5,18.9,22.6,18.9,22.6
		s11.8-1.8,12.9-8.5C471.5,124.1,466.7,123,466.7,123z M466.9,129.5c-0.4,4-6.3,6.2-7.4,4.9c0,0-0.2-0.3-0.7-0.9
		c0,0,3.3-1.4,3.9-3.9c0.3-1.4-0.7-2.7-3.3-2.3c1.6,2-2,4.6-2.5,4c-0.6-0.7-1.4-1.5-2.2-2.4c0,0,1.9-0.7,2.6-2.3
		c0.7-1.7,0.1-3.7-1.8-2.9c1.1,1.9-2.1,3.8-3.5,2.5c-2.6-2.4-5.3-5-8.9-7.9c11.2,2.5,20,6.9,20,6.9S467.2,127,466.9,129.5z"/>
	<path class="st1" d="M446.4,147.3c6.6,0.1,11.1-9.8,11.1-9.8s-17.2-20.9-18.4-22.4c-1.1-1.5-3.5-1.5-6.3,1
		c-2.8,2.6-3.4,4.9-1.7,6.5s3.7,1.9,5.4,4.2c1.8,2.5,0.9,4.8,0.3,6.6c2.7-2.1,4.2-4.3,3.1-6.5c-1.1-2.2-4.2-2.8-5.4-4.5
		c3.4-0.9,5-4,3.2-5.7c-1.7-1.6-4.5,0.9-3.9,1.5c0.8,0.8,1.3-0.7,1.7,0.5c0.3,0.8-2,2.4-2.9,1.5c-0.9-0.9-0.1-2.4,0.8-3.3
		c1.3-1.3,3.8-2.2,5-1c1.5,1.5,3.2,26.7,3.2,26.7S441.8,147.3,446.4,147.3z M444.7,140c0,0-2.6-9.5-2.9-20.7c2,4,4.2,7.4,6,10.3
		c1,1.6-1.5,4.3-3.1,3c-1.1,1.7,0.7,2.6,2.4,2.2c1.7-0.4,2.7-2.1,2.7-2.1c0.7,1,1.3,1.8,1.8,2.5c0.5,0.6-2.7,3.6-4.3,1.8
		c-0.9,2.3,0.2,3.6,1.6,3.5c2.4-0.1,4.4-3.1,4.4-3.1c0.4,0.5,0.7,0.8,0.7,0.8c0.9,1.3-2.3,6.6-6.1,6.3
		C445.5,144.2,444.7,140,444.7,140z"/>
	<path class="st1" d="M474.9,133.9c-6.7-1.2-12.3,9.3-12.3,9.3s14.1,23.7,15,25.4c0.9,1.7,3.4,2.2,6.5,0.1c3.2-2.1,4.1-4.4,2.7-6.3
		c-1.4-1.9-3.5-2.5-4.9-5.2c-1.5-2.9-0.2-5.1,0.6-6.7c-3.1,1.7-4.9,3.7-4.1,6c0.8,2.4,3.9,3.6,4.9,5.5c-3.6,0.3-5.7,3.3-4.1,5.3
		c1.5,1.9,4.7-0.2,4.2-0.8c-0.6-1-1.4,0.5-1.7-0.8c-0.2-0.8,2.3-2.1,3.2-1c0.8,1.1-0.3,2.5-1.3,3.2c-1.6,1.1-4.2,1.6-5.2,0.2
		c-1.3-1.8,0.6-28.3,0.6-28.3S479.5,134.8,474.9,133.9z M475.5,142.3c0,0,1.1,9.7-0.2,21.1c-1.5-4.4-3-7.8-4.4-11.1
		c-0.8-1.8,2.2-4.2,3.6-2.5c1.4-1.5-0.3-2.7-2.1-2.6c-1.7,0.1-3.1,1.7-3.1,1.7c-0.5-1.1-1-2.1-1.5-2.9c-0.4-0.7,3.2-3.2,4.6-1.1
		c1.2-2.2,0.4-3.7-1.1-3.8c-2.5-0.3-4.9,2.4-4.9,2.4c-0.4-0.6-0.6-0.9-0.6-0.9c-0.8-1.5,3.2-6.3,7.1-5.3
		C475.3,137.9,475.5,142.3,475.5,142.3z"/>
	<path class="st1" d="M451.7,156.4c0,0,23.7,10.3,24.6,12.2c0.7,1.5-1,3.5-2.6,4.4c-1.1,0.6-2.8,0.8-3.3-0.3
		c-0.5-1.2,1.8-2.8,2.4-2.2c0.9,0.8-0.7,0.8-0.2,1.8c0.4,0.7,3.7-1.1,2.7-3.2c-1-2.2-4.5-1.8-6.5,1.1c-1.2-1.7-0.8-4.9-2.4-6.6
		c-1.7-1.8-4.3-1.1-7.1,0.8c1.8,0,4.3-0.1,6.1,2.5c1.7,2.4,1.2,4.4,2.2,6.5c1,2.1,3.3,2.3,6.7,0.5c3.3-1.7,4-4,3-5.6
		c-1-1.6-15-24.8-15-24.8s-11.4,0.6-13.5,6.9C447.2,154.7,451.7,156.4,451.7,156.4z M452.5,150.2c1-3.8,7-5,7.9-3.7
		c0,0,0.2,0.3,0.5,0.9c0,0-3.4,0.9-4.4,3.1c-0.6,1.3,0.3,2.7,2.8,2.7c-1.2-2.1,2.7-4.1,3.1-3.4c0.5,0.8,1.1,1.6,1.8,2.6
		c0,0-2,0.4-2.9,1.9c-0.9,1.5-0.7,3.5,1.3,3c-0.8-1.9,2.7-3.4,3.8-1.9c2.1,2.7,4.6,5.8,7.7,9.1c-10.4-4-18.5-9.6-18.5-9.6
		S451.9,152.5,452.5,150.2z"/>
	<path class="st1" d="M504.3,191.3c0,0-22.4-14.5-23-16.6c-0.5-1.7,1.5-3.5,3.3-4.1c1.2-0.4,2.9-0.4,3.3,0.9
		c0.4,1.3-2.2,2.6-2.7,1.9c-0.8-1,0.8-0.7,0.4-1.8c-0.3-0.8-3.9,0.5-3.2,2.9c0.7,2.4,4.3,2.6,6.7-0.1c0.9,1.9,0.1,5.1,1.5,7.2
		c1.4,2.1,4.2,1.8,7.3,0.3c-1.8-0.3-4.3-0.6-5.7-3.6c-1.3-2.7-0.6-4.7-1.2-7c-0.7-2.3-3-2.9-6.7-1.6c-3.5,1.2-4.6,3.5-3.8,5.2
		c0.8,1.8,11.2,27.2,11.2,27.2s11.8,1.9,14.8-4.2C508.6,193.8,504.3,191.3,504.3,191.3z M502.6,197.6c-1.6,3.7-7.8,4-8.5,2.5
		c0,0-0.1-0.4-0.4-1c0,0,3.6-0.3,4.8-2.5c0.8-1.3,0.1-2.8-2.4-3.2c0.9,2.4-3.3,3.8-3.6,3c-0.4-0.9-0.9-1.8-1.4-2.9
		c0,0,2.1-0.1,3.2-1.5c1.2-1.4,1.2-3.5-0.8-3.3c0.5,2.1-3.2,3-4.1,1.3c-1.7-3.1-3.6-6.4-6.2-10.2c9.9,5.8,17,12.6,17,12.6
		S503.5,195.3,502.6,197.6z"/>
	<path class="st1" d="M477.6,208.4c6.3,2.1,13.6-6,13.6-6s-10.2-25.1-10.8-26.9c-0.6-1.7-2.9-2.5-6.3-1c-3.4,1.6-4.7,3.6-3.6,5.6
		c1.1,2,3,2.9,3.9,5.6c1,3-0.6,4.9-1.7,6.3c3.2-1.2,5.3-2.8,4.9-5.2c-0.4-2.4-3.2-4-3.8-5.9c3.5,0.2,6-2.3,4.8-4.5
		c-1.1-2-4.5-0.5-4.2,0.2c0.5,1,1.4-0.2,1.5,1c0.1,0.8-2.6,1.7-3.2,0.6c-0.6-1.2,0.7-2.4,1.7-2.9c1.7-0.8,4.3-1,5.1,0.5
		c1,1.9-5,26.4-5,26.4S473.3,207,477.6,208.4z M478.2,200.9c0,0,0.4-9.9,3.5-20.6c0.8,4.4,1.7,8.3,2.6,11.6c0.5,1.8-2.8,3.7-3.8,1.9
		c-1.6,1.3-0.1,2.7,1.6,2.8c1.7,0.1,3.2-1.2,3.2-1.2c0.4,1.1,0.7,2.1,1,3c0.3,0.7-3.6,2.6-4.6,0.4c-1.5,2-0.9,3.5,0.5,3.8
		c2.4,0.6,5.1-1.6,5.1-1.6c0.3,0.6,0.4,1,0.4,1c0.5,1.5-4.1,5.6-7.7,4.1C477.8,205.2,478.2,200.9,478.2,200.9z"/>
	<path class="st1" d="M508.9,204.4c-6-3.3-14.6,4.9-14.6,4.9s5.8,26.9,6.1,28.8c0.4,1.9,2.5,3.1,6.1,2.1c3.7-1,5.3-2.8,4.6-5.1
		c-0.8-2.3-2.5-3.5-3-6.5c-0.5-3.2,1.4-4.9,2.7-6.2c-3.4,0.6-5.8,1.9-5.8,4.4c0,2.5,2.5,4.6,2.8,6.8c-3.5-0.9-6.4,1.3-5.6,3.7
		c0.8,2.3,4.5,1.3,4.3,0.5c-0.3-1.1-1.5,0-1.4-1.3c0.1-0.9,2.9-1.3,3.3,0s-1.1,2.3-2.2,2.6c-1.8,0.5-4.5,0.2-5-1.5
		c-0.7-2.1,9.6-26.7,9.6-26.7S513,206.7,508.9,204.4z M506.8,212.6c0,0-2,9.6-6.9,20c0-4.6-0.4-8.4-0.7-11.9
		c-0.2-1.9,3.4-3.2,4.2-1.2c1.8-1,0.6-2.7-1.2-3.2c-1.7-0.5-3.5,0.6-3.5,0.6c-0.2-1.2-0.3-2.3-0.5-3.2c-0.2-0.8,4.1-2,4.7,0.5
		c1.9-1.7,1.5-3.4,0.2-4c-2.3-1.1-5.4,0.7-5.4,0.7c-0.1-0.7-0.2-1.1-0.2-1.1c-0.3-1.6,5.1-4.9,8.5-2.8
		C508,208.3,506.8,212.6,506.8,212.6z"/>
	<path class="st1" d="M479.8,218.3c0,0,19.2,17.3,19.4,19.4c0.2,1.7-2.1,3-3.9,3.3c-1.2,0.2-2.9-0.1-3.1-1.4c-0.1-1.3,2.6-2.1,3-1.4
		c0.6,1-0.9,0.6-0.7,1.7c0.1,0.8,3.8,0.1,3.6-2.2c-0.2-2.4-3.7-3.2-6.5-1c-0.6-2,0.8-4.9-0.2-7.1s-3.7-2.4-7-1.5
		c1.7,0.6,4.1,1.3,5,4.3c0.8,2.8-0.3,4.6,0,6.9c0.3,2.3,2.4,3.2,6.2,2.6c3.6-0.6,5.1-2.5,4.6-4.3c-0.5-1.8-6.3-28.3-6.3-28.3
		s-11-3-15,2.3C476.1,215.3,479.8,218.3,479.8,218.3z M482.5,212.7c2.1-3.2,8.3-2.5,8.7-1c0,0,0.1,0.4,0.2,1c0,0-3.5-0.2-5.1,1.6
		c-0.9,1.1-0.6,2.7,1.8,3.4c-0.5-2.4,3.9-3,4-2.3c0.2,0.9,0.5,1.9,0.9,3c0,0-2-0.2-3.4,0.9c-1.4,1.1-1.8,3.1,0.2,3.2
		c-0.1-2.1,3.6-2.4,4.2-0.6c1.1,3.2,2.5,7,4.4,11c-8.6-7.1-14.5-15-14.5-15S481.2,214.7,482.5,212.7z"/>
	<path class="st1" d="M518.5,268.2c0,0-16.6-20.8-16.5-23c0.1-1.8,2.5-2.8,4.4-2.8c1.2,0,2.9,0.5,2.9,1.9c-0.1,1.4-2.9,1.8-3.2,0.9
		c-0.4-1.2,1-0.4,1-1.6c0-0.8-3.8-0.7-4,1.7c-0.1,2.5,3.2,3.8,6.4,2c0.3,2.1-1.6,4.9-0.9,7.3c0.7,2.4,3.4,3,6.8,2.7
		c-1.6-0.9-3.9-2-4.3-5.2c-0.4-3,1-4.7,1.1-7.1c0.1-2.4-1.9-3.7-5.8-3.7c-3.7,0.1-5.5,1.8-5.3,3.7c0.2,1.9,2,29.4,2,29.4
		s10.6,5.5,15.4,0.7C521.7,271.9,518.5,268.2,518.5,268.2z M514.9,273.6c-2.6,3-8.7,1.3-8.9-0.4c0,0,0-0.4-0.1-1.1
		c0,0,3.5,0.8,5.4-0.8c1.1-1,1-2.7-1.3-3.8c0.1,2.5-4.3,2.5-4.4,1.7c-0.1-0.9-0.2-2-0.4-3.2c0,0,2,0.5,3.5-0.4
		c1.5-0.9,2.3-2.9,0.3-3.4c-0.2,2.2-4,1.9-4.3,0c-0.6-3.5-1.3-7.2-2.6-11.6c7.6,8.6,12.1,17.3,12.1,17.3S516.5,271.7,514.9,273.6z"
		/>
	<path class="st1" d="M487.7,275.9c5.3,4,14.8-1.4,14.8-1.4s-1.6-27.1-1.7-28.9c-0.1-1.9-2-3.3-5.6-2.9c-3.8,0.4-5.6,1.9-5.2,4.2
		s1.9,3.7,1.9,6.6c0,3.1-2.1,4.5-3.6,5.5c3.4-0.1,6-1,6.3-3.4c0.4-2.4-1.7-4.8-1.7-6.9c3.3,1.3,6.4-0.3,6-2.7
		c-0.4-2.3-4.1-1.9-4.1-1.1c0.1,1.1,1.4,0.2,1.1,1.4c-0.2,0.8-3,0.8-3.2-0.5c-0.2-1.3,1.4-2,2.6-2.2c1.8-0.2,4.4,0.4,4.6,2.1
		c0.3,2.1-13.1,23.5-13.1,23.5S484.1,273.2,487.7,275.9z M490.7,269c0,0,3.5-9.2,9.8-18.4c-0.7,4.4-1,8.4-1.2,11.8
		c-0.1,1.9-3.8,2.6-4.2,0.6c-1.9,0.7-1,2.5,0.6,3.2c1.6,0.7,3.5-0.1,3.5-0.1c0,1.2,0,2.2,0,3.1c0,0.8-4.3,1.3-4.5-1.1
		c-2.1,1.4-2,3-0.8,3.8c2.1,1.3,5.4,0.1,5.4,0.1c0,0.7,0.1,1.1,0.1,1.1c0,1.6-5.7,4-8.6,1.5C488.9,272.9,490.7,269,490.7,269z"/>
	<path d="M274.8,167.7c-18.2,0-35.5,7.2-48.6,20.3c-13.2,13.2-20.4,30.6-20.4,49.1c0,18.3,7.3,35.6,20.4,48.6
		c13.1,13,30.4,20.1,48.6,20.1c38.1,0,69.1-30.9,69.1-68.8C343.9,198.8,312.9,167.7,274.8,167.7z"/>
	<path class="st2" d="M341.1,237.8c-2.4-2.6-6.9-6.8-12.8-10.4c-1-5.8-3-11.2-5.6-16.2c2.4-6.4,3.2-12.6,3.4-16.2
		c9.4,11.5,15,26.2,15,42.2C341.2,237.3,341.1,237.5,341.1,237.8z"/>
	<path class="st2" d="M297.3,283.3c-4.5-0.9-14.6-3.3-20.9-8.6l0.1-15.7c10.4-3.5,18.4-11.5,21.1-14.4l13.3,4
		c3.3,7.7,2.6,18.5,2.1,23C308.6,276.4,303.2,280.4,297.3,283.3z"/>
	<path class="st2" d="M238.4,273.4c-1.4-1.4-2.8-2.9-4-4.5c-0.1-4.5,0-14.9,3.8-22.2l15.2-3.4c6.9,9,16.8,14,20.4,15.6l-0.1,15.9
		c-6.4,5.3-16.8,7.7-21.3,8.6C247.3,280.8,242.6,277.5,238.4,273.4z"/>
	<path class="st2" d="M274.8,184.9c3,0,5.9,0.3,8.7,0.7c3.1,3.3,9.9,11.2,12,19.1l-7.4,10.3c-11.4-2.2-21.6-0.7-25.2,0l-7-11.4
		c2.6-7.8,10-15.3,13.5-18.5C271.2,185,273,184.9,274.8,184.9z"/>
	<path class="st2" d="M311.6,246l-13.1-4c-0.4-12.6-6-22.2-8.1-25.5l7.3-10.2c8.2-0.6,18,3.4,22.2,5.4c2.8,5.1,4.8,10.7,5.8,16.7
		C323.7,232.5,318.5,241.5,311.6,246z"/>
	<path class="st2" d="M252.5,240.7l-14.9,3.3c-6.6-5.1-11.2-14.7-13-18.9c1.3-5.7,3.6-11.2,6.8-16.1c4.2-1.6,14.1-4.9,22.2-3.8
		l7.1,11.5C253.9,228.5,252.7,237.4,252.5,240.7z"/>
	<path class="st2" d="M228.7,208.1c-3.1,4.9-5.3,10.2-6.7,15.8c-6.1,3.3-10.9,7.4-13.4,9.9c0.8-15.5,6.9-30.1,17.5-41.6
		C226.2,195.7,226.8,201.7,228.7,208.1z"/>
	<path class="st2" d="M297.1,174.3c-3.2,1.5-8.6,4.3-13.8,8.6c-2.8-0.4-5.6-0.7-8.6-0.7c-1.7,0-3.3,0.1-4.9,0.2
		c-5-4.6-10.4-7.7-13.6-9.4c6-1.8,12.2-2.7,18.5-2.7C282.6,170.4,290.1,171.8,297.1,174.3z"/>
	<path class="st2" d="M216.4,268.3c3.4,1,9.4,2.6,16.3,2.9c1.2,1.4,2.5,2.8,3.8,4.2c4.2,4.2,9,7.6,14.1,10.2
		c1.8,6.7,4.9,12.4,6.8,15.4c-10.9-3-21-8.8-29.3-17C223.4,279.1,219.5,273.9,216.4,268.3z"/>
	<path class="st2" d="M292.7,300.7c1.8-3.1,4.6-8.6,6.4-15.3c5.9-2.9,11.2-6.9,15.6-11.6c7,0.1,13.2-1.2,16.6-2.1
		C322.7,285.6,308.9,296.2,292.7,300.7z"/>
	<path class="st1" d="M328.3,181.6c-9.3-9.8,18.6-22.4,21.3-22.4C349.6,161.7,337.6,191.4,328.3,181.6z"/>
	<path class="st1" d="M338.2,193.3c-7.2-11.4,22.6-18.3,25.3-17.8C363,178,345.4,204.7,338.2,193.3z"/>
	<path class="st1" d="M345.4,206.4c-4.4-12.8,26.2-12.7,28.7-11.6C373,197.1,349.8,219.1,345.4,206.4z"/>
	<path class="st1" d="M350,221c-2.2-13.3,27.9-8.2,30.2-6.7C378.8,216.3,352.3,234.3,350,221z"/>
	<path class="st1" d="M351.7,236.2c0.4-13.5,29-2.6,30.9-0.7C380.8,237.3,351.3,249.7,351.7,236.2z"/>
	<path class="st1" d="M350.4,251.1c3.5-13.1,28.8,4.1,30.3,6.4C378.5,258.8,346.9,264.1,350.4,251.1z"/>
	<path class="st1" d="M346.7,264.3c5.5-12.3,27.8,8.7,28.9,11.2C373.2,276.4,341.1,276.6,346.7,264.3z"/>
	<path class="st1" d="M340.1,277.2c7.8-11,25.6,13.9,26.1,16.6C363.8,294.3,332.3,288.2,340.1,277.2z"/>
	<path class="st1" d="M331.6,288.6c10.1-8.9,21.7,19.4,21.7,22.1C350.7,310.6,321.5,297.6,331.6,288.6z"/>
	<path class="st1" d="M320.3,298.7c11.5-7.2,18.3,22.7,17.7,25.3C335.6,323.6,308.8,305.9,320.3,298.7z"/>
	<path class="st1" d="M307.3,306.4c12.6-4.8,13.5,25.8,12.5,28.3C317.4,333.8,294.7,311.2,307.3,306.4z"/>
	<path class="st1" d="M293.3,311.4c13.4-1.8,7.3,28.2,5.7,30.4C296.9,340.3,279.9,313.1,293.3,311.4z"/>
	<path class="st1" d="M278.8,313.5c13.5-0.2,3.9,28.9,2.1,30.9C279.1,342.7,265.3,313.7,278.8,313.5z"/>
	<path class="st1" d="M263.5,312.8c13.3,2.4-1.8,29.1-4,30.7C258,341.5,250.2,310.4,263.5,312.8z"/>
	<path class="st1" d="M249,309.3c12.4,5.4-8.4,27.9-10.9,29C237.2,336,236.6,303.9,249,309.3z"/>
	<path class="st1" d="M235.1,302.9c11.3,7.4-12.8,26.2-15.5,26.8C219.1,327.2,223.8,295.5,235.1,302.9z"/>
	<path class="st1" d="M222.7,293.8c9.7,9.4-17.7,23.2-20.4,23.3C202.2,314.6,213.1,284.4,222.7,293.8z"/>
	<path class="st1" d="M212.7,282.8c7.3,11.4-22.5,18.5-25.2,18C188,298.3,205.4,271.4,212.7,282.8z"/>
	<path class="st1" d="M205.3,269.6c5.3,12.4-25.3,14.5-27.8,13.6C178.4,280.8,200.1,257.2,205.3,269.6z"/>
	<path class="st1" d="M200.2,255.2c2.8,13.2-27.6,9.3-29.9,7.9C171.6,260.9,197.4,242,200.2,255.2z"/>
	<path class="st1" d="M198,240.4c-0.3,13.5-29,2.8-30.9,0.8C168.8,239.5,198.3,226.9,198,240.4z"/>
	<path class="st1" d="M198.7,225.1c-2.5,13.3-29.1-2-30.6-4.2C170.1,219.4,201.3,211.9,198.7,225.1z"/>
	<path class="st1" d="M202.5,210.3c-5.1,12.5-28.1-7.7-29.2-10.1C175.5,199.1,207.6,197.7,202.5,210.3z"/>
	<path class="st1" d="M208.9,196.8c-7.8,11-25.6-13.9-26.1-16.5C185.2,179.8,216.7,185.8,208.9,196.8z"/>
	<path class="st1" d="M219.7,183.4c-9.8,9.3-22.5-18.5-22.5-21.3C199.7,162.1,229.5,174.1,219.7,183.4z"/>
	<path class="st1" d="M231.4,173.5c-11.4,7.2-18.4-22.6-17.9-25.2C215.9,148.7,242.8,166.3,231.4,173.5z"/>
	<path class="st1" d="M244.4,166.2c-12.8,4.4-12.8-26.2-11.7-28.7C235,138.6,257.2,161.8,244.4,166.2z"/>
	<path class="st1" d="M259,161.5c-13.3,2.3-8.3-27.9-6.8-30.2C254.3,132.8,272.3,159.3,259,161.5z"/>
	<path class="st1" d="M273.7,159.8c-13.5-0.4-2.7-29-0.8-30.9C274.7,130.6,287.2,160.1,273.7,159.8z"/>
	<path class="st1" d="M287.7,160.8c-13.1-3.4,4-28.9,6.3-30.3C295.3,132.7,300.7,164.3,287.7,160.8z"/>
	<path class="st1" d="M302.9,165.1c-12.3-5.6,8.9-27.7,11.4-28.8C315.3,138.7,315.2,170.7,302.9,165.1z"/>
	<path class="st1" d="M315.3,171.6c-10.7-8.3,15-25,17.7-25.4C333.4,148.7,326,179.9,315.3,171.6z"/>
	<path class="st1" d="M239.3,401c0,0-9.6-5.8,1.9-14.4c0,0,0.8-15,23.2-17c0,0,8.2-5,13.3-5.8c0,0,4.1-6.3,14.2-9.9
		c31.8-11.3,89.6-17.3,101.8-117.8c0,0,9.1,2.7,4.2,29.4c0,0,8.8-10.6,13.3-40.5c0,0,18.6,16.2-8.5,52.8c0,0,10.2-5.1,18.2-23.5
		c0,0,11.8,13.1-15.8,40.8c0,0,10.7-5.1,18.7-13.1c0,0,1.6,13.1-10.1,20.6c0,0,5.9-1.3,8-3.4c0,0,1.3,17-22.4,25.8
		c0,0,6.7,0.6,11.2,0.6c0,0-4,8.6-15.2,10.9c0,0,3.7,0.5,6.1,0.5c0,0-3.5,7.7-13.4,13.9c0,0,1.9,1.9,2.9,1.9c0,0-5.4,7.4-16.3,7.4
		c0,0-13.4,8.8-24.3,8.8c0,0-4-3-4-7.2c0,0,10.2-5.9,17.4-6.9c0,0,5-5.2,4.2-8.2c0,0,8.2-3.3,11.6-7.7c0,0-1.5-1.8-2.6-2.8
		c0,0,9.8-1.2,14-6.6c0,0-4.5-1-8.1-2.8c0,0,13.7-6.3,18.1-17.1c0,0-6.6-0.5-10.8-2.1c0,0,6.2-6,5.2-15.6c0,0-19.7,21.3-30.4,37.9
		c-3.2,5-7.7,8.8-13.6,10.7c-5.9,1.9-21,7.5-28,16.2c-4.4,5.4-6.8,5-13.7,5c-6.8,0-13.7-0.4-17.6,3.5c-1.9,1.9-11.4,3.4-14.4,8.1
		c-1.6,2.6-5.5-0.1-6.7-2.1c-1.2-2-3.5,0.1-3.5,0.1s0,0,0,1c0,1,0.4,2.3-3.4,3.8c0,0,2.9,3.8,3.9,6.7c0,0,7.6,2,11.5,2
		c3.9,0,4.9,1.5,6,2.6c1.1,1.1,6.1,4.1,10.3,2.8c4.3-1.3,6.5-2.9,9.6-2.9c3.1,0,12.1-4.4,18.6-10.9c1.7-1.7,3.5-0.9,3.5-0.9l42,1.4
		c0,0,2.8,9.2-4.9,14.4l-16.6-3.1c0,0,1.8,6.4,3.6,7.3c1.8,0.9-6.1,2.7-10.4,2c0,0-2.2-2.1-3.5-3.4c0,0,1.1,3.8,2.8,6.7
		c0,0-2.5,3.8-5.8,3.8c0,0-3.3-1.9-4.7-4.4c0,0-3.9,4.9-5.9,10l-5.7-4.9c0,0-2.8,2.1-4.4,4.7l-3.1-4.1l-3.3,3.3c0,0-0.2-5.7-0.2-6.9
		c0,0-4.8,4.6-7.6,8.9c0,0-3.5-1.2-5.3-3c0,0-1.7-4.4-1.7-6.4c0,0-3.2,3.3-4.7,7.6c0,0-3.1,0-4.5-0.4l-0.4-5.7l-1.5-0.3
		c0,0-1.7,5.9-4.5,8.6c0,0-4.1-0.6-5.9-2.5l0.3-4.4c0,0-3.5,4.4-13.3,4.4c-3.5,0-5.2-4.1-5.2-4.1s4.1-5.9,14.1-10.9l-1.5-1
		c0,0-7.4,1.9-18.4,0C247.4,393.7,241,395.8,239.3,401z"/>
	<path class="st1" d="M278,357.2c-10.7-4.8-14.4-0.3-24.2-3.7c-9.8-3.4-77.6-17.6-95.9-98.9c0,0-7.2,1.4-3.7,17.5
		c0,0-6.6-10.7-12.9-34c0,0-11.6,6.1,6.5,45.5c0,0-9.5-8.3-20-29.7c0,0-12.4,13.9,22.1,48.3c0,0-6.6,0.3-21.3-13.6
		c0,0-5.3,6.4,21.1,29.3c0,0-8.9-2.5-14-5.3c0,0-0.3,6.9,19.5,19.7c0,0-3.8,0.3-5.3,0.3c0,0,8.2,16.5,22.4,23.3c0,0-2.7,1.7-4.2,2.3
		c0,0,27.8,17.7,62.3,18.5c0,0,1.9-4.3,3.3-5.7c0,0-28.2-6.5-46.5-16.2c0,0,6.9-0.2,10.5-2.9c0,0-8.7,0.1-18-3.5c0,0,6.5-1.9,7-6.1
		c0,0-10.1-0.1-11.8-1c0,0,4.7-3.5,4.7-5.2c0,0-11.2-5.9-24.1-23.9c0,0,5.3,0.6,7.1-1.3c0.4-0.4-1.3-5.8-3-9.1l0.3-2.9
		c0,0,3,0.1,4.5,1.5c13.4,12.1,20.3,28.1,31.4,36.8s16.4,5.6,44,25.3c8.3,5.9,11.8-3.4,27.4,1.1c0,0,7.1-0.2,9.3-2.3
		C278.7,359.3,278,357.2,278,357.2z"/>
	<path d="M170.3,437.5l6.1-9.4l-4.4-2.9c-1-0.6-1.9-0.9-2.6-0.8c-0.7,0.1-1.6,0.8-2.6,2l-0.7-0.4l5.3-8.2l0.7,0.4
		c-0.6,1-0.9,1.7-1,2.3c-0.1,0.6,0,1.1,0.3,1.6c0.3,0.5,0.8,1,1.6,1.5l4.4,2.9l4.9-7.6c0.8-1.2,1.2-2,1.3-2.5c0.1-0.4,0-0.8-0.2-1.2
		c-0.3-0.6-0.8-1.1-1.3-1.5l-0.9-0.6l0.4-0.7l10.3,6.7l-0.4,0.7l-0.8-0.5c-1-0.6-1.9-0.8-2.7-0.5c-0.5,0.2-1.2,1-2.2,2.4l-10.1,15.6
		c-0.8,1.2-1.2,2-1.3,2.5c-0.1,0.4,0,0.8,0.2,1.2c0.3,0.6,0.8,1.1,1.4,1.5l0.8,0.5l-0.4,0.7l-17.8-11.5l3.2-5.5l0.6,0.4
		c-0.4,1.3-0.6,2.4-0.5,3.2c0.1,0.8,0.3,1.5,0.8,2.1c0.4,0.6,1.3,1.3,2.5,2.1L170.3,437.5z"/>
	<path d="M140.1,417.3c-2.7-2.5-4.1-5.7-4.2-9.6c-0.1-3.9,1.3-7.4,4.1-10.5c2.9-3.2,6.4-4.9,10.4-5.2c4-0.3,7.4,0.9,10.2,3.6
		c2.9,2.7,4.4,5.9,4.5,9.8c0.1,3.9-1.4,7.4-4.4,10.7c-3.1,3.3-6.7,5-10.9,5.1C146.1,421.1,142.9,419.8,140.1,417.3z M141.5,416.4
		c1.9,1.7,4.1,2.4,6.5,2.1c3-0.4,6.1-2.3,9.2-5.7c3.2-3.4,4.9-6.8,5.1-10c0.2-2.4-0.7-4.5-2.5-6.2c-2-1.8-4.3-2.6-7-2.2
		c-2.7,0.4-5.6,2.2-8.6,5.5c-3.3,3.6-5.1,7-5.3,10C138.5,412.4,139.5,414.6,141.5,416.4z"/>
	<path d="M115.4,389.8c-2.2-3-3-6.4-2.4-10.3c0.6-3.9,2.6-7.1,6-9.6c3.5-2.6,7.2-3.7,11.1-3.2c3.9,0.5,7.1,2.3,9.4,5.4
		c2.4,3.2,3.2,6.6,2.6,10.5c-0.6,3.8-2.7,7.1-6.3,9.7c-3.6,2.7-7.5,3.7-11.7,2.9C120.6,394.7,117.7,392.8,115.4,389.8z M116.9,389.2
		c1.5,2.1,3.5,3.1,6,3.2c3.1,0.1,6.4-1.2,10.1-3.9c3.7-2.8,6-5.7,6.9-8.9c0.6-2.4,0.2-4.6-1.3-6.6c-1.6-2.2-3.8-3.3-6.5-3.5
		c-2.7-0.2-5.9,1.1-9.5,3.8c-3.9,2.9-6.3,5.9-7,8.9C114.7,384.8,115.2,387.1,116.9,389.2z"/>
	<path d="M92.8,350l5.8-3.3l0.4,0.7c-1,0.7-1.6,1.2-2,1.7c-0.5,0.8-0.8,1.5-0.8,2.4c0,0.8,0.2,1.8,0.8,2.8l1.8,3.6l19.5-9.8
		c1.6-0.8,2.5-1.5,2.7-2c0.3-0.8,0.2-1.6-0.3-2.6l-0.4-0.9l0.7-0.4l5.5,10.9l-0.7,0.4l-0.5-0.9c-0.5-1.1-1.3-1.7-2.2-1.8
		c-0.5-0.1-1.6,0.3-3,1l-19.5,9.8l1.5,3.1c0.6,1.2,1.1,2,1.5,2.4c0.6,0.5,1.3,0.9,2.2,1c0.9,0.1,2-0.1,3.2-0.6l0.4,0.7l-6.1,2.7
		L92.8,350z"/>
	<path d="M97.7,320.6c-0.2-2,0-3.6,0.6-4.8c0.8-1.7,2.2-2.8,4-3.3c1.4-0.4,2.8-0.4,4.3,0.1s2.8,1.4,3.8,2.7c1,1.3,2,3.5,3,6.6
		l3.9,12.9l-0.8,0.2l-0.3-1c-0.3-1.1-1-1.8-1.8-2.1c-0.6-0.2-1.6,0-3.1,0.5l-17.8,5.4c-1.7,0.5-2.7,1-3,1.5
		c-0.4,0.7-0.5,1.6-0.2,2.6l0.3,1l-0.8,0.2l-3.6-11.8c-0.7-2.2-1-4-1.1-5.4c-0.1-2.2,0.3-4,1.2-5.4c0.9-1.4,2.2-2.4,3.8-2.9
		c1.4-0.4,2.7-0.4,4.1,0.1C95.5,318.2,96.7,319.2,97.7,320.6z M99.8,331.5c-0.1-0.5-0.2-1.1-0.3-1.8s-0.3-1.4-0.6-2.1
		c-0.6-2-1.3-3.4-2-4.2c-0.7-0.9-1.6-1.4-2.6-1.7c-1-0.3-2-0.2-3.1,0.1c-1.6,0.5-2.7,1.5-3.4,3.2c-0.7,1.6-0.7,3.7,0.1,6.2
		c0.4,1.3,0.9,2.5,1.5,3.5L99.8,331.5z M112.9,327.5c-0.1-1.7-0.4-3.3-0.9-4.8c-0.7-2.4-1.9-4.1-3.4-5.1s-3-1.2-4.7-0.7
		c-1.1,0.3-2,0.9-2.8,1.8c-0.8,0.9-1.3,2.1-1.4,3.6c-0.2,1.5,0,3.2,0.6,5.1c0.3,0.8,0.5,1.5,0.7,2.1c0.2,0.6,0.4,1,0.6,1.4
		L112.9,327.5z"/>
	<path d="M97.2,288.8l1.3,11l4.6,1.4c1.2,0.4,2,0.5,2.5,0.4c0.4,0,0.8-0.3,1.1-0.7c0.3-0.5,0.4-1.4,0.3-2.7l0.8-0.1l1,9l-0.8,0.1
		c-0.3-1.2-0.7-1.9-1.1-2.2c-0.8-0.6-2.2-1.3-4.4-1.9l-24.6-7.5l-0.1-0.9l22.6-12.4c1.8-1,2.9-1.9,3.4-2.6c0.5-0.7,0.7-1.7,0.6-2.8
		l0.8-0.1l1.3,11.3l-0.8,0.1c-0.2-1.1-0.5-1.9-0.8-2.2c-0.4-0.4-0.8-0.5-1.2-0.5c-0.6,0.1-1.5,0.5-2.8,1.2L97.2,288.8z M95.6,289.7
		l-11,6l12.1,3.6L95.6,289.7z"/>
	<path d="M99.1,250.8l0.2-0.7l7.6,2.9l-1.3,22.1l-0.8,0l0.1-1.1c0.1-1.2-0.3-2.1-1-2.6c-0.4-0.3-1.4-0.5-3-0.6l-18.5-1.1
		c-1.8-0.1-2.9,0-3.4,0.4c-0.6,0.5-1,1.3-1.1,2.4l-0.1,1.1l-0.8,0l0.8-12.9l0.8,0c-0.1,1.5,0,2.6,0.2,3.2c0.3,0.6,0.6,1.1,1,1.3
		c0.4,0.2,1.5,0.4,3.2,0.5l18,1.1c1.2,0.1,2,0,2.4-0.2c0.3-0.2,0.5-0.4,0.7-0.7c0.2-0.3,0.3-1.4,0.4-3.3l0.1-2.1
		c0.1-2.2,0.1-3.7-0.2-4.6c-0.3-0.9-0.8-1.7-1.6-2.5C102.1,252.4,100.8,251.6,99.1,250.8z"/>
	<path d="M104.9,223.1l0.3-0.7l7,4.1l-4.8,21.6l-0.8-0.2l0.2-1c0.3-1.2,0.1-2.1-0.6-2.8c-0.4-0.4-1.3-0.8-2.9-1.1l-18.1-4.1
		c-1.7-0.4-2.8-0.4-3.4-0.2c-0.7,0.4-1.2,1.1-1.4,2.2l-0.2,1l-0.8-0.2l2.8-12.6l0.8,0.2c-0.3,1.5-0.4,2.5-0.3,3.2
		c0.2,0.7,0.4,1.1,0.8,1.4c0.4,0.3,1.4,0.7,3,1l17.6,3.9c1.1,0.3,1.9,0.3,2.4,0.2c0.3-0.1,0.6-0.3,0.8-0.6c0.2-0.3,0.5-1.4,0.9-3.2
		l0.5-2c0.5-2.1,0.7-3.7,0.5-4.6c-0.1-0.9-0.5-1.9-1.1-2.7S106.5,224.2,104.9,223.1z"/>
	<path d="M130.3,140.1l-0.6-0.5l6.6-7.5l0.6,0.5l-0.7,0.8c-0.7,0.8-1,1.8-0.7,2.9c0.1,0.5,0.8,1.3,2,2.3l8.7,7.7
		c2.2,1.9,3.6,3.6,4.4,5.1c0.8,1.5,1.1,3.2,0.8,5.2c-0.3,2-1.3,4.1-3.2,6.2c-2.1,2.3-4,3.8-5.9,4.3c-1.9,0.5-3.7,0.4-5.6-0.3
		c-1.2-0.5-3.1-1.9-5.7-4.2l-8.4-7.4c-1.3-1.2-2.3-1.7-3-1.7s-1.4,0.4-2.1,1.2l-0.7,0.8l-0.6-0.5l8.1-9.2l0.6,0.5l-0.7,0.8
		c-0.8,0.9-1,1.7-0.8,2.6c0.1,0.6,0.8,1.4,2,2.5l9.3,8.3c0.8,0.7,1.9,1.5,3.1,2.3c1.2,0.8,2.3,1.3,3.2,1.4c1,0.1,2,0,3-0.4
		c1.1-0.4,2.1-1.2,3-2.3c1.2-1.4,2-2.9,2.4-4.6c0.4-1.6,0.3-3.1-0.3-4.3c-0.6-1.2-2-2.9-4.3-4.9l-8.7-7.7c-1.3-1.2-2.3-1.8-2.9-1.8
		c-0.8,0-1.6,0.4-2.3,1.2L130.3,140.1z"/>
	<path d="M140.1,128.4l6.2-4.8l27.1,6.1l-10.1-12.9c-1.1-1.4-1.9-2.2-2.5-2.3c-0.8-0.2-1.6,0.1-2.5,0.8l-0.8,0.6l-0.5-0.6l7.9-6.1
		l0.5,0.6l-0.8,0.6c-1,0.8-1.4,1.6-1.4,2.5c0,0.6,0.6,1.5,1.6,2.8l14.8,19l-0.6,0.5l-29.2-6.5l10.8,13.9c1.1,1.4,1.9,2.2,2.5,2.3
		c0.8,0.1,1.6-0.1,2.5-0.8l0.8-0.6l0.5,0.6l-7.9,6.1l-0.5-0.6l0.8-0.6c1-0.8,1.4-1.6,1.4-2.5c0-0.6-0.6-1.5-1.6-2.8l-12.2-15.7
		c-1.2-0.3-2.1-0.4-2.7-0.3c-0.5,0-1.2,0.2-2,0.5c-0.4,0.2-0.9,0.5-1.6,1L140.1,128.4z"/>
	<path d="M194.5,124.4l0.4,0.7l-10.6,6.1l-0.4-0.7l0.9-0.5c1-0.6,1.6-1.3,1.7-2.2c0.1-0.6-0.3-1.6-1.2-3l-9.3-16.1
		c-0.7-1.2-1.3-2-1.7-2.3c-0.3-0.2-0.7-0.3-1.2-0.3c-0.7,0-1.3,0.2-1.9,0.5l-0.9,0.5l-0.4-0.7l10.6-6.1l0.4,0.7l-0.9,0.5
		c-1,0.6-1.6,1.3-1.7,2.2c-0.1,0.6,0.3,1.6,1.2,3l9.3,16.1c0.7,1.2,1.3,2,1.7,2.3c0.3,0.2,0.7,0.3,1.2,0.3c0.7,0,1.3-0.2,1.9-0.5
		L194.5,124.4z"/>
	<path d="M199.6,90.8c3.4-1.4,7-1.3,10.5,0.3c3.6,1.6,6.2,4.3,7.8,8.3c1.6,4,1.7,7.9,0.3,11.6c-1.5,3.7-4,6.3-7.6,7.7
		c-3.6,1.5-7.2,1.4-10.8-0.2c-3.5-1.6-6.1-4.4-7.8-8.6c-1.7-4.2-1.7-8.2,0.1-12.1C193.6,94.6,196.1,92.2,199.6,90.8z M199.8,92.3
		c-2.4,1-3.9,2.6-4.7,5c-0.9,2.9-0.5,6.5,1.2,10.7c1.8,4.3,4,7.3,6.8,8.9c2.1,1.2,4.4,1.3,6.7,0.4c2.5-1,4.2-2.8,5-5.4
		c0.8-2.6,0.4-6-1.3-10.2c-1.8-4.5-4.1-7.6-6.8-9.1C204.7,91.4,202.3,91.3,199.8,92.3z"/>
	<path d="M218.6,84.2l7.7-1.5l21.5,17.6l-3.2-16.1c-0.4-1.8-0.8-2.8-1.2-3.2c-0.6-0.5-1.5-0.6-2.6-0.4l-1,0.2l-0.2-0.8l9.8-2
		l0.2,0.8l-1,0.2c-1.2,0.2-2,0.8-2.3,1.6c-0.2,0.5-0.2,1.6,0.2,3.2l4.7,23.6l-0.7,0.1l-23.2-18.9l3.5,17.3c0.4,1.8,0.8,2.8,1.2,3.2
		c0.6,0.5,1.5,0.6,2.6,0.4l1-0.2l0.2,0.8l-9.8,2l-0.2-0.8l1-0.2c1.2-0.2,2-0.8,2.3-1.6c0.2-0.5,0.2-1.6-0.2-3.2l-3.9-19.5
		c-1-0.8-1.7-1.3-2.2-1.5c-0.5-0.2-1.2-0.4-2-0.5c-0.4,0-1,0-1.9,0.2L218.6,84.2z"/>
	<path d="M334.6,86.4c3.5,1.2,6.1,3.5,7.8,7c1.7,3.5,1.9,7.3,0.6,11.3c-1.4,4.1-3.8,7.1-7.3,9c-3.5,1.9-7.1,2.2-10.8,1
		c-3.7-1.2-6.4-3.6-8.1-7.1c-1.7-3.5-1.8-7.4-0.4-11.6c1.4-4.3,4-7.4,7.9-9.1C327.6,85.4,331.1,85.3,334.6,86.4z M333.7,87.8
		c-2.4-0.8-4.7-0.5-6.8,0.8c-2.6,1.6-4.6,4.6-6,9c-1.5,4.4-1.6,8.2-0.5,11.2c0.9,2.3,2.5,3.8,4.9,4.6c2.6,0.8,5,0.5,7.3-0.9
		c2.3-1.4,4.2-4.3,5.6-8.6c1.5-4.7,1.8-8.4,0.7-11.3C338.1,90.2,336.3,88.6,333.7,87.8z"/>
	<path d="M360.4,99.6l-5.2,9.9l4.7,2.5c1,0.5,1.9,0.7,2.7,0.5c0.7-0.2,1.5-1,2.4-2.3l0.7,0.4l-4.5,8.6l-0.7-0.4
		c0.5-1,0.8-1.8,0.8-2.4c0-0.6-0.1-1.1-0.4-1.6c-0.3-0.5-0.9-0.9-1.7-1.3l-4.7-2.5l-4.2,8c-0.7,1.3-1,2.2-1.1,2.6
		c0,0.4,0.1,0.8,0.4,1.2c0.4,0.6,0.9,1,1.5,1.3l0.9,0.5l-0.4,0.7l-10.8-5.7l0.4-0.7l0.9,0.5c1,0.5,2,0.6,2.7,0.3
		c0.5-0.2,1.2-1.1,1.9-2.6l8.6-16.4c0.7-1.3,1-2.1,1.1-2.6c0-0.4-0.1-0.8-0.3-1.2c-0.4-0.6-0.9-1-1.5-1.3l-0.9-0.5l0.4-0.7l18.8,9.9
		l-2.7,5.7l-0.6-0.3c0.3-1.4,0.4-2.4,0.2-3.2c-0.1-0.8-0.5-1.5-1-2c-0.5-0.6-1.4-1.2-2.7-1.9L360.4,99.6z"/>
	<path d="M422.6,167.4l-2.7,14.6c-0.5,2.4-0.7,4.3-0.5,5.6c0.2,1.3,0.5,2.5,1.2,3.6l-0.7,0.5l-7.7-11.2l0.7-0.5
		c0.5,0.7,0.9,1.1,1.3,1.2s0.8,0.1,1.1-0.1c0.3-0.2,0.5-0.4,0.6-0.7s0.3-0.9,0.5-1.9l2.5-13.7l-7.7,5.2c-1.2,0.8-1.9,1.4-2.2,1.8
		c-0.2,0.3-0.3,0.7-0.2,1.2c0.1,0.7,0.3,1.3,0.7,1.9l0.6,0.8l-0.7,0.5l-6.9-10.1l0.7-0.5l0.6,0.8c0.7,1,1.4,1.5,2.3,1.5
		c0.6,0,1.5-0.4,2.9-1.4l15.3-10.5c1.2-0.8,1.9-1.4,2.2-1.8c0.2-0.3,0.3-0.7,0.2-1.2c-0.1-0.7-0.3-1.3-0.7-1.9l-0.6-0.8l0.7-0.5
		l6.9,10.1l-0.7,0.5l-0.6-0.8c-0.4-0.6-0.9-1-1.5-1.3c-0.4-0.2-0.9-0.3-1.3-0.2c-0.5,0.1-1.3,0.6-2.4,1.3l-7.2,5
		c0.4,0.1,1.7,0.4,3.8,0.9c5.5,1.3,9,1.9,10.6,1.9c0.7,0,1.2-0.1,1.5-0.4c0.3-0.2,0.4-0.5,0.5-0.8c0-0.4-0.1-0.9-0.5-1.4l-0.4-0.5
		l0.7-0.5l5.9,8.7l-0.7,0.5c-0.4-0.5-0.8-0.9-1.2-1.2c-0.4-0.3-1-0.7-1.8-1c-0.8-0.4-1.9-0.7-3.3-1c-0.4-0.1-2.4-0.5-5.9-1.1
		L422.6,167.4z"/>
	<path d="M436.4,205.8l-4.5-10.2l-4.9,0c-1.2,0-2.1,0.1-2.6,0.3c-0.4,0.2-0.7,0.5-0.8,1c-0.1,0.5,0,1.4,0.5,2.7l-0.7,0.3l-3.6-8.2
		l0.7-0.3c0.7,1,1.2,1.6,1.7,1.8c0.9,0.4,2.5,0.6,4.7,0.5l25.7-0.1l0.4,0.8L435.2,213c-1.4,1.5-2.3,2.7-2.5,3.5s-0.2,1.8,0.2,2.9
		l-0.7,0.3l-4.6-10.4l0.7-0.3c0.5,1,1,1.6,1.4,1.9c0.5,0.2,0.9,0.3,1.3,0.1c0.6-0.2,1.3-0.9,2.3-1.9L436.4,205.8z M437.7,204.5
		l8.7-9l-12.6,0.1L437.7,204.5z"/>
	<path d="M465.8,237.5l-30.6-11.9L438,237c0.4,1.7,1.1,3,2.1,3.7c1,0.8,2.8,1.2,5.3,1.4l0,0.7l-7.7,0.5l-5.5-22.6l0.8-0.2l29.8,11.6
		l-2.2-8.9c-0.4-1.5-0.8-2.5-1.3-3.1c-0.5-0.6-1.1-1-1.8-1.2c-0.7-0.2-1.9-0.2-3.6-0.1l-0.2-0.8l7.1-1.2L465.8,237.5z"/>
	<path d="M449.4,265l-0.8-11.1l-4.6-1.6c-1.1-0.4-2-0.6-2.5-0.5c-0.4,0-0.8,0.3-1.1,0.7c-0.3,0.4-0.5,1.3-0.5,2.7l-0.8,0.1l-0.6-9
		l0.8-0.1c0.3,1.2,0.6,1.9,1,2.3c0.7,0.7,2.1,1.4,4.3,2.1l24.2,8.6l0.1,0.9l-23.1,11.3c-1.8,0.9-3,1.7-3.6,2.4s-0.8,1.6-0.8,2.8
		l-0.8,0.1l-0.8-11.4l0.8-0.1c0.1,1.1,0.4,1.9,0.7,2.3c0.3,0.4,0.7,0.6,1.2,0.5c0.6,0,1.6-0.4,2.8-1L449.4,265z M451.1,264.2
		l11.2-5.5l-11.9-4.2L451.1,264.2z"/>
	<path d="M455,291.7l-11.6,9.3c-2,1.5-3.3,2.8-4.1,3.9c-0.8,1.1-1.3,2.3-1.5,3.5l-0.8-0.1l1.6-13.5l0.8,0.1c-0.1,0.8,0,1.4,0.2,1.8
		c0.2,0.4,0.5,0.6,0.9,0.6c0.3,0,0.6,0,0.9-0.1s0.8-0.5,1.6-1.1l10.9-8.7l-9.2-1.1c-1.4-0.2-2.4-0.2-2.9-0.1c-0.4,0.1-0.7,0.4-1,0.8
		c-0.4,0.6-0.6,1.2-0.7,1.9l-0.1,1l-0.8-0.1l1.4-12.2l0.8,0.1l-0.1,1c-0.1,1.2,0.1,2.1,0.7,2.7c0.4,0.4,1.4,0.7,3.1,0.9l18.4,2.2
		c1.4,0.2,2.4,0.2,2.9,0.1c0.3-0.1,0.7-0.4,1-0.8c0.4-0.6,0.6-1.2,0.7-1.9l0.1-1l0.8,0.1l-1.4,12.2l-0.8-0.1l0.1-1
		c0.1-0.7,0-1.3-0.3-2c-0.2-0.5-0.5-0.8-0.9-1c-0.4-0.2-1.3-0.4-2.7-0.6l-8.7-1c0.2,0.3,1,1.4,2.3,3.2c3.3,4.6,5.5,7.4,6.7,8.4
		c0.5,0.4,1,0.7,1.4,0.7c0.3,0,0.6-0.1,0.9-0.3c0.3-0.3,0.5-0.7,0.5-1.4l0.1-0.6l0.8,0.1l-1.2,10.4l-0.8-0.1c0.1-0.6,0-1.2-0.1-1.7
		c-0.1-0.5-0.3-1.2-0.7-1.9c-0.4-0.8-1-1.8-1.8-2.9c-0.2-0.3-1.5-1.9-3.8-4.7L455,291.7z"/>
	<path d="M449.1,321l-4,12.7l7.9,2.5c1.4,0.4,2.3,0.6,2.8,0.6c0.4,0,0.7-0.2,1.1-0.6c0.5-0.5,0.8-1,1-1.7l0.3-1l0.8,0.2l-3.7,11.7
		l-0.8-0.2l0.3-1c0.2-0.6,0.2-1.3,0.1-2c-0.1-0.5-0.3-0.9-0.7-1.2c-0.4-0.3-1.2-0.6-2.6-1.1l-17.7-5.5c-1.4-0.4-2.3-0.6-2.8-0.6
		c-0.4,0-0.7,0.2-1.1,0.6c-0.5,0.5-0.9,1.1-1.1,1.7l-0.3,1l-0.8-0.2l3.7-11.7l0.8,0.2l-0.3,1c-0.3,1.1-0.3,2,0.2,2.7
		c0.3,0.5,1.3,1,2.9,1.5l8.3,2.6l4-12.7l-8.3-2.6c-1.4-0.4-2.3-0.6-2.8-0.6c-0.4,0-0.7,0.2-1.1,0.6c-0.5,0.5-0.8,1-1,1.7l-0.3,1
		l-0.8-0.2l3.7-11.7l0.8,0.2l-0.3,1c-0.4,1.1-0.3,2,0.2,2.8c0.3,0.5,1.3,0.9,2.9,1.4l17.7,5.6c1.4,0.4,2.3,0.6,2.8,0.6
		c0.4,0,0.7-0.2,1.1-0.6c0.5-0.5,0.9-1.1,1.1-1.7l0.3-1l0.8,0.2l-3.7,11.7l-0.8-0.2l0.3-1c0.2-0.6,0.2-1.3,0.1-2
		c-0.1-0.5-0.3-0.9-0.7-1.2s-1.2-0.6-2.6-1.1L449.1,321z"/>
	<path d="M444.6,368.6l-8.8-4.5l0.4-0.7c1.8,0.6,3.3,0.9,4.6,0.8c1.3-0.1,2.5-0.5,3.6-1.3c1.1-0.8,2-1.7,2.6-2.9
		c0.7-1.3,0.8-2.6,0.4-3.8c-0.4-1.3-1.1-2.1-2.1-2.7c-0.8-0.4-1.6-0.5-2.5-0.3c-1.3,0.3-3.5,1.5-6.6,3.6c-2.5,1.7-4.3,2.9-5.4,3.4
		c-1.1,0.5-2.3,0.8-3.4,0.8c-1.2,0-2.3-0.3-3.3-0.8c-1.9-1-3.2-2.6-3.9-4.8c-0.6-2.2-0.4-4.5,0.8-6.8c0.4-0.7,0.8-1.4,1.2-2
		c0.3-0.4,0.9-1,1.9-2.1c1-1,1.6-1.7,1.8-2c0.2-0.3,0.2-0.6,0.1-0.9c-0.1-0.3-0.4-0.6-1-1l0.4-0.7l8.8,4.5l-0.4,0.7
		c-2-0.6-3.6-0.9-4.8-0.8c-1.2,0.1-2.4,0.5-3.5,1.4c-1.2,0.8-2.1,1.9-2.8,3.3c-0.8,1.6-1,3-0.6,4.3s1.1,2.3,2.3,2.9
		c0.6,0.3,1.4,0.5,2.2,0.5s1.7-0.2,2.6-0.7c0.6-0.3,2.1-1.2,4.4-2.8c2.3-1.6,4.1-2.7,5.3-3.2c1.2-0.6,2.4-0.8,3.5-0.9
		s2.2,0.2,3.3,0.8c1.8,0.9,3,2.4,3.7,4.5c0.6,2.1,0.4,4.2-0.7,6.4c-0.7,1.4-1.8,2.6-3.2,3.8c-0.7,0.5-1.1,1-1.2,1.2
		c-0.2,0.3-0.2,0.6-0.1,1c0.1,0.3,0.4,0.7,0.9,1.1L444.6,368.6z"/>
	<path d="M425.2,396.4l-5.6-3.6l0.5-0.6c1,0.6,1.9,0.9,2.4,1c0.9,0.1,1.7,0,2.5-0.4c0.7-0.4,1.5-1,2.1-2l2.4-3.3l-17.7-12.7
		c-1.5-1-2.5-1.5-3.1-1.5c-0.8,0.1-1.5,0.6-2.2,1.5l-0.6,0.8l-0.6-0.5l7.1-9.9l0.6,0.5l-0.6,0.8c-0.7,1-0.9,1.9-0.6,2.8
		c0.2,0.5,0.9,1.3,2.3,2.2l17.7,12.7l2-2.8c0.8-1.1,1.3-1.9,1.4-2.5c0.2-0.8,0.2-1.6-0.2-2.4c-0.3-0.9-1-1.7-2-2.6l0.5-0.7l5.2,4.2
		L425.2,396.4z"/>
	<path d="M396.2,399.3l7.8-7.9l-1.8-4.5c-0.5-1.1-0.9-1.9-1.3-2.2c-0.3-0.3-0.7-0.4-1.3-0.4c-0.5,0.1-1.3,0.6-2.3,1.5l-0.6-0.6
		l6.3-6.4l0.6,0.6c-0.7,1-1,1.7-1,2.2c0,1,0.4,2.5,1.3,4.6l9.7,23.8l-0.6,0.6l-23.9-9.7c-1.9-0.8-3.3-1.1-4.2-1
		c-0.9,0.1-1.7,0.5-2.6,1.3l-0.6-0.6l8-8.1l0.6,0.6c-0.8,0.9-1.2,1.5-1.2,2c-0.1,0.5,0.1,0.9,0.4,1.2c0.4,0.4,1.3,0.9,2.7,1.4
		L396.2,399.3z M397.9,400l11.6,4.7l-4.8-11.6L397.9,400z"/>
	<path d="M398.4,423.9l-6.4,4.5l-26.7-7.5l9.4,13.4c1,1.5,1.8,2.3,2.4,2.4c0.8,0.2,1.6,0,2.6-0.7l0.8-0.6l0.5,0.7l-8.2,5.7l-0.5-0.7
		l0.8-0.6c1-0.7,1.5-1.5,1.5-2.4c0-0.6-0.5-1.5-1.4-2.8l-13.8-19.7l0.6-0.4l28.8,8l-10.1-14.4c-1-1.5-1.8-2.3-2.4-2.4
		c-0.8-0.2-1.6,0-2.6,0.7l-0.8,0.6l-0.5-0.7l8.2-5.7l0.5,0.7l-0.8,0.6c-1,0.7-1.5,1.5-1.5,2.4c0,0.6,0.5,1.5,1.4,2.8l11.4,16.3
		c1.2,0.3,2.1,0.5,2.6,0.5c0.5,0,1.2-0.1,2-0.4c0.4-0.1,0.9-0.4,1.6-0.9L398.4,423.9z"/>
</g>
</svg>
