<?xml version="1.0" encoding="utf-8"?>
<!-- Generator: Adobe Illustrator 26.0.2, SVG Export Plug-In . SVG Version: 6.00 Build 0)  -->
<svg version="1.1"
	 id="svg2" xmlns:cc="http://creativecommons.org/ns#" xmlns:dc="http://purl.org/dc/elements/1.1/" xmlns:inkscape="http://www.inkscape.org/namespaces/inkscape" xmlns:rdf="http://www.w3.org/1999/02/22-rdf-syntax-ns#" xmlns:sodipodi="http://sodipodi.sourceforge.net/DTD/sodipodi-0.dtd" xmlns:svg="http://www.w3.org/2000/svg"
	 xmlns="http://www.w3.org/2000/svg" xmlns:xlink="http://www.w3.org/1999/xlink" x="0px" y="0px" width="483.4px" height="600px"
	 viewBox="0 0 483.4 600" style="enable-background:new 0 0 483.4 600;" xml:space="preserve">
<style type="text/css">
	.st0{fill:#FFFFFF;}
	.st1{fill-rule:evenodd;clip-rule:evenodd;fill:#EC6608;}
	.st2{fill-rule:evenodd;clip-rule:evenodd;}
	.st3{fill:#EC6608;}
</style>
<sodipodi:namedview  bordercolor="#666666" borderopacity="1" gridtolerance="10" guidetolerance="10" id="namedview4" inkscape:current-layer="g10" inkscape:cx="199.49858" inkscape:cy="285.37199" inkscape:pagecheckerboard="0" inkscape:pageopacity="0" inkscape:pageshadow="2" inkscape:window-height="893" inkscape:window-maximized="1" inkscape:window-width="1920" inkscape:window-x="0" inkscape:window-y="25" inkscape:zoom="0.954894" objecttolerance="10" pagecolor="#ffffff" showgrid="false">
	</sodipodi:namedview>
<g id="g10" transform="matrix(1.25,0,0,-1.25,0,600.00003)" inkscape:groupmode="layer" inkscape:label="Logo Stade Lavallois">
	<g id="g6480" transform="matrix(0.99999698,0,0,0.99999698,-32.746046,-389.36807)">
		<path id="path118" inkscape:connector-curvature="0" sodipodi:nodetypes="cccscccscccscccc" class="st0" d="M226.1,389.4l-0.3,0.1
			c-81.2,19.2-125.7,67.3-126.2,67.8c-66.2,66.2-66.9,172.9-66.9,174v197.7l0.6,0.3c0.2,0.1,16.7,10.2,48.7,20.1
			c29.4,9.1,78.3,20,144.1,20c65.9,0,114.7-10.9,144.1-20c31.9-9.9,48.5-20,48.7-20.1l0.5-0.3V631.2c0-1.1-0.8-107.8-66.9-174
			c-0.4-0.5-44.9-48.5-126.1-67.7L226.1,389.4L226.1,389.4z"/>
		<path id="path6415" inkscape:connector-curvature="0" sodipodi:nodetypes="cccsccsccsccc" d="M226.1,391l-1.1,0.3
			c-80.4,19.1-123.4,65.4-125.2,67.3c-65.6,65.6-66.4,168.2-66.4,172.6v195.3l2.4,1.5c2.6,1.6,66.1,39.8,190.3,39.8
			s187.7-38.2,190.4-39.8l2.4-1.5V631.2c0-4.3-0.8-106.9-66.5-172.7c-1.6-1.8-44.6-48.1-125-67.2L226.1,391z"/>
		<path id="path116" inkscape:connector-curvature="0" sodipodi:nodetypes="cscccscsc" class="st0" d="M43.3,820.7V631.2
			c0-1,0.8-102.9,63.6-165.7c0.6-0.6,42.6-45.8,119.1-64.3c76.6,18.5,118.6,63.7,119,64.1c63,63.1,63.8,164.8,63.8,165.8v189.6
			c-12.5,6.8-74.7,37-182.8,37C118,857.7,55.9,827.5,43.3,820.7"/>
	</g>
	<g id="g6520" transform="matrix(0.99999698,0,0,0.99999698,-32.746046,-389.36807)">
		<path id="path122" inkscape:connector-curvature="0" class="st1" d="M359.9,498.8c37,55,37,127.2,37,127.2v186.7
			C336.8,847.2,226,848,226,848s-110.8-0.9-170.9-35.3L359.9,498.8"/>
		<path id="path124" inkscape:connector-curvature="0" class="st2" d="M360.7,500.2l-24.6-28.4c-60.5-53.7-110-58.4-110-58.4
			s-49.5,4.8-110,58.4c-61,54.1-61,154.6-61,154.6v186.4"/>
	</g>
	<g id="g1547">
		<path id="path126" inkscape:connector-curvature="0" class="st0" d="M258.4,110.8c-4.2,0-6.5,2-6.5,6.1v138.4
			c0,15.1-6.5,21.7-21.7,21.7h-31.5v-67.2v-46.5c-25.1,32-81.7,34.2-81.7,53.8c0,9.5,10.7,13.8,21,13.8c9.5,0,20.2-4.6,20.2-12.1
			v-8.9h32.4V277h-11.2v-9.3c-12.6,6.4-27.9,9.3-40.8,9.3c-40.9,0-73.5-24.8-73.5-62c0-64.6,93.4-67.2,93.4-89.9
			c0-11.5-10.4-15.3-20.8-15.3c-25.9,0-47.3,24.2-47.3,24.2L62,98c0,0,26.8-34,75.2-34c28.4,0,49.4,11,61.5,27.4v-5
			c0-15.2,6.5-21.7,21.7-21.7h68.2l30,28.8l10,17.3H258.4z"/>
		<g id="g6474" transform="matrix(0.99999698,0,0,0.99999698,-32.746046,-389.36807)">
			<path id="path128" inkscape:connector-curvature="0" class="st3" d="M211.8,519c2.6,0,3.2,1.3,3.7,2.7h2.3v-21.6h-3.4v16.5h-2.6
				V519z"/>
			<path id="path130" inkscape:connector-curvature="0" class="st3" d="M227.6,512.8v3.9c0,1.5-0.7,2.1-1.8,2.1
				c-1.1,0-1.7-0.6-1.7-2.1v-3.9c0-1.5,0.7-2.1,1.7-2.1C226.9,510.7,227.6,511.3,227.6,512.8 M231,505.5c0-3.6-1.7-5.6-5.2-5.6
				c-3.3,0-5,2-5,5.4v0.6h3.2v-0.8c0-1.5,0.7-2.1,1.8-2.1c1.2,0,1.9,0.6,1.9,2.6v3.9c-0.6-1.2-1.6-1.9-3.1-1.9
				c-2.5,0-3.8,1.8-3.8,4.9v3.9c0,3.5,1.8,5.4,5.1,5.4c3.3,0,5.1-2,5.1-5.4L231,505.5z"/>
			<path id="path132" inkscape:connector-curvature="0" class="st3" d="M237.2,505.1c0-1.5,0.7-2.1,1.8-2.1c1.1,0,1.7,0.6,1.7,2.1
				v11.6c0,1.5-0.7,2.1-1.7,2.1c-1.1,0-1.8-0.6-1.8-2.1V505.1z M233.9,516.5c0,3.4,1.8,5.4,5.1,5.4s5.1-2,5.1-5.4v-11.2
				c0-3.4-1.8-5.4-5.1-5.4c-3.3,0-5.1,2-5.1,5.4V516.5z"/>
			<path id="path134" inkscape:connector-curvature="0" class="st3" d="M252.2,518.8c-1.1,0-1.8-0.6-1.8-2.1v-2.3h-3.2v2.1
				c0,3.4,1.7,5.4,5.1,5.4c3.3,0,5-2,5-5.4c0-6.8-6.7-9.3-6.7-12.8c0-0.2,0-0.3,0-0.5h6.4v-3.1h-9.8v2.6c0,6.4,6.7,7.4,6.7,13.6
				C254,518.3,253.3,518.8,252.2,518.8"/>
		</g>
		<g id="g6446" transform="matrix(0.99999698,0,0,0.99999698,-32.746046,-389.36807)">
			<g id="g6417">
				<path id="path136" inkscape:connector-curvature="0" class="st0" d="M71.4,784h11.2v-60.8h18.4V713H71.4V784z"/>
				<path id="path138" inkscape:connector-curvature="0" class="st0" d="M120.2,735.5h10.8l-5.4,35.9L120.2,735.5z M145.6,713h-11.3
					l-1.9,12.9h-13.7l-1.9-12.9h-10.2l11.4,71h16.3L145.6,713z"/>
				<path id="path140" inkscape:connector-curvature="0" class="st0" d="M161.9,726.1l8.5,57.9h10.2l-11-71h-16.6l-11,71h11.3
					L161.9,726.1z"/>
				<path id="path142" inkscape:connector-curvature="0" class="st0" d="M190.8,735.5h10.8l-5.4,35.9L190.8,735.5z M216.2,713H205
					l-1.9,12.9h-13.7l-1.9-12.9h-10.2l11.4,71h16.3L216.2,713z"/>
				<path id="path144" inkscape:connector-curvature="0" class="st0" d="M221.4,784h11.2v-60.8h18.4V713h-29.5V784z"/>
				<path id="path146" inkscape:connector-curvature="0" class="st0" d="M255.8,784h11.2v-60.8h18.4V713h-29.5L255.8,784z"/>
				<path id="path148" inkscape:connector-curvature="0" class="st0" d="M300.4,729.3c0-5.1,2.2-7,5.8-7c3.6,0,5.8,1.9,5.8,7v38.3
					c0,5.1-2.2,7-5.8,7c-3.5,0-5.8-1.9-5.8-7V729.3z M289.2,767c0,11.4,6,17.8,16.9,17.8c11,0,16.9-6.5,16.9-17.8v-36.9
					c0-11.4-6-17.8-16.9-17.8c-10.9,0-16.9,6.5-16.9,17.8V767z"/>
				<path id="path150" inkscape:connector-curvature="0" class="st0" d="M330.3,713h11.1v71h-11.1V713z"/>
				<path id="path152" inkscape:connector-curvature="0" class="st0" d="M364.6,784.8c10.8,0,16.4-6.5,16.4-17.8v-2.2h-10.5v2.9
					c0,5.1-2,7-5.6,7s-5.6-1.9-5.6-7c0-14.6,21.8-17.3,21.8-37.6c0-11.4-5.7-17.8-16.6-17.8s-16.6,6.5-16.6,17.8v4.4h10.6v-5.1
					c0-5.1,2.2-6.9,5.8-6.9s5.8,1.8,5.8,6.9c0,14.6-21.8,17.4-21.8,37.6C348.2,778.3,353.7,784.8,364.6,784.8"/>
			</g>
			<g id="g6428">
				<path id="path154" inkscape:connector-curvature="0" class="st0" d="M179.8,833.3c6.2,0,9.3-3.7,9.3-10.1v-1.3h-6v1.7
					c0,2.9-1.1,4-3.2,4c-2,0-3.2-1.1-3.2-4c0-8.3,12.4-9.8,12.4-21.4c0-6.5-3.2-10.1-9.4-10.1c-6.2,0-9.4,3.7-9.4,10.1v2.5h6v-2.9
					c0-2.9,1.3-3.9,3.3-3.9c2,0,3.3,1,3.3,3.9c0,8.3-12.4,9.8-12.4,21.4C170.5,829.6,173.6,833.3,179.8,833.3"/>
				<path id="path156" inkscape:connector-curvature="0" class="st0" d="M192.7,832.8h19.6v-5.8h-6.6v-34.5h-6.3v34.5h-6.6V832.8z"
					/>
				<path id="path158" inkscape:connector-curvature="0" class="st0" d="M220.6,805.3h6.1l-3.1,20.4L220.6,805.3z M235.1,792.5h-6.4
					l-1.1,7.3h-7.8l-1.1-7.3h-5.8l6.5,40.3h9.3L235.1,792.5z"/>
				<path id="path160" inkscape:connector-curvature="0" class="st0" d="M246.1,827.1v-28.8h3.6c2,0,3.2,1,3.2,3.9v21
					c0,2.9-1.2,3.9-3.2,3.9L246.1,827.1z M239.7,832.8h10c6.3,0,9.4-3.5,9.4-10v-20.4c0-6.5-3.1-10-9.4-10h-10L239.7,832.8z"/>
				<path id="path162" inkscape:connector-curvature="0" class="st0" d="M271.3,815.8h8.7v-5.8h-8.7v-11.8h10.9v-5.8h-17.3v40.3
					h17.3v-5.8h-10.9V815.8z"/>
			</g>
			<g id="g6435">
				<path id="path164" inkscape:connector-curvature="0" class="st0" d="M164.4,686.2l2.7,17.8h5.5v-25h-3.7v17.9l-2.7-17.9h-3.7
					l-2.9,17.7v-17.7H156v25h5.5L164.4,686.2z"/>
				<path id="path166" inkscape:connector-curvature="0" class="st0" d="M180,686.8h3.8l-1.9,12.6L180,686.8z M189,678.9h-4
					l-0.7,4.5h-4.8l-0.7-4.5h-3.6l4,25h5.8L189,678.9z"/>
				<path id="path168" inkscape:connector-curvature="0" class="st0" d="M193.7,687.2l-5,16.7h4.1l3-11.4l3,11.4h3.8l-5-16.7v-8.3
					h-3.9L193.7,687.2z"/>
				<path id="path170" inkscape:connector-curvature="0" class="st0" d="M209,693.4h5.4v-3.6H209v-7.3h6.8v-3.6H205v25h10.7v-3.6
					H209V693.4z"/>
				<path id="path172" inkscape:connector-curvature="0" class="st0" d="M222.6,697v-18.1h-3.5v25h4.9l4-15v15h3.5v-25h-4L222.6,697
					z"/>
				<path id="path174" inkscape:connector-curvature="0" class="st0" d="M238.7,697v-18.1h-3.5v25h4.9l4-15v15h3.5v-25h-4L238.7,697
					z"/>
				<path id="path176" inkscape:connector-curvature="0" class="st0" d="M255.3,693.4h5.4v-3.6h-5.4v-7.3h6.8v-3.6h-10.7v25h10.7
					v-3.6h-6.8L255.3,693.4z"/>
				<path id="path178" inkscape:connector-curvature="0" class="st0" d="M275.8,692.8h5.1v-3.6h-5.1v-10.3h-3.9v25h10.4v-3.6h-6.5
					V692.8z"/>
				<path id="path180" inkscape:connector-curvature="0" class="st0" d="M296.5,688.2v-3.3c0-4-2-6.3-5.9-6.3
					c-3.9,0-5.9,2.3-5.9,6.3v13c0,4,2,6.3,5.9,6.3c3.9,0,5.9-2.3,5.9-6.3v-2.4h-3.7v2.7c0,1.8-0.8,2.5-2,2.5s-2-0.7-2-2.5v-13.5
					c0-1.8,0.8-2.4,2-2.4s2,0.6,2,2.4v3.6L296.5,688.2z"/>
			</g>
		</g>
		
			<path id="path975" inkscape:flatsided="false" inkscape:randomized="0" inkscape:rounded="0.05" inkscape:transform-center-x="0.053932929" inkscape:transform-center-y="-2.1369458" sodipodi:arg1="1.0863184" sodipodi:arg2="1.7146369" sodipodi:cx="-74.791321" sodipodi:cy="525.7608" sodipodi:r1="31.798767" sodipodi:r2="14.627433" sodipodi:sides="5" sodipodi:type="star" class="st0" d="
			M204.3,32.3c-0.5-0.4-10.2,6.3-10.8,6.3c-0.6,0-10.2-6.8-10.7-6.5c-0.5,0.4,2.9,11.7,2.7,12.2c-0.2,0.6-9.7,7.6-9.5,8.2
			c0.2,0.6,12,0.9,12.5,1.3c0.5,0.4,4.2,11.5,4.9,11.5s4.5-11.1,5-11.5c0.5-0.4,12.3-0.5,12.5-1.1c0.2-0.6-9.2-7.7-9.4-8.3
			C201.2,43.9,204.8,32.6,204.3,32.3z"/>
	</g>
</g>
</svg>
