<?xml version="1.0" encoding="utf-8"?>
<!-- Generator: Adobe Illustrator 26.0.2, SVG Export Plug-In . SVG Version: 6.00 Build 0)  -->
<svg version="1.1"
	 id="svg2" xmlns:cc="http://creativecommons.org/ns#" xmlns:dc="http://purl.org/dc/elements/1.1/" xmlns:inkscape="http://www.inkscape.org/namespaces/inkscape" xmlns:rdf="http://www.w3.org/1999/02/22-rdf-syntax-ns#" xmlns:sodipodi="http://sodipodi.sourceforge.net/DTD/sodipodi-0.dtd" xmlns:svg="http://www.w3.org/2000/svg"
	 xmlns="http://www.w3.org/2000/svg" xmlns:xlink="http://www.w3.org/1999/xlink" x="0px" y="0px" width="606px" height="742.3px"
	 viewBox="0 0 606 742.3" style="enable-background:new 0 0 606 742.3;" xml:space="preserve">
<style type="text/css">
	.st0{fill:#0A314E;}
	.st1{fill:#051F35;}
	.st2{fill:#B9955D;}
	.st3{fill:#003259;}
	.st4{fill:#8BC4E5;}
	.st5{fill:#ECECEE;}
	.st6{fill:#FFFFFF;}
</style>
<sodipodi:namedview  bordercolor="#666666" borderopacity="1" gridtolerance="10" guidetolerance="10" id="namedview4" inkscape:current-layer="svg2" inkscape:cx="187.40447" inkscape:cy="376.83715" inkscape:pageopacity="0" inkscape:pageshadow="2" inkscape:window-height="691" inkscape:window-maximized="1" inkscape:window-width="1280" inkscape:window-x="0" inkscape:window-y="1" inkscape:zoom="0.49857106" objecttolerance="10" pagecolor="#ffffff" showgrid="false">
	</sodipodi:namedview>
<path id="path3015" inkscape:connector-curvature="0" sodipodi:nodetypes="ccsccccsssccsssccccsccc" class="st0" d="M303.5,3.1
	l-27.2,11.2c-34.4,14.1-102.4,37.3-144,49.1c-33.8,9.6-101.2,24.1-110,24.9L4.1,90l0.6,32l-1.1,51.3c-2.1,25.6,1,131.9,3.4,155.9
	c5.5,54.7,14,86.7,33.9,127.2c55.7,112.9,154,223.5,242.7,273.1c9.2,5.1,18.1,9.4,19.8,9.4l0.1,0.4c1.7,0,10.6-4.2,19.8-9.4
	c88.7-49.6,187-160.3,242.7-273.2c20-40.5,28.5-72.5,33.9-127.2c2.4-23.9,4.2-129.1,2.2-154.7l0.1-52.4l0.6-32l-18.2-1.7
	c-8.8-0.8-76.2-15.3-110-24.9c-41.6-11.8-109.6-35-144-49.1L303.5,3.5V3.1z"/>
<path id="path2991" inkscape:connector-curvature="0" sodipodi:nodetypes="ccsccccsssccsssccccsccc" class="st1" d="M303.5,21.4
	L277.6,32c-32.7,13.4-97.3,35.4-136.8,46.7c-32.1,9.1-96.2,22.9-104.5,23.7L19,104l0.6,30.4l-1,48.7c-2,24.4,0.9,125.3,3.2,148.1
	c5.2,52,13.3,82.4,32.2,120.9C107,559.3,200.4,664.5,284.6,711.6c8.7,4.9,17.2,8.9,18.8,9l0.1,0.4c1.6,0,10.1-4,18.8-8.9
	c84.3-47.1,177.7-152.3,230.6-259.6c19-38.4,27.1-68.9,32.2-120.9c2.3-22.8,4-122.6,2.1-147l0.1-49.8l0.6-30.4l-17.3-1.6
	c-8.3-0.8-72.4-14.6-104.5-23.7C426.6,67.9,362,45.8,329.3,32.4l-25.8-10.6V21.4z"/>
<path id="path3019" inkscape:connector-curvature="0" sodipodi:nodetypes="ccsccccsssccsssccccsccc" class="st2" d="M303.5,43.5
	l-24.2,10C248.6,66,188.1,86.7,151.1,97.2c-30,8.5-90.1,21.4-97.9,22.2L37,120.9l0.6,28.5l-1,45.6c-1.8,22.8,0.9,117.4,3,138.8
	c4.9,48.7,12.5,77.2,30.2,113.2c49.5,100.5,137,198.9,216,243.1c8.2,4.6,16,8.4,17.6,8.4l0.1,0.4c1.5,0,9.5-3.7,17.6-8.3
	c78.9-44.2,166.4-142.7,216-243.2c17.8-36,25.3-64.5,30.2-113.2c2.1-21.3,3.7-114.9,1.9-137.7l0.1-46.7l0.6-28.5l-16.2-1.5
	c-7.8-0.7-67.8-13.6-97.8-22.2c-37-10.5-97.5-31.1-128.2-43.7l-24.2-10V43.5z"/>
<path id="path4251" inkscape:connector-curvature="0" sodipodi:nodetypes="cccsccccsssccsssccccscc" class="st3" d="M303.5,57.3v0.4
	l23.1,9.5c29.3,12,87.3,31.8,122.7,41.9c28.8,8.2,86.3,20.6,93.8,21.2l15.5,1.5l-0.6,27.2l-0.1,44.7c1.8,21.9,0.1,111.4-1.9,131.8
	c-4.7,46.7-11.9,74-28.9,108.5C479.7,540.4,395.9,634.7,320.3,677c-7.8,4.4-15.4,8-16.9,8l-0.1-0.4c-1.5,0-9-3.7-16.9-8
	C210.9,634.3,127.1,540,79.6,443.8c-17-34.5-24.3-61.8-28.9-108.5c-2-20.4-4.7-111-2.9-132.8l0.9-43.8l-0.5-27.2l15.5-1.5
	c7.5-0.7,65-13.1,93.8-21.2c35.5-10.1,93.4-29.8,122.7-41.9L303.5,57.3z"/>
<path id="path4259" class="st4" d="M303.4,295.1l-133,7.6l-92.2,19.6c-7.1,1.5-19.7,6.2-27.7,10.8c0.1,0.7,0.1,1.6,0.2,2.2
	c4.7,46.7,11.9,74,28.9,108.5c47.5,96.3,131.3,190.5,206.9,232.8c7.8,4.4,15.4,8,16.9,8l0,0.1l0-76.2l0-78.4l0-78.4l0-78.4
	L303.4,295.1z"/>
<path id="path3074" inkscape:connector-curvature="0" sodipodi:nodetypes="csssssssssssccsssssssssssc" class="st2" d="M42.1,341
	c7.5-4.6,5.1-2.7,15.7-6.8s22.7-7.9,36.1-11.4c13.4-3.5,28.1-6.6,43.8-9.4c15.7-2.8,32.5-5.2,50.2-7.1c17.7-2,36.3-3.5,55.5-4.5
	c19.2-1,39.2-1.6,59.6-1.6s40.3,0.5,59.6,1.6s37.9,2.6,55.5,4.5c17.7,2,34.5,4.4,50.2,7.1c15.7,2.8,30.4,5.9,43.8,9.4
	c13.4,3.5,25.5,7.3,36.1,11.4s7.7,1,15.2,5.7v-7.4c-7.5-4.6-4.5-1.5-15.2-5.7s-22.8-7.9-36.1-11.4c-13.4-3.5-28-6.6-43.8-9.4
	s-32.5-5.2-50.2-7.1c-17.7-2-36.3-3.5-55.5-4.5c-19.2-1-39.2-1.6-59.6-1.6s-40.3,0.5-59.6,1.6c-19.2,1-37.9,2.6-55.5,4.5
	c-17.7,2-34.5,4.4-50.2,7.1c-15.7,2.8-30.5,5.9-43.8,9.4c-13.4,3.5-25.4,7.3-36.1,11.4s-8.3,2.2-15.7,6.8"/>
<g id="g4266">
	<path id="path3010" inkscape:connector-curvature="0" class="st5" d="M140.4,132.4l-27.6,0.1l-0.1,67.8v67.2l27.2-0.1l0.3-40.1
		l53.9-0.1v40.2l29.5,0.3l-0.1-67.3v-67.5H194v34.9l0.1,32.5l-53.9,0.2l0.1-30.6C140.5,153.7,140.5,134,140.4,132.4L140.4,132.4z
		 M303.2,132.7l-60,134.5l26,0.3l8.5-15.2h25.6h25.7l7.9,15.2l28.7-0.1C346,222.1,324.2,177.2,303.2,132.7L303.2,132.7z
		 M435.1,132.9c-20.7,0.6-40.8,10.7-53.6,28.9c-21.5,30.7-14,73,16.7,94.5s73,14.1,94.5-16.7l-22-18.1
		c-6.7,12.2-19.1,20.3-33.2,20.3c-21.4,0-38.7-18.6-38.7-41.6s17.3-41.5,38.7-41.5c12.8,0,24.1,6.7,31.1,16.9l21.8-16.9
		c-4.1-5.2-8.9-9.8-14.4-13.6C463.6,136.4,449.2,132.4,435.1,132.9L435.1,132.9z M302.5,191l15.7,36.4l-31.3,0.1L302.5,191
		L302.5,191z"/>
	
		<path id="path3129" inkscape:connector-curvature="0" sodipodi:nodetypes="ccccssccccsssccccsssssssssssssssssscccscssscccccsssssscccsssssscccssssccccccssscssssscsssssssssssssssscccsssssssscsssssscc" class="st6" d="
		M225.6,323.9v9v9l-4.7-4c-6.3-5.3-9.6-5.3-8.3-0.1c0.6,2.5,0.3,3.9-0.8,3.9c-1,0-1.4,1.2-1,2.7c1.5,5.7,2.7,10.3,4.2,16.1l46.7-0.1
		l4.9-18.7c-1.5,0-1.7-1.4-1.1-4.9c0.9-4.4,0.6-4.7-2-3.2c-1.6,0.9-4.2,3.1-5.9,4.9c-2.3,2.5-3.6,3.5-4.5,2.7l-2.1-16.3l-11.1,16.8
		L225.6,323.9z M333.3,369.8c-4.7,0.3-15.4,4.1-23.2,9.2c-4.2,2.8-9.3,6.6-11.4,8.5c-2.1,1.9-5.8,3.9-8.2,4.4
		c-6.8,1.5-6.7,3.7,0.6,7.1c8.4,3.9,25.9,3.3,38.1-1.3c4.5-1.7,10.7-5.2,14-7.7c6.9-5.4,17.9-11.3,21.3-11.3c1.3,0,2.4-0.6,2.4-1.3
		c0-2.2-14.3-3.6-25.9-2.5c-9.7,0.9-10.4,0.8-7.6-1.4C336.8,370.6,336.1,369.6,333.3,369.8L333.3,369.8z M228.1,372.6
		c-26.5,0-48,8.9-57.5,23.9c-14,22.2-10.8,56.6,7.3,75.7c11.7,12.4,32,21.7,52.2,24c16,1.8,16.6,3.7,5.9,17.4
		c-5,6.4-8.3,9.1-14.4,11.3c-4.3,1.6-9.5,4.7-11.6,6.9l-3.8,4l5.9-1.1c5.5-1,5.8-0.9,5.8,3c0,5,0,5,8.9,0.3c7.3-3.9,9.7-3.9,9.7,0
		c0,2.9,0.9,2.8,6.4-0.4c5.1-3,5.6-5.3,2-8.9c-4.1-4.1,1.5-12.8,12.8-20.3l9.5-6.2l-0.8-9.3l-0.7-9.3l3,4.8
		c7.3,11.4,18.4,15.9,32.6,13.1c10.5-2.1,34.2-10.6,36.3-12.6c2.7-2.5,6.9-1.4,12,3.2c2.8,2.6,6,4.7,7.1,4.7c2.9,0,2.3,4.1-2.4,16.2
		c-3.8,9.8-4.7,10.9-10.4,12.8c-3.4,1.2-7.6,3.5-9.3,5.3l-3.1,3.2l4.7-0.5c3.8-0.4,4.7,0.1,5.2,3c0.6,4.2,0.5,4.3,6.8,0.4
		c6-3.6,10.5-4,10.5-0.8c0,1.8,4.4,1.9,8.2,0.6c5.7-2,5.8-4.7,0.6-9.6c-3.9-3.6-3.9-4-1.9-9.7c1.2-3.4,5.9-9.8,10.7-14.6l8.6-8.6
		l-4.4-9.2c-4.3-9.2-5.8-21.3-2.9-23.1c0.8-0.5,2.2,1.5,3.2,4.4c2.7,8.1,5.7,9.8,19,10.6c15.3,0.9,19.8,3.7,19.8,11.9
		c0,9.7-4.9,13-21.1,14.1c-3,0.2-5.5,0-7.4-0.3c-2-0.3-3.7,0.5-4.9,0.1l-5.8,0.5l-8.7,12.4c-0.7,1.4,27.8,2.9,37.7,2.8
		c28.5-0.2,44.6-31.5,28.2-54.9c-1.7-2.5-3.3-6-3.4-7.8c-0.1-1.8-2.4-4.6-5.1-6.4c-2.9-1.9-4.9-4.4-4.9-6.4c0-2.7-1.6-3.7-9-5.5
		c-7.1-1.7-9-2.8-9-5.2c0-2.7-1.3-3.1-10.4-3.5c-9.1-0.4-10.4-0.8-10.4-3.4c0-4.6-2.4-5-12.8-2.3c-13.4,3.6-14.3,3.5-14.8-0.5
		c-0.6-4.4-4.6-4.5-15.7-0.3c-9.3,3.5-12.6,3.2-12.6-1.6c0-1.7-0.3-3.2-0.7-3.2c-0.4,0-6.4,2.1-13.3,4.6
		c-12.2,4.4-12.6,4.5-13.4,1.6c-1.1-4.1-5.2-3.8-18.3,1.6c-7.5,3-11.5,3.9-12.8,2.9c-3.5-2.9-15.8,2.7-35.7,16.2
		c-10.7,7.2-17.6,9.4-27.7,8.5c-6.9-0.6-9.1-1.5-13.1-5.7c-6.5-6.8-9.3-14.1-9.6-24.7c-0.3-10.6,2.5-16.8,9.5-21.5
		c8.2-5.5,17.1-4.9,25.9,1.8c5.8,4.5,8.4,5.4,14.5,5.4c10.3,0,23.6-2.7,26.3-5.4c1.9-1.9,1.6-2.4-2.3-3.2c-2.5-0.5-7.3-2.3-10.7-3.9
		l-6.2-2.9l9.3-0.3c11.6-0.3,16.3-1.5,18.5-5c2.1-3.4,1-4.2-15.1-10.4C244.3,373.2,240.3,372.6,228.1,372.6L228.1,372.6z
		 M229.3,377.9c3.2,0,5.7,2,5.7,4.5s-2.6,4.4-5.7,4.4c-3.2,0-5.7-2-5.7-4.4C223.6,380,226.1,377.9,229.3,377.9z M354,503.4
		c-2.3,0.4-19.2,0.5-23.9,1.1c-11.5,1.4-33,6.4-38.7,8.6c-4.9,1.9-13.2,9-13.2,11.3c0,0.7,1.8,3.5,4.6,1.5
		c2.8-2.1,11.1-6.8,15.8-8.3c5.6-1.8,15.5-3,28.7-3.5c10.2-0.4,18.4,1.5,21.5,0.6L354,503.4z"/>
	<g id="g3207" transform="matrix(2.2585355,0,0,2.2585355,-81.695374,-12.1034)">
		<path id="path3138" inkscape:connector-curvature="0" class="st6" d="M161.7,259.1c-3.7,0-6.8,2.8-6.8,6.3c0,1.8,0.8,3.4,2.2,4.5
			c-1.3,1.1-2.2,2.8-2.2,4.5c0,3.5,3,6.3,6.8,6.3c3.7,0,6.8-2.8,6.8-6.3c0-1.8-0.8-3.4-2.2-4.5c1.3-1.1,2.2-2.8,2.2-4.5
			C168.5,261.9,165.5,259.1,161.7,259.1z M161.9,263.1c1.3,0,2.3,1,2.3,2.2c0,1.2-1,2.1-2.3,2.1c-1.3,0-2.3-0.9-2.3-2.1
			S160.6,263.1,161.9,263.1z M161.9,272c1.3,0,2.3,1,2.3,2.2c0,1.2-1,2.2-2.3,2.2c-1.3,0-2.3-1-2.3-2.2
			C159.5,273,160.6,272,161.9,272z"/>
		<path id="path3162" inkscape:connector-curvature="0" sodipodi:nodetypes="ccccccccc" class="st6" d="M140.3,263.5l0,5.4l3.8-4
			l0,15.9l5.7,0V259l-5.7,0l0,0L140.3,263.5z"/>
		<path id="path3164" inkscape:connector-curvature="0" sodipodi:nodetypes="cccccccccc" class="st6" d="M173,259.6l0.1,7.6h4.6
			v-3.4h4.5L175,281l5.9,0l6.7-17l-0.1-4.4L173,259.6z"/>
		<path id="rect3179" inkscape:connector-curvature="0" sodipodi:nodetypes="cccccaaccccccccaacc" class="st6" d="M190.2,264.7
			c0,0.4,0,1.7,0,1.7h4.8c0,0-0.1-1.1,0-1.4c0.4-1.8,3.4-1.8,3.8-0.2c0.1,0.3,0.2,0.5,0.2,0.8c0,0.2,0,0.5,0,0.7
			c0,0.3-0.2,0.8-0.2,0.8l-8.4,9.2l-0.1,0.3v4.2h13.5v-4.5h-7.3l6.8-7.4c0,0,0.2-0.4,0.3-0.7c0.1-0.4,0.1-0.8,0.1-1.2
			c0-0.5,0.1-1,0-1.6C204.4,257.4,190.1,257.3,190.2,264.7L190.2,264.7z"/>
	</g>
</g>
</svg>
