<?xml version="1.0" encoding="utf-8"?>
<!-- Generator: Adobe Illustrator 26.0.2, SVG Export Plug-In . SVG Version: 6.00 Build 0)  -->
<svg version="1.1"
	 id="svg2" xmlns:cc="http://creativecommons.org/ns#" xmlns:dc="http://purl.org/dc/elements/1.1/" xmlns:inkscape="http://www.inkscape.org/namespaces/inkscape" xmlns:rdf="http://www.w3.org/1999/02/22-rdf-syntax-ns#" xmlns:sodipodi="http://sodipodi.sourceforge.net/DTD/sodipodi-0.dtd" xmlns:svg="http://www.w3.org/2000/svg"
	 xmlns="http://www.w3.org/2000/svg" xmlns:xlink="http://www.w3.org/1999/xlink" x="0px" y="0px" width="700px" height="665.8px"
	 viewBox="0 0 700 665.8" style="enable-background:new 0 0 700 665.8;" xml:space="preserve">
<style type="text/css">
	.st0{fill:none;stroke:#FFFF00;stroke-width:0.366;}
	.st1{fill:#24216A;}
	.st2{fill:#FFFFFF;}
	.st3{fill-rule:evenodd;clip-rule:evenodd;fill:#E01E13;}
	.st4{fill:#E01E13;}
	.st5{fill-rule:evenodd;clip-rule:evenodd;fill:#24216A;}
	.st6{fill-rule:evenodd;clip-rule:evenodd;fill:#201E5F;}
</style>
<sodipodi:namedview  bordercolor="#666666" borderopacity="1" gridtolerance="10" guidetolerance="10" id="namedview19" inkscape:current-layer="svg2" inkscape:cx="-17.683096" inkscape:cy="435.7041" inkscape:pageopacity="0" inkscape:pageshadow="2" inkscape:window-height="691" inkscape:window-maximized="1" inkscape:window-width="1280" inkscape:window-x="0" inkscape:window-y="1" inkscape:zoom="0.28326512" objecttolerance="10" pagecolor="#ffffff" showgrid="false" showguides="false">
	</sodipodi:namedview>
<path id="path9267" inkscape:connector-curvature="0" sodipodi:nodetypes="ccccc" class="st0" d="M136.4,403.2h13.3v29h-13.3V403.2z
	"/>
<g id="g9322" transform="matrix(1.757659,0,0,1.757659,44.53973,-71.656759)">
	<g id="g9318">
		
			<path id="path4258" inkscape:connector-curvature="0" inkscape:transform-center-x="0.11350482" inkscape:transform-center-y="-19.88585" class="st1" d="
			M296.9,419.5l-246.1,0l-76.1-234.1L173.8,40.8l199.1,144.7L296.9,419.5z"/>
		
			<path id="path9224" inkscape:connector-curvature="0" inkscape:transform-center-x="0.10210982" inkscape:transform-center-y="-17.8897" class="st2" d="
			M284.5,402.5l-221.4,0L-5.3,191.9L173.8,61.8l179.1,130.2L284.5,402.5z"/>
	</g>
	<g id="g9303">
		<g id="g9251">
			<path id="path9174" inkscape:connector-curvature="0" sodipodi:nodetypes="ccccc" class="st3" d="M171,77.5
				c0.1,25.1-13.5,46.4-62.8,78.3c-74.7,51.6-71,74.3-80.2,101.4L7.7,196.1L171,77.5z"/>
			<path id="path9176" inkscape:connector-curvature="0" sodipodi:nodetypes="cscscccc" class="st3" d="M47.4,315.6
				c-13.6-39.1-7.8-68.2,5.3-90.7c12.3-21,30.7-36.7,51.2-50.8c-13.5,16.7-22.5,30.3-28.4,41.8c-15.9,31.2-13,50.5-7.7,66.7
				c0.9-21.6,3.9-42.8,26.6-60.1c-15.7,38.6-6.3,62.1,2.3,73.6L47.4,315.6z"/>
			<path id="path9228" inkscape:connector-curvature="0" sodipodi:nodetypes="cccccc" class="st4" d="M173.8,276.4l-123.5,51
				l20.8,64.1h205.4l20.8-64.1L173.8,276.4z"/>
			<path id="path9243" inkscape:connector-curvature="0" sodipodi:nodetypes="ccscsccccsccccccccc" class="st5" d="M164.8,224.6
				c-2.4,22.2,6.3,25.6,14.8,30.4c0.6-9.3,3.6-11.7,7.9-12.7c20.2-4.5,25.8,17.9,38.7,25.4c7.1,4.1,21.7,2.4,29.2,0.2
				c26-7.6,35.3-34.2,37.3-54.2c4.4-2.6,9.7-2.9,11-14c-21.3-8.7-39.1-19.2-55.1-30.6c2.1-1.5,5.7-1.3,6.4-4.9
				c0.2-0.6-3.9-3.9-8.4-7.9c-10.2-9-27.5-22.8-36.2-24.8c-0.2-9.4-2-18.5-12.4-26.2c0,7.4-1.1,15.1-4,21.8l-8-0.6
				c4-15,4.4-31.2-4.6-45.6L340,196.1l-38.8,119.4l-123.9-49C165.2,261.4,151.3,249.6,164.8,224.6z"/>
			<path id="path9247" inkscape:connector-curvature="0" sodipodi:nodetypes="cccccc" class="st6" d="M201.4,164.6
				c8.5,4.5,13.3,10.7,16.4,18.6c3.3-1.2,7.2-1.4,11.5-1.6c4.4-1.4,6-5.4,6.4-9.8c-2.5,1.4-5.4,1.5-8.5,0.9
				C219.5,164.9,210.7,163.6,201.4,164.6z"/>
		</g>
		<g id="g9295">
			<path id="path166" inkscape:connector-curvature="0" class="st2" d="M175,315.4c0.8-8.4,12.5-7.3,12.5-7.3l-4.4-5.4
				c0,0-5.2-0.7-7.6,5.3c0,0.1-0.1,0.2-0.1,0.3c0,0.1-0.1,0.2-0.2,0.1c-0.1,0-0.1-0.1-0.1-0.2c0-0.1,0.1-0.2,0.1-0.3
				c1.5-5.9,4.6-10.4,4.6-10.4l-5.8-7.8l-5.8,7.8c0,0,3.1,4.5,4.6,10.4c0,0.1,0,0.2,0.1,0.3c0,0.1,0,0.2-0.1,0.2
				c-0.1,0-0.2,0-0.2-0.1c0-0.1-0.1-0.3-0.1-0.3c-2.3-6-7.6-5.3-7.6-5.3l-4.4,5.4c0,0,11.7-1.1,12.5,7.3H175L175,315.4z"/>
			<g id="g9289" transform="translate(0.6672675,0)">
				<path id="rect9258" inkscape:connector-curvature="0" sodipodi:nodetypes="cccccccc" class="st2" d="M85.1,326.6v39.2V377H118
					l-3.1-11.2H99.4v-39.2H85.1z"/>
				<path id="rect9273" inkscape:connector-curvature="0" class="st2" d="M229.8,326.7c-4.9,0-8.8,3.6-8.8,8.1v27.8l4.8,14.3h26.5
					c4.9,0,8.8-3.6,8.8-8.1V359h-13.5v7.5h-13.3v-29h13.3v7.2h13.5v-9.8c0-4.5-3.9-8.1-8.8-8.1H229.8L229.8,326.7z"/>
				<path id="path9282" inkscape:connector-curvature="0" sodipodi:nodetypes="ssccsssssccccc" class="st2" d="M131.8,326.7
					c-4.9,0-8.8,3.6-8.8,8.1v27.8l4.8,14.3h26.5c4.9,0,8.8-3.6,8.8-8.1v-34c0-4.5-3.9-8.1-8.8-8.1H131.8z M136.4,337.4h13.3v29
					h-13.3V337.4z"/>
				<path id="path9284" inkscape:connector-curvature="0" sodipodi:nodetypes="cccccccsscccccccsssscc" class="st2" d="M183.9,355.4
					l14.8,3.5v7.6h-13.3v-3.8H172l4.8,14.3h26.5c4.9,0,8.8-3.6,8.8-8.1v-11.3c-0.2-4-3.4-7.4-15.5-9.8l-11.3-2.8v-7.6h13.3v4.2h13.5
					v-6.8c0-4.5-3.9-8.1-8.8-8.1h-22.5c-4.9,0-8.8,3.6-8.8,8.1l0,12.9C172.1,352.6,178.9,354.1,183.9,355.4L183.9,355.4z"/>
			</g>
		</g>
	</g>
</g>
</svg>
