<?xml version="1.0" encoding="utf-8"?>
<!-- Generator: Adobe Illustrator 26.0.2, SVG Export Plug-In . SVG Version: 6.00 Build 0)  -->
<svg version="1.1"
	 id="svg4726" xmlns:cc="http://creativecommons.org/ns#" xmlns:dc="http://purl.org/dc/elements/1.1/" xmlns:inkscape="http://www.inkscape.org/namespaces/inkscape" xmlns:rdf="http://www.w3.org/1999/02/22-rdf-syntax-ns#" xmlns:sodipodi="http://sodipodi.sourceforge.net/DTD/sodipodi-0.dtd" xmlns:svg="http://www.w3.org/2000/svg"
	 xmlns="http://www.w3.org/2000/svg" xmlns:xlink="http://www.w3.org/1999/xlink" x="0px" y="0px" width="490px" height="692.4px"
	 viewBox="0 0 490 692.4" style="enable-background:new 0 0 490 692.4;" xml:space="preserve">
<style type="text/css">
	.st0{fill:#FFFFFF;}
	.st1{fill:#EB6408;}
</style>
<defs>
	
		<inkscape:perspective  id="perspective4734" inkscape:persp3d-origin="372.04724 : 350.78739 : 1" inkscape:vp_x="0 : 526.18109 : 1" inkscape:vp_y="0 : 1000 : 0" inkscape:vp_z="744.09448 : 526.18109 : 1" sodipodi:type="inkscape:persp3d">
		</inkscape:perspective>
</defs>
<sodipodi:namedview  bordercolor="#666666" borderopacity="1.0" id="base" inkscape:current-layer="layer1" inkscape:cx="49" inkscape:cy="267.66561" inkscape:document-units="px" inkscape:pageopacity="0.0" inkscape:pageshadow="2" inkscape:window-height="706" inkscape:window-maximized="1" inkscape:window-width="1366" inkscape:window-x="-8" inkscape:window-y="-8" inkscape:zoom="0.79314854" pagecolor="#ffffff" showgrid="false">
	</sodipodi:namedview>
<g id="LENS">
	<g id="LORIENT">
		<path class="st0" d="M245,686l-3.4-1.9C143.1,628.8,74.8,550.9,38.5,452.5C8,370,8,292.6,8,259.5c0-77.1,16.3-179,16.4-180
			l0.6-3.7l3.3-1.6c1.2-0.6,2.9-1.3,4.4-2c1.4-10.9,2.5-19.1,2.5-19.1l0.5-3.7l3.4-1.6c0.9-0.5,23.6-11.3,58.8-21.2
			c32.6-9.2,84.6-20.1,147-20.1s114.4,11,147,20.1c35.1,9.9,57.8,20.8,58.8,21.2l3.3,1.6l0.5,3.7c0,0.1,1.1,8.3,2.5,19.1
			c1.5,0.7,3.2,1.5,4.4,2l3.3,1.6l0.6,3.7c0.2,1,16.4,102.9,16.4,180c0,33.1,0,110.5-30.5,193c-36.3,98.4-104.6,176.3-203.1,231.6
			L245,686"/>
		<path d="M458.6,80.6c-2.6-1.2-7.9-3.6-7.9-3.6c-1.6-12.9-3-22.9-3-22.9s-22.6-11-57.6-20.8c-32.2-9.1-83.5-19.9-145.1-19.9
			S132.1,24.2,99.9,33.3c-35,9.8-57.6,20.8-57.6,20.8s-1.4,10.1-3,22.9c0,0-5.3,2.4-7.9,3.6c0,0-16.4,101.4-16.4,178.9
			c0,77.4,3.4,291.3,230,418.5c226.6-127.2,230-341.1,230-418.5C475,182,458.6,80.6,458.6,80.6z"/>
		<path class="st0" d="M450.7,107c0.9,8.1,1.8,16.9,2.7,26.1c-14.1-1.3-53.5-3.3-115.9,5.1c-56.4,7.6-109.8,25.2-132.7,33.4
			c0.3-14,1.1-27,2.2-38.9c16.9-6.2,55.1-18.4,108.4-25C391.4,98.3,442.5,105.7,450.7,107z"/>
		<path class="st0" d="M322.2,39.4c80.4,0,122.3,17.1,122.3,17.1l0,0l0,0c0,0,1,7.3,2.5,19.4c-7.4-2.2-49.4-13.7-122-9.4
			c-50.6,3-91.5,13.1-110.8,18.6c1-4.6,2-8.9,3-12.9c2.5-9.8,5-17.7,7.1-23.7C245.8,44.2,279.3,39.4,322.2,39.4z"/>
		<path class="st0" d="M209.7,29.9c6.1,1,10.6,2.1,13.5,3c1.1,0.4,2,0.7,2.7,1c-1.1,0.9-3.2,2.3-6.8,3.7c-9,3.6-26.8,8.1-59.2,11.3
			c-1-11.3-2.4-19.2-3.1-22.8C180.3,26.3,197.9,28,209.7,29.9z"/>
		<path class="st1" d="M245,619.4C83.1,525,43.2,397.5,33.4,309.1h423.2C446.8,397.5,406.9,525,245,619.4z"/>
		<path class="st1" d="M156.2,49.4c-0.9-9.8-2.1-17-2.8-21c-0.4-2-0.6-3.1-0.7-3.5c-50.5,8.8-86.3,22.5-100.5,28.5l0,0
			C97.1,53.4,130.9,51.8,156.2,49.4z"/>
		<path class="st0" d="M456.5,169c-17.8-0.2-67.7,0.6-132.7,13.6c-6.9,1.4-13.7,2.9-20.3,4.4H201.1c0-1.4,0-2.8,0-4.1
			c0-78.3,16.2-126.9,22.8-143.5c-1,0.5-2.2,1.1-3.6,1.6c-5.7,2.3-14.5,4.8-27.7,7.2C166.2,53,122.3,57,50.3,57c-1.6,0-3.3,0-4.9,0
			c-0.9,6.7-10.1,74.2-13.7,137.9h426.6C457.8,186.3,457.2,177.6,456.5,169z"/>
		<path d="M356.6,446c-0.8-0.3-1.7-0.6-2.6-0.9c-1.2-59.1-49.6-106.9-109-106.9c-26.4,0-50.7,9.4-69.6,25.1
			c-9.9-1.5-21.1-2.2-30.8,0c-2,0.5-5.3,1.9-0.7,7.9l7.4,9.5c0.7,0.9,1.6,3.8-1.3,3.8c-2.8,0-14.8-0.7-16,0.5
			c-9.5,9.4-20,31.6-20,59.3c0,7.8,1.5,15.8,4.3,23.8c0,0,1,2.9,1.6,4.2c19.3,49.2,65.7,82.5,121.5,83.9c1.2,0,2.4,0.1,3.6,0.1
			c1,0,1.9,0,2.9,0c40.2-0.8,75.4-18.5,99.4-46.4c6.1-7.1,11.5-14.9,16-23.2C372.5,467.5,369.9,451.3,356.6,446z"/>
		<path class="st1" d="M245,346.5c55,0,100,43.2,102.8,97.5c-29.8-3.9-81.7,0.6-118,10.4c44.9-4.8,81.5,2.4,93.4,23
			c13.7,23.8-19.8,73.1-75.2,74.8c-1,0-2,0-3,0c-16.4,0-31.9-5.6-45.5-15.4c-17.4-13.1-27.5-31.3-28.3-42.2
			c-1.3-16.9-1.9-30.7,64.1-50.1c18.3-5,28.3-5.8,39.2-7.6c13.7-2.2,34.2-6.7,48.4-18.8c0,0,5.2-0.7,6.3-1.2
			c1.3-0.5,2.1-6.3,1.3-7.3c-0.9-1.1-9.1-12.8-33.4-22.8c-18-7.4-47.7-15.8-83.9-15.8c-5.7,0-7.1,0.1-15.5-2.7
			c-2.6-0.8-6.9-2.1-12.1-3.3C202.4,353.5,222.9,346.5,245,346.5z"/>
		<path class="st0" d="M331.7,477.6c-11.5-21.9-54.2-28.3-101.9-23.2c44.9-4.8,81.5,2.4,93.4,23c14,24.2-21.1,74.9-78.2,74.9
			c-55,0-97.9-45.9-91.6-77.9c4.8-24.2,81.3-48,84.6-48.8c1.7-0.4,2.9-1.7,1.4-3.4c-8.3-9-13.2-18.4-14.5-22.2
			c-1.4-4-0.6-9.1,8.1-11.1c11.3-2.6,21.8-1.6,21.8-1.6s-19.5-0.3-22.9,6.7c-1.7,3.5,5.1,16.7,20.5,28.5c3.5,2.7,7,4.7,12.6,5.7
			c6.7,1.2,36.9,5.8,58.1-9.9c0,0-20.5,1.8-27.8,1.8c12.4-1.4,24.2-4,28-5.5c0.9-0.3,2.3-3.7,1.6-5.6c-1.7-4.2-11.2-15-29.1-21.8
			c-17.6-6.7-65.9-15.7-113.6-0.4c-76.5,24.6-53.3,98-32.2,121.8c35.5,40.2,77,46.3,95.1,46.3s30.1-2.9,48.9-11.6
			C312.6,534.6,345.4,503.6,331.7,477.6z"/>
		<path d="M257.3,392.4c0,0,0.5,4.3,8.7,7.8c7.5,3.2,13.4,1.8,14.7,0.6c1.2-1.2-3-4.9-6.2-8c-4-3.8,4.1-3.2,5.7-2.9
			c1.4,0.3,4.1,1.5,5.8,2.4c8.6,4.5,8.1,7.7,7.8,9.5c-0.4,1.8-6.3,7.9-21.8,3.1C256.3,400,257.3,392.4,257.3,392.4z"/>
		<path d="M152.1,413.2c9.6-4.6,32.7-12.7,70.9-9.8c0,0-32,2.1-53.1,10.2c-6.1,2.4-6.8,5.8-1.2,7.4c5.7,1.6,21.8,4.8,23.4,4.8
			c1.5,0,5.3,0.2,13.7-4.6c8.4-4.8,19.1-12.4,19.1-12.4s-14.6,15.6-20.5,20.2s-9.2,5.7-21.6,3.7c-12.4-2-27.1-6-32-7.9
			C145.9,422.8,142.5,417.8,152.1,413.2z"/>
		<path d="M272.8,522.2H264c-1.3,0-2.5-0.4-3.5-1.2v1.2h-19.2v-1.3c-1.1,0.8-2.2,1.2-3.5,1.3H229c-1.4,0-2.6-0.5-3.6-1.3v1.3h-9.8
			v-20.7h-3.9l4.3-8.1l0.6-1.1h8.9v1.3c1.1-0.9,2.2-1.3,3.5-1.3h8.8c1.5,0,2.8,0.6,3.9,1.6l0.7,0.7l0.6-0.7c1.2-1.1,2.4-1.6,3.9-1.6
			h8.1c1.5,0,2.8,0.6,3.9,1.6l0.6,0.7l0.6-0.7c1.2-1.1,2.4-1.6,3.9-1.6h8.8c1.5,0,2.8,0.6,3.9,1.6c1.1,1.1,1.7,2.4,1.7,3.9v6.5h-1.6
			c1,1.1,1.5,2.3,1.6,3.8v8.6c0,1.6-0.6,2.9-1.7,3.9C275.5,521.7,274.3,522.2,272.8,522.2 M253.9,512.9h4.5v-6L253.9,512.9z
			 M243.4,504.1v6.1l4.5-6.1H243.4z"/>
		<path class="st0" d="M276.2,502.1v-4.3c0-1-0.3-1.7-1-2.4c-0.7-0.7-1.5-1-2.5-1H264c-0.9,0-1.7,0.3-2.5,1c-0.7,0.6-1,1.4-1,2.4
			v18.9c0,1,0.3,1.7,1,2.4s1.5,1,2.5,1h8.7c0.9,0,1.7-0.3,2.5-1c0.7-0.6,1-1.4,1-2.4v-8.6c0-1-0.3-1.7-1-2.4c-0.7-0.7-1.5-1-2.5-1
			h-6v-5.4h3.6v2.8H276.2z M270.3,509.7v5.4h-3.6v-5.4L270.3,509.7L270.3,509.7z"/>
		<path class="st0" d="M254.9,494.4h-8c-0.9,0-1.7,0.3-2.5,1c-0.7,0.6-1,1.4-1,2.4v4.1h6.2v-2.5h2.5v2.5l-8.7,11.7v6.5h14.9v-5h-8.7
			l8.7-11.7v-5.6c0-1-0.3-1.7-1-2.4C256.7,494.7,255.9,494.4,254.9,494.4z"/>
		<path class="st0" d="M237.8,494.4h-8.7c-1,0-1.7,0.3-2.5,1c-0.7,0.6-1,1.4-1,2.4v8.6c0,1,0.3,1.7,1,2.4c0.7,0.7,1.5,1,2.5,1h6v5.4
			h-3.6v-2.8h-5.9v4.3c0,1,0.3,1.7,1,2.4s1.5,1,2.5,1h8.7c0.9,0,1.7-0.3,2.5-1c0.7-0.6,1-1.4,1-2.4v-18.9c0-1-0.3-1.7-1-2.4
			C239.5,494.7,238.7,494.4,237.8,494.4z M235,504.8h-3.6v-5.4h3.6V504.8z"/>
		<polygon class="st0" points="215.2,499.4 217.7,499.4 217.7,520.1 223.3,520.1 223.3,494.4 217.8,494.4 		"/>
		<path d="M189.3,67.3c-1.3-3-2.6-6-3.9-9c-1.7,3.4-3.3,6.7-5,10.1c1.4,1.3,2.8,2.5,4.2,3.8C186.1,70.5,187.7,68.9,189.3,67.3z"/>
		<path d="M56.6,152.8c-1.4-1.5-2.7-2.9-4.1-4.4c-4.4,1.3-8.8,2.6-13.3,3.9c3.8,1.6,7.7,3.1,11.5,4.6
			C52.7,155.6,54.7,154.2,56.6,152.8z"/>
		<path d="M37.1,181.9c3.1-0.7,6.3-1.5,9.4-2.2c1.7,1.7,3.4,3.4,5.1,5.1c2.4-1.6,4.8-3.3,7.2-4.9c2.8,0.9,5.5,1.7,8.3,2.6
			c-3.2-9.3-6.3-18.7-9.3-28.1C51.2,163.7,44.2,172.8,37.1,181.9z"/>
		<path d="M54.6,147c1.3,1.4,2.7,2.9,4,4.3c1.9-1.4,3.8-2.8,5.7-4.1c-1-3.2-2-6.3-3-9.5C59,140.8,56.8,143.9,54.6,147z"/>
		<path d="M70.6,80c-1.3-1.4-2.6-2.9-3.8-4.3c-4.1,1.4-8.2,2.8-12.3,4.1c3.6,1.5,7.2,3,10.8,4.4C67,82.8,68.8,81.4,70.6,80z"/>
		<path d="M77.5,84.2c4.1-1.4,8.2-2.9,12.3-4.4c-3.6-1.4-7.2-2.7-10.8-4.1c-1.8,1.4-3.6,2.9-5.4,4.3C74.9,81.4,76.2,82.8,77.5,84.2z
			"/>
		<path d="M59.9,152.9c1.4,1.4,2.7,2.9,4.1,4.3c4.4-1.4,8.8-2.8,13.2-4.2c-3.9-1.4-7.7-2.8-11.6-4.3
			C63.7,150.1,61.8,151.5,59.9,152.9z"/>
		<path d="M66.2,112c2.2-1.7,4.5-3.3,6.7-5c2.6,0.8,5.2,1.7,7.8,2.5c-3.1-9.3-6-18.6-8.9-27.9c-6.2,9.3-12.6,18.5-19.1,27.7
			c2.9-0.8,5.8-1.6,8.7-2.4C63,108.6,64.6,110.3,66.2,112z"/>
		<path d="M77.6,74.2c-1-3.1-1.9-6.3-2.9-9.4c-2,3.1-4.1,6.3-6.2,9.4c1.2,1.4,2.5,2.8,3.8,4.2C74.1,77,75.9,75.6,77.6,74.2z"/>
		<path d="M161.4,178.9c3-1.1,6-2.2,9-3.3c1.9,1.5,3.8,3,5.7,4.5c2.2-1.9,4.4-3.8,6.6-5.7c2.8,0.6,5.7,1.1,8.6,1.6
			c-4.2-8.9-8.4-17.9-12.4-26.8C173.3,159.2,167.4,169.1,161.4,178.9z"/>
		<path d="M177.4,147.9c-1.5-1.3-3-2.6-4.5-3.8c-4.2,1.8-8.5,3.6-12.7,5.4c4,1.1,8,2.2,12,3.2C173.9,151.1,175.7,149.5,177.4,147.9z
			"/>
		<path d="M180.7,147.5c1.5,1.3,3,2.5,4.6,3.8c4.2-1.9,8.5-3.8,12.7-5.7c-4-1-8-1.9-12-2.9C184.2,144.3,182.4,145.9,180.7,147.5z"/>
		<path d="M99.3,182.2c3.1-0.9,6.2-1.8,9.2-2.8c1.8,1.6,3.6,3.2,5.4,4.8c2.3-1.8,4.6-3.5,6.9-5.3c2.8,0.7,5.6,1.4,8.5,2.1
			c-3.7-9.1-7.3-18.3-10.8-27.5C112.3,163.2,105.9,172.7,99.3,182.2z"/>
		<path d="M94.3,117.8c-6.2,9.4-12.6,18.8-19.2,28.2c3-0.8,6-1.7,9-2.6c1.7,1.7,3.4,3.3,5.1,5c2.3-1.7,4.6-3.4,6.8-5.2
			c2.7,0.8,5.4,1.5,8.1,2.3C100.8,136.3,97.5,127.1,94.3,117.8z"/>
		<path d="M152.7,115c-5.7,9.8-11.5,19.5-17.5,29.2c3-1,5.9-2,8.8-3.1c1.8,1.6,3.6,3.1,5.4,4.7c2.2-1.8,4.4-3.7,6.5-5.5
			c2.7,0.6,5.5,1.2,8.2,1.8C160.3,133.1,156.5,124,152.7,115z"/>
		<path d="M120.4,151.9c1.5,1.4,2.9,2.7,4.4,4.1c4.4-1.6,8.7-3.3,13-5c-3.9-1.2-7.9-2.4-11.8-3.6
			C124.1,148.9,122.2,150.4,120.4,151.9z"/>
		<path d="M99.8,152.6c3.9,1.3,7.8,2.6,11.7,3.9c1.9-1.5,3.7-3,5.6-4.5c-1.4-1.4-2.9-2.7-4.3-4.1
			C108.5,149.6,104.1,151.1,99.8,152.6z"/>
		<path d="M158.1,107.2c-1.2-3.1-2.5-6.1-3.7-9.2c-1.8,3.3-3.7,6.6-5.6,9.9c1.4,1.3,2.8,2.6,4.2,3.9
			C154.8,110.3,156.5,108.7,158.1,107.2z"/>
		<path d="M146.1,118.2c1.8-1.5,3.5-3.1,5.2-4.7c-1.5-1.3-2.9-2.6-4.3-4c-4.1,1.7-8.2,3.4-12.4,5.1
			C138.4,115.8,142.3,117,146.1,118.2z"/>
		<path d="M134,82.4c4-1.7,8-3.4,12-5.1c-3.7-1.2-7.4-2.3-11-3.5c-1.7,1.5-3.4,3.1-5.1,4.6C131.2,79.7,132.6,81.1,134,82.4z"/>
		<path d="M158.8,117.2c4.1-1.8,8.2-3.6,12.3-5.4c-3.8-1.1-7.7-2.1-11.5-3.2c-1.7,1.6-3.4,3.1-5.2,4.7
			C155.9,114.6,157.4,115.9,158.8,117.2z"/>
		<path d="M196.4,102c-4.1-8.9-8.1-17.8-12-26.7c-5.1,10-10.4,19.9-15.8,29.8c2.8-1.1,5.6-2.2,8.4-3.4c1.8,1.5,3.6,3,5.4,4.5
			c2-1.9,4.1-3.8,6.1-5.7C191,101,193.7,101.5,196.4,102z"/>
		<path d="M76.3,116.5c3.7,1.4,7.5,2.8,11.3,4.2c1.8-1.5,3.7-2.9,5.5-4.4c-1.4-1.4-2.7-2.8-4.1-4.2C84.7,113.6,80.5,115,76.3,116.5z
			"/>
		<path d="M183,73.9c-1.4-1.3-2.9-2.5-4.3-3.8c-3.9,1.9-7.8,3.7-11.8,5.5c3.7,1.1,7.4,2.1,11.2,3.2C179.7,77.1,181.3,75.5,183,73.9z
			"/>
		<path d="M174.7,142.3c1.5,1.3,3,2.5,4.5,3.8c1.7-1.6,3.5-3.2,5.2-4.8c-1.4-3-2.7-6-4-9.1C178.5,135.6,176.6,139,174.7,142.3z"/>
		<path d="M190.3,77.3c3.9-1.9,7.8-3.8,11.7-5.8c-3.7-0.9-7.5-1.9-11.2-2.9c-1.6,1.6-3.2,3.2-4.8,4.9
			C187.4,74.8,188.8,76.1,190.3,77.3z"/>
		<path d="M100.3,120.4c4.2-1.5,8.4-3.1,12.6-4.7c-3.8-1.3-7.5-2.6-11.3-3.9c-1.8,1.5-3.6,2.9-5.4,4.4
			C97.5,117.6,98.9,119,100.3,120.4z"/>
		<path d="M133.6,72.4c-1.1-3.1-2.3-6.2-3.4-9.3c-1.9,3.3-3.7,6.5-5.6,9.8c1.3,1.3,2.7,2.7,4,4C130.2,75.4,131.9,73.9,133.6,72.4z"
			/>
		<path d="M100.2,110.3c-1.1-3.1-2.1-6.2-3.2-9.4c-2,3.2-4.1,6.4-6.2,9.6c1.3,1.4,2.7,2.8,4,4.1C96.6,113.2,98.4,111.8,100.2,110.3z
			"/>
		<path d="M126.9,78.5c-1.4-1.4-2.7-2.7-4.1-4.1c-4,1.6-8,3.2-12.1,4.8c3.6,1.3,7.3,2.6,11,3.8C123.4,81.6,125.2,80.1,126.9,78.5z"
			/>
		<path d="M124.4,110.8c2.1-1.8,4.3-3.6,6.4-5.4c2.6,0.7,5.3,1.4,7.9,2c-3.6-9.1-7.1-18.2-10.5-27.4c-5.7,9.7-11.5,19.3-17.5,28.8
			c2.9-0.9,5.7-1.9,8.6-2.9C120.9,107.6,122.6,109.2,124.4,110.8z"/>
		<path d="M124.4,146c-1.2-3.1-2.3-6.2-3.5-9.3c-2,3.2-4.1,6.5-6.2,9.7c1.4,1.3,2.8,2.7,4.2,4C120.8,148.9,122.6,147.4,124.4,146z"
			/>
		<path class="st0" d="M235.4,218.1c-2.1-1.9-4.3-2.8-7-2.9h-19.6c-2.7,0.1-4.9,1-7,2.9l0,0c-1.9,1.8-2.8,3.9-2.8,6.8v54
			c0,2.9,0.9,5,2.8,6.8c2.1,1.9,4.3,2.8,7,2.9h19.6c2.7-0.1,4.9-1,7-2.9c1.9-1.8,2.8-3.9,2.8-6.8v-54
			C238.2,222,237.3,219.9,235.4,218.1L235.4,218.1z M223.4,275.3l-0.7,1.6l-1.6,0.7h-5l-1.6-0.7l-0.7-1.6l0,0v-47l0.7-1.6l1.6-0.7h5
			l1.6,0.7l0.7,1.6V275.3z"/>
		<path class="st0" d="M36.1,288.6h15v-28.8c0-1.3,1-2.3,2.3-2.3h16v-11.2h-16l-1.6-0.7L51,244v-15.7c0-1.3,1-2.3,2.3-2.3h16v-10.8
			H36.1V288.6z"/>
		<rect x="300.4" y="215.2" class="st0" width="14.8" height="73.4"/>
		<path class="st0" d="M326.4,288.6h33.3v-10.8h-16c-1.3,0-2.3-1-2.3-2.2v-15.7c0-1.3,1-2.3,2.3-2.3h16v-11.2h-16
			c-1.3,0-2.3-1-2.3-2.3v-15.8c0-1.3,1-2.3,2.3-2.3h16v-10.8h-33.3V288.6z"/>
		<polygon class="st0" points="420.2,215.2 420.2,226 427.7,226 429.3,226.7 430,228.3 430,288.6 444.1,288.6 444.1,228.3 
			444.1,228.3 444.8,226.7 446.4,226 453.9,226 453.9,215.2 		"/>
		<path class="st0" d="M407.4,218.1c-2.1-1.9-4.3-2.8-7-2.9h-29.5v73.4h15v-60.3l0.7-1.6l1.6-0.7h5l1.6,0.7l0.7,1.6l0,0v60.3h14.8
			v-63.7C410.2,222,409.3,219.9,407.4,218.1L407.4,218.1z"/>
		<path class="st0" d="M117.1,218.1c-2.1-1.9-4.3-2.8-7-2.9H90.4c-2.7,0.1-4.9,1-7,2.9l0,0c-1.9,1.8-2.8,3.9-2.8,6.8v54
			c0,2.9,0.9,5,2.8,6.8c2.1,1.9,4.3,2.8,7,2.9H110c2.7-0.1,4.9-1,7-2.9c1.9-1.8,2.8-3.9,2.8-6.8V262H105v13.3l-0.7,1.6l-1.6,0.7h-5
			l-1.6-0.7l-0.7-1.6v-47l0.7-1.6l1.6-0.7h5l1.6,0.7l0.7,1.6v13.4h14.8v-16.9C119.9,222,119,219.9,117.1,218.1L117.1,218.1z"/>
		<path class="st0" d="M282.9,255.4c1.3-1,1.8-1.4,3.5-2.8c1.8-1.5,2.8-3.9,2.8-6.8v-21c0-2.9-0.9-5-2.8-6.8c-2.1-1.9-4.3-2.8-7-2.9
			h-29.9v73.4h14.7V265c0-1.1,0.8-2,1.8-2.3h0.4c0.9,0,1.8,0.6,2.1,1.4l9.2,24.4h14.1l-10.2-26.9
			C280.5,258.9,281.4,256.6,282.9,255.4z M273.7,244l-0.7,1.6l-1.6,0.7h-5l-1.6-0.7l-0.7-1.6v-15.7l0.7-1.6l1.6-0.7h5l1.6,0.7
			l0.7,1.6V244z"/>
		<polygon class="st0" points="171.9,276.8 171.2,275.2 171.2,215.2 155.9,215.2 155.9,288.6 188.9,288.6 188.9,277.5 173.5,277.5 
					"/>
	</g>
</g>
</svg>
