<?xml version="1.0" encoding="utf-8"?>
<!-- Generator: Adobe Illustrator 26.0.2, SVG Export Plug-In . SVG Version: 6.00 Build 0)  -->
<svg version="1.1"
	 id="svg4726" inkscape:output_extension="org.inkscape.output.svg.inkscape" sodipodi:version="0.32" xmlns:cc="http://creativecommons.org/ns#" xmlns:dc="http://purl.org/dc/elements/1.1/" xmlns:inkscape="http://www.inkscape.org/namespaces/inkscape" xmlns:rdf="http://www.w3.org/1999/02/22-rdf-syntax-ns#" xmlns:sodipodi="http://sodipodi.sourceforge.net/DTD/sodipodi-0.dtd" xmlns:svg="http://www.w3.org/2000/svg"
	 xmlns="http://www.w3.org/2000/svg" xmlns:xlink="http://www.w3.org/1999/xlink" x="0px" y="0px" width="490px" height="565px"
	 viewBox="0 0 490 565" style="enable-background:new 0 0 490 565;" xml:space="preserve">
<style type="text/css">
	.st0{clip-path:url(#SVGID_00000113316901233101600900000003113414949619413128_);}
	.st1{fill:#D2B453;}
	.st2{fill:#274288;}
	.st3{fill:#D90022;}
	.st4{fill:#FFFFFF;}
</style>
<defs>
	
		<inkscape:perspective  id="perspective4734" inkscape:persp3d-origin="372.04724 : 350.78739 : 1" inkscape:vp_x="0 : 526.18109 : 1" inkscape:vp_y="0 : 1000 : 0" inkscape:vp_z="744.09448 : 526.18109 : 1" sodipodi:type="inkscape:persp3d">
		</inkscape:perspective>
</defs>
<sodipodi:namedview  bordercolor="#666666" borderopacity="1.0" id="base" inkscape:current-layer="layer1" inkscape:cx="49" inkscape:cy="267.66561" inkscape:document-units="px" inkscape:pageopacity="0.0" inkscape:pageshadow="2" inkscape:window-height="706" inkscape:window-maximized="1" inkscape:window-width="1366" inkscape:window-x="-8" inkscape:window-y="-8" inkscape:zoom="0.79314854" pagecolor="#ffffff" showgrid="false">
	</sodipodi:namedview>
<g id="layer1" transform="translate(-208.56286,133.11775)" inkscape:groupmode="layer" inkscape:label="Calque 1">
	<g id="g1705" transform="matrix(6.2574234,0,0,-6.2574234,-85.510982,5487.721)">
		<g>
			<defs>
				<polygon id="SVGID_1_" points="47.2,805.7 137.4,805.7 137.4,898 47.2,898 47.2,805.7 				"/>
			</defs>
			<clipPath id="SVGID_00000104705296537509844170000014155352595141939885_">
				<use xlink:href="#SVGID_1_"  style="overflow:visible;"/>
			</clipPath>
			<g id="g1707" style="clip-path:url(#SVGID_00000104705296537509844170000014155352595141939885_);">
				<g id="g1713" transform="translate(124.9644,898.0137)">
					<path id="path1715" inkscape:connector-curvature="0" class="st1" d="M0,0h-77.7l0-66.3c0-4.1,1.1-7.2,3.3-9.4
						c2.1-2.1,5.3-3.1,9.3-3.2c11.6-0.3,19-2.9,24.7-9.4l1.6-1.9l1.6,1.9c5.8,6.5,13.1,9,24.7,9.4c4,0.1,7.2,1.1,9.3,3.2
						c2.2,2.1,3.3,5.3,3.3,9.4L0,0z"/>
				</g>
				<g id="g1717" transform="translate(112.4038,821.1988)">
					<path id="path1719" inkscape:connector-curvature="0" class="st2" d="M0,0c-12.2-0.4-20.5-3.1-26.3-9.8
						C-32.1-3.1-40.4-0.4-52.6,0c-7,0.2-10.6,3.5-10.6,10.6l0,36h73.7l0-36C10.6,3.5,7,0.2,0,0"/>
				</g>
				<g id="g1721" transform="translate(49.2682,895.9974)">
					<path id="path1723" inkscape:connector-curvature="0" class="st3" d="M0,0h73.7l0-26.2H0L0,0z"/>
				</g>
				<g id="g1725" transform="translate(94.8415,862.6075)">
					<path id="path1727" inkscape:connector-curvature="0" class="st1" d="M0,0v-36.2h23.1v11.5H12.7V0H0z"/>
				</g>
				<g id="g1729" transform="translate(106.0207,861.0392)">
					<path id="path1731" inkscape:connector-curvature="0" class="st4" d="M0,0v-24.7h10.3V-33H-9.6V0H0z"/>
				</g>
				<g id="g1733" transform="translate(52.8918,844.5313)">
					<path id="path1735" inkscape:connector-curvature="0" class="st1" d="M0,0c0-10.5,8.5-19,19-19c10.5,0,19,8.5,19,19
						s-8.5,19-19,19C8.5,19,0,10.5,0,0"/>
				</g>
				<g id="g1737" transform="translate(54.5541,844.5313)">
					<path id="path1739" inkscape:connector-curvature="0" class="st4" d="M0,0c0,9.5,7.8,17.3,17.3,17.3c9.5,0,17.3-7.8,17.3-17.3
						s-7.8-17.3-17.3-17.3C7.8-17.3,0-9.5,0,0"/>
				</g>
				<g id="g1741" transform="translate(81.9088,855.2794)">
					<path id="path1743" inkscape:connector-curvature="0" class="st1" d="M0,0c-1.1-0.4-1.6,0.3-1.7,0.9c-0.6-0.6-0.3-1.4,0-1.6
						C-2-0.9-2.8-1.4-2.9-2.4c0.9-0.2,1.7,0.2,2,0.3c0.1-0.3,0.4-0.8,1.3-0.6c-0.4,0.5-0.6,1.3,0,1.6L0.5-1c0.9,0.4,1.4-0.3,1.6-0.6
						c0.3-0.7,0-1.5-0.6-1.8l-4-2.1c-2.1-1-1.9-3-1.4-3.9l1.9-3.7c0.3-0.7-0.2-1.2-0.5-1.4c-0.6-0.3-1.3,0-1.6,0.5L-6.7-9
						c0.1-0.1,0.5-0.2,0.8-0.1C-7-7.3-5-7.4-5.7-5.8C-5.5-6-5-6.1-4.8-6c-1,2.2,1.2,2.2,0.1,3.9C-4.6-2.2-4.1-2.2-3.9-2
						c-1.4,1.4-0.1,2.3-1.8,2.8c0.2,0,0.5,0.2,0.6,0.5c-1.1-0.1-1.7,1.4-3.3,1.2c-0.7-0.1-1.3-0.3-1.9-0.5c-0.3-0.1-0.6,0-0.9-0.1
						c-0.1-0.1-0.3-0.5-0.3-0.5c-0.4-0.1-1.1-0.3-1.3-0.5c-0.1-0.2,0-0.4,0.1-0.6c0,0,0.1,0,0.1-0.2c0.1-0.6,0.3-1.1,0.7-1.4l1,0.3
						c0,0,0.8-0.4,1.1-1.1c0.1-0.4,0.1-0.6-0.4-0.6c-0.4,0-1.2,0.2-1.5,0.2c-0.1-0.3-0.2-1,0.1-1.2c0.2-0.1,1-0.1,1.3-0.1
						c-0.1-0.9-0.7-1.5-1.9-1.1c-3.3,1.1-5.4,1.4-6.6,4c0,0.2,0.3,2-1,2.5c0.2-0.5,0.3-1.1,0.2-1.6c-0.2,0.8-0.9,1.4-1.9,1.3
						c0.6-0.4,0.9-0.9,0.9-1.4c-0.4,0.3-1.2,0.4-1.8,0.2c2.7-1.2,1.8-3.3,0.6-3.5c0.5-0.4,1.3-0.3,1.8,0l1.6-2.1
						c-0.3-0.1-0.6-0.3-0.7-0.5c0.3,0,0.9,0,1.1-0.2c0.1-0.3,0.3-0.9,0.1-1.8c0.6,0.3,0.9,0.8,1,1.2l2.4-1.4
						c-1.2-0.6-4.8-2.5-6.7-1.6c-0.3,0.1-2.1,0.9-3.1-0.1c0.7,0,1.3-0.3,1.5-0.5c-0.7-0.1-1.5-0.4-1.8-1.2c0.3,0.2,1.1,0.2,1.6,0.2
						c-0.4-0.3-0.7-0.9-0.7-1.6c0,0,1.5,1.4,2.7,1c0.6-0.2,0.3-1.1,0.2-1.4c0.9,0.1,1.1,1,1.1,1.1l2.8,0.1c0.2-0.1,0.3-0.5,0.1-0.8
						c0.5,0.1,0.7,0.4,0.8,0.9c0.6-0.1,0.9-0.5,1-1.1c0.4,0.4,0.4,1.1,0.2,1.4l3,0.7l1.1-1.2c0,0-5.4-3.4-7.3-3.3
						c0.3-0.7,1.6-0.6,2.2-0.4c-0.2-0.3-0.1-0.8-0.1-0.8s0.4,0,0.8,0.5c0,0,0.8-1.6,0.7-1.9c-0.4-0.8-3-1-3-1
						c-0.5,0.4-1.8,0.8-2.6,0.3c0.6,0,1-0.5,1.1-0.7c-0.3,0-1.4-0.1-1.6-1.1c0.6,0.3,1.3,0.3,1.6,0.2c-0.3-0.2-0.8-0.8-0.7-1.5
						c0.8,0.8,1.9,1.2,2.6,1c0.4-0.1,0.4-0.7,0.3-1.2c0.6,0.2,1,0.8,1.1,1.1l2.9,0.9c0,0,0.1-0.3,0.1-0.7c0.4,0,0.7,0.5,0.7,0.8
						c0,0,0.5-0.8,1.4-0.7c-0.5,0.8-1.2,3-1.2,3.6c0,0.7,2.1,1.1,2.5,1.2l1-1.5c0,0-1-0.5-1.2-1.2c0.9,0.4,1.7,0.4,1.9,0.3
						c0.2-0.2,0.4-0.6,0.5-1c0.2,0.1,0.5,0.5,0.5,0.9c2.3-0.7,2.3-1.1,1.8-3.4C-5.8-22-7.5-21.9-7.9-23c0.6,0.2,1.4,0.1,1.8-0.1
						c-0.5-0.2-1.4-0.7-1.2-1.7c0,0,0.9,1,1.8,0.8c-0.5-0.3-1.2-1-0.6-1.9c0.5,1.1,1.8,1.2,2.3,1.1l0.7,1.6c0.3,0.6,1.1,0.6,1.2-0.3
						c0.8,0.9-0.1,2-0.3,2.1l0.7,1.4c0.2,0,0.8-0.2,1.1,0.2c-0.3,0.1-0.6,0.3-0.8,0.6c0.3,0,1.2-0.2,1.7,0.4
						c-1.5,0.3-4.8,2.4-5.1,3.6c0.7-0.5,1.6-0.7,2.5-0.3c0.5,0.2,0.9,0.7,1.2,1.2c0.6,1.2,2.2,0.2,2.4,2.5c-0.6-0.9-2-0.3-2.3-1.4
						c-0.6,2.5,3,0.9,3,4.6c-0.9-1.5-4-1-3.8-2.9C-3-7.4,3.1-10,2.7-4.8C1.6-7.2-3.1-6.6-2.7-9.3L-3-8.8c-0.4,0.7-0.3,1.7,0.8,2.3
						L2-4.3c1.1,0.6,1.6,2,1.1,3.2C2.8-0.4,1.6,0.8,0,0 M-10.9,1c0,0-0.1,0.3,0.3,0.4c0.4,0.1,0.9-0.2,1.2-0.3
						C-9.6,0.8-10.5,0.7-10.9,1 M-10.9-1.4c-1.8-0.8-3.3-0.8-4.6,0C-15.2-2.3-12.7-3.6-10.9-1.4"/>
				</g>
				<g id="g1745" transform="translate(74.6615,873.4296)">
					<path id="path1747" inkscape:connector-curvature="0" class="st4" d="M0,0c-0.7-0.7-1.5-1-2.6-1c-1.1,0-1.9,0.4-2.6,1
						c-1,0.9-0.9,2.1-0.9,3.7s0,2.8,0.9,3.7c0.7,0.7,1.5,1,2.6,1c1.1,0,1.9-0.4,2.6-1c1-0.9,1-2.1,1-3.7S1,0.9,0,0 M-1.4,6.3
						c-0.3,0.3-0.7,0.5-1.2,0.5c-0.5,0-0.9-0.2-1.2-0.5C-4.2,6-4.3,5.5-4.3,3.7c0-1.8,0.1-2.2,0.5-2.6c0.3-0.3,0.7-0.5,1.2-0.5
						c0.5,0,0.9,0.2,1.2,0.5C-1,1.5-0.9,1.9-0.9,3.7C-0.9,5.5-1,6-1.4,6.3"/>
				</g>
				<g id="g1749" transform="translate(59.8219,874.1115)">
					<path id="path1751" inkscape:connector-curvature="0" class="st4" d="M0,0h-4v7.6l-0.1,0.1h-1.7l-0.1-0.1v-9.1l0.1-0.1H0
						l0.1,0.1L0,0L0,0z"/>
				</g>
				<g id="g1753" transform="translate(67.0645,881.821)">
					<path id="path1755" inkscape:connector-curvature="0" class="st4" d="M0,0h-1.9l-1.8-3.8L-5.5,0h-1.9l-0.1-0.1l2.9-5.4v-3.7
						l0.1-0.1h1.7l0.1,0.1v3.7L0,0L0,0z"/>
				</g>
				<g id="g1757" transform="translate(83.9441,881.821)">
					<path id="path1759" inkscape:connector-curvature="0" class="st4" d="M0,0l-0.1-0.1v-5.6L-3.9,0h-1.6l-0.1-0.1v-9.1l0.1-0.1
						h1.7l0.1,0.1v5.6l3.8-5.7h1.6l0.1,0.1v9.1L1.7,0H0z"/>
				</g>
				<g id="g1761" transform="translate(102.9185,881.7206)">
					<path id="path1763" inkscape:connector-curvature="0" class="st4" d="M0,0l-0.1,0.1h-1.4L-1.5,0L-5-9.2l0.1-0.1h1.9l0.6,1.7H1
						l0.6-1.7h1.9l0.1,0.1L0,0z M-1.9-6l1.2,3.4L0.5-6C0.5-6-1.9-6-1.9-6z"/>
				</g>
				<g id="g1765" transform="translate(108.1974,881.821)">
					<path id="path1767" inkscape:connector-curvature="0" class="st4" d="M0,0l-0.1-0.1v-9.1L0-9.3h1.7l0.1,0.1v9.1L1.7,0H0z"/>
				</g>
				<g id="g1769" transform="translate(94.3717,881.821)">
					<path id="path1771" inkscape:connector-curvature="0" class="st4" d="M0,0l-0.1-0.1v-5.6L-3.9,0h-1.6l-0.1-0.1v-9.1l0.1-0.1
						h1.7l0.1,0.1v5.6l3.8-5.7h1.6l0.1,0.1v9.1L1.7,0H0z"/>
				</g>
				<g id="g1773" transform="translate(118.4688,877.2188)">
					<path id="path1775" inkscape:connector-curvature="0" class="st4" d="M0,0c-0.4,0.4-1,0.6-1.8,0.7L-3,0.9
						c-0.4,0.1-0.7,0.2-0.9,0.4c-0.2,0.2-0.3,0.4-0.3,0.7c0,0.6,0.5,1.2,1.5,1.2c0.6,0,1.3-0.1,1.9-0.6l0.1,0l1.1,1v0.1
						c-0.8,0.7-1.8,1-3,1C-4.7,4.7-6,3.5-6,1.8C-6,1.1-5.7,0.5-5.3,0c0.4-0.4,1-0.7,1.9-0.8l1.2-0.2C-1.8-1-1.6-1.1-1.4-1.2
						C-1.2-1.4-1.1-1.7-1.1-2c0-0.7-0.6-1.2-1.7-1.2c-0.9,0-1.7,0.2-2.3,0.7l-0.1,0l-1.1-1v-0.1c0.9-0.9,2-1.2,3.4-1.2
						c2,0,3.6,1,3.6,2.8C0.7-1.2,0.5-0.5,0,0"/>
				</g>
				<g id="g1777" transform="translate(59.2391,884.7167)">
					<path id="path1779" inkscape:connector-curvature="0" class="st4" d="M0,0c-0.6-0.6-1.4-1-2.5-1S-4.3-0.6-5,0
						c-0.9,0.9-0.9,2.1-0.9,3.7c0,1.6,0,2.7,0.9,3.7c0.6,0.6,1.4,1,2.5,1S-0.6,8,0,7.3c0.9-0.9,0.9-2.1,0.9-3.7C0.9,2.1,0.9,0.9,0,0
						 M-1.3,6.2C-1.6,6.5-2,6.7-2.5,6.7c-0.5,0-0.9-0.2-1.2-0.5C-4,5.9-4.1,5.4-4.1,3.7c0-1.8,0.1-2.2,0.4-2.6
						C-3.4,0.8-3,0.6-2.5,0.6c0.5,0,0.9,0.2,1.1,0.5C-1,1.5-0.9,1.9-0.9,3.7C-0.9,5.4-1,5.9-1.3,6.2"/>
				</g>
				<g id="g1781" transform="translate(102.7603,884.4144)">
					<path id="path1783" inkscape:connector-curvature="0" class="st4" d="M0,0l-0.7,0.7C-0.1,1.6-0.1,2.6-0.1,4
						c0,1.6,0,2.7-0.9,3.7c-0.6,0.6-1.4,1-2.5,1c-1,0-1.8-0.4-2.5-1C-7,6.7-6.9,5.5-6.9,4S-7,1.2-6,0.3c0.6-0.6,1.4-1,2.5-1
						c0.7,0,1.3,0.2,1.9,0.5l0.7-0.7h0.1L0-0.1V0z M-2.1,2.1l-0.7,0.7l-1-0.9l0.8-0.8c-0.2-0.1-0.4-0.2-0.6-0.2
						c-0.5,0-0.9,0.2-1.2,0.5C-5,1.8-5.1,2.2-5.1,4S-5,6.2-4.7,6.5C-4.4,6.8-4,7-3.5,7C-3,7-2.6,6.8-2.4,6.5C-2,6.2-1.9,5.7-1.9,4
						C-1.9,3-2,2.5-2.1,2.1"/>
				</g>
				<g id="g1785" transform="translate(67.2385,885.387)">
					<path id="path1787" inkscape:connector-curvature="0" class="st4" d="M0,0h-3.7v7.5l-0.1,0.1h-1.6l-0.1-0.1v-9l0.1-0.1H0
						l0.1,0.1v1.4L0,0z"/>
				</g>
				<g id="g1789" transform="translate(73.3894,892.964)">
					<path id="path1791" inkscape:connector-curvature="0" class="st4" d="M0,0h-1.8l-1.7-3.7L-5.2,0H-7l-0.1-0.1l2.7-5.3v-3.7
						l0.1-0.1h1.6l0.1,0.1v3.7l2.7,5.3L0,0z"/>
				</g>
				<g id="g1793" transform="translate(81.1748,892.964)">
					<path id="path1795" inkscape:connector-curvature="0" class="st4" d="M0,0l-2.4-5l-2.4,5h-1.7l-0.1-0.1v-9l0.1-0.1h1.6l0.1,0.1
						v5.2L-3-7.3h1.2L0-3.8v-5.2l0.1-0.1h1.6l0.1,0.1v9L1.7,0H0z"/>
				</g>
				<g id="g1797" transform="translate(94.1819,892.964)">
					<path id="path1799" inkscape:connector-curvature="0" class="st4" d="M0,0h-1.6l-0.1-0.1v-9l0.1-0.1H0l0.1,0.1v9L0,0z"/>
				</g>
				<g id="g1801" transform="translate(109.2621,892.964)">
					<path id="path1803" inkscape:connector-curvature="0" class="st4" d="M0,0l-0.1-0.1V-6c0-1.1-0.6-1.7-1.6-1.7
						c-1,0-1.6,0.6-1.6,1.7v5.9L-3.4,0H-5l-0.1-0.1V-6c0-1.9,1.5-3.2,3.4-3.2C0.2-9.3,1.7-8,1.7-6v5.9L1.6,0H0z"/>
				</g>
				<g id="g1805" transform="translate(114.3693,885.387)">
					<path id="path1807" inkscape:connector-curvature="0" class="st4" d="M0,0v2.2h3.5l0.1,0.1v1.4L3.5,3.8H0V6h4.2l0.1,0.1v1.4
						L4.2,7.6h-5.8l-0.1-0.1v-9l0.1-0.1h5.8l0.1,0.1v1.4L4.2,0H0z"/>
				</g>
				<g id="g1809" transform="translate(88.2151,892.964)">
					<path id="path1811" inkscape:connector-curvature="0" class="st4" d="M0,0h-3.5l-0.1-0.1v-9l0.1-0.1h1.6l0.1,0.1v3H0
						c1.9,0,3,1.5,3,3C3-1.5,1.9,0,0,0 M-0.1-4.4h-1.7v2.8h1.7c0.8,0,1.3-0.7,1.3-1.4C1.2-3.8,0.7-4.4-0.1-4.4"/>
				</g>
			</g>
		</g>
	</g>
</g>
</svg>
