<?xml version="1.0" encoding="utf-8"?>
<!-- Generator: Adobe Illustrator 26.0.2, SVG Export Plug-In . SVG Version: 6.00 Build 0)  -->
<svg version="1.1"
	 id="svg906" xmlns:inkscape="http://www.inkscape.org/namespaces/inkscape" xmlns:sodipodi="http://sodipodi.sourceforge.net/DTD/sodipodi-0.dtd" xmlns:svg="http://www.w3.org/2000/svg"
	 xmlns="http://www.w3.org/2000/svg" xmlns:xlink="http://www.w3.org/1999/xlink" x="0px" y="0px" width="515.3px" height="700px"
	 viewBox="0 0 515.3 700" style="enable-background:new 0 0 515.3 700;" xml:space="preserve">
<style type="text/css">
	.st0{fill-rule:evenodd;clip-rule:evenodd;fill:#D2A16A;}
	.st1{fill-rule:evenodd;clip-rule:evenodd;fill:#16A171;}
	.st2{fill-rule:evenodd;clip-rule:evenodd;fill:#E30016;}
	.st3{fill-rule:evenodd;clip-rule:evenodd;fill:#FFFFFF;}
	.st4{fill-rule:evenodd;clip-rule:evenodd;fill:#1B1918;}
	.st5{fill-rule:evenodd;clip-rule:evenodd;}
	.st6{fill-rule:evenodd;clip-rule:evenodd;fill:#D39C67;}
</style>
<sodipodi:namedview  bordercolor="#666666" borderopacity="1.0" id="namedview908" inkscape:current-layer="svg906" inkscape:cx="216.05419" inkscape:cy="334.40555" inkscape:pagecheckerboard="0" inkscape:pageopacity="0.0" inkscape:pageshadow="2" inkscape:window-height="900" inkscape:window-maximized="0" inkscape:window-width="1440" inkscape:window-x="0" inkscape:window-y="0" inkscape:zoom="0.99280649" pagecolor="#ffffff" showgrid="false">
	</sodipodi:namedview>
<g id="g2304">
	<path id="path824" class="st0" d="M257.7,0L257.7,0L257.7,0c71.2,0,135.6,28.9,182.2,75.5s75.4,111,75.5,182.1l0,0l0,0l0,0l0,0
		c0,71.1-28.8,135.6-75.5,182.2c-46.6,46.6-111,75.4-182.1,75.5l0,0l0,0l0,0l0,0c-71.1,0-135.6-28.8-182.2-75.5
		C28.9,393.2,0,328.8,0,257.7l0,0l0,0l0,0l0,0c0-71.1,28.8-135.6,75.5-182.2C122.1,28.9,186.5,0,257.7,0L257.7,0L257.7,0z"/>
	<path id="path826" class="st1" d="M257.7,7.3L257.7,7.3L257.7,7.3L257.7,7.3L257.7,7.3c-69.1,0-131.7,28-177,73.3
		C35.4,126,7.3,188.5,7.3,257.6l0,0l0,0l0,0l0,0c0,69.1,28,131.7,73.3,177C126,480,188.5,508,257.6,508l0,0l0,0l0,0l0,0
		c69.1,0,131.7-28,177-73.3s73.3-107.9,73.3-177l0,0l0,0l0,0l0,0c0-69.1-28-131.7-73.3-177C389.3,35.4,326.8,7.3,257.7,7.3
		L257.7,7.3z"/>
	<path id="path828" class="st0" d="M221.7,609.4H193h-3.7v-3.7V364.2c-7.7-4.9-14.8-10.7-21.2-17.1c-22.9-22.9-37.1-54.5-37.1-89.5
		l0,0l0,0l0,0l0,0c0-35,14.2-66.6,37.1-89.5s54.5-37.1,89.5-37.1l0,0l0,0l0,0l0,0c35,0,66.6,14.2,89.5,37.1s37.1,54.5,37.1,89.5l0,0
		l0,0l0,0l0,0c0,35-14.2,66.6-37.1,89.5c-6.4,6.4-13.5,12.1-21.2,17.1V651v3.7h-3.7h-28.7v41.6v3.7H290h-32.3H254v-3.7v-41.6h-28.7
		h-3.7V651L221.7,609.4z"/>
	<path id="path830" class="st2" d="M257.7,138.4L257.7,138.4L257.7,138.4L257.7,138.4L257.7,138.4c-32.9,0-62.8,13.4-84.3,34.9
		c-21.6,21.6-35,51.4-35,84.3l0,0l0,0l0,0l0,0c0,32.9,13.4,62.7,34.9,84.3c7,7,14.8,13.1,23.3,18.2v242h25V371.4
		c11.4,3.6,23.4,5.5,36,5.5l0,0l0,0l0,0l0,0c1.2,0,2.4,0,3.6-0.1v315.8h25V373.5c21.4-5.3,40.6-16.4,55.7-31.5
		c21.6-21.6,35-51.4,35-84.3l0,0l0,0l0,0l0,0c0-32.9-13.4-62.7-34.9-84.3C320.4,151.7,290.6,138.4,257.7,138.4L257.7,138.4z"/>
	<path id="path834" class="st1" d="M229,381v266.4h25V384.2C245.4,383.9,237,382.8,229,381z"/>
	<path id="path836" class="st1" d="M293.6,379v268.4h25V368.6C310.8,372.9,302.4,376.5,293.6,379z"/>
	<path id="path838" class="st3" d="M257.7,134.7c2.6,0,5.2,0.1,7.8,0.3c5.5,22.6,18.7,43.5,39,58.3s44.3,20.9,67.5,19.1
		c1.9,4.8,3.5,9.8,4.8,14.8c-19.9,12.2-35.6,31.2-43.4,55.1s-6.2,48.5,2.7,70.1c-4,3.3-8.2,6.4-12.6,9.2
		c-17.7-15.1-40.7-24.2-65.8-24.2c-25.1,0-48.1,9.1-65.8,24.2c-4.4-2.8-8.6-5.9-12.6-9.2c8.9-21.5,10.5-46.2,2.7-70.1
		s-23.5-42.9-43.4-55.1c1.3-5.1,2.9-10,4.8-14.8c23.2,1.8,47.2-4.3,67.5-19.1s33.5-35.6,39-58.3C252.4,134.8,255,134.7,257.7,134.7
		L257.7,134.7z"/>
</g>
<g id="g2287">
	<g id="g2213">
		<path id="path832" class="st4" d="M177.3,374.8l-13,16.6l-11.4-8.9l2.2-2.8l8,6.3l3.1-3.9l-6.9-5.4l2.2-2.8l6.9,5.4l5.5-7.1
			L177.3,374.8z"/>
		<path id="path1341" class="st4" d="M376.5,335.8l-2.7,3.6l2.8,4.3l-5.1,6.7l-4.9-1.4l-2.8,3.7l21.9,6l2.7-3.6L376.5,335.8z
			 M378.6,346.9l4.5,7l-8-2.4L378.6,346.9z"/>
		<path id="path1335" class="st4" d="M385.9,319.4l-3.6,6.2c-1.3,2.4-2.2,3.9-2.4,4.5c-0.5,1-0.6,2-0.6,3c0.1,0.9,0.4,1.8,1,2.7
			c0.6,0.8,1.3,1.5,2.1,2c1.1,0.6,2.1,0.8,3.3,0.7c1.1-0.1,2.2-0.7,3.1-1.6c-0.1,1,0.1,1.9,0.5,2.8s1.1,1.6,2,2.1
			c0.8,0.5,1.6,0.7,2.5,0.7s1.6-0.2,2.3-0.5c0.7-0.3,1.3-0.8,1.9-1.5c0.5-0.6,1.2-1.7,2.1-3.1l4.2-7.3L385.9,319.4z M386.9,324.8
			l4.9,2.8l-1.7,3c-1,1.7-1.7,2.7-2.1,3.1c-0.5,0.4-1,0.6-1.5,0.7c-0.5,0-1.1-0.1-1.6-0.4c-0.6-0.4-1.1-0.8-1.3-1.4
			c-0.2-0.6-0.2-1.2,0-1.8c0.1-0.4,0.6-1.3,1.4-2.6L386.9,324.8z M394.8,329.4l4.2,2.4l-1.2,2.1c-1,1.7-1.6,2.8-1.9,3.1
			c-0.4,0.6-0.9,0.9-1.4,1s-1.1,0-1.6-0.3c-0.6-0.3-1-0.8-1.1-1.4c-0.2-0.6-0.1-1.2,0.2-1.9c0.2-0.4,0.7-1.3,1.5-2.7L394.8,329.4z"
			/>
		<path id="path1329" class="st4" d="M405,281.2c-1.8,0-3.4,0.5-4.9,1.3c-2.3,1.4-3.8,3.6-4.5,6.7c-0.7,3-0.3,5.6,1.1,7.9
			c1.5,2.2,3.8,3.7,7.2,4.5c3.3,0.8,6.2,0.5,8.5-0.9s3.8-3.6,4.5-6.6c0.4-1.7,0.5-3.2,0.2-4.6c-0.2-1.1-0.6-2.1-1.2-3.1
			s-1.4-1.9-2.4-2.6c-1.3-1-3-1.7-5.1-2.2C407.2,281.3,406.1,281.2,405,281.2z M405.2,285.6c0.7,0,1.6,0.1,2.4,0.3
			c2.4,0.5,4,1.5,4.9,2.8s1.2,2.8,0.8,4.6c-0.4,1.7-1.3,2.9-2.7,3.7c-1.4,0.8-3.3,0.9-5.6,0.3c-2.4-0.6-4.1-1.5-5-2.8
			c-1-1.3-1.2-2.8-0.9-4.5c0.4-1.7,1.3-2.9,2.7-3.7C402.8,285.8,403.9,285.6,405.2,285.6z"/>
		<path id="path1325" class="st4" d="M409.2,257c-2.8,0-5.1,0.8-6.9,2.3c-2,1.7-3.2,4.1-3.4,7.3c-0.2,3.1,0.6,5.6,2.4,7.6
			s4.4,3.1,7.8,3.3c3.4,0.2,6.2-0.5,8.2-2.2c2.1-1.7,3.2-4.1,3.4-7.2c0.1-1.7,0-3.2-0.5-4.6c-0.3-1-0.9-2-1.7-2.9
			c-0.8-0.9-1.7-1.6-2.8-2.2c-1.4-0.7-3.2-1.2-5.3-1.3C410,257,409.6,257,409.2,257L409.2,257z M409.4,261.4c0.3,0,0.6,0,0.9,0
			c2.4,0.2,4.2,0.8,5.3,2c1.1,1.2,1.6,2.6,1.5,4.4s-0.8,3.1-2.1,4.1c-1.3,1-3.1,1.4-5.5,1.2c-2.4-0.2-4.2-0.8-5.4-2
			c-1.1-1.2-1.7-2.6-1.5-4.3c0.1-1.7,0.8-3.1,2.1-4.1C405.9,261.8,407.4,261.3,409.4,261.4L409.4,261.4z"/>
		<path id="path1317" class="st4" d="M403.1,183.7l-19.1,8.9l3.4,7.3c0.7,1.4,1.3,2.5,2,3.2c0.9,1,1.8,1.6,2.8,2
			c1.3,0.5,2.7,0.6,4.3,0.5c1.3-0.1,2.8-0.6,4.3-1.3c1.8-0.8,3.2-1.7,4.2-2.7s1.8-2.1,2.2-3.3c0.5-1.2,0.6-2.4,0.4-3.7
			c-0.1-0.9-0.6-2.2-1.3-3.8L403.1,183.7z M401.7,189.1l0.8,1.7c0.7,1.6,1.2,2.7,1.3,3.3c0.2,0.8,0.2,1.5-0.1,2.2
			c-0.2,0.7-0.7,1.3-1.3,2c-0.7,0.6-1.7,1.3-3.2,2s-2.7,1.1-3.7,1.2c-1,0.1-1.8,0.1-2.3-0.1c-0.6-0.2-1.1-0.6-1.5-1.2
			c-0.3-0.4-0.8-1.2-1.3-2.3L389,195L401.7,189.1z"/>
		<path id="path1307" class="st4" d="M348,121.8l-18.8,12.6l3.7,2.6l4.2-2.9l6.9,4.8l-1.2,5l3.8,2.7l5.2-22.1L348,121.8z M347,127.1
			l-2.1,8.1l-4.7-3.3L347,127.1z"/>
		<path id="path1301" class="st4" d="M301.1,100.6c-0.4,0-0.7,0-1.1,0.1c-1.1,0.1-2.1,0.5-3.1,1.1s-1.9,1.4-2.6,2.3
			c-1,1.2-1.8,2.9-2.3,5c-0.9,3.2-0.7,6,0.6,8.4c1.3,2.3,3.5,3.9,6.5,4.7c3,0.8,5.6,0.5,7.9-0.9s3.9-3.7,4.8-7s0.7-6.2-0.6-8.5
			c-1.3-2.3-3.5-3.9-6.5-4.7C303.3,100.7,302.2,100.5,301.1,100.6L301.1,100.6z M302.1,104.3c0.5,0,1,0.1,1.5,0.2
			c1.7,0.5,2.9,1.4,3.6,2.8s0.8,3.3,0.1,5.6c-0.6,2.4-1.6,4-3,4.9s-2.9,1.1-4.5,0.7s-2.8-1.4-3.6-2.9c-0.7-1.5-0.8-3.4-0.2-5.7
			c0.6-2.4,1.6-4,3-4.8C300,104.6,301,104.3,302.1,104.3z"/>
		<path id="path1297" class="st4" d="M271,95.4l-2.2,21l4.2,0.4l0.9-8.8l0.9,0.1c1,0.1,1.7,0.3,2.1,0.5s0.8,0.5,1.2,1
			c0.4,0.5,1,1.6,1.9,3.3l2.6,4.9l5.1,0.5l-2.1-4.4c-0.8-1.7-1.5-3-2.1-3.7c-0.5-0.7-1.2-1.4-2.1-2c1.9-0.1,3.3-0.6,4.4-1.5
			c1-0.9,1.6-2.2,1.8-3.8c0.1-1.2-0.1-2.4-0.6-3.4s-1.3-1.8-2.2-2.3c-1-0.5-2.6-0.8-4.8-1.1L271,95.4z M274.9,99.4l3.3,0.3
			c1.7,0.2,2.8,0.3,3.1,0.4c0.7,0.2,1.2,0.5,1.5,1s0.5,1.1,0.4,1.8c-0.1,0.6-0.3,1.1-0.6,1.5c-0.3,0.4-0.8,0.6-1.3,0.8
			c-0.5,0.1-1.8,0.1-3.8-0.1l-3.1-0.3L274.9,99.4z"/>
		<path id="path1293" class="st4" d="M257.7,94.5l-4.5,0.1l-7.9,21.2l4.5-0.1l1.7-4.8l8.4-0.1l1.9,4.8l4.6-0.1L257.7,94.5z
			 M255.5,99.5l3,7.8l-5.8,0.1L255.5,99.5z"/>
		<path id="path1283" class="st4" d="M159.5,127.3l-3.6,2.8l6.5,21.7l3.6-2.8l-1.6-4.8l6.7-5.2l4.4,2.6l3.7-2.9L159.5,127.3z
			 M160.7,132.6l7.1,4.4l-4.5,3.5L160.7,132.6z"/>
		<path id="path1277" class="st4" d="M134.1,156.1c-0.3,0-0.7,0-1,0.1c-2.7,0.4-4.9,1.8-6.7,4.3c-1,1.4-1.7,2.8-2,4.2
			c-0.2,1-0.3,2.1-0.1,3.3c0.2,1.2,0.6,2.3,1.2,3.3c0.8,1.4,2.1,2.7,3.8,4c2.7,2,5.4,2.8,8,2.4c2.6-0.4,4.9-1.8,6.7-4.4
			c1.8-2.5,2.5-5.1,2-7.7c-0.5-2.6-2.1-4.9-4.8-7C138.9,156.9,136.5,156.1,134.1,156.1L134.1,156.1z M133.6,160.3
			c1.5-0.1,3.2,0.6,5,1.9c2,1.4,3.1,3,3.5,4.6s0,3.1-1,4.5s-2.3,2.1-4,2.3c-1.6,0.2-3.4-0.5-5.4-1.9s-3.1-2.9-3.5-4.5
			c-0.3-1.6,0-3.1,1-4.5s2.3-2.2,3.9-2.4C133.4,160.3,133.5,160.3,133.6,160.3L133.6,160.3z"/>
		<path id="path1273" class="st4" d="M119.3,176.4c-0.1,0-0.3,0-0.4,0c-1.1,0.1-2.1,0.5-2.9,1.3c-0.8,0.7-1.7,2.1-2.7,4.1l-4.1,8
			l18.8,9.6l1.9-3.8l-7.9-4l0.4-0.8c0.4-0.9,0.8-1.5,1.2-1.8c0.4-0.3,0.8-0.6,1.4-0.7c0.6-0.2,1.8-0.4,3.8-0.6l5.5-0.7l2.3-4.5
			l-4.8,0.4c-1.9,0.2-3.3,0.4-4.2,0.6c-0.8,0.2-1.7,0.7-2.6,1.2c0.6-1.8,0.7-3.3,0.2-4.6s-1.5-2.3-2.9-3
			C121.2,176.6,120.3,176.4,119.3,176.4L119.3,176.4z M119.1,180.8c0.4,0,0.9,0.1,1.4,0.3c0.6,0.3,1,0.7,1.2,1.1
			c0.2,0.4,0.3,0.9,0.3,1.5c-0.1,0.5-0.6,1.7-1.5,3.5l-1.4,2.8l-4.8-2.4l1.5-3c0.8-1.5,1.3-2.5,1.5-2.7c0.4-0.6,0.9-0.9,1.5-1.1
			C118.8,180.9,119,180.8,119.1,180.8L119.1,180.8z"/>
		<path id="path1267" class="st4" d="M105.8,229.3c-2.6,0-4.7,0.6-6.5,1.9c-2.1,1.6-3.4,4-3.8,7.1c-0.2,1.7-0.1,3.2,0.3,4.6
			c0.3,1,0.8,2,1.5,2.9s1.6,1.7,2.6,2.3c1.4,0.8,3.1,1.4,5.3,1.6c3.3,0.4,6.1-0.2,8.2-1.8s3.4-4,3.8-7.1s-0.3-5.6-2-7.7
			c-1.7-2.1-4.2-3.3-7.6-3.7C107.1,229.4,106.4,229.3,105.8,229.3L105.8,229.3z M105.4,233.7c0.5,0,1.1,0,1.7,0.1
			c2.4,0.3,4.2,1.1,5.3,2.3c1.1,1.2,1.5,2.7,1.3,4.4s-1,3-2.3,4c-1.4,0.9-3.2,1.3-5.6,1s-4.1-1.1-5.2-2.3s-1.5-2.7-1.3-4.4
			s1-3.1,2.3-4C102.5,234.1,103.8,233.7,105.4,233.7z"/>
		<path id="path1259" class="st4" d="M116.5,276.4l-18.9,12.7l0.9,4.4l22.4,3.7l-0.9-4.4l-5.1-0.7l-1.8-8.3l4.3-2.8L116.5,276.4z
			 M110,285.9l1.2,5.6l-8.3-1.2L110,285.9z"/>
		<path id="path1255" class="st4" d="M120.9,297.5l-2.9,3.9c-1.2,1.5-1.9,2.7-2.3,3.5s-0.7,1.7-0.8,2.8c-0.9-1.6-2-2.7-3.3-3.2
			s-2.7-0.5-4.2,0.1c-1.2,0.4-2.1,1.1-2.8,2c-0.7,0.9-1,1.9-1,3s0.4,2.7,1.2,4.8l3.2,8.4l19.7-7.6l-1.5-4l-8.2,3.2l-0.3-0.8
			c-0.4-0.9-0.5-1.6-0.6-2.1c0-0.5,0.1-1,0.4-1.5s1-1.6,2.1-3.2l3.2-4.5L120.9,297.5z M110.2,308.3c0.2,0,0.4,0,0.6,0.1
			c0.5,0.1,0.9,0.4,1.3,0.8c0.3,0.4,0.9,1.6,1.6,3.5l1.1,2.9l-5,1.9l-1.2-3.1c-0.6-1.6-1-2.6-1-2.9c-0.1-0.7-0.1-1.3,0.2-1.8
			c0.3-0.5,0.7-0.9,1.4-1.1C109.6,308.4,109.9,308.3,110.2,308.3z"/>
		<path id="path1249" class="st4" d="M137.8,339.3c-1,0-2.1,0.2-3.3,0.6c-1.3,0.4-2.6,1.2-3.9,2.3c-1.6,1.2-2.7,2.4-3.5,3.6
			s-1.3,2.4-1.4,3.7c-0.2,1.3-0.1,2.5,0.4,3.7c0.4,0.9,1.1,2,2.2,3.4l4.8,6.1l16.6-13l-4.9-6.3c-1-1.2-1.9-2.1-2.7-2.7
			c-1.1-0.7-2.1-1.2-3.2-1.3C138.5,339.3,138.2,339.3,137.8,339.3L137.8,339.3z M138.3,343.3c0.2,0,0.3,0,0.5,0
			c0.6,0.1,1.2,0.4,1.8,0.8c0.4,0.3,1,1,1.7,1.9l2,2.5l-11,8.6l-1.2-1.5c-1.1-1.4-1.7-2.3-2-2.9c-0.4-0.7-0.5-1.5-0.4-2.2
			s0.4-1.4,0.9-2.2c0.5-0.8,1.4-1.6,2.7-2.7c1.3-1,2.4-1.7,3.3-2C137.1,343.4,137.7,343.3,138.3,343.3L138.3,343.3z"/>
		<path id="path1347" class="st4" d="M348.6,366.4l13.2,16.3l-3.3,2.7l-10.9-13.5l-8.2,6.7l-2.2-2.8L348.6,366.4z"/>
		<path id="path1345" class="st4" d="M361.7,354.2l14.8,14.8l-3,3l-12.3-12.3l-7.5,7.5l-2.5-2.5L361.7,354.2z"/>
		<path id="path1333" class="st4" d="M390.7,306.8l16.4,6.3l2.2-5.8l3.3,1.3l-6,15.7l-3.3-1.3l2.2-5.8l-16.4-6.3L390.7,306.8z"/>
		<path id="path1323" class="st4" d="M398.5,239.2l21-1.8l1.3,14.4l-3.6,0.3l-0.9-10.2l-5,0.4l0.8,8.8l-3.6,0.3l-0.8-8.8l-8.9,0.8
			L398.5,239.2z"/>
		<path id="path1321" class="st4" d="M392.3,212.2l20.3-5.8l4.3,15l-3.4,1l-3.1-10.9l-4.5,1.3l2.9,10.2l-3.4,1l-2.9-10.2l-5.5,1.6
			l3.3,11.3l-3.4,1L392.3,212.2z"/>
		<path id="path1315" class="st4" d="M368.9,169.2l17.1-12.4l9.2,12.7l-2.9,2.1l-6.7-9.2l-3.8,2.7l6.2,8.6l-2.9,2.1l-6.2-8.6
			l-4.6,3.4l6.9,9.5l-2.9,2.1L368.9,169.2z"/>
		<path id="path1313" class="st4" d="M354.3,153.7l15.2-14.7l2.9,3l-4.1,16l10.1-9.8l2.8,2.8L366,165.7l-3-3.1l4-15.7l-9.9,9.6
			L354.3,153.7z"/>
		<path id="path1311" class="st4" d="M347.9,148.1l13.8-15.9l3.2,2.8l-13.8,15.9L347.9,148.1z"/>
		<path id="path1305" class="st4" d="M327.4,125.2l3.1,3c-1.6,1.8-3.3,2.9-5.1,3.2c-1.8,0.4-3.7,0-5.8-0.9c-2.5-1.2-4.2-3.1-5-5.6
			s-0.4-5.3,1-8.2c1.5-3.2,3.6-5.2,6-6.2c2.5-0.9,5-0.8,7.7,0.5c2.3,1.1,3.9,2.7,4.6,4.8c0.5,1.2,0.5,2.7,0.2,4.4l-4.2-0.9
			c0.3-1.1,0.2-2.1-0.3-3c-0.4-0.9-1.2-1.6-2.2-2.1c-1.4-0.7-2.8-0.7-4.2-0.2c-1.4,0.6-2.6,2-3.7,4.3c-1.2,2.4-1.6,4.3-1.2,5.8
			c0.4,1.4,1.2,2.5,2.6,3.2c1,0.5,2.1,0.6,3.1,0.3C325.4,127.1,326.4,126.4,327.4,125.2L327.4,125.2z"/>
		<path id="path1291" class="st4" d="M223.1,119.6l-3.7-20.8l6.3-1.1l6.3,13.5l1.2-14.8l6.3-1.1l3.7,20.8l-3.9,0.7l-2.9-16.4
			l-1.2,17.1l-4,0.7l-7-15.6l2.9,16.4L223.1,119.6z"/>
		<path id="path1289" class="st4" d="M197,128.9l-7.6-19.7l14.6-5.6l1.3,3.3l-10.6,4.1l1.7,4.4l9.9-3.8l1.3,3.3l-9.9,3.8l2.1,5.4
			l11-4.2l1.3,3.3L197,128.9z"/>
		<path id="path1287" class="st4" d="M181.3,137.7l-10.5-18.1l3.7-2.1l8.7,15l9.2-5.3l1.8,3.1L181.3,137.7z"/>
		<path id="path1281" class="st4" d="M156.2,158.7l-6.4-6.2l-14.2-2.9l3.5-3.6l9.5,2.2l-2.6-9.3l3.4-3.5l3.4,14.1l6.4,6.2
			L156.2,158.7z"/>
		<path id="path1271" class="st4" d="M118.9,227.5L98.5,222l1.1-4l15.8-4.7l-13.6-3.6l1-3.8l20.4,5.5l-1.1,4.1l-15.5,4.7l13.3,3.6
			L118.9,227.5z"/>
		<path id="path1265" class="st4" d="M115.6,258.6l-21.1-0.7l0.1-4.3l21.1,0.7L115.6,258.6z"/>
		<path id="path1263" class="st4" d="M116.5,271.7L99,272.9l0.4,6.2l-3.6,0.2l-1.2-16.7l3.6-0.2l0.4,6.2l17.5-1.2L116.5,271.7z"/>
		<path id="path1253" class="st4" d="M137,332.4L118.7,343l-7.8-13.6l3.1-1.8l5.7,9.9l4.1-2.3l-5.3-9.2l3.1-1.8l5.3,9.2l5-2.9
			l-5.9-10.2l3.1-1.8L137,332.4z"/>
		<path id="path1247" class="st4" d="M163.3,363.8L148.7,379l-11.3-10.9l2.5-2.6l8.2,7.9l3.3-3.4l-7.6-7.4l2.5-2.6l7.6,7.4l4-4.1
			l-8.5-8.2l2.5-2.6L163.3,363.8z"/>
	</g>
	<g id="g2008">
		<path id="path1720" class="st5" d="M460.6,206.2c-0.3,0-0.7,0-1,0.1c-0.6,0.1-0.9,1.1-0.8,3.1c0,1.9,0.3,4.3,0.9,7.1
			c0.3,1.2,0.9,2.3,1.9,3.3s2.2,1.6,3.8,2.1c-3.4,1.3-6.1,2.8-8.1,4.2c-2.7,2-3.9,3.8-3.5,5.6l1,4.5H454l0.2,3.3
			c0.2,3.3,0.8,6.2,2,8.8c0.9,2.1,2.2,3.9,3.7,5.5c-1.6,1-2.8,2.5-3.6,4.5c-0.7,1.7-1,3.4-0.9,5l0.2,4.4l-1-0.1l-0.6,5.8
			c-0.3,2.9-0.2,5.1,0.3,6.6c0.5,1.6,1.6,3.2,3.2,4.8c-1.7,1.7-3.1,3.7-4.2,5.9c-0.9,2-1.5,3.8-1.7,5.5l-0.4,3.8l6.4,0.7
			c1.8,0.2,4.1-0.2,7-1.3c2.2-0.8,4.6-1.9,7.4-3.3c-0.2-1.7-0.9-3.6-2.2-5.7c-1.4-2.4-3.1-4.4-5.1-6.1c-1.5-1.3-2.6-2.6-3.3-4.1
			c-1-1.9-1.3-3.9-1.1-6.2l0.6-5.5l1.1-0.1l-0.3-5.4c0-0.8,0.1-1.7,0.4-2.9c0.3-1.1,0.8-1.9,1.4-2.4c1.6,1.7,2.8,2.9,3.7,3.5
			c1.2,0.9,2.3,1.3,3.4,1.2c2-0.1,3.4-1.3,4.3-3.7c0.7-1.8,0.9-4.1,0.8-6.9c-0.2-3.2-0.7-5.5-1.7-6.8c-1.1-1.4-3-2-5.7-1.9l-2.2,0.1
			v0.8c0.6,0.4,0.9,0.7,1.1,1.1c0.2,0.3,0.3,0.7,0.3,1.2c0.1,1-0.4,1.9-1.3,2.7l-1.9,1.7c-1.2-1.9-2.2-3.8-2.8-5.8
			c-0.5-1.8-0.9-3.7-1-5.8l-0.2-3.3l-1.1,0.1l1.9-0.4l-1.1-5.2c-0.2-0.8,0.9-1.8,3.3-3.1c1.5-0.8,4-1.9,7.3-3.3l6-2.4
			c1.4-0.7,2.8-1.3,4.2-1.8c1.3-0.5,2.7-1.1,4.2-1.7c-1-0.6-2-1-2.9-1.3c-1.1-0.3-2.1-0.4-2.9-0.3c-0.2,0-0.7,0.2-1.5,0.6
			c-0.8,0.3-1.3,0.5-1.5,0.6c-2.8-3.7-5.7-6.6-8.8-8.8C464.8,207,462.5,206.1,460.6,206.2L460.6,206.2z M464.9,212.3
			c1.5,0.5,2.8,1.3,3.9,2.4c1.1,1,2.2,2.5,3.4,4.5l-3.8,1.5c-1.8-1-2.9-2.2-3.2-3.7c-0.3-1.2-0.4-2.1-0.4-2.8
			S464.8,212.8,464.9,212.3z M463.3,288.2c1.2,0.9,2,1.6,2.4,2.2c0.7,0.9,1.2,2,1.3,3.2c-1.3,0.8-2.6,1.4-3.8,1.9
			c-1.5,0.5-2.9,0.9-4.4,1l-0.5-0.4c0.3-1.4,1-2.9,1.9-4.4C461.3,290.1,462.3,288.9,463.3,288.2z"/>
		<path id="path1778" class="st5" d="M352,47.4c-1.1,0.5-2,1.1-2.7,1.7c-0.9,0.7-1.6,1.5-1.9,2.3c-0.1,0.2-0.2,0.7-0.4,1.5
			c-0.2,0.8-0.3,1.4-0.3,1.6c-4.6,0.1-8.7,0.9-12.2,2.2c-3.6,1.3-5.8,2.9-6.6,4.9c-0.2,0.6,0.4,1.4,2,2.5c1.6,1.1,3.7,2.2,6.3,3.3
			c1.2,0.5,2.4,0.6,3.8,0.3c1.4-0.3,2.6-0.9,3.9-1.9c-0.8,3.5-1.2,6.6-1.2,9.1c0.1,3.3,0.9,5.4,2.6,6.1l3.8,1.6l0,0l16.8,9.7
			l-0.4,0.5l26.3,18.4l-0.7,0.7l11.6,11.6l-0.4,0.3l3.7,4.4c1.8,2.2,3.5,3.7,5,4.4s3.4,1.1,5.6,1c0,2.4,0.5,4.8,1.3,7.2
			c0.8,2.1,1.7,3.7,2.8,5l2,2.4l-0.6,0.3l9.5,15.7l6.2-3.8l22.7-18.8l0.4,1.8c0.7-0.1,1.8-0.5,3.1-1c1.3-0.6,2.5-1.2,3.6-1.8
			c-0.2-1.3-0.4-2.7-0.7-4c-0.2-1.8,0.3-3,1.5-3.7l0.1-0.7c-1.5,0.2-3,0.6-4.4,1.1s-2.9,1.2-4.3,2.1l0.2,2.1l-24.7,20l-7.5-12.5
			l-0.9,0.6l1.4-1.2c1.3-1.1,2.7-3.1,4-6c0.9-2.1,1.9-4.7,2.8-7.6c-1.4-1-3.3-1.8-5.6-2.4c-2.7-0.7-5.3-0.9-7.9-0.6
			c-1.9,0.2-3.7,0-5.3-0.4c-2-0.6-3.7-1.8-5.2-3.5l-2.8-3.3l1-1L426.8,96l0.8,1.7c0.7-0.3,1.6-0.9,2.7-1.7c1.1-0.9,2.1-1.7,3-2.6
			c-0.5-1.2-1.1-2.5-1.6-3.7c-0.6-1.7-0.4-3,0.6-4l-0.1-0.7c-1.4,0.6-2.8,1.3-4,2.1c-1.3,0.9-2.5,1.9-3.7,3.1l0.7,2L406,117.6
			l-10.3-10.3l-2.1,2.1l2.3-3.3c0.6-4,0.6-8.2,0-12.7c-0.5-4.2-1.5-8.5-2.9-13c-0.4-1.2-0.8-2.4-1.2-3.6c-0.6-1.9-0.8-3.1-0.4-3.5
			c0.3-0.5,1.8-0.4,4.4,0.1c2,0.4,4.6,1.1,7.7,2l7.8,2.3l3.7-5.3l-10.9-2.7c-4.9-1.2-8.8-1.5-11.6-0.8c-3.1,0.8-5.9,2.9-8.3,6.4
			c-0.4,0.6-0.4,1.8,0.2,3.8l1.7,5.3l1.7-0.2c1.8,4,3.1,7.5,3.8,10.3c0.7,2.9,1,5.9,0.9,9L370.4,88l1.7-2.9c2.2-3.8,3.5-6.7,3.9-8.7
			c0.2-1.3,0.2-3.4-0.3-6.2l-5.5,3.8c0.6,2.7,0.8,4.6,0.7,5.7c-0.2,1.7-1,3.8-2.4,6.3l-15.7-9v-0.1l-4.9-2.1c-0.7-0.3-1-1.8-0.7-4.5
			c0.2-1.7,0.7-4.4,1.5-7.8l1.5-6.3c0.3-1.6,0.6-3,0.9-4.5C351.3,50.4,351.7,48.9,352,47.4L352,47.4z M343.2,58.5
			c0.7,0,1.5,0,2.4,0.1l-0.9,4c-1.8,0.9-3.5,1.1-4.8,0.5c-1.1-0.5-2-0.9-2.6-1.3c-0.6-0.4-1.1-0.8-1.5-1.2c1.3-0.9,2.7-1.5,4.2-1.8
			c0.7-0.1,1.6-0.2,2.5-0.3C342.8,58.5,343,58.5,343.2,58.5z M425.2,131.6c0.5,0,1,0,1.4,0c1.2,0.1,2.2,0.5,3.2,1.2
			c-0.3,1.5-0.8,2.9-1.3,4.1c-0.6,1.4-1.4,2.7-2.3,3.9l-0.6,0.1c-0.8-1.2-1.4-2.7-1.9-4.4s-0.6-3.3-0.4-4.6
			C424,131.7,424.7,131.6,425.2,131.6L425.2,131.6z"/>
		<path id="path1788" class="st5" d="M446.1,173.3c-1.8,0.8-3.7,1.3-5.7,1.4c-1.1,0.1-2.8,0-5.3-0.3l0.1-0.8
			c0.7-0.2,1.5-0.5,2.4-0.8s1.5-0.5,1.8-0.7c2.4-1,5.6-2.7,9.6-5c4.1-2.3,8.3-4.7,12.6-7.2c2.7-1.6,5.3-3.2,8.1-4.8
			c1.2,0,2.5,0,3.9,0.1s2.7,0.1,4,0.2c-2.4,1.5-5.7,3.5-10,6.1c-4.2,2.5-8.1,4.8-11.5,6.7C451.7,170.5,448.4,172.2,446.1,173.3
			L446.1,173.3z"/>
		<path id="path1784" class="st5" d="M354.5,98l-5.1,3.3l-3.7-5.7l5.1-3.3L354.5,98z"/>
		<path id="path1782" class="st5" d="M363.5,99.4l-5.2,3.2l-3.6-5.8l5.1-3.2L363.5,99.4z"/>
		<path id="path1776" class="st5" d="M349.7,38.1L345,42l-4.3-5.2l4.6-3.9L349.7,38.1z"/>
		<path id="path1774" class="st5" d="M358.8,38.4l-4.8,3.8l-4.3-5.3l4.6-3.8L358.8,38.4z"/>
		<path id="path1772" class="st5" d="M291.1,53.7c-0.2,2-0.8,3.8-1.7,5.6c-0.5,0.9-1.4,2.4-2.9,4.4l-0.6-0.4
			c0.1-0.7,0.3-1.5,0.5-2.5c0.2-0.9,0.3-1.6,0.3-1.9c0.3-2.6,0.4-6.2,0.5-10.8s0.1-9.5,0-14.5c0-3.1-0.1-6.2-0.2-9.4
			c0.6-1,1.3-2.1,2-3.3c0.8-1.2,1.5-2.3,2.2-3.4c0.1,2.8,0.2,6.7,0.3,11.7c0.1,4.9,0.1,9.4,0,13.3C291.5,47.5,291.3,51.2,291.1,53.7
			L291.1,53.7z"/>
		<path id="path1766" class="st5" d="M272.2,12.9c-0.7,1.4-1.2,2.8-1.6,4.3s-0.7,3.1-0.8,4.8l1.9,1.1l2.2,31.7l-13.7-1v-0.4
			c-0.1-1.8-1-4-2.5-6.7c-1.2-2-2.7-4.2-4.6-6.7c-1.6,0.5-3.4,1.6-5.3,3.1c-2.1,1.8-3.8,3.8-5.2,6.1c-1,1.7-2.2,3-3.4,4
			c-1.7,1.3-3.6,2-5.9,2.1l-5.7,0.4l0.3,4.4l-0.8-3.6l-5.3,1.1c-0.8,0.2-1.7,0.2-2.9,0s-2-0.5-2.5-1c1.4-1.8,2.4-3.2,2.9-4.2
			c0.7-1.3,0.9-2.5,0.7-3.5c-0.4-2-1.9-3.2-4.3-3.6c-1.9-0.4-4.2-0.3-6.9,0.3c-3.2,0.7-5.3,1.6-6.4,2.8c-1.2,1.3-1.5,3.3-0.9,5.9
			l0.5,2.1l0.8-0.2c0.3-0.6,0.6-1,0.9-1.3c0.3-0.2,0.7-0.4,1.1-0.5c1-0.2,1.9,0.1,2.9,0.8l1.9,1.6c-1.7,1.5-3.4,2.7-5.3,3.7
			c-1.7,0.8-3.5,1.4-5.5,1.9l-3.3,0.7l0.9,4.5l-3.1-6.9c-1.1-2.4-2.5-4.4-4.4-5.9c-1.6-1.3-3.8-2.4-6.4-3.3l0.4,6.2
			c2.3,1,4.2,2.1,5.7,3.3c1.9,1.5,3.3,3.1,4.1,4.9c0.9,2.1,1,4.9,0.1,8.4s-2.3,6.7-4.4,9.7c-2.3,3.3-4.9,5.5-7.8,6.8
			c-1.3,0.6-2.8,1.1-4.6,1.5c-1.7,0.4-3.4,0.8-5.1,1.2v1.6c1.9-0.1,3.8-0.2,5.7-0.3c2.2-0.1,4.1-0.3,5.7-0.6c2-0.4,3.8-0.9,5.4-1.6
			c1.7-0.8,3.5-2.5,5.4-5.3c2-2.9,3.4-6,4.2-9.1c0.9-3.4,0.9-6.3-0.1-8.7l2.9-0.6c3.2-0.7,6-1.8,8.4-3.3c1.9-1.2,3.5-2.8,4.8-4.6
			c1.2,1.4,2.9,2.4,5,2.8c1.8,0.4,3.5,0.4,5,0.1l5.3-1.1l-0.1-0.7l5.5-0.4c2.9-0.2,5-0.7,6.5-1.5c1.4-0.8,2.8-2.1,4.1-4
			c1.9,1.4,4.1,2.4,6.6,3.1c2.1,0.6,4,0.8,5.7,0.7l2.1-0.1v0.3l18.3,1.3l0.5-7.3l-2.3-29.4l1.7,0.7c0.3-0.7,0.6-1.7,0.9-3.1
			s0.5-2.7,0.6-3.9c-1.2-0.6-2.4-1.2-3.6-1.7c-1.6-0.8-2.3-2-2.2-3.4L272.2,12.9z M251.6,45.2c1,1.2,1.9,2.3,2.5,3.4
			c0.8,1.3,1.4,2.7,1.8,4.1l-0.3,0.5c-1.4-0.1-3-0.4-4.7-1.1c-1.7-0.6-3-1.4-3.9-2.3c0.6-1.3,1.2-2.2,1.7-2.8
			C249.4,46.2,250.4,45.5,251.6,45.2z"/>
		<path id="path1768" class="st5" d="M209,31.4l-1.6,5.9l-6.5-1.8l1.6-5.9L209,31.4z"/>
		<path id="path1764" class="st5" d="M163.2,95l0.5,6.1l-6.8,0.7l-0.6-6.1L163.2,95z"/>
		<path id="path1762" class="st5" d="M144.6,109.8l1.2,6l-6.6,1.4l-1.3-5.9L144.6,109.8z"/>
		<path id="path1760" class="st5" d="M149.2,101.8l1.1,6l-6.7,1.3l-1.2-5.9L149.2,101.8z"/>
		<path id="path1756" class="st5" d="M144.8,67.8l0.9,6.7c2.6,0.7,4.5,1.3,5.4,2c1.4,0.9,2.9,2.6,4.5,5l-14.9,9.7l-1.8-2.3
			c-2.8-3.4-5-5.7-6.7-6.7c-1.1-0.7-3.1-1.4-5.9-2l1.6,6.5c2.7,0.4,4.6,0.9,5.6,1.4c1.5,0.8,3.2,2.3,5,4.5L125.6,103l-0.2-0.2
			l-3.8,3.7c-0.6,0.6-2.1,0.2-4.4-1.1c-1.5-0.9-3.7-2.4-6.6-4.4l-5.2-3.8c-1.3-0.9-2.6-1.7-3.8-2.6c-1.2-0.9-2.4-1.7-3.6-2.7
			c0.1,1.2,0.2,2.2,0.5,3.2c0.3,1.1,0.8,2,1.3,2.6c0.1,0.1,0.5,0.5,1.3,1c0.7,0.5,1.1,0.8,1.3,0.9c-1.7,4.3-2.6,8.3-2.8,12.1
			c-0.2,3.8,0.5,6.5,1.9,8c0.4,0.4,1.4,0.1,3.1-0.9c1.6-1,3.5-2.5,5.5-4.5c0.9-0.9,1.5-2,1.8-3.3s0.2-2.8-0.2-4.3
			c2.9,2.2,5.6,3.7,7.9,4.6c3.1,1.2,5.3,1.3,6.6,0l2.1-2l0.1,0.1l15.4-12.5l0.1,0.2l17.8-11.5l-4.9-7.6c-2.4-3.7-4.4-6.2-6-7.4
			C149.5,69.6,147.6,68.7,144.8,67.8L144.8,67.8z M105.7,102l3.3,2.4c0.1,2.1-0.3,3.6-1.4,4.6c-0.9,0.8-1.6,1.5-2.2,1.9
			s-1.1,0.7-1.7,0.9c-0.3-1.6-0.3-3.1,0-4.5C104,105.8,104.6,104.1,105.7,102L105.7,102z"/>
		<path id="path1754" class="st5" d="M88.4,90.3l1.7,5.8L83.6,98l-1.8-5.8L88.4,90.3z"/>
		<path id="path1752" class="st5" d="M92.2,82l1.6,5.9l-6.5,1.9L85.6,84L92.2,82z"/>
		<path id="path1750" class="st5" d="M69.7,196.8c2.6,0.7,5.1,2.5,7.3,5.4c2,2.6,3.5,5.6,4.6,9c1,3.2,1.3,5.7,0.9,7.5
			c-0.4,1.7-1.1,3.4-2.1,5.2c-0.7,1.4-1.7,3-3,4.8c-1.1,1.6-2.2,3.1-3.2,4.7l-1.3-1c0.7-1.5,1.4-3.1,2.2-4.7
			c0.8-1.6,1.3-3.2,1.6-4.6c0.8-3.1,0.6-6.5-0.6-10.4c-1-3.5-2.7-6.6-4.9-9.5c-2.2-2.8-4.4-4.5-6.6-5.1c-1.9-0.5-4-0.4-6.4,0.2
			c-1.9,0.5-4,1.3-6.1,2.5l-5.1-3.5c2.3-1.5,4.5-2.5,6.6-3c2.3-0.5,4.8-0.5,7.3,0.1l2.5,0.6l10.4-25.8c-3.1,0.6-5.9,1.6-8.6,2.9
			c-2.6,1.3-5.7,3.3-9.2,6l0.6,1.6l-4.7,2.8c-1.8,0.9-3,1.3-3.6,1c-3.9-1.6-6.7-3.8-8.1-6.7c-1.3-2.6-2-6.5-1.8-11.5l0.1-11.2l6,2.4
			l-0.5,8.2c-0.2,3.2-0.3,5.9-0.2,8c0.1,2.6,0.4,4.1,0.9,4.3s1.6-0.2,3.3-1.2c1.1-0.7,2.1-1.3,3.2-2c4.1-2.4,8-4.3,12-5.8
			c4.2-1.6,8.4-2.5,12.4-2.9l5.2,2.1l-4.7-2.9l7.7-12.4l-29.1-13l-1.8,1.2c-1.5-0.9-2.7-1.9-3.8-2.9s-2.1-2.2-3-3.5l0.6-0.3
			c1.2,0.8,2.6,0.7,4-0.3c1.1-0.8,2.2-1.6,3.2-2.4c1.1,0.7,2.1,1.4,3.2,2.4c1.1,0.9,1.9,1.7,2.3,2.3l-1.5,1.2l27,11.7l6.2,3.9
			L81.3,168l0,0L69.7,196.8z"/>
		<path id="path1746" class="st5" d="M50.6,235.1c-2.1,0-4.2,1.3-6.4,3.9c-0.7,0.8-2.4,3.3-5.1,7.6l6.1,2.8l0.2-0.5
			c1.9,1,3.7,2,5.6,2.9c2.2,1.1,4.2,1.7,5.9,1.8c1.5,0.1,2.7-0.4,3.7-1.7c0.8-1.1,1.3-2.6,1.5-4.4c0.4-4.7-0.7-8-3.2-10
			c-1.6-1.3-4.2-2.1-7.7-2.4C50.9,235.1,50.8,235.1,50.6,235.1L50.6,235.1z M53.6,238.5L53.6,238.5c0.7,0.1,1.4,0.9,2,2.6
			c0.6,1.7,0.9,3.2,0.8,4.6c-0.1,1.2-0.5,2.1-1.3,2.7c-0.8,0.6-1.8,0.9-3,0.8c-0.9-0.1-1.7-0.5-2.7-1.3c-0.3-0.2-1-1-2.1-2.2
			c0.7-1.3,1.5-2.5,2.3-3.6C51.3,239.8,52.6,238.5,53.6,238.5L53.6,238.5z"/>
		<path id="path1744" class="st5" d="M29.7,245.1l5.1,3.3l-3.6,5.7l-5.1-3.2L29.7,245.1z"/>
		<path id="path1742" class="st5" d="M27.1,236.3l5.1,3.3l-3.7,5.7l-5.1-3.2L27.1,236.3z"/>
		<path id="path1740" class="st5" d="M54.1,292.5c1.9-0.4,3.9-0.4,5.9,0c1,0.2,2.7,0.7,5.1,1.5l-0.2,0.7c-0.7,0.1-1.5,0.2-2.5,0.3
			c-0.9,0.1-1.6,0.2-1.9,0.3c-2.5,0.5-6,1.4-10.5,2.7c-4.5,1.3-9.1,2.7-13.9,4.2c-2.9,0.9-5.9,1.9-8.9,2.9c-1.2-0.3-2.4-0.6-3.8-1
			s-2.6-0.7-3.8-1.1c2.7-0.9,6.4-2.2,11.1-3.7s8.9-2.8,12.7-3.9C48.1,293.9,51.7,293,54.1,292.5L54.1,292.5z"/>
		<path id="path1736" class="st5" d="M37.9,344l5.8,0.8l-1.1,5.4l-5.8-1L37.9,344z"/>
		<path id="path1734" class="st5" d="M32.6,336.9l5.8,1.1l-1.1,5.4l-5.8-1.1L32.6,336.9z"/>
		<path id="path1732" class="st5" d="M66,303.7l-7,1.9l-27,11.8l0.1-1.9c-0.7-0.1-1.8,0-3.2,0.1c-1.4,0.2-2.7,0.4-3.9,0.7
			c-0.2,1.3-0.3,2.7-0.5,4c-0.3,1.7-1.1,2.8-2.5,3.2l-0.2,0.6c1.5,0.2,3,0.3,4.6,0.2c1.5-0.1,3.1-0.4,4.8-0.8l0.4-2.1L60.7,309
			l3.6,13.4l-5.8,2.3c-3.2,1.3-5.8,2.9-7.8,4.8c-2.5,2.4-3.3,4.8-2.3,7.1c0.8,2,2.7,3.3,5.7,3.7c2.6,0.4,5.2,0.1,7.6-0.9
			c2.8-1.1,4.2-3.2,4.3-6.3c0-1.4-0.5-4.2-1.5-8.3c0.8,1,1.5,2,2,3s1,2.2,1.6,3.6l4.3,10.5h-0.1c-5.4,2.5-9.5,5.2-12.3,8.1
			c-3.4,3.6-5.2,7.7-5.3,12.5l6.8-2.5c-0.5-3.7,0.4-7,2.8-9.8c1.9-2.3,4.9-4.3,8.9-6.2l6.1,13c0.4,0.9,0.6,1.8,0.5,2.5
			c-0.1,0.8-0.6,1.6-1.4,2.3l0.4,0.8c0.9-0.1,1.8-0.3,2.5-0.6c0.7-0.2,1.5-0.5,2.4-0.9c1-0.5,1.6-1.4,1.9-2.8s0.1-2.7-0.5-4
			l-6.3-13.5l0,0L70.4,320h-0.1L66,303.7z M59.6,327.9c0.8,2.5,1.2,4.1,1.2,4.8c0.1,2.1-0.7,3.4-2.4,4.1c-0.7,0.3-1.4,0.3-2.1,0
			c-0.7-0.3-1.2-0.7-1.4-1.4c-0.5-1.3-0.1-2.8,1.2-4.4C56.8,330.2,58,329.2,59.6,327.9z"/>
		<path id="path1730" class="st5" d="M418.8,387.6c-1.6-1.1-3-2.5-4.1-4.2c-0.6-0.9-1.4-2.4-2.5-4.7l0.7-0.3c0.5,0.5,1.2,1,1.9,1.6
			c0.7,0.6,1.2,1,1.5,1.2c2.1,1.5,5.2,3.4,9.2,5.7c4,2.3,8.3,4.7,12.7,7.1c2.7,1.5,5.5,2.9,8.3,4.4c0.6,1,1.3,2.2,1.9,3.4
			c0.7,1.2,1.3,2.4,1.9,3.5c-2.5-1.3-6-3.1-10.4-5.4s-8.3-4.5-11.7-6.4C424,390.9,420.8,389,418.8,387.6L418.8,387.6z"/>
		<path id="path1728" class="st5" d="M429.3,336.9l-3.8-4.7l5.3-4.3l3.8,4.9L429.3,336.9z"/>
		<path id="path1726" class="st5" d="M445.2,318.3l1.3-5c0.4-1.6,1.4-2.7,3-3.4c1.4-0.6,3.3-0.7,5.6-0.6c2.4,0.2,5.3,0.6,8.7,1.2
			c2.7,0.6,5.6,1.2,8.4,1.8c2.9,0.6,5.1,1,6.6,1.1s2.8,0.1,3.9-0.1c1.3-0.2,2.5-0.7,3.6-1.4l5.8,6.3c-3.1,0.2-6.7-0.1-10.8-0.8
			c-2.6-0.4-8.5-1.8-17.9-4c-4.4-0.7-7.3-0.8-8.7-0.3c-1.2,0.4-1.9,1-2.1,1.8l-1.3,5l-2.6-0.7l3.4,1.5L440,348.5
			c2.8-1.5,5.1-2.8,6.8-4c2.1-1.4,3.8-2.8,5.1-4.2c1.5-1.5,2.6-3.3,3.4-5.2c0.5-1.1,1-2.4,1.3-3.6c1.4,1.4,2.3,2.9,2.9,4.4
			c0.8,2.2,0.6,4.5-0.4,6.8s-3.4,4.5-7,6.7c-1.8,1.1-5.1,2.6-9.9,4.8c-3.7,1.6-5.8,2.9-6.5,3.8l-0.9,2l-0.3-0.1h0.1l-8,12.2
			l28.8,13.5l1.8-1.1c1.4,0.9,2.7,1.9,3.8,3c1.1,1.1,2.1,2.2,2.9,3.5l-0.6,0.2c-1.2-0.8-2.5-0.7-4,0.3c-1.1,0.8-2.2,1.6-3.3,2.3
			c-1-0.7-2.1-1.5-3.2-2.4s-1.8-1.7-2.3-2.3l1.5-1.2l-26.8-12.2l-6.1-4l10-15.4l0.1,0.1l16.9-37.9L445.2,318.3z"/>
		<path id="path1718" class="st5" d="M491.2,210.7l-5.9-1.6l1.8-6.5l5.8,1.6L491.2,210.7z"/>
		<path id="path1716" class="st5" d="M496.3,218.4l-5.8-1.7l1.9-6.5l5.8,1.6L496.3,218.4z"/>
		<path id="path840" class="st5" d="M91.3,363.7l2.5,3.6c2.4,3.4,4.7,6.1,7.1,8.2c3,2.6,5.3,3.4,6.8,2.4c1.3-0.9,2.6-2.2,3.8-3.7
			c1.2-1.5,2.4-3.1,3.6-4.6c1.2-1.6,2.5-2.8,3.8-3.7c0.8-0.5,1.5-1,2.2-1.3s1.7-0.7,2.9-1.1c-1.3,1.7-2.6,3.4-4,5.1
			c-2.5,3.2-4.4,5.6-5.8,7.3c-2.1,2.5-3.4,4-3.9,4.4c-2.6,1.8-5,2.7-7.1,2.6c-2.2-0.1-4.3-1.1-6.6-2.8c-1.8-1.4-4.1-3.8-7-7.1
			c-0.4,2.2-0.6,3.5-0.7,4c-0.1,1.6,0.2,2.9,1,4c0.5,0.7,1.1,1.2,2,1.5c0.7,0.3,1.6,0.5,2.9,0.6l0.1,2c-2,0.5-3.7,0.6-5.1,0.5
			c-2.4-0.2-4.2-1.2-5.4-3c-0.9-1.3-1.3-2.8-1.2-4.8c0-1.6,0.4-3.4,1-5.4c0.3-1,0.9-2.6,1.8-4.7L91.3,363.7z"/>
	</g>
	<g id="g1243">
		<path id="path1128" class="st4" d="M228.8,438.2v41.2h5.7v-17.2h1.2c1.3,0,2.3,0.2,2.9,0.5c0.6,0.3,1.2,0.9,1.7,1.7
			c0.5,0.8,1.6,2.9,3,6.1l4.2,9h6.8l-3.4-8c-1.4-3.2-2.5-5.5-3.3-6.7s-1.8-2.4-3-3.4c2.4-0.5,4.2-1.7,5.5-3.7s1.9-4.6,1.9-7.8
			c0-2.5-0.4-4.7-1.3-6.6c-0.8-1.8-1.9-3.1-3.2-3.8c-1.3-0.7-3.5-1.1-6.6-1.1h-12.1V438.2z M234.5,445.2h4.5c2.6,0,4.1,0.1,4.6,0.3
			c0.8,0.3,1.4,0.8,1.8,1.6c0.4,0.8,0.7,1.9,0.7,3.2c0,1.4-0.2,2.5-0.7,3.3c-0.4,0.8-1,1.4-1.7,1.6c-0.7,0.3-2.4,0.4-4.9,0.4h-4.3
			L234.5,445.2L234.5,445.2z"/>
		<path id="path1126" class="st4" d="M260.1,479.4v-41.2h8.6l5.1,28.1l5.1-28.1h8.6v41.2h-5.3V447l-5.6,32.4H271l-5.6-32.4v32.4
			H260.1z"/>
		<path id="path1124" class="st4" d="M296.4,479.4v-41.2h19.4v7h-13.7v9.7H314v7h-11.9v17.5H296.4z"/>
		<path id="path842" class="st4" d="M199.4,479.4v-41.2h19.4v7h-13.7v9.7H217v7h-11.9v17.5H199.4z"/>
	</g>
</g>
<g id="g1712">
	<path id="path844" class="st6" d="M292.7,234.8c4.9,1.1,9.9,3.4,13.9,6.6c4.3,3.5,7.5,8.6,9.1,14.3c1.9,7.2,1.2,14.8-0.9,22
		l-0.2,0.8c-3.9-0.6-7.7-1.2-11.5-1.7c3.6-5.4,5.5-11.8,5.2-18.6c-0.3-5.5-2.1-11.4-5.5-15.5C299.9,239.3,296.5,236.5,292.7,234.8
		L292.7,234.8z M300.4,276.3c-3.1-0.4-6.1-0.8-9.1-1.2l0.5-0.2c4-3.6,7-8.2,8-13.9c0.8-4.3,0.4-9.6-1.5-13.5
		c-1.7-3.7-4.8-6.6-8.3-7.9c-4.4-1.7-9.2-0.6-13.3,1.7c-1-1.2-2-2.4-3-3.5c5.2-2.7,10.6-3.5,16.2-1.5c4.2,1.5,8.1,4.4,11.2,8
		s4.7,9,4.9,13.9C306.3,264.9,304.2,271.2,300.4,276.3L300.4,276.3z"/>
	<path id="path846" class="st6" d="M222.9,234.7c-5,1.1-10.1,3.4-14.2,6.6c-4.3,3.5-7.5,8.6-9.1,14.3c-1.9,7.2-1.2,14.8,0.9,22
		l0.2,0.7c0.1,0,0.1,0,0.2,0c3.9-0.6,7.7-1.2,11.5-1.7c-3.5-5.4-5.4-11.8-5.1-18.5c0.3-5.5,2.1-11.4,5.5-15.5
		C215.6,239.2,219.1,236.5,222.9,234.7L222.9,234.7z M215,276.3c3-0.4,6-0.8,9-1.1l-0.5-0.2c-4-3.6-7-8.2-8-13.9
		c-0.8-4.3-0.4-9.6,1.5-13.5c1.7-3.7,4.8-6.6,8.3-7.9c4.4-1.7,9.2-0.6,13.2,1.7c1-1.2,2-2.4,3.1-3.6c-5.2-2.6-10.6-3.4-16.1-1.5
		c-4.2,1.5-8.1,4.4-11.1,8c-3.1,3.6-4.7,9-4.9,13.9C209.3,264.8,211.3,271.1,215,276.3z"/>
	<path id="path848" class="st6" d="M201.1,279.8c-7.9,1.3-6.4,8.9-0.8,6.8c4.5-1.8,9-3.1,13.7-4.3c15.1-3.9,30.5-6.4,46.1-6.4
		c7.8,0,15.5,0.7,23.2,2c8.1,1.5,16,3.6,23.9,6c2.7,0.9,5.4,1.9,8.2,2.7c1.3,0.5,3.1,0.5,3.9-1c0.5-1,0.5-2.2,0.1-3.2
		c-0.6-1.4-1.8-2.1-3.2-2.3c-18.7-2.9-37.2-5.4-56.2-5.5C240.3,274.6,220.7,276.7,201.1,279.8L201.1,279.8z"/>
	<path id="path850" class="st6" d="M286.2,273.8c0-20.6-11.2-38-28.4-45.3c-18.2,8.4-27.8,23.7-28.5,45.4v0.8
		c4.1-0.4,8.2-0.7,12.3-1c-0.1-16.1,2.8-34.7,15.8-44.1l0.4-0.2l0.4,0.2c13.1,9.4,15.8,28,15.9,44.1c4.1,0.2,8.2,0.6,12.2,1
		L286.2,273.8z M257.7,236.2c2,0,3.5,1.7,3.5,3.9s-1.5,3.9-3.5,3.9c-1.9,0-3.5-1.7-3.5-3.9C254.2,237.9,255.8,236.2,257.7,236.2z
		 M257.8,264.1c1.9,0,3.5,1.7,3.5,3.9c0,2.2-1.6,3.9-3.5,3.9s-3.5-1.7-3.5-3.9C254.2,265.8,255.8,264.1,257.8,264.1z M242.8,273.6
		c4.5-0.2,9-0.4,13.6-0.4c-2-0.7-3.5-2.8-3.5-5.2c0-2,0.9-3.7,2.4-4.7c-1.4-0.9-2.4-2.7-2.4-4.6c0-2,0.9-3.7,2.3-4.6
		c-1.4-1-2.3-2.7-2.3-4.7c0-1.9,0.9-3.7,2.3-4.6c-1.4-0.9-2.4-2.7-2.4-4.6c0-3,2.2-5.5,4.9-5.5s4.9,2.4,4.9,5.5c0,1.9-1,3.7-2.4,4.6
		c1.4,0.9,2.4,2.7,2.4,4.6c0,2-0.9,3.7-2.3,4.7c1.4,1,2.4,2.7,2.4,4.7s-1,3.7-2.4,4.7c1.4,1,2.3,2.7,2.3,4.7c0,2.4-1.4,4.5-3.4,5.2
		c0.3,0,0.6,0,0.9,0c4.2,0,8.4,0.1,12.5,0.4c0-15.4-2.6-33.3-14.8-42.4C245.4,240.3,242.7,258.2,242.8,273.6L242.8,273.6z
		 M257.3,253.2c0.2,0,0.3,0,0.5,0c0.1,0,0.3,0,0.4,0c1.7-0.3,3.1-1.9,3.1-3.9s-1.4-3.7-3.1-3.9c-0.2,0-0.3,0-0.5,0
		c-0.1,0-0.3,0-0.4,0c-1.7,0.3-3.1,1.9-3.1,3.9C254.2,251.4,255.6,253,257.3,253.2L257.3,253.2z M257.3,262.6c0.1,0,0.3,0,0.4,0
		c0.2,0,0.3,0,0.5,0c1.7-0.2,3.1-1.9,3.1-3.9s-1.4-3.7-3.1-3.9c-0.2,0-0.3,0-0.5,0c-0.1,0-0.3,0-0.4,0c-1.7,0.3-3.1,1.9-3.1,3.9
		C254.3,260.7,255.6,262.3,257.3,262.6L257.3,262.6z"/>
	<path id="path852" class="st6" d="M192.8,264.6c1.9,0,3.5,1.8,3.5,3.9s-1.6,3.9-3.5,3.9s-3.5-1.8-3.5-3.9S190.9,264.6,192.8,264.6z
		"/>
	<path id="path854" class="st6" d="M193.3,254c1.9,0,3.5,1.7,3.5,3.9c0,2.2-1.6,3.9-3.5,3.9s-3.5-1.7-3.5-3.9
		C189.8,255.7,191.4,254,193.3,254L193.3,254z"/>
	<path id="path856" class="st6" d="M196.3,243.8c1.9,0,3.5,1.8,3.5,3.9c0,2.2-1.6,3.9-3.5,3.9s-3.5-1.8-3.5-3.9
		S194.4,243.8,196.3,243.8z"/>
	<path id="path858" class="st6" d="M202,235.3c1.9,0,3.5,1.8,3.5,3.9s-1.6,3.9-3.5,3.9s-3.5-1.8-3.5-3.9
		C198.5,237,200.1,235.3,202,235.3z"/>
	<path id="path860" class="st6" d="M209.8,229.1c1.9,0,3.5,1.8,3.5,3.9c0,2.2-1.6,3.9-3.5,3.9s-3.5-1.8-3.5-3.9
		S207.9,229.1,209.8,229.1z"/>
	<path id="path862" class="st6" d="M218.6,225.1c1.9,0,3.5,1.8,3.5,3.9s-1.6,3.9-3.5,3.9s-3.5-1.8-3.5-3.9
		C215.1,226.9,216.7,225.1,218.6,225.1z"/>
	<path id="path864" class="st6" d="M228,223.6c1.9,0,3.5,1.7,3.5,3.9s-1.6,3.9-3.5,3.9s-3.5-1.8-3.5-3.9
		C224.4,225.3,226,223.6,228,223.6z"/>
	<path id="path866" class="st6" d="M322.5,264.6c-1.9,0-3.5,1.8-3.5,3.9s1.6,3.9,3.5,3.9s3.5-1.8,3.5-3.9S324.4,264.6,322.5,264.6z"
		/>
	<path id="path868" class="st6" d="M322,254c-1.9,0-3.5,1.7-3.5,3.9c0,2.2,1.6,3.9,3.5,3.9s3.5-1.7,3.5-3.9
		C325.5,255.7,323.9,254,322,254L322,254z"/>
	<path id="path870" class="st6" d="M319,243.8c-1.9,0-3.5,1.8-3.5,3.9c0,2.2,1.6,3.9,3.5,3.9s3.5-1.8,3.5-3.9S320.9,243.8,319,243.8
		z"/>
	<path id="path872" class="st6" d="M313.3,235.3c-1.9,0-3.5,1.8-3.5,3.9s1.5,3.9,3.5,3.9s3.5-1.8,3.5-3.9
		C316.8,237,315.3,235.3,313.3,235.3z"/>
	<path id="path874" class="st6" d="M305.5,229.1c-1.9,0-3.5,1.8-3.5,3.9c0,2.2,1.6,3.9,3.5,3.9s3.5-1.8,3.5-3.9
		S307.5,229.1,305.5,229.1z"/>
	<path id="path876" class="st6" d="M296.7,225.1c-1.9,0-3.5,1.8-3.5,3.9s1.6,3.9,3.5,3.9s3.5-1.8,3.5-3.9
		C300.2,226.9,298.6,225.1,296.7,225.1z"/>
	<path id="path878" class="st6" d="M287.3,223.6c-1.9,0-3.5,1.7-3.5,3.9s1.6,3.9,3.5,3.9s3.5-1.8,3.5-3.9
		C290.9,225.3,289.3,223.6,287.3,223.6z"/>
	<path id="path880" class="st6" d="M203.2,287v6.4h108.9v-6.2c-1.8-0.6-3.5-1.2-5.2-1.8c-16-4.9-30.2-8-46.8-8
		c-15.3,0-30.5,2.3-45.8,6.3C210.6,284.7,206.9,285.7,203.2,287L203.2,287z"/>
	<path id="path882" class="st6" d="M256.9,199.8l-3.1,6c0.7-0.3,1.4-0.5,2.2-0.7L256.9,199.8z M257.6,212.8c1.9,0,3.4,1.6,3.4,3.8
		c0,2-1.5,3.8-3.4,3.8c-1.8,0-3.4-1.7-3.4-3.8C254.2,214.5,255.8,212.8,257.6,212.8z M264.8,227.5l-5.8-5.9c1-0.4,1.8-1.1,2.4-2
		L264.8,227.5z M256.3,221.6l-5.7,5.9l3.3-7.8C254.4,220.6,255.3,221.3,256.3,221.6z M252.9,216.6l-6.8-4.2l7.7,1
		C253.2,214.3,252.9,215.4,252.9,216.6L252.9,216.6z M256.2,211.6l1.5-8.4l1.5,8.5c-0.5-0.2-1-0.3-1.6-0.3
		C257.1,211.3,256.6,211.4,256.2,211.6L256.2,211.6z M261.4,213.5l7.8-1l-6.9,4.2v-0.1C262.4,215.4,262,214.4,261.4,213.5
		L261.4,213.5z M259.4,205.2c0.8,0.1,1.5,0.4,2.2,0.7l-3.1-6L259.4,205.2z M249.6,209.2l-5.9,1.4l4.7,0.6
		C248.7,210.5,249.1,209.8,249.6,209.2L249.6,209.2z M243,212.2l4.2,5.1c0-0.3,0-0.5,0-0.8c0-0.6,0-1.2,0.1-1.7L243,212.2z
		 M248.8,222.8l-0.6,6.8l2-4.9C249.7,224.1,249.2,223.5,248.8,222.8L248.8,222.8z M249.4,230.7l5.8-2.9c-0.8-0.2-1.5-0.5-2.2-0.9
		L249.4,230.7z M260.1,227.9l5.8,2.9l-3.7-3.8C261.6,227.3,260.9,227.6,260.1,227.9z M267.1,229.5l-0.6-6.8c-0.4,0.7-0.9,1.4-1.4,2
		L267.1,229.5z M268,217.5l4.2-5.2l-4.3,2.7c0.1,0.5,0.1,1.1,0.1,1.6C268,216.9,268,217.2,268,217.5L268,217.5z M271.7,210.6
		l-6.1-1.4c0.5,0.6,0.9,1.4,1.3,2.1L271.7,210.6z M259.7,206.7c2.4,0.6,4.5,2.4,5.8,4.7l-4.8,0.7L259.7,206.7z M266.7,215.7
		c0,0.3,0,0.6,0,0.9c0,2.5-0.8,4.8-2.2,6.6l-2-4.8L266.7,215.7z M261.2,225.9c-1.1,0.5-2.3,0.8-3.6,0.8c-1.2,0-2.4-0.3-3.5-0.8
		l3.6-3.7L261.2,225.9z M250.8,223.3c-1.4-1.8-2.3-4.1-2.3-6.7c0-0.3,0-0.6,0-0.9l4.3,2.7L250.8,223.3z M249.8,211.4
		c1.3-2.4,3.3-4.1,5.8-4.7l-1,5.4L249.8,211.4z"/>
	<path id="path884" class="st3" d="M257.7,280.6l9.8,4.2l-9.8,4.2l-9.8-4.2L257.7,280.6z"/>
	<path id="path886" class="st2" d="M257.7,281.8c1.5,0,2.7,1.4,2.7,3s-1.2,3-2.7,3c-1.4,0-2.7-1.3-2.7-3
		C255,283.1,256.2,281.8,257.7,281.8z"/>
	<path id="path888" class="st3" d="M215.4,284.4l10.3,2l-8.9,6.1l-10.3-1.9L215.4,284.4z"/>
	<path id="path890" class="st2" d="M215.6,285.6c1.4-0.3,2.8,0.7,3.1,2.3c0.3,1.6-0.7,3.1-2.1,3.5c-1.4,0.3-2.9-0.7-3.1-2.3
		C213.2,287.5,214.1,285.9,215.6,285.6z"/>
	<path id="path892" class="st3" d="M228.9,282.6l15.6-1.1l2.9,3.3l-2.5,3.8l-15.5,1.1l-3.2-3.4L228.9,282.6z"/>
	<path id="path894" class="st2" d="M230.5,283.6l12-0.9l1,2.4l-0.7,2.5l-12,0.9l-1.1-2.4L230.5,283.6z"/>
	<path id="path896" class="st3" d="M300,284.4l-10.3,2l8.9,6.1l10.3-1.9L300,284.4z"/>
	<path id="path898" class="st2" d="M299.8,285.6c-1.5-0.3-2.9,0.7-3.2,2.3c-0.3,1.6,0.7,3.1,2.1,3.5c1.4,0.3,2.9-0.7,3.1-2.3
		C302.1,287.5,301.2,285.9,299.8,285.6L299.8,285.6z"/>
	<path id="path900" class="st3" d="M286.4,282.6l-15.6-1.1l-2.9,3.3l2.5,3.8l15.6,1.1l3.2-3.4L286.4,282.6z"/>
	<path id="path902" class="st2" d="M284.8,283.6l-12-0.9l-1,2.4l0.7,2.5l12,0.9l1.1-2.4L284.8,283.6z"/>
</g>
</svg>
