<?xml version="1.0" encoding="utf-8"?>
<!-- Generator: Adobe Illustrator 26.0.2, SVG Export Plug-In . SVG Version: 6.00 Build 0)  -->
<svg version="1.1"
	 id="Layer_1" xmlns:inkscape="http://www.inkscape.org/namespaces/inkscape" xmlns:sodipodi="http://sodipodi.sourceforge.net/DTD/sodipodi-0.dtd" xmlns:svg="http://www.w3.org/2000/svg"
	 xmlns="http://www.w3.org/2000/svg" xmlns:xlink="http://www.w3.org/1999/xlink" x="0px" y="0px" width="150px" height="150px"
	 viewBox="0 0 150 150" style="enable-background:new 0 0 150 150;" xml:space="preserve">
<style type="text/css">
	.st0{fill:#3A544C;}
	.st1{fill:#FFFFFF;}
	.st2{fill:#F33946;}
	.st3{fill:#0A9841;}
</style>
<sodipodi:namedview  bordercolor="#666666" borderopacity="1.0" id="namedview929" inkscape:current-layer="Layer_1" inkscape:cx="170.22995" inkscape:cy="232.55" inkscape:pagecheckerboard="0" inkscape:pageopacity="0.0" inkscape:pageshadow="2" inkscape:window-height="900" inkscape:window-maximized="0" inkscape:window-width="1440" inkscape:window-x="0" inkscape:window-y="0" inkscape:zoom="1.1954418" pagecolor="#ffffff" showgrid="false">
	</sodipodi:namedview>
<g>
	<g id="g3153" transform="matrix(1.5050527,0,0,1.5050527,0.04032521,0)">
		<path id="path824" class="st0" d="M16.6,80.7h3.8v-4H23c-6.2-7-9.5-15-9.7-24.2S15.9,35,22,28.2c11.5-12.8,25.6-15.7,41.9-10.2
			c3.3-5.4,4.3-11.3,4-17.9c3.3,3.7,6.5,7.1,8.7,11.3c-0.2,0.8-0.4,1.7-0.7,2.6c1.1,2.4,2.1,4.9,2.8,7.6c-0.2,0.4-0.4,0.8-0.7,1.2
			c0.4,2.2,0.7,4.4,0.8,6.6c0,0.3,0.2,0.6,0.4,0.9c10.3,14,9.2,33.1-2.1,45.9c-0.1,0.1-0.2,0.3-0.4,0.6h2.6v4H83v19H16.6L16.6,80.7z
			"/>
		<path id="path1296" class="st1" d="M42.4,75.4c-3.2-1-6-2.6-8.6-4.7c-2.2,1.3-6.7,3.7-6.8,3.7c1.3-2.2,2.6-4.4,3.9-6.6
			c-2.6-3.2-4.4-6.6-5.2-10.5c0-0.2-0.1-0.4-0.2-0.5c-1.2-0.8-1.2-1.8-0.5-3c-2.5-0.7-7.4-2.1-7.4-2.1c2.5-0.6,4.9-1.3,7.4-2
			c-0.7-1.4-0.7-1.8,0.3-2.8c0.3-0.3,0.3-0.6,0.4-0.9c0.9-3.6,2.4-6.8,4.7-9.6c0.2-0.2,0.4-0.4,0.4-0.7c-1.2-2.1-3.6-6.6-3.6-6.6
			l6.5,3.8c3.2-2.7,6.9-4.5,10.9-5.3c1-1.2,1.5-1.3,3-0.6c0.6-2.4,2-7.1,2.1-7.1c0.6,2.4,1.2,4.7,1.9,7.3c0.7-0.7,1.5-0.6,2.3-0.4
			c3.4-1.8,6.4-4.1,8.7-7.2c-12.4-5.1-29.3-2.9-40.1,10.2c-5.1,6.1-7.8,13.2-8,21.1c-0.1,2.7,0.1,7.4,1.9,12.8
			c2.5,7.4,6.9,12.3,9.5,14.7c-1.4,0-2.9,0-4.3,0v4.1h-3.8v15.9h63.4V82.2h-3.8v-4h-4.8c6.7-6.2,10.6-13.6,11.7-22.5
			c1-8.1-2.6-21.5-6.6-24.3c-0.1,2.7-0.3,5.3-1,7.8c-0.4,0.3-0.8,0.5-1.1,0.7c-0.5,2-1.2,3.9-1.9,5.5c-0.2,1.2,0.6,1.5,1,2.1
			c0.4,0.8,0,1.4-0.3,2.1c2.5,0.7,4.9,1.3,7.3,1.9c0,0.1,0,0.1,0,0.2c-2.4,0.6-4.9,1.3-7.3,1.9c0.6,1.3,0.6,1.9,0,2.4
			c-0.6,0.5-0.8,1.2-0.9,1.8c-0.4,1.6-1,3.2-1.8,4.7c-0.9,1.8-2,3.4-3.3,5c1.3,2.2,2.6,4.4,3.9,6.6c-0.1,0.1-4.6-2.4-6.8-3.7
			c-2.6,2.2-5.5,3.7-8.6,4.8c-0.3,4.8-3.2,7.8-7.2,7.8C45.7,83.4,42.9,80.4,42.4,75.4L42.4,75.4z"/>
		<path id="path1294" class="st1" d="M31.1,32.9c0-0.1-0.1-0.2-0.2-0.1c0,0.1,0,0.1,0.1,0.2c0.6,1,1.1,2,1.7,3.1
			c-3.7,4.2-5.7,9.1-6.1,14.6c-1.2,0.3-3.5,1.1-3.5,1.1c1.2,0.3,2.4,0.6,3.6,1c0.3,5.6,2.4,10.5,6,14.6c-0.6,1-1.1,2-1.6,3
			c0,0.1-0.1,0.2-0.2,0.3c0.2-0.1,2.3-1.2,3.3-1.8c3,2.7,6.4,4.5,10.2,5.4c-0.8,4.2,2,7.6,6.1,7.2c1-0.1,1.9-0.5,2.6-1.1
			c2.1-1.6,2.6-3.7,2.1-6.2c3.9-1,7.3-2.8,10.2-5.4c1.1,0.6,3.2,1.8,3.2,1.7c-0.6-1-1.1-2.1-1.8-3.2c3.8-4.2,5.7-9,6.1-14.6
			c1.2-0.3,2.4-0.7,3.8-1.1c-1.5-0.4-2.7-0.7-3.8-1c-0.1-1.8-0.4-3.5-0.8-5.1c1.1-2.2,1.9-4.5,2.5-6.9c0.4-0.2,0.7-0.4,1-0.6
			c0.6-2.5,0.8-5,0.9-7.5c0.3-0.3,0.6-0.5,0.9-0.7c-0.1-2.6-0.4-5.2-1-7.6c0.2-0.4,0.4-0.7,0.7-1c-0.6-2.6-1.6-5-2.8-7.3
			c0.2-0.9,0.6-1.8,0.6-2.7c-1.5-2.6-3.3-4.9-5.5-7.2c0,0.9,0,1.5-0.1,2.2c-1,10.2-6,17.6-15.2,22.1c-1.1,0.5-2.2,0.4-3.3,0.3
			c-0.5-1-0.5-2.1-1.1-3.3c-0.3,1.2-0.6,2.3-0.9,3.3c-5.6,0.3-10.4,2.4-14.6,6L31.1,32.9z"/>
	</g>
	<g id="g1110" transform="matrix(1.5050527,0,0,1.5050527,0.04032521,0)">
		<path id="path830" class="st2" d="M75.9,65.9c0.8,0.2,1.4,0.3,2.2,0.4c-1.3,2.7-3.1,5-5.1,7.2c-1-1.5,0,0-1-1.5
			c1.1-1.3,2.2-2.6,3.2-4.2c-2.1-0.5,0,0-2.1-0.5c2-3.1,3.4-6.4,4.2-10c1.9,1.1,0,0,1.9,1.1c0.5-1.6,0.5-3.3,0.8-5
			c1.7-0.5,0,0,1.7-0.5c0,3-0.6,5.7-1.4,8.5c-1.8-1.1,0,0-1.8-1.1C77.7,62.1,77,64,75.9,65.9L75.9,65.9z"/>
		<path id="path832" class="st3" d="M24.3,35.8c0.8,0.1,1.4,0.2,2.2,0.4c-2,3.2-3.4,6.5-4.1,10.2c-0.7-0.5-1.2-0.8-1.8-1.2
			c-0.5,1.7-0.6,3.4-0.8,5.2c-0.6,0.1-1.2,0.3-1.8,0.4c0.1-1.1,0.2-2.4,0.4-3.7c0.3-1.8,0.7-3.4,1.1-4.8c0.3,0.2,1.2,0.7,1.8,1.1
			c0.4-1,0.7-1.9,1-2.8c0.4-0.9,0.8-1.8,1.2-2.8c-0.7-0.1-1.3-0.3-2.1-0.4c1.4-2.7,3-5.1,5.1-7.3c0.3,0.6,0.6,1,0.9,1.6
			C26.4,32.8,25.3,34.2,24.3,35.8L24.3,35.8z"/>
		<path id="path834" class="st3" d="M34.1,28.6c-0.2-0.8-0.3-1.5-0.4-2.2c-1.5,0.8-2.8,2-4.1,3c-0.5-0.3-1-0.6-1.6-0.9
			c2.1-2,4.4-3.7,7.1-5c0.1,0.7,0.3,1.4,0.4,2.1c1.8-0.9,3.6-1.7,5.6-2.4c-0.5-0.6-0.8-1.2-1.3-1.8c2.9-1,5.8-1.5,8.9-1.6
			c-0.1,0.3-0.1,0.6-0.2,0.9c-0.1,0.3-0.1,0.6-0.2,0.9c-1.8,0.2-3.6,0.3-5.5,0.8c0.4,0.6,0.8,1.1,1.2,1.8
			C40.5,25.2,37.2,26.5,34.1,28.6L34.1,28.6z"/>
		<path id="path836" class="st3" d="M27.6,71.9c-0.3,0.5-0.6,1-0.9,1.4c-1.4-0.9-4.3-5.1-5.1-7.1c0.6-0.1,1.3-0.3,2-0.4
			c-0.9-1.8-1.7-3.7-2.3-5.6c-0.8,0.1-1.1,0.8-1.8,1.1c-0.9-2.7-1.4-5.5-1.5-8.4c1.8,0.4,1.2,0.2,1.8,0.4c0.2,1.7,0.3,3.3,0.8,5.1
			c0.6-0.5,1.2-0.8,1.8-1.3c0.8,3.7,2.2,7,4.2,10c-0.7,0.5-1.4,0.2-2.1,0.6C25.4,69.2,26.5,70.5,27.6,71.9z"/>
		<path id="path842" class="st2" d="M67.3,76.3c0.9-0.7,1.8-1.4,2.7-2.2c0.5,0.3,1,0.6,1.6,0.9c-0.8,0.7-1.5,1.3-2.2,2
			c0,1,0,2,0,3.2c2.1,0,4.2,0,6.3,0c0.1,2,0,0,0.1,2c-2.8,0-5.6,0-8.4,0C67.3,80.2,67.3,78.3,67.3,76.3L67.3,76.3z"/>
		<path id="path844" class="st3" d="M30.3,80.2c0-1.2,0-2.2,0-3.3c-0.7-0.6-1.4-1.2-2.2-1.9c0.2-0.2,1.3-0.9,1.5-1
			c0.9,0.8,1.9,1.5,2.8,2.2c0,1.9,0,3.9,0,5.9c-2.8,0-5.6,0-8.5,0c0-0.6,0-1.2,0-1.9C26,80.2,28.1,80.2,30.3,80.2L30.3,80.2z"/>
		<path id="path848" class="st2" d="M78.4,43.3c0.6-0.4,1.1-0.8,1.7-1.2c1,2.8,1.5,8.6,1.5,8.6s0,0-1.8-0.4
			c-0.2-1.7-0.3-3.5-0.8-5.2c-0.6,0.4-1.1,0.8-1.7,1.2c-0.5-1.6-1-3.2-1.4-4.8c0.1-0.3,0.1-0.6,0.2-0.9c0.3-0.2,0.7-0.3,1-0.5
			C78,42.1,77.9,42.2,78.4,43.3L78.4,43.3z"/>
		<path id="path852" class="st2" d="M59.9,21.5c-1.2,1.5-3.8,3-3.8,3s0,0-0.5-0.2c0.4-0.6,0.8-1.1,1.2-1.7c-1.8-0.5-3.6-0.7-5.4-0.8
			c-0.1-0.3-0.2-0.6-0.3-0.9c-0.1-0.3-0.1-0.6-0.2-0.9C53.9,20,56.9,20.6,59.9,21.5L59.9,21.5z"/>
	</g>
	<g id="g5509" transform="matrix(1.5050527,0,0,1.5050527,0.04032521,0)">
		<path id="path826" class="st0" d="M26,91.8c1.2-2.3,2.4-4.4,3.5-6.5c0.8,0,1.6,0,2.5,0c0,3.5,0,7,0,10.6c-0.4,0-2,0-2.5,0
			c0-0.8,0-1.6-0.1-2.4c0-0.8,0-1.6,0-2.3c-0.9,1.6-1.8,3.1-2.6,4.7c-0.5,0-1,0-1.6,0c-0.8-1.5-2.5-4.5-2.6-4.5c0,1.5,0,2.9,0,4.4
			c-0.3,0-1,0-1.3,0c-0.3,0-1,0-1.3,0c0-3.5,0-7,0-10.5c0.4,0,0.8,0,1.2,0c0.4,0,0.9,0,1.3,0C23.6,87.4,24.8,89.5,26,91.8z
			 M21.7,94.9c0-2.4,0-4.8,0-7.2c0.5,0.9,1.1,1.8,1.6,2.8c0.9,1.6,1.7,3.1,2.5,4.6c0.1,0,0.2,0,0.3,0c1.4-2.5,2.8-4.9,4.1-7.4
			c0,2.4,0.1,4.8,0.1,7.2c0.2,0,0.5,0,0.7,0c0-2.9,0-5.7,0-8.7c-0.1,0-0.3,0-0.5,0c-0.2,0-0.4,0-0.6,0c-1.3,2.6-2.7,5.1-4,7.6
			c-1.4-2.6-2.7-5.2-4.1-7.8c-0.2,0-0.3,0-0.5,0s-0.3,0-0.5,0c0,2.9,0,5.8,0,8.7c0.1,0,0.3,0,0.4,0C21.4,94.9,21.5,94.9,21.7,94.9
			L21.7,94.9z"/>
		<path id="path828" class="st0" d="M35.9,87.8c0,0.5,0,0.9,0,1.4c1.9,0,3.8,0,5.7,0c0,0.9,0,1.7,0,2.5c-1.9,0-3.8,0-5.7,0
			c0,0.6,0,1,0,1.6c2.1,0,4.1,0,6.2,0c0,0.9,0,1.7,0,2.5c-2.9,0-5.8,0-8.7,0c0-3.5,0-7,0-10.5c2.9,0,5.7,0,8.6,0c0,0.8,0,1.6,0,2.5
			C39.9,87.8,37.9,87.8,35.9,87.8L35.9,87.8z M34.2,86.2V95h6.9c0-0.1,0-0.2,0-0.4c0-0.1,0-0.2,0-0.3c-2,0-4.1,0-6.1,0v-3.4h5.9
			c0-0.2,0-0.4,0-0.6c-1,0-2,0-3,0c-1,0-2,0-3,0v-3.3c2,0,3.9,0,5.9,0c0-0.2,0-0.5,0-0.7c-0.5,0-2.8,0-3.3,0
			C37.1,86.2,34.7,86.2,34.2,86.2L34.2,86.2z"/>
		<path id="path838" class="st0" d="M66.2,91.5c0.6,0.4,1.3,0.8,1.9,1.3c-0.9,2.4-3.3,3.7-5.9,3.2c-2.7-0.5-4.5-2.6-4.6-5.3
			c0-2.7,1.7-4.9,4.2-5.5c2.7-0.6,5.2,0.6,6.3,3.1c-0.6,0.4-1.3,0.8-1.9,1.3c-1.9-2.2-3.6-2.6-5.1-1.2c-1.2,1.2-1.2,3.2,0,4.3
			C62.6,94.2,64.3,93.8,66.2,91.5z M66.9,88.1c-1.3-1.9-3.3-2.5-5.3-1.8c-2,0.7-3.2,2.5-3.1,4.6c0.1,2,1.5,3.7,3.5,4.1
			c2.1,0.5,4-0.3,4.9-1.9c-0.2-0.1-0.3-0.2-0.4-0.3c-0.1,0.2-0.3,0.4-0.6,0.7c-0.1,0.1-0.5,0.5-1.1,0.7c-1,0.4-2.2,0.4-3.3-0.1
			c-1.4-0.7-2.2-2.1-2.1-3.9c0.1-1.6,1.2-2.9,2.8-3.3c1.8-0.5,3.1,0.1,4.3,1.5C66.5,88.3,66.7,88.2,66.9,88.1L66.9,88.1z"/>
		<path id="path840" class="st0" d="M43,85.3c1.2,0,2.1,0,3.1,0c0.6,0.9,1.3,1.9,2,3c0.7-1,1.4-2,2-2.9c1,0,1.9,0,3.1,0
			c-1.2,1.8-2.4,3.4-3.5,5.2c1.2,1.8,2.4,3.5,3.7,5.4c-1.1,0-2.1,0-3.2,0c-0.7-1-1.4-2-2.1-3.1c-0.8,1.1-1.5,2.1-2.2,3.1
			c-1,0-2,0-3.1,0c1.3-1.8,2.5-3.6,3.7-5.4C45.4,88.8,44.3,87.1,43,85.3L43,85.3z M48.2,91.2c1.7,2.5,2.7,3.8,2.7,3.8l0,0
			c0,0,0,0,0.9,0c-1-1.5-2.1-3-3.2-4.5c1.1-1.5,2.1-2.9,3.2-4.4c-0.3,0-0.6,0-0.9,0c-1,1.2-1.9,2.5-2.9,3.7
			c-1.4-1.9-2.7-3.6-2.7-3.6s-0.3,0-0.8,0c1,1.4,2,2.9,3,4.3c-1.1,1.5-2.1,3-3.2,4.5c0.3,0,0.6,0,0.9,0l0,0
			C46.3,93.7,47.3,92.5,48.2,91.2z"/>
		<path id="path846" class="st0" d="M74.1,85.2c-3,0-5.4,2.4-5.5,5.4s2.4,5.5,5.5,5.5c3,0,5.4-2.4,5.4-5.4
			C79.6,87.6,77.2,85.2,74.1,85.2z M74.2,86.1c2.5,0,4.5,2.1,4.5,4.6c0,2.5-2,4.5-4.6,4.5c-2.6,0-4.5-2-4.5-4.5
			C69.6,88,71.6,86,74.2,86.1z M74.1,86.8c-2.1,0-3.7,1.7-3.8,3.8c0,2.2,1.7,3.9,3.8,3.9c2.1,0,3.7-1.7,3.7-3.9
			C77.8,88.4,76.2,86.8,74.1,86.8z M74.1,87.7c1.6,0,2.8,1.4,2.8,3c0,1.6-1.3,2.9-2.9,2.9c-1.6,0-2.8-1.3-2.8-3
			C71.3,89,72.5,87.7,74.1,87.7z"/>
		<path id="path850" class="st0" d="M56.7,95.9c-0.9,0-1.7,0-2.5,0c0-3.5,0-7,0-10.6c0.9,0,1.7,0,2.5,0
			C56.7,88.9,56.7,92.3,56.7,95.9z M55.8,94.9c0-2.8,0-5.7,0-8.5c-0.1,0-0.2,0-0.4,0s-0.2,0-0.4,0c0,3.1,0,8.5,0,8.5l0,0
			C55.1,94.9,55.3,94.9,55.8,94.9L55.8,94.9z"/>
		<path id="path854" class="st0" d="M35.4,84.5c-0.1-0.9-0.2-1.6-0.3-2.5c1.7-0.3,3.4-0.5,5.1-0.7c0.1,0.4,0.1,0.8,0.2,1.2
			c0.1,0.4,0.1,0.8,0.2,1.2C38.8,84,37.2,84.3,35.4,84.5L35.4,84.5z M39.3,82.3c-1.1,0.2-2.1,0.3-3.1,0.4c0,0.1,0,0.2,0,0.4
			c0,0.1,0,0.3,0.1,0.4c1-0.2,2.1-0.3,3.2-0.5C39.3,82.3,39.4,83.1,39.3,82.3L39.3,82.3z"/>
	</g>
	<g id="g1100" transform="matrix(1.5050527,0,0,1.5050527,0.04032521,0)">
		<path id="path856" class="st0" d="M36.9,32.8c-0.4,1.1-0.7,2-1.1,3c1.7,1.5,3.6,1.8,5.7,1.8c1.5-1,2.5-2.3,3.2-3.9
			c0.7-1.5,0.9-3.1,1.1-5c0.3,0.7,0.5,1.1,0.8,1.6c1-0.3,1.9-0.6,3-1c0.4,3.8-0.6,7-3.1,9.8C44,42,40.8,43.4,37,43.6
			c2,6.4,5.6,11.3,11.1,14.9c0.1,0,0.2,0,0.3,0c1.9-0.9,3.7-0.5,5.6,0c3.3,1,10.5,2.8,10.7,3.1c-0.9,1.8-2.1,3.3-3.5,4.9
			c0.2,0.5,0.5,1.1,0.7,1.6c-7.6-3.9-13.6-7-17.7-9c-0.4-0.2-1.6-0.8-3-1.8c-4.7-3.3-7.3-7.6-6.4-13.6c-1-0.6-2.1-1.2-3-1.8
			c-1-0.6-1.8-1.4-2.5-2.3C29.8,37.7,34.1,34,36.9,32.8z"/>
		<path id="path858" class="st0" d="M66,5.8c1.7,1.9,3,3.7,4.1,5.6c-1.8,6.9-5.6,12.3-11.6,16.3c-0.3-1.3-0.6-2.4-0.9-3.6
			C62.7,19.2,65.5,13.2,66,5.8z"/>
		<path id="path860" class="st0" d="M58.8,32.2c0-1.4,0-2.6,0-3.8c5.1-3.2,8.8-7.7,11-13.5c1.1,2.1,1.8,4.1,2.4,6.2
			C69,26.2,64.7,30,58.8,32.2L58.8,32.2z"/>
		<path id="path862" class="st0" d="M71.7,23.1c0.5,2.3,0.8,4.4,0.8,6.5c-4.1,3.9-8.8,6.3-14.5,7.2c0.2-1.3,0.4-2.4,0.7-3.7
			C64,31.1,68.3,27.9,71.7,23.1L71.7,23.1z"/>
		<path id="path864" class="st0" d="M56.3,41c0.5-1.2,1-2.2,1.5-3.4c5.1-0.7,9.7-2.7,13.8-6.2c0,2.3-0.3,4.3-0.7,6.3
			C66.5,40.2,60.5,41.6,56.3,41L56.3,41z"/>
		<path id="path866" class="st0" d="M53.2,45.5c4.2,1.2,8.3,1.4,12.8,0.6c-0.8,1.6-1.7,2.8-2.6,4.2c1.8,0.5,3.5,0.9,5.2,1.4
			c-1.3,0.3-2.6,0.6-4,0.9c-3.3-0.8-6-1.5-8.2-2.1c-1.3-0.3-3.2-1.1-5.6-2.2c-0.1-0.1-0.2-0.2-0.4-0.3
			C51.3,47.2,52.2,46.4,53.2,45.5L53.2,45.5z"/>
		<path id="path868" class="st0" d="M67.6,45c-4.7,1.1-9.2,1.2-13.9-0.2c0.7-1,1.4-2,2.1-3.1c4.7,0.3,9.2-0.5,13.8-2.6
			C69.2,41.4,68.4,43.2,67.6,45L67.6,45z"/>
		<path id="path870" class="st0" d="M63.2,53.2c-2.5,0.8-5,1.5-7.5,2.2c-3.4-1-6.5-2.7-9.2-5c1.1-0.6,2.1-1.2,3.2-1.9
			c2.1,1.1,4.3,2,6.6,2.7C58.6,52,60.9,52.6,63.2,53.2L63.2,53.2z"/>
		<path id="path872" class="st0" d="M52.1,28.1c1.9,8.3-4.4,17.2-13.3,18.1c-0.4-0.5-0.5-1.2-0.8-1.9c3.8-0.5,7-2.1,9.4-5.1
			c2.4-3,3.3-6.4,2.9-10.2C50.9,28.7,51.4,28.4,52.1,28.1z"/>
		<path id="path874" class="st0" d="M42.2,52.1c1.2-0.4,2.3-0.8,3.6-1.2c2.5,2.1,5.3,3.8,8.8,5c-2.2,0.7-4.2,1.3-6.2,1.9
			C46,56.2,43.9,54.4,42.2,52.1L42.2,52.1z"/>
		<path id="path876" class="st0" d="M44.4,60.1c1.3,0.7,2.5,1.3,3.8,2c0,1.4,0,2.8,0,4.2c-1.8,0.4-3.6-0.8-3.8-2.6
			C44.4,62.5,44.4,61.4,44.4,60.1L44.4,60.1z"/>
		<path id="path878" class="st0" d="M39.1,47c0.9-0.2,1.7-0.4,2.6-0.6c1,1.3,2.1,2.6,3.4,3.8c-1.1,0.6-2.2,0.8-3.3,1.2
			C40.7,50,39.8,48.6,39.1,47z"/>
		<path id="path880" class="st0" d="M52.1,37c0.3-0.9,0.5-1.7,0.8-2.5c1.7-0.3,3.3-0.5,5-1.1c0,1.3-0.4,2.4-0.6,3.6
			C55.5,37.1,53.8,37.1,52.1,37z"/>
		<path id="path882" class="st0" d="M57.9,32.5c-1.7,0.6-3.2,0.9-5,1.1c0.1-0.9,0.2-1.7,0.2-2.6c1.6-0.6,3.1-1.3,4.7-2.1
			C58.1,30.2,58.1,31.3,57.9,32.5L57.9,32.5z"/>
		<path id="path884" class="st0" d="M48.2,42.6c0.6-0.7,1.2-1.3,1.7-2c1.6,0.5,3.2,0.8,5,1.1c-0.5,1.2-1.3,2-2,2.9
			C51.2,44.1,49.8,43.4,48.2,42.6z"/>
		<path id="path886" class="st0" d="M57,24.6c0.5,1.2,0.7,2.3,0.8,3.5c-1.4,0.9-2.9,1.6-4.6,2.1c-0.1-0.9-0.2-1.7-0.3-2.6
			C54.3,26.7,55.7,25.8,57,24.6L57,24.6z"/>
		<path id="path888" class="st0" d="M47.6,43.1c1.5,0.8,3,1.5,4.7,2.1c-0.8,1-1.7,1.6-2.6,2.4c-1.5-0.8-2.8-1.8-4.1-3
			C46.2,44.2,46.9,43.7,47.6,43.1L47.6,43.1z"/>
		<path id="path890" class="st0" d="M56.9,37.7c-0.3,1.2-0.8,2.2-1.4,3.3c-1.7-0.1-3.3-0.5-5-1c0.4-0.8,0.8-1.5,1.3-2.3
			C53.4,37.8,55.1,37.8,56.9,37.7L56.9,37.7z"/>
		<path id="path892" class="st0" d="M44.8,45.1c1.3,1.1,2.6,2.1,4.1,3c-1,0.8-2,1.3-3.1,1.8c-1.2-1.1-2.4-2.3-3.4-3.8
			C43.2,45.8,44,45.5,44.8,45.1z"/>
		<path id="path894" class="st0" d="M38.3,61.8c-1.8-2-1.7-3.9,0.4-5.5c0.5,0.4,1,0.8,1.5,1.2c0.5,0.4,1,0.7,1.2,0.9
			C40.4,59.6,39.4,60.7,38.3,61.8z"/>
		<path id="path896" class="st0" d="M35.5,66.8c-0.3-3.6-1.8-5.1-5.4-5.5c1.3-1.1,3.5-1,4.9,0.3C36.5,63,36.7,65.1,35.5,66.8z"/>
		<path id="path898" class="st0" d="M49.5,72c-2.5-2.3-4.8-2.4-7.8,0c0.3-1.4,1-2.3,2.1-2.9c1.4-0.7,2.8-0.6,4,0.2
			C48.9,69.9,49.7,70.7,49.5,72L49.5,72z"/>
		<path id="path900" class="st0" d="M27.6,44c-0.9-1.4-0.7-2.1,0.9-3.9c0.8,0.7,1.6,1.5,2.5,2.3C29.7,42.6,28.6,43.1,27.6,44
			L27.6,44z"/>
		<path id="path914" class="st0" d="M37.8,62.5c-0.2,0.2-0.3,0.3-0.5,0.5c-0.2,0.2-0.3,0.3-0.5,0.5c-0.3-0.5-0.5-1.1-0.8-1.6
			c0.1-0.1,0.2-0.2,0.3-0.3c0.1-0.1,0.2-0.3,0.3-0.4C37.1,61.5,37.4,61.9,37.8,62.5L37.8,62.5z"/>
		<path id="path916" class="st0" d="M48.2,67.2c-0.1,1.3,0,0-0.1,1.3c-0.6-0.2-1.1-0.4-1.7-0.6c0-1,0,0,0-1
			C47,67.1,47.6,67.2,48.2,67.2z"/>
		<path id="path918" class="st0" d="M29.9,60.4c-0.5-0.2-0.9-0.3-1.6-0.5c1-0.4,1.9-0.4,2.8,0C30.7,60,30.3,60.2,29.9,60.4
			L29.9,60.4z"/>
		<path id="path920" class="st0" d="M41.5,70.3c-0.1,0.3-0.2,0.6-0.4,1c-0.4,0.2-1.2,0.4-1.2,0.4C40.2,71,41.5,70.3,41.5,70.3
			L41.5,70.3z"/>
	</g>
	<g id="g1071" transform="matrix(1.5050527,0,0,1.5050527,0.04032521,0)">
		<path id="path902" class="st0" d="M51.4,75.4c-0.2,0.7-0.4,1.3-0.6,1.9c-0.7,0.1-1.3,0.1-2,0c-0.2-0.6-0.4-1.2-0.6-1.8
			c0.5-0.4,1-0.8,1.6-1.2C50.3,74.7,50.8,75,51.4,75.4z"/>
		<path id="path904" class="st0" d="M46.3,73.1c0.2,0.8,0.3,1.3,0.5,1.8c-0.3,0.6-0.7,1-1.4,1.5C45.2,75.2,45.5,74.2,46.3,73.1
			L46.3,73.1z"/>
		<path id="path906" class="st0" d="M51.6,71.8c-0.7,0.4-1.2,0.6-1.7,0.9c-0.6-0.2-1.2-0.5-1.7-0.9C49.3,71.2,50.3,71.3,51.6,71.8
			L51.6,71.8z"/>
		<path id="path908" class="st0" d="M53.3,73.2c0.8,1.1,1,2.1,0.9,3.4c-0.6-0.6-0.9-1-1.3-1.5C52.9,74.5,53.1,73.9,53.3,73.2z"/>
		<path id="path910" class="st0" d="M49.2,80.2c-1.3-0.3-2.2-0.8-2.9-1.8c0.7,0,1.2,0,1.8,0C48.6,78.9,48.8,79.5,49.2,80.2
			L49.2,80.2z"/>
		<path id="path912" class="st0" d="M51.5,78.5c0.6,0,1.2-0.1,2-0.1c-0.8,1.1-1.7,1.6-3,1.9C50.8,79.5,51.1,79,51.5,78.5L51.5,78.5z
			"/>
		<path id="path922" class="st0" d="M53.6,72C53.6,72,53.6,72,53.6,72C53.7,72,53.6,72,53.6,72z"/>
	</g>
</g>
</svg>
