<?xml version="1.0" encoding="utf-8"?>
<!-- Generator: Adobe Illustrator 26.0.2, SVG Export Plug-In . SVG Version: 6.00 Build 0)  -->
<svg version="1.1"
	 id="svg5938" inkscape:output_extension="org.inkscape.output.svg.inkscape" sodipodi:version="0.32" xmlns:cc="http://creativecommons.org/ns#" xmlns:dc="http://purl.org/dc/elements/1.1/" xmlns:inkscape="http://www.inkscape.org/namespaces/inkscape" xmlns:rdf="http://www.w3.org/1999/02/22-rdf-syntax-ns#" xmlns:sodipodi="http://sodipodi.sourceforge.net/DTD/sodipodi-0.dtd" xmlns:svg="http://www.w3.org/2000/svg"
	 xmlns="http://www.w3.org/2000/svg" xmlns:xlink="http://www.w3.org/1999/xlink" x="0px" y="0px" width="601px" height="601px"
	 viewBox="0 0 601 601" style="enable-background:new 0 0 601 601;" xml:space="preserve">
<style type="text/css">
	.st0{fill:#FFFFFF;}
	.st1{fill:#999B9E;}
	.st2{fill:#0067A6;}
	.st3{fill:#F79239;}
</style>
<defs>
	
		<inkscape:perspective  id="perspective5946" inkscape:persp3d-origin="372.04724 : 350.78739 : 1" inkscape:vp_x="0 : 526.18109 : 1" inkscape:vp_y="0 : 1000 : 0" inkscape:vp_z="744.09448 : 526.18109 : 1" sodipodi:type="inkscape:persp3d">
		</inkscape:perspective>
</defs>
<sodipodi:namedview  bordercolor="#666666" borderopacity="1.0" id="base" inkscape:current-layer="layer1" inkscape:cx="290.86359" inkscape:cy="589.05992" inkscape:document-units="px" inkscape:pageopacity="0.0" inkscape:pageshadow="2" inkscape:window-height="706" inkscape:window-maximized="1" inkscape:window-width="1366" inkscape:window-x="-8" inkscape:window-y="-8" inkscape:zoom="8.0044488" pagecolor="#ffffff" showgrid="false">
	</sodipodi:namedview>
<g id="layer1" transform="translate(-330.35839,104.7105)" inkscape:groupmode="layer" inkscape:label="Calque 1">
	<g id="g3029" transform="matrix(23.962396,0,0,23.962396,-7584.6024,-11396.17)">
		<path id="path1621" inkscape:connector-curvature="0" class="st0" d="M349.4,483.8c0,3.6-2.9,6.5-6.5,6.5c-3.6,0-6.5-2.9-6.5-6.5
			c0-3.6,2.9-6.5,6.5-6.5C346.5,477.2,349.4,480.2,349.4,483.8"/>
		<path id="path1623" inkscape:connector-curvature="0" class="st1" d="M336.2,483.8c0,3.7,3,6.7,6.7,6.7c3.7,0,6.7-3,6.7-6.7
			s-3-6.7-6.7-6.7C339.2,477.1,336.2,480.1,336.2,483.8z M336.5,483.8c0-3.5,2.9-6.4,6.4-6.4c3.5,0,6.4,2.9,6.4,6.4
			s-2.9,6.4-6.4,6.4C339.3,490.2,336.5,487.3,336.5,483.8"/>
		<path id="path1625" inkscape:connector-curvature="0" class="st1" d="M330.4,483.8c0,6.9,5.6,12.5,12.5,12.5
			c6.9,0,12.5-5.6,12.5-12.5s-5.6-12.5-12.5-12.5C336,471.3,330.4,476.9,330.4,483.8"/>
		<path id="path1627" inkscape:connector-curvature="0" class="st0" d="M330.8,483.8c0-6.7,5.4-12.1,12.1-12.1
			c6.7,0,12.1,5.4,12.1,12.1c0,6.7-5.4,12.1-12.1,12.1C336.2,495.9,330.8,490.5,330.8,483.8"/>
		<path id="path1629" inkscape:connector-curvature="0" class="st2" d="M340,490.3l2.9,0.6l6.6-5.3l0.3-3.1L340,490.3"/>
		<path id="path1631" inkscape:connector-curvature="0" class="st0" d="M349.7,482.4l-10,8l3.3,0.6l6.7-5.4l0.3-3.5L349.7,482.4
			L349.7,482.4z M349.6,482.8c0,0.5-0.2,2.6-0.2,2.7c-0.1,0.1-6.4,5.2-6.5,5.2c-0.1,0-2-0.4-2.5-0.5
			C340.8,489.9,349.1,483.2,349.6,482.8"/>
		<path id="path1633" inkscape:connector-curvature="0" class="st2" d="M349.4,480l-11.7,9.3l-1.4-1.8l11.7-9.3L349.4,480"/>
		<path id="path1635" inkscape:connector-curvature="0" class="st0" d="M347.9,478.1l-11.8,9.4l1.6,2l11.9-9.5l-1.6-2L347.9,478.1
			L347.9,478.1z M348,478.4c0.1,0.2,1.1,1.3,1.2,1.5c-0.2,0.2-11.2,9-11.5,9.2c-0.1-0.2-1.1-1.3-1.2-1.5
			C336.7,487.4,347.8,478.6,348,478.4"/>
		<path id="path1637" inkscape:connector-curvature="0" class="st2" d="M346,477.1c-1-0.4-1.9-0.6-2.6-0.8l-7.9,6.3l0.2,0.2v2.5
			L346,477.1"/>
		<path id="path1639" inkscape:connector-curvature="0" class="st0" d="M343.3,476.2l-8,6.4c0,0,0.2,0.2,0.3,0.3c0,0.1,0,2.8,0,2.8
			l10.8-8.6L346,477c-1-0.4-2-0.7-2.6-0.8L343.3,476.2L343.3,476.2L343.3,476.2z M343.4,476.5c0.6,0.1,1.4,0.4,2.3,0.7
			c-0.4,0.3-9.5,7.6-9.9,7.9c0-0.5,0-2.3,0-2.3s-0.1-0.1-0.1-0.1C335.9,482.5,343.3,476.6,343.4,476.5"/>
		<path id="path1641" inkscape:connector-curvature="0" class="st3" d="M334.6,483.8c0,4.5,3.7,8.2,8.2,8.2c4.5,0,8.2-3.7,8.2-8.2
			s-3.7-8.2-8.2-8.2C338.3,475.6,334.6,479.3,334.6,483.8z M336.4,483.8c0-3.5,2.9-6.4,6.4-6.4c3.5,0,6.4,2.9,6.4,6.4
			s-2.9,6.4-6.4,6.4C339.3,490.2,336.4,487.3,336.4,483.8"/>
		<path id="path1643" inkscape:connector-curvature="0" class="st1" d="M336.2,483.8c0,3.7,3,6.7,6.7,6.7s6.7-3,6.7-6.7
			s-3-6.7-6.7-6.7S336.2,480.1,336.2,483.8z M336.5,483.8c0-3.5,2.9-6.4,6.4-6.4s6.4,2.9,6.4,6.4s-2.9,6.4-6.4,6.4
			S336.5,487.3,336.5,483.8"/>
		<path id="path1645" inkscape:connector-curvature="0" class="st1" d="M334.4,483.8c0,4.7,3.8,8.5,8.5,8.5c4.7,0,8.5-3.8,8.5-8.5
			c0-4.7-3.8-8.5-8.5-8.5C338.2,475.3,334.4,479.1,334.4,483.8z M334.7,483.8c0-4.5,3.7-8.2,8.2-8.2c4.5,0,8.2,3.7,8.2,8.2
			c0,4.5-3.7,8.2-8.2,8.2C338.3,492,334.7,488.3,334.7,483.8"/>
		<path id="path1647" inkscape:connector-curvature="0" class="st2" d="M332.8,489.5c-0.1,0-0.1,0-0.1,0c0,0,0,0,0-0.1
			c-0.1-0.1-0.1-0.2-0.2-0.3c0-0.1-0.1-0.1-0.1-0.2c0,0,0-0.1,0-0.1c0-0.1,0-0.1,0-0.1c0,0,0.1,0,0.1,0.1c0.1,0.1,0.1,0.1,0.3,0
			l1.2-0.8c0.2-0.1,0.2-0.2,0.1-0.3c0-0.1,0-0.1,0-0.1c0,0,0.1,0,0.1,0.1c0,0,0,0,0,0.1c0.1,0.2,0.2,0.3,0.2,0.4
			c0.1,0.1,0.1,0.2,0.2,0.3c0,0,0,0.1,0.1,0.1c0,0.1,0,0.1,0,0.1c-0.1,0-0.1,0-0.2-0.1c-0.1-0.1-0.1-0.1-0.3,0l-1.2,0.8l1.5-0.3
			c0.1,0,0.1,0,0.2,0c0.2,0,0.2,0,0.2,0c0,0,0,0.1,0,0.1l-1,1.5l0.9-0.5c0.1,0,0.2-0.1,0.3-0.2c0.2-0.1,0.2-0.2,0.1-0.3
			c-0.1-0.1-0.1-0.2,0-0.2c0,0,0.1,0,0.1,0.1c0,0,0,0,0,0.1c0,0.1,0.1,0.1,0.1,0.2c0,0.1,0.1,0.1,0.1,0.2c0,0,0.1,0.1,0.1,0.1
			c0,0.1,0,0.1,0,0.1c0,0-0.1,0-0.2-0.1c-0.1-0.1-0.1-0.1-0.3,0l-1.2,0.7c0,0-0.1,0-0.1,0.1l-0.1,0c-0.1,0.1-0.1,0.1,0,0.2
			c0.1,0.1,0.1,0.1,0,0.2c0,0-0.1,0-0.1-0.1l-0.2-0.3c0-0.1-0.1-0.2-0.2-0.2l0,0c0,0,0-0.1,0-0.1l0.8-1.2L332.8,489.5"/>
		<path id="path1649" inkscape:connector-curvature="0" class="st2" d="M332.3,487.2c-0.1-0.3,0.2-0.6,0.7-0.8
			c0.4-0.1,0.8,0,0.8,0.2c0.1,0.3-0.2,0.7-0.7,0.8C332.8,487.5,332.4,487.4,332.3,487.2z M332.2,487.2c0.2,0.5,0.7,0.8,1.2,0.6
			c0.3-0.1,0.5-0.3,0.5-0.5c0.1-0.2,0.1-0.5,0-0.7c-0.2-0.5-0.7-0.8-1.2-0.6C332.3,486.1,332.1,486.6,332.2,487.2"/>
		<path id="path1651" inkscape:connector-curvature="0" class="st2" d="M332.1,484.3c-0.2,0-0.2,0-0.2,0.3c0,0,0,0,0,0.1
			c0,0-0.1,0-0.1-0.1c0,0,0,0,0-0.1c0-0.1,0-0.2,0-0.2c0,0,0-0.1,0-0.1c0,0,0-0.1,0-0.1c0-0.1,0-0.1,0.1-0.1c0,0,0.1,0,0.1,0.1
			c0,0.1,0.1,0.1,0.2,0.1l1.4-0.1c0.1,0,0.1,0,0.1,0.1c0,0,0,0.1-0.1,0.1l-1.3,1.2l0.9-0.1c0.2,0,0.2,0,0.3-0.1c0,0,0,0,0-0.2
			c0,0,0-0.1,0.1-0.1c0,0,0.1,0,0.1,0.1c0,0,0,0,0,0.1c0,0.1,0,0.1,0,0.2c0,0.1,0,0.1,0,0.2c0,0,0,0.1,0,0.1c0,0,0,0.1,0,0.1
			c0,0-0.1,0-0.1-0.1c0-0.1-0.1-0.1-0.4-0.1l-0.7,0.1c-0.3,0-0.2,0-0.2,0c-0.1,0-0.2,0-0.1,0.1c0,0.1,0,0.1-0.1,0.1
			c0,0-0.1,0-0.1-0.1l0-0.3l0-0.2c0-0.1,0-0.1,0-0.2l0.9-0.9L332.1,484.3"/>
		<path id="path1653" inkscape:connector-curvature="0" class="st2" d="M333.2,482.8c0.2,0,0.2,0,0.3-0.2c0,0,0,0,0.1,0
			c0,0,0.1,0,0.1,0.1l0,0c0,0,0,0,0,0.1l0,0l0,0l0,0l0,0c0,0.1,0,0.1,0,0.2c0,0.1,0,0.1,0,0.3l0,0l0,0l0,0l0,0c0,0,0,0,0,0
			c0,0,0,0.1-0.1,0.1c0,0,0,0-0.1-0.1c0-0.1-0.1-0.1-0.2-0.2l-1.2-0.1c0,0,0,0-0.1,0.1c0,0.2,0,0.2,0.2,0.4c0.1,0,0.1,0.1,0.1,0.1
			c0,0,0,0-0.1,0c0,0,0,0,0,0l-0.4-0.1c0,0-0.1,0-0.1-0.1c0,0,0,0,0-0.1c0.1,0,0.1,0,0.1-0.1l0.1-1c0-0.1,0-0.1-0.1-0.2
			c0,0,0,0,0-0.1c0,0,0-0.1,0.1,0l0.4,0.1c0.1,0,0.1,0,0.1,0.1c0,0,0,0.1-0.1,0.1c-0.2,0.1-0.3,0.1-0.3,0.3c0,0.1,0,0.1,0,0.1
			L333.2,482.8"/>
		<path id="path1655" inkscape:connector-curvature="0" class="st2" d="M332.4,481.3c-0.2-0.1-0.3-0.1-0.2-0.2
			c0-0.2,0.2-0.3,0.4-0.2c0.2,0.1,0.3,0.2,0.3,0.4c0,0.1-0.1,0.2-0.1,0.1L332.4,481.3L332.4,481.3z M333,481.4
			C333,481.4,333,481.4,333,481.4c0-0.1,0-0.1,0-0.1c0.1-0.1,0.1-0.2,0.1-0.3c0.1-0.3-0.1-0.6-0.4-0.6c-0.3-0.1-0.5,0.1-0.6,0.5
			c0,0.1,0,0.2-0.1,0.3c0,0.1,0,0.2-0.1,0.3c0,0.1,0,0.1-0.1,0.2c0,0.1,0,0.1,0,0.1c0,0,0,0,0,0c0,0,0,0.1,0,0.1c0,0,0,0,0.1,0
			c0.1-0.2,0.1-0.2,0.3-0.1l1,0.3c0.2,0,0.2,0.1,0.2,0.2c0,0.1,0,0.1,0,0.1c0,0,0.1,0,0.1-0.1c0,0,0,0,0,0l0,0l0,0l0,0l0,0
			c0-0.1,0-0.2,0.1-0.2c0-0.1,0-0.2,0.1-0.2l0,0l0,0l0,0l0,0c0-0.1,0,0,0-0.1l0,0c0,0,0-0.1,0-0.1c0,0,0,0-0.1,0
			c-0.1,0.2-0.1,0.2-0.3,0.1L333,481.4"/>
		<path id="path1657" inkscape:connector-curvature="0" class="st2" d="M333.9,479.9c0.2,0.1,0.3,0,0.4-0.1c0.1-0.2,0.1-0.4-0.1-0.5
			c-0.1-0.1-0.1-0.1,0-0.1c0,0,0,0,0.1,0c0,0,0.1,0,0.1,0.1c0,0,0.1,0.1,0.2,0.1c0,0,0,0,0,0.1c0,0,0,0.1,0,0.1
			c0,0.1-0.1,0.2-0.2,0.4c-0.1,0.2-0.2,0.4-0.2,0.5c0,0.1,0,0.1-0.1,0.3c0,0,0,0,0,0c0,0,0,0.1-0.1,0c0,0,0,0,0-0.1
			c0-0.1,0-0.1-0.1-0.2l-1-0.4c-0.2-0.1-0.2-0.1-0.3,0.1c0,0,0,0-0.1,0c0,0,0,0,0-0.1l0,0l0,0l0,0l0,0l0,0l0,0l0,0l0,0l0,0
			c0-0.1,0.1-0.1,0.1-0.3c0-0.1,0.1-0.2,0.1-0.3c0.2-0.5,0.1-0.3,0.2-0.5l0,0c0,0,0,0,0.1,0l0.1,0l0.2,0.1c0.1,0,0.1,0,0.1,0.1
			c0,0,0,0-0.1,0c-0.2,0-0.3,0.1-0.3,0.2c-0.1,0.2-0.1,0.2,0,0.3l0.4,0.2c0.1,0,0.1,0,0.1,0c0.1-0.3,0.1-0.3,0-0.4
			c-0.1,0-0.1-0.1-0.1-0.1c0,0,0,0,0.1,0l0.2,0.1l0.2,0.1c0,0,0.1,0,0,0.1c0,0,0,0-0.1,0c-0.1,0-0.2,0-0.3,0.1l0,0
			c-0.1,0.2-0.1,0.2,0,0.2L333.9,479.9"/>
		<path id="path1659" inkscape:connector-curvature="0" class="st2" d="M333.6,478.4c-0.2-0.1-0.2-0.1-0.3,0c0,0,0,0-0.1,0
			c0,0,0,0,0-0.1c0,0,0,0,0,0l0,0l0,0l0,0l0,0l0,0l0,0l0,0c0-0.1,0.1-0.1,0.1-0.2c0.1-0.1,0.1-0.1,0.1-0.2l0,0l0,0l0,0l0,0
			c0,0,0,0,0,0c0,0,0.1,0,0.1,0c0,0,0,0,0,0.1c0,0.1,0,0.1,0.1,0.2l0.9,0.6c0.1,0.1,0.2,0.1,0.3,0c0.1-0.2,0.1-0.3,0-0.5
			c0-0.1,0-0.1,0-0.1c0,0,0,0,0.1,0c0,0,0.1,0.1,0.1,0.1c0,0,0.1,0.1,0.1,0.1c0,0,0,0,0,0.1l0,0c0,0.1,0,0.1-0.1,0.2
			c-0.1,0.1-0.1,0.2-0.2,0.4c-0.1,0.2-0.2,0.3-0.3,0.4c0,0.1,0,0.1,0,0.1c0,0,0,0,0,0c0,0-0.1,0-0.1,0c0,0,0,0,0-0.1
			c0-0.1,0-0.1-0.1-0.2L333.6,478.4"/>
		<path id="path1661" inkscape:connector-curvature="0" class="st2" d="M334.5,477c-0.1-0.1-0.2-0.1-0.3,0c0,0,0,0-0.1,0
			c0,0,0-0.1,0-0.1c0,0,0,0,0,0l0,0l0,0l0,0l0,0l0,0l0,0l0,0c0-0.1,0.1-0.1,0.2-0.2c0.1-0.1,0.1-0.1,0.2-0.2l0,0l0,0l0,0l0,0
			c0,0,0,0,0,0c0,0,0.1,0,0.1,0c0,0,0,0,0,0.1c-0.1,0.1,0,0.1,0.1,0.3l0.8,0.7c0.1,0.1,0.2,0.1,0.3,0c0.1-0.1,0.2-0.3,0.1-0.5
			c0-0.1,0-0.1,0-0.1c0,0,0,0,0.1,0c0,0,0.1,0.1,0.1,0.1c0,0,0.1,0.1,0.1,0.1c0,0,0,0.1,0,0.1l0,0c-0.1,0.1-0.1,0.1-0.2,0.2
			c-0.1,0.1-0.2,0.2-0.3,0.3c-0.1,0.1-0.2,0.2-0.3,0.4c0,0,0,0.1-0.1,0.1c0,0,0,0,0,0c0,0-0.1,0-0.1,0c0,0,0,0,0-0.1
			c0.1-0.1,0-0.1-0.1-0.2L334.5,477"/>
		<path id="path1663" inkscape:connector-curvature="0" class="st2" d="M336.7,476.3c0.1,0.1,0.1,0.1,0.3,0c0,0,0.1,0,0.1,0
			c0,0,0,0.1,0,0.1l0,0c0,0,0,0-0.1,0l0,0l0,0l0,0l0,0c-0.1,0-0.1,0.1-0.2,0.1c-0.1,0.1-0.1,0.1-0.3,0.2c0,0,0,0,0,0
			c0,0-0.1,0-0.1,0c0,0,0,0,0-0.1c0.1-0.1,0.1-0.1,0-0.3l-0.7-0.8c-0.1-0.1-0.1-0.1-0.3,0c0,0-0.1,0-0.1,0c0,0,0-0.1,0-0.1
			c0,0,0,0,0,0l0,0l0,0l0,0l0,0l0,0l0,0l0,0c0,0,0.1-0.1,0.2-0.1c0.1-0.1,0.1-0.1,0.3-0.3c0,0,0,0,0,0c0,0,0.1,0,0.1,0
			c0,0,0,0,0,0.1c-0.1,0.1-0.1,0.1,0,0.3L336.7,476.3"/>
		<path id="path1665" inkscape:connector-curvature="0" class="st2" d="M337.4,475.7c0.1,0.2,0.2,0.2,0.4,0.1
			c0.2-0.1,0.3-0.3,0.2-0.5c0-0.1,0-0.1,0-0.1c0,0,0.1,0,0.1,0c0,0,0,0.1,0.1,0.1c0,0.1,0,0.1,0.1,0.2c0,0,0,0,0,0.1c0,0,0,0-0.1,0
			c-0.1,0.1-0.2,0.1-0.4,0.2c-0.1,0.1-0.3,0.2-0.4,0.3c-0.1,0.1-0.1,0-0.2,0.2c0,0,0,0,0,0c0,0-0.1,0-0.1,0c0,0,0,0,0.1-0.1
			c0.1-0.1,0.1-0.1,0-0.3l-0.6-0.9c-0.1-0.2-0.1-0.2-0.3-0.1c0,0-0.1,0-0.1,0c0,0,0-0.1,0-0.1l0,0l0,0l0,0l0,0l0,0l0,0l0,0l0,0l0,0
			c0.1,0,0.1-0.1,0.3-0.2c0.1-0.1,0.2-0.1,0.3-0.2c0.4-0.3,0.3-0.2,0.4-0.3l0,0c0,0,0,0,0.1,0l0.1,0.1l0.1,0.1c0,0.1,0,0.1,0,0.1
			c0,0,0,0-0.1,0c-0.2-0.1-0.3-0.1-0.4,0c-0.2,0.1-0.2,0.2-0.2,0.2l0.2,0.3c0,0.1,0.1,0.1,0.1,0c0.2-0.2,0.3-0.2,0.2-0.3
			c0-0.1,0-0.1,0-0.1c0,0,0.1,0,0.1,0l0.1,0.2l0.1,0.2c0,0,0,0.1,0,0.1c0,0-0.1,0-0.1,0c-0.1-0.1-0.2-0.1-0.3,0l0,0
			c-0.1,0.1-0.1,0.1-0.1,0.2L337.4,475.7"/>
		<path id="path1667" inkscape:connector-curvature="0" class="st2" d="M338.4,473.9c0-0.1,0-0.2,0.1-0.2c0.2-0.1,0.3,0,0.4,0.2
			c0.1,0.2,0,0.4-0.2,0.5c-0.1,0-0.1,0-0.1-0.1L338.4,473.9L338.4,473.9z M337.9,473.8L337.9,473.8L337.9,473.8L337.9,473.8
			L337.9,473.8l-0.1,0l0,0c0,0,0,0,0,0c0,0-0.1,0,0,0.1c0,0,0,0,0.1,0c0.2,0,0.2,0,0.3,0.1l0.4,1c0.1,0.1,0.1,0.2,0,0.3
			c-0.1,0.1-0.1,0.1-0.1,0.1c0,0,0,0,0.1,0c0,0,0,0,0,0l0,0l0,0l0,0l0,0c0.1,0,0.2-0.1,0.2-0.1c0.1,0,0.1-0.1,0.2-0.1l0,0l0,0l0,0
			l0,0c0.1,0,0,0,0.1,0l0,0c0,0,0.1,0,0-0.1c0,0,0,0-0.1,0c-0.2,0-0.2,0-0.3-0.1l-0.2-0.4c0,0,0-0.1,0-0.1c0.1,0,0.1,0,0.3,0.1
			l0.5,0.4c0,0,0.1,0,0.1,0c0,0,0,0,0,0c0,0,0.1,0,0.1-0.1c0,0,0.1,0,0.1,0l0.2-0.1c0,0,0.1,0,0-0.1c0,0,0,0-0.1,0
			c-0.1,0-0.1,0-0.2-0.1l-0.4-0.3c-0.1-0.1-0.2-0.1-0.3-0.1c0.3-0.2,0.4-0.3,0.3-0.6c-0.1-0.2-0.4-0.3-0.6-0.2
			c-0.1,0-0.2,0.1-0.3,0.1c-0.1,0.1-0.2,0.1-0.3,0.1C338,473.8,338,473.8,337.9,473.8L337.9,473.8"/>
		<path id="path1669" inkscape:connector-curvature="0" class="st2" d="M342.1,473.1C342.2,473.1,342.2,473.1,342.1,473.1l0-0.5
			c0-0.2,0-0.3-0.3-0.3c0,0-0.1,0-0.1-0.1c0,0,0-0.1,0.1-0.1c0,0,0,0,0,0l0,0h0l0,0l0,0h0l0,0c0.1,0,0.2,0,0.3,0c0.1,0,0.2,0,0.3,0
			l0,0l0,0l0,0l0,0c0,0,0,0,0.1,0c0.1,0,0.1,0,0.1,0.1c0,0,0,0.1-0.1,0.1c-0.1,0-0.2,0.1-0.1,0.3l0.1,1.4c0,0.2,0,0.3,0.3,0.3
			c0,0,0.1,0,0.1,0.1c0,0,0,0.1-0.1,0.1l0,0c-0.1,0-0.1,0-0.2,0c-0.1,0-0.2,0-0.3,0c-0.2,0-0.2,0-0.5,0.1c0,0,0,0-0.1,0
			c-0.1,0-0.1,0-0.1-0.1c0,0,0-0.1,0.1-0.1c0.1,0,0.2-0.1,0.1-0.3l-0.1-0.6c0-0.1,0-0.1-0.1-0.1l-0.7,0.1c-0.1,0-0.1,0-0.1,0.1
			l0.1,0.6c0,0.2,0,0.3,0.3,0.3c0,0,0.1,0,0.1,0.1c0,0,0,0.1-0.1,0.1l0,0c-0.1,0-0.1,0-0.2,0c-0.1,0-0.2,0-0.3,0
			c-0.2,0-0.2,0-0.5,0.1c0,0,0,0-0.1,0c-0.1,0-0.1,0-0.1-0.1c0,0,0-0.1,0.1-0.1c0.1,0,0.2-0.1,0.1-0.3l-0.1-1.4c0-0.2,0-0.3-0.3-0.3
			c0,0-0.1,0-0.1-0.1c0,0,0-0.1,0.1-0.1c0,0,0,0,0,0l0,0l0,0h0l0,0l0,0h0l0,0c0.1,0,0.2,0,0.3,0c0.2,0,0.2,0,0.5-0.1c0,0,0,0,0.1,0
			c0.1,0,0.1,0,0.1,0.1c0,0,0,0.1-0.1,0.1c-0.1,0-0.2,0.1-0.1,0.3l0,0.4c0,0.1,0,0.1,0.1,0.1L342.1,473.1"/>
		<path id="path1671" inkscape:connector-curvature="0" class="st2" d="M344.2,473.2c0.1,0,0.2,0.1,0.2,0.2c0,0.1-0.1,0.2-0.4,0.1
			c-0.1,0-0.1,0-0.1-0.1C343.8,473.3,344,473.2,344.2,473.2z M344.6,473.7c0.1,0,0.1,0,0.1-0.1c0-0.3-0.2-0.5-0.6-0.5
			c-0.4,0-0.8,0.2-0.8,0.6c0,0.4,0.3,0.7,0.7,0.8c0.2,0,0.4,0,0.6-0.1c0.1,0,0.1-0.1,0.1-0.1c0,0,0,0,0,0c0,0,0,0-0.1,0
			c-0.1,0.1-0.2,0.1-0.3,0.1c-0.3,0-0.5-0.3-0.4-0.6c0-0.1,0-0.1,0.1-0.1L344.6,473.7L344.6,473.7z M344,472.9
			C344,473,344,473,344,472.9C344,473,344,473,344,472.9l0.6-0.2c0,0,0,0,0,0c0,0,0,0,0,0l-0.1-0.1c0,0,0,0,0,0c0,0,0,0-0.1,0
			L344,472.9C343.9,472.9,343.9,472.9,344,472.9C343.9,472.9,343.9,472.9,344,472.9L344,472.9"/>
		<path id="path1673" inkscape:connector-curvature="0" class="st2" d="M345,473.8c0-0.1,0-0.2-0.1-0.2c0,0-0.1,0-0.1-0.1
			c0,0,0,0,0.2,0c0.1,0,0.3-0.1,0.4-0.1c0.1,0,0.1,0,0.1,0c0,0,0,0,0,0.1l0,0.2c0,0,0,0,0,0c0,0,0,0,0,0c0.1-0.1,0.3-0.1,0.4-0.1
			c0.1,0,0.2,0.2,0.2,0.3c0,0.1-0.2,0.2-0.3,0.2c-0.1,0-0.1-0.1-0.2-0.1c0-0.1,0-0.1-0.1-0.1c0,0-0.1,0-0.1,0.1
			c0,0.1-0.1,0.1-0.1,0.3l-0.1,0.3c-0.1,0.2,0,0.2,0.1,0.3c0,0,0.1,0,0,0.1c0,0,0,0-0.1,0c0,0,0,0,0,0c-0.1,0-0.2-0.1-0.3-0.1
			c-0.1,0-0.2,0-0.3-0.1c0,0,0,0,0,0c-0.1,0-0.1,0-0.1-0.1c0,0,0,0,0.1,0c0.2,0,0.2,0,0.2-0.2L345,473.8"/>
		<path id="path1675" inkscape:connector-curvature="0" class="st2" d="M346.8,474.7c0,0.1-0.1,0.1-0.1,0.2c-0.1,0-0.2,0-0.2,0
			c-0.1,0-0.1-0.1-0.1-0.2c0-0.1,0.1-0.1,0.2-0.1c0.1,0,0.2,0,0.3,0c0,0,0,0,0,0L346.8,474.7L346.8,474.7z M346.9,474.4
			c0,0,0,0-0.1,0l-0.1,0l-0.1,0l-0.1,0c-0.1,0-0.2,0-0.3,0c-0.2,0-0.3,0.1-0.3,0.2c-0.1,0.2,0,0.3,0.2,0.4c0.1,0,0.2,0,0.2,0
			c0.1,0,0.1,0,0.3-0.1c0,0,0,0,0,0c0,0,0,0,0,0l0,0.1c0,0,0,0,0,0c0,0.1,0.1,0.1,0.1,0.1c0.1,0,0.2,0,0.3,0c0.1,0,0.1,0,0.1-0.1
			c0,0,0,0,0-0.1c0,0,0,0,0,0c-0.1,0-0.1,0-0.1,0c0,0,0-0.1,0-0.2l0.3-0.7c0.1-0.2,0-0.3-0.3-0.5c-0.2-0.1-0.4-0.1-0.6-0.1
			c-0.1,0-0.2,0.1-0.3,0.2c0,0,0,0.1,0,0.1c0.1,0,0.2,0,0.2,0c0.1,0,0.1,0,0.2-0.1c0.1-0.1,0.2-0.1,0.3-0.1c0.1,0,0.1,0.1,0,0.3
			L346.9,474.4"/>
		<path id="path1677" inkscape:connector-curvature="0" class="st2" d="M347.7,474.7c0.1-0.2,0.1-0.2,0-0.3c0,0,0-0.1,0-0.1
			c0,0,0.1,0,0.1,0c0,0,0,0,0,0l0.1,0l0,0c0.1,0.1,0.1,0.1,0.2,0.1l0.1,0.1c0,0,0.1,0,0.1,0c0,0,0,0,0,0.1l-0.4,0.6
			c-0.1,0.2-0.1,0.3,0,0.3c0.1,0,0.2,0.1,0.2,0c0,0,0.1,0,0.1-0.1l0.3-0.5c0.1-0.2,0.1-0.2,0-0.3c0,0,0-0.1,0-0.1c0,0,0.1,0,0.1,0
			c0,0,0,0,0,0l0,0l0,0l0,0c0.1,0,0.1,0.1,0.1,0.1c0,0,0.1,0,0.1,0.1l0.1,0c0,0,0,0,0,0.1l-0.4,0.7c-0.1,0.1-0.1,0.2,0,0.2
			c0,0,0,0,0,0.1c0,0-0.1,0-0.1,0c-0.1,0-0.2-0.1-0.3-0.1c-0.1,0-0.1,0-0.1,0c0,0,0,0,0-0.1l0.1-0.1c0,0,0,0,0-0.1c0,0,0,0-0.1,0
			c-0.2,0-0.3,0-0.4-0.1c-0.2-0.1-0.3-0.4-0.1-0.6L347.7,474.7"/>
		<path id="path1679" inkscape:connector-curvature="0" class="st2" d="M349.2,476.4c-0.1,0.2-0.1,0.2,0,0.3c0,0,0,0.1,0,0.1
			c0,0-0.1,0-0.1,0c0,0,0,0,0,0c-0.1-0.1-0.2-0.2-0.2-0.2c0,0-0.1-0.1-0.2-0.2c0,0,0,0,0,0c0,0-0.1-0.1,0-0.1c0,0,0,0,0.1,0
			c0.1,0.1,0.2,0.1,0.3-0.1l0.8-0.9c0.1-0.1,0.1-0.1,0-0.3c0,0,0,0,0-0.1c0,0,0.1,0,0.2,0c0.1,0.1,0.2,0.1,0.4,0.2c0,0,0,0,0,0
			c0,0,0,0,0,0.1L349.2,476.4"/>
		<path id="path1681" inkscape:connector-curvature="0" class="st2" d="M349.9,476.1c0.1-0.1,0.1-0.1,0-0.1l-0.1-0.1
			c0,0,0-0.1,0-0.1c0,0,0.1,0,0.1,0c0.2,0.1,0.3,0.1,0.5,0c0.1,0,0.1,0,0.1,0c0,0,0,0,0,0.1l-0.2,0.2c0,0-0.1,0.1,0,0.1l0.1,0.1
			c0,0,0,0.1,0,0.1c0,0-0.1,0-0.1,0l-0.1-0.1c0,0-0.1,0-0.1,0l-0.4,0.4c-0.2,0.2-0.2,0.3-0.1,0.3c0,0,0.1,0,0.1,0c0.1,0,0.1,0,0.1,0
			c0,0,0,0,0,0.1c0,0-0.1,0-0.2,0c-0.1,0-0.3-0.1-0.3-0.2c-0.2-0.2-0.2-0.3,0-0.5L349.9,476.1"/>
		<path id="path1683" inkscape:connector-curvature="0" class="st2" d="M352.4,478.1c0,0-0.1,0-0.1,0c0,0,0-0.1,0-0.1
			c0.2-0.2,0.2-0.4,0.1-0.6c-0.1-0.2-0.3-0.3-0.5-0.2c-0.1,0.1-0.1,0.2-0.1,0.3c0,0,0,0.1,0,0.1l0,0.1l0,0.1l0,0.1
			c0.1,0.4,0,0.7-0.2,0.9c-0.4,0.3-0.9,0.1-1.2-0.3c-0.1-0.2-0.3-0.5-0.2-0.7c0,0,0,0,0.1-0.1c0,0,0,0,0.1-0.1
			c0.1,0,0.1-0.1,0.1-0.1c0.1-0.1,0.2-0.1,0.2,0c0,0,0,0.1,0,0.1c0,0,0,0-0.1,0.1c-0.1,0.2-0.1,0.4,0,0.6c0.2,0.2,0.4,0.3,0.6,0.2
			c0.1-0.1,0.2-0.2,0.1-0.4c0-0.1,0-0.1-0.1-0.3c-0.1-0.5-0.1-0.7,0.2-0.9c0.3-0.2,0.8-0.1,1.1,0.4c0.1,0.1,0.2,0.3,0.2,0.4
			c0,0,0,0.1-0.1,0.1L352.4,478.1"/>
		<path id="path1685" inkscape:connector-curvature="0" class="st2" d="M352.2,479.4c0.1,0,0.1,0,0.1,0c0.1,0,0.1,0.1,0.2,0.1
			c0.1,0.2-0.1,0.4-0.3,0.5c-0.3,0.1-0.5,0.1-0.6-0.1c-0.1-0.1,0-0.2,0.2-0.3L352.2,479.4z M351.3,479.8
			C351.4,479.8,351.4,479.8,351.3,479.8C351.4,479.8,351.4,479.8,351.3,479.8c0.1,0.1,0.1,0.2,0.1,0.3c0.2,0.4,0.6,0.5,0.9,0.4
			c0.3-0.1,0.5-0.5,0.4-0.8c0-0.1-0.1-0.1-0.2-0.2c-0.2-0.1-0.2-0.1-0.2-0.1c0,0,0,0,0,0l0.1-0.1c0,0,0,0,0-0.1c0,0,0,0-0.1-0.1
			c-0.1,0-0.2-0.1-0.3-0.2c-0.1-0.1-0.1-0.1-0.1-0.1c0,0,0,0,0,0.1c0,0.2,0,0.2-0.1,0.2l-1,0.5c-0.2,0.1-0.2,0.1-0.3,0
			c-0.1-0.1-0.1-0.1-0.1-0.1c0,0,0,0,0,0.1c0,0,0,0,0,0l0,0l0,0l0,0l0,0c0.1,0.1,0.1,0.2,0.1,0.2c0,0.1,0.1,0.1,0.1,0.2l0,0l0,0l0,0
			l0,0l0,0l0,0l0,0c0,0,0,0,0,0c0,0,0,0.1,0.1,0c0,0,0,0,0-0.1c0-0.2,0-0.2,0.1-0.3L351.3,479.8"/>
		<path id="path1687" inkscape:connector-curvature="0" class="st2" d="M353.2,481.2c0.1,0.2-0.2,0.4-0.5,0.5
			c-0.3,0.1-0.6,0-0.6-0.2c0-0.2,0.2-0.4,0.6-0.5C352.9,480.9,353.1,481,353.2,481.2L353.2,481.2z M353.3,481.2
			c-0.1-0.5-0.5-0.7-0.9-0.6c-0.4,0.1-0.6,0.5-0.5,0.9c0.1,0.5,0.5,0.7,0.9,0.6C353.2,482,353.4,481.6,353.3,481.2"/>
		<path id="path1689" inkscape:connector-curvature="0" class="st2" d="M353,482.5c0.2,0,0.2,0,0.2-0.2c0,0,0-0.1,0-0.1
			c0,0,0,0,0.1,0.1c0,0.1,0.1,0.2,0.2,0.3c0,0,0.1,0.1,0.1,0.1c0,0,0,0,0,0l-0.2,0c0,0,0,0,0,0c0,0,0,0,0,0c0.1,0.1,0.2,0.2,0.2,0.4
			c0,0.1-0.1,0.3-0.2,0.3c-0.1,0-0.2-0.1-0.3-0.2c0-0.1,0-0.1,0.1-0.2c0-0.1,0.1-0.1,0.1-0.1c0,0,0-0.1-0.1-0.1c-0.1,0-0.1,0-0.3,0
			l-0.4,0c-0.2,0-0.2,0-0.2,0.2c0,0,0,0.1-0.1,0.1c0,0-0.1,0-0.1-0.1c0,0,0,0,0-0.1c0-0.1,0-0.2,0-0.3c0-0.1,0-0.2,0-0.3
			c0,0,0,0,0,0c0-0.1,0-0.1,0-0.1c0,0,0.1,0,0.1,0.1c0,0.2,0.1,0.2,0.3,0.1L353,482.5"/>
		<path id="path1691" inkscape:connector-curvature="0" class="st2" d="M353.3,483.8c0.1,0,0.1,0,0.1,0l0-0.1c0,0,0-0.1,0-0.1
			c0,0,0,0,0.1,0.1c0.1,0.2,0.2,0.3,0.3,0.4c0.1,0,0.1,0.1,0.1,0.1c0,0,0,0.1-0.1,0.1l-0.2,0c-0.1,0-0.1,0-0.1,0.1l0,0.2
			c0,0.1,0,0.1-0.1,0.1c-0.1,0-0.1,0-0.1-0.1l0-0.2c0-0.1,0-0.1-0.1-0.1l-0.5,0c-0.3,0-0.4,0-0.4,0.1c0,0,0,0.1,0,0.1
			c0,0.1,0,0.1,0,0.1c0,0,0,0,0,0c0,0-0.1,0-0.1-0.1c-0.1-0.1-0.1-0.2-0.1-0.4c0-0.2,0.1-0.3,0.4-0.3L353.3,483.8"/>
		<path id="path1693" inkscape:connector-curvature="0" class="st2" d="M352,487.3c-0.1,0-0.1-0.1-0.2-0.1c-0.1-0.2-0.1-0.5,0-0.7
			c0.1-0.3,0.2-0.6,0.4-0.7c0.3-0.3,0.7-0.4,1.1-0.3c0.7,0.2,1,0.9,0.8,1.7c0,0.2-0.1,0.4-0.2,0.5c0,0-0.1,0.1-0.1,0.1l-0.3,0
			c0,0,0,0-0.1,0c0,0-0.1,0-0.1-0.1c0,0,0-0.1,0.1-0.1c0.3-0.1,0.4-0.2,0.4-0.4c0.1-0.5-0.2-0.9-0.8-1c-0.6-0.1-1.1,0.1-1.2,0.5
			c-0.1,0.3,0,0.5,0.3,0.7c0,0,0.1,0.1,0.1,0.1c0,0-0.1,0.1-0.1,0L352,487.3"/>
		<path id="path1695" inkscape:connector-curvature="0" class="st2" d="M351.7,487.9c-0.2-0.1-0.2-0.1-0.3,0.1c0,0-0.1,0-0.1,0
			c0,0,0,0,0-0.1c0,0,0,0,0,0c0.1-0.1,0.1-0.2,0.1-0.3c0,0,0.1-0.2,0.1-0.3c0,0,0,0,0,0c0-0.1,0.1-0.1,0.1-0.1c0,0,0,0,0,0.1
			c0,0.2,0,0.2,0.2,0.2l1.1,0.5c0.1,0.1,0.2,0.1,0.2-0.1c0,0,0,0,0.1,0c0,0,0,0,0,0.2c0,0.1,0,0.2-0.1,0.4c0,0,0,0,0,0
			c0,0,0,0-0.1,0L351.7,487.9"/>
		<path id="path1697" inkscape:connector-curvature="0" class="st2" d="M352.1,488.5c0.2,0.1,0.2,0.1,0.3,0c0,0,0.1,0,0.1,0
			c0,0,0,0.1,0,0.1c0,0,0,0,0,0l0,0.1l0,0c0,0.1-0.1,0.1-0.1,0.2l-0.1,0.1c0,0,0,0.1,0,0.1c0,0,0,0-0.1,0l-0.7-0.4
			c-0.2-0.1-0.3-0.1-0.3,0c0,0.1,0,0.2,0,0.2c0,0,0,0.1,0.1,0.1l0.5,0.3c0.2,0.1,0.2,0.1,0.3,0c0,0,0.1,0,0.1,0c0,0,0,0.1,0,0.1
			c0,0,0,0,0,0l0,0l0,0l0,0c0,0.1-0.1,0.1-0.1,0.1c0,0,0,0.1-0.1,0.1l0,0.1c0,0,0,0-0.1,0l-0.7-0.4c-0.1-0.1-0.2-0.1-0.2,0
			c0,0,0,0-0.1,0c0,0,0-0.1,0-0.1c0-0.1,0.1-0.2,0.1-0.3c0-0.1,0-0.1,0-0.1c0,0,0,0,0.1,0l0.1,0.1c0,0,0,0,0.1,0c0,0,0,0,0-0.1
			c0-0.2,0-0.3,0.1-0.4c0.1-0.2,0.4-0.3,0.6-0.1L352.1,488.5"/>
		<path id="path1699" inkscape:connector-curvature="0" class="st2" d="M350.9,490.4C350.9,490.4,350.9,490.5,350.9,490.4
			c0.1,0.1,0,0.2,0,0.2c-0.1,0.2-0.4,0.1-0.7-0.1c-0.2-0.2-0.3-0.5-0.2-0.6c0,0,0.1-0.1,0.2-0.1c0.1,0,0.1,0,0.2,0.1L350.9,490.4
			L350.9,490.4z M351.5,491c0.1,0.1,0.1,0.1,0.1,0c0,0,0,0,0.1-0.1c0.1-0.2,0.1-0.2,0.2-0.3c0-0.1,0.1-0.1,0-0.1c0,0,0,0-0.1,0
			c-0.1,0.1-0.1,0.1-0.2,0l-1.1-0.9c-0.1,0-0.1-0.1-0.1-0.1c0,0,0,0,0,0c0,0-0.1,0-0.1,0c0,0,0,0,0,0.1c0,0.1,0,0.1,0,0.2
			c0,0,0,0,0,0c-0.2,0.1-0.3,0.1-0.4,0.2c-0.3,0.4-0.3,0.8,0,1.1c0.3,0.2,0.7,0.2,0.9-0.1c0.1-0.1,0.1-0.1,0.1-0.2
			c0-0.1,0-0.1,0-0.1c0,0,0,0,0,0c0,0,0,0,0.1,0L351.5,491"/>
		<path id="path1701" inkscape:connector-curvature="0" class="st2" d="M340.7,494.6c-0.1,0.2,0,0.3,0.1,0.3c0.1,0,0.1,0.1,0.1,0.1
			c0,0-0.1,0.1-0.1,0c0,0,0,0-0.1,0c-0.1-0.1-0.3-0.1-0.4-0.1c-0.1,0-0.3-0.1-0.4-0.1c0,0-0.1,0-0.1,0c-0.1,0-0.1,0-0.1-0.1
			c0,0,0.1-0.1,0.1,0c0.2,0.1,0.3,0,0.3-0.1l0.3-1.1c0-0.1,0-0.2,0-0.2c0,0,0,0,0,0l-0.2,0c0,0-0.1,0-0.1,0c0,0-0.1,0,0-0.1
			c0,0,0.1-0.1,0.2-0.1c0.3,0,0.5,0,0.7,0c0,0,0,0,0.1,0c0,0,0,0,0,0.1L340.7,494.6"/>
		<path id="path1703" inkscape:connector-curvature="0" class="st2" d="M341.7,493.8c0,0.3,0.1,0.6,0.3,0.7c0,0,0.1,0,0.1,0
			c0,0,0,0,0,0c0,0,0,0,0,0c0,0.1-0.2,0.1-0.4,0.1c-0.3,0-0.5-0.3-0.5-0.6c0-0.4,0.4-0.6,0.8-0.6c0.4,0,0.7,0.4,0.7,0.9
			c0,0.5-0.4,0.9-0.9,1.1c-0.1,0.1-0.3,0.1-0.5,0.1c0,0-0.1,0-0.1,0c0,0-0.1,0-0.1-0.1c0,0,0,0,0.1-0.1c0.5-0.1,0.9-0.6,1-1.1
			c0-0.4-0.1-0.8-0.3-0.8C341.8,493.4,341.7,493.5,341.7,493.8"/>
		<path id="path1705" inkscape:connector-curvature="0" class="st2" d="M343.9,494.1c0,0,0-0.1,0.1-0.2c0,0,0-0.1,0-0.1c0,0,0,0,0,0
			l-0.8,0.1c-0.1,0-0.1,0-0.1,0c0,0-0.1,0-0.1,0c0,0-0.1,0-0.1-0.1c0,0,0-0.1,0-0.1c0,0,0-0.1,0-0.1c0-0.1,0-0.1,0-0.1
			c0,0,0,0,0.1,0c0.1,0,0.2,0,0.4,0l0.9-0.1c0.1,0,0.1,0,0.1,0c0,0,0,0-0.1,0.2c0,0,0,0,0,0l-0.1,0.2l-0.1,0.2l-0.1,0.2
			c-0.1,0.2-0.2,0.5-0.3,0.9c0,0.1-0.1,0.2-0.1,0.3c0,0.1,0,0.1-0.1,0.1l0,0c0,0,0,0,0,0c-0.1,0-0.1,0-0.1,0c0,0,0,0,0,0
			c0,0,0,0,0,0L343.9,494.1"/>
		<path id="path1707" inkscape:connector-curvature="0" class="st2" d="M345.8,494.6c0,0.1,0.1,0.2,0.2,0.1c0,0,0.1,0,0.1,0
			c0,0,0,0.1-0.1,0.1l-0.4,0.1c0,0-0.1,0-0.2,0.1c0,0-0.1,0-0.1,0c-0.1,0-0.1,0-0.1,0c0,0,0-0.1,0.1-0.1c0.1,0,0.1-0.1,0.1-0.2
			l-0.1-0.2c0-0.1,0-0.1-0.1-0.1l-0.6,0.1c-0.1,0-0.1,0-0.1-0.1c0,0,0-0.1,0-0.1l0.6-1.5c0-0.1,0-0.1,0.2-0.1c0,0,0,0,0,0
			c0,0,0,0-0.1,0.2c-0.1,0.2-0.2,0.4-0.3,0.6l-0.2,0.6c-0.1,0.2-0.1,0.2-0.1,0.2c0,0,0,0,0,0c0,0,0,0,0.1,0l0.4-0.1
			c0.1,0,0.1,0,0.1-0.1l-0.1-0.4c0-0.1,0-0.1,0-0.1c0,0,0,0,0,0c0.2-0.1,0.1-0.1,0.2-0.1c0,0,0,0,0.1,0c0,0,0,0,0,0c0,0,0,0,0,0
			l0.1,0.6c0,0.1,0,0.1,0.1,0.1l0.2,0c0.1,0,0.1,0,0.1,0.1c0,0.1,0,0.1,0,0.1l-0.2,0c-0.1,0-0.1,0,0,0.1L345.8,494.6"/>
		<path id="path1709" inkscape:connector-curvature="0" class="st2" d="M338.5,493.1l-1.1,0l-0.5-1l1.1,0L338.5,493.1"/>
		<path id="path1711" inkscape:connector-curvature="0" class="st2" d="M347.2,493.1l1.1,0l0.5-1l-1.1,0L347.2,493.1"/>
	</g>
</g>
</svg>
