<?xml version="1.0" encoding="utf-8"?>
<!-- Generator: Adobe Illustrator 26.0.2, SVG Export Plug-In . SVG Version: 6.00 Build 0)  -->
<svg version="1.1"
	 id="svg2" xmlns:cc="http://creativecommons.org/ns#" xmlns:dc="http://purl.org/dc/elements/1.1/" xmlns:inkscape="http://www.inkscape.org/namespaces/inkscape" xmlns:rdf="http://www.w3.org/1999/02/22-rdf-syntax-ns#" xmlns:sodipodi="http://sodipodi.sourceforge.net/DTD/sodipodi-0.dtd" xmlns:svg="http://www.w3.org/2000/svg"
	 xmlns="http://www.w3.org/2000/svg" xmlns:xlink="http://www.w3.org/1999/xlink" x="0px" y="0px" width="606px" height="714px"
	 viewBox="0 0 606 714" style="enable-background:new 0 0 606 714;" xml:space="preserve">
<style type="text/css">
	.st0{fill:#FFFFFF;}
	.st1{fill:#FF3221;}
	.st2{fill-rule:evenodd;clip-rule:evenodd;fill:#FF3221;}
	.st3{fill:#FE6947;}
	.st4{fill:none;stroke:#FFFFFF;stroke-width:0.5;stroke-miterlimit:5;}
	.st5{fill:#E9E8E7;}
	.st6{fill:#D1D4D5;}
	.st7{fill:#E22316;}
	.st8{fill:#FFD5D5;}
	.st9{fill:none;stroke:#808080;stroke-width:1.25;stroke-miterlimit:5;}
</style>
<sodipodi:namedview  bordercolor="#666666" borderopacity="1.0" fit-margin-bottom="5" fit-margin-left="5" fit-margin-right="5" fit-margin-top="5" id="base" inkscape:current-layer="g3336" inkscape:cx="36.868032" inkscape:cy="682.22707" inkscape:document-units="px" inkscape:pageopacity="0.0" inkscape:pageshadow="2" inkscape:window-height="691" inkscape:window-maximized="1" inkscape:window-width="1280" inkscape:window-x="0" inkscape:window-y="1" inkscape:zoom="2.8276527" pagecolor="#ffffff" showgrid="false">
	</sodipodi:namedview>
<g id="layer1" transform="translate(-243.23273,228.33031)" inkscape:groupmode="layer" inkscape:label="Calque 1">
	<g id="g2993" transform="matrix(1.25,0,0,-1.25,243.43012,1025.6972)" inkscape:label="clubs foot">
		<g id="g3336" transform="translate(-361.52539,52.720136)" inkscape:label="clubs foot">
			<path id="path4424" inkscape:connector-curvature="0" sodipodi:nodetypes="cccssssssscssssssccsssssssssccssc" class="st0" d="
				M601.5,948.1c-88.5-0.3-173.4-18.9-216-50.8l-0.5-0.4c-11-49.6-19.8-94.8-20.6-135.8c-0.8-41.1,2.9-78,9.9-111.1
				s17.3-62.5,29.7-88.4c12.4-25.9,27-48.4,42.4-67.9c15.4-19.5,35.4-35.9,51.4-49.6c16.1-13.8,31.9-24.9,46.2-33.7
				c14.3-8.8,27.2-15.3,37.3-19.9c10.2-4.6,17.6-7.3,21.2-8.4c5.3,1.5,14,4.5,25.1,9.6c11.1,5.1,24.6,12.1,39.4,21.5
				c14.7,9.3,30.7,21,46.8,35.2c16.1,14.2,35.8,31.1,51,50.9c15.2,19.8,29.3,42.4,41.3,68.4c12,25.9,21.8,55.1,28.3,87.9
				c6.5,32.7,9.8,69,8.7,109.2c-2.7,43.7-11,86.8-19.3,123.5c-0.2,0.7-0.3,1.5-0.5,2.2c-0.2,0.7-0.3,1.5-0.5,2.2s-0.3,1.5-0.5,2.3
				c0,0.1,0,0.2-0.1,0.3c0,0.1,0,0.2-0.1,0.3c0,0.1,0,0.2-0.1,0.3c0,0.1,0,0.2-0.1,0.3c0,0.1,0,0.2-0.1,0.3c0,0.1,0,0.2-0.1,0.3
				c0,0.1,0,0.2-0.1,0.3l-0.3,0.3c-23.7,17.7-61.5,32.1-108.4,41C677.2,945.1,639,948.1,601.5,948.1L601.5,948.1z"/>
			
				<path id="path3741" inkscape:connector-curvature="0" sodipodi:nodetypes="cssccsscccssssscssccsscssssccsccssccsssscssscscccsssscccsssccssccsccscssccssscccc" class="st1" d="
				M612.9,412.5c0.6,2.1,2.7,2.8,4.9,4c10.8,5.9,41.1,26.8,51.5,35.5c6.2,5.2,14,11.1,14.5,11.1l0-38.4l-14.3-9.8
				c-5.8-4-17.3-11.7-29-16.9l-13.2-6.3l-14.2-6L612.9,412.5z M581,406.3c-50,26.1-98.4,65-129,103.8
				c-44.5,56.3-70.9,123.3-77.5,196.2c-1.6,18.2-1.5,25.1,0.7,50c3.9,42.7,9.6,78.8,18.6,117.5l3.4,14.6l14.7,6.9
				c41.9,19.6,113.5,35.9,168.3,38.4l21.7,1v-12.4l-17.4-1c-48.9-2.9-103.7-16.7-141.8-35.4l-16.2-8l-4.2-20.9
				c-11.2-56-17.5-119.6-15-152.1c8.7-115.8,65.9-214.4,160.2-276.2c8.3-5.4,19.4-12.1,24.7-14.9l9.3-5l0.4-11.9
				C601.4,396.7,591.2,401,581,406.3L581,406.3z M692.9,434l-0.6,37.6l12.9,14.4c20.2,22.5,32,44.5,49.8,70.4l7.4,10.8
				c0-24.3-0.1-46.7-0.1-71l-12.2-13.6c-3.1-3.5-6.1-6.1-8.2-8.3c-2.1-2.3-3.9-4-5.9-5.9s-4.1-3.9-6.8-6.2s-4.5-4.4-8.6-7.8
				c-0.9-0.6-3.3-2.9-5.5-4.9s-5-4.2-7.7-6.5s-5.3-4.4-7.6-6.3c-2.3-1.9-4.1-3.8-5-4.3c-0.8-0.4-1.6-1.3-1.8-1
				C692.8,431.8,693,433.2,692.9,434L692.9,434z M772.4,590.6c0.6,5.1,1.8,8.5,4,14.6c6.6,17.8,13.2,43.7,17.3,67.1
				c7.6,44.2,2.8,116.2-12.7,190.6c-2.2,10.5-3.9,15.1-6.1,16.7c-1.3,0.9-2.1,1.9-2.5,3.8l1.5,19L807,889l2.6-10.3
				c7.3-29,15.7-79.4,19.4-116.6c7.1-70.5-10.1-146.2-47.6-210c-3.9-6.6-7.7-12.4-8.4-12.8L772.4,590.6z M754.3,889.5
				c-5,2.9-38.5,14.8-50.1,17.7l-11.2,2.9l0.5,31.3c3.1,0,41.8-7.6,55.9-11.8l11.4-3.4l-0.8-37C759.1,887.1,757.4,887.7,754.3,889.5
				z M670.6,914.9c-5.1,1.1-16.6,2.9-25.5,3.9c-8.9,1-19.7,2.3-23.9,2.8l-7.7,1l-0.7,25.4l5.8,0c3.5,0,13.5-0.4,22.6-1.2
				s17.5-0.8,27-2l14-1.8l-1.2-30.3C680.4,912.7,675.7,913.7,670.6,914.9L670.6,914.9z"/>
			<g id="g5880">
				
					<path id="path3798" inkscape:connector-curvature="0" sodipodi:nodetypes="cccccccccccccccccccccccccccccccccccccccccccccccccccccccccsssscccccccccsss" class="st1" d="
					M596.8,755.7l-5-6.4l-8.6,3.6l-3.7-8.4l-9.1,4.8c-1-2.1-0.2-5.9-1.3-7.9l-9.4,1.9l-0.6-8.5l-9,1.2l-0.7-7.3l-6.9-2.1l3-6.6
					l-6.7-3.4l3.7-5.5l-4.9-6l5.1-3.7l-5.8-6.3l8.2-2.4l-1.7-7.3l7-2l-0.1-6.6l10.1,2.6l6.2-7.9c3,2.9,6,5.7,9,8.6
					c2.9-2.8,5.9-5.6,8.8-8.4l9.1,8.2l9-7.8l0.2-0.1l0.2,0.1l8.9,7.8l9.1-8.2c2.9,2.8,5.9,5.6,8.8,8.4c3-2.9,6-5.7,9-8.6l6.2,7.9
					l10.2-2.6l-0.1,6.6l6.9,2l-1.7,7.3l8.2,2.4l-5.8,6.3l5.1,3.7l-4.8,6l3.7,5.5l-6.7,3.4l3,6.6l-6.9,2.1l-0.7,7.3l-9-1.2l-0.6,8.5
					l-9.4-1.9c-1.1,2-0.3,5.8-1.3,7.9l-9.1-3l-3.7,6.6l-8.6-3.6l-5,6.4l-6.1-5.4L596.8,755.7z M586.9,712.4h32.4
					c0.9,0,1.6-1.4,1.6-3.1s-0.7-3.1-1.6-3.1h-2.8v-8.3l-5.3,7.1l-3.6-6l-4.4,6.2l-4.4-6.2l-3.6,6l-5.3-7.1v8.3h-2.9
					c-0.9,0-1.6,1.4-1.6,3.1S586,712.4,586.9,712.4L586.9,712.4z"/>
				
					<path id="path5419" inkscape:connector-curvature="0" sodipodi:nodetypes="sscccsssssssccccccccccssssssscccsccccscccsssssccssccccccccccccccccccccssccssssscccsccccsccssccccsscc" class="st1" d="
					M491.4,710.4c-0.9,0.1-1.6-3.3-3-9.6c-3.9-18-9.2-26-24.6-37.2l-4.4-3.2l7.8-5c11.9-7.6,12.2-13.3,0.9-17.4
					c-2.9-1-5.3-2.4-5.3-3s3.8-4,8.5-7.6c18.4-14.2,20.8-22,9.7-31.5c-3.6-3-7-5.5-7.7-5.5c-4,0,0.2-3.2,10.8-8.2
					c26.9-12.8,30.6-22.8,11.9-32.4c-2.5-1.3-6.6-4.4-9-7l-4.4-4.6l9-1.1c40.5-4.9,78.3-19.1,100.7-38l10.2-8.6h0.1l10.2,8.6
					c22.4,18.9,60.2,33.1,100.7,38l9,1.1l-4.4,4.6c-2.4,2.5-6.5,5.7-9,7c-18.7,9.5-15,19.6,11.9,32.4c10.6,5,14.8,8.2,10.8,8.2
					c-0.7,0-4.2,2.5-7.7,5.5c-11.1,9.5-8.7,17.3,9.7,31.5c4.7,3.6,8.5,7.1,8.5,7.6s-2.4,1.9-5.3,3c-11.3,4.1-11,9.8,0.9,17.4l7.8,5
					l-4.4,3.2c-15.4,11.2-20.7,19.2-24.6,37.2c-2.9,13.5-2.7,13.6-8.2-4.8c-4-13.2-12.3-23.5-23.5-29.2l-7.5-3.8l7-6.5
					c13.6-12.6,15.6-24.6,4.4-26.8c-3.4-0.7-6.1,0.1-10.5,3.1l-5.9,4l1.1-12.2c1-12,1-12.3-2.9-14.8c-3.3-2.2-4.9-2.3-9.2-0.9
					c-5.6,1.9-13.6,9.5-17,16.1c-1.9,3.7-0.3,0,0.2-18c0.6-24-1.2-31.8-7.8-34.1c-5.5-1.9-12.1,2.6-14.2,9.6
					c-0.8,2.7-1.9,4.9-2.3,4.9c-1.6,0-6.3-17.1-6.3-21.4c0-2.4,1.1-7.5,2.4-11.4c3.1-9,2.4-14.8-2-17.8l-5-2.3l0,40.7v40.7l24,40.3
					l5.2,6.4l-8.5,8.1c-3-3.1-6-6.2-8.9-9.3c-3.2,3.1-6.4,6.2-9.6,9.3l-9.1-8.9h0l-9.1,8.9c-3.2-3.1-6.4-6.2-9.6-9.3
					c-3,3.1-6,6.2-8.9,9.3l-8.5-8.1l5.2-6.4l24-40.3v-40.7l0-40.7l-5,2.3c-4.4,2.9-5.1,8.8-2,17.8c1.3,3.9,2.4,9.1,2.4,11.4
					c0,4.3-4.7,21.4-6.3,21.4c-0.5,0-1.5-2.2-2.3-4.9c-2.1-7.1-8.8-11.6-14.2-9.6c-6.6,2.3-8.4,10.1-7.8,34.1
					c0.4,18.1,2,21.7,0.2,18c-3.4-6.6-11.3-14.3-17-16.1c-4.3-1.4-5.9-1.3-9.2,0.9c-3.9,2.6-4,2.9-2.9,14.8l1.1,12.2l-5.9-4
					c-4.4-3-7.1-3.8-10.5-3.1c-11.2,2.2-9.2,14.2,4.4,26.8l7,6.5l-7.5,3.8c-11.2,5.7-19.5,16-23.5,29.2
					C493.8,705.7,492.4,710.3,491.4,710.4L491.4,710.4z M595.7,655.5v-14.9l-4.9,4.9c-3.1,3.1-4.5,5.8-3.9,7.3
					c0.5,1.4,2.7,2.3,4.9,2.5L595.7,655.5z M609.7,655.5l3.9-0.3c2.1-0.2,4.3-1.1,4.9-2.5c0.6-1.6-0.8-4.2-3.9-7.3l-4.9-4.9V655.5z"
					/>
			</g>
			<g id="g5765" transform="matrix(1.2372898,0,0,1.2372898,-1013.3749,-704.09818)">
				<path id="path4991" inkscape:connector-curvature="0" sodipodi:nodetypes="cccccccc" class="st1" d="M1283.3,945.2l-4.1-3.6
					l-2.5,2.9l6.7,5.7h4.3v-17.8h-4.4V945.2z"/>
				<path id="path4993" inkscape:connector-curvature="0" class="st1" d="M1298.9,936.4c-0.2-0.1-0.5-0.1-0.7-0.1
					c-0.2,0-0.5-0.1-0.7-0.1c-1,0-1.9,0.2-2.7,0.5c-0.8,0.4-1.5,0.8-2,1.4c-0.6,0.6-1,1.3-1.3,2.1c-0.3,0.8-0.5,1.7-0.5,2.7
					c0,1.1,0.2,2,0.6,2.9c0.4,0.9,1,1.6,1.6,2.2c0.7,0.6,1.5,1.1,2.5,1.4c0.9,0.4,1.9,0.5,3,0.5c1.1,0,2.1-0.2,3-0.5
					c1-0.3,1.8-0.8,2.5-1.4c0.7-0.6,1.2-1.4,1.6-2.2c0.4-0.9,0.6-1.8,0.6-2.9c0-0.7-0.1-1.4-0.2-2c-0.1-0.6-0.3-1.2-0.6-1.7
					c-0.2-0.5-0.5-1.1-0.8-1.6c-0.3-0.5-0.6-1-0.9-1.5l-4.5-7.1h-5.3L1298.9,936.4L1298.9,936.4z M1295.4,942.8
					c0-0.9,0.3-1.7,0.9-2.3c0.6-0.6,1.4-0.9,2.4-0.9s1.8,0.3,2.4,0.9c0.6,0.6,0.9,1.4,0.9,2.3s-0.3,1.7-0.9,2.3
					c-0.6,0.6-1.4,0.9-2.4,0.9s-1.8-0.3-2.4-0.9C1295.7,944.5,1295.4,943.7,1295.4,942.8z"/>
				<path id="path4995" inkscape:connector-curvature="0" class="st1" d="M1314.9,945.5c0.2,0.1,0.5,0.1,0.7,0.1
					c0.2,0,0.5,0.1,0.7,0.1c1,0,1.9-0.2,2.7-0.5c0.8-0.4,1.5-0.8,2-1.4c0.6-0.6,1-1.3,1.3-2.2c0.3-0.8,0.5-1.7,0.5-2.6
					c0-1.1-0.2-2-0.6-2.9c-0.4-0.9-0.9-1.6-1.6-2.2c-0.7-0.6-1.5-1.1-2.5-1.5c-0.9-0.3-1.9-0.5-3-0.5c-1.1,0-2.1,0.2-3,0.5
					c-0.9,0.4-1.8,0.8-2.5,1.5c-0.7,0.6-1.2,1.4-1.6,2.2c-0.4,0.9-0.6,1.8-0.6,2.9c0,0.7,0.1,1.4,0.2,2c0.1,0.6,0.3,1.2,0.5,1.8
					c0.2,0.5,0.5,1.1,0.8,1.5c0.3,0.5,0.6,1,1,1.5l4.5,7.1h5.3L1314.9,945.5L1314.9,945.5z M1318.4,939.2c0,0.9-0.3,1.7-0.9,2.3
					c-0.6,0.6-1.4,0.9-2.4,0.9c-1,0-1.8-0.3-2.4-0.9c-0.6-0.6-0.9-1.4-0.9-2.3s0.3-1.7,0.9-2.3c0.6-0.6,1.4-0.9,2.4-0.9
					c1,0,1.8,0.3,2.4,0.9C1318.1,937.4,1318.4,938.2,1318.4,939.2z"/>
				<path id="path4997" inkscape:connector-curvature="0" sodipodi:nodetypes="cccccccccc" class="st1" d="M1334.6,945.7h-6.3v-3.8
					h-3.9v7.8h15.1v-3.9l-8.3-16.8h-5.1L1334.6,945.7z"/>
			</g>
			<g id="g5736" transform="matrix(1.2372898,0,0,1.2372898,-1013.3749,-704.09818)">
				<path id="path5003" inkscape:connector-curvature="0" sodipodi:nodetypes="ccccccccccc" class="st2" d="M1180.1,1275.8v-61
					l15.4,0v29.7l18.9-29.7h13.6v61l-15.6,0l0.2-30.1l-18.6,30.1L1180.1,1275.8z"/>
				<path id="path5005" inkscape:connector-curvature="0" sodipodi:nodetypes="ccccccccccc" class="st2" d="M1291.7,1275.8v-61
					l15.4,0v29.7l18.9-29.7h13.6v61h-15.6l0.2-30.1l-18.6,30.1L1291.7,1275.8z"/>
				<path id="path5007" inkscape:connector-curvature="0" sodipodi:nodetypes="ccccccccccccc" class="st2" d="M1254,1275.8l-21.9-61
					h15.9l2.6,8.7h19l2.6-8.7h15.9l-21.9,61H1254z M1260,1252.6l5.3-16.2h-10.7L1260,1252.6z"/>
				<path id="path5015" inkscape:connector-curvature="0" sodipodi:nodetypes="cccccccccc" class="st2" d="M1387.2,1275.8l18.4-36
					v-25h15.4v25l18.4,36h-16.7l-9.4-21.9l-9.4,21.9H1387.2z"/>
				<path id="rect5043" inkscape:connector-curvature="0" sodipodi:nodetypes="cssssssccsssscc" class="st1" d="M1377,1231.1
					c-1.3-2.3-3.1-3.8-5.2-3.8h-2.1c-3.9,0-7.1,5.3-7.1,11.9v11.1c0,6.6,3.2,11.9,7.1,11.9h2.1c1.9,0,3.6-1.3,4.9-3.3l11,9.9
					c-4.1,4.8-10.5,7.9-17.7,7.9c-12.5,0-22.6-9.3-22.6-20.8v-21.2c0-11.5,10.1-20.8,22.6-20.8c6.8,0,12.8,2.7,16.9,7L1377,1231.1z"
					/>
			</g>
			<g id="g5743" transform="matrix(1.2372898,0,0,1.2372898,-1013.3749,-704.09818)">
				<path id="rect5045" inkscape:connector-curvature="0" class="st1" d="M1234.6,1206.9c-3.9,0-7-2.9-7-6.5v-6.6
					c0-3.6,3.1-6.5,7-6.5c3.9,0,7,2.9,7,6.5v6.6C1241.6,1204,1238.5,1206.9,1234.6,1206.9z M1234.5,1202.4h0.7
					c1.2,0,2.2-1.7,2.2-3.7v-3.5c0-2.1-1-3.7-2.2-3.7h-0.7c-1.2,0-2.2,1.7-2.2,3.7v3.5C1232.3,1200.7,1233.3,1202.4,1234.5,1202.4z"
					/>
				<path id="path5053" inkscape:connector-curvature="0" sodipodi:nodetypes="ccccccccccccc" class="st2" d="M1317.3,1206.9
					l-7-19.5h5.1l0.8,2.8h6.1l0.8-2.8h5.1l-7,19.5H1317.3z M1319.2,1199.4l1.7-5.2h-3.4L1319.2,1199.4z"/>
				<rect id="rect5055" x="1340.1" y="1206.9" class="st1" width="4.5" height="-19.5"/>
				<path id="path5057" inkscape:connector-curvature="0" sodipodi:nodetypes="ccccccccccc" class="st2" d="M1359.2,1206.9v-19.5
					h4.9v9.5l6-9.5h4.4v19.5h-5l0.1-9.7l-6,9.7L1359.2,1206.9z"/>
				<g id="g5063" transform="translate(0,-0.09544754)">
					<rect id="rect5059" x="1202.5" y="1207" class="st1" width="4.5" height="-19.5"/>
					<rect id="rect5061" x="1202.5" y="1191.6" class="st1" width="12.3" height="-4.1"/>
				</g>
				<g id="g5079" transform="translate(0,-0.09544754)">
					<rect id="rect5069" x="1389.1" y="1207" class="st1" width="4.5" height="-19.5"/>
					<rect id="rect5071" x="1389.1" y="1191.6" class="st1" width="12.3" height="-4.1"/>
					<rect id="rect5075" x="1389.1" y="1207" class="st1" width="12.3" height="-4.1"/>
					<rect id="rect5077" x="1389.1" y="1199.3" class="st1" width="11.3" height="-4.1"/>
				</g>
				<g id="g5723">
					<rect id="rect5335" x="1256.3" y="1206.9" class="st1" width="4.5" height="-19.5"/>
					<path id="path5339" inkscape:connector-curvature="0" sodipodi:nodetypes="cccccc" class="st2" d="M1261.7,1195.1l4.7-7.8h5.4
						l-5.3,8.5h-4.8L1261.7,1195.1z"/>
					<path id="rect5343" inkscape:connector-curvature="0" sodipodi:nodetypes="ccssscsssssss" class="st1" d="M1256.7,1206.9V1195
						h8.2c2.9,0,5.3,2.7,5.3,5.9s-2.4,5.9-5.3,5.9H1256.7z M1260.1,1202.7h4c1,0,1.8-0.9,1.8-2.1c0-1.2-0.8-2.1-1.8-2.1h-4
						c-1,0-1.8,0.9-1.8,2.1C1258.3,1201.8,1259.1,1202.7,1260.1,1202.7z"/>
				</g>
				<g id="g5728" transform="translate(27.84019,0)">
					<rect id="rect5730" x="1256.3" y="1206.9" class="st1" width="4.5" height="-19.5"/>
					<path id="path5732" inkscape:connector-curvature="0" sodipodi:nodetypes="cccccc" class="st2" d="M1261.7,1195.1l4.7-7.8h5.4
						l-5.3,8.5h-4.8L1261.7,1195.1z"/>
					<path id="path5734" inkscape:connector-curvature="0" sodipodi:nodetypes="ccssscsssssss" class="st1" d="M1256.7,1206.9V1195
						h8.2c2.9,0,5.3,2.7,5.3,5.9s-2.4,5.9-5.3,5.9H1256.7z M1260.1,1202.7h4c1,0,1.8-0.9,1.8-2.1c0-1.2-0.8-2.1-1.8-2.1h-4
						c-1,0-1.8,0.9-1.8,2.1C1258.3,1201.8,1259.1,1202.7,1260.1,1202.7z"/>
				</g>
			</g>
			<g id="g5291">
				<path id="path5293" inkscape:connector-curvature="0" sodipodi:nodetypes="cccccccsccccscccc" class="st3" d="M612.8,948
					l0.4-13.2c23-0.5,46.1-2.1,68.6-5.2l0.5,13.4l-14,1.8c-0.6,0.1-1.3,0.1-1.9,0.2c-1.8,0.2-3.6,0.3-5.3,0.5
					c-6.7,0.5-13,0.6-19.8,1.3c-3.1,0.3-6.2,0.5-9.2,0.7C625.6,947.7,619.2,947.9,612.8,948z M693.5,941.4l-0.2-13.6
					c4.3-0.7,8.5-1.4,12.7-2.2c20.1-3.8,38.3-8.6,54.4-14.3l0.3,14.9l-11.4,3.4C735.3,933.8,696.6,941.4,693.5,941.4z"/>
			</g>
			<path id="path5295" inkscape:connector-curvature="0" sodipodi:nodetypes="cssssscssccccscccssscccsccsccc" class="st4" d="
				M602,396.6c-0.6,0-10.8,4.4-21,9.7c-50,26.1-98.4,65-129,103.8c-44.5,56.3-70.9,123.3-77.5,196.2c-1.6,18.2-1.5,25.1,0.7,50
				c3.9,42.7,9.6,78.8,18.6,117.5l3.4,14.6l14.7,6.9c41.9,19.6,113.5,35.9,168.3,38.4l21.7,1l11.2,0.2c23-0.5,46.1-2.1,68.6-5.2
				l11.6-1.7c4.3-0.7,8.5-1.4,12.7-2.2c20.1-3.8,38.3-8.6,54.4-14.3l13.4-8.9L807,889l2.6-10.3c7.3-29,15.7-79.4,19.4-116.6
				c7.1-70.5-10.1-146.2-47.6-210c-3.9-6.6-7.7-12.4-8.4-12.8l-10.7-20.7c-2.4-3.4-4.9-6.8-7.1-9.6c-14.4-18.8-33.2-34.8-48.6-48.3
				c-4.7-4.2-9.4-8.1-14.1-11.8l-8.9-6.9c-7.4-5.5-14.6-10.4-21.5-14.8c-14-8.9-26.9-15.6-37.5-20.4c-4.3-2-8.3-3.6-11.8-5
				L602,396.6z"/>
			<path id="path5303" inkscape:connector-curvature="0" sodipodi:nodetypes="cssssscccssssssscc" class="st5" d="M602,396.6
				c-0.6,0-10.8,4.4-21,9.7c-50,26.1-98.4,65-129,103.8c-44.5,56.3-70.9,123.3-77.5,196.2c-1.6,18.2-1.5,25.1,0.7,50
				c3.9,42.7,9.6,78.8,18.6,117.5l3.4,14.6l-11.7,8.9l-0.5-0.4c-11-49.6-19.8-94.8-20.6-135.8c-0.8-41.1,2.9-78,9.9-111.1
				c7-33.1,17.3-62.5,29.7-88.4c12.4-25.9,27-48.4,42.4-67.9c15.4-19.5,35.4-35.9,51.4-49.6c16.1-13.8,31.9-24.9,46.2-33.6
				c14.3-8.8,27.2-15.3,37.3-19.9c10.2-4.6,17.6-7.3,21.2-8.4L602,396.6z"/>
			<path id="path5306" inkscape:connector-curvature="0" sodipodi:nodetypes="cssssssccsccccccccccccsscccscccsccc" class="st6" d="
				M602.6,382.2c5.3,1.5,14,4.5,25.1,9.6c11.1,5.1,24.6,12.1,39.4,21.5c14.7,9.3,30.7,21,46.8,35.2c16.1,14.2,35.8,31.1,51,50.9
				c15.2,19.8,29.3,42.4,41.3,68.4c12,25.9,21.8,55.1,28.3,87.9c6.5,32.7,9.8,69,8.7,109.2c-2.7,43.7-11,86.8-19.3,123.5
				c-0.2,0.7-0.3,1.5-0.5,2.2c-0.2,0.7-0.3,1.5-0.5,2.2s-0.3,1.5-0.5,2.3c0,0.1,0,0.2-0.1,0.3c0,0.1,0,0.2-0.1,0.3s0,0.2-0.1,0.3
				c0,0.1,0,0.2-0.1,0.3c0,0.1,0,0.2-0.1,0.3c0,0.1,0,0.2-0.1,0.3c0,0.1,0,0.2-0.1,0.3l-0.3,0.3L807,889l2.6-10.3
				c7.3-29,15.7-79.4,19.4-116.6c7.1-70.5-10.1-146.2-47.6-210c-3.9-6.6-7.7-12.4-8.4-12.8l-10.7-20.7c-2.4-3.4-4.9-6.8-7.1-9.6
				c-14.4-18.8-33.2-34.8-48.6-48.3c-4.7-4.2-9.4-8.1-14.1-11.8l-8.9-6.9c-7.4-5.5-14.6-10.4-21.5-14.8c-14-8.9-26.9-15.6-37.5-20.4
				c-4.3-2-8.3-3.6-11.8-5l-10.9-5.3L602.6,382.2z"/>
			<g id="g5287">
				
					<path id="path5289" inkscape:connector-curvature="0" sodipodi:nodetypes="csscccccscscccscccsccccccscccccccccc" class="st7" d="
					M762.4,518.6c-2.3-3.3-4.7-6.5-7.1-9.6c-14.4-18.8-33.2-34.8-48.6-48.3c-4.7-4.2-9.4-8.1-14.1-11.8l0.3-15
					c0-0.8-0.1-2.2,0.2-2.5c0,0,0,0,0,0c2.4,1.9,4.9,3.8,7.4,5.8c2.1,1.8,4.5,3.6,7,5.8c2,1.7,3.9,3.4,5.8,4.9
					c0.2,0.2,0.4,0.3,0.6,0.5c1.5,1.4,3.1,2.8,4.7,4.2c0.6,0.5,1.1,1,1.5,1.3c2.4,2.1,4.9,4.3,7.4,6.6c0.6,0.6,1.2,1.2,1.9,1.7
					c0.1,0.1,0.3,0.2,0.4,0.4c2.2,2,4.4,4,6.6,6c0,0,0,0,0,0c1.8,1.8,3.6,3.4,5.6,5.6c2.1,2.3,5.1,4.9,8.2,8.3l12.1,13.4
					c0.1,0.1,0.1,0.1,0.2,0.2C762.4,504,762.4,511.2,762.4,518.6L762.4,518.6z M683.7,442.1c-7.4-5.5-14.6-10.4-21.5-14.8
					c-14-8.9-26.9-15.6-37.5-20.4c-4.3-2-8.3-3.6-11.8-5l0.1-16.2c0.2,0.1,0.4,0.2,0.6,0.2l13.5,5.7l12.6,6
					c8.2,4.2,17.2,9.2,26.7,15.3c1,0.7,2.1,1.4,2.9,1.9l14.3,9.8L683.7,442.1z"/>
				<path id="path5299" inkscape:connector-curvature="0" sodipodi:nodetypes="ccc" class="st8" d="M591.3,401.3
					C603.9,395.7,602.7,397.1,591.3,401.3L591.3,401.3z"/>
			</g>
			<path id="path3893" inkscape:connector-curvature="0" sodipodi:nodetypes="cccssssssscssssssccsssssssssccssc" class="st9" d="
				M601.5,948.1c-88.5-0.3-173.4-18.9-216-50.8l-0.5-0.4c-11-49.6-19.8-94.8-20.6-135.8c-0.8-41.1,2.9-78,9.9-111.1
				s17.3-62.5,29.7-88.4c12.4-25.9,27-48.4,42.4-67.9c15.4-19.5,35.4-35.9,51.4-49.6c16.1-13.8,31.9-24.9,46.2-33.7
				c14.3-8.8,27.2-15.3,37.3-19.9c10.2-4.6,17.6-7.3,21.2-8.4c5.3,1.5,14,4.5,25.1,9.6c11.1,5.1,24.6,12.1,39.4,21.5
				c14.7,9.3,30.7,21,46.8,35.2c16.1,14.2,35.8,31.1,51,50.9c15.2,19.8,29.3,42.4,41.3,68.4c12,25.9,21.8,55.1,28.3,87.9
				c6.5,32.7,9.8,69,8.7,109.2c-2.7,43.7-11,86.8-19.3,123.5c-0.2,0.7-0.3,1.5-0.5,2.2c-0.2,0.7-0.3,1.5-0.5,2.2s-0.3,1.5-0.5,2.3
				c0,0.1,0,0.2-0.1,0.3c0,0.1,0,0.2-0.1,0.3c0,0.1,0,0.2-0.1,0.3c0,0.1,0,0.2-0.1,0.3c0,0.1,0,0.2-0.1,0.3c0,0.1,0,0.2-0.1,0.3
				c0,0.1,0,0.2-0.1,0.3l-0.3,0.3c-23.7,17.7-61.5,32.1-108.4,41C677.2,945.1,639,948.1,601.5,948.1L601.5,948.1z"/>
		</g>
	</g>
</g>
</svg>
