<?xml version="1.0" encoding="utf-8"?>
<!-- Generator: Adobe Illustrator 26.0.2, SVG Export Plug-In . SVG Version: 6.00 Build 0)  -->
<svg version="1.1"
	 id="svg56" xmlns:cc="http://creativecommons.org/ns#" xmlns:dc="http://purl.org/dc/elements/1.1/" xmlns:inkscape="http://www.inkscape.org/namespaces/inkscape" xmlns:rdf="http://www.w3.org/1999/02/22-rdf-syntax-ns#" xmlns:sodipodi="http://sodipodi.sourceforge.net/DTD/sodipodi-0.dtd" xmlns:svg="http://www.w3.org/2000/svg"
	 xmlns="http://www.w3.org/2000/svg" xmlns:xlink="http://www.w3.org/1999/xlink" x="0px" y="0px" width="856.7px" height="989.7px"
	 viewBox="0 0 856.7 989.7" style="enable-background:new 0 0 856.7 989.7;" xml:space="preserve">
<style type="text/css">
	.st0{fill:#E40613;}
</style>
<sodipodi:namedview  bordercolor="#666666" borderopacity="1" fit-margin-bottom="1" fit-margin-left="1" fit-margin-right="1" fit-margin-top="1" gridtolerance="10" guidetolerance="10" id="namedview58" inkscape:current-layer="svg56" inkscape:cx="84.543815" inkscape:cy="549.47308" inkscape:pageopacity="0" inkscape:pageshadow="2" inkscape:window-height="705" inkscape:window-maximized="1" inkscape:window-width="1366" inkscape:window-x="-8" inkscape:window-y="-8" inkscape:zoom="0.44533392" objecttolerance="10" pagecolor="#ffffff" showgrid="false">
	</sodipodi:namedview>
<g id="g133" transform="translate(-155.90142,0.55480932)">
	<path id="path6" inkscape:connector-curvature="0" class="st0" d="M470.5,11.9c14.4-1.9,27-10.1,41.3-12.6c7.6-1,14.9,2,21.8,4.6
		c20.4,8.3,39.2,20,59.5,28.6c21.6,9.5,44.4,16.7,68.1,19.1c30.1,3.2,60.5,3.7,90.9,4.4c16.4,0.2,32.8,0.9,49.3,0.3
		c21.1-0.8,41.7-5.4,61.9-11.5c5.1-2.1,10.1,0.7,14.7,2.7c10.5,5,20.7,11,29.9,18.2c3.9,3.2,7.9,6.5,10.3,11
		c2.1,3.8-0.7,7.8-2.2,11.4c-6.1,13.9-16,25.8-26.6,36.5c-29.6-5.1-59.3-7.7-89.2-10.2c-47.9-3.8-96-6.6-144-8.5
		c-60.9-3-121.9-2.7-182.8,0.3c-56.3,3-112.7,8-167.8,20.1c-22.5,5.4-45.4,11.4-65.6,23.2c-7.4,4.7-15.5,10.8-17,20
		c-1,8.5,5.6,15.3,11.9,20c14.8,10.5,32.4,15.9,49.6,21.1c-3.5-6.6-4-15.1,0.4-21.4c7.4-10.9,19.8-16.6,31.6-21.5
		c29.2-11.3,60.3-16.8,91.3-20.8c65.5-8,131.7-7.9,197.6-5.5c77.2,3.1,154.1,10.5,230.7,20.7c9.6,1.5,19.2,2.4,28.7,4.2l0.5,1.7
		c-86.8-8.1-174.1-12.3-261.4-11.6c-62.7,0.7-125.6,3.2-187.8,12.3c-17.4,2.7-34.8,5.7-51.7,10.8c-7.4,2.3-14.8,5-21.2,9.5
		c-3.3,2.4-6.6,5.8-6.4,10.2c0.3,4.5,3.8,8,7.1,10.7c8.4,6.5,18.4,10.6,28.3,14.4c5.2,1.8,10.4,4.1,16,4.6
		c63.2,6.7,126.9,8.8,190.5,8.9c78.6-0.2,157.4-7.6,234.6-22.5c31.1-6,62-13.3,92.3-22.4c21.1-6.5,42-13.7,62-23.2
		c8.5-4.1,16.9-8.7,24.4-14.5c0,36.9,0.7,73.8-0.9,110.7c-4.8,119.8-30.7,239.7-82.5,348.1c-44.1,92.8-107.1,176.5-183.7,244.9
		c-45.1,40.4-94.6,75.7-147.2,105.6c-103.5-58.7-195.3-139-264-236.3c-60.4-85-102.5-182.4-125.8-283.8
		c-9.1-39.6-15.6-79.7-19.5-120.1c1,0,2.9,0.1,3.9,0.1c7.4,59.2,20.5,117.8,41,173.8c30.9,85.6,79.7,164.9,143.1,230.2
		c43.7,45.5,94.1,84.2,147.7,117.2c24.1,15.2,49.2,28.7,73.5,43.5c24.6-14.7,49.9-28.3,74.2-43.7c40.1-24.9,78.2-53.5,112.3-86.3
		c37.3-35.8,69.8-76.3,96.8-120.4c29.3-47.8,52-99.5,68.8-153c27.6-88,39.5-180.3,41.8-272.4c-28.5,11.6-58.7,18.1-88.8,23.8
		c-66,12-132.9,18.1-199.9,21.5c-59.5,3-119.1,3.2-178.6,1.7c-62.8-1.8-125.8-5.2-187.9-15.3c-30-5.1-60-11.6-88.3-23
		c-19.8-8.2-39.7-19.2-52.3-37.1c-10.5-14.8-12.7-33.7-11.1-51.3c1.5-13.4,4.9-26.5,9.3-39.2c11.8-4.4,23.9-8.2,35.6-12.9
		c10.9-10.9,21.1-22.6,31.8-33.8c17.6-0.7,35.4-0.2,52.9-1.5c10.4-10.1,20.4-20.7,30.7-31c17.1,3.6,34,7.7,51.1,11.1
		C407.2,20.8,438.7,15.3,470.5,11.9 M502.6,26.9c-5.7,2.1-11.3,4.8-16.9,7c-2.4,1.1-5.3,1.9-6.8,4.2c-2.4,3-1.5,7.8,1.7,9.8
		c5.6,3.8,11.5,7.1,17.2,10.8c5.8,3.7,12.7,5.3,19.5,4.9c23.6-1.5,47.3-2.9,70.9-4.4C565.1,48.7,542,38.4,519,28
		C514,25.6,507.9,24.9,502.6,26.9L502.6,26.9z"/>
	<path id="path8" inkscape:connector-curvature="0" class="st0" d="M450.5,308.3c2-2.3,5.4-1.1,8.1-1.4c4.3,0.3,8.8-0.7,12.9,0.5
		c8.9,8.4,17.4,17.3,26.1,25.9c-7.5,0-14.9,0.2-22.3,0c-4.6-4.6-9.2-9-13.9-13.4c-4.7,4.3-9.1,9-13.9,13.2c-7.3,0.8-14.7,0.2-22,0.4
		C433.7,325.1,442.1,316.8,450.5,308.3L450.5,308.3z"/>
	<path id="path10" inkscape:connector-curvature="0" class="st0" d="M789.7,350.1c18-10.1,40.4-8.9,59.3-2.3c0.4,8.6,0,17.2,0,25.9
		c-10.1-5.5-21.6-9.3-33.2-7.9c-4.8,0.5-10.3,2.9-11.3,8c-1.1,4.6,2.6,8.2,6.3,10.4c8.1,4.8,16.9,8.8,25.1,13.6
		c7.3,4.4,14.2,10.2,17.6,18.3c4.4,11.6,1.5,25.7-7.4,34.3c-7.1,6.8-16.8,10.1-26.4,11.1c-14.1,1.5-28.4-0.7-41.8-5.4
		c0-9,0-18,0-26.9c10.4,6.8,23.1,10.8,35.6,9.9c5.1-0.4,11.2-2.7,12.5-8.2c1.2-4.2-1.6-8.1-4.9-10.2c-12.1-8.1-26.9-12.2-37.6-22.4
		c-13.6-13.2-10.4-38.8,6.3-48.2H789.7z"/>
	<path id="path12" inkscape:connector-curvature="0" class="st0" d="M298,344.6c10.4,0,20.9,0,31.3,0c2.3-0.4,3.1,2,4.4,3.4
		c18.2,23.4,36.6,46.7,54.9,70c0-24.5,0-48.9,0-73.4c9.2,0,18.4,0,27.6,0c0,38.5,0,77,0,115.5c-9.2,0-18.5,0-27.7,0
		c-17.7-22.3-35.7-44.3-53.4-66.6c0,22.2,0,44.4,0,66.6c-9.2,0-18.4,0-27.6,0c0-33.6,0.2-67.1-0.2-100.7
		C304.7,354.1,299.8,350.2,298,344.6L298,344.6z"/>
	<path id="path14" inkscape:connector-curvature="0" class="st0" d="M447.8,344.6c9.2,0,18.4,0,27.6,0c0,38.5,0,77,0,115.5
		c-9.2,0-18.4,0-27.6,0C447.9,421.6,447.9,383.1,447.8,344.6L447.8,344.6z"/>
	<path id="path16" inkscape:connector-curvature="0" class="st0" d="M498,344.6c14.3,0,28.6,0,42.9,0c12.1,28.3,24.5,56.5,36.5,84.8
		c12.1-28.3,24.2-56.5,36.4-84.8c11.2,0,22.4,0,33.6,0c0,38.5,0,77,0,115.5c-9.2,0-18.4,0-27.6,0c0-23.9,0-47.8,0-71.7
		c-10.1,23.9-20.3,47.8-30.4,71.7c-8.1,0-16.1,0-24.2,0c-10-23.9-20.5-47.5-30.2-71.5c-0.5,23.8,0,47.7-0.3,71.6
		c-9.2,0-18.4,0-27.6,0c-0.2-33.8,0.2-67.5-0.2-101.3c-2.5-5-7.2-8.8-8.9-14.2H498z"/>
	<path id="path18" inkscape:connector-curvature="0" class="st0" d="M679.1,344.6c24.9,0,49.9,0,74.9,0c0,7.8,0,15.6,0,23.4
		c-15.9,0-31.6,0-47.5,0c0,7.4,0,14.9,0,22.4c14.5,0,29.1,0,43.6,0c0,7.7,0,15.5,0,23.3c-14.5,0-29.1,0-43.6,0c0,7.7,0,15.4,0,23.1
		c15.7,0,31.6,0,47.3,0c0,7.8,0,15.6,0,23.3c-25.1,0-50,0-74.9,0c0-38.5,0-77,0-115.5L679.1,344.6z"/>
	<path id="path20" inkscape:connector-curvature="0" class="st0" d="M377.8,502.4c9.9-3.1,21.9,0.7,27.2,9.9
		c5.9,9.7,3.6,23.5-5.5,30.4c-10.7,8.6-28.9,5.5-35.2-7C357.4,523.5,364.1,506.1,377.8,502.4 M380.6,509.3
		c-13.2,3.5-14.2,24.3-1.9,29.6c9.3,4.9,21.3-2.7,21.3-13.1C401.3,515.5,390.7,505.8,380.6,509.3L380.6,509.3z"/>
	<path id="path22" inkscape:connector-curvature="0" class="st0" d="M423.4,502.2c2.6,0,5.3,0,7.9,0c0,12.5,0,24.9,0,37.4
		c7.8,0,15.7,0,23.5,0c0,2.4,0,4.8,0,7.2c-10.5,0-21,0-31.4,0C423.4,532,423.4,517.1,423.4,502.2L423.4,502.2z"/>
	<path id="path24" inkscape:connector-curvature="0" class="st0" d="M455.7,502.3c3.1,0,6.2,0,9.3,0c4.3,6.5,8.3,13.2,12.6,19.7
		c4.1-6.6,8.3-13,12.4-19.6c3.1,0,6.1,0,9.2,0c-5.8,8.9-11.8,17.6-17.5,26.6c-0.7,6-0.1,12.1-0.3,18.1c-2.7,0-5.3,0-8,0
		c-0.2-5.8,0.2-11.6-0.2-17.4c-5.4-9.3-11.7-18.1-17.6-27.2L455.7,502.3z"/>
	<path id="path26" inkscape:connector-curvature="0" class="st0" d="M511.7,502.2c2.8,0,5.6,0,8.4,0c4.6,6.9,9,14,13.6,20.9
		c4.5-7,9-13.9,13.4-20.9c2.8,0,5.7,0,8.5,0c0.1,14.9,0,29.8,0,44.7c-2.7,0-5.4,0-8,0c0.2-10.7,0.2-21.4,0-32
		c-4.5,7.3-9.4,14.2-14.1,21.3c-4.7-7-9.3-13.9-14-20.9c0,10.5,0,21.1,0,31.6c-2.6,0-5.3,0-7.9,0c0.2-14.9,0-29.7,0-44.6
		L511.7,502.2z"/>
	<path id="path28" inkscape:connector-curvature="0" class="st0" d="M572.7,502.2c8.8,0.5,18.1-1.5,26.5,1.7c9.7,4,11,18.9,2.6,24.9
		c-6,4.6-14,3.6-21.1,3.6c0,4.8,0,9.5,0,14.3c-2.7,0-5.3,0-7.9,0C572.8,531.9,572.8,517,572.7,502.2 M580.7,525.2
		c4.9,0,10.2,1,14.8-1.3c5.1-2.5,5.1-11,0-13.3c-4.6-2-9.8-1.1-14.7-1.3C580.7,514.6,580.7,519.9,580.7,525.2L580.7,525.2z"/>
	<path id="path30" inkscape:connector-curvature="0" class="st0" d="M621.4,502.2c2.6,0,5.3,0,7.9,0c0,14.9,0,29.7,0,44.6
		c-2.7,0-5.3,0-7.9,0C621.4,532,621.4,517.1,621.4,502.2L621.4,502.2z"/>
	<path id="path32" inkscape:connector-curvature="0" class="st0" d="M651,508.8c8.8-9.9,26.3-9.8,34.9,0.4
		c7.2,7.9,7.5,20.6,1.3,29.3c1.7,1.4,3.4,2.9,5,4.5c-1.7,1.8-3.3,3.6-5,5.4c-1.7-1.5-3.4-3-5.1-4.6c-8.4,5-19.7,5.6-27.9-0.4
		c-11.1-7.5-12.4-24.9-3.3-34.5 M657.8,513.1c-7.1,6.9-5.7,20.2,2.9,25.2c4.5,3,10.4,2.4,15.2,0.4c-2.4-2.4-5.1-4.6-7.6-6.8
		c1.6-1.9,3.4-3.9,5.1-5.8c2.7,2.4,5.2,4.8,7.9,7.1c3.1-6,2.9-13.8-1.6-19C674.5,507.6,663.5,507.1,657.8,513.1L657.8,513.1z"/>
	<path id="path34" inkscape:connector-curvature="0" class="st0" d="M706.1,502.2c2.6,0,5.3,0,8,0c0.4,10-0.8,20.1,0.6,30.1
		c1.9,10.4,19.3,10.6,21.3,0c1.2-10,0-20.2,0.5-30.2c2.7,0,5.2,0,7.9,0c0,9.1,0,18.3,0,27.4c-0.4,6.5-3.6,13.4-9.9,16
		c-9.6,4.4-24.3,1.4-27.2-10.1c-2.4-11-0.6-22.3-1.2-33.4V502.2z"/>
	<path id="path36" inkscape:connector-curvature="0" class="st0" d="M760.7,502.2c11.1,0,22.1,0,33.2,0c0,2.3,0,4.7,0,7.1
		c-8.4,0-16.8,0-25.2,0c0,3.8,0,7.7,0,11.5c7.3,0,14.8,0,22.3,0c0,2.4,0,4.8,0,7.1c-7.4,0-14.9,0-22.4,0c0,4,0,8,0,11.9
		c8.5,0,16.9,0,25.5,0c0,2.3,0,4.7,0,7.1c-11.2,0-22.4,0-33.6,0c0-14.9,0-29.7,0-44.6L760.7,502.2z"/>
	<path id="path38" inkscape:connector-curvature="0" class="st0" d="M434,621c16.3-11.9,39.7-12.5,57.1-2.4
		c9.5,5.5,17.1,15.7,16.8,27.1c0.1,29.8,0,59.6,0,89.5c-31-6.1-61.2-17.6-87.1-35.9c0-17.8,0-35.7,0-53.6
		C420.5,635.9,426.2,626.7,434,621L434,621z"/>
	<path id="path40" inkscape:connector-curvature="0" class="st0" d="M552.2,618.1c17-9.3,39.5-8.7,55.5,2.6c8.1,5.6,14,15,13.8,25.1
		c0,31.1,0,62.2,0,93.4c-28.9,3.4-58.3,3.3-87.2,0.4c0.2-31.2,0.2-62.5,0.2-93.7c-0.3-11.8,7.8-22.1,17.8-27.6L552.2,618.1z"/>
	<path id="path42" inkscape:connector-curvature="0" class="st0" d="M665.2,617.9c15.8-8.5,35.9-8.4,51.5,0.4
		c9.4,5.3,17.3,15,17.5,26.2c0,17.7,0,35.4,0,53.1c-25.7,18.8-55.9,30.8-86.9,37.4c0-30.2,0-60.4,0-90.5c0.4-11.4,8.3-21.2,18-26.4
		V617.9z"/>
	<path id="path44" inkscape:connector-curvature="0" class="st0" d="M515.1,781.9c5.5-1.6,11-3.8,16.9-3.4c0,12.9,0,25.9,0,38.8
		c-2.8,0-5.6,0-8.4,0c-0.1-10,0-20,0-30c-2.3,0.5-4.5,1.1-6.7,1.5C516.3,786.5,515.7,784.2,515.1,781.9L515.1,781.9z"/>
	<path id="path46" inkscape:connector-curvature="0" class="st0" d="M545.4,782c4.6-4,11.4-4.6,17.1-2.6c5.2,2,8.3,7.5,8.8,12.9
		c0.8,7.5,0,16.2-5.6,21.7c-6.5,6-17.1,4.9-23.7-0.4c1.5-2.2,3-4.3,4.5-6.5c3.4,2.2,7.8,4.4,11.8,2.5c2.9-1.4,3.6-4.8,4.7-7.6
		c-5.3,3.1-12.3,3.1-17.4-0.4C539.6,796.8,539.9,786.8,545.4,782 M553.4,786.1c-3.2,0.9-4.5,4.7-3.3,7.6c2.4,5.1,11.8,4.6,12.8-1.3
		C563.8,787.3,557.6,784.2,553.4,786.1L553.4,786.1z"/>
	<path id="path48" inkscape:connector-curvature="0" class="st0" d="M579.9,778.9c8.7,0,17.3,0,26,0c0,2.1,0,4.2,0,6.3
		c-3.2,3.1-6.3,6.1-9.6,9.1c3.1,1.1,6.7,2,8.5,5c3.4,5.7,1.2,14.2-5,17.1c-7.5,3.5-17,1.1-22.5-5c1.9-1.9,3.9-3.7,5.9-5.6
		c2.9,2.8,6.9,5.4,11.1,4.3c3.6-0.4,5-5.7,2-7.8c-2.7-2-6.3-1.3-9.4-1.5c-0.5-1.9-0.9-3.7-1.3-5.6c3-2.9,6-5.9,8.9-8.9
		c-5,0-9.9,0-14.9,0C579.9,783.8,579.9,781.3,579.9,778.9L579.9,778.9z"/>
	<path id="path50" inkscape:connector-curvature="0" class="st0" d="M613,778.9c9.3,0,18.6,0,27.7,0c0,2.6,0.4,5.5-0.8,7.9
		c-5.5,10.1-11,20.3-16.4,30.4c-3.3,0-6.5,0-9.8,0c6-10.2,11.6-20.6,17.1-30.9c-5.9,0-11.9,0-17.8,0C613,783.9,613,781.4,613,778.9
		L613,778.9z"/>
</g>
</svg>
