<?xml version="1.0" encoding="utf-8"?>
<!-- Generator: Adobe Illustrator 26.0.2, SVG Export Plug-In . SVG Version: 6.00 Build 0)  -->
<svg version="1.1"
	 id="svg2" xmlns:cc="http://creativecommons.org/ns#" xmlns:dc="http://purl.org/dc/elements/1.1/" xmlns:inkscape="http://www.inkscape.org/namespaces/inkscape" xmlns:rdf="http://www.w3.org/1999/02/22-rdf-syntax-ns#" xmlns:sodipodi="http://sodipodi.sourceforge.net/DTD/sodipodi-0.dtd" xmlns:svg="http://www.w3.org/2000/svg"
	 xmlns="http://www.w3.org/2000/svg" xmlns:xlink="http://www.w3.org/1999/xlink" x="0px" y="0px" width="600px" height="742.5px"
	 viewBox="0 0 600 742.5" style="enable-background:new 0 0 600 742.5;" xml:space="preserve">
<style type="text/css">
	.st0{fill:#FFFFFF;}
	.st1{fill:#A5B3BC;}
	.st2{fill:#005E95;}
	.st3{fill:#006DA7;}
</style>
<sodipodi:namedview  bordercolor="#666666" borderopacity="1.0" fit-margin-bottom="5" fit-margin-left="5" fit-margin-right="5" fit-margin-top="5" id="base" inkscape:current-layer="g2993" inkscape:cx="283.74798" inkscape:cy="641.0581" inkscape:document-units="px" inkscape:pageopacity="0.0" inkscape:pageshadow="2" inkscape:window-height="691" inkscape:window-maximized="1" inkscape:window-width="1280" inkscape:window-x="0" inkscape:window-y="1" inkscape:zoom="0.84426282" pagecolor="#ffffff" showgrid="false" showguides="true">
	</sodipodi:namedview>
<g id="layer1" transform="translate(-160.41882,90.59431)" inkscape:groupmode="layer" inkscape:label="Calque 1">
	<g id="g2993" transform="matrix(1.25,0,0,-1.25,243.43012,1025.6972)" inkscape:label="clubs foot">
		<g id="g3352" transform="matrix(0.97788275,0,0,0.97788275,3.8393552,13.183644)">
			<path id="path3350" inkscape:connector-curvature="0" sodipodi:nodetypes="ssssssscsssssssscsscsssscs" class="st0" d="
				M166.1,296.2c-8.9,3.9-13.1,5.8-19.8,9.1c-26.6,13.3-52.4,30.5-75.1,50c-14.6,12.5-30.7,28.8-43.2,43.5
				c-46.2,54.5-77.9,121.5-91.4,193.3c-11.8,62.7-9.9,127.3,5.6,189.2c7.8,31,18.4,59.5,33.2,89.1c2.3,4.5,3.2,6.2,3.6,6.2
				c0.3,0,3.4-0.3,7-0.6c18-1.5,40.4-1.6,57.1-0.1c20.3,1.8,31.9,4.2,65,13.8c14,4,23.8,6.2,34.9,7.6c18.3,2.3,41.6,2.4,60,0.2
				c12.6-1.5,22.6-3.7,40-8.8c37.3-10.9,55.5-13.7,88.7-13.7c11.8,0,19.6,0.3,29.5,1.1c3.6,0.3,6.8,0.6,7,0.6
				c0.5,0,4.3-7.2,9.2-17.7c22-46.8,35.6-98.8,39.5-151.6c0.9-12.1,1.1-18.7,1.1-33c0-14.3-0.2-21.4-1.1-33.2
				c-7.2-95.3-44.4-183.4-106.8-252.4c-5.2-5.7-16.4-17.1-22.4-22.7c-29.3-27.3-62.1-49.3-97.1-65.5c-6.5-3-16.7-7.3-17.2-7.3
				C173.4,293.1,170,294.5,166.1,296.2L166.1,296.2z"/>
			<path id="path3485" inkscape:connector-curvature="0" sodipodi:nodetypes="ssssssscsssssssscsscsssscs" class="st1" d="
				M166.3,302.9c-8.7,3.8-12.8,5.7-19.4,8.9c-26,13-51.3,29.8-73.4,48.9c-14.3,12.3-30,28.1-42.2,42.5
				C-14,456.5-44.9,522-58.1,592.2c-11.5,61.3-9.7,124.5,5.5,185c7.6,30.3,18,58.2,32.5,87.1c2.2,4.4,3.2,6.1,3.5,6.1
				c0.3,0,3.4-0.2,6.9-0.5c17.6-1.5,39.5-1.6,55.9-0.1c19.9,1.7,31.2,4.1,63.5,13.4c13.7,3.9,23.3,6,34.1,7.4
				c17.9,2.3,40.6,2.3,58.6,0.1c12.4-1.5,22.1-3.7,39.1-8.6c36.5-10.6,54.2-13.4,86.8-13.4c11.5,0,19.1,0.3,28.9,1.1
				c3.5,0.3,6.6,0.5,6.9,0.5c0.5,0,4.2-7,9-17.3c21.5-45.8,34.8-96.6,38.7-148.3c0.9-11.9,1.1-18.3,1.1-32.3c0-14-0.2-20.9-1.1-32.5
				c-7-93.2-43.4-179.4-104.4-246.8c-5.1-5.6-16.1-16.8-21.9-22.2c-28.7-26.7-60.7-48.2-95-64c-6.3-2.9-16.3-7.2-16.8-7.2
				C173.4,299.8,170.1,301.2,166.3,302.9L166.3,302.9z"/>
		</g>
		<g id="g4430" transform="matrix(1.1351355,0,0,1.1351355,51.749064,34.287135)">
			<path id="path3503" inkscape:connector-curvature="0" sodipodi:nodetypes="ssssssscsssssssscsscsssscs" class="st2" d="
				M101.3,253.4c-7.2,3.1-10.6,4.7-15.9,7.4c-21.4,10.7-42.2,24.6-60.5,40.2c-11.7,10.1-24.7,23.2-34.8,35
				c-37.2,43.9-62.7,97.8-73.6,155.7c-9.5,50.5-8,102.6,4.5,152.3c6.3,25,14.8,47.9,26.7,71.8c1.8,3.6,2.6,5,2.9,5
				c0.2,0,2.8-0.2,5.7-0.5c14.5-1.2,32.5-1.3,46-0.1c16.4,1.4,25.7,3.4,52.3,11.1c11.2,3.2,19.2,5,28.1,6.1
				c14.8,1.9,33.5,1.9,48.3,0.1c10.2-1.2,18.2-3,32.2-7.1c30-8.8,44.7-11,71.4-11c9.5,0,15.8,0.2,23.8,0.9c2.9,0.2,5.5,0.4,5.7,0.4
				c0.4,0,3.4-5.8,7.4-14.3c17.7-37.7,28.7-79.6,31.8-122.1c0.7-9.8,0.9-15.1,0.9-26.6c0-11.5-0.2-17.2-0.9-26.7
				c-5.8-76.8-35.8-147.7-86-203.3c-4.2-4.6-13.2-13.8-18-18.2c-23.6-22-50-39.7-78.2-52.7c-5.2-2.4-13.5-5.9-13.8-5.9
				C107.2,251,104.5,252.1,101.3,253.4L101.3,253.4z"/>
			<path id="path4414" inkscape:connector-curvature="0" sodipodi:nodetypes="ssssssscssssccs" class="st3" d="M101.3,253.4
				c-7.2,3.1-10.6,4.7-15.9,7.4c-21.4,10.7-42.2,24.6-60.5,40.2c-11.7,10.1-24.7,23.2-34.8,35c-37.2,43.9-62.7,97.8-73.6,155.7
				c-9.5,50.5-8,102.6,4.5,152.3c6.3,25,14.8,47.9,26.7,71.8c1.8,3.6,2.6,5,2.9,5c0.2,0,2.8-0.2,5.7-0.5c14.5-1.2,32.5-1.3,46-0.1
				c16.4,1.4,25.7,3.4,52.3,11.1c11.2,3.2,19.2,5,28.1,6.1c7.4,0.9,15.8,1.4,24.1,1.4l0.5-487.9C107.2,251,104.5,252.1,101.3,253.4
				L101.3,253.4z"/>
		</g>
		<g id="g4416" transform="matrix(1.1351355,0,0,1.1351355,53.292499,34.287135)">
			<path id="path3519" inkscape:connector-curvature="0" class="st0" d="M130.3,564.4c-1.7,0-3.4-0.6-4.5-1.8
				c-1.2-1.3-1.7-2.8-1.7-5.4c0-4,0.9-5.3,4.5-6.8c4.5-1.8,4.9-2.2,4.9-5.5c0-2.5-0.2-3.1-1-3.9c-0.8-0.8-2-1-3.2-0.7
				c-1.1,0.3-1.6,1-2,2.7l-0.3,1.2l-1.5,0.1c-1.6,0.1-1.6,0.1-1.5-1.5c0.2-4.3,3.8-6.5,8.5-5.3v0c1.7,0.5,2.8,1.3,3.5,2.6
				c0.5,0.9,0.5,1.3,0.5,4.6c0,3.5,0,3.6-0.7,4.7c-0.8,1.3-1.8,2-4.6,3.1c-3.3,1.3-3.9,2.1-3.9,4.6c0,1.7,0.4,2.9,1.1,3.5
				c0.8,0.7,2.4,0.9,3.4,0.4c0.8-0.4,1.5-1.7,1.5-2.6c0-1,0.3-1.2,1.8-1.1l1.4,0.1l0,1.2c0,1.8-0.5,2.8-1.6,3.9
				C133.7,563.9,132,564.5,130.3,564.4L130.3,564.4z M80.5,564.1c-0.5,0-1,0-1.6,0h-3.7v-26.4h3.4V549l1.2,0.1c0.8,0,1.3,0,1.5-0.2
				l4-11.1h2.9l-3.7,11.7l1.2,1.1c1.5,1.4,1.9,2.8,1.9,6.1c0,3-0.4,4.6-1.6,5.9C84.9,563.8,83.8,564.1,80.5,564.1L80.5,564.1z
				 M65.2,564.1c-3.5,0-6.2-3-6.2-6.8v-12.8c0-3.8,2.8-6.8,6.2-6.8c3.5,0,6.2,3,6.2,6.8v12.8C71.5,561.1,68.7,564.1,65.2,564.1z
				 M171,564.1c-3.5,0-6.2-3-6.2-6.8v-12.8c0-3.8,2.8-6.8,6.2-6.8c3.3,0,6,2.8,6.2,6.4l-3,0c0-2.2-1.4-3.9-3.2-3.9
				c-1.8,0-3.2,1.7-3.2,3.9v13.5c0,2.2,1.4,3.9,3.2,3.9c1.7,0,3.1-1.6,3.2-3.7h3C177,561.4,174.3,564.1,171,564.1L171,564.1z
				 M34.8,564.1c-0.1-8.8-0.1-17.6,0-26.4h3.4v16.8l6.8-16.8h2.9v26.4h-3.1v-16.8l-6.8,16.8H34.8z M52,564.1v-26.4h3v26.4H52z
				 M89.4,564.1v-2.8h4.6v-23.6h3v23.6h4.4v2.8H89.4z M106.4,564.1l-6.2-26.4l3.5,0l1.3,6.1h5.8l1.3-6.1l3.5,0l-6.2,26.4H106.4z
				 M117.4,564.1v-26.4h3v26.4H117.4z M152.1,564.1v-2.8l0-23.6h3.2v11.7h7v3.2h-7v8.8h7v2.8L152.1,564.1L152.1,564.1z M65.2,561.6
				c1.8,0,3.2-1.7,3.2-3.9v-13.5c0-2.2-1.4-3.9-3.2-3.9c-1.8,0-3.2,1.7-3.2,3.9v13.5C62,559.8,63.5,561.6,65.2,561.6z M80.3,561.3
				c3.1,0.1,4-0.8,4-4.6c0-2.4-0.5-3.9-1.5-4.4c-1.4-0.1-3-0.3-4.2,0v8.9L80.3,561.3L80.3,561.3z M107.9,557.9l2.2-11.2h-4.4
				L107.9,557.9L107.9,557.9z"/>
			
				<path id="path4356" inkscape:connector-curvature="0" sodipodi:nodetypes="cscscsssscccsssssssscscscsscssscccsscscssccsssscccscccssccscccccccccccccccccccccccssccssscscccccscccsccccccccsssscccccssccccccccccccccccccccc" class="st0" d="
				M236.3,562.1c1.9,1,3,2.8,3.6,5.6c0.4,2,0.5,23.6,0.1,25.9c-0.6,3.5-2.9,6.1-12,14.1c-6.8,6-8.8,8-9.1,9.2
				c-0.2,0.7-0.2,3.7-0.2,9.3c0.1,9.1,0.1,9.2,1.5,9.9c0.9,0.4,1.5,0.3,3.7-0.3c3.1-1,4.1-1.7,5.1-3.8c0.5-1.1,0.6-1.6,0.6-5.7
				c0-2.5,0.1-4.5,0.2-4.5l10.3-3.4c0.1,0.1,0.2,2.8,0.1,6.1c-0.1,6.6-0.4,8.1-2,11.5c-1.4,2.8-4.5,5.8-7.5,7.3
				c-2.5,1.2-10.3,3.8-12.8,4.3c-4.1,0.7-7.4-0.8-8.8-4c-1.1-2.4-1.2-3.7-1.2-15.3c0-12,0.1-13.2,1.3-15.5c1-1.9,1.9-2.8,8.9-8.9
				c8.1-7.1,10.6-9.6,11.1-10.9c0.3-0.8,0.3-2.8,0.3-9.5c0-8,0-8.6-0.5-9.3c-0.7-1.2-1.6-1.4-3.4-1c-3.7,1-5.5,2-6.4,3.9
				c-0.4,0.8-0.5,1.5-0.6,4.2c-0.1,2-0.1,3.3-0.4,3.4l-10.3,3c-0.3-0.2-0.2-6.7,0.2-8.8c0.9-5.4,3.6-9.5,8-12
				c1.7-1,9.8-3.9,13.4-4.8C231.7,561.3,235.1,561.4,236.3,562.1L236.3,562.1z M-17.6,563c3.3,0.8,10.8,3.4,12.9,4.4
				c4.1,2,7,5.6,8.3,10C4,579,4.4,588,4,588.4l-10.1-2.7c-0.5-0.1-0.5-0.4-0.6-3.4c-0.1-2.8-0.2-3.3-0.7-4.4c-0.8-1.6-2-2.4-4.8-3.3
				c-3.4-1.1-4.7-0.9-5.6,0.6v56.6c0.3,1.5,1.2,3,2.4,3.8c1.1,0.8,4.4,1.7,5.7,1.7c0.7,0,1.4-0.2,1.7-0.4c1.1-0.7,1.2-1.6,1.2-6.7
				v-4.7l0.5,0L4,628.3v6.6c0,6.2,0,6.7-0.6,8.3c-1.2,3.6-3.2,5.2-6.7,5.4c-1.1,0.1-2.7,0-3.5-0.2c-2.4-0.5-9.7-2.8-11.8-3.8
				c-4.8-2.2-7.8-5.8-9.3-11l-0.5-1.9V569l0.6-1.6C-26.4,563.2-23,561.7-17.6,563L-17.6,563z M201.4,652.1l-10.5,2.5v-81.8l10.5-2.4
				V652.1z M20.6,573.7v37l14,2.5v-36.9l10.5,1.8V660l-10.5-1.7v-34.8l-14-2.5v34.3L10.1,653v-82L20.6,573.7z M178.7,577.3
				c2.4,1.1,3.8,3,4.7,6.3l0,63.7c-1.2,5.4-4.5,9.1-9.5,10.8c-2.7,0.9-14,2.8-16.7,2.8c-4.3,0-7.4-1.8-9-5.1l-0.9-67
				c0.7-2.3,2-4.6,3.4-6c2.6-2.6,5.2-3.6,12.3-4.7c2.6-0.4,5.6-0.9,6.6-1.1c1.1-0.2,3-0.3,4.8-0.3
				C177,576.7,177.5,576.8,178.7,577.3L178.7,577.3z M164.6,587.7c-4.1,0.7-5.2,1.3-6.2,3.1l-0.5,1l0.1,55.7
				c0.4,1.8,1.3,2.6,3.2,2.7c1.5,0.1,6.9-0.7,8.2-1.2c1.2-0.4,2.3-1.4,2.8-2.4l0.5-1l-0.4-56.9c-0.2-0.4-0.7-0.9-1-1.1
				C170.6,587,168.4,587.1,164.6,587.7L164.6,587.7z M63.7,580.4v29.8l12.3,1.2v-29.7l11.3,0.5v71.3c-0.9,6.3-4.5,9.6-10.6,9.9
				c-2.7,0.1-10.5-0.5-13.3-1.1c-1-0.2-2.7-0.8-3.7-1.3c-3.3-1.6-5.2-4-6.6-8l-0.6-1.7v-72.1L63.7,580.4z M63.7,620.6v28.6
				c0.3,1.4,1.2,3,2.5,3.1l7.2,0.7c1.2,0.1,2.4-1.3,2.7-2.4v-29.2L63.7,620.6z M139.5,662.8c-0.2,0.2-3.4,0.5-9.8,1
				c-1.4,0.1-2,0.1-2.2-0.2l-10.4-46.4l-10.6,47.1c-0.2,0.2-1.4,0.3-5.5,0.3c-2.9,0-5.6-0.1-6-0.2l-0.8-0.2l0.1-81.9l10.9,0.4
				l-0.8,51.1l8.4-36.3l8.5-0.3l8.1,35.8l-0.7-51.2l10.8-0.9L139.5,662.8z"/>
			<g id="g4391" transform="translate(-753.67979,-136.74408)">
				<path id="path4360" inkscape:connector-curvature="0" class="st0" d="M870.5,838.7l-0.1-13l0,0c0-0.1,0-0.2,0-0.2h1.8
					c0.2,1.7,1.3,3,2.5,3h0.4c1.4,0,2.5-1.6,2.5-3.6v-4.5c0-2-1.1-3.6-2.5-3.6h-0.4c-1.4,0-2.5,1.6-2.5,3.6v1.6h-1.7v-2.2
					c0-2.6,1.8-4.6,4.1-4.6h0.7c2.3,0,4.1,2.1,4.1,4.6v5.7c0,2.6-1.8,4.6-4.1,4.6h-0.7c-0.9,0-1.7-0.3-2.3-0.8v7.6h6.5v1.9H870.5
					L870.5,838.7z"/>
				<path id="path4362" inkscape:connector-curvature="0" sodipodi:nodetypes="csssssccsccsscssscscccc" class="st0" d="M860,817.1
					c-0.1,0.1,0.1,0.4,0.1,0.6c0.1,0.4,1.3,2.8,2.6,5.3c4.1,7.5,4.3,8,4.4,9.8c0.1,2-0.2,3.4-1.3,4.6c-1,1.1-2.1,1.5-3.7,1.4
					c-1.6-0.1-2.9-1.1-3.6-2.4c-0.4-0.9-0.5-1.4-0.4-3c0-0.5,0-0.9,0-1.1v-0.7h1.8v0.9c0,0.3,0,0.9,0,1.4c0,1.9,0.5,2.5,1.7,3
					c1.3,0.5,2.9-0.1,3.4-1.4c0.2-0.4,0.3-1.4,0.2-2.4c-0.1-1.7-0.2-1.9-3.3-7.7c-1.8-3.3-3.4-6.4-3.5-6.8c-0.1-0.4-0.3-0.7-0.3-1.3
					v-1.9l8.7,0v1.9L860,817.1z"/>
				<path id="path4364" inkscape:connector-curvature="0" sodipodi:nodetypes="ccccc" class="st0" d="M841.7,838.7h-1.8v-23.5h1.8
					V838.7z"/>
				<path id="path4366" inkscape:connector-curvature="0" sodipodi:nodetypes="ccccc" class="st0" d="M841.7,838.7h-1.8v-23.5h1.8
					V838.7z"/>
				<path id="rect4374" inkscape:connector-curvature="0" sodipodi:nodetypes="ssssscsssscccssccsssssssssss" class="st0" d="
					M849.9,838.7c-2.3,0-4.1-1.9-4.1-4.3V829c0-2.4,1.8-4.3,4.1-4.3h0.7c0.9,0,1.7,0.3,2.4,0.8V820c0-1.9-1.1-3.4-2.5-3.4h-0.4
					c-1.4,0-2.5,1.5-2.5,3.4v1.3h-1.7v-1.9c0-2.4,1.8-4.3,4.1-4.3h0.7c2.3,0,4.1,1.9,4.1,4.3v14.9c0,2.4-1.8,4.3-4.1,4.3H849.9z
					 M850.1,837.2h0.4c1.4,0,2.5-1.5,2.5-3.4v-4.2c0-1.9-1.1-3.4-2.5-3.4h-0.4c-1.4,0-2.5,1.5-2.5,3.4v4.2
					C847.5,835.7,848.7,837.2,850.1,837.2z"/>
			</g>
		</g>
		<g id="g4426" transform="matrix(1.1351355,0,0,1.1351355,51.749064,34.287135)">
			
				<path id="path3489" inkscape:connector-curvature="0" sodipodi:nodetypes="cccccccsscssssssscssssssscsscsssssscccsssscsssssssscsssscssssssccccssscsssscssss" class="st0" d="
				M123.8,335.5c-6.5-1.4-13.2-1.3-19.8-2.2c-2-0.3-14.5-0.7-18.9-0.6c-2.2,0-6.3,0.1-9.1,0.2l0,0c-5.5,0.2-15.4,0.9-16,1.1
				l-6.7,0.9c-0.3-0.3-1.3-0.2-6,0.4c-6.7,0.8-13.5,1.9-19.7,3l-4.4,0.8l-1.1,1.2c-7.5,8.2-11,12.3-15.7,18.2
				c-18.2,22.7-33.3,48.4-44.7,76c-12.8,31-20.8,65.1-23.5,99.7c-1.2,15.8-1.2,34.7,0,50.6c2.4,31.4,9.1,61.9,20,91.1
				c2.3,6.1,6.4,16.2,6.8,16.7c0.2,0.2,2.2,0.3,8.8,0.3c13.3,0,24.2,0.6,35,1.8c15.1,1.7,27.3,4.4,49.7,10.9
				c18.8,5.5,26.8,6.9,42.8,7.4c10.5,0.4,21.4-0.2,30.5-1.6c7.5-1.2,12.2-2.3,24.5-5.9c24.4-7.1,37.9-9.9,55.4-11.5
				c9.1-0.8,12.9-1,25.6-1.1l12.3-0.1l1.1-2.4c12.5-28.7,21.5-63.1,24.9-95.4c1.4-13.2,1.8-21.4,1.8-35.5c0-14.3-0.5-23.4-1.9-36.6
				c-9.4-86.2-52.3-164.3-117.9-214.2c-19.2-14.6-42.7-28-61.5-35c-3.2-1.2-8.8-2.9-9.5-2.9c-0.2,0-0.3-0.1-0.3-0.2
				c0-0.2,7.1-3.7,14.4-7c7-3.2,6.8-3.1,7.1-3.1c0.2,0,2,0.7,4.1,1.7l0,0c46,20.6,87.4,54.8,118.8,98c42.2,58.3,64.4,129.7,63.4,204
				c-0.1,5.5-0.3,12-0.4,14.4c-2.7,45.2-12.7,85.8-31,126.1l-2.4,5.4l-3.5-0.2c-21.8-1-42.8,0-59.4,2.8c-10.4,1.8-18.4,3.7-34.7,8.4
				c-13.9,4-18.6,5.2-26.3,6.4c-11.2,1.9-23.9,2.6-36.1,2.1c-16.9-0.7-27.3-2.5-45.5-7.8c-27.4-8-41-10.6-62.9-11.9
				c-5.1-0.3-21.2-0.4-31.2-0.2l-6,0.1l-2.2-4.8c-26.4-57.2-36.7-121.7-29.5-185.4c7.6-67.4,34.7-130.3,77.5-180.1
				c5.6-6.5,16.4-18,18.8-20l1.1-0.9l4.9-0.4c33.8-2.5,65-0.4,93.3,6.5c30,7.2,57,20,78.1,36.9c3.9,3.1,9.7,8.2,11.5,10.1
				c1.3,1.3,1,1.1-3.5-2.5c-13.7-11.2-30.1-19.9-49.5-26.3c-4-1.3-4.9-1.6-5.2-1.3l-7.5-2.1c-0.3-0.5-9.8-2.6-10.2-2.3
				C132.1,337.3,124.2,335.7,123.8,335.5L123.8,335.5z M68.8,283.2c4.1,0.8,13.5,3.2,18.5,4.8c51.3,15.4,94.4,43.1,123.1,79.1
				c3.2,4.1,7.7,10.1,6.8,9.2c-0.2-0.2-1.7-2-3.4-4c-22.7-27.4-54-47.1-92.3-58.1c-17.3-4.9-34.5-7.9-54.8-9.3
				c-4.7-0.3-24.5-0.4-28.8-0.1l-2.6,0.2l1-0.9c3.2-2.9,14-11.3,19.1-14.8c3.4-2.3,10.3-6.7,10.7-6.7
				C66.2,282.7,67.4,282.9,68.8,283.2L68.8,283.2z"/>
			
				<path id="path3487" inkscape:connector-curvature="0" sodipodi:nodetypes="cscsscsscsscsccccccsssssssscssccsscsscscssssccsccscscsccsscsccsscssssssssscssssssssscccscsssscscssssssscscsccccccssssccsccscssssscccsccsscccscccccscccssscscs" class="st0" d="
				M150.4,340.2c-0.2,0.1-1,2.1-1.9,4.6l-1.7,4.5l0,5.3c0.1,13.1,3.1,27.7,8.8,42.5c0.9,2.4,1.6,4.3,1.6,4.4c0,0-0.9-1.2-2-2.9
				c-4.7-7.2-9-12.3-13.6-16.2l-1.9-1.6l0.2-4.9c0.2-4.7,0.2-5,0.7-5.8c0.3-0.5,0.7-1.1,0.8-1.4c0.7-1.8,0.5-9.8-0.4-16l-0.4-3
				l0.8-0.7c0.4-0.4,0.9-1,1-1.4c0.4-0.9,0.3-9.2-0.1-9.6L150.4,340.2z M132.5,336.3c-0.2,0.3-1,2.1-1.9,4.1
				c-1.3,3.2-1.5,3.8-1.7,6.2c-0.5,5.3-0.2,11.3,0.8,17.6c1.8,10.8,5.8,21.2,11.8,31c1.7,2.8,1.7,2.8,3.8,4c10,6,17,15.5,18.9,25.8
				c0.6,2.9,0.7,7.2,0.4,9.8c-0.8,6.1-5.5,21.6-11.1,36.7c-2.4,6.4-2.5,6.9-2.3,7.2c0.1,0.1,2.5,1.6,5.2,3.2c4,2.4,5.2,3,5.9,3
				c0.6,0,1.4,0.3,2.7,1.1l1.9,1.1l0.1,1.4c0.5,4.8,0.5,4.4-0.6,5.9c-0.9,1.3-1.1,1.4-2,1.4c-3,0-8.5,0.5-10.2,1
				c-3.1,0.8-6,2.3-8,4.2l-1.6,1.6h-2.1c-1.4,0-2.2,0.1-2.4,0.3c-0.1,0.2-1.5,4.2-3,9.1c-1.5,4.8-3,9.2-3.2,9.8
				c-0.6,1.6-1.7,3-3.3,3.8c-1.2,0.6-1.6,0.7-3,0.6c-1.6-0.1-2.2-0.1-5.2,0c-1.5,0-1.8,0-3-0.7c-1.2-0.6-2.7-2.1-2.7-2.6
				c0-0.1,0.4,0.1,0.8,0.5c1.1,0.9,2.5,1.5,3.6,1.5c1,0,2.1-0.4,2.1-0.8c0-0.1,0.3-0.3,0.7-0.4c0.4-0.1,0.9-0.6,1.2-1.1
				c0.7-1.1,5.7-19,5.3-19.4c-0.3-0.3-0.6-0.2-2.5,1.4c-1.8,1.4-5.1,3.2-6.1,3.3c-0.6,0.1-0.6,0-0.5-0.9c0-0.5,0.2-1.4,0.3-1.9
				c0.2-0.8,0.3-0.9,0.6-0.5c0.3,0.4,0.4,0.4,1.5,0.1c3.7-0.9,5.8-3.3,6.7-7.7c0.5-2.2,0.5-3.3,0-3.5c-0.4-0.1-2.7,0.4-3.5,0.8
				c-0.3,0.1-0.5,0.2-0.5,0c0-0.2,2.6-2.8,3.8-3.6l0.8-0.6l1.6-15.8c1.7-17.4,1.8-19.7,0.9-22.2c-0.9-2.4-2.5-4.4-4.7-5.8
				c-2.1-1.3-4.4-2-8.7-2.5c-15.6-1.9-29-5.2-39.5-9.6c-15.3-6.5-22.9-14.5-25.5-27c-0.7-3.2-0.5-8.8,0.2-9.8
				c0.3-0.4,0.4-0.2,1.3,1.2c0.6,0.9,1.5,2.6,2.1,3.7l1.1,2.1l-0.6,2.4c-1,3.7-0.3,3.5,1.2-0.2c1.8-4.5,2.6-10,2.1-14.1
				c-0.7-5.9-3.5-12.9-7.2-18.7c-0.7-1-1.2-1.9-1.2-2s0.3-0.7,0.7-1.3c1.7-2.6,2.3-6,2.1-11.5c-0.2-5.1-1.2-10.5-3.1-16.9
				c-0.7-2.4-0.7-2.5-0.4-3.3c0.6-1.3,0.5-4.7-0.2-5l6.9-0.6c-0.3,0.3-1.3,5.2-1.3,6.3c0,0.4,1.3,6.6,3,13.9l3,13.1l2.1,3.2
				c5,7.5,10,12.9,16.1,17.4c3.2,2.4,5.6,5.3,7.3,9c1.2,2.5,1.7,4.8,1.7,7.7c0,1.7,0.1,2.3,0.3,2.2c0.2-0.1,0.8-1.1,1.4-2.2
				c0.9-1.7,1.2-2.1,1.6-2.1c8.3,0.8,14.5,0.3,20.3-1.6c2.3-0.8,5-2.1,5-2.4c0-0.1-1.9-0.3-4.1-0.5c-7.2-0.5-13.1-1.9-19.4-4.6
				c-1.9-0.8-2.8-1.4-1.7-1.1c0.3,0.1,1.6,0.4,2.8,0.7c7,1.8,14.5,2.1,20.5,0.6c1.4-0.4,2.1-0.7,2.3-1c0.4-0.6,0.8-11.7,0.8-19.5
				c0-4,0-4.2,0.6-5.5c1.6-3.5,1.7-9.2,0.3-19l-0.5-3.7l0.9-0.7c1.3-1.1,1.6-1.9,1.6-4.7c0-2.8-0.2-4.1-0.6-4.2L132.5,336.3z
				 M112.8,333c-0.2,0.1-1.4,2-2.5,4.3c-1.2,2.3-5.9,10.3-10.5,17.9c-9.4,15.5-8.6,13.8-8.1,18.3c0.7,5.3,2.3,9.4,5.1,12.4
				c0.5,0.6,0.9,1.2,0.8,1.2c-0.3,0.3-4.1-0.4-6.4-1.1c-3.6-1.2-7.6-3.5-10.3-5.9l-1.2-1.1l0-2.7c0-1.5-0.2-4.6-0.3-7
				c-0.2-3.2-0.2-4.4,0-4.6c0.1-0.2,1.1-0.6,2.1-1c6.8-2.8,12.9-8.7,16.6-15.9c0.5-1.1,1.4-3.2,2-4.8c1-2.8,1-2.9,1.9-3.2
				c1-0.4,1.9-1.1,2.4-2c0.4-0.8,1.1-3.8,1.1-4.8L112.8,333z M140.3,487.6c-1.8,0.4-2.9,0.9-3.1,1.5c-0.4,1.3-1.9,11.1-1.7,11.3
				c0.1,0.1,0.4,0,0.7-0.1c1.5-0.9,5-2.5,7.2-3.2c4.2-1.4,7.7-2,15.4-2.7c1.5-0.1,1.7-0.2,1.9-0.8c0.1-0.3,0.2-1.1,0.2-1.6l-0.1-1
				l-2.4-0.9C151.7,487.7,144.6,486.7,140.3,487.6L140.3,487.6z M143.1,492.6c1,0.3,1.1,0.6,0.5,1.7c-0.5,0.9-2.2,1.7-3.4,1.6
				c-0.8-0.1-0.9-0.2-1-0.7c-0.1-0.9,0.6-2.1,1.5-2.5C141.7,492.3,142,492.2,143.1,492.6L143.1,492.6z M134.8,503.2
				c-0.2,0.3-0.6,1.2-0.8,2.1c-2,6.5-5.5,16.9-6,17.8c-0.3,0.6-0.6,1.2-0.5,1.3c0.5,0.5,3-1.5,3.5-2.9c0.5-1.2,5-18.4,4.9-18.7
				C135.7,502.5,135.2,502.6,134.8,503.2L134.8,503.2z"/>
		</g>
	</g>
</g>
</svg>
