<?xml version="1.0" encoding="utf-8"?>
<!-- Generator: Adobe Illustrator 26.0.2, SVG Export Plug-In . SVG Version: 6.00 Build 0)  -->
<svg version="1.1"
	 id="svg3725" xmlns:cc="http://creativecommons.org/ns#" xmlns:dc="http://purl.org/dc/elements/1.1/" xmlns:inkscape="http://www.inkscape.org/namespaces/inkscape" xmlns:rdf="http://www.w3.org/1999/02/22-rdf-syntax-ns#" xmlns:sodipodi="http://sodipodi.sourceforge.net/DTD/sodipodi-0.dtd" xmlns:svg="http://www.w3.org/2000/svg"
	 xmlns="http://www.w3.org/2000/svg" xmlns:xlink="http://www.w3.org/1999/xlink" x="0px" y="0px" width="600px" height="600px"
	 viewBox="0 0 600 600" style="enable-background:new 0 0 600 600;" xml:space="preserve">
<style type="text/css">
	.st0{fill:url(#path620_00000125597497527856841730000004034017063589057942_);}
	.st1{fill:#FFFFFF;}
	.st2{fill:url(#path636_00000158748750662808715380000016534783241386885785_);}
	.st3{fill:#C2A24E;}
</style>
<sodipodi:namedview  bordercolor="#666666" borderopacity="1" gridtolerance="10" guidetolerance="10" id="namedview3727" inkscape:current-layer="svg3725" inkscape:cx="696.50715" inkscape:cy="345.01583" inkscape:pageopacity="0" inkscape:pageshadow="2" inkscape:window-height="788" inkscape:window-maximized="1" inkscape:window-width="1440" inkscape:window-x="0" inkscape:window-y="1" inkscape:zoom="0.31908058" objecttolerance="10" pagecolor="#ffffff" showgrid="false">
	</sodipodi:namedview>
<g id="g5566" transform="translate(0,80)">
	<g id="g5562">
		
			<radialGradient id="path620_00000150803453608227210930000009658452700961981880_" cx="223.6559" cy="432.7669" r="300" gradientTransform="matrix(1.1354 1.1268 1.0165 -1.0243 -527.6628 263.6092)" gradientUnits="userSpaceOnUse">
			<stop  offset="0" style="stop-color:#2277B6"/>
			<stop  offset="0.1045" style="stop-color:#4086C2"/>
			<stop  offset="0.2238" style="stop-color:#1B73B3"/>
			<stop  offset="0.5395" style="stop-color:#124783"/>
			<stop  offset="0.7836" style="stop-color:#003E73"/>
			<stop  offset="1" style="stop-color:#002448"/>
		</radialGradient>
		
			<path id="path620" inkscape:connector-curvature="0" style="fill:url(#path620_00000150803453608227210930000009658452700961981880_);" d="
			M300-80C134.6-80,0,54.6,0,220c0,165.4,134.6,300,300,300s300-134.6,300-300C600,54.6,465.4-80,300-80"/>
		<path id="path622" inkscape:connector-curvature="0" class="st1" d="M299.6-58.5c-74.4,0-144.4,29-197,81.6
			C50,75.7,21,145.7,21,220.1c0,74.4,29,144.4,81.6,197c52.6,52.6,122.5,81.6,197,81.6s144.4-29,197-81.6
			c52.6-52.6,81.6-122.6,81.6-197c0-74.4-29-144.4-81.6-197C443.9-29.5,374-58.5,299.6-58.5 M299.6-47.4
			c147.8,0,267.5,119.8,267.5,267.5c0,147.8-119.8,267.5-267.5,267.5S32,367.8,32,220.1C32,72.3,151.8-47.4,299.6-47.4"/>
	</g>
	<g id="g5529">
		<g id="g5422">
			<g id="g5849" transform="matrix(1.25,0,0,-1.25,-4.6035156e-5,519.99996)">
				<g id="g5845">
					
						<linearGradient id="path636_00000046315256982141049040000005903283540805379232_" gradientUnits="userSpaceOnUse" x1="133.1631" y1="113.2908" x2="243.0805" y2="-84.3832" gradientTransform="matrix(1.25 0 0 1.25 1 173.0001)">
						<stop  offset="0" style="stop-color:#DD4B44"/>
						<stop  offset="0.2033" style="stop-color:#DE5448"/>
						<stop  offset="0.3452" style="stop-color:#DB3D39"/>
						<stop  offset="0.4852" style="stop-color:#CC2C2E"/>
						<stop  offset="0.7492" style="stop-color:#AE2826"/>
						<stop  offset="1" style="stop-color:#8A211B"/>
					</linearGradient>
					
						<path id="path636" inkscape:connector-curvature="0" style="fill:url(#path636_00000046315256982141049040000005903283540805379232_);" d="
						M239.8,361.8c-3.8,0-7.5-0.2-11.2-0.5c-0.8-46.4-12.2-86.1-31.4-119.7h85.1c-19.2,33.6-30.5,73.3-31.4,119.7
						C247.3,361.6,243.6,361.8,239.8,361.8z M194.5,236.7c-15-24.9-34.4-46.4-57.1-64.8c9.8-14.9,22.8-27.6,38-37
						c-0.6,3.2-0.9,6.6-0.9,9.9c0,33.8,29.3,61.1,65.4,61.1c36.1,0,65.4-27.4,65.4-61.1c0-3.4-0.3-6.7-0.9-9.9
						c15.2,9.4,28.1,22.1,37.9,37c-22.7,18.3-42.1,39.9-57.2,64.8H194.5z"/>
				</g>
				<path id="path640" inkscape:connector-curvature="0" class="st1" d="M257.1,360.5c59.5-8.4,105.3-59.5,105.3-121.3
					c0-19.8-4.7-38.5-13.1-55.1C295.4,224.7,262.5,281.8,257.1,360.5 M304.4,135c0.6,3.2,0.9,6.5,0.9,9.9
					c0,33.8-29.3,61.2-65.4,61.2c-36.1,0-65.4-27.4-65.4-61.2c0-3.4,0.3-6.7,0.9-9.9c-15.2,9.4-28.2,22.1-38,37
					c22.7,18.3,42.1,39.8,57.1,64.8h90.7c15.1-25,34.5-46.5,57.2-64.8C332.5,157,319.5,144.4,304.4,135 M283.8,124.8
					c-13.7-5.3-28.5-8.2-44-8.2s-30.3,2.9-44,8.2c-5,7.6-7.9,16.5-7.9,26.1c0,27.2,23.2,49.3,51.9,49.3c28.7,0,51.9-22.1,51.9-49.3
					C291.7,141.3,288.8,132.3,283.8,124.8 M117.2,239.2c0,61.8,45.8,112.9,105.3,121.3c-5.4-78.8-38.2-135.9-92.2-176.4
					C122,200.7,117.2,219.4,117.2,239.2 M239.8,361.8c3.8,0,7.5-0.2,11.1-0.5c0.9-46.4,12.2-86.1,31.4-119.7h-85.1
					c19.2,33.6,30.5,73.3,31.4,119.7C232.3,361.6,236.1,361.8,239.8,361.8 M239.8,370.6c-72.5,0-131.4-59-131.4-131.4
					c0-72.5,58.9-131.4,131.4-131.4s131.4,59,131.4,131.4C371.3,311.6,312.3,370.6,239.8,370.6"/>
			</g>
			<g id="g5839" transform="matrix(1.25,0,0,-1.25,-4.6035156e-5,519.99996)">
				<path id="path642" inkscape:connector-curvature="0" sodipodi:nodetypes="ccccccccc" class="st3" d="M244.2,136.2l-4.4,5.1
					l-4.4-5.1l-0.2-0.5c0.9-1.7,2.3-3.9,4.1-5.3l0.4-0.2l0.4,0.2c1.8,1.4,3.3,3.6,4.2,5.3L244.2,136.2"/>
				<path id="path644" inkscape:connector-curvature="0" class="st3" d="M248.4,163.8c0,5-6.6,20.6-8.5,20.6l-0.5-0.2
					c-2.4-1.9-8-15.8-8-20.4c0-3.7,7.5-13.6,7.5-18.9l0,0l1-1l1,1v0C240.9,150.2,248.4,160,248.4,163.8"/>
				<path id="path646" inkscape:connector-curvature="0" sodipodi:nodetypes="cssaaaaaacccccc" class="st3" d="M235.6,145.3
					c-3.5,9.3-9.6,14.4-16,14.4c-4.8,0-8.7-3.9-8.7-8.7s4.7-7.9,8.7-8.7c1.3-0.3,2.8,0.5,3.7,1.5c0.7,0.8,1.4,2.2,0.9,3.1
					c-0.2,0.3-0.8,0-1.1,0.2c-1.2,0.6-2.9,1.5-2.9,2.9c0,1.4,1.5,2.8,2.9,2.9c4.5,0.2,7.9-2.7,10.6-8.6v0l0,0l1-0.6l1.1,1.1
					L235.6,145.3"/>
				<path id="path648" inkscape:connector-curvature="0" sodipodi:nodetypes="cccccccaaaaaasc" class="st3" d="M259.8,159.7
					c-6.3,0-12.5-5.1-16-14.4l-0.1-0.4l1.1-1.1l1,0.6l0,0l0,0c2.7,5.9,6.1,8.8,10.6,8.6c1.4-0.1,2.9-1.5,2.9-2.9
					c0-1.4-1.7-2.3-2.9-2.9c-0.3-0.2-0.9,0.1-1.1-0.2c-0.6-0.9,0.2-2.3,0.9-3.1c0.9-1,2.4-1.8,3.7-1.5c4,0.8,8.7,3.9,8.7,8.7
					S264.6,159.7,259.8,159.7"/>
			</g>
		</g>
		<g id="g5507">
			<g id="g5817" transform="matrix(1.25,0,0,-1.25,-4.6035156e-5,519.99996)">
				<path id="path624" inkscape:connector-curvature="0" class="st1" d="M300,371.1l21.2,50.9c-3.5,1.6-7,3-10.6,4.4l-21.2-50.9
					C293,374.2,296.5,372.7,300,371.1"/>
				<path id="path626" inkscape:connector-curvature="0" class="st1" d="M238.9,429.2h20.5c5,0,9.1-4.1,9.1-9.1c0-5-4.1-9.1-9.1-9.1
					h-20.5L238.9,429.2L238.9,429.2z M238.9,384.6v16.7h14l12-19c4.8-0.9,9.5-2,14.1-3.3l-14.4,23c8.3,2.2,15.1,9.5,15.1,18.2
					c0,10.4-9.8,18.9-20.2,18.9h-31.6v-54.8C231.5,384.4,235.2,384.6,238.9,384.6L238.9,384.6L238.9,384.6z"/>
				<path id="path628" inkscape:connector-curvature="0" class="st1" d="M106.1,375.2l15,16.5c3.4,3.7,9.2,4,12.9,0.6
					c3.7-3.4,4-9.1,0.6-12.8l-15-16.5L106.1,375.2z M139.3,345l-12.5,11.4l15.5,17c7,7.7,7,20-0.7,27c-7.7,7-20.2,6-27.2-1.6
					l-23-25.3l40-36.5C133.9,339.8,136.6,342.5,139.3,345"/>
				<path id="path630" inkscape:connector-curvature="0" class="st1" d="M348.2,391.2c8.2,1.9,23.4-13.1,26.3-23.3
					c2.4,1.8,7.8,5.8,7.8,5.8c-6.4,18.2-31.9,36.5-44.1,25.1c-7.2-6.8-3.1-17.3,3.2-23.9l6.1-6.4c6.2-6.5,11.6-13,6.6-17.2
					c-5.3-4.4-20.2,6.6-29.2,25.6l-8-6.1c1.9-5,6.2-12.2,12-18.3c6.6-6.9,13.7-11.4,20.2-12.7c5-1,10.1-0.2,13.4,2.8
					c8.3,7.7,5.3,18.8-7.7,32.5l-5.4,5.7C343.5,387.1,345.9,390.7,348.2,391.2"/>
				<path id="path632" inkscape:connector-curvature="0" class="st1" d="M175.5,394.1l1,23.6l15.5-17.8
					C186.3,398.3,180.9,396.3,175.5,394.1 M178.8,429.8c-3.9-1.2-7.8-2.6-11.6-4.1l-4.1-62.5c3.7,2.3,7.5,4.4,11.4,6.3l0.6,14.6
					c7.5,3.3,15.4,6.1,23.5,8.2l9.6-11c4.2,0.9,8.5,1.6,12.9,2.2L178.8,429.8z"/>
			</g>
			<g id="g5824" transform="matrix(1.25,0,0,-1.25,-4.6035156e-5,519.99996)">
				<path id="path650" inkscape:connector-curvature="0" class="st1" d="M133,113.1l-7.1-3.4l4.9-4.2
					C130.8,105.6,133,113.1,133,113.1z M130.3,93.1l-2.6,2l2.2,7.3l-7,5.9l-7-3.3l-2.4,2.2l20.5,9.7l2.5-2.1L130.3,93.1L130.3,93.1z
					"/>
				<path id="path652" inkscape:connector-curvature="0" class="st1" d="M150.6,104.4L139.1,87l-2.5,1.6l11.5,17.4L150.6,104.4z"/>
				<path id="path654" inkscape:connector-curvature="0" class="st1" d="M159.6,98.7l3.6-19.5l0,0l7.3,13.8l2.6-1.4l-9.5-18.2
					l-2.6,1.2l-3.6,19.7l0,0l-7.4-14l-2.5,1.5l9.6,18.3L159.6,98.7L159.6,98.7z"/>
				<path id="path656" inkscape:connector-curvature="0" class="st1" d="M195.2,83.5l-1-2.8l-6.8,2.4l-5.8-16.8l-2.8,1l5.8,16.8
					l-6.8,2.4l1,2.8C178.8,89.2,195.2,83.5,195.2,83.5z"/>
				<path id="path658" inkscape:connector-curvature="0" class="st1" d="M240.4,68.1l9.4-0.2l-0.1-5.4c-0.1-3.7-4.2-6.1-9.3-6
					c-5.5,0.1-11.1,3.9-11,10.9c0.1,5.9,4.8,10.6,11.4,10.5c4.9-0.1,7.4-2.7,8.6-3.9l-2.1-2.1c-1,1-2.6,2.9-6.3,3
					c-5.4,0.1-8.7-3.4-8.7-7.7c-0.1-4,3-7.7,8.2-7.8c3.6-0.1,6.1,1.5,6.2,3.3l0.1,2.3l-6.5,0.1L240.4,68.1L240.4,68.1z"/>
				<path id="path660" inkscape:connector-curvature="0" class="st1" d="M272.4,80.6l0.4-2.9l-13.7-2l0.8-5.4l6.9,1l0.4-3l-6.9-1
					l0.9-6.2l14.2,2.1l0.4-2.9l-17.2-2.5l-2.9,20.3L272.4,80.6L272.4,80.6z"/>
				<path id="path662" inkscape:connector-curvature="0" class="st1" d="M283.2,80.3l1.8-5.8l8.8,2.6c2.1,0.6,3,2.1,2.4,4
					c-0.7,2.2-2.5,2.3-4.2,1.8C291.9,82.9,283.2,80.3,283.2,80.3z M291.1,85.8c3.2,1,6.6,0.2,7.9-3.8c1.3-4.3-1.2-6.5-2.8-7.1
					l6.4-6.9l-3.1-1.1l-6.4,7l-7.3-2.2l2.5-8.3l-2.8-0.8l-5.9,19.7L291.1,85.8z"/>
				<path id="path664" inkscape:connector-curvature="0" class="st1" d="M336.3,105l1.5-7.7l5.3,3.8L336.3,105z M354.8,97.6
					l-2.6-2.1l-6.4,3.9l-7.5-5.3l1.4-7.4l-2.6-1.7l-4.3,22.1l2.7,1.9L354.8,97.6z"/>
				<path id="path666" inkscape:connector-curvature="0" class="st1" d="M348.4,119.2l14-15.1l-2.2-2l-14,15
					C346.2,117.2,348.4,119.2,348.4,119.2z"/>
				<path id="path668" inkscape:connector-curvature="0" class="st1" d="M356.5,127.3l19.8-1.4l0,0.1l-11.6,10.4l2,2.2l15.3-13.7
					l-1.8-2.2l-20,1.4l0,0l11.8-10.6l-2.1-2.1l-15.3,13.8L356.5,127.3L356.5,127.3z"/>
				<path id="path670" inkscape:connector-curvature="0" class="st1" d="M321.7,99.7l-2.6-1.4l-0.5-14.6l-12.1,8.2l-2.6-1.4l9-18.5
					l2.7,1.2l-6.2,13.1l0,0l11.9-8.1l0.5,14.4l0.1,0l7-12.8l2.6,1.4L321.7,99.7L321.7,99.7z"/>
				<path id="path672" inkscape:connector-curvature="0" class="st1" d="M122.6,126.2c-1.7,6.3-8,12.4-12.8,12.4l-2.9-0.9l-1.7-2.9
					c-0.2-1.8,0.5-4.2,2-6.2l2.2-2.9c1.7-2.3,3.3-4.6,3-6.5l-1.3-1.8l-1.3-0.4c-3,0-8,5.3-10.5,12.9l0,0.1l-2.2-2l0,0v0
					c0.5-1.9,1.8-5,4-7.9c2.3-3,4.9-5.2,7.3-6l2.3-0.4l2.7,0.8l2.1,3.3c0.4,2.4-0.9,5.6-3.8,9.5l-1.9,2.6c-1.5,2.1-1.5,3.4-1.2,4.2
					l1.6,1.2l0.3,0c3.5,0,8.5-5.9,9.8-10.4l0-0.1l0.1,0.1l2.1,1.2L122.6,126.2L122.6,126.2L122.6,126.2z"/>
				<path id="path674" inkscape:connector-curvature="0" class="st1" d="M212.9,67.3l-7.3,1.6l0.7,3l7.3-1.6L212.9,67.3z"/>
			</g>
		</g>
	</g>
</g>
</svg>
