<?xml version="1.0" encoding="utf-8"?>
<!-- Generator: Adobe Illustrator 26.0.2, SVG Export Plug-In . SVG Version: 6.00 Build 0)  -->
<svg version="1.1"
	 id="svg2" xmlns:cc="http://creativecommons.org/ns#" xmlns:dc="http://purl.org/dc/elements/1.1/" xmlns:inkscape="http://www.inkscape.org/namespaces/inkscape" xmlns:rdf="http://www.w3.org/1999/02/22-rdf-syntax-ns#" xmlns:sodipodi="http://sodipodi.sourceforge.net/DTD/sodipodi-0.dtd" xmlns:svg="http://www.w3.org/2000/svg"
	 xmlns="http://www.w3.org/2000/svg" xmlns:xlink="http://www.w3.org/1999/xlink" x="0px" y="0px" width="343px" height="600px"
	 viewBox="0 0 343 600" style="enable-background:new 0 0 343 600;" xml:space="preserve">
<style type="text/css">
	.st0{fill-rule:evenodd;clip-rule:evenodd;fill:#F8D563;}
	.st1{fill:url(#path20_00000105400117168742042200000016446883513104473495_);}
	.st2{fill:url(#path37_00000151526742048202599180000005248820811326892703_);}
	.st3{fill-rule:evenodd;clip-rule:evenodd;fill:#0073B3;}
	.st4{fill-rule:evenodd;clip-rule:evenodd;fill:#C19C2B;}
	.st5{fill:url(#path57_00000142893791626119012680000000965919595855542916_);}
	.st6{fill:url(#path71_00000134232751227291876410000005264178825815222698_);}
	.st7{fill-rule:evenodd;clip-rule:evenodd;fill:#F6D86E;}
	.st8{fill-rule:evenodd;clip-rule:evenodd;fill:#F8E7B8;}
	.st9{fill-rule:evenodd;clip-rule:evenodd;fill:#F3CF56;}
	.st10{fill-rule:evenodd;clip-rule:evenodd;fill:#F8DB85;}
	.st11{fill-rule:evenodd;clip-rule:evenodd;fill:#AF7F26;}
	.st12{fill-rule:evenodd;clip-rule:evenodd;fill:#F7E2A3;}
	.st13{fill-rule:evenodd;clip-rule:evenodd;fill:#F2D04F;}
	.st14{fill-rule:evenodd;clip-rule:evenodd;fill:#F7E9BF;}
	.st15{fill-rule:evenodd;clip-rule:evenodd;fill:#D2A422;}
	.st16{fill-rule:evenodd;clip-rule:evenodd;fill:#F8D660;}
	.st17{fill-rule:evenodd;clip-rule:evenodd;fill:#E8C647;}
	.st18{fill-rule:evenodd;clip-rule:evenodd;fill:#BB2126;}
	.st19{fill-rule:evenodd;clip-rule:evenodd;fill:#CA1E2C;}
	.st20{fill-rule:evenodd;clip-rule:evenodd;fill:#E2002D;}
	.st21{fill-rule:evenodd;clip-rule:evenodd;fill:#EEA2B1;}
	.st22{fill-rule:evenodd;clip-rule:evenodd;fill:#D7B948;}
	.st23{fill-rule:evenodd;clip-rule:evenodd;fill:#FFFFFF;}
	.st24{fill-rule:evenodd;clip-rule:evenodd;fill:#82C2E2;}
	.st25{fill-rule:evenodd;clip-rule:evenodd;fill:#BD2226;}
	.st26{fill-rule:evenodd;clip-rule:evenodd;fill:#F7D75D;}
	.st27{fill-rule:evenodd;clip-rule:evenodd;fill:#0070B1;}
	.st28{fill-rule:evenodd;clip-rule:evenodd;fill:#C4D0E0;}
	.st29{fill-rule:evenodd;clip-rule:evenodd;fill:#FFFFFF;stroke:#1B1918;stroke-width:3.136194e-03;stroke-miterlimit:4.4802;}
	.st30{fill-rule:evenodd;clip-rule:evenodd;fill:#9A9486;}
	.st31{fill-rule:evenodd;clip-rule:evenodd;fill:#C3C2C2;}
	.st32{fill-rule:evenodd;clip-rule:evenodd;fill:#D3D1D0;}
	.st33{fill-rule:evenodd;clip-rule:evenodd;fill:#F7D761;}
	.st34{fill-rule:evenodd;clip-rule:evenodd;fill:#DEC35A;}
	.st35{fill-rule:evenodd;clip-rule:evenodd;fill:#B3ABA1;}
	.st36{fill-rule:evenodd;clip-rule:evenodd;fill:#D4D2D0;}
	.st37{fill-rule:evenodd;clip-rule:evenodd;fill:#906F28;}
</style>
<sodipodi:namedview  bordercolor="#666666" borderopacity="1" gridtolerance="10" guidetolerance="10" id="namedview437" inkscape:current-layer="svg2" inkscape:cx="465.45269" inkscape:cy="283.79325" inkscape:pageopacity="0" inkscape:pageshadow="2" inkscape:window-height="691" inkscape:window-maximized="1" inkscape:window-width="1280" inkscape:window-x="0" inkscape:window-y="1" inkscape:zoom="0.43747199" objecttolerance="10" pagecolor="#ffffff" showgrid="false">
	</sodipodi:namedview>
<g id="Layer1000" transform="matrix(1.0583334,0,0,1.0583334,-143.63828,-145.49989)">
	<g id="Layer1001">
		<path id="path6" inkscape:connector-curvature="0" class="st0" d="M165.4,318.4l28.9-7c1.2-2.2,6.6-4.5,10.7-4.7
			c62.6-4.3,123.3-3.3,185.9,0.4c3.6,0.2,8.4,2.3,11.2,4.6l26.3,6.5L165.4,318.4L165.4,318.4z"/>
		
			<linearGradient id="path20_00000078751433274870802280000006510144242493478074_" gradientUnits="userSpaceOnUse" x1="313.9392" y1="927.6297" x2="313.9392" y2="980.122" gradientTransform="matrix(4.5737 0 0 0.2743 -1137.6906 49.4268)">
			<stop  offset="1" style="stop-color:#F8D563"/>
			<stop  offset="1" style="stop-color:#F8D563"/>
			<stop  offset="1" style="stop-color:#F5E7B8"/>
			<stop  offset="1" style="stop-color:#F6E8BB"/>
		</linearGradient>
		
			<path id="path20" inkscape:connector-curvature="0" style="fill:url(#path20_00000078751433274870802280000006510144242493478074_);" d="
			M194.3,311.5c1.2-2.2,6.6-4.5,10.7-4.7c62.6-4.3,123.3-3.3,185.9,0.4c3.6,0.2,8.4,2.3,11.2,4.6c9.8,5.3-5,3.9-14.3,2.9
			c-13.1-1.4-57.5-2.5-83.3-2.5c-18.9,0-43.4,0.4-68.7,1.6c-13.8,0.7-30.9,3.2-38.6,3C188.5,316.6,190.4,313.6,194.3,311.5
			L194.3,311.5z"/>
		
			<linearGradient id="path37_00000032649669561793074750000016458856561398271639_" gradientUnits="userSpaceOnUse" x1="281.8761" y1="1096.7612" x2="322.1871" y2="1096.7612" gradientTransform="matrix(5.7753 0 0 0.2173 -1433.6262 69.589)">
			<stop  offset="1" style="stop-color:#F0D060"/>
			<stop  offset="1" style="stop-color:#F0D05F"/>
			<stop  offset="1" style="stop-color:#E7C546"/>
			<stop  offset="1" style="stop-color:#E8C646"/>
			<stop  offset="1" style="stop-color:#EFCF5D"/>
			<stop  offset="1" style="stop-color:#F0D05F"/>
		</linearGradient>
		
			<path id="path37" inkscape:connector-curvature="0" style="fill:url(#path37_00000032649669561793074750000016458856561398271639_);" d="
			M194.3,311.5c1.2-2.2,6.6-4.5,10.7-4.7c62.6-4.3,123.3-3.3,185.9,0.4c3.6,0.2,8.4,2.3,11.2,4.6
			C336.7,306.3,219.2,307.4,194.3,311.5L194.3,311.5z"/>
	</g>
	<g id="Layer1002">
		<path id="path40" inkscape:connector-curvature="0" class="st3" d="M173.5,252.1c2.3-0.5,4-0.2,5.1-1.7c1.2-1.6,0.6-4.8,4.5-5.6
			c7.7-1.7,20.3,0.7,28-1.1c2.6-0.6,8.4-0.4,11.1-0.2c11,1,16.8-3.9,25.7-8.4c3.8-1.9,8.4-3.4,11.8-4.6c6.6-2.3,18.4-2.9,23.2-3.1
			c10.1-0.4,18.5,4,29.1,4.8c8.8,0.6,22.6-2,27.5-1.7c4.9,0.2,9.8,2,14.3,3.7c2.6,1,5.1,2.2,6.6,3.5c1.4,1.2,1.8,2.5,4.2,3.7
			c1.4,0.7,3.6,1.4,6.9,1.9c2.6,0.4,5.3,5.9,8.7,5.9c11.9-0.3,17.5-0.7,24.4,0c5.1,0.5,11.4,2.1,16.5,6.1l-21.3,30.6l-204,1
			L173.5,252.1L173.5,252.1z"/>
		<path id="path42" inkscape:connector-curvature="0" class="st4" d="M288.4,188.3c-11.6,4.1-42.1,16.7-58.3,33.2
			c-3.4,3.5-4.3,16.6-4,22c0.2,3,0.9,6.5,2.7,10.3c2.7,5.6,6.4,11.6,8.2,15l2.6-0.2c0.9-0.1,1.8,0.6,1.9,1.5
			c0.1,0.6-0.2,1.2-0.7,1.6c3.4,2,6.8,2.5,9.5,1.9c1.4-0.3,4-1.2,5.8-3.8c1.4-2.1,2.3-6.1,2.7-10.7c2.2,4,4,8.1,7.5,10.6
			c2.2,1.6,6.2,2.5,9,2.8c3.6,0.4,8.2,0.2,12.4-2c-0.6-0.3-1.1-0.9-1.1-1.6c0-0.9,0.8-1.7,1.7-1.7h3c-5.2-11.3-13.1-26.5-14.2-32.5
			c-1.2-6-1-12.3-0.1-18.7c0.5-3.6,2-7.9,4.1-12.5C283.5,198.1,286.4,192.7,288.4,188.3L288.4,188.3z M403,293.4
			c1,1,1.5,3.8,0.3,7.3c-1.3,3.6-4.4,6.7-6.2,8.1c0,0-0.2,0-0.4,0l0,0c-33.2-2.7-66.1-4.1-98.6-4.2c-33.6-0.1-66.5-0.1-99.7,4
			l-0.6-1.4c-1.7-1.6-3.9-4-4.9-6.9c-0.7-2-0.8-3.7-0.6-5.1l-1.1-2.4c-3.2,0.1-5.2-1.6-5.6-3.5c-0.5-2,0.8-4.3,4.2-5l0.5-0.1v-3
			l-4,1c-0.9,0.2-1.9-0.3-2.1-1.2c-0.2-0.9,0.3-1.9,1.2-2.1l0.4-0.1c-4.5-2.9-8.8-6.4-12.6-11.2c-6.5-8.3-10.4-18.5-10.5-30.8
			c0-9.7,4.1-16.1,11-22.5c7-6.4,14.4-11.2,24.6-14.1c7.1-2,17.3-4.3,25.6-5.3c10-1.2,18.6-1.5,28.3-2.5c7.5-0.8,25.3-7.2,38.2-10.6
			c0-0.1,0-0.1,0-0.2h-3c-1,0-1.8-0.9-1.8-2s0.8-2,1.8-2h2.3c-0.4-3.3-1.2-5.4-2.1-6.6c-1.6-2.1-5.6-2.4-6.9-1.6
			c-1.5,0.9-1.2,2.6-0.1,6.4c-4.2-1.4-8.9-4.1-10.7-7.7c-1.1-2.2-1-5.3,0.7-7.2c2.3-2.6,6.7-4,10.2-4.3c3.1-0.2,5.7,0.4,7.9,1.8
			c-1.9-3.3-3.5-5.4-3.1-8.2c0.2-1.6,1.5-3.5,3.1-5.3c2.4-2.6,5.4-5.2,8.1-7.4c2.1,1.6,5,4.2,7.7,6.9c1.7,1.8,3.3,3.7,3.3,5.9
			c0.1,2.2-0.9,4.7-2.3,7.8c2.6-1.6,5.6-2.3,8.7-2.1c1.9,0.1,3.4,0.7,5,1.6c1,0.6,1.9,1.4,2.7,2.4c2.2,2.9,2.8,6.9,0.8,10
			c-2,3-6.9,4.8-9,5.6c1-2.1,1.2-3.8,0.4-5.4c-1.1-2.1-3.8-2.8-5.9-1.7c-1.6,0.8-2.2,2.3-2.8,3.8c-0.6,1.5-1.3,3.3-1.9,5.1h2.9
			c1,0,1.8,0.9,1.8,2s-0.8,2-1.8,2h-2.3v0.2c12.9,3.3,30.5,8.3,37.9,9.7c10.6,2.1,19,2.6,28.9,3.8c18.5,2.2,36.7,8.5,49.5,18.9
			c3.8,3.1,6.7,5.5,8.6,8.8c1.8,3.1,2.8,6.8,3.1,11.5c0.6,12.6-3.7,23.6-11,32.5c-2.4,3-5,5.6-7.7,7.9c-1.6,1.3-3.2,2.6-4.6,4
			l0.8,0.2c0.9,0.2,1.5,1.2,1.2,2.1c-0.2,0.9-1.2,1.4-2.1,1.2l-4.4-1.1l-0.1,2.9h0.1c3.6,0.4,5.1,2.5,4.9,4.6
			c-0.2,2.3-2.4,4.6-6.2,4.4L403,293.4L403,293.4z M304.3,267.1h2.1c1,0,1.7,0.8,1.7,1.7c0,0.5-0.2,0.9-0.5,1.2
			c2.8,2,7.2,2.7,10.6,2.4c3.7-0.3,10.1-1.9,13-4.7c1.7-1.7,3.2-3.9,4-7.1c1.7,4.9,2.4,11.8,8.2,13c2.9,0.6,5.7,0,10.6-2.2
			c-0.2-0.3-0.3-0.7-0.3-1.1c0.1-0.9,1-1.6,1.9-1.5l2.7,0.3c4.9-5,7.3-11.6,8.7-19.1c0.9-4.7,1.9-10.3,1.8-14.9
			c-0.1-5.4-1.2-10.1-4.6-13.6c-16.2-16.5-44.5-29.1-58.3-33.6c1.4,3.8,3.3,7.5,5.1,11.2c4.2,8.5,9,16.6,9,23.5
			c0,4.8-1.2,8.8-3.5,15.7c-1.3,4.2-5.5,12.9-8.5,19.5C306.7,261.2,305.3,264.5,304.3,267.1L304.3,267.1z M226.4,273.2l-1.5,0.1
			c-0.9,0.1-1.8-0.6-1.9-1.5c-0.1-0.9,0.6-1.8,1.5-1.9l1.5-0.1c-9.1-7.2-27.5-22.3-26.7-37.8c0.3-5.1,1.5-9,3.4-12.5
			c3.3-6.3,10.1-10.2,28.1-19.5c-15,1.4-28.3,4.5-36.9,8c-5.8,2.4-11.4,6.6-15.8,11.2c-4.8,5-7.5,11-6.7,19.2
			c1.2,11.7,9.7,17.2,16.6,27.2c3.9,5.6,3.3,7.1,3.8,10.3c0.1,0.4,0.2,0.9,0.4,1.3l3.8-0.9c0.9-0.2,1.9,0.3,2.1,1.2
			c0.2,0.9-0.3,1.8-1.1,2.1c2.9,0.1,5.3-0.5,7.3-2c2.3-1.8,2.8-6.8,2.9-11.8c3.5,5.1,7,11,13.4,10.6
			C222.3,276.2,224.7,275.2,226.4,273.2L226.4,273.2z M397.4,279.2c-2.3,0.3-4.2,0.1-5.9-1.5c-2.5-2.4-2.2-5.7-3.3-12
			c-5.4,8.5-7.3,9.6-10.8,10.2c-2.6,0.4-6-0.3-8.5-2.4l0.9,0.1c0.9,0.1,1.8-0.6,1.9-1.5s-0.6-1.8-1.5-1.9L369,270
			c3.5-2.9,8.1-7,12.5-11.6c7.4-7.7,14-14.1,14.4-24c0.2-6.2-0.7-10.9-3.3-14.6c-4-5.9-11.5-10.6-29.6-19.9c21,0,38.5,6.9,53,18.6
			c6.6,5.3,10,12.5,9.2,20.6c-0.7,6.4-4.5,11.1-8.3,15.6c-3.2,3.7-7.6,8-10.2,12.4c-3.5,5.9-3,6.4-3.6,9.7c0,0.2-0.1,0.4-0.2,0.6
			l-3.8-0.9c-0.9-0.2-1.9,0.3-2.1,1.2C396.9,278.2,397.1,278.8,397.4,279.2L397.4,279.2z"/>
		<g id="Layer1003">
			
				<linearGradient id="path57_00000031908552263562597180000007966832092300582275_" gradientUnits="userSpaceOnUse" x1="316.8781" y1="811.7164" x2="316.8781" y2="868.7411" gradientTransform="matrix(4.3725 0 0 0.2869 -1088.1433 44.9846)">
				<stop  offset="1" style="stop-color:#E8C647"/>
				<stop  offset="1" style="stop-color:#E8C74B"/>
				<stop  offset="1" style="stop-color:#F5E7B8"/>
				<stop  offset="1" style="stop-color:#F6E8BB"/>
			</linearGradient>
			
				<path id="path57" inkscape:connector-curvature="0" style="fill:url(#path57_00000031908552263562597180000007966832092300582275_);" d="
				M402.3,292.4c1.6,0.2,3.3,0.1,4.7-0.8c0.9-0.6,1.6-1.6,1.7-2.8c0.2-2.5-2.2-3.6-4.3-3.9c-14.3-1.7-28.7-3.2-43-4.4
				c-10.5-0.9-20.9-1.6-31.4-2c-10.8-0.4-21.7-0.6-32.5-0.6c-17.1,0-34.1,0-51.2,0.9c-4.6,0.2-9.1,0.5-13.7,0.9
				c-14.2,1.1-28.7,2.6-42.7,5.3c-2,0.4-4.3,1.8-3.7,4.2c0.2,1,0.9,1.8,1.8,2.3c1.3,0.7,2.8,0.8,4.2,0.5c5.9-1,12-1.8,18-2.4
				c7.9-0.9,15.8-1.5,23.8-2.1s16.1-1.1,24.1-1.5c13.2-0.7,26.6-1.1,39.8-1c21.1,0.2,42.3,1,63.4,2.7
				C375.1,288.7,388.7,290.3,402.3,292.4L402.3,292.4z"/>
			
				<linearGradient id="path71_00000085252842237078460140000002989879211864698527_" gradientUnits="userSpaceOnUse" x1="315.9189" y1="792.1464" x2="315.9189" y2="845.915" gradientTransform="matrix(4.4336 0 0 0.283 -1103.1984 46.3516)">
				<stop  offset="1" style="stop-color:#E8C647"/>
				<stop  offset="1" style="stop-color:#E8C74B"/>
				<stop  offset="1" style="stop-color:#F5E7B8"/>
				<stop  offset="1" style="stop-color:#F6E8BB"/>
			</linearGradient>
			
				<path id="path71" inkscape:connector-curvature="0" style="fill:url(#path71_00000085252842237078460140000002989879211864698527_);" d="
				M400.1,283.7c1.2,0.1,2.4,0.3,3.7,0.4l0.1-2.2C402.7,282.8,401.4,283.4,400.1,283.7L400.1,283.7z M191,281.7v2.3
				c1.8-0.3,3.5-0.6,5.3-1C194.5,282.8,192.7,282.3,191,281.7z M205.3,281.7c4.8-0.7,9.7-1.2,14.6-1.7c-3.6,0.1-7.1-1.4-10.1-3.4
				C208.6,279.1,207.3,280.7,205.3,281.7z M221.6,279.9c3.7-0.4,7.3-0.7,10.9-0.9c4.6-0.4,9.1-0.6,13.7-0.9
				c17.1-0.9,33.7-0.9,51.2-0.9c22.9,0,41.3,0.7,64,2.6c9.3,0.8,19.5,1.7,30.9,3c-2.7-1.3-5-3.4-6.6-5.9c-3.6,2.1-8.6,2.4-12.7,2.2
				c-5.4-0.3-8-2.7-11.9-6.2c-3.9,2.3-9.7,4.9-14.1,4.7c-5.1-0.2-9.2-2.9-12.8-6.3c-6.6,2.7-14.4,5.4-21.6,4.7
				c-4.5-0.4-8.5-2.2-11.6-5.5h-6.8c-3.7,3.1-8.2,5.4-13,5.8c-6.2,0.6-14-1.9-19.6-4.7c-4,3.3-9,5.3-14.2,5.5
				c-5.1,0.2-10.4-2-14.5-4.8C230.2,275.5,225.6,279.2,221.6,279.9L221.6,279.9z"/>
			<path id="path73" inkscape:connector-curvature="0" class="st7" d="M335.3,262.8c-0.8,2-2,3.8-3.5,5.4c-2.9,2.9-9.4,4.5-13.4,4.9
				c-3.4,0.3-8.2-0.3-11.2-2.6c-0.2,0.1-0.4,0.1-0.7,0.1H302c2.9,2.9,6.6,4.4,10.7,4.8c7.1,0.7,15-2,21.5-4.7l0.2-0.1l0.2,0.2
				c3.5,3.3,7.6,6.1,12.5,6.3c4.1,0.1,9.6-2.2,13.3-4.4l-5-0.5c-0.3,0-0.5-0.1-0.8-0.3c-3.2,1.5-6.8,2.8-10.1,2.5
				c-0.4,0-0.7-0.1-1.1-0.2C337.9,273.1,336.6,267.5,335.3,262.8L335.3,262.8z M361.9,272.8c3.5,3.2,6.1,5.4,11.1,5.7
				c4,0.2,9.1,0,12.6-2.3l0.3-0.2l0.2,0.3c2.3,3.4,5.8,6.3,9.9,6.9h0.1l0.5,0.1c2.6,0.2,5.2-0.5,7.3-2.2l-5.5-1.4
				c-2.6,0.4-5.1,0.4-7.2-1.5c-0.5-0.4-0.8-0.9-1.2-1.4c-0.8-1.4-1.1-3-1.4-4.5c-0.2-1.6-0.4-3.1-0.7-4.7c-1.3,2-2.7,4.1-4.3,5.8
				c-1.2,1.2-2.4,2.2-4,2.8c-0.6,0.2-1.3,0.3-1.9,0.4c-3.5,0.5-7.2-0.7-9.6-3.2L361.9,272.8L361.9,272.8z M288.8,270.5
				c-4.1,2.4-8.9,3.1-13.7,2.5c-2.9-0.3-7-1.2-9.4-3c-3-2.2-4.9-5.6-6.6-8.9c-0.4,3-1.1,6.6-2.6,8.8c-1.5,2.2-3.6,3.5-6.2,4.1
				c-3.5,0.9-7.3-0.3-10.4-2.2h-0.1l-5.8,0.5c3.9,2.4,8.6,4.3,13.2,4.1c5.1-0.2,10.1-2.2,14-5.5l0.2-0.1l0.2,0.1
				c5.5,2.8,13.3,5.3,19.5,4.7c4.4-0.4,8.5-2.5,12-5.2L288.8,270.5L288.8,270.5z M227.3,273.1c-1.6,2.1-4,3.7-6.6,3.9
				c-1.7,0.1-3.3-0.2-4.9-0.9c-3.3-1.6-5.8-5-8-8.2c-0.1,3.5-0.7,8.4-3.1,10.2c-2.8,2.1-6.3,2.4-9.7,2l-4.1,1l0,0
				c2.6,0.9,5.5,1.7,8.2,1.6c1.1-0.2,2.2-0.3,3.3-0.5c3.5-1,5.2-2.7,6.8-6.1l0.2-0.4l0.3,0.2c3.3,2.2,7.3,3.9,11.4,3.3
				c3.6-0.5,7.8-3.7,10.4-6.5L227.3,273.1L227.3,273.1z"/>
			<path id="path75" inkscape:connector-curvature="0" class="st8" d="M291.3,181.4c-0.1,2.1-1.3,4.8-1.9,6.2c-1.8,4.2-4,8.3-6,12.5
				c-0.6,1.2-1.1,2.4-1.7,3.5c-1.7,3.8-3.5,8.2-4,12.3c-0.9,6.1-1.1,12.4,0.1,18.4c0.3,1.3,0.7,2.7,1.2,3.9c0.6,1.8,1.4,3.5,2.1,5.3
				c1.9,4.3,3.9,8.5,5.9,12.7c1.7,3.6,3.4,7.2,5.1,10.8h3.7c-1.9-5.8-3.9-11.5-6.2-17.2c-2.3-5.5-6-12.8-7.2-16.7
				c-1.8-5.9-0.8-16.9,1-23.1c2.1-7.3,7.4-18.3,10.8-28.6L291.3,181.4L291.3,181.4z M300.7,267.1h3.1c1.2-3.3,2.5-6.4,3.9-9.6
				c1-2.2,2-4.4,3-6.6c1.1-2.4,2.2-4.8,3.3-7.3c0.8-1.8,1.6-3.7,2.2-5.6c1.6-5,3.4-10.2,3.4-15.5c0-3.7-1.4-7.6-2.9-10.9
				c-1.8-4.2-4-8.2-6.1-12.3c-2.8-5.7-5.9-11.6-7-17.9h-3.2c2.1,6.8,5.1,13.9,7.8,20.7c2.1,5.3,4.1,10.3,5.3,14.9
				c1.3,5,1.5,8.5,0.1,13.4C311.4,238.7,305.6,251.2,300.7,267.1L300.7,267.1z"/>
			<path id="path77" inkscape:connector-curvature="0" class="st9" d="M294.9,181.4c-0.8,2.5-1.7,5-2.7,7.4
				c-1.5,3.9-3.1,7.8-4.7,11.7c-1.3,3.2-2.6,6.5-3.6,9.8c-1.7,5.9-2.8,16.7-1,22.6c0.5,1.6,1.2,3.2,1.8,4.7c0.8,1.9,1.7,3.9,2.6,5.8
				c0.9,2.1,1.9,4.1,2.8,6.2c2.4,5.7,4.4,11.6,6.3,17.5h3.3c2.1-6.7,4.4-13.2,6.9-19.8c1.2-3.2,2.4-6.3,3.6-9.5
				c0.9-2.5,1.8-5,2.5-7.6c1.3-4.8,1.1-8.2-0.1-13c-1.3-5-3.3-10-5.3-14.8c-2.8-6.8-5.8-13.9-7.9-21L294.9,181.4L294.9,181.4z"/>
			<path id="path79" inkscape:connector-curvature="0" class="st10" d="M288.3,267.7c-0.6,0-1.1,0.5-1.1,1.1s0.5,1.1,1.1,1.1h18.1
				c0.6,0,1.1-0.5,1.1-1.1s-0.5-1.1-1.1-1.1H288.3z"/>
			<path id="path81" inkscape:connector-curvature="0" class="st11" d="M297,224.7v42.4h1v-42.4L297,224.7L297,224.7z"/>
			<path id="path83" inkscape:connector-curvature="0" class="st12" d="M287.6,178.1c-0.7,0-1.1,0.7-1.1,1.3s0.4,1.3,1.1,1.3h18.9
				c0.7,0,1.1-0.7,1.1-1.3s-0.4-1.3-1.1-1.3H287.6z"/>
			<path id="path85" inkscape:connector-curvature="0" class="st13" d="M295.7,177.4c-0.2-4.6-1-10.5-3.1-14
				c-2.7-4.5-6.3-6.5-11.6-6.2c-3.3,0.2-7.5,1.5-9.7,4c-1.5,1.7-1.5,4.5-0.6,6.4c1.6,3.2,5.6,5.6,9.1,7c-0.5-1.7-0.9-3.8-0.1-5.1
				c0.2-0.4,0.5-0.6,0.9-0.9c1.3-0.8,3.6-0.6,5-0.1c1.1,0.3,2.1,0.9,2.8,1.8c1.4,1.8,2,4.6,2.2,7h5.1V177.4z"/>
			<path id="path87" inkscape:connector-curvature="0" class="st13" d="M315.1,174.4c2.7-1.1,5.8-2.5,7.2-4.8
				c1.9-2.9,1.2-6.6-0.8-9.2c-0.7-0.9-1.5-1.6-2.5-2.2c-1.5-0.9-3-1.4-4.7-1.5c-5.2-0.4-10.2,2.1-12.9,6.6c-2.1,3.6-2.9,9.5-3.1,14
				h4.5c0.6-1.8,1.3-3.6,2-5.3s1.4-3.3,3.2-4.1c2.4-1.2,5.5-0.4,6.8,2C315.6,171.4,315.5,173,315.1,174.4L315.1,174.4z"/>
			<path id="path89" inkscape:connector-curvature="0" class="st13" d="M297,138.3c-2.7,2.1-5.4,4.4-7.6,6.9
				c-1.1,1.2-2.7,3.2-2.9,4.9c-0.1,0.6,0,1.2,0.1,1.8c0.2,1.3,0.9,2.5,1.5,3.6c0.7,1.3,1.5,2.6,2.2,3.9c1.1,1,2,2.2,2.9,3.6
				c1.9,3.2,3,8.7,3.2,14.4h1.3c0.2-5.6,1.3-11.2,3.2-14.4c1-1.7,2.3-3.1,3.8-4.2c0.2-0.5,0.5-1,0.7-1.5c0.9-2,2.1-4.7,2-6.9
				c-0.1-2.1-1.7-4-3.1-5.5C301.9,142.6,299.5,140.3,297,138.3L297,138.3z"/>
			<path id="path91" inkscape:connector-curvature="0" class="st14" d="M294.2,167.3c-0.4-1.5-1-2.8-1.6-3.9
				c-2.7-4.5-6.3-6.5-11.6-6.2c-3.3,0.2-7.5,1.5-9.7,4c-1.5,1.7-1.5,4.5-0.6,6.4c0.5,1.1,1.4,2.1,2.4,3c0.4-2.6,0.8-4.5,1.7-6
				c1.4-2.2,2.9-2.2,5.4-2.3C282.9,162.3,290.8,164.5,294.2,167.3z"/>
			<path id="path93" inkscape:connector-curvature="0" class="st14" d="M323,163.5c-0.3-1.1-0.9-2.1-1.6-3s-1.5-1.6-2.5-2.2
				c-1.5-0.9-3-1.4-4.7-1.5c-5.2-0.4-10.2,2.1-12.9,6.6c3.5-2.2,6.7-3.8,10.3-3.8C315,159.5,320,160.6,323,163.5L323,163.5z"/>
			<path id="path95" inkscape:connector-curvature="0" class="st14" d="M297.4,139.6c-0.6,0.3-0.1,1.4-0.6,1.6
				c-6,2.4-8.2,6.1-8.5,10c-0.3,4.6,6.4,10.4,8.6,12.2c0.3-1.1,0.2-3.9,0.5-4.7c2.5-1.7,4-3.3,5.1-4.8c1.7-2.2,2.9-5.8,0.3-9.1
				C301,142.5,298.3,140.3,297.4,139.6L297.4,139.6z"/>
			<path id="path97" inkscape:connector-curvature="0" class="st15" d="M298.3,139.5v31.2c-0.4,2.1-0.6,4.4-0.7,6.8h-1.3
				c0-1.2-0.1-2.4-0.2-3.5v-35l0,0l0,0l0,0l0,0l0,0l0,0l0,0l0,0l0,0l0,0l0,0l0,0l0,0l0,0l0,0l0,0l0,0l0,0l0,0l0,0l0,0l0,0l0,0l0,0
				l0,0l0,0l0,0l0,0l0,0l0,0l0,0l0,0l0,0l0,0l0,0l0,0l0,0l0,0l0,0l0,0l0,0l0,0l0,0l0,0l0,0l0,0l0,0l0,0l0,0l0,0l0,0l0,0l0,0l0,0l0,0
				l0,0l0,0l0,0l0,0l0,0l0,0l0,0l0,0l0,0l0,0l0,0l0,0l0,0l0,0l0,0l0,0l0,0l0,0l0,0l0,0l0,0l0,0l0,0l0,0l0,0l0,0l0,0l0,0l0,0l0,0l0,0
				l0,0l0,0l0,0l0,0l0,0l0,0l0,0l0,0l0,0l0,0l0,0l0,0l0,0l0,0l0,0l0,0l0,0l0,0l0,0l0,0l0,0l0,0l0,0l0,0l0,0l0,0l0,0l0,0l0,0l0,0l0,0
				l0,0l0,0l0,0l0,0l0,0l0,0l0,0l0,0l0,0l0,0l0,0l0,0l0,0l0,0l0,0l0,0l0,0l0,0l0,0l0,0L298.3,139.5L298.3,139.5L298.3,139.5
				L298.3,139.5L298.3,139.5L298.3,139.5L298.3,139.5z"/>
			<path id="path99" inkscape:connector-curvature="0" class="st16" d="M236.2,268.8l-0.1-0.3c-0.6-1.1-1.2-2.1-1.8-3.2
				c-1.5-2.7-3.1-5.3-4.5-8.1c-0.6-1.1-1.1-2.1-1.6-3.2c-1.6-3.3-2.5-6.9-2.7-10.5c-0.3-5.2,0.5-18.8,4.2-22.6
				c5.7-5.8,12.7-10.7,19.6-14.9c7.6-4.6,15.6-8.7,23.7-12.2c5.2-2.3,10.5-4.5,15.9-6.4c0.8-2,1.5-3.7,1.7-5.1
				c-4.4,1.2-8.8,2.5-13.2,3.9c-4.7,1.4-9.4,2.9-14.1,4.2c-2,0.6-4,1.1-6,1.6c-1.5,0.4-3.1,0.7-4.7,0.9c-9.4,1-18.9,1.4-28.3,2.5
				c-3.6,0.4-7.1,1-10.6,1.8c-5,1-10,2.2-14.9,3.6c-9.6,2.7-17.1,7.2-24.4,13.9c-6.8,6.3-10.8,12.5-10.8,22
				c0,11.2,3.4,21.5,10.3,30.4c3.7,4.7,8,8.3,12.9,11.4l4.8-1.2c-0.2-0.4-0.4-0.9-0.4-1.4c-0.1-0.8-0.2-1.7-0.3-2.5
				c-0.4-2.9-1.7-5.1-3.4-7.5c-2.1-3-4.5-5.8-6.9-8.6c-2.2-2.6-4.4-5.2-6.2-8.1c-2-3.4-3.3-6.8-3.7-10.8c-0.8-7.8,1.6-14.2,6.9-19.7
				c4.4-4.6,10.1-8.9,16-11.3c5.2-2.1,10.7-3.6,16.2-4.8c6.9-1.5,13.9-2.6,20.9-3.3l3.5-0.3l-3.1,1.6c-3.9,2-7.7,4-11.5,6.1
				c-2.7,1.5-5.4,3-8,4.8c-3.4,2.2-6.4,4.8-8.3,8.4c-2.1,3.9-3.1,7.8-3.3,12.3c-0.4,8,4.5,15.8,9.5,21.7c3.2,3.7,6.8,7.1,10.5,10.3
				c2.3,2,4.6,3.8,7,5.7L236.2,268.8L236.2,268.8z"/>
			<path id="path101" inkscape:connector-curvature="0" class="st16" d="M370.3,270.8l-14.6-1.4c-0.6-0.1-1.1,0.3-1.2,0.9
				s0.3,1.1,0.9,1.2l14.6,1.4c0.6,0.1,1.1-0.3,1.2-0.9S370.9,270.8,370.3,270.8z"/>
			<path id="path103" inkscape:connector-curvature="0" class="st16" d="M409.6,279.7l-10.6-2.6c-0.6-0.1-1.2,0.2-1.3,0.7
				c-0.1,0.5,0.2,1.2,0.7,1.3l10.6,2.6c0.6,0.1,1.2-0.2,1.3-0.7C410.5,280.4,410.2,279.8,409.6,279.7L409.6,279.7z"/>
			<path id="path105" inkscape:connector-curvature="0" class="st16" d="M368.1,269.9c4.5-3.7,8.9-7.8,12.9-12
				c6.5-6.8,13.8-13.5,14.2-23.6c0.2-4.9-0.3-10.1-3.1-14.2c-2.4-3.5-5.9-6.2-9.4-8.5c-2.7-1.8-5.5-3.4-8.3-5
				c-3.8-2.1-7.7-4.2-11.6-6.2l-2.5-1.3h2.8c20,0,37.8,6.3,53.4,18.7c6.7,5.3,10.3,12.6,9.4,21.2c-0.7,6.5-4.4,11.2-8.5,15.9
				c-3.4,4-7.5,7.8-10.2,12.3c-1.2,2-2.7,4.5-3.1,6.9c-0.1,0.8-0.2,1.7-0.4,2.6c0,0.2-0.1,0.5-0.2,0.7l4.6,1.1
				c1.5-1.5,3.3-2.9,5-4.3c2.8-2.4,5.3-5,7.6-7.8c7.4-9.2,11.4-20.2,10.8-32c-0.2-3.9-1-7.8-3-11.2c-2.1-3.4-5.4-6.1-8.5-8.6
				c-13.5-10.9-32.1-16.7-49.1-18.7c-3.9-0.5-7.8-0.9-11.7-1.3c-5.8-0.6-11.5-1.4-17.3-2.5c-3.5-0.7-7.1-1.6-10.6-2.6
				c-4.7-1.2-9.5-2.5-14.2-3.8c-4.2-1.1-8.5-2.3-12.8-3.4c0.3,1.6,0.8,3.1,1.3,4.6c5.6,1.8,11.3,4.1,16.7,6.5
				c8,3.6,15.9,7.7,23.3,12.4c6.8,4.3,13.5,9.2,19.2,15c3.7,3.8,4.7,8.9,4.8,14.1c0.1,4.9-0.9,10.2-1.8,15c-1.4,7.1-3.6,13.8-8.5,19
				L368.1,269.9L368.1,269.9z"/>
			<path id="path107" inkscape:connector-curvature="0" class="st16" d="M224.5,270.6c-0.6,0.1-1,0.6-0.9,1.2s0.6,1,1.2,0.9
				l15.1-1.4c0.6-0.1,1-0.6,0.9-1.2s-0.6-1-1.2-0.9L224.5,270.6z"/>
			<path id="path109" inkscape:connector-curvature="0" class="st16" d="M185.6,279.5c-0.6,0.1-0.9,0.7-0.7,1.3
				c0.2,0.6,0.8,0.9,1.3,0.7l10.6-2.6c0.6-0.1,0.9-0.8,0.7-1.3c-0.2-0.6-0.7-0.9-1.3-0.7L185.6,279.5L185.6,279.5z"/>
			<path id="path111" inkscape:connector-curvature="0" class="st14" d="M225.4,238.3c0.4-7.7,1.5-14.5,4.2-17.3
				c5.7-5.8,12.7-10.7,19.6-14.9c7.6-4.6,15.6-8.7,23.7-12.2c5.2-2.3,10.5-4.5,15.9-6.4c0.4-1,0.8-1.9,1.1-2.7
				c-13.8,4.1-35,13.5-53.4,26.5c-7.5,5.3-12.8,10-13.4,14.2C222.5,229.8,222.8,233.8,225.4,238.3L225.4,238.3z"/>
			<path id="path113" inkscape:connector-curvature="0" class="st14" d="M427.5,227.6c2.5,7.1,1.1,16.4-5.4,27
				c-6.1,10-12.5,18.1-16.6,23.3l2.8,0.7c1.5-1.5,3.3-2.9,5-4.3c2.8-2.4,5.3-5,7.6-7.8c7.4-9.2,11.4-20.2,10.8-32
				c-0.2-3.9-1-7.8-3-11.2c-2.1-3.4-5.4-6.1-8.5-8.6c-13.5-10.9-32.1-16.7-49.1-18.7c-3.9-0.5-7.8-0.9-11.7-1.3
				c-4.9-0.5-9.7-1.2-14.6-2c-0.9-0.2-1.8-0.3-2.7-0.5c18.2,5.3,31.5,5.5,41.8,8c13.9,3.5,21.8,7.5,27.6,10.9
				C418.1,214.9,424.8,220.1,427.5,227.6L427.5,227.6z"/>
			<path id="path115" inkscape:connector-curvature="0" class="st14" d="M305,184.7c0.2,0.8,0.5,1.5,0.7,2.3
				c5.6,1.8,11.3,4.1,16.7,6.5c8,3.6,15.9,7.7,23.3,12.4c6.8,4.3,13.5,9.2,19.2,15c3.7,3.8,4.7,8.9,4.8,14.1c0,1.8-0.1,3.7-0.3,5.6
				c2.5-5.2,3.3-10.3,1.9-15.3c-2.1-7.6-8.4-12.4-21-20.1C340.7,199.4,327.7,193,305,184.7L305,184.7z"/>
			<path id="path117" inkscape:connector-curvature="0" class="st17" d="M191.9,292.7l0.7,1.3c0.3-0.8,0.8-1.4,1.4-1.5
				c3.4-0.7,8,9.1,8.4,14.8c31.8-3.6,63.8-3.6,95.8-3.5c31.8,0.1,64.1,1.6,95.8,4c0.4-5.4,4.6-14.5,7.9-14.8
				c-13.1-2-26.7-3.6-40.6-4.7l-1.3-0.1l17.9,8.2l-22.2,7l-19.1-8.3l22-6.9c-20.9-1.6-42-2.3-60.5-2.5c-19.2-0.1-42.9,0.9-63.9,2.5
				c-17.6,1.3-31.8,2.8-41.7,4.6C192.2,292.7,192,292.7,191.9,292.7L191.9,292.7z M237.9,303.8l-22.2-7l18.6-8.6l22.7,7.2
				L237.9,303.8L237.9,303.8z M237.8,303.1l17.2-7.5l-20.7-6.5l-16.8,7.7L237.8,303.1z M355.7,302.6l-17.2-7.5l20.7-6.5l16.8,7.7
				L355.7,302.6z M283.7,286.5h27c4,0,7.8,3.6,7.8,7.9s-4.2,7.9-7.4,7.9H283c-4.2,0-7.8-3.6-7.8-7.9S279,286.5,283.7,286.5
				L283.7,286.5z M283.7,287.2c-4.1,0-7.8,3-7.8,7.2c0,3.9,3.2,7.2,7.1,7.2h28.1c1.6,0,3.3-1,4.4-2.1c1.4-1.3,2.3-3.2,2.3-5.1
				c0-3.8-3.3-7.2-7.1-7.2H283.7L283.7,287.2z M394.6,307.9c0.7,0.1,1.4,0.1,2.2,0.2c1.7-1.1,3.5-3.1,4.7-5.1
				c0.5-0.8,0.9-1.6,1.2-2.4c0.1-0.3,0.2-0.6,0.3-0.9c0.2-0.8,0.4-1.6,0.4-2.4c0-0.7-0.1-1.5-0.2-2.2c-0.2-0.6-0.5-1.2-0.9-1.3
				c-1-0.2-2.3,1.2-2.9,2c-1.3,1.6-2.3,3.7-3.1,5.7C395.5,303.3,394.7,305.7,394.6,307.9L394.6,307.9z M193,294.9
				c-0.2,1.1-0.1,2.1,0,3.1c0.1,0.7,0.3,1.3,0.5,1.9c1,2.8,3.5,5.9,6,7.7c0.7-0.1,1.4-0.2,2.2-0.3c-0.2-2.2-0.9-4.6-1.7-6.5
				s-1.8-4-3.1-5.7c-0.6-0.7-1.8-2.2-2.9-2C193.4,293.3,193.1,294.4,193,294.9L193,294.9z"/>
			<path id="path119" inkscape:connector-curvature="0" class="st4" d="M283.7,286.5h27c4,0,7.8,3.6,7.8,7.9s-4.2,7.9-7.4,7.9H283
				c-4.2,0-7.8-3.6-7.8-7.9S279,286.5,283.7,286.5L283.7,286.5z M283.7,287.2c-4.1,0-7.8,3-7.8,7.2c0,3.9,3.2,7.2,7.1,7.2h28.1
				c1.6,0,3.3-1,4.4-2.1c1.4-1.3,2.3-3.2,2.3-5.1c0-3.8-3.3-7.2-7.1-7.2H283.7L283.7,287.2z"/>
			<path id="path121" inkscape:connector-curvature="0" class="st18" d="M285.1,289.3H308c2.9,0,6,2.4,6,5.3s-3.1,5.3-6,5.3h-23.4
				c-2.9,0-5.8-2.4-5.8-5.3C278.8,291.7,282.1,289.3,285.1,289.3z"/>
			<path id="path123" inkscape:connector-curvature="0" class="st19" d="M285.1,290c-2.4,0-5.5,2-5.5,4.6s2.6,4.6,5.1,4.6H308
				c2.4,0,5.3-2,5.3-4.6s-2.9-4.6-5.3-4.6H285.1L285.1,290z"/>
			<path id="path125" inkscape:connector-curvature="0" class="st20" d="M285.1,290c-1.8,0-4.1,1.2-5.1,2.9c0,0.3,0,0.6,0,0.9
				c0.4,3.5,5.1,4.3,11.5,4.3c6.3,0,11.5-1.1,11.5-4.3c0-1.8-1.7-3-4.3-3.7L285.1,290L285.1,290z"/>
			<path id="path127" inkscape:connector-curvature="0" class="st21" d="M289.7,291.3c2.7,0,4.9,1,4.9,2.1l0,0
				c0,1.2-2.2,2.1-4.9,2.1c-2.7,0-4.9-1-4.9-2.1C284.8,292.2,287,291.3,289.7,291.3z"/>
			<path id="path129" inkscape:connector-curvature="0" class="st22" d="M264,286.5c2.9,0,5.2,1.8,5.2,4l0,0c0,2.2-2.3,4-5.2,4
				c-2.9,0-5.2-1.8-5.2-4C258.8,288.2,261.2,286.5,264,286.5z"/>
			<path id="path131" inkscape:connector-curvature="0" class="st22" d="M265.3,294.7c3.1,0,5.6,2.1,5.6,4.6l0,0
				c0,2.5-2.5,4.6-5.6,4.6s-5.6-2.1-5.6-4.6C259.8,296.7,262.3,294.7,265.3,294.7z"/>
			<path id="path133" inkscape:connector-curvature="0" class="st22" d="M329.2,286.5c-2.9,0-5.2,1.8-5.2,4l0,0c0,2.2,2.3,4,5.2,4
				c2.9,0,5.2-1.8,5.2-4C334.4,288.2,332.1,286.5,329.2,286.5z"/>
			<path id="path135" inkscape:connector-curvature="0" class="st22" d="M327.9,294.9c-3.1,0-5.6,2.1-5.6,4.6l0,0
				c0,2.5,2.5,4.6,5.6,4.6s5.6-2.1,5.6-4.6S331,294.9,327.9,294.9z"/>
			<path id="path137" inkscape:connector-curvature="0" class="st23" d="M264,287.9c1.9,0,3.4,1.2,3.4,2.7s-1.5,2.7-3.4,2.7
				s-3.4-1.2-3.4-2.7C260.7,289.1,262.2,287.9,264,287.9L264,287.9z"/>
			<path id="path139" inkscape:connector-curvature="0" class="st23" d="M265.3,296.4c1.9,0,3.4,1.4,3.4,3l0,0c0,1.7-1.5,3-3.4,3
				s-3.4-1.4-3.4-3S263.4,296.4,265.3,296.4z"/>
			<path id="path141" inkscape:connector-curvature="0" class="st23" d="M329.2,287.9c-1.9,0-3.4,1.2-3.4,2.7s1.5,2.7,3.4,2.7
				s3.4-1.2,3.4-2.7S331.1,287.9,329.2,287.9L329.2,287.9z"/>
			<path id="path143" inkscape:connector-curvature="0" class="st23" d="M328,296.6c-1.9,0-3.4,1.4-3.4,3c0,1.7,1.5,3,3.4,3
				s3.4-1.4,3.4-3S329.9,296.6,328,296.6L328,296.6z"/>
			<path id="path145" inkscape:connector-curvature="0" class="st22" d="M207.9,290.5c2.9,0,5.2,1.6,5.2,4.1s-2.3,4.1-5.2,4.1
				s-5.2-1.6-5.2-4.1S205,290.5,207.9,290.5z"/>
			<path id="path147" inkscape:connector-curvature="0" class="st22" d="M210.8,298.7c3.3,0,5.1,1.8,5.1,4s-1.9,4-5,4
				c-3,0-5.2-1.8-5.2-4C205.7,300.5,207.5,298.7,210.8,298.7L210.8,298.7z"/>
			<path id="path149" inkscape:connector-curvature="0" class="st23" d="M207.7,292c1.7,0,3.1,1.2,3.1,2.7s-1.4,2.7-3.1,2.7
				s-3.1-1.2-3.1-2.7C204.5,293.2,205.9,292,207.7,292L207.7,292z"/>
			<path id="path151" inkscape:connector-curvature="0" class="st23" d="M210.7,300.1c1.9,0,3.4,1.3,3.4,2.9s-1.5,2.9-3.4,2.9
				s-3.4-1.3-3.4-2.9S208.8,300.1,210.7,300.1L210.7,300.1z"/>
			<path id="path153" inkscape:connector-curvature="0" class="st22" d="M385.3,290.5c-2.9,0-5.2,1.6-5.2,4.1s2.3,4.1,5.2,4.1
				c2.9,0,5.2-1.6,5.2-4.1S388.2,290.5,385.3,290.5z"/>
			<path id="path155" inkscape:connector-curvature="0" class="st22" d="M382.4,298.7c-3.3,0-5.1,1.8-5.1,4s1.9,4,5,4s5.2-1.8,5.2-4
				S385.7,298.7,382.4,298.7z"/>
			<path id="path157" inkscape:connector-curvature="0" class="st23" d="M385.6,292c-1.7,0-3.1,1.2-3.1,2.7s1.4,2.7,3.1,2.7
				s3.1-1.2,3.1-2.7S387.3,292,385.6,292L385.6,292z"/>
			<path id="path159" inkscape:connector-curvature="0" class="st23" d="M382.5,300.1c-1.9,0-3.4,1.3-3.4,2.9l0,0
				c0,1.6,1.5,2.9,3.4,2.9s3.4-1.3,3.4-2.9S384.4,300.1,382.5,300.1z"/>
			<path id="path161" inkscape:connector-curvature="0" class="st23" d="M358.7,300l-3.7-0.2l-9.6-5l14.1-4.8l11.2,5.7L358.7,300
				L358.7,300z"/>
			<path id="path163" inkscape:connector-curvature="0" class="st3" d="M369.8,296.1l-11,3.9l3.6-4.1L369.8,296.1L369.8,296.1z"/>
			<path id="path165" inkscape:connector-curvature="0" class="st24" d="M359.7,290.2l10.3,5.2l-7.5-0.2L359.7,290.2L359.7,290.2z"
				/>
			<path id="path167" inkscape:connector-curvature="0" class="st24" d="M346.4,294.5l12.5-4.3l2.7,4.9L346.4,294.5z"/>
			<path id="path169" inkscape:connector-curvature="0" class="st3" d="M357.9,300l-2.9-0.1l-9.1-4.7l15.6,0.6L357.9,300z"/>
			<path id="path171" inkscape:connector-curvature="0" class="st23" d="M234.9,300.5l3.7-0.2l9.6-5l-14.1-4.8l-11.2,5.7
				L234.9,300.5L234.9,300.5z"/>
			<path id="path173" inkscape:connector-curvature="0" class="st24" d="M223.7,296.5l11,3.9l-3.6-4.1L223.7,296.5L223.7,296.5z"/>
			<path id="path175" inkscape:connector-curvature="0" class="st24" d="M233.8,290.7l-10.3,5.2l7.5-0.2L233.8,290.7L233.8,290.7z"
				/>
			<path id="path177" inkscape:connector-curvature="0" class="st24" d="M247.1,295l-12.5-4.3l-2.7,4.9L247.1,295L247.1,295z"/>
			<path id="path179" inkscape:connector-curvature="0" class="st3" d="M235.6,300.5l2.9-0.1l9.1-4.7l-15.6,0.6L235.6,300.5z"/>
		</g>
		<g id="Layer1004">
			<path id="path182" inkscape:connector-curvature="0" class="st25" d="M402.9,295.7c-3.7,1-6.4,7.8-4.9,10.2
				c1,1.7,5.6-0.2,7.3-4.1C406.4,298.8,404.6,295.3,402.9,295.7z"/>
			<path id="path184" inkscape:connector-curvature="0" class="st19" d="M403,296.4c-1.6,0.4-2.9,2.1-3.6,3.5
				c-0.7,1.3-1.7,4.3-0.9,5.7c0,0,0,0.1,0.1,0.1c0.6,0.5,2.1-0.1,2.7-0.4c1.5-0.8,2.7-2.2,3.3-3.7c0.5-1.1,0.5-2.4,0.1-3.6
				c-0.2-0.5-0.7-1.6-1.4-1.6C403.2,296.4,403.1,296.4,403,296.4L403,296.4z"/>
			<path id="path186" inkscape:connector-curvature="0" class="st20" d="M399.2,305.9c0.7,0,1.7-0.4,2.1-0.6
				c1.5-0.8,2.7-2.2,3.3-3.7c0.5-1.1,0.5-2.4,0.1-3.6c-0.1-0.3-0.4-0.9-0.7-1.2C404,300.2,402.9,303.4,399.2,305.9L399.2,305.9z"/>
		</g>
		<g id="Layer1005">
			<path id="path189" inkscape:connector-curvature="0" class="st25" d="M193.4,295.3c3.7,1,6.4,7.8,4.9,10.2
				c-1,1.7-5.6-0.2-7.3-4.1C189.8,298.4,191.6,294.8,193.4,295.3z"/>
			<path id="path191" inkscape:connector-curvature="0" class="st19" d="M193.2,295.9c-0.1,0-0.1,0-0.2,0c-0.7,0-1.2,1.1-1.4,1.6
				c-0.4,1.1-0.4,2.5,0.1,3.6c0.6,1.5,1.9,2.9,3.3,3.7c0.5,0.3,2.1,1,2.7,0.4l0.1-0.1c0.9-1.4-0.2-4.4-0.9-5.7
				C196.1,298.1,194.8,296.4,193.2,295.9L193.2,295.9z"/>
			<path id="path193" inkscape:connector-curvature="0" class="st20" d="M197.1,305.5c-0.7,0-1.7-0.4-2.1-0.6
				c-1.4-0.8-2.7-2.2-3.3-3.7c-0.5-1.1-0.5-2.4-0.1-3.6c0.1-0.3,0.4-0.9,0.7-1.2C192.2,299.8,193.4,303,197.1,305.5L197.1,305.5z"/>
		</g>
	</g>
	<path id="path195" inkscape:connector-curvature="0" class="st26" d="M135.7,315.9h323.8V511c0,44.5-19.1,93.2-61.1,133.2
		c-25.2,24-59,45-101.3,60.2c-36-12.8-77.6-35.4-109.9-69.7c-29.5-31.3-51.5-72.5-51.5-121.7L135.7,315.9L135.7,315.9z"/>
	<path id="path197" inkscape:connector-curvature="0" class="st27" d="M144.8,324.9V513c0,44.3,19,83.7,49,115.5
		c28,29.7,65.1,52.2,103.3,66.3c34.8-12.8,68.2-31.5,95.1-57.1c34.8-33.2,58.3-78,58.3-126.7V324.9H144.8L144.8,324.9z"/>
	<g id="Layer1006">
		<path id="path200" inkscape:connector-curvature="0" class="st28" d="M144.8,504.4c0.6-0.1,1.2-0.1,1.7-0.2
			c-0.1,2,3.2,2.3,5.2,1.8c3.1-0.8,6.2-3.6,9.2-4.1c0.2,1.3-0.5,2.6-1.5,3.4c-1.3,1-3.1,1.4-4.4,2.4c-0.5,0.3-1,1.2-0.6,1.5
			c0.6,0.6,0.7,0.9,1.4,1.2c1.2,0.5,2.2,0.4,3,0c0.6-0.3,1.5-1.4,2.1-2.4c0.8-1.3,1.3-2.5,2.7-2.6c1.6-0.1,2.4,3.2,3.8,2.6
			c0.4-0.2,1.2-1.3,1.4-2.2c0.2-0.8-3.1-1.6-3.4-3c-0.1-0.6,3.2,0,3.6-0.2c0-1.1,0.1-1.6,0.4-1.9c1.8,2.6,4.3,4.6,6.9,6.4
			c2.6,1.8,5.7,3.7,7.5,6.3c0.5,0.8,1,1.6,1.2,2.5c0.4,1.2,0.6,2.4,0.5,3.6c-5.8-0.2-13.5,2.4-16.5,5.5c-2.3,2.4-3.3,4.7-2.7,9.9
			c-6.3-1.5-5,4.3-8.1,5.9c-1.9,1-5.3-1.7-7.4-0.9c-1.9,0.6-2,2.3-2.8,4.6c-2.1-10.2-3.3-20.6-3.3-31.4v-8.7H144.8z M169.9,500.3
			c0.5-0.2,1.3-0.4,2-0.5c0.5-0.8,0.6-1.4,1.2-2.1c1.4-1.5,3.6-3,4.6-4.8c0.5-1,0-2.6,0.2-3.8c8.7,5.8,11.4,9.1,19.2,10.8
			c0.1-0.1,0.2-0.3,0.3-0.7c1,1.2,1.9,2.1,3.5,2.9c2.5,1.4,5.8,2.2,8.5,3.1l0.3,0.1l0.2-0.6l-0.3-0.1c-2.7-0.9-5.9-1.7-8.4-3.1
			c-1.4-0.7-2.3-1.5-3.1-2.6c2.8-0.3,6-1.1,9.4-2.3c6-1.9,10-4.2,15.1-4c-1,4.4-6.2,4.5-7.9,6.8c-0.5,0.6,0.1,0.6,0.3,0.6
			c4.4-0.2,9.9-6,14.2-5.6c1.7,0.2,3.3,0.8,4.8,2.1c-1.5-5.7-7.2-8.1-6.7-14.1l6.4-2.5l0.1-7.8c3.8,2.9,7.5,5.2,11.4,5.9
			c1.9,0.4,3.8,0.3,5.8,0l-9.6,12.4c-8.3,10.7-8.3,23.3-14.4,35.5c-3.3-1.5-6.4-5.8-7.8-8c-1.2-2.1-2.5-4.1-4-4.9
			c-3.7,11.1-17.5,10.9-26.1,3.2c-0.1-0.1-0.8,0.1-1.2,0.7c-0.5,0.6-0.8,1.7-1.7,2.5c0-1.2-0.2-2.3-0.6-3.5
			c-0.3-0.9-0.8-1.8-1.3-2.6c-1.9-2.7-5-4.6-7.6-6.5C174.1,504.7,171.7,502.9,169.9,500.3L169.9,500.3z"/>
		<path id="path202" inkscape:connector-curvature="0" class="st28" d="M332.5,481.3l-1-0.5c1.7-2.2,3.2-6,6-9.5
			c1.1-1.4,1.8-1.8,2.9-3.1c0.6-0.8,1.4-1.8,2.1-2.6c0.5-0.6,1-1,1.8-1.6c1-0.8,2.1-1.5,3.2-2.6c0.8-0.8,1.1-1.2,1.5-1.8
			c0.1,0.5,0.2,1.1,0,1.5c-1.1,1.7-2.4,2.6-3.4,3.7c-0.5,0.6-1.9,2.9-2.4,3.5c-1.1,1.4-1.4,1.4-2.4,2.5c-1.1,1.2-1.8,2.4-2.7,3.6
			C336.5,476.6,334.9,478.3,332.5,481.3L332.5,481.3z"/>
		<path id="path204" inkscape:connector-curvature="0" class="st28" d="M450.5,483.2c-0.4-0.9-0.6-2.1-1.7-2.8
			c-0.7-0.4-3.5,0.7-6-1.1c-1.3-1-2-2.6-3.2-4.1c-0.6-0.9-1.4-1.7-2.7-1.1c-0.8,0.3-1.6,0.9-2.7,1.2c-1.4-0.7-3.4-2.3-5.1-4.4
			c-2.3-2.7-4.4-6.1-7-9.3c-2.4-3-5-5.3-7.3-7.4c1.7,2.2,3.2,4.3,3.8,7.2c0.8,3.7,0.4,7.9,2.8,9.6c1.3,0.9,3.1,1,5.6,0.5
			c-0.1,0.9-0.7,3.1-1.8,3.8c-1.3,0.8-3.3,0.3-4.3,1.3c-0.6,0.6-1.3,2-1.4,3.6c0,0.5,0.9,0.9,1.4,0.4c0.8-0.9,1-1.7,2.4-1.6
			c1.1,0.1,0.8,2.2,0.2,3c-1.4,1.8-6.3,1.4-9.3,2.2c5.9-5.9,4.5-11.3,0.7-16.2c-3-3.9-7.4-7.6-11.8-12.1c-2.9-3-5-6.5-6-10.4
			c-3.5,2.9-13.2,2.5-14.3,6.9c-1.1,4.6,10,9.3,9.2,15.3c-0.6-0.4-1.2-0.4-1.8-0.9c-0.6-0.5-0.9,0.4-0.1,1c0.5,0.5,1.2,0.9,1.9,1.3
			c0.9,0.6,1.8,0.7,2.6,1.3c1,0.8,1.6,2,1.6,2.9c-3.5-1.1-6.7-4-9.3-6.4c-0.5-0.5-1.2,0.5-0.6,1.4s1.2,1.5,2.1,2.8
			c-0.7,0.3-1.3,0.3-1.7,0.2c-1.2-0.2-1.6-2.3-2.1-3.4c-0.3-0.6-1.1-0.1-1.3,1.1c-0.2,1.3,0,3,0.9,4.2c0.7,0.9,2.2,1.7,4,1.3
			c-0.4,1.6-0.5,2.9,0.1,4.1c0.8,1.8,3.2,3.3,4.9,4.9c-4.8-0.7-9.4-4-12.5-8.6c-0.5,2.6,0,3.6,0.7,5.1c0.4,0.9,0.6,2.3,0.7,3.3
			c-2.1-0.4-4.9,0.2-7.1,0.8c-1.6,0.4-2.9,0.4-3.6,0.1c-1.2-0.5-1.4-1.7-1.4-4.4c-2.6,1.2-4.6,3.9-2.1,6.4c0.9,0.9,2.2,1.8,3.8,2.9
			c1.8,1.3,3.6,2.5,5.7,4.8c0.4,0.3,1.2-0.6,1.1-1c-0.1-0.8-1.3-1.7-1.3-2.6c3.6,0.5,9,3.5,12.5,5.9c5.8,4,10.5,8.6,18,11.8
			c1.7,0.7,4.8-0.8,6.6,0.8c1.3,1.1,1.6,3.1,2.3,4.7c0.6,1.4,2.3,2.7,4.6,3.3c5.8,1.5,12.2,0.7,18.4,0.6c3.9-0.1,7.6,0.5,10.9,1.4
			c0.1-2.5,0.2-5,0.2-7.5L450.5,483.2L450.5,483.2z M396.1,488.6c3.3,4.4,7.1,8.8,11.1,12.5l0.3,0.2l-0.5,0.5l-0.3-0.2
			c-4.1-3.7-7.9-8.2-11.2-12.6l-0.2-0.3l0.5-0.4L396.1,488.6L396.1,488.6z"/>
	</g>
	<g id="Layer1007">
		<path id="path207" inkscape:connector-curvature="0" class="st26" d="M168.9,407.9v-58H186c6.5,0,10.7,0.3,12.7,0.9
			c3,0.9,5.6,2.8,7.6,5.7c2,2.9,3.1,6.7,3.1,11.3c0,3.6-0.6,6.6-1.8,9s-2.7,4.3-4.5,5.7c-1.8,1.4-3.7,2.3-5.5,2.7
			c-2.6,0.6-6.2,0.8-11.1,0.8h-7v21.9H168.9L168.9,407.9z M179.6,359.7v16.5h5.8c4.2,0,7-0.3,8.5-0.9c1.4-0.6,2.5-1.6,3.3-2.9
			s1.2-2.8,1.2-4.5c0-2.1-0.6-3.8-1.7-5.2c-1.1-1.4-2.6-2.2-4.3-2.6c-1.3-0.3-3.8-0.4-7.7-0.4H179.6z"/>
		<path id="path209" inkscape:connector-curvature="0" class="st26" d="M264.9,407.9h-11.6l-4.6-13.2h-21.2l-4.4,13.2h-11.3l20.6-58
			h11.3L264.9,407.9z M245.2,385l-7.3-21.5l-7.1,21.5H245.2z"/>
		<path id="path211" inkscape:connector-curvature="0" class="st26" d="M268.5,349.9h10.7v31.4c0,5,0.1,8.2,0.4,9.7
			c0.5,2.4,1.6,4.3,3.3,5.7c1.7,1.4,4.1,2.2,7.1,2.2s5.3-0.7,6.9-2c1.5-1.4,2.5-3,2.8-5s0.5-5.3,0.5-9.9v-32.1h10.7v30.5
			c0,7-0.3,11.9-0.9,14.8s-1.6,5.3-3.2,7.3s-3.6,3.6-6.2,4.7c-2.6,1.2-6,1.8-10.2,1.8c-5.1,0-8.9-0.6-11.5-1.9s-4.7-2.9-6.2-5
			c-1.5-2-2.5-4.2-3-6.4c-0.7-3.3-1-8.2-1-14.7v-31.1H268.5z"/>
		<path id="path213" inkscape:connector-curvature="0" class="st26" d="M338.7,407.9v-58H375v9.8h-25.6v13.7h22.1v9.8h-22.1v24.7
			H338.7z M416.9,386.6l10.4,3.6c-1.6,6.3-4.2,11-7.9,14.1c-3.7,3.1-8.4,4.6-14.1,4.6c-7,0-12.8-2.6-17.3-7.9s-6.8-12.5-6.8-21.6
			c0-9.7,2.3-17.2,6.8-22.5s10.5-8,17.9-8c6.5,0,11.7,2.1,15.8,6.3c2.4,2.5,4.2,6,5.4,10.7l-10.6,2.8c-0.6-3-1.9-5.4-3.9-7.1
			s-4.4-2.6-7.2-2.6c-3.9,0-7.1,1.5-9.6,4.6c-2.4,3.1-3.7,8.1-3.7,15c0,7.3,1.2,12.6,3.6,15.7s5.5,4.7,9.4,4.7c2.8,0,5.3-1,7.3-3
			C414.6,394,416,390.8,416.9,386.6L416.9,386.6z"/>
	</g>
	<g id="Layer1008">
		<path id="path216" inkscape:connector-curvature="0" class="st23" d="M215.4,437.2l-5.6-17.4h2.2l4.5,15.2l4.5-15.2h2.1l-5.4,17.4
			H215.4L215.4,437.2z"/>
		<path id="path218" inkscape:connector-curvature="0" class="st23" d="M232.5,435.7c-0.7,0.6-1.4,1.1-2.2,1.4s-1.5,0.5-2.3,0.5
			c-1.3,0-2.3-0.3-3.1-1c-0.8-0.6-1.1-1.5-1.1-2.6c0-0.7,0.2-1.4,0.5-1.9c0.4-0.6,0.8-1,1.5-1.3c0.6-0.3,1.6-0.6,2.8-0.7
			c1.7-0.2,2.9-0.5,3.7-0.7v-0.5c0-0.9-0.2-1.5-0.5-1.8c-0.5-0.5-1.3-0.8-2.4-0.8c-1,0-1.7,0.2-2.2,0.5s-0.8,1-1.1,1.9l-2-0.3
			c0.3-1.4,0.9-2.3,1.8-3c0.9-0.6,2.2-0.9,3.8-0.9c1.3,0,2.3,0.2,3,0.6s1.2,0.9,1.4,1.5s0.3,1.5,0.3,2.6v2.9c0,2,0,3.3,0.1,3.8
			s0.3,1,0.5,1.5h-2C232.7,436.8,232.6,436.3,232.5,435.7L232.5,435.7z M232.4,430.9c-0.8,0.3-1.9,0.6-3.4,0.8
			c-0.9,0.1-1.5,0.3-1.8,0.4c-0.3,0.2-0.6,0.4-0.8,0.7c-0.2,0.3-0.3,0.6-0.3,1c0,0.6,0.2,1.1,0.7,1.4c0.4,0.4,1.1,0.5,1.8,0.5
			s1.4-0.2,2-0.5s1.1-0.8,1.4-1.3c0.3-0.5,0.4-1.3,0.4-2.4L232.4,430.9L232.4,430.9z"/>
		<path id="path220" inkscape:connector-curvature="0" class="st23" d="M237.3,422.9v-2.4h2.1v2.4H237.3z M237.3,437.2v-12.1h2.1
			v12.1H237.3z"/>
		<path id="path222" inkscape:connector-curvature="0" class="st23" d="M241.5,437.2v-12.1h1.9v1.7c0.4-0.7,1-1.2,1.6-1.5
			s1.4-0.5,2.2-0.5c0.6,0,1.3,0.1,1.8,0.3c0.6,0.2,1,0.5,1.3,0.8s0.6,0.8,0.8,1.3s0.3,1.4,0.3,2.5v7.5h-2.1v-7.4
			c0-0.9-0.1-1.5-0.3-2c-0.2-0.4-0.5-0.7-0.9-1c-0.4-0.2-0.9-0.3-1.4-0.3c-1,0-1.8,0.3-2.4,0.9c-0.6,0.6-0.9,1.6-0.9,3.1v6.6h-1.9
			V437.2z"/>
		<path id="path224" inkscape:connector-curvature="0" class="st23" d="M260.6,432.7l1.8,0.3c-0.2,1.5-0.7,2.6-1.5,3.4
			s-1.8,1.2-3,1.2c-1.4,0-2.6-0.5-3.5-1.6s-1.4-2.7-1.4-4.8c0-2.1,0.5-3.7,1.4-4.8c0.9-1.1,2.1-1.6,3.5-1.6c1.1,0,2,0.3,2.8,1
			s1.2,1.6,1.5,2.9l-1.8,0.3c-0.2-0.8-0.5-1.5-0.9-1.9s-0.9-0.6-1.5-0.6c-0.9,0-1.6,0.4-2.2,1.1c-0.6,0.7-0.9,1.9-0.9,3.5
			c0,1.7,0.3,2.9,0.8,3.6c0.6,0.7,1.3,1.1,2.2,1.1c0.7,0,1.3-0.2,1.8-0.7C260.2,434.5,260.5,433.8,260.6,432.7L260.6,432.7z"/>
		<path id="path226" inkscape:connector-curvature="0" class="st23" d="M264.1,437.2v-12.1h1.8v1.8c0.5-0.8,0.9-1.4,1.3-1.7
			c0.4-0.3,0.8-0.4,1.3-0.4c0.7,0,1.3,0.2,2,0.7l-0.7,1.9c-0.5-0.3-1-0.4-1.5-0.4c-0.4,0-0.8,0.1-1.2,0.4c-0.4,0.2-0.6,0.6-0.7,1
			c-0.3,0.8-0.4,1.6-0.4,2.5v6.3L264.1,437.2L264.1,437.2z"/>
		<path id="path228" inkscape:connector-curvature="0" class="st23" d="M278.6,433.1l1.8,0.3c-0.3,1.3-0.9,2.3-1.7,2.9
			c-0.8,0.7-1.8,1-3,1c-1.5,0-2.7-0.5-3.6-1.6s-1.4-2.6-1.4-4.6c0-2.1,0.5-3.7,1.4-4.8c0.9-1.1,2.1-1.7,3.6-1.7
			c1.4,0,2.5,0.5,3.4,1.6s1.4,2.6,1.4,4.7v0.5h-7.9c0.1,1.4,0.4,2.4,1,3.1s1.3,1,2.2,1C277.2,435.6,278.1,434.8,278.6,433.1
			L278.6,433.1z M272.7,429.8h5.9c-0.1-1-0.3-1.8-0.7-2.3c-0.6-0.8-1.3-1.1-2.2-1.1c-0.8,0-1.5,0.3-2.1,0.9
			C273.1,427.9,272.8,428.7,272.7,429.8z"/>
		<path id="path230" inkscape:connector-curvature="0" class="st23" d="M288,430.9c0-2.1,0.5-3.7,1.5-4.7c1-1.1,2.2-1.6,3.8-1.6
			c1.5,0,2.7,0.5,3.7,1.6s1.5,2.6,1.5,4.6c0,2.2-0.5,3.8-1.5,4.9s-2.2,1.6-3.8,1.6c-1.5,0-2.8-0.5-3.8-1.6
			C288.5,434.6,288,433,288,430.9L288,430.9z M289.9,430.9c0,1.6,0.3,2.7,1,3.5c0.6,0.8,1.4,1.1,2.4,1.1c0.9,0,1.7-0.4,2.3-1.2
			c0.6-0.8,1-1.9,1-3.5s-0.3-2.7-1-3.5c-0.6-0.8-1.4-1.1-2.4-1.1c-0.9,0-1.7,0.4-2.3,1.2C290.2,428.2,289.9,429.4,289.9,430.9
			L289.9,430.9z"/>
		<path id="path232" inkscape:connector-curvature="0" class="st23" d="M307.3,437v-1.8c-0.4,0.7-1,1.2-1.5,1.5
			c-0.6,0.3-1.3,0.5-2,0.5c-0.9,0-1.6-0.2-2.3-0.6c-0.6-0.4-1-1-1.3-1.6c-0.2-0.6-0.3-1.5-0.3-2.6v-7.5h1.9v6.7
			c0,1.3,0.1,2.1,0.2,2.5s0.4,0.8,0.8,1c0.4,0.3,0.8,0.4,1.3,0.4c0.9,0,1.7-0.3,2.2-1c0.5-0.6,0.7-1.6,0.7-3.1v-6.5h1.9V437H307.3
			L307.3,437z"/>
		<path id="path234" inkscape:connector-curvature="0" class="st23" d="M316.8,431.7l1.9-0.2c0.1,1,0.3,1.7,0.7,2.2
			c0.4,0.5,0.9,1,1.5,1.3c0.7,0.3,1.4,0.5,2.2,0.5c1.2,0,2.1-0.3,2.7-0.8c0.7-0.5,1-1.3,1-2.1c0-0.5-0.1-1-0.4-1.3
			c-0.2-0.4-0.6-0.7-1.1-0.9c-0.5-0.2-1.5-0.6-3.1-1c-1.4-0.4-2.4-0.8-3-1.2c-0.6-0.4-1.1-0.9-1.4-1.5s-0.5-1.3-0.5-2.1
			c0-1.4,0.5-2.5,1.4-3.4c1-0.9,2.2-1.3,3.8-1.3c1.1,0,2.1,0.2,2.9,0.6s1.5,1,1.9,1.8c0.5,0.8,0.7,1.7,0.7,2.8l-1.9,0.2
			c-0.1-1.1-0.5-2-1.1-2.5s-1.5-0.8-2.6-0.8s-2,0.2-2.6,0.7s-0.9,1.1-0.9,1.8c0,0.7,0.2,1.2,0.6,1.6s1.4,0.8,2.9,1.2
			c1.5,0.4,2.5,0.7,3.1,1c0.9,0.4,1.6,1,2.1,1.7s0.7,1.6,0.7,2.6s-0.2,1.9-0.7,2.7c-0.5,0.8-1.2,1.4-2,1.9c-0.8,0.4-1.8,0.6-3,0.6
			c-1.8,0-3.3-0.5-4.4-1.6C317.4,434.9,316.8,433.5,316.8,431.7L316.8,431.7z"/>
		<path id="path236" inkscape:connector-curvature="0" class="st23" d="M330.9,430.9c0-2.1,0.5-3.7,1.5-4.7c1-1.1,2.2-1.6,3.8-1.6
			c1.5,0,2.7,0.5,3.7,1.6s1.5,2.6,1.5,4.6c0,2.2-0.5,3.8-1.5,4.9s-2.2,1.6-3.8,1.6c-1.5,0-2.8-0.5-3.8-1.6
			C331.4,434.6,330.9,433,330.9,430.9z M332.9,430.9c0,1.6,0.3,2.7,1,3.5c0.6,0.8,1.4,1.1,2.4,1.1c0.9,0,1.7-0.4,2.3-1.2
			c0.6-0.8,1-1.9,1-3.5s-0.3-2.7-1-3.5c-0.6-0.8-1.4-1.1-2.4-1.1c-0.9,0-1.7,0.4-2.3,1.2C333.2,428.2,332.9,429.4,332.9,430.9
			L332.9,430.9z"/>
		<path id="path238" inkscape:connector-curvature="0" class="st23" d="M351,437v-1.8c-0.4,0.7-1,1.2-1.6,1.5s-1.3,0.5-2.1,0.5
			c-0.9,0-1.7-0.2-2.3-0.6c-0.6-0.4-1.1-1-1.3-1.6c-0.2-0.6-0.3-1.5-0.3-2.6v-7.5h1.9v6.7c0,1.3,0.1,2.1,0.2,2.5s0.4,0.8,0.8,1
			c0.4,0.3,0.8,0.4,1.3,0.4c0.9,0,1.7-0.3,2.3-1c0.5-0.6,0.8-1.6,0.8-3.1v-6.5h2V437H351L351,437z"/>
		<path id="path240" inkscape:connector-curvature="0" class="st23" d="M355.4,437v-12.1h1.7v1.8c0.4-0.8,0.8-1.4,1.2-1.7
			c0.4-0.3,0.8-0.4,1.2-0.4c0.6,0,1.3,0.2,1.9,0.7l-0.6,1.9c-0.5-0.3-0.9-0.4-1.4-0.4c-0.4,0-0.8,0.1-1.1,0.4s-0.6,0.6-0.7,1
			c-0.2,0.8-0.4,1.6-0.4,2.5v6.3L355.4,437L355.4,437z"/>
		<path id="path242" inkscape:connector-curvature="0" class="st23" d="M362.6,422.4V420h1.9v2.4H362.6z M362.6,437.2v-12.5h1.9
			v12.5H362.6z"/>
		<path id="path244" inkscape:connector-curvature="0" class="st23" d="M366.9,437v-12.1h1.7v1.8c0.4-0.8,0.8-1.4,1.2-1.7
			c0.4-0.3,0.8-0.4,1.2-0.4c0.6,0,1.3,0.2,1.9,0.7l-0.6,1.9c-0.5-0.3-0.9-0.4-1.4-0.4c-0.4,0-0.8,0.1-1.1,0.4
			c-0.3,0.2-0.6,0.6-0.7,1c-0.2,0.8-0.4,1.6-0.4,2.5v6.3L366.9,437L366.9,437z"/>
		<path id="path246" inkscape:connector-curvature="0" class="st23" d="M381.3,433.1l1.9,0.3c-0.3,1.3-0.9,2.3-1.7,2.9
			c-0.8,0.7-1.9,1-3.1,1c-1.6,0-2.8-0.5-3.8-1.6s-1.4-2.6-1.4-4.6c0-2.1,0.5-3.7,1.5-4.8c1-1.1,2.2-1.7,3.7-1.7
			c1.4,0,2.6,0.5,3.6,1.6s1.4,2.6,1.4,4.7v0.5h-8.2c0.1,1.4,0.4,2.4,1,3.1s1.4,1,2.3,1C379.8,435.6,380.8,434.8,381.3,433.1
			L381.3,433.1z M375.2,429.8h6.1c-0.1-1-0.3-1.8-0.7-2.3c-0.6-0.8-1.4-1.1-2.3-1.1c-0.8,0-1.5,0.3-2.1,0.9S375.2,428.7,375.2,429.8
			z"/>
	</g>
	<g id="Layer1009">
		<g id="Layer1010">
			<path id="path250" inkscape:connector-curvature="0" class="st29" d="M303.6,462.6c19.8,0,37.9,6.9,52.7,18.1
				c21.5,16.4,35.6,42.2,35.6,71.5c0,49.4-39.5,89.4-88.2,89.4s-88.2-40-88.2-89.4C215.4,502.8,253.7,462.6,303.6,462.6L303.6,462.6
				z"/>
			<path id="path252" inkscape:connector-curvature="0" class="st30" d="M272.9,630.2c-20.6-7.9-35.2-22-44.7-42.3
				c-5.2-11.1-8-22.8-8-35.8c0-13.4,3.7-26,9.1-37.4C214.1,563.5,224.7,603.4,272.9,630.2L272.9,630.2z"/>
			<path id="path254" inkscape:connector-curvature="0" class="st31" d="M339.3,473.9c-5.6-2.6-13.1-5.5-20.8-8.1
				c-3.5-1.2-6.5-1.7-10.2-3.1c18,1,34.5,7.7,48,18c4.9,3.7,9.4,7.9,13.4,12.5c1.4,1.6,2.7,3.2,4,4.9c7.2,15.5,13.8,33.8,13.8,54.2
				c-5.1-17.6-6.7-32.2-15.5-45.5C361.9,491.5,355.4,481.3,339.3,473.9z"/>
			<path id="path256" inkscape:connector-curvature="0" class="st32" d="M306.9,465.4c26.4,0,48.9,13.5,64.8,31.5
				c0.3,0.3,2.1,1.5,2.4,1.9c11.4,14.7,17.8,33.7,17.8,54c0,16-4.4,30.9-11.7,43.8c-14.8,25.9-42.9,42.9-73.9,42.9
				c-23,0-43.1-9.2-58.3-24.7c14.9,13.5,34.6,21.6,56.1,21.6c20.1,2,39-5,54-17.2c-15,10.6-26.3,13.5-29.2,14.2
				c44.5-16.1,59.5-58.5,59.5-82.4c0-46.6-37-84.8-82.9-85.6C305.9,465.4,306.4,465.4,306.9,465.4L306.9,465.4z"/>
			<path id="path258" inkscape:connector-curvature="0" class="st33" d="M304.9,465.4c46.6,0,84.3,38.5,84.3,85.6
				c0,47.2-40.3,88-86.8,86.2c-35.5-1.4-60.3-20.8-73.8-49.7c-5.2-11.1-8.1-23.4-8.1-36.5C220.5,503.9,257.2,465.4,304.9,465.4
				L304.9,465.4z"/>
			<path id="path260" inkscape:connector-curvature="0" class="st34" d="M365.8,492.3c18.8,21.6,23.3,43.8,21.6,67.3
				c-1.1,16.1-10.3,34.2-14.9,42.2c5.9-6,15.6-23.2,17.1-41.1C391.6,538.9,387,512.1,365.8,492.3L365.8,492.3z"/>
			<path id="path262" inkscape:connector-curvature="0" class="st35" d="M305.3,465.4c0.3,0,0.6,0,1,0l0,0c-0.5,0-0.9,0-1.4,0H305.3
				z M312.3,465.7c43.6,3.6,77.9,40.5,77.9,85.3c0,46.4-39.3,86.8-85.2,86.2c45.4,0.3,84.2-40,84.2-86.2
				C389.2,506.4,355.4,469.6,312.3,465.7L312.3,465.7L312.3,465.7z M220.5,551c0-0.7,0-1.3,0-2C220.5,549.7,220.5,550.3,220.5,551z
				 M220.5,548.7c0-0.6,0-1.2,0.1-1.8C220.6,547.4,220.6,548.1,220.5,548.7z M220.6,546.3c0-0.6,0.1-1.1,0.1-1.7
				C220.7,545.2,220.7,545.8,220.6,546.3z M220.8,544.1c0-0.4,0.1-0.9,0.1-1.3C220.8,543.2,220.8,543.6,220.8,544.1z M221,542
				c0-0.5,0.1-1,0.2-1.4C221.1,541.1,221,541.5,221,542z M221.2,539.6c0-0.2,0-0.3,0.1-0.5C221.3,539.2,221.3,539.4,221.2,539.6z"/>
			<path id="path264" inkscape:connector-curvature="0" class="st36" d="M302.8,464.1c15.1,0,29.9,3.8,42.2,10.9
				c26.2,14.9,43.3,43.7,43.3,76.3c0,48-38.2,87-85.8,86.8c-47.3-0.1-85.4-38.8-85.4-86.8c0-29.3,13.8-55.2,35.6-71.1
				c2.4-1.7,5-3.1,7.6-4.6C272.8,468.5,287.1,464.1,302.8,464.1L302.8,464.1z M302.9,464.4c4.6,0,9,0.4,13.4,1.1
				c2.9,0.6,5.4,1.4,7.5,2c7.4,2.3,13.6,4.9,20.6,8.7c7.4,4.1,13,8.5,18.7,14.4c11.7,12,19.5,26.4,22.7,43.8c1,5.2,1.5,11,1.5,16.5
				c0,47.7-38.1,86.3-84.5,86.3s-84-38.7-84-86.3C218.9,503.2,255.5,464.4,302.9,464.4L302.9,464.4z"/>
			<path id="path266" inkscape:connector-curvature="0" class="st30" d="M302.8,464.1c15.1,0,29.9,3.8,42.2,10.9
				c26.2,14.9,43.3,43.7,43.3,76.3c0,48-38.2,87-85.8,86.8c-12.7,0-24.8-2.9-35.7-7.9c-14.2-6.6-26.4-17.9-34.9-31.4
				c-9.1-14.4-14-31.3-13.8-47.9c0.4-29.3,12.2-53.2,34.6-70.6c2.3-1.8,5-3.1,7.6-4.6C272.8,468.5,287.1,464.1,302.8,464.1
				L302.8,464.1z M302.9,464.4c4.6,0,9,0.4,13.4,1.1c2.9,0.6,5.4,1.4,7.5,2c7.4,2.3,13.6,4.9,20.6,8.7c7.4,4.1,13,8.5,18.7,14.4
				c11.7,12,19.5,26.4,22.7,43.8c1,5.2,1.5,11,1.5,16.5c0,47.7-38.1,86.3-84.5,86.3c-29.7,0-55.9-15.4-70.9-39.4
				c-8.4-13.4-13.5-29.8-13.5-46.9C218.5,503.2,255.5,464.4,302.9,464.4L302.9,464.4z"/>
		</g>
		<g id="Layer1014">
			<path id="path380" inkscape:connector-curvature="0" class="st23" d="M282.6,511.2l4.2-0.4c-6.6,11.2-13.4,24.1-20.2,33.7
				c2.8-7.4,6.7-14.7,8.3-18.9L282.6,511.2L282.6,511.2z"/>
			<g id="Layer1015">
				<g id="Layer1016">
					<path id="path384" inkscape:connector-curvature="0" class="st37" d="M262.3,486.2l0.6,0.8l1,1l0.8,0.5l18.5,22.6l-12.4,22.6
						l-1.5,1.2l-3.3,5.8l-1.6,1.7l0.9-1.8l16.5-29.6l-18.2-22.4l0.1-0.5l-1.6-1.8L262.3,486.2L262.3,486.2z"/>
					<path id="path386" inkscape:connector-curvature="0" class="st37" d="M286.4,510.8l-17.6,31.5l-0.1,1.8l20.7,32.7l9.7-1.2
						l-9.6-0.3l-20.2-32.1l17.8-31.6l35.7-3.4c1-1.3,2-2.6,3-3.9c0.8-1.1,1.7-2.2,2.6-3.3c1.4-1.7,3-3.5,4.3-5.3
						c1.6-2.1,2.9-4.1,4.1-5.7c0.1-0.2,0.3-0.8,0.3-1.1c-0.6,0.8-1,1.4-1.6,2.2c-0.7,0.9-1.5,1.9-2.2,2.8c-0.4,0.5-0.7,1-1.1,1.4
						c-1.2,1.5-2.2,2.8-3.5,4.4c-0.5,0.7-1.3,1.8-1.8,2.5c-0.8,1-1.6,1.8-2.4,2.8c-0.6,0.7-1.2,1.5-1.7,2.3L286.4,510.8L286.4,510.8
						z"/>
					<path id="path388" inkscape:connector-curvature="0" class="st37" d="M265.5,485.5l19.5,24.3l37.9-3.8c0.9-1.3,2.4-2.7,3.3-3.9
						c0.7-1,1-1.7,1.7-2.7c1.8-2.5,3.7-4.8,5.6-7.3c1-1.3,1.8-2.8,2.8-4.1c-0.6,0-1.1,0.7-1.5,1.3c-0.7,0.9-1.4,2.2-2.1,3.2
						c-0.9,1.2-1.6,2.1-2.5,3.3c-0.3,0.5-0.6,0.7-0.9,1.2c-0.7,0.9-1.3,1.9-2,2.8c-1.5,1.9-2.8,3.3-4.6,5.8l-37.2,3.7L268,487.4
						L265.5,485.5L265.5,485.5z"/>
				</g>
				<path id="path390" inkscape:connector-curvature="0" class="st37" d="M262.8,547.3c-0.3,0.6-0.8,0.9-1.5,1.2
					c-1.1,0.4-2.6,0.5-3.7,0.9c-0.8,0.3-1.6,0.6-2.5,0.9l-14.4,5.1l-5.3,18.2c-0.4,1.3-0.6,1.6-1.2,3.1c0.1-1.1,0-1.9,0.3-3
					l5.5-19.3l13.5-4.7c1.4-0.5,2.8-0.6,4.2-0.9c1-0.2,2.1-0.6,3.1-0.9c0.5-0.2,0.9-0.3,1.4-0.5C262.6,547.2,262.9,547,262.8,547.3
					L262.8,547.3z"/>
				<path id="path392" inkscape:connector-curvature="0" class="st37" d="M266.5,546.9c0.5,1.2,1.7,3,2.5,4.3l17.7,26.9v3.2
					l-8.9,23.7c3.7,2.7,7.5,5.4,11.2,8.1c1,0.7,2,1.5,3.1,2.3c2.9,2.1,6.2,4.5,9.1,6.6c0.5,0.3,2.1,1.5,2.6,1.8s-0.3-0.6-0.9-1
					c-1.3-1.1-2.9-2.2-4.2-3.2c-2-1.5-4-3-6-4.5c-1.1-0.8-2.3-1.6-3.3-2.4c-2.2-1.7-4.7-3.4-6.9-5.1c-1.3-1-2.6-1.8-3.8-3l9.4-25.4
					L269.5,551C268.7,549.6,267.5,547.9,266.5,546.9L266.5,546.9z"/>
				<path id="path394" inkscape:connector-curvature="0" class="st37" d="M309.4,578.2c-0.2,0.2-1.4,0.2-2,0.3
					c-3.7,0.2-7.2,0.2-10.8,0.4c-0.7,0-1.1,0.1-1.8,0.2c-1,0.1-2.5,0.1-3.5,0.2l-9.5,24.1c8.9,5.9,17.3,11.6,25.4,17.3l12.8-6.3
					c0.5-0.3,1-0.4,1.4-0.6c0.3-0.2,1.3-0.6,1.7-0.8c0.2-0.1,0.3,0,1.1-0.4c1.2-0.6,2.8-1.4,2.6-1.2c-0.8,0.6-1.5,0.8-2.3,1.5
					c-0.1,0.1-0.2,0.3-0.4,0.4c-0.6,0.4-1.3,0.7-1.8,1c-0.4,0.3-1,0.4-1.4,0.7l-13.7,6.9l-26.5-18.1l9.9-25.4c1.1,0,3.5-0.2,4.5-0.2
					c1.1,0,0.8,0.2,2,0.2c2.4,0,4.9-0.1,7.4-0.2c0.5,0,1-0.2,1.8-0.2c0.7-0.1,1.6,0,2.2,0C309.4,577.9,309.5,578,309.4,578.2
					L309.4,578.2z"/>
				<path id="path396" inkscape:connector-curvature="0" class="st37" d="M264.3,539.9l-1.7,3.2c0.1-0.6,0-1.2,0.1-1.4
					c0.3-0.6,1-1.8,1.5-2.6C264.3,538.9,264.2,540.2,264.3,539.9L264.3,539.9z"/>
				<path id="path398" inkscape:connector-curvature="0" class="st37" d="M265,548.4c0.8,0.9,1.7,1.4,2.2,2.2l-0.5,0.3l-1.9-2
					L265,548.4L265,548.4z"/>
				<path id="path400" inkscape:connector-curvature="0" class="st37" d="M296.6,577.6l1.2-0.1c0.4,0,0.6,0,0.7-0.4h1.5
					c0.8,0,1-0.6,0-0.6h-1.9c-0.2,0.1-0.6-0.1-0.7,0.5l-0.8,0.1C296.1,577.3,296.1,577.6,296.6,577.6L296.6,577.6z"/>
				<path id="path402" inkscape:connector-curvature="0" class="st37" d="M232.1,578.9l0.1,0.7c0.1,0.9-0.2,0.7-0.5,0l-0.2-0.5
					C231.4,578.7,232,578.5,232.1,578.9z"/>
				<path id="path404" inkscape:connector-curvature="0" class="st37" d="M306.2,581.2h3.6c1.1,0,0.5-0.5,0-0.5c-1.3,0-2.3,0-3.5,0
					C305.4,580.7,305.5,581.2,306.2,581.2z"/>
				<path id="path406" inkscape:connector-curvature="0" class="st37" d="M301,626.6c1.1,0.9,1.9,1.5,3.3,2.3
					c0.1,0.1,0.5-0.2,0.4-0.3l-3.3-2.2C300.6,625.9,300.3,626,301,626.6L301,626.6z"/>
				<path id="path408" inkscape:connector-curvature="0" class="st37" d="M326.5,615c0.3-0.3,1,0.1,0.7,0.4l-1,0.9
					c-0.3,0.3-1,0-0.8-0.3L326.5,615z"/>
			</g>
			<path id="path410" inkscape:connector-curvature="0" class="st23" d="M325.4,516.2l16.1,23.7l3.1-0.3l-17-26.4l-1.6,0.3l0.1,1.9
				L325.4,516.2L325.4,516.2z"/>
			<g id="Layer1017">
				<path id="path413" inkscape:connector-curvature="0" class="st37" d="M325.1,513.1l0.8,1.4v0.6l16.2,25.9v-0.8l-15.7-25.5
					l0.7-0.6l-1.2-1.2L325.1,513.1L325.1,513.1z"/>
				<path id="path415" inkscape:connector-curvature="0" class="st37" d="M328.8,515.7l4.3,6.6l0.9,1.5l10.4,16
					c5.7,0.5,11.7,1,18,1.4c0.2-0.2,1.4-0.1,1.7,0.1c1.4,0.1,3,0,4.4,0l7.7-6.5l1.6-13.2l-1.1,4.1l-1.2,9l-7.3,6.1
					c-2-0.1-4.1-0.1-6.1-0.2c-1.6-0.1-2.9-0.2-4.4-0.3c-1.6-0.1-3.7-0.2-5.3-0.4c-2.7-0.2-5.3-0.3-7.6-0.7l-11-16.5l-5.3-7.8
					L328.8,515.7L328.8,515.7z"/>
				<path id="path417" inkscape:connector-curvature="0" class="st37" d="M331.9,571.2l0.7-3.9l9.7-25.7l23.5,1.2l6,0.2l3.9,20
					l-0.5-0.6l-3.9-18.6l-28.4-1.6L331.9,571.2L331.9,571.2z"/>
				<path id="path419" inkscape:connector-curvature="0" class="st37" d="M343.4,544l-0.1,1c-3.1,8.1-5.9,16.6-8.9,24.7v1.2
					l11.7,11.9l1.8,2l-2.3-1.6l-11.7-11.8v-2.5C337.1,560.6,340.2,552,343.4,544L343.4,544z"/>
				<path id="path421" inkscape:connector-curvature="0" class="st37" d="M332.2,573.1l-0.4-0.2l1.5,2.3c0.6,0.6,1.1,0.8,1.7,1.4
					c3.7,3.5,7.7,7.3,11.4,10.7l0.9-0.2l-12.5-11.5L332.2,573.1z"/>
				<path id="path423" inkscape:connector-curvature="0" class="st37" d="M372,541.4l6-5.7c0.6-6.2,0.6-12.6,1.5-18.6
					c-0.1,4.3-0.8,12.6-1.2,18.8l-6.2,6L372,541.4L372,541.4z"/>
				<path id="path425" inkscape:connector-curvature="0" class="st37" d="M349.4,588.3l1.3,0.9l-0.5,0.2l-1.4-1L349.4,588.3z"/>
				<path id="path427" inkscape:connector-curvature="0" class="st37" d="M343,491.9l0.6,0.5l0.7,0.1l1.4,0.7l-0.7,0.3l-2.5-1.4
					L343,491.9L343,491.9z"/>
				<path id="path429" inkscape:connector-curvature="0" class="st37" d="M376.4,559.4l1,4l0.4-0.1l-1.1-4L376.4,559.4z"/>
				<path id="path431" inkscape:connector-curvature="0" class="st37" d="M330.4,511.4l2.6,3.9l0.3-0.2l-2.6-3.8L330.4,511.4
					L330.4,511.4z"/>
				<path id="path433" inkscape:connector-curvature="0" class="st37" d="M358.7,500.3l3.3,2.9l-0.2-0.8l-3.4-2.9L358.7,500.3
					L358.7,500.3z"/>
				<path id="path435" inkscape:connector-curvature="0" class="st37" d="M369.9,545.6h2.2l-0.2-0.3h-3.4L369.9,545.6L369.9,545.6z"
					/>
			</g>
		</g>
	</g>
</g>
</svg>
