<?xml version="1.0" encoding="utf-8"?>
<!-- Generator: Adobe Illustrator 26.0.2, SVG Export Plug-In . SVG Version: 6.00 Build 0)  -->
<svg version="1.1"
	 id="svg10" xmlns:cc="http://creativecommons.org/ns#" xmlns:dc="http://purl.org/dc/elements/1.1/" xmlns:inkscape="http://www.inkscape.org/namespaces/inkscape" xmlns:rdf="http://www.w3.org/1999/02/22-rdf-syntax-ns#" xmlns:sodipodi="http://sodipodi.sourceforge.net/DTD/sodipodi-0.dtd" xmlns:svg="http://www.w3.org/2000/svg"
	 xmlns="http://www.w3.org/2000/svg" xmlns:xlink="http://www.w3.org/1999/xlink" x="0px" y="0px" width="800px" height="800px"
	 viewBox="0 0 800 800" style="enable-background:new 0 0 800 800;" xml:space="preserve">
<style type="text/css">
	.st0{fill-rule:evenodd;clip-rule:evenodd;fill:#1C1F42;}
	.st1{fill-rule:evenodd;clip-rule:evenodd;fill:#F0CD11;}
	.st2{fill-rule:evenodd;clip-rule:evenodd;fill:#FFFFFF;}
	.st3{fill:#1C1F42;}
	.st4{fill:#F0CD11;}
	.st5{fill:#FFFFFF;}
	.st6{fill:#F0CD11;stroke:#00FFFF;stroke-width:8.226221e-02;stroke-miterlimit:2.1937;}
</style>
<sodipodi:namedview  bordercolor="#666666" borderopacity="1" gridtolerance="10" guidetolerance="10" id="namedview12" inkscape:current-layer="g18" inkscape:cx="350.28857" inkscape:cy="335.87797" inkscape:deskcolor="#d1d1d1" inkscape:pagecheckerboard="0" inkscape:pageopacity="0" inkscape:pageshadow="2" inkscape:showpageshadow="2" inkscape:window-height="745" inkscape:window-maximized="0" inkscape:window-width="1440" inkscape:window-x="0" inkscape:window-y="25" inkscape:zoom="0.45105668" objecttolerance="10" pagecolor="#ffffff" showgrid="false" showguides="true">
	</sodipodi:namedview>
<g id="g18" transform="matrix(1.3333333,0,0,-1.3333333,837.68081,2164.197)" inkscape:groupmode="layer" inkscape:label="Logo">
	<g id="g16982" transform="matrix(0.41131106,0,0,0.41131106,-369.85008,955.52917)">
		<circle id="circle10003" class="st0" cx="101.1" cy="893.8" r="729.4"/>
		<circle id="circle10001" class="st1" cx="101.1" cy="893.8" r="701.3"/>
		<circle id="circle9999" class="st0" cx="101.1" cy="893.8" r="684.4"/>
		<circle id="circle9997" class="st1" cx="101.1" cy="893.8" r="667.5"/>
		<circle id="circle9995" class="st0" cx="101.1" cy="893.8" r="630"/>
		<circle id="circle9993" class="st1" cx="101.1" cy="893.8" r="436.9"/>
		<circle id="circle9991" class="st0" cx="101.1" cy="893.8" r="414.4"/>
		<circle id="path9441" class="st2" cx="101.1" cy="893.8" r="397.5"/>
	</g>
	<g id="g17272" transform="matrix(0.41131106,0,0,0.41131106,-370.49926,955.52917)">
		<g id="g7055" transform="translate(-1500.0001)">
			<path id="path459" class="st3" d="M1617.5,1024.7c-0.8,0-1.5-0.2-2.3-0.6c-4.5-2.4-7.3-7.7-7.3-13.7c0-4.9,0.9-7.6,3.6-10.4
				c1.1-1.1,2.7-2.1,3.6-2.1c2.5,0,7.6,4.9,9,8.6C1627,1014.5,1622.8,1024.6,1617.5,1024.7z M1617.4,1021.3c0.5,0,1.7-1.1,2.5-2.4
				c1.9-3.1,1.9-8.3,0.2-11.8c-2.1-4.2-2.9-3.6-2.6,1.6l0.3,4.7l-1.6-1.5c-0.9-0.8-1.9-3-2.2-4.9l-0.6-3.3l-1.2,2.8
				c-1.5,3.3-1.5,4.7-0.4,8.2C1612.7,1017.5,1615.9,1021.3,1617.4,1021.3L1617.4,1021.3z"/>
			<path id="path455" class="st3" d="M1588.2,1024.7c-0.3,0-0.6,0-0.9-0.1c-2.5-0.7-5.5-4.8-6.4-8.7c-1.3-5.4,0.1-10.4,4.1-14.6
				c3.6-3.8,5.6-4.1,8.2-1.3c3.5,3.8,5.2,8.3,4.7,12.5C1597.2,1018.4,1592,1024.6,1588.2,1024.7L1588.2,1024.7z M1588.4,1021.1
				c0.5,0,1-0.5,2-1.4c3.7-3.4,5.1-9.5,3-13.3c-1.2-2.1-1.6-1.6-2.3,3.1c-0.3,2.3-0.9,3.6-1.6,3.6c-0.8,0-1.1-1.3-1.3-5.1l-0.2-5.1
				l-1.6,2.1c-3.2,4.1-2.9,12,0.6,15.2C1587.6,1020.8,1588,1021.1,1588.4,1021.1L1588.4,1021.1z"/>
			<path id="path451" class="st3" d="M1646.5,1017.3c-0.9,0-2.1-0.3-3.4-0.9c-5.8-2.6-9.7-8.3-9.7-14.5c0-3.4,1.7-8.3,3.2-9.4
				c1.6-1.1,6.5,0,9.1,2c5.6,4.3,7.6,10.8,5.3,17.7C1649.8,1015.7,1648.6,1017.3,1646.5,1017.3z M1645.3,1012.9c2.1,0.1,3-1.8,3-5.9
				c0-3.5-0.8-5.5-3.6-8.4c-1.7-1.8-3.1-2.6-3.1-1.8c0,0.1,0.6,2.1,1.4,4.4c1.3,3.6,1.3,4.2,0.3,4.6c-0.6,0.2-1.2,0.4-1.3,0.4
				c-0.1,0-1-1.7-1.9-3.7c-2-4.3-3-4.2-3,0.1c0,3.9,1.7,7.1,4.7,8.9C1643.2,1012.4,1644.4,1012.9,1645.3,1012.9L1645.3,1012.9z"/>
			<path id="path447" class="st3" d="M1558.5,1016.7c-1.4,0-1.9-0.4-2.7-1.6c-4.6-7-2.1-16.8,5.3-21.3c5.3-3.2,8.7-2.1,10.3,3.6
				c2.6,8.6-3.1,18.3-11.2,19.2C1559.5,1016.7,1559,1016.7,1558.5,1016.7L1558.5,1016.7z M1560.3,1013c2.1,0,5.3-2.5,6.8-5.4
				c1.1-2.2,1.7-7.8,0.8-8.6c-0.2-0.2-1.3,1.3-2.4,3.4c-3,5.9-4.9,5-3-1.4c0.6-2.2,1-4.1,0.8-4.3c-0.7-0.7-4.3,3.4-5.4,6.1
				C1555.9,1007.7,1557.2,1013,1560.3,1013L1560.3,1013z"/>
			<path id="path443" class="st3" d="M1603.3,1057.3c-3.9,0-9.9-7.8-10.9-14c-0.9-5.8,1.3-11.8,6.6-18.5c1.6-2,1.7-2.8,1.9-17.6
				c0.1-8.5,0.4-15.9,0.5-16.4c0.2-0.5,0.8-0.9,1.5-0.9c1,0,1.2,1.9,1.3,13.3c0.1,7.3,0.2,14.2,0.3,15.2c0.1,1,0.2,2.6,0.2,3.5
				c0,0.9,1.1,2.8,2.4,4.1c5.3,5.7,7.2,13.7,5,21.1C1611.2,1050.3,1605.2,1057.3,1603.3,1057.3z M1603.1,1052.8
				c4.2,0,7.7-10.9,5.6-17.4c-0.5-1.4-1.7-3.5-2.7-4.8l-1.8-2.2l0,6.9c0,6.4-0.1,6.9-1.5,6.9c-1.4,0-1.5-0.5-1.5-6.4
				c0-7.3-0.7-7.9-3.5-2.6C1593.8,1040.4,1597.3,1052.8,1603.1,1052.8L1603.1,1052.8z"/>
			<path id="path439" class="st3" d="M1534.6,1002.5c-3.5-0.1-5.5-2.7-5.5-7.6c0-6.6,4.1-12.2,10.4-14.1c1.1-0.3,3.4-0.6,5.2-0.7
				c2.8-0.1,3.3,0.2,4.1,2c2.8,6.8-1.7,16.1-9.3,19.3C1537.6,1002.1,1536,1002.5,1534.6,1002.5L1534.6,1002.5z M1532.7,999l3-0.4
				c1.7-0.2,3.9-1,5-1.8c2.2-1.6,4.9-6.7,4.9-9.1c0-1.4-0.5-1.1-3.2,1.7c-2.4,2.5-3.5,3.2-4.3,2.6c-1-0.6-0.9-1,0.4-2.8
				c0.9-1.2,2-2.9,2.4-3.8c1.1-2,0.4-2.1-2.5-0.3c-4,2.5-5.1,4.3-5.5,9.2L1532.7,999z"/>
			<path id="path435" class="st3" d="M1671.4,1002.5c-6.4,0-12.7-4.8-14.5-11c-1.3-4.4-1.1-9.2,0.5-11.1c2.7-3.2,13,0.7,16.6,6.3
				C1678,993,1676.5,1002.5,1671.4,1002.5z M1671,998.7c1.1,0,1.3-0.5,1.6-2.6c0.6-3.9-1.5-8.6-4.9-10.7c-4-2.5-4.5-2-1.9,2.2
				c1.9,3,2.2,4,1.4,4.7c-0.7,0.7-1.6,0.1-4.3-2.8l-3.4-3.8l0.4,3c0.7,5,4.7,9.1,9.6,9.9C1670.1,998.6,1670.6,998.7,1671,998.7
				L1671,998.7z"/>
			<path id="path433" class="st3" d="M1593.6,977.3c0,1.1,2.2,4.7,4,6.3c2.5,2.3,7.7,3,10.8,1.3c3.5-1.8,3.5-2.6-0.2-2.2
				c-5.1,0.6-8.4-0.4-11.7-3.3C1594.9,978.1,1593.6,977.1,1593.6,977.3L1593.6,977.3z"/>
			<path id="path431" class="st3" d="M1597.8,976.6c1.1,2.8,7.1,4.7,10.5,3.3l2.2-0.9l-3.9-0.5c-2.1-0.3-5-1.1-6.3-1.8
				C1597.4,975.3,1597.3,975.3,1597.8,976.6L1597.8,976.6z"/>
			<path id="path425" class="st3" d="M1640.1,1052c-2.5,0-8.1-3.6-10.4-6.7c-2.2-3-3.9-7.7-3.9-11c0-1.4,0.8-4.3,1.7-6.5
				c2.4-5.6,2.3-13-0.5-22.9c-2-7.2-2.4-7.9-5.5-10.4c-6.4-5.3-8-12.5-4.3-19.7c1-2,2.2-3.7,2.5-3.7c0.9,0,6.2,4,8.1,6.1
				c3.4,3.7,4.1,8.9,2,14.2c-1.5,3.8-1.1,7.8,2,19.2c2.3,8.4,2.4,8.5,5.6,10.4c6.5,3.8,10.1,10,10.1,17.5
				C1647.6,1045.8,1644.2,1052,1640.1,1052L1640.1,1052z M1639.5,1048.3c1.4,0,3.6-3.1,4.4-6.1c1.3-4.7-0.2-10.4-3.6-14.2
				c-4.2-4.6-4.7-4.1-2.9,3.5c1.4,5.9,1.4,6.4-0.3,6.4c-1.1,0-1.8-1.3-3.1-6.1c-1.5-5.3-1.9-5.9-2.7-4.8c-2.5,3.4-2.1,11.4,0.7,15.5
				C1633.7,1044.8,1638.1,1048.3,1639.5,1048.3L1639.5,1048.3z M1625,991.8c0.9,0,1.5-1.2,2.3-4.2c0.6-2,0.4-3.2-0.7-5.8
				c-2-4.5-3.2-4.2-2.6,0.5c0.4,3.1,0.3,3.8-0.7,3.8c-0.7,0-1.5-1.2-2.1-2.8c-1.4-4.3-2.2-4.6-2.2-0.9c0,4,1.1,6.4,4,8.5
				C1623.9,991.4,1624.5,991.8,1625,991.8L1625,991.8z"/>
			<path id="path421" class="st3" d="M1690.2,981.8c-1,0-2.1-0.1-3.3-0.4c-6.7-1.3-12.2-6.8-12.9-13.2c-0.4-3.4,0.5-5.1,3.2-6.3
				c0.8-0.4,3.2-0.5,5.2-0.3c7.3,0.8,12.3,5,13.9,11.6C1697.8,978.9,1695.6,981.9,1690.2,981.8z M1689.9,978.2c0.6,0,1.1,0,1.7-0.2
				c1.8-0.5,1.9-0.7,1.5-3.2c-0.5-3.3-2.5-6.1-5.4-7.7c-2.8-1.6-6.3-2.4-6.3-1.5c0,0.4,1.3,1.7,3,2.8c3.3,2.3,3.5,3.5,0.7,3.8
				c-1.2,0.1-2.5-0.4-3.6-1.7c-2.2-2.3-3-2.4-3-0.3C1678.4,973.8,1685.1,978.2,1689.9,978.2z"/>
			<path id="path417" class="st3" d="M1515.5,981.5c-5.3,0-6.6-1.1-6.6-5.8c0-6,4.5-11.7,11.1-13.7c1.9-0.6,7.2-0.3,10.1,0.5
				c1,0.3,1.3,1.2,1.3,3.7C1531.4,975.3,1524.9,981.5,1515.5,981.5z M1515.7,978.5c2.8,0.1,6.6-1.4,9.2-4.4c1.1-1.3,2-3,2-3.8
				c0-1.3-0.2-1.3-3.2,0.4c-3.1,1.8-5.8,2.4-5.8,1.3c0-0.3,1.6-2,3.6-3.7c3.3-3,3.4-3.2,1.7-3.2c-4.2-0.1-9.8,4.8-11,9.5
				C1511.5,977.1,1513.2,978.4,1515.7,978.5z"/>
			<path id="path411" class="st3" d="M1675,1037.7c-1.3,0-2.8-0.4-4.6-1c-5.4-2.1-9-5.2-11.2-9.7c-2-4-2-4.5-1.6-11.9l0.5-7.7
				l-5-8.6c-6.1-10.5-6.3-10.8-11.2-13.1c-2.8-1.3-4.6-2.8-6.1-5c-1.9-2.9-2.1-3.8-2-8.9c0.1-6.2,0.1-6.3-6.2-16.9
				c-2.2-3.7-4.2-7.7-4.5-8.9c-0.4-1.8-0.3-2.1,0.9-1.9c0.8,0.2,2.9,2.7,4.9,6.3c7.3,12.4,8.4,13.8,11.6,15.3
				c7.7,3.6,10.6,8.6,9.7,16.4c-0.5,3.9-0.3,4.2,4.2,12.2c6.2,10.9,8,13,12,14c4.7,1.2,8.8,4.5,11.4,9.2c1.9,3.5,2.3,4.8,2.2,9.7
				C1680.2,1034.5,1678.7,1037.7,1675,1037.7z M1673.4,1033.9c0.1,0,0.3,0,0.4,0c1.5-0.1,2.1-0.9,2.8-3.2c1.9-5.8-2.2-15-7.7-17.3
				c-4.2-1.7-4.2-1.6-1.1,4.1c2.6,4.7,2.8,6.1,0.9,6.1c-0.8,0-2.3-1.7-3.9-4.5c-1.4-2.5-2.9-4.5-3.1-4.5c-0.8,0-1.1,3.8-0.5,7
				C1662.2,1027.2,1668.8,1033.9,1673.4,1033.9L1673.4,1033.9z M1645.1,983c1.9,0,2-0.1,1.6-4.1c-0.2-3-0.8-4.7-2.1-6
				c-2-2.2-3.4-2.5-2.6-0.6c0.3,0.7,0.8,2.2,1.1,3.3c0.9,3.2-1.1,3.3-3,0.2c-2-3.3-3.2-3.4-2.6-0.1
				C1638.1,978.8,1642.4,983,1645.1,983z"/>
			<path id="path407" class="st3" d="M1702.1,957.4c-6.1,0-12.6-3.9-15.1-9.3c-1.7-3.7-0.8-5.7,3.9-8.1c2-1,4.6-1.9,5.8-1.9
				c3.4-0.1,8.3,2.7,11.7,6.5c2.6,3,3,3.9,2.8,6.4c-0.3,3.6-2.6,5.7-7.2,6.3C1703.4,957.4,1702.8,957.4,1702.1,957.4L1702.1,957.4z
				 M1702.5,953.8c2.9,0,5.1-1.1,5.1-3.3c0-2.3-2.4-5.2-5.5-6.7c-2.7-1.3-8.7-1.7-8.7-0.6c0,0.3,1.7,1.3,3.7,2.2s3.9,2,4.2,2.4
				c0.9,1.5-3.4,1.8-6.4,0.4c-3.7-1.6-4.5-1-2.1,1.6C1695.1,952.4,1699.2,953.8,1702.5,953.8z"/>
			<path id="path403" class="st3" d="M1504.6,957.3c-3.5,0-7.7-1-9.4-2.5c-4.3-3.9,2.6-14,10.9-16c1.3-0.3,2.5-0.6,2.7-0.6
				c1.1-0.2,8,2.4,9.1,3.4c1.8,1.6,1.7,3.4-0.1,7c-1.9,3.7-6.3,7.3-10.1,8.4C1506.8,957.1,1505.7,957.3,1504.6,957.3z M1503.4,953.7
				c2.1,0,4.4-0.5,6.2-1.5c2.6-1.5,5-4.2,4.4-4.9c-0.2-0.2-1.8,0.2-3.5,0.8c-4.1,1.4-5.3,1.4-5.3,0c0-0.6,1.5-1.9,3.4-2.8
				c1.9-0.9,3.4-1.9,3.4-2.2c0-1.2-6.4-0.5-9.2,0.9c-2.7,1.4-5.1,4.7-5.1,7.1C1497.6,952.8,1500.3,953.7,1503.4,953.7L1503.4,953.7z
				"/>
			<path id="path397" class="st3" d="M1701.8,1015.2c-1,0-2.2-0.4-4.5-1.1c-4.7-1.4-10.8-6.7-12.5-10.8c-0.7-1.6-1.4-5.1-1.7-7.8
				l-0.5-4.8l-8.5-8.4c-8.3-8.3-8.6-8.5-12.7-9c-7.2-1-11.5-5.3-12.5-12.5c-0.6-4.1-0.8-4.3-9.5-13.2c-8.8-8.9-11.1-11.8-10.1-12.7
				c1-1,2.2-0.1,11.8,9.2c8.4,8.2,10.4,9.8,12.9,10.2c8,1.3,12.5,5.4,14,12.8c0.9,4.3,1.3,4.9,8.9,12.7l8,8.2l5.2,0.6
				c7.1,0.8,12.6,3.8,15.7,8.3c3.1,4.4,4.4,10.1,3.3,14.1c-0.7,2.5-1.2,3-3.6,3.7C1703.7,1015,1702.8,1015.2,1701.8,1015.2
				L1701.8,1015.2z M1702.4,1011.4c0.9,0,1.4-0.3,2.2-1.1c1.3-1.2,1.5-2,1.1-4.8c-0.6-4.4-3.4-8.5-7.4-10.8c-3.4-2-8.1-3.3-8.1-2.3
				c0,0.3,1.7,2.4,3.9,4.5c2.4,2.5,3.7,4.3,3.4,5c-0.7,1.8-3,0.7-6.6-2.9c-1.8-1.8-3.5-3.3-3.8-3.3c-1,0,0.2,4.8,2.1,8
				c2.3,4,5.1,6,9.9,7.1C1700.8,1011.2,1701.7,1011.4,1702.4,1011.4L1702.4,1011.4z M1662.1,969.5c1.9,0,2-0.3,2-2.4
				c0-2.5-1.5-5.4-3.7-7.1c-1.3-1-3.8-1.8-3.8-1.2c0,0.2,0.8,1.4,1.8,2.8c1.2,1.6,1.6,2.8,1.2,3.4c-0.5,0.8-1.3,0.5-3.7-1.4
				c-3.3-2.6-4-1.9-1.6,1.8c1.8,2.8,4.2,4.1,7.4,4.1C1661.8,969.5,1662,969.5,1662.1,969.5L1662.1,969.5z"/>
			<path id="path391" class="st3" d="M1565.3,1051.9c-1.9,0-3.4-1.2-5-4c-2-3.3-2.3-4.4-2.3-9.4c0-7.7,2.6-12.6,8.8-16.9
				c4.1-2.8,4.4-3.2,6.1-8.8c1-3.2,2.4-8.3,3.1-11.4c1.3-5.6,1.3-5.7-0.3-9.9c-0.9-2.3-1.6-5.1-1.6-6.1c0-3.3,2.2-7.3,6.3-11.5
				c4-4.1,4-4.1,7.1-16c3.1-11.6,7.1-25.2,8.1-27.5l0,0c0.4-0.8,0.6-0.7,0.8,0.6c0.2,0.9-1.8,10.8-4.4,21.9l-4.7,20.2l1.4,3.2
				c1.7,3.7,1.7,9.1,0.1,12.3c-0.6,1.2-2.5,3.5-4.2,4.9c-4.2,3.8-5.3,6.2-8,17.7c-1.5,6.5-1.4,9.8,0.5,12.9
				c2.2,3.6,2.7,10.7,1.1,15.5c-1.5,4.6-5,8.9-8.8,10.8C1567.8,1051.5,1566.5,1051.9,1565.3,1051.9L1565.3,1051.9z M1565.8,1048.1
				c1,0.1,2.3-0.7,4.1-2.2c3.6-3,5.9-7.5,6-11.9c0.1-3.3-1.4-8.3-2.4-8.3c-0.3,0-1.1,2.3-1.8,5.1c-1.4,5.3-2.3,6.9-4.1,6.9
				c-0.7,0-0.9-0.5-0.6-1.7c0.2-0.9,0.9-3.8,1.5-6.4c0.6-2.6,0.8-4.7,0.5-4.7c-1.2,0-5.4,4.8-6.5,7.3c-1.6,3.8-1.3,10.2,0.6,13.3
				C1563.9,1047.2,1564.7,1048.1,1565.8,1048.1z M1580.2,992.1l2.4-1.5c2.9-1.8,4.7-5.9,3.9-8.9l-0.6-2.1l-1.4,3.2
				c-0.8,1.8-1.9,3.2-2.6,3.2c-1,0-1.1-0.6-0.7-3.8c0.3-2.1,0.3-3.8,0-3.8c-1,0-3.5,5-3.5,7c0,1.2,0.5,3.1,1.2,4.4L1580.2,992.1z"/>
			<path id="path385" class="st3" d="M1722.6,985.9c-3.4,0.1-7.1-0.7-10.2-2.2c-4.3-2.2-8.9-8.2-9.6-12.5
				c-0.6-3.6-1.2-4.1-11.8-10.2c-8.5-4.8-8.8-5-14.1-5c-8.4,0-14.1-3.2-15.9-8.9c-1.2-3.7-2.4-4.9-8.1-8
				c-11.2-6.1-20.3-11.9-20.3-12.8c0-2.1,3.7-0.7,15.9,6.2c12.5,7.1,12.8,7.2,16.4,6.7c7.4-1,12.7,2,16,8.9c1.6,3.4,2.6,4.4,6.2,6.5
				c2.4,1.3,6.8,3.9,9.8,5.7l5.4,3.3l7.4-0.5c6.6-0.5,7.8-0.3,11,1.1c3.6,1.6,6.7,4.2,8.9,7.7c1.7,2.6,2.7,8,1.9,10.2
				C1730.6,984.5,1726.9,985.9,1722.6,985.9L1722.6,985.9z M1722,982.8c2.5,0,4.5-0.8,5.6-2.4c1-1.6,1-2-0.1-4.6
				c-1.5-3.6-3.7-6-7.2-7.8c-3.2-1.7-7.9-2.4-9.9-1.6c-1.2,0.5-0.7,1.1,3.6,3.8c5.2,3.3,5.4,3.6,4.4,5c-0.4,0.6-2.2,0-6.1-2
				c-3.1-1.6-5.7-2.8-5.9-2.6c-0.8,0.8,4.1,7.5,6.6,9.1C1715.9,981.7,1719.2,982.8,1722,982.8L1722,982.8z M1674.8,952.3
				c1.6,0,2.9-0.2,3.1-0.6c0.9-1.4-2.4-6.7-5-7.9c-4.8-2.3-6.8-1.3-2.8,1.4c1.2,0.8,2.2,2.1,2.2,2.8c0,1.6-0.1,1.6-3.5,0.2
				c-1.5-0.6-3-1.1-3.4-1.1c-1.2,0,1.6,3.5,3.5,4.4C1670.2,952,1672.7,952.3,1674.8,952.3z"/>
			<path id="path379" class="st3" d="M1530.5,1037.4c-2.2,0-2.7-0.5-3.9-2.6c-2.4-4-2.2-11.1,0.5-16.6c2.3-4.7,5.6-7.4,11.2-9.3
				c4.4-1.5,6.5-3.9,12.2-13.8c4.3-7.5,4.5-8.1,4.6-13.1c0-2.9,0.3-6.3,0.6-7.7c0.6-2.9,4.4-6.4,8.8-8c1.8-0.7,3.8-2,4.3-2.9
				c0.6-0.9,5.6-9.2,11.3-18.5c5.6-9.3,10.7-17.6,11.3-18.6s1.3-1.7,1.7-1.7c2.6,0-0.8,7.1-14.1,29.2l-7.1,11.8v5.5
				c0,8.6-3.4,14-9.5,15.3c-3,0.7-3.6,1.4-9.5,11.6c-5.6,9.7-6.2,11.6-5,16.8c1.7,7.8-1.9,15.7-9.3,20.3c-2.6,1.6-4.6,2.2-7,2.3
				C1531.2,1037.4,1530.8,1037.4,1530.5,1037.4L1530.5,1037.4z M1531.6,1034c0.5,0,1.3-0.2,2.5-0.6c5.8-2,10.7-8.7,10.7-14.5
				c0-5.3-0.7-5.5-3.5-0.8c-5,8.4-7.6,7.3-3.2-1.4c2-4,2.1-4.5,0.9-4.5c-1.5,0-4.4,1.9-6.4,4.1c-4.3,4.9-5.7,12.8-2.9,16.2
				C1530.5,1033.6,1531,1034,1531.6,1034L1531.6,1034z M1560.7,983c3.3,0,7.4-4.5,7.4-8.5v-2.3l-2,2.8c-1.9,2.7-4,3.7-4,2
				c0-0.4,0.5-1.9,1.1-3.4c0.9-2.1,0.9-2.6,0.1-2.6c-3.5,0-6.9,10.6-3.7,11.8C1559.9,982.9,1560.3,983,1560.7,983L1560.7,983z"/>
			<path id="path373" class="st3" d="M1503.2,1014.5c-2.7,0-5.1-0.3-5.9-1.2c-2.7-2.7-1-12.7,3-17.9c2.5-3.3,8.7-6.4,12.7-6.4
				c4.8,0,8.7-2.3,15.6-9.1c7.4-7.3,8.5-8.9,9.1-13.3c0.3-1.8,1-4.3,1.6-5.5c1.3-2.6,7.3-6.6,9.9-6.6c3.7,0,7.1-2.4,17.2-12.4
				c5.7-5.7,13.3-12.8,16.7-15.9c4.4-3.8,6.6-5.3,7.1-4.8s-4.4,5.9-15.8,17.5c-11.7,11.8-16.7,17.4-17.1,18.9
				c-1.3,5.7-1.9,7.7-3.3,9.8c-1.5,2.4-6.9,5.5-9.6,5.5c-3.3,0-5.9,1.7-12.8,8.5c-7.5,7.4-9.9,11-9.9,15c0,6.6-4.6,13.6-10.8,16.4
				C1508.8,1014,1505.9,1014.5,1503.2,1014.5L1503.2,1014.5z M1502.7,1011.4c0.7,0,1.6-0.1,2.6-0.3c6-1.3,10.8-5.3,12.5-10.4
				c1.7-5.2,0.7-5.5-4-1.3c-4.1,3.7-5.7,4.4-6.3,2.7c-0.1-0.4,1.2-2.3,3-4.1c1.7-1.9,3.6-4,4.2-4.7c0.9-1.1,0.8-1.2-0.8-1.2
				c-2.6,0-7.4,2.4-9.9,4.9c-2.8,2.8-4.2,6.2-4.2,10.3C1499.9,1010.2,1500.6,1011.4,1502.7,1011.4L1502.7,1011.4z M1542.7,969.8
				c1,0,2.4-0.3,3.7-0.8c3.4-1.3,6-4.2,6-6.5c0-1.4-0.3-1.3-2.6,1c-2,1.9-2.8,2.3-3.5,1.7c-0.7-0.7-0.4-1.6,1.1-3.9
				c2.2-3.4,1.3-4.1-2-1.5c-1.5,1.2-4.2,7.3-4.2,9.4c0,0.4,0.6,0.6,1.4,0.6C1542.6,969.8,1542.6,969.8,1542.7,969.8L1542.7,969.8z"
				/>
			<path id="path367" class="st3" d="M1484.1,985.6c-7.8,0-10-1.2-10.4-5.5c-0.7-9.8,11-19.7,20.4-17.3c5.4,1.4,9.7,0.4,17.3-3.9
				c9.8-5.6,11.6-7.1,13.5-11.5c2.9-6.5,7-8.6,16.1-8.4c4.7,0.1,5.1,0,12.4-4.5c4.2-2.5,13.1-7.5,19.9-11c6.8-3.5,12.6-6.3,13-6.2
				c2.6,0.8,1.7,1.4-33.1,21.6c-6,3.5-7.8,4.9-8.2,6.5c-1.7,7-7.4,10.8-15.8,10.5c-4.8-0.2-5.6,0-11.1,3
				c-11.7,6.2-13.9,8.1-16.2,13.9c-2.4,5.9-4.1,8-8.9,10.9C1490.3,985.3,1488.9,985.6,1484.1,985.6z M1483.9,982.2
				c0.2,0,0.4,0,0.6,0c5.9-0.1,11.8-3.7,13.8-9.1c1-2.7,0.4-2.6-5.9,0.5c-4.3,2.2-5.2,2.4-5.6,1.4c-0.2-0.6-0.4-1.3-0.4-1.4
				s2.2-1.5,4.9-3.1s4.9-3.1,4.9-3.4s-0.7-0.7-1.7-0.9c-6.7-1.8-15.4,4.2-16.7,11.6c-0.5,2.6-0.3,2.8,1.9,3.6
				C1481,981.9,1482.5,982.1,1483.9,982.2L1483.9,982.2z M1531.9,952.7c2.1,0,4.3-1,6.2-2.9c2.7-2.6,2-3.4-1.5-1.6
				c-4,2.1-5.4-0.6-1.5-2.9c1.2-0.7,2.2-1.6,2.2-2s-0.3-0.7-0.6-0.6c-6.6,0.8-12,7.9-7.3,9.7
				C1530.3,952.6,1531.1,952.7,1531.9,952.7z"/>
			<path id="path361" class="st3" d="M1732.8,953.2c-7.5,0-11.8-2.5-17.1-10.2c-1.9-2.7-5.8-4.5-14.4-6.8
				c-8.6-2.2-11.9-2.4-16.1-0.7c-6.2,2.5-12.3,0.5-16.2-5.3c-2-3-2.7-3.3-17.5-7.2c-13.2-3.5-16.8-4.9-16.1-6
				c0.8-1.3,4.2-0.9,14.3,1.9c5.4,1.4,11.2,3,12.9,3.5c3.5,0.9,6.5,0.6,11.6-1.2c5.1-1.9,8.5-0.7,14.4,4.9c4.9,4.6,5.6,5,18.2,8.3
				c6.9,1.8,8,1.8,12.6-0.6c5.7-2.9,12.9-2.9,18.4,0.1c6.1,3.3,10,9.4,8.5,13.2c-0.4,1.1-2.3,2.7-4.5,3.9
				C1738.4,952.7,1736.6,953.1,1732.8,953.2L1732.8,953.2z M1733.9,949.7c2.5,0,4.8-0.4,6.2-1.3c4-2.6,1.4-8.6-4.9-11.7
				c-3.9-1.9-9.7-2-12.9-0.3l-2.2,1.2l3.8,1c5.4,1.5,7.1,2.3,7.6,3.6c0.8,2-0.2,2.1-5.7,0.7c-2.9-0.7-5.5-1.1-5.7-1
				c-0.7,0.7,2.9,4.4,5.9,6C1728,949.1,1731.1,949.7,1733.9,949.7z M1680.7,933c1.1,0,2.3-0.2,3.2-0.6c1.5-0.6,2.6-1.5,2.6-2.1
				c0-1.3-2.3-4-4.2-5c-2-1-8-1.1-7.4-0.1c0.2,0.4,1.6,1.1,3.1,1.6c1.8,0.6,2.6,1.3,2.4,2.1c-0.3,1.3-1,1.4-5.1,0.5
				c-2.6-0.6-2.6-0.5-1.3,0.9C1675.6,932,1678.2,933,1680.7,933L1680.7,933z"/>
			<path id="path357" class="st3" d="M1706.7,930.5c-3.9-0.1-7.7-1.7-10.9-4.8c-5.1-5.1-4.3-7.5,3.6-11.2c4.4-2.1,7.6-2.1,12.4,0
				c2.7,1.1,6.9,5.2,7.5,7.3c0.7,2.1-1.7,5.1-5.7,7.2C1711.4,930,1709,930.5,1706.7,930.5L1706.7,930.5z M1706.7,926.7
				c2.8,0,5.7-0.7,7.5-2.1l1.8-1.4l-1.7-2.3c-0.9-1.3-2.8-2.8-4.2-3.5c-2.7-1.3-5.7-1.4-8.8-0.3c-2.3,0.8-2.8,2.1-0.8,2.1
				c2.8,0,6.9,1.6,6.9,2.7c0,0.8-1.1,1.1-4.7,1.1h-4.7l1.6,1.6C1701.3,926,1703.9,926.7,1706.7,926.7z"/>
			<path id="path351" class="st3" d="M1472.5,953c-5.1,0-8.3-1.1-11.4-4c-5-4.6,2.4-15,12.1-17c4.9-1,8.3-0.5,14.3,2.1l4.4,2
				l9.4-2.4c11.6-3,13.8-4,16.1-7.6c3.3-5,10.4-6.8,16.7-4.1c3.6,1.5,5.5,1.2,19.8-2.6c6.4-1.7,15.3-3.9,19.9-4.9
				c8.9-1.9,9.8-1.9,9.8-0.4c0,0.6-1.9,1.5-4.9,2.3c-2.7,0.7-11.1,3-18.8,5.1c-7.6,2.1-15.3,4.2-17.1,4.6c-2.4,0.6-4.2,1.9-6.7,4.6
				c-5.8,6.3-9,7.1-16.9,4.4l-4.2-1.5l-9.6,2.5c-12.8,3.4-13.1,3.5-15.4,7C1485.4,950,1480,953,1472.5,953z M1473.2,949.8
				c3.7,0,6.8-1.5,10.1-4.6c3.9-3.7,3.2-4.2-3.4-2.2c-3.6,1.1-6.3,0.9-6.3-0.3c0-1.1,1.9-2.1,6.6-3.4c4.3-1.2,4.6-1.4,3.6-2.5
				c-1.8-1.8-9.2-2-12.8-0.3c-2.9,1.4-8.6,6.9-8.6,8.4c0,1.6,3.1,3.7,6.9,4.5C1470.6,949.6,1471.9,949.8,1473.2,949.8z
				 M1524.6,932.7c1.9,0,3.9-0.4,5.4-1.2c2.9-1.7,2.8-2.5-0.3-2c-3.8,0.7-3.8,0.7-4.1-0.6c-0.2-0.8,0.8-1.6,3-2.5c2.5-1,3-1.4,2.1-2
				c-0.6-0.4-1.6-0.7-2.2-0.7c-2.5,0-9,4.7-9,6.4C1519.4,931.8,1521.8,932.7,1524.6,932.7L1524.6,932.7z"/>
			<path id="path347" class="st3" d="M1497.3,930.4c-2,0-3.4-0.4-5.9-1.7c-4.9-2.4-6.3-4.8-4.7-7.8c1.7-3.2,4.6-5.5,8.9-7
				c5.4-1.9,6-1.8,11.9,1.3c4.2,2.2,5.2,3.1,5.2,4.5c0,5.1-5.8,9.8-13.1,10.5C1498.7,930.4,1498,930.4,1497.3,930.4L1497.3,930.4z
				 M1498.5,926.7c2.8,0,5.5-0.7,6.8-2.1l1.6-1.6h-4.2c-6.7,0-6.8-2.4-0.1-3.4c3.7-0.5,4.2-1.6,1.3-2.7c-4.2-1.6-9.1-0.2-12.5,3.4
				c-2.4,2.5-2,3.5,1.7,5.2C1494.7,926.4,1496.6,926.7,1498.5,926.7L1498.5,926.7z"/>
			<path id="path345" class="st3" d="M1591,906.5c-0.7,1.2,0.3,2.2,2.1,2.3c2.6,0,9,4.1,12.4,7.9c5.5,6.2,6.8,14,3.9,23
				c-3.3,10-3.3,9.7,0,6c5.5-6.2,7.1-17.7,3.5-25.3c-3.7-7.9-12-14.5-18.2-14.5C1592.9,905.8,1591.2,906.1,1591,906.5L1591,906.5z"
				/>
			<path id="path339" class="st3" d="M1736.3,918.5c-5,0.2-10.2-1.5-14.6-5.2c-4.3-3.5-6.9-4-18.7-3.7c-8.4,0.3-8.6,0.3-12.6,3
				c-6.8,4.6-11.6,4.5-18.4-0.4l-3.3-2.3l-16.9-0.3c-13.5-0.3-16.9-0.5-16.9-1.3c0-1.5,2.1-1.8,18.4-2l15-0.2l4.1-2.6
				c3.6-2.3,4.8-2.6,9-2.6c4.3,0,5.4,0.3,9,2.6l4.1,2.6h11.7h11.7l2.8-2.2c4.7-3.7,5.5-4.3,8.5-5.3c6.3-2.2,13.8-0.6,18.9,4.1
				c4.2,3.9,4.5,6,1.4,9.5C1746,916.1,1741.2,918.3,1736.3,918.5L1736.3,918.5z M1735.4,915.3c3.5,0,6.6-1.4,9.3-4.2l2.8-2.9
				l-1.4-1.9c-0.8-1.1-2.8-2.6-4.4-3.4c-5.1-2.5-12.8-1.7-16.1,1.8l-1.8,1.9h6c5.7,0,7,0.5,7,2.6c0,0.1-2.5,0.4-5.6,0.5
				c-3.1,0.2-5.8,0.6-6.2,0.9c-1,1,2.8,3.3,6.7,4.3C1733.1,915.1,1734.3,915.3,1735.4,915.3z M1681.8,912.5c5.1,0,9.6-4.1,5.4-7
				c-1.9-1.4-6.9-1.5-9.6-0.2c-1.8,0.8-1.7,0.9,1.7,1.1c2.9,0.2,3.6,0.5,3.6,1.7c0,1.1-0.5,1.5-2.1,1.5c-1.1,0-2.4,0.2-2.8,0.3
				s-1.1,0.2-1.5,0.3s0.1,0.6,1.1,1.2C1678.9,912.2,1680.4,912.5,1681.8,912.5z"/>
			<path id="path333" class="st3" d="M1607.4,974.4c-4.3,0-5.8-0.3-7.5-1.5c-6.3-4.7-7.1-10.6-2.8-21.3c2.6-6.5,2.9-7.8,2.9-14.3
				c0-9.4-2-14-9.1-20.8c-3.7-3.6-4.8-5-4.1-5.6c2.1-2.1,10.3,4.9,13.5,11.5c4.8,9.7,4.9,18.2,0.3,29.4c-3.7,9.1-3.8,13.1-0.4,16.5
				c2.2,2.2,2.8,2.4,7.3,2.4c4.3,0,5.1-0.2,6.4-1.8c1.8-2.3,1.9-4.2,0.1-3.5c-3.4,1.4-7,1.3-8.5-0.1c-2.9-2.6-1.6-5.8,7.2-17.6
				c10.3-13.9,14.6-22.5,15.2-30.2c0.5-7-0.9-11.2-5.3-16c-5.6-6.1-12.8-8.4-21.5-6.9c-6.3,1.1-10.4,3.6-15.5,9.5
				c-2,2.3-4.7,4.7-6,5.2c-1.9,0.8-7.3,1-22.9,1h-20.4l-4.1,2.8c-3.5,2.4-4.7,2.8-8.3,2.8c-3.6,0-4.7-0.4-7.7-2.5
				c-4.4-3.2-7.4-3.8-17.7-3.9c-9.5,0-11.5,0.5-15.2,4.1c-6.7,6.5-19.2,6.5-26.1-0.1c-3.9-3.7-4.3-5.2-2.3-8.1
				c2.1-3,6.7-6.1,10.8-7.2c6-1.6,13.6,0.5,19.4,5.5l2.9,2.5h11.7h11.7l3.8-2.6c3.4-2.4,4.3-2.6,8.7-2.6c4.5,0,5.3,0.3,8.6,2.6
				l3.6,2.6l17.2,0.2c9.5,0.1,19.1,0,21.3-0.3c3.8-0.5,4.4-0.8,8.2-4.9c4.3-4.6,9-7.8,14-9.4c1.9-0.6,5.6-0.9,9.8-0.8
				c6,0.2,7.3,0.5,11.5,2.8c13.2,7.1,17,20.9,9.9,36.4c-2.2,4.7-7.7,13.1-15.5,23.6c-2.6,3.5-4.7,6.9-4.7,7.7c0,2.4,3.2,1.6,7.9-1.9
				c5.9-4.4,6.6-3.4,3.7,5.3C1616.8,973,1615,974.4,1607.4,974.4z M1470.5,915c3.4-0.1,6.7-1.1,9.2-3.2l2.6-2.2l-6.6,0
				c-5.9,0-6.6-0.2-6.4-1.3c0.2-1.1,1.2-1.3,6.1-1.5c6.6-0.2,7.1-1,2.3-3.7c-4.5-2.6-11-2.4-15.5,0.5c-4.5,2.9-4.9,5.7-1.1,8.6
				C1463.7,914.1,1467.1,915.1,1470.5,915L1470.5,915z M1523.6,912.5c1.2,0,2.4-0.3,3.7-0.7c1.7-0.6,1.9-0.9,1-1.5
				c-0.6-0.4-2.2-0.7-3.5-0.7c-1.9,0-2.4-0.3-2.4-1.5c0-1.3,0.5-1.5,3.5-1.5c3,0,3.3-0.2,2.5-1.1c-1-1.2-6.8-1.5-9.5-0.4
				c-3.2,1.3-3,4.2,0.4,6.2C1520.7,912.1,1522.1,912.5,1523.6,912.5z"/>
		</g>
		<path id="path283" sodipodi:nodetypes="cccccccccccccccccccccccccccccccc" class="st3" d="M-100.9,764.4v-30.8h-27.8V707h27.8
			v-28.9l14.4-37.1l14.4,36v30H88.4V557.9l14.2-38.4l14.3,38.4V707h160.5v-30l14.4-36l14.4,37.1V707h27.8v26.6h-27.8v30.8h-28.9
			v-30.8H116.9v30.8H88.4v-30.8H-72.1v30.8H-100.9z"/>
		<g id="g7059" transform="translate(-1499.9119)">
			<path id="path329" class="st3" d="M1346.5,1099.3c-4.4,0-5.9-0.8-10.2-5.3c-3.3-3.6-3.5-3.7-7.9-3.7c-9,0-9.9-1.7-4.5-8.1
				c1.8-2.2,3.7-5.2,4.2-6.7c1.2-3.9,2.1-44.5,1.5-66.9c-0.6-20.7-0.9-22-6.9-27.8c-3-2.9-3.7-5.4-2-6.4c0.5-0.3,2.5-0.8,4.3-1
				c2.7-0.3,3.5-0.8,4.2-2.3c0.6-1.3,0.7-11.2,0.4-32.3l-0.4-30.4l-2-3.8c-1.1-2.1-3.2-4.9-4.7-6.2c-4.9-4.4-3-6.7,5.7-6.8
				c4.1-0.1,4.5-0.3,8.9-4.2c2.5-2.2,5.3-4.2,6.2-4.4c5.4-1.1,8.7,0.2,13.3,5c3.1,3.4,3.4,3.5,7.8,3.5c2.5,0,5.4,0.3,6.4,0.6
				c2.9,0.8,2.3,3.9-1.4,7.2c-1.9,1.7-3.7,4.3-4.7,7c-1.7,4.1-1.7,5.1-2,34.7c-0.2,25.9-0.1,30.6,0.8,31.3c0.8,0.6,3.1,0.8,10.4,0.7
				c7.3,0.1,9.7-0.1,10.4-0.7c0.9-0.8,1.1-5.4,0.8-31.3c-0.3-29.6-0.3-30.5-2-34.7c-1.1-2.6-2.8-5.3-4.7-7c-3.7-3.3-4.3-6.4-1.4-7.2
				c1-0.3,3.9-0.6,6.4-0.6c4.4-0.1,4.7-0.2,7.8-3.5c4.5-4.8,7.8-6.1,13.3-5c0.9,0.2,3.7,2.2,6.2,4.4c4.4,3.9,4.8,4.1,8.9,4.2
				c8.8,0.2,10.6,2.4,5.7,6.8c-1.5,1.4-3.6,4.2-4.7,6.2l-2,3.8l-0.4,30.4c-0.3,21.1-0.2,30.9,0.4,32.3c0.6,1.5,1.5,2,4.2,2.3
				c1.9,0.2,3.8,0.7,4.3,1c1.7,1.1,1,3.5-2,6.4c-5.9,5.8-6.3,7.1-6.9,27.8c-0.6,22.4,0.3,63,1.5,66.9c0.5,1.5,2.4,4.5,4.2,6.7
				c5.5,6.4,4.5,8.1-4.5,8.1c-4.4,0-4.5,0.1-7.9,3.7c-4.2,4.5-5.8,5.3-10.2,5.3c-4.4,0-6-0.8-9.8-5.1l-3.1-3.5l-5.9-0.3
				c-8.4-0.4-9.8-2-5.3-6.1c3.9-3.5,6.4-8.9,7.2-15.1c0.4-3,0.7-17.9,0.7-33c0-24-0.1-27.7-1.2-28.7c-0.8-0.8-5.5-1.2-10.2-1.3
				c-4.8,0-9.5,0.5-10.2,1.3c-1,1-1.2,4.7-1.2,28.7c0,15.1,0.3,30,0.7,33c0.8,6.3,3.4,11.6,7.2,15.1c4.5,4.1,3.2,5.7-5.3,6.1
				l-5.9,0.3l-3.1,3.5C1352.5,1098.4,1350.9,1099.3,1346.5,1099.3L1346.5,1099.3z"/>
			<path id="path718" sodipodi:nodetypes="sssssssssssccssssssssssscssssscsssssccssssssccssssccs" class="st3" d="M1858.7,882.7
				c4.4,0,5.9,0.8,10.2,5.3c3.3,3.6,3.5,3.7,7.9,3.7c9,0,9.9,1.7,4.5,8.1c-1.8,2.2-3.7,5.2-4.2,6.7c-1.2,3.9-2.1,44.5-1.5,66.9
				c0.6,20.7,0.9,22,6.9,27.8c3,2.9,3.7,5.4,2,6.4c-0.5,0.3-2.5,0.8-4.3,1c-2.7,0.3-3.5,0.8-4.2,2.3c-0.6,1.3-0.7,11.2-0.4,32.3
				l0.4,30.4l2,3.8c1.1,2.1,3.2,4.9,4.7,6.2c4.9,4.4,3,6.7-5.7,6.8c-4.1,0.1-4.5,0.3-8.9,4.2c-2.5,2.2-5.3,4.2-6.2,4.4
				c-5.4,1.1-8.7-0.2-13.3-5c-3.1-3.4-3.4-3.5-7.8-3.5c-2.5,0-5.4-0.3-6.4-0.6c-2.9-0.8-2.3-3.9,1.4-7.2c1.9-1.7,3.7-4.3,4.7-7
				c1.7-4.1,1.7-5.1,2-34.7c0.2-25.9,0.1-30.6-0.8-31.3c-0.8-0.6-3.1-0.8-10.4-0.7c-7.3-0.1-9.7,0.1-10.4,0.7
				c-0.9,0.8-1.1,5.4-0.8,31.3c0.3,29.6,0.3,30.5,2,34.7c1.1,2.6,2.8,5.3,4.7,7c3.7,3.3,4.3,6.4,1.4,7.2c-1,0.3-3.9,0.6-6.4,0.6
				c-4.4,0.1-4.7,0.2-7.8,3.5c-4.5,4.8-7.8,6.1-13.3,5c-0.9-0.2-3.7-2.2-6.2-4.4c-4.4-3.9-4.8-4.1-8.9-4.2
				c-8.8-0.2-10.6-2.4-5.7-6.8c1.5-1.4,3.6-4.2,4.7-6.2l2-3.8l0.4-30.4c0.3-21.1,0.2-30.9-0.4-32.2c-0.6-1.5-1.5-2-4.2-2.3
				c-1.9-0.2-3.8-0.7-4.3-1c-1.7-1.1-1-3.5,2-6.4c5-4.9,6-6.6,6.6-19.6c0.1-2.3-0.4-5.3,4.1-5.6c16.9-0.5,48.9-0.2,50.8-1.6
				c1-1,1.2-4.7,1.2-28.7c0-15.1-0.3-30-0.7-33c-0.8-6.3-3.4-11.6-7.2-15.1c-4.5-4.1-3.2-5.7,5.3-6.1l5.9-0.3l3.1-3.5
				C1852.7,883.5,1854.3,882.7,1858.7,882.7L1858.7,882.7z"/>
		</g>
		
			<path id="path7190" sodipodi:nodetypes="ccccccccccccccccccccccccccccccccccccccccccccccccccccccccccccccccccccccccccccccccccccccccccccccccccccccccccccccccccccccccccccccccccccccccccccccccccccccccccc" class="st3" d="
			M-54.8,774.9l10.2,15.5l-22,12.5l-6,8.1l21.9-9.1l-15,18.1l14-1.8l-16.7,9.7L-81,816.3l-33.2-28.7l4.8,6.1l22.1,25.5l-20.6,11.4
			l-15-12.2l4.8-19.8l-12.8,18.5l-20.2-19.6l10.4,18.2l-40-7.9l53.8,14l9.9,8.9l10.4,8.9l22.6-17.5l13.1,15.2l42.4-29.7l29,30.6
			l7.1-7.2l7.4-7.2l9.5,7.3l15.5,11.4l27.2-12.6l6.3,14.3l5.8,12.6l20.6,17l15.8-2.2l10.1-13.3l3.3,3.7l3.3,3.4l37.2-51.5l19,12.2
			l7.4-10.1l5.4-6.8l4.8,8l4.5,7.9l20.7-21.2l3.4-3.7l42.6,30.4l12.8-14.5l24.6,13.7l18.9-12.7l51.9-14.9l-38.6,5.1l31.3-50.3
			l-41.3,52.8l-12-17.5l4.6,19.2l-15.1,12.4l-22.5-11.3l18.1-23.7l-34.6,31.7l-17.3-11.4l14.8,3.8l-16-22l23.3,13.8l-14.1-16.8
			l-6.9-7.7l-0.2-6.2l4.2-11.7l-15.4,17.9l-25.1-6l-10.5-11.3l9.5,14.3l12.9,5.1l10.9,10l10,9.5l-11.1-1.5l-13.2-10.2l-1.2-0.8
			l-6.4,14l-12.6,11.7l-4.2-12.1l-4-11.9l-7.3,11l-7.8,11l-12.4-29.4l-0.8,15.4L164,788.2l5,14.6l-6-4.5l-12.6-18.5l-12.4-18
			l7.3,18.4l9.5,25.3l2.6,8l-5.1,8.1l-17.8,28.2l-2.3,3.6l-3.5-4l-3.8-3.6l-4.3,9l-4.9,10l-7.8,0.1l4.8-8.8l4.5-8.8l-4.5,2.7
			l-4.5,2.4l13-19.7l4.6-6l-9.2-16.2l-6.6-11.7l3.7-12.8l3.5-12.8l-8.2,13.1c-3.5,4.9-8.5,12.1-7.5,14.8l9,21.6l-13.5-18l4.7,30.8
			L92,809l-30.4-10.2l2.9,5.1l22,36.4l7,13.5l-10.6-14.4l-20-25.6L53.4,803l1.6,10.7l1.6,10.8l-16.4,10.8l-11.4-7.1l-9.7-6.6
			l7.8-7.5c9-8,17-16.1,28.1-24.1l8.7-5.8l-6.9-1.3c-6.3-1.1-30.4,20.8-46.6,35.9L0,827.8l-7.1-7.4l11.3,0.5L7.8,783l-10.9,29.4
			l-11.4-0.1l-3.9-3.9l-3.9-3.9l2.3-11L-37.4,807l-7.4-0.2l8.6-8.7l15-13.3l16.4-11.6L4,759l-10.3,11.5l-32.2,15.2L-52,772.8
			l-12.8-12.9L-54.8,774.9z"/>
		<g id="g8488" transform="translate(-1497.671)">
			<path id="path285" class="st3" d="M1537.7,670.4l-2.4-2.5c-2.9-3-4.8-6.7-4.8-9.1c0-1.4-0.6-2-3-2.7c-4.2-1.3-6.2-3.4-5.6-6
				c0.4-1.7-0.1-2.5-2.5-4.9l-3-2.9l-14.1,0.5c-7.8,0.3-18.5,1-23.8,1.6c-5.4,0.6-16,1.3-23.6,1.6c-13.8,0.5-13.9,0.5-17.6-1.4
				c-8.5-4.3-13.9-10.5-13.9-15.9c0-3.8,2.3-9,4.6-10.5c1-0.6,2.8-1.4,4.1-1.6c2.3-0.5,2.3-0.5,2.8-6.3c0.6-6.7-0.3-10.5-3.2-13.6
				l-1.9-2l0.5-14.5c0.3-8,0.7-15.6,0.9-16.9l0.4-2.4h4.8c3.7,0,4.8,0.3,4.8,1.1c0,2.4,2.4,19,3.1,21.8l0.8,3l5-12.6
				c2.8-6.9,5.5-12.9,6-13.2c0.9-0.6,5.8-0.3,8.1,0.4c1.4,0.4,1.2,3-1.3,13.7c-1.2,5.4-2.2,10.2-2.2,10.9c0,0.6,1.2,1.5,2.7,2
				c1.5,0.5,4.1,2,5.8,3.3c2.4,1.9,3.6,2.3,5,1.9c1-0.3,6.7-0.6,12.7-0.6l10.8-0.1l-0.5-9.6c-0.3-5.3-0.7-12.4-1-15.8l-0.5-6.2
				l5.9,0.2c6.9,0.3,5.9-1.2,8.6,13.7c2.1,12,3.7,17.6,5,17.6c0.6,0,2.1,0.5,3.3,1.2c2.1,1.1,2.7,1,9.1-0.8c3.8-1.1,7.8-2.4,8.9-3
				c1.1-0.6,4.5-4.1,7.5-7.9c4.8-6,5.7-6.8,7.4-6.4c3.3,0.7,6.1,1.9,6.5,3c0.5,1.2-5,13.3-7.5,16.7c-1,1.3-5,4.4-8.8,6.8
				c-3.8,2.4-7.1,4.4-7.2,4.5c-0.2,0.2,2,4.2,3.2,5.8c2.2-2.3,5.5-4.1,9-4.9l2,4l1.2-0.6c0.7-0.3,1.5,0,1.8,0.6l0.4,0.8
				c0.3,0.7,0,1.5-0.6,1.8l-1.1,0.5l1.9,3.8c-2.9,2.1-6.7,3.4-10,3.5c-0.5,0.5-0.2,1.4,0.4,3.5l0.8,2.4h8.6c10,0,11,0.4,14.6,6.1
				c3.1,4.8,2.7,5.4-6.5,13.2c-6.1,5.1-6.9,6.1-6.6,7.7c0.2,1,0.6,4.2,0.8,7.1l0.4,5.2l-3.8-3.9l-3.8-3.9l-4.3,0.2l-4.3,0.2
				l-0.4,5.5L1537.7,670.4z M1534.7,662.4c0.2,0,0.4-0.6,0.6-2c0.6-3.4,2.3-4.8,6.1-5.4c2.1-0.3,3.9,0,6.3,1
				c3.7,1.7,4.7,1.5,2.4-0.5c-0.9-0.7-1.6-1.9-1.6-2.6c0-1.1,9.9-10.6,14.2-13.6c1.6-1.1,1.6-1.3,0.5-3.4c-1.9-3.6-2.9-4-11.1-4.5
				l-7.8-0.4l-2.5,2.7c-2.4,2.7-4.9,3.5-5.8,1.9c-0.3-0.4,0.4-1.7,1.5-2.9c2.2-2.3,2.3-3.3,1.1-6.7c-0.5-1.3-1.2-2.3-1.7-2.3
				c-1.2,0-17.6,14.4-17.6,15.3c0,0.4,1.6,2.2,3.5,3.9c3.5,3.1,3.5,3.1,7,2.3c4.4-1,7.4-0.3,7.4,1.7c0,0.8,0.5,1.5,1,1.5
				c1.5,0,2.1,2.1,1.1,3.6c-0.4,0.7-2,2.1-3.4,3c-2.6,1.7-3.1,3.4-1.9,6.5C1534.5,662.1,1534.6,662.4,1534.7,662.4L1534.7,662.4z
				 M1529.6,652.3c1.9,0,4.4-0.5,5.6-1.5v0l1.8-1.5h-3.8c-3.9,0-6.7,1-6,2.2C1527.6,652.1,1528.5,652.3,1529.6,652.3L1529.6,652.3z
				 M1541.9,648.6c-0.3-1.5,0.4-3,1.7-3.9c1.3-0.8,2.9-0.9,4.2,0c1.3,0.8,2,2.3,1.7,3.8L1541.9,648.6z M1446.9,642.3
				c7.1,0.1,23.6-0.9,32.3-2c2.9-0.4,10.4-0.9,16.8-1.2c10.1-0.4,11.6-0.7,12.4-1.9c0.5-0.8,6.4-6.2,13.1-12
				c13.1-11.4,13-11.2,9.9-15.7c-3-4.3-13.7-12.8-14.7-11.7c-0.3,0.3,0,1.5,0.5,2.7c2,4.9-1.3,6.3-3.8,1.5
				c-2.4-4.8-7.8-26.8-8.4-34.6c-0.1-1.7-0.5-2.1-2.3-2.1h-2.1l0.4,12.6c0.2,6.9,0.6,16,0.8,20.1c0.3,6.2,0.2,7.8-0.8,8.5
				c-2.1,1.8-3.4-0.4-3.4-5.8v-4.9l-11.2,0.3l-11.2,0.3l-3.3,2.4c-7.6,5.6-9,6.4-12.1,6.8c-7,0.8-14.8-5.5-17.6-14.3
				c-1.5-4.7-3.3-14-4.3-22.5c-0.3-2.8-0.9-4.3-1.5-4.3c-1,0-1.4,3.1-2.3,19.2l-0.5,8.3l2.5,3.5c2.5,3.5,2.5,3.6,2.5,12.4
				c0,8.9,0,8.9,1.9,9.4c1,0.3,4.7,1.9,8.2,3.7c6.7,3.4,9.9,4.5,16.3,5.3l3.9,0.5c3,0.4,3.9-0.6,5.7-1.1c2.4-0.7,5.5-1.9,6.3-3.5
				c0.8-1.5,0.6-1.6-2.5-1.6c-2.8,0-3.6,0.4-5.4,2.4c-1.6,1.9-3.7,4.3-5,2.6c-0.8-0.9,0.4-3.9,2.7-6.2c2.6-2.6,2.8-2.6,8.3-2.6
				c4.7,0,5.8,0.2,6.4,1.4c1.6,3-1,7.7-5.5,10.1c-2.7,1.4-4.2,1.6-11.7,1.6c-9.8,0-11.3-0.4-22.1-5.7c-4.1-2-7.7-3.4-8-3.1
				c-0.3,0.3-0.8,4-1,8.1c-0.4,6.7-0.3,7.8,1,9.9c1.3,2.1,2,2.4,6.2,2.9C1445.1,642.2,1445.9,642.2,1446.9,642.3L1446.9,642.3z
				 M1432.4,636.7c0.1,0,0.1,0,0.1-0.1c0.2-0.2-0.2-4.5,0.1-8.6c0.4-6,0.3-7.3-0.5-7.3c-2.5,0-5.2,5.5-4.5,9.1
				C1428,631.8,1431.5,636.6,1432.4,636.7z M1531.3,603l2.6-1.4c1.4-0.8,4.9-2.9,7.7-4.8c4.1-2.8,5.6-4.3,7.8-8.3
				c1.5-2.7,3-5.6,3.2-6.6c0.8-2.8-1.9-2-4.3,1.1c-6.3,8.3-11.4,11.8-19.5,13.4c-3,0.6-3.1,1.2-0.2,4L1531.3,603z M1458.6,601.2
				c2.1,0,4.3-0.8,6.5-2.3c1.8-1.3,3.3-2.6,3.3-2.9c0-1.1-4.2-3.5-8.2-4.7c-4-1.2-6-1.3-11.1-0.7c-2.7,0.3-2.8,0.6-1.5,2.9
				C1450.6,598.6,1454.5,601.3,1458.6,601.2z M1449.7,586.3h3.2h3.2l2.3-9.8c1.3-5.4,2.3-10.1,2.3-10.4s-0.5-0.8-1.2-1.1
				c-1.3-0.5-1-1-6.6,12.8L1449.7,586.3z"/>
			<path id="path8080" class="st3" d="M1663,670.4l2.4-2.5c2.9-3,4.8-6.7,4.8-9.1c0-1.4,0.6-2,3-2.7c4.2-1.3,6.2-3.4,5.6-6
				c-0.4-1.7,0.1-2.5,2.5-4.9l3-2.9l14.1,0.5c7.8,0.3,18.5,1,23.8,1.6c5.4,0.6,16,1.3,23.6,1.6c13.8,0.5,13.9,0.5,17.6-1.4
				c8.5-4.3,13.9-10.5,13.9-15.9c0-3.8-2.3-9-4.6-10.5c-1-0.6-2.8-1.4-4.1-1.6c-2.3-0.5-2.3-0.5-2.8-6.3c-0.6-6.7,0.3-10.5,3.2-13.6
				l1.9-2l-0.5-14.5c-0.3-8-0.7-15.6-0.9-16.9l-0.4-2.4h-4.8c-3.7,0-4.8,0.3-4.8,1.1c0,2.4-2.4,19-3.1,21.8l-0.8,3l-5-12.6
				c-2.8-6.9-5.5-12.9-6-13.2c-0.9-0.6-5.8-0.3-8.1,0.4c-1.4,0.4-1.2,3,1.3,13.7c1.2,5.4,2.2,10.2,2.2,10.9c0,0.6-1.2,1.5-2.7,2
				c-1.5,0.5-4.1,2-5.8,3.3c-2.4,1.9-3.6,2.3-5,1.9c-1-0.3-6.7-0.6-12.7-0.6l-10.8-0.1l0.5-9.6c0.3-5.3,0.7-12.4,1-15.8l0.5-6.2
				l-5.9,0.2c-6.9,0.3-5.9-1.2-8.6,13.7c-2.1,12-3.7,17.6-5,17.6c-0.6,0-2.1,0.5-3.3,1.2c-2.1,1.1-2.7,1-9.1-0.8
				c-3.8-1.1-7.8-2.4-8.9-3c-1.1-0.6-4.5-4.1-7.5-7.9c-4.8-6-5.7-6.8-7.4-6.4c-3.3,0.7-6.1,1.9-6.5,3c-0.5,1.2,5,13.3,7.5,16.7
				c1,1.3,5,4.4,8.8,6.8c3.8,2.4,7.1,4.4,7.2,4.5c0.2,0.2-2,4.2-3.2,5.8c-2.2-2.3-5.5-4.1-9-4.9l-2,4l-1.2-0.6
				c-0.7-0.3-1.5,0-1.8,0.6l-0.4,0.8c-0.3,0.7,0,1.5,0.6,1.8l1.1,0.5l-1.9,3.8c2.9,2.1,6.7,3.4,10,3.5c0.5,0.5,0.2,1.4-0.4,3.5
				l-0.8,2.4h-8.6c-10,0-11,0.4-14.6,6.1c-3.1,4.8-2.7,5.4,6.5,13.2c6.1,5.1,6.9,6.1,6.6,7.7c-0.2,1-0.6,4.2-0.8,7.1l-0.4,5.2
				l3.8-3.9l3.8-3.9l4.3,0.2l4.3,0.2l0.4,5.5L1663,670.4z M1666,662.4c-0.2,0-0.4-0.6-0.6-2c-0.6-3.4-2.3-4.8-6.1-5.4
				c-2.1-0.3-3.9,0-6.3,1c-3.7,1.7-4.7,1.5-2.4-0.5c0.9-0.7,1.6-1.9,1.6-2.6c0-1.1-9.9-10.6-14.2-13.6c-1.6-1.1-1.6-1.3-0.5-3.4
				c1.9-3.6,2.9-4,11.1-4.5l7.8-0.4l2.5,2.7c2.4,2.7,4.9,3.5,5.8,1.9c0.3-0.4-0.4-1.7-1.5-2.9c-2.2-2.3-2.3-3.3-1.1-6.7
				c0.5-1.3,1.2-2.3,1.7-2.3c1.2,0,17.6,14.4,17.6,15.3c0,0.4-1.6,2.2-3.5,3.9c-3.5,3.1-3.5,3.1-7,2.3c-4.4-1-7.4-0.3-7.4,1.7
				c0,0.8-0.5,1.5-1,1.5c-1.5,0-2.1,2.1-1.1,3.6c0.4,0.7,2,2.1,3.4,3c2.6,1.7,3.1,3.4,1.9,6.5C1666.2,662.1,1666.1,662.4,1666,662.4
				L1666,662.4z M1671.1,652.3c-1.9,0-4.4-0.5-5.6-1.5v0l-1.8-1.5h3.8c3.9,0,6.7,1,6,2.2C1673.2,652.1,1672.2,652.3,1671.1,652.3
				L1671.1,652.3z M1658.8,648.6c0.3-1.5-0.4-3-1.7-3.9c-1.3-0.8-2.9-0.9-4.2,0c-1.3,0.8-2,2.3-1.7,3.8L1658.8,648.6z M1753.8,642.3
				c-7.1,0.1-23.6-0.9-32.3-2c-2.9-0.4-10.4-0.9-16.8-1.2c-10.1-0.4-11.6-0.7-12.4-1.9c-0.5-0.8-6.4-6.2-13.1-12
				c-13.1-11.4-13-11.2-9.9-15.7c3-4.3,13.7-12.8,14.7-11.7c0.3,0.3,0,1.5-0.5,2.7c-2,4.9,1.3,6.3,3.8,1.5
				c2.4-4.8,7.8-26.8,8.4-34.6c0.1-1.7,0.5-2.1,2.3-2.1h2.1l-0.4,12.6c-0.2,6.9-0.6,16-0.8,20.1c-0.3,6.2-0.2,7.8,0.8,8.5
				c2.1,1.8,3.4-0.4,3.4-5.8v-4.9l11.2,0.3l11.2,0.3l3.3,2.4c7.6,5.6,9,6.4,12.1,6.8c7,0.8,14.8-5.5,17.6-14.3
				c1.5-4.7,3.3-14,4.3-22.5c0.3-2.8,0.9-4.3,1.5-4.3c1,0,1.4,3.1,2.3,19.2l0.5,8.3l-2.5,3.5c-2.5,3.5-2.5,3.6-2.5,12.4
				c0,8.9,0,8.9-1.9,9.4c-1,0.3-4.7,1.9-8.2,3.7c-6.7,3.4-9.9,4.5-16.3,5.3l-3.9,0.5c-3,0.4-3.9-0.6-5.7-1.1
				c-2.4-0.7-5.5-1.9-6.3-3.5c-0.8-1.5-0.6-1.6,2.5-1.6c2.8,0,3.6,0.4,5.4,2.4c1.6,1.9,3.7,4.3,5,2.6c0.8-0.9-0.4-3.9-2.7-6.2
				c-2.6-2.6-2.8-2.6-8.3-2.6c-4.7,0-5.8,0.2-6.4,1.4c-1.6,3,1,7.7,5.5,10.1c2.7,1.4,4.2,1.6,11.7,1.6c9.8,0,11.3-0.4,22.1-5.7
				c4.1-2,7.7-3.4,8-3.1c0.3,0.3,0.8,4,1,8.1c0.4,6.7,0.3,7.8-1,9.9c-1.3,2.1-2,2.4-6.2,2.9C1755.6,642.2,1754.8,642.2,1753.8,642.3
				L1753.8,642.3z M1768.3,636.7c-0.1,0-0.1,0-0.1-0.1c-0.2-0.2,0.2-4.5-0.1-8.6c-0.4-6-0.3-7.3,0.5-7.3c2.5,0,5.2,5.5,4.5,9.1
				C1772.7,631.8,1769.2,636.6,1768.3,636.7z M1669.4,603l-2.6-1.4c-1.4-0.8-4.9-2.9-7.7-4.8c-4.1-2.8-5.6-4.3-7.8-8.3
				c-1.5-2.7-3-5.6-3.2-6.6c-0.8-2.8,1.9-2,4.3,1.1c6.3,8.3,11.4,11.8,19.5,13.4c3,0.6,3.1,1.2,0.2,4L1669.4,603z M1742.2,601.2
				c-2.1,0-4.3-0.8-6.5-2.3c-1.8-1.3-3.3-2.6-3.3-2.9c0-1.1,4.2-3.5,8.2-4.7c4-1.2,6-1.3,11.1-0.7c2.7,0.3,2.8,0.6,1.5,2.9
				C1750.1,598.6,1746.2,601.3,1742.2,601.2z M1751,586.3h-3.2h-3.2l-2.3-9.8c-1.3-5.4-2.3-10.1-2.3-10.4s0.5-0.8,1.2-1.1
				c1.3-0.5,1-1,6.6,12.8L1751,586.3z"/>
		</g>
		<g id="g8484" transform="translate(-1499.9217)">
			<path id="path463" class="st3" d="M1573.8,1224.6c-4.9,0.1-9.5-0.2-14.8-0.8c-16.6-2.4-30.9-10.1-37.3-20.2l-2.3-3.6l-7.7-0.5
				c-21.6-1.4-37.2-9.9-44.6-24.3c-4-7.7-5-12.4-5-22.3c0-18.3,6.2-28.3,30.6-49.1c14.3-12.2,19.7-18.4,24.8-28.5
				c2.6-5.2,4.2-7,7.2-8.2c2.8-1.1,6.7-0.3,10.2,0.7c17.3,6,42,9.3,67.8,9.3c25.8,0,50.5-3.3,67.8-9.3c3.5-1,7.4-1.8,10.2-0.7
				c3,1.2,4.5,3,7.2,8.2c5.2,10.2,10.5,16.3,24.8,28.5c24.4,20.8,30.7,30.8,30.6,49.1c0,9.9-1.1,14.6-5,22.3
				c-7.4,14.4-23.1,22.9-44.6,24.3l-7.7,0.5l-2.3,3.6c-6.5,10.1-20.8,17.9-37.3,20.2c-13.9,1.7-24.1,0.7-43.6-2
				C1590.4,1223.5,1581.8,1224.5,1573.8,1224.6L1573.8,1224.6z M1571.9,1200.8c5.2,0,11.7-0.2,14.4-0.6l5.1-0.6V1101l-5.1-0.5
				c-9.8-0.9-9.4-1.1-11,4.1c-1.8,5.8-7.7,17.4-12.1,24c-1.9,2.8-7.6,10.5-12.7,17.1c-11.6,15.1-13.4,18.6-13.8,26.8
				C1535.9,1191.5,1547.3,1200.6,1571.9,1200.8L1571.9,1200.8z M1633.4,1200.8c24.6-0.2,35.9-9.3,35.1-28.3
				c-0.4-8.2-2.1-11.7-13.8-26.8c-5.1-6.6-10.8-14.3-12.7-17.1c-4.4-6.6-10.3-18.3-12.1-24c-1.7-5.2-1.2-5-11-4.1l-5.1,0.5v98.7
				l5.1,0.6C1621.7,1200.6,1628.2,1200.9,1633.4,1200.8z M1512.4,1176l0.4-6.3c0.7-11.7,4.9-20.4,17.1-35.9
				c10.7-13.6,15-20,19.3-28.5c4.6-9.1,5.2-8-5.8-10.4c-3.9-0.9-7.5-1.6-8-1.6c-0.5,0-2.1,2-3.7,4.3c-3.9,5.9-12.3,14.5-24.1,24.7
				c-13.5,11.6-17.1,15.4-19.8,20.9c-2.1,4.3-2.3,5.2-2.1,11c0.4,10.5,4.4,15.9,14.3,19.3c2.3,0.8,6.1,1.7,8.3,2L1512.4,1176z
				 M1692.8,1176l4.1-0.5c2.2-0.3,6-1.2,8.3-2c9.8-3.4,13.8-8.9,14.3-19.3c0.2-5.8,0.1-6.6-2.1-11c-2.7-5.5-6.3-9.3-19.8-20.9
				c-11.9-10.2-20.3-18.8-24.1-24.7c-1.6-2.4-3.2-4.3-3.7-4.3s-4,0.7-8,1.6c-10.9,2.5-10.3,1.4-5.8,10.4c4.3,8.5,8.6,14.9,19.3,28.5
				c12.2,15.5,16.3,24.2,17.1,35.9L1692.8,1176z"/>
			<circle id="path8351" class="st0" cx="1602.6" cy="1256.8" r="19.5"/>
		</g>
	</g>
	<g id="g9147" transform="matrix(0.41131106,0,0,0.41131106,-987.46585,955.52917)">
		<path id="path507" class="st4" d="M1149.6,1260.5l-6.3-6.1c-10.6-10.3-14.7-18.5-14.7-31.2c0-7.6,1.2-14.4,4.2-24.3
			c5.2-17,7.2-25.1,8.6-33.7c1.3-8.2,1.2-8.4-2.1-8.1l-2.8,0.2l-0.5,4.9c-2.3,21.9-17.6,37.1-36.2,35.8c-7.1-0.5-12.3-2.8-16.5-7.4
			c-10.1-11.2-6.4-30.3,6.5-34c4.3-1.2,7.5-0.9,11.5,1.3l2.2,1.2l-3.2,0c-5.4,0.2-7.8,4.7-7.5,8.3c0.6,6.3,4.7,9.3,12.6,9.2
			c8.1-0.1,14.2-3.6,18.5-10.9c3.2-5.4,3.9-8.5,1.9-9.1c-0.8-0.2-1.9-1.1-2.3-2c-0.7-1.3-0.6-1.8,0.6-3c0.8-0.8,1.9-1.6,2.4-1.8
			c0.8-0.3,0.8-0.9,0.1-3.4c-1-3.4-4.6-7.4-7.6-8.5c-4-1.5-9.2,1.1-10,5c-0.1,0.7-0.2,0.7-0.4,1.6c-1.3-2.5-1.7-4.9-0.7-6.8
			c0.7-1.4,2.1-3.1,3.1-3.8c2.9-1.9,8.1-2.2,11.9-0.8c4.6,1.8,10.1,7.7,11.8,12.6c1.3,3.9,1.4,4,4.2,4c2.6,0,2.8-0.2,2.6-1.9
			c-0.7-5.4-5.5-12.5-12-17.6l-3.7-2.9l2.8-1.4c4.5-2.2,13.2-10,17.3-15.4c2.1-2.7,3.7-5.3,3.7-5.7c0,0.4,1.7,3,3.7,5.7
			c4.1,5.4,12.8,13.2,17.3,15.4l2.8,1.4l-3.7,2.9c-6.5,5.1-11.3,12.1-12,17.6c-0.2,1.7,0,1.9,2.6,1.9c2.8,0,2.9-0.1,4.2-4
			c1.7-4.9,7.2-10.8,11.8-12.6c3.8-1.4,9-1.1,11.9,0.8c1.1,0.7,2.5,2.4,3.1,3.8c0.9,1.9,0.6,4.4-0.7,6.8c-0.2-0.9-0.2-0.9-0.4-1.6
			c-0.8-3.9-6-6.5-10-5c-3,1.1-6.5,5.1-7.6,8.5c-0.8,2.5-0.7,3.2,0.1,3.4c0.6,0.2,1.6,1,2.4,1.8c1.2,1.2,1.3,1.7,0.6,3
			c-0.5,0.9-1.5,1.7-2.3,2c-2,0.5-1.4,3.7,1.9,9.1c4.3,7.2,10.5,10.8,18.5,10.9c7.9,0.1,12-2.9,12.6-9.2c0.3-3.6-2.1-8.2-7.5-8.3
			l-3.2,0l2.2-1.2c4-2.2,7.2-2.5,11.5-1.3c12.9,3.7,16.6,22.8,6.5,34c-4.1,4.6-9.4,7-16.5,7.4c-18.6,1.2-34-13.9-36.2-35.8l-0.5-4.9
			l-2.8-0.2c-3.3-0.3-3.3-0.1-2.1,8.1c1.3,8.5,3.4,16.6,8.6,33.7c3,9.9,4.2,16.7,4.2,24.3c0,12.7-4,20.9-14.7,31.2L1149.6,1260.5z"
			/>
		<path id="path9006" class="st4" d="M2055.8,1260.5l6.3-6.1c10.6-10.3,14.7-18.5,14.7-31.2c0-7.6-1.2-14.4-4.2-24.3
			c-5.2-17-7.2-25.1-8.6-33.7c-1.3-8.2-1.2-8.4,2.1-8.1l2.8,0.2l0.5,4.9c2.3,21.9,17.6,37.1,36.2,35.8c7.1-0.5,12.3-2.8,16.5-7.4
			c10.1-11.2,6.4-30.3-6.5-34c-4.3-1.2-7.5-0.9-11.5,1.3l-2.2,1.2l3.2,0c5.4,0.2,7.8,4.7,7.5,8.3c-0.6,6.3-4.7,9.3-12.6,9.2
			c-8.1-0.1-14.2-3.6-18.5-10.9c-3.2-5.4-3.9-8.5-1.9-9.1c0.8-0.2,1.9-1.1,2.3-2c0.7-1.3,0.6-1.8-0.6-3c-0.8-0.8-1.9-1.6-2.4-1.8
			c-0.8-0.3-0.8-0.9-0.1-3.4c1-3.4,4.6-7.4,7.6-8.5c4-1.5,9.2,1.1,10,5c0.1,0.7,0.2,0.7,0.4,1.6c1.3-2.5,1.7-4.9,0.7-6.8
			c-0.7-1.4-2.1-3.1-3.1-3.8c-2.9-1.9-8.1-2.2-11.9-0.8c-4.6,1.8-10.1,7.7-11.8,12.6c-1.3,3.9-1.4,4-4.2,4c-2.6,0-2.8-0.2-2.6-1.9
			c0.7-5.4,5.5-12.5,12-17.6l3.7-2.9l-2.8-1.4c-4.5-2.2-13.2-10-17.3-15.4c-2.1-2.7-3.7-5.3-3.7-5.7c0,0.4-1.7,3-3.7,5.7
			c-4.1,5.4-12.8,13.2-17.3,15.4l-2.8,1.4l3.7,2.9c6.5,5.1,11.3,12.1,12,17.6c0.2,1.7,0,1.9-2.6,1.9c-2.8,0-2.9-0.1-4.2-4
			c-1.7-4.9-7.2-10.8-11.8-12.6c-3.8-1.4-9-1.1-11.9,0.8c-1.1,0.7-2.5,2.4-3.1,3.8c-0.9,1.9-0.6,4.4,0.7,6.8
			c0.2-0.9,0.2-0.9,0.4-1.6c0.8-3.9,6-6.5,10-5c3,1.1,6.5,5.1,7.6,8.5c0.8,2.5,0.7,3.2-0.1,3.4c-0.6,0.2-1.6,1-2.4,1.8
			c-1.2,1.2-1.3,1.7-0.6,3c0.5,0.9,1.5,1.7,2.3,2c2,0.5,1.4,3.7-1.9,9.1c-4.3,7.2-10.5,10.8-18.5,10.9c-7.9,0.1-12-2.9-12.6-9.2
			c-0.3-3.6,2.1-8.2,7.5-8.3l3.2,0l-2.2-1.2c-4-2.2-7.2-2.5-11.5-1.3c-12.9,3.7-16.6,22.8-6.5,34c4.1,4.6,9.4,7,16.5,7.4
			c18.6,1.2,34-13.9,36.2-35.8l0.5-4.9l2.8-0.2c3.3-0.3,3.3-0.1,2.1,8.1c-1.3,8.5-3.4,16.6-8.6,33.7c-3,9.9-4.2,16.7-4.2,24.3
			c0,12.7,4,20.9,14.7,31.2L2055.8,1260.5z"/>
	</g>
	<g id="g3582" transform="matrix(0.41131106,0,0,0.41131106,-369.85008,955.52917)">
		<g id="g17001" transform="translate(-1.3022029)">
			<g id="g9836">
				<path id="path9601" class="st5" d="M-52.2,1413.7c6.7,2.3,11.2,5,13.5,8.3c2.5,3.3,2.8,7.5,1.1,12.7c-1.6,4.6-4.3,7.5-8.2,8.5
					c-3.7,1.1-9,0.5-15.7-1.8l-36.5-12.2l9.3-27.6L-52.2,1413.7z M-67.1,1336.8c0.4-1.1,1-2,1.9-2.6c1-0.4,3.1-0.2,6.3,0.5l1-2.9
					l-49.5-16.6l-1,2.9c2.9,1.3,4.6,2.4,5,3.3c0.5,1.1,0.6,2.2,0.2,3.3l-37.5,112c-0.4,1.1-1.1,1.9-2.1,2.2
					c-0.9,0.6-2.9,0.5-6.1-0.2l-1,2.9l86.1,28.8c7.5,2.5,14.6,3.6,21.1,3.3c6.5-0.2,12.2-1.4,17.3-3.8c5.1-2.4,9.4-5.8,13-10.1
					c3.5-4.2,6.2-8.9,8-14.2c1.8-5.3,2.5-10.7,2.3-16.4c-0.3-5.5-1.8-10.7-4.4-15.6c-2.7-4.8-6.5-9.3-11.5-13.5
					c-5.1-4-11.4-7.3-18.9-9.8l-43.3-14.5L-67.1,1336.8z"/>
				<path id="path9603" sodipodi:nodetypes="scccccccccscccccsscccccccsccccscccc" class="st5" d="M127.1,1365.5
					c0-0.8-0.2-1.5-0.7-2.1c-0.7-0.4-1.9-0.6-3.8-0.6l0.1-3l49.3,1.7l-0.1,3c-1.9,0.3-3.2,0.7-4.1,1.4c-0.9,0.8-1.8,2.2-2.7,4.2
					c-0.4,0.8-1.3,3.1-2.8,6.7L117.9,1482c-1.5,3.3-2.2,5.1-2.2,5.2c0,0.8,0.5,1.5,1.7,1.8c1,0.4,2.1,0.7,3.3,0.9l-0.1,3l-66.1-2.4
					l0.1-3c1.4-0.1,2.5-0.3,3.3-0.6c0.9-0.3,1.3-1.1,1.4-2.5c0-0.3-0.7-2.6-2-6.7l-40.5-111.3c-1.2-3.1-2.3-5.2-3.1-6.2
					c-1-1.1-2.2-1.6-3.7-1.7l0.1-3l45.4,1.8l-0.1,3c-3.2,0.1-4.9,1-4.9,2.9c0,0.2,0.4,1.3,1.1,3.3l6.6,19.8l60,2.2l8.7-21.5
					C127,1366.4,127.1,1365.9,127.1,1365.5L127.1,1365.5z M63.9,1406.8l20.9,59.7l26.2-58L63.9,1406.8z"/>
				<path id="path9605" class="st5" d="M246.6,1469c0.3,1.1,1,1.9,2,2.3c0.9,0.6,2.9,0.6,6.1,0.1l0.9,2.9l-50.1,14.7l-0.9-2.9
					c3-1.2,4.8-2.4,5.3-3.4c0.5-0.8,0.5-1.8,0.2-3l-19.1-65.2c-3.1-10.7-4-20.2-2.6-28.6c1.3-8.3,4.3-15.5,9.2-21.7
					c4.7-6.1,11-11.3,18.7-15.5c7.6-4,16.1-7.3,25.3-10.1c9.2-2.7,18.2-4.5,27-5.3c8.6-0.6,16.7,0.4,24.1,3
					c7.3,2.6,13.8,7.1,19.5,13.3c5.5,6.3,9.9,14.8,13,25.5l19.1,65.2c0.3,1.1,1,1.9,2,2.3c0.9,0.6,2.9,0.6,6.1,0.1l0.9,2.9
					l-50.1,14.7l-0.9-2.9c3-1.2,4.8-2.4,5.3-3.4c0.5-0.8,0.5-1.8,0.2-3l-19.1-65.2c-2.8-9.4-7.4-15.4-13.9-17.8
					c-6.5-2.5-14.7-2.3-24.4,0.5c-9.7,2.8-16.7,7.1-20.8,12.7c-4.2,5.6-4.9,13.1-2.1,22.5L246.6,1469z"/>
			</g>
			<g id="g9828">
				<path id="path9779" class="st5" d="M-380.7,691.4c1.2,0.6,1.9,1.2,2.3,1.7s0.4,1.1,0.1,1.8l-15.7,44.3l-12-4.2l10.5-29.8
					c0.3-0.7,0.6-1.2,1.1-1.4c0.6-0.2,1.5-0.2,2.8,0.1l0.6-1.6l-22.6-8l-0.6,1.6c1.5,0.7,2.3,1.3,2.7,1.9c0.3,0.5,0.4,1.1,0.1,1.8
					l-10.5,29.8l-22.4-7.9c-0.6-0.2-1.1-0.6-1.4-1.1c-0.2-0.6-0.1-1.7,0.3-3.5l-1.6-0.6l-10,28.2l1.6,0.6c0.8-1.6,1.4-2.6,1.9-2.8
					c0.6-0.3,1.2-0.3,1.8-0.1l62.6,22.1c0.6,0.2,1,0.6,1.2,1.2c0.3,0.5,0.3,1.7-0.2,3.4l1.6,0.6l24.3-68.8c0.3-0.7,0.7-1.2,1.2-1.4
					c0.7-0.2,1.8-0.1,3.4,0.3l0.6-1.6l-23.4-8.3L-380.7,691.4z"/>
				<path id="path9781" class="st5" d="M-327.6,638.2c3.2-5.2,5.4-10.5,6.8-15.9c1.5-5.5,1.9-10.7,1.2-15.8
					c-0.6-5.2-2.3-10-5.1-14.5c-2.8-4.5-6.9-8.4-12.2-11.7c-5.3-3.3-10.7-5.2-15.9-5.6c-5.3-0.5-10.4,0.2-15.3,2
					c-4.8,1.7-9.3,4.5-13.5,8.3c-4.1,3.7-7.7,8.2-10.9,13.4c-3.2,5.2-5.6,10.5-7.1,15.9c-1.5,5.3-1.9,10.6-1.3,15.7
					c0.7,5.1,2.4,9.9,5.2,14.4c2.8,4.5,6.9,8.4,12.2,11.7c5.3,3.3,10.7,5.2,15.9,5.6s10.4-0.1,15.2-1.9c4.9-1.8,9.4-4.5,13.6-8.2
					C-334.5,647.9-330.8,643.4-327.6,638.2L-327.6,638.2z M-342.4,629.1c-1.6,2.7-3.6,5-5.9,6.9c-2.3,1.8-4.7,3.2-7.4,4.1
					c-2.6,0.9-5.3,1.2-8.3,0.9c-2.8-0.3-5.7-1.3-8.5-3.1c-2.8-1.7-5.1-3.8-6.7-6.3c-1.5-2.5-2.5-5.1-2.9-7.8
					c-0.3-2.8-0.1-5.6,0.5-8.4c0.7-2.9,1.9-5.7,3.5-8.4c1.6-2.7,3.6-4.9,5.8-6.8c2.3-1.9,4.7-3.3,7.3-4.2c2.7-0.9,5.4-1.2,8.3-0.9
					c3,0.3,5.9,1.3,8.7,3c2.8,1.7,5,3.9,6.5,6.3c1.6,2.4,2.6,5,2.9,7.8c0.4,2.7,0.3,5.6-0.4,8.5
					C-339.6,623.7-340.7,626.5-342.4,629.1L-342.4,629.1z"/>
				<path id="path9783" class="st5" d="M-261.8,552.1c4.5-4.1,8.1-8.6,10.8-13.5c2.9-4.9,4.7-9.8,5.5-14.9c0.8-5.1,0.5-10.3-1-15.4
					c-1.5-5.1-4.3-10-8.6-14.6s-8.9-7.9-13.8-9.8c-5-1.9-10-2.6-15.2-2.2c-5.1,0.3-10.2,1.8-15.2,4.3c-4.9,2.5-9.7,5.8-14.1,9.9
					s-8.2,8.6-11.1,13.4c-2.9,4.7-4.7,9.7-5.6,14.8c-0.7,5.1-0.4,10.2,1.1,15.3s4.3,10,8.6,14.6c4.2,4.6,8.9,7.9,13.8,9.8
					s10,2.7,15.1,2.3c5.2-0.4,10.3-1.8,15.3-4.2C-271.1,559.5-266.3,556.2-261.8,552.1L-261.8,552.1z M-273.6,539.3
					c-2.3,2.1-4.8,3.8-7.6,5c-2.7,1.2-5.4,1.8-8.3,2c-2.7,0.2-5.4-0.3-8.2-1.3c-2.6-1.1-5.1-2.8-7.3-5.2c-2.3-2.4-3.8-5.1-4.7-7.9
					c-0.8-2.8-1-5.6-0.7-8.3c0.4-2.7,1.4-5.4,2.8-8c1.5-2.6,3.3-5,5.6-7.1c2.3-2.1,4.8-3.8,7.5-4.9c2.7-1.2,5.5-1.9,8.2-2.1
					c2.8-0.2,5.6,0.3,8.2,1.3c2.8,1.1,5.3,2.8,7.5,5.3c2.3,2.4,3.8,5.1,4.5,7.9c0.9,2.8,1.1,5.6,0.7,8.3c-0.3,2.7-1.2,5.4-2.7,8.1
					C-269.5,534.9-271.3,537.2-273.6,539.3L-273.6,539.3z"/>
				<path id="path9785" class="st5" d="M-234.5,429.5c1.6-0.9,2.7-1.3,3.2-1.2c0.7,0.1,1.2,0.5,1.6,1l30.3,43.9l-20.2,13.9
					c-0.6,0.4-1.3,0.5-1.9,0.3c-0.6-0.2-1.4-0.9-2.5-2.1l-1.4,1l14.4,20.9l1.4-1c-0.8-1.4-1.1-2.5-1.2-3.2c0-0.6,0.4-1.1,1-1.6
					l57.9-40c0.6-0.4,1.2-0.6,1.8-0.4c0.6,0.3,1.5,1,2.6,2.2l1.4-1l-14.4-20.9l-1.4,1c0.8,1.4,1.1,2.5,1.1,3.1
					c0,0.7-0.3,1.2-0.9,1.7l-20.2,13.9l-30.3-43.9c-0.4-0.5-0.5-1.1-0.5-1.7c0.2-0.6,1-1.5,2.3-2.6l-1-1.4l-24.2,16.7L-234.5,429.5z
					"/>
				<path id="path9787" class="st5" d="M-103.4,373.3c4.7-2,8.3-2.8,10.7-2.4c2.4,0.4,4.3,2.1,5.5,5c1.2,2.9,1.1,5.3-0.4,7.3
					c-1.4,2-4.5,4-9.2,6l-22.4,9.3l-6.6-15.8L-103.4,373.3z M-95.7,404.4c2.8-1.2,5.2-2.1,7-2.8c1.9-0.6,3.5-0.9,4.7-0.9
					c1.2,0,2.2,0.3,3,0.9c0.8,0.6,1.4,1.6,2,2.9c0.5,1.3,0.8,2.5,0.7,3.4c-0.1,1-0.6,1.9-1.5,2.8c-0.9,0.9-2.2,1.7-4,2.6
					c-1.8,0.9-4.1,2-6.9,3.2l-17.9,7.4l-5-12.1L-95.7,404.4z M-124.2,442.1c0.3,0.6,0.2,1.2-0.1,1.7c-0.2,0.6-1,1.3-2.6,2.2l0.7,1.6
					l50.1-20.8c3.6-1.5,6.7-3.2,9.4-5.2c2.7-1.9,4.8-4.1,6.4-6.5c1.6-2.3,2.5-4.9,2.8-7.8c0.3-2.8-0.3-5.8-1.6-9.1
					c-1.6-3.9-4.2-6.7-7.5-8.1c-3.4-1.4-7-1.7-11-1l-0.1-0.3c4-3.1,6.8-6.5,8.6-10.2c1.8-3.7,1.7-8.1-0.3-13
					c-1.1-2.6-2.7-4.9-4.7-6.8c-1.9-2-4.4-3.4-7.3-4.2c-2.8-0.9-6.2-1.1-10-0.8c-3.8,0.3-8,1.5-12.6,3.4l-50.8,21.1l0.7,1.6
					c1.7-0.5,2.9-0.7,3.4-0.5c0.6,0.3,1.1,0.7,1.3,1.3L-124.2,442.1z"/>
				<path id="path9789" class="st5" d="M-16.9,333.6c-0.1-0.5,0-0.9,0.2-1.2c0.3-0.3,1-0.5,2.1-0.7l-0.3-1.7l-24.8,4.5l0.3,1.7
					c1.1,0,1.9,0.1,2.4,0.4c0.6,0.4,1.2,1.1,1.8,2.1c0.3,0.4,1,1.6,2.1,3.5s2.6,4.3,4.3,7.2c1.8,3,3.8,6.2,6,9.8
					c2.2,3.6,4.4,7.2,6.6,10.8c2.2,3.7,4.4,7.4,6.5,10.8c2.2,3.6,4.1,6.7,5.8,9.5c1.7,2.8,3,5.1,4,6.8c1.1,1.7,1.6,2.6,1.7,2.7
					c0.1,0.5-0.2,0.9-0.8,1.2c-0.5,0.3-1.1,0.5-1.7,0.8l0.3,1.7l36.6-6.7l-0.3-1.7c-0.8,0-1.4,0-1.9-0.1c-0.5-0.1-0.8-0.5-1-1.3
					c0-0.2,0.2-1.5,0.6-3.9c0.5-2.4,1.2-5.6,1.9-9.5c0.8-3.8,1.6-8.2,2.5-13.1c1.1-4.8,2.1-9.8,3.2-14.9c1.1-5,2.1-10,3.1-14.8
					c1.1-4.8,2-9.2,2.8-13c0.4-1.8,0.8-3.1,1.2-3.7c0.5-0.7,1.1-1.1,1.9-1.2l-0.3-1.7l-27.6,5l0.3,1.7c1.8-0.2,2.8,0.2,3,1.2
					c0,0.1-0.1,0.7-0.4,2c-0.2,1.3-0.5,2.7-0.8,4.2c-0.3,1.6-0.6,3.1-0.9,4.5c-0.2,1.4-0.3,2.3-0.4,2.8l-33.2,6.1
					c-1.4-2.4-2.5-4.3-3.4-5.8c-0.9-1.5-1.5-2.7-2.1-3.5c-0.5-0.9-0.8-1.5-1.1-2C-16.8,334-16.9,333.8-16.9,333.6L-16.9,333.6z
					 M21.6,351.5l-7.5,35.8l-18.6-31.1L21.6,351.5z"/>
				<path id="path9791" class="st5" d="M166,336.7c0.8,0,1.3,0.3,1.7,0.8c0.4,0.6,0.6,1.7,0.8,3.3l1.7,0l0.7-24.6l-1.7,0
					c-0.2,1.5-0.5,2.5-0.9,2.8c-0.4,0.3-1,0.4-1.7,0.4l-74.4-2.1l0,1.7c1.8,0.2,2.9,0.6,3.3,0.9c0.5,0.5,0.7,1.1,0.7,1.7L94.1,388
					c0,0.7-0.3,1.2-0.8,1.5c-0.4,0.5-1.5,0.8-3.3,0.9l0,1.7l29.3,0.8l0-1.7c-1.8-0.2-2.9-0.6-3.4-1.1c-0.4-0.4-0.5-0.9-0.5-1.6
					l1.5-53.3L166,336.7z"/>
				<path id="path9793" class="st5" d="M280,361.7c0.7,0.2,1.2,0.5,1.5,1.1c0.2,0.6,0.3,1.8,0.1,3.4l1.7,0.4l5.8-24l-1.7-0.4
					c-0.5,1.4-1,2.3-1.5,2.6c-0.4,0.2-1,0.2-1.8,0l-72.3-17.6l-0.4,1.7c1.7,0.6,2.7,1.1,3,1.6c0.3,0.6,0.4,1.2,0.3,1.8L199,396.9
					c-0.2,0.6-0.5,1.1-1.1,1.4c-0.5,0.4-1.6,0.4-3.4,0.2l-0.4,1.7l28.5,6.9l0.4-1.7c-1.7-0.6-2.7-1.2-3.1-1.8
					c-0.3-0.5-0.3-1-0.2-1.7l12.6-51.8L280,361.7z"/>
				<path id="path9795" class="st5" d="M417.2,466.1c-0.1,0.3-0.2,0.6-0.4,0.8c-0.1,0.4-0.3,0.8-0.6,1.1c-0.4,0.6-1.4,0.9-2.9,0.8
					c-1.4-0.1-3.2-0.4-5.4-1.2c-2.1-0.6-4.4-1.5-6.9-2.7c-2.6-1.1-5.1-2.5-7.6-4.2c-2.4-1.6-4.7-3.5-6.9-5.8c-2.2-2.3-4-4.8-5.4-7.6
					c-1.3-2.7-1.9-5.6-1.9-8.7c0-3,1-5.9,3-8.9c2-3,4.4-5.1,7.2-6.4c2.8-1.1,5.7-1.6,8.7-1.4c3.1,0.2,6.1,0.9,9,2.1s5.7,2.6,8,4.2
					c1,0.7,2.5,1.9,4.5,3.7c1.9,1.9,3.8,3.9,5.6,6s3.3,4.1,4.4,6c1.2,2,1.5,3.4,0.9,4.2c-0.3,0.4-0.6,0.7-0.9,0.8
					c-0.3,0.1-0.7,0.3-1,0.5l0.8,1.7l24.6-10.5l-0.9-1.8c-0.4,0.3-0.8,0.4-1.2,0.2c-0.3,0-0.7-0.1-1.1-0.4c-0.6-0.4-1.4-1.5-2.6-3.3
					c-1.2-1.7-2.9-3.9-5.1-6.5c-2.1-2.5-4.8-5.2-7.9-8.2c-3.2-2.9-7-5.9-11.4-8.8c-4.7-3.2-9.8-5.7-15.3-7.6
					c-5.5-1.8-11-2.7-16.4-2.6c-5.5,0.2-10.7,1.5-15.7,3.9c-5,2.5-9.2,6.4-12.8,11.7c-3.5,5.3-5.5,10.7-5.8,16.2
					c-0.4,5.6,0.4,10.9,2.4,16c1.9,5.2,4.8,10,8.5,14.4c3.8,4.5,8,8.3,12.8,11.4c4.7,3.2,9,5.6,12.8,7.3c3.8,1.8,7.1,3.2,9.9,4.2
					c2.7,0.9,4.9,1.5,6.4,1.9c1.5,0.4,2.6,0.9,3.2,1.3c0.7,0.5,1.1,1.2,1.1,2.1l1.5,0.5l2.4-26.7L417.2,466.1z"/>
				<path id="path9797" class="st5" d="M530,526.2c0.5,0.5,0.8,1.1,0.7,1.7c-0.1,0.7-0.7,1.6-1.7,2.9l1.2,1.2l17.6-17.3l-1.2-1.2
					c-1.2,0.9-2.1,1.4-2.6,1.4c-0.5-0.1-1-0.4-1.5-0.9l-52.1-53.1l-1.2,1.2c1.1,1.4,1.7,2.4,1.7,2.9c0,0.7-0.2,1.2-0.7,1.7
					l-47.4,46.5c-0.5,0.5-1,0.7-1.6,0.6c-0.6,0.1-1.6-0.5-3-1.6l-1.2,1.2l20.6,20.9l1.2-1.2c-1.1-1.4-1.7-2.5-1.7-3.1
					c0-0.5,0.2-1,0.7-1.5l38-37.3L530,526.2z"/>
				<path id="path9799" class="st5" d="M545.2,639.8c-0.6,0.3-1.1,0.4-1.7,0.2c-0.6-0.1-1.5-0.8-2.6-2.3l-1.5,0.9l15.2,25.1l1.5-0.9
					c-0.8-1.6-1.1-2.8-0.9-3.4c0.1-0.5,0.5-1,1-1.3l32.7-19.8c5.4-3.3,9.3-6.9,11.9-10.9c2.6-3.9,4.1-8.1,4.4-12.5
					c0.4-4.3-0.3-8.8-1.9-13.5c-1.7-4.6-3.9-9.1-6.7-13.8s-5.9-8.8-9.2-12.4c-3.4-3.5-7.1-6.2-11.1-7.9c-4-1.7-8.4-2.3-13.1-1.9
					c-4.7,0.5-9.7,2.4-15.1,5.6l-32.7,19.8c-0.6,0.3-1.1,0.4-1.7,0.2c-0.6-0.1-1.5-0.8-2.6-2.3l-1.5,0.9l15.2,25.1l1.5-0.9
					c-0.8-1.6-1.1-2.8-0.9-3.4c0.1-0.5,0.5-1,1-1.3l32.7-19.8c4.7-2.9,8.9-3.6,12.6-2.1c3.7,1.4,7,4.6,9.9,9.5
					c3,4.9,4.2,9.3,3.8,13.2c-0.4,3.9-3,7.3-7.7,10.2L545.2,639.8z"/>
				<path id="path9801" class="st5" d="M643,720.3c1.7,4.8,2.3,8.5,1.8,10.8c-0.6,2.4-2.3,4.1-5.3,5.2s-5.4,0.8-7.2-0.8
					c-1.9-1.5-3.8-4.7-5.4-9.6l-7.9-22.9l16.2-5.6L643,720.3z M611.6,726.1c1,2.9,1.8,5.3,2.3,7.2c0.5,1.9,0.7,3.5,0.6,4.8
					c-0.1,1.2-0.4,2.2-1.1,2.9c-0.7,0.7-1.7,1.3-3,1.8c-1.3,0.5-2.5,0.6-3.5,0.4s-1.9-0.7-2.7-1.6c-0.8-0.9-1.6-2.3-2.4-4.2
					c-0.8-1.8-1.7-4.2-2.7-7l-6.4-18.3l12.4-4.3L611.6,726.1z M575.6,695.4c-0.6,0.2-1.2,0.2-1.7-0.2c-0.6-0.2-1.2-1.1-2-2.8
					l-1.6,0.6l17.8,51.3c1.3,3.7,2.8,6.9,4.6,9.7c1.8,2.8,3.8,5.1,6.1,6.8c2.2,1.7,4.8,2.8,7.6,3.2c2.8,0.4,5.8,0.1,9.1-1.1
					c4-1.4,6.9-3.8,8.6-7c1.6-3.3,2.1-6.9,1.6-11l0.3-0.1c2.8,4.1,6.1,7.2,9.7,9.2c3.6,2.1,8,2.2,13,0.5c2.7-0.9,5.1-2.4,7.1-4.3
					c2.1-1.8,3.6-4.2,4.6-7c1-2.8,1.5-6.1,1.4-10c-0.1-3.8-1-8.1-2.6-12.8l-18-52l-1.6,0.6c0.4,1.8,0.5,2.9,0.3,3.4
					c-0.3,0.6-0.8,1-1.4,1.2L575.6,695.4z"/>
			</g>
		</g>
		<g id="g2729" transform="translate(-1505.6803)">
			<path id="path586" sodipodi:nodetypes="cccccccc" class="st4" d="M1051.4,929h-15l-18.8-8.3l2.9-13.8l13.1,6.2v-50.9h17.7V929z"
				/>
			<path id="path584" sodipodi:nodetypes="ssssccccccsssssssss" class="st6" d="M2173.5,861.9c13.6,2.4,22.4,11.4,22.4,22.9
				c0,2.7-0.3,6.1-0.7,7.5c-2.5,8.6-11.4,14.2-23.5,14.5c-3.2,0.1-4.5,0-6,0.2l1.1,7.1h26.1v15H2154l-4.4-35.7l8.3,0
				c9.6,0,14-1,17-4c2.5-2.5,2.8-6.2,1-9.8c-2.2-4.2-11.3-5.6-21-3c-2.9,0.8-5.5,1.3-5.5,1.1l-2.7-13.1c-0.1-0.4,2.8-1.2,5.8-1.8
				C2162.5,860.6,2165.7,860.5,2173.5,861.9L2173.5,861.9z"/>
			<path id="path576" class="st4" d="M1092.5,930.3c-16.5-0.2-24.8-9.1-25.9-22.1c-1.3-15.6,7.7-22.8,21-22.8c4.3,0,6.3,0.4,9,1.7
				c1.9,0.9,3.7,1.6,3.9,1.4c0.2-0.2-0.6-1.9-1.8-3.7c-3.9-6.1-9.2-8.7-19.4-9.4l-6.6-0.4l-0.1-13.8c2-0.6,13.9,0.1,19.2,1.4
				c15.8,3.9,22.7,12.7,25.9,25.4c5.8,22.4-1.5,41.2-21.7,42.3C1094.8,930.2,1093.6,930.3,1092.5,930.3L1092.5,930.3z M1093.5,917.1
				c3.9,0,7.4-3.4,7.6-9.2c0.2-5.4-0.4-9.6-7.2-9.9c-4-0.1-7.2,2.5-7.7,8.7c-0.5,6.5,2.9,10,6.9,10.3
				C1093.2,917.1,1093.3,917.1,1093.5,917.1L1093.5,917.1z"/>
			<path id="path2723" class="st4" d="M2116.2,930.3c-16.5-0.2-24.8-9.1-25.9-22.1c-1.3-15.6,7.7-22.8,21-22.8c4.3,0,6.3,0.4,9,1.7
				c1.9,0.9,3.7,1.6,3.9,1.4c0.2-0.2-0.6-1.9-1.8-3.7c-3.9-6.1-9.2-8.7-19.4-9.4l-6.6-0.4l-0.1-13.8c2-0.6,13.9,0.1,19.2,1.4
				c15.8,3.9,22.7,12.7,25.9,25.4c5.8,22.4-1.5,41.2-21.7,42.3C2118.5,930.2,2117.3,930.3,2116.2,930.3L2116.2,930.3z M2117.2,917.1
				c3.9,0,7.4-3.4,7.6-9.2c0.2-5.4-0.4-9.6-7.2-9.9c-4-0.1-7.2,2.5-7.7,8.7c-0.5,6.5,2.9,10,6.9,10.3
				C2116.9,917.1,2117,917.1,2117.2,917.1L2117.2,917.1z"/>
		</g>
	</g>
</g>
</svg>
