<?xml version="1.0" encoding="utf-8"?>
<!-- Generator: Adobe Illustrator 26.0.2, SVG Export Plug-In . SVG Version: 6.00 Build 0)  -->
<svg version="1.1"
	 id="svg2" xmlns:cc="http://creativecommons.org/ns#" xmlns:dc="http://purl.org/dc/elements/1.1/" xmlns:inkscape="http://www.inkscape.org/namespaces/inkscape" xmlns:rdf="http://www.w3.org/1999/02/22-rdf-syntax-ns#" xmlns:sodipodi="http://sodipodi.sourceforge.net/DTD/sodipodi-0.dtd" xmlns:svg="http://www.w3.org/2000/svg"
	 xmlns="http://www.w3.org/2000/svg" xmlns:xlink="http://www.w3.org/1999/xlink" x="0px" y="0px" width="463.3px" height="600px"
	 viewBox="0 0 463.3 600" style="enable-background:new 0 0 463.3 600;" xml:space="preserve">
<style type="text/css">
	.st0{fill-rule:evenodd;clip-rule:evenodd;fill:#F36B22;fill-opacity:0.9999;}
	.st1{fill-rule:evenodd;clip-rule:evenodd;fill:#FFFFFF;}
	.st2{fill:#FFFFFF;}
</style>
<sodipodi:namedview  bordercolor="#666666" borderopacity="1" gridtolerance="10" guidetolerance="10" id="namedview4" inkscape:current-layer="g10" inkscape:cx="118.26087" inkscape:cy="143.99712" inkscape:pageopacity="0" inkscape:pageshadow="2" inkscape:window-height="691" inkscape:window-maximized="1" inkscape:window-width="1280" inkscape:window-x="0" inkscape:window-y="1" inkscape:zoom="0.4897117" objecttolerance="10" pagecolor="#ffffff" showgrid="false">
	</sodipodi:namedview>
<g id="g10" transform="matrix(1.25,0,0,-1.25,0,600.00003)" inkscape:groupmode="layer" inkscape:label="KNVB15_212 Mediagids WK_LR">
	<g id="g4700" transform="matrix(6.9237089,0,0,6.9237089,-308.06023,-444.64974)">
		<g id="g4696">
			<path id="path4654" inkscape:connector-curvature="0" sodipodi:nodetypes="cccscsccc" class="st0" d="M71.2,133.5
				c-8.7-0.1-18.7-5.2-26.7-10.4V85.3c0-4.4,6-8.6,10.5-11.4c4.6-2.9,5.9-2.5,16.2-9.8c10.3,7.3,11.6,6.9,16.2,9.8
				c4.5,2.8,10.5,7,10.5,11.4v37.8C89.9,128.3,79.9,133.5,71.2,133.5L71.2,133.5z"/>
			<path id="path4639" inkscape:connector-curvature="0" class="st1" d="M71.2,131.7c-8.3-0.1-17-4.9-24.5-9.8V86.3
				c0-4.1,4.9-8.1,9.2-10.7c4.3-2.7,5.6-2.4,15.3-9.2c9.7,6.8,11,6.5,15.3,9.2c4.3,2.6,9.2,6.6,9.2,10.7v35.6
				C88.2,126.8,79.5,131.7,71.2,131.7z M71.2,130.6c8-0.1,16.4-4.7,23.7-9.5V86.7c0-4-4.8-7.8-8.9-10.3c-4.2-2.6-5.4-2.3-14.8-8.9
				c-9.4,6.6-10.6,6.3-14.8,8.9c-4.1,2.5-8.9,6.4-8.9,10.3v34.4C54.8,125.8,63.2,130.5,71.2,130.6z"/>
		</g>
		<g id="g4685">
			<g id="g4517" transform="matrix(1.0150153,-0.02306608,0.02306608,1.0150153,-3.7006597,0.49034711)">
				<path id="path194" inkscape:connector-curvature="0" class="st2" d="M77,123.9l0.9-0.2c0.1,0,0.2-0.1,0.4-0.1
					c0.3,0,0.7,0.1,0.8,0.6c0,0.1,0.1,0.4-0.2,0.7c0.2,0.1,0.4,0.2,0.4,0.5c0.1,0.2,0,0.4-0.1,0.6c-0.2,0.3-0.7,0.5-0.7,0.5
					l-0.9,0.2l0,0c-0.1,0-0.1,0-0.1-0.1l-0.7-2.6C76.9,124,76.9,124,77,123.9C76.9,124,77,123.9,77,123.9 M78.1,126l0.3-0.1
					c0,0,0.2,0,0.2-0.1c0,0,0-0.1,0-0.2c0,0,0-0.2-0.3-0.2c-0.1,0-0.1,0-0.1,0l-0.3,0.1L78.1,126L78.1,126z M77.8,124.9l0.3-0.1
					c0.2,0,0.2-0.1,0.3-0.2c0-0.1,0-0.1,0-0.2c0,0,0-0.2-0.2-0.2c-0.1,0-0.1,0-0.2,0l-0.3,0.1L77.8,124.9L77.8,124.9z"/>
				<path id="path200" inkscape:connector-curvature="0" class="st2" d="M73.7,124.4C73.7,124.4,73.8,124.4,73.7,124.4l1.4,2.7v0.1
					l-0.1,0.1h-0.5c0,0-0.1,0-0.1-0.1l-0.6-1.3l-0.4,1.4l-0.1,0.1h-0.5h-0.1v-0.1l0.8-2.9C73.6,124.4,73.6,124.4,73.7,124.4"/>
				<path id="path204" inkscape:connector-curvature="0" class="st2" d="M63.7,123.4l0.5,0.1c0,0,0.1,0,0.1,0.1v0.1l-0.2,0.7
					c0,0.1,0.1,0.1,0.1,0.2l0,0l1-0.7l0,0l0,0l0.6,0.2l0.1,0.1v0.1l-1.4,0.9l0.7,1.5v0.1l-0.1,0.1l-0.6-0.2c0,0-0.1,0-0.1-0.1
					l-0.6-1.3l-0.3,1l-0.1,0.1l-0.5-0.1c-0.1,0-0.1-0.1-0.1-0.1l0.7-2.6C63.6,123.4,63.7,123.4,63.7,123.4"/>
				<path id="path206" inkscape:connector-curvature="0" class="st2" d="M68.1,124.3h0.5h0.1c0,0,0,0,0,0.1l-0.1,1.6l1.3-1.5H70h0.5
					c0.1,0,0.1,0.1,0.1,0.1l-0.2,2.7c0,0.1-0.1,0.1-0.1,0.1l0,0h-0.4h-0.1c0,0,0,0,0-0.1l0.1-1.6l-1.3,1.5c0,0,0,0-0.1,0H68h-0.1
					v-0.1L68.1,124.3C68,124.4,68,124.3,68.1,124.3"/>
			</g>
			<path id="path222" inkscape:connector-curvature="0" class="st2" d="M78.7,87.6c-0.1,0-0.2-0.1-0.3-0.1l0,0h-0.1
				c0.9,1.3-0.4,2.1-0.4,2.1s0.1-1.2-0.5-1.4c-0.5-0.2-1,0-1.3,0.3c-0.9,1.4,1,2.6,1,2.6l0.1,0.1c0.3,0.2,0.7,0.4,1.1,0.6l0,0l0,0
				c5.5-2.4,4.3-5,2.4-7.1c2.1,0.7,3.5,2.9,3.4,4.7c0.7-0.6,1.4-1.4,1.1-2.7c1.1,1.1,1.2,2.9,0.4,4.1c0.1,0.1,0.3,0.2,0.4,0.3
				c2.1,1.5,2.1,3.1,1.8,4.9c-0.1,0.3-0.1,0.4-0.2,0.8c0,0.1,0,0.4-0.1,0.4c0,0.2,0,0.5,0.1,0.7c0.9,3.1,3,1.8,3,1.8s-1,1.6-2.8,0.7
				c-0.6-0.3-0.9-0.9-1.1-1.5c-0.1,0.6-0.1,1.3-0.1,1.8c0.2,2.1,1.6,1.8,1.6,1.8s-0.7,0.7-1.6,0.3c-0.6-0.2-0.9-1-1.1-1.7
				c-0.3,0.6-0.9,2.1-1.1,4c-0.1,1.1,0.3,2.3,0.3,2.3s-1.2-0.3-1.4-2.2c0,0-0.1,0.1-0.2,0.4c-0.2,0.8-0.4,2.3-0.1,3.6
				c0.6,2.4,2.1,2.8,2.1,2.8s-1.5,0.5-2.5-0.7c0.5,2,1.6,3.2,2.5,3.5c0.8,0.3,1.4,0.2,1.4,0.2s-1.4,0.8-3,0c0.3,0.4,0.4,0.6,0.7,0.8
				c0.7,0.7,1.5,1,2.1,0.9c0.5-0.1,0.9-0.4,1.1-0.7c1.2-2.1-1.6-3-1.6-3s0.5-0.5,1.6-0.2c1,0.3,1.2,1.2,1.2,1.2s0-0.1,0-0.2
				c0.1-0.1,0.2-0.4,0.1-0.9c0-0.2-0.1-0.4-0.2-0.5c-0.2-0.4-0.6-0.7-1.2-1c-0.5-0.2-1.9-0.5-2.4-1.5s-0.3-1.1-0.3-1.1s1.1,1,1.6,1
				l0,0c-0.6-0.9-1.1-1.9-0.8-3.4c0.4-2.1,2.7-2.5,3.5-2.3c1,0.2,1.7,1.1,1.7,1.1s-2.3-0.6-2.8,1c-0.4,1.3,0.1,2.3,1.3,3.3
				c-0.2-0.3-0.3-0.6-0.3-0.8c-0.1-0.6-0.1-1.4,0.7-1.8c0,0-0.3,1.4,0.9,2.8c1.1,1.2,0.8,3.2,0.7,3.7c-0.1,1.2-0.8,2.3-1.1,2.6
				c0.1,0,0.2,0,0.4,0c0.3,0,0.7,0.2,1,0.5c0.4,0.5,0.1,1.9,0.1,1.9s-0.6-1.6-1.6-0.9c-0.5,0.3-0.9,0.9-1.7,1.5
				c-0.3,0.2-0.9,0.4-1.4,0.4c0.4,0.7,1.1,1.1,2,1.1c-1.2,0.8-2.4,0.4-3-0.3c-0.2,1.9-1.2,2.2-1.6,2.4c0.4-0.5,0.6-1.5,0.6-2
				c-0.6,1.4-2.7,1.3-3-0.6c1.5,1.6,2.6-0.5,1.7-1.8c-0.2-0.3-0.8-0.9-1.4-1.8c-0.9-1.4-1.4-2.9-1.5-4.1c-0.2-2.6,0.4-4.9,0.4-4.9
				l0.7-2.2c0,0,0,0-0.1,0c-0.5,0.3-0.6,0.5-0.8,0.7c-0.5,0.5-0.7,1.9-0.7,1.9s-0.5-0.9-0.1-2.4s1.9-2.3,1.9-2.3s-0.5,0-1.3,0.1
				c-0.9,0.1-1.8,1.2-1.8,1.2s0.3-1.4,1.1-2.3c0.5-0.5,1.8-1.1,2.6-1.3c-2.1,0.3-3.3-1.1-3.2-2.9c0.8,2.4,3.5,1.9,4.8,0.2
				c-1.6,0.3-2.6-1.1-2.3-2.9c0.5,2.2,2.2,2.3,3.1,1.5l0.1-0.1c0.5-0.7,0.7-1.7,0.5-2.5c-0.2-0.5-0.4-0.9-0.8-1.2
				c-1.2-0.8-3.4-0.4-5,1.4l0,0c0.1,1.1-0.3,2.4-1,3.6c-0.4,0.7-0.9,1.3-1.5,1.8l-0.1,0.1c-1.2,1.2-2,2.3-2.4,3.3l0,0h0.1
				c1-0.3,1.8-0.1,1.8-0.1s-1.3,1-1.3,2.1c0,0.2,0,0.4,0,0.7c0.4-0.4,1.2-0.9,1.7-1c0.8-0.2,1.3,0,1.3,0s-1.1,0.5-1.4,1.3
				c-0.3,1,0.1,2.2,0.7,3.3l0.1-0.1c0.1-0.3,0.1-1,0.1-1s0.6,0.5,0.9,1.5c0.1,0.4,0.2,1,0.2,1.6l0.4-0.7c0,0,0.5,1.6,0.3,2.8
				c-0.1,1.2-0.5,2.6-0.5,2.6l0.8-0.5c0,0-0.1,1.5-0.5,2.7c-0.4,1.3-1.1,2-1.1,2h0.8c0,0-0.1,0.5-0.8,1c-0.2,0.2-0.5,0.3-0.8,0.4
				c0,0.2,0,0.4-0.1,0.7c-0.3,1.1-1.9,0.3-1.9,0.3h-0.2c0.1,0.1,0.1,0.2,0.2,0.3c0.2,0.2,0.9,0.4,0.9,0.4s-0.5,0.1-0.9,0.1
				c-0.5,0-1.3-0.4-1.3-0.4l0.3,0.7c0,0-0.9-0.4-1.4-0.6s-1-0.6-1-0.6v0.6c0,0-0.4-0.2-0.8-0.5s-0.6-0.4-0.6-0.4l-0.1-0.1h-0.1
				c-0.2-0.1-0.5-0.1-0.7-0.2c-0.1,0-0.2-0.1-0.2-0.1s0,0-0.1,0c-0.5-0.2-1-0.4-1.5-0.7c-0.8-0.6-2-2-2-2.1s0.3-0.5,0.2-0.8
				c-0.1-0.2,0-1,0.2-1.3c0.2-0.2,0.5-0.3,0.9-0.2l0.3-0.3l0.1,0.4l0,0c0.1,0,0.1,0.1,0.2,0.1l0.4-0.2v0.5c0.4,0.3,0.8,0.6,1.2,0.6
				c0.5,0,0.9-0.2,1.2-0.6c-0.4-0.1-0.9-0.2-1.2-0.3c-0.6-0.3-1.3-0.8-2.3-1c-1.2-0.2-2.7-0.2-2.9,0.4c-0.2,0.6,0.3,1.5,0.3,1.5
				s-1.3-0.3-1.5-1.3c-0.2-0.9,0.2-1.8,1.1-1.9c0.8-0.2,2.2,0.4,2.9,0.7c0.8,0.3,1.7,0.8,2.5,1.1c0.5,0.2,1.1,0.2,1.5,0.2
				c0.1-0.1,0.1-0.2,0.1-0.3c-0.2-0.5-0.6-0.9-1.5-1.1c-0.4-0.1-0.6-0.1-0.9-0.1l-0.2,0.5l-0.1-0.5c-0.1,0-0.2,0-0.3,0l-0.1,0.5
				l-0.2-0.4c-0.4,0.1-0.4,0.1-0.5-0.4c-0.1-1,0.5-1.6,1.5-1.6s1.2,0.4,1.2,0.4l-0.5,0.2c0,0,1.4,0.6,1.8,1c0-0.1-0.1-0.3-0.2-0.4
				c-0.2-0.5-0.5-1.1-1-1.3c-1.7-0.8-4,0-4,0s0-0.5,0.4-0.8c0.2-0.2,0.6-0.4,0.6-0.4s-0.7-0.2-1.4-0.1c-0.7,0.1-1.3,0.3-1.3,0.3
				s0-0.7,0.7-1.3h-0.1c-1,0.2-2.3,0.9-3.6,2.4c-0.4,0.6-0.6,1.1-0.7,1.5c-0.2,1,0.5,3.1,0.1,4.3c-0.3,1.2-1,2.6-1.9,2.5h-0.2
				c0,0-0.1,0.6-0.7,0.8c-0.6,0.2-1.3-0.2-1.3-0.2s0.7,0,0.9-0.5c0.1-0.1,0.1-0.4,0.1-0.5c-0.1-0.1-0.2-0.2-0.2-0.4
				c-0.1-0.4,0-1,0-1s-0.2,0.6-0.8,1c-0.5,0.3-1.4,0.5-1.8,0l0,0c0,0-0.5,0.3-0.9,0.2c-0.5-0.1-0.7-0.4-0.8-0.8c0-0.3,0-0.5,0-0.5
				s0.3,0.4,0.7,0.3c0.2,0,0.6-0.2,0.6-0.2c0-0.4,0.1-0.7,0.2-0.8c0.3-0.2,0.4-0.3,0.4-0.3s-0.9,0.8-1.6,0.4
				c-0.1-0.1-0.2-0.1-0.3-0.2c-0.1,0.1-0.5,0.3-0.9,0.1c-0.4-0.2-0.7-0.7-0.6-1.1c0-0.5,0.2-0.6,0.2-0.6s0.1,0.7,0.5,0.8
				c0.1,0,0.2,0,0.3,0c0-0.2,0-0.4,0.2-0.6c0.4-0.5,0.9-0.2,1.2-0.3l0.3-0.1c0,0-1-0.1-1-0.9h-0.1c0,0-0.7,0.1-1.1-0.5
				c-0.4-0.7,0.1-1.2,0.4-1.3c0.2-0.1,0.4-0.1,0.4-0.1s-0.2,0.5-0.1,0.7c0.3,0.4,0.6,0.1,0.7,0.1l0,0l0,0c0.3-0.5,0.8-0.2,1-0.5
				s0.9-0.5,1.4-0.4c0.4,0,0.7,0,0.7,0s0.1-0.5,0.4-1.2c0.3-0.7,0.7-1.2,1-1.8c-0.2-0.1-0.5-0.1-0.8-0.1c-0.5,0-1.3,0.4-1.3,0.4
				s0.7-1.4,2.5-2.3c0.9-0.4,1.7-1,2.1-1.1l0,0c-0.3-0.1-0.6-0.2-0.9-0.2c-0.4-0.1-1.5,0.1-1.5,0.1s1.4-1.2,3.3-1.4
				c-0.1,0-0.1,0-0.2,0c-1-0.2-1.4-0.2-2.2-0.2c-0.9,0.1-2.4,0.8-3.6,0.9c-1.2,0.1-2.3,0.1-2.6-0.7c0-0.1-0.1-0.2-0.1-0.2l0,0
				c0,0-0.6,0-0.9-0.4c-0.4-0.5-0.3-1.1-0.3-1.1s0.4,0.6,0.8,0.6c0.2,0,0.4,0,0.5-0.1c0-0.1,0.1-0.2,0.2-0.3
				c0.3-0.2,0.5-0.3,0.5-0.3s-0.9,0.1-1.4-0.3s-0.7-1-0.4-1.5l0,0c0,0-0.4-0.3-0.4-0.7c-0.1-0.4,0.1-0.7,0.3-0.9
				c0.2-0.2,0.5-0.2,0.5-0.2s-0.3,0.3-0.2,0.7c0.1,0.3,0.5,0.4,0.5,0.4c0.3-0.1,0.6-0.1,0.8,0l0.1,0.1c0,0-0.8-0.4-0.7-1.1
				c0-0.1,0.1-0.2,0.1-0.3l0,0c0,0-0.5-0.4-0.4-0.8c0-0.4,0.3-0.7,0.8-0.8c0.4-0.1,0.5-0.1,0.5-0.1s-0.8-0.4-0.8,0
				c0,0.2,0.1,0.2,0.2,0.3c0.2-0.1,0.4-0.1,0.6-0.1c0.6,0.2,0.5,0.7,0.7,0.9l0.2,0.2c0,0-0.3-0.9,0.4-1.1l0,0c0,0-0.5-0.8,0-1.2
				c0.5-0.3,1.1-0.1,1.2,0c0.2,0.2,0.2,0.3,0.2,0.3s-0.6-0.2-0.7,0.2c-0.1,0.3,0.2,0.6,0.2,0.6s0,0,0.1,0c0.7,0.1,0.5,0.6,0.7,0.7
				c0.3,0.1,0.8,0.7,0.9,1c0.1,0.4,0.2,0.6,0.2,0.6s0.5-0.1,1.2,0c0.1,0,0.2,0,0.3,0.1L59,101c0,0,0.8,0.4,1.1,0.5s1,0.5,1,0.5
				s0-0.4-0.2-0.8s-0.8-1.1-0.8-1.1s1.5,0.6,2.4,1.2c0.9,0.7,1.5,1.4,1.5,1.4s-0.1-0.7-0.2-1c-0.1-0.3-0.3-0.7-0.3-0.7
				s0.9,0.5,1.7,1.1c0,0,0,0,0-0.1c0.5-0.7,1.3-1.6,2.3-2.2c1.5-1,2.5-1.1,3.5-2.2l0,0l0,0c0.1-0.1,0.2-0.3,0.3-0.4l0,0
				c0,0,0,0-0.1,0c-0.6,0.2-3.1,1-4.4,1.3c-1.2,0.3-2.5,0.7-2.5,0.7s-1,0.3-2.1,0.2c0,0-0.2,0-0.6-0.1c-0.8-0.1-1.9-0.5-2.7-1.2
				c-0.9-0.9-1.1-2.3-1.1-2.3s0.9,1.1,1.5,1c0.1,0-0.4-0.7-0.6-1.3c-0.3-0.9,0.1-2.4,0.1-2.4s0.6,1.3,1,1.4c0.2-0.4,0.5-0.6,0.8-0.8
				c1.6-1,1.8-2.3,0.3-2.5c-0.4,0-1.1,0.4-1.5,0.4s-1,0-1,0s-0.2,0.8-0.8,1.2c-0.8,0.4-1.6,0.4-2.1-0.3l0,0c0,0-0.6,0.4-1.1,0.2
				c-0.5-0.1-0.8-0.3-0.9-0.9c-0.1-0.6,0.5-1.2,0.5-1.2s0,0.7,0.3,0.8c0.3,0.1,0.7-0.1,0.7-0.1s0,0,0.1,0c0-0.4,0.1-0.6,0.1-0.6
				s-0.7-0.1-0.8-1c0-0.2,0-0.4,0.1-0.6c-0.2-0.1-0.7-0.4-0.8-0.8c-0.2-0.8,0.4-1.4,0.4-1.4s0,0.9,0.5,1c0.3,0,0.5,0.1,0.7,0.4
				c0.2-0.1,0.3-0.2,0.3-0.2s-0.3-1.2,0.2-1.6c-0.2-0.2-0.4-0.3-0.5-0.6c-0.1-0.3-0.2-0.8,0.2-1.1c0.4-0.3,0.9-0.3,0.9-0.3
				s-0.5,0.7-0.1,0.8c0.4,0.1,0.6,0.4,0.7,0.7c0.5-0.1,0.9-0.1,1.2,0.2c0.5,0.5,0.6,0.6,0.6,0.6s0.1-0.1,0.3-0.3
				c-0.1-0.1-0.4-0.5-0.4-0.8c0-0.8,0.7-0.9,0.7-0.9s-0.1,0.7,0.1,0.8c0.3,0.2,0.4,0.2,0.5,0.4c0,0,0,0,0.1,0
				c0.8-0.3,1.2,0.3,1.5,0.7c0.4,0.5,1.6,2.3,1.6,2.3l0.1,0.1c0.2,0.2,0.2,0.2,0.2,0.2c0.4,0.3,0.8,0.5,1.2,0.7
				c1.3,0.5,2.7-0.2,2.7-0.2s0,0.6-0.6,1.2c-0.2,0.3-0.6,0.6-0.9,0.8c0.1,0,0.3,0,0.5-0.1c1-0.2,2.2,1,2.2,1s-2.3,0-2.5,0.9
				c-0.3,1.5,1.6,1.6,2.9,0.6c0.3-0.2,0.9-0.7,1.6-1.2c0.2-0.2,0.5-0.3,0.7-0.5c0.1,0,0.1-0.1,0.2-0.1c0,0,0,0,0.1,0l0,0
				c-0.2-0.2-0.3-0.3-0.5-0.4c-0.9-0.8-2.5-2.1-2.8-3s-0.6-1.9-0.9-2.2c-0.5-0.5-0.9-0.4-0.9-0.4s0.2-0.5,1-0.4
				c0.6,0.1,0.9,0.4,0.9,0.4S68,85.7,67.6,85c-0.7-1-1.8-1.5-1.8-1.5s1.1-0.2,1.8,0c1,0.3,1.9,1.2,1.9,1.2s-0.1-0.6-0.2-0.9
				c-0.2-0.4-0.7-0.9-0.7-0.9s0.7-0.2,1.5,0.4c0.1,0.1,0.2,0.2,0.3,0.2c0,0,0,0,0.1,0.1c0.3,0.3,0.3,0.4,0.5,0.8
				c0.1,0.3,0.1,0.7,0.1,0.7s0.1-0.2,0.4-0.3c0.3-0.2,0.5-0.1,0.7-0.1h0.1c0.1,0,0.3,0.1,0.5,0.1l0,0c0.3,0,0.5,0,0.6,0
				c0.2-0.1,0.4-0.2,0.6-0.4c0.6-1.2-0.5-1.8-0.5-1.8s-0.6-0.3-1.2-0.7c-0.6-0.4-0.8-0.8-0.8-0.8s-1.3,1.1-2.6,0.7
				c-1.3-0.4-2-1.3-1.9-2.1c0,0-0.6-0.2-0.8-0.6c-0.5-1,0.4-1.9,0.4-1.9s-0.1,0.4,0,0.8c0.1,0.5,0.7,0.6,0.7,0.6l0,0
				c0.1-0.3,0.2-0.4,0.3-0.5c0.2-0.2,0.2-0.2,0.2-0.2s-0.1-0.5,0.1-1c-0.4-0.4-0.6-0.8-0.4-1.6c0.3-0.8,1.1-0.7,1.1-0.7
				s-0.5,0.6,0.1,1.2c0.1,0.1,0.2,0.2,0.3,0.4c0.6-0.1,0.9,0.1,0.9,0.1s0.2-0.5,0.5-0.7C69.9,75,70,74.4,70.2,74
				c0.3-0.5,1.3-0.7,1.3-0.7s-0.4,0.3-0.4,0.8c0,0.6,0.2,0.3,0.2,0.9c0,0,0,0,0,0.1c1,0,1.1,0.8,1.1,0.8s0.1-0.1,0.3-0.1
				c0-0.1,0-0.2,0-0.4c0-0.8,0.6-1.2,1.1-1.3c0.6-0.1,1.1,0.5,1.1,0.5s-0.2-0.1-0.3-0.1c-0.1,0-0.5,0.1-0.6,0.3
				c-0.1,0.2,0,0.6-0.1,1c0.7,0.3,1.5,1,1.4,1.8c-0.1,0.9,0,0.6,0,0.6s-0.1,0.7,0.3,0.9c1.5,0.7,1.9,2.3,2.1,3.2c0,0,0.4,3.3,1,4.1
				c0.6,0.8,1.8,0.9,1.8,0.9S79.9,88.1,78.7,87.6 M70.7,119.8c-0.5-0.1-1-0.2-1.3-0.4h-0.1c0,0-0.1,0.9,0.6,0.8c0.2,0,0.4,0,0.6-0.1
				c0.3-0.1,0.6-0.2,0.8-0.2h0.1C71.3,119.8,71,119.8,70.7,119.8"/>
			<g id="g4681" transform="translate(1.4310649e-4,0)">
				<circle id="path4513" class="st2" cx="60.6" cy="123.5" r="0.6"/>
				<circle id="circle4515" class="st2" cx="82.2" cy="123.5" r="0.6"/>
			</g>
		</g>
	</g>
</g>
</svg>
