<?xml version="1.0" encoding="utf-8"?>
<!-- Generator: Adobe Illustrator 26.0.2, SVG Export Plug-In . SVG Version: 6.00 Build 0)  -->
<svg version="1.1"
	 id="svg898" xmlns:cc="http://creativecommons.org/ns#" xmlns:dc="http://purl.org/dc/elements/1.1/" xmlns:inkscape="http://www.inkscape.org/namespaces/inkscape" xmlns:rdf="http://www.w3.org/1999/02/22-rdf-syntax-ns#" xmlns:sodipodi="http://sodipodi.sourceforge.net/DTD/sodipodi-0.dtd" xmlns:svg="http://www.w3.org/2000/svg"
	 xmlns="http://www.w3.org/2000/svg" xmlns:xlink="http://www.w3.org/1999/xlink" x="0px" y="0px" width="525.7px" height="600px"
	 viewBox="0 0 525.7 600" style="enable-background:new 0 0 525.7 600;" xml:space="preserve">
<style type="text/css">
	.st0{fill:#019638;}
	.st1{fill:#FFFFFF;}
	.st2{fill:#F6221E;}
	.st3{fill:#A92B2A;}
</style>
<sodipodi:namedview  bordercolor="#666666" borderopacity="1" gridtolerance="10" guidetolerance="10" id="namedview900" inkscape:current-layer="svg898" inkscape:cx="48.791499" inkscape:cy="-32.54576" inkscape:pageopacity="0" inkscape:pageshadow="2" inkscape:window-height="900" inkscape:window-maximized="0" inkscape:window-width="1440" inkscape:window-x="0" inkscape:window-y="0" inkscape:zoom="0.39733338" objecttolerance="10" pagecolor="#ffffff" showgrid="false">
	</sodipodi:namedview>
<g id="g1116">
	<path id="path1112" class="st0" d="M525.7,0H0v33.4C0,166.7,5.9,254.6,37,337c34.1,90.3,97.5,166.7,205.9,248l6.3,4.7l13.8,10.3
		l13.7-10.3l6.3-4.7c108.3-81.2,171.8-157.7,205.9-248c31.1-82.5,37-170.3,37-303.7L525.7,0z"/>
	<path id="path892" class="st1" d="M502.8,22.9v10.5c0,130.6-5.7,216.4-35.5,295.6c-32.5,86-93.6,159.3-198.2,237.8l-6.3,4.7
		l-6.3-4.7C151.9,488.2,90.8,414.9,58.4,329C28.5,249.8,22.9,164,22.9,33.4V22.9H502.8z"/>
</g>
<g id="g1120">
	<path id="path886" class="st2" d="M329.6,109.2c-7.6,6.2-25.4,6.6-33.8,4.4c0,0,23.8-4.7,29.5-10.5c-1.9-2.1-9.4-4.8-9.6-5
		c0,0,38.3-7.5,41.5-9.7c-0.1,1.4-1.2,8.6-27,27.5C329.5,112.4,330.2,110.3,329.6,109.2 M134.8,318.1L134.8,318.1
		C134.7,318,134.7,318,134.8,318.1 M278.7,248.1c31.9,15.6,36.9,24.4,36.8,25.2c-8.1,65.1,66.5,64.2,77.1,31.5
		c-0.6,1.4-7.6,10-25.6,12.3c-43.2,5.3-53.9-41.6-4.5-53.3c11.8-2.7,27.7,0.3,36.9,6.4c0,0,10.5-17.1,23.9-26.2
		c-3.7-0.6-9.9-0.6-16.5-3.1c7.3-2.3,32.5-15.1,42.9-36.7c0.3,1.8,3.5,29.8-10.2,63.7c-0.6-9.4-4.6-14.4-8.1-19.3
		c-7.4,6.9-20.2,19.6-22.5,31.1c11,17.2,7.7,37.6,0.8,49.5c-25.6,44.4-94.6,41.8-112,16.9c-2.1,21,7,35.9,36.3,50.2
		c-13.2,5.9-24,6.5-33.2,7.2c-2.5,3.7-14.6,20.4-15,20.9c8.8-1.5,28.8-5.3,37-9c1.2,2.6,1,8.2,1,8.2s12,10.5-0.1,32.9
		c0,0-6.1-15.3-8.4-16.2c-32-8-45.9,26.4-35.1,42.7c-0.1,0-11-1.3-16.8,21.9c-4.1-3.2-7.9-11.6-7.2-18.1c0-0.7-6.2-7-6.6-7.4
		c15.5-22.2,13.9-28.9,14.3-28.9c-12.2,1.1-23.3,21.6-23.3,21.6l-6.6-4.6c0,0-7.2,5-3.9,12.9c-12.7-7.4-8.5-15.9-7.1-21.3
		c-0.1-0.1-3.3-3.5-3.2-3.6c1.2-1,21.8-9.1,29.4-14.5c-5.6-2.5-19.9-0.9-24.7,8.3l-7.3-4.9c0,0-5.4,3.5-7.4,11.7
		c-3.9-3.7-4.9-21.2,6-22.8c0.5,0,1.3-4.6,1.2-4.8l43.4-2.8c0,0,11.1-17.2,11.6-21.1c-0.3,0.1-9.9-0.4-23.6,4
		c0,0-15.9-20.1-15.9-22.5c5.2-42,14-63.6,14-63.6c-10.2,2.9-16.4,15.7-22.4,41.9c-7.2-5.4-9.9-14.7-9.9-14.7l-19.6,6.3
		c0,0.1,13.2,15.7,14.3,16.8c0.7,0.1,5,0.6,5,0.5c1.1,11.5-0.1,22.2-9.1,28.9c4.1-12.4-1.8-19.4-1.8-19.4l-9,3.7
		c0,0-2.4-20.1-18.8-20.1c-8.1,0-11.2,22.1-11.2,22.1s-10.2-1.5-10.3-1.3c-4.8,8.1,4.2,12.1,4.2,12.1c-0.5,0.1-6.2,0.2-11.7-4.3
		c-5.3-5.3-5.7-12.7-2.3-19.3c0,0.3,18.1-16.9,19.3-19.4c-13.7-9-20.4,6-21.2,6.8c0,0-5.8-1.1-7.5-1.4c0,0-3.3,2.6-1.1,10.2
		c-0.5,0.3-10.2-8.4-7.9-19.8c0,0,2.4-6.3,12.3-7.6c1.3-0.2,20.5-2.3,20.5-2.3c-12.7-13-24.1-2.4-24.1-2.6c0,0-3.4-4.6-4.9-4.6
		c-3-0.3-9.4,1.9-10.7,8c-1.4-2.5-5-11.9,5.3-18.3c0.9-0.6,10.5-3,12.3-3.3c0.1,0,15.8,2.5,22.2,3.8c0.1,0,17.7,14.7,19.7,16.1
		c0,0.1,18-8.4,21-9.5c0.7-0.3-31-12-31-12c0-2.6,5.1-17.8,14.5-25c3.4-2.7,25.8-4.7,39.6-11.8c-6.8-2.4-28.2-9.2-39.7-25.8
		c-0.4-0.6-1.4,20-1.4,20s-28.9-31.5-42-33c1.7,1.1,9.9,18.2,13.2,23.1c-0.4,0.2-1,0.8-3.7,1.4c1.1,9-8.9,15.8-20.9,12.2
		c4.6-2.4,6.6-7.2,7.3-11.7c0,0-6.7-3.5-6.8-3.6c0,0,4.2-7.3,3.4-9.5c-8.2-22.5-28.1-3.3-28.8,4c0,0-6.7-4.3-6.8-4.3
		c-3.4,4.1-1.8,11.1-0.3,15.6c-11.4-5.7-14.2-26.2-7.2-32.9c0.4-0.4,24.9-7.9,25-7.9c-6.7-7.3-18-3.9-18-3.9s-4.3-5.9-4.6-6
		c-2.6,0.8-6.9,6.5-7.5,10.5c-7.5-6.5-2.7-23.1,7-24.5c0.7-0.1,18.3,3.6,21,3.9c-1.2-7.5-8.3-18.2-16.2-13.8c0-0.1,4.5-7.8,4.5-7.7
		l-14.7,0.7c9.1-11.9,21.4-12.1,33.8-5.5c-0.2,2.3,9.5,28.8,11.5,32c1.8,2.8,30.6,3.4,33.3,3.8c-0.2-1.1-1-3.1-0.7-4.1
		c-2.1-2.1-14.4-17.9-14.9-17.6c-0.5,0.5-10.1,11.4-10.4,11.8c-5.3-20.5,12-28.3-6-59.1c0,0-17.7,14.9-17.8,15
		c-11.3,4.1-20.6,2.2-22.7-10c3.5,6,13.8,2.6,13.8,2.6l-0.2-7.5c25.3-3,13.7-26,5.7-26.7c-6.1-0.6-16.3,4-16.3,4.2
		c-0.2,0.3-6.2-2.2-8.8-2.3c-5.9,5-6.6,7.9-6.1,13.2c-8.7-11.9-6.4-21.7,4.5-30.2c0.3,0,26.8,1.4,28.8-0.9
		c0.3-1.2,3.2-16.4-15.8-19.4c0-3.5-0.3-4.5-0.3-7.9c-5.3,1.1-11.1,5.7-12.6,10.9c-3.7-8.1,1.1-17.4,9.3-20.4
		c8.3-3.1,20-0.1,24.3,7.7c2.9,5.3,9.2,15.9,12.3,24.8c2.6-2.1,12.8-10.9,5.9-21.7c5.4-3.6-4.6-9.5-9.9-10.5
		c3.6-1.7,14.5-1.7,19.2-0.6c5,1.3,9.2,7.8,11.4,12.9c-4.4,17.8-11.6,40.1-9,47.4c0.2,0.5,25,40.1,27,40.8c0.2-0.4,6.8-28,27.1-32.7
		l-34.3,3.8c4.3-10.9,13.1-20.9,23.6-26.9l-10.9,0.3c-7.6-5-20.9-22.5-22.9-43.8c14.4,9,26.4,10.2,43.3,10.4
		c-6.3-2.6-13.2-11.8-13.2-11.8s31.1,3.7,31.6,3.7c1.8,0,33.1-4.1,35.2-4.6c1-0.3,12,6.9,12.7,6.6c1.7-0.6,28.9-7,30.8-7.6
		c2.1,5,12.5,2.2,18,2c8.7-0.3,14.1,7.4,16.9,15.7c-10.2-3.8-20.6,3.9-29.4,16.8c-16.7-9.5-36.8-7-39.9,14.5
		c18-5.4,32.9,9.6,42.2-0.7c5.8,17.9-17.1,25-28.4,30.1c0,0-2.9-9.9-2.9-9.9c-0.8,0.2-28.9,11.1-22.6,30.5c0,0.1,92.8-23.3,130.2-97
		c8.8,10.7,3.5,32.5,2.2,37.4c0,0.1,53.6-28.3,70.5-38.4c-0.4,2.9-23.7,84.7-4,116.7c-36.5,4.5-57.1,37.7-58.9,66.7
		c-28.2-9-57.8,5.1-64.2,18C318.6,259.7,294.6,249.4,278.7,248.1 M287,84.2l11.8,0.7c0,0,6.4-5.6,6.3-5.6
		c-1.6-3.4-13.8,0.8-13.8,0.8L287,84.2z M257.2,91.1c0,0,3.3-8.6,3.3-8.6s-6.1-1.4-6.2-1.4c0,0-9.8,2.4-22.6,3.2
		c-0.2,0.1,15.6,2.7,15.6,2.7C246.7,91.4,254.6,92.2,257.2,91.1 M389.4,290.4c-2-14.8-39.9-7.1-39.6,4.3
		C350.2,308.9,390.1,299.8,389.4,290.4"/>
	<path id="path888" class="st3" d="M454.4,70.8l-107,73.4l-20.5,2.1L454.4,70.8z M132,256.4c0.3,1.8-2,6.3-3.5,9.2
		c1.8-0.7,8.8-7.1,9-8.6c0.1-1.2-2.5-10-6.4-12.9c-16.8-12.8-28.3,14.7-28.3,14.7l-13.9-20.2l3.3,11.2c-6.3,9,3.6,21.5,3.8,21.6
		c-4.1-11.7,0.3-15.6,0.3-15.6c0.9,0.6,6.6,4,6.8,4.2C103.5,253.4,123.8,233.1,132,256.4 M152.5,267.1c0,0-20.5-1.1-24-1.6
		c0,0,6.8,3.6,6.8,3.6s-1.1,8.7-7.3,11.6c0.1,0,14.5-0.7,16.4-11.7C150.9,268.8,152.5,267.1,152.5,267.1 M97.7,222.3l-7-15.5
		c0,0-0.7,9.3-0.8,9.3c-10,2.2-8.1,12.4-6.3,15.2c0-1.2,3-8.5,7.6-10.5c0.2-0.1,4.6,6,4.6,6c0.2,0,11.3-3.5,18,3.9l2.2-0.1
		C103.8,215.3,97.7,222.3,97.7,222.3 M111.7,210.6c0,0,2,0.3,2,0.3c0,0,2-17-13.3-15.1C109.5,198,111.7,210.6,111.7,210.6
		 M168.3,319.7c0,0,0.1,0,0.2,0C168.4,319.7,168.4,319.6,168.3,319.7L168.3,319.7 M315.2,437.9c0,0-1.5-6.3-1.5-6.6
		c-54.3-1-37.7,48.5-37.7,48.5l-14.6-3.1l-9.3,3.4c0,0,4.1,4.7,4.1,4.6c2.4-7.6,14.1,0,13.3,1.1c-0.1,0.2-6.1-1-6.6-0.2
		c-5.3,7.6,0.2,19.3,0.4,19.4c5.5-22.5,16.4-22.1,16.9-21.9c-11.9-19.9,6.8-50.7,35-42.7c1.3-0.3,6.6,11.4,8.4,16.2
		c2.3-8.2,3.3-22.3-2-30.2C317.6,429,315.3,437.8,315.2,437.9 M230.5,460.8c-10.9,9.3-0.5,19.4-0.4,19.5c-3.3-7.6,3.6-12.8,3.9-12.9
		C234.4,462.2,230.5,460.8,230.5,460.8 M153.6,237.5l2-5.3c0,0-6.5-3.5-15.5,1.6l-0.9,10.2c11.5,1.2,37.1,27.7,42,33.1
		C175.3,269.3,153.6,237.5,153.6,237.5 M223.5,437l-2.2,4.5l-2.7-7.4c0,0-2.4,4.9-2.5,4.9c-6.6,1.3-7.7,10.4-6.3,17.1
		c2-8.1,7.4-11.7,7.4-11.7l7.3,4.9c5.3-9.9,20.2-10.5,24.7-8.3c0,0,3-3.2,3-3.2C252.2,437.8,237.8,429.4,223.5,437 M168.4,318.9
		L168.4,318.9c0,0,0.1,0,0.1,0L168.4,318.9z M259.8,169.6c47.9,7.9,56.2-22.1,56.2-22.1l68-38.4c1.1-4.1,6.7-26.7-2.2-37.4
		C380.4,74.9,365.1,130.7,259.8,169.6 M263.3,118.9c8.6,10.2,17.2,11.5,19,11.7c-0.4,0.7-2.6,8.7-5.2,17.5c0,0-2.8-9.9-2.9-9.8
		c-0.7,0.2-28.2,10.8-22.7,30.3c-1.8,0.7-11.8,0.6-11.8,0.6s-20.9,6.3-24,14.5c-1.7,4.6-4.9,20.2-4.9,20.2l-8.7,0.3
		c0,0,6.3-10,6.2-10c-15.8-2.5-38.2,4.4-38.2,4.4s-0.5,12.5,0.5,16.4c0,0,14.2-5.3,19-6c-6,3.2-20.3,11.3-20.3,11.3l-5.4-0.2
		c0,0-0.8-2.6-0.7-4.1c0,0,0.2-2.4,0.2-2.4l-13-24.2l-2,9.1L138,210.2c-5.4-20.4,12-28-6-59.1c0,0.2-13.6,11.3-17.8,15
		c-11.1,4.1-20.4,2.5-22.7-10c0.6,1.4,5.1,9.8,16.4,7.2c0,0-0.2-10.1-0.2-10.1l-2.6-2c0,0,3.1-0.3,5.9-1.3c0.1,0,6.6,0.1,6.6,0.1
		s6.4-4.7,4.6-15.2c-3.2-18.9-27.6-6.1-27.7-6.1c-0.3-0.1-3.4-6.7-8.8-2.3c-5.9,4.8-6.6,7.8-6.1,13.2c-8.2-15.4,6.7-22.7,6.7-22.7
		l-1.3-5.6c0,0,24.4,7.9,33.6,3.5c0,0-9.9-5.1-9.9-5.1s3.6-0.3,4.2-1C115.8,90.9,97,89,97,89l-0.3-7.9c0,0-9.4,1.8-12.6,10.9
		c-0.2-2.2,3.9-17.3,13.4-18.1c9-0.6,15,4.2,15.1,4.3c-5.1,0-12.7,0.1-12.7,0.1L120.5,95l7.2,16l2.4-7.1c0,0,13.5-9.8,6-21.7
		c5.5-3.9-5.5-9.8-9.9-10.5c23.2,0.7,22.5,9.1,22.4,9.2c0,0,6.6,2.5,6.6,2.5l-6.1,4.9c0,0-11.6,40.9-7.5,46.4c0,0,31.5,38.5,33,38.2
		c0,0-0.7,2.7-0.9,3.8c1.1-0.3,6.6-2.6,25.4-3.1l3.4,2.5l14.2-13.3c0,0-8.8-4.3-38.8,0.7c0.1-0.4,0.8-2,1.1-2.5
		c14.7-3.2,26.7-2.4,26.7-2.4l3.3,2.2l14.4-12.6c-14.8-5.8-34-0.5-35.5-0.3c3.2-3.3,7.2-6.5,13.6-8.2c14.9-1.5,27.9-2.2,28.5-2.1
		c9.7-23.8,27.3-35.9,31.5-38.2c-2.7,3.1-13.9,13.2-11.2,38.2c1,2.1,2.7-30.8,23.1-40.4c11.9-4.9,26.1,1.5,29.7,7.1
		C284.2,94.1,266.1,99.1,263.3,118.9 M212.5,177.3c-20-3.2-39.5,2.3-39.5,2.3c-0.1,0.7-2.2,10.1-2.6,16.2c7.3-3.7,25.6-4.8,25.6-4.8
		s3.7,2.3,3.7,2.3C199.7,193.3,212.4,177.4,212.5,177.3 M295.5,172.6c-2.1,1.7-7.9,3.1-7.9,3.1l3.6,11.2l100.4,67.2L295.5,172.6z
		 M327.3,272l-46.5-94.1c-7.3,1.5-12.2,1.9-18.8,0.6c0,0.9,0.9,14.1-1.1,22.9c-0.8,3.5-2.1,6.6-4.2,7.9l-28,5.4l-28.1,14v16.8
		l-39.8-17.2l21.7,28.9l16.9-5.3c-5.6,7.9-7.8,14-8,15c0.4,0.4,2,1.6,2.2,1.8c0.1-1.4,4.6-11,10.3-19.4l12.7-9.8l8.9,14.6
		c3.1-3.6,5.3-5.8,5.4-5.8v0c0,0,0,0.1,0.1,0.3l4.5,8l5.5,9.8c2-3.2,5.5-5.5,5.7-5.6l11,14.5l32.1-8.7l25.6,6.6
		c-5.3-10.2-36.1-24.7-36.7-25c-2.1-1.1-18.1,0.3-21.7,0.7c2-3.9,23-59.9,23-59.9S327.7,273.1,327.3,272 M300,170.4l2.3,1.3
		c9.8,1.3,19.9-9.4,19.9-9.4l128.2,25.2l-130.4-36.7C318.9,156.6,310.3,165.9,300,170.4 M180.2,117c1.4-0.7,55.4-23.6,77.5-21.2
		c-25.5-5.7-45.4-4.3-52-2c-31,30.2-45.4-11.6-48.4-20.6C159,94.1,172.5,111.9,180.2,117 M266.7,77.6L266.7,77.6L266.7,77.6
		L266.7,77.6 M117.7,183.5l-13.7,2.8c0,0-2.9-7.8-18.6,3.5l14.6-0.7c0-0.1-4.5,7.7-4.4,7.7c1.2-1.6,23.6-12.5,23.6-12.5L117.7,183.5
		z M208.5,277.5l2.3,1c3.6-10,10.2-19.1,14.8-24.5l-3.3,1C211.1,267.6,208.7,276.9,208.5,277.5 M167.5,143.4l94.4-46.7
		c0,0-40.4,11.6-42.7,11.6C178.2,111.4,167.5,143.4,167.5,143.4 M302.5,72.7c0,0-3.7-0.2-4.8-2.8c0,0-17.7,10-24.1,14.1
		c0,0,1.3,0.2,1.4,0.3C283,81.2,302.5,72.7,302.5,72.7 M295.9,113.7c8.6,2.2,25.5,2,33.8-4.2c0.7,1.1-0.2,2.8,0.5,6.6
		c5.7-3.9,26.4-19.8,27-27.5C354.1,92.7,322.1,116.3,295.9,113.7 M263.3,444.6c-7.1,1.1-25,5.5-27.8,12.8l4.3,6.4c0,0,0.7,8,0.7,8.3
		c0,0,10.7-19.9,23.3-21.6C263.7,449.4,263.4,444.6,263.3,444.6 M300.8,403.5c3.7-0.5,18.3-0.4,33.2-7.2c0,0-58.7-5.7-79.5-22.1
		c-6.1-13.5,2.9-97.3,2.9-97.3c0,0.2-11,13.2-10.9,13.2c-7.7-1.6-13.2-3.2-16.8-4.4c1.4-2.7,6.9-13,11.4-19.4l-2.7,0.3
		c-0.9,1.3-8,11.8-11,18.4c-1.8-0.7-2.5-1-2.5-1l6.6,12.7l-53.9,21l28,7.4l3.1,7.4l-31.9,12.7l1.3-4.1c0,0-19.7-16.1-19.7-16.1
		l-14.2,1.8l-10.4,9c-0.3-0.9-6.5-6.4-6.6-6.6c-8.7,2.6-9.4,8.8-8.5,13.7c1.3-5.8,7.3-8.3,10.9-8c1.6,0.1,4.6,4.3,4.8,4.6
		c14.5-10.7,25.5,3.7,25.1,4.3l-20.3,5.8c0,0-4.9,6.9-4.9,7.9c0,0.9-6.1-4.1-6.2-4.2c-2.6,3,0.7,14.6,5.4,18.7
		c-2-7.7,1.1-10.3,1.1-10.3c0.4,0,7.6,1.4,7.6,1.4c10.4-18,23-5.3,23-5.3l-13.8,24.9l-4.6-3.1c-3.1,5,1.2,18.2,11.2,19.7
		c-4.6-2.4-7.5-6.5-4.2-12.1c0.1-0.1,10.3,1.3,10.3,1.3s3.1-22,11.2-22.1c16.3-0.1,18.8,20.1,18.8,20.1l9-3.7c0,0,5.8,7.4,1.8,19.2
		c8.9-6.7,10.1-17.3,9.1-28.8c-0.1,0-5-0.5-5-0.5c-1.7-1.7-14.3-16.7-14.3-16.8l19.6-6.3c0.9,2.5,2.8,9,9.9,14.7
		c0.8-2,6.8-38.3,22.3-41.7c-9.3,23.9-13.9,63.4-13.9,63.4c0.2,2.6,15.9,22.5,15.9,22.5c1.6-0.7,12-3.7,23.6-4
		c0.1,2.7-11.6,21.1-11.6,21.1l13.2,9.3c0,0,33.3-9.6,49.2-19.5c-8.6,3.9-37,9-37,9S299.4,405.9,300.8,403.5 M176.9,345.3
		L176.9,345.3L176.9,345.3L176.9,345.3z M334,396.3C334,396.3,334.1,396.3,334,396.3C334.1,396.3,334,396.3,334,396.3 M264.8,79.6
		l-7.1-2.4l-40.4,2.4c-1.5-0.2-29.9-7.9-29.9-7.9s7.1,9.5,13.2,11.8c1.9,0.1,30.8,0.8,31.2,0.7c11.9-0.7,22.5-3.1,22.5-3.1
		c0.1,0,6.2,1.3,6.2,1.3l-3.3,8.6L264.8,79.6z M449.7,204.1c0,0,2.3,28.4-9.4,57c-0.2,0.4,0.7-4.5-6.5-15.5
		c4.7-5.2,8.7-10.3,11-17.3c2-5.9,3.7-13.2,4.2-20.8c-5.1,38.8-27,33.8-44.6,66.1c1.7,1.9,3.4,4.3,4.4,6c3.1-12.8,14-22.9,22.5-31.1
		c1.6,2.4,7.4,8.3,8.1,19.2C453.9,231.6,449.7,204.1,449.7,204.1 M423.4,243.9l3.6-2.1c0,0-4.5,1-20.2-1
		C413.3,243.4,423.1,243.7,423.4,243.9 M411.9,285.3c8.6,26.8-4.9,47.2-36.2,56.4c-20.3,5.9-53.1,4-66-16.4c0-0.1-1-9.3,2.7-32.3
		c-3.3,7.1-12.3,28.9-14.7,53.1c17,22.4,57.7,19.4,74.2,13.2C419.6,341.6,420.3,301.7,411.9,285.3 M364,275.6
		c-12.7,2.6-25.7,15.6-11.8,23.8c-12.3-12.4,26.9-23.7,35.5-12.9c0.2,0.3,4.8,5.2-2.5,9.5c2.9,5.6-0.8,11.3-1.3,11.4
		c0,0-26.2,14.6-49-0.3c12.6,15.7,46.7,12.1,57.7-2.3c0,0,6.6-12.7-0.7-23.4C388.1,275.9,378.8,272.6,364,275.6 M290.5,78.7
		l-3.5,5.6c0,0,4.5-4,4.5-4.1c11.3-2.6,13.9-0.5,13.6-0.9C305.1,79.3,309.3,72.9,290.5,78.7"/>
</g>
</svg>
