<?xml version="1.0" encoding="utf-8"?>
<!-- Generator: Adobe Illustrator 26.0.2, SVG Export Plug-In . SVG Version: 6.00 Build 0)  -->
<svg version="1.1" id="svg2" xmlns:svg="http://www.w3.org/2000/svg"
	 xmlns="http://www.w3.org/2000/svg" xmlns:xlink="http://www.w3.org/1999/xlink" x="0px" y="0px" width="158.4px" height="186.3px"
	 viewBox="0 0 158.4 186.3" style="enable-background:new 0 0 158.4 186.3;" xml:space="preserve">
<style type="text/css">
	.st0{fill-rule:evenodd;clip-rule:evenodd;fill:#DC143C;}
	.st1{fill-rule:evenodd;clip-rule:evenodd;fill:#F6D155;}
	.st2{fill-rule:evenodd;clip-rule:evenodd;fill:#FFFFFF;}
	.st3{fill-rule:evenodd;clip-rule:evenodd;fill:#DFDDE2;}
	.st4{fill-rule:evenodd;clip-rule:evenodd;fill:#F1EEF0;}
	.st5{fill-rule:evenodd;clip-rule:evenodd;fill:#E8E6EB;}
	.st6{fill-rule:evenodd;clip-rule:evenodd;fill:#C3BDC9;}
	.st7{fill-rule:evenodd;clip-rule:evenodd;fill:#CECAD5;}
	.st8{fill-rule:evenodd;clip-rule:evenodd;fill:#C5BDCB;}
	.st9{fill-rule:evenodd;clip-rule:evenodd;fill:#C3BDCA;}
	.st10{fill-rule:evenodd;clip-rule:evenodd;fill:#E0DEE2;}
	.st11{fill-rule:evenodd;clip-rule:evenodd;fill:#DFDDE1;}
	.st12{fill-rule:evenodd;clip-rule:evenodd;fill:#C4BEC9;}
	.st13{fill-rule:evenodd;clip-rule:evenodd;fill:#C3BECA;}
	.st14{fill-rule:evenodd;clip-rule:evenodd;fill:#C4C0CD;}
	.st15{fill-rule:evenodd;clip-rule:evenodd;fill:#E1DFE3;}
	.st16{fill-rule:evenodd;clip-rule:evenodd;fill:#E0DEE3;}
	.st17{fill-rule:evenodd;clip-rule:evenodd;fill:#C4BECB;}
	.st18{fill-rule:evenodd;clip-rule:evenodd;fill:#C3BEC9;}
	.st19{fill-rule:evenodd;clip-rule:evenodd;fill:#C4BECA;}
	.st20{fill-rule:evenodd;clip-rule:evenodd;fill:#B6B1BF;}
	.st21{fill-rule:evenodd;clip-rule:evenodd;fill:#AAA3B5;}
	.st22{fill-rule:evenodd;clip-rule:evenodd;fill:#DFDCE1;}
	.st23{fill-rule:evenodd;clip-rule:evenodd;fill:#DFA12F;}
	.st24{fill-rule:evenodd;clip-rule:evenodd;fill:#DEA12F;}
	.st25{fill-rule:evenodd;clip-rule:evenodd;fill:#C1C0C8;}
	.st26{fill-rule:evenodd;clip-rule:evenodd;fill:#DFDDE3;}
	.st27{fill-rule:evenodd;clip-rule:evenodd;fill:#E0DEE4;}
	.st28{fill-rule:evenodd;clip-rule:evenodd;fill:#E1A02F;}
</style>
<g id="g2379" transform="matrix(1.4296834,0,0,1.4296834,-429.3638,-145.55111)">
	<path id="path2161" class="st0" d="M300.3,101.8l1.5,103.9c0,0,0.1,9.4,9.6,15.6c2.6,1.7,6.9,3.1,13.3,3c2,0,13.3-0.1,19,0.1
		c4.2,0.1,11.1,3,11.6,7.8h1c0.4-5.6,7.3-7.7,11.6-7.8c5.7-0.2,17-0.1,19-0.1c6.5,0.1,10.7-1.3,13.3-3c9.5-6.2,9.6-15.6,9.6-15.6
		l1.5-103.9H300.3L300.3,101.8z"/>
</g>
<path id="path3360" class="st1" d="M66.2,9.8c2.6,4.5,3.6,8.8,5,12.8c2.4-0.3,5.1,0.3,7.7,0.5c3.1,0.6,5.5,0.9,7.7,0.5
	c1.4-6.4,2.6-9.6,5.4-14.1c-1.2,0.8-3.9,1.2-4.9,2.7c-1.5-1.4-2.8-0.5-3.5,0.9c0.3-1.2-0.1-2.1-1.6-2.2c0.9-1.7-0.5-2.5-1.9-1.8
	c0-1.5-1.2-1.5-1.3-2.3c-0.2,0.9-1.2,0.5-1.1,2.6c-1.2-0.9-2.3-0.3-1.9,1.3c-1.4,0-1.8,1.2-1.7,2.6c-1-2.3-2.8-1.6-3.4-0.8
	C69.6,10.5,68.8,11.9,66.2,9.8L66.2,9.8z"/>
<path id="path3358" class="st2" d="M89,21.3c-1.6,2.8-2.3,3-9.6,1.9c-5.7-0.6-10.8-2.2-11.1,3c1.9,0.2,4.6,0.4,5.8,4.5l-3.5,3
	c-2.5,0.4-6.4,3.7-8.9,0.6c-0.7,2.9,1.9,3.7,4.7,3.6c1.9-0.2,2.6-0.7,6.2-1.4l1,1c5.5,0.5,8.3,8.3-0.6,12.8
	c-0.3,1.1,0.2,2.3,1.1,2.5c-2.6,3.6-6.8,8.2-8.3,5.2c-0.4,0.3-1.3,2.8,0.6,4.2c-1.5,1.8-2,3.9-2,6.4c-5.8-0.9-9.7-1.9-8.4-7.4
	c6.2,0.3,7.9-7.2,7-11C59.4,35,39.8,22.8,25.5,22.4c0.8,4.1,3.3,7.1,6.2,9.9c-3.8-1.8-8.2-3.6-12.8-2.7c0.5,3.3,2.3,7,9.7,13.2
	c-5.4-3.2-10.3-6.3-12.1-8.8c-0.8,1-1.2,5.3,3.4,8.4c-1.5-0.6-8.6-0.5-10.8,1.1c1.3,3,7.3,8.2,12.2,9.8c-4.7-0.7-9-2.6-13.1-6
	c-0.6,0.5,0,6.1,5,8.3c-1.6,0.1-7.1,1.7-8.5,3.4c2.9,3.8,10.2,7.2,13.9,7.2c-5,0.6-10.4-0.4-12.7-1.1c0.1,1.3-1,6.4,12.6,5.5
	C13.8,73,6.5,77.8,5.3,82c4.7,2.1,13.2,0.4,17.6-1c-12.9,7.9-15,8.7-17.4,8.2c3.1,6.6,10.7,2.1,17.2-1.6c-8,10.7-9.3,16.2-9.2,23.8
	c6.5-0.8,15.8-10,20.8-17.9c-5.8,11.9-9.2,21.4-15.5,24.2c7.2,2.8,13.3-6.2,17.6-15.7c-1.7,6-2.3,18.8-0.2,22
	c6.5-4.4,11.4-14.1,14.7-25.3c-1.1,5.5-2,11-4,16.5c4.2,0.8,6.3-6.7,7.7-11.1c0.1,0.2,0.3,0.4,0.7,0.8c5.3-3.8,6.9-12.7,7.3-16.2
	c4.8,1.4,6.9-0.4,8.1-1.3c1.1,1.5,1.1,3.7,1.4,4c-5.2-4.2-10.8,0-11.1,7.1c-0.6,2.9-2.1,6.4-6.1,9c0.2,0.3,0.8,0.5,1.5,0.4
	c-0.7,1.2-1.3,2.2-2.5,3.3c0.3,0.2,0.7,0.2,1,0.3c-0.9,1.5-2.3,2.8-3.8,3.5c0.4,0.3,0.6,0.4,1.6,0.7c-1,1.3-2.6,2.5-4.1,3.1
	c2.9,1.7,5,1.9,6.8,1.8c0,0,0,0,0,0c-1.1,2.2-3,3.4-4.7,4.4c0.6,0.5,1.2,0.6,1.8,0.5c-1.6,1.7-3.3,3-4.9,3.5
	c0.3,0.2,0.5,0.5,1.5,0.4c-1.1,1.4-2.4,2.7-4.8,3.3c0.5,0.9,1.4,0.8,2.3,0.8c-0.6,1.4-2.7,1.9-4.7,2.3c1.5,0.4,2.6,1.3,1.7,1
	c-0.6,0.7-1.2,1.1-2.6,1.3c-1.4,0.2-6.3-1.6-8.2-0.9c-0.6-1.1-1.9-1.9-3.3-1.9c-1.8,0-3.6,1.2-3.7,2.8c-0.3-0.2-1.5-0.4-1.3,1.1
	c0.4,0.8,0.5,1.5,3.1,2.5c0.4,0.2,0.9,0.3,1.6,0.3c0.9,0,2-0.5,2.8-1.2l0,0c1.3,0.2,2.7,0.5,3.5,0.8c-2.1,0.2-2.8,1.3-4,2.1
	c-0.5,0-0.9-0.1-1.4-0.2l0,0c-0.3-0.1-0.5-0.1-0.8-0.1c-1.5,0.1-3,1.7-3.1,3.6c0,0.4,0.1,0.7,0.2,1.1l0,0.3c-0.4,0.5-0.3,1,0.2,1.3
	c1.8,0.7,2.9,0.3,3.5,0.1c1.6-0.2,3-1.5,3-3c0,0,0,0,0,0l0,0c1.9-0.4,3.8-0.9,4.9-1.7c0.1,0.1,0.1,0.2,0.1,0.4c-0.7,0.4-1.8,1-2.4,3
	c-0.2,0-0.3,0-0.5,0c-2.2,0-2.8,1.5-2.7,2.8c0,1.2,0.5,2,1.1,2.5c-0.1,0.8,0,1.4,0.7,1.6c2.6,0.4,3.3-1,3.8-0.9c0-0.3,0-0.6,0.1-0.8
	c0.8-0.4,1.4-0.7,1.4-2.2c0.1-0.9-0.1-1.5-0.4-1.9l0.1,0c0,0,0,0,0,0c0,0,0,0,0,0l0,0l0,0c2.4-2.1,4-3.7,5-5.1c0.9,0.2,3,0.2,4-0.2
	l0,0.4c-1,0.9-0.3,3.1,1,3.1c-0.1,0.2,0,0.4,0,0.6c0.8,0.5,2.4,0.2,3.5,0.4c0.6-0.1,0.9-0.5,0.7-1.3l0,0c0.9-0.6,1.6-1.6,1.4-2.8
	c0-1.8-1.4-3.2-3.1-3.3l0,0c-1.8-0.2-3.5,1.1-3.2-1.7c4.9-5.9,11.7-14.7,13.5-15.8c-0.1-0.2-0.2-0.4-0.3-0.7c0.7,1.9,3.5,4,6.4,3.8
	c-0.5-1-1.1-1.9-1.3-4.6c0.4,0.6,1.2,0.9,2.1,1.1c-1.4-6.2,0.7-11.4,4.9-16.1c-0.3,6-1.1,12.1-4.8,18.3c1.9,0.6,4.3-1.3,4.7-2.5
	c0.4,5.4-4.7,12.4-8.8,9.1c-2.5,5.6,3.5,8.3,7.2,5c-0.6,3.4-3.3,5.3-6.1,6.1c-2.9,0.8-5.8-0.4-3.9-5c-0.4-0.2-6.2-0.4-6.3,5.9
	c0.2,3.6,2.6,5,2.8,5c-8.2,6.2,0.1,13.1,6.8,11.8c5.4-0.8,8.4-5.2,10.3-8.3c-0.6,2.3-3,9.5,3.2,17.4c6.1-9.6,3.5-16,3.4-17
	c4.8,7.4,9.6,7.9,12.4,7.8c4.8,0.1,11.6-7.5,2.9-12.3c4.4-2.1,4.7-10.8-1.5-11.3c1.3,3.5-1.4,5.5-4.4,5.3c-3-0.3-5.7-2-6.8-5.9
	c5.9,2.8,8.6-2.7,6.6-5.7c-5,4.1-7.4-2.5-8.1-6.5c1.3,1,2.4,1.3,4.5,1c-4.1-5.2-5-12.3-5.4-18.9c2.8,4.4,5.5,9.8,5.4,15.1
	c0.6-0.3,1.2-0.4,2.4-2.7c0.1,4-0.3,4.5-1.7,6.1c2.2,0.9,5.1-0.9,6.4-3.2c0,0,0,0,0,0c4.3,5.7,8.9,11.6,13.3,16.2c1,1,1.3,2-0.5,2.4
	c-5.7-2.1-6.3,3.9-4,4.7c-0.2,0.5-0.2,1.1-0.1,1.7c1.1,0.3,3.4-0.6,4.1-0.6c0.3-0.3,0.3-0.8,0.3-1.4c0.6,0,1-0.3,1.2-0.8
	c1.1,0.2,2.2,0.4,3.6-0.8l4.2,4.3c0.2,0.1-0.2,0.6,0.4,0.6c-0.5,2.8,0.6,3.2,1.5,3.9c-0.2,2.7,3.9,1.1,4.3,1.3
	c0.4-0.3,0.5-0.5,0.4-0.8c0.5-0.5,0.3-0.7,0.1-1.1c2-3.1-0.9-5.5-2.4-5.2c-1.7-1.9-2.9-2.6-4.3-3.7c2.8,1.1,7.1,2.2,8.3,3.2
	c0.5,3.2,3.2,1.9,5.3,2c0.6-0.9,0.3-1.2,0-1.5c2.7-3.5-3-6.3-5.4-4.3c-1.4-1.3-2.7-1.6-4-2.1c0.5-0.5,1.7-1,4.2-1.1
	c1.2,0.8,2.3,1,3.5,0.2c0.5,1.1,1.5,0.8,1.8,0.6c0.8-1,0.9-2.4,1.1-3.8c-0.2-0.5-0.6-0.8-1.2-0.8c-1.7-3-5.1-1.2-5.3,0.2
	c-2.9,0.2-5.5,0.6-8.6,1.8c-1,0.3-2-0.8-2.8-1.4c0.8-0.3,1.5-0.7,1.4-1.3c-1.2-0.1-2.5,0-3.9-1.5l0.4-1c-1.1-0.3-2.3-1.1-3.8-3.4
	c0.3-0.2,0.6-0.5,0.8-1c-1.7-0.4-3-1.3-4.1-2.5c0.4-0.2,0.8-0.5,1.1-1.1c-1.5-0.9-3-1.7-6-5.6c0,0,0,0,0-0.1
	c3.1,0.5,6.4,0.2,8.3-1.2c-1.5-0.4-4.2-1.3-5.4-3.7c0.6-0.1,0.9-0.2,1.3-0.3c-2.3-1.5-3-2.4-3.6-3.6c0.5,0.1,1.2-0.2,1.4-0.5
	c-1.5-0.7-2.2-1.6-2.7-2.6c0.6,0,1.3,0.1,1.8-0.3c-6-2.7-5.1-16.6-11.5-16.7c-2.8,0.2-3.4,0.8-4.8,1.6c0.4-1.2,1.2-2.3,1.9-3.4
	c3.5,1.6,6.3,0.7,7.2-0.1c0.5,5.6,2.3,11.6,6.2,14.6c0.7-0.4,1.5-0.9,2-1.4c0.7,5.2,2.6,12,7,11.5c-2-5-2-10-2.2-15
	c1.8,14.7,6.3,23.3,10.1,25.8c1.7-2.3,3-13,2.2-19.4c3.7,6.6,7.7,12.8,11.1,12.7c1.5,0,3.3-1.3,4.3-1.6c-5.3-2.2-9-12-12.3-18.1
	c6.2,9.6,13.5,14,16.9,14.6c0.1-3,0.8-11.3-6.9-22.9c13.7,7.3,16.6,2.6,17.4,0.1c-6.2,2.2-14.5-5.8-20.1-8.3l-0.1-0.2
	c8.2,3.7,16.2,5,21.2,1.9c-4.3-6.6-8.4-9-12.9-10.7c8.9,1,11.8-2,12-5.3c-3.2,1.1-6.2,1.3-10.1,0.6c8.5-1.7,10-5.3,9.9-5.7
	c-2.2-1.7-6.3-3.6-10-3.9c10.2-3.7,7-7.1,6.6-8.2c-3.2,3-8.7,5.1-9.7,5c4.8-2.5,8.9-9,8.7-9.7c-2.4-1.2-7.3-1.2-9.3-0.6
	c2-2.2,4.6-5.9,2.2-9c-2.3,3.3-4.5,5-6.7,6.7c2-2.5,4.3-5.4,5.1-11.4c-3,0.4-5.7,0.1-9.6,2.7c2.2-2.8,3.6-5.5,3.9-8.8
	c-13.4,0.9-29,7.9-36.5,25.4c-2.2,5.1-0.5,13.9,6.4,12.9c1.1,4.4-1.8,7.1-8.2,6.9c-0.1-1.5,0.3-4.4-1.5-5.9c1.5-0.1,1.8-0.9,2.2-1.6
	c-4.1-1-3.5-2.3-2.7-9.7c0.5,0.2,1.2,0.1,1.6-0.3c-1.7-1.6-1.1-4.5-0.3-13.7c0.2-4-0.7-6-1.5-6.7c0.5-0.3,0.9-0.7,0.6-1.7
	c1.9-0.3,1.1-2.7,0.3-3.4c-0.4,1-2,1.4-3.6,0.3C90.4,24.9,90.4,22.8,89,21.3L89,21.3z M96.7,120.1c0.1,0.1,0.1,0.2,0.2,0.2
	C96.8,120.2,96.8,120.1,96.7,120.1C96.7,120.1,96.7,120.1,96.7,120.1L96.7,120.1z M57.6,120.3c-0.2,0.7,0.1,2.6,0.2,3.8
	c0.6,0.3,1.8,0,3-0.5c-0.1,0-0.1,0.1-0.2,0.1c-1,0.4-2.1,0.7-2.8,0.4l-0.2-2.8C57.5,121.1,57.5,120.7,57.6,120.3
	C57.6,120.3,57.6,120.3,57.6,120.3L57.6,120.3z M57.1,120.5c-0.1,0-0.2,0.1-0.3,0.1C56.9,120.5,57,120.5,57.1,120.5z M97.5,120.8
	c1.4,1,3.2,1.1,3.8,0.9c0-0.1,0.1-0.2,0.1-0.2c0,0.1-0.1,0.2-0.1,0.3C100,122,98.7,121.7,97.5,120.8L97.5,120.8z M48.8,144.4
	L48.8,144.4L48.8,144.4L48.8,144.4L48.8,144.4z M85,146c1.3,1.4,6.5,5.2,12.4,3.4c0.5,3.4-2.4,4.6-4.6,4.2
	C90.6,153,87.3,151.3,85,146L85,146z M73.2,146.8c-1.9,3.7-5.1,6.8-8,7.5s-5.5-0.7-4.5-4.4C66.9,152,71.9,148.4,73.2,146.8
	L73.2,146.8z"/>
<path id="path3362" class="st3" d="M44.9,78.8c-2.1-2.5-1.8-4-1.7-4.9c-2.3-1.7-1.7-2.4-2.1-3.1c0.8,1.4,1.6,2.3,2.4,2.5
	c1.5,1.4,3,1.9,4.5,2.8c-9.3-5.1-6.7-11.3-6.6-13c-1.4,0.1-2.5-0.3-3.3-0.8c0.3-2.5,1.6-4.5,4.4-5.9c-0.4,0.1-0.7,0.3-1.1,0.4
	c-0.3-0.1-1.1-2.1-0.1-3.5c0.6-0.4,2.1-0.5,3.7,0.1c0.9-1.9,2.1-3.6,4.7-4.2c0.6,0.6,1.7,2.6,0.9,5.9c1,0.4,2,0.9,2.9,2.1
	c-0.3,1.1-0.5,1.4-0.8,1.6c4,0,4.4-5.6-0.1-6.2c0.7-5.3-6.1-8.5-9.1-1.9c-5.5-1.5-7,2.8-4.9,6.1c-0.7,0.5-6.1,4.5-0.9,10.2
	c0,2.8,0.7,5.6,4.5,8C43.4,78.1,44.1,78.1,44.9,78.8L44.9,78.8z"/>
<path id="path3364" class="st3" d="M112.9,49l0.7-1.4c4.9-0.8,7.9,2.5,6,6.4c4,3.4,1.8,7.8-0.6,8.7c2.9-2.1,1.3-2.8,0.8-2.7
	c0.2-0.1,0.4-0.2,0.6-0.4c-0.2-1.9-0.9-3.6-3.8-5.7c1.4-1.6,1.3-3.1,1.1-4.1c-1.6-0.4-3-0.3-4.2,0.4L112.9,49L112.9,49z"/>
<path id="path3366" class="st3" d="M106.1,58.6c0.2-0.8,0.4-2,1.8-3.2c-0.4,0.3-0.9,0.7-1.5,1.2c-1.8-0.7-2.9-2.4-3.2-3.4
	c1.1-1.4,3.7-1.2,4.1-1.1c-0.8-2.9,0.2-5,0.9-5.8c2.4,0.2,3.6,1.4,4.6,2.5l0.7-1.3c-0.6-2-2.6-3.5-5-3c-2,0.2-4.2,1.9-3.3,5.9
	C99.4,52.7,101.9,58.3,106.1,58.6L106.1,58.6z"/>
<path id="path3368" class="st4" d="M93.3,68.6c-0.2,2.2-0.6,3.7-1.1,5.2c8-1.2,19.8-3.3,18.2-12c-1.5,1.1-2.9,1.3-4.4,1.3
	c-0.3-1.2-0.4-2.6,0.1-4.3c-1.3,1.8-2.9,2.5-4.5,2.9c7.2,3.2-3.1,8.9-7.4,7H93.3L93.3,68.6z"/>
<path id="path3370" class="st5" d="M64.4,71.9c0.2,2.5,1,5.5,1.8,8.3C65.7,79.4,64.2,74.6,64.4,71.9z"/>
<path id="path3372" class="st6" d="M88.2,70.1c-1.9,7.7,6.6,6.9,0.6-0.9c5.8,3.6,2,8.9,1.7,10.1C89.6,75.2,86,74.1,88.2,70.1z"/>
<path id="path3374" class="st2" d="M49.7,49.2l-2.9,8.5c-0.7-0.3-1.4-0.6-2.3-1.7C44.6,53,47.2,49.4,49.7,49.2z"/>
<path id="path3376" class="st6" d="M52,65.7l-5.2-8c0.8,0,1.8,0,2.9-0.3C51.2,58.8,52.9,62.6,52,65.7z"/>
<path id="path3378" class="st2" d="M50.5,55c1.6,0.4,2.7,1.5,2.8,2.1l-3.7,0.3C50.1,56.7,50.3,55.8,50.5,55z"/>
<path id="path3380" class="st2" d="M41.5,56.6c-0.7-1-0.7-3,0-3.4l3.1,2.8C43.7,56.2,42.2,56.3,41.5,56.6z"/>
<path id="path3382" class="st2" d="M38.2,62.1l8.6-4.4c0.2-0.1-1.2-1.4-2.3-1.7C42.2,55.7,38.4,58.6,38.2,62.1z"/>
<path id="path3384" class="st3" d="M45.3,62.1c-4.4,12.7,14.6,14.6,19.7,15L64.4,74c-9.2-0.4-17.8-2.4-16.5-9.4
	C46.2,63.6,45.9,63.1,45.3,62.1L45.3,62.1z"/>
<path id="path3386" class="st6" d="M45.4,62.1c-1,0.5-2.5,0.7-3.9,0.9c-3.7,15.4,20.1,16.6,24.7,17.1c-0.7-1.4-0.9-2.2-1.1-3.1
	C53,76.3,41.8,71.8,45.4,62.1z"/>
<path id="path3388" class="st6" d="M108.3,46.3c1.3,2.8,2.8,6,3.8,9.1c0.6-0.8,1.1-1.7,2.3-2.7C113.7,49.9,112.3,46.8,108.3,46.3z"
	/>
<path id="path3390" class="st2" d="M108.3,46.3c1.3,2.8,2.9,6.2,3.8,9.1l-3.2-0.5C106.9,52.8,106.5,48.7,108.3,46.3z"/>
<path id="path3392" class="st6" d="M103.3,53.2c0.8-1,2.6-1.3,4.1-1c0.3,0.8,0.9,1.9,1.4,2.8L103.3,53.2z"/>
<path id="path3395" class="st6" d="M117.7,49.8l-3.3,3l2.2,1.1C118.3,52.4,117.8,49.8,117.7,49.8L117.7,49.8z"/>
<path id="path3397" class="st6" d="M114.4,52.7c-0.5,0.1-2.4,2.7-2.3,2.6l8.3,4.2C120.4,58.2,119.1,54.6,114.4,52.7L114.4,52.7z"/>
<path id="path3399" class="st6" d="M112.1,55.3l-6,7.7c3.8-0.2,5.3-1.9,6.7-4L112.1,55.3z"/>
<path id="path3401" class="st2" d="M117.7,49.8c-1.3-0.4-3-0.3-4.1,0.4c0.4,0.8,0.7,1.8,0.8,2.6L117.7,49.8z"/>
<path id="path3403" class="st2" d="M112.1,55.4l8.3,4.2c-1.5,1.3-6.3,0.1-7.6-0.5L112.1,55.4L112.1,55.4z"/>
<path id="path3405" class="st2" d="M112.1,55.4l-3.3-0.5c-3.6,1.5-3,7.7-2.7,8.1L112.1,55.4z"/>
<path id="path3407" class="st2" d="M108.8,54.9l-5.5-1.8c0.3,1.3,1.9,2.8,3.1,3.3C106.7,56.2,107.9,55.1,108.8,54.9L108.8,54.9z"/>
<path id="path3409" class="st3" d="M112.9,59.1c-1,1.5-1.3,1.9-2.4,2.6c1.9,8.9-10.8,11.1-18.2,12.2c-0.1,1.2-0.5,2.3-0.8,3.2
	C92.7,77,119,76.5,112.9,59.1L112.9,59.1z"/>
<path id="path3411" class="st6" d="M113,59.2c3.5,12.9-8,16.6-21.6,17.9c-0.3,0.8-0.6,1.7-1,2.6c18.5-1.3,28.1-7.3,25.6-19.7
	C114.9,59.8,113.9,59.5,113,59.2z"/>
<path id="path3413" class="st1" d="M26.8,149.9c1.5,0.7,3.3,0.2,4.3-0.1c0.5,0.5-0.2,2.5,1.4,4C31.6,154.1,26.7,152.6,26.8,149.9
	L26.8,149.9z"/>
<path id="path3415" class="st1" d="M24.7,139.2c0.6,2,2.4,2.2,3.1,2.6c0,0.7-1.9,0.7-2,3.4C24.5,145.1,22.6,142,24.7,139.2z"/>
<path id="path3417" class="st1" d="M34.6,155.5c2.4,0.4,3.3-0.9,3.8-1c0.3,0.8,1.4,1.8,2.4,2.3C40.3,158.6,34.5,158.2,34.6,155.5
	L34.6,155.5z"/>
<path id="path3419" class="st1" d="M53.1,148.9c-0.1-0.3-2.9,0-3.4-0.4c-0.3,0.4-0.4,1.8-1.5,2.4C48.9,152.1,53.5,151.7,53.1,148.9z
	"/>
<path id="path3422" class="st3" d="M58.4,124.3c0.4-0.1,0.8-0.1,1.1-0.2c-1.6,2-4.3,5.4-7,8.2c-2.7,2.9-5.2,5.7-4.3,8.3
	c-1.9-1.9-0.2-3.7,2.3-6.7C53.3,130.6,56.5,126.9,58.4,124.3L58.4,124.3z M55,145.1c0,1.3-1.1,2.6-3.8,2.4c3-3.3-3.1-3.5-1.6-4.9
	C53.6,140.2,55.3,144.1,55,145.1z M52.1,148.1c0.9,0.2,1.4-0.9,1.6-0.4C54.1,148.8,52.1,149,52.1,148.1z M31.7,136.6
	c-0.6,0-0.4,2.5-4.1,2.4c-0.1,0-0.4,0-0.6,0.3c-0.4,0.8,1,2.5,2.4,2.4c1.2-0.1,2.2-0.8,2.8-1.6c0.3-0.2,2.2-1.2,2.1-0.8
	c-2.3,1.1-1.7,1.8,1.9,2.1c2.3-0.3,4.2-2.3,5-2.7c-2.3,0.4-7.3-1.1-8.4-1.2C32.6,137.1,32.2,136.8,31.7,136.6
	C31.7,136.6,31.7,136.6,31.7,136.6L31.7,136.6z M27.6,149.3c-0.1,0.2-0.2,0.4-0.3,0.5c0.6,0.4,2.4,0.3,2.6,0.2
	C29.6,149.9,28.2,149.8,27.6,149.3z M44.6,139c-3.1,1.5-5.2,7-12.9,6.2c-0.2,0.7-0.6,0.8-1,1c-1.6,0-3.4,0.4-3.4,1.4
	c0,1.2,1.9,2,3.1,1.8c1.3-0.2,2.6-1.4,2.6-2.6l0,0c0-0.1,0.1-0.2,0.2-0.2C41.7,144.8,43,140.5,44.6,139L44.6,139z M45.9,139.1
	c-0.3,2.1-7,8.2-7.3,10.2c-0.4-0.3-0.9-0.5-1.9-0.4c0.6,3.1-2,4-2.6,3.5c0,1.4,2,2,3.3,1.7c1.5-0.3,2.8-2.7,1.9-4.1
	c0.2-2.5,3.6-3.3,5-6.6c1.2,0,1.4-1.9,3-2.3C46.9,140.2,45.6,141.5,45.9,139.1L45.9,139.1z M26.2,139.1c0.2,1.2,0.7,1.7,1.7,2.5
	c-0.7-0.3-1.4-0.5-2.2-1.2C26.3,140.7,25.7,138.9,26.2,139.1z M42.2,135.9c1.4,0.3,3.3,0.5,5.8,0.3C44.3,137.5,42.7,137,42.2,135.9z
	 M46.8,133.5c0,0.2-0.3,0.6-0.6,0.8c1.8,0,3.5-0.4,4.8-1.8C49.9,133.1,48.5,133.5,46.8,133.5z M49.3,129.5c-0.1,0.2-0.6,0.7-0.9,1.1
	c1.5,0.2,4.4-0.5,5.6-1.9C52.9,129.2,51,129.5,49.3,129.5z M52.8,125.6c-0.3,0.3-1.1,1.1-1.4,1.4c1.5,0.2,4.8-1,6-2.4
	C56.2,125.1,54.5,125.6,52.8,125.6z M57.5,121.3c-0.1,1.7-0.7,2.8-1.3,3.5c0.5-0.2,1-0.3,1.5-0.5C57.7,123.3,57.6,122.2,57.5,121.3
	L57.5,121.3z"/>
<path id="path3424" class="st1" d="M104.6,147.2c1.5,0.4,3.2-0.6,4.1-0.6c0.4,0.8,0.6,1.6,2.2,2.2
	C109.8,150,105.8,150.4,104.6,147.2L104.6,147.2z"/>
<path id="path3426" class="st1" d="M121,153.8c-0.5,0.5-1.1,1.1-2.2,1.7c1.8,1.7,5.5-0.2,5.4-1.8C123.9,153.1,122.8,154.5,121,153.8
	z"/>
<path id="path3428" class="st1" d="M128.1,148c0,2.2-0.2,2.7-0.5,3.5c1,0.7,3.7-1,4-3.5C131.3,147.4,130.2,148.4,128.1,148
	L128.1,148z"/>
<path id="path3430" class="st1" d="M133,136.1c-0.8,0.2-0.3,2.8-1.2,3.7c0.7,0.4,1.2,1.4,1.8,2.2C135.3,140.7,135.2,137,133,136.1
	L133,136.1z"/>
<path id="path3432" class="st3" d="M106.5,147c0.8-0.2,1.7-0.7,2-0.6C109,144.7,107.9,145.7,106.5,147z M105.3,145.6
	c1.6,0,3.8,0.3,4.4-1.9c2.5,1.2,5.1-1.1,4.5-3.2c0,0-0.8,3.6-5.9,1.3c-1-0.2-2.4,0.5-2.4,1.2C106,143.9,107.8,144.7,105.3,145.6
	L105.3,145.6z M118.9,143.8c1.3,1.3,2.1,2.5,1.8,3.5c0.8-1.2,0.9-0.5,1.1,0c1,0.7,1.7,3-0.7,4.4c1.1,0.3,1.2,1.3,0,1.7
	c0.1,1.1,2.9-0.3,3.2,0.2c0.2-0.1,0.3-0.4,0.4-0.8c0.2-0.3,0.3-0.7,0-1.2c1.8-3.1-0.4-4.7-2.4-5.1C121,145.4,120,144.6,118.9,143.8
	L118.9,143.8z M119,140.5c2,1.2,4.6,2.2,7.1,3.8c2.5-2.5,4.4,1.6,0.8,1.9c0.9,1.7,4.8,1.6,4.6,0.2c2.4-4.5-4.1-5.6-5.4-4
	c-2-1.1-3.8-2.4-6.6-2.9c5.6,2.4,6.5,3.2,5.6,3.3C124.3,143,121.2,141.2,119,140.5z M120.7,137c1.5-0.7,4.9-0.6,5.8-1.4
	c1.5-2.7,4.2-2,5.1-0.2c0.6,0,1.1,0.1,1.2,0.6c-0.6,1.3-0.2,4.4-1.8,3.6c0.3-0.2,0.2-0.5,0-0.7c-0.7,0.7-0.7-0.1-0.7-0.4
	c-1,1.2-1.6,1-2.3,0.8c0.2-0.1,0.3-0.3,0.2-0.6c3-1.2,0.4-4.7-2-1.4C125.3,137.6,122,136.9,120.7,137L120.7,137z M96.7,120.1
	l-0.1,0.4c1.2,1.1,12,12.9,15.1,18c-0.5-1.1-0.3-1.5-2.2-3.8c4.8,2.7,7.2,0.3,6.9-0.2c-0.4,0-0.7,0.1-0.9,0c-4.5,2.3-7.8-1.5-9.8-4
	c2.5,2,4.2,2.4,6.8,2.5c0.3-0.5,0.3-0.7,0.4-0.9c-0.2,0-0.4-0.1-0.6-0.2c-3.1,1.2-6.7-1.2-9.6-5c2.7,2,4.7,1.8,6.5,1.8
	c0.3-0.3,0.7-0.6,0.7-1c-0.3,0-0.5-0.1-0.7-0.2c-1.9,0.7-6.6,0.4-8.9-3.5c1.6,1,3.3,1.7,5.5,1.1c0.4-0.3,0.9-0.7,1-1.1
	c-2.7,0.7-5.4,0.7-7.9-1.5c0.7,0,1.4-0.2,2.2-0.6C99.9,121.9,98.4,121.7,96.7,120.1L96.7,120.1z"/>
<path id="path3434" class="st6" d="M63.4,36c5.3,2.8,11.5-3.7,15.8-0.1c0.5,0,0.5-0.3,0.5-0.6C74.6,30.8,69.3,37.4,63.4,36L63.4,36z
	"/>
<path id="path3436" class="st6" d="M61.5,117.8l-0.4,0.4c-0.5,2.3-1.7,4.2-3.2,6c1.3,0.2,2.9-0.5,4.4-1.2
	C61.4,121.3,61.2,120.1,61.5,117.8L61.5,117.8z"/>
<path id="path3438" class="st3" d="M63,114.7c0.7,1.5,2.2-0.9,2.8-1.6c-0.9,3.2-2.7,6.4,1.2,9.4c-2,0.2-2.5,1.1-0.7,3
	C62.7,123.7,60.7,120.8,63,114.7z"/>
<path id="path3440" class="st7" d="M65.9,113c-1.2,6.3,0.8,8.7,2.8,9.3c-0.8-6.8,1.9-11.6,5.7-15.4c-0.3-6.3-1.1-9.2-1.8-13.7
	c0.1,2.1,1.5,7.9,0.5,11.9C72.1,109.4,69.1,113.4,65.9,113L65.9,113z"/>
<path id="path3442" class="st6" d="M53.5,119.4c3.6,0.2,6.5-0.9,8.8-3.3c-1.3,3.2-4.2,4.6-8.6,4.2C55.3,120,55.3,119.8,53.5,119.4z"
	/>
<path id="path3444" class="st6" d="M53,115.8c-0.3,0.5-0.6,0.8-0.9,1c5.6,0.7,8.8-2,10.9-4.3c3.1,0.2,5.3-1.8,7.1-3.9
	c-2.1,1.7-4.2,3-6.7,2.7C61,114.9,57.6,116.5,53,115.8L53,115.8z"/>
<path id="path3446" class="st6" d="M55.2,111.6c-0.4,0.9-0.6,0.9-0.8,1.1c1.9,0.4,4.5-0.3,9-4.1c4.4-0.1,6.3-3,7.5-4.2
	c-2.3,2-4.7,3.1-7.1,3.1C61.4,109.9,58.9,111.8,55.2,111.6z"/>
<path id="path3448" class="st6" d="M56.7,108l-0.8,1.3c1.5-0.1,3.6,0,7.9-4c3.3-0.7,6.3-3.2,8.9-7.5c-2.2,2.7-4.1,5.5-8.5,5.9
	C63,106.3,60.1,107.3,56.7,108z"/>
<path id="path3450" class="st6" d="M92.9,113.3c-0.3,2.3-0.8,4.4-1.8,5.9c0.1,0.7,0.1,1.5,0.1,2.2C92.7,119.9,93.8,115.4,92.9,113.3
	z"/>
<path id="path3452" class="st6" d="M95.2,114.4c1.7,4.3,0.2,10-5.1,11c1.6,0.7,6.5-1.6,7.2-8.2l4,4.5c0.2-1,0.4-2.1-0.4-3.6
	C97.7,117.4,96.7,116.1,95.2,114.4L95.2,114.4z"/>
<path id="path3454" class="st8" d="M97.8,115.7c2.2,0.9,6,2.3,9.7,0.7c0.6,0.2,1.1,0.4,1.7,0.5c-1.3,1.3-4.9,1.7-8.3,1.2
	C105.6,117.6,98.6,117.1,97.8,115.7L97.8,115.7z"/>
<path id="path3456" class="st9" d="M90.2,108.1c1.6,1.1,3.3,1.8,5.3,1.8c1.5,2.8,5.8,3.6,8.3,3.5c0.1,0.4,0.4,0.7,0.7,1
	c-2.1,0-4.7-0.7-8.7-3.2C94.8,110.8,90.9,109,90.2,108.1L90.2,108.1z"/>
<path id="path3458" class="st6" d="M89.4,103.8c1.6,1.3,3.3,2,5.2,2.2c1.9,2,4.1,3.1,7.1,3.4l0.6,1.1c-0.9,0.1-5.4-1.9-7-3.4
	C92.5,106.4,90.4,105.1,89.4,103.8L89.4,103.8z"/>
<path id="path3460" class="st6" d="M89.7,100.4c1.8,1.8,3.9,2.5,5.6,2.5c1.3,1.3,2.4,2.7,5,3.4c0.1,0.4,0.3,0.7,0.5,0.9
	c-2,0-4.7-2.8-5-3.2C93.1,103.5,90.1,102.2,89.7,100.4z"/>
<path id="path3462" class="st3" d="M73.9,92.3c0.6-0.2,0.8-0.5,1.1-0.9c0.5,0.7,1.2,0.8,1.8,1c-1.3,0-1.4,0.6-0.8,1.6
	c0.3,0.4,0.7,6.7,0.8,10.5c0,3.5,0.5,5.8,1.2,7.3C75.3,109.6,76.8,95.4,73.9,92.3L73.9,92.3z"/>
<path id="path3464" class="st7" d="M78.6,92.6c1.6-0.1,3.1-0.2,4.9-1.3l0.7,0.8c-1.3,2.9-2.1,9.7-2.9,15.8c0.2-3.9,0.3-7.4,0.1-8.4
	c-0.4-2.2-0.3-3.5-0.3-3.9C81.9,92.6,79.6,93.3,78.6,92.6L78.6,92.6z"/>
<path id="path3466" class="st6" d="M84.8,92.4l0.2,0.2c-2.6,5.7,0,18.9-5.7,25.5l-0.1-2.5C83.5,112.7,82.4,98.2,84.8,92.4L84.8,92.4
	z"/>
<path id="path3468" class="st6" d="M75.3,106.5c0,9.4,1.5,11.2-4.9,19c3-2.5,6.3-10.1,5.9-5.7c0.8-1.4,1.5-2.8,1.7-4
	C75.5,111.5,75.6,109.1,75.3,106.5L75.3,106.5z"/>
<path id="path3470" class="st6" d="M80.5,116.8l-1.2,1.4l0.3,12.4C79.8,125.5,80,120.8,80.5,116.8L80.5,116.8z"/>
<path id="path3472" class="st3" d="M83.3,107.9c-0.3,1.9-0.5,4.2-1,5.5c0.9,9.9,3.6,10.9,5.8,11.8C84.3,119.8,83.6,112.7,83.3,107.9
	L83.3,107.9z"/>
<path id="path3474" class="st10" d="M76.1,120.8c-1.2,2.6-0.8,7.7-4,10.9c2.7-1.4,3.7-4.8,3.8-7.4l0.3,2.8c-0.9,5.7-3.5,7.2-5.3,7.6
	c0.3-0.1,3.1,0.5,5.7-5.2c0.1,2.1-1.4,4.4-3.3,5.2c1.7,0.1,3.3-1.5,4.2-2.7C76.1,128,76.1,124.4,76.1,120.8L76.1,120.8z"/>
<path id="path3476" class="st6" d="M77.4,129.4c0.3,1.4,0.7,3.3,2.2,5.3l0.1,2.4c0.7-0.9,3.4-8.6,3.5-11.1c0.1-0.8,0.1-1.7,0.7-1.1
	c0.1,0.1,0.2,0.1,0.2,0c-0.8-0.6-1.7-3.3-2.3-4.3c0.5,3,0.9,7.2-2.2,13.6C78.7,133,78,131.2,77.4,129.4L77.4,129.4z"/>
<path id="path3478" class="st3" d="M90.5,134.3c-3.3,1.7-6.1-2.4-7.5-4.9l0.6-3.5c0-0.1,0.3-0.2,0.4,0
	C84.5,129.6,86.9,134.1,90.5,134.3z"/>
<path id="path3480" class="st11" d="M82.4,130.6l-0.4,1c1.3,2.8,2.8,3.8,4.7,4.5C82.9,134.3,82.7,132.5,82.4,130.6z"/>
<path id="path3482" class="st3" d="M78.7,135.5l1,1.7l0.8-1.7c-0.1,4.6-0.4,10.1-0.6,15.3C79.5,145.7,78.9,140.3,78.7,135.5
	L78.7,135.5z"/>
<path id="path3484" class="st6" d="M81.7,132.6c-0.1,0.3-0.2,0.5-0.3,0.7c3.4,12.6-0.6,19.3-1.5,20.3c-2.4-4.2-2.3-8.3-2.8-11.8
	c0.3,3.2,0,7.3,2.7,12.4l0,2.1c3.3-4.2,5.4-9.9,2.8-22.5C82.2,133.5,82,133,81.7,132.6L81.7,132.6z"/>
<path id="path3486" class="st3" d="M78.7,155.1c0.3,0.5,0.5,0.9,1.1,1.3c0.7-0.8,0.9-1.2,1.2-1.7c-0.6,3.3-0.9,6.6-1.3,9.9
	C79.3,161.4,79.1,157.9,78.7,155.1z"/>
<path id="path3488" class="st6" d="M84.6,155.7c-0.7-1.6-1.6-3-1-4.8c-0.1-0.5-0.3-0.6-0.6-0.7c-0.2,1-0.5,1.6-0.8,2.3
	c1.3,7.7-0.5,11.8-2.6,15.3c-3.5-4.6-2.8-9.7-2.9-13.9c-1,8.7,1.1,12.5,2.8,14.5l0,2.1c4.9-7.2,4.4-13.9,3.3-17.1
	C83.4,154.1,83.9,154.9,84.6,155.7L84.6,155.7z"/>
<path id="path3490" class="st12" d="M66,133.7c0.7,6.3,8.7,4.4,11.9-0.4l-0.3-0.9C74.6,136.4,68.1,139.9,66,133.7L66,133.7z"/>
<path id="path3492" class="st3" d="M77.2,136c-2.9,6.1-6.5,10.5-11.4,10.9c3.3,0.3,6.9-2.4,8-3.6c0.8-1.4,1.8-1.9,0.8,0
	c-0.4,0.7-0.8,1.1-1.4,1.7c0.8-0.3,2.4-2.8,2.8-3.1C76.1,139.3,76.7,137.8,77.2,136L77.2,136z"/>
<path id="path3494" class="st13" d="M76,142.1c-0.1,0.7-0.1,1.4-0.1,2c-4.6,4.8-8.6,6.3-12.9,5.3C66.5,149.5,70.6,149.8,76,142.1z"
	/>
<path id="path3496" class="st3" d="M61,144.9c-1-2.5-0.6-4.6,1.2-6.1c-3.6-0.1-7.6,6.7-0.8,10.1c-3.4-2-3.5-6.1-2.4-7.4
	c0.7-1.2,1.8-1.5,1.1-0.2C59.4,143.4,60.3,144.5,61,144.9L61,144.9z"/>
<path id="path3498" class="st3" d="M82.8,134.2c0.7,1.1,1.5,2,2.6,2.7c-0.3,6.2,6.5,10.3,11.1,8.5C93.9,147.4,85.1,146.9,82.8,134.2
	z"/>
<path id="path3500" class="st14" d="M83.8,141.9v0.7c3.2,5.3,8.6,5.5,10.2,5.3C89,147.9,85.8,145.6,83.8,141.9L83.8,141.9z"/>
<path id="path3502" class="st15" d="M97.7,138.1c4.2,2.9,3.1,7.5-1.5,9.4C99.7,145.2,101.4,142.2,97.7,138.1z"/>
<path id="path3504" class="st6" d="M92.7,148.8c4,0.7,10.8-2.4,7.2-9.5C103.6,143.6,99.5,151.3,92.7,148.8z"/>
<path id="path3506" class="st16" d="M83.8,146.2c0,0.4-0.1,0.6-0.2,1.3c3.4,6.9,5.4,7.3,7.6,9.1C87.1,153.5,84.9,149.9,83.8,146.2z"
	/>
<path id="path3508" class="st17" d="M89.4,159.1c0.7,0.3,1.3,0.1,1.9,0.3c5.3,1.8,11.8-1.3,9.8-7.7
	C104.6,155.1,98.3,164.7,89.4,159.1z"/>
<path id="path3510" class="st13" d="M98.7,149.9c4,4-0.1,9.4-5.4,7.6C98.9,158.2,101,153.5,98.7,149.9L98.7,149.9z"/>
<path id="path3512" class="st3" d="M60,149.8c-5.5,3.6-2.4,8,0.1,9.1c-1-0.7-2-3.2,1-1.8c1,0.4,1.9,0.5,2.7,0.4
	C58.2,155.7,59.4,152.7,60,149.8z"/>
<path id="path3514" class="st3" d="M75.9,144.8c0.1,1.9,0.3,3.4,0.6,4.5c-1.8,3.5-3.9,5.8-6,7.5c2.6-2.5,4.5-4.9,5.4-7.6
	c-4.4,6.9-7.5,8-10.7,8.2C69.1,156.6,74.9,153.2,75.9,144.8z"/>
<path id="path3516" class="st18" d="M76.6,149.6c0.1,0.6,0.3,1.1,0.6,1.5c-5.6,10.8-13.1,10.5-15.6,9.6c4.8,0.5,3.2-0.4,1.6-0.7
	C68.9,160.3,73.9,156.4,76.6,149.6L76.6,149.6z"/>
<path id="path3518" class="st19" d="M72,90.2c0.7-0.5,1.1-1.1,1.5-1.7c0.2,0.3,0.4,0.6,0.8,0.8c-1.1,0.3-1.4,1.9-2,1.9
	C72.2,90.9,72.2,90.6,72,90.2z"/>
<path id="path3520" class="st6" d="M74.3,89.4c1.6,0.6,3.2,0.5,5.2-0.9c0.2,0.2,0.4,0.4,0.7,0.6C78.3,90.5,75.2,90.1,74.3,89.4z"/>
<path id="path3522" class="st6" d="M81.1,89.4c1.1,0.2,2.2,0.4,3.7-0.4c0.2,0.3,0.4,0.5,0.6,0.7C85,90.2,82.6,90.1,81.1,89.4
	L81.1,89.4z"/>
<path id="path3524" class="st6" d="M85.8,86.4c0.4,0.2,1,0.9,1.6,1.2c-0.5,0.7-0.9,1.4-1.4,2.2C83.9,88,85.4,86.1,85.8,86.4z"/>
<path id="path3526" class="st6" d="M70.5,86.9c0.3,0.4,0.5,0.7,0.7,1c1.3-0.9,1.7-1.8,2.1-2.8c-0.2-0.1-0.4-0.3-0.5-0.5
	C71.8,86.3,71.2,86.5,70.5,86.9L70.5,86.9z"/>
<path id="path3528" class="st6" d="M73.4,85.1l-0.1,0.3c2.5,1.4,6.6,2.5,11.8-0.1l-0.5-1.1C81.2,86.9,77.4,87.3,73.4,85.1z"/>
<path id="path3530" class="st6" d="M85.5,85.1c1.5-0.3,1-2.1,2.3-2.7c2.3,3.4,6.1,2.5,7.7-0.1l0.3,1.9c-1.5,0.9-3.5,2.6-6.7,1.1
	c-0.3,0.5-0.3,1.4-0.3,2.3C87.3,87.2,86.1,86.4,85.5,85.1L85.5,85.1z"/>
<path id="path3532" class="st6" d="M90.1,78.8c0.6,1.1,0,3.6,0.1,4.4c-1.1-0.2-1.7-1-2.3-1.8c0.1,0,0.2-0.1,0.2-0.1
	C88.2,80.6,89.5,80.3,90.1,78.8L90.1,78.8z"/>
<path id="path3534" class="st13" d="M80.2,81.9l-0.1,0.2c1.7,0.6,5.3,0.9,7.9-0.8l-0.5-0.8C85.7,82,83.4,82.7,80.2,81.9z"/>
<path id="path3536" class="st6" d="M79.2,81.3c0.3,0.2,0.6,0.5,0.9,0.6c-2.4,2.2-5.8,1.6-9.2-0.2c0-0.1,0-0.2,0-0.3
	C74.8,83.5,77.6,82.9,79.2,81.3z"/>
<path id="path3538" class="st18" d="M70.7,81.3c0.8,1.3-1.3,1.8-1.3,3.7L68.5,84C68.5,82.7,70.2,82.9,70.7,81.3z"/>
<path id="path3540" class="st18" d="M68.3,83.6l-1.6-2.5c-1.7-2.2,4-2.7,3.3-6.9c0.4,0.3,0.7,0.7,1.1,0.8c-0.2,3.4-3.2,3.3-3.2,5.6
	c-0.4-0.1-0.6-0.5-0.7-1c-0.1,0.1-0.2,0.1-0.3,0.3C66.2,80.9,67.3,81.4,68.3,83.6L68.3,83.6z"/>
<path id="path3542" class="st6" d="M69.9,79.1c1.7,0.2,3.3,0,4.8-1.5c0.3,0.3,0.5,0.5,0.8,0.8C73.6,79.6,70.9,79.7,69.9,79.1
	L69.9,79.1z"/>
<path id="path3545" class="st19" d="M75.6,78.4l-0.2,0.2c2.7,1.6,6.6,1.6,8.7,0.2c-0.3-0.2-0.5-0.4-0.8-0.6
	C80.9,79.9,77.2,79.3,75.6,78.4L75.6,78.4z"/>
<path id="path3547" class="st12" d="M84.2,78.7L84,78.9c2,0.8,4.4,0.7,6.1-0.2c-0.1-0.3-0.2-0.6-0.5-0.9
	C87.8,79.2,86,79.1,84.2,78.7L84.2,78.7z"/>
<path id="path3549" class="st12" d="M71.4,75.3c2.9,1.5,6,0.5,7.7-1c0.3,0.4,0.6,0.6,0.9,0.8C77.9,77,72.4,76.7,71.4,75.3L71.4,75.3
	z"/>
<path id="path3551" class="st6" d="M80.1,75.1L80,75.3c2.6,1.8,6.5,0.7,7.6,0c-0.1-0.4-0.3-0.8-0.4-1.1
	C85.3,75.7,82.6,76.2,80.1,75.1L80.1,75.1z"/>
<path id="path3553" class="st6" d="M64.2,71.5l0.4,0.2c0.4-0.6,0.7-0.7,0.9-0.5c0.2,0.2-0.1,0.6,0.3,1c1.3-1.1,4.4-1.8,4.8-3.3
	c0.6,1.6,2.5,1.6,4,4.3c-0.4-2.1-2.5-2.6-3.4-4c-0.9-1.4-0.4-3.1,0.3-5.4c-1.4,2-0.3,4.7-2.7,6C67.3,70.6,64.5,70.4,64.2,71.5
	L64.2,71.5z"/>
<path id="path3555" class="st6" d="M76.5,61.6l0.1,1.9c-2.4,1-0.5,7.1-1.5,8.4C74.7,66.7,72.6,64.8,76.5,61.6L76.5,61.6z"/>
<path id="path3557" class="st6" d="M78.5,66.1h0.3c0.3,3.4,3.9,3.8,4.5,7.1c-0.8-2.3-2.8-3-3.9-4.3c-0.6,2.6-3.8,3.4-4.6,4.9
	C74.6,72.6,79.2,70.9,78.5,66.1z"/>
<path id="path3559" class="st6" d="M83.9,62.8c-1.9,3,1.9,4.9-0.2,9.9c1.1-6.5-3.5-6-0.6-10.7c1,1,4.4,1.9,4.7,3.6
	C86.8,64,85,63.8,83.9,62.8L83.9,62.8z"/>
<path id="path3561" class="st6" d="M87.9,66c0.4,1.1,0.7,1.6,1,2.4c-1,3.4-5.1,4.5-5.3,5.8C82.8,72.6,87.9,71.7,87.9,66z"/>
<path id="path3563" class="st6" d="M91.7,62.6c-0.6-0.1-1.3,0-2-0.7c0.1,1.1-0.1,1.7-0.2,2.4c1.3,0.8,2.2,7.9,2.8,8.2
	c-0.3-3.1-0.2-7.1-2-9.3l0.1-0.4C91,63,91.4,62.9,91.7,62.6L91.7,62.6z"/>
<path id="path3565" class="st6" d="M66.8,68.2c1.3-1.9,2.4-4.1,4-5.3c1.6-1.1,2.7-0.7,6-3.4l1.2-3.3c-2.8,4.1-6.1,6.9-10.8,5.9
	c0.3,0.2,0.4,0.6,2.4,0.7C68.6,63.8,67.7,65.9,66.8,68.2L66.8,68.2z"/>
<path id="path3567" class="st3" d="M66.1,59.1c2.5,1.2,5.5,1.9,10.8-5.6c1.1-0.3,2.2-0.9,3.2-2C76.7,59.6,67.1,64.6,66.1,59.1z"/>
<path id="path3569" class="st4" d="M77.2,63.8c4-15,16.1-24,5.6-32C90.4,44.9,78.3,50.5,77.2,63.8z"/>
<path id="path3571" class="st3" d="M74.3,50.8c0.2,3.9,5.2,1,6.4-1.6C78.7,50.6,76.7,51.8,74.3,50.8z"/>
<path id="path3573" class="st3" d="M81.8,44.7c0.5-0.7,0.5-0.1,1.3,0.1c-1.8,3.8-4.9,4.8-6.6,4.9C78.8,48.5,80.9,47.2,81.8,44.7z"/>
<path id="path3575" class="st6" d="M80.6,38.3l0.4,0.4c0.6,0,1.1,0,1.7-0.5c0,0.5-0.2,0.7-0.4,0.8c0.3,2.8,0,4.4-0.4,5.6
	c0.5-0.5,0.9,0.2,1.3,0.2c0.7-1.1,1.9-4.9,0-8.1C83.2,37.6,82.1,38.6,80.6,38.3L80.6,38.3z"/>
<path id="path3577" class="st6" d="M74.1,37.1c3-1.2,4.8,0.9,6.1,1.1c2.2,3.2-0.1,5.9-1.5,7.6C79.6,44.2,81,37.6,74.1,37.1z"/>
<path id="path3579" class="st7" d="M76.8,65.5c3.3,1.5,4.8-2.2,6.4-3.7c-0.8-1.8-0.6-3.2-0.6-4.8C79.7,58.6,79.8,64.3,76.8,65.5
	L76.8,65.5z"/>
<path id="path3581" class="st7" d="M88,39c-0.3,0.1-0.3,1.2-0.7,1.2c-0.2,7.6-7.1,11.8-8.7,22.7c1-1.2,1.7-5.8,4.3-10
	C85.7,48.5,88.3,46,88,39L88,39z"/>
<path id="path3583" class="st3" d="M84.5,53.4c-2.7,7.4,2.7,7.5,3.2,9.9C82,61.3,81.6,57.2,84.5,53.4z"/>
<path id="path3585" class="st3" d="M85.5,32.1c9.1,5.9,1.3,17.9-2.1,21.1C84.8,50.2,93,41.9,85.5,32.1z"/>
<path id="path3587" class="st7" d="M88.6,28.8c0.9,1.7,2.4,4.4,0.2,3.9c3.9,8.6-0.4,13-2.5,17.8c-4.5,11.7,2.9,7.1,2.1,15.3
	c2.5-3-0.8-7.3-0.6-8.7c-0.2-2.2,1.2-6.8,1.6-9.6c0.5,1.6,1.4,2.5,2.4,3.1C90,44.5,95.4,32.5,88.6,28.8L88.6,28.8z"/>
<path id="path3589" class="st7" d="M89.5,49c0.4,0.6,0.7,1.3,1.5,1.7c0.4,2.4-3,10,2.1,10.5C88.9,63.3,86.7,57.5,89.5,49L89.5,49z"
	/>
<path id="path3591" class="st6" d="M87.3,26.5c0.9,0.1,2.9,1.5,4.8,0c1.3,1.8-1.1,3.3-3.7,2C87.7,28,89.9,27.8,87.3,26.5z"/>
<path id="path3593" class="st3" d="M72.1,27.1c0.8,0.9,1.6,1.3,2.3,3.4c0.5,0,1.1,0.1,1.6,0.2C75,29.3,74,28,72.1,27.1z"/>
<path id="path3595" class="st6" d="M80.4,24.6c7.9,2.1,7.2-1.6,8.6-2.1C90.4,24.8,86.5,27.7,80.4,24.6z"/>
<path id="path3597" class="st18" d="M70.7,26.2c-0.5-0.2-0.9-0.1-1.1-0.1c0.7-5.7,7-2.1,10.4,0.1C75.7,24.1,70.3,21.5,70.7,26.2
	L70.7,26.2z"/>
<path id="path3599" class="st4" d="M70.7,26.2c-0.4-6.5,9,0.9,13.3,1.2c-3,0.3-12.9-6.2-12.8-1.1L70.7,26.2L70.7,26.2z"/>
<path id="path3601" class="st6" d="M71.3,26.4l0.8,0.3c0.1-0.6,0.3-1.2,0.6-1.3c1.8-0.4,0.1,0.6,0.4,0.9c0.3,0.2,0.7,0.5,1.1,0.7
	c0-0.3,0-0.6,0.1-1c0-1.5,4.3,0.9,7.2,1.9c0.3,0.9-1.6,2-3.2,1.7c1.4,1.1,4.4,0.6,5.7-1.3c2.3,0.2,2.8-0.2,3.3-0.8
	c-1.7-0.4-2.5,0.5-6.9-0.7C76.3,25.7,71.4,22.3,71.3,26.4L71.3,26.4z"/>
<path id="path3603" class="st20" d="M74.9,25.7c0.5,0,0.9,0.1,1.4,0.3c-0.9,1.4,0.4,2.7,1.1,2.5c0.2,0.2,0.5,0.5,1.3,0.7
	C77.6,29.4,73.7,28.2,74.9,25.7L74.9,25.7z"/>
<path id="path3665" class="st1" d="M64.5,33.6c-4.4-8.5,8.3-10,9.6-3c0,0,3.2,0.1,6,1.6c5.4,3.9,2.1,6.2,1,6c-2.5,0-3-2.4-6.7-1.5
	c-0.9,0.3-0.9,0.8-1.3,0.8c-2.2-0.6,1.8-5,6.2-1.8c0.4,0.3,1.2-0.3,0.5-1.1c-2.9-2.9-8-1.3-9.1-1C69.3,31.4,66.2,31.9,64.5,33.6
	L64.5,33.6z"/>
<path id="path3605" class="st21" d="M77.2,26.7c0.6,0.4,3.4,0.9,3.4,1.2C79.7,30,76.7,29.3,77.2,26.7z"/>
<path id="path3607" class="st6" d="M96,84.2c0,0-0.1,0.1,0,0.2c0.7,0.3,1.5,0.5,2.5,0.6l2.3,13.6c-0.2-3.5-0.4-7.2-0.5-10.6
	c-0.3-0.6-0.4-1.8-0.6-3c0.3,0,0.6-0.1,0.9-0.2c1.5,8.6,5,10.3,5.7,11c-1.9-2-4.4-4.8-5.3-11.2c1.3-0.7,1.8-1.6,2.3-1.7
	c0.1-0.4,0-1.2-0.1-1.6c-1.3,1.2-2.4,2.6-5,2.4c-0.2,0,0,0.2,0,0.2C99.1,85.2,97.1,84.4,96,84.2L96,84.2z"/>
<path id="path3609" class="st7" d="M100.9,100l0.1,2.1c1.3-0.8,2.5-1.1,4.2-5c0.7,7,0.8,13.7,4.8,15.1c-2.1-4.8-2.1-10-2.3-15.1
	c-0.2,0.3-0.5,0.5-0.7,0.8c-1.7-1-2.2-1.7-3.1-2.6C103.4,96.9,103.1,98.8,100.9,100L100.9,100z"/>
<path id="path3611" class="st3" d="M103.9,83.1c0.6,0.2,1.2,0.3,1.9,0.3l0.7,10.1L103.9,83.1L103.9,83.1z"/>
<path id="path3613" class="st6" d="M108.7,82.4l0.3-0.2c0.8,1.9,1.9,3.5,3.6,4.8l4.4,29.4l-6.3-29.4c0,5.1-1.4,8.4-3.7,10.7
	l-0.2-1.9C109.1,92.4,110.6,88.5,108.7,82.4z"/>
<path id="path3615" class="st12" d="M115.4,89.2c0.7,0.4,1.4,0.7,2.3,1c2.6,8.9,3.7,26.3,0.2,32.7l-0.3-2.4
	c-6.1-4.7-7.6-17.6-8.8-24.9l0.2-0.4c1.2,6.6,2.6,19.4,8.5,24.6c1.1-3.4,3.4-13.2-0.8-29.5C116.4,89.9,115.9,89.5,115.4,89.2
	L115.4,89.2z"/>
<path id="path3617" class="st3" d="M111.7,79.7c0.5-0.1,0.8,0,1.7-0.2l5.8,8.7L111.7,79.7L111.7,79.7z"/>
<path id="path3619" class="st3" d="M117.9,90.2c0.8,0.3,1.9,0.5,3,0.8c0,0.3,8.5,22,14.4,23.7c-7.6,1.5-11.4-11.7-16.3-19.6
	C118.7,93.4,118.3,91.8,117.9,90.2z"/>
<path id="path3621" class="st6" d="M116.9,77.1c-0.1,0.1-0.1,0.2-0.3,0.3c3.4,5.3,3.5,8.6,3.1,11.5l1.4,1.8c0.7-4.1-0.1-7.1-1-9.9
	l17.1,24.9l-15.2-24.2l3.2,0.5C122.6,81,119.9,80.7,116.9,77.1L116.9,77.1z"/>
<path id="path3623" class="st6" d="M127.3,82c0.7,0,1.2,0,1.7-0.2c3.4,5.5,12.2,15.6,11.1,29.3L139,109
	c-8.1-1.9-13.8-12.1-16.7-16.2c4.8,6.3,10.1,14.4,16.5,15.7C139.3,98.3,131.6,88.3,127.3,82L127.3,82z"/>
<path id="path3625" class="st3" d="M129,81.8l0.3,0.5c7.5,4,15.9,11.9,21.2,6.1c-5.4,2.2-14.2-5.5-19.9-8.3l0.3,1.2
	C130.2,81.6,129.6,81.7,129,81.8L129,81.8z"/>
<path id="path3627" class="st3" d="M118.4,72.4c0,0.2,0,0.4-0.1,0.5l9.4,5.8l-8.5-6.8C119,72.2,118.7,72.3,118.4,72.4L118.4,72.4z"
	/>
<path id="path3629" class="st6" d="M130,77.9c0.2,0.6,0.4,1.2,0.5,1.9c11.2,5.2,17.9,3.9,21.1,1.9l-1.7-0.6
	C145,84.3,133.1,79.9,130,77.9L130,77.9z"/>
<path id="path3631" class="st6" d="M121.2,69c0,0.2-0.1,0.3-0.1,0.5c4.8,2.5,8.1,7.2,7.9,10.4l1.6,1.3c-0.6-5.4-2.5-7.4-4.5-9.3
	l22.7,8.9l-22.1-10.3c2.9-0.7,6-0.8,8.5-3.9l5.2-0.2c4.4-0.7,9.5-3.3,10-5.7l-1.7,0.2c-2.1,4.7-10.5,4.6-14.9,4.7
	C132,69.3,125.5,69.6,121.2,69z"/>
<path id="path3633" class="st3" d="M133.9,68c-0.6,0.5-1.2,0.8-1.8,1c2.4,0.5,4.6,1.1,6.6,1.9c5.9,0.6,11.7-0.3,12-5.3
	C148.2,69.7,141.1,69,133.9,68L133.9,68z"/>
<path id="path3635" class="st3" d="M121.1,64.5c0.2,0.5,0.2,0.9,0.3,1.4l12-0.3C129.3,65.2,125.1,64.9,121.1,64.5L121.1,64.5z"/>
<path id="path3637" class="st6" d="M126.9,59.6c2.4,1.1,4.7,2.4,6.5,3.8l-1.6-1.5c5.2-0.4,10.4-0.8,16.2-1.2l-18.3-0.1L126.9,59.6
	L126.9,59.6z"/>
<path id="path3639" class="st6" d="M123,60.1c-0.1,0.3-0.2,0.5-0.3,0.8l4-1.2c6-4.3,6.3-6.5,7.1-8.8l9.2-5.7l-10.4,5.2
	c-5.7,0.1-7.1,0.8-8.8,1.3c4.8-1,8-1.2,9.7-0.7l-1.1,0.7C130.9,56.4,125.5,59.2,123,60.1L123,60.1z"/>
<path id="path3641" class="st3" d="M123,56.1c0.2,0.3,0.2,0.7,0.3,1c2.9-1.5,5.6-3.3,8.2-5C128.6,53.6,125.8,55,123,56.1z"/>
<path id="path3643" class="st3" d="M130.7,56.7c3.2-0.3,6.5-0.4,9.9-0.1c0.8-0.4,9-2.8,7-7.2c-2.4,4.8-11.1,6.4-11.8,6.8
	C134.4,56.4,131,56.5,130.7,56.7z"/>
<path id="path3645" class="st22" d="M144.2,44.5l1.8-0.8c0.2,0.4-1.1,2.8-3.4,5.4c-3,3.4-4.8,4.8-10.6,5.9c0.1-0.2,0.2-0.3,0.3-0.5
	C136.8,53.4,142.9,49,144.2,44.5L144.2,44.5z"/>
<path id="path3647" class="st3" d="M125,49.3l-0.5,0.8c5.2-3.7,9.2-6,12.4-7c3.1-3.3,3.8-6.5,2.5-8.4
	C139.5,40.8,129.9,45.3,125,49.3L125,49.3z"/>
<path id="path3649" class="st18" d="M121.7,51.6l-0.2,1.5c3.8-2.8,5.9-7.8,5.3-12.1l-1.4,1.4l-6,4.8c0.3,0.3,0.7,0.6,0.9,0.9
	l5.1-5.5C125.8,47.1,122.7,50.7,121.7,51.6z"/>
<path id="path3651" class="st3" d="M126.9,44.4l-0.4,1.3c2.5-1.6,4.2-3.2,5.7-4.8c4.3-5,4.8-9.3,5.2-11.3l-1.8,1.5
	C135.8,37.3,128.8,43.4,126.9,44.4L126.9,44.4z"/>
<path id="path3653" class="st6" d="M124.8,40.9c0.7,0,1.4-0.1,2.1,0l8.4-9.6L124.8,40.9z"/>
<path id="path3655" class="st6" d="M118.6,35.4l-1,1.2c0.4,2.4,0.4,5.5-3.1,9.4l0.1,0.2l0.2-0.1c2.8-3.5,5.7-4.3,8.6-5.2
	c-1.7,0.4-3.4,0.7-5.3,1.7C119.4,38.7,118.9,36.7,118.6,35.4L118.6,35.4z"/>
<path id="path3657" class="st3" d="M119,38.6l0,0.8c3-1.8,6-4.1,8.8-7.1c1.6-2.1,3.7-4.9,3.9-8.9l-1.6,1.2
	C129.7,31.1,121.3,36.8,119,38.6L119,38.6z"/>
<path id="path3659" class="st3" d="M112.2,37.7c2.4-1,4.8-2,6.4-2.4l10.5-9.8c-2.8,2-8.7,7.2-11.5,9.3
	C116.7,35.6,115.7,35.5,112.2,37.7L112.2,37.7z"/>
<path id="path3661" class="st4" d="M129.7,24.7c-26.7,4.7-41.5,36.8-23.6,33.9l-1-0.2c-3.6,0.3-4.5-2.8-4.1-4.8
	c0.3-2.1,2.4-3.3,3-3.5c-0.2-1.9-0.2-3.8,1.6-5.4c0.7-1.8,1.6-2.7,2.4-3.7C110.8,30.9,124.9,25.8,129.7,24.7L129.7,24.7z"/>
<path id="path3663" class="st6" d="M117.3,36.6c-3.3,0.5-7.9,4.2-8.6,5.7c-0.1,0.2,0,0.4-1.1,1l0.1,0.2c1.1-0.5,4.2,0,1.3,0.7
	c1.9-0.1,3.6,0.7,4.7,3.2c6.2-0.9,7.7,3.6,6.1,6.6c4.1,3.5,1.5,8.1-0.7,8.9c1.4,3,2.1,7-2.1,8.6c0,2.7-0.4,6.9-6.7,6.8
	c-0.8,1.8-3,4.9-6.9,3.3c0,0,0,0.1,0,0.2c-0.1,0.2,1.6,0.6,1.6,0.5c1.3,0.2,1.5,1-0.1,0.6c-0.6-0.2-1.1-0.3-1.5-0.5l0,0
	c0,0.1,0,0.3-0.1,0.4c4.1,1.4,6.5-1.1,7.8-3.2c4.9-0.3,7-3,7.2-7.2c4-2.5,3.5-6.4,2.2-9c3.6-2.7,3.3-7.4,0.6-9.6
	c1.9-6.2-3.7-7.9-6.6-7.5c-1-1.7-1.6-1.9-2.3-2.4l5.2-7.1l-6.4,6.5c-0.6-0.2-1.5-0.3-2.5-0.3C110,39.7,115.2,37.2,117.3,36.6
	L117.3,36.6z"/>
<path id="path3667" class="st23" d="M68.7,29.1c0.8,1.2,2.1-0.3,4.3,2l0.3-0.1c-0.5-2-1.9-3.2-3.9-3.4c0.9,0.7,0.2,0.8,0.2,1.3
	C69.7,29.3,69.7,29.8,68.7,29.1z"/>
<path id="path3669" class="st23" d="M65.2,32.8c1.2-0.7,3.8-1.6,5.5,0.7c5.3-1.5,9-0.1,9.5,2c0.3-0.6-1.2-3.8-7.2-3.2
	C67.9,28.7,65,31.9,65.2,32.8L65.2,32.8z"/>
<path id="path3671" class="st24" d="M73.2,37.3c-0.9,0,1.9-3.4,6.6-0.2c1.7,0.7,2.5-0.2,2.2-1.6c-0.1-1-0.7-1.6-1-2.4
	c2.3,1.8,2.6,3.9,1,4.8C79.5,39.2,77.8,34.8,73.2,37.3L73.2,37.3z"/>
<path id="path3673" class="st6" d="M69.4,85.3l1,1.5l-0.3-0.2c-2.9,1.4-4.4,0.9-5.9,0.2l-0.1-0.1c-3,0.6-4.9-0.2-6.5-1.4
	c0.1,0.9,0.7,1.6,1.6,2.2L56,101.3l1.5-13c-1.8,5.1-4.2,7.4-7.5,8.9l0.2-1.4c3-1.5,5.5-4.4,6.7-10.7c-1.2,0.2-2.4,0.3-3.6,0l-3,10.3
	l1.4-10.6c-1.3-0.9-2.4-1.9-3.4-3v-0.2c0.3,0.5,0.6-0.9,0.6-1.3c2.2,3.6,5.4,4.3,8.5,3.3c0,0.3,0,0.6-0.1,1.2l0.1,0
	c0.1,0,0.2-0.3,0.3-0.6c-0.1-0.1-0.1-0.2-0.2-0.3l0-0.1c1.7,3.1,5.9,1.6,6.5,1.9c-0.1,0.2,0,0.6,0.1,1l0.1,0.1
	c0.1-0.2,0.1-0.4,0-0.7l-0.1-0.3l0.1,0.1C65.7,86.7,67.7,86.6,69.4,85.3L69.4,85.3z"/>
<path id="path3675" class="st25" d="M59.6,87.7c1,0.5,2,0.8,3.1,1c-0.5,6.5-3.8,13.9-7.3,16.1l0.1-1.8c-0.8-1.4-1.5-3.7-1.7-8.3
	l0.3-0.3c0.1,3.2,0.4,6.2,1.5,8.5c1.6-1.2,5.2-5.4,5.8-13.3c0-0.5-0.1-0.8-0.4-0.9C60.3,88.3,60,88,59.6,87.7L59.6,87.7z"/>
<path id="path3677" class="st6" d="M47,115.2c3.7,1,6.2-6.2,7.6-11.1c-0.7-1.3-1.6-2.7-1.7-8.6l-0.3,0.3
	C52.3,103.4,52.2,111.8,47,115.2L47,115.2z"/>
<path id="path3679" class="st26" d="M48.8,82.2l0.2,0.2c-0.3,1.4-2.2,6.6,0.2,11.7C47.9,92.1,46.8,89,48.8,82.2L48.8,82.2z"/>
<path id="path3681" class="st6" d="M46.8,85.4l-0.7,1.2l-8,32.3l8.4-26.9c0.4,1.6,0.9,3.2,3.1,5.7c-3.1,11-8,20.8-12.2,23.4l0.4-1.3
	c-1.8-5.4-0.4-16.9,2.7-28.3c-2,6.3-6,20.1-3.4,30.1l-0.8,2.5c8.3-5.7,13.3-20,15.1-27.3c-0.5,0.4-1,0.6-1.5,0.7
	C47.3,95,46.1,91.2,46.8,85.4L46.8,85.4z"/>
<path id="path3683" class="st6" d="M41.8,76.3c0.2,1,1.4,2.2,2,3.2c0.3,0.5,0.7,0.7,1.1,0.1l0.4-0.6c0.9,1,2.1,1.5,3.8,1.2L46.9,85
	c-2.4,4.7-5.7,5.7-8.9,6.8l1-1.8c4.2-0.4,7.2-4.5,8.7-8.3c-1-0.2-2-0.6-3.2-1.4l-4.9,8.6l3.3-8.7C43.5,78.9,41.8,77.8,41.8,76.3
	L41.8,76.3z"/>
<path id="path3685" class="st7" d="M39.8,91.3c-0.6,0.2-1.2,0.5-1.8,0.6c-5.4,12-8.4,22.8-18,26.1c8.7,1.6,14.5-12.3,16.6-16.4
	C38.2,97.9,39.1,94.3,39.8,91.3z"/>
<path id="path3687" class="st27" d="M41,76.7c-1,1.2-4.3,5.8-2.2,13.6L39,90C37.5,84.9,39,79.1,41,76.7z"/>
<path id="path3689" class="st6" d="M37.4,83.5c-0.3,2-0.2,3.6-0.1,5.2c-6.5,11.5-17.4,22.2-23.7,22.6c8-10.7,16-21.8,24-32.7
	c0.5-0.2,1-0.6,1.5-0.9c-0.8,1.2-1.2,2.3-1.4,3.2l-22,28.2c7.4-0.6,19.4-18,21.2-22.7C37,84.9,37.2,84.2,37.4,83.5z"/>
<path id="path3691" class="st22" d="M15,109.5l0.5-0.6c-0.6-10.9,11.7-23.8,15-27.9C30,82.1,14.3,95.9,15,109.5L15,109.5z"/>
<path id="path3693" class="st3" d="M6.1,90c1.8,2.9,5,4.7,16.6-2.4c2.3-2.6,4.7-5.2,7-7.4l-0.6,0C25.2,81.8,15,92.4,6.1,90L6.1,90z"
	/>
<path id="path3695" class="st6" d="M36.3,69.5c-1.5,0.6-7.3,2.7-7.8,9.2l-1.2,0.7c7.8,2.6,13.8-3.3,15-4.4c-1.2-0.8-2.5-1.4-3.5-3.3
	l-1,0.5c-2.5,2.1-5.6,4.1-8.5,6.1l9.1-4.6c0.5,0.6,1.1,1.2,2.4,2c-5.5,3.8-9.9,3.6-12,3.1C29.1,75,31.3,71.8,36.3,69.5L36.3,69.5z"
	/>
<path id="path3697" class="st7" d="M27.5,77.3c-0.2,0.8-0.4,1.6-0.4,2.2c-2.5,1-5.3,1.8-8.4,2.3c-0.2,0.1-1,0.4-1.3-0.2
	c-0.4-0.2-0.8-0.3-1.2-0.3c-0.1-0.2-0.5-0.1-0.5-0.3C23.4,79.7,26.9,77.8,27.5,77.3L27.5,77.3z"/>
<path id="path3699" class="st11" d="M19,71.7c-2,1-10.3,5.4-11.8,9.6c4.1,1.2,7.1,0.2,8.9,0c-0.1-0.1-0.4-0.1-0.5-0.3
	c-3,0.4-6.6,0.6-7.7,0.1l0.8-0.4C9.1,77.1,17.7,72.6,19,71.7L19,71.7z"/>
<path id="path3701" class="st6" d="M9.3,80.5c13.6-5,20.1-9.1,27.4-11.5v0.3c-0.6,0.4-5.3,1.5-7.2,4.2L9.3,80.5L9.3,80.5z"/>
<path id="path3703" class="st6" d="M34.3,69.8c-0.9,0.4-1.9,0.7-2.8,1.2c-4.4-0.6-5.2-1.8-7-2.7l0.4-0.2c0.7,0.5,1.6,0.9,2.4,1.3
	c1.3,0.4,1.6-0.1,0.3-0.6c-1.6-0.5-2.5-1.2-3.4-1.8c1.5-3,5.1-4.4,5.6-4.6c-2,1.3-4.3,2.4-4.9,4.4c3.1-0.5,6.4-1,10.4-1.9
	c0.3,0.5,0.6,1.1,1.2,1.8l-0.1,0.1l-0.6-0.7L25,67.2C28,69.2,31.2,69.4,34.3,69.8L34.3,69.8z"/>
<path id="path3705" class="st3" d="M6.6,65.6c1.3,4.2,11.7,3.1,17.9,2.7l0.3-0.1c-0.5-0.4-0.9-0.7-1.2-1C21,66.6,9.3,69.1,6.6,65.6
	L6.6,65.6z"/>
<path id="path3707" class="st3" d="M26.3,63.4l0.1,0.1c-0.7,0.6-1.5,1.2-2.2,2c-9.7,0-15.8-3.8-17.5-6.1c2.4-1.9,5.4-2.6,8.6-3
	c-2.7,0.8-6,1.3-7.4,3H7.2C11.7,64.5,23.7,66.8,26.3,63.4L26.3,63.4z"/>
<path id="path3709" class="st6" d="M8.5,59.6c6.4,0.9,12.7,1.7,19.4,2.7c0.9-0.8,2.5-1.3,5-1.5c-0.8,0-1.6-0.1-2.9,0.1
	C22.6,61.1,15.6,60.2,8.5,59.6L8.5,59.6z"/>
<path id="path3711" class="st6" d="M36.1,58.7c-0.6,0.6-0.9,1.5-1.2,2.6c-7.1-2.3-8.2-6.8-8.5-7.2c4.3-3,6.8-1.9,10.4-1.9
	c-7.5-0.4-9.5,1.6-9.8,2c2.8,0.8,4.8,1.5,10.9,2.5c-0.6,0.4-0.9,0.8-1.2,1.2c-2.3-1-6.6-2.3-9.7-3.5c0.5,2,3.7,5.1,6.3,5.9
	c0.7,0.2,1.6,0.6,1.8-0.4C35.3,59.4,35.8,58.8,36.1,58.7L36.1,58.7z"/>
<path id="path3713" class="st3" d="M9.2,49.4c1.3,1.4,6.5,5.8,16,4.7c0.4,0.9,0.7,1.3,1.1,1.6c-2.5-0.4-5-0.7-7.6-0.5
	C14.5,54,10.7,52.5,9.2,49.4L9.2,49.4z"/>
<path id="path3715" class="st3" d="M28.4,51.3c0.1,0.1,0.3,0.2,0.5,0.2c-1.5,0.6-2.7,1.3-3.7,2c-4.8-1.5-11.5-5-14-9.4
	c2.9-1.3,8-0.7,10.9,0c-3.2,0-7.1-0.7-9,0.6l-1.5-0.5C12.3,46.1,22.4,54.9,28.4,51.3L28.4,51.3z"/>
<path id="path3717" class="st6" d="M13.6,44.9c6.1,2.1,11.8,4.2,16.6,6.2c1.5-0.4,3-0.3,4.4,0c-0.3-0.3-0.7-0.6-1-1.1l-0.1,0.1
	l0.6,0.8C26,48.1,19.9,46.6,13.6,44.9L13.6,44.9z"/>
<path id="path3719" class="st3" d="M32.7,47.3c-0.5-0.9-0.9-1.8-0.9-3.1c-2.3,1.1-12.7-3.4-15.1-9.1C16.8,40.2,25.6,44.1,32.7,47.3
	L32.7,47.3z"/>
<path id="path3721" class="st6" d="M38.7,50.4c-0.3,0.3-0.6,0.8-1,1c-0.2,0.1-0.4,0.1-0.6,0c-3.7-2.3-4.4-6.4-4.3-7.3
	c2.8-0.5,6.8-0.4,12.2,2.9c-1.2-0.3-5.2-3.2-11.6-2.7C33.3,46.7,35,50.9,38.7,50.4L38.7,50.4z"/>
<path id="path3723" class="st6" d="M33.9,44.8l6.5,4.7c0.8,0,1.7,0,2.5,0.4c0-0.2,0.1-0.4,0.3-0.7C39.6,47.8,37,46.3,33.9,44.8z"/>
<path id="path3725" class="st3" d="M19.2,29.7l1.7,1c-0.2,3.9,6.7,11.6,14.5,12.2c-1.3,0.1-2.7,0.1-3.7,0.5
	c-3.7-2.3-6.1-4.7-8.2-6.8c-0.4,0.1-0.8-1-1.5-0.7C20.2,33.4,19.4,31.4,19.2,29.7L19.2,29.7z"/>
<path id="path3727" class="st19" d="M30.6,32.7c-2.6-1-5-2.2-9.5-2c7,5.1,10.8,8.3,16,12.2c2.3,0.4,4.6,1.4,6.9,2.3
	c-0.3-0.6-0.5-1.3-0.7-1.9c0,0.5,0,1.1,0.4,1.6c-3.1-0.9-15.6-9.8-21.8-13.8C24.2,30.4,27.5,31.8,30.6,32.7L30.6,32.7z"/>
<path id="path3729" class="st3" d="M34.1,33c-2.8-2.5-6-5.2-6.7-9.2c3.3,0.4,9.7,2.6,14.7,6.2c-4.6-2.7-9-4.7-12.6-4.6
	C29.3,28.7,32.3,30.8,34.1,33L34.1,33z"/>
<path id="path3731" class="st6" d="M29.8,25.5l-0.2,0.1c4.8,3.5,8.2,6.9,12,10.3c1.1,0.9,0.9,1.9,1,2.8c0.4-0.5-0.1-2,0.7-2.2
	c0.8-0.2,3.8,1.4,3.9,1.1C40.3,34.6,35.6,29.6,29.8,25.5z"/>
<path id="path3733" class="st27" d="M44.8,44.3c-0.7-1.1-1.7-4.4-1-6.7c9,2,10.6,9.1,10.7,10.5c-1.3-5.2-6.3-9.8-9.6-9.2
	c2.1,1.9,4.6,5.8,6.2,7.5c-0.7,0-1.5,0.1-2,0.3c-1.3-0.1-1.9,0.1-2.5,0.3c-0.7-0.8-1-1.4-1.4-2.1c0.9,1.3,2.2,1.1,3.6,0.7
	c-1.4-2.5-2.8-4.3-4.2-6.5C43.9,39.6,44.5,42.3,44.8,44.3L44.8,44.3z"/>
<path id="path3735" class="st3" d="M48.4,34.7c15.4,10.2,16.5,27,5.7,24.2C67.1,57.4,51.8,38,48.4,34.7z"/>
<path id="path3737" class="st6" d="M49.1,46.7c1.3-0.5,4.7-0.5,4.8,4.8l-1.1,0.8C52.8,50.9,53,47.7,49.1,46.7L49.1,46.7z"/>
<path id="path3739" class="st6" d="M52.8,52.4l1.2-0.9c5.6,2.1,2.9,8.2-1,7.2C57.6,58.3,56.6,52.4,52.8,52.4z"/>
<path id="path3741" class="st23" d="M70.8,13.2c0.8,1.3-1.4,5.3,2.3,4.7c1.2,0.8,2.3,0.4,2.9,0.4c2.4-0.8,2.3-2.5,2.5-2.9
	c-2.1-2.9,0.3-3.5,0.5-3.7c1.3,0.2,2,2.5,0.2,3.3c0.1,0.1,0.4,0.1,0.6-0.1c0,3.8,2.7,4.1,4.6,3.5c3.7,1,1.9-3.3,3.7-6.5
	c-2,3.5-0.7,6.7-3.6,6.3c0.7-1.8-1.2-3.2-0.2-5.2c-1.5,1.3,1,3.7,0,4.9c-1,0.9-2,0.2-2-0.2c-0.4-1.3,2.5-2.9,0.8-5.3
	c0.6,1.3,0.4,1.9,0.1,2.7c-0.3,0.8-1.6,1.6-1,3.2c-1.3-0.3-2-1.8-1.6-3c0.4-1.2,1-3.2-1.3-3.9c-2.9,0.9-1.4,3.1-1.1,3.5
	c0.7,0.8-0.6,3.1-2.2,3.1c0.7-1.1-0.1-1.4-1.2-3.2c-0.1,1,2.2,2.2,0.9,3c-0.7,0.5-1.6,0.2-2-0.2c-0.7-0.8,1-1.8,0.7-3.4
	c-0.5,2.3-1.1,2.2-1.1,3.3c-0.8,0.2-1.7,0.5-2-1.1C71.2,14.3,71.2,12.9,70.8,13.2L70.8,13.2z"/>
<path id="path3743" class="st23" d="M85.8,22.2l0,0.2c-4.4,0.3-9-0.6-13.3-0.7v-0.2C76.9,21.7,80.4,22.5,85.8,22.2L85.8,22.2z"/>
<path id="path3745" class="st23" d="M78.9,23l0,0.2c2.6,0.4,5.1,0.8,7.2,0.6v-0.2C83.6,23.9,81.3,23.3,78.9,23z"/>
<path id="path3747" class="st28" d="M72.8,19.3c-0.7,0.2-0.4,1.3,0,1.3c0.8,0,1.6,0.2,2.4,0c0.5-0.2,0.6-1,0.1-1.4
	C74.5,19.1,73.6,19.1,72.8,19.3L72.8,19.3z M72.7,19.2c1.4-0.3,2.7-0.1,3.4,0c0.6,0.2,0.6,1.3,0,1.5c-0.7,0.1-2.3,0.1-3.4,0
	C72,20.1,72.3,19.4,72.7,19.2L72.7,19.2z"/>
<path id="path3749" class="st28" d="M77.7,20.4c1.8,0.2,3.4,0.4,3-1C80.2,19.4,76.6,18.6,77.7,20.4z M77.6,20.6
	c-0.2-0.3-0.6-0.8,0.1-1.5c1-0.1,2.1,0,3.1,0.1c1,0.4,0.9,1.3,0.1,1.6C79.2,20.9,78.3,20.8,77.6,20.6L77.6,20.6z"/>
<path id="path3751" class="st28" d="M82.6,20.7c1.8,0.4,3.3,0.7,3.1-0.7C85.2,19.9,81.7,18.8,82.6,20.7z M82.6,20.9
	c-0.2-0.3-0.5-0.9,0.2-1.5c2.6,0.1,2.2,0.2,3.1,0.4c0.9,0.5,0.8,1.3-0.1,1.6C83.6,21.4,83.2,21.1,82.6,20.9L82.6,20.9z"/>
<path id="path3753" class="st6" d="M49.7,49.2l-2.9,8.5c0.8,0,1.5,0,2.9-0.2C51,54.7,51.3,51,49.7,49.2L49.7,49.2z"/>
<path id="path3755" class="st2" d="M52,65.7l-5.2-8c-0.1-0.2-1.3,3.3-1.5,4.4C46,63.8,49.1,65.7,52,65.7L52,65.7z"/>
<path id="path3757" class="st6" d="M51.2,59.5c1.8-0.7,2.2-1.8,2.2-2.4l-3.7,0.3C50.2,58.1,50.8,58.7,51.2,59.5L51.2,59.5z"/>
<path id="path3759" class="st6" d="M45.1,53.4c-0.7-0.5-3.1-0.7-3.6-0.2l3.1,2.8C44.7,55.2,44.8,54.2,45.1,53.4L45.1,53.4z"/>
<path id="path3761" class="st6" d="M38.2,62.1l8.6-4.4c0.2-0.1-1,3.4-1.4,4.4C44.3,62.6,40.1,63.6,38.2,62.1L38.2,62.1z"/>
</svg>
