<?xml version="1.0" encoding="utf-8"?>
<!-- Generator: Adobe Illustrator 26.0.2, SVG Export Plug-In . SVG Version: 6.00 Build 0)  -->
<svg version="1.1" id="Calque_1" xmlns="http://www.w3.org/2000/svg" xmlns:xlink="http://www.w3.org/1999/xlink" x="0px" y="0px"
	 width="147px" height="196px" viewBox="0 0 147 196" style="enable-background:new 0 0 147 196;" xml:space="preserve">
<style type="text/css">
	.st0{fill:#94814A;stroke:#000000;stroke-width:1.9732;stroke-miterlimit:1;}
	.st1{fill:#FF1100;stroke:#000000;stroke-width:1.9732;stroke-miterlimit:1;}
	.st2{fill:#FFFFFF;stroke:#000000;stroke-width:1.9732;stroke-miterlimit:1;}
	.st3{fill:#FF1100;stroke:#000000;stroke-width:0.1769;stroke-miterlimit:1;}
	.st4{fill:#19338F;}
	.st5{fill:#FFFFFF;}
	.st6{fill:#94814A;stroke:#000000;stroke-width:0.1769;stroke-miterlimit:1;}
</style>
<g>
	<path class="st0" d="M94.8,144.1V176l22.8,18.3v0H28.3v0L51,176v-31.9l0,0c3.6,4.4,7.7,8,12.2,10.8c0.5,0.2,1.1,0.4,1.7,0.4
		c1.1,0,2.1-0.4,2.7-1c0.7-1.1,1.8-1.8,2.9-1.5c1.3,0.3,2.2,1.9,2,3.7l0,0h0.7l0,0c-0.2-1.8,0.6-3.5,2-3.7c1-0.2,2.2,0.4,2.9,1.5
		c0.6,0.6,1.6,1,2.7,1c0.6,0,1.2-0.1,1.7-0.4C87.1,152.2,91.2,148.5,94.8,144.1L94.8,144.1z"/>
	<path class="st0" d="M94.8,45.2v-25l22.8-18.3v0H28.3v0L51,20.2v25l0,0c2.8-1.1,5.7-2.5,8.6-4.3c1.1-0.7,2.2-1.4,3.3-2.2
		c1.1,2,3.5,3.2,5.7,2.9c2.1-0.3,3.4-1.9,3.4-3.9c0,0,0,0,0-0.1c0-0.2,0-0.3,0-0.5l0,0h1.9l0,0c0,0.2,0,0.3,0,0.5c0,0,0,0,0,0.1
		c0,1.9,1.3,3.6,3.4,3.9c2.2,0.3,4.6-0.9,5.7-2.9c1,0.7,2.1,1.5,3.3,2.2C89.1,42.7,92,44.1,94.8,45.2L94.8,45.2z"/>
	<path class="st0" d="M24.8,59.8h-5.4L1.1,37h0v89.3h0l18.3-22.8h16.4l0,0C34.6,87.2,30.7,72.2,24.8,59.8L24.8,59.8z"/>
	<path class="st0" d="M121,59.8h6.2L145.5,37h0v89.3h0l-18.3-22.8H110l0,0C111.2,87.2,115.1,72.2,121,59.8L121,59.8z"/>
	<path class="st1" d="M89.2,150v28.6l13.5,10.9H43.1l13.5-10.9V150l0,0c2.1,1.9,4.3,3.5,6.6,5c0.5,0.2,1.1,0.4,1.7,0.4
		c1.1,0,2.1-0.4,2.7-1c0.7-1.1,1.8-1.8,2.9-1.5c1.3,0.3,2.2,1.9,2,3.7l0,0h0.7l0,0c-0.2-1.8,0.6-3.5,2-3.7c1-0.2,2.2,0.4,2.9,1.5
		c0.6,0.6,1.6,1,2.7,1c0.6,0,1.2-0.1,1.7-0.4C84.9,153.5,87.1,151.9,89.2,150L89.2,150z"/>
	<path class="st1" d="M89.2,42.6V17.7l13.5-10.9H43.1l13.5,10.9v24.9l0,0c1-0.5,2-1.1,3-1.7c1.1-0.7,2.2-1.4,3.3-2.2
		c1.1,2,3.5,3.2,5.7,2.9c2.1-0.3,3.4-1.9,3.4-3.9c0,0,0,0,0-0.1c0-0.2,0-0.3,0-0.5l0,0h1.9l0,0c0,0.2,0,0.3,0,0.5c0,0,0,0,0,0.1
		c0,1.9,1.3,3.6,3.4,3.9c2.2,0.3,4.6-0.9,5.7-2.9c1,0.7,2.1,1.5,3.3,2.2C87.2,41.5,88.2,42.1,89.2,42.6L89.2,42.6z"/>
	<path class="st1" d="M27.3,65.4H16.9L6,51.9v59.6L16.9,98h18.4l0,0C34,86.1,31.2,75.1,27.3,65.4L27.3,65.4z"/>
	<path class="st1" d="M118.6,65.4h11.2l10.9-13.5v59.6L129.8,98h-19.2l0,0C111.9,86.1,114.7,75.1,118.6,65.4L118.6,65.4z"/>
	<path class="st0" d="M81,155.3v25.8H64.9v-25.8l0,0c0,0,0.1,0,0.1,0c1.1,0,2.1-0.4,2.7-1c0.7-1.1,1.8-1.8,2.9-1.5
		c1.3,0.3,2.2,1.9,2,3.7l0,0h0.7l0,0c-0.2-1.8,0.6-3.5,2-3.7c1-0.2,2.2,0.4,2.9,1.5c0.6,0.6,1.6,1,2.7,1
		C80.9,155.3,80.9,155.3,81,155.3L81,155.3z"/>
	<path class="st0" d="M81,40.7V15.2H64.9v25.6l0,0c1.1,0.7,2.5,1.1,3.7,0.9c2.1-0.3,3.4-1.9,3.4-3.9c0,0,0,0,0-0.1
		c0-0.2,0-0.3,0-0.5l0,0h1.9l0,0c0,0.2,0,0.3,0,0.5c0,0,0,0,0,0.1c0,1.9,1.3,3.6,3.4,3.9C78.5,41.8,79.8,41.5,81,40.7L81,40.7z"/>
	<path class="st0" d="M30.2,73.6H14.4v16.1h19.8l0,0C33.1,84.1,31.8,78.7,30.2,73.6L30.2,73.6z"/>
	<path class="st0" d="M115.6,73.6h16.7v16.1h-20.6l0,0C112.7,84.1,114,78.7,115.6,73.6L115.6,73.6z"/>
	<path class="st2" d="M75.6,152.7v22.4h-5.4v-22.4l0,0c0.1,0,0.2,0,0.4,0c1.3,0.3,2.2,1.9,2,3.7l0,0h0.7l0,0c-0.2-1.8,0.6-3.5,2-3.7
		C75.4,152.7,75.5,152.7,75.6,152.7L75.6,152.7z"/>
	<path class="st2" d="M75.6,41.1V21.1h-5.4v19.9l0,0c1.1-0.7,1.8-1.9,1.8-3.3c0,0,0,0,0-0.1c0-0.2,0-0.3,0-0.5l0,0h1.9l0,0
		c0,0.2,0,0.3,0,0.5c0,0,0,0,0,0.1C73.8,39.1,74.5,40.4,75.6,41.1L75.6,41.1z"/>
	<path class="st2" d="M31.8,79H20.4v5.4h12.7l0,0C32.7,82.6,32.2,80.7,31.8,79L31.8,79z"/>
	<path class="st2" d="M114.1,79h12.2v5.4h-13.5l0,0C113.2,82.6,113.6,80.7,114.1,79L114.1,79z"/>
	<path class="st3" d="M73.9,37.2H72l0,0c0,0.2,0,0.3,0,0.5c0,0,0,0,0,0.1c0,1.9-1.3,3.6-3.4,3.9c-2.2,0.3-4.6-0.9-5.7-2.9
		c-1,0.7-2.1,1.5-3.3,2.2c-10.5,6.4-21.3,8.5-26,5.4l0,0L31.2,45l-9,9.7l0,0c8.7,15.8,14,36.7,14,59.5c0,5.3-0.3,10.6-0.8,15.7
		c5.2,2.5,9.7,6.2,13,10.8l0,0h0l0,0c4.2,5.9,9.2,10.8,14.9,14.2c0.5,0.2,1.1,0.4,1.7,0.4c1.1,0,2.1-0.4,2.7-1
		c0.7-1.1,1.8-1.8,2.9-1.5c1.3,0.3,2.2,1.9,2,3.7l0,0h0.7l0,0c-0.2-1.8,0.6-3.5,2-3.7c1-0.2,2.2,0.4,2.9,1.5c0.6,0.6,1.6,1,2.7,1
		c0.6,0,1.2-0.1,1.7-0.4c5.6-3.5,10.7-8.3,14.9-14.2l0,0h0l0,0c3.3-4.6,7.8-8.3,13-10.8c-0.6-5.1-0.8-10.3-0.8-15.7
		c0-22.9,5.3-43.8,14-59.5l0,0l-9-9.7l-2.4,1.3l0,0c-4.7,3.1-15.6,1-26-5.4c-1.1-0.7-2.2-1.4-3.3-2.2c-1.1,2-3.5,3.2-5.7,2.9
		c-2.1-0.3-3.4-1.9-3.4-3.9c0,0,0,0,0-0.1C73.8,37.5,73.8,37.4,73.9,37.2L73.9,37.2z"/>
	<path class="st0" d="M85.6,59.4c3.9,1.7,8.5,2.2,12.7,2.2c1.7,0,3.4-0.1,5.1-0.2l0,0l4.9,5.5l-1.6,5.2l0,0
		c-2.8,9.3-4.5,18.6-5.5,28.2c-0.6,6.3-0.8,12.5-0.7,18.8c0,2.1,0.1,4.1,0.2,6.2l0,0l-3,1.9l0,0c-3.9,2.7-6.9,6.4-9.4,10.4
		c-1.4,2.4-3.6,4.3-5.9,5.7c-2.9,1.7-6.1,2.6-9.5,2.5c-5.6,0.1-10.7-2.4-14.3-6.6l0,0l-2.1-3l0,0c-2.4-3.6-5.3-6.8-8.9-9.2l0,0
		l-2.6-1.7l0.2-4.4l-1.1-25l0,0c-1.1-8.1-2.7-16-5-23.8l0,0l-1.6-5.2l4.9-5.5l0,0c1.6,0.1,3.2,0.2,4.7,0.2c4.4,0,9.3-0.4,13.3-2.3
		c0.5-0.3,1-0.5,1.5-0.8c3.5-1.3,7.7-1.2,10.9,0.8c3.3-2,7.4-2.1,10.9-0.8C84.5,58.7,85,59.1,85.6,59.4L85.6,59.4z"/>
	<path class="st2" d="M72.9,65.3c1.5-1.9,3.7-3.1,6.3-3.1c1.1,0,2.1,0.2,3.1,0.6c3.4,2,9.3,3.3,16,3.3c1.1,0,2.1,0,3.1-0.1l0,0
		l1.6,1.9l0,0c-4.7,14.4-7.3,30.5-7.3,47.5c0,2.5,0.1,4.9,0.2,7.3c-4.5,2.9-8.5,7.3-11.9,12.8c-2.5,3.3-6.5,5.5-10.9,5.5
		c-0.1,0-0.2,0-0.3,0c-0.1,0-0.2,0-0.3,0c-4.5,0-8.4-2.2-10.9-5.5c-3.3-5.6-7.4-10-11.9-12.8c0.1-2.4,0.2-4.9,0.2-7.3
		c0-17-2.6-33.1-7.3-47.5l0,0l1.6-1.8l0,0c1,0.1,2.1,0.1,3.1,0.1c6.7,0,12.6-1.3,16-3.3c1-0.4,2-0.6,3.1-0.6
		C69.2,62.2,71.5,63.4,72.9,65.3L72.9,65.3z"/>
	<path class="st4" d="M67.2,93h11.5v13.9l0,0l0,0c0,2.4-2.6,4.3-5.8,4.3s-5.8-1.9-5.8-4.3l0,0l0,0L67.2,93L67.2,93z"/>
	<path class="st5" d="M76.3,108.5c-1,0-1.8-0.8-1.8-1.8c0-1,0.8-1.8,1.8-1.8c1,0,1.8,0.8,1.8,1.8C78.1,107.7,77.3,108.5,76.3,108.5
		L76.3,108.5z"/>
	<path class="st5" d="M69.6,108.5c-1,0-1.8-0.8-1.8-1.8c0-1,0.8-1.8,1.8-1.8c1,0,1.8,0.8,1.8,1.8C71.4,107.7,70.6,108.5,69.6,108.5
		L69.6,108.5z"/>
	<path class="st5" d="M72.9,99.6c1,0,1.8,0.8,1.8,1.8s-0.8,1.8-1.8,1.8c-1,0-1.8-0.8-1.8-1.8S71.9,99.6,72.9,99.6L72.9,99.6z"/>
	<path class="st5" d="M76.3,94.2c1,0,1.8,0.8,1.8,1.8s-0.8,1.8-1.8,1.8c-1,0-1.8-0.8-1.8-1.8S75.3,94.2,76.3,94.2L76.3,94.2z"/>
	<path class="st5" d="M69.6,97.8c-1,0-1.8-0.8-1.8-1.8s0.8-1.8,1.8-1.8c1,0,1.8,0.8,1.8,1.8S70.6,97.8,69.6,97.8L69.6,97.8z"/>
	<path class="st4" d="M81,93h11.5v13.9l0,0l0,0c0,2.4-2.6,4.3-5.8,4.3s-5.8-1.9-5.8-4.3l0,0l0,0L81,93L81,93z"/>
	<path class="st5" d="M90.1,108.5c-1,0-1.8-0.8-1.8-1.8c0-1,0.8-1.8,1.8-1.8c1,0,1.8,0.8,1.8,1.8C91.9,107.7,91.1,108.5,90.1,108.5
		L90.1,108.5z"/>
	<path class="st5" d="M83.5,108.5c-1,0-1.8-0.8-1.8-1.8c0-1,0.8-1.8,1.8-1.8c1,0,1.8,0.8,1.8,1.8C85.3,107.7,84.5,108.5,83.5,108.5
		L83.5,108.5z"/>
	<path class="st5" d="M86.8,99.6c1,0,1.8,0.8,1.8,1.8s-0.8,1.8-1.8,1.8c-1,0-1.8-0.8-1.8-1.8C85,100.4,85.8,99.6,86.8,99.6
		L86.8,99.6z"/>
	<path class="st5" d="M90.1,94.2c1,0,1.8,0.8,1.8,1.8s-0.8,1.8-1.8,1.8c-1,0-1.8-0.8-1.8-1.8C88.3,95.1,89.2,94.2,90.1,94.2
		L90.1,94.2z"/>
	<path class="st5" d="M83.5,97.8c-1,0-1.8-0.8-1.8-1.8c0-1,0.8-1.8,1.8-1.8c1,0,1.8,0.8,1.8,1.8S84.5,97.8,83.5,97.8L83.5,97.8z"/>
	<path class="st4" d="M53.3,93h11.5v13.9l0,0l0,0c0,2.4-2.6,4.3-5.8,4.3c-3.2,0-5.8-1.9-5.8-4.3l0,0l0,0L53.3,93L53.3,93z"/>
	<path class="st5" d="M62.4,108.5c-1,0-1.8-0.8-1.8-1.8c0-1,0.8-1.8,1.8-1.8c1,0,1.8,0.8,1.8,1.8C64.2,107.7,63.4,108.5,62.4,108.5
		L62.4,108.5z"/>
	<path class="st5" d="M55.7,108.5c-1,0-1.8-0.8-1.8-1.8c0-1,0.8-1.8,1.8-1.8c1,0,1.8,0.8,1.8,1.8C57.5,107.7,56.7,108.5,55.7,108.5
		L55.7,108.5z"/>
	<path class="st5" d="M59,99.6c1,0,1.8,0.8,1.8,1.8s-0.8,1.8-1.8,1.8c-1,0-1.8-0.8-1.8-1.8C57.2,100.4,58,99.6,59,99.6L59,99.6z"/>
	<path class="st5" d="M62.4,94.2c1,0,1.8,0.8,1.8,1.8s-0.8,1.8-1.8,1.8c-1,0-1.8-0.8-1.8-1.8C60.6,95.1,61.4,94.2,62.4,94.2
		L62.4,94.2z"/>
	<path class="st5" d="M55.7,97.8c-1,0-1.8-0.8-1.8-1.8c0-1,0.8-1.8,1.8-1.8c1,0,1.8,0.8,1.8,1.8S56.7,97.8,55.7,97.8L55.7,97.8z"/>
	<path class="st4" d="M67.2,70.8h11.5v13.9l0,0l0,0c0,2.4-2.6,4.3-5.8,4.3s-5.8-1.9-5.8-4.3l0,0l0,0L67.2,70.8L67.2,70.8z"/>
	<path class="st5" d="M76.3,86.3c-1,0-1.8-0.8-1.8-1.8s0.8-1.8,1.8-1.8c1,0,1.8,0.8,1.8,1.8C78.1,85.5,77.3,86.3,76.3,86.3
		L76.3,86.3z"/>
	<path class="st5" d="M69.6,86.3c-1,0-1.8-0.8-1.8-1.8c0-1,0.8-1.8,1.8-1.8c1,0,1.8,0.8,1.8,1.8S70.6,86.3,69.6,86.3L69.6,86.3z"/>
	<path class="st5" d="M72.9,77.3c1,0,1.8,0.8,1.8,1.8c0,1-0.8,1.8-1.8,1.8c-1,0-1.8-0.8-1.8-1.8S71.9,77.3,72.9,77.3L72.9,77.3z"/>
	<path class="st5" d="M76.3,72c1,0,1.8,0.8,1.8,1.8c0,1-0.8,1.8-1.8,1.8c-1,0-1.8-0.8-1.8-1.8S75.3,72,76.3,72L76.3,72z"/>
	<path class="st5" d="M69.6,75.6c-1,0-1.8-0.8-1.8-1.8s0.8-1.8,1.8-1.8c1,0,1.8,0.8,1.8,1.8C71.4,74.8,70.6,75.6,69.6,75.6
		L69.6,75.6z"/>
	<path class="st4" d="M67.2,115.3h11.5v13.9l0,0l0,0c0,2.4-2.6,4.3-5.8,4.3s-5.8-1.9-5.8-4.3l0,0l0,0L67.2,115.3L67.2,115.3z"/>
	<path class="st5" d="M76.3,130.8c-1,0-1.8-0.8-1.8-1.8c0-1,0.8-1.8,1.8-1.8c1,0,1.8,0.8,1.8,1.8C78.1,130,77.3,130.8,76.3,130.8
		L76.3,130.8z"/>
	<path class="st5" d="M69.6,130.8c-1,0-1.8-0.8-1.8-1.8c0-1,0.8-1.8,1.8-1.8c1,0,1.8,0.8,1.8,1.8C71.4,130,70.6,130.8,69.6,130.8
		L69.6,130.8z"/>
	<path class="st5" d="M72.9,121.9c1,0,1.8,0.8,1.8,1.8c0,1-0.8,1.8-1.8,1.8c-1,0-1.8-0.8-1.8-1.8C71.1,122.7,71.9,121.9,72.9,121.9
		L72.9,121.9z"/>
	<path class="st5" d="M76.3,116.5c1,0,1.8,0.8,1.8,1.8c0,1-0.8,1.8-1.8,1.8c-1,0-1.8-0.8-1.8-1.8C74.5,117.3,75.3,116.5,76.3,116.5
		L76.3,116.5z"/>
	<path class="st5" d="M69.6,120.1c-1,0-1.8-0.8-1.8-1.8c0-1,0.8-1.8,1.8-1.8c1,0,1.8,0.8,1.8,1.8C71.4,119.3,70.6,120.1,69.6,120.1
		L69.6,120.1z"/>
	<path class="st0" d="M86.5,34.7c0.4,0.3,0.8,0.5,1.2,0.8c10.8,6.6,22,8.7,26.5,5.1l0,0l2.3-1.6l13.4,14.4l0,0
		c-9.1,15.9-14.8,37.3-14.8,60.8c0,6.3,0.4,12.4,1.2,18.3c-6.4,2.8-11.8,7.5-15.4,13.3c-4.2,5.9-9.3,10.7-14.9,14.1l0,0v0l0,0
		c-1.4,0.9-3.4,1.5-5.6,1.5c-1.3,0-2.5-0.2-3.6-0.6l0,0v0l0,0c-1.3-0.4-2.3-1.2-2.9-2.3c-0.2-0.4-0.3-0.8-0.4-1.2c0,0,0,0,0,0
		c-0.5-2.1,0.4-4.1,1.9-4.4c1-0.2,2.2,0.4,2.9,1.5c0.6,0.6,1.6,1,2.7,1c0.6,0,1.2-0.1,1.7-0.4c5.6-3.5,10.7-8.3,14.9-14.2l0,0h0l0,0
		c3.3-4.6,7.8-8.3,13-10.8c-0.6-5.1-0.8-10.3-0.8-15.7c0-22.9,5.3-43.8,14-59.5l0,0l-9-9.7l-2.4,1.3l0,0c-4.7,3.1-15.6,1-26-5.4
		c-1.1-0.7-2.2-1.4-3.3-2.2c-1.1,2-3.5,3.2-5.7,2.9c-2.1-0.3-3.4-1.9-3.4-3.9c0,0,0,0,0-0.1c0-0.4,0.1-0.9,0.2-1.3
		c0.8-2.5,3.5-4.2,6-3.9C82.5,32.9,84.7,33.7,86.5,34.7L86.5,34.7z"/>
	<path class="st0" d="M59.3,34.7c-0.4,0.3-0.8,0.5-1.2,0.8c-10.8,6.6-22,8.7-26.5,5.1l0,0L29.3,39L15.9,53.4l0,0
		c9.1,15.9,14.8,37.3,14.8,60.8c0,6.3-0.4,12.4-1.2,18.3c6.4,2.8,11.8,7.5,15.4,13.3c4.2,5.9,9.3,10.7,14.9,14.1l0,0v0l0,0
		c1.4,0.9,3.4,1.5,5.6,1.5c1.3,0,2.5-0.2,3.6-0.6l0,0v0l0,0c1.3-0.4,2.3-1.2,2.9-2.3c0.2-0.4,0.3-0.8,0.4-1.2c0,0,0,0,0,0
		c0.5-2.1-0.4-4.1-1.9-4.4c-1-0.2-2.2,0.4-2.9,1.5c-0.6,0.6-1.6,1-2.7,1c-0.6,0-1.2-0.1-1.7-0.4c-5.6-3.5-10.7-8.3-14.9-14.2l0,0h0
		l0,0c-3.3-4.6-7.8-8.3-13-10.8c0.6-5.1,0.8-10.3,0.8-15.7c0-22.9-5.3-43.8-14-59.5l0,0l9-9.7l2.4,1.3l0,0c4.7,3.1,15.6,1,26-5.4
		c1.1-0.7,2.2-1.4,3.3-2.2c1.1,2,3.5,3.2,5.7,2.9c2.1-0.3,3.4-1.9,3.4-3.9c0,0,0,0,0-0.1c0-0.4-0.1-0.9-0.2-1.3
		c-0.8-2.5-3.5-4.2-6-3.9C63.3,32.9,61.1,33.7,59.3,34.7L59.3,34.7z"/>
	<path class="st6" d="M58.7,56.4l-1.5-10.8l5.5-0.8l0.3,1.9L59,47.2l0.4,2.5l3.4-0.5l0.3,1.9l-3.4,0.5l0.6,4.5L58.7,56.4L58.7,56.4z
		 M65.1,55.5l-0.3-2.2l1.6-0.2l0.3,2.2L65.1,55.5L65.1,55.5z"/>
	<path class="st6" d="M82.8,55.3l1.8-10.7l5.4,0.9l-0.3,1.9l-3.8-0.7l-0.4,2.5l3.4,0.6l-0.3,1.9L85.2,51l-0.8,4.5L82.8,55.3
		L82.8,55.3z M89.2,56.4l0.4-2.2l1.6,0.3l-0.4,2.2L89.2,56.4L89.2,56.4z"/>
	<path class="st6" d="M74.9,47.6c0-1.1-0.5-1.6-1.3-1.6l0,0H72v3.2h1.6l0,0C74.4,49.3,74.9,48.8,74.9,47.6L74.9,47.6z M76.6,47.6
		c0,2.5-1,3.5-2.8,3.5l0,0H72v4h-1.7V44.2h3.6l0,0C75.5,44.2,76.6,45.3,76.6,47.6L76.6,47.6z M77.7,55.1v-2.2h1.7v2.2H77.7
		L77.7,55.1z"/>
</g>
</svg>
