<?xml version="1.0" encoding="utf-8"?>
<!-- Generator: Adobe Illustrator 26.0.2, SVG Export Plug-In . SVG Version: 6.00 Build 0)  -->
<svg version="1.1"
	 id="svg2" xmlns:cc="http://creativecommons.org/ns#" xmlns:dc="http://purl.org/dc/elements/1.1/" xmlns:inkscape="http://www.inkscape.org/namespaces/inkscape" xmlns:rdf="http://www.w3.org/1999/02/22-rdf-syntax-ns#" xmlns:sodipodi="http://sodipodi.sourceforge.net/DTD/sodipodi-0.dtd" xmlns:svg="http://www.w3.org/2000/svg"
	 xmlns="http://www.w3.org/2000/svg" xmlns:xlink="http://www.w3.org/1999/xlink" x="0px" y="0px" width="800px" height="991.3px"
	 viewBox="0 0 800 991.3" style="enable-background:new 0 0 800 991.3;" xml:space="preserve">
<style type="text/css">
	.st0{fill-rule:evenodd;clip-rule:evenodd;fill:#CC3333;}
	.st1{fill-rule:evenodd;clip-rule:evenodd;fill:#B42326;}
	.st2{fill-rule:evenodd;clip-rule:evenodd;fill:#B51D21;}
	.st3{fill-rule:evenodd;clip-rule:evenodd;fill:#FFCF01;}
	.st4{fill-rule:evenodd;clip-rule:evenodd;fill:url(#path4501_00000005250819075462196990000006459512569127467161_);}
	.st5{fill-rule:evenodd;clip-rule:evenodd;fill:#FDCE04;}
	.st6{fill-rule:evenodd;clip-rule:evenodd;fill:#F69019;}
	.st7{fill-rule:evenodd;clip-rule:evenodd;fill:#FCCD05;}
	.st8{fill-rule:evenodd;clip-rule:evenodd;fill:#FEC30E;}
	.st9{fill-rule:evenodd;clip-rule:evenodd;fill:#D64820;}
	.st10{fill-rule:evenodd;clip-rule:evenodd;fill:#F6771B;}
	.st11{fill-rule:evenodd;clip-rule:evenodd;fill:#FCBE14;}
	.st12{fill-rule:evenodd;clip-rule:evenodd;fill:#861718;}
	.st13{fill-rule:evenodd;clip-rule:evenodd;fill:#FECE03;}
	.st14{fill-rule:evenodd;clip-rule:evenodd;fill:#7E272A;}
	.st15{fill:#7E272A;}
	.st16{fill:#FFCF01;}
	.st17{fill:#EA1D24;}
	.st18{fill-rule:evenodd;clip-rule:evenodd;fill:#F8CC0A;}
	.st19{fill-rule:evenodd;clip-rule:evenodd;fill:#F2901B;}
	.st20{fill-rule:evenodd;clip-rule:evenodd;fill:#EA1D24;}
	.st21{fill-rule:evenodd;clip-rule:evenodd;fill:url(#path4546_00000003068710725954333060000001893323453735183269_);}
	.st22{fill:#FFFFFF;}
</style>
<sodipodi:namedview  bordercolor="#666666" borderopacity="1.0" id="base" inkscape:current-layer="layer1" inkscape:cx="389.07949" inkscape:cy="846.25927" inkscape:document-units="px" inkscape:pageopacity="0.0" inkscape:pageshadow="2" inkscape:window-height="691" inkscape:window-maximized="1" inkscape:window-width="1280" inkscape:window-x="0" inkscape:window-y="1" inkscape:zoom="0.31773073" pagecolor="#ffffff" showgrid="false" units="px">
	</sodipodi:namedview>
<g id="layer1" transform="translate(0,-61.062161)" inkscape:groupmode="layer" inkscape:label="Calque 1">
	<g id="g4725" transform="matrix(0.59549692,0,0,0.59549692,210.76616,366.73123)">
		<path id="path4717" inkscape:connector-curvature="0" sodipodi:nodetypes="ccsscsscc" class="st0" d="M317.8-469.2
			c-182.2,8-375.1,52.5-523.6,124.4C-349-3.3-348.2,250.9-302.1,449.3C-264.9,609.3-186,735.5-86,848.5
			c108.1,122.2,260,223.4,403.7,292.2c143.8-68.9,295.6-170,403.7-292.2c100-113,178.9-239.2,216.1-399.2
			c46.1-198.4,46.9-452.6-96.2-794.2C692.8-416.7,499.9-461.3,317.8-469.2z"/>
		
			<path id="path4725" inkscape:connector-curvature="0" sodipodi:nodetypes="ccccsccscccsssccssscccccccccscscccscccccccc" class="st1" d="
			M-283.8,525.1c112.1-85,182.1-166.6,257.2-280c34.1-26.7,65.3-55,116-72.7C272.8,119.2,318.8,36.8,350.2,8.9c0,0,3.9,1.4,5.5,5
			c6.7,15.1,15.1,32.7,30.7,35.6c21.1-0.6,67.6-11.8,104.2-32.8c6.3-1.2,11.2-2,16.7-4.4C566-13.5,648-12.7,658.7,61.6
			c9.3,0.4,18.1-0.4,25.8-3.4L682.7,74c18.7-12.7,23.6-47.2,22.6-68.2c-1.4-31.1-19.5-57.9-45.6-78.1
			c-30.9-23.9-68.4-38.6-88.2-40.8c-39.4-4.3-80.2-1.5-113.3,11.3c3.2-35.3,16.8-60,33.4-79.1c27.9-32,59-44.3,88.9-44.6
			c21.8-0.2,50.6,7.1,69.7,23.3c11.8,10,28.7,24,36.6,26.3c11.8,3.5,20.8-4.2,25.8-28.1c6.1-5.3,15.3-16.9,20.3-31.9L702-215.3
			c-27.9-49.1-6.7-106.7,74.5-127.8l1.7,40.3c12.4-10.7,13.8-7.9,18.8-36.5c11.6-8.7,14.2-33.5,2.8-23.3l-85.5-30.9l-411.4-9.3
			c-53,22.3-91.6,59.3-121.1,103.3c-35.3,52.7-86,130.8-135,180.1c4.7-72.9-77.4-95.3-167.5-58.7c-36.8,15-92.9,44-177.5,151
			l-23.1,103.5c52.5-57.9,128.3-155.7,172-181.8c47.4-26.4,85.8-26.4,106.6-19.6c24.7,8,45.2,23.7,52.8,44l-44.5,38.6
			c-85,4.2-183.3,57.7-207.7,76.9c-42.6,28.2-74.2,68.3-104.6,111.8l-4.7,102.3c33.6-50.1,82.8-112.4,125.8-131.2L-305,379.8
			L-283.8,525.1z"/>
		<g id="g7080">
			<path id="path6851" inkscape:connector-curvature="0" class="st2" d="M16,823.2v48.1c4.2,4.5,8.5,9.1,12.9,13.6v-61.8H16V823.2z"
				/>
			<path id="path6849" inkscape:connector-curvature="0" class="st2" d="M46.6,823.2v79.2c4.5,4.3,9.2,8.6,13.9,12.9v-92.1
				L46.6,823.2L46.6,823.2z"/>
			<path id="path6847" inkscape:connector-curvature="0" class="st2" d="M77.7,823.2v107.7c4.6,3.9,9.2,7.8,13.9,11.6V823.2H77.7z"
				/>
			<path id="path6845" inkscape:connector-curvature="0" class="st2" d="M108.8,956.6c4.6,3.6,9.2,7.1,13.9,10.6v-144h-13.9V956.6z"
				/>
			<path id="path6843" inkscape:connector-curvature="0" class="st2" d="M139.9,823.2V980c4.6,3.3,9.2,6.5,13.9,9.7V823.2H139.9z"/>
			<path id="path6841" inkscape:connector-curvature="0" class="st2" d="M171,1001.4c4.6,3,9.2,5.9,13.9,8.9V823.2H171V1001.4z"/>
			<path id="path6839" inkscape:connector-curvature="0" class="st2" d="M202.1,823.2V1021c4.6,2.7,9.2,5.4,13.9,8.1V823.2H202.1z"
				/>
			<path id="path6837" inkscape:connector-curvature="0" class="st2" d="M233.1,823.2v215.7c4.6,2.5,9.3,4.9,13.9,7.3v-223
				L233.1,823.2L233.1,823.2z"/>
			<path id="path6835" inkscape:connector-curvature="0" class="st2" d="M264.2,823.2V1055c4.6,2.2,9.3,4.4,13.9,6.5V823.2H264.2z"
				/>
			<path id="path6828" inkscape:connector-curvature="0" class="st2" d="M295.3,823.2v246.1c4.6,2,9.3,3.9,13.9,5.7V823.2H295.3z"/>
			<path id="path6885" inkscape:connector-curvature="0" class="st2" d="M619.5,823.2v48.1c-4.2,4.5-8.5,9.1-12.9,13.6v-61.8h12.9
				V823.2z"/>
			<path id="path6887" inkscape:connector-curvature="0" class="st2" d="M588.9,823.2v79.2c-4.5,4.3-9.2,8.6-13.9,12.9v-92.1
				L588.9,823.2L588.9,823.2z"/>
			<path id="path6889" inkscape:connector-curvature="0" class="st2" d="M557.8,823.2v107.7c-4.6,3.9-9.2,7.8-13.9,11.6V823.2H557.8
				z"/>
			<path id="path6891" inkscape:connector-curvature="0" class="st2" d="M526.7,956.6c-4.6,3.6-9.2,7.1-13.9,10.6v-144h13.9V956.6z"
				/>
			<path id="path6893" inkscape:connector-curvature="0" class="st2" d="M495.7,823.2V980c-4.6,3.3-9.2,6.5-13.9,9.7V823.2H495.7z"
				/>
			<path id="path6895" inkscape:connector-curvature="0" class="st2" d="M464.6,1001.4c-4.6,3-9.2,5.9-13.9,8.9V823.2h13.9V1001.4z"
				/>
			<path id="path6897" inkscape:connector-curvature="0" class="st2" d="M433.5,823.2V1021c-4.6,2.7-9.2,5.4-13.9,8.1V823.2H433.5z"
				/>
			<path id="path6899" inkscape:connector-curvature="0" class="st2" d="M402.4,823.2v215.7c-4.6,2.5-9.3,4.9-13.9,7.3v-223
				L402.4,823.2L402.4,823.2z"/>
			<path id="path6901" inkscape:connector-curvature="0" class="st2" d="M371.3,823.2V1055c-4.6,2.2-9.3,4.4-13.9,6.5V823.2H371.3z"
				/>
			<path id="path6903" inkscape:connector-curvature="0" class="st2" d="M340.3,823.2v246.1c-4.6,2-9.3,3.9-13.9,5.7V823.2H340.3z"
				/>
		</g>
		<path id="path4498" inkscape:connector-curvature="0" sodipodi:nodetypes="cccccssc" class="st3" d="M671.3-136.9L688.5,8.6
			c0.1,0.4,0.2,0.7,0.2,1c9.3,0.4,18.1-0.4,25.8-3.4L712.7,22c18.7-12.7,23.6-47.2,22.6-68.2c-1.4-31.1-19.5-57.9-45.6-78.1
			C683.8-128.9,677.6-133,671.3-136.9z"/>
		
			<linearGradient id="path4501_00000070808559364889374170000007736268865232224932_" gradientUnits="userSpaceOnUse" x1="-2668.551" y1="-2432.3418" x2="-2545.3667" y2="-2569.7397" gradientTransform="matrix(0.3546 0 0 0.3546 675.896 808.0519)">
			<stop  offset="0" style="stop-color:#F69019"/>
			<stop  offset="0.6458" style="stop-color:#F69019"/>
			<stop  offset="1" style="stop-color:#ED1E22"/>
		</linearGradient>
		
			<path id="path4501" inkscape:connector-curvature="0" sodipodi:nodetypes="ccccc" style="fill-rule:evenodd;clip-rule:evenodd;fill:url(#path4501_00000070808559364889374170000007736268865232224932_);" d="
			M-274.5-50.1l99.8-86c4.1-3.9,20.8-61.3,24.9-65c-31.3,22.8-69.7,60.8-118.3,122.2L-274.5-50.1z"/>
		<path id="path4504" inkscape:connector-curvature="0" sodipodi:nodetypes="ccccccscc" class="st5" d="M520.2-35.1L337.8-307
			l-122,104.6l89.4,133.5l74.7,26.1c0.1-0.1,0.3-0.3,0.4-0.4c0,0,3.9,1.4,5.5,5c6.7,15.1,15.1,32.7,30.7,35.6
			C437.4-3,483.7-14.2,520.2-35.1z"/>
		<path id="path4519" inkscape:connector-curvature="0" sodipodi:nodetypes="ccccccccc" class="st6" d="M-218,74.7
			c0.7-1.5,1.8-2.9,2.6-4.4l92.9-75.1l48.2-71.9c3.6-2.7,6.6-5.2,10-7.6C-130.7-67-193.3-32-212-17.2
			C-254.6,11-286.2,51.1-316.6,94.6l-4.7,102.3C-290.9,151.6-256.1,98.3-218,74.7z"/>
		<path id="path4521" inkscape:connector-curvature="0" sodipodi:nodetypes="csssssccccccccc" class="st7" d="M-64.2-84.3
			c-3.4,2.4-6.8,4.9-10.4,7.6c-7.7,5.8-15.9,12.4-24.4,19.6s-17.1,14.8-25.7,22.7c-8.6,7.9-17.2,16.2-25.5,24.5S-166.5,6.8-174,15
			c-0.9,1-1.5,1.8-2.4,2.8l73.1-2.2l109-45.8l52.6-62.1l-17.9-40.1h-0.2L-4.3-94.1C-23.9-93.2-44.2-89.5-64.2-84.3L-64.2-84.3z"/>
		<path id="path4537" inkscape:connector-curvature="0" sodipodi:nodetypes="cccccccccccc" class="st8" d="M79.7-56.1L79.7-56.1
			L-1.6-8.6l-81.5,45l-109,85.5l-75.1,180.7c-0.5,1.2-1.1,2.4-1.6,3.7l159.3-104.1L52.6,75.4c4-2.4,8.1-4.7,12.2-7l99.8-92
			L79.7-56.1z"/>
		<path id="path4543" inkscape:connector-curvature="0" sodipodi:nodetypes="csssssssssssscccccsc" class="st9" d="M-268.8,306.2
			c0.5-1.2,1.1-2.4,1.6-3.7c4-9,8.1-18.2,12.6-27.7c4.5-9.5,9.4-19.3,15-29.6c2.8-5.2,5.8-10.5,8.9-15.9c3.2-5.5,6.5-11.1,10.1-16.8
			s7.4-11.8,11.5-17.9c4.1-6.2,8.5-12.6,13.1-19.2c4.7-6.6,9.6-13.5,14.9-20.6c5.3-7.1,10.9-14.5,16.9-22.1
			c6-7.7,12.3-15.6,19.1-23.8s13.9-16.8,21.4-25.7c7.6-8.9,15.6-18.1,24-27.7c5.4-6.1,11.3-12.6,17.1-19L-143,46l-63.7,23
			c-52.5,87.4-67.8,166.7-95.4,260.3l9.3,19.7c10.6-8.9,16.9-15.2,27.6-24.1C-264.7,324.5-269.2,306.6-268.8,306.2z"/>
		
			<path id="path4524" inkscape:connector-curvature="0" sodipodi:nodetypes="csssssssssssssssssssssssssssccscsssssscccccccsccccssssccc" class="st6" d="
			M-206.6,69.3c16.8-4.2,33-8.2,48.6-12.2c16-4,31.3-8,46-11.9s28.7-8,42.1-12.1c6.7-2.1,13.2-4.2,19.6-6.4s12.5-4.4,18.6-6.7
			s11.7-4.6,17.4-7S-3.1,8,2.2,5.4S12.7,0,17.7-2.8s9.8-5.8,14.5-8.9c4.7-3.1,9.1-6.7,13.4-10S54-28.1,58-31.8s7.7-7.5,11.3-11.4
			s7-8.5,10.3-12.9c2.7-3.6,5.1-7.3,7.2-11.2c1.1-2,2.1-4,3-6s1.8-4.1,2.6-6.3c0.8-2.1,1.5-4.3,2.1-6.6s1.2-4.5,1.7-6.8
			s0.9-4.7,1.2-7.1c0.3-2.4,0.5-4.9,0.7-7.5c0.1-2.4,0.2-4.8,0.1-7.2c-0.1-2.4-0.3-4.9-0.6-7.4c-0.3-2.5-0.8-5.1-1.3-7.7
			c-0.6-2.6-1.3-5.2-2.1-7.9s-1.8-5.5-2.9-8.3s-2.4-5.7-3.8-8.6s-3-5.9-4.8-9c-1.5-2.7-3.2-5.4-5-8.2c-0.3,0.3-0.5,0.6-0.8,0.8
			C62-215.3-15.5-244.7-90.6-229.8c-16.6,3.3-36,11.9-59.2,28.8c-4.1,3.7-8.3,7.2-12.4,11.1c-6.6,6.3-13.1,12.9-19.6,19.7
			c-6.4,6.8-12.7,13.8-18.9,21s-12.2,14.5-18.1,22c-5.9,7.4-11.7,15-17.4,22.6s-11.2,15.2-16.7,22.9c-7.6,10.7-14.6,21.2-21.7,31.6
			l-16.7,74.7c52.5-57.9,128.3-155.7,172-181.8c8-4.5,15.6-7.9,23.1-11c2.9-1.5,13.4-5.5,16.3-6.8l30.7-7.4l32.3,0.7
			c28,3.6,52,29.9,66.4,48.9c9.7,12.8,4.2,34.7,2.7,48L9.1-34.9L-93.7,8.7L-181.6,24c-4.4,5-9,10.2-12.9,15c-3.1,3.8-6,7.6-8.7,11.2
			s-5.1,7.1-7.3,10.5c-2.2,3.4-4.1,6.6-5.8,9.6c-0.9,1.6-1.4,3-2.1,4.4c4.1-2.5,8.1-4.4,12.3-6.2C-206.3,68.8-206.4,69-206.6,69.3z"
			/>
		<path id="path4531" inkscape:connector-curvature="0" sodipodi:nodetypes="ccsssssssssssscccc" class="st10" d="M133.2,116
			c-0.1,0-0.2,0-0.3,0c-3.6,0.6-7.5-0.3-11.1,0.5c-3.6,0.9-7.2,1.9-10.8,3c-3.6,1.1-7.2,2.3-10.8,3.7c-3.6,1.3-7.2,2.8-10.8,4.3
			c-7.2,3.1-14.4,6.5-21.5,10.2s-14.2,7.7-21.2,12s-13.8,8.6-20.6,13.1S12.8,172,6.4,176.6s-12.2,10.9-18.2,15.5
			c-0.2,0.2-0.4,0.5-0.5,0.9s-0.2,1-0.2,1.6c0,1.3,0.1,3,0.4,5c0.5,3.6,1.4,8.2,2.4,12.7c4.4-6.5,8.8-12.6,13.2-19.3
			c34.1-26.7,65.3-55,116-72.7C124.2,118.9,128.5,117.5,133.2,116L133.2,116z"/>
		<path id="path4534" inkscape:connector-curvature="0" sodipodi:nodetypes="cccccssccssssssssssssccccssssc" class="st11" d="
			M332.9-71.4l-46.7,2.1L85.1,63.4l-123.8,93.4l7.4,27.7c0.2,1.9,0.5,4.6,0.9,7.7c0.8,6.2,2.1,14.3,3.4,22.4c1,6.6,2,12.7,2.8,18.2
			c4.8-6.8,9.6-13.4,14.4-20.5c-0.9-4.5-1.9-9.1-2.4-12.7c-0.3-2-0.4-3.7-0.4-5c0-0.7,0.1-1.2,0.2-1.6c0.1-0.4,0.3-0.8,0.5-0.9
			c6-4.6,12.2-9.2,18.6-13.8s13-9.2,19.7-13.7S40,155.7,47,151.5s14-8.2,21.2-12c7.1-3.7,14.3-7.2,21.5-10.2c3.6-1.5,7.2-3,10.8-4.3
			c3.6-1.3,7.2-2.6,10.8-3.7c3.6-1.1,7.2-2.1,10.8-3c3.6-0.9,7.2-1.6,10.7-2.2c0.1,0,0.2,0,0.3,0c3.6-1.1,8.3-3.2,11.8-4.3
			L376.7-44.1c-1.7-0.8-4.5-2.6-6.2-3.4c-3.9-1.7-7.8-3.6-11.9-5.8s-8.3-4.8-12.8-7.9c-2.2-1.6-4.5-3.3-6.9-5.2
			C337-67.9,334.9-69.7,332.9-71.4z"/>
		<path id="path4540" inkscape:connector-curvature="0" sodipodi:nodetypes="csssssssssccccsssssssscccc" class="st5" d="M64.7,68.4
			c-4.1,2.3-8.1,4.6-12.2,7c-8.9,5.3-17.8,10.6-26.7,16S8.3,102.3-0.4,107.9c-8.7,5.5-17.4,11.1-26,16.8
			c-17.2,11.3-34.2,22.9-51,34.6s-33.4,23.7-49.8,35.8c-16.4,12.1-32.6,24.4-48.7,36.8s-31.9,24.9-47.6,37.5s-31.2,25.2-46.6,37.9
			c-10.7,8.8-21.2,17.7-31.8,26.6l3.8,168.2l17.2-8.9c113.7-81.9,185.6-158.9,256.8-260.3c-0.8-5.6-1.7-11.6-2.8-18.2
			c-1.3-8.1-2.5-16.2-3.4-22.4c-0.4-3.1-0.7-5.7-0.9-7.7s-0.2-3.1,0-3.4c3.4-4.8,7.3-9.7,11.5-14.7c4.3-4.9,8.9-9.9,13.9-15
			s10.4-10.2,16.2-15.3s11.8-10.3,18.2-15.6c0.4-0.3,0.9-0.7,1.3-1l35.5-33l-0.8-17.9C64.6,68.6,64.7,68.5,64.7,68.4z"/>
		<path id="path4712" inkscape:connector-curvature="0" class="st12" d="M300.5-469.3c-179.3,0.8-382.4,54.9-526.4,124.5
			C-369-3.3-374.2,250.9-328.1,449.3c37.2,160,110.1,286.1,210.1,399.2C-9.8,970.7,167.7,1096,317.8,1151.4
			c150.1-55.3,327.6-180.6,435.7-302.8c100-113,172.9-239.2,210.1-399.2c46.1-198.4,40.9-452.6-102.2-794.2
			C712.8-416.7,501.2-472,317.8-469.2c182.2,8,345.1,52.5,493.6,124.4C954.5-3.3,963.8,250.9,917.6,449.3
			c-37.2,160-116.1,286.1-216.1,399.2c-108.1,122.2-240,209.4-383.7,278.2C174,1057.9,42.2,970.7-66,848.5
			c-100-113-178.9-239.2-216.1-399.2C-328.2,250.9-319-3.3-175.9-344.9c148.6-71.8,311.5-116.4,493.6-124.4
			C312-469.3,306.3-469.4,300.5-469.3z"/>
		<path id="path4528" inkscape:connector-curvature="0" sodipodi:nodetypes="ccsscsscssscccccc" class="st13" d="M645.8-491.2
			c-9.3-2.1-19.1-5.2-27.4-9.5c-8.8-5-14.7-11.3-21-12.4c-1.2-0.2-2.3-0.3-3.4-0.3c-16.6-0.2-26.7,18.9-25.7,33.8
			c-108-15.7-179.2,1.3-235.4,24.8c-53,22.3-91.6,59.3-121.1,103.3c-35.1,52.4-85.5,129.9-134.2,179.3c1.8,2.8,3.5,5.5,5,8.2
			c1.8,3.1,3.4,6.1,4.8,9s2.7,5.8,3.8,8.6c0.6,1.5,1,2.9,1.6,4.4c0.6-0.7,1.1-1.3,1.7-2l265.9-170L642-390.4l44.1-87.6L645.8-491.2z
			"/>
		<path id="path4414" inkscape:connector-curvature="0" sodipodi:nodetypes="ccccc" class="st3" d="M594.9-456.9
			c-8.9-6.3-22-43.5,10.1-37c9.1,7.8,19.5,10.6,30.2,12.1l16.3,13.6L594.9-456.9z"/>
		<g id="g4773">
			<g id="g6999">
				<path id="path6976" inkscape:connector-curvature="0" class="st14" d="M176.9,216.9v329h76.7V446h39.9l56,75.7
					c12.2,15.7,25.4,23.1,40,24.1h70l-88.2-117.4c97.8-66.8,43.8-211.8-55-211.6H176.9V216.9z M253.6,292.3h54.9
					c18.7-0.5,37.9,19.1,38,39.1c-0.1,19.9-19.3,39.6-38,39.1h-54.9V292.3z"/>
				<path id="path6985" inkscape:connector-curvature="0" class="st14" d="M465.5,216.9v329h75.8v-218l84.7,218h31.7h31.6l84.7-218
					v218h75.8v-329h-90.4c-15.6,0.2-34.9,15.3-40.9,33.4l-56.6,161.4c-2,8.3-3.4,16.3-4.2,24.1c-0.9-7.7-2.2-15.7-4.2-24.1
					l-56.6-161.4c-6-18.1-25.3-33.2-40.9-33.4L465.5,216.9L465.5,216.9z"/>
				<path id="path6992" inkscape:connector-curvature="0" class="st15" d="M-23.4,206.9c-95.3,0-172.5,77.2-172.5,172.5
					s77.2,172.5,172.5,172.5c26,0,51.7-6,75.1-17.3l37.5,50.8c10.5,10.9,20.5,22.4,38.7,22.7l73.3-0.3l-89.6-121.3
					c24.2-30.4,37.4-68.1,37.4-107C149.1,284.1,71.8,206.9-23.4,206.9z"/>
			</g>
			<g id="g6994">
				<path id="path6968" inkscape:connector-curvature="0" sodipodi:nodetypes="ccccccccccccccccc" class="st3" d="M156.9,192.9v329
					h76.7V422h39.9l56,75.7c12.2,15.7,25.4,23.1,40,24.1h70l-88.2-117.4c97.8-66.8,43.8-211.8-55-211.6L156.9,192.9z M233.6,268.3
					h54.9c18.7-0.5,37.9,19.1,38,39.1c-0.1,19.9-19.3,39.6-38,39.1h-54.9V268.3z"/>
				<path id="path6980" inkscape:connector-curvature="0" class="st3" d="M443.5,192.9v329h75.8v-218l84.7,218h31.7h31.6l84.7-218
					v218h75.8v-329h-90.4c-15.6,0.2-34.9,15.3-40.9,33.4l-56.6,161.4c-2,8.3-3.4,16.3-4.2,24.1c-0.9-7.7-2.2-15.7-4.2-24.1
					l-56.6-161.4c-6-18.1-25.3-33.2-40.9-33.4L443.5,192.9L443.5,192.9z"/>
				<path id="path6987" inkscape:connector-curvature="0" class="st16" d="M-43.4,184.9c-95.3,0-172.5,77.2-172.5,172.5
					s77.2,172.5,172.5,172.5c26,0,51.7-6,75.1-17.3l37.5,50.8c10.5,10.9,20.5,22.4,38.7,22.7l73.3-0.3L91.6,464.4
					c24.2-30.4,37.4-68.1,37.4-107C129.1,262.1,51.8,184.9-43.4,184.9z"/>
			</g>
			
				<path id="path3422" inkscape:connector-curvature="0" sodipodi:nodetypes="sccscccscccscccscccscccsccccccsccccccssscccccsccccc" class="st17" d="
				M-46.9,248.8c-17.2,0-32.4,3.8-46.4,10c3.4,2.7,7,5.3,11.1,8c13.4-2.3,24-3.1,32.6-3c6.2,0.1,11.5,0.7,16.2,1.5
				c0.3-0.3,0.7-0.6,1.1-0.9c5.7-3.5,11.1-7.8,17.8-11.5C-26,250.1-36.8,248.8-46.9,248.8z M0.6,257.5c-9.5,2.8-16.3,8.1-24.5,13.5
				c9.9,11.6,17.8,24.2,24.4,37.2c3.5-0.1,6.9-0.1,10.3,0c10.2,0.3,20.1,1.5,29.5,3.5c0.7-8,0.1-17.3-1-27.8
				C27.8,271.9,15.3,261.6,0.6,257.5z M-51.3,273.8c-8,0-18,0.8-30.9,3.2c-12.5,12.1-21.4,26.1-28,41.4
				c5.5,13.4,13.6,26.4,22.7,39.4c6.2-0.2,12.5-0.4,18.6-0.6c13.8-0.3,26.2-0.3,35.2,0.7l25.9-43.8c-6.9-13.7-15-26.6-25.4-38.3
				C-38.3,274.6-44,273.8-51.3,273.8z M49.9,289.1c0.8,9.4,1.1,18.1,0.1,26.3c9.6,12.4,15.6,26.5,17.8,42.4l3.9,0.4
				c0-0.7,0.1-1.5,0.1-2.2C71.7,332,64.1,308.6,49.9,289.1z M4.2,318.1c-1,0-1.9,0-2.9,0.1l-26.9,45.7l21.5,43
				c14.6,3.4,24.7,3,39.3,1c10-13.3,18.3-26.2,23.3-42.9c-1.2-16.2-6.5-30-15.8-42.4C30.6,319.6,17.8,318,4.2,318.1z M-58.8,366.9
				c-3.2,0-6.5,0.1-9.8,0.2c-5.5,0.1-11.1,0.3-16.8,0.5c-4.9,15.1-8.3,30.2-10.5,43.8c8,9.5,23.4,21.6,43.5,27.2
				c11.9-6.3,29.1-15.7,37.6-30.6l-20.1-40.3C-40.8,367-49.3,366.8-58.8,366.9z M66.1,373.7c-5.6,15.6-13.9,28.1-23.2,40.4
				c0.6,6.2,1.4,10.9,2.2,15c13.1-15.7,21.8-34.7,25-54.9L66.1,373.7z"/>
		</g>
		
			<path id="path4516" inkscape:connector-curvature="0" sodipodi:nodetypes="ccssssssssssssssssssscsscsssscssssssssssssssscssssssssssssssscscc" class="st18" d="
			M39.8-132.5H40c1,2.5,1.9,5.2,2.7,7.9c0.8,2.8,1.4,5.6,1.8,8.6c0.4,3,0.7,6,0.7,9.1s-0.1,6.2-0.5,9.3c-0.4,3.1-1.1,6.3-2,9.4
			s-2.2,6.3-3.7,9.3s-3.4,6.1-5.6,9c-1.1,1.5-2.3,2.9-3.6,4.3c-1.3,1.4-2.7,2.8-4.1,4.2c-2.9,2.8-6.1,5.5-9.6,8.2S9-47.5,5-44.7
			s-8.3,5.4-12.9,8.1s-9.5,5.4-14.8,8s-11,5.3-17,7.9s-12.5,5.2-19.4,7.7s-14.2,5.1-22,7.6S-97.2-0.5-106,2
			c-5.7,1.6-11.9,3.1-18.4,4.6c-6.5,1.5-13.2,3-20.1,4.4c-13.7,2.9-27.9,5.8-41.1,8.7c2.4,3,4.6,5.4,6.6,7.2c2,1.9,3.8,3.3,5.6,4.5
			c3.5,2.4,6.8,3.8,10.6,6.3c1.5,0,3.2-0.1,5.2-0.3s4.2-0.5,6.6-1c4.8-0.9,11-1.6,17.1-3.2c6.1-1.6,12.7-3.5,19.5-5.6
			s13.8-4.5,20.7-7c5.7-1.8,11.4-3.6,16.9-5.5s11-3.9,16.4-5.9s10.9-4.1,16-6.2s10.2-4.4,15.1-6.7s9.7-4.6,14.3-7.1
			s9.1-4.9,13.4-7.5s8.8-5.2,12.8-7.9s7.7-5.5,11.3-8.3s6.4-6.3,9.6-9.3c3.2-3,6.1-6.1,8.8-9.2s5.2-6.4,7.4-9.7
			c2.2-3.3,4.2-6.7,5.9-10.2c1.7-3.5,3.1-7,4.3-10.7c1.2-3.6,2-7.3,2.6-11.1s0.8-7.7,0.8-11.6s-0.4-8-1.1-12.2
			c-0.5-2.6-1.3-5.2-2.2-7.9c-1-2.7-2.1-5.4-3.5-8.1c-1.4-2.7-2.9-5.4-4.7-8.1s-3.7-5.4-5.8-8s-4.5-5.2-7-7.6
			c-2.5-2.5-5.2-4.8-8.1-7.1c-2.9-2.2-5.9-4.4-9.1-6.3c-3.2-2-6.6-3.8-10.2-5.4s-7.3-3.4-11.2-4.6s-7.9-2.2-12.1-3s-9-1.2-13.5-1.5
			s-9.2-0.1-14,0.2c-4.8,0.4-9.7,1.1-14.8,2.1s-10.3,2.4-15.7,4.2c-5.4,1.8-10.8,4.2-16.4,6.8c-2.8,1.3-5.8,3-8.7,4.5
			c36.7-15,66.3-14.3,83.6-8.6c24.7,8,45.2,23.7,52.8,44L39.8-132.5z"/>
		
			<path id="path4446" inkscape:connector-curvature="0" sodipodi:nodetypes="ccsssssssssssssssssssssssssssssscssssssssssscsssssssssssssssscssssssscsssssssccsssssssscssssssssssssssssssccscsssssssssssssscsccsssccccccsccccc" class="st19" d="
			M645.8-491.2l-54.5,99.6c-7.3-2.3-14.6-4.5-21.8-6.5s-14.4-3.8-21.5-5.4s-14.1-3.1-21.1-4.4s-13.9-2.4-20.7-3.4
			c-6.9-1-13.6-1.7-20.4-2.4c-6.7-0.6-13.4-1.1-20-1.4s-13.1-0.4-19.6-0.4s-12.9,0.2-19.2,0.6c-6.3,0.4-12.6,0.9-18.8,1.5
			s-12.3,1.5-18.3,2.5s-12,2.1-17.9,3.4s-11.7,2.7-17.5,4.3s-11.4,3.3-17,5.2s-11.1,3.9-16.5,6s-10.8,4.5-16.1,6.9s-10.5,5-15.6,7.7
			c-2.7,1.4-5.3,2.9-7.9,4.5s-5.2,3.2-7.8,5c-5.1,3.5-10.1,7.3-15.1,11.3c-4.9,4.1-9.8,8.4-14.6,12.9s-9.5,9.4-14.1,14.3
			s-9.2,10.2-13.7,15.5c-4.5,5.3-8.9,10.8-13.3,16.5c-4.4,5.6-8.7,11.4-12.9,17.2s-8.4,11.7-12.6,17.7c-8.3,11.9-16.4,24-24.4,35.9
			c-8,12-15.9,23.8-23.7,35.2c-3.9,5.7-7.8,11.3-11.7,16.8c-3.9,5.5-7.7,10.8-11.6,15.9c-3.9,5.1-7.7,10.1-11.6,14.8
			c-0.6,0.7-1.1,1.3-1.7,2c0.5,1.3,1,2.6,1.4,3.9c0.8,2.7,1.5,5.3,2.1,7.9c0.6,2.6,1,5.2,1.3,7.7s0.5,5,0.6,7.4
			c0.1,2.4,0.1,4.9-0.1,7.2c-0.1,2.5-0.4,5-0.7,7.5c-0.3,2.4-0.7,4.8-1.2,7.1c-0.5,2.3-1,4.6-1.7,6.8S93-82,92.2-79.8
			s-1.6,4.2-2.6,6.3c-0.9,2-1.9,4-3,6c-2.1,3.9-4.6,7.6-7.2,11.2c1,1.5,1.5,3,2.4,4.5c1.1,1.8,2.1,3.7,3,5.5s1.7,3.7,2.4,5.7
			c0.7,1.9,1.3,3.8,1.9,5.8s1,3.9,1.4,5.9s0.7,4,0.9,6c0.5,4,0.6,8.1,0.4,12.3c0.2,4.2-0.2,8.4-0.9,12.7s-1.6,8.6-2.8,12.9
			s-2.6,8.8-4.2,13.2s-3.5,8.9-5.5,13.4s-4.3,9-6.6,13.5s-4.9,9.1-7.6,13.6c-2.7,4.6-5.5,9.1-8.4,13.7c-2.9,4.6-6,9.1-9.1,13.7
			c-3.1,4.5-6.4,9.1-9.6,13.6c-2.4,3.3-4.5,6.6-7,9.9c6-4.9,12.2-9.8,18.7-14.8c7-5.3,14.2-10.6,21.7-16S85.7,78,93.7,72.6
			s16.1-10.8,24.5-16.3c16.7-10.9,34.2-21.9,52.2-32.8s36.4-22,55.2-32.9s37.4-22,56.4-32.8c16.9-9.7,33.8-19.3,50.6-28.8
			c-0.5-0.4-0.9-0.8-1.4-1.2c-2.6-2.3-5.2-4.8-8-7.5s-5.6-5.7-8.6-9s-6.1-6.8-9.4-10.6c-3.3-3.8-6.7-7.9-10.2-12.4
			c-3.5-4.4-7.2-9.2-11.1-14.3c-3.9-5.1-7.9-10.6-12.1-16.5c-8.4-11.7-17.6-25-27.6-40.1l79.3-85.8c-0.4,9.7-0.4,19.3-0.5,28.7
			s0.1,18.5,0.4,27.5c0.4,9,0.9,17.7,1.7,26.2c0.8,8.5,1.6,16.7,2.9,24.7c0.7,4,1.4,7.9,2.2,11.7c0.8,3.8,1.7,7.6,2.6,11.3
			c0.9,3.7,2,7.3,3,10.9c1,3.6,2.2,7,3.5,10.4s2.6,6.7,4,9.9c1.4,3.2,2.9,6.4,4.4,9.4c1.6,3,3.2,6,4.9,8.9s3.6,5.6,5.5,8.3
			s3.9,5.3,6,7.8c2.1,2.5,4.3,4.9,6.5,7.2c2.3,2.3,4.6,4.5,7.1,6.6c2.5,2.1,5,4.1,7.7,6s5.4,3.7,8.3,5.3s5.8,3.2,8.9,4.7
			s6.3,2.8,9.6,4c3.3,1.2,6.7,2.3,10.2,3.3c3.5,1,7.1,1.8,10.9,2.6s7.6,1.4,11.6,1.8s8.1,0.9,12.3,1.1s8.6,0.3,13,0.3
			c4.5,0,9-0.2,13.8-0.5c4.7-0.3,9.3-0.7,14.3-1.3c5-0.6,10.1-1.3,15.3-2.1c2.1-0.3,4.4-0.8,6.6-1.2c0.1-0.1,0.2-0.1,0.4-0.2
			c6.3-1.2,11.2-2,16.7-4.4c58.4-25.6,139.8-25,151.2,48.3c1.6-2,3.2-4,4.7-6c2.1-3,4.1-5.9,6-8.9s3.5-6,5-9.1s2.8-6.1,3.9-9.2
			s2.1-6.2,2.9-9.4s1.4-6.3,1.7-9.5s0.6-6.5,0.6-9.7c0-3.3-0.2-6.6-0.6-9.9c-0.4-3.3-1-6.7-1.9-10.1c-0.8-3.4-1.9-6.8-3.2-10.3
			s-2.8-6.9-4.6-10.5s-3.7-7.1-5.9-10.7s-4.7-7.2-7.4-10.9s-5.7-7.4-8.9-11.1c-2.9-3.4-6.1-6.8-9.4-10.2
			c-26.3-16.3-53.8-26.4-69.7-28.1c-39.4-4.3-80.2-1.5-113.3,11.3c3.2-35.3,16.8-60,33.4-79.1c27.9-32,59-44.3,88.9-44.6
			c21.8-0.2,50.6,7.1,69.7,23.3c11.8,10,28.7,24,36.6,26.3c11.8,3.5,20.8-4.2,25.8-28.1c6.1-5.3,15.3-16.9,20.2-31.9l-31,20.3
			c-27.9-49.1-6.7-106.7,74.5-127.8l1.7,40.3c12.4-10.7,13.8-7.9,18.8-36.5c11.6-8.7,10.7-23.5,8.8-38.7c-0.1-1-1.8-2.5-1.4-3.5
			c2.7-6.1,3.2-10-1.4-12.1c-32-15.1-81.1-35.9-106.4-41.5c-18-1.9-40.8-2.6-50.8-1.3C670.4-487.3,658.6-488.3,645.8-491.2z"/>
		<path id="path4398" inkscape:connector-curvature="0" sodipodi:nodetypes="cccc" class="st20" d="M707.5-453.5
			c15.4,2.2,28.3,3.3,41,4.6c-3.4,5.5-6.2,11.9-12.8,13.2C728.6-434.9,716-446.8,707.5-453.5z"/>
		
			<linearGradient id="path4546_00000100374951781996724250000012407496950344430504_" gradientUnits="userSpaceOnUse" x1="-1545.384" y1="-1978.7395" x2="-1302.5686" y2="-2113.7686" gradientTransform="matrix(0.3546 0 0 0.3546 675.896 808.0519)">
			<stop  offset="0" style="stop-color:#F18B19"/>
			<stop  offset="0.7172" style="stop-color:#F9B317"/>
			<stop  offset="1" style="stop-color:#FDCE04"/>
		</linearGradient>
		
			<path id="path4546" inkscape:connector-curvature="0" sodipodi:nodetypes="ccccc" style="fill-rule:evenodd;clip-rule:evenodd;fill:url(#path4546_00000100374951781996724250000012407496950344430504_);" d="
			M375.7-45.1l-251.3,125l19.1,32.7C305.7,59.7,349.9-15.9,379.9-42.8C378.4-43.4,377.2-44.5,375.7-45.1z"/>
		<g id="g4699">
			<g id="g4346" transform="translate(1580.2803,89.904784)">
				<path id="path4268" inkscape:connector-curvature="0" class="st22" d="M-1539.8,681h-4.6v15h-9.8v-41.4h16.8
					c10.5,0,15.8,4.4,15.8,13.3c0,6.3-2.8,10.4-8.3,12.1l9.9,16h-10.9L-1539.8,681L-1539.8,681z M-1544.4,672.7h6.9
					c3.9,0,5.8-1.6,5.8-4.9c0-1.7-0.5-3-1.4-3.8s-2.4-1.2-4.4-1.2h-6.9V672.7z"/>
				<path id="path4270" inkscape:connector-curvature="0" class="st22" d="M-1495,696.9c-4.6,0-8.5-0.9-11.7-2.8
					c-3.2-1.9-5.6-4.5-7.2-7.7c-1.6-3.3-2.4-7-2.4-11.1c0-4,0.8-7.7,2.4-10.9s4-5.8,7.2-7.7s7.1-2.9,11.7-2.9c4.5,0,8.4,1,11.6,2.9
					s5.6,4.5,7.2,7.8c1.6,3.2,2.5,6.9,2.5,10.9c0,4.1-0.8,7.8-2.5,11.1c-1.6,3.2-4,5.8-7.2,7.7C-1486.6,696-1490.4,696.9-1495,696.9
					z M-1495,688.6c3.5,0,6.3-1.2,8.3-3.7s3-5.7,3-9.7c0-2.5-0.4-4.8-1.3-6.7c-0.9-2-2.2-3.5-3.9-4.6c-1.7-1.1-3.7-1.7-6-1.7
					c-3.6,0-6.4,1.2-8.4,3.7c-1.9,2.4-2.9,5.6-2.9,9.6s1,7.2,2.9,9.7C-1501.4,687.4-1498.6,688.6-1495,688.6L-1495,688.6z"/>
				<path id="path4272" inkscape:connector-curvature="0" class="st22" d="M-1451.4,696.9c-6,0-10.5-1.5-13.6-4.5
					c-3-3-4.5-7.2-4.5-12.7v-25.1h9.8v25.1c0,3,0.7,5.2,2,6.7c1.4,1.5,3.4,2.2,6.2,2.2c2.7,0,4.8-0.7,6.1-2.2
					c1.4-1.5,2.1-3.7,2.1-6.7v-25.1h9.8v25.1c0,5.5-1.5,9.7-4.5,12.7C-1440.9,695.4-1445.4,696.9-1451.4,696.9L-1451.4,696.9z"/>
				<path id="path4274" inkscape:connector-curvature="0" sodipodi:nodetypes="ccccccccccccc" class="st22" d="M-1395.9,688.1v7.9
					h-30.3v-41.4h30v7.9h-20.2v8.8h17.4v7.9h-17.4v9L-1395.9,688.1z"/>
				<path id="path4276" inkscape:connector-curvature="0" class="st22" d="M-1353.4,654.5V696h-11.3l-14.9-25.5V696h-9.8v-41.4h11.3
					l14.9,25.5v-25.5L-1353.4,654.5L-1353.4,654.5z"/>
				<path id="path4278" inkscape:connector-curvature="0" class="st22" d="M-1282.4,654.5V696h-9.8v-27.3l-9.4,13.6h-4.9l-9.2-13.5
					V696h-9.8v-41.4h11.4l10.2,15.3l10.2-15.3L-1282.4,654.5L-1282.4,654.5z"/>
				<path id="path4280" inkscape:connector-curvature="0" sodipodi:nodetypes="cccccccccccccccccc" class="st22" d="M-1245.6,688.1
					v7.9h-30.2v-41.4h29.9v7.9h-20v8.8h17.3v7.9h-17.3v9L-1245.6,688.1z M-1259.9,643.9h10.8l-6.6,8.4h-9.6L-1259.9,643.9z"/>
				<path id="path4282" inkscape:connector-curvature="0" sodipodi:nodetypes="ccccccccc" class="st22" d="M-1209.3,663h-11.3v33
					h-9.8v-33h-11.3v-8.4h32.5L-1209.3,663z"/>
				<path id="path4284" inkscape:connector-curvature="0" class="st22" d="M-1189.5,681h-4.6v15h-9.8v-41.4h16.8
					c10.5,0,15.8,4.4,15.8,13.3c0,6.3-2.8,10.4-8.3,12.1l9.9,16h-10.9L-1189.5,681L-1189.5,681z M-1194.1,672.7h6.9
					c3.9,0,5.8-1.6,5.8-4.9c0-1.7-0.5-3-1.4-3.8s-2.4-1.2-4.4-1.2h-6.9V672.7z"/>
				<path id="path4286" inkscape:connector-curvature="0" class="st22" d="M-1144.7,696.9c-4.6,0-8.5-0.9-11.7-2.8
					c-3.2-1.9-5.6-4.5-7.2-7.7c-1.6-3.3-2.4-7-2.4-11.1c0-4,0.8-7.7,2.4-10.9s4-5.8,7.2-7.7s7.1-2.9,11.7-2.9c4.5,0,8.4,1,11.6,2.9
					s5.6,4.5,7.2,7.8c1.6,3.2,2.5,6.9,2.5,10.9c0,4.1-0.8,7.8-2.5,11.1c-1.6,3.2-4,5.8-7.2,7.7
					C-1136.2,696-1140.1,696.9-1144.7,696.9z M-1144.7,688.6c3.5,0,6.3-1.2,8.3-3.7s3-5.7,3-9.7c0-2.5-0.4-4.8-1.3-6.7
					c-0.9-2-2.2-3.5-3.9-4.6c-1.7-1.1-3.7-1.7-6-1.7c-3.6,0-6.4,1.2-8.4,3.7c-1.9,2.4-2.9,5.6-2.9,9.6s1,7.2,2.9,9.7
					C-1151.1,687.4-1148.3,688.6-1144.7,688.6L-1144.7,688.6z"/>
				<path id="path4288" inkscape:connector-curvature="0" class="st22" d="M-1100.4,654.5c5.2,0,9.2,1.2,11.8,3.5
					c2.7,2.3,4,5.7,4,10.3c0,4.5-1.3,7.9-4,10.2c-2.6,2.3-6.6,3.5-11.8,3.5h-6.9v14h-9.8v-41.4L-1100.4,654.5L-1100.4,654.5z
					 M-1100.4,673.8c2,0,3.4-0.4,4.4-1.3c0.9-0.9,1.4-2.2,1.5-4.1c0-1.9-0.5-3.3-1.4-4.2s-2.4-1.3-4.4-1.3h-6.9v10.9L-1100.4,673.8
					L-1100.4,673.8z"/>
				<path id="path4290" inkscape:connector-curvature="0" class="st22" d="M-1061.4,696.9c-4.6,0-8.5-0.9-11.7-2.8
					c-3.2-1.9-5.6-4.5-7.2-7.7c-1.6-3.3-2.4-7-2.4-11.1c0-4,0.8-7.7,2.4-10.9s4-5.8,7.2-7.7s7.1-2.9,11.7-2.9c4.5,0,8.4,1,11.6,2.9
					s5.6,4.5,7.2,7.8c1.6,3.2,2.5,6.9,2.5,10.9c0,4.1-0.8,7.8-2.5,11.1c-1.6,3.2-4,5.8-7.2,7.7
					C-1052.9,696-1056.8,696.9-1061.4,696.9z M-1061.4,688.6c3.5,0,6.3-1.2,8.3-3.7s3-5.7,3-9.7c0-2.5-0.4-4.8-1.3-6.7
					c-0.9-2-2.2-3.5-3.9-4.6c-1.7-1.1-3.7-1.7-6-1.7c-3.6,0-6.4,1.2-8.4,3.7c-1.9,2.4-2.9,5.6-2.9,9.6s1,7.2,2.9,9.7
					C-1067.8,687.4-1065,688.6-1061.4,688.6L-1061.4,688.6z"/>
				<path id="path4292" inkscape:connector-curvature="0" sodipodi:nodetypes="ccccccc" class="st22" d="M-1005.9,687.6v8.4h-28.9
					v-41.4h9.8v33H-1005.9z"/>
				<path id="path4294" inkscape:connector-curvature="0" sodipodi:nodetypes="ccccccccccccc" class="st22" d="M-970.8,688.1v7.9
					h-29.7v-41.4h29.4v7.9h-17.5v8.8h14.8v7.9h-14.8v9L-970.8,688.1z"/>
			</g>
			<g id="g4373" transform="translate(1580.2803,89.904784)">
				<path id="path4299" inkscape:connector-curvature="0" sodipodi:nodetypes="scsccscscsccsss" class="st22" d="M-1356.4,626.4
					c-6.6,0-11.5-1.6-14.8-4.9c-3.3-3.3-4.9-7.9-4.9-13.9v-28.2h10.8v28.2c0,3.2,0.7,5.7,2.2,7.3s3.8,2.5,6.8,2.5s5.2-0.8,6.7-2.5
					c1.5-1.6,2.3-4.1,2.3-7.3v-28.2h10.8v28.2c0,6-1.6,10.7-4.9,13.9C-1344.9,624.8-1349.8,626.4-1356.4,626.4z"/>
				<path id="path4301" inkscape:connector-curvature="0" sodipodi:nodetypes="ccccccccccccc" class="st22" d="M-1293.3,617.1v8.6
					h-34.8v-46.3h34.5v8.6h-23.7v10.1h20.7v8.6h-20.7v10.4L-1293.3,617.1z"/>
				<path id="path4303" inkscape:connector-curvature="0" sodipodi:nodetypes="cccccccc" class="st22" d="M-1244,579.4l-15.8,46.3
					h-13.6l-15.9-46.3h11.1l11.7,34.7l11.6-34.7H-1244z"/>
				<path id="path4305" inkscape:connector-curvature="0" sodipodi:nodetypes="ccccc" class="st22" d="M-1236.5,579.4h10.8v46.3
					h-10.8V579.4z"/>
				<path id="path4307" inkscape:connector-curvature="0" sodipodi:nodetypes="ccccccc" class="st22" d="M-1183.8,616.5v9.2h-33.3
					v-46.3h10.8v37.1H-1183.8z"/>
				<path id="path4309" inkscape:connector-curvature="0" sodipodi:nodetypes="ccccccc" class="st22" d="M-1144.3,616.5v9.2h-33.3
					v-46.3h10.8v37.1H-1144.3z"/>
				<path id="path4311" inkscape:connector-curvature="0" sodipodi:nodetypes="cccccccccc" class="st22" d="M-1123.8,607.2v18.5
					h-10.5v-18.5l-15.4-27.8h10.8l9.9,18.2l10-18.2h10.8L-1123.8,607.2z"/>
				<path id="ellipse4339" inkscape:connector-curvature="0" class="st22" d="M-1408,579.4c-13.5,0-24.4,10.9-24.4,24.4
					s10.9,24.4,24.4,24.4c4.7,0,9.3-1.4,13.2-3.9l5.1,5.1l7.1-7.1l-5-5c2.7-4,4.1-8.7,4.1-13.5
					C-1383.6,590.3-1394.5,579.4-1408,579.4z M-1408,589.4c7.5,0,13.5,6.5,13.5,14.5c0,1.9-0.4,3.8-1.1,5.6l-6.5-6.5l-7.1,7.1
					l6.9,6.9c-1.8,0.9-3.7,1.4-5.7,1.4c-7.5,0-13.5-6.5-13.5-14.5C-1421.5,595.8-1415.5,589.4-1408,589.4L-1408,589.4z"/>
			</g>
		</g>
	</g>
</g>
</svg>
