<?xml version="1.0" encoding="utf-8"?>
<!-- Generator: Adobe Illustrator 26.0.2, SVG Export Plug-In . SVG Version: 6.00 Build 0)  -->
<svg version="1.1"
	 id="svg4726" xmlns:cc="http://creativecommons.org/ns#" xmlns:dc="http://purl.org/dc/elements/1.1/" xmlns:inkscape="http://www.inkscape.org/namespaces/inkscape" xmlns:rdf="http://www.w3.org/1999/02/22-rdf-syntax-ns#" xmlns:sodipodi="http://sodipodi.sourceforge.net/DTD/sodipodi-0.dtd" xmlns:svg="http://www.w3.org/2000/svg"
	 xmlns="http://www.w3.org/2000/svg" xmlns:xlink="http://www.w3.org/1999/xlink" x="0px" y="0px" width="490px" height="665px"
	 viewBox="0 0 490 665" style="enable-background:new 0 0 490 665;" xml:space="preserve">
<style type="text/css">
	.st0{fill:#FFD400;}
	.st1{fill:#FFFFFF;}
	.st2{fill:#C41315;}
</style>
<defs>
	
		<inkscape:perspective  id="perspective4734" inkscape:persp3d-origin="372.04724 : 350.78739 : 1" inkscape:vp_x="0 : 526.18109 : 1" inkscape:vp_y="0 : 1000 : 0" inkscape:vp_z="744.09448 : 526.18109 : 1" sodipodi:type="inkscape:persp3d">
		</inkscape:perspective>
</defs>
<sodipodi:namedview  bordercolor="#666666" borderopacity="1.0" id="base" inkscape:current-layer="layer1" inkscape:cx="49" inkscape:cy="267.66561" inkscape:document-units="px" inkscape:pageopacity="0.0" inkscape:pageshadow="2" inkscape:window-height="706" inkscape:window-maximized="1" inkscape:window-width="1366" inkscape:window-x="-8" inkscape:window-y="-8" inkscape:zoom="0.79314854" pagecolor="#ffffff" showgrid="false">
	</sodipodi:namedview>
<g id="LENS">
	<path d="M480.7,21.2L246.5-0.3l-0.9-0.1l-0.9,0.1L10.3,21.2L1,22v9.4v259c0,35.6,4.6,70.6,13.6,104c9.4,34.9,23.8,68.3,42.8,99.5
		C98.2,561,159.8,617.7,240.6,662.3l5,2.7l5-2.7c80.6-44.6,142.3-101.3,183-168.3c18.9-31.2,33.3-64.6,42.8-99.5
		c9-33.4,13.6-68.4,13.6-104v-259V22L480.7,21.2z"/>
	<path class="st0" d="M337.2,583.8c33.8-29.4,61.7-62.1,83.4-97.8c35.9-59.1,54.1-124.9,54.1-195.6V123.9h-300L337.2,583.8z"/>
	<polygon class="st1" points="474.8,35.9 245.5,15 16.3,35.9 16.3,114 474.8,114 	"/>
	<path class="st2" d="M16.3,123.9v166.5c0,70.7,18.2,136.5,54.1,195.6c39,64.1,97.9,118.4,175.1,161.5
		c30.8-17.2,58.7-36.2,83.5-56.8L164.1,123.9H16.3z"/>
	<polygon points="217.5,30 220.6,30 220.6,51.4 216.2,51.4 216.2,34.7 212.7,35.6 211.7,31.8 	"/>
	<path d="M232.4,51.7c-2.9,0-4.9-1-6.6-2.5l2.3-3.6c1.5,1.2,2.7,1.8,4.4,1.8c2.5,0,3.8-2,4.1-4.8c-1,0.9-2.3,1.5-4.1,1.5
		c-4.4,0-7.2-2.5-7.2-6.9c0-4.3,3.1-7.5,7.7-7.5c2.7,0,4.3,0.7,5.8,2.3c1.4,1.5,2.4,3.8,2.4,8C241.2,47,238.1,51.7,232.4,51.7
		 M233.2,33.8c-2.2,0-3.4,1.3-3.4,3.2s1.3,3.2,3.5,3.2s3.5-1.3,3.5-3.2C236.7,35.1,235.4,33.8,233.2,33.8"/>
	<path d="M252.3,51.7c-5.4,0-8.9-4.8-8.9-11s3.6-11,9-11c5.4,0,8.9,4.8,8.9,11C261.3,46.9,257.7,51.7,252.3,51.7 M252.3,34
		c-2.7,0-4.4,2.8-4.4,6.7s1.8,6.8,4.4,6.8c2.7,0,4.4-2.9,4.4-6.7C256.7,36.9,255,34,252.3,34"/>
	<path d="M276.2,35.7c-1.3-1.1-2.4-1.7-4.1-1.7c-2.5,0-3.8,2.1-4.1,4.9c1-0.7,2.2-1.4,4.2-1.4c4,0,7.1,2.3,7.1,6.8
		c0,4.4-3.3,7.4-7.7,7.4c-2.6,0-4.4-0.8-5.8-2.3c-1.5-1.5-2.4-3.8-2.4-8.1c0-6.6,2.8-11.6,8.8-11.6c2.7,0,4.5,0.9,6.3,2.3
		L276.2,35.7z M271.4,41.4c-2.2,0-3.5,1.3-3.5,3.1c0,1.9,1.3,3.2,3.5,3.2s3.5-1.3,3.5-3.2C274.9,42.7,273.6,41.4,271.4,41.4"/>
	<path d="M32.3,60.2h12.2c4.4,0,7.3,1.8,9,4.6c1.5,2.4,2.3,5.4,2.3,9.5v0.1c0,5.9-1.9,9.9-4.9,12.3l5.8,13.7h-9.6l-4.7-11.5h-0.1
		h-1.7v11.5h-8.4V60.2H32.3z M44.3,79.3c2,0,3.2-1.4,3.2-3.9v-0.1c0-2.6-1.2-3.9-3.2-3.9h-3.7v7.9H44.3z"/>
	<path d="M67.6,59.9h8.3l10.6,40.5h-9.1L76,95h-8.8l-1.3,5.4h-9L67.6,59.9z M74,85.4l-2.3-9.8l-2.3,9.8H74z"/>
	<path d="M84.8,80.4L84.8,80.4c0-12.1,5.8-21,13.3-21c5.5,0,9.2,4.3,11.3,10.4l-6.9,6.5c-0.9-2.9-2.3-4.9-4.5-4.9
		c-2.8,0-4.7,4-4.7,8.8v0.1c0,5.2,1.9,8.9,4.7,8.9c2.4,0,3.7-2.1,4.7-5.1l6.9,6.3c-2.1,6-5.6,10.9-11.8,10.9
		C90.9,101.2,84.8,92.8,84.8,80.4"/>
	<rect x="111.5" y="60.2" width="8.4" height="40.2"/>
	<polygon points="123.4,60.2 131.3,60.2 140.2,77.9 140.2,60.2 148.5,60.2 148.5,100.3 141,100.3 131.7,81.8 131.7,100.3 
		123.4,100.3 	"/>
	<path d="M150.3,80.4L150.3,80.4c0-12.1,5.9-21,13.8-21c4.3,0,7.8,2.3,10.5,6.1l-4.7,9.1c-1.6-2.2-3.5-3.5-5.5-3.5
		c-3.2,0-5.6,4-5.6,9.5v0.1c0,5.7,2.5,9.6,6,9.6c1.4,0,2.2-0.3,2.9-0.9v-4h-4.3v-8.6h12.1v18.6c-2.7,3.5-6.5,6-11.1,6
		C156.6,101.2,150.3,92.8,150.3,80.4"/>
	<path d="M187.8,80.4L187.8,80.4c0-12.1,5.8-21,13.3-21c5.5,0,9.2,4.3,11.3,10.4l-6.9,6.5c-0.9-2.9-2.3-4.9-4.6-4.9
		c-2.8,0-4.7,4-4.7,8.8v0.1c0,5.2,1.9,8.9,4.7,8.9c2.4,0,3.7-2.1,4.7-5.1l6.9,6.3c-2.1,6-5.6,10.9-11.8,10.9
		C193.9,101.2,187.8,92.8,187.8,80.4"/>
	<polygon points="214.5,60.2 222.9,60.2 222.9,88.9 234.7,88.9 234.7,100.3 214.5,100.3 	"/>
	<path d="M235.9,82.3V60.2h8.5v22c0,5,1.6,7.1,3.9,7.1c2.3,0,3.9-1.9,3.9-6.8V60.2h8.5V82c0,13.7-5,19.1-12.5,19.1
		C240.8,101.2,235.9,95.7,235.9,82.3"/>
	<path d="M264.1,60.2h14c3.5,0,5.7,1.2,7.1,3.6c0.9,1.4,1.5,3.5,1.5,6.2v0.1c0,4.8-1.8,7.7-4.5,9.2c3.2,1.5,5.3,4.2,5.3,9.8v0.1
		c0,6.4-3.3,11.1-9.6,11.1H264V60.2H264.1z M275.9,76c1.8,0,2.6-1,2.6-2.8v-0.1c0-1.8-0.9-2.8-2.7-2.8h-3.6V76H275.9z M276.4,90.2
		c1.8,0,2.8-1.2,2.8-2.9v-0.1c0-1.7-0.9-2.9-2.7-2.9h-4.2v6L276.4,90.2L276.4,90.2z"/>
	<path d="M300,60.2h9.6c10,0,14.9,7.8,14.9,19.7V80c0,11.9-5.1,20.3-15.2,20.3H300V60.2z M309.7,88.6c3.8,0,6.3-2.5,6.3-8.3v-0.1
		c0-5.8-2.5-8.3-6.3-8.3h-1.4v16.7C308.3,88.6,309.7,88.6,309.7,88.6z"/>
	<polygon points="326.2,60.2 347.6,60.2 347.6,71.2 334.5,71.2 334.5,75.3 346.7,75.3 346.7,85 334.5,85 334.5,89.3 347.8,89.3 
		347.8,100.3 326.2,100.3 	"/>
	<polygon points="360.6,60.2 368.9,60.2 368.9,88.9 380.7,88.9 380.7,100.3 360.6,100.3 	"/>
	<polygon points="383.7,60.2 405.1,60.2 405.1,71.2 391.9,71.2 391.9,75.3 404.2,75.3 404.2,85 391.9,85 391.9,89.3 405.2,89.3 
		405.2,100.3 383.7,100.3 	"/>
	<polygon points="408.3,60.2 416.2,60.2 425.1,77.9 425.1,60.2 433.4,60.2 433.4,100.3 426,100.3 416.7,81.8 416.7,100.3 
		408.3,100.3 	"/>
	<path d="M434.8,94.3l4.5-8.5c2.7,3.3,5.8,4.7,8.8,4.7c1.5,0,2.1-0.6,2.1-1.7v-0.1c0-1.1-0.8-1.8-3.5-2.6
		c-5.6-1.8-10.6-4.4-10.6-12.9V73c0-7.6,3.7-13.6,10.6-13.6c4.8,0,8.4,1.8,11.3,5.5l-4.1,9.1c-2.4-2.8-5.2-4-7.5-4
		c-1.2,0-1.8,0.7-1.8,1.7v0.1c0,1.1,0.7,1.8,3.3,2.6c6.4,1.9,10.7,4.9,10.7,13v0.1c0,8.4-4.3,13.6-11.1,13.6
		C442.6,101.1,438,98.8,434.8,94.3"/>
	<path class="st1" d="M52.8,168.7H109c18.2,0,30.7,4.8,38.7,12.9c6.9,6.8,10.5,15.9,10.5,27.7v0.3c0,18.2-9.7,30.2-24.5,36.5
		l28.4,41.4h-38l-23.9-36h-0.3H85.8v36h-33V168.7z M107.5,225.7c11.2,0,17.6-5.4,17.6-14.1v-0.3c0-9.3-6.8-14.1-17.8-14.1H85.8v28.5
		L107.5,225.7L107.5,225.7z"/>
	<path class="st1" d="M87.8,377.2v-0.3c0-34.6,26.7-61.8,62.6-61.8c24.3,0,39.9,10.2,50.4,24.8L176,359.1
		c-6.8-8.5-14.6-13.9-26-13.9c-16.6,0-28.3,14.1-28.3,31.4v0.3c0,17.8,11.7,31.7,28.3,31.7c12.4,0,19.7-5.8,26.8-14.4l24.8,17.7
		c-11.2,15.4-26.3,26.8-52.6,26.8C115.1,438.7,87.8,412.7,87.8,377.2"/>
	<polygon class="st1" points="183.6,454.4 216.5,454.4 216.5,544.3 274,544.3 274,573.2 183.6,573.2 	"/>
	<path d="M465.9,270.3c-2-3.1-4.7-4.6-7.1-5.3c-0.1,0-0.9-0.3-2.1-0.3c-1.4,0-3.5,0.4-5.5,1.8c0-0.7,0-1.4,0-2
		c0-14.5-6.5-20.8-6.8-21l-1.3-1.2l-1.3,1.2c-0.3,0.2-6.8,6.5-6.8,21c0,0.7,0,1.3,0,2c-2-1.4-4.1-1.8-5.5-1.8c-1.2,0-2,0.2-2.1,0.3
		c-2.4,0.7-5.1,2.2-7.1,5.2c-1.6,2.6-2.1,5.3-2.1,7.6c0,4.4,1.7,7.6,1.8,7.8l1.7,3.3l1.7-3.3c1.7-3.3,3.4-4.1,4.6-4.4l0,0h0.1l0,0
		c0.1,0,0.4-0.1,0.8-0.1c0.9,0.1,1.8,0.2,2.7,1.6c0.3,0.4,0.5,1,0.7,1.6c-1.6,0.7-2.7,2.3-2.7,4.1c0,1.3,0.6,2.6,1.5,3.4l-0.4,1.1
		c-1.1,2.3-1.5,4.5-1.5,6.2c0,2.7,0.9,4.3,1,4.6l0.5,0.9l1,0.1c0.1,0,0.2,0,0.4,0c0.8,0,2.9-0.2,5.3-1.8c1.5,4.5,4.4,6.2,4.7,6.3
		l0.9,0.5l0.9-0.5c0.3-0.1,3.2-1.8,4.7-6.3c2.3,1.6,4.5,1.8,5.3,1.8c0.2,0,0.3,0,0.3,0l1-0.1l0.5-0.9c0.1-0.2,1-1.8,1-4.5
		c0-1.7-0.4-3.8-1.5-6.2l-0.4-1.1c0.9-0.8,1.5-2,1.6-3.4c0-1.8-1.1-3.4-2.7-4.1c0.2-0.6,0.4-1.2,0.7-1.6c0.9-1.5,1.8-1.6,2.7-1.6
		c0.3,0,0.5,0,0.7,0.1c0.1,0,0.1,0,0.2,0l0,0l0,0h0.1c1.2,0.3,2.9,1.2,4.6,4.4l1.7,3.3l1.7-3.3c0.1-0.2,1.8-3.4,1.8-7.8
		C468,275.5,467.5,272.9,465.9,270.3z"/>
	<path class="st1" d="M436.4,284c-0.3-0.9-0.7-2.1-1.3-3.2c-1.6-2.9-4.4-3.6-6.1-3.6c-1,0-1.6,0.2-1.9,0.2c-1.5,0.4-3.2,1.3-4.7,3
		c-0.2-0.8-0.3-1.7-0.3-2.6c0-1.8,0.4-3.7,1.5-5.6c1.4-2.1,3.1-3,4.9-3.6l0,0c0.1,0,0.5-0.1,1-0.1c1,0,2.5,0.3,4.1,1.8
		c0.7,0.7,1.5,1.7,2.1,3.2c0.5,3.2,1.3,6.7,2.5,10.5L436.4,284L436.4,284z"/>
	<path class="st1" d="M463.9,280.5c-1.6-1.7-3.2-2.6-4.7-3c-0.2-0.1-0.9-0.2-1.9-0.2c-1.7-0.1-4.4,0.7-6.1,3.5
		c-0.6,1.1-1,2.2-1.3,3.2h-2c1.2-3.8,2-7.3,2.5-10.5c0.7-1.5,1.4-2.5,2.1-3.2c1.6-1.5,3.1-1.8,4.1-1.8c0.3,0,0.6,0,0.8,0.1
		c0.1,0,0.2,0,0.2,0l0,0c1.8,0.6,3.5,1.5,5,3.7c1.1,1.8,1.5,3.7,1.5,5.5C464.2,278.8,464.1,279.7,463.9,280.5z"/>
	<path class="st1" d="M438.9,264.5c0-6.7,1.5-11.2,2.9-14.2c0.5-1,0.9-1.8,1.4-2.4c1.6,2.4,4.2,7.7,4.2,16.5
		c0,5.2-0.9,11.6-3.4,19.5h-1.6C439.8,276.2,438.9,269.7,438.9,264.5z"/>
	<path class="st1" d="M452.9,300.6c-1-0.3-2.4-0.9-3.9-2.7l-2.9-3.4l-0.5,4.4c-0.3,2.8-1.3,4.5-2.1,5.5c-0.2,0.2-0.3,0.4-0.4,0.5
		c-0.9-0.9-2.1-2.7-2.5-6l-0.5-4.4l-2.9,3.4c-1.5,1.7-2.9,2.4-3.9,2.7c-0.1-0.4-0.1-0.9-0.1-1.5c0-1.2,0.2-2.7,1.2-4.6v-0.1l0.6-1.6
		h16.3l0.6,1.6v0.1c0.9,1.9,1.2,3.4,1.2,4.6C453.1,299.7,453,300.2,452.9,300.6z"/>
	<path d="M248.6,270.3c2-3.1,4.7-4.6,7.1-5.3c0.1,0,0.9-0.3,2.1-0.3c1.4,0,3.5,0.4,5.5,1.8c0-0.7,0-1.4,0-2c0-14.5,6.5-20.8,6.8-21
		l1.3-1.2l1.3,1.2c0.3,0.2,6.8,6.5,6.8,21c0,0.7,0,1.3,0,2c2-1.4,4.1-1.8,5.5-1.8c1.2,0,2,0.2,2.1,0.3c2.4,0.7,5.1,2.2,7.1,5.2
		c1.6,2.6,2.1,5.3,2.1,7.6c0,4.4-1.7,7.6-1.8,7.8l-1.7,3.3l-1.7-3.3c-1.7-3.3-3.4-4.1-4.6-4.4l0,0h-0.1l0,0c-0.1,0-0.4-0.1-0.8-0.1
		c-0.9,0.1-1.8,0.2-2.7,1.6c-0.3,0.4-0.5,1-0.7,1.6c1.6,0.7,2.7,2.3,2.7,4.1c0,1.3-0.6,2.6-1.5,3.4l0.4,1.1c1.1,2.3,1.5,4.5,1.5,6.2
		c0,2.7-0.9,4.3-1,4.6l-0.5,0.9l-1,0.1c-0.1,0-0.2,0-0.4,0c-0.8,0-2.9-0.2-5.3-1.8c-1.5,4.5-4.4,6.2-4.7,6.3l-0.9,0.5l-0.9-0.5
		c-0.3-0.1-3.2-1.8-4.7-6.3c-2.3,1.6-4.5,1.8-5.3,1.8c-0.2,0-0.3,0-0.3,0l-1-0.1l-0.5-0.9c-0.1-0.2-1-1.8-1-4.5
		c0-1.7,0.4-3.8,1.5-6.2l0.4-1.1c-0.9-0.8-1.5-2-1.6-3.4c0-1.8,1.1-3.4,2.7-4.1c-0.2-0.6-0.4-1.2-0.7-1.6c-0.9-1.5-1.8-1.6-2.7-1.6
		c-0.3,0-0.5,0-0.7,0.1c-0.1,0-0.1,0-0.2,0l0,0l0,0h-0.1c-1.2,0.3-2.9,1.2-4.6,4.4L250,289l-1.7-3.3c-0.1-0.2-1.8-3.4-1.8-7.8
		C246.5,275.5,247,272.9,248.6,270.3z"/>
	<path class="st1" d="M278.1,284c0.3-0.9,0.7-2.1,1.3-3.2c1.6-2.9,4.4-3.6,6.1-3.6c1,0,1.6,0.2,1.9,0.2c1.5,0.4,3.2,1.3,4.7,3
		c0.2-0.8,0.3-1.7,0.3-2.6c0-1.8-0.4-3.7-1.5-5.6c-1.4-2.1-3.1-3-4.9-3.6l0,0c-0.1,0-0.5-0.1-1-0.1c-1,0-2.5,0.3-4.1,1.8
		c-0.7,0.7-1.5,1.7-2.1,3.2c-0.5,3.2-1.3,6.7-2.5,10.5L278.1,284L278.1,284z"/>
	<path class="st1" d="M250.6,280.5c1.6-1.7,3.2-2.6,4.7-3c0.2-0.1,0.9-0.2,1.9-0.2c1.7-0.1,4.4,0.7,6.1,3.5c0.6,1.1,1,2.2,1.3,3.2h2
		c-1.2-3.8-2-7.3-2.5-10.5c-0.7-1.5-1.4-2.5-2.1-3.2c-1.6-1.5-3.1-1.8-4.1-1.8c-0.3,0-0.6,0-0.8,0.1c-0.1,0-0.2,0-0.2,0l0,0
		c-1.8,0.6-3.5,1.5-5,3.7c-1.1,1.8-1.5,3.7-1.5,5.5C250.3,278.8,250.5,279.7,250.6,280.5z"/>
	<path class="st1" d="M275.6,264.5c0-6.7-1.5-11.2-2.9-14.2c-0.5-1-0.9-1.8-1.4-2.4c-1.6,2.4-4.2,7.7-4.2,16.5
		c0,5.2,0.9,11.6,3.4,19.5h1.6C274.7,276.2,275.6,269.7,275.6,264.5z"/>
	<path class="st1" d="M261.6,300.6c1-0.3,2.4-0.9,3.9-2.7l2.9-3.4l0.5,4.4c0.3,2.8,1.3,4.5,2.1,5.5c0.2,0.2,0.3,0.4,0.4,0.5
		c0.9-0.9,2.1-2.7,2.5-6l0.5-4.4l2.9,3.4c1.5,1.7,2.9,2.4,3.9,2.7c0.1-0.4,0.2-0.9,0.1-1.5c0-1.2-0.2-2.7-1.2-4.6v-0.1l-0.6-1.6
		h-16.3l-0.6,1.6v0.1c-0.9,1.9-1.2,3.4-1.2,4.6C261.4,299.7,261.5,300.2,261.6,300.6z"/>
	<path d="M435.2,386.2l-19.4-93l-0.1-56.7l7.3-9.2v-17.6h-11.7v6.8h-2.8v-6.8h-11.6v6.8h-3v-6.8h-11.5v7.1h-2.9l-0.7-18.4l12.1-0.8
		v-3.1l-29.4-18.8c2.6-1.6,4.3-4.6,4.3-8c0-5.1-3.9-9.3-8.6-9.3s-8.6,4.2-8.6,9.3c0,3.4,1.7,6.4,4.3,8l-29.4,18.8v3.1l12.1,0.8
		l-0.7,18.4H332v-7.1h-11.5v6.8h-3v-6.8h-11.6v6.8h-2.8v-6.8h-11.7v17.6l7.3,9.2l-0.1,56.7l-19.4,93h25.7v-28.8
		c0-3.8,2.9-6.7,6.1-6.7c3.3,0,6.1,2.9,6.1,6.7v28.8h7.7l-0.7,5.3v3.4H390v-3.4l-0.7-5.3h7.7v-28.8c0-3.8,2.9-6.7,6.1-6.7
		c3.3,0,6.1,2.9,6.1,6.7v28.8H435.2z"/>
	<polygon class="st1" points="412.6,234.2 380.1,234.2 379.9,228.8 416.9,228.8 	"/>
	<polygon class="st1" points="380.2,238 411.8,238 411.9,282.3 381.8,282.3 	"/>
	<polygon class="st1" points="332.7,282.3 302.6,282.3 302.7,238 334.3,238 	"/>
	<polygon class="st1" points="332.6,286.1 332.4,291.5 302.6,291.5 302.6,286.1 	"/>
	<polygon class="st1" points="381.9,286.1 411.9,286.1 411.9,291.5 382.1,291.5 	"/>
	<polygon class="st1" points="386.2,220.7 386.2,213.6 390,213.6 390,220.4 400.7,220.4 400.7,213.6 404.6,213.6 404.6,220.4 
		415.1,220.4 415.1,213.6 419.1,213.6 419.1,225 379.8,225 379.6,220.7 	"/>
	<path class="st0" d="M352.5,167.8c0-2.8,2.1-5.1,4.7-5.1s4.7,2.3,4.7,5.1s-2.1,5.1-4.7,5.1C354.7,172.9,352.5,170.6,352.5,167.8z"
		/>
	<polygon class="st1" points="295.4,213.6 299.4,213.6 299.4,220.4 309.9,220.4 309.9,213.6 313.8,213.6 313.8,220.4 324.5,220.4 
		324.5,213.6 328.3,213.6 328.3,220.7 334.9,220.7 334.8,225 295.4,225 	"/>
	<polygon class="st1" points="297.6,228.8 334.6,228.8 334.4,234.2 301.9,234.2 	"/>
	<path class="st1" d="M321.1,382.4v-25c0-5.7-4.3-10.5-10-10.6c-5.6,0-10,4.8-10,10.6v25h-17.2l18.2-87.1h30l-1.4,39
		c-2.7,1.3-4.6,4.2-4.6,7.6c0,3.1,1.6,5.7,3.9,7.2l-4.6,33.3H321.1z"/>
	<path class="st1" d="M403.3,346.8c-5.6,0-10,4.8-10,10.6v25h-4.4l-4.6-33.3c2.3-1.4,3.9-4.1,3.9-7.2c0-3.4-1.9-6.3-4.6-7.6l-1.4-39
		h30l18.2,87.1h-17.2v-25C413.3,351.6,408.9,346.8,403.3,346.8z"/>
	<path d="M324.3,271.8v-15.9c0-3.7-2.8-6.7-6.2-6.7c-3.4,0-6.2,3-6.2,6.7v15.9H324.3z"/>
	<path d="M390.2,271.8v-15.9c0-3.7,2.8-6.7,6.2-6.7c3.4,0,6.2,3,6.2,6.7v15.9H390.2z"/>
	<rect x="367.1" y="199.6" class="st0" width="5.8" height="13.9"/>
	<rect x="354.3" y="199.6" class="st0" width="5.8" height="13.9"/>
	<rect x="341.6" y="199.6" class="st0" width="5.8" height="13.9"/>
	<rect x="339.6" y="308.1" class="st1" width="6.4" height="25.4"/>
	<rect x="368.5" y="308.1" class="st1" width="6.4" height="25.4"/>
	<rect x="354" y="308.1" class="st1" width="6.4" height="25.4"/>
</g>
</svg>
