<?xml version="1.0" encoding="utf-8"?>
<!-- Generator: Adobe Illustrator 26.0.2, SVG Export Plug-In . SVG Version: 6.00 Build 0)  -->
<svg version="1.1"
	 id="svg2" xmlns:cc="http://creativecommons.org/ns#" xmlns:dc="http://purl.org/dc/elements/1.1/" xmlns:inkscape="http://www.inkscape.org/namespaces/inkscape" xmlns:rdf="http://www.w3.org/1999/02/22-rdf-syntax-ns#" xmlns:sodipodi="http://sodipodi.sourceforge.net/DTD/sodipodi-0.dtd" xmlns:svg="http://www.w3.org/2000/svg"
	 xmlns="http://www.w3.org/2000/svg" xmlns:xlink="http://www.w3.org/1999/xlink" x="0px" y="0px" width="646.5px" height="646.5px"
	 viewBox="0 0 646.5 646.5" style="enable-background:new 0 0 646.5 646.5;" xml:space="preserve">
<style type="text/css">
	.st0{clip-path:url(#SVGID_00000016052797470131621980000015087221435159901325_);}
	.st1{fill-rule:evenodd;clip-rule:evenodd;fill:#FFFFFF;}
	.st2{fill-rule:evenodd;clip-rule:evenodd;fill:#00ADEF;}
	.st3{fill:none;stroke:#FFFFFF;stroke-width:3.6313;stroke-miterlimit:48.9105;}
	.st4{fill:none;stroke:#FFFFFF;stroke-width:0.3744;stroke-miterlimit:48.9105;}
	.st5{fill:none;stroke:#FFFFFF;stroke-width:0.4118;stroke-miterlimit:48.9105;}
	.st6{fill-rule:evenodd;clip-rule:evenodd;fill:url(#path5885_00000050626149551246565190000006306715662452347546_);}
	.st7{fill-rule:evenodd;clip-rule:evenodd;fill:url(#path5895_00000024708906866278733650000012917239851542345115_);}
	.st8{fill:none;stroke:#000000;stroke-width:0.6551;stroke-miterlimit:48.9105;}
	.st9{fill:none;stroke:#20190E;stroke-width:3.3693;stroke-miterlimit:48.9105;}
	.st10{fill:none;stroke:#1F54A9;stroke-width:19.7664;stroke-linecap:round;stroke-linejoin:round;stroke-miterlimit:48.9105;}
	.st11{fill:#1F54A9;}
</style>
<sodipodi:namedview  bordercolor="#666666" borderopacity="1.0" fit-margin-bottom="5" fit-margin-left="5" fit-margin-right="5" fit-margin-top="5" id="base" inkscape:current-layer="g2993" inkscape:cx="192.16232" inkscape:cy="615.99902" inkscape:document-units="px" inkscape:pageopacity="0.0" inkscape:pageshadow="2" inkscape:window-height="746" inkscape:window-maximized="1" inkscape:window-width="1304" inkscape:window-x="54" inkscape:window-y="-8" inkscape:zoom="0.49497475" pagecolor="#ffffff" showgrid="false">
	</sodipodi:namedview>
<g id="layer1" transform="translate(-563.94528,-336.27101)" inkscape:groupmode="layer" inkscape:label="Calque 1">
	<g id="g2993" transform="matrix(1.25,0,0,-1.25,54.504313,1087.2455)" inkscape:label="ancien sochaux">
		<g id="g5609" transform="matrix(14.974525,0,0,14.974525,3235.8298,-3874.9496)">
			<g>
				<defs>
					<polygon id="SVGID_1_" points="-190.6,259.2 -153.6,259.2 -153.6,302.7 -190.6,302.7 -190.6,259.2 					"/>
				</defs>
				<clipPath id="SVGID_00000063591206317494167880000004555686378849355185_">
					<use xlink:href="#SVGID_1_"  style="overflow:visible;"/>
				</clipPath>
				
					<g id="g5611" transform="translate(-312.12015,116.97064)" style="clip-path:url(#SVGID_00000063591206317494167880000004555686378849355185_);">
					<g id="g5617" transform="translate(140.5167,147.6488)">
						<path id="path5619" inkscape:connector-curvature="0" class="st1" d="M0,0c-9.4,0-17,7.6-17,17c0,9.4,7.6,17,17,17
							s17-7.6,17-17C17,7.6,9.4,0,0,0"/>
					</g>
					<g id="g5621" transform="translate(140.5158,148.5808)">
						<path id="path5623" inkscape:connector-curvature="0" class="st2" d="M0,0c-8.8,0-16.1,7.2-16.1,16.1S-8.8,32.1,0,32.1
							s16.1-7.2,16.1-16.1S8.8,0,0,0"/>
					</g>
					<g id="g5625" transform="translate(140.5158,148.5808)">
						<path id="path5627" inkscape:connector-curvature="0" class="st3" d="M0,0c-8.8,0-16.1,7.2-16.1,16.1S-8.8,32.1,0,32.1
							s16.1-7.2,16.1-16.1S8.8,0,0,0z"/>
					</g>
					<g id="g5629" transform="translate(132.7732,175.041)">
						<path id="path5631" inkscape:connector-curvature="0" class="st1" d="M0,0l-0.7,0.4L-1,0.2l0.4-0.6l-0.3-0.2l-1.1,1.5l0.6,0.4
							C-1,1.6-0.6,1.5-0.4,1.2c0.2-0.2,0.1-0.4,0-0.6l0.8-0.4L0,0 M-1.1,1.1l-0.3-0.2l0.3-0.4l0.3,0.2C-0.7,0.8-0.7,0.9-0.8,1
							C-0.8,1.1-1,1.2-1.1,1.1"/>
					</g>
					<g id="g5633" transform="translate(132.7732,175.041)">
						<path id="path5635" inkscape:connector-curvature="0" class="st4" d="M0,0l-0.7,0.4L-1,0.2l0.4-0.6l-0.3-0.2l-1.1,1.5l0.6,0.4
							C-1,1.6-0.6,1.5-0.4,1.2c0.2-0.2,0.1-0.4,0-0.6l0.8-0.4L0,0 M-1.1,1.1l-0.3-0.2l0.3-0.4l0.3,0.2C-0.7,0.8-0.7,0.9-0.8,1
							C-0.8,1.1-1,1.2-1.1,1.1z"/>
					</g>
					<g id="g5637" transform="translate(134.3013,175.9308)">
						<path id="path5639" inkscape:connector-curvature="0" class="st1" d="M0,0l-0.3,0.2l-0.6-0.3l0.1-0.3l-0.3-0.2l-0.2,2l0.3,0.1
							l1.5-1.3L0,0 M-1,0.9l0.1-0.7l0.4,0.2"/>
					</g>
					<g id="g5641" transform="translate(134.3013,175.9308)">
						<path id="path5643" inkscape:connector-curvature="0" class="st4" d="M0,0l-0.3,0.2l-0.6-0.3l0.1-0.3l-0.3-0.2l-0.2,2l0.3,0.1
							l1.5-1.3L0,0 M-1,0.9l0.1-0.7l0.4,0.2L-1,0.9z"/>
					</g>
					<g id="g5645" transform="translate(135.3831,176.3814)">
						<path id="path5647" inkscape:connector-curvature="0" class="st1" d="M0,0c-0.2-0.1-0.4-0.1-0.6,0C-0.8,0.1-0.9,0.3-1,0.6
							c-0.1,0.3-0.2,0.5-0.1,0.8C-1,1.5-0.9,1.7-0.7,1.7C-0.3,1.9,0,1.8,0.2,1.5l-0.4-0.1c-0.1,0.1-0.2,0.2-0.4,0.1
							c-0.1,0-0.2-0.1-0.2-0.2c0-0.1,0-0.2,0.1-0.5c0.1-0.3,0.2-0.4,0.3-0.4c0.1,0,0.2,0,0.3,0c0.2,0.1,0.2,0.2,0.2,0.4l0.4,0.1
							C0.5,0.4,0.3,0.1,0,0"/>
					</g>
					<g id="g5649" transform="translate(135.3831,176.3814)">
						<path id="path5651" inkscape:connector-curvature="0" class="st4" d="M0,0c-0.2-0.1-0.4-0.1-0.6,0C-0.8,0.1-0.9,0.3-1,0.6
							c-0.1,0.3-0.2,0.5-0.1,0.8C-1,1.5-0.9,1.7-0.7,1.7C-0.3,1.9,0,1.8,0.2,1.5l-0.4-0.1c-0.1,0.1-0.2,0.2-0.4,0.1
							c-0.1,0-0.2-0.1-0.2-0.2c0-0.1,0-0.2,0.1-0.5c0.1-0.3,0.2-0.4,0.3-0.4c0.1,0,0.2,0,0.3,0c0.2,0.1,0.2,0.2,0.2,0.4l0.4,0.1
							C0.5,0.4,0.3,0.1,0,0z"/>
					</g>
					<g id="g5653" transform="translate(136.2943,176.7151)">
						<path id="path5655" inkscape:connector-curvature="0" class="st1" d="M0,0l-0.5,1.8l0.4,0.1l0.5-1.8"/>
					</g>
					<g id="g5657" transform="translate(136.2943,176.7151)">
						<path id="path5659" inkscape:connector-curvature="0" class="st4" d="M0,0l-0.5,1.8l0.4,0.1l0.5-1.8L0,0z"/>
					</g>
					<g id="g5661" transform="translate(138.1491,177.1461)">
						<path id="path5663" inkscape:connector-curvature="0" class="st1" d="M0,0l-1,1l0.2-1.1l-0.4-0.1l-0.3,1.8l0.3,0.1l1-1
							l-0.2,1.1L0,1.9l0.3-1.8"/>
					</g>
					<g id="g5665" transform="translate(138.1491,177.1461)">
						<path id="path5667" inkscape:connector-curvature="0" class="st4" d="M0,0l-1,1l0.2-1.1l-0.4-0.1l-0.3,1.8l0.3,0.1l1-1
							l-0.2,1.1L0,1.9l0.3-1.8L0,0z"/>
					</g>
					<g id="g5669" transform="translate(140.0269,177.5019)">
						<path id="path5671" inkscape:connector-curvature="0" class="st1" d="M0,0c-0.1-0.2-0.3-0.2-0.5-0.2c-0.2,0-0.4,0.1-0.5,0.2
							c-0.2,0.2-0.2,0.4-0.2,0.7c0,0.3,0,0.5,0.2,0.7C-1,1.5-0.9,1.6-0.6,1.6c0.4,0,0.7-0.2,0.8-0.5l-0.4,0
							c-0.1,0.2-0.2,0.3-0.4,0.2c-0.1,0-0.2,0-0.2-0.1C-0.9,1.1-0.9,1-0.9,0.7c0-0.4,0-0.4,0.1-0.5c0.1-0.1,0.1-0.1,0.2-0.1
							c0.1,0,0.2,0,0.3,0.1c0.1,0.1,0.1,0.2,0.1,0.2l0,0.1l-0.4,0l0,0.3l0.7,0l0-0.3C0.2,0.3,0.1,0.1,0,0"/>
					</g>
					<g id="g5673" transform="translate(140.0269,177.5019)">
						<path id="path5675" inkscape:connector-curvature="0" class="st4" d="M0,0c-0.1-0.2-0.3-0.2-0.5-0.2c-0.2,0-0.4,0.1-0.5,0.2
							c-0.2,0.2-0.2,0.4-0.2,0.7c0,0.3,0,0.5,0.2,0.7C-1,1.5-0.9,1.6-0.6,1.6c0.4,0,0.7-0.2,0.8-0.5l-0.4,0
							c-0.1,0.2-0.2,0.3-0.4,0.2c-0.1,0-0.2,0-0.2-0.1C-0.9,1.1-0.9,1-0.9,0.7c0-0.4,0-0.4,0.1-0.5c0.1-0.1,0.1-0.1,0.2-0.1
							c0.1,0,0.2,0,0.3,0.1c0.1,0.1,0.1,0.2,0.1,0.2l0,0.1l-0.4,0l0,0.3l0.7,0l0-0.3C0.2,0.3,0.1,0.1,0,0z"/>
					</g>
					<g id="g5677" transform="translate(141.7507,177.1944)">
						<path id="path5679" inkscape:connector-curvature="0" class="st1" d="M0,0c-0.2,0-0.4,0.1-0.5,0.3C-0.7,0.5-0.6,0.7-0.6,1
							s0.1,0.5,0.3,0.7C-0.2,1.8,0,1.9,0.2,1.9c0.4,0,0.6-0.3,0.6-0.7l-0.4,0c0,0.2-0.1,0.3-0.3,0.3c-0.1,0-0.2,0-0.3-0.1
							C-0.2,1.4-0.2,1.3-0.2,1s0-0.4,0-0.5c0-0.1,0.1-0.1,0.2-0.1c0.2,0,0.3,0.1,0.4,0.2l0.4,0C0.7,0.1,0.4,0,0,0"/>
					</g>
					<g id="g5681" transform="translate(141.7507,177.1944)">
						<path id="path5683" inkscape:connector-curvature="0" class="st4" d="M0,0c-0.2,0-0.4,0.1-0.5,0.3C-0.7,0.5-0.6,0.7-0.6,1
							s0.1,0.5,0.3,0.7C-0.2,1.8,0,1.9,0.2,1.9c0.4,0,0.6-0.3,0.6-0.7l-0.4,0c0,0.2-0.1,0.3-0.3,0.3c-0.1,0-0.2,0-0.3-0.1
							C-0.2,1.4-0.2,1.3-0.2,1s0-0.4,0-0.5c0-0.1,0.1-0.1,0.2-0.1c0.2,0,0.3,0.1,0.4,0.2l0.4,0C0.7,0.1,0.4,0,0,0z"/>
					</g>
					<g id="g5685" transform="translate(142.7027,177.0762)">
						<path id="path5687" inkscape:connector-curvature="0" class="st1" d="M0,0l0.4,1.8l0.4-0.1L0.4,0.2L1.3,0L1.2-0.3"/>
					</g>
					<g id="g5689" transform="translate(142.7027,177.0762)">
						<path id="path5691" inkscape:connector-curvature="0" class="st4" d="M0,0l0.4,1.8l0.4-0.1L0.4,0.2L1.3,0L1.2-0.3L0,0z"/>
					</g>
					<g id="g5693" transform="translate(144.7502,176.487)">
						<path id="path5695" inkscape:connector-curvature="0" class="st1" d="M0,0c-0.4,0.1-0.6,0.5-0.5,0.8L0,2l0.4-0.1l-0.4-1.1
							c-0.1-0.2,0-0.4,0.2-0.4c0.2-0.1,0.4,0,0.4,0.2l0.4,1.1l0.4-0.1L0.9,0.4C0.8,0,0.4-0.1,0,0"/>
					</g>
					<g id="g5697" transform="translate(144.7502,176.487)">
						<path id="path5699" inkscape:connector-curvature="0" class="st4" d="M0,0c-0.4,0.1-0.6,0.5-0.5,0.8L0,2l0.4-0.1l-0.4-1.1
							c-0.1-0.2,0-0.4,0.2-0.4c0.2-0.1,0.4,0,0.4,0.2l0.4,1.1l0.4-0.1L0.9,0.4C0.8,0,0.4-0.1,0,0z"/>
					</g>
					<g id="g5701" transform="translate(146.4516,175.7473)">
						<path id="path5703" inkscape:connector-curvature="0" class="st1" d="M0,0l-0.7,0.4L0.1,2l0.7-0.4c0.3-0.2,0.4-0.5,0.3-0.7
							C1,0.7,0.8,0.7,0.7,0.7c0.1-0.1,0.2-0.3,0-0.5C0.6-0.1,0.3-0.2,0,0 M0.3,0.7L0,0.9l-0.2-0.4l0.4-0.2c0.2-0.1,0.3,0,0.3,0.1
							S0.5,0.6,0.3,0.7 M0.6,1.4L0.3,1.5L0.1,1.2L0.4,1c0.1-0.1,0.3,0,0.3,0.1C0.8,1.2,0.8,1.3,0.6,1.4"/>
					</g>
					<g id="g5705" transform="translate(146.4516,175.7473)">
						<path id="path5707" inkscape:connector-curvature="0" class="st4" d="M0,0l-0.7,0.4L0.1,2l0.7-0.4c0.3-0.2,0.4-0.5,0.3-0.7
							C1,0.7,0.8,0.7,0.7,0.7c0.1-0.1,0.2-0.3,0-0.5C0.6-0.1,0.3-0.2,0,0 M0.3,0.7L0,0.9l-0.2-0.4l0.4-0.2c0.2-0.1,0.3,0,0.3,0.1
							S0.5,0.6,0.3,0.7 M0.6,1.4L0.3,1.5L0.1,1.2L0.4,1c0.1-0.1,0.3,0,0.3,0.1C0.8,1.2,0.8,1.3,0.6,1.4z"/>
					</g>
					<g id="g5709" transform="translate(148.7898,174.3946)">
						<path id="path5711" inkscape:connector-curvature="0" class="st1" d="M0,0c-0.2,0-0.4,0.1-0.5,0.2l-0.6,0.4l1.1,1.5l0.6-0.4
							c0.2-0.1,0.3-0.3,0.3-0.5c0-0.3-0.1-0.5-0.3-0.7C0.4,0.3,0.3,0,0,0 M0.5,1.1c0,0.1-0.1,0.2-0.2,0.3L0.2,1.6l-0.7-0.9l0.2-0.2
							c0.1-0.1,0.2-0.1,0.3-0.1c0.1,0,0.2,0.1,0.4,0.3C0.5,0.9,0.5,1,0.5,1.1"/>
					</g>
					<g id="g5713" transform="translate(148.7898,174.3946)">
						<path id="path5715" inkscape:connector-curvature="0" class="st4" d="M0,0c-0.2,0-0.4,0.1-0.5,0.2l-0.6,0.4l1.1,1.5l0.6-0.4
							c0.2-0.1,0.3-0.3,0.3-0.5c0-0.3-0.1-0.5-0.3-0.7C0.4,0.3,0.3,0,0,0 M0.5,1.1c0,0.1-0.1,0.2-0.2,0.3L0.2,1.6l-0.7-0.9l0.2-0.2
							c0.1-0.1,0.2-0.1,0.3-0.1c0.1,0,0.2,0.1,0.4,0.3C0.5,0.9,0.5,1,0.5,1.1z"/>
					</g>
					<g id="g5717" transform="translate(149.0598,173.9309)">
						<path id="path5719" inkscape:connector-curvature="0" class="st1" d="M0,0l1.3,1.3l0.9-0.9L2,0.2L1.3,0.8L1,0.5L1.6,0L1.4-0.3
							L0.8,0.3L0.5,0l0.6-0.6L0.9-0.9"/>
					</g>
					<g id="g5721" transform="translate(149.0598,173.9309)">
						<path id="path5723" inkscape:connector-curvature="0" class="st4" d="M0,0l1.3,1.3l0.9-0.9L2,0.2L1.3,0.8L1,0.5L1.6,0L1.4-0.3
							L0.8,0.3L0.5,0l0.6-0.6L0.9-0.9L0,0z"/>
					</g>
					<g id="g5725" transform="translate(150.831,171.9216)">
						<path id="path5727" inkscape:connector-curvature="0" class="st1" d="M0,0c-0.2,0.2-0.3,0.5-0.2,0.7l0.3-0.1
							c0-0.2,0-0.3,0.1-0.5C0.4,0,0.5,0,0.6,0c0.1,0,0.1,0.1,0.1,0.1c0,0,0,0.1,0,0.2L0.6,0.6C0.5,0.7,0.5,0.8,0.5,1
							c0,0.1,0.1,0.2,0.2,0.3C1,1.5,1.3,1.4,1.5,1.1c0.2-0.2,0.2-0.4,0.2-0.6L1.4,0.5c0,0.2-0.1,0.3-0.1,0.4C1.2,1.1,1,1.1,0.9,1
							c0,0-0.1-0.1-0.1-0.1c0-0.1,0-0.1,0-0.2L1,0.5c0.1-0.2,0.1-0.3,0.1-0.4C1.1,0,1-0.2,0.9-0.3C0.6-0.5,0.2-0.3,0,0"/>
					</g>
					<g id="g5729" transform="translate(150.831,171.9216)">
						<path id="path5731" inkscape:connector-curvature="0" class="st4" d="M0,0c-0.2,0.2-0.3,0.5-0.2,0.7l0.3-0.1
							c0-0.2,0-0.3,0.1-0.5C0.4,0,0.5,0,0.6,0c0.1,0,0.1,0.1,0.1,0.1c0,0,0,0.1,0,0.2L0.6,0.6C0.5,0.7,0.5,0.8,0.5,1
							c0,0.1,0.1,0.2,0.2,0.3C1,1.5,1.3,1.4,1.5,1.1c0.2-0.2,0.2-0.4,0.2-0.6L1.4,0.5c0,0.2-0.1,0.3-0.1,0.4C1.2,1.1,1,1.1,0.9,1
							c0,0-0.1-0.1-0.1-0.1c0-0.1,0-0.1,0-0.2L1,0.5c0.1-0.2,0.1-0.3,0.1-0.4C1.1,0,1-0.2,0.9-0.3C0.6-0.5,0.2-0.3,0,0z"/>
					</g>
					<g id="g5733" transform="translate(153.0944,171.2105)">
						<path id="path5735" inkscape:connector-curvature="0" class="st1" d="M0,0l-1.3-0.7l-0.2,0.3l1.3,0.7l-0.2,0.4l0.3,0.2
							l0.7-1.2L0.2-0.4"/>
					</g>
					<g id="g5737" transform="translate(153.0944,171.2105)">
						<path id="path5739" inkscape:connector-curvature="0" class="st4" d="M0,0l-1.3-0.7l-0.2,0.3l1.3,0.7l-0.2,0.4l0.3,0.2
							l0.7-1.2L0.2-0.4L0,0z"/>
					</g>
					<g id="g5741" transform="translate(152.5104,168.8694)">
						<path id="path5743" inkscape:connector-curvature="0" class="st1" d="M0,0l0.5,0.6L0.4,0.9l-0.7-0.3L-0.4,1l1.7,0.7l0.3-0.7
							c0.1-0.4,0-0.7-0.3-0.8c-0.2-0.1-0.5,0-0.6,0.1L0.2-0.4L0,0 M1.3,0.8L1.2,1.2L0.7,1l0.1-0.3C0.9,0.5,1,0.4,1.2,0.5
							C1.3,0.6,1.4,0.7,1.3,0.8"/>
					</g>
					<g id="g5745" transform="translate(152.5104,168.8694)">
						<path id="path5747" inkscape:connector-curvature="0" class="st4" d="M0,0l0.5,0.6L0.4,0.9l-0.7-0.3L-0.4,1l1.7,0.7l0.3-0.7
							c0.1-0.4,0-0.7-0.3-0.8c-0.2-0.1-0.5,0-0.6,0.1L0.2-0.4L0,0 M1.3,0.8L1.2,1.2L0.7,1l0.1-0.3C0.9,0.5,1,0.4,1.2,0.5
							C1.3,0.6,1.4,0.7,1.3,0.8z"/>
					</g>
					<g id="g5749" transform="translate(153.0265,167.1798)">
						<path id="path5751" inkscape:connector-curvature="0" class="st1" d="M0,0l0.3,0.2L0.1,0.9l-0.3,0l-0.1,0.4l2-0.2l0.1-0.3
							L0.1-0.4L0,0 M1.1,0.8L0.4,0.8l0.1-0.5"/>
					</g>
					<g id="g5753" transform="translate(153.0265,167.1798)">
						<path id="path5755" inkscape:connector-curvature="0" class="st4" d="M0,0l0.3,0.2L0.1,0.9l-0.3,0l-0.1,0.4l2-0.2l0.1-0.3
							L0.1-0.4L0,0 M1.1,0.8L0.4,0.8l0.1-0.5L1.1,0.8z"/>
					</g>
					<g id="g5757" transform="translate(153.2037,166.1101)">
						<path id="path5759" inkscape:connector-curvature="0" class="st1" d="M0,0c0,0.3,0,0.5,0.1,0.7l0.3-0.2C0.3,0.4,0.3,0.2,0.3,0
							c0-0.2,0.1-0.3,0.3-0.3c0.1,0,0.1,0,0.1,0.1c0,0,0,0.1,0,0.2l0,0.2c0,0.2,0,0.3,0.1,0.4c0.1,0.1,0.2,0.2,0.3,0.2
							c0.3,0,0.6-0.2,0.6-0.6c0-0.3,0-0.5-0.1-0.7L1.5-0.2c0.1,0.1,0.1,0.3,0.1,0.4c0,0.2-0.1,0.3-0.3,0.3c0,0-0.1,0-0.1-0.1
							c0,0,0-0.1,0-0.2l0-0.2c0-0.2,0-0.3-0.1-0.4C0.9-0.5,0.8-0.6,0.7-0.6C0.3-0.7,0.1-0.4,0,0"/>
					</g>
					<g id="g5761" transform="translate(153.2037,166.1101)">
						<path id="path5763" inkscape:connector-curvature="0" class="st4" d="M0,0c0,0.3,0,0.5,0.1,0.7l0.3-0.2C0.3,0.4,0.3,0.2,0.3,0
							c0-0.2,0.1-0.3,0.3-0.3c0.1,0,0.1,0,0.1,0.1c0,0,0,0.1,0,0.2l0,0.2c0,0.2,0,0.3,0.1,0.4c0.1,0.1,0.2,0.2,0.3,0.2
							c0.3,0,0.6-0.2,0.6-0.6c0-0.3,0-0.5-0.1-0.7L1.5-0.2c0.1,0.1,0.1,0.3,0.1,0.4c0,0.2-0.1,0.3-0.3,0.3c0,0-0.1,0-0.1-0.1
							c0,0,0-0.1,0-0.2l0-0.2c0-0.2,0-0.3-0.1-0.4C0.9-0.5,0.8-0.6,0.7-0.6C0.3-0.7,0.1-0.4,0,0z"/>
					</g>
					<g id="g5765" transform="translate(153.3575,164.3158)">
						<path id="path5767" inkscape:connector-curvature="0" class="st1" d="M0,0l0,0.8l1.8,0l0-0.8c0-0.4-0.2-0.6-0.5-0.6
							C1.1-0.5,1-0.4,0.9-0.3c0-0.1-0.2-0.3-0.4-0.3C0.2-0.6,0-0.3,0,0 M0.8,0.1l0,0.4l-0.5,0l0-0.4c0-0.2,0.1-0.3,0.2-0.2
							C0.7-0.2,0.8-0.1,0.8,0.1 M1.5,0.1l0,0.4l-0.4,0l0-0.4c0-0.2,0.1-0.2,0.2-0.2C1.4-0.2,1.5-0.1,1.5,0.1"/>
					</g>
					<g id="g5769" transform="translate(153.3575,164.3158)">
						<path id="path5771" inkscape:connector-curvature="0" class="st4" d="M0,0l0,0.8l1.8,0l0-0.8c0-0.4-0.2-0.6-0.5-0.6
							C1.1-0.5,1-0.4,0.9-0.3c0-0.1-0.2-0.3-0.4-0.3C0.2-0.6,0-0.3,0,0 M0.8,0.1l0,0.4l-0.5,0l0-0.4c0-0.2,0.1-0.3,0.2-0.2
							C0.7-0.2,0.8-0.1,0.8,0.1 M1.5,0.1l0,0.4l-0.4,0l0-0.4c0-0.2,0.1-0.2,0.2-0.2C1.4-0.2,1.5-0.1,1.5,0.1z"/>
					</g>
					<g id="g5773" transform="translate(153.4099,162.2346)">
						<path id="path5775" inkscape:connector-curvature="0" class="st1" d="M0,0c-0.1,0.1-0.2,0.3-0.1,0.5C-0.1,0.8,0,0.9,0.1,1
							c0.2,0.2,0.4,0.1,0.7,0.1c0.3,0,0.5-0.1,0.7-0.3c0.1-0.1,0.2-0.3,0.1-0.5c0-0.2-0.1-0.4-0.3-0.5C1.3-0.3,1-0.3,0.7-0.3
							C0.4-0.2,0.2-0.2,0,0 M1.3,0.1c0.1,0,0.1,0.1,0.1,0.2c0,0.1,0,0.2-0.1,0.3C1.3,0.7,1.2,0.7,0.8,0.8c-0.4,0-0.4,0-0.5,0
							c-0.1,0-0.1-0.1-0.1-0.2c0-0.1,0-0.2,0.1-0.3c0.1-0.1,0.2-0.1,0.5-0.2S1.2,0.1,1.3,0.1"/>
					</g>
					<g id="g5777" transform="translate(153.4099,162.2346)">
						<path id="path5779" inkscape:connector-curvature="0" class="st4" d="M0,0c-0.1,0.1-0.2,0.3-0.1,0.5C-0.1,0.8,0,0.9,0.1,1
							c0.2,0.2,0.4,0.1,0.7,0.1c0.3,0,0.5-0.1,0.7-0.3c0.1-0.1,0.2-0.3,0.1-0.5c0-0.2-0.1-0.4-0.3-0.5C1.3-0.3,1-0.3,0.7-0.3
							C0.4-0.2,0.2-0.2,0,0 M1.3,0.1c0.1,0,0.1,0.1,0.1,0.2c0,0.1,0,0.2-0.1,0.3C1.3,0.7,1.2,0.7,0.8,0.8c-0.4,0-0.4,0-0.5,0
							c-0.1,0-0.1-0.1-0.1-0.2c0-0.1,0-0.2,0.1-0.3c0.1-0.1,0.2-0.1,0.5-0.2S1.2,0.1,1.3,0.1z"/>
					</g>
					<g id="g5781" transform="translate(152.9782,161.1036)">
						<path id="path5783" inkscape:connector-curvature="0" class="st1" d="M0,0c0.1,0.4,0.4,0.6,0.8,0.5L2,0.3L1.9-0.1L0.7,0.2
							c-0.2,0-0.4,0-0.4-0.2s0-0.4,0.3-0.4l1.2-0.3L1.6-1.1L0.5-0.8C0.1-0.8-0.1-0.4,0,0"/>
					</g>
					<g id="g5785" transform="translate(152.9782,161.1036)">
						<path id="path5787" inkscape:connector-curvature="0" class="st4" d="M0,0c0.1,0.4,0.4,0.6,0.8,0.5L2,0.3L1.9-0.1L0.7,0.2
							c-0.2,0-0.4,0-0.4-0.2s0-0.4,0.3-0.4l1.2-0.3L1.6-1.1L0.5-0.8C0.1-0.8-0.1-0.4,0,0z"/>
					</g>
					<g id="g5789" transform="translate(152.3626,159.1229)">
						<path id="path5791" inkscape:connector-curvature="0" class="st1" d="M0,0l0.8,0.1l0.1,0.3L0.2,0.6L0.4,1l1.7-0.6L1.8-0.4
							C1.7-0.8,1.4-0.9,1.1-0.8C0.8-0.7,0.7-0.5,0.7-0.3l-0.9-0.1L0,0 M1.5-0.3l0.1,0.3L1.2,0.2L1.1-0.1C1-0.2,1.1-0.4,1.2-0.4
							C1.3-0.5,1.5-0.4,1.5-0.3"/>
					</g>
					<g id="g5793" transform="translate(152.3626,159.1229)">
						<path id="path5795" inkscape:connector-curvature="0" class="st4" d="M0,0l0.8,0.1l0.1,0.3L0.2,0.6L0.4,1l1.7-0.6L1.8-0.4
							C1.7-0.8,1.4-0.9,1.1-0.8C0.8-0.7,0.7-0.5,0.7-0.3l-0.9-0.1L0,0 M1.5-0.3l0.1,0.3L1.2,0.2L1.1-0.1C1-0.2,1.1-0.4,1.2-0.4
							C1.3-0.5,1.5-0.4,1.5-0.3z"/>
					</g>
					<g id="g5797" transform="translate(151.7152,157.3626)">
						<path id="path5799" inkscape:connector-curvature="0" class="st1" d="M0,0c-0.1,0.2,0,0.4,0.1,0.6c0.1,0.2,0.2,0.3,0.4,0.4
							C0.8,1,1,0.9,1.2,0.8s0.5-0.3,0.6-0.5c0.1-0.2,0-0.4-0.1-0.6C1.5-0.7,1.2-0.8,0.9-0.7L1-0.3c0.2,0,0.3,0,0.4,0.2
							c0,0.1,0.1,0.2,0,0.3c0,0.1-0.1,0.2-0.4,0.3C0.7,0.6,0.7,0.6,0.6,0.6c-0.1,0-0.1-0.1-0.2-0.2c-0.1-0.1-0.1-0.2,0-0.3
							C0.3,0.1,0.4,0,0.5,0l0.1,0l0.2,0.3L1,0.1L0.6-0.6L0.4-0.4C0.2-0.3,0.1-0.2,0,0"/>
					</g>
					<g id="g5801" transform="translate(151.7152,157.3626)">
						<path id="path5803" inkscape:connector-curvature="0" class="st4" d="M0,0c-0.1,0.2,0,0.4,0.1,0.6c0.1,0.2,0.2,0.3,0.4,0.4
							C0.8,1,1,0.9,1.2,0.8s0.5-0.3,0.6-0.5c0.1-0.2,0-0.4-0.1-0.6C1.5-0.7,1.2-0.8,0.9-0.7L1-0.3c0.2,0,0.3,0,0.4,0.2
							c0,0.1,0.1,0.2,0,0.3c0,0.1-0.1,0.2-0.4,0.3C0.7,0.6,0.7,0.6,0.6,0.6c-0.1,0-0.1-0.1-0.2-0.2c-0.1-0.1-0.1-0.2,0-0.3
							C0.3,0.1,0.4,0,0.5,0l0.1,0l0.2,0.3L1,0.1L0.6-0.6L0.4-0.4C0.2-0.3,0.1-0.2,0,0z"/>
					</g>
					<g id="g5805" transform="translate(128.4018,160.4659)">
						<path id="path5807" inkscape:connector-curvature="0" class="st1" d="M0,0l-0.6-0.2L-0.4-1l-0.4-0.1L-1-0.3l-1-0.3l-0.1,0.4
							l2.5,0.7l0.4-1.4L0.3-0.9"/>
					</g>
					<g id="g5809" transform="translate(128.4018,160.4659)">
						<path id="path5811" inkscape:connector-curvature="0" class="st5" d="M0,0l-0.6-0.2L-0.4-1l-0.4-0.1L-1-0.3l-1-0.3l-0.1,0.4
							l2.5,0.7l0.4-1.3L0.3-0.9L0,0z"/>
					</g>
					<g id="g5813" transform="translate(127.6801,157.1988)">
						<path id="path5815" inkscape:connector-curvature="0" class="st1" d="M0,0c-0.2,0.1-0.4,0.2-0.5,0.4c-0.1,0.2-0.1,0.4,0,0.6
							c0.1,0.3,0.4,0.4,0.8,0.6C0.7,1.9,1,2,1.4,1.9c0.2-0.1,0.4-0.2,0.5-0.4c0.1-0.2,0.1-0.4,0-0.6C1.7,0.6,1.4,0.4,1,0.2
							C0.6,0.1,0.3-0.1,0,0 M1.4,1c0,0.1,0.1,0.2,0,0.3c0,0.1-0.1,0.2-0.2,0.2c-0.1,0-0.2,0-0.7-0.2C0.1,1.1,0,1-0.1,0.9
							c0-0.1-0.1-0.2,0-0.3C0,0.5,0,0.4,0.1,0.4c0.1,0,0.2,0,0.7,0.2C1.3,0.8,1.4,0.9,1.4,1"/>
					</g>
					<g id="g5817" transform="translate(127.6801,157.1988)">
						<path id="path5819" inkscape:connector-curvature="0" class="st5" d="M0,0c-0.2,0.1-0.4,0.2-0.5,0.4c-0.1,0.2-0.1,0.4,0,0.6
							c0.1,0.3,0.4,0.4,0.8,0.6C0.7,1.9,1,2,1.4,1.9c0.2-0.1,0.4-0.2,0.5-0.4c0.1-0.2,0.1-0.4,0-0.6C1.7,0.6,1.4,0.4,1,0.2
							C0.6,0.1,0.3-0.1,0,0 M1.4,1c0,0.1,0.1,0.2,0,0.3c0,0.1-0.1,0.2-0.2,0.2c-0.1,0-0.2,0-0.7-0.2C0.1,1.1,0,1-0.1,0.9
							c0-0.1-0.1-0.2,0-0.3C0,0.5,0,0.4,0.1,0.4c0.1,0,0.2,0,0.7,0.2C1.3,0.8,1.4,0.9,1.4,1z"/>
					</g>
					<g id="g5821" transform="translate(128.9405,155.2351)">
						<path id="path5823" inkscape:connector-curvature="0" class="st1" d="M0,0c-0.2,0-0.4,0.1-0.6,0.3c-0.1,0.2-0.2,0.4-0.1,0.6
							C-0.6,1.3-0.3,1.4,0,1.7C0.4,2,0.7,2.1,1,2.1c0.2,0,0.4-0.1,0.6-0.3c0.1-0.2,0.2-0.4,0.1-0.6C1.6,0.9,1.3,0.7,1,0.4S0.3,0,0,0
							 M1.2,1.3c0,0.1,0,0.2,0,0.3C1.1,1.6,1,1.7,0.9,1.7c-0.1,0-0.2,0-0.6-0.3C-0.1,1.1-0.2,1-0.2,0.9c0-0.1,0-0.2,0-0.3
							C-0.1,0.5,0,0.4,0.1,0.4c0.1,0,0.2,0,0.6,0.3C1.1,1,1.2,1.1,1.2,1.3"/>
					</g>
					<g id="g5825" transform="translate(128.9405,155.2351)">
						<path id="path5827" inkscape:connector-curvature="0" class="st5" d="M0,0c-0.2,0-0.4,0.1-0.6,0.3c-0.1,0.2-0.2,0.4-0.1,0.6
							C-0.6,1.3-0.3,1.4,0,1.7C0.4,2,0.7,2.1,1,2.1c0.2,0,0.4-0.1,0.6-0.3c0.1-0.2,0.2-0.4,0.1-0.6C1.6,0.9,1.3,0.7,1,0.4S0.3,0,0,0
							 M1.2,1.3c0,0.1,0,0.2,0,0.3C1.1,1.6,1,1.7,0.9,1.7c-0.1,0-0.2,0-0.6-0.3C-0.1,1.1-0.2,1-0.2,0.9c0-0.1,0-0.2,0-0.3
							C-0.1,0.5,0,0.4,0.1,0.4c0.1,0,0.2,0,0.6,0.3C1.1,1,1.2,1.1,1.2,1.3z"/>
					</g>
					<g id="g5829" transform="translate(131.4447,155.2063)">
						<path id="path5831" inkscape:connector-curvature="0" class="st1" d="M0,0l-1.5-1.5l-0.3,0.3l1.5,1.5l-0.4,0.4L-0.4,1l1.1-1.1
							L0.4-0.4"/>
					</g>
					<g id="g5833" transform="translate(131.4447,155.2063)">
						<path id="path5835" inkscape:connector-curvature="0" class="st5" d="M0,0l-1.5-1.5l-0.3,0.3l1.5,1.5l-0.4,0.4L-0.4,1l1.1-1.1
							L0.4-0.4L0,0z"/>
					</g>
					<g id="g5837" transform="translate(131.6265,152.3049)">
						<path id="path5839" inkscape:connector-curvature="0" class="st1" d="M0,0l-0.7,0.5l1.5,2.1l0.7-0.5c0.3-0.2,0.4-0.6,0.1-1
							C1.4,0.9,1.2,0.8,1.1,0.8C1.1,0.7,1.2,0.5,1,0.2C0.7-0.2,0.3-0.2,0,0 M0.6,0.9L0.3,1.1l-0.4-0.5l0.3-0.3
							c0.2-0.1,0.3-0.1,0.4,0.1C0.7,0.6,0.8,0.8,0.6,0.9 M1.2,1.7L0.9,2L0.5,1.5l0.3-0.2C1,1.2,1.1,1.2,1.2,1.3S1.3,1.6,1.2,1.7"/>
					</g>
					<g id="g5841" transform="translate(131.6265,152.3049)">
						<path id="path5843" inkscape:connector-curvature="0" class="st5" d="M0,0l-0.7,0.5l1.5,2.1l0.7-0.5c0.3-0.2,0.4-0.6,0.1-1
							C1.4,0.9,1.2,0.8,1.1,0.8C1.1,0.7,1.2,0.5,1,0.2C0.7-0.2,0.3-0.2,0,0 M0.6,0.9L0.3,1.1l-0.4-0.5l0.3-0.3
							c0.2-0.1,0.3-0.1,0.4,0.1C0.7,0.6,0.8,0.8,0.6,0.9 M1.2,1.7L0.9,2L0.5,1.5l0.3-0.2C1,1.2,1.1,1.2,1.2,1.3S1.3,1.6,1.2,1.7z"/>
					</g>
					<g id="g5845" transform="translate(133.9647,150.923)">
						<path id="path5847" inkscape:connector-curvature="0" class="st1" d="M0,0l0.1,0.5l-0.7,0.3l-0.3-0.3l-0.4,0.2l1.8,1.9
							l0.3-0.1L0.4-0.2L0,0 M0.4,1.8l-0.7-0.7l0.5-0.2"/>
					</g>
					<g id="g5849" transform="translate(133.9647,150.923)">
						<path id="path5851" inkscape:connector-curvature="0" class="st5" d="M0,0l0.1,0.5l-0.7,0.3l-0.3-0.3l-0.4,0.2l1.8,1.9
							l0.3-0.1L0.4-0.2L0,0 M0.4,1.8l-0.7-0.7l0.5-0.2L0.4,1.8z"/>
					</g>
					<g id="g5853" transform="translate(134.9844,150.4878)">
						<path id="path5855" inkscape:connector-curvature="0" class="st1" d="M0,0l0.8,2.4l0.4-0.1l-0.7-2L1.4,0L1.3-0.4"/>
					</g>
					<g id="g5857" transform="translate(134.9844,150.4878)">
						<path id="path5859" inkscape:connector-curvature="0" class="st5" d="M0,0l0.8,2.4l0.4-0.1l-0.7-2L1.4,0L1.3-0.4L0,0z"/>
					</g>
					<g id="g5861" transform="translate(137.0111,149.881)">
						<path id="path5863" inkscape:connector-curvature="0" class="st1" d="M0,0l0.5,2.5l0.4-0.1L0.5,0.4l1-0.2L1.4-0.2"/>
					</g>
					<g id="g5865" transform="translate(137.0111,149.881)">
						<path id="path5867" inkscape:connector-curvature="0" class="st5" d="M0,0l0.5,2.5l0.4-0.1L0.5,0.4l1-0.2L1.4-0.2L0,0z"/>
					</g>
					<g id="g5869">
						<g id="g5871">
							<g id="g5877">
								
									<linearGradient id="path5885_00000077308144779360158550000001460621417800583845_" gradientUnits="userSpaceOnUse" x1="124.1891" y1="143.4774" x2="124.6891" y2="143.4774" gradientTransform="matrix(-68.6819 -80.1283 -467.2784 400.5284 75713.25 -47351.9766)">
									<stop  offset="0" style="stop-color:#BC151B"/>
									<stop  offset="1" style="stop-color:#ED1C24"/>
								</linearGradient>
								
									<path id="path5885" inkscape:connector-curvature="0" style="fill-rule:evenodd;clip-rule:evenodd;fill:url(#path5885_00000077308144779360158550000001460621417800583845_);" d="
									M152.8,154.5c-0.8-1.3-4.2-4-6.7-4.8c-7.1,5.7-14.2,11.5-21.4,17.2c0.4,2.4,1.5,5.6,3.5,7.8L152.8,154.5"/>
							</g>
							<g id="g5887">
								
									<linearGradient id="path5895_00000018229764787268127340000016895402847095357071_" gradientUnits="userSpaceOnUse" x1="124.2158" y1="143.4774" x2="124.6989" y2="143.4774" gradientTransform="matrix(-68.6819 -80.1283 -467.2784 400.5284 75713.25 -47351.9766)">
									<stop  offset="0" style="stop-color:#ED1C24"/>
									<stop  offset="1" style="stop-color:#BC151B"/>
								</linearGradient>
								
									<path id="path5895" inkscape:connector-curvature="0" style="fill-rule:evenodd;clip-rule:evenodd;fill:url(#path5895_00000018229764787268127340000016895402847095357071_);" d="
									M152.8,154.5c-0.8-1.3-4.2-4-6.7-4.8c-7.1,5.7-14.2,11.5-21.4,17.2c0.4,2.4,1.5,5.6,3.5,7.8L152.8,154.5"/>
							</g>
						</g>
					</g>
					<g id="g5897" transform="translate(152.8328,154.5239)">
						<path id="path5899" inkscape:connector-curvature="0" class="st8" d="M0,0c-0.8-1.3-4.2-4-6.7-4.8C-13.9,0.9-21,6.6-28.1,12.4
							c0.4,2.4,1.5,5.6,3.5,7.8L0,0z"/>
					</g>
					<g id="g5901" transform="translate(151.2877,161.5288)">
						<path id="path5903" inkscape:connector-curvature="0" class="st1" d="M0,0c3.1,11.5-9.6,17.2-14.6,13.1c-2.4-2,1-4.5,1.3-6.4
							c0.1-0.7-0.3-0.8-0.7-0.4c-0.7,0.6-1.6,2.5-2.3,1.6c-0.2-0.3-0.3-0.7-0.1-0.9c0.4-0.5,1.4-0.7,2-1.3c0.1-0.1,0.1-0.4,0-0.5
							c-0.1-0.1-0.3-0.1-0.4-0.1c-3.7,0.9-2.7,1.2-4.6,1.2c-1,0-1.9-0.6-2.1-1.4c-1.9-8.2,7.6-16.7,16.4-11.2
							c-6.6-2.4-12.5,2.8-11.3,9.2c0.3,1.4,2.7,1,3.6,2c0.9,1.1-0.2,3.5,1.2,4.1C-5.9,11.3,0.5,7.5,0,0"/>
					</g>
					<g id="g5905" transform="translate(151.2877,161.5288)">
						<path id="path5907" inkscape:connector-curvature="0" class="st9" d="M0,0c3.1,11.5-9.6,17.2-14.6,13.1c-2.4-2,1-4.5,1.3-6.4
							c0.1-0.7-0.3-0.8-0.7-0.4c-0.7,0.6-1.6,2.5-2.3,1.6c-0.2-0.3-0.3-0.7-0.1-0.9c0.4-0.5,1.4-0.7,2-1.3c0.1-0.1,0.1-0.4,0-0.5
							c-0.1-0.1-0.3-0.1-0.4-0.1c-3.7,0.9-2.7,1.2-4.6,1.2c-1,0-1.9-0.6-2.1-1.4c-1.9-8.2,7.6-16.7,16.4-11.2
							c-6.6-2.4-12.5,2.8-11.3,9.2c0.3,1.4,2.7,1,3.6,2c0.9,1.1-0.2,3.5,1.2,4.1C-5.9,11.3,0.5,7.5,0,0z"/>
					</g>
					<g id="g5909" transform="translate(128.4725,174.4399)">
						<path id="path5911" inkscape:connector-curvature="0" class="st1" d="M0,0l6.7-4.8L6.2-5.6"/>
					</g>
					<g id="g5913" transform="translate(128.4725,174.4399)">
						<path id="path5915" inkscape:connector-curvature="0" class="st9" d="M0,0l6.7-4.8L6.2-5.6L0,0z"/>
					</g>
					<g id="g5917" transform="translate(143.6823,168.2742)">
						<path id="path5919" inkscape:connector-curvature="0" class="st1" d="M0,0c3.5,0,6.4-2.9,6.4-6.4S3.5-12.8,0-12.8
							c-3.5,0-6.4,2.9-6.4,6.4S-3.5,0,0,0"/>
					</g>
					<g id="g5921" transform="translate(143.6823,168.2742)">
						<path id="path5923" inkscape:connector-curvature="0" class="st9" d="M0,0c3.5,0,6.4-2.9,6.4-6.4S3.5-12.8,0-12.8
							c-3.5,0-6.4,2.9-6.4,6.4S-3.5,0,0,0z"/>
					</g>
					<g id="g5925" transform="translate(140.8976,161.6638)">
						<path id="path5927" inkscape:connector-curvature="0" class="st10" d="M0,0v4.7c0.7,0,1.4,0,2.1,0c1.7,0,1.8-0.7,1.8-1
							S4,2.5,2.4,2.5c-0.3,0-0.8,0-1.1,0c1.1-0.9,2.4-1.6,3.4-2.6C5.1-0.6,5-1.3,5.3-1.8c0.2-0.3,0.6-0.5,1-0.5
							c0.4,0,0.9,0.1,1.3,0.4c0.3,0.3,0.5,0.8,0.5,1.2c0,0.4-0.3,0.9-0.6,1.1C7,0.8,6.1,0.7,5.6,1.2c-0.3,0.3-0.2,1,0,1.4
							C5.7,2.8,6.2,3,6.5,3c0.4,0,0.9-0.4,0.9-0.8"/>
					</g>
					<g id="g5929" transform="translate(146.6094,157.3294)">
						<path id="path5931" inkscape:connector-curvature="0" class="st10" d="M0,0c-0.7,0-1.6,0-2.2,0c-0.5,0-1.3,0.7-1.6,1.2
							C-3.9,1.7-4,2.4-3.8,3c0.2,0.5,1.2,1.4,2.3,1.1"/>
					</g>
					<g id="g5933" transform="translate(138.5331,158.935)">
						<path id="path5935" inkscape:connector-curvature="0" class="st11" d="M0,0c0,0.9,0,1.9,0,2.9C0.1,3,0.1,3.1,0.2,3.1
							c0,0.4,0,0.7,0,1.1c0.1,0.1,0.2,0.2,0.3,0.3c0,0.3,0.3,2.2,0.3,2.2s0.2-1.9,0.2-2.2C1,4.4,1.1,4.3,1.2,4.2c0-0.4,0-0.7,0-1.1
							c0-0.1,0.1-0.2,0.1-0.2c0-0.6,0-1.2,0-1.8c0.6,0,1.2,0,1.8,0c0.1-0.5,0-1,0.2-1.5c0.2-0.6,0.9-1,0.8-1.2
							c0-0.1-0.2-0.2-0.3-0.2c-0.6,0-1.3,0-1.9,0C1.1-1.5,0.4-0.7,0,0"/>
					</g>
				</g>
			</g>
		</g>
	</g>
</g>
</svg>
