<?xml version="1.0" encoding="utf-8"?>
<!-- Generator: Adobe Illustrator 26.0.2, SVG Export Plug-In . SVG Version: 6.00 Build 0)  -->
<svg version="1.1" id="Calque_1" xmlns="http://www.w3.org/2000/svg" xmlns:xlink="http://www.w3.org/1999/xlink" x="0px" y="0px"
	 width="203.5px" height="405px" viewBox="0 0 203.5 405" style="enable-background:new 0 0 203.5 405;" xml:space="preserve">
<style type="text/css">
	.st0{fill:#EB0000;}
</style>
<path class="st0" d="M101.8,263c38.8-11.6,71.6-55.3,71.6-95.6V89.5h-13.2v77.9c0,15.8-6.1,33.1-17.2,48.6c0,0-15.7,23.8-41.2,33
	c-25.5-9.2-41.2-33-41.2-33c-11.1-15.5-17.2-32.8-17.2-48.6V89.5H30.2v77.9C30.2,207.7,62.9,251.4,101.8,263z"/>
<path class="st0" d="M88.7,224.7V143l-16.3,9v55C77,213.6,82.5,219.5,88.7,224.7z"/>
<path class="st0" d="M117.7,182.4l14.3,23.9c-3.6,5.1-7.7,9.9-12.2,14.3l-27.3-50.5l16.2,0.1c1.2,0,2.3-0.5,3.1-1.3
	c0.9-0.9,1.3-2.1,1.3-3.3v-11.5c-0.1-2.3-1.4-4.3-3.3-5.5c-7.5-3.9-20.4-11.2-29.9-16.6c-5.2-3-8.4-8.5-8.4-14.5v-11.9
	c0-9.2,7.5-16.7,16.8-16.7h28.2c7.2,0,13,5.8,13,13l0,0v7.2l-16.3,9v-10.5c0-2.6-2-4.4-5.1-4.4H94.3c-2.8,0-5.1,2.3-5.1,5.1v6.8
	c0,2.2,1.2,4.3,3.1,5.4c0.2,0.1,14.5,7.5,28.4,14.9c5.4,2.9,8.8,8.5,8.8,14.7v19.6C129.5,169.7,129.8,180.7,117.7,182.4z"/>
<path class="st0" d="M141.6,63.4v-5.3c0-3,0.6-6,1.7-8.8l7.3-18.6h-12.9c-0.2,2.3-1.2,4.5-2.8,6.2c-2.4,2.3-6,3.1-9.6,3.1
	c-9.8,0-17.1-9.1-17.1-19.1H95.4c0,10-7.4,19.1-17.2,19.1c-3.6,0-7.2-0.9-9.6-3.1C67,35.2,66,33,65.8,30.7H52.9l7.3,18.6
	c1.1,2.8,1.7,5.8,1.7,8.8v5.3H141.6z M106.1,55.7c-2.9,0.4-5.8,0.4-8.6,0c-2.3-3.1-4.2-6.4-5.6-10c2.9-2.9,6.3-5.4,10-7.4l0,0
	c3.6,2,7,4.5,9.9,7.4C110.3,49.3,108.4,52.6,106.1,55.7L106.1,55.7z"/>
<g>
	<polygon class="st0" points="188.7,312.7 173.2,312.7 173.2,323 193,323 193,330.3 164.9,330.3 164.9,289.2 193,289.2 193,296.5 
		173.2,296.5 173.2,305.7 190.1,305.7 	"/>
	<path class="st0" d="M18.8,384.1h-8.3v-40.7c5.3-0.5,10.6-0.8,15.9-0.7c11.6,0,15.5,3,15.5,13.6c0,8-2.1,11.2-8.1,12.4l9.7,15.4
		h-9.4l-13.5-21.2h4.9c6.3,0,8-0.9,8-6.3s-1.6-6.6-8-6.6h-6.6L18.8,384.1L18.8,384.1z"/>
	<polygon class="st0" points="75.9,366.5 60.4,366.5 60.4,376.8 80.2,376.8 80.2,384.1 52.1,384.1 52.1,343 80.2,343 80.2,350.3 
		60.4,350.3 60.4,359.5 77.3,359.5 	"/>
	<polygon class="st0" points="89.8,384.1 89.8,347 98.1,342.2 98.1,384.1 	"/>
	<path class="st0" d="M147,384.1l-2.4-26.3l-9.9,25h-6.6l-9.8-25l-2.4,26.3h-8.4l4-41h7c1.7,0,2.3,0.4,3,2.1l9.9,25.8l9.9-25.8
		c0.6-1.7,1.3-2.1,3-2.1h7l4,41H147z"/>
	<path class="st0" d="M184.5,351.8c0-1.1-0.9-1.9-1.9-1.9l0,0h-9c-1.1,0-1.9,0.9-1.9,1.9l0,0v2.8c-0.1,1.2,0.7,2.4,1.9,2.7l11.3,4.1
		c4.4,1.5,8.1,3.6,8.1,9.6v5c0,4.4-3.6,8-8,8h-13.5c-4.4,0-8-3.6-8-8v-2.1l7.9-4.3v5.7c0,1.1,0.9,1.9,1.9,1.9l0,0h9.6
		c1.1,0,1.9-0.9,1.9-1.9l0,0v-2.8c0-1.9-0.9-3-2.8-3.6l-10.4-3.9c-4.5-1.6-8.1-3.8-8.1-9.9V351c0-4.4,3.6-8,8-8h12.8
		c4.4,0,8,3.6,8,8v1.6l-7.9,4.3L184.5,351.8L184.5,351.8z"/>
	<polygon class="st0" points="57,330.3 57,293.7 43.7,293.7 43.7,289.2 76.3,289.2 75.2,293.7 62.1,293.7 62,330.3 	"/>
	<path class="st0" d="M129.1,296.4v27.1h7.8c6.4,0,8.8-4,8.8-13.5s-2.4-13.6-9.2-13.6H129.1z M154.1,310c0,14.7-4.7,20.8-17.2,20.8
		c0,0-9.4,0-16.2-0.6v-40.3c7.1-0.7,16.2-0.6,16.2-0.6C149.4,289.2,154.1,295.4,154.1,310"/>
	<path class="st0" d="M107.8,330.3l-5-13H84.7l-5,13.1h-5.2L89,291.3c0.4-1.2,1.5-1.9,2.8-2h4.1c1.2,0,2.3,0.8,2.8,2l14.4,39.1
		L107.8,330.3z M101.2,312.6L94.5,294c-0.1-0.2-0.2-0.3-0.4-0.3h-0.4c-0.2,0-0.3,0.1-0.4,0.3l-6.8,18.6H101.2z"/>
	<path class="st0" d="M17.3,330.3c-3.7,0-6.8-3-6.8-6.8v-2.2l5.1-2.8v5.3c0,1.2,1,2.1,2.1,2.1h13.8c1.2,0,2.1-1,2.1-2.1v-6.6
		c0-1.7-0.4-2.5-3.1-3.5l-13-4.3c-4.4-1.5-6.9-3.5-6.9-8.8v-4.7c0-3.7,3-6.8,6.8-6.8h13.8c3.7,0,6.7,3,6.7,6.8l0,0v1.8l-5,2.8v-4.1
		c0-1.6-1.3-2.9-2.9-2.9H18.5c-1.6,0-2.9,1.3-2.9,2.9v3.8c-0.1,1.8,1.1,3.5,2.9,4l12.9,4.2c6.1,2.2,7.4,4.8,7.4,8.5v6.6
		c0,3.7-3,6.8-6.8,6.8L17.3,330.3z"/>
</g>
</svg>
