<?xml version="1.0" encoding="utf-8"?>
<!-- Generator: Adobe Illustrator 26.0.2, SVG Export Plug-In . SVG Version: 6.00 Build 0)  -->
<svg version="1.1" id="Layer_1" xmlns:svg="http://www.w3.org/2000/svg"
	 xmlns="http://www.w3.org/2000/svg" xmlns:xlink="http://www.w3.org/1999/xlink" x="0px" y="0px" width="525px" height="580px"
	 viewBox="0 0 525 580" style="enable-background:new 0 0 525 580;" xml:space="preserve">
<style type="text/css">
	.st0{fill:#FCBC17;}
	.st1{fill:#E13327;}
	.st2{fill:#FFFFFF;}
</style>
<path id="path9808" class="st0" d="M462.8,187.6c-6.3-25.9-11.7-48.3-13.1-61c-3.7-32.8,10.8-55.1,10.9-55.3l4.1-6.3L418.8,7.6
	l-6.4,1.6c-42.1,10.4-96.8,16-154.1,16l-1.3,0l-1.3,0c-57.2,0-111.9-5.7-154.1-16l-6.4-1.6L49.5,65.1l4.1,6.3
	c0.2,0.2,14.6,22.5,10.9,55.3c-1.4,12.7-6.8,35.1-13.1,61c-11.7,48.5-26.3,108.9-26.3,151.6c0,77.7,31.7,116.4,125.8,153.2l9.7,3.8
	c36.3,14.1,75.4,26.3,88.3,56.1c4.2,8.1,5.3,10.2,8.2,20.7c2.9-10.5,4-12.7,8.2-20.7c12.9-29.8,52.1-42,88.3-56.1l9.7-3.8
	c94-36.8,125.8-75.5,125.8-153.2C489.1,296.5,474.5,236.1,462.8,187.6z"/>
<path id="path9810" class="st1" d="M470.3,267.5c-5-26.2-11.6-53.3-17.4-77.5c-6.3-26-11.7-48.3-13.3-62.3c-0.5-4.1-0.7-8-0.7-11.8
	c0-22,6.8-38.3,10.6-45.7c1.3-2.5,2.2-3.9,2.6-4.5c0,0,0,0,0,0l0,0c0,0,0,0,0,0l-37.2-46.5c-43.2,10.6-98.6,16.3-156.5,16.3h0
	l-1.3,0v510.1c3.8-7.8,9.2-14.5,15.4-20.2c6.9-6.3,14.9-11.5,23.4-16.1c17-9.1,36.1-15.7,54.1-22.6l9.6-3.7
	c34.7-13.6,60.2-27.3,78.3-42.5c18-15.3,28.8-31.7,35-52.5c4.1-13.9,6-29.9,6-48.7C478.9,319,475.3,293.7,470.3,267.5z"/>
<path id="path9812" d="M257.1,35.4l-1.3,0c-57.9,0-113.3-5.7-156.5-16.3l0,0L62.1,65.6c0,0,0,0,0.1,0.1c0,0.1,0.1,0.1,0.1,0.1
	c0.1,0.1,0.1,0.2,0.2,0.3c0.1,0.2,0.3,0.5,0.5,0.9c0.4,0.7,1,1.7,1.6,2.9c1.3,2.4,2.9,5.9,4.5,10.2c3.2,8.7,6.3,21,6.3,35.8
	c0,3.8-0.2,7.7-0.7,11.8c-1.6,14-7,36.2-13.3,62.3C55.6,214.3,49,241.4,44,267.5c-5,26.2-8.6,51.5-8.6,71.7c0,18.7,1.9,34.7,6,48.7
	c4.1,13.9,10.3,25.8,19.3,36.8c17.9,21.8,47.6,40.1,93.9,58.2l9.7,3.8c13.4,5.2,27.6,10.3,41,16.3c13.4,6,26.1,13,36.4,22.5
	c6.2,5.7,11.6,12.4,15.4,20.2L257.1,35.4L257.1,35.4z"/>
<path id="path9814" class="st2" d="M95.2,344.5c-2.1-2.2-5.4-3.4-8.5-3.4c-3.1,0-6.9,1.2-6.9,4.9c0,7.4,18.5,7.3,18.5,17.2
	c0,5.8-6,11.1-14.4,11.1c-3.3,0-6.6-0.5-9.6-1.6l-1.6-6.7c3.2,2.7,7.6,4.5,11.8,4.5c3.1,0,7.7-1.8,7.7-5.6c0-8.4-18.5-6.9-18.5-18.3
	c0-6.8,6.9-9.4,13.5-9.4c2.7,0,5.4,0.4,8,1.2L95.2,344.5"/>
<path id="path9816" class="st2" d="M113.5,366.5c0,3.1-0.1,5.2,2.8,6.8v0.2h-10.7v-0.2c2.7-1,2.4-4.9,2.4-7.4v-24h-4.7
	c-2.3,0-4.7,0.6-6.4,2.1h-0.2l1.9-6.4h0.2c0.6,0.3,1.3,0.3,2,0.4h21.4c0.9,0,1.8,0,2.5-0.4h0.2l-1.7,6.4H123
	c-0.7-1.9-2.8-2.1-4.6-2.1h-4.8L113.5,366.5"/>
<path id="path9818" class="st2" d="M137.6,342.7l-5.3,13.6h10.6L137.6,342.7 M130.8,360.3l-2.8,7.6c-1.1,3-1.5,4.6,1.1,5.5v0.2h-9.9
	v-0.2c3.1-1.6,4-4.6,5.2-7.6l9-22.5c0.8-1.9,1.8-4.2-0.8-5v-0.2h8.5l11.2,27.6c1.2,3.1,2.2,6.1,5.3,7.6v0.2h-11v-0.2
	c2.6-1.2,2.2-1.8,0.8-5.5l-2.9-7.6L130.8,360.3L130.8,360.3z"/>
<path id="path9820" class="st2" d="M167.2,369.3c1.3,0.3,2.6,0.4,3.9,0.4c8,0,15.2-4.2,15.2-13.5c0-9.4-5.3-14.2-14.3-14.2
	c-1.6,0-3.2,0.2-4.8,0.6V369.3 M161.7,345.5c0-2.5,0.4-6.4-2.4-7.2v-0.2h13.2c12.3,0,19.9,6.7,19.9,17.4c0,10.6-8.1,18-20.2,18
	h-12.9v-0.2c2.7-1.8,2.4-4.4,2.4-7.6L161.7,345.5L161.7,345.5z"/>
<path id="path9822" class="st2" d="M202.8,369l6.8,0.7c3.6,0.3,7.3-0.8,10-3.2h0.2l-2.4,7h-22.5v-0.2c2.8-1,2.4-4.9,2.4-7.4v-20.3
	c0-2.5,0.3-6.4-2.4-7.4v-0.2h17.2c0.9,0,1.8,0.1,2.5-0.3h0.2v6.3h-0.2c-1.7-1.9-3.9-2.1-6.4-2.1c-1.9,0-3.8,0.1-5.5,0.4v10h6.4
	c0.9,0,1.7,0,2.4-0.3h0.2v5.7h-0.2c-0.9-1.6-3.1-1.5-4.8-1.5h-4L202.8,369"/>
<path id="path9824" class="st2" d="M247.9,338.1c7.2,0,11.1,3.8,11.1,8.7c0,4.7-4.1,8.5-8.6,9.5l7.7,9.7c2.3,2.8,5.7,5.6,8.7,7.5h-5
	c-2.8,0-4.6-0.7-6.2-2.7l-6.6-8.1l-5-7.6c4.3-0.6,9.3-2.6,9.3-7.7c0-3.9-3.3-6.1-6.9-6c-1.2,0.1-2.4,0.2-3.7,0.4V366
	c0,2.5-0.3,6.4,2.4,7.4v0.2h-10.3v-0.2c2.7-1,2.4-4.9,2.4-7.4v-20.3c0-2.5,0.4-6.4-2.4-7.4v-0.2L247.9,338.1"/>
<path id="path9826" class="st2" d="M273.1,369l6.8,0.7c3.6,0.3,7.3-0.8,10-3.2h0.2l-2.4,7h-22.5v-0.2c2.7-1,2.4-4.9,2.4-7.4v-20.3
	c0-2.5,0.3-6.4-2.4-7.4v-0.2h17.2c0.9,0,1.8,0.1,2.5-0.3h0.2v6.3h-0.2c-1.7-1.9-3.9-2.1-6.4-2.1c-1.9,0-3.8,0.1-5.5,0.4v10h6.4
	c0.9,0,1.7,0,2.4-0.3h0.2v5.7h-0.2c-0.9-1.6-3.1-1.5-4.8-1.5h-4L273.1,369"/>
<path id="path9828" class="st2" d="M298,366.5c0,3-0.1,5.2,2.8,6.8v0.2h-9.5v-0.2c2.9-1.7,2.9-3.8,2.9-6.8v-21.5c0-3,0-5.2-2.8-6.8
	v-0.2h7.9v0c0.2,0.6,0.4,0.9,0.8,1.4l0.8,1.1l19.7,24.9v-20.4c0-3,0.1-5.2-2.8-6.8v-0.2h9.5v0.2c-2.8,1.6-2.8,3.8-2.8,6.8v30.2
	c-3.8-1.3-5.5-3.1-7.9-6.1L298,345.7L298,366.5"/>
<path id="path9830" class="st2" d="M335.4,366.5c0,3-0.1,5.2,2.8,6.8v0.2h-9.5v-0.2c2.9-1.7,2.9-3.8,2.9-6.8v-21.5
	c0-3,0-5.2-2.8-6.8v-0.2h7.9v0c0.2,0.6,0.4,0.9,0.8,1.4l0.8,1.1l19.7,24.9v-20.4c0-3,0.1-5.2-2.8-6.8v-0.2h9.5v0.2
	c-2.8,1.6-2.8,3.8-2.8,6.8v30.2c-3.8-1.3-5.5-3.1-7.9-6.1l-18.5-23.4V366.5"/>
<path id="path9832" class="st2" d="M383,342.7l-5.3,13.6h10.6L383,342.7 M376.2,360.3l-2.8,7.6c-1.1,3-1.5,4.6,1.1,5.5v0.2h-9.9
	v-0.2c3.1-1.6,4-4.6,5.2-7.6l9-22.5c0.8-1.9,1.8-4.2-0.8-5v-0.2h8.5l11.2,27.6c1.2,3.1,2.2,6.1,5.3,7.6v0.2h-11v-0.2
	c2.6-1.2,2.2-1.8,0.8-5.5l-2.9-7.6L376.2,360.3L376.2,360.3z"/>
<path id="path9834" class="st2" d="M407.2,345.7c0-2.5,0.4-6.4-2.4-7.4v-0.2h10.2v0.2c-2.7,1-2.4,5-2.4,7.4V366
	c0,2.4-0.3,6.4,2.4,7.4v0.2h-10.2v-0.2c2.7-1,2.4-4.9,2.4-7.4V345.7"/>
<path id="path9836" class="st2" d="M438.5,344.5c-2.1-2.2-5.4-3.4-8.4-3.4c-3.1,0-6.9,1.2-6.9,4.9c0,7.4,18.5,7.3,18.5,17.2
	c0,5.8-6,11.1-14.4,11.1c-3.3,0-6.6-0.5-9.6-1.6l-1.6-6.7c3.2,2.7,7.6,4.5,11.8,4.5c3.1,0,7.7-1.8,7.7-5.6c0-8.4-18.5-6.9-18.5-18.3
	c0-6.8,6.9-9.4,13.5-9.4c2.7,0,5.4,0.4,8,1.2L438.5,344.5"/>
<path id="path9838" class="st2" d="M131.7,409.2c0,1.3-0.2,3.6,1.3,4.1v0.1h-5.7v-0.1c1.5-0.5,1.4-2.8,1.4-4.1v-11.3
	c0-1.4,0.2-3.6-1.4-4.2v-0.1h9.6c0.5,0,1,0.1,1.4-0.1h0.1v3.5h-0.1c-0.9-1-2.2-1.2-3.6-1.2c-1,0-2.1,0-3.1,0.2v5.6h3.6
	c0.4,0,0.9,0,1.3-0.2h0.1v3.2h-0.1c-0.5-0.9-1.7-0.8-2.7-0.8h-2.2L131.7,409.2"/>
<path id="path9840" class="st2" d="M145,403.2c0,4.2,3,8.5,7.7,8.5c4.6,0,7.5-3.3,7.5-7.8c0-4.4-2.8-8.6-7.6-8.6
	C148,395.3,145,398.6,145,403.2 M163.7,403.3c0,6.1-5.1,10.6-11.1,10.6c-6,0-11-4.3-11-10.4c0-5.7,5-10.5,11.3-10.4
	C159.2,393.1,163.7,397.9,163.7,403.3z"/>
<path id="path9842" class="st2" d="M170.6,403.2c0,4.2,3,8.5,7.7,8.5c4.6,0,7.5-3.3,7.5-7.8c0-4.4-2.8-8.6-7.5-8.6
	C173.6,395.3,170.6,398.6,170.6,403.2 M189.2,403.3c0,6.1-5.1,10.6-11.1,10.6c-6,0-11-4.3-11-10.4c0-5.7,5-10.5,11.3-10.4
	C184.8,393.1,189.2,397.9,189.2,403.3z"/>
<path id="path9844" class="st2" d="M200.3,409.5c0,1.7,0,2.9,1.6,3.8v0.1h-6v-0.1c1.5-0.6,1.3-2.8,1.3-4.1v-13.4h-2.6
	c-1.3,0-2.6,0.3-3.6,1.2H191l1.1-3.6h0.1c0.4,0.1,0.8,0.1,1.1,0.2h12c0.5,0,1,0,1.4-0.2h0.1l-1,3.6h-0.1c-0.4-1.1-1.6-1.2-2.6-1.2
	h-2.7V409.5"/>
<path id="path9846" class="st2" d="M216.7,401.6c2,0,4.8-0.7,4.8-3.1c0-2.1-1.9-3.2-3.7-3l-2,0.2v5.9L216.7,401.6 M218.3,411.2
	c2.5,0.2,5-0.9,5-3.8c0-2.9-2.8-4.2-5.5-4l-2.1,0.1v7.4L218.3,411.2z M212.6,397.8c0-1.4,0.2-3.5-1.3-4.1v-0.1h7.1
	c4,0,6.3,1.7,6.3,4.4c0,2-1.3,3.2-3,3.9c2.7,0.6,4.9,2.4,4.9,5.3c0,2.3-1.6,4.3-3.6,5.3c-2.1,1-4.5,0.9-6.7,0.9h-5v-0.1
	c1.5-0.6,1.3-2.8,1.3-4.1L212.6,397.8L212.6,397.8z"/>
<path id="path9848" class="st2" d="M240.4,396.2l-3,7.6h5.9L240.4,396.2 M236.7,406l-1.6,4.2c-0.6,1.7-0.8,2.6,0.6,3.1v0.1h-5.5
	v-0.1c1.7-0.9,2.3-2.6,2.9-4.3l5-12.5c0.4-1.1,1-2.3-0.5-2.8v-0.1h4.8l6.3,15.4c0.7,1.7,1.2,3.4,2.9,4.3v0.1h-6.2v-0.1
	c1.5-0.7,1.2-1,0.4-3.1l-1.6-4.2L236.7,406L236.7,406z"/>
<path id="path9850" class="st2" d="M263.6,411.2c2,0.1,3.8-0.6,5.3-1.8h0.1l-1.6,4h-12.4v-0.1c1.5-0.5,1.4-2.8,1.4-4.1v-11.3
	c0-1.4,0.2-3.6-1.4-4.2v-0.1h5.7v0.1c-1.5,0.6-1.3,2.8-1.3,4.2V411L263.6,411.2"/>
<path id="path9852" class="st2" d="M281.3,411.2c2,0.1,3.8-0.6,5.3-1.8h0.1l-1.6,4h-12.4v-0.1c1.5-0.5,1.3-2.8,1.3-4.1v-11.3
	c0-1.4,0.2-3.6-1.3-4.2v-0.1h5.7v0.1c-1.5,0.6-1.3,2.8-1.3,4.2V411L281.3,411.2"/>
<path id="path9854" class="st2" d="M324.6,397.3c-1.7-1.1-3.6-1.7-5.6-1.7c-4.1,0-7,3-7,7.4c0,4.4,3,8.4,7.6,8.4
	c2.3,0,4.5-0.8,6.4-1.9h0.1l-1.5,3.5c-1.4,0.7-3,0.9-4.5,0.9c-7.1,0-11.5-4-11.5-10.4c0-6.2,4.4-10.4,10.6-10.4
	c1.8,0,3.7,0.3,5.5,0.8V397.3"/>
<path id="path9856" class="st2" d="M340.1,411.2c2,0.1,3.8-0.6,5.3-1.8h0.1l-1.6,4h-12.4v-0.1c1.5-0.5,1.4-2.8,1.4-4.1v-11.3
	c0-1.4,0.2-3.6-1.4-4.2v-0.1h5.7v0.1c-1.5,0.6-1.3,2.8-1.3,4.2V411L340.1,411.2"/>
<path id="path9858" class="st2" d="M362.9,411.4c-1.3,1.7-3.8,2.5-5.9,2.5c-2,0-4.1-0.6-5.5-2.1c-1.6-1.7-1.5-3.8-1.5-5.9v-8
	c0-1.4,0.2-3.5-1.3-4.1v-0.1h5.7v0.1c-1.5,0.6-1.3,2.8-1.3,4.1v8c0,4,1.7,5.9,4.8,5.9c1.7,0,3.4-0.7,4.4-2.1
	c0.7-0.9,0.6-1.7,0.6-2.7v-9.1c0-1.4,0.2-3.5-1.3-4.1v-0.1h5.7l0,0.1c-1.5,0.6-1.4,2.8-1.4,4.2v11.3c0,1.3-0.2,3.6,1.4,4.1v0.1h-4.4
	L362.9,411.4"/>
<path id="path9860" class="st2" d="M377.1,401.6c2,0,4.8-0.7,4.8-3.1c0-2.1-1.9-3.2-3.7-3l-2,0.2v5.9L377.1,401.6 M378.7,411.2
	c2.5,0.2,5-0.9,5-3.8c0-2.9-2.8-4.2-5.5-4l-2.1,0.1v7.4L378.7,411.2z M373.1,397.8c0-1.4,0.2-3.5-1.3-4.1v-0.1h7.1
	c4,0,6.3,1.7,6.3,4.4c0,2-1.3,3.2-3,3.9c2.7,0.6,4.9,2.4,4.9,5.3c0,2.3-1.6,4.3-3.6,5.3c-2.1,1-4.5,0.9-6.7,0.9h-5v-0.1
	c1.5-0.6,1.3-2.8,1.3-4.1L373.1,397.8L373.1,397.8z"/>
<path id="path9862" class="st0" d="M218.4,442.4c2.4-0.8,4.6-2.6,5.8-4.8h0.1V453c0,1.6-0.1,2.8,1.4,3.8v0.1h-5.7v-0.1
	c1.7-0.8,1.6-2.1,1.6-3.8v-10.5L218.4,442.4L218.4,442.4"/>
<path id="path9864" class="st0" d="M239.9,455.7c4.4-0.9,8.3-4.9,8.3-9.5c0-2.8-1.6-5.8-4.7-5.8c-2.3,0-4,1.8-4,4.1
	c0,2.5,1.6,4.4,4.1,4.4c1,0,2-0.3,2.9-0.9l-1.9,2.3c-0.7,0.3-1.4,0.4-2.2,0.4c-3.2,0-5.7-2.4-5.7-5.7c0-4,3.2-6.6,7.1-6.6
	c4.3,0,7.1,3.4,7.1,7.5c0,3.1-1.7,6.2-4.1,8.1c-2.5,2-5.3,2.9-8.4,3.3L239.9,455.7"/>
<path id="path9866" class="st0" d="M265.7,447.7c0,2.7,0.9,7.5,4.4,7.5c2.7,0,4.2-3.3,4.2-7.2c0-3.9-1.6-7.3-4.4-7.4
	C266.5,440.6,265.7,445.1,265.7,447.7 M262.7,448c0-5,2.5-9.5,7.3-9.5c5,0,7.2,4.9,7.2,9.3c0,4.4-2.2,9.5-7.3,9.5
	C265.6,457.3,262.7,453,262.7,448z"/>
<path id="path9868" class="st0" d="M288.6,442.4c2.4-0.8,4.6-2.6,5.8-4.8h0.1V453c0,1.6-0.1,2.8,1.4,3.8v0.1h-5.7v-0.1
	c1.7-0.8,1.6-2.1,1.6-3.8v-10.5L288.6,442.4L288.6,442.4"/>
<polygon id="polygon9870" class="st2" points="309.7,71.9 204.6,71.9 142.3,135.1 142.3,239 206.3,304.3 308,304.3 308.8,303.5 
	372,239 372,135.1 "/>
<path id="path9872" class="st1" d="M233.6,151.5c0-12.6,9.8-22.8,22.2-23.5V74.4h-50.1l-60.9,61.7V238l62.5,63.8h48.4V175
	C243.4,174.3,233.6,164,233.6,151.5z"/>
<path id="path9874" d="M308.6,74.4h-50.1v53.5c12.4,0.7,22.2,11,22.2,23.5c0,12.5-9.8,22.8-22.2,23.5v126.8H307l62.5-63.8V136.1
	L308.6,74.4z"/>
<path id="path9876" class="st2" d="M263.7,124l0.6-8.2c0,0,12.2-0.6,23,8.3c0,0,8.7-25.5,20.9-30.8c0,0,0.8,3.3,1.6,3.5
	c0.8,0.2,3.7-3.1,4.6-2.9c0.8,0.2-1,11.4,24.8,21.1l-1.4,6.8c0,0-31.7-2.5-31.7,16.4c0,8.5,12.2,23.2,14.3,25.9
	c2.1,2.7,15.3,13.5,17.2,42.2c0,0,4.8-3.5,4.8-12.6c0-9.1-5.4-27.3-5.4-34s-1-24.4,17-24.4v9.1c0,0-6.1-0.2-6.8,7.9
	c-0.6,6.8,8.3,36.9,4.1,48.2c-3.4,9.4-5.2,13-11.8,18.2c-6.6,5.2-27.7,21.9-7.5,36.8l-18.8,34.2c0,0-11,3.9-11.8,3.9
	c-0.8,0-3.1,0.4-1.5-1.4c1.7-1.9,16.2-15.3,16.2-30c0-14.7-21.3-19.3-21.3-41.4c0-14.7,12.8-23.6,12.8-23.6s-2.3-5.4-4.6-7.2
	c-2.3-1.9-14.9-9.3-16.8-13.9c0,0-12.4,10.1-22.4,10.8c0,0-2.5-4.3-2.7-7.5c0,0,24.8-3.2,24.3-29.2C285.2,128.5,263.7,124,263.7,124
	"/>
<path id="path9878" class="st2" d="M250.6,124l-0.6-8.2c0,0-12.2-0.6-23,8.3c0,0-8.7-25.5-20.9-30.8c0,0-0.8,3.3-1.7,3.5
	c-0.8,0.2-3.7-3.1-4.6-2.9c-0.8,0.2,1,11.4-24.8,21.1l1.4,6.8c0,0,31.7-2.5,31.7,16.4c0,8.5-12.2,23.2-14.3,25.9
	c-2.1,2.7-15.3,13.5-17.2,42.2c0,0-4.8-3.5-4.8-12.6c0-9.1,5.4-27.3,5.4-34s1-24.4-17-24.4v9.1c0,0,6.1-0.2,6.8,7.9
	c0.6,6.8-8.3,36.9-4.1,48.2c3.4,9.4,5.2,13,11.8,18.2c6.6,5.2,27.7,21.9,7.5,36.8l18.8,34.2c0,0,11,3.9,11.8,3.9
	c0.8,0,3.1,0.4,1.5-1.4c-1.7-1.9-16.2-15.3-16.2-30c0-14.7,21.3-19.3,21.3-41.4c0-14.7-12.8-23.6-12.8-23.6s2.3-5.4,4.6-7.2
	c2.3-1.9,14.9-9.3,16.8-13.9c0,0,12.4,10.1,22.4,10.8c0,0,2.5-4.3,2.7-7.5c0,0-24.8-3.2-24.3-29.2C229.1,128.5,250.6,124,250.6,124"
	/>
<path id="path9880" class="st2" d="M213.9,256.2l19,27.6l11.5,1.9c0,0,1.9,0,0.8-1.7c-1.1-1.7-13.9-16.6-15.2-20.3
	c-1.2-3.7-4.1-6.9,1-13.9c5.1-7,14.9-13.7,14.9-27.7s-12-25.4-27.7-25.1c-7,0.1-1.4,4.4-0.7,5.2c1.5,1.9,5.8,7.9,6.8,16.8
	c1.1,9.9-3.9,15.9-3.9,16.7c0,2.4,3.6,2.8,3.6,8.7C224,251.4,213.9,256.2,213.9,256.2"/>
<path id="path9882" class="st2" d="M300.1,256.2l-19,27.6l-11.5,1.9c0,0-1.9,0-0.8-1.7c1.1-1.7,13.9-16.6,15.2-20.3
	c1.2-3.7,4.1-6.9-1-13.9c-5.1-7-14.9-13.7-14.9-27.7s12-25.4,27.7-25.1c7,0.1,1.4,4.4,0.7,5.2c-1.5,1.9-5.8,7.9-6.8,16.8
	c-1.1,9.9,3.9,15.9,3.9,16.7c0,2.4-3.6,2.8-3.6,8.7C290,251.4,300.1,256.2,300.1,256.2"/>
</svg>
