<?xml version="1.0" encoding="utf-8"?>
<!-- Generator: Adobe Illustrator 26.0.2, SVG Export Plug-In . SVG Version: 6.00 Build 0)  -->
<svg version="1.1"
	 id="svg2" xmlns:cc="http://creativecommons.org/ns#" xmlns:dc="http://purl.org/dc/elements/1.1/" xmlns:inkscape="http://www.inkscape.org/namespaces/inkscape" xmlns:rdf="http://www.w3.org/1999/02/22-rdf-syntax-ns#" xmlns:sodipodi="http://sodipodi.sourceforge.net/DTD/sodipodi-0.dtd" xmlns:svg="http://www.w3.org/2000/svg"
	 xmlns="http://www.w3.org/2000/svg" xmlns:xlink="http://www.w3.org/1999/xlink" x="0px" y="0px" width="482px" height="600px"
	 viewBox="0 0 482 600" style="enable-background:new 0 0 482 600;" xml:space="preserve">
<style type="text/css">
	.st0{fill-rule:evenodd;clip-rule:evenodd;fill:#C0132A;}
	.st1{fill-rule:evenodd;clip-rule:evenodd;fill:#B8142B;}
	.st2{fill-rule:evenodd;clip-rule:evenodd;fill:#F8B800;}
	.st3{fill-rule:evenodd;clip-rule:evenodd;fill:#F7B200;}
</style>
<sodipodi:namedview  bordercolor="#666666" borderopacity="1" gridtolerance="10" guidetolerance="10" id="namedview69" inkscape:current-layer="svg2" inkscape:cx="-25.631722" inkscape:cy="420.94489" inkscape:pageopacity="0" inkscape:pageshadow="2" inkscape:window-height="691" inkscape:window-maximized="1" inkscape:window-width="1280" inkscape:window-x="0" inkscape:window-y="1" inkscape:zoom="0.61867883" objecttolerance="10" pagecolor="#ffffff" showgrid="false">
	</sodipodi:namedview>
<g id="Layer1000" transform="matrix(1.0583329,0,0,1.0583329,-74.248207,-145.49954)">
	<path id="path5" inkscape:connector-curvature="0" class="st0" d="M89.2,186c43-32.1,139.9-48.4,209.4-48.5s165.5,16.6,207.5,48.8
		c21,62.2,22,130.4,15.5,194.5c-2,19.3-4.4,38.6-7.8,57.8c-7.8,44.1-20.8,88.9-43.3,127.8c-35.4,61-91.4,111.6-172.8,138.1
		c-63.8-20.2-121.5-61.6-159.8-117.3c-18.7-27.2-33.1-57.8-42.9-91c-7.5-25.3-12.5-51.4-16.6-77.5c-6.6-42.6-10.2-88.2-7.1-136.3
		C73.4,250.1,78.4,217.5,89.2,186L89.2,186z"/>
	<path id="path7" inkscape:connector-curvature="0" class="st1" d="M297.7,137.5c0.3,0,0.6,0,0.9,0c69.5-0.1,165.5,16.6,207.5,48.8
		c21,62.2,22,130.4,15.5,194.5c-2,19.3-4.4,38.6-7.8,57.8c-7.8,44.1-20.8,88.9-43.3,127.8c-35.4,61-91.4,111.5-172.8,138
		L297.7,137.5L297.7,137.5z"/>
	<path id="path9" inkscape:connector-curvature="0" class="st2" d="M102.6,205.2c40.3-30,131.2-45.6,196.3-45.7
		c65.1-0.1,156.3,17.5,194.5,46c19.4,60.8,20.7,122.1,14.5,182.2c-3.1,30.9-7.6,61.8-15.6,91.8c-8.1,30.4-19.2,58.4-32.9,82
		c-33.2,57.1-85.2,104.5-161.5,129.3c-61.7-18.9-113.9-57.7-149.8-109.9c-17.5-25.5-31-54.2-40.2-85.2c-7-23.7-11.7-48.2-15.5-72.6
		c-6.2-39.9-9.6-82.6-6.7-127.6C87.8,265.2,92.5,234.7,102.6,205.2L102.6,205.2z M225.3,548.2l19.3-2.7v-9.3h6.1v9.2l18.7,2.7v57.2
		l-21.8-12.3l-17.1,9.6l1.6,2.8l15.5-8.7l21.8,12.3v64.2c1.8,0.8,3.6,1.5,5.4,2.3v-83.8l4.6-22.9l3.4,22.4l15.4-32.1l15.1,32.1
		l3.5-22.4l4.6,20.8V675c1.9-0.8,3.8-1.6,5.7-2.4v-74l23.1-13.7l23.4,13.7v48.1c34.2-23.6,59.9-53.2,79.3-86.7
		c19.7-34,33.3-77.8,40.4-124.5c11-72.3,14.8-146.1-8.8-216.1c-36.6-27.3-123.7-44.1-186-44c-62.3,0.1-149.1,15.3-187.7,44
		c-9.7,28.2-14.1,57.2-16,86.1c-2.8,43.1,0.4,83.9,6.4,122.1c3.7,23.4,8.1,46.8,14.8,69.5c8.8,29.8,21.6,57.2,38.4,81.6
		c19.2,27.9,43.2,51.7,70.9,70.5V548.2L225.3,548.2z"/>
	<path id="path11" inkscape:connector-curvature="0" class="st2" d="M275.5,328.8L232.6,342l-4.6,10.1l-55.8,21.3l3.5,36.9l14.6,5.1
		l-9.1,11.1l10.1,11l31.5-6.6l46,34.3l28.8,56.1l60.9,15l4.2-26.3l27.8-3.7l29.4-34.3l-26.2-24.7l-1.5-9.9l4-7.6l-27.8-17.9
		l-8.5-62.9l-22.6-21.5l-10.1-38.4L298,271.7L275.5,328.8L275.5,328.8z"/>
	<g id="Layer1001">
		<path id="path14" inkscape:connector-curvature="0" class="st3" d="M373.4,549.3c0,2.4-0.1,4-0.3,4.8c-0.3,0.8-1,1.2-2.1,1.5
			l-1,0.2c-0.1,0.2-0.1,0.6-0.1,1.1c0,0.6,0.1,0.9,0.2,1.1c1.3-0.2,2.8-0.5,5.1-0.5c1.9,0,3.4,0.3,5.1,0.5c0.2-0.2,0.4-0.5,0.4-1.1
			c0-0.5-0.1-0.9-0.3-1.1l-1.3-0.2c-1-0.2-1.6-0.7-1.8-1.5c-0.2-0.8-0.3-2.4-0.3-4.8v-15.9c0-2.4,0.1-4.3,0.3-5.1
			c0.2-0.8,1.1-1.1,2.1-1.4l0.9-0.2c0.2-0.3,0.3-0.7,0.2-1.2c0-0.5-0.2-0.8-0.4-1c-1,0.2-2.7,0.7-5,0.7c-2.1,0-3.8-0.5-5-0.7
			c-0.2,0.2-0.2,0.5-0.3,1c0,0.5,0,0.9,0.1,1.2l0.7,0.2c1.1,0.3,2.1,0.6,2.3,1.4c0.2,0.8,0.3,2.7,0.3,5.2L373.4,549.3L373.4,549.3z"
			/>
		<path id="path16" inkscape:connector-curvature="0" class="st3" d="M392.8,523.9c-2.2,0-4.6,1.5-6.1,4.3
			c-1.5,2.8-2.5,6.3-2.5,10.6c-0.1,3.6,0.7,7.4,1.6,9.7c1,2.7,3,4.4,4.7,4.4c1.8,0,3.5-1.7,4.2-3.2c0.2-0.3,0.1-1.9-0.2-2.3
			c-0.4,0.4-1.3,1.1-2.4,1.1c-1.1,0-2.3-0.8-2.9-3c-0.7-2.1-1-6-1-9c0-2.9,0.7-5.9,1.3-7.5c0.6-1.5,1.7-2.5,2.8-2.5
			c1.5,0,2.1,1,2.7,2.1c1.1,2.2,1.4,4.6,1.7,7c0.6,5.1,0.6,9.8-0.1,15c-0.6,4.8-1.7,9.8-3.7,14c-1.1,2.2-2.2,4-4.3,5.9
			c-0.6,0.5-1.1,0.9-1.7,1.2c-0.4,0.9,0,2,0.4,2.4c1.8-0.8,3.8-2.6,5.7-5.3c3.4-4.7,5.7-10.6,7-16.2c0.9-4,1.2-6.7,1.2-10.5
			c0.1-5-0.6-9.7-2-12.8C397.6,525.6,395.6,523.9,392.8,523.9L392.8,523.9z"/>
		<path id="path18" inkscape:connector-curvature="0" class="st3" d="M430.2,523.9c-2.2,0-4.6,1.5-6.1,4.3
			c-1.5,2.8-2.5,6.3-2.5,10.6c-0.1,3.6,0.7,7.4,1.6,9.7c1,2.7,3,4.4,4.7,4.4c1.8,0,3.5-1.7,4.2-3.2c0.2-0.3,0.1-1.9-0.2-2.3
			c-0.4,0.4-1.3,1.1-2.4,1.1c-1.1,0-2.3-0.8-2.9-3c-0.7-2.1-1-6-1-9c0-2.9,0.7-5.9,1.3-7.5c0.6-1.5,1.7-2.5,2.8-2.5
			c1.5,0,2.1,1,2.7,2.1c1.1,2.2,1.4,4.6,1.7,7c0.6,5.1,0.6,9.8-0.1,15c-0.6,4.8-1.7,9.8-3.7,14c-1.1,2.2-2.2,4-4.3,5.9
			c-0.6,0.5-1.1,0.9-1.7,1.2c-0.4,0.9,0,2,0.4,2.4c1.8-0.8,3.8-2.6,5.7-5.3c3.4-4.7,5.7-10.6,7-16.2c0.9-4,1.2-6.7,1.2-10.5
			c0.1-5-0.6-9.7-2-12.8C435,525.6,432.9,523.9,430.2,523.9L430.2,523.9z"/>
		<path id="path20" inkscape:connector-curvature="0" class="st3" d="M408.7,551.9l2.4-3.9c3.4-5.6,5.6-10.2,5.8-14.1
			c0.3-6.7-2.7-10.1-5.6-10.1c-2.8,0-4.5,3.4-5.5,5.6c-0.4,0.9-0.9,2-1.3,3.3c0,1,0.4,1.5,1.3,1c1.8-3.5,2.9-4.4,4.4-4.3
			c3.1,0.2,3.2,4.7,3.1,6c-0.2,2.5-1.2,5.7-2,7.5c-2.1,4.7-5.1,9.9-7.5,13.9c-0.2,0.6-0.1,0.9,0.2,1.3c2.4-0.3,4.5-0.5,6.8-0.5
			c1.6,0,4.8,0,6.5,0.5l2-9.1c-0.1-0.4-0.2-0.7-0.4-0.8c-0.2-0.1-0.5,0-0.7,0.2c-0.3,1.2-0.8,1.9-1.3,2.5c-0.6,0.7-1.2,1.1-2.7,1.1
			C412.3,551.9,411,551.9,408.7,551.9L408.7,551.9z"/>
	</g>
	<path id="path22" inkscape:connector-curvature="0" class="st3" d="M297.7,521.3V272.6l0.3-0.9l29.3,17.2l10.1,38.4l22.6,21.5
		l8.5,62.9l27.8,17.9l-4,7.6l1.5,9.9l26.2,24.7l-29.4,34.3l-27.8,3.7l-4.2,26.3L297.7,521.3L297.7,521.3z"/>
	<path id="path24" inkscape:connector-curvature="0" class="st3" d="M297.7,159.5c0.4,0,0.9,0,1.3,0c65.1-0.1,156.3,17.5,194.5,46
		c19.4,60.8,20.7,122.1,14.5,182.2c-3.1,30.9-7.6,61.8-15.6,91.8c-8.1,30.4-19.2,58.4-32.9,82c-33.2,57.1-85.2,104.5-161.5,129.3
		l-0.4-0.1V560.2l0.5-1l15.1,32.1l3.5-22.4l4.6,20.8V675c1.9-0.8,3.8-1.6,5.7-2.4v-74l23.1-13.7l23.4,13.7v48.1
		c34.2-23.6,59.9-53.2,79.3-86.7c19.7-34,33.3-77.8,40.4-124.5c11-72.3,14.8-146.1-8.8-216.1c-36.6-27.3-123.7-44.1-186-44
		c-0.3,0-0.6,0-0.8,0L297.7,159.5L297.7,159.5z"/>
	<g id="Layer1002">
		<path id="path27" inkscape:connector-curvature="0" class="st2" d="M280.2,225.5c-0.3-4.8-1.3-7.8-3.6-10.1
			c-0.9-0.9-2-1.5-3.3-1.5c-1.8,0-3.1,1-4,2.3c-1,1.4-1.8,3.6-2.3,5.3c-0.9,3.4-0.8,6.5-0.7,8.7c0.1,2.6,0.8,6.7,2.5,9.9
			c1.4,2.5,3.3,4.5,5.8,4.3c3.9-0.2,5.5-4.6,6.4-7.7c0-0.4-0.7-1.3-0.9-1c-1.2,2.3-2.3,4.2-4.3,4.4c-5.5,0.5-5.9-10.2-6-14
			L280.2,225.5L280.2,225.5z M269.9,224c0-1.6,0.4-4.1,1.2-5.7c0.6-1.1,1.4-1.8,2.2-1.8c0.9,0,1.6,0.6,2.2,1.6
			c0.6,1,0.9,2.4,1.1,3.8c0.1,1,0.2,1.1-0.8,1.4c-1,0.3-2.2,0.5-3.3,0.6C271.8,223.9,271,223.9,269.9,224L269.9,224z"/>
		<path id="path29" inkscape:connector-curvature="0" class="st2" d="M286.4,257.3l8.6-36.9c0.3-1.4,0.6-2.4,1.3-3.1
			c0.5-0.5,1.2-0.7,1.8-0.9c0.1-0.7,0.1-1.4-0.1-2.1c-1,0-2.4,0.4-3.4,0.5c-1.1,0-2.8-0.5-3.6-0.4c-0.1,0.8-0.1,1.4,0,2
			c0.7,0.2,1.5,0.7,1.8,1.4c0.4,1.1,0.1,2.8-0.2,4.3l-2.9,13.3l-3.4-16.1c-0.4-2,1.4-2.6,2-2.8c0.1-0.5,0.1-1.2-0.1-1.9
			c-1.4-0.1-2.9,0.6-4.2,0.6c-1.2,0-2.6-0.6-3.9-0.5c-0.2,0.9-0.1,1.6,0.1,2.1c0.6,0.1,1.3,0.4,1.7,0.9c0.5,0.5,0.8,1.3,1,2.2
			l5.1,22.5l-2.6,11.7c-0.2,1-0.6,1.3-0.9,0.9c-0.3-0.3-0.5-0.5-0.9-0.6c-1.5-0.1-1.9,1.8-1.9,3.2c0,2.6,1.1,3.3,2,3.4
			C284.8,261.1,285.8,259.6,286.4,257.3L286.4,257.3z"/>
		<path id="path31" inkscape:connector-curvature="0" class="st3" d="M320.1,214.3c-6.5-0.3-9,8.7-9.4,15.3
			c-0.2,3.9,0.5,10.6,3.9,13.6c1.6,1.4,3.8,2,5.9,1.3c5.1-1.8,6.7-10.2,7-14.8C327.6,224.1,326.3,214.6,320.1,214.3L320.1,214.3z
			 M314.4,228.7c0.1-2,1.2-12,5.1-12c4.7,0,4.1,11.5,4,14c-0.1,2.2-1,11.9-5,11.7C314,242.2,314.3,231.2,314.4,228.7L314.4,228.7z"
			/>
		<path id="path33" inkscape:connector-curvature="0" class="st3" d="M300.1,237.2c-0.1,1.3-0.3,2.2-0.8,2.9c-0.4,0.6-1.1,0.9-2,1.2
			c-0.1,0.6-0.1,1.2,0,1.8c1.8,0.2,3.1-0.6,4.4-0.6c1.5,0,3.4,0.7,4.7,0.6c0.2-0.4,0.3-1.2,0.1-1.8c-1.1-0.3-1.8-0.7-2.2-1.3
			c-0.6-0.7-0.7-1.6-0.7-2.5c0-1.5,0-3.1,0-4.6l0.2-10.9c0-0.8,0.3-1.7,0.9-2.4c0.4-0.4,0.7-0.8,1.3-1c0.3-0.1,0.7,0.1,1,0.5
			c0.3,0.5,0.6,1.2,1.5,1.2c1.4,0,1.8-2.1,1.8-3.3c0-1.2-0.6-3.2-2.2-3.2c-1.6,0-2.6,1.8-4.2,4.2l0.1-4.1c0-0.4,0-0.7-0.5-0.7
			c-1.1,1.9-2.6,3-5.2,4c-0.2,0.6-0.2,1.5,0,1.9l0.6,0c1.5,0.1,1.6,1.9,1.6,3.7l-0.2,10.2C300.2,234.4,300.3,235.8,300.1,237.2
			L300.1,237.2z"/>
		<path id="path35" inkscape:connector-curvature="0" class="st2" d="M262.4,221.4c0.4-2.9,0.7-3,2.5-3.6c0.2-0.5,0.2-1.7-0.2-2.1
			c-1,0-2.1,0.7-3.2,0.8s-1.3-0.3-3.2-0.3c-0.5,0.4-0.3,1.6,0,2.1c1.8,0.1,2.4,1.2,2.1,3.4l-2,14.5l-4.5-15.1
			c-0.6-2.1,0.5-2.2,1.7-2.6c0.3-0.5,0.2-1.7-0.2-2.1c-1.2,0-2.7,0.7-4,0.8c-1.3,0.1-2.5-0.4-3.9-0.2c-0.2,0.8-0.2,1.3,0.2,1.9
			c1.6,0.2,2.8,2.4,3.4,4.4l6.8,21.7c0.2,0.6,1.1,0.5,1.2-0.1L262.4,221.4L262.4,221.4z"/>
		<path id="path37" inkscape:connector-curvature="0" class="st3" d="M335.1,222.6c0.5-1,2.2-3.1,3.6-3c1.3,0.1,2,1.3,2.3,2.6
			c0.2,1.3,0.1,4.2,0,5.4l-0.8,9.3c-0.1,1.3-0.2,2.3-0.3,3.1c-0.1,0.8-0.3,2-0.9,2.6c-0.4,0.3-0.9,0.6-1.4,0.7
			c-0.3,0.4-0.4,1.6-0.1,2c1.1,0.2,2.3-0.4,3.9-0.3c1.8,0.2,2.5,0.9,3.9,0.9c0.4-0.4,0.4-1.6,0.2-2c-1-0.3-1.8-0.6-2-1.8
			c-0.1-0.5-0.1-0.9,0-1.7c0-0.8,0.1-1.8,0.2-3.1l0.9-11c0.2-1.8,0.1-3.5,0-5c-0.2-1.5-0.9-3.6-2.5-4.7c-1-0.7-2-0.9-3.1-0.5
			c-1.1,0.4-2.3,1.5-3.5,3.4l0.2-2.1c0.1-0.6,0.2-1.2,0.3-1.9c0-0.2-0.1-0.3-0.1-0.4c-0.1-0.1-0.4-0.2-0.5-0.2
			c-1.1,1.2-1.6,1.7-2.5,2.4c-0.8,0.6-1.7,1-2.9,1.3c-0.2,0.7-0.2,1.4-0.1,2.1c1.9,0.6,1.8,2,1.6,4.5l-1,10.9
			c-0.1,1.3-0.2,2.3-0.3,3.1c-0.1,0.8-0.2,1.6-0.6,2.2c-0.3,0.3-0.7,0.6-1.2,0.7l-1,0.1c-0.1,0.2-0.2,0.4-0.2,0.7
			c0,0.3-0.1,0.5,0,0.8c0,0.3,0.1,0.4,0.2,0.6c1.7,0.2,2.3-0.3,3.9-0.1c1.8,0.2,2.1,0.8,4,0.9c0.4-0.4,0.4-1.4,0.2-1.9
			c-1.7-0.6-1.7-1.7-1.6-3.2c0-0.8,0.1-2.2,0.2-3.5L335.1,222.6L335.1,222.6z"/>
		<path id="path39" inkscape:connector-curvature="0" class="st2" d="M241.4,228.4l2.7,8.8c0.4,1.2,0.7,2.3,1,3.5
			c0.3,1.1,0.3,1.8,0,2.4c-0.3,0.7-1.1,1.2-2.4,1.6c-0.2,0.5,0,1.8,0.4,2.1c2-0.3,3.6-1.2,5.6-1.4c1.5-0.2,3.6,0,5.4-0.2
			c0.1-0.1,0.1-0.3,0.1-0.5c0-0.4-0.1-1.1-0.4-1.4c-1.1-0.2-2.1-0.6-2.8-1.2c-1-0.9-1.9-2.6-2.3-3.9l-12.2-37
			c-0.3-0.8-1.3-0.7-1.4,0.4l-3.1,34c-0.2,1.7-0.4,4.5-0.7,6.5c-0.4,2.2-0.9,3.5-3,4.3c-0.2,0.5-0.2,1.4,0.3,1.9
			c2.2-0.2,2.6-0.8,3.9-0.9c1.4-0.1,2.9,0.3,4.9,0c0.4-0.5,0.2-1.7-0.1-2.1c-2.1,0-3-0.6-3.3-2.6c-0.1-1-0.1-2.1,0-3.2l0.7-10.1
			L241.4,228.4L241.4,228.4z M234.6,227l1.1-16.3l4.9,15.6L234.6,227z"/>
	</g>
	<g id="Layer1003">
		<path id="path42" inkscape:connector-curvature="0" class="st2" d="M201.2,235.6c-1.1-4.7-2.7-7.4-5.3-9.3
			c-1.1-0.7-2.4-1.1-3.7-0.8c-1.8,0.4-2.9,1.6-3.6,3c-0.7,1.5-1.2,3.8-1.3,5.6c-0.3,3.5,0.3,6.6,0.8,8.7c0.6,2.5,2,6.4,4.2,9.2
			c1.8,2.3,4.2,3.7,6.7,3.2c3.4-0.8,4.5-5.4,4.7-8.7c-0.1-0.4-0.9-1.2-1-0.8c-0.7,2.5-1.8,4.3-3.7,4.9c-2,0.6-3.7-1-5-3.3
			c-1.7-3-2.5-6.9-3-9.3L201.2,235.6L201.2,235.6z M190.7,235.8c-0.3-1.6-0.3-4,0.3-5.7c0.4-1.1,0.8-1.9,1.7-2.1
			c0.9-0.2,1.7,0.3,2.5,1.2c0.9,1.1,1.6,2.7,1.8,3.5c0.3,1.4-1.6,2.1-3.3,2.5L190.7,235.8L190.7,235.8z"/>
		<path id="path44" inkscape:connector-curvature="0" class="st2" d="M154.7,235.6c-6.2,2-5.3,11.3-3.4,17.6
			c1.2,3.7,4.2,9.7,8.4,11.4c2,0.8,4.3,0.5,5.9-0.8c4.1-3.5,2.7-12,1.3-16.3C165.2,242.1,160.6,233.7,154.7,235.6z M154.5,251.1
			c-0.6-1.9-3.1-11.6,0.6-13c4.4-1.7,7.9,9.3,8.7,11.7c0.7,2.1,3.3,11.5-0.5,12.7C158.8,263.8,155.2,253.5,154.5,251.1L154.5,251.1z
			"/>
		<path id="path46" inkscape:connector-curvature="0" class="st2" d="M133.1,264.2c0.6,1.7,1,2.7,1.3,3.7c0.8,2.8,0.1,3.5-1.9,4.8
			c-0.1,0.5,0.2,1.5,0.7,1.8c1.7-0.4,3.4-1.7,5.2-2.4c1.6-0.6,3.3-0.6,5.1-1.2c0.2-0.5-0.2-1.6-0.6-1.9c-1.8,0.2-3.6,0.5-4.9-2.4
			c-0.4-1-0.8-2-1.4-3.7l-4-11.1c0.7-0.3,1.5-0.5,2.2-0.4c0.9,0.1,1.7,1,2.2,1.7l12.2,15.1c0.2,0.3,0.4,0.4,0.7,0.2
			c1.1-0.4,1.5-1.3,2.7-1.7c1.3-0.5,2.7-0.1,3.6-0.8c0-0.4-0.2-1.4-0.6-1.7c-1.5,0.3-3.8-0.1-4.4-0.7c-0.3-0.3-1.1-1-1.7-1.8
			l-11-13.5c0.9-1.1,2.4-3.7,2.4-7c-0.1-3.6-1.2-6.8-3.2-9.8c-2.2-3.2-5.1-5.1-8.8-4.2c-3,0.7-3.2,2-5.9,2.8
			c-1.6,0.5-4.2,0.9-5.7,1.4c-0.1,0.2-0.1,0.3,0,0.6c0,0.2,0.1,0.4,0.2,0.7c0.1,0.2,0.2,0.4,0.4,0.5c0.4,0,1,0,1.7,0
			c2.4,0.1,2.9,1.6,3.6,3.5c0.4,0.9,0.8,2.2,1.4,3.7L133.1,264.2L133.1,264.2z M126.5,234.8c-0.1-0.3-0.2-0.6-0.3-0.9
			c-0.5-1.4-0.5-2.7,1.1-3.6c1.5-0.8,3.1-0.8,4.4,0.1c1.5,1,2.8,3.7,3.8,6c0.7,1.7,1.4,3.4,1.8,5.1c0.3,1.5,0.3,3-0.1,4.5
			c-0.5,1.9-1.7,2.8-3.5,3.4c-0.2,0.1-1.2,0.4-1.8,0.4L126.5,234.8L126.5,234.8z"/>
		<path id="path48" inkscape:connector-curvature="0" class="st2" d="M178.5,220.5c-0.2-0.9-0.5-2-0.8-3.1c-0.6-2.3-1.2-4.4-1.6-6.9
			c0-0.2-0.9-0.7-1,0.1c-0.3,2.5-2.3,4-3.4,5c-0.3,0.2,0,1.7,0.3,1.7c1.7,0.1,2.1,0.5,2.2,0.9c0.1,0.3,0.4,0.9,0.5,1.6
			c0.2,0.6,0.4,1.5,0.7,2.6l2.3,8.8c-1.1-0.9-2.6-1.2-3.8-1c-1.9,0.4-3.3,1.8-4.1,3.8c-0.8,1.8-1.1,4.1-1.1,6.5c0,1.9,0.4,4.4,1,6.7
			c0.6,2.5,2.7,7.7,5.6,10.6c1.6,1.6,3.7,2.5,5.6,2c1.8-0.5,3.1-2.8,3.5-4.5c0.3,1.2,0.4,2.1,0.6,3.2c0.1,0.3,0.6,0.3,0.9-0.1
			c0.7-1.1,2.9-2.8,4-3.4c0.3-0.5-0.1-1.6-0.5-1.9c-1.7,0.3-2.1-0.2-2.7-1.9c-0.4-1.1-0.8-2.9-1.4-4.8L178.5,220.5L178.5,220.5z
			 M183.3,251.5c0.4,1.6-0.5,5-2.3,5.5c-3.9,1.2-6.9-8.8-7.5-11.3c-0.8-3.1-2-8.4-0.8-11.4c0.4-1,1-1.8,2-2c1.7-0.4,2.6,0.5,3.4,1.6
			c0.9,1.2,1.4,2.9,1.8,4.3L183.3,251.5L183.3,251.5z"/>
		<path id="path50" inkscape:connector-curvature="0" class="st2" d="M219.8,249.9l-0.1-8.3c-0.2-0.5-0.8-0.8-1.1-0.2
			c-0.1,1.2-0.3,2.8-0.8,4c-0.3,0.7-0.8,1.2-1.3,1.6c-0.5,0.3-1.1,0.5-1.8,0.6l-3.7,0.7l4-21.9c0.2-1.4,0.4-2.7,0.7-3.8
			c0.2-0.6-0.1-0.7-0.4-0.8c-0.3,0.1-0.6,0.2-1,0.3c-0.4,0.1-0.8,0.2-1.3,0.3l-6.5,1.2c-0.6,0.1-1.5,0.2-1.9,0.1
			c-0.3-0.1-0.7,0-0.7,0.3l0,7.9c0.2,0.3,0.9,0.3,1.1,0c0-0.5,0.1-0.7,0.1-1.3c0.2-2.3,0.7-4.7,3.6-5.2l2.8-0.5l-4.9,26.2
			c0,0.2,0,0.4,0.1,0.6c0.1,0.2,0.2,0.3,0.3,0.3c2.2-0.7,4.2-1.3,6.4-1.7C215.7,250.2,217.7,250,219.8,249.9L219.8,249.9z"/>
	</g>
	<g id="Layer1004">
		<path id="path53" inkscape:connector-curvature="0" class="st3" d="M384,222c-6.4-1.2-10.1,7.4-11.3,13.9c-0.8,3.8-0.9,10.6,2,14
			c1.4,1.6,3.5,2.5,5.6,2.1c5.3-1.1,8.1-9.2,8.9-13.7C390.2,232.7,390.1,223.2,384,222z M376.5,235.5c0.4-2,2.8-11.7,6.7-11.2
			c4.7,0.6,2.5,12,2.1,14.4c-0.4,2.2-2.6,11.7-6.5,10.9C374.2,248.8,376,238,376.5,235.5L376.5,235.5z"/>
		<path id="path55" inkscape:connector-curvature="0" class="st3" d="M402.3,225.9c-6.4-1.5-10.4,6.9-12,13.3
			c-0.9,3.8-1.4,10.5,1.4,14.1c1.3,1.7,3.4,2.7,5.5,2.3c5.3-0.8,8.5-8.9,9.5-13.3C408,236.9,408.4,227.3,402.3,225.9L402.3,225.9z
			 M394.2,239.1c0.5-2,3.3-11.6,7.2-10.9c4.6,0.9,2,12.1,1.4,14.5c-0.5,2.2-3.1,11.6-7,10.6C391.3,252.2,393.6,241.5,394.2,239.1
			L394.2,239.1z"/>
		<path id="path57" inkscape:connector-curvature="0" class="st3" d="M359.4,201.6c-0.4,0.5-0.5,1.5-0.4,1.9c1.8,0.8,3,1.4,3.1,3.4
			c0,0.6,0,1-0.1,1.9c-0.1,0.9-0.3,2.1-0.5,3.5l-3.8,24.9c-0.3,1.8-0.5,3.2-0.7,4.2c-0.3,1.5-0.8,2.2-1.5,2.6
			c-0.5,0.3-1,0.5-1.7,0.6l-0.9,0.1c-0.3,0.4-0.6,1.5-0.2,1.9c1.6,0.2,3.6,0,5.2,0.3c1.9,0.3,3.5,1.1,5.5,1.4
			c0.5-0.3,0.5-1.4,0.4-1.9c-0.9-0.4-1.8-0.9-2.3-1.4c-1.1-1-0.7-2.3-0.6-3.6c0.1-0.9,0.3-2.1,0.5-3.5l1.9-12.4l2.7,0.4
			c0.8,0.1,0.9,0.2,1.4,0.3c0.8,0.2,1.2,0.7,1.5,1.5c0.6,1.7,0.3,4.7,0.2,6c0.1,0.2,0.2,0.3,0.4,0.4c0.1,0.1,0.3,0.1,0.5,0
			c0.2,0,0.3-0.1,0.4-0.3c0.5-2.8,0.5-5.5,0.9-8.1c0.4-2.7,1.1-5.3,1.5-8.2c0-0.2-0.1-0.3-0.3-0.4c-0.1-0.1-0.3-0.1-0.5-0.1
			c-0.2,0-0.3,0.1-0.4,0.3c-0.3,1-0.6,2.8-1.1,4.2c-0.5,1.2-1.1,2.1-2.2,2.2c-0.7,0.1-1.4-0.1-2.3-0.2l-2.4-0.4l2-13.3
			c0.1-0.6,0.3-2.1,0.8-3.1c0.3-0.7,0.8-1.1,1.5-1l1.8,0.3c2.4,0.3,3.7,0.6,4.9,2.8c0.8,1.4,1,2.8,1,5.7c0.3,0.5,1.2,0.5,1.4-0.1
			l0.1-10c0-0.5,0-0.4-0.5-0.4c-3.8,0-7.8-0.5-11.6-1.3C363.1,202.6,361.1,202.1,359.4,201.6L359.4,201.6z"/>
		<path id="path59" inkscape:connector-curvature="0" class="st3" d="M421.5,236.1l1-3.4l-5.3-1.5l1.8-6.2c-0.1-0.4-0.3-0.6-0.8-0.4
			c-1.3,2-3,4.4-7.1,7.3c-0.5,0.3-0.4,0.9-0.2,1.3l2,0.6l-4.3,15c-0.6,2-1.4,6.2-0.2,8.7c0.4,0.8,0.9,1.5,1.8,1.8
			c1,0.3,1.9,0.2,2.8-0.3c1-0.5,1.8-1.3,2.4-2.2c0.5-0.7,0.2-1.6-0.2-1.3c-1,0.8-1.7,1.2-3,0.8c-1.7-0.6-0.8-4.6-0.6-5.9
			c0.2-1,0.5-2,0.8-3.1l3.6-12.6L421.5,236.1L421.5,236.1z"/>
		<path id="path61" inkscape:connector-curvature="0" class="st3" d="M431.4,225.8c0.3-1,0.7-2.1,1-3.3c0.4-1.2,0.8-2.4,1.1-3.5
			c0.4-1.2,0.8-2.6,1.2-3.5c0.1-0.3-0.4-0.7-0.7-0.4c-1.6,1.5-3.3,2.2-6,2.6c-0.3,0-0.7,1.3-0.5,1.4c0.5,0.3,1.5,1.3,1.4,2.3
			c0,0.4-0.2,1-0.4,1.7c-0.2,0.7-0.5,1.6-0.8,2.8l-8.9,28.6c-0.2,0.6-0.4,1.3-0.7,2.1c-0.2,0.7-0.5,1.4-0.7,2
			c-0.2,0.6-0.4,1.2-0.5,1.6c-0.1,0.4-0.2,0.7-0.3,0.8c0,0.1,0,0.2,0,0.4c0,0.1,0.2,0.2,0.3,0.3c0.1,0,0.1,0,0.1,0c0,0,0.1,0,0.1,0
			c0.2-0.2,1.2-1.5,1.4-1.7c0.8-0.6,1.6-0.2,2,0.3c0.6,0.6,1,1.4,1.7,2.1c0.5,0.5,1.1,0.9,1.8,1.2c2,0.8,3.8-0.3,5.8-1.8
			c3-2.3,5.4-6.9,6.5-10.4c1-3.2,1.6-6.5,1.2-9.8c-0.3-2.9-1.7-6.1-3.9-7c-2.4-1-4.7,0.2-5.5,1.4L431.4,225.8L431.4,225.8z
			 M426.3,242.1c0.2-0.8,0.8-2.7,1-3.2c0.5-0.9,2.8-3.1,4.6-2.4c2.4,0.9,2.5,4.6,1.9,8.5c-0.4,2.7-1.5,5.7-1.9,6.9
			c-0.4,1.2-1.3,3.9-2.7,6c-1.3,2.1-3,3.7-4.7,3.1c-2.2-0.8-2.7-5-2.2-6.5L426.3,242.1L426.3,242.1z"/>
		<path id="path63" inkscape:connector-curvature="0" class="st3" d="M451.6,250c0.8-2,1.1-3.7,1.2-5.1c0.2-2.2-0.3-4.3-2.5-5
			c-1.6-0.5-3.8,0.4-5.3,1.2c-0.6,0.4-1.1,0.7-1.6,1.1c-0.6,0.6-1.1,1.1-1.5,1.6c-0.4,0.5-0.8,1-0.9,1.5c-0.4,1.8,0.1,2.8,0.5,2.7
			c0.3,0,1.1-0.1,1.4-0.2c0.5-0.1,1.3-1.4,1.4-1.5c0.3-0.3,0.5-0.9,0.7-1.5c0.1-0.3,0.2-0.6,0.4-0.9c0.4-0.6,0.9-1.1,1.2-1.3
			c0.6-0.5,1.2-0.6,1.8-0.5c1.5,0.4,1.1,2.9,0.8,4.1c-0.1,0.5-0.3,1.2-0.6,1.8l-1.7,4.7c-2,0.2-4.9,1-6.1,1.6
			c-2.6,1.2-4.2,2.6-5.2,5.4c-0.4,1.2-0.7,2.3-0.8,3.4c-0.1,1.1,0,2,0.3,2.9c0.3,0.8,0.9,1.3,1.7,1.6c2,0.6,4.1-0.5,5.3-1.8
			c0,1.4,0.3,2.5,0.6,3c0.4,0.7,1.1,1.1,1.9,1.1c1.5,0,3-1.5,3.7-2.3c0.1-0.2,0.3-1.2,0.1-1.7c-0.8,0.5-1.1,0.8-1.6,0.9
			c-0.5,0.1-0.8-0.3-0.8-1.3c0.1-1.1,0.7-2.8,1.5-4.8L451.6,250L451.6,250z M443,263c-0.2,0.6-2.4,2.3-3.7,1.9
			c-1.6-0.6-0.5-3.9,0-5.2c0.4-1,0.7-1.7,1.1-2.2c1.6-2.1,4-2.5,5.7-3L443,263L443,263z"/>
		<path id="path65" inkscape:connector-curvature="0" class="st3" d="M461.3,267.1c-0.5,1.1-0.8,2-1.2,2.7c-0.9,2.1-1.4,2.5-3.4,2.1
			c-0.4,0.3-0.8,1.3-0.7,1.8c1.1,0.5,2.7,0.5,4,1.1c1.3,0.5,2.4,1.6,3.5,2c0.5-0.2,0.8-1.3,0.8-1.8c-1.8-1.1-1.7-1.9-1-3.9
			c0.3-0.7,0.6-1.6,1.1-2.8l11.1-27.3c0.4-0.9,0.8-1.9,1.2-2.9c0.9-2.1,1.9-4.3,2.7-6.4c0-0.2,0-0.8-0.4-0.6c-0.8,0.5-1.3,0.7-2.1,1
			c-1.3,0.5-2.6,0.5-4.2,0.8c-0.3,0.1-0.7,1.5-0.6,1.5c1,0.4,1.5,1,1.2,2.1c-0.1,0.4-0.3,0.9-0.5,1.5c-0.2,0.6-0.6,1.5-1,2.5
			L461.3,267.1L461.3,267.1z"/>
		<path id="path67" inkscape:connector-curvature="0" class="st3" d="M452.4,263.5c-0.4,1.1-0.8,2.1-1.1,2.8
			c-0.9,2.1-1.3,2.5-3.3,2.2c-0.3,0.3-0.8,1.3-0.6,1.8c1.1,0.5,2.7,0.5,4.1,1c1.3,0.5,2.4,1.5,3.5,1.9c0.4-0.2,0.8-1.3,0.8-1.8
			c-1.8-1.1-1.8-1.9-1.1-3.9c0.2-0.7,0.6-1.6,1-2.8l10.5-27.4c0.3-0.9,0.7-1.9,1.1-3c0.8-2.1,1.8-4.4,2.6-6.4c0-0.2,0-0.8-0.4-0.6
			c-0.8,0.5-1.4,0.9-2.1,1.2c-1.3,0.5-2.6,0.5-4.2,0.9c-0.3,0.1-0.8,1.6-0.6,1.6c1.1,0.4,1.6,1,1.3,2.1c-0.1,0.4-0.2,0.9-0.5,1.5
			c-0.2,0.6-0.6,1.5-1,2.5L452.4,263.5L452.4,263.5z"/>
	</g>
</g>
</svg>
