<?xml version="1.0" encoding="utf-8"?>
<!-- Generator: Adobe Illustrator 26.0.2, SVG Export Plug-In . SVG Version: 6.00 Build 0)  -->
<svg version="1.1"
	 id="svg20796" xmlns:cc="http://creativecommons.org/ns#" xmlns:dc="http://purl.org/dc/elements/1.1/" xmlns:inkscape="http://www.inkscape.org/namespaces/inkscape" xmlns:rdf="http://www.w3.org/1999/02/22-rdf-syntax-ns#" xmlns:sodipodi="http://sodipodi.sourceforge.net/DTD/sodipodi-0.dtd" xmlns:svg="http://www.w3.org/2000/svg"
	 xmlns="http://www.w3.org/2000/svg" xmlns:xlink="http://www.w3.org/1999/xlink" x="0px" y="0px" width="525px" height="525px"
	 viewBox="0 0 525 525" style="enable-background:new 0 0 525 525;" xml:space="preserve">
<style type="text/css">
	.st0{fill:none;stroke:#14A335;stroke-width:2.5745;stroke-miterlimit:28.3465;}
	.st1{fill:#14A335;}
	.st2{fill:#FFFFFF;}
	.st3{fill:#11A335;}
	.st4{fill:#FFDC00;}
	.st5{fill:#E63F23;}
	.st6{fill:#006330;}
</style>
<sodipodi:namedview  bordercolor="#666666" borderopacity="1.0" id="base" inkscape:current-layer="layer1" inkscape:cx="156.99347" inkscape:cy="157.82413" inkscape:document-rotation="0" inkscape:document-units="mm" inkscape:pagecheckerboard="true" inkscape:pageopacity="0.0" inkscape:pageshadow="2" inkscape:window-height="900" inkscape:window-maximized="0" inkscape:window-width="1440" inkscape:window-x="0" inkscape:window-y="0" inkscape:zoom="0.60193585" pagecolor="#ffffff" showgrid="false">
	</sodipodi:namedview>
<g id="layer1" transform="translate(-88.738281,-152.99415)" inkscape:groupmode="layer" inkscape:label="Logo">
	<path id="path1296" class="st0" d="M612.5,415.5"/>
	<g id="g1845" transform="matrix(2.2152141,0,0,2.2152141,-107.83601,-185.92063)">
		<path id="path1294" class="st1" d="M207.2,153c-65.4,0-118.5,53-118.5,118.5S141.8,390,207.2,390s118.5-53.1,118.5-118.5
			S272.7,153,207.2,153z"/>
		<path id="path1546" class="st2" d="M207.2,154.2c64.8,0,117.4,52.5,117.4,117.3S272,388.8,207.2,388.8S89.9,336.3,89.9,271.5
			S142.4,154.2,207.2,154.2z"/>
		<path id="path12854" class="st1" d="M207.2,182.5c-49.1,0-89,39.9-89,89c0,49.2,39.9,89,89,89c49.2,0,89-39.9,89-89
			C296.2,222.3,256.4,182.5,207.2,182.5z"/>
		<path id="path1722" class="st2" d="M207.2,183.6c48.5,0,87.9,39.3,87.9,87.8c0,48.5-39.3,87.9-87.9,87.9
			c-48.5,0-87.8-39.3-87.8-87.9C119.4,223,158.7,183.6,207.2,183.6z"/>
	</g>
	<g id="g1872" transform="matrix(2.2152141,0,0,2.2152141,-107.83601,-185.92063)">
		<path id="path12858" class="st3" d="M147.9,184.9l4.5,1.3c0.5,0.1,0.9,0.5,1.1,1l1.7,4.4l2.6-3.9c0.3-0.4,0.8-0.7,1.3-0.7l4.7-0.2
			l-2.9-3.7c-0.3-0.4-0.4-0.9-0.3-1.4l1.3-4.6l-4.5,1.6c-0.5,0.2-1,0.1-1.4-0.2l-4-2.6l0.1,4.8c0,0.5-0.2,1-0.6,1.3L147.9,184.9z"/>
		<path id="path12860" class="st3" d="M306.3,275.9c0.4,0,0.8,0.2,1.1,0.4l3.6,3.1l0.5-4.7c0-0.5,0.3-1,0.8-1.2l4.1-2.4l-4.3-1.9
			c-0.5-0.2-0.8-0.6-0.9-1.1l-1.1-4.6l-3.2,3.6c-0.3,0.4-0.8,0.6-1.3,0.5l-4.7-0.4l2.4,4.1c0.3,0.5,0.3,1,0.1,1.5l-1.8,4.4l4.6-1
			C306,275.9,306.2,275.9,306.3,275.9"/>
		<path id="path12864" class="st4" d="M163.8,173c0.6-0.2,1.2-0.1,1.6,0.3c0.5,0.4,0.6,1,0.5,1.6l-1.9,6.8l4.3,5.6
			c0.2,0.3,0.3,0.6,0.3,0.9c11.8-5.5,24.8-8.6,38.6-8.6c47.9,0,87.4,37,91.4,83.9l6.2,0.6l4.7-5.3c0.4-0.5,1-0.6,1.6-0.5
			c0.6,0.2,1,0.6,1.2,1.2l1.6,6.9l6.4,2.8c0.1,0.1,0.2,0.1,0.3,0.2c-1-61.7-51.6-111.5-113.5-111.5c-19.9,0-38.6,5.2-54.9,14.2
			l4.8,3.2L163.8,173z"/>
		<path id="path12868" class="st3" d="M149.2,361.5l-5.3-4.7c-0.5-0.4-0.7-1-0.5-1.6c0.1-0.6,0.6-1,1.2-1.2l6.9-1.6l2.7-6.2
			c-23.4-16.7-38.6-44-38.6-74.8s15.3-58.2,38.7-74.8c-0.4-0.2-0.8-0.5-1-0.9l-2.4-6.6l-6.8-2c-0.6-0.2-1-0.7-1.1-1.3
			c-0.1-0.6,0.1-1.2,0.6-1.6l5.6-4.4l-0.2-5.7c-33,19.9-55.1,56-55.1,97.3c0,41.2,22,77.2,54.8,97.2c0,0,0-0.1,0-0.1L149.2,361.5z"
			/>
		<path id="path12870" class="st5" d="M314.5,275.8l-0.7,7c0,0.6-0.4,1.1-1,1.3c-0.2,0.1-0.4,0.1-0.6,0.1c-0.4,0-0.8-0.1-1-0.4
			l-5.3-4.6l-6.9,1.5c-0.1,0-0.3,0-0.4,0c-4.7,46.2-43.8,82.4-91.3,82.4c-13.6,0-26.6-3-38.2-8.3c-0.1,0.1-0.1,0.2-0.2,0.3l-4.6,5.4
			l1.5,6.9c0.1,0.6-0.1,1.2-0.6,1.6c-0.5,0.4-1.1,0.5-1.6,0.2l-6.5-2.7l-6,3.6c16.6,9.5,35.8,14.9,56.2,14.9
			c62.4,0,113.2-50.6,113.5-113c-0.1,0-0.1,0.1-0.2,0.1L314.5,275.8z"/>
		<g id="g1290">
			<path id="path12820" class="st5" d="M157.5,206.2c32.7-3,30.6,8.8,31.5,15.9c11.9,0.8,14.7,10.4,14.7,12.1
				c1.7-1.3,4.9-5.4,6.1-10.1c-6.1,0.1-10-4-10-8.6c0-4.7,1.8-11.2,8.7-11.2c6.9,0,10.5,5.5,13.4,12.5l5.9-3.3l-0.6-8.4l5.7,3.7
				l2.6-0.3c0,0,0-2.7-0.2-4.8c-2.3-3.3-9.8-6-14.6-7.2c1-0.5,3.2-0.7,5.3-0.7c14.6,0,15.7,14.6,15.2,17c2,0.5,4.9,0.4,4.9,0.4
				s1-2.4,1-6.6c0-12-12.2-17.3-24.2-19.7c-12.1-2.4-29.2,1.6-35.9,6.2c7.7-0.3,10.6,3.2,10.6,5.1c-1.8-0.8-12.8-1.5-15.5-1.1
				C179.5,197.4,165.1,200.8,157.5,206.2"/>
			<path id="path12822" class="st5" d="M176.2,209.3c7.1,0,7.5,7.8,7.2,11.6c-4.6,3.6-17.6,6.5-17.6,12.2c0,1.1,0.5,2.2,1.4,2.2
				c1,0,6.5,0.1,6.5,1.6c0,0.8-0.6,0.7-1.6,1.2c-26,13.3-35.8,25.8-38.4,27.8c0.1-3.1,0.5-5.4,1.3-7.3c2.7-6.9,11.7-18.1,13.5-20.7
				c0.6-0.9,1-2.3-1-2.3c-2.1,0-4.5,0.4-8.8,5.1c-0.2-2.8,0.9-7.3,14.3-13.8c1.8-0.9,2.4-1.9,2.4-2.9c0-1-0.9-2.1-0.9-2.1
				c-3.9,0.1-8.4-1.1-8.7-2.6c-0.1-0.6,0.2-1.1,0.2-1.1c0.5,0.2,0.8,0.9,3.8,0.1c2.9-0.8,12.2-4.2,15.3-5.4
				C168,211.6,173,209.2,176.2,209.3"/>
			<path id="path12824" class="st5" d="M203.6,211.2c2.7-1.8,5-1.9,6.4-1.9c1.3,0,6.2,0.7,7.2,7.6l-2.4,0.2l-4.7,3.9l-0.1-3.5
				l-2-2.8c1.4-0.5,2.1-0.9,2.1-2C210.1,211.5,209,210,203.6,211.2"/>
			<path id="path12826" class="st5" d="M250.4,205.2c0.9,1.8,1,2.4,1,3.6c0,1.2-1.4,3.5-3.9,4.1c0.7-1.8,1-4.1,0.9-5.2
				C249,207.4,249.8,206.6,250.4,205.2"/>
			<path id="path12828" class="st4" d="M209.8,232.9c2.1,1.3,5.9,5.4,5.9,8.9c0,1.7-0.3,2.7-0.9,3.4c-0.6,0.7-9.6,10.8-10.3,19.1
				c2.6,3.5,18.3,30.8,18.3,42.6c0,11.8-5,25.4-11.7,27.2c1.5-4.7,1.7-9.4,1.7-14.7c0-11.5-9.1-25.5-27-30c4.7-3.2,9.9-9.4,9.9-18
				c0-8.6-6-15.8-6-15.8C199,253.4,207.7,242.8,209.8,232.9"/>
			<path id="path12830" class="st4" d="M186.9,224.2c3.1,0,10.3,1.4,13.2,9.1c-1.1,5-11.3,15.1-13.9,17.7
				c-2.6,2.6-19.1,20.9-20.2,41.8c-1,19.5,5.9,42.1,8.8,51.7c-4.8-6-17.2-24.1-18.7-26c-1.4-1.8-5.9-8.8-13.3-13
				c-0.4,1.9,1,9.2,8.5,13.3c-15.5-3.9-20.8-16.9-23.1-22.7c0-14,8.3-29.3,10.6-32.5c10.9-15.2,36.2-25.3,42.2-26.3l-0.3,1.4
				c-2.9,1.2-22.1,14.1-24.6,16.4c-2.5,2.3-10.4,13.2-10.4,17.7c0,1.3,0.1,2.8,1.4,2.8c1.3,0,6.1-0.4,10.3-9.7
				c2.5-5.1,6.7-9.4,6.7-9.4c5.9-3.4,14.7-9,18.3-11.7c3.6-2.7,6.6-5.2,6.6-8.5c0-3.4-3.2-6.9-18-6.7
				C174.4,226.9,181.3,224.2,186.9,224.2"/>
			<path id="path12832" class="st4" d="M191,271.1c-3.5,2.7-7.4,7.2-7.4,12.8c0,5.6,2.7,18,18.4,18.4c2.9,4,8.8,12.8,4.8,26.6
				c-2.4-3.1-6.8-11.4-8.4-13.3c-2-2.4-7-7.9-11.9-5.6c3.8,4.5,14.3,18,15.4,19.8c1.1,1.8,6.3,11.3,4.8,17.3l-10.6-12.2
				c-2.6-4.4-8.9-10.2-18.7-12.9C166.8,311.4,172.7,268.3,191,271.1"/>
			<path id="path12834" class="st4" d="M192.1,333.2l2.1,1.5l4.2,8.8l-3.6,4.7l-2.9-4.9L192.1,333.2z"/>
			<path id="path12836" class="st4" d="M188.4,329.2l-5.2-1.3c-0.7,10.5,6.2,25.9,15.2,34.3C192.4,349.8,190.1,344,188.4,329.2"/>
			<path id="path12838" class="st6" d="M253.6,217.7c1.3,0,3.7,2.6,3.9,3l0.3,3.5l5.3,1.3v0.8l-15.4-0.1l-3-0.5
				c0.3-1,2.3-3.7,3.1-4.4l3.9,2.9h2.5V222l-2.4-2.4C251.5,218.9,252.4,217.7,253.6,217.7"/>
			<path id="path12840" class="st6" d="M245.5,222c-0.6,0.8-2,3.6-2,3.6l-3-0.4l1.3-2L245.5,222z"/>
			<path id="path12842" class="st6" d="M240.3,223.5l-1,1.4l-4.1-0.9l2.4-3.2C237.7,221.9,237.8,223.7,240.3,223.5"/>
			<path id="path12844" class="st6" d="M225.2,219.9c-6.6,8.5-4.5,13.7,6.4,20c-2.3,1.1-8.9,4.7-8.3,14.8
				c0.7,10.1,7.2,11.4,7.2,11.4c2.4-0.6,20.1-2.6,25.2,1.7c1.2,3.3,5.8,9.8,15.2,9.8c5,0,8.8-5.8,8.8-5.8l0.3,9.4l-1.4,0.7l-3.1-0.5
				l-4.6,2.7l-1.9-0.6c-3.3-2.2-10.6-4.4-12.2-4.4c-1.6,0-6.4,1.2-6.4,1.2c4.5,2.3,10.6,11.6,10.6,18.8c0,7.3-2.2,27.4-12.7,26.3
				c0.9-1,2.6-2.5,2.6-5.8s-2.1-3.5-2.1-3.5c-1.5,0.5-10.7,9-18.9,16.5c-6.8,6.2-13,11.5-13,11.5s11.4-15.8,11.4-34.6
				c0-4.7-1-22.5-14.5-36.1c10.8,2.3,28.9,30.9,34.8,30.9c0.8,0,1.9-0.9,1.9-2.4c-0.1-1.4-1.3-7.8-1.3-7.8
				c-2.5-2.5-15.4-12.8-18.5-14.1c-11.2-5-20.9-12.6-20.9-18.8c0-3.4,1.1-8,2-9.2c0.9-1.3,8.5-12.9,8.5-12.9l-0.3-2.9
				c-2-0.3-3.8-3.2-6-7.8C214.9,225.9,220.4,221.4,225.2,219.9"/>
			<path id="path12846" class="st6" d="M282.5,234.8c0.7,0.5,2.2,3.1,2.1,4.3c-0.1,1.1-0.7,3.6-3.5,7c-0.2-0.3-0.4-0.7-0.4-1v-2.6
				c-1.4-2.1-4.3-4.9-4.3-4.9l0.3-0.8c1.5,0.7,2.5,0.6,4.3,0.5C282.8,237.2,283.9,237,282.5,234.8"/>
			<path id="path12848" class="st6" d="M260.7,235.6c-2.8,0.8-7.3,3.3-7.3,9.2c0,3.1,2.1,7.2,8.2,7.2c1.6,0,4-0.7,4.8-1.1
				c-1.9-0.2-6.8-1.3-6.8-3.1c0-1.9,1.4-1.9,1.4-1.9c1,0,1,0.6,2.6,0.6c1.6,0,2.5-0.4,3.3-1.4c-2.9,0.2-7.9-0.9-7.9-4.6
				C259.2,238.2,260,236.9,260.7,235.6"/>
			<path id="path12850" class="st6" d="M268.1,256.5c-0.8,1.7-2,3.9-4.5,4c-2.5,0.1-10.3,0.2-11.2,0.2c-0.9,0-2.4,0.3-2.4,0.3
				l3.7-3.9c0,0,9.4-0.1,10.7-0.2C265.7,256.8,267.3,256.7,268.1,256.5"/>
			<path id="path12852" class="st6" d="M277.7,250.8l-6.5,6.3c0.8,0.6,2.4,2.7,1.5,4.7h3.7c1.2-2.1,2.6-5.1,2.6-6.6
				c-0.7-0.2-2,0.8-2,0.8l-0.1-1.8l0.6-0.8L277.7,250.8z"/>
			<path id="path12862" class="st3" d="M148.3,356.5l3.6,3.1c0.4,0.4,0.6,0.8,0.6,1.4l-0.4,4.7l4.1-2.4c0.4-0.3,0.9-0.3,1.4-0.1
				l4.4,1.8l-1-4.6c-0.1-0.5,0-1,0.4-1.4l3.1-3.6l-4.7-0.5c-0.5-0.1-0.9-0.3-1.2-0.8l-2.4-4l-1.9,4.3c-0.2,0.5-0.6,0.8-1.1,0.9
				L148.3,356.5z"/>
			<path id="path12872" class="st2" d="M195,187.3c-0.3,0-0.4,0.1-0.6,0.2c-0.2,0.1-0.5,0.2-0.8,0.3c-0.7,0.3-1.6,0.7-2.6,1.2
				c-2.1,0.9-4.7,2.2-7.3,3.5c-2.6,1.3-5.2,2.6-7.2,3.6c-1,0.5-1.8,0.9-2.4,1.3c-0.3,0.2-0.5,0.3-0.7,0.4c-0.1,0.1-0.2,0.1-0.2,0.2
				c0,0-0.1,0.1-0.1,0.1c0,0,0,0-0.1,0.1c0,0,0,0,0,0.1c0,0,0,0.1,0,0.1c0,0,0,0,0,0c-3.1,9,2.1,20.2,10.5,31.1l0.2,0.2h53.7v-1.2
				h-53.1c-8.1-10.6-12.9-21.4-10.2-29.6c0,0,0,0,0,0c0.1-0.1,0.4-0.2,0.6-0.4c0.6-0.3,1.4-0.7,2.3-1.2c1.9-1,4.5-2.3,7.1-3.6
				s5.3-2.5,7.3-3.5c1-0.5,1.9-0.9,2.6-1.1c0.3-0.1,0.6-0.2,0.8-0.3c0.2-0.1,0.4-0.1,0.3-0.1c18.8-0.8,33.7,1.2,42.5,4.6
				c2.6,1,4.7,1.3,9.4,5.7c0,0.2,0.3,2.9,0.3,7.4c0,4.5-0.7,5.8-1.3,7.6l1.1,0.3c0.5-1.7,1.4-3.3,1.4-8c0-4.7-0.3-7.8-0.3-7.8l0-0.2
				l-0.2-0.1c-5-4.7-7.4-5.1-10-6.1C228.9,188.5,213.9,186.5,195,187.3L195,187.3L195,187.3z M169.5,198.9c-0.4,1-0.9,2.1-1.3,3.2
				c-0.3,0.8-0.3,1.5-0.3,2.2h-11.2v1.2h12.4l-0.2-0.7c-0.1-0.3,0.1-1.2,0.4-2.2c0.3-1,0.8-2.2,1.2-3.1L169.5,198.9z M167.3,210.2
				l-1,0.5c1.1,2,3.3,6.4,5.7,10.7c2.4,4.3,5.1,8.6,7.2,10.6l0.1,0.1l6.2,0.9l55.8-0.4l0-1.2l-55.7,0.4l-5.7-0.8
				c-1.8-1.8-4.5-6-6.9-10.2C170.6,216.6,168.4,212.3,167.3,210.2L167.3,210.2z M184.7,234.9l-8.7,1l-3.4,12.5l-1.9,2.7l-9.4,30.4
				c-0.2,0.2-0.8,0.6-1.6,0.9c-0.8,0.4-1.8,0.7-2.7,1.1c-1.9,0.7-3.9,1.2-4.6,1.4l0,0c-0.7,0.2-3.3,0.9-5.8,1.7
				c-1.3,0.4-2.5,0.8-3.6,1.1c-1,0.3-1.8,0.6-2.3,0.9c-1.2,0.6-2.6,1.2-2.9,1.3l-9.5-7.8l-0.7,0.9l10.1,8.2l0.3-0.1
				c0,0,2-0.7,3.4-1.5h0c0.2-0.1,1.1-0.4,2.1-0.8c1-0.3,2.3-0.7,3.5-1.1c2.5-0.8,5-1.5,5.8-1.7c0.7-0.2,2.7-0.7,4.7-1.4
				c1-0.3,2-0.7,2.8-1.1c0.8-0.4,1.5-0.8,2-1.2l0.1-0.1l9.5-30.5l1.9-2.7l3.2-11.9l6.8-0.8l0.3,3.1l-5.8,5.9l0,0.1
				c0,0-4.6,14.3-6.1,18.7c-1.5,4.4-4.1,11.7-5.4,14.6c-1.3,3-2,4.8-2,4.8l-0.2,0.5l0.4,0.2c0,0,4.9,2.9,7.6,4.5
				c1.3,0.8,3.9,2.7,6.8,4.9c2.9,2.2,6.2,4.8,9,6.8c5.6,4.1,12.4,8.4,18.4,10.8l0.1,0l1.9,0.1l0.2-0.1c0,0,5.2-3.2,7.7-4.7
				c2.4-1.5,8.3-4.2,8.3-4.2l0,0l0,0c0,0,3.4-1.9,7.1-3.9c3.7-2,7.5-4.2,8.4-4.7l0,0c1-0.6,2.8-2.1,4.6-3.6c1.8-1.6,3.6-3.3,4.4-4.2
				l0.2-0.3l-0.1-0.3c-2.2-5.5-5.6-18.7-6-20.3c-0.3-1.3-0.5-2.3-0.6-2.8l3.3-0.5l3.5,13.3l2,11l7.1,3.3l1.2,0.2l4.2,5.6
				c-0.3-0.1-0.2-0.1-0.5-0.1c-1.6-0.3-4.2-0.6-8.2-0.6c-8.3,0-18.3,5.6-20.8,7h0h0c-2.5,1.5-9.8,6.2-9.8,6.2l-17.6,10.5l-0.1,0.2
				c-0.7,2.3-1.6,7.7-1,12.7l1.2-0.1c-0.5-4.8,0.4-9.9,1-12.1l17.1-10.2l0,0c0,0,7.4-4.8,9.8-6.2l0,0c2.4-1.4,12.5-6.8,20.2-6.8
				c4,0,6.5,0.3,8,0.5c1.5,0.3,1.9,0.5,1.9,0.5l2.2,1.1l-6.9-9.3l-1.5-0.3l-6.4-2.9l-1.9-10.4l-3.8-14.3l-5.5,0.8l0.1,0.6
				c0,0,0.3,1.8,0.7,3.5c0.4,1.6,3.6,14.2,5.9,20.1c-0.9,0.9-2.4,2.4-4.1,3.9c-1.8,1.6-3.6,3.1-4.4,3.5h0h0
				c-0.9,0.5-4.8,2.7-8.4,4.7c-3.6,2-7,3.9-7,3.9c0,0-5.9,2.7-8.4,4.2c-2.4,1.5-7.3,4.5-7.5,4.6l-1.3-0.1c-5.8-2.4-12.5-6.6-18-10.7
				v0c-2.8-2-6.1-4.5-9-6.8s-5.5-4.1-6.9-5c-2.5-1.5-6.6-3.9-7.1-4.2c0.1-0.3,0.6-1.6,1.8-4.3c1.3-3.1,3.9-10.3,5.4-14.7
				c1.4-4.4,6-18.4,6-18.6l6-6L184.7,234.9z M128,289.4l-0.8,0.9c1.7,1.5,3,3.3,4.6,5.5c0,0.3-0.8,4.4-1.9,7.3l1.1,0.4
				c1.2-3.2,2-7.7,2-7.7l0-0.2l-0.1-0.2C131.2,293,129.9,291.1,128,289.4L128,289.4z M155.2,290.1c-7.6,0-15.4,5-18,6.9l-0.1,0.1
				l-0.1,0.2c0,0-2.4,6.3-4,11l1.1,0.4c1.6-4.6,3.9-10.6,3.9-10.8c2.5-1.9,10.1-6.6,17.1-6.6c3.7,0,7,0.3,11.3,2
				c4.3,1.7,9.6,4.9,17.1,10.7c7.5,5.8,12.2,9,15.1,10.8c1.4,0.9,2.4,1.4,3,1.7c0.3,0.2,0.4,0.2,0.5,0.2v28.2l-8.3,5l-5.7,4l0.7,1
				l5.7-4l8.8-5.4v-29.6l-0.4-0.1c0,0-0.2-0.1-0.7-0.3c-0.6-0.3-1.5-0.8-2.9-1.6c-2.8-1.7-7.5-4.9-15-10.7
				c-7.5-5.8-12.9-9-17.3-10.8C162.4,290.4,158.9,290.1,155.2,290.1L155.2,290.1z M196.1,354l-3.7,4.4l5.3-0.8l-0.2-1.2l-2.2,0.3
				l1.7-2L196.1,354z"/>
		</g>
	</g>
	<g id="g1037" transform="matrix(2.2152141,0,0,2.2152141,-107.83601,-185.92063)">
		<g id="g989">
			<path id="path12874" class="st4" d="M129.2,345.1l-8-9.5l2.2-1.9l5.7,6.7l1.7-1.4l-5.4-6.4l2.1-1.8l5.4,6.4l3.1-2.6l2.4,2.8
				L129.2,345.1z"/>
			<path id="path12876" class="st4" d="M119.1,332.7l-6.8-11.1l2.4-1.4l4.9,8l1.6-1l-4.6-7.6l2.1-1.3l4.6,7.6l1.6-1l-5-8.2l2.4-1.5
				l6.9,11.3L119.1,332.7z M112.1,329.3l-2.1-3.4l4.6,1.3l1.3,2.2L112.1,329.3z"/>
			<path id="path12878" class="st4" d="M117.3,311.3l-2.4-6c-0.6-1.5-1.2-1.9-2.8-1.2l-1.5,0.6c-1.6,0.6-1.8,1.3-1.2,2.8l2.4,6
				L117.3,311.3z M110.4,317.9l-4-10.2c-1.3-3.4-0.7-5,2.1-6.1l3.4-1.3c2.7-1.1,4.3-0.3,5.7,3.1l4,10.2L110.4,317.9z"/>
			<path id="path12880" class="st4" d="M103.7,299.4l-2.6-12.7l2.7-0.6l1.9,9.2l1.9-0.4l-1.8-8.7l2.4-0.5l1.8,8.7l1.9-0.4l-1.9-9.4
				l2.8-0.6l2.6,12.9L103.7,299.4z M98.2,293.8l-0.8-3.9l3.9,2.8l0.5,2.5L98.2,293.8z"/>
			<path id="path12882" class="st4" d="M106.2,278.9l-0.2-6c0-1-0.4-1.3-1.3-1.3h-0.4c-1,0.1-1.2,0.6-1.2,1.7l0.2,5.7L106.2,278.9z
				 M100.5,282.8l-0.4-11c-0.1-2.8,1.3-3.6,3.4-3.7l0.8,0c1.6-0.1,2.5,0.3,3,1.9h0c0.2-1.1,0.6-2,2.5-2.1l2-0.1l0.1,3.6l-1.4,0.1
				c-1.2,0-1.6,0.4-1.6,1.5l0.2,5.7l3.1-0.1l0.1,3.7L100.5,282.8z"/>
			<path id="path12884" class="st4" d="M108,259.9l0.7-4.6l-4.8,1.7L108,259.9z M100.9,258.9l0.7-4.7l12.7-4.8l-0.6,4l-2.3,0.8
				l-1,7.3l1.9,1.3l-0.6,4L100.9,258.9z"/>
			<path id="path12886" class="st4" d="M102.7,247.2l4-13.3l2.8,0.8l-1.5,4.9l8.6,2.6l-1,3.5l-8.6-2.6l-1.5,4.9L102.7,247.2z"/>
			<path id="path12888" class="st4" d="M107.9,231.4l1.4-3.4l10.9,4.6l-1.4,3.4L107.9,231.4z"/>
			<path id="path12890" class="st4" d="M118.1,224.7c1.5,0.9,2.3,0.9,3.1-0.6l2.4-4c0.9-1.5,0.5-2.2-1-3l-1.1-0.7
				c-1.3-0.8-2.3-0.9-3.2,0.8l-2.2,3.7c-1,1.7-0.4,2.4,0.9,3.2L118.1,224.7z M114.2,226.7c-3-1.7-2.7-3.9-1.1-6.7l2.9-5.1
				c1.6-2.8,3.3-4.1,6.3-2.4l3.1,1.8c3,1.8,2.7,3.9,1.1,6.7l-2.9,5c-1.6,2.8-3.3,4.1-6.3,2.4L114.2,226.7z"/>
			<path id="path12892" class="st4" d="M121.1,207.4l3.7-4.3l11,0.5v0l-6.5-5.7l2.4-2.7l8.9,7.8l-3.7,4.2l-11-0.5l6.5,5.7l-2.4,2.7
				L121.1,207.4z"/>
		</g>
		<g id="g1001">
			<path id="path12894" class="st4" d="M303,295.3l-1.8,6.2c-0.4,1.5-0.2,2.2,1.5,2.7l1.5,0.5c1.6,0.5,2.2,0,2.6-1.5l1.8-6.2
				L303,295.3z M312.5,294.3l-3.1,10.5c-1,3.5-2.5,4.4-5.4,3.6l-3.5-1c-2.8-0.8-3.6-2.4-2.6-5.9l3.1-10.5L312.5,294.3z"/>
			<path id="path12896" class="st4" d="M306.7,312.6l-5.7,11.7l-2.5-1.2l4.1-8.4l-1.7-0.8l-3.9,8l-2.2-1.1l3.9-8l-1.7-0.8l-4.2,8.6
				l-2.6-1.3l5.8-11.9L306.7,312.6z"/>
			<path id="path12898" class="st4" d="M294.6,334.3l-7.8,9.6l-2.2-1.8l5.5-6.8l-1.7-1.4l-5.3,6.5l-2.2-1.7l5.3-6.5l-3.1-2.5
				l2.3-2.8L294.6,334.3z"/>
			<path id="path12900" class="st4" d="M277.6,343.8c-1.1-1.3-1.9-1.5-3.1-0.4l-3.5,3.1c-1.3,1.1-1.1,1.9,0,3.2l0.8,0.9
				c1,1.1,1.9,1.5,3.3,0.3l3.2-2.8c1.4-1.3,1.1-2.2,0.1-3.3L277.6,343.8z M282,343.1c2.3,2.6,1.4,4.5-1,6.7l-4.4,3.9
				c-2.4,2.2-4.4,2.9-6.8,0.3l-2.4-2.6c-2.3-2.6-1.4-4.5,1-6.7l4.3-3.9c2.4-2.2,4.5-2.9,6.8-0.3L282,343.1z"/>
			<path id="path12902" class="st4" d="M263.4,355.3c-0.9-1.5-1.6-1.8-3-0.9l-4,2.4c-1.5,0.9-1.4,1.7-0.5,3.1l0.7,1.1
				c0.8,1.3,1.5,1.9,3.2,0.8l3.6-2.2c1.7-1,1.5-1.9,0.7-3.2L263.4,355.3z M267.8,355.4c1.8,3,0.6,4.7-2.2,6.4l-5,3
				c-2.8,1.7-4.9,2-6.7-1l-1.8-3c-1.8-3-0.6-4.7,2.2-6.4l5-3c2.8-1.7,4.9-2,6.7,0.9L267.8,355.4z"/>
			<path id="path12904" class="st4" d="M253.9,368.4l-12.9,5.2l-1.1-2.7l4.8-1.9l-3.3-8.3l3.4-1.4l3.3,8.3l4.8-1.9L253.9,368.4z"/>
			<path id="path12906" class="st4" d="M233.8,370.6l-6.3,1.4c-0.7,0.1-1,0.5-0.8,1.1c0.2,0.7,0.6,0.8,1.2,0.7l6.3-1.4L233.8,370.6z
				 M232.9,366.4l-6.4,1.4c-0.8,0.2-1.2,0.5-1.1,1.1c0.2,0.8,0.7,0.8,1.5,0.7l6.4-1.4L232.9,366.4z M238.4,374.5l-10.2,2.3
				c-2.8,0.7-4.4,0.2-4.9-2.1c-0.5-2,0.2-2.5,1.1-3v-0.1c-1.6,0.2-2.4-0.5-2.8-2.3c-0.6-2.5,0.8-3.4,2.8-3.9l11.3-2.6L238.4,374.5z"
				/>
			<path id="path12908" class="st4" d="M214.5,371.3l-4.6,0.2l2.6,4.3L214.5,371.3z M214.9,378.5l-4.7,0.2l-7.1-11.6l4-0.2l1.2,2.1
				l7.4-0.3l1-2.2l4-0.2L214.9,378.5z"/>
			<path id="path12910" class="st4" d="M201.4,378.7l-3.6-0.4l0.9-8.8l-8.2-0.9l0.3-3l11.8,1.2L201.4,378.7z"/>
			<path id="path12912" class="st4" d="M187.3,377l-3.5-0.8l2.1-8.6l-8-1.9l0.7-3l11.5,2.8L187.3,377z"/>
		</g>
		<g id="g977">
			<path id="path12914" class="st1" d="M174.5,177.5l3.5-0.9c0.3,1.2,0.8,1.2,1.9,0.9l4.3-1.1c0.8-0.2,1.5-0.5,1.2-1.4
				c-0.3-1-0.7-0.9-5.2,0.3c-5.3,1.4-6.1,0.9-6.8-1.9c-0.6-2.1-0.8-3.7,3.7-4.9l4.9-1.3c4.1-1.1,4.8,0.2,5.4,2.2l0.1,0.4l-3.5,0.9
				c-0.2-0.8-0.4-1.2-2-0.8l-3.9,1c-0.8,0.2-1.2,0.7-1.1,1.3c0.3,1,0.7,0.9,4.5-0.1c5.5-1.5,6.8-1.5,7.7,1.9
				c0.8,3.1-0.1,3.9-4.7,5.1l-4.3,1.1c-3.2,0.8-4.6,0.6-5.3-1.9L174.5,177.5z"/>
			<path id="path12916" class="st1" d="M196.2,160.6l4-0.4l-3.1,3.6l-2.6,0.3L196.2,160.6z M190.1,165.4l12.9-1.3l0.3,2.7l-9.3,0.9
				l0.2,1.9l8.8-0.9l0.3,2.4l-8.8,0.9l0.2,1.9l9.5-0.9l0.3,2.8l-13.1,1.3L190.1,165.4z"/>
			<path id="path12920" class="st1" d="M206.5,164l5.6,0.4l6.3,9.1h0l0.6-8.6l3.6,0.3l-0.8,11.9l-5.7-0.4l-6.2-9h0l-0.6,8.6
				l-3.6-0.2L206.5,164z"/>
			<path id="path12922" class="st1" d="M233.5,163.2l3.9,0.9l-4.1,2.4l-2.5-0.6L233.5,163.2z M226.2,165.7l12.6,3l-0.7,2.7l-9.1-2.2
				l-0.5,1.9l8.6,2.1l-0.6,2.4l-8.6-2.1l-0.5,1.9l9.3,2.2l-0.7,2.8l-12.9-3.1L226.2,165.7z"/>
			<path id="path12924" class="st1" d="M240.3,173.5c1.3-3.2,3.5-3.2,6.5-1.9l5.1,2.1c3.8,1.6,3.8,3.2,2.8,5.4l-0.1,0.3l-3.3-1.4
				c0.5-1.1-0.1-1.5-1.2-2l-3.6-1.5c-1.7-0.7-2.3-0.5-3.1,1.4l-0.6,1.3c-0.8,1.9-0.5,2.5,1.2,3.2l3.6,1.5c0.9,0.4,1.8,0.6,2.3-0.5
				l0.1-0.3l-4.1-1.7l0.9-2.3l7.5,3.2l-1.3,3.1c-1.3,3.1-3,2.6-6.8,1l-4-1.7c-3-1.3-4.5-2.8-3.2-6L240.3,173.5z"/>
			<path id="path12926" class="st1" d="M259.7,186.2l3.9,2.5l0.5-5L259.7,186.2z M263.6,180.1l4,2.6l-1,13.5l-3.4-2.2l0.2-2.4
				l-6.2-4l-2,1.2l-3.4-2.2L263.6,180.1z"/>
			<path id="path12928" class="st1" d="M274.7,187.8l2.7,2.4l-5.8,6.6l6.1,5.4l-2,2.3l-8.8-7.9L274.7,187.8z"/>
			<path id="path12930" class="st1" d="M283.1,206.1l3,3.6l1.9-4.7L283.1,206.1z M288.6,201.5l3,3.7l-5,12.6l-2.6-3.1l0.9-2.2
				l-4.7-5.7l-2.3,0.5l-2.6-3.1L288.6,201.5z"/>
			<path id="path12932" class="st1" d="M296.7,212.1l2,3.1l-10,6.4l-2-3.1L296.7,212.1z"/>
			<path id="path12934" class="st1" d="M293.3,221.2l1.6,3.3c-1.1,0.6-1,1.1-0.5,2l2,4c0.3,0.7,0.8,1.4,1.6,1
				c0.9-0.5,0.8-0.9-1.3-5.1c-2.4-4.9-2.1-5.8,0.6-7.1c1.9-0.9,3.5-1.5,5.5,2.6l2.2,4.6c1.9,3.8,0.8,4.7-1.1,5.7l-0.4,0.2l-1.6-3.3
				c0.8-0.4,1.1-0.6,0.3-2.1l-1.8-3.6c-0.4-0.8-0.8-1.1-1.4-0.8c-0.9,0.5-0.8,0.9,1,4.4c2.5,5.1,2.8,6.4-0.4,7.9
				c-2.9,1.4-3.8,0.7-5.9-3.7l-1.9-4c-1.5-3-1.5-4.4,0.8-5.6L293.3,221.2z"/>
			<path id="path12936" class="st1" d="M308.2,234.2l3.8,12.4l-2.6,0.8l-2.7-8.9l-1.8,0.6l2.6,8.5l-2.4,0.7l-2.6-8.5l-1.8,0.5
				l2.8,9.2l-2.7,0.8l-3.8-12.6L308.2,234.2z"/>
		</g>
	</g>
</g>
</svg>
