<?xml version="1.0" encoding="utf-8"?>
<!-- Generator: Adobe Illustrator 26.0.2, SVG Export Plug-In . SVG Version: 6.00 Build 0)  -->
<svg version="1.1" id="Calque_1" xmlns="http://www.w3.org/2000/svg" xmlns:xlink="http://www.w3.org/1999/xlink" x="0px" y="0px"
	 width="409px" height="586px" viewBox="0 0 409 586" style="enable-background:new 0 0 409 586;" xml:space="preserve">
<style type="text/css">
	.st0{fill:#FFFFFF;}
	.st1{fill:#B72E3F;}
	.st2{fill-rule:evenodd;clip-rule:evenodd;fill:#FFFFFF;}
	.st3{fill:#B49C59;}
	.st4{fill:#FFFFFF;stroke:#000000;stroke-width:1.000000e-02;}
	.st5{fill:#676767;}
</style>
<g>
	<g id="switch2286_00000036952370020530298510000006554826300469070222_">
		<g id="g2290_00000063627082706603638890000010847191090607028896_">
			<g id="Layer_1_00000096030637174552215200000005318811750959911565_">
				<path id="path2293_00000011028950454078893700000008541561944946963080_" class="st0" d="M10.1,79.1v294.4
					c0,51.4,20.4,100.2,57.5,137.2c17.8,17.8,38.6,31.9,61.9,41.7c24,10.1,49.3,15.3,75.3,15.3c26,0,51.4-5.1,75.3-15.3
					c23.2-9.8,44-23.8,61.8-41.7c36.7-36.7,56.9-85.4,56.9-137.2V79.1h-8.1H10.1z M382.6,373.5c0,47.4-18.5,92.1-52.2,125.7
					c-33.6,33.6-78.3,52.2-125.6,52.2c-23.8,0-47-4.7-68.9-14c-21.3-9-40.4-21.8-56.7-38.2c-34-34-52.7-78.6-52.7-125.7
					c0,0,0-262.7,0-278.1c15.2,0,340.9,0,356.1,0C382.6,110.8,382.6,373.5,382.6,373.5z"/>
				<g id="g2295_00000026139254469987666480000011976809878402765235_">
					<path id="path2297_00000010296482174897123680000014228902572381277578_" class="st1" d="M18.3,87.3v286.2l0,0
						c0,51.4,21.3,97.7,55.1,131.5c33.8,33.7,80.5,54.5,131.4,54.5l0,0l0,0c50.9,0,97.7-20.8,131.4-54.5
						c33.8-33.8,54.6-80,54.6-131.5l0,0V87.3H18.3z"/>
					<path id="path2299_00000001659744711848733810000000008687299187112064_" class="st2" d="M16.8,280h159.9V85h56.1V280h159.4
						v56.2H232.8v223.5c-9.4,1.5-18.7,2.1-28.1,2.1l0,0l0,0c-9.4,0-18.7-0.5-28.1-2.1V336.1H16.8V280z"/>
				</g>
				<path id="path2301_00000178901692267164922020000003185001396253771184_" class="st3" d="M0.5,8.7v364.8
					c0,54,21.4,105.2,60.3,144c18.7,18.7,40.6,33.4,64.9,43.7c25.1,10.6,51.7,16,79.1,16c27.3,0,53.9-5.4,79.1-16
					c24.3-10.3,46.2-25,64.9-43.7c38.5-38.5,59.8-89.7,59.8-144V8.7H0.5z M398.9,373.5c0,51.8-20.2,100.5-56.9,137.2
					c-17.8,17.8-38.6,31.9-61.8,41.7c-23.9,10.1-49.3,15.3-75.3,15.3c-26,0-51.3-5.1-75.3-15.3c-23.2-9.8-44-23.8-61.9-41.7
					c-37.1-37-57.5-85.8-57.5-137.2V79.1h380.6h8.1L398.9,373.5L398.9,373.5z"/>
				<g id="g2303_00000084519717787437559130000017746819442921338248_">
					<path id="path2305_00000141451405357769855640000010501415296350800276_" class="st0" d="M222.8,558.6c-6,0.6-12,0.9-18.1,0.9
						C210.8,559.5,216.8,559.1,222.8,558.6z"/>
					<path id="path2307_00000160191408212664360590000003738699588067439489_" class="st0" d="M232.8,557.4v-0.3
						c-2.6,0.4-5.2,0.9-7.8,1.2C227.6,558,230.2,557.9,232.8,557.4z"/>
					<path id="path2309_00000067222283926271820630000012932088887550950276_" class="st0" d="M176.7,557.4c2.7,0.4,5.3,0.6,7.9,0.9
						c-2.7-0.3-5.3-0.8-7.9-1.2V557.4z"/>
					<path id="path2311_00000076603673935790098470000013335889627251110048_" class="st0" d="M204.8,559.5
						c-6.1,0-12.1-0.3-18.1-0.9C192.7,559.1,198.7,559.5,204.8,559.5z"/>
					<path id="path2313_00000116934219070633112710000006406191351238756246_" class="st4" d="M116.4,387.5l-16.1-2.6
						c-4.7-1.1-9.3-2.1-14-3.1c-3.1-0.5-8.4-0.5-13,1.1c-4.7,1-8.9,2.6-11,7.3c-2.6,5.7,1.1,11.9,7.3,13c4.7,0.4,8.3-2.2,9.4-6.3
						c1-3.2,3.6-3.6,6.8-3.2c2.6,0.6,4.7,7.3,5.2,12.5c0.5,1.6,0.5,3.6,0.5,5.2c0,6.3-2.6,9.4-5.2,12c-2.1,2.1-4.7,4.7-4.7,8.8
						c0,4.7,2.6,6.8,4.7,8.8c0,0,0,0,0.5,0.5c1.1,1,2.1,2.6,3.1,4.1c1.1,2.1,1.5,4.2,1.5,7.3c0,2.6-1,10.4-2.6,14.5
						c-0.5,1.1-1.5,3.1-3.1,3.6c-3.1,0.5-5.8-0.5-6.8-3.6c-1.1-3.1-3.1-5.2-5.7-5.7c-7.8-1.6-14,5.7-11,13c1.1,2,3.1,4.1,5.2,5.2
						c4.7,2.1,9.8,2.6,14,3.1c4.2,0,8.4-1.1,12.5-2.1c2.1-0.5,4.2-1,6.2-1l16.1-3.1c17.1-3.1,17.1-10.4,17.1-20.2v-48.9
						c0-4.6,0-9.3-2.1-12.4C129.4,391.7,125.3,389.1,116.4,387.5z M122.7,448.3c0,4.7,0,8.3-1.5,11.4c-1.1,3.1-3.1,5.7-6.3,6.2
						l-5.2,1.1c-2.1,0-3.7,0.5-5.7,0.5c-3.2,0-3.6-2.1-3.2-4.7c0.6-2.1,1.1-4.2,1.6-6.2c0.5-2.6,0.5-4.7,0.5-7.3
						c-0.5-11.4-4.2-15.1-5.8-16.1c-1-0.5-1.5-1-0.5-1.5c0,0,0,0,0-0.5c1.6-1,5.8-4.1,6.3-15.1c0-2.1,0-4.1-0.5-6.2
						c0-2.5-0.5-4.6-1-6.7c-0.6-1.6-0.6-3.2-0.6-4.2c0.6-2.1,2.1-2.5,7.4-1.5l6.7,1.1c3.1,1,5.2,3.1,6.3,6.2
						c1.5,3.1,1.5,6.7,1.5,11.4L122.7,448.3L122.7,448.3z"/>
					<path id="path2315_00000137816457962428074750000018201146638600798596_" class="st4" d="M292.6,476.8l16.6,3.1
						c2.1,0,4.1,0.5,6.2,1c3.6,1.1,7.8,2.1,12,2.1c4.6-0.5,9.9-1.1,14-3.1c2.6-1.1,4.1-3.1,5.2-5.2c3.1-7.3-2.6-14.6-10.4-13
						c-2.5,0.5-5.2,2.6-6.2,5.7c-0.5,3.1-3.6,4.1-6.2,3.6c-1.5-0.5-2.5-2.6-3.1-3.6c-2.2-4.2-3.2-11.9-3.2-14.5c0-3.1,1-5.2,1.6-7.3
						c1.1-1.5,2.6-3.1,3.7-4.1c0.5-0.5,0.5-0.5,0.5-0.5c2.1-2.1,4.2-4.1,4.2-8.8c0-4.1-2.1-6.7-4.2-8.8c-2.6-2.6-5.8-5.7-5.8-12
						c0-1.5,0.5-3.6,0.5-5.2c1-5.2,2.6-11.9,5.7-12.5c2.6-0.5,5.7,0,6.2,3.2c1.5,4.1,5.2,6.7,9.4,6.3c6.7-1.1,9.8-7.3,7.3-13
						c-1.5-4.7-6.2-6.3-10.4-7.3c-4.7-1.6-9.8-1.6-12.9-1.1c-4.7,1.1-9.4,2.1-14,3.1l-16.6,2.6c-8.4,1.5-13.1,4.2-15.1,7.8
						c-2.1,3.1-2.1,7.8-2.1,12.4v48.9C275.4,466.5,275.4,473.8,292.6,476.8z M286.8,416.1c0-4.7,0-8.3,1.1-11.4
						c1-3.1,3.1-5.2,6.7-6.2l6.7-1.1c5.2-1,6.8-0.5,7.3,1.5c0,1.1-0.5,2.6-0.5,4.2c-0.5,2.1-1,4.1-1.5,6.7c0,2.1,0,4.2,0,6.2
						c0.5,11,4.7,14.1,6.2,15.1c0,0.5,0,0.5,0,0.5c1.1,0.5,0,1.1-0.5,1.5c-1.6,1.1-5.2,4.7-5.7,16.1c0,2.6,0,4.7,0.5,7.3
						c0,2.1,0.5,4.1,1,6.2c0.5,2.6,0.5,4.7-2.5,4.7c-2.1,0-3.7-0.5-5.8-0.5l-5.2-1.1c-3.7-0.5-5.7-3.1-6.7-6.2
						c-1.1-3.1-1.1-6.8-1.1-11.4L286.8,416.1L286.8,416.1z"/>
					<path id="path2317_00000165198223860309407310000005115861178651498419_" class="st4" d="M323.7,144.9c2.6-0.5,5.7,0,6.2,3.7
						c1.5,4.2,5.2,6.2,9.4,5.7c6.7-1,9.8-6.8,7.3-13c-1.5-4.2-6.2-6.2-10.4-7.3c-4.7-1-9.8-1-12.9-0.5c-4.7,0.5-9.4,2.1-14,2.6
						l-16.6,3.1c-8.4,1.5-13.1,4.1-15.1,7.2c-2.1,3.7-2.1,8.4-2.1,13v48.3c0,9.9,0,17.7,17.1,20.8l16.6,2.5c2.1,0.5,4.1,1.1,6.2,1.6
						c3.6,0.5,7.8,1.5,12,1.5c4.6,0,9.9-0.5,14-2.6c2.6-1.5,4.1-3.6,5.2-5.7c3.1-6.8-2.6-14.5-10.4-12.5c-2.5,0.5-5.2,2.1-6.2,5.7
						c-0.5,3.2-3.6,3.6-6.2,3.2c-1.5,0-2.5-2.1-3.1-3.2c-2.2-4.7-3.2-11.9-3.2-14.5c0-3.1,1-5.2,1.6-7.3c1.1-1.5,2.6-3.1,3.7-4.7
						c0.5,0,0.5,0,0.5,0c2.1-2.6,4.2-4.6,4.2-8.8c0-4.7-2.1-6.8-4.2-8.9c-2.6-2.6-5.8-5.7-5.8-12.5c0-1.5,0.5-3.1,0.5-4.7
						C319,152.7,320.6,145.4,323.7,144.9z M312.3,184.9c-1.6,1-5.2,4.7-5.7,16.1c0,2.1,0,4.6,0.5,7.2c0,2.1,0.5,4.2,1,5.7
						c0.5,2.7,0.5,5.2-2.5,5.2c-2.1,0-3.7-0.5-5.8-1l-5.2-1.1c-3.7-0.5-5.7-2.6-6.7-5.7c-1.1-3.2-1.1-7.3-1.1-11.4v-32.2
						c0-4.7,0-8.9,1.1-11.4c1-3.6,3.1-5.7,6.7-6.2l6.7-1.1c5.2-1,6.8-0.5,7.3,1.6c0,1-0.5,2.1-0.5,4.1c-0.5,1.5-1,4.1-1.5,6.8
						c0,2,0,4.1,0,5.7c0.5,10.9,4.7,14.5,6.2,15.6C313.9,183.9,312.8,184.4,312.3,184.9z"/>
				</g>
				<path id="path2319_00000023241293491672771180000006999194986909785472_" class="st4" d="M116.9,139.2l-16.1-3.1
					c-5.2-0.5-9.3-2.1-14.5-2.6c-3.1-0.5-7.8-0.5-13,0.5c-4.2,1.1-8.9,3.1-10.4,7.3c-2.6,6.2,1.1,12,7.3,13c4.2,0.5,7.8-1.5,9.3-5.7
					c0.5-3.7,3.7-4.2,6.8-3.7c2.6,0.5,4.1,7.8,5.2,13c0,1.5,0.5,3.1,0.5,4.7c0,6.8-3.1,9.9-5.7,12.5c-2.1,2.1-4.2,4.1-4.2,8.9
					c0,4.1,2.1,6.2,4.2,8.8h0.5c1.1,1.5,2.6,3.1,3.7,4.7c1,2.1,1.5,4.1,1.5,7.3c0,2.6-1,9.8-3.1,14.5c-0.5,1.1-1.5,3.2-2.6,3.2
					c-3.1,0.5-6.3,0-6.8-3.2c-1-3.6-3.6-5.2-6.2-5.7c-7.8-2.1-13.5,5.7-10.4,12.5c1.1,2.1,2.6,4.2,5.2,5.7c4.1,2.1,9.3,2.6,14,2.6
					c4.2,0,8.4-1.1,12.5-1.5c2.1-0.5,4.1-1.1,6.2-1.6l16.1-2.5c17.1-3.1,17.1-10.9,17.1-20.8v-48.3c0-4.6,0-9.3-2.1-13
					C129.9,143.4,125.3,140.8,116.9,139.2z M122.7,200c0,4.1,0,8.3-1.1,11.4c-1,3.1-3.1,5.2-6.7,5.7l-5.2,1.1c-2.1,0.5-3.7,1-5.2,1
					c-3.7,0-3.7-2.5-3.1-5.2c0.5-1.5,1-3.6,1-5.7c0.5-2.5,0.5-5.2,0.5-7.2c-0.5-11.4-4.2-15.1-5.8-16.1c-0.5-0.5-1.5-1-0.5-2.1
					c0,0,0,0,0.5,0c1.1-1.1,5.2-4.7,5.8-15.6c0-1.5,0-3.7,0-5.7c-0.5-2.7-1.1-5.2-1.1-6.8c-0.5-2.1-1.1-3.1-1.1-4.1
					c0.6-2.1,2.1-2.6,7.4-1.6l6.7,1.1c3.7,0.5,5.7,2.6,6.7,6.2c1.1,2.5,1.1,6.8,1.1,11.4L122.7,200L122.7,200z"/>
				<g id="g2321_00000116931872706475529280000009143802512776604297_">
					<path id="path2323_00000000213211265786193390000017713692682737992085_" class="st2" d="M72.9,17.4l1.7,17.2h-1.7
						c-2.1-5.1-5.1-8.9-9.1-11.1s-8.6-3.4-14.2-3.4c-4.6,0-8.8,0.9-12.5,2.6c-3.7,1.7-6.7,4.4-8.8,8.1c-2.1,3.7-3.2,8.4-3.2,13.9
						c0,4.6,1,8.5,3,11.9c2,3.3,5.1,5.9,9.1,7.7c4.1,1.8,8.7,2.7,13.9,2.7c4.5,0,8.5-0.7,12-2.1c3.5-1.4,7.3-4.2,11.4-8.3l1.6,0.8
						c-3.5,4.5-7.6,7.7-12.3,9.8c-4.7,2.1-10.2,3.1-16.6,3.1c-11.6,0-20.5-3.1-26.9-9.3c-4.7-4.6-7.1-10.1-7.1-16.3
						c0-5,1.6-9.7,4.7-13.9c3.1-4.2,7.4-7.5,12.8-9.8c5.5-2.3,11.4-3.5,17.9-3.5c5,0,10,0.9,14.9,2.7c1.4,0.5,2.5,0.8,3.1,0.8
						c0.9,0,1.7-0.2,2.4-0.7c0.9-0.7,1.5-1.6,1.9-2.8H72.9z"/>
					<path id="path2325_00000055691664695197168140000001353044319020086200_" class="st2" d="M101.7,45.4v14.8
						c0,3.2,0.5,5.2,1.4,5.9c1.3,1.1,3.3,1.6,5.9,1.6h2.7v1.4h-30v-1.4h2.6c3,0,5.1-0.7,6.4-2.1c0.7-0.8,1-2.6,1-5.5V27.5
						c0-3.2-0.5-5.1-1.4-5.9c-1.3-1.1-3.3-1.6-6-1.6h-2.6v-1.4h25.5c6.2,0,11.2,0.5,14.7,1.4c3.6,0.9,6.6,2.5,9.1,4.7
						c2.5,2.2,3.7,4.8,3.7,7.9c0,4.1-1.9,7.5-5.6,10.1c-3.7,2.6-9,3.9-15.9,3.9c-1.7,0-3.5-0.1-5.4-0.3
						C106,46,103.9,45.8,101.7,45.4z M101.7,43.3c1.8,0.3,3.4,0.4,4.8,0.6c1.4,0.1,2.6,0.2,3.6,0.2c3.5,0,6.6-1,9.1-3
						s3.8-4.6,3.8-7.8c0-2.2-0.6-4.2-1.8-6.1c-1.2-1.9-3-3.3-5.2-4.2c-2.2-0.9-4.8-1.4-7.6-1.4c-1.7,0-4,0.2-6.7,0.7L101.7,43.3
						C101.7,43.3,101.7,43.3,101.7,43.3z"/>
					<path id="path2327_00000052084056284512704310000004367430506940487586_" class="st2" d="M190.8,18.5l0.7,11.1h-1.9
						c-1.1-3.6-2.8-5.9-5.1-6.9c-2.3-1-6.3-1.5-12.2-1.5h-11.8v20h2.8c8.6,0,14.9,0.4,18.9,1.2c4,0.8,7.3,2.3,9.8,4.5
						c2.5,2.2,3.8,4.9,3.8,8c0,3.8-1.9,7.1-5.8,9.9c-3.9,2.8-10.5,4.3-19.9,4.3h-29.6v-1.4c4.3-0.1,7.1-0.6,8.2-1.5
						c1.2-0.9,1.8-3,1.8-6.4V27.8c0-2.6-0.2-4.3-0.7-5.2c-0.5-0.9-1.3-1.5-2.5-1.9c-1.1-0.4-3.2-0.6-6.3-0.7v-1.4
						C141.2,18.5,190.8,18.5,190.8,18.5z M160.6,66.1c3,0.3,5.4,0.5,7.1,0.5c4.3,0,8.1-1,11.5-3.1c3.4-2,5.2-4.9,5.2-8.5
						c0-3.7-1.8-6.5-5.4-8.3c-3.6-1.8-8.2-2.7-13.7-2.7c-1.6,0-3.1,0.1-4.7,0.3V66.1z"/>
					<path id="path2329_00000101064107816415877620000000365631452224230335_" class="st2" d="M253.9,26.9c0-3-0.7-4.9-2-5.7
						c-1.4-0.8-4.1-1.2-8.3-1.2v-1.4h30.3v1.4c-4.3,0.1-7.1,0.6-8.3,1.5c-1.2,0.9-1.8,3-1.8,6.4v32.1c0,3.3,0.6,5.5,1.8,6.4
						c1.2,0.9,3.9,1.4,8.3,1.5v1.4h-30.3v-1.4c4.5-0.1,7.3-0.6,8.5-1.5c1.2-0.9,1.8-3,1.8-6.3v-29L221.3,61c0,2.2,0.2,3.6,0.6,4.3
						c0.4,0.7,1.2,1.3,2.5,1.7c1.3,0.4,3.6,0.7,7,0.7v1.4h-30v-1.4c4.3-0.1,7.1-0.6,8.2-1.5c1.2-0.9,1.8-3,1.8-6.4V27.8
						c0-3.3-0.6-5.5-1.8-6.4c-1.2-0.9-3.9-1.4-8.2-1.5v-1.4h30v1.4c-4.3,0.1-7.1,0.6-8.3,1.5c-1.2,0.9-1.8,3-1.8,6.4v29.1
						L253.9,26.9z"/>
					<path id="path2331_00000093167735104238166080000011531283094924324261_" class="st2" d="M286.3,19.9v-1.4h30v1.4h-2.5
						c-2.9,0-5,0.6-6.3,1.8c-0.8,0.8-1.2,2.7-1.2,5.7v24.7c0,3.8-0.6,6.9-1.7,9.2c-1.2,2.4-3.1,4.4-6,6.2c-2.8,1.8-6.2,2.6-10.2,2.6
						c-3.2,0-5.8-0.6-7.6-1.7c-1.9-1.2-2.8-2.5-2.8-4c0-1.2,0.4-2.1,1.3-2.8c1.1-0.8,2.5-1.2,4-1.2c1.1,0,2.1,0.3,3,0.8
						c0.9,0.5,2,1.9,3.3,4.2c0.8,1.3,1.8,2,3.1,2c0.9,0,1.8-0.4,2.6-1.2c0.8-0.8,1.2-2.3,1.2-4.4V27.5c0-2.6-0.2-4.2-0.7-5.1
						c-0.3-0.6-1.1-1.1-2.2-1.6c-1.5-0.6-3-0.9-4.7-0.9L286.3,19.9L286.3,19.9z"/>
					<path id="path2333_00000043455520318370113480000000648176200057599116_" class="st2" d="M365.5,52.2h-27.4l-4.8,8
						c-1.2,2-1.8,3.4-1.8,4.4c0,0.8,0.5,1.4,1.5,2c1,0.6,3.2,1,6.6,1.1v1.4h-22.1v-1.4c2.9-0.4,4.8-0.9,5.7-1.5
						c1.7-1.2,3.7-3.6,5.8-7.3l25-41.5h1.7l24.4,42.1c2,3.4,3.7,5.6,5.3,6.6c1.6,1,3.8,1.6,6.7,1.7v1.4h-27.6v-1.4
						c2.8-0.1,4.7-0.4,5.7-1c1-0.6,1.5-1.3,1.5-2.1c0-1.1-0.7-2.8-2.1-5.2L365.5,52.2z M363.9,49.4L352.1,29l-12.3,20.4H363.9z"/>
				</g>
				<g id="g2335_00000049197113346471754240000007529757223589477288_">
					<path id="path2337_00000088852537822762300870000015657158428633100465_" class="st0" d="M203.7,224.1
						c-42.8,0-77.7,34.8-77.7,77.7c0,42.8,34.8,77.7,77.7,77.7s77.7-34.9,77.7-77.7C281.4,259,246.5,224.1,203.7,224.1z"/>
				</g>
				<g id="g2339_00000039838845534128834900000017783240733253382833_">
					<path id="polygon2341_00000029003193205964778130000002434602563591355551_" class="st5" d="M273.7,311L273.7,311L273.7,311z"
						/>
					<path id="path2343_00000138541382154021423390000012047308435468221094_" class="st3" d="M151.3,256.3
						c24.5-29,68.1-32.6,97.1-8.1c29,24.5,32.6,68.1,8.1,97.1c-24.5,29-68.1,32.6-97.1,8.1C130.4,328.9,126.7,285.3,151.3,256.3
						L151.3,256.3z"/>
					<path id="path2345_00000015345999648723080510000010494120716321449375_" class="st0" d="M168,299
						c-0.9-1.3-13.1-17.8-13.8-18.8c1.4-3.1,7.5-16.8,12.9-23.9l-0.6,0.2c0.2-0.1,17.4-8.3,26.6-5c0.5,0.7,12.1,16.6,12.8,17.7
						c-0.6,1.2-10.6,22.2-11.5,24.2C188.3,293.3,173.7,297.2,168,299L168,299z"/>
					<path id="path2347_00000111189807106336202930000007846656028546275748_" class="st0" d="M166.4,300.9c0,0.1,0,0.1,0,0.1
						c-2.7,12.7-2.2,26.1-2.1,28c-6.5,3.4-12,4.5-13.1,4.7c-0.2-0.1-0.8-0.5-1.6-1.1c-2.8-2-5.3-4.7-7.5-7.4
						c-4.6-11.7-5.7-24.5-3.4-36.8c5.7-3,12.1-5.5,13.9-6.3C153.5,283.4,166,300.3,166.4,300.9L166.4,300.9z"/>
					<path id="path2349_00000042698188621622276050000009637148169607741626_" class="st0" d="M166,330.8c8.7,4.3,22.4,9.2,24.5,9.9
						c1,1.8,7.5,13.3,10.1,19.1c-1.2,0.5-11.4,4.8-11.9,5c-1.5-0.1-3-0.2-4.5-0.4c-8.3-2.6-16.3-6.8-23.4-12.8c-1-0.9-2-1.8-3-2.8
						c-2.1-3.6-4.2-7.9-6.4-12.7C152.6,335.9,158.7,334.6,166,330.8L166,330.8z"/>
					<path id="path2351_00000014600224468080499140000002437619198376434084_" class="st0" d="M230,361.8c-0.1-1.1-0.2-2.3-0.2-2.5
						c3.8-2.7,8.9-6.7,13.2-11.8c1.9-2.3,3.6-4.8,5-7.5c0.3-0.2,15.3-12.4,17.3-14.1c-2.6,6.3-6.1,12.3-10.8,17.8
						C247.7,351.9,239.3,357.9,230,361.8L230,361.8z"/>
					<path id="path2353_00000067917331386781647530000011236574559178640303_" class="st0" d="M236.2,247
						c-7.6-5.1-18.5-8.6-22.6-9.8c0.3-0.8,0.6-1.8,0.6-1.8s0-0.1,0-0.3c11.7,1.8,23,6.7,32.7,14.8c0.2,0.1,0.3,0.3,0.4,0.4l-5.2-2
						C242.1,248.5,236.7,247.1,236.2,247L236.2,247z"/>
					<path id="path2355_00000018947975842109986670000002730094483047766152_" class="st0" d="M211.1,237
						c-8.4,2.9-18.3,11.3-18.7,11.7c0,0-0.1,0.1-0.2,0.2c-9.3-2-22.9,3.8-25.9,5.2c-0.6-0.6-3-2.8-4.8-4.4
						c14.3-11.9,32.6-17,50.4-14.9l0,0C211.8,234.8,211.3,236.2,211.1,237L211.1,237z"/>
					<path id="path2357_00000096749546896172194130000008255778240589135011_" class="st0" d="M210.2,317.2
						c-0.8-1.3-13.2-21.3-13.8-22.3c0.5-1.1,10.8-22.8,11.7-24.4c0.8,0,25.7-0.5,27-0.5l1,1.6c3,5.1,12,20.2,13.1,22.1
						c0,0,0,0.1,0,0.1c-1.8,7.2-9,22-10.3,24.6C230.2,319.8,213.3,317.7,210.2,317.2L210.2,317.2z"/>
					<path id="path2359_00000076596925562028480570000001988839909168352392_" class="st0" d="M251.7,293.3
						c-0.1-0.2-0.8-1.4-1.9-3.2l-12.1-20.5c0-0.3,0.1-14,0.1-19.8l3.6,0.9c0,0,3.5,1.3,5.7,2.2c0.8,0.3,1.6,0.6,2.4,1l2.8,1.4
						c10.6,11.3,16.6,25.5,17.8,40.2c-2.1,0.5-5.3,1.3-5.6,1.4C262.2,296.5,258.1,295.6,251.7,293.3L251.7,293.3z"/>
					<path id="path2361_00000010995170772096036980000016214177237923157891_" class="st0" d="M238.9,348.5
						c-0.4,0.5-0.9,0.9-1.3,1.3c-0.2,0.2-0.5,0.5-0.7,0.7c-0.4,0.4-0.8,0.7-1.1,1.1c-0.3,0.3-0.7,0.6-1,0.9
						c-0.3,0.2-0.6,0.5-0.9,0.7c-0.4,0.4-0.9,0.7-1.3,1.1c-0.2,0.1-0.3,0.3-0.5,0.4c-0.6,0.4-1.1,0.9-1.6,1.3c0,0-0.1,0-0.1,0.1
						c-1.1,0.8-2.2,1.6-3.1,2.2c-8.7,1.7-19.3,3-23.9,1.6c-2.2-5.2-8.8-17-10.5-20c1-1.2,16.3-19.3,17.1-20.2
						c3.1,0.4,19.8,2.5,29,1.2c0.6,1.4,7.3,15.8,7.7,16.8c-1.4,3-3.2,5.8-5.4,8.3c-0.6,0.7-1.2,1.4-1.8,2
						C239.3,348.2,239.1,348.4,238.9,348.5L238.9,348.5z"/>
					<path id="path2363_00000013166702301775720350000005988682105094043044_" class="st0" d="M270.2,297.9
						c0.4,8.1-0.7,16.3-3.3,24.1c-0.1-4.7-0.4-17.8-0.5-23.1L270.2,297.9L270.2,297.9z"/>
				</g>
			</g>
		</g>
	</g>
</g>
</svg>
