<?xml version="1.0" encoding="utf-8"?>
<!-- Generator: Adobe Illustrator 26.0.2, SVG Export Plug-In . SVG Version: 6.00 Build 0)  -->
<svg version="1.1"
	 id="svg2" xmlns:cc="http://creativecommons.org/ns#" xmlns:dc="http://purl.org/dc/elements/1.1/" xmlns:inkscape="http://www.inkscape.org/namespaces/inkscape" xmlns:rdf="http://www.w3.org/1999/02/22-rdf-syntax-ns#" xmlns:sodipodi="http://sodipodi.sourceforge.net/DTD/sodipodi-0.dtd" xmlns:svg="http://www.w3.org/2000/svg"
	 xmlns="http://www.w3.org/2000/svg" xmlns:xlink="http://www.w3.org/1999/xlink" x="0px" y="0px" width="451px" height="600px"
	 viewBox="0 0 451 600" style="enable-background:new 0 0 451 600;" xml:space="preserve">
<style type="text/css">
	.st0{clip-path:url(#SVGID_00000139984876312403255130000004935706136624945333_);}
	.st1{fill:#133578;}
	.st2{clip-path:url(#SVGID_00000041991606120212319110000003533664612399923604_);}
	.st3{fill:#FFFFFF;}
	.st4{fill:url(#path34689_00000031908648424659079100000012007476191740834475_);}
	.st5{fill:#FFCF21;}
</style>
<sodipodi:namedview  bordercolor="#666666" borderopacity="1" gridtolerance="10" guidetolerance="10" id="namedview39" inkscape:current-layer="svg2" inkscape:cx="291.6207" inkscape:cy="186.12517" inkscape:pageopacity="0" inkscape:pageshadow="2" inkscape:window-height="691" inkscape:window-maximized="1" inkscape:window-width="1280" inkscape:window-x="0" inkscape:window-y="1" inkscape:zoom="0.44567045" objecttolerance="10" pagecolor="#ffffff" showgrid="false">
	</sodipodi:namedview>
<g id="g4511" transform="translate(41.499816,59.009314)">
	<g id="g12" transform="matrix(1.25,0,0,-1.25,-112.15685,608.60339)">
	</g>
	<g id="g410" transform="matrix(1.25,0,0,-1.25,-112.15685,608.60339)">
	</g>
	<g id="g4504">
		<g>
			<defs>
				<polygon id="SVGID_1_" points="-41.5,541 409.5,541 409.5,-59 -41.5,-59 -41.5,541 				"/>
			</defs>
			<clipPath id="SVGID_00000034049813757265659270000010935322895550562974_">
				<use xlink:href="#SVGID_1_"  style="overflow:visible;"/>
			</clipPath>
			
				<g id="g34203" transform="matrix(18.16954,0,0,-18.16954,-824.98855,10048.257)" style="clip-path:url(#SVGID_00000034049813757265659270000010935322895550562974_);">
				<path id="path34205" inkscape:connector-curvature="0" sodipodi:nodetypes="ccccccscccccccccccccccccc" class="st1" d="
					M66.9,552.7l-0.1,0.4l-0.1,0.4l-0.3,0.2l-0.4,0.2c-1.6,0.8-3.3,1.4-5.1,1.8c-1.9,0.5-3.7,0.7-5.4,0.7c-1.7,0-3.5-0.2-5.4-0.7
					c-1.7-0.4-3.3-1-5-1.7l-0.4-0.2l-0.4-0.2l-0.1-0.4l-0.1-0.4c-0.5-1.9-0.9-3.9-1-5.9c-0.2-3.7,0.1-7.1,1.1-10.2
					c0.7-2.4,1.8-4.5,3.1-6.4c1.9-2.7,4.4-4.8,7.3-6.5l0.4-0.2l0.4-0.2l0.4,0.2l0.4,0.2c3,1.6,5.4,3.8,7.3,6.5
					c1.3,1.9,2.4,4,3.1,6.4c1,3.1,1.3,6.5,1.1,10.2C67.8,548.8,67.4,550.8,66.9,552.7"/>
			</g>
		</g>
		<g>
			<defs>
				<polygon id="SVGID_00000048496884458204102340000009285650490662944920_" points="-33.1,531.5 401,531.5 401,-49.5 -33.1,-49.5 
					-33.1,531.5 				"/>
			</defs>
			<clipPath id="SVGID_00000027562201607667888390000014275951740123514011_">
				<use xlink:href="#SVGID_00000048496884458204102340000009285650490662944920_"  style="overflow:visible;"/>
			</clipPath>
			
				<g id="g34611" transform="matrix(17.489355,0,0,-17.591994,-787.21689,9736.5179)" style="clip-path:url(#SVGID_00000027562201607667888390000014275951740123514011_);">
				<path id="path34613" inkscape:connector-curvature="0" sodipodi:nodetypes="ccccccscccccccccccccccccc" class="st3" d="
					M66.9,552.7l-0.1,0.4l-0.1,0.4l-0.3,0.2l-0.4,0.2c-1.6,0.8-3.3,1.4-5.1,1.8c-1.9,0.5-3.7,0.7-5.4,0.7c-1.7,0-3.5-0.2-5.4-0.7
					c-1.7-0.4-3.3-1-5-1.7l-0.4-0.2l-0.4-0.2l-0.1-0.4l-0.1-0.4c-0.5-1.9-0.9-3.9-1-5.9c-0.2-3.7,0.1-7.1,1.1-10.2
					c0.7-2.4,1.8-4.5,3.1-6.4c1.9-2.7,4.4-4.8,7.3-6.5l0.4-0.2l0.4-0.2l0.4,0.2l0.4,0.2c3,1.6,5.4,3.8,7.3,6.5
					c1.3,1.9,2.4,4,3.1,6.4c1,3.1,1.3,6.5,1.1,10.2C67.8,548.8,67.4,550.8,66.9,552.7"/>
			</g>
		</g>
		
			<radialGradient id="path34689_00000078023901344912856670000001828511531195944358_" cx="-81.3255" cy="87.6483" r="10.7797" gradientTransform="matrix(-9.445206e-07 40.4142 -24.8364 -6.390143e-07 2362.1289 3376.9231)" gradientUnits="userSpaceOnUse">
			<stop  offset="0" style="stop-color:#004F9E"/>
			<stop  offset="1" style="stop-color:#11367A"/>
		</radialGradient>
		
			<path id="path34689" inkscape:connector-curvature="0" style="fill:url(#path34689_00000078023901344912856670000001828511531195944358_);" d="
			M8.1,289.8c12.5,40,30.3,76.3,52.9,108.1c31.8,44.8,73.2,81.4,123,108.8c49.9-27.4,91.2-64,123-108.8
			c22.5-31.8,40.3-68.1,52.9-108.1c16.4-52.2,22.7-110.9,18.8-174.3C376.6,81,371,47.1,362,14.7l-0.3-1.2l-0.5-0.3
			C304.9-13.5,240.4-28.8,184-28.8c-52.4,0-117,15.3-177.1,42.1l-0.5,0.2L6,14.7C-3,47.1-8.7,81-10.8,115.5
			C-14.6,178.9-8.3,237.5,8.1,289.8"/>
	</g>
	<g id="g4455">
		<g id="g32907" transform="matrix(1.25,0,0,-1.25,-95.400936,512.25762)">
			<path id="path674" inkscape:connector-curvature="0" class="st3" d="M92.5,301.8h9.7v-2.1h-7.4v-3.6h6.6v-2.1h-6.6v-5.3h-2.3
				V301.8L92.5,301.8z"/>
			<path id="path676" inkscape:connector-curvature="0" class="st3" d="M119.3,290.6c0.6,0,1.2,0.1,1.8,0.4c0.5,0.2,1,0.6,1.4,1
				c0.4,0.4,0.7,0.9,0.9,1.5c0.2,0.6,0.3,1.2,0.3,1.8v0c0,0.6-0.1,1.2-0.3,1.8c-0.2,0.6-0.5,1.1-0.9,1.5c-0.4,0.4-0.9,0.8-1.4,1
				c-0.5,0.2-1.1,0.4-1.8,0.4c-0.6,0-1.2-0.1-1.8-0.4c-0.5-0.2-1-0.6-1.4-1c-0.4-0.4-0.7-0.9-0.9-1.5c-0.2-0.6-0.3-1.2-0.3-1.8v0
				c0-0.6,0.1-1.2,0.3-1.8c0.2-0.6,0.5-1.1,0.9-1.5c0.4-0.4,0.9-0.7,1.4-1C118.1,290.8,118.6,290.6,119.3,290.6 M119.2,288.5
				c-1,0-1.9,0.2-2.8,0.5c-0.8,0.4-1.5,0.8-2.1,1.5c-0.6,0.6-1.1,1.3-1.4,2.1s-0.5,1.7-0.5,2.6v0c0,0.9,0.2,1.8,0.5,2.6
				s0.8,1.5,1.4,2.2c0.6,0.6,1.3,1.1,2.2,1.5c0.8,0.4,1.8,0.5,2.8,0.5c1,0,1.9-0.2,2.8-0.5c0.8-0.3,1.6-0.8,2.2-1.4s1.1-1.3,1.4-2.1
				c0.3-0.8,0.5-1.7,0.5-2.6v0c0-0.9-0.2-1.8-0.5-2.6c-0.3-0.8-0.8-1.5-1.4-2.2c-0.6-0.6-1.3-1.1-2.2-1.5
				C121.2,288.7,120.3,288.5,119.2,288.5"/>
			<path id="path678" inkscape:connector-curvature="0" class="st3" d="M143.4,290.6c0.6,0,1.2,0.1,1.8,0.4s1,0.6,1.4,1
				c0.4,0.4,0.7,0.9,0.9,1.5c0.2,0.6,0.3,1.2,0.3,1.8v0c0,0.6-0.1,1.2-0.3,1.8c-0.2,0.6-0.5,1.1-0.9,1.5c-0.4,0.4-0.9,0.8-1.4,1
				c-0.5,0.2-1.1,0.4-1.8,0.4c-0.7,0-1.3-0.1-1.8-0.4s-1-0.6-1.4-1c-0.4-0.4-0.7-0.9-0.9-1.5c-0.2-0.6-0.3-1.2-0.3-1.8v0
				c0-0.6,0.1-1.2,0.3-1.8c0.2-0.6,0.5-1.1,0.9-1.5c0.4-0.4,0.9-0.7,1.4-1C142.2,290.8,142.8,290.6,143.4,290.6 M143.4,288.5
				c-1,0-1.9,0.2-2.8,0.5c-0.8,0.4-1.5,0.8-2.1,1.5c-0.6,0.6-1.1,1.3-1.4,2.1s-0.5,1.7-0.5,2.6v0c0,0.9,0.2,1.8,0.5,2.6
				s0.8,1.5,1.4,2.2c0.6,0.6,1.3,1.1,2.2,1.5c0.8,0.4,1.8,0.5,2.8,0.5c1,0,1.9-0.2,2.8-0.5c0.8-0.3,1.6-0.8,2.2-1.4s1.1-1.3,1.4-2.1
				s0.5-1.7,0.5-2.6v0c0-0.9-0.2-1.8-0.5-2.6c-0.3-0.8-0.8-1.5-1.4-2.2c-0.6-0.6-1.3-1.1-2.2-1.5
				C145.3,288.7,144.4,288.5,143.4,288.5"/>
			<path id="path680" inkscape:connector-curvature="0" class="st3" d="M164.5,299.7h-4.1v2.1H171v-2.1h-4.1v-10.9h-2.3L164.5,299.7
				L164.5,299.7z"/>
			<path id="path682" inkscape:connector-curvature="0" class="st3" d="M187.8,290.8c0.8,0,1.4,0.1,1.8,0.5c0.5,0.3,0.7,0.7,0.7,1.3
				v0c0,0.6-0.2,1-0.7,1.3c-0.4,0.3-1.1,0.5-2,0.5H184v-3.6L187.8,290.8L187.8,290.8z M187.1,296.3c0.7,0,1.3,0.1,1.8,0.4
				c0.4,0.3,0.7,0.7,0.7,1.3v0c0,0.5-0.2,0.9-0.6,1.2c-0.4,0.3-1,0.4-1.7,0.4H184v-3.5L187.1,296.3L187.1,296.3z M181.7,301.8h5.9
				c1.5,0,2.6-0.4,3.4-1.1c0.6-0.6,0.9-1.3,0.9-2.2v0c0-0.4-0.1-0.7-0.2-1.1c-0.1-0.3-0.2-0.6-0.4-0.8c-0.2-0.2-0.4-0.4-0.6-0.6
				s-0.5-0.3-0.7-0.4c0.4-0.1,0.7-0.3,1-0.5c0.3-0.2,0.6-0.4,0.8-0.7c0.2-0.2,0.4-0.5,0.5-0.9c0.1-0.3,0.2-0.7,0.2-1.2v0
				c0-0.6-0.1-1.1-0.3-1.6s-0.6-0.8-1-1.1c-0.4-0.3-0.9-0.5-1.5-0.7c-0.6-0.2-1.3-0.2-2-0.2h-6V301.8z"/>
			<path id="path684" inkscape:connector-curvature="0" class="st3" d="M211.4,293.9l-2.3,5.2l-2.2-5.2H211.4L211.4,293.9z
				 M208.1,301.9h2.1l5.8-13.2h-2.4l-1.3,3.2H206l-1.3-3.2h-2.4L208.1,301.9L208.1,301.9z"/>
			<path id="path686" inkscape:connector-curvature="0" class="st3" d="M226.5,301.8h2.3v-11h6.9v-2.1h-9.2V301.8z"/>
			<path id="path688" inkscape:connector-curvature="0" class="st3" d="M246.3,301.8h2.3v-11h6.9v-2.1h-9.2V301.8z"/>
			<path id="path690" inkscape:connector-curvature="0" class="st3" d="M286.1,288.5c-1,0-1.8,0.2-2.6,0.5c-0.8,0.3-1.5,0.8-2.1,1.4
				c-0.6,0.6-1.1,1.3-1.4,2.1c-0.3,0.8-0.5,1.7-0.5,2.6v0c0,0.9,0.2,1.8,0.5,2.6c0.3,0.8,0.8,1.5,1.4,2.1c0.6,0.6,1.3,1.1,2.1,1.5
				c0.8,0.3,1.7,0.5,2.7,0.5c0.6,0,1.1,0,1.6-0.1c0.5-0.1,0.9-0.2,1.4-0.4c0.4-0.2,0.8-0.4,1.1-0.6c0.3-0.2,0.7-0.5,1-0.8l-1.5-1.7
				c-0.5,0.5-1.1,0.9-1.7,1.2c-0.6,0.3-1.3,0.5-2,0.5c-0.6,0-1.2-0.1-1.7-0.4c-0.5-0.2-1-0.6-1.4-1c-0.4-0.4-0.7-0.9-0.9-1.5
				c-0.2-0.6-0.3-1.2-0.3-1.8v0c0-0.6,0.1-1.2,0.3-1.8c0.2-0.6,0.5-1.1,0.9-1.5c0.4-0.4,0.8-0.8,1.4-1c0.5-0.2,1.1-0.4,1.7-0.4
				c0.8,0,1.5,0.2,2,0.5c0.6,0.3,1.1,0.7,1.7,1.2l1.5-1.5c-0.3-0.4-0.7-0.7-1.1-1c-0.4-0.3-0.8-0.5-1.2-0.7s-0.9-0.4-1.4-0.5
				S286.7,288.5,286.1,288.5"/>
			<path id="path692" inkscape:connector-curvature="0" class="st3" d="M302.1,301.8h2.3v-11h6.9v-2.1h-9.2V301.8z"/>
			<path id="path694" inkscape:connector-curvature="0" class="st3" d="M327.3,288.5c-0.8,0-1.6,0.1-2.3,0.4
				c-0.7,0.2-1.3,0.6-1.8,1.1c-0.5,0.5-0.9,1.1-1.1,1.8c-0.3,0.7-0.4,1.6-0.4,2.5v7.5h2.3v-7.4c0-1.2,0.3-2.2,0.9-2.8
				c0.6-0.6,1.4-1,2.4-1c1,0,1.8,0.3,2.4,0.9c0.6,0.6,0.9,1.5,0.9,2.7v7.5h2.3v-7.4c0-1-0.1-1.8-0.4-2.6c-0.3-0.7-0.6-1.3-1.1-1.8
				c-0.5-0.5-1.1-0.9-1.8-1.1S328.1,288.5,327.3,288.5"/>
			<path id="path696" inkscape:connector-curvature="0" class="st3" d="M350.4,290.8c0.8,0,1.4,0.1,1.8,0.5c0.5,0.3,0.7,0.7,0.7,1.3
				v0c0,0.6-0.2,1-0.7,1.3c-0.4,0.3-1.1,0.5-2,0.5h-3.6v-3.6L350.4,290.8L350.4,290.8z M349.7,296.3c0.7,0,1.3,0.1,1.8,0.4
				c0.4,0.3,0.7,0.7,0.7,1.3v0c0,0.5-0.2,0.9-0.6,1.2c-0.4,0.3-1,0.4-1.7,0.4h-3.3v-3.5L349.7,296.3L349.7,296.3z M344.3,301.8h5.9
				c1.5,0,2.6-0.4,3.4-1.1c0.6-0.6,0.9-1.3,0.9-2.2v0c0-0.4-0.1-0.7-0.2-1.1c-0.1-0.3-0.2-0.6-0.4-0.8c-0.2-0.2-0.4-0.4-0.6-0.6
				s-0.5-0.3-0.7-0.4c0.4-0.1,0.7-0.3,1-0.5c0.3-0.2,0.6-0.4,0.8-0.7c0.2-0.2,0.4-0.5,0.5-0.9c0.1-0.3,0.2-0.7,0.2-1.2v0
				c0-0.6-0.1-1.1-0.3-1.6c-0.2-0.5-0.6-0.8-1-1.1c-0.4-0.3-0.9-0.5-1.5-0.7s-1.3-0.2-2-0.2h-6V301.8z"/>
			<path id="path698" inkscape:connector-curvature="0" class="st3" d="M97.1,267.1c-1,0-2,0.2-2.9,0.5c-0.9,0.3-1.8,0.9-2.6,1.6
				l1.4,1.6c0.6-0.6,1.3-1,1.9-1.3c0.7-0.3,1.4-0.4,2.2-0.4c0.7,0,1.3,0.1,1.7,0.5c0.4,0.3,0.6,0.7,0.6,1.2v0c0,0.2,0,0.4-0.1,0.6
				c-0.1,0.2-0.2,0.3-0.5,0.5c-0.2,0.2-0.5,0.3-0.9,0.5c-0.4,0.1-0.9,0.3-1.5,0.4c-0.7,0.2-1.3,0.3-1.9,0.6c-0.5,0.2-1,0.5-1.4,0.7
				c-0.4,0.3-0.6,0.7-0.8,1.1c-0.2,0.4-0.3,0.9-0.3,1.5v0c0,0.6,0.1,1.1,0.3,1.5c0.2,0.5,0.5,0.9,0.9,1.2c0.4,0.3,0.9,0.6,1.4,0.8
				c0.6,0.2,1.1,0.3,1.8,0.3c1,0,1.8-0.1,2.6-0.4s1.5-0.7,2.2-1.2l-1.2-1.7c-0.6,0.4-1.2,0.8-1.8,1s-1.2,0.3-1.8,0.3
				c-0.7,0-1.2-0.1-1.6-0.5c-0.4-0.3-0.6-0.7-0.6-1.1v0c0-0.2,0-0.5,0.1-0.7c0.1-0.2,0.2-0.4,0.5-0.5s0.6-0.3,1-0.4s0.9-0.3,1.5-0.4
				c0.7-0.2,1.3-0.4,1.8-0.6c0.5-0.2,1-0.5,1.3-0.8c0.3-0.3,0.6-0.7,0.8-1.1c0.2-0.4,0.3-0.9,0.3-1.4v0c0-0.6-0.1-1.1-0.3-1.6
				c-0.2-0.5-0.5-0.9-0.9-1.2s-0.9-0.6-1.5-0.8C98.4,267.2,97.8,267.1,97.1,267.1"/>
			<path id="path700" inkscape:connector-curvature="0" class="st3" d="M111.5,269.2c0.6,0,1.2,0.1,1.8,0.4c0.5,0.2,1,0.6,1.4,1
				c0.4,0.4,0.7,0.9,0.9,1.5c0.2,0.6,0.3,1.2,0.3,1.8v0c0,0.6-0.1,1.2-0.3,1.8c-0.2,0.6-0.5,1.1-0.9,1.5c-0.4,0.4-0.9,0.8-1.4,1
				c-0.5,0.2-1.1,0.4-1.8,0.4c-0.6,0-1.2-0.1-1.8-0.4c-0.5-0.2-1-0.6-1.4-1c-0.4-0.4-0.7-0.9-0.9-1.5c-0.2-0.6-0.3-1.2-0.3-1.8v0
				c0-0.6,0.1-1.2,0.3-1.8c0.2-0.6,0.5-1.1,0.9-1.5c0.4-0.4,0.9-0.7,1.4-1C110.3,269.3,110.9,269.2,111.5,269.2 M111.5,267.1
				c-1,0-1.9,0.2-2.8,0.5c-0.8,0.4-1.5,0.8-2.1,1.5c-0.6,0.6-1.1,1.3-1.4,2.1s-0.5,1.7-0.5,2.6v0c0,0.9,0.2,1.8,0.5,2.6
				s0.8,1.5,1.4,2.2c0.6,0.6,1.3,1.1,2.2,1.5s1.8,0.5,2.8,0.5s1.9-0.2,2.8-0.5c0.8-0.3,1.6-0.8,2.2-1.4c0.6-0.6,1.1-1.3,1.4-2.1
				c0.3-0.8,0.5-1.7,0.5-2.6v0c0-0.9-0.2-1.8-0.5-2.6c-0.3-0.8-0.8-1.5-1.4-2.2c-0.6-0.6-1.3-1.1-2.2-1.5
				C113.4,267.3,112.5,267.1,111.5,267.1"/>
			<path id="path702" inkscape:connector-curvature="0" class="st3" d="M128,267.1c-1,0-1.8,0.2-2.6,0.5c-0.8,0.3-1.5,0.8-2.1,1.4
				c-0.6,0.6-1.1,1.3-1.4,2.1c-0.3,0.8-0.5,1.7-0.5,2.6v0c0,0.9,0.2,1.8,0.5,2.6c0.3,0.8,0.8,1.5,1.4,2.2c0.6,0.6,1.3,1.1,2.1,1.5
				c0.8,0.3,1.7,0.5,2.7,0.5c0.6,0,1.1,0,1.6-0.1s0.9-0.2,1.4-0.4c0.4-0.2,0.8-0.4,1.1-0.6c0.3-0.2,0.7-0.5,1-0.8l-1.5-1.7
				c-0.5,0.5-1.1,0.9-1.7,1.2c-0.6,0.3-1.3,0.5-2,0.5c-0.6,0-1.2-0.1-1.7-0.4c-0.5-0.2-1-0.6-1.4-1c-0.4-0.4-0.7-0.9-0.9-1.5
				c-0.2-0.6-0.3-1.2-0.3-1.8v0c0-0.6,0.1-1.2,0.3-1.8c0.2-0.6,0.5-1.1,0.9-1.5c0.4-0.4,0.8-0.8,1.4-1c0.5-0.2,1.1-0.4,1.7-0.4
				c0.8,0,1.5,0.2,2,0.5c0.6,0.3,1.1,0.7,1.7,1.2l1.5-1.5c-0.3-0.3-0.7-0.7-1.1-1c-0.4-0.3-0.8-0.5-1.2-0.7s-0.9-0.4-1.4-0.5
				S128.6,267.1,128,267.1"/>
			<path id="path704" inkscape:connector-curvature="0" class="st3" d="M136.5,280.4h2.3v-5.4h6.3v5.4h2.3v-13.1h-2.3v5.5h-6.3v-5.5
				h-2.3V280.4z"/>
			<path id="path706" inkscape:connector-curvature="0" class="st3" d="M159.4,272.5l-2.3,5.2l-2.2-5.2H159.4z M156.1,280.5h2.1
				l5.8-13.2h-2.4l-1.3,3.2h-6.2l-1.3-3.2h-2.4L156.1,280.5L156.1,280.5z"/>
			<path id="path708" inkscape:connector-curvature="0" class="st3" d="M172.4,267.1c-0.8,0-1.6,0.1-2.3,0.4
				c-0.7,0.2-1.3,0.6-1.8,1.1c-0.5,0.5-0.9,1.1-1.1,1.8s-0.4,1.6-0.4,2.5v7.5h2.3v-7.4c0-1.2,0.3-2.2,0.9-2.8c0.6-0.6,1.4-1,2.4-1
				c1,0,1.8,0.3,2.4,0.9c0.6,0.6,0.9,1.5,0.9,2.7v7.5h2.3V273c0-1-0.1-1.8-0.4-2.5c-0.3-0.7-0.6-1.4-1.1-1.8
				c-0.5-0.5-1.1-0.9-1.8-1.1S173.3,267.1,172.4,267.1"/>
			<path id="path710" inkscape:connector-curvature="0" class="st3" d="M185.8,274l-4.6,6.4h2.7l3.2-4.7l3.3,4.7h2.6l-4.5-6.4
				l4.7-6.7h-2.7l-3.4,4.9l-3.4-4.9H181L185.8,274z"/>
			<path id="path712" inkscape:connector-curvature="0" class="st3" d="M195.8,271.9h5.5v2.2h-5.5V271.9z"/>
			<path id="path714" inkscape:connector-curvature="0" class="st3" d="M204.8,280.4h2.4l4-6.2l4,6.2h2.4v-13.1h-2.3v9.4l-4.1-6.2
				h-0.1l-4.1,6.1v-9.3h-2.3L204.8,280.4L204.8,280.4z"/>
			<path id="path716" inkscape:connector-curvature="0" class="st3" d="M228.1,269.2c0.6,0,1.2,0.1,1.8,0.4c0.5,0.2,1,0.6,1.4,1
				c0.4,0.4,0.7,0.9,0.9,1.5c0.2,0.6,0.3,1.2,0.3,1.8v0c0,0.6-0.1,1.2-0.3,1.8c-0.2,0.6-0.5,1.1-0.9,1.5c-0.4,0.4-0.9,0.8-1.4,1
				c-0.5,0.2-1.1,0.4-1.8,0.4c-0.6,0-1.2-0.1-1.8-0.4c-0.5-0.2-1-0.6-1.4-1c-0.4-0.4-0.7-0.9-0.9-1.5c-0.2-0.6-0.3-1.2-0.3-1.8v0
				c0-0.6,0.1-1.2,0.3-1.8s0.5-1.1,0.9-1.5c0.4-0.4,0.9-0.7,1.4-1C226.9,269.3,227.5,269.2,228.1,269.2 M228.1,267.1
				c-1,0-1.9,0.2-2.8,0.5c-0.8,0.4-1.5,0.8-2.1,1.5c-0.6,0.6-1.1,1.3-1.4,2.1s-0.5,1.7-0.5,2.6v0c0,0.9,0.2,1.8,0.5,2.6
				s0.8,1.5,1.4,2.2c0.6,0.6,1.3,1.1,2.2,1.5c0.8,0.4,1.8,0.5,2.8,0.5s1.9-0.2,2.8-0.5c0.8-0.3,1.6-0.8,2.2-1.4s1.1-1.3,1.4-2.1
				s0.5-1.7,0.5-2.6v0c0-0.9-0.2-1.8-0.5-2.6c-0.3-0.8-0.8-1.5-1.4-2.2c-0.6-0.6-1.3-1.1-2.2-1.5C230,267.3,229.1,267.1,228.1,267.1
				"/>
			<path id="path718" inkscape:connector-curvature="0" class="st3" d="M238.5,280.4h2.1l7-9v9h2.3v-13.1H248l-7.2,9.3v-9.3h-2.3
				V280.4z"/>
			<path id="path720" inkscape:connector-curvature="0" class="st3" d="M257.3,278.2h-4.1v2.1h10.6v-2.1h-4.2v-10.9h-2.3V278.2z"/>
			<path id="path722" inkscape:connector-curvature="0" class="st3" d="M273.1,269.3c0.8,0,1.4,0.1,1.8,0.5c0.5,0.3,0.7,0.7,0.7,1.3
				v0c0,0.6-0.2,1-0.7,1.3c-0.4,0.3-1.1,0.5-2,0.5h-3.6v-3.6L273.1,269.3L273.1,269.3z M272.4,274.9c0.7,0,1.3,0.1,1.8,0.5
				c0.4,0.3,0.7,0.7,0.7,1.3v0c0,0.5-0.2,0.9-0.6,1.2c-0.4,0.3-1,0.4-1.7,0.4h-3.3v-3.5H272.4z M267,280.4h5.9
				c1.5,0,2.6-0.4,3.4-1.1c0.6-0.6,0.9-1.3,0.9-2.2v0c0-0.4-0.1-0.7-0.2-1c-0.1-0.3-0.2-0.6-0.4-0.8c-0.2-0.2-0.4-0.4-0.6-0.6
				c-0.2-0.2-0.5-0.3-0.7-0.5c0.4-0.1,0.7-0.3,1-0.5c0.3-0.2,0.6-0.4,0.8-0.7c0.2-0.2,0.4-0.5,0.5-0.9c0.1-0.3,0.2-0.7,0.2-1.2v0
				c0-0.6-0.1-1.1-0.3-1.6c-0.2-0.5-0.6-0.8-1-1.1c-0.4-0.3-0.9-0.5-1.5-0.7c-0.6-0.2-1.3-0.2-2-0.2h-6V280.4L267,280.4z"/>
			<path id="path724" inkscape:connector-curvature="0" class="st3" d="M286.8,284.5l2-0.9l-2.3-2.2h-1.8L286.8,284.5z M281.3,280.4
				h9.7v-2.1l-7.4,0v-3.4h6.6v-2.1l-6.6,0v-3.5h7.5v-2.1h-9.8V280.4L281.3,280.4z"/>
			<path id="path726" inkscape:connector-curvature="0" class="st3" d="M294.6,280.4h2.3v-11h6.9v-2.1h-9.2V280.4z"/>
			<path id="path728" inkscape:connector-curvature="0" class="st3" d="M307.1,267.3h2.3v13.1h-2.3V267.3z"/>
			<path id="path730" inkscape:connector-curvature="0" class="st3" d="M321.6,272.5l-2.3,5.2l-2.2-5.2H321.6z M318.3,280.5h2.1
				l5.8-13.2h-2.4l-1.3,3.2h-6.2l-1.3-3.2h-2.4L318.3,280.5L318.3,280.5z"/>
			<path id="path732" inkscape:connector-curvature="0" class="st3" d="M334.9,273.9c0.8,0,1.5,0.2,2,0.6c0.5,0.4,0.7,0.9,0.7,1.6v0
				c0,0.7-0.2,1.3-0.7,1.6c-0.5,0.4-1.1,0.6-2,0.6h-3.4v-4.4L334.9,273.9L334.9,273.9z M329.3,280.4h5.8c0.8,0,1.6-0.1,2.2-0.3
				c0.6-0.2,1.2-0.6,1.6-1c0.3-0.4,0.6-0.8,0.8-1.3c0.2-0.5,0.3-1,0.3-1.6v0c0-0.5-0.1-1-0.2-1.4c-0.1-0.4-0.4-0.8-0.6-1.1
				c-0.3-0.3-0.6-0.6-1-0.8c-0.4-0.2-0.8-0.4-1.3-0.5l3.5-5h-2.7l-3.2,4.6h0h-2.8v-4.6h-2.3L329.3,280.4L329.3,280.4z"/>
			<path id="path734" inkscape:connector-curvature="0" class="st3" d="M348.4,269.4c0.7,0,1.3,0.1,1.9,0.3c0.6,0.2,1,0.5,1.4,0.9
				s0.7,0.9,0.9,1.4c0.2,0.5,0.3,1.1,0.3,1.8v0c0,0.6-0.1,1.2-0.3,1.8c-0.2,0.5-0.5,1-0.9,1.4s-0.9,0.7-1.4,0.9
				c-0.6,0.2-1.2,0.3-1.9,0.3h-2.6v-8.9L348.4,269.4L348.4,269.4z M343.6,280.4h4.9c1,0,2-0.2,2.8-0.5c0.8-0.3,1.6-0.8,2.2-1.4
				c0.6-0.6,1.1-1.3,1.4-2.1c0.3-0.8,0.5-1.6,0.5-2.6v0c0-0.9-0.2-1.8-0.5-2.6c-0.3-0.8-0.8-1.5-1.4-2.1c-0.6-0.6-1.4-1-2.2-1.4
				c-0.9-0.3-1.8-0.5-2.8-0.5h-4.9V280.4L343.6,280.4z"/>
		</g>
		<g id="g32990" transform="matrix(1.25,0,0,-1.25,-95.400936,512.25762)">
			<path id="path816" inkscape:connector-curvature="0" class="st3" d="M195.4,62.6l-4.4-1.4l0.6-2.4l3,0.8V46h2.9v16.6L195.4,62.6
				L195.4,62.6z"/>
			<path id="path822" inkscape:connector-curvature="0" class="st3" d="M211.6,54.2c0.5,0,1,0.1,1.4,0.2c0.4,0.2,0.8,0.4,1.1,0.7
				s0.5,0.6,0.7,0.9c0.2,0.4,0.2,0.7,0.2,1.1v0c0,0.9-0.3,1.6-0.9,2.2c-0.6,0.6-1.5,0.9-2.5,0.9c-0.5,0-1-0.1-1.4-0.2
				c-0.4-0.2-0.7-0.4-1-0.7c-0.3-0.3-0.5-0.6-0.7-1c-0.1-0.4-0.2-0.8-0.2-1.2v-0.1c0-0.9,0.3-1.6,0.9-2.1
				C209.7,54.5,210.6,54.2,211.6,54.2 M211,45.7c-1.1,0-2.1,0.2-3,0.5s-1.6,0.8-2.3,1.4l1.6,2.2c0.6-0.5,1.3-0.9,1.8-1.2
				c0.6-0.2,1.2-0.4,1.9-0.4c0.6,0,1.1,0.1,1.6,0.4c0.5,0.3,0.9,0.6,1.2,1.1s0.6,1,0.8,1.7c0.2,0.6,0.3,1.3,0.3,2.1
				c-0.4-0.5-0.9-0.9-1.6-1.3c-0.6-0.3-1.4-0.5-2.3-0.5c-0.9,0-1.7,0.1-2.4,0.4c-0.7,0.2-1.3,0.6-1.8,1c-0.5,0.5-0.9,1-1.2,1.7
				c-0.3,0.6-0.4,1.4-0.4,2.2v0c0,0.8,0.1,1.5,0.5,2.3c0.3,0.7,0.7,1.3,1.3,1.8c0.5,0.5,1.2,0.9,1.9,1.2c0.8,0.3,1.6,0.4,2.5,0.4
				c1,0,1.9-0.1,2.6-0.4c0.7-0.3,1.4-0.7,1.9-1.3c0.6-0.6,1.1-1.4,1.5-2.4c0.4-1,0.5-2.3,0.5-3.9v-0.1c0-1.3-0.2-2.5-0.5-3.6
				c-0.3-1.1-0.8-2-1.4-2.8c-0.6-0.8-1.4-1.4-2.2-1.8C213.1,46,212.1,45.7,211,45.7"/>
			<path id="path824" inkscape:connector-curvature="0" class="st3" d="M224.8,48.3l5.7,4.8c0.6,0.5,1,0.9,1.4,1.3
				c0.4,0.4,0.7,0.8,0.9,1.1c0.2,0.3,0.4,0.7,0.5,1c0.1,0.3,0.2,0.7,0.2,1.1c0,0.8-0.2,1.4-0.8,1.9c-0.5,0.5-1.1,0.7-1.9,0.7
				c-0.7,0-1.4-0.2-2-0.6c-0.6-0.4-1.2-1-1.8-1.9l-2,1.6c0.4,0.6,0.8,1,1.2,1.5c0.4,0.4,0.8,0.8,1.3,1.1c0.5,0.3,1,0.5,1.6,0.7
				c0.6,0.1,1.2,0.2,2,0.2c0.8,0,1.5-0.1,2.2-0.3c0.7-0.2,1.3-0.6,1.7-1c0.5-0.4,0.8-1,1.1-1.6c0.3-0.6,0.4-1.3,0.4-2v-0.1
				c0-0.6-0.1-1.2-0.3-1.7c-0.2-0.5-0.4-1-0.8-1.5c-0.4-0.5-0.8-1-1.3-1.5c-0.6-0.5-1.2-1-1.9-1.6l-3.4-2.8h7.8V46h-11.9L224.8,48.3
				L224.8,48.3z"/>
			<path id="path826" inkscape:connector-curvature="0" class="st3" d="M249.7,55.5c0.8,0,1.6,0.2,2.1,0.7c0.6,0.5,0.8,1,0.8,1.8v0
				c0,0.6-0.3,1.2-0.8,1.6c-0.5,0.5-1.2,0.7-2.1,0.7c-0.9,0-1.6-0.2-2.1-0.7c-0.5-0.5-0.8-1-0.8-1.6V58c0-0.7,0.3-1.3,0.8-1.8
				C248.2,55.7,248.9,55.5,249.7,55.5 M249.7,48.2c1.1,0,1.9,0.2,2.5,0.7c0.6,0.5,0.9,1.1,0.9,1.8v0c0,0.4-0.1,0.7-0.3,1
				c-0.2,0.3-0.4,0.6-0.7,0.8s-0.7,0.4-1.1,0.5c-0.4,0.1-0.9,0.2-1.4,0.2c-0.5,0-0.9-0.1-1.4-0.2c-0.4-0.1-0.8-0.3-1.1-0.5
				c-0.3-0.2-0.6-0.5-0.7-0.8c-0.2-0.3-0.3-0.7-0.3-1v0c0-0.7,0.3-1.3,0.9-1.7C247.8,48.5,248.6,48.2,249.7,48.2 M249.7,45.8
				c-0.9,0-1.7,0.1-2.5,0.3c-0.8,0.2-1.4,0.5-2,0.9c-0.6,0.4-1,0.9-1.3,1.5c-0.3,0.6-0.5,1.2-0.5,1.9v0c0,1,0.3,1.8,0.8,2.5
				c0.5,0.7,1.3,1.2,2.2,1.6c-0.7,0.4-1.3,0.8-1.7,1.4c-0.5,0.6-0.7,1.3-0.7,2.3v0.1c0,0.6,0.1,1.2,0.4,1.7c0.3,0.6,0.7,1,1.2,1.4
				c0.5,0.4,1.1,0.7,1.8,0.9c0.7,0.2,1.5,0.3,2.3,0.3c0.8,0,1.6-0.1,2.3-0.3c0.7-0.2,1.3-0.5,1.8-0.9c0.5-0.4,0.9-0.9,1.2-1.4
				c0.3-0.6,0.4-1.1,0.4-1.8v-0.1c0-0.9-0.2-1.7-0.7-2.3c-0.4-0.6-1-1.1-1.7-1.4c0.9-0.4,1.6-0.9,2.2-1.5c0.6-0.6,0.8-1.4,0.8-2.4
				v-0.1c0-0.7-0.1-1.4-0.5-2c-0.3-0.6-0.8-1.1-1.3-1.5c-0.6-0.4-1.2-0.7-2-0.9C251.4,45.9,250.6,45.8,249.7,45.8"/>
		</g>
		<g id="g33924" transform="matrix(1.25,0,0,-1.25,-95.400936,512.25762)">
			<path id="path760" inkscape:connector-curvature="0" class="st5" d="M92.1,313.7H108v28h34.5V356H108v15.6h39.1v14.3h-55V313.7
				L92.1,313.7z"/>
			
				<path id="path33033" inkscape:connector-curvature="0" sodipodi:nodetypes="ccccccccccsscccccsccscccccccsccccccsscccccscccccccccccscc" class="st5" d="
				M186.1,312.3c-5.3,0-10.2,1-14.6,2.9c0,0,0,0,0,0c0,0,0,0,0,0c-4.5,1.9-8.4,4.6-11.6,7.9l0,0l0,0c-3.3,3.4-5.9,7.4-7.8,11.8l0,0
				l0,0c-1.8,4.6-2.8,9.4-2.8,14.7v0.2c0,5.1,1,10.1,2.8,14.6c1.8,4.5,4.4,8.5,7.7,11.9c3.3,3.5,7.3,6.2,11.8,8.2l0,0l0,0
				c4.5,1.9,9.6,2.9,15,2.9c3.3,0,6.3-0.2,9-0.8c2.7-0.6,5.2-1.3,7.5-2.3c2.3-1,4.4-2.2,6.3-3.6c1.9-1.4,3.7-2.9,5.5-4.6l1.1-1
				l-9.9-11.4l-1.2,1.1c-2.7,2.5-5.5,4.5-8.4,6l0,0l0,0c-2.9,1.5-6.1,2.2-9.9,2.2c-3.1,0-5.9-0.6-8.5-1.8c0,0,0,0,0,0
				c-2.6-1.2-4.9-2.8-6.7-4.9l0,0l0,0c-1.9-2.1-3.4-4.4-4.4-7.3c-1-2.9-1.6-5.8-1.6-8.9v-0.2c0-3.1,0.6-6.2,1.6-9
				c1.1-2.9,2.5-5.3,4.4-7.4l0,0l0,0c1.8-2.1,4.1-3.7,6.7-4.9c2.7-1.2,5.4-1.8,8.5-1.8c4,0,7.4,0.8,10.1,2.3l0,0l0,0
				c2.9,1.5,5.8,3.6,8.6,6.3l1.1,1.1l10-10.1l-1-1.1c-1.8-2-3.7-3.8-5.8-5.3l0,0c-2-1.5-4.2-2.9-6.5-4h0c-2.3-1.1-4.9-2-7.8-2.6
				C192.5,312.6,189.5,312.3,186.1,312.3L186.1,312.3z"/>
			
				<path id="path33041" inkscape:connector-curvature="0" sodipodi:nodetypes="ccccccccccsssscccccccccccccccsscccccsscccccscccsscssccccscssccccccc" class="st5" d="
				M250,312c-5.6,0-11,1-16,2.8l0,0l0,0c-5.2,1.9-9.9,4.8-14.2,8.8l-1.5,1.3l10,11.8l1.6-1.4c3.3-2.8,6.5-4.9,9.7-6.3l0,0
				c3.2-1.4,6.7-2.1,10.9-2.1c3.5,0,5.9,0.7,7.7,2c1.8,1.3,2.5,2.6,2.5,4.6v0.2c0,0.9-0.2,1.7-0.5,2.4c-0.3,0.6-0.8,1.2-1.7,1.9
				c-0.9,0.6-2.4,1.4-4.3,2.1c-1.9,0.7-4.4,1.4-7.6,2.1l0,0l0,0c-3.9,0.9-7.2,1.9-10.2,3l0,0l0,0c-3,1.1-5.6,2.5-7.8,4.2l0,0l0,0
				c-2.1,1.8-3.8,3.9-5,6.4l0,0l0,0c-1.2,2.6-1.7,5.6-1.7,9v0.2c0,3.3,0.7,6.3,2,9l0,0l0,0c1.3,2.7,3.1,5,5.4,6.9
				c2.3,1.9,5,3.4,8.1,4.5c3.2,1.1,6.6,1.6,10.1,1.6c5.3,0,10.1-0.8,14.4-2.3c4.3-1.5,8.3-3.8,12.1-6.8l1.6-1.2l-8.9-12.4l-1.7,1.2
				c-3,2.2-6,3.8-9,5c-2.9,1.1-5.7,1.7-8.6,1.7c-3.3,0-5.6-0.7-7-1.9l0,0l0,0c-1.6-1.2-2.2-2.5-2.2-4.2v-0.2c0-1,0.2-1.9,0.5-2.7
				c0.3-0.6,0.8-1.2,1.8-1.9c1-0.7,2.5-1.4,4.6-2c2.1-0.7,4.8-1.4,8.1-2.3c3.7-0.9,7-2,9.9-3.1l0,0l0,0c2.9-1.2,5.5-2.7,7.5-4.5
				c2-1.8,3.7-3.8,4.8-6.3c1.1-2.5,1.6-5.2,1.6-8.3v-0.2c0-3.4-0.7-6.6-2-9.5c-1.3-2.9-3.2-5.3-5.6-7.2c-2.4-1.9-5.3-3.4-8.5-4.4
				l0,0l0,0C257.4,312.5,253.8,312,250,312L250,312z"/>
			<path id="path33057" inkscape:connector-curvature="0" sodipodi:nodetypes="ccccccccccccccc" class="st5" d="M282.3,386h17.5
				l19.6-30.9l19.1,30.9h16.6v-72.2H340v47L319.5,330h-0.4L299,360.6v-46.8h-16.6L282.3,386L282.3,386z"/>
		</g>
		<g id="g34171" transform="matrix(1.25,0,0,-1.25,-112.15672,608.60339)">
			<path id="path242" inkscape:connector-curvature="0" class="st5" d="M316.6,283.4c22.2-32.1-6.8-80-30.9-95.4l0,0
				c-9.5-6.1-27.1-15.5-37.5-21l0,0c3.9-0.6,7.8-0.9,11.9-0.9l0,0c40.4,0,73.2,30.4,73.2,67.8l0,0c0,17.4-4.2,37.6-15.8,49.6l0,0
				C317.2,283.5,316.9,283.4,316.6,283.4"/>
			<path id="path270" inkscape:connector-curvature="0" class="st5" d="M322,306.2c0.4-1.6,0.5-3.2,0.3-4.8l0,0
				c16.6-18.1,26.5-41.3,26.5-66.8l0,0c0-10.8-2.2-22.8-5.7-33.6l0,0c9.5,16.8,17.4,35,23.7,54.3l0,0
				C358.5,276.4,342.5,294.3,322,306.2L322,306.2z"/>
			<path id="path34091" inkscape:connector-curvature="0" class="st5" d="M225.9,327.9c-9.3-2.6-37.2-15.3-56.8-34.9l0,0
				c-11-11-44.3-22.1-49.8-24l0,0c-5.5-2-9.4-5.7-10.9-10.7l0,0c-0.8-2.6,0.2-7.5,1.4-11.5l0,0c0.8-2.2,1.6-4.3,2.4-6.5l0,0
				c0.3,1,1.3,3.9,2.7,7.1l0,0c1.4,3.2,7.8,8.5,10.1,10.3l0,0c-0.8-0.8-2.2-2.4-3.8-5.9l0,0c-2.6-5.7-4.4-12.7-4.8-20.1l0,0
				c0-0.8,0-1.5,0.2-2.2l0,0c0.7-1.7,1.5-3.4,2.2-5.1l0,0c0.2-0.2,0.3-0.5,0.5-0.7l0,0c0,0,0,0,0,0l0,0c1.7-3,5.2-5.9,6.8-6.4l0,0
				c2.4-0.7,6.7,1.6,6.7,1.6l0,0c0,0,0.4-0.3,3.8-3l0,0c3.4-2.7,7-5.2,7-5.2l0,0c0,0,0.1,0.8-0.4,2.5l0,0c-0.5,1.6-2.8,9.1-2.9,9.1
				l0,0c-0.6,2,11,8.5,12.4,9.2l0,0c0,0,0,0,0,0l0,0c3.3,1.7,6.7,3,9.4,3.2l0,0c13.4,0.9,24.9-11.7,25.8-23.3l0,0
				c0.9-11.7-9.1-18-22.5-18.9l0,0c-0.1,0-0.1,0-0.2,0l0,0c-1.3-0.1-3-0.2-3.8,0.6l0,0c-1.1,1.2-9.6,9.3-9.6,9.3l0,0
				c0,0,0.1-0.7,0.7-2.5l0,0c0.5-1.8,1.5-7.7,1.5-7.7l0,0c-2.2-0.1-6.7-0.1-6.8-3.3l0,0c0-0.6,3.8-6.9,3.9-7.1l0,0
				c3.4-5.3,9.7-14.6,14.6-21.8l0,0c2.8,3.7,5.1,6.7,6.5,8.7l0,0c1.3,1.7,7.8,9.4,9.8,11.3l0,0c3.4,3.2,6.8,6.5,9.7,10.1l0,0
				c0.9,1,1.7,2.1,2.4,3.2l0,0l0,0v0c9.2,12.7,13.4,27.7,3.5,41.6l0,0c0.3-0.1,0.6-0.1,0.9-0.2l0,0c3-0.6,6.2-0.9,9.5-0.9l0,0
				c7.4,0,14.3,1.7,20.2,4.6l0,0c6,3.1,11.7,7.1,16.2,11.7l0,0c3.2,3.3,6.1,7.1,8.2,11.3l0,0c2.1,4.3,3.2,9,2.7,13.8l0,0
				c-0.2,2.7-0.9,5.3-1.7,7.8l0,0c-0.9,2.7-1.7,5.7-3.1,8.1l0,0c11.2-4.9,17.3-13.8,17.7-26.6l0,0c0.2-5.4-1.1-11.3-3.1-16.2l0,0
				c-1.9-4.5-4.3-8.8-7.2-12.7l0,0c-5.8-7.9-13.9-13.5-21.9-19.1l0,0c-2.9-1.7-5.8-3.5-8.6-5.6l0,0c-5.8-4.2-11.2-9-15.5-14.7l0,0
				c-2.7-3.8-5.2-7.7-8.2-11.3l0,0c0.1,0.1,0.2,0.2,0.3,0.2l0,0v0c7.2,5,15.1,9.7,23.5,14.2l0,0c2.6,1.4,5.2,2.7,7.9,4l0,0
				c0.7,0.3,4,1.8,8.1,3.8l0,0c5.9,2.6,11.6,4.9,17.3,6.8l0,0l-8.1-15.2l-0.1-0.1l0,0l0-0.1c25.4,11,44.1,29.3,51.6,49.3l0,0
				c2.3,6.1,3.7,12.4,3.6,18.8l0,0c0,4.2-0.5,8.5-1.6,12.6l0,0c-0.9,3.4-2.1,6.6-3.6,9.6l0,0c0.3,0.1,0.6,0.2,0.8,0.4l0,0
				c11.4,5.1,14,14.7,8.6,23.2l0,0h-0.1c-6,8.1-24.9,13.6-47.2,12.9l0,0c-0.9,0-1.8-0.1-2.6-0.1l0,0c57.8-7.4,47.7-32.9,25.3-31.1
				l0,0c12.2-6.9,14.9-39.4,1.5-47.3l0,0c0.6,0.3,1.1,3.6,1.4,4.3l0,0c0.4,1.4,0.8,2.9,1.1,4.3l0,0c0.6,2.8,1,5.6,1,8.4l0,0
				c0,9.8-5.2,19-11.4,26.3l0,0c-7,8.3-16.6,14.2-26.4,18.7l0,0c-5.5,2.6-11.3,4.2-17.3,4.9l0,0c-0.6,0.1-1.3,0.1-1.9,0.1l0,0
				c-0.4,0-0.8,0-1.2,0l0,0c-3.1,0-6.1-0.5-8.6-1.3l0,0c6.1,5.5,26.4,18.1,26.5,18.2l0,0C251,330.4,237.9,331,225.9,327.9
				 M189.8,292.1c5.8,3.2,16.2,1.7,16.2,1.7l0,0c0,0-11-13-16.3-13l0,0c0,0-0.1,0-0.2,0l0,0C184.3,281.2,184,289,189.8,292.1
				 M252.8,198.4C252.8,198.4,252.8,198.4,252.8,198.4L252.8,198.4L252.8,198.4z"/>
			<path id="path34094" inkscape:connector-curvature="0" class="st5" d="M202.9,171.5c-11.6-7.7-21.6-16.4-29.5-25.2l0,0
				c10.8,9.2,25.7,16.1,42.7,19.2l0,0c2.8,3.1,5.7,6.3,8.8,9.3l0,0c5.7,5.8,11.6,11,17.6,15.7l0,0
				C229.8,186.8,216.2,180.4,202.9,171.5"/>
		</g>
	</g>
</g>
</svg>
