<?xml version="1.0" encoding="utf-8"?>
<!-- Generator: Adobe Illustrator 26.0.2, SVG Export Plug-In . SVG Version: 6.00 Build 0)  -->
<svg version="1.1"
	 id="Ebene_1" xmlns:cc="http://creativecommons.org/ns#" xmlns:dc="http://purl.org/dc/elements/1.1/" xmlns:inkscape="http://www.inkscape.org/namespaces/inkscape" xmlns:rdf="http://www.w3.org/1999/02/22-rdf-syntax-ns#" xmlns:sodipodi="http://sodipodi.sourceforge.net/DTD/sodipodi-0.dtd" xmlns:svg="http://www.w3.org/2000/svg"
	 xmlns="http://www.w3.org/2000/svg" xmlns:xlink="http://www.w3.org/1999/xlink" x="0px" y="0px" width="800px" height="565.1px"
	 viewBox="0 0 800 565.1" style="enable-background:new 0 0 800 565.1;" xml:space="preserve">
<style type="text/css">
	.st0{fill:#E71206;}
</style>
<g>
	
		<sodipodi:namedview  bordercolor="#666666" borderopacity="1" gridtolerance="10" guidetolerance="10" id="namedview1131" inkscape:current-layer="Ebene_1" inkscape:cx="452.02259" inkscape:cy="282.4345" inkscape:pageopacity="0" inkscape:pageshadow="2" inkscape:window-height="691" inkscape:window-maximized="1" inkscape:window-width="1280" inkscape:window-x="0" inkscape:window-y="1" inkscape:zoom="1.1736798" objecttolerance="10" pagecolor="#ffffff" showgrid="false">
		</sodipodi:namedview>
	<path id="ASF_1_" class="st0" d="M196,100.5c17.7-4.7,36.2-7.2,55.3-7.2V76.5c-20.1,0-39.7,2.7-58.5,7.5v-0.1
		c-0.8,0.2-1.6,0.5-2.3,0.7C101.1,109,31.8,185.5,19.5,280h61.7c3.5-15.7,9.8-30.2,17.1-43.1h18.4v-16.7H88.8
		c-8,12.7-15.4,27.2-20.4,43.2h-29c13.8-62.3,54.7-114.4,109-143.9c-4.9,9.5-7.7,20.3-7.7,31.5c0,15.6,5.2,29.9,13.9,41.5v70.9
		h-41.5V280h58.2v-71.7c11,7.4,24.1,11.7,38.3,11.7h41.6v-16.7h-41.6c-28.8,0-52.2-23.4-52.2-52.3
		C157.5,127.4,173.3,106.8,196,100.5z M412.5,142.7h-203v16.7h41.9c28.8,0,52.3,23.4,52.3,52.1c0,28.8-23.4,52.3-52.3,52.3h-16.8
		v16.7h16.8c13.5,0,26-3.9,36.7-10.6v55.4h16.7v-70.1c9.8-11.9,15.6-27.1,15.6-43.7c0-20.8-9.3-39.5-24-52.1h116.2L412.5,142.7
		L412.5,142.7z M340.6,219.9h65.2v-16.7h-65.2L340.6,219.9L340.6,219.9z M339.5,255v70.3h16.7v-53.5h27.7V255H339.5"/>
	<path id="SFV_1_" class="st0" d="M151.4,341.7c-38,0-68.9,30.9-68.9,68.8c0,38,30.9,69,68.9,69h42v-16.7h-42
		c-28.8,0-52.2-23.4-52.2-52.3c0-28.7,23.4-52.1,52.2-52.1h20v-16.7L151.4,341.7L151.4,341.7z M356.2,358.7V342H234.6v73.7
		c-11.4-8.4-25.5-13.4-40.8-13.4h-39.3V419h39.3c28.8,0,52.3,23.4,52.3,52.1c0,28.8-23.4,52.3-52.3,52.3V540c38,0,69-30.9,69-69
		c0-14-4.2-27-11.5-37.9v-74.4H356.2z M289.9,418.8h60v-16.7h-60V418.8z M289.9,459.9v80.2h16.7v-63.5H333v-16.7L289.9,459.9
		L289.9,459.9z M530.6,332.5c-1.5,2.2-3,4.4-4.5,6.6c-15.5,22.3-36.4,47.9-60.4,73.1c-2.6,2.7-5.2,5.7-7.8,8.6
		c12.8-24.3,21.5-50.8,25.1-78.7h-62.2c-4.5,23.4-14.2,45.6-28.2,64.9v-65h-16.7v108.7l14.4-14.8c21-21.7,36.1-48.4,43.9-77.2h29
		c-14,63-55.7,117.3-113.8,146.8c-0.1,0.1-0.2,0.1-1.5,0.7v18.5c1.3-0.6,1.4-0.7,1.5-0.7c8.2-3.8,16.1-8.1,23.7-12.7
		c0.5-0.3,1-0.6,1.5-0.9l0.1-0.1c3.5-2.2,7-4.5,10.4-6.9c67.1-45.4,120.9-105.9,155-155.2c2.3-3.2,4.4-6.5,6.6-9.7L530.6,332.5"/>
	<path id="Fussballspieler_1_" class="st0" d="M792.1,420.2L792.1,420.2L792.1,420.2c0-0.4-0.1-0.9-0.1-1.3
		c-2.7-28.9-28.2-50.6-57.3-48.5c-12.5,0.9-24,6-32.9,14.4l12.6,11.2c6-5.2,13.5-8.3,21.5-8.9c20.4-1.4,38.1,14,39.6,34.3
		c0.7,9.9-2.5,19.4-9,26.9s-15.5,12-25.4,12.7c-7.3,0.5-14.4-1.1-20.7-4.6c-0.1,0-0.1-0.1-0.2-0.1c-1.2-0.7-2.3-1.5-3.4-2.3
		c-3.8-2.8-7.8-6.3-11.9-10.2c-36.5-85.1-74.1-149.9-111.1-191.5c14.9-30.4,24.3-55.1,29.4-69.6l-15.2-7.4
		c-4.4,12.8-13,35.6-26.6,64c-16.5-16.3-32.8-27.8-48.9-34.4l-6.3,15.5c33.7,13.8,86.6,59.7,149.9,197.1
		c-6.3-8.6-12.9-19.1-19.4-26.8c-18.2-21.2-38.9-45.1-61-67.4c-17.2-17.3-36.2-26.3-54.6-34.9c-13.8-6.5-26.8-12.6-38.8-22l-0.2-0.2
		l-0.2-0.2c-10.7-7.3-17.1-19.4-17.1-32.3c0-11,5.6-21,11.5-31.6l7.7-13.9c9.5-17.1,13.4-24.2,14.9-28.1c2.5-6.4,3.8-13.4,3.6-20.5
		c-0.8-30.3-22.9-51.5-53.8-51.4h-89.8C407.1,73.9,449,60.5,493,62.4c25.8,1.1,38.2,7,48.1,11.7c6.7,3.2,13.1,6.2,21.2,6.2
		c17.7,0,23.3-12.5,26.3-19.3l1-2.1l0.2-0.3c1-2.3,2.2-4.4,3.6-6.4c5.9-8.6,14.9-14.3,25.1-16.2c10.3-1.9,20.6,0.4,29.2,6.3
		c8.6,5.9,14.3,14.9,16.2,25.1c1.9,10.3-0.4,20.6-6.3,29.2c-6.6,9.5-15.8,15.8-25.3,17.2c-7.6,1.1-14.8-0.9-20.9-5.7
		c-4.7-3.7-7.5-9.7-7.3-15.6c0.1-3.6,1.4-7,3.7-10.2l-13.9-9.2c-3.9,5.6-6.2,12-6.4,18.7c-0.4,11.3,4.7,22.3,13.6,29.3
		c9.7,7.7,21.6,10.9,33.7,9.2c3-0.4,5.9-1.2,8.8-2.2c17.8,16.5,42.6,48.3,52,67c2.8,5.3,3.7,11,2.6,16.8c-1.3,6.6-5,12.4-10.6,16.2
		s-12.3,5.2-19,3.9c-5.9-1.1-10.9-4.2-14.5-8.5l-13.3,10.2c6.1,7.5,14.7,12.8,24.7,14.7c11,2.1,22.2-0.2,31.5-6.5
		s15.5-15.9,17.7-26.9c1.8-9.4,0.3-19.2-4.2-27.6c-10.3-20.5-34.1-50.5-51.6-67.9c4.7-3.7,8.9-8.2,12.6-13.5
		c8.5-12.2,11.7-27,9-41.7s-10.9-27.4-23.1-35.9c-12.2-8.5-27-11.7-41.7-9s-27.4,10.9-35.9,23.1c-2,2.8-3.7,5.9-5.1,9.1l-1.1,2.5
		c-3,6.6-4.4,9.3-11,9.3c-4.3,0-8.2-1.8-14.1-4.6c-10.7-5.1-25.4-12-54.5-13.2C433,42.9,375.4,67.9,348.4,87v18H469
		c21.7-0.1,36.6,14,37.1,35.1c0,0.3,0,0.6,0,0.9c0,4.5-0.8,9-2.5,13.1c-1.1,3-6.5,12.6-13.9,25.9l-7.7,13.9
		c-6.7,12-13.6,24.3-13.6,39.7v0.2c0,18.4,9.1,35.5,24.2,45.9c13.5,10.4,27.8,17.2,41.7,23.8c17.9,8.4,34.7,16.4,49.9,31.6
		c21.7,21.9,41.3,44.6,60.2,66.6c23.2,26.9,43.3,51,62.7,65.6c10.3,7.6,22.7,11.3,35.6,10.4c14.3-1,27.4-7.5,36.8-18.4
		C788.5,448.4,793.1,434.5,792.1,420.2 M492.3,282.5c-0.1,0-0.1-0.1-0.2-0.1c-0.1-0.1-0.2-0.1-0.3-0.2L492.3,282.5"/>
</g>
</svg>
