<?xml version="1.0" encoding="utf-8"?>
<!-- Generator: Adobe Illustrator 26.0.2, SVG Export Plug-In . SVG Version: 6.00 Build 0)  -->
<svg version="1.1"
	 id="svg2" xmlns:cc="http://creativecommons.org/ns#" xmlns:dc="http://purl.org/dc/elements/1.1/" xmlns:inkscape="http://www.inkscape.org/namespaces/inkscape" xmlns:rdf="http://www.w3.org/1999/02/22-rdf-syntax-ns#" xmlns:sodipodi="http://sodipodi.sourceforge.net/DTD/sodipodi-0.dtd" xmlns:svg="http://www.w3.org/2000/svg"
	 xmlns="http://www.w3.org/2000/svg" xmlns:xlink="http://www.w3.org/1999/xlink" x="0px" y="0px" width="1000px" height="1000px"
	 viewBox="0 0 1000 1000" style="enable-background:new 0 0 1000 1000;" xml:space="preserve">
<style type="text/css">
	.st0{fill:#3E2C56;stroke:#666666;stroke-width:10.7327;stroke-linecap:round;stroke-linejoin:round;stroke-opacity:0;}
	
		.st1{fill:#FFFFFF;stroke:#666666;stroke-width:6.6027;stroke-linecap:round;stroke-linejoin:round;stroke-miterlimit:5;stroke-opacity:0;}
	.st2{fill:#745990;}
	
		.st3{fill:#402C4F;stroke:#666666;stroke-width:6.3016;stroke-linecap:round;stroke-linejoin:round;stroke-miterlimit:5;stroke-opacity:0;}
	.st4{fill:#FFFFFF;}
	.st5{fill-rule:evenodd;clip-rule:evenodd;fill:#FFFFFF;}
	.st6{fill-rule:evenodd;clip-rule:evenodd;fill:#E60746;}
	
		.st7{fill:#745990;stroke:#00FF00;stroke-width:5.6812;stroke-linecap:round;stroke-linejoin:round;stroke-miterlimit:4.7343;stroke-opacity:0;}
	.st8{fill-rule:evenodd;clip-rule:evenodd;fill:#E1B57A;}
	.st9{fill:#E1B57A;}
	.st10{fill:#E60746;}
	.st11{fill:#3D2F46;}
	.st12{opacity:0.206;fill-rule:evenodd;clip-rule:evenodd;fill:#FFFFFF;enable-background:new    ;}
</style>
<sodipodi:namedview  bordercolor="#666666" borderopacity="1" gridtolerance="10" guidetolerance="10" id="namedview4" inkscape:current-layer="g10" inkscape:cx="215.44852" inkscape:cy="401.44582" inkscape:pageopacity="0" inkscape:pageshadow="2" inkscape:window-height="691" inkscape:window-maximized="1" inkscape:window-width="1280" inkscape:window-x="0" inkscape:window-y="1" inkscape:zoom="0.35355339" objecttolerance="10" pagecolor="#ffffff" showgrid="false">
	</sodipodi:namedview>
<g id="g10" transform="matrix(1.25,0,0,-1.25,1.25,1000)" inkscape:groupmode="layer" inkscape:label="FC_Toulouse__old_logo_">
	<g id="g4602">
		<g id="g4591">
			<path id="circle3814" class="st0" d="M399,795.7C180.5,795.7,3.3,618.5,3.3,400C3.3,181.5,180.5,4.3,399,4.3
				c218.5,0,395.7,177.2,395.7,395.7C794.7,618.5,617.5,795.7,399,795.7z M399,783.1c211.6,0,383.1-171.5,383.1-383.1
				c0-211.6-171.5-383.1-383.1-383.1C187.4,16.9,15.9,188.4,15.9,400C15.9,611.6,187.4,783.1,399,783.1z M399,772.2
				C193.5,772.2,26.8,605.5,26.8,400C26.8,194.5,193.5,27.8,399,27.8c205.5,0,372.2,166.6,372.2,372.2c0,0,0,0,0,0
				C771.2,605.5,604.5,772.2,399,772.2C399,772.2,399,772.2,399,772.2z"/>
			<g id="g4582">
				<path id="circle3789" inkscape:connector-curvature="0" sodipodi:nodetypes="sssss" class="st1" d="M642.4,400
					c0-134.4-109-243.4-243.4-243.4S155.6,265.6,155.6,400c0,134.4,109,243.4,243.4,243.4S642.4,534.4,642.4,400z"/>
				<g id="g4683" transform="matrix(0.94686495,0,0,0.94686495,874.41033,19.159753)">
					<path id="rect3835" inkscape:connector-curvature="0" sodipodi:nodetypes="ccccc" class="st2" d="M-599.4,623.4l75.8,16V162.7
						l-75.8,20.8V623.4z"/>
					<path id="rect3837" inkscape:connector-curvature="0" sodipodi:nodetypes="ccccccc" class="st2" d="M-716.2,511.4l37.9,51.2
						l37.9,35.2V209.1l-37.9,31.2l-37.9,53.6V511.4z"/>
					<path id="path4665" inkscape:connector-curvature="0" sodipodi:nodetypes="ccccc" class="st2" d="M-404.7,623.4l-75.8,16V162.7
						l75.8,20.8L-404.7,623.4z"/>
					<path id="path4667" inkscape:connector-curvature="0" sodipodi:nodetypes="ccccccc" class="st2" d="M-287.9,511.4l-37.9,51.2
						l-37.9,35.2V209.1l37.9,31.2l37.9,53.6V511.4z"/>
				</g>
				<path id="circle3787" inkscape:connector-curvature="0" class="st3" d="M399,632.3c-128.3,0-232.3-104-232.3-232.3
					c0-128.3,104-232.3,232.3-232.3c0,0,0,0,0,0c128.3,0,232.3,104,232.3,232.3c0,0,0,0,0,0C631.3,528.3,527.3,632.3,399,632.3z
					 M399,621.2c122.2,0,221.2-99,221.2-221.2c0,0,0,0,0,0c0-122.2-99-221.2-221.2-221.2c0,0,0,0,0,0
					c-122.2,0-221.2,99.1-221.2,221.2c0,0,0,0,0,0C177.8,522.2,276.8,621.2,399,621.2z"/>
			</g>
		</g>
		<g id="g12763" transform="matrix(0.94686495,0,0,0.94686495,874.41033,19.159753)">
			<g id="g12739">
				<g id="g12417" transform="translate(1134.7122,-70.387024)">
					<path id="path16" inkscape:connector-curvature="0" class="st4" d="M-1841.4,679.9l-37.9,38.8l-13.7-13.4l-7.7,7.9l36.9,36
						l7.7-7.9l-13.7-13.4l37.9-38.8L-1841.4,679.9L-1841.4,679.9z"/>
					<path id="path18" inkscape:connector-curvature="0" class="st4" d="M-1829,729.9c-4.2,5.2-6.9,10.1-8.2,14.9
						c-0.9,3.5-1.3,7.1-0.9,10.8c0.3,3.7,1.3,7,2.8,9.9c2.1,3.9,5.2,7.5,9.3,10.9c7.4,6.1,15.3,8.6,23.5,7.6
						c8.2-1,15.7-5.6,22.4-13.9c6.6-8.2,9.6-16.4,8.9-24.6c-0.7-8.2-4.7-15.4-12.2-21.4c-7.5-6.1-15.4-8.7-23.5-7.7
						C-1815.1,717.3-1822.5,721.8-1829,729.9 M-1818.8,738.7c4.7-5.7,9.5-9,14.6-9.8c5.1-0.8,9.6,0.4,13.7,3.8
						c4.1,3.3,6.2,7.5,6.5,12.6c0.2,5.1-2,10.5-6.8,16.4c-4.7,5.8-9.5,9.1-14.4,9.9c-4.9,0.8-9.4-0.5-13.6-4
						c-4.2-3.4-6.4-7.6-6.7-12.6C-1825.8,750-1823.5,744.6-1818.8,738.7L-1818.8,738.7z"/>
					<path id="path20" inkscape:connector-curvature="0" class="st4" d="M-1771.8,805.6l12.5,4.1l11.2-33.6
						c1.8-5.3,3.1-8.7,3.9-10.2c1.4-2.4,3.3-4,5.8-4.9c2.5-0.9,5.5-0.7,9,0.4c3.5,1.2,5.9,2.8,7.3,4.8c1.3,2.1,1.8,4.2,1.5,6.4
						c-0.3,2.2-1.3,5.8-3,10.7l-11.4,34.3l12.5,4.1l10.8-32.6c2.5-7.4,3.9-12.8,4.2-16.1c0.3-3.3,0-6.3-1.1-9
						c-1.1-2.7-3-5.2-5.6-7.5c-2.6-2.3-6.4-4.2-11.2-5.8c-5.9-2-10.6-2.8-14.1-2.4c-3.5,0.4-6.5,1.3-9,2.9c-2.5,1.6-4.4,3.5-5.8,5.7
						c-2,3.3-4.1,8.4-6.5,15.3L-1771.8,805.6L-1771.8,805.6z"/>
					<path id="path22" inkscape:connector-curvature="0" class="st4" d="M-1686.8,762.9l-7.6,64.1l13.1,1.5l6.3-53.2l32.5,3.8
						l1.3-10.9L-1686.8,762.9z"/>
					<path id="path24" inkscape:connector-curvature="0" class="st4" d="M-1632.3,799.3c0.5,6.6,2,12.1,4.3,16.4
						c1.7,3.2,4,6,6.8,8.4c2.8,2.4,5.7,4.1,8.9,5.2c4.2,1.4,8.9,1.9,14.2,1.4c9.6-0.8,17-4.4,22.2-10.8c5.3-6.4,7.5-14.9,6.6-25.5
						c-0.9-10.5-4.4-18.5-10.6-23.9c-6.2-5.5-14-7.8-23.6-7c-9.7,0.8-17.1,4.4-22.3,10.7C-1631,780.6-1633.1,788.9-1632.3,799.3
						 M-1618.8,798.6c-0.6-7.4,0.6-13.1,3.7-17.2c3.1-4.1,7.3-6.3,12.5-6.8c5.2-0.4,9.7,1.1,13.4,4.6c3.7,3.5,5.8,9,6.4,16.6
						c0.6,7.5-0.6,13.2-3.5,17.1c-3,3.9-7.2,6.1-12.6,6.6c-5.4,0.4-9.9-1.1-13.6-4.5C-1616,811.6-1618.2,806.1-1618.8,798.6z"/>
					<path id="path26" inkscape:connector-curvature="0" class="st4" d="M-1539.4,820.4l12.2-4.8l-12.9-33c-2-5.2-3.2-8.7-3.5-10.4
						c-0.5-2.7,0-5.2,1.4-7.5c1.4-2.3,3.8-4.1,7.2-5.4c3.5-1.4,6.4-1.7,8.7-0.9c2.3,0.7,4.1,2.1,5.2,4c1.2,1.9,2.7,5.3,4.6,10.1
						l13.2,33.7l12.2-4.8l-12.5-32c-2.9-7.3-5.2-12.3-7-15.1c-1.8-2.8-4.1-4.8-6.6-6.2c-2.6-1.4-5.6-2.1-9.1-2.2
						c-3.5-0.1-7.6,0.8-12.4,2.7c-5.8,2.3-9.9,4.6-12.4,7.1c-2.5,2.5-4.1,5.2-5,8c-0.9,2.8-1.2,5.5-0.8,8.1
						c0.6,3.8,2.2,9.1,4.8,15.9L-1539.4,820.4L-1539.4,820.4z"/>
					<path id="path28" inkscape:connector-curvature="0" class="st4" d="M-1493.4,755.6l11.2-6.2c-1.8-4-2.3-7.5-1.5-10.5
						c0.8-3,2.8-5.6,6.1-7.9c3.5-2.4,6.6-3.5,9.4-3.3c2.8,0.2,4.9,1.4,6.2,3.3c0.9,1.3,1.3,2.6,1.1,4c-0.1,1.4-0.9,3.1-2.3,5
						c-1,1.3-3.3,4.1-7,8.3c-4.8,5.4-7.6,10-8.5,13.7c-1.2,5.2-0.4,9.9,2.5,14.2c1.9,2.7,4.4,4.7,7.6,6c3.2,1.3,6.7,1.6,10.4,0.8
						c3.8-0.8,7.7-2.6,11.8-5.4c6.7-4.6,10.7-9.6,12.1-14.9c1.3-5.3,0.4-10.5-2.9-15.6l-11.1,7.1c1.5,3.1,1.8,5.8,1.2,8
						c-0.7,2.3-2.5,4.5-5.6,6.6c-3.1,2.2-6,3.2-8.7,3.2c-1.7,0-3.1-0.8-4-2.1c-0.9-1.3-1.1-2.7-0.7-4.4c0.6-2.1,3.1-5.6,7.5-10.5
						c4.4-4.9,7.4-8.9,9-11.9c1.6-3.1,2.3-6.3,2.1-9.6c-0.2-3.3-1.4-6.6-3.8-10c-2.1-3.1-5-5.4-8.5-6.9c-3.6-1.5-7.4-1.8-11.4-1
						c-4,0.9-8.4,2.9-13,6.1c-6.8,4.7-10.9,9.9-12.3,15.5C-1497.9,743-1496.9,749.1-1493.4,755.6L-1493.4,755.6z"/>
					<path id="path30" inkscape:connector-curvature="0" class="st4" d="M-1452.6,701.3l44.6,47.6l35.1-32.9l-7.5-8l-25.6,23.9
						l-9.9-10.5l23.8-22.3l-7.5-8l-23.8,22.3l-12.2-13l26.5-24.8l-7.5-8L-1452.6,701.3L-1452.6,701.3z"/>
				</g>
				<g id="g12537" transform="translate(1135.0815,0)">
					<path id="path32" inkscape:connector-curvature="0" class="st4" d="M-1942.4,226.2l46.5,30.5l20.9-31.9l-7.8-5.1l-14.8,22.5
						l-11.1-7.3l12.8-19.5l-7.8-5.1l-12.8,19.5l-19.7-12.9L-1942.4,226.2L-1942.4,226.2z"/>
					<path id="path34" inkscape:connector-curvature="0" class="st4" d="M-1893.2,199.5c4,4,7.9,6.8,11.8,8.4c2.9,1.1,5.9,1.7,9,1.8
						c3.1,0.1,6-0.4,8.6-1.5c3.5-1.4,6.8-3.7,10.1-6.9c5.8-5.8,8.7-12.2,8.6-19.2c-0.1-7.1-3.3-13.8-9.7-20.3
						c-6.3-6.4-13-9.7-20-9.8c-7-0.2-13.5,2.6-19.3,8.4c-5.9,5.8-8.8,12.2-8.7,19.2C-1902.6,186.5-1899.4,193.2-1893.2,199.5
						 M-1884.7,191.6c-4.4-4.5-6.8-8.9-7-13.3c-0.2-4.4,1.3-8.1,4.4-11.3c3.2-3.2,6.9-4.6,11.3-4.3c4.3,0.3,8.7,2.7,13.3,7.3
						c4.5,4.5,6.8,8.9,7.1,13.1c0.2,4.2-1.3,7.9-4.6,11.2c-3.3,3.3-7.1,4.8-11.3,4.5C-1875.8,198.6-1880.2,196.2-1884.7,191.6
						L-1884.7,191.6z"/>
					<path id="path36" inkscape:connector-curvature="0" class="st4" d="M-1842.5,152.8c3.7,4.3,7.4,7.4,11.2,9.2
						c2.8,1.3,5.8,2.2,8.9,2.4c3.1,0.3,6,0,8.7-0.8c3.6-1.1,7.1-3.2,10.5-6.1c6.2-5.3,9.6-11.5,10-18.6c0.4-7.1-2.3-14-8.2-20.9
						c-5.8-6.8-12.3-10.6-19.3-11.3c-7-0.7-13.6,1.6-19.8,6.9c-6.3,5.4-9.6,11.5-10.1,18.6C-1850.9,139.2-1848.2,146.1-1842.5,152.8
						 M-1833.5,145.6c-4.1-4.8-6.1-9.4-6-13.7c0.1-4.4,1.9-8,5.3-10.9c3.4-2.9,7.3-4.1,11.5-3.5c4.3,0.6,8.5,3.3,12.7,8.3
						c4.1,4.9,6.2,9.4,6.1,13.6c-0.1,4.2-1.9,7.8-5.4,10.8c-3.5,3-7.4,4.2-11.6,3.7C-1825.1,153.2-1829.3,150.5-1833.5,145.6z"/>
					<path id="path38" inkscape:connector-curvature="0" class="st4" d="M-1788.1,83.8l19.1,42.1l-14.9,6.8l3.9,8.5l40.1-18.1
						l-3.9-8.5l-14.9,6.8l-19.1-42.1L-1788.1,83.8L-1788.1,83.8z"/>
					<path id="path40" inkscape:connector-curvature="0" class="st4" d="M-1735,121.8l21.5-5.5c4.3-1.1,7.4-2.1,9.4-3
						c2-0.9,3.7-2.1,5-3.7c1.4-1.5,2.4-3.4,3-5.5c0.6-2.2,0.6-4.4,0.1-6.7c-0.6-2.5-1.9-4.7-3.8-6.4c-1.9-1.8-4.1-2.9-6.7-3.3
						c3-1.8,5.1-4.1,6.3-6.8c1.2-2.8,1.4-5.7,0.6-8.8c-0.6-2.5-1.8-4.7-3.5-6.7c-1.7-2-3.7-3.5-6.1-4.4c-2.3-0.9-5-1.1-7.9-0.7
						c-1.9,0.3-6.3,1.3-13.2,3l-18.3,4.7L-1735,121.8 M-1731.9,88.7l-3.7-14.4l10.1-2.6c3.9-1,6.4-1.5,7.5-1.6
						c1.7-0.1,3.2,0.3,4.5,1.1c1.3,0.9,2.2,2.3,2.7,4.2c0.4,1.6,0.4,3.1-0.1,4.4c-0.5,1.3-1.4,2.4-2.8,3.3c-1.4,0.9-4.5,2-9.4,3.2
						L-1731.9,88.7 M-1726.4,110.1l-3.2-12.4l7.1-1.8c4.2-1.1,6.9-1.7,7.9-1.8c1.9-0.3,3.5,0,4.9,0.8c1.3,0.8,2.2,2.1,2.7,3.8
						c0.4,1.7,0.3,3.1-0.3,4.4c-0.7,1.3-1.9,2.2-3.6,2.9c-1,0.4-4.1,1.2-9.2,2.5C-1720.2,108.5-1726.4,110.1-1726.4,110.1z"/>
					<path id="path42" inkscape:connector-curvature="0" class="st4" d="M-1639.3,47l-12,1.5l-3.1,13.1l-22.1,2.8l-6.1-11.9
						l-11.9,1.5l28.3,52.4l12-1.5L-1639.3,47 M-1656.8,71.5l-5.1,21.5l-10-19.6L-1656.8,71.5z"/>
					<path id="path44" inkscape:connector-curvature="0" class="st4" d="M-1624.1,48.1l-5.9,54.8l11.1,1.2l4.9-45.4l27.8,3l1-9.3
						C-1585.2,52.3-1624.1,48.1-1624.1,48.1z"/>
					<path id="path46" inkscape:connector-curvature="0" class="st4" d="M-1570.1,56.2l-13.7,53.3l10.9,2.8l11.4-44.3l27,7l2.3-9.1
						C-1532.2,66-1570.1,56.2-1570.1,56.2z"/>
					<path id="path50" inkscape:connector-curvature="0" class="st4" d="M-1438.3,109.6l-32.5,44.5l9.1,6.6l26.9-36.9l22.6,16.5
						l5.5-7.6L-1438.3,109.6z"/>
					<path id="path52" inkscape:connector-curvature="0" class="st4" d="M-1434.7,184.3l7.7,8.1l21.8-20.9c3.5-3.3,5.8-5.4,7-6.1
						c2-1.2,4.1-1.7,6.3-1.3c2.2,0.3,4.4,1.6,6.6,3.9c2.2,2.3,3.4,4.5,3.5,6.5c0.2,2.1-0.3,3.9-1.5,5.4c-1.1,1.6-3.3,3.9-6.5,6.9
						l-22.3,21.3l7.7,8.1l21.2-20.2c4.8-4.6,8-8.1,9.6-10.5c1.6-2.3,2.5-4.8,2.7-7.3c0.2-2.5-0.2-5.1-1.2-7.9
						c-1.1-2.7-3.1-5.7-6.1-8.9c-3.7-3.8-6.9-6.3-9.7-7.4c-2.8-1.1-5.4-1.6-7.9-1.4c-2.5,0.2-4.7,0.9-6.6,2c-2.8,1.7-6.5,4.7-11,9
						L-1434.7,184.3z"/>
					<path id="path54" inkscape:connector-curvature="0" class="st4" d="M-1397.8,222.4l12.2,18.5c2.4,3.7,4.4,6.3,5.9,7.9
						c1.5,1.6,3.2,2.8,5.1,3.6c1.9,0.8,4,1.1,6.2,1c2.2-0.1,4.4-0.8,6.4-2.1c2.2-1.4,3.8-3.3,4.8-5.7c1-2.4,1.4-4.8,1-7.4
						c2.7,2.3,5.5,3.5,8.5,3.7c3,0.2,5.8-0.6,8.5-2.3c2.1-1.4,3.9-3.2,5.2-5.5c1.4-2.3,2.1-4.7,2.2-7.2c0.1-2.5-0.6-5.1-1.9-7.7
						c-0.9-1.7-3.2-5.5-7.1-11.5l-10.4-15.8L-1397.8,222.4 M-1383.9,226.7l10.7-7l4,6.1c2.4,3.7,3.8,6,4.3,6.9
						c0.9,1.7,1.1,3.4,0.8,4.9c-0.3,1.5-1.2,2.8-2.7,3.8c-1.4,0.9-2.9,1.3-4.3,1.1c-1.4-0.2-2.7-1-3.9-2.5c-0.7-0.9-2.5-3.5-5.4-7.9
						L-1383.9,226.7 M-1365.4,214.6l12.4-8.2l5.7,8.7c2.2,3.4,3.5,5.6,3.9,6.6c0.7,1.6,0.8,3.1,0.4,4.6c-0.4,1.5-1.4,2.8-3.1,3.9
						c-1.4,0.9-2.8,1.4-4.2,1.3c-1.4,0-2.8-0.5-4-1.5c-1.3-1-3.3-3.6-6.1-7.9L-1365.4,214.6L-1365.4,214.6z"/>
					<path id="path12501" inkscape:connector-curvature="0" class="st4" d="M-1487.6,142c-15.9,0-28.8-12.9-28.8-28.8c0,0,0,0,0,0
						c0-15.9,12.9-28.8,28.8-28.8l0,0c15.9,0,28.8,12.9,28.8,28.8c0,0,0,0,0,0c0,2.1-0.2,4.1-0.7,6.2l-11.7-3.2
						c0.2-1.1,0.3-2.3,0.3-3.4c0-9.7-7.6-17.6-17-17.6c-9.4,0-17,7.9-17,17.6c0,0,0,0,0,0c0,9.7,7.6,17.6,17,17.6c0,0,0,0,0,0
						c4.9,0,9.6-2.2,12.8-6.1l8.8,8.1C-1471.6,138.5-1479.4,142-1487.6,142L-1487.6,142z"/>
				</g>
			</g>
			<g id="g12589" transform="translate(1131.1969,0)">
				<g id="g12565">
					<path id="rect12551" inkscape:connector-curvature="0" sodipodi:nodetypes="cccccccc" class="st4" d="M-1997.3,450.3v-10.4h8.9
						v-45.9h11v45.9v10.4L-1997.3,450.3z"/>
					<path id="path12556" inkscape:connector-curvature="0" class="st4" d="M-1944.8,450.3c-12.3,0-22.2-8.8-22.2-19.6c0,0,0,0,0,0
						c0-10.8,9.9-19.6,22.2-19.6c0.1,0,0.3,0,0.4,0l-12.5-17.2h13.2l16.9,25.3c2.7,3.3,4.2,7.3,4.2,11.4
						C-1922.6,441.5-1932.6,450.3-1944.8,450.3C-1944.8,450.3-1944.8,450.3-1944.8,450.3z M-1945,440.1c5.3,0,9.6-4.3,9.6-9.6
						c0,0,0,0,0,0c0-5.3-4.3-9.6-9.6-9.6c-5.3,0-9.6,4.3-9.6,9.6C-1954.6,435.8-1950.3,440.1-1945,440.1
						C-1945,440.1-1945,440.1-1945,440.1z"/>
				</g>
				<g id="g12585" transform="translate(0,0.46466)">
					<path id="path12569" inkscape:connector-curvature="0" sodipodi:nodetypes="ccccccc" class="st5" d="M-1269.3,449.9h-42.4v-9.4
						h27.2l-22.9-47.1h11.6L-1269.3,449.9z"/>
					<path id="path12571" inkscape:connector-curvature="0" sodipodi:nodetypes="ccccccscccccccc" class="st5" d="M-1358.1,449.8
						v-9.2h21.6l-14.3-17l2.2-2.1c2.9,0.9,6,1.8,9,1.9c6.7,0,11.1-4.6,11.1-10.3c0-5.7-4.5-9.7-11.3-9.7c-6.6,0-11.9,3.8-12,9.4
						l-9.9-5.1c2.8-8.4,11.8-14.2,22.1-14.2c12.7,0,23,8.7,23,19.5c0,8.6-6.6,16.1-16.2,18.6l14.8,18.2H-1358.1z"/>
				</g>
			</g>
		</g>
	</g>
	<g id="g12963" transform="matrix(0.94686495,0,0,0.94686495,874.41033,19.159753)">
		<g id="g12959">
			<path id="path12025" inkscape:connector-curvature="0" sodipodi:nodetypes="ccscsccc" class="st6" d="M-676.4,472.8V287
				c0.5-41.1,22.6-58.9,75-69.8c88-18.3,91.4-36.9,99.4-45.1c7.9,8.2,11.4,26.8,99.4,45.1c52.4,10.9,74.5,28.6,75,69.8v185.8H-676.4
				z"/>
			<path id="rect12030" inkscape:connector-curvature="0" sodipodi:nodetypes="ccccc" class="st7" d="M-676.2,596.8
				c116,13.3,233.1,12.3,351.2,0v-124h-351.2V596.8z"/>
		</g>
		<g id="g12713">
			<g id="g11944">
				<g id="g4065" transform="translate(-137.6,0)">
					<path id="path4067" inkscape:connector-curvature="0" sodipodi:nodetypes="ccsccsscscsccccssssssccccscs" class="st8" d="
						M-501.1,580.7c-6.9-6.1-11.8-12.7-11.8-21.2c0-9.5,6.8-18,8.4-27.5c0.2-1.5,0.5-4.2,0.4-5.9h6.4c-0.1,1.8,0.1,4.5,0.4,5.9
						c1.6,9.5,9.1,17.7,8.4,27.5C-489.6,570.1-493.9,573.9-501.1,580.7L-501.1,580.7z M-528.2,554.2c-1.7,0-3.4-0.2-5-0.7
						c-5.6-2.3-6.1-10.8-4.5-15.5c2-5.9,11.2-9.9,18.1-10.3c-1.4,2.3-4.6,9-1.1,8.8c4-0.3,6.8-6.2,8.2-10.4h6.6
						c-0.1,1.6-0.1,4.3-0.4,6c-0.8,4-3.3,12.6-7.7,16.5C-517.4,551.4-523,554.1-528.2,554.2L-528.2,554.2z M-473.6,554.2
						c-5.2,0-10.8-2.7-14.1-5.6c-4.4-3.9-6.9-12.5-7.7-16.5c-0.3-1.6-0.5-4.3-0.6-6h6.3c1.3,4.2,4.5,10.1,8.6,10.4
						c3.5,0.3,0.3-6.4-1.1-8.8c6.8,0.4,16.1,4.4,18.1,10.3c1.6,4.7,1.1,13.2-4.5,15.5C-470.1,554-471.8,554.2-473.6,554.2
						L-473.6,554.2z"/>
					<path id="path4069" inkscape:connector-curvature="0" sodipodi:nodetypes="cccccccc" class="st8" d="M-511.6,511.3
						c-3-4.3-9.4-8.3-14.4-11.6c6.1-0.3,11.9,1.6,17.2,3.5c0.1-6.1,1.6-10.8,7.6-15.3c6.4,4.3,8.4,11.5,8.2,15.3
						c5.3-1.9,11.1-3.8,17.2-3.5c-5,3.3-11.5,7.3-14.4,11.6H-511.6z"/>
					<path id="rect4071" inkscape:connector-curvature="0" class="st9" d="M-513.1,523.6h24.5c3.1,0,5.6-2.1,5.6-4.7
						s-2.5-4.7-5.6-4.7h-24.5c-3.1,0-5.6,2.1-5.6,4.7S-516.2,523.6-513.1,523.6z"/>
				</g>
				<g id="g4073" transform="translate(-67.439716,91.83969)">
					<path id="path4077" inkscape:connector-curvature="0" sodipodi:nodetypes="cccccccc" class="st8" d="M-511.6,511.3
						c-3-4.3-9.4-8.3-14.4-11.6c6.1-0.3,11.9,1.6,17.2,3.5c0.1-6.1,1.6-10.8,7.6-15.3c6.4,4.3,8.4,11.5,8.2,15.3
						c5.3-1.9,11.1-3.8,17.2-3.5c-5,3.3-11.5,7.3-14.4,11.6H-511.6z"/>
				</g>
				<path id="path4083" inkscape:connector-curvature="0" sodipodi:nodetypes="ccccsc" class="st8" d="M-568.6,498.2
					c-6.9-6.1-11.8-12.7-11.8-21.2c0-1.1,0.1-1.8,0.3-2.9h23.7c0.1,0.9,0.1,1.9,0,2.9C-557.1,487.6-561.3,491.3-568.6,498.2
					L-568.6,498.2z"/>
			</g>
			<g id="g4060" transform="translate(-1.1952642,0)">
				<path id="path5932" inkscape:connector-curvature="0" sodipodi:nodetypes="ccsccsscscsccccssssssccccscs" class="st8" d="
					M-501.1,580.7c-6.9-6.1-11.8-12.7-11.8-21.2c0-9.5,6.8-18,8.4-27.5c0.2-1.5,0.5-4.2,0.4-5.9h6.4c-0.1,1.8,0.1,4.5,0.4,5.9
					c1.6,9.5,9.1,17.7,8.4,27.5C-489.6,570.1-493.9,573.9-501.1,580.7L-501.1,580.7z M-528.2,554.2c-1.7,0-3.4-0.2-5-0.7
					c-5.6-2.3-6.1-10.8-4.5-15.5c2-5.9,11.2-9.9,18.1-10.3c-1.4,2.3-4.6,9-1.1,8.8c4-0.3,6.8-6.2,8.2-10.4h6.6
					c-0.1,1.6-0.1,4.3-0.4,6c-0.8,4-3.3,12.6-7.7,16.5C-517.4,551.4-523,554.1-528.2,554.2L-528.2,554.2z M-473.6,554.2
					c-5.2,0-10.8-2.7-14.1-5.6c-4.4-3.9-6.9-12.5-7.7-16.5c-0.3-1.6-0.5-4.3-0.6-6h6.3c1.3,4.2,4.5,10.1,8.6,10.4
					c3.5,0.3,0.3-6.4-1.1-8.8c6.8,0.4,16.1,4.4,18.1,10.3c1.6,4.7,1.1,13.2-4.5,15.5C-470.1,554-471.8,554.2-473.6,554.2
					L-473.6,554.2z"/>
				<path id="path5926" inkscape:connector-curvature="0" sodipodi:nodetypes="cccccccc" class="st8" d="M-511.6,511.3
					c-3-4.3-9.4-8.3-14.4-11.6c6.1-0.3,11.9,1.6,17.2,3.5c0.1-6.1,1.6-10.8,7.6-15.3c6.4,4.3,8.4,11.5,8.2,15.3
					c5.3-1.9,11.1-3.8,17.2-3.5c-5,3.3-11.5,7.3-14.4,11.6H-511.6z"/>
				<path id="rect4050" inkscape:connector-curvature="0" class="st9" d="M-513.1,523.6h24.5c3.1,0,5.6-2.1,5.6-4.7
					s-2.5-4.7-5.6-4.7h-24.5c-3.1,0-5.6,2.1-5.6,4.7S-516.2,523.6-513.1,523.6z"/>
			</g>
			<g id="g11969" transform="matrix(-1,0,0,1,-1004.1776,0)">
				<g id="g11971" transform="translate(-137.6,0)">
					<path id="path11973" inkscape:connector-curvature="0" sodipodi:nodetypes="ccsccsscscsccccssssssccccscs" class="st8" d="
						M-501.1,580.7c-6.9-6.1-11.8-12.7-11.8-21.2c0-9.5,6.8-18,8.4-27.5c0.2-1.5,0.5-4.2,0.4-5.9h6.4c-0.1,1.8,0.1,4.5,0.4,5.9
						c1.6,9.5,9.1,17.7,8.4,27.5C-489.6,570.1-493.9,573.9-501.1,580.7L-501.1,580.7z M-528.2,554.2c-1.7,0-3.4-0.2-5-0.7
						c-5.6-2.3-6.1-10.8-4.5-15.5c2-5.9,11.2-9.9,18.1-10.3c-1.4,2.3-4.6,9-1.1,8.8c4-0.3,6.8-6.2,8.2-10.4h6.6
						c-0.1,1.6-0.1,4.3-0.4,6c-0.8,4-3.3,12.6-7.7,16.5C-517.4,551.4-523,554.1-528.2,554.2L-528.2,554.2z M-473.6,554.2
						c-5.2,0-10.8-2.7-14.1-5.6c-4.4-3.9-6.9-12.5-7.7-16.5c-0.3-1.6-0.5-4.3-0.6-6h6.3c1.3,4.2,4.5,10.1,8.6,10.4
						c3.5,0.3,0.3-6.4-1.1-8.8c6.8,0.4,16.1,4.4,18.1,10.3c1.6,4.7,1.1,13.2-4.5,15.5C-470.1,554-471.8,554.2-473.6,554.2
						L-473.6,554.2z"/>
					<path id="path11975" inkscape:connector-curvature="0" sodipodi:nodetypes="cccccccc" class="st8" d="M-511.6,511.3
						c-3-4.3-9.4-8.3-14.4-11.6c6.1-0.3,11.9,1.6,17.2,3.5c0.1-6.1,1.6-10.8,7.6-15.3c6.4,4.3,8.4,11.5,8.2,15.3
						c5.3-1.9,11.1-3.8,17.2-3.5c-5,3.3-11.5,7.3-14.4,11.6H-511.6z"/>
					<path id="path11977" inkscape:connector-curvature="0" class="st9" d="M-513.1,523.6h24.5c3.1,0,5.6-2.1,5.6-4.7
						s-2.5-4.7-5.6-4.7h-24.5c-3.1,0-5.6,2.1-5.6,4.7S-516.2,523.6-513.1,523.6z"/>
				</g>
				<g id="g11979" transform="translate(-67.439716,91.83969)">
					<path id="path11981" inkscape:connector-curvature="0" sodipodi:nodetypes="cccccccc" class="st8" d="M-511.6,511.3
						c-3-4.3-9.4-8.3-14.4-11.6c6.1-0.3,11.9,1.6,17.2,3.5c0.1-6.1,1.6-10.8,7.6-15.3c6.4,4.3,8.4,11.5,8.2,15.3
						c5.3-1.9,11.1-3.8,17.2-3.5c-5,3.3-11.5,7.3-14.4,11.6H-511.6z"/>
				</g>
				<path id="path11983" inkscape:connector-curvature="0" sodipodi:nodetypes="ccccsc" class="st8" d="M-568.6,498.2
					c-6.9-6.1-11.8-12.7-11.8-21.2c0-1.1,0.1-1.8,0.3-2.9h23.7c0.1,0.9,0.1,1.9,0,2.9C-557.1,487.6-561.3,491.3-568.6,498.2
					L-568.6,498.2z"/>
			</g>
		</g>
		<g id="g12955">
			<path id="path12306" inkscape:connector-curvature="0" sodipodi:nodetypes="ccccc" class="st9" d="M-498.2,472V175.2h-7.7V472
				H-498.2z"/>
			<path id="rect12028" inkscape:connector-curvature="0" class="st9" d="M-677.7,476.8h351.2v-12h-351.2V476.8z"/>
		</g>
		<g id="g12806">
			<g id="g12224" transform="matrix(1.0087007,0,0,1,4.2354517,0)">
				
					<path id="path5009" inkscape:connector-curvature="0" sodipodi:nodetypes="ccccccccccccccccccccccscccccccccsscccccccccccccccccccccccccccccccccccccccccccccccccsccccsssccsscc" class="st5" d="
					M-627.4,442.8v-92.4c-0.9,0.8-2.1,1.2-3.4,1.2c-1.2,0-2.5-0.4-3.4-1.2v52.2h-5.2v-10.4h-5.2v10.4h-5.2v-10.4h-5.2v10.4h-5.2
					v-10.4h-5.2v10.4h-5.2v-125h1h45.8l-0.1,23.3c-0.4,6.7,1.1,12.7,4.1,17c2.2,3.2,5.1,5.5,8.5,6.5c-0.6,0.9-0.9,2-1,3.1l0,0v0v2.9
					h9.3v-2.9v0c0-1.1-0.4-2.2-1-3.1c3.4-1,6.2-3.3,8.3-6.6c2.8-4.3,4.3-10.3,4.3-16.9v-23.3h48.5v125h-5.2v-10.4h-5.2v10.4h-5.2
					v-10.4h-5.2v10.4h-5.2v-10.4h-5.2v10.4h-5.2h0v-52.2c-1.7,1.9-5.1,1.6-6.6,0v92.4h-5v-14.6h-4.5v14.6h-4.5v-14.6h-4.5v14.6h-4.5
					v-14.6h-4.5v14.6h-4.5v-14.6h-4.5v14.6L-627.4,442.8z M-611.4,329.3v-1.8c0-1,0.4-2.1,1-2.9c0.9,0.2,1.8,0.2,2.7,0.2l0,0
					c0,0,0,0,0,0c0.8,0,1.6-0.1,2.4-0.2c0,0,0,0,0.1,0.1c0.6,0.8,1,1.8,1,2.8v1.8L-611.4,329.3z M-607.6,323.8
					c-4.7,0.1-8.7-2.4-11.5-6.5c-2.8-4.1-4.3-9.9-3.9-16.4l0,0l0.1-23.3h2.4V300c0,8.6,3.5,21,12.8,21.2
					c8.7,0.2,12.8-12.1,12.8-21.2v-22.3h2.4v23.3c0,6.5-1.5,12.3-4.1,16.4C-599.3,321.3-603,323.8-607.6,323.8L-607.6,323.8z"/>
				<g id="g12178">
					<g id="g12149">
						<path id="path5017" inkscape:connector-curvature="0" class="st10" d="M-668.4,337.3c1,0,1.9-0.9,1.9-2v-4.4h-3.8v4.4
							C-670.3,336.4-669.5,337.3-668.4,337.3z"/>
						<g id="use2541" transform="translate(4.7371176,-2.9287033e-5)">
							<path id="path5017_00000036209254202101822470000001871470288162001325_" inkscape:connector-curvature="0" class="st10" d="
								M-663.7,337.3c1,0,1.9-0.9,1.9-2v-4.4h-3.8v4.4C-665.6,336.4-664.7,337.3-663.7,337.3z"/>
						</g>
						<g id="use2543" transform="translate(9.474209,-2.9287033e-5)">
							<path id="path5017_00000026158305676901316230000005167088663020559283_" inkscape:connector-curvature="0" class="st10" d="
								M-659,337.3c1,0,1.9-0.9,1.9-2v-4.4h-3.8v4.4C-660.8,336.4-660,337.3-659,337.3z"/>
						</g>
						<g id="use2545" transform="translate(9.4741826,-2.9287033e-5)">
							<g id="use2541_00000103983576103223241160000007432097798867693978_" transform="translate(4.7371176,-2.9287033e-5)">
								
									<path id="path5017_00000122722647456717606350000010307947858871792279_" inkscape:connector-curvature="0" class="st10" d="
									M-654.2,337.3c1,0,1.9-0.9,1.9-2v-4.4h-3.8v4.4C-656.1,336.4-655.3,337.3-654.2,337.3z"/>
							</g>
						</g>
						<g id="use2547" transform="translate(18.94844,-2.9287033e-5)">
							<path id="path5017_00000032645662534421844220000008049150400595019161_" inkscape:connector-curvature="0" class="st10" d="
								M-649.5,337.3c1,0,1.9-0.9,1.9-2v-4.4h-3.8v4.4C-651.4,336.4-650.5,337.3-649.5,337.3z"/>
						</g>
						<g id="use2549" transform="translate(18.948414,-2.9287033e-5)">
							<g id="use2541_00000119103674378346994830000014232448825039277452_" transform="translate(4.7371176,-2.9287033e-5)">
								
									<path id="path5017_00000082334317205619831460000015523039416056560530_" inkscape:connector-curvature="0" class="st10" d="
									M-644.7,337.3c1,0,1.9-0.9,1.9-2v-4.4h-3.8v4.4C-646.6,336.4-645.8,337.3-644.7,337.3z"/>
							</g>
						</g>
						<g id="use2551" transform="translate(18.948416,-2.9287033e-5)">
							<g id="use2543_00000165947967342519280940000008462142466755766712_" transform="translate(9.474209,-2.9287033e-5)">
								
									<path id="path5017_00000175316683863333341950000007941707022873493127_" inkscape:connector-curvature="0" class="st10" d="
									M-640,337.3c1,0,1.9-0.9,1.9-2v-4.4h-3.8v4.4C-641.9,336.4-641,337.3-640,337.3z"/>
							</g>
						</g>
						<g id="use2553" transform="translate(18.948463,-2.9287033e-5)">
							<g id="use2545_00000145025185616433134210000007159721521754248631_" transform="translate(9.4741826,-2.9287033e-5)">
								<g id="use2541_00000074442361196985387530000002938499959077113257_" transform="translate(4.7371176,-2.9287033e-5)">
									
										<path id="path5017_00000057123069335296936580000017671334158155011748_" inkscape:connector-curvature="0" class="st10" d="
										M-635.3,337.3c1,0,1.9-0.9,1.9-2v-4.4h-3.8v4.4C-637.1,336.4-636.3,337.3-635.3,337.3z"/>
								</g>
							</g>
						</g>
						<g id="use2555" transform="translate(37.896856,-2.9287033e-5)">
							<path id="path5017_00000152974607422882364130000017225226120150974133_" inkscape:connector-curvature="0" class="st10" d="
								M-630.5,337.3c1,0,1.9-0.9,1.9-2v-4.4h-3.8v4.4C-632.4,336.4-631.6,337.3-630.5,337.3z"/>
						</g>
						<g id="use2557" transform="translate(37.896876,-2.9287033e-5)">
							<g id="use2541_00000084497489932973920810000012986028224711187370_" transform="translate(4.7371176,-2.9287033e-5)">
								
									<path id="path5017_00000075132448472951307260000000222742885757234332_" inkscape:connector-curvature="0" class="st10" d="
									M-625.8,337.3c1,0,1.9-0.9,1.9-2v-4.4h-3.8v4.4C-627.7,336.4-626.8,337.3-625.8,337.3z"/>
							</g>
						</g>
						<g id="use2559" transform="translate(37.896879,-2.9287033e-5)">
							<g id="use2543_00000129918182863560741410000000388114750652674232_" transform="translate(9.474209,-2.9287033e-5)">
								
									<path id="path5017_00000101066061927345750850000011063104083539575487_" inkscape:connector-curvature="0" class="st10" d="
									M-621.1,337.3c1,0,1.9-0.9,1.9-2v-4.4h-3.8v4.4C-622.9,336.4-622.1,337.3-621.1,337.3z"/>
							</g>
						</g>
						<g id="use2561" transform="translate(37.896878,-2.9287033e-5)">
							<g id="use2545_00000101072583989072927440000001500604908286972321_" transform="translate(9.4741826,-2.9287033e-5)">
								<g id="use2541_00000005252316607040147040000012333401244465783720_" transform="translate(4.7371176,-2.9287033e-5)">
									
										<path id="path5017_00000108267148801664037320000009306463930136095932_" inkscape:connector-curvature="0" class="st10" d="
										M-616.3,337.3c1,0,1.9-0.9,1.9-2v-4.4h-3.8v4.4C-618.2,336.4-617.4,337.3-616.3,337.3z"/>
								</g>
							</g>
						</g>
						<g id="use2563" transform="translate(37.896829,-2.9287033e-5)">
							<g id="use2547_00000119091485510366365700000004409878994553234611_" transform="translate(18.94844,-2.9287033e-5)">
								
									<path id="path5017_00000122708957482099660600000000012701371456356225_" inkscape:connector-curvature="0" class="st10" d="
									M-611.6,337.3c1,0,1.9-0.9,1.9-2v-4.4h-3.8v4.4C-613.5,336.4-612.6,337.3-611.6,337.3z"/>
							</g>
						</g>
						<g id="use2565" transform="translate(37.896829,-2.9287033e-5)">
							<g id="use2549_00000081649151348335901710000003053587037179849894_" transform="translate(18.948414,-2.9287033e-5)">
								<g id="use2541_00000176013759515072787940000003029089593283500965_" transform="translate(4.7371176,-2.9287033e-5)">
									
										<path id="path5017_00000171695085981469669000000014533867043872173231_" inkscape:connector-curvature="0" class="st10" d="
										M-606.8,337.3c1,0,1.9-0.9,1.9-2v-4.4h-3.8v4.4C-608.7,336.4-607.9,337.3-606.8,337.3z"/>
								</g>
							</g>
						</g>
						<g id="use2567" transform="translate(37.896828,-2.9287033e-5)">
							<g id="use2551_00000057139157223345262660000000055321159011085721_" transform="translate(18.948416,-2.9287033e-5)">
								<g id="use2543_00000160183332348295841080000010483260643821361335_" transform="translate(9.474209,-2.9287033e-5)">
									
										<path id="path5017_00000170277819382806732120000016491885151309639084_" inkscape:connector-curvature="0" class="st10" d="
										M-602.1,337.3c1,0,1.9-0.9,1.9-2v-4.4h-3.8v4.4C-604,336.4-603.1,337.3-602.1,337.3z"/>
								</g>
							</g>
						</g>
						<g id="use2569" transform="translate(37.896829,-2.9287033e-5)">
							<g id="use2553_00000059279132532706988460000011284263309539841922_" transform="translate(18.948463,-2.9287033e-5)">
								<g id="use2545_00000139995775503644315290000013271508882614596510_" transform="translate(9.4741826,-2.9287033e-5)">
									<g id="use2541_00000031924578213644817250000011482543952257302927_" transform="translate(4.7371176,-2.9287033e-5)">
										
											<path id="path5017_00000134961668309569857650000005884528954815732367_" inkscape:connector-curvature="0" class="st10" d="
											M-597.4,337.3c1,0,1.9-0.9,1.9-2v-4.4h-3.8v4.4C-599.2,336.4-598.4,337.3-597.4,337.3z"/>
									</g>
								</g>
							</g>
						</g>
						<g id="use2571" transform="translate(37.896828,-2.9287033e-5)">
							<g id="use2555_00000150094687864952482960000011785547564104021949_" transform="translate(37.896856,-2.9287033e-5)">
								
									<path id="path5017_00000119079089824114630000000013056578487843165852_" inkscape:connector-curvature="0" class="st10" d="
									M-592.6,337.3c1,0,1.9-0.9,1.9-2v-4.4h-3.8v4.4C-594.5,336.4-593.7,337.3-592.6,337.3z"/>
							</g>
						</g>
						<g id="use2573" transform="translate(37.89683,-2.9287033e-5)">
							<g id="use2557_00000100343421015434219300000000366639208772322438_" transform="translate(37.896876,-2.9287033e-5)">
								<g id="use2541_00000090292161002262648870000015790827090164017584_" transform="translate(4.7371176,-2.9287033e-5)">
									
										<path id="path5017_00000135651496448314218360000013792521478635898001_" inkscape:connector-curvature="0" class="st10" d="
										M-587.9,337.3c1,0,1.9-0.9,1.9-2v-4.4h-3.8v4.4C-589.8,336.4-588.9,337.3-587.9,337.3z"/>
								</g>
							</g>
						</g>
						<g id="use2575" transform="translate(37.896829,-2.9287033e-5)">
							<g id="use2559_00000149351196283692341170000003424309221153726619_" transform="translate(37.896879,-2.9287033e-5)">
								<g id="use2543_00000068669805246943025610000010082029360737961121_" transform="translate(9.474209,-2.9287033e-5)">
									
										<path id="path5017_00000090984639382538542610000014475815232393180549_" inkscape:connector-curvature="0" class="st10" d="
										M-583.2,337.3c1,0,1.9-0.9,1.9-2v-4.4h-3.8v4.4C-585,336.4-584.2,337.3-583.2,337.3z"/>
								</g>
							</g>
						</g>
						<g id="use2577" transform="translate(37.896829,-2.9287033e-5)">
							<g id="use2561_00000178203253355594251740000013677522372999247537_" transform="translate(37.896878,-2.9287033e-5)">
								<g id="use2545_00000073695985717085235740000001732250174855724462_" transform="translate(9.4741826,-2.9287033e-5)">
									<g id="use2541_00000139981769944608088530000003334609091105475220_" transform="translate(4.7371176,-2.9287033e-5)">
										
											<path id="path5017_00000029043824857790467590000007533683195106346656_" inkscape:connector-curvature="0" class="st10" d="
											M-578.4,337.3c1,0,1.9-0.9,1.9-2v-4.4h-3.8v4.4C-580.3,336.4-579.5,337.3-578.4,337.3z"/>
									</g>
								</g>
							</g>
						</g>
						<g id="use2579" transform="translate(42.633988,-2.9287033e-5)">
							<g id="use2563_00000101801568023647227520000006242211183978125449_" transform="translate(37.896829,-2.9287033e-5)">
								<g id="use2547_00000081637709991612942570000017530787011150551436_" transform="translate(18.94844,-2.9287033e-5)">
									
										<path id="path5017_00000052072869472986461600000016438672708761319601_" inkscape:connector-curvature="0" class="st10" d="
										M-568.9,337.3c1,0,1.9-0.9,1.9-2v-4.4h-3.8v4.4C-570.8,336.4-570,337.3-568.9,337.3z"/>
								</g>
							</g>
						</g>
						<g id="use2581" transform="translate(47.371096,-2.9287033e-5)">
							<g id="use2565_00000090977146519640693920000013677906158669179809_" transform="translate(37.896829,-2.9287033e-5)">
								<g id="use2549_00000176748286926450257180000001250934565214519226_" transform="translate(18.948414,-2.9287033e-5)">
									<g id="use2541_00000101090668318883658810000016145537852473523585_" transform="translate(4.7371176,-2.9287033e-5)">
										
											<path id="path5017_00000018930975167238446290000015348465731892478081_" inkscape:connector-curvature="0" class="st10" d="
											M-559.5,337.3c1,0,1.9-0.9,1.9-2v-4.4h-3.8v4.4C-561.4,336.4-560.5,337.3-559.5,337.3z"/>
									</g>
								</g>
							</g>
						</g>
						<g id="use2583" transform="translate(52.108207,-2.9287033e-5)">
							<g id="use2567_00000083058143620262995800000011495556968726973883_" transform="translate(37.896828,-2.9287033e-5)">
								<g id="use2551_00000086691630939710713410000012951712074667070611_" transform="translate(18.948416,-2.9287033e-5)">
									<g id="use2543_00000074424099411412004190000003415454767694462879_" transform="translate(9.474209,-2.9287033e-5)">
										
											<path id="path5017_00000172406764915155359680000016072603083710036656_" inkscape:connector-curvature="0" class="st10" d="
											M-550,337.3c1,0,1.9-0.9,1.9-2v-4.4h-3.8v4.4C-551.9,336.4-551,337.3-550,337.3z"/>
									</g>
								</g>
							</g>
						</g>
						<g id="use2585" transform="translate(23.685551,-2.9287033e-5)">
							<g id="use2569_00000098212939285283313330000006397007776999070376_" transform="translate(37.896829,-2.9287033e-5)">
								<g id="use2553_00000030468725610241341570000003028764613813146797_" transform="translate(18.948463,-2.9287033e-5)">
									<g id="use2545_00000067219239069696270810000010665622774361190051_" transform="translate(9.4741826,-2.9287033e-5)">
										<g id="use2541_00000088811700812820717930000005686703634679091861_" transform="translate(4.7371176,-2.9287033e-5)">
											
												<path id="path5017_00000020371082760983946780000001940859603773936537_" inkscape:connector-curvature="0" class="st10" d="
												M-573.7,337.3c1,0,1.9-0.9,1.9-2v-4.4h-3.8v4.4C-575.6,336.4-574.7,337.3-573.7,337.3z"/>
										</g>
									</g>
								</g>
							</g>
						</g>
						<g id="use2587" transform="translate(104.21634,-2.9287033e-5)">
							<path id="path5017_00000158011462240247879430000014936012699819070636_" inkscape:connector-curvature="0" class="st10" d="
								M-564.2,337.3c1,0,1.9-0.9,1.9-2v-4.4h-3.8v4.4C-566.1,336.4-565.2,337.3-564.2,337.3z"/>
						</g>
						<g id="use2589" transform="translate(108.95342,-2.9287033e-5)">
							<g id="use2541_00000127763567857840608600000012129237648153318273_" transform="translate(4.7371176,-2.9287033e-5)">
								
									<path id="path5017_00000098216381892712746800000008133302828974027943_" inkscape:connector-curvature="0" class="st10" d="
									M-554.7,337.3c1,0,1.9-0.9,1.9-2v-4.4h-3.8v4.4C-556.6,336.4-555.8,337.3-554.7,337.3z"/>
							</g>
						</g>
						<g id="use2591" transform="translate(113.69059,-2.9287033e-5)">
							<g id="use2543_00000120534817354113993710000001833987432195691909_" transform="translate(9.474209,-2.9287033e-5)">
								
									<path id="path5017_00000002385272457758838150000008978367585548298171_" inkscape:connector-curvature="0" class="st10" d="
									M-545.3,337.3c1,0,1.9-0.9,1.9-2v-4.4h-3.8v4.4C-547.1,336.4-546.3,337.3-545.3,337.3z"/>
							</g>
						</g>
					</g>
					<g id="g12044">
						<g id="g12036">
							<g id="use4935" transform="matrix(1.6023132,0,0,1.322884,440.23778,-97.558513)">
								
									<path id="path5017_00000089536749952457838140000003675339329543305903_" inkscape:connector-curvature="0" class="st10" d="
									M-630.8,348.6c1.7,0,3-1.2,3-2.6v-5.9h-6v5.9C-633.8,347.5-632.5,348.6-630.8,348.6z"/>
							</g>
							<g id="use4987" transform="matrix(1.6023132,0,0,1.322884,488.08578,-97.558513)">
								
									<path id="path5017_00000039113199299398641710000009065447299241378713_" inkscape:connector-curvature="0" class="st10" d="
									M-582.9,348.6c1.7,0,3-1.2,3-2.6v-5.9h-6v5.9C-586,347.5-584.6,348.6-582.9,348.6z"/>
							</g>
						</g>
						<g id="g4995" transform="translate(0.05050869,0)">
							<g id="use4989" transform="matrix(2.0492685,0,0,1.968652,708.09627,-286.32033)">
								
									<path id="path5017_00000067914655868877406280000013831444102107530677_" inkscape:connector-curvature="0" class="st10" d="
									M-661.7,377.7c2.1,0,3.8-1.7,3.8-3.9v-8.7h-7.7v8.7C-665.5,376-663.8,377.7-661.7,377.7z"/>
							</g>
							<g id="use4993" transform="matrix(2.0492685,0,0,1.968652,725.69627,-286.32033)">
								
									<path id="path5017_00000132047413911351135630000016702176701074721448_" inkscape:connector-curvature="0" class="st10" d="
									M-644.1,377.7c2.1,0,3.9-1.7,3.9-3.9v-8.7h-7.7v8.7C-647.9,376-646.2,377.7-644.1,377.7z"/>
							</g>
						</g>
						<g id="g4999" transform="translate(91.620109,0)">
							<g id="use5001" transform="matrix(2.0492685,0,0,1.968652,708.09627,-286.32033)">
								
									<path id="path5017_00000168092104939753374930000007913812733716368301_" inkscape:connector-curvature="0" class="st10" d="
									M-661.7,377.7c2.1,0,3.9-1.7,3.9-3.9v-8.7h-7.7v8.7C-665.5,376-663.8,377.7-661.7,377.7z"/>
							</g>
							<g id="use5003" transform="matrix(2.0492685,0,0,1.968652,725.69627,-286.32033)">
								
									<path id="path5017_00000133505448979956470580000015806813003210016694_" inkscape:connector-curvature="0" class="st10" d="
									M-644.1,377.7c2.1,0,3.9-1.7,3.9-3.9v-8.7h-7.7v8.7C-647.9,376-646.2,377.7-644.1,377.7z"/>
							</g>
						</g>
						<g id="g5008" transform="translate(46.088109,32)">
							<g id="use5010" transform="matrix(2.0492685,0,0,1.968652,708.09627,-286.32033)">
								
									<path id="path5017_00000162328816409810198700000005577746988656677770_" inkscape:connector-curvature="0" class="st10" d="
									M-661.7,377.7c2.1,0,3.9-1.7,3.9-3.9v-8.7h-7.7v8.7C-665.5,376-663.8,377.7-661.7,377.7z"/>
							</g>
							<g id="use5012" transform="matrix(2.0492685,0,0,1.968652,725.69627,-286.32033)">
								
									<path id="path5017_00000024701324708619106780000011067643670213201852_" inkscape:connector-curvature="0" class="st10" d="
									M-644.1,377.7c2.1,0,3.9-1.7,3.9-3.9v-8.7h-7.7v8.7C-647.9,376-646.2,377.7-644.1,377.7z"/>
							</g>
						</g>
						<g id="g12040">
							<path id="rect10559" inkscape:connector-curvature="0" sodipodi:nodetypes="ccccc" class="st10" d="M-621,378.9h7.1v-18.8
								h-7.1V378.9z"/>
							<path id="rect10561" inkscape:connector-curvature="0" sodipodi:nodetypes="ccccc" class="st10" d="M-599.7,378.9h7.1v-18.8
								h-7.1V378.9z"/>
						</g>
					</g>
				</g>
			</g>
			<g id="g12735">
				<path id="circle10600" inkscape:connector-curvature="0" class="st9" d="M-519.1,304c-14.9,0-26.9-12.7-26.9-28.4l0,0
					c0-15.7,12-28.4,26.9-28.4l0,0c14.9,0,26.9,12.7,26.9,28.4l0,0C-492.2,291.3-504.2,304-519.1,304L-519.1,304z M-518,297.8
					c13.3,0,24-10.7,24-24l0,0c0-13.3-10.7-24-24-24l0,0c-13.3,0-24,10.7-24,24l0,0C-542,287.1-531.3,297.8-518,297.8L-518,297.8z"
					/>
				<path id="path2748" inkscape:connector-curvature="0" class="st5" d="M-518,293.1c-0.3,0-0.6,0-0.9-0.1
					c-2.7-0.6-7.9-1.7-8.4-3.6c2.3-0.1,7-5.5,2.5-2.8c-1.2,1.6-8.6,3.6-4,0.3c1.5-1.8,8.6-4.6,2.4-3.3c-2.8,0.8-5.7,6-8.3,4.7
					c0.9-4.4,5.7-7,10.4-6.6c0.4-2.5-4.5-0.7-5-3.4c-0.3-0.8,0.1-3.6-2.5-2.5c-1.1-1.4,3.9-2.9,0.1-3c-1.1-1.6,0.4-3.6-2.5-3.1
					c1.7-2.7-4.4,0.4-1.9-3c2.4-1.7-3.5-5.5,0.3-4.8c1.9,1.1,1.6,8.5,2.4,3.6c2-2.2-1.9-3.9,0-6.2c-0.3-0.8-0.5-1.2-0.7-1.3
					c0.4,0,0.3-0.2,0.6-0.3l0-1c0-0.2-0.2-0.2-0.2-0.4c0-0.3,0.7-0.2,0.7-0.7c0-0.3-0.4-1-0.4-1.2c0-0.4,0.6-0.2,0.6-0.8
					c0-0.2-0.4-1-0.4-1.2c0-0.3,0.2-0.4,0.2-0.6l0-0.5c-0.1,0-0.1-0.1-0.3-0.1c-0.2,0-0.4,0-0.5,0.1c0-0.2-0.1-0.4-0.1-0.6
					c3.3-2.6-0.9-7.2,0.8-10.8c1.4-2.8-3.3-0.8-0.5-3.7c2.6,0.2,2.3,3.2,2.1,4.8c3.5-0.9,1.2-7.7,5.6-5.6c0.8-1.8-2.1-4.5-1.4-1.3
					c-1.3-1-5.6,2.4-3.1-0.6c2.2-1.9,2.3-2.6-0.7-3c-3.9-0.5-5-2.5-8.4-4c-3.5-0.6-7.8-2.6-7.2-6.5c0-4.7-1.2-9.3-2.5-13.9
					c0-2.7,0.6-6.9,2.7-5.9c2.9-0.5,4.6,6,2.7,8.7c0.2,4.5,1.4,9.6,3.7,13.2c4.4,3.1,10.9,0.4,14.9,3.9c2.5-0.3,6-2.1,6.4,2
					c2.8-0.7-0.6-4.3,3.5-4.7c4.1-2.1,6,0.7,4.6,4c-0.1,3.4,2.9,2.8,1.4-0.6c-1.5-2.6,3.8-6.3,2.9-4.6c-2.7,2.5,1.6,2.5,2.8,2.8
					c-2.7,2.6,0.1,3.2,1.7,1.1c1.3,0.7,2.2,1.6,3.1,2.6c0-0.1,0-0.2,0-0.3l0.4,0c0.5,0.4,1.3,0.8,1.8,0.9c0.2,0,0.4-0.1,0.6,0
					c-0.5,0.1-1.2,0.5-1.4,0.5c-0.1,0-0.2-0.1-0.4-0.1c1.2,1.2,2.5,2,5,1.5c2.6-1.2-4.5-3.1,0.5-2.4c1.3,1.3,2.6,8.2,2.7,4
					c0.2,0.4,0.9,0.6,1.2,1c0,0.2,0,0.4,0,0.6c0,0.2,0.3,0.4,0.5,0.4c0.3,0,1-0.4,1-0.8c0-0.5-1.2-1.4-1.2-1.5
					c0-0.2,0.4-0.8,0.4-0.9c0-0.2-0.1-0.1-0.1-0.2c-0.1-0.1-0.1-0.1-0.3-0.1c-0.3,0-1.3,0.3-1.6,0.8c-1.1-2.2,2.4-2.2,1.3-3.4
					c1.2,1.3,1.7,2.5,3.7,1.6c3.5,0.9,1.3,5,3.9,7.3c-1.6,0.2-2.7,4.4-1,4.3c0.9,1.7,3.4-6.3,3.3-1.3c3.4,1.3,0.4-4.6,3.8-4.2
					c0.4-0.1,0.7-0.4,0.9-0.6c0,0.1,0.1,0.3,0.1,0.3c0,0.2-0.1,0.2-0.1,0.3c-0.3,0.2-0.8,0.3-0.8,0.7c0.2,0.4,0.4,0.4,0.6,0.4
					c0.1,0,0.2,0,0.3,0c1.3,0.1,1.5-0.4,1.5-1.3c0-0.9-0.3-1.7-0.6-2.6l-0.4,0c0,0-0.1,0.1-0.1,0.1c0-1.6-0.3-3.1,2.3-2.6
					c0,0.1,0.1,0.3,0.1,0.4c-0.5,0.3-1.1,0.1-1.1,0.7c0,0.4,0.6,0.6,0.9,0.6c0.5,0,0.8-0.3,1.1-0.2c0.2,0,0.7,0.2,1,0.3
					c0.2,0.1,0.4,0.3,0.5,0.5c0,0.1,0,0.4,0.1,0.6c0,0,0.2,0.2,0.4,0.2c0.5,0,0.9-0.4,0.9-0.7l0.1-1.3c-0.3-0.3-0.5-0.5-0.7-0.5
					c-0.2,0-0.7,0.1-0.9,0.1c-0.2,0-0.2-0.2-0.4-0.3c0.4-0.4,1.2-0.6,1.2-1.3c0-0.2-0.2-0.6-0.2-0.7c0-0.2,0.4-0.8,0.4-0.9
					c0-0.2-0.2-0.8-0.3-1.3c-0.2-0.1-0.3-0.2-0.5-0.2c-0.4,0-0.5,0.6-0.5,0.7c0,0.2,0.1,0.3,0.1,0.5c-0.3,0-0.7-0.2-0.9,0.1
					c-0.1,0.1-0.1,0.1-0.2,0.2c-0.2-0.4-0.8-0.2-1.4,1.4c-4.1-2.1-2.8,4-4.7,5.1c-1.2,1.1-2,3-3.5,0.5c0.5-1.3,2.1-5.6,2-1.4
					c4.5-0.4,0.2-7.9,6-6.8c1.1-2.5,4.9,0.6,6.4-2.3c3,1.4,2.9,0.2,2.8-2c1.8,5.6,1.6-3.1,2.5-4.7c0.8-4.3-0.2-9-1.2-13.3
					c-0.1-2.4-5.9-5.6-0.7-5.8c4.3-0.2,6.2,4,6,7.3c-0.5,5.4,1.4,10.9,3.5,16.1c-0.4,3.8-3.3,6.9-1.4,10.9c-0.1,4.2,3.5,7.1,1.2,11
					c1.7,5.2,1-1.9,3-3.1c-1.9-2.6-2.1-5.7-2.9-8.6c-1.4-2.4,1.2-7.4,0.3-2.2c-0.2,2.3,1.8,4.4,2.3,6.7c1.9-2.3-2.6-8.4,0.6-10.1
					c2.4,1.4,0.4,3.6,2.4,6c-0.5,3.4,2.3,7.3-0.4,10.7c1.9,3.6-2.3,6-2,9.4c-1.3,3.7-5.9,6-8,9.4c-3.9,1.7-7.9,3.3-12.4,2
					c-3.9,2.2-7.8-2.2-11.5-0.4c-3.9-0.1-6.9-3.1-10.9-2.4c-4.2-2.6-9.1,1.4-13.6,0.7c-3.1-0.5-8.9-0.3-6.7,4
					c-2.8,0.2-2.3,3-5.8,2.5c-2.8,0.8-1.6,4.6,0,1.2c2.9-0.4,5.5-0.3,8.4,0.8c2-0.7,8.6-0.6,3.4,0.6c-1.8,2.7,7.2-2.7,4.1,1.6
					c-3.4,0.9-1.1,3.3,0.8,0.5c0.3,4.6-4.7,9-7.5,11.3c-3.1,1.7,3.7,0.3,0.8,3.4C-510.4,291.2-513.7,293.2-518,293.1L-518,293.1z
					 M-513.7,286c0.2,0,0.2,0,0.3-0.1c0.2-0.1,1-0.7,1-1c0-0.4-0.3-0.5-0.4-0.5c-0.4,0-0.6,0.5-0.8,0.7c-0.3,0.1-0.6-0.1-0.9-0.1
					c-0.1,0.1-0.2,0.2-0.2,0.4C-514.7,285.8-513.8,286-513.7,286L-513.7,286z M-515.1,281.4c0.2,0,0.8-0.4,1.1-0.5
					c0.4-0.1,0.8-0.2,1.3-0.3c0.3-0.2,2.3-1.4,2.3-2c0-0.4-0.3-0.4-0.4-0.4c-0.2,0-0.7,0.3-1,0.4c-0.5,0.1-1.1-0.1-1.6,0.1
					c-0.6,0.3-1.1,1.1-1.1,1.6c-0.2,0.2-1,0.5-1.1,0.8C-515.5,281.2-515.3,281.4-515.1,281.4L-515.1,281.4z M-533.1,280.4
					c-0.9-0.1-1.8-1.6-1.9-2.3c-0.1-0.3-0.4-0.5-0.7-0.6c0.2-0.2,0.4-0.3,0.6-0.3c0.2,0,0.5,0.1,0.7,0.2c0.5,0.5,1.2,1.6,1.8,1.8
					c0,0,1.1,0.2,1.1,0.6c0,0.2,0,0.2-0.1,0.3C-532.1,280.2-532.9,280.4-533.1,280.4L-533.1,280.4z M-522.2,275.5
					c0.6,0.1,0.7-0.9,0.7-1.1c0-0.2-0.1-0.6-0.1-0.7c0-0.2,0.2-0.3,0.2-0.5c0-0.3-0.3-0.4-0.4-0.4c-0.6-0.1-0.8,1-0.8,1.1
					c0,0.2,0.2,0.6,0.2,0.7c0,0.3-0.1,0.5-0.1,0.7C-522.4,275.4-522.4,275.5-522.2,275.5L-522.2,275.5z M-534.9,274.7
					c-0.2,0-0.5-0.3-0.6-0.4c-0.1-0.2-0.1-0.6-0.2-0.7c-0.2-0.3-0.5-0.7-0.6-1.1c0.2-0.1,0.3-0.1,0.5-0.1c0.2,0,0.3,0.1,0.4,0.1
					c0.4,0.6,0.8,1.3,1.3,1.8C-534.4,274.4-534.8,274.7-534.9,274.7z M-530.6,270.2c0.3,0,0.4-0.3,0.4-0.3c0-0.3-0.1-0.4-0.1-0.6
					c0-0.4,0.7-0.3,0.8-0.7c0-0.2-0.1-0.3-0.1-0.4c-0.4-0.1-1.2-0.4-1.6-0.5c-0.5,0.1-0.2,0.4-0.3,0.7c-0.1,0.2-0.3,0.2-0.4,0.2
					c-0.2,0-0.4,0.6-0.4,0.6c0,0.3,0.1,0.8,0.6,0.9c0.2,0,0.5-0.3,0.6-0.3C-531.1,269.8-530.8,270.2-530.6,270.2z M-517.9,266.8
					c0.3,0,0.7-1.1,0.7-1.1c0-0.4-0.1-1-0.5-1c-0.2,0-0.3,0.1-0.4,0.1c0,0.2,0,0.3,0,0.5c0,0.2-0.2,0.4-0.3,0.6c0,0,0,0,0,0.3
					C-518.5,266.3-518.2,266.8-517.9,266.8L-517.9,266.8z M-531.1,264.9c0.2,0,0.1,0,0.2-0.1c0.3-0.1,0.2-0.5,0.3-0.8
					c0.4-0.3,1.1,0.4,1.2-0.3c0-0.6-1.9-1.3-1.9-1.3c-0.6-0.1-1,0.4-1,0.8C-532.3,263.6-531.7,264.8-531.1,264.9L-531.1,264.9z
					 M-516.2,263.8c0.4,0,0.6-0.2,0.6-0.5c0-0.4-0.6-1.4-0.8-1.4c-0.2,0-0.3,0.1-0.4,0.2l0,1.2
					C-516.9,263.6-516.3,263.8-516.2,263.8L-516.2,263.8z M-535.2,259.2c-0.1,0-0.2-0.3-0.2-0.9c-2.2-0.8,1.3-2.8-1.7-2.5
					c0.4-2.3,2.2-3.5-1.4-3c-1.9-2.5,3.2,0.9,1.5-2c2-2.3-3-8.2,1.4-7c0.1-1.6-1.8-5,1.9-3.5c1,3.8-4.7,4.5-1.3,8.3
					c-1.4,1.2-0.3,3.6,0.6,4.4c-0.2,0.6-0.2,1.2-0.2,1.3c-0.1,0.1-0.4,0.1-0.5,0.1c-0.2,0.1-0.3,0.4-0.3,0.6c0,0.8,0.7,1.6,1,2.6
					c0,0.1,0,0.4,0,0.6c0.1,0.1,0.1,0.1,0.1,0.2C-534.7,258.3-535,259.3-535.2,259.2L-535.2,259.2z M-525.7,258.1
					c0-0.2-0.1-0.4-0.2-0.6c-1-0.5-0.9-1-1.7-1.1c-0.2,0-0.3,0.1-0.5,0c-0.4,0-0.5-0.9-1.2-0.9c-0.2,0-0.5,0.2-0.7,0.2
					c-0.2,0-0.4-0.2-0.5-0.2c-0.5,0-0.9,0.4-1,0.9c0,0.8,0.5,1.4,1.3,1.5c0.4,0,0.2-0.1,0.9-0.3c0.2-0.1,0.4,0.1,0.7,0.2
					c0.2-0.1,0.5-0.2,0.7-0.2c0.2,0,0.6,0.3,0.9,0.4c0.2,0.1,0.6,0.2,0.8,0.2L-525.7,258.1L-525.7,258.1z M-454.5,254.7
					c0.8,0.1,0.9-0.9,0.9-1.3c0-0.2-0.5-1.3-0.5-1.5c0-0.2,0.2-0.5,0.3-0.7c0.2-0.3,0.7-0.5,0.9-0.7c0.5-0.4,0.5-0.6,0.5-1
					c0-0.5-0.3-0.7-0.7-1.6c-0.3-0.3-0.2-0.8-0.5-1.1l-0.3,0c-0.1,0.1-0.4,0.3-0.4,0.5l0,1c0,0.8-0.9,1.7-0.9,1.9
					c0,0.2,0.3,0.4,0.5,0.5c-0.1,0.1-0.2,0.2-0.2,0.3c-0.1,1.4-0.6,1.2-0.6,2.2C-455.3,253.2-455.2,254.6-454.5,254.7L-454.5,254.7z
					 M-524.2,253.3c0.1,0,0.2-0.1,0.3-0.1c0-0.1,0.1,0,0.1-0.2c0-0.4-0.8-0.7-0.9-0.8c-0.1,0-0.2-0.3-0.4-0.4
					c-0.4-0.1-1-0.1-1.4-0.3c-0.1,0-0.4-0.3-0.5-0.3c-0.2-0.1-0.6-0.3-0.8-0.3c-0.2,0-0.7,0-0.9,0c-0.5,0-0.6-0.9-1.3-0.9
					c-0.6-0.1-1,0.4-1,0.8c0,0.5,0.9,2.1,1.4,2.1c0.6,0.1,0.7-0.8,0.7-1.1c0.2-0.1,0.5,0,0.6,0c0.2,0,0.6,0.8,1.3,0.8
					c0.2,0,0.7-0.2,1-0.2L-524.2,253.3L-524.2,253.3z M-523.7,248.4c0.2,0,1.3-0.3,1.5-0.3c0.2,0,0.4,0.1,0.6,0.2
					c0.1-0.1,0.2-0.2,0.2-0.3c0-0.4-0.9-0.6-1-0.6c-0.2,0-0.5,0-0.7,0c-0.2,0-0.8-0.4-1-0.5c-0.2,0-0.8,0.1-0.8,0.4
					C-524.9,247.8-524.1,248.4-523.7,248.4L-523.7,248.4z M-527.7,247.4c0.5,0,0.3-0.8,0.7-0.7c0.2,0,0.5,0.3,0.6,0.3
					c0.4,0,0.7-0.1,0.8-0.5c0-0.1-0.1-0.6-0.4-0.8c-0.2,0-0.5,0.1-0.7-0.1c-0.2-0.1-0.3-0.2-0.5-0.2c-0.6-0.1-1.1,0.5-1.1,1
					C-528.3,246.8-528.2,247.4-527.7,247.4L-527.7,247.4z M-480.3,246.1c0.1,0,0.1,0,0.2-0.1c0.4-0.2,0.7-0.7,0.9-1.1
					c0.1-0.1,0.2-0.3,0.2-0.5c0-0.2-0.2-0.4-0.2-0.6c0-0.2,0.2-0.6,0.2-0.9c0-0.3-0.3-1.1-0.6-1.1c-0.5-0.1-0.9,0.9-0.9,1.1
					c0,0.2,0.2,1.4,0.2,1.5c0,0.5-0.7,0.4-0.7,1.2c0,0.3,0.2,0.4,0.4,0.4C-480.4,246-480.4,246.1-480.3,246.1z M-530,245.3
					c0.2,0,0.3,0,0.6-0.2c0-0.3,0-0.6,0.1-0.8c0.2-0.3,0.4-0.6,0.5-0.8c0-0.4-0.3-0.4-0.5-0.4c-0.2,0-0.2,0.1-0.4,0.1
					c-0.2,0-0.6-0.5-0.8-0.5c-0.6-0.1-0.6,0.8-1,1.1c-0.3,0.1-0.8,0.2-1.3,0.4l0,0.3c0.2,0.1,0.5,0.2,0.7,0.2c0.5,0,0.7-0.3,1-0.3
					c0.5,0,0.2,0.8,1,0.9C-530.1,245.3-530,245.3-530,245.3L-530,245.3z M-528.3,242.4c0.7,0.1,0.5-0.8,1.1-0.7
					c0.2,0,0.7,0.4,0.9,0.5c0.6,0.1,1-1.1,1-1.4c0-0.3-0.2-0.7-0.4-0.8c-0.5,0-0.9,0.4-1,0.6l-0.2,0c-0.6-0.8-0.4-1-1.1-1.1
					c-0.6-0.1-0.9,1.2-0.9,1.5C-528.9,241.2-529,242.4-528.3,242.4L-528.3,242.4z M-496,242.1c0.4,0,0.5-0.6,0.5-0.7
					c0-0.2-0.2-0.1-0.2-0.3c0-0.2,0.3-0.3,0.3-0.5c0-0.4-0.2-0.7-0.5-0.8c-0.5-0.1-0.7,0.6-0.8,0.9
					C-496.7,241.1-496.7,242.1-496,242.1z M-474.3,240.4c0.2,0,0.4-0.1,0.5-0.2c0.2-0.1,0.2-0.2,0.4-0.4c0.1,0,0.2,0,0.4-0.1
					c0.1-0.1,0.1-0.2,0.1-0.4c0-0.2,0-0.4-0.3-0.5c-0.4,0-1.4,0.8-1.4,1.2c0,0.2,0.1,0.1,0.1,0.2
					C-474.4,240.4-474.4,240.4-474.3,240.4L-474.3,240.4z M-498.4,238.5c0.2,0,0.3-0.1,0.3-0.2c0-0.2-0.3-0.8-0.3-0.9
					c0-0.2,0.7-1.3,0.7-1.5c0-0.2-0.2-0.6-0.2-0.7c-0.2-0.2-1-1.4-1.3-1.5c-0.5,0-0.6,0.8-0.6,0.8c0,0.3,0.5,1,0.5,1.2
					c0,0.2-0.2,0.4-0.2,0.6C-499.6,236.7-499.4,238.4-498.4,238.5L-498.4,238.5z M-486.9,237.7c0.2,0,0.5-0.4,0.7-0.5
					c0.1-0.1,0.4-0.1,0.5,0c0.1-0.1,0.2-0.2,0.2-0.3c0-0.2-0.7-0.9-0.9-1.4c-0.1,0-0.1-0.1-0.3-0.1c-0.2,0-0.4,0.2-0.5,0.3
					c0,0.4-0.1,1.1-0.1,1.3C-487.3,237.1-487.3,237.6-486.9,237.7L-486.9,237.7z M-490.5,237.5c0.5,0,0.7-0.3,0.7-0.6
					c0-0.4-0.7-1.1-0.9-1.1c-0.3,0-0.5,0.4-0.5,0.5C-491.2,236.5-491,237.3-490.5,237.5C-490.6,237.5-490.5,237.5-490.5,237.5z
					 M-523.4,235.5C-523,234.1-524.5,233.7-523.4,235.5z M-505.8,235.3c0.3,0,0.5-0.1,0.5-0.4c0-0.2-0.2-0.6-0.1-0.7
					c0-0.2,0.7-0.8,0.7-1c0-0.2-0.1-0.5-0.2-0.6c-0.2-0.2-1.3-1-1.5-1c-0.4,0-0.4,0.2-0.4,0.3c0,0.2,0.3,0.5,0.5,0.8
					c-0.3,0.1-0.6,0.7-0.6,1.2c0,0.4,0.1,1.4,0.8,1.4C-506,235.3-505.8,235.3-505.8,235.3L-505.8,235.3z M-495.3,235.2
					c0.5,0,0.5-0.7,0.5-0.8c0-1.3-1.1-0.7-1.2-2.1c-0.1-0.1-0.3-0.2-0.5-0.2c-0.6-0.1-0.7,0.7-0.7,0.7c0,0.2,0.1,0.5,0.1,0.7
					c0.3,0.3,0.6,0.5,0.9,0.8c0.2,0.2,0.3,0.5,0.5,0.7C-495.7,235.2-495.5,235.2-495.3,235.2L-495.3,235.2z M-476.5,231.4
					C-479.7,228.8-475.5,228.4-476.5,231.4z M-501.4,231.3c0.6,0.1,1.4-0.8,1.4-1.4c0-0.5-0.7-0.9-0.8-0.9c-0.2,0-0.5,0.1-0.6,0.1
					c-0.2,0-0.8-0.4-1-0.5c-0.5-0.1-0.5,0.4-0.5,0.4c0,0.4,0.1,0.6,0.8,1c0.4,0.3,0.1,0.6,0.2,0.9
					C-501.8,231.2-501.6,231.3-501.4,231.3L-501.4,231.3z M-503.6,231.1c0.5,0.1,0.8-0.4,0.8-0.8c0-0.4-0.1-0.5-0.3-0.5
					c-0.2,0-0.4,0.1-0.6,0.1c-0.2,0-1.4-0.9-1.6-0.9c-0.5,0-0.5,0.1-0.6,0.4c0,0.3,0.3,1.5,0.8,1.5c0.2,0,0.6-0.1,0.7-0.1
					C-504.1,230.9-503.8,231.1-503.6,231.1L-503.6,231.1z M-464.5,230c0.2,0,0.6-0.5,0.9-0.7c0,0,0.1-0.2,0.1-0.4
					c0-0.2-0.2-0.5-0.4-0.5c-0.5,0-1.3,0.9-1.3,0.9C-465.1,229.7-464.6,230-464.5,230L-464.5,230z M-484.6,228.6
					C-488.3,227.9-485,226.3-484.6,228.6z M-466.3,228.5c0.2,0,0.5,0,0.7-0.2c0.1-0.2,0.2-0.4,0.3-0.6c0-0.2,0.4-0.2,0.6-0.5
					c0.1-0.1,0.2-0.3,0.2-0.5c0-0.4-0.6-0.7-0.8-0.7c-0.2,0-0.5,0-0.6,0.2c-0.4,0.5-1,1.4-1,1.6C-466.9,228-466.7,228.4-466.3,228.5
					L-466.3,228.5z M-507.2,228.2c0.5,0.1,1.4-1,1.4-1.4c0-0.4-0.2-0.8-0.6-0.9c-0.8-0.1-1.6,0.8-1.6,1.5
					C-508.1,228-507.3,228.2-507.2,228.2L-507.2,228.2z M-478.8,227.7c-2-1.1-5.9-2.5-1.4-1.7C-480.4,226.6-476.7,227.7-478.8,227.7
					z M-495.8,226.9C-498,225.6-493,226.6-495.8,226.9z M-478.2,226.3c-1.1-1,3.2-3.5-1-2.6c-1.2-1.4,0.4-4.4-0.4-6.7
					c0.4-5.5-1.9-11.4-6.7-15.1c-1.3-2.4,2.6,1.6,1.3-1.3c3.4-1.7,5.3,2.3,6.6,4.3c-0.2,5.6,3.4,10.7,6.7,15.3c-2,1-1.4,4.6-5.3,3.3
					C-474.9,225.2-475.3,225.7-478.2,226.3L-478.2,226.3z M-501.1,224.4c-0.4-0.6-1-1-1.8-0.8l-0.3-0.1c0.4-0.1,0.7-0.4,0.8-0.4
					c0.3,0,1.4,0.5,1.4,1.1C-501,224.4-501,224.3-501.1,224.4z M-469.9,223.6C-472.6,222.5-469,222-469.9,223.6z M-522.9,222.5
					c-0.3,0-0.7,0-1.2-0.2c-1.9-0.1-3.7-0.1-5.6-0.2c1.2-2.2-0.4-2.9-0.2-3.6c0.9,0.1,1.5,0,1.9-0.3c0,0,0,0.1,0,0.1
					c0,0.4,0.2,0.7,0.5,0.8c0.3,0,0.6-0.7,0.6-0.7c0-0.4-0.2-0.9-0.7-1.1c0,0,0,0.1-0.1,0.1c-0.2-0.4-0.8-0.9-2-1.3
					c1.3-3.9,2.4-8,1.8-12.2c1.3-2.8-5.2-6.6-2.6-7.4c1.4,3,0.5-2.7,3.9-0.9c3.7-0.3,1.3,3.9,4.3,4.6c0.6,5.1-1.8,10.2-0.2,15.1
					C-520.7,217.6-519.6,222.5-522.9,222.5z M-529.9,222.3c-0.1,0-0.3,0-0.4-0.1C-529.5,222-529.5,222.2-529.9,222.3z M-530.9,222.2
					c-0.1,0-0.3,0-0.6-0.1h-0.1C-531.2,221.2-530,222.3-530.9,222.2z"/>
			</g>
			<g id="g12341" transform="translate(3.6669922e-5,0)">
				<g id="g12302">
					<ellipse id="ellipse4040" class="st9" cx="-502.1" cy="413.7" rx="57.5" ry="-59"/>
					<ellipse id="path4038" class="st11" cx="-502.1" cy="413.7" rx="55.5" ry="-54.1"/>
				</g>
				<g id="g12331">
					<path id="path10697" inkscape:connector-curvature="0" class="st6" d="M-502.1,448.2l-12.1-8.1l4.8-9.1l3.8-14.7l-24.9,9.1
						l-1.3-6.8l-6.2-5.8l6.2-6.1l0.4-6.6l12.2,6.1l14,3.4l-9.1-25l5.8-1.1l6.3-6.2l6.3,6.2l5.8,1.1l-9.1,25l14-3.4l12.2-6.1l0.4,6.6
						l6.2,6.1l-6.2,5.8l-1.3,6.8l-24.9-9.1l3.8,14.7l4.8,9.1L-502.1,448.2z"/>
					<g id="g10669" transform="translate(-1.2907555,0)">
						<path id="path10635" inkscape:connector-curvature="0" class="st8" d="M-504.5,450.5c-0.1-3.4-2.9-6.2-6.3-6.2
							c-2.5-0.1-3.8,1.5-5.4,3c-3-1.1-4.3-2-2-4.4c0,0,0,0,0-0.1c5.9-6.4,9.9-14.5,11.1-23.5c-10,1.4-19,6.3-25.6,13.4
							c-0.8-1.3-1.6-2.7-2.2-4.2c1.8-1.5,2.9-3.2,3-5.5c0-3.4-2.7-6.2-6.1-6.3c-0.2-2.5-0.2-4.9,0-7.4c3.4-0.1,6.1-2.9,6.1-6.3
							c0.1-2.5-1.4-3.7-3-5.3c0.7-1.5,1.4-2.9,2.3-4.3c6.6,7.1,15.5,11.9,25.4,13.3c-1.5-10-6.3-18.9-13.3-25.5
							c1.3-0.8,2.7-1.6,4.2-2.2c1.5,1.8,3.1,2.9,5.5,3c3.4,0,6.2-2.8,6.3-6.2c2.4-0.3,4.9-0.2,7.4,0c0,0,0,0,0,0
							c0.1,3.4,2.9,6.2,6.3,6.2c2.4,0.1,3.7-1.5,5.3-3c1.5,0.7,2.9,1.5,4.3,2.3c-7,6.6-11.8,15.4-13.2,25.4
							c9.9-1.5,18.7-6.3,25.2-13.3c0.9,1.4,1.6,2.8,2.3,4.3c-1.8,1.5-2.9,3-3,5.4c0,3.4,2.7,6.2,6.1,6.3c0.3,2.5,0.2,4.9,0,7.4
							c-3.4,0.1-6.1,2.9-6.1,6.3c-0.1,2.5,1.4,3.8,3,5.4c-1.1,3.1-2,4.3-4.5,1.9c-6.3-5.8-14.2-9.8-23.1-11.1
							c1.4,10,6.2,19,13.3,25.6c-1.4,0.9-2.8,1.6-4.3,2.3c-1.5-1.8-3-2.9-5.4-3c-3.4,0-6.2,2.8-6.3,6.2
							C-499.6,450.8-502,450.7-504.5,450.5L-504.5,450.5z M-500.8,446.9c1.4-3.9,5-6.7,9.3-6.9c-4.9-7.3-7.8-16.1-8-25.5
							c9.3,0.2,18,3.2,25.3,8.1c0.3-4.3,3-7.9,6.9-9.3c-3.8-1.4-6.6-5.1-6.9-9.4c-7.3,4.9-16,7.8-25.3,8.1c0.2-9.4,3.2-18.1,8-25.5
							c-4.2-0.3-7.7-3.1-9.2-6.9c-1.4,3.9-5.1,6.7-9.4,6.9c4.9,7.3,7.8,16.1,8,25.5c-9.3-0.2-18-3.2-25.3-8.1
							c-0.3,4.2-3.1,7.8-6.9,9.2c3.9,1.5,6.7,5.1,6.9,9.5c7.3-4.9,15.9-7.8,25.3-8.1c-0.2,9.4-3.2,18.1-8,25.5
							C-505.8,440.3-502.2,443-500.8,446.9L-500.8,446.9z"/>
						<g id="g10637" transform="matrix(0.77850592,0,0,0.77850592,-110.26322,91.973309)">
							<path id="path10639" inkscape:connector-curvature="0" sodipodi:nodetypes="ssssssssssssscs" class="st8" d="M-501.6,465.4
								c-2.9,0-5.4-2.4-5.4-5.4s2.4-5.4,5.3-5.4c2.9,0,5.4,2.4,5.4,5.4S-498.7,465.4-501.6,465.4z M-527.8,458.3
								c-2.6-1.4-3.4-4.8-2-7.4s4.7-3.5,7.3-2s3.5,4.8,2,7.4C-522.2,459.1-525.2,459.7-527.8,458.3z M-482.8,456.4
								c-1.6-2.5-0.6-5.9,2-7.4c2.6-1.5,5.8-0.6,7.3,2s0.6,5.9-2,7.4C-478.2,459.8-481.1,458.9-482.8,456.4z"/>
							<path id="use10641" inkscape:connector-curvature="0" class="st8" d="M-501.6,360c-2.9,0-5.4,2.4-5.4,5.4s2.4,5.4,5.4,5.4
								c2.9,0,5.4-2.4,5.4-5.4S-498.7,360-501.6,360z M-527.8,367c-2.6,1.4-3.4,4.8-2,7.4s4.7,3.5,7.3,2s3.5-4.8,2-7.4
								C-522.2,366.3-525.2,365.7-527.8,367z M-482.8,369c-1.6,2.5-0.6,5.9,2,7.4c2.6,1.5,5.8,0.6,7.3-2s0.6-5.9-2-7.4
								C-478.2,365.5-481.1,366.5-482.8,369z"/>
							<path id="use10643" inkscape:connector-curvature="0" class="st8" d="M-449.3,412.7c0,2.9-2.4,5.4-5.4,5.4s-5.4-2.4-5.4-5.4
								c0-2.9,2.4-5.4,5.4-5.4S-449.3,409.7-449.3,412.7z M-456.4,438.9c-1.4,2.6-4.8,3.4-7.4,2c-2.6-1.5-3.5-4.7-2-7.3
								s4.8-3.5,7.4-2C-455.6,433.2-455,436.2-456.4,438.9z M-458.3,393.8c-2.5,1.6-5.9,0.6-7.4-2c-1.5-2.6-0.6-5.8,2-7.3
								s5.9-0.6,7.4,2C-454.9,389.2-455.8,392.2-458.3,393.8z"/>
							<path id="use10645" inkscape:connector-curvature="0" class="st8" d="M-554,412.7c0-2.9,2.4-5.4,5.4-5.4c3,0,5.4,2.4,5.4,5.4
								c0,2.9-2.4,5.3-5.4,5.3S-554,415.6-554,412.7z M-546.9,386.5c1.4-2.6,4.8-3.4,7.3-2c2.6,1.5,3.5,4.7,2,7.3
								c-1.5,2.6-4.8,3.5-7.3,2C-547.7,392.2-548.3,389.1-546.9,386.5z M-545,431.6c2.5-1.6,5.9-0.6,7.3,2c1.5,2.6,0.6,5.8-2,7.3
								s-5.9,0.6-7.3-2C-548.4,436.1-547.5,433.2-545,431.6z"/>
						</g>
					</g>
				</g>
			</g>
			<g id="g12600">
				<g id="g12282">
					
						<path id="path12272" inkscape:connector-curvature="0" sodipodi:nodetypes="cccccsssssscccsssssccccccccssccccsssccsssscsccccsssccsssc" class="st5" d="
						M-461.7,344.3l0-27.4v-41.9h37.4l-0.1,18.5v0c0,2.9,1.5,6.3,3.8,9.1c2.3,2.7,5.6,4.7,9.2,4.7h0c3.6,0,6.8-2.1,9.1-4.8
						c2.3-2.7,3.7-6.2,3.7-9.1v-18.4h3.8l-0.1,18.6v0c0,2.9,1.5,6.3,3.8,9.1s5.6,4.7,9.2,4.7c3.6,0,6.8-2.1,9.1-4.8
						c2.3-2.7,3.7-6.2,3.7-9.1v-18.4h37.3l0,69.4h-25.3l0-27.4H-436l0,27.4L-461.7,344.3z M-411.3,306.2c-3.2,0-6.2-1.8-8.4-4.4
						c-2.2-2.5-3.5-5.8-3.5-8.3v0l0.1-18.6h2.2v17.2c0,5.2,4.3,11.6,9.6,11.6c5.3,0,9.6-6.5,9.6-11.7v-17.1h2.2v18.4
						c0,2.6-1.3,5.8-3.4,8.4C-405.1,304.3-408.1,306.2-411.3,306.2L-411.3,306.2z M-381.7,306.2c-3.2,0-6.2-1.8-8.4-4.4
						c-2.2-2.5-3.5-5.8-3.5-8.3v0l0.1-18.6h2.2v17.2c0,5.2,4.3,11.6,9.6,11.6c5.3,0,9.6-6.5,9.6-11.7v-17.1h2.2v18.4
						c0,2.6-1.3,5.8-3.4,8.4C-375.5,304.3-378.4,306.2-381.7,306.2L-381.7,306.2z"/>
					<g id="g12276">
						<path id="rect4314" inkscape:connector-curvature="0" sodipodi:nodetypes="cccc" class="st5" d="M-448.8,382.6l-12.8-33h25.7
							L-448.8,382.6z"/>
						<path id="rect11914" inkscape:connector-curvature="0" sodipodi:nodetypes="ccccc" class="st4" d="M-461.7,348.1h25.7v-2.5
							h-25.7V348.1z"/>
						<path id="path11917" inkscape:connector-curvature="0" sodipodi:nodetypes="ccccc" class="st4" d="M-356.9,348.1h25.7v-2.5
							h-25.7V348.1z"/>
						<path id="path12274" inkscape:connector-curvature="0" sodipodi:nodetypes="cccc" class="st5" d="M-344.4,382.7l-12.5-33.1
							h25.3L-344.4,382.7z"/>
					</g>
				</g>
				<path id="path3349" inkscape:connector-curvature="0" class="st5" d="M-417.4,408.6l20.8,36.1l20.8-36.1H-417.4z"/>
				<g id="g11514">
					<path id="path3353" inkscape:connector-curvature="0" sodipodi:nodetypes="ccccccccccccc" class="st5" d="M-397.4,449.9l0-7.3
						h1.6l0,7.3h3.2l0,1.8h-3.2l0,3.6h-1.6l0-3.6h-3.2l0-1.8H-397.4z"/>
					<path id="path4686" inkscape:connector-curvature="0" class="st4" d="M-394.5,443.3c0-1.1-0.9-2.1-2.1-2.1
						c-1.1,0-2.1,0.9-2.1,2.1l0,0c0,1.1,0.9,2.1,2.1,2.1S-394.5,444.5-394.5,443.3z"/>
				</g>
				<path id="path3491" inkscape:connector-curvature="0" sodipodi:nodetypes="cccc" class="st6" d="M-449,387.9l10.3-38.3h-2.6
					L-449,387.9"/>
				<path id="path3943" inkscape:connector-curvature="0" class="st5" d="M-451.9,386.9h2.5l0-4.9h1.2l0,4.9h2.5l0,1.2h-2.5l0,2.4
					h-1.2l0-2.4h-2.5L-451.9,386.9"/>
				<path id="path3945" inkscape:connector-curvature="0" class="st4" d="M-447.4,381.7c0-0.8-0.6-1.4-1.4-1.4
					c-0.8,0-1.4,0.6-1.4,1.4c0,0,0,0,0,0c0,0.8,0.6,1.4,1.4,1.4C-448,383.1-447.4,382.5-447.4,381.7z"/>
				<g id="g6315" transform="matrix(2.5692354,0,0,-2.7939961,-1251.4629,1749.21)">
					<path id="path6319" inkscape:connector-curvature="0" sodipodi:nodetypes="cccc" class="st6" d="M353,487.4l4,13.6h-1
						L353,487.4"/>
				</g>
				<path id="path6323" inkscape:connector-curvature="0" class="st5" d="M-347.4,386.9h2.5l0-4.9h1.2l0,4.9h2.5l0,1.2h-2.5l0,2.4
					h-1.2l0-2.4h-2.5L-347.4,386.9"/>
				<path id="path6325" inkscape:connector-curvature="0" class="st4" d="M-342.9,381.7c0-0.8-0.6-1.4-1.4-1.4
					c-0.8,0-1.4,0.6-1.4,1.4c0,0,0,0,0,0c0,0.8,0.6,1.4,1.4,1.4C-343.5,383.1-342.9,382.5-342.9,381.7z"/>
				<path id="rect11484" inkscape:connector-curvature="0" sodipodi:nodetypes="ccccc" class="st4" d="M-417.4,337.4h41.6v-22.1
					h-41.6V337.4z"/>
				<path id="rect11486" inkscape:connector-curvature="0" class="st4" d="M-417.4,360h41.6v-21.8h-41.6V360z"/>
				<path id="rect11488" inkscape:connector-curvature="0" class="st4" d="M-417.4,382.5h41.6v-21.8h-41.6V382.5z"/>
				<path id="rect11490" inkscape:connector-curvature="0" class="st4" d="M-417.4,405.1h41.6v-21.8h-41.6V405.1z"/>
				<path id="rect11492" inkscape:connector-curvature="0" class="st4" d="M-417.4,405.8h41.6v1.9h-41.6V405.8z"/>
				<g id="g11538" transform="translate(-20.371866,-28.092064)">
					<path id="path6399" inkscape:connector-curvature="0" sodipodi:nodetypes="cccccccccccccc" class="st5" d="M-358.1,447.9
						l-2.7-6.2v-5.1h1.3v4.1h2.9v-4.1h1.2v5.1L-358.1,447.9z M-358.1,445.3l1.5-3.2h-2.9L-358.1,445.3z"/>
					<path id="path6405" inkscape:connector-curvature="0" sodipodi:nodetypes="ccccccccccccc" class="st5" d="M-358.3,449.4l0-1.5
						h0.3l0,1.5h0.7l0,0.4h-0.7l0,0.8h-0.3l0-0.8h-0.7l0-0.4H-358.3z"/>
					<path id="path6407" inkscape:connector-curvature="0" class="st4" d="M-357.6,447.8c0-0.2-0.2-0.4-0.4-0.4
						c-0.2,0-0.4,0.2-0.4,0.4c0,0,0,0,0,0c0,0.2,0.2,0.4,0.4,0.4C-357.8,448.2-357.6,448-357.6,447.8z"/>
				</g>
				<g id="g11549" transform="translate(-35.83437,0.107936)">
					<g id="g11551" transform="translate(-20.7,-28.2)">
						<path id="path11553" inkscape:connector-curvature="0" sodipodi:nodetypes="cccccccccccccc" class="st5" d="M-358.1,447.9
							l-2.7-6.2v-5.1h1.3v4.1h2.9v-4.1h1.2v5.1L-358.1,447.9z M-358.1,445.3l1.5-3.2h-2.9L-358.1,445.3z"/>
						<path id="path11555" inkscape:connector-curvature="0" sodipodi:nodetypes="ccccccccccccc" class="st5" d="M-358.3,449.4
							l0-1.5h0.3l0,1.5h0.7l0,0.4h-0.7l0,0.8h-0.3l0-0.8h-0.7l0-0.4H-358.3z"/>
						<path id="path11557" inkscape:connector-curvature="0" class="st4" d="M-357.6,447.8c0-0.2-0.2-0.4-0.4-0.4
							c-0.2,0-0.4,0.2-0.4,0.4c0,0,0,0,0,0c0,0.2,0.2,0.4,0.4,0.4C-357.8,448.2-357.6,448-357.6,447.8z"/>
					</g>
				</g>
				<g id="g11668" transform="translate(0,1.107936)">
					<g id="g11561" transform="translate(-29.412492,-29.2)">
						<path id="path11563" inkscape:connector-curvature="0" sodipodi:nodetypes="cccccccccccccc" class="st6" d="M-358.1,447.9
							l-2.7-6.2v-5.1h1.3v4.1h2.9v-4.1h1.2v5.1L-358.1,447.9z M-358.1,445.3l1.5-3.2h-2.9L-358.1,445.3z"/>
						<path id="path11565" inkscape:connector-curvature="0" sodipodi:nodetypes="ccccccccccccc" class="st6" d="M-358.3,449.4
							l0-1.5h0.3l0,1.5h0.7l0,0.4h-0.7l0,0.8h-0.3l0-0.8h-0.7l0-0.4H-358.3z"/>
						<path id="path11567" inkscape:connector-curvature="0" class="st10" d="M-357.6,447.8c0-0.2-0.2-0.4-0.4-0.4
							c-0.2,0-0.4,0.2-0.4,0.4c0,0,0,0,0,0c0,0.2,0.2,0.4,0.4,0.4C-357.8,448.2-357.6,448-357.6,447.8z"/>
					</g>
					<g id="g11569" transform="translate(-17.753118,-1)">
						<g id="g11571" transform="translate(-20.7,-28.2)">
							<path id="path11573" inkscape:connector-curvature="0" sodipodi:nodetypes="cccccccccccccc" class="st6" d="M-358.1,447.9
								l-2.7-6.2v-5.1h1.3v4.1h2.9v-4.1h1.2v5.1L-358.1,447.9z M-358.1,445.3l1.5-3.2h-2.9L-358.1,445.3z"/>
							<path id="path11575" inkscape:connector-curvature="0" sodipodi:nodetypes="ccccccccccccc" class="st6" d="M-358.3,449.4
								l0-1.5h0.3l0,1.5h0.7l0,0.4h-0.7l0,0.8h-0.3l0-0.8h-0.7l0-0.4H-358.3z"/>
							<path id="path11577" inkscape:connector-curvature="0" class="st10" d="M-357.6,447.8c0-0.2-0.2-0.4-0.4-0.4
								c-0.2,0-0.4,0.2-0.4,0.4c0,0,0,0,0,0c0,0.2,0.2,0.4,0.4,0.4C-357.8,448.2-357.6,448-357.6,447.8z"/>
						</g>
					</g>
					<g id="g11603" transform="translate(-47.493744,-29.2)">
						<path id="path11605" inkscape:connector-curvature="0" sodipodi:nodetypes="cccccccccccccc" class="st6" d="M-358.1,447.9
							l-2.7-6.2v-5.1h1.3v4.1h2.9v-4.1h1.2v5.1L-358.1,447.9z M-358.1,445.3l1.5-3.2h-2.9L-358.1,445.3z"/>
						<path id="path11607" inkscape:connector-curvature="0" sodipodi:nodetypes="ccccccccccccc" class="st6" d="M-358.3,449.4
							l0-1.5h0.3l0,1.5h0.7l0,0.4h-0.7l0,0.8h-0.3l0-0.8h-0.7l0-0.4H-358.3z"/>
						<path id="path11609" inkscape:connector-curvature="0" class="st10" d="M-357.6,447.8c0-0.2-0.2-0.4-0.4-0.4
							c-0.2,0-0.4,0.2-0.4,0.4c0,0,0,0,0,0c0,0.2,0.2,0.4,0.4,0.4C-357.8,448.2-357.6,448-357.6,447.8z"/>
					</g>
				</g>
				<g id="g11722">
					<path id="path3313" inkscape:connector-curvature="0" class="st10" d="M-455.7,313.9c1.5,0,2.8-2.4,2.8-3.3v-2.2h-5.6l0.1,2.1
						C-458.4,311.4-457.2,313.9-455.7,313.9L-455.7,313.9z"/>
					<path id="path11685" inkscape:connector-curvature="0" class="st10" d="M-447.3,313.9c1.5,0,2.8-2.4,2.8-3.3v-2.2h-5.6l0.1,2.1
						C-450,311.4-448.8,313.9-447.3,313.9L-447.3,313.9z"/>
					<path id="path11687" inkscape:connector-curvature="0" class="st10" d="M-438.9,313.9c1.5,0,2.8-2.4,2.8-3.3v-2.2h-5.6l0.1,2.1
						C-441.6,311.4-440.4,313.9-438.9,313.9L-438.9,313.9z"/>
					<path id="path11689" inkscape:connector-curvature="0" class="st10" d="M-430.4,313.9c1.5,0,2.8-2.4,2.8-3.3v-2.2h-5.6l0.1,2.1
						C-433.2,311.4-432,313.9-430.4,313.9L-430.4,313.9z"/>
					<path id="path11691" inkscape:connector-curvature="0" class="st10" d="M-422,313.9c1.5,0,2.8-2.4,2.8-3.3v-2.2h-5.6l0.1,2.1
						C-424.8,311.4-423.6,313.9-422,313.9L-422,313.9z"/>
					<path id="path11693" inkscape:connector-curvature="0" class="st10" d="M-413.6,313.9c1.5,0,2.8-2.4,2.8-3.3v-2.2h-5.6l0.1,2.1
						C-416.3,311.4-415.2,313.9-413.6,313.9L-413.6,313.9z"/>
					<path id="path11695" inkscape:connector-curvature="0" class="st10" d="M-405.2,313.9c1.5,0,2.8-2.4,2.8-3.3v-2.2h-5.6l0.1,2.1
						C-407.9,311.4-406.7,313.9-405.2,313.9L-405.2,313.9z"/>
					<path id="path11697" inkscape:connector-curvature="0" class="st10" d="M-396.8,313.9c1.5,0,2.8-2.4,2.8-3.3v-2.2h-5.6l0.1,2.1
						C-399.5,311.4-398.3,313.9-396.8,313.9L-396.8,313.9z"/>
					<path id="path11699" inkscape:connector-curvature="0" class="st10" d="M-388.4,313.9c1.5,0,2.8-2.4,2.8-3.3v-2.2h-5.6l0.1,2.1
						C-391.1,311.4-389.9,313.9-388.4,313.9L-388.4,313.9z"/>
					<path id="path11701" inkscape:connector-curvature="0" class="st10" d="M-379.9,313.9c1.5,0,2.8-2.4,2.8-3.3v-2.2h-5.6l0.1,2.1
						C-382.7,311.4-381.5,313.9-379.9,313.9L-379.9,313.9z"/>
					<path id="path11703" inkscape:connector-curvature="0" class="st10" d="M-371.5,313.9c1.5,0,2.8-2.4,2.8-3.3v-2.2h-5.6l0.1,2.1
						C-374.2,311.4-373.1,313.9-371.5,313.9L-371.5,313.9z"/>
					<path id="path11705" inkscape:connector-curvature="0" class="st10" d="M-346.3,313.9c1.5,0,2.8-2.4,2.8-3.3v-2.2h-5.6l0.1,2.1
						C-349,311.4-347.8,313.9-346.3,313.9L-346.3,313.9z"/>
					<path id="path11707" inkscape:connector-curvature="0" class="st10" d="M-337.9,313.9c1.5,0,2.8-2.4,2.8-3.3v-2.2h-5.6l0.1,2.1
						C-340.6,311.4-339.4,313.9-337.9,313.9L-337.9,313.9z"/>
					<path id="path11709" inkscape:connector-curvature="0" class="st10" d="M-354.7,313.9c1.5,0,2.8-2.4,2.8-3.3v-2.2h-5.6l0.1,2.1
						C-357.4,311.4-356.2,313.9-354.7,313.9L-354.7,313.9z"/>
					<path id="path11711" inkscape:connector-curvature="0" class="st10" d="M-363.1,313.9c1.5,0,2.8-2.4,2.8-3.3v-2.2h-5.6l0.1,2.1
						C-365.8,311.4-364.7,313.9-363.1,313.9L-363.1,313.9z"/>
				</g>
				<g id="g11884">
					<g id="g11848">
						<path id="path6279" inkscape:connector-curvature="0" sodipodi:nodetypes="cccccc" class="st10" d="M-398.9,372v-8.9l-6.6,0
							v8.9l3.3,6.1L-398.9,372z"/>
						<path id="path11755" inkscape:connector-curvature="0" sodipodi:nodetypes="cccccc" class="st10" d="M-409.4,372v-8.9l-5.3,0
							v8.9l2.7,6.1L-409.4,372z"/>
						<path id="path11766" inkscape:connector-curvature="0" sodipodi:nodetypes="cccccc" class="st10" d="M-394.3,372v-8.9l6.6,0
							v8.9l-3.3,6.1L-394.3,372z"/>
						<path id="path11768" inkscape:connector-curvature="0" sodipodi:nodetypes="cccccc" class="st10" d="M-383.7,372v-8.9l5.3,0
							v8.9l-2.7,6.1L-383.7,372z"/>
					</g>
					<g id="g11822">
						<path id="path6289" inkscape:connector-curvature="0" sodipodi:nodetypes="scccsss" class="st10" d="M-402.1,355.5
							c-1.8,0-3.3-2.2-3.3-4.7l0-10.5h6.6V351C-398.9,353.6-400.3,355.5-402.1,355.5L-402.1,355.5z"/>
						<path id="path11753" inkscape:connector-curvature="0" sodipodi:nodetypes="scccsss" class="st10" d="M-412.1,355.5
							c-1.5,0-2.7-2.2-2.7-4.7l0-10.5h5.3V351C-409.4,353.6-410.6,355.5-412.1,355.5L-412.1,355.5z"/>
						<path id="path11805" inkscape:connector-curvature="0" sodipodi:nodetypes="scccsss" class="st10" d="M-391,355.5
							c1.8,0,3.3-2.2,3.3-4.7l0-10.5h-6.6V351C-394.3,353.6-392.9,355.5-391,355.5L-391,355.5z"/>
						<path id="path11807" inkscape:connector-curvature="0" sodipodi:nodetypes="scccsss" class="st10" d="M-381.1,355.5
							c1.5,0,2.7-2.2,2.7-4.7l0-10.5h-5.3V351C-383.7,353.6-382.6,355.5-381.1,355.5L-381.1,355.5z"/>
					</g>
					<g id="g11864" transform="matrix(1,0,0,1.0369441,0,-34.479663)">
						<path id="path11866" inkscape:connector-curvature="0" sodipodi:nodetypes="scccsss" class="st10" d="M-402.1,355.5
							c-1.8,0-3.3-2.2-3.3-4.7l0-10.5h6.6V351C-398.9,353.6-400.3,355.5-402.1,355.5L-402.1,355.5z"/>
						<path id="path11868" inkscape:connector-curvature="0" sodipodi:nodetypes="scccsss" class="st10" d="M-412.1,355.5
							c-1.5,0-2.7-2.2-2.7-4.7l0-10.5h5.3V351C-409.4,353.6-410.6,355.5-412.1,355.5L-412.1,355.5z"/>
						<path id="path11870" inkscape:connector-curvature="0" sodipodi:nodetypes="scccsss" class="st10" d="M-391,355.5
							c1.8,0,3.3-2.2,3.3-4.7l0-10.5h-6.6V351C-394.3,353.6-392.9,355.5-391,355.5L-391,355.5z"/>
						<path id="path11872" inkscape:connector-curvature="0" sodipodi:nodetypes="scccsss" class="st10" d="M-381.1,355.5
							c1.5,0,2.7-2.2,2.7-4.7l0-10.5h-5.3V351C-383.7,353.6-382.6,355.5-381.1,355.5L-381.1,355.5z"/>
					</g>
					<g id="g11874" transform="matrix(1,0,0,1.0374235,0,8.1914453)">
						<path id="path11876" inkscape:connector-curvature="0" sodipodi:nodetypes="cccccc" class="st10" d="M-398.9,372v-8.9l-6.6,0
							v8.9l3.3,6.1L-398.9,372z"/>
						<path id="path11878" inkscape:connector-curvature="0" sodipodi:nodetypes="cccccc" class="st10" d="M-409.4,372v-8.9l-5.3,0
							v8.9l2.7,6.1L-409.4,372z"/>
						<path id="path11880" inkscape:connector-curvature="0" sodipodi:nodetypes="cccccc" class="st10" d="M-394.3,372v-8.9l6.6,0
							v8.9l-3.3,6.1L-394.3,372z"/>
						<path id="path11882" inkscape:connector-curvature="0" sodipodi:nodetypes="cccccc" class="st10" d="M-383.7,372v-8.9l5.3,0
							v8.9l-2.7,6.1L-383.7,372z"/>
					</g>
				</g>
			</g>
		</g>
		<path id="path4689" inkscape:connector-curvature="0" class="st8" d="M-502.1,614.6c-59.8-0.6-119.7-4-179.5-15.6l-1.2-323.2
			c0.5-39.7,29-53.3,81.4-64.2c88-18.3,91.4-44.1,99.4-52.3c7.9,8.2,11.4,34,99.4,52.3c52.4,10.9,80.9,24.5,81.4,64.2l-1.2,323.2
			C-382.4,610.6-442.2,614-502.1,614.6z M-523.3,602c7.1,0,14.1,0,21.2-0.2c56.5,1.2,113-4.2,169.5-12.4V287
			c-0.5-41.1-17.8-52.5-70.2-63.4c-88-18.3-91.4-36.9-99.4-45.1c-7.9,8.2-11.4,26.8-99.4,45.1c-52.4,10.9-69.7,22.2-70.2,63.4v302.4
			C-622.2,596.5-572.7,601.6-523.3,602z"/>
		<path id="path12032" inkscape:connector-curvature="0" class="st12" d="M-502.1,614.6c-59.8-0.6-119.7-4-179.5-15.6l-0.9-235.7
			l1-5.2c1.6,40.5,11.2,74,31,99.3c16.2,20.6,83.5,44,112.2,51.8c79.5,21.6,153.6,44.9,215.7,87.5l0,2.4
			C-382.4,610.6-442.2,614-502.1,614.6z"/>
	</g>
</g>
</svg>
