<?xml version="1.0" encoding="utf-8"?>
<!-- Generator: Adobe Illustrator 26.0.2, SVG Export Plug-In . SVG Version: 6.00 Build 0)  -->
<svg version="1.1" id="Ebene_1" xmlns="http://www.w3.org/2000/svg" xmlns:xlink="http://www.w3.org/1999/xlink" x="0px" y="0px"
	 width="461.1px" height="566.9px" viewBox="0 0 461.1 566.9" style="enable-background:new 0 0 461.1 566.9;" xml:space="preserve"
	>
<style type="text/css">
	.st0{fill-rule:evenodd;clip-rule:evenodd;fill:#DC9D0F;}
	.st1{fill-rule:evenodd;clip-rule:evenodd;fill:#006EB2;}
	.st2{fill-rule:evenodd;clip-rule:evenodd;fill:#FFFFFF;}
	.st3{fill:#FFFFFF;}
	.st4{fill:#EFD36A;}
</style>
<path class="st0" d="M459.5,275.1c-5,50.8-24.4,99.7-51.6,142.7c-23.6,37.4-51.4,69.4-86.4,96.2c-28.4,21.8-57.8,39.9-91.3,52.8
	C148.5,535.2,89,477.8,46.6,406.6c-27.9-46.9-43-97.5-46.2-151.8c-1.7-28.4,2.5-66.5,7.7-94.4C15.8,118.9,28.5,81,45.4,45.5l3.5-2.4
	C95.9,10.6,174.8,0,231.5,0c56.9,0,133.6,10.5,180.8,43.3l3.5,2.4C448.9,110,466.7,202.3,459.5,275.1L459.5,275.1z"/>
<path class="st1" d="M59.5,58.5c41.4-28.6,113.6-41.7,170.7-41.7s129.8,13,171.4,41.9c26.8,47.3,48.1,146.3,41.3,213.3
	c-4.9,47.6-22.3,93.7-48.2,134.6c-22.4,35.6-51.3,67.2-84.6,92.7c-24.6,18.8-51.5,34.2-79.9,45.2c-65.9-24.5-130.5-82.1-170.1-148.6
	c-10.1-17-18.3-34.8-24.8-52.4c-10.7-29-16.9-59.8-18.7-90.3C12.7,189.9,37.8,95.9,59.5,58.5L59.5,58.5z"/>
<path class="st2" d="M61.8,115.9c-16.5,48.8-30.2,109-22.5,165.4c2.6,19,6.6,36.9,13.5,55.6c9.3,25.3,22.1,50,37.5,72.2
	c9.8,14.1,20.9,27.4,32.9,39.9c30.4,31.7,68.5,56.6,106.9,72.8c34.6-12.8,65.8-33.5,92.9-58.2c21.4-19.5,40.3-42.2,55.9-66.9
	c16.2-25.6,29-53.6,37.1-82.9c5.9-21.3,8-42.5,8.2-64.5c0.4-45-9.1-91.2-24.7-133C347.9,92.4,290.1,81.6,230.6,82
	C171.2,82.4,109.9,94.1,61.8,115.9L61.8,115.9z M79.2,122.6c-13.8,42.7-22.8,87.3-21.9,131.6c0.2,12,1.1,24,2.9,36
	c10.1,68.1,44.8,132.6,95.6,179.3c19.1,17.6,42.8,34.1,74.3,49.3c26.3-10.6,51.2-27.6,73.1-47.4c31-28,56.2-62.4,73.3-98.4
	c17.7-37.4,26.7-79.1,27.4-120.3c0.8-44.2-10.4-98.6-21.6-129.2c-46.5-23.4-99.2-33.9-151.9-33.6C178.8,90.2,128,99.8,79.2,122.6
	L79.2,122.6z"/>
<path class="st2" d="M232.1,314.6c39,0,70.6,31.6,70.6,70.6c0,39-31.6,70.6-70.6,70.6c-39,0-70.6-31.6-70.6-70.6
	C161.6,346.2,193.2,314.6,232.1,314.6L232.1,314.6z M232.1,322.1c34.8,0,63.1,28.3,63.1,63.1s-28.3,63.1-63.1,63.1
	c-34.8,0-63.1-28.3-63.1-63.1S197.3,322.1,232.1,322.1L232.1,322.1z"/>
<path class="st3" d="M112.5,171c-4.9,0.8-8.4,2.6-10.5,5.4c-2.1,2.8-2.9,6.7-2.3,11.7l37.5-6.2l1.8,10.9l-37.6,6.3
	c0.9,5.5,2.8,9.2,5.5,11.2c2.8,2,6.9,2.5,12.4,1.6l22.3-3.7l1.8,10.9l-22.9,3.8c-5,0.8-9.1,1.1-12.1,0.7c-3-0.4-6-1.3-8.9-2.9
	c-3.7-2-6.8-4.9-9.1-8.8c-2.3-3.8-4-8.6-4.9-14.3c-1.9-11.1-0.8-19.7,3.3-25.8c4.1-6.1,11.3-10,21.6-11.7l22.5-3.8l1.8,10.9
	L112.5,171L112.5,171z"/>
<path class="st3" d="M195.5,163.6l-27.2,1.6c-3.3,0.2-5.6,1-7,2.4c-1.4,1.4-2.1,3.6-1.9,6.4c0.1,2.3,0.9,3.2,2.2,4.3
	c1.4,1.1,3.3,1.5,5.9,1.4l14.1-0.8c6.7-0.4,11.5,1.5,14.5,4.1c3,2.6,4.7,7.1,5.1,13.6c0.4,6.5-1,11.4-4.1,14.7
	c-3.1,3.3-8.1,5.1-15.2,5.5l-32.5,1.9l-0.7-11.3l28.4-1.8c3.5-0.2,5.9-0.9,7.3-2.1c1.4-1.2,2-3.5,1.8-6.1c-0.2-2.7-0.9-4.5-2.3-5.5
	s-3.6-1.5-6.8-1.3l-12.2,0.8c-7.4,0.5-12.2-0.9-15.4-3.5c-3.3-2.7-5.1-6.8-5.5-13.1c-0.4-6.7,0.9-11.8,4-15.1
	c3.1-3.3,8.6-5.1,15.7-5.6l31-1.9L195.5,163.6L195.5,163.6z"/>
<polygon class="st3" points="223.5,162.7 202.7,162.7 202.7,151.7 258.5,151.7 258.5,162.7 237.5,162.7 237.5,215.1 223.5,215.1 "/>
<path class="st3" d="M279.9,191l16,1.1l-6.4-22.2L279.9,191L279.9,191z M283.2,153.1L297,154l20.6,65l-14.5-0.9l-4.2-14.8l-23.6-1.5
	l-5.8,14l-14.4-0.8L283.2,153.1L283.2,153.1z"/>
<path class="st3" d="M351.5,173c-5.1-0.7-8.7-0.7-11.5,2.5c-2.7,3.2-4.7,8.7-5.9,16.7c-1,6.9-0.5,10.8,1.2,13.9
	c1.7,3.1,5.3,5.1,10.5,5.9l20.2,3l-1.8,11.6l-20.8-3c-4.6-0.7-8.1-1.6-10.6-2.8c-2.5-1.2-4.8-3-6.8-5.3c-2.6-3-4.4-6.7-5.3-11
	c-0.9-4.3-0.9-8.9-0.1-14.6c1.6-11.1,5.1-19,10.3-23.7c5.3-4.6,12.6-6.3,22-4.9l20.5,3l-1.9,11.9L351.5,173L351.5,173z"/>
<polygon class="st4" points="98.2,258.4 86.4,258.4 86.4,253 118,253 118,258.4 106.2,258.4 106.2,283.8 98.2,283.8 "/>
<path class="st4" d="M153.6,258.5h-9.4v7.8h9.4c2.6,0,4.3-0.3,5.3-0.9s1.5-1.6,1.5-3c0-1.4-0.5-2.4-1.4-3
	C158,258.8,156.2,258.5,153.6,258.5L153.6,258.5z M136.5,253h18.9c4.4,0,7.6,0.7,9.7,2.2c2.1,1.5,3.1,3.8,3.1,7
	c0,2.4-0.6,4.3-1.9,5.8c-1.3,1.5-3.1,2.5-5.5,2.9l9.1,12.9h-8.6l-8.1-12.1h-9v12.1h-7.7V253L136.5,253z"/>
<path class="st4" d="M187.1,268.1c0-5.3,1.5-9.3,4.5-11.8c3-2.6,7.6-3.9,13.7-3.9c6.2,0,10.8,1.3,13.7,3.9c3,2.6,4.5,6.7,4.5,12.1
	c0,5.5-1.5,9.5-4.5,12.1c-3,2.6-7.5,3.9-13.7,3.9c-6.3,0-10.9-1.3-13.8-4C188.5,277.9,187.1,273.7,187.1,268.1L187.1,268.1z
	 M205.3,257.6c-3.3,0-5.8,0.9-7.4,2.6c-1.6,1.7-2.4,4.4-2.4,7.9c0,3.8,0.8,6.6,2.4,8.4c1.6,1.8,4.1,2.7,7.5,2.7
	c3.3,0,5.8-0.9,7.4-2.6c1.6-1.8,2.4-4.5,2.4-8.1c0-3.7-0.8-6.4-2.4-8.1C211.1,258.5,208.6,257.6,205.3,257.6L205.3,257.6z"/>
<polygon class="st4" points="238.3,253 246.9,253 256,264.7 265.1,253 274,253 259.9,270.2 259.9,283.8 252.2,283.8 252.2,270.2 "/>
<path class="st4" d="M307,258.3c-2.8,0-4.9,0.6-6.3,1.8c-1.4,1.2-2.2,3-2.3,5.4l21.2,0v5.4h-21.3c0,2.7,0.7,4.6,2,5.8
	c1.3,1.2,3.6,1.8,6.7,1.8h12.6v5.4h-13c-2.9,0-5.1-0.2-6.8-0.6c-1.6-0.4-3.2-1.1-4.6-2.1c-1.9-1.3-3.3-2.9-4.2-4.9
	c-0.9-2-1.4-4.4-1.4-7.2c0-5.5,1.4-9.5,4.2-12.1c2.8-2.6,7.1-3.9,13-3.9h12.8v5.4L307,258.3L307,258.3z"/>
<path class="st4" d="M372,258.5h-19c-2,0-3.5,0.3-4.5,1c-1,0.6-1.4,1.7-1.4,3.1c0,1.1,0.4,2,1.2,2.5c0.8,0.6,2,0.8,3.6,0.8h10.2
	c4.2,0,7.2,0.7,9,2c1.8,1.3,2.7,3.6,2.7,6.7c0,3.2-1,5.5-3.1,7s-5.3,2.2-9.7,2.2h-20.5v-5.5h19.2c2.2,0,3.7-0.3,4.6-0.8
	c0.9-0.5,1.3-1.4,1.3-2.7c0-1.3-0.4-2.2-1.2-2.8c-0.8-0.5-2.2-0.8-4.2-0.8h-9.1c-4.2,0-7.3-0.7-9.2-2.1c-1.9-1.4-2.9-3.7-2.9-6.7
	c0-3.3,1-5.7,3.1-7.2c2-1.5,5.3-2.3,9.8-2.3H372L372,258.5L372,258.5z"/>
<polygon class="st3" points="169.3,38 176.4,37.3 179.9,71 172.8,71.7 "/>
<path class="st3" d="M198.2,49l11.2,0c-0.1-3.1-0.8-5.2-2.1-6.5c-1.4-1.3-3.6-1.9-6.9-1.9c-2.2,0-3.8,0.4-4.7,1.1s-1.5,1.8-1.5,3.4
	c0,1.3,0.3,2.3,1,3C195.8,48.6,196.8,49,198.2,49L198.2,49z M197.8,54.7c-3.9,0-6.7-0.8-8.5-2.3c-1.8-1.5-2.7-3.9-2.7-7.1
	c0-3.5,1.2-6.1,3.7-7.9c2.4-1.8,6-2.7,10.8-2.7c5.6,0,9.7,1.4,12.3,4.1c2.6,2.8,3.9,7.1,3.9,12.9c0,6-1.4,10.3-4.2,13.1
	c-2.8,2.8-7.2,4.2-13.2,4.2h-11.6v-5.8h11.8c3.1,0,5.4-0.7,6.9-2.1c1.5-1.4,2.3-3.5,2.4-6.4L197.8,54.7L197.8,54.7z"/>
<path class="st3" d="M229.6,52c-1.4-1.1-2.5-2.3-3.2-3.6c-0.7-1.4-1.1-2.9-1.1-4.5c0-3,0.9-5.2,2.6-6.6c1.7-1.4,4.4-2.1,8.1-2.1h8.8
	c3.6,0,6.3,0.7,8.1,2.1c1.8,1.4,2.6,3.6,2.6,6.5c0,1.7-0.4,3.2-1.1,4.6c-0.7,1.4-1.8,2.6-3.2,3.6c1.6,0.7,2.8,1.7,3.6,3
	c0.8,1.3,1.1,2.9,1.1,5c0,2.9-0.9,5.1-2.6,6.7c-1.7,1.6-4.2,2.4-7.4,2.4H235c-3.2,0-5.7-0.8-7.5-2.4c-1.7-1.6-2.6-3.8-2.6-6.7
	c0-2,0.4-3.6,1.2-4.9C226.9,53.7,228.1,52.7,229.6,52L229.6,52z M237.9,54.9c-1.8,0-3.1,0.3-4,1c-0.9,0.7-1.3,1.7-1.3,3.1
	c0,1.4,0.4,2.5,1.3,3.2s2.2,1,4,1h5c1.8,0,3.2-0.3,4-1c0.9-0.7,1.3-1.7,1.3-3.2c0-1.4-0.4-2.5-1.3-3.1c-0.9-0.7-2.2-1-4-1
	L237.9,54.9L237.9,54.9z M238,40.9c-1.8,0-3.2,0.3-4,1c-0.9,0.7-1.3,1.7-1.3,3.1c0,1.4,0.4,2.4,1.3,3.1c0.9,0.7,2.2,1,4,1h4.9
	c1.8,0,3.2-0.3,4-1c0.8-0.7,1.3-1.7,1.3-3.1c0-1.4-0.4-2.5-1.3-3.1s-2.2-1-4-1L238,40.9L238,40.9z"/>
<path class="st3" d="M282.5,57.7L271.3,57c-0.2,3,0.3,5.2,1.6,6.6c1.3,1.4,3.4,2.3,6.5,2.5c2.3,0.2,4-0.1,5-0.7
	c1.1-0.6,1.6-1.7,1.8-3.3c0.1-1.3-0.2-2.4-0.8-3.1C284.8,58.2,283.8,57.8,282.5,57.7L282.5,57.7z M283.3,52c3.8,0.3,6.6,1.2,8.3,2.9
	c1.7,1.7,2.5,4.1,2.3,7.3c-0.2,3.5-1.6,6-4.2,7.6c-2.6,1.6-6.2,2.3-10.9,1.9c-5.6-0.4-9.6-2-12-5c-2.4-2.9-3.5-7.3-3-13.1
	c0.4-5.9,2.1-10.2,5.1-12.8c3-2.6,7.5-3.7,13.4-3.3l11.6,0.8l-0.4,5.8l-11.7-0.8c-3.2-0.2-5.6,0.3-7.2,1.5c-1.6,1.2-2.5,3.3-2.7,6.3
	L283.3,52L283.3,52z"/>
<polygon class="st3" points="212,413.9 201,413.9 201,367.6 191.3,370.9 191.3,360.9 206.1,354.6 212,354.6 "/>
<path class="st3" d="M241,373.5v21.7c0,6.9,2.6,10.5,10,10.5c7.6,0,10.1-3.8,10.1-10.8v-22.2c0-6.5-2.9-9-10-9
	C243.9,363.7,241,366.6,241,373.5L241,373.5z M229.6,375.6c0-3.6,0.3-6.4,0.8-8.4c0.6-2,1.5-3.7,2.8-5.4c2-2.6,4.4-4.6,7.2-5.9
	c2.8-1.3,7.1-1.9,10.8-1.9c3.4,0,7.7,0.7,10.5,2c2.9,1.4,5.4,3.3,7.5,5.9c1.2,1.5,2.1,3.3,2.6,5.4c0.5,2.1,0.8,4.9,0.8,8.3v17.9
	c0,3.6-0.3,6.4-0.8,8.4c-0.6,2-1.5,3.8-2.8,5.4c-2,2.6-4.4,4.6-7.1,5.8c-2.8,1.3-7.1,1.9-10.8,1.9c-3.4,0-7.7-0.7-10.5-2
	c-2.9-1.4-5.3-3.3-7.5-5.9c-1.2-1.5-2.1-3.3-2.6-5.4c-0.5-2.1-0.8-4.9-0.8-8.3L229.6,375.6L229.6,375.6z"/>
</svg>
