<?xml version="1.0" encoding="utf-8"?>
<!-- Generator: Adobe Illustrator 26.0.2, SVG Export Plug-In . SVG Version: 6.00 Build 0)  -->
<svg version="1.1"
	 id="svg3318" xmlns:cc="http://creativecommons.org/ns#" xmlns:dc="http://purl.org/dc/elements/1.1/" xmlns:inkscape="http://www.inkscape.org/namespaces/inkscape" xmlns:rdf="http://www.w3.org/1999/02/22-rdf-syntax-ns#" xmlns:sodipodi="http://sodipodi.sourceforge.net/DTD/sodipodi-0.dtd" xmlns:svg="http://www.w3.org/2000/svg"
	 xmlns="http://www.w3.org/2000/svg" xmlns:xlink="http://www.w3.org/1999/xlink" x="0px" y="0px" width="598.6px" height="598.6px"
	 viewBox="0 0 598.6 598.6" style="enable-background:new 0 0 598.6 598.6;" xml:space="preserve">
<style type="text/css">
	.st0{fill:#FFFFFF;stroke:#E70013;stroke-width:10;}
	.st1{fill:#E70013;}
	.st2{fill:#FFFFFF;}
	.st3{fill-rule:evenodd;clip-rule:evenodd;fill:#E70013;}
	.st4{fill:none;stroke:#FFFFFF;stroke-width:10.4894;stroke-linecap:round;stroke-miterlimit:4.287;}
	.st5{fill:#FFFFFF;stroke:#000000;stroke-width:2;}
	.st6{fill:none;stroke:#000000;stroke-width:2;}
	.st7{fill:none;stroke:#E70013;stroke-width:10;stroke-linecap:round;stroke-miterlimit:4.087;}
	.st8{fill:#FFFFFF;stroke:#000000;stroke-width:1.5;}
	.st9{stroke:#000000;}
	.st10{stroke:#000000;stroke-width:1.2775;}
	.st11{fill-rule:evenodd;clip-rule:evenodd;fill:#FFFFFF;}
	.st12{fill:none;stroke:#000000;}
	.st13{fill-rule:evenodd;clip-rule:evenodd;}
	.st14{fill:#1A1A1A;}
	.st15{fill-rule:evenodd;clip-rule:evenodd;stroke:#000000;}
	.st16{fill:none;}
</style>
<defs>
	
		<inkscape:perspective  id="perspective3326" inkscape:persp3d-origin="372.04724 : 350.78739 : 1" inkscape:vp_x="0 : 526.18109 : 1" inkscape:vp_y="0 : 1000 : 0" inkscape:vp_z="744.09448 : 526.18109 : 1" sodipodi:type="inkscape:persp3d">
		</inkscape:perspective>
	
		<inkscape:perspective  id="perspective3396" inkscape:persp3d-origin="0.5 : 0.33333333 : 1" inkscape:vp_x="0 : 0.5 : 1" inkscape:vp_y="0 : 1000 : 0" inkscape:vp_z="1 : 0.5 : 1" sodipodi:type="inkscape:persp3d">
		</inkscape:perspective>
</defs>
<sodipodi:namedview  bordercolor="#666666" borderopacity="1.0" fit-margin-bottom="0" fit-margin-left="0" fit-margin-right="0" fit-margin-top="0" id="base" inkscape:current-layer="layer4" inkscape:cx="382.97942" inkscape:cy="295.17855" inkscape:document-units="px" inkscape:pageopacity="0.0" inkscape:pageshadow="2" inkscape:snap-object-midpoints="true" inkscape:window-height="1004" inkscape:window-maximized="1" inkscape:window-width="1280" inkscape:window-x="-8" inkscape:window-y="-8" inkscape:zoom="1.4" pagecolor="#ffffff" showgrid="false">
	</sodipodi:namedview>
<g id="layer4" transform="translate(-77.857143,-233.0625)" inkscape:groupmode="layer" inkscape:label="Drapeau">
	
		<path id="path3429" sodipodi:cx="384.28571" sodipodi:cy="562.36218" sodipodi:rx="294.28571" sodipodi:ry="294.28571" sodipodi:type="arc" class="st0" d="
		M671.4,532.4c0,162.5-131.8,294.3-294.3,294.3S82.9,694.9,82.9,532.4s131.8-294.3,294.3-294.3S671.4,369.8,671.4,532.4z"/>
	
		<path id="path4313" sodipodi:cx="411.63718" sodipodi:cy="558.90265" sodipodi:rx="213.64726" sodipodi:ry="213.64726" sodipodi:type="arc" class="st1" d="
		M595.8,532.4c0,120.8-97.9,218.7-218.7,218.7s-218.7-97.9-218.7-218.7s97.9-218.7,218.7-218.7S595.8,411.6,595.8,532.4z"/>
	
		<path id="path4315" sodipodi:cx="411.63718" sodipodi:cy="558.90265" sodipodi:rx="213.64726" sodipodi:ry="213.64726" sodipodi:type="arc" class="st2" d="
		M507.2,580.9c0,71.1-57.7,128.8-128.8,128.8S249.6,652,249.6,580.9s57.7-128.8,128.8-128.8S507.2,509.8,507.2,580.9z"/>
	<path id="path3433" inkscape:connector-curvature="0" class="st1" d="M378.4,474.2c-59,0-106.8,47.8-106.8,106.8
		s47.8,106.8,106.8,106.8c41.2,0,77-23.4,94.8-57.6c-15.8,23.3-42.5,38.6-72.8,38.6c-48.5,0-87.9-39.3-87.9-87.8
		s39.4-87.9,87.9-87.9c30.3,0,57,15.3,72.8,38.7C455.4,497.5,419.7,474.2,378.4,474.2z"/>
	
		<path id="path3440" inkscape:flatsided="false" inkscape:randomized="0" inkscape:rounded="0" sodipodi:arg1="0.67091833" sodipodi:arg2="1.2992369" sodipodi:cx="370" sodipodi:cy="544.86218" sodipodi:r1="72.955994" sodipodi:r2="25.97036" sodipodi:sides="5" sodipodi:type="star" class="st3" d="
		M456.1,614.9l-43.5-14.1l-24.7,38.5v-45.8l-44.3-11.6l43.5-14.2l-2.6-45.7l26.9,37l42.7-16.6l-26.9,37L456.1,614.9z"/>
	
		<path id="path4299" sodipodi:cx="395" sodipodi:cy="590.2193" sodipodi:rx="126.42857" sodipodi:ry="126.42857" sodipodi:type="arc" class="st4" d="
		M513.9,580.9c0,74.8-60.7,135.5-135.5,135.5s-135.5-60.7-135.5-135.5s60.7-135.5,135.5-135.5S513.9,506.1,513.9,580.9z"/>
	
		<path id="path4309" inkscape:connector-curvature="0" sodipodi:nodetypes="cccccssssssssscssssssscsssscsssssssccsssssssssccccc" class="st2" d="
		M281.8,487.6l-1,3.3L255,527.6l-10.1,61l-5.7-0.2c0,0-8-0.2-16.2-1.1c-8.2-0.9-12.9-2.7-15-3.6c-2.1-0.9-3.4-2.7-0.7-2
		s0.2-2.9-0.4-4.5s3.6-1.2,5-2.5s-1.6-0.9-3-3.2s5.5,1.3,6.9,0c1.4-1.2-2.9-1.6-3.2-4.8s5.2,0.5,3.8-0.9s-2.9-2.7,12.4-2.1
		c-19.2-0.4-42.2-11.2-44-12.6c-1.8-1.4,2.9-1.4-3.8-2.7s5.4-1.4,8.6-2.3c3.1-0.9-14.2-5-0.2-3.7c10.8,1,0.2-1.3,0.2-3.2
		s4.5-0.5,2.5-3.2s5.4,0.7,2.1-1.4s-2.1-2-5.2-5.1c-27.9-9-42.7-20.4-37-20.6s-1.2-7,1.1-6.8c7,0.5,6.2-0.8,1.4-4.1
		c-1.8-1.2,6.6,0,2-2s2.5-2.9,7.7-2.3c-17.5-8.6-26.6-21.6-29.5-24.1s5.9-0.5,10.2-2.7c4.3-2.1-4.6-1.6-5.9-4.5s5.7,2.7,7.5,0.9
		c1.8-1.8-6.4-1.6-6.4-3.8s5,1.4,8.6,0.2s-1.8-1.8-4.5-3.6c-2.7-1.8-2.9-3.4,5-2c-11.5-7.2-29.4-32.4-29.4-32.4s-1.1-3.9,1.8-3.2
		c2.9,0.7,9.5,3.8,7.1,0.7c-2.3-3-10.5-7.7-8.4-7.7s5.4,3.6,6.8,1.8c1.4-1.8-7.3-8.6-2.9-7.1c4.5,1.4,2.3-0.9,2.3-3.9s3.2-0.5,3.9-2
		c0.7-1.4-2.3-6.1-0.9-5.7s1.6,3.4,3.4,2.9s-8.2-15.2-0.1-5.3l0,0c79.8,71.2,184.6,61.6,184.6,61.6L304.7,468L282,487.7"/>
	
		<path id="path4307" inkscape:connector-curvature="0" sodipodi:nodetypes="cccccssssssssscssssssscsssscsssssssccsssssssssccccc" class="st2" d="
		M471.4,489.6l1,3.3l25.8,36.7l10.1,61l5.7-0.2c0,0,8-0.2,16.2-1.1c8.2-0.9,12.9-2.7,15-3.6c2.1-0.9,3.4-2.7,0.7-2s-0.2-2.9,0.4-4.5
		s-3.6-1.2-5-2.5s1.6-0.9,3-3.2s-5.5,1.3-6.9,0s2.9-1.6,3.2-4.8c0.4-3.2-5.2,0.5-3.8-0.9s2.9-2.7-12.4-2.1
		c19.2-0.4,42.2-11.2,44-12.6c1.8-1.4-2.9-1.4,3.8-2.7s-5.4-1.4-8.6-2.3c-3.1-0.9,14.2-5,0.2-3.7c-10.8,1-0.2-1.3-0.2-3.2
		s-4.5-0.5-2.5-3.2s-5.4,0.7-2.1-1.4c3.2-2.1,2.1-2,5.2-5.1c27.9-9,42.7-20.4,37-20.6s1.2-7-1.1-6.8c-7,0.5-6.2-0.8-1.4-4.1
		c1.8-1.2-6.6,0-2-2s-2.5-2.9-7.7-2.3c17.5-8.6,26.6-21.6,29.5-24.1s-5.9-0.5-10.2-2.7c-4.3-2.1,4.6-1.6,5.9-4.5s-5.7,2.7-7.5,0.9
		s6.4-1.6,6.4-3.8s-5,1.4-8.6,0.2s1.8-1.8,4.5-3.6c2.7-1.8,2.9-3.4-5-2c11.5-7.2,29.4-32.4,29.4-32.4s1.1-3.9-1.8-3.2
		s-9.5,3.8-7.1,0.7c2.3-3,10.5-7.7,8.4-7.7s-5.4,3.6-6.8,1.8c-1.4-1.8,7.3-8.6,2.9-7.1c-4.5,1.4-2.3-0.9-2.3-3.9s-3.2-0.5-3.9-2
		c-0.7-1.4,2.3-6.1,0.9-5.7c-1.4,0.4-1.6,3.4-3.4,2.9c-1.8-0.5,8.2-15.2,0.1-5.3l0,0c-79.8,71.2-184.6,61.6-184.6,61.6l12.9,14.1
		L471.4,489.6"/>
	<path id="path4295" inkscape:connector-curvature="0" class="st5" d="M550.7,535.2c10.4-0.5,11.4-0.7,8.2,1.4
		c-3.2,2.1,4.1-1.2,2.1,1.4s2.5,1.2,2.5,3.2s-10.6,4.2,0.2,3.2c14-1.3-3.4,2.8-0.2,3.7s15.2,1.1,8.6,2.3c-6.6,1.2-2,1.2-3.8,2.7
		s-24.8,12.1-49.8,12.9 M588.2,496.5c5.9-1.2,13-0.4,8.4,1.6s3.8,0.7,2,2c-4.8,3.2-5.6,4.6,1.4,4.1c2.3-0.2-4.6,6.7,1.1,6.8
		s-9.1,11.6-23.6,17s-28.4,7.9-41.4,8.2c-13,0.4-26.8-3.4-26.8-3.4 M602.9,457.4c8.9-2.5,8.8-0.9,6.1,0.9s-8,2.3-4.5,3.6
		s8.6-2.3,8.6-0.2c0,2.1-8.2,2-6.4,3.8s8.8-3.8,7.5-0.9s-10.2,2.3-5.9,4.5c4.3,2.1,13,0.2,10.2,2.7s-12,15.5-28.8,23.4
		s-38.9,11.2-57,11.1s-40.9-7.5-40.9-7.5 M620.2,394.2c-79.8,71.2-184.6,61.6-184.6,61.6l12.9,14.1l22.7,19.7c0,0,11.6-1,19.2-6.3
		s20.2-16.7,20.2-16.7s7.3,11.9,31.3,9.8s52.8-15.4,63.1-21.5s28.3-31.3,28.3-31.3s1.1-3.9-1.8-3.2s-9.5,3.8-7.1,0.7
		c2.3-3,10.5-7.7,8.4-7.7s-5.4,3.6-6.8,1.8c-1.4-1.8,7.3-8.6,2.9-7.1c-4.5,1.4-2.3-0.9-2.3-3.9s-3.2-0.5-3.9-2
		c-0.7-1.4,2.3-6.1,0.9-5.7c-1.4,0.4-1.6,3.4-3.4,2.9C618.4,399,628.4,384.3,620.2,394.2L620.2,394.2z M530.2,565.6
		c9.5-0.4,8,0.9,6.6,2.3c-1.4,1.4,4.1-2.3,3.8,0.9c-0.4,3.2-4.6,3.6-3.2,4.8s8.4-2.3,6.9,0s-4.4,2-3,3.2s5.5,0.9,5,2.5
		s-3,5.2-0.4,4.5s1.4,1.1-0.7,2c-2.1,0.9-6.8,2.7-15,3.6s-16.2,1.1-16.2,1.1l-5.7,0.2l-10.1-61L472.4,493l-1-3.3"/>
	
		<path id="path4301" inkscape:connector-curvature="0" sodipodi:nodetypes="csssssssccssssssccsssssssssccccccscsscsssssssssccsssssssssccccc" class="st6" d="
		M202.8,533.9c-10.4-0.5-11.4-0.7-8.2,1.4c3.2,2.1-4.1-1.2-2.1,1.4s-2.5,1.2-2.5,3.2s10.6,4.2-0.2,3.2c-14-1.3,3.4,2.8,0.2,3.7
		s-15.2,1.1-8.6,2.3s2,1.2,3.8,2.7c1.8,1.4,24.8,12.1,49.8,12.9 M165.3,495.2c-5.9-1.2-13-0.4-8.4,1.6s-3.8,0.7-2,2
		c4.8,3.2,5.6,4.6-1.4,4.1c-2.3-0.2,4.6,6.7-1.1,6.8s9.1,11.6,23.6,17s28.4,7.9,41.4,8.2c13,0.4,26.8-3.4,26.8-3.4 M150.6,456
		c-8.9-2.5-8.8-0.9-6.1,0.9s8,2.3,4.5,3.6s-8.6-2.3-8.6-0.2c0,2.1,8.2,2,6.4,3.8s-8.8-3.8-7.5-0.9s10.2,2.3,5.9,4.5
		c-4.3,2.1-13,0.2-10.2,2.7c2.9,2.5,12,15.5,28.8,23.4s38.9,11.2,57,11.1s40.9-7.5,40.9-7.5 M133.3,392.9
		c79.8,71.2,193.9,61.4,193.9,61.4l-1.2,6l-19.3,11.2l-24.5,16.9c0,0-11.6-1-19.2-6.3s-20.2-16.7-20.2-16.7s-7.3,11.9-31.3,9.8
		s-52.8-15.4-63.1-21.5s-28.3-31.3-28.3-31.3s-1.1-3.9,1.8-3.2c2.9,0.7,9.5,3.8,7.1,0.7c-2.3-3-10.5-7.7-8.4-7.7s5.4,3.6,6.8,1.8
		c1.4-1.8-7.3-8.6-2.9-7.1c4.5,1.4,2.3-0.9,2.3-3.9s3.2-0.5,3.9-2c0.7-1.4-2.3-6.1-0.9-5.7s1.6,3.4,3.4,2.9S125.1,383,133.3,392.9
		L133.3,392.9z M223.3,564.3c-9.5-0.4-8,0.9-6.6,2.3s-4.1-2.3-3.8,0.9c0.4,3.2,4.6,3.6,3.2,4.8c-1.4,1.2-8.4-2.3-6.9,0s4.4,2,3,3.2
		s-5.5,0.9-5,2.5s3,5.2,0.4,4.5c-2.7-0.7-1.4,1.1,0.7,2c2.1,0.9,6.8,2.7,15,3.6c8.2,0.9,16.2,1.1,16.2,1.1l5.7,0.2l10.1-61
		l25.8-36.7l1-3.3"/>
	
		<path id="path3431" sodipodi:cx="395" sodipodi:cy="590.2193" sodipodi:rx="126.42857" sodipodi:ry="126.42857" sodipodi:type="arc" class="st7" d="
		M507.6,580.9c0,71.3-57.8,129.2-129.2,129.2s-129.2-57.8-129.2-129.2S307,451.7,378.4,451.7S507.6,509.6,507.6,580.9z"/>
	<path id="path4280" inkscape:connector-curvature="0" sodipodi:nodetypes="cccccccccccccssccccccccccccccc" class="st8" d="
		M333.2,393.1c-2.6,7.4,1.8,15.2,8,19.1c5.1,2.9,9.4,9.8,2.2,13.3c-6.8,4.9-9,13.3-12.4,20.6c-1.9,7.3,3.5,14.3,8.9,18.6
		c3.1-4.4-2.5-13.8,2.8-18.9c1.6-4.8,7.1-6.1,7.1,0.2c2,4.1-0.5,13.7,4.1,14.4c-0.3-6-2.6-18.7,7.7-14.5c3.2,2,4,15,6.2,6
		c1.2-2.7,2.3-14.7,5.8-8.6c-0.1,6.5-0.7,13.4,1.9,19.6c2.4,8.9,3.5-5.3,3.3-8.7c0.3-2.4,5.4-11.7,9.7-12.9c5-1.3,9.4,5.7,12.9,4.3
		c1-0.4,3.8-8.9,4.7-8.9c8-1.9,0.4,5.7,0.3,12.8c1.5,6.7-1.6,18.1-2,25c3.3,8.1,5.2-12.4,5.6-15c4.7-9.2,3.7-16.1,12.1-21.8
		c6.6-5.2,12.1,2.5,15.6,7.1c6,0.4,4.5-10.3,4.2-14.8c-3.1-6.4-11-11.1-9.3-19.4c0-22-6.9-45.7-25-59.6
		c-10.8-8.3-23.5-15.2-37.2-16.9c-12.2-0.2-25.5-0.3-35.8,7.2c-3.6,2.4-8.3,4.4-8.6,9.3c-3.2,10.9-6.4,21.8-9.5,32.7
		c1,1.9,0.2,5.5,2.9,5.8C324.2,390.5,328.7,391.8,333.2,393.1L333.2,393.1z"/>
	<path id="path4283" inkscape:connector-curvature="0" class="st9" d="M442.2,433.4c4.5,16.9,12.6,32.1,11.4,33.8
		c-1.3,1.8-13.9-11.1-18.7-13.4s-7.3-3.8-11.6-2.3s-8.3,4.5-10.4,8.8s-4.5-0.3-2.5-3c2-2.8,1.8-10.1,4.8-13.1s2.3-5.8,8.6-6.6
		c6.3-0.8,7.1-2.8,10.1,0.8c3,3.5,3.8,9.3,5.8,5.1C441.7,439.2,442.2,433.1,442.2,433.4L442.2,433.4z"/>
	<path id="path4285" inkscape:connector-curvature="0" class="st10" d="M404.6,466.1c-7.1-12.3-17.8-24.2-11.9-22.6
		s8.7,1.6,10.7-2.4c2-3.9,5.5-10,6.7-6.3s-2.4,3.9-2.8,10C407,450.9,405.4,466.3,404.6,466.1L404.6,466.1z"/>
	<path id="path4221" inkscape:connector-curvature="0" sodipodi:nodetypes="ccsccccscc" class="st9" d="M353.6,351.4
		c-6-0.4-14.5,6.7-9.2,13.5c6.4,3,22.1,9.3,28.7,7.4c5-1.4,5.3-4.6,5-7.3c-0.4-3.6-0.8-7.1-4.3-8.6c-6.5-3.4-6.1,2.1-16.4,2.9
		c-2,0-5.2-0.3-7.2-1c-1.7-1.3,0.4-4.1,2.5-4.7c3.7-0.9,6,1.6,5.9-0.9L353.6,351.4z"/>
	<path id="path4225" inkscape:connector-curvature="0" sodipodi:nodetypes="csssc" class="st11" d="M376.6,364.2
		c0,4-3.2,7.2-7.2,7.2s-7-3.1-5.8-6.9c0.9-3,4-4.5,6.8-5.7C374,357.3,376.6,360.2,376.6,364.2L376.6,364.2z"/>
	<path id="path3444" inkscape:connector-curvature="0" class="st12" d="M325.9,364.7c3.1,2.6,5,5.4,3.1,5.8s-3.7,1.6-4.6-0.4
		S325.9,364.8,325.9,364.7L325.9,364.7z"/>
	
		<path id="path4223" sodipodi:cx="367.94644" sodipodi:cy="363.16574" sodipodi:rx="3.125" sodipodi:ry="3.125" sodipodi:type="arc" class="st13" d="
		M372.5,364.2c0,1.7-1.4,3.1-3.1,3.1s-3.1-1.4-3.1-3.1s1.4-3.1,3.1-3.1S372.5,362.5,372.5,364.2z"/>
	<path id="path4274" inkscape:connector-curvature="0" class="st14" d="M364.5,371.5c0.5,4.6-0.3,4.8-0.8,4.8s-1.2,0.3-1.4-0.4
		c-0.2-0.6,0.4-1.5-0.2-3.7S364.3,371.6,364.5,371.5L364.5,371.5z"/>
	<path id="path4276" inkscape:connector-curvature="0" class="st14" d="M359.3,370.3c0.5,4.6-0.3,4.8-0.8,4.8s-1.2,0.3-1.4-0.4
		c-0.2-0.6,0.4-1.5-0.2-3.7S359.1,370.4,359.3,370.3L359.3,370.3z"/>
	<path id="path4278" inkscape:connector-curvature="0" class="st14" d="M353.4,368.2c0.5,4.6-0.3,4.8-0.8,4.8s-1.2,0.3-1.4-0.4
		c-0.2-0.6,0.4-1.5-0.2-3.7S353.2,368.3,353.4,368.2L353.4,368.2z"/>
	<path id="path3446" inkscape:connector-curvature="0" class="st15" d="M364.2,387.9c-13.8-2.3-40.4-3.6-47.5,0.1
		c-1.4-0.4,1.4-2.1,4.9-2.9c3.5-0.9,36.7-4.3,39.4-3.3 M327.7,346.8c12,9.8,9.3,15.9,12.1,19.6s10,10.2,14.3,12.9s10.5,2.3,12.7,4.6
		c2.1,2.3,3.4,5.9,3.4,5.9s-8-3.6-10.9-1.8c-2.9,1.8-2.3,7-3,7.9s-3.8,2.5-5.5,2.3s-7-3.8-9.5-3.8s-16.4-3.4-18.9-4.3
		s-7.1-3.2-8.9-1.4c-1.8,1.8-4.3,3-5,5.5s0.7,8.8-0.2,9.1s-8-7-7-17C302.3,376.5,317,355,327.7,346.8L327.7,346.8z"/>
	<g id="text4321" transform="translate(0,-4.4161004e-6)">
		<path id="path4399" inkscape:connector-curvature="0" d="M124.7,549.1l-15,1.8l-0.9-7.2l34.9-4.3l3,24.5l-6,0.7l-2.1-17.3l-7.9,1
			l1.9,15.3l-6,0.7L124.7,549.1"/>
		<path id="path4401" inkscape:connector-curvature="0" d="M153.6,577.2l0.9,4.7l-7.4-5l-0.5-2.5L153.6,577.2 M127.3,574.4l-10.5,2
			l3.5,18l-3.4,0.7l-4.3-21.9l30.5-5.9l4.1,21.1l-3.4,0.7l-3.4-17.2l-9.7,1.9l3.2,16.6l-3.4,0.7L127.3,574.4"/>
		<path id="path4403" inkscape:connector-curvature="0" d="M118.3,601.1l29.9-8.4l3.2,11.5c1.1,3.8,0.6,7.2-1.5,10.1
			c-2,2.9-5.4,5-10,6.3c-4.7,1.3-8.6,1.2-11.9-0.2c-3.3-1.4-5.4-4-6.5-7.8L118.3,601.1 M122.8,603.9l2,7.1c0.8,3,2.4,4.9,4.8,5.9
			c2.4,1,5.5,0.9,9.3-0.1c3.8-1.1,6.5-2.6,8-4.7c1.5-2.1,1.9-4.6,1.1-7.6l-2-7.1L122.8,603.9"/>
		<path id="path4405" inkscape:connector-curvature="0" d="M168,627.6l1.7,4.5l-8.2-3.7l-0.9-2.4L168,627.6 M141.6,629.3l-10,3.8
			l6.5,17.1l-3.3,1.2l-7.9-20.8l29-11.1l7.7,20.1l-3.3,1.2l-6.3-16.4l-9.3,3.5l6,15.8l-3.3,1.2L141.6,629.3"/>
		<path id="path4407" inkscape:connector-curvature="0" d="M159.7,667.3c0.1,1,0,1.9-0.2,2.6c-0.2,0.8-0.6,1.5-1,2
			c-0.5,0.6-1,1-1.5,1.4c-0.5,0.3-1.1,0.7-1.8,1.1c-0.2,0.1-0.6,0.3-1,0.5s-0.7,0.4-1,0.5c-1,0.5-1.9,1.1-2.5,1.7
			c-0.6,0.6-1,1.3-1.1,2.2l-0.9,0.4l-2.2-4.3c0.9-1.1,2.3-2.1,4.2-3l2.5-1.2c1.7-0.9,2.8-1.8,3.2-3c0.4-1.1,0.3-2.5-0.5-4.1
			l-4.6-9.1l-12,6l-1.8-3.5l27.8-13.9l6.4,12.8c1.4,2.7,1.8,5.1,1.2,7.2c-0.5,2.1-2,3.8-4.4,5c-1.6,0.8-3.1,1.1-4.4,0.9
			C162.7,669.1,161.2,668.4,159.7,667.3 M166.2,664.9c1.8-0.9,2.8-2,3-3.3s-0.1-2.8-1-4.5l-4.3-8.6l-9.6,4.8l4.3,8.6
			c0.9,1.9,2,3.1,3.2,3.5C163.1,665.9,164.5,665.7,166.2,664.9"/>
		<path id="path4409" inkscape:connector-curvature="0" d="M168.2,692.8l-6.5-10.1l-9.6,2.3l-2.3-3.5l32.1-7.5l2.8,4.3l-20.2,26
			l-2.4-3.7L168.2,692.8 M170.4,690.1l9.3-11.7l-14.7,3.4L170.4,690.1"/>
		<path id="path4411" inkscape:connector-curvature="0" d="M194.9,697.9l-21.5,17.3l-2.5-3.1l21.5-17.3l-6.4-8l2.7-2.2l15.3,19
			l-2.7,2.2L194.9,697.9"/>
		<path id="path4413" inkscape:connector-curvature="0" d="M208.8,708.2l-22.5,21.4l-2.8-2.9l22.5-21.4L208.8,708.2"/>
		<path id="path4415" inkscape:connector-curvature="0" d="M222.1,741.9c-3,3.5-6.6,5.5-10.6,6c-4.1,0.5-7.8-0.7-11.2-3.7
			c-3.4-2.9-5.1-6.4-5.3-10.5c-0.1-4.1,1.4-8,4.6-11.6c3.2-3.7,6.8-5.7,10.8-6.2c4.1-0.5,7.8,0.8,11.1,3.7c3.4,3,5.2,6.5,5.3,10.6
			C227,734.2,225.4,738.1,222.1,741.9 M219.3,722.2c-2.5-2.2-5.3-3-8.3-2.6c-3.1,0.4-5.8,2.1-8.3,5s-3.8,5.9-3.8,9s1.3,5.7,3.8,7.9
			s5.3,3,8.3,2.6c3.1-0.4,5.8-2,8.3-4.9c2.6-3,3.9-6,3.9-9.1C223.1,727,221.8,724.4,219.3,722.2"/>
		<path id="path4417" inkscape:connector-curvature="0" d="M253.5,743.2l-17,26l-3.8-2.4l0.3-29.9L219.3,758l-3.1-2l17-26l3.6,2.3
			l-0.3,30.1l13.9-21.3L253.5,743.2"/>
		<path id="path4419" inkscape:connector-curvature="0" d="M278.3,757l-11.4,26.8l-6.6-2.8l11.4-26.8l-9.8-4.2l2.4-5.5l25.9,11
			l-2.4,5.5L278.3,757"/>
		<path id="path4421" inkscape:connector-curvature="0" d="M308.3,764.9l3.8,1.1l-6.2,20.9c-0.9,3-2.6,5.1-5.3,6.2
			c-2.6,1.2-5.6,1.2-9.1,0.2s-6.1-2.7-7.6-5.1c-1.5-2.4-1.8-5.1-0.9-8.1l6.2-20.9l3.8,1.1l-6.2,20.9c-0.6,2.2-0.4,4,0.6,5.5
			c1.1,1.5,2.8,2.6,5.1,3.2c2.4,0.7,4.4,0.7,6.1,0s2.8-2.1,3.4-4.1L308.3,764.9"/>
		<path id="path4423" inkscape:connector-curvature="0" d="M339.1,771.1l-5.5,30.6l-4.4-0.8l-11.3-27.6l-4.5,24.8l-3.7-0.7l5.5-30.6
			l4.2,0.8l11.5,27.9l4.5-25L339.1,771.1"/>
		<path id="path4425" inkscape:connector-curvature="0" d="M348.5,771.9l-3.4,30.9l-4-0.4l3.4-30.9L348.5,771.9"/>
		<path id="path4427" inkscape:connector-curvature="0" d="M363.3,801.7c1.6,0.1,2.9,0,4.1-0.4c1.1-0.3,2-0.8,2.5-1.3
			c0.6-0.6,1-1.1,1.2-1.7c0.3-0.6,0.4-1.2,0.4-1.9c0.1-2.4-1.7-4.1-5.5-5.3l-7.6-2.4c-4-1.2-5.9-3.8-5.7-7.5c0.1-2.8,1.2-5,3.3-6.5
			c2.1-1.5,4.8-2.2,8.2-2.1c3.6,0.2,6.3,1.2,8.2,3c1.9,1.8,2.8,4.2,2.7,7.2l-3.7-0.2c0.1-2-0.5-3.6-1.8-4.7
			c-1.3-1.2-3.2-1.8-5.6-1.9c-2.1-0.1-3.8,0.3-5.1,1.2c-1.3,0.9-2,2.1-2.1,3.7c-0.1,1.2,0.3,2.1,1,2.9c0.7,0.7,2,1.4,3.9,2l7.7,2.5
			c2.1,0.7,3.6,1.7,4.7,3.1c1.1,1.4,1.6,3.1,1.5,5c0,0.8-0.2,1.6-0.5,2.5c-0.2,0.8-0.7,1.6-1.3,2.5c-0.6,0.8-1.4,1.5-2.3,2.1
			s-2.1,1.1-3.6,1.4c-1.5,0.4-3.1,0.5-5,0.4c-1.2-0.1-2.3-0.2-3.3-0.5c-1-0.2-2.1-0.6-3.2-1.1c-1.1-0.6-2-1.3-2.8-2.1
			s-1.4-1.9-1.8-3.2s-0.6-2.8-0.6-4.6l3.7,0.2v0.2c0,0.9,0,1.7,0.3,2.5c0.2,0.8,0.6,1.6,1.2,2.3c0.6,0.8,1.5,1.4,2.6,1.9
			C360.2,801.3,361.6,801.6,363.3,801.7"/>
		<path id="path4429" inkscape:connector-curvature="0" d="M385,773.5l0.3,31.1h-4l-0.3-31.1H385"/>
		<path id="path4431" inkscape:connector-curvature="0" d="M395.5,790.1l0.8,10.6l18.3-1.4l0.3,3.5l-22.2,1.8l-2.5-31l21.5-1.7
			l0.3,3.5l-17.5,1.4l0.8,9.9l16.9-1.3l0.3,3.5L395.5,790.1"/>
		<path id="path4433" inkscape:connector-curvature="0" d="M438.7,767l5.7,30.5l-4.4,0.8l-20.4-21.8l4.6,24.8l-3.7,0.7l-5.7-30.5
			l4.2-0.8l20.6,22l-4.6-25L438.7,767"/>
		<path id="path4435" inkscape:connector-curvature="0" d="M464.9,759.2l9.1,29.7l-4.3,1.3L447,770.8l7.4,24.1l-3.6,1.1l-9.1-29.7
			l4.1-1.3l23,19.5l-7.4-24.3L464.9,759.2"/>
		<path id="path4437" inkscape:connector-curvature="0" d="M478.6,771.8l4.2,9.8l16.8-7.3l1.4,3.2l-20.5,8.8l-12.3-28.5l19.8-8.5
			l1.4,3.2l-16.1,7l3.9,9.1l15.5-6.7l1.4,3.2L478.6,771.8"/>
		<path id="path4439" inkscape:connector-curvature="0" d="M516.9,769.1l-16.7-26.2l10.1-6.5c3.3-2.1,6.7-2.6,10.1-1.5
			s6.4,3.7,9,7.8s3.7,7.9,3.3,11.5c-0.4,3.5-2.3,6.4-5.6,8.5L516.9,769.1 M518.4,764l6.2-3.9c2.6-1.7,4-3.8,4.2-6.4
			c0.2-2.6-0.7-5.5-2.8-8.8s-4.4-5.4-6.9-6.3c-2.4-0.9-5-0.5-7.5,1.2l-6.2,3.9L518.4,764"/>
		<path id="path4441" inkscape:connector-curvature="0" d="M536.8,738.6l6.7,8.2l14.2-11.6l2.2,2.7L542.7,752L523,728l16.7-13.6
			l2.2,2.7l-13.6,11.1l6.3,7.7l13.1-10.7l2.2,2.7L536.8,738.6"/>
		<path id="path4443" inkscape:connector-curvature="0" d="M566.1,710.1l11.4,10l-4.8,5.4l-26.4-23.2l16.3-18.5l4.5,4l-11.5,13.1
			l6,5.3l10.2-11.5l4.5,4L566.1,710.1"/>
		<path id="path4445" inkscape:connector-curvature="0" d="M595.3,671.6c3.8,2.6,6.2,5.9,7.2,9.8c1,4,0.2,7.8-2.4,11.6
			c-2.5,3.7-5.8,5.9-9.8,6.5s-8.1-0.5-12.1-3.2s-6.5-6.1-7.4-10c-0.9-4-0.1-7.8,2.4-11.5c2.6-3.8,5.9-5.9,9.9-6.5
			C587,667.6,591.1,668.7,595.3,671.6 M576,676.6c-1.9,2.7-2.4,5.6-1.6,8.6c0.8,3,2.8,5.5,5.9,7.7c3.2,2.2,6.3,3.1,9.4,2.7
			c3.1-0.4,5.5-1.9,7.4-4.7c1.9-2.7,2.4-5.6,1.6-8.6c-0.8-3-2.7-5.6-5.8-7.7c-3.2-2.2-6.4-3.1-9.5-2.8
			C580.4,672.3,577.9,673.9,576,676.6"/>
		<path id="path4447" inkscape:connector-curvature="0" d="M609.5,643.7c4.1,2.1,6.9,5.1,8.3,8.9c1.5,3.8,1.2,7.7-0.9,11.8
			c-2,4-5,6.5-8.9,7.6s-8.1,0.5-12.4-1.7s-7.2-5.2-8.6-9c-1.4-3.8-1.1-7.7,0.9-11.7c2.1-4,5.1-6.6,9-7.7
			C600.9,640.8,605.1,641.4,609.5,643.7 M591.1,651.2c-1.5,2.9-1.7,5.8-0.5,8.7s3.4,5.2,6.9,6.9s6.6,2.3,9.6,1.5s5.3-2.6,6.8-5.5
			s1.7-5.8,0.5-8.7c-1.1-2.9-3.4-5.2-6.7-6.9c-3.5-1.8-6.7-2.3-9.8-1.6C594.9,646.3,592.6,648.2,591.1,651.2"/>
		<path id="path4449" inkscape:connector-curvature="0" d="M602.3,626.7l25.8,9.8l-1.4,3.7l-25.8-9.8l-3.6,9.6l-3.3-1.2l8.7-22.8
			l3.3,1.2L602.3,626.7"/>
		<path id="path4451" inkscape:connector-curvature="0" d="M630.5,598.3c2.6,0.7,4.4,2.1,5.5,4.1s1.3,4.4,0.6,7.1l-3.7,13.5l-30-8.2
			l3.3-12.2c0.5-1.7,1.1-3.1,1.9-4.2c0.8-1.1,1.7-1.8,2.7-2.2s1.9-0.6,2.8-0.7c0.9-0.1,1.7,0,2.6,0.3c3.1,0.8,4.9,2.8,5.4,5.9
			c1.3-1.7,2.6-2.8,4-3.4C627.1,597.8,628.7,597.8,630.5,598.3 M619,607.1c1.1-4,0.1-6.4-3.1-7.3c-3.2-0.9-5.3,0.7-6.4,4.7l-2,7.4
			l9.5,2.6L619,607.1 M633.2,608.9c0.4-1.3,0.4-2.5,0-3.5s-0.9-1.8-1.5-2.2c-0.6-0.5-1.4-0.8-2.2-1c-1.6-0.4-2.9-0.3-4.1,0.4
			c-1.2,0.7-2.1,1.9-2.5,3.6l-2.6,9.3l10.3,2.8L633.2,608.9"/>
		<path id="path4453" inkscape:connector-curvature="0" d="M633.5,578.5l-2.1,11.8l8.6,4.8l-0.7,4.2L610.7,583l0.9-5l32.5-5.4
			l-0.8,4.4L633.5,578.5 M630.1,579l-14.8,2.3l13.1,7.5L630.1,579"/>
		<path id="path4455" inkscape:connector-curvature="0" d="M613.8,561.8l27.5,2.4l1.4-15.3l3.5,0.3l-1.7,19.2l-30.9-2.7L613.8,561.8
			"/>
		<path id="path4457" inkscape:connector-curvature="0" d="M615.2,540.4l27.6,0.4l0.2-15.3l3.5,0.1l-0.3,19.3l-31.1-0.5L615.2,540.4
			"/>
	</g>
	<path id="path4351" inkscape:connector-curvature="0" sodipodi:nodetypes="csc" class="st16" d="M108.6,540.2
		C124.3,716.3,233.7,804.6,380,804.6s267.1-108.3,266.4-275.1"/>
	<g id="text4459" transform="matrix(1,0,0,1.0539754,0,-12.311504)">
		<path id="path4480" inkscape:connector-curvature="0" d="M514.6,314.4l7.2-2.1c0.5-0.2,0.8,0.1,0.8,0.8c0.1,0.7-0.1,1.6-0.4,2.8
			c-0.3,1.2-0.8,2.6-1.4,4.1c-0.6,1.6-1.3,3.1-2.1,4.7s-1.7,3.1-2.6,4.6c-0.9,1.5-1.9,2.7-2.9,3.7s-1.9,1.8-2.9,2.2
			c-0.9,0.4-1.8,0.4-2.6-0.1l-14.9-9.1l6.6-10.8l13.6,8.3L514.6,314.4 M529.1,304.4c0.1,0.3,0.1,0.5,0,0.8s-0.3,0.4-0.6,0.5
			l-4.9,1.8c-0.3,0.1-0.5,0.1-0.8,0s-0.4-0.3-0.5-0.6l-1.8-5l-0.1-0.2l-4,1.4c-0.3,0.1-0.6,0.1-0.8,0c-0.3-0.1-0.4-0.3-0.5-0.6
			l-1.7-5c-0.1-0.3-0.1-0.5,0-0.8s0.3-0.4,0.6-0.5l4.9-1.8c0.3-0.1,0.6-0.1,0.8,0c0.3,0.1,0.4,0.3,0.5,0.6l1.7,5c0,0,0,0.1,0,0.2
			l4.1-1.4c0.3-0.1,0.5-0.1,0.8,0s0.5,0.3,0.5,0.6L529.1,304.4"/>
		<path id="path4482" inkscape:connector-curvature="0" d="M479.8,319.5l5.9-11.2l14.4,7.6l-5.9,11.1L479.8,319.5"/>
		<path id="path4484" inkscape:connector-curvature="0" d="M466.9,313.6l5.3-11.4l14.7,6.9l-5.4,11.4L466.9,313.6"/>
		<path id="path4486" inkscape:connector-curvature="0" d="M453.8,308.3l4.7-11.7l15.1,6.1l-4.8,11.7L453.8,308.3"/>
		<path id="path4488" inkscape:connector-curvature="0" d="M440.3,303.8l4.1-11.9l15.4,5.3l-4.1,11.9L440.3,303.8"/>
		<path id="path4490" inkscape:connector-curvature="0" d="M431.3,301.3l-4-1c-1.8-0.2-3.2-0.9-4.2-2s-1.5-2.4-1.6-4
			s0.2-3.3,0.9-5.2c0.7-1.9,1.9-3.8,3.6-5.7c2.6-3.1,5-5.2,7-6.3c2-1.1,3.7-1.4,4.9-0.7c1.3,0.7,2.2,2.2,2.7,4.6s0.6,5.6,0.3,9.6
			l3.7,0.9l-3.1,12.3l-4.2-1c-2.6,3.2-5.1,5.6-7.6,7.1c-2.5,1.6-4.9,2.3-7.3,2.1c-2.4-0.2-4.6-1.2-6.8-3.2c-2.2-1.9-4.2-4.7-6.1-8.5
			l0.5-1.3c1.4,1.3,2.9,2.5,4.7,3.4c1.8,1,3.6,1.6,5.5,1.9s3.8,0.3,5.7-0.2C427.8,303.8,429.6,302.8,431.3,301.3 M435.4,289
			c0.1-1.2,0-2.1-0.3-2.9c-0.2-0.8-0.6-1.3-1-1.7c-0.4-0.4-0.9-0.6-1.5-0.7c-0.5-0.1-1.1,0-1.7,0.3c-0.6,0.2-1.1,0.6-1.7,1.1
			c-0.5,0.5-1,1.1-1.3,1.8c0.3,0.4,0.5,0.7,0.7,1c0.3,0.2,0.5,0.4,0.7,0.5s0.5,0.2,0.7,0.3c0.2,0,0.5,0.1,0.7,0.1
			c0.4,0.1,0.9,0.2,1.5,0.4c0.5,0.2,1,0.3,1.5,0.4s0.9,0.1,1.2,0.1C435.3,289.5,435.4,289.3,435.4,289"/>
		<path id="path4492" inkscape:connector-curvature="0" d="M405.5,274.4l5.8-4.8c0.4-0.4,0.8-0.2,1.1,0.4c0.3,0.6,0.6,1.5,0.8,2.8
			c0.2,1.2,0.3,2.6,0.4,4.3c0.1,1.7,0.1,3.4-0.1,5.2c-0.1,1.8-0.3,3.5-0.6,5.2c-0.3,1.7-0.7,3.3-1.1,4.6c-0.5,1.3-1.1,2.4-1.8,3.2
			c-0.7,0.8-1.5,1.1-2.5,1l-17.3-2.3l1.7-12.5l15.8,2.2L405.5,274.4 M411.3,260.8c0.2,0.2,0.3,0.5,0.3,0.8s-0.1,0.5-0.3,0.7
			l-3.8,3.6c-0.2,0.2-0.5,0.3-0.8,0.3s-0.5-0.1-0.7-0.3l-3.6-3.8c-0.2-0.2-0.3-0.5-0.3-0.8s0.1-0.5,0.3-0.7l3.9-3.6
			c0.2-0.2,0.4-0.3,0.7-0.3c0.3,0,0.5,0.1,0.7,0.3L411.3,260.8"/>
		<path id="path4494" inkscape:connector-curvature="0" d="M375.6,293.3l0.7-12.6l16.3,0.9l-0.7,12.6L375.6,293.3"/>
		<path id="path4496" inkscape:connector-curvature="0" d="M361.4,293.5l-0.1-12.6l16.3-0.1l0.1,12.6L361.4,293.5"/>
		<path id="path4498" inkscape:connector-curvature="0" d="M347.2,294.6l-0.9-12.6l16.3-1.1l0.8,12.6L347.2,294.6"/>
		<path id="path4500" inkscape:connector-curvature="0" d="M333.1,296.5l-1.7-12.5l16.2-2.1l1.6,12.5L333.1,296.5"/>
		<path id="path4502" inkscape:connector-curvature="0" d="M319.1,299.3l-2.4-12.4l16-3.1l2.4,12.4L319.1,299.3"/>
		<path id="path4504" inkscape:connector-curvature="0" d="M305.3,302.9l-3.1-12.2l15.8-4l3.1,12.2L305.3,302.9"/>
		
			<path id="path4506" inkscape:connector-curvature="0" sodipodi:nodetypes="ccssccccssscccsscssscccssccscccccssssscccsccccscsssccccccssssscccccssccc" d="
			M288.4,308.1c-0.4,0.1-0.8,0.2-1.3,0.3c-0.5,0.1-1,0.1-1.5,0s-1-0.2-1.5-0.5s-1-0.7-1.4-1.2l0.5,3.6l-10.9,4.7
			c0.3,2.5,0.2,4.8-0.4,7c-0.5,2.2-1.4,4.1-2.5,5.8c-1.2,1.7-2.5,3.1-4.2,4.3c-1.6,1.1-3.3,1.9-5.1,2.3c-1.8,0.4-3.6,0.4-5.5,0.1
			c-1.8-0.3-3.6-1.2-5.2-2.5c-1.6-1.3-3.1-3.1-4.4-5.3c-1.3-2.3-2.3-5.2-2.9-8.6c-0.1-0.5-0.2-1.1-0.2-1.8c0-0.7,0-1.3,0-2
			c0-0.6,0.1-1.1,0.2-1.6c0.1-0.4,0.2-0.6,0.4-0.6c0.4,0.1,0.6,0.2,0.8,0.2c0.2,0.1,0.3,0.3,0.4,0.7c0.4,2.5,1.1,4.6,2.1,6.2
			s2.1,2.9,3.4,3.8c1.3,0.9,2.7,1.4,4.2,1.6s2.9,0.1,4.4-0.4c1.4-0.4,2.8-1.1,4.1-2c1.3-0.9,2.3-2.1,3-3.6c0.9-1.6,1.5-3.1,1.7-4.2
			c0.3-1.2,0.4-2.2,0.2-3.1c-0.2-0.9-0.5-1.7-1.1-2.3c-0.6-0.7-1.2-1.3-2.1-1.9c-0.8-0.6-1.7-1.3-2.7-1.9c-1-0.7-2.1-1.4-3.1-2.3
			c0-0.3-0.1-0.7-0.1-1.2c0-0.6-0.1-1.2-0.1-1.8c0-0.7,0-1.4,0.1-2c0.1-0.7,0.2-1.3,0.3-1.8c0.1-0.5,0.3-0.9,0.5-1.2
			c0.2-0.3,0.5-0.4,0.9-0.2c1.8,0.7,3.2,1.6,4.3,2.6c1.1,1,1.9,1.9,2.5,2.8s1.1,1.6,1.4,2.1c0.3,0.6,0.7,0.8,1,0.7l8-3.4l-2.9-5.1
			l3.1-6.8c0-0.1,0.1,0,0.2,0.3c0.1,0.2,0.3,0.6,0.5,1.1s0.5,1.1,0.9,1.7c0.3,0.6,0.8,1.3,1.3,2s1.1,1.4,1.8,2
			c0.7,0.6,1.5,1.2,2.3,1.7l3.8-1.6l0,0l2.8-1.2l-2.9-5.1l3.1-6.8c0-0.1,0.1,0,0.2,0.3s0.3,0.6,0.5,1.1s0.5,1.1,0.9,1.7
			c0.3,0.6,0.8,1.3,1.3,2s1.1,1.4,1.8,2c0.7,0.6,1.5,1.2,2.3,1.7l5,0.3l3.3,12l-3,0.8c-0.9,0.7-0.8,0.2-1.3,0.3
			c-0.5,0.1-1,0.1-1.5,0s-1.5-1.7-2-1.9c-0.5-0.3-1-0.7-1.4-1.2l0.5,3.6L288.4,308.1"/>
	</g>
</g>
<g id="layer3" transform="translate(-77.857143,-233.0625)" inkscape:groupmode="layer" inkscape:label="Aigle">
</g>
<g id="layer5" transform="translate(-77.857143,-233.0625)" inkscape:groupmode="layer" inkscape:label="Texte">
</g>
</svg>
