<?xml version="1.0" encoding="utf-8"?>
<!-- Generator: Adobe Illustrator 26.0.2, SVG Export Plug-In . SVG Version: 6.00 Build 0)  -->
<svg version="1.1"
	 id="svg2" xmlns:cc="http://creativecommons.org/ns#" xmlns:dc="http://purl.org/dc/elements/1.1/" xmlns:inkscape="http://www.inkscape.org/namespaces/inkscape" xmlns:rdf="http://www.w3.org/1999/02/22-rdf-syntax-ns#" xmlns:sodipodi="http://sodipodi.sourceforge.net/DTD/sodipodi-0.dtd" xmlns:svg="http://www.w3.org/2000/svg"
	 xmlns="http://www.w3.org/2000/svg" xmlns:xlink="http://www.w3.org/1999/xlink" x="0px" y="0px" width="473.6px" height="800px"
	 viewBox="0 0 473.6 800" style="enable-background:new 0 0 473.6 800;" xml:space="preserve">
<style type="text/css">
	.st0{fill-rule:evenodd;clip-rule:evenodd;fill:url(#path5435_00000017485911933152800920000000281501052751569066_);}
	.st1{fill-rule:evenodd;clip-rule:evenodd;fill:url(#path4905_00000039115899496679794920000008003473765089663877_);}
	.st2{fill-rule:evenodd;clip-rule:evenodd;fill:url(#path4907_00000083059266437742682660000009869505435419167666_);}
	.st3{fill-rule:evenodd;clip-rule:evenodd;fill:url(#path4895_00000071528529646436063180000017075266662309076613_);}
	.st4{fill-rule:evenodd;clip-rule:evenodd;fill:url(#path4893_00000093142317097788536260000001496787029964429991_);}
	.st5{fill-rule:evenodd;clip-rule:evenodd;fill:url(#path4899_00000175298321194394221530000000129496354621617080_);}
	.st6{fill-rule:evenodd;clip-rule:evenodd;fill:url(#path4903_00000114049524162049365990000012615734236171816833_);}
	.st7{fill-rule:evenodd;clip-rule:evenodd;fill:url(#path4897_00000056393459218721987420000003671459112060951222_);}
	.st8{fill-rule:evenodd;clip-rule:evenodd;fill:url(#path4901_00000108303896983443406700000003622758084770581923_);}
	.st9{fill-rule:evenodd;clip-rule:evenodd;fill:url(#path5306_00000167385529165273857260000000144847342951507634_);}
	.st10{fill-rule:evenodd;clip-rule:evenodd;fill:url(#path5308_00000069392000533312212020000004146952947788158345_);}
	.st11{fill-rule:evenodd;clip-rule:evenodd;fill:url(#path5310_00000014618509540994705120000014540354095094975636_);}
	.st12{fill-rule:evenodd;clip-rule:evenodd;fill:url(#path5312_00000182520668999218885340000010326264089430293394_);}
	.st13{fill-rule:evenodd;clip-rule:evenodd;fill:url(#path5314_00000111874323623133950180000003704981670336332700_);}
	.st14{fill-rule:evenodd;clip-rule:evenodd;fill:url(#path5316_00000009590211370221356100000013264941424086938030_);}
	.st15{fill:#2B4B7B;}
	.st16{fill-rule:evenodd;clip-rule:evenodd;fill:url(#path5457_00000150782841506033027790000008248281711170675090_);}
	.st17{fill-rule:evenodd;clip-rule:evenodd;fill:url(#path5453_00000044164498303669857320000009372567510284678806_);}
	.st18{fill:url(#ellipse4932_00000129892360120367880850000003528997033133406131_);}
	.st19{fill:#FFFFFF;}
	.st20{fill-rule:evenodd;clip-rule:evenodd;fill:url(#path4911_00000174591614941085888040000014932127899688969882_);}
	.st21{fill-rule:evenodd;clip-rule:evenodd;fill:url(#path4913_00000142171478610720018640000007684934427141297820_);}
	.st22{fill-rule:evenodd;clip-rule:evenodd;fill:url(#path4915_00000140012431626526939280000003884471265831251347_);}
	.st23{fill-rule:evenodd;clip-rule:evenodd;fill:url(#path4917_00000037672085545854762040000015619008639503741375_);}
	.st24{fill-rule:evenodd;clip-rule:evenodd;fill:url(#path5021_00000061466127185800023850000012533051435874702490_);}
	.st25{fill-rule:evenodd;clip-rule:evenodd;fill:url(#path5023_00000121259262341670790340000000670290023170900900_);}
	.st26{fill:#4274BA;}
</style>
<sodipodi:namedview  bordercolor="#666666" borderopacity="1" gridtolerance="10" guidetolerance="10" id="namedview4" inkscape:current-layer="g5409" inkscape:cx="-149.47577" inkscape:cy="314.04412" inkscape:pageopacity="0" inkscape:pageshadow="2" inkscape:window-height="691" inkscape:window-maximized="1" inkscape:window-width="1280" inkscape:window-x="0" inkscape:window-y="1" inkscape:zoom="0.51041666" objecttolerance="10" pagecolor="#ffffff" showgrid="false">
	</sodipodi:namedview>
<g id="g10" transform="matrix(1.25,0,0,-1.25,0,800)" inkscape:groupmode="layer" inkscape:label="photoscan_1_1_en - copie">
	<g id="g5409" transform="translate(56.721264,0)">
		<g id="g5726" transform="matrix(0.61003386,0,0,0.61003386,-22.358406,-0.58417613)">
			<g id="g5693">
				<g id="g5564">
					
						<linearGradient id="path5435_00000113319720150052757770000015316801220102730930_" gradientUnits="userSpaceOnUse" x1="654.3301" y1="2780.2478" x2="657.4648" y2="2507.5295" gradientTransform="matrix(0.5814 0 0 0.5814 -122.9261 -606.4597)">
						<stop  offset="0" style="stop-color:#C98B2B"/>
						<stop  offset="0.1817" style="stop-color:#D6A02D"/>
						<stop  offset="0.5861" style="stop-color:#F5DB33"/>
						<stop  offset="1" style="stop-color:#F9E736"/>
					</linearGradient>
					
						<path id="path5435" inkscape:connector-curvature="0" sodipodi:nodetypes="csccccc" style="fill-rule:evenodd;clip-rule:evenodd;fill:url(#path5435_00000113319720150052757770000015316801220102730930_);" d="
						M280.5,995.8c-15.6-21.9-20.8-64-23.3-90.3c-6.2-64.2,7-154.9,15.6-170.1l-34.9-2.2l-2.8,245.5l23.8,42.1L280.5,995.8z"/>
					
						<linearGradient id="path4905_00000065044559061998149750000016430605084826555540_" gradientUnits="userSpaceOnUse" x1="1210.123" y1="560.2916" x2="1208.1638" y2="393.761" gradientTransform="matrix(0.4652 0 0 -0.4652 -308.7585 658.7102)">
						<stop  offset="0" style="stop-color:#DAA62E"/>
						<stop  offset="0.1298" style="stop-color:#D8A32E"/>
						<stop  offset="0.3115" style="stop-color:#CF952C"/>
						<stop  offset="0.5583" style="stop-color:#C98B2B"/>
						<stop  offset="0.7791" style="stop-color:#C7872B"/>
						<stop  offset="1" style="stop-color:#C6872B"/>
					</linearGradient>
					
						<path id="path4905" inkscape:connector-curvature="0" style="fill-rule:evenodd;clip-rule:evenodd;fill:url(#path4905_00000065044559061998149750000016430605084826555540_);" d="
						M254.2,540.6l-67.9-144.1l25.2,12.5l42.7,115.8L296.8,409l25.2-12.5L254.2,540.6L254.2,540.6z"/>
					
						<linearGradient id="path4907_00000158714963716889430210000005380221234514514583_" gradientUnits="userSpaceOnUse" x1="1210.2933" y1="695.0242" x2="1206.375" y2="-192.486" gradientTransform="matrix(0.4652 0 0 -0.4652 -308.7585 658.7102)">
						<stop  offset="0" style="stop-color:#36609A"/>
						<stop  offset="5.737452e-02" style="stop-color:#365F99"/>
						<stop  offset="0.1325" style="stop-color:#365F99"/>
						<stop  offset="0.2671" style="stop-color:#335991"/>
						<stop  offset="0.4084" style="stop-color:#2F5488"/>
						<stop  offset="0.6579" style="stop-color:#2B4B7B"/>
						<stop  offset="1" style="stop-color:#2B4B7B"/>
					</linearGradient>
					
						<path id="path4907" inkscape:connector-curvature="0" style="fill-rule:evenodd;clip-rule:evenodd;fill:url(#path4907_00000158714963716889430210000005380221234514514583_);" d="
						M254.2,1050.1c-22.1-22.5-36.7-51.2-38.4-85c-2.3-48.5,3.6-103.6,6.9-158.5c5.3-88.4,14-180-17.3-265.4
						c-8.2-22.3-14.2-47.4-25.6-74.3c-19.3-45.4-49.3-89.7-58.3-129.1l75.6,70.9l57.1,124.1l57.1-124.1l75.6-70.9
						c-9,39.3-39,83.7-58.3,129.1c-11.4,26.9-17.4,51.9-25.6,74.3c-31.3,85.4-22.6,177-17.3,265.4c3.3,54.9,9.2,110.1,6.9,158.5
						C290.9,998.9,276.3,1027.6,254.2,1050.1L254.2,1050.1z M264.6,1009.4c5.5,0.2,8.7-6.1,12-16.1c11.4-34.5,8.1-123.1-8.1-253.5
						c-29.3,73.6-26.4,198.9-14.6,245.8C256.4,995.9,259,1008.8,264.6,1009.4L264.6,1009.4z"/>
				</g>
				<g id="g5269">
					
						<linearGradient id="path4895_00000138561924690073754910000007643128435611598225_" gradientUnits="userSpaceOnUse" x1="310.9119" y1="1995.9741" x2="310.9119" y2="2330.6753" gradientTransform="matrix(0.5814 0 0 0.5814 -122.9261 -606.4597)">
						<stop  offset="0" style="stop-color:#F9E736"/>
						<stop  offset="0.2517" style="stop-color:#F8E435"/>
						<stop  offset="0.4967" style="stop-color:#F5DA33"/>
						<stop  offset="0.755" style="stop-color:#F2CE30"/>
						<stop  offset="0.8146" style="stop-color:#E5B92F"/>
						<stop  offset="0.9007" style="stop-color:#D39B2D"/>
						<stop  offset="1" style="stop-color:#C98C2B"/>
					</linearGradient>
					
						<path id="path4895" inkscape:connector-curvature="0" sodipodi:nodetypes="cccsccc" style="fill-rule:evenodd;clip-rule:evenodd;fill:url(#path4895_00000138561924690073754910000007643128435611598225_);" d="
						M71.3,845.9c32.1-39,45.8-169.6,57.2-276.9l-50-21.2c-2.5,48.8-10,124.5-20.8,185.3c-8.8,49.6-26.9,96.8-70.5,137.5l26.6,28.6
						L71.3,845.9z"/>
					
						<linearGradient id="path4893_00000007419736018197509480000009122776518014689198_" gradientUnits="userSpaceOnUse" x1="115.9029" y1="2177.5247" x2="316.5233" y2="2179.092" gradientTransform="matrix(0.5814 0 0 0.5814 -122.9261 -606.4597)">
						<stop  offset="0" style="stop-color:#4071B6"/>
						<stop  offset="0.1564" style="stop-color:#3C6AA9"/>
						<stop  offset="0.3908" style="stop-color:#38639F"/>
						<stop  offset="0.672" style="stop-color:#345C94"/>
						<stop  offset="0.8593" style="stop-color:#2B4B7B"/>
						<stop  offset="1" style="stop-color:#2C4E7F"/>
					</linearGradient>
					
						<path id="path4893" inkscape:connector-curvature="0" sodipodi:nodetypes="ccccscccscccc" style="fill-rule:evenodd;clip-rule:evenodd;fill:url(#path4893_00000007419736018197509480000009122776518014689198_);" d="
						M-56.3,972.9V566.5l4.4-26.5l31.9-73.6l60.6-78.1c17.4-22.4,65.3-34.6,87.1-40.5l19.8,49.5c-10.9,1-25.2,1.5-31,3.9
						c-42,24.1-77,48.4-100.9,95.9c-13,25.9-21.1,62.5-21,119.5v248.5c4.8,42.6,45.6,1.7,78-19.5C53.8,877.1,29.9,922.9-56.3,972.9
						L-56.3,972.9z"/>
					
						<linearGradient id="path4899_00000165914289792632184840000009309686446379988385_" gradientUnits="userSpaceOnUse" x1="113.8826" y1="1843.7546" x2="312.5438" y2="1845.7139" gradientTransform="matrix(0.5814 0 0 0.5814 -122.9261 -606.4597)">
						<stop  offset="0" style="stop-color:#C7872B"/>
						<stop  offset="0.2079" style="stop-color:#CD922C"/>
						<stop  offset="0.3998" style="stop-color:#F2CF30"/>
						<stop  offset="0.616" style="stop-color:#F3D131"/>
						<stop  offset="0.8161" style="stop-color:#F4D632"/>
						<stop  offset="0.8856" style="stop-color:#F1C930"/>
						<stop  offset="0.9507" style="stop-color:#D8A32E"/>
						<stop  offset="1" style="stop-color:#D29A2D"/>
					</linearGradient>
					
						<path id="path4899" inkscape:connector-curvature="0" sodipodi:nodetypes="cssccssc" style="fill-rule:evenodd;clip-rule:evenodd;fill:url(#path4899_00000165914289792632184840000009309686446379988385_);" d="
						M-56.3,566.5c9.7-49.8,42.7-98.5,81.3-126.4c20-14.5,41.5-27.2,64.7-33.7c18.4-5.2,36.3-10.2,52.9-15.4l-11.2-24.5
						c-25.1,0.2-49.9,1.4-70.7,11.1c-39.4,18.4-72.8,46.6-93.9,91.6C-45.6,495.6-54.5,513-56.3,566.5L-56.3,566.5z"/>
					
						<radialGradient id="path4903_00000169517336015258373310000012576720130656735887_" cx="-1045.22" cy="611.2914" r="69.6089" gradientTransform="matrix(2.618537e-02 2.1734 -1.1565 1.393297e-02 732.5134 2535.8677)" gradientUnits="userSpaceOnUse">
						<stop  offset="0" style="stop-color:#D7A12D"/>
						<stop  offset="0.1883" style="stop-color:#F9E736"/>
						<stop  offset="0.7076" style="stop-color:#F9E736"/>
						<stop  offset="1" style="stop-color:#F9E736"/>
					</radialGradient>
					
						<path id="path4903" inkscape:connector-curvature="0" sodipodi:nodetypes="csccccccc" style="fill-rule:evenodd;clip-rule:evenodd;fill:url(#path4903_00000169517336015258373310000012576720130656735887_);" d="
						M108.6,536.1C82,509.9,65.7,478,53.7,446.3c-24.3-64-27.1-129.3-31.1-159.1c31.6-6.4,62.8-6.5,94.1-8.5v-19.5H-22.6L5.6,428.3
						l73.3,90.1L108.6,536.1z"/>
					
						<linearGradient id="path4897_00000004513935472024134980000009842131957235397007_" gradientUnits="userSpaceOnUse" x1="253.6972" y1="1956.5967" x2="358.7094" y2="1953.462" gradientTransform="matrix(0.5814 0 0 0.5814 -122.9261 -606.4597)">
						<stop  offset="0" style="stop-color:#F5D532;stop-opacity:0.8627"/>
						<stop  offset="0.239" style="stop-color:#F3D231"/>
						<stop  offset="0.4031" style="stop-color:#F2CF30"/>
						<stop  offset="0.7165" style="stop-color:#E0B02F"/>
						<stop  offset="1" style="stop-color:#D39B2D"/>
					</linearGradient>
					
						<path id="path4897" inkscape:connector-curvature="0" sodipodi:nodetypes="ccscc" style="fill-rule:evenodd;clip-rule:evenodd;fill:url(#path4897_00000004513935472024134980000009842131957235397007_);" d="
						M128.4,569c-74.6-16.7-86.9-49-101.7-78.8l70.7,42.2c9.5,5.7,22,10.7,33.4,13L128.4,569z"/>
					
						<linearGradient id="path4901_00000165942348783556563170000017868273303862090382_" gradientUnits="userSpaceOnUse" x1="276.2438" y1="1980.8794" x2="276.2438" y2="1665.8427" gradientTransform="matrix(0.5814 0 0 0.5814 -122.9261 -606.4597)">
						<stop  offset="0" style="stop-color:#4274BB"/>
						<stop  offset="0.2985" style="stop-color:#3C6AAA"/>
						<stop  offset="0.7413" style="stop-color:#2F5488"/>
						<stop  offset="0.8955" style="stop-color:#2B4B7B"/>
						<stop  offset="1" style="stop-color:#2B4B7B"/>
					</linearGradient>
					
						<path id="path4901" inkscape:connector-curvature="0" sodipodi:nodetypes="csccccccc" style="fill-rule:evenodd;clip-rule:evenodd;fill:url(#path4901_00000165942348783556563170000017868273303862090382_);" d="
						M130.4,545.3c-50-14.2-84.6-34.9-108.6-59.8c-60.9-63.1-78.6-137.1-78-230.9c-0.2-12,11-30.3,22.4-30.1l165.4,0.3L113.4,276
						L7.6,276.2c-10.7-0.8-9.2,12.1-6.9,25.8C18,404.3,63.2,526.9,130.4,545.3z"/>
				</g>
				<g id="g5304" transform="matrix(-1,0,0,1,508.30467,0)">
					
						<linearGradient id="path5306_00000176764217094172455720000016887840340922300320_" gradientUnits="userSpaceOnUse" x1="-2199.7834" y1="1995.9741" x2="-2199.7834" y2="2330.6753" gradientTransform="matrix(0.5814 0 0 0.5814 1336.8889 -606.4597)">
						<stop  offset="0" style="stop-color:#F9E736"/>
						<stop  offset="0.2517" style="stop-color:#F8E435"/>
						<stop  offset="0.4967" style="stop-color:#F5DA33"/>
						<stop  offset="0.755" style="stop-color:#F2CE30"/>
						<stop  offset="0.8146" style="stop-color:#E5B92F"/>
						<stop  offset="0.9007" style="stop-color:#D39B2D"/>
						<stop  offset="1" style="stop-color:#C98C2B"/>
					</linearGradient>
					
						<path id="path5306" inkscape:connector-curvature="0" sodipodi:nodetypes="cccsccc" style="fill-rule:evenodd;clip-rule:evenodd;fill:url(#path5306_00000176764217094172455720000016887840340922300320_);" d="
						M71.3,845.9c32.1-39,45.8-169.6,57.2-276.9l-50-21.2c-2.5,48.8-10,124.5-20.8,185.3c-8.8,49.6-26.9,96.8-70.5,137.5l26.6,28.6
						L71.3,845.9z"/>
					
						<linearGradient id="path5308_00000085247326175165891100000006032655423546415752_" gradientUnits="userSpaceOnUse" x1="-2394.6055" y1="2179.9751" x2="-2193.9851" y2="2181.5425" gradientTransform="matrix(0.5814 0 0 0.5814 1336.8889 -606.4597)">
						<stop  offset="0" style="stop-color:#4071B6"/>
						<stop  offset="0.1564" style="stop-color:#3C6AA9"/>
						<stop  offset="0.3908" style="stop-color:#38639F"/>
						<stop  offset="0.672" style="stop-color:#345C94"/>
						<stop  offset="0.8593" style="stop-color:#2B4B7B"/>
						<stop  offset="1" style="stop-color:#2C4E7F"/>
					</linearGradient>
					
						<path id="path5308" inkscape:connector-curvature="0" sodipodi:nodetypes="ccccscccscccc" style="fill-rule:evenodd;clip-rule:evenodd;fill:url(#path5308_00000085247326175165891100000006032655423546415752_);" d="
						M-56.3,972.9V566.5l4.4-26.5l31.9-73.6l60.6-78.1c17.4-22.4,65.3-34.6,87.1-40.5l19.8,49.5c-10.9,1-25.2,1.5-31,3.9
						c-42,24.1-77,48.4-100.9,95.9c-13,25.9-21.1,62.5-21,119.5v248.5c4.8,42.6,45.6,1.7,78-19.5C53.8,877.1,29.9,922.9-56.3,972.9
						L-56.3,972.9z"/>
					
						<linearGradient id="path5310_00000078766649314234443650000013817136624263904943_" gradientUnits="userSpaceOnUse" x1="-2396.6143" y1="1846.949" x2="-2197.9531" y2="1848.9082" gradientTransform="matrix(0.5814 0 0 0.5814 1336.8889 -606.4597)">
						<stop  offset="0" style="stop-color:#C7872B"/>
						<stop  offset="0.2079" style="stop-color:#CD922C"/>
						<stop  offset="0.3998" style="stop-color:#F2CF30"/>
						<stop  offset="0.616" style="stop-color:#F3D131"/>
						<stop  offset="0.8161" style="stop-color:#F4D632"/>
						<stop  offset="0.8856" style="stop-color:#F1C930"/>
						<stop  offset="0.9507" style="stop-color:#D8A32E"/>
						<stop  offset="1" style="stop-color:#D29A2D"/>
					</linearGradient>
					
						<path id="path5310" inkscape:connector-curvature="0" sodipodi:nodetypes="cssccssc" style="fill-rule:evenodd;clip-rule:evenodd;fill:url(#path5310_00000078766649314234443650000013817136624263904943_);" d="
						M-56.3,566.5c9.7-49.8,42.7-98.5,81.3-126.4c20-14.5,41.5-27.2,64.7-33.7c18.4-5.2,36.3-10.2,52.9-15.4l-11.2-24.5
						c-25.1,0.2-49.9,1.4-70.7,11.1c-39.4,18.4-72.8,46.6-93.9,91.6C-45.6,495.6-54.5,513-56.3,566.5L-56.3,566.5z"/>
					
						<radialGradient id="path5312_00000032621240673657598670000003699056551617415045_" cx="-921.0155" cy="1939.9915" r="69.6089" gradientTransform="matrix(2.618537e-02 2.1734 -1.1565 1.393297e-02 2266.0015 2247.4001)" gradientUnits="userSpaceOnUse">
						<stop  offset="0" style="stop-color:#D7A12D"/>
						<stop  offset="0.1883" style="stop-color:#F9E736"/>
						<stop  offset="0.7076" style="stop-color:#F9E736"/>
						<stop  offset="1" style="stop-color:#F9E736"/>
					</radialGradient>
					
						<path id="path5312" inkscape:connector-curvature="0" sodipodi:nodetypes="csccccccc" style="fill-rule:evenodd;clip-rule:evenodd;fill:url(#path5312_00000032621240673657598670000003699056551617415045_);" d="
						M108.6,536.1C82,509.9,65.7,478,53.7,446.3c-24.3-64-27.1-129.3-31.1-159.1c31.6-6.4,62.8-6.5,94.1-8.5v-19.5H-22.6L5.6,428.3
						l73.3,90.1L108.6,536.1z"/>
					
						<linearGradient id="path5314_00000088120886831218642530000016508719962231307928_" gradientUnits="userSpaceOnUse" x1="-2256.6743" y1="1951.1678" x2="-2151.6621" y2="1948.0332" gradientTransform="matrix(0.5814 0 0 0.5814 1336.8889 -606.4597)">
						<stop  offset="0" style="stop-color:#F5D532;stop-opacity:0.8627"/>
						<stop  offset="0.239" style="stop-color:#F3D231"/>
						<stop  offset="0.4031" style="stop-color:#F2CF30"/>
						<stop  offset="0.7165" style="stop-color:#E0B02F"/>
						<stop  offset="1" style="stop-color:#D39B2D"/>
					</linearGradient>
					
						<path id="path5314" inkscape:connector-curvature="0" sodipodi:nodetypes="ccscc" style="fill-rule:evenodd;clip-rule:evenodd;fill:url(#path5314_00000088120886831218642530000016508719962231307928_);" d="
						M128.4,569c-74.6-16.7-86.9-49-101.7-78.8l70.7,42.2c9.5,5.7,22,10.7,33.4,13L128.4,569z"/>
					
						<linearGradient id="path5316_00000159455749557385483080000008336294226058412718_" gradientUnits="userSpaceOnUse" x1="-2234.4514" y1="1980.8794" x2="-2234.4514" y2="1665.8427" gradientTransform="matrix(0.5814 0 0 0.5814 1336.8889 -606.4597)">
						<stop  offset="0" style="stop-color:#4274BB"/>
						<stop  offset="0.2985" style="stop-color:#3C6AAA"/>
						<stop  offset="0.7413" style="stop-color:#2F5488"/>
						<stop  offset="0.8955" style="stop-color:#2B4B7B"/>
						<stop  offset="1" style="stop-color:#2B4B7B"/>
					</linearGradient>
					
						<path id="path5316" inkscape:connector-curvature="0" sodipodi:nodetypes="csccccccc" style="fill-rule:evenodd;clip-rule:evenodd;fill:url(#path5316_00000159455749557385483080000008336294226058412718_);" d="
						M130.4,545.3c-50-14.2-84.6-34.9-108.6-59.8c-60.9-63.1-78.6-137.1-78-230.9c-0.2-12,11-30.3,22.4-30.1l165.4,0.3L113.4,276
						L7.6,276.2c-10.7-0.8-9.2,12.1-6.9,25.8C18,404.3,63.2,526.9,130.4,545.3z"/>
				</g>
				<g id="g5569">
					<path id="ellipse4934" class="st15" d="M399.6,282.1c0-80.4-65.1-145.5-145.4-145.5l0,0c-80.3,0-145.4,65.1-145.4,145.5l0,0
						c0,80.4,65.1,145.5,145.4,145.5l0,0C334.5,427.6,399.6,362.5,399.6,282.1L399.6,282.1z"/>
					
						<linearGradient id="path5457_00000088091370060365024830000001288736916958594741_" gradientUnits="userSpaceOnUse" x1="518.7728" y1="1326.9797" x2="520.9894" y2="1560.827" gradientTransform="matrix(0.5814 0 0 0.5814 -122.9261 -606.4597)">
						<stop  offset="0" style="stop-color:#2B4B7B"/>
						<stop  offset="0.1565" style="stop-color:#2E5285"/>
						<stop  offset="0.3839" style="stop-color:#37629D"/>
						<stop  offset="0.5117" style="stop-color:#3F6FB3"/>
						<stop  offset="0.6256" style="stop-color:#3B68A6"/>
						<stop  offset="0.8152" style="stop-color:#345B93"/>
						<stop  offset="1" style="stop-color:#2B4B7B"/>
					</linearGradient>
					
						<path id="path5457" inkscape:connector-curvature="0" style="fill-rule:evenodd;clip-rule:evenodd;fill:url(#path5457_00000088091370060365024830000001288736916958594741_);" d="
						M225,402c-59.2-14-81-56.5-93-89.3c-15.4-41.7-6.9-86.6,4.9-116.3c8.2-11.2,17.9-21.2,28.9-29.6l25.1,18.9
						c-19.6,16.8-34.4,33-30.2,46.6l76,144.2L225,402z"/>
					
						<linearGradient id="path5453_00000026147025632278245450000013960665401778657690_" gradientUnits="userSpaceOnUse" x1="1354.0933" y1="1053.8911" x2="1352.1342" y2="759.0341" gradientTransform="matrix(0.4652 0 0 -0.4652 -308.7585 658.7102)">
						<stop  offset="0" style="stop-color:#2B4B7B"/>
						<stop  offset="0.2093" style="stop-color:#38639F"/>
						<stop  offset="0.4119" style="stop-color:#3C69A8"/>
						<stop  offset="0.4932" style="stop-color:#3E6DB0"/>
						<stop  offset="0.5714" style="stop-color:#38639F"/>
						<stop  offset="0.8107" style="stop-color:#2E5183"/>
						<stop  offset="1" style="stop-color:#2B4B7B"/>
					</linearGradient>
					
						<path id="path5453" inkscape:connector-curvature="0" style="fill-rule:evenodd;clip-rule:evenodd;fill:url(#path5453_00000026147025632278245450000013960665401778657690_);" d="
						M333.3,404c27.8-63.9,32.1-109.5,23.4-129.1L252.8,166c105.6,8.9,144.6,65.3,134,175.3C375.3,367,356.8,388.7,333.3,404z"/>
					
						<linearGradient id="ellipse4932_00000085232832517461729050000017270997511882603656_" gradientUnits="userSpaceOnUse" x1="645.851" y1="-807.3882" x2="648.9857" y2="-598.9311" gradientTransform="matrix(0.5814 0 0 -0.5814 -122.9261 -80.715)">
						<stop  offset="0" style="stop-color:#F9E736"/>
						<stop  offset="0.1954" style="stop-color:#F9E736"/>
						<stop  offset="0.4735" style="stop-color:#F5D933"/>
						<stop  offset="0.7744" style="stop-color:#E2B22F"/>
						<stop  offset="1" style="stop-color:#C7872B"/>
					</linearGradient>
					<path id="ellipse4932" style="fill:url(#ellipse4932_00000085232832517461729050000017270997511882603656_);" d="M359.7,282.1
						c0-58.3-47.3-105.6-105.5-105.6s-105.5,47.3-105.5,105.6S196,387.7,254.2,387.7l0,0C312.4,387.7,359.7,340.4,359.7,282.1
						L359.7,282.1z"/>
					<path id="path4928" class="st19" d="M347,282.1c0-51.3-41.5-92.9-92.8-92.9s-92.8,41.6-92.8,92.9s41.5,92.9,92.8,92.9l0,0
						C305.4,375,347,333.4,347,282.1L347,282.1z"/>
					<g id="g5411">
						
							<linearGradient id="path4911_00000114785402067338718560000006517005953946843578_" gradientUnits="userSpaceOnUse" x1="510.4489" y1="1558.9994" x2="670.3184" y2="1556.6483" gradientTransform="matrix(0.5814 0 0 0.5814 -122.9261 -606.4597)">
							<stop  offset="0" style="stop-color:#4172B8"/>
							<stop  offset="0.2695" style="stop-color:#3A67A4"/>
							<stop  offset="0.5049" style="stop-color:#345B93"/>
							<stop  offset="0.755" style="stop-color:#2C4E7F"/>
							<stop  offset="1" style="stop-color:#2B4B7B"/>
						</linearGradient>
						
							<path id="path4911" inkscape:connector-curvature="0" sodipodi:nodetypes="cccccc" style="fill-rule:evenodd;clip-rule:evenodd;fill:url(#path4911_00000114785402067338718560000006517005953946843578_);" d="
							M184.6,324.2l18.6,1.9l1.8-29.8l-19.3-23l-12.2,11.9C173,298.7,176.3,311.5,184.6,324.2L184.6,324.2z"/>
						
							<linearGradient id="path4913_00000169531899868364843420000000993046100280301234_" gradientUnits="userSpaceOnUse" x1="508.6136" y1="1434.1965" x2="668.483" y2="1431.8455" gradientTransform="matrix(0.5814 0 0 0.5814 -122.9261 -606.4597)">
							<stop  offset="0" style="stop-color:#4172B8"/>
							<stop  offset="0.2695" style="stop-color:#3A67A4"/>
							<stop  offset="0.5049" style="stop-color:#345B93"/>
							<stop  offset="0.755" style="stop-color:#2C4E7F"/>
							<stop  offset="1" style="stop-color:#2B4B7B"/>
						</linearGradient>
						
							<path id="path4913" inkscape:connector-curvature="0" sodipodi:nodetypes="cccccc" style="fill-rule:evenodd;clip-rule:evenodd;fill:url(#path4913_00000169531899868364843420000000993046100280301234_);" d="
							M194.2,246.9l28.5-6.6l16.8-25.1l-15-8.3c-13.2,5.9-24.2,13.9-33,24.2L194.2,246.9z"/>
						
							<linearGradient id="path4915_00000049217945209939223050000016947370363752655034_" gradientUnits="userSpaceOnUse" x1="510.0694" y1="1533.1866" x2="669.9387" y2="1530.8356" gradientTransform="matrix(0.5814 0 0 0.5814 -122.9261 -606.4597)">
							<stop  offset="0" style="stop-color:#4172B8"/>
							<stop  offset="0.2695" style="stop-color:#3A67A4"/>
							<stop  offset="0.5049" style="stop-color:#345B93"/>
							<stop  offset="0.755" style="stop-color:#2C4E7F"/>
							<stop  offset="1" style="stop-color:#2B4B7B"/>
						</linearGradient>
						
							<path id="path4915" inkscape:connector-curvature="0" sodipodi:nodetypes="cccccc" style="fill-rule:evenodd;clip-rule:evenodd;fill:url(#path4915_00000049217945209939223050000016947370363752655034_);" d="
							M254.2,312.7L223,289.8l12.1-34.6h38.2l12.1,34.6L254.2,312.7z"/>
						
							<linearGradient id="path4917_00000019675460433709146310000013045161170354142635_" gradientUnits="userSpaceOnUse" x1="511.6649" y1="1641.6792" x2="671.5342" y2="1639.3281" gradientTransform="matrix(0.5814 0 0 0.5814 -122.9261 -606.4597)">
							<stop  offset="0" style="stop-color:#4172B8"/>
							<stop  offset="0.2695" style="stop-color:#3A67A4"/>
							<stop  offset="0.5049" style="stop-color:#345B93"/>
							<stop  offset="0.755" style="stop-color:#2C4E7F"/>
							<stop  offset="1" style="stop-color:#2B4B7B"/>
						</linearGradient>
						
							<path id="path4917" inkscape:connector-curvature="0" style="fill-rule:evenodd;clip-rule:evenodd;fill:url(#path4917_00000019675460433709146310000013045161170354142635_);" d="
							M254.2,362.8c-6.9,0-14.7-0.8-20.7-2.2l-8.4-18.9l29.1-10.7l29.1,10.7l-8.4,18.9C268.8,362,261.1,362.8,254.2,362.8z"/>
						
							<linearGradient id="path5021_00000042732213370192983300000005987373559943430307_" gradientUnits="userSpaceOnUse" x1="510.4934" y1="1562.0187" x2="670.3628" y2="1559.6676" gradientTransform="matrix(0.5814 0 0 0.5814 -122.9261 -606.4597)">
							<stop  offset="0" style="stop-color:#4172B8"/>
							<stop  offset="0.2695" style="stop-color:#3A67A4"/>
							<stop  offset="0.5049" style="stop-color:#345B93"/>
							<stop  offset="0.755" style="stop-color:#2C4E7F"/>
							<stop  offset="1" style="stop-color:#2B4B7B"/>
						</linearGradient>
						
							<path id="path5021" inkscape:connector-curvature="0" sodipodi:nodetypes="cccccc" style="fill-rule:evenodd;clip-rule:evenodd;fill:url(#path5021_00000042732213370192983300000005987373559943430307_);" d="
							M323.7,324.2l-18.6,1.9l-1.8-29.8l19.3-23l12.2,11.9C335.3,298.7,332,311.5,323.7,324.2L323.7,324.2z"/>
						
							<linearGradient id="path5023_00000150080824332227180170000006847325477166892954_" gradientUnits="userSpaceOnUse" x1="508.6469" y1="1436.4623" x2="668.5162" y2="1434.1112" gradientTransform="matrix(0.5814 0 0 0.5814 -122.9261 -606.4597)">
							<stop  offset="0" style="stop-color:#4172B8"/>
							<stop  offset="0.2695" style="stop-color:#3A67A4"/>
							<stop  offset="0.5049" style="stop-color:#345B93"/>
							<stop  offset="0.755" style="stop-color:#2C4E7F"/>
							<stop  offset="1" style="stop-color:#2B4B7B"/>
						</linearGradient>
						
							<path id="path5023" inkscape:connector-curvature="0" sodipodi:nodetypes="cccccc" style="fill-rule:evenodd;clip-rule:evenodd;fill:url(#path5023_00000150080824332227180170000006847325477166892954_);" d="
							M314.1,246.9l-28.5-6.6l-16.8-25.1l15-8.3c13.2,5.9,24.2,13.9,33,24.2L314.1,246.9z"/>
					</g>
				</g>
			</g>
			<g id="flowRoot5685" transform="matrix(0.72213501,0,0,-0.72213501,-29.987224,661.84288)">
				<path id="path4289" class="st26" d="M58,915.2c-17.9,0-31.3-4.4-40.3-13.3C8.8,893,4.3,880.4,4.3,864v-74.7h29.2V864
					c0,8.8,2,15.4,6,19.8c4.1,4.4,10.2,6.7,18.4,6.7s14.2-2.2,18.2-6.7c4.1-4.4,6.2-11,6.2-19.8v-74.7h29.2V864
					c0,16.4-4.4,29-13.3,37.9S76,915.2,58,915.2z"/>
				<path id="path4291" class="st26" d="M172.3,868.5l-5.4,6.2v37.7h-29.2V789.2h29.2v43.5l38-43.5h36.2L190.9,847l51,65.3h-36.6
					C205.4,912.4,172.3,868.5,172.3,868.5z"/>
				<path id="path4293" class="st26" d="M301.2,867.9h-13.6v44.5h-29.2V789.2h49.9c31.3,0,47,13.2,47,39.5
					c0,18.7-8.2,30.8-24.5,36.1l29.4,47.6h-32.5L301.2,867.9z M287.5,843.2h20.6c11.6,0,17.4-4.8,17.4-14.5c0-5.1-1.4-8.8-4.2-11.2
					c-2.8-2.4-7.2-3.6-13.2-3.6h-20.6L287.5,843.2L287.5,843.2z"/>
				<path id="path4295" class="st26" d="M455.9,887.4h-47.6l-8.6,25h-29.2l43.1-124.6h37l43.2,124.6h-29.2L455.9,887.4L455.9,887.4z
					 M447.4,862.4L432,817.5l-15.3,44.8h30.7V862.4z"/>
				<path id="path4297" class="st26" d="M511.5,789.2h29.2v123.2h-29.2V789.2z"/>
				<path id="path4299" class="st26" d="M674.2,789.2v123.2h-33.6l-44.2-75.7v75.7h-29.2V789.2h33.6l44.2,75.7v-75.7H674.2z"/>
				<path id="path4301" class="st26" d="M782.6,889v23.4h-82.2V789.2h81.4v23.4h-52.2v26.2h44v23.4h-44V889H782.6L782.6,889z"/>
			</g>
		</g>
	</g>
</g>
</svg>
