<?xml version="1.0" encoding="utf-8"?>
<!-- Generator: Adobe Illustrator 26.0.2, SVG Export Plug-In . SVG Version: 6.00 Build 0)  -->
<svg version="1.1"
	 id="svg2" xmlns:cc="http://creativecommons.org/ns#" xmlns:dc="http://purl.org/dc/elements/1.1/" xmlns:inkscape="http://www.inkscape.org/namespaces/inkscape" xmlns:rdf="http://www.w3.org/1999/02/22-rdf-syntax-ns#" xmlns:sodipodi="http://sodipodi.sourceforge.net/DTD/sodipodi-0.dtd" xmlns:svg="http://www.w3.org/2000/svg"
	 xmlns="http://www.w3.org/2000/svg" xmlns:xlink="http://www.w3.org/1999/xlink" x="0px" y="0px" width="682.5px" height="792.7px"
	 viewBox="0 0 682.5 792.7" style="enable-background:new 0 0 682.5 792.7;" xml:space="preserve">
<style type="text/css">
	.st0{clip-path:url(#SVGID_00000134949932850829579410000001004536322768753048_);}
	.st1{fill:none;stroke:#231F20;stroke-width:33.8789;stroke-miterlimit:79.1101;}
	.st2{fill:#D91920;}
	.st3{fill:#ED1C24;}
	.st4{fill:none;stroke:#FFFFFF;stroke-width:18.8282;stroke-miterlimit:79.1101;}
	.st5{fill:#FFFFFF;}
	.st6{fill:none;stroke:#231F20;stroke-width:15.0705;stroke-miterlimit:79.1101;}
	.st7{clip-path:url(#SVGID_00000119119784487750815770000017579287085008390280_);}
	.st8{fill:none;stroke:#FFFFFF;stroke-width:6.2695;stroke-miterlimit:79.1101;}
	.st9{fill:#050301;}
</style>
<sodipodi:namedview  bordercolor="#666666" borderopacity="1.0" fit-margin-bottom="5" fit-margin-left="5" fit-margin-right="5" fit-margin-top="5" id="base" inkscape:current-layer="g11519" inkscape:cx="447.81982" inkscape:cy="659.14158" inkscape:document-units="px" inkscape:pageopacity="0.0" inkscape:pageshadow="2" inkscape:window-height="746" inkscape:window-maximized="1" inkscape:window-width="1304" inkscape:window-x="54" inkscape:window-y="-8" inkscape:zoom="0.40330656" pagecolor="#ffffff" showgrid="false">
	</sodipodi:namedview>
<g id="layer1" transform="translate(-311.79709,-467.54659)" inkscape:groupmode="layer" inkscape:label="Calque 1">
	<g id="g2993" transform="matrix(1.25,0,0,-1.25,2.953125,1077.1482)" inkscape:label="caen">
		<g id="g7651" transform="translate(-239.85976,-130.96929)" inkscape:label="lorient">
			<g id="g11519" transform="translate(161.28495,-166.31875)" inkscape:label="evian valencienne">
				<g id="g15506" transform="matrix(15.822012,0,0,15.822012,-12146.977,-7548.93)">
					<g id="g12271" transform="translate(754.54134,129.69211)">
						<g>
							<defs>
								<polygon id="SVGID_1_" points="34,357.2 68,357.2 68,396.8 34,396.8 34,357.2 								"/>
							</defs>
							<clipPath id="SVGID_00000176761212245562093620000012642469388845769131_">
								<use xlink:href="#SVGID_1_"  style="overflow:visible;"/>
							</clipPath>
							<g id="g12273" style="clip-path:url(#SVGID_00000176761212245562093620000012642469388845769131_);">
								<g id="g12279" transform="translate(36.4331,392.9259)">
									<path id="path12281" inkscape:connector-curvature="0" class="st1" d="M0,0c10.5,3.8,18.3,4.2,29.2,0l0,0
										c3.4-10.6,2.2-26.9-14.6-34.8h0C-2.2-26.9-3.5-10.6,0,0L0,0z"/>
								</g>
								<g id="g12283" transform="translate(65.4386,393.0336)">
									<path id="path12285" inkscape:connector-curvature="0" class="st2" d="M-14.6,3C-19.2,3-23.8,1.9-29,0v0
										c-3.4-10.5-2.2-26.8,14.4-34.7v-0.1c0,0,0,0,0,0h0c0,0,0.1,0,0.1,0c0,0,0,0,0.1,0v0C2.2-26.8,3.4-10.5,0,0h0
										c-5.3,2.1-9.9,3-14.4,3C-14.5,3-14.6,3-14.6,3L-14.6,3z"/>
								</g>
								<g id="g12287" transform="translate(36.4309,393.0531)">
								</g>
								<path id="path12289" inkscape:connector-curvature="0" class="st3" d="M36.4,393.1L36.4,393.1c-3.5-10.6-2.2-26.9,14.6-34.9
									v37.9C46.3,396,41.7,395,36.4,393.1"/>
								<g id="g12291" transform="translate(36.4331,392.9259)">
									<path id="path12293" inkscape:connector-curvature="0" class="st4" d="M0,0c10.5,3.8,18.3,4.2,29.2,0l0,0
										c3.4-10.6,2.2-26.9-14.6-34.8h0C-2.2-26.9-3.5-10.6,0,0L0,0z"/>
								</g>
							</g>
						</g>
					</g>
					<g id="g12295" transform="translate(795.54454,504.22613)">
						<path id="path12297" inkscape:connector-curvature="0" class="st5" d="M0,0h-2.3l-0.9,6.9h1.9l0.5-5.3h0l2.7,5.3h2L0,0z"/>
					</g>
					<g id="g12299" transform="translate(795.54454,504.22613)">
						<path id="path12301" inkscape:connector-curvature="0" class="st6" d="M0,0h-2.3l-0.9,6.9h1.9l0.5-5.3h0l2.7,5.3h2L0,0z"/>
					</g>
					<g id="g12303" transform="translate(802.11804,509.74123)">
						<path id="path12305" inkscape:connector-curvature="0" class="st5" d="M0,0L0,0l-1.5-2.7h1.8L0,0z M-0.9,1.4h2.3l1.1-6.9H0.7
							L0.5-4h-2.7L-3-5.5h-2L-0.9,1.4L-0.9,1.4z"/>
					</g>
					<g id="g12307" transform="translate(802.11804,509.74123)">
						<path id="path12309" inkscape:connector-curvature="0" class="st6" d="M0,0L0,0l-1.5-2.7h1.8L0,0z M-0.9,1.4h2.3l1.1-6.9H0.7
							L0.5-4h-2.7L-3-5.5h-2L-0.9,1.4L-0.9,1.4z"/>
					</g>
					<g id="g12311" transform="translate(807.74694,511.17463)">
						<path id="path12313" inkscape:connector-curvature="0" class="st5" d="M0,0h4.6L4.4-1.3H1.6L1.2-2.8h2.7L3.7-4.2H1L0.4-6.9
							h-1.9L0,0z"/>
					</g>
					<g id="g12315" transform="translate(807.74694,511.17463)">
						<path id="path12317" inkscape:connector-curvature="0" class="st6" d="M0,0h4.6L4.4-1.3H1.6L1.2-2.8h2.7L3.7-4.2H1L0.4-6.9
							h-1.9L0,0z"/>
					</g>
					<g id="g12319" transform="translate(754.54134,129.69211)">
						<g>
							<defs>
								<polygon id="SVGID_00000175310904848175831490000017209635302928154774_" points="34,354.3 68,354.3 68,399.7 34,399.7 
									34,354.3 								"/>
							</defs>
							<clipPath id="SVGID_00000013878165628297809250000017545006552689442192_">
								<use xlink:href="#SVGID_00000175310904848175831490000017209635302928154774_"  style="overflow:visible;"/>
							</clipPath>
							<g id="g12321" style="clip-path:url(#SVGID_00000013878165628297809250000017545006552689442192_);">
								<g id="g12327" transform="translate(64.2365,379.8102)">
									<path id="path12329" inkscape:connector-curvature="0" class="st5" d="M0,0c-0.6,0.3-1.1,0.4-1.7,0.4
										c-1.9,0-2.6-1.3-2.6-2.6C-4.3-3.4-3.6-4-2.4-4c0.7,0,1.3,0.1,1.8,0.4l-0.2-1.5c-0.4-0.1-1.2-0.3-1.9-0.3
										c-2.2,0-3.5,1.3-3.5,3.2c0,2.3,1.6,4,4.2,4c1.3,0,2.1-0.2,2.5-0.4L0,0z"/>
								</g>
								<g id="g12331" transform="translate(64.2365,379.8102)">
									<path id="path12333" inkscape:connector-curvature="0" class="st6" d="M0,0c-0.6,0.3-1.1,0.4-1.7,0.4
										c-1.9,0-2.6-1.3-2.6-2.6C-4.3-3.4-3.6-4-2.4-4c0.7,0,1.3,0.1,1.8,0.4l-0.2-1.5c-0.4-0.1-1.2-0.3-1.9-0.3
										c-2.2,0-3.5,1.3-3.5,3.2c0,2.3,1.6,4,4.2,4c1.3,0,2.1-0.2,2.5-0.4L0,0z"/>
								</g>
								<g id="g12335" transform="translate(41.0032,374.534)">
									<path id="path12337" inkscape:connector-curvature="0" class="st5" d="M0,0h-2.3l-0.9,6.9h1.9l0.5-5.3h0l2.7,5.3h2L0,0z"/>
								</g>
								<g id="g12339" transform="translate(41.0032,374.534)">
									<path id="path12341" inkscape:connector-curvature="0" class="st8" d="M0,0h-2.3l-0.9,6.9h1.9l0.5-5.3h0l2.7,5.3h2L0,0z"/>
								</g>
								<g id="g12343" transform="translate(47.5767,380.0491)">
									<path id="path12345" inkscape:connector-curvature="0" class="st5" d="M0,0L0,0l-1.5-2.7h1.8L0,0z M-0.9,1.4h2.3l1.1-6.9
										H0.7L0.5-4h-2.7L-3-5.5h-2L-0.9,1.4L-0.9,1.4z"/>
								</g>
								<g id="g12347" transform="translate(47.5767,380.0491)">
									<path id="path12349" inkscape:connector-curvature="0" class="st8" d="M0,0L0,0l-1.5-2.7h1.8L0,0z M-0.9,1.4h2.3l1.1-6.9
										H0.7L0.5-4h-2.7L-3-5.5h-2L-0.9,1.4L-0.9,1.4z"/>
								</g>
								<g id="g12351" transform="translate(53.2056,381.4825)">
									<path id="path12353" inkscape:connector-curvature="0" class="st5" d="M0,0h4.6L4.4-1.3H1.6L1.2-2.8h2.7L3.7-4.2H1L0.4-6.9
										h-1.9L0,0z"/>
								</g>
								<g id="g12355" transform="translate(53.2056,381.4825)">
									<path id="path12357" inkscape:connector-curvature="0" class="st8" d="M0,0h4.6L4.4-1.3H1.6L1.2-2.8h2.7L3.7-4.2H1L0.4-6.9
										h-1.9L0,0z"/>
								</g>
								<g id="g12359" transform="translate(64.2365,379.8102)">
									<path id="path12361" inkscape:connector-curvature="0" class="st5" d="M0,0c-0.6,0.3-1.1,0.4-1.7,0.4
										c-1.9,0-2.6-1.3-2.6-2.6C-4.3-3.4-3.6-4-2.4-4c0.7,0,1.3,0.1,1.8,0.4l-0.2-1.5c-0.4-0.1-1.2-0.3-1.9-0.3
										c-2.2,0-3.5,1.3-3.5,3.2c0,2.3,1.6,4,4.2,4c1.3,0,2.1-0.2,2.5-0.4L0,0z"/>
								</g>
								<g id="g12363" transform="translate(64.2365,379.8102)">
									<path id="path12365" inkscape:connector-curvature="0" class="st8" d="M0,0c-0.6,0.3-1.1,0.4-1.7,0.4
										c-1.9,0-2.6-1.3-2.6-2.6C-4.3-3.4-3.6-4-2.4-4c0.7,0,1.3,0.1,1.8,0.4l-0.2-1.5c-0.4-0.1-1.2-0.3-1.9-0.3
										c-2.2,0-3.5,1.3-3.5,3.2c0,2.3,1.6,4,4.2,4c1.3,0,2.1-0.2,2.5-0.4L0,0z"/>
								</g>
								<g id="g12367" transform="translate(51.011,360.8813)">
									<path id="path12369" inkscape:connector-curvature="0" class="st5" d="M0,0c2.9,0.9,8.9,5.5,9.3,5.9C6.9,2.8,0-1.3,0-1.3
										L0,0z"/>
								</g>
								<g id="g12371" transform="translate(42.3591,393.8055)">
									<path id="path12373" inkscape:connector-curvature="0" class="st5" d="M0,0c-1.6-0.4-5.3-1.5-5.3-1.8
										c-0.2-0.4-1.3-6.3-1.2-7.2c1.3,5.4,3.2,6.5,4.3,7.3C-1.1-0.8,0,0,0,0"/>
								</g>
								<g id="g12375" transform="translate(57.2001,390.2648)">
									<path id="path12377" inkscape:connector-curvature="0" class="st5" d="M0,0c2.3,0.3,0.1,0.4,0.1,0.4C0.8,0.5,1.9,0.9,3.2,1
										C4.5,1,5.3,0.4,5.6,0.1c0.3-0.3,0.3-0.6,0.3-0.6S6-0.6,6.2-0.7c0.2-0.1,0.4-0.4,0.7-0.5c0.3-0.1,0.9-0.4,1-0.6
										c0,0,0.1-0.3,0-0.4C7.8-2.3,7.5-2.1,6.9-2C6.3-1.9,5.4-1.9,4.8-1.9c-0.6,0-2.2-0.3-3,0.3"/>
								</g>
								<g id="g12379" transform="translate(62.3532,390.7372)">
									<path id="path12381" inkscape:connector-curvature="0" class="st9" d="M0,0c0,0-0.4,0.1-0.5,0C-0.7,0-1-0.1-1-0.1
										s-0.1,0-0.1,0.1c-0.1,0-0.3,0-0.4-0.1s-0.2-0.1-0.2-0.1l0.2-0.1c0,0,0-0.1,0.1-0.2c0.1-0.1,0.3-0.1,0.3-0.1
										c0.1,0,0.4-0.3,0.5-0.5c0.1-0.2,0.2-0.8,0.2-0.8c0-0.1,0.2-0.5,0.2-0.5l0.8,0l0.6,0l0.4,0L2-2.6l0.4-0.1l0.3-0.1l0.1,0
										l0,0.2L2.7-2.3L2.4-2.1L2.2-1.9L1.7-1.7L1.5-1.6L1.2-1.3L0.9-1.1L0.7-0.9c0,0,0,0.2,0,0.2c0,0.1-0.3,0.4-0.3,0.4L0.2-0.1
										L0,0"/>
								</g>
								<g id="g12383" transform="translate(63.0067,389.859)">
									<path id="path12385" inkscape:connector-curvature="0" class="st5" d="M0,0c0,0-0.3,0.1-0.4,0.2s-0.2,0.2-0.2,0.1
										s-0.1-0.7-0.2-0.8c-0.1-0.1-0.1-0.2-0.2-0.2c0.2-0.2,1.4-0.6,1.7-0.7c0.3,0,0.6-0.1,0.8-0.1C1.8-1.6,2-1.7,2-1.7
										c0,0,0.1-0.1,0.1-0.1s0.1,0.3,0,0.4C2-1.4,1.7-1.1,1.4-1S0.8-0.7,0.7-0.5C0.6-0.4,0.3-0.2,0.3-0.2L0.2-0.1L0,0L0,0z"/>
								</g>
								<g id="g12387" transform="translate(62.7967,389.723)">
									<path id="path12389" inkscape:connector-curvature="0" class="st9" d="M0,0l0.6-0.5l0-0.1l-0.1,0L0,0z"/>
								</g>
								<g id="g12391" transform="translate(61.445,390.7101)">
									<path id="path12393" inkscape:connector-curvature="0" class="st9" d="M0,0l-0.1-0.1c0,0-0.1,0.1-0.3,0.2
										C-0.5,0.1-1-0.1-1-0.1l0.4,0.3l0.3-0.1l0.4,0L0,0z"/>
								</g>
								<g id="g12395" transform="translate(58.9013,388.897)">
									<path id="path12397" inkscape:connector-curvature="0" class="st5" d="M0,0c0,0-0.2,0.2-0.6,0.3
										c-5.2,1.4-12.8-3.1-15.6-6.6l2.8,0C-9.4,0.5-2.2,0.4-0.5,0.2"/>
								</g>
								<g id="g12399" transform="translate(48.9502,386.9995)">
									<path id="path12401" inkscape:connector-curvature="0" class="st5" d="M0,0c0.8,0.5,1.4,0.9,2.8,1.3c1.5,0.4,4.7,1,5.1,1
										c0.2,0,0.7-0.1,1.1-0.2C9.4,2.1,9.6,2,9.8,2c0.3-0.1,0.3,0,0.3,0L9.2,3.4C7.1,3.5-2.8,1.7-6.2-4.4c0,0,2.2,1.2,3.7,2.2"/>
								</g>
							</g>
						</g>
					</g>
				</g>
			</g>
		</g>
	</g>
</g>
</svg>
