<?xml version="1.0" encoding="utf-8"?>
<!-- Generator: Adobe Illustrator 26.0.2, SVG Export Plug-In . SVG Version: 6.00 Build 0)  -->
<svg version="1.1"
	 id="svg1012" xmlns:cc="http://creativecommons.org/ns#" xmlns:dc="http://purl.org/dc/elements/1.1/" xmlns:inkscape="http://www.inkscape.org/namespaces/inkscape" xmlns:rdf="http://www.w3.org/1999/02/22-rdf-syntax-ns#" xmlns:sodipodi="http://sodipodi.sourceforge.net/DTD/sodipodi-0.dtd" xmlns:svg="http://www.w3.org/2000/svg"
	 xmlns="http://www.w3.org/2000/svg" xmlns:xlink="http://www.w3.org/1999/xlink" x="0px" y="0px" width="565.1px" height="700px"
	 viewBox="0 0 565.1 700" style="enable-background:new 0 0 565.1 700;" xml:space="preserve">
<style type="text/css">
	.st0{fill:#8F7B12;}
	.st1{fill:#CC9900;}
	.st2{fill:#FFFFFF;}
	.st3{fill:#0066CC;}
	.st4{fill:#C5A119;}
	.st5{fill-rule:evenodd;clip-rule:evenodd;fill:#FFFFFF;}
	.st6{fill:#006699;}
	.st7{fill:url(#path924_00000065061626089852228490000014602171290486684313_);}
	.st8{fill:url(#path922_00000059988823339734539880000018416338651813749672_);}
	.st9{fill:url(#path920_00000110465730007852548800000017649572062916356515_);}
	.st10{fill:url(#path918_00000171720517618394603350000012569314260247328406_);}
	.st11{fill:url(#path916_00000139280723474629622660000003419061297570999471_);}
	.st12{fill:#B5B9AD;}
	.st13{fill:url(#path910_00000156552693611707213110000016859659895818718850_);}
	.st14{fill:url(#path906_00000059271837605772878480000006596089128559060671_);}
	.st15{fill:url(#path1002_00000023974813806312814620000000948331943445847970_);}
</style>
<sodipodi:namedview  bordercolor="#666666" borderopacity="1" gridtolerance="10" guidetolerance="10" id="namedview860" inkscape:current-layer="svg1012" inkscape:cx="-16.570713" inkscape:cy="348.72606" inkscape:document-rotation="0" inkscape:pageopacity="0" inkscape:pageshadow="2" inkscape:window-height="784" inkscape:window-maximized="0" inkscape:window-width="1440" inkscape:window-x="0" inkscape:window-y="23" inkscape:zoom="0.60407122" objecttolerance="10" pagecolor="#ffffff" showgrid="false">
	</sodipodi:namedview>
<g id="g945">
	<path id="path849" class="st0" d="M54.4,58C131,17.5,212.9-0.5,287.5,0c76.9,0.5,160.6,24.3,221.7,57.5
		c35.2,70.9,56,156.4,55.9,234.2C564.9,449.4,489.5,596.1,284,700c-90.7-45-158.1-100.8-203.9-163.1C23.9,460.4-0.7,373.2,0,285.6
		C0.6,209.9,24.9,115.6,54.4,58z"/>
	<path id="path875" class="st1" d="M503.9,62.7C440.7,28.8,359.2,7.6,287.4,7.1c-78.7-0.6-158,19.7-227.8,56.1
		C26.4,129.3,7.5,212,6.9,285.6c-0.7,89.7,25.6,174.6,78.9,247.1c50.8,69.2,121.9,121.2,198.2,159.4
		c163.7-83.7,274-210.8,274.3-400.4C558.4,215,537.8,131.7,503.9,62.7z"/>
	<path id="path899" class="st2" d="M71.8,77.8c-21.3,42-40.4,105.3-47.9,162.7c-5.7,43.5-4.5,88.3,3.8,131.4
		c25,130.2,111.9,233.8,255.6,303.8c161.2-81.4,261.6-202.8,261.9-383.1c0.1-72.4-22.3-152.6-53.1-215.5
		c-55.5-30.3-137.5-52-204.8-52.5C213.3,24.1,137.7,44.3,71.8,77.8z"/>
	<path id="path919" class="st3" d="M283.3,667.1c153.8-78.6,253.7-195.2,254-374.5c0.1-65.1-20.1-144.8-50.5-207.5
		C430.5,53.7,350.9,33.4,287.3,33c-72.2-0.5-146,19.5-210.4,52.2c-7.7,15.5-14.1,29.8-19.7,46.2c-6.7,19.4-12.4,39.3-17,59.3
		c-3.9,16.7-6.7,33.7-8.9,50.7c-5.7,42.8-4.8,86.7,3.4,129.2C61.5,510.7,158.5,605,283.3,667.1z"/>
</g>
<path id="path937" class="st4" d="M280.5,90l-4.3,75.8c-0.4-3.5-3.5-9.2-4.4-11.8c-2.9-9.2,0.4-11.5-2.5-20.7
	c-1.3-4.4-4.6-7.5-6.5-11.4c-2.2-4.7-1.4-8.8-2.3-13.6c-0.7-3.5-2.9-10.8-6.8-12.7c2.1,4.4,2.2,9.4,2,12.8c-0.2,5-1.3,7.7,0.4,14.1
	c1.5,6.3,5.5,12.5,6.2,18.8c1.1,10-0.2,16.6,1.7,27.4l-35.7-66.5l24.9,70.8c-3.4-4.1-7.3-7.7-9.2-10.4c-4.1-5.9-3.8-9.9-9.1-16.4
	c-2.9-3.5-8.5-6.7-11.5-9.8c-2.1-2.1-4.6-7.7-7.3-11.8c-2-2.9-5.1-6.4-10.7-7.5c3.6,3.3,5.2,6.3,7,10.3c2,4.6,3.5,10.5,6.2,14.3
	c3.8,5.3,9.2,7.8,12.2,13.5c5.4,9.9,6.6,15.5,13.8,26.6l-60-49.7l52.6,58.7c-4.1-2.4-9.9-5.6-13.9-8.4c-5.1-3.6-10-7.8-15.3-10.6
	c-4-2.2-8-2.5-12.1-4c-4.9-1.8-9.3-6.5-13.3-9.2c-2.9-2-5.8-4.6-12.9-3.4c5.3,2,8.7,5.2,11.8,8.4c2.4,2.5,4.5,5.1,7.6,7.1
	c7.1,4.6,10.5,4.2,19,10.4c7,5.1,12.2,12.3,22.2,19.1l-74.8-23.3l68.9,33.1c-4.6-0.4-12.2,0.2-15.6-0.6c-6-1.2-10.4-4-19-5
	c-4.5-0.5-9.5,1.7-13.2,1.2c-3.5-0.5-8.4-2.4-13.1-3.4c-3.4-0.8-7-0.8-13.1,1.9c12-0.5,18.1,6.6,25.6,8c6.4,1.2,8-1.6,18.7,1.5
	c3.1,0.9,8,3.4,11.1,4.3c7.6,2.2,14.6,1.7,18.9,5.1c-27.2,1.7-53.3,4.3-79,7l79.2,4.1l-33.7,7.8h184.3L342,231l81.5-7l-78.4-3.9
	c5.7-2.3,9.7-4.2,12.7-4.8c5.9-1.2,12.5-1.3,17.6-2.3c5.5-1,8.5-5,12.9-6.6c5.3-2,10.1-1.3,16-3.2c3.4-1.1,6.8-1.6,11.4-6.4
	c-4.5,2-8.4,2.4-12.8,2.4c-5,0-10-0.6-14.6,0.3c-6.4,1.3-13.5,5.9-19.9,6.5c-10.7,1-16.7-0.3-28.2,2l71.6-37.6l-75,26.8
	c4.8-3.9,7-7.4,10.1-9.3c5.2-3.2,10.6-4.8,16.2-8.9c3-2.3,5.4-6,7.5-8.8c4.2-5.5,8.5-6.6,12.5-9.2c3-1.9,9.4-6.6,10.8-13.2
	c-3.3,4.1-5.1,5.3-9.2,7c-4.6,2-10.3,2.8-14.2,5.5c-5.3,3.7-8.3,9.2-16.1,14.1c-8.2,5.2-13.6,4.9-26.2,14.3l50-61.3l-56.8,51.7
	c2.7-6,3.2-8.6,4.4-10.9c4.6-8.7,8.5-7.6,13.1-16.4c2.1-4,2.3-9.2,3.8-13.3c1.7-4.9,6.1-8.1,8.8-12.1c2-2.9,4.2-7.8,3.1-13.4
	c-1,4.2-2.5,5.7-4.2,7.7c-2,2.3-4.3,3.8-6.5,5.9c-1.9,1.7-3.4,3.7-4.8,5.9c-3.4,5.5-5.6,14-9.6,19c-3.1,3.8-4.6,3.5-7.7,7
	c-3.5,3.6-6.3,9.8-11.9,15.6l23.3-75.6L299.4,170c0.4-19,5-21.7,6.1-34.3c0.8-6.7-0.9-9.7-1.1-14.1c-0.3-5.2,2.5-8.9,3.4-13.7
	c0.7-3.5,1.1-8.9-1.9-13.5c0.2,4.9-1,8.2-2.5,12.3c-1.8,4.7-4.4,9.1-5.2,13.8c-1.1,6.4,1,11.3-1.6,20.7c-2.8,10.3-6.3,13.1-8.9,26.4
	L280.5,90z M283.2,176.6c4.3,5.3,6.3,9.8,7.4,15.6c-5.4,7.4-7.3,17.1-7,25h3.7c-0.1-0.7-0.1-1.4-0.1-2.1c0-6.6,6.1-19.6,16.7-18.2
	c3.8,0.5,7.2,4.1,7.1,8.7c-0.1,2.8-2.1,5.7-6,6c0.6-1.8,0.8-3.4,0.5-4.7c-0.6-2.4-3-3.6-6.5-3.3c-7.4,0.8-11.3,6.8-11,13.5h3.1
	c0.8,0,1.5,0.7,1.5,1.5s-0.7,1.5-1.5,1.5h-2.7c0.5,2,1.8,4,3.5,6.3c-1.5-1.2-3.3-3.5-4.1-6.3h-4c0.3,3.1,1.1,5.7,4.2,9.6l-5,6.1
	l-5-6.2c3.1-3.7,3.8-6.3,4.2-9.5h-3.8c-0.8,2.8-2.6,5-4.1,6.3c1.7-2.3,3-4.2,3.5-6.3H275c-0.8,0-1.5-0.7-1.5-1.5s0.7-1.5,1.5-1.5
	h3.1c0.3-6.7-3.5-12.7-11-13.5c-3.5-0.4-5.9,0.9-6.5,3.3c-0.3,1.3-0.1,2.8,0.5,4.7c-3.8-0.3-5.9-3.2-6-6c-0.1-4.6,3.3-8.2,7.1-8.7
	c10.6-1.4,16.6,11.6,16.7,18.2c0,0.7,0,1.4-0.1,2.1h3.6c0.4-8-1.7-18-7.1-25.1C276.8,184.9,280.2,179.5,283.2,176.6z"/>
<g id="g894">
	<path id="path939" class="st5" d="M103.6,318.4H92.3v16.3h-7.5v-38.6h18.9v6.6H92.3v9h11.3C103.6,311.7,103.6,318.4,103.6,318.4z"
		/>
	<path id="path941" class="st5" d="M134.9,332.6c-1,0.8-2.6,1.5-4.5,2c-2,0.6-3.8,0.9-5.4,0.9c-5.8,0-10.4-1.8-13.7-5.5
		c-3.4-3.6-5-8.6-5-14.7c0-5.9,1.7-10.7,5.2-14.4c3.5-3.8,8-5.6,13.7-5.6c2.1,0,4,0.2,5.5,0.6c1.6,0.4,3,1,4.3,2v8.4
		c-1.3-1.2-2.8-2.1-4.4-2.7c-1.6-0.6-3.2-0.9-4.8-0.9c-3.6,0-6.4,1.2-8.6,3.5c-2.1,2.3-3.2,5.4-3.2,9.3c0,4,1,7.1,2.9,9.4
		c2,2.3,4.7,3.5,8.1,3.5c2,0,3.9-0.3,5.5-1s3.1-1.7,4.4-3.2V332.6z"/>
	<path id="path943" class="st5" d="M183.8,296.1l-12.6,38.6H163l-12.5-38.6h8.6l8,28.7l8-28.7H183.8z"/>
	<path id="path945" class="st5" d="M206.1,334.7h-19.4v-38.6h19.4v6.6h-11.7v9h11.7v6.7h-11.7v9.6h11.7V334.7z"/>
	<path id="path947" class="st5" d="M227.5,307.5c0-1.8-0.5-3.2-1.6-4s-2.8-1.3-5-1.3h-1.7v10.4h1.7c2.2,0,3.9-0.4,5-1.3
		C226.9,310.5,227.5,309.2,227.5,307.5z M237.3,334.7h-9l-9.1-17.6v17.6h-7.5v-38.6H222c4.3,0,7.7,0.9,9.9,2.7
		c2.3,1.8,3.4,4.5,3.4,8c0,3-0.8,5.4-2.3,7.2c-1.5,1.8-3.5,2.8-5.9,3.1L237.3,334.7z"/>
	<path id="path949" class="st5" d="M262.2,324c0,3.7-1.1,6.5-3.3,8.5c-2.2,2-5.3,3-9.3,3c-2.8,0-5.3-0.5-7.4-1.5
		c-2.1-1-3.6-2.5-4.5-4.3l4.8-5.3c0.5,1.3,1.4,2.4,2.8,3.3c1.3,0.8,2.8,1.3,4.3,1.3c1.6,0,2.8-0.4,3.6-1.1s1.2-1.8,1.2-3.2
		c0-1.2-0.5-2.4-1.6-3.4s-3-2.3-5.8-3.8c-3-1.7-5.2-3.4-6.4-5.1c-1.3-1.7-1.9-3.8-1.9-6.2c0-3.3,1.1-5.9,3.3-7.9s5.1-3,8.8-3
		c2.3,0,4.2,0.4,5.9,1.3c1.7,0.8,3.1,2.1,4.3,3.8l-4.6,5.1c-0.5-1-1.3-1.8-2.3-2.5c-1.1-0.6-2.2-1-3.4-1c-1.3,0-2.4,0.3-3.2,1
		s-1.2,1.5-1.2,2.6c0,2,1.8,4.1,5.5,6c0.7,0.3,1.2,0.6,1.6,0.8c3.2,1.8,5.5,3.6,6.8,5.3C261.6,319.4,262.2,321.5,262.2,324
		L262.2,324z"/>
	<path id="path951" class="st5" d="M285,319.9l-4.9-16.4l-4.8,16.4H285z M297.7,334.6h-8.4l-2.5-8.5h-13.3l-2.6,8.5h-8.4l13.1-38.6
		h9L297.7,334.6z"/>
	<path id="path953" class="st5" d="M307.9,334.7h-7.5v-38.6h7.5V334.7z"/>
	<path id="path955" class="st5" d="M330.9,334.7h-17v-38.6h7.5v32h9.5V334.7z"/>
	<path id="path957" class="st5" d="M351.5,334.7h-17v-38.6h7.5v32h9.5V334.7z"/>
	<path id="path959" class="st5" d="M374.4,334.7H355v-38.6h19.4v6.6h-11.7v9h11.7v6.7h-11.7v9.6h11.7V334.7z"/>
	<path id="path961" class="st5" d="M402.1,324.1c0,3.7-1.1,6.6-3.3,8.6c-2.2,2-5.3,3-9.5,3c-2.9,0-5.3-0.5-7.5-1.6
		c-2.1-1-3.6-2.5-4.6-4.4l4.8-5.4c0.5,1.3,1.5,2.5,2.8,3.3c1.4,0.9,2.8,1.3,4.4,1.3s2.8-0.4,3.6-1.1c0.8-0.7,1.2-1.8,1.2-3.3
		c0-1.3-0.6-2.4-1.7-3.4s-3.1-2.3-5.9-3.8c-3.1-1.7-5.2-3.4-6.5-5.2c-1.3-1.8-1.9-3.8-1.9-6.2c0-3.3,1.1-6,3.3-8c2.2-2,5.2-3,8.9-3
		c2.3,0,4.3,0.4,6,1.3c1.7,0.8,3.2,2.1,4.4,3.8l-4.7,5.1c-0.5-1-1.3-1.8-2.4-2.5s-2.2-1-3.4-1c-1.4,0-2.4,0.4-3.2,1.1
		c-0.8,0.7-1.2,1.6-1.2,2.6c0,2.1,1.8,4.1,5.5,6.1c0.7,0.4,1.2,0.6,1.6,0.8c3.2,1.8,5.5,3.6,6.9,5.4
		C401.4,319.5,402.1,321.6,402.1,324.1L402.1,324.1z"/>
	<path id="path963" class="st5" d="M422.8,333.5l22.1-40.8h-24.3v-5.1h32.8l-24.8,48.6L422.8,333.5z"/>
	<path id="path965" class="st5" d="M468.6,291.7c-4.5,0-7.8,3.8-7.8,7.7c0,3.9,2.9,7.6,7.6,7.6s7.8-3.2,7.9-7.6
		C476.4,295.5,473.3,291.7,468.6,291.7z M468.5,330.4c5.8,0,9.4-4.2,9.4-8.9c0-4.7-3.6-8.9-9.5-8.9c-5.2,0-9,4.5-8.9,9
		C459.6,326.5,463.5,330.4,468.5,330.4L468.5,330.4z M461.8,309.6c-4.6-2-6.8-5.4-6.8-10.6c0-7.6,6.6-12.5,13.6-12.5
		c7.4,0,13.7,4.8,13.7,12.7c0,5-2.5,9.1-6.9,10.6c5.7,1.7,8.4,6.1,8.4,12c0,9-6.6,14.1-15.2,14.1c-8.3,0-15-5.1-15-13.9
		C453.5,315.8,456.3,311.4,461.8,309.6z"/>
</g>
<g id="g1081">
	<path id="path986" class="st6" d="M283.2,405.1c42.8,0,77.4,34.5,77.4,77.1c0,20.6-7.9,39.5-21.1,53.5
		c-14.1,14.9-34.3,24.2-56.3,24.2c-23.9,0-44.8-11-59-28.1c-11.2-13.5-18-30.8-18-49.6c0-12.6,3-24.7,8.4-35.3
		C227.2,422,253.1,405.1,283.2,405.1L283.2,405.1z"/>
	<g id="g994">
		<path id="path926" class="st2" d="M276.3,527.4c0.6,0.3,1.3,0.6,1.8,0.9c2.1,1,4.2,1.8,6.4,2.5c1.3,0.4,2.6,0.9,3.8,1.3
			c1.9,0.6,3.8,1.2,5.7,1.7c1.6,0.4,3.3,0.8,4.9,0.9c3.5,0.4,7,0.3,10.4,0c2.2-1.4,7-6.2,12.2-11.3c4-3.9,8.3-6.7,11.6-10.8l-7-31.9
			c-4.1,0.8-9-0.5-15.1-2.6c-4.3-1.5-8.5-2.8-14.8-5.1c-8.7,7.6-17.2,15.3-25.7,23.1C272.5,506.7,274.4,516.8,276.3,527.4
			L276.3,527.4z"/>
		
			<linearGradient id="path924_00000070819689612588422860000009027327913903845803_" gradientUnits="userSpaceOnUse" x1="246.3711" y1="490.2856" x2="371.455" y2="572.0817" gradientTransform="matrix(1 0 0 1 0 -92)">
			<stop  offset="0" style="stop-color:#FFFFFF"/>
			<stop  offset="0.6958" style="stop-color:#FFFFFF"/>
			<stop  offset="0.8527" style="stop-color:#C8D1C7"/>
			<stop  offset="1" style="stop-color:#B5B9AD"/>
		</linearGradient>
		<path id="path924" style="fill:url(#path924_00000070819689612588422860000009027327913903845803_);" d="M314,429.4
			c-0.2-4.3-0.9-8.8-2.7-12.7c-0.4-0.8-0.8-1.6-1.3-2.4c-5.6-2.9-12.3-5.4-19.7-7c-3.2-0.7-6.5-1.2-9.9-1.6c-3.4,0.5-7,1.6-9.9,2.8
			c-4.8,1.9-9.3,4.5-13.4,7.8c0.7,5,1.6,10.8,2.3,16.1c0.7,0.1,1.4,0.2,2.1,0.3c6.6,0.9,13.2,2.5,19.5,4.7c2.4,0.8,4.8,1.7,7,2.8
			C296.7,436.6,305.4,433,314,429.4L314,429.4z"/>
		
			<linearGradient id="path922_00000097475525050435399440000005786668009912729232_" gradientUnits="userSpaceOnUse" x1="243.4201" y1="494.7985" x2="368.504" y2="576.5945" gradientTransform="matrix(1 0 0 1 0 -92)">
			<stop  offset="0" style="stop-color:#FFFFFF"/>
			<stop  offset="0.6958" style="stop-color:#FFFFFF"/>
			<stop  offset="0.8527" style="stop-color:#C8D1C7"/>
			<stop  offset="1" style="stop-color:#B5B9AD"/>
		</linearGradient>
		<path id="path922" style="fill:url(#path922_00000097475525050435399440000005786668009912729232_);" d="M238.5,419.2
			c11-7.8,24.2-12.8,38.5-13.9h-0.2l0.6,0.1c-2.6,0.6-5.2,1.4-7.4,2.3c-5.2,2.1-10,4.9-14.3,8.5c-0.5,0.1-1,0.1-1.5,0.2
			C247.4,416.8,242.4,417.7,238.5,419.2z"/>
		
			<linearGradient id="path920_00000067952949708921676800000004981527396706343350_" gradientUnits="userSpaceOnUse" x1="212.978" y1="541.3508" x2="338.062" y2="623.147" gradientTransform="matrix(1 0 0 1 0 -92)">
			<stop  offset="0" style="stop-color:#FFFFFF"/>
			<stop  offset="0.6958" style="stop-color:#FFFFFF"/>
			<stop  offset="0.8527" style="stop-color:#C8D1C7"/>
			<stop  offset="1" style="stop-color:#B5B9AD"/>
		</linearGradient>
		<path id="path920" style="fill:url(#path920_00000067952949708921676800000004981527396706343350_);" d="M207.3,468.9
			c1.3-7.8,3.8-15.2,7.3-21.9c2.5-5,5.6-9.6,9.1-13.9c-3,6.1-5.1,13-5.8,19.7c-0.2,0.2-0.4,0.4-0.6,0.6
			C213.2,458,209.8,463.3,207.3,468.9z"/>
		
			<linearGradient id="path918_00000043431326454611020180000005638860128790366594_" gradientUnits="userSpaceOnUse" x1="201.38" y1="559.0869" x2="326.4639" y2="640.883" gradientTransform="matrix(1 0 0 1 0 -92)">
			<stop  offset="0" style="stop-color:#FFFFFF"/>
			<stop  offset="0.6958" style="stop-color:#FFFFFF"/>
			<stop  offset="0.8527" style="stop-color:#C8D1C7"/>
			<stop  offset="1" style="stop-color:#B5B9AD"/>
		</linearGradient>
		<path id="path918" style="fill:url(#path918_00000043431326454611020180000005638860128790366594_);" d="M206.5,489.5
			c-0.2-2.4-0.3-4.8-0.3-7.3c0-3.4,0.2-6.8,0.6-10.1c2.7-6.6,6.4-12.8,11-18.2c0.2-0.2,0.4-0.5,0.6-0.7c5.2,1.3,10.4,2.9,15.6,4.2
			c-0.8,4.5-0.6,9.7,0.1,14c0.8,5.7,2.6,11.3,5.2,16.4c-4.2,5.9-8.2,12.8-11,25.3c-2.4-1.2-4.8-2.4-7.2-3.7
			c-2.6-1.4-5.2-2.6-7.8-3.5C209.5,500.4,207.8,495,206.5,489.5L206.5,489.5z"/>
		
			<linearGradient id="path916_00000000207649232691757580000015202090530815040939_" gradientUnits="userSpaceOnUse" x1="182.249" y1="588.342" x2="307.333" y2="670.1382" gradientTransform="matrix(1 0 0 1 0 -92)">
			<stop  offset="0" style="stop-color:#FFFFFF"/>
			<stop  offset="0.6958" style="stop-color:#FFFFFF"/>
			<stop  offset="0.8527" style="stop-color:#C8D1C7"/>
			<stop  offset="1" style="stop-color:#B5B9AD"/>
		</linearGradient>
		<path id="path916" style="fill:url(#path916_00000000207649232691757580000015202090530815040939_);" d="M250,552.3
			c-10-4.9-18.8-11.9-25.9-20.5c-2.3-2.8-4.5-5.8-6.4-8.9c-1.8-3.9-3-7.1-3.8-10.4c-0.5-2.2-0.7-4.1-0.5-5.6c2.4,0.9,4.8,2,7.2,3.3
			c2.5,1.3,5.1,2.6,7.7,3.9c6.7,8.5,13.2,16.8,18.7,20.8c1.5,1.1,2.8,1.8,4.4,2.1c0.1,1,0.2,2,0.4,3c0.6,4.2,1.7,8.3,3.3,12.2
			C253.8,552.3,252,552.4,250,552.3z"/>
		<path id="path914" class="st2" d="M295.8,558.9c-4.1,0.7-8.3,1-12.6,1c-2.8,0-5.6-0.2-8.4-0.5c-5.5-1.5-11.5-3.9-18.7-7.2
			c-1.6-4-2.8-8.2-3.4-12.4c-0.1-0.9-0.2-1.8-0.3-2.8c0.4,0,0.8,0,1.3,0c5.3-0.3,7.3-1.8,10.6-3.2c4.1-1.7,8.2-3.5,11.9-5.7
			c0.5,0.3,1.1,0.5,1.5,0.7c2.1,1,4.3,1.8,6.4,2.6c1.3,0.4,2.6,0.9,3.9,1.3c1.9,0.6,3.8,1.2,5.8,1.7c1.6,0.4,3.4,0.8,5,1
			c3.2,0.3,6.4,0.3,9.7,0.1c0.9,5,1.8,10.1,2.8,15c-2.5,2.3-5.3,4.3-8.2,5.7l-0.4,0.2l0,0C300.3,557.5,298.1,558.3,295.8,558.9
			L295.8,558.9z"/>
		<path id="path912" class="st12" d="M334.3,540.7c-7.9,6.9-17.3,12.3-27.5,15.6l-1.1-0.4c2.3-1.4,4.5-3.1,6.5-4.9
			c4.1-0.8,7.8-2.2,11.7-4.2C327.3,544.9,330.8,542.8,334.3,540.7L334.3,540.7z"/>
		
			<linearGradient id="path910_00000153668644842446435770000003668278658132023699_" gradientUnits="userSpaceOnUse" x1="225.3736" y1="522.3953" x2="350.4576" y2="604.1914" gradientTransform="matrix(1 0 0 1 0 -92)">
			<stop  offset="0" style="stop-color:#FFFFFF"/>
			<stop  offset="0.6958" style="stop-color:#FFFFFF"/>
			<stop  offset="0.8527" style="stop-color:#C8D1C7"/>
			<stop  offset="1" style="stop-color:#B5B9AD"/>
		</linearGradient>
		<path id="path910" style="fill:url(#path910_00000153668644842446435770000003668278658132023699_);" d="M359.2,496.9
			c-2.3,12-7.3,23.1-14.4,32.6l4.3-13.7c0.5-0.8,1-1.5,1.5-2.3c3.1-4.9,5.9-10.2,8.2-15.6C359,497.5,359.1,497.2,359.2,496.9
			L359.2,496.9z"/>
		<path id="path908" class="st2" d="M360.3,488.8c-0.1,1.4-0.3,2.7-0.4,4.1c-0.6,1.6-1.2,3.1-1.8,4.6c-2.3,5.4-5,10.6-8.1,15.5
			c-0.4,0.6-0.8,1.3-1.2,1.9c-3.5,0-9.7-1.9-14.6-2.7l-7-31.8c5.2-6.2,8.8-15.3,11.4-25.2c3.9-0.1,8,0.4,11.4,2.3
			c1.4,0.8,2.6,1.9,3.7,3.1c0.1,0.2,0.3,0.4,0.5,0.6C357.6,468.3,359.2,479.1,360.3,488.8L360.3,488.8z"/>
		
			<linearGradient id="path906_00000016774054583939744560000009509567296604403347_" gradientUnits="userSpaceOnUse" x1="254.7309" y1="477.5017" x2="379.8149" y2="559.2978" gradientTransform="matrix(1 0 0 1 0 -92)">
			<stop  offset="0" style="stop-color:#FFFFFF"/>
			<stop  offset="0.6958" style="stop-color:#FFFFFF"/>
			<stop  offset="0.8527" style="stop-color:#C8D1C7"/>
			<stop  offset="1" style="stop-color:#FFFFFF"/>
		</linearGradient>
		<path id="path906" style="fill:url(#path906_00000016774054583939744560000009509567296604403347_);" d="M321.7,415.3
			c14.8,8.5,26.5,21.7,33.1,37.6c-0.1,2.7-0.3,5.1-1,6.7c-1-1.1-2.2-2.1-3.5-2.9c-3.6-2.1-7.9-2.5-12-2.4c-1.4-1.9-2.2-3.7-3.8-5.6
			c-2.6-3.1-4.4-4.6-8.7-9.5c-1.9-2.1-2.8-4.1-5.3-5.9c-1.7-1.3-3.5-2.3-5.5-3.4c-0.2-4.6-0.8-9.3-2.8-13.4
			c-0.2-0.4-0.4-0.8-0.6-1.3l0.2,0.1C313.8,414.9,317.7,414.9,321.7,415.3L321.7,415.3z"/>
		
			<linearGradient id="path1002_00000173132614237742703540000011744448893236381355_" gradientUnits="userSpaceOnUse" x1="221.3993" y1="528.4729" x2="346.4832" y2="610.269" gradientTransform="matrix(1 0 0 1 0 -92)">
			<stop  offset="0" style="stop-color:#FFFFFF"/>
			<stop  offset="0.6958" style="stop-color:#FFFFFF"/>
			<stop  offset="0.8527" style="stop-color:#C8D1C7"/>
			<stop  offset="1" style="stop-color:#B5B9AD"/>
		</linearGradient>
		<path id="path1002" style="fill:url(#path1002_00000173132614237742703540000011744448893236381355_);" d="M287.4,440.8
			c5.4,10.8,5,20.5,8.4,31.6c-8.6,7.5-17.2,15.2-25.6,23c-11.1-2.3-20.8-5.2-30-7.8c-2.6-5.1-4.3-10.7-5.2-16.4
			c-0.7-4.7-0.9-10.4,0.2-15.2c0.5-1,1-1.9,1.7-2.6c3.2-3.1,5.4-5.4,8.5-8.2c3.9-3.6,8.3-6.4,14-12c0.7,0.1,1.4,0.2,2.1,0.3
			c6.5,0.9,13.1,2.5,19.3,4.7C282.9,438.9,285.2,439.8,287.4,440.8L287.4,440.8z"/>
	</g>
</g>
</svg>
