<?xml version="1.0" encoding="UTF-8" standalone="no"?>
<svg
   xmlns:dc="http://purl.org/dc/elements/1.1/"
   xmlns:cc="http://creativecommons.org/ns#"
   xmlns:rdf="http://www.w3.org/1999/02/22-rdf-syntax-ns#"
   xmlns:svg="http://www.w3.org/2000/svg"
   xmlns="http://www.w3.org/2000/svg"
   xmlns:sodipodi="http://sodipodi.sourceforge.net/DTD/sodipodi-0.dtd"
   xmlns:inkscape="http://www.inkscape.org/namespaces/inkscape"
   version="1.1"
   width="550"
   height="593"
   id="svg2"
   inkscape:version="0.91 r13725"
   sodipodi:docname="Logo FC Villefranche Beaujolais.svg">
  <metadata
     id="metadata193">
    <rdf:RDF>
      <cc:Work
         rdf:about="">
        <dc:format>image/svg+xml</dc:format>
        <dc:type
           rdf:resource="http://purl.org/dc/dcmitype/StillImage" />
        <dc:title></dc:title>
      </cc:Work>
    </rdf:RDF>
  </metadata>
  <defs
     id="defs191" />
  <sodipodi:namedview
     pagecolor="#ffffff"
     bordercolor="#666666"
     borderopacity="1"
     objecttolerance="10"
     gridtolerance="10"
     guidetolerance="10"
     inkscape:pageopacity="0"
     inkscape:pageshadow="2"
     inkscape:window-width="1280"
     inkscape:window-height="691"
     id="namedview189"
     showgrid="false"
     inkscape:zoom="0.61867883"
     inkscape:cx="297.63779"
     inkscape:cy="356.29098"
     inkscape:window-x="0"
     inkscape:window-y="1"
     inkscape:window-maximized="1"
     inkscape:current-layer="svg2" />
  <g
     id="Layer1000"
     transform="matrix(1.0446243,0,0,1.0446243,-35.919615,-142.84307)">
    <path
       d="m 34.3852,137.4802 526.5051,0 0,179.8317 c 0,43.3967 -0.9869,85.4252 -12.9679,127.3726 -2.9345,10.2743 -6.3596,20.3915 -10.0514,30.4186 -11.8667,32.231 -28.1381,62.0354 -47.639,88.2132 C 442.697,627.1264 377.8617,672.2074 299.0957,704.4093 203.7352,671.2076 114.1007,599.6625 68.2929,501.1869 63.2434,490.3311 58.2699,476.7198 54.193,465.4586 36.3173,416.0824 34.3852,363.7374 34.3852,311.7094 l 0,-174.2292 z"
       style="fill:#296aad;fill-rule:evenodd"
       id="path5"
       inkscape:connector-curvature="0" />
    <path
       d="m 56.9845,158.7235 482.8885,0 0,158.5884 c 0,73.3541 -6.9902,107.285 -22.7105,149.9831 C 472.6993,588.0618 364.9543,653.9081 298.4026,680.9866 206.7003,643.1891 126.6781,575.1181 88.478,488.3395 67.756,441.2652 56.9845,410.4561 56.9845,311.7094 l 0,-152.9859 z"
       style="fill:#ffffff;fill-rule:evenodd"
       id="path7"
       inkscape:connector-curvature="0" />
    <path
       d="m 81.1657,182.9047 0,128.8047 c 0,45.9042 1.226,92.9697 17.0136,136.5765 3.7176,10.268 8.0322,20.3197 12.4303,30.311 35.3357,80.2712 108.4847,141.2325 187.8452,176.1307 86.1343,-37.5272 163.1405,-106.4951 196.0154,-195.7873 3.2898,-8.9348 6.3543,-17.9483 8.9699,-27.1051 10.7046,-37.4729 12.2517,-75.7662 12.2517,-114.5233 l 0,-134.4072 -434.5261,0 z"
       style="fill:#3569ac;fill-rule:evenodd"
       id="path9"
       inkscape:connector-curvature="0" />
    <g
       id="Layer1001">
      <path
         d="m 301.2254,359.5536 176.4269,-176.6489 36.0449,0 -212.4718,176.6489 z"
         style="fill:#2357a0;fill-rule:evenodd"
         id="path12"
         inkscape:connector-curvature="0" />
      <path
         d="m 301.9597,360.5945 213.7321,-143.3322 0,27.0409 -213.7321,116.2913 z"
         style="fill:#2357a0;fill-rule:evenodd"
         id="path14"
         inkscape:connector-curvature="0" />
      <path
         d="m 302.4835,361.7744 213.2083,-88.336 0,22.2994 -213.2083,66.0366 z"
         style="fill:#2357a0;fill-rule:evenodd"
         id="path16"
         inkscape:connector-curvature="0" />
      <path
         d="m 302.7629,363.016 212.9253,-42.6468 c -0.0151,6.7418 -0.0834,13.4691 -0.2443,20.1804 l -212.681,22.4664 z"
         style="fill:#2357a0;fill-rule:evenodd"
         id="path18"
         inkscape:connector-curvature="0" />
      <path
         d="m 302.7963,364.2863 211.6582,-0.6045 c -0.418,6.5056 -0.9692,12.9939 -1.6895,19.4627 L 302.7963,364.2863 Z"
         style="fill:#2357a0;fill-rule:evenodd"
         id="path20"
         inkscape:connector-curvature="0" />
      <path
         d="m 302.5805,365.5489 206.8407,40.5401 c -1.1665,6.3723 -2.544,12.7239 -4.1679,19.0526 L 302.5805,365.5489 Z"
         style="fill:#2357a0;fill-rule:evenodd"
         id="path22"
         inkscape:connector-curvature="0" />
      <path
         d="m 302.1183,366.7532 196.3204,81.003 c -1.2733,3.7447 -2.6014,7.4713 -3.9685,11.1841 -0.9118,2.4767 -1.863,4.9353 -2.842,7.3805 L 302.1183,366.7532 Z"
         style="fill:#2357a0;fill-rule:evenodd"
         id="path24"
         inkscape:connector-curvature="0" />
      <path
         d="m 301.437,367.8326 180.4981,120.0773 c -3.0312,6.0737 -6.2726,12.0345 -9.7055,17.8823 L 301.437,367.8326 Z"
         style="fill:#2357a0;fill-rule:evenodd"
         id="path26"
         inkscape:connector-curvature="0" />
      <path
         d="m 300.5526,368.7639 158.3132,157.8474 c -4.048,5.7929 -8.286,11.458 -12.7066,16.9858 L 300.5526,368.7639 Z"
         style="fill:#2357a0;fill-rule:evenodd"
         id="path28"
         inkscape:connector-curvature="0" />
      <path
         d="m 299.5181,369.4959 130.1145,193.2575 c -5.0862,5.4796 -10.3514,10.8036 -15.7797,15.9659 L 299.5181,369.4959 Z"
         style="fill:#2357a0;fill-rule:evenodd"
         id="path30"
         inkscape:connector-curvature="0" />
      <path
         d="m 298.3442,370.0202 94.7693,227.0126 c -6.2358,5.1122 -12.6386,10.0253 -19.18,14.7422 L 298.3442,370.0202 Z"
         style="fill:#2357a0;fill-rule:evenodd"
         id="path32"
         inkscape:connector-curvature="0" />
      <path
         d="m 297.0841,370.3052 51.64,258.2394 c -7.5565,4.6269 -15.2529,8.9997 -23.0608,13.1109 L 297.0841,370.3052 Z"
         style="fill:#2357a0;fill-rule:evenodd"
         id="path34"
         inkscape:connector-curvature="0" />
      <path
         d="m 294.5435,370.1198 -50.5448,255.8071 c -7.1165,-4.4548 -14.1083,-9.1333 -20.95,-14.0265 l 71.4948,-241.7806 z"
         style="fill:#2357a0;fill-rule:evenodd"
         id="path36"
         inkscape:connector-curvature="0" />
      <path
         d="m 293.3543,369.6631 -92.6069,225.0576 c -5.9394,-4.9278 -11.7227,-10.0356 -17.335,-15.3123 L 293.3543,369.6631 Z"
         style="fill:#2357a0;fill-rule:evenodd"
         id="path38"
         inkscape:connector-curvature="0" />
      <path
         d="M 292.2605,368.972 164.5269,560.265 c -4.8586,-5.3224 -9.5387,-10.7943 -14.0301,-16.4071 L 292.2605,368.972 Z"
         style="fill:#2357a0;fill-rule:evenodd"
         id="path40"
         inkscape:connector-curvature="0" />
      <path
         d="M 291.3328,368.0888 135.7045,523.8004 c -3.8336,-5.6602 -7.4727,-11.4476 -10.9062,-17.3564 L 291.3328,368.0888 Z"
         style="fill:#2357a0;fill-rule:evenodd"
         id="path42"
         inkscape:connector-curvature="0" />
      <path
         d="M 290.5975,367.0452 113.7416,485.4441 c -1.0735,-2.2672 -2.12,-4.5481 -3.132,-6.8472 -1.6349,-3.7142 -3.2582,-7.4363 -4.8437,-11.1751 L 290.5975,367.0452 Z"
         style="fill:#2357a0;fill-rule:evenodd"
         id="path44"
         inkscape:connector-curvature="0" />
      <path
         d="m 290.0788,365.8777 -192.707,80.1359 c -2.127,-6.0842 -3.9774,-12.2337 -5.5854,-18.4363 l 198.2924,-61.6996 z"
         style="fill:#2357a0;fill-rule:evenodd"
         id="path46"
         inkscape:connector-curvature="0" />
      <path
         d="M 289.7961,364.6223 86.9836,405.0612 c -1.0736,-6.2708 -1.951,-12.5789 -2.6683,-18.9128 l 205.4808,-21.5261 z"
         style="fill:#2357a0;fill-rule:evenodd"
         id="path48"
         inkscape:connector-curvature="0" />
      <path
         d="M 289.7642,363.3477 82.3879,363.6271 C 81.9982,357.2017 81.7298,350.7652 81.5458,344.33 l 208.2184,19.0177 z"
         style="fill:#2357a0;fill-rule:evenodd"
         id="path50"
         inkscape:connector-curvature="0" />
      <path
         d="M 289.9816,362.0867 81.1863,320.8842 c -0.0147,-3.0624 -0.0206,-6.1212 -0.0206,-9.1748 l 0,-11.3139 208.8159,61.6912 z"
         style="fill:#2357a0;fill-rule:evenodd"
         id="path52"
         inkscape:connector-curvature="0" />
      <path
         d="m 290.4406,360.8923 -209.2749,-86.2674 0,-23.5966 209.2749,109.864 z"
         style="fill:#2357a0;fill-rule:evenodd"
         id="path54"
         inkscape:connector-curvature="0" />
      <path
         d="M 291.1233,359.8107 81.1657,220.1096 l 0,-29.9239 209.9576,169.625 z"
         style="fill:#2357a0;fill-rule:evenodd"
         id="path56"
         inkscape:connector-curvature="0" />
      <path
         d="m 292.0054,358.8815 -176.6278,-175.9768 29.9578,0 146.67,175.9768 z"
         style="fill:#2357a0;fill-rule:evenodd"
         id="path58"
         inkscape:connector-curvature="0" />
      <path
         d="M 293.0572,358.1393 175.758,182.9047 l 22.147,0 95.1522,175.2346 z"
         style="fill:#2357a0;fill-rule:evenodd"
         id="path60"
         inkscape:connector-curvature="0" />
      <path
         d="m 294.2323,357.6184 -72.3917,-174.7137 18.2735,0 54.1182,174.7137 z"
         style="fill:#2357a0;fill-rule:evenodd"
         id="path62"
         inkscape:connector-curvature="0" />
      <path
         d="m 295.4809,357.3384 -34.7459,-174.4337 16.5058,0 18.2401,174.4337 z"
         style="fill:#2357a0;fill-rule:evenodd"
         id="path64"
         inkscape:connector-curvature="0" />
      <path
         d="m 296.7576,357.3067 -0.1413,-174.402 16.1648,0 -16.0235,174.402 z"
         style="fill:#2357a0;fill-rule:evenodd"
         id="path66"
         inkscape:connector-curvature="0" />
      <path
         d="m 298.0186,357.5248 34.5594,-174.6201 17.1348,0 -51.6942,174.6201 z"
         style="fill:#2357a0;fill-rule:evenodd"
         id="path68"
         inkscape:connector-curvature="0" />
      <path
         d="m 299.2229,357.9897 72.6485,-175.085 19.7845,0 -92.433,175.085 z"
         style="fill:#2357a0;fill-rule:evenodd"
         id="path70"
         inkscape:connector-curvature="0" />
      <path
         d="m 300.2977,358.6711 117.2847,-175.7664 25.0992,0 -142.3839,175.7664 z"
         style="fill:#2357a0;fill-rule:evenodd"
         id="path72"
         inkscape:connector-curvature="0" />
      <path
         d="m 295.8095,370.3382 0.5241,283.4445 c -8.4652,-3.7774 -16.8559,-7.8516 -25.1344,-12.2142 l 24.6103,-271.2303 z"
         style="fill:#2357a0;fill-rule:evenodd"
         id="path74"
         inkscape:connector-curvature="0" />
    </g>
    <g
       id="Layer1002">
      <g
         id="Layer1003">
        <path
           d="m 412.6302,394.7752 c 4.8564,2.8206 6.6984,-1.6846 9.8178,-2.5809 1.3546,-0.3891 3.6304,-0.5478 3.1302,1.5845 -0.3717,1.5842 -1.0013,4.3994 3.4566,4.676 l -5.9257,5.0527 c -1.0448,0.8907 -2.3786,0.4855 -3.2435,-0.499 l -7.2354,-8.2333 z"
           style="fill:#ffffff;fill-rule:evenodd"
           id="path78"
           inkscape:connector-curvature="0" />
        <path
           d="m 405.1454,376.4372 c 1.5175,-2.9112 4.8231,-3.4097 8.6699,-2.9935 -1.289,-3.7008 -4.6156,-5.6997 -9.4184,-3.9923 l 4.8651,-12.1006 c 3.9084,5.5307 9.1686,10.0418 16.4046,12.9107 -4.5122,4.0546 -4.4681,7.4813 -2.0586,9.5439 l 9.1066,7.7961 c 0.3743,-0.998 0.5612,-1.5587 1.1228,-2.5567 -1.996,-1.7048 -3.992,-3.4097 -5.9879,-5.1146 3.3234,1.6438 6.5223,3.4755 9.8453,5.1192 0.5438,0.2687 1.0877,0.5378 1.7562,0.6192 -0.1247,0.4574 -0.2495,0.9148 -0.3742,1.3722 -2.1223,-0.1693 -3.8071,0.0371 -4.9273,1.8717 l 2.1828,1.8707 c -5.1662,0.786 -6.7007,2.8448 -7.8591,5.3007 -0.7921,-4.683 -2.8525,-6.2184 -5.0658,-6.6702 -1.6697,-0.3405 -4.8281,-0.2282 -7.277,4.7502 0.2344,-6.569 0.6156,-10.8481 -5.0362,-12.6558 -0.0398,-0.8552 0.4813,-2.0225 3.5607,-2.1289 -1.1738,-0.9388 -4.0943,-3.3752 -9.5095,-2.942 z"
           style="fill:#ffffff;fill-rule:evenodd"
           id="path80"
           inkscape:connector-curvature="0" />
        <path
           d="m 420.3314,364.548 c -1.6387,-3.5456 -4.6663,-6.1321 -8.802,-7.0085 3.2801,-4.8331 8.315,-1.9555 10.6748,1.3142 -0.5203,0.2296 -1.0405,0.459 -1.5607,0.6883 0.2291,1.8776 0.1455,3.6297 -0.3121,5.006 z"
           style="fill:#ffffff;fill-rule:evenodd"
           id="path82"
           inkscape:connector-curvature="0" />
        <path
           d="m 425.5127,340.2063 c -4.2477,1.812 -7.3262,4.6496 -10.2377,7.6343 7.1999,4.9015 5.2623,-1.3356 6.5547,-3.3167 0.7279,-1.1157 1.852,-2.3776 3.683,-4.3176 z"
           style="fill:#ffffff;fill-rule:evenodd"
           id="path84"
           inkscape:connector-curvature="0" />
        <path
           d="m 428.4468,358.1653 c -1.6023,-1.7729 -3.9922,-3.0726 -4.8069,-5.3187 -0.5812,-1.6032 -0.541,-4.2134 1.0613,-5.319 1.4359,3.379 2.8093,7.0711 4.245,10.4501 2.1017,1.4809 4.2082,2.947 5.0564,5.1935 0.9062,2.3999 0.666,5.6944 2e-4,8.3853 -1.8104,-4.2344 -3.7458,-9.157 -5.556,-13.3912 z"
           style="fill:#ffffff;fill-rule:evenodd"
           id="path86"
           inkscape:connector-curvature="0" />
      </g>
      <g
         id="Layer1004">
        <path
           d="m 414.9227,340.7293 c -11.5539,11.8422 -13.3322,21.7289 -12.1855,33.1416 -2.198,-2.048 -3.4896,-1.1842 -4.1318,-0.3962 -0.939,1.1521 -0.709,3.8084 0.4393,5.2891 3.3214,4.2833 6.895,5.8343 10.6164,9.8784 1.9287,2.0956 1.8231,5.2986 -2.6703,6.076 -4.6136,0.7982 -9.2804,-0.8328 -12.8257,-3.0841 -2.7571,-1.751 -5.3961,-4.321 -8.2291,-5.5766 -2.1637,-0.9586 -5.1395,0.5343 -7.0175,-2.0319 -4.4179,-6.0369 -8.1547,-15.2319 -8.9543,-30.1869 2.156,8.3983 6.5246,18.1354 10.8935,19.3861 1.4222,0.407 2.7244,-0.0163 3.3768,-1.4911 0.7397,-1.6713 0.7431,-4.1495 1.9589,-5.1364 1.3164,-1.0685 2.5474,-0.4147 3.4353,-0.0212 2.0317,0.8999 3.1499,0.4431 3.7908,-2.1648 2.0421,-8.3068 7.1748,-14.7779 21.5032,-23.682 z"
           style="fill:#ffffff;fill-rule:evenodd"
           id="path89"
           inkscape:connector-curvature="0" />
        <path
           d="m 390.5514,365.3776 c 0.6776,-3.0773 2.3388,-6.2466 4.5228,-9.2318 -2.6152,1.0771 -4.7691,2.5228 -6.5544,3.9684 l 0,-6.0914 c -3.1083,-0.6133 -7.0768,1.417 -9.6009,4.4306 -1.1975,-3.5087 0.1691,-7.8345 1.4787,-10.1574 1.9749,-3.5034 0.4872,-5.7147 -1.5996,-5.6819 -1.7993,0.0282 -3.4945,1.7763 -4.033,2.546 -3.7526,5.3646 -2.8548,17.664 6.4624,21.6028 0.6093,0.2575 1.8041,0.0389 1.8925,-0.7697 0.1851,-1.6893 1.0326,-2.4925 2.1336,-2.9026 1.3704,-0.5103 3.3063,0.3433 5.2979,2.287 z"
           style="fill:#ffffff;fill-rule:evenodd"
           id="path91"
           inkscape:connector-curvature="0" />
        <path
           d="m 385.4736,347.5597 c 3.0157,-0.9218 5.7545,-0.9829 8.7706,0.5543 1.4488,-6.3684 5.9677,-13.2919 9.9712,-14.9561 2.417,-1.0046 3.9366,2.1265 4.2453,6.6475 2.7645,-6.7662 -0.0179,-12.1229 -4.154,-11.6318 -5.027,0.5966 -12.6784,10.3423 -18.8331,19.3861 z"
           style="fill:#ffffff;fill-rule:evenodd"
           id="path93"
           inkscape:connector-curvature="0" />
      </g>
      <g
         id="Layer1005">
        <path
           d="m 370.8695,381.1417 c -0.0576,-3.7765 -0.7082,-6.8885 -1.6427,-9.5398 -2.9246,-8.2964 -8.6325,-12.0863 -7.6756,-17.631 0.6206,-3.5958 3.0864,-7.4196 13.473,-12.2127 -8.7796,-0.5091 -22.8076,0.7661 -30.2943,6.232 8.432,0.8018 10.8325,4.5119 11.8124,8.6404 0.8644,3.643 0.5855,7.5935 2.9128,10.4343 3.862,4.7137 7.552,2.6326 11.4144,14.0768 z"
           style="fill:#ffffff;fill-rule:evenodd"
           id="path96"
           inkscape:connector-curvature="0" />
        <path
           d="m 371.0426,390.5753 c -0.6425,-6.0028 -3.0511,-9.3848 -5.5338,-11.5041 -4.4259,-3.7786 -10.1896,-3.5477 -13.5955,-7.0076 -4.3522,-4.4213 -6.1588,-11.4474 -9.828,-16.1438 -1.7919,-2.2933 -4.6346,-4.5517 -7.5691,-4.4656 7.0405,5.4485 3.6323,15.4703 9.0019,21.3771 7.3649,8.1012 21.8413,4.2247 27.5245,17.744 z"
           style="fill:#ffffff;fill-rule:evenodd"
           id="path98"
           inkscape:connector-curvature="0" />
      </g>
      <g
         id="Layer1006">
        <path
           d="m 321.1336,365.4219 c 1.5817,4.2541 7.9461,5.6336 9.5368,9.7218 1.9361,4.9747 -4.3169,7.4796 -0.3267,12.8494 6.3115,8.4942 11.5016,13.7069 17.2527,20.6255 -3.5461,1.0811 -6.9622,2.9399 -8.4318,4.0213 4.2916,1.0809 7.3832,6.7018 5.7077,13.88 2.5098,-2.9375 3.5313,-5.8928 2.7241,-11.6748 4.5833,2.6376 9.2374,-4.0242 5.5779,-9.9884 -3.9544,-6.4453 -7.7536,-10.4332 -13.0388,-14.9693 -2.1809,-1.8721 -2.1834,-4.1639 -0.5788,-6.2001 1.2384,-1.5722 2.5225,-3.7677 -0.2506,-7.0216 -1.8708,-2.1951 -4.1111,-2.5469 -6.2616,-4.4405 -2.1506,-1.8936 -3.6432,-5.6948 -5.6844,-7.7113 -2.8165,-2.7822 -6.5655,-0.6382 -6.2265,0.908 z"
           style="fill:#ffffff;fill-rule:evenodd"
           id="path101"
           inkscape:connector-curvature="0" />
        <path
           d="m 320.3552,367.238 c -4.6728,3.132 -4.3302,9.4322 -2.0897,14.2228 2.057,4.3976 4.6975,7.006 5.9712,14.7128 1.4775,8.9391 0.9977,16.0697 3.5469,21.9025 1.3354,3.0552 3.1363,5.1296 6.4516,7.0169 l 2.2053,-2.7241 c -11.2506,-5.3436 -2.0055,-18.2114 -4.1755,-26.7973 -1.9839,-7.8501 -11.0031,-12.2348 -12.7229,-20.1864 -0.5035,-2.329 -0.4278,-4.8174 0.8131,-8.1472 z"
           style="fill:#ffffff;fill-rule:evenodd"
           id="path103"
           inkscape:connector-curvature="0" />
      </g>
      <g
         id="Layer1007">
        <path
           d="m 342.667,428.8548 c 13.0477,0.9535 29.2224,-13.3335 41.6075,-14.263 6.1899,-0.4647 13.4868,1.7417 19.5391,5.1522 6.0523,3.4104 10.3419,8.1542 13.6307,6.9282 1.0757,-0.4009 1.2895,-1.5284 1.6276,-2.8764 2.2484,0.9946 4.5834,2.9835 6.2266,5.5779 l 4.7996,-6.3562 c -9.1425,-6.2345 -20.8928,-14.6995 -43.975,-16.9933 -0.2163,-4.9728 -2.9835,-9.4262 -7.0048,-13.3612 6.8317,0.1732 13.7934,8.6481 20.4957,4.7997 12.9475,6.8618 26.4872,12.2072 40.4725,15.9555 0.0391,5.4521 1.8565,8.2182 4.9294,10.637 -0.8215,3.4975 -3.027,6.102 -6.6157,6.486 -1.3836,4.6267 -5.7511,6.14 -8.9507,3.243 -11.6147,5.3479 -21.0697,-5.1967 -31.6866,-11.1613 -3.8399,-2.1571 -7.6802,-3.0224 -11.5101,-3.2376 -14.4201,-0.8102 -28.452,13.0368 -43.5858,9.4695 z"
           style="fill:#ffffff;fill-rule:evenodd"
           id="path106"
           inkscape:connector-curvature="0" />
        <path
           d="m 355.639,416.5315 c 2.4864,1.6646 3.4211,1.5745 4.8645,0.5837 1.1021,-0.7564 2.0323,-3.7619 -0.5838,-9.4047 6.2266,-2.2052 23.2199,1.6864 33.0786,4.1511 -5.5111,-0.5657 -10.7534,-0.8907 -14.0529,-0.417 -4.1045,0.5892 -5.2677,1.697 -6.4711,2.6068 -2.9664,2.2428 -5.0593,2.1922 -7.1063,0.0154 -1.6864,5.8808 -6.2266,9.5559 -12.5828,10.3776 l 2.8538,-7.9129 z"
           style="fill:#ffffff;fill-rule:evenodd"
           id="path108"
           inkscape:connector-curvature="0" />
        <path
           d="m 351.7474,391.8847 c 6.5075,3.7511 11.1177,4.6336 15.3876,4.472 2.5619,-0.0968 5.7341,-1.3899 8.2214,-0.3209 1.6613,0.7141 2.078,1.9797 2.1006,2.9342 0.0377,1.5917 -1.4785,2.7838 -3.5275,2.514 -1.9101,-0.2513 -2.9651,-1.9951 -4.7056,-2.6821 -2.5013,-0.9874 -5.0178,1.6337 -9.0165,0.9004 -2.0179,-0.3702 -5.4728,-2.2889 -8.46,-7.8176 z"
           style="fill:#ffffff;fill-rule:evenodd"
           id="path110"
           inkscape:connector-curvature="0" />
        <path
           d="m 367.7029,431.1898 c 3.2008,0.1087 6.961,-6.5208 11.3376,-7.6878 1.9736,-0.5263 3.853,0.9539 5.542,0.7681 1.8005,-0.1979 3.2894,-2.1331 5.6616,-2.3431 3.7743,-0.3342 8.818,2.7874 17.4125,10.4303 -9.5129,0.1729 -17.5596,6.7346 -24.6468,6.7454 -5.7436,0.009 -11.5018,-3.4593 -15.3069,-7.9129 z"
           style="fill:#ffffff;fill-rule:evenodd"
           id="path112"
           inkscape:connector-curvature="0" />
        <path
           d="m 425.9471,405.7647 c 6.071,8.183 12.5105,2.2383 16.3973,6.2589 1.353,1.3993 1.7336,4.3888 2.2597,7.6858 0.5263,3.297 1.1989,6.9022 2.0981,9.0157 3.1354,-4.8001 1.9677,-8.778 -0.7783,-12.1936 7.8695,0.562 8.8171,2.9853 8.6912,8.0426 -0.0687,2.7612 1.3042,4.008 2.6021,4.3537 2.1634,0.5763 4.9425,-0.8289 5.5703,-3.0565 0.6822,-2.4211 0.3982,-6.1179 -1.0177,-9.7918 -1.8111,-4.6993 -4.2215,-7.8259 -6.8684,-8.2313 -3.449,-0.5286 -4.6034,1.6886 -7.1784,1.508 -2.0728,-0.1455 -1.6504,-2.9372 -7.0833,-3.7379 -4.346,-0.6405 -9.7457,2.1331 -14.6926,0.1464 z"
           style="fill:#ffffff;fill-rule:evenodd"
           id="path114"
           inkscape:connector-curvature="0" />
      </g>
      <path
         d="m 326.2069,425.0677 c -1.904,-2.5969 -3.4618,-5.2804 -4.674,-8.5692 -10.3577,-11.8095 -14.3887,-23.5091 -13.8931,-41.5451 -3.2677,3.0479 -7.8528,6.0695 -11.6454,8.5409 -3.4243,2.2315 -6.3427,4.337 -8.0915,6.822 -1.6201,2.3025 -1.8307,4.8017 -1.9519,7.5147 -0.3991,8.8965 1.8091,17.7653 5.1158,26.17 3.7639,9.5669 9.1453,15.2287 12.0278,24.8684 l -0.9001,0.2217 c -1.9892,-4.7564 -8.5184,-13.0153 -12.972,-18.031 2.6075,6.0299 4.1827,11.5846 3.1214,17.986 -0.3819,2.3034 -0.3702,2.3312 -2.5338,2.9637 -0.8712,0.2547 -1.7851,0.4857 -2.7164,0.7074 -1.4724,-12.981 -10.3069,-24.3469 -10.4739,-37.442 -0.0775,-6.0799 0.8068,-9.88 2.5612,-12.9193 1.8104,-3.1359 4.8692,-5.4643 3.5555,-8.6551 -0.713,-1.7315 -2.6757,-2.2488 -4.7894,-1.9729 -2.7178,0.3546 -5.8557,1.8513 -8.7014,1.9729 3.2861,1.2972 6.3129,1.5566 9.5992,1.4269 -4.0055,3.137 -5.5015,4.5895 -6.5811,9.2648 -0.9977,4.3203 0.1869,11.8502 0.3146,17.4091 0.1175,5.1255 -2.0816,9.3274 -1.4107,13.7833 0.3049,2.0253 1.3067,4.4127 3.2069,6.42 3.2258,3.4073 8.7337,7.015 11.6447,10.9631 -1.8147,0.4177 -3.6602,0.8208 -5.3583,1.3119 -3.5458,-4.151 -7.2643,-8.3886 -12.1936,-13.2314 1.4603,4.9725 3.0396,10.3342 4.151,15.3069 -1.7298,0.6052 -3.589,0.8215 -5.3185,1.4269 -2.5786,-5.956 -5.7407,-12.6935 -5.9194,-20.0731 -0.2746,-11.3409 3.8084,-19.2331 6.114,-27.812 1.2755,-4.7454 1.1573,-9.9981 -0.5838,-13.2128 -2.9523,12.0185 -7.9339,24.7518 -10.5457,32.9748 -2.0258,6.3775 -3.7189,10.9952 -0.5873,17.2857 1.9202,3.8574 4.6601,7.6957 5.1659,13.3021 -7.2645,2.3345 -12.0644,7.8261 -13.88,13.3611 3.2905,-3.8201 10.1855,-7.7391 17.641,-8.9786 8.1891,-1.3616 16.7512,-0.1035 28.0355,-3.0127 17.1465,-4.4209 35.9016,-17.378 48.5,-26.6651 -4.6489,0.1514 -6.0322,-1.2753 -7.7832,-3.243 l -4.2807,0.6486 -0.1297,5.8374 -0.9081,-1.427 c -1.8961,0.3237 -4.8405,0.3002 -6.547,-0.5841 -4.3612,-2.2597 -5.1506,-7.4022 -11.3543,-5.2532 2.6376,4.4968 6.2697,8.0426 10.637,11.1559 l -1.2972,2.7241 -15.0084,3.6961 c 0.3598,-2.8256 0.464,-5.74 -0.7399,-9.265 -2.9379,-8.6015 -8.7007,-13.3313 -11.1604,-21.5575 -2.1702,-7.2582 -1.511,-17.2082 2.2491,-24.5547 1.9481,6.4602 4.9341,13.536 8.8277,18.306 -2.2289,-6.2053 -3.9106,-11.9075 -3.4644,-16.6615 0.4189,-4.466 2.5345,-8.4559 5.4129,-11.6422 0.0981,9.0932 0.9885,20.109 4.4098,26.5923 3.7578,7.1213 9.0856,10.4522 16.1036,15.3438 z"
         style="fill:#ffffff;fill-rule:evenodd"
         id="path116"
         inkscape:connector-curvature="0" />
      <g
         id="Layer1008">
        <path
           d="m 253.6303,401.4379 c 3.4498,4.4758 3.0452,9.0474 2.374,12.47 -1.4766,7.5301 -8.3827,14.5867 -9.2851,22.8036 -0.5858,5.3348 3.5015,9.7516 4.3144,16.1404 -10.5005,0.9751 -9.9136,-11.8337 -7.5468,-18.6469 1.1271,-3.245 2.6371,-6.1748 4.2306,-10.051 2.9483,-7.1708 6.1847,-15.6484 5.9129,-22.7161 z"
           style="fill:#ffffff;fill-rule:evenodd"
           id="path119"
           inkscape:connector-curvature="0" />
        <path
           d="m 248.1014,405.1161 c 1.1546,12.137 -13.5905,22.1704 -15.3013,33.15 -1.3232,8.4923 7.9088,14.4594 2.6891,24.3021 -1.1162,2.1047 -2.8087,3.8588 -4.5101,5.5517 -4.3486,4.3271 -10.0637,8.2591 -17.2534,16.6441 l -4.67,0 c 3.7404,-5.7944 10.7455,-13.7939 19.1986,-20.8848 -7.15,-10.7731 -4.6024,-22.979 3.1349,-36.4865 2.9415,-5.135 6.1405,-10.8235 9.9152,-15.8715 1.7537,-2.3451 4.0216,-3.8642 6.797,-6.4051 z"
           style="fill:#ffffff;fill-rule:evenodd"
           id="path121"
           inkscape:connector-curvature="0" />
        <path
           d="m 232.7944,413.029 c -16.6276,21.9378 -17.4149,30.6889 -16.5993,38.9225 0.3001,3.0315 2.0829,7.2659 1.4707,9.9701 -1.4366,6.3466 -6.5183,9.6424 -3.551,17.5239 -3.914,-2.4938 -4.7854,-5.5076 -4.4532,-8.7479 0.3078,-3.0005 0.7345,-4.9506 1.1438,-6.3895 1.1279,-3.9664 1.2328,-6.2686 0.7487,-10.2865 -0.4902,-4.0636 -0.9571,-8.5563 -0.2931,-12.0651 1.7284,-9.1332 9.2966,-20.3228 21.5334,-28.9275 z"
           style="fill:#ffffff;fill-rule:evenodd"
           id="path123"
           inkscape:connector-curvature="0" />
        <path
           d="m 217.3578,484.764 c 9.1507,-4.9402 15.0635,-10.3665 20.7552,-18.031 l 0.1297,2.335 c 4.4276,-2.1825 8.0275,-5.4682 9.3398,-11.8045 2.1621,2.3781 5.1022,3.2432 8.3021,2.8538 -8.6425,5.3707 -14.1585,11.4452 -11.5451,20.4957 -3.0484,-2.0215 -7.502,-1.0918 -14.0097,4.151 l -12.972,0 z"
           style="fill:#ffffff;fill-rule:evenodd"
           id="path125"
           inkscape:connector-curvature="0" />
        <path
           d="m 204.6453,451.2964 c -0.9273,8.3092 -1.6979,11.9493 -0.5462,19.6651 1.23,8.2427 2.9916,9.183 4.0486,13.8025 l -4.6071,0 c -0.9785,-7.9965 -4.6577,-12.9661 -4.5643,-16.4662 0.1548,-5.8004 3.3501,-10.383 5.669,-17.0014 z"
           style="fill:#ffffff;fill-rule:evenodd"
           id="path127"
           inkscape:connector-curvature="0" />
        <path
           d="m 197.4104,484.764 -3.8559,0 c -1.0981,-2.3747 -2.6168,-3.0748 -3.5838,-4.7661 -0.5801,-1.0143 -0.3892,-1.7992 -1.4107,-2.9513 -0.8565,2.9253 -2.1483,5.6394 -3.3727,7.7174 l -1.1028,0 c 1.3006,-4.5655 2.2619,-8.6015 2.6097,-12.7086 1.8783,-22.1826 4.4672,-32.8867 20.9346,-47.8705 -2.9121,-17.2095 -13.0951,-26.8603 -22.4718,-32.1978 -9.8162,-5.5877 -25.8354,-6.4449 -35.4408,-1.7444 -1.2215,0.5975 -2.1643,0.2106 -2.2868,-0.2324 -1.5562,-5.6303 10.3066,-8.7364 18.5694,-9.072 9.0736,-0.3683 18.1492,3.0098 25.9864,7.9168 9.7622,6.1122 17.7476,14.5975 23.0799,21.1687 1.8077,2.2278 1.9991,4.9212 1.2549,7.1563 2.8105,-2.0322 5.7509,-3.9348 8.5615,-5.9671 -6.9189,7.5025 -12.0216,13.9887 -12.7125,19.0688 -6.7011,3.873 -12.3374,8.4656 -15.6965,14.2199 -2.2249,3.8113 -3.342,8.0961 -3.5015,13.1509 3.7573,-5.2157 1.3209,-6.2032 2.776,-8.9468 1.5492,-2.9203 5.4329,-3.2389 6.4336,-8.0465 0.2314,2.7314 -0.1232,5.9678 -4.0866,7.4582 1.5946,1.0832 2.3171,2.5917 2.294,3.9976 -0.0547,3.328 -4.6993,7.1052 -7.3495,11.5369 -2.8988,4.8471 -2.5053,8.8284 -1.6694,12.8355 0.2868,1.3743 0.5964,2.0995 1.4385,2.7666 1.6074,1.2742 4.0954,2.815 4.6028,5.5099 z"
           style="fill:#ffffff;fill-rule:evenodd"
           id="path129"
           inkscape:connector-curvature="0" />
      </g>
    </g>
    <g
       id="Layer1009">
      <path
         d="m 206.2774,279.9167 2.8425,-13.3835 -30.2018,0 2.8425,-13.2651 -18.5951,0 -12.4359,58.5088 18.5949,0 6.751,-31.8602 30.2019,0 z m 17.4105,-32.5707 3.3164,-15.7523 -59.3379,0 -3.3165,15.7523 59.338,0 z"
         style="fill:#ffffff;fill-rule:evenodd"
         id="path132"
         inkscape:connector-curvature="0" />
      <path
         d="m 278.9023,311.7769 3.4347,-16.2262 -36.4791,0 c -1.4608,0 -2.4872,-0.1777 -3.0597,-0.5725 -0.5923,-0.3948 -0.8687,-1.0264 -0.8488,-1.9146 0,-0.296 0.0197,-0.5923 0.0789,-0.908 0.0395,-0.2961 0.0987,-0.6317 0.1579,-0.9872 l 8.4092,-39.0847 c 0.2172,-1.1844 0.5133,-2.0924 0.8884,-2.744 0.3749,-0.671 0.908,-1.125 1.6186,-1.3817 0.7107,-0.2565 1.6976,-0.3948 2.9413,-0.3751 l 36.2424,0 3.3162,-15.9892 -45.1253,0 c -3.3361,0 -6.1194,0.4935 -8.3303,1.52 -2.2109,1.0068 -3.9678,2.5465 -5.2903,4.619 -1.3225,2.0728 -2.3094,4.6783 -2.9609,7.8368 l -11.0149,52.2316 c -0.2368,1.0068 -0.3948,1.9345 -0.4737,2.7833 -0.0788,0.8489 -0.1184,1.6581 -0.1184,2.4281 -0.0197,1.974 0.3749,3.6123 1.1252,4.8954 0.7698,1.3029 1.9738,2.2701 3.6322,2.9018 1.6581,0.6513 3.8294,0.9672 6.4943,0.9672 l 45.3621,0 z"
         style="fill:#ffffff;fill-rule:evenodd"
         id="path134"
         inkscape:connector-curvature="0" />
      <path
         d="m 329.8528,311.7769 43.3487,-80.1832 -17.8843,0 -30.4387,58.509 -4.5007,-58.509 -18.5951,0 7.8171,80.1832 20.253,0 z"
         style="fill:#ffffff;fill-rule:evenodd"
         id="path136"
         inkscape:connector-curvature="0" />
      <path
         d="m 416.6904,311.7769 c 3.3359,0 6.1192,-0.4935 8.3301,-1.5001 2.2109,-1.0068 3.9481,-2.5268 5.2509,-4.5402 1.3029,-2.0136 2.2701,-4.5402 2.8819,-7.5802 l 4.0269,-19.0686 c 0.0593,-0.4145 0.1185,-0.8292 0.158,-1.224 0.0592,-0.4145 0.0789,-0.7896 0.0789,-1.1449 -0.0197,-1.4212 -0.3354,-2.5661 -1.0066,-3.4545 -0.6515,-0.8881 -1.5596,-1.5593 -2.7241,-2.0133 -1.1844,-0.4737 -2.5268,-0.7897 -4.0862,-0.9277 2.7834,-0.2568 5.093,-1.1845 6.8892,-2.7637 1.7964,-1.5792 3.0597,-4.027 3.7702,-7.3039 l 3.198,-15.0416 c 0.1777,-0.8884 0.3158,-1.7173 0.4342,-2.5069 0.0987,-0.7896 0.1579,-1.52 0.1579,-2.2308 0.0199,-2.9609 -0.8881,-5.1915 -2.7437,-6.672 -1.8557,-1.4804 -4.7969,-2.2108 -8.8632,-2.2108 l -51.0472,0 -3.198,15.5155 42.9935,0 c 1.3028,-0.0197 2.2305,0.1579 2.8228,0.5331 0.5725,0.3749 0.8685,1.0264 0.8489,1.9541 0,0.5921 -0.1187,1.3029 -0.3555,2.1318 l -2.0134,9.7121 c -0.1776,0.908 -0.454,1.6187 -0.8292,2.1715 -0.3552,0.5329 -0.8685,0.9078 -1.5397,1.1449 -0.6908,0.2368 -1.5988,0.3553 -2.7241,0.3553 l -25.1091,0 2.7241,-12.9099 -18.0025,0 -12.5546,59.5748 52.2316,0 z m 0,-20.3714 c -0.2567,1.2434 -0.5923,2.2107 -0.9871,2.8819 -0.4145,0.6712 -0.9673,1.1252 -1.6975,1.3819 -0.7107,0.2565 -1.6779,0.3749 -2.882,0.3553 l -25.346,0 4.1454,-19.5425 25.3459,0 c 1.3621,-0.0197 2.349,0.1381 2.9807,0.4936 0.6316,0.3356 0.9279,1.0065 0.9279,1.9937 0,0.2368 -0.0199,0.5329 -0.0791,0.8488 -0.0396,0.3356 -0.0988,0.6909 -0.158,1.0461 l -2.2502,10.5412 z"
         style="fill:#ffffff;fill-rule:evenodd"
         id="path138"
         inkscape:connector-curvature="0" />
    </g>
    <g
       id="Layer1010">
      <path
         d="m 192.5601,524.4452 15.5901,-28.8371 -6.432,0 -10.9471,21.0421 -1.6185,-21.0421 -6.6876,0 2.8114,28.8371 7.2837,0 z"
         style="fill:#ffffff;fill-rule:evenodd"
         id="path141"
         inkscape:connector-curvature="0" />
      <path
         d="m 210.9057,524.4452 4.5578,-21.5532 -5.9635,0 -4.5575,21.5532 5.9632,0 z m 5.154,-24.1089 1.3632,-6.4745 -6.006,0 -1.3629,6.4745 6.0057,0 z"
         style="fill:#ffffff;fill-rule:evenodd"
         id="path143"
         inkscape:connector-curvature="0" />
      <path
         d="m 221.3712,524.4452 6.4745,-30.5834 -5.9633,0 -6.4745,30.5834 5.9633,0 z"
         style="fill:#ffffff;fill-rule:evenodd"
         id="path145"
         inkscape:connector-curvature="0" />
      <path
         d="m 232.1608,524.4452 6.4744,-30.5834 -5.9632,0 -6.4745,30.5834 5.9633,0 z"
         style="fill:#ffffff;fill-rule:evenodd"
         id="path147"
         inkscape:connector-curvature="0" />
      <path
         d="m 257.6624,524.4452 1.0222,-4.8984 -14.525,0 c -0.355,0.007 -0.6104,-0.0355 -0.7596,-0.1279 -0.1491,-0.0922 -0.2271,-0.2626 -0.2201,-0.5112 0,-0.085 0.007,-0.1774 0.0285,-0.2839 0.014,-0.1064 0.0355,-0.2271 0.0567,-0.355 l 2.0021,-9.2858 c 0.0637,-0.3123 0.1489,-0.5537 0.2414,-0.7241 0.0922,-0.1774 0.2341,-0.2981 0.4117,-0.369 0.1774,-0.071 0.433,-0.1065 0.7523,-0.0995 l 8.5618,0 c 0.3338,0 0.5679,0.0425 0.7028,0.1349 0.1349,0.0995 0.1989,0.2484 0.1917,0.4615 0,0.0852 0,0.1704 -0.007,0.2626 0,0.0852 -0.0142,0.1847 -0.0354,0.2911 l -0.6389,2.8965 -8.6897,0 -0.724,3.578 14.3546,0 1.7891,-8.4766 c 0.0638,-0.2981 0.1065,-0.5749 0.1347,-0.8375 0.0215,-0.2556 0.0355,-0.5042 0.0355,-0.7383 0.007,-0.8308 -0.2199,-1.4484 -0.6956,-1.8602 -0.4757,-0.4045 -1.2495,-0.6104 -2.3286,-0.6104 l -14.5675,0 c -1.0294,0 -1.8742,0.149 -2.5415,0.4473 -0.6674,0.3051 -1.1928,0.7665 -1.5761,1.3914 -0.3833,0.6176 -0.6743,1.4127 -0.866,2.3781 l -2.7688,13.1193 c -0.0638,0.3196 -0.1135,0.6177 -0.1562,0.8945 -0.0355,0.2771 -0.0567,0.5325 -0.0567,0.7668 -0.007,0.8732 0.2556,1.5121 0.795,1.9311 0.5397,0.4188 1.4057,0.6247 2.6125,0.6247 l 17.4642,0 z"
         style="fill:#ffffff;fill-rule:evenodd"
         id="path149"
         inkscape:connector-curvature="0" />
      <path
         d="m 268.3277,524.4452 3.5779,-16.8677 5.3244,0 0.9797,-4.6855 -5.3244,0 0.6816,-3.2798 c 0.0782,-0.4048 0.2201,-0.6888 0.4187,-0.859 0.1919,-0.1704 0.483,-0.2556 0.859,-0.2486 l 4.4727,0 0.9796,-4.6428 -7.4116,0 c -0.9227,-0.007 -1.7108,0.149 -2.3781,0.4755 -0.6604,0.3266 -1.2141,0.852 -1.6613,1.5761 -0.4472,0.7241 -0.8023,1.6897 -1.0719,2.8893 l -5.4098,25.6425 5.9635,0 z"
         style="fill:#ffffff;fill-rule:evenodd"
         id="path151"
         inkscape:connector-curvature="0" />
      <path
         d="m 282.5711,524.4452 3.1946,-15.2066 c 0.0995,-0.4615 0.2626,-0.7738 0.4828,-0.9512 0.2271,-0.1704 0.5466,-0.2486 0.9654,-0.2414 l 8.6042,0 1.1076,-5.154 -6.2616,0 c -0.9299,-0.007 -1.7322,0.1844 -2.4136,0.5607 -0.6746,0.3835 -1.278,0.9727 -1.8032,1.782 l 0.511,-2.3427 -5.7929,0 -4.5576,21.5532 5.9633,0 z"
         style="fill:#ffffff;fill-rule:evenodd"
         id="path153"
         inkscape:connector-curvature="0" />
      <path
         d="m 317.6268,524.4452 3.6634,-17.3364 c 0.0639,-0.3193 0.1134,-0.6176 0.1561,-0.8945 0.0355,-0.2768 0.0568,-0.5324 0.0568,-0.7667 0.007,-0.582 -0.1065,-1.0649 -0.3336,-1.441 -0.2271,-0.3763 -0.5892,-0.6533 -1.0934,-0.8377 -0.4969,-0.1847 -1.1643,-0.2769 -1.9806,-0.2769 l -17.6344,0 -0.9797,4.6855 14.6102,0 c 0.3761,0 0.6459,0.0638 0.8021,0.1844 0.1491,0.128 0.2273,0.3054 0.2201,0.5397 0,0.0637 0,0.1349 -0.007,0.2201 0,0.078 -0.0142,0.1632 -0.0355,0.2484 l -2.2577,10.5636 -9.9671,0 c -0.2911,0.007 -0.5042,-0.0355 -0.6249,-0.1135 -0.1277,-0.0852 -0.1846,-0.2273 -0.1846,-0.4402 0,-0.0852 0.007,-0.1704 0.0284,-0.2626 0.0143,-0.0995 0.0355,-0.2059 0.0568,-0.3338 l 0.4687,-2.2575 c 0.0779,-0.4402 0.1986,-0.7313 0.3763,-0.8874 0.1774,-0.1562 0.4612,-0.2271 0.8589,-0.2201 l 7.8375,0 0.7668,-3.6632 -10.9471,0 c -0.9015,-0.007 -1.6398,0.1065 -2.2077,0.3551 -0.5752,0.2413 -1.0294,0.6601 -1.3775,1.2635 -0.3405,0.6034 -0.6246,1.4412 -0.8447,2.5133 l -1.0649,5.1112 c -0.064,0.2984 -0.1134,0.5822 -0.1562,0.852 -0.0354,0.2699 -0.0567,0.5112 -0.0567,0.7241 -0.007,0.8305 0.2341,1.4482 0.7171,1.8599 0.4897,0.4048 1.2707,0.6107 2.3496,0.6107 l 18.7845,0 z"
         style="fill:#ffffff;fill-rule:evenodd"
         id="path155"
         inkscape:connector-curvature="0" />
      <path
         d="m 344.6915,524.4452 3.6633,-17.3364 c 0.0637,-0.2981 0.1064,-0.5821 0.1347,-0.859 0.0215,-0.2698 0.0355,-0.5252 0.0355,-0.7595 0.007,-0.93 -0.2626,-1.5973 -0.7951,-2.0021 -0.5394,-0.4045 -1.3842,-0.6034 -2.5272,-0.5962 l -9.6691,0 c -0.9087,-0.007 -1.711,0.1844 -2.3926,0.5607 -0.6886,0.3835 -1.299,0.9727 -1.8244,1.782 l 0.5111,-2.3427 -5.7503,0 -4.5576,21.5532 5.9632,0 3.1947,-15.2066 c 0.0994,-0.4615 0.2556,-0.7738 0.4614,-0.9512 0.2129,-0.1704 0.5253,-0.2486 0.9442,-0.2414 l 8.9023,0 c 0.3621,-0.007 0.6319,0.0425 0.8023,0.1489 0.1774,0.0995 0.2626,0.2771 0.2626,0.5327 0,0.0637 -0.007,0.1347 -0.0282,0.2199 -0.0143,0.0852 -0.0355,0.1846 -0.057,0.2911 l -3.1946,15.2066 5.9208,0 z"
         style="fill:#ffffff;fill-rule:evenodd"
         id="path157"
         inkscape:connector-curvature="0" />
      <path
         d="m 368.1059,524.4452 1.1073,-5.3671 -12.1396,0 c -0.3548,0 -0.6104,-0.0425 -0.7596,-0.142 -0.1491,-0.0994 -0.2271,-0.2626 -0.2201,-0.4969 0,-0.0852 0.007,-0.1704 0.0285,-0.2626 0.0142,-0.0852 0.0355,-0.1847 0.0567,-0.2911 l 1.8317,-8.6042 c 0.0639,-0.3123 0.1491,-0.5467 0.2484,-0.7171 0.0994,-0.1634 0.2415,-0.2841 0.4259,-0.3408 0.1777,-0.0639 0.426,-0.0994 0.7314,-0.0922 l 12.1396,0 1.1074,-5.2392 -15.2064,0 c -1.0152,0 -1.8529,0.149 -2.5133,0.4473 -0.6601,0.3051 -1.1783,0.7665 -1.5618,1.3914 -0.3833,0.6176 -0.6744,1.4127 -0.866,2.3781 l -2.7686,13.1193 c -0.064,0.3196 -0.1137,0.6177 -0.1562,0.8945 -0.0355,0.2771 -0.0569,0.5325 -0.0569,0.7668 -0.007,0.8732 0.2556,1.5121 0.788,1.9311 0.5324,0.4188 1.3914,0.6247 2.577,0.6247 l 15.2066,0 z"
         style="fill:#ffffff;fill-rule:evenodd"
         id="path159"
         inkscape:connector-curvature="0" />
      <path
         d="m 394.8724,524.4452 3.6631,-17.3364 c 0.064,-0.2981 0.1065,-0.5821 0.1349,-0.859 0.0213,-0.2698 0.0355,-0.5252 0.0355,-0.7595 0.007,-0.93 -0.2626,-1.5973 -0.795,-2.0021 -0.5397,-0.4045 -1.3844,-0.6034 -2.5275,-0.5962 l -9.456,0 c -0.9087,-0.007 -1.704,0.1844 -2.3783,0.5607 -0.6816,0.3835 -1.292,0.9727 -1.8387,1.782 l 2.4278,-11.3729 -5.9632,0 -6.4745,30.5834 5.9633,0 3.1946,-15.2066 c 0.0994,-0.4615 0.2556,-0.7738 0.4615,-0.9512 0.2131,-0.1704 0.5254,-0.2486 0.9442,-0.2414 l 8.9025,0 c 0.362,-0.007 0.6319,0.0425 0.8023,0.1489 0.1774,0.0995 0.2626,0.2771 0.2626,0.5327 0,0.0637 -0.007,0.1347 -0.0285,0.2199 -0.0142,0.0852 -0.0355,0.1846 -0.0567,0.2911 l -3.1947,15.2066 5.9208,0 z"
         style="fill:#ffffff;fill-rule:evenodd"
         id="path161"
         inkscape:connector-curvature="0" />
      <path
         d="m 420.3314,524.4452 1.0221,-4.8984 -14.5249,0 c -0.3551,0.007 -0.6105,-0.0355 -0.7596,-0.1279 -0.1492,-0.0922 -0.2271,-0.2626 -0.2201,-0.5112 0,-0.085 0.007,-0.1774 0.0285,-0.2839 0.014,-0.1064 0.0354,-0.2271 0.0567,-0.355 l 2.002,-9.2858 c 0.0638,-0.3123 0.149,-0.5537 0.2414,-0.7241 0.0922,-0.1774 0.2341,-0.2981 0.4118,-0.369 0.1774,-0.071 0.433,-0.1065 0.7523,-0.0995 l 8.5617,0 c 0.3338,0 0.5679,0.0425 0.7029,0.1349 0.1349,0.0995 0.1988,0.2484 0.1916,0.4615 0,0.0852 0,0.1704 -0.007,0.2626 0,0.0852 -0.0143,0.1847 -0.0355,0.2911 l -0.6389,2.8965 -8.6896,0 -0.7241,3.578 14.3546,0 1.7892,-8.4766 c 0.0637,-0.2981 0.1064,-0.5749 0.1347,-0.8375 0.0214,-0.2556 0.0355,-0.5042 0.0355,-0.7383 0.007,-0.8308 -0.2199,-1.4484 -0.6957,-1.8602 -0.4757,-0.4045 -1.2495,-0.6104 -2.3286,-0.6104 l -14.5675,0 c -1.0293,0 -1.8741,0.149 -2.5415,0.4473 -0.6673,0.3051 -1.1928,0.7665 -1.576,1.3914 -0.3833,0.6176 -0.6744,1.4127 -0.866,2.3781 l -2.7689,13.1193 c -0.0637,0.3196 -0.1134,0.6177 -0.1562,0.8945 -0.0354,0.2771 -0.0567,0.5325 -0.0567,0.7668 -0.007,0.8732 0.2556,1.5121 0.7951,1.9311 0.5396,0.4188 1.4056,0.6247 2.6124,0.6247 l 17.4643,0 z"
         style="fill:#ffffff;fill-rule:evenodd"
         id="path163"
         inkscape:connector-curvature="0" />
      <path
         d="m 211.0189,564.6535 c 1.1998,0 2.2008,-0.1774 2.996,-0.5394 0.7951,-0.3623 1.4197,-0.9087 1.8884,-1.633 0.4685,-0.7241 0.8163,-1.6328 1.0364,-2.726 l 1.4482,-6.8579 c 0.0214,-0.149 0.0427,-0.2981 0.0569,-0.44 0.0213,-0.1492 0.0283,-0.2841 0.0283,-0.4118 -0.007,-0.5112 -0.1207,-0.9229 -0.3621,-1.2425 -0.2343,-0.3193 -0.5609,-0.5607 -0.9796,-0.7241 -0.426,-0.1704 -0.9088,-0.2838 -1.4697,-0.3335 1.0012,-0.0925 1.8317,-0.426 2.4778,-0.994 0.6459,-0.5679 1.1004,-1.4483 1.356,-2.6267 l 1.15,-5.4096 c 0.0638,-0.3195 0.1135,-0.6176 0.1562,-0.9017 0.0355,-0.2838 0.0567,-0.5466 0.0567,-0.8022 0.007,-1.0649 -0.3193,-1.867 -0.9867,-2.3994 -0.6673,-0.5324 -1.7252,-0.7953 -3.1876,-0.7953 l -18.3585,0 -1.1501,5.58 15.462,0 c 0.4687,-0.007 0.8023,0.057 1.0152,0.1919 0.2058,0.1347 0.3125,0.369 0.3053,0.7026 0,0.2131 -0.0425,0.4687 -0.1277,0.7668 l -0.7241,3.4929 c -0.0639,0.3266 -0.1634,0.582 -0.2983,0.7808 -0.1277,0.1917 -0.3123,0.3266 -0.5537,0.4118 -0.2483,0.0852 -0.5749,0.1277 -0.9797,0.1277 l -9.0302,0 0.9797,-4.6428 -6.4745,0 -4.5151,21.4254 18.7845,0 z m 0,-7.3264 c -0.0922,0.4472 -0.2128,0.7952 -0.355,1.0366 -0.1489,0.2414 -0.3478,0.4045 -0.6104,0.497 -0.2556,0.0922 -0.6034,0.1347 -1.0366,0.1276 l -9.1152,0 1.4906,-7.0281 9.1154,0 c 0.49,-0.007 0.8448,0.0497 1.0722,0.1774 0.2271,0.1207 0.3335,0.362 0.3335,0.7171 0,0.0852 -0.007,0.1916 -0.0282,0.3053 -0.0143,0.1207 -0.0357,0.2484 -0.057,0.3761 l -0.8093,3.791 z"
         style="fill:#ffffff;fill-rule:evenodd"
         id="path165"
         inkscape:connector-curvature="0" />
      <path
         d="m 241.3338,564.6535 1.0222,-4.8984 -14.525,0 c -0.3551,0.007 -0.6104,-0.0354 -0.7596,-0.1279 -0.1491,-0.0922 -0.2271,-0.2626 -0.2201,-0.5112 0,-0.0849 0.007,-0.1774 0.0285,-0.2838 0.014,-0.1065 0.0355,-0.2271 0.0567,-0.355 l 2.0021,-9.2859 c 0.0637,-0.3123 0.1489,-0.5536 0.2413,-0.724 0.0922,-0.1774 0.2342,-0.2981 0.4118,-0.3691 0.1774,-0.0709 0.433,-0.1064 0.7523,-0.0994 l 8.5617,0 c 0.3338,0 0.568,0.0425 0.7029,0.1349 0.1349,0.0994 0.1988,0.2484 0.1916,0.4615 0,0.0852 0,0.1704 -0.007,0.2626 0,0.0852 -0.0142,0.1846 -0.0355,0.2911 l -0.6389,2.8965 -8.6896,0 -0.7241,3.5779 14.3546,0 1.7892,-8.4765 c 0.0637,-0.2981 0.1064,-0.5749 0.1347,-0.8375 0.0215,-0.2556 0.0355,-0.5042 0.0355,-0.7384 0.007,-0.8307 -0.2199,-1.4483 -0.6956,-1.8601 -0.4757,-0.4045 -1.2495,-0.6104 -2.3287,-0.6104 l -14.5674,0 c -1.0294,0 -1.8742,0.1489 -2.5415,0.4472 -0.6674,0.3051 -1.1928,0.7666 -1.5761,1.3915 -0.3833,0.6176 -0.6744,1.4126 -0.866,2.3781 l -2.7689,13.1193 c -0.0637,0.3196 -0.1134,0.6176 -0.1561,0.8945 -0.0355,0.2771 -0.0568,0.5324 -0.0568,0.7668 -0.007,0.8732 0.2556,1.5121 0.7951,1.9311 0.5396,0.4187 1.4057,0.6246 2.6125,0.6246 l 17.4642,0 z"
         style="fill:#ffffff;fill-rule:evenodd"
         id="path167"
         inkscape:connector-curvature="0" />
      <path
         d="m 268.4407,564.6535 3.6633,-17.3363 c 0.064,-0.3193 0.1135,-0.6176 0.1562,-0.8945 0.0355,-0.2768 0.0567,-0.5324 0.0567,-0.7668 0.007,-0.5819 -0.1064,-1.0649 -0.3335,-1.4409 -0.2272,-0.3763 -0.5892,-0.6534 -1.0934,-0.8378 -0.497,-0.1846 -1.1643,-0.2768 -1.9806,-0.2768 l -17.6344,0 -0.9797,4.6855 14.6102,0 c 0.376,0 0.6459,0.0637 0.802,0.1844 0.1492,0.1279 0.2274,0.3053 0.2202,0.5397 0,0.0637 0,0.1349 -0.007,0.2201 0,0.078 -0.0143,0.1632 -0.0355,0.2484 l -2.2577,10.5635 -9.9672,0 c -0.291,0.007 -0.5042,-0.0355 -0.6248,-0.1134 -0.1277,-0.0852 -0.1847,-0.2274 -0.1847,-0.4403 0,-0.0852 0.007,-0.1704 0.0285,-0.2626 0.0142,-0.0994 0.0355,-0.2058 0.0567,-0.3337 l 0.4687,-2.2575 c 0.078,-0.4402 0.1987,-0.7313 0.3763,-0.8875 0.1774,-0.1561 0.4613,-0.2271 0.859,-0.2201 l 7.8374,0 0.7668,-3.6631 -10.9471,0 c -0.9014,-0.007 -1.6398,0.1065 -2.2077,0.355 -0.5751,0.2414 -1.0294,0.6602 -1.3774,1.2636 -0.3406,0.6034 -0.6246,1.4411 -0.8448,2.5132 l -1.0648,5.1113 c -0.064,0.2983 -0.1135,0.5822 -0.1562,0.852 -0.0355,0.2698 -0.0567,0.5112 -0.0567,0.7241 -0.007,0.8305 0.2341,1.4481 0.7171,1.8599 0.4897,0.4047 1.2707,0.6106 2.3496,0.6106 l 18.7845,0 z"
         style="fill:#ffffff;fill-rule:evenodd"
         id="path169"
         inkscape:connector-curvature="0" />
      <path
         d="m 295.2072,564.6535 4.5576,-21.5531 -5.9632,0 -3.2374,15.2064 c -0.0992,0.4614 -0.2553,0.788 -0.4685,0.9726 -0.2128,0.1847 -0.5394,0.2699 -0.9796,0.2626 l -8.5618,0 c -0.362,0.007 -0.6176,-0.0425 -0.7808,-0.1489 -0.1634,-0.0994 -0.2413,-0.2771 -0.2413,-0.5324 0,-0.064 0.007,-0.1492 0.0282,-0.2414 0.0143,-0.0994 0.0357,-0.2059 0.057,-0.3125 l 3.2371,-15.2064 -5.9633,0 -3.6631,17.3361 c -0.0639,0.2983 -0.1137,0.5822 -0.1561,0.859 -0.0357,0.2698 -0.057,0.5254 -0.057,0.7598 0,0.93 0.2769,1.5973 0.8378,2.0018 0.5536,0.4048 1.3984,0.6034 2.5272,0.5964 l 9.371,0 c 0.9088,0.007 1.7038,-0.1774 2.3784,-0.5466 0.6743,-0.3621 1.2707,-0.9513 1.7959,-1.7535 l -0.4684,2.3001 5.7503,0 z"
         style="fill:#ffffff;fill-rule:evenodd"
         id="path171"
         inkscape:connector-curvature="0" />
      <path
         d="m 300.2335,573.6837 c 1.0152,0 1.8457,-0.1491 2.4988,-0.4472 0.6532,-0.3053 1.1786,-0.7668 1.5619,-1.3914 0.3835,-0.6177 0.6746,-1.4127 0.8804,-2.3784 l 5.6225,-26.3663 -5.9633,0 -5.1542,24.3218 c -0.0779,0.3975 -0.2128,0.6886 -0.4115,0.859 -0.1989,0.1704 -0.5112,0.2556 -0.9514,0.2486 l -4.8559,0 -1.1074,5.1539 7.8801,0 z m 11.1173,-33.1391 1.3632,-6.4744 -6.006,0 -1.3632,6.4744 6.006,0 z"
         style="fill:#ffffff;fill-rule:evenodd"
         id="path173"
         inkscape:connector-curvature="0" />
      <path
         d="m 328.9036,564.6535 c 1.0294,0 1.8742,-0.1491 2.5343,-0.4472 0.6604,-0.3053 1.1786,-0.7668 1.5618,-1.3914 0.3906,-0.6177 0.6816,-1.4127 0.8875,-2.3784 l 2.7687,-13.1193 c 0.0639,-0.3193 0.1136,-0.6176 0.1561,-0.8945 0.0355,-0.2768 0.057,-0.5324 0.057,-0.7668 0.007,-0.5819 -0.1067,-1.0649 -0.3338,-1.4409 -0.2272,-0.3763 -0.5892,-0.6534 -1.0932,-0.8378 -0.4969,-0.1846 -1.1643,-0.2768 -1.9808,-0.2768 l -14.6527,0 c -1.0151,0 -1.8529,0.1489 -2.5132,0.4472 -0.6601,0.3051 -1.1783,0.7666 -1.5619,1.3915 -0.3832,0.6176 -0.6743,1.4126 -0.866,2.3781 l -2.7686,13.1193 c -0.0639,0.3196 -0.1137,0.6176 -0.1561,0.8945 -0.0355,0.2771 -0.057,0.5324 -0.057,0.7668 -0.007,0.8732 0.2556,1.5121 0.788,1.9311 0.5325,0.4187 1.3915,0.6246 2.577,0.6246 l 14.6529,0 z m -0.5112,-6.4319 c -0.0782,0.4189 -0.2343,0.717 -0.4684,0.8944 -0.2344,0.1777 -0.6034,0.2629 -1.1076,0.2556 l -8.4339,0 c -0.3337,0 -0.5751,-0.0425 -0.724,-0.1349 -0.1422,-0.0992 -0.2131,-0.2484 -0.2131,-0.4612 0,-0.0852 0.007,-0.1704 0.0284,-0.2629 0.0143,-0.0852 0.0355,-0.1844 0.0568,-0.291 l 1.8316,-8.7747 c 0.0782,-0.4614 0.2129,-0.7738 0.4118,-0.9512 0.1989,-0.1704 0.5112,-0.2486 0.9512,-0.2413 l 8.434,0 c 0.4046,-0.007 0.6956,0.0425 0.8803,0.1489 0.1846,0.0994 0.2698,0.2771 0.2698,0.5327 0,0.0637 -0.007,0.1347 -0.0285,0.2199 -0.0142,0.0852 -0.0355,0.1846 -0.0567,0.291 l -1.8317,8.7747 z"
         style="fill:#ffffff;fill-rule:evenodd"
         id="path175"
         inkscape:connector-curvature="0" />
      <path
         d="m 343.1172,564.6535 6.4745,-30.5833 -5.9633,0 -6.4745,30.5833 5.9633,0 z"
         style="fill:#ffffff;fill-rule:evenodd"
         id="path177"
         inkscape:connector-curvature="0" />
      <path
         d="m 370.0799,564.6535 3.6634,-17.3363 c 0.0639,-0.3193 0.1134,-0.6176 0.1561,-0.8945 0.0355,-0.2768 0.0567,-0.5324 0.0567,-0.7668 0.007,-0.5819 -0.1064,-1.0649 -0.3335,-1.4409 -0.2272,-0.3763 -0.5892,-0.6534 -1.0934,-0.8378 -0.4969,-0.1846 -1.1643,-0.2768 -1.9806,-0.2768 l -17.6344,0 -0.9797,4.6855 14.6102,0 c 0.3761,0 0.6459,0.0637 0.8021,0.1844 0.1491,0.1279 0.2273,0.3053 0.2201,0.5397 0,0.0637 0,0.1349 -0.007,0.2201 0,0.078 -0.0143,0.1632 -0.0355,0.2484 l -2.2577,10.5635 -9.9671,0 c -0.2911,0.007 -0.5042,-0.0355 -0.6249,-0.1134 -0.1277,-0.0852 -0.1847,-0.2274 -0.1847,-0.4403 0,-0.0852 0.007,-0.1704 0.0285,-0.2626 0.0143,-0.0994 0.0355,-0.2058 0.0567,-0.3337 l 0.4688,-2.2575 c 0.0779,-0.4402 0.1986,-0.7313 0.3762,-0.8875 0.1774,-0.1561 0.4613,-0.2271 0.859,-0.2201 l 7.8375,0 0.7667,-3.6631 -10.947,0 c -0.9015,-0.007 -1.6398,0.1065 -2.2078,0.355 -0.5751,0.2414 -1.0294,0.6602 -1.3774,1.2636 -0.3405,0.6034 -0.6246,1.4411 -0.8447,2.5132 l -1.0649,5.1113 c -0.064,0.2983 -0.1135,0.5822 -0.1562,0.852 -0.0355,0.2698 -0.0567,0.5112 -0.0567,0.7241 -0.007,0.8305 0.2341,1.4481 0.7171,1.8599 0.4897,0.4047 1.2707,0.6106 2.3496,0.6106 l 18.7845,0 z"
         style="fill:#ffffff;fill-rule:evenodd"
         id="path179"
         inkscape:connector-curvature="0" />
      <path
         d="m 380.375,564.6535 4.5578,-21.5531 -5.9635,0 -4.5576,21.5531 5.9633,0 z m 5.154,-24.1089 1.3632,-6.4744 -6.006,0 -1.363,6.4744 6.0058,0 z"
         style="fill:#ffffff;fill-rule:evenodd"
         id="path181"
         inkscape:connector-curvature="0" />
      <path
         d="m 402.7672,564.6535 c 0.9867,0 1.8032,-0.1349 2.4493,-0.4047 0.6459,-0.2696 1.1571,-0.6814 1.5334,-1.2353 0.3763,-0.5537 0.6531,-1.2565 0.8305,-2.1083 l 1.278,-5.9635 c 0.0213,-0.1489 0.0425,-0.2981 0.0567,-0.44 0.0213,-0.1491 0.0285,-0.2841 0.0285,-0.4117 0.007,-0.6674 -0.2201,-1.1928 -0.6673,-1.5831 -0.4545,-0.3835 -1.1714,-0.5822 -2.144,-0.5894 l -11.6712,0 c -0.3193,0 -0.5467,-0.0567 -0.6886,-0.1632 -0.1419,-0.1136 -0.2059,-0.284 -0.2059,-0.5184 0,-0.0637 0,-0.1277 0.007,-0.1916 0,-0.0638 0.014,-0.1277 0.0354,-0.1917 l 0.3833,-1.7889 c 0.078,-0.4188 0.2201,-0.7171 0.433,-0.8945 0.2059,-0.1774 0.5325,-0.2626 0.9727,-0.2556 l 14.6954,0 1.0222,-4.8132 -17.8049,0 c -0.9866,0 -1.8032,0.1347 -2.449,0.4045 -0.6462,0.2699 -1.1501,0.6816 -1.5194,1.2353 -0.369,0.5537 -0.6389,1.2565 -0.8023,2.1085 l -1.1925,5.7504 c -0.0427,0.1704 -0.071,0.3336 -0.0925,0.4827 -0.0212,0.1562 -0.0354,0.3053 -0.0354,0.4543 -0.007,0.6673 0.2201,1.1857 0.6673,1.5618 0.4473,0.3693 1.1501,0.5609 2.1015,0.5681 l 11.5433,0 c 0.3123,0 0.5394,0.0425 0.6673,0.1347 0.1277,0.0852 0.1917,0.2274 0.1847,0.419 0,0.0425 0,0.0922 -0.007,0.1562 0,0.0567 -0.0142,0.1207 -0.0355,0.1846 l -0.4684,2.1298 c -0.0498,0.2696 -0.1207,0.4755 -0.2059,0.6246 -0.0852,0.1492 -0.2131,0.2556 -0.3833,0.3123 -0.1634,0.057 -0.3977,0.0852 -0.6888,0.0852 l -14.7804,0 -1.0224,4.9411 17.9752,0 z"
         style="fill:#ffffff;fill-rule:evenodd"
         id="path183"
         inkscape:connector-curvature="0" />
    </g>
    <path
       d="m 472.5092,249.3427 c 9.0239,0 16.342,7.318 16.342,16.3419 0,9.0239 -7.3181,16.342 -16.342,16.342 -9.0239,0 -16.342,-7.3181 -16.342,-16.342 0,-9.0239 7.3181,-16.3419 16.342,-16.3419 z m 0.294,15.2212 -4.1632,5.2593 -5.2265,-0.6716 -2.4168,-5.8833 3.3368,-5.1843 6.4102,0.4988 2.0595,5.9811 z m -0.294,-14.3173 c 4.1924,0 7.9945,1.673 10.7767,4.3865 l -1.9594,0.9976 -6.4396,-2.1185 -3.2112,-2.5754 0.281,-0.6793 c 0.1835,-0.007 0.3674,-0.0109 0.5525,-0.0109 z m 15.3806,14.1103 c 0.0373,0.4378 0.0574,0.8805 0.0574,1.3277 0,1.1969 -0.1365,2.3619 -0.3944,3.4805 l 0.3045,-4.7698 0.0325,-0.0384 z m -7.4668,14.584 c -1.7173,1.0274 -3.6504,1.7306 -5.7156,2.0251 l -3.0952,-2.0253 1.5944,-3.2252 7.0663,-2.0746 2.1574,1.5519 -2.0073,3.7481 z m -15.7311,0.0572 c -2.8502,-1.6776 -5.1151,-4.2439 -6.4125,-7.3179 l 2.2847,2.2902 4.1337,4.8781 -0.006,0.1496 z m -7.4966,-15.2794 c 0.5796,-4.5583 3.1483,-8.4959 6.8078,-10.9172 l 0.3778,0.2612 -0.4804,4.4417 -3.6464,5.6649 -3.0588,0.5494 z m 7.4324,-11.3096 c 1.9553,-1.1636 4.1888,-1.9071 6.5768,-2.1071 l -0.1905,0.461 -6.0168,1.9017 -0.3695,-0.2556 z m 6.3287,26.3275 1.6009,-3.2378 -4.0027,-5.0028 -5.2338,-0.6728 -2.0882,3.8878 3.9831,4.6999 5.7407,0.3257 z m 9.7245,-5.6376 2.1394,1.539 3.9425,-3.7325 0.4104,-6.4338 -2.9919,-2.0687 -3.5009,3.8475 5e-4,6.8485 z m -0.3722,-7.4474 3.452,-3.7937 -2.6812,-5.5947 -5.6306,-1.8524 -4.0751,3.9189 2.0547,5.9673 6.8802,1.3546 z"
       style="fill:#ffffff;fill-rule:evenodd"
       id="path185"
       inkscape:connector-curvature="0" />
    <path
       d="m 127.4187,249.3427 c -9.0239,0 -16.342,7.318 -16.342,16.3419 0,9.0239 7.3181,16.342 16.342,16.342 9.0238,0 16.3419,-7.3181 16.3419,-16.342 0,-9.0239 -7.3181,-16.3419 -16.3419,-16.3419 z m -0.294,15.2212 4.1632,5.2593 5.2265,-0.6716 2.4168,-5.8833 -3.3368,-5.1843 -6.4103,0.4988 -2.0594,5.9811 z m 0.294,-14.3173 c -4.1924,0 -7.9945,1.673 -10.7767,4.3865 l 1.9593,0.9976 6.4397,-2.1185 3.2111,-2.5754 -0.2809,-0.6793 c -0.1835,-0.007 -0.3674,-0.0109 -0.5525,-0.0109 z m -15.3806,14.1103 c -0.0373,0.4378 -0.0574,0.8805 -0.0574,1.3277 0,1.1969 0.1365,2.3619 0.3943,3.4805 l -0.3044,-4.7698 -0.0325,-0.0384 z m 7.4668,14.584 c 1.7173,1.0274 3.6504,1.7306 5.7155,2.0251 l 3.0952,-2.0253 -1.5943,-3.2252 -7.0664,-2.0746 -2.1573,1.5519 2.0073,3.7481 z m 15.7311,0.0572 c 2.8502,-1.6776 5.1151,-4.2439 6.4125,-7.3179 l -2.2848,2.2902 -4.1336,4.8781 0.006,0.1496 z m 7.4966,-15.2794 c -0.5797,-4.5583 -3.1483,-8.4959 -6.8078,-10.9172 l -0.3779,0.2612 0.4805,4.4417 3.6464,5.6649 3.0588,0.5494 z m -7.4324,-11.3096 c -1.9553,-1.1636 -4.1888,-1.9071 -6.5769,-2.1071 l 0.1905,0.461 6.0169,1.9017 0.3695,-0.2556 z m -6.3287,26.3275 -1.601,-3.2378 4.0028,-5.0028 5.2338,-0.6728 2.0881,3.8878 -3.9831,4.6999 -5.7406,0.3257 z m -9.7245,-5.6376 -2.1395,1.539 -3.9424,-3.7325 -0.4104,-6.4338 2.9919,-2.0687 3.5009,3.8475 -5e-4,6.8485 z m 0.3722,-7.4474 -3.452,-3.7937 2.6812,-5.5947 5.6306,-1.8524 4.0751,3.9189 -2.0548,5.9673 -6.8801,1.3546 z"
       style="fill:#ffffff;fill-rule:evenodd"
       id="path187"
       inkscape:connector-curvature="0" />
  </g>
</svg>
