<?xml version="1.0" encoding="utf-8"?>
<!-- Generator: Adobe Illustrator 26.0.2, SVG Export Plug-In . SVG Version: 6.00 Build 0)  -->
<svg version="1.1" id="Calque_1" xmlns="http://www.w3.org/2000/svg" xmlns:xlink="http://www.w3.org/1999/xlink" x="0px" y="0px"
	 viewBox="0 0 49 49" enable-background="new 0 0 49 49" xml:space="preserve">
<circle opacity="0.5" fill="#FFFFFF" enable-background="new    " cx="24.5" cy="24.5" r="24.5"/>
<path fill="#FFFFFF" d="M16.4,47.7l-4.3-6.4l-7.2-1.9C7.8,43.2,11.8,46.1,16.4,47.7z"/>
<path fill="#FFFFFF" d="M43.9,39.4l-6.7,2l-4,6C37.4,45.7,41.1,43,43.9,39.4z"/>
<path fill="#FFFFFF" d="M45,11.2l-0.2,6.2l4.1,5.1C48.5,18.5,47.2,14.6,45,11.2z"/>
<path fill="#FFFFFF" d="M18.7,0.7L24.4,3l5.7-2.3C26.4-0.2,22.4-0.2,18.7,0.7z"/>
<path fill="#FFFFFF" d="M4.4,17.6C4.3,15.4,4.1,13.2,4,11c-2.3,3.5-3.7,7.6-4,11.8L4.4,17.6z"/>
<polygon fill="#FFFFFF" points="19.4,31 29.5,30.9 32.5,21.4 24.4,15.5 16.3,21.4 "/>
<path fill="#FFFFFF" d="M15.4,20.4l8.4-6.1c0-3.4,0-6.8,0-10.1l-7.2-2.9c-4.9,1.4-9.4,5.5-11.3,8l0.6,8L15.4,20.4z"/>
<path fill="#FFFFFF" d="M14.9,21.7l-9.6-3.1L-0.1,25c0.1,4.5,1.4,8.8,3.8,12.6l8.6,2.3l5.8-8.3L14.9,21.7z"/>
<path fill="#FFFFFF" d="M29.7,32.4H19.4l-6,8.3l5,7.6c4.2,1,8.6,1,12.7-0.2l4.8-7.3L29.7,32.4z"/>
<path fill="#FFFFFF" d="M33.9,21.7l-3.1,9.7l6.3,8.6l8.1-2.4c2.4-3.8,3.7-8.3,3.8-12.8l-5.1-6.3L33.9,21.7z"/>
<path fill="#FFFFFF" d="M25.1,14.3l8.4,6.1l10-3.2c0.1-2.6,0.2-5.2,0.3-7.8c-2.9-3.7-6.9-6.5-11.4-8.1c-0.2-0.1-6.5,2.5-7.3,2.8
	L25.1,14.3z"/>
</svg>
