<?xml version="1.0" encoding="utf-8"?>
<!-- Generator: Adobe Illustrator 26.0.2, SVG Export Plug-In . SVG Version: 6.00 Build 0)  -->
<svg version="1.1"
	 id="svg5017" xmlns:cc="http://creativecommons.org/ns#" xmlns:dc="http://purl.org/dc/elements/1.1/" xmlns:inkscape="http://www.inkscape.org/namespaces/inkscape" xmlns:rdf="http://www.w3.org/1999/02/22-rdf-syntax-ns#" xmlns:sodipodi="http://sodipodi.sourceforge.net/DTD/sodipodi-0.dtd" xmlns:svg="http://www.w3.org/2000/svg"
	 xmlns="http://www.w3.org/2000/svg" xmlns:xlink="http://www.w3.org/1999/xlink" x="0px" y="0px" viewBox="0 0 266.4 266.4"
	 enable-background="new 0 0 266.4 266.4" xml:space="preserve">
<g>
	<rect fill="#EDEDED" width="266.4" height="266.4"/>
</g>
<g id="f74ecD.tif">
	<g>
		<path fill="#681B7F" d="M132.7,258.2c-0.3-0.1-0.6-0.3-0.9-0.4c-0.8-0.3-1.6-0.5-2.3-0.8c-2.6-1.3-4-3.5-4.2-6.4
			c-0.1-1.4-0.1-2.8-0.1-4.2c0-2.8,0-5.6,0-8.4c0-1.7-0.1-1.9-0.9-3.2c1.5,0,2.9,0,4.4,0c0,0.4,0,0.8,0,1.2c0,4.2,0,8.3,0,12.5
			c0,0.9,0.1,1.9,0.2,2.8c0.3,2,1.5,3.4,3.4,4c1.6,0.6,3.3,0.6,5,0.1c2.3-0.7,3.6-2.4,3.8-4.8c0.1-1.2,0-2.4,0-3.6c0-3,0-6.1,0-9.1
			c0-1.1-0.1-2.2-1-3.1c1.3,0,2.5,0,3.7,0c0,0.2,0.1,0.4,0.1,0.6c0,4.8,0,9.6-0.1,14.4c0,0.9-0.1,1.8-0.3,2.6
			c-0.8,3-2.9,4.7-5.7,5.5c-0.4,0.1-0.8,0.3-1.1,0.4C135.4,258.2,134,258.2,132.7,258.2z"/>
		<path fill="#681B7F" d="M232.8,222.5c-0.2,0.7-0.4,1.4-0.6,2.1c-0.1,0.4-0.2,0.9-0.4,1.4c-4.7,0-9.3,0-14.2,0c0-0.4,0-0.8,0-1.1
			c0-6.2,0-12.4,0-18.6c0-1.1,0-2.2-1.1-3.2c4.9,0,9.7,0,14.4,0c0.1,1.1,0.2,2.2,0.4,3.5c-1.7-1.1-3.4-1-5.1-1c-1.7,0-3.3,0-4.9,0
			c-0.2,0.8-0.3,4.7-0.1,6.3c2.4,0,4.9,0,7.4,0c0,0.9,0,1.7,0,2.6c-2.5,0-4.9,0-7.4,0c0,3,0,5.9,0,8.8c0.3,0,0.6,0,0.9,0
			c2.3,0,4.5,0,6.8,0c1.2,0,2.4-0.2,3.4-0.9c0.2-0.1,0.4-0.1,0.6-0.2C232.8,222.3,232.8,222.4,232.8,222.5z"/>
		<path fill="#681B7F" d="M112.8,258.2c-0.2-0.1-0.3-0.2-0.5-0.2c-1.7-0.3-3.4-0.7-5-1.6c-3.8-2.2-5.9-5.4-5.9-9.9
			c-0.1-3.4,1-6.3,3.5-8.6c1.4-1.3,3-2.2,4.8-2.8c3.3-1,6.6-1,10-0.4c0.1,1.2,0.3,2.4,0.5,3.7c-0.5-0.2-0.8-0.3-1.1-0.5
			c-2.4-1-4.8-1.3-7.3-0.6c-3.4,0.9-6,3.7-6.4,7.2c-0.1,1.2-0.1,2.6,0.1,3.8c0.7,3.7,3.5,6.3,7.3,7c2.6,0.5,5.2,0.2,7.6-0.9
			c0.3-0.1,0.6-0.3,1.2-0.5c-0.3,1.4-0.6,2.6-0.9,3.8c-0.8,0.2-1.6,0.4-2.3,0.6C116.4,258.2,114.6,258.2,112.8,258.2z"/>
		<path fill="#681B7F" d="M73.7,110c0-12.3,2-24.2,6-35.8c4.7-13.4,11.8-25.4,20.8-36.3c6-7.3,12.8-13.8,20.5-19.2
			c3.9-2.8,8-5.3,12.5-7c5.8-2.2,11.8-3.4,18-3.4c9.2-0.1,17,3.3,23.6,9.7c6.1,5.9,9.9,13.2,11.6,21.5c1.4,6.7,1.8,13.4,1.4,20.2
			c-0.5,10-2.7,19.6-6,29c-2.1,5.8-4.4,11.4-7.3,16.8c-4.4,8.3-9.5,16.2-15.7,23.3c-4.8,5.5-9.8,10.8-15.3,15.7
			c-4.9,4.4-10.3,7.8-16.1,10.8c-3.3,1.7-6.6,3.1-10.2,3.9c-9.8,2.3-18.6,0.1-26.3-6.2c-8.2-6.6-13.4-15.2-15.7-25.6
			c-1-4.5-1.6-9.1-1.7-13.8C73.7,112.4,73.7,111.2,73.7,110z M152.7,63.8c-0.1-2.2-0.2-6.2-0.4-10.3c-0.2-2.9-0.4-5.8-1-8.6
			c-0.6-2.9-1.5-5.6-3.2-8.1c-1.4-2.1-3.2-3.5-5.7-3.9c-1.4-0.2-2.9-0.4-4.3-0.4c-3.7,0-7.3,0.8-10.8,1.9
			c-14.6,4.7-26.6,13.1-35.7,25.5c-9.9,13.5-15.5,28.7-16.8,45.4c-0.6,7.2-0.1,14.4,1.5,21.5c2,8.7,5.9,16.4,12.4,22.6
			c3.1,3,6.6,5.6,10.8,7.1c7.2,2.6,14.1,1.9,20.4-2.7c2.7-1.9,5-4.2,7.1-6.7c5.7-6.7,10.3-14.1,13.9-22c5.2-11.4,8.3-23.3,10.1-35.7
			C152.2,81.7,152.7,73.7,152.7,63.8z M182.4,45.5c-0.1,0.4-0.2,0.7-0.3,1c-0.3,1.8-0.6,3.5-0.9,5.3c-1.1,6.8-2.7,13.5-4.7,20.1
			c-3.7,12.3-8.6,24.1-14.6,35.5c-5.9,11.2-12.4,22.1-20.3,32c-2.2,2.7-4.4,5.4-6.6,8.1c-0.4,0.4-0.7,0.9-1,1.4
			c-0.2,0.4,0.1,0.8,0.5,0.7s0.8-0.2,1.2-0.4c1.3-0.9,2.6-1.7,3.8-2.7c5.2-4.1,9.9-8.7,14.3-13.5c5.1-5.5,9.6-11.4,13.4-17.9
			c2.3-3.9,4.5-7.9,6.6-11.9c1.1-2,2.2-4,3-6.2c3.3-8.3,6.1-16.8,7.7-25.6c1.2-6.5,1.6-13.1,0.3-19.7c-0.3-1.6-0.8-3.3-1.3-4.9
			C183.4,46.3,183.1,45.8,182.4,45.5z"/>
		<path fill="#681B7F" d="M56.9,203c1.7,0,3.1,0,4.6,0c0,3.1,0,6.1,0,9.1c3.4,0,6.8,0,10.2,0c0-0.2,0.1-0.5,0.1-0.8
			c0-1.8,0-3.7,0-5.5c0-1-0.1-2-1-2.9c1.6,0,3,0,4.5,0c0,0.4,0,0.8,0,1.2c0,6.3,0,12.6,0,18.9c0,1,0.1,2,1,2.7
			c-0.7,0.2-3.3,0.3-4.4,0.1c0-3.6,0-7.3,0-11c-3.5,0-6.8,0-10.1,0c-0.1,0.1-0.1,0.2-0.1,0.2c0,2.8,0,5.6,0,8.3c0,0.9,0.3,1.7,1,2.5
			c-1.6,0-3,0-4.5,0c0-0.4,0-0.8,0-1.2c0-6.2,0-12.4,0-18.6C58,205,57.9,203.9,56.9,203z"/>
		<path fill="#681B7F" d="M186.2,226.1c-5.1-6.1-10.3-12.1-15.4-18.2c-0.1,0-0.1,0.1-0.2,0.1c0,0.2,0,0.4,0,0.6c0,4.8,0,9.6,0,14.4
			c0,1,0.1,2,1,2.8c-0.8,0.2-2.7,0.3-3.7,0c0-0.4,0-0.7,0-1.1c0-6,0-12,0-18.1c0-1.3,0-2.5-1.1-3.7c1.4,0,2.5,0,3.7,0
			c0.3,0,0.7,0.4,0.9,0.6c2.4,2.8,4.8,5.7,7.2,8.5c1.6,1.9,3.3,3.9,5,5.9c0.1-0.3,0.1-0.6,0.1-0.8c0-3.9,0-7.7,0-11.6
			c0-1-0.3-1.8-1-2.7c1.3,0,2.5,0,3.7,0c0,7.7,0,15.4,0,23C186.3,226.1,186.2,226.1,186.2,226.1z"/>
		<path fill="#681B7F" d="M208.7,222.8c0-2.1,0-4.2,0-6.3c0-0.8-0.4-1.5-1-2.2c1.5,0,2.9,0,4.4,0c0,3.6,0,7.1,0,10.8
			c-1.8,0.6-3.7,0.9-5.6,1.1c-2.3,0.3-4.6,0.3-6.9-0.3c-5.2-1.4-8.6-5.7-8.7-11.1c-0.2-6.9,4.7-11,9.9-12c3.2-0.6,6.4-0.3,9.6,0.6
			c0.1,0,0.2,0.1,0.3,0.2c0.2,1.3,0.3,2.6,0.5,4.1c-0.4-0.2-0.6-0.3-0.8-0.5c-1.5-1-3.1-1.8-4.8-2c-3.7-0.5-6.9,0.4-9.2,3.5
			c-0.8,1-1.2,2.2-1.5,3.5c-0.3,1.7-0.3,3.4,0.1,5.1c0.9,3.5,3.8,6,7.6,6.4C204.5,223.9,206.6,223.8,208.7,222.8z"/>
		<path fill="#681B7F" d="M87,217.2c-0.5,1.2-1,2.3-1.4,3.5c-0.4,0.9-0.7,1.8-1.1,2.7c-0.4,0.8-0.6,1.6,0.1,2.4c-1.5,0-2.8,0-4.3,0
			c0.1-0.3,0.2-0.6,0.3-0.8c2.7-6.4,5.5-12.8,8.2-19.2c0.1-0.2,0.2-0.4,0.2-0.6c0.3-0.7,0.5-1.5-0.1-2.3c1.4,0,2.6,0,3.9,0
			c0.2,0.3,0.3,0.7,0.5,1.1c2.5,5.9,5,11.8,7.5,17.8c0.6,1.4,1,2.9,2.4,3.9c0,0.1-0.1,0.1-0.1,0.2c-1.3,0-2.6,0-4,0
			c-0.5,0-0.5-0.4-0.7-0.7c-0.8-1.8-1.5-3.6-2.3-5.4c-0.4-0.8-0.7-1.7-1.1-2.6C92.5,217.2,89.8,217.2,87,217.2z M91.2,207.5
			c-0.6,0.8-2.8,6.3-2.9,7c1.9,0,3.7,0,5.7,0C93.1,212.2,92.2,209.9,91.2,207.5z"/>
		<path fill="#681B7F" d="M153.4,247.5c0,2.8-0.1,5.4,0,8c0,0.7,0.5,1.4,0.7,2.2c-0.6,0-1.3,0-2,0s-1.4,0-2.2,0c0-0.5,0-0.9,0-1.3
			c0-6.1,0-12.2,0-18.2c0-1.2,0-2.4-1-3.5c0.2-0.1,0.3-0.1,0.4-0.1c3.2,0,6.3,0,9.5,0.1c3.4,0.1,5.7,2.2,6.2,5.2
			c0.6,3.8-1.6,7-5.4,7.8c-1.7,0.4-3.5,0.3-5.2-0.1C154.1,247.6,153.8,247.6,153.4,247.5z M153.4,244.9c1.5,0.6,2.6,0.7,4,0.5
			c1.1-0.1,2.1-0.6,2.9-1.4c2-2.1,1.1-5.8-1.6-6.5c-1.7-0.4-3.5-0.3-5.3-0.3C153.4,239.8,153.4,242.4,153.4,244.9z"/>
		<path fill="#681B7F" d="M147.2,203c4.8,0,9.5,0,14.3,0c0.1,0.5,0.2,1.1,0.2,1.6c0.1,0.6,0.1,1.1,0.2,1.8c-0.3-0.1-0.5-0.3-0.8-0.3
			c-0.6-0.2-1.3-0.5-1.9-0.5c-2.5-0.1-4.9,0-7.4,0c-0.2,0.8-0.3,4.8-0.1,6.3c2.4,0,4.9,0,7.4,0c0,0.9,0,1.7,0,2.6
			c-2.4,0-4.9,0-7.5,0c0,3,0,5.8,0,8.8c0.3,0,0.5,0.1,0.7,0.1c2.3,0,4.6,0,7,0c1.4,0,2.7-0.3,4-1c-0.3,1.2-0.6,2.4-1,3.6
			c-4.7,0-9.3,0-14.1,0c0-0.4,0-0.8,0-1.1c0-6.2,0-12.5,0-18.7C148.3,205,148.2,203.9,147.2,203z"/>
		<path fill="#681B7F" d="M51.9,203.1c0.1,1.1,0.3,2.3,0.4,3.5c-1.2-0.4-2.2-0.8-3.3-1.1c-1.8-0.4-3.6-0.4-5.3,0.1
			c-3.5,0.9-5.9,4-6.2,7.7c-0.1,1.3-0.1,2.7,0.3,4c1.1,3.6,3.7,5.6,7.4,6.3c2.5,0.5,5,0.1,7.3-1c0.3-0.1,0.6-0.3,1.2-0.5
			c-0.3,1.4-0.6,2.5-0.9,3.8c-0.6,0.1-1.2,0.2-1.8,0.3c-3,0.4-6,0.4-8.9-0.5c-4-1.3-6.9-3.7-8-7.9c-1.8-6.9,2-13,8.7-14.7
			c2.9-0.7,5.8-0.7,8.7-0.1C51.6,202.9,51.7,203,51.9,203.1z"/>
		<path fill="#681B7F" d="M111.2,203c0,6.8,0,13.5,0,20.3c0.4,0,0.7,0.1,1,0.1c2.1,0,4.2,0,6.3,0c1.8,0,3.4-0.2,5-1.2
			c-0.4,1.2-0.8,2.5-1.2,3.8c-4.8,0-9.6,0-14.6,0c0-0.4,0-0.7,0-1.1c0-6.3,0-12.5,0-18.8c0-1.1-0.1-2.1-1.1-3
			C108.3,203,109.7,203,111.2,203z"/>
		<path fill="#681B7F" d="M83.4,245.1c0,0.7,0,1.3,0,1.9c-0.7,0.2-48.1,0.3-49.5,0.1c0-0.6,0-1.2,0-1.9
			C50.4,245.1,66.9,245.1,83.4,245.1z"/>
		<path fill="#681B7F" d="M232.5,245.3c0,0.7,0,1.3,0,2c-16.4,0-32.9,0-49.4,0c0-0.6,0-1.3,0-2C199.6,245.3,216,245.3,232.5,245.3z"
			/>
		<path fill="#681B7F" d="M127,203c1.6,0,3,0,4.5,0c0,6.8,0,13.5,0,20.2c0.3,0,0.6,0.1,0.9,0.1c2.1,0,4.3,0,6.4,0
			c1.8,0,3.4-0.2,5.1-1.2c-0.4,1.3-0.8,2.5-1.2,3.8c-4.9,0-9.6,0-14.6,0c0-0.4,0-0.8,0-1.1c0-6.2,0-12.4,0-18.7
			C128,205,127.9,203.9,127,203z"/>
		<path fill="#681B7F" d="M215.6,186.9c0.1,0.1,0.2,0.2,0.3,0.3c1.5,0.9,1.8,2.3,1.5,3.8c-0.2,1.5-1.2,2.4-2.7,2.7
			c-0.8,0.2-1.5,0.3-2.3,0.3c-1.7,0-3.4,0-5.1-0.4c0-4.4,0-8.7,0-13.2c2.4-0.3,4.8-0.6,7.2-0.1c1.4,0.3,2.4,1.1,2.6,2.6
			c0.3,1.5-0.1,2.8-1.4,3.7C215.8,186.8,215.7,186.8,215.6,186.9z M210.2,191.7c1.1,0.2,2.2,0.2,3.2,0c0.9-0.2,1.3-0.8,1.4-1.7
			c0-1-0.4-1.7-1.4-1.9c-1.1-0.2-2.1-0.1-3.2-0.1C210.2,189.3,210.2,190.5,210.2,191.7z M210.3,182.4c0,1.3,0,2.4,0,3.6
			c1-0.1,2,0,3-0.2c1.1-0.2,1.4-0.8,1.4-1.9c-0.1-0.9-0.5-1.4-1.5-1.5S211.3,182.4,210.3,182.4z"/>
		<path fill="#681B7F" d="M139.7,193.9c-0.9,0-1.7,0-2.5,0c0-0.4-0.1-0.7-0.1-1c0-3.4,0-6.8,0-10.2c0-0.3,0-0.6,0-0.8
			c0.1-1.6,1.6-2.3,2.9-1.3c0.5,0.4,0.9,1,1.2,1.6c1.2,2.2,2.3,4.5,3.5,6.7c0.2,0.3,0.3,0.6,0.7,0.8c0-3.1,0-6.2,0-9.3
			c0.9,0,1.6,0,2.5,0c0,0.3,0.1,0.5,0.1,0.8c0,3.6,0,7.1,0,10.7c0,0.2,0,0.4,0,0.5c0,0.7-0.2,1.3-0.9,1.6c-0.8,0.3-1.6,0.3-2.2-0.3
			c-0.4-0.4-0.8-0.9-1-1.4c-1.2-2.3-2.4-4.6-3.5-6.8c-0.2-0.3-0.3-0.6-0.6-0.8C139.7,187.5,139.7,190.6,139.7,193.9z"/>
		<path fill="#681B7F" d="M171.1,193.9c-1.1,0-1.9,0-2.7,0c-0.4,0-0.6-0.2-0.7-0.5c-1.2-2.3-2.5-4.5-3.7-6.8c0.3,0,0.5-0.1,0.8-0.1
			c0.4,0,0.7,0,1.1,0c1.7-0.2,2.2-0.9,2.1-2.5c-0.1-0.9-0.5-1.5-1.4-1.6s-1.9,0-2.9,0c0,3.8,0,7.6,0,11.4c-1,0.1-1.9,0.1-2.8,0
			c0-4.4,0-8.8,0-13.3c0.1-0.1,0.3-0.2,0.4-0.2c2-0.3,4-0.5,6.1-0.1c2.2,0.4,3.3,1.5,3.3,3.8c0,0.5,0,1-0.1,1.5
			c-0.2,1.2-0.7,2.1-1.8,2.7c-0.2,0.1-0.3,0.2-0.5,0.2c0,0,0,0.1-0.1,0.2C169,190.2,170,192,171.1,193.9z"/>
		<path fill="#681B7F" d="M73.9,193.9c-1,0-1.9,0-2.8,0c-0.2,0-0.5-0.2-0.6-0.4c-1.2-2.2-2.5-4.5-3.8-6.9c0.4,0,0.7,0,1-0.1
			c0.4,0,0.8,0,1.2-0.1c1.3-0.2,1.9-0.9,1.8-2.3c-0.1-1-0.5-1.7-1.5-1.8c-0.9-0.1-1.9,0-2.9,0c0,3.8,0,7.6,0,11.5c-0.5,0-1,0-1.4,0
			s-0.8,0-1.2,0c-0.2-0.8-0.3-11.3-0.1-13.4c1.8-0.3,3.7-0.5,5.6-0.3c0.6,0.1,1.3,0.2,1.9,0.3c1.2,0.4,2,1.2,2.2,2.4
			c0.1,0.9,0.2,1.8,0.1,2.7c-0.2,1.4-1,2.3-2.4,2.8C71.8,190.3,72.8,192,73.9,193.9z"/>
		<path fill="#681B7F" d="M89.4,186.8c-0.2,1.4-0.2,2.5-0.4,3.7c-0.4,2.1-1.8,3.3-3.9,3.4c-1,0.1-2.1,0-3.1-0.1
			c-1.6-0.3-2.7-1.3-3-2.8c-0.3-1.1-0.4-2.2-0.4-3.3c0-1.3,0-2.6,0.2-3.9c0.4-2.2,1.6-3.3,3.8-3.6c1-0.1,2.1-0.1,3.1,0.1
			c1.6,0.2,2.8,1.1,3.1,2.7C89.1,184.3,89.2,185.7,89.4,186.8z M86.5,187.2c-0.1-1-0.1-2-0.3-3c-0.2-1.2-1.1-1.8-2.4-1.8
			s-2.2,0.6-2.4,1.8c-0.4,1.9-0.4,3.9,0,5.8c0.2,1.3,1,1.8,2.5,1.8c1.4,0,2.1-0.5,2.4-1.8C86.4,189,86.4,188.1,86.5,187.2z"/>
		<path fill="#681B7F" d="M201.7,180.5c-0.1,0.7-0.1,1.4-0.2,2.1c-0.2,0-0.5,0-0.7,0c-1.3,0-2.5-0.1-3.8,0s-2,0.7-2.3,2
			c-0.3,1.7-0.3,3.5,0,5.2c0.2,1.1,1,1.7,2.1,1.9c0.5,0.1,1.1,0.1,1.6,0c0.6-0.1,0.9-0.3,0.9-0.9c0-0.7,0-1.4,0-2.2
			c-0.6,0-1.2-0.1-1.8-0.1c0-0.7,0-1.4,0-2.1c0.7,0,1.4-0.1,2.1-0.1c0.7,0,1.4,0,2,0c0.1,0.1,0.2,0.2,0.2,0.2c0,1.8,0.1,3.6,0,5.4
			c0,1-0.6,1.7-1.5,1.9c-2,0.5-4,0.5-6-0.2c-1.3-0.4-2-1.4-2.3-2.7c-0.6-2.5-0.6-5.1,0-7.6c0.4-1.8,1.7-2.8,3.5-3
			C197.6,180,199.6,180.1,201.7,180.5z"/>
		<path fill="#681B7F" d="M176,180.3c1,0,1.8,0,2.7,0c0,0.4,0.1,0.7,0.1,1c0,2.6,0,5.1,0,7.7c0,0.2,0,0.5,0,0.7s0,0.4,0.1,0.5
			c0.2,1.1,1,1.5,2.6,1.4c1.3-0.1,1.9-0.5,2.1-1.6c0.1-0.5,0.1-0.9,0.1-1.4c0-2.4,0-4.9,0-7.3c0-0.3,0-0.7,0-1.1c0.9,0,1.8,0,2.7,0
			c0,0.3,0.1,0.5,0.1,0.8c0,2.7,0,5.3,0,8c0,0.5,0,1.1-0.1,1.6c-0.3,1.6-1.1,2.7-2.8,3.1c-1.4,0.3-2.9,0.4-4.3,0.1
			c-1.9-0.4-2.9-1.7-3.1-3.8c-0.1-1.4,0-2.8,0-4.2C176,184,176,182.2,176,180.3z"/>
		<path fill="#681B7F" d="M47.8,180.3c1,0,1.8,0,2.7,0c0,0.4,0,0.7,0,1c0,2.6,0,5.2,0,7.8c0,1.8,0.4,2.7,2.7,2.6
			c1.4-0.1,2-0.6,2-2.1c0-2.7,0-5.3,0-8c0-0.4,0-0.8,0-1.2c0.9,0,1.8,0,2.7,0c0,0.3,0,0.6,0,0.9c0,2.7,0,5.4,0,8.1
			c0,0.2,0,0.4,0,0.6c-0.1,2.3-1.4,3.7-3.7,3.9c-0.9,0.1-1.9,0.1-2.8,0c-2.2-0.2-3.5-1.6-3.6-3.8c0-0.4,0-0.8,0-1.2
			c0-2.5,0-5.1,0-7.6C47.8,181,47.8,180.7,47.8,180.3z"/>
		<path fill="#681B7F" d="M133.5,193.9c-1,0-1.9,0-2.9,0c-0.3-1.1-0.7-2.2-1.1-3.3c-1.5,0-3.1,0-4.6,0c-0.3,1.1-0.7,2.1-1,3.3
			c-0.9,0-1.8,0-2.8,0c0.1-0.3,0.1-0.5,0.2-0.7c1.2-3.6,2.5-7.2,3.7-10.9c0.1-0.4,0.3-0.7,0.5-1.1c0.9-1.5,2.8-1.5,3.7,0
			c0.1,0.2,0.3,0.5,0.4,0.8c1.3,3.8,2.6,7.6,3.8,11.4C133.4,193.5,133.4,193.6,133.5,193.9z M128.7,188.3c-0.2-1.5-1.2-4.5-1.7-5
			c-0.5,1.7-1,3.3-1.5,5C126.7,188.3,127.7,188.3,128.7,188.3z"/>
		<path fill="#681B7F" d="M97.5,193.9c-1,0-1.8,0-2.6,0c-0.2-0.7-0.3-12.1-0.1-13.4c2.2-0.4,4.4-0.6,6.6-0.2
			c2.1,0.3,3.1,1.6,3.2,3.7c0.2,3.2-1.1,4.7-4.4,4.9c-0.9,0.1-1.7,0-2.7,0C97.5,190.6,97.5,192.2,97.5,193.9z M97.5,186.6
			c0.7,0,1.4,0,2,0c0.3,0,0.6,0,0.8-0.1c1.1-0.2,1.5-0.9,1.5-2.2c0-1.2-0.5-1.9-1.6-2c-0.9-0.1-1.8,0-2.7,0
			C97.5,183.8,97.5,185.1,97.5,186.6z"/>
		<path fill="#681B7F" d="M42.3,180.3c0,0.8,0,1.5,0,2.2c-0.9,0-1.8,0-2.6,0c-0.5,0-1.1,0-1.6,0c-1,0.1-1.3,0.3-1.4,1.3
			c-0.1,0.6,0,1.2,0,1.9c1.4,0.2,2.8,0,4.3,0.1c0,0.7,0,1.4,0,2.2c-1.4,0.1-2.8,0-4.2,0.1c0,0.8-0.1,1.6,0,2.3
			c0.1,0.9,0.4,1.2,1.3,1.2c1,0,2,0,3.1,0c0.4,0,0.8,0,1.2,0c0,0.7,0,1.4,0,2.1c-0.3,0-0.5,0.1-0.8,0.1c-1.7,0-3.4,0-5.1-0.1
			c-1.6-0.2-2.4-1.1-2.4-2.7c-0.1-2.6,0-5.3,0-7.9c0-1.5,0.8-2.4,2.3-2.7c0.2-0.1,0.5-0.1,0.7-0.1C38.7,180.3,40.4,180.3,42.3,180.3
			z"/>
		<path fill="#681B7F" d="M117,191.7c0,0.8,0,1.4,0,2.1c-0.3,0-0.5,0.1-0.8,0.1c-1.7,0-3.4,0.1-5-0.1c-1.7-0.2-2.5-1.2-2.5-2.9
			c0-2.5,0-5.1,0-7.6c0-1.7,0.8-2.5,2.4-2.9c0.2,0,0.4-0.1,0.6-0.1c1.8,0,3.5,0,5.3,0c0,0.7,0,1.4,0,2.2c-0.8,0-1.6,0-2.5,0
			c-0.6,0-1.2,0-1.8,0c-0.9,0.1-1.2,0.3-1.3,1.2c0,0.2,0,0.4,0,0.5c0,0.5,0,0.9,0,1.5c1.4,0.2,2.8,0,4.3,0.1c0,0.7,0,1.4,0,2.2
			c-1.4,0-2.8,0-4.2,0c0,0.8,0,1.5,0,2.3c0.1,1,0.4,1.3,1.4,1.3s2,0,3,0C116.2,191.7,116.6,191.7,117,191.7z"/>
		<path fill="#681B7F" d="M226.9,185.8c1-2,2-3.8,2.9-5.5c1,0,1.8,0,2.8,0c-0.2,0.4-0.3,0.7-0.5,1c-1.1,2.2-2.3,4.4-3.4,6.5
			c-0.3,0.5-0.4,1.1-0.4,1.7c0,1.1,0,2.3,0,3.4c0,0.3,0,0.6-0.1,0.9c-0.9,0-1.8,0-2.8,0c0-1.3-0.1-2.5,0-3.7c0.1-1.1-0.2-2-0.7-2.9
			c-1.1-2-2.1-4-3.1-6c-0.1-0.3-0.3-0.6-0.5-0.9c0.5-0.2,1-0.1,1.5-0.1s0.9,0,1.5,0C224.9,182,225.8,183.8,226.9,185.8z"/>
		<path fill="#681B7F" d="M141.8,120.1c-0.1,0.3-0.1,0.5-0.2,0.8c-3.7,9.1-8.6,17.5-14.9,25.1c-2.3,2.7-4.8,5.2-7.7,7.3
			c-5.5,3.9-11.4,4.7-17.8,2.8c-4.5-1.3-8.3-4-11.6-7.2c-6.7-6.5-10.7-14.4-12.5-23.5c-0.5-2.4-0.7-4.9-1-7.3c-0.1-0.4,0-0.8,0-1.3
			c0.5,1.3,0.9,2.6,1.4,3.9c0.8,2,2,3.8,3.5,5.3c1.1,1.1,2.4,1.8,3.9,2.1c1.3,0.3,2.4,0,3.2-1.1c0.7-1,1.4-2.1,2-3.2
			c1.5-3.2,2.5-6.6,3.4-10c2.6-10.2,5.2-20.4,8.3-30.5c3-10,6.4-19.9,10.6-29.4c2.2-5,4.6-9.8,7.5-14.4c0.4-0.7,1-1.2,1.7-1.4
			c0.9-0.3,1.8-0.7,2.7-1c0,0.1,0.1,0.1,0.1,0.2c-0.1,0.1-0.1,0.3-0.2,0.4c-5.9,8.5-10.2,17.8-13.3,27.6c-2.3,7.2-3.9,14.5-5,22
			c-1.3,8.5-2,17.1-2.1,25.7c-0.1,3.7,0.1,7.4,1.1,11c0.2,0.7,0.4,1.5,0.7,2.2c1.9,4.6,5.5,6.9,10.4,7c3.9,0.1,7.5-1,11-2.6
			c5.3-2.4,9.8-5.7,13.9-9.7C141.1,120.5,141.5,120.3,141.8,120.1C141.8,120,141.8,120.1,141.8,120.1z"/>
		<path fill="#681B7F" d="M113.7,73.3c0.7,0.1,1.1,0.1,1.6,0.2c2.7,0.6,5.3,1.3,8,1.9c0.2,0,0.3,0.1,0.6,0.1
			c1.4-4.1,2.5-8.2,3.9-12.3c0.1,0,0.2,0,0.3,0c0.1,0.3,0.3,0.6,0.4,0.9c1.3,4.1,2.7,8.1,3.9,12.2c0.4,1.4,1.3,2.4,2.7,2.9
			c2.1,0.9,4.1,1.8,6.2,2.7c0.2,0.1,0.4,0.1,0.6,0.3c0.7,0.4,0.7,0.9,0.2,1.5c-0.2,0.2-0.4,0.3-0.6,0.5c-1.4,1.1-2.9,2.3-4.3,3.4
			c-1.2,0.9-1.7,2.1-1.5,3.6c0.2,1.6,0.5,3.3,0.7,4.9c0.4,2.7,0.8,5.4,1.2,8.1c0,0.3,0,0.6,0,1.1c-0.3-0.2-0.5-0.3-0.7-0.5
			c-2.7-3-5.4-6-8.2-9c-0.2-0.2-0.4-0.4-0.6-0.6c-0.6-0.5-1-0.5-1.7-0.1c-1.8,1.2-3.7,2.4-5.5,3.7c-0.4,0.2-0.8,0.6-1.2,0.3
			c-0.5-0.3-0.2-0.8-0.1-1.3c0.5-3.4,1-6.8,1.5-10.2c0.2-1.2-0.2-2.2-0.8-3.2c-2-3.3-4-6.6-5.9-9.9C114.1,74.3,114,73.9,113.7,73.3z
			"/>
		<path fill="#681B7F" d="M118.3,39.4c-0.1,0.2-0.1,0.3-0.2,0.4c-4.4,7.3-7.8,15-10.8,23c-4.5,12-8.1,24.2-11.3,36.5
			c-1.6,5.9-3.1,11.8-4.7,17.6c-0.7,2.5-1.5,5-2.7,7.3c-0.4,0.7-0.8,1.4-1.3,2c-0.4,0.5-1,0.8-1.7,0.6c-0.8-0.2-1.6-0.4-2.4-0.8
			c-1.5-0.8-2.6-2-3.5-3.3c-1.7-2.5-2.7-5.3-3.4-8.3c-0.3-1.5-0.5-3-0.8-4.4c0.1,0,0.1,0,0.2,0c0.3,1.1,0.5,2.1,0.8,3.2
			c0.7,2.5,1.5,5,2.8,7.3c0.7,1.4,1.6,2.6,2.8,3.7c0.9,0.8,1.9,1.4,3.1,1.7c0.7,0.2,1.3,0.1,1.7-0.6c0.4-0.7,0.9-1.4,1.3-2.2
			c1.4-2.9,2.2-5.9,2.9-9C94,102.6,97,91,100.6,79.7c2.9-9.2,6.1-18.4,10-27.2c1.7-4,3.7-7.8,5.9-11.6
			C116.8,40.1,117.4,39.7,118.3,39.4z"/>
		<path fill="#681B7F" d="M141.8,120c0-0.1,0.1-0.2,0.1-0.2l0.1,0.1C141.9,119.9,141.8,120,141.8,120
			C141.8,120.1,141.8,120,141.8,120z"/>
		<path fill="#681B7F" d="M124.1,36.9c0.1,0,0.2,0,0.2,0c0,0.1-0.1,0.1-0.1,0.2C124.2,37,124.2,37,124.1,36.9z"/>
		<path fill="#681B7F" d="M170.5,107.1c-0.1,0.3-0.3,0.6-0.4,0.9c-3.4,6.7-7.6,12.8-12.3,18.6c-5.7,7-12,13.4-19,19.1
			c-0.5,0.4-0.9,0.7-1.4,1.1c0,0-0.1,0-0.4,0.1c4.9-6,9.6-11.8,13.9-18.1c1,0.5,1.9,0.1,2.6-0.5c1.2-1,2.5-2.1,3.6-3.2
			c3.6-3.7,6.6-7.9,9.5-12.1c1.2-1.7,2.3-3.5,3.4-5.2C170.2,107.5,170.3,107.3,170.5,107.1C170.4,107,170.5,107,170.5,107.1z"/>
	</g>
</g>
</svg>
