<?xml version="1.0" encoding="utf-8"?>
<!-- Generator: Adobe Illustrator 26.0.2, SVG Export Plug-In . SVG Version: 6.00 Build 0)  -->
<svg version="1.1"
	 id="svg5017" xmlns:cc="http://creativecommons.org/ns#" xmlns:dc="http://purl.org/dc/elements/1.1/" xmlns:inkscape="http://www.inkscape.org/namespaces/inkscape" xmlns:rdf="http://www.w3.org/1999/02/22-rdf-syntax-ns#" xmlns:sodipodi="http://sodipodi.sourceforge.net/DTD/sodipodi-0.dtd" xmlns:svg="http://www.w3.org/2000/svg"
	 xmlns="http://www.w3.org/2000/svg" xmlns:xlink="http://www.w3.org/1999/xlink" x="0px" y="0px" viewBox="0 0 266.4 266.4"
	 enable-background="new 0 0 266.4 266.4" xml:space="preserve">
<g>
	<rect fill="#EDEDED" width="266.4" height="266.4"/>
	<g id="_x35_aL9aF.tif">
		<g>
			<path fill="#0B044A" d="M258.6,197.3c-0.3,0.1-0.2,0.4-0.3,0.6c-0.7,2.9-2.5,4.8-5.1,6.1c-2.7,1.3-5.6,1.6-8.6,1.5
				c-2.3-0.1-4.5-0.4-6.8-0.8c-0.6-0.1-1-0.4-1.1-1.1c-0.2-1.7-0.4-3.4-0.7-5.2c0.7,0.1,1.3,0.5,1.9,0.8c2.5,1.1,5,2.1,7.8,2.1
				c2.3,0,4.4-0.3,6-2c1.7-1.8,1.5-4.2-0.5-5.5c-1-0.7-2.1-1-3.2-1.5c-2-0.8-4-1.5-6-2.3c-0.6-0.2-1.2-0.6-1.8-0.9
				c-4.7-2.8-3.9-9.4-0.5-11.8c2.3-1.6,4.9-2.2,7.6-2.3c2.4,0,4.8,0.1,7.2,0.4c0.5,0.1,0.8,0.2,0.8,0.7c0.3,1.9,0.6,3.8,0.9,5.8
				c-1-0.5-1.9-1-2.8-1.5c-2.4-1.1-4.9-1.7-7.5-1.1c-0.7,0.2-1.4,0.4-2,0.8c-1.9,1.2-1.8,3.7,0.1,4.8c1,0.6,2,1,3.1,1.4
				c2,0.8,4.1,1.6,6.1,2.4c2.9,1.1,4.7,3,5.1,6.1c0,0.1,0.1,0.2,0.2,0.2C258.6,195.7,258.6,196.5,258.6,197.3z"/>
			<path fill="#0C52A5" d="M107.1,80.8c0.7,0.5,1.4,1.1,2.1,1.6c0.6,0.4,0.5,0.7,0.2,1.2c-2.3,4.1-4.4,8.4-6.2,12.8
				c-2.2,5.5-3.9,11.2-4.7,17.2c-0.5,4.3-0.6,8.7,0.7,12.9c1.3,4.4,3.8,7.8,8.1,9.6c2.7,1.1,5.6,1.3,8.4,1
				c6.3-0.7,11.9-3.4,17.2-6.6c4.9-3,9.4-6.5,13.6-10.5c11.7-11,21-23.8,27.7-38.4c2.7-5.8,4.7-11.8,5.9-18c0.9-5,1.3-10.1,0.1-15.2
				c-0.7-3-2-5.7-4.2-7.9c-2.1-2.1-4.6-3.2-7.5-3.6c-4.4-0.7-8.5,0.3-12.5,1.7c-5.8,2.1-10.9,5.3-15.8,9
				c-8.5,6.5-15.7,14.1-22.1,22.7c-1.3,1.8-2.6,3.6-3.8,5.4c-0.4,0.5-0.7,0.7-1.3,0.7c-1,0-2,0-3.1,0c-0.1-0.1,0-0.2,0.1-0.4
				c3.9-5.9,7.9-11.8,12.6-17.2c7.9-9.1,17.1-16.6,27.6-22.4c6.6-3.7,13.4-6.6,20.8-8.3c3.7-0.9,7.4-1.4,11.2-1.3
				c2.5,0.1,5,0.4,7.4,1.4c3.8,1.5,6.1,4.3,7.5,7.9c1.3,3.4,1.8,7,1.9,10.7c0.2,8.7-1.5,17.1-4.1,25.3c-5,15.5-12.8,29.6-22.8,42.4
				c-4.6,5.9-9.6,11.4-15,16.6c-8.7,8.3-18.2,15.5-29,20.8c-5.2,2.6-10.6,4.6-16.3,5.7c-4.7,0.9-9.3,1.1-14-0.2
				c-6.9-1.9-10.7-6.6-12-13.5c-0.8-3.9-0.6-7.9-0.1-11.8c1.3-9.8,4.7-18.9,8.7-27.8c3.5-7.8,7.7-15.3,12.2-22.6
				C106.5,81.4,106.6,81,107.1,80.8z"/>
			<path fill="#0B044A" d="M173.2,22.4c-11.1-0.5-21.3,2.8-31,8c-8,4.3-15.2,9.7-21.7,16c-7.5,7.3-13.8,15.5-18.9,24.6
				c-4.1,7.5-7.3,15.4-8.9,23.9c-0.2,1-0.4,2.1-0.5,3.1c-0.1,0.9-0.4,1.7-0.8,2.6c-3.4,7.3-6.4,14.8-8.3,22.6
				c-1.3,5.1-2.1,10.4-2,15.7c0.1,5.1,1.1,9.9,3.9,14.2c0.1,0.1,0.1,0.2,0.1,0.3l0,0c-0.6,0.1-0.8-0.3-1.2-0.6
				c-3.3-2.7-5.7-6.1-7.6-9.9c-2.2-4.6-3.5-9.5-4.3-14.5c-0.5-3.5-0.8-7-0.8-10.5c0-4.2,0.3-8.4,0.9-12.5c1.3-9.1,3.8-17.8,7.4-26.2
				c5.2-12,12.5-22.7,21.7-32c6.9-6.9,14.5-12.8,23.1-17.4c7.7-4.1,15.8-7.1,24.4-8.5c8.2-1.3,16.3-1.3,24.4,0.9
				C173.2,22.2,173.2,22.3,173.2,22.4z"/>
			<path fill="#F93101" d="M106.4,78.1c0.6,0,1,0,1.5,0c5.9,0,11.8,0,17.7,0c1.3,0,1.3,0,1.7-1.2c1.8-5.6,3.6-11.2,5.4-16.8
				c0.1-0.5,0.1-1.3,0.6-1.3c0.6,0,0.6,0.8,0.7,1.3c1.9,5.6,3.7,11.3,5.5,17c0.2,0.7,0.6,1,1.3,1c6,0,12,0,18,0c0.4,0,0.9,0,1.3,0
				c0.1,0.6-0.4,0.7-0.7,0.9c-4.8,3.5-9.7,7.1-14.6,10.6c-1.2,0.9-1.1,0.5-0.7,2c1.8,5.7,3.7,11.3,5.5,17c0.1,0.4,0.6,0.9,0.2,1.2
				c-0.4,0.3-0.7-0.2-1.1-0.5c-4.9-3.5-9.7-7.1-14.6-10.6c-0.9-0.7-0.9-0.7-1.9,0c-4.8,3.5-9.6,7-14.5,10.5
				c-0.3,0.2-0.7,0.8-1.1,0.5s0.1-0.8,0.2-1.2c1.9-5.8,3.7-11.5,5.6-17.3c0.2-0.6,0.1-1-0.4-1.3c-4.9-3.5-9.8-7.1-14.8-10.7
				C107,78.9,106.6,78.7,106.4,78.1z"/>
			<path fill="#0B044A" d="M117.5,204.8c-3.4-7-6.6-13.7-9.9-20.5c-0.7,2.8-2.6,18.2-1.6,20.4c-2.3,0-4.5,0-6.8,0
				c1.5-3.7,2-7.7,2.6-11.6c0.8-4.8,1.3-9.6,1.8-14.3c0.1-1.2,0-2.3-0.9-3.5c1.6,0,3.1,0.1,4.5,0c1.6-0.2,2.4,0.4,3,1.9
				c2.3,5,4.8,10,7.2,15c0.1,0.2,0.1,0.4,0.4,0.5c0.6-1.3,1.3-2.6,1.9-3.9c2-4.2,4-8.4,6-12.6c0.3-0.6,0.6-0.9,1.4-0.9
				c1.8,0.1,3.7,0,5.7,0c-1.4,1.5-1.1,3.3-1,5c0.3,4.6,0.7,9.2,1.4,13.8c0.4,2.8,0.8,5.5,1.6,8.2c0.2,0.8,0.6,1.6,1,2.4
				c-2.3,0-4.6,0-6.9,0c0.6-3.3,0.1-6.6-0.2-9.9c-0.3-3.3-0.8-6.5-1.3-9.8c0-0.1,0-0.3-0.3-0.5C124,191.3,120.8,197.9,117.5,204.8z"
				/>
			<path fill="#0B044A" d="M189.3,205.3c-5.4,0-9.6-1.6-12.9-5.3c-2.1-2.3-3.3-5.1-3.5-8.3c-0.2-3.3,0.1-6.4,1.8-9.3
				c2.1-3.6,5-5.9,9-7c4.8-1.2,9.4-1.1,13.8,1.4c5.7,3.2,8.4,8.2,7.7,14.7c-0.7,6.2-4.2,10.5-10.1,12.7
				C193,205.1,191,205.4,189.3,205.3z M199.5,189.8c0-2.5-0.7-4.7-2.1-6.7c-2.1-2.9-5.1-4.1-8.5-4.2c-3.8-0.1-6.9,1.4-8.9,4.8
				c-1.8,3.1-2,6.5-1.1,9.9c2.2,8.5,11.6,9.2,16.4,5.5C198.3,196.7,199.5,193.5,199.5,189.8z"/>
			<path fill="#0B044A" d="M226.4,175.4c2.8,0,5.3,0,7.9,0c0,0.1,0.1,0.2,0.1,0.2c-0.9,1.2-1.2,2.5-1.2,4c0,5.1,0,10.3,0,15.4
				c0,3.1,0,6.3,0,9.7c-2.3-2.3-4.4-4.7-6.5-6.9c-2.1-2.3-4.3-4.6-6.4-6.9c-2.1-2.3-4.3-4.6-6.5-7c0,0.4-0.1,0.7-0.1,1
				c0,5.3,0,10.5,0,15.8c0,1.5,0.1,2.9,1.3,4.1c-2.7,0-5.3,0-7.9,0c1.1-1.2,1.2-2.7,1.2-4.2c0-7,0-14,0-21c0-1.5-0.1-2.9-1.3-4.2
				c2,0,3.9,0,5.7,0c0.5,0,0.7,0.4,0.9,0.6c4.3,4.8,8.6,9.6,13,14.5c0.3,0.4,0.7,0.7,1.2,1.3c0-0.5,0-0.8,0-1.1c0-3.8,0-7.6,0-11.4
				C227.8,177.9,227.6,176.6,226.4,175.4z"/>
			<path fill="#0B044A" d="M44.7,204.7c-2.7,0-5.1,0-7.6,0c0-0.1-0.1-0.2,0-0.2c1-1.4,1-2.9,1-4.5c0-6.6,0-13.2,0-19.8
				c0-0.3,0-0.5,0-0.8c0-1.5-0.1-2.9-1.5-4c2.8,0,5.4,0,8.1,0c-1.2,1.4-1.2,3-1.2,4.7c0,2,0,3.9,0,5.9c0,0.5,0.1,0.7,0.7,0.7
				c4.3,0,8.6,0,12.8,0c0.6,0,0.8-0.1,0.8-0.8c0-2.3,0-4.6,0-6.8c0-1.4-0.4-2.6-1.5-3.7c2.8,0,5.3,0,8.1,0c-1.4,1.7-1.2,3.7-1.2,5.6
				c0,6.2,0,12.5,0,18.7c0,1.7,0.1,3.4,1.3,5c-2.8,0-5.4,0-8.1,0c1.7-2.1,1.4-4.6,1.4-7.1c0-1.1,0-2.3,0-3.4c0-0.7,0-1.5,0-2.2
				c0-1.2,0.2-1.2-1.1-1.2c-3.5,0-6.9,0-10.4,0c-0.9,0-2.1-0.4-2.7,0.2c-0.5,0.5-0.1,1.7-0.1,2.6c0,2.2,0,4.3,0,6.5
				C43.3,201.8,43.4,203.3,44.7,204.7z"/>
			<path fill="#0B044A" d="M147.4,215.9c-1.2,1.1-1.2,2.4-1.2,3.8c0,4.9,0,9.7,0,14.6c0,1.4-0.1,2.7-0.4,4.1c-0.7,3-2.5,5-5.3,6.2
				c-2.3,1-4.8,1.2-7.3,1.2c-2.2,0-4.5-0.2-6.6-1c-3.6-1.3-5.6-3.8-6.1-7.6c-0.3-2.3-0.1-4.6-0.2-6.9c-0.1-3.6,0-7.1,0-10.7
				c0-1.4-0.1-2.7-1.3-3.7c2.7,0,5.3,0,7.9,0c-1.2,1.2-1.2,2.7-1.2,4.2c0,4.4,0,8.8,0,13.2c0,0.8,0.1,1.6,0.2,2.3
				c0.3,2.4,1.6,4,3.9,4.7s4.6,0.7,6.8,0c2.4-0.8,3.7-2.5,4-5c0.1-1.4,0.1-2.9,0.1-4.4c0-3.9,0-7.8,0-11.7c0-1.2-0.1-2.4-1.3-3.4
				C142.2,215.9,144.7,215.9,147.4,215.9z"/>
			<path fill="#0B044A" d="M137.6,152.4c4.1-2.5,7.9-5.3,11.5-8.2c12.1-9.9,22.4-21.6,31.3-34.5c6.8-9.9,12.6-20.4,16.9-31.6
				c1.8-4.6,3.2-9.3,4.3-14.1c0.2,2,0,4-0.3,5.9c-1.7,12.8-6.6,24.4-13.1,35.4c-5.8,9.9-12.9,18.9-21.1,27
				c-7.1,7-14.8,13.1-23.6,17.7c-1.5,0.8-3.1,1.5-4.6,2.2C138.4,152.4,138.1,152.6,137.6,152.4z"/>
			<path fill="#0B044A" d="M97.3,204.8c-2.5,0-5,0-7.6,0c0.8-1.9-0.3-3.4-0.9-4.9s-1.2-2.9-1.8-4.3c-0.2-0.5-0.5-0.7-1-0.7
				c-3,0-6,0-8.9,0c-0.6,0-0.8,0.2-1,0.7c-0.9,2.1-1.7,4.2-2.6,6.3c-0.3,0.8-0.4,1.6-0.3,2.4c0,0.4-0.1,0.6-0.6,0.6
				c-2.1,0-4.2,0-6.5,0c2.5-2.4,3.2-5.6,4.5-8.5c2.7-6.1,5.3-12.2,7.9-18.3c0.4-0.9,0.5-1.7-0.5-2.6c2.1,0,3.9,0,5.7,0
				c0.6,0,0.6,0.4,0.7,0.8c1.1,2.5,2.2,5,3.3,7.5c2.5,5.6,5,11.3,7.5,16.9c0.5,1.1,1.1,2.1,1.7,3.1C97,204,97.3,204.3,97.3,204.8z
				 M84.8,190.7c-1.1-2.6-2.2-5.1-3.4-7.7c-1.2,2.7-2.3,5.2-3.4,7.7C80.3,190.7,82.5,190.7,84.8,190.7z"/>
			<path fill="#0B044A" d="M150.5,216c5,0,9.9-0.3,14.8,0.1c4,0.4,7.5,3,8.4,6.6c2,7.7-3,12.6-9.5,12.9c-3.1,0.1-5.3-1.5-6.4-4.7
				c2.5,1.5,4.9,1.2,7.3,0c2.4-1.2,3.7-3.6,3.3-6.1c-0.4-2.6-2.3-4.6-5-4.9c-2-0.2-4.1,0-6.1,0c0,0.4,0,0.8,0,1.1c0,7,0.1,14,0,21.1
				c0,1.2,0.6,2.1,1,3.2c-2.6,0-5.1,0-7.9,0c1.6-1.7,1.3-3.7,1.3-5.7c0-6.4,0-12.7,0-19.1C151.7,218.9,151.7,217.3,150.5,216z"/>
			<path fill="#0B044A" d="M137.6,175.4c4.6,0,9,0,13.4,0c1.6,0,3.2,0.3,4.7,1c4.2,1.9,6.2,5.6,5.7,10.2c-0.7,6.4-7,9-11.1,8.4
				c-2.4-0.4-4.3-2-5-4.5c2.4,1.5,4.9,1.1,7.2-0.1c2.5-1.2,3.8-4,3.1-6.5c-0.7-2.8-2.9-4.5-5.8-4.5c-1.5,0-3,0-4.5-0.1
				c-0.7,0-0.9,0.2-0.9,0.9c0.1,3.5,0.1,7.1,0.1,10.6c0,3.7,0.1,7.4,0.1,11.1c0,1,0,2,1,2.9c-2.8,0-5.3,0-7.8,0
				c-0.1-0.3,0.2-0.5,0.3-0.7c0.6-0.9,0.8-1.9,0.8-3c0-7.4,0-14.8,0-22.1C138.9,177.6,138.6,176.4,137.6,175.4z"/>
			<path fill="#0B044A" d="M33,181c-1.5-0.5-2.9-1.2-4.3-1.5c-2.8-0.7-5.6-0.6-8.3,0.4s-4.7,2.8-5.6,5.5c-1.5,4.2-1.3,8.3,1.8,11.9
				c1.8,2.1,4.3,3,7,3.5c3.3,0.6,6.5-0.2,9.5-1.5c0.6-0.3,1.1-0.5,1.8-0.8c-0.1,1-0.4,1.9-0.6,2.9c-0.2,0.9-0.5,1.7-0.7,2.6
				c-0.1,0.5-0.4,0.7-0.8,0.8c-4.9,0.8-9.7,1-14.4-0.7c-4.5-1.6-8.1-4.5-9.5-9.2c-2.2-7.7,0.4-14.7,8.2-18.3c2.9-1.3,5.9-1.8,9-1.6
				c1.9,0.1,3.8,0.2,5.6,0.2c0.5,0,0.7,0.2,0.8,0.7C32.6,177.5,32.8,179.2,33,181z"/>
			<path fill="#0B044A" d="M117.4,239.1c-0.4,1.6-0.8,3.1-1.1,4.5c-0.2,1.2-0.7,1.7-2,1.8c-4.8,0.6-9.6,0.7-14.1-1.1
				c-3.6-1.4-6.5-3.8-8.2-7.3c-0.6-1.2-1-2.6-1.2-3.9c-0.6-4.9,0.3-9.3,4-12.8c2.6-2.5,5.8-4,9.3-4.6c2.4-0.4,4.8-0.2,7.3-0.1
				c1,0,2,0.1,2.9,0.1c0.3,0,0.6,0,0.7,0.5c0.2,1.8,0.4,3.6,0.6,5.5c-1.1-0.4-2-0.8-2.9-1.1c-3.1-1.1-6.3-1.3-9.4-0.2
				c-3.2,1.1-5.3,3.3-6.3,6.5c-1.1,3.6-0.8,7.1,1.5,10.3c1.8,2.5,4.5,3.6,7.5,4.2c3.2,0.6,6.2,0,9.2-1.3
				C115.8,239.7,116.5,239.3,117.4,239.1z"/>
			<path fill="#0B044A" d="M171,204.7c-2.7,0-5.2,0-7.9,0c1.5-2,1.2-4.2,1.2-6.4c0-6.3,0-12.6,0-18.9c0-1.5,0-2.9-1.4-4.1
				c2.8,0,5.4,0,8.1,0c-0.4,0.7-1.1,1.2-1.1,2c-0.1,0.8-0.1,1.6-0.1,2.3c0,6.8,0,13.6,0,20.3C169.8,201.7,169.8,203.3,171,204.7z"/>
			<path fill="#0C52A5" d="M64.3,231.8c-5.8,0-11.5,0-17.3,0c-1.4,0-1.3,0.1-1.3-1.3c0-0.3,0-0.5,0-0.8s0.2-0.4,0.4-0.4
				c0.3,0,0.5,0,0.8,0c11.5,0,23.1,0,34.6,0c0.2,0,0.4,0,0.6,0c0.1,0,0.3,0,0.3,0c0.7,0.4,0.2,1.1,0.3,1.7c0.1,0.3,0.1,0.8-0.4,0.8
				c-0.3,0-0.6,0-0.9,0C75.8,231.8,70,231.8,64.3,231.8z"/>
			<path fill="#0C52A5" d="M200.5,231.8c-5.8,0-11.5,0-17.3,0c-1.4,0-1.3,0.1-1.3-1.3c0-0.2,0-0.5,0-0.7c0-0.4,0.2-0.6,0.6-0.5
				c0.2,0,0.5,0,0.7,0c11.5,0,23.1,0,34.6,0c0.2,0,0.4,0,0.6,0c0.1,0,0.3,0,0.3,0c0.7,0.4,0.2,1.1,0.3,1.7c0.1,0.3,0.1,0.8-0.4,0.8
				c-0.3,0-0.6,0-0.9,0C211.9,231.8,206.2,231.8,200.5,231.8z"/>
			<path fill="#0C52A5" d="M173.2,22.4c0-0.1,0-0.2,0-0.3c0.3,0.1,0.6,0.1,1,0.2C173.8,22.6,173.5,22.5,173.2,22.4z"/>
			<path fill="#0B044A" d="M85,153.5c0.1,0,0.1,0.1,0.2,0.1c0,0-0.1,0.1-0.1,0C85,153.6,85,153.5,85,153.5L85,153.5z"/>
			<path fill="#FEFDFE" d="M199.5,189.8c-0.1,3.7-1.2,6.9-4.2,9.3c-4.7,3.7-14.1,3-16.4-5.5c-0.9-3.4-0.8-6.8,1.1-9.9
				c2-3.4,5.1-4.8,8.9-4.8c3.5,0,6.4,1.3,8.5,4.2C198.8,185.1,199.5,187.4,199.5,189.8z"/>
			<path fill="#FEFDFE" d="M84.8,190.7c-2.3,0-4.5,0-6.8,0c1.1-2.6,2.2-5,3.4-7.7C82.6,185.6,83.7,188.1,84.8,190.7z"/>
		</g>
	</g>
</g>
</svg>
