<?xml version="1.0" encoding="utf-8"?>
<!-- Generator: Adobe Illustrator 21.1.0, SVG Export Plug-In . SVG Version: 6.00 Build 0)  -->
<!DOCTYPE svg PUBLIC "-//W3C//DTD SVG 1.1//EN" "http://www.w3.org/Graphics/SVG/1.1/DTD/svg11.dtd" [
	<!ENTITY ns_extend "http://ns.adobe.com/Extensibility/1.0/">
	<!ENTITY ns_ai "http://ns.adobe.com/AdobeIllustrator/10.0/">
	<!ENTITY ns_graphs "http://ns.adobe.com/Graphs/1.0/">
	<!ENTITY ns_vars "http://ns.adobe.com/Variables/1.0/">
	<!ENTITY ns_imrep "http://ns.adobe.com/ImageReplacement/1.0/">
	<!ENTITY ns_sfw "http://ns.adobe.com/SaveForWeb/1.0/">
	<!ENTITY ns_custom "http://ns.adobe.com/GenericCustomNamespace/1.0/">
	<!ENTITY ns_adobe_xpath "http://ns.adobe.com/XPath/1.0/">
	<!ENTITY st0 "fill:#B4D799;">
	<!ENTITY st1 "fill:none;stroke:#DFC287;stroke-width:1.074;stroke-miterlimit:10;">
	<!ENTITY st2 "fill:#9AC774;">
	<!ENTITY st3 "fill:none;stroke:#FFFFFF;stroke-width:2.1481;stroke-miterlimit:10;">
	<!ENTITY st4 "fill:none;stroke:#FFFFFF;stroke-width:1.074;stroke-miterlimit:10;">
	<!ENTITY st5 "fill:none;stroke:#FFFFFF;stroke-width:1.074;stroke-miterlimit:10;stroke-dasharray:7.4527,7.4527;">
	<!ENTITY st6 "fill:none;stroke:#FFFFFF;stroke-width:1.074;stroke-miterlimit:10;stroke-dasharray:7.6467,7.6467;">
	<!ENTITY st7 "opacity:0.5;">
	<!ENTITY st8 "enable-background:new    ;">
	<!ENTITY st9 "fill:#1A171B;">
	<!ENTITY st10 "fill:#FFFFFF;">
]>
<svg version="1.1" id="Calque_1" xmlns:x="&ns_extend;" xmlns:i="&ns_ai;" xmlns:graph="&ns_graphs;"
	 xmlns="http://www.w3.org/2000/svg" xmlns:xlink="http://www.w3.org/1999/xlink" x="0px" y="0px" viewBox="0 0 650 341"
	 style="enable-background:new 0 0 650 341;" xml:space="preserve">
<metadata><?xpacket begin="﻿" id="W5M0MpCehiHzreSzNTczkc9d"?>
<x:xmpmeta xmlns:x="adobe:ns:meta/" x:xmptk="Adobe XMP Core 5.6-c137 79.159768, 2016/08/11-13:24:42        ">
   <rdf:RDF xmlns:rdf="http://www.w3.org/1999/02/22-rdf-syntax-ns#">
      <rdf:Description rdf:about=""/>
   </rdf:RDF>
</x:xmpmeta>
                                                                                                    
                                                                                                    
                                                                                                    
                                                                                                    
                                                                                                    
                                                                                                    
                                                                                                    
                                                                                                    
                                                                                                    
                                                                                                    
                                                                                                    
                                                                                                    
                                                                                                    
                                                                                                    
                                                                                                    
                                                                                                    
                                                                                                    
                                                                                                    
                                                                                                    
                                                                                                    
                           
<?xpacket end="w"?>
	<sfw  xmlns="&ns_sfw;">
		<slices></slices>
		<sliceSourceBounds  bottomLeftOrigin="true" height="336.6" width="650.1" x="-0.1" y="3"></sliceSourceBounds>
	</sfw>
</metadata>
<g id="Calque_1_2_">
	<g id="Calque_1_1_">
		<g>
			<path style="&st0;" d="M48.3,337.5c-3,0-5.4-2.4-5.4-5.4V7.4c0-3,2.4-5.4,5.4-5.4h554.6c3,0,5.4,2.4,5.4,5.4v324.7
				c0,3-2.4,5.4-5.4,5.4C602.9,337.5,48.3,337.5,48.3,337.5z"/>
			<path style="&st1;" d="M48.3,337.5c-3,0-5.4-2.4-5.4-5.4V7.4c0-3,2.4-5.4,5.4-5.4h554.6c3,0,5.4,2.4,5.4,5.4v324.7
				c0,3-2.4,5.4-5.4,5.4C602.9,337.5,48.3,337.5,48.3,337.5z"/>
		</g>
		<g>
			<rect x="87.4" y="14" style="&st2;" width="33.6" height="311.5"/>
			<rect x="150.6" y="14" style="&st2;" width="33.6" height="311.5"/>
			<rect x="213.9" y="14" style="&st2;" width="33.6" height="311.5"/>
			<rect x="277" y="14" style="&st2;" width="33.6" height="311.5"/>
			<rect x="340.3" y="14" style="&st2;" width="33.6" height="311.5"/>
			<rect x="403.6" y="14" style="&st2;" width="33.6" height="311.5"/>
			<rect x="466.7" y="14" style="&st2;" width="33.6" height="311.5"/>
			<rect x="530" y="14" style="&st2;" width="33.6" height="311.5"/>
			<g>
				<g>
					<line style="&st3;" x1="326.1" y1="323" x2="326.1" y2="15.7"/>
					<line style="&st3;" x1="520.1" y1="323" x2="520.1" y2="15.7"/>
					<line style="&st3;" x1="132.8" y1="323" x2="132.8" y2="15.7"/>
					<g>
						<path style="&st2;" d="M57.7,15.8h536.6v307.9H57.7V15.8 M54.5,12.6v3.2v307.9v3.2h3.2h536.6h3.2v-3.2v-308v-3.2h-3.2H57.7
							h-3.2V12.6z"/>
						<rect x="57.7" y="15.7" style="&st3;" width="536.7" height="308"/>
					</g>
				</g>
				<g>
					<g>
						<g>
							<line style="&st4;" x1="594.3" y1="309.8" x2="590.6" y2="309.8"/>
							<line style="&st5;" x1="583.1" y1="309.8" x2="65.3" y2="309.8"/>
							<line style="&st4;" x1="61.5" y1="309.8" x2="57.7" y2="309.8"/>
						</g>
					</g>
					<g>
						<g>
							<line style="&st4;" x1="72.6" y1="323.6" x2="72.6" y2="319.9"/>
							<line style="&st6;" x1="72.6" y1="312.1" x2="72.6" y2="25.5"/>
							<line style="&st4;" x1="72.6" y1="21.6" x2="72.6" y2="17.8"/>
						</g>
					</g>
					<g>
						<g>
							<line style="&st4;" x1="268.3" y1="323.6" x2="268.3" y2="319.9"/>
							<line style="&st6;" x1="268.3" y1="312.1" x2="268.3" y2="25.5"/>
							<line style="&st4;" x1="268.3" y1="21.6" x2="268.3" y2="17.8"/>
						</g>
					</g>
					<g>
						<g>
							<line style="&st4;" x1="382.3" y1="323.6" x2="382.3" y2="319.9"/>
							<line style="&st6;" x1="382.3" y1="312.1" x2="382.3" y2="25.5"/>
							<line style="&st4;" x1="382.3" y1="21.6" x2="382.3" y2="17.8"/>
						</g>
					</g>
					<g>
						<g>
							<line style="&st4;" x1="577" y1="323.6" x2="577" y2="319.9"/>
							<line style="&st6;" x1="577" y1="312.1" x2="577" y2="25.5"/>
							<line style="&st4;" x1="577" y1="21.6" x2="577" y2="17.8"/>
						</g>
					</g>
					<g>
						<g>
							<line style="&st4;" x1="594.3" y1="29.9" x2="590.6" y2="29.9"/>
							<line style="&st5;" x1="583.1" y1="29.9" x2="65.3" y2="29.9"/>
							<line style="&st4;" x1="61.5" y1="29.9" x2="57.7" y2="29.9"/>
						</g>
					</g>
					<line style="&st4;" x1="71.9" y1="280.5" x2="56.8" y2="280.5"/>
					<line style="&st4;" x1="153.9" y1="280.5" x2="119.2" y2="280.5"/>
					<line style="&st4;" x1="286.7" y1="280.5" x2="254.3" y2="280.5"/>
					<line style="&st4;" x1="345.8" y1="280.5" x2="309.6" y2="280.5"/>
					<line style="&st4;" x1="399.7" y1="280.5" x2="365" y2="280.5"/>
					<line style="&st4;" x1="539.4" y1="280.5" x2="506" y2="280.5"/>
					<line style="&st4;" x1="594.3" y1="280.5" x2="579.8" y2="280.5"/>
					<line style="&st4;" x1="71.9" y1="63.8" x2="56.8" y2="63.8"/>
					<line style="&st4;" x1="153.9" y1="63.8" x2="119.2" y2="63.8"/>
					<line style="&st4;" x1="286.7" y1="63.8" x2="254.3" y2="63.8"/>
					<line style="&st4;" x1="345.8" y1="63.8" x2="309.6" y2="63.8"/>
					<line style="&st4;" x1="399.7" y1="63.8" x2="365" y2="63.8"/>
					<line style="&st4;" x1="539.4" y1="63.8" x2="506" y2="63.8"/>
					<line style="&st4;" x1="594.3" y1="63.8" x2="579.8" y2="63.8"/>
				</g>
			</g>
		</g>
		<g>
			<g style="&st7;">
				<g style="&st8;">
					<g>
						<path style="&st9;" d="M650,132.1v0.1c0,0.2,0,0.3,0,0.5c0,0.1,0,0.3-0.1,0.4c0,0.1-0.1,0.3-0.1,0.4c0,0.1-0.1,0.3-0.1,0.4
							c0,0.1-0.1,0.3-0.1,0.4c-0.1,0.1-0.1,0.3-0.2,0.4c-0.1,0.1-0.1,0.3-0.2,0.4c-0.1,0.1-0.1,0.3-0.2,0.4
							c-0.1,0.1-0.2,0.2-0.2,0.3c-0.1,0.1-0.2,0.2-0.3,0.3s-0.2,0.2-0.3,0.3s-0.2,0.2-0.3,0.3s-0.2,0.2-0.3,0.2
							c-0.1,0.1-0.2,0.1-0.3,0.2c-0.1,0.1-0.2,0.1-0.3,0.2c-0.1,0-0.2,0.1-0.4,0.1l-37.7,11v40.9l37.7,14.9c0.1,0,0.2,0.1,0.4,0.2
							c0.1,0.1,0.2,0.1,0.3,0.2c0.1,0.1,0.2,0.2,0.3,0.2c0.1,0.1,0.2,0.2,0.3,0.3s0.2,0.2,0.3,0.3s0.2,0.2,0.3,0.3s0.2,0.2,0.3,0.4
							c0.1,0.1,0.2,0.2,0.2,0.4c0.1,0.1,0.2,0.3,0.2,0.4c0.1,0.1,0.1,0.3,0.2,0.4s0.1,0.3,0.2,0.4c0.1,0.1,0.1,0.3,0.1,0.4
							s0.1,0.3,0.1,0.4s0.1,0.3,0.1,0.4s0,0.3,0.1,0.5c0,0.2,0,0.3,0,0.5v0.1v0.1v0.1v0.1c0,0.2,0,0.3-0.1,0.5
							c0,0.1-0.1,0.3-0.1,0.4c0,0.1-0.1,0.3-0.1,0.4c-0.1,0.1-0.1,0.2-0.2,0.4c-0.1,0.1-0.1,0.2-0.2,0.3s-0.1,0.2-0.2,0.3
							c-0.1,0.1-0.2,0.2-0.3,0.3s-0.2,0.1-0.3,0.2c-0.1,0.1-0.2,0.1-0.3,0.2c-0.1,0-0.2,0.1-0.3,0.1s-0.2,0.1-0.3,0.1s-0.2,0-0.4,0
							c-0.1,0-0.2,0-0.4,0c-0.1,0-0.2,0-0.4-0.1c-0.1,0-0.3-0.1-0.4-0.1c-0.1,0-0.3-0.1-0.4-0.2l-50.5-23.4c-0.1,0-0.1-0.1-0.2-0.1
							c-0.1,0-0.1-0.1-0.1-0.1l-0.1-0.1c0,0-0.1-0.1-0.1-0.2c0-0.1-0.1-0.1-0.1-0.2s-0.1-0.1-0.1-0.2c0-0.1-0.1-0.1-0.1-0.2
							c0-0.1-0.1-0.1-0.1-0.2c0-0.1-0.1-0.2-0.1-0.2c0-0.1-0.1-0.2-0.1-0.2c0-0.1,0-0.2-0.1-0.3c0-0.1,0-0.2-0.1-0.3
							c0-0.1,0-0.2,0-0.3s0-0.2,0-0.3s0-0.2,0-0.3s0-0.2,0-0.3v-0.1V186v-0.1v-0.1c0-0.1,0-0.2,0-0.3s0-0.2,0-0.3s0-0.2,0.1-0.3
							c0-0.1,0-0.2,0.1-0.2c0-0.1,0.1-0.2,0.1-0.2c0-0.1,0.1-0.1,0.1-0.2c0-0.1,0.1-0.1,0.1-0.2c0-0.1,0.1-0.1,0.1-0.2
							c0-0.1,0.1-0.1,0.1-0.1l0.1-0.1l0.1-0.1l0.1-0.1c0.1,0,0.1,0,0.2,0c0.1,0,0.1,0,0.2,0c0.1,0,0.1,0,0.2,0c0.1,0,0.1,0,0.2,0
							l9.3,3.8v-38.2l-9.3,2.7c-0.1,0-0.1,0-0.2,0c-0.1,0-0.1,0-0.2,0s-0.1,0-0.2,0c-0.1,0-0.1,0-0.2-0.1l-0.1-0.1l-0.1-0.1
							l-0.1-0.1c0,0-0.1-0.1-0.1-0.2c0-0.1-0.1-0.1-0.1-0.2c0-0.1-0.1-0.1-0.1-0.2c0-0.1-0.1-0.1-0.1-0.2c0-0.1-0.1-0.2-0.1-0.2
							c0-0.1,0-0.2-0.1-0.3c0-0.1,0-0.2-0.1-0.3c0-0.1,0-0.2,0-0.3s0-0.2,0-0.3v-0.1V149v-0.1v-0.1c0-0.1,0-0.2,0-0.3s0-0.2,0-0.3
							s0-0.2,0-0.3s0-0.2,0-0.3s0-0.2,0.1-0.3c0-0.1,0-0.2,0.1-0.2c0-0.1,0.1-0.2,0.1-0.2c0-0.1,0.1-0.2,0.1-0.2
							c0-0.1,0.1-0.1,0.1-0.2c0-0.1,0.1-0.1,0.1-0.2c0-0.1,0.1-0.1,0.1-0.2c0-0.1,0.1-0.1,0.1-0.2c0-0.1,0.1-0.1,0.1-0.1l0.1-0.1
							l0.1-0.1c0.1,0,0.1,0,0.2-0.1l50.5-18c0.1,0,0.3-0.1,0.4-0.1s0.3-0.1,0.4-0.1c0.1,0,0.2,0,0.4,0c0.1,0,0.2,0,0.4,0
							c0.1,0,0.2,0,0.4,0.1c0.1,0,0.2,0.1,0.3,0.1s0.2,0.1,0.3,0.2s0.2,0.1,0.3,0.2s0.2,0.2,0.3,0.2c0.1,0.1,0.2,0.2,0.3,0.3
							s0.2,0.2,0.2,0.3c0.1,0.1,0.1,0.2,0.2,0.3c0.1,0.1,0.1,0.2,0.2,0.4c0.1,0.1,0.1,0.3,0.1,0.4s0.1,0.3,0.1,0.4
							c0,0.2,0,0.3,0.1,0.5v0.1v1V132.1"/>
					</g>
				</g>
			</g>
			<path style="&st10;" d="M634.4,109.3c0.4,0.2,0.9,0.6,1.1,1.3c0.3,0.6,0.4,1.4,0.5,2.4c0,0.1,0,0.1,0,0.2s0,0.1,0,0.2
				s0,0.1,0,0.2s0,0.1,0,0.2c0,1-0.1,1.8-0.3,2.8s-0.5,1.8-0.9,2.8c-0.3,0.9-0.8,1.6-1.3,2.4c-0.4,0.6-1,1.3-1.5,1.7l-30.5,23.7V192
				l30.5,23.7c0.5,0.4,1.1,1,1.5,1.7c0.4,0.6,0.9,1.5,1.3,2.4c0.3,0.9,0.6,1.8,0.9,2.8s0.3,1.9,0.3,2.8c0,0.1,0,0.1,0,0.2
				s0,0.1,0,0.2c0,0.1,0,0.1,0,0.2c0,0.1,0,0.1,0,0.2c-0.1,1-0.2,1.7-0.5,2.4c-0.3,0.6-0.6,1.1-1.1,1.3c-0.4,0.2-1,0.3-1.5,0.1
				c-0.5-0.1-1.1-0.5-1.6-1.1l-37.8-36.4c-0.1-0.1-0.2-0.3-0.3-0.5s-0.2-0.5-0.3-0.9c-0.1-0.3-0.1-0.8-0.2-1.1
				c0-0.4-0.1-0.8-0.1-1.2v-0.1v-0.1v-0.1v-0.1c0-0.4,0-0.9,0.1-1.2s0.1-0.6,0.2-0.9c0.1-0.2,0.2-0.4,0.3-0.4c0.1-0.1,0.2-0.1,0.4,0
				l5.5,4.3v-40.9l-5.5,4.3c-0.1,0.1-0.2,0.1-0.4,0c-0.1-0.1-0.2-0.2-0.3-0.4s-0.2-0.5-0.2-0.9c-0.1-0.3-0.1-0.8-0.1-1.2V151v0v-0.1
				v-0.1c0-0.4,0-0.9,0.1-1.2c0-0.4,0.1-0.8,0.2-1.1c0.1-0.3,0.2-0.6,0.3-0.9c0.1-0.2,0.2-0.4,0.3-0.5l37.8-36.4
				c0.5-0.5,1.1-0.9,1.6-1.1C633.5,109,633.9,109,634.4,109.3z"/>
		</g>
		<g>
			<g style="&st7;">
				<g style="&st8;">
					<g>
						<path style="&st9;" d="M-0.1,132.2v0.1c0,0.2,0,0.3,0,0.5c0,0.1,0,0.3,0.1,0.4c0,0.1,0.1,0.3,0.1,0.4c0,0.1,0.1,0.3,0.1,0.4
							c0,0.1,0.1,0.3,0.1,0.4c0.1,0.1,0.1,0.3,0.2,0.4c0.1,0.1,0.1,0.3,0.2,0.4c0.1,0.1,0.1,0.3,0.2,0.4c0.1,0.1,0.2,0.2,0.2,0.3
							c0.1,0.1,0.2,0.2,0.3,0.3s0.2,0.2,0.3,0.3c0.1,0.1,0.2,0.2,0.3,0.3s0.2,0.2,0.3,0.2c0.1,0.1,0.2,0.1,0.3,0.2
							c0.1,0.1,0.2,0.1,0.3,0.2c0.1,0,0.2,0.1,0.4,0.1l37.7,11v40.9L3.7,204.9c-0.1,0-0.2,0.1-0.4,0.2c-0.1,0.1-0.2,0.1-0.3,0.2
							c-0.1,0.1-0.2,0.2-0.3,0.2c-0.1,0.1-0.2,0.2-0.3,0.3s-0.2,0.2-0.3,0.3s-0.2,0.2-0.3,0.3c-0.1,0.1-0.2,0.2-0.3,0.4
							c-0.1,0.1-0.2,0.2-0.2,0.4c-0.1,0.1-0.2,0.3-0.2,0.4C1,207.7,1,207.9,0.9,208c-0.1,0.1-0.1,0.3-0.2,0.4
							c-0.1,0.1-0.1,0.3-0.1,0.4s-0.1,0.3-0.1,0.4s-0.1,0.3-0.1,0.4s0,0.3-0.1,0.5c0,0.2,0,0.3,0,0.5v0.1v0.1v0.1v0.1
							c0,0.2,0,0.3,0.1,0.5c0,0.1,0.1,0.3,0.1,0.4c0,0.1,0.1,0.3,0.1,0.4c0.1,0.1,0.1,0.2,0.2,0.4c0.1,0.1,0.1,0.2,0.2,0.3
							s0.1,0.2,0.2,0.3s0.2,0.2,0.3,0.3s0.2,0.1,0.3,0.2s0.2,0.1,0.3,0.2c0.1,0,0.2,0.1,0.3,0.1s0.2,0.1,0.3,0.1s0.2,0,0.4,0
							c0.1,0,0.2,0,0.4,0c0.1,0,0.2,0,0.4-0.1c0.1,0,0.3-0.1,0.4-0.1s0.3-0.1,0.4-0.2l50.5-23.4c0.1,0,0.1-0.1,0.2-0.1
							s0.1-0.1,0.1-0.1l0.1-0.1c0,0,0.1-0.1,0.1-0.2c0-0.1,0.1-0.1,0.1-0.2c0-0.1,0.1-0.1,0.1-0.2c0-0.1,0.1-0.1,0.1-0.2
							s0.1-0.1,0.1-0.2c0-0.1,0.1-0.2,0.1-0.2c0-0.1,0.1-0.2,0.1-0.2c0-0.1,0-0.2,0.1-0.3c0-0.1,0-0.2,0.1-0.3c0-0.1,0-0.2,0-0.3
							s0-0.2,0-0.3s0-0.2,0-0.3s0-0.2,0-0.3v-0.1v-0.1v0.3v-0.1c0-0.1,0-0.2,0-0.3s0-0.2,0-0.3s0-0.2-0.1-0.3c0-0.1,0-0.2-0.1-0.2
							c0-0.1-0.1-0.2-0.1-0.2c0-0.1-0.1-0.1-0.1-0.2c0-0.1-0.1-0.1-0.1-0.2c0-0.1-0.1-0.1-0.1-0.2c0-0.1-0.1-0.1-0.1-0.1l-0.1-0.1
							l-0.1-0.1l-0.1-0.1c-0.1,0-0.1,0-0.2,0s-0.1,0-0.2,0s-0.1,0-0.2,0s-0.1,0-0.2,0l-9.3,3.8v-38.2l9.3,2.7c0.1,0,0.1,0,0.2,0
							c0.1,0,0.1,0,0.2,0c0.1,0,0.1,0,0.2,0c0.1,0,0.1,0,0.2-0.1l0.1-0.1l0.1-0.1l0.1-0.1c0,0,0.1-0.1,0.1-0.2
							c0-0.1,0.1-0.1,0.1-0.2c0-0.1,0.1-0.1,0.1-0.2c0-0.1,0.1-0.1,0.1-0.2c0-0.1,0.1-0.2,0.1-0.2c0-0.1,0-0.2,0.1-0.3
							c0-0.1,0-0.2,0.1-0.3c0-0.1,0-0.2,0-0.3s0-0.2,0-0.3v-0.1v-0.1V150v-0.1c0-0.1,0-0.2,0-0.3s0-0.2,0-0.3s0-0.2,0-0.3
							s0-0.2,0-0.3s0-0.2-0.1-0.3c0-0.1,0-0.2-0.1-0.2c0-0.1-0.1-0.2-0.1-0.2c0-0.1-0.1-0.2-0.1-0.2c0-0.1-0.1-0.1-0.1-0.2
							s-0.1-0.1-0.1-0.2c0-0.1-0.1-0.1-0.1-0.2c0-0.1-0.1-0.1-0.1-0.2c0-0.1-0.1-0.1-0.1-0.1l-0.1-0.1l-0.1-0.1
							c-0.1,0-0.1,0-0.2-0.1l-50.5-18c-0.1,0-0.3-0.1-0.4-0.1s-0.3-0.1-0.4-0.1s-0.2,0-0.4,0c-0.1,0-0.2,0-0.4,0
							c-0.1,0-0.2,0-0.4,0.1c-0.1,0-0.2,0.1-0.3,0.1s-0.2,0.1-0.3,0.2c-0.1,0.1-0.2,0.1-0.3,0.2c-0.1,0.1-0.2,0.2-0.3,0.2
							c-0.1,0.1-0.2,0.2-0.3,0.3c-0.1,0.1-0.2,0.2-0.2,0.3c-0.1,0.1-0.1,0.2-0.2,0.3s-0.1,0.2-0.2,0.4c-0.1,0.1-0.1,0.3-0.1,0.4
							c0,0.1-0.1,0.3-0.1,0.4c0,0.2,0,0.3-0.1,0.5v0.1v0.8L-0.1,132.2"/>
					</g>
				</g>
			</g>
			<path style="&st10;" d="M15.5,109.5c-0.4,0.2-0.9,0.6-1.1,1.3c-0.3,0.6-0.4,1.4-0.5,2.4c0,0.1,0,0.1,0,0.2s0,0.1,0,0.2
				s0,0.1,0,0.2s0,0.1,0,0.2c0,1,0.1,1.8,0.3,2.8s0.5,1.8,0.9,2.8c0.3,0.9,0.8,1.6,1.3,2.4c0.4,0.6,1,1.3,1.5,1.7l30.5,23.7v44.8
				l-30.5,23.7c-0.5,0.4-1.1,1-1.5,1.7c-0.4,0.6-0.9,1.5-1.3,2.4c-0.3,0.9-0.6,1.8-0.9,2.8c-0.2,1-0.3,1.9-0.3,2.8
				c0,0.1,0,0.1,0,0.2c0,0.1,0,0.1,0,0.2s0,0.1,0,0.2c0,0.1,0,0.1,0,0.2c0.1,1,0.2,1.7,0.5,2.4c0.3,0.6,0.6,1.1,1.1,1.3
				s1,0.3,1.5,0.1c0.5-0.1,1.1-0.5,1.6-1.1l37.8-36.8c0.1-0.1,0.2-0.3,0.3-0.5s0.2-0.5,0.3-0.9c0.1-0.3,0.1-0.8,0.2-1.1
				c0-0.4,0.1-0.8,0.1-1.2v-0.1v-0.1v-0.1v-0.1c0-0.4,0-0.9-0.1-1.2s-0.1-0.6-0.2-0.9c-0.1-0.2-0.2-0.4-0.3-0.4
				c-0.1-0.1-0.2-0.1-0.4,0l-5.5,4.3v-40.9l5.5,4.3c0.1,0.1,0.2,0.1,0.4,0c0.1-0.1,0.2-0.2,0.3-0.4s0.2-0.5,0.2-0.9
				c0.1-0.3,0.1-0.8,0.1-1.2v-0.1v-0.1v-0.1v-0.1c0-0.4,0-0.9-0.1-1.2c0-0.4-0.1-0.8-0.2-1.1c-0.1-0.3-0.2-0.6-0.3-0.9
				c-0.1-0.2-0.2-0.4-0.3-0.5l-37.8-36.5c-0.5-0.5-1.1-0.9-1.6-1.1C16.5,109.1,16,109.1,15.5,109.5z"/>
		</g>
	</g>
</g>
</svg>
