<?xml version="1.0" encoding="utf-8"?>
<!-- Generator: Adobe Illustrator 24.0.1, SVG Export Plug-In . SVG Version: 6.00 Build 0)  -->
<svg version="1.1" id="PARQUET" xmlns="http://www.w3.org/2000/svg" xmlns:xlink="http://www.w3.org/1999/xlink" x="0px" y="0px"
	 viewBox="0 0 650 340" enable-background="new 0 0 650 340" xml:space="preserve">
<g>
	<g>
		<path fill="#F9C67F" d="M82.1,13h-2.2c-5.2,0-9.5,4.3-9.5,9.5V24v138.7v7.1h11.7h506.4h-8.7v-7.1V22.5c0-5.2-4.3-9.5-9.5-9.5H82.1
			"/>
		<polygon fill="#FAD088" points="432.4,40 300,40 296.1,40 296.1,40.4 296.1,47.8 296.1,48.1 300,48.1 432.4,48.1 436.3,48.1 
			436.3,47.8 436.3,40.4 436.3,40 		"/>
		<polygon fill="#F9C67F" points="548.7,40 439.5,40 436.3,40 436.3,40.4 436.3,47.8 436.3,48.1 439.5,48.1 548.7,48.1 551.9,48.1 
			551.9,47.8 551.9,40.4 551.9,40 		"/>
		<polygon fill="#FAD088" points="578.2,40 553.3,40 551.9,40 551.9,40.4 551.9,47.8 551.9,48.1 553.3,48.1 578.2,48.1 579.7,48.1 
			579.7,47.8 579.7,40.4 579.7,40 		"/>
		<polygon fill="#FAD088" points="152.8,40 69.6,40 70.3,40 70.3,40.4 70.3,47.8 70.3,48.1 69.6,48.1 152.8,48.1 155.9,48.1 
			155.9,47.8 155.9,40.4 155.9,40 		"/>
		<polygon fill="#ECB663" points="292.2,40 159.8,40 155.9,40 155.9,40.4 155.9,47.8 155.9,48.1 159.8,48.1 292.2,48.1 296.1,48.1 
			296.1,47.8 296.1,40.4 296.1,40 		"/>
		<polygon fill="#FAD088" points="322.1,23.8 227.3,23.8 224.5,23.8 224.5,24.1 224.5,31.5 224.5,31.9 227.3,31.9 322.1,31.9 
			324.8,31.9 324.8,31.5 324.8,24.1 324.8,23.8 		"/>
		<polygon fill="#FAD088" points="542.4,23.8 447.6,23.8 444.8,23.8 444.8,24.1 444.8,31.5 444.8,31.9 447.6,31.9 542.4,31.9 
			545.2,31.9 545.2,31.5 545.2,24.1 545.2,23.8 		"/>
		<polygon fill="#ECB663" points="441.5,23.8 328.2,23.8 324.8,23.8 324.8,24.1 324.8,31.5 324.8,31.9 328.2,31.9 441.5,31.9 
			444.8,31.9 444.8,31.5 444.8,24.1 444.8,23.8 		"/>
		<polygon fill="#F9C67F" points="578.1,23.8 546.8,23.8 545.2,23.8 545.2,24.1 545.2,31.5 545.2,31.9 546.8,31.9 578.1,31.9 
			579.7,31.9 579.7,31.5 579.7,24.1 579.7,23.8 		"/>
		<polygon fill="#FAD088" points="121.9,23.8 72.5,23.8 70.3,23.8 70.3,24.1 70.3,31.5 70.3,31.9 72.5,31.9 121.9,31.9 124.1,31.9 
			124.1,31.5 124.1,24.1 124.1,23.8 		"/>
		<polygon fill="#F9C67F" points="221.7,23.8 126.9,23.8 124.1,23.8 124.1,24.1 124.1,31.5 124.1,31.9 126.9,31.9 221.7,31.9 
			224.5,31.9 224.5,31.5 224.5,24.1 224.5,23.8 		"/>
		<polygon fill="#FAD088" points="495.9,31.9 363.4,31.9 359.6,31.9 359.6,32.2 359.6,39.6 359.6,40 363.4,40 495.9,40 499.8,40 
			499.8,39.6 499.8,32.2 499.8,31.9 		"/>
		<polygon fill="#ECB663" points="576.8,31.9 502.6,31.9 499.8,31.9 499.8,32.2 499.8,39.6 499.8,40 502.6,40 576.8,40 579.7,40 
			579.7,39.6 579.7,32.2 579.7,31.9 		"/>
		<polygon fill="#F9C67F" points="105.8,31.9 72.1,31.9 70.3,31.9 70.3,32.2 70.3,39.6 70.3,40 72.1,40 105.8,40 107.6,40 
			107.6,39.6 107.6,32.2 107.6,31.9 		"/>
		<polygon fill="#FAD088" points="216.3,31.9 110.7,31.9 107.6,31.9 107.6,32.2 107.6,39.6 107.6,40 110.7,40 216.3,40 219.3,40 
			219.3,39.6 219.3,32.2 219.3,31.9 		"/>
		<polygon fill="#F9C67F" points="355.7,31.9 223.2,31.9 219.3,31.9 219.3,32.2 219.3,39.6 219.3,40 223.2,40 355.7,40 359.6,40 
			359.6,39.6 359.6,32.2 359.6,31.9 		"/>
		<polygon fill="#FAD088" points="326.1,13 420.9,13 423.6,13 423.6,13.3 423.6,15.3 423.6,15.7 420.9,15.7 326.1,15.7 323.3,15.7 
			323.3,15.3 323.3,13.3 323.3,13 		"/>
		<polygon fill="#FAD088" points="105.7,13 200.5,13 203.3,13 203.3,13.3 203.3,15.3 203.3,15.7 200.5,15.7 105.7,15.7 102.9,15.7 
			102.9,15.3 102.9,13.3 102.9,13 		"/>
		<polygon fill="#ECB663" points="206.6,13 320,13 323.3,13 323.3,13.3 323.3,15.3 323.3,15.7 320,15.7 206.6,15.7 203.3,15.7 
			203.3,15.3 203.3,13.3 203.3,13 		"/>
		<polygon fill="#ECB663" points="426.4,13 521.2,13 524,13 524,13.3 524,15.3 524,15.7 521.2,15.7 426.4,15.7 423.6,15.7 
			423.6,15.3 423.6,13.3 423.6,13 		"/>
		<polygon fill="#FAD088" points="152.2,15.7 284.7,15.7 288.6,15.7 288.6,16 288.6,23.4 288.6,23.8 284.7,23.8 152.2,23.8 
			148.4,23.8 148.4,23.4 148.4,16 148.4,15.7 		"/>
		<path fill="#F9C67F" d="M145.5,15.7h2.9V16v7.4v0.4h-2.9H70.4v-0.4c-0.1-4.2,3.4-7.7,7.6-7.7H145.5z"/>
		<path fill="#F9C67F" d="M542.3,15.7H573c3.7,0,6.7,3,6.7,6.7v1.1v0.4h-1.8h-35.6h-1.8v-0.4V16v-0.4L542.3,15.7L542.3,15.7z"/>
		<polygon fill="#FAD088" points="431.9,15.7 537.4,15.7 540.5,15.7 540.5,16 540.5,23.4 540.5,23.8 537.4,23.8 431.9,23.8 
			428.8,23.8 428.8,23.4 428.8,16 428.8,15.7 		"/>
		<polygon fill="#F9C67F" points="292.5,15.7 424.9,15.7 428.8,15.7 428.8,16 428.8,23.4 428.8,23.8 424.9,23.8 292.5,23.8 
			288.6,23.8 288.6,23.4 288.6,16 288.6,15.7 		"/>
		<polygon fill="#ECB663" points="326.1,153.5 420.9,153.5 423.6,153.5 423.6,153.9 423.6,161.3 423.6,161.6 420.9,161.6 
			326.1,161.6 323.3,161.6 323.3,161.3 323.3,153.9 323.3,153.5 		"/>
		<polygon fill="#FAD088" points="105.7,153.5 200.5,153.5 203.3,153.5 203.3,153.9 203.3,161.3 203.3,161.6 200.5,161.6 
			105.7,161.6 102.9,161.6 102.9,161.3 102.9,153.9 102.9,153.5 		"/>
		<polygon fill="#F9C67F" points="206.6,153.5 320,153.5 323.3,153.5 323.3,153.9 323.3,161.3 323.3,161.6 320,161.6 206.6,161.6 
			203.3,161.6 203.3,161.3 203.3,153.9 203.3,153.5 		"/>
		<polygon fill="#ECB663" points="71.9,153.5 101.3,153.5 102.9,153.5 102.9,153.9 102.9,161.3 102.9,161.6 101.3,161.6 71.9,161.6 
			70.3,161.6 70.3,161.3 70.3,153.9 70.3,153.5 		"/>
		<polygon fill="#ECB663" points="526.2,153.5 577.5,153.5 579.7,153.5 579.7,153.9 579.7,161.3 579.7,161.6 577.5,161.6 
			526.2,161.6 524,161.6 524,161.3 524,153.9 524,153.5 		"/>
		<polygon fill="#F9C67F" points="426.4,153.5 521.2,153.5 524,153.5 524,153.9 524,161.3 524,161.6 521.2,161.6 426.4,161.6 
			423.6,161.6 423.6,161.3 423.6,153.9 423.6,153.5 		"/>
		<polygon fill="#ECB663" points="152.2,161.6 284.7,161.6 288.6,161.6 288.6,162 288.6,169.4 288.6,169.7 284.7,169.7 152.2,169.7 
			148.4,169.7 148.4,169.4 148.4,162 148.4,161.6 		"/>
		<polygon fill="#F9C67F" points="69.4,161.6 145.5,161.6 148.4,161.6 148.4,162 148.4,169.4 148.4,169.7 145.5,169.7 69.4,169.7 
			70.3,169.7 70.3,169.4 70.3,162 70.3,161.6 		"/>
		<polygon fill="#F9C67F" points="542.3,161.6 577.9,161.6 579.7,161.6 579.7,162 579.7,169.4 579.7,169.7 577.9,169.7 542.3,169.7 
			540.6,169.7 540.6,169.4 540.6,162 540.6,161.6 		"/>
		<polygon fill="#FAD088" points="431.9,161.6 537.4,161.6 540.5,161.6 540.5,162 540.5,169.4 540.5,169.7 537.4,169.7 431.9,169.7 
			428.8,169.7 428.8,169.4 428.8,162 428.8,161.6 		"/>
		<polygon fill="#F9C67F" points="292.5,161.6 424.9,161.6 428.8,161.6 428.8,162 428.8,169.4 428.8,169.7 424.9,169.7 292.5,169.7 
			288.6,169.7 288.6,169.4 288.6,162 288.6,161.6 		"/>
		<polygon fill="#FAD088" points="326.1,137.3 420.9,137.3 423.6,137.3 423.6,137.7 423.6,145.1 423.6,145.4 420.9,145.4 
			326.1,145.4 323.3,145.4 323.3,145.1 323.3,137.7 323.3,137.3 		"/>
		<polygon fill="#FAD088" points="105.7,137.3 200.5,137.3 203.3,137.3 203.3,137.7 203.3,145.1 203.3,145.4 200.5,145.4 
			105.7,145.4 102.9,145.4 102.9,145.1 102.9,137.7 102.9,137.3 		"/>
		<polygon fill="#F9C67F" points="206.6,137.3 320,137.3 323.3,137.3 323.3,137.7 323.3,145.1 323.3,145.4 320,145.4 206.6,145.4 
			203.3,145.4 203.3,145.1 203.3,137.7 203.3,137.3 		"/>
		<polygon fill="#ECB663" points="71.9,137.3 101.3,137.3 102.9,137.3 102.9,137.7 102.9,145.1 102.9,145.4 101.3,145.4 71.9,145.4 
			70.3,145.4 70.3,145.1 70.3,137.7 70.3,137.3 		"/>
		<polygon fill="#FAD088" points="526.2,137.3 577.5,137.3 579.7,137.3 579.7,137.7 579.7,145.1 579.7,145.4 577.5,145.4 
			526.2,145.4 524,145.4 524,145.1 524,137.7 524,137.3 		"/>
		<polygon fill="#F9C67F" points="426.4,137.3 521.2,137.3 524,137.3 524,137.7 524,145.1 524,145.4 521.2,145.4 426.4,145.4 
			423.6,145.4 423.6,145.1 423.6,137.7 423.6,137.3 		"/>
		<polygon fill="#ECB663" points="152.2,145.4 284.7,145.4 288.6,145.4 288.6,145.8 288.6,153.2 288.6,153.5 284.7,153.5 
			152.2,153.5 148.4,153.5 148.4,153.2 148.4,145.8 148.4,145.4 		"/>
		<polygon fill="#F9C67F" points="69.4,145.4 145.5,145.4 148.4,145.4 148.4,145.8 148.4,153.2 148.4,153.5 145.5,153.5 69.4,153.5 
			70.3,153.5 70.3,153.2 70.3,145.8 70.3,145.4 		"/>
		<polygon fill="#F9C67F" points="542.3,145.4 577.9,145.4 579.7,145.4 579.7,145.8 579.7,153.2 579.7,153.5 577.9,153.5 
			542.3,153.5 540.6,153.5 540.6,153.2 540.6,145.8 540.6,145.4 		"/>
		<polygon fill="#FAD088" points="431.9,145.4 537.4,145.4 540.5,145.4 540.5,145.8 540.5,153.2 540.5,153.5 537.4,153.5 
			431.9,153.5 428.8,153.5 428.8,153.2 428.8,145.8 428.8,145.4 		"/>
		<polygon fill="#F9C67F" points="292.5,145.4 424.9,145.4 428.8,145.4 428.8,145.8 428.8,153.2 428.8,153.5 424.9,153.5 
			292.5,153.5 288.6,153.5 288.6,153.2 288.6,145.8 288.6,145.4 		"/>
		<polygon fill="#ECB663" points="322.1,121.1 227.3,121.1 224.5,121.1 224.5,121.4 224.5,128.8 224.5,129.2 227.3,129.2 
			322.1,129.2 324.8,129.2 324.8,128.8 324.8,121.4 324.8,121.1 		"/>
		<polygon fill="#FAD088" points="542.4,121.1 447.6,121.1 444.8,121.1 444.8,121.4 444.8,128.8 444.8,129.2 447.6,129.2 
			542.4,129.2 545.2,129.2 545.2,128.8 545.2,121.4 545.2,121.1 		"/>
		<polygon fill="#F9C67F" points="441.5,121.1 328.2,121.1 324.8,121.1 324.8,121.4 324.8,128.8 324.8,129.2 328.2,129.2 
			441.5,129.2 444.8,129.2 444.8,128.8 444.8,121.4 444.8,121.1 		"/>
		<polygon fill="#ECB663" points="578.1,121.1 546.8,121.1 545.2,121.1 545.2,121.4 545.2,128.8 545.2,129.2 546.8,129.2 
			578.1,129.2 579.7,129.2 579.7,128.8 579.7,121.4 579.7,121.1 		"/>
		<polygon fill="#FAD088" points="121.9,121.1 72.5,121.1 70.3,121.1 70.3,121.4 70.3,128.8 70.3,129.2 72.5,129.2 121.9,129.2 
			124.1,129.2 124.1,128.8 124.1,121.4 124.1,121.1 		"/>
		<polygon fill="#F9C67F" points="221.7,121.1 126.9,121.1 124.1,121.1 124.1,121.4 124.1,128.8 124.1,129.2 126.9,129.2 
			221.7,129.2 224.5,129.2 224.5,128.8 224.5,121.4 224.5,121.1 		"/>
		<polygon fill="#FAD088" points="495.9,129.2 363.4,129.2 359.6,129.2 359.6,129.6 359.6,137 359.6,137.3 363.4,137.3 495.9,137.3 
			499.8,137.3 499.8,137 499.8,129.6 499.8,129.2 		"/>
		<polygon fill="#F9C67F" points="576.8,129.2 502.6,129.2 499.8,129.2 499.8,129.6 499.8,137 499.8,137.3 502.6,137.3 576.8,137.3 
			579.7,137.3 579.7,137 579.7,129.6 579.7,129.2 		"/>
		<polygon fill="#F9C67F" points="105.8,129.2 72.1,129.2 70.3,129.2 70.3,129.6 70.3,137 70.3,137.3 72.1,137.3 105.8,137.3 
			107.6,137.3 107.6,137 107.6,129.6 107.6,129.2 		"/>
		<polygon fill="#FAD088" points="216.3,129.2 110.7,129.2 107.6,129.2 107.6,129.6 107.6,137 107.6,137.3 110.7,137.3 216.3,137.3 
			219.3,137.3 219.3,137 219.3,129.6 219.3,129.2 		"/>
		<polygon fill="#F9C67F" points="355.7,129.2 223.2,129.2 219.3,129.2 219.3,129.6 219.3,137 219.3,137.3 223.2,137.3 355.7,137.3 
			359.6,137.3 359.6,137 359.6,129.6 359.6,129.2 		"/>
		<polygon fill="#ECB663" points="322.8,48.1 401.6,48.1 403.9,48.1 403.9,48.5 403.9,55.9 403.9,56.2 401.6,56.2 322.8,56.2 
			320.5,56.2 320.5,55.9 320.5,48.5 320.5,48.1 		"/>
		<polygon fill="#FAD088" points="139.8,48.1 218.5,48.1 220.8,48.1 220.8,48.5 220.8,55.9 220.8,56.2 218.5,56.2 139.8,56.2 
			137.5,56.2 137.5,55.9 137.5,48.5 137.5,48.1 		"/>
		<polygon fill="#F9C67F" points="223.6,48.1 317.8,48.1 320.5,48.1 320.5,48.5 320.5,55.9 320.5,56.2 317.8,56.2 223.6,56.2 
			220.8,56.2 220.8,55.9 220.8,48.5 220.8,48.1 		"/>
		<polygon fill="#F9C67F" points="69.2,48.1 134.9,48.1 137.5,48.1 137.5,48.5 137.5,55.9 137.5,56.2 134.9,56.2 69.2,56.2 
			70.3,56.2 70.3,55.9 70.3,48.5 70.3,48.1 		"/>
		<polygon fill="#FAD088" points="490.5,48.1 576.4,48.1 579.7,48.1 579.7,48.5 579.7,55.9 579.7,56.2 576.4,56.2 490.5,56.2 
			487.3,56.2 487.3,55.9 487.3,48.5 487.3,48.1 		"/>
		<polygon fill="#F9C67F" points="406.2,48.1 484.9,48.1 487.3,48.1 487.3,48.5 487.3,55.9 487.3,56.2 484.9,56.2 406.2,56.2 
			403.9,56.2 403.9,55.9 403.9,48.5 403.9,48.1 		"/>
		<polygon fill="#FAD088" points="178.4,56.2 288.5,56.2 291.7,56.2 291.7,56.6 291.7,64 291.7,64.3 288.5,64.3 178.4,64.3 
			175.2,64.3 175.2,64 175.2,56.6 175.2,56.2 		"/>
		<polygon fill="#FAD088" points="71.5,56.2 87.4,56.2 88.6,56.2 88.6,56.6 88.6,64 88.6,64.3 87.4,64.3 71.5,64.3 70.3,64.3 
			70.3,64 70.3,56.6 70.3,56.2 		"/>
		<polygon fill="#ECB663" points="91,56.2 172.8,56.2 175.2,56.2 175.2,56.6 175.2,64 175.2,64.3 172.8,64.3 91,64.3 88.6,64.3 
			88.6,64 88.6,56.6 88.6,56.2 		"/>
		<polygon fill="#F9C67F" points="503.9,56.2 576.8,56.2 579.7,56.2 579.7,56.6 579.7,64 579.7,64.3 576.8,64.3 503.9,64.3 
			501,64.3 501,64 501,56.6 501,56.2 		"/>
		<polygon fill="#FAD088" points="410.7,56.2 498.4,56.2 501,56.2 501,56.6 501,64 501,64.3 498.4,64.3 410.7,64.3 408.2,64.3 
			408.2,64 408.2,56.6 408.2,56.2 		"/>
		<polygon fill="#F9C67F" points="294.9,56.2 404.9,56.2 408.2,56.2 408.2,56.6 408.2,64 408.2,64.3 404.9,64.3 294.9,64.3 
			291.7,64.3 291.7,64 291.7,56.6 291.7,56.2 		"/>
		<polygon fill="#FAD088" points="432.4,96.8 300,96.8 296.1,96.8 296.1,97.1 296.1,104.5 296.1,104.9 300,104.9 432.4,104.9 
			436.3,104.9 436.3,104.5 436.3,97.1 436.3,96.8 		"/>
		<polygon fill="#F9C67F" points="548.7,96.8 439.5,96.8 436.3,96.8 436.3,97.1 436.3,104.5 436.3,104.9 439.5,104.9 548.7,104.9 
			551.9,104.9 551.9,104.5 551.9,97.1 551.9,96.8 		"/>
		<polygon fill="#FAD088" points="578.3,96.8 553.3,96.8 551.9,96.8 551.9,97.1 551.9,104.5 551.9,104.9 553.3,104.9 578.3,104.9 
			579.7,104.9 579.7,104.5 579.7,97.1 579.7,96.8 		"/>
		<polygon fill="#FAD088" points="152.8,96.8 69.6,96.8 70.3,96.8 70.3,97.1 70.3,104.5 70.3,104.9 69.6,104.9 152.8,104.9 
			155.9,104.9 155.9,104.5 155.9,97.1 155.9,96.8 		"/>
		<polygon fill="#ECB663" points="292.2,96.8 159.8,96.8 155.9,96.8 155.9,97.1 155.9,104.5 155.9,104.9 159.8,104.9 292.2,104.9 
			296.1,104.9 296.1,104.5 296.1,97.1 296.1,96.8 		"/>
		<polygon fill="#FAD088" points="322.1,80.5 227.3,80.5 224.5,80.5 224.5,80.9 224.5,88.3 224.5,88.7 227.3,88.7 322.1,88.7 
			324.8,88.7 324.8,88.3 324.8,80.9 324.8,80.5 		"/>
		<polygon fill="#FAD088" points="542.4,80.5 447.6,80.5 444.8,80.5 444.8,80.9 444.8,88.3 444.8,88.7 447.6,88.7 542.4,88.7 
			545.2,88.7 545.2,88.3 545.2,80.9 545.2,80.5 		"/>
		<polygon fill="#F9C67F" points="441.5,80.5 328.2,80.5 324.8,80.5 324.8,80.9 324.8,88.3 324.8,88.7 328.2,88.7 441.5,88.7 
			444.8,88.7 444.8,88.3 444.8,80.9 444.8,80.5 		"/>
		<polygon fill="#F9C67F" points="578.1,80.5 546.8,80.5 545.2,80.5 545.2,80.9 545.2,88.3 545.2,88.7 546.8,88.7 578.1,88.7 
			579.7,88.7 579.7,88.3 579.7,80.9 579.7,80.5 		"/>
		<polygon fill="#FAD088" points="121.9,80.5 72.5,80.5 70.3,80.5 70.3,80.9 70.3,88.3 70.3,88.7 72.5,88.7 121.9,88.7 124.1,88.7 
			124.1,88.3 124.1,80.9 124.1,80.5 		"/>
		<polygon fill="#F9C67F" points="221.7,80.5 126.9,80.5 124.1,80.5 124.1,80.9 124.1,88.3 124.1,88.7 126.9,88.7 221.7,88.7 
			224.5,88.7 224.5,88.3 224.5,80.9 224.5,80.5 		"/>
		<polygon fill="#ECB663" points="495.9,88.7 363.4,88.7 359.6,88.7 359.6,89 359.6,96.4 359.6,96.8 363.4,96.8 495.9,96.8 
			499.8,96.8 499.8,96.4 499.8,89 499.8,88.7 		"/>
		<polygon fill="#F9C67F" points="576.8,88.7 502.6,88.7 499.8,88.7 499.8,89 499.8,96.4 499.8,96.8 502.6,96.8 576.8,96.8 
			579.7,96.8 579.7,96.4 579.7,89 579.7,88.7 		"/>
		<polygon fill="#ECB663" points="105.8,88.7 72.1,88.7 70.3,88.7 70.3,89 70.3,96.4 70.3,96.8 72.1,96.8 105.8,96.8 107.6,96.8 
			107.6,96.4 107.6,89 107.6,88.7 		"/>
		<polygon fill="#FAD088" points="216.3,88.7 110.7,88.7 107.6,88.7 107.6,89 107.6,96.4 107.6,96.8 110.7,96.8 216.3,96.8 
			219.3,96.8 219.3,96.4 219.3,89 219.3,88.7 		"/>
		<polygon fill="#F9C67F" points="355.7,88.7 223.2,88.7 219.3,88.7 219.3,89 219.3,96.4 219.3,96.8 223.2,96.8 355.7,96.8 
			359.6,96.8 359.6,96.4 359.6,89 359.6,88.7 		"/>
		<polygon fill="#ECB663" points="326.1,64.3 420.9,64.3 423.6,64.3 423.6,64.7 423.6,72.1 423.6,72.4 420.9,72.4 326.1,72.4 
			323.3,72.4 323.3,72.1 323.3,64.7 323.3,64.3 		"/>
		<polygon fill="#FAD088" points="105.7,64.3 200.5,64.3 203.3,64.3 203.3,64.7 203.3,72.1 203.3,72.4 200.5,72.4 105.7,72.4 
			102.9,72.4 102.9,72.1 102.9,64.7 102.9,64.3 		"/>
		<polygon fill="#F9C67F" points="206.6,64.3 320,64.3 323.3,64.3 323.3,64.7 323.3,72.1 323.3,72.4 320,72.4 206.6,72.4 
			203.3,72.4 203.3,72.1 203.3,64.7 203.3,64.3 		"/>
		<polygon fill="#F9C67F" points="71.9,64.3 101.3,64.3 102.9,64.3 102.9,64.7 102.9,72.1 102.9,72.4 101.3,72.4 71.9,72.4 
			70.3,72.4 70.3,72.1 70.3,64.7 70.3,64.3 		"/>
		<polygon fill="#FAD088" points="526.2,64.3 577.5,64.3 579.7,64.3 579.7,64.7 579.7,72.1 579.7,72.4 577.5,72.4 526.2,72.4 
			524,72.4 524,72.1 524,64.7 524,64.3 		"/>
		<polygon fill="#F9C67F" points="426.4,64.3 521.2,64.3 524,64.3 524,64.7 524,72.1 524,72.4 521.2,72.4 426.4,72.4 423.6,72.4 
			423.6,72.1 423.6,64.7 423.6,64.3 		"/>
		<polygon fill="#FAD088" points="152.2,72.4 284.7,72.4 288.6,72.4 288.6,72.8 288.6,80.2 288.6,80.5 284.7,80.5 152.2,80.5 
			148.4,80.5 148.4,80.2 148.4,72.8 148.4,72.4 		"/>
		<polygon fill="#F9C67F" points="69.4,72.4 145.5,72.4 148.4,72.4 148.4,72.8 148.4,80.2 148.4,80.5 145.5,80.5 69.4,80.5 
			70.3,80.5 70.3,80.2 70.3,72.8 70.3,72.4 		"/>
		<polygon fill="#ECB663" points="503.9,72.4 576.8,72.4 579.7,72.4 579.7,72.8 579.7,80.2 579.7,80.5 576.8,80.5 503.9,80.5 
			501,80.5 501,80.2 501,72.8 501,72.4 		"/>
		<polygon fill="#FAD088" points="430.8,72.4 499,72.4 501,72.4 501,72.8 501,80.2 501,80.5 499,80.5 430.8,80.5 428.8,80.5 
			428.8,80.2 428.8,72.8 428.8,72.4 		"/>
		<polygon fill="#F9C67F" points="292.5,72.4 424.9,72.4 428.8,72.4 428.8,72.8 428.8,80.2 428.8,80.5 424.9,80.5 292.5,80.5 
			288.6,80.5 288.6,80.2 288.6,72.8 288.6,72.4 		"/>
		<polygon fill="#FAD088" points="322.8,104.9 401.6,104.9 403.9,104.9 403.9,105.2 403.9,112.6 403.9,113 401.6,113 322.8,113 
			320.5,113 320.5,112.6 320.5,105.2 320.5,104.9 		"/>
		<polygon fill="#ECB663" points="139.8,104.9 218.5,104.9 220.8,104.9 220.8,105.2 220.8,112.6 220.8,113 218.5,113 139.8,113 
			137.5,113 137.5,112.6 137.5,105.2 137.5,104.9 		"/>
		<polygon fill="#F9C67F" points="223.6,104.9 317.8,104.9 320.5,104.9 320.5,105.2 320.5,112.6 320.5,113 317.8,113 223.6,113 
			220.8,113 220.8,112.6 220.8,105.2 220.8,104.9 		"/>
		<polygon fill="#F9C67F" points="69.2,104.9 134.9,104.9 137.5,104.9 137.5,105.2 137.5,112.6 137.5,113 134.9,113 69.2,113 
			70.3,113 70.3,112.6 70.3,105.2 70.3,104.9 		"/>
		<polygon fill="#FAD088" points="490.5,104.9 576.4,104.9 579.7,104.9 579.7,105.2 579.7,112.6 579.7,113 576.4,113 490.5,113 
			487.3,113 487.3,112.6 487.3,105.2 487.3,104.9 		"/>
		<polygon fill="#F9C67F" points="406.2,104.9 484.9,104.9 487.3,104.9 487.3,105.2 487.3,112.6 487.3,113 484.9,113 406.2,113 
			403.9,113 403.9,112.6 403.9,105.2 403.9,104.9 		"/>
		<polygon fill="#FAD088" points="178.4,113 288.5,113 291.7,113 291.7,113.3 291.7,120.7 291.7,121.1 288.5,121.1 178.4,121.1 
			175.2,121.1 175.2,120.7 175.2,113.3 175.2,113 		"/>
		<polygon fill="#FAD088" points="71.5,113 87.4,113 88.6,113 88.6,113.3 88.6,120.7 88.6,121.1 87.4,121.1 71.5,121.1 70.3,121.1 
			70.3,120.7 70.3,113.3 70.3,113 		"/>
		<polygon fill="#F9C67F" points="91,113 172.8,113 175.2,113 175.2,113.3 175.2,120.7 175.2,121.1 172.8,121.1 91,121.1 
			88.6,121.1 88.6,120.7 88.6,113.3 88.6,113 		"/>
		<polygon fill="#F9C67F" points="503.9,113 576.8,113 579.7,113 579.7,113.3 579.7,120.7 579.7,121.1 576.8,121.1 503.9,121.1 
			501,121.1 501,120.7 501,113.3 501,113 		"/>
		<polygon fill="#FAD088" points="410.7,113 498.4,113 501,113 501,113.3 501,120.7 501,121.1 498.4,121.1 410.7,121.1 408.2,121.1 
			408.2,120.7 408.2,113.3 408.2,113 		"/>
		<polygon fill="#F9C67F" points="294.9,113 404.9,113 408.2,113 408.2,113.3 408.2,120.7 408.2,121.1 404.9,121.1 294.9,121.1 
			291.7,121.1 291.7,120.7 291.7,113.3 291.7,113 		"/>
		<path fill="#F9C67F" d="M588.4,169.7H82.1H70.3v7.1V317c0,5.2,4.3,9.5,9.5,9.5H82h488.1c5.2,0,9.5-4.3,9.5-9.5V176.8v-7.1H588.4z"
			/>
		<polygon fill="#FAD088" points="432.4,202.2 300,202.2 296.1,202.2 296.1,202.5 296.1,209.9 296.1,210.3 300,210.3 432.4,210.3 
			436.3,210.3 436.3,209.9 436.3,202.5 436.3,202.2 		"/>
		<polygon fill="#F9C67F" points="548.7,202.2 439.5,202.2 436.3,202.2 436.3,202.5 436.3,209.9 436.3,210.3 439.5,210.3 
			548.7,210.3 551.9,210.3 551.9,209.9 551.9,202.5 551.9,202.2 		"/>
		<polygon fill="#FAD088" points="578.2,202.2 553.3,202.2 551.9,202.2 551.9,202.5 551.9,209.9 551.9,210.3 553.3,210.3 
			578.2,210.3 579.7,210.3 579.7,209.9 579.7,202.5 579.7,202.2 		"/>
		<polygon fill="#FAD088" points="152.8,202.2 69.6,202.2 70.3,202.2 70.3,202.5 70.3,209.9 70.3,210.3 69.6,210.3 152.8,210.3 
			155.9,210.3 155.9,209.9 155.9,202.5 155.9,202.2 		"/>
		<polygon fill="#ECB663" points="292.2,202.2 159.8,202.2 155.9,202.2 155.9,202.5 155.9,209.9 155.9,210.3 159.8,210.3 
			292.2,210.3 296.1,210.3 296.1,209.9 296.1,202.5 296.1,202.2 		"/>
		<polygon fill="#FAD088" points="322.1,185.9 227.3,185.9 224.5,185.9 224.5,186.3 224.5,193.7 224.5,194 227.3,194 322.1,194 
			324.8,194 324.8,193.7 324.8,186.3 324.8,185.9 		"/>
		<polygon fill="#FAD088" points="542.4,185.9 447.6,185.9 444.8,185.9 444.8,186.3 444.8,193.7 444.8,194 447.6,194 542.4,194 
			545.2,194 545.2,193.7 545.2,186.3 545.2,185.9 		"/>
		<polygon fill="#F9C67F" points="441.5,185.9 328.2,185.9 324.8,185.9 324.8,186.3 324.8,193.7 324.8,194 328.2,194 441.5,194 
			444.8,194 444.8,193.7 444.8,186.3 444.8,185.9 		"/>
		<polygon fill="#ECB663" points="578.1,185.9 546.8,185.9 545.2,185.9 545.2,186.3 545.2,193.7 545.2,194 546.8,194 578.1,194 
			579.7,194 579.7,193.7 579.7,186.3 579.7,185.9 		"/>
		<polygon fill="#FAD088" points="121.9,185.9 72.5,185.9 70.3,185.9 70.3,186.3 70.3,193.7 70.3,194 72.5,194 121.9,194 124.1,194 
			124.1,193.7 124.1,186.3 124.1,185.9 		"/>
		<polygon fill="#F9C67F" points="221.7,185.9 126.9,185.9 124.1,185.9 124.1,186.3 124.1,193.7 124.1,194 126.9,194 221.7,194 
			224.5,194 224.5,193.7 224.5,186.3 224.5,185.9 		"/>
		<polygon fill="#ECB663" points="495.9,194 363.4,194 359.6,194 359.6,194.4 359.6,201.8 359.6,202.2 363.4,202.2 495.9,202.2 
			499.8,202.2 499.8,201.8 499.8,194.4 499.8,194 		"/>
		<polygon fill="#F9C67F" points="576.8,194 502.6,194 499.8,194 499.8,194.4 499.8,201.8 499.8,202.2 502.6,202.2 576.8,202.2 
			579.7,202.2 579.7,201.8 579.7,194.4 579.7,194 		"/>
		<polygon fill="#F9C67F" points="105.8,194 72.1,194 70.3,194 70.3,194.4 70.3,201.8 70.3,202.2 72.1,202.2 105.8,202.2 
			107.6,202.2 107.6,201.8 107.6,194.4 107.6,194 		"/>
		<polygon fill="#FAD088" points="216.3,194 110.7,194 107.6,194 107.6,194.4 107.6,201.8 107.6,202.2 110.7,202.2 216.3,202.2 
			219.3,202.2 219.3,201.8 219.3,194.4 219.3,194 		"/>
		<polygon fill="#F9C67F" points="355.7,194 223.2,194 219.3,194 219.3,194.4 219.3,201.8 219.3,202.2 223.2,202.2 355.7,202.2 
			359.6,202.2 359.6,201.8 359.6,194.4 359.6,194 		"/>
		<polygon fill="#FAD088" points="326.1,169.7 420.9,169.7 423.6,169.7 423.6,170.1 423.6,177.5 423.6,177.8 420.9,177.8 
			326.1,177.8 323.3,177.8 323.3,177.5 323.3,170.1 323.3,169.7 		"/>
		<polygon fill="#FAD088" points="105.7,169.7 200.5,169.7 203.3,169.7 203.3,170.1 203.3,177.5 203.3,177.8 200.5,177.8 
			105.7,177.8 102.9,177.8 102.9,177.5 102.9,170.1 102.9,169.7 		"/>
		<polygon fill="#F9C67F" points="206.6,169.7 320,169.7 323.3,169.7 323.3,170.1 323.3,177.5 323.3,177.8 320,177.8 206.6,177.8 
			203.3,177.8 203.3,177.5 203.3,170.1 203.3,169.7 		"/>
		<polygon fill="#F9C67F" points="71.9,169.7 101.3,169.7 102.9,169.7 102.9,170.1 102.9,177.5 102.9,177.8 101.3,177.8 71.9,177.8 
			70.3,177.8 70.3,177.5 70.3,170.1 70.3,169.7 		"/>
		<polygon fill="#FAD088" points="526.2,169.7 577.5,169.7 579.7,169.7 579.7,170.1 579.7,177.5 579.7,177.8 577.5,177.8 
			526.2,177.8 524,177.8 524,177.5 524,170.1 524,169.7 		"/>
		<polygon fill="#F9C67F" points="426.4,169.7 521.2,169.7 524,169.7 524,170.1 524,177.5 524,177.8 521.2,177.8 426.4,177.8 
			423.6,177.8 423.6,177.5 423.6,170.1 423.6,169.7 		"/>
		<polygon fill="#FAD088" points="152.2,177.8 284.7,177.8 288.6,177.8 288.6,178.2 288.6,185.6 288.6,185.9 284.7,185.9 
			152.2,185.9 148.4,185.9 148.4,185.6 148.4,178.2 148.4,177.8 		"/>
		<polygon fill="#ECB663" points="69.4,177.8 145.5,177.8 148.4,177.8 148.4,178.2 148.4,185.6 148.4,185.9 145.5,185.9 69.4,185.9 
			70.3,185.9 70.3,185.6 70.3,178.2 70.3,177.8 		"/>
		<polygon fill="#F9C67F" points="542.3,177.8 577.9,177.8 579.7,177.8 579.7,178.2 579.7,185.6 579.7,185.9 577.9,185.9 
			542.3,185.9 540.6,185.9 540.6,185.6 540.6,178.2 540.6,177.8 		"/>
		<polygon fill="#FAD088" points="431.9,177.8 537.4,177.8 540.5,177.8 540.5,178.2 540.5,185.6 540.5,185.9 537.4,185.9 
			431.9,185.9 428.8,185.9 428.8,185.6 428.8,178.2 428.8,177.8 		"/>
		<polygon fill="#ECB663" points="292.5,177.8 424.9,177.8 428.8,177.8 428.8,178.2 428.8,185.6 428.8,185.9 424.9,185.9 
			292.5,185.9 288.6,185.9 288.6,185.6 288.6,178.2 288.6,177.8 		"/>
		<polygon fill="#FAD088" points="326.1,315.7 420.9,315.7 423.6,315.7 423.6,316 423.6,323.4 423.6,323.8 420.9,323.8 326.1,323.8 
			323.3,323.8 323.3,323.4 323.3,316 323.3,315.7 		"/>
		<polygon fill="#FAD088" points="105.7,315.7 200.5,315.7 203.3,315.7 203.3,316 203.3,323.4 203.3,323.8 200.5,323.8 105.7,323.8 
			102.9,323.8 102.9,323.4 102.9,316 102.9,315.7 		"/>
		<polygon fill="#F9C67F" points="206.6,315.7 320,315.7 323.3,315.7 323.3,316 323.3,323.4 323.3,323.8 320,323.8 206.6,323.8 
			203.3,323.8 203.3,323.4 203.3,316 203.3,315.7 		"/>
		<path fill="#F9C67F" d="M71.9,315.7h29.4h1.6v0.4v7.4v0.4h-1.6H77.9c-4.2,0-7.6-3.4-7.6-7.6V316v-0.4h1.6V315.7z"/>
		<path fill="#FAD088" d="M526.2,315.7h51.3h2.2v0.4v0.2c0,4.2-3.4,7.6-7.6,7.6h-45.9H524v-0.4V316v-0.4h2.2V315.7z"/>
		<polygon fill="#F9C67F" points="426.4,315.7 521.2,315.7 524,315.7 524,316 524,323.4 524,323.8 521.2,323.8 426.4,323.8 
			423.6,323.8 423.6,323.4 423.6,316 423.6,315.7 		"/>
		<polygon fill="#FAD088" points="152.2,323.8 284.7,323.8 288.6,323.8 288.6,324.1 288.6,326.2 288.6,326.5 284.7,326.5 
			152.2,326.5 148.4,326.5 148.4,326.2 148.4,324.1 148.4,323.8 		"/>
		<polygon fill="#ECB663" points="431.9,323.8 537.4,323.8 540.5,323.8 540.5,324.1 540.5,326.2 540.5,326.5 537.4,326.5 
			431.9,326.5 428.8,326.5 428.8,326.2 428.8,324.1 428.8,323.8 		"/>
		<polygon fill="#F9C67F" points="292.5,323.8 424.9,323.8 428.8,323.8 428.8,324.1 428.8,326.2 428.8,326.5 424.9,326.5 
			292.5,326.5 288.6,326.5 288.6,326.2 288.6,324.1 288.6,323.8 		"/>
		<polygon fill="#ECB663" points="326.1,299.5 420.9,299.5 423.6,299.5 423.6,299.8 423.6,307.2 423.6,307.6 420.9,307.6 
			326.1,307.6 323.3,307.6 323.3,307.2 323.3,299.8 323.3,299.5 		"/>
		<polygon fill="#FAD088" points="105.7,299.5 200.5,299.5 203.3,299.5 203.3,299.8 203.3,307.2 203.3,307.6 200.5,307.6 
			105.7,307.6 102.9,307.6 102.9,307.2 102.9,299.8 102.9,299.5 		"/>
		<polygon fill="#F9C67F" points="206.6,299.5 320,299.5 323.3,299.5 323.3,299.8 323.3,307.2 323.3,307.6 320,307.6 206.6,307.6 
			203.3,307.6 203.3,307.2 203.3,299.8 203.3,299.5 		"/>
		<polygon fill="#F9C67F" points="71.9,299.5 101.3,299.5 102.9,299.5 102.9,299.8 102.9,307.2 102.9,307.6 101.3,307.6 71.9,307.6 
			70.3,307.6 70.3,307.2 70.3,299.8 70.3,299.5 		"/>
		<polygon fill="#FAD088" points="526.2,299.5 577.5,299.5 579.7,299.5 579.7,299.8 579.7,307.2 579.7,307.6 577.5,307.6 
			526.2,307.6 524,307.6 524,307.2 524,299.8 524,299.5 		"/>
		<polygon fill="#F9C67F" points="426.4,299.5 521.2,299.5 524,299.5 524,299.8 524,307.2 524,307.6 521.2,307.6 426.4,307.6 
			423.6,307.6 423.6,307.2 423.6,299.8 423.6,299.5 		"/>
		<polygon fill="#ECB663" points="152.2,307.6 284.7,307.6 288.6,307.6 288.6,307.9 288.6,315.3 288.6,315.7 284.7,315.7 
			152.2,315.7 148.4,315.7 148.4,315.3 148.4,307.9 148.4,307.6 		"/>
		<polygon fill="#F9C67F" points="69.4,307.6 145.5,307.6 148.4,307.6 148.4,307.9 148.4,315.3 148.4,315.7 145.5,315.7 69.4,315.7 
			70.3,315.7 70.3,315.3 70.3,307.9 70.3,307.6 		"/>
		<polygon fill="#ECB663" points="542.3,307.6 577.9,307.6 579.7,307.6 579.7,307.9 579.7,315.3 579.7,315.7 577.9,315.7 
			542.3,315.7 540.6,315.7 540.6,315.3 540.6,307.9 540.6,307.6 		"/>
		<polygon fill="#FAD088" points="431.9,307.6 537.4,307.6 540.5,307.6 540.5,307.9 540.5,315.3 540.5,315.7 537.4,315.7 
			431.9,315.7 428.8,315.7 428.8,315.3 428.8,307.9 428.8,307.6 		"/>
		<polygon fill="#F9C67F" points="292.5,307.6 424.9,307.6 428.8,307.6 428.8,307.9 428.8,315.3 428.8,315.7 424.9,315.7 
			292.5,315.7 288.6,315.7 288.6,315.3 288.6,307.9 288.6,307.6 		"/>
		<polygon fill="#ECB663" points="322.1,283.2 227.3,283.2 224.5,283.2 224.5,283.6 224.5,291 224.5,291.4 227.3,291.4 322.1,291.4 
			324.8,291.4 324.8,291 324.8,283.6 324.8,283.2 		"/>
		<polygon fill="#FAD088" points="542.4,283.2 447.6,283.2 444.8,283.2 444.8,283.6 444.8,291 444.8,291.4 447.6,291.4 542.4,291.4 
			545.2,291.4 545.2,291 545.2,283.6 545.2,283.2 		"/>
		<polygon fill="#F9C67F" points="441.5,283.2 328.2,283.2 324.8,283.2 324.8,283.6 324.8,291 324.8,291.4 328.2,291.4 441.5,291.4 
			444.8,291.4 444.8,291 444.8,283.6 444.8,283.2 		"/>
		<polygon fill="#F9C67F" points="578.1,283.2 546.8,283.2 545.2,283.2 545.2,283.6 545.2,291 545.2,291.4 546.8,291.4 578.1,291.4 
			579.7,291.4 579.7,291 579.7,283.6 579.7,283.2 		"/>
		<polygon fill="#FAD088" points="121.9,283.2 72.5,283.2 70.3,283.2 70.3,283.6 70.3,291 70.3,291.4 72.5,291.4 121.9,291.4 
			124.1,291.4 124.1,291 124.1,283.6 124.1,283.2 		"/>
		<polygon fill="#F9C67F" points="221.7,283.2 126.9,283.2 124.1,283.2 124.1,283.6 124.1,291 124.1,291.4 126.9,291.4 221.7,291.4 
			224.5,291.4 224.5,291 224.5,283.6 224.5,283.2 		"/>
		<polygon fill="#FAD088" points="495.9,291.4 363.4,291.4 359.6,291.4 359.6,291.7 359.6,299.1 359.6,299.5 363.4,299.5 
			495.9,299.5 499.8,299.5 499.8,299.1 499.8,291.7 499.8,291.4 		"/>
		<polygon fill="#F9C67F" points="576.8,291.4 502.6,291.4 499.8,291.4 499.8,291.7 499.8,299.1 499.8,299.5 502.6,299.5 
			576.8,299.5 579.7,299.5 579.7,299.1 579.7,291.7 579.7,291.4 		"/>
		<polygon fill="#ECB663" points="105.8,291.4 72.1,291.4 70.3,291.4 70.3,291.7 70.3,299.1 70.3,299.5 72.1,299.5 105.8,299.5 
			107.6,299.5 107.6,299.1 107.6,291.7 107.6,291.4 		"/>
		<polygon fill="#FAD088" points="216.3,291.4 110.7,291.4 107.6,291.4 107.6,291.7 107.6,299.1 107.6,299.5 110.7,299.5 
			216.3,299.5 219.3,299.5 219.3,299.1 219.3,291.7 219.3,291.4 		"/>
		<polygon fill="#F9C67F" points="355.7,291.4 223.2,291.4 219.3,291.4 219.3,291.7 219.3,299.1 219.3,299.5 223.2,299.5 
			355.7,299.5 359.6,299.5 359.6,299.1 359.6,291.7 359.6,291.4 		"/>
		<polygon fill="#FAD088" points="322.8,210.3 401.6,210.3 403.9,210.3 403.9,210.6 403.9,218 403.9,218.4 401.6,218.4 322.8,218.4 
			320.5,218.4 320.5,218 320.5,210.6 320.5,210.3 		"/>
		<polygon fill="#FAD088" points="139.8,210.3 218.5,210.3 220.8,210.3 220.8,210.6 220.8,218 220.8,218.4 218.5,218.4 139.8,218.4 
			137.5,218.4 137.5,218 137.5,210.6 137.5,210.3 		"/>
		<polygon fill="#F9C67F" points="223.6,210.3 317.8,210.3 320.5,210.3 320.5,210.6 320.5,218 320.5,218.4 317.8,218.4 223.6,218.4 
			220.8,218.4 220.8,218 220.8,210.6 220.8,210.3 		"/>
		<polygon fill="#F9C67F" points="69.2,210.3 134.9,210.3 137.5,210.3 137.5,210.6 137.5,218 137.5,218.4 134.9,218.4 69.2,218.4 
			70.3,218.4 70.3,218 70.3,210.6 70.3,210.3 		"/>
		<polygon fill="#FAD088" points="490.5,210.3 576.4,210.3 579.7,210.3 579.7,210.6 579.7,218 579.7,218.4 576.4,218.4 490.5,218.4 
			487.3,218.4 487.3,218 487.3,210.6 487.3,210.3 		"/>
		<polygon fill="#F9C67F" points="406.2,210.3 484.9,210.3 487.3,210.3 487.3,210.6 487.3,218 487.3,218.4 484.9,218.4 406.2,218.4 
			403.9,218.4 403.9,218 403.9,210.6 403.9,210.3 		"/>
		<polygon fill="#FAD088" points="178.4,218.4 288.5,218.4 291.7,218.4 291.7,218.7 291.7,226.1 291.7,226.5 288.5,226.5 
			178.4,226.5 175.2,226.5 175.2,226.1 175.2,218.7 175.2,218.4 		"/>
		<polygon fill="#FAD088" points="71.5,218.4 87.4,218.4 88.6,218.4 88.6,218.7 88.6,226.1 88.6,226.5 87.4,226.5 71.5,226.5 
			70.3,226.5 70.3,226.1 70.3,218.7 70.3,218.4 		"/>
		<polygon fill="#F9C67F" points="91,218.4 172.8,218.4 175.2,218.4 175.2,218.7 175.2,226.1 175.2,226.5 172.8,226.5 91,226.5 
			88.6,226.5 88.6,226.1 88.6,218.7 88.6,218.4 		"/>
		<polygon fill="#ECB663" points="503.9,218.4 576.8,218.4 579.7,218.4 579.7,218.7 579.7,226.1 579.7,226.5 576.8,226.5 
			503.9,226.5 501,226.5 501,226.1 501,218.7 501,218.4 		"/>
		<polygon fill="#FAD088" points="410.7,218.4 498.4,218.4 501,218.4 501,218.7 501,226.1 501,226.5 498.4,226.5 410.7,226.5 
			408.2,226.5 408.2,226.1 408.2,218.7 408.2,218.4 		"/>
		<polygon fill="#ECB663" points="294.9,218.4 404.9,218.4 408.2,218.4 408.2,218.7 408.2,226.1 408.2,226.5 404.9,226.5 
			294.9,226.5 291.7,226.5 291.7,226.1 291.7,218.7 291.7,218.4 		"/>
		<polygon fill="#FAD088" points="432.4,258.9 300,258.9 296.1,258.9 296.1,259.3 296.1,266.7 296.1,267 300,267 432.4,267 
			436.3,267 436.3,266.7 436.3,259.3 436.3,258.9 		"/>
		<polygon fill="#ECB663" points="548.7,258.9 439.5,258.9 436.3,258.9 436.3,259.3 436.3,266.7 436.3,267 439.5,267 548.7,267 
			551.9,267 551.9,266.7 551.9,259.3 551.9,258.9 		"/>
		<polygon fill="#FAD088" points="578.3,258.9 553.3,258.9 551.9,258.9 551.9,259.3 551.9,266.7 551.9,267 553.3,267 578.3,267 
			579.7,267 579.7,266.7 579.7,259.3 579.7,258.9 		"/>
		<polygon fill="#FAD088" points="152.8,258.9 69.6,258.9 70.3,258.9 70.3,259.3 70.3,266.7 70.3,267 69.6,267 152.8,267 155.9,267 
			155.9,266.7 155.9,259.3 155.9,258.9 		"/>
		<polygon fill="#F9C67F" points="292.2,258.9 159.8,258.9 155.9,258.9 155.9,259.3 155.9,266.7 155.9,267 159.8,267 292.2,267 
			296.1,267 296.1,266.7 296.1,259.3 296.1,258.9 		"/>
		<polygon fill="#FAD088" points="322.1,242.7 227.3,242.7 224.5,242.7 224.5,243.1 224.5,250.4 224.5,250.8 227.3,250.8 
			322.1,250.8 324.8,250.8 324.8,250.4 324.8,243.1 324.8,242.7 		"/>
		<polygon fill="#FAD088" points="542.4,242.7 447.6,242.7 444.8,242.7 444.8,243.1 444.8,250.4 444.8,250.8 447.6,250.8 
			542.4,250.8 545.2,250.8 545.2,250.4 545.2,243.1 545.2,242.7 		"/>
		<polygon fill="#F9C67F" points="441.5,242.7 328.2,242.7 324.8,242.7 324.8,243.1 324.8,250.4 324.8,250.8 328.2,250.8 
			441.5,250.8 444.8,250.8 444.8,250.4 444.8,243.1 444.8,242.7 		"/>
		<polygon fill="#F9C67F" points="578.1,242.7 546.8,242.7 545.2,242.7 545.2,243.1 545.2,250.4 545.2,250.8 546.8,250.8 
			578.1,250.8 579.7,250.8 579.7,250.4 579.7,243.1 579.7,242.7 		"/>
		<polygon fill="#FAD088" points="121.9,242.7 72.5,242.7 70.3,242.7 70.3,243.1 70.3,250.4 70.3,250.8 72.5,250.8 121.9,250.8 
			124.1,250.8 124.1,250.4 124.1,243.1 124.1,242.7 		"/>
		<polygon fill="#F9C67F" points="221.7,242.7 126.9,242.7 124.1,242.7 124.1,243.1 124.1,250.4 124.1,250.8 126.9,250.8 
			221.7,250.8 224.5,250.8 224.5,250.4 224.5,243.1 224.5,242.7 		"/>
		<polygon fill="#FAD088" points="495.9,250.8 363.4,250.8 359.6,250.8 359.6,251.2 359.6,258.6 359.6,258.9 363.4,258.9 
			495.9,258.9 499.8,258.9 499.8,258.6 499.8,251.2 499.8,250.8 		"/>
		<polygon fill="#F9C67F" points="576.8,250.8 502.6,250.8 499.8,250.8 499.8,251.2 499.8,258.6 499.8,258.9 502.6,258.9 
			576.8,258.9 579.7,258.9 579.7,258.6 579.7,251.2 579.7,250.8 		"/>
		<polygon fill="#F9C67F" points="105.8,250.8 72.1,250.8 70.3,250.8 70.3,251.2 70.3,258.6 70.3,258.9 72.1,258.9 105.8,258.9 
			107.6,258.9 107.6,258.6 107.6,251.2 107.6,250.8 		"/>
		<polygon fill="#ECB663" points="216.3,250.8 110.7,250.8 107.6,250.8 107.6,251.2 107.6,258.6 107.6,258.9 110.7,258.9 
			216.3,258.9 219.3,258.9 219.3,258.6 219.3,251.2 219.3,250.8 		"/>
		<polygon fill="#F9C67F" points="355.7,250.8 223.2,250.8 219.3,250.8 219.3,251.2 219.3,258.6 219.3,258.9 223.2,258.9 
			355.7,258.9 359.6,258.9 359.6,258.6 359.6,251.2 359.6,250.8 		"/>
		<polygon fill="#FAD088" points="326.1,226.5 420.9,226.5 423.6,226.5 423.6,226.8 423.6,234.2 423.6,234.6 420.9,234.6 
			326.1,234.6 323.3,234.6 323.3,234.2 323.3,226.8 323.3,226.5 		"/>
		<polygon fill="#FAD088" points="105.7,226.5 200.5,226.5 203.3,226.5 203.3,226.8 203.3,234.2 203.3,234.6 200.5,234.6 
			105.7,234.6 102.9,234.6 102.9,234.2 102.9,226.8 102.9,226.5 		"/>
		<polygon fill="#F9C67F" points="206.6,226.5 320,226.5 323.3,226.5 323.3,226.8 323.3,234.2 323.3,234.6 320,234.6 206.6,234.6 
			203.3,234.6 203.3,234.2 203.3,226.8 203.3,226.5 		"/>
		<polygon fill="#ECB663" points="71.9,226.5 101.3,226.5 102.9,226.5 102.9,226.8 102.9,234.2 102.9,234.6 101.3,234.6 71.9,234.6 
			70.3,234.6 70.3,234.2 70.3,226.8 70.3,226.5 		"/>
		<polygon fill="#FAD088" points="526.2,226.5 577.5,226.5 579.7,226.5 579.7,226.8 579.7,234.2 579.7,234.6 577.5,234.6 
			526.2,234.6 524,234.6 524,234.2 524,226.8 524,226.5 		"/>
		<polygon fill="#F9C67F" points="426.4,226.5 521.2,226.5 524,226.5 524,226.8 524,234.2 524,234.6 521.2,234.6 426.4,234.6 
			423.6,234.6 423.6,234.2 423.6,226.8 423.6,226.5 		"/>
		<polygon fill="#FAD088" points="152.2,234.6 284.7,234.6 288.6,234.6 288.6,234.9 288.6,242.3 288.6,242.7 284.7,242.7 
			152.2,242.7 148.4,242.7 148.4,242.3 148.4,234.9 148.4,234.6 		"/>
		<polygon fill="#F9C67F" points="69.4,234.6 145.5,234.6 148.4,234.6 148.4,234.9 148.4,242.3 148.4,242.7 145.5,242.7 69.4,242.7 
			70.3,242.7 70.3,242.3 70.3,234.9 70.3,234.6 		"/>
		<polygon fill="#F9C67F" points="503.9,234.6 576.8,234.6 579.7,234.6 579.7,234.9 579.7,242.3 579.7,242.7 576.8,242.7 
			503.9,242.7 501,242.7 501,242.3 501,234.9 501,234.6 		"/>
		<polygon fill="#FAD088" points="430.8,234.6 499,234.6 501,234.6 501,234.9 501,242.3 501,242.7 499,242.7 430.8,242.7 
			428.8,242.7 428.8,242.3 428.8,234.9 428.8,234.6 		"/>
		<polygon fill="#ECB663" points="292.5,234.6 424.9,234.6 428.8,234.6 428.8,234.9 428.8,242.3 428.8,242.7 424.9,242.7 
			292.5,242.7 288.6,242.7 288.6,242.3 288.6,234.9 288.6,234.6 		"/>
		<polygon fill="#FAD088" points="322.8,267 401.6,267 403.9,267 403.9,267.4 403.9,274.8 403.9,275.1 401.6,275.1 322.8,275.1 
			320.5,275.1 320.5,274.8 320.5,267.4 320.5,267 		"/>
		<polygon fill="#ECB663" points="139.8,267 218.5,267 220.8,267 220.8,267.4 220.8,274.8 220.8,275.1 218.5,275.1 139.8,275.1 
			137.5,275.1 137.5,274.8 137.5,267.4 137.5,267 		"/>
		<polygon fill="#F9C67F" points="223.6,267 317.8,267 320.5,267 320.5,267.4 320.5,274.8 320.5,275.1 317.8,275.1 223.6,275.1 
			220.8,275.1 220.8,274.8 220.8,267.4 220.8,267 		"/>
		<polygon fill="#F9C67F" points="69.2,267 134.9,267 137.5,267 137.5,267.4 137.5,274.8 137.5,275.1 134.9,275.1 69.2,275.1 
			70.3,275.1 70.3,274.8 70.3,267.4 70.3,267 		"/>
		<polygon fill="#FAD088" points="490.5,267 576.4,267 579.7,267 579.7,267.4 579.7,274.8 579.7,275.1 576.4,275.1 490.5,275.1 
			487.3,275.1 487.3,274.8 487.3,267.4 487.3,267 		"/>
		<polygon fill="#F9C67F" points="406.2,267 484.9,267 487.3,267 487.3,267.4 487.3,274.8 487.3,275.1 484.9,275.1 406.2,275.1 
			403.9,275.1 403.9,274.8 403.9,267.4 403.9,267 		"/>
		<polygon fill="#FAD088" points="178.4,275.1 288.5,275.1 291.7,275.1 291.7,275.5 291.7,282.9 291.7,283.2 288.5,283.2 
			178.4,283.2 175.2,283.2 175.2,282.9 175.2,275.5 175.2,275.1 		"/>
		<polygon fill="#FAD088" points="71.5,275.1 87.4,275.1 88.6,275.1 88.6,275.5 88.6,282.9 88.6,283.2 87.4,283.2 71.5,283.2 
			70.3,283.2 70.3,282.9 70.3,275.5 70.3,275.1 		"/>
		<polygon fill="#F9C67F" points="91,275.1 172.8,275.1 175.2,275.1 175.2,275.5 175.2,282.9 175.2,283.2 172.8,283.2 91,283.2 
			88.6,283.2 88.6,282.9 88.6,275.5 88.6,275.1 		"/>
		<polygon fill="#F9C67F" points="503.9,275.1 576.8,275.1 579.7,275.1 579.7,275.5 579.7,282.9 579.7,283.2 576.8,283.2 
			503.9,283.2 501,283.2 501,282.9 501,275.5 501,275.1 		"/>
		<polygon fill="#ECB663" points="410.7,275.1 498.4,275.1 501,275.1 501,275.5 501,282.9 501,283.2 498.4,283.2 410.7,283.2 
			408.2,283.2 408.2,282.9 408.2,275.5 408.2,275.1 		"/>
		<polygon fill="#F9C67F" points="294.9,275.1 404.9,275.1 408.2,275.1 408.2,275.5 408.2,282.9 408.2,283.2 404.9,283.2 
			294.9,283.2 291.7,283.2 291.7,282.9 291.7,275.5 291.7,275.1 		"/>
		<g>
			<g>
				<g>
					<g>
						<defs>
							<rect id="SVGID_1_" x="70.3" y="13" width="509.5" height="313.7"/>
						</defs>
						<clipPath id="SVGID_2_">
							<use xlink:href="#SVGID_1_"  overflow="visible"/>
						</clipPath>
						<path clip-path="url(#SVGID_2_)" fill="#D4A86A" d="M79.8,326.5l490.5,0.1c5.2,0,9.5-4.3,9.5-9.5V22.4c0-5.2-4.3-9.5-9.5-9.5
							H79.8c-5.2,0-9.5,4.3-9.5,9.5V317C70.3,322.3,74.5,326.5,79.8,326.5 M567.3,317.2H80.9v-295h486.4V317.2z M78.4,20L78.4,20
							l0.1,299.4h-0.1V20z M569.7,319.4L569.7,319.4V20l0,0V319.4z"/>
					</g>
				</g>
			</g>
		</g>
	</g>
</g>
</svg>
