<?xml version="1.0" encoding="utf-8"?>
<!-- Generator: Adobe Illustrator 24.0.1, SVG Export Plug-In . SVG Version: 6.00 Build 0)  -->
<svg version="1.1" id="Calque_1" xmlns="http://www.w3.org/2000/svg" xmlns:xlink="http://www.w3.org/1999/xlink" x="0px" y="0px"
	 viewBox="0 0 650 340" enable-background="new 0 0 650 340" xml:space="preserve">
<g id="MARQUAGE">
	<path fill="#FFFFFF" d="M78.5,319.7h491.2V19.8H78.5V319.7z M567.3,317.2H80.9v-295h486.4V317.2z"/>
	<path fill="#FFFFFF" d="M324.1,209.8c-22.1,0-40.1-18-40.1-40.1s18-40.1,40.1-40.1s40.1,18,40.1,40.1S346.2,209.8,324.1,209.8
		 M324.1,132c-20.8,0-37.8,16.9-37.8,37.8c0,20.8,16.9,37.8,37.8,37.8c20.8,0,37.8-16.9,37.8-37.8S344.9,132,324.1,132"/>
	<path fill="#FFFFFF" d="M460.5,132.1c-0.9-0.1-1.9-0.1-2.8-0.1v-2.3c1,0,2,0,3,0.1L460.5,132.1z"/>
	<path fill="#FFFFFF" d="M466.4,208.9l-0.5-2.3c1.7-0.4,3.5-0.9,5.2-1.5l0.8,2.2C470.1,208,468.2,208.5,466.4,208.9 M477.1,204.9
		l-1.1-2c1.6-0.9,3.1-1.8,4.5-2.9l1.4,1.9C480.3,202.9,478.7,204,477.1,204.9 M486.2,198.1l-1.6-1.6c1.3-1.3,2.4-2.6,3.5-4.1
		l1.9,1.4C488.8,195.3,487.5,196.7,486.2,198.1 M493,188.9l-2-1.1c0.9-1.6,1.6-3.2,2.2-4.9l2.2,0.8
		C494.7,185.5,493.9,187.3,493,188.9 M496.9,178.2l-2.3-0.5c0.4-1.7,0.6-3.5,0.8-5.3l2.3,0.2C497.6,174.5,497.3,176.4,496.9,178.2
		 M495.4,167c-0.1-1.8-0.4-3.6-0.8-5.3l2.3-0.5c0.4,1.9,0.7,3.8,0.8,5.7L495.4,167z M493.2,156.6c-0.6-1.7-1.4-3.3-2.2-4.9l2-1.1
		c0.9,1.7,1.7,3.4,2.4,5.2L493.2,156.6z M488,147.1c-1.1-1.4-2.3-2.8-3.5-4.1l1.6-1.6c1.3,1.3,2.6,2.8,3.7,4.3L488,147.1z
		 M480.4,139.5c-1.4-1.1-3-2.1-4.5-2.9l1.1-2c1.7,0.9,3.3,2,4.8,3.1L480.4,139.5z M471,134.4c-1.7-0.6-3.4-1.1-5.2-1.5l0.5-2.3
		c1.9,0.4,3.7,1,5.5,1.6L471,134.4z"/>
	<path fill="#FFFFFF" d="M457.8,209.8v-2.3c0.9,0,1.9,0,2.8-0.1l0.2,2.3C459.7,209.8,458.7,209.8,457.8,209.8"/>
	<path fill="#FFFFFF" d="M187.7,132.1l-0.2-2.3c1-0.1,2-0.1,3-0.1v2.3C189.6,132,188.6,132,187.7,132.1"/>
	<path fill="#FFFFFF" d="M181.9,208.9c-1.9-0.4-3.7-1-5.5-1.6l0.8-2.2c1.7,0.6,3.4,1.1,5.2,1.5L181.9,208.9z M171.2,204.9
		c-1.7-0.9-3.3-2-4.8-3.1l1.4-1.9c1.4,1.1,3,2.1,4.5,2.9L171.2,204.9z M162.1,198.1c-1.3-1.3-2.6-2.8-3.7-4.3l1.9-1.4
		c1.1,1.4,2.3,2.8,3.5,4.1L162.1,198.1z M155.3,188.9c-0.9-1.7-1.7-3.4-2.4-5.2l2.2-0.8c0.6,1.7,1.4,3.3,2.2,4.9L155.3,188.9z
		 M151.3,178.2c-0.4-1.9-0.7-3.8-0.8-5.7l2.3-0.2c0.1,1.8,0.4,3.6,0.8,5.3L151.3,178.2z M152.8,167l-2.3-0.2
		c0.1-1.9,0.4-3.8,0.8-5.7l2.3,0.5C153.2,163.5,152.9,165.3,152.8,167 M155.1,156.6l-2.2-0.8c0.7-1.8,1.5-3.5,2.4-5.2l2,1.1
		C156.5,153.2,155.7,154.9,155.1,156.6 M160.2,147.1l-1.9-1.4c1.1-1.5,2.4-3,3.7-4.3l1.6,1.6C162.5,144.3,161.3,145.7,160.2,147.1
		 M167.8,139.5l-1.4-1.9c1.5-1.1,3.1-2.2,4.8-3.1l1.1,2C170.8,137.5,169.2,138.5,167.8,139.5 M177.2,134.4l-0.8-2.2
		c1.8-0.7,3.6-1.2,5.5-1.6l0.5,2.3C180.6,133.2,178.9,133.7,177.2,134.4"/>
	<path fill="#FFFFFF" d="M190.5,209.8c-1,0-2,0-3-0.1l0.2-2.3c0.9,0.1,1.9,0.1,2.8,0.1V209.8z"/>
	<path fill="#FFFFFF" d="M568.4,284h-34c-30.5,0-59.2-11.9-80.8-33.5c-21.6-21.6-33.5-50.3-33.5-80.8s11.9-59.2,33.5-80.8
		s50.3-33.5,80.8-33.5h34v2.3h-34c-61.7,0-112,50.2-112,112s50.2,112,112,112h34V284z"/>
	<path fill="#FFFFFF" d="M568.4,209.8H460.2c-22.1,0-40.1-18-40.1-40.1s18-40.1,40.1-40.1h108.2v2.3H460.2
		c-20.8,0-37.8,16.9-37.8,37.8s16.9,37.8,37.8,37.8h108.2V209.8z"/>
	<rect x="322.9" y="21.1" fill="#FFFFFF" width="2.4" height="296.7"/>
	<rect x="242.1" y="307.1" fill="#FFFFFF" width="2.4" height="22.4"/>
	<rect x="402.1" y="307.1" fill="#FFFFFF" width="2.4" height="22.4"/>
	<rect x="242.1" y="9.9" fill="#FFFFFF" width="2.4" height="22.4"/>
	<rect x="402.1" y="9.9" fill="#FFFFFF" width="2.4" height="22.4"/>
	<rect x="456.8" y="130.9" fill="#FFFFFF" width="2.3" height="77.8"/>
	<rect x="465.8" y="126.6" fill="#FFFFFF" width="2.3" height="4.3"/>
	<rect x="484.9" y="126.6" fill="#FFFFFF" width="2.3" height="4.3"/>
	<rect x="502.7" y="126.6" fill="#FFFFFF" width="2.3" height="4.3"/>
	<rect x="520.4" y="126.6" fill="#FFFFFF" width="4.9" height="4.3"/>
	<rect x="465.8" y="208.6" fill="#FFFFFF" width="2.3" height="4.3"/>
	<rect x="484.9" y="208.6" fill="#FFFFFF" width="2.3" height="4.3"/>
	<rect x="502.7" y="208.6" fill="#FFFFFF" width="2.3" height="4.3"/>
	<rect x="520.4" y="208.6" fill="#FFFFFF" width="4.9" height="4.3"/>
	<path fill="#FFFFFF" d="M114.1,284h-34v-2.3h34c61.7,0,112-50.2,112-112s-50.2-112-112-112h-34v-2.3h34c30.5,0,59.2,11.9,80.8,33.5
		s33.5,50.3,33.5,80.8s-11.9,59.2-33.5,80.8S144.6,284,114.1,284"/>
	<path fill="#FFFFFF" d="M188.3,209.8H80.1v-2.3h108.2c20.8,0,37.8-16.9,37.8-37.8s-17-37.7-37.8-37.7H80.1v-2.3h108.2
		c22.1,0,40.1,18,40.1,40.1S210.4,209.8,188.3,209.8"/>
	<rect x="189.4" y="130.9" fill="#FFFFFF" width="2.3" height="77.8"/>
	<rect x="180.4" y="126.6" fill="#FFFFFF" width="2.3" height="4.3"/>
	<rect x="161.2" y="126.6" fill="#FFFFFF" width="2.3" height="4.3"/>
	<rect x="143.4" y="126.6" fill="#FFFFFF" width="2.3" height="4.3"/>
	<rect x="123.2" y="126.6" fill="#FFFFFF" width="4.9" height="4.3"/>
	<rect x="180.4" y="208.6" fill="#FFFFFF" width="2.3" height="4.3"/>
	<rect x="161.2" y="208.6" fill="#FFFFFF" width="2.3" height="4.3"/>
	<rect x="143.4" y="208.6" fill="#FFFFFF" width="2.3" height="4.3"/>
	<rect x="123.2" y="208.6" fill="#FFFFFF" width="4.9" height="4.3"/>
</g>
<g id="PANIERS">
	<g>
		<path fill="#FFFCF1" d="M103.6,176.5c-3.7,0-6.8-3-6.8-6.8c0-3.7,3-6.8,6.8-6.8s6.8,3,6.8,6.8S107.3,176.5,103.6,176.5
			 M103.6,163.5c-3.5,0-6.3,2.8-6.3,6.3s2.8,6.3,6.3,6.3s6.3-2.8,6.3-6.3S107.1,163.5,103.6,163.5"/>
		<path fill="#FFFCF1" d="M103.6,177.8c-4.4,0-8.1-3.6-8.1-8.1c0-4.4,3.6-8.1,8.1-8.1c4.4,0,8.1,3.6,8.1,8.1S108,177.8,103.6,177.8
			 M103.6,162.2c-4.2,0-7.6,3.4-7.6,7.6c0,4.2,3.4,7.6,7.6,7.6s7.6-3.4,7.6-7.6C111.2,165.6,107.8,162.2,103.6,162.2"/>
		<rect x="89.7" y="166.9" fill="#F37C26" width="4.4" height="5.7"/>
		<path fill="#1A171B" d="M58.2,186.9c0,1.9-1.3,3.4-3,3.3l-8.6-0.8c-1.6-0.1-3-1.8-3-3.8V154c0-1.9,1.3-3.6,3-3.8l8.6-0.8
			c1.6-0.1,3,1.3,3,3.3C58.2,152.7,58.2,186.9,58.2,186.9z"/>
		<path d="M49.2,188.8c0,2.2,1.8,3.8,3.9,3.6l11.3-0.9c2.1-0.2,3.9-2.1,3.9-4.2v-35.2c0-2.2-1.8-4-3.9-4.2L53.1,147
			c-2.1-0.2-3.9,1.5-3.9,3.6V188.8z"/>
		<polygon fill="#A5A5A4" points="88.5,189.2 65.8,169.6 88.5,151.4 91.5,155.2 73.3,169.7 91.6,185.6 		"/>
		<path d="M88.2,191.7c0,0.5,0.4,1,1,1H91c0.5,0,1-0.4,1-1v-44c0-0.5-0.4-1-1-1h-1.8c-0.5,0-1,0.4-1,1V191.7z"/>
		<path fill="#A5A5A4" d="M56.3,172.5c0,0.5,0.4,0.9,0.9,0.9l13.4,0.4c0.5,0,0.9-0.4,0.9-0.9v-7c0-0.5-0.4-0.9-0.9-0.9l-13.4,0.4
			c-0.5,0-0.9,0.4-0.9,0.9C56.3,166.3,56.3,172.5,56.3,172.5z"/>
		<rect x="103.4" y="160.2" fill="#FFFCF1" width="0.5" height="3.3"/>
		<rect x="103.4" y="176.6" fill="#FFFCF1" width="0.5" height="3.3"/>
		<rect x="110.2" y="169.8" fill="#FFFCF1" width="3.3" height="0.5"/>
		<rect x="93.8" y="169.8" fill="#FFFCF1" width="3.3" height="0.5"/>
		<polygon fill="#FFFCF1" points="110.4,177.2 108.1,174.8 108.4,174.5 110.7,176.8 		"/>
		
			<rect x="97.6" y="162.6" transform="matrix(0.7071 -0.7071 0.7071 0.7071 -87.4576 117.2809)" fill="#FFFCF1" width="0.5" height="3.3"/>
		<polygon fill="#FFFCF1" points="107.6,179 106.2,176.1 106.6,175.9 108,178.8 		"/>
		
			<rect x="99.8" y="161" transform="matrix(0.9032 -0.4293 0.4293 0.9032 -60.1384 58.7084)" fill="#FFFCF1" width="0.5" height="3.3"/>
		<polygon fill="#FFFCF1" points="100.5,179.4 100.1,179.2 101.2,176.1 101.6,176.3 		"/>
		
			<rect x="104.7" y="162.1" transform="matrix(0.3346 -0.9424 0.9424 0.3346 -82.1729 208.2732)" fill="#FFFCF1" width="3.3" height="0.5"/>
		
			<rect x="94.6" y="173.3" transform="matrix(0.903 -0.4297 0.4297 0.903 -65.2276 58.191)" fill="#FFFCF1" width="3.3" height="0.5"/>
		
			<rect x="109.4" y="166.3" transform="matrix(0.903 -0.4297 0.4297 0.903 -60.7825 63.8798)" fill="#FFFCF1" width="3.3" height="0.5"/>
		
			<rect x="95.7" y="165.7" transform="matrix(0.335 -0.9422 0.9422 0.335 -93.8731 201.6472)" fill="#FFFCF1" width="0.5" height="3.3"/>
		
			<rect x="111" y="171.1" transform="matrix(0.335 -0.9422 0.9422 0.335 -88.7513 219.7407)" fill="#FFFCF1" width="0.5" height="3.3"/>
		
			<rect x="96.2" y="175.6" transform="matrix(0.7071 -0.7071 0.7071 0.7071 -95.6603 120.6801)" fill="#FFFCF1" width="3.3" height="0.5"/>
		
			<rect x="107.8" y="164" transform="matrix(0.7071 -0.7071 0.7071 0.7071 -84.0603 125.4825)" fill="#FFFCF1" width="3.3" height="0.5"/>
		<path fill="#F37C26" d="M103.6,179.8c-5.5,0-10-4.5-10-10s4.5-10,10-10s10,4.5,10,10S109.1,179.8,103.6,179.8 M103.6,160.7
			c-5,0-9.1,4.1-9.1,9.1s4.1,9.1,9.1,9.1s9.1-4.1,9.1-9.1S108.6,160.7,103.6,160.7"/>
		<path fill="#FFFCF1" d="M546.8,176.5c-3.7,0-6.8-3-6.8-6.8c0-3.7,3-6.8,6.8-6.8c3.7,0,6.8,3,6.8,6.8
			C553.5,173.5,550.5,176.5,546.8,176.5 M546.8,163.5c-3.5,0-6.3,2.8-6.3,6.3s2.8,6.3,6.3,6.3s6.3-2.8,6.3-6.3
			C553,166.3,550.2,163.5,546.8,163.5"/>
		<path fill="#FFFCF1" d="M546.8,177.8c-4.4,0-8.1-3.6-8.1-8.1c0-4.4,3.6-8.1,8.1-8.1c4.4,0,8.1,3.6,8.1,8.1
			C554.8,174.2,551.2,177.8,546.8,177.8 M546.8,162.2c-4.2,0-7.6,3.4-7.6,7.6c0,4.2,3.4,7.6,7.6,7.6c4.2,0,7.6-3.4,7.6-7.6
			C554.3,165.6,550.9,162.2,546.8,162.2"/>
		<rect x="556.3" y="166.9" fill="#F37C26" width="4.4" height="5.7"/>
		<path fill="#1A171B" d="M606.9,186.9c0,1.9-1.3,3.4-3,3.3l-8.6-0.8c-1.6-0.1-3-1.8-3-3.8V154c0-1.9,1.3-3.6,3-3.8l8.6-0.8
			c1.6-0.1,3,1.3,3,3.3V186.9z"/>
		<path d="M601.1,188.8c0,2.2-1.8,3.8-3.9,3.6l-11.3-0.9c-2.1-0.2-3.9-2.1-3.9-4.2v-35.2c0-2.2,1.8-4,3.9-4.2l11.3-0.9
			c2.1-0.2,3.9,1.5,3.9,3.6V188.8z"/>
		<polygon fill="#A5A5A4" points="561.9,189.2 558.8,185.6 577.1,169.7 558.8,155.2 561.8,151.4 584.6,169.6 		"/>
		<path d="M562.2,191.7c0,0.5-0.4,1-1,1h-1.8c-0.5,0-1-0.4-1-1v-44c0-0.5,0.4-1,1-1h1.8c0.5,0,1,0.4,1,1V191.7z"/>
		<path fill="#A5A5A4" d="M594.1,172.5c0,0.5-0.4,0.9-0.9,0.9l-13.4,0.4c-0.5,0-0.9-0.4-0.9-0.9v-7c0-0.5,0.4-0.9,0.9-0.9l13.4,0.4
			c0.5,0,0.9,0.4,0.9,0.9V172.5z"/>
		<rect x="546.5" y="160.2" fill="#FFFCF1" width="0.5" height="3.3"/>
		<rect x="546.5" y="176.6" fill="#FFFCF1" width="0.5" height="3.3"/>
		<rect x="536.9" y="169.8" fill="#FFFCF1" width="3.3" height="0.5"/>
		<rect x="553.3" y="169.8" fill="#FFFCF1" width="3.3" height="0.5"/>
		<polygon fill="#FFFCF1" points="540,177.2 539.6,176.8 542,174.5 542.3,174.8 		"/>
		
			<rect x="550.9" y="164" transform="matrix(0.707 -0.7072 0.7072 0.707 45.7453 438.8808)" fill="#FFFCF1" width="3.3" height="0.5"/>
		<polygon fill="#FFFCF1" points="542.8,179 542.3,178.8 543.7,175.9 544.2,176.1 		"/>
		
			<rect x="548.7" y="162.4" transform="matrix(0.4297 -0.903 0.903 0.4297 166.9568 589.6992)" fill="#FFFCF1" width="3.3" height="0.5"/>
		
			<rect x="549.3" y="176.1" transform="matrix(0.9422 -0.335 0.335 0.9422 -27.7954 194.3687)" fill="#FFFCF1" width="0.5" height="3.3"/>
		
			<rect x="543.8" y="160.7" transform="matrix(0.9422 -0.3351 0.3351 0.9422 -22.9488 191.7021)" fill="#FFFCF1" width="0.5" height="3.3"/>
		<polygon fill="#FFFCF1" points="555.6,174.5 552.6,173.1 552.8,172.6 555.8,174 		"/>
		
			<rect x="539.2" y="164.9" transform="matrix(0.4293 -0.9032 0.9032 0.4293 157.4393 582.2229)" fill="#FFFCF1" width="0.5" height="3.3"/>
		<polygon fill="#FFFCF1" points="553,168.1 552.9,167.6 556,166.5 556.1,167 		"/>
		<polygon fill="#FFFCF1" points="537.6,173.6 537.4,173.1 540.5,172 540.7,172.5 		"/>
		
			<rect x="552.3" y="174.2" transform="matrix(0.7071 -0.7071 0.7071 0.7071 37.4881 442.2292)" fill="#FFFCF1" width="0.5" height="3.3"/>
		<polygon fill="#FFFCF1" points="542,165.6 539.6,163.2 540,162.9 542.3,165.2 		"/>
		<path fill="#F37C26" d="M546.8,179.8c-5.5,0-10-4.5-10-10s4.5-10,10-10s10,4.5,10,10S552.3,179.8,546.8,179.8 M546.8,160.7
			c-5,0-9.1,4.1-9.1,9.1s4.1,9.1,9.1,9.1s9.1-4.1,9.1-9.1S551.8,160.7,546.8,160.7"/>
	</g>
</g>
</svg>
