<?xml version="1.0" encoding="utf-8"?>
<!-- Generator: Adobe Illustrator 20.1.0, SVG Export Plug-In . SVG Version: 6.00 Build 0)  -->
<svg version="1.1" id="Calque_1" xmlns="http://www.w3.org/2000/svg" xmlns:xlink="http://www.w3.org/1999/xlink" x="0px" y="0px"
	 viewBox="0 0 320 610" style="enable-background:new 0 0 320 610;" xml:space="preserve">
<style type="text/css">
	.st0{fill:#B4D799;}
	.st1{fill:none;stroke:#DFC287;stroke-miterlimit:10;}
	.st2{fill:#9AC774;}
	.st3{fill:none;stroke:#FFFFFF;stroke-width:2;stroke-miterlimit:10;}
	.st4{fill:none;stroke:#FFFFFF;stroke-miterlimit:10;}
	.st5{fill:none;stroke:#FFFFFF;stroke-miterlimit:10;stroke-dasharray:6.939,6.939;}
	.st6{fill:none;stroke:#FFFFFF;stroke-miterlimit:10;stroke-dasharray:7.1197,7.1197;}
	.st7{opacity:0.5;}
	.st8{enable-background:new    ;}
	.st9{fill:#1A171B;}
	.st10{fill:#FFFFFF;}
	.st11{display:none;}
	.st12{display:inline;}
	.st13{font-family:'ArialMT';}
	.st14{font-size:14px;}
	.st15{font-size:12px;}
</style>
<g id="Calque_1_2_">
	<g id="Calque_1_1_">
		<g>
			<path class="st0" d="M3.8,47.6c0-2.8,2.2-5,5-5h302.3c2.8,0,5,2.2,5,5V564c0,2.8-2.2,5-5,5H8.8c-2.8,0-5-2.2-5-5
				C3.8,564,3.8,47.6,3.8,47.6z"/>
			<path class="st1" d="M3.8,47.6c0-2.8,2.2-5,5-5h302.3c2.8,0,5,2.2,5,5V564c0,2.8-2.2,5-5,5H8.8c-2.8,0-5-2.2-5-5
				C3.8,564,3.8,47.6,3.8,47.6z"/>
		</g>
		<g>
			<rect x="15" y="84" class="st2" width="290" height="31.3"/>
			<rect x="15" y="142.9" class="st2" width="290" height="31.3"/>
			<rect x="15" y="201.8" class="st2" width="290" height="31.3"/>
			<rect x="15" y="260.6" class="st2" width="290" height="31.3"/>
			<rect x="15" y="319.5" class="st2" width="290" height="31.3"/>
			<rect x="15" y="378.4" class="st2" width="290" height="31.3"/>
			<rect x="15" y="437.2" class="st2" width="290" height="31.3"/>
			<rect x="15" y="496.1" class="st2" width="290" height="31.3"/>
			<g>
				<g>
					<line class="st3" x1="17.3" y1="306.3" x2="303.4" y2="306.3"/>
					<line class="st3" x1="17.3" y1="486.9" x2="303.4" y2="486.9"/>
					<line class="st3" x1="17.3" y1="126.3" x2="303.4" y2="126.3"/>
					<g>
						<path class="st2" d="M303.3,56.4V556H16.6V56.4H303.3 M306.3,53.4h-3H16.6h-3v3V556v3h3h286.8h3v-3V56.4v-3H306.3z"/>
						<rect x="16.6" y="56.4" class="st3" width="286.8" height="499.7"/>
					</g>
				</g>
				<g>
					<g>
						<g>
							<line class="st4" x1="29.6" y1="556" x2="29.6" y2="552.5"/>
							<line class="st5" x1="29.6" y1="545.6" x2="29.6" y2="63.4"/>
							<line class="st4" x1="29.6" y1="59.9" x2="29.6" y2="56.4"/>
						</g>
					</g>
					<g>
						<g>
							<line class="st4" x1="16.7" y1="70.2" x2="20.2" y2="70.2"/>
							<line class="st6" x1="27.4" y1="70.2" x2="294.3" y2="70.2"/>
							<line class="st4" x1="297.9" y1="70.2" x2="301.4" y2="70.2"/>
						</g>
					</g>
					<g>
						<g>
							<line class="st4" x1="16.7" y1="252.5" x2="20.2" y2="252.5"/>
							<line class="st6" x1="27.4" y1="252.5" x2="294.3" y2="252.5"/>
							<line class="st4" x1="297.9" y1="252.5" x2="301.4" y2="252.5"/>
						</g>
					</g>
					<g>
						<g>
							<line class="st4" x1="16.7" y1="358.6" x2="20.2" y2="358.6"/>
							<line class="st6" x1="27.4" y1="358.6" x2="294.3" y2="358.6"/>
							<line class="st4" x1="297.9" y1="358.6" x2="301.4" y2="358.6"/>
						</g>
					</g>
					<g>
						<g>
							<line class="st4" x1="16.7" y1="539.9" x2="20.2" y2="539.9"/>
							<line class="st6" x1="27.4" y1="539.9" x2="294.3" y2="539.9"/>
							<line class="st4" x1="297.9" y1="539.9" x2="301.4" y2="539.9"/>
						</g>
					</g>
					<g>
						<g>
							<line class="st4" x1="290.2" y1="556" x2="290.2" y2="552.5"/>
							<line class="st5" x1="290.2" y1="545.6" x2="290.2" y2="63.4"/>
							<line class="st4" x1="290.2" y1="59.9" x2="290.2" y2="56.4"/>
						</g>
					</g>
					<line class="st4" x1="56.8" y1="69.6" x2="56.8" y2="55.5"/>
					<line class="st4" x1="56.8" y1="145.9" x2="56.8" y2="113.6"/>
					<line class="st4" x1="56.8" y1="269.6" x2="56.8" y2="239.4"/>
					<line class="st4" x1="56.8" y1="324.6" x2="56.8" y2="290.9"/>
					<line class="st4" x1="56.8" y1="374.8" x2="56.8" y2="342.5"/>
					<line class="st4" x1="56.8" y1="504.9" x2="56.8" y2="473.8"/>
					<line class="st4" x1="56.8" y1="556" x2="56.8" y2="542.5"/>
					<line class="st4" x1="258.6" y1="69.6" x2="258.6" y2="55.5"/>
					<line class="st4" x1="258.6" y1="145.9" x2="258.6" y2="113.6"/>
					<line class="st4" x1="258.6" y1="269.6" x2="258.6" y2="239.4"/>
					<line class="st4" x1="258.6" y1="324.6" x2="258.6" y2="290.9"/>
					<line class="st4" x1="258.6" y1="374.8" x2="258.6" y2="342.5"/>
					<line class="st4" x1="258.6" y1="504.9" x2="258.6" y2="473.8"/>
					<line class="st4" x1="258.6" y1="556" x2="258.6" y2="542.5"/>
				</g>
			</g>
		</g>
		<g>
			<g class="st7">
				<g class="st8">
					<g>
						<path class="st9" d="M195,607.8h-0.1c-0.2,0-0.3,0-0.5,0c-0.1,0-0.3,0-0.4-0.1c-0.1,0-0.3-0.1-0.4-0.1c-0.1,0-0.3-0.1-0.4-0.1
							c-0.1,0-0.3-0.1-0.4-0.1c-0.1-0.1-0.3-0.1-0.4-0.2c-0.1-0.1-0.3-0.1-0.4-0.2c-0.1-0.1-0.3-0.1-0.4-0.2
							c-0.1-0.1-0.2-0.2-0.3-0.2c-0.1-0.1-0.2-0.2-0.3-0.3s-0.2-0.2-0.3-0.3s-0.2-0.2-0.3-0.3s-0.2-0.2-0.2-0.3
							c-0.1-0.1-0.1-0.2-0.2-0.3c-0.1-0.1-0.1-0.2-0.2-0.3c0-0.1-0.1-0.2-0.1-0.4l-10.2-35.1h-38.1l-13.9,35.1
							c0,0.1-0.1,0.2-0.2,0.4c-0.1,0.1-0.1,0.2-0.2,0.3s-0.2,0.2-0.2,0.3c-0.1,0.1-0.2,0.2-0.3,0.3c-0.1,0.1-0.2,0.2-0.3,0.3
							c-0.1,0.1-0.2,0.2-0.3,0.3c-0.1,0.1-0.2,0.2-0.4,0.3c-0.1,0.1-0.2,0.2-0.4,0.2c-0.1,0.1-0.3,0.2-0.4,0.2
							c-0.1,0.1-0.3,0.1-0.4,0.2s-0.3,0.1-0.4,0.2s-0.3,0.1-0.4,0.1s-0.3,0.1-0.4,0.1s-0.3,0.1-0.4,0.1s-0.3,0-0.5,0.1
							c-0.2,0-0.3,0-0.5,0h-0.1h-0.1h-0.1h-0.1c-0.2,0-0.3,0-0.5-0.1c-0.1,0-0.3-0.1-0.4-0.1s-0.3-0.1-0.4-0.1
							c-0.1-0.1-0.2-0.1-0.4-0.2c-0.1-0.1-0.2-0.1-0.3-0.2c-0.1-0.1-0.2-0.1-0.3-0.2c-0.1-0.1-0.2-0.2-0.3-0.3
							c-0.1-0.1-0.1-0.2-0.2-0.3s-0.1-0.2-0.2-0.3c0-0.1-0.1-0.2-0.1-0.3s-0.1-0.2-0.1-0.3s0-0.2,0-0.4c0-0.1,0-0.2,0-0.4
							c0-0.1,0-0.2,0.1-0.4c0-0.1,0.1-0.3,0.1-0.4c0-0.1,0.1-0.3,0.2-0.4l21.8-47c0-0.1,0.1-0.1,0.1-0.2s0.1-0.1,0.1-0.1l0.1-0.1
							c0,0,0.1-0.1,0.2-0.1c0.1,0,0.1-0.1,0.2-0.1c0.1,0,0.1-0.1,0.2-0.1c0.1,0,0.1-0.1,0.2-0.1c0.1,0,0.1-0.1,0.2-0.1
							c0.1,0,0.2-0.1,0.2-0.1c0.1,0,0.2-0.1,0.2-0.1c0.1,0,0.2,0,0.3-0.1c0.1,0,0.2,0,0.3-0.1c0.1,0,0.2,0,0.3,0s0.2,0,0.3,0
							s0.2,0,0.3,0s0.2,0,0.3,0h0.1h0.1h0.1h0.1c0.1,0,0.2,0,0.3,0s0.2,0,0.3,0s0.2,0,0.3,0.1c0.1,0,0.2,0,0.2,0.1
							c0.1,0,0.2,0.1,0.2,0.1c0.1,0,0.1,0.1,0.2,0.1c0.1,0,0.1,0.1,0.2,0.1c0.1,0,0.1,0.1,0.2,0.1c0.1,0,0.1,0.1,0.1,0.1l0.1,0.1
							l0.1,0.1l0.1,0.1c0,0.1,0,0.1,0,0.2c0,0.1,0,0.1,0,0.2c0,0.1,0,0.1,0,0.2c0,0.1,0,0.1,0,0.2l-3.5,8.7h35.6l-2.5-8.7
							c0-0.1,0-0.1,0-0.2c0-0.1,0-0.1,0-0.2c0-0.1,0-0.1,0-0.2c0-0.1,0-0.1,0.1-0.2l0.1-0.1l0.1-0.1l0.1-0.1c0,0,0.1-0.1,0.2-0.1
							c0.1,0,0.1-0.1,0.2-0.1c0.1,0,0.1-0.1,0.2-0.1c0.1,0,0.1-0.1,0.2-0.1c0.1,0,0.2-0.1,0.2-0.1c0.1,0,0.2,0,0.3-0.1
							c0.1,0,0.2,0,0.3-0.1c0.1,0,0.2,0,0.3,0s0.2,0,0.3,0h0.1h0.1h0.1h0.1c0.1,0,0.2,0,0.3,0s0.2,0,0.3,0s0.2,0,0.3,0s0.2,0,0.3,0
							s0.2,0,0.3,0.1c0.1,0,0.2,0,0.2,0.1c0.1,0,0.2,0.1,0.2,0.1c0.1,0,0.2,0.1,0.2,0.1c0.1,0,0.1,0.1,0.2,0.1
							c0.1,0,0.1,0.1,0.2,0.1c0.1,0,0.1,0.1,0.2,0.1c0.1,0,0.1,0.1,0.2,0.1c0.1,0,0.1,0.1,0.1,0.1l0.1,0.1l0.1,0.1
							c0,0.1,0,0.1,0.1,0.2l16.8,47c0,0.1,0.1,0.3,0.1,0.4c0,0.1,0.1,0.3,0.1,0.4s0,0.2,0,0.4c0,0.1,0,0.2,0,0.4
							c0,0.1,0,0.2-0.1,0.4c0,0.1-0.1,0.2-0.1,0.3s-0.1,0.2-0.2,0.3c-0.1,0.1-0.1,0.2-0.2,0.3c-0.1,0.1-0.2,0.2-0.2,0.3
							c-0.1,0.1-0.2,0.2-0.3,0.3s-0.2,0.2-0.3,0.2c-0.1,0.1-0.2,0.1-0.3,0.2c-0.1,0.1-0.2,0.1-0.4,0.2c-0.1,0.1-0.3,0.1-0.4,0.1
							c-0.1,0-0.3,0.1-0.4,0.1c-0.2,0-0.3,0-0.5,0.1H196h-0.9H195"/>
					</g>
				</g>
			</g>
			<path class="st10" d="M216.2,593.3c-0.2,0.4-0.6,0.8-1.2,1c-0.6,0.3-1.3,0.4-2.2,0.5c-0.1,0-0.1,0-0.2,0c-0.1,0-0.1,0-0.2,0
				c-0.1,0-0.1,0-0.2,0c-0.1,0-0.1,0-0.2,0c-0.9,0-1.7-0.1-2.6-0.3c-0.9-0.2-1.7-0.5-2.6-0.8c-0.8-0.3-1.5-0.7-2.2-1.2
				c-0.6-0.4-1.2-0.9-1.6-1.4l-22.1-28.4h-41.7l-22.1,28.4c-0.4,0.5-0.9,1-1.6,1.4c-0.6,0.4-1.4,0.8-2.2,1.2
				c-0.8,0.3-1.7,0.6-2.6,0.8s-1.8,0.3-2.6,0.3c-0.1,0-0.1,0-0.2,0s-0.1,0-0.2,0s-0.1,0-0.2,0s-0.1,0-0.2,0
				c-0.9-0.1-1.6-0.2-2.2-0.5s-1-0.6-1.2-1s-0.3-0.9-0.1-1.4c0.1-0.5,0.5-1,1-1.5l33.9-35.2c0.1-0.1,0.3-0.2,0.5-0.3
				s0.5-0.2,0.8-0.3s0.7-0.1,1-0.2c0.4,0,0.7-0.1,1.1-0.1h0.1h0.1h0.1h0.1c0.4,0,0.8,0,1.1,0.1s0.6,0.1,0.8,0.2
				c0.2,0.1,0.4,0.2,0.4,0.3c0.1,0.1,0.1,0.2,0,0.4l-4,5.1h38.1l-4-5.1c-0.1-0.1-0.1-0.2,0-0.4c0.1-0.1,0.2-0.2,0.4-0.3
				s0.5-0.2,0.8-0.2c0.3-0.1,0.7-0.1,1.1-0.1h0.1h0.1h0.1h0.1c0.4,0,0.8,0,1.1,0.1c0.4,0,0.7,0.1,1,0.2c0.3,0.1,0.6,0.2,0.8,0.3
				s0.4,0.2,0.5,0.3l33.9,35.2c0.5,0.5,0.8,1,1,1.5C216.5,592.5,216.5,592.9,216.2,593.3z"/>
		</g>
		<g>
			<g class="st7">
				<g class="st8">
					<g>
						<path class="st9" d="M194.9,2.6h-0.1c-0.2,0-0.3,0-0.5,0c-0.1,0-0.3,0-0.4,0.1c-0.1,0-0.3,0.1-0.4,0.1c-0.1,0-0.3,0.1-0.4,0.1
							c-0.1,0-0.3,0.1-0.4,0.1c-0.1,0.1-0.3,0.1-0.4,0.2c-0.1,0.1-0.3,0.1-0.4,0.2c-0.1,0.1-0.3,0.1-0.4,0.2
							c-0.1,0.1-0.2,0.2-0.3,0.2c-0.1,0.1-0.2,0.2-0.3,0.3c-0.1,0.1-0.2,0.2-0.3,0.3c-0.1,0.1-0.2,0.2-0.3,0.3
							c-0.1,0.1-0.2,0.2-0.2,0.3c-0.1,0.1-0.1,0.2-0.2,0.3c-0.1,0.1-0.1,0.2-0.2,0.3c0,0.1-0.1,0.2-0.1,0.4l-10.2,35.1h-38.1
							l-14.1-35c0-0.1-0.1-0.2-0.2-0.4c-0.1-0.1-0.1-0.2-0.2-0.3c-0.1-0.1-0.2-0.2-0.2-0.3c-0.1-0.1-0.2-0.2-0.3-0.3
							c-0.1-0.1-0.2-0.2-0.3-0.3c-0.1-0.1-0.2-0.2-0.3-0.3c-0.1-0.1-0.2-0.2-0.4-0.3c-0.1-0.1-0.2-0.2-0.4-0.2
							c-0.1-0.1-0.3-0.2-0.4-0.2c-0.1-0.1-0.3-0.1-0.4-0.2c-0.1-0.1-0.3-0.1-0.4-0.2C123.6,3,123.4,3,123.3,3s-0.3-0.1-0.4-0.1
							s-0.3-0.1-0.4-0.1s-0.3,0-0.5-0.1c-0.2,0-0.3,0-0.5,0h-0.1h-0.1h-0.1h-0.1c-0.2,0-0.3,0-0.5,0.1c-0.1,0-0.3,0.1-0.4,0.1
							S119.9,3,119.8,3c-0.1,0.1-0.2,0.1-0.4,0.2c-0.1,0.1-0.2,0.1-0.3,0.2c-0.1,0.1-0.2,0.1-0.3,0.2c-0.1,0.1-0.2,0.2-0.3,0.3
							c-0.1,0.1-0.1,0.2-0.2,0.3s-0.1,0.2-0.2,0.3c0,0.1-0.1,0.2-0.1,0.3c0,0.1-0.1,0.2-0.1,0.3c0,0.1,0,0.2,0,0.4
							c0,0.1,0,0.2,0,0.4c0,0.1,0,0.2,0.1,0.4c0,0.1,0.1,0.3,0.1,0.4s0.1,0.3,0.2,0.4l21.8,47c0,0.1,0.1,0.1,0.1,0.2
							c0,0.1,0.1,0.1,0.1,0.1l0.1,0.1c0,0,0.1,0.1,0.2,0.1c0.1,0,0.1,0.1,0.2,0.1c0.1,0,0.1,0.1,0.2,0.1c0.1,0,0.1,0.1,0.2,0.1
							c0.1,0,0.1,0.1,0.2,0.1c0.1,0,0.2,0.1,0.2,0.1c0.1,0,0.2,0.1,0.2,0.1c0.1,0,0.2,0,0.3,0.1c0.1,0,0.2,0,0.3,0.1
							c0.1,0,0.2,0,0.3,0s0.2,0,0.3,0s0.2,0,0.3,0s0.2,0,0.3,0h0.1h0.1h0.1h0.1c0.1,0,0.2,0,0.3,0s0.2,0,0.3,0s0.2,0,0.3-0.1
							c0.1,0,0.2,0,0.2-0.1c0.1,0,0.2-0.1,0.2-0.1c0.1,0,0.1-0.1,0.2-0.1c0.1,0,0.1-0.1,0.2-0.1c0.1,0,0.1-0.1,0.2-0.1
							c0.1,0,0.1-0.1,0.1-0.1l0.1-0.1l0.1-0.1l0.1-0.1c0-0.1,0-0.1,0-0.2c0-0.1,0-0.1,0-0.2c0-0.1,0-0.1,0-0.2c0-0.1,0-0.1,0-0.2
							l-3.5-8.7h35.6l-2.5,8.7c0,0.1,0,0.1,0,0.2c0,0.1,0,0.1,0,0.2c0,0.1,0,0.1,0,0.2c0,0.1,0,0.1,0.1,0.2l0.1,0.1l0.1,0.1l0.1,0.1
							c0,0,0.1,0.1,0.2,0.1c0.1,0,0.1,0.1,0.2,0.1c0.1,0,0.1,0.1,0.2,0.1c0.1,0,0.1,0.1,0.2,0.1c0.1,0,0.2,0.1,0.2,0.1
							c0.1,0,0.2,0,0.3,0.1c0.1,0,0.2,0,0.3,0.1c0.1,0,0.2,0,0.3,0s0.2,0,0.3,0h0.1h0.1h0.1h0.1c0.1,0,0.2,0,0.3,0s0.2,0,0.3,0
							s0.2,0,0.3,0s0.2,0,0.3,0s0.2,0,0.3-0.1c0.1,0,0.2,0,0.2-0.1c0.1,0,0.2-0.1,0.2-0.1c0.1,0,0.2-0.1,0.2-0.1
							c0.1,0,0.1-0.1,0.2-0.1c0.1,0,0.1-0.1,0.2-0.1c0.1,0,0.1-0.1,0.2-0.1c0.1,0,0.1-0.1,0.2-0.1c0.1,0,0.1-0.1,0.1-0.1l0.1-0.1
							l0.1-0.1c0-0.1,0-0.1,0.1-0.2l16.8-47c0-0.1,0.1-0.3,0.1-0.4s0.1-0.3,0.1-0.4s0-0.2,0-0.4c0-0.1,0-0.2,0-0.4
							c0-0.1,0-0.2-0.1-0.4c0-0.1-0.1-0.2-0.1-0.3c0-0.1-0.1-0.2-0.2-0.3c-0.1-0.1-0.1-0.2-0.2-0.3c-0.1-0.1-0.2-0.2-0.2-0.3
							c-0.1-0.1-0.2-0.2-0.3-0.3s-0.2-0.2-0.3-0.2c-0.1-0.1-0.2-0.1-0.3-0.2c-0.1-0.1-0.2-0.1-0.4-0.2c-0.1-0.1-0.3-0.1-0.4-0.1
							c-0.1,0-0.3-0.1-0.4-0.1c-0.2,0-0.3,0-0.5-0.1h-0.1H195L194.9,2.6"/>
					</g>
				</g>
			</g>
			<path class="st10" d="M216.1,17.1c-0.2-0.4-0.6-0.8-1.2-1c-0.6-0.3-1.3-0.4-2.2-0.5c-0.1,0-0.1,0-0.2,0c-0.1,0-0.1,0-0.2,0
				c-0.1,0-0.1,0-0.2,0c-0.1,0-0.1,0-0.2,0c-0.9,0-1.7,0.1-2.6,0.3c-0.9,0.2-1.7,0.5-2.6,0.8c-0.8,0.3-1.5,0.7-2.2,1.2
				c-0.6,0.4-1.2,0.9-1.6,1.4l-22.1,28.4h-41.7L117,19.3c-0.4-0.5-0.9-1-1.6-1.4c-0.6-0.4-1.4-0.8-2.2-1.2c-0.8-0.3-1.7-0.6-2.6-0.8
				s-1.8-0.3-2.6-0.3c-0.1,0-0.1,0-0.2,0s-0.1,0-0.2,0s-0.1,0-0.2,0s-0.1,0-0.2,0c-0.9,0.1-1.6,0.2-2.2,0.5c-0.6,0.3-1,0.6-1.2,1
				s-0.3,0.9-0.1,1.4c0.1,0.5,0.5,1,1,1.5L139,55.2c0.1,0.1,0.3,0.2,0.5,0.3s0.5,0.2,0.8,0.3s0.7,0.1,1,0.2c0.4,0,0.7,0.1,1.1,0.1
				h0.1h0.1h0.1h0.1c0.4,0,0.8,0,1.1-0.1s0.6-0.1,0.8-0.2c0.2-0.1,0.4-0.2,0.4-0.3c0.1-0.1,0.1-0.2,0-0.4l-4-5.1h38.1l-4,5.1
				c-0.1,0.1-0.1,0.2,0,0.4c0.1,0.1,0.2,0.2,0.4,0.3s0.5,0.2,0.8,0.2c0.3,0.1,0.7,0.1,1.1,0.1h0.1h0.1h0.1h0.1c0.4,0,0.8,0,1.1-0.1
				c0.4,0,0.7-0.1,1-0.2c0.3-0.1,0.6-0.2,0.8-0.3s0.4-0.2,0.5-0.3l34-35.2c0.5-0.5,0.8-1,1-1.5C216.4,18,216.4,17.5,216.1,17.1z"/>
		</g>
	</g>
	<g id="Calque_2" class="st11">
		<circle class="st12" cx="160" cy="55" r="10"/>
		<g class="st12">
			<circle cx="100" cy="145" r="10"/>
			<circle cx="215" cy="145" r="10"/>
		</g>
		<g class="st12">
			<circle cx="110" cy="235" r="10"/>
			<circle cx="210" cy="235" r="10"/>
		</g>
		<g class="st12">
			<circle cx="55" cy="190" r="10"/>
			<g>
				<circle cx="160" cy="190" r="10"/>
				<circle cx="260" cy="190" r="10"/>
			</g>
		</g>
		<g class="st12">
			<circle cx="160" cy="280" r="10"/>
			<circle cx="55" cy="280" r="10"/>
			<circle cx="260" cy="280" r="10"/>
		</g>
		<g class="st12">
			<g>
				<circle cx="110" cy="100" r="10"/>
				<circle cx="35" cy="100" r="10"/>
			</g>
			<g>
				<circle cx="205" cy="100" r="10"/>
				<circle cx="285" cy="100" r="10"/>
			</g>
		</g>
		<text transform="matrix(1 0 0 1 123.1653 82.0359)" class="st12 st13 st14">(o) McIntyre</text>
		<text transform="matrix(1 0 0 1 81.5315 124.3029)" class="st12 st13 st15">(o) McIntyre</text>
		<text transform="matrix(1 0 0 1 174.4759 124.3029)" class="st12 st13 st15">(o) McIntyre</text>
		<text transform="matrix(1 0 0 1 71.5315 167.2553)" class="st12 st13 st15">(o) McIntyre</text>
		<text transform="matrix(1 0 0 1 185.4759 167.2553)" class="st12 st13 st15">(o) McIntyre</text>
		<text transform="matrix(1 0 0 1 78.5315 255.5102)" class="st12 st13 st15">(o) McIntyre</text>
		<text transform="matrix(1 0 0 1 176.4759 255.5102)" class="st12 st13 st15">(o) McIntyre</text>
		<text transform="matrix(1 0 0 1 253.8366 124.3029)" class="st12 st13 st15">(o) McIntyre</text>
		<text transform="matrix(1 0 0 1 24.5315 211.9574)" class="st12 st13 st15">(o) McIntyre</text>
		<text transform="matrix(1 0 0 1 128.4759 211.9574)" class="st12 st13 st15">(o) McIntyre</text>
		<text transform="matrix(1 0 0 1 228.8366 211.9574)" class="st12 st13 st15">(o) McIntyre</text>
		<text transform="matrix(1 0 0 1 24.5315 301.624)" class="st12 st13 st15">(o) McIntyre</text>
		<text transform="matrix(1 0 0 1 128.4759 301.624)" class="st12 st13 st15">(o) McIntyre</text>
		<text transform="matrix(1 0 0 1 228.8366 301.624)" class="st12 st13 st15">(o) McIntyre</text>
		<text transform="matrix(1 0 0 1 11.4778 124.3029)" class="st12 st13 st15">McIntyre</text>
	</g>
</g>
<circle class="st11" cx="159.5" cy="540.6" r="10"/>
<g class="st11">
	<circle class="st12" cx="220" cy="450" r="10"/>
	<circle class="st12" cx="105" cy="450" r="10"/>
</g>
<g class="st11">
	<circle class="st12" cx="209.5" cy="360.6" r="10"/>
	<circle class="st12" cx="109.5" cy="360.6" r="10"/>
</g>
<g class="st11">
	<circle class="st12" cx="264.5" cy="405.6" r="10"/>
	<g class="st12">
		<circle cx="159.5" cy="405.6" r="10"/>
		<circle cx="59.5" cy="405.6" r="10"/>
	</g>
</g>
<g class="st11">
	<circle class="st12" cx="159.5" cy="315.6" r="10"/>
	<circle class="st12" cx="264.5" cy="315.6" r="10"/>
	<circle class="st12" cx="59.5" cy="315.6" r="10"/>
</g>
<g class="st11">
	<g class="st12">
		<circle cx="210" cy="495" r="10"/>
		<circle cx="285" cy="495" r="10"/>
	</g>
	<g class="st12">
		<circle cx="115" cy="495" r="10"/>
		<circle cx="35" cy="495" r="10"/>
	</g>
</g>
</svg>
