<?xml version="1.0" encoding="utf-8"?>
<!-- Generator: Adobe Illustrator 26.0.2, SVG Export Plug-In . SVG Version: 6.00 Build 0)  -->
<svg version="1.1"
	 id="svg5017" xmlns:cc="http://creativecommons.org/ns#" xmlns:dc="http://purl.org/dc/elements/1.1/" xmlns:inkscape="http://www.inkscape.org/namespaces/inkscape" xmlns:rdf="http://www.w3.org/1999/02/22-rdf-syntax-ns#" xmlns:sodipodi="http://sodipodi.sourceforge.net/DTD/sodipodi-0.dtd" xmlns:svg="http://www.w3.org/2000/svg"
	 xmlns="http://www.w3.org/2000/svg" xmlns:xlink="http://www.w3.org/1999/xlink" x="0px" y="0px" viewBox="0 0 266.4 266.4"
	 enable-background="new 0 0 266.4 266.4" xml:space="preserve">
<g>
	<rect x="-1.2" fill="#FFFFFF" width="268" height="266.3"/>
	<g>
		
			<linearGradient id="path758_00000076588387700770271000000011748573881305373075_" gradientUnits="userSpaceOnUse" x1="-513.3422" y1="-318.3018" x2="-495.4337" y2="-318.3998" gradientTransform="matrix(12.8652 0 0 -12.8652 6618.1553 -4017.9207)">
			<stop  offset="0" style="stop-color:#17213C"/>
			<stop  offset="0.1165" style="stop-color:#172441"/>
			<stop  offset="0.2397" style="stop-color:#18385B"/>
			<stop  offset="0.3041" style="stop-color:#184369"/>
			<stop  offset="0.4123" style="stop-color:#195783"/>
			<stop  offset="0.5311" style="stop-color:#1A6C9F"/>
			<stop  offset="0.6314" style="stop-color:#1B7BB3"/>
			<stop  offset="0.7574" style="stop-color:#1B7EB7"/>
			<stop  offset="0.8999" style="stop-color:#1B7EB7"/>
			<stop  offset="1" style="stop-color:#1B7EB7"/>
		</linearGradient>
		
			<path id="path758" inkscape:connector-curvature="0" fill="url(#path758_00000076588387700770271000000011748573881305373075_)" d="
			M113.5,26.4c-7.1,3.7-13.5,8.8-18.7,14.9l0,0c-5.1,6.1-9,13.3-11.3,20.8l0,0c3.3-9.3,8.9-17.6,16-24.2l0,0
			c0.4-0.1,1.2-0.2,2.4-0.5l0,0c7.3-1.5,35.9-5.9,63,11.4l0,0c-2.6,2.4-10.4,7.5-33.2,13.4l0,0c-2.8,0.4-34.8,5.6-49.2,19.9l0,0
			c0,2.6,0.2,5.1,0.6,7.7l0,0c10.2-16.3,49.1-22.3,49.5-22.3l0,0l0.3-0.1c24.1-6.2,33.1-11.9,36.5-15.6l0,0c2.9,2.1,5.7,4.5,8.5,7.2
			l0,0c-22.5,40.9-63,66.4-70.4,70.8l0,0c1.6,1.1,3.3,2.2,5,3.2l0,0c11.5-7.1,47.5-31.5,69.3-70.1l0,0c1.8,2.1,4.4,5.5,7.1,10l0,0
			c-0.9,2.1-1.9,4.6-2.8,7.4l0,0l-0.1,0.4l-5.3,23.3c0,0-1.8,10.1-5.5,17.2l0,0c0,0-5.6,8.9-13.3,14.8l0,0c0,0,4.9-1,14.6-7.5l0,0
			c0,0,6-5.2,8.8-19.8l0,0l4.3-19.9l0.9-4.8l0.3-0.9c0.4-1.4,0.9-2.7,1.3-3.9l0,0c2.8,6.1,5.1,13.5,6,22.2l0,0l0.4-1
			c2.7-7.5,3.9-15.5,3.5-23.5l0,0c-0.5-8-2.5-15.9-6-23.1l0,0c-7-14.5-20.1-25.9-35.4-31l0,0c-6.2-2.1-12.7-3.1-19.2-3.1l0,0
			C131.6,19.8,122,22,113.5,26.4 M114.2,27.8c7.1-3.4,14.7-5.5,22.5-6l0,0c6.5-0.4,13.2,0.2,19.5,1.9l0,0
			c3.9,2.8,14.2,11.2,11.3,20.5l0,0c-21.4-13.5-43.7-14.4-56.9-13.3l0,0c-0.9,0.1-1.6,0.1-2.2,0.2l0,0
			C110.2,29.9,112.1,28.8,114.2,27.8 M172,47.3c2.9-6.8,0.7-13.3-3.1-18.6l0,0c4,2.1,7.7,4.6,11.2,7.6l0,0c1.8,1.5,3.4,3.1,5,4.9
			l0,0c-1.3,3.9-3.5,9.3-4.9,12.8l0,0C177.4,51.5,174.7,49.3,172,47.3 M184.2,57.9c1.1-2.5,3.1-7.6,4.7-12l0,0
			c2,2.8,3.9,5.7,5.5,8.7l0,0c1.1,2.1,2.1,4.4,2.9,6.6l0,0c-1.6,1.1-3.6,2.9-5.7,6.3l0,0C188.6,62.8,185.8,59.6,184.2,57.9
			 M194.7,72.7c1.6-3.1,3.1-5,4.3-6.1l0,0c1.9,7,2.5,14.3,1.8,21.5l0,0C199.1,82.2,197,77,194.7,72.7"/>
		<g id="g9832" transform="matrix(12.865239,0,0,-12.865239,-560.30761,837.17167)">
			<path id="path1664" inkscape:connector-curvature="0" fill="#1B7EB7" d="M49.8,47.1H51v0.5h-1.2V48h1.3v0.5h-2v-2.6h2.1v0.5h-1.4
				L49.8,47.1L49.8,47.1z"/>
			<path id="path1666" inkscape:connector-curvature="0" fill="#1B7EB7" d="M50.2,48.8l0.5,0.4H50l-0.2-0.4H50.2z"/>
			<path id="path1668" inkscape:connector-curvature="0" fill="#1B7EB7" d="M52.2,48.6h-0.7V46h1.7v0.6h-1V48.6z"/>
			<path id="path1670" inkscape:connector-curvature="0" fill="#1B7EB7" d="M54.5,48h0.7v-2.1h0.7V48h0.7v0.5h-2V48H54.5z"/>
			<path id="path1672" inkscape:connector-curvature="0" fill="#1B7EB7" d="M57.5,47.1h1.2v0.5h-1.2V48h1.3v0.5h-2v-2.6h2.1v0.5
				h-1.4L57.5,47.1L57.5,47.1z"/>
			<g id="g1684">
				<g>
					<g id="g1686">
						<path id="path1688" inkscape:connector-curvature="0" fill="#1B7EB7" d="M53.6,45.9h0.7v2.6h-0.7V45.9L53.6,45.9z"/>
					</g>
				</g>
			</g>
		</g>
		<g id="g9858" transform="matrix(12.865239,0,0,-12.865239,-560.30761,837.17167)">
			<path id="path1694" inkscape:connector-curvature="0" fill="#231F20" d="M57.7,51.3c0-0.5,0.1-0.8,0.5-0.8s0.5,0.5,0.5,0.8
				c0,0.4-0.1,0.7-0.5,0.7C58,52,57.8,51.8,57.7,51.3 M56.9,49.1v3.5h0.9v-0.1c0-0.2,0.1-0.1,0.1,0c0,0,0.2,0.2,0.6,0.2
				c0.4,0,1.1-0.3,1.1-1.4c0-0.8-0.4-1.4-1.1-1.4c-0.4,0-0.6,0.2-0.7,0.2c-0.1,0.1-0.1,0.1-0.1,0v-1H56.9z"/>
			<path id="path1696" inkscape:connector-curvature="0" fill="#231F20" d="M50.2,53.8h0.9v-2.5c0-0.4-0.2-1.3-1.5-1.3
				s-1.4,0.8-1.4,1.3v0.5h0.9v-0.4c0-0.3,0.2-0.5,0.5-0.5s0.6,0.2,0.6,0.5V53.8z"/>
			<path id="path1698" inkscape:connector-curvature="0" fill="#231F20" d="M53.1,51.7c0,0.3-0.1,0.5-0.5,0.5
				c-0.3,0-0.4-0.2-0.4-0.5H53.1z M52.5,52.7c0.7,0,1.4-0.3,1.4-1.6h-1.8c0-0.4,0.2-0.6,0.5-0.6s0.4,0.2,0.4,0.2h0.9
				c0-0.4-0.5-0.9-1.3-0.9c-0.9,0-1.3,0.7-1.3,1.3C51.3,51.9,51.6,52.7,52.5,52.7"/>
			<path id="path1700" inkscape:connector-curvature="0" fill="#231F20" d="M55.9,51.7c0,0.3-0.1,0.5-0.5,0.5
				c-0.3,0-0.4-0.2-0.4-0.5H55.9z M55.3,52.7c0.7,0,1.4-0.3,1.4-1.6h-1.8c0-0.4,0.2-0.6,0.5-0.6s0.4,0.2,0.4,0.2h0.9
				c0-0.4-0.5-0.9-1.3-0.9c-0.9,0-1.3,0.7-1.3,1.3C54.1,51.9,54.4,52.7,55.3,52.7"/>
			
				<path id="path1704" inkscape:connector-curvature="0" fill="none" stroke="#231F20" stroke-width="3.715074e-02" stroke-miterlimit="51.461" d="
				M59.6,49.6c0-0.1-0.1-0.3-0.3-0.3c-0.1,0-0.3,0.1-0.3,0.3s0.1,0.3,0.3,0.3C59.5,49.8,59.6,49.7,59.6,49.6z"/>
			<path id="path1706" inkscape:connector-curvature="0" fill="#231F20" d="M59.4,49.4L59.4,49.4L59.4,49.4
				c-0.1,0.1-0.1,0.1-0.1,0.2c0,0,0,0.1-0.1,0.1h-0.1v-0.3l0,0v0.1h0.1L59.4,49.4L59.4,49.4z M59.3,49.6L59.3,49.6L59.3,49.6
				c0.1,0.1,0.2,0.1,0.2,0C59.4,49.6,59.4,49.6,59.3,49.6L59.3,49.6L59.3,49.6z"/>
		</g>
	</g>
</g>
</svg>
