<?xml version="1.0" encoding="utf-8"?>
<!-- Generator: Adobe Illustrator 26.0.2, SVG Export Plug-In . SVG Version: 6.00 Build 0)  -->
<svg version="1.1" id="Calque_3" xmlns="http://www.w3.org/2000/svg" xmlns:xlink="http://www.w3.org/1999/xlink" x="0px" y="0px"
	 viewBox="0 0 266.4 266.4" enable-background="new 0 0 266.4 266.4" xml:space="preserve">
<path fill="#091C3E" d="M1.1,0.3v265.3h263.8V0.3H1.1z"/>
<g>
	<g>
		<path fill="#FFFFFF" d="M151,94.1c0,9.8-8,17.8-17.8,17.8s-17.8-8-17.8-17.8s8-17.8,17.8-17.8C143,76.4,151,84.4,151,94.1"/>
		<path fill="#15FFCF" d="M97.8,89.7C98.2,70,115.3,54.1,136,54.5c4,0.1,8.1,0.8,12,2.3l12.3-21.2c-7.6-3.2-15.6-4.4-23.9-4.5
			c-34.1-0.6-62.3,25.5-62.8,58.2c-0.3,18.5,8.4,36.5,24.3,48.2l12.1-20.8C102.1,109.8,97.7,100,97.8,89.7"/>
		<path fill="#15FFCF" d="M168.6,98.8c-0.3,19.8-17.4,35.6-38.1,35.2c-4-0.1-8.1-0.8-12-2.3l-12.3,21.2c7.6,3.2,15.6,4.4,23.9,4.5
			c34.1,0.6,62.2-25.5,62.8-58.2c0.3-18.4-8.4-36.5-24.3-48.2l-12.1,20.8C164.3,78.8,168.7,88.6,168.6,98.8"/>
	</g>
	<g>
		<path fill-rule="evenodd" clip-rule="evenodd" fill="#8EC740" d="M105.3,239.3c5.4,0,9-3.4,9.8-8.6l3.7-23.8H98.1
			c-5.4,0-9,3.4-9.8,8.6l-3.7,23.8H105.3z"/>
		<path fill-rule="evenodd" clip-rule="evenodd" fill="#0EB04B" d="M135.7,239.3c5.4,0,9-3.4,9.8-8.6l3.7-23.8h-20.7
			c-5.4,0-9,3.4-9.8,8.6l-3.7,23.8H135.7z"/>
		<path fill-rule="evenodd" clip-rule="evenodd" fill="#00854B" d="M166.1,239.3c5.4,0,9-3.4,9.8-8.6l3.7-23.8h-20.7
			c-5.4,0-9,3.4-9.8,8.6l-3.7,23.8H166.1z"/>
		<path fill-rule="evenodd" clip-rule="evenodd" fill="#FFFFFF" d="M109.5,222.3L109.5,222.3L109.5,222.3c3.2-0.7,4.7-2.2,4.4-4.7
			c-0.3-2.8-2.7-4.2-8.5-4.2H91.6l-3.2,19.1h15.4c5.8,0,10.8-1.8,10.2-6.4C113.8,224.4,112,222.7,109.5,222.3 M102.5,228h-5.3
			l0.6-3.6h4.5c1.7,0,3.2,0.2,3.4,1.6C106,227.7,104,228,102.5,228 M103,220.9h-4.6l0.5-2.9h4.2c1.5,0,2.6,0.2,2.7,1.4
			C106,220.5,104.3,220.9,103,220.9 M136.2,213.4l-8.2,6.4l-0.1-0.1l1.1-6.3h-8.1l-3.1,19.2h8l0.9-5.6l2.5-1.8l5.7,7.4h9l-8.9-11.3
			l11.5-7.9L136.2,213.4L136.2,213.4z M152.2,213.4l-0.8,4.9h7.4l-2.4,14.2h8.2l2.4-14.2h7.4l0.8-4.9H152.2z"/>
	</g>
	<path fill="#FEFFFF" d="M117.1,193.4c-0.9,0.4-1.9,0.6-3.1,0.6c-3.6,0-6.4-2.5-6.4-6c0-3.6,2.6-5.8,6.4-5.8c2.6,0,4.3,0.5,6,1.3
		l1.2-4.4c-1.5-0.8-4.1-1.4-7.4-1.4c-6.9,0-11.5,4.6-11.5,10.3c0,5.8,4.6,10.3,11.4,10.3c4.5,0,7.1-1.6,8.1-2.5v-8.2l-4.7,0.6V193.4
		L117.1,193.4z M79.4,177.9h-5.1V198H89v-4.2h-9.6V177.9z M92.7,198h5.1v-20.1h-5.1V198z M156,189.8h7.9v-4H156v-3.6h9.7V178H151v20
		h15v-4.2h-10V189.8L156,189.8z M140.4,189.6c0,2.2-1.3,4.4-4.5,4.4s-4.5-2.2-4.5-4.4v-11.7h-5.1v11.3c0,6,3.8,9.1,9.5,9.1
		c5.8,0,9.6-3.1,9.6-9.1v-11.3h-5.1L140.4,189.6L140.4,189.6z M185.1,193.8L185.1,193.8l4.1-4.9c1.5-1.8,2.2-3.4,2.2-5.1
		c0-1.8-0.7-3.3-1.9-4.4c-1.4-1.2-3.5-1.9-6.2-1.9c-4.5,0-7.2,2.3-7.6,2.6l2.6,3.8c1.2-1,2.4-1.8,4.3-1.8c1.8,0,3,1.1,3,2.7
		c0,1-0.4,1.6-1.5,3l-7.9,9.2v0.9H192v-4.2L185.1,193.8L185.1,193.8z"/>
</g>
</svg>
