<?xml version="1.0" encoding="utf-8"?>
<!-- Generator: Adobe Illustrator 26.0.2, SVG Export Plug-In . SVG Version: 6.00 Build 0)  -->
<svg version="1.1"
	 id="svg5017" xmlns:cc="http://creativecommons.org/ns#" xmlns:dc="http://purl.org/dc/elements/1.1/" xmlns:inkscape="http://www.inkscape.org/namespaces/inkscape" xmlns:rdf="http://www.w3.org/1999/02/22-rdf-syntax-ns#" xmlns:sodipodi="http://sodipodi.sourceforge.net/DTD/sodipodi-0.dtd" xmlns:svg="http://www.w3.org/2000/svg"
	 xmlns="http://www.w3.org/2000/svg" xmlns:xlink="http://www.w3.org/1999/xlink" x="0px" y="0px" viewBox="0 0 266.4 266.4"
	 enable-background="new 0 0 266.4 266.4" xml:space="preserve">
<path fill="#091C3E" d="M161.3,218.7c-2.6,0.1-4.6,2.2-4.6,4.8c0.1,2.6,2.2,4.6,4.8,4.6h0.1c2.5-0.1,4.6-2.1,4.5-4.6v-0.2
	C166,220.7,163.9,218.6,161.3,218.7L161.3,218.7z M112.9,218.3c-2.2,0-4.1,1.6-4.6,3.8h9.1C116.9,220,115.1,218.3,112.9,218.3z
	 M95.7,218.3c-2.9,0-5.1,2.3-5.1,5.2s2.3,5.1,5.2,5.1c2.9,0,5.1-2.3,5.1-5.1v-0.1C100.9,220.6,98.5,218.3,95.7,218.3L95.7,218.3z"/>
<path fill="#091C3E" d="M1.1,0.3v265.3h263.8V0.3H1.1z M197.7,98.8c-9.4,19.9-20.1,37.2-33.8,54.1c-19.2,2.9-37.8,2.5-58.4,0.5
	l13.4-21.5c10.8,0.6,21.5,0.6,32.3-0.3c7.7-10.4,14.5-21.4,20.2-33c-4.6-9-9.8-17.7-15.6-25.9l13.4-21.4
	C180.3,66,190.4,81.6,197.7,98.8z M179.4,184.8l-1-4.2l7.2-4h2.8v19.7h-4.7v-13.9L179.4,184.8L179.4,184.8z M117.2,192.4
	c1.1,0.1,2.1-0.2,3.1-0.6v-5l4.6-0.6v8c-1,0.8-3.4,2.4-7.9,2.4c-6.6,0-11.1-4.5-11.1-10.1s4.5-10.1,11.2-10.1c2.5-0.1,5,0.4,7.3,1.4
	l-1.2,4.3c-1.9-0.9-3.9-1.3-5.9-1.2c-3.7,0-6.3,2.2-6.3,5.7C110.9,190.1,113.7,192.4,117.2,192.4L117.2,192.4z M116.1,94.7
	c0-9.6,7.8-17.4,17.4-17.4c9.6,0.1,17.4,7.8,17.4,17.4s-7.8,17.4-17.4,17.4S116.1,104.3,116.1,94.7z M103.1,36.5
	c19.4-2.3,39-2.5,58.4-0.5L148,57.5c-10.8-0.6-21.5-0.6-32.3,0.3c-7.7,10.3-14.5,21.4-20.3,33c4.7,9,9.9,17.6,15.7,25.9l-13.4,21.4
	c-11.6-15.3-21-30.2-28.4-47.3C78.2,71.3,89.6,53.1,103.1,36.5L103.1,36.5z M101.2,176.7v19.7h-4.9v-19.7H101.2z M92.7,192.3v4.1
	H78.4v-19.7h5v15.6L92.7,192.3L92.7,192.3z M85,231h-3v-2c-1.4,1.5-3.4,2.3-5.4,2.3c-4.4,0-7.7-3.2-7.7-8.1v-12.8H72v12.7
	c0,3.3,2.2,5.4,5,5.4s5-2.2,5-5.5v-12.6h3V231L85,231z M95.9,231.3c-2,0-3.9-0.8-5.3-2.2v1.9h-2.9v-20.5h2.9v7.5
	c1.4-1.4,3.3-2.2,5.3-2.2h0.8c4.3,0.2,7.6,3.9,7.4,8.2C103.9,228.2,100.2,231.5,95.9,231.3L95.9,231.3z M113.1,228.7
	c1.7,0.1,3.3-0.8,4.3-2.2l2.1,1.5c-1.5,2.1-3.9,3.2-6.5,3.2h-0.3c-4.2-0.1-7.7-3.6-7.6-7.9c0-4.2,3.4-7.7,7.6-7.7
	c4.3,0,7.5,3.3,7.5,7.8v0.9h-12C108.6,226.9,110.7,228.7,113.1,228.7L113.1,228.7z M129.8,218.6h-1.2c-1.9,0-3.3,1.5-3.3,3.8v8.5h-3
	v-15h2.8v1.8h0.1c0.7-1.2,2.1-2,3.5-1.9h1.1L129.8,218.6L129.8,218.6z M129.3,187.7v-11h4.9v11.4c0.1,2.3,1.9,4.1,4.2,4.2
	c2.4,0.1,4.5-1.8,4.6-4.2l0.1-11.4h4.9v11c0,5.8-3.8,8.9-9.3,8.9C133,196.6,129.3,193.6,129.3,187.7z M151.6,213.9h-10.5v5h10.2v3.4
	h-10.2v5.1h10.5v3.6h-14.4v-20.6h14.4V213.9L151.6,213.9z M153.3,176.7h14.4v4.1h-9.5v3.6h7.7v3.9h-7.7l0.1,4h9.8v4.1h-14.7
	L153.3,176.7L153.3,176.7L153.3,176.7z M169.9,231H166v-1.4c-1.4,1.1-3.1,1.8-4.8,1.8h-0.3c-4-0.4-7.1-3.6-7.3-7.6
	c-0.2-4.4,3.2-8.1,7.6-8.3c1.8,0,3.5,0.6,4.8,1.8v-1.4l3.8-0.1L169.9,231L169.9,231z M182.6,219.2h-4.3v7.1c0,0.8,0.6,1.2,1.4,1.2
	h2.9v3.4h-4.1c-2.6,0-4-1.6-4-3.7v-8.1h-2.9v-3.4h2.9v-4.3h3.8v4.3h4.3L182.6,219.2z M191.4,231.4c-4.8,0-7.1-2.1-7.6-5.3h3.8
	c0.5,1.7,1.8,2.2,4,2.2c1.7,0,2.8-0.6,2.8-1.5c0-0.6-0.4-1-1.9-1.3l-3.7-0.8c-3.3-0.7-4.9-2.1-4.9-4.4c0-3.2,2.8-4.8,6.8-4.8
	c4.6,0,6.9,2.1,7.1,5.3H194c-0.4-1.7-1.7-2.2-3.5-2.2c-1.6,0-2.6,0.5-2.6,1.5c0,0.7,0.6,1.1,2.5,1.4l3.3,0.7
	c3.1,0.7,4.6,2.2,4.6,4.3C198.3,229.3,195.8,231.4,191.4,231.4L191.4,231.4z"/>
<path fill="#06C167" d="M178.3,211.5h-3.8v4.3h-2.9v3.4h2.9v8.1c0,2,1.4,3.7,4,3.7h4.1v-3.4h-2.9c-0.9,0-1.4-0.4-1.4-1.2v-7.1h4.3
	v-3.4h-4.3L178.3,211.5L178.3,211.5z M137.2,231h14.4v-3.5h-10.5v-5.1h10.2V219h-10.2v-5h10.5v-3.5h-14.4V231z M166,217.2
	c-1.3-1.2-3.1-1.8-4.8-1.8c-4.4,0.2-7.8,3.9-7.6,8.3c0.2,4,3.3,7.3,7.3,7.6h0.3c1.8,0,3.5-0.6,4.8-1.8v1.4h3.8v-15.2l-3.8,0.1V217.2
	L166,217.2z M166.1,223.4L166.1,223.4c0.1,2.6-2,4.7-4.5,4.7h-0.1c-2.6,0.1-4.7-2-4.8-4.6s2-4.7,4.6-4.8s4.7,2,4.8,4.6V223.4
	L166.1,223.4z M193.8,222l-3.3-0.7c-1.9-0.4-2.5-0.7-2.5-1.4c0-1,1-1.5,2.6-1.5c1.8,0,3.2,0.5,3.5,2.2h3.8c-0.2-3.2-2.5-5.3-7.1-5.3
	c-4,0-6.8,1.6-6.8,4.8c0,2.2,1.5,3.7,4.9,4.4l3.7,0.8c1.4,0.3,1.9,0.7,1.9,1.3c0,1-1.1,1.5-2.8,1.5c-2.2,0-3.4-0.5-4-2.2h-3.8
	c0.5,3.2,2.8,5.3,7.6,5.3c4.4,0,6.9-2.1,6.9-5C198.3,224.3,196.8,222.7,193.8,222L193.8,222z"/>
<path fill="#FFFFFF" d="M125.3,217.9L125.3,217.9l-0.1-1.9h-2.8v15h3v-8.5c0-2.3,1.4-3.8,3.3-3.8h1.2v-2.8h-1.1
	C127.4,215.9,126,216.6,125.3,217.9z M120.3,223.5c0-4.5-3.2-7.8-7.5-7.8c-4.2,0.1-7.7,3.5-7.6,7.7c-0.1,4.2,3.3,7.8,7.6,7.9h0.3
	c2.5,0.1,4.9-1.1,6.5-3.2l-2.1-1.5c-1,1.4-2.6,2.2-4.3,2.2c-2.5,0-4.6-1.8-4.9-4.3h12.1L120.3,223.5L120.3,223.5z M108.3,222.1
	c0.4-2.2,2.3-3.8,4.6-3.8c2.2,0.1,4.1,1.6,4.5,3.8H108.3z M81.9,223.1c0,3.3-2.2,5.5-5,5.5c-2.9,0-5-2.1-5-5.4v-12.7h-3.1v12.8
	c0,4.8,3.4,8.1,7.7,8.1c2.1,0,4-0.8,5.4-2.3v2h3v-20.5h-3.1L81.9,223.1L81.9,223.1z M96.7,215.7h-0.8c-2,0-3.9,0.8-5.3,2.2v-7.5
	h-2.9V231h2.9v-1.9c1.4,1.4,3.3,2.2,5.3,2.2c4.3,0.2,8-3.1,8.2-7.4C104.3,219.6,101,215.9,96.7,215.7L96.7,215.7z M100.9,223.5
	c0,2.9-2.3,5.1-5.1,5.1c-2.9,0-5.2-2.3-5.2-5.1c0-2.9,2.3-5.2,5.1-5.2S100.9,220.6,100.9,223.5z M148,187.7v-11h-5l-0.1,11.4
	c-0.1,2.4-2.2,4.3-4.6,4.2c-2.3-0.1-4.1-1.9-4.2-4.2v-11.4h-4.9v11c0,5.8,3.8,8.9,9.3,8.9C144.2,196.6,148,193.6,148,187.7z
	 M168,192.3h-9.8v-4h7.7v-3.9h-7.7v-3.6h9.5v-4.1h-14.4v19.7H168V192.3L168,192.3z M117.1,180.9c2-0.1,4.1,0.4,5.9,1.2l1.2-4.3
	c-2.3-1-4.8-1.5-7.3-1.4c-6.7,0-11.2,4.5-11.2,10.1s4.5,10.1,11.1,10.1c4.5,0,6.9-1.6,7.9-2.4v-8l-4.6,0.6v5c-1,0.4-2,0.6-3.1,0.6
	c-3.5,0-6.3-2.4-6.3-5.9C110.8,183,113.4,180.9,117.1,180.9L117.1,180.9z M188.6,196.4v-19.7h-2.8l-7.3,4l1,4.1l4.4-2.3v13.8
	L188.6,196.4L188.6,196.4z M78.4,176.7v19.7h14.3v-4.1h-9.3v-15.6L78.4,176.7L78.4,176.7z M96.3,176.7h4.9v19.7h-4.9V176.7z"/>
<path fill="#CDFB0A" d="M171.5,98.6c-5.8,11.6-12.5,22.6-20.2,33c-10.8,0.8-21.5,0.9-32.3,0.3l-13.4,21.5c20.6,2,39.3,2.4,58.4-0.5
	c13.7-16.9,24.4-34.2,33.8-54.1c-7.3-17.1-17.3-32.8-28.4-47.4L156,72.8C161.7,80.9,166.9,89.6,171.5,98.6z M111.2,116.6
	c-5.8-8.3-11-16.9-15.7-25.9c5.7-11.6,12.5-22.6,20.3-33c10.8-0.8,21.5-0.9,32.3-0.3l13.5-21.5c-19.4-2-39-1.8-58.4,0.5
	C89.6,53,78.3,71.2,69.4,90.7c7.5,17.1,16.9,32,28.4,47.3L111.2,116.6L111.2,116.6z"/>
<path fill="#FFFFFF" d="M133.5,112.1c9.6,0,17.4-7.8,17.4-17.4c-0.1-9.6-7.8-17.4-17.4-17.4s-17.4,7.8-17.4,17.4
	S123.9,112.1,133.5,112.1z"/>
</svg>
