<?xml version="1.0" encoding="utf-8"?>
<!-- Generator: Adobe Illustrator 26.0.2, SVG Export Plug-In . SVG Version: 6.00 Build 0)  -->
<svg version="1.1" id="Calque_1" xmlns="http://www.w3.org/2000/svg" xmlns:xlink="http://www.w3.org/1999/xlink" x="0px" y="0px"
	 viewBox="0 0 49.7 44.5" enable-background="new 0 0 49.7 44.5" xml:space="preserve">
<path fill="#FFFFFF" d="M48.2,6.9L32.6,0.2c-0.1,0-0.2-0.1-0.3-0.1H17.5L1.9,6.9C1.5,7.1,1.4,7.4,1.5,7.8L4,17.7
	c0.1,0.3,0.4,0.5,0.7,0.5l5.8-0.3v25.7c0,0.4,0.3,0.7,0.7,0.7h27.7c0.4,0,0.7-0.3,0.7-0.7V17.9l5.8,0.3c0.3,0,0.6-0.2,0.7-0.5
	l2.5-9.9C48.7,7.4,48.6,7.1,48.2,6.9z M31.6,1.6c0,3.7-3,6.6-6.6,6.6c-3.6,0-6.6-3-6.6-6.6H31.6z"/>
</svg>
