<?xml version="1.0" encoding="utf-8"?>
<!-- Generator: Adobe Illustrator 26.0.2, SVG Export Plug-In . SVG Version: 6.00 Build 0)  -->
<svg version="1.1" id="Calque_1" xmlns="http://www.w3.org/2000/svg" xmlns:xlink="http://www.w3.org/1999/xlink" x="0px" y="0px"
	 viewBox="0 0 37 44.1" enable-background="new 0 0 37 44.1" xml:space="preserve">
<path fill="#FFFFFF" d="M18.5,4.2c0,0-3.7-0.1-6.8-4.1c0,0.4,0,0.9,0,1.4c0,6.7,3.1,12.2,6.9,12.2s6.9-5.5,6.9-12.2
	c0-0.5,0-0.9,0-1.4C22.2,4.2,18.5,4.2,18.5,4.2z"/>
<path fill="#FFFFFF" d="M36.6,19.3c-5.3-0.9-5.8-15.6-5.8-18.7c0-0.3-0.2-0.6-0.6-0.6c0,0,0,0,0,0h-3.6c0,0.5,0.1,1,0.1,1.5
	C26.7,9,23,15,18.5,15s-8.1-6-8.1-13.4c0-0.5,0-1,0.1-1.5H6.8C6.5,0,6.3,0.3,6.3,0.6c0,3.1-0.5,17.8-5.8,18.7
	C0.2,19.3,0,19.6,0,19.9v23.7c0,0.3,0.3,0.6,0.6,0.6c0,0,0,0,0,0h35.9c0.3,0,0.6-0.3,0.6-0.6v0V19.9C37,19.6,36.8,19.3,36.6,19.3z"
	/>
</svg>
