<?xml version="1.0" encoding="utf-8"?>
<!-- Generator: Adobe Illustrator 26.0.2, SVG Export Plug-In . SVG Version: 6.00 Build 0)  -->
<svg version="1.1"
	 id="svg5017" xmlns:cc="http://creativecommons.org/ns#" xmlns:dc="http://purl.org/dc/elements/1.1/" xmlns:inkscape="http://www.inkscape.org/namespaces/inkscape" xmlns:rdf="http://www.w3.org/1999/02/22-rdf-syntax-ns#" xmlns:sodipodi="http://sodipodi.sourceforge.net/DTD/sodipodi-0.dtd" xmlns:svg="http://www.w3.org/2000/svg"
	 xmlns="http://www.w3.org/2000/svg" xmlns:xlink="http://www.w3.org/1999/xlink" x="0px" y="0px" viewBox="0 0 266.4 266.4"
	 enable-background="new 0 0 266.4 266.4" xml:space="preserve">
<sodipodi:namedview  bordercolor="#666666" borderopacity="1.0" fit-margin-bottom="0" fit-margin-left="0" fit-margin-right="0" fit-margin-top="0" id="base" inkscape:current-layer="layer1" inkscape:cx="-393.49875" inkscape:cy="105.34171" inkscape:document-units="px" inkscape:pageopacity="0.0" inkscape:pageshadow="2" inkscape:window-height="1017" inkscape:window-maximized="1" inkscape:window-width="1920" inkscape:window-x="-8" inkscape:window-y="-8" inkscape:zoom="0.49497475" pagecolor="#ffffff" showgrid="false">
	</sodipodi:namedview>
<g id="layer1" transform="translate(-219.24241,-200.17042)" inkscape:groupmode="layer" inkscape:label="Calque 1">
	<g id="g5180" transform="matrix(3,0,0,3,-771.42857,-733.29584)">
		<g id="g5169">
			<path id="path4270" inkscape:connector-curvature="0" fill="#052C47" d="M419,399.9h-88.8v-88.8H419V399.9L419,399.9z"/>
			<path id="path4282" inkscape:connector-curvature="0" fill="#FFFFFF" d="M380.5,330.9c0,0.3-0.2,0.5-0.5,0.5h-11.4V327H380
				c0.3,0,0.5,0.2,0.5,0.5V330.9L380.5,330.9z M380,323.3h-15.3v6.7h0v8.4h3.9v-3.9h0l7.8,3.9h6.8l-7.4-3.9h4.1c2.5,0,4.5-2,4.5-4.5
				v-2.2C384.4,325.4,382.4,323.3,380,323.3 M358,330.6c0,0.3-0.2,0.5-0.5,0.5h-11.4v-1.1h0V327h11.4c0.3,0,0.5,0.2,0.5,0.5
				L358,330.6L358,330.6z M357.4,323.3h-15.3v11.3h0v4.7l3.9-2.5v-2.2h11.4c2.5,0,4.5-2,4.5-4.5v-2.2
				C361.9,325.4,359.9,323.3,357.4,323.3 M402.6,334.3c0,0.3-0.2,0.5-0.5,0.5h-10.8c-0.3,0-0.5-0.2-0.5-0.5v-6.8
				c0-0.3,0.2-0.5,0.5-0.5h10.8c0.3,0,0.5,0.2,0.5,0.5V334.3z M402.1,323.3h-10.8c-2.5,0-4.5,2-4.5,4.5v6.1c0,2.5,2,4.5,4.5,4.5
				h10.8c2.5,0,4.5-2,4.5-4.5v-6.1C406.6,325.4,404.6,323.3,402.1,323.3"/>
			
				<linearGradient id="path4310_00000115513259925221163360000012524186607445513623_" gradientUnits="userSpaceOnUse" x1="272.8927" y1="488.2197" x2="273.8927" y2="488.2197" gradientTransform="matrix(215.3932 -139.64 139.64 215.3932 -126624.4062 -66664.2344)">
				<stop  offset="0" style="stop-color:#7199D0"/>
				<stop  offset="9.339900e-02" style="stop-color:#7199D0"/>
				<stop  offset="0.6044" style="stop-color:#E9EEF8"/>
				<stop  offset="0.6923" style="stop-color:#B5CBE9"/>
				<stop  offset="0.8571" style="stop-color:#7199D0"/>
				<stop  offset="1" style="stop-color:#7199D0"/>
			</linearGradient>
			
				<path id="path4310" inkscape:connector-curvature="0" fill="url(#path4310_00000115513259925221163360000012524186607445513623_)" d="
				M341.7,360.4v25h20.1c6.9,0,12.5-5.6,12.5-12.5l0,0c0-6.9-5.6-12.5-12.5-12.5l0,0H341.7z M348,365.9h13.7c3.8,0,6.9,3.1,6.9,6.9
				l0,0c0,3.8-3.1,6.9-6.9,6.9l0,0H348V365.9z"/>
			
				<image overflow="visible" enable-background="new    " width="56" height="6" id="image4322" xlink:href="F2953155E02489EC.png"  transform="matrix(0.7119 0 0 0.6772 333.0077 349.7786)">
			</image>
			
				<image overflow="visible" enable-background="new    " width="33" height="6" id="image4334" xlink:href="F2953155E02489ED.png"  transform="matrix(0.6992 0 0 0.6772 392.7588 349.7785)">
			</image>
			
				<linearGradient id="path4362_00000120543480832612626270000002947882843260000188_" gradientUnits="userSpaceOnUse" x1="272.8927" y1="488.2419" x2="273.8927" y2="488.2419" gradientTransform="matrix(215.6128 -139.7828 139.7828 215.6128 -126743.6953 -66716.2656)">
				<stop  offset="0" style="stop-color:#7199D0"/>
				<stop  offset="9.339900e-02" style="stop-color:#7199D0"/>
				<stop  offset="0.6044" style="stop-color:#E9EEF8"/>
				<stop  offset="0.6923" style="stop-color:#B5CBE9"/>
				<stop  offset="0.8571" style="stop-color:#7199D0"/>
				<stop  offset="1" style="stop-color:#7199D0"/>
			</linearGradient>
			
				<path id="path4362" inkscape:connector-curvature="0" fill="url(#path4362_00000120543480832612626270000002947882843260000188_)" d="
				M389.7,360.4c-2,2.7-4.5,4.5-6.9,5.5l0,0h14.7c1.3,0,2.3,1,2.3,2.3l0,0c0,1.3-1,2.3-2.3,2.3l0,0h-12.2l-0.6,0
				c-4,0-7.3,3.3-7.3,7.3l0,0v0v7.5H409h0l-3.4-5.3h-21.9v-1.6c0-2.5,1.5-3.4,5-3.4l0,0h7.9c6,0,9.2-2.9,9.2-7.4l0,0
				c0-3-1.3-5.4-3.8-6.5l0,0c-1.6-0.7-3.5-0.8-5.6-0.8l0,0L389.7,360.4L389.7,360.4z"/>
			<g id="g5165">
				
					<linearGradient id="path4384_00000017487283183199372010000017396980946284502441_" gradientUnits="userSpaceOnUse" x1="273.0923" y1="487.3641" x2="274.0923" y2="487.3641" gradientTransform="matrix(-113.289 174.5013 -174.5013 -113.289 116389.4609 7875.5933)">
					<stop  offset="0" style="stop-color:#052C47"/>
					<stop  offset="0.5904" style="stop-color:#7199D0"/>
					<stop  offset="1" style="stop-color:#FFFFFF"/>
				</linearGradient>
				
					<path id="path4384" inkscape:connector-curvature="0" fill="url(#path4384_00000017487283183199372010000017396980946284502441_)" d="
					M375.3,348.9c-3.5,6.1-2.5,13.4,0.7,15.2l0,0c3.1,1.8,10-0.9,13.5-7l0,0c3.5-6.1,2.5-13.4-0.7-15.2l0,0
					c-0.6-0.4-1.4-0.6-2.3-0.6l0,0C383,341.4,378.1,344.1,375.3,348.9"/>
				<path id="path4396" inkscape:connector-curvature="0" fill="#FFFFFF" d="M388.7,356.8c-3,5.1-9.1,7.3-11.3,6.6
					c-0.9-0.3-0.2-7.7,2.8-12.8c3-5.1,7.7-7.3,8.8-6.6C390.7,345.1,391.7,351.7,388.7,356.8 M374.9,361.3c-1-1-2.2-7,0.7-12.1
					c3-5.1,8.1-7.5,9.7-7c0.8,0.2-3.2,3.3-6,8.5C376.7,355.3,375.6,361.9,374.9,361.3"/>
			</g>
		</g>
		
			<linearGradient id="path4422_00000145046054324146887560000010374942910088534703_" gradientUnits="userSpaceOnUse" x1="273.3388" y1="488.5054" x2="274.3388" y2="488.5054" gradientTransform="matrix(127.8432 0 0 127.8432 -34595.2969 -62060.7773)">
			<stop  offset="0" style="stop-color:#FFFFFF"/>
			<stop  offset="2.746600e-02" style="stop-color:#FFFFFF"/>
			<stop  offset="0.6593" style="stop-color:#B5CBE9"/>
			<stop  offset="0.8571" style="stop-color:#7199D0"/>
			<stop  offset="1" style="stop-color:#7199D0"/>
		</linearGradient>
		
			<path id="path4422" inkscape:connector-curvature="0" fill="url(#path4422_00000145046054324146887560000010374942910088534703_)" d="
			M364.5,388.9v4.7h0.5v-2.1h0.5l1.1,2.2l0.4-0.2l-1-2c0.6-0.2,0.8-0.7,0.8-1.3l0,0c0-0.8-0.6-1.2-1-1.3l0,0L364.5,388.9
			L364.5,388.9z M365,389.3h0.6c0.5,0,0.8,0.2,0.8,0.8l0,0c0,0.6-0.3,0.9-0.7,0.9l0,0H365L365,389.3L365,389.3z"/>
		
			<linearGradient id="path4448_00000072975557754604197400000008051120390972509106_" gradientUnits="userSpaceOnUse" x1="273.3349" y1="488.4992" x2="274.3349" y2="488.4992" gradientTransform="matrix(128.9763 0 0 128.9763 -34904.6172 -62613.5273)">
			<stop  offset="0" style="stop-color:#FFFFFF"/>
			<stop  offset="2.746600e-02" style="stop-color:#FFFFFF"/>
			<stop  offset="0.6593" style="stop-color:#B5CBE9"/>
			<stop  offset="0.8571" style="stop-color:#7199D0"/>
			<stop  offset="1" style="stop-color:#7199D0"/>
		</linearGradient>
		
			<path id="path4448" inkscape:connector-curvature="0" fill="url(#path4448_00000072975557754604197400000008051120390972509106_)" d="
			M370.4,388.9v3.4c0,0.5-0.1,0.9-0.7,0.9l0,0c-0.6,0-0.7-0.4-0.7-0.9l0,0v-3.4h-0.5v3.6c0,0.7,0.4,1.2,1.2,1.2l0,0
			c0.7,0,1.2-0.5,1.2-1.2l0,0v-3.6L370.4,388.9L370.4,388.9z"/>
		
			<linearGradient id="path4474_00000176023800396851062620000004673028196108464265_" gradientUnits="userSpaceOnUse" x1="273.335" y1="488.4997" x2="274.335" y2="488.4997" gradientTransform="matrix(128.9508 0 0 128.9508 -34897.6484 -62601.1406)">
			<stop  offset="0" style="stop-color:#FFFFFF"/>
			<stop  offset="2.746600e-02" style="stop-color:#FFFFFF"/>
			<stop  offset="0.6593" style="stop-color:#B5CBE9"/>
			<stop  offset="0.8571" style="stop-color:#7199D0"/>
			<stop  offset="1" style="stop-color:#7199D0"/>
		</linearGradient>
		
			<path id="path4474" inkscape:connector-curvature="0" fill="url(#path4474_00000176023800396851062620000004673028196108464265_)" d="
			M374,388.9c-1.1,0-1.3,1.6-1.3,2.4l0,0c0,0.9,0.2,2.4,1.4,2.4l0,0c0.4,0,0.8-0.2,1.1-0.4l0,0v-2.1h-1.4v0.4h0.9v1.4
			c-0.2,0.1-0.4,0.2-0.6,0.2l0,0c-0.5,0-0.9-0.3-0.9-1.9l0,0c0-0.6,0.1-2,0.9-2l0,0c0.4,0,0.6,0.3,0.8,0.6l0,0l0.4-0.3
			C375,389.2,374.6,388.9,374,388.9L374,388.9L374,388.9L374,388.9z"/>
		
			<linearGradient id="path4500_00000147901969397389457860000000534369415647850643_" gradientUnits="userSpaceOnUse" x1="273.3348" y1="488.4989" x2="274.3348" y2="488.4989" gradientTransform="matrix(128.986 0 0 128.986 -34907.2656 -62618.2617)">
			<stop  offset="0" style="stop-color:#FFFFFF"/>
			<stop  offset="2.746600e-02" style="stop-color:#FFFFFF"/>
			<stop  offset="0.6593" style="stop-color:#B5CBE9"/>
			<stop  offset="0.8571" style="stop-color:#7199D0"/>
			<stop  offset="1" style="stop-color:#7199D0"/>
		</linearGradient>
		
			<path id="path4500" inkscape:connector-curvature="0" fill="url(#path4500_00000147901969397389457860000000534369415647850643_)" d="
			M376.9,388.9v0.4h0.4v3.9h-0.4v0.4h1.5c0.6,0,1.2-0.4,1.2-1.4l0,0c0-0.6-0.2-1-0.7-1.2l0,0c0.3-0.2,0.5-0.5,0.5-0.9l0,0
			c0-0.7-0.5-1.2-1-1.2l0,0L376.9,388.9L376.9,388.9z M377.8,389.3h0.3c0.6,0,0.9,0.2,0.9,0.8l0,0c0,0.5-0.2,0.7-0.7,0.7l0,0h-0.4
			V389.3z M377.8,391.3h0.5c0.5,0,0.8,0.2,0.8,0.9l0,0c0,0.7-0.3,1-0.7,1l0,0h-0.6V391.3z"/>
		
			<linearGradient id="path4526_00000097481708003957638090000010668047471135841459_" gradientUnits="userSpaceOnUse" x1="273.3348" y1="488.4992" x2="274.3348" y2="488.4992" gradientTransform="matrix(128.9816 0 0 128.9816 -34906.0664 -62616.1914)">
			<stop  offset="0" style="stop-color:#FFFFFF"/>
			<stop  offset="2.746600e-02" style="stop-color:#FFFFFF"/>
			<stop  offset="0.6593" style="stop-color:#B5CBE9"/>
			<stop  offset="0.8571" style="stop-color:#7199D0"/>
			<stop  offset="1" style="stop-color:#7199D0"/>
		</linearGradient>
		
			<path id="path4526" inkscape:connector-curvature="0" fill="url(#path4526_00000097481708003957638090000010668047471135841459_)" d="
			M382.4,391.2l-1-2.4L381,389l1.2,2.8v1.9h0.5v-1.9l1.2-2.8l-0.4-0.2L382.4,391.2L382.4,391.2z"/>
	</g>
</g>
</svg>
