<?xml version="1.0" encoding="utf-8"?>
<!-- Generator: Adobe Illustrator 26.0.2, SVG Export Plug-In . SVG Version: 6.00 Build 0)  -->
<svg version="1.1" id="Calque_1" xmlns="http://www.w3.org/2000/svg" xmlns:xlink="http://www.w3.org/1999/xlink" x="0px" y="0px"
	 viewBox="0 0 50.4 40" enable-background="new 0 0 50.4 40" xml:space="preserve">
<path fill="#FFFFFF" d="M0.7,14.5c-1,3.5,0.4,8.2,4.1,12c4.3,4.3,10.1,5.5,13.5,3.3l0,0c-0.1,0.1,6.4-5,6.5-5.1L40,40l9.3-7l1-4.1
	L33.6,10.2l0,0l-0.4,0.4l-3.5-1.9l-1.9-3.2l0,0l0.6-1.2c-1.8-1.9-4.1-3.3-6.6-4c-3-0.8-6-0.4-7.9,1.5c-0.4,0.3-0.7,0.6-1.2,0.9
	c-0.6-0.9-1.3-0.7-2.7-0.9C6-0.3,3.5,0.6,2.8,1.2c-1.3,1-2.3,2.5-2.6,4.2C-0.1,6.6,0,7.9,0.5,9C1,10,2,10.7,3.2,10.9
	C2,11.9,1.2,13.1,0.7,14.5z M15.7,15.7l1-1.4l10.1-8l2,3.3l3.4,1.9l-8.3,7.8l-4.5-0.7L15.7,15.7z M3.5,9.1c-0.6,0.6-1.6,0.6-2.1,0
	c0,0,0,0-0.1-0.1C1,8.6,0.4,7.2,0.7,6.9c0.2-0.8,1-1.2,1.8-1C2.8,6,3.1,6.2,3.3,6.5c0.3,0.4,0.4,0.9,0.5,1.4
	C3.8,8.3,3.7,8.7,3.5,9.1z"/>
</svg>
