<?xml version="1.0" encoding="utf-8"?>
<!-- Generator: Adobe Illustrator 26.0.2, SVG Export Plug-In . SVG Version: 6.00 Build 0)  -->
<svg version="1.1" id="Calque_1" xmlns="http://www.w3.org/2000/svg" xmlns:xlink="http://www.w3.org/1999/xlink" x="0px" y="0px"
	 viewBox="0 0 50.3 8.5" style="enable-background:new 0 0 50.3 8.5;" xml:space="preserve">
<style type="text/css">
	.st0{clip-path:url(#SVGID_00000105410005785806312910000001273910891913290658_);fill:#D32E19;}
	.st1{clip-path:url(#SVGID_00000105410005785806312910000001273910891913290658_);fill:#1D1D1B;}
</style>
<g>
	<defs>
		<rect id="SVGID_1_" x="3.9" y="0" width="42.5" height="8.5"/>
	</defs>
	<use xlink:href="#SVGID_1_"  style="overflow:visible;fill:#FFFFFF;"/>
	<clipPath id="SVGID_00000170266121785101102750000014518478074578159265_">
		<use xlink:href="#SVGID_1_"  style="overflow:visible;"/>
	</clipPath>
	<path style="clip-path:url(#SVGID_00000170266121785101102750000014518478074578159265_);fill:#D32E19;" d="M9.4,4.8L9.4,4.8
		c0,0,0,0,0-0.1c0,0,0,0,0,0c0,0,0,0,0,0C9.2,4.3,8.8,3.7,7.5,3.7c-0.1,0-0.2-0.1-0.2-0.2V2.1c0-0.1,0.1-0.2,0.2-0.2h0.3
		C8,1.9,8,2,8,2.1v0.8h1.3c0-0.1,0-0.5,0-0.5c0-0.3,0-0.5-0.1-0.6C9.3,1.4,9.1,1.1,8.6,1C8.1,0.8,7.2,0.8,6.8,1
		C6.4,1.1,6,1.5,5.9,1.8C5.8,2.3,5.7,3.2,5.8,3.7c0,0,0,0,0,0s0,0.1,0.1,0.2c0,0,0,0,0,0c0,0,0,0,0,0c0.1,0.3,0.6,0.9,1.8,0.9l0.1,0
		C8,4.8,8,4.9,8,5v1.5C8,6.7,8,6.7,7.8,6.7H7.5c-0.1,0-0.2-0.1-0.2-0.2V5.8H5.9c0,0.2,0,0.4,0,0.6c0,0,0,0,0,0
		c0,0.3,0.1,0.6,0.3,0.8c0.1,0.1,0.3,0.2,0.4,0.3c0.4,0.1,1.5,0.1,2,0c0.3-0.1,0.7-0.4,0.8-0.7C9.5,6.4,9.5,5.4,9.4,4.8"/>
	<path style="clip-path:url(#SVGID_00000170266121785101102750000014518478074578159265_);fill:#D32E19;" d="M12.7,1
		c-0.2-0.1-0.5-0.1-0.8-0.1c-0.3,0-0.6,0-0.8,0.1c-0.4,0.1-0.8,0.5-0.9,0.8c-0.2,1-0.2,4,0,5.1c0,0.1,0.1,0.2,0.2,0.3
		c0.2,0.2,0.4,0.3,0.6,0.4c0.5,0.1,1.5,0.1,1.9,0c0.2-0.1,0.4-0.2,0.6-0.3c0.1-0.1,0.2-0.2,0.2-0.3c0.2-1,0.2-4.1,0-5.1
		c0-0.1-0.1-0.3-0.2-0.4C13.2,1.2,12.9,1.1,12.7,1 M12.3,6.6c0,0.2-0.2,0.3-0.4,0.3c-0.2,0-0.4-0.1-0.4-0.3c-0.1-0.8-0.1-3.7,0-4.5
		c0-0.2,0.2-0.3,0.4-0.3c0.2,0,0.4,0.1,0.4,0.3C12.3,2.8,12.3,5.8,12.3,6.6"/>
	<polygon style="clip-path:url(#SVGID_00000170266121785101102750000014518478074578159265_);fill:#D32E19;" points="44,7.1 44,5.4 
		44.5,5.4 44.5,7.1 44.5,7.6 44.5,7.7 42.6,7.7 42.6,7.1 	"/>
	<polygon style="clip-path:url(#SVGID_00000170266121785101102750000014518478074578159265_);fill:#D32E19;" points="16.3,1.4 
		16.3,3.1 15.8,3.1 15.8,1.4 15.8,0.9 15.8,0.9 17.7,0.9 17.7,1.4 	"/>
	
		<rect x="17.7" y="2.1" style="clip-path:url(#SVGID_00000170266121785101102750000014518478074578159265_);fill:#1D1D1B;" width="0.8" height="4.3"/>
	<polygon style="clip-path:url(#SVGID_00000170266121785101102750000014518478074578159265_);fill:#1D1D1B;" points="19.1,2.1 
		20,2.1 20.5,4.2 20.5,4.7 20.6,4.7 20.6,4.2 20.6,2.1 21.4,2.1 21.4,6.4 20.5,6.4 20,4.4 20,3.8 19.8,3.8 19.9,4.4 19.9,6.4 
		19.1,6.4 	"/>
	<polygon style="clip-path:url(#SVGID_00000170266121785101102750000014518478074578159265_);fill:#1D1D1B;" points="22,2.1 
		23.5,2.1 23.5,2.8 22.8,2.8 22.8,3.9 23.4,3.9 23.4,4.6 22.8,4.6 22.8,6.4 22,6.4 	"/>
	<path style="clip-path:url(#SVGID_00000170266121785101102750000014518478074578159265_);fill:#1D1D1B;" d="M24,5.6V3
		C24,2.4,24.4,2,25,2c0.6,0,1,0.4,1,0.9v2.6c0,0.6-0.4,0.9-1,0.9C24.4,6.5,24,6.1,24,5.6 M25.2,5.6V3c0-0.1-0.1-0.2-0.2-0.2
		c-0.1,0-0.2,0.1-0.2,0.2v2.6c0,0.1,0.1,0.2,0.2,0.2C25.1,5.8,25.2,5.7,25.2,5.6"/>
	<path style="clip-path:url(#SVGID_00000170266121785101102750000014518478074578159265_);fill:#1D1D1B;" d="M26.6,5.7V3
		c0-0.6,0.4-0.9,1-0.9c0.6,0,1,0.4,1,0.9v0.6h-0.8V3c0-0.1-0.1-0.2-0.2-0.2c-0.1,0-0.2,0.1-0.2,0.2v2.6c0,0.1,0.1,0.2,0.2,0.2
		c0.1,0,0.2-0.1,0.2-0.2v-1h-0.3V3.9h1v2.5h-0.5V6.2l0-0.1H28l0,0.1c-0.1,0.2-0.3,0.3-0.6,0.3C26.9,6.5,26.6,6.2,26.6,5.7"/>
	<path style="clip-path:url(#SVGID_00000170266121785101102750000014518478074578159265_);fill:#1D1D1B;" d="M29.2,2.1h1.1
		c0.6,0,0.9,0.3,0.9,0.9v1c0,0.3-0.1,0.5-0.3,0.7l0.4,1.8h-0.8l-0.3-1.7H30v1.7h-0.8V2.1z M30,2.8v1.3h0.2c0.1,0,0.2-0.1,0.2-0.2V3
		c0-0.1-0.1-0.2-0.2-0.2H30z"/>
	<path style="clip-path:url(#SVGID_00000170266121785101102750000014518478074578159265_);fill:#1D1D1B;" d="M32.2,2.1h1.2L34,6.4
		h-0.8l-0.1-1h-0.5l-0.1,1h-0.8L32.2,2.1z M32.7,4.7H33l-0.1-1.5V2.9h-0.1v0.4L32.7,4.7z"/>
	<path style="clip-path:url(#SVGID_00000170266121785101102750000014518478074578159265_);fill:#1D1D1B;" d="M34.5,2.1h1.1
		c0.6,0,1,0.4,1,0.9v1c0,0.5-0.4,0.9-1,0.9h-0.3v1.5h-0.8V2.1z M35.2,2.8v1.4h0.2c0.1,0,0.2-0.1,0.2-0.2V3c0-0.1-0.1-0.2-0.2-0.2
		H35.2z"/>
	<polygon style="clip-path:url(#SVGID_00000170266121785101102750000014518478074578159265_);fill:#1D1D1B;" points="37,2.1 
		37.8,2.1 37.8,3.9 38.3,3.9 38.3,2.1 39,2.1 39,6.4 38.3,6.4 38.3,4.6 37.8,4.6 37.8,6.4 37,6.4 	"/>
	
		<rect x="39.7" y="2.1" style="clip-path:url(#SVGID_00000170266121785101102750000014518478074578159265_);fill:#1D1D1B;" width="0.8" height="4.3"/>
	<polygon style="clip-path:url(#SVGID_00000170266121785101102750000014518478074578159265_);fill:#1D1D1B;" points="41.1,2.1 
		42.6,2.1 42.6,2.8 41.9,2.8 41.9,3.9 42.5,3.9 42.5,4.6 41.9,4.6 41.9,5.7 42.6,5.7 42.6,6.4 41.1,6.4 	"/>
</g>
</svg>
