<?xml version="1.0" encoding="utf-8"?>
<!-- Generator: Adobe Illustrator 26.0.2, SVG Export Plug-In . SVG Version: 6.00 Build 0)  -->
<svg version="1.1" id="Calque_2_00000152946230983708558010000000112810042321234611_"
	 xmlns="http://www.w3.org/2000/svg" xmlns:xlink="http://www.w3.org/1999/xlink" x="0px" y="0px" viewBox="0 0 21.3 8.5"
	 enable-background="new 0 0 21.3 8.5" xml:space="preserve">
<g>
	<rect fill="#FFFFFF" width="21.3" height="8.5"/>
	<g>
		<rect fill="#00528C" width="21.3" height="7.9"/>
		<rect y="7.9" fill="#E3003A" width="21.3" height="0.6"/>
		<rect x="16.9" y="4.9" fill="#008CCE" width="2.6" height="2.6"/>
		<rect x="14.3" y="4.9" fill="#A0D9F7" width="2.6" height="2.6"/>
		<path fill="#FFFFFF" d="M5.5,1.8"/>
		<path fill="#FFFFFF" d="M6.8,2.1v1.5H6.2V2.3c0-0.3-0.5-0.4-0.7,0v1.4H4.9v-3h0.6v1.1C6.1,1.3,6.8,1.5,6.8,2.1z"/>
		<path fill="#FFFFFF" d="M15.7,2.1v1.5h-0.6V2.3c0-0.3-0.5-0.4-0.7,0v1.4h-0.6V1.6l0.6-0.1v0.2C14.9,1.3,15.7,1.5,15.7,2.1z"/>
		<path fill="#FFFFFF" d="M9.8,6V5.4c0,0-0.4-0.2-0.9,0.2V5.3L8.3,5.4v2.1H9V6C9.2,5.8,9.5,5.8,9.8,6z"/>
		<path fill="#FFFFFF" d="M16.7,2.9V2H17V1.6h-0.3V0.9L16.1,1v0.7H16V2h0.2v0.9c0,0.5,0.3,0.6,0.5,0.8l0.4-0.4
			C16.8,3.1,16.7,3,16.7,2.9z"/>
		<path fill="#FFFFFF" d="M9.2,1.6v1.3c0,0.2-0.1,0.2,0.2,0.5L8.9,3.8C8.7,3.7,8.6,3.5,8.6,3.5L8.3,3.7c-0.2,0.1-0.5,0-0.7-0.2
			C7.4,3.4,7,2.9,7.3,2c0.3-0.7,1.1-0.6,1.4-0.3L9,1.6H9.2z M7.8,2.6c0,0.7,0.6,0.6,0.8,0.5V2.2C8.4,2,7.8,1.8,7.8,2.6z"/>
		<path fill="#FFFFFF" d="M11.8,6.8v0.5c-0.2,0.1-0.5,0.2-0.7,0.2c-0.5,0-1.1-0.2-1.1-1c0-1,0.7-1.2,1.1-1.2c0.4,0,1,0.1,1,1.3h-1.6
			C10.6,7,11.2,7,11.8,6.8z M10.6,6.2h1c0-0.3-0.2-0.5-0.5-0.5S10.6,5.9,10.6,6.2z"/>
		<path fill="#FFFFFF" d="M19.1,3v0.5c-0.2,0.1-0.5,0.2-0.7,0.2c-0.5,0-1.1-0.2-1.1-1c0-1,0.7-1.2,1.1-1.2s1,0.1,1,1.3h-1.6
			C17.9,3.3,18.5,3.3,19.1,3z M17.8,2.5h1c0-0.3-0.2-0.5-0.5-0.5C18.1,2,17.8,2.2,17.8,2.5z"/>
		<path fill="#FFFFFF" d="M13.2,3v0.5c-0.2,0.1-0.5,0.2-0.7,0.2c-0.5,0-1.1-0.2-1.1-1c0-1,0.7-1.2,1.1-1.2s1,0.1,1,1.3h-1.6
			C12,3.3,12.6,3.3,13.2,3z M11.9,2.5h1c0-0.3-0.2-0.5-0.5-0.5C12.1,2,11.9,2.2,11.9,2.5z"/>
		<rect x="4.9" y="4.6" fill="#FFFFFF" width="0.6" height="0.6"/>
		<rect x="4.9" y="5.3" fill="#FFFFFF" width="0.6" height="2.1"/>
		<path fill="#FFFFFF" d="M7.1,5.3C7.3,5.3,8,5.5,8,6.4S7.2,7.5,7,7.5s-0.3,0-0.6-0.2L6.1,7.5L6,7.4V4.5h0.6v1
			C6.6,5.5,6.8,5.3,7.1,5.3z M6.6,5.9v1C6.6,7,6.8,7,6.9,7c0.2,0,0.5-0.1,0.5-0.6S7.1,5.7,6.9,5.7S6.6,5.9,6.6,5.9z"/>
		<polygon fill="#FFFFFF" points="3,4.3 2,4.3 2,7.4 4.3,7.4 4.3,6.6 3,6.6 		"/>
		<path fill="#FFFFFF" d="M11.1,2.2V1.6c0,0-0.4-0.2-0.9,0.2V1.6H9.7v2.1h0.6V2.3C10.6,2.1,10.8,2.1,11.1,2.2z"/>
		<path fill="#FFFFFF" d="M3.4,1.7c0-0.1-0.2-0.5-0.5-0.5s-0.6,0.4-0.6,1S2.7,3,2.9,3s0.5-0.1,0.5-0.5h0.9c0,0.7-0.5,1.3-1.4,1.3
			C1.8,3.8,1.3,3,1.3,2.1c0-0.8,0.5-1.6,1.6-1.6c1,0,1.5,0.6,1.5,1.3L3.4,1.7z"/>
		<path fill="#FFFFFF" d="M4.7,1.7"/>
	</g>
</g>
</svg>
