<?xml version="1.0" encoding="utf-8"?>
<!-- Generator: Adobe Illustrator 26.0.2, SVG Export Plug-In . SVG Version: 6.00 Build 0)  -->
<svg version="1.1" id="Calque_2_1_" xmlns="http://www.w3.org/2000/svg" xmlns:xlink="http://www.w3.org/1999/xlink" x="0px"
	 y="0px" viewBox="0 0 53.9 8.5" enable-background="new 0 0 53.9 8.5" xml:space="preserve">
<rect fill="#FFFFFF" width="53.9" height="8.5"/>
<g>
	<polygon fill="#009DDF" points="2.7,4.1 0.2,8.5 5.4,8.5 	"/>
	<polygon fill="#B0B2B3" points="2.7,8.5 6.6,8.5 4.6,5.3 	"/>
	<g>
		<g>
			<path fill="#006AB1" d="M6.5,1.4c0-0.8-0.1-0.8-0.6-0.8V0.4c0.4,0,0.9,0,1.3,0c0.3,0,1,0,1.3,0v0.2H8c-0.3,0-0.5,0.1-0.5,0.6V5
				c0,0.6,0.1,0.7,0.4,0.7h0.6c1.1,0,1.2-0.8,1.2-1.7H10c0,0.7,0,1.5,0,2C9.3,6,8.6,6,7.9,6c-0.6,0-1.7,0-2,0V5.9
				c0.3,0,0.6,0,0.6-0.6V1.4z"/>
			<path fill="#006AB1" d="M10.6,2.7c0-0.1,0.1-0.2,0.1-0.3c0.2-0.2,0.8-0.3,1.5-0.3c1.2,0,1.6,0.3,1.6,1.1v2.3
				c0,0.4,0.2,0.4,0.5,0.4v0.2c-0.2,0-0.3,0-0.5,0c-0.3,0-0.6,0-0.9,0l-0.1-0.5c-0.5,0.4-0.7,0.6-1.2,0.6c-0.8,0-1.2-0.4-1.2-1.1
				c0-0.9,0.3-1,2.1-1.3h0.3V3.3c0-0.7-0.2-1-0.7-1s-0.6,0.3-0.6,0.6c0,0.2-0.1,0.3-0.2,0.3c-0.1,0.1-0.4,0.1-0.8,0.1L10.6,2.7
				L10.6,2.7z M12.9,3.9C12.3,4,11.6,4,11.6,5c0,0.5,0.2,0.7,0.5,0.7c0.1,0,0.8-0.1,0.8-0.8C12.9,4.9,12.9,3.9,12.9,3.9z"/>
			<path fill="#006AB1" d="M17,1.7c0-1-0.1-1-0.6-1V0.4c0.2,0,0.8,0,1,0s1.2,0,1.4,0c0.5,0,1.8,0,1.8,1.3c0,1.2-1.1,1.3-1.7,1.3l0,0
				c1,0.2,1.2,0.3,1.7,1.6C21,5.8,21,5.9,21.3,5.9h0.2v0.2c-0.3,0-0.6,0-0.9,0s-0.5,0-0.7,0l-0.7-1.7C19,4,18.7,3.3,18.1,3.3H18v2
				c0,0.4,0.1,0.6,0.3,0.6h0.4v0.2c-0.2,0-1.2,0-1.4,0c-0.1,0-0.9,0-1,0V5.9c0.4,0,0.6,0,0.6-0.9V1.7H17z M18,3.1
				c0.5,0,1.5,0,1.5-1.3c0-0.6-0.3-1.1-1.1-1.1H18V3.1z"/>
			<path fill="#006AB1" d="M25.2,3.4c0-0.9,0-1-0.4-1V2.2c0.2,0,0.5,0,0.8,0c0.1,0,0.5,0,0.6,0v0.6c0.3-0.4,0.5-0.7,1.1-0.7
				c1.3,0,1.5,1.1,1.5,1.8c0,0.9-0.2,1.5-0.9,2c-0.5,0.3-0.9,0.3-1,0.3c-0.3,0-0.5-0.1-0.8-0.2v0.8c0,0.7,0.1,0.7,0.8,0.7v0.2
				c-0.3,0-0.9,0-1.2,0c-0.2,0-0.6,0-1,0V7.5c0.3,0,0.4-0.1,0.4-0.9V3.4H25.2z M26.2,5.6c0.3,0.3,0.6,0.3,0.7,0.3c0.4,0,1-0.4,1-1.8
				c0-0.6-0.2-1.5-0.9-1.5c-0.6,0-0.8,0.5-0.8,1.1C26.2,3.7,26.2,5.6,26.2,5.6z"/>
			<path fill="#006AB1" d="M32.2,2.9c0-0.6-0.2-0.6-0.6-0.6V2.2c0.5,0,0.7,0,1,0c0.2,0,0.5,0,0.7,0c0,0.2-0.1,0.8-0.1,1.1v2
				c0,0.6,0.1,0.6,0.5,0.6v0.2c-0.2,0-0.5,0-0.7,0c-0.3,0-0.5,0-0.7,0l-0.1-0.8l0,0c-0.2,0.4-0.5,0.9-1.4,0.9
				c-0.8,0-1.3-0.3-1.3-1.1c0-0.1,0-1.2,0-1.3c0-1.2,0-1.3-0.5-1.3V2.2c0.2,0,0.5,0,0.8,0c0.2,0,0.3,0,0.7,0c0,0.5-0.1,0.9-0.1,1.4
				v1.3c0,0.4,0.2,0.8,0.7,0.8C31.8,5.7,32,5,32,4.3V2.9H32.2z"/>
			<path fill="#006AB1" d="M34,1.3c0-1-0.1-1.1-0.4-1.1V0c0.1,0,0.8,0,1,0s0.3,0,0.5,0c0,0.4-0.1,1.6-0.1,1.9v1l0,0
				C35.3,2.5,35.5,2,36.3,2c1,0,1.4,0.9,1.4,1.9c0,1.5-0.9,2.2-2.2,2.2c-0.6,0-1-0.2-1.5-0.3c0-0.2,0-0.9,0-1V1.3z M35.8,5.9
				c0.6,0,0.9-0.8,0.9-1.7c0-0.4-0.1-1.6-0.8-1.6C35,2.7,35,3.8,35,4.3C35,5.3,35.2,5.9,35.8,5.9z"/>
			<path fill="#006AB1" d="M38.1,0.9c0-0.6-0.2-0.6-0.4-0.6V0c0.2,0,0.5,0,0.7,0s0.6,0,0.7,0C39,0.7,39,1.8,39,2.6v2.7
				c0,0.5,0.2,0.5,0.5,0.5V6c-0.5,0-0.7,0-1,0s-0.6,0-0.9,0V5.8c0.1,0,0.2,0,0.3-0.1C38,5.5,38,4.8,38,4.6V0.9H38.1z"/>
			<path fill="#006AB1" d="M40.3,3c0-0.6-0.1-0.6-0.4-0.6V2.2c0.3,0,0.6,0,0.8,0c0.1,0,0.3,0,0.6,0V5c0,0.9,0.1,0.9,0.5,0.9v0.2
				c-0.3,0-0.6,0-1,0c-0.1,0-0.8,0-0.9,0V5.9c0.3,0,0.4-0.1,0.4-0.9C40.3,5,40.3,3,40.3,3z M41.3,1c0,0.4-0.3,0.5-0.6,0.5
				c-0.4,0-0.6-0.2-0.6-0.5s0.2-0.5,0.5-0.5C41,0.5,41.3,0.7,41.3,1z"/>
			<path fill="#006AB1" d="M44.4,5.6C44,6,43.7,6.2,43.3,6.2c-1,0-1.6-0.9-1.6-1.9c0-0.5,0.2-2.2,2.2-2.2c0.7,0,1,0.2,1.2,0.3
				L45.2,2h0.2c-0.1,0.9-0.1,1.8-0.1,1.9v2.9c0,0.5,0.1,0.6,0.4,0.6v0.2c-0.6,0-0.9,0-1.2,0s-0.6,0-1.1,0V7.5H44
				c0.3,0,0.4-0.2,0.4-0.8V5.6z M42.7,4c0,1,0.4,1.6,1,1.6c0.7,0,0.7-0.7,0.7-1.7c0-0.6-0.1-1.6-0.7-1.6C43.1,2.3,42.7,3.1,42.7,4z"
				/>
			<path fill="#006AB1" d="M48.9,2.9c0-0.6-0.2-0.6-0.6-0.6V2.2c0.5,0,0.7,0,1,0c0.2,0,0.5,0,0.7,0c0,0.2-0.1,0.8-0.1,1.1v2
				c0,0.6,0.1,0.6,0.5,0.6v0.2c-0.2,0-0.5,0-0.7,0c-0.3,0-0.5,0-0.7,0l-0.1-0.8l0,0c-0.2,0.4-0.5,0.9-1.4,0.9
				c-0.8,0-1.3-0.3-1.3-1.1c0-0.1,0-1.2,0-1.3c0-1.2,0-1.3-0.5-1.3V2.2c0.2,0,0.5,0,0.8,0c0.2,0,0.3,0,0.7,0c0,0.5-0.1,0.9-0.1,1.4
				v1.3c0,0.4,0.2,0.8,0.7,0.8c0.7,0,0.9-0.7,0.9-1.4V2.9H48.9z"/>
			<path fill="#006AB1" d="M51.3,3.9c0,0.5,0,1.8,1.2,1.8c0.8,0,0.9-0.6,1-1h0.2c0,1-0.8,1.4-1.7,1.4c-1.1,0-1.7-0.7-1.7-1.9
				c0-0.7,0.2-1.4,0.6-1.8C51.3,2.1,51.8,2,52.2,2c1.4,0,1.5,1,1.5,1.8h-2.4V3.9z M52.4,3.6c0.2,0,0.3-0.2,0.3-0.4
				c0-0.4-0.2-0.9-0.6-0.9c-0.6,0-0.7,0.9-0.8,1.3C51.3,3.6,52.4,3.6,52.4,3.6z"/>
			<path fill="#006AB1" d="M22.6,1.6L22.6,1.6l1.3-0.5c0.2-0.1,0.3-0.2,0.3-0.3c0-0.2,0-0.4-0.4-0.5h-0.4L22.6,1.6z"/>
			<path fill="#006AB1" d="M22.3,3.9c0,0.5,0,1.8,1.2,1.8c0.8,0,0.9-0.6,1-1h0.2c0,1-0.8,1.4-1.7,1.4c-1.1,0-1.7-0.7-1.7-1.9
				c0-0.7,0.2-1.4,0.6-1.8C22.3,2.1,22.8,2,23.2,2c1.4,0,1.5,1,1.5,1.8h-2.4V3.9z M23.4,3.6c0.2,0,0.3-0.2,0.3-0.4
				c0-0.4-0.2-0.9-0.6-0.9c-0.6,0-0.7,0.9-0.8,1.3C22.3,3.6,23.4,3.6,23.4,3.6z"/>
		</g>
		<g>
			<path fill="#006AB1" d="M6,6.6h0.7c0.7,0,0.8,0.3,0.8,0.9v0.1c0,0.5-0.2,0.9-0.8,0.9H6V6.6z M6.6,8.1C7,8.1,7,7.9,7,7.6V7.5
				C7,7.1,6.9,7,6.6,7H6.4v1.1H6.6z"/>
			<path fill="#006AB1" d="M7.7,6.6H9V7H8.1v0.2h0.8v0.4H8.1V8H9v0.4H7.7V6.6z"/>
			<path fill="#006AB1" d="M9.1,7.9l0.5-0.1c0,0.2,0.1,0.3,0.3,0.3s0.3,0,0.3-0.2c0-0.1-0.1-0.1-0.4-0.2C9.5,7.6,9.1,7.6,9.1,7.2
				c0-0.3,0.2-0.6,0.8-0.6c0.5,0,0.7,0.2,0.8,0.5l-0.5,0.1c0-0.1-0.1-0.2-0.3-0.2C9.7,7,9.6,7,9.6,7.1s0.1,0.1,0.3,0.2
				c0.5,0.1,0.7,0.2,0.7,0.6c0,0.4-0.3,0.6-0.8,0.6S9.1,8.2,9.1,7.9z"/>
			<path fill="#006AB1" d="M11.5,6.6h0.9c0.3,0,0.7,0.1,0.7,0.6c0,0.4-0.3,0.6-0.7,0.6H12v0.6h-0.5V6.6z M12.3,7.5
				c0.2,0,0.3,0,0.3-0.2C12.6,7,12.4,7,12.3,7H12v0.5H12.3z"/>
			<path fill="#006AB1" d="M13.6,7.7l-0.6-1h0.5l0.4,0.6l0.4-0.6h0.5l-0.6,1v0.8h-0.5L13.6,7.7L13.6,7.7z"/>
			<path fill="#006AB1" d="M15.5,7.8h-0.3v0.7h-0.5V6.6h0.9c0.3,0,0.7,0.1,0.7,0.6c0,0.3-0.1,0.4-0.3,0.5l0.3,0.7h-0.5L15.5,7.8z
				 M15.5,7.4c0.2,0,0.3,0,0.3-0.2C15.8,7,15.7,7,15.5,7h-0.3v0.4H15.5z"/>
			<path fill="#006AB1" d="M17.9,6.6h0.5l0.5,1v-1h0.5v1.8H19l-0.6-1.1v1.1h-0.5V6.6z"/>
			<path fill="#006AB1" d="M21.2,6.6h1.3V7h-0.9v0.2h0.8v0.4h-0.8V8h0.9v0.4h-1.3V6.6z"/>
			<path fill="#006AB1" d="M22.6,7.9l0.5-0.1c0,0.2,0.1,0.3,0.3,0.3c0.2,0,0.3,0,0.3-0.2c0-0.1-0.1-0.1-0.4-0.2s-0.7-0.1-0.7-0.6
				c0-0.3,0.2-0.6,0.8-0.6c0.5,0,0.7,0.2,0.8,0.5l-0.5,0.1c0-0.1-0.1-0.2-0.3-0.2c-0.2,0-0.3,0-0.3,0.1s0.1,0.1,0.3,0.2
				c0.5,0.1,0.7,0.2,0.7,0.6s-0.3,0.6-0.8,0.6C22.8,8.5,22.6,8.2,22.6,7.9z"/>
			<polygon fill="#006AB1" points="17.8,7 17.8,6.6 17.2,6.6 17.5,6.4 16.9,6.4 16.8,6.6 16.4,6.6 16.4,8.5 17.8,8.5 17.8,8.1 
				16.9,8.1 16.9,7.7 17.7,7.7 17.7,7.3 16.9,7.3 16.9,7 			"/>
			<polygon fill="#006AB1" points="21,7 21,6.6 20.4,6.6 20.7,6.4 20.1,6.4 20,6.6 19.7,6.6 19.7,8.5 21,8.5 21,8.1 20.2,8.1 
				20.2,7.7 20.9,7.7 20.9,7.3 20.2,7.3 20.2,7 			"/>
		</g>
	</g>
</g>
</svg>
