<?xml version="1.0" encoding="utf-8"?>
<!-- Generator: Adobe Illustrator 26.0.2, SVG Export Plug-In . SVG Version: 6.00 Build 0)  -->
<svg version="1.1" id="Calque_3" xmlns="http://www.w3.org/2000/svg" xmlns:xlink="http://www.w3.org/1999/xlink" x="0px" y="0px"
	 viewBox="0 0 90.3 79.3" enable-background="new 0 0 90.3 79.3" xml:space="preserve">
<g>
	<g>
		<path fill="#FFFFFF" d="M0,0v79.3h90.3V0H0z"/>
	</g>
	<g>
		<polygon fill="#1D5C4C" points="65.7,18.4 51.9,18.4 51.9,63 85.4,63 85.4,51.4 65.7,51.4 		"/>
		<path fill="#1D5C4C" d="M34.5,34.2c0-1.6-2.3-6.9-7-6.9s-8.7,4.4-8.7,13S24.4,52,27.5,52s6.7-2.1,7.4-7.7h13.5
			c0,9.4-7.5,18.7-20.5,18.7C11.9,63,5,51.2,5,39.5c0-11.6,7-23.2,22.4-23.2c13.9,0,20.8,9.1,20.8,17.8L34.5,34.2z"/>
	</g>
</g>
</svg>
