<?xml version="1.0" encoding="utf-8"?>
<!-- Generator: Adobe Illustrator 26.0.2, SVG Export Plug-In . SVG Version: 6.00 Build 0)  -->
<svg version="1.1" id="svg5017" xmlns="http://www.w3.org/2000/svg" xmlns:xlink="http://www.w3.org/1999/xlink" x="0px" y="0px"
	 viewBox="0 0 266.4 266.4" enable-background="new 0 0 266.4 266.4" xml:space="preserve">
<g id="layer1">
	<g id="g5180">
		<g id="g5169">
			<path id="path4270" fill="#003576" d="M266.4,266.4H0V0h266.4V266.4z"/>
		</g>
	</g>
</g>
<g>
	<path fill="#FFFFFF" d="M177.9,164.5c1.8-5.8,5.7-14.1,12.3-24.6c5.3-8.5,11.9-21.7,11.8-32.5c-0.1-12.3-9.2-22.7-9.2-22.7
		c0.2-2.5-0.1-4.5-1-6.4c-0.9-2-2.2-4-4.1-6.5c-5-6.8-7.3-8.4-9.7-12.6c0,0,0.7-1.2,0.8-2.7c0.1-2.7-4.9-6.6-6.4-9.8
		c-0.1-0.2-0.1-0.6,0-0.8c1-1.4,3.6-4.4,10.3-5.3c0.4-0.1,0.4-0.4,0.1-0.7c-3.6-2.9-8-4.5-11-5.4c-0.2-4.7-6.6-10.2-13.1-13.9
		c-0.6-0.3-1.9-0.5-2.1,1.2c-0.2,1.5-0.7,2.2-1.9,1.8c-9.2-2.9-15.5-3.1-20.6-5.6c-0.8-0.4-1.7-0.5-1.8,1.3c0,0.3,0,0.7,0,1.2
		c0.1,3.5,1.3,9.8,7.1,15.8c-2.2,5.3-1.5,12.2,0,18.9c1.7,7.3,7,22.4,9.1,28.1c3.2,9-0.7,16.1-6.4,15.4c-4.3-0.5-7.9-4.6-11.3-9.2
		c-8.4-11.6-15.8-33.7-42-32.8c-28.4,1-42.1,31.8-41.6,63.2c0.3,19,10.5,53.3,37.3,53.3c0,0-1.8-0.4-5-3.5c-1.6-1.6-3-3.5-4-5.6
		c6.8,3.9,12.5,5.4,15,5.9c11.1,2.3,18.2-4.1,18.2-4.1s-6.1-2.2-11.8-7.7l0,0c6.8,4.9,20.3,2.4,27.8-5.8c0.5-0.6,4.1-4.8,6.2-5.9
		c2.3-1.3,4-0.6,5.3,0.3c2.1,1.3,3.9,3.9,5.7,9.3c2.8,8.3,2.7,18.9,0.2,29.8c-2.2,0.7-3.6-2.4-3.9-1.5c-0.6,2.4,1.6,4.8,1.7,7.5
		c-0.6,1.2-1.9,4.1-4.8,6.4c-2.6,2.1-5.7,3.4-8.6,4.9c-0.7,0.4-0.9,2.6-0.9,2.6s5.5-1.2,9.7-1.9c3.7-0.6,7.7-0.7,10.8-0.5
		c4.6,0.4,7.4,2,7.4,2c-0.1-1-0.6-2.8-1-3.3c-0.6-0.7-2.5-1.7-4.5-3.6c-0.9-0.8-1.4-1.9-1.4-3.9c-0.1-3,0.8-7.9,2.9-16.5
		c2.3-9.2,7-26.9,18.5-25.9c3.2,0.3,1.7,7.1,0.6,16.4c-0.4,3.3-1.4,10.6-3.1,16.7c-2.5,0.4-3.5-3-3.7-1.1c-0.2,2.1,1.7,4.6,1.8,7.2
		c-1.2,3.3-2.5,5.7-3.9,7.4c-0.9,1.2-2.6,2.5-2.8,2.8c-0.6,0.8-0.2,3-0.2,3c1.4-0.6,2.4-1.2,3.9-1.8c0.9-0.3,2-0.6,3.5-0.7
		c4-0.4,16.1,2.6,20.5,3.6c0,0-0.3-2.3-1.4-2.7c-6.4-2.4-11.3-5.2-11.7-7.1c-0.4-1.9-0.3-4.8,0.4-8.8
		C172.8,181.8,175.1,173.2,177.9,164.5z M184.6,79.6c6,9.9,3.8,16.5,3.8,16.5c-2.1-6-8.6-9-8.6-9c0.5-11.4-6.4-13.8-8.6-20.4
		C176.1,72.1,181.6,74.7,184.6,79.6z M167.2,100c12.9,14.7-1.9,32.1-27,28c-12.3-2-17-5.7-28.7-5.7c7.2-0.8,12.2-0.4,18.3,0.1
		c10.4,0.8,21.2-0.8,28.4-5.1C165,113.2,168.4,106.9,167.2,100z M144.3,30.4c2.9-2,5.7-2.5,9.1-2.7c6.4-0.2,12.7,3.6,15.7,6.1
		c-3.7-2.6-14.4-5-19.4-2.2c-4.8,2.7-6.4,7.2-4.8,11.8c0.6,1.7,1.4,3.1,2.5,4.1C142.2,43.6,137.8,35,144.3,30.4z M162.3,38.3
		c-0.2,1.3-1.5,2.1-3,1.9c-1.5-0.2-2.5-1.4-2.3-2.7c0-0.3,0.2-0.6,0.3-0.8c-0.1,0-1.4,0.1-2.1,0.2c0,0,1.2-1.9,4.2-1.5
		c0.6,0.1,2,0.5,3.4,1.2l0.5,0.9c-0.5-0.2-1.1-0.3-1.1-0.3C162.3,37.5,162.4,37.9,162.3,38.3z M146.9,68.7
		c-3-11.8,3.1-18.8,3.5-19.2l0,0c1.2,0.4,3.3,0.8,5.8,0.3c-0.2,4.6,1.1,9.9,6.6,17.5c6.6,9.1,8.5,17.2,4.6,26.5
		c1.6-4.3,0.5-11-6.4-17.6c-8.3-7.9-10.1-10.3-11-15.7c0,4,0.4,6.2,5.1,13.8c5.4,8.7,6.5,20.8-4.3,24.1c2.4-2.8,3.6-8.4-0.6-19.5
		l0,0C150.1,78.4,148.4,74.3,146.9,68.7z M97.7,164.2c-16.9-2.2-29.5-17.5-27.8-35.7c2.5-25.8,28-25.3,41.6-20.2
		c6.4,2.4,15.7,3.6,19.6,1.7c0,0-9.5-0.1-19.6-7.1c-9.1-6.3-20.5-11.1-34.3-4.1c-9.8,5-20.7,18.6-17,40.7c0.4,2.1,1,4.3,1.8,6.3
		c0.1,0.2,0.1,0.3,0.2,0.5c0,0-9.3-12.1-6.9-37c2.2-22.7,13-41.3,34.3-42.5c20.8-1.2,30.4,19.9,30.4,19.9s-11.4-16.5-32-13
		c-13,2.2-19.8,14.7-22.4,24.9c5.4-8.4,13.3-13.7,22.2-14.5c18.5-1.6,27.9,11,36.9,17.3c11.7,8.2,23.7,5.3,28.3,1.3
		c-0.9,2.9-8.1,11.3-20.1,13.4c-3.8,0.6-9,0.8-16.1-0.1c-12.5-1.4-30-3.3-37.2,11.5C72.3,142.3,83,158.9,97.7,164.2z M125.4,145.1
		c-5.9,4.1-9.3,7.6-17.7,7.7c-8.7,0.2-13.7-3-17.1-8.2l0,0c1.6,2.3,4.2,4.1,8,4.7c10.4,1.7,17-7,17-7s-18.6,4.8-20.2-6.8
		c-0.6-4.1,2.2-9.3,8.9-10c6.1-0.7,10,1.6,14.1,3.7c-0.2-0.1-10.2-3.8-17.5,3.9c4.5-0.2,9,1,12.9,3.5s7.6,4.5,17.5,6.4
		C129.5,142.9,127.1,143.9,125.4,145.1z M132.3,136.3c-5.5-3.4-8.7-5.5-8.7-5.5s17.2,8.8,37.2,4c26.7-6.4,22.8-34.8,15.1-38.7
		c10.9,0.6,19.4,24.4,5.4,38.5C167.4,148.7,143.6,143.3,132.3,136.3z"/>
</g>
<text transform="matrix(1 0 0 1 25.1002 246.6152)" fill="#FFFFFF" font-family="'AntennaCond-Bold'" font-size="32px">T</text>
<text transform="matrix(1 0 0 1 43.6002 246.6152)" fill="#FFFFFF" font-family="'AntennaCond-Bold'" font-size="32px">ES</text>
<text transform="matrix(1 0 0 1 79.3002 246.6152)" fill="#FFFFFF" font-family="'AntennaCond-Bold'" font-size="32px">T M</text>
<text transform="matrix(1 0 0 1 129.1002 246.6152)" fill="#FFFFFF" font-family="'AntennaCond-Bold'" font-size="32px" letter-spacing="-1">A</text>
<text transform="matrix(1 0 0 1 147.5002 246.6152)" fill="#FFFFFF" font-family="'AntennaCond-Bold'" font-size="32px">T</text>
<text transform="matrix(1 0 0 1 165.5002 246.6152)" fill="#FFFFFF" font-family="'AntennaCond-Bold'" font-size="32px">CH</text>
<text transform="matrix(1 0 0 1 205.2002 246.6152)" fill="#FFFFFF" font-family="'AntennaCond-Bold'" font-size="32px">E</text>
<text transform="matrix(1 0 0 1 222.6002 246.6152)" fill="#FFFFFF" font-family="'AntennaCond-Bold'" font-size="32px">S</text>
</svg>
