<?xml version="1.0" encoding="utf-8"?>
<!-- Generator: Adobe Illustrator 26.0.2, SVG Export Plug-In . SVG Version: 6.00 Build 0)  -->
<svg version="1.1" id="Calque_1" xmlns="http://www.w3.org/2000/svg" xmlns:xlink="http://www.w3.org/1999/xlink" x="0px" y="0px"
	 viewBox="0 0 49.7 58.2" enable-background="new 0 0 49.7 58.2" xml:space="preserve">
<path fill="#FFFFFF" d="M25.3,50.1c8.1,0,14.6-6.6,14.6-14.7s-6.6-14.6-14.7-14.6c-8.1,0-14.6,6.5-14.6,14.6
	C10.6,43.5,17.2,50,25.3,50.1C25.3,50.1,25.3,50.1,25.3,50.1z M25.3,32.5c0.3,0,0.7,0.1,1,0.2l5-5c0.3-0.5,0.9-0.6,1.4-0.3
	c0.5,0.3,0.6,0.9,0.3,1.4c-0.1,0.1-0.2,0.3-0.4,0.3l-4.8,4.8c0.8,1.4,0.4,3.2-1,4c-1.4,0.8-3.2,0.4-4-1c-0.8-1.4-0.4-3.2,1-4
	C24.3,32.6,24.8,32.4,25.3,32.5L25.3,32.5z"/>
<path fill="#FFFFFF" d="M25.3,36.3c0.6,0,1-0.4,1-1c0-0.1,0-0.1,0-0.2h-0.2c-0.5,0-0.9-0.3-1-0.8c-0.5,0.2-0.8,0.7-0.6,1.3
	C24.6,36,24.9,36.3,25.3,36.3L25.3,36.3z"/>
<path fill="#FFFFFF" d="M2.9,35.4c0,12.4,10.1,22.5,22.5,22.5c12.4,0,22.5-10.1,22.5-22.5c0-10.7-7.5-19.8-17.9-22
	c-0.5-0.1-0.8-0.5-0.8-1V7.8h-7.9v4.6c0,0.5-0.3,0.9-0.8,1C10.2,15.8,2.9,24.9,2.9,35.4z M25.3,18.7c9.2,0,16.6,7.4,16.6,16.6
	s-7.4,16.6-16.6,16.6S8.7,44.5,8.7,35.3l0,0C8.7,26.2,16.2,18.7,25.3,18.7L25.3,18.7z"/>
<rect x="21.1" fill="none" stroke="#FFFFFF" stroke-width="2.000000e-02" stroke-miterlimit="10" width="7.8" height="7.9"/>
</svg>
