<svg id="svg5017" xmlns="http://www.w3.org/2000/svg" xmlns:xlink="http://www.w3.org/1999/xlink" viewBox="0 0 266.36 266.36"><defs><style>.cls-1{fill:#fff;}.cls-2{fill:none;stroke:#fff;stroke-width:3.39px;}.cls-3{fill:url(#Dégradé_sans_nom_21);}.cls-4{fill:url(#Dégradé_sans_nom_20);}.cls-5{fill:url(#Dégradé_sans_nom_20-2);}.cls-6{fill:url(#Dégradé_sans_nom_19);}.cls-7{fill:url(#Dégradé_sans_nom_18);}.cls-8{fill:url(#Dégradé_sans_nom_17);}.cls-9{fill:url(#Dégradé_sans_nom_16);}</style><radialGradient id="Dégradé_sans_nom_21" cx="-3019.01" cy="2442.49" r="91.25" gradientTransform="matrix(0.58, -0.19, -0.17, -0.53, 2339.44, 852.67)" gradientUnits="userSpaceOnUse"><stop offset="0" stop-color="#fff"/><stop offset="1" stop-color="#c7c6c8"/></radialGradient><radialGradient id="Dégradé_sans_nom_20" cx="-2953.89" cy="2794.85" r="123.85" gradientTransform="matrix(0.66, -0.12, -0.12, -0.66, 2406.48, 1617.64)" gradientUnits="userSpaceOnUse"><stop offset="0.09" stop-color="#fff"/><stop offset="0.12" stop-color="#fcfcfd"/><stop offset="0.27" stop-color="#eeeff4"/><stop offset="0.39" stop-color="#eaeaf0"/><stop offset="0.46" stop-color="#dfe1eb"/><stop offset="0.59" stop-color="#c3c9dc"/><stop offset="0.76" stop-color="#93a3c3"/><stop offset="0.97" stop-color="#4b75a3"/><stop offset="1" stop-color="#3d6e9e"/></radialGradient><radialGradient id="Dégradé_sans_nom_20-2" cx="-2936.05" cy="2753.35" r="84" xlink:href="#Dégradé_sans_nom_20"/><radialGradient id="Dégradé_sans_nom_19" cx="-3033.47" cy="2558.28" r="93.84" gradientTransform="matrix(0.58, -0.13, -0.15, -0.57, 2258.39, 1246.07)" gradientUnits="userSpaceOnUse"><stop offset="0.11" stop-color="#b1d6f3"/><stop offset="0.13" stop-color="#a8cceb"/><stop offset="0.28" stop-color="#6587b0"/><stop offset="0.41" stop-color="#395c8b"/><stop offset="0.5" stop-color="#214777"/><stop offset="0.56" stop-color="#153f71"/></radialGradient><radialGradient id="Dégradé_sans_nom_18" cx="-2901.51" cy="2569.21" r="55.99" gradientTransform="matrix(0.6, -0.06, -0.1, -0.56, 2085.53, 1427.64)" gradientUnits="userSpaceOnUse"><stop offset="0" stop-color="#31aa48"/><stop offset="1" stop-color="#1a4821"/></radialGradient><radialGradient id="Dégradé_sans_nom_17" cx="-2985.01" cy="2656.5" r="36.69" gradientTransform="matrix(0.58, -0.13, -0.15, -0.57, 2258.39, 1246.07)" gradientUnits="userSpaceOnUse"><stop offset="0.02" stop-color="#fff"/><stop offset="0.1" stop-color="#fdebe5"/><stop offset="0.18" stop-color="#fcdfd4"/><stop offset="0.24" stop-color="#fbdace"/><stop offset="0.34" stop-color="#f6b4a0"/><stop offset="0.46" stop-color="#f18a73"/><stop offset="0.57" stop-color="#ec6552"/><stop offset="0.68" stop-color="#e8453a"/><stop offset="0.79" stop-color="#e52c2c"/><stop offset="0.9" stop-color="#e41825"/><stop offset="0.99" stop-color="#e30d22"/></radialGradient><radialGradient id="Dégradé_sans_nom_16" cx="-2700.83" cy="2804.48" r="83.73" gradientTransform="matrix(0.66, -0.12, -0.12, -0.66, 2239.87, 1652.98)" gradientUnits="userSpaceOnUse"><stop offset="0" stop-color="#dfeefb"/><stop offset="0.11" stop-color="#29ace3"/><stop offset="0.33" stop-color="#153f71"/><stop offset="0.6" stop-color="#0d4477"/><stop offset="0.82" stop-color="#194086"/></radialGradient></defs><title>VINations</title><g id="layer1"><g id="g5180"><g id="g5169"><path id="path4270" d="M266.35,266.36H0V0H266.35V266.36Z" transform="translate(0 0)"/></g></g></g><path class="cls-1" d="M88,247H83.09L77,229.72V247H71.92V217.08h5.15l5.78,15.77V217.08H88Z" transform="translate(0 0)"/><path class="cls-1" d="M108.38,247h-5.45l-.91-6.52H96.94L96,247H90.59l.07-.34L96.1,217h6.73l0,.24ZM97.78,235.54h3.43L99.5,224.68Z" transform="translate(0 0)"/><path class="cls-1" d="M116.89,247H111.3V222h-4.88v-4.94H121.8V222h-4.88v25Z" transform="translate(0 0)"/><path class="cls-1" d="M130.1,247h-5.58V217.08h5.58Z" transform="translate(0 0)"/><path class="cls-1" d="M140.76,247.41c-5.92,0-8-4-8-7.8V224.47c0-3.77,2.12-7.8,8-7.8s8,4,8,7.8v15.13C148.77,243.37,146.65,247.41,140.76,247.41Zm0-25.83c-1.75,0-2.42.81-2.42,3v14.9c0,2.19.64,3,2.42,3s2.42-.81,2.42-3v-14.9C143.18,222.39,142.51,221.58,140.76,221.58Z" transform="translate(0 0)"/><path class="cls-1" d="M167.36,247h-4.88l-6.05-17.29V247h-5.11V217.08h5.15l5.78,15.77V217.08h5.11Z" transform="translate(0 0)"/><path class="cls-1" d="M177.35,247.41c-5.15,0-7.63-4.2-7.84-8.41v-.24l5.35-.77,0,.3c.17,2.66,1.18,4.17,2.76,4.17s2.66-.87,2.66-2.42c0-2.52-2-4.17-4.34-6.12-2.79-2.32-5.92-4.94-5.92-9.69s3-7.6,8.07-7.6c4,0,6.79,2.82,7.26,7.36l0,.27-5.35.61,0-.27c-.24-2.72-1.75-3-2.42-3-1.45,0-2.25.94-2.25,2.62,0,2.09,1.92,3.73,4.14,5.62,2.86,2.42,6.12,5.21,6.12,9.79C185.59,244.42,182.43,247.41,177.35,247.41Z" transform="translate(0 0)"/><path class="cls-1" d="M105.85,62.11c-7.68,0-11.39-6.27-11.69-12.55v-.35l8-1.15.05.45c.25,4,1.76,6.22,4.11,6.22,2.51,0,4-1.3,4-3.61,0-3.76-3-6.22-6.47-9.13-4.22-3.46-8.93-7.38-8.93-14.45,0-7.23,4.42-11.34,12-11.34,6,0,10.14,4.22,10.84,11l.05.4-8,.9-.05-.4c-.35-4.06-2.61-4.47-3.61-4.47-2.16,0-3.36,1.41-3.36,3.91,0,3.11,2.86,5.57,6.17,8.38,4.27,3.61,9.13,7.78,9.13,14.6C118.15,57.65,113.43,62.11,105.85,62.11Z" transform="translate(0 0)"/><path class="cls-1" d="M189,220.47a2.25,2.25,0,1,1,2.25,2.22A2.2,2.2,0,0,1,189,220.47Zm2.25-1.75a1.75,1.75,0,1,0,1.68,1.75A1.66,1.66,0,0,0,191.21,218.72Zm-.4,3h-.5v-2.49h.94c.61,0,1,.2,1,.74a.62.62,0,0,1-.61.67l.61,1.08h-.54l-.54-1h-.3v1Zm0-1.41h.44c.37,0,.47-.1.47-.34s-.13-.3-.5-.3h-.4Z" transform="translate(0 0)"/><path class="cls-1" d="M122.26,61.51V16.9h8.53V61.51Z" transform="translate(0 0)"/><path class="cls-1" d="M150.16,30.25l6.42-13.35h9.13L154.88,38l11.84,23.49h-9.23l-7.43-15.76-7.43,15.76H133.5l12-23.49L134.55,16.9h9.13Z" transform="translate(0 0)"/><g id="_Group_resize" data-name="&lt;Group&gt;resize"><path class="cls-2" d="M164.93,71.28c-61.19,3.46-72.39,62.21-74.28,73.4a1.19,1.19,0,0,1,.07-.34h0c0,.14-.07.2-.07.34,0-.07.07-.14.07-.2-.07.2-.07.41-.14.54a.61.61,0,0,1,.07-.34C85.15,172,94.51,201.6,113,205.06h.2c.27,0,.34,0,.41-.07h.07a1.1,1.1,0,0,0,.41.2c.07,0,.14.07.27.07h0c16.28,2.92,43.82-21.64,49.93-48.51v-.2a10.84,10.84,0,0,0,.34-1.42l-.41,1.63c5.83-21.44,1.42-38.47-7.6-48.51a28.87,28.87,0,0,0-17.1-9.57c-.34-.07-.68-.07-.95-.14a4.81,4.81,0,0,0-.95-.07,1.51,1.51,0,0,0-.95.2.31.31,0,0,0-.34-.27h-.07c-6.58.41-13.57,3.46-20,8.28,3.39-9.57,21.91-26.93,45.86-32.63C167.51,72.71,167,71.08,164.93,71.28Z" transform="translate(0 0)"/><path class="cls-3" d="M90.58,145c-4.21,20.42,4.07,56.58,22.39,60,.61.14.61-.14.54-.41,0,.07.07.14.07.2s.34.34.75.41c17.16,2.17,44.1-24.83,49.93-48.78,8.41-32.56-5.9-54.81-24.76-57.8a16.29,16.29,0,0,0-1.9-.2,1.27,1.27,0,0,0-1.09.27c-.07.07-.14.07-.14.14l.07-.07c.2-.14.07-.41-.27-.41C117.78,99.57,96.82,121.28,91,143.06Z" transform="translate(0 0)"/><path class="cls-4" d="M90.51,145.09c-1.76,12.28-4.21,50.27,23.74,60.17-5-5.63-4-24.42-.88-53.93,1.29-21.3,12.75-45.32,23.13-52.58C108.35,108.87,94.72,122.37,90.51,145.09Z" transform="translate(0 0)"/><path class="cls-5" d="M113.37,151.33c-.61,14.72-5.9,42.81.88,53.93,12.55-.47,42.74-18.25,49.93-48.51,10-40.36-14.59-57.8-27.68-58C118.94,115.72,115.68,137.83,113.37,151.33Z" transform="translate(0 0)"/><path class="cls-6" d="M118.6,180.71c-3.19-7.33-5.36-17.23-5.22-29.37-2,24-4.55,40.09.14,53.53.07.2.34.27.75.41,16.28,2.92,43.82-21.64,49.93-48.51C156.66,186.54,128.3,202.89,118.6,180.71Z" transform="translate(0 0)"/><path class="cls-7" d="M106.73,181.18c-2.24,7.06-5.56,3.93-7.67,2.24-5.56-4.61-11.67-18.11-8.41-38.74C85.15,172,94.51,201.6,113,205.06c.81.14.54-.34.47-.61-4.48-13.3-1.9-29.31,0-53.12C110.66,159.68,110.93,168,106.73,181.18Z" transform="translate(0 0)"/><path class="cls-8" d="M136.51,98.76c-11.67,8.62-21.51,32.09-23.13,52.58,3.66-17.5,13.23-33.85,30.53-35.82,11.53-1.36,26.73,17.77,20.35,41.25,8.89-32.7-5.9-55-24.76-58.07a16.29,16.29,0,0,0-1.9-.2A1.33,1.33,0,0,0,136.51,98.76Z" transform="translate(0 0)"/><path class="cls-9" d="M164.93,71.28c-61.19,3.46-72.39,62.21-74.28,73.4a4.47,4.47,0,0,0,.14-.61c-.07.2-.07.41-.14.61.88-3.32,1.76-6.31,2.71-8.89,3.6-9.29,9.09-15.94,17.43-19.74,7.33-3.12,1.83,16.49,2.65,35.34,1.7-20.42,11.46-43.82,23.07-52.51.2-.14.07-.41-.27-.41-6.58.41-13.57,3.46-20,8.28,3.39-9.57,21.91-26.93,45.86-32.63C167.51,72.71,167,71.08,164.93,71.28Z" transform="translate(0 0)"/></g></svg>