<?xml version="1.0" encoding="utf-8"?>
<!-- Generator: Adobe Illustrator 24.0.1, SVG Export Plug-In . SVG Version: 6.00 Build 0)  -->
<svg version="1.0" id="Layer_1" xmlns="http://www.w3.org/2000/svg" xmlns:xlink="http://www.w3.org/1999/xlink" x="0px" y="0px"
	 width="283.5px" height="87.2px" viewBox="0 0 283.5 87.2" enable-background="new 0 0 283.5 87.2" xml:space="preserve">
<title>Prime Video Logo</title>
<g id="Layer_2_1_">
	<g id="Ebene_1">
		<path fill="#D1EFFA" d="M140.4,87.2L140.4,87.2c0.1-0.3,0.4-0.4,0.6-0.3c1,0,2,0,3,0c0.2,0,0.5,0.1,0.6,0.2v0.1H140.4z"/>
		<path fill="#00A8E1" d="M144.7,87.1c-1.4,0-2.8,0-4.3,0c-1.9-0.1-3.9-0.2-5.8-0.3c-5.2-0.4-10.3-1.2-15.3-2.3
			c-17.4-4-32.7-12.1-46-23.9c-1.2-1.1-2.4-2.2-3.6-3.4c-0.3-0.2-0.5-0.6-0.7-1c-0.2-0.5-0.1-1,0.2-1.4c0.4-0.4,0.9-0.5,1.4-0.3
			c0.3,0.1,0.6,0.3,0.9,0.5c12.7,7.9,26.6,13.6,41.2,17c4.9,1.1,9.8,2,14.8,2.7c7.1,0.9,14.3,1.2,21.5,1c3.9-0.1,7.7-0.5,11.5-1
			c8.9-1.1,17.7-3.2,26.3-6c4.5-1.5,8.9-3.2,13.2-5.2c0.6-0.4,1.4-0.5,2.1-0.3c1.2,0.3,1.9,1.5,1.6,2.7c0,0.1-0.1,0.3-0.2,0.5
			c-0.3,0.5-0.7,1-1.2,1.3c-4.1,3.2-8.5,6-13.1,8.3c-8.7,4.4-18.1,7.6-27.7,9.4C155.9,86.3,150.3,86.9,144.7,87.1z"/>
		<path fill="#00A8E1" d="M92.2,15.3c0.9-0.5,1.8-1.1,2.8-1.6c2.5-1.3,5.2-1.9,8-1.8c2,0.1,3.9,0.7,5.3,2.2c1.3,1.4,1.8,3.1,2,4.9
			c0,0.4,0,0.8,0,1.2v18.3c0,1.6-0.2,1.8-1.8,1.8h-4.3c-0.3,0-0.6,0-0.9,0c-0.4,0-0.8-0.4-0.9-0.8c-0.1-0.4-0.1-0.8-0.1-1.2V21.9
			c0-0.7,0-1.3-0.2-1.9c-0.3-1.1-1.3-1.9-2.4-1.9c-2.1-0.1-4.2,0.3-6.1,1.2c-0.3,0.1-0.5,0.4-0.4,0.6v18.6c0,0.4,0,0.7-0.1,1
			c0,0.5-0.4,0.9-0.9,0.9l0,0c-0.5,0-1.1,0-1.6,0H87c-1.3,0-1.6-0.3-1.6-1.6V22c0-0.6,0-1.2-0.2-1.8c-0.2-1.2-1.3-2.1-2.5-2.1
			c-2.1-0.1-4.3,0.3-6.2,1.2c-0.3,0.1-0.5,0.4-0.4,0.7v18.9c0,1.3-0.3,1.6-1.6,1.6h-4.7c-1.2,0-1.6-0.4-1.6-1.6V14.3
			c0-0.3,0-0.6,0.1-0.9c0.1-0.4,0.6-0.7,1-0.7h4.4c0.6,0,1,0.4,1.2,1c0.2,0.5,0.3,1,0.5,1.5c0.4,0,0.6-0.2,0.8-0.4
			c1.9-1.2,4-2.2,6.3-2.7c1.8-0.4,3.5-0.4,5.3,0c1.7,0.4,3.2,1.3,4.1,2.8c0.1,0.1,0.1,0.2,0.2,0.2C92.2,15.2,92.2,15.2,92.2,15.3z"
			/>
		<path fill="#232F3E" d="M165.7,32.9c0.2-0.7,0.4-1.4,0.6-2.1c1.6-5.5,3.3-10.9,4.9-16.4l0.2-0.6c0.2-0.6,0.8-1,1.4-1h5.4
			c1.3,0,1.6,0.4,1.2,1.7l-2.1,5.6c-2.4,6.2-4.7,12.4-7.1,18.5c-0.1,0.2-0.2,0.4-0.2,0.6c-0.2,0.7-1,1.2-1.8,1.2c-1.6,0-3.1,0-4.7,0
			c-1.1,0-1.7-0.5-2.1-1.5c-0.9-2.3-1.8-4.7-2.7-7c-2.1-5.6-4.3-11.1-6.4-16.7c-0.2-0.4-0.4-0.9-0.5-1.4c-0.1-0.7,0.1-1.1,0.9-1.1
			c2,0,4,0,6,0c0.9,0,1.2,0.6,1.5,1.3c0.4,1.3,0.8,2.7,1.2,4.1C162.7,23,164.1,28,165.7,32.9C165.6,32.9,165.6,32.9,165.7,32.9z"/>
		<path fill="#00A8E1" d="M39.9,16.6c0.2-0.1,0.5-0.2,0.6-0.4c0.6-0.6,1.3-1.2,2-1.8c1.8-1.4,4.1-2.1,6.4-1.9c0.9,0,1.2,0.3,1.3,1.2
			c0.1,1.2,0,2.4,0,3.6c0,0.5,0,1-0.1,1.5c-0.1,0.6-0.4,0.9-1,1c-0.5,0-1,0-1.5,0c-2.4-0.2-4.7,0.2-6.9,1c-0.5,0.2-0.5,0.5-0.5,0.9
			v17c0,0.3,0,0.6,0,0.9c0,0.5-0.4,0.8-0.9,0.8c-0.2,0-0.5,0-0.8,0h-4.6c-0.2,0-0.5,0-0.8,0c-0.5,0-0.8-0.4-0.9-0.9
			c0-0.3,0-0.6,0-0.9V14.5c0-1.6,0.2-1.8,1.8-1.8h3.4c0.9,0,1.3,0.3,1.6,1.2C39.5,14.8,39.7,15.7,39.9,16.6z"/>
		<path fill="#00A8E1" d="M205.6,52.5c2.3,0.1,4.6,0.2,6.9,0.8c0.6,0.2,1.2,0.4,1.8,0.7c0.8,0.3,1.3,1.1,1.5,1.9c0.1,1,0.2,2,0.1,3
			c-0.5,6.1-2.3,11.9-5.5,17.1c-1.1,1.9-2.5,3.6-4.1,5.1c-0.3,0.3-0.7,0.6-1.1,0.7c-0.7,0.2-1.1-0.2-1.1-0.9c0-0.4,0.1-0.7,0.2-1.1
			c1.2-3.3,2.4-6.6,3.4-10.1c0.6-1.9,1-3.8,1.2-5.7c0.1-0.7,0.1-1.4,0-2.1c0-1.2-0.8-2.2-2-2.6c-1.1-0.4-2.2-0.6-3.4-0.6
			c-3.3-0.1-6.5,0-9.7,0.4l-4.3,0.5c-0.5,0-0.9,0-1.1-0.4c-0.2-0.4-0.1-0.9,0.1-1.3c0.3-0.4,0.6-0.7,1.1-1c2.6-1.9,5.6-3,8.7-3.8
			C200.7,52.9,203.1,52.6,205.6,52.5z"/>
		<path fill="#232F3E" d="M190.7,26.5v12.8c-0.1,0.7-0.4,1-1.1,1.1c-1.9,0-3.8,0-5.7,0c-0.7,0-1-0.4-1.1-1c0-0.2,0-0.5,0-0.7V14.2
			c0-1.1,0.3-1.4,1.4-1.4h5.1c1.1,0,1.4,0.3,1.4,1.4L190.7,26.5L190.7,26.5z"/>
		<path fill="#00A8E1" d="M53.7,26.5V13.9c0-0.9,0.4-1.2,1.2-1.2c1.8,0,3.7,0,5.5,0c0.8,0,1.1,0.2,1.1,1.1c0,0.3,0,0.6,0,0.9v23.6
			c0,0.4,0,0.8-0.1,1.2c0,0.5-0.4,0.8-0.9,0.8c-0.2,0-0.4,0-0.6,0H55c-0.2,0-0.3,0-0.5,0c-0.5,0-0.9-0.4-1-0.9c0-0.3,0-0.6,0-0.9
			C53.7,34.6,53.7,30.5,53.7,26.5z"/>
		<path fill="#00A8E1" d="M57.8,0c0.6,0,1.1,0.1,1.7,0.2c1.9,0.6,2.9,2.3,2.7,4.5c-0.1,1.8-1.5,3.3-3.4,3.6c-0.8,0.1-1.6,0.1-2.4,0
			c-2-0.4-3.5-1.9-3.4-4.4C53.3,1.4,55,0,57.8,0z"/>
		<path fill="#232F3E" d="M186.8,0c0.7-0.1,1.4,0.1,2.1,0.4c1.4,0.5,2.3,1.8,2.4,3.3c0.3,3.2-1.9,4.9-4.7,4.8
			c-0.4,0-0.8-0.1-1.2-0.1c-2.2-0.5-3.3-2.2-3.1-4.7c0.2-1.9,1.7-3.4,3.8-3.6C186.3,0,186.6,0,186.8,0z"/>
		<path fill="#00A8E1" d="M27.2,23.6c-0.1-1.8-0.6-3.6-1.4-5.3c-1.5-3-3.7-5.3-7.1-6.1c-3.9-0.9-7.4,0-10.6,2.4
			c-0.2,0.2-0.5,0.4-0.7,0.5c-0.1,0-0.1-0.1-0.1-0.1c-0.1-0.4-0.2-0.7-0.3-1.1c-0.3-0.9-0.6-1.2-1.6-1.2c-1.1,0-2.2,0-3.2,0
			c-0.8,0-1.6,0.1-2.1,0.7c0,12.4,0,24.8,0,37.2c0.5,0.7,1.2,0.9,2,0.9c1.3,0,2.6,0,3.8,0c2.2,0,2.2,0,2.2-2.2V39.2
			c0-0.2-0.1-0.5,0.1-0.7c1.8,1.4,3.9,2.2,6.2,2.4c3.1,0.3,6-0.5,8.3-2.6c1.7-1.6,3-3.6,3.7-5.9C27.3,29.5,27.4,26.5,27.2,23.6z
			 M18.7,30.9c-0.2,1.1-0.8,2.1-1.6,2.8C16.2,34.5,15,35,13.8,35c-1.8,0.1-3.6-0.3-5.2-1.1c-0.4-0.2-0.6-0.6-0.6-1v-6.4
			c0-2.1,0-4.3,0-6.4c0-0.5,0.2-0.9,0.7-1.1c1.9-0.9,4-1.3,6.1-0.9c1.5,0.2,2.8,1.2,3.4,2.6c0.5,1.1,0.9,2.4,0.9,3.6
			C19.3,26.5,19.3,28.7,18.7,30.9z"/>
		<path fill="#232F3E" d="M283.4,29.1L283.4,29.1L283.4,29.1z"/>
		<path fill="#232F3E" d="M283.4,24.4v0.1c-0.1-0.1-0.2-0.4-0.1-0.5v-0.3l0,0l0,0v-0.4h0.1c0,0,0,0,0-0.1c-0.1-0.7-0.2-1.3-0.4-2
			c-1.3-4.7-4.3-7.8-9-9c-2.2-0.5-4.5-0.6-6.8-0.2c-4.8,0.7-8.2,3.3-9.9,7.8c-1.6,4.3-1.6,9.1,0,13.4c1.4,3.9,4.3,6.4,8.3,7.4
			c2.2,0.5,4.4,0.7,6.7,0.4c7.4-0.9,10.5-6.5,11-11.4l0,0v-0.5c0-0.2-0.1-0.4,0.1-0.5v0.1c0,0,0-0.1,0.1-0.1L283.4,24.4
			C283.5,24.4,283.4,24.4,283.4,24.4z M274.9,31.1c-0.2,0.7-0.5,1.4-1,2.1c-0.8,1.1-2,1.8-3.4,1.9c-0.7,0.1-1.3,0.1-2-0.1
			c-1.5-0.3-2.7-1.3-3.3-2.7c-0.5-1.1-0.9-2.3-1-3.5c-0.2-2.1-0.2-4.2,0.3-6.2c0.2-0.8,0.5-1.6,1-2.3c0.8-1.3,2.1-2.1,3.6-2.2
			c0.7-0.1,1.3-0.1,2,0.1c1.4,0.3,2.6,1.2,3.2,2.5c0.6,1.2,1,2.6,1,4c0,0.6,0.1,1.3,0,1.9C275.5,28.1,275.4,29.6,274.9,31.1z"/>
		<path fill="#232F3E" d="M221.3,0.3h-4.9c-1.3,0-1.6,0.2-1.6,1.6v11.5c0,0.2,0.1,0.5-0.1,0.7c-0.3,0-0.5-0.2-0.7-0.4
			c-3.7-2.2-7.5-2.6-11.4-0.7c-2.7,1.3-4.4,3.6-5.5,6.3c-1.1,2.6-1.3,5.4-1.2,8.2c0,2.6,0.6,5.2,1.8,7.5c1.3,2.6,3.3,4.6,6.1,5.4
			c3.9,1.2,7.5,0.6,10.8-1.8c0.2-0.1,0.4-0.4,0.7-0.5c0.2,0.4,0.3,0.8,0.4,1.2c0.1,0.6,0.6,1,1.2,1h0.9c1.3,0,2.5,0,3.8,0
			c1,0,1.3-0.3,1.3-1.3V1.6C222.7,0.5,222.4,0.3,221.3,0.3z M214.9,26.3v6.4c0.1,0.4-0.2,0.8-0.6,1c-1.7,1-3.6,1.3-5.6,1.1
			c-1.6-0.2-3-1.2-3.8-2.6c-0.6-1.1-0.9-2.3-1-3.6c-0.3-2.2-0.1-4.5,0.4-6.7c0.2-0.6,0.4-1.2,0.7-1.7c0.7-1.4,2.2-2.3,3.7-2.4
			c1.9-0.2,3.8,0.2,5.5,1c0.4,0.1,0.7,0.6,0.6,1C214.8,22,214.9,24.2,214.9,26.3L214.9,26.3z"/>
		<path fill="#00A8E1" d="M123.3,28.8c2.7,0.5,5.4,0.5,8,0.1c1.6-0.2,3-0.7,4.4-1.4c1.6-0.9,2.8-2.2,3.3-4c1.2-4.5-0.7-9-5.3-10.6
			c-2.3-0.7-4.7-1-7-0.7c-5.6,0.6-9.2,3.7-10.9,9.1c-1.2,3.6-1,7.4-0.1,11.1c1.2,4.7,4.4,7.5,9.1,8.5c2.7,0.6,5.4,0.5,8.1,0.1
			c1.4-0.2,2.8-0.6,4.2-1.1c0.8-0.3,1.2-0.8,1.2-1.7s0-1.7,0-2.6c0-1.1-0.4-1.4-1.5-1.1s-2,0.5-3,0.7c-2.2,0.5-4.5,0.5-6.7,0.1
			c-3-0.6-5-3.2-4.8-6.4C122.6,28.7,122.9,28.7,123.3,28.8z M122.4,23.4c0.1-0.9,0.4-1.7,0.7-2.4c1.1-2.6,3.3-3.5,5.6-3.3
			c0.6,0,1.3,0.2,1.9,0.4c0.9,0.4,1.5,1.2,1.6,2.2c0.1,0.6,0.1,1.2-0.1,1.8c-0.4,1.3-1.5,1.8-2.7,2.1c-0.7,0.2-1.5,0.2-2.3,0.2
			c-1.4,0-2.8-0.1-4.2-0.3C122.3,23.9,122.3,23.9,122.4,23.4z"/>
		<path fill="#232F3E" d="M242.7,29.1c2.1-0.1,4.1-0.5,6-1.5c1.9-0.9,3.2-2.7,3.6-4.7c0.2-1.3,0.2-2.6,0-3.9
			c-0.7-3.2-2.8-5.2-5.8-6.2c-1.7-0.5-3.5-0.7-5.3-0.7c-6,0.1-10.5,3.2-12.3,9.1c-1.2,3.9-1.1,7.9,0.1,11.9c1.2,4,4.1,6.5,8.1,7.6
			c1.7,0.4,3.5,0.6,5.3,0.5c2.6,0,5.2-0.5,7.6-1.5c1-0.4,1.3-0.7,1.3-1.8v-2.6c0-1-0.5-1.4-1.5-1.1c-0.8,0.2-1.5,0.4-2.3,0.6
			c-2.4,0.6-4.9,0.7-7.3,0.2c-2.4-0.5-4-1.8-4.7-4.3c-0.2-0.7-0.3-1.4-0.4-2.2c0.2,0,0.4,0,0.5,0.1C238,29.1,240.4,29.3,242.7,29.1z
			 M235.3,23.5c0.2-1.4,0.6-2.7,1.4-3.9c1.3-1.7,3.1-2.2,5.2-2c0.2,0,0.3,0.1,0.5,0.1c2.5,0.4,3.1,2.4,2.6,4.3
			c-0.4,1.4-1.5,1.9-2.8,2.2c-0.7,0.1-1.5,0.2-2.2,0.2c-1.5,0-2.9-0.1-4.3-0.4C235.4,23.9,235.3,23.8,235.3,23.5L235.3,23.5z"/>
	</g>
</g>
</svg>
