<?xml version="1.0" encoding="utf-8"?>
<!-- Generator: Adobe Illustrator 21.1.0, SVG Export Plug-In . SVG Version: 6.00 Build 0)  -->
<!DOCTYPE svg PUBLIC "-//W3C//DTD SVG 1.1//EN" "http://www.w3.org/Graphics/SVG/1.1/DTD/svg11.dtd" [
	<!ENTITY ns_extend "http://ns.adobe.com/Extensibility/1.0/">
	<!ENTITY ns_ai "http://ns.adobe.com/AdobeIllustrator/10.0/">
	<!ENTITY ns_graphs "http://ns.adobe.com/Graphs/1.0/">
	<!ENTITY ns_vars "http://ns.adobe.com/Variables/1.0/">
	<!ENTITY ns_imrep "http://ns.adobe.com/ImageReplacement/1.0/">
	<!ENTITY ns_sfw "http://ns.adobe.com/SaveForWeb/1.0/">
	<!ENTITY ns_custom "http://ns.adobe.com/GenericCustomNamespace/1.0/">
	<!ENTITY ns_adobe_xpath "http://ns.adobe.com/XPath/1.0/">
	<!ENTITY st0 "fill:#FFFFFF;">
	<!ENTITY st1 "fill:#5F318C;">
]>
<svg version="1.1" id="Calque_1" xmlns:x="&ns_extend;" xmlns:i="&ns_ai;" xmlns:graph="&ns_graphs;"
	 xmlns="http://www.w3.org/2000/svg" xmlns:xlink="http://www.w3.org/1999/xlink" x="0px" y="0px" width="482px" height="251px"
	 viewBox="0 0 482 251" style="enable-background:new 0 0 482 251;" xml:space="preserve">
<metadata>
	<sfw  xmlns="&ns_sfw;">
		<slices></slices>
		<sliceSourceBounds  bottomLeftOrigin="true" height="250.6" width="478.9" x="1.9" y="-0.6"></sliceSourceBounds>
	</sfw>
</metadata>
<title>Bein</title>
<rect x="1.9" y="1" style="&st0;" width="478.9" height="250.6"/>
<g id="layer1">
	<path id="path3347" style="&st1;" d="M193.3,233.2c-6.1-0.7-11.3-3.6-14.3-8c-2-2.6-3-5.8-2.8-9c0-3.3,0.8-4.6,2.9-4.6s3,1.7,3,4.5
		c0,6.3,5.3,10.8,13.1,11.2c5.2,0.3,8.9-0.8,11.6-3.2c3-2.7,4-5.1,3.8-8.9c-0.2-2.8-0.4-3.3-1.9-4.9c-2.2-2.3-5.9-3.6-12-4.2
		c-9.6-1-14.6-2.8-17.7-6.4c-4.8-5.6-3.4-15.9,2.7-21.5c7.5-6.8,21.9-6.4,29.1,0.9c2.7,2.7,4.4,6.2,4.9,10c0.5,3,0.5,3.4-0.4,4.6
		c-2.1,2.9-5.6,1.1-5.6-3c0-3.8-2.6-7.8-6.7-10c-1.7-0.9-2.8-1.1-7.1-1.1c-5.8,0-7.7,0.7-10.7,3.8s-4,8.1-2.4,11.2
		c1.4,2.8,6.2,4.6,13.3,5.2c10.4,0.8,16.5,3.8,19.2,9.2c1.7,3.3,1.8,8.9,0.3,12.9C212.8,229.8,203.6,234.3,193.3,233.2L193.3,233.2z
		 M223.4,232.7c-0.7-0.9-0.8-3.8-0.8-20.9c0-12.1,0.2-20.9,0.5-22.7c1.1-6.3,5.3-11.6,11.2-14.1c2.4-0.9,3.8-1.1,8.5-1.1
		c5.6,0,5.8,0,9.5,1.9c10.1,5,14.4,17.2,9.4,27.3c-2,4.1-5.3,7.4-9.4,9.4l-3.8,1.9l-9.9,0.2l-9.9,0.2l-0.1,8.6
		c-0.1,7.1-0.3,8.8-0.9,9.5c-1.1,1.1-2.9,1.2-4.1,0C223.6,232.9,223.5,232.8,223.4,232.7L223.4,232.7z M248.5,207.6
		c3.5-1.4,6.4-4.2,8-7.7c3.2-7.4-0.1-16-7.5-19.2c-0.2-0.1-0.4-0.2-0.6-0.2c-5.2-2-12.9-0.5-16.2,3.1c-0.9,1.1-1.6,2.3-2.2,3.6
		c-1,2.2-1.1,3.3-1.3,12l-0.2,9.5h8.7C244.7,208.6,246.1,208.5,248.5,207.6L248.5,207.6z M288.3,233c-10.8-2.9-19.1-11.4-22-22.1
		c-0.5-2.4-0.7-4.8-0.8-7.2c0-16.6,13.4-30.1,30.1-30.1c16.6,0,30.1,13.4,30.1,30.1c0,8-3.2,15.6-8.8,21.3c-3.9,4-8.8,6.8-14.1,8.1
		C298.1,233.9,293.1,233.9,288.3,233L288.3,233z M301.6,227.1c10.7-2.8,18.2-12.4,18.3-23.5c-0.1-13.3-11-24.1-24.3-24
		c-6.3,0-12.4,2.6-16.8,7c-7.6,7.6-9.3,18.4-4.4,28.3c2.8,5.5,9.6,10.9,15.8,12.4C293.9,228,297.8,228,301.6,227.1L301.6,227.1z
		 M330.6,232.7c-0.7-0.9-0.8-3.7-0.8-20.4c0-11.1,0.2-20.6,0.5-22.4c0.7-4.2,2.9-8.8,5.5-11.1c3.6-3.2,8.2-5,13-5.1
		c7.2-0.4,12.3,1.5,16.7,6.2c6.1,6.5,7.3,15.4,3.3,23.6c-2.1,3.8-5.2,7-9.1,9c-0.8,0.3-1.6,0.8-2.3,1.3c0,0.1,2.2,3.9,4.9,8.3
		c1.8,2.8,3.5,5.8,4.9,8.8c-0.2,1.5-1.4,2.7-2.9,2.9c-2,0-2.5-0.6-6.3-6.9c-1.9-3.1-4.3-7.2-5.5-9l-2.1-3.3l-7.3,0.1l-7.3,0.1
		l-0.1,8.9c-0.1,7.6-0.2,9-1,9.5C333.5,234.2,331.6,234,330.6,232.7L330.6,232.7z M356.8,207.3c5.5-2.9,8.2-7.4,8.2-13.2
		s-2.8-10.3-8.2-13.2c-1.7-0.9-2.9-1.1-6.5-1.1c-3.9,0-4.8,0.2-7.2,1.4c-2.9,1.3-5.1,3.8-6.2,6.9c-0.8,2.2-1.6,18.3-1,19.9
		c0.3,0.7,1.3,0.8,9.6,0.7C353.9,208.4,354.8,208.3,356.8,207.3L356.8,207.3z M387.8,232.7c-0.7-1-0.8-4.2-0.8-25.9V182l-7.6-0.2
		c-6.3-0.1-7.8-0.3-8.5-1c-1.2-1.3-1-3.3,0.3-4.4c0,0,0,0,0.1-0.1c1-0.9,2.2-0.9,19.4-0.8c17.4,0.1,18.2,0.2,18.9,1.1
		c0.9,1.2,0.9,2.8,0,4c-0.6,0.9-1.5,1-8.6,1.1L393,182v25.1c0,22.2-0.1,25.2-0.8,25.9C390.9,234.1,389,234,387.8,232.7
		C387.8,232.7,387.8,232.6,387.8,232.7L387.8,232.7z M431.5,233.2c-6.2-0.8-12.7-5-15.2-10c-1-1.9-1.5-4.1-1.5-6.2
		c-0.2-3.5-0.1-3.8,0.9-4.6c2.7-1.9,4.9-0.4,4.9,3.4c0,6.6,6.1,11.6,14.2,11.6c8.7,0,14.6-4.7,14.6-11.6c0.1-2.7-1.2-5.2-3.5-6.6
		c-2.6-1.8-5-2.4-11.9-3.2c-7.6-0.9-10.6-1.7-13.8-3.9c-4.3-2.9-5.9-6.6-5.5-12.3c0.8-10.1,8.6-16.4,20.1-16.3
		c10.8,0.1,18.5,6.6,19.5,16.5c0.3,2.9,0.2,3.4-0.7,4.3c-2.3,2.3-4.7,0.8-5.2-3.2c-0.2-2.9-1.4-5.6-3.4-7.6
		c-2.6-2.7-5.9-3.9-10.3-3.9c-8.6,0-13.9,4.4-13.9,11.8c0,3.1,0,3.2,2,5c2.6,2.3,4.3,2.8,12.1,3.8c3.2,0.4,6.3,0.9,9.4,1.7
		c9.8,3,13.6,11.8,9.4,21.4c-2.3,5.3-8.2,9.3-14.4,10l-3.5,0.4C434.4,233.6,432.9,233.5,431.5,233.2L431.5,233.2z M274.7,166.6
		c-2.5-0.9-4.5-2.7-5.6-5c-1-2.1-1-2.3-1-52.1c0-44,0.1-50.2,0.8-51.8c2.1-5,7.7-7.4,12.7-5.3c2.9,1.2,5,3.7,5.8,6.7
		c0.3,1.2,0.5,18.8,0.4,51.4c-0.1,55.1,0.1,50.9-3.5,54.1C281.6,166.9,278,167.6,274.7,166.6L274.7,166.6z M302.7,165.9
		c-1.7-0.7-3-2-3.9-3.6l-1.4-2.3l-0.1-37c-0.1-25.6,0-38.2,0.4-40.9c1-7.7,4.5-14.8,10.1-20.3c13.5-13.2,35.1-13.4,48.7-0.3
		c3.5,3.4,5.9,7,27.8,41.5c13.2,20.8,24.8,38.6,25.8,39.6c1.3,1.3,2.7,2.3,4.2,3.2c2.1,1.1,3.1,1.3,6.7,1.3c3.4,0,4.6-0.2,6.5-1.1
		c3.1-1.6,5.7-4.1,7.4-7.1l1.1-2.1l0.2-39l0.2-39l1.4-2.4c4.4-7.1,15.2-5.8,17.5,2.1c0.4,1.3,0.5,13.9,0.4,41l-0.1,39.2l-1.3,3.9
		c-4.2,12.8-15.3,22.1-28.6,24c-11,1.7-24.4-3.3-31.3-11.7c-1-1.2-12.7-19.3-26-40.1s-24.8-38.5-25.5-39.2c-1.3-1.2-2.8-2.1-4.4-2.9
		c-2.9-1.4-3.4-1.5-7.2-1.3c-5,0.3-7.2,1.3-10.6,5c-4.3,4.7-4.1,2.6-4.1,44.9c0,27.8-0.1,37.5-0.6,39c-1.1,3.8-5.3,6.7-9.6,6.7
		C305.3,166.9,303.9,166.5,302.7,165.9L302.7,165.9z M75.4,165.6c-14.8-2.4-28.2-10.4-37.3-22.3c-4.3-6-7.5-12.7-9.7-19.8l-1.5-4.9
		L26.9,68l-0.1-50.5l1.1-1.2c1.5-1.4,3.8-1.5,5.4-0.2l1.2,0.9l0.2,31l0.2,31l2.5-3.4c15.4-21.6,44.6-29.7,69.3-19
		c9.4,4.3,17.6,11,23.8,19.3c6.3,9,9.9,19.6,10.4,30.6c1.5,32.5-25,60-57.3,59.6C80.9,166.1,78.1,165.9,75.4,165.6L75.4,165.6z
		 M96.6,156.3c5.3-1.5,10.4-3.9,14.9-7c22.2-15.2,28-45.5,12.8-67.7c-1.9-2.8-4.2-5.5-6.6-7.8c-4-3.9-8.6-7.1-13.7-9.4
		c-7.2-3.3-10.6-4.1-20-4.1c-7,0-8.7,0.2-12.3,1.1C45.6,68.3,29.8,94.9,36.4,121c3.9,15.3,15.8,28.5,30.3,33.8
		c7.1,2.6,9.4,2.9,18.1,2.8C91.1,157.5,93.4,157.2,96.6,156.3L96.6,156.3z M195.3,165.6c-11.4-1.8-22.1-7-30.6-14.8
		c-7.8-7.5-13.5-16.9-16.4-27.4c-1.8-7.9-2.1-16.1-1-24.1c5.3-31.1,34.9-52,66-46.7c11,1.9,21.2,7,29.4,14.6
		c10.2,9.7,16.5,22.7,17.8,36.7c0.5,5.5,0.1,7.6-1.5,8.5c-0.6,0.3-13,0.5-33,0.5H194l-1.3-1.3c-1-0.7-1.4-1.9-1-3.1
		c0.6-3.7-1.1-3.5,31.5-3.5h29.1l-0.3-3.3c-0.8-5.4-2.5-10.6-5.1-15.4c-6.6-12.2-17.9-21.1-31.2-24.8c-3.6-1-5.4-1.1-12.1-1.1
		s-8.5,0.2-12.1,1.1c-17.3,4.6-30.8,18.2-35.4,35.5c-1.7,7.5-1.8,15.3-0.2,22.9c4.3,17.9,18.1,32,35.9,36.7
		c2.8,0.8,5.2,0.9,12.1,0.9c7.5,0,9.1-0.1,12.5-1.1c10.9-3.1,20.5-9.9,27.2-19.1c0.9-1.4,2-2.6,3.2-3.7c2-1,4.4-0.2,5.5,1.8
		c0.3,0.5,0.4,1.1,0.4,1.7c0,3.4-9.4,14.2-16.5,19.1C224.2,164.2,209.6,167.5,195.3,165.6L195.3,165.6z"/>
</g>
</svg>
