<?xml version="1.0" encoding="utf-8"?>
<!-- Generator: Adobe Illustrator 24.0.1, SVG Export Plug-In . SVG Version: 6.00 Build 0)  -->
<svg version="1.1" id="Calque_1" xmlns="http://www.w3.org/2000/svg" xmlns:xlink="http://www.w3.org/1999/xlink" x="0px" y="0px"
	 width="482px" height="251px" viewBox="0 0 482 251" enable-background="new 0 0 482 251" xml:space="preserve">
<title>Bein</title>
<rect x="1.9" y="1" fill="#FFFFFF" width="478.9" height="250.6"/>
<g>
	<path fill="#FFFFFF" d="M437.3,60h-10.9v-9h20.1v60h-9.3L437.3,60L437.3,60z"/>
</g>
<g>
	<g>
		<path fill-rule="evenodd" clip-rule="evenodd" fill="#552683" d="M44.3,46.7L44.3,46.7c1.4,0,2.6,1.2,2.6,2.6v27
			c4.9-6.8,12.9-11.2,21.9-11.2c14.9,0,27.1,12.1,27.1,27.1s-12.1,27.1-27.1,27.1c-14.9,0-27.1-12.1-27.1-27.1c0-0.7,0-1.3,0.1-2
			c-0.1-0.2-0.1-0.4-0.1-0.6V49.3C41.8,47.8,42.9,46.7,44.3,46.7L44.3,46.7z M242.5,65L242.5,65c2.8,0,5.1,2.3,5.1,5.1V100v1.9
			c0,0.5-0.1,1.1-0.2,1.6l-0.2,2.3c-3.2,15.4-22.8,16.4-29.7,7L196.7,80c-0.9-1.4-1.7-2.7-2.8-3.5c-3.9-2.7-8.9-1.5-10.1,4V114
			c0,2.8-2.3,5.1-5.1,5.1l0,0c-2.8,0-5.1-2.3-5.1-5.1V80.5c0-0.4,0.1-0.8,0.1-1.2l0,0c3.5-17.4,22.6-18.2,29.8-8.2l21.3,33.8
			c3.5,5.7,12.1,5.3,12.7-2.5l0,0c0-0.2,0-0.3,0-0.5V70.1C237.5,67.3,239.8,65,242.5,65L242.5,65z M163.4,65L163.4,65
			c2.8,0,5.1,2.3,5.1,5.1v44c0,2.8-2.3,5.1-5.1,5.1l0,0c-2.8,0-5.1-2.3-5.1-5.1v-44C158.3,67.3,160.6,65,163.4,65L163.4,65z
			 M123,89.3h25c-1.4-10.5-10-19-21.7-19s-22,9.8-22,21.9s9.9,21.9,22,21.9c8.2,0,15.4-4.5,19.1-11c1.1-1.9,5.5-0.2,4.5,2.1
			c-3.9,8.8-13.5,14.1-23.8,14.1c-14.9,0-27.1-12.1-27.1-27.1s11.5-27.1,27.1-27.1c15.6,0,27.3,12.1,27.1,27.1
			c0,1.4-1.3,2.6-2.9,2.6h-2.1h-25.3c-1.5,0-2.8-1.2-2.8-2.8l0,0C120.2,90.6,121.5,89.3,123,89.3L123,89.3z M46.6,92.2
			c0,12.3,9.9,21.9,22.2,21.9c12.3,0,21.8-9.7,21.8-22s-9.5-22.2-21.7-22.2C56.7,69.9,46.6,80.1,46.6,92.2L46.6,92.2z"/>
		<path fill-rule="evenodd" clip-rule="evenodd" fill="#552683" d="M7,23.1h273.5v146c0,32-26.2,58.2-58.2,58.2H7V23.1L7,23.1z
			 M11.5,29.2H276v108.3H11.5V29.2L11.5,29.2z M319.8,22.6H476v81.1c0,17.8-14.6,32.3-32.3,32.3H287.4V55
			C287.4,37.2,302,22.6,319.8,22.6L319.8,22.6z"/>
		<path fill-rule="evenodd" clip-rule="evenodd" fill="#FFFFFF" d="M226.3,163.6c13.6-0.4,15.4,8.8,15.4,12.8c0,5-5.1,3.3-5.1,0.8
			c0-0.6,0.1-2.3-0.2-3.4c-1.3-4.8-8.8-6.8-13.1-4.2c-3.9,2.3-6.9,8.3,1.2,11c2.1,0.7,4.2,0.2,7.9,0.8c5.7,0.9,10.1,4.2,10.1,10.2
			c0,17.1-27.8,16.9-27.7,0c0.1-4.2,5.1-3.2,5.1-0.8c0,0.6-0.1,2.2,0.2,3.2c1.3,4.6,8.5,6,13.1,3.9c3.8-1.7,7.2-8.9-0.9-11.3
			c-2.1-0.7-4.3-0.3-8-0.9C207.6,183.1,214.4,163.9,226.3,163.6L226.3,163.6z M186.8,164.4h22.6c1.4,0,2.5,1.2,2.5,2.5l0,0
			c0,1.4-1.2,2.5-2.5,2.5h-8.7v31.3c0,1.4-1.2,2.5-2.5,2.5l0,0c-1.4,0-2.5-1.2-2.5-2.5v-31.3h-8.7c-1.4,0-2.5-1.2-2.5-2.5l0,0
			C184.3,165.5,185.4,164.4,186.8,164.4L186.8,164.4z M167.3,191h-7.8l-0.1,9.7c0,1.1-1.1,2.4-2.5,2.5c-2,0.1-2.8-1.3-2.8-2.6v-24.4
			c0-6.9,5.7-12.7,12.7-12.7h2c6.9,0,12.7,5.7,12.7,12.7c0,6-3,11.7-8.6,13.9l5.3,8.7c1.9,3.2-2.1,5.8-4,3.1L167.3,191L167.3,191z
			 M159.5,185.8h8.2c4.8,0,8.8-3.9,8.8-8.8l0,0c0-4.6-3.8-8.4-8.4-8.4H168c-4.6,0-8.4,3.8-8.4,8.4L159.5,185.8L159.5,185.8z
			 M57.3,163.6c13.6-0.4,15.4,8.8,15.4,12.8c0,5-5.1,3.3-5.1,0.8c0-0.6,0.1-2.3-0.2-3.4c-1.3-4.8-8.8-6.8-13.1-4.2
			c-3.9,2.3-6.9,8.3,1.2,11c2.1,0.7,4.2,0.2,7.9,0.8c5.7,0.9,10.1,4.2,10.1,10.2c0,17.1-27.8,16.9-27.7,0c0.1-4.2,5.1-3.2,5.1-0.8
			c0,0.6-0.1,2.2,0.2,3.2c1.3,4.6,8.5,6,13.1,3.9c3.8-1.7,7.2-8.9-0.9-11.3c-2.1-0.7-4.3-0.3-8-0.9
			C38.5,183.1,45.2,163.9,57.3,163.6L57.3,163.6z M83.8,185.8H92c4.8,0,8.8-3.9,8.8-8.8l0,0c0-4.6-3.8-8.4-8.4-8.4h-0.1
			c-4.6,0-8.4,3.8-8.4,8.4L83.8,185.8L83.8,185.8z M92,191h-8.4l-0.1,9.7c0,1.1-1.1,2.4-2.5,2.5c-2,0.1-2.8-1.3-2.8-2.6v-24.4
			c0-6.9,5.7-12.7,12.7-12.7h2c6.9,0,12.7,5.7,12.7,12.7C105.6,183.7,100.8,191,92,191L92,191z M129.9,163.6
			c11.3,0,20.4,9.1,20.4,20.2c0,11.2-9.1,20.3-20.4,20.3s-20.4-9.1-20.4-20.3C109.4,172.7,118.6,163.6,129.9,163.6L129.9,163.6z
			 M129.9,168.6c8.5,0,15.3,6.8,15.3,15.2s-6.9,15.2-15.3,15.2s-15.3-6.8-15.3-15.2S121.4,168.6,129.9,168.6L129.9,168.6z"/>
		<path fill="#FFFFFF" d="M311.3,54.2h11.2v55.1h-11.2V54.2L311.3,54.2z M326.9,86.3V76.2h14.9V54.2H353v55.1h-11.2v-23H326.9
			L326.9,86.3z M360.4,54.2h21c13,0,23.5,10.6,23.5,23.5v8.3c0,13-10.6,23.5-23.5,23.5h-6.2v-9.9h5.2c7.8,0,14.1-6.4,14.1-14.1v-7.3
			c0-7.8-6.4-14.1-14.1-14.1h-8.7v30.7v4.8v9.9h-11.2L360.4,54.2L360.4,54.2z"/>
	</g>
	<g>
		<path fill="#FFFFFF" d="M426,103.2l16.5-18.4c7.4-8.3,10.3-11.7,10.3-18c0-5.5-2.4-8-9.5-8c-5.1,0-10.4,1.6-13.5,3.6l-3.5-7.7
			c4.7-3.1,9.4-4.7,17.7-4.7c11,0,16.6,4.5,16.6,15.8c0,9.1-3.2,14.2-11.5,23.4l-12.1,13.4h24.3v8.3h-35.2v-7.8H426z"/>
	</g>
</g>
</svg>
