<?xml version="1.0" encoding="utf-8"?>
<!-- Generator: Adobe Illustrator 24.0.1, SVG Export Plug-In . SVG Version: 6.00 Build 0)  -->
<svg version="1.1"
	 id="svg2" xmlns:cc="http://creativecommons.org/ns#" xmlns:dc="http://purl.org/dc/elements/1.1/" xmlns:inkscape="http://www.inkscape.org/namespaces/inkscape" xmlns:rdf="http://www.w3.org/1999/02/22-rdf-syntax-ns#" xmlns:sodipodi="http://sodipodi.sourceforge.net/DTD/sodipodi-0.dtd" xmlns:svg="http://www.w3.org/2000/svg"
	 xmlns="http://www.w3.org/2000/svg" xmlns:xlink="http://www.w3.org/1999/xlink" x="0px" y="0px" width="500px" height="256px"
	 viewBox="0 0 500 256" enable-background="new 0 0 500 256" xml:space="preserve">
<sodipodi:namedview  bordercolor="#666666" borderopacity="1" gridtolerance="10" guidetolerance="10" id="namedview8" inkscape:current-layer="layer1" inkscape:cx="455.64727" inkscape:cy="24.559252" inkscape:pageopacity="0" inkscape:pageshadow="2" inkscape:window-height="691" inkscape:window-maximized="1" inkscape:window-width="1280" inkscape:window-x="0" inkscape:window-y="1" inkscape:zoom="0.75645786" objecttolerance="10" pagecolor="#ffffff" showgrid="false">
	</sodipodi:namedview>
<g id="layer1" transform="translate(-332.74477,-279.91065)" inkscape:groupmode="layer" inkscape:label="Layer 1">
	<path id="path68644" inkscape:connector-curvature="0" d="M942.4,142.5h2.4H942.4"/>
	<path id="path68650" inkscape:connector-curvature="0" fill="#DE6A06" d="M944.8,141.6v0.2V141.6"/>
	<g id="g4387" transform="matrix(1.198838,0,0,1.1986115,-231.35435,-477.37824)">
		<g id="g4383">
			<rect id="rect4361" x="470.5" y="631.8" width="417.1" height="213.6"/>
			<rect id="rect4363" x="684.5" y="642.4" fill="#FFFFFF" width="192.3" height="192.2"/>
		</g>
		<g id="g4373">
			<path id="path68520" inkscape:connector-curvature="0" sodipodi:nodetypes="ccccccccccccccccccccccc" fill="#FFFFFF" d="
				M618.5,797.4c-0.2,1.4-0.9,2.5-0.9,2.5s-0.8,0.7-1.9,1.1c-17.5,7.1-36.9,4.7-36.9,4.7c-31.4-3.4-51.4-22.6-57.8-47.5
				c-9.5-37.2,9.3-63.6,13.9-69.2c11-13.2,28.3-22.6,45.2-24.8c21.6-3,37.5,2,44.1,4.2c0,0,7.2,2.3,12.6,6c2.7,1.8,3.1,2.5,3.1,2.5
				s0.2,0.4-0.6,3.2l-5.1,26.6c-0.2,1.1-0.9,1.7-0.9,1.7s-0.4,0.2-2.9-1.5c-16.3-11.5-35.4-10.2-35.4-10.2
				c-14.5,0.9-31.5,8.5-36.5,27.7c-4.5,17.1,0.2,31.3,10.3,39.8c6.9,6.1,17.6,9.1,28.9,8.6c12.3-0.9,22.1-5.8,21.4-5.4
				c0,0,0.5-0.2,1.1-0.4c2.6-1.3,3.1-1.1,3.1-1.1s0.6,0.6,0.2,2.2L618.5,797.4"/>
			<g id="g4365">
				<g id="g4353">
					
						<path id="path4346" inkscape:connector-curvature="0" sodipodi:nodetypes="cssccsscc" fill-rule="evenodd" clip-rule="evenodd" d="
						M780.3,728.9c-2.8-0.2-5.5-0.2-8.1-0.2c-38.1,0.8-43.9,24.5-45.2,35.1c-1.7,13.8,12,44.6,52.7,43.4h1.7
						c40.7,1.3,54.5-29.6,52.7-43.4c-1.3-10.6-7.1-34.3-45.2-35.1c-2.5-0.1-5.2,0-8.1,0.2H780.3z"/>
					
						<path id="path4351" inkscape:connector-curvature="0" sodipodi:nodetypes="cssccsscc" fill-rule="evenodd" clip-rule="evenodd" d="
						M780.9,735.1c2.5,0.2,4.9,0.2,7.2,0.2c34.1-0.7,39.2-22.7,40.4-32.6c1.6-12.8-10.8-41.4-47.1-40.3h-1.5
						c-36.3-1.2-48.7,27.5-47.1,40.3c1.2,9.8,6.3,31.9,40.4,32.6c2.3,0,4.7,0,7.2-0.2H780.9z"/>
				</g>
				<g id="g4357">
					<ellipse id="path4333" fill="#FFFFFF" cx="781" cy="702.2" rx="15.2" ry="14.6"/>
					<ellipse id="ellipse4335" fill="#FFFFFF" cx="781" cy="762.1" rx="16.5" ry="15.8"/>
				</g>
			</g>
		</g>
	</g>
</g>
</svg>
