<?xml version="1.0" encoding="utf-8"?>
<!-- Generator: Adobe Illustrator 24.0.1, SVG Export Plug-In . SVG Version: 6.00 Build 0)  -->
<svg version="1.1" id="Calque_2" xmlns="http://www.w3.org/2000/svg" xmlns:xlink="http://www.w3.org/1999/xlink" x="0px" y="0px"
	 width="500px" height="125px" viewBox="0 0 500 125" enable-background="new 0 0 500 125" xml:space="preserve">
<rect fill="#FFFFFF" width="500" height="125"/>
<g>
	<polyline id="polyline3" fill="#EA232A" points="30.5,25.5 25.1,37.9 33.2,37.9 6.2,100.9 55.2,100.9 60.4,88.6 37.5,88.6 
		64.6,25.5 30.5,25.5 	"/>
	<path id="path5" fill="#EA232A" d="M97,25.5H73.4L67.9,38h8.4c-1.7,4.3-3.9,9.7-6.9,16.4C86.2,50.4,94.8,37.4,97,25.5"/>
	<polyline id="polyline7" fill="#EA232A" points="135.9,38.2 159.6,38.2 164.8,25.5 142.6,25.5 145.3,19.5 130.4,19.5 127.7,25.5 
		107.8,25.5 102.6,38.1 110.7,38.1 83.9,100.9 132.6,100.9 138,88.5 114.2,88.5 123.4,67.1 147.2,67.1 152,55.8 128.3,55.8 
		135.9,38.2 	"/>
	<path id="path9" fill="#EA232A" d="M212.2,45.7L195,85.8l-3.9-6.3l-9.5,5.3l2.3,3.6c-8.2,0-6.8-6.8-4.8-10.7l14.9-34.8
		c1.7-3.9,5.4-5.7,8.9-5.8C208.7,36.7,214.3,40.5,212.2,45.7 M203.1,25.5c-24.9,0.2-35.4,17.6-41.1,29.8
		c-16.5,35,9.7,45.4,15.7,46.4c3.4,0.6,10.3,0.6,13.7,0l2.2,3.7h12.9l-4.4-6.7c9.6-0.6,21-13.8,26-24.3
		C233,64,247.6,26.3,203.1,25.5z"/>
	<path id="path11" fill="#EA232A" d="M301.3,25.5l-24.5,56.9c-4.3,8.4-23.3,7.6-17.9-3.1l23-53.8H249l-5.4,12.4h8.4l-15.6,36.7
		c-6.4,13.9,2.9,26.6,23.3,26.8c21.1,0.2,28.3-12.9,30.5-18.4l24.5-57.5H301.3"/>
	<polyline id="polyline13" fill="#EA232A" points="323.3,25.5 318.1,38 325.2,38 298.4,101.1 323,101.1 355.6,25.5 323.3,25.5 	"/>
	<path id="path15" fill="#EA232A" d="M401,52.6c-1.1,2.2-4.3,9.6-9.1,9.6h-10.2l10.5-24.2h7.3C405.8,37.9,402.1,50.4,401,52.6
		 M425,53.3c4-10.2,1.3-27.8-14.6-27.8h-45.7l-5.5,12.4h8.7l-26.7,63h24.6l11.1-26.2h24.5C412.9,74.7,421.1,63.3,425,53.3z"/>
	<polyline id="polyline17" fill="#EA232A" points="488.2,38.5 493.8,26.1 435.5,26.1 430,38.6 438.9,38.6 412.2,101.2 461.4,101.2 
		466.3,90 441.2,90 450.6,68 475.7,68 480.6,56.5 455.5,56.5 463.3,38.5 488.2,38.5 	"/>
</g>
</svg>
