<svg id="svg2" xmlns="http://www.w3.org/2000/svg" viewBox="0 0 485 259"><defs><style>.cls-1{fill:#fff;}.cls-2{fill:#0053a4;}.cls-3{fill:#e5003c;}</style></defs><title>Eurosport1</title><metadata><?xpacket begin="﻿" id="W5M0MpCehiHzreSzNTczkc9d"?>
<x:xmpmeta xmlns:x="adobe:ns:meta/" x:xmptk="Adobe XMP Core 5.6-c137 79.159768, 2016/08/11-13:24:42        ">
   <rdf:RDF xmlns:rdf="http://www.w3.org/1999/02/22-rdf-syntax-ns#">
      <rdf:Description rdf:about=""
            xmlns:dc="http://purl.org/dc/elements/1.1/">
         <dc:title>
            <rdf:Alt>
               <rdf:li xml:lang="x-default">Eurosport1</rdf:li>
            </rdf:Alt>
         </dc:title>
      </rdf:Description>
   </rdf:RDF>
</x:xmpmeta>
                                                                                                    
                                                                                                    
                                                                                                    
                                                                                                    
                                                                                                    
                                                                                                    
                                                                                                    
                                                                                                    
                                                                                                    
                                                                                                    
                                                                                                    
                                                                                                    
                                                                                                    
                                                                                                    
                                                                                                    
                                                                                                    
                                                                                                    
                                                                                                    
                                                                                                    
                                                                                                    
                           
<?xpacket end="w"?></metadata>
<g id="layer1"><path id="path11152" class="cls-1" d="M197.63,94.3H416l-20,71H177.64Z" transform="translate(0 0)"/><path id="path11154" class="cls-2" d="M20,94.3H201.35l-20,71H0Z" transform="translate(0 0)"/><path id="path11156" class="cls-2" d="M161.72,45.88h0a0,0,0,0,1,0,0V59.51h16.68a0,0,0,0,1,0,0h0l-16.7,7.67V80.86h0l-11.64-8.33-18.16,8.33v0a0,0,0,0,1,0,0l11.3-13.25-11.3-8.05h0s0,0,0,0h18.16l11.62-13.63" transform="translate(0 0)"/><path id="path11158" class="cls-2" d="M111.65,177h0v13.62h16.71l-16.71,7.67V212s0,0,0,0L100,203.64,81.86,212s0,0,0,0a0,0,0,0,1,0,0l11.3-13.25-11.31-8.05H100L111.65,177" transform="translate(0 0)"/><path id="path11160" class="cls-2" d="M142.13,211.44h0v13.62h16.7a0,0,0,0,1,0,0h0l-16.7,7.67v13.66h0l-11.62-8.33-18.16,8.33a0,0,0,0,1,0,0,0,0,0,0,1,0,0l11.3-13.25-11.31-8.05h0s0,0,0,0h18.16l11.62-13.63" transform="translate(0 0)"/><path id="path11162" class="cls-2" d="M196.55,224v13.62h16.7v0l-16.7,7.65V259s0,0,0,0l-11.64-8.32L166.75,259h0s0,0,0,0L178,245.71l-11.3-8v0s0,0,0,0h18.16L196.55,224" transform="translate(0 0)"/><path id="path11164" class="cls-2" d="M258.87,210.7s0,0,0,0h0v13.62h16.7a0,0,0,0,1,0,0h0L258.89,232v13.66h0l-11.64-8.32-18.13,8.32h0s0,0,0,0l11.27-13.25-11.28-8h0s0,0,0,0h18.13l11.64-13.62" transform="translate(0 0)"/><path id="path11166" class="cls-2" d="M319.33,177h0v13.62h16.71s0,0,0,0l-16.7,7.67V212s0,0,0,0l-11.62-8.33L289.55,212s0,0,0,0a0,0,0,0,1,0,0l11.3-13.25-11.31-8.05h18.18L319.33,177" transform="translate(0 0)"/><path id="path11168" class="cls-2" d="M220.16,13.78h0V27.42h16.67a0,0,0,0,1,0,0h0L220.18,35.1V48.76s0,0,0,0l-11.64-8.32-18.15,8.32s0,0,0,0,0,0,0,0l11.3-13.25-11.3-8,0,0s0,0,0,0h18.16l11.64-13.63" transform="translate(0 0)"/><path id="path11170" class="cls-2" d="M281.08,0h0V13.64h16.71a0,0,0,0,1,0,0l-16.7,7.67V35a0,0,0,0,1,0,0l-11.64-8.33L251.29,35h0v0l11.3-13.26-11.3-8a0,0,0,0,1,0,0h18.18L281.08,0" transform="translate(0 0)"/><path id="path11172" class="cls-2" d="M334.21,13.78h0s0,0,0,0V27.42h16.71L334.22,35.1V48.76s0,0,0,0l-11.62-8.32-18.16,8.32v0a0,0,0,0,0,0,0l11.3-13.25-11.3-8v0s0,0,0,0h18.16l11.62-13.63" transform="translate(0 0)"/><path id="path11174" class="cls-2" d="M368.81,45.88h0V59.51h16.7a0,0,0,0,1,0,0h0l-16.7,7.67V80.86h0l-11.64-8.33L339,80.86s0,0,0,0h0l11.3-13.25L339,59.53h0a0,0,0,0,1,0,0h18.16l11.64-13.63" transform="translate(0 0)"/><path id="path11176" class="cls-3" d="M336.84,112.48h7c5.61,0,5.43,3.27,4.34,7.14s-2.77,7.14-8.38,7.14h-7Zm12.7,43.76-3.09-22.12c6.17-2.46,9.18-7.76,11.09-14.51,2.66-9.4,1.61-16-10.87-16h-16.6l-14.92,52.69h10.1l5.86-20.71h5l2.61,20.64h10.79" transform="translate(0 0)"/><path id="path11178" class="cls-3" d="M255,126.75h-7l4-14.27h7c5.61,0,5.43,3.27,4.34,7.14s-2.77,7.14-8.38,7.14m6.9-23.12h-16.6l-14.92,52.69h10.08l5.88-20.71h6.5c12.48,0,17.26-6.59,19.91-16s1.63-16-10.85-16" transform="translate(0 0)"/><path id="path11180" class="cls-1" d="M159.64,118.4c1.66-5.83,4.43-6.62,8.44-6.62s6.34.78,4.68,6.62l-6.53,23.06c-1.66,5.83-4.43,6.62-8.44,6.62s-6.32-.78-4.68-6.62ZM143.2,141c-3.67,13,2.32,16,12.08,16s17.47-3,21.15-16l6.25-22.09c3.67-13-2.32-16-12.08-16s-17.47,3-21.15,16L143.2,141" transform="translate(0 0)"/><path id="path11182" class="cls-1" d="M14.26,156.24l14.91-52.61H56.71l-2.53,8.9H36.7l-3.42,12.09H46.6l-2.52,8.88H30.76l-3.92,13.84H45l-2.52,8.9Z" transform="translate(0 0)"/><path id="path11184" class="cls-1" d="M76.06,103.63,65.4,141.24c-1.42,5,.25,6.84,5.14,6.84s7.65-1.81,9.07-6.84l10.66-37.62h10.05L89.41,142.15C86.13,153.72,78.37,157,68,157s-16.21-3.24-12.92-14.82L66,103.63H76.06" transform="translate(0 0)"/><path id="path11186" class="cls-3" d="M224.37,117.45c-.28-5-2.1-6.25-5.6-6.25s-5.92,1.36-6.93,4.93c-2.25,7.95,19.32,11,14.66,27.46-2.55,9-10,13.37-20.55,13.37-8.16,0-13.47-3.63-13.23-14l10.51-2.1c-.64,6.34,2.61,7.77,5.6,7.77,3.49,0,6.62-1.51,7.73-5.45,2.81-9.9-18.89-12.52-14.73-27.24,2.56-9,9.1-13.07,19.53-13.07,9,0,13.15,4.5,12.79,11.93l-9.77,2.62" transform="translate(0 0)"/><path id="path11188" class="cls-3" d="M290.52,118.4c1.66-5.83,4.43-6.62,8.44-6.62s6.34.78,4.68,6.62l-6.53,23.06c-1.66,5.83-4.43,6.62-8.44,6.62s-6.34-.78-4.68-6.62ZM274.08,141c-3.67,13,2.32,16,12.08,16s17.48-3,21.15-16l6.25-22.09c3.67-13-2.32-16-12.08-16s-17.47,3-21.15,16L274.08,141" transform="translate(0 0)"/><path id="path11190" class="cls-3" d="M402.23,103.63l-2.52,8.9H388L375.6,156.24H365.55l12.39-43.72H366.2l2.52-8.9Z" transform="translate(0 0)"/><path id="path11192" class="cls-1" d="M118,112.48h7c5.61,0,5.43,3.27,4.34,7.14s-2.77,7.14-8.38,7.14h-7Zm12.7,43.76-3.09-22.12c6.17-2.46,9.18-7.76,11.09-14.51,2.66-9.4,1.63-16-10.85-16h-16.6L96.33,156.31h10.08l5.88-20.71h5l2.59,20.64H130.7" transform="translate(0 0)"/><path id="path11194" class="cls-3" d="M415.47,94.3H485l-20,71H395.48Z" transform="translate(0 0)"/></g><path class="cls-1" d="M436.76,101.51l-4.65,11.24H441L423.28,155.6h11.59l17.73-42.85,4.65-11.24H436.76Z" transform="translate(0 0)"/></svg>