<?xml version="1.0" encoding="UTF-8" standalone="no"?>
<svg xmlns:dc="http://purl.org/dc/elements/1.1/" xmlns:cc="http://creativecommons.org/ns#" xmlns:rdf="http://www.w3.org/1999/02/22-rdf-syntax-ns#" xmlns:svg="http://www.w3.org/2000/svg" xmlns="http://www.w3.org/2000/svg" xmlns:xlink="http://www.w3.org/1999/xlink" xmlns:sodipodi="http://sodipodi.sourceforge.net/DTD/sodipodi-0.dtd" xmlns:inkscape="http://www.inkscape.org/namespaces/inkscape" version="1.1" id="Layer_1" x="0px" y="0px" width="601" height="365" viewBox="0 0 601.00002 365" enable-background="new 0 0 1258.58 841.89" xml:space="preserve"><defs id="defs78">
	<linearGradient inkscape:collect="always" xlink:href="#SVGID_3_" id="linearGradient3119" gradientUnits="userSpaceOnUse" gradientTransform="matrix(0,7.9716,7.9716,0,-5786.8711,703.1121)" x1="0" y1="841.89008" x2="1" y2="841.89008"/>
		<defs id="defs9">
			<polygon id="SVGID_1_" points="944.681,711.316 947.245,701.822 904.023,701.822 901.46,711.316 "/>
		</defs>
		<clipPath id="SVGID_2_">
			<use xlink:href="#SVGID_1_" overflow="visible" id="use13" style="overflow:visible" x="0" y="0" width="1258.58" height="841.89001"/>
		</clipPath>
		
			<linearGradient id="SVGID_3_" gradientUnits="userSpaceOnUse" x1="0" y1="841.89008" x2="1" y2="841.89008" gradientTransform="matrix(0,7.9716,7.9716,0,-5786.8711,703.1121)">
			<stop offset="0" style="stop-color:#0087CD" id="stop16"/>
			<stop offset="1" style="stop-color:#0061AF" id="stop18"/>
		</linearGradient>
		
	<linearGradient inkscape:collect="always" xlink:href="#SVGID_3_" id="linearGradient3159" gradientUnits="userSpaceOnUse" gradientTransform="matrix(0,7.9716,7.9716,0,-5786.8711,703.1121)" x1="0" y1="841.89008" x2="1" y2="841.89008"/></defs>
<polygon style="fill:#ffffff" id="polygon5" points="951.28,687.862 947.229,701.823 904.024,701.823 908.074,687.862 " transform="matrix(7.1650833,0,0,7.1650833,-6215.0004,-4802.6667)"/><rect x="901.46002" y="701.82202" clip-path="url(#SVGID_2_)" width="45.784" height="9.4940004" id="rect20" style="fill:url(#linearGradient3159)" transform="matrix(7.1650833,0,0,7.1650833,-6215.0004,-4802.6667)"/><polygon style="fill:#ffffff" id="polygon22" points="939.653,709.272 941.267,703.295 944.319,706.261 " transform="matrix(7.1650833,0,0,7.1650833,-6215.0004,-4802.6667)"/><polyline points="896.089,679.313 896.09,679.313 896.09,679.316 896.09,681.996 899.477,681.996 899.479,681.996     899.477,682 896.09,683.505 896.09,686.19 896.089,686.194 893.727,684.553 890.048,686.19 890.047,686.19 890.047,686.185     892.335,683.582 890.047,682 890.042,681.996 890.047,681.996 893.727,681.996 896.089,679.313   " id="polyline26" style="fill:#0061af" transform="matrix(7.1650833,0,0,7.1650833,-6215.0004,-4802.6667)"/><path d="m 132.79051,249.45503 h 0.0358 v 19.15943 h 24.25381 v 0.0573 l -24.25381,10.76196 v 19.25974 h -0.0358 l -16.8881,-11.72207 -26.39617,11.72207 16.41521,-18.6937 -16.41521,-11.28501 c 0,-0.043 -0.0215,-0.043 -0.0215,-0.10031 h 0.0215 26.39617 l 16.8881,-19.15943" id="path28" inkscape:connector-curvature="0" style="fill:#0061af"/><polygon points="889.758,714.56 892.113,711.875 892.121,711.875 892.121,714.56 895.504,714.56 895.508,714.56 895.504,714.56 892.121,716.07 892.121,718.758 892.117,718.758 889.758,717.114 886.074,718.758 886.071,718.758 886.071,718.741 888.362,716.147 886.071,714.56 " id="polygon30" style="fill:#0061af" transform="matrix(7.1650833,0,0,7.1650833,-6215.0004,-4802.6667)"/><path d="m 256.13025,315.6819 0,0 v 19.21675 h 24.26814 c 0,0 0.0358,0 0.0358,0.043 h -0.0358 l -24.26814,10.8336 v 19.20243 c 0,0 0,0.0502 0,0 l -16.90243,-11.70775 -26.39617,11.70775 h -0.007 l 0.007,-0.0502 16.42954,-18.67937 -16.42954,-11.29934 h -0.007 c 0,-0.043 0,-0.043 0.007,-0.043 h 26.39617 l 16.90243,-19.22391" id="path32" inkscape:connector-curvature="0" style="fill:#0061af"/><path d="m 344.6262,302.46232 0,0 c 0.0287,0 0.0287,0.0358 0.0287,0.0358 v 19.22392 h 24.2753 0.0215 -0.0215 l -24.2753,10.81928 v 19.20958 c 0,0.0573 -0.0287,0.0573 -0.0287,0.0573 l -16.89527,-11.7794 -26.37467,11.7794 c -0.0287,0 -0.0287,0 -0.0287,-0.0573 v -0.043 l 16.42953,-18.64354 -16.42953,-11.34233 h -0.0143 0.0143 26.40333 l 16.89527,-19.25974" id="path34" inkscape:connector-curvature="0" style="fill:#0061af"/><polyline points="907.935,673.002 907.938,672.999 907.938,673.006 907.938,675.684 911.326,675.684     907.938,677.194 907.938,679.878 907.935,679.882 905.576,678.243 901.893,679.878 901.893,679.878 901.893,679.877     904.185,677.266 901.893,675.688 901.89,675.684 901.893,675.684 905.576,675.684 907.935,673.002   " id="polyline36" style="fill:#0061af" transform="matrix(7.1650833,0,0,7.1650833,-6215.0004,-4802.6667)"/><polyline points="920.294,670.288 920.298,670.288 920.298,670.292 920.298,672.973 923.684,672.973     923.688,672.973 923.684,672.975 920.298,674.483 920.298,677.167 920.294,677.171 917.935,675.533 914.254,677.167     914.251,677.167 914.251,677.167 916.544,674.557 914.251,672.975 914.251,672.973 917.935,672.973 920.294,670.288   " id="polyline38" style="fill:#0061af" transform="matrix(7.1650833,0,0,7.1650833,-6215.0004,-4802.6667)"/><polyline points="931.071,673.002 931.071,672.999 931.071,673.006 931.071,675.684 934.459,675.684     934.46,675.684 934.459,675.684 931.071,677.194 931.071,679.878 931.071,679.882 928.714,678.243 925.028,679.878     925.028,679.878 925.028,679.877 927.32,677.266 925.028,675.688 925.026,675.684 925.028,675.684 928.714,675.684     931.071,673.002   " id="polyline40" style="fill:#0061af" transform="matrix(7.1650833,0,0,7.1650833,-6215.0004,-4802.6667)"/><polyline points="938.085,679.313 938.087,679.313 938.087,679.316 938.087,681.996 941.474,681.996 941.474,682     938.087,683.505 938.087,686.19 938.085,686.194 935.729,684.553 932.044,686.19 932.043,686.19 932.043,686.185 934.332,683.582     932.043,682 932.038,681.996 932.043,681.996 935.729,681.996 938.085,679.313   " id="polyline42" style="fill:#0061af" transform="matrix(7.1650833,0,0,7.1650833,-6215.0004,-4802.6667)"/><polygon points="867.401,701.823 871.453,687.862 908.074,687.862 904.023,701.823 " id="polygon44" style="fill:#0061af" transform="matrix(7.1650833,0,0,7.1650833,-6215.0004,-4802.6667)"/><path d="m 507.85396,213.22837 -4.47818,-31.19677 c 8.94203,-3.44641 13.30556,-10.93392 16.07845,-20.44915 3.90497,-13.22675 2.37881,-22.54135 -15.77035,-22.54135 h -9.42925 -14.66692 L 457.899,213.29285 h 14.68125 l 8.51212,-29.17621 h 7.31555 l 3.79033,29.11173 h 15.65571 z M 489.41103,151.537 h 10.14576 c 8.1467,0 7.87443,4.62865 6.29811,10.04545 -1.57632,5.43113 -4.02678,10.07411 -12.17348,10.07411 h -10.11709 l 5.8467,-20.11956 z" id="path46" inkscape:connector-curvature="0" style="fill:#ed174c"/><path d="m 380.45161,139.04826 h -9.42925 -14.65976 l -21.69587,74.25176 H 349.305 l 8.54077,-29.17622 h 9.44358 c 18.12767,0 25.09213,-9.29311 28.95411,-22.54135 3.88347,-13.21958 2.37164,-22.53419 -15.79185,-22.53419 m -10.02395,32.61546 h -10.13859 l 5.8897,-20.12672 h 10.11709 c 8.1682,0 7.91026,4.62865 6.3411,10.04545 -1.61931,5.43113 -4.0626,10.08127 -12.2093,10.08127" id="path48" inkscape:connector-curvature="0" style="fill:#ed174c"/><path d="m 208.05254,191.69729 c -5.36664,18.25664 3.37476,22.52703 17.56879,22.52703 14.18686,0 25.35723,-4.27039 30.69521,-22.52703 l 9.0925,-31.13228 c 5.33082,-18.2638 -3.37476,-22.54136 -17.55446,-22.54136 -14.1797,0 -25.40022,4.27756 -30.72388,22.54136 l -9.07816,31.13228 z m 23.88123,-31.81297 c 2.42179,-8.21118 6.42708,-9.3361 12.25945,-9.3361 5.82522,0 9.22147,1.11775 6.82116,9.3361 l -9.5009,32.47216 c -2.37881,8.22552 -6.42708,9.32894 -12.24513,9.32894 -5.82521,0 -9.20713,-1.09626 -6.80682,-9.32894 l 9.47224,-32.47216 z" id="path50" inkscape:connector-curvature="0" style="fill:#ffffff"/><polygon points="876.338,695.572 873.64,695.572 872.843,698.294 876.536,698.294 876.023,700.046 870.294,700.046 873.314,689.695 878.898,689.695 878.387,691.444 874.844,691.444 874.147,693.824 876.851,693.824 " id="polygon52" style="fill:#ffffff" transform="matrix(7.1650833,0,0,7.1650833,-6215.0004,-4802.6667)"/><path d="m 110.49993,139.05543 -15.483741,53.01445 c -2.063544,7.07194 0.351089,9.60837 7.444521,9.60837 7.1006,0 11.13454,-2.53643 13.19808,-9.60837 l 15.47658,-53.01445 h 14.61677 l -15.83483,54.28983 c -4.77195,16.30057 -16.04979,20.87189 -31.103627,20.87189 -15.03951,0 -23.551629,-4.57132 -18.772518,-20.87189 l 15.841999,-54.28983 h 14.616766 z" id="path54" inkscape:connector-curvature="0" style="fill:#ffffff"/><path d="m 325.98265,158.55878 c -0.43707,-7.00028 -3.07382,-8.82738 -8.13237,-8.82738 -5.18752,0 -8.61243,1.93457 -10.06694,6.97163 -3.29594,11.18469 28.07279,15.46941 21.30896,38.69861 -3.73301,12.71802 -14.51646,18.81551 -29.84974,18.81551 -11.86538,0 -19.58934,-5.12303 -19.24542,-19.69681 l 15.27596,-2.98068 c -0.92429,8.94919 3.776,11.00557 8.10371,11.00557 5.10871,0 9.6442,-2.14236 11.25635,-7.6953 4.06976,-13.97191 -27.44944,-17.65477 -21.40211,-38.38335 3.70435,-12.72519 13.21958,-18.4286 28.34507,-18.4286 13.01179,0 19.11645,6.32677 18.61489,16.81646 l -14.20836,3.70434 z" id="path56" inkscape:connector-curvature="0" style="fill:#ed174c"/><path d="m 398.19952,191.69729 c -5.31649,18.25664 3.38909,22.52703 17.56879,22.52703 14.20836,0 25.39305,-4.27039 30.70955,-22.52703 l 9.09965,-31.13228 c 5.33082,-18.2638 -3.38192,-22.54136 -17.56162,-22.54136 -14.18686,0 -25.35723,4.27756 -30.72388,22.54136 l -9.09249,31.13228 z m 23.90989,-31.81297 c 2.39313,-8.21118 6.41991,-9.3361 12.24512,-9.3361 5.82522,0 9.19997,1.11775 6.79967,9.3361 l -9.48657,32.47216 c -2.39314,8.22552 -6.42708,9.32894 -12.24513,9.32894 -5.82521,0 -9.20713,-1.09626 -6.79966,-9.32894 l 9.48657,-32.47216 z" id="path58" inkscape:connector-curvature="0" style="fill:#ed174c"/><polygon points="942.171,689.695 948.968,689.695 948.455,691.444 946.075,691.444 943.565,700.046 941.528,700.046 944.037,691.444 941.656,691.444 " id="polygon60" style="fill:#ed174c" transform="matrix(7.1650833,0,0,7.1650833,-6215.0004,-4802.6667)"/><path d="m 189.88189,213.22837 -4.47818,-31.19677 c 8.97069,-3.44641 13.33422,-10.93392 16.09995,-20.44915 3.88347,-13.22675 2.37164,-22.54135 -15.78468,-22.54135 h -9.42925 -14.68126 l -21.67437,74.25175 h 14.65976 l 8.52645,-29.17621 h 7.31555 l 3.79033,29.11173 h 15.6557 z M 171.43897,151.537 h 10.14576 c 8.1467,0 7.87442,4.62865 6.29094,10.04545 -1.56915,5.43113 -4.00528,10.07411 -12.15198,10.07411 h -10.1386 l 5.85388,-20.11956 z" id="path62" inkscape:connector-curvature="0" style="fill:#ffffff"/><path d="m 272.25885,240.79244 h 24.97749 c 10.56849,0 11.13453,6.28378 9.56538,11.28501 -2.49345,7.91742 -8.1252,12.59622 -16.30056,12.59622 h -15.66288 l -4.17724,13.28406 h -10.0956 l 11.69341,-37.16529 z m 4.71463,17.12455 h 10.81928 c 3.13114,0 6.79966,-0.11464 8.37598,-5.10154 1.52616,-4.85076 -1.31838,-5.252 -4.17725,-5.252 h -11.7579 l -3.26011,10.35354 z" id="path64" inkscape:connector-curvature="0" style="fill:#ffffff"/><polygon points="912.678,703.894 911.371,708.047 914.528,708.047 914.206,709.08 909.637,709.08 911.269,703.894 " id="polygon66" style="fill:#ffffff" transform="matrix(7.1650833,0,0,7.1650833,-6215.0004,-4802.6667)"/><path d="m 367.9987,270.29826 h -17.06723 l -5.43113,7.64514 h -10.8766 l 28.02981,-37.15812 h 12.17347 L 379.47,277.9434 h -10.8766 l -0.5947,-7.64514 z m -1.76978,-21.49525 -10.46102,14.72424 h 11.65043 l -1.18941,-14.72424 z" id="path68" inkscape:connector-curvature="0" style="fill:#ffffff"/><polygon points="923.212,709.08 921.803,709.08 922.372,707.27 921.14,703.894 922.796,703.894 923.429,706.152 925.482,703.894 927.14,703.894 923.781,707.27 " id="polygon70" style="fill:#ffffff" transform="matrix(7.1650833,0,0,7.1650833,-6215.0004,-4802.6667)"/><polygon points="927.74,706.901 927.365,708.091 930.829,708.091 930.519,709.08 925.645,709.08 927.277,703.894 932.121,703.894 931.811,704.879 928.376,704.879 928.037,705.957 931.298,705.957 931.001,706.901 " id="polygon72" style="fill:#ffffff" transform="matrix(7.1650833,0,0,7.1650833,-6215.0004,-4802.6667)"/><path d="m 468.20955,240.79244 h 27.0052 c 10.30339,0 10.03828,6.28378 8.84171,10.09561 -1.41868,4.52116 -4.16291,7.43735 -8.84887,8.94202 l -0.0358,0.10748 c 4.21307,0.67351 3.12398,6.30527 1.9704,9.93797 -0.58037,1.82709 -1.79844,6.19779 -0.62336,8.07505 h -11.02707 c -0.40124,-1.71962 0.0287,-3.22429 1.26106,-7.13643 1.6408,-5.20185 -0.18629,-6.49873 -3.31744,-6.49873 h -12.53889 l -4.29905,13.63516 h -10.08844 l 11.70058,-37.15813 z m 4.91525,16.43671 h 13.37721 c 2.23551,0 5.22335,-1.24673 6.32677,-4.72896 1.16074,-3.69718 -1.44735,-4.63581 -3.89781,-4.63581 h -12.85416 l -2.95201,9.36477 z" id="path74" inkscape:connector-curvature="0" style="fill:#ffffff"/>
</svg>