<?xml version="1.0" encoding="utf-8"?>
<!-- Generator: Adobe Illustrator 24.0.1, SVG Export Plug-In . SVG Version: 6.00 Build 0)  -->
<svg version="1.0"
	 id="Layer_1" xmlns:cc="http://creativecommons.org/ns#" xmlns:dc="http://purl.org/dc/elements/1.1/" xmlns:inkscape="http://www.inkscape.org/namespaces/inkscape" xmlns:rdf="http://www.w3.org/1999/02/22-rdf-syntax-ns#" xmlns:sodipodi="http://sodipodi.sourceforge.net/DTD/sodipodi-0.dtd" xmlns:svg="http://www.w3.org/2000/svg"
	 xmlns="http://www.w3.org/2000/svg" xmlns:xlink="http://www.w3.org/1999/xlink" x="0px" y="0px" width="283.5px" height="32.9px"
	 viewBox="0 0 283.5 32.9" enable-background="new 0 0 283.5 32.9" xml:space="preserve">
<g>
	<polygon fill="#141B4D" points="28.2,32.3 17.5,25.3 1.1,32.3 10.8,20.9 0,13.8 16.8,13.8 28.2,0.5 28.2,13.8 44.4,13.8 28.2,20.8 
			"/>
	<path fill="#141B4D" d="M48.4,7c0.6,0,1-0.5,1-1V1.5c0-0.6-0.5-1-1-1H30.9V7H48.4z"/>
	<path fill="#141B4D" d="M48.4,32.4c0.6,0,1-0.5,1-1v-4.5c0-0.6-0.5-1-1-1H30.9v6.5H48.4z"/>
	<path fill="#141B4D" d="M282.4,0.5h-21.8c-0.6,0-1,0.5-1,1V6c0,0.6,0.5,1,1,1h7.6v24.4c0,0.6,0.5,1,1,1h4.5c0.6,0,1-0.5,1-1V7h7.6
		c0.6,0,1-0.5,1-1V1.5C283.5,0.9,283,0.5,282.4,0.5"/>
	<path fill="#141B4D" d="M195.6,7.6c-0.5-1.4-1.3-2.7-2.3-3.7s-2.2-1.9-3.7-2.5c-1.4-0.6-3.1-0.9-4.8-0.9h-11.9c-0.6,0-1,0.5-1,1
		v29.8c0,0.6,0.5,1,1,1h4.5c0.6,0,1-0.5,1-1v-7.6h6.3c1.8,0,3.4-0.3,4.8-0.9c1.4-0.6,2.6-1.4,3.6-2.5c1-1.1,1.8-2.3,2.3-3.6
		s0.8-3.1,0.8-4.6C196.3,10.5,196.1,9,195.6,7.6 M189.4,14.1c-0.2,0.6-0.6,1.2-1,1.6c-0.4,0.4-0.9,0.7-1.4,1
		c-0.6,0.3-1.6,0.4-3.5,0.4h-5V7h6.6c0.7,0,1.4,0.1,1.9,0.4c0.6,0.3,1.1,0.6,1.5,1c0.4,0.4,0.7,1,0.9,1.6c0.2,0.6,0.3,1.3,0.3,2.1
		C189.8,12.8,189.6,13.5,189.4,14.1"/>
	<path fill="#141B4D" d="M151,9.6c0,0.7,0.1,1.1,0.4,1.4c0.3,0.4,0.7,0.7,1.2,1c0.6,0.3,1.2,0.5,2,0.7c0.8,0.2,1.7,0.3,2.5,0.5
		c1.5,0.2,3,0.5,4.4,0.9c1.5,0.4,2.8,0.9,3.9,1.7c1.2,0.8,2.1,1.8,2.8,3c0.7,1.2,1,2.8,0.9,4.7c-0.1,1.8-0.5,3.4-1.4,4.6
		c-0.8,1.2-1.9,2.2-3.2,3c-1.3,0.7-2.5,1.3-4,1.6c-1.5,0.3-3.2,0.4-4.6,0.3c-3.6-0.2-9-2.2-11.7-5.9c-0.2-0.3-0.5-0.8,0.1-1.4
		c0.6-0.6,3.3-3.4,3.3-3.4c0.6-0.6,1.1-0.2,1.3,0.2c1.6,2.3,4.7,4,7.2,4.1c1.3,0.1,1.4,0,2.3-0.1c0.7-0.1,1.4-0.3,2-0.6
		c0.6-0.3,1-0.6,1.4-1.1c0.3-0.4,0.5-1.1,0.6-1.8c0.1-0.7-0.1-1.2-0.5-1.7c-0.3-0.5-0.8-0.9-1.4-1.2c-0.6-0.3-1.4-0.6-2.2-0.7
		c-0.9-0.2-1.8-0.3-2.6-0.4c-1.4-0.2-2.8-0.5-4.1-0.8c-1.4-0.4-2.6-1-3.7-1.7c-1.1-0.7-2-1.7-2.6-2.8c-0.7-1.2-1-2.5-0.9-4.2
		c0.1-1.7,0.5-3.2,1.3-4.4c0.8-1.2,1.7-2.2,2.9-3c1.2-0.8,2.5-1.3,4-1.6c2.9-0.6,5.7-0.5,8.6,0.4c3.1,1,5.5,3.3,6.6,5
		c0.2,0.3,0.4,0.8,0,1.3s-3.1,3.1-3.1,3.1c-0.6,0.6-1.2,0.4-1.5-0.1c-1.7-2.4-3.8-3.5-6.3-3.7C154.1,6.2,151.1,6.8,151,9.6"/>
	<path fill="#141B4D" d="M137.3,4.3c-1.5-1.4-3.2-2.5-5.2-3.2c-1.9-0.7-4-1.1-6.2-1.1c-2.1,0-4.2,0.4-6.2,1.1
		c-2,0.7-3.7,1.8-5.2,3.2s-2.7,3.2-3.6,5.2c-0.9,2-1.3,4.4-1.3,6.9c0,2.6,0.4,4.9,1.3,6.9c0.9,2,2.1,3.8,3.5,5.2
		c1.5,1.4,3.2,2.5,5.2,3.2c1.9,0.7,4,1.1,6.2,1.1c2.4,0,4.6-0.4,6.6-1.2c2-0.8,3.7-1.9,5.2-3.4c1.4-1.4,2.6-3.2,3.4-5.2
		c0.8-2,1.2-4.2,1.2-6.6c0-2.6-0.4-4.9-1.3-6.9C140,7.5,138.8,5.7,137.3,4.3 M134.7,20.9c-0.5,1.2-1.2,2.3-2.1,3.1
		c-0.9,0.8-1.9,1.5-3,1.9c-1.2,0.4-2.4,0.6-3.7,0.6c-1.3,0-2.6-0.2-3.8-0.6c-1.1-0.4-2.1-1-3-1.9c-0.8-0.8-1.5-1.9-2-3.1
		c-0.5-1.3-0.8-2.7-0.8-4.4s0.3-3.1,0.8-4.4c0.5-1.2,1.2-2.3,2-3.1c0.8-0.8,1.9-1.5,3-1.9c1.2-0.4,2.4-0.7,3.8-0.7
		c1.3,0,2.6,0.2,3.7,0.7c1.1,0.4,2.1,1.1,3,1.9c0.9,0.8,1.5,1.9,2,3.1c0.5,1.3,0.8,2.7,0.8,4.3C135.5,18.1,135.2,19.6,134.7,20.9"/>
	<path fill="#141B4D" d="M226.2,4.3c-1.5-1.4-3.2-2.5-5.2-3.2c-1.9-0.7-4-1.1-6.2-1.1c-2.1,0-4.2,0.4-6.2,1.1
		c-2,0.7-3.7,1.8-5.2,3.2c-1.5,1.4-2.7,3.2-3.6,5.2c-0.9,2-1.3,4.4-1.3,6.9c0,2.6,0.4,4.9,1.3,6.9c0.9,2,2.1,3.8,3.5,5.2
		c1.5,1.4,3.2,2.5,5.2,3.2c1.9,0.7,4,1.1,6.2,1.1c2.4,0,4.6-0.4,6.6-1.2c2-0.8,3.7-1.9,5.2-3.4c1.4-1.4,2.6-3.2,3.4-5.2
		c0.8-2,1.2-4.2,1.2-6.6c0-2.6-0.4-4.9-1.3-6.9C228.9,7.5,227.7,5.7,226.2,4.3 M223.6,20.9c-0.5,1.2-1.2,2.3-2.1,3.1
		c-0.9,0.8-1.9,1.5-3,1.9c-1.2,0.4-2.4,0.6-3.7,0.6c-1.3,0-2.6-0.2-3.8-0.6c-1.1-0.4-2.1-1-3-1.9c-0.8-0.8-1.5-1.9-2-3.1
		c-0.5-1.3-0.8-2.7-0.8-4.4s0.3-3.1,0.8-4.4c0.5-1.2,1.2-2.3,2-3.1c0.8-0.8,1.9-1.5,3-1.9c1.2-0.4,2.4-0.7,3.8-0.7
		c1.3,0,2.6,0.2,3.7,0.7c1.1,0.4,2.1,1.1,3,1.9c0.9,0.8,1.5,1.9,2,3.1c0.5,1.3,0.8,2.7,0.8,4.3C224.3,18.1,224.1,19.6,223.6,20.9"/>
	<path fill="#141B4D" d="M77.1,0.5h-4.5c-0.6,0-1,0.5-1,1v19.8c0,0.8-0.1,1.6-0.4,2.2c-0.3,0.6-0.7,1.1-1.1,1.5
		c-0.5,0.4-1.1,0.8-1.8,1c-0.7,0.2-1.9,0.4-2.7,0.4c-0.8,0-2.1-0.1-2.8-0.4c-0.7-0.2-1.3-0.6-1.8-1c-0.5-0.4-0.9-0.9-1.1-1.5
		c-0.3-0.6-0.4-1.4-0.4-2.2V1.5c0-0.6-0.5-1-1-1h-4.5c-0.6,0-1,0.5-1,1v19.9c0,1.8,0.3,3.5,1,4.9c0.7,1.4,1.6,2.6,2.8,3.6
		c1.2,1,2.5,1.7,4.1,2.2c1.5,0.5,3.1,0.7,4.9,0.7c1.7,0,3.3-0.3,4.8-0.7c1.5-0.5,2.9-1.3,4-2.2c1.1-1,2.1-2.2,2.7-3.6
		c0.7-1.4,1-3.1,1-4.9V1.5C78.1,0.9,77.6,0.5,77.1,0.5"/>
	<path fill="#141B4D" d="M108.6,30.6l-7.3-9c0,0,5.9-2.1,5.9-9.6c0-1.5-0.3-3-0.8-4.4c-0.5-1.4-1.3-2.7-2.3-3.7s-2.2-1.9-3.7-2.5
		c-1.4-0.6-3.1-0.9-4.8-0.9H83.8c-0.6,0-1,0.5-1,1v29.8c0,0.6,0.5,1,1,1h4.5c0.6,0,1-0.5,1-1V7h6.6c0.7,0,1.4,0.1,1.9,0.4
		c0.6,0.3,1.1,0.6,1.5,1c0.4,0.4,0.7,1,0.9,1.6c0.2,0.6,0.3,1.3,0.3,2.1s-0.1,1.4-0.4,2c-0.2,0.6-0.6,1.2-1,1.6
		c-0.4,0.4-0.9,0.7-1.4,1c-0.6,0.3-1.6,0.4-3.5,0.4h-2.8c-0.6,0-1,0.5-0.6,1.2l10.4,13.6c0.2,0.3,0.5,0.4,0.8,0.4h5.7
		C108.8,32.4,109.3,31.6,108.6,30.6"/>
	<path fill="#141B4D" d="M260,30.6l-7.3-9c0,0,5.9-2.1,5.9-9.6c0-1.5-0.3-3-0.8-4.4c-0.5-1.4-1.3-2.7-2.3-3.7s-2.2-1.9-3.7-2.5
		c-1.4-0.6-3.1-0.9-4.8-0.9h-11.8c-0.6,0-1,0.5-1,1v29.8c0,0.6,0.5,1,1,1h4.5c0.6,0,1-0.5,1-1V7h6.6c0.7,0,1.4,0.1,1.9,0.4
		c0.6,0.3,1.1,0.6,1.5,1c0.4,0.4,0.7,1,0.9,1.6c0.2,0.6,0.3,1.3,0.3,2.1s-0.1,1.4-0.4,2c-0.2,0.6-0.6,1.2-1,1.6
		c-0.4,0.4-0.9,0.7-1.4,1c-0.6,0.3-1.6,0.4-3.5,0.4H243c-0.6,0-1,0.5-0.6,1.2l10.4,13.6c0.2,0.3,0.5,0.4,0.8,0.4h5.7
		C260.2,32.4,260.8,31.6,260,30.6"/>
</g>
</svg>
