<?xml version="1.0" encoding="utf-8"?>
<!-- Generator: Adobe Illustrator 24.0.1, SVG Export Plug-In . SVG Version: 6.00 Build 0)  -->
<svg version="1.0"
	 id="svg6746" xmlns:cc="http://creativecommons.org/ns#" xmlns:dc="http://purl.org/dc/elements/1.1/" xmlns:rdf="http://www.w3.org/1999/02/22-rdf-syntax-ns#" xmlns:svg="http://www.w3.org/2000/svg"
	 xmlns="http://www.w3.org/2000/svg" xmlns:xlink="http://www.w3.org/1999/xlink" x="0px" y="0px" width="283.5px" height="53.4px"
	 viewBox="0 0 283.5 53.4" enable-background="new 0 0 283.5 53.4" xml:space="preserve">
<g id="layer1" transform="translate(-82.249009,-83.642204)">
	<g id="g6776" transform="matrix(3.2317023,0,0,3.2317023,-183.55528,-258.9884)">
		<path id="path6396" fill="#0082E6" d="M157.1,116.8c0,1.7-1.3,3-3,3s-3-1.3-3-3s1.3-3,3-3S157.1,115.2,157.1,116.8"/>
		<path id="path6400" fill="#1D1D1B" d="M166.3,111.8l2.9-3.5v-1.8h-9.6v2.7h5.2l-2.8,3.4v2c0.6-0.3,1.3-0.5,1.9-0.5
			c1.8,0,3.1,1.2,3.1,2.9c0,1.7-1.5,2.9-3,2.9c-1.2,0-2.3-0.7-2.9-1.6l-2.2,1.8c1.4,1.6,3.3,2.5,5.3,2.5c3.3,0,5.9-2.2,5.9-5.6
			C170,114.6,168.5,112.7,166.3,111.8"/>
		<path id="path6404" fill="#1D1D1B" d="M113.7,122.3v-11h2.8v0.9c0.8-0.7,1.9-1.1,3.1-1.1c1.5,0,2.9,0.7,3.8,1.8
			c0.7,0.9,1.1,2,1.1,3.8v5.6h-2.9v-5.8c0-1.1-0.2-1.7-0.7-2.1c-0.4-0.4-1-0.6-1.7-0.6c-1.2,0-2.3,0.8-2.7,1.4v7.1L113.7,122.3
			L113.7,122.3z"/>
		<path id="path6408" fill="#1D1D1B" d="M145.4,115.4c-0.1-1-1-1.9-2.2-1.9s-2.2,0.9-2.4,1.9H145.4z M148.1,120.6
			c-1.1,1.3-2.8,2-4.5,2c-3.3,0-5.8-2.3-5.8-5.7c0-3.1,2.1-5.7,5.3-5.7c3,0,5.2,2.6,5.2,5.6c0,0.3,0,0.6-0.1,0.8h-7.6
			c0.2,1.5,1.4,2.6,3,2.6c1.2,0,2.2-0.7,2.8-1.3L148.1,120.6z"/>
		<path id="path6412" fill="#1D1D1B" d="M108.4,115.2c-0.6-0.8-1.6-1.4-2.7-1.4c-1.7,0-2.8,1.4-2.8,3c0,1.7,1.2,3,2.9,3
			c1.1,0,2.1-0.5,2.6-1.4V115.2z M111.3,122.3h-2.8v-0.9c-0.9,0.8-1.9,1.1-3.1,1.1c-1.6,0-3.2-0.7-4.1-1.9c-0.9-1-1.4-2.4-1.4-3.8
			c0-3.2,2.4-5.7,5.4-5.7c1.2,0,2.4,0.4,3.2,1.1v-0.9h2.8V122.3z"/>
		<path id="path6416" fill="#1D1D1B" d="M137.2,120.1c-1.3,1.7-2.9,2.5-5,2.5c-3.4,0-5.9-2.5-5.9-5.7s2.6-5.7,5.9-5.7
			c1.9,0,3.6,0.9,4.6,2.2l-2.1,1.8c-0.6-0.8-1.5-1.3-2.5-1.3c-1.7,0-3,1.3-3,3s1.2,3,3,3c1.2,0,2.2-0.7,2.6-1.4L137.2,120.1z"/>
		<path id="path6420" fill="#1D1D1B" d="M99.5,113.9c-0.2-0.1-0.6-0.1-1.1-0.1c-1.3,0-2.3,0.9-2.7,1.6v6.9h-2.9v-11h2.8v1.1
			c0.7-0.8,1.9-1.3,3.2-1.3c0.4,0,0.7,0,1,0.1L99.5,113.9z"/>
		<path id="path6424" fill="#1D1D1B" d="M91,108.7c-0.2-0.1-0.6-0.1-0.9-0.1c-0.7,0-1.3,0.2-1.7,0.6c-0.2,0.3-0.4,0.7-0.4,1.7v0.3
			h3.4v2.5H88v8.5h-2.9v-8.5h-2.8v-2.5h2.8v-0.5c0-1.8,0.4-2.8,1.2-3.6c0.8-0.7,1.9-1.3,3.4-1.3c0.6,0,1.1,0,1.7,0.2L91,108.7z"/>
	</g>
</g>
</svg>
