<?xml version="1.0" encoding="utf-8"?>
<!-- Generator: Adobe Illustrator 24.0.1, SVG Export Plug-In . SVG Version: 6.00 Build 0)  -->
<svg version="1.0" id="Livello_1" xmlns="http://www.w3.org/2000/svg" xmlns:xlink="http://www.w3.org/1999/xlink" x="0px" y="0px"
	 width="283.5px" height="49px" viewBox="0 0 283.5 49" enable-background="new 0 0 283.5 49" xml:space="preserve">
<g>
	<path fill="#1D1D1B" d="M18.3,9.6c1.1-1.3,2.7-1.9,4.9-1.9c0.8,0,1.9,0.1,2.6,0.3l1.4-7.4C25.4,0.1,23.7,0,22,0
		c-4.4,0-7.8,1.6-10.1,3.8S8.4,9.2,8.4,14.4v1.3H0v7.4h8.4v25.1h8.7V23.1h10.1v-7.4H17.1v-1C17.1,11.7,17.6,10.5,18.3,9.6z"/>
	<path fill="#1D1D1B" d="M39.6,19v-3.3h-8.4v32.5h8.7V27.8c1.1-1.9,4.1-4.7,7.9-4.7c1.3,0,2.5,0.1,3.1,0.3l1-8.1
		c-0.9-0.1-1.7-0.3-3-0.3C45.1,15.1,41.5,16.6,39.6,19z"/>
	<path fill="#1D1D1B" d="M77.8,18.4c-2.5-2.1-5.8-3.3-9.5-3.3c-8.9,0-16,7.4-16,17c0,4.4,1.6,8.5,4.2,11.4c2.9,3.4,7.4,5.5,12.3,5.5
		c3.3,0,6.4-1,9.1-3.3v2.6h8.4V15.8h-8.4L77.8,18.4L77.8,18.4z M77.5,36.9c-1.7,2.4-4.6,4-7.8,4c-4.9,0-8.6-3.8-8.6-8.9
		c0-4.7,3.3-8.9,8.4-8.9c3.4,0,6.2,1.6,8.1,4L77.5,36.9L77.5,36.9z"/>
	<path fill="#1D1D1B" d="M110.7,15.1c-3.6,0-6.7,1.3-9.2,3.3v-2.6h-8.4v32.5h8.7V27.2c1.2-1.7,4.2-4,7.9-4c2,0,3.8,0.7,4.9,1.8
		c1.2,1.2,1.9,2.9,1.9,6.1v17.2h8.7V31.7c0-5.6-1.2-8.9-3.4-11.4C119.3,17.1,115.2,15.1,110.7,15.1z"/>
	<path fill="#1D1D1B" d="M147.9,40.9c-5.3,0-9-3.8-9-8.9c0-5,3.8-8.9,8.8-8.9c3.1,0,5.8,1.6,7.5,3.9l6.2-5.4
		c-3-3.9-8.1-6.5-13.7-6.5c-9.9,0-17.5,7.5-17.5,17c0,9.4,7.4,16.9,17.4,16.9c6.1,0,10.9-2.2,14.8-7.3l-6.7-5
		C154.3,38.8,151.5,40.9,147.9,40.9z"/>
	<path fill="#1D1D1B" d="M180,15.1c-9.7,0-15.8,7.9-15.8,17c0,10.2,7.3,16.9,17,16.9c5,0,10.2-2.1,13.3-5.8l-5-5
		c-1.5,1.7-4.5,3.8-8.2,3.8c-4.6,0-8.3-3.1-8.8-7.7H195c0.1-0.7,0.2-1.6,0.2-2.5C195.4,22.7,189,15.1,180,15.1z M173,27.8
		c0.4-3,3.4-5.7,7-5.7s6.2,2.8,6.4,5.7H173z"/>
	<path fill="#1D1D1B" d="M212,23.1c-4.9,0-8.9,4-8.9,8.9s4,8.9,8.9,8.9s8.9-4,8.9-8.9S216.9,23.1,212,23.1z"/>
	<path fill="#1D1D1B" d="M274.4,15.8l-8.9,19.9l-8.9-19.9h-16.1V6.7h-8.7v9.1h-8.6v7.4h8.6v11.4c0,4.6,0.7,7.5,2.4,9.7
		c2.2,3,6,4.7,11.3,4.7c1.7,0,4.3-0.3,5.4-0.7l-1.3-7.4c-0.6,0.1-2.3,0.3-3.6,0.3c-2.1,0-3.6-0.6-4.4-1.6c-0.7-0.9-1.1-2.1-1.1-4.1
		V23.1h10.4l11.6,25.1h6l15-32.5L274.4,15.8L274.4,15.8z"/>
</g>
</svg>
