<?xml version="1.0" encoding="utf-8"?>
<!-- Generator: Adobe Illustrator 24.0.1, SVG Export Plug-In . SVG Version: 6.00 Build 0)  -->
<svg version="1.1" id="logo-m6-clair" xmlns="http://www.w3.org/2000/svg" xmlns:xlink="http://www.w3.org/1999/xlink" x="0px"
	 y="0px" width="763.3px" height="572.5px" viewBox="0 0 763.3 572.5" enable-background="new 0 0 763.3 572.5"
	 xml:space="preserve">
<polygon fill="#D2D2D2" points="0,572.5 95.4,0 381.7,286.2 667.9,0 763.3,572.5 572.5,572.5 545.2,408.9 381.7,572.5 218.1,408.9 
	190.8,572.5 "/>
<path id="_6" fill="#E61E1E" d="M388.2,114.6c26.9-46.2,53.8-89,71.9-114.5H340.3c-50,70.1-109.6,171-126.1,242.1
	c-3.9,14.5-5.8,29.4-5.8,44.4c0,95,77.9,172.3,173.7,172.3s173.7-77.3,173.7-172.3C555.8,194.5,480.8,117.8,388.2,114.6z
	 M457.4,286.6c0.1,41.7-33.6,75.7-75.3,75.8s-75.7-33.6-75.8-75.3c-0.1-41.7,33.6-75.7,75.3-75.8c0.1,0,0.2,0,0.2,0
	C423.5,211.3,457.3,245,457.4,286.6z"/>
</svg>
