<?xml version="1.0" encoding="utf-8"?>
<!-- Generator: Adobe Illustrator 24.0.1, SVG Export Plug-In . SVG Version: 6.00 Build 0)  -->
<svg version="1.0"
	 id="svg2" xmlns:cc="http://creativecommons.org/ns#" xmlns:dc="http://purl.org/dc/elements/1.1/" xmlns:inkscape="http://www.inkscape.org/namespaces/inkscape" xmlns:rdf="http://www.w3.org/1999/02/22-rdf-syntax-ns#" xmlns:sodipodi="http://sodipodi.sourceforge.net/DTD/sodipodi-0.dtd" xmlns:svg="http://www.w3.org/2000/svg"
	 xmlns="http://www.w3.org/2000/svg" xmlns:xlink="http://www.w3.org/1999/xlink" x="0px" y="0px" width="283.5px" height="62.1px"
	 viewBox="0 0 283.5 62.1" enable-background="new 0 0 283.5 62.1" xml:space="preserve">
<sodipodi:namedview  bordercolor="#666666" borderopacity="1" gridtolerance="10" guidetolerance="10" id="namedview4" inkscape:current-layer="g10" inkscape:cx="787.82917" inkscape:cy="-127.0058" inkscape:pageopacity="0" inkscape:pageshadow="2" inkscape:window-height="691" inkscape:window-maximized="1" inkscape:window-width="1280" inkscape:window-x="0" inkscape:window-y="1" inkscape:zoom="0.18027472" objecttolerance="10" pagecolor="#ffffff" showgrid="false">
	</sodipodi:namedview>
<g id="g10" transform="matrix(1.25,0,0,-1.25,-17.7165,280.71651)" inkscape:groupmode="layer" inkscape:label="Logo BFM Sport">
	<g id="g4759" transform="matrix(0.78317924,0,0,0.78317924,-35.157116,-6.5686254)">
		<g id="g4890" transform="matrix(0.63871252,0,0,0.63808573,186.28004,-92.897276)">
			<path id="path2388" inkscape:connector-curvature="0" fill="#DF0023" d="M-141.3,572.2c-0.1-6.7-5.5-7-5.5-7h-4.8l1.3,14.8h3.7
				C-144.9,580.1-141.2,578.6-141.3,572.2 M-124.8,576c0,15.8-11.6,15.8-12.9,15.8c-0.9,0-27,0.1-27,0.1l-6.6-56.6h17.4l1,17.4
				c0,0,0.3,2.3,2,2.3c1.4,0,2.1-1.5,2.1-1.5l4-18.1h16.5l-6.1,22C-134.4,557.3-124.8,560.7-124.8,576"/>
			<path id="path2390" inkscape:connector-curvature="0" fill="#DF0023" d="M-114,591.3h14l8.3-27.2l13.8,27.1h14.8l-5.3-55.9h-15.1
				l1.5,21.3l-9.9-21.3H-97l-6.5,19.9l-2.1-19.9h-14.9L-114,591.3L-114,591.3z"/>
			<path id="path2392" inkscape:connector-curvature="0" fill="#DF0023" d="M-22,571.3h2.7l7,11c0,0,0.3,1.7-1.4,3.1
				c-1.5,1.8-5.7,7.8-17.1,7.8s-24.1-9.6-26.5-26.4c-2.6-14.7,2.4-29,15.7-32.5c14-3.3,23.9,5.8,24.9,9.5c0.8,1.5,0.8,1.8,0,2.2
				c-0.5,1-4.4,9-4.4,9h-2.8c0,0-0.6,0-1.4-0.9c-0.7-0.7-3.3-3.4-4.8-3.8c-2-1.7-12.4-1.5-11.8,11.8C-40.7,577-30.3,577-30.3,577
				S-26.7,577.9-22,571.3"/>
		</g>
		<g id="g4714">
			<g id="g4707">
				<path id="path138" inkscape:connector-curvature="0" fill="#152978" d="M238,270.2h4.9l1.6,1.1l1.6,3.6l-0.6,1.1h-4.9L238,270.2
					L238,270.2z M244.7,262.5h-10.1l-2.3-5.2h2.1l-3.4-7.7h-14.1l3.4,7.7h2.1l8.3,18.6h-2.1l3.4,7.7h22.1l3.3-5.4l-4.6-10.2
					L244.7,262.5L244.7,262.5z"/>
				<path id="path140" inkscape:connector-curvature="0" fill="#152978" d="M276.5,274.8l-0.7,1.1h-5.1l-1.7-1.1l-7.3-16.4l0.7-1.1
					h5.1l1.7,1.1L276.5,274.8z M260.7,278.1l8.2,5.4h15.7l3.3-5.4L277.6,255l-8.1-5.4h-15.7l-3.3,5.4L260.7,278.1z"/>
				<path id="path142" inkscape:connector-curvature="0" fill="#152978" d="M298.8,271h4.9l1.6,1.1l1.2,2.7l-0.6,1.1H301L298.8,271
					L298.8,271z M292.7,257.3h2.1l-3.4-7.7h-14.1l3.4,7.7h2.1l8.3,18.6H289l3.4,7.7h22.1l3.2-5.4l-3.9-8.7l-3.3-2.2l1.4-2.2
					l-3.4-7.7h2.2l-3.4-7.7h-12l5.6,12.6l-0.6,1.1h-4.9L292.7,257.3L292.7,257.3z"/>
				<path id="path144" inkscape:connector-curvature="0" fill="#152978" d="M348.2,273.8h-8l0.9,2l-2.2,0.1l-8.3-18.6h2.2l-3.4-7.7
					h-14.2l3.4,7.7h2.1l8.3,18.6h-2.1l-0.9-2.1h-8l4.3,9.7h30.2L348.2,273.8L348.2,273.8z"/>
				<path id="path146" inkscape:connector-curvature="0" fill="#152978" d="M202.9,260.1l-14.4-0.1l-3.6,9l7.8,16.8l12.1,9.2
					l21.5,0.2l3.5-9.1l-5.2-11.2l-13.4-0.1l2.7,5.7l-0.7,1.8l-7.2-0.1l-2.4-1.9l-2.7-5.7l0.8-1.8L216,273l3.5-9.1l-7.7-16.5l-12-9.1
					l-21.5-0.2l-3.5,9l5.1,10.9l13.4,0.1l-2.5-5.4l0.7-1.8l7.2,0.1l2.4,1.8l2.6,5.5L202.9,260.1L202.9,260.1z"/>
			</g>
		</g>
		<path id="path4926" inkscape:connector-curvature="0" fill-rule="evenodd" clip-rule="evenodd" fill="#0C2173" d="M64.9,240.7
			l-1.9-8.9h275.3l3.2,8.9H205.8l-5.4-4.1l-23.2-0.2l-1.7,4.3H64.9z"/>
	</g>
</g>
</svg>
