<?xml version="1.0" encoding="utf-8"?>
<!-- Generator: Adobe Illustrator 21.1.0, SVG Export Plug-In . SVG Version: 6.00 Build 0)  -->
<!DOCTYPE svg PUBLIC "-//W3C//DTD SVG 1.1//EN" "http://www.w3.org/Graphics/SVG/1.1/DTD/svg11.dtd" [
	<!ENTITY ns_extend "http://ns.adobe.com/Extensibility/1.0/">
	<!ENTITY ns_ai "http://ns.adobe.com/AdobeIllustrator/10.0/">
	<!ENTITY ns_graphs "http://ns.adobe.com/Graphs/1.0/">
	<!ENTITY ns_vars "http://ns.adobe.com/Variables/1.0/">
	<!ENTITY ns_imrep "http://ns.adobe.com/ImageReplacement/1.0/">
	<!ENTITY ns_sfw "http://ns.adobe.com/SaveForWeb/1.0/">
	<!ENTITY ns_custom "http://ns.adobe.com/GenericCustomNamespace/1.0/">
	<!ENTITY ns_adobe_xpath "http://ns.adobe.com/XPath/1.0/">
	<!ENTITY st0 "fill:#00866A;">
]>
<svg version="1.1"
	 id="svg2" xmlns:x="&ns_extend;" xmlns:i="&ns_ai;" xmlns:graph="&ns_graphs;" inkscape:output_extension="org.inkscape.output.svg.inkscape" inkscape:version="0.45.1" sodipodi:version="0.32" xmlns:cc="http://web.resource.org/cc/" xmlns:dc="http://purl.org/dc/elements/1.1/" xmlns:inkscape="http://www.inkscape.org/namespaces/inkscape" xmlns:rdf="http://www.w3.org/1999/02/22-rdf-syntax-ns#" xmlns:sodipodi="http://sodipodi.sourceforge.net/DTD/sodipodi-0.dtd" xmlns:svg="http://www.w3.org/2000/svg"
	 xmlns="http://www.w3.org/2000/svg" xmlns:xlink="http://www.w3.org/1999/xlink" x="0px" y="0px" width="500px" height="82.7px"
	 viewBox="0 0 500 82.7" style="enable-background:new 0 0 500 82.7;" xml:space="preserve">
<metadata>
	<sfw  xmlns="&ns_sfw;">
		<slices></slices>
		<sliceSourceBounds  bottomLeftOrigin="true" height="79.5" width="499.9" x="0.7" y="1.2"></sliceSourceBounds>
	</sfw>
</metadata>
<title>sudouest</title>
<g>
	<path style="&st0;" d="M44,27.9H24.9V17.2h-4v15.9l11.8,1.1l12.4,11.2v25L33.6,81.5H12.3L0.7,70.4V55.7h20.2v10.7h4V50.1l-11.2-1
		L1.2,38V13.3L12.3,2.2h20.5L44,13.3V27.9z"/>
	<path style="&st0;" d="M92.9,70.4L81.3,81.5h-21L48.7,70.4V2.2h20.2v64.3h3.8V2.2h20.2L92.9,70.4z"/>
	<path style="&st0;" d="M141.3,70.4l-11.5,11.1H96.7V2.2h32.4l12.2,11.2V70.4z M121,17.2h-4.1v49.2h4.1V17.2z"/>
	<path style="&st0;" d="M212.5,70.4L201,81.5h-21.2L168,70.4V13.3l11.7-11.2h20.4l12.4,11.2L212.5,70.4L212.5,70.4z M192.2,17.2h-4
		v49.2h4V17.2z"/>
	<path style="&st0;" d="M260.6,70.4L249,81.5h-21l-11.6-11.1V2.2h20.2v64.3h3.8V2.2h20.2V70.4z"/>
	<path style="&st0;" d="M297.7,17.2h-13.5V32h11.3v15h-11.3v19.4h14.3v15h-34V2.2h33.2V17.2z"/>
	<path style="&st0;" d="M345.6,27.9h-19.1V17.2h-4v15.9l11.8,1.1l12.4,11.2v25l-11.5,11.1h-21.3l-11.6-11.1V55.7h20.2v10.7h4V50.1
		l-11.2-1L302.7,38V13.3l11.1-11.2h20.5l11.3,11.2V27.9z"/>
	<path style="&st0;" d="M388.7,17.2h-9.2v64.3h-20.2V17.2h-9.7v-15h39.2L388.7,17.2L388.7,17.2z"/>
	<path style="&st0;" d="M420.6,24.8h10.7v-2.7C431.3,9.2,436,2,452.7,2c3.7,0,5.7,0.1,7.5,0.2V15h-5.4c-6.4,0-7.9,2.5-7.9,7v2.8
		h13.3v13.4h-13.3v43.2h-15.6V38.2h-10.7V24.8z"/>
	<path style="&st0;" d="M468.7,25.7l12.2-0.9l1.6,6.2c2.4-3.6,9.3-6.5,18.1-6.8v15c-13.3,0.1-16.2,5.3-16.2,14.2v28h-15.7V25.7z"/>
	<circle style="&st0;" cx="405.5" cy="73.7" r="7.8"/>
</g>
</svg>
