<?xml version="1.0" encoding="utf-8"?>
<!-- Generator: Adobe Illustrator 24.2.1, SVG Export Plug-In . SVG Version: 6.00 Build 0)  -->
<svg version="1.1"
	 id="svg2" xmlns:cc="http://web.resource.org/cc/" xmlns:dc="http://purl.org/dc/elements/1.1/" xmlns:inkscape="http://www.inkscape.org/namespaces/inkscape" xmlns:rdf="http://www.w3.org/1999/02/22-rdf-syntax-ns#" xmlns:sodipodi="http://sodipodi.sourceforge.net/DTD/sodipodi-0.dtd" xmlns:svg="http://www.w3.org/2000/svg"
	 xmlns="http://www.w3.org/2000/svg" xmlns:xlink="http://www.w3.org/1999/xlink" x="0px" y="0px" width="2000px"
	 height="804.72101px" viewBox="0 0 2000 804.72101" enable-background="new 0 0 2000 804.72101" xml:space="preserve">
<rect fill="#FFFFFF" width="2000" height="804.72101"/>
<g id="layer1" transform="translate(-332.74477,-410.91065)" inkscape:groupmode="layer" inkscape:label="Layer 1">
	<path id="path68644" d="M1692.71326,482.31873h2.38196H1692.71326"/>
	<path id="path68650" fill="#DE6A06" d="M1695.09521,481.42572v0.24802V481.42572"/>
</g>
<g id="Capa_2">
	<g id="logo">
		<polygon fill="#CECDC7" points="1017.71118,160.96312 1017.71118,323.26489 1120.04236,323.26489 1120.04236,284.4342 
			1057.69824,284.4342 1057.69824,260.92072 1100.0387,260.92072 1100.0387,223.287 1057.69824,223.287 1057.69824,199.77353 
			1120.04236,199.77353 1120.04236,160.96312 		"/>
		<polygon fill="#CECDC7" points="886.0033,199.77353 922.46033,199.77353 922.46033,323.26489 962.44739,323.26489 
			962.44739,199.77353 998.90442,199.77353 998.90442,160.96312 886.0033,160.96312 		"/>
		<polygon fill="#CECDC7" points="1178.81604,160.96312 1138.82886,160.96312 1138.82886,323.26489 1218.80298,323.26489 
			1218.80298,284.4342 1178.81604,284.4342 		"/>
		<polygon fill="#CECDC7" points="1236.91992,160.96312 1236.91992,323.26489 1339.23096,323.26489 1339.23096,284.4342 
			1276.88672,284.4342 1276.88672,260.92072 1319.22717,260.92072 1319.22717,223.287 1276.88672,223.287 1276.88672,199.77353 
			1339.23096,199.77353 1339.23096,160.96312 		"/>
		<path fill="#CC9F53" d="M1398.02478,199.77353V223.287h57.90112l-20.55151,37.65401h-37.34961v62.34415h-39.98718V160.9834
			h102.31104v38.79013H1398.02478z"/>
		<path fill="#CC9F53" d="M1465.27869,241.87054c-0.01111-46.90245,38.00195-84.93333,84.90442-84.94434
			c46.90247-0.01103,84.93335,38.002,84.94434,84.90445s-38.00195,84.93332-84.90454,84.94434
			c-0.08777,0.00003-0.17554-0.00009-0.26331-0.00034c-46.37415,0.39505-84.28809-36.87842-84.68323-83.25256
			C1465.27185,242.97157,1465.27246,242.42105,1465.27869,241.87054z M1595.12012,242.33717
			c0-24.69016-20.45007-45.87054-44.91711-45.87054c-24.93359,0-44.93738,21.18039-44.93738,45.87054
			c-0.52783,24.81258,19.15881,45.35506,43.97144,45.88295c24.8125,0.52786,45.35498-19.15875,45.88293-43.97134
			c0.01343-0.63713,0.01343-1.27448,0-1.91161H1595.12012z"/>
		<path fill="#CC9F53" d="M1649.67371,241.87054c-0.01111-46.90245,38.00195-84.93333,84.90442-84.94434
			c46.90247-0.01103,84.93335,38.002,84.94421,84.90445c0.01111,46.90244-38.00195,84.93332-84.90442,84.94434
			c-0.08777,0.00003-0.17554-0.00009-0.26331-0.00034c-46.37415,0.39505-84.28809-36.87842-84.68323-83.25256
			C1649.66687,242.97157,1649.66748,242.42105,1649.67371,241.87054z M1779.51501,242.33717
			c0-24.69016-20.47034-45.87054-44.91699-45.87054c-24.93359,0-44.93738,21.18039-44.93738,45.87054
			c-0.52783,24.81258,19.15881,45.35506,43.97144,45.88295c24.81238,0.52786,45.35498-19.15875,45.88281-43.97134
			c0.01355-0.63713,0.01355-1.27448,0-1.91161H1779.51501z"/>
		<path fill="#CC9F53" d="M1937.33337,199.77353h-36.51794v123.49136h-39.92627V199.77353h-36.51782v-38.81041h112.90125
			L1937.33337,199.77353z"/>
		<polygon fill="#CECDC7" points="1230.89453,566.71753 1230.89453,729.01935 1270.88171,729.01935 1270.88171,666.67511 
			1313.22217,666.67511 1313.22217,629.04144 1270.88171,629.04144 1270.88171,605.52795 1333.20544,605.52795 
			1333.20544,566.71753 		"/>
		<path fill="#CECDC7" d="M1338.13538,647.625c-0.01099-46.90247,38.00208-84.93335,84.90442-84.94434
			c46.90247-0.01099,84.93347,38.00201,84.94434,84.90448c0.01099,46.90247-38.00195,84.93335-84.90442,84.94434
			c-0.08777,0-0.17554-0.00012-0.26343-0.00037c-46.37402,0.39502-84.28796-36.87842-84.68311-83.25256
			C1338.12854,648.72607,1338.12915,648.17554,1338.13538,647.625z M1467.97681,648.09161
			c0-24.69019-20.47034-45.87048-44.93738-45.87048c-24.91333,0-44.91699,21.18036-44.91699,45.87048
			c-0.52783,24.81262,19.15881,45.3551,43.97131,45.883c24.8125,0.52783,45.3551-19.15881,45.88293-43.97137
			c0.01355-0.63715,0.01355-1.27448,0-1.91162H1467.97681z"/>
		<path fill="#CECDC7" d="M1522.53052,647.625c-0.01099-46.90247,38.00208-84.93335,84.90442-84.94434
			c46.90247-0.01099,84.93347,38.00201,84.94434,84.90448c0.01099,46.90247-38.00195,84.93335-84.90442,84.94434
			c-0.08777,0-0.17554-0.00012-0.26343-0.00037c-46.37402,0.39502-84.28796-36.87842-84.68311-83.25256
			C1522.52368,648.72607,1522.52429,648.17554,1522.53052,647.625z M1652.37195,648.09161
			c0-24.69019-20.47034-45.87048-44.93738-45.87048c-24.93359,0-44.91699,21.18036-44.91699,45.87048
			c-0.52795,24.81262,19.15881,45.3551,43.97131,45.883c24.8125,0.52783,45.3551-19.15881,45.88293-43.97137
			c0.01355-0.63715,0.01355-1.27448,0-1.91162H1652.37195z"/>
		<path fill="#CECDC7" d="M1810.19006,605.52795h-36.51782v123.49139h-39.92627V605.52795h-36.51794v-38.81042h112.92151
			L1810.19006,605.52795z"/>
		<path fill="#CC9F53" d="M897.97302,729.01935V566.71753h55.46661c25.78564,0,43.82147,3.40833,60.70087,19.39508
			c15.52014,14.60718,23.73669,35.82812,23.73669,62.52679c0,24.64954-7.99341,44.95758-23.51349,60.25452
			c-17.34595,16.87939-32.62262,20.08484-55.44629,20.08484L897.97302,729.01935z M998.39722,647.32068
			c0-29.21429-15.74329-45.64734-44.95758-45.64734h-15.74329v91.74103h15.96643
			C984.01324,693.41437,998.39722,679.25354,998.39722,647.32068z"/>
		<path fill="#CC9F53" d="M1092.18738,566.75812v99.93732c0,18.25897,5.70081,27.61157,19.17188,27.61157
			c13.91736,0,20.53125-9.12946,20.53125-27.61157v-99.93732h39.72339V668.2981c0,39.72339-24.20325,63.21655-60.47766,63.21655
			c-36.74109,0-58.83447-22.5802-58.83447-63.21655V566.75812H1092.18738z"/>
		<path fill="#CC9F53" d="M1020.73401,526.14209h-43.43597l62.30353-162.30176h32.46033l62.30359,162.30176h-43.82141
			l-7.99341-23.51346h-53.6001L1020.73401,526.14209z M1055.87244,417.15646l-16.23022,52.01773h32.19666L1055.87244,417.15646z"/>
		<path fill="#CC9F53" d="M897.74988,526.14209V363.84033h39.47986v126.41278h40.5755v35.84839L897.74988,526.14209z"/>
		<path fill="#CC9F53" d="M1246.73926,529.32727c-22.83972,0.37347-44.75586-9.00543-60.25452-25.78568
			c-15.297-16.23019-23.04688-36.29474-23.04688-60.25455c-0.1853-22.08804,8.72974-43.27844,24.64966-58.59094
			c15.62329-15.65765,36.92029-24.32285,59.03723-24.02066c37.89746,0,70.297,24.87274,80.78564,64.92072h-42.82727
			c-8.68323-15.98672-21.68762-24.34528-37.65405-24.34528c-23.40271-0.41461-42.71057,18.22092-43.12512,41.62366
			c-0.00391,0.2186-0.0061,0.43729-0.00659,0.65594c0,25.806,20.06458,45.6474,42.44189,45.6474
			c15.29688,0,28.74768-8.21655,37.43091-23.27002h43.13171C1316.56958,505.36746,1285.67139,529.32727,1246.73926,529.32727z"/>
		<path fill="#CC9F53" d="M1422.45117,464.06168h-40.57544v62.08041h-39.74353V363.84033h39.703v61.6138h40.57544v-61.57321
			h39.94653v162.30176h-39.90601V464.06168z"/>
		<path fill="#CC9F53" d="M1504.1499,526.14209h-43.35486l62.30359-162.30176h32.46033l62.30371,162.30176h-43.86218
			l-7.99341-23.51346h-53.64075L1504.1499,526.14209z M1539.26794,417.15646l-16.23022,52.01773h32.17627L1539.26794,417.15646z"/>
		<path fill="#CC9F53" d="M1616.19885,526.14209V363.84033h39.72339v162.30176H1616.19885z"/>
		<path fill="#CC9F53" d="M1675.07397,526.14209V363.84033h35.828l59.646,90.17892v-90.13834h39.72339v162.30176h-34.99634
			l-60.47766-90.38181v90.38181L1675.07397,526.14209z"/>
		<path fill="#CC9F53" d="M1828.89539,526.14209V363.84033h102.31104v35.86868h-62.60791v26.23199h42.60425v36.07156h-42.60425
			v28.2811h62.60791v35.84842H1828.89539z"/>
		<path fill="#CC9F53" d="M470.10498,29.76242c-47.07782-27.18039-105.08011-27.18039-152.15793,0L64.35054,176.17891v343.24799
			c-0.03487,54.39563,28.97093,104.67236,76.07895,131.87018L394.02603,797.6933l253.59653-146.39624
			c47.10803-27.19781,76.11377-77.47455,76.07892-131.87018V176.17891L470.10498,29.76242z M368.66635,302.97717h-50.7193v304.3158
			h-101.4386v-304.3158H115.06985V201.53856H427.237L368.66635,302.97717z M672.98218,302.97717h-152.1579v50.7193h139.47809
			l-58.57062,101.4386h-80.90747v152.1579h-101.4386v-304.3158l58.57062-101.43861h195.02588V302.97717z"/>
	</g>
</g>
</svg>
