<?xml version="1.0" encoding="utf-8"?>
<!-- Generator: Adobe Illustrator 24.0.1, SVG Export Plug-In . SVG Version: 6.00 Build 0)  -->
<svg version="1.0" id="Layer_1" xmlns="http://www.w3.org/2000/svg" xmlns:xlink="http://www.w3.org/1999/xlink" x="0px" y="0px"
	 width="283.5px" height="136px" viewBox="0 0 283.5 136" enable-background="new 0 0 283.5 136" xml:space="preserve">
<path fill="#52327C" d="M0,0h34.6l21.9,84.3L74.2,0h36.3l16.9,83.5L150.2,0h55.7c0,0,77.6-4.2,77.6,68.3c0,0,0.8,67.5-66.7,67.5
	c0,0-36.3,4.2-59-34.6c-3.4,14.3-11,34.6-11,34.6h-39.7L92,54l-15.2,81.8H36.3L0,0"/>
<path fill="#FFFFFF" d="M199.8,53.9c0,7.7,7.9,13.4,16.4,13.4c8.9,0,16.4-5.3,16.4-13.3c0-7.8-7.1-13.8-16.1-13.8
	C207.8,40.2,199.8,46,199.8,53.9 M200.8,91.9c0.7,2.1,2.6,4.1,5.1,5.3c2.6,1.2,5.6,1.4,7.9,1.4c14.8,0,18.7-11.8,20.5-19.9l-0.3-0.3
	c-7.2,5.4-15.9,7.8-25.6,7.8c-22.3,0-38.8-11.1-38.8-31.5c0-24.1,22.2-37,48.1-37c33.5,0,48.1,22.2,48.1,47.2
	c0,31.5-17.1,54.3-52.1,54.3c-21.2,0-39.4-7.7-43-27.2L200.8,91.9L200.8,91.9z"/>
</svg>
