<?xml version="1.0" encoding="utf-8"?>
<!-- Generator: Adobe Illustrator 24.0.1, SVG Export Plug-In . SVG Version: 6.00 Build 0)  -->
<svg version="1.1"
	 id="svg2" xmlns:cc="http://web.resource.org/cc/" xmlns:dc="http://purl.org/dc/elements/1.1/" xmlns:inkscape="http://www.inkscape.org/namespaces/inkscape" xmlns:rdf="http://www.w3.org/1999/02/22-rdf-syntax-ns#" xmlns:sodipodi="http://sodipodi.sourceforge.net/DTD/sodipodi-0.dtd" xmlns:svg="http://www.w3.org/2000/svg"
	 xmlns="http://www.w3.org/2000/svg" xmlns:xlink="http://www.w3.org/1999/xlink" x="0px" y="0px" width="500px" height="82.7px"
	 viewBox="0 0 500 82.7" enable-background="new 0 0 500 82.7" xml:space="preserve">
<title>sudouest</title>
<g>
	<rect y="0.3" fill="#FFFFFF" width="500" height="82"/>
	<g>
		<rect x="-0.8" y="76.8" fill="#E3003A" width="500" height="5.2"/>
		<path fill="#00528C" d="M449,31.5h6.2V30c0-7.5,2.7-11.7,12.4-11.7c2.1,0,3.3,0.1,4.3,0.1v7.4h-3.1c-3.7,0-4.6,1.4-4.6,4.1v1.6
			h7.7v7.8h-7.7v25h-9v-25H449V31.5z"/>
		<path fill="#00528C" d="M476.9,32l7.1-0.5l0.9,3.6c1.4-2.1,5.4-3.8,10.5-3.9v8.7c-7.7,0.1-9.4,3.1-9.4,8.2v16.2h-9.1V32z"/>
		<circle fill="#00528C" cx="440.2" cy="59.9" r="4.5"/>
		<path fill="#00528C" d="M395.8,42.3l0.1-9.3c0-0.5-5.4-3.1-12.4,3v-3.4l-8.7,0.8v29.9h8.7V43.2C387.7,40,391.3,40.2,395.8,42.3z"
			/>
		<path fill="#00528C" d="M425.4,53.9l-0.1,7.7c-3.3,2-7.9,2.8-10.5,2.8c-6.6,0.1-16.5-3.6-16.5-15.2c0-14.4,10.7-17.6,16-17.6
			s15.1,2.1,15.1,18.3h-22.5C407.9,57.5,416.7,57.9,425.4,53.9z M407,45.8h14c-0.1-3.9-3.2-6.6-7-6.6C410.2,39.1,406.9,42,407,45.8z
			"/>
		<rect x="324.7" y="21.8" fill="#00528C" width="8.7" height="8"/>
		<rect x="324.7" y="33.3" fill="#00528C" width="8.7" height="30.5"/>
		<path fill="#00528C" d="M357.2,32c2.7,0,13.3,2.5,13.3,15.7s-12.1,16.5-15.2,16.5c-3.2,0-4-0.3-8.2-2.6l-4.9,2.4l-2.1-1.2V20.5
			h8.7v14.4C348.8,34.9,352.7,32,357.2,32z M348.9,41.3v14.6c0.7,1.1,2.7,1.6,5.4,1.7c2.7,0.1,7.2-1.3,7.2-8.7s-4.5-9.5-7.4-9.5
			S348.9,41.3,348.9,41.3z"/>
		<polygon fill="#00528C" points="296.3,18.3 282.3,18.3 282.3,63.9 316.5,63.9 316.5,52 296.3,52 		"/>
		<path fill="#FFFFFF" d="M64.6,36.7"/>
		<path fill="#00528C" d="M84.2,41.5V64h-8.7V44.4c0-4.1-7-5.1-10.9-0.7V64h-8.7V21.2h8.7v15.5C73.4,29,84.2,32.6,84.2,41.5z"/>
		<path fill="#00528C" d="M212.7,41.4v22.5H204V44.3c0-4.1-7-5.1-10.9-0.7v20.2h-8.7V34l8.7-0.8v3.4
			C201.9,28.9,212.7,32.5,212.7,41.4z"/>
		<path fill="#00528C" d="M228.1,51.9V39.4h4.3V34h-4.3V23.3l-8.7,0.9V34h-2.8v5.3h2.8V53c0,7.7,3.9,9,7.5,11.8l6.4-6.1
			C228.9,55.2,228.1,54.3,228.1,51.9z"/>
		<path fill="#00528C" d="M117.9,34v18.6c0,2.7-0.8,3.3,3.4,6.9l-7.1,5.8c-2.3-1.3-4.3-4.2-4.3-4.2l-4.7,3.1
			c-2.5,1.4-6.9,0-10.4-2.2c-3.1-2-8.9-9.8-3.7-21.9c4.1-9.6,16.5-8.4,19.8-4.9l5.2-1.9L117.9,34z M97.6,48.5
			c0,9.9,8.2,8.8,11.8,6.9V41.9C107.1,39.6,97.6,36.3,97.6,48.5z"/>
		<path fill="#00528C" d="M262.5,54.4l-0.1,7.7c-3.3,2-7.9,2.8-10.5,2.8c-6.6,0.1-16.5-3.6-16.5-15.2c0-14.4,10.7-17.6,16-17.6
			c5.3,0,15.1,2.1,15.1,18.3H244C245,58.1,253.7,58.5,262.5,54.4z M244,46.3h14.1c-0.1-3.9-3.2-6.6-7-6.6S244,42.6,244,46.3z"/>
		<path fill="#00528C" d="M176.1,54.4l-0.1,7.7c-3.3,2-7.9,2.8-10.5,2.8C158.9,65,149,61.3,149,49.7c0-14.4,10.7-17.6,16-17.6
			s15.1,2.1,15.1,18.3h-22.5C158.6,58.1,167.4,58.5,176.1,54.4z M157.7,46.3h14.1c-0.1-3.9-3.2-6.6-7-6.6
			C160.9,39.7,157.6,42.6,157.7,46.3z"/>
		<path fill="#00528C" d="M146.4,43.1v-9.4c0-0.5-5.4-3.1-12.4,3v-3.4l-8.7,0.8V64h8.7V43.8C138.3,40.7,141.9,41,146.4,43.1z"/>
		<path fill="#00528C" d="M34.8,35.6c0-1.7-2.3-7-7.2-7s-8.9,4.5-8.9,13.3s5.7,11.9,8.9,11.9s6.8-2.1,7.6-7.9H49
			C49,55.5,41.4,65,28.1,65C11.8,65,4.7,52.9,4.7,41s7.2-23.7,22.9-23.7c14.3,0,21.3,9.3,21.3,18.2L34.8,35.6z"/>
		<path fill="#FFFFFF" d="M53.3,35.2"/>
	</g>
</g>
</svg>
