<?xml version="1.0" encoding="utf-8"?>
<!-- Generator: Adobe Illustrator 24.0.1, SVG Export Plug-In . SVG Version: 6.00 Build 0)  -->
<svg version="1.1"
	 id="svg2" xmlns:cc="http://web.resource.org/cc/" xmlns:dc="http://purl.org/dc/elements/1.1/" xmlns:inkscape="http://www.inkscape.org/namespaces/inkscape" xmlns:rdf="http://www.w3.org/1999/02/22-rdf-syntax-ns#" xmlns:sodipodi="http://sodipodi.sourceforge.net/DTD/sodipodi-0.dtd" xmlns:svg="http://www.w3.org/2000/svg"
	 xmlns="http://www.w3.org/2000/svg" xmlns:xlink="http://www.w3.org/1999/xlink" x="0px" y="0px" width="500px" height="82.7px"
	 viewBox="0 0 500 82.7" enable-background="new 0 0 500 82.7" xml:space="preserve">
<title>sudouest</title>
<rect y="0.3" fill="#FFFFFF" width="500" height="82"/>
<g>
	<path fill="#006AB1" d="M449,25.5h6.2V24c0-7.5,2.7-11.7,12.4-11.7c2.1,0,3.3,0.1,4.3,0.1v7.4h-3.1c-3.7,0-4.6,1.4-4.6,4.1v1.6h7.7
		v7.8h-7.7v25h-9v-25H449V25.5z"/>
	<path fill="#006AB1" d="M476.9,26l7.1-0.5l0.9,3.6c1.4-2.1,5.4-3.8,10.5-3.9v8.7c-7.7,0.1-9.4,3.1-9.4,8.2v16.2h-9.1V26z"/>
	<circle fill="#006AB1" cx="440.2" cy="53.9" r="4.5"/>
</g>
<g>
	<polygon fill="#009DDF" points="23.5,42.5 3.3,77.2 45,77.2 	"/>
	<polygon fill="#B0B2B3" points="23.6,77.2 54.2,77.2 38.4,51.7 	"/>
	<g>
		<g>
			<path fill="#006AB1" d="M53.7,21.2c0-6.3-1.1-6.3-4.5-6.3v-1.6c3.5,0,7.1,0.2,10.7,0.2c2.6,0,7.9-0.1,10.3-0.2v1.6h-4.3
				c-2.6,0-3.7,1.1-3.7,5.2v30.4c0,4.5,0.9,5.8,3.1,5.8h4.5c9.2,0,9.3-6.4,9.4-13.6h2.2C81,47.9,81,54.4,81.4,58.3
				c-5.5-0.3-11-0.2-16.5-0.2c-4.5,0-13.7,0.1-15.7,0.2v-1.6c2.8,0,4.5,0,4.5-4.5V21.2z"/>
			<path fill="#006AB1" d="M86.5,31.1c0-1,0.4-2,1-2.4c1.6-1.2,6.7-2.2,11.8-2.2c9.6,0,13.1,2.4,13.1,8.5v18.4
				c0,2.9,1.2,3.2,3.8,3.3v1.6c-1.5-0.1-2.4-0.2-4.1-0.2c-2.4,0-4.8,0-7.1,0.2l-0.9-4.2c-3.8,3.3-6,4.5-9.6,4.5
				c-6.2,0-9.4-3.1-9.4-8.9c0-6.8,2.7-8.3,16.5-10l2.8-0.3v-3.1c0-5.8-1.6-8.1-5.3-8.1c-4,0-4.4,2.1-4.8,5c-0.1,1.3-0.4,2.2-1.7,2.6
				c-1.1,0.4-2.9,0.5-6,0.5V31.1z M104.3,41c-4,0.5-10.4,1-10.4,8.3c0,3.6,1.8,5.8,3.9,5.8c0.6,0,6.4-0.5,6.4-6.7V41z"/>
			<path fill="#006AB1" d="M137.3,23c0-7.9-0.9-8-4.5-8.1v-1.6c1.7,0.1,6.7,0.2,8.3,0.2c1.8,0,9.4-0.2,11.1-0.2
				c3.9,0,14.5,0,14.5,10.7c0,9.3-8.8,10.2-13.9,10.7v0.1c8.2,2,9.5,2.2,13.2,12.4c3.2,8.8,3.6,9.5,6.2,9.5h1.8v1.6
				c-2.6-0.1-5-0.2-7.1-0.2c-2.1,0-3.9,0.1-5.4,0.2l-5.2-13.7c-1.3-3.3-4-8.6-8.5-8.6h-2v15.8c0,3.5,0.9,4.8,2.8,4.8h3.3v1.6
				c-1.4-0.1-9.4-0.2-10.9-0.2c-0.9,0-6.9,0.2-8.1,0.2v-1.6c3.5,0,4.5,0,4.5-7.3V23z M145.8,34.1c3.7,0,11.8,0,11.8-10
				c0-5.1-2.7-8.8-8.6-8.8h-3.2V34.1z"/>
			<path fill="#006AB1" d="M202.9,37c0-7.1-0.3-8.1-3.1-8.3v-1.6c1.9,0.1,4.2,0.2,6.1,0.2c1,0,3.9-0.2,5-0.2v5.2
				c2.4-3.3,4.3-5.8,9.2-5.8c10.7,0,12.1,8.5,12.1,14c0,7.3-1.9,12.4-6.9,15.8c-3.6,2.5-7.2,2.6-8.3,2.6c-2.2,0-3.8-0.5-6.2-1.4v6.2
				c0,5.4,1,5.4,6.4,5.4v1.6c-2.8-0.1-6.9-0.2-9.6-0.2c-1.4,0-4.4,0-7.9,0.2v-1.6c2.2-0.1,3.1-0.7,3.1-6.8V37z M211,54.4
				c2.6,2.5,5,2.6,5.4,2.6c3.1,0,7.8-3.4,7.8-14c0-4.8-1.6-11.9-6.9-11.9c-4.5,0-6.4,4.3-6.4,9.1V54.4z"/>
			<path fill="#006AB1" d="M258.5,33.2c0-4.5-1.6-4.5-4.9-4.5v-1.6c3.7,0.1,5.6,0.2,7.6,0.2c1.8,0,3.9-0.1,5.8-0.2
				c-0.2,2-0.5,6.4-0.5,8.5v16.1c0,4.6,1.2,4.9,3.8,5v1.6c-1.6-0.1-3.8-0.2-5.8-0.2c-2.1,0-4.1,0.1-5.3,0.2l-0.5-6.4h-0.1
				c-1.5,2.9-3.9,7.1-11.3,7.1c-6.7,0-10.1-2.7-10.1-8.8c0-1,0.3-9.6,0.3-10.7c0-9.8,0-10.6-3.9-10.7v-1.6c2,0.1,4,0.2,6.4,0.2
				c1.6,0,2.6,0,6-0.2c-0.2,3.7-0.5,7.4-0.5,11.1v10.5c0,3.5,1.4,6.2,5.6,6.2c5.8,0,7.3-5.5,7.3-10.9V33.2z"/>
			<path fill="#006AB1" d="M273.3,20.4c0-8.3-1-8.6-3.1-8.7V10c1.2,0,6.7,0.2,7.9,0.2c1.4,0,2.3-0.1,3.9-0.2
				c-0.1,2.9-0.5,12.8-0.5,14.9v8.3h0.1c2-3.3,4.3-6.8,10.1-6.8c7.9,0,11.1,7.3,11.1,14.8c0,11.7-6.9,17.6-17.3,17.6
				c-4.6,0-8.1-1.2-12.4-2.8c0.1-1.8,0.3-6.9,0.3-8.3V20.4z M287.3,56.9c5,0,7.3-6.2,7.3-13.3c0-3.5-0.7-12.5-6.7-12.5
				c-6.8,0-6.8,8.9-6.8,12.7C281.1,52.2,282.8,56.9,287.3,56.9z"/>
			<path fill="#006AB1" d="M305.7,16.6c0-5.1-1.4-5.1-3.2-5.1V10c1.9,0.1,4.1,0.2,6,0.2c1.6,0,4.4-0.1,6-0.2
				c-0.5,5.9-0.7,14.5-0.7,20.5V52c0,4.3,1.6,4.3,3.9,4.3v1.9c-3.6-0.3-5.3-0.2-7.9-0.2c-2.4,0-4.4,0-7.2,0.2v-1.9
				c1.2,0,1.8-0.1,2.2-0.9c0.9-1.4,1-7,1-8.9V16.6z"/>
			<path fill="#006AB1" d="M323.2,33.7c0-4.4-0.8-4.9-3.1-5v-1.6c2.3,0.1,4.8,0.2,6.5,0.2c0.9,0,2.6-0.1,4.7-0.2l-0.3,22.7
				c-0.1,6.9,1.2,6.9,3.9,6.9v1.6c-2.4-0.2-5.1-0.2-7.6-0.2c-0.7,0-6.1,0.1-7.3,0.2v-1.6c2.3-0.1,3.1-0.7,3.1-7.2V33.7z M331,18
				c0,3.3-2.5,4.1-4.4,4.1c-3,0-4.5-1.7-4.5-4c0-2.6,2-4.1,4.3-4.1C328.9,14,331,15.1,331,18z"/>
			<path fill="#006AB1" d="M355.9,54.5c-3.3,2.9-5.2,4.4-8.8,4.4c-7.7,0-12.7-6.8-12.7-15.2c0-3.7,1.5-17.2,17.4-17.2
				c5.4,0,8,1.4,9.7,2.4l1.3-2.8h2c-0.7,7.1-0.8,14.3-0.8,15.2v23.3c0,3.9,1,4.6,3.1,4.7v1.6c-4.8-0.1-6.9-0.2-9.7-0.2
				c-2.1,0-5.2,0.1-8.8,0.2v-1.6h4.3c2.1,0,3-1.3,3-6.4V54.5z M342.5,41.9c0,7.8,3.1,12.8,7.8,12.8c5.4,0,5.8-5.7,5.8-13.8
				c0-4.7-0.5-12.6-5.8-12.6C345.5,28.4,342.5,34.7,342.5,41.9z"/>
			<path fill="#006AB1" d="M392.1,33.2c0-4.5-1.6-4.5-4.9-4.5v-1.6c3.7,0.1,5.6,0.2,7.6,0.2c1.8,0,3.9-0.1,5.8-0.2
				c-0.2,2-0.5,6.4-0.5,8.5v16.1c0,4.6,1.2,4.9,3.8,5v1.6c-1.6-0.1-3.8-0.2-5.8-0.2c-2.1,0-4.1,0.1-5.3,0.2l-0.5-6.4h-0.1
				c-1.5,2.9-3.9,7.1-11.3,7.1c-6.7,0-10.1-2.7-10.1-8.8c0-1,0.3-9.6,0.3-10.7c0-9.8,0-10.6-3.9-10.7v-1.6c2,0.1,4,0.2,6.4,0.2
				c1.6,0,2.6,0,6-0.2c-0.2,3.7-0.5,7.4-0.5,11.1v10.5c0,3.5,1.4,6.2,5.6,6.2c5.8,0,7.3-5.5,7.3-10.9V33.2z"/>
			<path fill="#006AB1" d="M411.1,40.5c0,4,0,14.7,9.4,14.7c6.5,0,7.3-4.9,7.8-7.6h1.5c0,7.9-6.4,11.3-13.4,11.3
				c-9.1,0-13.4-5.2-13.4-14.9c0-5.6,1.4-10.9,5.2-14.3c3.1-2.8,7-3.3,10.1-3.3c11.2,0,11.7,7.6,11.8,14H411.1z M419.8,38.5
				c1.7,0,2-1.7,2-3.3c0-2.9-1.2-6.8-4.6-6.8c-4.9,0-5.7,7-6.1,10.1H419.8z"/>
			<path fill="#006AB1" d="M181.9,22.3l0.3,0.5l9.8-4.3c1.7-0.8,2.4-1.7,2.7-2.5c0.4-1.3,0.4-3.6-3.3-3.8l-2.9-0.3L181.9,22.3z"/>
			<path fill="#006AB1" d="M179.9,40.5c0,4,0,14.7,9.4,14.7c6.5,0,7.3-4.9,7.8-7.6h1.5c0,7.9-6.4,11.3-13.4,11.3
				c-9.1,0-13.4-5.2-13.4-14.9c0-5.6,1.4-10.9,5.2-14.3c3.1-2.8,7-3.3,10.1-3.3c11.2,0,11.7,7.6,11.8,14H179.9z M188.6,38.5
				c1.7,0,2-1.7,2-3.3c0-2.9-1.2-6.8-4.6-6.8c-4.9,0-5.7,7-6.1,10.1H188.6z"/>
		</g>
		<g>
			<path fill="#006AB1" d="M49.2,62.6h5.5c5.2,0,6.7,2.4,6.7,6.9v0.9c0,4-1.7,6.9-6.7,6.9h-5.5V62.6z M54.7,74.2c2.6,0,3-1.6,3-3.9
				v-0.9c0-2.7-0.7-3.7-3-3.7h-1.7v8.5H54.7z"/>
			<path fill="#006AB1" d="M62.8,62.6h10.6v3.2h-6.8v2h6.1V71h-6.1V74h6.8v3.2H62.8V62.6z"/>
			<path fill="#006AB1" d="M74,72.4l4-0.4c0.1,1.2,0.5,2.1,2.8,2.1c1.8,0,2.4-0.4,2.4-1.3c0-1-0.8-1.1-3.1-1.5
				c-2.7-0.5-5.4-1.1-5.4-4.4c0-2.4,1.4-4.4,6-4.4c3.8,0,5.5,1.6,6.1,4.2l-4.1,0.5c-0.1-0.9-0.5-1.5-2-1.5c-1.8,0-2.3,0.3-2.3,1.1
				c0,0.7,0.7,0.9,2.8,1.3c3.7,0.7,5.8,1.4,5.8,4.8c0,2.9-2.4,4.4-6.2,4.4C75.8,77.2,74.5,75.1,74,72.4z"/>
			<path fill="#006AB1" d="M93.5,62.6h6.8c2.4,0,5.5,0.5,5.5,4.6c0,3.6-2.6,5-5.5,5h-3v5.1h-3.7V62.6z M99.7,69.2
				c1.2,0,2.3-0.2,2.3-1.8c0-1.7-1-1.8-2.3-1.8h-2.4v3.6H99.7z"/>
			<path fill="#006AB1" d="M110.2,70.8l-5.1-8.2h4.1l3,5l3-5h3.9l-5.2,8.2v6.4h-3.7V70.8z"/>
			<path fill="#006AB1" d="M125.6,72h-2.2v5.2h-3.7V62.6h6.8c2.6,0,5.5,0.6,5.5,4.7c0,2.3-1.1,3.6-2.5,4.2l2.8,5.8h-4L125.6,72z
				 M125.8,69c1.6,0,2.3-0.4,2.3-1.7c0-1.3-0.7-1.7-2.3-1.7h-2.4V69H125.8z"/>
			<path fill="#006AB1" d="M144.8,62.6h4.3l4.3,7.7v-7.7h3.6v14.7h-3.7l-4.9-8.8v8.8h-3.6V62.6z"/>
			<path fill="#006AB1" d="M170.6,62.6h10.6v3.2h-6.8v2h6.1V71h-6.1V74h6.8v3.2h-10.6V62.6z"/>
			<path fill="#006AB1" d="M181.9,72.4l4-0.4c0.1,1.2,0.5,2.1,2.8,2.1c1.8,0,2.4-0.4,2.4-1.3c0-1-0.8-1.1-3.1-1.5
				c-2.7-0.5-5.4-1.1-5.4-4.4c0-2.4,1.4-4.4,6-4.4c3.8,0,5.5,1.6,6.1,4.2l-4.1,0.5c-0.1-0.9-0.5-1.5-2-1.5c-1.8,0-2.3,0.3-2.3,1.1
				c0,0.7,0.7,0.9,2.8,1.3c3.7,0.7,5.8,1.4,5.8,4.8c0,2.9-2.4,4.4-6.2,4.4C183.7,77.2,182.4,75.1,181.9,72.4z"/>
			<polygon fill="#006AB1" points="143.6,65.8 143.6,62.6 139.1,62.6 141,60.5 136.7,60.5 135.6,62.6 133,62.6 133,77.2 143.6,77.2 
				143.6,74 136.7,74 136.7,71 142.9,71 142.9,67.8 136.7,67.8 136.7,65.8 			"/>
			<polygon fill="#006AB1" points="169.4,65.8 169.4,62.6 164.9,62.6 166.8,60.5 162.5,60.5 161.4,62.6 158.8,62.6 158.8,77.2 
				169.4,77.2 169.4,74 162.5,74 162.5,71 168.7,71 168.7,67.8 162.5,67.8 162.5,65.8 			"/>
		</g>
	</g>
</g>
</svg>
