<?xml version="1.0" encoding="utf-8"?>
<!-- Generator: Adobe Illustrator 26.0.2, SVG Export Plug-In . SVG Version: 6.00 Build 0)  -->
<svg version="1.1"
	 id="svg2" xmlns:cc="http://web.resource.org/cc/" xmlns:dc="http://purl.org/dc/elements/1.1/" xmlns:inkscape="http://www.inkscape.org/namespaces/inkscape" xmlns:rdf="http://www.w3.org/1999/02/22-rdf-syntax-ns#" xmlns:sodipodi="http://sodipodi.sourceforge.net/DTD/sodipodi-0.dtd" xmlns:svg="http://www.w3.org/2000/svg"
	 xmlns="http://www.w3.org/2000/svg" xmlns:xlink="http://www.w3.org/1999/xlink" x="0px" y="0px" width="500px" height="82.7px"
	 viewBox="0 0 500 82.7" enable-background="new 0 0 500 82.7" xml:space="preserve">
<g>
	<path fill="#00866A" d="M60.5,80c5.3,1.5,18.8,1.5,24,0c3.8-0.8,8.3-4.5,8.3-8.3c1.5-12,0-58.6,0-69.1H77c0,10.5,0.8,55.6,0,65.3
		c0,0.8-0.8,2.3-1.5,2.3c-1.5,0.8-4.5,0.8-6,0C68.7,69.5,68,68.8,68,68c-0.8-9.8,0-54.8,0-65.3H52.2c0,10.5-1.5,57.1,0,69.1
		C52.2,75.5,56.7,78.5,60.5,80"/>
	<path fill="#00866A" d="M116.8,68c-0.8-9-0.8-43.5,0-52.6c0-2.3,2.3-3.8,4.5-3.8c3,0,4.5,1.5,4.5,3.8c0.8,8.3,0.8,43.5,0,52.6
		c0,2.3-2.3,3.8-4.5,3.8C119,71.8,116.8,70.3,116.8,68 M133.3,80c3.8-0.8,7.5-3.8,8.3-7.5c1.5-12,2.3-48.8,0-60.1
		c-0.8-4.5-6-8.3-10.5-9.8c-5.3-1.5-19.5-0.8-30.8,0V80C113,80.8,128.8,80.8,133.3,80"/>
	<path fill="#00866A" d="M44.7,47.7c0,0,0-0.8,0-1.5c0,0,0,0,0-0.8c-1.5-3.8-6-10.5-21.8-10.5c-1.5,0-2.3-1.5-2.3-2.3V16.2
		c0-1.5,0.8-2.3,2.3-2.3h3.8c1.5,0,2.3,0.8,2.3,2.3v9h15.8c0-1.5,0.8-6,0.8-6c0-3.8-0.8-5.3-0.8-6.8C43.3,7.9,41,4.1,35,1.9
		c-5.3-1.5-15.8-1.5-21,0c-5.3,1.5-9,6-10.5,9.8C2,17,1.2,27.5,2.7,34.2c0,0,0,0.8,0.8,2.3c0,0,0,0,0,0.8C4.9,41,10.2,47,23.7,47
		h1.5c2.3,0,3,1.5,3,2.3v18c0,1.5-0.8,2.3-2.3,2.3h-3.8c-1.5,0-2.3-0.8-2.3-2.3v-9H3.4c0,2.3-0.8,4.5-0.8,7.5c0,0,0,0,0,0.8
		c0,3.8,1.5,6.8,3.8,9c1.5,1.5,3,3,5.3,3c5.3,1.5,17.3,1.5,23.3,0c3.8-0.8,8.3-3.8,9-8.3C46.2,66.5,46.2,54.5,44.7,47.7"/>
	<path fill="#00866A" d="M224.9,80.8c5.3,1.5,18.8,1.5,24,0c3.8-0.8,8.3-4.5,8.3-8.3c1.5-12,0-58.6,0-69.1h-15.8
		c0,10.5,0.8,55.6,0,65.3c0,0.8-0.8,2.3-1.5,2.3c-1.5,0.8-4.5,0.8-6,0c-0.8-0.8-1.5-1.5-1.5-2.3c-0.8-9.8,0-53.3,0-65.3h-15.8
		c0,10.5-1.5,57.1,0,69.1C216.6,77,221.1,80,224.9,80.8"/>
	<path fill="#00866A" d="M192.6,68.8c0,2.3-2.3,3.8-4.5,3.8c-3,0-4.5-1.5-4.5-3.8c-0.8-9-0.8-43.5,0-52.6c0-2.3,2.3-3.8,4.5-3.8
		c3,0,4.5,1.5,4.5,3.8C193.4,25.2,193.4,59.7,192.6,68.8 M197.1,3.4c-2.3-0.8-6-1.5-9.8-1.5s-7.5,0.8-9.8,1.5
		c-4.5,1.5-9.8,5.3-10.5,9.8c-2.3,11.3-2.3,47.3,0,59.3c0,1.5,0.8,3,2.3,3.8c1.5,1.5,4.5,3.8,7.5,4.5c5.3,1.5,17.3,1.5,22.5,0
		c3-0.8,5.3-2.3,6.8-3.8s2.3-2.3,2.3-3.8c1.5-11.3,2.3-48,0-59.3c0-1.5-1.5-3-3-4.5C203.9,6.4,200.9,4.2,197.1,3.4"/>
	<path fill="#00866A" d="M294,13.9V3.4h-29.3v77.3H294v-9h-11.3c-1.5,0-2.3-0.8-2.3-2.3v-21c0-1.5,0.8-2.3,2.3-2.3h9v-12h-9
		c-1.5,0-2.3-0.8-2.3-2.3v-15c0-1.5,0.8-2.3,2.3-2.3H294V13.9z"/>
	<path fill="#00866A" d="M381.8,3.4h-35.3v10.5h7.5c1.5,0,2.3,0.8,2.3,2.3V80H372V16.2c0-1.5,0.8-2.3,2.3-2.3h6.8L381.8,3.4z"/>
	<path fill="#00866A" d="M341.3,48.5c0,0,0-0.8,0-1.5c0,0,0,0,0-0.8c-1.5-3.8-6-10.5-21.8-10.5c-1.5,0-2.3-1.5-2.3-2.3V16.9
		c0-1.5,0.8-2.3,2.3-2.3h3.8c1.5,0,2.3,0.8,2.3,2.3v9h15.8c0-1.5,0.8-6,0.8-6c0-3.8-0.8-5.3-0.8-6.8c-1.5-4.5-3.8-8.3-9.8-10.5
		c-5.3-1.5-15.8-1.5-21,0s-9,6-10.5,9.8c-1.5,5.3-2.3,15.8-0.8,22.5c0,0,0,0.8,0.8,2.3c0,0,0,0,0,0.8c1.5,3.8,6.8,9.8,20.3,9.8h1.5
		c2.3,0,3,1.5,3,2.3v18c0,1.5-0.8,2.3-2.3,2.3h-3.8c-1.5,0-2.3-0.8-2.3-2.3v-9H300c0,2.3-0.8,4.5-0.8,7.5c0,0,0,0,0,0.8
		c0,3.8,1.5,6.8,3.8,9c1.5,1.5,3,3,5.3,3c5.3,1.5,17.3,1.5,23.3,0c3.8-0.8,8.3-3.8,9-8.3C342,67.3,342.8,55.2,341.3,48.5"/>
	<path fill="#00866A" d="M391.6,72.5c0-3,0.8-4.5,2.3-6s3.8-2.3,6.8-2.3s4.5,0.8,6,2.3s2.3,3.8,2.3,6s-0.8,4.5-2.3,6s-3.8,2.3-6,2.3
		c-3,0-5.3-0.8-6.8-2.3C392.3,77,391.6,74.8,391.6,72.5z"/>
	<path fill="#00866A" d="M453.1,35h-12.8v44.3h-15V35H417v-7.5l8.3-3.8V20c0-6,1.5-11.3,4.5-13.5c3-2.3,8.3-4.5,15-4.5
		c5.3,0,9.8,0.8,14.3,2.3l-3.8,11.3c-3-0.8-6-1.5-8.3-1.5s-3.8,0.8-4.5,2.3c-0.8,1.5-1.5,3-1.5,4.5v3.8h12.8V35H453.1z"/>
	<path fill="#00866A" d="M492.9,23c2.3,0,3.8,0,5.3,0.8L496.7,38c-1.5,0-3-0.8-4.5-0.8c-4.5,0-8.3,1.5-11.3,3.8s-3.8,6-3.8,10.5V80
		h-15V24.5h11.3l2.3,9h0.8c1.5-3,3.8-5.3,6.8-7.5C486.2,23.7,489.2,23,492.9,23z"/>
</g>
</svg>
