<?xml version="1.0" encoding="utf-8"?>
<!-- Generator: Adobe Illustrator 26.0.2, SVG Export Plug-In . SVG Version: 6.00 Build 0)  -->
<svg version="1.1" id="svg7832" xmlns="http://www.w3.org/2000/svg" xmlns:xlink="http://www.w3.org/1999/xlink" x="0px" y="0px"
	 width="228.3px" height="148.3px" viewBox="0 0 228.3 148.3" style="enable-background:new 0 0 228.3 148.3;" xml:space="preserve"
	>
<style type="text/css">
	.st0{fill:#FFFFFF;}
	.st1{fill:#8FCEF1;}
	.st2{fill:#0E2554;}
</style>
<path class="st0" d="M196.9,49.3c1.7-4.8,2.2-9.9,1.2-14.9c-2.8-13.4-15.9-23.7-36.8-29c-20.2-5.1-45.7-5-71.7,0.3
	c-13.1,2.5-26,6.6-38.6,12l-19.5-4.3v14.5C8.9,41.9-2.2,58.8,0.9,74.4c2.7,13.4,15.8,23.8,36.7,29c10,2.5,21.2,3.9,33.3,3.9
	c12.3,0,25.3-1.3,38.4-4c32-6.5,60.5-20.1,76.4-36.6l43.6-10.1L196.9,49.3z M53.5,58.5l0.9-2.5l0.9,2.5H53.5z"/>
<path class="st1" d="M216.5,56.5L193,51.4c2.5-5.1,3.4-10.8,2.3-16.4C190.2,9.6,143.1-2.4,90.2,8.3C76.8,11,63.8,15.1,51.3,20.6
	l-17-3.8v12.5C12.9,42.4,0.7,58.7,3.7,73.7c5.2,25.5,52.2,37.4,105.1,26.7c33.2-6.7,60.7-20.7,75.4-36.5L216.5,56.5 M93.2,10.1
	c47.9-9.7,90.7,1.8,95.5,25.6c0.9,4.9,0.4,9.9-1.6,14.5L56.9,21.7C68.5,16.4,80.7,12.6,93.2,10.1 M38.2,77.1h5.6l3.3-9.1h14.6
	l3.3,9.1h7.6L58.2,36.9h-7.6L38.2,71.7V21.8l24,5.3l3.6,9.8h23.9c6.3,0,11.5,5.1,11.6,11.5c0,2.5-0.8,5-2.3,7
	c3.6,2.1,5.8,6,5.7,10.1c0.1,6.4-5.1,11.7-11.5,11.7H80.5l2.4,6.7l-42.1,9.4c-1.5,0.3-2,0.5-2.6,0.6L38.2,77.1z M49.5,61.3l4.9-13.8
	l4.9,13.8H49.5z M15.1,70.7c-2.3-11.8,5.1-24.5,19.1-35.5v56.3C23.9,86.6,16.9,79.5,15.1,70.7 M110.6,96.3c-24.5,5-47.6,4.3-65-0.6
	l130.1-29.8C161.8,79.3,138.3,90.7,110.6,96.3"/>
<path class="st1" d="M95.3,48.3c0-3-2.4-5.4-5.4-5.4l0,0H68l4,10.7h18.6C93.2,53.2,95.3,50.9,95.3,48.3"/>
<path class="st1" d="M74.2,59.8l4,11.1h14.9c3.1,0,5.5-2.4,5.5-5.5s-2.4-5.5-5.5-5.5H74.2"/>
<path class="st2" d="M3.5,114.2h16.8c2.8,0,5,0.7,6.5,2.1c1.5,1.3,2.3,3.2,2.3,5.2c0,1.6-0.6,3.2-1.6,4.4c-0.8,0.9-2,1.6-3.1,2
	c1.8,0.3,3.4,1.2,4.6,2.6c1,1.3,1.5,3,1.4,4.6c0,1.4-0.4,2.8-1,4c-0.7,1.2-1.7,2.2-2.9,2.8c-1,0.6-2.3,0.8-3.4,0.9
	c-1.3,0.2-2.7,0.4-4,0.4H3.5V114.2z M12.5,125.7h3.9c1,0.1,2.1-0.2,2.9-0.8c0.6-0.6,0.8-1.3,0.8-2.1c0-0.8-0.3-1.5-0.8-2
	c-0.8-0.6-1.9-0.8-2.8-0.8h-4V125.7z M12.5,137.1h4.6c1.1,0.1,2.3-0.2,3.3-0.8c0.7-0.6,0.9-1.4,0.9-2.3s-0.3-1.6-0.9-2.1
	c-0.9-0.7-2.2-0.8-3.3-0.8h-4.6V137.1z"/>
<path class="st2" d="M52.2,138.5H42l-1.4,4.8h-9.2l10.9-29.1H52l10.9,29.1h-9.4L52.2,138.5z M50.4,132.2l-3.2-10.4L44,132.3
	L50.4,132.2z"/>
<path class="st2" d="M59.6,114.2h10l5.8,9.8l5.8-9.8h10l-11.3,16.9v12.2h-9v-12.2L59.6,114.2z"/>
<path class="st2" d="M90.6,128.8c0-4.8,1.3-8.5,3.9-11.1s6.3-3.9,11.1-3.9c4.9,0,8.5,1.3,11.2,3.9c2.6,2.5,3.9,6.2,3.9,10.9
	c0.1,2.9-0.5,5.7-1.7,8.4c-1.1,2.2-2.8,3.9-5,5.1c-2.5,1.3-5.3,1.9-8.1,1.8c-2.8,0.1-5.5-0.5-8.2-1.6c-2.2-1.1-4-2.8-5.3-5
	C91.1,134.6,90.4,131.7,90.6,128.8z M99.5,128.8c0,2.9,0.6,5.1,1.6,6.3c2.3,2.4,6.3,2.5,8.7,0.2c0.1-0.1,0.1-0.1,0.2-0.2
	c1-1.2,1.6-3.5,1.6-6.8c0-2.7-0.6-4.7-1.7-6s-2.8-2-4.5-1.9c-1.7-0.1-3.3,0.7-4.3,1.9C100.1,123.7,99.5,125.8,99.5,128.8L99.5,128.8
	z"/>
<path class="st2" d="M125.6,114.2h8.4l10.9,16.1v-16.1h8.5v29.1h-8.5l-10.9-16v16h-8.5L125.6,114.2z"/>
<path class="st2" d="M159.4,114.2h8.4l10.9,16.1v-16.1h8.5v29.1h-8.5l-10.9-16v16h-8.5L159.4,114.2z"/>
<path class="st2" d="M193.2,114.2h24.1v6.2h-15v4.6h14v5.9h-14v5.7h15.5v6.6h-24.5v-29H193.2z"/>
</svg>
