<?xml version="1.0" encoding="utf-8"?>
<!-- Generator: Adobe Illustrator 26.0.2, SVG Export Plug-In . SVG Version: 6.00 Build 0)  -->
<svg version="1.1" id="Layer_1" xmlns="http://www.w3.org/2000/svg" xmlns:xlink="http://www.w3.org/1999/xlink" x="0px" y="0px"
	 width="150px" height="150px" viewBox="0 0 150 150" style="enable-background:new 0 0 150 150;" xml:space="preserve">
<style type="text/css">
	.st0{fill:#1D1D1B;}
	.st1{fill:#F2A614;}
	.st2{fill:#FFFFFF;}
</style>
<path class="st0" d="M55.4,126.3c0-0.3-0.1-0.6-0.2-0.9c-0.2-0.3-0.4-0.5-0.6-0.8c-0.3-0.3-0.6-0.5-1-0.7c-0.2-0.1-0.6-0.3-1.1-0.5
	c-0.3-0.1-0.6-0.2-0.9-0.4c-0.3-0.1-0.4-0.4-0.5-0.7c0-0.1,0-0.1,0-0.2c0.1-0.3,0.3-0.6,0.6-0.7c0.3-0.2,0.7-0.2,1.1-0.2
	c0.4,0,0.8,0.1,1.2,0.2s0.7,0.3,1.1,0.5l0.4-1.7c-0.9-0.3-1.9-0.5-2.8-0.4c-0.6,0-1.1,0.1-1.7,0.2c-0.5,0.1-1.1,0.3-1.5,0.5
	c-1.1,0.5-1.9,1.6-1.9,2.8c0,0.7,0.5,1.4,1.1,1.8c0.1,0.1,0.8,0.4,2,1c0.7,0.3,1.1,0.7,1.1,1.1c0,0.1,0,0.1,0,0.2
	c-0.1,0.4-0.4,0.7-0.8,0.8c-0.4,0.1-0.8,0.2-1.3,0.2c-0.6,0-1.2-0.1-1.8-0.3s-1.1-0.5-1.5-0.8v2.1c1,0.4,2.1,0.5,3.2,0.5
	c0.6,0,1.3,0,1.9-0.2c0.6-0.1,1.1-0.3,1.7-0.6c1-0.5,1.7-1.3,2-2.4C55.3,126.7,55.3,126.5,55.4,126.3L55.4,126.3z M66.7,122.5
	c0-0.1,0-0.2,0-0.2c0-0.8-0.4-1.5-1.2-1.7c-0.4-0.2-0.8-0.3-1.2-0.3c-0.4,0-1,0-1.8-0.1h-4.1l0,0c0.2,0.1,0.3,0.2,0.4,0.4
	c0.1,0.1,0.1,0.3,0.1,0.5s0,0.4-0.1,0.6c0,0.1-0.1,0.3-0.2,0.6l-1.4,5.5c-0.1,0.4-0.2,0.8-0.3,1.1c-0.2,0.4-0.5,0.7-0.9,0.9l0,0h4.7
	l0,0c-0.1-0.1-0.3-0.3-0.3-0.5c-0.1-0.2-0.1-0.3-0.1-0.5s0-0.4,0.1-0.6l0.1-0.5l1.5-6.1c0.4,0,0.8,0.1,1.1,0.4
	c0.2,0.2,0.3,0.6,0.3,0.9c0,0.1,0,0.2,0,0.4c0,0.1,0,0.2-0.1,0.3c-0.1,0.5-0.4,0.9-0.8,1.3c-0.4,0.4-0.9,0.7-1.5,0.8h0.2h0.4
	c1.1,0,2.2-0.2,3.1-0.7c0.9-0.4,1.6-1.2,1.9-2.2C66.7,122.7,66.7,122.6,66.7,122.5L66.7,122.5z M76.2,128.9c-0.2-0.3-0.4-0.7-0.5-1
	l-1.4-2.9c0.6-0.2,1.2-0.5,1.7-0.9c0.5-0.3,0.8-0.8,1-1.4c0-0.2,0.1-0.4,0.1-0.6c0-0.7-0.4-1.4-1.1-1.6c-0.4-0.2-0.9-0.3-1.4-0.3h-6
	l0,0c0.2,0.1,0.3,0.2,0.4,0.4c0.1,0.1,0.1,0.3,0.1,0.5s0,0.4-0.1,0.6c0,0.1-0.1,0.3-0.2,0.6l-1.4,5.5c-0.1,0.4-0.2,0.8-0.3,1.1
	c-0.2,0.4-0.5,0.7-0.9,0.9l0,0h4.7l0,0c-0.2-0.1-0.3-0.2-0.4-0.4c-0.1-0.1-0.1-0.3-0.1-0.5s0-0.4,0.1-0.6c0-0.1,0.1-0.3,0.2-0.6
	l0.5-2l1.2,3.2c0.1,0.5,0.5,0.8,1,0.9c0.4,0.1,0.7,0.1,1.1,0.1l2.5-0.1C76.6,129.5,76.4,129.2,76.2,128.9L76.2,128.9z M72.9,124.3
	c-0.4,0.4-1,0.6-1.5,0.7l0.8-3.3h0.2c0.2,0,0.4,0,0.5,0c0.2,0,0.3,0.1,0.4,0.2c0.3,0.2,0.5,0.5,0.4,0.9c0,0.1,0,0.2-0.1,0.4
	C73.6,123.5,73.3,123.9,72.9,124.3L72.9,124.3z M82.8,129.8c-0.2-0.1-0.3-0.2-0.4-0.4c-0.1-0.1-0.1-0.3-0.1-0.5s0-0.4,0.1-0.6
	c0-0.1,0.1-0.3,0.2-0.6l1.4-5.5c0.1-0.4,0.2-0.8,0.3-1.1c0.2-0.4,0.5-0.7,0.9-0.9l0,0h-4.7l0,0c0.2,0.1,0.3,0.2,0.4,0.4
	c0.1,0.1,0.1,0.3,0.1,0.5s0,0.4-0.1,0.6c0,0.1-0.1,0.3-0.2,0.6l-1.4,5.5c-0.2,0.6-0.3,1-0.3,1.1c-0.2,0.4-0.5,0.7-0.9,0.9l0,0H82.8
	L82.8,129.8L82.8,129.8z M98.4,120.2H95l0,0c0.3,0.3,0.4,0.6,0.4,1c0,0.2,0,0.4-0.1,0.6l-0.1,0.5l-1,3.8l-3.9-5.9l0,0h-3.6l0,0
	c0.3,0.4,0.6,0.8,0.6,1.3c0,0.4-0.1,0.7-0.2,1.1l-1.3,5.1c-0.1,0.4-0.2,0.8-0.4,1.1c-0.2,0.4-0.5,0.7-0.9,1l0,0H88l0,0
	c-0.1-0.1-0.2-0.3-0.3-0.5c-0.1-0.2-0.1-0.3-0.1-0.5s0-0.4,0.1-0.6l0.1-0.4l1-3.9l2.4,3.8c0.3,0.5,0.6,0.9,1,1.4
	c0.3,0.2,0.6,0.4,0.9,0.6c0.3,0.1,0.7,0.3,1,0.4c0.3,0.1,0.7,0.2,1,0.2l2-7.8c0.1-0.4,0.2-0.8,0.4-1.1
	C97.7,120.7,98,120.4,98.4,120.2L98.4,120.2L98.4,120.2z M109.3,124.8h-3.7l0,0c0.2,0.2,0.4,0.4,0.4,0.7c0,0.1,0,0.2,0,0.3
	c0,0.1-0.1,0.2-0.1,0.4l-0.5,2.2H105h-0.4c-0.7,0.1-1.5-0.2-2-0.7c-0.4-0.5-0.6-1.1-0.5-1.7c0-0.5,0.1-1,0.2-1.4
	c0.2-0.9,0.7-1.6,1.3-2.2c0.8-0.6,1.7-0.9,2.7-0.9c0.5,0,0.9,0.1,1.3,0.2s0.7,0.3,1,0.6h0.1l0.5-2c-0.9-0.2-1.8-0.3-2.7-0.3
	c-1.8,0-3.5,0.5-5,1.4c-1.4,0.8-2.4,2.2-2.7,3.7c-0.1,0.4-0.2,0.8-0.2,1.2c0,1.2,0.6,2.2,1.5,2.8c1.2,0.7,2.5,1.1,3.9,1
	c0.6,0,1.3,0,1.9-0.1s1.3-0.2,2-0.3L109.3,124.8L109.3,124.8z M119.9,126.3c0-0.5-0.2-0.9-0.5-1.3c-0.4-0.4-0.9-0.6-1.4-0.6
	c0.5-0.1,1.1-0.4,1.5-0.7c0.4-0.3,0.7-0.7,0.8-1.2c0-0.1,0-0.3,0.1-0.4c0-0.3-0.1-0.5-0.2-0.8c-0.2-0.3-0.4-0.5-0.6-0.7
	c-0.3-0.2-0.6-0.3-0.9-0.4c-0.5-0.1-0.9-0.1-1.4-0.1H112l0,0c0.2,0.1,0.3,0.2,0.4,0.4c0.1,0.2,0.1,0.3,0.1,0.5s0,0.4-0.1,0.6
	c0,0.1-0.1,0.3-0.2,0.6l-1.4,5.5c-0.1,0.4-0.2,0.8-0.3,1.2c-0.2,0.4-0.5,0.7-0.9,0.9l0,0h5.1c0.6,0,1.1,0,1.7-0.1s1.1-0.3,1.6-0.6
	c0.9-0.5,1.6-1.3,1.8-2.3C119.8,126.6,119.9,126.4,119.9,126.3L119.9,126.3z M116.4,123.5c-0.3,0.2-0.6,0.4-1,0.4l-0.3-0.1l0.6-2.2
	c0.2-0.1,0.3-0.1,0.5-0.1c0.4-0.1,0.8,0.2,0.8,0.6c0,0.1,0,0.1,0,0.2s0,0.2,0,0.3C117,123,116.8,123.3,116.4,123.5L116.4,123.5z
	 M116,127.9c-0.4,0.3-0.9,0.5-1.3,0.5c-0.1,0-0.3,0-0.4,0s-0.2-0.1-0.3-0.1l0.8-3.1h0.4c1.1,0,1.6,0.4,1.6,1.1c0,0.2,0,0.4-0.1,0.5
	C116.6,127.3,116.3,127.7,116,127.9L116,127.9z M135.2,123.7c0-1.1-0.5-2.2-1.4-2.8c-1.2-0.7-2.5-1.1-3.9-1c-1.8,0-3.5,0.4-5,1.3
	c-1.4,0.8-2.5,2.1-2.9,3.7c-0.1,0.4-0.2,0.8-0.2,1.1c0,1.1,0.5,2.2,1.4,2.9c1.1,0.7,2.5,1.1,3.8,1c1.8,0,3.5-0.4,5-1.3
	c1.4-0.8,2.4-2.1,2.9-3.6C135.1,124.6,135.2,124.2,135.2,123.7L135.2,123.7z M131.1,126.6c-0.2,0.4-0.4,0.7-0.8,0.9
	c-0.4,0.3-0.8,0.6-1.2,0.8s-0.9,0.3-1.4,0.3c-0.4,0-0.9-0.1-1.2-0.4c-0.4-0.2-0.6-0.6-0.8-1c-0.2-0.5-0.3-1-0.3-1.5
	c0-0.4,0-0.8,0.1-1.2c0.2-0.8,0.6-1.6,1.3-2.2c0.7-0.7,1.6-1,2.5-1c0.7,0,1.4,0.3,1.9,0.8c0.4,0.5,0.5,1.2,0.5,1.8
	c0,0.2,0,0.5-0.1,0.7c0,0.2-0.1,0.5-0.1,0.7C131.4,125.9,131.3,126.3,131.1,126.6L131.1,126.6z M146.7,129.8
	c-0.2-0.1-0.3-0.3-0.4-0.4c-0.1-0.2-0.2-0.4-0.3-0.6l-2.4-4.7l4.9-3.9l0,0h-4.3l0,0c0.2,0.1,0.3,0.2,0.4,0.3
	c0.1,0.1,0.1,0.3,0.1,0.4c-0.1,0.2-0.2,0.5-0.4,0.6l-0.6,0.5l-2.8,2.3l0.6-2.3c0.1-0.4,0.2-0.8,0.3-1.1c0.2-0.4,0.5-0.7,0.9-0.9l0,0
	H138l0,0c0.2,0.1,0.3,0.2,0.4,0.4c0.1,0.1,0.1,0.3,0.1,0.5s0,0.4-0.1,0.6s-0.1,0.4-0.2,0.6l-1.4,5.5c-0.1,0.4-0.2,0.8-0.3,1.1
	c-0.2,0.4-0.5,0.7-0.9,0.9l0,0h4.7l0,0c-0.2-0.1-0.3-0.2-0.4-0.4c-0.1-0.1-0.1-0.3-0.1-0.5s0-0.4,0.1-0.6c0-0.1,0.1-0.3,0.2-0.6
	l0.6-2.2l1.1,2.6c0.4,0.8,0.8,1.3,1.2,1.4C144.2,129.8,145.5,129.9,146.7,129.8L146.7,129.8L146.7,129.8z"/>
<path class="st0" d="M1.5,128.2v2.5c0,0,4.3,2.2,16.7-6.7s20.6-12.8,25.2-13.8S67.1,105,79.3,94l6.7,0.6l26.4-12.8
	c0,0-5.3,6.9-9.3,8.8l-1.6-0.9L90.7,96c0,0,13.6,6.5,23.2-4.8s12.8-17.5,14.1-20.6c-3-0.6-6-0.7-9-0.4c0,0,8.8-13.6,10.8-20.2
	c5.1,0.6,10.2,0.1,15.1-1.6l1.7-2V44c-2.7-1-5.3-2.3-7.6-4c-3-2.4-4.8-5.1-9.2-4.8c0,0-2.7-5.4-7.9-7.5s-8.6-4.7-10.1-6.2
	c-1.8-1.6-4.1-2.4-6.5-2.3c1.3,1,2.4,2.2,3.3,3.5c1,1.7,3.6,6,6,7.5s4.9,5.2,4.9,5.2c-3.8-0.7-7.7-0.6-11.5,0.2c0,0,1.4,6,9.6,9.8
	c0,0-13,20.5-35.4,25.4s-26.4,3.6-30.7,10.3c-2.9-0.9-6.1-1.1-9.1-0.6c-4.5,1-11.5,0.5-15.1-2.2c0,0,2.9,9.7,9.5,8.7s6-3.1,11.7-0.8
	c-1,3-1.5,6.2-1.5,9.3c0.2,4.7-8.1,10.2-16.4,8.6c0,0-6.3,11.8-20,15.3l-1.1,2l-3-0.5L1.5,128.2z"/>
<path class="st1" d="M7.5,122.7l-3.8,5.7c0,0,5.4,0.3,12.4-5.4s18.8-12.7,24.8-14.4s20.4-4,37.5-17.2l7.5,0.7c0,0,11.2-4.6,13.9-6.6
	s15.1-7.5,16.2-7.4c0,0-1.3,7.5-13.5,14.7l-1.5-0.9l-5.5,3.2c0,0,6.7,3.4,15.4-3.9s13.5-18.8,13.5-18.8s-8-1.1-11.5,0.1l14.3-23.7
	l-1.4-4.1l4.1,1.7l1.8,2c0,0,8.4,0.1,12-1.5l-3.1-2L133,38l-6-1.8l-3.9-5c-1.8-1.4-3.7-2.6-5.8-3.6c-3.5-1.6-8.4-7.1-8.4-7.1
	s3.1,6.4,7.4,8.6s6.6,8.3,6.6,8.3s-6.9-1.7-11.9-0.5c0,0,1.3,4.8,9.4,7.7c0,0-12.7,21.9-33.7,27.1s-27.6,2.8-33.9,11.1
	c-1.6-0.1-3.2-0.4-4.8-0.9c-2.1-0.8-5.6-0.4-7.5,0.4l-6,2.3c0,0,1,2,6.5-0.4c3.3-1.4,7.1-1,10,1.1c-1,3-1.7,6.2-2.1,9.3
	c-0.2,3.7-1,10.6-17.4,11.8c0,0-5.7,9.9-20,14.5l-1.2,2.1L7.5,122.7z"/>
<path class="st2" d="M116.2,78.2c1-0.4-13.4,5.5-16.2,7.4s-13.9,6.6-13.9,6.6l-7.5-0.7c-7.8,6.1-16.6,10.8-26,14
	c0,0,10.7-13.4,11.6-18.1c0,0,27.9-2.2,32.5-8.5C96.6,78.9,112.1,79.9,116.2,78.2z"/>
<path class="st2" d="M113.3,72.4c0,0,11.7-12.2,15.3-23.3l-2.2-3.7c0,0,2.9,3.2,6,3.1s7-3.6,7-3.6l3.1,0.8l2.7-0.8
	c0,0-5-1.9-6.6-3.2s-5-5.6-9.8-4.8c0,0-3.1-5.8-8.3-7.6c0,0,8.2,12.1,9.1,13.3c-1.8,0.3-3.4,1.5-4.2,3.2c-1.3,2.9-2.2,6-4.4,9.2
	s-9,11.2-9,11.2l-1.8,4l0.6,1.3L113.3,72.4z"/>
<path class="st2" d="M30.1,81.1c0,0,3.7,8.5,11,0.9C37.4,82.8,33.6,82.5,30.1,81.1z"/>
<path class="st0" d="M58,98.3c0,0,4.1-8.3,4.5-10.4s2.6-2.5,5.3-2.6s17.7-0.7,28.6-9.2l12.2,2.7c0,0-6.2,1.2-8.6,0.7
	c0,0-7.8,4.8-14.8,6.6S70.7,88.7,68,88.5s-3.5-0.3-4.5,1.8C61.7,93.1,59.9,95.8,58,98.3z"/>
<path class="st0" d="M124.6,48.3c0,0-3.6,9.2-8.6,14.6s-5.5,8.2-3.2,9.7c0,0-4.5-0.9-3.6-3.9S121.7,56.2,124.6,48.3z"/>
<path class="st0" d="M140.6,45.2c0,0-6.6-1.2-8.1-2.5h-3.2l-5.1-7.7l4.8,4.3c1.5-0.1,2.9,0.4,4,1.4
	C134.8,42.5,140.6,45.2,140.6,45.2z"/>
<path class="st0" d="M122.4,39.3l2.2,3.3c0,0-5.9,0.3-9.8-4.1L122.4,39.3z"/>
<path class="st1" d="M20.2,25.7h-0.1l-0.4,0.7l0,0c0.2-0.1,0.4-0.2,0.6-0.2h0.3L20.3,28c0,0.1-0.1,0.2-0.1,0.4
	c-0.1,0.1-0.2,0.2-0.3,0.3h1.4l-0.1-0.1c0-0.1,0-0.1,0-0.2s0-0.1,0-0.2V28l0.5-1.8c0.1,0,0.2,0,0.3,0c0.1,0,0.2,0,0.3,0
	c0.1,0,0.1,0.1,0.1,0.1l0.4-0.7L20.2,25.7z M26.9,28.6c-0.1,0-0.1-0.1-0.1-0.2s0-0.1,0-0.2v-0.1v-0.2L27,26c0-0.1,0-0.1,0.1-0.2
	l0.2-0.1H26l-1,1.7l-0.4-1.7h-1.2c0.1,0.1,0.1,0.2,0.1,0.3v0.1L22.8,28c0,0.1-0.1,0.2-0.1,0.3c-0.1,0.1-0.2,0.2-0.3,0.3h1
	c-0.1,0-0.2-0.1-0.2-0.2v-0.1l0.6-1.5l0.3,1.2c0,0.1,0,0.2,0.1,0.3c0,0.1,0.1,0.2,0.2,0.2l0.2,0.1c0.1,0,0.2,0.1,0.2,0.1l1.2-2
	l-0.2,1.6c0,0.1,0,0.1-0.1,0.2c0,0.1-0.1,0.1-0.2,0.1H26.9L26.9,28.6z"/>
<path class="st0" d="M49.9,19.8l4.7,6.2l3.8-2.5l3,5.1l4.6-2.1c2.5,4.8,2.6,11.1,2.6,11.1c1.4-0.5,3-0.8,4.5-0.8
	c0.7,9.9-9.8,15.4-9.8,15.4c3.8,0,7.4-1.3,10.3-3.7C71.6,67.5,53,63,53,63c0.2,1.7-3.1,5.8-3.1,5.8s-3.2-4.1-3.1-5.8
	c0,0-18.6,4.4-20.7-14.5c2.9,2.4,6.5,3.7,10.3,3.7c0,0-10.6-5.5-9.8-15.4c1.5,0,3,0.3,4.5,0.8c0,0,0.2-6.3,2.6-11.1l4.6,2.1l3-5.1
	l3.8,2.4L49.9,19.8z"/>
<path class="st1" d="M49.9,60.3c-1.2-3.2-4.2-5.4-7.6-5.6c-6-0.5-12.3-1.4-14.5-3.5C27.8,51.3,30.3,66.3,49.9,60.3z"/>
<path class="st2" d="M30,53.3c2.9,2.6,6.5,4.2,10.3,4.7c6.8,0.9,7.6,1.9,7.6,1.9c-1.7-1.6-3.9-2.6-6.2-2.9
	C38.1,56.7,30.6,54.4,30,53.3z"/>
<path class="st1" d="M49.9,60.3c1.2-3.2,4.2-5.4,7.6-5.6c6-0.5,12.3-1.4,14.5-3.5C72.1,51.3,69.5,66.3,49.9,60.3z"/>
<path class="st2" d="M69.8,53.4C67,56,63.4,57.6,59.5,58c-6.8,0.9-7.6,1.9-7.6,1.9c1.7-1.6,3.8-2.6,6.1-2.9
	C61.7,56.7,69.3,54.4,69.8,53.4z"/>
<polygon class="st1" points="41.5,24.2 39.9,29.4 43.2,31.2 47,30.5 "/>
<path class="st1" d="M42.4,52.5c0,0-10.4-6.9-11.1-13.2l-3-0.6C28.3,38.6,27.9,49.8,42.4,52.5z"/>
<polygon class="st1" points="58.3,24.2 60,29.4 56.6,31.2 52.8,30.5 "/>
<path class="st1" d="M53,36.7L65.3,28c0,0,8.2,14-10.6,25.7l3-8.8c0,0-3.4,9.5-7.8,12c-4.4-2.5-7.8-12-7.8-12l3,8.8
	C26.3,42,34.5,28,34.5,28l12.3,8.8L53,36.7z"/>
<path class="st1" d="M57.4,52.5c0,0,10.4-6.9,11.1-13.2l2.9-0.6C71.5,38.6,71.9,49.8,57.4,52.5z"/>
<path class="st1" d="M49.9,62.4l1.6,0.5c0,1.8-0.5,3.6-1.6,5c-1.1-1.4-1.6-3.2-1.6-5L49.9,62.4z"/>
<polygon class="st1" points="49.9,20.3 52.6,27.6 49.9,29.6 47.2,27.6 "/>
<path class="st0" d="M33.1,39.2c0.1,1.5,0.8,2.9,1.9,3.8c3,2.6,6.7,4.4,10.6,5.1c1.4,0.3,2.8,0.5,4.3,0.5H50c1.4,0,2.9-0.1,4.3-0.5
	c3.9-0.8,7.6-2.5,10.6-5.1c1.1-1,1.8-2.4,1.8-3.8V39c0-1.5-0.7-2.9-1.8-3.8c-3-2.6-6.7-4.4-10.6-5.1c-1.4-0.3-2.9-0.5-4.3-0.4h-0.2
	c-1.4,0-2.9,0.1-4.3,0.5C41.6,31,38,32.7,35,35.3c-1.1,1-1.8,2.4-1.8,3.8L33.1,39.2z"/>
<path class="st2" d="M34.5,38.9c0,1.1,0.5,2,1.3,2.7c3.1,2.7,7,4.3,11.1,4.8c0.9,0.2,1.9,0.3,2.8,0.3H50c1,0,1.9-0.1,2.8-0.3
	c4.1-0.4,8-2.1,11.2-4.8c0.8-0.7,1.3-1.7,1.3-2.7v-0.1c0-1-0.5-2-1.3-2.7c-3.1-2.6-7-4.3-11.1-4.7c-1-0.2-1.9-0.3-2.9-0.3h-0.2
	c-1,0-1.9,0.1-2.8,0.3c-4.1,0.4-7.9,2-11.1,4.7c-0.8,0.6-1.3,1.6-1.3,2.7v0.1H34.5z"/>
<path class="st0" d="M49.8,42.8c0.5-1.2,0.7-2.4,0.6-3.7c0-1.3-0.2-2.5-0.6-3.7c-0.5,1.2-0.7,2.4-0.6,3.7
	C49.2,40.4,49.4,41.7,49.8,42.8z"/>
<path class="st0" d="M46.9,42.8c0.5-1.2,0.7-2.4,0.6-3.7c0-1.3-0.2-2.5-0.6-3.7c-0.5,1.2-0.7,2.4-0.6,3.7
	C46.2,40.4,46.4,41.7,46.9,42.8z"/>
<path class="st0" d="M52.8,42.8c0.5-1.2,0.7-2.4,0.6-3.7c0-1.3-0.2-2.5-0.6-3.7c-0.5,1.2-0.7,2.4-0.6,3.7
	C52.1,40.4,52.3,41.7,52.8,42.8z"/>
</svg>
