<?xml version="1.0" encoding="utf-8"?>
<!-- Generator: Adobe Illustrator 26.0.2, SVG Export Plug-In . SVG Version: 6.00 Build 0)  -->
<svg version="1.1" id="svg7832" xmlns:svg="http://www.w3.org/2000/svg"
	 xmlns="http://www.w3.org/2000/svg" xmlns:xlink="http://www.w3.org/1999/xlink" x="0px" y="0px" width="274.7px" height="395.9px"
	 viewBox="0 0 274.7 395.9" style="enable-background:new 0 0 274.7 395.9;" xml:space="preserve">
<style type="text/css">
	.st0{fill:#213662;}
	.st1{fill:#FFFFFF;}
</style>
<g>
	<polygon class="st0" points="268.2,310.5 136.7,391 4.8,310.5 4.8,1.6 268.2,1.6 	"/>
</g>
<polygon id="polygon860" class="st1" points="12.1,305.1 12.1,128.5 59.2,128.5 59.2,334.2 "/>
<polygon id="polygon862" class="st1" points="214.2,334.2 214.2,128.5 261.4,128.5 261.4,305.1 "/>
<path id="path864" class="st1" d="M69.5,41.1H50.2c0.2-1.4,0.2-2.1,0.2-2.8c0-6.3-3.4-10-9.4-10c-5.2,0-8.8,3.2-8.8,7.7
	c0,2.7,1.2,4.7,3.9,6.3c1.2,0.8,3.6,2,6.1,3c1.2,0.4,4.9,1.8,9.8,3.7c14.5,5.7,18.7,11.2,18.7,25.1c0,16.3-11.4,26.5-29.4,26.5
	c-10.5,0-20.1-3.2-29.5-10V69.1h20.1v3c0,7.7,3,11.1,9.6,11.1c5.5,0,9.3-3.6,9.3-8.9c0-5.5-2.4-7.7-14.4-12.6
	c-8.9-3.5-9.8-3.9-12.8-5.5c-7.7-4.1-11.4-10.6-11.4-20.5c0-15.9,10.9-25.1,29.7-25.1c10,0,20.1,3.7,27.7,10L69.5,41.1L69.5,41.1z"
	/>
<path id="path866" class="st1" d="M163.7,70.8c0,9.8-0.6,13.3-3,17.5c-4.4,7.1-13.2,11.2-24.7,11.2s-20.3-4-24.8-11.2
	c-2.2-3.5-3.1-7.3-3.1-13.2v-4.9V34.7c0-6.2-0.8-7.7-4.5-8.7V12h28.8v14c-3.6,0.9-4.5,2.6-4.5,8.7v35.9c0,4.1,0.2,5.9,1.4,7.7
	c1.4,2.3,4.5,3.7,8,3.7c6.5,0,9.1-3.4,9.1-11.6V34.7c0-6.2-0.8-7.7-4.5-8.7V12h26.4v14c-3.7,0.9-4.5,2.4-4.5,8.7L163.7,70.8
	L163.7,70.8z"/>
<path id="path868" class="st1" d="M256.2,76.5c1,5.2,2,6.6,5.1,7.7v14h-29.5v-14c3-0.2,4.4-1.6,4.4-3.9c0-0.8-0.2-1.8-0.4-2.8
	l-0.6-3.7h-16.7l-0.8,3.7c-0.2,0.8-0.2,1.6-0.2,2.3c0,3,1.3,4.1,4.7,4.4v14H196v-14c3-1.3,3.9-2.8,4.9-8.4L213.2,12H243L256.2,76.5z
	 M226.1,33.1l-5.5,28.2h11.6L226.1,33.1z"/>
<polygon id="polygon870" class="st1" points="109.7,205 163.7,205 163.7,365.5 136.7,382.1 136.7,382.2 136.7,382.1 109.7,365.5 "/>
<path id="path872" class="st1" d="M127.7,154.5H110v-4.2c1.1-0.3,1.3-0.7,1.3-2.6v-12.3c0-1.9-0.2-2.3-1.3-2.6v-4.2h8.7v4.2
	c-1.1,0.3-1.3,0.7-1.3,2.6v14.3h1.6c2,0,2.3-0.1,2.8-0.5c0.4-0.4,0.5-0.9,0.5-2V143h5.3L127.7,154.5L127.7,154.5z"/>
<path id="path874" class="st1" d="M163.4,136.9h-5.7c0.1-0.3,0.1-0.5,0.1-0.6c0-1.9-0.9-2.9-2.7-2.9c-2,0-2.9,1.1-2.9,3.4v9.5
	c0,1,0.1,1.6,0.3,2c0.3,0.8,1.3,1.3,2.5,1.3c1.8,0,2.7-1,2.7-3.2V145h-2.3v-4.1h8v11.7c-2.4,1.6-5.2,2.4-8.6,2.4
	c-3.7,0-6.5-1.1-7.7-3.2c-0.5-0.9-0.8-2-0.8-3.7v-13c0-2.2,0.3-3.4,1.3-4.5c1.6-1.7,4-2.6,7.7-2.6c2.8,0,5.7,0.7,8.2,2L163.4,136.9
	L163.4,136.9z"/>
<g id="g884" transform="translate(-162.83,1)">
	<path id="path876" class="st1" d="M284.3,180.8c0,0.9,0.2,1,0.6,1.2v1.9H281V182c0.5-0.2,0.6-0.3,0.6-1.2v-5.5c0-0.9-0.1-1-0.6-1.2
		v-1.9h3.3V180.8z"/>
	<path id="path878" class="st1" d="M291.3,180.5v0.2c0,0.8,0.5,1.2,1.2,1.2c0.9,0,1.2-0.5,1.2-1.5V179c-0.8,0.5-1.4,0.6-2.2,0.6
		c-1.2,0-2.1-0.5-2.6-1.2c-0.3-0.5-0.5-1.1-0.5-2.2c0-1.8,0.2-2.5,0.8-3.1c0.6-0.7,1.8-1,3.4-1c1.3,0,2.3,0.3,3,0.9
		c0.5,0.5,0.8,1.2,0.8,2.3v5.5c0,1.2-0.3,2-1,2.5s-1.5,0.8-2.9,0.8s-2.5-0.2-3.9-0.9v-2.7L291.3,180.5L291.3,180.5z M291.4,175.8
		c0,1.1,0.4,1.6,1.2,1.6c0.4,0,0.7-0.2,0.9-0.4c0.2-0.2,0.3-0.6,0.3-1.2c0-1-0.4-1.5-1.2-1.5C291.8,174.3,291.4,174.8,291.4,175.8
		L291.4,175.8z"/>
	<path id="path880" class="st1" d="M307.1,181c0,1.1-0.3,1.8-0.9,2.3c-0.7,0.5-1.6,0.8-3,0.8c-1.2,0-2.3-0.3-3-0.9
		c-0.6-0.5-0.9-1.1-0.9-2.1v-5.9c0-1.2,0.3-1.9,1-2.4s1.6-0.8,3-0.8c1.2,0,2.3,0.3,3,0.9c0.6,0.5,0.9,1.2,0.9,2.3L307.1,181
		L307.1,181z M302,180.2c0,0.6,0.1,0.9,0.3,1.1s0.5,0.4,0.9,0.4c0.3,0,0.7-0.2,0.9-0.5c0.2-0.2,0.3-0.5,0.3-1.2v-4.3
		c0-0.5-0.1-0.8-0.3-1c-0.2-0.2-0.6-0.4-0.9-0.4c-0.8,0-1.2,0.5-1.2,1.6L302,180.2L302,180.2z"/>
	<path id="path882" class="st1" d="M318,180.7c0,2.3-1.3,3.4-4.2,3.4c-2.7,0-4-1.1-4-3.4c0-1.6,0.5-2.5,1.7-2.9
		c-1.2-0.5-1.5-1.2-1.5-2.7c0-1,0.3-1.8,0.9-2.3c0.7-0.6,1.7-0.9,3-0.9c1.2,0,2.3,0.3,3,0.9c0.7,0.5,0.9,1.2,0.9,2.4
		c0,1.4-0.4,2.1-1.5,2.5C317.6,178.3,318,179.1,318,180.7L318,180.7z M312.6,180.3c0,1,0.5,1.6,1.3,1.6s1.3-0.6,1.3-1.6
		c0-0.9-0.5-1.5-1.3-1.5S312.6,179.2,312.6,180.3z M312.7,175.7c0,0.9,0.5,1.3,1.2,1.3s1.2-0.5,1.2-1.3c0-0.7-0.5-1.2-1.2-1.2
		C313.2,174.4,312.7,174.8,312.7,175.7z"/>
</g>
<g id="g896" transform="translate(-162.83,1)">
</g>
</svg>
