<?xml version="1.0" encoding="utf-8"?>
<!-- Generator: Adobe Illustrator 26.0.2, SVG Export Plug-In . SVG Version: 6.00 Build 0)  -->
<svg version="1.1"
	 id="svg2" xmlns:cc="http://creativecommons.org/ns#" xmlns:dc="http://purl.org/dc/elements/1.1/" xmlns:rdf="http://www.w3.org/1999/02/22-rdf-syntax-ns#" xmlns:svg="http://www.w3.org/2000/svg"
	 xmlns="http://www.w3.org/2000/svg" xmlns:xlink="http://www.w3.org/1999/xlink" x="0px" y="0px" width="700px" height="530px"
	 viewBox="0 0 700 530" style="enable-background:new 0 0 700 530;" xml:space="preserve">
<style type="text/css">
	.st0{fill:#82ADD8;}
</style>
<g id="g10" transform="matrix(1.25,0,0,-1.25,0,529.99995)">
	<g id="g5048" transform="matrix(5.2491957,0,0,5.2319932,-2410.2049,-3802.5766)">
		<path id="path162" d="M469,755.1v-12.2h2.7v3.8h2.7c3.1,0,4.4,0.6,4.4,4.1c0,3.3-1,4.3-4.4,4.3L469,755.1L469,755.1z M476.1,750.9
			c0-1.5-0.2-1.7-1.7-1.8h-2.7v3.7l2.8,0C475.9,752.8,476.1,752.4,476.1,750.9"/>
		<path id="path164" d="M484,746.8h3.2c0.9,0,1.3-0.5,1.3-1.5v-2.4h2.7v2.4c0,1.3-0.3,2.3-1.4,2.7c1.5,0.6,1.5,2,1.5,3.3
			c0,2.7-1,3.7-3.8,3.7h-6.2v-12.2h2.7L484,746.8L484,746.8z M484,752.8h2.9c1.5,0,1.7-0.2,1.7-1.7c0-1.6-0.3-1.8-1.9-1.8H484
			L484,752.8L484,752.8z"/>
		<path id="path166" d="M499.1,742.8c3.5,0,5.2,0.7,5.2,4.7v3.2c0,3.1-0.8,4.5-5.2,4.5c-3.8,0-5.2-0.7-5.2-4.5v-3.2
			C493.9,743.5,495.4,742.8,499.1,742.8 M496.6,750.7c0,1.7,0.2,2.2,2.5,2.2c1.2,0,1.8-0.1,2.1-0.4c0.3-0.3,0.4-0.8,0.4-1.7v-3.2
			c0-2.1-0.5-2.3-2.5-2.3c-2.2,0-2.5,0.1-2.5,2.3L496.6,750.7L496.6,750.7z"/>
		<path id="path172" d="M513.4,742.9l3.9,12.2h-2.8l-3-9.4l-3,9.4h-2.8l3.9-12.2L513.4,742.9L513.4,742.9z"/>
		<path id="path174" d="M527.6,745.3h-5.8v2.7h5.5v2.3h-5.5v2.5h5.8v2.4h-8.5v-12.2h8.5L527.6,745.3L527.6,745.3z"/>
		<path id="path176" d="M539.3,745.9l-4.7,9.2h-4.1v-12.2h2.7l-0.2,9.3l4.7-9.3h4.1v12.2h-2.7L539.3,745.9z"/>
		<path id="path182" d="M552.1,746.7c0-1.5-0.6-1.5-2.4-1.5c-2.3,0-2.4,0.4-2.4,2.6v2.6c0,2.2,0.3,2.5,2.4,2.5
			c2.1,0,2.3-0.1,2.3-1.2v-0.9h2.7v0.9c-0.2,3.6-2.1,3.6-5,3.6c-3.3,0-5.1-0.8-5.1-4.8v-2.7c0-3.3,0.7-4.9,4.5-4.9
			c0.2,0,0.4,0,0.6,0l0.5,0c2.6,0.1,4.7,0.2,4.6,3.7v1h-2.7V746.7L552.1,746.7z"/>
		<path id="path188" d="M560,748h5.5v2.3H560v2.5h5.8v2.4h-8.5v-12.2h8.5v2.4H560V748L560,748z"/>
		<path id="path194" d="M479,735.3c0,2.7-1,3.7-3.8,3.7H469v-12.2h2.7v3.9h3.2c0.9,0,1.3-0.5,1.3-1.5v-2.4h2.7v2.4
			c0,1.3-0.3,2.3-1.4,2.7C479,732.6,479,734,479,735.3 M474.4,733.1h-2.8v3.6h2.9c1.5,0,1.7-0.2,1.7-1.7
			C476.3,733.4,476,733.1,474.4,733.1"/>
		<path id="path196" d="M489.4,730.5c0-1-0.3-1.3-2.4-1.3c-2.2,0-2.4,0.4-2.4,1.3v8.6h-2.7v-8.6c0-3.4,2.2-3.7,5.1-3.7
			c2.9,0,5.1,0.3,5.1,3.7v8.6h-2.7L489.4,730.5L489.4,730.5z"/>
		<path id="path198" d="M499.8,731.4h3v-0.2c0-2.1-0.5-2.1-2.6-2.1c-2.4,0-2.7,0.2-2.7,2.5v2.7c0,2.2,0.2,2.5,2.7,2.5h0.1
			c2,0,2.5-0.1,2.5-1.5v-0.2h2.7l0,0.2c0,1.4-0.2,2.3-0.8,2.9c-0.8,0.9-2.2,0.9-3.8,0.9h-0.6c-3.6,0-5.4-0.7-5.4-4.8v-2.7
			c0-4.2,1.6-4.9,5.4-4.9c4.3,0,5.3,0.8,5.3,4.4v2.3h-5.6V731.4L499.8,731.4z"/>
		<path id="path200" d="M516.7,733.2c1,0.5,1.2,1.4,1.2,2.6c0,2.8-1.3,3.3-3.7,3.3h-6.1v-12.2h6.3c2.4,0,3.8,0.6,3.8,3.5
			C518.2,731.6,518,732.8,516.7,733.2 M510.9,736.7h3c1.1,0,1.4-0.1,1.4-1.1c0-1.2-0.2-1.4-1.3-1.4h-3L510.9,736.7L510.9,736.7z
			 M513.8,729.2h-2.9v2.8h3.2c1.2,0,1.4-0.2,1.4-1.4C515.5,729.3,515.1,729.2,513.8,729.2"/>
		<path id="path206" d="M525.4,734.2l-2.7,4.8h-3.1l4.4-7.5v-4.7h2.7v4.7l4.5,7.5h-3.1L525.4,734.2z"/>
	</g>
	<g id="g5081" transform="matrix(5.2491957,0,0,5.2319932,-2410.2049,-3802.5766)">
		<path id="path212" class="st0" d="M480.7,770.5c-1.2-1.4-0.9-4,0.7-5.8c1.6-1.8,3.8-2.2,5-0.9c1.2,1.4,0.9,4-0.7,5.8
			C484.2,771.5,481.9,771.9,480.7,770.5"/>
		<path id="path214" class="st0" d="M515.3,795.9c0,0-3.2,0.4-7.1-1c-3.4-1.2-5.6-3.2-6-3.6c0.7,1.6,1.2,3.3,1.5,4.7
			c0.1,0.2,1.5,2.4,1.9,5.7c0.4,3.6,0.1,6,0.1,6c-0.1,0.3-0.3,0.3-0.4,0.1c0,0-1.3-2.2-1.9-5.8c-0.5-3.1-0.2-5.3-0.1-5.8
			c-0.6-2.4-1.7-5.2-4-7.7c0,0.1,0.5,3.5-0.5,8c-1.1,4.6-3.1,7.5-3.1,7.5c-0.2,0.3-0.4,0.2-0.4-0.1c0,0-0.5-3.4,0.5-8
			c1.1-4.5,3.2-7.7,3.2-7.8c-1.2-1.3-2.7-2.5-4.5-3.6c-0.1,0.5-0.6,4.1-2.8,8c-2.4,4.2-5.2,6.4-5.2,6.4c-0.2,0.2-0.4,0.1-0.4-0.2
			c0,0,0.4-3.7,2.8-7.9c2.2-3.9,5-6.2,5.4-6.5c-1.1-0.6-2.2-1.2-3.5-1.7c-0.9-0.4-1.9-0.8-2.7-1.2l0,0c0,0-1.3,4.1-4.5,7.9
			c-3.2,3.8-6.4,5.2-6.4,5.2c-0.3,0.1-0.4,0-0.3-0.3c0,0,1.3-4,4.5-7.8c3.1-3.7,6.2-5.1,6.3-5.2c-2.3-1.2-4.4-2.6-6.3-4.1l0,0
			c0,0-2.1,4.1-6,7.3c-3.9,3.2-7.5,4-7.5,4c-0.3,0.1-0.4-0.1-0.3-0.4c0,0,2-3.9,5.9-7.1c3.7-3,7.1-3.9,7.5-4
			c-1.8-1.5-3.5-3.2-4.9-4.8l0.1,0.1c0,0-3,3-7.8,4.6c-4.9,1.6-9,1-9,1c-0.3,0-0.4-0.3-0.1-0.5c0,0,2.9-2.9,7.7-4.5
			c4.9-1.6,8.8-1,8.8-1l0.2,0.3c-5-5.8-7.2-11.5-7.2-11.5h3c1.7,0,2.2,1.5,2.3,1.6c1.1,3.1,4.2,10.1,11.3,15.3
			c0.1-0.3,1.9-4.2,5.4-7.6c3.7-3.6,7.2-4.6,7.2-4.6c0.3-0.1,0.4,0.1,0.3,0.4c0,0-1.8,4-5.4,7.6c-3.5,3.4-6.7,4.5-7,4.6
			c1.6,1.1,3.4,2.1,5.3,3c0.3,0.1,0.5,0.2,0.5,0.2s2.9-3,7.2-4.8c4.3-1.8,7.7-1.4,7.7-1.4c0.3,0,0.4,0.2,0.2,0.5c0,0-2.7,2.9-7,4.7
			c-4.3,1.8-7.4,1.3-7.4,1.3l-0.1,0c2.4,1.2,4.3,2.6,5.8,4.1l0,0c0,0,3.5-1.8,7.8-2c4.3-0.2,7.3,1.3,7.3,1.3c0.3,0.1,0.3,0.4,0,0.5
			c0,0-3.1,1.7-7.5,1.8c-4,0.1-6.8-1.1-7.2-1.3c1.5,1.6,2.6,3.3,3.4,5l0,0c0,0,3.6-0.3,7.5,1.1c3.9,1.4,6.1,3.7,6.1,3.7
			C515.7,795.7,515.6,795.9,515.3,795.9"/>
	</g>
	<g id="g5063" transform="matrix(5.2491957,0,0,5.2319932,-2410.2049,-3802.5766)">
		<path id="path220" class="st0" d="M506.6,765.8h-0.8l-2.2-5.2h1.2l0.4,1h1.9l0.4-1h1.2L506.6,765.8L506.6,765.8L506.6,765.8z
			 M505.6,762.6l0.6,1.5l0.6-1.5H505.6L505.6,762.6z"/>
		<path id="path222" class="st0" d="M511.4,765.7h-1.1v-5.1h1.1V765.7z"/>
		<path id="path224" class="st0" d="M514.5,765.7h-1.4l1.5-2.4l-1.8-2.7h1.3l1.1,1.7l1.1-1.7h1.3l-1.7,2.7l1.6,2.4h-1.4l-0.9-1.5
			L514.5,765.7L514.5,765.7z"/>
		<path id="path226" class="st0" d="M523.5,763.5l1.2-2.9h0.4l1.3,2.9l0.4-2.8h1.1l-0.9,5.2h-0.8l-1.4-3.1l-1.3,3.1h-0.8l-1-5.2h1.1
			L523.5,763.5L523.5,763.5z"/>
		<path id="path228" class="st0" d="M530.8,761.7h1.9l0.4-1h1.2l-2.1,5.2l0,0.1h-0.8l-2.2-5.2h1.2L530.8,761.7L530.8,761.7z
			 M531.8,764.1l0.6-1.5h-1.2L531.8,764.1z"/>
		<path id="path234" class="st0" d="M539.2,764.2c0,1-0.7,1.5-1.8,1.5h-1.5v-5.1h1.1v2l1.3-2h1.4l-1.6,2.1
			C538.9,762.9,539.2,763.4,539.2,764.2 M537.2,763.5H537v1.3h0.2c0.6,0,0.8-0.2,0.8-0.7C538.1,763.7,537.8,763.5,537.2,763.5"/>
		<path id="path236" class="st0" d="M544.6,762.2c0,0.8-0.3,1.2-1.5,1.6c-0.6,0.2-0.7,0.3-0.7,0.5c0,0.3,0.3,0.5,0.6,0.5
			c0.3,0,0.5-0.1,0.7-0.4l0.1-0.1l0.6,0.8l-0.1,0.1c-0.4,0.4-0.9,0.6-1.5,0.6c-0.9,0-1.6-0.6-1.6-1.5c0-0.7,0.3-1.1,1.3-1.4
			c0.4-0.1,0.6-0.2,0.6-0.3c0.2-0.1,0.3-0.3,0.3-0.4c0-0.4-0.3-0.6-0.7-0.6c-0.4,0-0.8,0.2-1,0.6l0,0.1l-0.8-0.7l0-0.1
			c0.5-0.7,1-1,1.8-1C543.8,760.5,544.6,761.2,544.6,762.2"/>
		<path id="path242" class="st0" d="M549.3,761.6h-1.8v1.2h1.7v1h-1.7v0.9h1.8v1h-2.9v-5.1h2.9V761.6z"/>
		<path id="path244" class="st0" d="M552.3,765.7h-1.1v-5.1h1.1V765.7z"/>
		<path id="path246" class="st0" d="M557,761.6h-1.5v4.1h-1.1v-5.1h2.7V761.6z"/>
		<path id="path248" class="st0" d="M561.3,761.6h-1.5v4.1h-1.1v-5.1h2.7V761.6z"/>
		<path id="path250" class="st0" d="M565.8,764.7v1h-2.9v-5.1h2.9v1h-1.8v1.2h1.7v1h-1.7v0.9H565.8z"/>
	</g>
</g>
</svg>
