<?xml version="1.0" encoding="utf-8"?>
<!-- Generator: Adobe Illustrator 26.0.2, SVG Export Plug-In . SVG Version: 6.00 Build 0)  -->
<svg version="1.1" id="Calque_1" xmlns="http://www.w3.org/2000/svg" xmlns:xlink="http://www.w3.org/1999/xlink" x="0px" y="0px"
	 width="118.1px" height="177.7px" viewBox="0 0 118.1 177.7" style="enable-background:new 0 0 118.1 177.7;" xml:space="preserve"
	>
<style type="text/css">
	.st0{fill:none;stroke:#FFFFFF;stroke-width:2;stroke-miterlimit:10;}
	.st1{fill:#FFFFFF;}
	.st2{fill:#009E6A;}
	.st3{fill:#B5282F;}
	.st4{fill:#E52E33;}
	.st5{fill:#00643F;}
</style>
<path class="st0" d="M97.1,144.9h0.4l-0.8-1.4c0.4,0,1-0.2,1-0.8c0-0.8-0.6-1-1.2-1h-1.4v3.3h0.6v-1.4h0.6L97.1,144.9z M95.7,143
	v-0.8h0.8c0.4,0,0.6,0,0.6,0.4s-0.6,0.4-1,0.4L95.7,143L95.7,143z"/>
<path class="st0" d="M99.2,143.2c0.1-1.5-1.1-2.8-2.7-2.9c-0.1,0-0.2,0-0.2,0c-1.7-0.1-3,1.2-3.1,2.9l0,0c0,1.7,1.4,3.1,3.1,3.1
	C98,146.2,99.3,144.9,99.2,143.2L99.2,143.2z M93.8,143.2c0-1.3,1-2.5,2.3-2.5c0.1,0,0.1,0,0.2,0c1.4,0,2.5,1.1,2.5,2.5
	s-1.1,2.5-2.5,2.5c-1.3,0-2.5-1-2.5-2.3C93.8,143.3,93.8,143.3,93.8,143.2z"/>
<path class="st0" d="M18.3,158.7v-4.1h1.4c0.6,0,2.5,0,2.7,0.4v-1.9h-4.1v-3.3h2.1c0.8,0,2.7,0,3.3,0.6v-2.1h-8.3v12h8.7l0.8-2.5
	c0,0-1,0.8-4.1,0.8h-2.5C18.3,158.6,18.3,158.7,18.3,158.7z"/>
<path class="st0" d="M38.8,160.8v-10.1c0-0.8,0-1.7,1-2.1v-0.2h-2.9v8.3l-6.8-7.5l-0.4-0.2c0-0.2-0.2-0.4-0.2-0.6h-2.9v9.7
	c0,0.8,0,1.7-1,2.1v0.2h2.9v-8.9l6.6,7C36,159.7,37.3,160.5,38.8,160.8z"/>
<path class="st0" d="M47.9,149.4c1,0,3.7,0.6,4.3,1.4h0.2v-2.1c-1.3-0.3-2.7-0.5-4.1-0.6c-4.6,0-7.9,2.5-7.9,6.2
	c0,3.5,2.9,6.2,7.7,6.2c1.6,0,3.2-0.2,4.8-0.4v-5.8h-3.3c0.8,0.2,0.8,1,0.8,1.9v2.9c-0.8,0.2-1.5,0.2-2.3,0.2
	c-3.1,0-4.3-2.9-4.3-5.2C43.7,152.1,45,149.4,47.9,149.4z"/>
<path class="st0" d="M58.8,148.6v-0.2h-3.9v12h8.5l1-2.5h-0.2c-1,0.8-2.2,1.1-3.5,1H58V151C58,150.3,57.8,148.8,58.8,148.6z"/>
<path class="st0" d="M64,160.4h3.3v-0.2c-1-0.2-0.8-0.8-0.4-1.9l1-2.5h4.8l1.9,4.6h4.1v-0.2c-1-0.4-1.4-1.4-1.9-2.5l-4.1-9.3h-4.3
	v0.2c1,0.2,0.6,1,0.2,1.7L64,160.4z M70.4,150l1.9,4.6h-3.9L70.4,150z"/>
<path class="st0" d="M82,151.5l6.6,7c1,1.1,2.3,1.9,3.7,2.3v-10.1c0-0.8,0-1.7,0.8-2.1v-0.2h-2.7v8.3l-6.8-7.5l-0.4-0.2
	c0-0.2-0.2-0.4-0.2-0.6h-2.9v9.7c0,0.8,0,1.7-1,2.1v0.2H82V151.5z"/>
<path class="st0" d="M100,148.4h-5v12h4.8c4.6,0,7.9-2.5,7.9-6C107.7,150.7,104.6,148.4,100,148.4z M99.4,158.9H98V150l1.9-0.2
	c3.3,0,4.8,1.9,4.8,4.8S102.5,158.9,99.4,158.9z"/>
<path class="st0" d="M39.2,173.9l-2.7-3.1c1.4-0.4,3.1-1.2,3.1-3.1s-2.3-3.1-4.8-3.1h-5.2v12h4v-0.2c-1-0.2-1-1.7-1-2.5v-3.5
	l2.5,2.5l2.3,2.7c0.5,0.7,1.4,1.1,2.3,1h2.5C41.1,175.8,40.1,174.9,39.2,173.9z M32.6,170.1v-4.3H34c1.2,0,2.5,0.6,2.5,1.9
	C36.5,169.3,34.2,169.9,32.6,170.1z"/>
<path class="st0" d="M55.1,164.7l-0.2-0.2h-3.5v8.1c0,0.6-0.1,1.2-0.4,1.7c-0.8,0.8-1.8,1.2-2.9,1.2c-2.1,0-3.1-1.2-3.1-3.5v-7.5
	h-2.9v7.5c-0.2,1.3,0.2,2.5,1,3.5c1.2,1.2,2.9,1.2,4.6,1.2c1.4,0,2.7-0.5,3.7-1.4v1.2h3.7v-0.2c-1-0.2-1-1.4-1-2.3v-7
	C54.1,166.2,54.1,165,55.1,164.7z"/>
<path class="st0" d="M65.5,170.5c0.8,0.2,0.8,1,0.8,1.9v2.9c-0.8,0.2-1.5,0.2-2.3,0.2c-2.9,0-4.3-2.9-4.3-5.2c0-2.1,1.2-4.8,4.1-4.8
	c1.6,0.1,3.2,0.5,4.6,1.4v-2.1c-1.3-0.3-2.7-0.5-4.1-0.6c-4.6,0-7.7,2.5-7.7,6.2c0,3.5,2.7,6.2,7.7,6.2c1.5,0,3.1-0.2,4.6-0.4v-6
	h-3.3L65.5,170.5L65.5,170.5z"/>
<path class="st0" d="M78.5,169.5c1.2-0.4,2.3-1,2.3-2.3c0-1.9-2.1-2.7-4.8-2.7h-4.8v12h3.7c1.4,0.1,2.8-0.1,4.1-0.4
	c1.6-0.4,2.7-1.7,2.9-3.3C82,171.2,80.4,169.9,78.5,169.5z M74.2,165.8h1.2c1.2,0,2.3,0.4,2.3,1.7c0,1.7-1.7,1.9-2.9,1.9h-0.6V165.8
	z M75.8,175.1h-1.7v-4.6h1.2c1.7,0,3.5,0.4,3.5,2.3C78.9,174.5,77.5,175.1,75.8,175.1z"/>
<path class="st0" d="M94,164.5h-3.9v0.2c1,0.4,0.6,1.2,0.4,1.7l-2.3,2.9l-3.1-4.8h-3.5l4.6,6.8v5.2h3.9v-0.2c-1-0.6-1-1-1-2.3v-2.7
	L94,164.5z"/>
<path class="st0" d="M116.8,61.4c0.4-1.9,0.8-6.2-2.7-8.5c-3.7-2.5-10.4-1.4-10.4-1.4s6-1.7,7-7c0.6-3.7-3.7-6-3.9-8.1
	c-0.2-2.3,3.3-5.4,1.9-9.1c-1.2-3.1-3.7-3.9-7.5-5c-3.5-1.2-5-1.4-6.8-3.7s-2.1-6.2-3.5-8.1c-1.7-2.1-3.1-3.3-6.4-3.3
	c-2.5,0.2-4.9,1.4-6.6,3.3c-1.4,1.4-2.4,3.1-2.9,5c0,0,1-6-0.2-9.7c-1.1-3-4-5-7.2-4.8c-3.1,0-5.8,1.4-8.1,2.7
	c-2.9,1.4-4,2.9-11,0.8c-7.2-2.3-12.6-1.4-14.7,1c-1.6,1.9-2.2,4.4-1.7,6.8c0.3,1.4,0.9,2.7,1.7,3.9c0,0-7.5-3.3-12.6-2.3
	s-9.3,4.1-9.9,8.5c-0.5,2.8,0.2,5.6,1.9,7.9c1,1.7,2.1,4.1,1.4,5.2c-0.5,0.9-1,1.7-1.7,2.5c-2.5,2.9-3.9,5.4-4.3,8.1
	c-0.4,2.5-0.6,9.1,4.3,11.4c2.2,1,4.6,1.4,7,1.2c0,0-4.8,1.7-7,5.2s-1.9,8.5-0.6,10.4c-0.8-0.6-2.9-1.2-3.3-0.4
	c-1,3.1,2.1,8.5,2.1,8.5c-0.8,0.2-1,1.2-0.8,2.1c0.6,1.3,1.2,2.6,1.9,3.9c-1.2-0.2-1.4,1.2-1.4,2.1c0.2,2.2,1.2,4.3,2.9,5.8
	c0.4,0.6-0.8,0.4-1,1.4c-0.6,1.7,3.9,4.8,4.6,5c2,1.3,4.1,2.2,6.4,2.7c5.2,1,8.9-0.4,11.4-0.4c1.4,0.2,0.8,1,0.8,1
	c-0.4,0.2-7.5,4.6-8.5,5c-1,0.2-1.2-0.2-1.7-0.6c-0.8-0.4-1-1-1.7-1.4c-0.8-0.8-1.4-1.2-2.5-0.8c-1.7,0.6-1.2,4.1-1.4,5.2
	c-0.4,1.5-2.1,2.3-5.2,3.3c-4.3,1.4-6,1-9.1,0.6S1,117.3,1,119c0.2,2.1,5,3.7,7.5,5.2c1.8,1.2,3.4,2.6,5,4.1c0,0,2.9,2.7,5.4-0.2
	c4.3-5,5.8-6.2,7.7-7.7c-0.6,0.4,2.9-2.3,3.9-2.1c1.4,0.2,0.8,2.3,0.8,2.3c-0.5,1.4-1.1,2.8-1.9,4.1c-0.9,2.3-0.9,4.8-0.2,7.2
	c0.2,1,1.2,0,1.7-0.2c0.2-0.2,0.2,1.4,0.2,1.9c0.3,2.7,1.5,5.2,3.5,7c0.6,0.6,0.6,0.2,1-0.2c0.2-0.3,0.3-0.6,0.4-1
	c0.8,1.5,1.8,2.9,2.9,4.1c0.8,1.1,1.5,2.4,1.9,3.7c0.2,0.8,0.2,1.2,0.6,1.2h0.4c1-0.4,3.5-5.2,3.5-5.2c0.8,0.6,1.4,1.2,2.1,0.6
	c3.3-3.1,4.1-10.4,4.1-11c0-0.8,0.2-1.2,0.6-0.8c0.4,0.2,0.8,0.2,1-0.4c0.3-1.6,0.4-3.2,0.2-4.8l1,2.5c0.6,1.4,1.9,2.9,3.3,2.5
	c0.5-0.2,1-0.5,1.4-0.8c0.6,1.1,1.4,2,2.3,2.9c1,0.6,2.1,1.4,2.7,1.2c0.6-0.2,1-1.4,1-1.4c1.9,2.9,4.7,5.1,7.9,6.4
	c1.9,0.8,7.9,2.5,7.5,0.4c-0.2-0.6-2.7-2.5-3.9-5.4c-0.6-1.2-1.2-3.3-0.8-3.9s1.4-0.2,2.1-0.8c0.4-0.6,0.4-1.7-0.2-4.8
	c-0.2-1.2-2.1-4.1-1.4-3.9c1.7,0.4,2.5,0,1.7-2.7c-0.7-1.7-1.6-3.3-2.9-4.6c-1-1-2.9-1.9-1.9-1.9c1-0.2,2.1,0.2,1.4-2.1
	c-0.2-1.4-3.1-5.2-7.2-7c-2.9-1.3-6-1.7-9.1-1.4c1.7-0.5,3.4-0.9,5.2-1.2c3.8-0.7,7.7,0.5,10.6,3.1c3.1,2.5,4.6,10.4,5.6,13.2
	c1.5,3.9,3.5,3.1,3.5,3.1c0.8-0.2,1.2-1.7,1.2-1.7c2.5,2.3,3.3,3.1,7.9,5.2c1.5,0.8,3.1,1.2,4.8,1.2c1.2-0.4,0.4-2.5,0.4-2.5
	c1.8,0,3.6,0.6,5,1.7c3.1,2.3,3.5,5.6,3.9,7c1.2,6,3.1-0.8,3.5-3.9c0.6-7-1.4-10.1-1.4-10.1c0.5,0.3,1.1,0.5,1.7,0.6
	c0.8,0,1.4-0.8,1.4-1.9c-0.2-3.9-3.9-8.7-3.9-8.7c0.6,0.3,1.2,0.4,1.9,0.4c1.4-0.6,0.8-2.1,0.2-2.7c-3.3-4.8-8.1-8.3-13.7-9.9
	c1.2-0.3,2.3-0.9,3.1-1.9c1.2-1.2,1.9-5,3.3-6c1.7-1.4,5.8-2.5,7-4.3c1.2-2.1,1.4-4.6,0.6-6.8c-0.7-1.7-0.5-3.6,0.4-5.2
	C110.8,69.3,115.8,65.8,116.8,61.4z M50.6,119.2c-1.9-2.9-4.3-4.1-9.7-4.3c-1.5,0-3-0.3-4.3-1c4.6-3.1,7.5-4.8,8.9-5.6
	c1.1-0.7,2.4-1,3.7-1c0.3,0,0.7,0.1,1,0.2c1.3,0.1,2.5,1,2.9,2.3c0.2,1.2-1,2.9-2.3,5.6C50.4,116.6,50.4,117.9,50.6,119.2z
	 M41.7,146.5L41.7,146.5c0.1-1.9,0.4-3.8,0.8-5.6c0,0,0-7.5-0.8-10.8c-1.5-6.3-3.7-10.2-5.4-12.3c1.7,2.2,3.9,6,5.4,12.3
	c0.8,3.3,0.8,10.8,0.8,10.8c0.5-3.1,0.6-6.2,0.2-9.3c0-1.1-0.2-2.1-0.4-3.2c-0.1-0.4-0.1-0.9-0.2-1.3c1,4.5,1.2,9.2,0.4,13.8
	C42.1,142.7,41.8,144.6,41.7,146.5z M34,115.5c1.5,0.5,2.8,1.4,3.8,2.6l0,0C36.8,116.9,35.5,116,34,115.5z M41.9,126.9
	c0-0.1,0-0.2-0.1-0.3v-0.4c-0.8-2.6-1.9-5-3.4-7.3c1.6,2.2,2.7,4.7,3.4,7.3c0.1,0.3,0.1,0.5,0.2,0.8L41.9,126.9z M38.1,118.3
	c0,0.1,0.1,0.1,0.1,0.2C38.2,118.4,38.1,118.4,38.1,118.3z M37.4,117.6l0.2,0.2L37.4,117.6z M40.8,91.5c1.6,1.9,3.9,3,6.4,3.3
	c-1.3,3-3.5,5.6-6.2,7.5c-0.2-1.2-0.2-2.5,0-3.7C41.2,97.1,41.5,93.5,40.8,91.5z M12.5,82.6h-0.2C12.3,82.5,12.4,82.5,12.5,82.6z
	 M40.8,103.3c-0.8-1.4-0.6-4.1-0.4-5.6c0.2-2.2,0-4.3-0.6-6.4c-1.3-3.3-3.5-6.1-6.4-8.1c-1.3-0.9-2.7-1.5-4.2-2
	c1.5,0.5,2.9,1.2,4.2,2c2.9,2,5.2,4.8,6.4,8.1c0.6,2.1,0.8,4.2,0.6,6.4C40.2,99.1,40,101.8,40.8,103.3z M50.2,94.4
	c0.2,0.1,0.4,0.1,0.6,0.1C50.6,94.4,50.4,94.4,50.2,94.4z M62,90c0,0,0.8,3.5,3.3,5c0.8,0.5,1.7,0.9,2.7,1.1c-1-0.1-1.9-0.5-2.7-1.1
	C62.8,93.5,62,90.1,62,90z M15.4,78.2c0.6,0.2,1.2,0.4,1.9,0.6C16.6,78.7,16,78.5,15.4,78.2c-1.5-0.5-2.8-1.3-3.9-2.5l0,0
	C12.5,76.9,13.9,77.8,15.4,78.2z M33.8,104.1c-2.9,0.2-5.8,0.1-8.6-0.3C28,104.2,30.9,104.3,33.8,104.1c0.6-0.1,1.2-0.1,1.8,0
	C35,104,34.4,104,33.8,104.1z M25.9,111.3c0.2,0.1,0.5,0.2,0.7,0.2C26.4,111.5,26.1,111.4,25.9,111.3c-1.2-0.9-2.3-1.8-3.3-2.9
	c-0.2-0.2-0.3-0.2-0.4-0.3c0.2,0,0.3,0.1,0.4,0.3C23.6,109.5,24.7,110.5,25.9,111.3z M29.7,116.3c-4.3,2.5-8.3,5.6-11.8,9.1
	c-0.5,0.7-1.3,1.1-2.2,1.1c1,0.2,1.6-0.5,2.2-1.1C21.4,121.8,25.4,118.8,29.7,116.3c0.2-0.1,0.4-0.1,0.6-0.1
	C30.1,116.2,29.9,116.2,29.7,116.3z M30.2,129.4c0.3,0,0.5-0.1,0.7-0.3C31,129,31,129,31.1,129c-0.1,0-0.1,0-0.2,0.1
	C30.7,129.2,30.4,129.3,30.2,129.4z M35.7,137.6c-0.2,0.2-0.3,0.3-0.5,0.3C35.4,137.9,35.6,137.8,35.7,137.6
	c0.3-0.4,0.6-0.8,0.8-1.2l0,0C36.3,136.8,36,137.2,35.7,137.6L35.7,137.6z M42.5,146.1L42.5,146.1c0.4-1,2.9-5.8,2.9-5.8l0,0
	C45.4,140.3,42.9,145.1,42.5,146.1L42.5,146.1z M45.6,140.5c0.1,0.1,0.1,0.1,0.2,0.1C45.7,140.6,45.7,140.6,45.6,140.5z M47.3,140.7
	L47.3,140.7c3.3-3.3,3.5-9.7,3.5-10.6l0,0C50.8,131,50.6,137.4,47.3,140.7z M52,129.1c0,0.1,0,0.2-0.1,0.3
	C52,129.4,52,129.3,52,129.1c0.3-2.8-0.1-5.6-1.2-8.1c-2.3-5.2-6.2-5.8-11.4-6c-6-0.2-6-1.2-6-1.2c-0.1,0.5,0,1.1,0.4,1.5
	c-0.4-0.4-0.5-1-0.4-1.5c4.6-2.9,13.9-8.3,14.7-8.7c0.6-0.5,1.5-0.6,2.2-0.3c-0.7-0.2-1.5-0.1-2.2,0.3c-0.8,0.4-10.1,5.8-14.7,8.7
	c0,0,0.2,1,6,1.2c5.2,0.2,9.1,0.8,11.4,6c0.9,1.9,1.4,3.9,1.4,6C52.2,127.7,52.1,128.4,52,129.1L52,129.1z M52.8,121
	c0.2,0.1,0.5,0.1,0.7,0.1l0,0C53.3,121.1,53,121.1,52.8,121z M57.5,130.2c0.3,0.1,0.6-0.1,1-0.2c0.2-0.1,0.4-0.2,0.6-0.4l0,0
	c-0.2,0.2-0.4,0.3-0.6,0.4C58.2,130.1,57.8,130.2,57.5,130.2z M64.2,132.7c-0.5,0.3-0.6,0.4-1,0.3C63.6,133,63.9,132.9,64.2,132.7
	c0.2-0.2,0.5-0.4,0.8-0.6l0,0C65,132,64.6,132.3,64.2,132.7z M75.8,138.7c0.3,0.1,0.5,0.1,0.8,0.1l0,0
	C76.3,138.8,76.1,138.8,75.8,138.7z M76.9,138.9c0.1,0,0.3,0,0.3-0.1c-2.3-1.1-4.4-2.7-6.1-4.7l0,0c-3.2-3.2-5.7-7-7.5-11.2v0.1
	c1.8,4.1,4.3,7.9,7.5,11.1c0,0-0.2-0.2-0.6-0.7c0.2,0.2,0.4,0.4,0.6,0.7c1.7,2,3.8,3.6,6.1,4.7l0,0C77.1,138.9,77,138.9,76.9,138.9z
	 M63.5,122.7c0,0.1,0.1,0.1,0.1,0.2l0,0C63.5,122.8,63.5,122.8,63.5,122.7z M64.7,125.2c0,0.1,0.1,0.1,0.1,0.2
	C64.7,125.3,64.7,125.3,64.7,125.2z M65.3,126.3c0.1,0.1,0.2,0.2,0.2,0.4C65.4,126.6,65.3,126.5,65.3,126.3z M65.9,127.4
	c0.1,0.2,0.2,0.3,0.3,0.5C66.2,127.7,66.1,127.5,65.9,127.4z M66.6,128.5c0.2,0.2,0.4,0.5,0.5,0.7C66.9,129,66.7,128.7,66.6,128.5z
	 M67.3,129.5c0.4,0.6,0.9,1.2,1.4,1.8C68.3,130.8,67.8,130.2,67.3,129.5z M68.8,131.5c0.2,0.2,0.4,0.4,0.5,0.7
	C69.2,131.9,69,131.7,68.8,131.5z M69.4,132.3c0.2,0.2,0.3,0.4,0.4,0.5C69.7,132.7,69.6,132.5,69.4,132.3z M70,132.9
	c0.1,0.2,0.3,0.3,0.4,0.4C70.2,133.2,70.1,133.1,70,132.9L70,132.9z M75,131c-0.1,1-0.1,2,0.2,2.9c0.3,1.4,1,2.8,1.9,3.9h0.2v0.2
	l0,0v0.1c-0.1-0.1-0.1-0.2-0.2-0.3l0,0c0-0.1,0-0.1-0.1-0.1l0,0c-0.7-1-1.3-2.1-1.7-3.2c-0.1-0.2-0.1-0.4-0.1-0.6l0,0
	c-0.8-3.7,0-5,0.6-5.2l0,0C75.4,128.9,75,129.6,75,131L75,131z M76.4,127.3L76.4,127.3c0-0.4-0.1-0.7-0.1-1
	C76.4,126.6,76.4,127,76.4,127.3c-0.1-0.8-0.2-1.5-0.3-2.2c-0.3-1.5-0.8-3-1.4-4.4l0,0C75.7,122.8,76.3,125,76.4,127.3L76.4,127.3z
	 M75.8,120h-1.1c0.2-0.1,0.5-0.1,0.7,0H75.8z M76.2,119v0.6c0,0.1,0,0.1-0.1,0.2C76.2,119.5,76.2,119.3,76.2,119
	c-0.6-2.9-3.5-5.8-4.6-6.6c-0.7-0.5-0.8-0.8-0.6-0.9l-0.1,0.1c0,0.2,0.2,0.4,0.6,0.8C72.7,113.2,75.6,116.1,76.2,119L76.2,119z
	 M72.5,111.1c0.3-0.2,0.3-0.4,0.3-0.9c0.1,0.1,0.1,0.3,0.1,0.4C72.9,111,72.8,111.1,72.5,111.1L72.5,111.1z M72.7,109.9L72.7,109.9
	c-1.3-2.6-3.4-4.6-6-5.8C69.3,105.2,71.5,107.3,72.7,109.9L72.7,109.9z M65.9,103.7L65.9,103.7c-1.4-0.6-2.9-1-4.4-1.2
	c1.1,0.1,2.3,0.3,3.4,0.5C65.3,103.3,65.7,103.5,65.9,103.7L65.9,103.7z M58,102.2h1c0.6,0.1,1.3,0.1,1.9,0.2
	c-2.3-0.2-4.5-0.2-6.8,0c0.4,0,1.8-0.2,3.6-0.2H58z M62.8,99.1c-3,0.7-6,1.8-8.7,3.3l0,0c-0.8,0.4-0.4,1.4,0.2,2.1
	c0,0,5,2.7,7.7,13.7c0.1,0.4,0.2,0.8,0.3,1.3c-0.2-0.4-0.3-0.9-0.3-1.3c-2.7-11-7.7-13.7-7.7-13.7c2.1,2.2,3.7,4.8,4.8,7.7
	c1,2.9,2.5,11.6,6,16.1c1.1,1.5,2.4,2.9,3.8,4.1c-1.4-1.3-2.7-2.6-3.8-4.1c-3.5-4.6-5-13.2-6-16.1c-1.1-2.9-2.7-5.5-4.8-7.7
	c-0.6-0.6-1-1.7-0.2-2.1C56.8,100.9,59.8,99.8,62.8,99.1c2.3-0.6,4.7-0.5,7,0.2C67.5,98.6,65.1,98.5,62.8,99.1L62.8,99.1z M82.9,118
	c-0.2,0-0.4,0-0.6-0.1C82.5,118,82.7,118,82.9,118c0.8-0.2,1-1.2,1-1.2l0,0C83.9,116.7,83.7,117.8,82.9,118L82.9,118z M96.3,121.1
	c0,0-0.2,0-0.2,0.6c0,0.8-0.4,0.8-1.2,0.6c-1-0.2-1.9-0.5-2.8-0.8c0.9,0.3,1.9,0.6,2.8,0.8c0.8,0.2,1.2,0.2,1.2-0.6
	C96.1,121.1,96.3,121.1,96.3,121.1c1.3,0,2.5,0.3,3.7,0.8C98.8,121.4,97.6,121.1,96.3,121.1L96.3,121.1z M108.1,127.7
	c0,0.4-0.2,0.8-0.6,0.8c-0.1,0.1-0.1,0.1-0.2,0.1c0.1,0,0.1,0,0.2-0.1c-1-2.7-2.2-5.3-3.5-7.9c-4.1-5.1-8.4-10-13-14.7
	c-4.2-4-9.4-6.9-15.1-8.3c-1-0.2-6-1.4-6-1.4l0,0c0,0,5,1.2,6,1.4l0,0c5.7,1.4,10.9,4.3,15.1,8.3c4.6,4.6,9,9.5,13,14.7l0,0
	c1.4,2.5,2.5,5.2,3.5,7.9C107.9,128.5,108.1,128.1,108.1,127.7c0.1-1.2,0.2-2.4,0.2-3.5l0,0C108.3,125.4,108.3,126.5,108.1,127.7
	L108.1,127.7z M108.7,115.7c-0.6,0-1.1-0.1-1.7-0.2c0.6,2.1,1,4.2,1.1,6.4c-0.2-2.2-0.6-4.3-1.2-6.4
	C107.5,115.6,108.1,115.7,108.7,115.7c0.2,0,0.5-0.1,0.6-0.3C109.3,115.6,109.1,115.7,108.7,115.7L108.7,115.7z M108.3,123.8
	L108.3,123.8z M108.3,122.8L108.3,122.8z M106.9,106h-0.8c1.7,2.7,2.8,5.6,3.3,8.7l0,0c-0.5-3.1-1.6-6-3.3-8.7c0.8,0,1.2,0,1.4-0.2
	l0,0C107.3,106,107.3,106,106.9,106L106.9,106z M106.9,104.1c0.2,0.3,0.4,0.6,0.5,0.9C107.3,104.7,107.1,104.4,106.9,104.1
	c-2.8-3.6-6.5-6.4-10.7-8.1C100.4,97.7,104.1,100.5,106.9,104.1L106.9,104.1z"/>
<path d="M93.2,143.2c0.1-1.7,1.4-3,3.1-2.9l0,0c1.5-0.1,2.8,1.1,2.9,2.7c0,0.1,0,0.2,0,0.2c0.1,1.7-1.2,3-2.9,3.1l0,0
	C94.6,146.3,93.2,144.9,93.2,143.2z M93.8,143.2c0,1.3,1,2.5,2.3,2.5c0.1,0,0.1,0,0.2,0c1.4,0,2.5-1.1,2.5-2.5s-1.1-2.5-2.5-2.5
	S93.8,141.8,93.8,143.2z M97.1,144.9l-0.8-1.4h-0.6v1.4h-0.6v-3.3h1.4c0.6,0,1.2,0.2,1.2,1c0,0.6-0.6,0.8-1,0.8l0.8,1.4L97.1,144.9z
	 M95.7,143h0.4c0.4,0,1,0,1-0.4s-0.2-0.4-0.6-0.4h-0.8V143L95.7,143z"/>
<path d="M15.4,160.4v-12h8.3v2.1l0,0c-0.6-0.6-2.5-0.6-3.3-0.6h-2.1v3.3h4.1v1.9l0,0c-0.2-0.4-2.1-0.4-2.7-0.4h-1.4v4.1h2.5
	c3.1,0,4.1-0.8,4.1-0.8l0,0l-0.8,2.5h-8.7C15.4,160.5,15.4,160.4,15.4,160.4z"/>
<path d="M35,158.5l-6.6-7v8.9h-2.9v-0.2c1-0.4,1-1.2,1-2.1v-9.7h2.9c0,0.2,0.2,0.4,0.2,0.6l0.4,0.2l6.8,7.5v-8.3h2.9v0.2
	c-1,0.4-1,1.2-1,2.1v10.1C37.3,160.4,36,159.6,35,158.5z"/>
<path d="M40.4,154.4c0-3.7,3.3-6.2,7.9-6.2c1.4,0.1,2.8,0.3,4.1,0.6v2.1h-0.2c-0.6-0.8-3.3-1.4-4.3-1.4c-2.9,0-4.1,2.7-4.1,4.8
	c0,2.3,1.2,5.2,4.3,5.2c0.8,0,1.5,0,2.3-0.2v-2.9c0-0.8,0-1.7-0.8-1.9h3.3v5.8c-1.6,0.2-3.2,0.4-4.8,0.4
	C43.3,160.6,40.4,157.9,40.4,154.4L40.4,154.4z"/>
<path d="M54.9,160.4v-12h3.9v0.2c-1,0.2-0.8,1.7-0.8,2.5v7.9h2.7c1.3,0.1,2.5-0.2,3.5-1h0.2l-1,2.5L54.9,160.4L54.9,160.4z"/>
<path d="M74.6,160.4l-1.9-4.6h-4.8l-1,2.5c-0.4,1-0.6,1.7,0.4,1.9v0.2H64l4.6-10.1c0.4-0.6,0.8-1.4-0.2-1.7v-0.2h4.3l4.1,9.3
	c0.4,1,0.8,2.1,1.9,2.5v0.2L74.6,160.4z M68.4,154.6h3.9l-1.9-4.6L68.4,154.6z"/>
<path d="M88.7,158.5l-6.6-7v8.9h-2.9v-0.2c1-0.4,1-1.2,1-2.1v-9.7h2.9c0,0.2,0.2,0.4,0.2,0.6l0.4,0.2l6.8,7.5v-8.3h2.7v0.2
	c-0.8,0.4-0.8,1.2-0.8,2.1v10.1C90.9,160.5,89.6,159.7,88.7,158.5z"/>
<path d="M95.1,160.4v-12h5c4.6,0,7.7,2.3,7.7,6c0,3.5-3.3,6-7.9,6H95.1z M99.8,149.8l-1.9,0.2v8.9h1.4c3.1,0,5.2-1.4,5.2-4.3
	S103.1,149.8,99.8,149.8L99.8,149.8z"/>
<path d="M39.6,176.5c-0.9,0.1-1.8-0.3-2.3-1l-2.3-2.7l-2.5-2.5v3.5c0,0.8,0,2.3,1,2.5v0.2h-3.9v-12h5.2c2.5,0,4.8,1.2,4.8,3.1
	s-1.7,2.7-3.1,3.1l2.7,3.1c0.9,1,1.8,1.9,2.9,2.7L39.6,176.5z M32.6,170.1c1.7-0.2,3.9-0.8,3.9-2.5c0-1.2-1.2-1.9-2.5-1.9h-1.4
	V170.1z"/>
<path d="M43.1,175.5c-0.8-1-1.2-2.2-1-3.5v-7.5H45v7.5c0,2.3,1,3.5,3.1,3.5c1.1,0,2.1-0.4,2.9-1.2c0.3-0.5,0.5-1.1,0.4-1.7v-8.1h3.5
	l0.2,0.2c-1,0.2-1,1.4-1,2.3v7c0,0.8,0,2.1,1,2.3v0.2h-3.7v-1.2c-1,0.9-2.3,1.4-3.7,1.4C46,176.8,44.4,176.8,43.1,175.5z"/>
<path d="M56.6,170.5c0-3.7,3.1-6.2,7.7-6.2c1.4,0.1,2.8,0.3,4.1,0.6v2.1l0,0c-0.8-0.8-3.3-1.4-4.6-1.4c-2.9,0-4.1,2.7-4.1,4.8
	c0,2.3,1.4,5.2,4.3,5.2c0.8,0,1.5,0,2.3-0.2v-2.9c0-0.8,0-1.7-0.8-1.9v-0.2h3.3v6c-1.5,0.2-3.1,0.4-4.6,0.4
	C59.3,176.8,56.6,174.1,56.6,170.5z"/>
<path d="M74.4,176.5h-3.1v-12h4.8c2.7,0,4.8,0.8,4.8,2.7c0,1.2-1,1.9-2.3,2.3c1.9,0.4,3.5,1.7,3.5,3.3c-0.2,1.6-1.3,2.9-2.9,3.3
	c-1.3,0.3-2.7,0.5-4.1,0.4H74.4z M74.2,175.1h1.7c1.7,0,3.1-0.6,3.1-2.3c0-1.9-1.9-2.3-3.5-2.3h-1.2L74.2,175.1L74.2,175.1z
	 M74.2,165.8v3.5h0.6c1.2,0,2.9-0.2,2.9-1.9c0-1.2-1-1.7-2.3-1.7L74.2,165.8L74.2,165.8z"/>
<path d="M86.2,176.5v-5.2l-4.6-6.8h3.5l3.1,4.8l2.3-2.9c0.2-0.4,0.6-1.2-0.4-1.7v-0.2H94l-5,6.8v2.7c0,1.2,0,1.7,1,2.3v0.2
	L86.2,176.5L86.2,176.5z"/>
<path class="st1" d="M40.6,147.1c-0.3-1.4-1-2.6-1.9-3.7c-1.1-1.3-2-2.7-2.9-4.1c-0.1,0.4-0.2,0.7-0.4,1c-0.4,0.4-0.4,0.8-1,0.2
	c-2-1.8-3.2-4.3-3.5-7c0-0.4,0-2.1-0.2-1.9c-0.4,0.2-1.4,1.2-1.7,0.2c-0.7-2.4-0.7-4.9,0.2-7.2c1-2.1,1.4-2.9,1.9-4.1
	c0,0,0.6-2.1-0.8-2.3c-1-0.2-4.6,2.5-3.9,2.1c-1.9,1.4-3.3,2.7-7.7,7.7c-2.5,2.9-5.4,0.2-5.4,0.2c-1.5-1.5-3.2-2.9-5-4.1
	c-2.5-1.4-7.2-3.1-7.5-5.2c0-1.7,1.7-2.1,4.8-1.7s4.8,0.8,9.1-0.6c3.1-1,4.8-1.9,5.2-3.3c0.2-1-0.2-4.6,1.4-5.2c1-0.4,1.7,0,2.5,0.8
	c0.6,0.4,0.8,1,1.7,1.4c0.4,0.6,1.1,0.8,1.7,0.6c1-0.4,8.1-4.8,8.5-5c0,0,0.6-0.8-0.8-1c-2.5,0-6.2,1.4-11.4,0.4
	c-2.3-0.5-4.5-1.4-6.4-2.7c-0.6-0.2-5.2-3.3-4.6-5c0.2-1,1.4-0.8,1-1.4c-1.6-1.5-2.7-3.6-2.9-5.8c0-0.8,0.2-2.3,1.4-2.1
	c0,0-1.4-2.7-1.9-3.9c-0.2-0.8,0-1.9,0.8-2.1c0,0-3.1-5.4-2.1-8.5c0.4-0.8,2.5-0.2,3.3,0.4l0,0c-1.2-1.9-1.7-6.8,0.6-10.4
	s7-5.2,7-5.2c-2.4,0.2-4.8-0.2-7-1.2c-5-2.3-4.8-8.9-4.3-11.4c0.4-2.7,1.9-5.2,4.3-8.1c0.6-0.8,1.2-1.7,1.7-2.5
	c0.6-1-0.4-3.5-1.4-5.2c-1.6-2.2-2.2-5-1.8-7.7c0.6-4.3,4.8-7.5,9.9-8.5s12.6,2.3,12.6,2.3c-0.7-1.2-1.2-2.5-1.6-3.9
	c-0.5-2.4,0.1-4.9,1.7-6.8c2.1-2.5,7.5-3.3,14.7-1c7,2.1,8.1,0.6,11-0.8c2.3-1.2,5-2.7,8.1-2.7c3.2-0.2,6.1,1.8,7.2,4.8
	C76,9.5,75,15.5,75,15.5c0.5-1.9,1.5-3.6,2.9-5c1.7-1.9,4.1-3.1,6.6-3.3c3.3,0,4.8,1.2,6.4,3.3c1.4,1.9,1.9,5.8,3.5,8.1
	c1.9,2.3,3.3,2.5,6.8,3.7c3.7,1,6.2,1.9,7.5,5c1.4,3.7-2.1,6.8-1.9,9.1c0.2,2.1,4.6,4.3,3.9,8.1c-1,5.4-7,7-7,7s6.6-1,10.4,1.4
	c3.5,2.3,3.1,6.6,2.7,8.5c-1,4.3-6,7.9-6.6,9.3c-0.9,1.6-1.1,3.5-0.4,5.2c0.8,2.2,0.6,4.7-0.6,6.8c-1.2,1.9-5.4,2.9-7,4.3
	c-1.4,1-2.1,4.8-3.3,6c-0.8,0.9-1.9,1.6-3.1,1.9c5.5,1.7,10.4,5.2,13.7,9.9c0.6,0.6,1.2,2.1-0.2,2.7c-0.7,0-1.3-0.2-1.9-0.4
	c0,0,3.7,4.8,3.9,8.7c0,1-0.6,1.9-1.4,1.9c-0.6-0.1-1.2-0.3-1.7-0.6c0,0,2.1,3.1,1.4,10.1c-0.4,3.1-2.3,9.9-3.5,3.9
	c-0.4-1.4-0.8-4.8-3.9-7c-1.4-1.1-3.2-1.7-5-1.7c0,0,0.8,2.1-0.4,2.5c-0.6,0.2-3.3-0.4-4.8-1.2c-4.6-2.1-5.4-2.9-7.9-5.2
	c0,0-0.4,1.4-1.2,1.7c0,0-2.1,0.8-3.5-3.1c-1-2.9-2.5-10.8-5.6-13.2c-2.9-2.6-6.8-3.8-10.6-3.1c-1.8,0.3-3.5,0.7-5.2,1.2
	c3.1-0.3,6.2,0.2,9.1,1.4c4.1,1.9,7,5.6,7.2,7c0.6,2.3-0.4,1.9-1.4,2.1c-1,0,0.8,0.8,1.9,1.9c1.3,1.3,2.3,2.9,2.9,4.6
	c0.8,2.7,0,3.1-1.7,2.7c-0.6-0.2,1.2,2.7,1.4,3.9c0.6,3.1,0.6,4.1,0.2,4.8c-0.6,0.6-1.7,0.2-2.1,0.8s0.2,2.7,0.8,3.9
	c1.2,2.9,3.7,4.8,3.9,5.4c0.4,2.1-5.6,0.4-7.5-0.4c-3.7-1.9-5.2-2.9-7.9-6.4c0,0-0.4,1.2-1,1.4s-1.7-0.6-2.7-1.2
	c-0.8-0.9-1.6-1.9-2.3-2.9c-0.4,0.3-0.9,0.6-1.4,0.8c-1.4,0.4-2.7-1-3.3-2.5l-1-2.5c0.2,1.6,0.1,3.2-0.2,4.8c-0.2,0.6-0.6,0.6-1,0.4
	c-0.4-0.4-0.6,0-0.6,0.8c0,0.6-0.8,7.9-4.1,11c-0.6,0.6-1.2,0-2.1-0.6c0,0-2.5,4.8-3.5,5.2h-0.4C40.8,148.4,40.8,148,40.6,147.1z
	 M42.5,146.1c0.4-1,2.9-5.8,2.9-5.8c0.1,0,0.2,0.1,0.2,0.2c0.4,0.2,0.6,0.4,0.8,0.4H47c0-0.1,0.1-0.2,0.2-0.2
	c3.3-3.3,3.5-9.7,3.5-10.6v-0.6h0.2l0.2,0.2h0.4c0.2,0,0.4-0.2,0.4-0.6c0.1-0.7,0.2-1.4,0.2-2.1c0-2.1-0.5-4.1-1.4-6
	c-2.3-5.2-6.2-5.8-11.4-6c-5.8-0.2-6-1.2-6-1.2l0,0c4.6-2.9,13.9-8.3,14.7-8.7c0.8-0.5,1.8-0.6,2.7-0.2c1,0.4,2.5,1.4,2.7,2.7
	c0.4,1.2,0.4,3.3-1,6c-1.4,2.5-0.8,5.4-0.6,6.6c0.1,0.2,0.2,0.4,0.4,0.6c0.4,0.1,0.8,0.2,1.2,0.2c-0.4,4.1,2.9,8.3,3.5,8.7
	c0.4,0.6,0.8,0.4,1.4,0.2c0.2-0.1,0.4-0.2,0.6-0.4c1.1,1.3,2.3,2.4,3.7,3.3c0.8,0.2,0.8,0.2,1.4-0.2c0.2-0.2,0.5-0.4,0.8-0.6
	c3.7,5.2,9.9,6.6,11.6,6.8c0.6,0.2,0.8-0.2,0.6-0.8l0,0v-0.2h-0.2c-0.8-1.2-1.5-2.5-1.9-3.9c-0.3-0.9-0.3-1.9-0.2-2.9
	c0-1.4,0.4-2.1,0.8-2.3c0.4-0.1,0.7-0.6,0.6-1v-0.4c-0.1-2.3-0.7-4.5-1.7-6.6c-0.4-0.4-0.2-0.6,0-0.6h1c0.2,0,0.4-0.2,0.4-0.4v-0.6
	c-0.6-2.9-3.5-5.8-4.6-6.6c-0.4-0.4-0.6-0.6-0.6-0.8s0.4-0.2,0.8-0.2c0.6-0.2,1-0.2,1-0.6c0-0.2-0.2-0.4-0.2-0.8
	c-1.4-2.8-3.8-5-6.8-6.2c-0.3-0.2-0.6-0.4-1-0.6c-1.9-0.4-3.9-0.6-5.8-0.8h-1.2c-1.2,0-2.5,0.1-3.7,0.2c2.7-1.5,5.7-2.6,8.7-3.3
	c3.7-0.9,7.6-0.2,10.6,2.1c3.3,2.3,4.8,9.7,5.8,12.8c1.4,3.9,3.7,3.9,3.7,3.9c0.8-0.2,1-1.2,1-1.2c3.1,3.3,8.9,5.2,11,5.6
	c0.8,0.2,1.2,0.2,1.2-0.6c0-0.6,0.2-0.6,0.2-0.6c1,0,2.7,0.2,5.8,1.7c2.2,1.1,3.9,2.9,4.8,5.2c0.2,0.6,0.4,0.8,0.6,0.6l0,0
	c0.4,0,0.6-0.4,0.6-0.8c0.2-1.2,0.2-2.3,0.2-3.5c0-2.9-0.4-5.9-1.2-8.7c0.6,0.1,1.1,0.2,1.7,0.2s0.6-0.2,0.6-0.6v-0.4
	c-0.5-3.1-1.6-6-3.3-8.7h0.8c0.4,0,0.4,0,0.6-0.2V106c-0.1-0.5-0.3-1-0.6-1.4c-5-6.5-12.9-10.2-21.1-9.9c-4,0.1-8,0.6-11.8,1.7
	c-0.8,0.2-1.4,0.2-2.1,0.4h-1.6c-1.7,0.1-3.5-0.3-5-1.2c-2.5-1.4-3.3-5-3.3-5c-5.4,6.2-11.8,4.3-11.8,4.3c-3.1,4.6-9.3,8.9-9.3,8.9
	c-0.8-1.4-0.6-4.1-0.4-5.6c0.2-2.2,0-4.3-0.6-6.4c-1.3-3.3-3.5-6.1-6.4-8.1c-3.1-2.1-8.5-3.5-12-3.7c-2-0.1-4.1-0.5-6-1.2
	c-1.5-0.5-2.8-1.3-3.9-2.5c-0.6-0.6-1.2-0.8-1.2-0.2c0.5,2.3,1.3,4.4,2.5,6.4c-0.6-0.2-1,0.4-0.8,1c0.3,1.7,0.9,3.2,1.9,4.6
	c-1.2-0.2-1.2,0.8-1.2,1.2c0.1,2.3,1.1,4.4,2.7,6c0.6,0.6,0.4,0.8,0,0.8c-1.2,0.6-1,1.2-0.6,1.7c1.8,1.8,3.9,3.4,6.2,4.6
	c4.8,2.1,10.8,1.9,13.2,1.7c1.6-0.1,3.2,0.1,4.6,0.8c-0.4,0.2-9.3,6-10.1,6.4c-0.7,0.3-1.6,0.3-2.3,0c-1.2-0.9-2.3-1.8-3.3-2.9
	c-0.6-0.6-1-0.2-1,0.4c0,0.8-0.2,3.7-0.2,4.6c0.2,0.8-0.4,1-0.6,1.2c-9.5,4.8-14.5,2.9-15.9,2.9c-1.4-0.2-2.5-0.2-2.9,0.6
	c-0.2,0.8,0.6,1.7,3.9,2.9c3,1.4,5.9,3.1,8.7,5c1.7,1,2.5,0.2,3.3-0.6c3.5-3.5,7.5-6.6,11.8-9.1c0.3-0.1,0.5-0.1,0.8,0
	c0.8,0.3,1.4,0.9,1.7,1.7c0.6,1.7-0.4,2.5-1.4,4.6c-0.9,1.9-1.3,4.1-1.2,6.2c0.4,1,1,0.6,1.4,0.4c0.2-0.2,0.4,0,0.4,0.4
	c0.2,2.9,1.2,5.7,3.1,7.9c0.8,0.6,0.8,0.6,1.2,0.2c0.3-0.4,0.6-0.8,0.8-1.2c0.6,1.6,1.5,3.2,2.5,4.6c1.3,1.4,2.1,3.1,2.5,5
	c0,0.2,0.2,0.4,0.2,0.6l0,0C41.9,146.7,42.1,146.7,42.5,146.1L42.5,146.1z M45.4,108.2c-1.4,0.8-4.3,2.5-8.9,5.6
	c1.3,0.7,2.8,1,4.3,1c5.4,0.2,7.9,1.4,9.7,4.3c-0.2-1.3-0.2-2.6,0.2-3.9c1.2-2.7,2.5-4.3,2.3-5.6c-0.4-1.3-1.6-2.2-2.9-2.3
	c-0.3-0.1-0.7-0.2-1-0.2C47.8,107.2,46.5,107.6,45.4,108.2z M41,98.5c-0.2,1.2-0.2,2.5,0,3.7c2.7-1.9,4.9-4.5,6.2-7.5
	c-2.5-0.2-4.8-1.4-6.4-3.3C41.5,93.5,41.2,97.1,41,98.5z"/>
<path class="st2" d="M41.7,146.5c0.2,0.2,0.4,0.2,0.8-0.4c-0.2,0.4-0.4,0.6-0.6,0.6C41.8,146.7,41.7,146.6,41.7,146.5L41.7,146.5z
	 M41.5,145.9c-0.3-1.9-1.2-3.6-2.5-5c-1-1.4-1.9-3-2.5-4.6c-0.2,0.4-0.5,0.8-0.8,1.2c-0.4,0.4-0.4,0.4-1.2-0.2c-1.9-2.2-3-5-3.1-7.9
	c0-0.4-0.2-0.6-0.4-0.4c-0.4,0.2-1,0.6-1.4-0.4c-0.1-2.1,0.3-4.3,1.2-6.2c1-2.1,2.1-2.9,1.4-4.6c-0.3-0.8-0.9-1.4-1.7-1.7
	c-0.3-0.1-0.5-0.1-0.8,0c-4.3,2.5-8.3,5.6-11.8,9.1c-0.8,0.8-1.7,1.7-3.3,0.6c-2.8-1.9-5.7-3.5-8.7-5c-3.3-1.2-4.1-2.1-3.9-2.9
	c0.4-0.8,1.4-0.8,2.9-0.6c1.4,0,6.4,1.9,15.9-2.9c0.2-0.2,0.8-0.4,0.6-1.2c0-0.8,0.2-3.7,0.2-4.6c0-0.6,0.4-1,1-0.4
	c1,1.1,2.1,2,3.3,2.9c0.7,0.3,1.6,0.3,2.3,0c0.8-0.4,9.7-6.2,10.1-6.4c-1.4-0.7-3-0.9-4.6-0.8c-2.5,0.2-8.5,0.4-13.2-1.7
	c-2.3-1.2-4.4-2.7-6.2-4.6c-0.4-0.4-0.6-1,0.6-1.7c0.4,0,0.6-0.2,0-0.8c-1.6-1.6-2.6-3.7-2.7-6c0-0.4,0-1.4,1.2-1.2
	c-1-1.4-1.6-2.9-1.9-4.6c-0.2-0.6,0.2-1.2,0.8-1c-1.2-2-2-4.1-2.5-6.4c0-0.4,0.4-0.7,0.8-0.7c0.2,0,0.4,0.1,0.6,0.3
	c1.1,1.1,2.4,2,3.9,2.5c1.9,0.7,4,1.1,6,1.2c4.2,0.3,8.3,1.6,12,3.7c2.9,2,5.2,4.8,6.4,8.1c0.6,2.1,0.8,4.2,0.6,6.4
	c-0.2,1.4-0.4,4.1,0.4,5.6c0,0,6.2-4.3,9.3-8.9c0,0,6.4,1.9,11.8-4.3c0,0,0.8,3.5,3.3,5c1.5,0.9,3.2,1.3,5,1.2h-0.4c0,0,5,1.2,6,1.4
	c5.7,1.4,10.9,4.3,15.1,8.3c4.6,4.7,8.9,9.6,13,14.7c1.4,2.5,2.5,5.2,3.5,7.9c-0.2,0.2-0.4,0-0.6-0.6c-0.9-2.3-2.6-4.1-4.8-5.2
	c-3.1-1.4-4.8-1.7-5.8-1.7c0,0-0.2,0-0.2,0.6c0,0.8-0.4,0.8-1.2,0.6c-2.1-0.4-7.9-2.3-11-5.6c0,0-0.2,1-1,1.2c0,0-2.3,0-3.7-3.9
	c-1-3.1-2.5-10.6-5.8-12.8c-3-2.3-6.9-3-10.6-2.1c-3,0.7-6,1.8-8.7,3.3c1.2-0.1,2.5-0.2,3.7-0.2c-1.2,0-2.5,0.1-3.7,0.2
	c-0.8,0.4-0.4,1.4,0.2,2.1c2.1,2.2,3.7,4.8,4.8,7.7c1,2.9,2.5,11.6,6,16.1c1.6,2.3,3.7,4.3,6,5.8c1.7,2,3.8,3.6,6.2,4.8
	c0.2-0.2,0.2-0.4,0-0.8c0.2,0.6,0,1-0.6,0.8c-1.7-0.2-7.9-1.7-11.6-6.8c-0.3,0.2-0.6,0.4-0.8,0.6c-0.6,0.4-0.6,0.4-1.4,0.2
	c-1.4-0.9-2.6-2-3.7-3.3c-0.2,0.2-0.4,0.3-0.6,0.4c-0.6,0.2-1,0.4-1.4-0.2c-0.6-0.4-3.9-4.6-3.5-8.7c-0.4,0-0.8-0.1-1.2-0.2
	c-0.2-0.2-0.3-0.4-0.4-0.6c-0.2-1.2-0.8-4.1,0.6-6.6c1.4-2.7,1.4-4.8,1-6c-0.2-1.2-1.7-2.3-2.7-2.7c-0.9-0.4-1.9-0.3-2.7,0.2
	c-0.8,0.4-10.1,5.8-14.7,8.7c-0.2,0.6,0.1,1.3,0.6,1.7c0,0,5,3.5,7.7,14.7c0.8,3.3,0.8,10.8,0.8,10.8c-0.4,1.8-0.7,3.7-0.8,5.6
	C41.7,146.3,41.5,146.1,41.5,145.9z M46.4,140.9L46.4,140.9z M47,140.9L47,140.9z M45.4,140.3c0.1,0,0.2,0.1,0.2,0.2
	C45.6,140.4,45.5,140.3,45.4,140.3z M77.3,137.8L77.3,137.8z M77.1,137.8c-0.8-1.2-1.5-2.5-1.9-3.9c-0.3-0.9-0.3-1.9-0.2-2.9
	c-0.1,1-0.1,2,0.2,2.9C75.5,135.3,76.2,136.7,77.1,137.8z M63,121.5c1.9,4.7,4.6,8.9,8.1,12.6C67.6,130.5,64.8,126.2,63,121.5z
	 M42.1,127.1c-0.2-0.2-0.2-0.2-0.2-0.4c0.5,1.6,0.7,3.3,0.8,5C42.6,130.2,42.4,128.6,42.1,127.1z M51.4,129.8L51.4,129.8z
	 M50.8,129.6L50.8,129.6z M76.4,127.3c-0.1-2.3-0.7-4.5-1.7-6.6c-0.4-0.4-0.2-0.6,0-0.6c-0.2,0-0.4,0.2,0,0.6
	C75.7,122.8,76.3,125,76.4,127.3L76.4,127.3z M75.4,120L75.4,120z M75,120L75,120z M34,115.5c0,0,1.9,0.2,3.9,2.7
	C36.9,116.9,35.5,116,34,115.5z M54.3,104.5c0,0,5,2.7,7.7,13.7C59.3,107.2,54.3,104.5,54.3,104.5z M72.7,109.9
	c-1.4-2.8-3.8-5-6.8-6.2c-0.3-0.2-0.6-0.4-1-0.6c0.4,0.2,0.7,0.4,1,0.6C68.9,104.8,71.3,107,72.7,109.9c0,0.4,0.2,0.6,0.2,0.8
	C72.9,110.5,72.7,110.3,72.7,109.9z M106,106L106,106z M58,102.2L58,102.2z M71.7,96.2L71.7,96.2z"/>
<path class="st1" d="M90.9,106c-4.2-4-9.4-6.9-15.1-8.3c6.7,0.9,12.9,4,17.6,8.9c5.4,5.2,7.9,9.7,10.6,14.1
	C99.9,115.6,95.5,110.7,90.9,106z"/>
<path class="st1" d="M41.7,130.2C39,119,34,115.5,34,115.5c1.5,0.5,2.9,1.4,3.9,2.7c1.8,2.4,3.1,5.2,3.9,8.1v0.4
	c0,0.2,0,0.2,0.2,0.4c0.3,1.5,0.5,3.1,0.6,4.6c0.4,3.1,0.3,6.2-0.2,9.3C42.4,141,42.5,133.5,41.7,130.2z"/>
<path class="st1" d="M12.5,78.2c2.5,4.4,5.9,8.3,9.9,11.4c6.2,4.3,1.7,1.4,9.9,7.2c5.4,3.5,6.8,5,6.8,5l-5.2-3.1c0,0-5.2-3.1-10.6-7
	C16.2,86.5,12.5,78.2,12.5,78.2z"/>
<path class="st1" d="M65.1,128.3c-3.5-4.6-5-13.2-6-16.1c-1.1-2.9-2.7-5.5-4.8-7.7c0,0,5,2.7,7.7,13.7c0.3,1.1,0.6,2.2,1,3.3
	c1.8,4.7,4.5,9,8.1,12.6C71.1,134.1,68.4,132.7,65.1,128.3z"/>
<path class="st3" d="M69.4,3.7c3.5,1.4,5.4,4.6,5.2,8.7c0,3.2-1.1,6.3-2.9,8.9c-0.9,0.8-2.1,0.9-3.1,0.2c-1.8-0.7-3.7-1.1-5.6-1.2
	c-2.3,0-4.4,0.9-6,2.5c-2-0.1-4.1,0.2-6,0.8c-1.4,0.3-2.8,1-3.9,1.9c-1.6-0.2-3.3-0.6-4.8-1.2c-2.7-1.6-8.7-5.5-8.7-11.3
	c-0.1-4.3,3.3-7.8,7.6-7.9c0.2,0,0.5,0,0.7,0c2.3,0.1,4.6,0.4,6.8,1c1.6,0.6,3.3,0.8,5,0.6c1.8-0.2,3.6-0.8,5.2-1.7
	c1.6-1.1,3.5-1.8,5.4-2.1C66,2.9,67.8,3.2,69.4,3.7z"/>
<path class="st3" d="M82.9,9.7c4.3,0,6.4,2.1,7.9,6.2c0.6,1.9,1.2,5.2,5.4,6c5,1.2,7.9,2.7,9.3,5.2c1.2,2.1,1.5,4.7,0.8,7
	c-0.6,1.9-1,3.1,0.6,4.8c1.7,1.9,2.1,4.7,1,7c-1,3.3-4.3,6-10.4,6.4c-2.9,0.2-7-0.4-6.8-1.9c0-0.4,0.4-0.8,1.4-2.1
	c0.8-1,1.3-2.2,1.4-3.5c0.2-2.1-0.6-3.9-2.3-5.8c-0.9-0.9-1.2-2.3-0.6-3.5c0.5-1.5,0.7-3.2,0.6-4.8c0-2.5-1.7-5.8-4.3-6.6
	c-3.5-1.2-7.4-0.4-10.1,2.1c-1.7-1.4-2.7-3.4-2.7-5.6C74.1,16.9,77.9,9.7,82.9,9.7z"/>
<path class="st4" d="M102.7,56.9c1.7,2.5,1.9,7.9-0.8,12c-3.7,6.2-9.5,5.8-9.5,5.8c-0.8,8.7-8.3,10.6-12.4,10.6
	c-11,0-11.4-8.7-11.4-9.7c0-0.8-0.4-1-0.8-0.6c-2.7,2.1-3.9,5.8-4.1,9.1c-0.1,2.2,0.2,4.4,1,6.4c1.9,2.9,4.3,4.6,10.1,3.1
	c5-1.4,10.3-1.8,15.5-1.2c4.8,0.8,7-0.6,7.9-3.1c0.6-2.3,2.5-4.1,5-5.6c6.6-3.5,5.6-8.9,5-11.2c-0.4-2.3,1-3.5,2.1-4.6
	c3.7-4.3,4.6-10.1,2.1-13.2c-2.5-3.3-7.2-2.5-9.7-2.1c-1.3,0.2-2.5,0.6-3.7,1.2C100.6,54.3,101.9,55.4,102.7,56.9L102.7,56.9z"/>
<path class="st4" d="M63.4,76.6c-0.2,2.9-1.4,11.8-6.2,14.5c-2.1,1.2-6.6,1.9-11.2,0.2c-3-1.3-5.7-3.4-7.7-6
	c-2.3-2.5-5.2-5.6-12.6-6.6c-6.8-1-13-3.9-11.8-11.6c0.8-6.4,7.2-8.1,10.8-7.9c0.6,0.1,1.2,0.4,1.7,0.8c1.3,2.2,3.1,4.1,5.2,5.6
	c3.2,1.8,6.8,2.6,10.4,2.5c0,0,1.7,7.2,7.2,9.7C53.9,79.9,59.1,79,63.4,76.6z"/>
<path class="st4" d="M24.7,14.7c4.6,0,11.2,2.7,12.2,9.3c0,0-4.6-2.1-7,1c-2.1,2.9-0.6,6.2-0.2,8.1c0.6,1.9,1,3.5,0.6,5
	C29.9,40,28.9,41,26,42.9c-2.1,1.4-3.4,3.7-3.5,6.2c-0.2,3.3,0.8,6.8,3.5,8.7c-2.7,0.8-5.5,0.7-8.1-0.2c-4.5-1.6-7.4-5.9-7.2-10.6
	c0-3.3,1.3-6.4,3.7-8.7c1.1-1.2,1.7-2.7,1.9-4.3c-0.1-1.3-0.5-2.6-1.2-3.7c-1.3-2.3-1.5-5-0.8-7.5C15.5,18,19.8,14.7,24.7,14.7z"/>
<path class="st4" d="M32.6,29c-0.8,2.3-0.2,3.5,0.4,5.4c1.1,2.3,0.4,5.1-1.7,6.6c-3.1,2.5-6.2,4.3-6,9.3c0.4,5,3.9,11.6,8.5,14.1
	c2.7,1.7,5.9,2.4,9.1,1.9c0,0,2.5,7,7.9,9.3c5.1,2.3,11.1,1.4,15.3-2.3c1.9-1.4,4.1-5.8,3.7-9.7c-4.5,0.3-8.9-0.3-13.2-1.7
	c-6.4-2.3-13-7.2-15.3-13.2C39.2,42.9,38.4,33.8,45,27c-1.6-1-3.5-1.7-5.4-1.9C36.9,24.8,33.6,26.1,32.6,29z"/>
<path class="st3" d="M75.2,29.8c-1.9-3.5-5.6-8.3-12-7.9c-1.9,0-4.6,1.2-5.4,2.5c-1.8,0-3.5,0.2-5.2,0.6c-3.4,0.7-6.3,2.9-7.9,6
	c-2.1,3.7-2.9,6.4-2.9,9.9c0.1,5.7,2.9,11.1,7.5,14.5c0.8,0.6,1-0.2,0.8-1.4c-0.7-4.1-0.2-8.2,1.4-12c2.8-5.6,7.7-9.7,13.7-11.4
	C68.4,29.6,71.8,29.3,75.2,29.8z"/>
<path class="st4" d="M64,32.7c-5,2.3-11.8,8.7-12.2,16.8c-0.4,7.2,2.7,11.6,12.4,12s19.3-6.2,19.7-6.4c0.4-0.4,0.2-0.8-0.8-0.6
	c-3.9,0.6-7.9,0.8-11.8,0.8S62.8,54.1,61,51C58.6,47.6,58,41.8,64,32.7z"/>
<path class="st4" d="M79.3,35c2.7,3.1,2.3,7.5-0.4,12c-2.7,4.8-6.4,6-8.7,5.8c-1.6-0.1-3.1-0.4-4.6-1c2.7-0.3,5.1-1.6,7-3.5
	c1.7-2,1.9-4.8,0.6-7c-0.7-1-1.7-2-2.7-2.7c-1.9-1-5.4-1.7-7.5-0.8c0,0,3.1-5.4,9.1-5.4C75.2,32.3,77.5,33.1,79.3,35z"/>
<path class="st4" d="M63.4,38.5c-1.4,1.3-2.3,3.1-2.5,5c-0.3,2.1,0.7,4.3,2.5,5.4c1.9,1,5.2,0.6,6.6-0.8c1.2-0.9,1.8-2.4,1.4-3.9
	c0-0.9-0.7-1.8-1.6-1.8c-0.2,0-0.5,0-0.7,0.1c-0.9,0.2-1.8,0.2-2.7,0C65.7,42.2,64,41.6,63.4,38.5z"/>
<path class="st3" d="M87,25.8c2.7,1.4,3.1,4.3,2.3,7.5s-1.2,4.3,0.8,7s1,6.4,0,8.1c-2.1,2.7-5.3,4.5-8.7,4.8c-5,0.5-5.8-0.2-5.8-0.2
	c2.4-1.8,4.5-4,6-6.6c1.8-2.7,2.4-6,1.7-9.1c-1.2-4.3-5.8-5.6-7.9-5.6c0,0,1-3.9,3.9-5.4C82.2,25,85.3,25,87,25.8z"/>
<path class="st4" d="M71.1,61.7c1,2.4,1,5.1,0,7.5c-1.4,2.9-1.9,7.9,1.9,11.4c3.5,3.5,9.3,2.7,11.8,1.4c2.9-1.4,3.9-4.1,4.6-7.2
	c0.2-1.4,1-2.1,2.9-2.1c3.2-0.1,6.2-1.8,7.9-4.6c1.9-3.1,2.7-7.5,0.6-10.6c-2.1-3.5-7.9-4.3-10.4-4.1c-1.3,0.1-2.5,0.6-3.5,1.4
	C82.5,58.8,77,61.2,71.1,61.7L71.1,61.7z"/>
<path class="st5" d="M104,120.7c-2.7-4.3-5.2-8.9-10.6-14.1c-4.7-4.9-10.9-8-17.6-8.9c-1-0.2-6-1.4-6-1.4h2.1
	c0.6-0.2,1.2-0.2,2.1-0.4c4.6-1,7.9-1.7,11.8-1.7c8.2-0.3,16.1,3.4,21.1,9.9c0.2,0.2,0.8,1.4,0.6,1.7s-0.6,0.2-1.4,0.2
	c1.7,2.7,2.8,5.6,3.3,8.7c0.2,0.6,0,1-0.6,1s-1.1-0.1-1.7-0.2c1.2,4,1.5,8.1,1,12.2c0,0.4-0.2,0.8-0.6,0.8
	C106.5,125.8,105.3,123.2,104,120.7z"/>
<path class="st5" d="M41.7,146.5c0.1-1.9,0.4-3.8,0.8-5.6c0.8-4.9,0.6-9.9-0.6-14.7C39,116.1,34,115.4,34,115.4
	c-0.6-0.4-0.8-1.1-0.6-1.7c0,0,0,1,6,1.2c5.2,0.2,9.1,0.8,11.4,6c1.2,2.5,1.6,5.3,1.2,8.1c0,0.6-0.4,0.8-0.8,0.6s-0.4-0.2-0.4,0.4
	c0,0.8-0.2,7.2-3.5,10.6c-0.6,0.6-0.8,0.4-1.9-0.4c0,0-2.5,4.8-2.9,5.8c-0.2,0.4-0.4,0.6-0.6,0.6L41.7,146.5L41.7,146.5z"/>
<path class="st5" d="M10.4,75.5c0.3-0.2,0.8-0.1,1,0.2l0,0c1.1,1.1,2.4,2,3.9,2.5c1.9,0.7,4,1.1,6,1.2c4.2,0.3,8.3,1.6,12,3.7
	c2.9,2,5.2,4.8,6.4,8.1c0.6,2.1,0.8,4.2,0.6,6.4c-0.2,1.4-0.4,4.1,0.4,5.6l-1.7-1.4c-2.1-1.8-4.4-3.5-6.8-5
	c-7.5-5.2-4.8-3.5-9.9-7.2c-4-3.1-7.4-7-9.9-11.4C11.8,77.2,11.2,76.3,10.4,75.5z"/>
<path class="st5" d="M71.1,134.1c0,0-7-7-9.1-15.9c-2.7-11-7.7-13.7-7.7-13.7c-0.6-0.6-1-1.7-0.2-2.1c0,0,7.5-0.8,11.8,1.2
	c3,1.2,5.4,3.4,6.8,6.2c0.2,1,0.2,1.2-0.8,1.4c-1,0-1.2,0.2-0.2,1s3.9,3.7,4.6,6.6c0,1,0,1-0.8,1c-0.6-0.2-1,0-0.6,0.6
	c0.9,2.1,1.5,4.3,1.7,6.6c0,1,0,1.2-0.6,1.4s-1.4,1.4-0.6,5.2c0.3,1.4,1,2.8,1.9,3.9c0.4,0.4,0.4,0.8,0.2,1
	C77.3,138.9,74.2,137.6,71.1,134.1z"/>
</svg>
