<?xml version="1.0" encoding="utf-8"?>
<!-- Generator: Adobe Illustrator 26.0.2, SVG Export Plug-In . SVG Version: 6.00 Build 0)  -->
<svg version="1.1" id="Layer_1" xmlns="http://www.w3.org/2000/svg" xmlns:xlink="http://www.w3.org/1999/xlink" x="0px" y="0px"
	 width="267.1px" height="297.2px" viewBox="0 0 267.1 297.2" style="enable-background:new 0 0 267.1 297.2;" xml:space="preserve"
	>
<style type="text/css">
	.st0{fill:#C99307;}
	.st1{fill:#FFFFFF;}
	.st2{fill:#064797;}
	.st3{fill:#FFD400;}
</style>
<g id="HIBmxz.tif">
	<g>
		<path class="st0" d="M5,16.9c2.3,0.6,4.3,1.2,6.4,1.6c5.4,1.1,10.8,2.3,16.2,3.3c11.3,2,22.8,3,34.3,2.4
			c5.9-0.3,11.8-1.1,17.7-1.9c5.1-0.7,10.2-1.7,15.3-2.9c5.7-1.4,11.3-2.9,16.9-4.8c6.1-2,12-4.4,18-6.7c0.6-0.2,1.1-0.6,1.7-0.8
			c0.7-0.1,1.5-0.3,2.2,0c8.1,3.5,16.3,6.5,24.7,9c5.1,1.5,10.3,2.7,15.6,3.9c5.1,1.1,10.3,2.1,15.4,2.8c10.1,1.5,20.4,1.9,30.6,1.2
			c4.6-0.3,9.2-0.7,13.7-1.4c4.4-0.6,8.7-1.4,13.1-2.4c4.2-0.9,8.4-2.1,12.6-3.2c0.1,0,0.3,0,0.6,0c-0.1,1.2-0.1,2.3-0.2,3.4
			c-0.3,8-0.5,16.1-0.8,24.1c-0.4,11-0.8,22-1.2,33.1c-0.4,11.1-0.8,22.3-1.2,33.4c-0.3,7.9-0.5,15.8-0.8,23.6
			c-0.2,5.6-0.2,11.2-0.6,16.8c-0.3,4.8-0.9,9.5-1.5,14.2c-0.7,4.5-1.4,9-2.5,13.4c-1.4,5.3-3,10.6-4.9,15.8
			c-2,5.1-4.3,10.2-6.8,15.1c-3.7,7.1-8.4,13.7-13.5,19.9c-4.7,5.7-9.7,11-15.2,15.9c-4.1,3.7-8.4,7.3-12.8,10.5
			c-6,4.3-12.1,8.5-18.4,12.3c-5.4,3.3-11.1,6.2-16.8,9.1c-5.3,2.6-10.8,5-16.2,7.3c-3.8,1.6-7.7,3-11.6,4.5
			c-1.3,0.5-2.5,0.4-3.7-0.1c-5.7-2.2-11.5-4.4-17.1-6.8c-5.1-2.2-10.2-4.6-15.2-7.2c-4.7-2.4-9.4-4.9-13.8-7.7
			c-6.4-4.1-12.8-8.3-18.9-12.7c-7.7-5.6-14.8-12-21.4-19c-5.8-6.2-11.1-12.9-15.6-20.1c-4.2-6.7-7.7-13.8-10.2-21.4
			c-1.9-5.9-3.8-11.8-5.1-17.8c-1.7-7.9-2.4-16-2.5-24.1c-0.2-10-0.8-20-1.3-30c-0.3-6.5-0.6-13-0.9-19.5c-0.4-9-0.9-17.9-1.4-26.9
			c-0.2-4.9-0.4-9.7-0.6-14.6C6.7,51.4,6.1,41,5.6,30.6C5.4,26.1,5.2,21.6,5,16.9z M256.1,21.9c-1.2,0.4-2.1,0.7-3.1,0.9
			c-6.4,1.6-12.9,3-19.5,3.6c-7.2,0.6-14.4,1.3-21.6,1.4c-9,0.2-17.9-0.5-26.8-2.1c-3.3-0.6-6.7-0.9-10-1.7
			c-7.5-1.9-14.9-3.7-22.3-6c-6.6-2.1-13.1-4.7-19.6-7c-0.4-0.1-1-0.2-1.4,0c-3.7,1.4-7.3,3-11.1,4.4c-8.2,3-16.5,5.6-25,7.4
			c-6.7,1.4-13.4,2.7-20.1,3.6c-6.8,0.9-13.8,1.2-20.7,1.5c-3.6,0.2-7.3-0.2-10.9-0.5c-5.9-0.6-11.7-1.2-17.6-2.2
			C21,24.3,15.6,23,10.2,21.9c-1.3-0.3-1.5-0.1-1.4,1.2c0.1,2.8,0.3,5.6,0.4,8.4C9.5,36.8,9.7,42,9.9,47.2c0.5,10,1.1,20.1,1.6,30.1
			c0.5,9.3,0.9,18.6,1.3,27.9c0.4,8.2,0.7,16.3,1.1,24.5c0.4,8.3,0.8,16.5,1,24.8c0.2,9,1.4,17.8,3.5,26.5c1.5,6.2,3.5,12.2,6,18.1
			c2.3,5.5,4.9,10.9,8.2,15.8c3.1,4.7,6.6,9.3,10.1,13.7c5.9,7.4,12.8,13.9,20.2,19.7c5.7,4.4,11.5,8.6,17.5,12.6
			c5.5,3.6,11.2,7,17.1,10.1c5.6,3,11.3,5.7,17.1,8.2c5.6,2.5,11.4,4.7,17.1,6.8c0.9,0.3,2.1,0.2,3-0.1c3.5-1.2,6.9-2.6,10.3-4
			c5.2-2.2,10.4-4.5,15.4-7c5.6-2.8,11.2-5.7,16.6-8.9c5.5-3.2,10.8-6.7,16-10.4c6.2-4.4,12-9.2,17.5-14.5
			c5.3-5,10.3-10.3,14.7-16.2c2.8-3.7,5.4-7.6,8-11.5c3.7-5.6,6.6-11.6,9-17.8c3-7.6,5.3-15.4,6.7-23.5c0.8-4.7,1.7-9.5,2.1-14.3
			c0.6-6.8,0.7-13.6,1-20.3c0.4-8.9,0.7-17.9,1-26.8c0.3-9.4,0.7-18.9,1-28.3c0.4-11.8,0.9-23.6,1.3-35.3c0.3-7.4,0.5-14.8,0.7-22.1
			C256.1,24.1,256.1,23.1,256.1,21.9z"/>
		<path class="st1" d="M256.1,21.9c0,1.3,0,2.2,0,3.2c-0.2,7.4-0.5,14.8-0.7,22.1c-0.4,11.8-0.8,23.6-1.3,35.3
			c-0.3,9.4-0.7,18.9-1,28.3c-0.3,8.9-0.6,17.9-1,26.8c-0.3,6.8-0.5,13.6-1,20.3c-0.4,4.8-1.3,9.5-2.1,14.3
			c-1.4,8.1-3.7,15.9-6.7,23.5c-2.4,6.2-5.4,12.2-9,17.8c-2.6,3.9-5.2,7.8-8,11.5c-4.4,5.8-9.4,11.1-14.7,16.2
			c-5.5,5.2-11.3,10.1-17.5,14.5c-5.2,3.7-10.5,7.1-16,10.4c-5.4,3.2-11,6.1-16.6,8.9c-5.1,2.5-10.3,4.7-15.4,7
			c-3.4,1.5-6.8,2.8-10.3,4c-0.9,0.3-2.1,0.4-3,0.1c-5.7-2.2-11.5-4.4-17.1-6.8c-5.8-2.5-11.5-5.2-17.1-8.2
			c-5.8-3.1-11.5-6.5-17.1-10.1c-6-3.9-11.9-8.1-17.5-12.6c-7.4-5.8-14.3-12.3-20.2-19.7c-3.6-4.4-7-9-10.1-13.7
			c-3.3-4.9-5.9-10.3-8.2-15.8c-2.5-5.9-4.5-11.9-6-18.1c-2.1-8.7-3.3-17.5-3.5-26.5c-0.2-8.3-0.7-16.5-1-24.8
			c-0.4-8.2-0.7-16.3-1.1-24.5C12.4,96,12,86.7,11.5,77.4c-0.5-10-1.1-20.1-1.6-30.1C9.7,42,9.5,36.8,9.3,31.5
			c-0.1-2.8-0.3-5.6-0.4-8.4c0-1.4,0.2-1.5,1.4-1.2c5.4,1.1,10.8,2.4,16.2,3.3c5.8,0.9,11.7,1.6,17.6,2.2c3.6,0.4,7.3,0.7,10.9,0.5
			c6.9-0.3,13.8-0.7,20.7-1.5c6.8-0.8,13.5-2.2,20.1-3.6c8.5-1.8,16.8-4.4,25-7.4c3.7-1.4,7.4-3,11.1-4.4c0.4-0.2,1-0.1,1.4,0
			c6.5,2.3,13,5,19.6,7c7.3,2.3,14.8,4.1,22.3,6c3.3,0.8,6.7,1.1,10,1.7C194,27.3,203,28,212,27.8c7.2-0.1,14.4-0.8,21.6-1.4
			c6.6-0.6,13.1-2,19.5-3.6C253.9,22.5,254.8,22.2,256.1,21.9z M199.6,85.6c-0.1,0.2-0.1,0.4-0.1,0.5c-0.3,4.1-0.6,8.3-1,12.4
			c-0.2,3-0.8,5.9-2.2,8.6c-0.5,0.9-1.3,1.9-1.3,2.9c-0.4,5.4-0.7,10.9-0.7,16.3c0,2.1,0.7,4.2,1.2,6.2c0.3,1.3,1.1,2.4,2.6,2.7
			c1.1,0.2,2.1,0.7,3.2,0.8c2.5,0.2,4.2,3,4.4,5.1c0.1,1.1,0,2.2,0,3.4c0.1,0,0.3,0.1,0.5,0.1c10.5,0,21,0,31.5,0
			c0.9,0,1.2-0.3,1.2-1.1c0.1-3.7,0.4-7.5,0.5-11.2c0.3-8.4,0.6-16.8,0.9-25.3c0.3-7.4,0.5-14.8,0.7-22.1c0.3-8.9,0.7-17.9,1-26.8
			c0.2-5,0.4-10,0.6-15c0.1-1.7,0-3.5,0-5.3c-3.2,0.4-6.3,0.9-9.4,1.2c-4.8,0.5-9.6,1-14.4,1.1c-7.9,0.2-15.8,0.3-23.7-0.6
			c-2.3-0.3-4.6-0.4-6.9-0.8c-3.3-0.5-6.5-1-9.7-1.6c-4.9-1-9.7-2-14.6-3.1c-3.1-0.7-6.1-1.6-9.2-2.5c-3.1-0.9-6.2-1.8-9.2-2.9
			c-4.2-1.5-8.3-3-12.4-4.5c-0.3-0.1-0.7,0-0.9,0.1c-5.4,1.9-10.7,4.1-16.1,5.8c-5.6,1.8-11.2,3.2-16.9,4.6
			c-4.7,1.2-9.5,2.1-14.3,2.9c-3.1,0.6-6.3,1-9.4,1.3c-4.4,0.5-8.7,1-13.1,1.1c-8.1,0.2-16.3,0.3-24.3-0.9
			c-4.3-0.7-8.6-1.1-12.9-1.6c-0.8-0.1-1.6-0.3-2.5-0.5c0,0.5,0,0.8,0,1.1c0.2,4.6,0.5,9.2,0.7,13.8c0.4,7.2,0.7,14.5,1,21.7
			c0.4,8.2,0.7,16.4,1,24.6c0.1,2.6,0.2,5.2,0.3,7.8c0.4,8.8,0.8,17.6,1.2,26.4c0.2,3.6,0.5,7.2,0.6,10.8c0,1.1,0.5,1.3,1.5,1.3
			c10.5,0,21,0,31.5,0c0.5,0,1,0,1.1,0c0.2-1.5,0.3-2.8,0.5-4c0.1-0.9,0.5-1.7,0.5-2.6c0.3-2.9,0.4-5.7,0.7-8.6
			c0.4-4.2,1.5-8.2,3.5-11.9c1.6-2.9,3.8-5.1,7.1-5.7c6.7-1.3,10.5-7,12.2-12.3c-0.1,0.1-0.2,0.1-0.3,0.2c-5.3,4.8-10.8,9.4-17,13.2
			c-4.8,3-9.7,5.3-15.3,6.1c-3.7,0.5-7.4,0.5-11.1-0.6c-3.2-1-6-2.8-7.8-5.7c-2.5-4.1-3-8.4-1.2-12.8c1.1-2.7,2.8-4.8,5.9-5.4
			c2.4-0.4,5.2,1.2,5.7,3.2s0.2,4-0.4,5.9c-0.6,1.9-0.2,3.1,1.6,3.8c2.4,1,4.9,0.7,7-0.5c2.8-1.6,5.6-3.2,8-5.3
			c6-5.3,11.7-10.9,17.5-16.4c2.7-2.6,5.2-5.3,8-7.9c4.5-4.2,10-6.6,15.7-8.6c4.6-1.6,9.3-2.4,14.2-2.5c6.3-0.1,12.6,0.1,18.9,0.3
			c2.1,0,4.3,0.3,6.4,0.5c4.9,0.5,9.8,0.6,14.6-1c3.7-1.2,7.6-2.1,11.5-2.9c2.4-0.5,5-0.6,7.5-0.9c1.1-0.1,2.5-1.8,2.2-2.7
			c-0.5-1.5-0.9-3-1.4-4.4c-1.5-4,1.1-7.6,3.7-8.5c2.6-0.9,4.7,0.4,6.5,2c1.5,1.3,2.9,2,5,1.3c1.6-0.5,3.3-0.8,4.9-0.8
			c1.8,0,3.7,0.4,5.4,0.8c3.2,0.8,6,0,8.7-1.7c1.1-0.7,2.3-0.7,3.5-0.2c1.1,0.5,1.6,1.5,1.7,2.7c0.1,1.8-0.9,3.2-1.7,4.6
			c-0.3,0.5-0.7,1.2-0.6,1.7c0.4,2,0.9,4,1.6,5.9c0.8,2.2,0.3,4-1.3,5.6c-0.3,0.3-0.4,0.9-0.5,1.4c-0.2,0.8,0,1.7-0.4,2.3
			c-0.9,1.3-2.1,2.3-3.7,2.8c-0.4,0.1-0.9,0.4-1.4,0.6c1.4,1.6,1.9,3.3,1,5.1c-0.4,0.8-1.1,1.6-1.7,2.3c-1.6,1.6-3.1,3.3-5.7,2.8
			C200.7,85.8,200.2,85.7,199.6,85.6z M51,218.9c1.8,2,3.3,3.8,4.9,5.5c3.1,3.1,6.1,6.3,9.3,9.2c3.2,2.9,6.5,5.7,9.9,8.2
			c4.2,3.1,8.5,6.1,12.8,9c3.2,2.1,6.4,4,9.8,5.8c4.4,2.5,8.9,4.8,13.4,7.1c3.4,1.7,6.9,3.2,10.4,4.7c3.6,1.6,7.3,3,11,4.5
			c0.4,0.1,0.9,0,1.3-0.2c5.4-2.3,10.9-4.4,16.2-6.8c4.6-2.1,9.2-4.3,13.5-6.7c5.8-3.3,11.5-6.7,17-10.3c4.8-3.2,9.5-6.8,14.1-10.4
			c6-4.8,11.4-10.3,16.4-16c0.9-1.1,1.8-2.2,2.9-3.5C159.5,218.9,105.4,218.9,51,218.9z M175.4,115.8c0.1,0,0.3,0.1,0.4,0.1
			c0.7,2.1,1.3,4.2,2.1,6.3c0.9,2.6,2,5.2,3,7.8c1.3,3.3,2.7,6.6,3.9,9.9c0.4,1.1,0.6,2.3,0.9,3.4c0.2,0.7,0.5,1.5,1.6,1.5
			c5.1,0,10.2,0,15.2,0c0.3,0,0.8-0.2,1-0.5c0.8-1.3,0.5-3.5-0.2-4.8c-1-1.7-2.6-1.9-4.2-2.1c-2.6-0.3-4.3-1.5-5.2-4.1
			c-1.2-3.1-1.4-6.3-1.3-9.5c0.1-4.7,0.5-9.5,0.8-14.2c0-0.4,0.3-0.8,0.5-1.2c0.8-2,2.1-3.9,2.4-6c0.7-4.8,0.9-9.6,1.4-14.4
			c0.1-0.9,0.2-1.9,0.5-2.8c0.6-1.7,1-2,2.7-1.3c1.3,0.5,2.3,0.1,3.2-0.7c0.9-0.7,1.7-1.4,2.4-2.2c1.1-1.2,1.1-2.7,0-4
			c-0.7-0.8-0.7-1.7,0-2.5c0.4-0.4,1.1-0.6,1.7-0.8c2.4-0.6,3.4-1.9,3.3-4.3c0-0.5,0.3-1.1,0.7-1.4c1.4-1.2,1.9-2.7,1.3-4.5
			c-0.5-1.5-1-2.9-1.5-4.4c-0.5-1.4-0.7-2.7,0.3-4c0.6-0.7,1-1.6,1.4-2.5s0.6-1.8-0.2-2.5s-1.6-0.2-2.4,0.2c-3,1.7-6.1,2.4-9.6,1.5
			s-7-1.3-10.5,0.2c-1.5,0.6-3,0.4-4.3-0.9c-0.7-0.7-1.4-1.3-2.3-1.7c-1.4-0.7-2.9-1.7-4.4-0.5c-1.5,1.1-2.7,3.1-2,5
			c0.5,1.5,0.8,3.2,1.5,4.6c0.7,1.5,0.4,2.5-0.5,3.7c-0.9,1.1-1.9,2-3.4,2c-2.1,0.1-4.3,0.2-6.4,0.6c-3.4,0.7-6.6,1.6-10,2.5
			c-2.6,0.7-5.2,1.8-7.9,2c-3.1,0.3-6.3-0.2-9.4-0.3c-8.4-0.3-16.8-0.6-25.1-0.8c-2.5-0.1-5,0.2-7.4,0.7c-3,0.7-6,1.8-9,2.8
			c-4.4,1.4-8.4,3.5-11.8,6.7c-5.3,5-10.3,10.2-15.5,15.3c-5.2,5.1-10.4,10.2-16.7,14.1c-3.2,2-6.6,2.7-10.2,1.7
			c-2.8-0.8-4.8-3.7-3.5-6.7c0.5-1.1,0.5-2.6,0.4-3.9s-1.1-2.1-2.4-2.3c-1.6-0.2-2.8,0.5-3.8,1.7c-2.7,3.1-2.9,9.7-0.5,13.3
			c1.9,2.8,4.6,4.5,7.7,5.2c6.4,1.5,12.7,0.8,18.6-2.3c4-2.1,8-4.5,11.7-7.2c3.9-2.8,7.5-6.1,11.2-9.2c1.5-1.3,2.9-2.7,4.6-4.2
			c0,0.5,0,0.7-0.1,0.9c-1,4.2-2.5,8.2-4.9,11.9c-2.4,3.7-5.6,6.5-10.1,7.2c-2.8,0.4-4.6,2-6,4.3c-2.4,4.1-3.3,8.7-3.9,13.4
			c-0.4,2.7-0.4,5.5-0.6,8.3c-0.1,1.2-0.3,2.5-0.3,3.7c0,1,0.5,1.5,1.7,1.5c4.9-0.1,9.8,0,14.7,0c0.4,0,0.9-0.1,1.4-0.1
			c-0.2-1.4-0.5-2.6-0.6-3.9c-0.2-1.5-0.9-2.7-2.2-3.6c-0.5-0.4-1-1.1-1.1-1.7c-0.4-2.7,0-5.3,1.4-7.6c1.4-2.4,3.8-3.6,6.4-4.3
			c3.6-0.9,7.3-1.6,10.9-2.3c3.9-0.8,7.6-2.2,10.6-5.1c1.9-1.9,3.7-3.8,5.5-5.8c1.1-1.3,2.3-1,3.5-0.6c0.9,0.3,1.5,0.9,1.5,2
			c0,2.6-1.1,4.6-2.8,6.4c-1,1.1-2.1,2.1-3.1,3.2c-0.7,0.8-0.8,1.6,0,2.5c0.6,0.7,1.3,1.3,1.9,2c5.2,5.1,9.3,10.9,11.7,17.8
			c0.3,0.9,0.8,1.2,1.7,1.2c5,0,10.1,0,15.1,0c0.5,0,1,0,1.5,0c0-1.3,0.1-2.5,0-3.6c-0.4-2.7-1.6-3.7-4.3-3.7c-1.3,0-2.6,0-3.9,0
			c-1.7-0.1-3.3-0.5-3.9-2.4c-0.8-2.3-1.5-4.6-2.1-7c-0.7-3,0.2-5.3,2.8-6.6c3.5-1.6,6.4-3.9,8.7-6.9c0.6-0.8,1.3-0.9,2.2-0.7
			c2.7,0.6,5.5,1.1,8.2,1.7c0.5,0.1,1.1,0.4,1.3,0.8c1.2,2.1,2.7,4.2,3.5,6.5c2.3,6.6,4.3,13.3,6.5,20c0.5,1.5,1,1.9,2.5,1.9
			c5.5,0,11.1,0,16.6,0c0.4,0,0.9,0,1.6-0.1c-0.2-1.7-0.4-3.3-0.7-4.9c-0.2-1.3-1.1-2.3-2.4-2.7c-1.3-0.3-2.6-0.4-3.9-0.7
			c-0.5-0.1-1.2-0.4-1.4-0.8c-0.6-1.2-1-2.6-1.3-3.9c-0.8-3.6-0.7-7.2,0.1-10.7C174,119.2,174.8,117.5,175.4,115.8z M207,189.9
			c2-1.4,4-2.5,5.8-4c2.7-2.2,4.5-5,5-8.4c0.3-2.5,0.3-5,0.3-7.5c-0.1-3.9-1.9-7.2-4.7-9.8c-4-3.8-9.1-5.5-14.5-5.6
			c-9.5-0.2-19-0.1-28.4-0.1c-0.3,0-0.6,0.1-1,0.1c0,18,0,35.9,0,53.9c4.7,0,9.2,0,13.8,0c1.1,0,1.3-0.4,1.3-1.4c0-4.3,0-8.6,0-12.8
			c0-0.7,0-1.4,0-2.2c2.3,0,4.4,0,6.5,0c0.3,0,0.6,0.3,0.8,0.5c3.3,4.7,6.5,9.5,9.7,14.3c0.7,1,1.3,1.7,2.7,1.6
			c5.2-0.1,10.4,0,15.8,0C215.6,202.2,211.3,196,207,189.9z M45,154.6c0,0.3-0.1,0.6-0.1,0.8c0,10.7,0,21.5,0.1,32.2
			c0,3.5,0.9,6.9,2.4,10c2.9,6,7.9,9.5,14.2,10.8c6.6,1.4,13.3,1.4,19.8-0.7c6.8-2.1,11.2-6.7,13.4-13.4c1.1-3.3,1.4-6.6,1.4-10
			c0-9.3,0-18.5,0-27.8c0-0.7,0-1.3,0-2c-5.2,0-10.2,0-15.3,0c0,0.5,0,1,0,1.4c0,9.6,0,19.2,0,28.8c0,2.6-0.4,5.2-1.9,7.4
			c-1.7,2.4-4.1,3.4-6.9,3.8c-4,0.4-8.2-0.6-10.4-4.5c-1.1-1.9-1.5-4-1.5-6.1c0-9.8,0-19.6,0-29.5c0-0.4,0-0.9,0-1.4
			C55.1,154.6,50.1,154.6,45,154.6z M100.4,208.4c0.1,0.1,0.2,0.2,0.3,0.2c4.9,0,9.9,0,14.8,0c0.3,0,0.8-0.4,0.9-0.7
			c1.1-2.6,2.2-5.2,3.2-7.9c0.3-0.7,0.6-1.2,1.5-1.2c6.5,0,13.1,0,19.6,0c0.7,0,1,0.2,1.3,0.9c1,2.6,2.2,5.2,3.2,7.9
			c0.3,0.8,0.7,1.1,1.6,1.1c4.3-0.1,8.6,0,12.8,0c0.7,0,1.3,0,2.1,0c-0.2-0.6-0.3-1-0.5-1.5c-1.6-3.6-3.1-7.2-4.7-10.8
			c-1.6-3.6-3.1-7.1-4.6-10.7c-2-4.7-4-9.4-6-14c-2.4-5.5-4.8-11-7.2-16.5c-0.2-0.4-0.8-0.9-1.2-0.9c-4.3-0.1-8.6-0.1-13,0
			c-0.4,0-1.1,0.5-1.2,0.9c-1.4,3-2.7,6.1-4,9.2c-2.1,4.8-4.2,9.6-6.2,14.4c-1.6,3.7-3.2,7.5-4.8,11.3c-1.2,2.7-2.4,5.4-3.5,8.1
			C103.5,201.5,102,204.9,100.4,208.4z M115.5,111.4c-1-0.4-1.7-0.1-2.4,0.7c-1.5,1.7-3.1,3.5-4.8,5.1c-3.6,3.6-8.2,4.9-13,5.9
			c-3.5,0.7-6.9,1.5-10.3,2.5c-2.1,0.6-4.2,1.7-4.8,4.1c-0.4,1.6-0.7,3.3-0.6,4.9c0.1,0.8,1.3,1.5,1.8,2.3c0.6,1.1,1.2,2.3,1.6,3.5
			c0.3,0.8,0.3,1.7,0.4,2.6c0.1,1.2,0.6,1.7,1.9,1.7c12.5-0.1,24.9,0,37.4,0c0.3,0,0.6,0,1.1-0.1c-0.5-1.3-1-2.4-1.5-3.5
			c-1.9-4.7-5-8.6-8.4-12.2c-1.5-1.6-2.9-3.3-4.3-5c-0.7-0.9-0.7-1.9,0-2.8c1-1.3,2.1-2.5,3.2-3.7
			C114.2,115.6,115.6,113.9,115.5,111.4z M161.1,144.6c-0.6-2.2-1.2-4.2-1.9-6.1c-1.3-3.9-2.7-7.8-4.1-11.7
			c-1.1-2.8-2.2-5.7-3.4-8.4c-0.2-0.5-0.8-1.1-1.3-1.2c-2.3-0.6-4.7-1.1-7.1-1.5c-0.5-0.1-1.3,0-1.6,0.4c-2.6,2.9-5.6,5.1-8.9,7
			c-1.3,0.7-2.2,1.9-1.8,3.4c0.7,2.8,1.6,5.5,2.5,8.2c0.1,0.3,0.8,0.7,1.3,0.7c1.4,0.1,2.8,0,4.1,0c4,0.1,6.3,2.3,6.4,6.3
			c0,0.9,0.1,1.9,0.2,2.9C150.8,144.6,155.9,144.6,161.1,144.6z M181.1,135.2c-1.9-4.6-3.8-9.2-5.6-13.9c-0.1,0-0.2,0-0.3,0
			c-0.1,2.2-0.3,4.5-0.2,6.7c0.1,1.8,0.6,3.6,1,5.4c0.1,0.7,0.6,1,1.3,1.1C178.5,134.6,179.8,134.9,181.1,135.2z"/>
		<path class="st2" d="M199.6,85.6c0.6,0.1,1.1,0.2,1.6,0.3c2.6,0.5,4.1-1.3,5.7-2.8c0.7-0.7,1.3-1.4,1.7-2.3c0.9-1.8,0.4-3.5-1-5.1
			c0.5-0.3,0.9-0.5,1.4-0.6c1.6-0.5,2.9-1.4,3.7-2.8c0.4-0.6,0.2-1.5,0.4-2.3c0.1-0.5,0.2-1.1,0.5-1.4c1.6-1.6,2.1-3.4,1.3-5.6
			c-0.7-1.9-1.2-3.9-1.6-5.9c-0.1-0.5,0.3-1.2,0.6-1.7c0.8-1.5,1.9-2.8,1.7-4.6c-0.1-1.2-0.7-2.2-1.7-2.7c-1.1-0.5-2.3-0.6-3.5,0.2
			c-2.7,1.7-5.5,2.4-8.7,1.7c-1.8-0.4-3.6-0.8-5.4-0.8c-1.6,0-3.3,0.3-4.9,0.8c-2,0.6-3.5,0-5-1.3c-1.8-1.6-4-2.8-6.5-2
			c-2.6,0.9-5.2,4.5-3.7,8.5c0.6,1.4,1,2.9,1.4,4.4c0.3,0.8-1.2,2.5-2.2,2.7c-2.5,0.3-5,0.4-7.5,0.9c-3.9,0.8-7.8,1.7-11.5,2.9
			c-4.8,1.6-9.7,1.5-14.6,1c-2.1-0.2-4.3-0.4-6.4-0.5c-6.3-0.1-12.6-0.3-18.9-0.3c-4.8,0-9.6,0.9-14.2,2.5
			c-5.7,1.9-11.2,4.3-15.7,8.6c-2.7,2.6-5.3,5.3-8,7.9c-5.8,5.5-11.5,11.1-17.5,16.4c-2.4,2.1-5.2,3.7-8,5.3c-2.2,1.2-4.6,1.5-7,0.5
			c-1.8-0.7-2.3-1.9-1.6-3.8c0.6-1.9,0.9-3.9,0.4-5.9c-0.5-2.1-3.3-3.7-5.7-3.2c-3.1,0.6-4.8,2.7-5.9,5.4c-1.8,4.5-1.3,8.8,1.2,12.8
			c1.8,2.9,4.6,4.7,7.8,5.7c3.6,1.2,7.4,1.1,11.1,0.6C59,118.3,64,116,68.7,113c6.1-3.8,11.6-8.4,17-13.2c0.1-0.1,0.2-0.1,0.3-0.2
			c-1.7,5.3-5.5,11-12.2,12.3c-3.2,0.6-5.5,2.9-7.1,5.7c-2.1,3.7-3.1,7.7-3.5,11.9c-0.3,2.9-0.4,5.7-0.7,8.6
			c-0.1,0.9-0.4,1.7-0.5,2.6c-0.2,1.2-0.3,2.5-0.5,4c-0.1,0-0.6,0-1.1,0c-10.5,0-21,0-31.5,0c-1,0-1.4-0.2-1.5-1.3
			c-0.1-3.6-0.4-7.2-0.6-10.8c-0.4-8.8-0.8-17.6-1.2-26.4c-0.1-2.6-0.2-5.2-0.3-7.8c-0.3-8.2-0.7-16.4-1-24.6
			c-0.3-7.2-0.7-14.5-1-21.7c-0.2-4.6-0.5-9.2-0.7-13.8c0-0.3,0-0.6,0-1.1c0.9,0.2,1.7,0.4,2.5,0.5c4.3,0.6,8.6,1,12.9,1.6
			c8.1,1.2,16.2,1.1,24.3,0.9c4.4-0.1,8.8-0.7,13.1-1.1c3.2-0.3,6.3-0.8,9.4-1.3c4.8-0.9,9.6-1.8,14.3-2.9
			c5.7-1.4,11.3-2.8,16.9-4.6c5.4-1.7,10.7-3.9,16.1-5.8c0.3-0.1,0.7-0.2,0.9-0.1c4.2,1.5,8.3,3.1,12.4,4.5c3,1.1,6.1,2,9.2,2.9
			c3,0.9,6.1,1.8,9.2,2.5c4.8,1.1,9.7,2.1,14.6,3.1c3.2,0.6,6.5,1.2,9.7,1.6c2.3,0.3,4.6,0.5,6.9,0.8c7.9,0.9,15.8,0.8,23.7,0.6
			c4.8-0.1,9.6-0.7,14.4-1.1c3.1-0.3,6.2-0.8,9.4-1.2c0,1.8,0.1,3.6,0,5.3c-0.2,5-0.4,10-0.6,15c-0.3,8.9-0.7,17.8-1,26.8
			c-0.3,7.4-0.5,14.8-0.7,22.1c-0.3,8.4-0.6,16.8-0.9,25.3c-0.1,3.7-0.4,7.5-0.5,11.2c0,0.9-0.4,1.1-1.2,1.1c-10.5,0-21,0-31.5,0
			c-0.2,0-0.4-0.1-0.5-0.1c0-1.2,0.1-2.3,0-3.4c-0.2-2.1-2-4.9-4.4-5.1c-1.1-0.1-2.1-0.5-3.2-0.8c-1.5-0.3-2.3-1.4-2.6-2.7
			c-0.5-2.1-1.2-4.2-1.2-6.2c0-5.4,0.4-10.9,0.7-16.3c0.1-1,0.8-2,1.3-2.9c1.4-2.7,1.9-5.6,2.2-8.6c0.3-4.1,0.6-8.3,1-12.4
			C199.5,85.9,199.6,85.8,199.6,85.6z"/>
		<path class="st2" d="M51,218.9c54.4,0,108.5,0,162.9,0c-1.1,1.3-1.9,2.4-2.9,3.5c-5.1,5.8-10.4,11.2-16.4,16
			c-4.6,3.6-9.2,7.2-14.1,10.4c-5.5,3.7-11.2,7.1-17,10.3c-4.4,2.5-9,4.7-13.5,6.7c-5.3,2.4-10.8,4.6-16.2,6.8
			c-0.4,0.2-0.9,0.3-1.3,0.2c-3.7-1.4-7.4-2.9-11-4.5c-3.5-1.5-7-3-10.4-4.7c-4.5-2.3-9-4.6-13.4-7.1c-3.3-1.8-6.6-3.8-9.8-5.8
			c-4.3-2.9-8.6-5.8-12.8-9c-3.4-2.6-6.7-5.4-9.9-8.2c-3.2-2.9-6.3-6.1-9.3-9.2C54.3,222.7,52.8,220.9,51,218.9z"/>
		<path d="M175.4,115.8c-0.6,1.7-1.4,3.4-1.7,5.1c-0.8,3.6-0.9,7.2-0.1,10.7c0.3,1.3,0.8,2.6,1.3,3.9c0.2,0.4,0.9,0.7,1.4,0.8
			c1.3,0.3,2.6,0.4,3.9,0.7c1.3,0.3,2.2,1.3,2.4,2.7c0.3,1.6,0.4,3.2,0.7,4.9c-0.7,0-1.1,0.1-1.6,0.1c-5.5,0-11.1,0-16.6,0
			c-1.5,0-2.1-0.4-2.5-1.9c-2.1-6.7-4.2-13.4-6.5-20c-0.8-2.3-2.2-4.4-3.5-6.5c-0.2-0.4-0.8-0.7-1.3-0.8c-2.7-0.6-5.5-1.1-8.2-1.7
			c-0.9-0.2-1.5-0.1-2.2,0.7c-2.4,3-5.3,5.3-8.7,6.9c-2.6,1.2-3.5,3.6-2.8,6.6c0.6,2.4,1.3,4.7,2.1,7c0.6,1.9,2.2,2.3,3.9,2.4
			c1.3,0.1,2.6,0,3.9,0c2.7,0.1,3.9,1.1,4.3,3.7c0.2,1.1,0,2.3,0,3.6c-0.5,0-1,0-1.5,0c-5,0-10.1,0-15.1,0c-0.9,0-1.4-0.3-1.7-1.2
			c-2.4-6.9-6.4-12.8-11.7-17.8c-0.7-0.6-1.3-1.3-1.9-2c-0.8-0.8-0.7-1.7,0-2.5c1-1.1,2.1-2.1,3.1-3.2c1.6-1.8,2.8-3.8,2.8-6.4
			c0-1.1-0.6-1.8-1.5-2c-1.2-0.4-2.4-0.6-3.5,0.6c-1.7,2-3.6,3.9-5.5,5.8c-2.9,2.9-6.6,4.3-10.6,5.1c-3.6,0.8-7.3,1.4-10.9,2.3
			c-2.6,0.7-5,1.8-6.4,4.3c-1.4,2.3-1.8,4.9-1.4,7.6c0.1,0.6,0.6,1.4,1.1,1.7c1.3,0.9,2,2.1,2.2,3.6c0.2,1.2,0.4,2.5,0.6,3.9
			c-0.5,0-1,0.1-1.4,0.1c-4.9,0-9.8,0-14.7,0c-1.2,0-1.7-0.5-1.7-1.5c0-1.2,0.2-2.5,0.3-3.7c0.2-2.8,0.2-5.5,0.6-8.3
			c0.6-4.6,1.5-9.2,3.9-13.4c1.4-2.3,3.2-3.8,6-4.3c4.5-0.7,7.7-3.5,10.1-7.2c2.4-3.6,3.9-7.7,4.9-11.9c0-0.2,0-0.4,0.1-0.9
			c-1.7,1.5-3.1,2.9-4.6,4.2c-3.7,3.1-7.3,6.4-11.2,9.2c-3.7,2.7-7.6,5.1-11.7,7.2c-5.8,3-12.1,3.8-18.6,2.3
			c-3.1-0.7-5.8-2.4-7.7-5.2c-2.4-3.6-2.2-10.2,0.5-13.3c1-1.2,2.2-1.9,3.8-1.7c1.3,0.2,2.4,1,2.4,2.3c0.1,1.3,0.1,2.8-0.4,3.9
			c-1.3,3,0.7,6,3.5,6.7c3.6,1,7,0.2,10.2-1.7c6.3-3.9,11.5-9,16.7-14.1c5.2-5.1,10.2-10.3,15.5-15.3c3.3-3.2,7.4-5.3,11.8-6.7
			c3-1,5.9-2.1,9-2.8c2.4-0.5,4.9-0.8,7.4-0.7c8.4,0.2,16.8,0.5,25.1,0.8c3.1,0.1,6.3,0.6,9.4,0.3c2.7-0.2,5.2-1.4,7.9-2
			c3.3-0.9,6.6-1.8,10-2.5c2.1-0.4,4.2-0.5,6.4-0.6c1.5-0.1,2.5-0.9,3.4-2c1-1.2,1.2-2.2,0.5-3.7c-0.7-1.4-0.9-3.1-1.5-4.6
			c-0.7-1.9,0.6-3.9,2-5c1.6-1.2,3-0.2,4.4,0.5c0.8,0.4,1.6,1.1,2.3,1.7c1.3,1.3,2.7,1.5,4.3,0.9c3.5-1.5,7-1,10.5-0.2
			c3.5,0.9,6.6,0.2,9.6-1.5c0.8-0.4,1.6-0.9,2.4-0.2c0.8,0.7,0.6,1.7,0.2,2.5c-0.4,0.9-0.8,1.8-1.4,2.5c-1.1,1.3-0.8,2.6-0.3,4
			c0.5,1.5,1,2.9,1.5,4.4c0.6,1.8,0.1,3.3-1.3,4.5c-0.4,0.3-0.7,0.9-0.7,1.4c0.1,2.4-0.9,3.7-3.3,4.3c-0.6,0.1-1.3,0.4-1.7,0.8
			c-0.7,0.7-0.7,1.6,0,2.5c1.1,1.2,1.1,2.7,0,4c-0.7,0.8-1.5,1.6-2.4,2.2c-0.9,0.7-1.9,1.1-3.2,0.7c-1.7-0.6-2.1-0.4-2.7,1.3
			c-0.3,0.9-0.4,1.9-0.5,2.8c-0.4,4.8-0.7,9.6-1.4,14.4c-0.3,2.1-1.6,4-2.4,6c-0.2,0.4-0.5,0.8-0.5,1.2c-0.3,4.7-0.7,9.5-0.8,14.2
			c-0.1,3.2,0.2,6.4,1.3,9.5c0.9,2.6,2.7,3.8,5.2,4.1c1.6,0.2,3.2,0.4,4.2,2.1c0.8,1.3,1.1,3.5,0.2,4.8c-0.2,0.3-0.7,0.5-1,0.5
			c-5.1,0-10.2,0-15.2,0c-1.1,0-1.3-0.8-1.6-1.5c-0.4-1.1-0.5-2.3-0.9-3.4c-1.3-3.3-2.6-6.6-3.9-9.9c-1-2.6-2-5.2-3-7.8
			c-0.7-2.1-1.4-4.2-2.1-6.3C175.6,115.9,175.5,115.8,175.4,115.8z M121.4,83.8L121.4,83.8c-0.5,1.6-1.9,2.3-3.4,1.5
			c-2.1-1.1-3.4-3.9-2.6-6.2c0.1-0.3,0.4-0.7,0.2-0.9c-0.6-1,0-1.6,0.6-2.3c0.4-0.5,0.8-1,1-1.3c-0.6-0.7-1.4-1.3-1.5-1.8
			c0-0.7,0.7-1.4,1.1-2.1c-1.3,0-2.6,0-3.9,0c0.1,0.3,0.1,0.4,0.2,0.5c1.5,1.7,1.1,2.9-1.1,3.5c-0.4,0.1-0.9-0.1-1.4-0.2
			c0.1-0.4,0.2-0.8,0.3-1.2c0.1-0.2,0.2-0.4,0.3-0.6c-1.1-0.9-2.3-1-3.7-0.2c-0.6,0.3-1.1,0.7-0.9,1.7c0.8-0.1,1.6-0.2,2.4-0.3
			c0.2,0,0.6,0.2,0.7,0.4c0.1,0.1,0,0.6-0.2,0.6c-1.2,0.5-2.3,1.1-3.6,1.3c-1.3,0.2-1.6-0.5-1.4-1.8c0.1-0.4,0-0.9,0-1.3
			c-1.4,0.6-1.5,0.8-1.4,2.6c0.1,1.7-0.2,2.1-1.8,2.4c-1.8,0.4-3.4,0.4-4.7-1.1c-0.2-0.2-0.8-0.4-1.1-0.3c-0.3,0.2-0.7,0.7-0.6,1
			c0,0.9-0.3,1.5-1.1,1.8c-0.7,0.3-1.5,0.4-2.3,0.6c-1,0.2-1.9,0.2-1.9,1.7c0,1.8-1.5,2.7-3.3,2.2c-0.5,0.5-1,1-1.6,1.7
			c2.7-0.1,2.1,2.1,2.7,3.6c0.7-1.3,1.1-2.4,1.8-3.4c0.6-0.8,1.3-1.7,2.1-1.9c1.1-0.3,1.6-0.9,2.1-1.7c0.6-0.8,1.3-1.5,2.1-2.1
			c0.2-0.2,0.8,0,1.1,0.2c0.2,0.2,0.2,0.7,0.2,1.1s-0.4,1-0.2,1.3c0.4,0.9,1,1.8,1.6,2.7c1.3-0.5,1.5-1.9,0.4-3.1
			c-0.3-0.4-0.7-1.2-0.5-1.5c0.3-0.5,1-0.9,1.6-0.9c0.4,0,1,0.6,1.1,1.1c0.2,0.9,0.3,1.8,0.3,2.7c0.1,2.1-0.9,3.5-2.9,4
			c-0.5,0.2-1.2,0.3-1.7,0.1c-0.4-0.1-0.7-0.7-1.1-1.1c-0.4,1-0.9,2.1,0.3,3c0.2,0.1,0.4,0.6,0.3,0.8c-0.7,1.3-0.5,2.9-2,4
			c-1.5,1.2-2.2,3-2,5.2c0.7-0.4,1.2-0.7,1.7-0.9c1.9-0.9,3.5,0.2,3.5,2.2c0,1.1-1.4,1.8-2.9,1.5c-0.8-0.2-1.5-0.5-2.3-0.7
			c-0.3-0.1-0.9,0-1.1,0.2c-0.6,1.1-1.4,2.1-0.8,3.5c0.1,0.3,0,0.8-0.2,1.1c-0.4,0.6-1,1.2-1.3,1.5c-0.9,0.5-1.5,0.9-2.2,1.3
			c-1.2,0.7-0.2,1.4,0,2.1s0.2,1.5,0.2,2.2c-0.8-0.1-1.7-0.1-2.5-0.2c-0.2,0-0.4-0.3-0.6-0.4c-0.3-0.1-0.6-0.2-0.8,0
			c-1.5,1-3,2-4.6,3c0.8,2,0.6,2.8-0.8,3.4c-1.9,0.9-2.6,0.5-4-2.1c-0.9,0.6-1.9,1.2-2.5,1.9c-0.4,0.5-0.7,1.6-0.5,2.1
			c0.8,1.7,0.5,3.3-0.7,4.5c-1.1,1.2-1.6,2.6-1.9,4.1c-0.2,1.1-0.4,2.2-0.5,3.3c-0.1,2.3-0.1,4.5,0.1,6.8c0.1,0.7,0.8,1.7,1.4,1.8
			c0.9,0.2,2.1,0.6,2.9-0.7c0.4-0.6,1.2-1.4,2.1-0.5c0.7,0.7,1.5,1.7,2.4,0.2c0.1-0.1,0.6,0,0.9,0c0.3,0.1,0.7,0.3,1,0.4
			c0-2.6-0.9-3.6-3.3-3.5c-1,0-2,0.1-3,0.1c-0.5,0-1-0.2-1.5-0.3c0-0.1-0.1-0.3-0.1-0.4c0.4-0.3,0.8-0.6,1.3-0.8
			c0.6-0.3,1.4-0.4,2-0.8c0.3-0.1,0.5-0.6,0.5-0.9c0.1-1.2,0-2.5,0.3-3.7c0.9-3.6,3.2-6.4,5.6-9c-0.1-0.1-0.1-0.2-0.2-0.3
			c-0.3-0.4-0.5-0.8-0.8-1.1c0.5-0.2,0.9-0.5,1.4-0.6c0.3-0.1,0.7,0.1,1,0.1c0.9,0.1,1.7,0.3,2.6,0.4c1,0.1,1.9,0,2.7-1
			c0.7-0.8,1.7-1.2,2.8-0.8c1.3,0.5,3.5-0.2,4.5-1.2c0.3-0.4,1-0.7,1.4-0.7c2,0.3,2.9-1.1,4.1-2.3c-0.6-0.1-1.3-0.1-1.8,0.1
			c-1,0.4-1.2-0.1-1.3-0.8c-0.2-1.6,1.4-3.2,3.4-3.5c2.1-0.3,2.7,0.2,2.8,2.4c1.1-0.9,2.2-1.9,3.2-3.1c1.2-1.4,1-2.3-0.8-3.2
			c1.5-1.4,3.5-1.7,5.3-2.5c1.7-0.8,3.5-1.7,5.2-2.6c-0.4-0.4-0.9-0.9-1.5-1.4c0.8-0.8,1.5-0.3,2.1-0.1c2.7,1.1,5.3,2.4,8,3.6
			c1.4,0.6,2.8,1.1,4.4,0.7c1.2-0.3,2.1,0.2,2.5,1.3c0.6,1.6,1.8,1.8,2.9,1.8c0.3-0.7,0.5-1.3,0.7-1.8c0.5,0.3,1.2,0.4,1.6,0.8
			c0.9,1.1,1.9,1.4,3.2,1.2c0.7-0.1,1.3,0,2-0.1c0.9-0.1,1.4,0.4,1.3,1.3c-0.2,1.6,0.8,2.1,2,2.4c1,0.2,2,0.3,3,0.3
			c0.4,0,0.8-0.2,1.4-0.4c-1.1-2-3.1-3.3-3.1-5.6l-0.1-0.1c-0.1-0.4-0.1-0.9-0.2-1.3c0.5,0.1,0.9,0.2,1.4,0.3
			c0.4,0.1,0.7,0.4,1.3,0.7c-0.4-3.5-0.2-3.7,2.7-2.8c1.2-1.3,1.6-2.8,1.6-4.5c0-2.5-0.3-5-0.4-7.5c0-0.4,0.3-0.8,0.5-1.2
			c0.3,0.3,0.5,0.5,0.8,0.8c1,1.2,1.9,2.4,2.9,3.5c0.5,0.5,0.8,0.8,0.4,1.6c-1.4,2.6-2.5,5.4-2.7,8.4c0,0.6-0.8,1.1-1.3,1.6
			c-0.3,0.3-0.8,0.5-1.2,0.7c0.3,0.5,0.5,0.9,0.7,1.4c-0.6,0.4-1.1,0.8-1.6,1.1c0.2,0.5,0.3,0.9,0.5,1.3s0.4,0.7,0.6,1.1
			c0.6,0.8,1.3,0.3,2.1,0.1c1.3-0.4,1.7-0.1,1.4,1.2c-0.1,0.5-0.2,1-0.2,1.5c-0.1,1.7,0.5,2.7,2,2.8c-0.4-0.6-0.7-1-1-1.5
			c-0.4-0.6-0.5-1.2,0.3-1.5c1.2-0.5,2,0.1,2.8,0.9c0.7,0.7,1,1.5,0.3,2.4c-0.2,0.3-0.3,0.7-0.4,1c0.8,0.5,1.9-0.9,2.1,0.4
			c0.2,1,0,2.4-0.6,3.2c-0.8,1.1-1.3-0.7-2.1-0.7c0.5,1.8,0.9,3.4,2.4,4.6c0.4,0.3,0.5,1.6,0.3,1.7c-0.8,0.5-0.5,1.1-0.4,1.7
			c1.2,4.1,2.4,8.3,3.7,12.4c0.2,0.5,0.8,1.1,1.3,1.2c2.3,0.3,4.7,1,6.7-0.9c0.7-0.7,1.4-0.8,1.9,0.4c0.4,0.9,1.3,0.8,1.9,0
			c1-1.2,1.5-1.2,2.3,0.2c0.1,0.1,0.3,0.2,0.4,0.3c1.1-1.5,0.7-2.9-1-3.1c-2.1-0.2-4.2-0.2-6.3-0.2c-0.6,0-1.2,0-1.9,0
			c0-0.1-0.1-0.3-0.1-0.4c0.5-0.4,0.9-0.8,1.3-1.3c0.3-0.4,0.7-0.9,0.6-1.2c-0.4-1.4-0.9-2.7-1.4-4.1c-0.1,0.1-0.2,0.3-0.2,0.4
			c-0.4-0.1-1-0.1-1.3-0.4c-0.5-0.7-0.7-1.4,0.2-2.1c0.3-0.2,0.7-0.5,0.7-0.7c-0.1-1.4-0.3-2.7-0.5-3.9c-1,0.2-1.8,0.4-2.5,0.6
			c-0.1-1-0.2-2-0.2-3c0-0.8,0.5-0.9,1.2-0.7c1.7,0.6,1.8,0.5,2.4-1.5c-0.3-0.2-0.7-0.4-0.9-0.8s-0.6-1-0.4-1.3
			c0.1-0.3,0.8-0.5,1.2-0.7c0.3-0.1,0.8-0.1,0.9-0.2c0.3-1.1,0.9-2.2,0.7-3.2c-0.1-0.6-1.4-1.1-2.2-1.5c-0.5-0.2-1-0.1-1.2,0.7
			c-0.1,0.3-0.5,0.8-0.8,0.8c-0.4,0-0.8-0.4-1-0.7c-0.2-0.3-0.4-0.7-0.4-1c-0.1-0.5-0.1-1.1-0.2-1.6c0.5,0,1.1,0.1,1.6,0.1
			c0.7-1.6,1-1.5,3.6,0.5c0.5-0.5,1.1-1,0-1.4c-1.3-0.5-1.9-1.2-1.8-2.8c0-0.4,0.4-0.8,0.6-1.2c0.3,0.3,0.6,0.6,0.9,0.9
			c0.3,0.3,0.7,0.6,1,0.8c0.4,0.2,0.9,0.4,1.3,0.6c0.8,0.4,1.3,0.2,1.3-0.6c-0.1-1.5,0.7-1.9,1.9-2.1c1.1-0.2,1.5-0.9,1.1-1.9
			c-0.4-0.8-0.1-1.2,0.8-1.2c1.4-0.1,1.4-0.2,1.1-1.6c-0.1-0.4,0.1-1.1,0.3-1.1c1-0.3,0.9-1,0.9-1.8c0-0.7,0-1.5,1.1-1.8
			c1.1,3.3,0.6,6.7,0.9,10c0,0.2-0.3,0.3-0.5,0.5c-1.7,2-3.3,4.1-5,6.2c0.1,0.1,0.2,0.2,0.3,0.3c1.7-0.6,3.6-0.8,4.7-2.6
			c0.2-0.4,1-0.8,1.4-0.8c1.2,0,2-0.7,2.8-1.4c3-2.4,4.4-5.9,5.9-9.3c0.2-0.4,0-1.1-0.1-1.6c-0.2-0.7-0.5-1.4,0.3-1.9
			c1.3-0.8,1.8-2.2,1.2-4.2c-0.9,1.3-1.6,2.4-2.3,3.5c-0.3,0.4-0.7,0.7-1,1c-0.2-0.4-0.5-0.8-0.7-1.2c-0.4-1.1-0.9-2.1-1.3-3.2
			c-0.6-1.5-1.1-3-1.7-4.5c-0.2-0.7-0.4-1.4-0.8-1.9c-1.1-1.5-2.3-2.8-3.4-4.3c-0.2-0.3-0.2-0.7-0.2-1.1c0.4,0,0.9-0.1,1.1,0.1
			c1.7,1.3,3.4,2.5,3.9,4.8c0.1,0.3,0.2,0.6,0.4,0.7c2.1,0.9,2.7,2.8,3.3,4.6c0.4,1.3,1.2,1.5,2.2,0.5c0.4-0.4,0.6-0.9,1.1-1.6
			c-1.4,0.6-1.5,0.6-1.7-0.6c0-0.2-0.1-0.4-0.1-0.6c-0.7-3.2-2.2-6-4.3-8.5c-0.3-0.3-0.3-0.8-0.4-1.2c0.5,0,1.1-0.2,1.5,0
			c0.5,0.2,0.9,0.7,1.2,1.2c0.3,0.6,0.4,1.3,0.5,1.9c0.3,2,2.3,4.3,3.9,4.4c0.2-1.2,0.3-2.1-1.1-2.8c-1.3-0.6-1.9-1.7-2.1-3.2
			c-0.2-1.5-0.9-2.6-2.6-3.2c-1.2-0.4-2.2-1.3-3.2-2.2c-1.5-1.4-1.4-2.3,0.4-3.1c-0.2-1.6-1.5-2.3-2.7-2.9c-0.7-0.4-0.8-0.9-0.7-1.5
			c0.3-1.7,3.3-3.4,5.5-2.7c-0.8,0.4-1.3,0.7-2.1,1.1c0.9,0.4,1.4,0.6,1.9,0.8c-0.3,0.5-0.6,0.8-1,1.4c0.6,0.2,1,0.5,1.5,0.6
			c1.1,0.1,2.3,0,3.4,0c1,0,2.1,0.1,3.1,0.3c0.2,0,0.5,0.7,0.4,1c-0.6,1.5-0.3,2.5,1.1,3.2c1.6,0.9,3.3,1.2,5.1,0.7
			c1-0.3,1.6-0.8,1.7-1.9c0.1-1-0.2-1.7-1.1-2.3c-1.1-0.6-2.1-1.3-3.1-2c0-0.2,0.1-0.4,0.1-0.6c0.7-0.1,1.5-0.4,2-0.1
			c1.8,0.6,3.5,1,5.2,0c0.2-0.1,0.7,0,0.9,0.2s0.2,0.8,0.1,1c-0.5,0.6-1,1.2-1.6,1.7s-1,3.2-0.4,3.4c0.9,0.2,1.9,0.1,2.8-0.2
			c0.4-0.1,0.8-1.1,0.6-1.5c-0.6-2.3,1.1-4,1.4-6c-0.6-0.3-0.9-0.8-0.2-1.5c0.5-0.5,0.5-0.9,0.2-1.4c-0.2-0.4-0.2-0.8-0.3-1.2
			c-0.3-1.1-0.4-2.4-1-3.4c-0.6-0.9-0.5-1.4,0.1-2.1c0.4-0.5,0.9-1,1.5-1.6c-1.8,0.1-2.9,0.8-3.8,1.8c-0.2,0.2-0.4,0.6-0.6,0.6
			c-1.9,0.1-3.7,1-5.7,0c-3.1-1.4-6.5-1.4-9.7-0.4c-2.2,0.6-4,0.2-5.7-1.3c-1-0.9-2.1-1.8-3.1-2.7c-0.1,0.1-0.3,0.2-0.4,0.3
			c0.5,0.8,1,1.5,1.6,2.3c0.6,0.9,1.4,1.8,1.9,2.7c0.2,0.3,0,1-0.3,1.3c-0.1,0.2-0.8,0-1.2-0.1c-0.7-0.3-1.4-0.7-2.3-1.2
			c0.2,1.3,0.2,2.4,0.6,3.3c0.4,0.9,1.2,1.5,1.8,2.3c-0.2,0-0.4,0.1-0.5,0.1c-2.3,0.9-3.1,1.9-2.7,3.4c0.2,0.7,0.9,1.3,1.3,1.9
			c0.4,0.5,1.1,1,0.1,1.7c-1.3-0.9-2.5-1.8-3.9-2.8c-0.2,0.4-0.4,0.8-0.4,1.1c0,0.7-0.4,1-1,0.9c-1.4-0.4-2.8-0.3-3.9,0.4
			c-0.5-0.5-0.9-1.1-1.3-1.1c-1.8,0.2-3.7,0.6-5.5,1c-0.2,0-0.4,0.4-0.5,0.6c-0.6,1.6-0.9,1.7-2.5,1.4c-0.8-0.2-1.7-0.7-2.4-0.6
			c-1.6,0.3-3.1,1-4.8,1.7c0.7,0.4,1.1,0.6,1.5,0.9c-0.7,1-1.5,1.5-2.5,1.3c-0.3,0-0.7-0.5-0.7-0.8c-0.1-1.6-0.5-1.8-1.8-1
			c0.2,0.5,0.6,1.1,0.5,1.3c-0.3,0.3-0.9,0.4-1.4,0.6c-0.1,0-0.3,0-0.5-0.1c-1.1-0.1-2.1-0.2-3,0.6c-0.3,0.2-0.8,0.2-1.3,0.3
			c0.9-2.4,0.9-2.4-1.7-2.5c-1.9-0.1-3.7-0.4-5.6-0.5c-4.5-0.3-9-0.6-13.5-0.8c-0.4,0-0.8,0.1-1.2,0.1c0,0.1,0,0.3,0,0.4
			c1.3,0,2.5,0,3.8,0c-0.4,1.3-1.1,1.8-2.4,1.6c-1.2-0.1-2.3-0.4-3.5-0.5c-1-0.1-1.6-0.5-1-1.7c-0.6,0-1.2-0.1-1.7,0
			c-0.6,0.2-1.6,0.5-1.7,1s0.3,1.4,0.7,1.9c0.4,0.5,0.6,0.8,0.1,1.3c-1.4,1.5-1.9,3.3-1.6,5.3c0.2,1.6,0.8,2.2,2.4,2.6
			C120.4,83.2,120.9,83.5,121.4,83.8z M130.6,139.1c-0.1-0.5-0.1-1.1-0.3-1.6c-0.7-1.7-1.6-3.4-2.3-5.1c-0.4-0.8-0.6-1.6-1.8-1.6
			c-1,0-1.4-1-0.8-1.7c1.1-1.2,0.6-2.4,0.2-3.5c-0.3-0.9-0.4-1.6,0.2-2.3c0.5-0.6,0.5-1.1-0.1-1.7c-0.7-0.6-0.6-1.3,0.4-1.6
			c0.7-0.2,1.5-0.4,2.3-0.4c1.5-0.1,2.8-1.2,2.9-2.7c0.1-1,0.6-1.3,1.5-1c0.3,0.1,0.6,0.4,0.8,0.3c0.7-0.3,1.7-0.6,2.1-1.2
			c0.5-0.8-0.2-1.3-1.1-1.5c-0.9-0.2-1.9-0.5-2.8-0.8c-1-0.3-1.8-0.2-2.7,0.4c-2.6,1.6-4.3,1.3-6.3-1c-0.5-0.6-0.9-0.4-1.2,0.1
			c-0.5,1.1-1.1,2,0.2,3.1c1,0.8,0.7,2.1-0.7,3.2c-1,0.9-1.4-0.1-1.9-0.7c-1.3,1.5-2.5,3-3.8,4.4c0.6,0.7,1.1,1.5,1.7,2.2
			c0.2,0.3,0.7,0.4,1,0.5c0.7,0.2,1.6,0.2,2.1,0.7c0.3,0.3-0.2,1.2-0.3,2.1c0,0.1,0.3,0.4,0.5,0.7c2.3,3.9,4.5,7.7,6.7,11.6
			c0.7,1.2,1.5,1.9,3,1.8c2.2-0.1,4.4,0,6.7-0.1c0.4,0,1-0.2,1.1-0.5c0.5-1.2,1.1-0.7,1.7-0.2c0.5,0.3,1.1,0.6,1.9,1
			c-0.1-1.7-0.6-2.5-1.9-2.7c-1-0.2-2-0.3-3-0.3C134.6,139.1,132.6,139.1,130.6,139.1z M190.3,111.1c-0.1-0.1-0.2-0.1-0.4-0.2
			c-1.4,0.8-2.8,1.6-4.2,2.4c-0.7,0.4-0.9,0.8-0.6,1.6c0.5,1.4-0.1,2.1-1.6,2c-1.9-0.2-2.7,0.6-2.4,2.6c0.1,0.9,0.6,1.7,0.8,2.6
			c0.3,1.2,0.7,2.1,2.1,2.4c1.4,0.3,1.6,1.5,0.6,2.5c-0.7,0.7-0.4,1.7-0.1,1.9c2,1,1.5,2.7,1.8,4.4c0.3,2,1,3.9,1.7,5.9
			c0.7,2.2,1.5,2.8,3.8,2.8c1.7,0,3.4-0.1,5.2,0c1.1,0.1,2-0.2,2.4-1.4c0.8,0.4,1.4,0.8,2.3,1.3c-0.1-1.5-0.7-2.3-1.8-2.4
			c-2-0.3-4.1-0.3-6.1-0.4c-0.5,0-1,0-1.3,0c0-0.8,0.1-1.4,0-1.8c-1.6-4.3-2.6-8.7-2.7-13.3c0-0.4-0.3-1-0.7-1.3
			c-0.6-0.5-0.7-1-0.3-1.6c1.1-1.5,0.6-3.2,0.8-4.8c-0.7,0.2-1.2,0.4-1.7,0.4c-0.4,0-1-0.5-1-0.8c-0.2-1.7,1.5-3.2,3.2-2.9
			C190.2,112.3,190.3,111.7,190.3,111.1z M70.2,100c-1.4,1.3-2.8,2.5-4.2,3.8c-0.2,0.2-0.6,0.7-0.5,0.9c0.4,1.1-0.3,1.4-1.1,1.6
			c-2.5,0.6-4.5,1.7-5.8,4.1c-0.9,1.7-1.8,1.9-3.6,1.4c-0.3-0.1-0.7-0.1-1-0.1c-2.3,0.7-4.6,1.3-7,0.7c0.5,0.4,1.1,0.8,1.6,1.1
			c0.6,0.4,1.1,0.7,1.9,0.2c0.5-0.3,1.3-0.2,2-0.3c0.8,0,1.6,0.2,2.4,0.1c1.1-0.2,2.2-0.5,3.3-0.9c1.3-0.4,2.5-1,2.9-2.6
			c0.4-1.5,1.5-2,3.1-1.5c0.9,0.3,1.5,0,2.1-0.5c0.8-0.6,1.5-1.3,2.4-1.9c-0.2-0.6-0.5-1.1-0.6-1.6c-0.1-0.6,0-1.3,0.1-1.9
			c0.6,0.1,1.1,0.1,1.7,0.3c1.1,0.4,2.1,0.9,3-0.4C71.9,101.6,71,100.8,70.2,100z M78.5,91.8c2.4,0.3,2.6,2.1,3.3,3.6
			c0.8-0.7,1.6-1.4,2.4-2.2c-2.7-0.3-2.4-2.5-2.8-4.1C80.5,89.9,79.6,90.8,78.5,91.8z M75.6,100.5c0.8-0.7,1.6-1.3,2.3-1.8
			c-0.9-1.2-1.8-2.3-2.7-3.4c-0.8,0.6-1.7,1.3-2.5,1.9C75.2,98.4,75.3,98.5,75.6,100.5z M199.6,77.2c-0.1,0.6-0.2,0.9-0.3,1.2
			c-0.3,1.5-0.1,1.8,1.5,1.7c1.1-0.1,2.2-0.1,3.3-0.1c1.1,0.1,1.5-0.4,1.2-1.4c-0.1-0.4-0.3-0.8-0.4-1.2c-0.5,1.5-1.6,1.1-2.7,1.2
			C201.1,78.8,200.3,78.2,199.6,77.2z M101.7,74.7c-1.6-0.5-2.4-0.1-2.5,1.1C100.8,76.3,101.2,76.1,101.7,74.7z"/>
		<path class="st2" d="M207,189.9c4.3,6.1,8.6,12.3,13,18.6c-5.5,0-10.7-0.1-15.8,0c-1.4,0-2-0.6-2.7-1.6c-3.2-4.8-6.5-9.5-9.7-14.3
			c-0.2-0.2-0.5-0.5-0.8-0.5c-2.1,0-4.3,0-6.5,0c0,0.8,0,1.5,0,2.2c0,4.3,0,8.6,0,12.8c0,1-0.2,1.4-1.3,1.4c-4.6-0.1-9.1,0-13.8,0
			c0-18,0-35.9,0-53.9c0.3,0,0.7-0.1,1-0.1c9.5,0,19-0.1,28.4,0.1c5.4,0.1,10.5,1.8,14.5,5.6c2.8,2.6,4.6,5.9,4.7,9.8
			c0.1,2.5,0.1,5-0.3,7.5c-0.5,3.4-2.3,6.3-5,8.4C211.1,187.3,209.1,188.5,207,189.9z M184.5,173.9L184.5,173.9c0,1.8,0,3.6,0,5.4
			c0,0.9,0.2,1.3,1.2,1.2c3.1-0.1,6.3,0.1,9.4-0.1c1.6-0.1,3.2-0.4,4.7-1c2.1-0.9,3.2-2.7,3.3-4.9c0.1-2.3-0.3-4.4-2.5-5.8
			c-1.8-1.2-3.8-1.5-5.8-1.5c-3.1-0.1-6.2,0-9.3,0c-0.8,0-1,0.3-1,1C184.5,170.1,184.5,172,184.5,173.9z"/>
		<path class="st2" d="M45,154.6c5.1,0,10.1,0,15.2,0c0,0.5,0,0.9,0,1.4c0,9.8,0,19.6,0,29.5c0,2.2,0.4,4.2,1.5,6.1
			c2.2,3.9,6.4,4.9,10.4,4.5c2.8-0.3,5.3-1.4,6.9-3.8c1.5-2.2,1.9-4.8,1.9-7.4c0-9.6,0-19.2,0-28.8c0-0.5,0-0.9,0-1.4
			c5.1,0,10.2,0,15.3,0c0,0.7,0,1.3,0,2c0,9.3,0,18.5,0,27.8c0,3.4-0.3,6.8-1.4,10c-2.2,6.7-6.6,11.3-13.4,13.4
			c-6.6,2.1-13.2,2.1-19.8,0.7c-6.3-1.4-11.3-4.9-14.2-10.8c-1.5-3.1-2.4-6.5-2.4-10c0-10.7,0-21.5-0.1-32.2
			C44.9,155.2,44.9,154.9,45,154.6z"/>
		<path class="st2" d="M100.4,208.4c1.5-3.5,3-6.9,4.6-10.4c1.2-2.7,2.4-5.4,3.5-8.1c1.6-3.8,3.2-7.5,4.8-11.3
			c2.1-4.8,4.2-9.6,6.2-14.4c1.3-3.1,2.6-6.1,4-9.2c0.2-0.4,0.8-0.9,1.2-0.9c4.3-0.1,8.6-0.1,13,0c0.4,0,1.1,0.5,1.2,0.9
			c2.4,5.5,4.8,11,7.2,16.5c2,4.7,4,9.4,6,14c1.5,3.6,3.1,7.1,4.6,10.7c1.6,3.6,3.1,7.2,4.7,10.8c0.2,0.4,0.3,0.9,0.5,1.5
			c-0.8,0-1.5,0-2.1,0c-4.3,0-8.6,0-12.8,0c-0.9,0-1.3-0.3-1.6-1.1c-1.1-2.6-2.2-5.2-3.2-7.9c-0.3-0.7-0.6-0.9-1.3-0.9
			c-6.5,0-13.1,0-19.6,0c-0.9,0-1.2,0.5-1.5,1.2c-1.1,2.6-2.1,5.3-3.2,7.9c-0.1,0.3-0.6,0.7-0.9,0.7c-4.9,0-9.9,0-14.8,0
			C100.7,208.5,100.6,208.5,100.4,208.4z M131.4,171.9c-0.1,0-0.3,0-0.4,0c-2,5.1-4.1,10.1-6.2,15.3c4.4,0,8.4,0,12.7,0
			C135.4,182,133.4,176.9,131.4,171.9z"/>
		<path class="st2" d="M115.5,111.4c0.1,2.5-1.2,4.2-2.8,5.9c-1.1,1.2-2.2,2.4-3.2,3.7c-0.7,0.9-0.7,1.9,0,2.8
			c1.4,1.7,2.8,3.4,4.3,5c3.4,3.7,6.4,7.6,8.4,12.2c0.5,1.1,1,2.3,1.5,3.5c-0.4,0-0.8,0.1-1.1,0.1c-12.5,0-24.9,0-37.4,0
			c-1.3,0-1.8-0.4-1.9-1.7c-0.1-0.9-0.1-1.8-0.4-2.6c-0.4-1.2-0.9-2.4-1.6-3.5c-0.5-0.8-1.7-1.5-1.8-2.3c-0.1-1.6,0.2-3.3,0.6-4.9
			c0.7-2.4,2.7-3.5,4.8-4.1c3.4-1,6.8-1.8,10.3-2.5c4.8-0.9,9.4-2.3,13-5.9c1.7-1.7,3.2-3.4,4.8-5.1
			C113.7,111.3,114.4,111,115.5,111.4z"/>
		<path class="st2" d="M161.1,144.6c-5.3,0-10.4,0-15.6,0c-0.1-1-0.1-1.9-0.2-2.9c-0.1-4.1-2.3-6.3-6.4-6.3c-1.4,0-2.8,0.1-4.1,0
			c-0.5,0-1.2-0.3-1.3-0.7c-0.9-2.7-1.8-5.4-2.5-8.2c-0.4-1.5,0.5-2.7,1.8-3.4c3.4-1.8,6.4-4.1,8.9-7c0.3-0.3,1.1-0.5,1.6-0.4
			c2.4,0.4,4.8,0.9,7.1,1.5c0.5,0.1,1.1,0.7,1.3,1.2c1.2,2.8,2.4,5.6,3.4,8.4c1.4,3.9,2.8,7.8,4.1,11.7
			C159.9,140.4,160.5,142.4,161.1,144.6z"/>
		<path d="M181.1,135.2c-1.3-0.3-2.6-0.6-3.8-0.7c-0.8-0.1-1.2-0.4-1.3-1.1c-0.4-1.8-0.9-3.6-1-5.4c-0.1-2.2,0.1-4.5,0.2-6.7
			c0.1,0,0.2,0,0.3,0C177.3,125.9,179.2,130.6,181.1,135.2z"/>
		<path class="st3" d="M121.4,83.8c-0.5-0.3-1-0.6-1.6-0.7c-1.6-0.4-2.2-1-2.4-2.6c-0.2-2,0.2-3.8,1.6-5.3c0.5-0.5,0.4-0.8-0.1-1.3
			c-0.4-0.5-0.9-1.3-0.7-1.9c0.1-0.5,1-0.8,1.7-1c0.5-0.2,1.1,0,1.7,0c-0.6,1.2,0.1,1.5,1,1.7c1.2,0.2,2.3,0.4,3.5,0.5
			c1.3,0.2,2-0.3,2.4-1.6c-1.3,0-2.6,0-3.8,0c0-0.1,0-0.3,0-0.4c0.4,0,0.8-0.1,1.2-0.1c4.5,0.3,9,0.5,13.5,0.8
			c1.9,0.1,3.7,0.4,5.6,0.5c2.5,0.1,2.6,0.1,1.7,2.5c0.5-0.1,1-0.1,1.3-0.3c0.9-0.8,1.9-0.7,3-0.6c0.2,0,0.4,0.1,0.5,0.1
			c0.5-0.2,1.1-0.2,1.4-0.6c0.1-0.2-0.3-0.8-0.5-1.3c1.3-0.8,1.6-0.6,1.8,1c0,0.3,0.4,0.7,0.7,0.8c1,0.2,1.9-0.3,2.5-1.3
			c-0.4-0.2-0.8-0.4-1.5-0.9c1.8-0.6,3.3-1.3,4.8-1.7c0.7-0.2,1.6,0.4,2.4,0.6c1.6,0.4,1.9,0.2,2.5-1.4c0.1-0.2,0.3-0.6,0.5-0.6
			c1.8-0.4,3.7-0.8,5.5-1c0.3,0,0.8,0.6,1.3,1.1c1.1-0.8,2.4-0.9,3.9-0.4c0.6,0.2,1-0.1,1-0.9c0-0.4,0.3-0.7,0.4-1.1
			c1.4,1,2.7,1.9,3.9,2.8c1-0.7,0.3-1.2-0.1-1.7c-0.4-0.6-1.1-1.2-1.3-1.9c-0.4-1.6,0.5-2.6,2.7-3.4c0.1-0.1,0.3-0.1,0.5-0.1
			c-0.7-0.8-1.5-1.5-1.8-2.3c-0.4-0.9-0.4-2-0.6-3.3c0.8,0.4,1.5,0.9,2.3,1.2c0.4,0.2,1.1,0.3,1.2,0.1c0.3-0.3,0.4-1,0.3-1.3
			c-0.5-1-1.3-1.8-1.9-2.7c-0.5-0.7-1-1.5-1.6-2.3c0.1-0.1,0.3-0.2,0.4-0.3c1,0.9,2.1,1.8,3.1,2.7c1.7,1.5,3.5,1.9,5.7,1.3
			c3.3-0.9,6.6-1,9.7,0.4c2,0.9,3.8,0.1,5.7,0c0.2,0,0.4-0.4,0.6-0.6c0.9-1.1,2.1-1.8,3.8-1.8c-0.6,0.7-1,1.1-1.5,1.6
			c-0.6,0.7-0.7,1.2-0.1,2.1c0.6,0.9,0.7,2.2,1,3.4c0.1,0.4,0.2,0.8,0.3,1.2c0.3,0.5,0.3,1-0.2,1.4c-0.7,0.7-0.4,1.2,0.2,1.5
			c-0.3,2.1-2,3.7-1.4,6c0.1,0.4-0.3,1.4-0.6,1.5c-0.9,0.3-1.9,0.4-2.8,0.2c-0.6-0.1-0.2-2.8,0.4-3.4c0.6-0.5,1.2-1.1,1.6-1.7
			c0.2-0.2,0.1-0.7-0.1-1c-0.1-0.2-0.7-0.3-0.9-0.2c-1.8,1-3.4,0.6-5.2,0c-0.6-0.2-1.4,0.1-2,0.1c0,0.2-0.1,0.4-0.1,0.6
			c1,0.7,2,1.4,3.1,2c1,0.5,1.2,1.2,1.1,2.3c-0.1,1.1-0.7,1.6-1.7,1.9c-1.8,0.5-3.5,0.1-5.1-0.7c-1.4-0.8-1.6-1.8-1.1-3.2
			c0.1-0.3-0.2-0.9-0.4-1c-1-0.2-2.1-0.3-3.1-0.3c-1.1,0-2.3,0.1-3.4,0c-0.5,0-0.9-0.3-1.5-0.6c0.4-0.6,0.7-0.9,1-1.4
			c-0.5-0.2-1-0.4-1.9-0.8c0.8-0.4,1.3-0.7,2.1-1.1c-2.2-0.7-5.2,1-5.5,2.7c-0.1,0.7,0,1.2,0.7,1.5c1.2,0.6,2.5,1.3,2.7,2.9
			c-1.8,0.8-2,1.7-0.4,3.1c0.9,0.9,2,1.8,3.2,2.2c1.7,0.6,2.3,1.7,2.6,3.2c0.2,1.4,0.8,2.6,2.1,3.2c1.4,0.6,1.3,1.6,1.1,2.8
			c-1.6-0.1-3.6-2.4-3.9-4.4c-0.1-0.7-0.2-1.3-0.5-1.9c-0.2-0.5-0.7-1-1.2-1.2c-0.4-0.2-1,0-1.5,0c0.1,0.4,0.2,0.9,0.4,1.2
			c2.1,2.5,3.6,5.3,4.3,8.5c0,0.2,0.1,0.4,0.1,0.6c0.2,1.2,0.3,1.3,1.7,0.6c-0.5,0.7-0.7,1.2-1.1,1.6c-1,1-1.7,0.8-2.2-0.5
			c-0.6-1.9-1.2-3.8-3.3-4.6c-0.2-0.1-0.4-0.4-0.4-0.7c-0.5-2.2-2.2-3.5-3.9-4.8c-0.2-0.2-0.7-0.1-1.1-0.1c0.1,0.4,0,0.8,0.2,1.1
			c1.1,1.4,2.3,2.8,3.4,4.3c0.4,0.5,0.6,1.3,0.8,1.9c0.6,1.5,1.1,3,1.7,4.5c0.4,1.1,0.8,2.1,1.3,3.2c0.2,0.4,0.4,0.8,0.7,1.2
			c0.3-0.3,0.7-0.6,1-1c0.7-1.1,1.4-2.1,2.3-3.5c0.6,2,0.1,3.4-1.2,4.2c-0.8,0.5-0.5,1.2-0.3,1.9c0.1,0.5,0.3,1.2,0.1,1.6
			c-1.5,3.4-2.9,6.8-5.9,9.3c-0.8,0.7-1.6,1.4-2.8,1.4c-0.5,0-1.2,0.4-1.4,0.8c-1.1,1.9-3,2.1-4.7,2.6c-0.1-0.1-0.2-0.2-0.3-0.3
			c1.7-2.1,3.3-4.1,5-6.2c0.1-0.2,0.5-0.4,0.5-0.5c-0.3-3.3,0.2-6.7-0.9-10c-1.1,0.3-1.1,1.1-1.1,1.8c0,0.8,0.1,1.5-0.9,1.8
			c-0.2,0.1-0.4,0.8-0.3,1.1c0.3,1.4,0.3,1.5-1.1,1.6c-0.9,0-1.1,0.4-0.8,1.2c0.4,1,0,1.7-1.1,1.9c-1.2,0.2-2,0.7-1.9,2.1
			c0,0.8-0.5,1.1-1.3,0.6c-0.4-0.2-0.9-0.4-1.3-0.6c-0.4-0.2-0.7-0.5-1-0.8s-0.6-0.6-0.9-0.9c-0.2,0.4-0.6,0.8-0.6,1.2
			c-0.1,1.5,0.5,2.3,1.8,2.8c1.1,0.4,0.5,1,0,1.4c-2.5-2.1-2.9-2.1-3.6-0.5c-0.6,0-1.1-0.1-1.6-0.1c0.1,0.5,0.1,1.1,0.2,1.6
			c0.1,0.4,0.2,0.8,0.4,1c0.3,0.3,0.7,0.7,1,0.7c0.2,0,0.7-0.5,0.8-0.8c0.1-0.8,0.7-0.9,1.2-0.7c0.8,0.4,2.1,0.9,2.2,1.5
			c0.2,1-0.4,2.1-0.7,3.2c0,0.2-0.6,0.1-0.9,0.2c-0.4,0.2-1,0.3-1.2,0.7c-0.1,0.3,0.2,0.9,0.4,1.3c0.2,0.3,0.6,0.5,0.9,0.8
			c-0.7,2-0.7,2.1-2.4,1.5c-0.7-0.3-1.2-0.1-1.2,0.7c0,1,0.1,2,0.2,3c0.8-0.2,1.5-0.4,2.5-0.6c0.2,1.2,0.4,2.6,0.5,3.9
			c0,0.2-0.4,0.5-0.7,0.7c-0.9,0.6-0.7,1.4-0.2,2.1c0.2,0.3,0.8,0.3,1.3,0.4c0.1-0.1,0.2-0.3,0.2-0.4c0.5,1.4,1,2.7,1.4,4.1
			c0.1,0.3-0.3,0.9-0.6,1.2c-0.4,0.5-0.9,0.8-1.3,1.3c0,0.1,0.1,0.3,0.1,0.4c0.6,0,1.2,0,1.9,0c2.1,0,4.2,0,6.3,0.2
			c1.7,0.2,2.1,1.6,1,3.1c-0.1-0.1-0.3-0.2-0.4-0.3c-0.8-1.4-1.3-1.4-2.3-0.2c-0.6,0.8-1.5,0.9-1.9,0c-0.5-1.2-1.2-1-1.9-0.4
			c-2,1.9-4.4,1.3-6.7,0.9c-0.5-0.1-1.1-0.7-1.3-1.2c-1.3-4.1-2.5-8.2-3.7-12.4c-0.2-0.6-0.5-1.2,0.4-1.7c0.2-0.1,0-1.4-0.3-1.7
			c-1.6-1.1-2-2.8-2.4-4.6c0.9,0,1.4,1.8,2.1,0.7c0.6-0.8,0.7-2.1,0.6-3.2c-0.2-1.3-1.3,0.1-2.1-0.4c0.1-0.3,0.2-0.7,0.4-1
			c0.7-0.9,0.4-1.7-0.3-2.4c-0.7-0.8-1.6-1.4-2.8-0.9c-0.8,0.4-0.7,0.9-0.3,1.5c0.3,0.5,0.6,0.9,1,1.5c-1.5-0.1-2.1-1-2-2.8
			c0-0.5,0.1-1,0.2-1.5c0.3-1.3-0.1-1.6-1.4-1.2c-0.7,0.2-1.4,0.7-2.1-0.1c-0.3-0.3-0.5-0.7-0.6-1.1c-0.2-0.4-0.3-0.8-0.5-1.3
			c0.5-0.3,1-0.7,1.6-1.1c-0.2-0.4-0.4-0.8-0.7-1.4c0.4-0.2,0.9-0.4,1.2-0.7c0.5-0.5,1.3-1,1.3-1.6c0.3-3,1.3-5.8,2.7-8.4
			c0.4-0.7,0.1-1.1-0.4-1.6c-1-1.1-1.9-2.4-2.9-3.5c-0.2-0.3-0.5-0.5-0.8-0.8c-0.2,0.4-0.6,0.8-0.5,1.2c0.1,2.5,0.4,5,0.4,7.5
			c0,1.6-0.4,3.2-1.6,4.5c-2.9-0.9-3.1-0.8-2.7,2.8c-0.5-0.3-0.9-0.6-1.3-0.7c-0.4-0.2-0.9-0.2-1.4-0.3c0.1,0.4,0.1,0.9,0.2,1.3
			l0.1,0.1c0.1,2.3,2,3.6,3.1,5.6c-0.6,0.2-1,0.4-1.4,0.4c-1,0-2-0.1-3-0.3c-1.2-0.3-2.2-0.9-2-2.4c0.1-0.9-0.4-1.3-1.3-1.3
			c-0.7,0-1.4,0-2,0.1c-1.3,0.2-2.4-0.1-3.2-1.2c-0.3-0.4-1-0.5-1.6-0.8c-0.2,0.6-0.4,1.1-0.7,1.8c-1.1,0-2.4-0.2-2.9-1.8
			c-0.4-1.1-1.3-1.6-2.5-1.3c-1.6,0.4-3,0-4.4-0.7c-2.7-1.2-5.3-2.4-8-3.6c-0.6-0.3-1.4-0.7-2.1,0.1c0.6,0.6,1.1,1.1,1.5,1.4
			c-1.8,0.9-3.5,1.7-5.2,2.6c-1.7,0.8-3.7,1.1-5.3,2.5c1.7,0.9,1.9,1.7,0.8,3.2c-0.9,1.1-2,2.1-3.2,3.1c-0.1-2.1-0.7-2.7-2.8-2.4
			c-2,0.3-3.6,1.9-3.4,3.5c0.1,0.8,0.4,1.3,1.3,0.8c0.5-0.2,1.1-0.2,1.8-0.1c-1.2,1.1-2.1,2.5-4.1,2.3c-0.5-0.1-1.1,0.3-1.4,0.7
			c-0.9,1.1-3.2,1.7-4.5,1.2c-1.1-0.4-2.2-0.1-2.8,0.8c-0.7,0.9-1.6,1.1-2.7,1c-0.9-0.1-1.7-0.3-2.6-0.4c-0.3-0.1-0.7-0.2-1-0.1
			c-0.5,0.1-1,0.4-1.4,0.6c0.3,0.4,0.5,0.8,0.8,1.1c0.1,0.1,0.1,0.2,0.2,0.3c-2.5,2.7-4.7,5.5-5.6,9c-0.3,1.2-0.2,2.4-0.3,3.7
			c0,0.3-0.3,0.8-0.5,0.9c-0.6,0.3-1.3,0.5-2,0.8c-0.5,0.2-0.9,0.5-1.3,0.8c0,0.1,0.1,0.3,0.1,0.4c0.5,0.1,1,0.3,1.5,0.3
			c1,0,2-0.1,3-0.1c2.4-0.1,3.3,0.9,3.3,3.5c-0.4-0.1-0.7-0.3-1-0.4c-0.3-0.1-0.8-0.2-0.9,0c-1,1.5-1.7,0.5-2.4-0.2
			c-0.9-0.9-1.7-0.1-2.1,0.5c-0.8,1.2-2,0.8-2.9,0.7c-0.6-0.1-1.3-1.1-1.4-1.8c-0.2-2.2-0.2-4.5-0.1-6.8c0-1.1,0.2-2.2,0.5-3.3
			c0.3-1.5,0.7-2.9,1.9-4.1c1.2-1.2,1.5-2.8,0.7-4.5c-0.3-0.5,0.1-1.6,0.5-2.1c0.7-0.8,1.7-1.3,2.5-1.9c1.4,2.6,2.1,3,4,2.1
			c1.4-0.7,1.6-1.4,0.8-3.4c1.5-1,3-2,4.6-3c0.2-0.1,0.6,0,0.8,0c0.2,0.1,0.4,0.4,0.6,0.4c0.8,0.1,1.7,0.2,2.5,0.2
			c-0.1-0.7-0.1-1.5-0.2-2.2c-0.2-0.7-1.1-1.4,0-2.1c0.6-0.4,1.3-0.8,2.2-1.3c0.3-0.3,0.8-0.9,1.3-1.5c0.2-0.3,0.3-0.8,0.2-1.1
			c-0.6-1.4,0.2-2.4,0.8-3.5c0.1-0.2,0.7-0.3,1.1-0.2c0.8,0.2,1.5,0.5,2.3,0.7c1.5,0.3,2.9-0.4,2.9-1.5c0-2-1.6-3.1-3.5-2.2
			c-0.5,0.2-1,0.5-1.7,0.9c-0.2-2.2,0.5-4,2-5.2c1.4-1.1,1.2-2.7,2-4c0.1-0.2-0.1-0.7-0.3-0.8c-1.3-0.9-0.7-1.9-0.3-3
			c0.4,0.4,0.7,0.9,1.1,1.1c0.5,0.2,1.2,0,1.7-0.1c2-0.6,3-1.9,2.9-4c0-0.9-0.1-1.8-0.3-2.7c-0.1-0.5-0.8-1.1-1.1-1.1
			c-0.6,0-1.3,0.5-1.6,0.9c-0.2,0.3,0.2,1.1,0.5,1.5c1,1.3,0.8,2.6-0.4,3.1c-0.5-0.9-1.1-1.8-1.6-2.7c-0.1-0.3,0.2-0.9,0.2-1.3
			s0-0.9-0.2-1.1s-0.9-0.3-1.1-0.2c-0.8,0.6-1.5,1.3-2.1,2.1c-0.6,0.8-1.1,1.4-2.1,1.7c-0.8,0.2-1.6,1.2-2.1,1.9
			c-0.7,1-1.2,2.2-1.8,3.4c-0.6-1.5,0.1-3.7-2.7-3.6c0.6-0.7,1.1-1.2,1.6-1.7c1.8,0.5,3.3-0.4,3.3-2.2c0-1.5,0.9-1.5,1.9-1.7
			c0.8-0.1,1.5-0.3,2.3-0.6c0.8-0.3,1.1-0.9,1.1-1.8c0-0.3,0.3-0.9,0.6-1c0.2-0.1,0.8,0,1.1,0.3c1.3,1.5,3,1.5,4.7,1.1
			c1.6-0.4,1.9-0.7,1.8-2.4c-0.1-1.8,0-2,1.4-2.6c0,0.5,0.1,0.9,0,1.3c-0.2,1.3,0.1,2,1.4,1.8c1.2-0.2,2.4-0.8,3.6-1.3
			c0.1-0.1,0.3-0.5,0.2-0.6c-0.1-0.2-0.5-0.4-0.7-0.4c-0.8,0-1.5,0.2-2.4,0.3c-0.3-1,0.3-1.3,0.9-1.7c1.4-0.8,2.6-0.7,3.7,0.2
			c-0.1,0.2-0.3,0.4-0.3,0.6c-0.1,0.4-0.2,0.8-0.3,1.2c0.5,0.1,1,0.3,1.4,0.2c2.2-0.5,2.5-1.8,1.1-3.5c-0.1-0.1-0.1-0.2-0.2-0.5
			c1.3,0,2.6,0,3.9,0c-0.4,0.7-1.1,1.4-1.1,2.1c0,0.6,0.9,1.1,1.5,1.8c-0.2,0.3-0.5,0.8-1,1.3c-0.6,0.7-1.2,1.3-0.6,2.3
			c0.1,0.2-0.1,0.6-0.2,0.9c-0.7,2.3,0.5,5.1,2.6,6.2C119.6,86,121,85.4,121.4,83.8c0.7,0.2,1.6,0.7,2,0.5c0.5-0.4,0.9-1.4,0.8-2
			c-0.1-1.1-0.4-2.2-0.9-3.2c-0.3-0.7-0.1-1.1,0.3-1.6c0.6-0.6,1.1-1.2,1.5-2c0.2-0.3,0-1.3-0.1-1.3c-1.2-0.1-2.5-0.2-3.8-0.1
			c-0.1,0-0.3,0.4-0.4,0.7c0.3,0.2,0.5,0.4,0.8,0.4c0.4,0.1,0.8,0,1.4,0c-0.2,0.3-0.2,0.5-0.3,0.6c-1.9,0.7-0.9,2.6-1.6,3.8
			c0,0.1,0.1,0.4,0.2,0.4c1.2,0.5,0.6,1.4,0.4,2.2C121.7,82.7,121.6,83.2,121.4,83.8z M108.7,79.2c-0.2,0.1-0.4,0.2-0.5,0.4
			c-0.2,0.5-0.4,0.9-0.5,1.4c0,0.1,0.5,0.4,0.5,0.4c0.4-0.3,0.8-0.6,1.1-1.1C109.9,79.6,109.1,79.5,108.7,79.2
			c0.2-0.3,0.6-0.6,0.7-1c0.1-0.5,0.1-1.1,0.1-1.7c-0.5,0.1-1,0.1-1.4,0.3c-0.7,0.4-1.3,1.1-2.3,0.5c-0.3-0.2-0.9,0.1-1.3,0.3
			c-1.6,1-1.9,2.7-1.8,4.3c0.1,3.4,0.2,3,3,3.1c0.3,0,0.7,0,1,0c1.5-0.1,2.7-0.7,3.3-2.3c0.1-0.3,0.5-0.8,0.8-0.9
			c2.6-0.9,2.7-3.1,2.7-5.2c0-0.4-0.6-1-1.1-1.2c-0.7-0.2-2.4,1-2.3,1.6c0.1,0.4,0.8,0.6,1.2,0.8c0.1,0.1,0.3,0.1,0.5,0.2
			c-0.7,1-1.4,2.1-2.2,3.1c-1.2,1.5-2.5,1.9-3.7,1.4c-0.9-0.4-0.9-1.1-0.7-1.8c0.1-0.4,0.7-0.9,1.1-1.1
			C107.2,79.4,108,79.3,108.7,79.2z M117.4,94.3c0.2,1.3,0.1,2.6,1.6,3.3c0.7,0.4,1.4,0.9,2,1.5c0.7,0.8,1.4,1.2,2.4,0.6
			c0.8-0.5,1.6-1,2.4-1.3c1.4-0.6,3-1.1,4.4-1.8c0.3-0.2,0.8-0.7,0.8-1c-0.2-0.9-0.4-1.9-1-2.5c-1.6-1.4-2.3-3.2-2.9-5
			c-0.7-2-1.7-2.5-3.6-1.6c-0.5,0.2-0.9,0.5-1.4,0.8c-0.2,0.1-0.5,0.3-0.8,0.3c-1.6-0.1-2.5,0.7-2.6,2.3c0,0.4-0.2,0.9-0.3,1.3
			C118,92.3,117.7,93.3,117.4,94.3z M106.8,90.3c-0.2-1-0.1-1.9-0.5-2.3c-1.3-1.6-2.9-1.7-4.6-0.5c-0.7,0.5-1.5,1.1-2.3,1.4
			c-1.4,0.5-1.7,1.1-1.6,2.5c0.1,1,0,2,0,3c0,1.3-0.2,2.8,1,3.7c2,1.5,5.1,0.3,5.7-2.1c0.3-1.2,0.7-2.3,1.5-3.3
			C106.4,91.9,106.6,90.9,106.8,90.3z M138.3,93.1c-0.6-0.3-1.2-0.8-1.7-0.8c-1.9-0.1-2.5-1.6-3.3-2.9c-0.3-0.4-0.2-1.2-0.1-1.8
			c0.1-0.8,0.4-1.6,0.5-2.4c0-0.3-0.4-1-0.5-1c-0.7,0.2-1.6,0.4-2.1,0.9c-0.6,0.6-1.3,1.6-1.2,2.4c0,0.8,0.8,1.7,1.3,2.5
			c0.3,0.5,0.8,1,1,1.6c0.2,0.8,0.5,1.4,1.3,1.7c0.3,0.1,0.5,0.4,0.6,0.7c0.4,1.5,3,2.5,4.4,2.1c0.4-0.1,0.9-0.3,1-0.6
			c0.4-0.8,1-0.9,1.7-1c1-0.1,1.1-0.7,0.7-1.4c-0.4-0.7-0.8-1.5-1.2-2.2c-0.4-0.9-0.7-1.7,0-2.7c0.7-0.9,0.7-2.1,0.1-3.1
			c-0.1-0.3-0.6-0.6-0.9-0.6c-0.3,0-0.7,0.4-0.7,0.7c-0.2,1.6-0.3,3.2-0.3,4.8C138.9,91.1,139.3,92.3,138.3,93.1z M107.3,100.3
			c1.1,1.2,2.4,1.5,3.3,0.8c1-0.9,2.1-1.7,3-2.6c0.5-0.4,0.9-1,1.1-1.6c0.5-1.3-0.6-2.6-1.9-2.6c-0.4,0-0.8-0.4-1-0.7
			c-0.6-0.9-2.8-1.6-3.6-1.1c-1.8,1.1-3.3,4.7-2.9,6.7C105.6,100.6,105.8,100.8,107.3,100.3z M143.6,98.6c-0.6-0.5-1-1.1-1.5-1.2
			c-1.8-0.4-3.9,2.1-3.4,3.9c0.3,0.8,0.3,1.9,0.9,2.5c0.8,0.8,1.9,1.4,2.9,1.8c0.7,0.3,1.7,0.4,2.2-0.7c-0.2-0.2-0.3-0.3-0.4-0.4
			c-1.6-0.3-1.8-1.7-1.9-2.9c0-0.6,0.6-1.3,1.1-1.9c0.1-0.1,0.7,0.4,1.1,0.5c0.9,0.2,1.8,0.4,2.7,0.3c0.4,0,1-0.4,1-0.8
			c0.1-0.5,0.1-1.4-0.2-1.6c-0.9-0.7-1.8-1.8-3.2-1.3c-0.3,0.1-0.5,0.5-0.7,0.8C144,98.1,143.8,98.4,143.6,98.6z M114.5,86.7
			c-0.3,1.4-0.4,2.6-0.8,3.8c-0.4,1.5-0.1,2.5,1.3,3.3c0.4-0.8,0.8-1.5,1.1-2.3c0.2-0.7,0.2-1.4,0.4-2.1c0.3-1,0.5-2.1-0.4-2.8
			c-1.2-0.9-1.7-2-2.3-3.3c-0.4-0.8-1.2-0.9-1.9-0.2c-0.6,0.6-1,1.5-1.7,1.9c-1.9,1.1-2.1,2.8-2.3,4.5c0.8,0.6,1.4,1.1,2,1.5
			c0.4,0.2,1.1,0.4,1.4,0.2c0.3-0.2,0.4-0.9,0.4-1.4c0-0.4-0.5-0.7-0.6-1.1c-0.1-0.7-0.3-1.4-0.1-2c0-0.2,0.9-0.3,1.4-0.3
			C113.1,86.3,113.6,86.5,114.5,86.7z M183.3,72.8c0.1-0.1,0.3-0.2,0.4-0.3c-0.4-0.6-0.8-1.2-1.3-1.7c-0.7-0.7-1.5-1.3-2.2-2
			c-0.3-0.2-0.7-0.6-0.9-0.5c-0.3,0.1-0.7,0.6-0.7,0.9c-0.1,0.5,0,1.2,0.3,1.6c0.4,0.8,1,1.4,1.4,2.2c0.6,1.4,1.4,2.3,2.7,3.1
			c1,0.6,1.8,1.6,2.5,2.6c1.4,1.8,2.7,3.7,4.1,5.6c0.6-1.4,0.3-2.5-0.4-3.5s-1.9-1.6-1.8-3c0-0.2-0.3-0.4-0.5-0.5
			c-1.3-1.1-2.7-2.3-4-3.4c-0.3-0.3-0.6-0.7-1-1.3C182.6,72.6,182.9,72.7,183.3,72.8z M128.2,83.6c0.4,0,0.9,0.1,1.2,0
			s0.8-0.4,0.9-0.7c0.1-0.3-0.2-0.8-0.5-1c-1.5-1-1.9-1.5-1.5-3.2c0.2-0.9,0.8-1.7,1.5-2.4c0.2-0.2,1.1,0.2,1.6,0.3
			c0.7,0.2,1-0.1,1-0.7c0-0.9-0.3-1.8-1.2-2.1c-1.1-0.4-2.2-0.3-3,0.6c-1.9,2.1-2.5,4.6-2.1,7.3C126.3,83.8,126.1,83.6,128.2,83.6z
			 M135.8,74c0-0.1,0.1-0.3,0.1-0.4c0.5,0,1.1,0,1.6-0.1s0.9-0.4,1.3-0.7c-0.4-0.3-0.8-0.8-1.2-0.9c-1-0.2-2.1-0.2-3.2-0.3
			c-0.4,0-0.8-0.1-1.1,0.1c-0.4,0.2-0.8,0.6-1,1c-0.1,0.2,0.5,0.6,0.8,0.9c0.5,0.6,1.2,1.1,1.6,1.8c0.4,0.6,0.7,1.3,1.1,2.1
			c-0.1,0.2-0.4,0.6-0.4,0.9c0.2,0.6,0.4,1.4,0.9,1.7c0.7,0.5,1.6,0.7,2.3,0c0.6-0.6,0.2-1.2-0.1-1.9c-0.3-0.8-0.5-1.7-0.5-2.6
			c0-0.7-0.1-0.9-0.7-1C136.8,74.5,136.3,74.2,135.8,74z M94.3,112.2c0-2.2-1.6-3.3-3.2-2.4c-0.9,0.5-1.6,1.5-2,2.4
			c-0.8,1.5,0.1,2.9,1.9,3.6c1.5,0.6,2.1,0.3,2.8-1.6C94,113.5,94.2,112.7,94.3,112.2z M157.9,91.3c0.6-0.3,1.2-0.4,1.7-0.8
			c1.5-1.2,2.6-2.7,3.4-4.6c0.6-1.6,0.1-2.7-1.6-3.1c-0.9-0.2-1.6,0.3-1.5,1.2c0,0.3,0,0.6,0.1,0.9c0.8,1.4-0.2,2-1,2.8
			c-0.7,0.6-1.4,1.2-2,1.9c-0.2,0.3-0.4,0.9-0.2,1.2C156.8,91,157.4,91.1,157.9,91.3z M91.6,105.9c0.4,1.2,0.7,2,1.8,2.1
			c0.4,0,1,0.2,1,0.3c0.2,1.4,1.4,1.2,2.3,1.4c0.3,0.1,1,0,1.1-0.2c0.2-0.4,0.3-1,0.1-1.4c-0.2-0.4-0.7-0.7-1.1-0.9
			c-0.5-0.3-0.9-0.6-0.5-1.3c0.5-0.9,0.1-1.6-0.7-1.8c-0.8-0.3-1.9-0.4-2.6-0.1C92.4,104.2,92,105.3,91.6,105.9z M141.5,81.6
			c0.2-0.2,0.7-0.5,0.8-0.9c0.3-0.8,0.4-1.7,0.6-2.6c0.2-0.8,0.2-1.7,0.6-2.2c0.8-1,0.6-2.3,0-2.8c-0.9-0.6-2.2-0.6-3.4-0.8
			c-0.2,0-0.6,0.4-0.6,0.7c0,0.2,0.3,0.6,0.6,0.7c0.3,0.2,0.6,0.2,1,0.3c0.9,0.3,1.3,1,0.7,1.8c-0.7,1.1-0.8,2.4-1.9,3.4
			C139,80.1,139.8,81.5,141.5,81.6z M133,103.7c0.6-0.2,1.8-0.6,2.9-1.1c0.6-0.3,1.6-0.5,1.2-1.4c-0.3-0.8-1.1-0.8-1.9-0.6
			c-0.8,0.2-1.6,0.4-2.5,0.5c-0.8,0.1-1.7,0.1-1.2-1.2c0.3-0.8-0.4-1-1-1.1s-1.2-0.2-1.4,0.6C128.7,101.2,130.6,103.7,133,103.7z
			 M142.8,88.1c-0.1,0-0.2,0.1-0.3,0.1c0.3,0.4,0.6,1.1,1,1.2c0.5,0.1,1.2-0.2,1.7-0.5c0.3-0.3,0.4-1.1,0.2-1.4
			c-0.7-1.1-0.6-1.6,0.8-1.8c0.4-0.1,0.9-0.6,1.2-1.1c0.6-0.9,0.2-1.8-1-2c-1.1-0.2-3.5,1.5-3.6,2.7
			C142.8,86.2,142.8,87.1,142.8,88.1z M183.8,98.7c1.4-1.5,1.8-2.9,1.4-4.4c-0.6-2-1.4-3.9-2.1-5.8c-0.1-0.2-0.4-0.5-0.6-0.4
			c-0.2,0-0.6,0.3-0.6,0.5c-0.1,0.5-0.2,1.1,0,1.6c0.6,2.1,1.4,4.2,1.2,6.4C183,97.2,183.5,97.8,183.8,98.7z M161.8,111.1
			c-0.8-1.2-1.5-2.1-2-3c-0.5-0.7-1.1-1.1-1.7-0.6c-0.4,0.4-0.7,1.3-0.5,1.8c0.4,1.6,3,3.1,4.6,2.9c1-0.1,2.5-1.2,2.7-2
			c0.1-0.9-0.3-1.5-1.1-1.7c-0.2-0.1-0.7,0.6-1,0.9C162.4,109.8,162.2,110.3,161.8,111.1z M146.6,92.1c0-0.1-0.1-0.5-0.4-0.6
			c-0.7-0.3-1.4-0.6-2.1-0.6c-0.2,0-0.7,1-0.6,1.5c0.3,1.4,1.4,2.1,2.7,2.5c1.2,0.4,2.2,0.2,3.1-0.7c0.9-0.9,0.7-2-0.4-2.5
			C148.3,91.5,147.6,91.9,146.6,92.1z M156.6,81.5c-1.6,0-2.9,1.6-2.7,3.1c0.1,0.5,0.1,1.1-0.1,1.7c-0.2,1,0.7,2.5,1.7,2.7
			c0.7,0.1,1.2-0.3,1-0.9c-0.6-1.6-0.2-2.9,0.7-4.1c0.2-0.3,0.3-0.9,0.2-1.3C157.2,82.1,156.8,81.7,156.6,81.5z M185.9,90.5
			c0.5,1.8,1,3.5,1.4,5.2c0.1,0.4,0.3,0.7,0.2,1.1c-0.2,2.1,0.2,2.6,2.4,2.8c0-1.2,0-2.4,0-3.6c0-0.4-0.4-0.7-0.6-1
			c-0.3-0.5-0.7-0.9-0.9-1.4C187.8,92.4,187.9,90.8,185.9,90.5z M101.6,99.3c0,0.1,0,0.2-0.1,0.3c-1.6-0.5-2,0.7-2.5,1.7
			c-0.9,1.6-0.4,2.6,1.4,2.6c0.8,0,1.9-0.4,2.4-1s0.7-1.8,0.6-2.6C103.3,99.9,102.2,99.6,101.6,99.3z M155.6,77.2
			c0.3,0.5,0.7,1.1,1.1,1.6c0.3,0.4,0.7,0.7,1.2,0.9c0.5,0.3,1.2,0.7,1.6,0.5c0.7-0.4,0.8-1.2,0.3-2c-0.2-0.4-0.4-0.9-0.7-1.1
			c-0.6-0.5-0.8-1-0.7-1.9c0.1-0.4-0.3-0.9-0.5-1.4c-0.5,0.3-1.2,0.4-1.5,0.9C156,75.2,155.9,76.1,155.6,77.2z M175.2,85.1
			c1.6-0.5,2.1-3.1,0.7-4.5c-0.3-0.3-0.8-0.5-1.1-0.4s-0.5,0.6-0.7,0.9c-0.4,1-0.9,2-1.2,3.1c-0.1,0.6-0.1,1.3,0.1,1.8
			c0.1,0.3,1,0.7,1.2,0.6C174.7,86.4,174.8,85.7,175.2,85.1z M161.2,97.9c-0.1-0.1-0.5-0.3-0.9-0.5c-0.9-0.4-1.6,0-1.6,0.8
			c0,1.5,0.5,2.8,1.6,3.9c0.3,0.3,0.7,0.3,1.1,0.4c0.1-0.4,0.4-0.8,0.4-1.3c0-0.7-0.2-1.4-0.3-1.8c0.9-0.5,1.5-0.8,2.1-1.1
			c0,0-0.3-1-0.5-1C162.4,97.4,161.9,97.7,161.2,97.9z M195.9,62.3c0.8-0.4,1.4-0.7,2-1c-0.4-0.6-0.7-1.3-1.2-1.9
			c-0.2-0.3-0.7-0.4-1.1-0.6c-0.6-0.3-1.2-0.7-1.8,0.1c-0.2,0.2-0.7,0.1-1.1,0.2c-0.3,0.1-0.9,0.3-0.9,0.4c0,0.3,0.1,0.9,0.4,1
			C193.4,61.2,194.6,61.7,195.9,62.3z M100.9,105.1c-1.4,0-2.1,0.6-2.1,1.8c0,1.2,1.3,2.4,2.7,2.4c0.9,0,1.8-0.9,1.8-1.7
			C103.3,106.2,102.3,105.1,100.9,105.1z M146.9,81.1c0.3-0.2,1-0.5,1.3-1c0.2-0.3-0.1-1-0.2-1.6c-0.1-0.5-0.1-0.9-0.2-1.4
			c0-0.3,0-0.8-0.2-1s-0.7-0.2-1,0c-1.3,0.4-1.4,1.6-1.9,2.7C144.3,80,145.1,81.1,146.9,81.1z M170.6,94.2c0.1,0.1,0.2,0.1,0.3,0.2
			c0,0.2,0,0.4,0,0.6c0.3,0.8,0.7,1.5,1,2.3c0.6-0.4,1.2-0.8,1.8-1.2c0.2-0.1,0.3-0.3,0.4-0.5c0.7-0.6,0.4-1.3,0-1.8
			c-0.6-0.9-1.6-1.3-2.6-1C171.1,93,170.9,93.7,170.6,94.2z M167,92.6c0.8-0.6,1.9-1,1.9-1.4c0-0.7-0.6-1.5-1.1-2
			c-0.2-0.2-1.1,0.2-1.6,0.4c-0.3,0.1-0.4,0.4-0.7,0.5c-0.7,0.6-0.8,1.4-0.5,2.3s0.9,1.3,1.9,1.3C167,93.2,167,92.7,167,92.6z
			 M167,118.3c0-1.1-1.2-2.4-2.1-2.3c-0.8,0-1.8,1.3-1.7,2.5c0,1.1,0.8,1.9,1.6,1.9C166,120.3,167,119.3,167,118.3z M136.6,82.1
			c-0.6,0.2-1.2,0.2-1.7,0.5c-0.8,0.4-1.2,1.1-0.9,2c0.2,0.9,1,0.8,1.6,0.7c0.8-0.1,1.7-0.3,2.4-0.6c0.4-0.2,0.9-0.7,0.9-1
			c0-0.4-0.5-0.9-0.8-1.2C137.7,82.2,137.1,82.2,136.6,82.1z M83.8,115.2c-1.2,0-2,0.6-1.9,1.5c0,1,1.1,2,2.1,2
			c1.1,0,2.4-1.2,2.3-2.1C86.2,115.8,85.1,115.2,83.8,115.2z M162.6,107.2c1,0,1.3-0.4,1-1.3c-0.5-1.3-1.5-2.2-2.9-2.5
			c-1-0.2-1.4,0.3-1.2,1.3C159.8,106.3,161,107.2,162.6,107.2z M160.7,73.5c0,0.4-0.1,1,0.2,1.2c0.3,0.4,0.9,0.6,1.4,0.7
			c0.1,0,0.6-0.7,0.5-1c-0.3-1.1-0.6-2.3-1.2-3.4c-0.1-0.2-1.1-0.3-1.5,0c-0.6,0.4-0.9,1.1-1.3,1.7c0.5,0.2,0.9,0.4,1.4,0.6
			C160.3,73.5,160.5,73.5,160.7,73.5z M174.8,102.2c-0.6-1.2-1.1-2.3-1.8-3.2c-0.2-0.3-1-0.2-1.6-0.3c0,0.5-0.2,1-0.1,1.4
			c0.3,0.9,0.6,1.7,1.1,2.5c0.3,0.4,0.9,1,1.2,0.9C174.1,103.4,174.3,102.8,174.8,102.2z M153.9,78.3c-0.1-0.1-0.4-0.5-0.8-0.6
			c-1.2-0.2-2.9,0.8-3.4,1.9c-0.3,0.9-0.1,1.3,0.9,1.5C152.1,81.4,153.9,80.1,153.9,78.3z M176.6,73.6c0.1,0,0.1-0.1,0.2-0.1
			c-0.5-1-0.8-2.2-1.5-3.1c-0.3-0.4-1.1-0.4-1.6-0.6c0,0.6-0.2,1.3,0.1,1.7c0.6,0.8,0.9,1.6,0.7,2.6c-0.1,0.4,0.4,0.9,0.7,1.4
			c0.4-0.4,0.9-0.7,1.2-1.1C176.6,74.2,176.6,73.9,176.6,73.6z M159.1,93.9c0.1,0,0.2,0.1,0.3,0.1c0,0.2,0,0.3,0,0.5
			c0.2,0.7,0.4,1.7,1.3,1.5c0.4-0.1,0.8-1,1-1.5c0.3-0.7,0.4-1.5,0.4-2.2c0-0.4-0.2-1-0.5-1.1c-0.3-0.2-1-0.1-1.2,0.2
			C159.9,92.2,159.6,93.1,159.1,93.9z M175,97c0,1.7,1.1,3.5,2.2,3.9c0.3,0.1,0.9,0.2,1,0c0.2-0.3,0.3-0.8,0.2-1.1
			c-0.6-1.1-1.3-2.2-2.1-3.2c-0.2-0.2-0.7-0.4-1-0.3C175.2,96.4,175.1,96.9,175,97z M164.2,125c0.9,0,1.8-0.8,1.4-1.6
			c-0.3-0.6-1-1.3-1.6-1.5s-1.5,0.2-2.2,0.4c-0.1,0-0.2,0.4-0.2,0.7C161.8,123.8,163.3,125,164.2,125z M163.4,76
			c-0.7,1-1.3,1.7-1.7,2.5c-0.2,0.6-0.1,1.3-0.1,2c0,0.4,0.2,1,0.3,1c0.4,0,1-0.1,1.3-0.3C164.2,80.3,164.3,77.6,163.4,76z
			 M75.6,120.3c-0.8,0.7-1.7,1.2-2,1.8c-0.3,0.6,1,2,1.5,2c0.8,0,2.8-1.7,2.5-2.2C77.2,121.3,76.5,121,75.6,120.3z M169,104.5
			c1.3-1.1,1.3-1.9,0.4-4c-0.4-0.8-0.7-0.8-1.3-0.3C166.7,101.3,167.1,103.4,169,104.5z M136.7,99.7c0.3-1.8,0-2.5-1.2-3
			c-0.7-0.3-2.4,0.1-2.8,0.9c-0.1,0.2,0.1,0.9,0.3,1C134.1,99,135.3,99.3,136.7,99.7z M151.7,85c0-1.3-0.5-2-1.4-2s-1.5,0.8-1.5,1.9
			s0.9,2,1.8,1.9C151.5,86.7,151.7,85.9,151.7,85z M134.1,79.2c-0.4-0.5-0.6-1-1-1.1s-1,0.1-1.3,0.5c-0.5,0.6-0.8,1.3-1,2
			c-0.1,0.3,0,1,0.3,1.1c0.3,0.2,1.1,0.2,1.3,0C133.1,81,133.5,80.1,134.1,79.2z M166.7,77.8c1.4,0.1,1.5-0.5,1.3-1.2
			c-0.3-0.8,0-1.3,0.5-1.9c0.2-0.3,0.4-0.7,0.4-1.1c0-0.1-0.5-0.4-0.7-0.4c-0.4,0.1-0.8,0.4-1.1,0.7c-0.4,0.4-0.7,0.8-1,1.3
			c-0.2,0.4-0.6,1-0.4,1.4C165.9,77.2,166.5,77.6,166.7,77.8z M163.4,100.1c0,1.4,0.7,2.5,1.4,2.5c0.5,0,1.3-0.5,1.4-0.9
			c0.1-0.6-0.2-1.4-0.5-1.9c-0.2-0.4-0.9-0.8-1.2-0.7C164,99.3,163.6,99.9,163.4,100.1z M208.1,58.2c-1.1,0-2.9,1.4-2.7,2.1
			c0.1,0.4,0.8,0.9,1.2,0.9c1.1,0.1,2.4-1,2.4-1.9C209.1,58.6,208.8,58.2,208.1,58.2z M186.1,103c1.3,0,2-0.4,1.6-1.4
			c-0.4-0.9-0.9-1.7-1.4-2.5c-0.1-0.1-0.7-0.1-0.7-0.1c-0.2,0.8-0.5,1.7-0.4,2.5C185.3,102,185.9,102.6,186.1,103z M168,106.3
			c0-0.9-0.3-1.3-1.1-1.3c-1,0-2.1,0.9-1.9,1.7c0.1,0.9,0.7,1.5,1.7,1.5C167.5,108.3,168,107.5,168,106.3z M165.5,85.9
			c-1.3,0-2.5,1.1-2.5,2s0.6,1,1.3,1c1.1,0,2.2-0.9,2.1-1.7C166.2,86.6,165.7,86.2,165.5,85.9z M155.4,105.8c-1,0-2.1,0.8-1.9,1.5
			c0.2,0.7,0.9,1.4,1.5,1.6c0.7,0.3,1.4-0.7,1.4-1.9C156.5,106.4,156.3,105.7,155.4,105.8z M155.8,101.8c0.4,0.7,0.7,1.4,1.1,2
			c0.2,0.2,1,0.1,1.1,0c0.2-0.7,0.5-1.5,0.3-2.1c-0.2-0.7-1-1.2-1.5-1.8C156.5,100.5,156.2,101.1,155.8,101.8z M182.8,83.5
			c-0.1-0.9-0.1-1.7-0.4-2.5c-0.2-0.6-0.8-1.1-1.3-1.5c-0.1-0.1-0.8,0.1-0.9,0.3C179.5,81.2,181.3,83.6,182.8,83.5z M177.8,90
			c0.1,0.1,0.2,0.1,0.2,0.2c0,0.2,0,0.3,0,0.5c0.2,1,1.2,2,1.8,1.7c1.1-0.5,0.5-1.4,0.5-2.2c0-0.2-0.1-0.3-0.2-0.5
			c-0.2-0.6-0.5-1.3-1.3-1C178.4,89,178.1,89.6,177.8,90z M152.8,96.6c-0.3-0.5-0.5-1.1-0.8-1.2c-0.4-0.1-1,0.2-1.3,0.5
			c-0.9,0.8-0.8,2.3,0.2,2.9c0.2,0.2,0.9,0.1,1-0.1C152.3,98.1,152.5,97.4,152.8,96.6z M173.7,88.6c-0.1,0.1-0.2,0.2-0.4,0.3
			c0.3,0.5,0.5,1.2,0.9,1.6s1,0.5,1.5,0.7c0.2-0.4,0.4-0.9,0.5-1.3s0.1-0.8,0-1.1c-0.1-0.4-0.3-0.8-0.4-1.2
			c-0.3,0.4-0.5,0.7-0.8,1.1c-0.1,0.1-0.1,0.2-0.2,0.3C174.5,88.7,174.1,88.7,173.7,88.6z M152,89.1c-0.4-0.4-0.7-1.1-1.2-1.3
			c-0.6-0.2-1.7,1.3-1.6,2.2c0.1,0.4,0.8,1,1.2,1.1C151.6,91.1,151.7,90.2,152,89.1z M176.7,85.1c0.5,0.7,0.8,1.6,1.1,1.6
			c1,0.1,1.3-0.8,1.3-1.7c0-0.8-0.1-1.8-1.1-1.8C177.6,83.3,177.2,84.4,176.7,85.1z M169.7,97.4c0-0.2,0.1-0.4,0.1-0.6
			c-0.7-0.7-1.4-1.4-2.1-2.1c-0.1,0-0.7,0.4-0.8,0.6c-0.3,1,0.4,2,1.7,2.4C168.9,97.9,169.4,97.6,169.7,97.4z M176.2,78.4
			c0.4,0.7,0.6,1.2,1,1.7c0.1,0.1,0.8,0.1,0.8,0c0.2-0.7,0.4-1.4,0.3-2c-0.1-0.6-0.7-1-1.1-1.5C177,77.1,176.6,77.7,176.2,78.4z
			 M180.2,75.3c-0.4,1.7-0.1,2.7,1.1,3.2c0.3,0.1,1-0.1,1-0.3C182.7,77,181.4,75.4,180.2,75.3z M106.4,103c-0.2-0.1-0.6-0.5-1-0.5
			c-0.9,0-1.8,0.8-1.6,1.6c0.1,0.4,0.6,0.9,1,1C105.5,105.3,106.4,104.3,106.4,103z M182.9,86.3c0-1.3-0.7-2.3-1.4-2.1
			c-0.4,0.1-0.9,0.6-0.9,1c-0.1,1.1,0.6,2,1.5,1.8C182.4,87,182.7,86.5,182.9,86.3z M172.9,80.6c0-1.1-1-2.1-1.9-2.1
			c-0.3,0-0.8,0.2-0.9,0.4c-0.1,0.2,0.1,0.7,0.3,0.9c0.3,0.4,0.7,0.7,1.1,1c0.3,0.2,0.6,0.4,0.9,0.6
			C172.5,81.2,172.7,80.8,172.9,80.6z M168.4,81.4c-0.4-0.9-0.8-1.6-1.2-2.4c-0.3-0.7-0.8-0.7-1.1-0.2c-0.3,0.6-0.5,1.4-0.3,1.9
			C166.3,81.8,167.3,81.7,168.4,81.4z M169.9,81.7c-0.1,0.2-0.6,0.6-0.6,0.7c0.5,0.8,1.1,1.5,1.7,2.3c0.3-0.2,0.6-0.4,0.7-0.6
			C172,83.3,170.9,81.8,169.9,81.7z M172,76c-0.6-0.6-0.9-0.9-1.3-1.3c-0.4,0.5-1,1-1.1,1.6c-0.1,0.4,0.5,0.9,0.8,1.4
			C170.8,77.2,171.3,76.7,172,76z M184.3,86.6c0,1.3,0.8,2.5,1.5,2.3c0.3-0.1,0.6-0.7,0.7-1.1c0.1-0.9-0.8-1.9-1.5-1.8
			C184.6,86.1,184.4,86.5,184.3,86.6z M168.6,117.4c0.5-0.7,0.9-1.1,0.9-1.5c0-0.7-0.4-1.4-1.3-1.4c-0.7,0-1.5,0.3-1.3,1.2
			C167.2,116.2,167.9,116.6,168.6,117.4z M163.8,128.9c0.7-0.8,1.3-1.2,1.4-1.7c0.1-0.3-0.7-0.9-1-1.3c-0.4,0.5-1,1-1.3,1.6
			C162.8,127.7,163.3,128.2,163.8,128.9z M165.8,85.2c0.5-0.8,0.9-1.1,1-1.6c0.1-0.7-0.4-1.1-1.1-1.2c-0.8,0-1.4,0.4-1.3,1.1
			C164.4,84.1,165.1,84.4,165.8,85.2z M171.2,68.6c-1.4,0.1-2.6,1.5-2.3,2.6c0.1,0.2,0.3,0.5,0.5,0.6s0.6-0.1,0.6-0.2
			C170.4,70.6,170.8,69.7,171.2,68.6z M162.4,115.7c0.2,0,0.3,0,0.5,0c0.3-0.4,0.9-0.9,0.8-1.3c-0.1-0.5-0.7-0.9-1.1-1.4
			c-0.4,0.4-1,0.8-1,1.1C161.6,114.7,162.1,115.2,162.4,115.7z M173.2,90.9c-0.7-0.7-1.2-1.3-1.7-1.8c-0.3,0.3-1,0.8-0.9,0.9
			c0.4,0.6,1,1.2,1.5,1.7C172.1,91.7,172.6,91.3,173.2,90.9z M176.3,91.9c-0.4,0.6-0.7,0.8-0.8,1.1c-0.1,0.7,1.1,1.9,1.7,1.8
			c0.3,0,0.7-0.6,0.7-0.6C177.5,93.5,177,92.8,176.3,91.9z M166.1,73.5c-0.6-0.6-1-1-1.4-1.4c-0.4,0.4-1.1,0.9-1,1.1
			c0.1,0.5,0.7,1,1.1,1.4C165.2,74.3,165.6,74,166.1,73.5z M179.3,75.1c0.6-1.5,0.1-2.4-0.7-3.1c-0.2-0.2-0.7-0.3-0.9-0.1
			c-0.2,0.1-0.4,0.7-0.2,0.9C178,73.4,178.6,74.1,179.3,75.1z M168.9,84.3c-1.1,0.8-1.1,1.8-0.9,2.7c0,0.2,0.4,0.5,0.7,0.6
			c0.2,0,0.6-0.2,0.7-0.5C169.8,86.2,169.4,85.3,168.9,84.3z M178.3,70c-0.5-0.5-0.9-0.9-1.2-1.3c-0.3,0.3-1,0.8-0.9,0.9
			c0.2,0.6,0.7,1,1.1,1.5C177.5,70.9,177.8,70.6,178.3,70z M171.9,74.4c0.6-0.6,1-1,1.2-1.5c0.1-0.2-0.8-0.9-0.9-0.9
			c-0.5,0.2-0.9,0.7-1.2,1.1C171,73.3,171.4,73.8,171.9,74.4z M178.1,96.7c0.6,0.5,1,0.9,1.3,1.2c0.3-0.3,0.9-0.8,0.8-1
			c-0.2-0.5-0.7-0.9-1.1-1.3C178.9,95.9,178.6,96.2,178.1,96.7z M162.9,95c0.6,0.5,0.9,0.9,1.3,1.2c0.3-0.3,0.9-0.8,0.8-1
			c-0.1-0.5-0.6-0.8-1-1.1C163.9,94,163.4,94.5,162.9,95z M167.3,68.6c-0.5,0.9-0.9,1.4-1.2,2c-0.1,0.2,0.4,0.5,0.6,0.8
			c0.4-0.6,0.8-1.1,1.2-1.8C168,69.6,167.7,69.2,167.3,68.6z M137,89.5c-0.7-0.5-1.1-0.9-1.5-1c-0.2,0-0.9,0.7-0.8,0.8
			c0.2,0.4,0.6,0.9,1,1.1C135.8,90.5,136.3,90,137,89.5z M118.7,77.7c-0.5,0.5-0.9,0.9-1.1,1.3c-0.1,0.1,0.6,0.8,0.6,0.8
			c0.5-0.2,0.9-0.6,1.2-1C119.6,78.7,119.1,78.2,118.7,77.7z M150,76.6c0.6-0.5,1-0.8,1.4-1.2c-0.3-0.2-0.8-0.6-1-0.6
			c-0.5,0.2-0.9,0.6-1.4,0.9C149.3,76,149.6,76.3,150,76.6z M175.3,78.5c-0.1-0.2-0.2-0.4-0.3-0.6c-0.4-0.4-0.7-0.8-1.1-1.2
			c-0.2,0.3-0.7,0.7-0.6,0.9c0.1,0.5,0.5,1,0.9,1.3C174.4,79.1,174.9,78.7,175.3,78.5z M118.7,72.7c0.8,0,1.5,0.4,1.9-0.6
			c0-0.1-0.3-0.6-0.4-0.6C119.5,71.5,118.8,71.6,118.7,72.7z M158.1,83.8c-0.3,0.5-0.6,0.9-0.7,1.2c0,0.1,0.5,0.5,0.5,0.4
			c0.3-0.3,0.6-0.6,0.8-0.9C158.8,84.4,158.5,84.2,158.1,83.8z"/>
		<path class="st3" d="M130.6,139.1c2,0,4,0,6.1,0c1,0,2,0.2,3,0.3c1.3,0.2,1.8,1.1,1.9,2.7c-0.8-0.4-1.4-0.7-1.9-1
			c-0.7-0.4-1.2-1-1.7,0.2c-0.1,0.3-0.7,0.4-1.1,0.5c-2.2,0-4.4,0-6.7,0.1c-1.5,0.1-2.3-0.6-3-1.8c-2.2-3.9-4.5-7.7-6.7-11.6
			c-0.2-0.3-0.4-0.6-0.5-0.7c0.1-0.9,0.6-1.9,0.3-2.1c-0.5-0.5-1.4-0.4-2.1-0.7c-0.4-0.1-0.8-0.2-1-0.5c-0.6-0.7-1.1-1.5-1.7-2.2
			c1.3-1.5,2.5-2.9,3.8-4.4c0.5,0.6,0.9,1.6,1.9,0.7c1.3-1.1,1.7-2.4,0.7-3.2c-1.3-1.1-0.8-2-0.2-3.1c0.3-0.6,0.7-0.7,1.2-0.1
			c2,2.3,3.7,2.6,6.3,1c0.9-0.6,1.7-0.7,2.7-0.4c0.9,0.3,1.8,0.5,2.8,0.8c0.9,0.2,1.6,0.8,1.1,1.5c-0.4,0.6-1.3,0.9-2.1,1.2
			c-0.2,0.1-0.5-0.2-0.8-0.3c-1-0.3-1.4,0-1.5,1c-0.2,1.5-1.4,2.6-2.9,2.7c-0.8,0.1-1.6,0.2-2.3,0.4c-0.9,0.3-1.1,1-0.4,1.6
			s0.6,1.1,0.1,1.7c-0.6,0.8-0.5,1.5-0.2,2.3c0.4,1.1,0.9,2.3-0.2,3.5c-0.6,0.7-0.2,1.7,0.8,1.7c1.2,0,1.4,0.8,1.8,1.6
			c0.8,1.7,1.6,3.4,2.3,5.1C130.5,138,130.5,138.6,130.6,139.1z M126.1,118.2c1.1-0.4,2-0.7,2.7-1.1c0.5-0.3,0.8-0.8,1.2-1.2
			c-0.6-0.4-1.1-1-1.7-1.1c-0.8-0.1-1.7,0.3-2.5,0.6c-0.7,0.2-1.5,0.4-1.1,1.3C124.9,117.2,125.6,117.6,126.1,118.2z M121.7,120.2
			c-1.8,0-3.4,0.9-3,1.6c0.5,0.8,1.4,1.5,2.2,1.8c0.9,0.3,2.2-1.3,2.1-2.4C122.9,120.2,122.2,120.2,121.7,120.2z"/>
		<path class="st3" d="M190.3,111.1c0,0.6-0.1,1.2-0.1,1.8c-1.7-0.3-3.4,1.2-3.2,2.9c0,0.3,0.6,0.7,1,0.8c0.5,0.1,1-0.2,1.7-0.4
			c-0.2,1.6,0.2,3.3-0.8,4.8c-0.4,0.6-0.3,1.1,0.3,1.6c0.4,0.3,0.7,0.8,0.7,1.3c0,4.6,1.1,9,2.7,13.3c0.2,0.4,0,1,0,1.8
			c0.4,0,0.8,0,1.3,0c2,0.1,4.1,0.2,6.1,0.4c1.1,0.1,1.7,1,1.8,2.4c-0.9-0.5-1.6-0.9-2.3-1.3c-0.5,1.2-1.3,1.4-2.4,1.4
			c-1.7-0.1-3.4,0-5.2,0c-2.3,0-3.1-0.6-3.8-2.8c-0.6-2-1.4-3.9-1.7-5.9c-0.2-1.7,0.2-3.4-1.8-4.4c-0.3-0.1-0.6-1.2,0.1-1.9
			c1-1,0.8-2.1-0.6-2.5c-1.4-0.3-1.8-1.2-2.1-2.4c-0.2-0.9-0.6-1.7-0.8-2.6c-0.3-2,0.5-2.8,2.4-2.6c1.4,0.2,2.1-0.6,1.6-2
			c-0.3-0.8-0.2-1.2,0.6-1.6c1.4-0.7,2.8-1.6,4.2-2.4C190.1,111,190.2,111.1,190.3,111.1z M182.6,120.3c0,1.4,1.1,2.3,2.7,2.3
			c1,0,2-0.9,1.9-1.9c0-1-1.7-2.3-3-2.3C183.3,118.4,182.6,119.3,182.6,120.3z"/>
		<path class="st3" d="M70.2,100c0.9,0.8,1.7,1.6,2.6,2.5c-0.9,1.4-1.9,0.8-3,0.4c-0.5-0.2-1.1-0.2-1.7-0.3c0,0.6-0.1,1.3-0.1,1.9
			c0.1,0.6,0.4,1.1,0.6,1.6c-0.8,0.7-1.6,1.3-2.4,1.9c-0.6,0.5-1.2,0.7-2.1,0.5c-1.6-0.5-2.7,0-3.1,1.5c-0.4,1.6-1.6,2.2-2.9,2.6
			c-1.1,0.3-2.2,0.7-3.3,0.9c-0.8,0.1-1.6-0.1-2.4-0.1c-0.7,0-1.5-0.1-2,0.3c-0.8,0.5-1.3,0.2-1.9-0.2c-0.5-0.3-1.1-0.7-1.6-1.1
			c2.4,0.6,4.7,0.1,7-0.7c0.3-0.1,0.7,0,1,0.1c1.8,0.5,2.7,0.3,3.6-1.4c1.3-2.4,3.4-3.5,5.8-4.1c0.9-0.2,1.5-0.5,1.1-1.6
			c-0.1-0.2,0.3-0.6,0.5-0.9C67.4,102.5,68.8,101.3,70.2,100z"/>
		<path class="st3" d="M78.5,91.8c1.1-1,2-1.8,2.9-2.7c0.5,1.6,0.1,3.9,2.8,4.1c-0.9,0.8-1.6,1.5-2.4,2.2
			C81.1,93.9,80.9,92.1,78.5,91.8z"/>
		<path class="st3" d="M75.6,100.5c-0.3-2-0.4-2.1-3-3.4c0.9-0.7,1.7-1.3,2.5-1.9c0.9,1.2,1.8,2.2,2.7,3.4
			C77.2,99.2,76.4,99.9,75.6,100.5z"/>
		<path class="st1" d="M199.6,77.2c0.7,1.1,1.5,1.6,2.7,1.5c1-0.1,2.2,0.3,2.7-1.2c0.1,0.4,0.3,0.8,0.4,1.2c0.2,1-0.1,1.5-1.2,1.4
			c-1.1-0.1-2.2,0-3.3,0.1c-1.6,0.1-1.8-0.2-1.5-1.7C199.4,78.1,199.5,77.8,199.6,77.2z"/>
		<path class="st3" d="M101.7,74.7c-0.4,1.4-0.8,1.6-2.5,1.1C99.2,74.6,100.1,74.2,101.7,74.7z"/>
		<path class="st1" d="M184.5,173.9c0-1.9,0-3.8,0-5.7c0-0.7,0.2-1,1-1c3.1,0,6.2-0.1,9.3,0c2,0.1,4,0.3,5.8,1.5
			c2.2,1.4,2.6,3.5,2.5,5.8c-0.1,2.2-1.2,4.1-3.3,4.9c-1.5,0.6-3.1,0.9-4.7,1c-3.1,0.2-6.3,0-9.4,0.1c-1,0-1.2-0.3-1.2-1.2
			C184.5,177.5,184.5,175.7,184.5,173.9L184.5,173.9z"/>
		<path class="st1" d="M131.4,171.9c2,5,4,10.1,6.1,15.3c-4.3,0-8.4,0-12.7,0c2.1-5.2,4.1-10.2,6.2-15.3
			C131.1,171.9,131.2,171.9,131.4,171.9z"/>
		<path d="M117.4,94.3c0.3-1,0.6-2,0.9-3.1c0.1-0.4,0.3-0.9,0.3-1.3c0.1-1.6,1-2.4,2.6-2.3c0.3,0,0.5-0.2,0.8-0.3
			c0.5-0.3,0.9-0.6,1.4-0.8c1.9-0.9,2.9-0.4,3.6,1.6c0.6,1.9,1.4,3.6,2.9,5c0.6,0.5,0.8,1.6,1,2.5c0.1,0.3-0.4,0.8-0.8,1
			c-1.4,0.6-2.9,1.1-4.4,1.8c-0.8,0.4-1.6,0.9-2.4,1.3c-1,0.6-1.7,0.2-2.4-0.6c-0.6-0.6-1.3-1.2-2-1.5
			C117.5,96.9,117.6,95.7,117.4,94.3z M124.1,96.3L124.1,96.3c0.3,0,0.6,0,0.9,0c1.9,0,2.2-0.3,1.9-2.3c-0.2-0.8-0.6-1.6-0.8-2.5
			c-0.3-1.8-2-1.9-3.2-2.3c-1.1-0.4-1.3,0.9-1.7,1.5c-1.4,1.8-0.5,3.5,0.4,5.2c0.7,1.2,1.6,0.2,2.3,0.5
			C124,96.3,124,96.3,124.1,96.3z"/>
		<path d="M106.8,90.3c-0.2,0.6-0.4,1.7-0.9,2.3c-0.9,1-1.3,2.1-1.5,3.3c-0.5,2.4-3.7,3.7-5.7,2.1c-1.1-0.9-0.9-2.4-1-3.7
			c0-1,0.1-2,0-3c-0.1-1.4,0.2-1.9,1.6-2.5c0.8-0.3,1.6-0.9,2.3-1.4c1.7-1.2,3.3-1.1,4.6,0.5C106.7,88.4,106.6,89.2,106.8,90.3z
			 M100.6,95.9c0.2,0.1,0.4,0.1,0.5,0.2c0.4-0.5,0.9-1,1.3-1.5c0.7-1.1,1.3-2.3,1.8-3.5c0.2-0.4,0.2-0.9,0.1-1.3
			c-0.1-0.2-0.7-0.3-1-0.2c-0.7,0-1.3,0.1-2,0.2c-0.8,0.2-1.1,1.2-0.8,2c0.2,0.5,0.3,1.2,0.3,1.8C100.9,94.3,100.7,95.1,100.6,95.9z
			"/>
		<path d="M138.3,93.1c1-0.9,0.7-2,0.6-3.1c0-1.6,0.1-3.2,0.3-4.8c0-0.3,0.4-0.7,0.7-0.7s0.7,0.3,0.9,0.6c0.5,1,0.6,2.2-0.1,3.1
			c-0.7,1-0.4,1.8,0,2.7c0.4,0.7,0.8,1.4,1.2,2.2c0.4,0.7,0.3,1.3-0.7,1.4c-0.7,0.1-1.3,0.2-1.7,1c-0.1,0.3-0.6,0.5-1,0.6
			c-1.4,0.4-4-0.6-4.4-2.1c-0.1-0.3-0.4-0.6-0.6-0.7c-0.8-0.3-1.1-0.9-1.3-1.7c-0.2-0.6-0.6-1-1-1.6c-0.5-0.8-1.3-1.7-1.3-2.5
			s0.6-1.7,1.2-2.4c0.5-0.5,1.3-0.7,2.1-0.9c0.1,0,0.6,0.7,0.5,1c-0.1,0.8-0.4,1.6-0.5,2.4c-0.1,0.6-0.2,1.3,0.1,1.8
			c0.8,1.2,1.4,2.7,3.3,2.9C137.1,92.4,137.6,92.8,138.3,93.1z"/>
		<path d="M108.7,79.1c-0.8,0.2-1.6,0.3-2.3,0.6c-0.5,0.2-1,0.6-1.1,1.1c-0.2,0.7-0.1,1.4,0.7,1.8c1.2,0.5,2.5,0.1,3.7-1.4
			c0.8-1,1.5-2,2.2-3.1c-0.2-0.1-0.4-0.2-0.5-0.2c-0.4-0.3-1.1-0.5-1.2-0.8c-0.1-0.6,1.6-1.8,2.3-1.6c0.5,0.2,1.1,0.8,1.1,1.2
			c0,2.1-0.1,4.4-2.7,5.2c-0.3,0.1-0.7,0.5-0.8,0.9c-0.6,1.6-1.7,2.2-3.3,2.3c-0.3,0-0.7,0-1,0c-2.8-0.1-2.9,0.2-3-3.1
			c-0.1-1.6,0.2-3.3,1.8-4.3c0.4-0.2,1-0.5,1.3-0.3c1,0.6,1.5-0.1,2.3-0.5c0.4-0.2,0.9-0.2,1.4-0.3c0,0.6,0,1.1-0.1,1.7
			C109.3,78.6,109,78.8,108.7,79.1L108.7,79.1z"/>
		<path d="M107.3,100.3c-1.4,0.5-1.7,0.3-2-1.1c-0.4-2,1.1-5.6,2.9-6.7c0.8-0.5,2.9,0.2,3.6,1.1c0.2,0.3,0.7,0.7,1,0.7
			c1.3,0,2.4,1.3,1.9,2.6c-0.2,0.6-0.7,1.1-1.1,1.6c-1,0.9-2,1.7-3,2.6C109.7,101.9,108.3,101.5,107.3,100.3z M109.8,98.7
			c0.9,0,1.9-1.1,1.9-2.1c0-0.7-1.7-2.1-2.4-1.8c-0.6,0.3-1.1,1.1-1.2,1.8C107.9,97.6,108.9,98.7,109.8,98.7z"/>
		<path d="M143.6,98.6c0.2-0.2,0.4-0.5,0.6-0.8c0.2-0.3,0.4-0.7,0.7-0.8c1.4-0.5,2.3,0.6,3.2,1.3c0.3,0.2,0.3,1.1,0.2,1.6
			c-0.1,0.3-0.7,0.8-1,0.8c-0.9,0-1.8-0.2-2.7-0.3c-0.4-0.1-1.1-0.6-1.1-0.5c-0.4,0.6-1.1,1.2-1.1,1.9c0.1,1.2,0.2,2.6,1.9,2.9
			c0.1,0,0.3,0.2,0.4,0.4c-0.5,1.1-1.5,1-2.2,0.7c-1.1-0.4-2.2-1-2.9-1.8c-0.6-0.6-0.6-1.7-0.9-2.5c-0.6-1.7,1.5-4.3,3.4-3.9
			C142.6,97.5,143,98.1,143.6,98.6z"/>
		<path d="M114.5,86.7c-0.9-0.2-1.5-0.3-2.1-0.3c-0.5,0-1.3,0.1-1.4,0.3c-0.1,0.6,0,1.3,0.1,2c0.1,0.4,0.5,0.7,0.6,1.1
			c0,0.5-0.1,1.2-0.4,1.4c-0.3,0.2-1,0-1.4-0.2c-0.7-0.4-1.3-0.9-2-1.5c0.2-1.6,0.4-3.4,2.3-4.5c0.7-0.4,1.2-1.3,1.7-1.9
			c0.6-0.7,1.5-0.6,1.9,0.2c0.5,1.3,1.1,2.4,2.3,3.3c0.9,0.7,0.8,1.7,0.4,2.8c-0.2,0.7-0.2,1.4-0.4,2.1c-0.3,0.8-0.7,1.5-1.1,2.3
			c-1.4-0.8-1.7-1.8-1.3-3.3C114.1,89.3,114.3,88,114.5,86.7z"/>
		<path d="M183.3,72.8c-0.4-0.1-0.7-0.2-1.4-0.3c0.4,0.6,0.6,1,1,1.3c1.3,1.2,2.7,2.3,4,3.4c0.2,0.2,0.5,0.4,0.5,0.5
			c-0.1,1.4,1.1,2.1,1.8,3c0.7,1,1.1,2.1,0.4,3.5c-1.4-1.9-2.7-3.8-4.1-5.6c-0.7-0.9-1.5-1.9-2.5-2.6c-1.3-0.8-2.1-1.8-2.7-3.1
			c-0.3-0.8-1-1.4-1.4-2.2c-0.2-0.5-0.3-1.1-0.3-1.6c0-0.3,0.4-0.7,0.7-0.9c0.2-0.1,0.6,0.3,0.9,0.5c0.8,0.6,1.5,1.3,2.2,2
			c0.5,0.5,0.9,1.1,1.3,1.7C183.5,72.6,183.4,72.7,183.3,72.8z"/>
		<path d="M128.2,83.6c-2.1,0-1.9,0.2-2.1-1.8c-0.3-2.7,0.2-5.2,2.1-7.3c0.8-0.9,1.9-1,3-0.6c0.9,0.3,1.2,1.2,1.2,2.1
			c0,0.6-0.3,0.9-1,0.7c-0.5-0.2-1.4-0.6-1.6-0.3c-0.6,0.7-1.3,1.5-1.5,2.4c-0.4,1.7-0.1,2.1,1.5,3.2c0.3,0.2,0.5,0.7,0.5,1
			c-0.1,0.3-0.5,0.6-0.9,0.7C129,83.7,128.6,83.6,128.2,83.6z"/>
		<path d="M135.8,74c0.5,0.2,1,0.5,1.5,0.5c0.7,0.1,0.7,0.3,0.7,1c0,0.9,0.2,1.8,0.5,2.6c0.3,0.7,0.7,1.3,0.1,1.9
			c-0.7,0.7-1.6,0.5-2.3,0c-0.5-0.4-0.7-1.1-0.9-1.7c-0.1-0.3,0.3-0.7,0.4-0.9c-0.4-0.8-0.7-1.5-1.1-2.1c-0.5-0.7-1.1-1.2-1.6-1.8
			c-0.3-0.3-0.9-0.8-0.8-0.9c0.2-0.4,0.6-0.8,1-1c0.3-0.2,0.7-0.1,1.1-0.1c1.1,0.1,2.2,0.1,3.2,0.3c0.5,0.1,0.8,0.6,1.2,0.9
			c-0.4,0.2-0.8,0.5-1.3,0.7c-0.5,0.1-1.1,0.1-1.6,0.1C135.8,73.8,135.8,73.9,135.8,74z"/>
		<path d="M94.3,112.2c-0.1,0.5-0.3,1.3-0.6,2c-0.7,1.9-1.2,2.2-2.8,1.6c-1.8-0.7-2.7-2.1-1.9-3.6c0.5-0.9,1.2-1.9,2-2.4
			C92.7,108.9,94.3,110,94.3,112.2z"/>
		<path d="M121.4,83.8c0.1-0.6,0.3-1.1,0.4-1.7c0.2-0.8,0.8-1.7-0.4-2.2c-0.1-0.1-0.2-0.3-0.2-0.4c0.6-1.2-0.3-3.1,1.6-3.8
			c0.1,0,0.1-0.2,0.3-0.6c-0.5,0-1,0.1-1.4,0c-0.3-0.1-0.5-0.3-0.8-0.4c0.1-0.2,0.3-0.7,0.4-0.7c1.3,0,2.5,0,3.8,0.1
			c0.1,0,0.2,1,0.1,1.3c-0.4,0.7-0.9,1.4-1.5,2c-0.5,0.5-0.7,0.9-0.3,1.6c0.5,1,0.8,2.1,0.9,3.2c0.1,0.7-0.3,1.7-0.8,2
			C123,84.5,122.1,83.9,121.4,83.8C121.4,83.7,121.4,83.8,121.4,83.8z"/>
		<path d="M157.9,91.3c-0.4-0.2-1-0.3-1.1-0.5c-0.1-0.3,0-0.9,0.2-1.2c0.6-0.7,1.3-1.3,2-1.9c0.9-0.7,1.9-1.4,1-2.8
			c-0.1-0.2-0.1-0.6-0.1-0.9c-0.1-0.9,0.6-1.5,1.5-1.2c1.6,0.5,2.2,1.6,1.6,3.1c-0.7,1.8-1.8,3.3-3.4,4.6
			C159.1,90.9,158.5,91,157.9,91.3z"/>
		<path d="M91.6,105.9c0.4-0.6,0.8-1.6,1.5-2c0.7-0.3,1.8-0.2,2.6,0.1c0.7,0.2,1.2,1,0.7,1.8c-0.4,0.7,0,1,0.5,1.3
			c0.4,0.2,0.9,0.5,1.1,0.9s0.1,1-0.1,1.4c-0.1,0.2-0.7,0.3-1.1,0.2c-0.9-0.2-2.1,0-2.3-1.4c0-0.1-0.6-0.3-1-0.3
			C92.3,107.9,92,107.1,91.6,105.9z"/>
		<path d="M141.5,81.6c-1.7,0-2.5-1.4-1.6-2.3c1-1,1.2-2.3,1.9-3.4c0.5-0.9,0.2-1.5-0.7-1.8c-0.3-0.1-0.7-0.1-1-0.3
			c-0.3-0.2-0.6-0.5-0.6-0.7s0.4-0.7,0.6-0.7c1.2,0.2,2.5,0.2,3.4,0.8c0.6,0.5,0.8,1.8,0,2.8c-0.4,0.6-0.5,1.5-0.6,2.2
			c-0.2,0.9-0.3,1.7-0.6,2.6C142.1,81.1,141.6,81.4,141.5,81.6z"/>
		<path d="M133,103.7c-2.4,0-4.3-2.6-3.9-4.4c0.2-0.8,0.8-0.8,1.4-0.6c0.6,0.1,1.3,0.3,1,1.1c-0.5,1.4,0.4,1.3,1.2,1.2
			c0.8-0.1,1.6-0.3,2.5-0.5c0.8-0.2,1.6-0.2,1.9,0.6c0.4,1-0.6,1.2-1.2,1.4C134.8,103.1,133.6,103.5,133,103.7z"/>
		<path d="M142.8,88.1c0-0.9-0.1-1.8,0-2.7c0.1-1.2,2.4-2.9,3.6-2.7c1.1,0.2,1.6,1.1,1,2c-0.3,0.4-0.7,1-1.2,1.1
			c-1.4,0.2-1.4,0.7-0.8,1.8c0.2,0.3,0,1.2-0.2,1.4c-0.4,0.4-1.1,0.6-1.7,0.5c-0.4-0.1-0.7-0.8-1-1.2
			C142.6,88.2,142.7,88.1,142.8,88.1z"/>
		<path d="M183.8,98.7c-0.3-0.9-0.8-1.5-0.8-2.1c0.1-2.3-0.6-4.3-1.2-6.4c-0.1-0.5-0.1-1.1,0-1.6c0-0.2,0.4-0.5,0.6-0.5
			c0.2,0,0.5,0.2,0.6,0.4c0.8,1.9,1.5,3.8,2.1,5.8C185.7,95.8,185.2,97.2,183.8,98.7z"/>
		<path d="M161.8,111.1c0.4-0.8,0.6-1.3,0.9-1.7c0.3-0.4,0.7-1,1-0.9c0.8,0.2,1.2,0.8,1.1,1.7c-0.1,0.8-1.6,1.9-2.7,2
			c-1.6,0.2-4.2-1.3-4.6-2.9c-0.1-0.6,0.1-1.5,0.5-1.8c0.6-0.5,1.3-0.2,1.7,0.6C160.3,109,161,109.8,161.8,111.1z"/>
		<path d="M146.6,92.1c0.9-0.2,1.7-0.6,2.3-0.4c1.2,0.4,1.3,1.5,0.4,2.5c-0.9,0.9-1.9,1.1-3.1,0.7c-1.3-0.4-2.4-1.1-2.7-2.5
			c-0.1-0.5,0.4-1.5,0.6-1.5c0.7,0,1.5,0.3,2.1,0.6C146.5,91.6,146.6,92,146.6,92.1z"/>
		<path d="M156.6,81.5c0.2,0.2,0.6,0.6,0.7,1.1c0.1,0.4,0,1-0.2,1.3c-0.9,1.3-1.3,2.6-0.7,4.1c0.2,0.6-0.2,1-1,0.9
			c-1-0.2-1.9-1.7-1.7-2.7c0.1-0.5,0.1-1.1,0.1-1.7C153.7,83.1,154.9,81.4,156.6,81.5z"/>
		<path d="M185.9,90.5c2,0.3,2,1.9,2.5,3c0.2,0.5,0.6,0.9,0.9,1.4c0.2,0.3,0.6,0.7,0.6,1c0.1,1.2,0,2.4,0,3.6
			c-2.2-0.3-2.6-0.7-2.4-2.8c0-0.3-0.1-0.7-0.2-1.1C186.8,94,186.4,92.3,185.9,90.5z"/>
		<path d="M101.6,99.3c0.6,0.3,1.7,0.6,1.8,1c0.1,0.9-0.1,2-0.6,2.6s-1.6,1-2.4,1c-1.8,0-2.3-1-1.4-2.6c0.6-0.9,0.9-2.2,2.5-1.7
			C101.6,99.5,101.6,99.4,101.6,99.3z"/>
		<path d="M155.6,77.2c0.3-1.1,0.4-1.9,0.8-2.5c0.3-0.4,1-0.6,1.5-0.9c0.2,0.5,0.6,1,0.5,1.4c-0.2,0.8,0.1,1.3,0.7,1.9
			c0.3,0.3,0.5,0.8,0.7,1.1c0.4,0.7,0.4,1.6-0.3,2c-0.3,0.2-1.1-0.2-1.6-0.5c-0.4-0.2-0.8-0.6-1.2-0.9
			C156.3,78.2,155.9,77.6,155.6,77.2z"/>
		<path d="M175.2,85.1c-0.3,0.6-0.5,1.2-0.9,1.5c-0.2,0.1-1.1-0.2-1.2-0.6c-0.2-0.5-0.3-1.3-0.1-1.8c0.3-1.1,0.7-2.1,1.2-3.1
			c0.1-0.4,0.4-0.8,0.7-0.9s0.8,0.2,1.1,0.4C177.3,82,176.7,84.7,175.2,85.1z"/>
		<path d="M161.2,97.9c0.8-0.3,1.3-0.5,1.8-0.5c0.2,0,0.6,1,0.5,1c-0.6,0.4-1.2,0.7-2.1,1.1c0.1,0.4,0.3,1.1,0.3,1.8
			c0,0.4-0.2,0.8-0.4,1.3c-0.4-0.1-0.8-0.2-1.1-0.4c-1.1-1.1-1.6-2.4-1.6-3.9c0-0.9,0.8-1.2,1.6-0.8
			C160.7,97.6,161.1,97.9,161.2,97.9z"/>
		<path d="M195.9,62.3c-1.3-0.6-2.5-1.1-3.6-1.7c-0.3-0.1-0.4-0.7-0.4-1c0-0.2,0.6-0.3,0.9-0.4c0.3-0.1,0.9,0,1.1-0.2
			c0.6-0.7,1.2-0.4,1.8-0.1c0.4,0.2,0.9,0.3,1.1,0.6c0.5,0.6,0.8,1.3,1.2,1.9C197.3,61.6,196.7,61.9,195.9,62.3z"/>
		<path d="M100.9,105.1c1.4,0,2.4,1,2.4,2.4c0,0.8-0.9,1.7-1.8,1.7c-1.4,0-2.7-1.2-2.7-2.4C98.9,105.7,99.5,105.1,100.9,105.1z"/>
		<path d="M146.9,81.1c-1.8,0-2.6-1.1-2.1-2.4c0.4-1,0.6-2.2,1.9-2.7c0.3-0.1,0.8-0.1,1,0c0.2,0.2,0.1,0.7,0.2,1
			c0.1,0.5,0.1,0.9,0.2,1.4c0.1,0.5,0.4,1.2,0.2,1.6C147.9,80.7,147.2,81,146.9,81.1z"/>
		<path d="M170.6,94.2c0.3-0.4,0.5-1.1,1-1.3c1-0.4,2,0.1,2.6,1c0.4,0.5,0.6,1.2,0,1.8c-0.2,0.1-0.3,0.3-0.4,0.5
			c-0.6,0.4-1.2,0.8-1.8,1.2c-0.3-0.8-0.7-1.5-1-2.3c-0.1-0.2,0-0.4,0-0.6C170.8,94.3,170.7,94.2,170.6,94.2z"/>
		<path d="M167,92.6c0,0.2,0,0.6-0.1,1.1c-1-0.1-1.6-0.5-1.9-1.3c-0.3-0.8-0.2-1.6,0.5-2.3c0.2-0.2,0.4-0.5,0.7-0.5
			c0.5-0.2,1.4-0.6,1.6-0.4c0.6,0.5,1.1,1.3,1.1,2C168.9,91.6,167.9,92,167,92.6z"/>
		<path d="M167,118.3c0,1-1.1,1.9-2.2,2c-0.8,0.1-1.6-0.8-1.6-1.9s0.9-2.4,1.7-2.5C165.8,116,167,117.3,167,118.3z"/>
		<path d="M136.6,82.1c0.5,0.1,1.1,0.1,1.4,0.4c0.4,0.3,0.8,0.8,0.8,1.2c0,0.3-0.5,0.8-0.9,1c-0.8,0.3-1.6,0.4-2.4,0.6
			c-0.7,0.1-1.4,0.2-1.6-0.7c-0.2-0.9,0.2-1.6,0.9-2C135.4,82.3,136.1,82.3,136.6,82.1z"/>
		<path d="M83.8,115.2c1.4,0,2.4,0.6,2.5,1.4c0,0.9-1.2,2-2.3,2.1c-1,0-2-1-2.1-2C81.8,115.8,82.6,115.2,83.8,115.2z"/>
		<path d="M162.6,107.2c-1.6,0-2.7-1-3.1-2.5c-0.2-1,0.2-1.5,1.2-1.3c1.4,0.3,2.4,1.2,2.9,2.5C163.9,106.8,163.6,107.3,162.6,107.2z
			"/>
		<path d="M160.7,73.5c-0.2,0-0.4,0-0.5-0.1c-0.5-0.2-0.9-0.4-1.4-0.6c0.4-0.6,0.8-1.3,1.3-1.7c0.3-0.2,1.3-0.2,1.5,0
			c0.5,1.1,0.9,2.2,1.2,3.4c0.1,0.3-0.4,1-0.5,1c-0.5-0.1-1.1-0.4-1.4-0.7C160.6,74.5,160.7,74,160.7,73.5z"/>
		<path d="M174.8,102.2c-0.5,0.6-0.7,1.3-1.2,1.4c-0.3,0.1-1-0.5-1.2-0.9c-0.5-0.8-0.8-1.7-1.1-2.5c-0.1-0.4,0.1-0.9,0.1-1.4
			c0.5,0.1,1.4,0,1.6,0.3C173.7,99.9,174.2,101,174.8,102.2z"/>
		<path d="M153.9,78.3c0,1.8-1.8,3.2-3.3,2.9c-0.9-0.2-1.2-0.7-0.9-1.5c0.4-1.1,2.2-2.2,3.4-1.9C153.5,77.8,153.8,78.2,153.9,78.3z"
			/>
		<path d="M176.6,73.6c0,0.3,0,0.7-0.2,0.8c-0.3,0.4-0.8,0.7-1.2,1.1c-0.2-0.5-0.8-1-0.7-1.4c0.2-1.1,0-1.8-0.7-2.6
			c-0.3-0.4-0.1-1.1-0.1-1.7c0.6,0.2,1.3,0.2,1.6,0.6c0.6,0.9,1,2.1,1.5,3.1C176.7,73.5,176.7,73.5,176.6,73.6z"/>
		<path d="M159.1,93.9c0.4-0.9,0.8-1.8,1.3-2.6c0.2-0.2,0.9-0.3,1.2-0.2c0.3,0.2,0.5,0.7,0.5,1.1c0,0.7-0.1,1.5-0.4,2.2
			c-0.2,0.6-0.6,1.5-1,1.5c-0.9,0.2-1.1-0.7-1.3-1.5c0-0.2,0-0.3,0-0.5C159.3,94,159.2,94,159.1,93.9z"/>
		<path d="M175,97c0-0.1,0.1-0.6,0.4-0.7c0.3-0.1,0.8,0.1,1,0.3c0.8,1,1.5,2.1,2.1,3.2c0.2,0.3,0,0.8-0.2,1.1c-0.1,0.2-0.7,0.1-1,0
			C176.1,100.5,175.1,98.7,175,97z"/>
		<path d="M164.2,125c-1,0-2.4-1.2-2.6-2.1c0-0.2,0.1-0.6,0.2-0.7c0.7-0.2,1.6-0.5,2.2-0.4c0.6,0.2,1.3,0.9,1.6,1.5
			C166,124.2,165.1,125,164.2,125z"/>
		<path d="M163.4,76c0.9,1.6,0.8,4.3-0.1,5.2c-0.3,0.3-0.9,0.4-1.3,0.3c-0.1,0-0.3-0.7-0.3-1c0-0.7-0.2-1.4,0.1-2
			C162.1,77.6,162.8,76.9,163.4,76z"/>
		<path d="M75.6,120.3c0.8,0.7,1.6,1.1,2,1.7c0.3,0.5-1.6,2.1-2.5,2.2c-0.6,0-1.8-1.4-1.5-2C74,121.5,74.8,121,75.6,120.3z"/>
		<path d="M169,104.5c-1.9-1.1-2.3-3.2-0.9-4.3c0.6-0.5,1-0.4,1.3,0.3C170.4,102.6,170.3,103.4,169,104.5z"/>
		<path d="M136.7,99.7c-1.3-0.4-2.5-0.7-3.7-1.2c-0.2-0.1-0.4-0.7-0.3-1c0.4-0.7,2.1-1.2,2.8-0.9C136.6,97.2,137,98,136.7,99.7z"/>
		<path d="M151.7,85c0.1,0.9-0.2,1.6-1.1,1.8c-0.9,0.1-1.7-0.8-1.8-1.9c0-1.1,0.6-1.9,1.5-1.9C151.1,83,151.7,83.7,151.7,85z"/>
		<path d="M134.1,79.2c-0.6,0.9-1,1.8-1.7,2.5c-0.2,0.2-1,0.2-1.3,0s-0.4-0.8-0.3-1.1c0.2-0.7,0.5-1.4,1-2c0.3-0.3,0.9-0.5,1.3-0.5
			C133.5,78.1,133.7,78.7,134.1,79.2z"/>
		<path d="M166.7,77.8c-0.2-0.2-0.8-0.6-1-1.1c-0.1-0.4,0.2-1,0.4-1.4c0.3-0.5,0.6-0.9,1-1.3c0.3-0.3,0.7-0.6,1.1-0.7
			c0.2-0.1,0.7,0.3,0.7,0.4c0,0.4-0.2,0.8-0.4,1.1c-0.5,0.6-0.8,1.1-0.5,1.9C168.3,77.3,168.1,78,166.7,77.8z"/>
		<path d="M163.4,100.1c0.2-0.2,0.6-0.8,1.1-1.1c0.2-0.1,1,0.4,1.2,0.7c0.3,0.6,0.6,1.3,0.5,1.9c-0.1,0.4-0.9,0.9-1.4,0.9
			C164.1,102.7,163.4,101.5,163.4,100.1z"/>
		<path d="M208.1,58.2c0.7,0,1,0.4,1,1.2c0,0.9-1.3,2-2.4,1.9c-0.5,0-1.1-0.5-1.2-0.9C205.2,59.6,207,58.2,208.1,58.2z"/>
		<path d="M186.1,103c-0.2-0.4-0.8-0.9-0.9-1.5c-0.1-0.8,0.2-1.7,0.4-2.5c0,0,0.6,0,0.7,0.1c0.5,0.8,1,1.6,1.4,2.5
			C188.1,102.6,187.5,102.9,186.1,103z"/>
		<path d="M168,106.3c0,1.2-0.5,2-1.4,2c-1,0-1.5-0.6-1.7-1.5c-0.1-0.8,1-1.7,1.9-1.7C167.7,105,168,105.3,168,106.3z"/>
		<path d="M165.5,85.9c0.2,0.3,0.7,0.7,0.8,1.3c0.2,0.9-0.9,1.7-2.1,1.7c-0.7,0-1.3-0.1-1.3-1C163,87,164.2,85.9,165.5,85.9z"/>
		<path d="M155.4,105.8c0.9-0.1,1.1,0.5,1,1.3c0,1.2-0.7,2.2-1.4,1.9c-0.6-0.3-1.3-1-1.5-1.6C153.2,106.6,154.4,105.8,155.4,105.8z"
			/>
		<path d="M155.8,101.8c0.4-0.7,0.7-1.3,1.1-1.9c0.5,0.6,1.3,1.1,1.5,1.8c0.2,0.6-0.1,1.4-0.3,2.1c0,0.1-0.9,0.2-1.1,0
			C156.5,103.2,156.2,102.5,155.8,101.8z"/>
		<path d="M182.8,83.5c-1.5,0.1-3.3-2.3-2.7-3.6c0.1-0.2,0.7-0.4,0.9-0.3c0.5,0.4,1.1,0.9,1.3,1.5C182.6,81.8,182.6,82.6,182.8,83.5
			z"/>
		<path d="M177.8,90c0.4-0.4,0.6-1,1.1-1.2c0.8-0.3,1.1,0.4,1.3,1c0.1,0.2,0.2,0.3,0.2,0.5c0.1,0.8,0.6,1.7-0.5,2.2
			c-0.7,0.3-1.6-0.7-1.8-1.7c0-0.2,0-0.3,0-0.5C177.9,90.2,177.9,90.1,177.8,90z"/>
		<path d="M152.8,96.6c-0.3,0.8-0.6,1.5-1,2.1c-0.1,0.2-0.8,0.3-1,0.1c-1-0.6-1.1-2.1-0.2-2.9c0.3-0.3,0.9-0.6,1.3-0.5
			C152.3,95.5,152.5,96.1,152.8,96.6z"/>
		<path d="M173.7,88.6c0.4,0.1,0.8,0.2,1.2,0.2c0.1-0.1,0.1-0.2,0.2-0.3c0.3-0.4,0.5-0.7,0.8-1.1c0.1,0.4,0.3,0.8,0.4,1.2
			c0.1,0.4,0.1,0.8,0,1.1c-0.1,0.5-0.3,0.9-0.5,1.3c-0.5-0.2-1.1-0.3-1.5-0.7c-0.4-0.4-0.6-1-0.9-1.6
			C173.5,88.8,173.6,88.7,173.7,88.6z"/>
		<path d="M152,89.1c-0.3,1.1-0.4,2.1-1.5,2c-0.5,0-1.2-0.6-1.2-1.1c-0.1-0.9,1-2.4,1.6-2.2C151.3,88,151.6,88.6,152,89.1z"/>
		<path d="M176.7,85.1c0.5-0.7,0.9-1.8,1.4-1.8c1-0.1,1.1,0.9,1.1,1.8s-0.3,1.8-1.3,1.7C177.4,86.7,177.1,85.8,176.7,85.1z"/>
		<path d="M169.7,97.4c-0.4,0.1-0.8,0.5-1.1,0.4c-1.2-0.4-2-1.5-1.7-2.4c0.1-0.3,0.8-0.7,0.8-0.6c0.7,0.7,1.4,1.4,2.1,2.1
			C169.8,97,169.8,97.2,169.7,97.4z"/>
		<path d="M176.2,78.4c0.4-0.7,0.7-1.3,1.1-1.8c0.4,0.5,1,1,1.1,1.5c0.1,0.6-0.1,1.4-0.3,2c0,0.1-0.7,0.2-0.8,0
			C176.8,79.6,176.6,79,176.2,78.4z"/>
		<path d="M180.2,75.3c1.3,0.1,2.5,1.7,2.1,2.9c-0.1,0.2-0.8,0.4-1,0.3C180.1,78,179.8,77,180.2,75.3z"/>
		<path d="M106.4,103c0,1.3-0.8,2.3-1.7,2.2c-0.4-0.1-0.9-0.6-1-1c-0.2-0.8,0.7-1.7,1.6-1.6C105.7,102.6,106.1,102.9,106.4,103z"/>
		<path d="M182.9,86.3c-0.2,0.2-0.5,0.7-0.8,0.8c-0.9,0.2-1.6-0.7-1.5-1.8c0-0.4,0.5-0.9,0.9-1C182.2,84.1,182.9,85,182.9,86.3z"/>
		<path d="M172.9,80.6c-0.1,0.2-0.4,0.6-0.6,0.9c-0.3-0.2-0.6-0.4-0.9-0.6c-0.4-0.3-0.8-0.6-1.1-1c-0.2-0.3-0.4-0.7-0.3-0.9
			c0.1-0.2,0.6-0.4,0.9-0.4C171.9,78.5,172.9,79.5,172.9,80.6z"/>
		<path d="M168.4,81.4c-1.1,0.2-2.1,0.4-2.5-0.6c-0.2-0.5,0-1.4,0.3-1.9c0.3-0.6,0.8-0.6,1.1,0.2C167.6,79.8,168,80.6,168.4,81.4z"
			/>
		<path d="M169.9,81.7c1,0.1,2.1,1.6,1.9,2.4c-0.1,0.3-0.5,0.4-0.7,0.6c-0.6-0.8-1.2-1.5-1.7-2.3C169.2,82.3,169.7,81.9,169.9,81.7z
			"/>
		<path d="M172,76c-0.7,0.7-1.1,1.2-1.6,1.7c-0.3-0.5-0.9-1-0.8-1.4c0.1-0.6,0.7-1.1,1.1-1.6C171,75.1,171.4,75.5,172,76z"/>
		<path d="M184.3,86.6c0.1-0.1,0.3-0.5,0.6-0.6c0.7-0.1,1.6,0.9,1.5,1.8c0,0.4-0.3,1-0.7,1.1C185.1,89.1,184.3,87.9,184.3,86.6z"/>
		<path d="M168.6,117.4c-0.7-0.8-1.5-1.2-1.6-1.7c-0.2-0.8,0.6-1.1,1.3-1.2c0.9,0,1.3,0.6,1.3,1.4
			C169.5,116.2,169.1,116.6,168.6,117.4z"/>
		<path d="M163.8,128.9c-0.5-0.7-1-1.2-0.9-1.4c0.3-0.6,0.8-1.1,1.3-1.6c0.4,0.4,1.1,0.9,1,1.3C165.1,127.7,164.4,128.2,163.8,128.9
			z"/>
		<path d="M165.8,85.2c-0.7-0.7-1.5-1.1-1.5-1.6c-0.1-0.7,0.5-1.2,1.3-1.1c0.8,0,1.2,0.4,1.1,1.2C166.7,84,166.3,84.4,165.8,85.2z"
			/>
		<path d="M171.2,68.6c-0.4,1.1-0.7,2-1.2,3c-0.1,0.1-0.5,0.3-0.6,0.2c-0.2-0.1-0.4-0.4-0.5-0.6C168.6,70.1,169.7,68.7,171.2,68.6z"
			/>
		<path d="M162.4,115.7c-0.3-0.5-0.8-1-0.9-1.6c0-0.3,0.6-0.7,1-1.1c0.4,0.5,1,0.9,1.1,1.4c0.1,0.3-0.5,0.8-0.8,1.3
			C162.8,115.7,162.6,115.7,162.4,115.7z"/>
		<path d="M173.2,90.9c-0.6,0.4-1.1,0.8-1.1,0.8c-0.6-0.5-1.1-1.1-1.5-1.7c0,0,0.6-0.6,0.9-0.9C172,89.6,172.5,90.1,173.2,90.9z"/>
		<path d="M176.3,91.9c0.7,0.9,1.2,1.6,1.6,2.3c0,0.1-0.4,0.6-0.7,0.6c-0.7,0.1-1.8-1.1-1.7-1.8C175.5,92.7,175.9,92.5,176.3,91.9z"
			/>
		<path d="M166.1,73.5c-0.6,0.5-0.9,0.8-1.3,1.2c-0.4-0.5-1-0.9-1.1-1.4c-0.1-0.3,0.7-0.8,1-1.1C165.2,72.5,165.6,72.9,166.1,73.5z"
			/>
		<path d="M179.3,75.1c-0.7-0.9-1.3-1.6-1.8-2.4c-0.1-0.2,0-0.7,0.2-0.9c0.2-0.1,0.7,0,0.9,0.1C179.4,72.7,179.9,73.5,179.3,75.1z"
			/>
		<path d="M168.9,84.3c0.5,1,0.9,1.8,0.5,2.8c-0.1,0.2-0.5,0.5-0.7,0.5s-0.6-0.3-0.7-0.6C167.8,86.1,167.8,85.1,168.9,84.3z"/>
		<path d="M178.3,70c-0.5,0.5-0.7,0.8-1,1.1c-0.4-0.5-0.9-1-1.1-1.5c-0.1-0.2,0.6-0.6,0.9-0.9C177.4,69.1,177.8,69.5,178.3,70z"/>
		<path d="M171.9,74.4c-0.4-0.6-0.9-1.1-0.8-1.3c0.3-0.5,0.7-0.9,1.2-1.1c0.1-0.1,0.9,0.7,0.9,0.9C172.9,73.4,172.4,73.8,171.9,74.4
			z"/>
		<path d="M178.1,96.7c0.5-0.5,0.8-0.8,1.1-1.1c0.4,0.4,0.9,0.8,1.1,1.3c0.1,0.2-0.5,0.7-0.8,1C179,97.6,178.7,97.2,178.1,96.7z"/>
		<path d="M162.9,95c0.5-0.5,1-1,1.1-0.9c0.4,0.3,0.9,0.7,1,1.1c0.1,0.2-0.5,0.7-0.8,1C163.8,95.9,163.4,95.5,162.9,95z"/>
		<path d="M167.3,68.6c0.4,0.6,0.7,0.9,0.7,1c-0.3,0.6-0.8,1.2-1.2,1.8c-0.2-0.3-0.7-0.7-0.6-0.8C166.3,70,166.7,69.5,167.3,68.6z"
			/>
		<path d="M137,89.5c-0.7,0.5-1.1,1-1.4,0.9c-0.4-0.1-0.8-0.6-1-1.1c-0.1-0.2,0.6-0.9,0.8-0.8C135.9,88.6,136.3,89.1,137,89.5z"/>
		<path d="M118.7,77.7c0.4,0.5,0.8,1,0.8,1.1c-0.3,0.4-0.8,0.7-1.2,1c-0.1,0-0.7-0.6-0.6-0.8C117.8,78.5,118.2,78.2,118.7,77.7z"/>
		<path d="M108.7,79.2c0.4,0.3,1.2,0.4,0.7,1.2c-0.3,0.4-0.7,0.7-1.1,1.1c-0.1,0-0.6-0.3-0.5-0.4c0.1-0.5,0.3-1,0.5-1.4
			C108.3,79.4,108.6,79.3,108.7,79.2C108.7,79.1,108.7,79.2,108.7,79.2z"/>
		<path d="M150,76.6c-0.4-0.4-0.7-0.6-1-0.8c0.5-0.3,0.9-0.8,1.4-0.9c0.3-0.1,0.7,0.4,1,0.6C151,75.8,150.5,76.1,150,76.6z"/>
		<path d="M175.3,78.5c-0.4,0.2-0.9,0.5-1.1,0.4c-0.4-0.3-0.7-0.8-0.9-1.3c-0.1-0.2,0.4-0.6,0.6-0.9c0.4,0.4,0.7,0.8,1.1,1.2
			C175.1,78.1,175.2,78.3,175.3,78.5z"/>
		<path d="M118.7,72.7c0.1-1.1,0.8-1.2,1.5-1.2c0.2,0,0.5,0.5,0.4,0.6C120.2,73.1,119.4,72.7,118.7,72.7z"/>
		<path d="M158.1,83.8c0.3,0.4,0.7,0.7,0.6,0.8c-0.2,0.3-0.5,0.7-0.8,0.9c0,0-0.6-0.4-0.5-0.4C157.5,84.6,157.8,84.3,158.1,83.8z"/>
		<path d="M126.1,118.2c-0.5-0.5-1.2-0.9-1.5-1.6c-0.3-0.9,0.5-1.1,1.1-1.3c0.8-0.2,1.7-0.6,2.5-0.6c0.6,0,1.1,0.7,1.7,1.1
			c-0.4,0.4-0.7,1-1.2,1.2C128,117.5,127.2,117.7,126.1,118.2z"/>
		<path d="M121.7,120.2c0.6,0,1.3,0.1,1.3,1.1c0.1,1.1-1.2,2.7-2.1,2.4c-0.9-0.3-1.8-1-2.2-1.8C118.3,121.1,119.8,120.2,121.7,120.2
			z"/>
		<path d="M182.6,120.3c0-1,0.7-1.8,1.7-1.9c1.2-0.1,2.9,1.3,3,2.3c0,1-0.9,1.9-1.9,1.9C183.7,122.6,182.6,121.6,182.6,120.3z"/>
		<path class="st3" d="M124.1,96.3c-0.1,0-0.2,0-0.2,0c-0.7-0.3-1.6,0.7-2.3-0.5c-1-1.7-1.9-3.3-0.4-5.2c0.5-0.6,0.6-1.8,1.7-1.5
			c1.3,0.4,2.9,0.4,3.2,2.3c0.2,0.8,0.6,1.6,0.8,2.5c0.4,2,0.1,2.3-1.9,2.3C124.7,96.3,124.4,96.3,124.1,96.3L124.1,96.3z
			 M123.2,94.8c0.5-0.4,0.8-0.7,1-1c-0.5-0.3-0.9-0.8-1.4-1c-0.3-0.1-0.8,0.4-1.2,0.6C122.1,93.9,122.6,94.3,123.2,94.8z"/>
		<path class="st3" d="M100.6,95.9c0.1-0.8,0.2-1.5,0.2-2.3c0-0.6-0.1-1.3-0.3-1.8c-0.3-0.7,0-1.8,0.8-2c0.6-0.1,1.3-0.2,2-0.2
			c0.3,0,0.9,0.1,1,0.2c0.1,0.4,0.1,0.9-0.1,1.3c-0.6,1.2-1.2,2.3-1.8,3.5c-0.3,0.6-0.8,1-1.3,1.5C101,96,100.8,95.9,100.6,95.9z"/>
		<path class="st3" d="M109.8,98.7c-0.9,0-1.9-1.1-1.7-2.1c0.1-0.7,0.7-1.5,1.2-1.8c0.7-0.3,2.4,1.1,2.4,1.8
			C111.7,97.7,110.7,98.7,109.8,98.7z M111,96.9c-0.5-0.3-0.8-0.7-1-0.6c-0.3,0.1-0.6,0.4-0.9,0.6c0.2,0.2,0.4,0.7,0.5,0.7
			C110,97.5,110.4,97.3,111,96.9z"/>
		<path d="M123.2,94.8c-0.6-0.5-1.1-1-1.5-1.4c0.4-0.2,0.9-0.7,1.2-0.6c0.5,0.1,0.9,0.6,1.4,1C124,94.1,123.7,94.4,123.2,94.8z"/>
		<path d="M111,96.9c-0.7,0.3-1,0.6-1.4,0.7c-0.1,0-0.3-0.4-0.5-0.7c0.3-0.2,0.6-0.5,0.9-0.6C110.2,96.3,110.5,96.6,111,96.9z"/>
	</g>
</g>
</svg>
