<?xml version="1.0" encoding="utf-8"?>
<!-- Generator: Adobe Illustrator 26.0.2, SVG Export Plug-In . SVG Version: 6.00 Build 0)  -->
<svg version="1.1"
	 id="svg39431" xmlns:cc="http://creativecommons.org/ns#" xmlns:dc="http://purl.org/dc/elements/1.1/" xmlns:inkscape="http://www.inkscape.org/namespaces/inkscape" xmlns:rdf="http://www.w3.org/1999/02/22-rdf-syntax-ns#" xmlns:sodipodi="http://sodipodi.sourceforge.net/DTD/sodipodi-0.dtd" xmlns:svg="http://www.w3.org/2000/svg"
	 xmlns="http://www.w3.org/2000/svg" xmlns:xlink="http://www.w3.org/1999/xlink" x="0px" y="0px" width="375px" height="500px"
	 viewBox="0 0 375 500" style="enable-background:new 0 0 375 500;" xml:space="preserve">
<style type="text/css">
	.st0{fill-rule:evenodd;clip-rule:evenodd;fill:#BE082E;}
	.st1{fill-rule:evenodd;clip-rule:evenodd;fill:#254C91;}
	.st2{fill:#FFFFFF;}
	.st3{fill-rule:evenodd;clip-rule:evenodd;fill:#FFFFFF;}
	.st4{fill:#BE082E;}
	.st5{fill:#254C91;}
</style>
<sodipodi:namedview  bordercolor="#666666" borderopacity="1" gridtolerance="10" guidetolerance="10" id="namedview14" inkscape:current-layer="svg39431" inkscape:cx="31.274835" inkscape:cy="131.11343" inkscape:pageopacity="0" inkscape:pageshadow="2" inkscape:window-height="790" inkscape:window-maximized="1" inkscape:window-width="1440" inkscape:window-x="0" inkscape:window-y="1" inkscape:zoom="0.55252255" objecttolerance="10" pagecolor="#ffffff" showgrid="false">
	</sodipodi:namedview>
<g id="g5394" transform="matrix(0.99789762,0,0,1,0,191.32986)">
	<path id="path4856" inkscape:connector-curvature="0" class="st0" d="M331.4,143.1c-9.2-3.1-18.4-6.2-28-9
		c-11.6-3.4-23.5-6.5-35.8-9.1c-12.3-2.6-25.1-4.7-38.3-6.2c-6.6-0.7-13.4-1.3-20.2-1.7c-6.9-0.4-13.9-0.6-21-0.6
		c-7.2,0-14.2,0.2-21,0.6c-6.9,0.4-13.6,1-20.2,1.7c-13.2,1.5-26,3.6-38.3,6.2c-12.3,2.6-24.2,5.7-35.8,9.1
		c-9.7,2.8-19,5.9-28.2,9.1c11.3,24.2,25.1,47.7,42.6,69.5c24.5,30.5,58.5,66.9,101.1,94.2c42.6-27.3,76.4-63.6,100.9-94.2
		C306.3,190.9,320,167.4,331.4,143.1L331.4,143.1z"/>
	<path id="path4850" inkscape:connector-curvature="0" class="st1" d="M187.9-188.9c-27.2,14-54.5,26.6-83,35.1
		c-30.6,9.2-67,18.3-96.8,21.4C2.7-102.6,1.5-65.8,2.4-30.6c1.3,47.5,11,97.1,29.3,144.7c3.8,9.8,8,19.5,12.5,29.1
		c9.2-3.1,18.6-6.3,28.2-9.1c11.6-3.4,23.5-6.5,35.8-9.1c12.3-2.6,25.1-4.7,38.3-6.2c6.6-0.7,13.4-1.3,20.2-1.7
		c6.9-0.4,13.9-0.6,21-0.6c7.2,0,14.2,0.2,21,0.6c6.9,0.4,13.6,1,20.2,1.7c13.2,1.5,26,3.6,38.3,6.2c12.3,2.6,24.2,5.7,35.8,9.1
		c9.6,2.8,18.8,5.9,28,9c4.5-9.6,8.7-19.3,12.4-29.1c18.3-47.6,28-97.2,29.3-144.7c1-35.2-0.3-71.9-5.7-101.8
		c-29.8-3-65.9-12.2-96.6-21.4C242.4-162.3,215.1-174.9,187.9-188.9L187.9-188.9z"/>
	<g id="g5385" transform="matrix(2.2217208,0,0,2.2217208,-1138.6978,-240.01245)">
		<g id="g4845">
			<path id="path3422" inkscape:connector-curvature="0" sodipodi:nodetypes="ccccccscccc" class="st2" d="M643.4,41.7
				c-9.1,9.2-38.3,35.9-53.1,73.8c-3.7,1.4-9.1,4.2-13.1,6.2c0,0,5.3-0.9,11.4-2.1c-5.3,12.5-8.6,23.6-12,39.6
				c0,0,7.9-17.1,20.6-41.8c5.9-1.2,15.3-3.2,25-4.8c10-1.7,20.3-2.7,27.4-2.9c-14.3-4.3-36.4-0.8-49.5,2.9
				c12.3-23.8,28.6-47.3,45.9-69.3L643.4,41.7z"/>
			<path id="path3420" inkscape:connector-curvature="0" sodipodi:nodetypes="ccc" class="st2" d="M659.1,54.7c0,0-15.9,47,2.5,99.9
				C661.6,154.6,656.5,75.4,659.1,54.7L659.1,54.7z"/>
			<path id="path3424" inkscape:connector-curvature="0" sodipodi:nodetypes="cscsccccsc" class="st3" d="M606.1,28.4
				c-12.8,3.8-39.5,19.5-48,35.2c-5.2,9.5-5.7,18.7,2.1,23.9c13.6,8.6,0.8,29.5-7.4,42.8c-6.3,10.1-15.2,19.7-25.3,29.2l1.1,1.8
				c1-1.9,25.3-12.9,38.2-44.9c6.7-14.9,9.1-24-2.9-31.6c-12.7-10.7,6.7-28.3,18.2-38.6C589.2,39.9,597.7,34.2,606.1,28.4
				L606.1,28.4z"/>
		</g>
		<g id="g5381">
			
				<ellipse id="ellipse4228" transform="matrix(0.9508 -0.3098 0.3098 0.9508 5.1768 193.7998)" class="st2" cx="612.8" cy="80.6" rx="22.4" ry="10.6"/>
			
				<ellipse id="path4226" transform="matrix(0.9508 -0.3097 0.3097 0.9508 5.1665 193.7444)" class="st4" cx="612.8" cy="80.6" rx="20.1" ry="8.5"/>
		</g>
	</g>
	<path id="path4250" inkscape:connector-curvature="0" sodipodi:nodetypes="ccccccc" class="st3" d="M337.1,131.6
		c-43.9-15.3-92-28.4-149.2-28.4S82.6,116.4,38.7,131.6l18.1,33.4c39-13.6,81.7-24.3,131.2-24.3s92.1,10.7,131.2,24.3L337.1,131.6z"
		/>
	<path id="path4232" inkscape:connector-curvature="0" class="st3" d="M187.9-191.3c-27.2,14-54.5,26.6-83,35.1
		c-30.6,9.2-68.2,19.6-98,22.7C1.5-103.7-0.7-65.8,0.2-30.6c1.3,47.5,11,97.1,29.3,144.7c13.3,34.6,29.3,66.9,54,98.6
		c24,30.9,61,69.7,104.4,96c43.3-26.2,80.4-65.1,104.4-96c24.7-31.8,40.7-64.1,54-98.6c18.3-47.6,28-97.2,29.3-144.7
		c1-35.2-1.3-73.1-6.7-102.9c-29.8-3-67.3-13.5-98-22.7C242.4-164.7,215.1-177.4,187.9-191.3L187.9-191.3z M187.9-185.6
		c27.2,14,54.5,26.6,83,35.1c30.6,9.2,63.6,18.3,93.4,21.4c5.4,29.8,6.6,63.2,5.7,98.4c-1.3,47.5-11,97.1-29.3,144.7
		c-13.3,34.6-30.6,68.2-55,98.6c-24.5,30.5-55.2,62.5-97.8,89.7c-42.6-27.3-73.3-59.2-97.8-89.7c-24.4-30.5-41.7-64.1-55-98.6
		C16.8,66.5,7.1,16.9,5.8-30.6C4.8-65.8,6-99.2,11.4-129c29.8-3,62.8-12.2,93.5-21.4C133.4-158.9,160.7-171.6,187.9-185.6z"/>
	<g id="g5336" transform="matrix(2.2217208,0,0,2.2217208,-1138.6978,-240.01245)">
		<g id="g4827">
			<g id="g4463" transform="matrix(0.05815103,0,0,0.05815103,549.48214,187.71201)">
				<path id="path4456" inkscape:connector-curvature="0" class="st2" d="M301.1,343.5c-10.6-0.6-20.5-3.2-29.7-7.8
					c-11.5-5.8-21.6-14.6-28.8-25.4c-1.9-2.8-3.3-5.3-4.9-8.4c-4.5-9.1-7.1-18.7-7.7-29.1c-0.2-3.1-0.1-7.9,0.2-11.2
					c2.1-22.5,14.4-43,33.3-55.5c10.9-7.2,22.9-11.3,36.2-12.3c2.2-0.2,8.8-0.1,11,0c6.3,0.5,11.9,1.6,17.4,3.4
					c9.8,3.2,18.4,8.1,26.4,15.1c1.6,1.4,5.3,5.1,6.8,6.8c14.2,16.2,20.6,37.1,18.1,58.5c-1.7,14.4-7.6,27.9-16.9,39.1
					c-8.9,10.6-20.6,18.6-33.6,23c-6.1,2-11.8,3.2-18.8,3.8C308.8,343.6,302.7,343.6,301.1,343.5L301.1,343.5z"/>
				<g id="g4458">
					<path id="path4454" inkscape:connector-curvature="0" class="st4" d="M268,287.1c3.7-6.4,6.9-11.8,7-12c0.4-0.8,2.9-5,3-5
						c0,0,0.2,0.1,0.3,0.2c0.6,0.5,2.2,1.6,3.2,2.2c4,2.4,8,3.7,12.8,4.3c1.2,0.1,5.6,0.1,6.7,0c6.7-0.8,12.4-3.3,17.3-7.6
						c0.9-0.8,3.2-3.1,3.2-3.2c0,0-1.4-1.3-3-2.8l-3-2.7l-1.3,1.3c-0.7,0.7-1.6,1.6-2,1.9c-3.3,2.6-6.9,4.2-11.2,4.9
						c-1.3,0.2-5.3,0.2-6.7,0c-5-0.8-9.2-2.9-12.7-6.2l-0.8-0.8l-3.7,0l-3.7,0l-9.7,16.5c-5.3,9.1-9.7,16.6-9.7,16.6
						c0,0.1,7,4.3,7.1,4.2C261.2,298.8,264.3,293.5,268,287.1L268,287.1z"/>
					<path id="path4452" inkscape:connector-curvature="0" class="st4" d="M351.8,290.6h-75.7v8.3h75.7L351.8,290.6z"/>
					<path id="path4612" inkscape:connector-curvature="0" class="st4" d="M344,279.9c2.2-1.3,3.3-2,3.3-2.1
						c0-0.1-6.9-11.9-15.3-26.4l-15.3-26.3h-3.6h-3.6l-8.4,14.4c-4.6,7.9-8.4,14.4-8.5,14.5c-0.1,0.2,0.1,0.3,3.4,2.2
						c1.9,1.1,3.5,2,3.6,2.1c0.1,0,2.9-4.8,6.7-11.4c3.7-6.3,6.7-11.4,6.7-11.4c0,0,6.1,10.5,13.6,23.2l13.6,23.2l0.2-0.1
						C340.6,281.9,342.1,280.9,344,279.9L344,279.9z"/>
				</g>
			</g>
			<g id="g4594">
				
					<path id="path4546" inkscape:connector-curvature="0" sodipodi:nodetypes="cccccccccccsccccscscccccccccccccsccccccccccccccccccscc" class="st2" d="
					M608.5,200.1c-0.2,0-0.4,0-0.5,0c-0.5,0.1-1,0.3-1.4,0.7c-0.3,0.3-0.6,0.8-0.7,1.3c-0.1,0.3-0.1,0.8,0,1.1c0,0.4,0.2,0.7,0.3,1
					c0.4,0.7,1.1,1.1,2,1.1c0.5,0,0.9-0.1,1.3-0.4c0.1-0.1,0.2-0.2,0.4-0.3c0,0,0,0,0,0c0,0.2,0,0.4,0,0.5c0,0.4-0.2,0.7-0.4,0.9
					c-0.2,0.2-0.6,0.3-1.1,0.3c-0.4,0-0.7-0.1-0.9-0.2c-0.2-0.1-0.3-0.3-0.4-0.5l-0.1-0.2h-0.5c-0.2,0-0.3,0-0.3,0c0,0-0.1,0-0.1,0
					c0,0,0,0-0.1,0c0,0,0,0,0,0c0,0,0,0,0,0c0,0,0,0,0,0c0,0,0,0.1,0,0.1c0,0.1,0,0.1,0,0.1c0,0,0,0.1,0,0.1c0,0.1,0.1,0.2,0.1,0.3
					c0.3,0.6,0.9,1,1.7,1.1c0.3,0,1,0,1.3,0c1-0.2,1.7-0.8,1.8-1.8v0c0-0.1,0-0.2,0-0.5c0-0.4,0-1,0-2.2v-2.7c-0.4,0-0.7,0-1.1,0
					l0,0.5v0.1c-0.3-0.3-0.6-0.5-1-0.6C608.8,200.2,608.7,200.1,608.5,200.1C608.5,200.1,608.5,200.1,608.5,200.1L608.5,200.1z
					 M608.4,201.1c0.5,0,0.8,0.1,1.1,0.3c0.3,0.3,0.5,0.7,0.5,1.3c0,0.3,0,0.5-0.1,0.7c-0.2,0.5-0.5,0.8-1,1c-0.2,0-0.6,0-0.7,0
					c-0.3-0.1-0.5-0.2-0.7-0.4c-0.2-0.2-0.3-0.4-0.4-0.6c-0.1-0.2-0.1-0.3-0.1-0.7c0-0.3,0-0.3,0-0.5c0.1-0.4,0.2-0.6,0.4-0.8
					C607.7,201.2,608,201.1,608.4,201.1L608.4,201.1z"/>
				
					<path id="path4558" inkscape:connector-curvature="0" sodipodi:nodetypes="ccsccscccccccccccccccccccccccccccccc" class="st2" d="
					M593.9,200.1c-0.2,0-0.4,0-0.5,0c-0.3,0.1-0.6,0.2-0.9,0.4c-0.6,0.4-1,1-1.1,1.7c-0.1,0.3-0.1,0.9,0,1.3c0.1,0.6,0.3,1,0.7,1.4
					c0.4,0.4,0.9,0.6,1.5,0.7c0.2,0,0.7,0,0.9,0c1.1-0.3,1.8-1,1.8-1.8h-1.1l-0.1,0.2c-0.1,0.2-0.1,0.2-0.2,0.3
					c-0.1,0.1-0.3,0.2-0.5,0.2c-0.1,0-0.2,0-0.4,0c-0.4,0-0.5,0-0.8-0.2c-0.1-0.1-0.4-0.3-0.5-0.4c-0.1-0.2-0.2-0.5-0.2-0.9l3.8,0
					v-0.4c0-0.4-0.1-0.8-0.2-1.2c-0.3-0.8-0.9-1.3-1.7-1.5c-0.1,0-0.2,0-0.4,0v0H593.9z M593.8,201.1c0.2,0,0.4,0,0.5,0
					c0.4,0.1,0.7,0.4,0.8,0.8c0,0,0,0.1,0,0.2c0,0,0,0,0,0l-2.6,0c0-0.1,0.1-0.3,0.1-0.4c0.1-0.2,0.2-0.3,0.3-0.4
					c0.2-0.2,0.4-0.3,0.7-0.3C593.7,201.1,593.8,201.1,593.8,201.1L593.8,201.1z"/>
				<path id="path4570" inkscape:connector-curvature="0" sodipodi:nodetypes="cccccccc" class="st2" d="M583.4,200.2l1.9,5.4h1.3
					l1.9-5.4l-1.2,0l-1.4,3.9l-1.4-3.9L583.4,200.2z"/>
				<path id="path4574" inkscape:connector-curvature="0" class="st2" d="M602.6,200.2c-0.2,0-0.4,0-0.6,0.1
					c-0.4,0.1-0.6,0.4-0.9,0.7l0-0.1l0-0.6h-0.5h-0.5v2.8l0.1,0l-0.1,0v2.6h0.5h0.6v-1.6c0-0.4,0-0.8,0-1.1c0-0.3,0-0.5,0-0.5
					c0-0.4,0.1-0.7,0.3-0.8c0.1-0.1,0.2-0.1,0.2-0.2c0.2-0.1,0.5-0.2,0.8-0.2l0.3,0v-0.5v-0.5L602.6,200.2L602.6,200.2z"/>
				<path id="path4578" inkscape:connector-curvature="0" class="st2" d="M617.8,200.2c-0.1,0-0.3,0-0.4,0c-0.5,0.1-0.9,0.3-1.2,0.7
					v-0.1l0-0.5h-0.5h-0.5v2.7v0.2v2.5h0.5h0.6V204c0-0.5,0-0.9,0-1.2c0-0.3,0-0.5,0-0.5c0-0.3,0.1-0.5,0.3-0.7
					c0.3-0.3,0.7-0.4,1.1-0.4c0.4,0,0.6,0.2,0.7,0.4v0c0.1,0.2,0.1,0.1,0.1,0.4c0,0.2,0,0.7,0,1.7l0,1.9h0.6h0.6l0-1.9
					c0-0.9,0-1.4,0-1.7c0-0.3,0-0.4-0.1-0.6c-0.1-0.4-0.3-0.8-0.7-1S618.3,200.2,617.8,200.2L617.8,200.2z"/>
				<path id="path4587" inkscape:connector-curvature="0" class="st2" d="M577.3,205.6c0.1,0,0.3,0,0.4,0c0.5-0.1,0.9-0.3,1.2-0.7
					v0.1l0,0.5h0.5h0.5v-2.7v-0.2v-2.5h-0.5h-0.6v1.7c0,0.5,0,0.9,0,1.2c0,0.3,0,0.5,0,0.5c0,0.3-0.1,0.5-0.3,0.7
					c-0.3,0.3-0.7,0.4-1.1,0.4c-0.4,0-0.6-0.2-0.7-0.4v0c-0.1-0.2-0.1-0.1-0.1-0.4c0-0.2,0-0.7,0-1.7l0-1.9h-0.6h-0.6l0,1.9
					c0,0.9,0,1.4,0,1.7c0,0.3,0,0.4,0.1,0.6c0.1,0.4,0.3,0.8,0.7,1S576.9,205.6,577.3,205.6L577.3,205.6z"/>
				
					<path id="path4592" inkscape:connector-curvature="0" sodipodi:nodetypes="ccsccscccccccccccccccccccccccccccccc" class="st2" d="
					M625.9,200.1c-0.2,0-0.4,0-0.5,0c-0.3,0.1-0.6,0.2-0.9,0.4c-0.6,0.4-1,1-1.1,1.7c-0.1,0.3-0.1,0.9,0,1.3c0.1,0.6,0.3,1,0.7,1.4
					c0.4,0.4,0.9,0.6,1.5,0.7c0.2,0,0.7,0,0.9,0c1.1-0.3,1.8-1,1.8-1.8h-1.1l-0.1,0.2c-0.1,0.2-0.1,0.2-0.2,0.3
					c-0.1,0.1-0.3,0.2-0.5,0.2c-0.1,0-0.2,0-0.4,0c-0.4,0-0.5,0-0.8-0.2c-0.1-0.1-0.4-0.3-0.5-0.4c-0.1-0.2-0.2-0.5-0.2-0.9l3.8,0
					v-0.4c0-0.4-0.1-0.8-0.2-1.2c-0.3-0.8-0.9-1.3-1.7-1.5c-0.1,0-0.2,0-0.4,0v0H625.9z M625.8,201.1c0.2,0,0.4,0,0.5,0
					c0.4,0.1,0.7,0.4,0.8,0.8c0,0,0,0.1,0,0.2c0,0,0,0,0,0l-2.6,0c0-0.1,0.1-0.3,0.1-0.4c0.1-0.2,0.2-0.3,0.3-0.4
					c0.2-0.2,0.4-0.3,0.7-0.3C625.7,201.1,625.8,201.1,625.8,201.1L625.8,201.1z"/>
			</g>
		</g>
		<g id="g4819" transform="matrix(0.1224158,0,0,0.1224158,534.86345,211.36929)">
			<path id="path842" inkscape:connector-curvature="0" class="st2" d="M288.7-173.4c-0.3-3.6-1.5-6.6-3.8-8.5
				c-2.1-1.9-5-2.9-8.7-2.9c-13.2,0-15.1,11.4-15.1,22.3c0,10.9,1.9,22.1,15.1,22.1c7.4,0,12.6-6.1,13.3-13.2h32.7
				c-3.3,24.4-22.5,38.1-46.7,38.1c-27,0-48.6-18.7-48.6-47.1c0-28.4,21.6-47.3,48.6-47.3c23.5,0,43.6,11.6,45.7,36.3
				C321.2-173.4,288.7-173.4,288.7-173.4z"/>
			<path id="path844" inkscape:connector-curvature="0" class="st2" d="M391.1-158c-4.1,2.1-8.8,3.3-13.5,4.3
				c-7.6,1.7-11.6,3.6-11.6,9.7c0,4.1,4.5,8.3,10.7,8.3c7.8,0,13.8-4.7,14.4-14C391.1-149.7,391.1-158,391.1-158z M424-137.8
				c0,6.8,0.3,14.4,4.1,20.1h-34.9c-0.9-2.4-1.4-6.1-1.2-8.5h-0.4c-7.3,8.3-17.8,10.7-28.9,10.7c-17.3,0-31.7-8.3-31.7-27.2
				c0-28.4,33.2-27.3,50.7-30.6c4.7-0.9,9.3-2.3,9.3-8c0-6.1-5.7-8.3-11.2-8.3c-10.5,0-12.6,5.4-12.8,9.2h-31.8
				c1-25.3,24.9-29.4,46.2-29.4c42.9,0,42.6,17.8,42.6,35.1C424-174.6,424-137.8,424-137.8z"/>
			<path id="path846" inkscape:connector-curvature="0" class="st2" d="M442.2-207.5h33.1v11.4h0.3c6.4-9,15.6-13.7,29.2-13.7
				c16.1,0,30.8,9.9,30.8,30.5v61.6h-34.3v-47.1c0-10.4-1.2-17.7-11.2-17.7c-5.9,0-13.7,2.9-13.7,17.3v47.4h-34.3
				C442.2-117.7,442.2-207.5,442.2-207.5z"/>
			<path id="path848" inkscape:connector-curvature="0" class="st2" d="M595.5-207.5h18.3v21.1h-18.3v31.3c0,8.3,1.9,11.9,10.5,11.9
				c2.6,0,5.2-0.2,7.8-0.5v26c-6.9,0-14.7,1-22,1c-14.5,0-30.6-2.2-30.6-26.8v-42.9H546v-21.1h15.2v-27.3h34.3L595.5-207.5
				L595.5-207.5z"/>
			<path id="path850" inkscape:connector-curvature="0" class="st2" d="M679.5-158c-4.2,2.1-8.8,3.3-13.5,4.3
				c-7.6,1.7-11.6,3.6-11.6,9.7c0,4.1,4.5,8.3,10.7,8.3c7.8,0,13.8-4.7,14.4-14C679.5-149.7,679.5-158,679.5-158z M712.3-137.8
				c0,6.8,0.4,14.4,4.1,20.1h-34.9c-0.9-2.4-1.4-6.1-1.2-8.5H680c-7.3,8.3-17.8,10.7-28.9,10.7c-17.3,0-31.7-8.3-31.7-27.2
				c0-28.4,33.2-27.3,50.7-30.6c4.7-0.9,9.3-2.3,9.3-8c0-6.1-5.7-8.3-11.3-8.3c-10.5,0-12.6,5.4-12.8,9.2h-31.8
				c1-25.3,24.9-29.4,46.2-29.4c42.9,0,42.6,17.8,42.6,35.1L712.3-137.8L712.3-137.8z"/>
			<path id="path852" inkscape:connector-curvature="0" class="st2" d="M731.2-117.7h34.3v-123.6h-34.3
				C731.2-241.2,731.2-117.7,731.2-117.7z"/>
		</g>
		<g id="g5314" transform="translate(680.33833,-18.440348)">
			<path id="path5145" inkscape:connector-curvature="0" sodipodi:nodetypes="ccsccccccsssccc" class="st5" d="M-135.3,190.7
				c0.6,0.7,1.3,0.8,1.6,0.5c0.4-0.5-0.4-0.9-1.4-0.9c-1.4,0-2-0.2-2.7-0.9c-1-1-0.9-2-0.2-3c0.9-1,3.4-1.8,4.6-1.4
				c0.7,0.2,1.4,1.1,1.6,1.7l-2.3,0.8c-0.5-0.6-1.1-0.9-1.5-0.5c-0.4,0.5,0.2,0.8,1.7,1c2,0.2,2.6,0.5,3,1.5
				c0.6,1.7-0.2,3.1-2.4,3.8c-1.7,0.5-2.7,0.4-3.3-0.1c-0.6-0.6-0.9-1.2-1-1.4L-135.3,190.7z"/>
			<path id="path5133" inkscape:connector-curvature="0" class="st5" d="M-43.4,182.2c-1.7,0.1-2.4,1-2.7,3.6
				c-0.4,2.8,0.2,3.8,2.6,4.5c1.1,0.3,2.4,0.2,3-0.2c0.7-0.5,1.2-1.5,1.5-2.9c0.4-1.6,0.3-2.4-0.1-3.3c-0.5-1.1-1.6-1.6-3.5-1.7
				C-42.9,182.2-43.2,182.2-43.4,182.2L-43.4,182.2z M-42.2,183.9c0.3,0,0.4,0.1,0.5,0.4c0.1,0.5-0.4,3.1-0.7,3.8
				c-0.3,0.5-0.6,0.7-0.9,0.3c-0.2-0.3,0-1.9,0.4-3.4C-42.6,184.1-42.5,183.9-42.2,183.9z"/>
			<path id="path5129" inkscape:connector-curvature="0" class="st5" d="M-50.7,188.9c-1.2-0.2-2.3-0.9-2.6-1.7
				c-0.5-1.3-0.1-4.3,0.7-5.6c0.5-0.8,1.2-1.1,2.4-1.1c1.5,0,2.7,0.5,3.4,1.3c0.6,0.6,0.6,0.8,0.6,1.6c0,1.1-0.1,1.2-1.6,0.8
				l-1.1-0.2l-0.1-0.7c-0.1-0.8-0.2-1-0.7-0.9c-0.4,0.1-0.6,0.7-0.9,2.7c-0.1,0.9-0.1,1.4,0,1.7c0.3,0.6,0.7,0.5,1.1-0.4
				c0.3-0.7,0.4-0.8,1-0.8c1.1,0,1.8,0.3,1.8,0.8c0,0.6-0.4,1.5-0.9,1.9C-48.1,188.9-49.4,189.1-50.7,188.9L-50.7,188.9z"/>
			<path id="path5127" inkscape:connector-curvature="0" sodipodi:nodetypes="cccscccccsccc" class="st5" d="M-118.1,181.4l1.4,7.4
				c0.5,0,2.4-0.2,3.5-0.4c2.4-0.6,3-1.5,2.7-4.2c-0.2-2.2-1-3.3-2.6-3.3C-114.6,180.7-116.6,181.1-118.1,181.4L-118.1,181.4z
				 M-113.5,184.5c0.2,1.2,0.2,1.8,0,2c-0.3,0.3-0.4,0.3-1,0.3l-0.7-4.1c0,0,0.3-0.1,0.8-0.1C-113.8,182.6-113.7,183.2-113.5,184.5
				L-113.5,184.5z"/>
			<path id="path5111" inkscape:connector-curvature="0" sodipodi:nodetypes="sccccsccsscs" class="st5" d="M-92.6,181l-0.1-2.8
				l2.9,0l0,2.9c0,2.6,0.1,3.1,0.7,3.1c0.6,0,0.6-0.1,0.6-3l0-3l2.7,0c0,0.5,0.2,5.8-0.2,6.5c-0.5,1-1.1,1.2-3.2,1.2
				c-1.9,0-1.9,0-2.6-0.6C-92.4,184.7-92.5,184-92.6,181L-92.6,181z"/>
			<path id="path5109" inkscape:connector-curvature="0" sodipodi:nodetypes="cccccsccccccccccc" class="st5" d="M-80.6,177.9h-4.2
				v7.9h2.7V183h0.8c0.4,0,0.5,0.5,0.5,1.4l0.1,1.4h2.8c-0.1-0.2-0.2-0.4-0.3-2c-0.1-0.7-0.4-1.3-0.6-1.8c0.4-0.7,0.8-1,0.8-1.9
				C-78,178.6-79.2,177.9-80.6,177.9L-80.6,177.9z M-82.1,179.7c0.3,0,1.3,0,1.3,0.7c0,0.8-1,0.7-1.3,0.7V179.7z"/>
			<path id="rect5234" inkscape:connector-curvature="0" class="st5" d="M-125.4,182.9l-6.5,1.5l0.5,2.1l1.9-0.4l1.3,5.6l2.8-0.6
				l-1.2-5.6l1.9-0.4L-125.4,182.9z"/>
			<path id="path5244" inkscape:connector-curvature="0" sodipodi:nodetypes="ccccccccccccc" class="st5" d="M-124.1,182.6l-1,8.1
				l2.6-0.6l0.1-1.5l2.2-0.5l0.8,1.3l2.6-0.6l-4.2-7L-124.1,182.6z M-122,185.1l0.9,1.6l-1.1,0.2L-122,185.1z"/>
			<path id="path5253" inkscape:connector-curvature="0" sodipodi:nodetypes="ccccccccccccc" class="st5" d="M-98.5,178.7l-2,7.9
				l2.6-0.2l0.3-1.5l2.3-0.2l0.6,1.4l2.6-0.2l-3.3-7.5L-98.5,178.7z M-96.7,181.4l0.7,1.7l-1.1,0.1L-96.7,181.4z"/>
			<path id="rect5255" inkscape:connector-curvature="0" sodipodi:nodetypes="ccccccccccccc" class="st5" d="M-109.9,180l0.8,7.5
				l5.7-0.6l-0.2-1.7l-3.2,0.3l-0.1-1.3l3.2-0.3l-0.1-1.3l-3.2,0.3l-0.1-1.3l3.2-0.3l-0.2-1.7L-109.9,180z"/>
			<rect id="rect5274" x="-77.1" y="177.9" class="st5" width="2.7" height="7.9"/>
			<g id="g5290" transform="matrix(0.9979266,0.06436225,-0.06436225,0.9979266,11.63175,4.9741374)">
				
					<rect id="rect5276" x="-76" y="180.7" transform="matrix(2.234460e-06 1 -1 2.234460e-06 110.0891 254.1041)" class="st5" width="8" height="2.7"/>
				
					<rect id="rect5278" x="-71.4" y="182.3" transform="matrix(2.725850e-04 1 -1 2.725850e-04 114.689 255.658)" class="st5" width="1.8" height="5.7"/>
			</g>
			<g id="g5294" transform="matrix(0.99611935,0.08801276,-0.08801276,0.99611935,22.198121,7.4381894)">
				
					<rect id="rect5296" x="-76" y="180.7" transform="matrix(1.344219e-04 1 -1 1.344219e-04 110.0988 254.0801)" class="st5" width="8" height="2.7"/>
				
					<rect id="rect5298" x="-71.4" y="182.3" transform="matrix(5.034458e-04 1 -1 5.034458e-04 114.7055 255.6154)" class="st5" width="1.8" height="5.7"/>
			</g>
			<path id="path5302" inkscape:connector-curvature="0" sodipodi:nodetypes="ccccccccccccc" class="st5" d="M-58.3,179.4l-3.6,7.3
				l2.6,0.3l0.6-1.4l2.3,0.3l0.3,1.5l2.6,0.3l-1.7-8L-58.3,179.4z M-57.1,182.5l0.3,1.8l-1.1-0.1L-57.1,182.5z"/>
			<polygon id="rect5304" class="st5" points="-37.5,183.5 -34.8,184.2 -36.9,191.9 -39.5,191.2 			"/>
			<path id="path5312" inkscape:connector-curvature="0" sodipodi:nodetypes="ccsccccccsssccc" class="st5" d="M-33.2,190.1
				c0.1,0.9,0.6,1.4,1.1,1.3c0.6-0.2,0.2-1-0.7-1.6c-1.2-0.8-1.5-1.2-1.7-2.2c-0.2-1.4,0.3-2.2,1.5-2.6c1.3-0.4,3.8,0.3,4.6,1.3
				c0.5,0.6,0.6,1.6,0.4,2.3l-2.3-0.6c-0.1-0.8-0.4-1.4-1-1.3c-0.6,0.2-0.3,0.8,0.9,1.7c1.6,1.2,1.9,1.8,1.7,2.9
				c-0.4,1.7-1.8,2.5-4.1,1.8c-1.7-0.5-2.5-1.1-2.7-1.9c-0.2-0.8-0.1-1.5-0.1-1.7L-33.2,190.1z"/>
		</g>
	</g>
</g>
</svg>
