<?xml version="1.0" encoding="utf-8"?>
<!-- Generator: Adobe Illustrator 26.0.2, SVG Export Plug-In . SVG Version: 6.00 Build 0)  -->
<svg version="1.1" id="Layer_1" xmlns="http://www.w3.org/2000/svg" xmlns:xlink="http://www.w3.org/1999/xlink" x="0px" y="0px"
	 width="283.9px" height="269.4px" viewBox="0 0 283.9 269.4" style="enable-background:new 0 0 283.9 269.4;" xml:space="preserve"
	>
<style type="text/css">
	.st0{fill-rule:evenodd;clip-rule:evenodd;fill:#007964;}
	.st1{fill:#007964;}
	.st2{fill:#F1B700;}
</style>
<g>
	<g>
		<path class="st0" d="M276.4,234h0.4c0.5,0,0.8,0.2,0.8,0.5c0,0.4-0.2,0.5-0.8,0.5h-0.5v-1H276.4z M275.7,233.5v3.4h0.7v-1.4h0.5
			l0.7,1.4h0.8l-0.8-1.5c0.5-0.1,0.8-0.4,0.8-0.9c0-0.6-0.5-0.9-1.4-0.9h-1.3V233.5z M276.9,232.7c0.7,0,1.3,0.3,1.8,0.8
			s0.7,1.1,0.7,1.8s-0.3,1.3-0.8,1.8s-1.2,0.8-1.9,0.8c-0.6,0-1.3-0.3-1.8-0.8s-0.7-1.1-0.7-1.8s0.3-1.3,0.8-1.8
			C275.6,232.9,276.2,232.7,276.9,232.7z M276.9,232.2c-0.8,0-1.5,0.3-2.1,0.9c-0.6,0.6-0.9,1.4-0.9,2.1c0,0.8,0.3,1.5,0.9,2.1
			s1.3,0.9,2.1,0.9c0.8,0,1.5-0.3,2.1-0.9c0.6-0.6,0.9-1.3,0.9-2.1s-0.3-1.5-0.9-2.1C278.4,232.6,277.7,232.2,276.9,232.2"/>
		<polyline class="st1" points="8.3,232.8 19.6,232.8 19.5,250.9 19.6,250.9 27.8,232.8 37.1,232.8 37.6,250.9 37.7,250.9 
			45.3,232.8 56.6,232.8 41.7,262.4 30.2,262.4 29.7,246 29.6,246 22.1,262.4 10.6,262.4 		"/>
		<path class="st1" d="M65.1,246.6c1-2.2,3.4-2.6,5.8-2.6c2.9,0,4.7,0.7,4.3,2.2c-0.3,1.2-1.1,1.7-3.2,1.9l-8.8,0.4
			c-7.7,0.3-11.2,3-12.1,7.1c-1.2,5.8,2.8,7.7,9.7,7.7c5.5,0,9.2-1,12-3.1c-0.1,0.8-0.2,1.6-0.1,2.2h10.6c-0.3-0.7-0.6-1.8-0.2-3.5
			l2.3-10.9c1.4-6.7-2.2-9.1-12.8-9.1c-5.5,0-9.3,0.4-12.1,1.6c-2.8,1.2-4.5,3.1-5.8,6.2L65.1,246.6L65.1,246.6z M74,253.1
			c-0.8,3.9-4.9,4.8-8.3,4.8c-2.6,0-3.6-1-3.3-2.6c0.3-1.5,1.3-2.1,3.3-2.2c3.8-0.3,6.7-0.6,8.6-1"/>
		<polyline class="st1" points="93.7,231.8 104.1,231.8 97.6,262.4 87.2,262.4 		"/>
		<polyline class="st1" points="109,231.8 119.4,231.8 112.9,262.4 102.5,262.4 		"/>
		<path class="st1" d="M131.7,246.6c1-2.2,3.4-2.6,5.8-2.6c2.9,0,4.7,0.7,4.3,2.2c-0.3,1.2-1.1,1.7-3.2,1.9l-8.8,0.4
			c-7.7,0.3-11.2,3-12.1,7.1c-1.2,5.8,2.8,7.7,9.7,7.7c5.5,0,9.2-1,12-3.1c-0.1,0.8-0.2,1.6-0.1,2.2h10.6c-0.3-0.7-0.6-1.8-0.2-3.5
			L152,248c1.4-6.7-2.2-9.1-12.8-9.1c-5.5,0-9.3,0.4-12.1,1.6c-2.8,1.2-4.5,3.1-5.8,6.2L131.7,246.6L131.7,246.6z M140.6,253.1
			c-0.8,3.9-4.9,4.8-8.3,4.8c-2.6,0-3.6-1-3.3-2.6c0.3-1.5,1.3-2.1,3.3-2.2c3.8-0.3,6.7-0.6,8.6-1"/>
		<path class="st1" d="M153.9,262.4h10l0.5-2.4h0.1c1.4,2.1,4,3.3,8.6,3.3c6.7,0,13.7-3.7,15.4-12.1c1.8-8.4-3.6-12.1-10.3-12.1
			c-4.2,0-7.4,1-9.7,3.2h-0.1l2.2-10.5h-10.3L153.9,262.4z M166.6,251.2c0.7-3.2,2.8-5.1,6.8-5.1c3.7,0,5.1,2.2,4.5,5.1
			c-0.6,3-2.7,5.1-6.8,5.1C167.2,256.3,165.9,254.4,166.6,251.2"/>
		<path class="st1" d="M196.4,231.8h10.3l-1.2,5.7h-10.3L196.4,231.8z M194.7,239.7H205l-4.8,22.6h-10.3"/>
		<path class="st1" d="M227.6,255.6c-1.4,1.4-3.1,2-5.8,2c-4.6,0-5.7-2.5-5.4-4.1h22.8c2.6-11.3-4.1-14.6-14.1-14.6
			c-10.2,0-17.1,4.4-18.7,12.2c-1.8,8.3,3.6,12.2,14.5,12.2c4.8,0,8.5-0.7,11.4-2.1c2.9-1.3,5.1-3.3,6.4-5.6L227.6,255.6
			L227.6,255.6z M217.5,248.3c1.1-2.9,3.4-4,7.1-4c3.6,0,5.6,1.5,5.3,4"/>
		<path class="st1" d="M249.9,253.4c-5.9-0.6-7.1-3-6.3-7c1.1-5.3,6.6-7.6,16.7-7.6c7,0,14.5,1.3,13.3,7.7H262
			c0.1-0.6,0-1.1-0.5-1.4c-0.5-0.3-1.4-0.6-2.9-0.6c-3.1,0-3.8,0.7-4,1.6c-0.1,0.6,0.3,1.2,2.5,1.4l9.7,0.9c5.5,0.5,7.1,3,6.2,6.8
			c-1.2,5.8-6.8,8.1-17.7,8.1c-10.8,0-15-2.2-14.1-7.9h12.2c-0.1,0.9,0.3,1.5,0.9,1.8c0.7,0.3,1.7,0.4,2.8,0.4
			c2.7,0,3.6-0.7,3.8-1.7c0.1-0.7-0.1-1.3-1.1-1.4"/>
		<path class="st2" d="M249.9,210c-8.1-0.3-62.4-4-86.4,15.2c-4.7,3.4-8.8,2.6-10.8-0.1c-1.9-2.6-1.7-6.8,1.7-9.3
			c21.6-21.6,86.5-13.3,95.5-12c1.7,0.2,2.9,1.5,2.9,3.1S251.5,209.9,249.9,210z M171,135.7c-4.6-1.5-8-5.6-8-10.7
			c0-5.1,3.4-9.4,8-10.7c1.7-0.5,3.7-0.7,5.8-0.7c27.8,0.6,76.2,43.6,10.7,82.9c-0.2,0.1-0.4,0.2-0.6,0.2c-0.7,0-1.3-0.6-1.3-1.3
			c0-0.3,0.1-0.7,0.4-0.9c24.7-29.2,19.6-39.9,14.5-46.2C192.3,138.3,181.8,138.5,171,135.7z M224.9,46.7l-0.1,2
			c0,0.5-0.4,0.8-0.9,0.8c-0.1,0-0.2,0-0.4-0.1c-10.7-5.3-18.7-21.3-19.6-40.6c0-1,0.8-1.9,1.9-1.9c0.3,0,0.5,0.1,0.8,0.2
			c0.9,0.4,1.7,0.8,2.6,1.2c7.7,3.8,14.4,9,19.5,13.8c5.1-4.8,11.8-9.4,19.5-13.1c1.7-0.8,3.2-1.5,4.9-2.3c0.3-0.1,0.5-0.2,0.9-0.2
			c0.9,0,1.6,0.6,1.8,1.4c0.9,3.7,0.4,9.2-1.6,14.9c-1.1,3.2-2.6,6-4.1,8.3c0.1,6.2-1.6,14.2-5.1,22.4c-3.4,8.1-7.9,14.8-12.4,19.1
			c-0.4,0.4-0.9,0.6-1.4,0.6h-4.4c-0.5,0-0.8-0.4-0.8-0.8c0-0.3,0.2-0.6,0.4-0.7c2.9-1.9,4.9-3.9,5.1-7.7c0.5-8.3,3.5-15.7,8.7-21.9
			c2.2-2.2,2.7-6.7,2.7-10.5c0-0.6,0-1.1-0.1-1.6c-0.1-0.7-0.8-1.3-1.5-1.3c-0.3,0-0.7,0.1-0.9,0.3c-3.1,2.3-7.3,3-11.6,3
			c-3.1,0-5.9-1-8.5-2.5c-0.2-0.1-0.5-0.2-0.8-0.2c-0.8,0-1.5,0.7-1.5,1.5c0,0.1,0,0.2,0,0.3c0.6,6.4,3.2,11.8,6.8,15.1
			C224.8,46.3,224.9,46.5,224.9,46.7L224.9,46.7z M248.7,98c-0.7,0.4-1.8-0.1-2.5-1.3l-1.3-2.4c-0.7-1.2-0.5-2.4,0.2-2.8
			s1.8,0.1,2.5,1.3l1.3,2.4C249.6,96.4,249.4,97.6,248.7,98z M244.2,100.8c-0.7,0.4-1.8-0.1-2.5-1.3l-1.3-2.4
			c-0.7-1.2-0.5-2.4,0.2-2.8s1.8,0.1,2.5,1.3l1.3,2.4C245.1,99.2,244.9,100.4,244.2,100.8z M239.8,103.6c-0.7,0.4-1.8-0.1-2.5-1.3
			l-1.3-2.4c-0.7-1.2-0.5-2.4,0.2-2.8s1.8,0.1,2.5,1.3l1.3,2.4C240.6,102,240.4,103.2,239.8,103.6z M279.6,94.6
			c-3.1-8.5-20.6-12.7-37.2-6.7c-1.8,0.7-3.5,1.4-5.2,2.2c-7.3,0.6-14.6,1.8-21.7,2.1c9.3-17.6,2.1-28.2,0.3-30.5
			c-0.2-0.4-0.7-0.6-1.2-0.6c-38.1,1.8-55.4,12.1-68.5,26.7c-6.6,7.3-11,15.6-14.6,24.4c-3.5,8.8-8.3,20.3-11,29.5
			c-10.6,36.6-27.2,64.5-110.3,70.8c-1.1,0-2.1,0.9-2.1,2c0,1,0.7,1.8,1.6,2H10c85,15.3,114.3-38.5,123.6-42.8
			c34.8-15.1,39.9,16.6,4.7,31.7c-0.5,0.2-0.8,0.7-0.8,1.2c0,0.8,0.6,1.3,1.5,1.3c58.3-8.9,41.4-67.2-4.7-42.9
			c4.4-10,11.9-78.9,63.9-83.5c2-0.1,4.7-0.1,5.9,1.6c0.8,1.2,0.3,3.5,0.2,4.8c-0.3,1.6-1.2,3.7-2.5,6.1c-2.6,4.7-6.2,9.9-7.4,12.2
			c-0.1,0.2-0.1,0.4-0.1,0.6c0,0.7,0.6,1.3,1.3,1.3c0.2,0,0.4,0,0.5-0.1c4.6-2.1,9.5-3.7,14.5-4.9c4.3-1,8.7-1.8,13-2.6
			c-4.7,5.6-6.9,11.7-5.3,16.2c3.1,8.5,20.6,12.7,37.2,6.7C272,117.7,282.6,103.1,279.6,94.6"/>
	</g>
</g>
</svg>
