<?xml version="1.0" encoding="utf-8"?>
<!-- Generator: Adobe Illustrator 26.0.2, SVG Export Plug-In . SVG Version: 6.00 Build 0)  -->
<svg version="1.1" id="Calque_1" xmlns="http://www.w3.org/2000/svg" xmlns:xlink="http://www.w3.org/1999/xlink" x="0px" y="0px"
	 width="640px" height="640px" viewBox="0 0 640 640" style="enable-background:new 0 0 640 640;" xml:space="preserve">
<style type="text/css">
	.st0{fill:#004FA3;}
	.st1{fill:none;stroke:#FEBE10;stroke-width:12.6409;stroke-miterlimit:10;}
	.st2{fill:#FFFFFF;}
	.st3{fill:none;stroke:#FEBE10;stroke-width:6.3205;stroke-miterlimit:10;}
	.st4{fill:#004FA3;stroke:#004FA3;stroke-width:1.5979;stroke-miterlimit:10;}
	.st5{fill:#EF3E33;}
	.st6{fill:none;stroke:#231F20;stroke-width:3.1602;stroke-miterlimit:10;}
	.st7{fill:#FEBE10;stroke:#231F20;stroke-width:3.1602;stroke-miterlimit:10;}
	.st8{fill:#FEBE10;}
	.st9{fill:none;stroke:#FFFFFF;stroke-width:0.6924;stroke-miterlimit:10;}
	.st10{fill:none;stroke:#231F20;stroke-width:6.3205;stroke-miterlimit:10;}
	.st11{fill:#FFFFFF;stroke:#FFFFFF;stroke-width:1.5624;stroke-miterlimit:10;}
	.st12{fill:none;stroke:#FFFFFF;stroke-width:1.5979;stroke-miterlimit:10;}
	.st13{fill:#FFFFFF;stroke:#FFFFFF;stroke-width:0.3906;stroke-miterlimit:10;}
	.st14{fill:#004FA3;stroke:#FFFFFF;stroke-width:1.5979;stroke-miterlimit:10;}
	.st15{fill:none;stroke:#FFFFFF;stroke-width:2.0417;stroke-miterlimit:10;}
	.st16{fill:none;stroke:#FFFFFF;stroke-width:2.1127;stroke-miterlimit:10;}
	.st17{fill:none;stroke:#FFFFFF;stroke-width:2.024;stroke-miterlimit:10;}
</style>
<g id="surface1">
	<path class="st0" d="M320,633.7c173.2,0,313.7-140.4,313.7-313.7C633.7,146.8,493.2,6.3,320,6.3C146.8,6.3,6.3,146.8,6.3,320
		C6.3,493.3,146.8,633.7,320,633.7"/>
	<path class="st1" d="M633.7,320c0,173.2-140.4,313.7-313.7,313.7S6.3,493.2,6.3,320S146.8,6.3,320,6.3S633.7,146.8,633.7,320z"/>
	<path class="st2" d="M318.9,504.1c100.9,0,182.7-81.8,182.7-182.7c0-100.9-81.8-182.7-182.7-182.7s-182.7,81.8-182.7,182.7
		C136.2,422.3,218,504.1,318.9,504.1"/>
	<path class="st3" d="M501.6,321.4c0,100.9-81.8,182.7-182.7,182.7s-182.7-81.8-182.7-182.7S218,138.7,318.9,138.7
		S501.6,220.5,501.6,321.4z"/>
	<path class="st4" d="M436.6,201.5l-1.2-1.4c-31.9,19.3-72.3,30.9-116.3,30.9c-44.3,0-85-11.7-117.1-31.3l-1.4,2.2l-38.3,44.3
		c0,0,16,6.7,19.6,44.1c0,0,3.2,10.5,0.2,27c-3.1,16.5-7.9,26.2-7.9,26.2s-4.6,13.5-4.6,24.2c0,10.7,0,14.9,3.5,25.3
		c3.5,10.5,3.5,7.9,10.7,20.7c0,0,19,29,64.8,41.8c0,0,23,6.9,43.7,15.8c16,6.8,23.3,10.6,26,19.6l0.6,1.5l0.6-1.7
		c2.6-9.1,9.9-12.7,25.9-19.5c20.7-8.8,43.7-15.8,43.7-15.8c45.7-12.8,64.8-41.8,64.8-41.8c7.2-12.8,7.2-10.2,10.7-20.7
		c3.5-10.5,3.5-14.6,3.5-25.3c0-10.7-4.7-24.1-4.7-24.1s-4.9-9.8-7.9-26.2c-3-16.5,0.2-27,0.2-27c3.6-37.4,19.6-44.1,19.6-44.1
		L436.6,201.5"/>
	<path class="st5" d="M456.6,321.9c2.9,12.7,6.6,20,6.6,20s4.7,13.5,4.7,24.2c0,10.7,0,14.8-3.5,25.3c-3.5,10.4-3.5,7.9-10.7,20.7
		c0,0-19,29-64.8,41.8c0,0-23,7-43.7,15.8c-16,6.8-23.3,10.4-25.9,19.5l-0.6,1.7l-0.6-1.5c-2.6-9-10-12.8-26-19.6
		c-20.7-8.8-43.7-15.8-43.7-15.8c-45.7-12.8-64.8-41.8-64.8-41.8c-7.2-12.8-7.2-10.2-10.7-20.6c-3.5-10.5-3.5-14.6-3.5-25.3
		c0-10.7,4.7-24.1,4.7-24.1s3.5-7.1,6.4-19.4h21.4v40.4h47.4v-41.1h46v41.1h46.7v-41.1h48.1v41.1h44.6v-41.1L456.6,321.9"/>
	<path class="st6" d="M456.6,321.9c2.9,12.7,6.6,20,6.6,20s4.7,13.5,4.7,24.2c0,10.7,0,14.8-3.5,25.3c-3.5,10.4-3.5,7.9-10.7,20.7
		c0,0-19,29-64.8,41.8c0,0-23,7-43.7,15.8c-16,6.8-23.3,10.4-25.9,19.5l-0.6,1.7l-0.6-1.5c-2.6-9-10-12.8-26-19.6
		c-20.7-8.8-43.7-15.8-43.7-15.8c-45.7-12.8-64.8-41.8-64.8-41.8c-7.2-12.8-7.2-10.2-10.7-20.6c-3.5-10.5-3.5-14.6-3.5-25.3
		c0-10.7,4.7-24.1,4.7-24.1s3.5-7.1,6.4-19.4h21.4v40.4h47.4v-41.1h46v41.1h46.7v-41.1h48.1v41.1h44.6v-41.1L456.6,321.9z"/>
	<path class="st7" d="M329.4,442.1L306.7,417c-0.5-0.8-0.8-1.8-1-2.7l0-0.9c0-4.8,3.4-8.7,7.6-8.7l1.1-0.2c1.6-0.1,3.2-0.2,4.9-0.2
		c1.6,0,3.1,0.1,4.7,0.2l1.4,0.2c4.2,0,7.5,3.9,7.5,8.7l0.2,0.6c-0.2,1.5-0.5,3.1-1.2,4.9c0,0,2.3,4.5-0.8,11.4c0,0,2.2,5-1.4,11.6
		c0,0,1.4,6.1-2.2,10.3c0,0,1.6,4.9-2.3,8.9l-0.5,0.2c0,0-0.4,7.4-4.8,11.2l-0.2,0.1c-8.6-10.7-9.8-27.5-9.8-27.5v-0.6
		c-3.5-5.6-2.3-13.4-2.3-13.4l0.4-0.8c-3.1-5.3-1-13.5-1-13.5"/>
	<path class="st7" d="M330.8,430.6l-21.9-24.2"/>
	<path class="st7" d="M309.6,444.7l14.8,17"/>
	<path class="st7" d="M307.7,430.5l19.9,21.9"/>
	<path class="st7" d="M331.6,418.9l-13.4-14.6"/>
	<path class="st8" d="M354.5,419.3c-6.3-8.8-19.9-14.8-35.7-14.8c-15.7,0-29.3,5.9-35.6,14.6l0.2-36.8c6.3,8.7,19.9,14.8,35.7,14.8
		c15.7,0,29.2-6,35.6-14.6L354.5,419.3"/>
	<path class="st6" d="M354.5,419.3c-6.3-8.8-19.9-14.8-35.7-14.8c-15.7,0-29.3,5.9-35.6,14.6l0.2-36.8c6.3,8.7,19.9,14.8,35.7,14.8
		c15.7,0,29.2-6,35.6-14.6L354.5,419.3z"/>
	<path class="st2" d="M172.7,294.2c5.1,1.9,9.3,3.4,11,3.4c14.9-0.7,23.1-10.7,32.9-11.6c9.4-0.9,21.9,10.4,34.6,10.2l1.6-0.1
		c13.7-1.4,21.6-10.6,31-11.5c9.4-0.9,21.9,10.4,34.6,10.2l3.2,0c12.8,0.2,25.3-11.2,34.8-10.3c9,0.8,16.8,9.4,29.6,11.2l2.7,0.3
		c12.6,0,24.9-11.2,34.3-10.3c9.8,0.9,18,10.9,32.9,11.5c1.4,0.1,4.7-1,8.9-2.6v11.5c-4.9,1.8-8.9,3.2-10.5,3.2
		c-14.9-0.7-23.2-10.6-32.9-11.6c-9.4-0.9-21.8,10.3-34.4,10.3l-2.7-0.3c-12.8-1.9-20.5-10.4-29.5-11.3c-9.3-0.9-21.4,10-33.9,10.3
		l-3,0c-12-0.9-23.7-11-32.7-10.2c-9.6,0.9-17.7,10.5-32,11.6l-2.6,0c-12-0.9-23.7-11-32.6-10.2c-9.7,0.9-18,10.9-32.9,11.6
		c-1.8,0.1-6.7-1.7-12.6-4L172.7,294.2"/>
	<path class="st9" d="M172.7,294.2c5.1,1.9,9.3,3.4,11,3.4c14.9-0.7,23.1-10.7,32.9-11.6c9.4-0.9,21.9,10.4,34.6,10.2l1.6-0.1
		c13.7-1.4,21.6-10.6,31-11.5c9.4-0.9,21.9,10.4,34.6,10.2l3.2,0c12.8,0.2,25.3-11.2,34.8-10.3c9,0.8,16.8,9.4,29.6,11.2l2.7,0.3
		c12.6,0,24.9-11.2,34.3-10.3c9.8,0.9,18,10.9,32.9,11.5c1.4,0.1,4.7-1,8.9-2.6v11.5c-4.9,1.8-8.9,3.2-10.5,3.2
		c-14.9-0.7-23.2-10.6-32.9-11.6c-9.4-0.9-21.8,10.3-34.4,10.3l-2.7-0.3c-12.8-1.9-20.5-10.4-29.5-11.3c-9.3-0.9-21.4,10-33.9,10.3
		l-3,0c-12-0.9-23.7-11-32.7-10.2c-9.6,0.9-17.7,10.5-32,11.6l-2.6,0c-12-0.9-23.7-11-32.6-10.2c-9.7,0.9-18,10.9-32.9,11.6
		c-1.8,0.1-6.7-1.7-12.6-4L172.7,294.2L172.7,294.2z"/>
	<path class="st2" d="M172.6,259.8c5.2,1.9,9.4,3.4,11,3.4c14.8-0.7,23.1-10.7,32.8-11.6c9.4-0.9,21.9,10.4,34.6,10.2l1.6-0.1
		c13.7-1.4,21.7-10.6,31-11.5c9.4-0.9,21.9,10.4,34.6,10.2l3.2,0c12.8,0.2,25.3-11.2,34.8-10.3c9,0.8,16.7,9.4,29.6,11.2l2.7,0.3
		c12.6,0,25-11.2,34.4-10.3c9.8,0.9,18,10.9,32.9,11.5c1.4,0.1,4.7-1,8.9-2.6v11.4c-4.9,1.8-8.9,3.2-10.5,3.2
		c-14.9-0.7-23.2-10.6-32.9-11.6c-9.4-0.9-21.8,10.3-34.4,10.3l-2.7-0.3c-12.8-1.8-20.5-10.4-29.5-11.2c-9.2-0.9-21.4,10-33.9,10.3
		l-3-0.1c-12-0.9-23.7-11-32.6-10.2c-9.6,0.9-17.6,10.5-31.9,11.6l-2.6,0c-12-0.9-23.7-11-32.7-10.2c-9.7,0.9-18,10.9-32.8,11.6
		c-1.8,0.1-6.7-1.8-12.6-4L172.6,259.8"/>
	<path class="st9" d="M172.6,259.8c5.2,1.9,9.4,3.4,11,3.4c14.8-0.7,23.1-10.7,32.8-11.6c9.4-0.9,21.9,10.4,34.6,10.2l1.6-0.1
		c13.7-1.4,21.7-10.6,31-11.5c9.4-0.9,21.9,10.4,34.6,10.2l3.2,0c12.8,0.2,25.3-11.2,34.8-10.3c9,0.8,16.7,9.4,29.6,11.2l2.7,0.3
		c12.6,0,25-11.2,34.4-10.3c9.8,0.9,18,10.9,32.9,11.5c1.4,0.1,4.7-1,8.9-2.6v11.4c-4.9,1.8-8.9,3.2-10.5,3.2
		c-14.9-0.7-23.2-10.6-32.9-11.6c-9.4-0.9-21.8,10.3-34.4,10.3l-2.7-0.3c-12.8-1.8-20.5-10.4-29.5-11.2c-9.2-0.9-21.4,10-33.9,10.3
		l-3-0.1c-12-0.9-23.7-11-32.6-10.2c-9.6,0.9-17.6,10.5-31.9,11.6l-2.6,0c-12-0.9-23.7-11-32.7-10.2c-9.7,0.9-18,10.9-32.8,11.6
		c-1.8,0.1-6.7-1.8-12.6-4L172.6,259.8z"/>
	<path class="st10" d="M436.9,202l-1.2-1.4c-31.9,19.3-72.3,30.8-116.3,30.8c-44.4,0-85.1-11.7-117.1-31.3l-1.4,2.2l-38.3,44.3
		c0,0,16,6.7,19.6,44.1c0,0,3.2,10.5,0.2,27c-3,16.5-7.9,26.2-7.9,26.2s-4.7,13.5-4.7,24.1c0,10.7,0,14.9,3.5,25.3
		c3.5,10.5,3.5,7.9,10.7,20.7c0,0,19,29,64.8,41.8c0,0,23,7,43.6,15.8c15.9,6.8,23.4,10.5,26,19.6l0.6,1.5l0.6-1.7
		c2.6-9.1,9.9-12.7,25.9-19.5c20.7-8.8,43.6-15.8,43.6-15.8c45.8-12.8,64.8-41.8,64.8-41.8c7.2-12.8,7.2-10.2,10.7-20.6
		c3.5-10.5,3.5-14.7,3.5-25.3c0-10.7-4.7-24.1-4.7-24.1s-4.9-9.8-7.9-26.2c-3-16.5,0.2-27,0.2-27c3.6-37.4,19.6-44.1,19.6-44.1
		L436.9,202"/>
	<path class="st2" d="M328.5,396.2c-4.3,1-4.6,1-9.4,1c-5,0-5.2,0.2-9.6-0.9l9.5-161.1L328.5,396.2"/>
	<path class="st6" d="M328.5,396.2c-4.3,1-4.6,1-9.4,1c-5,0-5.2,0.2-9.6-0.9l9.5-161.1L328.5,396.2z"/>
	<path class="st2" d="M212.6,390.9c4.9-2.1,9.2-6.5,11.7-12h0.2v38.5c0,3.9-0.2,7,2.8,9.4v0.2h-11.5v-0.2c3.4-2,3.2-5.3,3.2-9.4
		v-26.4h-6.3L212.6,390.9"/>
	<path class="st2" d="M235.6,392.7c0-7,5.5-11.6,13-11.6c5.6,0,12.8,3.1,12.8,11.3c0,4.9-3.5,8.1-6.7,10.1c4.6,2.7,8.8,5.3,8.8,12.6
		c0,7.8-6.3,13.1-14.7,13.1c-7.8,0-14.5-4.8-14.5-12.7c0-6.3,3.9-9.8,8.2-12C238.7,401.6,235.6,398.2,235.6,392.7 M239.8,414.6
		c0,5.6,3.7,9.1,9.3,9.1c3.9,0,8.8-2.2,8.8-7.8c0-6.8-8.1-8.7-12.2-10.3C243,407.1,239.8,410.5,239.8,414.6 M255.8,393.1
		c0-4.3-2.8-7.4-8-7.4c-2.9,0-6.7,1.5-6.7,5.9c0,5.8,6.7,7.8,10.3,9.3C253.6,399.3,255.8,396.5,255.8,393.1"/>
	<path class="st2" d="M397,385.1c-3.7,0.7-8,4.2-10.8,7.3c-3.7,4.4-5.9,10.1-5.9,16.5c0,7.1,3.2,14.7,9.6,14.7
		c4.8,0,7.7-4.6,7.7-10.5c0-6.9-2.9-11.5-8.5-11.5c-2.1,0-8,2.3-9.4,5.6l0.4-4.5c1.2-2.8,6.1-5.7,11.3-5.6c6.8,0.2,11.7,6,11.7,14.6
		c0,9.6-6.2,16.4-13.7,16.4c-8.6,0-14.6-8.6-14.6-19.1c0-16.2,13.1-26.8,24.8-28.2L397,385.1"/>
	<path class="st2" d="M430.9,390.3h-0.2c-2-2.8-5.8-3-8.7-3l-6,0.4l-0.5,11.3c1.8-0.6,3.5-0.9,5.3-0.9c7.2,0,13.2,5,13.2,14.6
		c0,9.2-7,15.3-16.2,15.3c-2.4,0-4.7-0.4-7.1-1.1l-2.6-7c2.9,1.9,6.2,2.7,9.6,2.7c5,0,10-2.9,10-10c0-6.6-5-9.2-9.5-9.2
		c-2.7,0-5.9,0.9-8.4,2.3l1.2-23.7h19.7L430.9,390.3"/>
	<path class="st8" d="M73,290.5l-15.8,30.4L73,352.2l15.8-31.2L73,290.5z"/>
	<path class="st8" d="M565.8,290.7L550,321.1l15.8,31.2l15.8-31.2L565.8,290.7z"/>
	<path class="st2" d="M568.8,464.6l4.3-8.1l1.5,0.8l-1.7,3.2l8.4,4.5l-0.9,1.7l-8.4-4.5l-1.7,3.2L568.8,464.6z"/>
	<path class="st2" d="M580.5,447.9L580.5,447.9l6.2,6.9l-0.8,1.4l-9.2-1.3l0,0l7.7,4.1l-0.9,1.7l-10-5.3l1.3-2.5l9.2,1.4l0,0
		l-6.4-6.8l1.3-2.4l10,5.3l-0.9,1.7L580.5,447.9z"/>
	<path class="st11" d="M426,156c-4.1-6.6,3-14.5,7-19.7l16-20.9l41.7,31.9l-20.3,26.6c-3.4,4.2-8.5,8.8-13.6,7.3l-0.3,0.3l-0.5,0.4
		c6.6,6.8,12.7,14,18.2,21.7l0.3-0.1l0.3-0.3c-3.1-5,4.8-16.7,8.2-21.4l6.1-8l30.8-40.3c4-5.2,7.1-11.5,14.7-9.2l0.3-0.1l0.4-0.3
		c-6.2-7-12.7-13.7-19.5-20l-0.4,0.6l-0.3,0.3c4.2,6.7-3.1,14.5-7.1,19.9l-11,14.3l-41.7-31.9l11-14.3c4.1-5.3,11-15.5,18.4-13.3
		l0.6-0.4c-7.5-5.3-15.6-10.4-23.7-15l-0.3,0.6c4.2,6.7-2.7,13.7-6.7,18.9l-33.4,43.7c-4,5.2-11.8,17.1-19.3,14.9 M426,156l-0.2,0.3
		l-0.2,0.2c-7.7-5.1-15.8-9.7-24.2-13.7l0.3-0.2l0.3-0.4"/>
	<path class="st2" d="M175,171.7c9.4-7.8,14.1-20.5,4.1-30.4c-10.2-10.2-24.5-4.7-33.1,5.1l-6.9,7.8l26,25.8L175,171.7 M135.6,143.8
		c6.8-6.8,14.2-18.9,5.6-27.5c-7.2-7.2-17.7-4.3-23.4,2.7l-6.3,7.8l20.6,20.5L135.6,143.8z M90.1,135.1
		c8.4-10.1,17.4-19.6,27.1-28.5l0.7-0.4c12.4-10.4,24.6-11.4,33-3c7.1,7,6.6,15.5,3.2,24.1c11.4-7.5,25.4-8.9,35.7,1.4
		c8.1,8.1,9.5,20.5,5.9,30.9c-2,5.9-5.5,11-9.5,15.7l-0.4,0.4c-10.2,8.9-18.6,17.8-26.7,28.7l-0.9-0.6l-0.3-0.3
		c3.2-7.2-5.1-14.3-9.9-19.1l-39.6-39.4c-4.3-4.2-10.1-11.2-16.9-8.9L90.1,135.1z"/>
	<path class="st12" d="M175,171.7c9.4-7.8,14.1-20.5,4.1-30.4c-10.2-10.2-24.5-4.7-33.1,5.1l-6.9,7.8l26,25.8L175,171.7z
		 M135.6,143.8c6.8-6.8,14.2-18.9,5.6-27.5c-7.2-7.2-17.7-4.3-23.4,2.7l-6.3,7.8l20.6,20.5L135.6,143.8z M90.1,135.1
		c8.4-10.1,17.4-19.6,27.1-28.5l0.7-0.4c12.4-10.4,24.6-11.4,33-3c7.1,7,6.6,15.5,3.2,24.1c11.4-7.5,25.4-8.9,35.7,1.4
		c8.1,8.1,9.5,20.5,5.9,30.9c-2,5.9-5.5,11-9.5,15.7l-0.4,0.4c-10.2,8.9-18.6,17.8-26.7,28.7l-0.9-0.6l-0.3-0.3
		c3.2-7.2-5.1-14.3-9.9-19.1l-39.6-39.4c-4.3-4.2-10.1-11.2-16.9-8.9L90.1,135.1z"/>
	<path class="st13" d="M410.3,45.6l-5.3,11.2l-0.4-0.1c-0.9-5.3-6.5-7.1-11.3-8l-12.9-2.4l-11.9,65.2c-1.5,8.2-2.5,14.3,4.2,20.1
		l-0.2,0.7l-0.2,0.3c-9.7-2.9-18.1-4.7-28.4-6l0.2-0.3v-0.4c7.7-1.4,8.7-12,9.9-18.4l11.7-63.8l-12.6-2.3
		c-6.2-1.1-12.9-0.7-18.1,2.6l-0.4-0.1l5.9-12.7l0.6-1.2l1.9-3.8l0.4,0.1c1.6,1,3.4,1.4,5.3,2l6.7,1.2l0.7,0
		c16.9,2.2,31.4,5.5,45.3,9.7l1.1,0.4l3,0.6c2.5,0.4,4.8,0.7,6.8,0.2l0.4,0.1l-2.4,5"/>
	<path class="st2" d="M326,124.8l-0.2-0.7c-7.4-1.6-13.5-12.4-17.8-18.1l-3.1-4.2l-50.3-67.4l-0.2-0.3c-7.2,1.6-14.3,3.6-21.3,5.8
		l0.2,0.4l0.4,1.1c7.5,0.3,6.6,9.3,6,15l-7.8,62.2l-0.2,1.2l-0.5,3.7c-0.9,7.8-1.3,20.6-7.6,26.1l0.2,1l0.4-0.2
		c1.5-0.9,1.5-0.9,1.5-0.9c7.8-4.4,14.9-8,23.3-11.3l0.6-0.3l-0.3-0.5c-7.4-0.8-7.6-4.7-6.8-13.2l2.2-20.8l36.2-9.5l10.2,14.2
		l2.6,3.8c5.7,7.9,6.8,9.2,0.9,14l0.2,0.5l0.2,0.4c7.9-1,10.4-1.6,18.6-1.7c2.7,0,9.8,0.1,12.5,0.2L326,124.8"/>
	<path class="st12" d="M326,124.8l-0.2-0.7c-7.4-1.6-13.5-12.4-17.8-18.1l-3.1-4.2l-50.3-67.4l-0.2-0.3c-7.2,1.6-14.3,3.6-21.3,5.8
		l0.2,0.4l0.4,1.1c7.5,0.3,6.6,9.3,6,15l-7.8,62.2l-0.2,1.2l-0.5,3.7c-0.9,7.8-1.3,20.6-7.6,26.1l0.2,1l0.4-0.2
		c1.5-0.9,1.5-0.9,1.5-0.9c7.8-4.4,14.9-8,23.3-11.3l0.6-0.3l-0.3-0.5c-7.4-0.8-7.6-4.7-6.8-13.2l2.2-20.8l36.2-9.5l10.2,14.2
		l2.6,3.8c5.7,7.9,6.8,9.2,0.9,14l0.2,0.5l0.2,0.4c7.9-1,10.4-1.6,18.6-1.7c2.7,0,9.8,0.1,12.5,0.2L326,124.8L326,124.8z"/>
	<path class="st14" d="M275.1,82.4l-23.5-32.5l-4.7,39.9L275.1,82.4z"/>
	<path class="st2" d="M356.3,535.3h-0.4c-6.3-6.5-17.6-8-26.6-7.6c-22.9,1-39.8,16.8-38.7,40.5c1.1,23.7,20.7,40.8,43.9,39.7
		c6.8-0.3,13.8-1.5,20.3-3.7l-0.9-21.2c-0.3-6.8-0.8-14-7.5-16.3v-0.4l22.5-1l0,0.4c-0.7,1.8-0.5,4.2-0.4,6.4l1.5,33.8
		c0.2,2.2,0,4.6,1,6.6c-11.6,2.7-23,5.5-34.9,6c-37.7,1.7-60.8-17.9-62.1-47.4c-1.4-31.6,22.8-52.5,58.4-54
		c7.8-0.4,15.5,0.2,23.2,1.5L356.3,535.3"/>
	<path class="st15" d="M356.3,535.3h-0.4c-6.3-6.5-17.6-8-26.6-7.6c-22.9,1-39.8,16.8-38.7,40.5c1.1,23.7,20.7,40.8,43.9,39.7
		c6.8-0.3,13.8-1.5,20.3-3.7l-0.9-21.2c-0.3-6.8-0.8-14-7.5-16.3v-0.4l22.5-1l0,0.4c-0.7,1.8-0.5,4.2-0.4,6.4l1.5,33.8
		c0.2,2.2,0,4.6,1,6.6c-11.6,2.7-23,5.5-34.9,6c-37.7,1.7-60.8-17.9-62.1-47.4c-1.4-31.6,22.8-52.5,58.4-54
		c7.8-0.4,15.5,0.2,23.2,1.5L356.3,535.3L356.3,535.3z"/>
	<path class="st2" d="M551.7,470.8c7.3,5.4,10.9,8.2,20.1,5.4l0.4,0.2l-17.7,23.7l-0.4-0.2c1.4-8.2-7.1-13.3-12.8-17.6l-18-13.4
		l-47.5-4.1c-7.8-0.7-13.6-1.3-21.1,2.2l10.2-9.5c2.9-3.9,7.3-8,11-7.6l43.4,3.8L508,421.6c-1.5-4.4-4.2-11-12.6-6.7l12.4-24.9
		l24.8,66.4L551.7,470.8"/>
	<path class="st16" d="M551.7,470.8c7.3,5.4,10.9,8.2,20.1,5.4l0.4,0.2l-17.7,23.7l-0.4-0.2c1.4-8.2-7.1-13.3-12.8-17.6l-18-13.4
		l-47.5-4.1c-7.8-0.7-13.6-1.3-21.1,2.2l10.2-9.5c2.9-3.9,7.3-8,11-7.6l43.4,3.8L508,421.6c-1.5-4.4-4.2-11-12.6-6.7l12.4-24.9
		l24.8,66.4L551.7,470.8z"/>
	<path class="st2" d="M140.8,427.1c4.3,8.9,7.6,19.8-0.7,25.4c-14.8,9.9-26,2.1-34.6-5.9L98.9,469l-6.1,24.1
		c-1.5,6.8,0.7,16.9,5.5,22.9l9.6,11c-1.1-9.8-1.1-23.6,1-33.1l7.4-32.9c9.7,7.6,24.5,10,34.5,2c9.7-7.8,12-19.7,2.1-33.9l-1.2-2.1
		c-0.2-0.3-0.3-0.5-0.5-0.8l-3.1-5.1c-4.1-7.1-7.4-14-10.6-22.3c1.6,4.7-1.6,8.2-5.4,11.1l-2.8,1.8l-7.3,4.4l-4,2.3l-48.4,28.7
		c-4.9,2.7-12.5,5.6-17,0.7l-0.6,0.2c3.1,7.2,13.4,26.5,13.4,26.5l0.4-0.4c-1-4.9,2.3-8.4,6.5-11.4l7.6-5l50.2-29.9l3.1-1.9l4.2-3
		l1,1c0.8,0.8,1.3,1.6,1.8,2.4L140.8,427.1"/>
	<path class="st17" d="M140.8,427.1c4.3,8.9,7.6,19.8-0.7,25.4c-14.8,9.9-26,2.1-34.6-5.9L98.9,469l-6.1,24.1
		c-1.5,6.8,0.7,16.9,5.5,22.9l9.6,11c-1.1-9.8-1.1-23.6,1-33.1l7.4-32.9c9.7,7.6,24.5,10,34.5,2c9.7-7.8,12-19.7,2.1-33.9l-1.2-2.1
		c-0.2-0.3-0.3-0.5-0.5-0.8l-3.1-5.1c-4.1-7.1-7.4-14-10.6-22.3c1.6,4.7-1.6,8.2-5.4,11.1l-2.8,1.8l-7.3,4.4l-4,2.3l-48.4,28.7
		c-4.9,2.7-12.5,5.6-17,0.7l-0.6,0.2c3.1,7.2,13.4,26.5,13.4,26.5l0.4-0.4c-1-4.9,2.3-8.4,6.5-11.4l7.6-5l50.2-29.9l3.1-1.9l4.2-3
		l1,1c0.8,0.8,1.3,1.6,1.8,2.4L140.8,427.1z"/>
	<path class="st2" d="M236.8,499.7l1.5,0.7c7.8,3.3,15.9,6.1,24.2,8.4l1.4,0.3v0.5c-7.4-0.9-11.6,7.3-14.7,13.4l-6.3,13.2
		l-14.3,29.9c-15.4,34-47.2,18.4-47.2,18.4c-3.4-0.9-8.6-4.4-11.5-5.9c-8.9-4.6-16.8-12.4-19.4-22.1c-3.1-11.5,1.9-20.4,7-30.1
		l12-23l9.2-17.6c3.2-6.1,9.2-15.4,3.7-21.5l1.7,1.6c6.2,5.5,12.6,10.6,19.5,15.3l1.8,1l-0.2,0.4c-8.1-0.9-12.4,9.3-15.5,15.3
		l-2.8,5.4l-3.4,6.5l-12.3,23.6c-9.3,17.9-6.2,30.2,7.7,37.4c7.5,3.9,16.8,4.8,24.5,0.8c5.1-2.5,6.7-5.9,9.2-10.8l15.9-30.5l4-7.9
		l0.8-1.5c3.4-6.6,8.4-15.4,3.5-20.9l0.2-0.6"/>
	<path class="st16" d="M236.8,499.7l1.5,0.7c7.8,3.3,15.9,6.1,24.2,8.4l1.4,0.3v0.5c-7.4-0.9-11.6,7.3-14.7,13.4l-6.3,13.2
		l-14.3,29.9c-15.4,34-47.2,18.4-47.2,18.4c-3.4-0.9-8.6-4.4-11.5-5.9c-8.9-4.6-16.8-12.4-19.4-22.1c-3.1-11.5,1.9-20.4,7-30.1
		l12-23l9.2-17.6c3.2-6.1,9.2-15.4,3.7-21.5l1.7,1.6c6.2,5.5,12.6,10.6,19.5,15.3l1.8,1l-0.2,0.4c-8.1-0.9-12.4,9.3-15.5,15.3
		l-2.8,5.4l-3.4,6.5l-12.3,23.6c-9.3,17.9-6.2,30.2,7.7,37.4c7.5,3.9,16.8,4.8,24.5,0.8c5.1-2.5,6.7-5.9,9.2-10.8l15.9-30.5l4-7.9
		l0.8-1.5c3.4-6.6,8.4-15.4,3.5-20.9l0.2-0.6H236.8z"/>
	<path class="st2" d="M388.4,505.3c10.3-3.9,18.7-7.9,28.1-13.3c0,0,5.6-4.1,14.3-6.4l1.8-0.5c11.1-1.2,19.3,2.9,23.1,11.7
		c4,9.3,0.3,17.2-6.1,24.1c13.7-2.8,27.5,1.2,33.4,14.8c4.7,10.7,1.2,23.1-6.2,31.6c-7.7,9-18.9,13.3-29.3,17.8l-23,9.9l-0.2-0.4
		c5.8-5.7,0.6-15.5-2.2-21.9l-12.1-28l-9.3-22.1c-2.7-6.3-6.1-16.8-14.4-16.4L388.4,505.3"/>
	<path class="st16" d="M388.4,505.3c10.3-3.9,18.7-7.9,28.1-13.3c0,0,5.6-4.1,14.3-6.4l1.8-0.5c11.1-1.2,19.3,2.9,23.1,11.7
		c4,9.3,0.3,17.2-6.1,24.1c13.7-2.8,27.5,1.2,33.4,14.8c4.7,10.7,1.2,23.1-6.2,31.6c-7.7,9-18.9,13.3-29.3,17.8l-23,9.9l-0.2-0.4
		c5.8-5.7,0.6-15.5-2.2-21.9l-12.1-28l-9.3-22.1c-2.7-6.3-6.1-16.8-14.4-16.4L388.4,505.3z"/>
	<path class="st0" d="M452.6,571.1c11.9-3.8,21.1-14.1,15.4-27.3c-5.9-13.5-21.5-13.7-33.4-7.7l-9.5,4.8l14.9,34.4L452.6,571.1"/>
	<path class="st16" d="M452.6,571.1c11.9-3.8,21.1-14.1,15.4-27.3c-5.9-13.5-21.5-13.7-33.4-7.7l-9.5,4.8l14.9,34.4L452.6,571.1z"/>
	<path class="st0" d="M425.8,529.6c9.1-3.9,20.7-12.6,15.7-24c-4.2-9.6-15.2-10.8-23.3-6.3l-8.9,5l11.8,27.3L425.8,529.6"/>
	<path class="st16" d="M425.8,529.6c9.1-3.9,20.7-12.6,15.7-24c-4.2-9.6-15.2-10.8-23.3-6.3l-8.9,5l11.8,27.3L425.8,529.6z"/>
	<path class="st10" d="M379.2,185.2c0,16.9-27.5,30.7-61.4,30.7s-61.4-13.7-61.4-30.7c0-16.9,27.5-30.7,61.4-30.7
		S379.2,168.2,379.2,185.2z"/>
	<path class="st6" d="M378.4,192.7c0.7-8-26.2-13.8-59.4-14.4c-27.4-0.4-60.6,4.2-61.7,14.4"/>
	<path class="st6" d="M302.5,170.6v15.3"/>
	<path class="st6" d="M311.6,170.8v15.3"/>
	<path class="st6" d="M320.2,170.7V186"/>
	<path class="st6" d="M328.1,170.7V186"/>
</g>
</svg>
