<?xml version="1.0" encoding="utf-8"?>
<!-- Generator: Adobe Illustrator 26.0.2, SVG Export Plug-In . SVG Version: 6.00 Build 0)  -->
<svg version="1.1" id="Calque_1" xmlns="http://www.w3.org/2000/svg" xmlns:xlink="http://www.w3.org/1999/xlink" x="0px" y="0px"
	 width="329.8px" height="341.8px" viewBox="0 0 329.8 341.8" style="enable-background:new 0 0 329.8 341.8;" xml:space="preserve"
	>
<style type="text/css">
	.st0{fill:#FFFFFF;}
	.st1{fill:#FEFEFE;}
	.st2{fill:#171D45;}
	.st3{fill:#6FB7E5;}
	.st4{fill:#70B7E5;}
	.st5{fill:#70B7E6;}
	.st6{fill:#FDFEFE;}
	.st7{fill:none;}
	.st8{fill:#171D46;stroke:#171D46;stroke-miterlimit:10;}
	.st9{fill:#171D46;}
	.st10{fill:#6EB6E5;}
	.st11{fill:#FDFDFE;}
</style>
<path class="st0" d="M31,165.4l51.1,124.4l88.6,49.6c0,0,55.4-20.8,89.5-55.3s49-98,49-98L308.8,30L171.2,3L31,30V165.4z"/>
<path class="st1" d="M262.2,117.3c-0.4,0.2-0.8,0.4-1.1,0.6c-1.8,0.9-4.1,0.1-4.7-1.8c-0.2-0.7-0.1-1.4-0.1-2.1
	c0-1.8-1.2-3.2-2.9-3.4c-2-0.2-3.6,0.9-3.8,2.8c-0.1,0.8-0.1,1.6,0,2.4c0.4,2.6,3,5,5.6,5.2C258.5,121.2,261.2,119.9,262.2,117.3
	c0-0.1,0-0.2,0.1-0.3C262.3,117.1,262.3,117.2,262.2,117.3z M263.7,113.9c1.9-1.3,3.3-1.4,4.7-0.3c1.2,0.9,1.3,2.2,1.2,3.6
	c-0.1,2,1.3,3.4,3.2,3.5c2,0.1,3.5-1.3,3.6-3.2c0.2-2.9-1-5.1-3.5-6.4c-2.6-1.4-5.3-1.2-7.6,0.7
	C264.6,112.3,264.2,113.2,263.7,113.9c0,0.1-0.1,0.1-0.1,0.2C263.6,114,263.6,114,263.7,113.9z M261.3,114.9l0.1,0.1
	C261.4,115,261.4,115,261.3,114.9L261.3,114.9c-0.1-0.1-0.2-0.3-0.3-0.4c-0.9-1.1-1.2-2.3-0.5-3.5c0.6-1.2,1.7-1.9,3.1-1.9
	c0.4,0,0.9,0,1.3,0c1.7,0,3.1-1.3,3.3-3c0.2-1.5-1-3-2.6-3.4c-4.8-1.2-9.4,3.2-8.1,8C258,112.6,259.1,114.3,261.3,114.9z
	 M325.2,126.7c-0.4,0.3-0.5,0.4-0.7,0.4c-3.8,2.9-7.9,5.3-12.3,7.2c-12.2,5.5-25.2,7.9-38.5,8.6c-15.8,0.8-31.5-0.8-47-3.9
	c-16.1-3.2-31.7-7.8-47.1-13.5c-4.2-1.6-8.4-3.2-12.4-4.7c-0.2-0.9-0.2-1.6-0.5-2.2c-0.8-1.8-1.7-3.5-2.5-5.3c-0.4-1-1.1-1.5-2-1.9
	c-18.8-7.9-38.3-13.1-58.4-16.3c-10.6-1.7-21.3-2.7-32.1-3c-9.7-0.3-19.4,0-29,0.9c-9.3,0.9-18.5,2.4-27.7,4.5
	c-3.6,0.8-7.1,1.8-10.6,2.7c25.3,70.1,50.5,140,75.7,209.9c2.8-3.3,5.3-6.6,8.1-9.8c7.2-8.2,14.9-15.7,23.3-22.6
	c14.6-12.1,30.6-21.8,48.5-28.2c4.3-1.5,8.6-2.7,13-4.1c0.8,2.1,1.5,4,2.2,5.9c3.8-0.3,7.7-0.6,11.5-1c12.7-1.5,25.1-4,37.4-7.6
	c17.8-5.3,34.5-12.6,49.7-23.3c23.8-16.7,39.8-38.9,47-67.2c1.4-5.6,2.3-11.3,3.3-17C324.8,132.5,324.9,129.7,325.2,126.7z
	 M307.5,134.2c0.7-0.3,1.2-0.5,1.7-0.6c1.3-0.3,1.6-1.1,1.6-2.3c-0.1-10.2-0.2-20.5-0.2-30.7c-0.1-16.3-0.2-32.6-0.2-48.9
	c0-7.3,0-14.6,0-22c0-0.8-0.1-1.3-1.1-1.4c-1.7-0.2-3.4-0.6-5-0.9c-9.5-1.8-19-3.7-28.6-5.5c-12-2.3-24-4.6-36-7
	c-10.1-2-20.3-4-30.4-5.9c-11.5-2.2-23.1-4.5-34.6-6.7c-1.3-0.3-2.7-0.7-4-0.4c-7.3,1.3-14.5,2.8-21.8,4.1
	c-6.8,1.3-13.6,2.6-20.4,3.9c-7.4,1.4-14.8,2.8-22.2,4.2c-6.8,1.3-13.7,2.6-20.5,3.9c-7.8,1.5-15.6,3-23.4,4.5c-5.3,1-10.6,2-15.9,3
	c-5,1-10.1,1.9-15.1,2.9c-0.6,0.1-1,0.4-1,1.2c0,3.2-0.1,6.3-0.1,9.5c-0.1,15.6-0.1,31.3-0.1,46.9c0,2.3,0,4.5,0,6.8
	c6.6-0.7,13.3-1.4,19.9-2.2c0-0.1,0.1-0.3,0.1-0.4c-0.1-8-0.2-15.9-0.2-23.9c-0.1-6.9-0.1-13.8-0.1-20.8c0-0.8,0.4-0.9,1-1
	c3.4-0.6,6.8-1.3,10.2-1.9C74,40.2,87,37.8,99.9,35.3c10.9-2,21.7-4.1,32.6-6.2c11.8-2.2,23.5-4.5,35.3-6.6c1.9-0.4,4-1,5.9-0.7
	c8.8,1.5,17.6,3.3,26.4,5c10.1,2,20.3,3.9,30.4,5.9c11.9,2.3,23.8,4.6,35.7,6.9c8.4,1.6,16.8,3.3,25.1,4.8c1,0.2,1.3,0.5,1.3,1.5
	c-0.1,7.9-0.2,15.8-0.2,23.8c-0.1,8-0.2,16.1-0.2,24.1c-0.1,8.5-0.2,17-0.3,25.4c-0.1,4.2-0.1,8.5-0.2,12.7c0,2.3,0,4.5,0,6.8
	c2.6,0.1,3-0.2,3.1-2.5c0-0.6,0.1-1.1,0.1-1.7c0.1-5.9,0.2-11.8,0.2-17.8c0.1-6.6,0.2-13.1,0.2-19.7c0.1-8.7,0.2-17.4,0.3-26
	c0.1-9.3,0.2-18.6,0.3-27.8c0-0.9-0.1-1.3-1.2-1.5c-4.9-0.9-9.8-1.9-14.7-2.8c-13.3-2.5-26.6-5-39.9-7.5c-10-1.9-20-3.8-30-5.7
	c-12.3-2.3-24.5-4.6-36.8-7c-0.9-0.2-1.4-0.6-1.3-1.6c0.1-3.2,0-6.3,0-9.5c0-0.9,0-1.8,0-3c45,8.8,90,17.6,135,26.3
	C307.2,65.4,307.4,99.7,307.5,134.2z M264.8,116.5c0.2,0.3,0.3,0.5,0.5,0.8c1.1,2.1-0.3,4.6-2.7,4.7c-0.6,0-1.1,0-1.7,0
	c-1.7,0-3.1,1.3-3.2,2.9c-0.1,1.8,1,3.2,2.7,3.6c2.1,0.4,4,0,5.6-1.3c2-1.6,2.8-3.7,2.4-6.2C268.1,119,267,117.3,264.8,116.5z
	 M264.5,116.2L264.5,116.2L264.5,116.2L264.5,116.2z"/>
<path class="st2" d="M325.2,126.7c-0.3,3.1-0.4,5.9-0.9,8.6c-1,5.7-1.9,11.4-3.3,17c-7.2,28.3-23.2,50.5-47,67.2
	c-15.2,10.7-32,18-49.7,23.3c-12.2,3.6-24.7,6.1-37.4,7.6c-3.8,0.4-7.6,0.7-11.5,1c-0.7-2-1.4-3.8-2.2-5.9c-4.4,1.4-8.8,2.6-13,4.1
	c-17.9,6.4-33.9,16.1-48.5,28.2c-8.4,6.9-16.1,14.5-23.3,22.6c-2.8,3.1-5.4,6.4-8.1,9.8C55,240.3,29.8,170.4,4.5,100.3
	c3.5-0.9,7.1-1.9,10.6-2.7c9.1-2.1,18.3-3.6,27.7-4.5c9.6-0.9,19.3-1.2,29-0.9c10.8,0.3,21.5,1.3,32.1,3
	c20.1,3.2,39.6,8.4,58.4,16.3c0.9,0.4,1.6,0.9,2,1.9c0.8,1.8,1.7,3.5,2.5,5.3c0.3,0.6,0.3,1.3,0.5,2.2c4,1.5,8.2,3.1,12.4,4.7
	c15.4,5.6,31,10.3,47.1,13.5c15.5,3.1,31.1,4.7,47,3.9c13.3-0.7,26.2-3.1,38.5-8.6c4.4-1.9,8.5-4.3,12.3-7.2
	C324.7,127,324.8,126.9,325.2,126.7z M319.1,136.1c-0.1,0-0.2,0-0.4-0.1c-1.2,0.9-2.3,1.9-3.6,2.8c-4.2,2.8-8.7,4.8-13.5,6.4
	c-10.7,3.6-21.8,4.9-33,5.2c-14.3,0.3-28.3-1.4-42.3-4.1c-20.4-4-40.2-10.3-59.5-17.8c-0.4-0.2-0.9-0.5-1.1-0.9
	c-1.1-2.5-2.2-5.1-3.2-7.6c-0.4-0.9-0.9-1.4-1.8-1.8c-8.3-3.8-16.9-6.9-25.7-9.5c-19.1-5.7-38.6-9.1-58.6-9.9
	c-11.1-0.5-22.2-0.1-33.3,1.1c-9.7,1.1-19.2,2.8-28.6,5.2c-1,0.3-1.1,0.7-0.8,1.5c0.4,1.2,0.9,2.3,1.3,3.5
	C36.2,167.7,57.4,225.4,78.6,283c1.4,3.8,2.8,7.5,4.1,11.1c1.5-1.6,2.9-3.2,4.5-4.8c8.9-8.8,18.6-16.7,28.9-23.8
	c15.8-10.9,32.6-19.7,51.1-25.2c2.7-0.8,5.5-1.5,8.3-2.3c0.5,1.7,1,3.2,1.5,4.7c0.2,0.7,0.5,0.9,1.2,0.8c1.6-0.2,3.3-0.2,4.9-0.4
	c12.1-1.3,23.9-3.6,35.6-6.9c17.7-5,34.5-12.1,49.7-22.5c23.7-16.1,40.1-37.6,47.7-65.5C317.4,144.2,318.2,140.1,319.1,136.1z"/>
<path class="st3" d="M307.5,134.2c-0.2-34.5-0.3-68.8-0.5-103.2c-45-8.8-90-17.6-135.2-26.4c0,1.2,0,2.1,0,3c0,3.2,0,6.3,0,9.5
	c0,1,0.4,1.5,1.3,1.6c12.3,2.3,24.5,4.6,36.8,7c10,1.9,20,3.8,30,5.7c13.3,2.5,26.6,5,39.9,7.5c4.9,0.9,9.8,1.9,14.7,2.8
	c1,0.2,1.2,0.6,1.2,1.5c-0.1,9.3-0.2,18.6-0.3,27.8c-0.1,8.7-0.2,17.4-0.3,26c-0.1,6.6-0.2,13.1-0.2,19.7
	c-0.1,5.9-0.2,11.8-0.2,17.8c0,0.6-0.1,1.1-0.1,1.7c-0.2,2.4-0.5,2.7-3.1,2.5c0-2.3,0-4.5,0-6.8c0.1-4.2,0.1-8.5,0.2-12.7
	c0.1-8.5,0.2-17,0.3-25.4c0.1-8,0.2-16.1,0.2-24.1c0.1-7.9,0.1-15.8,0.2-23.8c0-1-0.2-1.3-1.3-1.5c-8.4-1.6-16.8-3.2-25.1-4.8
	c-11.9-2.3-23.8-4.6-35.7-6.9c-10.1-2-20.3-3.9-30.4-5.9c-8.8-1.7-17.6-3.5-26.4-5c-1.9-0.3-3.9,0.3-5.9,0.7
	c-11.8,2.2-23.5,4.4-35.3,6.6c-10.9,2.1-21.7,4.1-32.6,6.2c-12.9,2.4-25.9,4.9-38.8,7.3c-3.4,0.6-6.8,1.3-10.2,1.9
	c-0.6,0.1-1,0.3-1,1c0.1,6.9,0.1,13.8,0.1,20.8c0.1,8,0.2,15.9,0.2,23.9c0,0.2,0,0.3-0.1,0.4C43.2,91.3,36.6,92,30,92.8
	c0-2.2,0-4.5,0-6.8c0-15.6,0.1-31.3,0.1-46.9c0-3.2,0.1-6.3,0.1-9.5c0-0.8,0.4-1.1,1-1.2c5-1,10.1-1.9,15.1-2.9c5.3-1,10.6-2,15.9-3
	c7.8-1.5,15.6-3,23.4-4.5c6.8-1.3,13.7-2.6,20.5-3.9c7.4-1.4,14.8-2.8,22.2-4.2c6.8-1.3,13.6-2.6,20.4-3.9
	c7.3-1.4,14.5-2.9,21.8-4.1c1.3-0.2,2.7,0.2,4,0.4c11.6,2.2,23.1,4.4,34.6,6.7c10.1,2,20.3,4,30.4,5.9c12,2.3,24,4.6,36,7
	c9.5,1.8,19,3.7,28.6,5.5c1.7,0.3,3.3,0.7,5,0.9c1,0.1,1.1,0.6,1.1,1.4c0,7.3,0,14.6,0,22c0.1,16.3,0.2,32.6,0.2,48.9
	c0.1,10.2,0.1,20.5,0.2,30.7c0,1.3-0.3,2-1.6,2.3C308.7,133.7,308.2,133.9,307.5,134.2z"/>
<path class="st4" d="M264.8,116.5c2.1,0.8,3.3,2.4,3.6,4.5c0.4,2.5-0.4,4.6-2.4,6.2c-1.7,1.3-3.6,1.8-5.6,1.3
	c-1.7-0.3-2.8-1.8-2.7-3.6c0.1-1.6,1.5-2.9,3.2-2.9c0.6,0,1.1,0.1,1.7,0c2.4-0.2,3.8-2.6,2.7-4.7C265.2,117.1,265,116.8,264.8,116.5
	z"/>
<path class="st5" d="M261.3,114.9c-2.2-0.6-3.2-2.3-3.8-4.2c-1.2-4.7,3.3-9.2,8.1-8c1.6,0.4,2.7,1.9,2.6,3.4c-0.2,1.7-1.6,3-3.3,3
	c-0.4,0-0.9,0-1.3,0c-1.4,0-2.5,0.6-3.1,1.9c-0.7,1.3-0.4,2.5,0.5,3.5C261.1,114.6,261.2,114.8,261.3,114.9L261.3,114.9z"/>
<path class="st4" d="M263.7,113.9c0.5-0.8,0.9-1.7,1.6-2.2c2.3-1.9,5-2.1,7.6-0.7c2.5,1.4,3.7,3.5,3.5,6.4c-0.1,2-1.6,3.3-3.6,3.2
	c-1.9-0.1-3.3-1.5-3.2-3.5c0.1-1.4-0.1-2.6-1.2-3.6C267,112.6,265.5,112.7,263.7,113.9L263.7,113.9z"/>
<path class="st4" d="M262.2,117.3c-1.1,2.6-3.8,3.9-7.1,3.6c-2.6-0.3-5.1-2.6-5.6-5.2c-0.1-0.8-0.1-1.6,0-2.4
	c0.3-1.9,1.8-2.9,3.8-2.8c1.7,0.2,2.9,1.5,2.9,3.4c0,0.7-0.1,1.5,0.1,2.1c0.6,1.9,2.9,2.8,4.7,1.8
	C261.5,117.7,261.9,117.5,262.2,117.3L262.2,117.3z"/>
<path class="st4" d="M262.2,117.3c0-0.1,0-0.2,0.1-0.3C262.3,117.1,262.2,117.2,262.2,117.3L262.2,117.3z"/>
<path class="st4" d="M263.7,113.9c0,0.1-0.1,0.1-0.1,0.2C263.6,114,263.6,114,263.7,113.9L263.7,113.9z"/>
<path class="st5" d="M261.3,114.9h0.1c0,0,0,0,0,0.1C261.3,115,261.3,114.9,261.3,114.9L261.3,114.9z"/>
<path class="st4" d="M264.5,116.2h0.1H264.5z"/>
<path class="st6" d="M319.1,136.1c-0.9,4-1.7,8.1-2.8,12.1c-7.6,27.9-23.9,49.4-47.7,65.5c-15.3,10.3-32.1,17.4-49.7,22.5
	c-11.7,3.3-23.5,5.6-35.6,6.9c-1.6,0.2-3.3,0.2-4.9,0.4c-0.7,0.1-1-0.2-1.2-0.8c-0.4-1.5-0.9-3-1.5-4.7c-2.8,0.8-5.6,1.5-8.3,2.3
	c-18.5,5.5-35.3,14.3-51.1,25.2c-10.3,7.1-20,15.1-28.9,23.8c-1.6,1.6-3,3.2-4.5,4.8c-1.3-3.6-2.7-7.3-4.1-11.1
	c-21.2-57.6-42.4-115.3-63.6-172.9c-0.4-1.2-0.9-2.3-1.3-3.5c-0.3-0.8-0.2-1.3,0.8-1.5c9.4-2.4,19-4.1,28.6-5.2
	c11.1-1.2,22.2-1.6,33.3-1.1c19.9,0.9,39.4,4.2,58.6,9.9c8.8,2.6,17.3,5.7,25.7,9.5c0.9,0.4,1.4,0.9,1.8,1.8c1,2.6,2.1,5.1,3.2,7.6
	c0.2,0.4,0.6,0.8,1.1,0.9c19.4,7.5,39.1,13.8,59.5,17.8c14,2.7,28,4.4,42.3,4.1c11.2-0.2,22.3-1.6,33-5.2c4.7-1.6,9.3-3.5,13.5-6.4
	c1.2-0.8,2.4-1.8,3.6-2.8C318.9,136,319,136,319.1,136.1z M104.1,132.6c-0.1,0.1-0.1,0.3-0.2,0.4c0.3,0.3,0.5,0.6,0.8,0.8
	c2.3,1.9,4.7,3.9,7.1,5.7c1.1,0.9,1.3,1.8,1,3.2c-4,15.9-8,31.8-11.9,47.7c-3,12.1-6.1,24.2-9.1,36.3c-0.4,1.7-0.1,2,1.5,1.8
	c4.4-0.5,8.9-0.9,13.3-1.3c2.6-0.3,5.2-0.6,7.7-0.9c0.9-0.1,1.4-0.5,1.6-1.5c1-4.3,2.1-8.6,3.1-12.9c0.2-1,0.8-1.5,1.8-1.5
	c5.7-0.3,11.4-0.6,17.1-1c4.1-0.3,8.2-0.6,12.3-0.9c1.2-0.1,2.1,0.2,2.7,1.3c1.8,3.3,3.7,6.6,5.5,9.9c1.1,2,1.4,2.1,3.6,1.8
	c2.8-0.4,5.6-0.6,8.4-0.9c0.7-0.1,1.1,0.2,1.3,0.9c2.3,6.3,4.6,12.6,6.8,18.9c0.3,0.8,0.6,1,1.4,0.9c4.9-0.6,9.8-1,14.7-1.8
	c9.5-1.5,18.9-3.7,28.1-6.6c16.6-5.1,32.4-12.2,46.7-22.2c9-6.3,17.1-13.5,24.1-22c9.2-11.2,15.9-23.8,20.1-37.7
	c1-3.4,1.9-6.9,2.8-10.4c-0.1-0.1-0.2-0.1-0.3-0.2c-0.3,0.2-0.6,0.4-1,0.6c-2.3,1.2-4.6,2.5-6.9,3.5c-11.4,5-23.5,6.9-35.8,7.4
	c-7.6,0.3-15.2,0.3-22.7-0.7c-6.8-0.8-13.6-1.6-20.3-2.8c-14.7-2.6-29-6.5-43.2-11.3c-7.1-2.4-14.1-5.1-21.2-7.6
	c-0.6-0.2-1.1-0.4-0.9-1.2c0.1-0.3-0.1-0.8-0.3-1.1c-0.8-2-1.7-3.9-2.4-5.9c-0.4-1-1.1-1.7-2.1-2.1c-8.4-3.7-17-6.8-25.8-9.4
	c-1.4-0.4-2.7-0.8-4.1-1.1c0,0.3,0,0.4,0,0.4c3.5,9.4,7.1,18.7,10.6,28.1c0.3,0.8,0.9,0.9,1.6,1c1.3,0.1,2.5,0.2,3.8,0.4
	c5,0.5,9.9,1.1,14.9,1.6c3.8,0.4,7.6,0.7,11.4,1.3c14,2.2,23.1,12.4,25.4,26.6c0.5,3.3,0,6.6-2.6,9.1c-0.1,0.1-0.1,0.2-0.1,0.5
	c0.5,0.2,1,0.3,1.4,0.5c2.2,1,4.6,1.7,6.6,3c5.7,3.5,8.6,9.1,10.4,15.3c0.9,2.9,1.2,6,0.6,9c-1,5.5-4.7,8.6-9.7,10.4
	c-4.8,1.7-9.8,1.8-14.7,2.4c-5.6,0.6-11.2,1.1-16.8,1.7c-0.7,0.1-1.1-0.1-1.3-0.8c-6.1-16.1-12.1-32.3-18.3-48.4
	c-2-5.3-3.6-10.9-6.5-15.9c-3.2-5.6-6.1-11.4-9.2-17.1c-0.6-1-1.3-1.8-2.5-2c-2.8-0.3-5.6-0.6-8.4-1c-5.5-0.6-11-1.3-16.5-1.9
	C107.6,132.8,105.9,132.7,104.1,132.6z M178.1,186.8c0,0.1,0,0.2,0,0.3c-0.4,0-0.8,0-1.2,0c-1.9,0-2,0.2-1.4,1.9
	c1.2,3.6,2.5,7.2,3.7,10.9c1.1,3.2,1.1,3.3,4.4,3.1c2.5-0.2,5.1-0.5,7.6-1c2.6-0.5,3.9-2.2,4-4.3c0.3-4.7-3.6-9.5-8.3-10.1
	C184,187.2,181,187.1,178.1,186.8z M173.4,171.8c0.9,0,1.8,0.1,2.8,0c3-0.2,4.6-2,4.2-4.9c-0.5-4.2-2.8-7.3-6.8-9
	c-2.4-1-4.8-1.3-7.4-1.3c-1.5,0-1.7,0.2-1.2,1.6c1.1,3.4,2.3,6.8,3.5,10.2S169.8,171.8,173.4,171.8z"/>
<path class="st7" d="M171.5,289.4c8.1,0.4,16.2,1.2,24.3,2.6c8.6,1.4,17.2,3,25.6,5.7c1.1,0.4,2.3,0.7,3.4,1c0-0.1,0.1-0.3,0.1-0.4
	c-6.2-2.4-12.6-4.2-19-5.7c-27.7-6.6-55.8-8.3-84.4-5.2c1.3,1,2.4,2.1,3.7,2.8c0.6,0.3,1.5,0,2.3-0.1c0.9-0.1,1.7-0.2,2.6-0.2
	c5.1-0.3,10.2-0.9,15.3-0.9C154.1,288.9,162.8,289,171.5,289.4z"/>
<path class="st8" d="M128.7,70.1h-5l-2-5.2h-9.2l-1.9,5.2h-4.9l8.9-22.9h4.9L128.7,70.1z M120.2,61.1l-3.2-8.5l-3.1,8.5H120.2z"/>
<path class="st8" d="M137.8,70.1l-8.2-22.9h5l5.8,17l5.6-17h4.9l-8.2,22.9H137.8z"/>
<path class="st8" d="M156.4,70.1V47.2h4.6v22.9H156.4z"/>
<path class="st8" d="M168.6,70.1V47.2h9.7c2.4,0,4.2,0.2,5.3,0.6c1.1,0.4,2,1.1,2.7,2.2c0.7,1.1,1,2.3,1,3.6c0,1.7-0.5,3.1-1.5,4.3
	c-1,1.1-2.5,1.8-4.5,2.1c1,0.6,1.8,1.2,2.5,1.9s1.5,1.9,2.6,3.7l2.8,4.5h-5.5l-3.3-5c-1.2-1.8-2-2.9-2.4-3.4s-0.9-0.8-1.4-1
	s-1.3-0.3-2.3-0.3h-0.9V70L168.6,70.1L168.6,70.1z M173.2,56.9h3.4c2.2,0,3.6-0.1,4.2-0.3c0.6-0.2,1-0.5,1.3-1s0.5-1,0.5-1.7
	c0-0.8-0.2-1.4-0.6-1.9c-0.4-0.5-1-0.8-1.7-0.9c-0.4-0.1-1.5-0.1-3.4-0.1h-3.6L173.2,56.9L173.2,56.9z"/>
<path class="st8" d="M194,58.8c0-2.3,0.3-4.3,1-5.9c0.5-1.2,1.2-2.2,2.1-3.1c0.9-0.9,1.9-1.6,3-2.1c1.4-0.6,3.1-0.9,4.9-0.9
	c3.4,0,6.1,1,8.1,3.1s3,5,3,8.7s-1,6.6-3,8.7s-4.7,3.1-8.1,3.1c-3.4,0-6.1-1-8.1-3.1S194,62.5,194,58.8z M198.7,58.7
	c0,2.6,0.6,4.6,1.8,5.9c1.2,1.3,2.7,2,4.6,2s3.4-0.7,4.5-2s1.8-3.3,1.8-6c0-2.6-0.6-4.6-1.7-5.9c-1.2-1.3-2.7-1.9-4.6-1.9
	s-3.4,0.7-4.6,2C199.3,54.1,198.7,56,198.7,58.7z"/>
<path class="st8" d="M223,70.1V47.2h4.5l9.4,15.3V47.2h4.3v22.9h-4.6l-9.2-14.9v14.9H223z"/>
<path class="st9" d="M106.1,77.8h3.7c0.7,0,1.3,0,1.6,0.1c0.4,0.1,0.7,0.2,1,0.4c0.3,0.2,0.5,0.5,0.7,0.8s0.3,0.7,0.3,1.1
	s-0.1,0.8-0.4,1.2c-0.2,0.4-0.6,0.6-1,0.8c0.6,0.2,1,0.4,1.3,0.8s0.5,0.9,0.5,1.4c0,0.4-0.1,0.8-0.3,1.2c-0.2,0.4-0.5,0.7-0.8,1
	c-0.3,0.2-0.8,0.4-1.3,0.4c-0.3,0-1.1,0.1-2.3,0.1h-3.2v-9.3H106.1z M108,79.4v2.2h1.2c0.7,0,1.2,0,1.4,0c0.3,0,0.6-0.1,0.8-0.3
	c0.2-0.2,0.3-0.4,0.3-0.7c0-0.3-0.1-0.5-0.2-0.7c-0.2-0.2-0.4-0.3-0.7-0.3c-0.2,0-0.7,0-1.6,0H108V79.4z M108,83.1v2.5h1.7
	c0.7,0,1.1,0,1.3-0.1c0.3-0.1,0.5-0.2,0.7-0.4c0.2-0.2,0.3-0.5,0.3-0.8s-0.1-0.5-0.2-0.7s-0.3-0.3-0.6-0.4c-0.3-0.1-0.8-0.1-1.7-0.1
	H108z"/>
<path class="st9" d="M131.6,87.1h-2l-0.8-2.1h-3.7l-0.8,2.1h-2l3.6-9.3h2L131.6,87.1z M128.2,83.5l-1.3-3.5l-1.3,3.5H128.2z"/>
<path class="st9" d="M141.7,87.1v-3.9l-3.4-5.4h2.2l2.2,3.7l2.1-3.7h2.2l-3.4,5.4v3.9H141.7z"/>
<path class="st9" d="M155.3,82.5c0-0.9,0.1-1.7,0.4-2.4c0.2-0.5,0.5-0.9,0.9-1.3s0.8-0.7,1.2-0.8c0.6-0.2,1.2-0.4,2-0.4
	c1.4,0,2.5,0.4,3.3,1.3s1.2,2,1.2,3.5s-0.4,2.7-1.2,3.5s-1.9,1.3-3.3,1.3c-1.4,0-2.5-0.4-3.3-1.3C155.8,85.2,155.3,84,155.3,82.5z
	 M157.3,82.5c0,1.1,0.2,1.9,0.7,2.4s1.1,0.8,1.9,0.8s1.4-0.3,1.8-0.8c0.5-0.5,0.7-1.3,0.7-2.4s-0.2-1.9-0.7-2.4s-1.1-0.8-1.9-0.8
	s-1.4,0.3-1.9,0.8C157.5,80.6,157.3,81.4,157.3,82.5z"/>
<path class="st9" d="M173.7,87.1v-9.3h1.8l3.8,6.2v-6.2h1.7v9.3h-1.9l-3.8-6.1v6.1H173.7z"/>
<path class="st9" d="M190.8,87.1v-9.3h1.8l3.8,6.2v-6.2h1.7v9.3h-1.9l-3.8-6.1v6.1H190.8z"/>
<path class="st9" d="M216.4,87.1h-2l-0.8-2.1h-3.7l-0.8,2.1h-2l3.6-9.3h2L216.4,87.1z M212.9,83.5l-1.3-3.5l-1.3,3.5H212.9z"/>
<path class="st9" d="M225.1,87.1v-9.3h1.9v9.3H225.1z"/>
<path class="st9" d="M236.1,84.1l1.8-0.2c0.1,0.6,0.3,1.1,0.7,1.4c0.3,0.3,0.8,0.4,1.4,0.4c0.6,0,1.1-0.1,1.4-0.4
	c0.3-0.3,0.5-0.6,0.5-0.9c0-0.2-0.1-0.4-0.2-0.6c-0.1-0.2-0.4-0.3-0.7-0.4c-0.2-0.1-0.7-0.2-1.5-0.4c-1-0.2-1.7-0.6-2.1-0.9
	c-0.6-0.5-0.9-1.1-0.9-1.9c0-0.5,0.1-0.9,0.4-1.3c0.3-0.4,0.7-0.7,1.2-0.9s1.1-0.3,1.8-0.3c1.2,0,2,0.3,2.6,0.8s0.9,1.2,0.9,2.1
	l-1.9,0.1c-0.1-0.5-0.3-0.8-0.5-1c-0.3-0.2-0.7-0.3-1.2-0.3s-1,0.1-1.3,0.3c-0.2,0.1-0.3,0.3-0.3,0.6c0,0.2,0.1,0.4,0.3,0.6
	s0.8,0.4,1.7,0.6s1.6,0.4,2,0.7c0.4,0.2,0.8,0.5,1,0.9s0.4,0.9,0.4,1.5c0,0.5-0.1,1-0.4,1.5c-0.3,0.5-0.7,0.8-1.3,1
	c-0.5,0.2-1.2,0.3-2,0.3c-1.2,0-2.1-0.3-2.7-0.8C236.6,85.9,236.3,85.1,236.1,84.1z"/>
<path class="st10" d="M104.1,132.6c1.7,0.1,3.5,0.2,5.2,0.4c5.5,0.6,11,1.2,16.5,1.9c2.8,0.3,5.6,0.6,8.4,1c1.2,0.1,2,0.9,2.5,2
	c3,5.7,6,11.5,9.2,17.1c2.9,5,4.4,10.6,6.5,15.9c6.2,16.1,12.2,32.3,18.3,48.4c0.3,0.7,0.6,0.9,1.3,0.8c5.6-0.6,11.2-1,16.8-1.7
	c4.9-0.6,10-0.7,14.7-2.4c5-1.8,8.7-4.9,9.7-10.4c0.5-3,0.2-6.1-0.6-9c-1.8-6.2-4.7-11.8-10.4-15.3c-2-1.3-4.4-2-6.6-3
	c-0.5-0.2-1-0.3-1.4-0.5c0.1-0.2,0-0.4,0.1-0.5c2.7-2.5,3.2-5.8,2.6-9.1c-2.3-14.3-11.4-24.4-25.4-26.6c-3.8-0.6-7.6-0.9-11.4-1.3
	c-5-0.5-9.9-1.1-14.9-1.6c-1.3-0.1-2.5-0.2-3.8-0.4c-0.7-0.1-1.3-0.1-1.6-1c-3.5-9.4-7.1-18.8-10.6-28.1c0-0.1,0-0.2,0-0.4
	c1.4,0.4,2.8,0.7,4.1,1.1c8.8,2.6,17.4,5.6,25.8,9.4c1,0.5,1.7,1.1,2.1,2.1c0.8,2,1.6,3.9,2.4,5.9c0.2,0.4,0.4,0.8,0.3,1.1
	c-0.2,0.8,0.3,1,0.9,1.2c7.1,2.5,14.1,5.2,21.2,7.6c14.1,4.8,28.5,8.7,43.2,11.3c6.7,1.2,13.5,1.9,20.3,2.8c7.6,0.9,15.2,1,22.7,0.7
	c12.3-0.5,24.4-2.4,35.8-7.4c2.4-1,4.6-2.4,6.9-3.5c0.3-0.2,0.7-0.4,1-0.6c0.1,0.1,0.2,0.1,0.3,0.2c-0.9,3.5-1.8,6.9-2.8,10.4
	c-4.2,13.9-10.9,26.5-20.1,37.7c-7,8.5-15.1,15.8-24.1,22c-14.3,10-30,17-46.7,22.2c-9.2,2.8-18.6,5-28.1,6.6
	c-4.9,0.8-9.8,1.2-14.7,1.8c-0.7,0.1-1.1-0.1-1.4-0.9c-2.2-6.3-4.5-12.6-6.8-18.9c-0.2-0.7-0.6-1-1.3-0.9c-2.8,0.3-5.6,0.5-8.4,0.9
	c-2.2,0.3-2.5,0.2-3.6-1.8c-1.8-3.3-3.7-6.6-5.5-9.9c-0.6-1.1-1.5-1.4-2.7-1.3c-4.1,0.3-8.2,0.6-12.3,0.9c-5.7,0.4-11.4,0.7-17.1,1
	c-1,0.1-1.6,0.5-1.8,1.5c-1,4.3-2.1,8.6-3.1,12.9c-0.2,0.9-0.6,1.4-1.6,1.5c-2.6,0.3-5.2,0.6-7.7,0.9c-4.4,0.5-8.9,0.9-13.3,1.3
	c-1.6,0.2-1.9-0.1-1.5-1.8c3-12.1,6.1-24.2,9.1-36.3c4-15.9,7.9-31.8,11.9-47.7c0.3-1.3,0.1-2.3-1-3.2c-2.4-1.9-4.7-3.8-7.1-5.7
	c-0.3-0.2-0.5-0.5-0.8-0.8C104,132.8,104.1,132.7,104.1,132.6z M142.9,191.9c-0.3-0.7-0.4-1.1-0.6-1.6c-4.5-8.4-9-16.8-13.5-25.1
	c-0.2-0.3-0.5-0.6-0.9-1.1c-0.2,0.8-0.3,1.2-0.4,1.7c-1.4,8.3-2.9,16.7-4.3,25c-0.2,1.5-0.1,1.7,1.4,1.7c5.5-0.1,11-0.2,16.4-0.3
	C141.5,192.1,142,192,142.9,191.9z"/>
<path class="st3" d="M178.1,186.8c3,0.3,5.9,0.4,8.9,0.8c4.7,0.6,8.5,5.3,8.3,10.1c-0.1,2.1-1.5,3.7-4,4.3c-2.5,0.5-5,0.8-7.6,1
	c-3.3,0.2-3.3,0.1-4.4-3.1c-1.2-3.6-2.5-7.2-3.7-10.9c-0.6-1.8-0.5-1.9,1.4-1.9c0.4,0,0.8,0,1.2,0
	C178.1,187,178.1,186.9,178.1,186.8z"/>
<path class="st3" d="M173.4,171.8c-3.6,0-3.7,0-4.9-3.4s-2.4-6.8-3.5-10.2c-0.5-1.4-0.3-1.6,1.2-1.6c2.5,0,5,0.3,7.4,1.3
	c4,1.6,6.3,4.7,6.8,9c0.4,3-1.2,4.7-4.2,4.9C175.2,171.8,174.3,171.8,173.4,171.8z"/>
<path class="st11" d="M142.9,191.9c-0.8,0.1-1.4,0.2-1.9,0.2c-5.5,0.1-11,0.2-16.4,0.3c-1.5,0-1.7-0.2-1.4-1.7
	c1.4-8.3,2.9-16.7,4.3-25c0.1-0.5,0.2-0.9,0.4-1.7c0.4,0.5,0.7,0.7,0.9,1.1c4.5,8.4,9,16.7,13.5,25.1
	C142.5,190.7,142.6,191.2,142.9,191.9z"/>
<path class="st3" d="M308.9,186.2c-1.1,1.6-2.2,3.2-3.3,4.9c-0.3,0.5-0.5,1-0.6,1.5c-2.8,14.8-7.5,29-14,42.5
	c-10.1,21.3-24,39.9-41.3,55.9c-7.8,7.2-16,13.7-24.8,19.6c-15.3,10.3-31.7,18.5-48.9,25.3c-1.2,0.5-2.4,0.9-3.8,1.4
	c0-0.6-0.1-0.9-0.1-1.3c0-4,0-8,0-12c0-0.9,0.4-1.2,1.1-1.5c6.4-2.6,13-5,19.3-7.9c15.4-7.2,29.5-16.3,42.5-27.2
	c9.7-8.2,18.5-17.3,26.2-27.4c9.4-12.2,16.8-25.5,22.3-39.9c0.9-2.4,1.8-4.8,2.7-7.3c-1.3,0.8-2.5,1.7-3.6,2.7
	c-0.5,0.5-1,1.1-1.3,1.8c-3.3,8.8-7.3,17.2-12.1,25.3c-5.4,9.1-11.6,17.5-18.6,25.4c-5.9,6.6-12.3,12.7-19.1,18.4
	c-0.6,0.5-1,0.5-1.6,0c-2.4-1.9-4.7-3.9-7.3-5.5c-7.3-4.6-14.6-9.3-22.2-13.6c-11.5-6.6-23.6-12.1-36.2-16.3c-0.5-0.2-1.3-0.2-1.8,0
	c-3.4,1.3-6.8,2.5-10.2,3.9c-2.7,1.1-5.3,2.4-7.9,3.6c14.6,2.4,28.6,6.5,42.1,12.1c13.5,5.6,26.7,12,38.5,20.8
	c-0.6,0.1-1.1,0-1.6-0.2c-4.7-2.3-9.4-4.9-14.2-7c-13.1-5.7-26.6-10.1-40.5-13.2c-6.7-1.5-13.5-2.7-20.2-3.6
	c-5.2-0.7-10.5-0.9-15.7-1.4c-1.1-0.1-2,0.2-2.9,0.8c-2.3,1.6-4.6,3.1-6.8,4.7c-1.7,1.2-3.4,2.5-5.3,3.9c17.8-0.6,35.2,0.3,52.4,3.8
	c17.2,3.4,33.8,8.3,49.6,16.1c-0.5,0.1-0.9,0.1-1.4-0.1c-3.7-1.4-7.3-3-11-4.3c-12.2-4.2-24.8-7.1-37.5-9.2
	c-9.5-1.6-19.1-2.7-28.7-2.9c-8.4-0.2-16.9,0.2-25.3,0.4c-1.3,0-2.8,0.1-3.7,0.9c-4.1,3.4-8,7-11.9,10.6c-2.2,2-4.1,4.2-6.5,6.6
	c6.4,4.7,12.4,9.5,18.8,13.9c17.7,12.1,36.8,21.5,57,28.8c0.6,0.2,1.5,0.2,2.2,0c14.9-5.5,29.3-12.2,43-20.3
	c15.1-8.9,29-19.3,41.6-31.6c7-6.8,13.4-14.2,19.2-22c9.1-12.3,16.6-25.4,22.4-39.6c4.9-11.9,8.4-24.1,10.7-36.7
	c0.2-1.2,0.4-2.5,0.6-3.8C309,186.1,308.9,186.1,308.9,186.2z M117.5,290.1c-0.8,0.1-1.7,0.4-2.3,0.1c-1.3-0.7-2.4-1.8-3.7-2.8
	c28.6-3.1,56.7-1.4,84.4,5.2c6.5,1.5,12.9,3.3,19,5.7c0,0.1-0.1,0.3-0.1,0.4c-1.1-0.3-2.3-0.7-3.4-1c-8.3-2.7-16.9-4.2-25.6-5.7
	c-8-1.4-16.1-2.2-24.3-2.6c-8.7-0.4-17.4-0.5-26.1-0.4c-5.1,0-10.2,0.6-15.3,0.9C119.2,289.9,118.4,290,117.5,290.1z M129,299.6
	c-0.3,0-0.7,0-0.9-0.2c-1.2-0.7-2.3-1.5-3.5-2.3c28.6-2.9,56.9-1.7,84.9,4.6c0,0.1,0,0.3,0,0.4c-0.4,0-0.8,0.2-1.2,0.1
	c-7.9-1.9-16-2.8-24.1-3.6c-9.4-0.8-18.7-1.1-28.1-0.8c-7.5,0.2-15.1,0.9-22.6,1.4C132,299.3,130.5,299.5,129,299.6z M139.6,306.4
	c-0.9-0.6-1.9-1.1-2.9-1.8c11.2-1.4,22.5-2.2,33.8-2.2c11.4,0,22.6,0.8,33.9,2.4c0,0.1,0.1,0.2,0.1,0.3c-0.5,0.2-1.1,0.5-1.6,0.5
	c-6.8-0.8-13.7-1-20.6-0.9c-6.3,0.1-12.5,0.2-18.8,0.6c-6.7,0.5-13.3,1.3-20,2.1C142.1,307.5,140.8,307.1,139.6,306.4z M153.2,313.3
	c-1-0.5-2-1-3-1.4c0-0.1,0-0.2,0.1-0.3c15.6-2.4,31.2-3.2,46.9-2.8c0,0.2,0.1,0.3,0.1,0.5c-0.8,0.2-1.6,0.5-2.4,0.6
	c-7.4,0.5-14.9,0.7-22.3,1.4c-5.6,0.5-11.1,1.6-16.7,2.5C154.9,313.7,154.1,313.7,153.2,313.3z M169.3,319.7
	c-2.3-0.9-4.7-1.7-7.1-2.6c8.5-2.1,17-3.2,25.6-3.6c-0.7,0.3-1.4,0.7-2.2,1c-4.4,1.7-8.8,3.4-13.3,5.2
	C171.4,320.2,170.4,320.1,169.3,319.7z"/>
</svg>
