<?xml version="1.0" encoding="utf-8"?>
<!-- Generator: Adobe Illustrator 26.0.2, SVG Export Plug-In . SVG Version: 6.00 Build 0)  -->
<svg version="1.1"
	 id="Layer_1" xmlns:cc="http://creativecommons.org/ns#" xmlns:dc="http://purl.org/dc/elements/1.1/" xmlns:inkscape="http://www.inkscape.org/namespaces/inkscape" xmlns:rdf="http://www.w3.org/1999/02/22-rdf-syntax-ns#" xmlns:sodipodi="http://sodipodi.sourceforge.net/DTD/sodipodi-0.dtd" xmlns:svg="http://www.w3.org/2000/svg"
	 xmlns="http://www.w3.org/2000/svg" xmlns:xlink="http://www.w3.org/1999/xlink" x="0px" y="0px" width="485px" height="600px"
	 viewBox="0 0 485 600" style="enable-background:new 0 0 485 600;" xml:space="preserve">
<style type="text/css">
	.st0{fill:#36255C;}
	.st1{fill:#E92A28;}
	.st2{fill-rule:evenodd;clip-rule:evenodd;fill:url(#path16_00000032640942079287975760000000152648367751786374_);}
	.st3{fill-rule:evenodd;clip-rule:evenodd;fill:url(#path23_00000092414367466339849660000003991781407266372265_);}
	.st4{fill-rule:evenodd;clip-rule:evenodd;fill:url(#path30_00000075856887863588417130000004786424145236427427_);}
	.st5{fill-rule:evenodd;clip-rule:evenodd;fill:url(#path103_00000119800754937238948230000010769214146054367131_);}
</style>
<sodipodi:namedview  bordercolor="#666666" borderopacity="1" gridtolerance="10" guidetolerance="10" id="namedview59" inkscape:current-layer="Layer_1" inkscape:cx="70" inkscape:cy="86.625" inkscape:pageopacity="0" inkscape:pageshadow="2" inkscape:window-height="691" inkscape:window-maximized="1" inkscape:window-width="1280" inkscape:window-x="0" inkscape:window-y="1" inkscape:zoom="1.0629241" objecttolerance="10" pagecolor="#ffffff" showgrid="false">
	</sodipodi:namedview>
<g id="g4195" transform="matrix(3.4632384,0,0,3.4632384,-3.4485338e-5,-3.3e-4)">
	<polygon id="polygon3" class="st0" points="110.5,124.1 110.5,158.9 118.4,158.9 118.4,150 131.4,150 131.4,158.9 139.3,158.9 
		139.3,124.1 131.4,124.1 131.4,142.6 118.4,142.6 118.4,124.1 	"/>
	<path id="path5" inkscape:connector-curvature="0" class="st0" d="M83,144.6h9.9c2.6,0,4,1.3,4,3.6c0,2.3-1.5,3.7-4,3.7H83V144.6z
		 M92.5,137.7H83V131h9.4c1.5,0,4,0.4,4,3.4C96.5,137.3,94,137.7,92.5,137.7L92.5,137.7z M100.2,141c1.9-1.4,3.7-3.6,3.7-6.8
		c0-6.1-4.3-10.1-11-10.1H75.6v34.8h17.8c6.7,0,11-4.1,11-10.4C104.4,145.2,102.7,142.7,100.2,141L100.2,141z"/>
	<path id="path7" inkscape:connector-curvature="0" class="st1" d="M59.4,137.5h-6.2l-0.2,0c-1.6,0-2.9-1.3-2.9-2.9
		c0-1.6,1.3-2.8,2.9-2.8h14.1v-7.8H53c-5.9,0-10.6,4.8-10.6,10.7c0,5.9,4.8,10.6,10.6,10.6h6.2l0.2,0c1.6,0,2.9,1.3,2.9,2.9
		c0,1.6-1.3,2.8-2.9,2.8H43.6v7.8h15.8c5.9,0,10.6-4.8,10.6-10.7C70.1,142.3,65.3,137.5,59.4,137.5L59.4,137.5z"/>
	<path id="path9" inkscape:connector-curvature="0" class="st1" d="M18.3,123.6c-9.8,0-17.8,8-17.8,17.8v17.5h9.1v-8.1H21V145H9.6
		v-3.6c0-4.8,3.9-8.7,8.7-8.7c4.8,0,8.7,3.9,8.7,8.7v17.5h9.1v-17.5C36.1,131.6,28.1,123.6,18.3,123.6L18.3,123.6z"/>
</g>
<g id="g4189" transform="matrix(3.4632384,0,0,3.4632384,-3.4485338e-5,-3.3e-4)">
	
		<linearGradient id="path16_00000027571087624784237500000015884334379020849087_" gradientUnits="userSpaceOnUse" x1="114.3412" y1="68.1375" x2="9.3312" y2="373.1154" gradientTransform="matrix(1.5486 0 0 -1.5486 -69.1582 218.2401)">
		<stop  offset="0" style="stop-color:#0C004F"/>
		<stop  offset="1" style="stop-color:#FE0806"/>
	</linearGradient>
	
		<path id="path16" inkscape:connector-curvature="0" style="fill-rule:evenodd;clip-rule:evenodd;fill:url(#path16_00000027571087624784237500000015884334379020849087_);" d="
		M99.7,70.6L99.7,70.6c0-0.8,0.1-1.6,0.1-2.4v0c0.1-2,0-4.1-0.1-6.1v0c-0.1-1.4-0.2-2.8-0.3-4.1c-0.1-1.4-0.3-2.9-0.5-4.2
		c-0.2-1-0.3-2.1-0.6-3.1c-0.3-1.7-0.8-3.3-1.2-4.9c-0.7-2.3-1.5-4.4-2.4-6.3c-1.4-2.9-3-5.6-4.9-8.1c-1.9-2.5-3.9-4.9-6.1-7.1
		c-2.8-2.8-5.9-5.3-9.2-7.5c-0.2-0.1-0.3-0.2-0.5-0.3C65.9,11,56.9,7.6,48.6,6.6h0c-1.7-0.2-3.4-0.3-5-0.4h0c-0.5,0-0.9,0-1.4,0h0
		c-0.9,0-1.8,0.1-2.7,0.2c0.1,0,0.1-0.1,0.2-0.1h0v0l0,0h0v0l0,0h0v0c0.1,0,0.1-0.1,0.2-0.1h0v0l0,0h0v0l0,0h0v0l0,0h0v0l0,0h0v0
		l0,0h0v0l0,0h0v0c0,0,0.1,0,0.1-0.1h0v0l0,0h0v0l0,0h0v0l0,0h0v0l0,0h0v0l0,0h0v0l0,0h0v0c0.2-0.1,0.5-0.2,0.7-0.3h0v0l0,0h0v0l0,0
		h0v0l0,0h0v0l0,0h0v0l0,0h0v0l0,0h0v0l0,0h0v0l0,0h0v0l0,0l0.1-0.1h0v0l0,0h0v0l0,0h0v0l0,0h0v0l0,0h0v0C41.9,5.1,42,5.1,42.2,5h0
		v0l0,0h0v0l0.1-0.1h0v0l0,0h0v0l0,0l0.1,0h0v0l0,0h0v0l0,0l0,0h0v0l0,0h0v0l0,0h0v0l0.1,0h0v0l0,0h0v0l0,0l0,0h0v0l0,0h0v0l0,0h0v0
		l0.1,0h0v0l0,0h0v0c0.1,0,0.2-0.1,0.3-0.1h0v0l0.1,0h0v0l0.1,0h0v0l0.1,0h0v0l0,0h0v0l0,0h0v0l0,0h0v0l0,0h0v0l0,0h0v0l0,0h0v0l0,0
		h0v0l0,0h0v0l0,0h0v0l0,0h0v0l0,0h0v0l0,0h0v0l0,0l0,0h0v0l0.1,0h0v0l0.1,0h0v0C44.5,4,44.6,4,44.6,4h0l0.1-0.1l0,0h0v0l0.1,0l0,0
		h0v0l0,0h0v0l0,0h0v0l0,0h0v0l0,0h0v0l0,0h0v0l0,0h0v0l0,0h0v0l0,0h0v0l0,0h0v0l0,0h0v0l0,0h0v0l0,0l0,0h0v0l0,0h0v0l0,0h0v0
		c0.1,0,0.2-0.1,0.3-0.1h0l0.1,0h0v0l0.1,0h0v0l0,0h0v0l0,0h0v0l0,0h0v0l0,0h0v0l0,0h0v0l0.1,0h0v0l0.1,0h0l0.1,0h0v0l0,0h0v0l0,0h0
		v0l0,0h0v0l0,0h0v0l0,0h0v0l0,0h0v0l0,0h0v0l0.1,0h0c0.1,0,0.1,0,0.2-0.1h0v0l0,0h0v0c0.1,0,0.1,0,0.2-0.1h0v0l0.1,0h0v0l0,0h0v0
		l0.1,0h0v0l0,0h0v0l0.1,0h0v0l0,0h0v0l0,0h0v0l0.1,0h0v0l0,0h0v0l0.1,0h0v0l0,0h0v0l0.1,0h0v0l0,0h0v0l0.1,0h0v0l0.1,0h0l0.1,0h0v0
		l0.1,0h0v0c0.1,0,0.1,0,0.2-0.1h0v0l0.1,0h0v0c0.1,0,0.1,0,0.2,0h0v0l0.1,0h0v0l0.1,0h0v0l0.1,0h0v0l0.1,0h0v0l0.1,0h0v0l0.1,0h0v0
		l0.1,0h0v0l0.1,0h0v0l0.1,0h0v0l0.1,0h0v0l0.1,0h0v0l0.1,0h0v0c0.1,0,0.3-0.1,0.4-0.1h0v0l0.1,0h0l0.1,0h0v0l0.1,0h0v0l0.1,0h0v0
		l0.1,0h0v0l0.1,0h0v0l0.1,0h0v0l0.1,0h0v0l0.1,0h0v0l0.1,0h0v0l0.1,0h0v0l0.1,0h0v0l0.1,0h0v0C51.4,2,51.5,2,51.6,2h0v0l0.1,0h0v0
		l0.1,0h0v0l0.1,0h0v0l0.1,0h0v0l0.1,0h0v0l0.1,0h0v0l0.1,0h0v0l0.1,0h0v0l0.1,0h0v0c0.1,0,0.1,0,0.2,0h0v0c0.1,0,0.3,0,0.4-0.1h0v0
		l0.1,0h0v0l0.1,0h0v0l0.1,0h0v0l0.1,0h0v0l0.1,0h0v0l0.1,0h0v0l0.1,0h0v0l0.1,0h0v0c0.2,0,0.3,0,0.5-0.1h0v0l0.1,0h0v0l0.1,0h0v0
		l0.1,0h0v0l0.1,0h0v0l0.1,0h0v0l0.1,0h0v0l0.1,0h0v0c0.1,0,0.3,0,0.4,0h0c0.1,0,0.1,0,0.2,0h0v0c0,0,0.1,0,0.1,0h0v0
		c0,0,0.1,0,0.1,0h0v0c0,0,0.1,0,0.1,0h0v0l0.1,0h0v0c0.1,0,0.1,0,0.2,0h0v0c0.1,0,0.3,0,0.4,0h0v0c0.1,0,0.1,0,0.2,0h0v0l0.2,0h0.1
		v0c0.1,0,0.1,0,0.2,0H58v0c0.1,0,0.1,0,0.2,0h0v0c0.2,0,0.4,0,0.6,0h0.1v0c0.1,0,0.2,0,0.3,0h0.1v0c0.1,0,0.2,0,0.4,0h0.1v0
		c0.2,0,0.4,0,0.6,0h0.3v0c0.3,0,0.6,0,0.8,0c6.1,0,12.3,1.1,18.3,3.1c6.4,2.2,12.5,5.5,17.8,9.8c2,1.6,3.9,3.4,5.7,5.3
		c0.2,0.2,0.4,0.4,0.6,0.7c0.4,0.5,0.8,1,1.3,1.5c0.4,0.5,0.7,0.9,1.1,1.4c2.4,3.1,4.4,6.5,5.9,10.2c1.4,3.3,2.4,6.6,3.1,9.8
		c1.5,7.2,1.1,14.2-0.4,20.5c-0.4,1.9-1,3.7-1.6,5.4c-1,2.9-2.3,5.7-3.6,8.3c-1.2,2.3-2.6,4.5-4,6.5c-0.1,0.1-0.1,0.2-0.2,0.3
		c-1,1.4-2.1,2.7-3.1,4h0c-0.5,0.6-1.1,1.2-1.6,1.8v0c-0.1,0.1-0.2,0.2-0.3,0.4c-1.3,1.3-2.5,2.5-3.7,3.4c-0.4,0.3-0.7,0.6-1.1,0.8
		c-1.4,1-2.6,1.7-3.7,2.1C96.3,91.6,99.1,81.5,99.7,70.6L99.7,70.6z"/>
	
		<linearGradient id="path23_00000168114294017685557190000005377994468151123585_" gradientUnits="userSpaceOnUse" x1="80.0153" y1="57.4655" x2="-14.2947" y2="331.3655" gradientTransform="matrix(1.5486 0 0 -1.5486 -69.1582 218.2401)">
		<stop  offset="0" style="stop-color:#0C004F"/>
		<stop  offset="1" style="stop-color:#FE0806"/>
	</linearGradient>
	
		<path id="path23" inkscape:connector-curvature="0" style="fill-rule:evenodd;clip-rule:evenodd;fill:url(#path23_00000168114294017685557190000005377994468151123585_);" d="
		M42.5,67.5L42.5,67.5c-1.8-5.6-5.1-10.7-9.1-15c-0.8-0.8-1.6-1.6-2.4-2.4c-2.1-1.9-4.3-3.7-6.5-5.3c-0.3-0.2-0.6-0.4-0.9-0.6
		c-1.2-0.8-2.5-1.6-3.8-2.3c-4.4-2.5-9-4.4-13.1-5.4h0c-0.4-0.1-0.7-0.2-1.1-0.2c-1.4-0.3-2.8-0.5-4.1-0.6h0c-0.5,0-1-0.1-1.5,0
		c0,0,0.1,0,0.1-0.1h0v0c0,0,0.1,0,0.1,0h0v0l0,0h0v0c0,0,0.1,0,0.1,0h0v0C0.5,35.3,0.8,35.1,1,35h0v0l0,0h0c0,0,0.1,0,0.1-0.1h0v0
		l0,0h0v0c0.2-0.1,0.3-0.1,0.5-0.2h0v0l0.1,0h0v0l0.1,0c0.1,0,0.1,0,0.2-0.1h0v0l0,0h0v0c0.2-0.1,0.4-0.1,0.6-0.2h0v0l0.1,0h0v0
		c0,0,0.1,0,0.1,0h0v0l0,0h0v0c0.1,0,0.3-0.1,0.4-0.1h0v0l0.1,0h0v0c0.2,0,0.3-0.1,0.5-0.1h0v0L4,34h0c0.1,0,0.1,0,0.2,0h0v0
		c0.1,0,0.1,0,0.2,0h0c0.1,0,0.2,0,0.3-0.1h0v0l0.1,0h0v0l0.1,0h0v0c0.1,0,0.3,0,0.4-0.1h0l0.1,0h0v0l0.1,0h0c0.1,0,0.1,0,0.2,0h0v0
		c0.1,0,0.2,0,0.3-0.1h0v0l0.1,0h0v0l0.1,0h0v0c0.1,0,0.2,0,0.3,0h0v0c0,0,0.1,0,0.1,0h0v0l0.1,0h0v0l0.2,0h0v0c0.1,0,0.2,0,0.4,0h0
		v0c0.1,0,0.1,0,0.2,0h0v0c0.1,0,0.1,0,0.2,0h0v0c0.1,0,0.2,0,0.2,0h0v0c0.1,0,0.2,0,0.3,0h0v0c0.2,0,0.5,0,0.8,0h0.1v0
		c0.3,0,0.5,0,0.8,0h0.2v0h0.1c0.7,0,1.3,0,2,0.1c4.1,0.2,8.6,1,13.2,2.5c3.3,1.1,6.6,2.5,9.8,4.2c7.9,4.4,14.9,11.1,18.4,20.5
		c0.1,0.4,0.3,0.7,0.4,1.1c0.3,1,0.6,1.9,0.8,2.9c0.4,1.8,0.7,3.6,0.8,5.4c0.3,4.1-0.1,8.2-1,12.1c-0.1,0.5-0.2,1-0.4,1.6
		c-0.3,1-0.6,2.1-0.9,3.1c0,0,0,0,0,0.1c-1.9,5.7-4.6,10.9-7.5,15c-0.3,0.5-0.6,0.9-1,1.3c-2.9,3.9-5.8,6.7-8.1,8
		c7.4-6.3,10.7-27.6,5.9-43.3C42.6,67.8,42.6,67.6,42.5,67.5L42.5,67.5z"/>
	
		<linearGradient id="path30_00000123422414905845823990000013359633708113559702_" gradientUnits="userSpaceOnUse" x1="129.0768" y1="94.3214" x2="44.7468" y2="303.0334" gradientTransform="matrix(1.5417 -0.147 -0.147 -1.5417 -47.8101 232.4897)">
		<stop  offset="0" style="stop-color:#0C004F"/>
		<stop  offset="1" style="stop-color:#FE0806"/>
	</linearGradient>
	
		<path id="path30" inkscape:connector-curvature="0" style="fill-rule:evenodd;clip-rule:evenodd;fill:url(#path30_00000123422414905845823990000013359633708113559702_);" d="
		M82.9,0.7L82.9,0.7L82.9,0.7l0.1,0l0,0l0,0l0.1,0l0,0l0,0l0.1,0l0,0v0c0,0,0.1,0,0.1,0h0c0.1,0,0.2,0,0.3-0.1l0,0v0
		c0,0,0.1,0,0.1,0l0,0l0,0c0,0,0.1,0,0.1,0l0,0l0,0c0.1,0,0.1,0,0.2,0l0,0c0.1,0,0.2,0,0.2,0l0.1,0v0c0.1,0,0.2,0,0.2,0l0.1,0l0,0
		c0.1,0,0.2,0,0.4,0l0,0v0c0.3,0,0.6-0.1,0.8-0.1c0.3,0,0.5,0,0.8-0.1l0,0l0.1,0c0.1,0,0.3,0,0.4,0v0l0,0c0.1,0,0.2,0,0.3,0l0,0
		l0.1,0c0.1,0,0.2,0,0.3,0v0l0,0c0.2,0,0.3,0,0.5,0v0l0,0c0.1,0,0.1,0,0.2,0v0l0,0c0.1,0,0.1,0,0.2,0l0,0l0,0c0.1,0,0.1,0,0.2,0v0
		l0,0c0.1,0,0.1,0,0.2,0v0l0,0c0.1,0,0.2,0,0.4,0h0l0.2,0v0l0,0c0,0,0.1,0,0.1,0v0l0,0l0.1,0v0l0,0c0,0,0.1,0,0.1,0v0l0,0l0.1,0h0
		c0.2,0,0.4,0,0.6,0v0l0,0l0.1,0v0l0,0c0,0,0.1,0,0.1,0l0,0l0,0c0,0,0.1,0,0.1,0l0,0l0,0c0,0,0.1,0,0.1,0v0l0,0l0.1,0l0,0l0,0l0.1,0
		h0l0.1,0h0c0,0,0.1,0,0.1,0h0c0.1,0,0.1,0,0.2,0l0,0l0,0c0.1,0,0.1,0,0.2,0l0,0l0,0l0.1,0v0l0,0l0.1,0l0,0l0,0l0.1,0v0l0,0
		c0,0,0.1,0,0.1,0l0,0l0,0l0.1,0v0l0,0l0.1,0l0,0l0,0c0.2,0,0.5,0,0.7,0v0h0l0.1,0l0,0l0,0l0.1,0v0l0,0l0.1,0l0,0l0,0l0.1,0l0,0l0,0
		c0,0,0.1,0,0.1,0v0l0,0l0.1,0l0,0l0,0l0.1,0l0,0l0,0l0.1,0v0l0,0c0.1,0,0.3,0,0.4,0v0l0,0l0.1,0l0,0h0l0.1,0h0l0.1,0v0h0l0.1,0
		c0.1,0,0.1,0,0.2,0v0l0,0l0.1,0v0l0,0l0.1,0v0l0,0l0.1,0v0l0,0c0.1,0,0.1,0,0.2,0v0l0,0l0.1,0v0l0,0c0.2,0,0.4,0,0.6,0.1v0l0,0
		l0.2,0l0,0h0l0.1,0v0l0,0l0.1,0l0.1,0v0l0,0l0.1,0l0,0l0,0l0.1,0v0l0,0l0.1,0l0,0l0,0l0.1,0l0,0l0,0c0,0,0.1,0,0.1,0v0l0,0l0.1,0v0
		l0,0c0.1,0,0.1,0,0.2,0c0.2,0,0.4,0.1,0.6,0.1v0l0,0l0.1,0v0l0,0l0.1,0l0,0l0,0l0.1,0l0,0l0,0l0.1,0l0,0l0,0l0.1,0l0,0l0,0l0.1,0
		l0,0l0,0l0.1,0l0,0l0,0l0.1,0l0,0h0c0.2,0,0.3,0,0.5,0.1h0c0.1,0,0.3,0,0.4,0.1v0l0,0l0.2,0v0l0,0l0.1,0h0l0.1,0l0,0l0,0l0.1,0v0
		l0,0l0.1,0h0l0.1,0l0,0l0,0l0.1,0v0h0l0.1,0l0,0l0,0l0.1,0v0h0l0.1,0v0h0l0.1,0v0l0,0c0.2,0,0.4,0.1,0.5,0.1v0l0,0l0.1,0v0h0l0.1,0
		v0l0,0l0.1,0v0h0l0,0v0l0,0l0.1,0h0l0.1,0v0l0,0l0,0v0l0,0c0,0,0.1,0,0.1,0v0l0,0l0,0l0,0l0,0c0.1,0,0.1,0,0.2,0l0,0l0,0
		c0.3,0.1,0.6,0.1,0.8,0.2h0l0.1,0l0,0h0l0.1,0l0,0l0,0l0,0l0,0l0,0l0,0l0,0l0,0l0,0l0,0l0,0l0,0l0,0l0,0c0.3,0.1,0.5,0.1,0.8,0.2
		c0.1,0,0.2,0.1,0.4,0.1v0l0,0l0,0v0h0l0,0v0h0l0.1,0h0c0.1,0,0.1,0,0.2,0l0,0l0,0l0,0v0l0,0l0,0v0l0,0l0,0v0h0c0,0,0.1,0,0.1,0l0,0
		l0,0l0,0v0l0,0l0,0v0h0c0.1,0,0.2,0,0.2,0.1v0h0c0.1,0,0.3,0.1,0.4,0.1v0h0c0,0,0.1,0,0.1,0v0l0,0l0.1,0l0,0l0,0l0,0v0h0l0.1,0v0
		l0,0l0,0v0h0c0,0,0.1,0,0.1,0l0,0l0,0l0,0v0l0,0c0,0,0.1,0,0.1,0v0l0,0l0,0l0,0l0,0l0,0l0,0v0l0,0l0.1,0v0l0,0l0,0l0.1,0l0,0l0,0
		c0,0,0.1,0,0.1,0h0c0.2,0,0.3,0.1,0.5,0.1l0.1,0h0l0.1,0v0h0l0.1,0v0h0l0,0v0l0,0l0,0l0,0h0l0,0l0,0l0,0l0,0v0h0l0,0l0,0l0,0l0,0
		l0,0l0,0l0,0l0.1,0v0l0,0l0.1,0v0h0l0.2,0.1v0l0,0l0.1,0v0h0c0.2,0,0.3,0.1,0.5,0.1v0l0,0l0.1,0l0,0l0,0l0.1,0v0l0,0
		c0,0,0.1,0,0.1,0l0,0l0,0l0,0l0,0l0,0c0,0,0.1,0,0.1,0l0,0l0,0l0,0l0,0l0,0c0,0,0.1,0,0.1,0v0h0l0,0l0,0l0,0c0,0,0.1,0,0.1,0v0l0,0
		l0,0l0,0l0,0l0.1,0v0l0,0l0.1,0h0c0.1,0,0.1,0,0.2,0.1v0h0c0.1,0,0.3,0.1,0.4,0.1h0l0,0v0l0,0l0.2,0.1l0,0h0l0,0l0,0l0,0l0,0l0,0
		l0,0c0,0,0.1,0,0.1,0v0h0l0,0v0h0l0,0v0l0,0l0,0l0,0l0,0l0,0l0,0l0,0c0.1,0,0.1,0,0.2,0.1v0h0l0,0v0h0l0,0l0,0l0,0
		c0.1,0,0.2,0.1,0.3,0.1c0.3,0.1,0.5,0.2,0.8,0.3h0l0,0l0,0h0l0,0v0h0l0,0v0h0l0,0v0h0l0,0h0c0.3,0.1,0.5,0.2,0.8,0.3h0
		c0.1,0,0.2,0.1,0.2,0.1l0,0l0,0l0,0v0l0,0l0,0l0,0h0c0.1,0,0.1,0,0.2,0.1l0,0l0,0l0,0v0l0,0l0,0l0,0l0,0l0,0v0l0,0l0,0v0h0l0,0h0
		c0,0,0.1,0,0.1,0l0,0l0,0l0,0l0,0l0,0l0,0v0l0,0l0,0h0c0,0,0.1,0,0.1,0.1l0,0l0,0l0,0v0l0,0c0.1,0,0.1,0.1,0.2,0.1v0h0
		c0.1,0.1,0.3,0.1,0.4,0.2v0h0l0.1,0.1v0l0,0l0,0v0l0.1,0l0,0l0,0l0,0v0h0l0.1,0l0,0l0,0l0,0l0,0l0,0l0,0v0h0l0.1,0l0,0l0,0l0,0l0,0
		l0,0l0,0l0,0h0l0.1,0l0,0l0,0l0,0l0,0h0c0,0,0.1,0,0.1,0l0,0l0,0l0.1,0l0,0l0,0l0,0v0h0l0.1,0v0h0c0.1,0,0.1,0.1,0.2,0.1v0h0
		c0.1,0,0.1,0.1,0.2,0.1v0h0c0,0,0.1,0,0.1,0.1l0,0l0,0l0.1,0v0h0l0.1,0l0,0l0,0l0,0v0h0l0.1,0l0,0l0,0c0,0,0.1,0,0.1,0l0,0l0,0l0,0
		l0,0l0,0l0,0l0,0h0c0,0,0,0,0.1,0l0,0l0,0l0,0l0,0l0,0l0,0v0h0l0.1,0l0,0l0,0l0,0l0,0l0,0l0,0v0h0l0.1,0l0,0l0,0l0.1,0l0,0l0,0
		l0.1,0l0,0h0l0.1,0v0h0c0.2,0.1,0.3,0.2,0.5,0.3h0l0.1,0v0h0l0.1,0v0h0l0.1,0v0h0l0.1,0l0,0h0l0.1,0v0l0,0l0.1,0v0l0,0c0,0,0,0,0,0
		l0,0l0,0l0,0l0,0l0,0c0,0,0,0,0,0v0l0,0l0,0l0,0l0,0l0,0v0h0l0,0l0,0l0,0l0,0l0,0l0,0l0,0l0,0l0,0l0,0l0,0l0,0l0,0l0,0v0l0,0l0.1,0
		v0h0l0.1,0v0h0c0.1,0.1,0.3,0.2,0.4,0.2l0.1,0l0,0h0l0.1,0v0l0.1,0l0,0h0l0.1,0l0,0l0,0l0,0l0,0l0,0h0l0.1,0h0l0,0l0,0l0,0l0,0l0,0
		l0,0l0,0l0,0l0,0l0,0l0,0l0,0l0,0c0,0,0,0,0,0v0h0l0,0l0,0l0,0l0,0v0h0l0,0l0,0l0,0l0,0v0h0l0.1,0v0h0l0.1,0v0h0
		c0.1,0.1,0.3,0.2,0.4,0.3v0h0c0,0,0.1,0,0.1,0.1l0,0l0,0l0.1,0v0h0l0.1,0l0,0l0,0l0,0c0,0,0,0,0.1,0v0h0l0,0l0,0l0,0l0,0v0h0l0,0
		l0,0l0,0l0,0l0,0l0,0c0,0,0,0,0,0l0,0l0,0l0,0l0,0l0,0l0,0l0,0l0,0l0,0l0,0h0l0,0l0,0l0,0c0,0,0,0,0.1,0v0h0l0,0l0,0l0,0l0.1,0v0h0
		l0,0l0,0l0,0l0.1,0l0,0h0l0,0l0,0l0,0c0.1,0.1,0.3,0.2,0.4,0.2c0,0,0.1,0.1,0.1,0.1v0h0l0,0l0,0l0,0l0.1,0.1l0,0h0l0,0l0,0l0,0l0,0
		l0,0l0,0c0,0,0.1,0,0.1,0.1v0h0l0,0l0,0l0,0l0,0l0,0l0,0c0,0,0,0,0.1,0v0h0l0,0l0,0l0,0l0,0l0,0l0,0l0,0l0,0l0,0l0,0l0,0l0,0
		c0,0,0,0,0.1,0v0h0l0,0l0,0l0,0l0,0l0,0l0,0l0,0l0,0l0,0c0,0,0.1,0,0.1,0.1l0,0h0l0,0l0,0l0,0c0,0,0.1,0.1,0.1,0.1v0h0l0,0l0,0h0
		c0.1,0.1,0.2,0.2,0.4,0.3v0h0l0,0v0h0l0,0l0,0l0,0l0,0l0,0l0,0c0.1,0,0.1,0.1,0.2,0.1l0,0l0,0h0l0,0v0l0,0l0,0l0,0l0,0l0,0l0,0l0,0
		l0,0l0,0l0,0l0,0l0,0l0,0l0,0l0,0l0,0l0,0l0,0l0,0l0,0l0,0l0,0l0,0l0,0l0,0c0.1,0.1,0.1,0.1,0.2,0.2l0,0h0l0,0v0h0l0,0v0h0l0,0l0,0
		h0l0,0v0h0l0,0l0,0h0l0,0l0,0l0,0l0,0l0,0l0,0c0.1,0.1,0.3,0.2,0.4,0.3l0,0l0,0l0,0l0,0l0,0l0,0l0,0l0,0l0,0v0h0l0,0l0,0l0,0l0,0v0
		l0,0l0,0l0,0h0l0,0v0h0l0,0l0,0h0l0,0v0h0l0,0l0,0h0l0,0v0h0l0,0l0,0h0l0,0c0,0,0.1,0.1,0.1,0.1l0,0l0,0l0,0l0,0l0,0l0,0l0,0l0,0
		l0,0l0,0l0,0l0,0l0,0l0,0l0,0l0,0l0,0l0,0l0,0h0l0,0v0l0,0l0,0v0h0l0,0v0h0c0.1,0.1,0.1,0.1,0.2,0.2l0,0h0l0,0v0h0l0,0v0h0
		c0.1,0.1,0.2,0.2,0.3,0.3l0,0l0,0l0,0v0h0l0,0v0h0l0.1,0.1l0,0l0,0l0,0l0,0l0,0l0,0v0l0,0l0,0l0,0h0c0,0,0,0,0.1,0.1l0,0l0,0l0,0
		l0,0l0,0l0,0l0,0l0,0l0,0l0,0l0,0l0,0l0,0h0c0,0,0,0,0,0l0,0l0,0l0,0l0,0l0,0l0,0l0,0l0,0l0,0l0,0h0l0,0v0h0c0,0,0,0,0,0l0,0l0,0
		l0,0l0,0l0,0l0,0l0,0l0,0l0,0l0,0h0c0,0,0,0,0.1,0.1l0,0l0,0l0,0l0,0h0l0,0l0,0h0l0.1,0.1l0,0h0l0,0l0,0h0c0,0,0.1,0.1,0.1,0.1v0h0
		c0.1,0.1,0.1,0.1,0.2,0.2v0h0c0,0,0,0,0.1,0.1l0,0l0,0l0,0c0,0,0,0,0.1,0.1l0,0h0l0.1,0.1l0,0l0,0l0,0v0h0l0,0l0,0l0,0l0,0l0,0h0
		l0,0l0,0l0,0l0,0l0,0l0,0l0,0l0,0h0l0,0l0,0l0,0l0,0l0,0l0,0l0,0l0,0l0,0l0,0l0,0l0,0l0,0l0,0l0,0l0,0l0,0h0c0,0,0,0,0,0l0,0l0,0
		l0,0l0,0h0c0,0,0,0,0,0l0,0l0,0l0,0l0,0h0l0,0l0,0l0,0l0,0l0,0h0l0,0l0,0l0,0l0,0v0h0l0,0l0,0h0c0,0,0,0,0.1,0.1l0,0h0
		c0.1,0.1,0.2,0.2,0.3,0.3h0l0,0v0h0l0,0l0,0h0l0,0l0,0l0,0l0,0l0,0l0,0c0,0,0,0,0,0l0,0l0,0l0,0v0h0l0,0l0,0l0,0l0,0v0h0l0,0l0,0
		l0,0l0,0l0,0h0c0,0,0,0,0,0l0,0l0,0l0,0l0,0h0c0,0,0,0,0,0l0,0l0,0l0,0l0,0l0,0l0,0c0,0,0,0,0,0l0,0l0,0l0,0l0,0h0l0,0l0,0l0,0l0,0
		l0,0h0l0,0l0,0l0,0l0,0l0,0l0,0l0,0l0,0l0,0l0,0v0h0c0,0,0,0,0,0v0h0c0,0,0.1,0.1,0.1,0.1c0,0,0.1,0.1,0.1,0.1l0,0h0
		c0,0,0,0,0.1,0.1l0,0h0l0,0l0,0l0,0l0,0l0,0h0l0,0l0,0l0,0l0,0l0,0l0,0l0,0l0,0h0l0,0l0,0l0,0l0,0l0,0l0,0l0,0l0,0l0,0l0,0l0,0l0,0
		l0,0l0,0l0,0l0,0l0,0l0,0l0,0l0,0l0,0l0,0l0,0l0,0c0,0,0,0,0,0l0,0l0,0l0,0l0,0l0,0l0,0l0,0l0,0l0,0l0,0h0l0,0l0,0l0,0l0,0l0,0l0,0
		l0,0l0,0l0,0c0,0,0,0,0,0l0,0h0l0,0l0,0h0c0,0,0.1,0.1,0.1,0.1c0,0,0,0.1,0.1,0.1c3.5,5.2,4.6,10.7,4.3,16c0,0.2,0,0.5,0,0.7
		c-0.1,1.3-0.3,2.6-0.5,3.8c-0.3,1.9-0.8,3.7-1.4,5.4c-1.7,5.4-4.4,10.2-6.6,13.7c-0.2,0.3-0.3,0.5-0.5,0.8
		c-0.3,0.4-0.6,0.8-0.8,1.2c3.7-7.9,2.2-27.1-3.8-36.9C112.6,7.7,92.5,0.1,83,0.7c0,0,0.1,0,0.2-0.1L82.9,0.7z"/>
	
		<linearGradient id="path103_00000079461228262926333550000004482190860841287577_" gradientUnits="userSpaceOnUse" x1="95.7845" y1="61.2772" x2="-9.2355" y2="366.2572" gradientTransform="matrix(1.5486 0 0 -1.5486 -69.1582 218.2401)">
		<stop  offset="0" style="stop-color:#0C004F"/>
		<stop  offset="1" style="stop-color:#FE0806"/>
	</linearGradient>
	
		<path id="path103" inkscape:connector-curvature="0" style="fill-rule:evenodd;clip-rule:evenodd;fill:url(#path103_00000079461228262926333550000004482190860841287577_);" d="
		M71,81.3L71,81.3c0-0.8,0.1-1.6,0.1-2.4v0c0.1-2,0-4.1-0.1-6.1v0c-0.1-1.4-0.2-2.8-0.3-4.1c-0.1-1.4-0.3-2.9-0.5-4.2
		c-0.2-1-0.3-2.1-0.6-3.1c-0.3-1.7-0.8-3.3-1.2-4.9h0C67.8,54.1,67,52,66,50c-1.4-2.9-3-5.6-4.9-8.1c-1.9-2.5-3.9-4.9-6.1-7.1
		c-2.8-2.8-5.9-5.3-9.2-7.5c-0.2-0.1-0.3-0.2-0.5-0.3c-8.2-5.4-17.2-8.8-25.5-9.8h0c-1.7-0.2-3.4-0.3-5-0.4h0c-0.5,0-0.9,0-1.4,0h0
		c-0.9,0-1.8,0.1-2.7,0.2c0.1,0,0.1-0.1,0.2-0.1h0v0l0,0h0v0l0,0h0v0c0.1,0,0.1-0.1,0.2-0.1h0v0l0,0h0v0l0,0h0v0l0,0h0v0l0,0h0v0
		l0,0h0v0l0,0h0v0c0,0,0.1,0,0.1-0.1h0v0l0,0h0v0l0,0h0v0l0,0h0v0l0,0h0v0l0,0h0v0l0,0h0v0c0.2-0.1,0.5-0.2,0.7-0.3h0v0l0,0h0v0l0,0
		h0v0l0,0h0v0l0,0h0v0l0,0h0v0l0,0h0v0l0,0h0v0l0,0h0v0l0,0l0.1-0.1h0v0l0,0h0v0l0,0h0v0l0,0h0v0l0,0h0v0c0.1-0.1,0.3-0.1,0.4-0.2h0
		v0l0,0h0v0l0.1-0.1h0v0l0,0h0v0l0,0h0l0.1,0h0v0l0,0h0v0l0,0l0,0h0v0l0,0h0v0l0,0h0v0l0.1,0h0v0l0,0h0v0l0,0h0l0,0h0v0l0,0h0v0l0,0
		h0v0l0.1,0h0v0l0,0h0v0c0.1,0,0.2-0.1,0.3-0.1h0v0l0.1,0h0v0l0.1,0h0v0l0.1,0h0v0l0,0h0v0l0,0h0v0l0,0h0v0l0,0h0v0l0,0h0v0l0,0h0v0
		l0,0h0v0l0,0h0v0l0,0h0v0l0,0h0v0l0,0h0v0l0,0h0v0l0,0l0,0h0v0l0.1,0h0v0l0.1,0h0v0c0.1,0,0.1-0.1,0.2-0.1h0l0.1-0.1h0l0,0h0v0
		l0.1,0l0,0h0v0l0,0h0v0l0,0h0v0l0,0h0l0,0h0v0l0,0h0v0l0,0h0v0l0,0h0v0l0,0h0v0l0,0h0v0l0,0h0v0l0,0h0v0l0,0l0,0h0v0l0,0h0v0l0,0h0
		v0c0.1,0,0.2-0.1,0.3-0.1h0l0.1,0h0l0.1,0h0v0l0,0h0v0l0,0h0v0l0,0h0v0l0,0h0v0l0,0h0v0l0.1,0h0v0l0.1,0h0l0.1,0h0v0l0,0h0v0l0,0h0
		v0l0,0h0v0l0,0h0v0l0,0h0v0l0,0h0v0l0,0h0v0l0.1,0h0v0c0.1,0,0.1,0,0.2-0.1h0v0l0,0h0v0c0.1,0,0.1,0,0.2-0.1h0v0l0.1,0h0v0l0,0h0v0
		l0.1,0h0v0l0,0h0v0l0.1,0h0v0l0,0h0v0l0,0h0v0l0.1,0h0v0l0,0h0v0l0.1,0h0v0l0,0h0v0l0.1,0h0v0l0,0h0v0l0.1,0h0v0l0.1,0h0v0l0.1,0h0
		v0l0.1,0h0v0c0.1,0,0.1,0,0.2-0.1h0v0l0.1,0h0v0c0.1,0,0.1,0,0.2,0h0v0l0.1,0h0v0l0.1,0h0v0l0.1,0h0v0l0.1,0h0v0l0.1,0h0v0l0.1,0h0
		v0l0.1,0h0v0l0.1,0h0v0l0.1,0h0v0l0.1,0h0v0l0.1,0h0v0l0.1,0h0v0c0.1,0,0.3-0.1,0.4-0.1h0v0l0.1,0h0l0.1,0h0v0l0.1,0h0v0l0.1,0h0v0
		l0.1,0h0v0l0.1,0h0v0l0.1,0h0v0l0.1,0h0v0l0.1,0h0v0l0.1,0h0v0l0.1,0h0v0l0.1,0h0v0l0.1,0h0v0c0.1,0,0.3-0.1,0.4-0.1h0v0l0.1,0h0v0
		l0.1,0h0v0l0.1,0h0v0l0.1,0h0v0l0.1,0h0v0l0.1,0h0v0l0.1,0h0v0l0.1,0h0v0l0.1,0h0v0c0.1,0,0.1,0,0.2,0h0v0c0.1,0,0.3,0,0.4-0.1h0v0
		l0.1,0h0v0l0.1,0h0v0l0.1,0h0v0l0.1,0h0v0l0.1,0h0v0l0.1,0h0v0l0.1,0h0v0l0.1,0h0v0c0.2,0,0.3,0,0.5-0.1h0v0l0.1,0h0v0l0.1,0h0v0
		l0.1,0h0v0l0.1,0h0v0l0.1,0h0v0l0.1,0h0v0l0.1,0h0v0c0.1,0,0.3,0,0.4,0h0c0.1,0,0.1,0,0.2,0h0v0c0,0,0.1,0,0.1,0h0v0
		c0,0,0.1,0,0.1,0h0v0c0,0,0.1,0,0.1,0h0v0l0.1,0h0v0c0.1,0,0.1,0,0.2,0h0v0c0.1,0,0.3,0,0.4,0h0v0c0.1,0,0.1,0,0.2,0h0v0l0.2,0H29
		v0c0.1,0,0.1,0,0.2,0h0.1v0c0.1,0,0.1,0,0.2,0h0v0c0.2,0,0.4,0,0.6,0h0.1v0c0.1,0,0.2,0,0.3,0h0.1v0c0.1,0,0.2,0,0.4,0H31v0
		c0.2,0,0.4,0,0.6,0h0.3v0c0.3,0,0.6,0,0.8,0c6.1,0,12.3,1.1,18.3,3.1c6.4,2.2,12.5,5.5,17.8,9.8c2,1.6,3.9,3.4,5.7,5.3
		c0.2,0.2,0.4,0.4,0.6,0.7c0.4,0.5,0.8,1,1.3,1.5c0.4,0.5,0.7,0.9,1.1,1.4h0c2.3,3.1,4.4,6.5,5.9,10.2c1.4,3.3,2.4,6.6,3.1,9.8
		c1.5,7.2,1.1,14.2-0.4,20.5c-0.4,1.9-1,3.7-1.6,5.4c-1,2.9-2.3,5.7-3.6,8.3c-1.2,2.3-2.6,4.5-4,6.5c-0.1,0.1-0.1,0.2-0.2,0.3
		c-1,1.4-2.1,2.7-3.1,4c-0.5,0.6-1.1,1.2-1.6,1.8h0c-0.1,0.1-0.2,0.2-0.3,0.4c-1.3,1.3-2.5,2.5-3.7,3.4c-0.4,0.3-0.7,0.6-1.1,0.8
		c-1.4,1-2.6,1.7-3.7,2.1C67.6,102.2,70.4,92.2,71,81.3L71,81.3z"/>
</g>
<g id="g4201" transform="matrix(3.4632384,0,0,3.4632384,-3.4485338e-5,-3.3e-4)">
	<path id="path32" inkscape:connector-curvature="0" class="st1" d="M3.1,167.8c-0.2-0.3-0.6-0.5-1-0.5c-0.6,0-1.2,0.5-1.3,1.1
		c0,0.1,0,0.3,0,0.5c0,0.4,0,0.6,0.1,0.8c0.2,0.5,0.7,0.8,1.2,0.8c0.4,0,0.8-0.2,1-0.5c0.2-0.3,0.2-0.5,0.2-1.1v-0.1
		C3.4,168.3,3.3,168.1,3.1,167.8L3.1,167.8z M4.1,170.1c0,0.2,0.1,0.3,0.2,0.4l0,0c0.1,0.1,0.1,0.2,0.1,0.2c0,0.2-0.1,0.4-0.3,0.4
		c-0.2,0-0.5-0.1-0.6-0.4c0,0,0,0,0,0s0,0-0.1,0c-0.4,0.3-0.8,0.5-1.3,0.5c-0.6,0-1.2-0.3-1.6-0.8c-0.3-0.4-0.5-0.9-0.5-1.6
		c0-0.7,0.1-1.1,0.5-1.6c0.4-0.5,1-0.7,1.6-0.7c0.4,0,0.7,0.1,1.1,0.4c0,0,0,0,0,0c0,0,0,0,0.1,0c0,0,0.1,0,0.1-0.1
		c0.1-0.2,0.2-0.3,0.3-0.3c0.2,0,0.4,0.2,0.4,0.4L4.1,170.1L4.1,170.1z"/>
	<path id="path34" inkscape:connector-curvature="0" class="st1" d="M7.2,168.5c0.6,0.1,0.9,0.2,1.1,0.4c0.4,0.2,0.6,0.5,0.6,1
		c0,0.8-0.7,1.4-1.7,1.4c-0.8,0-1.5-0.2-2-0.7C5,170.5,5,170.4,5,170.3c0-0.2,0.1-0.4,0.3-0.4c0.1,0,0.1,0,0.3,0.1l0.1,0.1
		c0.4,0.3,0.9,0.4,1.4,0.4c0.6,0,1-0.2,1-0.6c0-0.3-0.2-0.5-0.6-0.6c0,0-0.2,0-0.4-0.1c-0.1,0-0.2,0-0.3-0.1l-0.3-0.1
		c-0.9-0.2-1.3-0.6-1.3-1.3c0-0.8,0.7-1.4,1.8-1.4c0.7,0,1.4,0.3,1.7,0.7c0.1,0.1,0.1,0.2,0.1,0.2c0,0.1-0.1,0.3-0.2,0.4
		c0,0-0.1,0-0.1,0c-0.1,0-0.1,0-0.2-0.1L8,167.6c0,0,0,0-0.1-0.1c-0.4-0.3-0.7-0.4-1.1-0.4c-0.6,0-1,0.3-1,0.7
		c0,0.3,0.2,0.5,0.7,0.6l0.2,0L7.2,168.5L7.2,168.5z"/>
	<path id="path36" inkscape:connector-curvature="0" class="st1" d="M11.4,168.5c0.6,0.1,0.9,0.2,1.1,0.4c0.4,0.2,0.6,0.5,0.6,1
		c0,0.8-0.7,1.4-1.7,1.4c-0.8,0-1.5-0.2-2-0.7c-0.1-0.1-0.1-0.2-0.1-0.2c0-0.2,0.1-0.4,0.3-0.4c0.1,0,0.1,0,0.3,0.1l0.1,0.1
		c0.4,0.3,0.9,0.4,1.4,0.4c0.6,0,1-0.2,1-0.6c0-0.3-0.2-0.5-0.6-0.6c0,0-0.2,0-0.4-0.1c-0.1,0-0.2,0-0.3-0.1l-0.4-0.1
		c-0.9-0.2-1.3-0.6-1.3-1.3c0-0.8,0.7-1.4,1.8-1.4c0.7,0,1.4,0.3,1.7,0.7c0.1,0.1,0.1,0.2,0.1,0.2c0,0.1-0.1,0.3-0.2,0.4
		c0,0-0.1,0-0.1,0c-0.1,0-0.1,0-0.2-0.1l-0.1-0.1c0,0-0.1,0-0.1-0.1c-0.5-0.3-0.7-0.4-1.1-0.4c-0.6,0-1,0.3-1,0.7
		c0,0.3,0.2,0.5,0.7,0.6l0.2,0L11.4,168.5L11.4,168.5z"/>
	<path id="path38" inkscape:connector-curvature="0" class="st1" d="M15.7,167.3c-0.6,0-1.2,0.4-1.3,1c0,0.1,0,0.3,0,0.5
		c0,0.3,0,0.6,0,0.7c0.1,0.6,0.6,1,1.3,1c0.6,0,1.1-0.4,1.2-1c0-0.2,0.1-0.4,0.1-0.7v-0.1C17,167.8,16.5,167.3,15.7,167.3
		L15.7,167.3z M17.7,168.9c0,1.4-0.8,2.3-2,2.3c-0.9,0-1.7-0.6-1.9-1.4c-0.1-0.3-0.1-0.6-0.1-0.9c0-1,0.3-1.6,1-2
		c0.3-0.2,0.7-0.3,1-0.3C16.9,166.5,17.7,167.5,17.7,168.9L17.7,168.9z"/>
	<path id="path40" inkscape:connector-curvature="0" class="st1" d="M21.4,167.7c-0.3-0.2-0.6-0.4-0.9-0.4c-0.6,0-1.1,0.4-1.2,0.8
		c-0.1,0.2-0.1,0.4-0.1,0.8c0,0.8,0.1,1.1,0.6,1.4c0.2,0.1,0.4,0.2,0.7,0.2c0.4,0,0.7-0.1,1-0.4c0.1-0.1,0.2-0.2,0.3-0.2
		c0.2,0,0.3,0.1,0.3,0.3c0,0.1,0,0.2-0.2,0.3c-0.4,0.4-0.9,0.6-1.5,0.6c-0.9,0-1.7-0.6-1.9-1.5c-0.1-0.2-0.1-0.5-0.1-0.8
		c0-1,0.3-1.6,1-2.1c0.3-0.2,0.7-0.3,1-0.3c0.5,0,1.1,0.2,1.4,0.6c0.1,0.1,0.2,0.2,0.2,0.3c0,0.2-0.2,0.4-0.4,0.4
		C21.6,167.9,21.5,167.9,21.4,167.7L21.4,167.7L21.4,167.7z"/>
	<path id="path42" inkscape:connector-curvature="0" class="st1" d="M23,167.2L23,167.2c0-0.3,0.2-0.5,0.4-0.5
		c0.2,0,0.4,0.2,0.4,0.4v3.6c0,0.3-0.1,0.5-0.4,0.5c-0.2,0-0.4-0.1-0.4-0.4L23,167.2L23,167.2L23,167.2z M23.3,165.6
		c-0.2,0-0.4-0.2-0.4-0.4c0-0.2,0.2-0.4,0.4-0.4c0.2,0,0.4,0.2,0.4,0.4C23.7,165.4,23.6,165.6,23.3,165.6z"/>
	<path id="path44" inkscape:connector-curvature="0" class="st1" d="M27.7,167.8c-0.2-0.3-0.6-0.5-1-0.5c-0.6,0-1.2,0.5-1.3,1.1
		c0,0.1,0,0.3,0,0.5c0,0.4,0,0.6,0.1,0.8c0.2,0.5,0.7,0.8,1.2,0.8c0.4,0,0.8-0.2,1.1-0.5c0.2-0.3,0.2-0.5,0.2-1.1v-0.1
		C28,168.3,28,168.1,27.7,167.8L27.7,167.8z M28.8,170.1c0,0.2,0.1,0.3,0.2,0.4l0,0c0.1,0.1,0.1,0.2,0.1,0.2c0,0.2-0.1,0.4-0.3,0.4
		c-0.2,0-0.5-0.1-0.6-0.4c0,0,0,0-0.1,0c0,0,0,0-0.1,0c-0.4,0.3-0.8,0.5-1.3,0.5c-0.6,0-1.2-0.3-1.6-0.8c-0.3-0.4-0.5-0.9-0.5-1.6
		c0-0.7,0.1-1.1,0.5-1.6c0.4-0.5,1-0.7,1.6-0.7c0.4,0,0.7,0.1,1.1,0.4c0,0,0,0,0.1,0c0,0,0,0,0,0c0,0,0.1,0,0.1-0.1
		c0.1-0.2,0.2-0.3,0.3-0.3c0.2,0,0.4,0.2,0.4,0.4L28.8,170.1L28.8,170.1z"/>
	<path id="path46" inkscape:connector-curvature="0" class="st1" d="M31.1,166.5c0,0.1,0,0.1,0.1,0.1c0.4,0,0.6,0.1,0.6,0.4
		c0,0.2-0.2,0.4-0.4,0.4h-0.2c-0.1,0-0.1,0-0.1,0.1v0l0,2.6v0c0,0.3,0.1,0.4,0.3,0.4l0.1,0c0.2,0,0.3,0.2,0.3,0.4
		c0,0.2-0.2,0.4-0.5,0.4c-0.7,0-0.9-0.3-0.9-0.9v0l0-2.8v0c0-0.1,0-0.1-0.1-0.1h0c-0.3,0-0.5-0.1-0.5-0.4c0-0.2,0.2-0.4,0.5-0.4h0
		c0.1,0,0.1,0,0.1-0.1v-0.1l0-1.3v-0.1c0-0.3,0.1-0.4,0.4-0.4c0.2,0,0.4,0.2,0.4,0.4v0L31.1,166.5L31.1,166.5L31.1,166.5z"/>
	<path id="path48" inkscape:connector-curvature="0" class="st1" d="M32.6,167.2L32.6,167.2c0-0.3,0.2-0.5,0.4-0.5
		c0.2,0,0.4,0.2,0.4,0.4v3.6c0,0.3-0.1,0.5-0.4,0.5c-0.2,0-0.4-0.1-0.4-0.4L32.6,167.2L32.6,167.2L32.6,167.2z M33,165.6
		c-0.2,0-0.4-0.2-0.4-0.4c0-0.2,0.2-0.4,0.4-0.4c0.2,0,0.4,0.2,0.4,0.4C33.4,165.4,33.2,165.6,33,165.6L33,165.6z"/>
	<path id="path50" inkscape:connector-curvature="0" class="st1" d="M36.4,167.3c-0.6,0-1.2,0.4-1.3,1c0,0.1,0,0.3,0,0.5
		c0,0.3,0,0.6,0,0.7c0.1,0.6,0.6,1,1.3,1c0.6,0,1.1-0.4,1.2-1c0-0.2,0.1-0.4,0.1-0.7v-0.1C37.7,167.8,37.2,167.3,36.4,167.3
		L36.4,167.3z M38.4,168.9c0,1.4-0.8,2.3-2,2.3c-0.9,0-1.7-0.6-1.9-1.4c-0.1-0.3-0.1-0.6-0.1-0.9c0-1,0.3-1.6,1-2
		c0.3-0.2,0.7-0.3,1-0.3C37.6,166.5,38.4,167.5,38.4,168.9L38.4,168.9L38.4,168.9z"/>
	<path id="path52" inkscape:connector-curvature="0" class="st1" d="M43.4,170.7L43.4,170.7c0,0.3-0.1,0.5-0.4,0.5
		c-0.2,0-0.4-0.1-0.4-0.4v-2.1c0-0.8-0.5-1.4-1.3-1.4c-0.5,0-1,0.4-1.2,0.8c-0.1,0.2-0.1,0.5-0.1,0.8v1.9c0,0.3-0.2,0.4-0.4,0.4
		c-0.2,0-0.4-0.2-0.4-0.4v-3.6c0-0.4,0.1-0.6,0.4-0.6c0.2,0,0.3,0.1,0.4,0.3c0,0,0,0,0,0c0,0,0,0,0.1,0c0.3-0.3,0.7-0.4,1.2-0.4
		c1.2,0,2,0.9,2,2.1L43.4,170.7L43.4,170.7z"/>
	<path id="path54" inkscape:connector-curvature="0" class="st1" d="M49.1,168.5c0.6,0.1,0.9,0.2,1.1,0.4c0.4,0.2,0.6,0.5,0.6,1
		c0,0.8-0.7,1.4-1.7,1.4c-0.8,0-1.5-0.2-2-0.7c-0.1-0.1-0.1-0.2-0.1-0.2c0-0.2,0.1-0.4,0.3-0.4c0.1,0,0.1,0,0.3,0.1l0.1,0.1
		c0.4,0.3,0.9,0.4,1.4,0.4c0.6,0,1-0.2,1-0.6c0-0.3-0.1-0.5-0.6-0.6c0,0-0.2,0-0.4-0.1c-0.1,0-0.2,0-0.3-0.1l-0.3-0.1
		c-0.9-0.2-1.3-0.6-1.3-1.3c0-0.8,0.7-1.4,1.8-1.4c0.7,0,1.4,0.3,1.7,0.7c0.1,0.1,0.1,0.2,0.1,0.2c0,0.1-0.1,0.3-0.2,0.4
		c0,0-0.1,0-0.1,0c-0.1,0-0.1,0-0.2-0.1l-0.1-0.1c0,0,0,0-0.1-0.1c-0.5-0.3-0.7-0.4-1.1-0.4c-0.6,0-1,0.3-1,0.7
		c0,0.3,0.2,0.5,0.7,0.6l0.2,0L49.1,168.5L49.1,168.5z"/>
	<path id="path56" inkscape:connector-curvature="0" class="st1" d="M54.9,169c0-0.5-0.1-0.7-0.2-1c-0.2-0.3-0.7-0.6-1.1-0.6
		c-0.4,0-0.8,0.2-1,0.5c-0.2,0.3-0.2,0.5-0.2,1c0,0.7,0,0.8,0.2,1.1c0.2,0.4,0.7,0.6,1.1,0.6c0.4,0,0.8-0.2,1-0.5
		c0.2-0.3,0.2-0.5,0.2-1L54.9,169L54.9,169z M52.4,167.1c0.3-0.3,0.7-0.4,1.2-0.4c1.2,0,2.1,0.9,2.1,2.3c0,0.8-0.2,1.3-0.6,1.8
		c-0.4,0.4-0.9,0.6-1.4,0.6c-0.4,0-0.9-0.2-1.2-0.4c0,0-0.1,0-0.1,0c0,0,0,0,0,0.1v0l0,1.8v0.1c0,0.3-0.1,0.4-0.4,0.4
		c-0.2,0-0.4-0.2-0.4-0.4v0l0-5.6v-0.1c0-0.3,0.1-0.5,0.4-0.5c0.2,0,0.4,0.2,0.4,0.4C52.3,167.1,52.3,167.1,52.4,167.1
		C52.3,167.1,52.4,167.1,52.4,167.1L52.4,167.1L52.4,167.1L52.4,167.1z"/>
	<path id="path58" inkscape:connector-curvature="0" class="st1" d="M58.4,167.3c-0.6,0-1.2,0.4-1.3,1c0,0.1,0,0.3,0,0.5
		c0,0.3,0,0.6,0,0.7c0.1,0.6,0.6,1,1.3,1c0.6,0,1.1-0.4,1.2-1c0-0.2,0.1-0.4,0.1-0.7v-0.1C59.6,167.8,59.2,167.3,58.4,167.3
		L58.4,167.3z M60.4,168.9c0,1.4-0.8,2.3-2,2.3c-0.9,0-1.7-0.6-1.9-1.4c-0.1-0.3-0.1-0.6-0.1-0.9c0-1,0.3-1.6,1-2
		c0.3-0.2,0.7-0.3,1-0.3C59.5,166.5,60.4,167.5,60.4,168.9L60.4,168.9L60.4,168.9z"/>
	<path id="path60" inkscape:connector-curvature="0" class="st1" d="M62,170.7L62,170.7c0,0.4-0.1,0.5-0.4,0.5
		c-0.2,0-0.4-0.1-0.4-0.4v-3.6c0-0.3,0.1-0.5,0.4-0.5c0.1,0,0.2,0.1,0.3,0.2c0,0.1,0.1,0.1,0.1,0.1c0,0,0,0,0.1,0
		c0.3-0.2,0.6-0.3,0.8-0.3c0.3,0,0.7,0.1,0.9,0.3c0.1,0.1,0.2,0.2,0.2,0.3c0,0.2-0.2,0.4-0.4,0.4c-0.1,0-0.1,0-0.2-0.1
		c-0.2-0.2-0.4-0.2-0.5-0.2c-0.6,0-0.9,0.4-0.9,1.1L62,170.7L62,170.7z"/>
	<path id="path62" inkscape:connector-curvature="0" class="st1" d="M65.8,166.5c0,0.1,0,0.1,0.1,0.1c0.4,0,0.6,0.1,0.6,0.4
		c0,0.2-0.2,0.4-0.4,0.4h-0.2c-0.1,0-0.1,0-0.1,0.1v0l0,2.6v0c0,0.3,0.1,0.4,0.3,0.4l0.1,0c0.2,0,0.3,0.2,0.3,0.4
		c0,0.2-0.2,0.4-0.5,0.4c-0.7,0-0.9-0.3-0.9-0.9v0l0-2.8v0c0-0.1,0-0.1-0.1-0.1h0c-0.3,0-0.5-0.1-0.5-0.4c0-0.2,0.2-0.4,0.5-0.4h0.1
		c0.1,0,0.1,0,0.1-0.1v-0.1l0-1.3v-0.1c0-0.3,0.1-0.4,0.4-0.4c0.2,0,0.4,0.2,0.4,0.4v0L65.8,166.5L65.8,166.5L65.8,166.5z"/>
	<path id="path64" inkscape:connector-curvature="0" class="st1" d="M67.3,167.2L67.3,167.2c0-0.3,0.2-0.5,0.4-0.5
		c0.2,0,0.4,0.2,0.4,0.4v3.6c0,0.3-0.1,0.5-0.4,0.5c-0.2,0-0.4-0.1-0.4-0.4L67.3,167.2L67.3,167.2z M67.7,165.6
		c-0.2,0-0.4-0.2-0.4-0.4c0-0.2,0.2-0.4,0.4-0.4c0.2,0,0.4,0.2,0.4,0.4C68.1,165.4,67.9,165.6,67.7,165.6L67.7,165.6z"/>
	<path id="path66" inkscape:connector-curvature="0" class="st1" d="M70.8,169.8C70.8,169.8,70.8,169.8,70.8,169.8
		C70.8,169.9,70.8,169.9,70.8,169.8c0.1,0.1,0.1,0.1,0.1,0l1.2-2.8c0.1-0.2,0.2-0.3,0.4-0.3c0.2,0,0.4,0.1,0.4,0.3
		c0,0.1,0,0.2-0.1,0.3l-1.6,3.7c-0.1,0.2-0.2,0.2-0.3,0.2c-0.2,0-0.3-0.1-0.4-0.3l-1.6-3.6c0,0,0,0,0,0c0-0.1-0.1-0.2-0.1-0.2
		c0-0.2,0.2-0.4,0.4-0.4c0.1,0,0.3,0.1,0.3,0.2l0,0L70.8,169.8L70.8,169.8z"/>
	<path id="path68" inkscape:connector-curvature="0" class="st1" d="M76.5,168.6c0.2,0,0.2,0,0.2-0.1c0-0.6-0.6-1.2-1.3-1.2
		c-0.7,0-1.3,0.6-1.3,1.2c0,0,0,0.1,0.1,0.1h0.1L76.5,168.6L76.5,168.6z M74.3,169.3L74.3,169.3c-0.1,0-0.1,0-0.1,0.1
		c0,0.6,0.6,1.2,1.3,1.2c0.3,0,0.6-0.1,0.9-0.4c0.1-0.1,0.2-0.1,0.3-0.1c0.2,0,0.3,0.1,0.3,0.4c0,0.1,0,0.2-0.2,0.3
		c-0.4,0.3-0.9,0.5-1.4,0.5c-1.2,0-2-0.9-2-2.3c0-0.4,0.1-0.9,0.2-1.2c0.3-0.7,1-1.2,1.9-1.2c1.1,0,2,0.9,2,2c0,0.5-0.1,0.7-0.6,0.7
		L74.3,169.3L74.3,169.3L74.3,169.3z"/>
	<path id="path70" inkscape:connector-curvature="0" class="st0" d="M84.2,167.9c-0.2-0.4-0.6-0.5-1-0.5c-0.5,0-0.9,0.2-1.1,0.6
		c-0.2,0.3-0.2,0.4-0.2,1c0,0.7,0,0.8,0.3,1.1c0.2,0.3,0.7,0.5,1,0.5c0.4,0,0.9-0.2,1.1-0.6c0.2-0.2,0.2-0.4,0.2-1v-0.1
		C84.4,168.4,84.4,168.2,84.2,167.9L84.2,167.9z M81.8,167C81.8,167,81.9,167,81.8,167C81.9,167,81.9,167,81.8,167
		c0.1,0,0.1,0,0.1,0c0.3-0.2,0.8-0.4,1.2-0.4c0.5,0,1,0.2,1.4,0.6c0.5,0.4,0.6,1,0.6,1.8c0,0.6-0.1,1-0.3,1.4c-0.4,0.6-1,1-1.8,1
		c-0.4,0-0.9-0.1-1.2-0.4l0,0l0,0c0,0,0,0,0,0c0,0,0,0,0,0.1c0,0.2-0.2,0.4-0.4,0.4c-0.2,0-0.3-0.1-0.3-0.4v-0.1l0-5.6v0
		c0-0.3,0.1-0.4,0.4-0.4c0.2,0,0.4,0.2,0.4,0.5L81.8,167L81.8,167z"/>
	<path id="path72" inkscape:connector-curvature="0" class="st0" d="M87.8,165.8L87.8,165.8c-0.1,0.1-0.2,0.1-0.3,0.1
		c-0.2,0-0.3-0.2-0.3-0.3c0-0.1,0.1-0.2,0.2-0.3l0.1,0l0.8-0.4c0,0,0.1,0,0.1,0c0.1,0,0.1-0.1,0.2-0.1c0.2,0,0.3,0.2,0.3,0.3
		c0,0.1-0.1,0.2-0.2,0.3l-0.1,0L87.8,165.8L87.8,165.8z M89,168.6c0.2,0,0.2,0,0.2-0.1c0-0.6-0.6-1.2-1.3-1.2
		c-0.7,0-1.3,0.6-1.3,1.2c0,0,0,0.1,0.1,0.1h0.1L89,168.6L89,168.6z M86.8,169.3L86.8,169.3c-0.1,0-0.1,0-0.1,0.1
		c0,0.6,0.6,1.2,1.3,1.2c0.3,0,0.6-0.1,0.9-0.4c0.1-0.1,0.2-0.1,0.3-0.1c0.2,0,0.3,0.1,0.3,0.4c0,0.1,0,0.2-0.2,0.3
		c-0.4,0.3-0.9,0.5-1.4,0.5c-1.2,0-2-0.9-2-2.3c0-0.4,0.1-0.9,0.2-1.2c0.3-0.7,1-1.2,1.9-1.2c1.1,0,2,0.9,2,2c0,0.5-0.1,0.7-0.6,0.7
		L86.8,169.3L86.8,169.3L86.8,169.3z"/>
	<path id="path74" inkscape:connector-curvature="0" class="st0" d="M93.9,166.7L93.9,166.7c0.4,0,0.6,0.1,0.6,0.3
		c0,0.1-0.1,0.2-0.1,0.3c0,0,0,0,0,0l-2.6,3l0,0l0,0c0,0,0,0,0,0c0,0,0,0,0,0c0,0,0,0,0.1,0h0l2.2,0h0.1c0.3,0,0.4,0.1,0.4,0.4
		c0,0.2-0.1,0.4-0.4,0.4h-3.1c-0.3,0-0.5-0.1-0.5-0.3c0-0.1,0-0.2,0.2-0.3c0-0.1,0,0,0.1-0.1l2.6-3l0,0c0,0,0,0,0-0.1c0,0,0,0-0.1,0
		H91c-0.3,0-0.5-0.1-0.5-0.4c0-0.3,0.1-0.4,0.5-0.4L93.9,166.7L93.9,166.7z"/>
	<path id="path76" inkscape:connector-curvature="0" class="st0" d="M95.2,167.2L95.2,167.2c0-0.3,0.2-0.5,0.4-0.5
		c0.2,0,0.4,0.2,0.4,0.4v3.6c0,0.3-0.1,0.5-0.4,0.5c-0.2,0-0.3-0.1-0.3-0.4L95.2,167.2L95.2,167.2z M95.6,165.6
		c-0.2,0-0.4-0.2-0.4-0.4c0-0.2,0.2-0.4,0.4-0.4c0.2,0,0.4,0.2,0.4,0.4C96,165.4,95.8,165.6,95.6,165.6z"/>
	<path id="path78" inkscape:connector-curvature="0" class="st0" d="M100.1,168.6c0.2,0,0.2,0,0.2-0.1c0-0.6-0.6-1.2-1.3-1.2
		c-0.7,0-1.3,0.6-1.3,1.2c0,0,0,0.1,0.1,0.1h0.1L100.1,168.6L100.1,168.6z M97.8,169.3L97.8,169.3c-0.1,0-0.1,0-0.1,0.1
		c0,0.6,0.6,1.2,1.3,1.2c0.3,0,0.6-0.1,0.9-0.4c0.1-0.1,0.2-0.1,0.3-0.1c0.2,0,0.3,0.1,0.3,0.4c0,0.1,0,0.2-0.2,0.3
		c-0.4,0.3-0.9,0.5-1.4,0.5c-1.2,0-2-0.9-2-2.3c0-0.4,0.1-0.9,0.2-1.2c0.3-0.7,1-1.2,1.9-1.2c1.1,0,2,0.9,2,2c0,0.5-0.1,0.7-0.6,0.7
		L97.8,169.3L97.8,169.3L97.8,169.3z"/>
	<path id="path80" inkscape:connector-curvature="0" class="st0" d="M102.7,170.7L102.7,170.7c0,0.4-0.1,0.5-0.4,0.5
		c-0.3,0-0.4-0.1-0.4-0.4v-3.6c0-0.3,0.1-0.5,0.4-0.5c0.1,0,0.2,0.1,0.3,0.2c0,0.1,0.1,0.1,0.1,0.1c0,0,0,0,0.1,0
		c0.3-0.2,0.6-0.3,0.8-0.3c0.3,0,0.7,0.1,0.9,0.3c0.1,0.1,0.2,0.2,0.2,0.3c0,0.2-0.2,0.4-0.4,0.4c-0.1,0-0.1,0-0.2-0.1
		c-0.2-0.2-0.4-0.2-0.5-0.2c-0.6,0-0.9,0.4-0.9,1.1L102.7,170.7L102.7,170.7z"/>
	<path id="path82" inkscape:connector-curvature="0" class="st0" d="M107.1,168.5c0.6,0.1,0.9,0.2,1.1,0.4c0.4,0.2,0.6,0.5,0.6,1
		c0,0.8-0.7,1.4-1.7,1.4c-0.8,0-1.5-0.2-2-0.7c-0.1-0.1-0.1-0.2-0.1-0.2c0-0.2,0.1-0.4,0.3-0.4c0.1,0,0.1,0,0.3,0.1l0.1,0.1
		c0.4,0.3,0.9,0.4,1.4,0.4c0.6,0,1-0.2,1-0.6c0-0.3-0.2-0.5-0.6-0.6c0,0-0.2,0-0.4-0.1c-0.1,0-0.2,0-0.3-0.1l-0.4-0.1
		c-0.9-0.2-1.3-0.6-1.3-1.3c0-0.8,0.7-1.4,1.8-1.4c0.7,0,1.4,0.3,1.7,0.7c0.1,0.1,0.1,0.2,0.1,0.2c0,0.1-0.1,0.3-0.2,0.4
		c0,0-0.1,0-0.1,0c-0.1,0-0.1,0-0.2-0.1l-0.1-0.1c0,0,0,0-0.1-0.1c-0.4-0.3-0.7-0.4-1.1-0.4c-0.6,0-1,0.3-1,0.7
		c0,0.3,0.2,0.5,0.7,0.6l0.2,0L107.1,168.5L107.1,168.5z"/>
	<path id="path84" inkscape:connector-curvature="0" class="st0" d="M113.1,166.9L113.1,166.9c0,0.1,0,0.1,0,0.1c0,0,0,0,0,0
		c0,0,0,0,0,0c0,0,0,0,0.1-0.1c0.3-0.2,0.7-0.3,1.1-0.3c1.2,0,2,0.9,2,2.1v2.1c0,0.3-0.1,0.4-0.4,0.4c-0.3,0-0.3-0.1-0.3-0.5V169
		c0-0.8-0.1-1.1-0.6-1.4c-0.2-0.1-0.4-0.2-0.7-0.2c-0.5,0-1,0.4-1.2,0.9c0,0.2-0.1,0.4-0.1,0.7v0.1l0,1.8v0.1c0,0.2-0.1,0.4-0.4,0.4
		c-0.2,0-0.4-0.2-0.4-0.4v-5.7c0-0.3,0.1-0.5,0.4-0.5c0.2,0,0.4,0.2,0.4,0.4L113.1,166.9L113.1,166.9z"/>
	<path id="path86" inkscape:connector-curvature="0" class="st0" d="M119.3,165.8L119.3,165.8c-0.1,0.1-0.2,0.1-0.3,0.1
		c-0.2,0-0.3-0.2-0.3-0.3c0-0.1,0.1-0.2,0.2-0.3l0.1,0l0.8-0.4c0,0,0.1,0,0.1,0c0.1,0,0.1-0.1,0.2-0.1c0.2,0,0.3,0.2,0.3,0.3
		c0,0.1-0.1,0.2-0.2,0.3l-0.1,0L119.3,165.8L119.3,165.8z M120.4,168.6c0.2,0,0.2,0,0.2-0.1c0-0.6-0.6-1.2-1.3-1.2
		c-0.7,0-1.3,0.6-1.3,1.2c0,0,0,0.1,0.1,0.1h0.1L120.4,168.6L120.4,168.6z M118.2,169.3L118.2,169.3c-0.1,0-0.1,0-0.1,0.1
		c0,0.6,0.6,1.2,1.3,1.2c0.3,0,0.6-0.1,0.9-0.4c0.1-0.1,0.2-0.1,0.3-0.1c0.2,0,0.3,0.1,0.3,0.4c0,0.1,0,0.2-0.2,0.3
		c-0.4,0.3-0.9,0.5-1.4,0.5c-1.2,0-2-0.9-2-2.3c0-0.4,0.1-0.9,0.2-1.2c0.3-0.7,1.1-1.2,1.9-1.2c1.1,0,2,0.9,2,2
		c0,0.5-0.1,0.7-0.6,0.7L118.2,169.3L118.2,169.3L118.2,169.3z"/>
	<path id="path88" inkscape:connector-curvature="0" class="st0" d="M123,170.7L123,170.7c0,0.4-0.1,0.5-0.4,0.5
		c-0.2,0-0.4-0.1-0.4-0.4v-3.6c0-0.3,0.1-0.5,0.4-0.5c0.1,0,0.2,0.1,0.3,0.2c0,0.1,0.1,0.1,0.1,0.1c0,0,0,0,0.1,0
		c0.3-0.2,0.6-0.3,0.8-0.3c0.3,0,0.7,0.1,0.9,0.3c0.1,0.1,0.2,0.2,0.2,0.3c0,0.2-0.2,0.4-0.4,0.4c-0.1,0-0.1,0-0.2-0.1
		c-0.2-0.2-0.4-0.2-0.5-0.2c-0.6,0-0.9,0.4-0.9,1.1L123,170.7L123,170.7z"/>
	<path id="path90" inkscape:connector-curvature="0" class="st0" d="M128.6,167.8c-0.2-0.3-0.6-0.5-1-0.5c-0.6,0-1.2,0.5-1.3,1.1
		c0,0.1,0,0.3,0,0.5c0,0.4,0,0.6,0.1,0.8c0.2,0.5,0.7,0.8,1.2,0.8c0.4,0,0.8-0.2,1-0.5c0.2-0.3,0.2-0.5,0.2-1.1v-0.1
		C128.8,168.3,128.8,168.1,128.6,167.8L128.6,167.8z M129.6,170.1c0,0.2,0,0.3,0.2,0.4l0,0c0.1,0.1,0.1,0.2,0.1,0.2
		c0,0.2-0.1,0.4-0.3,0.4c-0.2,0-0.5-0.1-0.6-0.4c0,0,0,0,0,0c0,0,0,0-0.1,0c-0.4,0.3-0.8,0.5-1.3,0.5c-0.6,0-1.2-0.3-1.6-0.8
		c-0.3-0.4-0.5-0.9-0.5-1.6c0-0.7,0.1-1.1,0.5-1.6c0.4-0.5,1-0.7,1.6-0.7c0.4,0,0.7,0.1,1.1,0.4c0,0,0,0,0,0c0,0,0,0,0.1,0
		c0,0,0.1,0,0.1-0.1c0-0.2,0.2-0.3,0.3-0.3c0.2,0,0.4,0.2,0.4,0.4L129.6,170.1L129.6,170.1z"/>
	<path id="path92" inkscape:connector-curvature="0" class="st0" d="M130.9,167.2L130.9,167.2c0-0.3,0.1-0.5,0.4-0.5
		c0.3,0,0.4,0.1,0.4,0.4v2c0,0.8,0.5,1.4,1.3,1.4c0.6,0,1-0.3,1.2-0.8c0-0.2,0.1-0.5,0.1-0.8v-1.8c0-0.3,0.2-0.4,0.4-0.4
		c0.2,0,0.4,0.2,0.4,0.4v3.5c0,0.4-0.1,0.6-0.4,0.6c-0.2,0-0.3-0.1-0.4-0.3c0,0,0,0,0,0c0,0,0,0-0.1,0c-0.3,0.3-0.7,0.4-1.2,0.4
		c-1.2,0-2-0.9-2-2.1L130.9,167.2L130.9,167.2z"/>
	<path id="path94" inkscape:connector-curvature="0" class="st0" d="M136.9,170.2L136.9,170.2c0,0.3,0,0.4,0.2,0.5
		c0.1,0.1,0.2,0.2,0.2,0.3c0,0.2-0.2,0.4-0.4,0.4c-0.4,0-0.7-0.4-0.7-1v-5.1c0-0.3,0.1-0.5,0.4-0.5c0.2,0,0.3,0.2,0.3,0.4
		L136.9,170.2L136.9,170.2z"/>
	<path id="path96" inkscape:connector-curvature="0" class="st0" d="M139.3,166.5c0,0.1,0,0.1,0.1,0.1c0.4,0,0.6,0.1,0.6,0.4
		c0,0.2-0.2,0.4-0.4,0.4h-0.2c-0.1,0-0.1,0-0.1,0.1v0l0,2.6v0c0,0.3,0.1,0.4,0.3,0.4l0.1,0c0.2,0,0.3,0.2,0.3,0.4
		c0,0.2-0.2,0.4-0.5,0.4c-0.7,0-0.9-0.3-0.9-0.9v0l0-2.8v0c0-0.1,0-0.1-0.1-0.1h0c-0.3,0-0.5-0.1-0.5-0.4c0-0.2,0.2-0.4,0.5-0.4h0
		c0.1,0,0.1,0,0.1-0.1v-0.1l0-1.3v-0.1c0-0.3,0.1-0.4,0.4-0.4c0.2,0,0.4,0.2,0.4,0.4v0L139.3,166.5L139.3,166.5L139.3,166.5z"/>
	<path id="path105" inkscape:connector-curvature="0" class="st0" d="M102.7,170.7L102.7,170.7c0,0.4-0.1,0.5-0.4,0.5
		c-0.3,0-0.4-0.1-0.4-0.4v-3.6c0-0.3,0.1-0.5,0.4-0.5c0.1,0,0.2,0.1,0.3,0.2c0,0.1,0.1,0.1,0.1,0.1c0,0,0,0,0.1,0
		c0.3-0.2,0.6-0.3,0.8-0.3c0.3,0,0.7,0.1,0.9,0.3c0.1,0.1,0.2,0.2,0.2,0.3c0,0.2-0.2,0.4-0.4,0.4c-0.1,0-0.1,0-0.2-0.1
		c-0.2-0.2-0.4-0.2-0.5-0.2c-0.6,0-0.9,0.4-0.9,1.1L102.7,170.7L102.7,170.7z"/>
	<path id="path107" inkscape:connector-curvature="0" class="st0" d="M123,170.7L123,170.7c0,0.4-0.1,0.5-0.4,0.5
		c-0.2,0-0.4-0.1-0.4-0.4v-3.6c0-0.3,0.1-0.5,0.4-0.5c0.1,0,0.2,0.1,0.3,0.2c0,0.1,0.1,0.1,0.1,0.1c0,0,0,0,0.1,0
		c0.3-0.2,0.6-0.3,0.8-0.3c0.3,0,0.7,0.1,0.9,0.3c0.1,0.1,0.2,0.2,0.2,0.3c0,0.2-0.2,0.4-0.4,0.4c-0.1,0-0.1,0-0.2-0.1
		c-0.2-0.2-0.4-0.2-0.5-0.2c-0.6,0-0.9,0.4-0.9,1.1L123,170.7L123,170.7z"/>
</g>
</svg>
