<?xml version="1.0" encoding="utf-8"?>
<!-- Generator: Adobe Illustrator 26.0.2, SVG Export Plug-In . SVG Version: 6.00 Build 0)  -->
<svg version="1.1" id="Calque_1" xmlns="http://www.w3.org/2000/svg" xmlns:xlink="http://www.w3.org/1999/xlink" x="0px" y="0px"
	 width="345.7px" height="428.2px" viewBox="0 0 345.7 428.2" style="enable-background:new 0 0 345.7 428.2;" xml:space="preserve"
	>
<style type="text/css">
	.st0{fill:#FFFFFF;}
	.st1{fill:#E32213;}
</style>
<g id="BIARRITZ">
	<polygon class="st0" points="63.9,0 0,103.3 173.1,428.2 345.7,103.3 281.8,0 	"/>
	<polygon class="st1" points="75,19.9 23,104.1 173,385.8 322.7,104 270.7,19.9 	"/>
	<polygon class="st0" points="83.4,35 40.4,104.6 42.9,109.2 161.6,332.6 172.9,353.6 180.8,338.6 301.8,111 305.3,104.5 262.3,35 	
		"/>
	<rect x="95.8" y="47.7" class="st1" width="41.4" height="22"/>
	<rect x="152.2" y="47.7" class="st1" width="41.3" height="22"/>
	<rect x="208.5" y="47.7" class="st1" width="41.4" height="22"/>
	<polygon class="st1" points="152.2,165.8 152.2,287.7 172.8,326.6 193.5,287.7 193.5,165.8 	"/>
	<polygon class="st1" points="208.5,165.8 208.5,259.5 249.9,181.6 249.9,165.8 	"/>
	<polygon class="st1" points="95.8,165.8 95.8,181.6 137.2,259.5 137.2,165.8 	"/>
	<path class="st1" d="M120.1,124h7.8c7.8,0,13.4,0.4,13.4,6.9c0,5.6-4.6,6.8-10.5,6.8h-10.7L120.1,124 M120.1,98h8.6
		c5.2,0,9.9,0.1,9.9,5.9c0,4.3-3.5,6.5-8.4,6.5h-10.1V98 M95.7,80.7v74.4H132c19.3,0,32-5.8,32-22.4c0-8.1-4.3-15-12.4-17
		c4.7-3,9.7-8.6,9.7-16.2c0-14.8-13.3-18.7-30.1-18.7L95.7,80.7"/>
	<path class="st1" d="M198.6,117.5c0-9.4,3.3-20.6,14.4-20.6c10.7-0.3,14.9,10.4,14.9,20.6c0,12.3-4.1,21.4-14.7,21.4
		C201.5,138.8,198.6,127,198.6,117.5 M174.2,117.2c0,25.3,15.6,39.8,39,39.8c22,0,39.1-14.3,39.1-39.6c0-19.6-12.5-38.7-39.1-38.7
		C190,78.7,174.2,93.9,174.2,117.2"/>
</g>
</svg>
