<?xml version="1.0" encoding="utf-8"?>
<!-- Generator: Adobe Illustrator 26.0.2, SVG Export Plug-In . SVG Version: 6.00 Build 0)  -->
<svg version="1.1"
	 id="Calque_1" xmlns:cc="http://creativecommons.org/ns#" xmlns:dc="http://purl.org/dc/elements/1.1/" xmlns:inkscape="http://www.inkscape.org/namespaces/inkscape" xmlns:rdf="http://www.w3.org/1999/02/22-rdf-syntax-ns#" xmlns:sodipodi="http://sodipodi.sourceforge.net/DTD/sodipodi-0.dtd" xmlns:svg="http://www.w3.org/2000/svg"
	 xmlns="http://www.w3.org/2000/svg" xmlns:xlink="http://www.w3.org/1999/xlink" x="0px" y="0px" width="600px" height="600px"
	 viewBox="0 0 600 600" style="enable-background:new 0 0 600 600;" xml:space="preserve">
<style type="text/css">
	.st0{fill:#530D34;}
	.st1{fill:#6A233F;}
	.st2{fill-rule:evenodd;clip-rule:evenodd;}
	.st3{fill-rule:evenodd;clip-rule:evenodd;fill:#F9A240;}
	.st4{fill-rule:evenodd;clip-rule:evenodd;fill:#12100B;}
	.st5{fill-rule:evenodd;clip-rule:evenodd;fill:#181613;}
	.st6{fill-rule:evenodd;clip-rule:evenodd;fill:#13120D;}
	.st7{fill-rule:evenodd;clip-rule:evenodd;fill:#FFFFFF;}
	.st8{fill:#1C4586;}
	.st9{fill:#FFFFFF;}
</style>
<sodipodi:namedview  bordercolor="#666666" borderopacity="1" gridtolerance="10" guidetolerance="10" id="namedview43" inkscape:current-layer="Calque_1" inkscape:cx="300.58002" inkscape:cy="348.0559" inkscape:pageopacity="0" inkscape:pageshadow="2" inkscape:window-height="691" inkscape:window-maximized="1" inkscape:window-width="1280" inkscape:window-x="0" inkscape:window-y="1" inkscape:zoom="0.70710678" objecttolerance="10" pagecolor="#ffffff" showgrid="false" showguides="true">
	</sodipodi:namedview>
<g id="g4520" transform="matrix(1.0003507,0,0,1.0003507,0,-0.2104009)">
	<g id="g4515">
		<circle id="path4444" class="st0" cx="299.9" cy="300.1" r="299.9"/>
		<circle id="circle4446" class="st1" cx="299.9" cy="300.1" r="285.4"/>
		<circle id="circle4448" class="st0" cx="299.9" cy="300.1" r="206.5"/>
	</g>
	<g id="g4548" transform="matrix(1.559581,0,0,1.559581,501.27348,95.44373)">
		<g id="g4530">
			<g id="g4512">
				<g id="g5" transform="matrix(0.71953573,0,0,0.71953573,-279.79179,-0.75417308)">
					<path id="path4314" inkscape:connector-curvature="0" sodipodi:nodetypes="cccccc" class="st2" d="M277.7,211.6
						c20.5-26.7,36.3-56.3,45.2-87.3c-34.1-16.7-72.2-35-111.8-31.9c-0.6,0-1.2,0-1.9,0v176.9C235.8,254,258.5,236.7,277.7,211.6z"
						/>
					<path id="path7" inkscape:connector-curvature="0" sodipodi:nodetypes="cccc" class="st2" d="M322.9,118.7
						c-40.4-17.1-78-31.7-113.7-31.9v188C270,238.6,303.8,183.7,322.9,118.7z"/>
				</g>
				<g id="g4504">
					<path id="path9" inkscape:connector-curvature="0" class="st3" d="M-68.2,110.1c-1-0.2-2-0.3-3-0.5c-3.2-0.3-6.1-0.7-9.2-1.5
						c-0.4-0.1,3.7-2.2,4.6-2.7c1.5-0.9,1.5-1.7,1.6-3.4c0-1.8,3.5-2.5,4.9-2.8c0.7-0.1-1-1-1.3-1.1c-1.2,0.1-2.4,0.2-3.6,0.3
						c-2.7,1.4-5.5,2.7-8.2,4.1c-0.4,0.2-0.8,0.4-1.3,0.6c-2.2-2.3-5.2-1-6.9-2.8c-0.3-0.3,0.1-0.5,0.4-0.1c0.7,1,2.2,0.6,3.5,0.6
						c0.4,0,0.3-1.4,0.3-1.9c0.1-0.4-3.3,0-4.1-0.9c-0.1-0.2-1-1.5-0.7-1.1c0.2-0.1,0.3-0.3,0.5,0.3c0.1,0.3,0.7,0.9,1,1
						c0.3,0.1,0.7,0.1,1.2,0.2c0.4,0.1,0.8,0,1.1,0.1c0.6,0,0.9-0.2,0.8-0.3c0.2-1,0.2-1.8,0.6-2.5c0-0.5-0.1-0.6-0.1-0.9
						c-0.1-0.4-0.1-0.4-0.6-0.7c-0.6-0.3-1.9-0.4-3-0.5c-0.7-0.1-1.6-0.4-1.9-0.6c-0.4-0.2-2-0.3-2.9-0.3c-1.3,0-1.2-1-1-2.1
						c-0.8,0.4-1.6,0.8-2.4,1.2c-2.6,1.5-4.3,3.2-7.3,2.9c0.5,0.5,0.9,1,1.4,1.5c-0.6,0.7-1.2,0.8-2.1,0.7c0.4,0.6,0.9,1.1,1.3,1.7
						c0.3,0.7-1.7,1.3-2.2,1.4c1,0.7,1.3,0.7,1.4,1.4c0.5,0.6-0.7,1.3-1.6,1.8c0.7,0.3,1.5,0.5,2.2,0.8c1.1,0.3-0.9,2.4-1.3,2.8
						c0.8,0.2,1.6,0.5,2.4,0.7c0.8,0.2-0.7,1.7-0.9,2.3c-0.2,0.4,3.1,2.1,3.1,2.1c0.1,0.1,0.2,0.3,0.3,0.4c0.1,0.1,0.2,0.2,0.3,0.3
						c0.7,0.7-1.8,0.7-2.3,0.6c-2.1,2.7-5,4.3-8,5.8c-0.5,0.3-1.1,0.4-1.6,0.7c-0.4,0.2-0.7,0.1-1,0c-1.4-0.2-1.5-0.9-1.5-1
						c0.1-0.5-0.2-0.2,0.3-1.2c0.2-0.4,0.3-0.8,1.1-2.2c0-0.1,0.1-0.1,0.2-0.2c2.8-3.6,7.9-7.5,5-12.6c-0.7-0.7-1.4-1.5-2.1-2.2
						c-0.6-0.4-1.2-0.8-1.8-1c-0.6-0.2-1-0.2-1.4-0.5c-1.1,0-3.3-0.7-4.9,0.3c-5.8,3.7-3.2,7.7-1.8,12.9c0.2-0.1,0.3-0.2,0.5-0.4
						c1.3-1.4,1.5-1.9,2.5-3.6c0.8-1.6,0.1-2.3,0-3c-0.6-0.5-1.1-1.1-1.7-1.6c0.5-1.1,0.9-1.3,1.8-1.9c0.3-0.3,3.1-0.1,3.9,0.5
						c0.8,0.5,1.2,0.5,1.6,0.9c0.9,1,1.5,2,1.5,3.1c-0.1,1.1-0.6,1.5-0.9,2.4c-0.6,0.9-1.2,1.5-2,2.4c-3.1,2.5-5.2,6.5-4.5,10
						c0.2,1.6,3.3,2.4,4.6,2.8c1.3,0.4,1.3,3.2,1.6,4.6c0.5,2.5-4,3.2-3.5,6.4c0.2,1.2,2.9,1.7,3.9,2.2c1.8,1.1,3.5,2.1,5.3,3.2
						c2.2,0,4.5,0.1,6.7,0.1c-0.2-0.5-0.4-1-0.6-1.5c-0.8-1.3-4.5-1.4-6-1.5c-1.4-1-2.8-1.9-4.3-2.9c0.6-0.8,1.2-1.6,1.8-2.4
						c0.4-0.5,2.3,0.8,2.9,1.1c1-0.2,2-0.4,3-0.7c0.6-2,3.2-1.7,2.6-5.1c0.1,0,0.2,0,0.3,0c2,0.8,3.3,1.9,5.6,1.5
						c0.2,0.1,0.4,0.3,0.6,0.4c0.2,0.2,0.5,0.3,0.3,0.6c-1.4,2.5-2.1,3.5-2.2,6.4c-0.1,1.3,2.4,0.7,3.6,0.7c4,0,8-0.1,11.9-0.1
						c1.1-0.1-1.4-2.1-2.1-2.3c-2.6-0.7-6.1-0.8-8.7-0.3c0.1-0.2,0.2-0.4,0.2-0.6c1.3-2.1,3.9-2.3,5.3-4.3c0-0.7,0-1.4,0-2.1
						c-0.6-2.7-8.2-4.4-10.6-5.6c-0.2-0.1-0.4-0.2-0.7-0.3c3.6-2.1,8.9-3,11.2-6.8l2.1-0.2c0.6-0.1,1.3,1,1.5,1.5
						c0.5-0.7,1-1.4,1.5-2.1c0.1-0.2,1.8,1.7,1.9,2.2c0.6-0.8,1.1-1.5,1.7-2.3c0.3,0.4,0.5,0.7,0.8,1.1c0.3-0.5,0.7-1.1,1-1.6
						c2.6-0.3,4.5-0.6,7.1-0.1C-67.2,112.1-68.1,110.6-68.2,110.1"/>
					<g id="g4498">
						<path id="path11" inkscape:connector-curvature="0" class="st4" d="M-94.3,93.6c-0.2,0-0.2,0-0.3,0.3c0.1,0,0.1,0.1,0.2,0.1
							c0.5,0.1,1.1,0.2,1.6,0.2c0.1,0,0.1,0,0.1-0.2C-92.5,93.7-94,93.7-94.3,93.6"/>
						<path id="path13" inkscape:connector-curvature="0" class="st4" d="M-91.9,107.8c-3-3.6-7-6.6-7.1-9.7
							c-0.1-0.1-0.1-0.1-0.1,0.1c0.6,5,4.5,6.8,7.3,10.4c0.1,0.2,0.5,0.6,0.6,0.8c0.7,1.2,1.1,1.4,2.1,3.7
							C-89.5,111.3-90.5,109.5-91.9,107.8"/>
						<path id="path15" inkscape:connector-curvature="0" class="st5" d="M-92.9,108.9c-3-3.6-7-6.6-7.1-9.7
							c-0.1-0.1-0.1-0.1-0.1,0.1c0.6,5,4.5,6.8,7.3,10.4c0.1,0.2,0.5,0.6,0.6,0.8c0.7,1.2,1.1,1.4,2.1,3.7
							C-90.6,112.4-91.5,110.5-92.9,108.9"/>
						<path id="path17" inkscape:connector-curvature="0" class="st6" d="M-90.4,107c-3-3.6-7-6.6-7.1-9.7c-0.1-0.1-0.1-0.1-0.1,0.1
							c0.6,5,4.5,6.8,7.3,10.4c0.1,0.2,0.5,0.6,0.6,0.8c0.7,1.2,1.1,1.4,2.1,3.7C-88,110.5-89,108.7-90.4,107"/>
					</g>
				</g>
			</g>
			<g id="g4524">
				<g id="g4438" transform="matrix(-0.71953573,0,0,0.71953573,21.312327,-0.75417308)">
					<path id="path4440" inkscape:connector-curvature="0" sodipodi:nodetypes="cccccc" class="st7" d="M277.7,211.6
						c20.5-26.7,36.3-56.3,45.2-87.3c-34.1-16.7-72.2-35-111.8-31.9c-0.6,0-1.2,0-1.9,0v176.9C235.8,254,258.5,236.7,277.7,211.6z"
						/>
					<path id="path4442" inkscape:connector-curvature="0" sodipodi:nodetypes="cccc" class="st7" d="M322.9,118.7
						c-40.4-17.1-78-31.7-113.7-31.9v188C270,238.6,303.8,183.7,322.9,118.7z"/>
				</g>
				<path id="rect4326" inkscape:connector-curvature="0" sodipodi:nodetypes="cccccccccccccccccccccccccccccccc" class="st8" d="
					M-129.2,64.3h-26.5v28h26.5V64.3z M-155.8,92.3h-26.7v27.4h26.7V92.3z M-155.8,119.7v27.4h26.5v-27.4H-155.8z M-155.8,147.1
					h-29.7l29.7,30.7V147.1z M-182.4,119.7h-19.9l19.9,33.1V119.7z M-182.4,92.3V72.2L-209,87.5c0.5,1.6,0.9,3.2,1.4,4.8H-182.4z
					 M-159,174.5l29.7,24.5v-24.5H-159z"/>
			</g>
		</g>
		<g id="g4433" transform="translate(-0.45073122,0)">
			<path id="path4419" inkscape:connector-curvature="0" sodipodi:nodetypes="ccccc" class="st7" d="M-9.6,105
				c-83.3-69.4-153.6-68.1-238.1,0l-2,14c85.5-71,156.8-73.2,242.1,0L-9.6,105z"/>
			<path id="path4423" inkscape:connector-curvature="0" sodipodi:nodetypes="csccscc" class="st7" d="M-222,52.4
				c4.2,41.2,15.2,73.1,32.1,98.9c27.7,42.1,71.7,66.2,138.3,75.5l10.3-9.8c-71-6.3-111.2-29.3-139.6-70.8
				c-18-26.2-28.6-57.1-31.6-103.5L-222,52.4z"/>
			<path id="path4425" inkscape:connector-curvature="0" sodipodi:nodetypes="csccscc" class="st7" d="M-35.3,52.4
				c-4.2,41.2-15.2,73.1-32.1,98.9c-27.7,42.1-71.7,66.2-138.3,75.5L-216,217c71-6.3,111.2-29.3,139.6-70.8
				c18-26.2,28.6-57.1,31.6-103.5L-35.3,52.4z"/>
		</g>
	</g>
	<g id="g4482">
		<g id="g4394" transform="translate(-601.29658,0)">
			<g id="g4376">
				
					<path id="path4271" inkscape:connector-curvature="0" sodipodi:nodetypes="scccccssccsssccscccccccccccsccccccc" class="st9" d="
					M728.8,88.3c-3.5,0.2-7.2,2-10.9,5.2L705,104.6l0.7,0.8l30.9,35.8l13.3-11.5c4-3.5,6.5-7.1,7.2-11c0.7-3.8-0.4-7.5-3.3-10.8
					c-2.2-2.5-4.7-4.1-7.7-4.6c-2-0.4-4,0-6,0.6c0.7-1.4,1.1-2.8,1.1-4.3c-0.1-2.4-1.2-4.8-3.2-7C735.5,89.6,732.3,88.1,728.8,88.3z
					 M727.9,96.3L727.9,96.3c1.6-0.1,2.9,0.5,4.3,2.1c1.4,1.6,1.8,3.1,1.5,4.6c-0.3,1.5-1.5,3.3-3.7,5.2l-6.3,5.4l-7.8-9l6.3-5.4
					C724.4,97.3,726.3,96.4,727.9,96.3L727.9,96.3L727.9,96.3z M741.6,110L741.6,110L741.6,110c1.8,0,3.5,0.8,5.3,2.9
					c1.8,2,2.4,3.9,2.1,5.7c-0.3,1.8-1.5,3.7-4,5.8l-6.8,5.9l-9.8-11.3l6.8-5.9C737.6,111,739.8,110.1,741.6,110L741.6,110z"/>
				<path id="path4273" inkscape:connector-curvature="0" sodipodi:nodetypes="cscscccsccsccccccccscccsccscscc" class="st9" d="
					M773.3,57.4c-2.9,0.3-5.9,1.3-8.8,2.9c-5.9,3.2-9.7,7.9-11.1,13.9c-1.4,5.9-0.2,12.3,3.4,18.8c3.6,6.6,8.3,11,14,13h0v0
					c5.8,2,11.7,1.4,17.6-1.9c5.9-3.2,9.6-7.9,11-13.8v0c1.4-6,0.2-12.3-3.4-18.8c-3.6-6.6-8.3-11-14-13h0
					C779.1,57.4,776.2,57.1,773.3,57.4z M773.4,64.8c1.8-0.1,3.6,0.2,5.5,1h0l0,0c3.7,1.6,6.9,4.8,9.7,9.8c2.7,5,3.7,9.4,3,13.4v0v0
					c-0.6,4-2.7,6.9-6.5,8.9c-3.8,2.1-7.4,2.3-11.1,0.7l0,0c-3.7-1.6-6.9-4.8-9.7-9.8c-2.7-5-3.7-9.4-3-13.4c0.7-4,2.8-6.9,6.6-9
					C769.7,65.4,771.5,64.9,773.4,64.8L773.4,64.8z"/>
				
					<path id="path4275" inkscape:connector-curvature="0" sodipodi:nodetypes="ccccccccccccccccccccssccccccsccccccc" class="st9" d="
					M824.9,37.6c-2.2,0-4.6,0.4-7.2,1.2l-14.5,4.3l13.7,46.3l7.9-2.3l-5.5-18.8l5.6-1.6c2.2-0.7,4-0.7,5.4-0.2l0,0h0
					c1.4,0.5,3.3,1.9,5.6,4.4l0,0l9.5,10.2l8.6-2.5l-10.8-11.5l0,0c-2-2.2-3.9-3.8-5.6-5c-1-0.7-2-1.1-3-1.4
					c1.5-1.3,2.7-2.8,3.3-4.6v0c0.8-2.5,0.8-5.2-0.1-8.1c-1.3-4.5-3.7-7.6-7.1-9.1C829,37.9,827,37.5,824.9,37.6L824.9,37.6z
					 M823.4,45c1.1,0,2,0.2,2.8,0.6l0,0l0,0c1.6,0.7,2.7,2.2,3.4,4.6s0.5,4.3-0.4,5.8c-0.9,1.5-2.6,2.7-5.4,3.5l-6.6,1.9l-4.1-13.8
					l6.6-1.9C821.1,45.2,822.3,45,823.4,45L823.4,45z"/>
				<path id="path4277" inkscape:connector-curvature="0" sodipodi:nodetypes="ccccccssccccccccsccccccccc" class="st9" d="
					M877.9,28c-2-0.1-4.1,0-6.4,0.1l-13.8,1l0.1,1l3.5,47.1l13.8-1c9-0.7,15.7-3.1,19.9-7.4c4.2-4.3,5.9-10.6,5.3-18.8
					c-0.6-8.1-3.2-14.1-8-17.7l0,0C888.7,29.8,883.9,28.3,877.9,28L877.9,28z M877.3,35.2c4,0.2,7.1,1.3,9.2,3.1l0,0l0,0
					c2.9,2.4,4.7,6.5,5.1,12.5c0.5,6.1-0.7,10.4-3.2,13.3v0l0,0c-2.5,2.8-6.7,4.6-13,5l-6.5,0.5l-2.5-33.9l6.5-0.5
					C874.5,35.1,876,35.1,877.3,35.2L877.3,35.2z"/>
				<path id="path4279" inkscape:connector-curvature="0" sodipodi:nodetypes="cccccccccccccc" class="st9" d="M918,27.4l-0.1,1
					l-6,46.9l31.5,4.1l0.9-7.2l-23.4-3l1.9-14.6l21.9,2.8l0.9-7.2l-21.9-2.8l1.5-11.6l22.8,2.9l0.9-7.2L918,27.4z"/>
				<path id="path4281" inkscape:connector-curvature="0" sodipodi:nodetypes="cccccccccccccc" class="st9" d="M980.1,39.6l-0.4,0.5
					l-32.2,39.5l8.3,2.8l7.7-9.9l18.5,6.1l0.3,12.6l8.2,2.7l-2.3-51.6L980.1,39.6z M980.9,50.5l0.7,20.4l-13.4-4.4L980.9,50.5z"/>
				<path id="path4283" inkscape:connector-curvature="0" sodipodi:nodetypes="ccsccccccccccccsccccc" class="st9" d="M1019.4,54.8
					l-0.5,0.9l-14.5,25c-3.1,5.4-4.2,10.3-3.1,14.8v0v0c1.1,4.5,4.4,8.2,9.6,11.3c5.2,3,10.1,4,14.5,2.7c4.4-1.3,8.2-4.7,11.3-10
					l15-25.9l-7.2-4.2l-14.6,25.2c-2.4,4.2-4.9,6.6-7.2,7.5c0,0,0,0,0,0c0,0,0,0,0,0c-2.3,0.8-5,0.4-8.3-1.5c-3.3-1.9-5-4.1-5.4-6.5
					c-0.4-2.4,0.5-5.8,2.9-10l14.6-25.2L1019.4,54.8L1019.4,54.8z"/>
				<path id="path4285" inkscape:connector-curvature="0" sodipodi:nodetypes="cccccccccccccc" class="st9" d="M1066.9,84.3
					l-0.3,1.9l-3.6,25l-30,7.7l6.8,6.1l22-5.7l-3.3,22.4l6.8,6.1l4.4-29.7l27.1-6.9l-6.8-6.1l-19.2,4.9l2.8-19.5L1066.9,84.3z"/>
			</g>
			<g id="g4386">
				<g id="text4241" transform="matrix(-0.35114676,-0.93632043,0.93632043,-0.35114676,936.7451,1243.763)">
					<path id="path4302" inkscape:connector-curvature="0" sodipodi:nodetypes="cccccsccccccccscccc" class="st9" d="M902.7,26.4
						l-8.3,0.4l1.4,29.1c0.2,4.8-0.5,8.2-2,10.2l0,0c-1.5,2-4,3.1-7.8,3.3c-3.8,0.2-6.4-0.7-8.1-2.5c-1.7-1.8-2.7-5.1-3-10
						l-1.4-29.1l-8.3,0.4l0,1l1.4,28.8c0.3,6.2,2.1,11,5.4,14.1l0,0c3.4,3.1,8.2,4.5,14.2,4.2c6-0.3,10.6-2.1,13.7-5.6
						c3.1-3.5,4.4-8.4,4.1-14.6L902.7,26.4L902.7,26.4z"/>
					<path id="path4304" inkscape:connector-curvature="0" sodipodi:nodetypes="ccccccccccc" class="st9" d="M925.8,27.8l-8.2,47.6
						l8,1.4l6-35.2L944.3,80l9.9,1.7l8.2-47.6l-8-1.4l-6,35.2l-12.6-38.4L925.8,27.8z"/>
					<path id="path4306" inkscape:connector-curvature="0" sodipodi:nodetypes="cccccc" class="st9" d="M982.3,40.4l-0.3,0.9
						L966.8,86l7.8,2.7L990.2,43L982.3,40.4z"/>
					<path id="path4308" inkscape:connector-curvature="0" sodipodi:nodetypes="cccsccsccccscccscccsccccccccc" class="st9" d="
						M1019,56.1c-3-0.3-5.9,0.1-8.8,1.1l0,0c-5.7,2.1-10.4,6.5-13.9,13.1c-3.5,6.6-4.6,12.9-3.2,18.9v0c1.5,5.9,5.3,10.6,11.2,13.8
						c5.9,3.2,11.9,3.7,17.6,1.7l0,0c5.7-2.1,10.4-6.5,13.9-13.1c3.5-6.6,4.6-12.9,3.2-18.9c-1.4-5.9-5.2-10.6-11.1-13.8
						C1025,57.3,1022,56.4,1019,56.1L1019,56.1z M1019,63.5c1.8,0.1,3.7,0.7,5.6,1.7c3.8,2,5.9,4.9,6.6,8.9v0v0
						c0.7,4-0.2,8.4-2.9,13.5c-2.7,5-5.9,8.2-9.6,9.9v0l0,0c-3.7,1.6-7.2,1.5-11-0.6c-3.8-2-5.9-4.9-6.7-8.9
						c-0.7-4,0.2-8.4,2.9-13.4c2.7-5,5.9-8.3,9.6-9.9C1015.4,63.7,1017.2,63.4,1019,63.5L1019,63.5z"/>
					<path id="path4310" inkscape:connector-curvature="0" sodipodi:nodetypes="cccccccccccc" class="st9" d="M1064.8,82.8l-0.7,0.8
						l-31.1,35.6l6.1,5.3l23.5-26.9l-9.2,39.3l7.6,6.6l31.7-36.4l-6.1-5.3l-23.5,26.9l9.2-39.3L1064.8,82.8z"/>
				</g>
			</g>
			<g id="g4257" transform="matrix(-1,0,0,-1,1801.9934,615.84417)">
				<g id="text4249" transform="matrix(-0.25411988,-0.96717272,0.96717272,-0.25411988,840.78439,1265.993)">
					
						<path id="path4288" inkscape:connector-curvature="0" sodipodi:nodetypes="ccccsssccssscccccsccccccccccscccccccc" class="st9" d="
						M868.9,28.5L852,30.3l0.1,1l5,47l17.5-1.9c5.3-0.6,9.4-2.2,12.2-4.9c2.8-2.7,3.9-6.4,3.5-10.8c-0.3-3.3-1.6-6.1-3.7-8.1
						c-1.4-1.4-3.3-2.3-5.3-2.9c1.4-0.8,2.5-1.7,3.3-2.9c1.3-2,1.7-4.6,1.4-7.6c-0.4-3.9-2.2-6.9-5.2-8.8
						C877.8,28.6,873.8,28,868.9,28.5z M869.2,35.6c2.9-0.3,5,0,6.3,0.9l0,0h0c1.3,0.8,2.1,2.1,2.3,4.2c0.2,2.1-0.2,3.6-1.4,4.6
						c-1.1,1.1-3.1,1.8-6,2.1l-8.2,0.9L861,36.5L869.2,35.6L869.2,35.6z M872,54.5c3.2-0.3,5.5,0.1,7,1.1l0,0l0,0
						c1.5,1,2.4,2.7,2.7,5.4c0.3,2.7-0.2,4.5-1.5,5.8c0,0,0,0,0,0c0,0,0,0,0,0c-1.2,1.3-3.4,2.2-6.6,2.5l-9,1L863,55.4L872,54.5
						L872,54.5z"/>
					<path id="path4290" inkscape:connector-curvature="0" sodipodi:nodetypes="ccccccccccccccc" class="st9" d="M901.6,26.6l-0.1,1
						l-3.2,47.2L930,77l0.5-7.2L907,68.1l1-14.7l22,1.5l0.5-7.3l-22-1.5l0.8-11.7l22.9,1.6l0.5-7.3L901.6,26.6L901.6,26.6z"/>
					
						<path id="path4292" inkscape:connector-curvature="0" sodipodi:nodetypes="ccscccscccccccccccscccsccssccccccscc" class="st9" d="
						M964,34.7c-5.1-0.5-9.6,0.5-13.6,2.9c-5.3,3.2-8.9,8.7-10.8,16.1c-2,7.5-1.5,14,1.5,19.4v0l0,0c3,5.4,8.3,9,15.5,10.9
						c3.3,0.9,6.5,1.2,9.6,1.1h0h0c3.1-0.1,6.2-0.7,9-1.8l0.5-0.2l5.4-20.7l-17.8-4.7l-1.8,6.9l9.9,2.6l-2.7,10.4
						c-1.3,0.3-2.6,0.5-4.1,0.5c-1.7-0.1-3.6-0.4-5.7-0.9c-5.3-1.4-8.7-3.8-10.5-7.3v0c0,0,0,0,0,0c-1.8-3.5-2-8.1-0.5-14
						c1.5-5.9,4-9.9,7.3-12l0,0c3.3-2.2,7.5-2.6,12.7-1.2c2.7,0.7,5.1,1.8,7.2,3.4c2.2,1.5,4.1,3.5,5.8,5.9l1.2,1.8l2.4-9.1
						l-0.4-0.4c-1.9-2.1-4.2-3.8-6.7-5.3h0c-2.5-1.5-5.3-2.6-8.3-3.3C967.5,35.2,965.7,34.9,964,34.7L964,34.7z"/>
					<path id="path4294" inkscape:connector-curvature="0" sodipodi:nodetypes="cccccccc" class="st9" d="M1001.5,47.1l-0.4,0.9
						l-19.8,42.9l28,12.9l3-6.6l-20.5-9.4l17.2-37.2L1001.5,47.1z"/>
					<path id="path4296" inkscape:connector-curvature="0" sodipodi:nodetypes="cccccccccccccc" class="st9" d="M1038,65.1l-0.6,0.8
						l-26.2,39.3l26.5,17.6l4-6l-19.6-13.1l8.2-12.3l18.3,12.2l4-6l-18.3-12.2l6.5-9.7l19.1,12.8l4-6L1038,65.1z"/>
					
						<path id="path4298" inkscape:connector-curvature="0" sodipodi:nodetypes="ccccccccccscccccsccscsccccccscscccccsscccc" class="st9" d="
						M1075.4,95.6c-4-0.3-7.6,1.2-10.6,4.4c-2.6,2.7-3.8,5.7-3.7,8.9c0.2,3.2,1.7,6.7,4.6,10.7v0l2.3,3.2c1.8,2.6,2.7,4.7,2.8,6.3v0
						v0c0.1,1.6-0.4,3.1-1.9,4.6c-1.6,1.7-3.3,2.3-5.4,2.1c-2.1-0.3-4.4-1.5-6.9-3.9c-1.6-1.5-3.1-3.4-4.3-5.5
						c-1.2-2.1-2.3-4.5-3.1-7.3l-0.5-1.6l-6.1,6.4l0.3,0.6c1.3,2.6,2.7,4.9,4.1,7l0,0c1.5,2.1,3.1,3.9,4.7,5.5
						c4.3,4.1,8.5,6.4,12.6,6.8c4.1,0.4,7.9-1.2,11.1-4.6c2.7-2.9,4.1-6.1,4-9.5v0c-0.1-3.4-1.6-7.1-4.5-11.1l-2.2-3.2l0,0
						c-2-2.8-3-4.9-3.2-6.1c-0.1-1.3,0.3-2.5,1.6-3.8c1.5-1.6,3.1-2.2,5-1.9c2,0.3,4.2,1.5,6.6,3.7c1.4,1.3,2.6,2.8,3.7,4.6
						c1.1,1.8,2.1,3.9,3.1,6.3l0.6,1.5l5.8-6.1l-0.3-0.6c-1.2-2.2-2.5-4.3-3.9-6.1c-1.4-1.9-2.9-3.6-4.5-5.1
						C1083.3,97.9,1079.4,95.9,1075.4,95.6L1075.4,95.6L1075.4,95.6L1075.4,95.6z"/>
				</g>
			</g>
		</g>
		<g id="g4475" transform="matrix(0.99821661,-0.05969589,0.05969589,0.99821661,-615.75758,53.812263)">
			<path id="path4443" inkscape:connector-curvature="0" sodipodi:nodetypes="ccccccccccccccccscccccccccsccccc" class="st0" d="
				M797.7,505.1l-14.2,36l7.3,2.9l5.5-14l3.5,1.4c1.6,0.6,2.6,1.4,3.1,2.2l0,0l0,0c0.5,0.7,1,2.5,1.2,5l0,0l1,11.1l7.9,3.1
				l-1.2-13.3c-0.2-2.3-0.5-4.3-1.1-5.9c-0.2-0.5-0.4-0.9-0.6-1.4c1.2-0.2,2.4-0.6,3.4-1.3c1.8-1.2,3.2-3,4.1-5.3
				c1.4-3.5,1.4-6.8,0-9.5c-1.5-2.8-4.3-4.8-8.3-6.4L797.7,505.1L797.7,505.1z M802.4,514.4l4.2,1.7c1.9,0.8,3,1.7,3.5,2.7l0,0l0,0
				c0.5,1,0.5,2.1-0.1,3.8s-1.5,2.5-2.5,2.9c-1,0.4-2.4,0.3-4.4-0.4l-4.2-1.7L802.4,514.4L802.4,514.4z"/>
			<path id="path4445" inkscape:connector-curvature="0" sodipodi:nodetypes="cccccsccccccccscccccc" class="st0" d="M835.3,518.9
				l-4.8,23.3c-1,4.8-0.6,8.9,1.4,12.1l0,0l0,0c2,3.2,5.6,5.3,10.3,6.2c4.7,1,8.7,0.5,11.8-1.7l0,0c3.1-2.1,5.2-5.8,6.1-10.6
				l4.8-23.3l-7.7-1.6l-4.7,22.7c-0.7,3.6-1.9,5.8-3.2,6.8c0,0,0,0,0,0c-1.3,1-3.1,1.4-5.8,0.8c-2.8-0.6-4.3-1.6-5.1-3v0
				c-0.8-1.4-1-3.9-0.2-7.5l4.7-22.7L835.3,518.9L835.3,518.9z"/>
			<path id="path4447" inkscape:connector-curvature="0" sodipodi:nodetypes="ccscccccccccccccccccsccccscccccccc" class="st0" d="
				M894.6,526.3c-5.9-0.1-10.7,1.5-14.3,5c-3.5,3.5-5.3,8.4-5.5,14.5c-0.1,6.1,1.4,11.1,4.8,14.8l0,0l0,0c3.4,3.6,8.2,5.5,14,5.7
				c2.7,0.1,5.2-0.2,7.6-0.9l0,0h0c2.4-0.7,4.6-1.7,6.7-3.1l0.6-0.4l0.4-17.6l-15.7-0.4l-0.2,7l7.9,0.2l-0.2,7.1
				c-0.8,0.3-1.5,0.7-2.4,0.9c-1.2,0.2-2.6,0.3-4.2,0.3c-4.1-0.1-6.8-1.3-8.7-3.4c-1.8-2.1-2.8-5.4-2.6-9.9c0.1-4.6,1.2-7.8,3.1-9.8
				l0,0c0,0,0,0,0,0c1.9-2,4.7-3,8.8-2.9c2,0,4,0.4,5.8,1.2c1.8,0.7,3.5,1.8,5.2,3.3l2.4,2.2l0.2-9.2l-0.7-0.5
				c-1.9-1.2-3.9-2.2-6.1-2.9h0C899.4,526.7,897,526.4,894.6,526.3L894.6,526.3z"/>
			
				<path id="path4449" inkscape:connector-curvature="0" sodipodi:nodetypes="ssccccssccssssccccscccccccccccsccccccc" class="st0" d="
				M940.8,524c-1.6-0.2-3.4-0.1-5.3,0.2l-13.7,2.1l0.2,1.5l5.5,36.7l14.1-2.1c4.2-0.6,7.4-2,9.6-4.4c2.2-2.4,3-5.5,2.5-9
				c-0.4-2.7-1.5-4.9-3.3-6.6c-0.9-0.8-1.9-1.4-3-1.9c0.5-0.5,1.1-1,1.5-1.7c1-1.8,1.3-4,0.9-6.3c-0.5-3.1-2.1-5.7-4.7-7.1
				C943.9,524.6,942.4,524.2,940.8,524z M938.9,531c0.7,0.1,1.3,0.2,1.7,0.5l0,0l0,0c0.9,0.5,1.3,1.2,1.6,2.6c0.2,1.5,0,2.3-0.7,3
				c-0.7,0.7-2,1.3-4.1,1.6l-5.6,0.8l-1.2-7.7l5.6-0.8C937.2,530.9,938.2,530.9,938.9,531L938.9,531z M941.9,545.4
				c0.8,0.1,1.5,0.3,1.9,0.6l0,0l0,0c1,0.6,1.6,1.6,1.9,3.5c0.3,1.9,0,3.1-0.8,4c-0.7,0.8-2.2,1.6-4.5,1.9l-6.2,0.9l-1.5-10l6.2-0.9
				C940.1,545.3,941.1,545.3,941.9,545.4L941.9,545.4z"/>
			<path id="path4451" inkscape:connector-curvature="0" sodipodi:nodetypes="ccccccccccc" class="st0" d="M987.4,510.7l-8.4,2.7
				l-4.5,15.6l-12.7-10.1l-8.4,2.7l2.2,1.8l17.3,13.7l5.4,17.2l7.5-2.4l-5.4-17.2L987.4,510.7z"/>
		</g>
	</g>
</g>
</svg>
