<?xml version="1.0" encoding="utf-8"?>
<!-- Generator: Adobe Illustrator 26.0.2, SVG Export Plug-In . SVG Version: 6.00 Build 0)  -->
<svg version="1.1" id="ART" xmlns="http://www.w3.org/2000/svg" xmlns:xlink="http://www.w3.org/1999/xlink" x="0px" y="0px"
	 width="1000px" height="1000px" viewBox="0 0 1000 1000" style="enable-background:new 0 0 1000 1000;" xml:space="preserve">
<style type="text/css">
	.st0{fill:#121254;}
	.st1{fill:#00A8E1;}
</style>
<g>
	<g>
		<g>
			<path class="st0" d="M757.4,196.7c23.1-15.7,35.3-35.4,36.2-58.6l12.5-1.6l-1.6-9.4c-10.4-59-45.2-83.8-63.4-92.4L755.5,19
				c0,0-24.2-2.1-45.3,0.5l18.5-14.3L700.4,7c-55.2,3.2-102,36.8-124.5,62.5l0,0l16.2,9.2c18.9,8.4,50.6,30.5,75.6,61.4
				c0,0-23.6-1.4-37.6,9.3c0,0,71.4,20.4,71.4,116c0,0-30.9-31.4-69.2-32.8c0,0-21.4,37.1-89.1,53.5c0,0,25.8-29.9,30.2-64.9
				c0,0-36.1-25.5-73.6-33.4c-37.6,7.8-73.6,33.4-73.6,33.4c4.4,34.9,30.2,64.9,30.2,64.9c-67.8-16.4-89.1-53.5-89.1-53.5
				c-38.3,1.4-69.2,32.8-69.2,32.8c0-98.4,71.4-116,71.4-116c-14-10.7-37.6-9.3-37.6-9.3c26.7-33.3,62.7-51.5,81.3-59.3l18.4-7.6
				c-14-14.1-62-58.4-123.6-69.2l-22-4l12.4,17.2c-9-1.1-20.1-1.4-33.5,0.2l-15.7,1.8l10.6,14.1c-18.8,9.3-54.1,34.3-64.5,93.7
				l-1.6,9.4l11.5,1.5c0.1,12.6,5.9,34.4,37.7,58.4c-14.5,27.2-63.1,124.5-55.1,193.5l0.9,12.2c0,0,16-8.6,17-9.5
				c7.5,34,35.5,128.1,123,180.8l8.4,5l4.4-8.7c0,0,1.2-2.4,3.6-5.5c12.1,8,42.1,29.2,86.9,71.1l1.9,1.8l2.6,0.5
				c1.4,0.2,33.6,6.1,71,6.1h2.3h0.3c36.5-0.2,54.2-6.4,54.9-6.6l1.8-0.6l1.4-1.3c44.9-41.9,74.8-63.1,86.9-71.1
				c2.4,3.1,3.6,5.4,3.6,5.4l4.4,8.8l8.4-5.1c87.5-52.7,115.5-146.8,123-180.8c0.9,0.8,16.8,9.3,16.8,9.3l1-12.1
				C820.3,321,772.2,224.5,757.4,196.7z M398.9,299.2c0,0-28,8.1-42.5-23.1c0,0-27.3-5.7-64.6,19.5c0,0,22.3-29.9,66.3-42.1
				c0,0,6.4,2.4,13.5,10.5c0,0,0,0.1-0.1,0.2c-5.4,5.4-4.8,15.5,1.6,23.4c6.9,8.5,17.8,11.2,24.4,6.2c0.4-0.3,1.3-1.1,1.3-1.1
				L398.9,299.2L398.9,299.2z M562.4,491.3c0,0,8.8-21.4,4.4-39.9c0,0-10.1-15.7-52-13.5c0,0,19.1,2.9,31.4,22.6
				c0,0-28.2,1.6-46.4,15c-19.9-12.5-46.4-15-46.4-15c9.1-17.6,31.4-22.6,31.4-22.6c-42-2.1-52,13.5-52,13.5
				c-4.4,18.5,4.4,39.9,4.4,39.9c-27.2-4.3-35.3-36.1-35.3-36.1l56-135.9l42-22.1l42,22.1l56,135.9
				C597.7,455.1,589.6,487,562.4,491.3z M643.7,276.2c-14.5,31.1-42.5,23.1-42.5,23.1v-6.4c0,0,0.9,0.8,1.3,1.1
				c6.6,5,17.5,2.2,24.4-6.2c6.4-7.9,7-18,1.6-23.4c0-0.1-0.1-0.2-0.1-0.2c7.1-8.1,13.5-10.5,13.5-10.5
				c43.9,12.1,66.3,42.1,66.3,42.1C670.9,270.5,643.7,276.2,643.7,276.2z"/>
		</g>
		<path class="st1" d="M620.7,271.1c0,0,0,0,0,0.1c2.9,3,2.5,8.4-1,12.7c-3.8,4.6-9.7,6-13.3,3.2c-0.2-0.2-0.7-0.6-0.7-0.6
			L620.7,271.1z"/>
		<path class="st1" d="M379.4,271.2c0-0.1,0-0.1,0-0.1l15,15.5c0,0-0.5,0.4-0.7,0.6c-3.6,2.8-9.5,1.3-13.3-3.2
			C376.8,279.7,376.5,274.2,379.4,271.2z"/>
	</g>
	<g>
		<g>
			<g>
				<path class="st0" d="M367.5,727.8c3.9,2,5.9,5.7,5.9,10.9v11.1c0,6-1,10.1-2.9,12.5c-1.9,2.3-5.8,3.5-11.6,3.5h-20.8v-74.6h20.6
					c5.6,0,9.4,1.1,11.3,3.5s2.9,6.5,2.9,12.5v9.8c0,5-1.4,8-5.4,10V727.8L367.5,727.8z M352.7,703.4v19.7h2.5c2.7,0,3.6-1,3.6-4
					v-11.8c0-3-0.9-3.9-3.6-3.9H352.7z M358.9,736.6c0-3-0.9-4-3.6-4h-2.7v20.9h2.7c2.7,0,3.6-0.9,3.6-3.9V736.6z"/>
				<path class="st0" d="M428.4,765.8h-13.1l-5.2-21.8h-3.7v21.8h-14.5v-74.6h20.6c5.8,0,9.6,1.1,11.5,3.5c1.9,2.3,2.9,6.5,2.9,12.5
					v21.7c0,5.3-1.6,9.2-4.9,11.7L428.4,765.8z M406.4,703.3v29.6l3.6-0.1c1.9-0.1,2.6-1.3,2.6-3.9v-21.6c0-3-0.9-4-3.6-4H406.4
					L406.4,703.3z"/>
				<path class="st0" d="M447.2,765.8v-74.6h14.5v74.6H447.2z"/>
				<path class="st0" d="M516,717.2h-14v-10.5c0-2.6-1-3.9-3.1-3.9c-2,0-3.1,1.3-3.1,3.9v9c0,3,2.3,5.4,5.3,6.8
					c1.5,0.7,3.1,1.6,4.9,2.6c3.5,2,6.7,3.9,8.7,8.1c1,2.1,1.5,4.6,1.5,7.5v9.9c0,11.4-6.1,15.9-17.3,15.9s-17.2-4.5-17.2-15.9V740
					h14v10.5c0,2.6,1,3.9,3.2,3.9c2,0,3.1-1.3,3-3.9v-9c0-3-2.2-5.5-5.2-6.9c-1.5-0.7-3.1-1.6-4.9-2.6c-3.5-2-6.6-3.8-8.6-8.1
					c-1-2.1-1.5-4.6-1.5-7.4v-9.9c0-11.4,6.1-15.9,17.2-15.9c11,0,17.1,4.5,17.1,15.9L516,717.2L516,717.2z"/>
				<path class="st0" d="M565.7,691.2v12.2h-9.6v62.4h-14.5v-62.4H532v-12.2H565.7z"/>
				<path class="st0" d="M599.7,690.5c5.6,0,9.9,1.2,13,3.7c3,2.5,4.6,6.6,4.6,12.3v44.1c0,5.8-1.5,9.8-4.6,12.3s-7.4,3.7-13,3.7
					c-5.7,0-10-1.2-13-3.7c-3.1-2.4-4.6-6.5-4.6-12.3v-44.1c0-5.8,1.5-9.8,4.6-12.3C589.7,691.7,594,690.5,599.7,690.5z
					 M602.7,706.5c0-2.6-1-3.9-3-3.9s-3.1,1.3-3.1,3.9v44c0,2.6,1,3.9,3.1,3.9s3-1.3,3-3.9V706.5z"/>
				<path class="st0" d="M649.6,753.7h12.2v12.2H635v-74.6h14.5L649.6,753.7L649.6,753.7z"/>
			</g>
			<g>
				<path class="st0" d="M289.7,886.5c11.9,6.9,17.9,17.5,17.9,32v28c0,19.7-3.1,33.3-9.4,40.7s-19,11.1-38.2,11.1h-73.3V778.6h72.9
					c18.3,0,30.5,3.6,36.7,11.1s9.2,21,9.2,40.7v25c0,13.6-3.6,22-15.8,28.3L289.7,886.5L289.7,886.5z M233.6,825.4v43.5h12.1
					c4.5,0,5.2-1.4,5.2-5.3v-32.2c0-4.1-1.8-6-5.5-6H233.6L233.6,825.4z M251.8,910.4c0-3.8-0.8-5.3-5.3-5.3h-12.8V951h12.4
					c4.5,0,5.7-1.7,5.7-5.7L251.8,910.4L251.8,910.4z"/>
				<path class="st0" d="M400,838.4h-22v36.2h33.6l-12.3,42.8H378V955h34.2L400,998.3h-73.8V795.2h86.1L400,838.4z"/>
				<path class="st0" d="M502.1,998.3l-1.8-29.1H473l-1.7,29.1h-46.5l17.7-203.1h88.4l17.6,203.1L502.1,998.3L502.1,998.3z
					 M475.8,925.7h21.9l-5.3-83.7h-11.3L475.8,925.7z"/>
				<path class="st0" d="M682.9,998.3h-46.7l-13.5-55h-9.9v55h-45.7V795.2h67.4c17.3,0,28.8,3.4,34.7,10.2
					c5.7,6.9,8.5,19.4,8.5,37.6v55.6c0,14.1-4.3,25-12.9,32.5L682.9,998.3z M612.9,838.3v65.6h14.4c2.1-0.6,3.1-2.3,3.1-5.3v-54.9
					c0-3.6-1.8-5.4-5.3-5.4L612.9,838.3L612.9,838.3z"/>
				<path class="st0" d="M812.4,871.8l-50.7-21.5V829c0-3.8-4.5-5.7-7.1-5.7c-2.9,0-7.4,2-7.4,5.7v25.6c0,7.1,9.9,11.9,19.4,14.7
					c4.6,1.5,9.7,3.5,15.1,5.9c5.5,2.5,10.5,5.3,15.3,8.3c4.6,3.1,8.5,7.7,11.6,13.7c3.1,6.2,4.6,13.4,4.6,21.8v29.2
					c0,36.5-20.6,51.8-58.6,51.8c-38.2,0-58.6-15.3-58.6-51.8V905l50.7,21.5v21.4c0,3.6,4.5,5.5,7.4,5.5c2.7,0,7.1-1.8,7.1-5.5
					v-25.6c0-11.6-18.6-13.7-34.3-20.7c-5.5-2.4-10.4-5.2-15-8.3c-4.6-2.9-8.5-7.6-11.6-13.7c-3.2-6-4.8-13.3-4.8-21.8v-29.1
					c0-36.5,20.6-51.8,58.5-51.8c38.2,0,58.3,15.3,58.3,51.8L812.4,871.8L812.4,871.8z"/>
			</g>
		</g>
	</g>
</g>
</svg>
