<?xml version="1.0" encoding="utf-8"?>
<!-- Generator: Adobe Illustrator 26.0.2, SVG Export Plug-In . SVG Version: 6.00 Build 0)  -->
<svg version="1.1" id="Calque_1" xmlns="http://www.w3.org/2000/svg" xmlns:xlink="http://www.w3.org/1999/xlink" x="0px" y="0px"
	 width="410px" height="491.8px" viewBox="0 0 410 491.8" style="enable-background:new 0 0 410 491.8;" xml:space="preserve">
<style type="text/css">
	.st0{clip-path:url(#SVGID_00000043446777873223985090000006915351688225910430_);}
	.st1{fill-rule:evenodd;clip-rule:evenodd;fill:#FFFFFF;}
	.st2{clip-path:url(#SVGID_00000023977572524270152350000015370110966045978242_);}
	.st3{fill-rule:evenodd;clip-rule:evenodd;}
	.st4{fill:#AB8930;}
</style>
<g transform="translate(-1085.7,-128.65)">
	<g transform="matrix(2.288,0,0,-2.288,758.63,1199.7)">
		<g>
			<g>
				<defs>
					<polygon id="SVGID_1_" points="145.1,255.4 320,255.4 320,465.9 145.1,465.9 145.1,255.4 					"/>
				</defs>
				<clipPath id="SVGID_00000177478623805407306300000004568415229837846153_">
					<use xlink:href="#SVGID_1_"  style="overflow:visible;"/>
				</clipPath>
				<g style="clip-path:url(#SVGID_00000177478623805407306300000004568415229837846153_);">
					<g transform="translate(79.088,797.56)">
						<path class="st1" d="M98.9-331.9c-11-19-21.9-38-32.9-57v-0.2c29.1-51,58.1-102.1,87.2-153.1c29.2,51.1,58.5,102.1,87.6,153.2
							c-11.1,19.2-22.3,38.2-33.4,57.4H99.1C99-331.6,98.9-331.7,98.9-331.9"/>
					</g>
				</g>
			</g>
		</g>
		<g>
			<g>
				<defs>
					<polygon id="SVGID_00000029730030363939437420000017824953547259180948_" points="145.1,255.4 320,255.4 320,465.9 
						145.1,465.9 145.1,255.4 					"/>
				</defs>
				<clipPath id="SVGID_00000110452320323201163300000018170698602005719955_">
					<use xlink:href="#SVGID_00000029730030363939437420000017824953547259180948_"  style="overflow:visible;"/>
				</clipPath>
				<g style="clip-path:url(#SVGID_00000110452320323201163300000018170698602005719955_);">
					<g transform="translate(71.225,783.27)">
						<path class="st3" d="M75.3-374.7c28.7-50.1,57.1-100.5,85.8-150.6c28.6,50.3,57.5,100.3,86.1,150.6
							c-10.1,17.5-20.3,34.9-30.6,52.5c-0.3,0.6-1.7,3.4-2.3,3.4H107.7C96.8-337.3,86.1-356.1,75.3-374.7 M107-317.3h108.4
							c11.1-19.2,22.3-38.2,33.4-57.4c-29.2-51.1-58.4-102.1-87.7-153.2c-29.1,51-58.1,102.1-87.2,153.1v0.2c11,19,21.9,38,32.9,57
							C106.8-317.4,106.9-317.4,107-317.3"/>
					</g>
				</g>
			</g>
		</g>
		<g transform="translate(88.129,762.34)">
			<path class="st1" d="M126.1-437.5c0,0.2-0.2,0-0.2-0.1v-24.8c0-1.2-0.2-2.7,0-3.6c0.1-0.5,0.7-1.3,1.1-2
				c5.8-10,11.6-19.9,17.2-29.6c5.3,9,10.7,18.2,16,27.4c0.6,0.9,2.1,2.9,2.2,4c0.4,2.2,0,4.8,0,7.1v21.5
				C151-437.6,137.4-437.6,126.1-437.5 M189-380.6c0.1-12.5-0.2-25.3,0.2-37.4c1.3-0.8,1.6,0.7,2,1.4c6.8,11.8,13.5,23.6,20.4,35.2
				c0.2,0.3,0.6,0.7,0.5,1.1H189C188.9-380.4,188.9-380.5,189-380.6 M125.7-380.6v-34.6h36.8c0,11.6,0.1,23.4-0.1,34.8h-36.6
				C125.7-380.4,125.7-380.5,125.7-380.6 M102.4-380.6v-38c0-1.8-0.3-4,0-5.5c0.1-0.6,0.7-1.4,1.2-2.2c6-10.6,11.8-20.7,17.7-31.4
				c0.4-0.8,0.6-2,1.7-1.5c0.6,0.3,0.4,0.4,0.5,1c0.4,7.9-0.4,15.6,0.1,23.1c13.3-0.2,27.7,0,41.4-0.1c0.1-6.2,0.1-12.3,0.1-18.6
				c0-1.3-0.3-4.2,0-5.5c0.1-0.4,0-0.2,0.4-0.4c0.4-0.2,0.8-0.3,1.1,0.2c0.2,0.3,0.5,0.8,0.6,1.1c6.2,11,11.9,21.2,18.1,31.9
				c0.5,0.9,1.2,1.7,1.3,2.3c0.3,1.5,0,3.6,0,5.4v38.3h-21.7c-0.1-12.4,0.1-24.6,0.1-37c-13.8,0.1-27.8-0.1-41.5,0.1v36.6
				c-6.9,0.1-13.9,0.2-20.9,0.2C102.4-380.4,102.4-380.5,102.4-380.6 M76.9-380.4c-0.1,0-0.1-0.2,0-0.2c6.9-12,14.3-24.7,21.3-36.9
				c0.5-0.9,0.4-1.2,1.5-0.8c0.4,0.6,0.2,1.4,0.2,2.1v35.8H76.9z M62.3-353.8c4.1-7.4,7.8-14.3,11.9-21.7c0.4-0.8,1.3-2.8,1.9-3
				c0.9-0.3,2.8,0,4.2,0c9.6,0,19,0.1,29.2,0.1c34.4,0,69.3,0,103.1,0c1.4,1.9,2.4,4,3.5,6.1c3.4,6.2,7.1,12.2,10.5,18.4
				c-4,6.9-7.9,13.7-11.9,20.7c-0.4,0.8-1.3,2.6-1.9,2.8c-0.9,0.3-2.8,0-4.2,0c-44.2,0-89.2,0-132.9,0
				C71.2-338.2,66.7-346,62.3-353.8 M188.9-301.3v-27.5H212c-2.5,4.6-5.2,9.3-7.9,13.9c-2.7,4.6-5.3,9.4-8.1,13.8H189
				C188.9-301,188.9-301.2,188.9-301.3 M164.9-301.3v-27.5c6.6-0.1,14.8-0.1,21.4,0v27.7H165C164.9-301,164.9-301.2,164.9-301.3
				 M125.8-301.3v-27.5h36.6c-0.1,9.2,0.1,18.6-0.1,27.7h-36.5C125.7-301,125.7-301.2,125.8-301.3 M102.2-301.3c0-8.4,0-19.1,0-27.5
				c6.9-0.1,14.3-0.1,21.2,0v27.7h-21.1C102.2-301,102.2-301.2,102.2-301.3 M88.3-308.1c-3.7-6.3-7.3-12.8-10.9-19
				c-0.3-0.6-0.9-1.1-0.8-1.6h23.2v27.6c-2.3,0.2-5,0-7.4,0.1C91-303.3,89.7-305.7,88.3-308.1 M90.7-297.7h106.7
				c0.6,0,2-2.8,2.3-3.4c10.2-17.7,20.4-35,30.6-52.5c-28.5-50.4-57.5-100.4-86.1-150.6c-28.8,50-57.1,100.5-85.8,150.6
				C69.1-335.1,79.8-316.4,90.7-297.7"/>
		</g>
		<g transform="translate(78.989,794.51)">
			<path class="st3" d="M98.6-341c-3.2-5.7-6.7-11.5-9.9-17.1c-0.3-0.5-0.7-1.1-0.6-1.5h19.6v25.1h-5.3
				C101.1-336.6,99.9-338.8,98.6-341 M101.7-333.2c2.4-0.1,5.1,0.1,7.4-0.1v-27.6H85.9c-0.1,0.5,0.5,1,0.8,1.6
				c3.6,6.2,7.2,12.7,10.9,19C98.9-337.9,100.2-335.5,101.7-333.2"/>
		</g>
		<g transform="translate(82.202,796.46)">
			<path class="st3" d="M108.3-335.2h21.1v-27.7c-6.9-0.1-14.3-0.1-21.2,0c0,8.3,0,19.1,0,27.5C108.2-335.3,108.2-335.2,108.3-335.2
				"/>
		</g>
		<g transform="translate(88.388,796.06)">
			<path class="st3" d="M126.8-336.4v-24.8h34.1v25.1h-34C126.8-336.1,126.8-336.2,126.8-336.4 M125.6-334.8h36.5
				c0.2-9.1,0-18.5,0.1-27.7h-36.6v27.5C125.6-334.9,125.6-334.8,125.6-334.8"/>
		</g>
		<g transform="translate(97.868,796.46)">
			<path class="st3" d="M155.3-335.2h21.3v-27.7c-6.6-0.1-14.8-0.1-21.4,0v27.5C155.2-335.3,155.2-335.2,155.3-335.2"/>
		</g>
		<g transform="translate(104.17,796.06)">
			<path class="st3" d="M174.2-336.4v-24.8h19.6c-2.3,4.2-4.9,8.4-7.3,12.5c-2.4,4.2-4.7,8.5-7.3,12.5h-4.9
				C174.2-336.1,174.2-336.2,174.2-336.4 M173-334.8h6.9c2.9-4.5,5.4-9.2,8.1-13.8c2.7-4.6,5.4-9.3,7.9-13.9h-23.1v27.5
				C172.9-334.9,172.9-334.8,173-334.8"/>
		</g>
		<g transform="translate(100.16,781.7)">
			<path class="st3" d="M162.2-379.5c0,0.2-0.2,0-0.2-0.2v-10.8h7.1v2.6h-4c0.1,0.6-0.1,1.3,0.1,1.8h3.6v2.6h-3.7
				c0,0.4-0.1,1.1,0.1,1.4h3.9v2.5C167.3-379.3,164.3-379.3,162.2-379.5 M153.1-379.6v-2.5h3.6c-1-1.6-2.1-3.7-3.1-5.4
				c-0.6-1-1.4-1.8-0.7-3h7.8c0.1,0.3,0,1.9,0,2.6c-1.2,0-2.7-0.1-3.8,0.1c0.9,1.5,2,3.6,3,5.4c0.6,1,1.6,1.9,0.6,3
				C158.1-379.5,155.3-379.2,153.1-379.6 M145-379.4v-11h7.1v2.6h-4c0.1,0.6-0.1,1.3,0.1,1.8h3.6v2.6c-1.1,0.2-2.5,0-3.7,0.1
				c0.1,0.4-0.1,1.1,0.1,1.4h3.9v2.5C150.5-379.3,147-379.4,145-379.4 M143.5-382.9c0.3,3.9-4.3,3.5-8,3.5c-0.2-3.5,0-7.4-0.1-11
				h3.1v3.6c0.4-0.5,0.9-1,1.4-1.8c0.4-0.5,0.8-1.6,1.4-1.8c0.6-0.2,1.4,0.1,2.3,0c0.1,0.5,0.2,0.8,0.3,1.3
				c-0.9,1.2-1.9,2.3-2.7,3.7C142.6-385.1,143.4-384.2,143.5-382.9 M132.6-380.1c-1.7,1.1-4.4,0.5-6.7,0.7c-0.4-3.4-0.1-7.4-0.2-11
				h3.1v3.7c0.4-0.5,0.9-1.1,1.4-1.8c0.4-0.5,0.8-1.6,1.4-1.8c0.6-0.2,1.4,0.1,2.3,0c0.1,0.5,0.3,0.8,0.3,1.3
				c-0.8,1.2-2.1,2.4-2.6,3.7C134.2-385.1,134.4-381.2,132.6-380.1 M111-386.6c1.7-4.5,9.2-5,11.9-1c0.3,0.5,0.7,1.3,0.8,2
				c0.6,4.2-3.5,6.7-7.4,6.2C113-379.8,109.6-382.8,111-386.6 M98.1-381.9c-1.6-1.9-1.2-4.8,0.4-6.3c2.1-1.9,6.7-2.7,10.3-1.8v2.9
				c-2.7-0.9-7.7-0.4-7.5,2.5c0.2,2.6,5,3.4,7.5,2.2v2.7C104.6-378.9,100.1-379.6,98.1-381.9 M119.6-371.4c-0.1-2,3.1-2.1,3.6-0.6
				c0.4,1.4-0.9,2.3-2.2,2C120-370.2,119.6-370.8,119.6-371.4 M100.5-373c1.8,0.5,1.3,3.7-1.2,3C97-370.7,98.4-373.7,100.5-373
				 M172.7-359.6c-0.2-4.3,0-8.9-0.1-13.2h8.9v2.5c-1.9,0.1-3.9-0.1-5.7,0.1v3.1h5.7v2.5c-1.9,0.1-3.9-0.1-5.7,0.1
				c0.1,0.9-0.1,1.9,0.1,2.6c1.7-0.2,3.7,0,5.5-0.1c0.2,0.7,0,1.7,0.1,2.5L172.7-359.6L172.7-359.6z M162.3-372.8h3.2
				c1.8,4.5,3.8,8.8,5.6,13.2h-3.6c-1.2-3.5-2.7-6.7-3.6-10.5c-0.9,3.8-2.4,7-3.5,10.5h-3.6C158.5-364.1,160.5-368.3,162.3-372.8
				 M151.8-372.8h3.3v13.2h-3.2C151.7-363.8,151.9-368.4,151.8-372.8 M149.1-364c0.8,5-5.3,4.5-10.1,4.5v-13.2h3.3v6
				c1.4-1.9,2.6-4,3.9-6h3.8c-1.2,2-2.9,4-4,6C147.6-366.4,148.8-365.6,149.1-364 M126.3-359.8v-12.9c2.9,0,6.7-0.5,8.8,0.9
				c1.6,1.1,2.1,3.9,0.4,5.2c-0.6,0.5-1.4,0.5-2.3,0.9c2,0.1,3.5,1.9,2.7,3.9c-1,2.7-5.8,2.3-9.4,2.3
				C126.3-359.5,126.3-359.6,126.3-359.8 M108.8-359.5c-2-4.3-3.9-8.8-5.8-13.2h3.5c0.4,0.9,0.7,2,1.1,2.8h5.8
				c0.4-0.9,0.8-1.8,1.2-2.8h3.8c-1.9,4.4-3.9,8.8-5.8,13.2H108.8z M89.7-359.2c-3.9-0.3-6.9-2.6-7.3-6.1c-0.4-4.6,3.2-7.8,8.2-7.8
				c1.9,0,3.2,0.4,4.6,1.1v2.9c-3.2-2.5-9.8-2-9.5,3.4c0.2,3.7,4.6,5.3,8.1,3.8c0.6-0.3,1-0.8,1.4-0.8c0.2,0.8,0,1.9,0.2,2.7
				C93.8-359.5,92-359,89.7-359.2 M63.7-349.7c43.7,0,88.7,0,132.9,0c1.4,0,3.3,0.3,4.2,0c0.6-0.2,1.5-2,1.9-2.8
				c4-7,7.9-13.8,11.9-20.7c-3.3-6.2-7-12.3-10.5-18.4c-1.1-2.1-2.1-4.2-3.5-6.1c-33.8,0-68.7,0-103.1,0c-10.2,0-19.6-0.1-29.2-0.1
				c-1.5,0-3.3-0.3-4.2,0c-0.6,0.2-1.5,2.2-1.9,3c-4.1,7.4-7.8,14.3-11.9,21.7C54.7-365.3,59.2-357.5,63.7-349.7"/>
		</g>
		<g transform="translate(92.021,785.35)">
			<path class="st3" d="M137.7-368.5v3c1.9,0.5,4.3-0.7,3.1-2.4C140.3-368.6,138.9-368.5,137.7-368.5"/>
		</g>
		<g transform="translate(95.174,785.27)">
			<path class="st3" d="M147.2-368.7v3.4c2.2,0.5,4.6-0.8,3.4-2.7C150.1-368.9,148.6-368.7,147.2-368.7"/>
		</g>
		<g transform="translate(87.231,786.05)">
			<path class="st3" d="M123.4-366.4c0.5-2,1.3-3.8,2.1-5.6c-1.2-0.2-2.7,0-4.1-0.1C122.1-370.2,122.9-368.5,123.4-366.4"/>
		</g>
		<g transform="translate(92.021,783.91)">
			<path class="st3" d="M137.7-372.8v3.5c2.3,0.5,4.6-0.9,3.4-2.7C140.6-372.9,139.2-372.8,137.7-372.8"/>
		</g>
		<g transform="translate(91.821,781.06)">
			<path class="st3" d="M137.1-381.4c0.7,0,1.4,0,1.8-0.3c0.4-1.1-0.7-1.3-1.8-1.2V-381.4L137.1-381.4z"/>
		</g>
		<g transform="translate(94.236,781.06)">
			<path class="st3" d="M144.4-381.4c0.7,0,1.4,0,1.8-0.3c0.1-0.3,0-0.4,0-0.8c-0.4-0.3-1-0.5-1.8-0.4V-381.4z"/>
		</g>
		<g transform="translate(88.808,781)">
			<path class="st3" d="M128.1-381.6c1.9,0.3,4.1-0.9,3.7-3.2c-0.5-2.7-6-3.1-6.4,0.2C125.2-382.8,126.3-381.8,128.1-381.6"/>
		</g>
		<g transform="translate(76.414,776.31)">
			<path class="st3" d="M90.9-395.6c-0.2-0.1-0.2-0.1-0.1-0.2c6.5-11.2,12.9-22.6,19.6-33.8v33.9C104.1-395.5,97.4-395.7,90.9-395.6
				 M111.7-394.3v-35.8c0-0.7,0.2-1.5-0.2-2.1c-1.1-0.4-1-0.1-1.5,0.8c-7,12.1-14.4,24.9-21.3,36.9c-0.1,0.1-0.1,0.2,0,0.2H111.7
				L111.7-394.3z"/>
		</g>
		<g transform="translate(99.884,766.61)">
			<path class="st3" d="M161.3-424.7h-2.7v-11.1h2.8v6.5c1.1-1.5,2.6-3.3,3.8-5c0.4-0.5,0.9-1.5,1.4-1.6c0.9-0.3,1.6,0.2,2.6,0v11.1
				h-2.8v-6.5C164.6-429.1,163.1-426.8,161.3-424.7 M154.1-424.7c-0.2-3.5,0-7.4-0.1-11.1h2.9v11.1H154.1L154.1-424.7z M134.4-425
				c0.2-4-0.8-8.9,1.7-10.5c1.7-1,4.6-1,6.1-0.1c2.8,1.6,1.6,6.7,1.8,10.8h-2.9c-0.5-2.6,1-7.3-0.8-8.5c-1-0.6-2.3-0.4-2.8,0.4
				c-1.1,1.7,0.2,6.2-0.4,8.1h-2.7C134.4-424.8,134.3-425,134.4-425 M109.5-424.8c-0.5-3.8-1.1-7.4-1.7-11.1h2.8
				c0.3,2.1,0.4,4.5,0.9,6.5c0.6-2.2,1.4-4.3,2.1-6.5h1.8c0.7,2.1,1.4,4.4,2.2,6.5c0.3-2.1,0.5-4.3,0.8-6.5c0.9,0.1,2-0.1,2.8,0.1
				c-0.6,3.6-1.2,7.3-1.7,11h-2.9c-0.7-2.1-1.3-4.2-2.1-6.1c-0.8,2-1.3,4.1-2.1,6.1L109.5-424.8L109.5-424.8z M104.2-424.8
				c-0.2-3.5,0-7.4-0.1-11.1h3c0,3.6,0,7.7,0,11.1H104.2L104.2-424.8z M97-424.8c-0.2-3.5,0-7.4-0.1-11.1h6.5v2.6
				c-1.1,0-2.5-0.1-3.5,0.1c-0.1,2.5,0.1,5.8-0.1,8.5L97-424.8L97-424.8z M145.2-427.7c-0.1-2,1.4-2.8,2.7-3.4
				c0.7-0.4,2.1-0.9,2.1-1.6c0-0.9-1.4-1.2-2.3-0.8c-0.6,0.3-0.7,0.7-0.9,1.3c-0.7-0.6-1.3-1.2-1.8-2c0.8-1.4,2.3-2,4-1.9
				c3.1,0.1,5,3.5,2.9,5.8c-0.9,1-3.9,1.7-3.8,2.8c0.1,1.4,2.8,0.6,2.6-0.3c0.7,0.5,1.3,1,1.8,1.8
				C150.9-423.4,145.3-424.3,145.2-427.7 M121.5-429.1c-0.7-3.7,1.8-7.1,5.8-7.1c1.8,0,3.6,0.9,4.6,2.1c3.3,3.9,0,10.1-5.2,9.5
				C124-424.9,122-426.7,121.5-429.1 M90.7-384.7c7-0.1,14-0.1,20.9-0.2v-36.6c13.7-0.2,27.7,0,41.5-0.1c0,12.4-0.1,24.6-0.1,37
				h21.7V-423c0-1.9,0.3-3.9,0-5.4c-0.1-0.6-0.8-1.5-1.3-2.3c-6.2-10.7-11.9-21-18.1-31.9c-0.1-0.3-0.4-0.8-0.6-1.1
				c-0.4-0.4-0.7-0.4-1.1-0.2c-0.4,0.2-0.3,0-0.4,0.4c-0.3,1.3,0,4.2,0,5.5c0,6.3,0.1,12.4-0.1,18.6c-13.7,0.1-28.1-0.1-41.4,0.1
				c-0.5-7.6,0.4-15.3-0.1-23.2c0-0.7,0.1-0.8-0.5-1c-1.1-0.5-1.2,0.7-1.7,1.5c-5.8,10.7-11.7,20.7-17.6,31.4
				c-0.4,0.8-1.1,1.7-1.2,2.2c-0.3,1.5,0,3.7,0,5.5v38C90.6-384.8,90.6-384.7,90.7-384.7"/>
		</g>
		<g transform="translate(88.368,776.25)">
			<path class="st3" d="M126.8-395.8v-32H161c0,11.1,0,21.4-0.1,32.2h-34.1C126.7-395.6,126.7-395.7,126.8-395.8 M125.5-394.3h36.6
				c0.2-11.4,0-23.2,0.1-34.8h-36.8v34.6C125.5-394.4,125.5-394.3,125.5-394.3"/>
		</g>
		<g transform="translate(104.19,776.25)">
			<path class="st3" d="M174.3-395.8v-33.5c6.5,10.9,13.1,22.5,19.5,33.7h-19.4C174.2-395.6,174.2-395.7,174.3-395.8 M173-394.3
				h22.9c0.2-0.4-0.3-0.8-0.5-1.1c-6.8-11.6-13.6-23.4-20.4-35.2c-0.4-0.7-0.7-2.1-2-1.4c-0.4,12.1-0.1,25-0.2,37.4
				C172.9-394.4,172.9-394.3,173-394.3"/>
		</g>
		<g transform="translate(91.242,765.99)">
			<path class="st3" d="M135.4-426.6c5,0.8,4.2-7.8-0.6-6.1C132.1-431.8,132.4-427.1,135.4-426.6"/>
		</g>
		<g transform="translate(88.388,761.96)">
			<path class="st3" d="M126.8-438.7v-23.2c0-1.1-0.2-2.5,0-3.4c0.1-0.4,0.7-1.2,1-1.8c5.4-9.3,10.8-18.5,16-27.5
				c5.1,8.2,9.9,16.9,14.9,25.4c0.5,0.9,2,2.7,2.1,3.7c0.2,0.9,0,2.2,0,3.4v23.8h-34C126.8-438.4,126.8-438.6,126.8-438.7
				 M162.2-437.2v-21.6c0-2.3,0.4-4.9,0-7.1c-0.2-1-1.7-3.1-2.2-4c-5.4-9.1-10.8-18.4-16-27.4c-5.6,9.7-11.5,19.7-17.3,29.6
				c-0.4,0.7-1,1.5-1.1,2c-0.2,0.9,0,2.3,0,3.6v24.8c0,0.1,0.3,0.2,0.2,0.1C137.1-437.1,150.8-437.1,162.2-437.2"/>
		</g>
		<g transform="translate(96.744,773.19)">
			<path class="st4" d="M151.9-405l-10.2-7.4l3.9-12l-10.2,7.4l-10.2-7.4l3.9,12L119-405h12.6l3.9,12l3.9-12H151.9L151.9-405z"/>
		</g>
	</g>
</g>
</svg>
