<?xml version="1.0" encoding="utf-8"?>
<!-- Generator: Adobe Illustrator 26.0.2, SVG Export Plug-In . SVG Version: 6.00 Build 0)  -->
<svg version="1.1"
	 id="svg2" xmlns:cc="http://creativecommons.org/ns#" xmlns:dc="http://purl.org/dc/elements/1.1/" xmlns:inkscape="http://www.inkscape.org/namespaces/inkscape" xmlns:rdf="http://www.w3.org/1999/02/22-rdf-syntax-ns#" xmlns:sodipodi="http://sodipodi.sourceforge.net/DTD/sodipodi-0.dtd" xmlns:svg="http://www.w3.org/2000/svg"
	 xmlns="http://www.w3.org/2000/svg" xmlns:xlink="http://www.w3.org/1999/xlink" x="0px" y="0px" width="500px" height="610px"
	 viewBox="0 0 500 610" style="enable-background:new 0 0 500 610;" xml:space="preserve">
<style type="text/css">
	.st0{fill:#FFFF00;}
</style>
<sodipodi:namedview  bordercolor="#666666" borderopacity="1" gridtolerance="10" guidetolerance="10" id="namedview4" inkscape:current-layer="svg2" inkscape:cx="841.4031" inkscape:cy="489.12888" inkscape:pageopacity="0" inkscape:pageshadow="2" inkscape:window-height="706" inkscape:window-maximized="1" inkscape:window-width="1366" inkscape:window-x="-8" inkscape:window-y="-8" inkscape:zoom="0.51102336" objecttolerance="10" pagecolor="#ffffff" showgrid="false">
	</sodipodi:namedview>
<g id="g3046" transform="matrix(0.45279377,0,0,0.45279377,-55.529398,-597.4957)">
	<path id="path2993" inkscape:connector-curvature="0" d="M563.9,1330l-18.4,18.4l-3.8,30.1l-153,14.5l0.9-26.5l-21.7-18.8
		c-5.5,1.3-24.5,0.4-27.7,1.6l-181.9,53.5l-15.9,16.3l-3.2,22.2c-0.3,5.9-1.2,16-1.6,22.4c-3.2,51.4-1.5,83.4-1.9,144.4
		c-0.5,72.1,0.8,117,5,176c5.3,75.2,15.8,149.9,30.3,215.4c1.2,5.6,2.4,11,2.6,12c0.2,1,2.4,10.2,4.9,20.4
		c11.7,47.8,26.3,95.4,40.7,132.7c5.3,13.8,9,23.1,11.5,29.1c5.8,14,6.5,15.6,12.9,29.9c7.2,16.2,23.1,48.1,30.7,61.6
		c2,3.6,3.7,6.6,3.7,6.7s1,2,2.3,4.1c1.3,2.1,2.3,4,2.3,4.1s1,1.9,2.2,3.9c1.2,2,4.8,8,7.9,13.2c11.3,19,24.7,39.5,39.3,60.1
		c6.2,8.6,13.9,19,19.8,26.4c1.8,2.2,4.3,5.5,5.6,7.2c19.7,25.1,43.5,51.3,74.5,81.9c25,24.8,50.7,47.9,70.7,63.5
		c1.1,0.8,2.8,2.2,3.9,3.1c22.2,17.6,49.1,36.7,72.5,51.7c1.5,1,4.3,2.8,6.1,3.9c4.1,2.6,16.1,10,19.9,12.2c1.5,0.9,4.9,2.8,7.4,4.3
		c4.5,2.6,6.6,3.9,15.6,8.9c4.9,2.8,22,12,25.6,13.9c1.3,0.7,2.5,1.4,2.7,1.7c0.2,0.3,0.5,0.4,0.8,0.2c0.3-0.2,0.5,0,0.5,0.3
		s0.2,0.4,0.5,0.2c0.3-0.2,0.5-0.1,0.5,0.2c0,0.3,0.2,0.5,0.4,0.5s3,1.4,6.2,3.2c3.2,1.7,7,3.4,8.4,3.8c3.5,0.9,27.8,1,31.5,0.1
		c1.5-0.3,4.3-1.6,6.3-2.8s4.4-2.5,5.5-3c1.1-0.5,1.9-1,1.9-1.3c0-0.3,0.2-0.4,0.5-0.2c0.3,0.2,0.5,0.1,0.5-0.2s0.4-0.6,0.9-0.8
		s2-1,3.4-1.8c1.4-0.9,4.1-2.4,5.9-3.4c1.8-1,4.2-2.4,5.2-3.1c1-0.7,2-1.2,2.1-1.2c0.3,0,12.4-7.3,20.2-12.1
		c2.9-1.8,7.8-4.8,10.7-6.7c23.6-14.7,63.6-43.1,82.6-58.9c1.8-1.5,4.4-3.6,5.9-4.7s3.3-2.6,4.2-3.3s2.6-2.2,3.9-3.3
		c1.3-1.1,2.7-2.2,3.1-2.6c0.4-0.3,1.8-1.5,3.2-2.6c1.4-1.1,2.9-2.4,3.3-2.8c0.4-0.4,2.3-2.1,4.1-3.6c14.3-12,29.2-26,51-47.9
		c18.5-18.6,18.8-18.9,28.1-29.2c21.6-23.8,40.4-46.4,55.8-67.1c4.2-5.6,8.2-11,9-12c6.3-8.2,32.4-47.2,37.2-55.6
		c0.4-0.8,3.7-6.3,7.3-12.2c3.6-5.9,6.5-10.9,6.5-11c0-0.1,1.6-2.9,3.6-6.3c3.8-6.6,4.9-8.7,11.2-20.5
		c10.9-20.3,25.5-50.7,33.8-70.4c10.7-25.2,15-36.2,23.5-59.7c35.5-98.2,60-215.5,70.3-336c3.2-37.8,4.3-56.7,6.2-107.2
		c0.9-22.8,0.9-117.6,0-140.8c-2.3-60-3.1-76.1-6.5-122.2c-0.7-9.4-1.4-18.9-1.6-21.2c-0.5-7.2-1.2-14.2-1.8-17.4l-0.6-3.1l-8.5-8.4
		l-10.2-11.9l-193.1-32.3l-32.6,0.3l-10.5,10.5c-10.4,5.9-5.7,4.7-6.3,7.7c-0.3,1.8-2,18.8-2,24.3l-138-20.6l0.3-27.5l-18.7-18.3
		L563.9,1330L563.9,1330z M577.9,1364.7l193.5,0.3l-0.9,43.5l210.8,29.8l1.6-49.5l190.2,31.8l1.5,25c0.2,3,1.8,20.7,2.4,32.4
		c0.3,4.6,1,16.4,1.7,26.1c1.7,25.1,2.5,43.3,3.1,65.5c0.3,10.6,0.7,21.7,1,24.6c0.7,7,0.3,114.6-0.4,132.1c-0.3,7-0.8,19-1,26.6
		c-0.9,26-3.9,66.5-7.1,97.6c-2.2,21.1-2.3,22.3-4,35.2c-0.9,6.8-2,14.9-2.4,18.1c-1.8,14-7.7,50-10.9,66.5
		c-9.1,47.1-18.9,87.2-30.9,126.7c-3.1,10.1-11.9,36.9-15,45.7c-1.2,3.3-2.9,8.1-3.8,10.6c-2.4,6.7-7.3,19.5-12.1,31.2
		c-11,27.1-24.7,57-36.6,79.4c-1.9,3.6-4.2,8-5.2,9.9c-1,1.9-3.3,6.1-5.2,9.4c-1.9,3.3-3.4,6.1-3.4,6.2c0,0.1-2.7,4.8-6,10.4
		c-3.3,5.6-6.4,10.8-6.8,11.6c-1.7,3.1-10.3,16.7-17.3,27.3c-20.9,31.9-44.6,62.9-69.8,91.4c-22.8,25.8-56.3,59.5-81.5,81.9
		c-29.1,25.9-69.6,56.6-100.3,76.2c-1.8,1.2-5.1,3.3-7.3,4.7c-6.9,4.4-20.9,13-21.1,13c-0.1,0-1.8,1-3.7,2.1
		c-4.8,3-10.2,6.1-12.5,7.3c-4.1,2.2-11.9,6.6-12.4,7.1c-1.7,1.4-5.8,1.8-18.4,1.8c-7,0-13.6-0.2-14.5-0.5
		c-2.3-0.6-26.6-13.2-38.3-20c-2-1.1-5.4-3.1-7.6-4.3c-5.4-3.1-12.3-7.3-16-9.5c-1.6-1-3.1-1.8-3.2-1.8c-0.2,0-1.2-0.6-2.2-1.4
		c-1.1-0.8-4.2-2.7-7-4.4c-2.7-1.7-6.5-4-8.3-5.2c-1.8-1.2-4.7-3.1-6.4-4.2c-4.3-2.8-20-13.5-22.9-15.6c-1.3-0.9-4.9-3.5-7.9-5.6
		c-11.6-8.3-39.2-29.7-47.9-37.3c-1.2-1-3.9-3.3-5.9-5c-25.9-21.8-66.1-61.7-92.4-91.8c-22.3-25.5-41.1-49.9-60.4-78.2
		c-1.5-2.3-3.4-5.1-4.2-6.3c-1.9-2.7-10.4-16.1-13.3-20.7c-1.2-1.9-2.8-4.6-3.7-6c-1.7-2.7-5.6-9.2-9.9-16.8
		c-1.5-2.5-3.4-5.9-4.4-7.6s-1.8-3.1-1.8-3.2s-1-1.9-2.1-3.9c-1.2-2-2.2-3.8-2.2-3.9c0-0.1-1.5-2.9-3.3-6.2
		c-6.8-12.4-22.4-44.2-28.2-57.8c-0.9-2-2.7-6.1-4-9.2c-1.3-3.1-2.9-6.6-3.4-8c-0.5-1.3-1.8-4.4-2.8-6.8c-1-2.4-2.3-5.5-2.9-7
		c-0.6-1.5-1.4-3.6-1.9-4.7c-0.5-1.1-1.4-3.4-2-5.1c-1.2-3.3-3.1-8.2-6.3-16.7c-1.1-3-2.1-5.6-2.1-5.8c0-0.2-0.7-2.2-1.5-4.3
		c-3.1-8-9.6-27.7-14.1-42.5c-1.4-4.5-3.2-10.2-3.9-12.7c-0.8-2.5-1.9-6.3-2.5-8.4c-0.6-2.2-1.8-6.7-2.7-10
		c-7.6-27.2-16.2-63.4-20.5-86c-0.4-2.3-1.4-7-2.1-10.6c-0.7-3.6-1.6-8-1.9-9.9c-0.3-1.9-1.2-7.3-2.1-12.1
		c-5-26.8-12.9-84.7-15-108.9c-0.3-3.1-1.2-13.8-2.1-23.9c-2.3-24.9-4.9-70.5-5.9-103.8c-0.6-18.8-4.8-119.1-4.2-139.3
		c0.7-22.3,0.5-33.3,2.9-80.9c1.5-29.1-1.1-50.1,0.4-53.1l175.5-50.6c5.1-1.6-0.8,46.4,3.4,45.3l222.6-19.9L577.9,1364.7
		L577.9,1364.7z M497.1,2543.4c0.2,0.1,0.6,0.4,1,0.8c1.1,1.2,0.9,1.3-0.5,0.2c-0.5-0.4-0.9-0.9-0.7-1
		C496.9,2543.4,497,2543.4,497.1,2543.4L497.1,2543.4z"/>
	
		<path id="path3001" inkscape:connector-curvature="0" sodipodi:nodetypes="cccsscccccsccssccccsscscccccccscccccccscsccsscsccccccccccscssssssssssccsscssscsssccscscccc" class="st0" d="
		M673.2,2623.7c-2.3-0.6-26.6-13.2-38.3-20c-2-1.1-5.4-3.1-7.6-4.4c-5.4-3.1-12.4-7.2-16-9.5c-1.6-1-3.1-1.8-3.2-1.8
		c-0.2,0-1.2-0.6-2.3-1.4c-1.1-0.8-4.2-2.7-7-4.4c-2.7-1.7-6.5-4-8.3-5.2c-1.8-1.2-4.7-3.1-6.4-4.2c-4.3-2.8-20-13.5-22.9-15.6
		c-1.3-0.9-4.9-3.5-7.9-5.6c-11.6-8.3-39.2-29.7-47.9-37.3c-1.2-1-3.9-3.3-5.9-5c-25.9-21.8-66.1-61.7-92.4-91.8
		c-22.3-25.5-41.1-49.8-60.4-78.2c-1.5-2.3-3.5-5.1-4.3-6.3c-1.9-2.7-10.4-16.1-13.3-20.7c-1.2-1.9-2.9-4.6-3.7-6
		c-1.7-2.7-5.6-9.2-9.9-16.8c-1.5-2.5-3.5-5.9-4.5-7.6s-1.8-3.1-1.8-3.2s-1-1.9-2.1-3.9c-1.2-2-2.1-3.8-2.1-3.9
		c0-0.1-1.5-2.9-3.3-6.2c-6.8-12.4-22.4-44.2-28.2-57.8c-0.9-2-2.7-6.1-4-9.2c-1.3-3.1-2.9-6.6-3.4-8c-0.5-1.3-1.8-4.4-2.8-6.8
		c-1-2.4-2.3-5.5-2.9-7c-0.6-1.5-1.4-3.6-1.9-4.7c-0.5-1.1-1.4-3.4-2-5.1c-1.2-3.3-3-8.2-6.3-16.7c-1.1-3-2.1-5.6-2.1-5.8
		c0-0.2-0.7-2.1-1.5-4.3c-3.1-8-9.6-27.7-14.2-42.5c-1.4-4.5-3.1-10.2-3.9-12.7c-0.8-2.5-1.9-6.3-2.5-8.5c-0.6-2.2-1.8-6.7-2.7-10
		c-7.6-27.2-16.2-63.4-20.5-86c-0.4-2.3-1.4-7-2.1-10.6c-0.7-3.6-1.6-8-1.9-9.9c-0.3-1.9-1.3-7.3-2.1-12.1
		c-5-26.8-12.9-84.7-14.9-108.9c-0.3-3.1-1.2-13.8-2.1-23.9c-2.3-24.9-4.9-70.5-5.9-103.8c-0.6-18.8-4.7-119.1-4.2-139.3
		c0.7-22.3,0.5-33.3,2.9-80.9c1.5-29.1-1.1-50.1,0.4-53.1l175.5-50.6c5.1-1.6-0.8,46.4,3.4,45.3l222.6-19.9l3.7-47.3l193.5,0.3
		l-0.9,43.5l210.8,29.8l1.6-49.5l190.2,31.8l1.5,25c0.2,3,1.8,20.7,2.4,32.4c0.3,4.6,1,16.4,1.6,26.1c1.7,25.1,2.5,43.3,3.1,65.4
		c0.3,10.6,0.7,21.7,1,24.6c0.7,7,0.3,114.6-0.4,132.1c-0.3,7-0.8,19-1,26.6c-0.9,26-3.9,66.4-7.1,97.6c-2.2,21.1-2.3,22.3-4,35.3
		c-0.9,6.8-2,14.9-2.4,18.1c-1.8,14-7.7,50-10.9,66.5c-9.1,47.1-18.9,87.2-30.9,126.7c-3.1,10.1-11.9,36.9-15,45.6
		c-1.2,3.3-2.9,8.1-3.8,10.6c-2.4,6.7-7.3,19.5-12.1,31.2c-11,27.1-24.8,57-36.6,79.5c-1.9,3.6-4.2,8-5.2,9.9
		c-1,1.9-3.3,6.1-5.1,9.4c-1.9,3.3-3.4,6.1-3.4,6.2c0,0.1-2.7,4.8-6,10.4c-3.3,5.6-6.4,10.8-6.8,11.6c-1.7,3.1-10.4,16.7-17.4,27.3
		c-20.9,31.9-44.6,62.9-69.8,91.4c-22.8,25.8-56.3,59.5-81.6,81.9c-29.1,25.9-69.6,56.6-100.3,76.2c-1.8,1.2-5.1,3.3-7.3,4.7
		c-6.9,4.4-20.9,13.1-21.1,13.1c-0.1,0-1.8,0.9-3.6,2.1c-4.8,3-10.2,6.1-12.5,7.3c-4.1,2.2-11.9,6.6-12.4,7.1
		c-1.7,1.4-5.8,1.8-18.4,1.8C680.7,2624.1,674.1,2623.9,673.2,2623.7L673.2,2623.7z"/>
	
		<path id="path2989" inkscape:connector-curvature="0" sodipodi:nodetypes="cssccccccccscssccccsccccssccssssscccccccccsscccccccccscccccccccccsccscscccccsccccccsccccssccccscscscccscscsscccsccsscccscccsccccccccscscsssccscccscccsccccssccsscccsssccssssccccsssssssscscccscccsccccccsccccccsssscsscccscccssssccscccssccccsscccscscscscscssscssccscccccscccccsccccccscccscssccscccscscccccscccscccccccccccccscccscccccccsssssccssccccssscsssccccsccscscccscccccscccscccscccssscccscsssccccccscsscccscscsccsccccccccccssscsccscccccscccscscccccsscscscsscscccscsscccsccccssscsccccccscssccccccsccccccccccscsccscscsscccsccsccsccccsccssscccsccscccccccscssssscsscsssss" d="
		M754.5,2524.7c-3-0.6-9.5-4.1-13.3-7.1c-3.8-3.1-7.8-8.9-9.4-13.7c-0.9-2.6-1.2-4.7-1.2-8.4c0-4.5,0.1-5.2,1.6-8.4
		c2.8-5.9,10.5-12.4,16.4-13.9c3-0.7,8.1,0.1,11.5,1.8l2.4,1.2l-2.4,3.7c-1.7,2.6-2.6,3.6-3.2,3.4c-1.6-0.7-9.3-0.7-10.8-0.1
		c-1.4,0.6-4.2,3.5-6.3,6.6c-1.9,2.8-0.9,10.5,1.8,14.4c2,2.8,8.3,9,10.4,10.1c4.4,2.4,9.2,2.8,12.4,1.2c6.8-3.5,9.5-10,6.7-16.5
		c-0.6-1.4-1-2.6-0.9-2.8c0.1-0.1,2-1,4.1-2l3.8-1.8l1.4,3c2,4.2,2.5,8,1.6,11.5c-0.8,2.9-2.6,6.6-4.7,9.4c-0.7,1-1.2,2.1-1,2.7
		c0.1,0.5-0.1,1.2-0.5,1.6c-0.5,0.4-0.7,0.4-0.7,0c0-0.9-0.8-0.7-3.4,1C766.1,2524.7,760.2,2525.8,754.5,2524.7L754.5,2524.7z
		 M567.6,2512.8c-92.1-66.3-164.8-150.4-220.2-254.8c-10.9-20.5-22.9-45.8-32.1-67.5c-4.6-10.9-5.5-13-9.9-24.2
		c-22.4-57-40.4-119.2-54-186.2c-13.8-68.2-23.3-145.6-27.4-222.4c-2.1-39-3.1-72.1-3.1-100.5v-16.7l9.6-2.7
		c5.3-1.5,9.9-2.8,10.4-2.9c1.7-0.4,3-0.7,8.5-2.3c3.1-0.9,6.1-1.7,6.7-1.8c0.6-0.1,1.5-0.3,2-0.5c10.7-2.8,14.9-3.8,15.1-3.6
		c0.1,0.1,0.5,0,0.8-0.3c0.3-0.3,1.1-0.6,1.8-0.7c0.7-0.1,5.2-1.2,9.9-2.3c4.8-1.2,9.1-2.2,9.7-2.3c0.6-0.1,3.6-0.8,6.7-1.5
		c5.8-1.4,8-1.8,9.7-2.1c0.6-0.1,1.1-0.2,1.3-0.3c0.1-0.1,0.5-0.2,0.8-0.2c0.3-0.1,0.9-0.2,1.3-0.4c0.9-0.3,13.5-3,15.1-3.1
		c0.6-0.1,1.3-0.3,1.6-0.4c0.3-0.2,1.4-0.4,2.5-0.6c1.8-0.2,3.4-0.6,5.1-1c0.5-0.2,3.3-0.7,5.4-1c0.7-0.1,3-0.6,5-1
		c2.1-0.4,4.5-0.9,5.4-1c0.9-0.1,2.3-0.4,3.2-0.6c0.8-0.2,2.1-0.4,2.8-0.5c1.6-0.3,3.5-0.6,5.1-1c0.7-0.1,2.5-0.5,4-0.8
		c1.5-0.3,2.9-0.4,3-0.3s0.5,0.1,0.9-0.2c0.3-0.3,1.6-0.6,2.9-0.7c1.3-0.1,2.6-0.4,3.1-0.5c0.4-0.2,1.7-0.4,2.8-0.6
		c1.1-0.1,2.6-0.4,3.3-0.5c2.1-0.4,4.8-0.8,6.1-1c0.7-0.1,2.1-0.3,3.1-0.5c1-0.2,2.6-0.4,3.6-0.5c1-0.1,1.8-0.2,1.8-0.3
		c0-0.1,0.6-0.1,1.3-0.2c0.7,0,1.5-0.2,1.8-0.4c0.3-0.2,1-0.3,1.5-0.2c0.5,0.1,1.2,0,1.5-0.1c0.3-0.2,1.1-0.3,1.8-0.4
		c0.7,0,1.3-0.1,1.3-0.2c0-0.1,0.6-0.2,1.3-0.3c1.3-0.2,3.6-0.5,6.7-1c1-0.2,2.5-0.4,3.3-0.5c0.8-0.1,2-0.3,2.6-0.5
		c0.6-0.1,2.3-0.4,3.8-0.6c1.5-0.2,3.5-0.5,4.4-0.6c0.8-0.2,2.5-0.4,3.6-0.4s2.4-0.3,2.8-0.4c0.4-0.1,1.1-0.3,1.5-0.3
		c0.4,0,1.8-0.2,3.1-0.3c1.3-0.2,3.1-0.4,4.1-0.5c1-0.1,1.8-0.2,1.8-0.3c0-0.1,2.8-0.5,5.4-0.8c2.3-0.2,3.5-0.4,8.7-1
		c1.5-0.2,3.5-0.4,4.4-0.5c0.8-0.1,2.8-0.3,4.4-0.5c1.5-0.2,3.5-0.4,4.4-0.5c0.8-0.1,2.8-0.3,4.4-0.5c1.6-0.2,3.9-0.4,5.1-0.5
		c1.3-0.1,2.3-0.2,2.3-0.3c0-0.1,0.7-0.2,6.9-0.7c1.6-0.1,2.8-0.3,2.8-0.3c0,0,1-0.2,2.3-0.3c4.1-0.4,8.4-0.8,11-1
		c3.5-0.4,8.7-0.8,12-1c1.6-0.1,2.8-0.2,2.8-0.3c0-0.1,1.4-0.2,3.1-0.2c1.7-0.1,3.1-0.2,3.1-0.2c0,0,1.3-0.2,2.8-0.2
		c1.6-0.1,4.5-0.3,6.7-0.4c2.1-0.2,5.3-0.3,7.2-0.4c1.8-0.1,3.5-0.2,3.7-0.3c0.2-0.1,2.2-0.3,4.4-0.4c2.2-0.1,6-0.3,8.6-0.5
		c23.4-1.4,45.2-2.1,72.1-2.3c9.7-0.1,15.9-0.3,16-0.6c0.2-0.3,0.5-0.4,0.7-0.3c0.4,0.2,48.9,1.1,61.6,1.1c4.4,0,8.1,0.1,8.2,0.3
		s5.4,0.5,11.8,0.7c6.3,0.2,13,0.4,14.9,0.6c1.8,0.1,5.8,0.4,8.7,0.5s6.8,0.4,8.5,0.5c1.7,0.1,5.7,0.4,8.9,0.5s6.9,0.4,8.2,0.5
		c4.6,0.4,16.2,1.3,20.5,1.5c2.4,0.1,5.5,0.4,6.9,0.5c1.4,0.1,3.6,0.3,4.9,0.5c1.3,0.1,3.6,0.3,5.1,0.5c1.5,0.2,4.3,0.4,6.1,0.6
		c2.8,0.2,11.3,1.1,21,2c3.2,0.3,8,0.8,10.8,1c1.3,0.1,3.1,0.3,4.1,0.5c3.2,0.5,23.4,2.9,26.3,3.1c1.6,0.1,3,0.3,3.3,0.5
		c0.2,0.1,2,0.4,3.9,0.6c2,0.2,3.7,0.4,3.8,0.5c0.2,0.1,1.9,0.3,3.8,0.5c1.9,0.2,3.8,0.4,4.1,0.6c0.3,0.1,1.8,0.3,3.2,0.5
		c1.4,0.1,5.9,0.7,10,1.3c4.1,0.6,8.2,1.2,9.2,1.3c3.8,0.5,4.4,0.6,6.1,0.9c2.8,0.5,5.7,0.9,7.9,1.1c1.1,0.1,3.9,0.6,6.1,1
		c2.2,0.4,4.9,0.9,5.9,1c1,0.1,3.1,0.5,4.7,0.8c1.5,0.3,3.6,0.6,4.6,0.8c1,0.1,4.6,0.7,8,1.3c3.4,0.6,7,1.2,7.9,1.3
		c1,0.1,2.8,0.5,4.1,0.7c1.3,0.3,3.3,0.6,4.5,0.8s2.4,0.4,2.6,0.5s1.4,0.4,2.7,0.5c2.5,0.3,6.9,1.1,18.7,3.4
		c4.2,0.8,12.1,2.3,17.4,3.4c5.4,1,10.1,1.9,10.5,2c0.4,0.1,1.3,0.3,2,0.4c0.7,0.2,7.4,1.6,14.9,3.1c15.6,3.2,28.6,6.1,41.5,9.1
		c4.9,1.2,9.4,2.2,10,2.3c0.6,0.1,2.4,0.5,4.1,0.9c1.7,0.4,3.2,0.7,3.3,0.5c0.1-0.1,0.5,0,0.8,0.2c0.3,0.2,1.9,0.7,3.4,1l2.9,0.6
		l0.3,6.5c0.5,10,0.4,71.8-0.2,89c-1.4,41.1-3.9,80.3-7.4,113.5c-1.3,12.5-4.8,40.2-6.2,49.4c-0.7,4.8-1.7,11.7-2.3,15.4
		c-2.5,17.1-8.3,48.5-13,70.7c-2.9,13.6-10.2,44.1-11.8,49.4c-0.4,1.3-1.5,5.5-2.6,9.5c-5.3,20-18.5,62.6-21.5,69.7
		c-0.4,0.8-1.1,2.8-1.5,4.4c-2.8,9-16.6,44.5-21.8,56.1c-0.3,0.6-1.4,3.3-2.6,6.1c-1.2,2.8-2.6,5.9-3.1,6.9c-0.5,1-1,2-1,2.1
		c0,1.4-18.6,40-26,54c-9.9,18.7-16.9,31.1-25.3,45.1c-48.5,80.2-104.8,147.7-173.6,208.3c-9.6,8.5-16.6,14.5-23.3,19.9
		c-4.4,3.6-4.2,3.4,2-2.6c92.4-87.6,159.5-183.6,209.4-299.5c6.5-15.1,20.9-51.8,20.9-53.2c0-0.9-1.4-0.1-3,1.7
		c-3.4,3.9-10.1,6.5-15.7,5.9l-3.3-0.4l0.7-2.9c1.9-7.4,1.5-6.7,3.3-6.2c0.9,0.3,1.8,0.3,2,0.2s1.1-0.4,1.8-0.5
		c0.8-0.1,2.4-0.8,3.6-1.6c1.8-1.1,2.5-1.9,3.8-4.7c2-4.3,2.4-8,1.2-10.4c-1.7-3.3-2.7-4.1-5.6-4c-3.3,0-5,1.5-9.7,8.2
		c-5,7.2-7.7,10.1-11.3,11.8c-1.7,0.8-3.8,1.5-4.7,1.5c-2.8,0-8.1-2.4-10.2-4.7c-2.5-2.7-3.2-4.8-3.6-9.2c-0.3-3.4-0.1-4.2,1.6-8.8
		c3.3-9.1,7.1-13.4,12.6-14.4c0.9-0.2,1.8-0.4,2-0.5c0.3-0.2,2.9,0.4,5,1c0.5,0.1,0.3,1.1-0.4,3.7c-0.6,1.9-1.1,3.9-1.1,4.3
		c-0.1,0.7-0.8,0.9-3.4,1.1c-3,0.2-3.4,0.4-4.7,1.9c-2.1,2.5-4,7.7-4,10.8c0,2.2,0.2,2.8,1.5,4.1c3.6,3.6,7.7,0.8,14.9-10
		c1.5-2.2,3.5-5,4.6-6.1c2.1-2.3,7.4-5,9.3-4.8c6.6,0.8,12.3,4,14.5,8.4c0.9,1.8,2,7.9,1.5,9c-0.4,1.1,0.2,1.9,1.1,1.5
		c0.7-0.3,6.1-16,11-31.7c2.7-8.8,8.8-29.9,8.8-30.5c0-0.8-0.9-0.5-3.7,1.3c-1.5,1-3.9,2.1-5.3,2.6c-2.6,0.8-9.5,1-9.5,0.4
		c0-0.2,0.3-2.2,0.8-4.4s0.8-4.1,0.8-4.1c0-0.1,0.4-0.1,0.9-0.2c4.3-0.3,7.7-1.7,9.6-3.8c3.6-3.9,4.5-12.8,1.7-15.7
		c-1.2-1.2-4.4-2.7-5.8-2.7c-0.9,0-5.8,4.1-5.8,4.8c0,0.3-1.1,2.2-2.3,4.2s-3.1,4.8-3.9,6.3c-2.5,4.4-5.3,7-8.6,7.9
		c-5.8,1.7-10.1,0.6-13.6-3.3c-4.3-4.9-5.1-9.4-3.2-17c2.2-8.6,4.7-12.2,10.8-15.4c1.9-1,6.7-1.4,7.9-0.7c0.2,0.1,0.1,2.3-0.4,4.8
		l-0.7,4.6l-3,0.2c-3.6,0.3-4.4,0.9-6.6,5.1c-1.4,2.7-1.7,3.7-1.7,6.9c0,3.6,0,3.8,1.6,5.3c1.9,1.7,3.8,1.8,6.2,0.2
		c1.8-1.2,1.9-1.4,6.6-9.1c6.1-10.2,10.8-14.4,15.8-14.2c2.7,0.1,7.4,1.1,7.4,1.7c0,0.2,0.4,0.5,1,0.7c1.7,0.6,5.5,4.7,6.7,7.4
		c1.2,2.7,1.4,2.9,2.3,2.2c1.1-0.7,14-58.4,14-62.6c0-1-1.2-0.6-2.5,0.7c-1.4,1.5-5,3.9-7.7,5.4c-3.4,1.7-8.2,2.3-13.3,1.6
		c-9.2-1.2-14.7-3.9-20.1-9.7c-5.5-5.9-6.4-9.9-4.8-19.6c1.2-7.4,3-11.1,7.6-15.4c4.5-4.3,9.7-6.1,16.8-5.8c5.7,0.3,6.7,0.4,6.7,0.8
		c0,0.2,0.4,0.4,0.9,0.4c1.1,0,5.1,1.4,8.4,3c1.3,0.6,3.5,2.2,4.8,3.5c2.6,2.5,6.4,7.8,6.4,8.8c0,0.3,0.4,0.5,0.9,0.4
		c0.7-0.1,1.1-1.3,1.8-5.3c1.5-8.7,6.5-42.8,6.8-47.2l0.3-4.2l-2-0.3c-1.7-0.3-10.2-1.3-42.2-5.1l-5.4-0.6l0.1-2.3
		c0.1-1.3,0.3-3.3,0.4-4.5l0.3-2.2l6.8-3.4c3.7-1.9,11.8-5.8,18-8.6c6.2-2.9,11.3-5.6,11.4-5.9c0.1-0.5-1.8-0.9-8.5-1.6
		c-8.2-0.9-20.8-2.6-23.8-3.2c-1.4-0.3-1.4-0.3-1.1-3.4c0.5-5.3,0.6-5.5,2-5c0.7,0.3,2.4,0.6,3.7,0.8c1.4,0.2,3.8,0.5,5.5,0.7
		s4.7,0.6,6.7,0.8c2,0.2,4.3,0.4,5.1,0.5c0.8,0.1,2.9,0.3,4.6,0.5c1.7,0.2,7.1,0.8,12.1,1.3c4.9,0.5,9.5,0.9,10.1,0.7
		c0.9-0.2,1.1-0.8,1.4-3.7c0.6-6.3,2.8-34.1,3.2-39.1l0.3-4.9l-6.3-0.3c-3.5-0.2-14.6-0.6-24.8-1l-18.4-0.6v-4.9v-4.9l17.8-10
		c9.8-5.5,17.8-10.2,17.8-10.6c0-0.6-10.9-1.2-21.6-1.2c-3.4,0-7.7-0.3-9.6-0.6l-3.5-0.6l0.2-1.6c0.1-0.9,0.3-2.9,0.5-4.4l0.3-2.8
		l6.8,0.3c11.3,0.5,30.5,1.2,36.7,1.2l5.9,0l0.3-2.6c0.2-1.4,0.5-12.2,0.7-24l0.4-21.4h-24.9h-24.9v-19.1v-19.1l3.7,0.3l3.7,0.3
		l0.1,14.2l0.1,14.2l6-0.1l6-0.1l0.3-13.3l0.3-13.3h3.6c2,0,3.8,0.2,4,0.5c0.2,0.3,0.4,6.3,0.3,13.3l-0.1,12.8l6.3,0.1
		c3.5,0.1,6.9,0,7.5-0.1l1.2-0.3v-14.5v-14.5l3.2,0.1l3.2,0.1l0.1-12.2c0.1-6.7,0-12.2-0.2-12.2c-0.2,0-6.3-1.6-13.7-3.5
		c-107.1-28.1-208.2-43.9-313.4-48.7c-99.6-4.6-199.9,1.7-297.4,18.7c-61,10.6-125.8,26.5-182.9,44.6l-4.6,1.5l-0.3,4.1
		c-0.2,2.2-0.5,18.3-0.7,35.6c-1.2,96.4,6.1,185.3,22.1,269c1.3,6.6,2.5,13.3,2.8,14.9c0.6,3.2,3.8,18.2,4.5,21.3
		c0.3,1.1,1.4,6.1,2.6,11c1.1,4.9,3,12.7,4.2,17.2c1.2,4.5,2.4,9.6,2.8,11.3c1.6,6.7,8.7,31.4,12.3,43c3.2,10.3,15.9,47.9,17.1,50.7
		c0.5,1.1,2.7,7,4.9,13.1c0.8,2.1,1.6,4.1,1.8,4.4c0.2,0.3,1.1,2.5,1.9,4.9s2.8,7.4,4.3,11c5.4,13,8.5,20.2,9.3,21.9
		c0.4,0.9,2.1,4.6,3.7,8.1c7.9,17.5,24.3,50.8,27.6,56c0.7,1.1,4,7.4,6.1,11.4c0.6,1.1,1.5,2.9,2.2,3.8s1.8,3.1,2.7,4.6
		c2.4,4.4,3,5.4,3.3,5.6c0.2,0.1,1,1.5,1.7,3.1c0.8,1.6,2.4,4.4,3.7,6.3c1.2,1.9,2.2,3.6,2.2,3.7c0,0.1,0.9,1.6,2.1,3.3
		c1.1,1.7,2.2,3.4,2.4,3.9c0.4,1.1,2.7,4.7,3.6,5.7c0.4,0.4,0.6,0.9,0.6,1.2c0,0.3,1.1,2.2,2.5,4.2c1.4,2,3.3,4.9,4.3,6.5
		c3.2,5,6.8,10.5,7.2,11c0.2,0.3,1.4,2,2.5,3.8s2.3,3.4,2.4,3.6c0.2,0.1,1.7,2.3,3.3,4.9c1.7,2.5,3.1,4.7,3.3,4.9
		c0.2,0.1,1.3,1.8,2.6,3.6c1.3,1.8,2.5,3.6,2.7,3.8c1,1.2,3.7,4.9,6.1,8.5c1.5,2.1,2.8,4,3,4.1c0.2,0.1,1,1.3,1.8,2.5
		c0.8,1.2,1.8,2.3,2.2,2.5c0.4,0.1,0.7,0.5,0.7,0.7c0,0.4,6.6,9.4,8.5,11.6c0.5,0.6,1.5,1.9,2.2,2.8c2,2.7,9.4,12,9.7,12.3
		c0.2,0.1,0.9,1.1,1.7,2s1.9,2.4,2.7,3.2s2,2.4,3,3.5c3.5,4.3,5.2,6.3,6,7.1c0.5,0.4,1.8,1.9,2.9,3.3c2.5,3,5.6,6.6,7.6,8.6
		c0.8,0.8,1.4,1.6,1.4,1.9s1,1.3,2.2,2.5s2.8,2.8,3.5,3.6c7.9,9.2,16.3,18,33.3,35c13.8,13.8,20.1,19.8,24.6,23.5
		C581,2522.3,577.5,2519.9,567.6,2512.8L567.6,2512.8z M1048,1992.1c2.9-1,5.7-3.7,7.2-7.2c1.5-3.3,1.7-9.9,0.3-12.4
		c-1.4-2.6-5.6-6.5-8.3-7.8c-2.9-1.4-10.9-2.4-15.1-1.9c-3.9,0.4-8.5,3-10.2,5.6c-4,6.4-3.5,14.6,1.4,19.3c2.7,2.6,8.2,4.9,13.1,5.5
		C1039.6,1993.7,1044.8,1993.1,1048,1992.1L1048,1992.1z M1074.4,1903.6c0.3-0.3,2.3-16.2,2.3-18.5c0-0.9-0.3-1.4-0.8-1.4
		c-0.8,0-21.8,9.6-29,13.2c-2.2,1.1-3.8,2.3-3.8,2.7c0,0.4,0.3,0.7,0.6,0.7c0.3-0.1,2.7,0.2,5.4,0.6s5.9,0.9,7.4,1
		c3.8,0.5,6,0.8,7.4,1.1c0.7,0.1,2.4,0.4,3.8,0.5c1.4,0.2,2.6,0.4,2.7,0.4C1070.7,1904.1,1074.2,1903.8,1074.4,1903.6L1074.4,1903.6
		z M1073.5,1889.1c-0.2-0.5-0.6-0.8-1-0.7c-1.4,0.3-1-0.7,0.5-1.4c1.5-0.6,1.7-0.6,1.6,0.2c0,0.5-0.2,1.3-0.4,1.9
		C1073.8,1889.9,1073.8,1889.9,1073.5,1889.1L1073.5,1889.1z M1082.5,1811.5c0.2-1.6,0.4-6.1,0.6-9.9c0.3-5.8,0.2-7-0.4-7
		c-1.2,0-32.2,18-32.2,18.7c0,0.4,0.4,0.7,0.9,0.7c5.6,0,18,0.2,22.4,0.5C1082.3,1814.9,1082.2,1815,1082.5,1811.5L1082.5,1811.5z
		 M1079.9,1800.1c-0.7-0.2-1.4-0.3-1.7-0.2c-0.3,0.2-0.5,0.1-0.5-0.1c0-0.5,3.1-2.3,3.4-2c0.1,0.1,0.2,0.8,0.1,1.5
		C1081.1,1800.4,1080.9,1800.5,1079.9,1800.1L1079.9,1800.1z M810.8,2458.8c-16.4-30.3-18.4-34.1-18.4-34.4c0-0.6,6.6-7.7,6.7-7.2
		c0.2,0.6,19.9,7.2,20.5,6.9c0.2-0.1,0.4,0,0.4,0.2c0,0.3,0.6,0.6,1.4,0.8s7.8,2.4,15.6,5l14.2,4.6l-2.1,2.6c-1.2,1.5-2.5,3.1-3,3.8
		l-0.9,1.1l-5.1-1.8c-8-2.9-6.7-3.4-14.4,5.9c-3.7,4.5-6.8,8.4-6.8,8.7c0,0.3,1.3,2.8,2.8,5.6c1.6,2.8,2.8,5.3,2.8,5.6
		c0,0.6-5,7-5.6,7.2C818.9,2473.4,815.1,2466.8,810.8,2458.8z M816.9,2445.3c3.2-3.4,7.2-8.7,7.2-9.4c0-0.7-2.1-1.6-15.8-6.5
		c-5-1.8-5-1.2-0.1,7.3c4.9,8.5,6,10.2,6.7,10.2C815.2,2446.8,816.1,2446.2,816.9,2445.3L816.9,2445.3z M873.7,2397.5
		c-15.5-10.6-36.8-25.7-36.8-26c0-0.4,11.5-16.5,14.9-20.8c3-3.8,6.7-7.2,8.5-8c4.6-1.8,12.8,1.6,16.2,6.8c2.1,3.2,2.6,6.4,1.6,10.3
		c-0.5,1.8-1,3.8-1.1,4.4c-0.3,1.2,0.7,1.6,1.7,0.7c0.3-0.2,1.5-0.8,2.8-1.3c2.4-0.9,6.3-1.1,15.9-0.5c6.3,0.4,7.1,0.5,7.5,0.8
		c0.2,0.2-1.1,2.3-2.7,4.8l-3,4.5l-11-0.3c-14.2-0.4-15.2-0.2-18.6,3.9c-1.4,1.6-2.5,3.4-2.5,3.9c0,1,1,2.1,3.3,3.3
		c0.8,0.5,3.4,2.2,5.6,3.9s5,3.6,6,4.2s1.9,1.3,1.9,1.5c0,0.2-1.1,2-2.5,4l-2.5,3.6L873.7,2397.5z M862,2374.4
		c0.4-0.6,2.6-3.7,4.7-7c3.6-5.4,4-6.2,4-8.4c0-2.2-0.2-2.7-2.1-4.6c-2-2-2.1-2.1-5.1-1.8c-1.7,0.2-3.5,0.6-3.9,1
		c-1.2,1-6.5,8.2-8.7,11.8c-1.3,2.1-1.7,3.2-1.3,3.6c0.3,0.3,2.6,2,5.1,3.8C859.4,2376.2,860.5,2376.5,862,2374.4L862,2374.4z
		 M917.1,2320.6c-5.9-1.9-14.3-7.2-18.2-11.5c-7.4-8-8.5-15.9-3.5-25.8c2.1-4.2,7-9.3,10.8-11.1c2.6-1.3,3.5-1.5,6.1-1.3
		c1.7,0.1,3.7,0.5,4.5,0.9l1.5,0.6l-1,3.1c-0.5,1.7-1,3.5-1,4.1c0,0.9-0.3,1-2.6,0.8c-2-0.1-3.2,0.1-5.4,1.3
		c-7.3,3.7-9.7,11.1-6,18.3c1.9,3.8,11,9.8,17.3,11.5c4.9,1.3,9.7,0.1,13.5-3.3c2.1-1.9,2.7-2.8,3.1-4.9c1.1-4.9,0.3-8.1-3-12.2
		l-1.5-1.9l3.5-3.1c3-2.7,3.5-3,4-2.2c0.3,0.5,1.5,2.3,2.7,4.1c2.6,3.9,3.3,6.3,3.3,10.9c0,3.1-0.2,3.9-2.6,8.8
		c-3.1,6.4-5.6,8.9-10.8,11.5c-3.3,1.6-4.3,1.9-8.2,2C920.9,2321.2,918.3,2321,917.1,2320.6z M971,2253.1
		c-0.4-0.6-7.7-8.3-16.3-17.2s-16.7-17.4-18-18.9l-2.5-2.7l2-4.8c1.1-2.6,2.2-4.7,2.5-4.7c0.3,0,4.1,0.2,8.4,0.4
		c4.4,0.2,9.3,0.4,11,0.6c1.7,0.1,4.9,0.4,7.2,0.5c4.2,0.3,9,0.6,14.3,1c1.7,0.1,5.4,0.4,8.2,0.5c2.8,0.2,5.2,0.4,5.3,0.5
		c0.1,0.1-0.5,2-1.4,4.2s-1.6,4.3-1.6,4.6c0,0.5-1.2,0.6-5.5,0.3c-3-0.2-6.2-0.4-7-0.4c-1.4,0-1.7,0.4-5.8,9.1
		c-2.4,5-4.3,9.5-4.3,10c0,0.5,1.9,2.7,4.1,5l4.1,4.1l-1.6,3.9c-0.9,2.1-1.6,4.1-1.6,4.5C972.7,2254.5,971.8,2254.2,971,2253.1
		L971,2253.1z M962.3,2229.4c0.6-0.7,5.3-12.4,5.3-13.1c0-0.2-3.6-0.7-8.1-1c-4.4-0.3-9.1-0.7-10.3-0.9c-1.6-0.2-2.3-0.1-2.4,0.4
		c-0.2,0.6,13.8,15.2,14.7,15.2C961.7,2230.1,962,2229.8,962.3,2229.4L962.3,2229.4z M1036.5,2086.6c-0.2-0.3-0.1-0.6,0.2-0.8
		c0.3-0.2,0.5,0,0.5,0.5C1037.2,2087.2,1036.9,2087.3,1036.5,2086.6L1036.5,2086.6z M1056.7,2000c0-0.3,0.1-0.5,0.2-0.5
		c0.1,0,0.4,0.2,0.5,0.5c0.2,0.3,0.1,0.5-0.2,0.5C1057,2000.5,1056.7,2000.3,1056.7,2000z M1081.8,1737.4c-0.5-0.6-0.5-0.8,0.5-0.8
		c0.6,0,1.1,0.2,1.1,0.5C1083.4,1738,1082.5,1738.2,1081.8,1737.4L1081.8,1737.4z M1081.8,1673.6c0-0.3,0.2-0.5,0.5-0.5
		c0.3,0,0.5,0.2,0.5,0.5s-0.2,0.5-0.5,0.5C1082.1,1674.1,1081.8,1673.9,1081.8,1673.6z"/>
	
		<path id="path3017" inkscape:connector-curvature="0" sodipodi:nodetypes="ccssccccssssscsssssscscccccccsccccscsssccsccsccscsccccccssscccssccsscccsccsscccsscsccccsccccscccsscsssssccccccccccssccccccsccsccscccscccccscscccsscssssccccccccsccccccssccccssscsccsscsccccccscccccccccssccsssccccccscsscscsccscscssscsccccccccsccccccsscsscscscsccccsccccsccccccscsscsssccscsssssscccsccsssssssccssssscscccccscccscccccscscscscccsccssssccscccsccscccssssccssscscsccsccssssssccssscccsscsccccsccccccccsssccccscssssscccsscsssccscsscccsccscccssccccscscccscsssscscsscccccc" d="
		M558.2,2201.7c-10.8-1-11.3-1.3-2.8-1.3c11-0.1,19.5-0.6,27.9-1.8c2.5-0.4,6.6-0.9,7.8-1.1c2-0.3,6.1-1,10.1-1.8
		c3.2-0.6,5.8-1.1,6.8-1.2c0.4-0.1,1.2-0.2,1.8-0.4c0.6-0.2,1.6-0.4,2.3-0.5c5.7-1,23.8-6.1,33.2-9.3c49.7-17,95.4-44.5,143.2-86.2
		c9.3-8.1,36.9-35.9,45.8-46c44.6-51.1,75.9-104.1,89.8-152.1c1.2-4.3,1.3-5.2,0.3-5.2c-0.5,0-2,2.4-3.8,5.9
		c-3.1,6-3.4,6.6-8.7,15.7c-3.6,6.2-16.9,26.5-18.1,27.8c-0.5,0.5-0.9,1-0.9,1.1c0,0.5-9.2,13-16.5,22.4
		c-35.5,45.7-80.7,90.8-126.4,126c-69.1,53.3-137.1,84.5-201.4,92.4c-11.5,1.4-29.9,2.6-29.1,1.9c0.1-0.1,1.8-0.3,3.7-0.5
		c1.9-0.2,4.1-0.4,4.8-0.5c3.6-0.7,6.6-1.2,7-1.2c0.2,0,0.7-0.1,1.1-0.2c0.6-0.2,14.4-3.4,15.9-3.6c0.3,0,0.7-0.2,1-0.4
		c0.3-0.2,2.3-0.8,4.5-1.4c16.7-4.6,44.3-16.3,63.5-26.9c0.8-0.5,1.5-40.1,0.9-50.4l-0.4-6.5l-0.9,4.5c-2.3,11.5-3.5,15.8-5,18
		c-2.3,3.5-5.9,4.7-9,3.1c-3.1-1.6-3.6-4.3-2.5-14.7c0.8-7.8,0.8-13.7-0.1-14.6c-2-2-4,1.7-6.1,11c-1.2,5.2-1.3,6.9-1.3,15.6
		c0,11.9-0.2,12.3-4.2,11.8c-2.4-0.3-2.6-0.2-3.5,1.1c-0.9,1.4-0.9,1.4-0.6-2.9c0.2-2.4,0.4-9.5,0.6-16c0.2-8.9,0.2-11.9-0.3-12.4
		c-1.5-1.8-3.2,0.6-5.8,8.2c-2.6,7.4-2.8,8.6-3.3,18.9c-0.6,12.1-0.4,11.5-4.1,11.2c-2.9-0.3-3-0.2-3.7,1.2c-0.4,0.8-0.9,1.4-1,1.3
		c-0.1-0.1,0.1-4.3,0.5-9.2c0.4-5,0.9-12.9,1.2-17.6c0.3-5.6,0.7-8.7,1.2-9.2c0.4-0.4,1.5-0.9,2.7-1.3c1.2-0.4,2.4-1.3,3.1-2.3
		l1.1-1.7l-0.3,5l-0.3,5l1.8-4.2c2.1-5,4-7.9,6.3-9.5c2.7-1.8,4.4-1.5,6.9,1.1l2.1,2.3l1.6-4.5c1.3-3.7,2-4.8,3.7-6.3
		c2.7-2.3,5.7-2.5,7.8-0.5c1.3,1.3,1.3,1.3,1,7.4c-0.2,3.4-0.5,9.5-0.6,13.7c-0.3,7.2-0.3,7.6,0.7,8.5c3,2.7,5.4-2.9,9.1-20.9
		c1.1-5.5,1.5-8.8,1.5-12.7c0-5.7,0-5.7,3-6.6c1.2-0.4,2-1,2.5-2.2c0.4-0.9,0.9-1.5,1.1-1.3c0.2,0.2,0.6-0.2,0.9-0.8
		c0.3-0.6,1.3-1.5,2.2-2.1c3.6-2.2,8.2-0.5,10.6,4c2.8,5.1,2.7,12.1-0.2,20.2c-2.4,6.7-2.3,6.1-0.5,6.1c3.7,0,8-5.5,10.5-13.3
		c2.1-6.6,3.1-13.9,3.1-22.8c0-8.2,0-8.2,2.7-9.1c1.1-0.3,1.9-1.1,2.6-2.7c0.6-1.2,1.1-1.9,1.1-1.4c0,2.4,2.6,27.6,3,29.1
		c0.3,1,1,2.3,1.7,2.9c1,1,1.4,1,2.5,0.5c1.4-0.6,2.2-2.5,2.9-6.7c0.4-2.2,0.4-2.1,0.2,1c-0.3,4.4-1.7,7.4-4.4,9.4
		c-2.7,1.9-5.2,2-7.1,0.2c-1.8-1.8-3.4-6.3-3.7-10.4c-0.2-1.9-0.4-3.3-0.5-3.2s-0.4,2-0.7,4.2c-0.3,2.2-1,6-1.7,8.6
		c-2.1,8-4.9,12.4-10.2,15.9c-1.9,1.3-4.9,3.4-6.6,4.8c-3.4,2.7-5.5,3.2-7.4,1.8c-0.5-0.4-1.1-0.7-1.4-0.8c-0.6,0-0.4,8.7,0.4,20.7
		c0.4,6.2,0.7,12.7,0.5,14.6l-0.3,3.4l2.9-1.6c12.2-6.8,35-21.5,49.5-31.9c65.6-47.1,130.9-112.3,176.4-176.1
		c31.6-44.3,51.9-85.9,57.6-117.5c1.5-8.4,2.2-17.1,1.9-22.9c-0.1-2.9-0.1-4.4,0.2-3.6c0.2,0.8,0.6,1.7,0.9,2
		c0.4,0.5,2.9,5.2,5.8,10.7c5.5,10.5,12.3,30.5,14.2,41.8c0.4,2.5,0.9,4.6,0.9,4.8c0.1,0.1,0.6,3.5,1.1,7.5
		c1.2,10.1,1.2,28.9,0,38.5c-1.2,9.6-3,18.9-5.1,27.2c-1.9,7.2-6.3,21.2-7.8,24.7c-0.5,1.1-1.7,4.2-2.8,6.8
		c-4.2,10.6-14.4,30.3-22,42.3c-40.5,64.2-107.6,123-184.2,161.3c-42.3,21.2-81.4,33.5-121,38.2
		C588.9,2202,565.3,2202.4,558.2,2201.7L558.2,2201.7z M633.5,2108.4c1.5-1,2.5-4.2,1.6-4.8c-1-0.6-2.2-0.6-4.1,0.2
		c-3.2,1.3-3.5,3.2-0.9,4.6C631.8,2109.3,632.2,2109.3,633.5,2108.4L633.5,2108.4z M633.6,2102.1c1.7,0,2.6-0.2,2.8-0.7
		c0.2-0.4,0.4-3.2,0.6-6.2c0.4-5.9-0.3-13.5-1.6-17.3c-2-6.1-5.5-4.7-7.3,2.9c-0.7,2.8-0.9,21.2-0.3,22.3c0.3,0.5,0.7,0.5,1.8-0.1
		C630.5,2102.4,632.2,2102.1,633.6,2102.1L633.6,2102.1z M463.6,2178c-3-1.5-4.2-3.3-4.4-6.5c-0.3-3.6,1.2-6.1,4.9-8.1
		c2.6-1.5,3-1.6,8.1-1.5c4.6,0,5.9,0.3,9.8,1.6c2.5,0.9,4.5,1.6,4.6,1.6c0.2,0,1.2-3,1.7-5c0.3-1.2,0.7-5.7,1-9.8s0.6-8.7,0.8-10.1
		c0.3-2.5,0.3-2.5-0.6-1.3c-0.5,0.7-1.9,2.3-3.2,3.6c-4,4-11.3,5.5-17.5,3.7c-3.3-1-8.3-4.4-10.6-7.3l-1.8-2.3l3.1,2.8
		c5.4,4.9,10.3,6.6,16.2,5.5c8.7-1.6,14.8-9.1,13.1-16.2c-0.7-2.9-3-6.2-5.5-7.9c-6.1-4.1-16.5-3.2-22.5,2c-2.1,1.8-2.3,1.9-1.4,0.6
		c1.9-2.7,4.9-5.2,7.5-6.4c2-0.9,3.4-1.1,7.3-1.2c4.1,0,5.2,0.2,7.6,1.3c1.5,0.7,3.7,2.1,4.7,3c1.8,1.6,4.8,6.8,4.8,8.5
		c0,0.4,0.8-2.2,1.7-5.8c2.9-11.1,6.1-18.2,11.1-24.5l2.7-3.4l-1.7-1c-0.9-0.6-3.5-1.6-5.7-2.4c-3.4-1.1-4.9-1.3-10.1-1.4
		c-17.7-0.1-31.8,10.1-35.3,25.7c-1.2,5.3-0.3,14,1.3,13c0.9-0.6,0.5,0.2-0.6,1.2c-1,0.9-1,1.2-0.5,2.5c0.3,0.8,0.4,1.6,0.2,1.7
		c-0.9,0.6-2.2,6.8-2.2,10.6c0,3.2,0.3,4.9,1.6,8.2c0.9,2.3,2.2,5.2,2.9,6.5c1.9,3.3,0.8,3.9-1.5,0.8c-5.6-7.6-6.7-15-3.6-24.1
		c1.4-3.9,1.4-3.9,0.5-7.6c-0.9-4.3-1.1-11-0.2-14.9c1.3-6.3,5.9-13.5,11.1-17.3c11.5-8.5,29.1-11.5,41.9-7.2l3,1l5.5-2.3
		c9-3.8,13.4-4.5,18.1-2.9c3.2,1.1,3.7,2.2,0.7,1.6c-5.9-1.1-10.1-0.2-17.5,3.7c-2.6,1.4-4.9,2.6-5,2.7c-0.1,0.1,0.5,0.7,1.3,1.3
		c8.3,6.4,14.5,16,16.9,26c1.5,6.1,1.1,16.9-0.8,23.4c-5,17.4-15.7,26-31.5,25.3l-5.3-0.2l-2.7,2.4
		C480.5,2178,469.4,2181,463.6,2178L463.6,2178z M474.2,2177.3c2.8-1,6.5-4.1,9.4-8l2.2-3l-1.3-0.7c-3.9-2-12.7-2.8-17.3-1.4
		c-3.4,1-5.7,3.5-5.7,6.2C461.5,2176.3,467.6,2179.6,474.2,2177.3L474.2,2177.3z M503.5,2167c7.4-2.8,13.3-9.9,16.3-19.8
		c5.4-17.5,2-38-8.1-49.2l-2.4-2.6l-1.3,1.2c-1.8,1.7-4.6,7.5-5.9,12.3c-1,3.6-1.1,5.8-1.4,22.4c-0.3,15-0.5,18.9-1.2,21.4
		c-1.2,4.1-2.5,7-4.9,10.7c-1.1,1.7-1.9,3.3-1.7,3.5c0.4,0.4,3.9,1,6.2,1.1C500,2168,502,2167.6,503.5,2167L503.5,2167z
		 M544.7,2150.3c-4.3-2.1-6.8-9.5-5.7-16.3c1.4-8.2,7-17,12.7-19.8c2.4-1.2,5.9-1.3,7.5-0.2c2.4,1.7,3.2,6.1,1.8,9.9
		c-1.4,4-7.2,10.7-11.3,13l-2.1,1.2l0.3,2.9c0.3,3.1,1.6,6.3,2.9,7.1c2.6,1.6,8.9-4.2,12.9-12c2.7-5.3,5.8-13.7,6.7-18.5
		c0.6-3.2,1.6-4,1.2-1c-0.8,5.5-3.8,14.6-7,20.9C558.7,2148.8,551.3,2153.6,544.7,2150.3L544.7,2150.3z M550,2133.1
		c4.3-4.7,7.2-13.4,5.4-16.1c-1.1-1.7-2.4-1.6-4.3,0.5c-1.8,2.1-2.9,5.3-3.9,11.8C546.1,2137,546.3,2137.2,550,2133.1L550,2133.1z
		 M677.7,2078.7c-0.8-0.4-2.4-1.5-3.4-2.4c-1.5-1.4-1.9-1.6-2.1-1c-0.1,0.4-0.2-1.6-0.3-4.5c0-2.9-0.4-8.3-0.8-12.1
		c-0.4-3.7-0.7-7.8-0.7-9.1c0-2.2,0.1-2.3,2.3-3.5c1.8-0.9,2.5-1.6,2.9-3l0.6-1.8l0.3,2c0.5,3,1.7,13.1,2.6,21.4
		c0.5,4.4,1.1,7.7,1.5,8.4c1.9,2.9,5.4-0.1,7.5-6.5c1.6-5.1,2.8-13,2.2-15.8c-1.6-9,1.4-20.4,6.9-25.4c3.9-3.6,8.2-3.1,10.3,1.3
		c1.7,3.6,1.3,7.5-1.7,13.4c-1.3,2.6-3.3,5.8-4.4,7c-1.1,1.3-2,2.7-2,3.2c0,1.5,2.5,6.2,3.9,7.3c1.7,1.4,2.3,1.3,4.3-0.5
		c5.4-4.8,8.9-19,8.2-33.6c-0.6-12.5-0.8-11.3,1.5-12.5c1.5-0.8,2.1-1.6,2.6-3l0.6-1.9l1.1,4.5c0.6,2.5,1.9,8.5,2.9,13.3
		c2.1,9.9,2.9,12.6,4.3,13.8c1.5,1.3,3.3,0.6,4.2-1.6c1.5-3.8,2.9-17,2.9-27.5c0-3.2,0.2-4.8,0.5-4.6c0.7,0.4,0.6,10.9,0,19.1
		c-0.9,11.5-2.5,16.4-6,18.8c-5,3.4-9.5-0.7-12.1-10.9l-1-3.8l0,2.6c-0.1,4.2-1.4,13.7-2.6,17.7c-2.7,9.9-7.1,14.7-13.2,14.7
		c-3.2,0-5.2-1.2-7.7-4.4l-1.6-2.1l-0.3,2.4c-1.4,10.2-5.1,18.3-9.3,20.5C680.7,2079.6,679.7,2079.6,677.7,2078.7L677.7,2078.7z
		 M700.7,2044.1c2.5-4.9,3.2-14.3,1.2-16.5c-1.2-1.4-2.7-1.1-4,0.7c-0.9,1.3-1.1,2.1-1.1,7.5c0,3.4,0.2,7.4,0.4,9.1
		c0.4,2.9,0.4,2.9,1.4,2C699.3,2046.4,700.1,2045.1,700.7,2044.1z M421.4,2072.9c0-1,0.1-1.4,0.2-0.9c0.1,0.5,0.1,1.3,0,1.8
		C421.5,2074.3,421.4,2073.9,421.4,2072.9z M421.9,2069.1c-0.1-2.7,1.7-18.3,2.9-25.4c6.1-35.7,18.9-68.1,38.7-98.4
		c22.9-35.1,56.1-67.2,99.2-95.9c19.5-13,50.8-31.2,69.8-40.7c18.7-9.3,36.4-16.9,58.1-25.1c14.6-5.5,37.8-13.4,38.2-13
		c0.1,0.1,0.5,0,0.8-0.2c0.8-0.7,33.6-10.7,39-11.9c0.4-0.1,3.4-0.9,6.6-1.8s6.2-1.7,6.7-1.8c0.5-0.1,1.3-0.3,1.8-0.5
		c0.5-0.1,3.2-0.9,6-1.6c9.4-2.5,6.5-3.2-13-3.2c-51.5,0-101.2,9.2-147.2,27.4c-41.7,16.5-78.2,38.9-110,67.5
		c-7.6,6.8-24.4,23.8-29.9,30.3c-2.2,2.6-4.2,4.7-4.4,4.7s-0.4,0.2-0.4,0.5c0,0.3-2.2,3.3-4.9,6.7c-17.4,21.8-32.1,45.9-43.8,71.6
		c-1.4,3-2.8,6.5-3.2,7.7c-1,3.3-1.1,2.2-0.2-1.9c2.3-11.2,8.1-26.8,15.6-42c11.5-23.3,25.8-44.1,46.6-68c6.8-7.8,23-24.2,31.3-31.6
		c37.6-33.9,80.7-61,124.7-78.5c11.7-4.6,31.2-11.2,36-12.1c0.6-0.1,1.3-0.3,1.8-0.5c0.8-0.4,11.1-2.8,13.1-3.1
		c0.7-0.1,2.3-0.4,3.5-0.7c2.1-0.5,2.9-0.7,6.9-1.3c2.9-0.5,3.5-0.6,4.8-0.9c1.2-0.3,4.6-0.7,8.6-1.1c1-0.1,1.8-0.2,1.8-0.3
		c0-0.2,7.8-1,11.6-1.2c1.4-0.1,4.7-0.3,7.3-0.4c5.4-0.3,20.3-0.4,21.9-0.1c0.6,0.1,3.8,0.3,7.3,0.5c3.5,0.2,7.2,0.4,8.3,0.5
		c4,0.5,5.6,0.7,7,0.9c0.8,0.1,2.4,0.4,3.5,0.5c2.9,0.3,11.9,2.2,16.6,3.4c2.2,0.6,4.5,1.1,5,1.1c1.1,0.1,1.5,0.3,11.1,3.3
		c6.7,2.1,14.9,5.2,16.5,6c0.5,0.3,1.1,0.5,1.4,0.5c0.8,0,20.9,10,23.4,11.7c1.1,0.8,2.2,1.4,2.4,1.4c0.1,0,2,1.1,4.1,2.5
		c2.1,1.4,4,2.5,4.3,2.5s0.5,0.2,0.6,0.4c0.2,0.4,4.7,3.7,5.7,4.1c0.3,0.1,1.3,0.9,2.3,1.6c1.8,1.4,5.7,4.4,10.8,8.3
		c2.1,1.6,2.6,2.2,1.8,2c-2.4-0.6-16-2.8-22.2-3.6c-8.6-1.1-35.4-1.5-45.7-0.8c-15,1.1-30.2,3.4-45.7,6.8
		c-50.3,11.1-104.5,33.7-170.6,71.1c-82.2,46.5-140.8,102.3-171.9,163.4c-4,7.8-10.5,22.4-11.4,25.4c-0.2,0.7-0.5,1.5-0.8,1.8
		c-0.9,1.2-8.9,27.4-9.7,32C422,2070.7,421.9,2070.5,421.9,2069.1z M678.9,2017.1c-2.6-2.6-1.5-6.3,2.1-6.9c1.5-0.2,3,0.3,9,3.2
		l7.2,3.5l-1.3,0.8c-1,0.7-2.6,0.8-8.4,0.8h-7.1L678.9,2017.1z M766.2,2007.3c-4.4-10-5.8-15.2-8-31.5c-2.4-18-2.8-18.8-3.7-8.2
		c-0.3,3.4-0.6,6.3-0.8,6.5c-0.7,0.7-0.9-3.7-0.7-18.2c0.1-11.7,0.3-16.1,0.8-16.5c0.3-0.3,0.7-0.5,0.9-0.4
		c0.1,0.1,1.3,4.9,2.6,10.5c4.8,21,7.1,29.4,10.9,38.6c2,4.9,4.1,10.2,4.7,11.8l1.1,2.9l-2.5,2.5c-2.4,2.4-2.5,2.6-2.3,5
		c0.1,1.4,0,2.5-0.1,2.5C768.8,2013,767.6,2010.5,766.2,2007.3L766.2,2007.3z M711.2,1999.6c-1.7-2.2-1-6.4,1.4-7.7
		c1.1-0.6,3.5-0.7,4.4-0.1c1,0.6,1.7,2.5,1.7,4.3C718.7,2000.3,713.6,2002.7,711.2,1999.6z M785.9,1975.3c-3-1.4-5.5-3.8-7-6.7
		c-1.1-2.2-1.3-3.3-1.3-6.8c0-5.3,1-9.1,3.8-15.2c1.2-2.6,2.2-4.8,2.1-4.8c-0.1-0.1-1.2-0.4-2.6-0.7c-5.2-1.3-9.1-4.3-11.4-8.9
		c-1.1-2.2-1.2-3.2-1.2-7.8c0-5.1,0.1-5.5,1.9-9.1c7.9-16,26.6-16.1,26.6-0.2c0,3.5-1.2,8-3.2,12.6c-1,2.2-1.6,4.1-1.4,4.3
		c0.2,0.2,1.4,0.6,2.7,1c9.8,2.8,16.7,9.9,17.4,18.1c0.8,9.3-4.7,19.5-12.7,23.4C795.6,1976.4,789,1976.8,785.9,1975.3L785.9,1975.3
		z M800.9,1970.6c2-0.8,4.7-3.9,5.8-6.3c1-2.4,1-7.7,0-11.2c-0.9-3-3.2-6.5-5.4-8c-1.8-1.3-6.5-2.4-11.8-2.8l-4.6-0.3l-1.1,1.7
		c-0.6,1-1.5,3.2-1.9,5c-1.5,5.7,0.2,12.7,4.1,17C790.2,1970.4,796.5,1972.4,800.9,1970.6L800.9,1970.6z M788.7,1931.5
		c2.5-2.5,3.6-12.2,1.8-16.4c-1.9-4.4-5.4-7.3-8.9-7.3c-2,0-3.3,0.7-5.7,2.9c-5.1,4.8-5.2,15.3-0.3,18.8
		C779.7,1932.4,786.7,1933.5,788.7,1931.5L788.7,1931.5z M822.9,1937.2c-1.9-1.3-2.4-2.2-2.8-4.5c-0.4-2.8,0.1-4.9,1.6-6.7
		c1-1.2,1.7-1.5,3.2-1.5c1.7,0,2.1,0.2,2.9,1.6c1.1,1.8,0.9,2.4-0.7,2.4c-1.4,0-2.8,1.5-2.8,2.8c0,1.2,0.8,2.2,2.5,3.4
		c4.1,2.7,9.1-2.3,10.3-10.2c0.5-3.1-0.9-10.2-2.9-15.5c-2.5-6.4-4.1-10.2-4.3-10.2c-0.1,0-0.7,1-1.1,2.1c-1.3,3-4.1,6.8-6,7.9
		c-2.6,1.6-7,1.4-10.8-0.5c-11.4-5.7-17.2-23.7-11.6-36c4.3-9.5,13.7-11.5,22.5-4.9c5.6,4.3,11,11.7,15,20.8c3.5,8,4.7,13.1,5,21.8
		c0.4,10.6-1.1,16.3-5.9,22.3C833.4,1937,826.2,1939.4,822.9,1937.2L822.9,1937.2z M823.1,1904.1c4.6-1.9,5.9-6.9,3.8-13.7
		c-4-13.1-15.2-25.2-20.6-22.3c-4.2,2.4-3.4,10.8,2.2,22.9c3.3,7.2,6.8,11.6,10,13.1C820.6,1904.9,821.1,1904.9,823.1,1904.1
		L823.1,1904.1z M854.6,1894c-1.5-0.8-3-4-3-6.3c0-5.1,4.9-8.5,7.5-5.2c1.3,1.7,1.3,2-0.1,2.5c-3.1,0.9-3.7,3.3-1.5,5.4
		c4.9,4.7,10.8-1.1,10.8-10.7c0-4.9-1.7-10.3-5.8-18.5l-3.1-6.2l-2.1,4.4c-1.2,2.6-2.8,5-3.7,5.8c-7.7,6.5-21-1.6-25.6-15.4
		c-1.1-3.4-1.3-5-1.4-9.9c0-4.9,0.2-6.2,1.1-8.6c1.6-4,3.7-6.7,6.5-8.3c2.1-1.2,2.9-1.4,6.4-1.4c3.6,0,4.3,0.2,7.3,1.8
		c8.6,4.7,17.9,17.1,22.5,30.2c6.1,17.3,2.8,34.8-7.6,40C860.1,1894.9,856.7,1895.1,854.6,1894L854.6,1894z M853.9,1860.7
		c1.7-1.1,3.2-4.6,3.2-7.3c0-3-1.8-7.9-4.5-12.8c-2.6-4.6-9.6-12.1-12.9-13.8c-3.8-1.9-6.7-1.3-8,1.7c-1.4,3.4-0.5,7.9,3.6,16.2
		c4.3,9,8.8,14.9,12.5,16.5C849.5,1862.1,852.1,1861.8,853.9,1860.7z M780.9,1752.3c0.2-0.3,1.4-0.5,2.6-0.5c2.9,0,2.7,0.3-0.5,0.7
		C781.5,1752.7,780.7,1752.6,780.9,1752.3z M778.8,1752c0.2-0.2,0.6-0.2,1,0c0.4,0.2,0.3,0.3-0.3,0.3
		C778.9,1752.3,778.6,1752.2,778.8,1752L778.8,1752z"/>
	
		<path id="path3025" inkscape:connector-curvature="0" sodipodi:nodetypes="ccsssscccsccscccccsccscsccccssssccscccsscssscsssccccssssscscscscccssscscssscsccssscccsccssccscsssccsccsscsccssscsccccccsscccsssscssssssssscccsssccscscssssscscsscssccscssssssc" d="
		M895.7,1569.3c-5.6-0.9-10.2-1.7-10.3-1.9c-0.1-0.1-1.4-5.8-2.8-12.7s-4.1-19.8-6-28.6c-1.9-8.9-3.8-18.3-4.3-21
		c-1.1-5.7-4.8-23.2-7.7-36.9c-2.1-9.8-2.3-11.4-1.6-10.3c0.2,0.3,4.5,1.2,9.6,1.9c11.4,1.7,11.4,1.7,11.7,3c0.1,0.6,2,10.1,4.2,21
		c9.4,48,11.4,58.1,11.6,58.3c0.1,0.1,0.6,0.1,1,0c0.4-0.2,8.7-16.8,18.6-37c16.5-33.8,17.9-36.7,18.9-36.3c1.4,0.6,8.5,1.6,8.8,1.3
		c0.1-0.1,0.6,0,1.1,0.2c0.5,0.3,2,0.6,3.4,0.7c4.1,0.5,5.9,0.8,6.4,1.1c0.3,0.2-0.9,2.9-2.5,6c-1.7,3.1-4.2,8-5.7,10.8
		c-1.5,2.8-4.2,7.9-6,11.2s-4.2,8-5.4,10.2s-3.4,6.5-5,9.5c-1.6,3-4.3,8.1-6.1,11.5c-15.2,28.8-20.9,39.3-21.3,39.4
		C906,1570.9,901.2,1570.2,895.7,1569.3L895.7,1569.3z M425.4,1569.5c-3.3-0.6-11.4-4.7-14.3-7.3c-2.7-2.4-6.3-6.9-7.8-9.9
		c-1.3-2.5-3.4-9.4-4.4-14.3c-0.7-3.3-2.7-15.9-8.3-50.6c-1.3-7.9-2.4-15.1-2.5-16c-0.2-1.3-0.1-1.7,0.6-1.7
		c1.5-0.1,5.6-0.7,7.8-1.2c0.7-0.2,2-0.4,2.8-0.5c0.8-0.1,3-0.5,4.8-0.8c1.8-0.3,3.3-0.5,3.5-0.4c0.1,0.1,1,5.4,2,11.7
		c4.7,30.2,6.5,41.6,7.4,47.7c1.1,7.7,2.4,13.2,3.4,15.2c1.7,3.5,5.2,7.6,6.3,7.6c0.3,0,0.5,0.2,0.5,0.4c0,0.6,3.6,2.2,5.6,2.5
		c5.9,0.8,14.7-0.6,20.4-3.4c2.9-1.4,5-3.8,6.7-7.5c2.1-4.6,1.1-14.4-5.4-53.7c-2.4-14.3-4.4-26.5-4.5-27c-0.1-1,0.1-1.1,4.5-1.6
		c1.4-0.2,3.2-0.4,4.1-0.5c1.5-0.2,5.1-0.7,8.2-1c2.4-0.3,3.2,0.4,3.6,3.2c0.2,1.3,2.2,13.7,4.4,27.5c5.1,31.5,6.3,40.8,6.3,48.8
		c0,7.5-0.7,9.9-4.8,16.1c-5.4,8-12.5,12.3-25.5,15.4c-4.3,1-7.1,1.3-14.1,1.5C431.9,1569.9,426.9,1569.8,425.4,1569.5L425.4,1569.5
		z M832.6,1560.9l-11.9-1.3l-10.1-19.3c-7.1-13.6-10.3-19.3-10.9-19.2c-0.4,0.1-6.6,8-13.8,17.5l-13.1,17.4l-10.7-1.1
		c-5.9-0.6-11.3-1.2-12.1-1.3c-1.3-0.1-0.3-1.6,18.5-25.7c11-14,19.9-26,19.9-26.5c0-0.5-3-6.6-6.7-13.6
		c-16-29.9-20.7-38.7-20.6-38.7c0,0,1.3,0.1,2.9,0.3c1.5,0.2,5.5,0.5,8.7,0.7c5.4,0.3,11.5,0.8,11.5,1c0,0,0.8,1.6,1.7,3.4
		c0.9,1.8,5.1,9.9,9.2,18c4.1,8.1,7.6,14.7,7.8,14.7c0.8,0,2.2-1.8,12.5-16.1c13.2-18.2,12.4-17.2,13.5-16.6
		c0.7,0.4,12.5,1.8,19.4,2.3c0.9,0.1,1.8,0.3,1.9,0.4s-8,10.9-18.2,23.9c-10.1,13-18.4,23.9-18.4,24.4c0,0.7,2.9,6.7,3.6,7.3
		c0.1,0.1,0.5,0.8,0.8,1.5c0.3,0.7,2.8,5.3,5.6,10.2c2.8,4.9,5.4,9.7,6,10.7c0.5,1,1.7,3.1,2.5,4.6c0.8,1.5,2.1,3.8,2.8,5.1
		c0.7,1.3,1.7,3,2.2,3.8c0.5,0.8,2,3.6,3.4,6.1s3,5.2,3.7,6c0.7,0.8,1.1,1.4,0.8,1.3C844.7,1562.3,839.1,1561.7,832.6,1560.9
		L832.6,1560.9z M540.2,1557.7c-7.8-0.6-17-3.8-21.8-7.5c-2.4-1.8-6.9-7.6-9-11.4c-1.8-3.4-3.5-8.3-4.2-12c-0.3-2-0.3-2.1,1.1-2.2
		c0.8-0.1,2-0.2,2.7-0.4c0.7-0.1,2.4-0.5,3.8-0.7c3.6-0.7,6.4-1.1,7.9-1.3c0.7-0.1,1.6-0.3,2-0.5c0.8-0.5,0.7-0.7,2.4,4.1
		c1.7,5.1,3.9,8.2,7.7,11.2c2.6,2,6.5,3.6,8.9,3.7c0.4,0,2.3,0.1,4.1,0.3s4,0,4.9-0.2c9.6-2.8,10.3-3.1,13.1-5.3
		c3.6-2.8,5-5.4,5.3-9.9c0.2-2.8,0.1-3.9-0.8-5.8c-1.9-4.3-5.5-5.8-22.1-8.8c-15.2-2.8-21.3-4.7-27.6-8.4
		c-3.9-2.3-8.8-7.3-10.8-11.1c-6.6-12.3-1.8-29,10.4-36.2c2.4-1.4,10.3-4.3,12.7-4.7c0.7-0.1,1.9-0.3,2.6-0.5
		c0.7-0.2,2.1-0.4,3.1-0.5c1-0.1,2.4-0.4,3.1-0.5c3.8-0.8,13.5-0.1,19.3,1.3c8.1,2,16.6,8.3,20.2,14.9c2,3.6,2.8,5.8,3.3,9.5
		l0.4,2.5l-9.2,1.1c-11.4,1.4-11,1.4-11-0.1c0-1.9-2.3-6.2-4.4-8.4c-2.4-2.5-5.7-3.6-11.7-4.1c-7.9-0.6-14.6,1.4-19.3,5.6
		c-2.5,2.3-3,3-3.3,4.8c-0.6,4.5,3.4,9.1,9.9,11.3c2.9,1,11.7,3,15.4,3.5c8.4,1.1,21.4,4.9,25.9,7.7c1.6,1,3,1.7,3.1,1.7
		c0.4,0,3.9,3.8,5.1,5.7c0.7,1.1,1.5,1.9,1.7,1.9c0.6,0,2.9,6,3.5,9.3c0.3,1.6,0.6,5.1,0.6,7.7c0.1,8.5-3.1,15.7-9.8,22
		c-4.9,4.6-7.6,6.1-14.8,7.9C555.3,1557.6,548,1558.3,540.2,1557.7L540.2,1557.7z M649.6,1553.1c-8.9-0.8-17.4-4-24.1-9
		c-12.8-9.7-18.9-24.2-18.9-44.6c0-18.3,5.2-32.7,15.2-42c4.9-4.5,13.5-9.8,16.9-10.3c0.4-0.1,1-0.3,1.3-0.5
		c0.3-0.2,1.2-0.5,1.9-0.6s1.5-0.4,1.8-0.5c1.3-0.8,11.9-1.2,17.9-0.6c5.2,0.5,12.5,2.7,16,4.7c0.7,0.4,1.7,0.9,2.2,1
		s0.9,0.5,0.9,0.7c0,0.2,0.2,0.5,0.5,0.5c1.2,0,7.1,5.8,9,8.8c2.3,3.6,4.7,8.4,5.7,11.3l1,2.7l-9.7,2.4c-5.3,1.3-9.7,2.4-9.8,2.3
		c-0.1-0.1-0.5-1.3-1-2.7c-1.8-5.4-5.8-10.1-10.2-12.1c-9.9-4.4-21.3-2.9-29.3,3.6c-2.1,1.7-3.2,3.2-4.7,6.3
		c-3.2,6.5-4.1,10.8-4.4,21.5c-0.6,20,2.7,29.8,12.1,36.3c4.4,3,7.2,3.9,13.3,4c5.9,0.2,10.8-1.6,15.7-5.9c4.4-3.9,6.5-7.6,9.1-16.3
		c0.1-0.5,0.4-0.5,0.8-0.2c0.5,0.4,10.1,3.7,18.6,6.5c0.6,0.2-1.3,5.7-3.5,10.1c-2,3.9-6.1,9.4-9.3,12.5c-5.2,5-14.8,9-23.1,9.6
		c-2,0.1-4.4,0.3-5.4,0.4S652.2,1553.3,649.6,1553.1L649.6,1553.1z"/>
</g>
</svg>
