<?xml version="1.0" encoding="utf-8"?>
<!-- Generator: Adobe Illustrator 26.0.2, SVG Export Plug-In . SVG Version: 6.00 Build 0)  -->
<svg version="1.1"
	 id="svg659" xmlns:cc="http://creativecommons.org/ns#" xmlns:dc="http://purl.org/dc/elements/1.1/" xmlns:inkscape="http://www.inkscape.org/namespaces/inkscape" xmlns:rdf="http://www.w3.org/1999/02/22-rdf-syntax-ns#" xmlns:sodipodi="http://sodipodi.sourceforge.net/DTD/sodipodi-0.dtd" xmlns:svg="http://www.w3.org/2000/svg"
	 xmlns="http://www.w3.org/2000/svg" xmlns:xlink="http://www.w3.org/1999/xlink" x="0px" y="0px" width="713.1px" height="1000px"
	 viewBox="0 0 713.1 1000" style="enable-background:new 0 0 713.1 1000;" xml:space="preserve">
<style type="text/css">
	.st0{clip-path:url(#SVGID_00000098903010180545068040000008263465716920191162_);}
	.st1{fill:#FFFFFF;}
	.st2{fill:#1C1612;}
	.st3{fill:#5BA4DC;}
	.st4{fill:#C1D9F3;}
	.st5{fill:url(#Path_4479_00000084529602583128548980000008969400516335255446_);}
	.st6{fill:#1C1612;stroke:#1C1612;stroke-width:0.5;}
</style>
<sodipodi:namedview  bordercolor="#666666" borderopacity="1" fit-margin-bottom="0" fit-margin-left="0" fit-margin-right="0" fit-margin-top="0" gridtolerance="10" guidetolerance="10" id="namedview661" inkscape:current-layer="svg659" inkscape:cx="357" inkscape:cy="636.36364" inkscape:pagecheckerboard="true" inkscape:pageopacity="0" inkscape:pageshadow="2" inkscape:window-height="1051" inkscape:window-maximized="1" inkscape:window-width="1920" inkscape:window-x="-9" inkscape:window-y="-9" inkscape:zoom="0.88" objecttolerance="10" pagecolor="#ffffff" showgrid="false">
	</sodipodi:namedview>
<g>
	<defs>
		<rect id="SVGID_1_" x="-143" width="1000" height="1000"/>
	</defs>
	<clipPath id="SVGID_00000060021585713030953660000000112276159013603724_">
		<use xlink:href="#SVGID_1_"  style="overflow:visible;"/>
	</clipPath>
	
		<g id="Artboard_1" transform="translate(-143)" style="clip-path:url(#SVGID_00000060021585713030953660000000112276159013603724_);">
		<g id="Group_1035" transform="translate(-58.251,-200.709)">
			<path id="Path_4474" class="st1" d="M907.9,200.7H201.3v591.2c0,122.3,62.1,231.8,179.7,316.5c88.4,63.7,178,91.5,178.9,91.7
				l1.9,0.6l1.9-0.6c0.9-0.3,88.6-26.9,175-90c115-83.9,175.7-194,175.7-318.3V200.7H907.9z"/>
			<path id="Path_4475" class="st2" d="M907.9,200.7H201.3v591.2c0,122.3,62.1,231.8,179.7,316.5c88.4,63.7,178,91.5,178.9,91.7
				l1.9,0.6l1.9-0.6c0.9-0.3,88.6-26.9,175-90c115-83.9,175.7-194,175.7-318.3V200.7H907.9z M901.4,213.7v578.3
				c0,66.8-17.8,129.1-53,185.2c-28.2,45-67.6,86.2-117.1,122.4c-78.1,57.1-157,83.6-169.5,87.6c-12.7-4.1-93.6-31.8-173.5-89.5
				c-50.7-36.5-91-77.8-119.9-122.6c-35.9-55.8-54.2-117.4-54.2-183.1V213.7H901.4z"/>
			<path id="Path_4476" class="st3" d="M746.9,425.1L746.9,425.1v2.1c19.3,0.4,34.5,4.2,43.9,11.6c58.6,45.6,57.3,282.6-66.3,432.7
				c-106.6,129.4-323.6,204.2-388.4,151.9l0,0l-1.9,1.8c95.8,99.6,227.5,140.9,227.5,140.9s318.2-97.4,318.2-372.3V425.1H746.9z"/>
			<path id="Path_4477" class="st2" d="M336.1,1023.3c-54.2-43.9-44.8-288.3,61.7-417.7C493,490.1,660.7,425.2,746.9,427.2v-2.1
				H236.4v368.6c0,98.4,43.1,174.5,97.9,231.5L336.1,1023.3z"/>
			<path id="Path_4478" class="st4" d="M749.7,490.7L414,931.4c43.2,30.6,189,24.5,284.9-102C794.9,702.8,791.9,521,749.7,490.7z"/>
			
				<linearGradient id="Path_4479_00000130643685693457957640000008264252449796897944_" gradientUnits="userSpaceOnUse" x1="2377.3557" y1="521.531" x2="2071.9546" y2="550.5416" gradientTransform="matrix(0.9153 0 0 -1.0926 58.4472 1492.8201)">
				<stop  offset="0" style="stop-color:#1C1612"/>
				<stop  offset="0.13" style="stop-color:#2A3640"/>
				<stop  offset="0.282" style="stop-color:#39576F"/>
				<stop  offset="0.434" style="stop-color:#457396"/>
				<stop  offset="0.584" style="stop-color:#4E88B4"/>
				<stop  offset="0.729" style="stop-color:#5597CA"/>
				<stop  offset="0.87" style="stop-color:#59A0D7"/>
				<stop  offset="1" style="stop-color:#5BA4DC"/>
			</linearGradient>
			<path id="Path_4479" style="fill:url(#Path_4479_00000130643685693457957640000008264252449796897944_);" d="M353,1010.5
				c60.4,44.1,267.7-39.6,363.9-165.8c96-126,113.7-350.6,59.8-390c-48.2-35.2-269.2,41-365,166.7
				C315.5,747.6,302.4,973.5,353,1010.5 M749.3,490.3c42.8,30.4,45,213.8-50.8,339.6C602,956.4,455.8,962,413.5,931.1
				c-38.5-28.1-80.3-171,16-297.4C524.5,508.9,709.5,462.1,749.3,490.3z"/>
			<path id="Path_4480" class="st2" d="M637.5,638l17.1,238.9l-74.7-163.3L637.5,638l-57.6,75.6"/>
			<path id="Path_4481" class="st2" d="M578.3,715.6l16.2,202l-64-139.2L578.3,715.6z"/>
			<path id="Path_4482" class="st2" d="M695.8,561.5l20.8,242l-77.9-167L695.8,561.5z"/>
			<path id="Path_4483" class="st3" d="M637.5,638l-241.2,50.4l0.2,0l183.4,25.2L637.5,638z"/>
			<path id="Path_4484" class="st3" d="M578.3,715.6l-204.1,43l0,0l156.3,19.8L578.3,715.6z"/>
			<path id="Path_4485" class="st3" d="M638.7,636.5l-188.8-26.9l0.1,0l245.8-48.1L638.7,636.5z"/>
			<g id="Group_1032" transform="translate(255.501,232.201)">
				<path id="Path_4486" class="st6" d="M70.8,74l0.8,14.5c-6.3,2.5-13.9,3.8-22.7,3.8c-14.7,0-26.6-4.1-35.5-12.2
					C4.5,71.9,0,60.6,0,46.1c0-13.7,4.7-24.8,14-33.3C23.3,4.3,35,0,48.9,0C56.5,0,64,1.1,71.3,3.2l-0.8,14.9
					c-5.9-2.4-12.2-3.7-18.5-3.6c-9.4,0-16.9,2.9-22.7,8.8c-5.7,5.9-8.6,13.5-8.6,22.9c0,9.7,2.7,17.3,8.2,23.1
					c5.5,5.7,13,8.6,22.7,8.6C58.2,77.9,64.7,76.6,70.8,74L70.8,74z"/>
				<path id="Path_4487" class="st6" d="M107,90.8H87.4l34.1-89.4h26l34.2,89.4H161l-7.9-22.4H115L107,90.8z M134.2,13.9L119,54.8
					h29.9L134.2,13.9z"/>
				<path id="Path_4488" class="st6" d="M224.4,90.8H205V1.3h35.4c5.1-0.1,10.2,0.6,15.1,2c4.5,1.3,8.5,4,11.5,7.5
					c3.2,3.7,4.8,8.3,4.8,13.9c0,6.2-1.9,11.1-5.7,14.7c-3.8,3.7-8.8,6.1-14.9,7.2c3.3,0.6,6.3,2.2,8.6,4.6c2.1,2.2,4.1,5.8,6,10.6
					l11.4,28.8h-21.4l-8-22.4c-2.1-5.8-4.2-9.7-6.2-11.7s-5.3-2.9-9.9-2.9h-7.2L224.4,90.8z M224.3,14.6v25.9h9
					c4.6,0.2,9.2-1,13.3-3.2c3.6-2.1,5.4-5.6,5.4-10.5c0-4.7-1.6-8-4.8-9.7s-7.6-2.5-13.3-2.5L224.3,14.6z"/>
				<path id="Path_4489" class="st6" d="M332.1,90.8h-29V1.3h31.4c14.8,0,26.4,3.6,34.8,10.9c8.4,7.3,12.5,18.1,12.5,32.5
					c0,14.8-4.5,26.2-13.5,34.1C359.2,86.8,347.2,90.7,332.1,90.8L332.1,90.8z M322.9,15v62.1h6.3c10.5,0,18.4-2.8,23.7-8.4
					c5.4-5.6,8-13.6,8-23.9c0-9.4-2.6-16.7-7.7-21.9c-5.1-5.2-12.4-7.8-21.8-7.8H322.9z"/>
				<path id="Path_4490" class="st6" d="M430.6,90.8h-19.8V1.3h19.8V90.8z"/>
				<path id="Path_4491" class="st6" d="M483.7,90.8h-19.8V1.3h57.2V15h-37.4v24.5h35.8v13.5h-35.8L483.7,90.8z"/>
				<path id="Path_4492" class="st6" d="M568.8,90.8H549V1.3h57.2V15h-37.4v24.5h35.8v13.5h-35.8L568.8,90.8z"/>
			</g>
			<g id="Group_1033" transform="translate(257.095,339.733)">
				<path id="Path_4493" class="st3" d="M38.7,69.5L25.9,41.2c-0.6,0.1-1.2,0.1-1.6,0.1h-2.8c-0.4,0-1,0-1.6-0.1v25.8H0V1.5
					c1.5,0,3.4,0,5.7-0.1c2.3-0.1,4.6-0.1,6.9-0.1S17,1.2,19,1.2c1.9,0,3.3,0,4.1,0c4.8-0.1,9.6,0.2,14.3,0.9
					c2.9,0.4,5.7,1.3,8.3,2.9c2.4,1.6,4.2,3.8,5.5,6.3c1.3,2.7,1.9,5.7,1.9,8.7c0.1,3.7-0.8,7.3-2.5,10.5c-1.7,3-4.5,5.5-8.6,7.6
					l16.8,26.8L38.7,69.5z M19.7,30.6c0.6,0.1,1.3,0.1,2.1,0.1s1.3,0,1.7,0c1.7,0,3.4-0.1,5.1-0.6c1.2-0.3,2.4-1,3.3-1.9
					c0.9-0.9,1.5-1.9,1.9-3.1c0.5-1.3,0.7-2.7,0.7-4c0-1.5-0.2-2.9-0.8-4.3c-0.5-1.1-1.3-2.1-2.3-2.8c-0.9-0.5-1.9-0.9-2.9-1.2
					c-1.6-0.3-3.2-0.5-4.8-0.4c-0.4,0-1.1,0-1.9,0s-1.5,0.1-2,0.1L19.7,30.6z"/>
				<path id="Path_4494" class="st3" d="M173.4,1.1h17v36.2c0,2.1,0,3.9-0.1,5.4c-0.1,1.5-0.2,2.9-0.3,4.1c-0.1,1.1-0.3,2.2-0.6,3.2
					c-0.3,1-0.6,1.9-0.9,2.9c-1.8,4.8-5.3,8.8-9.8,11.3c-4.6,2.6-10.3,3.9-17.2,3.9c-5,0.1-9.9-0.8-14.6-2.7
					c-3.9-1.6-7.3-4.3-9.8-7.8c-0.8-1.1-1.4-2.3-2-3.5c-0.6-1.3-1-2.6-1.2-4c-0.3-1.8-0.5-3.7-0.6-5.5c-0.1-2.2-0.2-4.8-0.2-7.9V1.1
					h19.6v32.2c0,2.4,0,4.4,0.1,6.1c0.1,1.7,0.1,3.1,0.2,4.3c0.1,1,0.2,2,0.4,3.1c0.2,0.8,0.4,1.5,0.8,2.2c1.2,3.4,4.6,5.6,8.2,5.4
					c2.3,0.1,4.5-0.7,6.3-2c1.8-1.5,3.1-3.5,3.7-5.8c0.4-1.7,0.6-3.5,0.8-5.3c0.2-2.4,0.3-5.2,0.3-8.4L173.4,1.1z"/>
				<path id="Path_4495" class="st3" d="M317.6,42.6h-12.8V31.3h29.9v33.5c-2,0.6-4.1,1.1-6.2,1.5c-2.3,0.4-4.6,0.8-6.9,1
					c-2.3,0.3-4.5,0.5-6.5,0.6s-3.9,0.2-5.4,0.2c-5.4,0.1-10.8-0.8-15.9-2.6c-4.6-1.6-8.8-4-12.5-7.2c-3.5-3.1-6.3-6.8-8.2-11
					c-2-4.4-3-9.1-3-14c-0.1-4.7,0.9-9.3,2.9-13.5c1.9-4,4.6-7.6,8-10.5c3.6-3,7.8-5.3,12.2-6.8c5-1.7,10.3-2.5,15.6-2.4
					c1.6,0,3.3,0,5.3,0.1c1.9,0.1,3.9,0.3,6,0.6s4.1,0.6,6.1,1.1c1.9,0.4,3.7,1,5.5,1.8l-4.5,12.3c-1.2-0.5-2.4-0.9-3.7-1.1
					c-1.4-0.3-2.9-0.6-4.3-0.7c-1.5-0.2-2.9-0.3-4.2-0.3s-2.3-0.1-3.1-0.1c-2.9,0-5.9,0.5-8.6,1.5c-2.5,0.9-4.7,2.3-6.6,4.2
					c-1.8,1.9-3.3,4.1-4.2,6.5c-1,2.7-1.5,5.5-1.5,8.4c-0.1,3.4,0.5,6.9,1.7,10.1c1,2.5,2.5,4.8,4.4,6.7c3.1,3.1,7.3,4.8,11.7,4.9
					c1.8,0,3.2-0.1,4.5-0.2c1.5-0.2,3.1-0.5,4.6-1L317.6,42.6z"/>
				<path id="Path_4496" class="st3" d="M416.5,66.9V1.1h23.4c2.8,0,5.1,0,7,0.1c1.9,0.1,3.5,0.2,4.9,0.3c1.2,0.1,2.5,0.4,3.7,0.7
					c1.1,0.3,2.2,0.7,3.3,1.2c5.8,2.6,8.6,6.9,8.6,13c0.1,3.1-1,6.2-3,8.6c-2,2.3-5.3,4.3-10,6.1c1.5,0.2,3,0.5,4.5,0.9
					c1.3,0.4,2.6,0.9,3.9,1.5c2.7,1.2,4.9,3.2,6.5,5.6c1.6,2.5,2.4,5.5,2.3,8.5c0,3.5-1.1,7-3.2,9.9c-2.2,3-5.2,5.4-8.7,6.9
					c-1.2,0.5-2.3,0.9-3.6,1.2c-1.4,0.3-2.8,0.6-4.3,0.8c-1.6,0.2-3.4,0.3-5.5,0.4s-4.4,0.1-7.2,0.1L416.5,66.9z M438.7,27.2
					c1.5,0,3-0.1,4.5-0.3c1.1-0.2,2.1-0.6,3-1.2c1.1-0.7,1.9-1.8,2.5-2.9c0.6-1.2,0.9-2.5,0.9-3.8c0-1.4-0.3-2.8-1.1-4
					c-0.7-1.1-1.7-2-3-2.4c-0.7-0.3-1.5-0.4-2.3-0.5c-0.9-0.1-2.2-0.1-3.9-0.1h-3.1v15.3H438.7z M439,56.3c1.9,0.1,3.8-0.1,5.6-0.5
					c1.3-0.3,2.5-0.9,3.5-1.8c2.2-1.9,3.4-4.8,3.3-7.7c0-1.7-0.4-3.4-1.2-4.8c-0.8-1.3-2-2.4-3.4-3c-0.8-0.3-1.7-0.6-2.6-0.6
					c-1-0.1-2.5-0.1-4.3-0.1h-3.8v18.5L439,56.3z"/>
				<path id="Path_4497" class="st3" d="M562.9,66.9V41.4L543.8,2.8l21.1-2.6l10.2,26l12-26l16,1.7l-20.4,39.5v25.6L562.9,66.9z"/>
			</g>
			<g id="Group_1034" transform="translate(509.142,1043.554)">
				<path id="Path_4498" class="st1" d="M12,13.5h4.1c0,2.1,1.9,3.5,4.4,3.5c2.2,0,3.6-1.1,3.6-2.5c0-4.1-11.9-0.6-11.9-8.2
					C12.2,2.6,15.4,0,20,0c4.6,0,8,2.8,8,6.6h-3.9c0-1.9-1.7-3.2-4-3.2c-2.1,0-3.5,1-3.5,2.3c0,3.9,11.9,0.5,11.9,8.2
					c0,3.8-3.3,6.5-8.1,6.5C15.5,20.5,12,17.5,12,13.5L12,13.5z"/>
				<path id="Path_4499" class="st1" d="M36.9,19.8h-4.5V0.7h4.5V19.8z"/>
				<path id="Path_4500" class="st1" d="M54.1,14.3V0.7h4.3v19.1h-5.1L45.7,6.2v13.6h-4.3V0.7h5.1L54.1,14.3z"/>
				<path id="Path_4501" class="st1" d="M81.8,13.2c-0.6,4.2-4.6,7.3-9.5,7.3c-5.7-0.1-10.2-4.7-10.1-10.3C62.2,4.6,66.7,0.1,72.3,0
					c4.8,0,8.8,3.1,9.5,7.4l-4.2,0.5c-0.6-2.4-2.7-4.1-5.2-4.1c-3.4,0-5.8,2.6-5.8,6.4s2.4,6.4,5.8,6.4c2.4,0,4.5-1.6,5.2-3.9
					L81.8,13.2z"/>
				<path id="Path_4502" class="st1" d="M99.3,16.2v3.6H85.6V0.7H99v3.6h-9.1v4.1h8v3.2h-8v4.6L99.3,16.2z"/>
				<path id="Path_4503" class="st1" d="M0,49.4v-8.2L9.7,34h6.9v35.1H8.5v-26L0,49.4z"/>
				<path id="Path_4504" class="st1" d="M51.2,42.4c0,3.7-2.3,7.1-5.4,8.1c4.1,1.1,7,4.8,6.9,9.1c0,6.2-6.1,10.6-14.4,10.6
					s-14.4-4.4-14.4-10.6c0-4.3,2.9-8.2,6.8-9.1c-3.1-1-5.4-4.4-5.4-8c0-5.7,5.4-9.8,12.9-9.8C45.8,32.6,51.2,36.6,51.2,42.4
					L51.2,42.4z M32.5,58.6c0,2.9,2.4,5,5.8,5s5.8-2.1,5.8-5c0-2.9-2.5-4.9-5.8-4.9C34.9,53.7,32.5,55.8,32.5,58.6z M33,43.6
					c0,2.6,2.2,4.5,5.3,4.5s5.2-1.9,5.2-4.5c0-2.6-2.2-4.4-5.2-4.4S33,41,33,43.6L33,43.6z"/>
				<path id="Path_4505" class="st1" d="M59.8,69.1l11.9-28.4H56.3V34h24.7v4.8L68.4,69.1L59.8,69.1z"/>
				<path id="Path_4506" class="st1" d="M96.3,34h9.2l-9.3,12.6c1-0.3,2.1-0.5,3.2-0.4c6.7,0,11.4,4.7,11.4,11.4
					c0,7.5-5.9,12.8-14.5,12.8c-8.4,0-14.2-5.3-14.2-12.4c0-2.9,1.4-6.3,3.6-9.3L96.3,34z M96.6,63.6c3.2,0.1,5.9-2.4,6-5.6
					c0-0.2,0-0.3,0-0.5c0.1-3.2-2.3-5.8-5.5-5.9c-0.2,0-0.3,0-0.5,0c-3.6,0-6.2,2.4-6.2,5.9c-0.1,3.3,2.4,6,5.7,6.1
					C96.3,63.6,96.4,63.6,96.6,63.6z"/>
			</g>
		</g>
	</g>
</g>
</svg>
