<?xml version="1.0" encoding="utf-8"?>
<!-- Generator: Adobe Illustrator 26.0.2, SVG Export Plug-In . SVG Version: 6.00 Build 0)  -->
<svg version="1.1" id="svg2" xmlns:svg="http://www.w3.org/2000/svg"
	 xmlns="http://www.w3.org/2000/svg" xmlns:xlink="http://www.w3.org/1999/xlink" x="0px" y="0px" width="800px" height="820px"
	 viewBox="0 0 800 820" style="enable-background:new 0 0 800 820;" xml:space="preserve">
<style type="text/css">
	.st0{fill-rule:evenodd;clip-rule:evenodd;fill:#DDDEE0;stroke:#155A9F;stroke-width:46.6412;}
	.st1{fill-rule:evenodd;clip-rule:evenodd;fill:#155A9F;}
</style>
<g id="layer1" transform="translate(28.952922,-30.284091)">
	<path id="path3491" class="st0" d="M2.9,216.2c124-19.6,244.2-76.7,362.5-152.6c145.7,94.3,270.5,146.6,371,150.5
		c-0.6,218.7-39.4,432.2-368.9,606.3C208.7,735.1-2.1,606,2.9,216.2z"/>
	<path id="path3501" class="st1" d="M465.8,313.9c4.2,0.3,8.5,0.7,12.5,1.1c22.4,2.2,41.8,5.2,56.3,8.6c13.1,3.2,26.6,6.2,33.3,13.5
		l14.2-11.8l22.7,43.7c-21.7-9.2-48.1-17.2-77.9-23.7c-17.3-3.8-35.7-7-54.6-9.7s-46.5-5.4-58.4-6.2s-23.7-1.5-35.5-1.7
		c-19.3-0.4-38.3,0-56.6,1.2c1.6-5.6,3.3-10.9,5.2-16.2c18.9-1.2,37.8-1.9,56.3-2c6.9,0,13.7,0,20.4,0.1c1.4,0,2.8,0.1,4.2,0.1
		c1.4,0,19.3,0.5,23.5,0.7c4.1,0.2,8,0.4,12.1,0.7 M294.2,353c-3.8,22.8-5.5,46.7-5.3,70.4c0.2,18.6,1.3,34.8,3.6,51.5
		c-8-0.9-15.8-1.9-23.2-3.2c-8.5-16.9-20-32.6-35.9-46.1c20.3-17.4,32.9-39.6,43.6-70c10.7-30.4,5.6-14.2,6.5-17.4
		c0.9-3.2,2.6-11.5,3.6-14.8c6.8-23.8,18.8-52.2,31.5-75.9c13.4-20.7,28.9-33.8,48.2-35.4c19.3,1.6,34.7,14.7,48.1,35.4
		c8.1,12.6,15.1,27.6,20.9,43.2c-4.3-0.2-8.6-0.4-13-0.5c-11.3-25.1-27.2-46.1-48.6-60.2c-1.8-1.2-3.9-1.9-6.1-1.9
		c-0.3,0-0.5,0-0.8,0c-0.2,0-0.4,0-0.7,0c-2,0.1-4,0.7-5.7,1.9c-22.1,14.5-41.5,47.5-52.9,73.7L294.2,353z M463.4,468.4
		c8.3-15.6,21.9-30.2,36.7-42.8c-20.5-17.5-33.1-40-43.9-70.8c-5-0.6-9.9-1.3-15-1.9c3.9,23.3,5.4,47.8,5,71.9
		c-0.2,15.6-1.2,31.2-3,46.4c-1.8,15.2-1.8,13.4-3.2,21.6s-3.2,16.2-5,24c-1.9,7.8-5,18.6-6,21.7c-1,3.1-2,6.3-3,9.3
		c-11.8,33.6-27.8,60.5-51,71.7c-0.2,0.2-0.3,0.4-0.5,0.5c-1.7,1.3-3.7,1.9-5.7,2c-2.8,0.5-5.7-0.2-8.1-2c-0.3-0.2-0.4-0.5-0.7-0.7
		c-23.1-11.9-41.4-47.9-53.3-81.2c0,0-0.1,0-0.1,0c-4.8-0.4-9.5-0.9-14.3-1.5c-0.5-0.1-1-0.1-1.5-0.1c0.3,1.2,0.5,2.4,0.8,3.6
		c4.5,20.5,16,47.9,30.6,68.9c13.7,19.7,29.8,32.6,43.1,33.7c0.9,0.1,1.7,0,2.5,0c0.2,0,0.4,0,0.5,0c13.3-1.1,29.3-13.9,42.9-33.7
		c14-22.2,25.8-45.7,31.1-71.7 M364.5,190.8c-1,0-2,0.2-2.9,0.5c-26.1,3.5-46.2,22-60.8,44.7c-11.8,18.2-20.7,39.5-27.7,60.4
		c-40.9,5.3-79.6,13.9-111.4,27c-21.8,9-40.5,20-54.3,34.3s-22.5,32.1-23.2,52.3l-0.1,0.8l0.1,0.9c4.7,39.8,33.3,68.9,71.4,88.5
		c32.1,16.5,71.5,27,112.9,33.3c0.9,3.7,1.7,7.4,2.5,11.1c5.3,23.8,17.3,52.7,33.8,76.5c15.6,22.6,35.7,41.8,60,42.8
		c1.3,0.1,2.5,0.1,3.8,0c24.4-0.9,44.4-20.2,60-42.8c16.5-23.8,28.7-52.6,33.9-76.5c0.8-3.4,1.6-6.7,2.4-10.1
		c25.5-3.7,46.7-8.8,62.3-15.8c27.2,28.5,0.1,0.3,26.9,28.6l76.7-115.4l-27.2,8c-30.4,8.9-69.1,17.5-110.5,24.2
		c7.8-11.1,17.4-21.2,29.9-29.9c0.1-0.1,0.2-0.1,0.3-0.1c1-0.7,1.8-1.5,2.5-2.4c0.1-0.1,0.2-0.3,0.3-0.4c0.2-0.4,0.5-0.7,0.7-1.1
		c0.1-0.3,0.3-0.5,0.4-0.8c0.1-0.3,0.2-0.5,0.3-0.8c0.1-0.4,0.2-0.8,0.3-1.2c0.1-0.7,0.3-1.4,0.3-2.1c0-0.7,0-1.3-0.1-2
		c0-0.2-0.1-0.3-0.1-0.5c-0.1-0.3-0.2-0.6-0.3-0.9c-0.3-0.8-0.7-1.5-1.2-2.3c-0.4-0.6-0.8-1.2-1.3-1.7c-0.1-0.1-0.2-0.2-0.3-0.3
		c-0.4-0.4-0.8-0.7-1.3-1.1c-0.2-0.1-0.3-0.3-0.5-0.4c-20.5-14.2-32.5-31.2-42.9-58.2c14.6,2.3,28.8,4.9,42.3,7.8
		c46.6,11.7,92.2,25.6,132.2,53l-60.1-116.1l-6.5-12.6l-10.2,9.8l-12.3,11.8c-7-3.7-15.1-6.3-26-8.9c-15.8-3.7-35.9-6.8-59-9.1
		c-6.9-0.7-14.1-1.2-21.5-1.7c-6.7-19.5-15.1-39.2-26.1-56.2c-14.8-22.9-35.2-41.6-61.7-44.8c0,0-0.1,0-0.1,0c-1-0.3-2-0.4-3-0.4
		c-0.4,0-0.7,0.1-1.1,0.1c-0.4,0-0.8-0.1-1.2-0.1C365.2,190.8,364.9,190.8,364.5,190.8z M367.6,251.2c12.3,9.4,22.3,22.7,30.6,38.4
		c-20.2-0.2-41,0.1-61.9,1.2C344.7,274.5,355,260.9,367.6,251.2z M266.2,318.9c-1.8,6.5-3.5,12.6-5.3,18.3
		c-6.9,1.6-13.5,3.3-19.9,5.3c-38.2,12-67.8,33-73.5,66.1l-0.1,0.8v0.8c-0.5,16.5,4.6,31.2,14,42.9c9.5,11.7,22.9,20.5,38.7,27
		c10.5,4.4,22.3,7.8,34.8,10.5c12.6,2.7,5.2,1.7,24.1,4.2c18.9,2.5,39.1,3.7,60.4,3.8c25.4,0.2,52-1.1,78.6-3.6
		c-1.5,8.1-3.3,15.9-5.3,23.5c-36.8,2.2-78.1,1.5-118.1-2.9c-3.2-0.4-6.3-0.8-9.4-1.2l-22.9-3.4c-36.4-6.2-70.4-15.8-97.1-29.5
		c-34.2-17.6-55.8-40.6-59.8-71.4c0.7-14.4,6.4-26.5,17.1-37.6c10.9-11.3,27.2-21.2,47.2-29.4C196.6,332,230.2,324.1,266.2,318.9z
		 M362,348.8c5.2,0,10.5,0,15.8,0.1c13.6,0.3,27.3,1,41.1,2.1c4.6,23.4,6.6,48.5,6.2,73.7c-0.2,16.5-1.5,33-3.6,48.9
		c-27.9,2.7-55.6,4.2-81.8,4c-8.8-0.1-17.3-0.4-25.7-0.9c-2.5-17.2-3.8-34.1-4-53.4c-0.3-24.9,2-49.6,6.5-72.6
		C331.2,349.4,346.4,348.8,362,348.8z M252.4,361.3c-10.2,25.2-22.2,41.4-41.9,55c-0.2,0.1-0.3,0.3-0.5,0.4
		c-0.6,0.4-1.1,0.8-1.6,1.3c-0.9,0.9-1.6,2-2.1,3.2c-0.1,0.1-0.1,0.3-0.1,0.4c-0.1,0.4-0.3,0.7-0.4,1.1c-0.1,0.2-0.1,0.5-0.1,0.7
		c0,0.1,0,0.2,0,0.3c0,0.3-0.1,0.5-0.1,0.8c-0.1,1.1-0.1,2.1,0.1,3.2c0.1,0.7,0.4,1.4,0.7,2c0.2,0.4,0.3,0.7,0.5,1.1
		c0.2,0.3,0.3,0.5,0.5,0.8c0.4,0.6,0.8,1.1,1.3,1.6c0,0,0.1,0.1,0.1,0.1c0.4,0.4,0.7,0.7,1.2,1.1c13,9,23.1,19.4,31,30.9
		c-4.5-1.4-8.9-2.8-12.9-4.5c-13.5-5.6-23.8-12.6-30.3-20.7c-6.4-7.9-9.5-16.7-9.3-28.2c4.2-22.1,24.6-38.2,58.8-48.9
		C249,362.3,250.7,361.8,252.4,361.3z M583.4,466.9c-10.5,16.7-21.1,30.1-31.2,47.1l-17.9-22.4l-8.6,4.9
		c-9.6,5.6-29.4,11.3-54.7,15.6l9.1-24.5C517.3,482,552.7,474.8,583.4,466.9z M328.5,539.8c26.6,1.5,53,1.6,77.8,0.4
		c-0.1,0.2-0.2,0.4-0.3,0.7c-10.4,29.6-24.9,50.7-38.4,58.7C354.2,591.4,338.9,568.5,328.5,539.8z"/>
</g>
</svg>
