<?xml version="1.0" encoding="utf-8"?>
<!-- Generator: Adobe Illustrator 26.0.2, SVG Export Plug-In . SVG Version: 6.00 Build 0)  -->
<svg version="1.1" id="b601ca12-e091-4484-b851-3f61b6544409"
	 xmlns="http://www.w3.org/2000/svg" xmlns:xlink="http://www.w3.org/1999/xlink" x="0px" y="0px" width="752.8px" height="1000px"
	 viewBox="0 0 752.8 1000" style="enable-background:new 0 0 752.8 1000;" xml:space="preserve">
<style type="text/css">
	.st0{fill:#002F6C;}
	.st1{fill:#FEE900;}
</style>
<path class="st0" d="M631.3,637.4c19.6-39.3,36.2-80,49.6-121.8c5.1-16,10-32.5,14.4-49.1c2.1-8,4.2-16.1,6.2-24.3
	c3.8-15.7,7.3-31.8,10.5-47.9c1.5-7.7,3-15.6,4.4-23.5c2.7-15,5.1-30.4,7.2-45.6c2-14.1,3.8-28.8,5.3-43.5
	c1.4-13.5,2.7-27.2,3.7-40.7c0.9-12.5,1.7-25.1,2.3-37.5c0.5-11.3,0.9-22.6,1.2-33.7c0.7-32.1,0.1-57.5-0.5-73.2
	c-0.2-5.4-0.5-9.9-0.7-13.3c-0.3-5.1-0.5-7.8-0.5-7.8c-2-0.6-197.6-59-357.6-59h-0.9C216,16.4,20.3,74.9,18.4,75.5
	c0,0-0.2,2.7-0.5,7.8c-0.2,3.4-0.4,7.9-0.6,13.3c-0.6,15.7-1.2,41.1-0.5,73.2c0.3,11.3,0.7,22.6,1.2,33.7
	c0.6,12.6,1.4,25.2,2.3,37.5c1,13.5,2.2,27.2,3.7,40.7c1.5,14.5,3.3,29.1,5.3,43.5c2.1,15.3,4.6,30.7,7.2,45.6
	c1.4,7.7,2.8,15.6,4.4,23.5c3.2,16.1,6.7,32.2,10.5,47.9c2,8.1,4.1,16.3,6.2,24.3c4.4,16.6,9.3,33.1,14.4,49.1
	c13.4,41.8,29.9,82.5,49.6,121.8c107.7,213.8,253,344.9,254.4,346.1c0.4,0.1,0.8,0.1,1.1,0C378.4,982.4,522.4,853.7,631.3,637.4"/>
<path class="st1" d="M386.7,248.4c-49.5,0-89.7,37.2-89.7,83.1c0,8.2,0.9,16.4,2.6,24.4C302.9,372,312,387,312,387
	c4.1,7.7,8.7,15.2,13.9,22.2c4.7,6.1,20.7,27.1,34.2,43.9l0,0c4.3,5.1,8.3,10,11.5,13.8l0.7,0.8c18.6,20.3,43.4,56.2,48.7,64.3
	c4.9,7.6,10.1,22.4,10.2,38.7c0,0.4,0,0.8,0,1.2c0,27.5-22.9,49.7-51.2,49.7c-25,0.2-46.5-17.8-50.6-42.5c-0.4-2.6-1.6-3.5-4.2-2.5
	l-31,9.7c-1.5,0.4-2.5,1.9-2.2,3.5c7.6,38.7,44.2,68.1,88.2,68.1c49.5,0,89.7-37.2,89.7-83.1c0-8.2-0.9-16.4-2.6-24.4
	c-3.3-16.1-12.3-31.1-12.3-31.1c-4.1-7.7-8.8-15.2-14-22.2c-4.7-6.1-20.7-27.1-34.2-43.9c-4.3-5.2-8.3-10-11.5-13.8l-0.7-0.8
	c-18.6-20.3-43.4-56.2-48.7-64.3c-4.9-7.6-10.1-22.4-10.1-38.7c0-0.4,0-0.8,0-1.2c0-27.5,22.9-49.7,51.2-49.7
	c24-0.1,44.8,16.5,50.1,39.9c0.2,0.8,0.4,1.7,0.5,2.5c0.3,1.7,1.5,3.2,3.4,2.8l31.9-9.8c1.5-0.4,2.5-1.9,2.2-3.5
	C467.3,277.8,430.7,248.4,386.7,248.4"/>
<path class="st1" d="M191.2,401.1c10.6,6.2,36.9,22.3,55,39.3c1.8,1.8,2.1,4.6,0.6,6.7l-43.6,62c-0.8,1.2-2.4,1.4-3.6,0.6
	c-0.5-0.4-0.9-1-1.1-1.6c-5.9-35-10.4-87.5-11.7-104.2c-0.1-1.6,1.1-2.9,2.6-3C190.1,400.7,190.7,400.8,191.2,401.1 M238.2,654.1
	c-11.1-28.1-20.8-60.4-28.7-93.5c-0.2-1,0-2.1,0.5-3l61.2-89.6c1.1-1.7,3.4-2.2,5.1-1c0.1,0.1,0.3,0.2,0.4,0.3
	c18.3,16,25.9,22.9,30.2,26.7c1.3,1.1,3.2,1.1,4.4-0.2l19.5-28.2c1.3-1.2,1.3-3.2,0.1-4.5c0,0,0,0-0.1-0.1
	c-8.3-7.9-60.8-57.2-85.6-74.1c-45.2-30.8-79.2-42-92.9-45.6c-2-0.5-4,0.6-4.5,2.6c-0.1,0.4-0.1,0.7-0.1,1.1
	c0.5,31.3,5.6,201.3,49.8,310.6c0.5,1.3,1.8,2.2,3.2,2.2h35.2c1.5,0,2.6-1.1,2.7-2.6C238.5,654.8,238.4,654.4,238.2,654.1"/>
<path class="st1" d="M467.5,456.9c1.4,2,2.7,4,4,6c1.4,2.3,4.4,3.1,6.8,1.6c0.2-0.1,0.5-0.3,0.7-0.5c22.7-19.8,37-31.8,41.7-35.7
	c4.7-3.9,9.9-7.5,13.6-10c1.5-1,3.5-0.6,4.5,0.9c0.4,0.5,0.6,1.2,0.5,1.8v30c0,1.8,1.4,3.2,3.2,3.2l14.6,0.2c1.8,0,3.2,1.5,3.2,3.2
	c0,0.1,0,0.2,0,0.4c-7,59.7-21.4,130.1-49.8,197.5c-0.5,1.1,0,2.4,1.2,2.9c0.3,0.1,0.5,0.2,0.8,0.2h34.8c1.6,0,3-1,3.6-2.4
	c36.3-85.9,49.8-176.8,54.3-244.3c0.1-1.8-1.2-3.3-3-3.4c-0.1,0-0.2,0-0.2,0h-19c-1.8,0-3.2-1.4-3.2-3.2v-63.4
	c0-1.8-1.4-3.2-3.2-3.3c-0.7,0-1.3,0.2-1.8,0.5c-13.6,8.8-52,33.9-74.5,51.9c-13.3,10.6-23.4,19.3-43.2,37.2
	c-3.5,3.2-6.2,5.5-1.3,12.4C461,448,465.4,454,467.5,456.9"/>
<path class="st1" d="M403.1,94.6c-19.7,0-35.7,16-35.7,35.7s16,35.7,35.7,35.7s35.7-16,35.7-35.7C438.8,110.5,422.8,94.6,403.1,94.6
	 M403.1,163.7c-18.5,0-33.5-15-33.5-33.5s15-33.5,33.5-33.5s33.5,15,33.5,33.5l0,0C436.6,148.7,421.6,163.7,403.1,163.7"/>
<rect x="405.1" y="122.1" transform="matrix(1.919772e-02 -0.9998 0.9998 1.919772e-02 257.4205 547.1981)" class="st1" width="5.1" height="40.5"/>
<path class="st1" d="M399.3,133.3c5,0.1,9.7-2,13-5.7l0.2-0.3l-3.7-3.5l-0.3,0.3c-4.3,4.9-11.8,5.4-16.7,1.1c-0.3-0.3-0.7-0.6-1-1
	l-0.2-0.1l-4.2-0.1l-10.8,17.8l4.4,2.6l9.1-14.9C392,131.9,395.6,133.2,399.3,133.3"/>
<polygon class="st1" points="407.8,112 421.4,136.5 425.9,134 410.1,105.7 410,105.5 405.8,105.4 396.3,121 400.7,123.7 "/>
<path class="st1" d="M180.8,149.4c0.8-2.4,0.9-5,0.4-7.4c-0.8-4-2.6-6.8-5.6-8.5s-6.9-2.1-11.6-1.2l-15.7,3l6.9,36l8.2-1.5l-2-10.3
	l7.6-1.4l0.8-0.1l7.7,9.2l9.2-1.8l-10-10.4C178.5,153.5,179.9,151.6,180.8,149.4 M172.4,148.6c-1.3,1.4-3,2.3-5,2.6l-7.5,1.4
	l-2.3-12.2l7.5-1.4c1.9-0.5,3.8-0.3,5.5,0.5c1.5,0.9,2.5,2.4,2.7,4.1C173.9,145.4,173.5,147.3,172.4,148.6"/>
<polygon class="st1" points="703.6,166 705.5,159.3 678.6,151.4 668.2,186.8 695.7,194.9 697.6,188.3 678.1,182.5 680.4,174.7 
	697.5,179.7 699.4,173.1 682.4,168.1 684.6,160.4 "/>
<polygon class="st1" points="662.2,147.2 656.4,170.3 644.8,142.9 637.5,141 628.5,176.8 636.3,178.7 642,155.7 653.6,183 
	660.9,184.8 669.8,149.1 "/>
<polygon class="st1" points="217.6,122.9 209.9,147 195.1,126.4 185.9,127.9 191.7,164.3 199.1,163.1 195.2,138.5 208.9,157.8 
	214.2,156.9 221.2,134.4 225.1,159 232.5,157.8 226.7,121.4 "/>
<path class="st1" d="M79,181.1c-1.3,1.2-2.8,2-4.5,2.5c-1.9,0.6-4,0.6-5.9,0.1s-3.6-1.5-5-2.9c-1.4-1.5-2.5-3.3-3-5.2
	c-0.6-2-0.6-4-0.2-6c0.9-3.9,3.9-7.1,7.8-8.1c1.7-0.5,3.5-0.5,5.3-0.2c1.9,0.4,3.7,1.1,5.2,2.2l3-7c-4.8-2.7-10.4-3.4-15.7-1.9
	c-3.4,0.9-6.4,2.7-8.9,5.1c-4.9,4.8-6.7,11.8-4.8,18.4c0.9,3.3,2.6,6.3,5.1,8.7c2.4,2.3,5.3,3.9,8.6,4.7c3.4,0.8,6.9,0.7,10.1-0.3
	c2.6-0.8,5.1-2.1,7.2-3.9c2.2-1.8,4-4.1,5.3-6.6l-6.2-3.8C81.7,178.4,80.5,179.9,79,181.1"/>
<polygon class="st1" points="127.8,170.2 126,162.2 143.3,158.4 141.8,151.6 124.5,155.5 122.8,147.7 142,143.4 140.5,136.6 
	113.2,142.8 121.2,178.7 149.1,172.5 147.6,165.8 "/>
<polygon class="st1" points="100.7,176.3 93.5,147.6 85.4,149.6 94.4,185.4 117.8,179.6 116,172.5 "/>
<polygon class="st1" points="520.1,157 548.4,161.2 549.4,154.4 529.3,151.4 530.5,143.3 548.1,145.9 549.1,139.1 531.5,136.5 
	532.7,128.6 552.2,131.5 553.2,124.6 525.5,120.6 "/>
<polygon class="st1" points="512.7,119 499.5,145.4 492.7,116.6 483.8,115.6 493.9,153.9 502.5,154.9 521.2,120 "/>
<path class="st1" d="M469.7,136.2c-0.1,2.3-1,4.5-2.7,6.1c-1.7,1.4-3.8,2.1-6,1.8c-2.2-0.1-4.3-1.1-5.8-2.8c-1.4-1.8-2-4.1-1.7-6.4
	l1.8-21.6l-8.3-0.7l-1.8,21.6c-0.3,2.9,0.1,5.9,1.3,8.5c1.1,2.5,3,4.5,5.3,5.9c2.6,1.6,5.5,2.5,8.6,2.6c3,0.3,6-0.1,8.8-1.2
	c2.5-1,4.6-2.8,6.1-5c1.6-2.5,2.5-5.3,2.7-8.2l1.8-21.6l-8.3-0.7L469.7,136.2z"/>
<path class="st1" d="M271,124.9c-2-2.7-4.7-4.8-7.9-6c-6.6-2.6-14.1-1.7-20,2.3c-8.5,6-10.5,17.7-4.5,26.2c2.1,3,5,5.2,8.3,6.6
	c6.6,2.6,14.1,1.7,20-2.3c5.6-4,8.6-10.7,7.8-17.6C274.4,130.8,273.1,127.6,271,124.9 M265.5,141.3c-0.7,1.9-2,3.5-3.5,4.7
	c-1.6,1.2-3.4,2-5.4,2.2s-4-0.1-5.8-0.9c-1.8-0.8-3.4-2.1-4.6-3.8c-2.5-3.4-3-7.9-1.4-11.8c0.8-1.9,2-3.5,3.6-4.7s3.5-2,5.5-2.2
	s3.9,0.1,5.7,0.9s3.4,2.1,4.5,3.7c1.2,1.7,1.9,3.6,2.2,5.7C266.6,137.2,266.3,139.3,265.5,141.3"/>
<path class="st1" d="M616.8,165.3c-1.3,0.4-2.6,0.6-3.9,0.7c-1.2,0.1-2.4,0-3.6-0.2c-4.1-0.8-7.4-3.8-8.7-7.8
	c-1.2-4-0.3-8.4,2.4-11.6c2.8-3.1,7-4.4,11-3.6c1.8,0.4,3.5,1.1,5,2.2c1.6,1.1,2.9,2.4,4,4l5.8-4.9c-1.6-2.1-3.6-3.9-5.8-5.3
	c-2.3-1.5-4.9-2.5-7.6-3.1c-3.5-0.8-7.1-0.7-10.5,0.3c-3.2,0.9-6.2,2.7-8.5,5.2s-3.9,5.6-4.6,8.9c-1.5,6.7,0.8,13.7,6,18.2
	c2.6,2.3,5.8,3.8,9.3,4.5c2.6,0.5,5.3,0.6,8,0.3c2.6-0.3,5.2-0.9,7.6-2l3-14l-7.1-1.5L616.8,165.3z"/>
<polygon class="st1" points="304.3,113.3 306.2,137 286.4,114.8 278.9,115.4 281.9,152.1 289.8,151.5 287.9,127.9 307.6,150 
	315.2,149.4 312.2,112.7 "/>
<path class="st1" d="M576.5,128.6l-15.8-2.8l-6.3,36.3l8.2,1.4l1.8-10.4l7.6,1.3l0.8,0.1l3.9,11.4l9.3,1.6l-5.6-13.3
	c2.3-0.6,4.3-1.8,5.8-3.6c1.6-2,2.6-4.4,3-6.9c0.7-4,0-7.4-2.2-10S581.3,129.5,576.5,128.6 M581.4,142.8c-0.2,1.8-1.2,3.4-2.7,4.3
	c-1.7,0.9-3.7,1.1-5.6,0.6l-7.6-1.3l2.2-12.3l7.6,1.3c1.9,0.2,3.7,1.1,5,2.4C581.4,139.3,581.8,141.1,581.4,142.8"/>
<polygon class="st1" points="347.6,111 316.9,112.4 317.2,119.4 328.4,118.9 329.7,148.7 338,148.3 336.7,118.6 347.9,118 "/>
<path class="st1" d="M17.9,83.3c0.3-4.4,0.5-7.1,0.5-7.8c2.4-0.7,198.4-59,357.5-59h0.9c159.7-0.1,355.6,58.4,357.6,59
	c0.1,0.8,0.3,3.5,0.5,7.8c0.2,3.4,0.4,7.9,0.7,13.3c0.6,15.7,1.2,41.1,0.5,73.2c-0.2,10.9-0.7,22.3-1.2,33.7
	c-0.6,12.3-1.3,24.9-2.3,37.5c-1,13.7-2.3,27.4-3.7,40.7c-1.6,14.7-3.3,29.3-5.3,43.4c-2.1,15.3-4.6,30.7-7.2,45.6
	c-1.4,7.9-2.9,15.8-4.4,23.5c-3.2,16.1-6.7,32.2-10.5,47.9c-2,8.2-4.1,16.4-6.2,24.3c-4.4,16.6-9.3,33.1-14.5,49.1
	c-13.4,41.8-29.9,82.5-49.6,121.8c-106.8,212-245.9,338.5-254.4,346.1c-0.5,0-0.9-0.1-1.3-0.3c-8.4-7.6-148.8-137-254-345.8
	c-19.6-39.3-36.2-80-49.6-121.8c-5.1-15.9-10-32.4-14.4-49.1c-2.1-8.1-4.2-16.2-6.2-24.3c-3.8-15.7-7.4-31.8-10.5-47.9
	c-1.6-7.9-3-15.8-4.4-23.5c-2.6-15-5.1-30.3-7.2-45.6c-2-14.5-3.8-29.1-5.3-43.5c-1.4-13.6-2.7-27.3-3.7-40.7
	c-0.9-12.2-1.7-24.8-2.3-37.5c-0.5-11.2-0.9-22.5-1.2-33.7c-0.7-32-0.1-57.5,0.5-73.2C17.5,91.1,17.7,86.7,17.9,83.3 M752,95.9
	c-0.2-5.6-0.5-10.2-0.7-13.6c-0.3-4.8-0.5-7.5-0.5-8.2c-0.6-6.7-5.2-12.4-11.6-14.4C737.2,59.2,539.3,0,375.9,0
	C213.6,0,15.6,59.2,13.7,59.7C7.2,61.7,2.6,67.4,2,74.1c0,0-0.2,2.8-0.6,8.2C1.2,85.8,1,90.4,0.7,95.9c-0.6,15.9-1.2,41.7-0.5,74.2
	c0.3,11.6,0.7,23.1,1.2,34.1c0.6,12.7,1.4,25.4,2.3,37.9c1,13.6,2.3,27.4,3.7,41.2c1.6,14.7,3.4,29.5,5.4,44
	c2.2,15.5,4.6,31.1,7.3,46.2c1.4,7.8,2.9,15.8,4.4,23.8c3.2,16.3,6.8,32.6,10.7,48.6c2.1,8.4,4.2,16.7,6.3,24.7
	c4.5,16.9,9.5,33.7,14.7,49.9c13.6,42.6,30.5,84.1,50.5,124.1c110.4,219.1,257,350.1,258.5,351.3c6.4,5.2,15.5,5.3,22,0.1
	c1.4-1.1,149.2-134.2,258.6-351.4c20-40,36.9-81.5,50.5-124.2c5.2-16.3,10.2-33,14.7-49.8c2.2-8,4.3-16.4,6.3-24.7
	c3.8-15.9,7.4-32.2,10.7-48.6c1.5-7.8,3-15.8,4.5-23.8c2.7-15.2,5.1-30.7,7.3-46.2c2-14.2,3.8-29,5.4-44c1.4-13.6,2.7-27.4,3.7-41.2
	c1-12.6,1.7-25.4,2.3-37.9c0.5-11.3,0.9-22.8,1.2-34.1C753.2,137.6,752.6,111.8,752,95.9"/>
<path class="st1" d="M360.5,757.2c-11.6,0-20.4,9.4-20.4,21.8c0,11.2,7.6,19.4,18,19.4c1.5,0,2.9-0.1,4.4-0.5l-1,1.9l-0.4,0.7
	c-3.4,6-4.9,8-10.2,14.8l-3.5,4.4l-1.8,2.2l12.7,2.2l1.5-1.7c4.7-5.8,9.5-11.7,12.2-15.7c2.7-3.8,4.9-7.9,6.5-12.2
	c1.7-4.7,2.7-9.6,2.9-14.5C381.4,767.1,372.4,757.2,360.5,757.2 M369,779.8c0,2.3-0.3,4.6-1.2,6.8c-2.1,1.4-4.5,2.2-7,2.2
	c-5.4,0-9-4.1-9-10.2s3.5-10.6,8.4-10.6C365.5,768,368.9,772.6,369,779.8"/>
<rect x="318.2" y="758.2" class="st1" width="12.6" height="65.1"/>
<rect x="390.8" y="758.2" class="st1" width="12.6" height="65.1"/>
<rect x="422" y="758.2" class="st1" width="12.6" height="65.1"/>
</svg>
