<?xml version="1.0" encoding="utf-8"?>
<!-- Generator: Adobe Illustrator 26.0.2, SVG Export Plug-In . SVG Version: 6.00 Build 0)  -->
<svg version="1.1" id="svg8216" xmlns:svg="http://www.w3.org/2000/svg"
	 xmlns="http://www.w3.org/2000/svg" xmlns:xlink="http://www.w3.org/1999/xlink" x="0px" y="0px" width="329.9px" height="358.6px"
	 viewBox="0 0 329.9 358.6" style="enable-background:new 0 0 329.9 358.6;" xml:space="preserve">
<style type="text/css">
	.st0{fill:#002253;stroke:#FFFFFF;stroke-width:2.1489;}
	.st1{fill:url(#path320_00000083785826107243776600000001486555865494922378_);}
	.st2{fill:url(#path340_00000078767017229874418730000010423666995264165772_);}
	.st3{fill:url(#path360_00000048494183100521456840000006327039490729956775_);}
	.st4{fill:url(#path380_00000024710729323542064820000013900460964445407920_);}
	.st5{fill:#002253;}
	.st6{fill:#FFFFFF;}
	.st7{fill:none;stroke:#002253;stroke-width:1.0828;}
	.st8{fill:#C4DCF1;}
	.st9{fill:none;stroke:#002253;stroke-width:0.9114;}
	.st10{fill:url(#path546_00000172434862902814615750000018096929918369504182_);}
</style>
<g id="layer1" transform="translate(-240.7873,-375.8125)">
	<path id="path300" class="st0" d="M406.8,732.6c-187-137.8-163-354.7-163-354.7h323.7c0,0,24,216.8-163,354.7"/>
	
		<linearGradient id="path320_00000116211611767804995450000010321470706853425798_" gradientUnits="userSpaceOnUse" x1="100.6978" y1="953.1846" x2="101.6978" y2="953.1846" gradientTransform="matrix(-163.3792 91.3826 91.3826 163.3792 -70164.5 -164454.4688)">
		<stop  offset="0" style="stop-color:#FFFFFF"/>
		<stop  offset="1" style="stop-color:#C6C7C9"/>
	</linearGradient>
	<path id="path320" style="fill:url(#path320_00000116211611767804995450000010321470706853425798_);" d="M403.6,393.6
		c-50.4,35.1-117.5,39.5-117.5,39.5l0,0c-18.4,1.8-16.6,4.9-16.6,4.9l0,0c-4.3,168.3,134.1,249,134.1,249l0,0
		c3.1,1.2,6.1-2.5,6.1-2.5l0,0C553,584.7,541.3,447.2,541.3,447.2l0,0c2.5-13.6-3.1-12.3-3.1-12.3l0,0
		c-83.6-6.8-124.9-36.4-124.9-36.4l0,0c-5.5-4.4-8-5.3-9-5.3l0,0C403.7,393.2,403.6,393.6,403.6,393.6"/>
	
		<linearGradient id="path340_00000178915381752710059940000002946669428648828322_" gradientUnits="userSpaceOnUse" x1="101.2918" y1="951.0342" x2="102.2918" y2="951.0342" gradientTransform="matrix(277.5192 0 0 -277.5192 -27843.8008 264492)">
		<stop  offset="0" style="stop-color:#FFFFFF"/>
		<stop  offset="1" style="stop-color:#C6C7C9"/>
	</linearGradient>
	<path id="path340" style="fill:url(#path340_00000178915381752710059940000002946669428648828322_);" d="M267.3,435
		c0,0.1-0.7,5.6-0.7,15.2l0,0c0,20.4,3,59.3,21.7,103.6l0,0c18.7,44.3,53.2,94,115.9,135.9l0,0c0.2,0.1,0.4,0.2,0.6,0.3l0,0
		c0,0,0,0,0.1,0l0,0c0,0,0,0,0,0l0,0c0,0,0,0,0,0l0,0c0,0,0,0,0,0l0,0c0,0,0,0,0,0l0,0c0,0,0.1,0,0.1,0l0,0c0,0,0,0,0,0l0,0
		c0,0,0,0,0,0l0,0c0,0,0,0,0,0l0,0c0,0,0,0,0,0l0,0c0,0,0,0,0,0l0,0c0,0,0,0,0,0l0,0c0,0,0,0,0,0l0,0c0,0,0,0,0,0l0,0c0,0,0,0,0.1,0
		l0,0c0,0,0,0,0,0l0,0c0,0,0,0,0,0l0,0c0,0,0,0,0.1,0l0,0c0,0,0,0,0,0l0,0c0,0,0,0,0,0l0,0c0,0,0,0,0,0l0,0c0,0,0,0,0,0l0,0
		c0,0,0,0,0,0l0,0c0,0,0,0,0,0l0,0c0,0,0,0,0,0l0,0c0,0,0,0,0.1,0l0,0v0c0.3-0.1,0.6-0.2,0.8-0.4l0,0
		c62.7-41.9,97.2-91.6,115.9-135.9l0,0c18.7-44.3,21.7-83.2,21.7-103.7l0,0c0-9.6-0.7-15.1-0.7-15.2l0,0c-0.1-0.9-0.9-1.6-1.8-1.6
		l0,0c-0.1,0-0.2,0-0.2,0l0,0c-1,0.1-1.7,1-1.6,2.1l0,0l0,0.2c0.1,1.1,0.6,6.2,0.6,14.5l0,0c0,20.1-3,58.5-21.4,102.2l0,0
		c-18.4,43.5-52.1,92.3-113.6,133.6l0,0c-61.6-41.4-95.3-90.1-113.6-133.6l0,0c-18.5-43.7-21.4-82.2-21.4-102.2l0,0
		c0-4.7,0.2-8.4,0.3-10.9l0,0c0.1-1.3,0.2-2.2,0.2-2.9l0,0c0-0.3,0.1-0.6,0.1-0.7l0,0l0-0.2c0.1-1-0.6-1.9-1.6-2.1l0,0
		c-0.1,0-0.1,0-0.2,0l0,0C268.2,433.4,267.4,434.1,267.3,435"/>
	
		<linearGradient id="path360_00000067195812946287271270000009010801921426410923_" gradientUnits="userSpaceOnUse" x1="101.7878" y1="950.2689" x2="102.7878" y2="950.2689" gradientTransform="matrix(139.9311 0 0 -139.9311 -13976.0273 133385.6875)">
		<stop  offset="0" style="stop-color:#FFFFFF"/>
		<stop  offset="1" style="stop-color:#C6C7C9"/>
	</linearGradient>
	<path id="path360" style="fill:url(#path360_00000067195812946287271270000009010801921426410923_);" d="M404.1,390.6
		c-9.6,8.4-22.9,15.4-37.4,21l0,0c-21.8,8.4-46.2,13.9-65.2,17.2l0,0c-9.5,1.7-17.6,2.8-23.4,3.5l0,0c-2.9,0.4-5.2,0.6-6.7,0.8l0,0
		c-0.8,0.1-1.4,0.1-1.8,0.2l0,0c-0.4,0-0.6,0.1-0.6,0.1l0,0c-1,0.1-1.8,1-1.7,2l0,0c0.1,1,1,1.8,2,1.7l0,0c0.1,0,24.3-2.2,53.5-8.7
		l0,0c14.6-3.3,30.5-7.6,45.2-13.3l0,0c14.7-5.7,28.4-12.8,38.5-21.7l0,0c0.8-0.7,0.8-1.8,0.2-2.6l0,0c-0.4-0.4-0.9-0.6-1.4-0.6l0,0
		C404.9,390.1,404.5,390.2,404.1,390.6"/>
	
		<linearGradient id="path380_00000112632929095871256630000000191204419342503578_" gradientUnits="userSpaceOnUse" x1="101.7878" y1="950.2689" x2="102.7878" y2="950.2689" gradientTransform="matrix(139.9311 0 0 -139.9311 -13839.7666 133385.6875)">
		<stop  offset="0" style="stop-color:#FFFFFF"/>
		<stop  offset="1" style="stop-color:#C6C7C9"/>
	</linearGradient>
	<path id="path380" style="fill:url(#path380_00000112632929095871256630000000191204419342503578_);" d="M404,390.7
		c-0.7,0.8-0.6,1.9,0.2,2.6l0,0c10.1,8.9,23.8,15.9,38.5,21.7l0,0c44.2,17.1,98.7,22,98.8,22l0,0c1,0.1,1.9-0.7,2-1.7l0,0
		c0.1-1-0.7-1.9-1.7-2l0,0c0,0-0.4,0-1.1-0.1l0,0c-5.3-0.5-29.8-3.2-57.5-9.8l0,0c-27.7-6.5-58.6-17.1-76.7-32.9l0,0
		c-0.4-0.3-0.8-0.5-1.2-0.5l0,0C404.8,390.1,404.3,390.3,404,390.7"/>
	<path id="path422" class="st5" d="M516.1,448.2h-7.5v-1.5c0-0.7-0.1-1.1-0.3-1.3c-0.2-0.2-0.5-0.3-1-0.3c-0.5,0-0.9,0.1-1.1,0.4
		c-0.3,0.3-0.4,0.7-0.4,1.2c0,0.7,0.1,1.2,0.4,1.5c0.3,0.3,1,0.8,2.3,1.2c3.6,1.4,5.9,2.5,6.8,3.4c0.9,0.9,1.4,2.3,1.4,4.3
		c0,1.4-0.3,2.5-0.8,3.2c-0.5,0.7-1.5,1.3-3,1.7c-1.5,0.5-3.2,0.7-5.2,0.7c-2.2,0-4-0.3-5.6-0.8c-1.5-0.5-2.5-1.2-3-2
		c-0.5-0.8-0.7-2-0.7-3.5V455h7.5v2.5c0,0.8,0.1,1.3,0.3,1.5c0.2,0.2,0.6,0.3,1.1,0.3c0.5,0,0.9-0.1,1.2-0.4
		c0.3-0.3,0.4-0.7,0.4-1.2c0-1.2-0.2-2-0.7-2.3c-0.5-0.4-1.8-1-3.8-1.8c-2-0.9-3.4-1.5-4-1.9c-0.7-0.4-1.2-0.9-1.6-1.6
		c-0.4-0.7-0.6-1.6-0.6-2.7c0-1.6,0.3-2.7,0.9-3.4c0.6-0.7,1.6-1.3,3-1.7c1.4-0.4,3-0.6,4.9-0.6c2.1,0,3.9,0.2,5.4,0.7
		c1.5,0.4,2.5,1,2.9,1.7c0.5,0.7,0.7,1.8,0.7,3.4V448.2L516.1,448.2z M479.8,445.5v4.5c0.9,0,1.6-0.1,1.9-0.2
		c0.4-0.2,0.5-0.7,0.5-1.6v-1.1c0-0.6-0.2-1.1-0.5-1.3C481.4,445.6,480.7,445.5,479.8,445.5 M471.7,442h5.7c3.8,0,6.4,0.1,7.8,0.3
		c1.4,0.2,2.5,0.7,3.3,1.5c0.8,0.8,1.3,2,1.3,3.8c0,1.6-0.3,2.6-0.9,3.2c-0.6,0.5-1.8,0.9-3.6,1c1.6,0.3,2.7,0.6,3.2,1
		c0.6,0.4,0.9,0.8,1,1.2c0.1,0.4,0.2,1.4,0.2,3v5.4h-7.5v-6.7c0-1.1-0.1-1.8-0.4-2c-0.3-0.3-1-0.4-2.1-0.4v9.2h-8.1L471.7,442
		L471.7,442z M449.4,442h13.6v4.1h-5.5v3.9h5.1v3.9h-5.1v4.5h6v4.1h-14.1V442z M440.2,462.3h-8.1V442h8.1V462.3z M422.9,442v20.3
		h-7.1l0-13.7l-2.8,13.7h-5.1l-3-13.4l0,13.4h-7.1V442h10.5c0.3,1.2,0.6,2.7,1,4.3l1.2,5.2l1.9-9.5H422.9L422.9,442z M380.8,447.2
		c0-0.9-0.1-1.5-0.2-1.8c-0.2-0.3-0.5-0.4-1-0.4c-0.4,0-0.8,0.1-1,0.3c-0.2,0.2-0.3,0.8-0.3,1.9v9.5c0,1.2,0.1,1.9,0.2,2.2
		c0.1,0.3,0.5,0.4,1,0.4c0.5,0,0.9-0.2,1.1-0.5c0.2-0.3,0.2-1.1,0.2-2.3V447.2L380.8,447.2z M388.9,453.9c0,2-0.1,3.5-0.2,4.3
		c-0.1,0.8-0.6,1.6-1.4,2.3c-0.8,0.7-1.8,1.2-3.1,1.6s-2.9,0.6-4.6,0.6c-1.7,0-3.2-0.2-4.5-0.5c-1.3-0.4-2.4-0.9-3.2-1.6
		c-0.8-0.7-1.3-1.5-1.4-2.3c-0.2-0.8-0.2-2.3-0.2-4.4v-3.5c0-2,0.1-3.5,0.2-4.3c0.1-0.9,0.6-1.6,1.4-2.3c0.8-0.7,1.8-1.2,3.1-1.6
		c1.3-0.4,2.9-0.6,4.6-0.6c1.7,0,3.2,0.2,4.5,0.5c1.3,0.4,2.4,0.9,3.2,1.6s1.3,1.5,1.4,2.3s0.2,2.3,0.2,4.4L388.9,453.9L388.9,453.9
		z M358.2,442v16.2h4.9v4.1h-13.1V442H358.2z M333,447.2c0-0.9-0.1-1.5-0.2-1.8c-0.2-0.3-0.5-0.4-1-0.4c-0.4,0-0.7,0.1-1,0.3
		c-0.2,0.2-0.3,0.8-0.3,1.9v9.5c0,1.2,0.1,1.9,0.2,2.2c0.2,0.3,0.5,0.4,1,0.4c0.6,0,0.9-0.2,1.1-0.5c0.2-0.3,0.2-1.1,0.2-2.3V447.2
		L333,447.2z M341.1,453.9c0,2-0.1,3.5-0.2,4.3c-0.2,0.8-0.6,1.6-1.4,2.3c-0.8,0.7-1.8,1.2-3.1,1.6c-1.3,0.4-2.9,0.6-4.6,0.6
		c-1.7,0-3.2-0.2-4.5-0.5c-1.3-0.4-2.4-0.9-3.2-1.6c-0.8-0.7-1.3-1.5-1.4-2.3c-0.2-0.8-0.2-2.3-0.2-4.4v-3.5c0-2,0.1-3.5,0.2-4.3
		c0.1-0.9,0.6-1.6,1.4-2.3c0.8-0.7,1.8-1.2,3.2-1.6c1.3-0.4,2.9-0.6,4.6-0.6c1.7,0,3.2,0.2,4.5,0.5c1.3,0.4,2.4,0.9,3.2,1.6
		c0.8,0.7,1.3,1.5,1.4,2.3s0.2,2.3,0.2,4.4L341.1,453.9L341.1,453.9z M313.8,450.9h-8.1v-3.5c0-1-0.1-1.7-0.3-1.9
		c-0.2-0.3-0.6-0.4-1.1-0.4c-0.7,0-1.1,0.2-1.3,0.5c-0.2,0.3-0.3,1-0.3,2v9.4c0,1,0.1,1.6,0.3,1.9c0.2,0.3,0.6,0.5,1.2,0.5
		c0.6,0,1-0.2,1.2-0.5c0.2-0.3,0.3-1,0.3-2.1v-2.6h8.1v0.8c0,2.1-0.2,3.6-0.7,4.5c-0.5,0.9-1.5,1.6-3,2.3c-1.6,0.7-3.5,1-5.8,1
		c-2.4,0-4.3-0.3-5.9-0.8c-1.5-0.6-2.6-1.3-3.1-2.3c-0.5-1-0.7-2.5-0.7-4.5v-5.9c0-1.5,0.1-2.6,0.2-3.3c0.2-0.7,0.6-1.4,1.4-2.1
		c0.8-0.7,1.8-1.2,3.2-1.6c1.4-0.4,2.9-0.6,4.7-0.6c2.4,0,4.4,0.3,5.9,0.9c1.6,0.6,2.6,1.4,3.1,2.2c0.5,0.9,0.7,2.3,0.7,4.2
		L313.8,450.9L313.8,450.9z"/>
	<path id="path426" class="st5" d="M405.9,462.8c-5.6,0-10.1,0.8-13.6,2.5c-3.5,1.7-5.6,3.5-6.4,5.6s-1.1,5.3-1.1,9.8v13.9
		c0,3.2,0.2,5.6,0.5,7.2c0.4,1.6,1.3,3.2,2.7,4.6c1.4,1.5,3.5,2.7,6.2,3.7c2.7,1,5.7,1.5,8.8,1.5c2.6,0,4.9-0.3,6.9-1.1
		c1.9-0.7,3.6-1.8,4.8-3.2l1.7,3.3h11.8v-25.1h-21.9v7.1h3.8v5.5c0,2.2-0.3,3.6-0.8,4.4c-0.5,0.7-1.4,1.1-2.8,1.1
		c-1.3,0-2.1-0.3-2.5-1c-0.4-0.7-0.6-2-0.6-4.1V476c0-2.4,0.2-3.9,0.6-4.4c0.4-0.6,1.2-0.9,2.4-0.9c1.4,0,2.2,0.4,2.6,1
		c0.4,0.7,0.5,2.4,0.5,5v4.2h18.7v-2c0-3.8-0.6-6.8-1.7-8.8c-1.1-2-3.5-3.8-7.1-5.2C415.9,463.5,411.4,462.8,405.9,462.8z
		 M293.7,464.8v46.8h18.7v-21.1c2.6,0,4.2,0.3,4.8,0.9c0.6,0.6,0.9,2.1,0.9,4.7v15.5h17.3v-12.3c0-3.8-0.2-6.1-0.5-6.9
		c-0.3-0.8-1.1-1.8-2.4-2.8c-1.3-1-3.8-1.8-7.5-2.4c4.1-0.2,6.9-1,8.2-2.3c1.4-1.3,2.1-3.7,2.1-7.3c0-4-1-6.9-2.9-8.7
		c-2-1.8-4.5-2.9-7.7-3.4c-3.1-0.4-9.1-0.7-17.9-0.7H293.7z M431.6,464.8v46.8h21.7c7.5,0,12.5-0.3,14.9-0.8
		c2.4-0.6,4.2-1.6,5.3-3.1c1.1-1.5,1.7-3.9,1.7-7v-4.3c0-3-0.8-5.3-2.3-6.8c-1.5-1.5-4.5-2.5-8.8-3.2c3.9-0.6,6.5-1.4,7.8-2.5
		c1.3-1.1,2-3,2-5.7c0-4.1-0.9-7-2.8-8.8c-1.9-1.8-4.3-3-7.4-3.6c-3-0.6-7.5-0.9-13.4-0.9H431.6z M472.4,464.8l13.5,29.9v16.9h17.8
		v-16.9l14-29.9h-17.7c-2.5,7.3-4.3,13.5-5.3,18.5c-0.4-3.2-1.9-9.3-4.6-18.5H472.4z M338.3,465.5v27.7c0,5.3,0.1,8.8,0.4,10.4
		c0.3,1.7,1.3,3.2,2.9,4.7c1.6,1.5,4.1,2.7,7.4,3.6c3.3,0.9,7.1,1.4,11.4,1.4c3.9,0,7.3-0.4,10.1-1.2c2.9-0.8,5.2-1.9,6.9-3.4
		c1.7-1.5,2.8-3,3.2-4.4s0.5-3.9,0.5-7.5v-31.3h-18.7V500c0,2.3-0.2,3.8-0.5,4.4c-0.3,0.6-1.1,0.9-2.3,0.9c-1,0-1.7-0.3-2.1-0.8
		s-0.5-1.9-0.5-3.9v-35.1L338.3,465.5L338.3,465.5z M312.4,472.8c2.2,0,3.6,0.2,4.5,0.7c0.8,0.5,1.2,1.4,1.2,2.9v2.6
		c0,2.1-0.4,3.3-1.3,3.7c-0.8,0.4-2.3,0.6-4.4,0.6V472.8z M450.3,472.8c1.9,0,3.3,0.1,3.9,0.2c0.7,0.2,1.2,0.5,1.7,1.1
		c0.4,0.6,0.6,1.6,0.6,3.1c0,2.8-0.3,4.5-0.8,5.1c-0.5,0.6-1.7,0.9-3.5,0.9c-0.5,0-1.1,0-1.9,0V472.8L450.3,472.8z M450.3,490.5
		c2.8,0.1,4.6,0.3,5.2,0.7c0.7,0.4,1,1.6,1,3.7v4.3c0,1.9-0.4,3.1-1.1,3.6c-0.7,0.5-2.4,0.8-5.1,0.8V490.5z"/>
	<path id="path510" class="st6" d="M515.4,466.6l-12.6,27.5v15.6h-16v-15.6l-12.1-27.5h15.8c2.5,8.4,3.8,14.1,4.2,17
		c1-4.6,2.6-10.3,4.8-17H515.4z M450.5,490.3v12.1c2.5-0.1,4-0.3,4.7-0.7c0.7-0.4,1-1.5,1-3.3v-4c0-1.8-0.3-3-0.9-3.4
		C454.7,490.6,453.1,490.4,450.5,490.3 M450.5,474v9.6c0.7,0,1.3,0,1.7,0c1.7,0,2.8-0.3,3.3-0.8c0.5-0.5,0.7-2.1,0.7-4.6
		c0-1.4-0.2-2.3-0.6-2.8c-0.4-0.5-0.9-0.9-1.5-1C453.5,474.1,452.3,474,450.5,474 M433.3,466.6h17.2c5.4,0,9.6,0.3,12.4,0.8
		c2.8,0.6,5.1,1.7,6.8,3.3c1.7,1.7,2.6,4.4,2.6,8.1c0,2.5-0.6,4.3-1.8,5.3c-1.2,1-3.6,1.8-7.2,2.3c4,0.6,6.7,1.6,8.1,2.9
		c1.4,1.4,2.1,3.4,2.1,6.2v4c0,2.9-0.5,5.1-1.5,6.5c-1,1.4-2.7,2.4-4.9,2.9c-2.2,0.5-6.8,0.8-13.8,0.8h-20V466.6L433.3,466.6z
		 M426.6,481.5h-17.2v-3.9c0-2.5-0.2-4-0.5-4.6c-0.3-0.6-1.1-0.9-2.4-0.9c-1.1,0-1.8,0.3-2.2,0.8c-0.4,0.5-0.6,1.9-0.6,4.1v20.7
		c0,1.9,0.2,3.2,0.6,3.8c0.4,0.6,1.2,0.9,2.3,0.9c1.3,0,2.1-0.4,2.6-1c0.5-0.7,0.7-2,0.7-4v-5.1h-3.5v-6.6h20.2v23.1h-10.8l-1.6-3.1
		c-1.2,1.3-2.7,2.3-4.4,3c-1.8,0.7-3.9,1-6.3,1c-2.9,0-5.6-0.5-8.1-1.4c-2.5-0.9-4.4-2.1-5.8-3.4c-1.3-1.4-2.1-2.8-2.5-4.3
		c-0.3-1.5-0.5-3.7-0.5-6.7v-12.8c0-4.1,0.3-7.1,1-9c0.7-1.9,2.6-3.6,5.9-5.1c3.2-1.6,7.4-2.3,12.6-2.3c5,0,9.2,0.7,12.6,2
		c3.3,1.4,5.5,3,6.5,4.8c1,1.9,1.5,4.6,1.5,8.1L426.6,481.5L426.6,481.5z M379.4,467.4v28.8c0,3.3-0.2,5.6-0.5,6.9
		c-0.3,1.3-1.3,2.7-2.9,4.1c-1.6,1.4-3.7,2.4-6.4,3.2c-2.6,0.7-5.7,1.1-9.3,1.1c-4,0-7.5-0.4-10.5-1.3c-3-0.8-5.3-2-6.8-3.3
		c-1.5-1.4-2.4-2.8-2.7-4.3c-0.3-1.5-0.4-4.7-0.4-9.6v-25.5h17.2v32.3c0,1.9,0.2,3.1,0.5,3.6c0.3,0.5,1,0.8,1.9,0.8
		c1.1,0,1.8-0.3,2.1-0.9c0.3-0.6,0.5-1.9,0.5-4.1v-31.8H379.4L379.4,467.4z M312.6,474v9.6c1.9,0,3.3-0.2,4.1-0.5
		c0.8-0.3,1.2-1.5,1.2-3.4v-2.4c0-1.4-0.4-2.3-1.1-2.7C315.9,474.2,314.6,474,312.6,474 M295.4,466.6h12.2c8.1,0,13.6,0.2,16.5,0.6
		c2.9,0.4,5.2,1.4,7,3.1c1.8,1.7,2.7,4.4,2.7,8c0,3.4-0.6,5.6-1.9,6.8c-1.3,1.2-3.8,1.9-7.6,2.1c3.4,0.6,5.7,1.3,6.9,2.2
		c1.2,0.9,1.9,1.8,2.2,2.6c0.3,0.8,0.4,2.9,0.4,6.4v11.4h-16v-14.3c0-2.3-0.3-3.7-0.8-4.3c-0.6-0.6-2-0.8-4.4-0.8v19.4h-17.2V466.6z
		"/>
	<path id="path514" class="st7" d="M515.4,466.6l-12.6,27.5v15.6h-16v-15.6l-12.1-27.5h15.8c2.5,8.4,3.8,14.1,4.2,17
		c1-4.6,2.6-10.3,4.8-17H515.4z M450.5,490.3v12.1c2.5-0.1,4-0.3,4.7-0.7c0.7-0.4,1-1.5,1-3.3v-4c0-1.8-0.3-3-0.9-3.4
		C454.7,490.6,453.1,490.4,450.5,490.3z M450.5,474v9.6c0.7,0,1.3,0,1.7,0c1.7,0,2.8-0.3,3.3-0.8c0.5-0.5,0.7-2.1,0.7-4.6
		c0-1.4-0.2-2.3-0.6-2.8c-0.4-0.5-0.9-0.9-1.5-1C453.5,474.1,452.3,474,450.5,474L450.5,474z M433.3,466.6h17.2
		c5.4,0,9.6,0.3,12.4,0.8c2.8,0.6,5.1,1.7,6.8,3.3c1.7,1.7,2.6,4.4,2.6,8.1c0,2.5-0.6,4.3-1.8,5.3c-1.2,1-3.6,1.8-7.2,2.3
		c4,0.6,6.7,1.6,8.1,2.9c1.4,1.4,2.1,3.4,2.1,6.2v4c0,2.9-0.5,5.1-1.5,6.5c-1,1.4-2.7,2.4-4.9,2.9c-2.2,0.5-6.8,0.8-13.8,0.8h-20
		V466.6L433.3,466.6z M426.6,481.5h-17.2v-3.9c0-2.5-0.2-4-0.5-4.6c-0.3-0.6-1.1-0.9-2.4-0.9c-1.1,0-1.8,0.3-2.2,0.8
		c-0.4,0.5-0.6,1.9-0.6,4.1v20.7c0,1.9,0.2,3.2,0.6,3.8c0.4,0.6,1.2,0.9,2.3,0.9c1.3,0,2.1-0.4,2.6-1c0.5-0.7,0.7-2,0.7-4v-5.1h-3.5
		v-6.6h20.2v23.1h-10.8l-1.6-3.1c-1.2,1.3-2.7,2.3-4.4,3c-1.8,0.7-3.9,1-6.3,1c-2.9,0-5.6-0.5-8.1-1.4c-2.5-0.9-4.4-2.1-5.8-3.4
		c-1.3-1.4-2.1-2.8-2.5-4.3c-0.3-1.5-0.5-3.7-0.5-6.7v-12.8c0-4.1,0.3-7.1,1-9c0.7-1.9,2.6-3.6,5.9-5.1c3.2-1.6,7.4-2.3,12.6-2.3
		c5,0,9.2,0.7,12.6,2c3.3,1.4,5.5,3,6.5,4.8c1,1.9,1.5,4.6,1.5,8.1L426.6,481.5L426.6,481.5z M379.4,467.4v28.8
		c0,3.3-0.2,5.6-0.5,6.9c-0.3,1.3-1.3,2.7-2.9,4.1c-1.6,1.4-3.7,2.4-6.4,3.2c-2.6,0.7-5.7,1.1-9.3,1.1c-4,0-7.5-0.4-10.5-1.3
		c-3-0.8-5.3-2-6.8-3.3c-1.5-1.4-2.4-2.8-2.7-4.3c-0.3-1.5-0.4-4.7-0.4-9.6v-25.5h17.2v32.3c0,1.9,0.2,3.1,0.5,3.6
		c0.3,0.5,1,0.8,1.9,0.8c1.1,0,1.8-0.3,2.1-0.9c0.3-0.6,0.5-1.9,0.5-4.1v-31.8H379.4L379.4,467.4z M312.6,474v9.6
		c1.9,0,3.3-0.2,4.1-0.5c0.8-0.3,1.2-1.5,1.2-3.4v-2.4c0-1.4-0.4-2.3-1.1-2.7C315.9,474.2,314.6,474,312.6,474L312.6,474z
		 M295.4,466.6h12.2c8.1,0,13.6,0.2,16.5,0.6c2.9,0.4,5.2,1.4,7,3.1c1.8,1.7,2.7,4.4,2.7,8c0,3.4-0.6,5.6-1.9,6.8
		c-1.3,1.2-3.8,1.9-7.6,2.1c3.4,0.6,5.7,1.3,6.9,2.2c1.2,0.9,1.9,1.8,2.2,2.6c0.3,0.8,0.4,2.9,0.4,6.4v11.4h-16v-14.3
		c0-2.3-0.3-3.7-0.8-4.3c-0.6-0.6-2-0.8-4.4-0.8v19.4h-17.2V466.6z"/>
	<path id="path518" class="st8" d="M511.6,469.3l-10.2,24V507h-13v-13.6l-9.9-24h12.9c2,7.4,3.1,12.3,3.4,14.9c0.8-4,2.1-9,3.9-14.9
		H511.6z M450.9,490v10.5c2.1,0,3.5-0.3,4.1-0.7c0.6-0.4,0.9-1.3,0.9-2.9v-3.5c0-1.6-0.3-2.6-0.8-2.9
		C454.6,490.3,453.2,490.1,450.9,490 M450.9,475.8v8.4c0.7,0,1.2,0,1.5,0c1.5,0,2.4-0.2,2.9-0.7c0.4-0.5,0.6-1.8,0.6-4
		c0-1.2-0.2-2-0.5-2.5c-0.3-0.5-0.8-0.8-1.3-0.9C453.5,475.9,452.5,475.8,450.9,475.8 M435.9,469.4h15c4.7,0,8.3,0.2,10.8,0.7
		c2.4,0.5,4.4,1.4,5.9,2.9c1.5,1.5,2.2,3.8,2.2,7.1c0,2.2-0.5,3.7-1.6,4.6c-1.1,0.9-3.1,1.5-6.3,2c3.5,0.5,5.8,1.4,7,2.5
		c1.2,1.2,1.9,3,1.9,5.4v3.5c0,2.5-0.4,4.4-1.3,5.6c-0.9,1.2-2.3,2.1-4.3,2.5c-2,0.4-5.9,0.7-12,0.7h-17.4V469.4L435.9,469.4z
		 M424,482.3h-15v-3.4c0-2.1-0.1-3.5-0.4-4c-0.3-0.5-1-0.8-2.1-0.8c-0.9,0-1.6,0.2-1.9,0.7c-0.3,0.5-0.5,1.7-0.5,3.6v18
		c0,1.7,0.2,2.8,0.5,3.3c0.3,0.5,1,0.8,2,0.8c1.1,0,1.9-0.3,2.3-0.9c0.4-0.6,0.6-1.8,0.6-3.5v-4.4h-3.1v-5.7H424V506h-9.4l-1.4-2.7
		c-1,1.2-2.3,2-3.9,2.6c-1.6,0.6-3.4,0.9-5.5,0.9c-2.5,0-4.9-0.4-7.1-1.2c-2.2-0.8-3.9-1.8-5-3c-1.1-1.2-1.9-2.4-2.1-3.7
		c-0.3-1.3-0.4-3.2-0.4-5.8v-11.2c0-3.6,0.3-6.2,0.9-7.8c0.6-1.6,2.3-3.1,5.1-4.5c2.8-1.4,6.5-2,10.9-2c4.4,0,8,0.6,10.9,1.8
		c2.9,1.2,4.8,2.6,5.7,4.2c0.9,1.6,1.3,4,1.3,7L424,482.3L424,482.3z M376.9,470.2v25.1c0,2.8-0.1,4.8-0.4,6s-1.1,2.3-2.5,3.5
		c-1.4,1.2-3.2,2.1-5.5,2.8c-2.3,0.6-5,0.9-8.1,0.9c-3.4,0-6.5-0.4-9.1-1.1s-4.6-1.7-5.9-2.9c-1.3-1.2-2.1-2.4-2.3-3.8
		c-0.2-1.3-0.4-4.1-0.4-8.3v-22.2h15v28.1c0,1.6,0.1,2.7,0.4,3.1c0.3,0.5,0.8,0.7,1.7,0.7c1,0,1.6-0.3,1.9-0.8
		c0.3-0.5,0.4-1.7,0.4-3.6v-27.7H376.9z M312.3,475v8.4c1.7,0,2.9-0.2,3.6-0.5c0.7-0.3,1-1.3,1-2.9v-2.1c0-1.2-0.3-2-1-2.3
		C315.2,475.2,314,475,312.3,475 M297.3,468.5h10.6c7.1,0,11.9,0.2,14.4,0.5c2.5,0.4,4.6,1.3,6.1,2.7c1.6,1.5,2.4,3.8,2.4,7
		c0,2.9-0.6,4.9-1.7,5.9c-1.1,1-3.3,1.6-6.6,1.8c3,0.5,5,1.1,6,1.9c1,0.8,1.7,1.5,1.9,2.2c0.3,0.7,0.4,2.5,0.4,5.6v9.9h-13.9v-12.5
		c0-2-0.2-3.3-0.7-3.7c-0.5-0.5-1.8-0.7-3.9-0.7v16.9h-15L297.3,468.5L297.3,468.5z"/>
	<path id="path522" class="st9" d="M511.6,469.3l-10.2,24V507h-13v-13.6l-9.9-24h12.9c2,7.4,3.1,12.3,3.4,14.9c0.8-4,2.1-9,3.9-14.9
		H511.6z M450.9,490v10.5c2.1,0,3.5-0.3,4.1-0.7c0.6-0.4,0.9-1.3,0.9-2.9v-3.5c0-1.6-0.3-2.6-0.8-2.9
		C454.6,490.3,453.2,490.1,450.9,490z M450.9,475.8v8.4c0.7,0,1.2,0,1.5,0c1.5,0,2.4-0.2,2.9-0.7c0.4-0.5,0.6-1.8,0.6-4
		c0-1.2-0.2-2-0.5-2.5c-0.3-0.5-0.8-0.8-1.3-0.9C453.5,475.9,452.5,475.8,450.9,475.8L450.9,475.8z M435.9,469.4h15
		c4.7,0,8.3,0.2,10.8,0.7c2.4,0.5,4.4,1.4,5.9,2.9c1.5,1.5,2.2,3.8,2.2,7.1c0,2.2-0.5,3.7-1.6,4.6c-1.1,0.9-3.1,1.5-6.3,2
		c3.5,0.5,5.8,1.4,7,2.5c1.2,1.2,1.9,3,1.9,5.4v3.5c0,2.5-0.4,4.4-1.3,5.6c-0.9,1.2-2.3,2.1-4.3,2.5c-2,0.4-5.9,0.7-12,0.7h-17.4
		V469.4L435.9,469.4z M424,482.3h-15v-3.4c0-2.1-0.1-3.5-0.4-4c-0.3-0.5-1-0.8-2.1-0.8c-0.9,0-1.6,0.2-1.9,0.7
		c-0.3,0.5-0.5,1.7-0.5,3.6v18c0,1.7,0.2,2.8,0.5,3.3c0.3,0.5,1,0.8,2,0.8c1.1,0,1.9-0.3,2.3-0.9c0.4-0.6,0.6-1.8,0.6-3.5v-4.4h-3.1
		v-5.7H424V506h-9.4l-1.4-2.7c-1,1.2-2.3,2-3.9,2.6c-1.6,0.6-3.4,0.9-5.5,0.9c-2.5,0-4.9-0.4-7.1-1.2c-2.2-0.8-3.9-1.8-5-3
		c-1.1-1.2-1.9-2.4-2.1-3.7c-0.3-1.3-0.4-3.2-0.4-5.8v-11.2c0-3.6,0.3-6.2,0.9-7.8c0.6-1.6,2.3-3.1,5.1-4.5c2.8-1.4,6.5-2,10.9-2
		c4.4,0,8,0.6,10.9,1.8c2.9,1.2,4.8,2.6,5.7,4.2c0.9,1.6,1.3,4,1.3,7L424,482.3L424,482.3z M376.9,470.2v25.1c0,2.8-0.1,4.8-0.4,6
		s-1.1,2.3-2.5,3.5c-1.4,1.2-3.2,2.1-5.5,2.8c-2.3,0.6-5,0.9-8.1,0.9c-3.4,0-6.5-0.4-9.1-1.1s-4.6-1.7-5.9-2.9
		c-1.3-1.2-2.1-2.4-2.3-3.8c-0.2-1.3-0.4-4.1-0.4-8.3v-22.2h15v28.1c0,1.6,0.1,2.7,0.4,3.1c0.3,0.5,0.8,0.7,1.7,0.7
		c1,0,1.6-0.3,1.9-0.8c0.3-0.5,0.4-1.7,0.4-3.6v-27.7H376.9z M312.3,475v8.4c1.7,0,2.9-0.2,3.6-0.5c0.7-0.3,1-1.3,1-2.9v-2.1
		c0-1.2-0.3-2-1-2.3C315.2,475.2,314,475,312.3,475L312.3,475z M297.3,468.5h10.6c7.1,0,11.9,0.2,14.4,0.5c2.5,0.4,4.6,1.3,6.1,2.7
		c1.6,1.5,2.4,3.8,2.4,7c0,2.9-0.6,4.9-1.7,5.9c-1.1,1-3.3,1.6-6.6,1.8c3,0.5,5,1.1,6,1.9c1,0.8,1.7,1.5,1.9,2.2
		c0.3,0.7,0.4,2.5,0.4,5.6v9.9h-13.9v-12.5c0-2-0.2-3.3-0.7-3.7c-0.5-0.5-1.8-0.7-3.9-0.7v16.9h-15L297.3,468.5L297.3,468.5z"/>
	<path id="path526" class="st5" d="M378.5,511.2c-0.7,0-3.6,0.7-4.2,10.6c0,0-0.2,4.3,0.1,5.8c0,0,0.2,2.9-1.1,3.2
		c0,0-2.7-0.2-3.3,5c0,0,0.1,3.7-1.2,3.8c0,0-2,0.7-2.5,3c0,0-0.3,2.2-1.2,2.4c0,0-1.6,1.4-1.6,4.9c0,0,0.8,2,0.1,2.9
		c0,0-1.4,1.9-1.5,3.6c0,0,0.6,2.4,0,2.8c0,0-1.1,1.1-1.1,3.5c0,0,1,3.6,0.5,4.2c0,0-0.1,0.7-1.6,0.3c0,0-1.6-0.2-2.4,1.3
		c0,0-0.4,0.5-0.5,2c0,0,0.4,2-0.1,3.1c0,0-0.1,1-1.1,1.5c0,0-1.6,1-2,2.8c0,0-0.2,1.8,2.4,2.6c0,0,1.9,0.3,1,1c0,0-0.4,0.6-2.1,1.2
		c0,0-1,0.6-0.4,1.9c0,0,0.7,1.3,2.8,0.8c0,0,1.9,0,1.3,1.2c0,0-0.7,1-1.3,1.3c0,0-2.3,1.9-2.2,3.8c0,0,0.2,1.8,1.9,2.1
		c0,0,1.5,0.4,1.5,1.1c0,0-0.2,0.8-1.2,1.3c0,0-1.4,1-1.5,2c0,0-0.3,2.1,4.6,1.9c0,0,0.8-0.1,1.7-0.4c0,0,1.7-0.4,1.3,0.5
		c0,0-0.5,1.1-1.2,1.6c0,0-0.7,0.8,1.1,1.2c0,0,1.7,0.4,3.2,0.3c0,0,2.4-0.3,2.2,0.5c0,0-0.2,1.1-1.4,2.3c0,0-1.3,1.7,0.1,2.7
		c0,0,0.4,1,3,1c0,0,2.6,0.3,6.1-2c0.1,0.3,0.3,0.6,0.6,0.8c0,0,0.4,1,3,1c0,0,0.2,0,0.3,0c-0.1,0.1-0.1,0.1-0.2,0.2
		c0,0-2.4,1.7-8.9,2.5c0,0-3.9-0.3-5.8,5.1c0,0-1.2,3-0.8,5c0,0-0.2,3.5-1.5,3.9c0,0-3.3,2.5-1.2,6.4c0,0,0,0.4,0.6,0.4
		c0,0,0.9,0.6,1,1.6c0,0,0.7,2.6,4,2.5c0,0,2.6-0.7,4.8,5.6c0,0,1.2,4.1,1.2,4.6c0,0,1.1,3.3,4.2,3l0.3-0.2c0,0,0.6-0.2,1,0
		c0,0,2.6,2.6,6.2,2.4c0,0,3.3,0.1,4.7-1.2c0,0,0.2-0.1,0.5-0.2c0,0,0,0,0,0c1.1,0.6,2.7,1.2,4.5,1.2c0,0,3.3,0,4.7-1.2
		c0,0,0.7-0.4,1.7-0.4c0,0,0.8,0.1,1,0.3c0,0,2.3,0.5,4.6-1.1c0,0,1.6-1.8,3.6-2.9c0,0,0.7-0.3,1.2-1.2c0,0,1.9-2.2,3.3-2.6
		c0,0,0.4-0.3,1.5-0.3c0,0,3-0.4,4-2.8c0,0,0.6-1.2,2.9-2.3c0,0,2.4-0.4,3.8-3c0,0,0-0.7,1-0.9c0,0,3.9,0,4.9-2.7
		c0,0,2.2-2.4-1.4-10.9c0,0-0.7-1.3-1.2-1.3c0,0-2.4-1.7-1.2-5.4c0,0,2.5,0,2.9-1.4c0,0,0.7-1,3.2-1.1c0,0,9.3-0.2,12.8-4.8
		c0,0,0.8-1.5,3.7-2.4c0,0,5.8-1.6,8.3-4.6c0,0,0.9-0.7,0.4-1.7c0,0-0.1-2,0.3-2.8c0,0,5.1-2.1,5.4-6.1c0,0,5.6-4.9,8.2-10.8
		c0,0,3.6-9,4.8-11.3c0,0,2.9-2.1,3.3-6.2c0,0,1.9-4.4,6.2-9.8c0,0,6.1-5.9,6.4-8.4c0,0,1.1-1.9-1.5-1.4c0,0-2.7,0.1-8.8,3.3
		c0.4-0.7,0.7-1.4,0.8-1.9c0,0,1.1-1.9-1.5-1.4c0,0-5.1,0.1-17.2,8.4c0,0-7.2,7.3-13.5,11.2c0,0-1.8,1.9-3.6,2.6c0,0-3,3.1-10.7,6.5
		c0,0-1.5,0.9-3.5,1.7c-0.4-0.6-0.6-1.5-0.6-2.7c0,0-0.2-4.4,3.3-4.8c0,0,3.3,0.4,3.5-1.5c0,0,0.3-0.6-0.5-1.7c0,0-1.7-2.4-1.9-4.7
		c0,0,0.2-2.2-1.5-3.6c0,0-1.1-1-3.2-1.2c0,0-2.7-0.8-6.4,1.4c0,0-0.1-0.1-0.1-0.1c0,0-1.1-1-3.2-1.2c0,0-5.5-1.7-11.5,6.1
		c0,0-0.3,0.5-0.7,1.1c-1.5-2.2-3.1-4.6-3.6-5c0,0-2.9-4.2-3.5-5.1c0,0-5.3-8-5.9-8.1c0,0-2.5-3-2.6-3.9c-0.1-0.9-0.2-0.1-0.2-0.1
		s-1.9-4.2-2.6-4.4c0,0-5.1-11.1-5-16.8c0,0,0.9-4.1-1.9-4.2c0,0-3.6-0.7-4.4,10.5c0,0-0.2,4.3,0.1,5.8c0,0,0,0.5,0,1.1
		c-1.5-3.8-3.5-9.6-3.5-13.3c0,0,0.9-4.1-1.9-4.2C378.6,511.2,378.6,511.2,378.5,511.2L378.5,511.2z"/>
	
		<linearGradient id="path546_00000038392448402975054480000015486836712416125329_" gradientUnits="userSpaceOnUse" x1="103.1206" y1="960.5735" x2="104.1206" y2="960.5735" gradientTransform="matrix(-19.0478 21.0528 21.0528 19.0478 -17868.2871 -19847.4629)">
		<stop  offset="0" style="stop-color:#FDC300"/>
		<stop  offset="1" style="stop-color:#B48D12"/>
	</linearGradient>
	<path id="path546" style="fill:url(#path546_00000038392448402975054480000015486836712416125329_);" d="M401.3,541.3
		c0,0,4.3,5.4,4.7,6.6l0,0c0,0,42.3-29.7,72.3-33.2l0,0c0,0-0.6,0-1.7,0l0,0C469.4,514.6,440.5,516.3,401.3,541.3 M370.2,567.3
		c0.1,0.1,0.6,0,0.6,0l0,0c0.6-0.1,0.5-1.2,0.5-1.2l0,0C371.2,566.2,370.2,567.3,370.2,567.3 M341.4,634c0,0,4.8,29.7,45.3,25.5l0,0
		c0,0,24.2-1.6,50.5-15.8l0,0c0,0-35.2,15.2-59.4,9.8l0,0c0,0-29.1-5.2-26.1-32.8l0,0c0,0,2.3-17.8,15.9-35.3l0,0c0,0-3,0.7-3.3-1.6
		l0,0c0,0-0.2-1.2,1.5-1.5l0,0c0,0,2.2-0.9,1.1-1.5l0,0c0,0-3.3-0.5-3.3-2.9l0,0c0,0,0-1.5,2.3-3l0,0c0,0,1.4-0.7,0.9-3.8l0,0
		C366.8,571.2,336.4,604.3,341.4,634"/>
	<path id="path562" class="st6" d="M386.8,520.1c-0.1,0-0.2,0.1-0.3,0.4c0,0-2.4,13.6,11.2,32.3c0,0,5.3,6.9,6.4,7.5
		c0,0,1.8,1.8,0.5,2.6c0,0-1.5,1.7-4.2-2c0,0-1.8-2.7-2.1-3.9c0,0-0.9-1.6-2.9-1c0,0-0.8,0.9-4.2-2c0,0-7.9-6.8-10.5-10.4
		c0,0-1.2-1.4-1.5-0.6c0,0-0.5,1.4,2.5,4c0,0,4.5,4.4,3.2,6c0,0-0.3,1.4-1.9-0.2c0,0-2.2-2.4-2.2-2.9c0,0-2-3.3-3.6-3.1
		c0,0-2.9,1.5-1,2.3c0,0,4.4,0.4,10.2,9.7c0,0,4.6,4.8,7.3,5.8c0,0,1.8,0.5,1.4,1c0,0,0.2,2-4.9-0.1c0,0-4-1.7-8.8-7.6
		c0,0-3.5-4.4-5.3-3.8c0,0-1.6-0.3-1.6,1.8c0,0,0,1.5,2,1.3c0,0,4.9,1.4,9.9,7.3c0,0,3.3,3.6,8.2,4.7c0,0,6.2-0.5,15.2,8.5
		c0,0,3.9,4.2,3.7,7.9c0,0,0.5,1.9-1.1,1.7c0,0-1.2-0.5-1.9-2c0,0-7.5-9.4-15.8-13c0,0-1.9-0.5-2.4-0.5c0,0-8.7-0.7-13.2-1.6
		c0,0-2.1-0.2-4.1-1c0,0-4.1-0.5-5.2,1.1c0,0-1.7,2,0.1,2.2c0,0,0.9,0.7,8.9-0.6c0,0,4.8-1.4,5.9,0c0,0,1.1,1.2-1.8,2.1
		c0,0-2.1,1.2-5.5,0.3c0,0-8-0.6-10.6,2.8c0,0-1.3,3.8,9.1,0.1c0,0,7-2.2,10.9-1.8c0,0,2,0.8,0.7,2.5c0,0,0.1,1-3.4,0.7
		c0,0-9.2-0.1-14.4,3.2c0,0-0.7,0.6-1.3,0.6c0,0-1.1,0.7,1.2,0.5c0,0,8.8,0.8,19.1-4c0,0,4.5-3.3,6.8-2c0,0,1.8,1.1-0.6,3.2
		c0,0-3.2,3.1-16.1,4.8c0,0-5.9-0.8-7,1.3c0,0,0.2,1.5-3.1,4.4c0,0-1.7,1.9,3.6,1.8c0,0,5.2-0.1,7.9-2.8c0,0,6.8-4.9,11.6-4.9
		c0,0,3-0.4,4.7-1.6c0,0,3.1-0.8,2.9,1.2c0,0,0.1,2.1-4.3,1.9c0,0-2.6,0.2-6,2.7c0,0-4.9,3.8-5.2,4.5c0,0-3.9,4.4-6.4,5.7
		c0,0-1.1,1,0.9,0.6c0,0,3.1,0.2,5.8-2.4c0,0,6.2-5.6,12.2-7.8c0,0,3.9-1.4,4.9,2.6c0,0,0.5,1.7-2.2,1.3c0,0-5.1-0.6-11.9,6.3
		c0,0-4.4,4-3.3,4.2c0,0,0.7-0.3,1-0.1c0,0,1.6-2.7,4.9-1.4c0,0,1.2,0.6,2.6-1.2c0,0,2.5-3.2,5.7-0.8c0,0,1.6,1.6-0.7,2
		c0,0-1.7,0.2-2.3,1.2c0,0-1.3,1-0.2,0.8c0,0,3.1-1,4.1-1.7c0,0,3.4-1.7,4.5-0.5c0,0,2.2,1.6-6.5,4.8c0,0-1.6,0.8-0.6,1
		c0,0,0.9,0.7-0.5,1.8c0,0-0.8,0.7-0.9,1c0,0-5,5.7-14.1,8.7c0,0-2.4,1.5-3.9,2.4c0,0,0.1,0.7,3-0.8c0,0,7.8-4.7,10.7-4.6
		c0,0,2.3,0.2,2.3,1.4c0,0,0,0.8-2,1c0,0-6.6,1.5-9.8,4.2c0,0-0.7,3.3-4.9,3.8c0,0-1.5,2.4-0.5,2.1c0,0,0.7-0.1,2.6-1.9
		c0,0,5.9-5.4,12.5-6.1c0,0,1.7-0.3,1.2,0.8c0,0,0.2,0.7-2.7,1.5c0,0-7.8,2.8-11.4,7.6c0,0-2.1,2.6-1.2,2.9c0,0,1.7,1.4,3.4-2.5
		c0,0,1.1-5.5,9.7-5.7c0,0,2.5-0.3,2.1,0.5c0,0,0.3,0.5-1.9,0.9c0,0-8.4,3.2-8.9,7.7c0,0,0.3,3.4,5.4-1c0,0,4.7-4.3,7.3-9.5
		c0,0,1.1-2.4,2.2,0.2c0,0,1.6,2.3-10.5,15.1c0,0-2.5,4.8,1,5c0,0,0.5,0,0.7,0.3c0,0,2.3,0.2,2.3-2.7c0,0,1.3-5.6,7-12.4
		c0,0,3.4-4.4,2.5-6.9c0,0-0.1-2,1.6-0.1c0,0,2.3,4.2-3.2,10c0,0-3.6,3.7-3.8,6.3c0,0-0.4,1,1.1,1c0,0,3.3,1.5,2.9,3.6
		c0,0,0.5,1.6-1.8,3.8c0,0-1.3,3,1.3,2.8c0,0,3.4,0.7,1.1-4.2c0,0,0.9-4.4,3.5-7c0,0,2.6,1.7,4.3-5.2c0,0,1.8-8.3,4.9-10.2
		c0,0,2.7-1.2,1.4,3.1c0,0-2.2,8.8-5.6,15.2v2.2c0,0,0.5,0.1,1.3-1.8c0,0,1-1.5,1.8-0.1c0,0,0.2,2,1.1-0.5c0,0,0.8-1.7,0.7-4
		c0,0,0.3-2.7,2.3-4.9c0,0,4.8-6,2.6-13.2c0,0-0.9-2.7-2.3-4.3c0,0-1.4-2.9,0.4-3.2c0,0,4.6-0.4,4.9,15.4c0,0,0.4,7.2-0.3,8.7
		c0,0-0.9,2.5,0.7,1c0,0,2.5-1.3,1.6-12.9c0,0-0.5-4.4,1.2-2.9c0,0,3.3,6.9,1.6,9c0,0-0.5,1.2-0.1,1.4c0,0-0.1,3.3,0.8,2.8
		c0,0,2.3,0.7,1.2-9.2c0,0-1-5.2-1.6-5.7c0,0,0.1-2.6,1.3-2.5c0,0,0.9-0.1,1.1,2.2c0,0,0.5,1.9,1.2,2.4c0,0,0.1,0,0.1,0.1
		c0.8,0.3,3.4,4.7,3.1,7.4c0,0,1.5,1.7,1-1.1c0,0-0.9-5.5-3.5-8.6c0,0-6.3-7.6,1-10.3c0,0,2.2-0.7,3.9-0.5c0,0,4.3-1.2,6-2.6
		c0,0,0.2-2.7,3.1-1.9c0,0,1,0.1,1.5-0.8c0,0-2.9-0.4-3.4,0c0,0-2.2,0.7-2.1-0.2c0,0-0.2-0.8,1.5-0.8c0,0,2.2-0.3,1.1-0.8
		c0,0-2.1-1.4-0.6-2.3c0,0-0.2-0.5,2.4-0.5c0,0,2.2,0.1,3.5-1.4c0,0,3.5-3.2,5.6-2.7c0,0,1.6,2.7,4.5-0.1c0,0,3.6-3.3,2.7-3.8
		c0,0-10.8,3.7-16.2,3.5c0,0-6.1,0.6-12.2,4.5c0,0-7.2,2.7-7.6-1.6c0,0-0.7-2,3.4-2.4c0,0,5.3-0.1,7.7-1c0,0,6.6-2.5,13.5-3.9
		c0,0,12.3-2.2,19.8-9.2c0,0,0.4-1.1-1.2,0.2c0,0-5.1,4.2-12.3,5.7c0,0-2.2,0.4-2.8,0.9c0,0-1.9,0.2-0.3-1.1c0,0,0.5-0.6,1.1-0.6
		c0,0,4.3-1.7,4.6-2.5c0,0,1.2-2,3.1-2.8c0,0,1.4-0.6,1.6-1.4c0,0,1.8-1.2,2.6-0.7c0,0,0.8,0.8-0.8,1.5c0,0-2.3,1-2,1.4
		c0,0,3.9-1.4,6.1-4c0,0-2-1.7,1.7-3.6c0,0,2.1-1.6,4.1-3.8c0,0,1.6-2.5,3.8-4.6c0,0,1.3-0.9,1.2-1.9c0,0-1,0.1-2.2,1.9
		c0,0-2.1,2.3-4.8,4c0,0-1,1.1-1.8,1.2c0,0-10.4,6.7-11.7,8.5c0,0-2,2.3-3.1,1.6c0,0-1-0.8-1.7,0.7c0,0-3.7,3.7-9.1,2.5
		c0,0-2.1-0.2,0.3-2c0,0,4.6-1.2,6.8-3.2c0,0,0.3-1.8,2.4-2.3c0,0,1.6,0.2,2.3-1.2c0,0,0.8-1.4,3.8-1.4c0,0,2.3-0.1,4.7-2.7
		c0,0,1-2.6,1.9-2.8c0,0,1,0.3,1.2-0.7c0,0,0.8-1.2,1.3-0.8c0,0,0.1,1.2-0.7,1.8c0,0-0.4,1.4,1.7-0.9c0,0,0.5-0.7,1.5-1.6
		c0,0,1-1-0.5-1c0,0-2.7,0.5-2.8-0.8c0,0,0.3-1.3,2.2-2.6c0,0,0.5-0.2,0.8-0.8c0,0,4.1-4.6,12.7-9.3c0,0,4.6-2,4.5-3.4
		c0,0-0.4-1.7-3.8,0.1c0,0-5.7,4.3-6.7,4.7c0,0-0.8,0.4-0.8,0.8c0,0-3.4,3.3-7.6,6.2c0,0-2.2,2.2-2.8,1.9c0,0-1.8,1.1-2.8,2.4
		c0,0-2.8,0.3-3.7,1.8c0,0-2.3,3.1-5.8,3.8c0,0-4.5,1.4-7.2,4.6c0,0-2,3-7.7,2.9c0,0-2.5,0.5-5.2-1.6c0,0-1.8-1.2-3.3,1.6
		c0,0-1.3,4.2-3.1,3.8c0,0-2.3-0.8-2.3-5.3c0,0,1.7-9.6,8.8-12.5c0,0,0.8-0.2,1.4-0.8c0,0-2.1-1.8,0.5-2.3c0,0,1.4-0.2,2.4,0.8
		c0,0,1.6,0.6,0.9-0.7c0,0-1.8-1.6-1.6-2.6c0,0-0.1-0.3,0.6-0.4c0,0,0.9,0,0.2-2c0,0-0.4-1.6-3.3-2.1c0,0-3.2-1.2-6.7,2.3
		c0,0-2.2,2.4-2.8,3.4c0,0-5,7.3-8.4,9c0,0-1.3,1.3-2.9-0.5c0,0-1.7-0.6-7.2-8.7c0,0-12.3-19.5-14.1-23.1c0,0-0.5-1.1-2.2-3
		c0,0-0.5,0.4-0.5-2.3c0,0,0.3-3.6-1.8-6.2c0,0-1.3-1.4-1.3-3.6C387.2,520.9,387.1,520.1,386.8,520.1z M384.1,532.6
		c-2.3,0.3-3,8-3,8c2.4,0.3,4.9,6.5,4.9,6.5c1.7,3.7,7.5,5.3,7.5,5.3c-10.4-12.9-8.4-19.5-8.4-19.5
		C384.8,532.7,384.4,532.6,384.1,532.6z M376.7,560c-1.2-0.1-2.3,0.4-3.2,1.4c0,0-3.3,6.2,5.6,7.4c0,0,5.5,0.8,9.1,0.1
		C388.2,568.8,381.8,560.2,376.7,560L376.7,560z"/>
	<path id="path566" class="st5" d="M433.2,555.9c0,0-0.3,2.3,0.9,1.4c0,0,0.4-0.3,0.8-0.3c0,0,0.3-0.9-0.2-1.4
		C434.7,555.7,433.6,555.4,433.2,555.9"/>
</g>
</svg>
