<?xml version="1.0" encoding="utf-8"?>
<!-- Generator: Adobe Illustrator 26.0.2, SVG Export Plug-In . SVG Version: 6.00 Build 0)  -->
<svg version="1.1"
	 id="Layer_1" xmlns:cc="http://creativecommons.org/ns#" xmlns:dc="http://purl.org/dc/elements/1.1/" xmlns:inkscape="http://www.inkscape.org/namespaces/inkscape" xmlns:rdf="http://www.w3.org/1999/02/22-rdf-syntax-ns#" xmlns:sodipodi="http://sodipodi.sourceforge.net/DTD/sodipodi-0.dtd" xmlns:svg="http://www.w3.org/2000/svg"
	 xmlns="http://www.w3.org/2000/svg" xmlns:xlink="http://www.w3.org/1999/xlink" x="0px" y="0px" width="1002px" height="904.2px"
	 viewBox="0 0 1002 904.2" style="enable-background:new 0 0 1002 904.2;" xml:space="preserve">
<style type="text/css">
	.st0{fill:#00853F;}
	.st1{fill:#FFFFFF;}
	.st2{fill:none;stroke:#EF3F2B;stroke-width:1.2304;stroke-miterlimit:10;}
</style>
<sodipodi:namedview  bordercolor="#666666" borderopacity="1" fit-margin-bottom="1" fit-margin-left="1" fit-margin-right="1" fit-margin-top="1" gridtolerance="10" guidetolerance="10" id="namedview10009" inkscape:current-layer="Layer_1" inkscape:cx="501" inkscape:cy="452.2" inkscape:pageopacity="0" inkscape:pageshadow="2" inkscape:window-height="705" inkscape:window-maximized="1" inkscape:window-width="1366" inkscape:window-x="-8" inkscape:window-y="-8" inkscape:zoom="0.236" objecttolerance="10" pagecolor="#ffffff" showgrid="false">
	</sodipodi:namedview>
<g id="g10006" transform="translate(1,-47.967408)">
	<g id="g9984">
		<path id="path9956" inkscape:connector-curvature="0" class="st0" d="M753.3,733.6v27.3c-8.5-5-18.2-7.5-29-7.5
			c-11.9,0-21.5,3.7-28.9,11.1c-7.3,7.4-11,17.5-11,30.2c0,12.2,3.5,21.9,10.4,29.1c6.9,7.2,16.2,10.8,27.9,10.8
			c11.2,0,21.4-2.7,30.6-8.1v25.9c-9.3,4.4-21.4,6.7-36.3,6.7c-19.5,0-34.8-5.7-46-17s-16.7-26.5-16.7-45.4c0-20.1,6.3-36.4,18.8-49
			c12.5-12.5,28.8-18.8,48.8-18.8h31.3L753.3,733.6z"/>
		<path id="path9958" inkscape:connector-curvature="0" class="st0" d="M99,733.6v27.3c-8.5-5-18.2-7.5-29-7.5
			c-11.9,0-21.5,3.7-28.9,11.1c-7.3,7.4-11,17.5-11,30.2c0,12.2,3.5,21.9,10.4,29.1c6.9,7.2,16.2,10.8,27.9,10.8
			c11.2,0,21.4-2.7,30.6-8.1v25.9c-9.3,4.4-21.4,6.7-36.3,6.7c-19.5,0-34.8-5.7-46-17C5.6,830.7,0,815.5,0,796.7
			c0-20.1,6.3-36.4,18.8-49c12.5-12.5,28.8-18.8,48.8-18.8h31.3L99,733.6z"/>
		<path id="path9960" inkscape:connector-curvature="0" class="st0" d="M175.8,753.3c-10,0-18,3.7-23.9,11.2s-8.9,17.3-8.9,29.6
			c0,12.5,3,22.3,8.9,29.6s13.6,10.9,23.2,10.9c9.9,0,17.7-3.5,23.5-10.6c5.8-7,8.7-16.8,8.7-29.3c0-13-2.8-23.2-8.4-30.4
			C193.3,756.9,185.6,753.3,175.8,753.3 M174.6,859c-18.2,0-33-5.9-44.4-17.6c-11.5-11.7-17.2-27-17.2-45.8c0-19.9,5.8-36,17.4-48.3
			c11.6-12.3,27-18.4,46.2-18.4c18.1,0,32.8,5.9,44,17.6c11.2,11.8,16.8,27.3,16.8,46.5c0,19.8-5.8,35.7-17.4,47.8
			C208.4,853,193.3,859,174.6,859"/>
		<path id="path9962" inkscape:connector-curvature="0" class="st0" d="M373.1,856.8h-28.9l-52.3-79.1c-3.1-4.6-5.2-8.1-6.4-10.4
			h-0.4c0.5,4.4,0.7,11.2,0.7,20.4v69.1h-27V731h30.8l50.4,76.6c2.3,3.5,4.4,6.9,6.4,10.3h0.4c-0.5-2.9-0.7-8.7-0.7-17.3V731h27
			V856.8z"/>
		<path id="path9964" inkscape:connector-curvature="0" class="st0" d="M514.3,856.8h-28.9l-52.3-79.1c-3.1-4.6-5.2-8.1-6.4-10.4
			h-0.4c0.5,4.4,0.7,11.2,0.7,20.4v69.1h-27V731h30.8l50.4,76.6c2.3,3.5,4.4,6.9,6.4,10.3h0.4c-0.5-2.9-0.7-8.7-0.7-17.3V731h27
			L514.3,856.8z"/>
		<polygon id="polygon9966" class="st0" points="854.5,805.6 801.9,805.6 801.9,856.8 773.3,856.8 773.3,731 801.9,731 801.9,781.2 
			854.5,781.2 854.5,731 883.2,731 883.2,856.8 854.5,856.8 		"/>
		<polygon id="polygon9968" class="st0" points="935.1,754.1 935.1,856.8 963.8,856.8 963.8,754.1 1000,754.1 1000,731 899.1,731 
			899.1,754.1 		"/>
		<g id="g9978">
			<path id="path9970" inkscape:connector-curvature="0" class="st0" d="M378.9,924c4.7,0,7.7-3.6,7.7-8.1c0-4.4-2.9-7.9-7.7-7.9
				h-11.2v16H378.9z M399.9,948.8v1.6H388l-10.7-17.2H368v17.2h-11.2v-52c7.4,0,14.8-0.1,22.3,0c11.9,0,18.4,8.6,18.4,17.8
				c0,6.6-3.4,12.4-9.3,15.3L399.9,948.8z"/>
			<path id="path9972" inkscape:connector-curvature="0" class="st0" d="M415.1,933.2v-34.8h11.2V933c0,5.6,4.5,8.4,9.7,8.4
				c5.1,0,9.6-2.8,9.6-8.4v-34.6h11v34.8c0,11.7-9.6,18-20.6,18S415.1,944.8,415.1,933.2"/>
			<path id="path9974" inkscape:connector-curvature="0" class="st0" d="M499.3,897.6c10.3,0,20.7,5,23.7,17.1h-10.9
				c-2.6-5.1-6.8-7.1-12.7-7.1c-9.8,0-15.3,7.4-15.3,16.7c0,9.9,6,16.7,15.3,16.7c7.1,0,12.4-2.2,14.6-10h-14.2v-9.1h24.4
				c0.3,5,0.1,9.6-1.6,14.3c-3.9,10.5-13.3,14.9-23.2,14.9c-13.8,0-26.6-9.5-26.6-26.8C472.8,907.1,485.6,897.6,499.3,897.6"/>
			<path id="path9976" inkscape:connector-curvature="0" class="st0" d="M551.6,928.8v11.9H564c3.8,0,6-2.2,6.3-5.7
				c0.1-2.1-0.7-4-2.3-5.1c-1.3-0.9-2.8-1-4.5-1h-11.9V928.8z M551.6,908v11.8h10.2c3.8,0,6.2-2.1,6.3-5.6c0.1-3.8-2.4-6.2-6.3-6.2
				H551.6z M573.8,923.4c4.8,2,7.4,6.2,7.4,11.6c0,9.1-6.1,15.4-16.5,15.4h-24.2v-52h22.1c9.5,0,16.4,5.7,16.4,15.4
				C579,917.6,577.1,921.4,573.8,923.4"/>
		</g>
		<polygon id="polygon9980" class="st0" points="625.3,898.4 637.2,898.4 637.2,900 619.3,929.6 619.3,950.4 608.1,950.4 
			608.1,929.6 590.2,900 590.2,898.4 602.2,898.4 608.7,909.4 613.6,919.4 613.9,919.4 619.1,909.1 		"/>
		<path id="path9982" inkscape:connector-curvature="0" class="st0" d="M621.3,856.8h30.9l-48.1-128h-27.5l2,5.8l-0.8,2.2l-46.2,120
			h31l7.9-23.6L621.3,856.8L621.3,856.8z M609.3,822.8l-31.9-13.2l12.7-41.5"/>
	</g>
	<path id="path9986" inkscape:connector-curvature="0" class="st1" d="M902.6,353.4"/>
	<path id="path9988" inkscape:connector-curvature="0" class="st1" d="M856.2,346.8"/>
	<path id="path9990" inkscape:connector-curvature="0" class="st1" d="M856.2,422.3"/>
	<path id="path9992" inkscape:connector-curvature="0" class="st2" d="M651.6,330.1"/>
	<path id="path9994" inkscape:connector-curvature="0" class="st2" d="M633.7,223.7"/>
	<path id="path9996" inkscape:connector-curvature="0" class="st0" d="M581.3,177.8c4.8,2.4,22,25.3,22,25.3s-2.6-20.2-4.2-25.7
		C597.6,171.9,581.3,177.8,581.3,177.8z"/>
	<path id="path9998" inkscape:connector-curvature="0" class="st0" d="M208.2,379.8h0.1c-0.2-0.1-0.5-0.2-0.7-0.2L208.2,379.8z
		 M366.1,129.5c4.2-24.6-14.5-42.3-37.8-47.4l0.6,0.2c-40.3-12-102.8,7.4-139.2,9.3c-36.3,1.9-110.7,5.5-161-16.8
		c22.3,22.3,113.2,86.8,212.5,81.1h0.1c0,0-80.4,57.8-168.2,37.4l-2.8-0.6c62.4,36.9,92.1,54.3,198.5,28.2l0.8,0.6
		c0,0-34,70.7-127.3,86.4l-2.9,0.7c77.7,19.7,117.5,17.3,176.1-10.8c0,0-29.6,63.1-107.1,81.9c67.2,22.6,126.5,3.5,167.8-19.4
		l-2.6,6.2c-11.8,42.2-48.4,60.5-80,63.7h-0.2l0.7,0.2c60.5,15.8,143-1.7,160.6-12.8c-6.4,15.9-20,28.3-41,34.5l0.5-0.1
		c1.6,3.7,9,17.9,11.8,21.9c-11.2,7.7-26,11-38.7,15.4c-11.4,1.1-22.3-5.3-30-13.1c-9.9-10-6-23.8-18.4-28.9
		c-7.8-3.1-23.4-3.3-27.8,7.5c-1.7,4.2,5.1-6.3,10.2-1.2c-3,12,17.7,14.4,23.6,26.9c-14.6,5.5-31-11.2-44.4-13.2
		c-12.1-1.7-22.9,8.7-18.6,22.6c2.2-2.2,0-5.9,3.7-7.7c2.7,0.2,5.3,8.1,15.8,8.5c22.4-5.5,44,3.7,44.8,6c-7.4,7.4-23.4-1.4-32.5,5.6
		c-7.6,5.8-9.3,21.5,2.1,27.9c-2.3-4.9-2.7-5-0.7-8.2c2.5-1.3,6.8,4.2,16.4,0.4c5.8-6.1,20.6-17.9,29-14c20.3,17.9,34-2.1,54.4,9.5
		c7,4.1,13,14.8,26.2,10.7c4.7,2.2,2.2,6.5,1.2,10.8c11.4-7.1,9-25.2-2.9-30c-9-3.9-18.4,1.8-29.9-6.5c9.6-7.6,16.2-10.9,26.7-15.9
		c3.7,3.9,17.9,12.6,20.9,14.4l-0.2,0.2c16.7-4.9,48.7-41.9,50.6-58.6c-1.2,10.7-4.1,30.4-12.7,49.5c-8.6,19-14.4,31.7-33.3,41
		c0,0-8.8,6.4-25.3,9.6l-3.5,0.3c-42.3,5-57,21-58.8,47.6c-1.7,25.2,29.8,50.6,71.7,29.2c0,0-47.7,7.9-47.7-24.5
		c0-27.9,25.3-31.3,25.3-31.3s-12,6.1-9.5,18.2c0.8,5.9,5.9,11.7,12.8,11.7c10.9-0.1,18.6-6.8,18.6-6.8s-18.6,6.8-19.8-4.9
		c-1.2-12,8.8-17.8,23.1-19.7c0,0,12.6-1.4,24.5-4.8c19-5.4,30.6-14.9,30.6-14.9l-2.5,5.1l-45.7,98.5c0,0,61.3-56,126.6,58.4
		l-0.2-70.4V504.4v-0.7v-59.2l4.3,27.1c5.2,24.3,15.7,62.7,32.2,61.4c22-1.6,28.1-2.9,49.8-2.6c17.1,0.2,100.4-11.6,155.4-33
		c0.7,13.6,14.5,24.5,31.6,24.5c17.5,0,31.6-11.4,31.6-25.4c0-8.5-5.3-16.1-13.3-20.7h18.9c4.3,0,7.8-4.7,7.8-10.5
		c0-3.3-1.1-6.3-2.9-8.2h0.8c5,0,9.1-4.7,9.1-10.5c0-4.8-2.8-8.8-6.6-10.1c5.3-0.4,9.4-5,9.4-10.5c0-5.2-3.7-9.5-8.5-10.4
		c3.3-1.6,5.7-5.3,5.7-9.7c0-2.6-0.8-4.9-2.1-6.8c29.9,2.5,50,7.2,50,13.4v-59.7c0,7.5-29.2,12.9-69.4,14.7
		C884,322.6,877.7,189,857,49.2c-20.7,140-27,273.6-28.5,318.4c-41.2-1.7-71.4-7.1-71.4-14.7v59.7c0-7.5,29.5-12.9,70.1-14.7
		c-3.4,2-4.9,6.9-3.3,11.7l-2.5,9.1l-0.9,14.7c-22,3.2-47.6-1.3-57.9-2.5l-6.6-0.8c-5.5-1.1-16.4-1.7-22.4-1.7
		c-18.4,0-34.2,5.1-45.7,14.1l4.4-4.1c9.9-9.9,9.9-37.1,11.4-60.5c1.8-28.7-0.7-44.3-7.2-63.4c1.7-8,2-16,2.5-24.1
		c2.7-50.7-38-65.7-53.7-68.1c-2.6-0.4-7.5-0.8-7.5-0.8c-8.7-0.6-12.4,0.3-20.3,0.3c-8,0-18.9-0.2-26.8-2.9
		c-20-6.8-17.6-31.3-15.7-37.6c1.9-6.3,2.5-6.7,2.5-6.7s8,6.4,15,15.1c6.9,8.6,10.8,13.7,10.8,13.7s-2.6-25.1-8.3-38.5
		s-16.9-21.8-16.9-21.8s6.9,2.6,15.2,9.4c8.3,6.9,10.1,8.5,10.1,8.5S601.8,51.8,512,49.2c-49.8-3.4-79.4,31.6-79.4,31.6l0.3-0.1
		c-0.7,0.7-1.5,1.6-2.4,2.9c-5.1,7.5-6.9,4-13.8,13.7c-7,9.6-0.1,22.6-0.1,22.6s1.5-7.7,13.5-15.3c7.5-5.1,15.7-10.5,20-5.7
		c4.2,4.7,7.3,4.2,12.6,1.3c5.5-3.1,20.5-9.7,35.9,2.7c-5.8-0.5-11.6-0.3-17.2,0.4c-13.6,1.7-26.3,6.6-37.9,12.9
		c-5.7,3.3-11,6.4-16.5,9.5c-5.6,3-11.5,5.8-17.2,8.2c-6,2.2-12.2,4.1-18.3,5.2l0,0c-2.9,0.4-6.1,1.2-9,0.8l0.1,0.1
		c3.1,0.5,6,0.7,9.1,0.6l0.1,0.1c6.3-0.4,12.7-2,19-3.8c12.3-3.6,24.4-9.5,35.7-15.1c11.5-4.9,23.6-8.4,35.7-8.9
		c6.1-0.3,12.1,0.2,17.8,1.5c1.3,0.4,2.6,0.7,3.9,1.1c-0.1,1.1-0.2,1.8-0.2,1.8l-0.4,2.6c-0.4,1.9-1.2,4.5-4.6,4.5
		c-0.7,0-1.5,0-2.8,0.1c0,0-36.9-1.6-40.4,10.6l2.7,0.2l11.7,0.8c0,0,14.7,1.7,14.7,25.3c0,23.5-8.7,62.8-55.7,62.8
		C378.9,223.9,352.1,192.6,366.1,129.5L366.1,129.5z M457.3,82.5c4.4-14.3,32.9-10.3,32.9-10.3C488.4,77.8,451.4,98.8,457.3,82.5z
		 M862.2,455.8l-0.1-0.8c0.2,0.2,0.4,0.3,0.6,0.4C862.5,455.6,862.4,455.7,862.2,455.8z"/>
	<path id="path10000" inkscape:connector-curvature="0" class="st1" d="M842.3,414.5l16.2-6.1c0,4.9,5.4,6.9,5.4,6.9
		s-9.1,2-9.1,10.2s9.1,10.8,9.1,10.8s-5.9,3.5-5.9,9.7s4.6,9.3,4.6,9.3s-4.5,4.1-4.5,8.2s1.4,7.6,1.4,7.6s-4.8-0.6-9.1,0
		s-8,2.2-8,2.2v-32.1c0,0,2.5-7.4,2.5-13.6S842.3,414.5,842.3,414.5L842.3,414.5z"/>
	<path id="path10002" inkscape:connector-curvature="0" class="st1" d="M842.3,414.5l16.2-6.1c0,4.9,5.4,6.9,5.4,6.9
		s-9.1,2-9.1,10.2s9.1,10.8,9.1,10.8s-5.9,3.5-5.9,9.7s4.6,9.3,4.6,9.3s-4.5,4.1-4.5,8.2s1.4,7.6,1.4,7.6s-4.8-0.6-9.1,0
		s-8,2.2-8,2.2v-32.1c0,0,2.5-7.4,2.5-13.6S842.3,414.5,842.3,414.5L842.3,414.5z"/>
	<path id="path10004" inkscape:connector-curvature="0" class="st1" d="M855.4,107.4c-2.7,31.6-12.4,260-12.4,260h13.1L855.4,107.4z
		"/>
</g>
</svg>
