<?xml version="1.0" encoding="utf-8"?>
<!-- Generator: Adobe Illustrator 26.0.2, SVG Export Plug-In . SVG Version: 6.00 Build 0)  -->
<svg version="1.1"
	 id="svg2" xmlns:cc="http://creativecommons.org/ns#" xmlns:dc="http://purl.org/dc/elements/1.1/" xmlns:inkscape="http://www.inkscape.org/namespaces/inkscape" xmlns:rdf="http://www.w3.org/1999/02/22-rdf-syntax-ns#" xmlns:sodipodi="http://sodipodi.sourceforge.net/DTD/sodipodi-0.dtd" xmlns:svg="http://www.w3.org/2000/svg"
	 xmlns="http://www.w3.org/2000/svg" xmlns:xlink="http://www.w3.org/1999/xlink" x="0px" y="0px" width="99.2px" height="92.1px"
	 viewBox="0 0 99.2 92.1" style="enable-background:new 0 0 99.2 92.1;" xml:space="preserve">
<style type="text/css">
	.st0{fill:#063A69;}
	.st1{font-family:'Arial-BoldMT';}
	.st2{font-size:8px;}
	.st3{fill:none;stroke:#063A69;stroke-width:0.8854;stroke-miterlimit:5.6762;}
	.st4{opacity:0.5329;}
</style>
<defs>
	
		<inkscape:perspective  id="perspective10" inkscape:persp3d-origin="0.5 : 0.33333333 : 1" inkscape:vp_x="0 : 0.5 : 1" inkscape:vp_y="0 : 1000 : 0" inkscape:vp_z="1 : 0.5 : 1" sodipodi:type="inkscape:persp3d">
		</inkscape:perspective>
	
		<inkscape:perspective  id="perspective2835" inkscape:persp3d-origin="0.5 : 0.33333333 : 1" inkscape:vp_x="0 : 0.5 : 1" inkscape:vp_y="0 : 1000 : 0" inkscape:vp_z="1 : 0.5 : 1" sodipodi:type="inkscape:persp3d">
		</inkscape:perspective>
	
		<inkscape:perspective  id="perspective2857" inkscape:persp3d-origin="0.5 : 0.33333333 : 1" inkscape:vp_x="0 : 0.5 : 1" inkscape:vp_y="0 : 1000 : 0" inkscape:vp_z="1 : 0.5 : 1" sodipodi:type="inkscape:persp3d">
		</inkscape:perspective>
	
		<inkscape:perspective  id="perspective2882" inkscape:persp3d-origin="0.5 : 0.33333333 : 1" inkscape:vp_x="0 : 0.5 : 1" inkscape:vp_y="0 : 1000 : 0" inkscape:vp_z="1 : 0.5 : 1" sodipodi:type="inkscape:persp3d">
		</inkscape:perspective>
	
		<inkscape:perspective  id="perspective3711" inkscape:persp3d-origin="0.5 : 0.33333333 : 1" inkscape:vp_x="0 : 0.5 : 1" inkscape:vp_y="0 : 1000 : 0" inkscape:vp_z="1 : 0.5 : 1" sodipodi:type="inkscape:persp3d">
		</inkscape:perspective>
	
		<inkscape:perspective  id="perspective3772" inkscape:persp3d-origin="0.5 : 0.33333333 : 1" inkscape:vp_x="0 : 0.5 : 1" inkscape:vp_y="0 : 1000 : 0" inkscape:vp_z="1 : 0.5 : 1" sodipodi:type="inkscape:persp3d">
		</inkscape:perspective>
	
		<inkscape:perspective  id="perspective2839" inkscape:persp3d-origin="0.5 : 0.33333333 : 1" inkscape:vp_x="0 : 0.5 : 1" inkscape:vp_y="0 : 1000 : 0" inkscape:vp_z="1 : 0.5 : 1" sodipodi:type="inkscape:persp3d">
		</inkscape:perspective>
	
		<inkscape:perspective  id="perspective2861" inkscape:persp3d-origin="0.5 : 0.33333333 : 1" inkscape:vp_x="0 : 0.5 : 1" inkscape:vp_y="0 : 1000 : 0" inkscape:vp_z="1 : 0.5 : 1" sodipodi:type="inkscape:persp3d">
		</inkscape:perspective>
	
		<inkscape:perspective  id="perspective2887" inkscape:persp3d-origin="0.5 : 0.33333333 : 1" inkscape:vp_x="0 : 0.5 : 1" inkscape:vp_y="0 : 1000 : 0" inkscape:vp_z="1 : 0.5 : 1" sodipodi:type="inkscape:persp3d">
		</inkscape:perspective>
	
		<inkscape:perspective  id="perspective2850" inkscape:persp3d-origin="0.5 : 0.33333333 : 1" inkscape:vp_x="0 : 0.5 : 1" inkscape:vp_y="0 : 1000 : 0" inkscape:vp_z="1 : 0.5 : 1" sodipodi:type="inkscape:persp3d">
		</inkscape:perspective>
	
		<inkscape:perspective  id="perspective2872" inkscape:persp3d-origin="0.5 : 0.33333333 : 1" inkscape:vp_x="0 : 0.5 : 1" inkscape:vp_y="0 : 1000 : 0" inkscape:vp_z="1 : 0.5 : 1" sodipodi:type="inkscape:persp3d">
		</inkscape:perspective>
	
		<inkscape:perspective  id="perspective2897" inkscape:persp3d-origin="0.5 : 0.33333333 : 1" inkscape:vp_x="0 : 0.5 : 1" inkscape:vp_y="0 : 1000 : 0" inkscape:vp_z="1 : 0.5 : 1" sodipodi:type="inkscape:persp3d">
		</inkscape:perspective>
	
		<inkscape:perspective  id="perspective2919" inkscape:persp3d-origin="0.5 : 0.33333333 : 1" inkscape:vp_x="0 : 0.5 : 1" inkscape:vp_y="0 : 1000 : 0" inkscape:vp_z="1 : 0.5 : 1" sodipodi:type="inkscape:persp3d">
		</inkscape:perspective>
	
		<inkscape:perspective  id="perspective2919-0" inkscape:persp3d-origin="0.5 : 0.33333333 : 1" inkscape:vp_x="0 : 0.5 : 1" inkscape:vp_y="0 : 1000 : 0" inkscape:vp_z="1 : 0.5 : 1" sodipodi:type="inkscape:persp3d">
		</inkscape:perspective>
	
		<inkscape:perspective  id="perspective2919-6" inkscape:persp3d-origin="0.5 : 0.33333333 : 1" inkscape:vp_x="0 : 0.5 : 1" inkscape:vp_y="0 : 1000 : 0" inkscape:vp_z="1 : 0.5 : 1" sodipodi:type="inkscape:persp3d">
		</inkscape:perspective>
	
		<inkscape:perspective  id="perspective2919-1" inkscape:persp3d-origin="0.5 : 0.33333333 : 1" inkscape:vp_x="0 : 0.5 : 1" inkscape:vp_y="0 : 1000 : 0" inkscape:vp_z="1 : 0.5 : 1" sodipodi:type="inkscape:persp3d">
		</inkscape:perspective>
	
		<inkscape:perspective  id="perspective2968" inkscape:persp3d-origin="0.5 : 0.33333333 : 1" inkscape:vp_x="0 : 0.5 : 1" inkscape:vp_y="0 : 1000 : 0" inkscape:vp_z="1 : 0.5 : 1" sodipodi:type="inkscape:persp3d">
		</inkscape:perspective>
	
		<inkscape:perspective  id="perspective3010" inkscape:persp3d-origin="0.5 : 0.33333333 : 1" inkscape:vp_x="0 : 0.5 : 1" inkscape:vp_y="0 : 1000 : 0" inkscape:vp_z="1 : 0.5 : 1" sodipodi:type="inkscape:persp3d">
		</inkscape:perspective>
	
		<inkscape:perspective  id="perspective3010-2" inkscape:persp3d-origin="0.5 : 0.33333333 : 1" inkscape:vp_x="0 : 0.5 : 1" inkscape:vp_y="0 : 1000 : 0" inkscape:vp_z="1 : 0.5 : 1" sodipodi:type="inkscape:persp3d">
		</inkscape:perspective>
	
		<inkscape:perspective  id="perspective3010-1" inkscape:persp3d-origin="0.5 : 0.33333333 : 1" inkscape:vp_x="0 : 0.5 : 1" inkscape:vp_y="0 : 1000 : 0" inkscape:vp_z="1 : 0.5 : 1" sodipodi:type="inkscape:persp3d">
		</inkscape:perspective>
	
		<inkscape:perspective  id="perspective3010-3" inkscape:persp3d-origin="0.5 : 0.33333333 : 1" inkscape:vp_x="0 : 0.5 : 1" inkscape:vp_y="0 : 1000 : 0" inkscape:vp_z="1 : 0.5 : 1" sodipodi:type="inkscape:persp3d">
		</inkscape:perspective>
	
		<inkscape:perspective  id="perspective3010-7" inkscape:persp3d-origin="0.5 : 0.33333333 : 1" inkscape:vp_x="0 : 0.5 : 1" inkscape:vp_y="0 : 1000 : 0" inkscape:vp_z="1 : 0.5 : 1" sodipodi:type="inkscape:persp3d">
		</inkscape:perspective>
	
		<inkscape:perspective  id="perspective3010-21" inkscape:persp3d-origin="0.5 : 0.33333333 : 1" inkscape:vp_x="0 : 0.5 : 1" inkscape:vp_y="0 : 1000 : 0" inkscape:vp_z="1 : 0.5 : 1" sodipodi:type="inkscape:persp3d">
		</inkscape:perspective>
	
		<inkscape:perspective  id="perspective3089" inkscape:persp3d-origin="0.5 : 0.33333333 : 1" inkscape:vp_x="0 : 0.5 : 1" inkscape:vp_y="0 : 1000 : 0" inkscape:vp_z="1 : 0.5 : 1" sodipodi:type="inkscape:persp3d">
		</inkscape:perspective>
	
		<inkscape:perspective  id="perspective3111" inkscape:persp3d-origin="0.5 : 0.33333333 : 1" inkscape:vp_x="0 : 0.5 : 1" inkscape:vp_y="0 : 1000 : 0" inkscape:vp_z="1 : 0.5 : 1" sodipodi:type="inkscape:persp3d">
		</inkscape:perspective>
	
		<inkscape:perspective  id="perspective3133" inkscape:persp3d-origin="0.5 : 0.33333333 : 1" inkscape:vp_x="0 : 0.5 : 1" inkscape:vp_y="0 : 1000 : 0" inkscape:vp_z="1 : 0.5 : 1" sodipodi:type="inkscape:persp3d">
		</inkscape:perspective>
	
		<inkscape:perspective  id="perspective3133-6" inkscape:persp3d-origin="0.5 : 0.33333333 : 1" inkscape:vp_x="0 : 0.5 : 1" inkscape:vp_y="0 : 1000 : 0" inkscape:vp_z="1 : 0.5 : 1" sodipodi:type="inkscape:persp3d">
		</inkscape:perspective>
	
		<inkscape:perspective  id="perspective3133-3" inkscape:persp3d-origin="0.5 : 0.33333333 : 1" inkscape:vp_x="0 : 0.5 : 1" inkscape:vp_y="0 : 1000 : 0" inkscape:vp_z="1 : 0.5 : 1" sodipodi:type="inkscape:persp3d">
		</inkscape:perspective>
	
		<inkscape:perspective  id="perspective3246" inkscape:persp3d-origin="0.5 : 0.33333333 : 1" inkscape:vp_x="0 : 0.5 : 1" inkscape:vp_y="0 : 1000 : 0" inkscape:vp_z="1 : 0.5 : 1" sodipodi:type="inkscape:persp3d">
		</inkscape:perspective>
	
		<inkscape:perspective  id="perspective3270" inkscape:persp3d-origin="0.5 : 0.33333333 : 1" inkscape:vp_x="0 : 0.5 : 1" inkscape:vp_y="0 : 1000 : 0" inkscape:vp_z="1 : 0.5 : 1" sodipodi:type="inkscape:persp3d">
		</inkscape:perspective>
	
		<inkscape:perspective  id="perspective3270-6" inkscape:persp3d-origin="0.5 : 0.33333333 : 1" inkscape:vp_x="0 : 0.5 : 1" inkscape:vp_y="0 : 1000 : 0" inkscape:vp_z="1 : 0.5 : 1" sodipodi:type="inkscape:persp3d">
		</inkscape:perspective>
	
		<inkscape:perspective  id="perspective3270-0" inkscape:persp3d-origin="0.5 : 0.33333333 : 1" inkscape:vp_x="0 : 0.5 : 1" inkscape:vp_y="0 : 1000 : 0" inkscape:vp_z="1 : 0.5 : 1" sodipodi:type="inkscape:persp3d">
		</inkscape:perspective>
	
		<inkscape:perspective  id="perspective3270-00" inkscape:persp3d-origin="0.5 : 0.33333333 : 1" inkscape:vp_x="0 : 0.5 : 1" inkscape:vp_y="0 : 1000 : 0" inkscape:vp_z="1 : 0.5 : 1" sodipodi:type="inkscape:persp3d">
		</inkscape:perspective>
</defs>
<sodipodi:namedview  bordercolor="#666666" borderopacity="1" gridtolerance="10" guidetolerance="10" id="namedview4" inkscape:current-layer="layer2" inkscape:cx="18.14061" inkscape:cy="-2.8418613" inkscape:pageopacity="0" inkscape:pageshadow="2" inkscape:window-height="976" inkscape:window-maximized="1" inkscape:window-width="1680" inkscape:window-x="0" inkscape:window-y="25" inkscape:zoom="2.2912622" objecttolerance="10" pagecolor="#ffffff" showgrid="false">
	</sodipodi:namedview>
<g id="layer2" transform="translate(-0.76377111,-5.0162732)" inkscape:groupmode="layer" inkscape:label="Calque#1">
	<path id="rect2822" class="st0" d="M50,5c-15.1,0-26.6,7.3-33.7,15.8c5.7,1,10.4,3.4,13.8,9.5c2-1.4,4.2-2.7,6.5-3.9
		c4.1-2.1,8.4-3.6,12.6-4.5C48.4,18,46.5,16.5,50,5z M49.1,21.8c0.9-0.2,1.9-0.4,2.8-0.5C51,21.4,50,21.6,49.1,21.8z M51.9,21.3
		c0.9-0.2,1.9-0.3,2.8-0.4C53.8,21,52.9,21.1,51.9,21.3z M58.1,20.7c-0.2,0-0.4,0-0.6,0c0.8,0,1.5,0,2.3,0
		C59.3,20.7,58.7,20.7,58.1,20.7z M60.4,20.7c1.5,0,3,0.2,4.4,0.4C63.4,20.9,61.9,20.7,60.4,20.7z M64.9,21.1c0.5,0.1,1,0.1,1.4,0.2
		C65.9,21.2,65.4,21.1,64.9,21.1z M68.1,21.6c0.7,0.2,1.4,0.4,2.1,0.6C69.5,22,68.9,21.8,68.1,21.6z M71.8,22.8
		c0.6,0.2,1.2,0.4,1.7,0.7C73,23.2,72.4,23,71.8,22.8z M73.8,23.5c0.4,0.2,0.7,0.3,1.1,0.5C74.5,23.8,74.1,23.7,73.8,23.5z
		 M75.9,24.5c0.3,0.2,0.7,0.4,1,0.6C76.5,24.9,76.2,24.7,75.9,24.5z M77.9,25.8c0.8,0.5,1.5,1.1,2.2,1.8
		C79.4,26.9,78.6,26.3,77.9,25.8z M81.1,28.5c0.3,0.3,0.6,0.6,0.8,0.9C81.6,29.1,81.4,28.8,81.1,28.5z M82,29.5
		c0.3,0.4,0.6,0.7,0.8,1.1C82.6,30.3,82.3,29.9,82,29.5z M82.9,30.6c0.3,0.4,0.5,0.8,0.8,1.2C83.4,31.4,83.1,31,82.9,30.6z M30,30.3
		c-0.5,0.3-0.9,0.7-1.4,1C29.1,31,29.6,30.6,30,30.3z M27.3,32.4c-0.4,0.4-0.9,0.7-1.3,1.1C26.5,33.1,26.9,32.7,27.3,32.4z M26,33.4
		c-0.7,0.6-1.4,1.3-2.1,1.9C24.7,34.7,25.3,34,26,33.4z M22.3,37c-0.7,0.7-1.3,1.4-1.9,2.2C21,38.5,21.6,37.8,22.3,37z M20.4,39.2
		c-0.3,0.4-0.6,0.8-1,1.2C19.7,40.1,20,39.6,20.4,39.2z M86.5,44.1c-0.1,1-0.2,2-0.3,3C86.3,46.1,86.4,45.1,86.5,44.1z M16.7,44.3
		c-0.3,0.4-0.5,0.9-0.8,1.3C16.2,45.2,16.5,44.7,16.7,44.3z M16,45.6c-0.2,0.4-0.5,0.9-0.7,1.3C15.5,46.5,15.7,46,16,45.6z
		 M13.5,50.9c-0.2,0.4-0.3,0.9-0.5,1.3C13.1,51.8,13.3,51.3,13.5,50.9z M12.6,53.5c-0.1,0.4-0.2,0.9-0.3,1.3
		C12.3,54.4,12.5,54,12.6,53.5z M12,56.2c-0.1,0.4-0.2,0.9-0.2,1.3C11.8,57,11.9,56.6,12,56.2z M11.6,58.7c0,0.5-0.1,0.9-0.1,1.4
		C11.5,59.6,11.6,59.2,11.6,58.7z M11.6,63.3c0,0.4,0.1,0.7,0.2,1.1C11.7,64,11.7,63.6,11.6,63.3z M62.7,76.6
		c-1.2,0.6-2.4,1.2-3.6,1.7C60.3,77.8,61.5,77.2,62.7,76.6z M22.8,78.5c0.9,0.5,1.9,0.9,2.8,1.3C24.6,79.4,23.7,78.9,22.8,78.5z
		 M57.3,79c-1.2,0.5-2.5,0.9-3.7,1.2C54.8,79.8,56,79.4,57.3,79z M46.1,81.8c-1.2,0.2-2.5,0.3-3.7,0.3C43.7,82,44.9,81.9,46.1,81.8z
		"/>
	<path id="path2820" sodipodi:nodetypes="csssc" class="st0" d="M63.8,31.3c3.4,6.7-1.4,17.1-10.9,21.9s-21.3,3.2-24.7-3.5
		s2-17,11.5-21.8S60.3,24.6,63.8,31.3z"/>
	<path id="rect2871" class="st0" d="M54.2,5c2.5,2.6,4.7,5,5.2,8.4c-4.6,2.1-6.2,4.6-7.3,7.8c12.6-2,24.5,1.2,30.4,8.9
		c1.6-4.4,2.2-9.4,1.8-13.1c-1.4-5.6-5.3-8.3-8.5-9.8c1.4,3.8,1,7.9-0.9,11.1C70.9,10,63.7,5.1,54.2,5z M50.1,21.6
		c-0.6,0.1-1.3,0.3-1.9,0.4C48.8,21.9,49.5,21.7,50.1,21.6z M48.2,22c-0.7,0.2-1.3,0.3-2,0.5C46.9,22.4,47.5,22.2,48.2,22z
		 M43.7,23.3c-1.1,0.4-2.2,0.8-3.3,1.2C41.4,24.1,42.6,23.7,43.7,23.3z M40.3,24.6c-0.6,0.2-1.1,0.5-1.7,0.7
		C39.2,25,39.8,24.8,40.3,24.6z M36.5,26.4c-1.8,0.9-3.5,1.9-5.1,3C33,28.3,34.7,27.3,36.5,26.4z M31.4,29.3
		c-1.6,1.1-3.2,2.2-4.6,3.5C28.2,31.6,29.8,30.4,31.4,29.3z M26.8,32.8c-1,0.8-1.9,1.7-2.8,2.5C24.9,34.5,25.8,33.6,26.8,32.8z
		 M86.5,44.1c-0.1,1-0.2,2-0.3,3C86.3,46.1,86.4,45.1,86.5,44.1z M16.2,45.2c-0.6,1-1.1,2-1.6,3C15.1,47.1,15.6,46.2,16.2,45.2z
		 M14,49.6c-0.4,1-0.8,2-1.1,3C13.1,51.7,13.5,50.6,14,49.6z M12.1,65.8c0.2,0.9,0.5,1.8,0.9,2.7C12.6,67.6,12.3,66.7,12.1,65.8z
		 M62.7,76.6c-1.2,0.6-2.4,1.2-3.6,1.7C60.3,77.8,61.5,77.2,62.7,76.6z M22.8,78.5c0.9,0.5,1.9,0.9,2.8,1.3
		C24.6,79.4,23.7,78.9,22.8,78.5z M57.3,79c-1.2,0.5-2.5,0.9-3.7,1.2C54.8,79.8,56,79.4,57.3,79z M46.1,81.8
		c-1.2,0.2-2.5,0.3-3.7,0.3C43.7,82,44.9,81.9,46.1,81.8z"/>
	<path id="rect2896" class="st0" d="M60.7,20.7c0.6,0,1.1,0.1,1.7,0.1C61.8,20.8,61.2,20.7,60.7,20.7z M62.5,20.8
		c0.5,0,1,0.1,1.6,0.2C63.6,20.9,63,20.8,62.5,20.8z M55.5,20.9c-0.9,0.1-1.8,0.2-2.7,0.3C53.7,21,54.6,20.9,55.5,20.9z M49.8,21.7
		c-0.8,0.2-1.6,0.4-2.4,0.6C48.1,22,49,21.8,49.8,21.7z M47.3,22.2c-0.8,0.2-1.6,0.4-2.4,0.7C45.7,22.7,46.5,22.4,47.3,22.2z
		 M69.7,22c0.5,0.1,1,0.3,1.5,0.5C70.7,22.4,70.2,22.2,69.7,22z M71.2,22.5c0.5,0.2,1,0.3,1.4,0.5C72.1,22.9,71.7,22.7,71.2,22.5z
		 M13.9,23.2c-9.2,11.6-9.4,22.7-1.6,31.7c1.9-8.1,7.5-16.5,15.6-23c-2.9-1.4-7.9-1.8-11.4,1.6C14.6,32.3,13.7,28.3,13.9,23.2z
		 M12.2,54.9c-0.1,0.6-0.3,1.3-0.4,1.9C12,56.1,12.1,55.5,12.2,54.9z M43.7,23.3c-1.5,0.5-3,1.1-4.5,1.8
		C40.7,24.4,42.2,23.8,43.7,23.3z M39.2,25.1c-0.9,0.4-1.8,0.8-2.7,1.3C37.4,25.9,38.3,25.5,39.2,25.1z M36.5,26.4
		c-1.4,0.7-2.7,1.4-4,2.2C33.8,27.8,35.1,27.1,36.5,26.4z M74,23.6c0.6,0.3,1.1,0.6,1.7,0.8C75.1,24.2,74.6,23.9,74,23.6z
		 M75.7,24.5c0.5,0.3,1,0.6,1.5,0.9C76.7,25,76.2,24.7,75.7,24.5z M77.9,25.8c0.8,0.5,1.5,1.1,2.2,1.8
		C79.4,26.9,78.6,26.3,77.9,25.8z M86.5,44.1c-0.1,1-0.2,2-0.3,3C86.3,46.1,86.4,45.1,86.5,44.1z M11.8,56.9
		c-0.1,0.6-0.2,1.2-0.2,1.8C11.7,58.1,11.7,57.5,11.8,56.9z M11.6,58.8c-0.1,0.7-0.1,1.3-0.1,1.9C11.5,60.1,11.6,59.4,11.6,58.8z
		 M11.5,60.7c0,0.6,0,1.2,0.1,1.7C11.5,61.9,11.5,61.3,11.5,60.7z M11.6,62.7c0.1,0.6,0.1,1.2,0.2,1.8
		C11.7,63.9,11.6,63.3,11.6,62.7z M11.8,64.5c0.1,0.6,0.2,1.2,0.4,1.8C12.1,65.7,11.9,65.1,11.8,64.5z M12.2,66.3
		c0.2,0.6,0.3,1.2,0.6,1.7C12.6,67.4,12.4,66.8,12.2,66.3z M12.8,68c0.2,0.6,0.5,1.1,0.8,1.7C13.3,69.2,13,68.6,12.8,68z M62.7,76.6
		c-1.2,0.6-2.4,1.2-3.6,1.7C60.3,77.8,61.5,77.2,62.7,76.6z M22.8,78.5c0.9,0.5,1.9,0.9,2.8,1.3C24.6,79.4,23.7,78.9,22.8,78.5z
		 M57.3,79c-1.2,0.5-2.5,0.9-3.7,1.2C54.8,79.8,56,79.4,57.3,79z M46.1,81.8c-1.2,0.2-2.5,0.3-3.7,0.3C43.7,82,44.9,81.9,46.1,81.8z
		"/>
	<path id="rect3672" class="st0" d="M60.7,20.7c0.6,0,1.1,0.1,1.7,0.1C61.8,20.8,61.2,20.7,60.7,20.7z M62.5,20.8
		c0.5,0,1,0.1,1.6,0.2C63.6,20.9,63,20.8,62.5,20.8z M55.5,20.9c-0.9,0.1-1.8,0.2-2.7,0.3C53.7,21,54.6,20.9,55.5,20.9z M49.8,21.7
		c-0.8,0.2-1.6,0.4-2.4,0.6C48.1,22,49,21.8,49.8,21.7z M47.3,22.2c-0.8,0.2-1.6,0.4-2.4,0.7C45.7,22.7,46.5,22.4,47.3,22.2z
		 M69.7,22c0.5,0.1,1,0.3,1.5,0.5C70.7,22.4,70.2,22.2,69.7,22z M71.2,22.5c0.5,0.2,1,0.3,1.4,0.5C72.1,22.9,71.7,22.7,71.2,22.5z
		 M43.7,23.3c-1.5,0.5-3,1.1-4.5,1.8C40.7,24.4,42.2,23.8,43.7,23.3z M39.2,25.1c-0.9,0.4-1.8,0.8-2.7,1.3
		C37.4,25.9,38.3,25.5,39.2,25.1z M36.5,26.4c-0.8,0.4-1.6,0.8-2.4,1.3C34.9,27.2,35.7,26.8,36.5,26.4z M74,23.6
		c0.6,0.3,1.1,0.6,1.7,0.8C75.1,24.2,74.6,23.9,74,23.6z M75.7,24.5c0.5,0.3,1,0.6,1.5,0.9C76.7,25,76.2,24.7,75.7,24.5z M77.9,25.8
		c0.8,0.5,1.5,1.1,2.2,1.8C79.4,26.9,78.6,26.3,77.9,25.8z M33.8,27.8c-0.7,0.4-1.5,0.9-2.2,1.4C32.3,28.7,33.1,28.3,33.8,27.8z
		 M26.8,32.8c-1,0.8-1.9,1.7-2.8,2.5C24.9,34.5,25.8,33.6,26.8,32.8z M21.3,38.1c-0.5,0.6-1.1,1.2-1.6,1.9
		C20.2,39.4,20.8,38.8,21.3,38.1z M18.1,42.2c-0.4,0.6-0.8,1.3-1.2,1.9C17.2,43.5,17.6,42.9,18.1,42.2z M16.8,44.1
		c-0.4,0.7-0.9,1.4-1.2,2.1C16,45.6,16.4,44.8,16.8,44.1z M15.6,46.3c-0.3,0.6-0.7,1.2-1,1.9C14.9,47.5,15.2,46.9,15.6,46.3z
		 M86.5,44.1c-0.1,1-0.2,2-0.3,3C86.3,46.1,86.4,45.1,86.5,44.1z M1.1,48.7C0.2,56.2,3.3,65.1,7.2,68c-2.9,0.3-4.5-0.1-6.4-0.2
		c3.8,4.4,9.3,12.7,20.2,9.7c-3.2-2-5.8-4.6-7.4-7.8c-1.9-3.8-2.5-8.2-1.8-12.7C7.5,56,4.3,52.5,1.1,48.7z M21,77.5
		c0.3,0.2,0.7,0.4,1,0.6C21.6,77.9,21.3,77.7,21,77.5z M13.6,50.5c-0.2,0.5-0.4,1-0.6,1.6C13.2,51.6,13.4,51.1,13.6,50.5z
		 M12.8,52.7c-0.1,0.5-0.3,0.9-0.4,1.4C12.5,53.6,12.7,53.1,12.8,52.7z M12.4,54.2c-0.1,0.5-0.2,0.9-0.3,1.4
		C12.2,55.1,12.3,54.7,12.4,54.2z M54.3,80c-0.9,0.3-1.7,0.5-2.6,0.8C52.6,80.5,53.5,80.2,54.3,80z M27.4,80.4
		c0.8,0.2,1.6,0.5,2.4,0.7C29,80.9,28.2,80.6,27.4,80.4z M29.8,81c0.8,0.2,1.6,0.4,2.5,0.5C31.5,81.4,30.6,81.2,29.8,81z M32.3,81.6
		c0.8,0.1,1.7,0.3,2.6,0.3C34,81.8,33.2,81.7,32.3,81.6z M34.9,81.9c0.7,0.1,1.4,0.1,2.1,0.2C36.3,82.1,35.6,82,34.9,81.9z M44.3,82
		c-0.6,0.1-1.1,0.1-1.7,0.1C43.2,82,43.7,82,44.3,82z M38.1,82.1c0.7,0,1.5,0,2.2,0C39.6,82.2,38.8,82.2,38.1,82.1z"/>
	<path id="rect3675" class="st0" d="M91.1,17c-0.2,6.9-3.2,10.4-8,14c0.4,0.6,0.9,1.3,1.2,2c4.2,8.2,2.2,19.2-4.4,28.6
		c6.4-2.2,24.2-13.1,17.7-29.3c-1.4,2.1-2.6,4-6,5.5C93.1,34.5,97.9,22.2,91.1,17z M58.1,20.7c-0.4,0-0.8,0-1.1,0.1
		c0.6,0,1.1-0.1,1.7-0.1C58.5,20.7,58.3,20.7,58.1,20.7z M60.7,20.7c0.4,0,0.8,0,1.2,0C61.5,20.7,61.1,20.7,60.7,20.7z M62,20.8
		c1,0.1,2,0.2,3,0.3C63.9,20.9,63,20.8,62,20.8z M55.1,20.9c-0.5,0-1,0.1-1.4,0.2C54.1,21,54.6,20.9,55.1,20.9z M53.6,21
		c-0.6,0.1-1.1,0.2-1.7,0.2C52.5,21.2,53.1,21.1,53.6,21z M66.6,21.4c1.4,0.3,2.6,0.6,3.9,1C69.3,21.9,68,21.6,66.6,21.4z
		 M50.2,21.6c-0.5,0.1-1.1,0.2-1.7,0.3C49.1,21.8,49.6,21.7,50.2,21.6z M73.7,23.5c0.9,0.4,1.7,0.8,2.5,1.3
		C75.4,24.3,74.6,23.9,73.7,23.5z M76.2,24.8c0.4,0.2,0.8,0.5,1.2,0.7C77,25.2,76.6,25,76.2,24.8z M43.1,23.5
		c-0.5,0.2-1,0.3-1.5,0.5C42.1,23.9,42.6,23.7,43.1,23.5z M36.5,26.4c-1.8,0.9-3.5,1.9-5.1,3C33,28.3,34.7,27.3,36.5,26.4z
		 M31.4,29.3c-1.6,1.1-3.2,2.2-4.6,3.5C28.2,31.6,29.8,30.4,31.4,29.3z M26.8,32.8c-1,0.8-1.9,1.7-2.8,2.5
		C24.9,34.5,25.8,33.6,26.8,32.8z M81.6,29.1c0.3,0.3,0.5,0.6,0.7,0.9C82.1,29.7,81.9,29.4,81.6,29.1z M16.2,45.2
		c-0.6,1-1.1,2-1.6,3C15.1,47.1,15.6,46.2,16.2,45.2z M14,49.6c-0.4,1-0.8,2-1.1,3C13.1,51.7,13.5,50.6,14,49.6z M79.9,61.6
		c-1,1.5-2.2,2.9-3.4,4.3C77.7,64.6,78.9,63.1,79.9,61.6z M76.5,66c-1.2,1.4-2.6,2.7-4,4C73.9,68.7,75.2,67.3,76.5,66z M72.5,70
		c-0.7,0.6-1.4,1.2-2.2,1.8C71,71.2,71.7,70.6,72.5,70z M70.2,71.8c-0.5,0.4-1.1,0.8-1.7,1.2C69.1,72.6,69.7,72.2,70.2,71.8z
		 M12.1,65.8c0.2,0.9,0.5,1.8,0.9,2.7C12.6,67.6,12.3,66.7,12.1,65.8z M65.2,75.2c-0.8,0.5-1.6,0.9-2.5,1.4
		C63.5,76.2,64.4,75.7,65.2,75.2z M62.7,76.6c-1.2,0.6-2.4,1.2-3.6,1.7C60.3,77.8,61.5,77.2,62.7,76.6z M22.8,78.5
		c0.9,0.5,1.9,0.9,2.8,1.3C24.6,79.4,23.7,78.9,22.8,78.5z M57.3,79c-1.2,0.5-2.5,0.9-3.7,1.2C54.8,79.8,56,79.4,57.3,79z
		 M46.1,81.8c-1.2,0.2-2.5,0.3-3.7,0.3C43.7,82,44.9,81.9,46.1,81.8z"/>
	<path id="rect3678" class="st0" d="M60.7,20.7c0.6,0,1.1,0.1,1.7,0.1C61.8,20.8,61.2,20.7,60.7,20.7z M62.5,20.8
		c0.5,0,1,0.1,1.6,0.2C63.6,20.9,63,20.8,62.5,20.8z M55.5,20.9c-0.9,0.1-1.8,0.2-2.7,0.3C53.7,21,54.6,20.9,55.5,20.9z M49.8,21.7
		c-0.8,0.2-1.6,0.4-2.4,0.6C48.1,22,49,21.8,49.8,21.7z M47.3,22.2c-0.8,0.2-1.6,0.4-2.4,0.7C45.7,22.7,46.5,22.4,47.3,22.2z
		 M69.7,22c0.5,0.1,1,0.3,1.5,0.5C70.7,22.4,70.2,22.2,69.7,22z M71.2,22.5c0.5,0.2,1,0.3,1.4,0.5C72.1,22.9,71.7,22.7,71.2,22.5z
		 M43.7,23.3c-1.5,0.5-3,1.1-4.5,1.8C40.7,24.4,42.2,23.8,43.7,23.3z M39.2,25.1c-0.9,0.4-1.8,0.8-2.7,1.3
		C37.4,25.9,38.3,25.5,39.2,25.1z M36.5,26.4c-1.8,0.9-3.5,1.9-5.1,3C33,28.3,34.7,27.3,36.5,26.4z M31.4,29.3
		c-1.6,1.1-3.2,2.2-4.6,3.5C28.2,31.6,29.8,30.4,31.4,29.3z M26.8,32.8c-1,0.8-1.9,1.7-2.8,2.5C24.9,34.5,25.8,33.6,26.8,32.8z
		 M74,23.6c0.6,0.3,1.1,0.6,1.7,0.8C75.1,24.2,74.6,23.9,74,23.6z M75.7,24.5c0.5,0.3,1,0.6,1.5,0.9C76.7,25,76.2,24.7,75.7,24.5z
		 M77.9,25.8c0.8,0.5,1.5,1.1,2.2,1.8C79.4,26.9,78.6,26.3,77.9,25.8z M85.8,36.8c0.2,0.7,0.3,1.3,0.4,2
		C86.1,38.1,85.9,37.4,85.8,36.8z M86.2,38.8c0.1,0.7,0.2,1.3,0.2,2C86.4,40.1,86.3,39.4,86.2,38.8z M86.5,40.8
		c0,0.6,0.1,1.2,0.1,1.8C86.5,42,86.5,41.4,86.5,40.8z M86.5,43c0,0.7-0.1,1.3-0.1,2C86.5,44.4,86.5,43.7,86.5,43z M16.2,45.2
		c-0.6,1-1.1,2-1.6,3C15.1,47.1,15.6,46.2,16.2,45.2z M86.3,45.6c-0.1,0.5-0.1,1-0.2,1.6C86.2,46.6,86.3,46.1,86.3,45.6z M86.1,47.2
		c-0.1,0.7-0.3,1.5-0.5,2.2C85.8,48.6,86,47.9,86.1,47.2z M85.6,49.4c-0.2,0.7-0.4,1.4-0.6,2.1C85.3,50.8,85.5,50.1,85.6,49.4z
		 M14,49.6c-0.4,1-0.8,2-1.1,3C13.1,51.7,13.5,50.6,14,49.6z M85,51.6c-0.2,0.7-0.5,1.4-0.8,2.1C84.5,53,84.8,52.3,85,51.6z
		 M84.2,53.7c-0.3,0.7-0.6,1.5-1,2.2C83.6,55.2,83.9,54.4,84.2,53.7z M83.3,55.9c-0.3,0.6-0.6,1.2-0.9,1.8
		C82.7,57.1,83,56.5,83.3,55.9z M92.5,60.1c-5.4,0.1-11.9,1.7-15.4,5.3c-0.3,0.3-0.5,0.5-0.8,0.8c-3.7,4.1-8.3,7.7-13.6,10.4
		c-1.1,0.6-2.3,1.1-3.5,1.6c4.7,1.3,11.1,1.2,15.6-0.7c5.6-2.3,10-1.6,12.2,0.1c0.5-6.4,1.4-12.5,13.1-16.2
		C98.5,60.5,95.7,60.1,92.5,60.1z M79.2,62.6c-0.4,0.6-0.8,1.1-1.3,1.7C78.4,63.7,78.8,63.1,79.2,62.6z M78,64.3
		c-0.5,0.6-1,1.2-1.6,1.8C76.9,65.5,77.4,64.9,78,64.3z M12.1,65.8c0.2,0.9,0.5,1.8,0.9,2.7C12.6,67.6,12.3,66.7,12.1,65.8z
		 M19.7,76.6c0.4,0.3,0.8,0.5,1.2,0.8C20.4,77.1,20,76.9,19.7,76.6z M22.8,78.5c0.4,0.2,0.9,0.4,1.3,0.6
		C23.6,78.9,23.2,78.7,22.8,78.5z M56.7,79.2c-0.4,0.2-0.9,0.3-1.3,0.4C55.8,79.5,56.3,79.3,56.7,79.2z M54,80
		c-0.6,0.2-1.2,0.3-1.8,0.5C52.8,80.4,53.4,80.2,54,80z M52.3,80.5c-0.6,0.2-1.1,0.3-1.7,0.4C51.1,80.8,51.7,80.7,52.3,80.5z
		 M48.6,81.4c-0.5,0.1-1.1,0.2-1.6,0.2C47.6,81.5,48.1,81.5,48.6,81.4z M47,81.6c-0.5,0.1-1,0.2-1.6,0.2C46,81.8,46.5,81.7,47,81.6z
		 M35.1,82c0.5,0.1,1.1,0.1,1.7,0.1C36.2,82,35.7,82,35.1,82z M36.8,82.1c0.3,0,0.7,0,1,0.1C37.5,82.1,37.1,82.1,36.8,82.1z"/>
	<path id="rect3683" class="st0" d="M57.6,22.7c-3.3,0.1-6.6,0.6-10,1.4C51,23.3,54.3,22.8,57.6,22.7z M60,22.8c0.4,0,0.9,0,1.3,0
		C60.8,22.8,60.4,22.8,60,22.8z M63.6,23c0.6,0.1,1.3,0.2,1.9,0.3C64.8,23.2,64.2,23.1,63.6,23z M68.2,24c7.8,6,7.8,14.8,7,23.6
		c-2.4,0-4.8-1.8-7.2-3.6c3.6,13.3-1.9,22.6-3.7,29.4c0.1,0,0.2-0.1,0.3-0.1c0,0,0,0,0,0C80.4,63.7,88,45.9,82,34.2
		c-2.4-4.8-7-8.1-12.6-9.9c-0.1,0-0.2-0.1-0.3-0.1C68.8,24.1,68.5,24.1,68.2,24z M35.9,28.9c-1.1,0.6-2.1,1.2-3.1,1.9
		C33.7,30.1,34.8,29.5,35.9,28.9z M17.8,46.9c-0.5,0.9-1,1.9-1.3,2.8C16.9,48.7,17.3,47.8,17.8,46.9z M14.7,55.3
		c-0.2,0.9-0.3,1.8-0.4,2.8C14.4,57.1,14.5,56.2,14.7,55.3z M64.5,73.4c-0.4,0.2-0.8,0.4-1.2,0.7C63.7,73.8,64.1,73.6,64.5,73.4z
		 M20.1,73.5c0.7,0.6,1.4,1.1,2.2,1.7C21.5,74.6,20.8,74,20.1,73.5z M22.3,75.1c0.8,0.5,1.6,1,2.4,1.4
		C23.9,76.1,23.1,75.6,22.3,75.1z M60.2,75.6c-1.1,0.5-2.2,1-3.4,1.4C58,76.6,59.1,76.1,60.2,75.6z M51.6,78.6
		c-1.1,0.3-2.3,0.5-3.4,0.7C49.4,79.1,50.5,78.9,51.6,78.6z M48.2,79.3c-1.2,0.2-2.3,0.4-3.4,0.5C45.9,79.7,47,79.5,48.2,79.3z"/>
	<path id="rect3686" class="st0" d="M57.6,22.7c-3.3,0.1-6.6,0.6-10,1.4C51,23.3,54.3,22.8,57.6,22.7z M61.6,22.8
		c1.3,0.1,2.6,0.3,3.8,0.5C64.2,23.1,62.9,22.9,61.6,22.8z M69,24.2c1.2,0.4,2.3,0.8,3.3,1.2C71.3,25,70.2,24.6,69,24.2z M74,26.2
		c1,0.5,1.9,1.1,2.8,1.8C75.9,27.4,75,26.8,74,26.2z M37.5,28c-0.5,0.3-1.1,0.6-1.6,0.9C36.4,28.6,36.9,28.3,37.5,28z M26.6,35.6
		c-0.4,0.3-0.7,0.7-1.1,1C25.9,36.3,26.3,35.9,26.6,35.6z M22.4,40.1c-0.6,0.8-1.2,1.6-1.8,2.4C21.1,41.7,21.7,40.9,22.4,40.1z
		 M19,45c-4.8,8-6.3,16.6-2.8,23.4c6.1,11.9,26.5,15.1,43.6,7.4c2.2-4.3,1.3-12.4-1.5-22.5c-2.1,1.5-3.9,2.8-6.2,3.4
		c2,5,3.1,9.1,1.2,14.6c-8.6,3-17.5-5-21.8-12.4c-1,2.9-1.4,6.1-3.9,8.2C21.9,61.9,20,52.9,19,45z M59.7,75.8c0.7-0.3,1.4-0.6,2.1-1
		C61.2,75.1,60.4,75.4,59.7,75.8z M61.9,74.8c1.6-0.8,3.2-1.8,4.7-2.8C65.1,73,63.5,73.9,61.9,74.8z M78.5,59.9
		c-0.6,0.9-1.2,1.8-1.9,2.7C77.3,61.7,78,60.8,78.5,59.9z M76.6,62.6c-0.7,0.9-1.4,1.7-2.2,2.5C75.2,64.3,76,63.5,76.6,62.6z
		 M74.5,65.2c-0.4,0.4-0.8,0.8-1.2,1.2C73.7,66,74.1,65.6,74.5,65.2z M73.3,66.4c-0.8,0.8-1.6,1.6-2.5,2.4
		C71.7,68,72.5,67.2,73.3,66.4z M70.8,68.8C69.9,69.5,69,70.3,68,71C69,70.2,69.9,69.5,70.8,68.8z"/>
	<text transform="matrix(1 0 0 1 85.2626 13.9378)" class="st0 st1 st2">R</text>
	<path id="path3754" class="st3" d="M92.9,11.1c0,2.4-1.9,4.3-4.3,4.3c-2.4,0-4.3-1.9-4.3-4.3s1.9-4.3,4.3-4.3
		C91,6.8,92.9,8.7,92.9,11.1z"/>
	<g id="text2831">
		<path id="path2839" class="st0" d="M1.8,93.1l3.4-0.2c0,0.5,0,1,0.2,1.2c0.3,0.5,0.8,0.7,1.4,0.7c0.5,0,0.9-0.1,1.2-0.4
			c0.3-0.2,0.5-0.5,0.6-0.8c0.1-0.3,0-0.6-0.2-0.8c-0.2-0.2-0.8-0.5-1.7-0.7c-1.5-0.3-2.5-0.8-3-1.4c-0.6-0.6-0.7-1.3-0.6-2.2
			c0.1-0.6,0.4-1.1,0.8-1.7c0.4-0.5,1-0.9,1.8-1.2c0.7-0.3,1.7-0.5,2.9-0.5c1.5,0,2.5,0.3,3.2,0.8c0.7,0.5,0.9,1.4,0.9,2.6l-3.4,0.2
			c0-0.5-0.1-0.9-0.3-1.1c-0.2-0.2-0.6-0.4-1.1-0.4c-0.4,0-0.7,0.1-1,0.3c-0.2,0.2-0.4,0.4-0.4,0.6c0,0.2,0,0.3,0.2,0.5
			c0.1,0.2,0.5,0.3,1.1,0.4c1.5,0.3,2.5,0.7,3.1,1c0.6,0.3,1,0.8,1.2,1.3c0.2,0.5,0.2,1.1,0.1,1.7c-0.1,0.7-0.5,1.4-1,2
			c-0.5,0.6-1.2,1.1-2,1.4c-0.8,0.3-1.7,0.5-2.9,0.5c-1.9,0-3.2-0.4-3.8-1.1C1.9,95.2,1.6,94.2,1.8,93.1"/>
		<path id="path2841" class="st0" d="M21.8,92.2l2.9,0.9c-0.4,0.9-0.9,1.6-1.4,2.2c-0.6,0.6-1.2,1-1.9,1.3c-0.7,0.3-1.6,0.4-2.6,0.4
			c-1.2,0-2.2-0.2-2.9-0.5c-0.7-0.4-1.3-1-1.7-1.9c-0.4-0.9-0.4-2.1-0.2-3.5c0.4-1.9,1.2-3.4,2.4-4.4c1.2-1,2.7-1.5,4.6-1.5
			c1.4,0,2.5,0.3,3.2,0.9c0.7,0.6,1.1,1.5,1.3,2.7l-3.3,0.7c0-0.3-0.1-0.6-0.2-0.8c-0.1-0.3-0.3-0.5-0.6-0.6
			c-0.3-0.1-0.6-0.2-0.9-0.2c-0.8,0-1.5,0.3-2,1c-0.4,0.5-0.7,1.2-0.9,2.3c-0.3,1.3-0.2,2.1,0.1,2.6c0.3,0.5,0.8,0.7,1.5,0.7
			c0.7,0,1.2-0.2,1.6-0.6C21.1,93.5,21.4,92.9,21.8,92.2"/>
		<path id="path2843" class="st0" d="M26.3,91.2c0.4-1.9,1.2-3.3,2.4-4.4c1.2-1,2.8-1.6,4.7-1.6c1.9,0,3.3,0.5,4.1,1.5
			c0.8,1,1.1,2.5,0.7,4.3c-0.3,1.3-0.7,2.4-1.3,3.3c-0.6,0.9-1.4,1.5-2.4,2c-0.9,0.5-2.1,0.7-3.3,0.7c-1.3,0-2.3-0.2-3.1-0.6
			c-0.8-0.4-1.3-1.1-1.7-2C26.1,93.6,26.1,92.5,26.3,91.2 M29.9,91.2c-0.2,1.2-0.2,2,0.1,2.5c0.3,0.5,0.9,0.8,1.6,0.8
			c0.8,0,1.4-0.2,1.9-0.7c0.5-0.5,0.9-1.4,1.2-2.7c0.2-1.1,0.2-1.9-0.2-2.4c-0.3-0.5-0.9-0.7-1.6-0.8c-0.7,0-1.3,0.3-1.9,0.8
			C30.5,89.2,30.1,90,29.9,91.2"/>
		<path id="path2845" class="st0" d="M40,85.4h10.8l-0.6,2.8h-3.6l-1.7,8.6h-3.5l1.7-8.6h-3.6L40,85.4"/>
		<path id="path2847" class="st0" d="M52.4,85.4H56L54.2,94h5.5l-0.6,2.8h-9.1L52.4,85.4"/>
		<path id="path2849" class="st0" d="M68.2,95h-4l-0.9,1.9h-3.6l6.6-11.5h3.9l2,11.5h-3.7L68.2,95 M68,92.5l-0.4-4.1l-2.1,4.1H68"/>
		<path id="path2851" class="st0" d="M75.6,85.4h3.3l3,6.3l1.3-6.3h3.3l-2.3,11.5h-3.3l-3-6.3l-1.3,6.3h-3.3L75.6,85.4"/>
		<path id="path2853" class="st0" d="M88.9,85.4h5.3c1,0,1.8,0.1,2.4,0.4c0.6,0.3,1,0.7,1.3,1.2c0.3,0.5,0.5,1.1,0.5,1.8
			c0.1,0.7,0,1.4-0.2,2.2c-0.2,1.2-0.6,2.2-1,2.9c-0.4,0.7-0.9,1.2-1.5,1.7c-0.6,0.5-1.2,0.8-1.8,0.9c-0.8,0.2-1.5,0.3-2.2,0.3h-5.3
			L88.9,85.4 M92,88l-1.2,6.3h0.9c0.7,0,1.3-0.1,1.6-0.2c0.3-0.2,0.6-0.5,0.9-0.9c0.3-0.4,0.5-1.1,0.7-2c0.2-1.2,0.2-2-0.1-2.5
			c-0.3-0.4-0.9-0.7-1.8-0.7H92"/>
	</g>
	<g id="use2836" transform="translate(-120.59623,1.6821704)">
		<g id="text2831_00000046335056890044659850000005246139481927356351_">
			<path id="path2839_00000046321259457148547530000006122479112808333456_" class="st0" d="M-118.8,94.8l3.4-0.2c0,0.5,0,1,0.2,1.2
				c0.3,0.5,0.8,0.7,1.4,0.7c0.5,0,0.9-0.1,1.2-0.4c0.3-0.2,0.5-0.5,0.6-0.8c0.1-0.3,0-0.6-0.2-0.8c-0.2-0.2-0.8-0.5-1.7-0.7
				c-1.5-0.3-2.5-0.8-3-1.4c-0.6-0.6-0.7-1.3-0.6-2.2c0.1-0.6,0.4-1.1,0.8-1.7c0.4-0.5,1-0.9,1.8-1.2c0.7-0.3,1.7-0.5,2.9-0.5
				c1.5,0,2.5,0.3,3.2,0.8c0.7,0.5,0.9,1.4,0.9,2.6l-3.4,0.2c0-0.5-0.1-0.9-0.3-1.1c-0.2-0.2-0.6-0.4-1.1-0.4c-0.4,0-0.7,0.1-1,0.3
				c-0.2,0.2-0.4,0.4-0.4,0.6c0,0.2,0,0.3,0.2,0.5c0.1,0.2,0.5,0.3,1.1,0.4c1.5,0.3,2.5,0.7,3.1,1c0.6,0.3,1,0.8,1.2,1.3
				c0.2,0.5,0.2,1.1,0.1,1.7c-0.1,0.7-0.5,1.4-1,2c-0.5,0.6-1.2,1.1-2,1.4c-0.8,0.3-1.7,0.5-2.9,0.5c-1.9,0-3.2-0.4-3.8-1.1
				C-118.7,96.9-119,95.9-118.8,94.8"/>
			<path id="path2841_00000065781785640066057560000016958449705947443602_" class="st0" d="M-98.8,93.9l2.9,0.9
				c-0.4,0.9-0.9,1.6-1.4,2.2c-0.6,0.6-1.2,1-1.9,1.3c-0.7,0.3-1.6,0.4-2.6,0.4c-1.2,0-2.2-0.2-2.9-0.5c-0.7-0.4-1.3-1-1.7-1.9
				c-0.4-0.9-0.4-2.1-0.2-3.5c0.4-1.9,1.2-3.4,2.4-4.4c1.2-1,2.7-1.5,4.6-1.5c1.4,0,2.5,0.3,3.2,0.9c0.7,0.6,1.1,1.5,1.3,2.7
				l-3.3,0.7c0-0.3-0.1-0.6-0.2-0.8c-0.1-0.3-0.3-0.5-0.6-0.6c-0.3-0.1-0.6-0.2-0.9-0.2c-0.8,0-1.5,0.3-2,1
				c-0.4,0.5-0.7,1.2-0.9,2.3c-0.3,1.3-0.2,2.1,0.1,2.6c0.3,0.5,0.8,0.7,1.5,0.7c0.7,0,1.2-0.2,1.6-0.6
				C-99.5,95.1-99.1,94.6-98.8,93.9"/>
			<path id="path2843_00000072961159774799725280000012634080106011324862_" class="st0" d="M-94.3,92.8c0.4-1.9,1.2-3.3,2.4-4.4
				c1.2-1,2.8-1.6,4.7-1.6c1.9,0,3.3,0.5,4.1,1.5c0.8,1,1.1,2.5,0.7,4.3c-0.3,1.3-0.7,2.4-1.3,3.3c-0.6,0.9-1.4,1.5-2.4,2
				c-0.9,0.5-2.1,0.7-3.3,0.7c-1.3,0-2.3-0.2-3.1-0.6c-0.8-0.4-1.3-1.1-1.7-2C-94.5,95.3-94.5,94.2-94.3,92.8 M-90.7,92.8
				c-0.2,1.2-0.2,2,0.1,2.5c0.3,0.5,0.9,0.8,1.6,0.8c0.8,0,1.4-0.2,1.9-0.7c0.5-0.5,0.9-1.4,1.2-2.7c0.2-1.1,0.2-1.9-0.2-2.4
				c-0.3-0.5-0.9-0.7-1.6-0.8c-0.7,0-1.3,0.3-1.9,0.8C-90.1,90.8-90.5,91.7-90.7,92.8"/>
			<path id="path2845_00000076592636479645085520000000840643210363717567_" class="st0" d="M-80.5,87.1h10.8l-0.6,2.8H-74l-1.7,8.6
				h-3.5l1.7-8.6h-3.6L-80.5,87.1"/>
			<path id="path2847_00000091705752401544684690000015559334153535406737_" class="st0" d="M-68.2,87.1h3.5l-1.7,8.6h5.5l-0.6,2.8
				h-9.1L-68.2,87.1"/>
			<path id="path2849_00000090267767195190384190000005299747964949962398_" class="st0" d="M-52.4,96.7h-4l-0.9,1.9h-3.6l6.6-11.5
				h3.9l2,11.5h-3.7L-52.4,96.7 M-52.6,94.2l-0.4-4.1l-2.1,4.1H-52.6"/>
			<path id="path2851_00000122689438337400486870000013119911454965485212_" class="st0" d="M-45,87.1h3.3l3,6.3l1.3-6.3h3.3
				l-2.3,11.5h-3.3l-3-6.3l-1.3,6.3h-3.3L-45,87.1"/>
			<path id="path2853_00000036222364851731398530000016651784086368524168_" class="st0" d="M-31.7,87.1h5.3c1,0,1.8,0.1,2.4,0.4
				c0.6,0.3,1,0.7,1.3,1.2c0.3,0.5,0.5,1.1,0.5,1.8c0.1,0.7,0,1.4-0.2,2.2c-0.2,1.2-0.6,2.2-1,2.9c-0.4,0.7-0.9,1.2-1.5,1.7
				c-0.6,0.5-1.2,0.8-1.8,0.9c-0.8,0.2-1.5,0.3-2.2,0.3H-34L-31.7,87.1 M-28.6,89.7l-1.2,6.3h0.9c0.7,0,1.3-0.1,1.6-0.2
				c0.3-0.2,0.6-0.5,0.9-0.9c0.3-0.4,0.5-1.1,0.7-2c0.2-1.2,0.2-2-0.1-2.5c-0.3-0.4-0.9-0.7-1.8-0.7H-28.6"/>
		</g>
	</g>
</g>
<g id="layer1" inkscape:groupmode="layer" inkscape:label="Calque" class="st4">
</g>
</svg>
