<?xml version="1.0" encoding="utf-8"?>
<!-- Generator: Adobe Illustrator 26.0.2, SVG Export Plug-In . SVG Version: 6.00 Build 0)  -->
<svg version="1.1" id="Calque_1" xmlns="http://www.w3.org/2000/svg" xmlns:xlink="http://www.w3.org/1999/xlink" x="0px" y="0px"
	 width="80px" height="80px" viewBox="0 0 80 80" style="enable-background:new 0 0 80 80;" xml:space="preserve">
<style type="text/css">
	.st0{fill:#E21F20;}
	.st1{fill:#B60718;}
	.st2{fill:#003576;}
</style>
<desc>Created with Sketch.</desc>
<g id="FFR_x5F_Logo_x5F_Match_x5F_80x80_x2F_Full_x2F_Dark">
	<g id="logo_FRANCE_RUGBY_corpo_2coul-Fond-blanc-rvb" transform="translate(16.000000, 0.000000)">
		<g id="Group">
			<path id="Path" class="st0" d="M0,30.9c-0.1-9.5,4-18.9,12.6-19.2c8-0.3,10.2,6.4,12.7,9.9c1,1.4,2.1,2.6,3.4,2.8
				c1.7,0.2,2.9-2,1.9-4.7c-0.6-1.7-2.2-6.3-2.7-8.5c-0.5-2-0.7-4.1,0-5.7c-1.7-1.8-2.1-3.7-2.1-4.8c0-0.1,0-0.3,0-0.4
				c0-0.6,0.3-0.5,0.5-0.4c1.6,0.8,3.5,0.8,6.2,1.7c0.4,0.1,0.5-0.1,0.6-0.6c0.1-0.5,0.5-0.5,0.6-0.4c2,1.1,3.9,2.8,4,4.2
				c0.9,0.3,2.2,0.7,3.3,1.6c0.1,0.1,0.1,0.2,0,0.2c-2,0.3-2.8,1.2-3.1,1.6c0,0.1,0,0.2,0,0.2c0.5,1,2,2.2,2,3
				c0,0.5-0.2,0.8-0.2,0.8l0,0c0.7,1.3,1.4,1.8,2.9,3.8c0.6,0.7,1,1.3,1.2,2c0.3,0.6,0.4,1.2,0.3,2c0,0,2.8,3.1,2.8,6.9
				c0,3.3-2,7.3-3.6,9.9c-2,3.2-3.2,5.7-3.7,7.5c-0.8,2.7-1.5,5.3-1.8,6.8c-0.2,1.2-0.2,2.1-0.1,2.7c0.1,0.6,1.6,1.4,3.6,2.2
				c0.3,0.1,0.4,0.8,0.4,0.8l0,0c-1.3-0.3-5-1.2-6.2-1.1c-0.5,0-0.8,0.1-1.1,0.2c-0.5,0.2-0.8,0.4-1.2,0.5l0,0c0,0-0.1-0.7,0.1-0.9
				c0.1-0.1,0.6-0.5,0.9-0.9c0.4-0.5,0.8-1.3,1.2-2.3c0-0.8-0.6-1.6-0.5-2.2c0.1-0.6,0.4,0.5,1.1,0.3c0.5-1.9,0.8-4.1,0.9-5.1
				c0.3-2.8,0.8-4.9-0.2-5c-3.5-0.3-4.9,5.1-5.6,7.8c-0.6,2.6-0.9,4.1-0.9,5c0,0.6,0.2,0.9,0.4,1.2c0.6,0.6,1.2,0.9,1.4,1.1
				c0.1,0.1,0.3,0.7,0.3,1l0,0c0,0-0.9-0.5-2.3-0.6c-0.9-0.1-2.2-0.1-3.3,0.1c-1.3,0.2-2.9,0.6-2.9,0.6s0-0.7,0.3-0.8
				c0.9-0.4,1.8-0.8,2.6-1.5c0.9-0.7,1.3-1.6,1.4-1.9c0-0.8-0.7-1.6-0.5-2.3c0.1-0.3,0.5,0.7,1.2,0.4l0,0c0.8-3.3,0.8-6.5-0.1-9
				c-0.6-1.6-1.1-2.4-1.7-2.8c-0.4-0.3-0.9-0.5-1.6-0.1c-0.6,0.3-1.7,1.6-1.9,1.8c-2.3,2.5-6.3,3.2-8.4,1.8c0,0,0,0,0,0
				c1.7,1.7,3.6,2.3,3.6,2.3s-2.1,1.9-5.5,1.2c-0.8-0.2-2.5-0.6-4.5-1.8l0,0c0.3,0.6,0.7,1.2,1.2,1.7c1,0.9,1.5,1.1,1.5,1.1
				C3.2,47.1,0.1,36.7,0,30.9z"/>
			<g id="Path_00000072994992585882074130000010511394281602407839_" transform="translate(2.177606, 2.913738)">
				<path class="st1" d="M28.9,1.3c-1.5,0.8-2,2.2-1.5,3.6c0.2,0.5,0.4,0.9,0.8,1.2c-1.5-1.2-2.9-3.8-0.9-5.2
					C28.2,0.3,29,0.2,30,0.1C32,0.1,33.9,1.2,34.8,2C33.7,1.2,30.4,0.4,28.9,1.3z"/>
				<path class="st1" d="M31.1,3.1c-0.1,0.4,0.3,0.8,0.7,0.8c0.4,0.1,0.9-0.2,0.9-0.6c0-0.1,0-0.2,0-0.3c0,0,0.2,0,0.3,0.1l-0.1-0.3
					c-0.4-0.2-0.9-0.3-1-0.4c-0.9-0.1-1.3,0.4-1.3,0.4c0.2,0,0.6-0.1,0.6-0.1C31.2,2.9,31.2,3,31.1,3.1z"/>
				<path class="st1" d="M26.1,30.5c-3.7-0.6-5.2-1.7-8.7-1.7c2.2-0.3,3.7-0.1,5.6,0c3.1,0.2,6.4-0.2,8.6-1.5c2-1.2,3.1-3.1,2.7-5.2
					C38.2,26.5,33.7,31.8,26.1,30.5z"/>
				<path class="st1" d="M38.1,18.1c0.2-3.5-1.9-4.2-2.6-6.2c1.5,1.6,3.2,2.4,4.1,3.9c1.8,3,1.2,5,1.2,5
					C40,19.1,38.1,18.1,38.1,18.1z"/>
				<path class="st1" d="M29.1,10c0.3,1.7,0.8,2.4,3.3,4.8c2.1,2,2.4,4,1.9,5.3c1.2-2.8,0.6-5.3-1.4-8c-1.7-2.3-2-3.9-2-5.3l0,0
					c-0.8,0.1-1.4,0-1.8-0.1c0,0,0,0,0,0c-0.1,0.1-2,2.2-1.1,5.8c0.4,1.7,1,3,1,3.1v0l0,0c1.3,3.4,0.9,5,0.2,5.9
					c3.3-1,3-4.7,1.3-7.3C29.2,11.9,29.1,11.2,29.1,10z"/>
				<path class="st1" d="M21,31.4c0,0,5.2,2.7,11.3,1.2c8.1-1.9,6.9-10.5,4.6-11.7c3.3,0.2,5.9,7.4,1.6,11.7
					c-4.2,4.3-11.4,2.6-14.9,0.5C22,32,21,31.4,21,31.4z"/>
				<path class="st1" d="M7,21.7C4,23.2,0.7,27.3,1.8,34c0.1,0.7,0.3,1.3,0.5,1.9c0,0.1,0,0.1,0.1,0.2c0,0-2.8-3.7-2.1-11.2
					C1,18,4.2,12.3,10.7,11.9c6.3-0.4,9.2,6,9.2,6s-3.5-5-9.7-3.9c-3.9,0.7-6,4.5-6.8,7.6c1.6-2.5,4-4.2,6.7-4.4
					c5.6-0.5,8.5,3.3,11.2,5.2c3.6,2.5,7.2,1.6,8.6,0.4c-0.3,0.9-2.5,3.4-6.1,4.1c-1.2,0.2-2.7,0.2-4.9,0c-3.8-0.4-9.1-1-11.3,3.5
					c-2.2,4.5,1.1,9.5,5.5,11.2c-5.1-0.7-9-5.3-8.4-10.8c0.8-7.8,8.5-7.7,12.6-6.1c2,0.7,4.8,1.1,5.9,0.5c0,0-2.9,0-6-2.2
					C14.6,21,11.1,19.5,7,21.7z"/>
				<path class="st1" d="M23.4,35.1c-3-0.6-4.1-1.2-5.3-1.9c-1.2-0.8-2.5-1.1-3.9-1.1c2.2-2.3,5.2-1.2,5.3-1.2
					c-1.3-0.6-2.4-1.3-4.3-1.1c-2,0.2-2.9,1.8-2.7,3c0.5,3.5,6.1,2.1,6.1,2.1s-2,2.6-5.2,2.1c-1.2-0.2-1.9-0.7-2.4-1.4v0
					c1,1.6,2.5,2.5,5.2,2.5c2.5,0,3.6-1.1,5.4-2.3C22.1,35.3,22.8,35,23.4,35.1z"/>
			</g>
		</g>
		<g id="Group_00000056408470940131570050000002229330278959019428_" transform="translate(0.000000, 63.000000)">
			<g>
				<path id="Path_00000097484151001489835480000009314128396929342633_" class="st2" d="M2.4,4.5v2.3H0.6c-0.1,0-0.1,0-0.1-0.1V1.1
					L0,0.4V0.3c0-0.1,0-0.1,0.1-0.1h6.1c0.1,0,0.1,0,0.1,0.1v1.4H2.4V3h3.3c0.1,0,0.1,0,0.1,0.1v1.4H2.4z"/>
				<path id="Path_00000109726966297505351500000008562774866876755611_" class="st2" d="M9.6,6.8H7.8c-0.1,0-0.1,0-0.1-0.1V1.1
					L7.2,0.4V0.3c0-0.1,0-0.1,0.1-0.1H11c2,0,3.3,0.9,3.3,2.3c0,0.9-0.5,1.5-1.5,1.9l2.1,2.4h-2.1c0,0-0.1,0-0.1-0.1l-2.3-2.6V3.7
					c0-0.1,0-0.1,0.1-0.1h0c1.3,0,1.9-0.3,1.9-0.9s-0.6-0.9-1.9-0.9H9.6V6.8L9.6,6.8z"/>
				<path id="Shape" class="st2" d="M16.9,6.8h-1.8l3.4-6.6h1.6l3.4,6.6h-1.9c-0.1,0-0.1,0-0.1-0.1l-0.5-1h-3.4l-0.5,1
					C17,6.8,17,6.8,16.9,6.8z M20.2,4.3l-1-1.9l-1,1.9H20.2z"/>
				<path id="Path_00000130620598332388246240000003461784105702161318_" class="st2" d="M26.2,3v3.9h-1.7c-0.1,0-0.1,0-0.1-0.1V1.1
					l-0.5-0.7V0.3c0-0.1,0-0.1,0.1-0.1h2.1l3.6,3.9V0.3h1.7c0.1,0,0.1,0,0.1,0.1v6.5h-1.6c-0.1,0-0.1,0-0.2-0.1L26.2,3z"/>
				<path id="Path_00000010276005566291333610000003352233746051451795_" class="st2" d="M32.9,3.5c0-2,1.8-3.4,4.2-3.4
					c0.9,0,1.7,0.1,2.4,0.4V2c-0.8-0.3-1.5-0.4-2.3-0.4c-1.4,0-2.4,0.8-2.4,2s1,2,2.4,2c0.8,0,1.5-0.1,2.4-0.5v1.5
					C38.9,6.8,38.1,7,37.1,7C34.6,7,32.9,5.5,32.9,3.5z"/>
				<path id="Path_00000049922192196879933860000016079398208008899755_" class="st2" d="M46.3,4.2H43v1.1h3.8c0.1,0,0.1,0,0.1,0.1
					v1.4h-5.7c-0.1,0-0.1,0-0.1-0.1V1.1l-0.5-0.7V0.3c0-0.1,0-0.1,0.1-0.1h6.1c0.1,0,0.1,0,0.1,0.1v1.4H43v1h3.3
					c0.1,0,0.1,0,0.1,0.1V4.2L46.3,4.2z"/>
			</g>
			<g transform="translate(0.000000, 8.680851)">
				<path id="Path_00000031171762123898837530000010760453451726610364_" class="st2" d="M2.9,8H0.7C0.7,8,0.7,8,0.7,7.9V1.3
					L0.1,0.5V0.4c0-0.1,0-0.1,0.1-0.1h4.3c2.4,0,3.8,1,3.8,2.7c0,1-0.6,1.8-1.7,2.2L9,8H6.5c0,0-0.1,0-0.1-0.1l-2.6-3V4.3
					c0-0.1,0-0.1,0.1-0.1h0c1.5,0,2.2-0.3,2.2-1.1S5.4,2.1,3.9,2.1h-1L2.9,8L2.9,8z"/>
				<path id="Path_00000020366535933345110650000013214227973885169542_" class="st2" d="M11.9,0.3C12,0.3,12,0.3,11.9,0.3L12,4.1
					c0,1.6,0.7,2.4,2,2.4s2-0.8,2-2.5V0.3h2.1c0.1,0,0.1,0,0.1,0.1v3.8c0,2.6-1.5,4-4.2,4c-2.8,0-4.2-1.4-4.2-4V1.3L9.2,0.5V0.4
					c0-0.1,0-0.1,0.1-0.1L11.9,0.3L11.9,0.3z"/>
				<path id="Path_00000143575580828115791370000008398887523362202037_" class="st2" d="M24.6,8.2c-2.9,0-4.9-1.7-4.9-4
					s2.1-4,4.9-4c1.2,0,2.3,0.2,3.1,0.6v1.8c-1.1-0.5-1.9-0.6-3-0.6c-1.7,0-2.8,0.9-2.8,2.3s1.1,2.3,2.8,2.3c0.5,0,1,0,1.5-0.2V5
					l-0.6-0.8V4c0-0.1,0-0.1,0.1-0.1h2.6v3.6C27.2,8,26,8.2,24.6,8.2z"/>
				<path id="Shape_00000176004542559384546030000003840791526311036550_" class="st2" d="M34.1,8h-4c-0.1,0-0.1,0-0.1-0.1V1.3
					l-0.6-0.8V0.4c0-0.1,0-0.1,0.1-0.1h4.5c2,0,3.2,0.8,3.2,2c0,0.7-0.4,1.2-1.1,1.6c1,0.3,1.5,1,1.5,1.9C37.7,7.2,36.4,8,34.1,8z
					 M32.3,3.2h1.5c0.9,0,1.4-0.2,1.4-0.7c0-0.4-0.4-0.7-1.4-0.7h-1.5V3.2z M32.3,6.4h1.6c1.1,0,1.6-0.2,1.6-0.7S35,4.9,33.9,4.9
					h-1.6V6.4z"/>
				<path id="Path_00000133511092058407571890000002382836889577211551_" class="st2" d="M43.3,8h-2.1c-0.1,0-0.1,0-0.1-0.1V5.2
					l-3.4-4.9h2.4c0.1,0,0.1,0,0.1,0.1l2.1,3.1l2.1-3.1c0,0,0.1-0.1,0.1-0.1h2.3l-3.4,4.9V8L43.3,8z"/>
			</g>
		</g>
	</g>
</g>
</svg>
