<?xml version="1.0" encoding="utf-8"?>
<!-- Generator: Adobe Illustrator 26.0.2, SVG Export Plug-In . SVG Version: 6.00 Build 0)  -->
<svg version="1.1" id="Layer_1" xmlns="http://www.w3.org/2000/svg" xmlns:xlink="http://www.w3.org/1999/xlink" x="0px" y="0px"
	 width="258.6px" height="357.5px" viewBox="0 0 258.6 357.5" style="enable-background:new 0 0 258.6 357.5;" xml:space="preserve"
	>
<style type="text/css">
	.st0{fill:#FAB71D;stroke:#FFFFFF;stroke-width:1.27;}
	.st1{fill:#13854D;stroke:#FFFFFF;stroke-width:1.27;}
	.st2{fill:#CF1A42;stroke:#FFFFFF;stroke-width:1.27;}
	.st3{fill:#FAB71D;}
	.st4{fill:#13854D;}
	.st5{fill:#CF1A42;}
</style>
<g id="PAYS_DE_GALLES">
	<path class="st0" d="M119.2,166.4h19.9l-6.2,14h-6.2 M69.3,183.1L60,193.7l21.7,28.4l3.2-3.2l-16.5-35.7L69.3,183.1z M190.3,183.1
		l-15.7,36l3.2,3.2l21.7-28.6L190.3,183.1z M113.9,196.1l14.7,7.5l15.2-7.5l-15-7.4L113.9,196.1z M86.3,205
		c1.2,3.5,6.7,4.6,12.4,2.7c5.6-1.9,9.3-6.2,8.1-9.8c-1.2-3.6-6.7-4.6-12.4-2.7C88.8,197.1,85.1,201.3,86.3,205z M171.5,205.5
		c1.2-3.5-2.4-7.9-8.1-9.8s-11.3-0.7-12.4,2.7c-1.1,3.5,2.4,7.9,8.1,9.8C164.8,210.1,170,208.9,171.5,205.5z M85.7,227.5h15.7l8-5.3
		h38.4l8.2,6.2h16.4L149,212.3h-40.2L85.7,227.5L85.7,227.5z"/>
	<path class="st1" d="M37.5,324.2h181.1v20.7H37.5 M37.5,350.6v6.2h181.1v-6.2H37.5z"/>
	<path class="st2" d="M125.6,0.7l-3.2,9.7l7,18.2l7.2-18.6l-3.7-9.3h10.5l30.9,18.6v33.2l-10,6.7v-9.3l-14.2-14l5.8,19.2l-26.7,18.6
		L103,54.6l5.5-19.2L94,48.6v10l-9.7-6.2V17.9L116,0.7 M33.4,65.6L0.6,79v29.1l15.5,16.5h13.4L11.9,107l4.5-13.7l4.8,8.7l16.5,16.2
		l-2.2-12.9l23.7-23.5l16.7,10l31.4,86.3l4.5-2.5L84.2,80.4l-33.4-18L29.5,83v10.5L18.3,81.1l15-15.7L33.4,65.6z M61.8,93.8
		l-12.4,16.7l44.4,75.7l4.3-2.8L66.5,95.8l-4.8-2.2L61.8,93.8z M101.5,67.4l16.5,92.8h6.2V82.8L101.5,67.4L101.5,67.4z M225.3,65.7
		l15,15.7L229,93.8V83l-21.2-20.7l-33.4,17.9l-27.5,95.4l4.5,2.5l31.4-86.3l16.7-10l23.7,23.5l-2.2,13l16.5-16.3l4.8-8.5l4.5,13.6
		L229.1,125h13.4l15.5-16.8V79.1L225.3,65.7L225.3,65.7z M196.8,93.9l-4.8,2.2l-31.7,87.3l4.2,2.8l44.4-75.6l-12.4-16.7L196.8,93.9z
		 M157,67.3l-22.7,15.5v77.4h6.2L157,67.3L157,67.3z M118.8,228.2l-8,5.5l3.5,21.5h4.8v-26.7L118.8,228.2z M139.1,228.2V255h4.8
		l3.2-21.2l-8-5.3V228.2z M123.8,228.2l2.5,35.7h5l2.7-35.7H123.8z M73.5,273.7l8.7,39.4h7.4l4.4-19.2l5.3,19.9h7l8.7-39.7h-9.5
		l-3.5,19.3l-3.5-19.7h-8.3l-3.8,19.7l-3-19.7L73.5,273.7L73.5,273.7z M158.1,274.2v29.4c0.7,6.3,6,11.1,12.4,11.1
		c6.4,0.3,11.9-4.6,12.4-11v-29.5h-9.5v28.2c-0.3,1.3-1.5,2.2-2.8,2.2c-1.5,0.1-2.7-1-2.8-2.5v-27.9L158.1,274.2L158.1,274.2z
		 M133.6,291.4c0,0,4.9,0.4,5-5.5c0.3-2.1-1.2-4.1-3.3-4.4c-0.6-0.1-1.1,0-1.7,0.1V291.4z M123.7,274.2h15.4c2,0,8.6,1,8.8,10.2
		c0.8,4.6-1.4,9.2-5.5,11.5l7.7,17.9H139l-6.2-16.2v16h-9.2v-39.4H123.7z"/>
	<path class="st3" d="M119.2,166.4h19.9l-6.2,14h-6.2 M69.3,183.1L60,193.7l21.7,28.4l3.2-3.2l-16.5-35.7L69.3,183.1z M190.3,183.1
		l-15.7,36l3.2,3.2l21.7-28.6L190.3,183.1z M113.9,196.1l14.7,7.5l15.2-7.5l-15-7.4L113.9,196.1z M86.3,205
		c1.2,3.5,6.7,4.6,12.4,2.7c5.6-1.9,9.3-6.2,8.1-9.8c-1.2-3.6-6.7-4.6-12.4-2.7C88.8,197.1,85.1,201.3,86.3,205z M171.5,205.5
		c1.2-3.5-2.4-7.9-8.1-9.8s-11.3-0.7-12.4,2.7c-1.1,3.5,2.4,7.9,8.1,9.8C164.8,210.1,170,208.9,171.5,205.5z M85.7,227.5h15.7l8-5.3
		h38.4l8.2,6.2h16.4L149,212.3h-40.2L85.7,227.5L85.7,227.5z"/>
	<path class="st4" d="M37.5,324.2h181.1v20.7H37.5 M37.5,350.6v6.2h181.1v-6.2H37.5z"/>
	<path class="st5" d="M125.6,0.7l-3.2,9.7l7,18.2l7.2-18.6l-3.7-9.3h10.5l30.9,18.6v33.2l-10,6.7v-9.3l-14.2-14l5.8,19.2l-26.7,18.6
		L103,54.6l5.5-19.2L94,48.6v10l-9.7-6.2V17.9L116,0.7 M33.4,65.6L0.6,79v29.1l15.5,16.5h13.4L11.9,107l4.5-13.7l4.8,8.7l16.5,16.2
		l-2.2-12.9l23.7-23.5l16.7,10l31.4,86.3l4.5-2.5L84.2,80.4l-33.4-18L29.5,83v10.5L18.3,81.1l15-15.7L33.4,65.6z M61.8,93.8
		l-12.4,16.7l44.4,75.7l4.3-2.8L66.5,95.8l-4.8-2.2L61.8,93.8z M101.5,67.4l16.5,92.8h6.2V82.8L101.5,67.4L101.5,67.4z M225.3,65.7
		l15,15.7L229,93.8V83l-21.2-20.7l-33.4,17.9l-27.5,95.4l4.5,2.5l31.4-86.3l16.7-10l23.7,23.5l-2.2,13l16.5-16.3l4.8-8.5l4.5,13.6
		L229.1,125h13.4l15.5-16.8V79.1L225.3,65.7L225.3,65.7z M196.8,93.9l-4.8,2.2l-31.7,87.3l4.2,2.8l44.4-75.6l-12.4-16.7L196.8,93.9z
		 M157,67.3l-22.7,15.5v77.4h6.2L157,67.3L157,67.3z M118.8,228.2l-8,5.5l3.5,21.5h4.8v-26.7L118.8,228.2z M139.1,228.2V255h4.8
		l3.2-21.2l-8-5.3V228.2z M123.8,228.2l2.5,35.7h5l2.7-35.7H123.8z M73.5,273.7l8.7,39.4h7.4l4.4-19.2l5.3,19.9h7l8.7-39.7h-9.5
		l-3.5,19.3l-3.5-19.7h-8.3l-3.8,19.7l-3-19.7L73.5,273.7L73.5,273.7z M158.1,274.2v29.4c0.7,6.3,6,11.1,12.4,11.1
		c6.4,0.3,11.9-4.6,12.4-11v-29.5h-9.5v28.2c-0.3,1.3-1.5,2.2-2.8,2.2c-1.5,0.1-2.7-1-2.8-2.5v-27.9L158.1,274.2L158.1,274.2z
		 M133.6,291.4c0,0,4.9,0.4,5-5.5c0.3-2.1-1.2-4.1-3.3-4.4c-0.6-0.1-1.1,0-1.7,0.1V291.4z M123.7,274.2h15.4c2,0,8.6,1,8.8,10.2
		c0.8,4.6-1.4,9.2-5.5,11.5l7.7,17.9H139l-6.2-16.2v16h-9.2v-39.4H123.7z"/>
</g>
</svg>
