<?xml version="1.0" encoding="utf-8"?>
<!-- Generator: Adobe Illustrator 26.0.2, SVG Export Plug-In . SVG Version: 6.00 Build 0)  -->
<svg version="1.1" id="Layer_1" xmlns="http://www.w3.org/2000/svg" xmlns:xlink="http://www.w3.org/1999/xlink" x="0px" y="0px"
	 width="267.1px" height="229.2px" viewBox="0 0 267.1 229.2" style="enable-background:new 0 0 267.1 229.2;" xml:space="preserve"
	>
<style type="text/css">
	.st0{fill-rule:evenodd;clip-rule:evenodd;}
	.st1{fill:#B01117;}
</style>
<g>
	<path class="st0" d="M115.2,187.7c-37.7-1.8-60.9-26-73.1-63.6l-16.5-0.3C40,178.8,74.3,198.8,115.2,187.7"/>
	<path class="st0" d="M150.7,187.9c37.7-1.8,60.9-26,73.1-63.6l16.5-0.3C225.9,178.9,191.6,199,150.7,187.9"/>
	<path class="st0" d="M114.3,194.6c-61.6,13.8-89.3-35.2-95.8-70.7L2,124.1C14.6,191.8,71.4,221.7,114.3,194.6"/>
	<path class="st0" d="M151.5,194.6c61.6,13.8,89.3-35.2,95.8-70.7l16.5,0.1C251.3,191.8,194.5,221.7,151.5,194.6"/>
	<path class="st0" d="M147,197.9v-0.2c0.1-0.1,1.5-1.6,1.5-1.6l0.3-0.4c0.4-0.6,0.8-1.2,0.8-1.9v-0.6c0-1.2-0.5-2.5-1-3.2l-0.3-0.3
		c-0.6-0.7-1.2-1.3-1.9-1.4c0.1,0-0.7-0.2-0.7-0.2h-0.3L145,188c-0.5,0-0.8,0.2-0.9,0.5c-0.2,0.2-0.3,0.5-0.3,0.7v0.2l0.3,0.5
		c0,0.1,0.7,0.5,0.7,0.5c0.3,0.1,0.8,0.6,1,1.2c0.3,0.7,0.4,1.4,0.4,1.9c0,0.7-0.2,1.5-0.4,2.2c-0.1,0.4-0.6,1-1.1,1
		c-0.1,0-0.5,0.3-0.5,0.3h-0.1c-0.1,0-0.2,0.1-0.3,0.2c-0.3-0.6-0.7-1.1-1.1-1.5c-1.1-0.7-2.4-1.2-3.6-1.2c-0.8,0-1.8,0.2-2.7,0.5
		c-0.6,0.3-1.3,1-1.8,1.5c-0.4-0.5-1-1-1.6-1.3c-0.8-0.5-1.6-0.7-2.5-0.7c-1.2,0-2.3,0.4-2.9,1.1c-0.2,0.2-0.7,0.7-1.2,1.5
		c0.1-0.2,0.3-0.8,0.3-0.8l0.2-0.4c0.1-0.3,0.3-0.7,0.7-1c0-0.1,0.7-0.7,0.7-0.7l0.4-0.4l1.3-0.6c-0.1,0,1.2-0.2,1.2-0.2l0.6-0.2
		l1.2-0.3l0.8-0.2l0.8-0.2l0.5-0.1c0.1,0,0.4-0.1,0.4-0.2v-0.1c0.1-0.1,0.2-0.1,0.2-0.1l0.2-0.1l0,0l0.9-0.6l1.3-1.1
		c0.3-0.6,0.7-1.4,0.7-2.1l-0.1-0.7v-0.3c0-0.4-0.6-0.6-0.7-0.6c-0.4,0-0.7,0.2-0.7,0.6c0-0.1-0.2,0.5-0.2,0.5v0.3
		c0,0,0,0.3-0.2,0.4c-0.1,0-1.3,0.7-1.3,0.7c0.1,0-0.6,0.2-0.6,0.2c-0.1,0.1-0.1,0.1-0.1,0.1l-0.4,0.2l-0.4,0.1
		c-0.1,0-1.5,0.7-1.6,0.7H132h-0.5v0.2l-1.2,0.3l-1.8,0.8l-1.1,0.6c-0.1,0.1-1,1.1-1,1.1c-0.8,0.9-1.3,2-1.3,2.6l-0.1,0.6l-0.2,1.7
		v1.9l0.2,0.9l0.2,0.7l0.1,0.3c0.1,0.6,0.5,1.3,1.1,2.3c0.3,0.7,1.1,1,1.7,1c0.2,0,0.4,0,0.6-0.1v0.2c0,0.4,0.4,0.6,0.6,0.7
		c0.1,0.1,1.1,1.1,1.1,1.1l0.2,0.6l0.3,0.8c0,0.1,0.1,0.5,0.1,0.5v0.3c-0.1,0.9-2.2,1.6-4.6,1.5c-1.8-0.1-3.8-0.7-3.9-2.2v-19.5
		c0-0.1-0.1-0.2-0.2-0.2H121c-0.1,0-4.6,1.8-4.6,1.8c-0.1,0-0.1,0.1-0.1,0.2v1c0,0.1,0,0.1,0.1,0.2c0.1,0,0.1,0.1,0.2,0
		c0,0,2.1-0.5,2.6-0.7v17c0,0.9,1.3,2.9,1.8,3.5c1.1,1.6,9.4,1.5,12.2,0.2c1-0.5,1.8-1.8,1.8-3.1l-0.4-1.4l-0.2-0.6
		c0-0.5-1.8-1.8-1.9-1.8c-0.1,0-0.6-0.1-0.7-0.1l0,0l-0.2-0.2c-0.1,0-0.4-0.1-0.4-0.1s-0.2-0.1-0.3-0.1c0-0.1-0.1-0.3-0.1-0.3
		c0.1,0,0.2-0.1,0.2-0.1c0.2,0,0.4-0.2,0.4-0.4c-0.1,0.1,0.3-0.2,0.3-0.2c0.1,0,0.1-0.3,0.1-0.4v-0.2c0-0.1-0.1-0.4-0.1-0.4
		c0-0.1-0.1-0.4-1-0.4c-0.2,0-0.5,0.1-0.7,0.2c0-0.1-0.1-0.2-0.1-0.2l-0.1-0.2l0,0c0-0.4-0.6-0.8-1-0.8l-0.6-0.2
		c0-0.1-0.2-0.7-0.2-1.4v-0.3l0.5-1.4l0.3-0.6c0.3-0.5,1-1,1.6-1l0.5,0.2h0.3c0.2,0.1,0.8,0.4,1.1,0.7s0.5,1,0.5,1.6v1.3
		c0,0.1,0.1,0.2,0.2,0.2h2.8c0.1,0,0.2-0.1,0.2-0.2v-1.1c0-0.8,0.1-1.5,0.4-1.8c0.3-0.3,0.9-0.7,1.3-0.7c0.1,0,0.2-0.1,0.2-0.1
		s0,0,0-0.1h0.2c0.8,0,1.7,0.5,1.9,1l0.1,0.2c0.3,0.6,0.6,1.3,0.6,2v0.3l-0.2,0.2c0,0.1-0.2,1.5-0.2,1.5s0,0.1,0,0.2
		c-0.2,0.1-0.5,0.2-0.5,0.2l-0.2,0.1c-0.2,0.1-0.3,0.3-0.3,0.3l-1.5,1.8c-0.4,0.9-0.8,1.9-0.8,2.7c0,1.5,0.6,3,1.8,4.1
		c1.2,0.9,2.7,1.4,4.1,1.4c2.4,0,4.4-0.8,5.4-2.1c1.2-1.4,1.9-2.8,1.9-4.2v-0.2c0-1.8-0.5-4.7-1.1-5.5
		C148.8,199.4,148,198.3,147,197.9 M140.8,205.2l0.2-0.5h0.2c0.2,0,0.3-0.1,1-0.8c0.4-0.3,1.1-1.1,1.4-1.8c0.3-0.7,0.6-1.9,0.6-2.9
		c0-0.2,0-0.4-0.1-0.5l0.7,0.2c0.5,0.5,1.1,1,1.2,1.7l0.2,1.4l0.4,2.6v0.9c0,1.9-0.3,3.2-0.9,4c-0.5,0.6-1.3,0.9-2.2,0.9
		s-1.7-0.3-2.2-1c-0.4-0.9-0.6-1.9-0.6-2.7L140.8,205.2L140.8,205.2L140.8,205.2z"/>
	<path class="st0" d="M114.4,217.9c0.1-0.2,0.2-0.4,0-0.6c-0.1-0.2-0.3-0.2-0.5-0.2c0,0-1.5,0.5-1.7,0.5c-1.7-0.3-2.2-0.5-2.8-1.8
		c-0.5-2.2-0.8-4.5-0.8-6.8c0-8.3,3.3-16.7,9.5-23.1c0.1-0.1,0.1-0.2,0.1-0.3s0-0.2-0.1-0.3c-0.2-0.2-0.4-0.2-0.6-0.1
		c-10.6,7.5-14.8,22.9-9.4,35c0.1,0.2,0.2,0.3,0.4,0.3C111.2,220.5,112.5,219.9,114.4,217.9"/>
	<path class="st0" d="M157.5,180.8c-1.4-2.6-4-4.3-7.7-5.2c-8.8-2-21.8,1.9-26.5,5.4c-0.2,0.1-0.2,0.4-0.1,0.6
		c0.1,0.2,0.3,0.3,0.6,0.2c10.1-3.3,21.5-6.4,29.3-1.4c0.5,0.5,0.5,0.5,0.2,0.9l-0.6,1.2c-0.1,0.2,0,0.4,0.1,0.5
		c0.2,0.1,0.4,0.1,0.6,0c0.6-0.4,1.4-0.4,2.1-0.1c1.3,2.4,1.8,5,1.8,7.7c0,5.4-2.2,11.5-5.6,18.5c0,0.1-0.1,0.1-0.1,0.2
		c0,0.1,0.1,0.3,0.2,0.4c0.2,0.1,0.4,0.1,0.6-0.1C158.3,203.5,163.3,189.2,157.5,180.8"/>
	<path class="st0" d="M146,214.5c-10,5.9-17.9,8.6-30.9,5.8c-0.1,0-0.3,0-0.4,0.1l-2.2,1.6c-0.1,0.1-0.2,0.3-0.2,0.4
		c0,0.2,0.1,0.3,0.3,0.4c13.3,4.3,26.6-0.7,33.9-7.5c0.2-0.2,0.2-0.4,0.1-0.6C146.5,214.4,146.2,214.3,146,214.5"/>
	<path class="st1" d="M180.8,113.5c15.1-2,28.1-12.5,33.3-26.7c5.1-14.2,1.4-29.7-10.4-42.4c-0.4-0.5-1.1-0.6-1.7-0.4
		c-0.6,0.2-1,0.8-0.9,1.4c0.9,21.4-3.3,35.3-12.9,42.4c-9.8,7.4-25.3,7.7-47.3,1c0-0.6,0-1.3-0.1-1.9c25.5-0.2,37.1-13.2,41.9-21.3
		c7.7-13.1,7.6-29.8-0.4-42.7c-8-12.8-22.5-19.5-39.7-18.2c-0.6,0.1-1.1,0.5-1.3,1.1s0.1,1.2,0.6,1.6c17.3,12.5,25.6,24.4,25.3,36.4
		c-0.3,12.5-9.9,25-29.4,38.3c-0.1-0.1-0.3-0.2-0.5-0.3c15.2-20.5,11.9-37.6,8.4-46.3C140,21.4,126.5,11.4,111.5,10
		C96.4,8.6,82.4,16.1,73,30.7c-0.3,0.5-0.3,1.2,0.1,1.7s1,0.7,1.6,0.5c20.5-6.2,35-5.6,44.3,1.9c9.7,7.8,13.9,22.9,12.7,46.2
		c-0.2,0.1-0.4,0.1-0.6,0.2c-7-24.1-22.4-31.8-31.4-34.3c-14.7-4-30.8,0.5-41.1,11.6s-12.9,26.8-7,43.1c0.2,0.6,0.8,1,1.4,1
		c0.6,0,1.2-0.4,1.4-1c7.5-20,16.8-31.2,28.5-34c11.9-3,26.3,2.8,43.9,17.6c-0.1,0.2-0.2,0.4-0.2,0.6c-23.2-8.5-38.4-0.9-45.7,4.7
		c-12,9.3-18.1,24.9-15.4,39.8s13.7,26.4,30.3,31.5c0.6,0.2,1.2,0,1.6-0.5s0.4-1.2,0.1-1.7c-11.5-18-14.8-32.2-10.1-43.2
		c4.8-11.2,17.8-19.3,39.9-24.4c0.1,0.2,0.2,0.3,0.4,0.5c-22.2,12.3-26.2,29.2-26.6,38.6c-0.6,15.2,7.5,29.9,20.6,37.4
		s29,6.4,43.6-2.9c0.5-0.3,0.8-1,0.7-1.6s-0.6-1.1-1.3-1.2c-21.2-2.8-34.2-9.3-39.6-20c-5.6-11-3.2-26.5,7.4-47.2
		c-3.7,25.8,7.6,39.5,15,45.4c11.9,9.5,28.5,11.7,42.3,5.6c13.9-6.1,22.4-19.5,23.6-36.8c0-0.6-0.3-1.2-0.9-1.5
		c-0.6-0.3-1.2-0.1-1.7,0.3c-14.9,15.4-27.8,21.9-39.6,19.9c-12.3-2-23.3-13.2-33.6-34.2c0.3-0.2,0.6-0.4,0.9-0.6
		C154.2,113.6,171.6,114.7,180.8,113.5"/>
</g>
</svg>
