<?xml version="1.0" encoding="utf-8"?>
<!-- Generator: Adobe Illustrator 26.0.2, SVG Export Plug-In . SVG Version: 6.00 Build 0)  -->
<svg version="1.1" id="efb8f462-8982-46ff-be2d-91251de2bff4"
	 xmlns="http://www.w3.org/2000/svg" xmlns:xlink="http://www.w3.org/1999/xlink" x="0px" y="0px" width="787.4px" height="1000px"
	 viewBox="0 0 787.4 1000" style="enable-background:new 0 0 787.4 1000;" xml:space="preserve">
<style type="text/css">
	.st0{fill:#FFFFFF;}
	.st1{fill:#6CACE4;}
</style>
<path d="M773.1,152.8c-81.7-31.6-167.1-52.8-254.1-63.3c-21.7-21.8-49.7-41.5-86-56.6c-3.2-4.6-7.6-8.2-12.9-10.2l-15.3-6
	c0,0-6.3-2.5-11.2-2.5s-11.2,2.5-11.2,2.5l-15.3,6c-5.2,2-9.7,5.6-12.9,10.2c-36.3,15.1-64.3,34.7-86,56.6
	C181.3,100,96,121.2,14.3,152.8v362.2c0,63.6,20.5,123,52.1,176.6H18.7c-2,0-3.7,1.7-3.7,3.7c0,0.2,0,0.4,0.1,0.6l32.1,190.8
	c0.3,1.8,1.8,3.1,3.6,3.1H250c77.3,59.8,143.7,94.1,143.7,94.1s66.4-34.2,143.7-94.1H747c1.9,0,3.5-1.4,3.7-3.3l22-190.7
	c0.2-2-1.2-3.9-3.2-4.1c-0.1,0-0.3,0-0.4,0h-47.9c31.5-53.7,52-113.1,52-176.6L773.1,152.8z"/>
<path class="st0" d="M207.1,518.2c19.9-8.2,27.3-37.9,27.3-37.9c-11,9.2-29.2,7.8-29.2,7.8c9.8-7.7,16.2-18.9,17.8-31.3
	c-0.1-0.1-0.1-0.2-0.2-0.3c-13.6,12.8-33.9,26.5-63.2,34.7l0,0c0,0,9.2,8.5,25.2,13.4c-47.8,34.5-37.5,60.9-37.5,60.9
	c27.1-32.2,81.1,3.9,110.8-20.6c11.5-9.4,28.6-29.8,25-58.7C254.4,521.3,207.1,518.2,207.1,518.2z"/>
<path class="st0" d="M580.3,518.2c-19.9-8.2-27.3-37.9-27.3-37.9c11,9.2,29.2,7.8,29.2,7.8c-9.8-7.7-16.2-18.9-17.8-31.3
	c0.1-0.1,0.1-0.2,0.2-0.3c13.6,12.8,33.9,26.5,63.2,34.7l0,0c0,0-9.2,8.5-25.2,13.4c47.8,34.5,37.5,60.9,37.5,60.9
	c-27.1-32.2-81.1,3.9-110.8-20.6c-11.5-9.4-28.6-29.8-25-58.7C533,521.3,580.3,518.2,580.3,518.2z"/>
<path class="st0" d="M354.8,228.3c-0.5-18.4-2.6-65.1-10.6-99.6c-2.6-11-13.6-17.8-24.6-15.3c-0.7,0.2-1.4,0.4-2.1,0.6
	c-6.1,2.2-11.7,5.7-16.3,10.3c-38.1,38-52.5,84.4-57.1,122.7C283.7,236.1,325.5,230.8,354.8,228.3z"/>
<path class="st0" d="M543.3,246.9c-4.6-38.2-19-84.6-57.1-122.7c-4.6-4.6-10.1-8.1-16.3-10.3c-10.7-3.7-22.3,1.9-26.1,12.6
	c-0.2,0.7-0.4,1.4-0.6,2.1c-8,34.6-10.1,81.2-10.7,99.6C462,230.8,503.8,236.1,543.3,246.9z"/>
<path class="st0" d="M367.7,395c0.1-1.1-0.6-2-1.7-2.2c-0.6-0.1-1.2,0.1-1.6,0.6c-11.5,11.8-31.3,23-61.6,12.9
	c-46.9-15.8-56.6-67.1-57.1-98.6c-22.6,5.5-26.7,9.7-33.2,12.6c8.2,42.3,32.4,99,99.7,139.3c12.9-9.9,24.8-21,35.7-33.1
	c1.5-1.6,3.2-3,5-4.2c3.6-2.1,7.9-2.7,12-1.7c1.1,0.2,2.2-0.4,2.4-1.5c0-0.2,0.1-0.3,0.1-0.5C366.7,410.8,366.9,402.9,367.7,395z"/>
<path class="st0" d="M419.7,395c-0.1-1.1,0.6-2,1.7-2.2c0.6-0.1,1.2,0.1,1.6,0.6c11.5,11.8,31.3,23,61.6,12.9
	c46.9-15.8,56.6-67.1,57.1-98.6c22.6,5.5,26.7,9.7,33.2,12.6c-8.2,42.3-32.4,99-99.7,139.3c-12.9-9.9-24.8-21-35.7-33.1
	c-1.4-1.6-3.1-3-5-4.2c-3.6-2.1-7.9-2.7-12-1.7c-1.1,0.2-2.2-0.4-2.4-1.5c0-0.2-0.1-0.3-0.1-0.5C420.7,410.8,420.5,402.9,419.7,395z
	"/>
<path class="st0" d="M349.6,318.1c2.3,1.8,4.6,3.6,7,5.2l-2-80.1c-38.3,3.4-97.2,11.4-143.1,30.5v32.8c0.5-0.3,1-0.5,1.5-0.7
	c2.5-1.2,7.9-3.7,15.2-6.4C284.9,279.4,332.4,306.1,349.6,318.1z"/>
<path class="st0" d="M437.8,318.1c-2.3,1.8-4.6,3.6-7,5.2l2-80.1c38.3,3.4,97.2,11.4,143.1,30.5v32.8c-0.5-0.3-1-0.5-1.5-0.7
	c-2.5-1.2-7.9-3.7-15.2-6.4C502.5,279.4,455,306.1,437.8,318.1z"/>
<path class="st0" d="M426.4,436.4c-4.1,0-12.4,5.4-17.3,8.8c-1.5,1-3.4-0.3-3.1-2.2c1.4-10.7,2.1-40.3-1.2-56.5
	c-1.6-8.5-3.8-16.8-6.5-25c-0.7-1.9-2.5-3.2-4.5-3.1h0c-2,0-3.8,1.2-4.5,3.1c-2.7,8.2-4.9,16.5-6.5,25c-3.3,16.2-2.6,45.7-1.2,56.5
	c0.2,1.9-1.7,3.3-3.1,2.2c-4.9-3.5-13.2-8.8-17.3-8.8c-5.6,0-10.5,12.3-8.2,22.2c0.3,1.3,1.3,2.3,2.7,2.5
	c5.7,0.8,21.9,4.1,26.5,15.8c0.8,2.3,2.7,4.1,5,4.9c4.3,1.7,9.1,1.7,13.5,0c2.3-0.7,4.2-2.5,5-4.9c4.6-11.7,20.8-15,26.5-15.8
	c1.3-0.2,2.4-1.2,2.7-2.5C436.9,448.7,432,436.4,426.4,436.4z"/>
<path class="st0" d="M353.1,370.9c-3-3.3-6.4-6.2-10-8.8c-2.4,7.1-9.2,11.2-15.7,9.3c-6.9-2-10.8-9.8-8.8-17.5
	c0.1-0.6,0.3-1.1,0.5-1.7c-4.6-0.6-9.2-0.7-13.8-0.1c-1.8,0.2-3.2,1.5-3.4,3.3l0,0c-0.3,7.6,1.8,25.4,29.9,25.4
	c6.8,0.1,13.6-1.2,19.9-3.8c2-0.8,2.9-3.1,2.1-5C353.7,371.6,353.4,371.3,353.1,370.9z"/>
<path class="st0" d="M485.4,355.5L485.4,355.5c-0.2-1.8-1.6-3.2-3.3-3.3c-4.6-0.6-9.2-0.5-13.8,0.1c0.2,0.5,0.4,1.1,0.5,1.7
	c2,7.7-2,15.5-8.8,17.5c-6.6,1.9-13.4-2.3-15.7-9.3c-3.6,2.6-7,5.6-10,8.8c-1.4,1.6-1.3,4,0.2,5.5c0.3,0.3,0.7,0.5,1.1,0.7
	c6.3,2.6,13.1,3.9,19.9,3.8C483.6,380.9,485.8,363.1,485.4,355.5z"/>
<path class="st0" d="M277.2,307.8c0,0,51.5,1.9,87.7,44.9c0.9,1.1,1.4,2.5,1.4,3.9v0.1c0,2.6-2,4.8-4.6,4.8c-1.2,0-2.3-0.4-3.2-1.2
	c-19-16.7-42.6-27.2-67.8-30C290.8,330.2,277.5,327.5,277.2,307.8z"/>
<path class="st0" d="M510.2,307.8c0,0-51.5,1.9-87.7,44.9c-0.9,1.1-1.4,2.5-1.4,3.9v0.1c0,2.6,2,4.8,4.6,4.8c1.2,0,2.3-0.4,3.2-1.2
	c19-16.7,42.6-27.2,67.8-30C496.7,330.2,509.9,327.5,510.2,307.8z"/>
<path class="st1" d="M451.2,889.8c-23.4,15.9-43.5,28.2-57.5,36.4c-14-8.2-34-20.5-57.4-36.4h-40.4c31.4,22.8,64.1,43.9,97.8,63.2
	c33.8-19.3,66.5-40.4,98-63.2H451.2z"/>
<path class="st0" d="M430.3,522.3c-1.1,0.4-1.7,1.6-1.3,2.8c0.3,0.9,1.1,1.4,2,1.4c3.5,0,15.3,0,18.9,0.2c1,0,1.7,0.9,1.6,1.8
	c0,0.5-0.3,1-0.7,1.3c-1.5,1.1-3.2,1.9-4.9,2.5c-13.8,4.7-51.4,0.2-79.6,3.7c-6,0.7-12,0.3-17.8-1.3c-4.7-1.4-9.4-3.7-12.3-7.5
	c-0.6-0.8-0.4-1.9,0.4-2.5c0.3-0.2,0.6-0.3,0.9-0.3c5.7-0.6,20.5-0.7,26.6-0.7c1.2,0,2.2-1,2.2-2.1c0-0.9-0.6-1.7-1.4-2
	c-8.8-3.2-22.1-6.8-25.1-9.6c-1.8-1.7-1.9-4.6-0.2-6.5c13.7-14.6,42.9,15.5,83,9c13.4-2.2,22.2-1.7,27.5,0.2
	c1.1,0.4,1.7,1.6,1.3,2.8c-0.2,0.4-0.5,0.8-0.9,1.1C447.5,518.4,435.5,520.5,430.3,522.3z"/>
<path class="st0" d="M154.5,597.8c0-8.4,4.6-13.9,13.6-13.9h32.7l4,21.3h-25.1c-1.6,0-2.1,0.8-2.1,2.2v67.9c0,1.4,0.5,2.2,2.1,2.2
	H190v-55h22.3v75.9h-40c-13.1,0-17.8-5.1-17.8-17.7V597.8z"/>
<path class="st0" d="M221.1,583.9h23.5V677h23.1l-4,21.3h-42.6V583.9z"/>
<path class="st0" d="M615.3,583.9h23.4l-18,114.5h-20.8l-9.5-59.7l-9.3,59.7h-20.8l-18-114.5h23.4l7.3,66.6l9.3-66.6h16.6l9.2,66.6
	L615.3,583.9z"/>
<path class="st0" d="M317,584.4h-24.4l-20.6,114.2h23l1.1-7.4l15.4-15.4l1.2,8.6l2,14.2h23L317,584.4z M308.4,653.5l-8.3,8.3l4.8-36
	L308.4,653.5z"/>
<path class="st0" d="M402.6,617.5v-19.2c0-8-6.4-14.4-14.4-14.4c0,0,0,0,0,0h-27.1c-13.1,0-17.8,5-17.8,17.7v29.7c0,0.1,0,0.1,0,0.2
	c-0.5,6.1,4.1,11.4,9.8,13.5l21.5,7.7c3.2,1.2,5.4,4.2,5.4,7.7v15.5c0,1.7-0.5,2.4-2.4,2.4h-9.8c-1,0-1.8-0.8-1.8-1.8l0,0v-4.2l0,0
	v-7.5h-22.8V684c0,8,6.4,14.4,14.4,14.4c0,0,0,0,0,0h27.1c13.1,0,17.8-5,17.8-17.7V651c0,0,0-0.1,0-0.2v-2.2c0-6-3.8-11.3-9.4-13.4
	l-21.9-7.9c-3.2-1.2-5.4-4.2-5.4-7.7v-13.4c0-1.7,0.5-2.4,2.4-2.4h9.7c1,0,1.8,0.8,1.8,1.8l0,0v11.5l0,0v0.1L402.6,617.5
	L402.6,617.5z"/>
<path class="st0" d="M469.1,635.1v-12.6h-22.3v55h-10.4c-1.6,0-2-0.8-2-2.2v-67.9c0-1.4,0.5-2.2,2-2.2h25.1l-4-21.3h-32.7
	c-9,0-13.6,5.5-13.6,13.9v82.9c0,12.6,4.7,17.7,17.8,17.7h39.9v-51.2l-6-6L469.1,635.1z"/>
<path class="st0" d="M537.2,635.1v-36.3c0-9-4.7-14.8-15.5-14.8h-28.4c-10.7,0-15.5,5.8-15.5,14.8v36.3l-6.1,6.1l6,6v34.9
	c0,8.7,3.6,16.3,16.4,16.3h26.5c12.8,0,16.4-7.6,16.4-16.3v-34.9l6.1-6L537.2,635.1z M513.9,676c0,1.7-0.3,2.4-2.2,2.4H503
	c-1.9,0-2.2-0.6-2.2-2.4v-69.8c0-1.4,0.5-2.2,2-2.2h9c1.6,0,2.1,0.8,2.1,2.2L513.9,676z"/>
<path class="st0" d="M145.1,716.5h30.3L152.1,865h-27l-12.4-77.4L100.6,865h-27L50.2,716.5h30.3L90,803l12.1-86.5h21.5l11.9,86.5
	L145.1,716.5z"/>
<path class="st0" d="M224.2,716.6h-31.7l-26.8,148.3h29.9l1.4-9.6l20-20l1.5,11.2l2.7,18.4H251L224.2,716.6z M213.1,806.4
	l-10.8,10.8l6.2-46.8L213.1,806.4z"/>
<path class="st0" d="M731.1,760.1v-24.9c0-10.3-8.4-18.7-18.7-18.7l0,0h-35.2c-17,0-23.1,6.5-23.1,22.9v38.5c0,0.1,0,0.2,0,0.3
	c-0.6,7.9,5.3,14.8,12.7,17.5l27.9,10c4.2,1.5,7,5.5,7,10v20.2c0,2.2-0.6,3-3.1,3H686c-1.3,0-2.3-1-2.3-2.3v0v-5.4l0,0v-9.8h-29.7
	v24.9c0,10.3,8.3,18.7,18.6,18.8c0,0,0,0,0,0h35.2c17,0,23.1-6.5,23.1-22.9v-38.4c0-0.1,0-0.1,0-0.2v-2.8c0-7.8-4.9-14.7-12.2-17.3
	l-28.5-10.2c-4.2-1.5-7-5.5-7-10v-17.4c0-2.2,0.6-3.1,3.1-3.1H699c1.3,0,2.3,1,2.3,2.3v15l0,0v0.1L731.1,760.1L731.1,760.1z"/>
<path class="st0" d="M322.9,817.7c7.1,0.3,13.1-5.3,13.3-12.4c0-0.2,0-0.5,0-0.7v-68.8c0-11.7-6.1-19.3-20.1-19.3h-64.7l5.3,26.2
	h3.1V865h29.7v-47.3h3.9l14.3,47.3h30.7L322.9,817.7z M306.9,790.7c0,2.2-0.6,3.1-2.9,3.1h-14.5v-51.3h14.5c2,0,2.9,1.2,2.9,3.1
	L306.9,790.7z"/>
<path class="st0" d="M412.8,817.7c7.1,0.3,13.1-5.3,13.3-12.4c0-0.2,0-0.5,0-0.7v-68.8c0-11.7-6.2-19.3-20.1-19.3h-64.7l5.3,26.2
	h3.2V865h29.7v-47.3h3.9l14.3,47.3h30.7L412.8,817.7z M396.8,790.7c0,2.2-0.6,3.1-2.9,3.1h-14.5v-51.3h14.5c2,0,2.9,1.2,2.9,3.1
	L396.8,790.7z"/>
<polygon class="st0" points="466.5,782.9 466.5,716.5 436.8,716.5 436.8,865 466.5,865 466.5,798.6 458.6,790.8 "/>
<path class="st0" d="M631.4,817.7c7.1,0.3,13.1-5.2,13.3-12.3c0-0.3,0-0.5,0-0.8v-68.8c0-11.7-6.2-19.3-20.1-19.3h-56.4v66.4
	l7.8,7.9l-7.8,7.9V865H598v-47.3h3.9l14.3,47.3h30.7L631.4,817.7z M615.4,790.7c0,2.2-0.6,3.1-2.9,3.1H598v-51.3h14.5
	c2,0,2.9,1.2,2.9,3.1L615.4,790.7z"/>
<path class="st0" d="M555.9,782.9v-47.1c0-11.7-6.1-19.3-20.1-19.3h-36.9c-13.9,0-20.1,7.6-20.1,19.3v47.2l-7.9,7.9l7.9,7.9v45.3
	c0,11.3,4.7,21.1,21.3,21.1h34.4c16.6,0,21.3-9.8,21.3-21.1v-45.3l7.9-7.9L555.9,782.9z M525.8,835.9c0,2.2-0.4,3.1-2.9,3.1h-11.3
	c-2.5,0-2.9-0.8-2.9-3.1v-90.5c0-1.8,0.6-2.9,2.7-2.9h11.7c2,0,2.7,1,2.7,2.9L525.8,835.9z"/>
<path class="st1" d="M747.6,499.4v-330l-6.9-2.5c-65.3-23.6-132.9-40.4-201.7-50.3c5.7,7.6,10.9,15.5,15.6,23.6l0,0l0.1,0.1
	c4.4,7.7,8.4,15.7,12,23.9v0.1c7.6,17.6,13.3,35.9,17,54.7c0,0,0,0.1,0,0.1c1.5,7.4,2.6,14.6,3.5,21.5v0.3
	c0.9,6.9,1.4,13.5,1.8,19.8l4.3,1.5c1.5,0.5,2.5,2,2.5,3.6l-1,54.7c-0.5,24.4,5.3,48.5,16.9,70c-13.1-4.1-29.1-11.9-29.1-11.9
	s14.9,27.3,52.8,53.4c-24.1,1.9-54.4-4.9-54.4-4.9c30.6,55.9,134.2,70.7,134.2,70.7s-15.1,15.9-54.6,21.8
	c11.2,11.5,29.6,37.9,29.3,87.2l-17.7-11.8c7,30,6.6,65.1-15.4,97.1c0,0,0.6-0.2,1.7-0.8c21.3-9.9,37.6-30.6,48-53.8
	c3.3,10.2,4.7,16.3,4.7,16.3l0,0c0,0,20.9-53,10.7-123c0,0,13.8,11.1,22,26.4c4-24.6,3.7-41,3.7-41L747.6,499.4L747.6,499.4z
	 M580.7,145c33.8,6.4,67.3,14.6,100.3,24.5l-72.6,72.6C605.2,214.1,597.6,179.5,580.7,145z M651.7,408.8
	c-16.8-15.9-28.4-36.6-33.2-59.2l108-108v210.2C702.8,443.4,674.4,429.9,651.7,408.8L651.7,408.8z"/>
<path class="st1" d="M39.8,169.5v330l0,0v16.8c0,0-0.2,16.4,3.7,41c8.2-15.3,22-26.4,22-26.4c-10.2,70.1,10.7,123,10.7,123l0,0
	c0,0,1.3-6.1,4.7-16.3c10.4,23.2,26.6,43.9,48,53.8c1.1,0.5,1.7,0.8,1.7,0.8c-22-32-22.3-67.1-15.4-97.1L97.5,607
	c-0.3-49.3,18.1-75.7,29.3-87.2C87.4,513.9,72.2,498,72.2,498s103.6-14.8,134.2-70.6c0,0-30.3,6.7-54.4,4.9
	c37.9-26,52.8-53.4,52.8-53.4s-16.2,7.9-29.4,12c11.7-21.5,17.7-45.7,17.2-70.3l-1-54.6c0-1.6,1-3.1,2.5-3.6l4.3-1.5
	c0,0,0-0.1,0-0.1c0.4-6.1,0.9-12.6,1.8-19.4c0-0.3,0.1-0.5,0.1-0.8c0.3-2.1,0.5-4.2,0.9-6.3c0-0.2,0-0.3,0.1-0.5
	c0.7-4.6,1.5-9.2,2.4-14l0.2-1.2c0.4-2,0.8-4,1.3-6.1c0.1-0.4,0.2-0.8,0.3-1.2c1.1-4.8,2.3-9.6,3.7-14.5c0.1-0.5,0.3-0.9,0.4-1.4
	c0.6-2,1.2-4,1.8-6c0.2-0.6,0.4-1.1,0.5-1.7c0.7-2.2,1.5-4.5,2.3-6.8l0.2-0.6c0.9-2.5,1.8-5,2.8-7.5c0.2-0.4,0.4-0.9,0.5-1.4
	c0.8-2,1.6-4,2.5-6c0.3-0.7,0.6-1.3,0.9-2c0.9-2,1.8-4,2.7-6l0.7-1.5c1.2-2.5,2.4-5,3.7-7.4c0.2-0.4,0.4-0.7,0.6-1
	c1.1-2.1,2.2-4.2,3.4-6.2c0.2-0.3,0.3-0.6,0.5-0.9l0,0c4.7-8.2,9.9-16.1,15.6-23.7c-68.8,9.8-136.4,26.6-201.7,50.2L39.8,169.5z
	 M132.3,411.8c-22.1,19.5-49,32.1-71.5,40V241.5l108,108C163.5,373.6,150.8,395.4,132.3,411.8L132.3,411.8z M179,242.1l-72.6-72.6
	c33-9.9,66.5-18,100.3-24.5C189.8,179.5,182.2,214.1,179,242.1L179,242.1z"/>
<path class="st0" d="M393.7,338.4h-6.3c-7.8,0-14.2-6.2-14.4-14.1l-7-274.9c-0.1-5,2.9-9.6,7.5-11.4l15.6-6.1c2.9-1.1,6.2-1.1,9.1,0
	l15.7,6.1c4.7,1.8,7.7,6.4,7.5,11.4l-7,274.9c-0.2,7.8-6.6,14.1-14.4,14.1L393.7,338.4"/>
<path class="st0" d="M393.7,14.3c4.9,0,11.2,2.5,11.2,2.5l15.3,6c5.2,2,9.7,5.6,12.9,10.2c36.3,15.1,64.3,34.7,86,56.6
	c87,10.4,172.3,31.7,254.1,63.3v362.2c0,63.6-20.5,123-52,176.6H769c2,0,3.7,1.6,3.7,3.7c0,0.1,0,0.3,0,0.4l-22,190.7
	c-0.2,1.9-1.8,3.3-3.7,3.3H537.4c-77.3,59.8-143.7,94.1-143.7,94.1s-66.4-34.2-143.7-94.1H50.7c-1.8,0-3.3-1.3-3.6-3.1L15,696
	c-0.3-2,1-3.9,3-4.3c0.2,0,0.4-0.1,0.6-0.1h47.7c-31.5-53.7-52-113.1-52-176.6V152.8c81.7-31.6,167-52.8,254-63.3
	C290,67.7,318,48.1,354.4,33c3.2-4.6,7.6-8.2,12.9-10.2l15.3-6C382.5,16.8,388.8,14.3,393.7,14.3 M393.7,0c-7.2,0-14.9,2.9-16.4,3.5
	l-15.3,6c-6.4,2.5-12.2,6.6-16.7,11.8C313,35.2,284.9,53.6,261.8,76C175.3,86.7,90.4,108.1,9.1,139.5L0,143v372.1
	c0,53.8,14.2,108.3,42.1,162.3H18.7c-9.9,0-18,8.1-18,18c0,1,0.1,2,0.3,3L33,889.2c1.4,8.7,9,15,17.7,15h194.4
	c75.7,58.1,139.3,91.1,142,92.5l6.6,3.3l6.5-3.4c2.7-1.4,66.3-34.4,142-92.5H747c9.1,0,16.8-6.9,17.9-15.9l22-190.8
	c1.1-9.9-6-18.8-15.8-19.9c-0.7-0.1-1.4-0.1-2-0.1h-23.7c28-54,42.1-108.5,42.1-162.3V143l-9.1-3.5C697,108,612.1,86.7,525.6,75.9
	c-23.1-22.4-51.2-40.8-83.6-54.7c-4.5-5.3-10.2-9.3-16.7-11.8l-15.3-6C408.6,2.9,400.9,0,393.7,0z"/>
<path class="st1" d="M312.1,459.6c12.9-9.9,24.8-21,35.7-33.1c1.5-1.6,3.2-3.1,5-4.2c3.6-2.1,7.9-2.7,12-1.7
	c1.1,0.2,2.2-0.4,2.4-1.5c0-0.2,0.1-0.3,0.1-0.5c-0.5-7.9-0.4-15.8,0.4-23.7c0.1-1.1-0.6-2-1.7-2.2c-0.6-0.1-1.2,0.1-1.7,0.6
	c-7.3,7.6-16.5,13-26.8,15.5c-7.9,6.9-16.4,12.9-25.4,18.1c-70.5-16.4-85.1-84.1-88.1-112.5c-5.4,2.3-8.2,4.2-11.7,5.8
	C220.6,362.6,244.8,419.3,312.1,459.6z"/>
<path class="st1" d="M475.3,459.6c-12.9-9.9-24.8-21-35.7-33.1c-1.4-1.6-3.1-3-5-4.2c-3.6-2.1-7.9-2.7-12-1.7
	c-1.1,0.3-2.2-0.4-2.4-1.5c0-0.2-0.1-0.3-0.1-0.5c0.5-7.9,0.4-15.8-0.5-23.7c-0.1-1.1,0.6-2,1.7-2.2c0.6-0.1,1.2,0.1,1.6,0.6
	c7.3,7.6,16.5,13,26.8,15.5c7.9,6.9,16.4,12.9,25.4,18.1c70.5-16.4,85.1-84.1,88.1-112.5c5.4,2.3,8.2,4.2,11.7,5.8
	C566.8,362.6,542.6,419.3,475.3,459.6z"/>
<path class="st1" d="M435.2,453.9c0-0.2,0-0.3,0-0.5c0-8.5-4.2-17-8.8-17c-4.1,0-12.4,5.4-17.3,8.8c-1.5,1-3.4-0.3-3.1-2.2
	c1.4-10.7,2-40.3-1.2-56.5c-1.6-8.5-3.8-16.8-6.5-25c-0.7-1.9-2.5-3.1-4.5-3.1l0,0v115.3c-2.3-0.2-4.5-0.6-6.7-1.3
	c-2.3-0.7-4.2-2.5-5-4.9c-4.6-11.7-20.8-15-26.5-15.8c-1.3-0.2-2.4-1.2-2.7-2.5c0-0.2-0.1-0.4-0.1-0.6c-0.6,3.3-0.6,6.7,0.1,10
	c0.3,1.3,1.4,2.3,2.7,2.5c5.7,0.8,21.9,4.1,26.5,15.8c0.8,2.3,2.7,4.1,5,4.9c4.3,1.7,9.1,1.7,13.5,0c2.4-0.7,4.2-2.5,5-4.9
	c4.6-11.7,20.8-15,26.5-15.8c1.3-0.2,2.4-1.2,2.7-2.5c0.2-0.7,0.3-1.5,0.4-2.2c0-0.2,0-0.4,0.1-0.6
	C435.1,455.1,435.2,454.5,435.2,453.9z"/>
<path class="st1" d="M366.3,355.8L366.3,355.8c-0.3-1.5-1-2.8-2.1-3.7c-31-26.5-66.5-30.2-83.6-30.2c4,7.1,10.1,8.3,10.1,8.3
	c25.1,2.8,48.8,13.3,67.8,30c0.3,0.3,0.7,0.6,1.2,0.8h0.1c0.4,0.2,0.8,0.3,1.2,0.3h0.1c0.4,0.1,0.8,0.1,1.2,0h0.1
	c0.4-0.1,0.7-0.2,1.1-0.3l0.2-0.1c0.3-0.2,0.6-0.3,0.9-0.6c0.1-0.1,0.2-0.1,0.2-0.2c0.3-0.2,0.5-0.5,0.7-0.8c0-0.1,0.1-0.1,0.2-0.2
	c0.2-0.3,0.4-0.7,0.5-1.1l0-0.1c0.1-0.4,0.2-0.9,0.2-1.4C366.4,356.4,366.3,356.1,366.3,355.8z"/>
<path class="st1" d="M421.2,355.8L421.2,355.8c0.3-1.5,1-2.8,2.1-3.7c31-26.5,66.5-30.2,83.6-30.2c-4,7.1-10.2,8.3-10.2,8.3
	c-25.1,2.8-48.8,13.3-67.8,30c-0.4,0.3-0.7,0.6-1.2,0.8h-0.1c-0.4,0.2-0.8,0.3-1.2,0.3h-0.1c-0.4,0.1-0.8,0.1-1.2,0H425
	c-0.4-0.1-0.7-0.2-1.1-0.3l-0.2-0.1c-0.3-0.2-0.6-0.3-0.9-0.6c-0.1-0.1-0.2-0.1-0.2-0.2c-0.3-0.2-0.5-0.5-0.7-0.8
	c0-0.1-0.1-0.1-0.2-0.2c-0.2-0.3-0.4-0.7-0.5-1.1l0-0.1c-0.1-0.4-0.2-0.9-0.2-1.4C421.1,356.4,421.1,356.1,421.2,355.8z"/>
<path class="st1" d="M318.9,124.3c4-4,8.8-7.2,14-9.4c-4.8-2.3-10.4-2.6-15.5-0.8c-6.1,2.2-11.7,5.7-16.3,10.3
	c-38.1,38-52.5,84.4-57.1,122.7c6.1-1.7,12.2-3.2,18.3-4.6C267.6,205,282.3,160.8,318.9,124.3z"/>
<path class="st1" d="M468.6,124.3c-4-4-8.8-7.2-14-9.4c4.8-2.3,10.4-2.6,15.5-0.9c6.1,2.2,11.7,5.7,16.3,10.3
	c38.1,38,52.5,84.4,57.1,122.7c-6.1-1.7-12.2-3.2-18.3-4.6C519.9,205.1,505.1,160.8,468.6,124.3z"/>
<path class="st1" d="M349.6,302.5c-17.2-12-64.7-38.7-121.4-18.8c-7.3,2.8-12.7,5.2-15.2,6.4c-0.5,0.2-1,0.5-1.5,0.7v15.6
	c0.5-0.3,1-0.5,1.5-0.7c2.5-1.2,7.9-3.7,15.2-6.4c56.7-20,104.2,6.8,121.4,18.8c2.3,1.8,4.6,3.6,7,5.2l-0.4-15.8
	C354,305.9,351.8,304.2,349.6,302.5z"/>
<path class="st1" d="M437.8,302.5c17.2-12,64.7-38.7,121.4-18.8c7.3,2.8,12.7,5.2,15.2,6.4c0.5,0.2,1,0.5,1.5,0.7v15.6
	c-0.5-0.3-1-0.5-1.5-0.7c-2.5-1.2-7.9-3.7-15.2-6.4c-56.7-20-104.2,6.8-121.4,18.8c-2.3,1.8-4.6,3.6-7,5.2l0.4-15.8
	C433.5,305.9,435.7,304.3,437.8,302.5z"/>
<path class="st1" d="M413.9,38.1L398.3,32c-1.4-0.6-3-0.9-4.5-0.9v307.2h6.3c7.8,0,14.2-6.2,14.4-14.1l7-274.9
	C421.6,44.5,418.6,39.9,413.9,38.1z"/>
<path class="st1" d="M283.2,486.3c-6.6,8-14.6,14.6-23.7,19.6c-4.1,6.2-9.2,11.8-14.9,16.6c-22.3,18.4-58.4,2.6-86.4,7.3
	c-16.3,21.4-10.7,35.8-10.7,35.8c27.1-32.2,81.1,3.9,110.8-20.6C269.6,535.6,286.8,515.2,283.2,486.3z"/>
<path class="st1" d="M159.6,491.3L159.6,491.3L159.6,491.3l0.2-0.1L159.6,491.3L159.6,491.3z"/>
<path class="st1" d="M504.3,486.3c6.6,8,14.6,14.6,23.7,19.6c4.1,6.2,9.2,11.8,14.9,16.6c22.3,18.4,58.4,2.6,86.4,7.3
	c16.3,21.4,10.7,35.8,10.7,35.8C613,533.4,559,569.4,529.3,545C517.8,535.6,500.6,515.2,504.3,486.3z"/>
<path class="st1" d="M627.8,491.3L627.8,491.3L627.8,491.3l-0.2-0.1L627.8,491.3L627.8,491.3z"/>
<path class="st0" d="M76.7,178.8l94.1,94.1l0.8,40.2L60.8,202.4v-18.1C66.1,182.4,71.4,180.6,76.7,178.8z"/>
<path class="st0" d="M726.6,202.4L615.9,313.1l0.8-40.2l94.1-94.1c5.3,1.8,10.6,3.6,15.9,5.4L726.6,202.4z"/>
</svg>
