<?xml version="1.0" encoding="utf-8"?>
<!-- Generator: Adobe Illustrator 26.0.2, SVG Export Plug-In . SVG Version: 6.00 Build 0)  -->
<svg version="1.1" id="Layer_1" xmlns="http://www.w3.org/2000/svg" xmlns:xlink="http://www.w3.org/1999/xlink" x="0px" y="0px"
	 width="1000px" height="1000px" viewBox="0 0 1000 1000" style="enable-background:new 0 0 1000 1000;" xml:space="preserve">
<style type="text/css">
	.st0{fill-rule:evenodd;clip-rule:evenodd;fill:#303C42;}
	.st1{fill-rule:evenodd;clip-rule:evenodd;fill:#FFFFFF;}
	.st2{fill:#DA1A32;}
	.st3{fill:#FFFFFF;}
</style>
<path class="st0" d="M931.5,51.1C647.9-17,352.1-17,68.5,51.1c0,0,0,315.1,0,358.7l0,0C68.9,649,237.9,880.1,500,1000
	c262.1-119.9,431.1-351,431.5-590.3C931.5,361.8,931.5,51.1,931.5,51.1z"/>
<path class="st1" d="M500,974.6C251.9,857.4,91.9,636.7,91.5,409.7V197.8c133.9-30.7,271.2-46.3,408.5-46.3s274.7,15.6,408.5,46.3
	v211.9C908.1,636.7,748.1,857.4,500,974.6z"/>
<g>
	<path class="st2" d="M439.7,785.2v-48.4h-8.1v-6.6c2.3-0.3,4.4-1.1,6.5-2.6s3.5-3.2,4.4-5.3h6.6v62.9L439.7,785.2L439.7,785.2z"/>
	<path class="st2" d="M493.7,770.9c0,4.2-1.5,7.7-4.4,10.6c-2.9,2.9-6.5,4.4-10.6,4.4h-0.8c-4.2,0-7.7-1.5-10.6-4.4
		s-4.4-6.5-4.4-10.6v-5.7c0-3.8,1.3-7.2,3.9-10.1c1.1-1.2,2.4-2.3,3.9-3.1c-2.5-1.3-4.5-3.5-5.9-6.5c-0.7-1.6-1.1-3.5-1.1-5.9v-3.4
		c0-4.1,1.2-7.5,3.6-10.1c2.7-3,6.2-4.5,10.6-4.5h0.8c4.4,0,8,1.5,10.7,4.5c2.4,2.7,3.6,6.1,3.6,10.1v3.4c0,3.9-1.2,7.2-3.5,9.7
		c-1,1.1-2.2,2-3.5,2.7c2.8,1.6,5,4,6.5,7.2c0.8,1.6,1.2,3.6,1.2,6L493.7,770.9L493.7,770.9z M484.5,738.8c-0.1-4.3-1.4-7-4.1-8.1
		c-0.6-0.3-1.3-0.4-2.2-0.4c-1.6,0-3,0.5-4,1.4c-0.8,0.7-1.4,1.7-1.8,2.8c-0.4,1.2-0.5,2.6-0.4,4.3c0.1,2.7,0.5,4.7,1.3,5.9
		c1,1.6,2.6,2.4,4.9,2.4s3.9-0.8,5-2.5C484.2,743.1,484.6,741.2,484.5,738.8z M484.2,766.4c0-3.7-0.9-6.2-2.6-7.5
		c-0.8-0.6-1.9-0.9-3.4-0.9c-2.5,0-4.2,1.1-5.1,3.2c-0.5,1.3-0.8,3-0.8,5.2v3c0,2.1,0.6,3.7,1.9,5c1.1,1.1,2.4,1.6,4,1.7
		c2.6-0.1,4.4-1.4,5.4-3.8c0.4-0.8,0.6-1.8,0.6-2.9V766.4L484.2,766.4z"/>
	<path class="st2" d="M527.1,722.3v9.5l-13.3,53.3h-9.3l13.3-53.3H502v-9.5H527.1z"/>
	<path class="st2" d="M548.3,776.2c4.3,0,6.5-2,6.5-6.1v-3.7c0-6.4-3.4-9.7-10.1-9.7v-8.1c3.6,0,6.3-1,8.1-3.1
		c1.6-1.8,2.4-4.4,2.4-7.7v-1.5c0-4.1-1.8-6.2-5.4-6.2c-2,0-3.5,0.8-4.4,2.3c-0.7,1.2-1.1,2.7-1.1,4.5v1.6H535V737
		c0-4.5,1.1-8.1,3.4-10.9c2.6-3.2,6.2-4.8,10.9-4.8c4.4,0,8,1.5,10.7,4.5c2.4,2.7,3.6,6.1,3.6,10.1v2.7c0,3.9-1.2,7.3-3.5,10.1
		c-1,1.2-2.2,2.2-3.5,3.1c2.8,1.6,5,4,6.5,7.2c0.8,1.6,1.2,3.6,1.2,6v5c0,4.6-1.6,8.5-4.8,11.4c-3,2.9-6.7,4.3-11,4.3
		c-4.2,0-7.7-1.5-10.6-4.4c-2.9-2.9-4.4-6.5-4.4-10.6v-1.6l9-0.7l0.2,2.2c0.1,1.6,0.7,2.9,1.7,3.9
		C545.4,775.7,546.7,776.2,548.3,776.2z"/>
</g>
<path class="st2" d="M558.9,339.3c0,0,15.7,30.6,54,40.1c34.6,9.2,54.5,0.1,54.5,0.1l18,21.9c0,0,1.4-6.9-0.4-10.2
	c-1.9-3.6-13.4-30.3-13.4-30.3l2.1-10.4c0,0-19.1-10-39.3-15.3c-29.1-7.6-45.5-9.3-45.5-9.3l6.8,9.9
	C595.7,335.9,578.9,335.6,558.9,339.3z"/>
<path class="st2" d="M197.6,502.4c-17.4-101.4,36-202.5,89-245.2c-66.8,26.6-92.8,70.9-128.3,147.9c0,0-1.6-163.6,164.4-216
	c-121.8,11.9-202.4,31.7-202.4,31.7v188.8c0.2,103.4,35.8,207.9,103,302.4c66.9,94.1,161.7,173.4,274.2,229.4l2.6,1.3l2.6-1.3
	c37.3-18.5,72.6-39.6,105.6-63C260.9,747,206.6,573.2,197.6,502.4z"/>
<path class="st2" d="M545.4,180.9C663,202.9,672.2,267,672.2,267s-0.4-19.3-4.9-35.8c52.9,41.4,38.5,84.4,38.5,84.4
	s29.4,19.5,36.5,29.1c7.8,10.5,4.9,28.3,4.9,28.3s-9.3-6.2-17.9-10.3s-19.5-7.1-19.5-7.1s23.3,22.8,47.5,42.3
	c24.1,19.6,31.7,34,31.7,34c-3.4,0.5-7.4,6.9-19.5,6.9c-10.5,0-24.4-5.7-27.8-5.7c-8.3,0-7.8,6-19.2,6c-11.5,0-13.7-12.9-19.1-9.2
	s1.6,23.3,28.5,26.9c20.2,2.7,23.8,13.2,23.8,17.1s-2.7,35.5-35.1,47.4c-43.8,16.1-73.7,8.2-73.7,8.2c-19.3,15.8-15,55.2-14.3,61.1
	c28.5-1.2,49-10.3,66.7-18.2c4-6.4,9.7-17.1,12.2-29c0,0,8.4,6.2,7.2,21l0,0c11.3-3.9,22.1-5.3,34.1-1.2c3.9-4.1,8.2-13.5,9.7-20.9
	c0,0,11.1,10.1,4.7,28.2c18.1,12.1,21.6,68.3-28.7,90.2c-2.2,1.1-3.6,1.5-3.6,1.5s7.4-12.2,8.2-22.9c0.7-10.7-4.6-13.3-4.6-13.3
	s-2,17.5-20.6,34.8c-16.9,15.7-41.5,19.3-41.5,19.3c-22.2-34.7-61.3-57.5-119.1-69.8c-17.1-81.9,53.4-159.5,53.4-159.5
	s-71.2,23.8-88.6,83.8c0,0-48.1-23.8-66.1-81.9c-20.1-64.8,20.4-104.6,20.4-104.6s-72.7,35.3-58.3,129.2
	c13.7,89.4,134.5,161.2,134.5,161.2c-92.7-36-202.4-98.3-233-174.4c-53.5-133.1,20.6-216.4,20.6-216.4S259,298.3,256,421.6
	c-5.4,225.8,366.9,315.2,482.1,339.6c13.8-15.9,26.7-32.3,38.7-49.2c67.2-94.5,102.8-199,103-302.3V220.9
	C879.7,220.9,737.4,185.9,545.4,180.9z M781.2,530.2c0,0-4.4-5.5-9.2-9.9c-4.8-4.3-12.7-8.9-12.7-8.9c9.2-15.5,12.5-26.4,13.3-36.1
	c0-10.8,6-10.7,14-16.4c10.8-7.8,10.4-18,10.4-18C816.5,471.8,792.7,512.7,781.2,530.2z"/>
<g>
	<path class="st3" d="M458.8,27.6c14.7-0.4,29.4-0.6,44.1-0.6c0,4.8,0,9.6,0,14.4c-5.6,0-11.2,0.1-16.8,0.1c0,26.8,0,53.6,0,80.3
		c-4.8,0.1-9.6,0.1-14.4,0.2c0-26.8,0-53.6,0-80.3c-5.6,0.1-11.2,0.2-16.8,0.4C456.2,37.2,457.5,32.4,458.8,27.6z M442.2,74
		c-0.6-0.5-6.6-5.4-7-5.7c-3.7-3.1-9.8-9-9.8-15.2c0-7.7,4-10.1,7.5-10.3c3.9-0.2,7.8-0.3,11.8-0.5c1.3-4.8,2.5-9.7,3.8-14.5
		c-5.6,0.2-11.3,0.4-16.9,0.6c-16.4,0.7-21.6,14-21.6,24.1c0,12.9,8.3,20.5,13.7,25.1c0.6,0.5,6.6,5.3,7,5.7c3.7,3.1,9.8,9,9.8,15.2
		c0,7.7-3.9,10-7.5,10.2c-5.3,0.2-10.7,0.5-16,0.7c-1.3,4.9-2.6,9.7-3.8,14.6c7-0.4,14.1-0.7,21.1-1c16.4-0.7,21.6-13.6,21.6-23.8
		C456,86.4,447.6,78.6,442.2,74z M231.8,54.7c4.4,3.7,6.6,8.7,6.6,15c0,17.2,0,34.5,0,51.7c0,6.3-2.2,12-6.6,17.1
		c-4.4,5.1-9.8,8.2-16,9.2c-6.3,1.1-11.6-0.2-16-3.9s-6.5-8.6-6.5-14.8c0-17.2,0-34.5,0-51.7c0-6.3,2.2-12.1,6.6-17.3
		c4.4-5.2,9.7-8.3,15.9-9.4C222,49.7,227.4,51,231.8,54.7z M223.5,71.8c0-2.3-0.8-4.1-2.4-5.4c-1.6-1.3-3.5-1.8-5.8-1.4
		s-4.2,1.5-5.8,3.4s-2.4,3.9-2.4,6.2c0,17.3,0,34.6,0,51.9c0,2.3,0.8,4.1,2.4,5.4c1.6,1.3,3.5,1.8,5.8,1.4c2.3-0.4,4.2-1.5,5.8-3.4
		c1.6-1.9,2.4-3.9,2.4-6.2C223.5,106.4,223.5,89.1,223.5,71.8z M332.7,35.1c-6.3,0.6-11.6,3.4-16.1,8.3c-4.4,4.9-6.7,10.5-6.7,16.8
		c0,17.2,0,34.5,0,51.7c0,6.3,2.2,11.3,6.6,15.3c4.4,3.9,9.8,5.6,16.1,4.9c6.2-0.6,11.6-3.3,16-8.1c4.5-4.8,6.7-10.3,6.7-16.6
		c0-3.1,0-6.2,0-9.3c-5,0.4-9.9,0.9-14.9,1.4c0,3,0,6.1,0,9.1c0,2.3-0.8,4.3-2.4,6s-3.6,2.7-5.8,3c-2.3,0.2-4.2-0.4-5.8-1.8
		c-1.6-1.4-2.4-3.3-2.4-5.5c0-17.3,0-34.6,0-51.9c0-2.3,0.8-4.3,2.4-6.1s3.5-2.8,5.8-3s4.2,0.4,5.8,1.8c1.6,1.5,2.4,3.3,2.4,5.6
		c0,2.4,0,4.8,0,7.2c5-0.5,9.9-0.9,14.9-1.4c0-2.3,0-4.6,0-6.9c0-6.2-2.2-11.4-6.6-15.4C344.4,36.2,339.1,34.5,332.7,35.1z
		 M281.9,115.2c0,2.3-0.8,4.3-2.4,6.1s-3.5,2.8-5.8,3.2c-2.3,0.3-4.2-0.2-5.8-1.6c-1.6-1.4-2.4-3.2-2.4-5.4c0-24.4,0-48.8,0-73.1
		c-4.7,0.7-9.3,1.3-14,2c0,24.4,0,48.9,0,73.3c0,6.3,2.2,11.2,6.6,15c4.4,3.8,9.7,5.2,16,4.3c6.3-0.8,11.6-3.7,16-8.6
		c4.4-4.9,6.7-10.5,6.7-16.9c0-24.4,0-48.9,0-73.3c-5,0.6-9.9,1.2-14.9,1.9C281.9,66.4,281.9,90.8,281.9,115.2z M722.5,114.2
		c0,2.3-0.8,4.1-2.4,5.5c-1.6,1.4-3.5,1.9-5.8,1.7c-2.3-0.3-4.2-1.3-5.8-3.1c-1.6-1.8-2.4-3.8-2.4-6.1c0-24.4,0-48.8,0-73.1
		c-4.7-0.5-9.3-1.1-14-1.6c0,24.4,0,48.9,0,73.3c0,6.3,2.2,11.8,6.6,16.7c4.4,4.9,9.8,7.7,16.1,8.4c6.3,0.8,11.6-0.7,16.1-4.5
		c4.4-3.8,6.7-8.8,6.7-15.2c0-24.4,0-48.9,0-73.3c-5-0.7-9.9-1.3-14.9-1.9C722.5,65.4,722.5,89.8,722.5,114.2z M122.6,69.3
		c-6.2,1.4-11.3,4.8-15.7,10.2c-4.4,5.4-6.6,11.3-6.6,17.6c0,17.2,0,34.5,0,51.7c0,6.2,2.2,11,6.5,14.4c4.4,3.4,9.5,4.4,15.8,3
		c6.1-1.4,11.1-4.7,15.4-10c4.4-5.3,6.6-11.1,6.6-17.4c0-11.3,0-22.5,0-33.8c-6,1.3-12.1,2.6-18.1,3.9c-1.3,5.1-2.5,10.1-3.8,15.2
		c2.6-0.6,5.2-1.2,7.9-1.8c0,6.4,0,12.9,0,19.3c0,2.3-0.8,4.4-2.4,6.3c-1.6,1.9-3.9,3.2-6.1,3.7s-4.1,0.1-5.7-1.1
		c-1.6-1.2-2.4-3-2.4-5.2c0-17.3,0-34.6,0-51.9c0-2.3,0.8-4.4,2.4-6.4s3.5-3.2,5.7-3.7s4.3-0.2,5.9,1.1c1.6,1.3,2.4,3,2.4,5.3
		c0,2.4,0,4.8,0,7.2c4.7-1,9.5-2.1,14.2-3.1c0-2.3,0-4.6,0-6.9c0-6.2-2.2-11.1-6.5-14.6C133.8,69,128.8,67.9,122.6,69.3z
		 M401.2,44.5c1.3-4.9,2.5-9.7,3.8-14.6c-12.8,0.7-25.6,1.6-38.5,2.7c0,31.6,0,63.1,0,94.7c11.5-0.9,23.1-1.7,34.6-2.4
		c1.3-4.9,2.5-9.7,3.8-14.6c-8,0.5-16.1,1-24.1,1.6c0-8.6,0-17.2,0-25.8c6.4-0.5,12.7-0.9,19.1-1.3c0-4.8,0-9.6,0-14.3
		c-6.4,0.4-12.7,0.8-19.1,1.3c0-8.6,0-17.2,0-25.8C387.7,45.3,394.4,44.9,401.2,44.5z M546.9,41.8c1.3-4.8,2.5-9.5,3.8-14.3
		C537.8,27.2,525,27,512.2,27c0,31.6,0,63.1,0,94.7c11.6,0,23.1,0.2,34.7,0.5c1.3-4.8,2.6-9.5,3.8-14.3c-8-0.2-16.1-0.4-24.1-0.5
		c0-8.6,0-17.2,0-25.8c6.4,0.1,12.7,0.2,19.1,0.3c0-4.8,0-9.6,0-14.3c-6.4-0.1-12.7-0.3-19.1-0.3c0-8.6,0-17.2,0-25.8
		C533.3,41.5,540.1,41.6,546.9,41.8z M598.9,78c3.5,15.5,7.1,31.1,10.6,46.7c-5.2-0.3-10.4-0.6-15.5-0.9
		c-3.3-13.6-6.5-27.1-9.8-40.7c-2.8-0.1-5.7-0.2-8.5-0.4c0,13.4,0,26.8,0,40.2c-4.8-0.2-9.6-0.4-14.4-0.5c0-31.6,0-63.2,0-94.8
		c7.6,0.2,15.1,0.5,22.7,0.9c8,0.4,13.9,2.9,17.7,7.5c3.3,4,4.9,9.5,4.9,16.3c0,3,0,6,0,9.1C606.6,68.2,604,73.7,598.9,78z
		 M592.6,51.9c0-5.5-2.7-8.4-8.2-8.6c-2.9-0.1-5.8-0.3-8.7-0.4c0,8.5,0,17.1,0,25.6c2.9,0.1,5.8,0.2,8.7,0.4
		c2.3,0.1,4.2-0.6,5.8-2.1s2.4-3.4,2.4-5.7C592.6,58,592.6,54.9,592.6,51.9z M671.6,83.5c3.5,15.7,7.1,31.4,10.6,47.1
		c-5.2-0.5-10.3-1-15.5-1.5c-3.3-13.7-6.5-27.4-9.8-41.1c-2.8-0.2-5.7-0.5-8.5-0.7c0,13.4,0,26.8,0,40.2c-4.8-0.4-9.6-0.8-14.4-1.1
		c0-31.6,0-63.2,0-94.8c7.5,0.6,15.1,1.2,22.6,1.8c8,0.7,13.9,3.5,17.6,8.2c3.3,4.2,4.9,9.7,4.9,16.5c0,3,0,6,0,9.1
		C679.3,73.9,676.7,79.3,671.6,83.5z M665.3,57c0-5.5-2.7-8.5-8.2-9c-2.9-0.3-5.8-0.5-8.7-0.7c0,8.5,0,17.1,0,25.6
		c2.9,0.2,5.8,0.5,8.7,0.7c2.3,0.2,4.2-0.4,5.8-1.9s2.4-3.3,2.4-5.6C665.3,63.1,665.3,60.1,665.3,57z M856.2,124.7
		c0.4,2,0.5,4.3,0.5,6.7c0,6-1.1,10.9-3.4,14.6c-1.8,2.9-4.2,5.1-7.5,6.4c-3.6,1.5-7.2,1.9-10.8,1.2c-8.6-1.7-17.2-3.3-25.9-4.8
		c0-31.7,0-63.5,0-95.2c6.9,1.2,13.9,2.5,20.8,3.8c5.6,1.1,10.7,3.6,15.2,7.4c3.9,3.3,6.6,7.8,8.3,13.4c0.9,3,1.4,6.5,1.4,10.4
		c0,6.4-1.7,11.1-5,14.3c-1.4,1.3-3.1,2.2-5,2.7c3.2,1.8,5.9,4.8,8.1,8.8C854.4,117.4,855.5,120.7,856.2,124.7z M823.7,95.2
		c2.3,0.4,4.6,0.9,6.9,1.3c4.4,0.8,7.4-0.8,8.9-4.8c0.6-1.5,0.8-3.5,0.8-5.8c0-3.9-1-7.1-2.9-9.5c-1.8-2.2-4-3.6-6.9-4.1
		c-2.3-0.4-4.6-0.9-6.9-1.3C823.7,79,823.7,87.1,823.7,95.2z M841.6,127.3c0-5.3-1.6-9.5-3.6-12.3c-1.8-2.6-3.9-4.1-7.4-4.8
		c-2.3-0.4-4.6-0.9-6.9-1.3c0,9.5,0,18.9,0,28.4c2.3,0.4,4.6,0.9,6.9,1.3c4.8,0.9,8.2-0.9,10-5.6
		C841.3,131.5,841.6,129.6,841.6,127.3z M896.2,71.4c-3.5,10.6-7,21.2-10.4,31.8c-3.5-12.2-7-24.3-10.5-36.5
		c-5.2-1.1-10.4-2.2-15.6-3.3c6.3,19.8,12.7,39.6,19,59.4c0,13.3,0,26.6,0,39.9c4.7,1,9.5,2.1,14.2,3.2c0-13.3,0-26.6,0-39.9
		c6.4-17,12.7-34,19-50.9C906.6,73.8,901.4,72.6,896.2,71.4z M171.3,139.8c0-26.8,0-53.6,0-80.4c-4.7,0.9-9.5,1.9-14.2,2.8
		c0,31.6,0,63.1,0,94.7c10.2-2.1,20.3-4.1,30.5-6c-1.3-4.5-2.5-9.1-3.8-13.6C179.7,138.2,175.5,139,171.3,139.8z"/>
	<path class="st3" d="M773.8,47.2c-6.2-1-11.5,0.5-15.9,4.2c-4.4,3.8-6.7,8.8-6.7,15.1c0,17.2,0,34.5,0,51.7
		c0,6.2,2.2,11.8,6.6,16.9c4.4,5.1,9.6,8.1,15.9,9.1c6.2,1,11.1-0.4,15.6-4.1c4.4-3.7,6.6-8.6,6.6-14.9c0-11.3,0-22.5,0-33.8
		c-6.1-1-12.2-2-18.2-3c-1.3,4.6-2.5,9.2-3.8,13.7c2.7,0.4,5.3,0.8,7.9,1.3c0,6.4,0,12.9,0,19.3c0,2.3-0.8,4.1-2.4,5.4
		c-1.6,1.3-3.9,1.8-6.2,1.4c-2.3-0.4-4.2-1.4-5.8-3.3c-1.6-1.8-2.4-3.9-2.4-6.1c0-17.3,0-34.6,0-51.9c0-2.3,0.8-4.1,2.4-5.5
		c1.6-1.4,3.5-1.9,5.8-1.5s4.3,1.5,5.9,3.4c1.6,1.9,2.4,3.9,2.4,6.2c0,2.4,0,4.8,0,7.2c4.8,0.8,9.5,1.6,14.3,2.4c0-2.3,0-4.6,0-6.9
		c0-6.2-2.2-12-6.6-17.1C785.1,51.2,780.1,48.2,773.8,47.2z"/>
</g>
</svg>
