<?xml version="1.0" encoding="utf-8"?>
<!-- Generator: Adobe Illustrator 26.0.2, SVG Export Plug-In . SVG Version: 6.00 Build 0)  -->
<svg version="1.1"
	 id="svg2" xmlns:cc="http://creativecommons.org/ns#" xmlns:dc="http://purl.org/dc/elements/1.1/" xmlns:inkscape="http://www.inkscape.org/namespaces/inkscape" xmlns:rdf="http://www.w3.org/1999/02/22-rdf-syntax-ns#" xmlns:sodipodi="http://sodipodi.sourceforge.net/DTD/sodipodi-0.dtd" xmlns:svg="http://www.w3.org/2000/svg"
	 xmlns="http://www.w3.org/2000/svg" xmlns:xlink="http://www.w3.org/1999/xlink" x="0px" y="0px" width="677.2px" height="800px"
	 viewBox="0 0 677.2 800" style="enable-background:new 0 0 677.2 800;" xml:space="preserve">
<style type="text/css">
	.st0{fill-rule:evenodd;clip-rule:evenodd;fill:url(#path5728_00000103264500822100610530000008042938556951410561_);}
	.st1{fill-rule:evenodd;clip-rule:evenodd;fill:#FFFFFF;}
	.st2{fill-rule:evenodd;clip-rule:evenodd;fill:url(#path5726_00000010303766720531593260000001325348700220093063_);}
	.st3{fill-rule:evenodd;clip-rule:evenodd;fill:#D01A27;}
	.st4{fill-rule:evenodd;clip-rule:evenodd;fill:#09519A;}
	.st5{fill:#FFFFFF;}
	.st6{fill:#CF1827;}
</style>
<sodipodi:namedview  bordercolor="#666666" borderopacity="1" gridtolerance="10" guidetolerance="10" id="namedview4" inkscape:current-layer="g10" inkscape:cx="977.73619" inkscape:cy="481.18625" inkscape:pageopacity="0" inkscape:pageshadow="2" inkscape:window-height="691" inkscape:window-maximized="1" inkscape:window-width="1280" inkscape:window-x="0" inkscape:window-y="1" inkscape:zoom="0.2387114" objecttolerance="10" pagecolor="#ffffff" showgrid="false" showguides="true">
	</sodipodi:namedview>
<g id="g10" transform="matrix(1.25,0,0,-1.25,0,799.99995)" inkscape:groupmode="layer" inkscape:label="infrastructure_france">
	<g id="g6230" transform="matrix(1.0436546,0,0,1.0436546,-125.66046,-130.8329)">
		<g id="g6222">
			
				<linearGradient id="path5728_00000066478635225476460760000001536539264488382851_" gradientUnits="userSpaceOnUse" x1="217.3564" y1="463.185" x2="740.1635" y2="459.8336" gradientTransform="matrix(1.3046 0 0 1.3046 -164.7798 -170.6072)">
				<stop  offset="0" style="stop-color:#09519A"/>
				<stop  offset="1" style="stop-color:#09519A"/>
			</linearGradient>
			
				<path id="path5728" inkscape:connector-curvature="0" style="fill-rule:evenodd;clip-rule:evenodd;fill:url(#path5728_00000066478635225476460760000001536539264488382851_);" d="
				M380,738.6c-86.3-33.4-130.6-46.2-250.1-50.7c-4.8-76-10.9-142.8-9.1-219.9c3-114.8,41.5-165.7,85.8-221.4
				c26.6-33.5,62-62.2,94.2-82.6c36.2-22.9,53.1-28.9,79.3-38.7c26.2,9.8,43.1,15.8,79.3,38.7c32.2,20.4,67.5,49.1,94.2,82.6
				c44.2,55.6,82.8,106.6,85.8,221.4c1.9,77.1-4.2,144-9.1,219.9C510.6,692.4,466.2,705.2,380,738.6L380,738.6z"/>
			<path id="path5718" inkscape:connector-curvature="0" class="st1" d="M380,730.6c-86.3-33.4-122.6-46.2-242.1-50.7
				c-4.8-76-10.9-125.2-9.1-202.3c2.2-115.6,35.7-166.4,81.3-221.4c27.6-33.3,58.4-62.2,90.6-82.6c36.2-22.9,53.1-28.9,79.3-38.7
				c26.2,9.8,43.1,15.8,79.3,38.7c32.2,20.4,63,49.3,90.6,82.6c45.7,55,79.2,105.8,81.3,221.4c1.9,77.1-4.2,126.4-9.1,202.3
				C502.6,684.4,466.2,697.2,380,730.6L380,730.6z"/>
			
				<linearGradient id="path5726_00000161632376772968060930000008621267810546333586_" gradientUnits="userSpaceOnUse" x1="242.8339" y1="464.4617" x2="700.29" y2="457.759" gradientTransform="matrix(1.3046 0 0 1.3046 -164.7798 -170.6072)">
				<stop  offset="0" style="stop-color:#13519A"/>
				<stop  offset="0.4908" style="stop-color:#03417D"/>
				<stop  offset="1" style="stop-color:#0B1E43"/>
			</linearGradient>
			
				<path id="path5726" inkscape:connector-curvature="0" style="fill-rule:evenodd;clip-rule:evenodd;fill:url(#path5726_00000161632376772968060930000008621267810546333586_);" d="
				M380,709.8c-86.3-33.4-103.4-41.4-222.9-45.9c-4.8-76-10.9-104.4-9.1-181.5c1.1-59.6,7.6-95.1,19-126
				c10.7-29,25.8-54.3,47.9-80.9c27.6-33.3,51-58.7,85.8-82.6c35.3-24.2,53.1-28.9,79.3-38.7c26.2,9.8,44,14.4,79.3,38.7
				c34.8,23.9,58.2,49.3,85.8,82.6c22.1,26.6,37.1,51.9,47.9,80.9c11.4,30.9,17.9,66.5,19,126c1.9,77.1-4.2,105.6-9.1,181.5
				C483.4,668.4,466.2,676.4,380,709.8z"/>
		</g>
		<g id="g6165">
			<g id="g5843">
				<g id="g5838">
					<path id="path5722" inkscape:connector-curvature="0" class="st1" d="M311.7,243.8v-24.2l68.2-44.1l68.2,44.1v24.2L380,217.3
						L311.7,243.8z"/>
					<path id="path5720" inkscape:connector-curvature="0" class="st3" d="M313.9,241.2v-10.1l66.1-33.4l66.1,33.4v10.1l-66.1-26
						L313.9,241.2L313.9,241.2z"/>
					<path id="path5724" inkscape:connector-curvature="0" class="st4" d="M313.9,229.3v-8.6l66.1-42.2l66.1,42.2v8.6L380,195.6
						L313.9,229.3L313.9,229.3z"/>
				</g>
				<path id="path1276" inkscape:connector-curvature="0" sodipodi:nodetypes="ccccccccccccccccccccccccccc" class="st5" d="
					M380,684.7c-3.4-5.4-5.1-5.5-12.4-7c-1.4-0.3-2.9-0.5-4.3-0.9c-2.6-0.6-5-1.3-7.1-3c-1.1-0.9-1.9-2-2.3-3.2
					c-0.6-1.7-0.6-3.6,0-5.2c1-2.9,3.7-4.9,6.7-5.8c2-0.6,4-0.9,6.1-0.7c2.6,0.3,4.2,0.6,9,3.8c0,0,0.2-0.2,0.2-0.2
					c-2.2-3.8-5.3-6.1-9-7.2c-0.2-0.1-0.3-0.3-0.2-0.6v0h26.8l0,0c0.1,0.3,0,0.5-0.2,0.6c-3.7,1.1-6.8,3.4-9,7.2
					c0,0,0.1,0.2,0.2,0.2c4.8-3.2,6.4-3.5,9-3.8c2-0.3,4.1,0.1,6.1,0.7c3,0.9,5.7,2.9,6.7,5.8c0.6,1.7,0.6,3.5,0,5.2
					c-0.5,1.2-1.2,2.3-2.3,3.2c-2.1,1.7-4.5,2.4-7.1,3c-1.5,0.3-2.9,0.6-4.3,0.9l0,0C385,679.1,383.4,679.3,380,684.7L380,684.7z"/>
				<g id="g5761" transform="translate(-1081.341,-149.57564)">
					
						<path id="path5740" inkscape:connector-curvature="0" sodipodi:nodetypes="scssssssssssssccccsscsssscscscsssscssscssscccscssscccscssssscscscsscsssccsscsccsssccccscccccccccscsccsccsscsssscssssscssssss" class="st6" d="
						M1381,536.1c2.9,1.7,7.2,5.5,7.2,6.3c0,0.2-3.7,0.4-8.3,0.4c-7.8-0.1-8.5-0.2-10.8-2.2c-1.4-1.2-4-2.5-5.8-3
						c-5.8-1.6-2.1-2.8,8.9-3C1377,534.4,1378.7,534.8,1381,536.1L1381,536.1z M1349.8,538.1c6.2,1.9,11.1,4.3,11.1,5.6
						c0,1.4-9.9,6.4-15.8,7.9c-2.5,0.7-8.8,1.7-13.9,2.4c-11.3,1.4-15.8,2.5-21.1,4.9c-6,2.8-9.2,5.8-16.9,16
						c-3.8,5.1-8.2,10.2-9.6,11.3c-3.6,2.8-4.6,6.7-4.6,17.9c0,9.9,1.7,18.3,5.4,28.4c1.1,3,1.9,5.7,1.7,5.9
						c-0.8,0.8-9.3-4-11.6-6.7c-3-3.4-7.4-12-9.2-17.9c-3.4-11.6,0-19,11.8-25.7c3.5-2,4.4-2.9,5.2-5.8c5-16.8,20.9-34.4,37.5-41.5
						C1329.1,536.8,1341.7,535.7,1349.8,538.1L1349.8,538.1z M1395.5,550.3c6.2,2.4,11.3,7.1,14.3,13.3c2.7,5.6,2.7,7.2-0.1,13.7
						c-1.4,3.2-1.5,4.7-1,16.7c0.6,14.6,0,18.8-3.4,22.4c-1.1,1.2-3,2.6-4.2,3.3c-3.2,1.6-10.1,2.5-10.9,1.3
						c-0.3-0.5,0.9-3.7,2.6-7.1c4.3-8.2,6-15,6-23.4c0-11-4-19-12.1-24.8c-7.2-5.1-11.9-6.5-23.3-7c-5.5-0.2-10.3-0.7-10.7-1
						c-1.4-1.3,11.9-7,20.4-8.8C1379,547.6,1390.4,548.3,1395.5,550.3L1395.5,550.3z M1336.2,562.6c1.1,0.6,2.1,1.5,2.2,2.2
						c0.1,0.7-2.6,3.3-6.3,6c-7.9,5.8-19.4,17-23,22.2c-10,14.9-11.8,26.8-6.9,46c1.5,5.8,2.4,10.8,2,11c-0.4,0.2-2.3-0.9-4.3-2.6
						c-7.3-6.1-14.8-27.1-14.8-41.3c0-14.2,5.9-23.8,18.5-30.1c3.9-1.9,5.9-3.4,6.1-4.5c0.8-4.2,7.1-8,15.5-9.2
						C1331.6,561.5,1334,561.5,1336.2,562.6L1336.2,562.6z M1364.6,567.3c11.1,1.6,20.8,8,25,16.6c2,4.1,2.2,5.3,2.2,13.7
						c0,7.3-0.3,9.8-1.4,11.8c-2.5,4.6-3.2,3.3-4.2-8.2c-0.9-9.7-2-11.1-12.4-14.4c-2.4-0.8-8.3-3-13-4.9c-6.7-2.8-9.6-3.5-13.2-3.5
						c-7.8,0-11.1,2.1-26.5,16.2c-6.6,6.1-7.7,5.2-3.7-3.1c5.6-11.6,17.6-21,30-23.5c2.4-0.5,5.1-1,6-1.2
						C1356.2,566.4,1358.9,566.4,1364.6,567.3L1364.6,567.3z M1418.3,578.6c0.7,1.4,1.5,5,1.7,8c0.4,5,0.2,5.7-2.2,9.3
						c-4.6,7.2-4.8,7-4.3-4c0.5-10.3,1.4-15.9,2.7-15.9C1416.6,576,1417.5,577.2,1418.3,578.6z M1354.9,584.1c1.1,0.5,2,1.3,2,1.9
						s-2.6,2.3-5.8,3.9c-12.3,6.2-21.7,15.2-23.8,22.6c-0.9,3.2-0.8,3.7,1.1,7c1.1,2,4.2,5.5,6.9,7.9s4.8,4.8,4.8,5.3
						c0,1.3,0.1,1.3-6.6-1.7c-3.5-1.6-8.2-4.7-11.7-7.7l-5.9-5.1l0.5-4.9c0.7-6.3,2.2-9.3,7.4-15c5.3-5.7,13.4-11.2,19.8-13.4
						C1349.3,583,1352.1,582.8,1354.9,584.1L1354.9,584.1z M1381.6,607.2c0.2,5.5-0.1,8.6-0.7,9.4c-3,3.6-18.7,10.7-23.6,10.6
						l-3.1,0l2.8-2.1c5.3-4.1,10.2-9.6,12.4-14.1c2-4.2,2.2-5.1,1.7-10.4c-0.3-3.2-0.3-6.1,0-6.4c0.3-0.3,2.7,0.7,5.4,2.2l4.9,2.7
						L1381.6,607.2L1381.6,607.2z M1363.5,596.1c2.2,1.1,3.1,2.1,2.9,3c-0.2,1.1-1.2,1.4-5.1,1.4c-2.6,0-5.2,0.1-5.8,0.2
						c-0.5,0.1-3.1,3.3-5.7,7.1c-5.2,7.7-9.1,11.9-10.4,11c-1.1-0.7-1.1-6.3,0-10.4c1.1-3.9,8.8-12.2,12.3-13.2
						C1355.9,594.1,1360.1,594.3,1363.5,596.1L1363.5,596.1z M1361.9,609.3c1.8,1.6,1.9,3.6,0.2,6.7c-1.5,2.9-2.2,3-3.4,0.4
						c-0.5-1.1-1.2-2-1.6-2s-2.4,1.8-4.4,4c-2.7,2.8-4.4,4-5.9,4c-2.4,0-2.7,0.7,4-7.6c2.1-2.6,4.5-5.3,5.2-5.8
						C1357.8,607.6,1360.2,607.8,1361.9,609.3z M1312.6,617.8c3.4,7.6,8.8,15.5,12.4,18.1c4.1,2.9,9.6,4.2,14.4,3.3
						c4.5-0.9,4.6-0.9,17-6.1c10.3-4.3,22.6-8.1,23.5-7.2c0.8,0.8-1.1,5.3-3.4,8c-3.4,4-10.1,8.9-17.7,12.8
						c-19,9.7-32.1,11.1-38.8,4c-2.4-2.6-9.9-15.9-11.6-20.6c-2-5.5-1.1-17.2,1.2-17.2C1310,612.8,1311.4,615.1,1312.6,617.8
						L1312.6,617.8z"/>
					
						<path id="path5757" inkscape:connector-curvature="0" sodipodi:nodetypes="ssssscssscsssssscsssssssscccssccsccssssscsccsccsssscssscccscccscscscscsssscsscscccssscscssccsssscccsccsccscsssssssssc" class="st6" d="
						M1594.2,533.2c18.8,4.8,35.3,19.5,44.5,39.4c5.4,11.7,1.5,10.6-9.4-2.7c-13.4-16.3-17.7-18.6-37.9-20.3
						c-5.5-0.5-12.7-1.5-16.1-2.4c-7.1-1.7-16.2-6.1-15.7-7.5c0.5-1.7,5.5-4.5,10.5-6.1C1576.2,531.7,1587.5,531.5,1594.2,533.2
						L1594.2,533.2z M1551.2,546.1c12.1,2.5,22.6,8.3,15.2,8.4c-1.4,0-6.3,0.3-10.7,0.7c-6.9,0.6-9,1.1-14.1,3.5
						c-7.4,3.5-13.2,9.6-15.8,16.3c-4.1,10.7-1.3,27.3,6.8,39.1c1.2,1.7,2.1,3.3,2.1,3.6c0,1.1-4,1.5-8,0.7c-5.2-1-8.4-3.2-10.6-7.5
						c-1.6-3-1.8-5-2.2-18.5c-0.4-13.4-0.7-15.6-2.2-18.8c-2.3-4.7-2.2-8,0.2-12.8C1518.6,547.4,1532.4,542.2,1551.2,546.1
						L1551.2,546.1z M1643.3,554c4.4,2.3,8.4,8.4,12.4,19.3c2.1,5.7,2.5,7.6,1.3,7.6c-0.4,0-3.5-1.7-7-3.8l-6.2-3.8l-2.6-7.1
						c-1.4-3.9-3.2-7.7-3.8-8.4c-1.3-1.4-1.6-3.4-0.7-4.3C1637.6,552.4,1641,552.8,1643.3,554L1643.3,554z M1604.3,558.8
						c3.9,1.4,7.6,4.6,8,7.2c0.2,1,1.9,2.2,5.2,3.6c9.8,4,15.2,9.3,18.8,18.3c2.5,6.2,2.5,20.8,0.1,29.7
						c-3.3,12.1-6.6,19.2-10.7,23.3c-6.3,6.3-6.7,5.4-3.4-8.4c3.3-14.3,2.5-24-3-35.5c-4.8-10.2-16-21.6-30.9-31.8
						c-3.2-2.2-5.8-4.4-5.8-5s0.8-1.6,1.8-2.3c1.5-1.1,3.1-1.2,9-0.9C1597.3,557.3,1602.2,558.1,1604.3,558.8L1604.3,558.8z
						 M1575,563.6c13,2.7,25.2,11.9,30.6,22.9c2.8,5.8,3.1,7.1,1.6,7c-1,0-3.6-2.1-14.3-11.1c-10-8.5-17.5-10.2-27.1-6.1
						c-2.8,1.2-9.5,4-14.8,6.1c-13.1,5.4-13.2,5.5-14,17.1c-0.4,5.1-0.8,9.6-1.1,9.8c-1,1-3-1.9-4.2-6.1c-1.9-6.4-1.7-15.4,0.5-21.1
						C1537.7,567.6,1556.1,559.6,1575,563.6L1575,563.6z M1509.5,576.1c1.5,3.2,2.7,7.2,2.7,8.8c0,3.7-1.5,11.2-2.5,12.2
						c-0.9,1-2.9-1.4-6.3-7.9c-2.2-4.1-2.5-5.3-2.1-8.8c0.6-5.3,3.5-12.3,4.7-11.1C1506.4,569.9,1508,572.9,1509.5,576.1z
						 M1585.4,583.2c7.3,3.6,16.1,11.1,19.2,16.4c1.3,2.2,2.2,5.2,2.5,8.5l0.5,5.1l-6.2,5.4c-6.5,5.7-15,10.6-17,9.8
						c-0.9-0.3,0.4-2.2,4.9-6.9c3.3-3.6,6.3-7.4,6.6-8.4c2-8.2-6.5-18-22.7-26.1c-4.5-2.3-8.2-4.5-8.2-5c0-1,2.7-2.6,5.2-3
						C1573.3,578.5,1579.1,580,1585.4,583.2L1585.4,583.2z M1647.3,581.7c12.4,7.4,14.3,18.7,6.2,36.1c-1.5,3.2-3.9,6.9-5.4,8.3
						c-2.8,2.6-8.8,6.1-9.4,5.5c-0.2-0.2,0.9-3.3,2.5-7c4.4-10.4,5.6-15.9,5.6-25.8c0-8.1-0.6-11.7-3-17.4
						C1643,579.6,1643.8,579.6,1647.3,581.7L1647.3,581.7z M1569.9,590.8c7.4,1.2,15,11,15,19.4c0,7-2.8,5.5-11.4-5.9l-5.7-7.6
						l-5.4,0.5c-5.6,0.5-6.7,0-5.9-2.5c0.6-1.8,6.7-4.9,8.8-4.5C1566.3,590.2,1568.3,590.5,1569.9,590.8L1569.9,590.8z
						 M1552.4,591.4c0.2,0.5,0,2.2-0.4,3.7c-0.9,3.3-0.3,8,1.5,11.5c1.7,3.3,8.7,10.6,12.9,13.5c7.9,5.4-2.6,4.4-14.7-1.4
						c-10.9-5.2-10.9-5.3-10.6-15l0.2-8.1l4.4-2.6C1550.5,590.2,1551.9,589.9,1552.4,591.4L1552.4,591.4z M1571.6,609.1
						c7.6,8.1,8.5,10.1,4.2,9c-1.1-0.3-3.6-2.2-5.6-4.2c-3.5-3.7-5.3-4-5.3-1c0,3-2.9,1.8-4.4-1.8c-1.3-3.3-1.3-3.3,0.9-5.6
						C1564.4,602.4,1565.9,603,1571.6,609.1L1571.6,609.1z M1616.2,611.3c1.6,6.9,0.8,11.4-4.4,22.4c-2.6,5.5-5.4,10.7-6.2,11.7
						c-0.9,1-3.4,2.5-5.7,3.5c-7.8,3.4-20.2,1-36.2-7c-12.1-6-19.6-12.9-19.6-17.8c0-1.7,0.2-1.8,3.8-1.2c3.9,0.6,10,2.5,26.6,8.4
						c9.7,3.4,14,3.9,19.4,2.3c6.1-1.8,12.2-9.8,17.7-23.2C1613.4,606,1615,606.4,1616.2,611.3z"/>
					
						<path id="path5759" inkscape:connector-curvature="0" sodipodi:nodetypes="scsssssssssssssssssscsssscsssssssssscsscscssscsscsscssssssssscssssssssscccssccscsscscsssccssssccsscssccsscsscsscscsccsss" class="st6" d="
						M1478,433.6c4.3,2.1,13.1,9.1,12,9.4c-0.5,0.2-3.9-0.6-7.6-1.7c-11.1-3.2-20.7-3.4-36.7-0.8c-3.2,0.5-3.5,0.5-2.5-0.7
						c2.5-3,23.2-8.9,28.8-8.2C1473.5,431.8,1476.2,432.7,1478,433.6L1478,433.6z M1471.5,445.2c8.7,1.3,15.5,3.4,22.6,7
						c6.2,3.1,11.7,6.9,11.7,8c0,1.5-6.9,0.2-18-3.4c-8.8-2.9-11.4-3.4-17.2-3.4c-8.4,0-13.2,1.6-24.5,8.3
						c-10.5,6.2-17.6,8.7-26.7,9.3c-8.3,0.5-8.5,0.3-4.7-5.7C1424.9,449.1,1446.6,441.4,1471.5,445.2L1471.5,445.2z M1521.7,459.2
						c7.1,2,12.4,8.4,15.8,19c2.7,8.5,2.8,15.4,0.3,20.8c-2,4.3-4.1,5.5-4.1,2.3c0-2.9-2.9-13.3-5.2-18.5
						c-3.1-6.9-7.7-13.3-13.5-18.7c-2.9-2.6-5-5-4.7-5.3C1511.1,458.1,1518.6,458.3,1521.7,459.2L1521.7,459.2z M1473.8,463.3
						c1.7,1.2,2.5,1.3,5.1,0.6c1.7-0.5,6.4-0.7,10.4-0.6c6.2,0.2,8.1,0.7,12.5,2.8c6.8,3.3,11.1,7.1,15.8,14.2
						c4.7,7,8.3,15.4,11,25.7c1.9,7.2,2,8,1,12.6c-0.6,3-1.5,4.9-2.1,4.9c-0.6,0-3.2-5-5.9-11.2c-4.7-10.8-5.1-11.4-11.7-18
						c-5.4-5.4-8.3-7.5-13.7-10.2c-11-5.4-28.3-9-44-9c-4.4,0-5.7-0.3-6.1-1.3c-0.8-2.1,2.4-5.3,8.3-8.6
						C1463,460.8,1469.3,460.1,1473.8,463.3L1473.8,463.3z M1404,476.6c0.2,0.5-1.2,1.7-3.1,2.7s-6.1,4.5-9.3,7.8
						c-3.2,3.3-5.8,5.6-5.8,5.1c0-1.9,4.8-14.1,6.1-15.6c1.1-1.2,2.3-1.5,6.5-1.3C1401.6,475.5,1403.8,476,1404,476.6L1404,476.6z
						 M1430.6,476c0,0.4-3.5,3.4-7.8,6.7c-11.9,9-15.8,15.6-15.8,27c0,6.1,0.3,7.4,2.6,12.2c4.7,9.5,14.3,18.1,26,23.3
						c2.8,1.2,4.5,2.5,4.3,3.1c-0.5,1.5-6.1,4.5-9.5,5c-7.6,1.3-13.6-3.2-23.1-17.3c-5.1-7.5-7.3-10.1-10.2-11.8
						c-6.4-3.8-8-5.5-9-9.8c-3.2-13.2,3.3-25.1,17.5-32.2C1414.4,477.7,1430.6,473.7,1430.6,476z M1473,480.8
						c5.6,1.9,13.6,6.3,13.6,7.5c0,0.8-7.9,0.4-19.4-1.2c-13.3-1.8-20.5,0.8-25.5,9.3c-1.5,2.5-4.9,7.7-7.7,11.7
						c-9,13-9,12.9-2.2,23.4c2.4,3.8,4.4,7.2,4.4,7.7c0,2.4-5.1-0.5-10-5.7c-5.3-5.7-7.3-9-8.8-15c-2.5-9.6,0.6-18.7,9.2-27.3
						c5.7-5.7,12.3-9.4,20.6-11.5C1453.8,477.9,1466.3,478.5,1473,480.8L1473,480.8z M1481,493.3c6.5,1.5,11.1,4.1,14.4,8.3l2.6,3.2
						l-1.4,7c-1.4,7-6.8,18.6-8.5,18.6c-0.5,0-0.7-1.5-0.3-4.2c0.3-2.3,0.7-6.8,1-10l0.5-5.8l-3.3-3.2c-2-1.9-4.9-3.7-7.5-4.5
						c-5.7-1.8-20-2.4-27.5-1.2c-3.3,0.5-6.2,0.8-6.5,0.5c-0.2-0.2,0-1.5,0.6-2.9C1447.8,492.5,1464.8,489.7,1481,493.3L1481,493.3z
						 M1504.7,499.4c5.1,4.7,7.1,9.1,9.4,21.3c2.2,11.3,2.1,13.1-1.1,18.2c-4.9,8-24.1,13.7-44,13.1c-7.9-0.2-9.8-0.6-13.2-2.3
						c-2.2-1.1-4.1-2.4-4.2-2.9c-0.5-1.8,10.8-5.4,25.6-8.3c16-3.1,22.6-7,24.6-14.6c1.1-4.1,0.5-14.3-1.3-20.9
						c-1.1-4.3-1.1-6.9,0-6.9C1500.8,496,1502.7,497.5,1504.7,499.4L1504.7,499.4z M1466.3,506.8c5,1.5,8.6,3.9,11.8,7.9
						c2,2.5,2.3,3.2,1.3,3.8c-1.6,1-5.5,0.2-14.3-2.9c-4.1-1.5-8.4-2.7-9.5-2.7c-1.1,0-3.4,1.2-5.3,2.8c-1.8,1.5-3.7,2.7-4.1,2.5
						c-1.6-0.5-1.4-3.8,0.4-6.6C1449.9,506.3,1458,504.3,1466.3,506.8L1466.3,506.8z M1441.7,520.3c3.8,7.1,12.4,11.3,25,12.2
						c7.4,0.6,7.3,1.6-0.5,4.2c-5.4,1.8-19.8,3.5-22.2,2.6c-2-0.7-10.4-12-10.4-13.9c0-2.3,4-9.6,5-9.2
						C1439.3,516.4,1440.6,518.2,1441.7,520.3L1441.7,520.3z M1468.2,521.3c8.8,2.4,10,3.1,6.7,4.4c-1.8,0.7-3.3,0.6-7.1-0.4
						c-5.2-1.4-6.8-0.9-5.3,1.9c1.4,2.6-0.9,3-4.3,0.9c-2.2-1.3-2.8-2.3-2.8-4c0-2.5,1.8-4.8,3.9-4.8
						C1460,519.2,1464,520.1,1468.2,521.3L1468.2,521.3z"/>
				</g>
			</g>
			<g id="g6140">
				<g id="g5999" transform="translate(-1041.0214,-40.285706)">
					<g id="g5992">
						<path id="path5928" inkscape:connector-curvature="0" sodipodi:nodetypes="cssssccsssscc" class="st5" d="M1359.3,617.2v-35.1
							c0-8.5,6.8-15.3,15.2-15.3h10.4c8.4,0,15.2,6.8,15.2,15.3v35.1h-11.9v-33c0-4.5-2.4-8.2-6.4-8.2h-4.2c-4,0-6.4,3.6-6.4,8.2v33
							H1359.3z"/>
						<path id="path5930" inkscape:connector-curvature="0" sodipodi:nodetypes="ssssscccccsssssccss" class="st5" d="M1418.3,617.2
							c-7.4,0-13.4-6-13.4-13.5v-23.4c0-7.5,6-13.5,13.4-13.5h15.3c2.9,0,5.6,0.9,7.7,2.5l0.4,0.3v22.5h-10.2v-15.9h-9.2
							c-3.4,0-6.2,3.5-6.2,7.8V600c0,4.3,2.8,7,6.2,7h13.2c1.3,0,1.3,0,3.5-0.5l0.9,9.6c-1.8,1-4,1.1-6.3,1.1L1418.3,617.2z"/>
						<path id="path5946" inkscape:connector-curvature="0" class="st1" d="M1312.3,617.2v-50.4h11.6v15.6h6.5l12.2-15.6h13.9
							l-12,16.9c3.6,1.7,7.5,4.7,7.5,8.5v14.8c0,3.9-7.7,10.2-12.2,10.2L1312.3,617.2L1312.3,617.2z M1323.9,607.1h12.8
							c3.4,0,3.4-3.3,3.4-6.8c0-3.9,0.4-8.2-3.3-8c0,0-0.1,0-0.1,0h-12.8V607.1z"/>
						<path id="path5957" inkscape:connector-curvature="0" sodipodi:nodetypes="cccscccscccccccccccccccccc" class="st1" d="
							M1447.5,617.2v-50.4h11.6l16,0c4.5,0,11,2,10.8,8.6c0.3,10,0,14.8-4.7,17.1c4.3,3.7,2.9,9,2.9,14.5c0,5.7-2.9,10.2-9,10.2
							l-15.4,0L1447.5,617.2L1447.5,617.2z M1459.7,607.9h9c3.4,0,3.4-2.7,3.4-6.3c0-3.9,0.4-6.4-3.3-6.3c0,0-0.1,0-0.1,0h-9V607.9z
							 M1471.6,587.1c3-0.1,2.7-2.1,2.7-5.8c0-3.6-0.1-5.8-3.4-5.8h-11.2v11.6h11.3C1471.2,587.1,1471.4,587.1,1471.6,587.1
							L1471.6,587.1z"/>
						<path id="path5961" inkscape:connector-curvature="0" sodipodi:nodetypes="cccccccccc" class="st1" d="M1484.6,617.2
							l16.5-35.5v-14.8h12.4v14.8l16.5,35.5h-12.8l-9.8-23l-9.8,23H1484.6z"/>
					</g>
					<g id="g5980">
						<path id="path5869" inkscape:connector-curvature="0" sodipodi:nodetypes="ccccccccccc" class="st1" d="M1208,632.4h11.6v19.3
							h20.1v9.8h-20.1v11.2h21.4v10.2H1208V632.4z"/>
						<path id="path5871" inkscape:connector-curvature="0" class="st1" d="M1341.6,682.8v-50.4h11.6V648h6.5l12.2-15.6h13.9
							l-12,16.9c3.6,1.7,7.5,4.7,7.5,8.5v14.8c0,3.9-7.7,10.2-12.2,10.2H1341.6L1341.6,682.8z M1353.2,672.6h12.8
							c3.4,0,3.4-3.3,3.4-6.8c0-3.9,0.4-8.2-3.3-8c0,0-0.1,0-0.1,0h-12.8V672.6z"/>
						<path id="path5873" inkscape:connector-curvature="0" sodipodi:nodetypes="cccccccccccccc" class="st1" d="M1389.6,632.4h32.9
							v9.9h-21.4v10.5h20.1l0,9.6h-20.1v10.2h21.4v10.2h-32.9v-25.2L1389.6,632.4z"/>
						<path id="path5881" inkscape:connector-curvature="0" sodipodi:nodetypes="cccccccccccccc" class="st1" d="M1601.1,632.4h32.9
							v9.9h-21.4v10.5h20.1l0,9.6h-20.1v10.2h21.4v10.2h-32.9v-25.2L1601.1,632.4z"/>
						<path id="path5883" inkscape:connector-curvature="0" sodipodi:nodetypes="cccccccc" class="st1" d="M1565.2,632.4h32.9v9.9
							h-21.4l0,40.4h-11.6v-25.2L1565.2,632.4z"/>
						<path id="rect5887" inkscape:connector-curvature="0" sodipodi:nodetypes="cssssssccsssssscc" class="st5" d="M1285.8,681
							c-2,1.1-4.2,1.8-6.7,1.8h-15.3c-7.4,0-13.4-6-13.4-13.5v-23.4c0-7.5,6-13.5,13.4-13.5h15.3c2.5,0,4.7,0.7,6.7,1.9l-2,8.2
							c-1-0.5-1.6-0.7-2.7-0.7h-13.2c-3.4,0-6.2,3.5-6.2,7.8v15.9c0,4.3,2.8,7.8,6.2,7.8h13.2c1,0,1.9-0.3,2.7-0.8L1285.8,681z"/>
						<path id="rect5897" inkscape:connector-curvature="0" sodipodi:nodetypes="ssssscccccsssssccss" class="st5" d="M1311.9,682.8
							c-7.4,0-13.4-6-13.4-13.5v-23.4c0-7.5,6-13.5,13.4-13.5h15.3c2.9,0,5.6,0.9,7.7,2.5l0.4,0.3v22.5H1325v-15.9h-9.2
							c-3.4,0-6.2,3.5-6.2,7.8v15.9c0,4.3,2.8,7,6.2,7h13.2c1.3,0,1.3,0,3.5-0.5l0.9,9.6c-1.8,1-4,1.1-6.3,1.1L1311.9,682.8z"/>
						<path id="rect5903" inkscape:connector-curvature="0" class="st5" d="M1492.2,682.8c-8.4,0-15.2-6.8-15.2-15.2v-20
							c0-8.4,6.8-15.2,15.2-15.2h10.4c8.4,0,15.2,6.8,15.2,15.2v20c0,8.4-6.8,15.2-15.2,15.2H1492.2z M1495.2,673.6h4.2
							c4,0,7.2-3.6,7.2-8.1v-15.8c0-4.5-3.2-8.1-7.2-8.1h-4.2c-4,0-7.2,3.6-7.2,8.1v15.8C1488.1,670,1491.3,673.6,1495.2,673.6z"/>
						<path id="path5959" inkscape:connector-curvature="0" sodipodi:nodetypes="cccscccscccccccccccccccccc" class="st1" d="
							M1522.4,682.8v-50.4h11.6h16c4.5,0,11,2,10.8,8.6c0.3,10,0,14.8-4.7,17.1c4.3,3.7,2.9,9,2.9,14.5c0,5.7-2.9,10.2-9,10.2h-15.4
							H1522.4z M1534.5,673.5h9c3.4,0,3.4-2.7,3.4-6.3c0-3.9,0.4-6.4-3.3-6.3c0,0-0.1,0-0.1,0h-9V673.5z M1546.5,652.6
							c3-0.1,2.7-2.1,2.7-5.8c0-3.6-0.1-5.8-3.4-5.8h-11.2v11.6h11.3C1546,652.6,1546.3,652.6,1546.5,652.6L1546.5,652.6z"/>
						<path id="path5975" inkscape:connector-curvature="0" sodipodi:nodetypes="ccccccccccc" class="st1" d="M1428,682.8v-50.4
							h11.2l0.2,31.1l17-31.1h14.5v50.4h-11.2l-0.2-31.1l-17,31.1H1428z"/>
					</g>
				</g>
				<g id="g6134" transform="translate(-1037.2495,0)">
					<path id="path6058" inkscape:connector-curvature="0" sodipodi:nodetypes="cccccccc" class="st1" d="M1386,240.1h5.5v24.4
						l-5.3,0l-7.5-4.3l2.5-4.4l4.9,2.5V240.1z"/>
					<path id="path6060" inkscape:connector-curvature="0" sodipodi:nodetypes="ccccsccsccccc" class="st1" d="M1455.6,240.1h-15.8
						v4.7l8.8,9.6c2,2.7,1.2,4.3-0.8,4.9c-2.6,0.8-7-0.3-8-0.2v5c2.3,0.3,5.1,0.6,7.8,0.4c2.6-0.2,4.1-0.5,6.1-1.9
						c2.4-1.7,2.9-7.9,0.6-10.4l-6.6-7.4h7.8L1455.6,240.1z"/>
					<path id="rect6074" inkscape:connector-curvature="0" sodipodi:nodetypes="sscsssscsssccsccscccs" class="st5" d="
						M1402.6,264.5c-3.3,0-5.5-2.9-5.5-6.5c0-2.5,0.9-4.6,2.7-5.7c-1.8-1.1-3.1-3.2-3.1-5.7c0-3.6,2.6-6.5,5.9-6.5h5.7
						c3.3,0,5.9,2.9,5.9,6.5c0,2.5-1.3,4.6-3.1,5.7c1.8,1.1,2.7,3.2,2.7,5.7c0,3.6-2.2,6.5-5.5,6.5H1402.6z M1405.4,260.5
						c1.9,0,3.2-1.3,2.6-3.4c-0.5-1-0.9-2.6-2.6-2.6c-1.7,0-2.2,1.7-2.6,2.6C1402.1,258.9,1403.3,260.5,1405.4,260.5z M1405.4,250.2
						c1.7,0,2.7-2,3.2-3c0.7-1.8-1.1-3.4-3.2-3.4c-1.9,0-3.7,1.3-3.2,3.4C1402.6,248.2,1403.6,250.2,1405.4,250.2z"/>
					<path id="rect6125" inkscape:connector-curvature="0" class="st5" d="M1424.6,264.5c-3.6,0-6.5-2.5-6.5-5.6v-3.5
						c0-3.1,2.9-5.6,6.5-5.6h3.9c0.5,0,0.9,0,1.3,0.1c-0.1-2.7-0.5-5-4.1-5h-6.5v-4.7h9c3.6,0,6.8,2.8,6.8,6v8.4l-0.1-0.1
						c0.1,0.3,0.1,0.6,0.1,0.9v3.5c0,3.1-2.9,5.6-6.5,5.6L1424.6,264.5L1424.6,264.5z M1425.8,260.2h1.3c1.2,0,2.2-1,2.2-2.3v-1.5
						c0-1.3-1-2.3-2.2-2.3h-1.3c-1.2,0-2.2,1-2.2,2.3v1.5C1423.6,259.2,1424.6,260.2,1425.8,260.2z"/>
				</g>
			</g>
		</g>
	</g>
</g>
</svg>
