<?xml version="1.0" encoding="utf-8"?>
<!-- Generator: Adobe Illustrator 26.0.2, SVG Export Plug-In . SVG Version: 6.00 Build 0)  -->
<svg version="1.1"
	 id="svg8444" xmlns:cc="http://creativecommons.org/ns#" xmlns:dc="http://purl.org/dc/elements/1.1/" xmlns:inkscape="http://www.inkscape.org/namespaces/inkscape" xmlns:rdf="http://www.w3.org/1999/02/22-rdf-syntax-ns#" xmlns:sodipodi="http://sodipodi.sourceforge.net/DTD/sodipodi-0.dtd" xmlns:svg="http://www.w3.org/2000/svg"
	 xmlns="http://www.w3.org/2000/svg" xmlns:xlink="http://www.w3.org/1999/xlink" x="0px" y="0px" width="583.9px" height="1002px"
	 viewBox="0 0 583.9 1002" style="enable-background:new 0 0 583.9 1002;" xml:space="preserve">
<style type="text/css">
	.st0{fill:#FFFFFF;}
	.st1{fill:#C4014B;}
	.st2{fill:#BEBEBE;}
	.st3{fill:#8FC4EB;}
	.st4{fill:#2D8E2D;}
	.st5{fill:#7E4806;}
	.st6{fill-rule:evenodd;clip-rule:evenodd;fill:#BEBEBE;}
	.st7{fill:none;}
	.st8{fill:#E6E7E8;}
	.st9{fill:#EB5A99;}
	.st10{fill:#FDE3D2;}
	.st11{fill:#EED2BE;}
	.st12{fill:#3C3C3D;}
	.st13{fill:#565759;}
	.st14{fill:#009B40;}
	.st15{fill:#6AC5EC;}
</style>
<sodipodi:namedview  bordercolor="#666666" borderopacity="1" fit-margin-bottom="1" fit-margin-left="1" fit-margin-right="1" fit-margin-top="1" gridtolerance="10" guidetolerance="10" id="namedview8446" inkscape:current-layer="svg8444" inkscape:cx="291.944" inkscape:cy="501" inkscape:pageopacity="0" inkscape:pageshadow="2" inkscape:window-height="705" inkscape:window-maximized="1" inkscape:window-width="1366" inkscape:window-x="-8" inkscape:window-y="-8" inkscape:zoom="0.236" objecttolerance="10" pagecolor="#ffffff" showgrid="false">
	</sodipodi:namedview>
<path id="path8058" inkscape:connector-curvature="0" d="M17.9,894.6h18.6v32.6h34.3v-32.6h18.6v84.8H70.9v-36.6H36.5v36.6H17.9
	V894.6z"/>
<path id="path8060" inkscape:connector-curvature="0" d="M97.5,936.8c1-15.8,15.1-20.6,28.9-20.6c12.2,0,27,2.7,27,17.5v32
	c0,5.6,0.6,11.2,2.1,13.7h-17.1c-0.6-1.9-1.1-3.9-1.2-5.9c-5.3,5.6-13.2,7.6-20.7,7.6c-11.7,0-20.9-5.8-20.9-18.4
	c0-13.9,10.5-17.2,20.9-18.7c10.3-1.5,19.9-1.2,19.9-8.1c0-7.2-5-8.3-10.9-8.3c-6.4,0-10.6,2.6-11.2,9.3L97.5,936.8L97.5,936.8z
	 M136.4,949.3c-2.9,2.5-8.8,2.6-14,3.5c-5.2,1.1-10,2.9-10,9c0,6.3,4.9,7.8,10.3,7.8c13.2,0,13.7-10.4,13.7-14.1L136.4,949.3
	L136.4,949.3z"/>
<path id="path8062" inkscape:connector-curvature="0" d="M160.4,918h16v11.4h0.2c3.1-7.7,9.1-13.1,17.3-13.1c1.2,0,0.9,0.2,1.9,0.6
	v15.7c-1.5-0.4-2.3-0.6-4.3-0.6c-12.4,0-14.3,8.9-14.3,19.7v27.7h-16.9L160.4,918L160.4,918z"/>
<path id="path8064" inkscape:connector-curvature="0" d="M201.2,894.6H218v84.8h-16.9V894.6z"/>
<path id="path8066" inkscape:connector-curvature="0" d="M239.3,952.8c0.5,10.7,5.7,15.6,15.1,15.6c6.8,0,12.2-4.1,13.3-8h14.8
	c-4.7,14.5-14.8,20.7-28.7,20.7c-19.4,0-31.4-13.3-31.4-32.3c0-18.4,12.7-32.4,31.4-32.4c20.9,0,31,17.6,29.8,36.5L239.3,952.8
	L239.3,952.8z M266.7,942.1c-1.5-8.6-5.2-13.1-13.4-13.1c-10.7,0-13.8,8.3-14,13.1H266.7z"/>
<path id="path8068" inkscape:connector-curvature="0" d="M351.1,1001h-16.9v-29.3H334c-3.9,6.7-12,9.4-19.4,9.4
	c-11.3,0-26-8.2-26-32c0-16.9,8.9-32.8,27.6-32.8c7.6,0,14.8,2.7,18.6,9.5h0.2V918h16V1001z M320.1,968.3c10.9,0,14.7-9.3,14.7-19.4
	c0-9.6-3.8-20-14.4-20c-10.9,0-15,9.7-15,19.7C305.5,958.6,309,968.3,320.1,968.3z"/>
<path id="path8070" inkscape:connector-curvature="0" d="M415.5,979.4h-16v-8.6h-0.3c-4.3,6.9-11.6,10.2-18.8,10.2
	c-17.9,0-22.5-10.1-22.5-25.3V918h16.9v34.7c0,10.1,3,15.1,10.8,15.1c9.1,0,13.1-5.1,13.1-17.6V918h16.9L415.5,979.4L415.5,979.4z"
	/>
<path id="path8072" inkscape:connector-curvature="0" d="M439.7,908.5h-16.9v-13.9h16.9V908.5z M422.8,918h16.9v61.4h-16.9V918z"/>
<path id="path8074" inkscape:connector-curvature="0" d="M447.1,918h16v8.5h0.4c4.3-6.9,11.6-10.2,18.8-10.2
	c17.9,0,22.4,10.1,22.4,25.3v37.8h-16.9v-34.7c0-10.1-3-15.1-10.8-15.1c-9.1,0-13.1,5.1-13.1,17.6v32.2h-16.9L447.1,918z"/>
<path id="path8076" inkscape:connector-curvature="0" d="M524.6,959.4c0.1,7.4,6.3,10.3,13,10.3c4.9,0,11-1.9,11-7.8
	c0-5.1-7-6.9-19.1-9.5c-9.7-2.1-19.5-5.6-19.5-16.4c0-15.7,13.5-19.7,26.7-19.7c13.4,0,25.8,4.5,27.1,19.6h-16
	c-0.5-6.5-5.5-8.3-11.5-8.3c-3.8,0-9.4,0.7-9.4,5.7c0,6.1,9.5,6.9,19.1,9.1c9.9,2.3,19.5,5.8,19.5,17.2c0,16.2-14,21.4-28,21.4
	c-14.3,0-28.2-5.3-28.9-21.6L524.6,959.4L524.6,959.4z"/>
<path id="path8078" inkscape:connector-curvature="0" class="st0" d="M252.2,108.2c0.1,0.2,1.1,1.1,1.3,2.6
	c0.9,5.6,2.1,19.2,5.7,27.4c0.8,1.8,1.8,3.6,2.6,5.5c5,12.8,17.3,27.1,31.6,26.1c29.4-2,34.1-42.6,34.1-62.3
	c0-16.6-38.4-22.5-38.4-22.5C273.7,87.4,254.7,103.1,252.2,108.2"/>
<path id="path8080" inkscape:connector-curvature="0" class="st0" d="M282.6,854.5L282.6,854.5c-1.1-1.4-1.6-3.2-1.6-4.8l0,0
	c0.2-5.8,4.9-10.5,7.2-12.2l0,0c6.5-4.6,13.7-7.6,16.3-14.1l0,0c1-2.3,0.6-5.5,1.4-9.7l0,0c0.2-1.2,0.5-4.4,0.5-7.2l0,0
	c0-1.6-0.1-3.1-0.3-3.8l0,0c-0.5-2.2-0.6-4.4-0.6-6.6l0,0c0-1,0-1.9,0-2.9l0,0c0-2.1-0.1-4.1-0.5-6l0,0c-0.7-3.4-0.4-6.8-1-9.5l0,0
	c-2.1-9.2-2.2-18.5-5.1-26l0,0c-4.2-11.5-10.8-21.7-17.5-31.2l0,0c-1.9-2.8-4.4-5.6-6.5-8.7l0,0c-2.8,2.9-4.8,8.2-7.1,12.8l0,0
	c-4,7.6-7,15.3-9.4,24.8l0,0c-0.6,2.5-0.7,5.4-0.7,8.5l0,0c0,1.6,0,3.2,0,4.9l0,0c0,1.5,0,3,0,4.4l0,0c0,6.2,0.1,12.1,1.3,17l0,0
	c0.8,3.6,0.3,6.2,1,8.7l0,0c1.1,4.4,2,8.8,3.5,12.3l0,0c0.9,2.3,4,4.5,5.5,8.4l0,0c0.3,1,0.4,1.9,0.4,2.8l0,0c0,2.6-0.8,5-1.1,6.5
	l0,0l-0.2,0.8l-0.7,0.5c-2,1.4-4.4,1.9-6.8,1.9l0,0c-6.9-0.1-14.3-4.1-17.8-6.2l0,0c-7-4.3-14.2-8.6-18.9-16.1l0,0
	c-1.4-2.3-2.4-5.1-3.1-7.8l0,0c-0.3-1.3-0.4-2.6-0.4-3.8l0,0c0-1.3,0.1-2.5,0.1-3.5l0,0c0-1.1-0.1-2-0.3-2.5l0,0
	c-3.2-7.8-8.9-14.8-13.9-21.7l0,0c-2.5-3.6-5.5-7.1-8.2-10.8l0,0c-1.2-1.6-3.5-3.4-4.8-6.3l0,0c-0.7-1.6-1.3-3.7-1.3-5.9l0,0
	c0-1,0.1-2,0.4-2.9l0,0c3-10,12.8-14.8,20.6-18.8l0,0c1.4-0.5,2.8-1,4.2-1.5l0,0c4-2.4,8.2-6.8,11.4-11l0,0c0.8-0.7,1.7-1.5,2.3-2
	l0,0c3-3.9,6.3-7.2,9.2-11l0,0c0.9-0.9,1.9-1.9,2.6-2.6l0,0c1.4-1.9,2.8-3.8,4.5-5.8l0,0c0.7-0.7,1.8-1.8,2.3-2.4l0,0
	c-0.4-0.5-1.3-1.1-2.2-2.2l0,0c-2.5-3.3-5.4-6.5-8-10.1l0,0c-6.7-9-13.8-17.7-20.6-26.8l0,0c-2.2-2.9-5.2-5.6-7.7-9l0,0
	c-3.4-4.6-10-8.3-14.2-13.9l0,0c-3.2-4.3-4.9-9.4-6.2-15.2l0,0l-0.1-0.2V606c0-1.4,0-2.8,0-4.1l0,0c0-8.6,2.5-14.9,4.2-21.4l0,0
	c1.3-4.6,0.5-10.5,1.8-16.4l0,0c0.1-0.4,0.1-0.9,0.1-1.6l0,0c0-0.7,0-1.4,0-2.1l0,0c0-0.6,0-1.1,0.1-1.8l0,0
	c0.2-8.2,0.3-16.3,0.5-24.5l0,0v-0.2l0-0.2c0.4-1.7,0.5-3.6,0.5-5.6l0,0c0-1.3,0-2.7,0-4.1l0,0c0-2.2,0.1-4.5,0.6-6.7l0,0
	c0.8-3.3,0-7.7,1-12.3l0,0c0.5-1.8,0.1-4.6,0.8-7.7l0,0c1.7-7.1,1.4-15,3.4-22.7l0,0c4.5-17.3,7.7-34.8,13.7-50.9l0,0
	c1.2-3.1,1.7-6.3,3.1-9.8l0,0c3.5-8.4,6.6-17,10.3-25.5l0,0c1.4-3.2,4.1-7.6,4.9-10.4l0,0c-0.1-0.4-0.1-0.8-0.2-1.4l0,0
	c0-2.7,0-5.3,0-8l0,0c0-1.7,0-3.3,0-4.8l0,0c0-5.7-0.2-10.4-1.5-15.3l0,0c-2.2-8.1-3.1-15.4-5.9-22.2l0,0c-5.2-12.7-10.7-25-16-37.8
	l0,0c-2.5-6.1-2.5-12.5-4-18.9l0,0l-0.1-0.2v-0.2c0-3,0-5.9,0-8.9l0,0c-0.3-0.5-1.1-1.2-1.9-2.3l0,0c-3.8-5.1-9-7.9-15.1-11.6l0,0
	c-12.6-7.7-27.1-13.7-40.1-21.6l0,0c-3.2-2-7-3.1-10.8-5.4l0,0c-7.7-4.7-16-8.9-23.3-14.3l0,0c-4.1-3-7.1-7-10.5-9.5l0,0
	c-4.1-3.1-8.1-7.1-11.2-11.2l0,0c-1.6-2.2-4.2-4.1-6.4-6.9l0,0c-2-2.7-5.4-5.1-8-8.5l0,0c-7.7-10.2-16.8-19.5-24.7-30.1l0,0
	c-2.1-2.8-4.9-5.6-7.2-8.8l0,0c-4.2-5.8-8.1-11.5-11.9-17.6l0,0c-1.5-2.4-3.9-4.7-4.8-8.7l0,0c-0.2-0.2-0.6-0.3-0.9-1.1l0,0
	c-2.7-2.8-3.5-4.8-3.9-5.1l0,0c-2.7-2-5.2-4.3-7.2-7.2l0,0c-1.1,0.6-2.4,1.3-4,1.6l0,0c-0.7,0.2-1.3,0.2-2,0.2l0,0
	c-5.5-0.2-12.6-4-13-10.3l0,0c0-0.6,0.1-1.2,0.3-1.7l0,0c1.5-5,5.6-7.2,8.2-9.4l0,0c-0.4-1.1-0.5-2.2-0.5-3.2l0,0
	c0-1.7,0.3-3.2,1-4.5l0,0l0.1-0.3l0.2-0.2c1.1-1.3,2.7-2.3,4.8-2.6l0,0c0.8-3.5,3.8-5.5,6.8-5.5l0,0c0,0,0.2,0,0.2,0l0,0
	c0.3,0,0.5,0,0.7,0l0,0c0.5-0.8,1.1-2.1,3.1-3.5l0,0c1.1-0.5,2.1-0.6,3.1-0.6l0,0c0.9,0,1.7,0.1,2.4,0.3l0,0
	c0.5-0.7,1.3-1.7,2.8-2.5l0,0l0.2-0.1l0.2-0.1c1-0.2,1.8-0.4,2.6-0.4l0,0c2.5,0,4.1,1.2,5.3,1.9l0,0c2.2,1.6,3,3.2,3.8,3.7l0,0
	c2.9-1.6,7.5-2.4,9.9-3.2l0,0c1.2-0.2,2.4-0.3,3.6-0.5l0,0c0.7-0.3,2-1.4,3.3-2.2l0,0c1.4-0.6,2.7-1.2,4-1.7l0,0
	c2.7-1.4,5.7-3.1,8.6-4.4l0,0c7.2-3.2,14.5-5.8,21.7-8.8l0,0c2.8-1.1,30.8-10.2,43-13.2l0,0c21.5-5.3,36.8-8.3,54.3-11.3l0,0
	c12.5-2.1,37.6-5,56.9-6l0,0c7-0.7,25.6-0.9,38.3-1l0,0c0.6,0,1.3,0,2.3,0l0,0c8.9,0,33.7,0.3,51,1.8l0,0
	c13.5,1.2,60.4,6.8,91.1,13.7l0,0c18.3,4.1,35,8.5,51.4,13.9l0,0c5.5,1.8,10.7,3.4,16,5.2l0,0c1.7,0.6,5.9,1.7,8.2,2.3l0,0
	c0.4-0.4,0.8-0.8,1-1.2l0,0l0.2-0.3l0.3-0.2c1.2-1,1.2-1.3,3-3.2l0,0c1.4-1.4,3.2-3.2,5.4-4.3l0,0c1.2-0.6,2.6-0.9,3.8-0.9l0,0
	c1.1,0,2.2,0.2,3.2,0.6l0,0c2,0.8,3.4,2,4.5,3.8l0,0c0.3,0.6,0.6,1.2,0.8,1.9l0,0c1.2-0.4,2.6-0.6,3.9-0.6l0,0c1.5,0,3,0.2,4.5,0.8
	l0,0l0.2,0.1l0.2,0.1c1.5,0.9,2.3,2.3,2.6,3.8l0,0c2.2,0.2,4.5,0.9,5.8,3.4l0,0c0.2,0.5,0.5,1.1,0.7,2l0,0c4.5,1.2,6.5,5.5,6.3,9.4
	l0,0c0,2.7-0.7,5.4-1.7,7.8l0,0c-3.1,7.2-8.4,12.9-12.9,18l0,0c-2.1,2.2-5.7,5.1-6.9,7.2l0,0l1.5,1.4l-1.4,1.5
	c-0.7,0.6-1,2.1-2.1,4.1l0,0c-1.9,3.1-3.4,6.9-5.7,10.5l0,0c-5,8.2-8.9,17.8-14.1,26.5l0,0c-1.8,2.9-2.8,6.4-4.9,9.8l0,0
	c-11.5,18.5-26.6,33.6-39.2,50.3l0,0c-10.4,13.8-26.4,22.6-43.1,29.5l0,0c-4.3,1.8-8.6,2.1-12.5,3.4l0,0c-5.7,1.9-10.9,4.3-15.1,7.4
	l0,0c-1.4,1-3,3-4.2,4.7l0,0c-2.1,2.8-4.4,5.5-6.1,8.3l0,0c-4.1,6.7-6.3,15.8-8.8,24.5l0,0c-0.7,4.5-1.4,9.1-2.1,13.9l0,0
	c-2.1,7.5-4.5,15.3-7,22.7l0,0c-1.5,4.6-2,9.6-3.9,14.7l0,0c-3.7,10.1-6.9,20.9-9.2,32.2l0,0c-0.2,0.7-0.2,1.2-0.2,1.6l0,0
	c0,0.4,0.1,0.7,0.2,1.5l0,0c0.4,3,0.9,6,1.3,9.2l0,0c0.2,2.8,0.3,5.7,0.5,8.5l0,0c1.4,4.3,5.6,10.3,8.2,14.5l0,0
	c4.9,8,8.8,17,12.5,25.7l0,0c4.4,10.4,6.5,22,9.6,32.9l0,0c1.1,3.9,1.1,7.3,2.1,10.6l0,0c4,14,6.7,27.6,10.6,41.2l0,0
	c1.6,5.7,1.6,11.6,2.9,16.8l0,0c1.3,10.8,2.7,21.6,4.1,32.5l0,0c0.2,2.6,0.3,5.2,0.5,7.4l0,0c2.1,9.9,0.3,21.7,2.3,30.6l0,0l0,0.2
	l0,0.2c0.1,2.1,0.2,4.2,0.3,6.3l0,0c0.7,3.8,0.3,7.6,1,10.6l0,0c0.3,1.3,0.8,3.5,0.8,5.8l0,0c0,0.9-0.1,1.7-0.3,2.6l0,0
	c-1.2,4-4,5.6-5.2,7.4l0,0c-3.3,4.4-7.6,8.5-11.7,11.5l0,0c-0.6,0.7-1.2,1.4-2.1,2.3l0,0c-3.6,2.7-7,5.8-10.9,8.6l0,0
	c-13.8,9.7-28.1,18.7-42.6,27.6l0,0c-7.1,4.4-14.5,8.4-21.7,12.4l0,0c-1.6,0.8-5.4,2.5-6.5,3.5l0,0c1,2.6,1.2,4.8,1.9,6.6l0,0
	c1.9,4.7,3.4,9.4,5.4,13.8l0,0c1.7,3.8,4.1,8,5.9,12.1l0,0c3.4,7.8,6.8,15.3,10.9,22.2l0,0c2.4,4,3.8,8.1,6,11.4l0,0
	c0,0,0.1,0.1,0.1,0.1l0,0c0.8,0.7,2,1.8,3.6,3.3l0,0c2.4,2.4,4.5,5,6.7,7.2l0,0c3.9,4,8.4,9.9,11.1,15.1l0,0
	c0.6,1.1,1.6,3.3,1.7,5.8l0,0c0,0.8-0.1,1.7-0.6,2.5l0,0c-0.8,1.9-2.1,2.5-2.3,2.9l0,0c-2.3,3.1-4.8,6-7,9l0,0
	c-4.9,6.6-9.4,13.3-13.8,20.5l0,0c-1.3,2.1-2.9,4.2-3.7,6.2l0,0c-0.9,2.1-1.6,4.5-2.2,6.9l0,0c-0.8,3-0.2,6.2-1.6,9.8l0,0
	c-2.7,6.5-8.5,10.8-14.4,13.4l0,0c-6.9,3-15.6,5.3-25,5.3l0,0c-0.9,0-2,0-3.2,0l0,0C288.8,857.5,284.7,858,282.6,854.5L282.6,854.5z
	 M277.2,707.9c2.1,3.5,5.1,6.8,7.6,10.4l0,0c6.8,9.6,13.5,20.1,18,32.1l0,0c3.1,8.5,3.2,17.8,5.2,26.5l0,0c0.8,3.6,0.5,7.1,1,9.6
	l0,0c0.5,2.3,0.6,4.6,0.6,6.8l0,0c0,1,0,1.9,0,2.9l0,0c0,2.1,0.1,4,0.5,5.7l0,0c0.3,1.3,0.3,2.9,0.3,4.7l0,0c0,3-0.2,6.2-0.6,8l0,0
	c-0.7,3.3-0.1,6.6-1.7,10.4l0,0c-3.6,8.4-11.9,11.5-17.7,15.8l0,0c-1.5,0.9-5.7,5.8-5.5,9l0,0c0,0.9,0.2,1.6,0.8,2.3l0,0l0.2,0.2
	l0.1,0.3c0,0,0.3,0.4,1.5,0.7l0,0c1.2,0.3,2.8,0.3,4.5,0.3l0,0c1.1,0,2.2,0,3.2,0l0,0c8.7,0,17-2.2,23.4-5l0,0
	c5.4-2.4,10.2-6.1,12.3-11.3l0,0c1-2.2,0.5-5.3,1.4-9.2l0,0c0.6-2.5,1.4-5.1,2.4-7.5l0,0c1.1-2.5,2.8-4.8,4-6.7l0,0
	c4.5-7.2,9-14,14-20.7l0,0c2.3-3.1,4.7-6,6.9-9l0,0c1.1-1.4,1.7-1.7,1.8-2l0,0l0.1-0.2l0.1-0.2c0-0.1,0.1-0.3,0.1-0.6l0,0
	c0-1.1-0.8-3.2-1.2-3.9l0,0c-2.4-4.7-6.8-10.5-10.5-14.2l0,0c-2.4-2.4-4.4-5-6.6-7.1l0,0c-1.5-1.4-2.7-2.5-3.5-3.2l0,0
	c-0.9-0.9-0.9-0.8-1.4-1.4l0,0c0,0,0,0,0,0l0,0c0,0,0,0,0,0l0,0c-0.1,0-0.1-0.1-0.2-0.4l0,0c-0.1-0.3-0.2-0.5-0.2-0.7l0,0
	c-2-3.4-3.2-6.8-5-9.8l0,0c-4.3-7.1-7.7-14.9-11.2-22.6l0,0c-1.7-3.8-4.1-8-5.9-12.1l0,0c-2.1-4.7-3.6-9.5-5.4-13.9l0,0
	c-1.1-2.8-1.2-5.2-2.3-7.4l0,0l-0.2-0.5l0.1-0.6c0.7-2.7,2.6-3.3,4.3-4.4l0,0c1.8-1,3.7-1.8,4.4-2.2l0,0c7.2-4,14.5-8,21.5-12.3l0,0
	c14.5-8.9,28.7-17.8,42.3-27.5l0,0c3.6-2.5,7-5.7,10.5-8.2l0,0c0.6-0.6,1.2-1.3,2.1-2.3l0,0c4.1-3.1,8.2-6.9,11.2-10.9l0,0
	c2.1-2.7,4-3.7,4.6-6l0,0c0.1-0.4,0.2-1,0.2-1.6l0,0c0-1.7-0.4-3.8-0.7-4.9l0,0c-0.9-4.1-0.4-7.9-1-10.8l0,0l0-0.2l0-0.2
	c-0.1-2.1-0.2-4.2-0.2-6.3l0,0c-2.1-10-0.3-21.7-2.3-30.8l0,0c-0.2-2.6-0.3-5.1-0.5-7.6l0,0c-1.4-10.8-2.7-21.6-4.1-32.2l0,0
	c-1.4-5.6-1.4-11.4-2.8-16.4l0,0c-3.8-13.8-6.6-27.4-10.6-41.2l0,0c-1.1-4-1.1-7.3-2.1-10.5l0,0c-3.2-11.2-5.3-22.7-9.4-32.4l0,0
	c-3.7-8.8-7.5-17.5-12.2-25.2l0,0c-2.5-4.2-7-10.3-8.7-15.6l0,0l-0.1-0.3l0-0.2c-0.2-2.9-0.3-5.8-0.5-8.6l0,0c-0.4-3-0.8-6-1.2-8.7
	l0,0c-0.2-0.8-0.3-1.6-0.3-2.3l0,0c0-0.8,0.1-1.6,0.3-2.5l0,0c2.3-11.6,5.5-22.5,9.3-32.8l0,0c1.7-4.5,2.2-9.4,3.8-14.6l0,0
	c2.4-7.4,4.8-15.2,6.9-22.3l0,0c0.7-4.5,1.4-9.1,2.1-13.9l0,0c2.5-8.8,4.6-18.2,9.2-25.7l0,0c1.9-3.2,4.3-6,6.3-8.7l0,0
	c1.3-1.8,3-4,5.1-5.6l0,0c4.7-3.5,10.3-6,16.2-8l0,0c4.5-1.5,8.7-1.8,12.2-3.3l0,0c16.4-6.7,31.7-15.3,41.4-28.2l0,0
	c12.9-17,27.8-32,39-50l0,0c1.8-2.8,2.8-6.3,4.9-9.8l0,0c5-8.3,8.9-17.9,14.1-26.5l0,0c2-3.3,3.5-7,5.7-10.5l0,0
	c0.4-0.6,0.6-1.4,1.1-2.3l0,0l-0.2-0.1l0.2-1.7c0.9-5.3,6.5-8.4,8.2-10.6l0,0c4.6-5.2,9.5-10.6,12.2-16.9l0,0c0.8-2,1.4-4.3,1.4-6.2
	l0,0c-0.2-3.4-1-5.2-4.4-5.7l0,0l-1.1-0.1l-0.5-1c-0.1-0.3-0.2-0.6-0.2-0.8l0,0v0c0-0.9-0.2-1-0.6-2.1l0,0c-0.1-0.4-1.2-1-3.2-1l0,0
	c-0.2,0-0.4,0-0.6,0l0,0l-1.8,0.1l-0.2-1.8c-0.4-2.1-0.2-1.9-1.1-2.6l0,0c-0.8-0.3-1.8-0.4-2.8-0.4l0,0c-1.3,0-2.6,0.3-3.2,0.6l0,0
	c0,0.2-0.1,0.5-0.2,0.8l0,0c-0.1,0.3-0.6,1.3-2,1.4l0,0h-2.1l0.1-2.1c0-0.2,0-0.5,0-0.7l0,0c0.1-1.2-0.4-3.2-0.5-3.2l0,0
	c-1-1.5-1-1.4-2.7-2.3l0,0c-0.3-0.2-0.9-0.3-1.6-0.3l0,0c-0.7,0-1.5,0.2-2,0.4l0,0c-1.3,0.6-3,2.2-4.3,3.6l0,0
	c-1.4,1.4-1.6,1.9-3.1,3.2l0,0c-1,1.4-2.3,2.5-2.4,2.6l0,0l-0.8,0.7l-1-0.3c-1.5-0.4-7.1-1.8-9.5-2.6l0,0
	c-5.1-1.7-10.4-3.3-15.9-5.1l0,0c-16.2-5.4-32.8-9.7-51-13.8l0,0C402.7,13.6,355.8,8,342.5,6.8l0,0c-17-1.5-41.8-1.8-50.6-1.8l0,0
	c-0.9,0-1.7,0-2.2,0l0,0c-12.6,0.1-31.3,0.3-38,1l0,0C232.5,7,207.3,9.9,195.1,12l0,0c-17.4,3-32.6,6-54,11.3l0,0
	c-11.8,2.9-40.2,12.1-42.4,13l0,0c-7.2,3-14.6,5.6-21.6,8.7l0,0c-2.7,1.2-5.6,2.9-8.5,4.4l0,0c-1.4,0.6-2.7,1.2-3.9,1.7l0,0
	c-0.8,0.5-2.2,1.8-3.9,2.5l0,0l-0.2,0.1l-0.2,0c-1.3,0.2-2.6,0.3-3.6,0.5l0,0c-2.5,0.7-8.3,2.1-9.1,3l0,0L47,57.6l-0.9-0.1
	c-4-0.8-5-4.2-5.9-4.4l0,0c-1.5-0.9-2.1-1.3-3.3-1.3l0,0c-0.4,0-0.9,0.1-1.5,0.2l0,0c-0.5,0.3-0.9,1.1-2.1,2.4l0,0l-0.7,0.7l-1-0.2
	c-1.2-0.2-2-0.5-2.8-0.4l0,0c-0.5,0-0.9,0.1-1.2,0.1l0,0c-1,0.6-0.9,1.3-2.4,3.2l0,0l-0.2,0.3l-0.3,0.2c-0.8,0.3-0.9,0.3-1.1,0.3
	l0,0c-0.1,0-0.1,0-0.3,0l0,0c-0.4,0-0.9,0-1.5,0l0,0v0c-1.7,0.1-2.9,0.8-3,3.4l0,0l0,2l-2,0c-2.6,0.2-2.3,0.1-3.5,1.2l0,0
	c-0.2,0.5-0.4,1.4-0.4,2.3l0,0c0,1.1,0.3,2.2,0.5,2.4l0,0l1.1,1.4l-1.3,1.3C9.9,76,6,77.7,5.1,81.3l0,0C5,81.5,5,81.7,5,81.9l0,0
	C5,83,6,84.7,8,86l0,0c1.9,1.3,4.3,2.2,6.1,2.1l0,0c0.4,0,0.8,0,1.1-0.1l0,0c1.4-0.3,3-1.3,4.7-2.2l0,0l1.7-0.8l1,1.6
	c1.8,3,4.3,5.4,7.4,7.8l0,0c1.5,1.7,1.8,3,4.5,5.7l0,0l1.7,1.7l-0.3,0.2c0.1,0.2,0.2,0.5,0.2,0.9l0,0c0,0.1,0,0.2,0,0.3l0,0
	c0.6,2.4,2.3,4.2,4.1,7l0,0c3.8,6.1,7.6,11.7,11.7,17.4l0,0c2.1,2.8,4.9,5.6,7.2,8.7l0,0c7.7,10.4,16.7,19.6,24.7,30.1l0,0
	c2,2.7,5.4,5.1,8,8.5l0,0c1.7,2.2,4.3,4.2,6.4,6.9l0,0c2.9,3.8,6.7,7.6,10.4,10.4l0,0c4,3,7,6.9,10.5,9.5l0,0
	c7,5.1,15.2,9.3,23,14.1l0,0c3.2,2,7,3.1,10.8,5.4l0,0c12.7,7.7,27.1,13.7,40.2,21.6l0,0c5.9,3.6,11.8,6.6,16.2,12.6l0,0
	c0.4,0.6,1.9,1.6,2.6,3.7l0,0l0.1,0.3v0.3c0,3,0,6,0,9l0,0c1.5,6.8,1.6,13,3.7,18l0,0c5.2,12.7,10.7,25,16,37.8l0,0
	c3,7.4,3.9,14.9,6,22.6l0,0c1.5,5.5,1.6,10.6,1.6,16.3l0,0c0,1.5,0,3.1,0,4.8l0,0c0,2.7,0,5.3,0,7.7l0,0c0.1,0.5,0.2,1,0.3,1.6l0,0
	l0.1,0.4l-0.1,0.4c-1,3.7-4,8.3-5.3,11.3l0,0c-3.6,8.4-6.8,17-10.3,25.5l0,0c-1.2,3-1.7,6.1-3.1,9.7l0,0c-5.8,15.6-9,33.1-13.6,50.5
	l0,0c-1.8,6.9-1.6,14.8-3.3,22.6l0,0c-0.5,2.2-0.2,4.8-0.8,7.7l0,0c-0.9,3.6-0.1,7.9-1,12.4l0,0c-0.4,1.8-0.5,3.8-0.5,5.8l0,0
	c0,1.3,0,2.7,0,4.1l0,0c0,2.1-0.1,4.2-0.5,6.3l0,0c-0.2,8.2-0.3,16.4-0.5,24.5l0,0v0.2l-0.1,0.2c0,0.1-0.1,0.5-0.1,1l0,0
	c0,0.6,0,1.3,0,2.1l0,0c0,0.8,0,1.6-0.2,2.5l0,0c-1.1,4.9-0.3,10.9-1.8,16.6l0,0c-1.8,6.8-4,12.5-4,20.3l0,0c0,1.3,0,2.6,0,3.9l0,0
	c1.3,5.4,2.9,9.9,5.5,13.4l0,0c3.4,4.7,10,8.4,14.2,13.9l0,0c2.2,3,5.2,5.7,7.7,9l0,0c6.7,9,13.8,17.6,20.6,26.8l0,0
	c2.4,3.3,5.3,6.5,8,10l0,0c0.3,0.7,2.2,1.5,3.1,3.9l0,0l-1,0.6l1.1-0.1c0,0,0,0.1,0,0.2l0,0c0,0,0,0,0,0l0,0c0,0,0,0.1,0,0.2l0,0
	l0,0l-1.4-0.1l-0.6,0.3l0,1.6c1.2-0.1,1.7-0.9,1.9-1.4l0,0c-0.7,2.6-2.8,3.6-3.5,4.6l0,0c-1.5,1.7-2.8,3.6-4.5,5.8l0,0
	c-0.9,1-1.9,1.9-2.6,2.6l0,0c-3,3.9-6.3,7.2-9.3,11.1l0,0c-0.9,0.8-1.7,1.5-2.3,2l0,0c-3.2,4.2-7.6,9-12.4,11.9l0,0l-0.2,0.1
	l-0.2,0.1c-1.4,0.5-2.9,1-4.1,1.5l0,0c-7.6,3.9-16.1,8.5-18.3,16.3l0,0c-0.2,0.5-0.2,1.1-0.2,1.8l0,0c0,1.5,0.4,3.3,0.9,4.3l0,0
	c0.7,1.7,2.7,3.3,4.4,5.5l0,0c2.6,3.6,5.6,7.1,8.2,10.8l0,0c4.9,6.8,10.8,14,14.4,22.5l0,0c0.6,1.4,0.7,2.8,0.7,4.1l0,0
	c0,1.2-0.1,2.4-0.1,3.5l0,0c0,1,0.1,1.9,0.3,2.8l0,0c0.6,2.4,1.5,4.9,2.6,6.6l0,0c4,6.5,10.5,10.5,17.6,14.8l0,0
	c3.2,2,10.4,5.7,15.7,5.6l0,0c1.5,0,2.8-0.3,3.9-0.8l0,0c0.4-1.6,0.9-3.3,0.8-4.7l0,0c0-0.6-0.1-1.1-0.2-1.6l0,0
	c-0.6-2.3-3.6-4.4-5.3-8.1l0,0c-1.8-4.1-2.6-8.7-3.7-12.9l0,0c-0.8-3.5-0.4-6.1-1-8.8l0,0c-1.3-5.5-1.3-11.6-1.3-17.9l0,0
	c0-1.5,0-3,0-4.4l0,0c0-1.6,0-3.3,0-4.9l0,0c0-3.2,0.1-6.4,0.9-9.5l0,0c2.4-9.8,5.6-17.8,9.7-25.7l0,0c2.5-4.7,4.5-11.5,9.4-15.1
	l0,0c0.1-0.1,0.2-0.1,0.2-0.2l0,0l1.8-2L277.2,707.9z M340.3,752.2C340.2,752.2,340.2,752.2,340.3,752.2L340.3,752.2
	C340.2,752.2,340.2,752.2,340.3,752.2L340.3,752.2C340.2,752.2,340.2,752.2,340.3,752.2z M341.4,748.6c0,0-0.1-0.1-0.1-0.1l0,0
	c0,0,0,0,0,0l0,0C341.4,748.5,341.4,748.5,341.4,748.6L341.4,748.6C341.4,748.6,341.4,748.6,341.4,748.6L341.4,748.6z M341.2,748.4
	c-0.1-0.1-0.2-0.1-0.3-0.1l0,0c0.1,0,0.1,0,0.2,0.1l0,0C341.1,748.4,341.2,748.4,341.2,748.4L341.2,748.4z M312.1,683.9L312.1,683.9
	z M531.7,89.2L531.7,89.2L531.7,89.2L531.7,89.2L531.7,89.2z M541.3,40.3l2-0.3L541.3,40.3z M253.7,683.7L253.7,683.7
	c0,0,0,0.2-0.1,0.4l0,0C253.7,684,253.7,683.8,253.7,683.7z M288.1,631.7c-1.1-2-1.6-3-2.5-4.2l0,0c-2-3-4.8-5.8-7.5-8.5l0,0
	c-6.1-6.3-15.5-11.3-19-21.9l0,0c-0.7-2.4-1.1-6-1.1-9.6l0,0c0-3,0.2-5.9,0.8-8l0,0c1.7-6.4,5.4-10.7,8.2-15l0,0
	c2.5-3.8,4.8-7.8,7.2-11.8l0,0c0.2,0.1-0.1-0.8,0.8-2.6l0,0c5.5-9.1,8.3-19.3,12.2-31l0,0c4.7-14.4,9.8-29.3,9.8-47.7l0,0
	c0-0.7,0-1.4,0-2.1l0,0l-0.1-5.1l3.5,3.7c2.7,3.4,2,9.5,3.1,11.7l0,0c2.9,7.2,5.5,15,8,22.5l0,0c1.5,4.5,2.2,8.6,3.8,12.5l0,0
	c6.4,15.5,12.7,29.8,21,43.2l0,0c3.1,5,5.9,10.2,9,15.2l0,0c1,1.6,2.8,3.5,4,5.8l0,0c1.1,2.3,1,5,1.1,7.7l0,0c0,2.6,0.3,5.2,0.6,5.6
	l0,0l0.5,0.8l-0.3,0.9c-1.3,3.2-4.4,3.7-5.6,4.5l0,0c-2.4,1.3-4.9,2.8-7.6,4.2l0,0c-1.4,0.6-2.8,1.2-3.9,1.7l0,0
	c-9.6,5.8-19.7,10.4-28.8,16.2l0,0c-3.6,2.3-6.9,5.2-10.2,7.7l0,0c-1.1,1.1-2.2,2.2-3.3,3.3l0,0v6.9L288.1,631.7z M277.7,554.8
	c-2.4,3.9-4.6,8-7.3,11.9l0,0c-3.1,4.6-6.3,8.4-7.7,13.8l0,0c-0.4,1.4-0.7,4.2-0.7,7l0,0c0,3.3,0.4,6.8,0.9,8.4l0,0
	c2.8,8.8,11.2,13.5,18.1,20.3l0,0c2.7,2.7,5.6,5.7,7.9,9l0,0c0.5,0.7,0.9,1.4,1.3,2.1l0,0c0.7-0.7,1.5-1.5,2.3-2.3l0,0
	c3.4-2.6,6.8-5.6,10.7-8.1l0,0c9.4-6,19.6-10.6,29.1-16.4l0,0c1.4-0.6,2.7-1.2,4-1.7l0,0c2.4-1.3,4.9-2.8,7.5-4.1l0,0
	c1.5-0.7,2.7-1.3,3.3-1.8l0,0c-0.6-1.9-0.6-4.1-0.7-6.3l0,0c0-2.6-0.2-5.3-0.7-6l0,0c-0.7-1.5-2.5-3.5-3.8-5.5l0,0
	c-3.2-5.1-6-10.3-9-15.2l0,0c-8.4-13.7-14.9-28.3-21.3-43.8l0,0c-1.8-4.4-2.5-8.6-3.9-12.7l0,0c-2.3-7-4.7-14.2-7.4-20.9l0,0
	c-1.5,14.2-5.7,26.4-9.4,37.8l0,0c-3.8,11.5-6.6,22-12.5,31.8l0,0c0,0,0,0,0,0h0C278.3,552.2,278.5,553,277.7,554.8L277.7,554.8z
	 M297.5,470.7l1.5-1.4L297.5,470.7z M337.6,174.3c-3.5-0.9-10,0-14.2-2.3l0,0h-1.8l-0.2-1.8c-0.6-4.9-2.1-9.1-4-16.2l0,0
	c-0.2-0.5-0.2-0.8-0.2-0.9l0,0c0.1-1.2,0.4-1.9,0.7-2.7l0,0c1-2.3,2.2-4.8,3-6.9l0,0c0.7-2.8,1.4-5.7,2.1-8.5l0,0l0.1-0.3l0.1-0.2
	c1-1.7,2.5-2.9,2.9-3.7l0,0c1.8-2.9,3-7.7,3-12.4l0,0c0-1.4,0.2-2.6,0.2-3.6l0,0c0-0.7-0.1-1.1-0.2-1.4l0,0c0-0.1-1.7-1.4-2.5-1.9
	l0,0l-0.9-0.6v-1c0-0.6,0-1.2,0-1.7l0,0c0-1.1-0.1-1.8-0.2-1.8l0,0l-0.4-0.5l0-0.7c0-0.1,0-0.4,0.2-1.1l0,0c0.1-0.1,0.1-0.4,0.3-0.7
	l0,0c-0.6-19.2-9.7-32.3-23.2-38l0,0c-3.5-1.5-8.8-2.6-13.8-2.6l0,0c-2.9,0-5.7,0.4-8.2,1.2l0,0c-3.7,1.2-7.6,2.8-10.6,4.7l0,0
	c-7,4.4-12.3,11.8-15.1,20.6l0,0c-0.7,2.2-0.9,5.1-1.5,8.1l0,0c-0.2,0.9-0.3,2-0.3,3.2l0,0c0,2.8,0.5,6,0.7,8.7l0,0h0.6l0.3,1.6
	c0.3,1.8,0.7,3.6,1,5.4l0,0l0.1,0.4l-0.1,0.4c-0.5,1.3-1.1,2-1,2.1l0,0c-0.1,0.4-0.2,1.2-0.2,2l0,0c0,2.7,0.7,6.6,1.2,7.9l0,0
	c0.9,2.8,2.2,6,3.6,8.3l0,0c0.3,0.6,1.9,1.6,2.9,3.5l0,0l0.1,0.2l0.1,0.2c0.2,0.8,0.3,1.5,0.4,2l0,0c1.5,3.8,4.7,11.2,6.9,12.8l0,0
	l1,0.8l-0.3,1.2c-0.7,3.1-1.7,5.5-2.9,9.2l0,0l-0.3,0.8l-0.8,0.4c-2.5,1.2-5.2,2.2-8.3,3l0,0c-2,0.3-4.1,0.5-5.9,0.7l0,0
	c-2.6,0.7-5.4,1.6-8,2.3l0,0l-0.3,0.1h-0.3c-2,0-3.9,0-5.9,0l0,0c-2.4,0-5.1,0.2-7.9,0.2l0,0c-2.1,0-4.1-0.1-5.9-0.5l0,0
	c-1-0.2-2.2-0.3-3.4-0.3l0,0c-2.7,0-5.6,0.4-8.6,0.4l0,0c-1.3,0-2.5-0.1-3.7-0.3l0,0c-3.7,0-7.4,0-11.3,0l0,0
	c-5.8-0.5-12.6-0.3-18.2-1.5l0,0c-1.5-0.1-3.1-0.2-4.6-0.3l0,0l-0.2,0l-0.2,0c-4.8-1.1-10.6-1.3-15.5-2.5l0,0
	c-1.8-0.3-3.6-0.5-5.4-0.8l0,0l-0.2,0l-0.2-0.1c-3.4-1.4-5.6-4.7-7.3-6.8l0,0c-2.1-2.8-5.6-5.3-8.2-8.7l0,0c-1.1-1.5-2.2-3-3.2-3.7
	l0,0c-4.2-3.2-8-6.9-12-9.7l0,0c-10.3-7.4-20.7-14.5-31.1-21.9l0,0c-9.5-6.7-18.5-14-27.6-20.9l0,0c-1.1-0.9-2.5-2.5-4-4.1l0,0
	c-1.1-1.2-2.3-2.4-2.9-2.8l0,0l-2.5,0.6l0.7-3.1c0.7-3.3,0.9-7.7,1.8-11.8l0,0c0.1-0.6,0.2-1.4,0.2-2.3l0,0c0-0.6,0-1.2,0-1.8l0,0
	c0-0.5,0-1.1,0.1-1.5l0,0c0-1.3,0.1-4.3,0.3-5.7l0,0l0.1-0.5l0.3-0.4c1.8-1.9,3.3-1.4,5.3-1.6l0,0c3.1,0,6.9,0.5,9,1.1l0,0
	c2.6,0.8,4.3,2.5,5.8,3.2l0,0c1.4,0.8,1.5,1,2,1.1l0,0c3.5-0.6,8.6-6.9,13.4-9.6l0,0c13.8-7.2,28.5-12.8,43.1-18.9l0,0
	c17-7,35.2-11.7,53.8-16l0,0c11.8-2.8,42.4-8.2,57.4-9.6l0,0c10.3-1,43.7-2.6,47.2-2.6l0,0c1.2-0.1,3.2-0.1,5.7-0.1l0,0
	c7.7,0,19.5,0.3,22.8,0.3l0,0c4.1,0.1,25.1,1.3,41.6,2.6l0,0c10.3,1.1,17,2,25.3,3.1l0,0c7.7,1,12.1,1.7,18.1,2.8l0,0
	c16.8,3.2,29,5.6,45.1,9.3l0,0c10.7,2.4,21.6,5,32.1,8.5l0,0c3.7,1.2,7.8,2.3,11.8,3.6l0,0c2.6,0.8,6.1,1.9,8,2.6l0,0l0.5,0.2
	l0.4,0.4c0,0,0.1,0.1,0.1,0.1l0,0l0.8,0.7l-0.1,1.1c-0.2,1.5-0.3,3-0.3,4.5l0,0c0,5,0.8,10,0.8,15.8l0,0c0,1.8-0.3,3.8-0.3,5.3l0,0
	c0,1.1,0.3,1.8,0.3,1.9l0,0l0.8,0.9l-0.4,1.1c-2,5.7-7.5,8.7-9.8,11.9l0,0c-2.7,3.5-5.9,6.2-8.7,9l0,0c-4.7,4.7-9.3,9.6-14.9,13.8
	l0,0c-2.2,1.7-4.3,4.7-7.2,6.9l0,0c-4.3,3.2-8.5,7.4-11.9,12l0,0c-1,0.9-1.9,1.7-2.6,2.3l0,0c-2.4,3.2-5.3,5.4-7.2,8l0,0
	c-2.7,3.5-7.3,9.5-11.3,12.3l0,0c-9.1,6.4-23.6,10.4-35.1,13.7l0,0c-5.1,1.4-9.7,1.4-14.2,2.6l0,0c-6.6,1.7-13.2,2.3-19.5,4.1l0,0
	c-4.6,1.3-9.7,2.5-14.3,3.6l0,0c-0.5,0.1-1,0.1-1.5,0.1l0,0C345.1,176,339.4,174.7,337.6,174.3L337.6,174.3z M338.4,170.4
	c1.7,0.4,7.6,1.6,10,1.6l0,0c0.3,0,0.6,0,0.6,0l0,0c4.5-1.1,9.6-2.3,14.1-3.6l0,0c6.8-1.9,13.4-2.5,19.6-4.1l0,0
	c5.2-1.4,9.8-1.3,14.1-2.6l0,0c11.4-3.2,25.7-7.3,33.9-13.1l0,0c3-2.1,7.8-8,10.4-11.4l0,0c2.4-3.1,5.3-5.4,7.5-8.2l0,0
	c0.9-0.9,1.9-1.7,2.6-2.3l0,0c3.5-4.6,7.9-9,12.5-12.5l0,0c2.2-1.6,4.2-4.7,7.2-6.9l0,0c5.2-3.9,9.7-8.7,14.5-13.5l0,0
	c3-3,6-5.5,8.3-8.5l0,0c3-3.8,7.4-6.6,8.9-9.9l0,0c-0.5-1.1-0.6-2.3-0.6-3.4l0,0c0-2,0.3-4,0.3-5.3l0,0c0-5.4-0.8-10.4-0.8-15.8l0,0
	c0-1.2,0-2.3,0.1-3.6l0,0c-1.9-0.6-4.6-1.5-6.7-2.1l0,0c-3.9-1.2-8-2.3-11.9-3.6l0,0c-10.3-3.4-21-6-31.7-8.4l0,0
	c-16-3.6-28.2-6-45-9.2l0,0c-6-1.2-10.2-1.8-17.9-2.8l0,0c-8.3-1.1-14.9-2-25.1-3.1l0,0c-16.4-1.3-37.5-2.5-41.4-2.6l0,0
	c-3.2-0.1-15.1-0.3-22.7-0.3l0,0c-2.4,0-4.4,0-5.5,0.1l0,0c-3.2,0-37,1.5-46.9,2.6l0,0c-14.6,1.3-45.3,6.8-56.8,9.5l0,0
	c-18.6,4.4-36.6,9-53.2,15.8l0,0C122,49,107.4,54.7,93.9,61.7l0,0c-3.7,1.7-8.6,8.7-14.7,10l0,0l-0.2,0h-0.2c-2.3,0-3.6-1.3-4-1.5
	l0,0c-2.1-1.1-3.7-2.6-5.1-3l0,0c-1.4-0.4-5.2-1-7.9-0.9l0,0c-0.7,0-1.3,0-1.7,0.1l0,0c-0.1,1.4-0.2,3.4-0.2,4.2l0,0
	c0,0.4,0,0.9,0,1.3l0,0c0,0.6,0,1.2,0,1.8l0,0c0,1,0,2-0.3,3.1l0,0c-0.7,3.2-0.9,6.9-1.5,10.3l0,0c1.1,0.8,1.8,1.9,3.1,3l0,0
	c1.6,1.7,3.4,3.7,3.9,4l0,0c9.2,6.9,18.1,14.2,27.5,20.8l0,0c10.4,7.3,20.8,14.4,31.2,21.9l0,0c4.3,3.1,8.2,6.8,12.1,9.8l0,0
	c1.8,1.3,3,3.2,4,4.5l0,0c2.1,2.8,5.6,5.3,8.2,8.7l0,0c1.5,2,3.7,4.7,5.3,5.4l0,0c1.7,0.2,3.5,0.5,5.4,0.8l0,0
	c4.5,1.1,10.2,1.3,15.5,2.5l0,0c1.5,0.1,3,0.2,4.8,0.3l0,0c5.1,1.1,11.9,0.9,17.8,1.5l0,0c3.8,0,7.5,0,11.3,0l0,0h0.2l0.2,0
	c0.9,0.2,2,0.3,3.1,0.3l0,0c2.6,0,5.5-0.4,8.6-0.4l0,0c1.4,0,2.8,0.1,4.2,0.4l0,0c1.4,0.3,3.2,0.4,5.1,0.4l0,0
	c2.6,0,5.3-0.2,7.9-0.2l0,0c1.9,0,3.7,0,5.6,0l0,0c2.3-0.6,5.1-1.6,8-2.3l0,0c2.1-0.3,4.1-0.5,5.9-0.7l0,0c2.3-0.6,4.5-1.4,6.6-2.4
	l0,0c0.9-2.8,1.7-4.8,2.3-6.9l0,0c-3.2-3.5-5.6-10-7.2-13.8l0,0c-0.2-0.7-0.3-1.4-0.5-2.1l0,0c-0.4-0.5-1.7-1.5-2.6-3l0,0
	c-1.7-2.7-3.1-6.2-4-9.2l0,0c-0.6-1.9-1.4-5.7-1.4-9.1l0,0c0-1.1,0.1-2.1,0.3-3.1l0,0c0.3-0.9,0.6-1.4,0.9-1.8l0,0
	c-0.2-1-0.4-2.1-0.6-3.1l0,0h-1l-0.1-1.9c-0.1-2.6-0.9-6.8-0.9-10.8l0,0c0-1.4,0.1-2.8,0.4-4.1l0,0c0.6-2.4,0.7-5.5,1.6-8.4l0,0
	c3.1-9.5,8.9-17.7,16.8-22.7l0,0c3.4-2.2,7.6-3.8,11.5-5.1l0,0c3-1,6.2-1.3,9.4-1.4l0,0c5.7,0,11.3,1.2,15.4,3l0,0
	c15.4,6.5,25.7,22,25.7,43.3l0,0v2.3c0,0.3,0,0.6,0,0.9l0,0c0,0.2,0,0.4,0,0.6l0,0c0.9,0.6,2,1.4,2.8,2.6l0,0
	c0.6,1.1,0.7,2.3,0.7,3.3l0,0c0,1.4-0.2,2.7-0.2,3.6l0,0c-0.1,5.3-1.4,10.6-3.6,14.4l0,0c-0.9,1.5-2.2,2.6-2.7,3.3l0,0
	c-0.6,2.7-1.3,5.5-2.1,8.4l0,0c-0.9,2.5-2.2,5.2-3.1,7.3l0,0c-0.1,0.2-0.2,0.5-0.3,0.8l0,0c0,0.1-0.1,0.1-0.1,0.2l0,0
	c1.7,6.4,3.2,10.6,3.9,15.5l0,0C326.9,169.8,333.9,169.5,338.4,170.4L338.4,170.4z M252.5,111.4l-2,0.4L252.5,111.4L252.5,111.4
	L252.5,111.4z"/>
<polygon id="polygon8082" points="199.6,524.6 201.2,505.3 218.7,514.5 "/>
<polygon id="polygon8084" class="st1" points="198.8,545.5 199.7,536.2 199.6,524.5 218.7,514.5 258.1,535.2 218.7,556 "/>
<polygon id="polygon8086" class="st2" points="264.1,572.4 233.3,565.8 218.7,556 258.1,535.2 279.6,546.6 271.2,562.5 "/>
<polygon id="polygon8088" class="st3" points="375.8,601.6 384.4,638.2 411.9,609.8 408.3,576.3 375.8,596.4 "/>
<polygon id="polygon8090" class="st2" points="346.8,578.2 349.3,593.1 340.6,598.7 358,608.5 375.8,600.4 368.9,586.5 "/>
<polygon id="polygon8092" class="st4" points="349.3,632.4 335.5,600.2 309.6,615.5 303.4,622.9 "/>
<path id="path8094" inkscape:connector-curvature="0" d="M340.3,596.9c-0.4-0.2-5.2,1.3-4.4,4.5c2.3,9.8,16.9,37.6,16.9,37.6
	s37.8-4.7,36.5-5c-6.4-1.9-13.4-33.5-13.4-33.5S347.4,600.7,340.3,596.9L340.3,596.9z"/>
<path id="path8096" inkscape:connector-curvature="0" class="st3" d="M304.3,619.7c0,0,14.1,40.2,18.5,44.5c3.5,3.5,11.2,5,11.2,5
	l24.3-15.1l-9-21.8C349.3,632.3,316.9,625.9,304.3,619.7z"/>
<path id="path8098" inkscape:connector-curvature="0" d="M291.6,628.4l-10.5,22.1l-1.9,4.6c0,0,38.9,12.3,43.6,9.2
	c1-0.7-18.1-46-18.1-46L291.6,628.4z"/>
<path id="path8100" inkscape:connector-curvature="0" class="st1" d="M349.3,632.3l7.9,22.3l15.7-9.8l16.4-10.8
	C377.5,636.6,349.3,632.3,349.3,632.3L349.3,632.3z"/>
<polygon id="polygon8102" class="st5" points="333.2,670.8 341.6,666.4 322.6,664.2 322.9,676.6 "/>
<path id="path8104" inkscape:connector-curvature="0" class="st1" d="M279.1,655c0,0,9.2,22.5,17.2,35.2l31-16.1
	c0,0-4.5-9.9-4.7-9.9C311.8,663.4,279.1,655,279.1,655L279.1,655z"/>
<path id="path8106" inkscape:connector-curvature="0" class="st1" d="M242.2,694.9l-10.7,13.8c0,0,39.1,13.3,37.8,10.5
	c-4.8-10.8-12.6-39.9-12.6-39.9L242.2,694.9z"/>
<path id="path8108" inkscape:connector-curvature="0" class="st5" d="M257.1,681.4c0,0-3.8,26.7,11.7,39.2l5.2-10.4l-2.8-9.5
	C271.2,700.6,263.5,687.7,257.1,681.4z"/>
<path id="path8110" inkscape:connector-curvature="0" class="st2" d="M232.2,708.4c0,0-24.6,10.8,23.5,38.8c2,1.2,1.9-6.7,1.9-6.7
	l11.9-20.4L232.2,708.4z"/>
<path id="path8112" inkscape:connector-curvature="0" class="st4" d="M264.1,572.4l-8.2,1.8l-26.2,16.2l0.5,9.8l34.1,8.6
	c0,0,3.2-2.9,2.9-2.9s-5.4-6.1-5.4-6.1l-2.2-16.9L264.1,572.4z"/>
<polygon id="polygon8114" class="st1" points="213.5,626.1 204.4,626.6 194.2,615.3 192.4,601.1 196.4,582.5 230.7,596.4 "/>
<polygon id="polygon8116" points="246.6,634.7 269.1,607.9 289.5,629.9 293.4,638.7 "/>
<path id="path8118" inkscape:connector-curvature="0" class="st2" d="M265.5,603.2c0.4-0.1,4.6,2.7,3,5.6
	c-5,8.7-26.9,31.2-26.9,31.2s-38.4-13.5-37.1-13.5c6.6,0,26-30.1,26-30.1S257.6,604.9,265.5,603.2z"/>
<path id="path8120" inkscape:connector-curvature="0" class="st4" d="M293.4,635.4c0,0-25,34.5-30.4,37.3c-4.4,2.4-15.2,6-15.2,6
	L230,655.5l16.7-20.9C246.7,634.6,279.6,637.7,293.4,635.4L293.4,635.4z"/>
<path id="path8122" inkscape:connector-curvature="0" class="st3" d="M294.7,638.6l12.1,33l0.5,4.9c0,0-40.8,0.6-44.4-3.7
	c-0.8-0.9,28.1-34.5,28.1-34.5L294.7,638.6z"/>
<path id="path8124" inkscape:connector-curvature="0" class="st5" d="M246.7,634.6l-17,23.5l-10.5-16.7L206,626.9
	C216.5,632.8,246.7,634.6,246.7,634.6z"/>
<polygon id="polygon8126" class="st2" points="249.7,679.4 239.5,669.6 263.1,672.8 255.9,689.6 "/>
<path id="path8128" inkscape:connector-curvature="0" d="M307.5,676.5c0,0-16.8,24.7-28.1,34.5l-26.7-26.5c0,0,10.3-11.7,10.4-11.7
	C273.7,675.2,307.5,676.5,307.5,676.5z"/>
<path id="path8130" inkscape:connector-curvature="0" class="st1" d="M314.7,697.5l8.9,17.2l-46.5-4.4c4.1,0.7,30.3-33.7,30.3-33.7
	L314.7,697.5z"/>
<path id="path8132" inkscape:connector-curvature="0" class="st5" d="M327.5,728l8.9,14.4c0,0-41.7,1.6-39.7-0.7
	c7.7-8.9,21-34.8,21-34.8L327.5,728z"/>
<path id="path8134" inkscape:connector-curvature="0" class="st3" d="M320.9,708c0,0-4.9,26.9-23.3,34.5l-3.9-8.9l-15.8-23.3
	C277.9,710.3,313,712.2,320.9,708L320.9,708z"/>
<path id="path8136" inkscape:connector-curvature="0" class="st1" d="M336.7,741.5c0,0-11.2,22-29.2,33.8
	c-1.9,1.3-3.9-10.8-3.9-10.8l-5.6-23H336.7z"/>
<path id="path8138" inkscape:connector-curvature="0" class="st5" d="M264.5,571.1c0,0-22.6,14.5-33.8,25.3l-34.5-12.1l0.7-9.5
	l21.6-18.4C218.5,556.2,250,570.7,264.5,571.1z"/>
<path id="path8140" inkscape:connector-curvature="0" class="st1" d="M52.2,94.6l9.8,21.3l11.4-13.1c0,0-8.5-6.6-12.4-11.4
	C58.1,87.8,52.2,94.6,52.2,94.6z"/>
<path id="path8142" inkscape:connector-curvature="0" class="st3" d="M38.6,112.9l18,25.3l5.6-23.3l-10-20.3
	C52.2,94.6,40.7,102.9,38.6,112.9z"/>
<path id="path8144" inkscape:connector-curvature="0" class="st4" d="M72.9,158l28.8,32.1l9.9-23.9c0,0-31.3-25.1-32.4-24.1
	C73.6,147.9,72.9,158,72.9,158z"/>
<path id="path8146" inkscape:connector-curvature="0" class="st2" d="M60.9,113.8c-2.2,5.8,19.1,29.8,19.1,29.8l23.8-17
	c0,0-18.9-10.3-29.4-24.2C74.4,102.5,64.7,103.9,60.9,113.8z"/>
<path id="path8148" inkscape:connector-curvature="0" class="st5" d="M54.4,136.2c0,0,26.6,30.2,21.5,23.6
	c-5.1-6.6,3.3-17.7,3.3-17.7c-11.9-12.2-17.5-29.2-18.4-28.3C52.1,123.6,54.4,136.2,54.4,136.2L54.4,136.2z"/>
<path id="path8150" inkscape:connector-curvature="0" d="M79.2,142.1c1.6,6.7,31.2,26.1,31.2,26.1l24.3-21l-30.6-21.8
	C89.4,128,79.2,142.1,79.2,142.1z"/>
<path id="path8152" inkscape:connector-curvature="0" class="st1" d="M109.3,168.6l31.2,25.1l30.2-23.5c0,0-13.9-0.5-23.1-6.4
	c-7.9-5.1-11.2-15.8-12.2-15.7C124.4,148.8,109.3,168.6,109.3,168.6z"/>
<path id="path8154" inkscape:connector-curvature="0" class="st3" d="M100.9,189.4l37.4,27.8l6-29.5c0,0-17.4-7-34.4-19.9
	C109.8,167.7,100.4,180.8,100.9,189.4z"/>
<path id="path8156" inkscape:connector-curvature="0" class="st4" d="M186.3,171.5c-2.3,8.1,33,11.7,33,11.7l20.8-10.7l-48.5-0.5
	C191.6,172,186.8,169.8,186.3,171.5z"/>
<path id="path8158" inkscape:connector-curvature="0" class="st5" d="M136.9,215.5c0,0,30.2,17.9,30.1,16.7
	c-1.2-14,15.2-26.9,15.2-26.9L144.7,187C144.7,187,135,201.1,136.9,215.5L136.9,215.5z"/>
<polygon id="polygon8160" class="st2" points="234.3,382 258.1,369.5 239.1,359.5 238.8,367.9 238,374.2 236.2,377.8 "/>
<polygon id="polygon8162" class="st4" points="239.5,359.7 258.1,369.5 297.5,348.8 258.1,328 233.4,340.4 236.9,357.5 "/>
<polygon id="polygon8164" class="st5" points="234.6,340.3 258,328 223.8,309.9 229,323 232.3,331.9 233.8,337 "/>
<path id="path8166" inkscape:connector-curvature="0" class="st2" d="M220.8,306.1l2.6,4.8c0.5-0.1,5.6,1.9,5.6,1.9l29,15.3
	l39.4-20.8L258,286.5L220.8,306.1z"/>
<polygon id="polygon8168" class="st1" points="219,299.9 222.3,305.3 258,286.5 218.7,265.8 210.3,270 212.4,284.8 "/>
<polygon id="polygon8170" class="st3" points="209.3,261.6 216.5,264.7 218.7,265.9 258.1,245.1 218.7,224.4 187.2,242.7 
	202.9,251.9 "/>
<polygon id="polygon8172" class="st5" points="297.4,265.8 258,245 218.6,265.8 258,286.6 "/>
<polygon id="polygon8174" class="st1" points="297.4,224.4 258.1,203.6 215,222.3 258.1,245.1 "/>
<path id="path8176" inkscape:connector-curvature="0" d="M171.2,199.6l47.5,24.8c2.7-3.1,39.4-20.8,39.4-20.8l-39.4-20.8
	L171.2,199.6z"/>
<polygon id="polygon8178" class="st3" points="258.1,203.6 297.4,182.9 271.9,169.4 259.3,169.5 238.8,172.3 218.7,182.9 "/>
<polygon id="polygon8180" class="st5" points="297.4,182.9 258,203.6 297.4,224.4 "/>
<polygon id="polygon8182" class="st2" points="297.4,224.3 258,245.1 297.4,265.8 "/>
<polygon id="polygon8184" class="st4" points="297.4,265.8 258,286.5 297.4,307.3 "/>
<polygon id="polygon8186" points="297.4,307.3 258.1,328 297.4,348.8 "/>
<polygon id="polygon8188" class="st3" points="297.4,348.8 258.1,369.5 297.4,390.2 "/>
<polygon id="polygon8190" class="st2" points="297.4,390.2 258,410.9 297.4,431.7 "/>
<polygon id="polygon8192" class="st4" points="297.4,431.7 258,452.4 297.4,473.2 "/>
<path id="path8194" inkscape:connector-curvature="0" class="st4" d="M161.5,228.1l20.8,11.1c0,0,9.8,8.7,10.6,6.3
	c2.4-6.6,25.9-21,25.9-21l-36.8-19.2C182.1,205.3,166.3,217.2,161.5,228.1z"/>
<path id="path8196" inkscape:connector-curvature="0" class="st2" d="M144.2,187.6c13.5,8.5,37.8,17.7,37.8,17.7
	c15.8-12,18.8-14.7,37.2-22.1c0,0-14.2-2.6-45.7-14.2C173.6,169,156.8,171.7,144.2,187.6z"/>
<polygon id="polygon8198" class="st3" points="325,541.5 317.2,524.9 336.8,535.3 "/>
<polygon id="polygon8200" points="311.2,507.3 309.4,502.4 304.7,488.5 300.8,479.2 300.7,474.8 336.8,493.8 "/>
<polygon id="polygon8202" class="st5" points="382.6,428.2 384.5,436.1 376,431.6 "/>
<polygon id="polygon8204" class="st3" points="376.1,431.6 336.7,410.9 368.9,393.9 372.1,403.1 376.7,412.6 382.3,428.3 "/>
<polygon id="polygon8206" points="210.3,270 210.1,261.3 218.7,265.9 "/>
<polygon id="polygon8208" class="st4" points="368.3,394.2 336.7,410.9 297.3,390.1 336.7,369.4 362,382.8 365.5,389.3 "/>
<polygon id="polygon8210" class="st2" points="391.4,465 396.1,483.6 376.1,473.1 "/>
<polygon id="polygon8212" class="st3" points="237.8,380 237.9,372.3 237.4,358.5 258,369.3 "/>
<polygon id="polygon8214" points="229.8,396 233.4,388.4 237,380.4 258,369.3 297.3,390.1 258,410.8 "/>
<polygon id="polygon8216" class="st1" points="257.9,410.8 297.3,390.1 336.7,410.8 297.3,431.6 "/>
<polygon id="polygon8218" points="297.3,431.6 336.7,410.8 376.1,431.6 336.7,452.3 "/>
<polygon id="polygon8220" class="st1" points="391,465.2 376.1,473.1 336.7,452.3 376.1,431.6 384.5,436 388.3,455.8 "/>
<polygon id="polygon8222" class="st3" points="218.6,431.6 258,410.8 297.3,431.6 258,452.3 "/>
<polygon id="polygon8224" class="st5" points="258,452.3 297.3,431.5 336.7,452.3 297.3,473.1 "/>
<polygon id="polygon8226" class="st3" points="297.3,473.1 336.7,452.3 376.1,473.1 336.7,493.8 "/>
<polygon id="polygon8228" class="st5" points="400.1,501.9 376.1,514.5 336.7,493.8 376.1,473 396.7,483.9 398.7,493 "/>
<polygon id="polygon8230" class="st4" points="218.6,431.6 216.7,430.5 219.6,424.5 220.8,417.8 229.8,396 258,410.8 "/>
<polygon id="polygon8232" class="st4" points="400.5,501.7 404,529.3 376.1,514.5 "/>
<polygon id="polygon8234" class="st2" points="295.1,502.7 292,511.7 258,493.8 297.4,473 300.6,474.7 297.9,484.9 "/>
<polygon id="polygon8236" class="st1" points="318.3,525.5 314.1,517.2 311,507.4 336.8,493.8 376.2,514.5 336.8,535.3 "/>
<polygon id="polygon8238" class="st2" points="405.5,540.6 376.2,556 336.8,535.3 376.2,514.5 404.3,529.3 405,535.2 "/>
<polygon id="polygon8240" points="408.9,575.2 376.2,556 405.6,540.5 406.3,550.6 406.9,563.9 408.1,569.4 "/>
<polygon id="polygon8242" class="st1" points="218.7,473.1 258,452.3 297.4,473.1 258,493.8 "/>
<polygon id="polygon8244" class="st5" points="340.2,569 331.8,555.1 325,541.5 336.8,535.3 376.2,556 345,575.9 "/>
<path id="path8246" inkscape:connector-curvature="0" class="st4" d="M408.1,574.1l0.4,3.3c0,0,4.8-1.9,0.1,5.8
	c-4.7,7.8-32.8,17.2-32.8,17.2s-24.9-15.3-28.3-20.7c-3.4-5.4-0.7-1.5-0.7-1.5l-2.3-2.6l31.7-19.6L408.1,574.1z"/>
<polygon id="polygon8248" class="st4" points="289.6,518.7 278.4,546 258,535.3 "/>
<polygon id="polygon8250" class="st3" points="198.5,575 198.5,545.3 218.7,556 "/>
<polygon id="polygon8252" points="207.5,467.2 210.7,451.8 216.4,432.8 218.7,431.6 258,452.3 218.7,473.1 "/>
<polygon id="polygon8254" class="st4" points="204.1,480.7 207.5,467.2 218.7,473.1 "/>
<polygon id="polygon8256" class="st3" points="201.3,505.4 203.3,492.2 204.8,480.4 218.7,473 258,493.8 218.7,514.5 "/>
<polygon id="polygon8258" class="st5" points="290.1,518.4 258,535.3 218.7,514.5 258,493.8 292,511.7 291.2,515.2 "/>
<path id="path8260" inkscape:connector-curvature="0" d="M250.4,684.9l2.8-2.9c0,0,12.5,11.8,23,23.9l0,0l-3,2.6
	C262.9,696.8,250.7,685.2,250.4,684.9z M250.4,684.9C250.4,684.9,250.4,684.9,250.4,684.9L250.4,684.9L250.4,684.9L250.4,684.9z"/>
<polygon id="polygon8262" class="st0" points="307.5,180.2 324.5,173 319.2,153.3 268.8,155.8 263.9,170 281.4,181 "/>
<path id="path8264" inkscape:connector-curvature="0" class="st6" d="M86.2,63.6c0,0,159.6-101.2,421.4-17.1l4.5-5.5
	c0,0-254.3-94.6-453.6,13.1"/>
<path id="path8266" inkscape:connector-curvature="0" d="M91.4,61.3C88.8,54.7,60,52.1,60,52.1c-8.7,0.2-36.1,12.3-47.9,19.8
	C-6.2,83.4,10.4,89.4,14.8,90c3.2,0.4,7-1.4,12.3-4.5c6-3.5,15.9-8.2,18-9.8C49.6,72.2,59.6,65,67.6,65c6.4,0,6.6,2.9,12.4,4.6
	C80.8,69.9,91.6,61.8,91.4,61.3"/>
<path id="path8268" inkscape:connector-curvature="0" class="st0" d="M56.4,64.4l0.6-5.8c-5.6-4-12.9-9.9-20.6-8.3
	c-1.9,0.4-2.4,2.3-3.8,2.8c0,0-6-2.8-7.6,3.7c-4.6,0-6.5,1-6.5,5.2c-4.4,0-8.4,2.7-6.3,5.7c4.3,6.1,4.3,9.6,9.8,9.6
	c2.3,0,4.2-1.9,3.7-3.1c8.6,7.3,10.1,0.5,10.1-1.2c1.3,1.2,3.3,0.9,4.7,0.7c1.2-0.2,2-0.5,1.6,0.3c-2.3,4.2-11.2,8.8-14.9,11.3
	c-1.9,1.2-2.3,1.4-5,3.1L33.5,101c-0.5,1.3,1.2,7.7,2.4,7c3.7-2.3,16.8-11.8,17.5-12.5C54,95,59,91,59,91c0.3-1.5-3.2-2.6-3.1-2.8
	c3.3-7.6,2.9-19.9,2.9-21C58.9,66.5,57.1,64.4,56.4,64.4"/>
<path id="path8270" inkscape:connector-curvature="0" class="st0" d="M504.8,44l13.6,0.1c0.1-0.2-8-4.5-8-4.5l10-8.5
	c6.2-3,8.3,5.9,9.7,6.4c0,0,10.4-5.2,11.3,3.1c4.6,0,6.4,1,6.4,5.3c4.4,0,6.8,4.5,6.2,8.1c-2.5,16-21.3,28.2-22.1,33.1
	c-0.2,1.2-25.2-10.2-26.3-11.3c-2.9-2.8,0.5-4.2-1.8-24.2C503.8,50.9,504.1,44,504.8,44"/>
<path id="path8272" inkscape:connector-curvature="0" d="M514.2,51.9c2.9-1,2.7-0.6,4.3-2.2c2.7-2.6,1.3-7,4.2-6
	c0.8,0.3,2.4,3.5,2,4.3c-0.9,2-1.1,2.3-2.4,4.1l0,0c-0.3,1.2-2.8,1.5-2.8,1.5c-1.6-0.3-2.9,0.9-2.9,2.5c0,4,2.1,3.5,1.4,4.9
	c-0.8,1.4-3-0.6-3-0.6c-0.5-1.1-0.8-2.3-1.1-3.8c-0.2-1.3-0.4-3.3,0.1-4.3"/>
<path id="path8274" inkscape:connector-curvature="0" class="st0" d="M220.3,719c1.1-0.8,2.5-2,4-3.4c2.1,3.8,6.2,10.4,10.9,14.3
	c1.2,1,2.6,1.9,3.9,2.7c-0.1,0,0.5,0.4,1.4,0.9c2.8,1.6,5.6,2.8,7.7,3.6c0.8,0.4,1.6,0.7,2.1,0.9c0,0,4.4,1.4,7.4,2.4
	c0.6,0.2,1.1,0.3,1.7,0.4c-1.7,5.1-2.4,10.1-2.9,15.6c-0.8,9.1,0.2,21.2,0.2,21.2c0-0.5-31.6-9.7-38.4-57L220.3,719"/>
<path id="path8276" inkscape:connector-curvature="0" d="M257.4,783.6c-0.2-1.9-0.4-3.9-0.6-6.1c0-0.5-31.6-9.7-38.4-57
	c-0.1-0.4-11.4,3.5-18.3,10.2c-5.1,5-8.5,11.6-3.1,18.5c36.7,46.7,21.5,36.1,26.5,48.9c6.4,16.7,42.1,32.1,43.9,23.1
	C270.2,806.8,261.3,818.7,257.4,783.6"/>
<path id="path8278" inkscape:connector-curvature="0" d="M257.4,783.6l0.2,0c-0.2-1.9-0.4-3.9-0.6-6.1v0c0-0.1-0.1-0.1-0.1-0.2
	c-0.1-0.1-0.3-0.2-0.6-0.3c-4.2-1.8-31.5-13-37.7-56.6l-0.1-0.2l-0.1,0c-0.2,0-0.4,0.1-0.8,0.2c-2.7,0.9-11.2,4.8-17,10.4
	c-3.2,3.1-5.6,6.8-5.6,10.9c0,2.4,0.9,5,2.9,7.6c11.8,15,18.3,24.1,21.8,30c3.5,6,4.1,8.6,4.1,10.8c0,1.1-0.2,2.1-0.2,3.3
	c0,1.4,0.2,3.1,1.2,5.5c2.6,6.7,9.4,13,16.9,17.6c7.5,4.6,15.6,7.6,20.7,7.6c1.4,0,2.5-0.2,3.4-0.7c0.9-0.5,1.5-1.2,1.7-2.2
	c0.4-1.9,0.6-3.4,0.6-4.6c0-1.9-0.5-3-1.2-4.1c-1.1-1.7-2.7-3.2-4.5-7.1c-1.7-4-3.5-10.4-4.8-21.8L257.4,783.6l-0.2,0
	c1.7,15.2,4.3,21.6,6.5,25.2c1.1,1.8,2.1,2.8,2.8,3.9c0.7,1.1,1.1,2.1,1.1,3.9c0,1.1-0.2,2.6-0.6,4.5c-0.2,0.9-0.7,1.5-1.5,1.9
	c-0.8,0.4-1.9,0.6-3.2,0.6c-5,0-13-2.9-20.5-7.6c-7.4-4.6-14.3-10.9-16.8-17.4c-0.9-2.5-1.2-4.1-1.2-5.4c0-1.1,0.2-2.1,0.2-3.3
	c0-2.2-0.6-5-4.2-11c-3.6-6-10.1-15.1-21.8-30.1c-2-2.5-2.8-5-2.8-7.3c0-3.9,2.3-7.5,5.5-10.6c3.3-3.2,7.4-5.8,10.9-7.6
	c1.7-0.9,3.3-1.6,4.5-2.1c0.6-0.3,1.1-0.4,1.4-0.6c0.4-0.1,0.6-0.2,0.7-0.2l0-0.1l-0.1,0.1l0.1,0l0-0.1l-0.1,0.1l0.1-0.1l-0.2,0
	l0.1,0.1l0.1-0.1l-0.2,0c3.4,23.7,13,37.9,21.8,46.2c4.4,4.1,8.6,6.8,11.6,8.5c1.5,0.8,2.8,1.4,3.7,1.8c0.4,0.2,0.8,0.3,1,0.4
	c0.1,0.1,0.2,0.1,0.3,0.1l0,0l0.1-0.1l-0.2,0c0,0.1,0.1,0.1,0.1,0.1l0.1-0.1l-0.2,0l0.2,0l-0.2,0c0.2,2.2,0.4,4.2,0.6,6.1
	L257.4,783.6"/>
<path id="path8280" inkscape:connector-curvature="0" d="M308.2,818.6c0-0.2,0.1-0.5,0.1-0.7C308.2,818.2,308.2,818.4,308.2,818.6"
	/>
<path id="path8282" inkscape:connector-curvature="0" d="M308.2,818.6l0.2,0c0-0.2,0.1-0.4,0.1-0.7l-0.4,0c0,0.2-0.1,0.4-0.1,0.7
	l0.4,0L308.2,818.6l0.2,0c0-0.2,0-0.5,0.1-0.7l-0.2,0l-0.2,0c0,0.2-0.1,0.5-0.1,0.7L308.2,818.6l0.2,0L308.2,818.6"/>
<path id="path8284" inkscape:connector-curvature="0" class="st0" d="M340.1,749.7c0-0.1,0.7,0.5,1.8,1.5l-0.8-0.1
	c0,0-1.8-4.4-5.7-11.6c-2.7,1.6-8.1,4.5-17.5,8.7c-9.4,4.2-13.8,5.2-15.8,5.3c3.5,12,5.6,30.5,6.4,47c0.4,8.5,0.1,14-0.3,17.4
	C309.2,812.6,316.3,820.3,340.1,749.7"/>
<path id="path8286" inkscape:connector-curvature="0" d="M341.9,751.2c-1.1-1-1.8-1.6-1.8-1.5c-23.8,70.6-30.9,62.8-31.9,68.2
	c0,0.2-0.1,0.5-0.1,0.7c0,0.1,0,0.2,0,0.3c-0.1,1.5-0.4,2.9-0.8,4.1c-4.5,14.1-27.4,14.6-22.5,30c1.6,4.9,41.6,2.1,48-14.6
	c4.9-12.9-6-8.8,30.7-55.4C367.7,777.8,348,756.9,341.9,751.2"/>
<path id="path8288" inkscape:connector-curvature="0" d="M341.9,751.2l0.1-0.1c-0.5-0.5-0.9-0.8-1.2-1.1c-0.2-0.1-0.3-0.2-0.4-0.3
	l-0.1-0.1l-0.2-0.1l-0.2,0.1c-11.9,35.3-19.6,51-24.5,58.5c-2.4,3.8-4.1,5.5-5.3,6.6c-1.2,1.1-1.8,1.7-2.1,3.1v0
	c0,0.2-0.1,0.5-0.1,0.7c0,0.1,0,0.2,0,0.3c-0.1,1.5-0.4,2.8-0.8,4.1c-2,6.3-7.8,9.9-13,13.3c-2.6,1.7-5.2,3.4-7.1,5.4
	c-1.9,2-3.1,4.3-3.1,7.3c0,1.3,0.2,2.6,0.7,4.1c0.3,0.8,1.4,1.4,3,1.8c1.6,0.4,3.8,0.6,6.3,0.6c6.3,0,14.9-1.2,22.5-3.9
	c7.6-2.7,14.2-6.9,16.6-13c1.2-3.2,1.5-5.4,1.7-7.5c0.4-3.2,0.7-6.4,4.4-13.2c3.7-6.8,10.8-17.1,24.6-34.6c0.4-0.5,0.6-1.2,0.6-2
	c0-1.9-1.1-4.3-2.7-7.1c-5-8.3-15.4-19.1-19.6-23L341.9,751.2l-0.1,0.1c2.8,2.6,8.3,8.3,13.2,14.2c2.4,3,4.7,6,6.3,8.7
	c1.6,2.7,2.7,5.2,2.7,6.9c0,0.7-0.2,1.3-0.5,1.7c-18.4,23.3-24.8,34-27.3,40.4c-1.2,3.2-1.5,5.4-1.7,7.6c-0.2,2.1-0.5,4.3-1.7,7.5
	c-2.2,5.9-8.8,10.1-16.3,12.8c-7.5,2.7-16.1,3.9-22.4,3.9c-2.5,0-4.7-0.2-6.2-0.6c-1.6-0.3-2.5-0.9-2.7-1.5c-0.5-1.5-0.7-2.8-0.7-4
	c0-2.8,1.2-5,3-7c2.8-2.9,7-5.3,11-8c4-2.8,7.7-6,9.2-10.9c0.4-1.3,0.7-2.7,0.8-4.2c0-0.1,0-0.2,0-0.3l-0.2,0l0.2,0
	c0-0.2,0.1-0.4,0.1-0.7l-0.2,0l0.2,0c0.2-1.3,0.8-1.7,2-2.9c1.8-1.7,4.8-4.8,9.6-14.1c4.8-9.3,11.4-24.7,20.3-51.2l-0.2-0.1v0.2
	l0.2-0.1l-0.2-0.1v0.2v-0.1l0,0.1h0v-0.1l0,0.1c0,0,0.3,0.1,0.6,0.4c0.3,0.2,0.7,0.6,1.1,1L341.9,751.2"/>
<line id="line8290" class="st7" x1="153.1" y1="191.1" x2="153.1" y2="191.1"/>
<path id="path8292" inkscape:connector-curvature="0" d="M286.2,630.8l-0.2,0L286.2,630.8z"/>
<polygon id="polygon8294" points="290.2,630.2 290,630 290,630.3 "/>
<path id="polygon8296" class="st3" d="M340.7,217.3l0.1,0L340.7,217.3z"/>
<path id="path8298" inkscape:connector-curvature="0" class="st8" d="M349.7,592.8c0-0.2,0-0.4-0.1-0.6c0,0.1,0,0.2,0,0.4
	C349.7,592.6,349.7,592.7,349.7,592.8"/>
<path id="path8300" inkscape:connector-curvature="0" class="st9" d="M327.3,544.2c-0.1-0.1-0.1-0.2-0.2-0.3c0.1,0,0.3,0.1,0.4,0.1
	L327.3,544.2"/>
<path id="path8302" inkscape:connector-curvature="0" class="st0" d="M354,656.9C354,656.9,354,656.9,354,656.9
	C354,656.8,354.1,656.8,354,656.9C354.1,656.8,354,656.9,354,656.9"/>
<path id="path8304" inkscape:connector-curvature="0" class="st0" d="M507.6,125.2L507.6,125.2h0.3H507.6 M353.8,355.9L353.8,355.9
	L353.8,355.9L353.8,355.9"/>
<path id="path8306" inkscape:connector-curvature="0" class="st0" d="M533.2,87.7l-1.1-0.5c0,0,0-0.1,0-0.1L533.2,87.7
	C533.3,87.6,533.2,87.6,533.2,87.7"/>
<path id="path8308" inkscape:connector-curvature="0" class="st10" d="M531.8,87C531.8,87,531.7,87,531.8,87l-3.4-1.4
	c0,0,0,0,0.1-0.1L531.8,87L531.8,87L531.8,87"/>
<path id="path8310" inkscape:connector-curvature="0" class="st10" d="M532.2,87.2l-0.5-0.2c0,0,0.1,0,0.1,0l0.1,0v0L532.2,87.2
	C532.2,87.2,532.2,87.2,532.2,87.2"/>
<path id="path8312" inkscape:connector-curvature="0" class="st11" d="M512.1,78.6l-4.2-1.8c-0.3-0.2-0.6-0.3-0.9-0.5L512.1,78.6
	L512.1,78.6"/>
<path id="path8314" inkscape:connector-curvature="0" class="st11" d="M507.9,76.8l-2.5-1.1c-0.1,0-0.1-0.1-0.1-0.1l1.8,0.8
	C507.3,76.5,507.6,76.7,507.9,76.8"/>
<path id="path8316" inkscape:connector-curvature="0" class="st10" d="M55,89.6l1.9-1.2c0,0,0,0,0,0.1L55,89.6"/>
<path id="path8318" inkscape:connector-curvature="0" class="st12" d="M219.9,728.3c-0.5-2.5-1-5.1-1.4-7.8l0,0
	c-0.1,0-0.3,0-0.4,0.1c0.1-0.1,0.2-0.2,0.4-0.3h0l0.1,0l0.1,0.1l0.1,0.1c0.4,2.7,0.9,5.3,1.4,7.7C220,728.2,219.9,728.3,219.9,728.3
	"/>
<path id="path8320" inkscape:connector-curvature="0" class="st12" d="M200.3,731.4l-0.1-0.1c0,0,0.2-0.1,0.5-0.3
	C200.5,731.2,200.4,731.3,200.3,731.4"/>
<path id="path8322" inkscape:connector-curvature="0" class="st0" d="M256.9,777.4L256.9,777.4c-0.1-0.1-0.1-0.1-0.2-0.1
	c-0.2-1.8-1-12.6-0.2-20.9C256.3,764.5,256.6,772.2,256.9,777.4"/>
<path id="path8324" inkscape:connector-curvature="0" class="st13" d="M257,778.9h-0.1c0-0.5-0.1-0.9-0.1-1.5c0-0.1-3.4-1.3-8.1-4.3
	c0-0.1,0-0.1,0-0.2c3.7,2.3,6.5,3.5,7.7,4c0.2,0.1,0.3,0.2,0.5,0.2c0,0,0.1,0,0.1,0.1l0.1,0C257,777.9,257,778.5,257,778.9"/>
<path id="path8326" inkscape:connector-curvature="0" class="st0" d="M297.6,468l-0.2-0.1l0.1,0L297.6,468 M298.2,468.4
	c-0.1-0.1-0.1-0.3-0.1-0.4c0-0.2,0-0.4,0-0.7c0,0.2,0,0.4,0,0.6l0,0l0,0l0,0v0v0c0,0,0.1-0.1,0.3-0.2c-0.2,0.1-0.2,0.2-0.2,0.2
	s0.1,0,0.2,0c-0.2,0-0.2,0-0.2,0l0,0L298.2,468.4 M291.6,513.4c0.1-0.4,0.2-0.8,0.3-1.2c0.1-0.2,0.1-0.4,0.2-0.6
	C291.9,512.1,291.8,512.8,291.6,513.4 M282.5,516.1L282.5,516.1h0.1H282.5 M266.7,608c0.2,0,0.3-0.1,0.5-0.1
	C267,607.9,266.8,608,266.7,608"/>
<path id="path8328" inkscape:connector-curvature="0" class="st13" d="M338.1,755.7c-0.1-0.1-0.1-0.2-0.2-0.2c0.6-1.9,1.3-3.8,2-5.8
	l0.2-0.1l0.2,0.1l0.1,0.1c0,0,0,0,0.1,0c0.1,0.1,0.2,0.2,0.3,0.3c0.3,0.2,0.6,0.6,1.1,1c0,0,0,0.1,0,0.1l0,0.1
	c-1-0.9-1.6-1.4-1.7-1.4c0,0,0,0,0,0C339.5,751.8,338.8,753.8,338.1,755.7"/>
<path id="path8330" inkscape:connector-curvature="0" class="st14" d="M310.6,682.4c0-0.1-0.1-0.2-0.1-0.4
	C310.6,682.3,310.6,682.4,310.6,682.4L310.6,682.4C310.6,682.4,310.6,682.4,310.6,682.4C310.6,682.4,310.6,682.4,310.6,682.4"/>
<path id="path8332" inkscape:connector-curvature="0" class="st13" d="M290,630.3l0-0.3l0,0c0,0.1,0.1,0.1,0.1,0.2
	C290.1,630.2,290.1,630.3,290,630.3"/>
<path id="path8334" inkscape:connector-curvature="0" class="st15" d="M298.3,467.9c-0.2,0-0.2,0-0.2,0s0.1-0.1,0.2-0.2V467.9"/>
<path id="path8336" inkscape:connector-curvature="0" class="st13" d="M298.3,468.8c-0.1-0.2-0.1-0.3-0.2-0.4l-0.1-0.5v0
	c0,0,0.1,0,0.3,0L298.3,468.8"/>
<path id="path8338" inkscape:connector-curvature="0" class="st8" d="M34.4,103.7c-0.3-0.4-0.4-0.7-0.6-0.9l0,0
	c0.1,0.1,0.2,0.3,0.3,0.5l8.5,0.3l-8.5-0.3C34.2,103.4,34.3,103.6,34.4,103.7 M52.1,129.8c-2.5-3.2-4.8-6.4-6.9-9.4
	C47.3,123.4,49.6,126.5,52.1,129.8 M211,269.6c-0.4-5-0.1-7.6-0.2-9c0.1,1.3-0.2,3.5,0.1,7.8C210.9,268.9,211,269.2,211,269.6
	 M199.5,555.4L199.5,555.4L199.5,555.4 M267.7,688.2L267.7,688.2c0.2,0,0.3,0,0.3,0S267.9,688.2,267.7,688.2 M276.4,708.3
	c0-0.1,0.1-0.1,0.2-0.2C276.4,708.2,276.4,708.3,276.4,708.3 M308.6,813.5c0,0,0-0.1,0-0.1C308.6,813.4,308.6,813.4,308.6,813.5
	 M308.4,816.9c0.1-1,0.2-2.1,0.2-3.4C308.6,814.8,308.5,815.9,308.4,816.9L308.4,816.9"/>
<path id="path8340" inkscape:connector-curvature="0" class="st12" d="M308,820.2l-0.1,0c0.2-0.9,0.3-1.9,0.5-3.3l0,0
	c0.4-0.8,0.9-1.3,1.8-2.1c1.2-1.1,2.9-2.8,5.3-6.6c0.5-0.8,1-1.7,1.6-2.6c0,0.1,0,0.3,0,0.4c-5.9,10-8.2,9-8.8,12
	c0,0.2-0.1,0.5-0.1,0.7c0,0.1,0,0.2,0,0.3C308.2,819.4,308.1,819.8,308,820.2"/>
<polygon id="polygon8342" class="st4" points="297.3,182.8 336.7,203.5 297.3,224.3 "/>
<polygon id="polygon8344" points="297.3,224.2 336.7,245 297.3,265.7 "/>
<polygon id="polygon8346" class="st3" points="297.3,265.7 336.7,286.4 297.3,307.2 "/>
<polygon id="polygon8348" class="st1" points="297.3,307.2 336.7,327.9 297.3,348.7 "/>
<polygon id="polygon8350" class="st5" points="297.3,348.7 336.7,369.4 297.3,390.1 "/>
<polygon id="polygon8352" class="st2" points="297.3,390.1 336.7,410.8 297.3,431.6 "/>
<polygon id="polygon8354" class="st4" points="297.3,431.5 336.7,452.3 297.3,473.1 "/>
<polygon id="polygon8356" class="st3" points="297.3,224.3 336.7,203.5 380.6,223.6 336.7,245 "/>
<polygon id="polygon8358" class="st5" points="378.2,264.6 376.1,265.8 336.7,245 376.1,224.3 392.7,233 383.6,246.7 "/>
<path id="path8360" inkscape:connector-curvature="0" class="st2" d="M424.2,219.7l-22.8,5.2c0,0-8.2,13.3-9.5,11.1
	c-2-3.5-16-11.6-16-11.6l36.8-19.2C412.7,205.2,419.4,208.7,424.2,219.7L424.2,219.7z"/>
<polygon id="polygon8362" points="336.7,203.5 297.3,182.8 322.9,169.3 338.9,173.2 355.9,172.2 376.1,182.8 "/>
<path id="path8364" inkscape:connector-curvature="0" class="st1" d="M426.3,198.3c0,0-50.3,25.9-50.3,26
	c-2.7-3.1-39.4-20.8-39.4-20.8l39.4-20.8L426.3,198.3z"/>
<path id="path8366" inkscape:connector-curvature="0" class="st3" d="M532.6,85.6l-9.6,22.1l-4.6-6.4c0,0,8.6-11,11.8-16.3
	C533.3,79.6,532.6,85.6,532.6,85.6z"/>
<polygon id="polygon8368" class="st4" points="488.6,93.2 506.4,74.8 532,83.3 518.4,101.4 "/>
<path id="path8370" inkscape:connector-curvature="0" class="st2" d="M518.8,101.3l-16.7,31.9l-40.7-14.8c0,0,27.6-27.1,29.1-27.1
	C507.2,91.2,518.8,101.3,518.8,101.3L518.8,101.3z"/>
<path id="path8372" inkscape:connector-curvature="0" d="M523.6,107.2l-17.1,30.6L491,126.5c0,0,17.4-11.4,27.8-25.2L523.6,107.2z"
	/>
<path id="path8374" inkscape:connector-curvature="0" class="st5" d="M492.3,125.9l-31.2,24.4l-19.8-10.4c0,0,19.1-22,20.4-21.8
	C482.6,121.5,492.3,125.9,492.3,125.9L492.3,125.9z"/>
<path id="path8376" inkscape:connector-curvature="0" class="st4" d="M508,135.9L484,168.3l-28.2-21.7c0,0,26-11.6,36.3-20.7
	C493.4,124.6,508,135.9,508,135.9z"/>
<path id="path8378" inkscape:connector-curvature="0" class="st1" d="M456.7,146.8l-35.5,20l-6.8-7.9c0,0,9.2-2.7,16-7.4
	c7.1-5,10.7-10.9,11.1-10.9C446.5,140.5,456.7,146.8,456.7,146.8L456.7,146.8z"/>
<path id="path8380" inkscape:connector-curvature="0" class="st2" d="M485.3,167.9l-33.7,20.5l-30.9-24.2c0,0,15.9-5.6,35.5-17.8
	C457.4,145.6,485.3,167.9,485.3,167.9L485.3,167.9z"/>
<polygon id="polygon8382" points="450.5,187.5 483.2,166.1 485,167.4 455.7,201.8 "/>
<path id="path8384" inkscape:connector-curvature="0" class="st3" d="M422.4,163.5c2.3,8.1-46.9,19.6-46.9,19.6l-20.8-10.7
	l56.3-13.7C411,158.8,421.9,161.8,422.4,163.5L422.4,163.5z"/>
<path id="path8386" inkscape:connector-curvature="0" class="st4" d="M456.4,200c-0.9,7-33.7,20.5-33.6,19.3
	c0.3-3.9-10.1-14.1-10.1-14.1l37.4-18.3C450,186.9,457.1,195,456.4,200z"/>
<path id="path8388" inkscape:connector-curvature="0" class="st5" d="M450.5,187.5c-13.5,8.5-37.8,17.7-37.8,17.7
	c-15.8-12-18.8-14.7-37.2-22.1c0,0,26.6-7.3,46.9-19.6C422.4,163.5,438,171.6,450.5,187.5L450.5,187.5z"/>
<polygon id="polygon8390" class="st1" points="297.3,265.7 336.7,244.9 376.1,265.7 336.7,286.4 "/>
<polygon id="polygon8392" class="st2" points="370.5,295.4 368.3,303.1 336.7,286.4 376.1,265.7 377.7,266.5 374.8,281.5 "/>
<path id="path8394" inkscape:connector-curvature="0" class="st5" d="M368.3,303.1l-0.5,4.1c-0.5-0.1-2.1,5.5-2.1,5.5l-29,15.3
	l-39.4-20.8l39.4-20.8L368.3,303.1z"/>
<polygon id="polygon8396" class="st4" points="356.9,338.6 336.7,327.9 365.7,312.6 363.1,322.2 359.7,330.3 358.2,335.1 "/>
<polygon id="polygon8398" points="360.4,381.9 336.7,369.4 355.6,359.4 355.9,367.8 356.7,374.1 358.6,377.7 "/>
<polygon id="polygon8400" class="st2" points="355.3,359.6 336.7,369.4 297.3,348.7 336.7,327.9 356.9,338.6 353,352.3 "/>
<path id="path8402" inkscape:connector-curvature="0" d="M286.1,138.4L286.1,138.4c-1.4,2.4,0.1,3.5,1,3.8l3.6,0.2
	c1.1-2.3-5.9,0.9-1.6-6.1c2.1-3.4,1.7-8.4,1.8-12.6c0-0.9,0.9-2.2,0.9-2.2c-2.5,1.1-1.6,6.3-2.5,10.6
	C288.5,135.9,287.3,136.3,286.1,138.4"/>
<path id="path8404" inkscape:connector-curvature="0" class="st1" d="M292.1,148.4c-1.6-2.6-11.7,0.6-11.7,1.9c0,0.6,8.9,3,12.5,3
	c1.8,0,11.5-1.8,11.5-2.8c0-1.3-10.6-4.7-11.7-1.9C292.4,149.5,292.6,149.2,292.1,148.4"/>
<path id="path8406" inkscape:connector-curvature="0" d="M251.8,111.4c-5-33.3,15.2-50.3,39.3-50.2c20.9,0,37.1,19.6,37.1,43.6
	c-7.9-5-16.1-13.9-37-13.9c-20.9,0-30.8,13.4-38.7,20.5"/>
<path id="path8408" inkscape:connector-curvature="0" d="M252.7,111.3l0.2,0c-0.5-3.1-0.7-6.1-0.7-9c0-27,20-40.8,38.8-40.8
	c10.3,0,19.6,4.9,26.2,12.8c6.6,7.9,10.7,18.8,10.7,30.7h0.2l0.1-0.2c-7.8-4.9-16.2-14.1-37.1-14.1c-20.9,0-30.7,13.4-38.5,20.4
	L252.7,111.3l0.2,0L252.7,111.3l0.1,0.2c7.9-7.1,17.6-20.4,38.3-20.4c20.7,0,29,9.1,36.8,14l0.3,0.2v-0.3c0-12-4.1-23-10.8-30.9
	s-16-12.9-26.5-12.9c-9.4,0-19.2,3.5-26.7,10.4c-7.4,6.9-12.5,17.2-12.5,30.8c0,2.9,0.2,5.9,0.7,9.1l0.1,0.4l0.3-0.2L252.7,111.3z"
	/>
<path id="path8410" inkscape:connector-curvature="0" d="M291.4,113.6c-9.6-3.7-13.1-6.3-24.9-6.3c-7.1,0-14.9,6.3-12.1,13.4
	c1.9,4.7,12.6,9.9,17.8,9.9c5.7,0,20.1-7.8,20.3-7.8c7.4,0,13.3,7.8,23.4,6c7.8-1.4,14.4-7.3,13.2-15.8c-0.7-4.9-6.6-8.1-13.2-8.1
	C305.6,104.8,298.3,110.3,291.4,113.6"/>
<path id="path8412" inkscape:connector-curvature="0" d="M267.3,157.7l1.8-1.6c8.5,9.8,16.2,13.1,22.8,13.1l0,0
	c12.6,0.1,22.4-12.4,25.9-17.6l0,0v0l2,1.4c-3.7,5.2-13.6,18.5-27.9,18.6l0,0C284.5,171.6,276.1,167.8,267.3,157.7z"/>
<path id="path8414" inkscape:connector-curvature="0" d="M253.2,117.4c-0.9,1.2-0.7,4-0.7,5.6c0,6.5,3.7,14.2,6.8,18.3
	c2.5-1.2-3.6-12.5-3.6-15.8C255.7,121.6,255.8,119,253.2,117.4"/>
<path id="path8416" inkscape:connector-curvature="0" d="M288,631.3L288,631.3l3.7-1.6c0,0.1,17.3,40.4,20.9,54.7l0,0l-3.9,1
	C305.3,671.8,288,631.3,288,631.3z"/>
<path id="path8418" inkscape:connector-curvature="0" d="M503.4,43.6c4.8-2.2,6.6-2.4,10.8-2.6l0,0c0.9,0,1.5-0.1,1.9-0.1l0,0
	c0.8,0,1.2,0.1,2.2,0.1l0,0c2.6,0.1,6.1,1.4,6.2,5.2l0,0h-4c0-0.5-0.3-0.9-2.4-1.2l0,0c-1.1-0.1-1.4-0.1-1.9-0.1l0,0
	c-0.4,0-0.9,0-1.7,0.1l0,0c-4.4,0.3-4.5,0.1-9.4,2.2l0,0L503.4,43.6z"/>
<polygon id="polygon8420" points="520.5,41.5 519.4,45.3 509,42.2 510.1,38.3 "/>
<path id="path8422" inkscape:connector-curvature="0" class="st0" d="M552.6,56.3c3.9,1.8,8.3,4.6,11.9,6.2
	c3.4,1.6,6.5,3.8,11.1,7.3c-5.2-0.6-12.5-2.6-15.9-3.7c-4.2-1.4-6.4-1.9-10.5-3.4c-0.5-1.1-0.2-2.2,0.1-2.9c0.6-1.3,0.9-2.1,1.8-2.8
	C551.7,56.5,552.6,56.3,552.6,56.3z"/>
<path id="path8424" inkscape:connector-curvature="0" d="M575.4,71.8c-5.5-0.6-12.8-2.6-16.3-3.8l0,0c-4.1-1.3-6.4-1.8-10.6-3.5l0,0
	l-0.8-0.3l-0.3-0.7c-0.3-0.7-0.5-1.4-0.5-2.1l0,0c0-1,0.3-1.8,0.5-2.5l0,0c0.5-1.2,1-2.5,2.4-3.6l0,0c1.2-0.9,2.3-1,2.5-1l0,0
	l0.6-0.1l0.5,0.3c4,1.9,8.5,4.6,11.9,6.2l0,0c3.6,1.7,6.8,4.1,11.4,7.4l0,0l6.1,4.5L575.4,71.8z M560.3,64.2
	c1.5,0.5,3.8,1.2,6.4,1.8l0,0c-1-0.6-2-1.2-3-1.7l0,0c-3.6-1.7-7.7-4.2-11.2-5.9l0,0c-0.1,0-0.1,0.1-0.1,0.1l0,0
	c-0.5,0.4-0.6,0.6-1.2,1.9l0,0c-0.1,0.2-0.2,0.5-0.2,0.7l0,0C554.3,62.5,556.4,63,560.3,64.2z"/>
<path id="path8426" inkscape:connector-curvature="0" d="M261.5,170.1L261.5,170.1l6.1-5.2c9.4,11,17.9,14,25.7,14.1l0,0
	c7.7,0,14.9-3.3,20.5-6.8l0,0c3.1-1.9,5.1-3.2,6.3-4.1l0,0c1.3-0.9,1.6-1.2,1.6-1.2l0,0l5,6.3c-0.2,0.1-2.4,1.9-8.8,5.9l0,0
	c-6.2,3.8-14.7,8-24.7,8l0,0c-0.1,0-0.1,0-0.2,0l0,0C283.1,187,271.8,182.4,261.5,170.1L261.5,170.1z"/>
<path id="path8428" inkscape:connector-curvature="0" d="M294.3,228.2l-1.1-43.8c-0.1-1.8,1.3-3.2,3.1-3.3l0,0
	c1.8,0,3.3,1.4,3.3,3.1l0,0l1.1,43.8c0.1,1.8-1.4,3.3-3.1,3.3l0,0c0,0-0.1,0-0.1,0l0,0C295.7,231.3,294.3,230,294.3,228.2
	L294.3,228.2z"/>
<path id="path8430" inkscape:connector-curvature="0" d="M282.6,854.5L282.6,854.5c-1.1-1.4-1.6-3.2-1.6-4.8l0,0
	c0.2-5.8,4.9-10.5,7.2-12.2l0,0c6.5-4.6,13.7-7.6,16.3-14.1l0,0c1-2.3,0.6-5.5,1.4-9.7l0,0c0.2-1.2,0.5-4.4,0.5-7.2l0,0
	c0-1.6-0.1-3.1-0.3-3.8l0,0c-0.5-2.2-0.6-4.4-0.6-6.6l0,0c0-1,0-1.9,0-2.9l0,0c0-2.1-0.1-4.1-0.5-6l0,0c-0.7-3.4-0.4-6.8-1-9.5l0,0
	c-2.1-9.2-2.2-18.5-5.1-26l0,0c-4.2-11.5-10.8-21.7-17.5-31.2l0,0c-1.9-2.8-4.4-5.6-6.5-8.7l0,0c-2.8,2.9-4.8,8.2-7.1,12.8l0,0
	c-4,7.6-7,15.3-9.4,24.8l0,0c-0.6,2.5-0.7,5.4-0.7,8.5l0,0c0,1.6,0,3.2,0,4.9l0,0c0,1.5,0,3,0,4.4l0,0c0,6.2,0.1,12.1,1.3,17l0,0
	c0.8,3.6,0.3,6.2,1,8.7l0,0c1.1,4.4,2,8.8,3.5,12.3l0,0c0.9,2.3,4,4.5,5.5,8.4l0,0c0.3,1,0.4,1.9,0.4,2.8l0,0c0,2.6-0.8,5-1.1,6.5
	l0,0l-0.2,0.8l-0.7,0.5c-2,1.4-4.4,1.9-6.8,1.9l0,0c-6.9-0.1-14.3-4.1-17.8-6.2l0,0c-7-4.3-14.2-8.6-18.9-16.1l0,0
	c-1.4-2.3-2.4-5.1-3.1-7.8l0,0c-0.3-1.3-0.4-2.6-0.4-3.8l0,0c0-1.3,0.1-2.5,0.1-3.5l0,0c0-1.1-0.1-2-0.3-2.5l0,0
	c-3.2-7.8-8.9-14.8-13.9-21.7l0,0c-2.5-3.6-5.5-7.1-8.2-10.8l0,0c-1.2-1.6-3.5-3.4-4.8-6.3l0,0c-0.7-1.6-1.3-3.7-1.3-5.9l0,0
	c0-1,0.1-2,0.4-2.9l0,0c3-10,12.8-14.8,20.6-18.8l0,0c1.4-0.5,2.8-1,4.2-1.5l0,0c4-2.4,8.2-6.8,11.4-11l0,0c0.8-0.7,1.7-1.5,2.3-2
	l0,0c3-3.9,6.3-7.2,9.2-11l0,0c0.9-0.9,1.9-1.9,2.6-2.6l0,0c1.4-1.9,2.8-3.8,4.5-5.8l0,0c0.7-0.7,1.8-1.8,2.3-2.4l0,0
	c-0.4-0.5-1.3-1.1-2.2-2.2l0,0c-2.5-3.3-5.4-6.5-8-10.1l0,0c-6.7-9-13.8-17.7-20.6-26.8l0,0c-2.2-2.9-5.2-5.6-7.7-9l0,0
	c-3.4-4.6-10-8.3-14.2-13.9l0,0c-3.2-4.3-4.9-9.4-6.2-15.2l0,0l-0.1-0.2V606c0-1.4,0-2.8,0-4.1l0,0c0-8.6,2.5-14.9,4.2-21.4l0,0
	c1.3-4.6,0.5-10.5,1.8-16.4l0,0c0.1-0.4,0.1-0.9,0.1-1.6l0,0c0-0.7,0-1.4,0-2.1l0,0c0-0.6,0-1.1,0.1-1.8l0,0
	c0.2-8.2,0.3-16.3,0.5-24.5l0,0v-0.2l0-0.2c0.4-1.7,0.5-3.6,0.5-5.6l0,0c0-1.3,0-2.7,0-4.1l0,0c0-2.2,0.1-4.5,0.6-6.7l0,0
	c0.8-3.3,0-7.7,1-12.3l0,0c0.5-1.8,0.1-4.6,0.8-7.7l0,0c1.7-7.1,1.4-15,3.4-22.7l0,0c4.5-17.3,7.7-34.8,13.7-50.9l0,0
	c1.2-3.1,1.7-6.3,3.1-9.8l0,0c3.5-8.4,6.6-17,10.3-25.5l0,0c1.4-3.2,4.1-7.6,4.9-10.4l0,0c-0.1-0.4-0.1-0.8-0.2-1.4l0,0
	c0-2.7,0-5.3,0-8l0,0c0-1.7,0-3.3,0-4.8l0,0c0-5.7-0.2-10.4-1.5-15.3l0,0c-2.2-8.1-3.1-15.4-5.9-22.2l0,0c-5.2-12.7-10.7-25-16-37.8
	l0,0c-2.5-6.1-2.5-12.5-4-18.9l0,0l-0.1-0.2v-0.2c0-3,0-5.9,0-8.9l0,0c-0.3-0.5-1.1-1.2-1.9-2.3l0,0c-3.8-5.1-9-7.9-15.1-11.6l0,0
	c-12.6-7.7-27.1-13.7-40.1-21.6l0,0c-3.2-2-7-3.1-10.8-5.4l0,0c-7.7-4.7-16-8.9-23.3-14.3l0,0c-4.1-3-7.1-7-10.5-9.5l0,0
	c-4.1-3.1-8.1-7.1-11.2-11.2l0,0c-1.6-2.2-4.2-4.1-6.4-6.9l0,0c-2-2.7-5.4-5.1-8-8.5l0,0c-7.7-10.2-16.8-19.5-24.7-30.1l0,0
	c-2.1-2.8-4.9-5.6-7.2-8.8l0,0c-4.2-5.8-8.1-11.5-11.9-17.6l0,0c-1.5-2.4-3.9-4.7-4.8-8.7l0,0c-0.2-0.2-0.6-0.3-0.9-1.1l0,0
	c-2.7-2.8-3.5-4.8-3.9-5.1l0,0c-2.7-2-5.2-4.3-7.2-7.2l0,0c-1.1,0.6-2.4,1.3-4,1.6l0,0c-0.7,0.2-1.3,0.2-2,0.2l0,0
	c-5.5-0.2-12.6-4-13-10.3l0,0c0-0.6,0.1-1.2,0.3-1.7l0,0c1.5-5,5.6-7.2,8.2-9.4l0,0c-0.4-1.1-0.5-2.2-0.5-3.2l0,0
	c0-1.7,0.3-3.2,1-4.5l0,0l0.1-0.3l0.2-0.2c1.1-1.3,2.7-2.3,4.8-2.6l0,0c0.8-3.5,3.8-5.5,6.8-5.5l0,0c0,0,0.2,0,0.2,0l0,0
	c0.3,0,0.5,0,0.7,0l0,0c0.5-0.8,1.1-2.1,3.1-3.5l0,0c1.1-0.5,2.1-0.6,3.1-0.6l0,0c0.9,0,1.7,0.1,2.4,0.3l0,0
	c0.5-0.7,1.3-1.7,2.8-2.5l0,0l0.2-0.1l0.2-0.1c1-0.2,1.8-0.4,2.6-0.4l0,0c2.5,0,4.1,1.2,5.3,1.9l0,0c2.2,1.6,3,3.2,3.8,3.7l0,0
	c2.9-1.6,7.5-2.4,9.9-3.2l0,0c1.2-0.2,2.4-0.3,3.6-0.5l0,0c0.7-0.3,2-1.4,3.3-2.2l0,0c1.4-0.6,2.7-1.2,4-1.7l0,0
	c2.7-1.4,5.7-3.1,8.6-4.4l0,0c7.2-3.2,14.5-5.8,21.7-8.8l0,0c2.8-1.1,30.8-10.2,43-13.2l0,0c21.5-5.3,36.8-8.3,54.3-11.3l0,0
	c12.5-2.1,37.6-5,56.9-6l0,0c7-0.7,25.6-0.9,38.3-1l0,0c0.6,0,1.3,0,2.3,0l0,0c8.9,0,33.7,0.3,51,1.8l0,0
	c13.5,1.2,60.4,6.8,91.1,13.7l0,0c18.3,4.1,35,8.5,51.4,13.9l0,0c5.5,1.8,10.7,3.4,16,5.2l0,0c1.7,0.6,5.9,1.7,8.2,2.3l0,0
	c0.4-0.4,0.8-0.8,1-1.2l0,0l0.2-0.3l0.3-0.2c1.2-1,1.2-1.3,3-3.2l0,0c1.4-1.4,3.2-3.2,5.4-4.3l0,0c1.2-0.6,2.6-0.9,3.8-0.9l0,0
	c1.1,0,2.2,0.2,3.2,0.6l0,0c2,0.8,3.4,2,4.5,3.8l0,0c0.3,0.6,0.6,1.2,0.8,1.9l0,0c1.2-0.4,2.6-0.6,3.9-0.6l0,0c1.5,0,3,0.2,4.5,0.8
	l0,0l0.2,0.1l0.2,0.1c1.5,0.9,2.3,2.3,2.6,3.8l0,0c2.2,0.2,4.5,0.9,5.8,3.4l0,0c0.2,0.5,0.5,1.1,0.7,2l0,0c4.5,1.2,6.5,5.5,6.3,9.4
	l0,0c0,2.7-0.7,5.4-1.7,7.8l0,0c-3.1,7.2-8.4,12.9-12.9,18l0,0c-2.1,2.2-5.7,5.1-6.9,7.2l0,0l1.5,1.4l-1.4,1.5
	c-0.7,0.6-1,2.1-2.1,4.1l0,0c-1.9,3.1-3.4,6.9-5.7,10.5l0,0c-5,8.2-8.9,17.8-14.1,26.5l0,0c-1.8,2.9-2.8,6.4-4.9,9.8l0,0
	c-11.5,18.5-26.6,33.6-39.2,50.3l0,0c-10.4,13.8-26.4,22.6-43.1,29.5l0,0c-4.3,1.8-8.6,2.1-12.5,3.4l0,0c-5.7,1.9-10.9,4.3-15.1,7.4
	l0,0c-1.4,1-3,3-4.2,4.7l0,0c-2.1,2.8-4.4,5.5-6.1,8.3l0,0c-4.1,6.7-6.3,15.8-8.8,24.5l0,0c-0.7,4.5-1.4,9.1-2.1,13.9l0,0
	c-2.1,7.5-4.5,15.3-7,22.7l0,0c-1.5,4.6-2,9.6-3.9,14.7l0,0c-3.7,10.1-6.9,20.9-9.2,32.2l0,0c-0.2,0.7-0.2,1.2-0.2,1.6l0,0
	c0,0.4,0.1,0.7,0.2,1.5l0,0c0.4,3,0.9,6,1.3,9.2l0,0c0.2,2.8,0.3,5.7,0.5,8.5l0,0c1.4,4.3,5.6,10.3,8.2,14.5l0,0
	c4.9,8,8.8,17,12.5,25.7l0,0c4.4,10.4,6.5,22,9.6,32.9l0,0c1.1,3.9,1.1,7.3,2.1,10.6l0,0c4,14,6.7,27.6,10.6,41.2l0,0
	c1.6,5.7,1.6,11.6,2.9,16.8l0,0c1.3,10.8,2.7,21.6,4.1,32.5l0,0c0.2,2.6,0.3,5.2,0.5,7.4l0,0c2.1,9.9,0.3,21.7,2.3,30.6l0,0l0,0.2
	l0,0.2c0.1,2.1,0.2,4.2,0.3,6.3l0,0c0.7,3.8,0.3,7.6,1,10.6l0,0c0.3,1.3,0.8,3.5,0.8,5.8l0,0c0,0.9-0.1,1.7-0.3,2.6l0,0
	c-1.2,4-4,5.6-5.2,7.4l0,0c-3.3,4.4-7.6,8.5-11.7,11.5l0,0c-0.6,0.7-1.2,1.4-2.1,2.3l0,0c-3.6,2.7-7,5.8-10.9,8.6l0,0
	c-13.8,9.7-28.1,18.7-42.6,27.6l0,0c-7.1,4.4-14.5,8.4-21.7,12.4l0,0c-1.6,0.8-5.4,2.5-6.5,3.5l0,0c1,2.6,1.2,4.8,1.9,6.6l0,0
	c1.9,4.7,3.4,9.4,5.4,13.8l0,0c1.7,3.8,4.1,8,5.9,12.1l0,0c3.4,7.8,6.8,15.3,10.9,22.2l0,0c2.4,4,3.8,8.1,6,11.4l0,0
	c0,0,0.1,0.1,0.1,0.1l0,0c0.8,0.7,2,1.8,3.6,3.3l0,0c2.4,2.4,4.5,5,6.7,7.2l0,0c3.9,4,8.4,9.9,11.1,15.1l0,0
	c0.6,1.1,1.6,3.3,1.7,5.8l0,0c0,0.8-0.1,1.7-0.6,2.5l0,0c-0.8,1.9-2.1,2.5-2.3,2.9l0,0c-2.3,3.1-4.8,6-7,9l0,0
	c-4.9,6.6-9.4,13.3-13.8,20.5l0,0c-1.3,2.1-2.9,4.2-3.7,6.2l0,0c-0.9,2.1-1.6,4.5-2.2,6.9l0,0c-0.8,3-0.2,6.2-1.6,9.8l0,0
	c-2.7,6.5-8.5,10.8-14.4,13.4l0,0c-6.9,3-15.6,5.3-25,5.3l0,0c-0.9,0-2,0-3.2,0l0,0C288.8,857.5,284.7,858,282.6,854.5L282.6,854.5z
	 M277.2,707.9c2.1,3.5,5.1,6.8,7.6,10.4l0,0c6.8,9.6,13.5,20.1,18,32.1l0,0c3.1,8.5,3.2,17.8,5.2,26.5l0,0c0.8,3.6,0.5,7.1,1,9.6
	l0,0c0.5,2.3,0.6,4.6,0.6,6.8l0,0c0,1,0,1.9,0,2.9l0,0c0,2.1,0.1,4,0.5,5.7l0,0c0.3,1.3,0.3,2.9,0.3,4.7l0,0c0,3-0.2,6.2-0.6,8l0,0
	c-0.7,3.3-0.1,6.6-1.7,10.4l0,0c-3.6,8.4-11.9,11.5-17.7,15.8l0,0c-1.5,0.9-5.7,5.8-5.5,9l0,0c0,0.9,0.2,1.6,0.8,2.3l0,0l0.2,0.2
	l0.1,0.3c0,0,0.3,0.4,1.5,0.7l0,0c1.2,0.3,2.8,0.3,4.5,0.3l0,0c1.1,0,2.2,0,3.2,0l0,0c8.7,0,17-2.2,23.4-5l0,0
	c5.4-2.4,10.2-6.1,12.3-11.3l0,0c1-2.2,0.5-5.3,1.4-9.2l0,0c0.6-2.5,1.4-5.1,2.4-7.5l0,0c1.1-2.5,2.8-4.8,4-6.7l0,0
	c4.5-7.2,9-14,14-20.7l0,0c2.3-3.1,4.7-6,6.9-9l0,0c1.1-1.4,1.7-1.7,1.8-2l0,0l0.1-0.2l0.1-0.2c0-0.1,0.1-0.3,0.1-0.6l0,0
	c0-1.1-0.8-3.2-1.2-3.9l0,0c-2.4-4.7-6.8-10.5-10.5-14.2l0,0c-2.4-2.4-4.4-5-6.6-7.1l0,0c-1.5-1.4-2.7-2.5-3.5-3.2l0,0
	c-0.9-0.9-0.9-0.8-1.4-1.4l0,0c0,0,0,0,0,0l0,0c0,0,0,0,0,0l0,0c-0.1,0-0.1-0.1-0.2-0.4l0,0c-0.1-0.3-0.2-0.5-0.2-0.7l0,0
	c-2-3.4-3.2-6.8-5-9.8l0,0c-4.3-7.1-7.7-14.9-11.2-22.6l0,0c-1.7-3.8-4.1-8-5.9-12.1l0,0c-2.1-4.7-3.6-9.5-5.4-13.9l0,0
	c-1.1-2.8-1.2-5.2-2.3-7.4l0,0l-0.2-0.5l0.1-0.6c0.7-2.7,2.6-3.3,4.3-4.4l0,0c1.8-1,3.7-1.8,4.4-2.2l0,0c7.2-4,14.5-8,21.5-12.3l0,0
	c14.5-8.9,28.7-17.8,42.3-27.5l0,0c3.6-2.5,7-5.7,10.5-8.2l0,0c0.6-0.6,1.2-1.3,2.1-2.3l0,0c4.1-3.1,8.2-6.9,11.2-10.9l0,0
	c2.1-2.7,4-3.7,4.6-6l0,0c0.1-0.4,0.2-1,0.2-1.6l0,0c0-1.7-0.4-3.8-0.7-4.9l0,0c-0.9-4.1-0.4-7.9-1-10.8l0,0l0-0.2l0-0.2
	c-0.1-2.1-0.2-4.2-0.2-6.3l0,0c-2.1-10-0.3-21.7-2.3-30.8l0,0c-0.2-2.6-0.3-5.1-0.5-7.6l0,0c-1.4-10.8-2.7-21.6-4.1-32.2l0,0
	c-1.4-5.6-1.4-11.4-2.8-16.4l0,0c-3.8-13.8-6.6-27.4-10.6-41.2l0,0c-1.1-4-1.1-7.3-2.1-10.5l0,0c-3.2-11.2-5.3-22.7-9.4-32.4l0,0
	c-3.7-8.8-7.5-17.5-12.2-25.2l0,0c-2.5-4.2-7-10.3-8.7-15.6l0,0l-0.1-0.3l0-0.2c-0.2-2.9-0.3-5.8-0.5-8.6l0,0c-0.4-3-0.8-6-1.2-8.7
	l0,0c-0.2-0.8-0.3-1.6-0.3-2.3l0,0c0-0.8,0.1-1.6,0.3-2.5l0,0c2.3-11.6,5.5-22.5,9.3-32.8l0,0c1.7-4.5,2.2-9.4,3.8-14.6l0,0
	c2.4-7.4,4.8-15.2,6.9-22.3l0,0c0.7-4.5,1.4-9.1,2.1-13.9l0,0c2.5-8.8,4.6-18.2,9.2-25.7l0,0c1.9-3.2,4.3-6,6.3-8.7l0,0
	c1.3-1.8,3-4,5.1-5.6l0,0c4.7-3.5,10.3-6,16.2-8l0,0c4.5-1.5,8.7-1.8,12.2-3.3l0,0c16.4-6.7,31.7-15.3,41.4-28.2l0,0
	c12.9-17,27.8-32,39-50l0,0c1.8-2.8,2.8-6.3,4.9-9.8l0,0c5-8.3,8.9-17.9,14.1-26.5l0,0c2-3.3,3.5-7,5.7-10.5l0,0
	c0.4-0.6,0.6-1.4,1.1-2.3l0,0l-0.2-0.1l0.2-1.7c0.9-5.3,6.5-8.4,8.2-10.6l0,0c4.6-5.2,9.5-10.6,12.2-16.9l0,0c0.8-2,1.4-4.3,1.4-6.2
	l0,0c-0.2-3.4-1-5.2-4.4-5.7l0,0l-1.1-0.1l-0.5-1c-0.1-0.3-0.2-0.6-0.2-0.8l0,0v0c0-0.9-0.2-1-0.6-2.1l0,0c-0.1-0.4-1.2-1-3.2-1l0,0
	c-0.2,0-0.4,0-0.6,0l0,0l-1.8,0.1l-0.2-1.8c-0.4-2.1-0.2-1.9-1.1-2.6l0,0c-0.8-0.3-1.8-0.4-2.8-0.4l0,0c-1.3,0-2.6,0.3-3.2,0.6l0,0
	c0,0.2-0.1,0.5-0.2,0.8l0,0c-0.1,0.3-0.6,1.3-2,1.4l0,0h-2.1l0.1-2.1c0-0.2,0-0.5,0-0.7l0,0c0.1-1.2-0.4-3.2-0.5-3.2l0,0
	c-1-1.5-1-1.4-2.7-2.3l0,0c-0.3-0.2-0.9-0.3-1.6-0.3l0,0c-0.7,0-1.5,0.2-2,0.4l0,0c-1.3,0.6-3,2.2-4.3,3.6l0,0
	c-1.4,1.4-1.6,1.9-3.1,3.2l0,0c-1,1.4-2.3,2.5-2.4,2.6l0,0l-0.8,0.7l-1-0.3c-1.5-0.4-7.1-1.8-9.5-2.6l0,0
	c-5.1-1.7-10.4-3.3-15.9-5.1l0,0c-16.2-5.4-32.8-9.7-51-13.8l0,0C402.7,13.6,355.8,8,342.5,6.8l0,0c-17-1.5-41.8-1.8-50.6-1.8l0,0
	c-0.9,0-1.7,0-2.2,0l0,0c-12.6,0.1-31.3,0.3-38,1l0,0C232.5,7,207.3,9.9,195.1,12l0,0c-17.4,3-32.6,6-54,11.3l0,0
	c-11.8,2.9-40.2,12.1-42.4,13l0,0c-7.2,3-14.6,5.6-21.6,8.7l0,0c-2.7,1.2-5.6,2.9-8.5,4.4l0,0c-1.4,0.6-2.7,1.2-3.9,1.7l0,0
	c-0.8,0.5-2.2,1.8-3.9,2.5l0,0l-0.2,0.1l-0.2,0c-1.3,0.2-2.6,0.3-3.6,0.5l0,0c-2.5,0.7-8.3,2.1-9.1,3l0,0L47,57.6l-0.9-0.1
	c-4-0.8-5-4.2-5.9-4.4l0,0c-1.5-0.9-2.1-1.3-3.3-1.3l0,0c-0.4,0-0.9,0.1-1.5,0.2l0,0c-0.5,0.3-0.9,1.1-2.1,2.4l0,0l-0.7,0.7l-1-0.2
	c-1.2-0.2-2-0.5-2.8-0.4l0,0c-0.5,0-0.9,0.1-1.2,0.1l0,0c-1,0.6-0.9,1.3-2.4,3.2l0,0l-0.2,0.3l-0.3,0.2c-0.8,0.3-0.9,0.3-1.1,0.3
	l0,0c-0.1,0-0.1,0-0.3,0l0,0c-0.4,0-0.9,0-1.5,0l0,0v0c-1.7,0.1-2.9,0.8-3,3.4l0,0l0,2l-2,0c-2.6,0.2-2.3,0.1-3.5,1.2l0,0
	c-0.2,0.5-0.4,1.4-0.4,2.3l0,0c0,1.1,0.3,2.2,0.5,2.4l0,0l1.1,1.4l-1.3,1.3C9.9,76,6,77.7,5.1,81.3l0,0C5,81.5,5,81.7,5,81.9l0,0
	C5,83,6,84.7,8,86l0,0c1.9,1.3,4.3,2.2,6.1,2.1l0,0c0.4,0,0.8,0,1.1-0.1l0,0c1.4-0.3,3-1.3,4.7-2.2l0,0l1.7-0.8l1,1.6
	c1.8,3,4.3,5.4,7.4,7.8l0,0c1.5,1.7,1.8,3,4.5,5.7l0,0l1.7,1.7l-0.3,0.2c0.1,0.2,0.2,0.5,0.2,0.9l0,0c0,0.1,0,0.2,0,0.3l0,0
	c0.6,2.4,2.3,4.2,4.1,7l0,0c3.8,6.1,7.6,11.7,11.7,17.4l0,0c2.1,2.8,4.9,5.6,7.2,8.7l0,0c7.7,10.4,16.7,19.6,24.7,30.1l0,0
	c2,2.7,5.4,5.1,8,8.5l0,0c1.7,2.2,4.3,4.2,6.4,6.9l0,0c2.9,3.8,6.7,7.6,10.4,10.4l0,0c4,3,7,6.9,10.5,9.5l0,0
	c7,5.1,15.2,9.3,23,14.1l0,0c3.2,2,7,3.1,10.8,5.4l0,0c12.7,7.7,27.1,13.7,40.2,21.6l0,0c5.9,3.6,11.8,6.6,16.2,12.6l0,0
	c0.4,0.6,1.9,1.6,2.6,3.7l0,0l0.1,0.3v0.3c0,3,0,6,0,9l0,0c1.5,6.8,1.6,13,3.7,18l0,0c5.2,12.7,10.7,25,16,37.8l0,0
	c3,7.4,3.9,14.9,6,22.6l0,0c1.5,5.5,1.6,10.6,1.6,16.3l0,0c0,1.5,0,3.1,0,4.8l0,0c0,2.7,0,5.3,0,7.7l0,0c0.1,0.5,0.2,1,0.3,1.6l0,0
	l0.1,0.4l-0.1,0.4c-1,3.7-4,8.3-5.3,11.3l0,0c-3.6,8.4-6.8,17-10.3,25.5l0,0c-1.2,3-1.7,6.1-3.1,9.7l0,0c-5.8,15.6-9,33.1-13.6,50.5
	l0,0c-1.8,6.9-1.6,14.8-3.3,22.6l0,0c-0.5,2.2-0.2,4.8-0.8,7.7l0,0c-0.9,3.6-0.1,7.9-1,12.4l0,0c-0.4,1.8-0.5,3.8-0.5,5.8l0,0
	c0,1.3,0,2.7,0,4.1l0,0c0,2.1-0.1,4.2-0.5,6.3l0,0c-0.2,8.2-0.3,16.4-0.5,24.5l0,0v0.2l-0.1,0.2c0,0.1-0.1,0.5-0.1,1l0,0
	c0,0.6,0,1.3,0,2.1l0,0c0,0.8,0,1.6-0.2,2.5l0,0c-1.1,4.9-0.3,10.9-1.8,16.6l0,0c-1.8,6.8-4,12.5-4,20.3l0,0c0,1.3,0,2.6,0,3.9l0,0
	c1.3,5.4,2.9,9.9,5.5,13.4l0,0c3.4,4.7,10,8.4,14.2,13.9l0,0c2.2,3,5.2,5.7,7.7,9l0,0c6.7,9,13.8,17.6,20.6,26.8l0,0
	c2.4,3.3,5.3,6.5,8,10l0,0c0.3,0.7,2.2,1.5,3.1,3.9l0,0l-1,0.6l1.1-0.1c0,0,0,0.1,0,0.2l0,0c0,0,0,0,0,0l0,0c0,0,0,0.1,0,0.2l0,0
	l0,0l-1.4-0.1l-0.6,0.3l0,1.6c1.2-0.1,1.7-0.9,1.9-1.4l0,0c-0.7,2.6-2.8,3.6-3.5,4.6l0,0c-1.5,1.7-2.8,3.6-4.5,5.8l0,0
	c-0.9,1-1.9,1.9-2.6,2.6l0,0c-3,3.9-6.3,7.2-9.3,11.1l0,0c-0.9,0.8-1.7,1.5-2.3,2l0,0c-3.2,4.2-7.6,9-12.4,11.9l0,0l-0.2,0.1
	l-0.2,0.1c-1.4,0.5-2.9,1-4.1,1.5l0,0c-7.6,3.9-16.1,8.5-18.3,16.3l0,0c-0.2,0.5-0.2,1.1-0.2,1.8l0,0c0,1.5,0.4,3.3,0.9,4.3l0,0
	c0.7,1.7,2.7,3.3,4.4,5.5l0,0c2.6,3.6,5.6,7.1,8.2,10.8l0,0c4.9,6.8,10.8,14,14.4,22.5l0,0c0.6,1.4,0.7,2.8,0.7,4.1l0,0
	c0,1.2-0.1,2.4-0.1,3.5l0,0c0,1,0.1,1.9,0.3,2.8l0,0c0.6,2.4,1.5,4.9,2.6,6.6l0,0c4,6.5,10.5,10.5,17.6,14.8l0,0
	c3.2,2,10.4,5.7,15.7,5.6l0,0c1.5,0,2.8-0.3,3.9-0.8l0,0c0.4-1.6,0.9-3.3,0.8-4.7l0,0c0-0.6-0.1-1.1-0.2-1.6l0,0
	c-0.6-2.3-3.6-4.4-5.3-8.1l0,0c-1.8-4.1-2.6-8.7-3.7-12.9l0,0c-0.8-3.5-0.4-6.1-1-8.8l0,0c-1.3-5.5-1.3-11.6-1.3-17.9l0,0
	c0-1.5,0-3,0-4.4l0,0c0-1.6,0-3.3,0-4.9l0,0c0-3.2,0.1-6.4,0.9-9.5l0,0c2.4-9.8,5.6-17.8,9.7-25.7l0,0c2.5-4.7,4.5-11.5,9.4-15.1
	l0,0c0.1-0.1,0.2-0.1,0.2-0.2l0,0l1.8-2L277.2,707.9z M340.3,752.2C340.2,752.2,340.2,752.2,340.3,752.2L340.3,752.2
	C340.2,752.2,340.2,752.2,340.3,752.2L340.3,752.2C340.2,752.2,340.2,752.2,340.3,752.2z M341.4,748.6c0,0-0.1-0.1-0.1-0.1l0,0
	c0,0,0,0,0,0l0,0C341.4,748.5,341.4,748.5,341.4,748.6L341.4,748.6C341.4,748.6,341.4,748.6,341.4,748.6L341.4,748.6z M341.2,748.4
	c-0.1-0.1-0.2-0.1-0.3-0.1l0,0c0.1,0,0.1,0,0.2,0.1l0,0C341.1,748.4,341.2,748.4,341.2,748.4L341.2,748.4z M312.1,683.9L312.1,683.9
	z M531.7,89.2L531.7,89.2L531.7,89.2L531.7,89.2L531.7,89.2z M541.3,40.3l2-0.3L541.3,40.3z M253.7,683.7L253.7,683.7
	c0,0,0,0.2-0.1,0.4l0,0C253.7,684,253.7,683.8,253.7,683.7z M288.1,631.7c-1.1-2-1.6-3-2.5-4.2l0,0c-2-3-4.8-5.8-7.5-8.5l0,0
	c-6.1-6.3-15.5-11.3-19-21.9l0,0c-0.7-2.4-1.1-6-1.1-9.6l0,0c0-3,0.2-5.9,0.8-8l0,0c1.7-6.4,5.4-10.7,8.2-15l0,0
	c2.5-3.8,4.8-7.8,7.2-11.8l0,0c0.2,0.1-0.1-0.8,0.8-2.6l0,0c5.5-9.1,8.3-19.3,12.2-31l0,0c4.7-14.4,9.8-29.3,9.8-47.7l0,0
	c0-0.7,0-1.4,0-2.1l0,0l-0.1-5.1l3.5,3.7c2.7,3.4,2,9.5,3.1,11.7l0,0c2.9,7.2,5.5,15,8,22.5l0,0c1.5,4.5,2.2,8.6,3.8,12.5l0,0
	c6.4,15.5,12.7,29.8,21,43.2l0,0c3.1,5,5.9,10.2,9,15.2l0,0c1,1.6,2.8,3.5,4,5.8l0,0c1.1,2.3,1,5,1.1,7.7l0,0c0,2.6,0.3,5.2,0.6,5.6
	l0,0l0.5,0.8l-0.3,0.9c-1.3,3.2-4.4,3.7-5.6,4.5l0,0c-2.4,1.3-4.9,2.8-7.6,4.2l0,0c-1.4,0.6-2.8,1.2-3.9,1.7l0,0
	c-9.6,5.8-19.7,10.4-28.8,16.2l0,0c-3.6,2.3-6.9,5.2-10.2,7.7l0,0c-1.1,1.1-2.2,2.2-3.3,3.3l0,0v6.9L288.1,631.7z M277.7,554.8
	c-2.4,3.9-4.6,8-7.3,11.9l0,0c-3.1,4.6-6.3,8.4-7.7,13.8l0,0c-0.4,1.4-0.7,4.2-0.7,7l0,0c0,3.3,0.4,6.8,0.9,8.4l0,0
	c2.8,8.8,11.2,13.5,18.1,20.3l0,0c2.7,2.7,5.6,5.7,7.9,9l0,0c0.5,0.7,0.9,1.4,1.3,2.1l0,0c0.7-0.7,1.5-1.5,2.3-2.3l0,0
	c3.4-2.6,6.8-5.6,10.7-8.1l0,0c9.4-6,19.6-10.6,29.1-16.4l0,0c1.4-0.6,2.7-1.2,4-1.7l0,0c2.4-1.3,4.9-2.8,7.5-4.1l0,0
	c1.5-0.7,2.7-1.3,3.3-1.8l0,0c-0.6-1.9-0.6-4.1-0.7-6.3l0,0c0-2.6-0.2-5.3-0.7-6l0,0c-0.7-1.5-2.5-3.5-3.8-5.5l0,0
	c-3.2-5.1-6-10.3-9-15.2l0,0c-8.4-13.7-14.9-28.3-21.3-43.8l0,0c-1.8-4.4-2.5-8.6-3.9-12.7l0,0c-2.3-7-4.7-14.2-7.4-20.9l0,0
	c-1.5,14.2-5.7,26.4-9.4,37.8l0,0c-3.8,11.5-6.6,22-12.5,31.8l0,0c0,0,0,0,0,0h0C278.3,552.2,278.5,553,277.7,554.8L277.7,554.8z
	 M297.5,470.7l1.5-1.4L297.5,470.7z M337.6,174.3c-3.5-0.9-10,0-14.2-2.3l0,0h-1.8l-0.2-1.8c-0.6-4.9-2.1-9.1-4-16.2l0,0
	c-0.2-0.5-0.2-0.8-0.2-0.9l0,0c0.1-1.2,0.4-1.9,0.7-2.7l0,0c1-2.3,2.2-4.8,3-6.9l0,0c0.7-2.8,1.4-5.7,2.1-8.5l0,0l0.1-0.3l0.1-0.2
	c1-1.7,2.5-2.9,2.9-3.7l0,0c1.8-2.9,3-7.7,3-12.4l0,0c0-1.4,0.2-2.6,0.2-3.6l0,0c0-0.7-0.1-1.1-0.2-1.4l0,0c0-0.1-1.7-1.4-2.5-1.9
	l0,0l-0.9-0.6v-1c0-0.6,0-1.2,0-1.7l0,0c0-1.1-0.1-1.8-0.2-1.8l0,0l-0.4-0.5l0-0.7c0-0.1,0-0.4,0.2-1.1l0,0c0.1-0.1,0.1-0.4,0.3-0.7
	l0,0c-0.6-19.2-9.7-32.3-23.2-38l0,0c-3.5-1.5-8.8-2.6-13.8-2.6l0,0c-2.9,0-5.7,0.4-8.2,1.2l0,0c-3.7,1.2-7.6,2.8-10.6,4.7l0,0
	c-7,4.4-12.3,11.8-15.1,20.6l0,0c-0.7,2.2-0.9,5.1-1.5,8.1l0,0c-0.2,0.9-0.3,2-0.3,3.2l0,0c0,2.8,0.5,6,0.7,8.7l0,0h0.6l0.3,1.6
	c0.3,1.8,0.7,3.6,1,5.4l0,0l0.1,0.4l-0.1,0.4c-0.5,1.3-1.1,2-1,2.1l0,0c-0.1,0.4-0.2,1.2-0.2,2l0,0c0,2.7,0.7,6.6,1.2,7.9l0,0
	c0.9,2.8,2.2,6,3.6,8.3l0,0c0.3,0.6,1.9,1.6,2.9,3.5l0,0l0.1,0.2l0.1,0.2c0.2,0.8,0.3,1.5,0.4,2l0,0c1.5,3.8,4.7,11.2,6.9,12.8l0,0
	l1,0.8l-0.3,1.2c-0.7,3.1-1.7,5.5-2.9,9.2l0,0l-0.3,0.8l-0.8,0.4c-2.5,1.2-5.2,2.2-8.3,3l0,0c-2,0.3-4.1,0.5-5.9,0.7l0,0
	c-2.6,0.7-5.4,1.6-8,2.3l0,0l-0.3,0.1h-0.3c-2,0-3.9,0-5.9,0l0,0c-2.4,0-5.1,0.2-7.9,0.2l0,0c-2.1,0-4.1-0.1-5.9-0.5l0,0
	c-1-0.2-2.2-0.3-3.4-0.3l0,0c-2.7,0-5.6,0.4-8.6,0.4l0,0c-1.3,0-2.5-0.1-3.7-0.3l0,0c-3.7,0-7.4,0-11.3,0l0,0
	c-5.8-0.5-12.6-0.3-18.2-1.5l0,0c-1.5-0.1-3.1-0.2-4.6-0.3l0,0l-0.2,0l-0.2,0c-4.8-1.1-10.6-1.3-15.5-2.5l0,0
	c-1.8-0.3-3.6-0.5-5.4-0.8l0,0l-0.2,0l-0.2-0.1c-3.4-1.4-5.6-4.7-7.3-6.8l0,0c-2.1-2.8-5.6-5.3-8.2-8.7l0,0c-1.1-1.5-2.2-3-3.2-3.7
	l0,0c-4.2-3.2-8-6.9-12-9.7l0,0c-10.3-7.4-20.7-14.5-31.1-21.9l0,0c-9.5-6.7-18.5-14-27.6-20.9l0,0c-1.1-0.9-2.5-2.5-4-4.1l0,0
	c-1.1-1.2-2.3-2.4-2.9-2.8l0,0l-2.5,0.6l0.7-3.1c0.7-3.3,0.9-7.7,1.8-11.8l0,0c0.1-0.6,0.2-1.4,0.2-2.3l0,0c0-0.6,0-1.2,0-1.8l0,0
	c0-0.5,0-1.1,0.1-1.5l0,0c0-1.3,0.1-4.3,0.3-5.7l0,0l0.1-0.5l0.3-0.4c1.8-1.9,3.3-1.4,5.3-1.6l0,0c3.1,0,6.9,0.5,9,1.1l0,0
	c2.6,0.8,4.3,2.5,5.8,3.2l0,0c1.4,0.8,1.5,1,2,1.1l0,0c3.5-0.6,8.6-6.9,13.4-9.6l0,0c13.8-7.2,28.5-12.8,43.1-18.9l0,0
	c17-7,35.2-11.7,53.8-16l0,0c11.8-2.8,42.4-8.2,57.4-9.6l0,0c10.3-1,43.7-2.6,47.2-2.6l0,0c1.2-0.1,3.2-0.1,5.7-0.1l0,0
	c7.7,0,19.5,0.3,22.8,0.3l0,0c4.1,0.1,25.1,1.3,41.6,2.6l0,0c10.3,1.1,17,2,25.3,3.1l0,0c7.7,1,12.1,1.7,18.1,2.8l0,0
	c16.8,3.2,29,5.6,45.1,9.3l0,0c10.7,2.4,21.6,5,32.1,8.5l0,0c3.7,1.2,7.8,2.3,11.8,3.6l0,0c2.6,0.8,6.1,1.9,8,2.6l0,0l0.5,0.2
	l0.4,0.4c0,0,0.1,0.1,0.1,0.1l0,0l0.8,0.7l-0.1,1.1c-0.2,1.5-0.3,3-0.3,4.5l0,0c0,5,0.8,10,0.8,15.8l0,0c0,1.8-0.3,3.8-0.3,5.3l0,0
	c0,1.1,0.3,1.8,0.3,1.9l0,0l0.8,0.9l-0.4,1.1c-2,5.7-7.5,8.7-9.8,11.9l0,0c-2.7,3.5-5.9,6.2-8.7,9l0,0c-4.7,4.7-9.3,9.6-14.9,13.8
	l0,0c-2.2,1.7-4.3,4.7-7.2,6.9l0,0c-4.3,3.2-8.5,7.4-11.9,12l0,0c-1,0.9-1.9,1.7-2.6,2.3l0,0c-2.4,3.2-5.3,5.4-7.2,8l0,0
	c-2.7,3.5-7.3,9.5-11.3,12.3l0,0c-9.1,6.4-23.6,10.4-35.1,13.7l0,0c-5.1,1.4-9.7,1.4-14.2,2.6l0,0c-6.6,1.7-13.2,2.3-19.5,4.1l0,0
	c-4.6,1.3-9.7,2.5-14.3,3.6l0,0c-0.5,0.1-1,0.1-1.5,0.1l0,0C345.1,176,339.4,174.7,337.6,174.3L337.6,174.3z M338.4,170.4
	c1.7,0.4,7.6,1.6,10,1.6l0,0c0.3,0,0.6,0,0.6,0l0,0c4.5-1.1,9.6-2.3,14.1-3.6l0,0c6.8-1.9,13.4-2.5,19.6-4.1l0,0
	c5.2-1.4,9.8-1.3,14.1-2.6l0,0c11.4-3.2,25.7-7.3,33.9-13.1l0,0c3-2.1,7.8-8,10.4-11.4l0,0c2.4-3.1,5.3-5.4,7.5-8.2l0,0
	c0.9-0.9,1.9-1.7,2.6-2.3l0,0c3.5-4.6,7.9-9,12.5-12.5l0,0c2.2-1.6,4.2-4.7,7.2-6.9l0,0c5.2-3.9,9.7-8.7,14.5-13.5l0,0
	c3-3,6-5.5,8.3-8.5l0,0c3-3.8,7.4-6.6,8.9-9.9l0,0c-0.5-1.1-0.6-2.3-0.6-3.4l0,0c0-2,0.3-4,0.3-5.3l0,0c0-5.4-0.8-10.4-0.8-15.8l0,0
	c0-1.2,0-2.3,0.1-3.6l0,0c-1.9-0.6-4.6-1.5-6.7-2.1l0,0c-3.9-1.2-8-2.3-11.9-3.6l0,0c-10.3-3.4-21-6-31.7-8.4l0,0
	c-16-3.6-28.2-6-45-9.2l0,0c-6-1.2-10.2-1.8-17.9-2.8l0,0c-8.3-1.1-14.9-2-25.1-3.1l0,0c-16.4-1.3-37.5-2.5-41.4-2.6l0,0
	c-3.2-0.1-15.1-0.3-22.7-0.3l0,0c-2.4,0-4.4,0-5.5,0.1l0,0c-3.2,0-37,1.5-46.9,2.6l0,0c-14.6,1.3-45.3,6.8-56.8,9.5l0,0
	c-18.6,4.4-36.6,9-53.2,15.8l0,0C122,49,107.4,54.7,93.9,61.7l0,0c-3.7,1.7-8.6,8.7-14.7,10l0,0l-0.2,0h-0.2c-2.3,0-3.6-1.3-4-1.5
	l0,0c-2.1-1.1-3.7-2.6-5.1-3l0,0c-1.4-0.4-5.2-1-7.9-0.9l0,0c-0.7,0-1.3,0-1.7,0.1l0,0c-0.1,1.4-0.2,3.4-0.2,4.2l0,0
	c0,0.4,0,0.9,0,1.3l0,0c0,0.6,0,1.2,0,1.8l0,0c0,1,0,2-0.3,3.1l0,0c-0.7,3.2-0.9,6.9-1.5,10.3l0,0c1.1,0.8,1.8,1.9,3.1,3l0,0
	c1.6,1.7,3.4,3.7,3.9,4l0,0c9.2,6.9,18.1,14.2,27.5,20.8l0,0c10.4,7.3,20.8,14.4,31.2,21.9l0,0c4.3,3.1,8.2,6.8,12.1,9.8l0,0
	c1.8,1.3,3,3.2,4,4.5l0,0c2.1,2.8,5.6,5.3,8.2,8.7l0,0c1.5,2,3.7,4.7,5.3,5.4l0,0c1.7,0.2,3.5,0.5,5.4,0.8l0,0
	c4.5,1.1,10.2,1.3,15.5,2.5l0,0c1.5,0.1,3,0.2,4.8,0.3l0,0c5.1,1.1,11.9,0.9,17.8,1.5l0,0c3.8,0,7.5,0,11.3,0l0,0h0.2l0.2,0
	c0.9,0.2,2,0.3,3.1,0.3l0,0c2.6,0,5.5-0.4,8.6-0.4l0,0c1.4,0,2.8,0.1,4.2,0.4l0,0c1.4,0.3,3.2,0.4,5.1,0.4l0,0
	c2.6,0,5.3-0.2,7.9-0.2l0,0c1.9,0,3.7,0,5.6,0l0,0c2.3-0.6,5.1-1.6,8-2.3l0,0c2.1-0.3,4.1-0.5,5.9-0.7l0,0c2.3-0.6,4.5-1.4,6.6-2.4
	l0,0c0.9-2.8,1.7-4.8,2.3-6.9l0,0c-3.2-3.5-5.6-10-7.2-13.8l0,0c-0.2-0.7-0.3-1.4-0.5-2.1l0,0c-0.4-0.5-1.7-1.5-2.6-3l0,0
	c-1.7-2.7-3.1-6.2-4-9.2l0,0c-0.6-1.9-1.4-5.7-1.4-9.1l0,0c0-1.1,0.1-2.1,0.3-3.1l0,0c0.3-0.9,0.6-1.4,0.9-1.8l0,0
	c-0.2-1-0.4-2.1-0.6-3.1l0,0h-1l-0.1-1.9c-0.1-2.6-0.9-6.8-0.9-10.8l0,0c0-1.4,0.1-2.8,0.4-4.1l0,0c0.6-2.4,0.7-5.5,1.6-8.4l0,0
	c3.1-9.5,8.9-17.7,16.8-22.7l0,0c3.4-2.2,7.6-3.8,11.5-5.1l0,0c3-1,6.2-1.3,9.4-1.4l0,0c5.7,0,11.3,1.2,15.4,3l0,0
	c15.4,6.5,25.7,22,25.7,43.3l0,0v2.3c0,0.3,0,0.6,0,0.9l0,0c0,0.2,0,0.4,0,0.6l0,0c0.9,0.6,2,1.4,2.8,2.6l0,0
	c0.6,1.1,0.7,2.3,0.7,3.3l0,0c0,1.4-0.2,2.7-0.2,3.6l0,0c-0.1,5.3-1.4,10.6-3.6,14.4l0,0c-0.9,1.5-2.2,2.6-2.7,3.3l0,0
	c-0.6,2.7-1.3,5.5-2.1,8.4l0,0c-0.9,2.5-2.2,5.2-3.1,7.3l0,0c-0.1,0.2-0.2,0.5-0.3,0.8l0,0c0,0.1-0.1,0.1-0.1,0.2l0,0
	c1.7,6.4,3.2,10.6,3.9,15.5l0,0C326.9,169.8,333.9,169.5,338.4,170.4L338.4,170.4z M252.5,111.4l-2,0.4L252.5,111.4L252.5,111.4
	L252.5,111.4z"/>
<path id="path8432" inkscape:connector-curvature="0" d="M543.3,67.2c-2.5-0.5-4.3-2.3-5.6-3.7l0,0c-1,0.3-2.1,0.4-3.1,0.4l0,0
	c-2.4,0-5.5-0.8-6.9-3.3l0,0c-0.6,0.1-1.3,0.2-1.9,0.2l0,0c-1.9,0-3.6-0.4-5-1.3l0,0c-2.1-1.8-2.6-4.5-2.7-7.2l0,0
	c0-1.1,0.1-2.3,1-3.4l0,0c0.7-0.8,1.9-0.9,2.7-0.3l0,0c0.8,0.7,0.9,1.9,0.3,2.7l0,0c0.1,0-0.1,0.3-0.1,1l0,0c0,1.2,0.5,3.1,0.9,3.8
	l0,0c0.1,0.2,0.2,0.3,0.2,0.3l0,0c0.2,0.2,1.6,0.7,2.8,0.6l0,0c0.9,0,1.7-0.2,2-0.4l0,0c0.6-0.4,1.3-0.5,2-0.2l0,0
	c0.6,0.3,1.1,1,1.1,1.7l0,0c0,1.1,1.4,2,3.8,2l0,0c1.1,0,2.3-0.3,2.8-0.6l0,0c0.8-0.5,1.8-0.3,2.4,0.5l0,0c1.1,1.5,3.1,3.4,4.2,3.5
	l0,0c0.1,0,0.1,0,0.2,0l0,0c0.4,0.1,1.3-0.8,3-2l0,0h0c0.9-0.6,2.1-0.3,2.6,0.6l0,0c0.6,0.9,0.3,2.1-0.6,2.6l0,0
	c-0.8,0.3-2.1,2.4-5,2.6l0,0C543.8,67.3,543.6,67.3,543.3,67.2L543.3,67.2z"/>
<path id="path8434" inkscape:connector-curvature="0" d="M38.8,76.4c-0.3,0-0.7,0-0.9,0l0,0c-1.1,0-2-0.9-2-2.1l0,0
	c0-1.1,0.9-2,2.1-2l0,0c0.4,0,0.7,0,0.9,0l0,0c1.2,0,1.5-0.1,3.6-1.2l0,0c1.4-0.7,1.7-2.2,3-4.4l0,0c0.6-1,1.9-1.3,2.8-0.7l0,0
	c1,0.6,1.3,1.9,0.7,2.8l0,0c-0.8,1.1-1.3,4-4.4,5.8l0,0c-2.1,1.2-3.7,1.7-5.4,1.7l0,0C38.9,76.4,38.9,76.4,38.8,76.4L38.8,76.4z"/>
<path id="path8436" inkscape:connector-curvature="0" d="M238.4,379.7c58.4,3.7,118.7-4.8,118.9-6.2c0.2-1.8-1.6-19.3-2.7-19
	c-30,9.7-116.7,6-116.7,7.5C237.7,369.2,237.8,379.7,238.4,379.7"/>
<path id="path8438" inkscape:connector-curvature="0" class="st0" d="M287.5,381.5c7.3,0.7,22.7-0.3,22.7-1.8c0,0,0.1-19.7-0.5-19.7
	c-3.3-0.4-22.7-0.4-22.7,1.1C286.8,368.3,287,381.4,287.5,381.5"/>
<path id="path8440" inkscape:connector-curvature="0" d="M287.3,383.5l0.2-2L287.3,383.5c-1.5-0.3-1.6-1.1-1.7-1.3l0,0
	c-0.1-0.3-0.1-0.4-0.2-0.6l0,0c-0.1-0.3-0.1-0.7-0.2-1.1l0,0c-0.1-0.9-0.1-2-0.2-3.3l0,0c-0.1-2.6-0.2-6.1-0.2-9.4l0,0
	c0-2.4,0-4.8,0.1-6.7l0,0c0.2-1.7,1.2-1.9,1.6-2.2l0,0c0.5-0.2,0.9-0.3,1.4-0.4l0,0c1-0.2,2.3-0.3,3.8-0.4l0,0
	c2.9-0.2,6.7-0.3,10-0.3l0,0c3.7,0,6.8,0.1,8.2,0.3l0,0c1.8,0.5,1.5,1.3,1.7,1.5l0,0c0.1,0.3,0.1,0.5,0.2,0.7l0,0
	c0.1,0.4,0.1,0.8,0.2,1.4l0,0c0.1,1.1,0.1,2.5,0.2,4.1l0,0c0.1,3.2,0.1,7.1,0.1,10l0,0c0,2.5,0,4.2,0,4.2l0,0
	c-0.2,1.7-1.2,1.9-1.6,2.2l0,0c-0.5,0.2-1,0.4-1.6,0.5l0,0c-1.1,0.3-2.6,0.5-4.3,0.7l0,0c-3.4,0.4-7.7,0.6-11.5,0.6l0,0
	C291.1,383.7,289,383.7,287.3,383.5L287.3,383.5z M293.3,379.7c5.5,0.1,12.6-0.6,15-1.1l0,0c0-0.7,0-1.8,0-3l0,0
	c0.1-4.1-0.1-11-0.2-13.7l0,0c-1.5-0.1-3.8-0.1-6.2-0.1l0,0c-4.7-0.1-10.7,0.3-12.8,0.6l0,0c0,1.6,0,3.5,0,5.4l0,0
	c0,4.6,0.1,9.5,0.3,11.9l0,0C290.4,379.7,291.8,379.7,293.3,379.7L293.3,379.7z"/>
<path id="path8442" inkscape:connector-curvature="0" d="M293.5,375.3c7.3,0.7,11.2,0.5,11.2-0.9c0,0,0.2-8.5-0.9-8.8
	c-2-0.5-11-1.1-11,0.4C292.7,373.2,293,375.3,293.5,375.3"/>
</svg>
