<?xml version="1.0" encoding="utf-8"?>
<!-- Generator: Adobe Illustrator 26.0.2, SVG Export Plug-In . SVG Version: 6.00 Build 0)  -->
<svg version="1.1" id="Layer_1" xmlns="http://www.w3.org/2000/svg" xmlns:xlink="http://www.w3.org/1999/xlink" x="0px" y="0px"
	 width="267.1px" height="362.2px" viewBox="0 0 267.1 362.2" style="enable-background:new 0 0 267.1 362.2;" xml:space="preserve"
	>
<style type="text/css">
	.st0{fill:#FFFFFF;stroke:#FFFFFF;stroke-width:1.33;}
	.st1{fill:#196A43;stroke:#FFFFFF;stroke-width:1.33;}
	.st2{fill:#FFFFFF;}
	.st3{fill:#196A43;}
</style>
<g id="IRLANDE">
	<path class="st0" d="M184.2,131.6l10.3,15v23.6L176,183.4l-26.7,5.3l-5,35.8l-2.4,28.2l-7.6,11.8l-11.2-4.1l5-15.2V227l-3.5-16.7
		l-7.6-16.7l-10-13.8l-16.7-13.2l-21.7-10l-5.3-22.9l9.7-20.3l20.6-11.5l23.6-4.1l26.7,3.8l23.6,12.4l17,17.3L184.2,131.6z"/>
	<path class="st1" d="M189.1,158.1c0.5,0,1.1-0.9,1.1-2.2c-0.1-1.6-0.3-3.2-0.8-4.8c-0.4-1.5-0.8-2.7-0.8-2.7
		c-7.1-18.4-21.5-33-39.7-40.3c-1.8-0.8-3.6-1.5-5.5-2.1c-8.4-2.5-17.2-3.9-25.9-4c-6.2-0.1-12.3,0.8-18.2,2.6l-1.2,0.5l0,0
		c0,0-2.8,0.9-6.3,2.5c-3.7,1.5-7.2,3.5-10.5,5.9c-1.5,1-2.6,2.5-2.9,4.3c0,0.5,0.3,1,0.7,1.2c0.9,0.7,2,1,3.1,0.9
		c1,0,2.8-0.4,3.8-0.4c2,0,2.8,0,4.6,0c9.5,0.2,18.9,1.2,28.1,3.2l0,0c0.7-1.2,1.8-2.1,3.1-2.6c0.7-0.3,1.4-0.6,2.1-0.7
		c0.2-0.1,0.5-0.1,0.7,0h0.6c0.4,0.3,0.7,0.7,0.8,1.2c0,0.2,0,0.4,0,0.6c0,0.6-0.2,1.1-0.5,1.5c-0.2,0.3-0.5,0.6-0.8,0.8l-0.5,0.4
		l4.9,1.8c0.6-0.6,1.4-1.1,2.2-1.5c0.7-0.3,1.4-0.5,2.1-0.7h0.7h0.6c0.5,0.2,0.8,0.7,0.9,1.2c0,0.2,0,0.4,0,0.6
		c0,0.6-0.2,1.1-0.5,1.5l0,0l4.1,1.3c0.5-0.4,1-0.7,1.6-0.9c0.6-0.3,1.3-0.6,2-0.7h0.7h0.7c0.4,0.3,0.7,0.7,0.8,1.2
		c0,0.2,0,0.4,0,0.6c0,0.5-0.2,1-0.5,1.5c14.7,5.3,28,13.7,39.3,24.5c3.1,3.1,4.6,3.7,5.5,3.7 M178.7,176.1
		c7.2-4.6,9.7-12.2,4.6-17.7c-11.9-11.5-26.2-20.2-41.9-25.5c-0.4,0.6-0.7,1.2-0.9,1.8c-0.4,1.1-0.7,2.2-0.8,3.3l0,0
		c0.1,0.2,0.1,0.5,0,0.7l0,0l-0.4,0.4l0,0c-0.2,0.1-0.4,0.1-0.7,0l0,0c-0.3,0.1-0.6,0.1-0.8,0l0,0c-0.2-0.1-0.3-0.3-0.4-0.5l0,0
		c-0.1-0.2-0.1-0.5,0-0.7l0,0c0.1-1.2-0.5-2.7-0.5-4.6c-0.1-0.6-0.1-1.3,0-2l-4.5-1.4c-0.2,0.3-0.5,0.5-0.7,0.8
		c-0.4,1-0.7,2.1-0.8,3.3l0,0c0,0.8-0.7,1.5-1.5,1.5l0,0l0,0c-0.8,0-1.5-0.7-1.5-1.6l0,0l0,0c0-1.2-0.5-2.7-0.5-4.6
		c0-0.4,0-0.7,0-1.1l-5.1-1.2l0,0c-0.4,1.1-0.7,2.2-0.8,3.3l0,0c0,0.7-0.5,1.2-1.1,1.4h-0.7c-0.7-0.1-1.2-0.7-1.2-1.4l0,0V130
		c0-1.1-0.5-2.5-0.5-4.1c-9.8-2.6-19.9-3.7-30-3.5c-5.4,0.4-12.5,2-13.8,6.3c-2.5,9.8,0.6,20.2,8,27.1c16.9,15.3,38.3,24.9,61,27.5
		c12.5,2,25.2-0.7,35.9-7.4 M130.2,257.5c3-4.8,11.1-21.2,10.5-50.8c-0.3-12.6-4-15.1-4-15.1c-6.2-1.2-12.3-2.9-18.3-5l-0.9-0.3
		c-1.2-0.2-0.6,0.8-0.6,0.8c21.2,22.8,11.6,74.4,12.2,70.4c0,1.3-0.3,1.7,0,1.7C129.4,259.3,129.5,258.9,130.2,257.5 M258.9,129.8
		c7.4,10.6,1.8,15.6-4.1,19.6c-7.6,4.2-16.3,6.3-25,5.9l0,0c-1.6,0-3.7,0.1-4.6,0c-0.8-0.1-1.2-0.4-1.4,0.3s1,1.1,4.6,2.8h0.4
		c6.7,2.8,12.7,7.3,17.3,12.9c3.9,5.7,7.7,12.4-3,19.8c-4.2,2.2-8.6,4-13.2,5.1c-1.9,1.3-3.5,6.7-9.4,10.6
		c-10.6,7.4-15.7,1.8-19.6-4.1c-4.7-8.5-6.8-18.3-5.9-28l0,0c-2,3.3-4.5,6.1-7.6,8.5c-6.7,5-14.5,8.3-22.8,9.5
		c-30.2,15.1-10.8,85.4-10.6,86.2c0.2,0.8-0.5,0.8-0.5,0.8h-43.6c-0.2,0.1-0.3,0.1-0.5,0c-0.1-0.2-0.1-0.4,0-0.5l0,0
		c40.5-64.8-11.1-101.9-11.1-101.9l-9.7-5.9c-4.2-2.7-8.1-5.6-11.8-8.9c5.7,10.6,7.5,22.9,4.8,34.7c-2.2,6.5-5.4,13.5-17.7,9.4
		c-4.2-2-8.2-4.6-11.8-7.5c-4.7,0.1-9.5-0.3-14.1-1.2c-12.4-4.1-10.6-11.6-8.5-18.1c2.8-6.7,7.1-12.6,12.7-17.3l0,0l2.3-2
		c1.4-1.1,1.8-1.4,1.4-2c-0.5-0.6-2.1,0.4-5.9,1.5c-8.2,2.7-17,3-25.5,1.1C8,158.7,1,155.6,5.1,143.3c2-4.2,4.5-8.2,7.5-11.8
		c-0.2-4.7,0.3-9.5,1.2-14.1c3.9-12.4,11.6-10.9,18.2-8.5c8,3.5,14.9,9.2,19.9,16.4l0,0c0.9,1.3,2,2.9,2.5,3.8
		c0.5,0.9,0.5,1.4,1.1,0.9c0.7-0.4,0.3-1.8-0.6-5.9l0,0c-1.6-6.9-1.5-14,0.3-20.9c2.2-6.6,5.4-13.6,17.7-9.5c4.2,2,8.2,4.5,11.8,7.5
		h1.1c4-1.8,7.4-3.1,8.3-3.4c7.3-2.6,15-3.8,22.8-3.6c2.2,0,4.6,0,7.2,0c-0.6-5.7-1.2-12.3-1.2-16.7c0-1.2-0.5-3.1-1.2-3.1
		c-0.8,0-1.5,0.9-3.5,3.3c-9.8,8.4-22.4,12.8-35.2,12.4l0,0c-3.2-0.1-6.3-1-9.1-2.7c-3.6-3.1-5.2-7.9-4-12.5
		c1.1-4.6,2.6-9.1,4.7-13.4c-1.2-4.6-1.8-9.3-1.9-14c1.4-12.9,9-12.9,15.9-12.2c6.6,1.7,12.8,4.9,18,9.3l0,0l2.2,1.7l0,0
		c1.4,0.9,1.8,1.2,2.2,0.9s-0.5-1.4-1.9-3.8l0,0l-0.6-1c-2.6-4.5-4.6-9.2-5.9-14.2V28v-1.2v-0.6V25v-0.6c0-0.6,0-1.5,0-1.8
		s0-0.9,0-0.9v-0.9c0-0.3,0-0.6,0-0.9s0-0.4,0-0.8s0-0.9,0-1.1s0-0.5,0-0.5c0.7-7.2,2.2-14.4,15.2-13.1c4.6,1,9.1,2.6,13.4,4.7
		c4.6-1.2,9.3-1.8,14-1.9c12.9,1.4,12.9,9,12.2,15.9c0,0.1,0,0.5,0,0.5v0.6v0.7v0.5v1.2V27v0.8l0,0c-0.2,0.6-0.6,1.2-0.6,1.8l0,0
		c-2.4,5.9-5.8,11.4-10,16.1l0,0l0,0c-1.1,1.2-2.5,2.7-3.2,3.3c-0.7,0.7-1.1,0.7-0.7,1.3s1.6-0.1,5.4-1.8l0,0l3.8-1.6h0.4l1.1-0.4
		l1.5-0.8h0.7l1.4-0.4h0.4l2-0.5l0,0c3.5-0.8,7-1,10.6-0.7c7.2,0.7,14.4,2.2,13.1,15.2l0,0c-1,4.6-2.6,9.1-4.7,13.4
		c1.2,4.6,1.8,9.3,1.8,14.1c-1.3,12.9-9,12.9-15.8,12.2c-12.5-2.6-23.5-10.1-30.6-20.8c-0.5-0.9-1.1-1.7-1.7-2.5
		c-0.8-0.9-1.1-0.8-1.7,0.7c-0.5,1.9-0.7,3.9-0.7,5.9c0.1,4.3,0.6,8.6,1.5,12.9c5.6,0.8,11,2.1,16.4,3.7c7.6,2.6,14.9,6.2,21.5,10.7
		l2.6,1.8l0,0c1.9-1.4,3.5-6.6,9.4-10.6c10.7-7.4,15.7-1.8,19.6,4.1c3.6,6.3,5.6,13.3,5.9,20.5l0,0l0,0c0,1,0,1.2,0,3
		s-0.1,2.3,0.6,2.4c0.7,0.1,0.8-1.8,2.2-5.5c2.7-8.2,7.7-15.5,14.4-21.1c5.7-3.9,12.4-7.7,19.8,3c2.2,4.2,4,8.6,5.1,13.2
		c1.4,1.9,6.7,3.5,10.6,9.4"/>
	<path class="st1" d="M59.3,333.7v-10.9c0-9.2,0.4-13.2,0.4-15.1c0.8-4,0.8-4.8,5.9-5.6c0.7-0.1,1.3-0.8,1.2-1.5
		c0-0.7-0.3-1.2-1-1.2H45.1c-0.7,0-1,0.7-1,1.2c0,0.8,0.5,1.4,1.2,1.5c5.2,0.8,5.6,1.7,5.9,5.6c0.4,1.8,0.4,6.1,0.4,15.2v10.7
		c0,9.1-0.4,12.7-0.4,14.5c-0.6,4.1-1.1,5.1-6.5,5.9c-0.7,0.1-1.3,0.8-1.2,1.5c0,0.6,0.3,1.2,1,1.2h21.8c0.7,0,1-0.7,1-1.2
		c0-0.8-0.5-1.4-1.2-1.5c-5.1-1.1-6-2-6.6-5.9c-0.4-4.8-0.5-9.6-0.4-14.4L59.3,333.7L59.3,333.7z"/>
	<path class="st1" d="M95.4,332.2l14.9,22.5c1.8,2.8,5.3,3.8,11.2,3.8c2.8,0,4.5-0.2,4.5-1.1c0-0.4-0.2-0.7-0.6-0.8
		c-3.9-1.9-7.3-4.9-9.6-8.6l-12.6-17.7c8-0.8,14.3-7.4,14.6-15.5c0-11.1-10.3-15.4-20.9-15.4H76.1c-0.7,0-1,0.6-1,1.2
		c0,0.8,0.5,1.4,1.2,1.5c5.2,0.8,5.6,1.7,5.9,5.6c0.4,1.8,0.4,5.9,0.4,14.9v10.7c0,9.1-0.4,12.7-0.4,14.5c-0.6,4.1-1.1,5.1-6.5,5.9
		c-0.7,0.1-1.3,0.8-1.2,1.5c0,0.6,0.3,1.2,1,1.2h22c0.7,0,1-0.7,1-1.2c0-0.8-0.5-1.4-1.2-1.5c-5.1-0.8-5.9-1.7-6.3-4.5
		c-0.6-5.5-0.8-11-0.5-16.5v-29.3c1.3-0.3,2.6-0.5,4-0.5c8.9,0,14.8,4.4,14.8,12.3c0,0.5,0,1.1,0,1.6c-0.6,7-6.8,12.1-13.8,11.5
		c-1,0-1.5,0.4-1.5,0.9c0.2,1,0.7,1.8,1.3,2.6L95.4,332.2z"/>
	<path class="st1" d="M143,324.6v-20.9c1.3-0.3,2.6-0.5,4-0.5h10c4.9,0,7.8,3.5,8.4,9.4c0,0.8,0.7,1.5,1.5,1.5h0.1
		c0.7,0,1.3-0.6,1.3-1.3v-11.2c0-1.6-1.1-2.2-2.8-2.2h-36.8c-0.7,0-1,0.7-1,1.2c0,0.8,0.5,1.4,1.2,1.5c5.2,0.8,5.6,1.7,5.9,5.6
		c0.4,1.8,0.4,5.9,0.4,14.9v11.2c0,9.2-0.4,12.5-0.4,14.3c-0.6,4.1-1.1,5.1-6.5,5.9c-0.7,0.1-1.3,0.8-1.2,1.5c0,0.6,0.3,1.2,1,1.2
		h25c0.7,0,1-0.7,1-1.2c0-0.8-0.5-1.4-1.2-1.5c-6.4-0.9-9.1-2-9.6-5.9c-0.4-4.7-0.5-9.5-0.4-14.2V329c2-0.3,3.9-0.4,5.9-0.3
		c7.3,0,10.5,0,11.3,5.9c0.1,0.7,0.8,1.3,1.5,1.2c0.6,0,1.2-0.3,1.2-1c0-1.7-0.5-3.5-0.5-7.6s0.5-6.5,0.5-8.7c0-0.7-0.7-1-1.2-1
		c-0.8,0-1.4,0.5-1.5,1.2c-1.2,6.3-3.9,6.3-11.5,6.3C146.7,325.1,144.9,325,143,324.6L143,324.6z"/>
	<path class="st1" d="M186,337.8v-15.4c0-8.8,0.3-12.9,0.3-14.7c0.8-4,0.8-4.8,5.9-5.6c0.7-0.1,1.3-0.8,1.2-1.5c0-0.7-0.3-1.2-1-1.2
		h-20.7c-0.7,0-1,0.7-1,1.2c0,0.8,0.5,1.4,1.2,1.5c5.2,0.8,5.6,1.7,5.9,5.6c0.4,1.8,0.4,5.9,0.4,14.9v15.5
		c0,13.9,9.8,19.1,21.2,19.1c13.7,0,22.7-5.9,22.7-17.7v-17.1c0.4-8.8,0.4-12.9,0.4-14.7c0.8-4,0.8-4.8,5.9-5.6
		c0.7-0.1,1.3-0.8,1.2-1.5c0-0.7-0.3-1.2-1-1.2h-18.7c-0.7,0-1,0.7-1,1.2c0,0.8,0.5,1.4,1.2,1.5c5.2,0.8,5.6,1.7,5.9,5.6
		c0.4,1.8,0.4,5.9,0.4,14.9v18c0,7.3-5.6,12.3-15.7,12.3c-0.8,0.1-1.6,0.1-2.4,0c-7.7-0.7-13.3-7.5-12.7-15.1L186,337.8L186,337.8z"
		/>
	<path class="st2" d="M184.2,131.6l10.3,15v23.6L176,183.4l-26.7,5.3l-5,35.8l-2.4,28.2l-7.6,11.8l-11.2-4.1l5-15.2V227l-3.5-16.7
		l-7.6-16.7l-10-13.8l-16.7-13.2l-21.7-10l-5.3-22.9l9.7-20.3l20.6-11.5l23.6-4.1l26.7,3.8l23.6,12.4l17,17.3L184.2,131.6z"/>
	<path class="st3" d="M189.1,158.1c0.5,0,1.1-0.9,1.1-2.2c-0.1-1.6-0.3-3.2-0.8-4.8c-0.4-1.5-0.8-2.7-0.8-2.7
		c-7.1-18.4-21.5-33-39.7-40.3c-1.8-0.8-3.6-1.5-5.5-2.1c-8.4-2.5-17.2-3.9-25.9-4c-6.2-0.1-12.3,0.8-18.2,2.6l-1.2,0.5l0,0
		c0,0-2.8,0.9-6.3,2.5c-3.7,1.5-7.2,3.5-10.5,5.9c-1.5,1-2.6,2.5-2.9,4.3c0,0.5,0.3,1,0.7,1.2c0.9,0.7,2,1,3.1,0.9
		c1,0,2.8-0.4,3.8-0.4c2,0,2.8,0,4.6,0c9.5,0.2,18.9,1.2,28.1,3.2l0,0c0.7-1.2,1.8-2.1,3.1-2.6c0.7-0.3,1.4-0.6,2.1-0.7
		c0.2-0.1,0.5-0.1,0.7,0h0.6c0.4,0.3,0.7,0.7,0.8,1.2c0,0.2,0,0.4,0,0.6c0,0.6-0.2,1.1-0.5,1.5c-0.2,0.3-0.5,0.6-0.8,0.8l-0.5,0.4
		l4.9,1.8c0.6-0.6,1.4-1.1,2.2-1.5c0.7-0.3,1.4-0.5,2.1-0.7h0.7h0.6c0.5,0.2,0.8,0.7,0.9,1.2c0,0.2,0,0.4,0,0.6
		c0,0.6-0.2,1.1-0.5,1.5l0,0l4.1,1.3c0.5-0.4,1-0.7,1.6-0.9c0.6-0.3,1.3-0.6,2-0.7h0.7h0.7c0.4,0.3,0.7,0.7,0.8,1.2
		c0,0.2,0,0.4,0,0.6c0,0.5-0.2,1-0.5,1.5c14.7,5.3,28,13.7,39.3,24.5c3.1,3.1,4.6,3.7,5.5,3.7 M178.7,176.1
		c7.2-4.6,9.7-12.2,4.6-17.7c-11.9-11.5-26.2-20.2-41.9-25.5c-0.4,0.6-0.7,1.2-0.9,1.8c-0.4,1.1-0.7,2.2-0.8,3.3l0,0
		c0.1,0.2,0.1,0.5,0,0.7l0,0l-0.4,0.4l0,0c-0.2,0.1-0.4,0.1-0.7,0l0,0c-0.3,0.1-0.6,0.1-0.8,0l0,0c-0.2-0.1-0.3-0.3-0.4-0.5l0,0
		c-0.1-0.2-0.1-0.5,0-0.7l0,0c0.1-1.2-0.5-2.7-0.5-4.6c-0.1-0.6-0.1-1.3,0-2l-4.5-1.4c-0.2,0.3-0.5,0.5-0.7,0.8
		c-0.4,1-0.7,2.1-0.8,3.3l0,0c0,0.8-0.7,1.5-1.5,1.5l0,0l0,0c-0.8,0-1.5-0.7-1.5-1.6l0,0l0,0c0-1.2-0.5-2.7-0.5-4.6
		c0-0.4,0-0.7,0-1.1l-5.1-1.2l0,0c-0.4,1.1-0.7,2.2-0.8,3.3l0,0c0,0.7-0.5,1.2-1.1,1.4h-0.7c-0.7-0.1-1.2-0.7-1.2-1.4l0,0V130
		c0-1.1-0.5-2.5-0.5-4.1c-9.8-2.6-19.9-3.7-30-3.5c-5.4,0.4-12.5,2-13.8,6.3c-2.5,9.8,0.6,20.2,8,27.1c16.9,15.3,38.3,24.9,61,27.5
		c12.5,2,25.2-0.7,35.9-7.4 M130.2,257.5c3-4.8,11.1-21.2,10.5-50.8c-0.3-12.6-4-15.1-4-15.1c-6.2-1.2-12.3-2.9-18.3-5l-0.9-0.3
		c-1.2-0.2-0.6,0.8-0.6,0.8c21.2,22.8,11.6,74.4,12.2,70.4c0,1.3-0.3,1.7,0,1.7C129.4,259.3,129.5,258.9,130.2,257.5 M258.9,129.8
		c7.4,10.6,1.8,15.6-4.1,19.6c-7.6,4.2-16.3,6.3-25,5.9l0,0c-1.6,0-3.7,0.1-4.6,0c-0.8-0.1-1.2-0.4-1.4,0.3s1,1.1,4.6,2.8h0.4
		c6.7,2.8,12.7,7.3,17.3,12.9c3.9,5.7,7.7,12.4-3,19.8c-4.2,2.2-8.6,4-13.2,5.1c-1.9,1.3-3.5,6.7-9.4,10.6
		c-10.6,7.4-15.7,1.8-19.6-4.1c-4.7-8.5-6.8-18.3-5.9-28l0,0c-2,3.3-4.5,6.1-7.6,8.5c-6.7,5-14.5,8.3-22.8,9.5
		c-30.2,15.1-10.8,85.4-10.6,86.2c0.2,0.8-0.5,0.8-0.5,0.8h-43.6c-0.2,0.1-0.3,0.1-0.5,0c-0.1-0.2-0.1-0.4,0-0.5l0,0
		c40.5-64.8-11.1-101.9-11.1-101.9l-9.7-5.9c-4.2-2.7-8.1-5.6-11.8-8.9c5.7,10.6,7.5,22.9,4.8,34.7c-2.2,6.5-5.4,13.5-17.7,9.4
		c-4.2-2-8.2-4.6-11.8-7.5c-4.7,0.1-9.5-0.3-14.1-1.2c-12.4-4.1-10.6-11.6-8.5-18.1c2.8-6.7,7.1-12.6,12.7-17.3l0,0l2.3-2
		c1.4-1.1,1.8-1.4,1.4-2c-0.5-0.6-2.1,0.4-5.9,1.5c-8.2,2.7-17,3-25.5,1.1C8,158.7,1,155.6,5.1,143.3c2-4.2,4.5-8.2,7.5-11.8
		c-0.2-4.7,0.3-9.5,1.2-14.1c3.9-12.4,11.6-10.9,18.2-8.5c8,3.5,14.9,9.2,19.9,16.4l0,0c0.9,1.3,2,2.9,2.5,3.8
		c0.5,0.9,0.5,1.4,1.1,0.9c0.7-0.4,0.3-1.8-0.6-5.9l0,0c-1.6-6.9-1.5-14,0.3-20.9c2.2-6.6,5.4-13.6,17.7-9.5c4.2,2,8.2,4.5,11.8,7.5
		h1.1c4-1.8,7.4-3.1,8.3-3.4c7.3-2.6,15-3.8,22.8-3.6c2.2,0,4.6,0,7.2,0c-0.6-5.7-1.2-12.3-1.2-16.7c0-1.2-0.5-3.1-1.2-3.1
		c-0.8,0-1.5,0.9-3.5,3.3c-9.8,8.4-22.4,12.8-35.2,12.4l0,0c-3.2-0.1-6.3-1-9.1-2.7c-3.6-3.1-5.2-7.9-4-12.5
		c1.1-4.6,2.6-9.1,4.7-13.4c-1.2-4.6-1.8-9.3-1.9-14c1.4-12.9,9-12.9,15.9-12.2c6.6,1.7,12.8,4.9,18,9.3l0,0l2.2,1.7l0,0
		c1.4,0.9,1.8,1.2,2.2,0.9s-0.5-1.4-1.9-3.8l0,0l-0.6-1c-2.6-4.5-4.6-9.2-5.9-14.2V28v-1.2v-0.6V25v-0.6c0-0.6,0-1.5,0-1.8
		s0-0.9,0-0.9v-0.9c0-0.3,0-0.6,0-0.9s0-0.4,0-0.8s0-0.9,0-1.1s0-0.5,0-0.5c0.7-7.2,2.2-14.4,15.2-13.1c4.6,1,9.1,2.6,13.4,4.7
		c4.6-1.2,9.3-1.8,14-1.9c12.9,1.4,12.9,9,12.2,15.9c0,0.1,0,0.5,0,0.5v0.6v0.7v0.5v1.2V27v0.8l0,0c-0.2,0.6-0.6,1.2-0.6,1.8l0,0
		c-2.4,5.9-5.8,11.4-10,16.1l0,0l0,0c-1.1,1.2-2.5,2.7-3.2,3.3c-0.7,0.7-1.1,0.7-0.7,1.3s1.6-0.1,5.4-1.8l0,0l3.8-1.6h0.4l1.1-0.4
		l1.5-0.8h0.7l1.4-0.4h0.4l2-0.5l0,0c3.5-0.8,7-1,10.6-0.7c7.2,0.7,14.4,2.2,13.1,15.2l0,0c-1,4.6-2.6,9.1-4.7,13.4
		c1.2,4.6,1.8,9.3,1.8,14.1c-1.3,12.9-9,12.9-15.8,12.2c-12.5-2.6-23.5-10.1-30.6-20.8c-0.5-0.9-1.1-1.7-1.7-2.5
		c-0.8-0.9-1.1-0.8-1.7,0.7c-0.5,1.9-0.7,3.9-0.7,5.9c0.1,4.3,0.6,8.6,1.5,12.9c5.6,0.8,11,2.1,16.4,3.7c7.6,2.6,14.9,6.2,21.5,10.7
		l2.6,1.8l0,0c1.9-1.4,3.5-6.6,9.4-10.6c10.7-7.4,15.7-1.8,19.6,4.1c3.6,6.3,5.6,13.3,5.9,20.5l0,0l0,0c0,1,0,1.2,0,3
		s-0.1,2.3,0.6,2.4c0.7,0.1,0.8-1.8,2.2-5.5c2.7-8.2,7.7-15.5,14.4-21.1c5.7-3.9,12.4-7.7,19.8,3c2.2,4.2,4,8.6,5.1,13.2
		c1.4,1.9,6.7,3.5,10.6,9.4"/>
	<path class="st3" d="M59.3,333.7v-10.9c0-9.2,0.4-13.2,0.4-15.1c0.8-4,0.8-4.8,5.9-5.6c0.7-0.1,1.3-0.8,1.2-1.5
		c0-0.7-0.3-1.2-1-1.2H45.1c-0.7,0-1,0.7-1,1.2c0,0.8,0.5,1.4,1.2,1.5c5.2,0.8,5.6,1.7,5.9,5.6c0.4,1.8,0.4,6.1,0.4,15.2v10.7
		c0,9.1-0.4,12.7-0.4,14.5c-0.6,4.1-1.1,5.1-6.5,5.9c-0.7,0.1-1.3,0.8-1.2,1.5c0,0.6,0.3,1.2,1,1.2h21.8c0.7,0,1-0.7,1-1.2
		c0-0.8-0.5-1.4-1.2-1.5c-5.1-1.1-6-2-6.6-5.9c-0.4-4.8-0.5-9.6-0.4-14.4L59.3,333.7L59.3,333.7z"/>
	<path class="st3" d="M95.4,332.2l14.9,22.5c1.8,2.8,5.3,3.8,11.2,3.8c2.8,0,4.5-0.2,4.5-1.1c0-0.4-0.2-0.7-0.6-0.8
		c-3.9-1.9-7.3-4.9-9.6-8.6l-12.6-17.7c8-0.8,14.3-7.4,14.6-15.5c0-11.1-10.3-15.4-20.9-15.4H76.1c-0.7,0-1,0.6-1,1.2
		c0,0.8,0.5,1.4,1.2,1.5c5.2,0.8,5.6,1.7,5.9,5.6c0.4,1.8,0.4,5.9,0.4,14.9v10.7c0,9.1-0.4,12.7-0.4,14.5c-0.6,4.1-1.1,5.1-6.5,5.9
		c-0.7,0.1-1.3,0.8-1.2,1.5c0,0.6,0.3,1.2,1,1.2h22c0.7,0,1-0.7,1-1.2c0-0.8-0.5-1.4-1.2-1.5c-5.1-0.8-5.9-1.7-6.3-4.5
		c-0.6-5.5-0.8-11-0.5-16.5v-29.3c1.3-0.3,2.6-0.5,4-0.5c8.9,0,14.8,4.4,14.8,12.3c0,0.5,0,1.1,0,1.6c-0.6,7-6.8,12.1-13.8,11.5
		c-1,0-1.5,0.4-1.5,0.9c0.2,1,0.7,1.8,1.3,2.6L95.4,332.2z"/>
	<path class="st3" d="M143,324.6v-20.9c1.3-0.3,2.6-0.5,4-0.5h10c4.9,0,7.8,3.5,8.4,9.4c0,0.8,0.7,1.5,1.5,1.5h0.1
		c0.7,0,1.3-0.6,1.3-1.3v-11.2c0-1.6-1.1-2.2-2.8-2.2h-36.8c-0.7,0-1,0.7-1,1.2c0,0.8,0.5,1.4,1.2,1.5c5.2,0.8,5.6,1.7,5.9,5.6
		c0.4,1.8,0.4,5.9,0.4,14.9v11.2c0,9.2-0.4,12.5-0.4,14.3c-0.6,4.1-1.1,5.1-6.5,5.9c-0.7,0.1-1.3,0.8-1.2,1.5c0,0.6,0.3,1.2,1,1.2
		h25c0.7,0,1-0.7,1-1.2c0-0.8-0.5-1.4-1.2-1.5c-6.4-0.9-9.1-2-9.6-5.9c-0.4-4.7-0.5-9.5-0.4-14.2V329c2-0.3,3.9-0.4,5.9-0.3
		c7.3,0,10.5,0,11.3,5.9c0.1,0.7,0.8,1.3,1.5,1.2c0.6,0,1.2-0.3,1.2-1c0-1.7-0.5-3.5-0.5-7.6s0.5-6.5,0.5-8.7c0-0.7-0.7-1-1.2-1
		c-0.8,0-1.4,0.5-1.5,1.2c-1.2,6.3-3.9,6.3-11.5,6.3C146.7,325.1,144.9,325,143,324.6L143,324.6z"/>
	<path class="st3" d="M186,337.8v-15.4c0-8.8,0.3-12.9,0.3-14.7c0.8-4,0.8-4.8,5.9-5.6c0.7-0.1,1.3-0.8,1.2-1.5c0-0.7-0.3-1.2-1-1.2
		h-20.7c-0.7,0-1,0.7-1,1.2c0,0.8,0.5,1.4,1.2,1.5c5.2,0.8,5.6,1.7,5.9,5.6c0.4,1.8,0.4,5.9,0.4,14.9v15.5
		c0,13.9,9.8,19.1,21.2,19.1c13.7,0,22.7-5.9,22.7-17.7v-17.1c0.4-8.8,0.4-12.9,0.4-14.7c0.8-4,0.8-4.8,5.9-5.6
		c0.7-0.1,1.3-0.8,1.2-1.5c0-0.7-0.3-1.2-1-1.2h-18.7c-0.7,0-1,0.7-1,1.2c0,0.8,0.5,1.4,1.2,1.5c5.2,0.8,5.6,1.7,5.9,5.6
		c0.4,1.8,0.4,5.9,0.4,14.9v18c0,7.3-5.6,12.3-15.7,12.3c-0.8,0.1-1.6,0.1-2.4,0c-7.7-0.7-13.3-7.5-12.7-15.1L186,337.8L186,337.8z"
		/>
</g>
</svg>
