<?xml version="1.0" encoding="utf-8"?>
<!-- Generator: Adobe Illustrator 26.0.2, SVG Export Plug-In . SVG Version: 6.00 Build 0)  -->
<svg version="1.1"
	 id="svg2" xmlns:cc="http://creativecommons.org/ns#" xmlns:dc="http://purl.org/dc/elements/1.1/" xmlns:inkscape="http://www.inkscape.org/namespaces/inkscape" xmlns:rdf="http://www.w3.org/1999/02/22-rdf-syntax-ns#" xmlns:sodipodi="http://sodipodi.sourceforge.net/DTD/sodipodi-0.dtd" xmlns:svg="http://www.w3.org/2000/svg"
	 xmlns="http://www.w3.org/2000/svg" xmlns:xlink="http://www.w3.org/1999/xlink" x="0px" y="0px" width="875px" height="1000px"
	 viewBox="0 0 875 1000" style="enable-background:new 0 0 875 1000;" xml:space="preserve">
<style type="text/css">
	.st0{fill:#9F8946;}
	.st1{fill:#86743A;}
	.st2{fill:#0053A1;}
	.st3{fill:#00795D;}
	.st4{fill:#DD052B;}
	.st5{fill:#FFFFFF;}
</style>
<sodipodi:namedview  bordercolor="#666666" borderopacity="1" gridtolerance="10" guidetolerance="10" id="namedview138" inkscape:current-layer="svg2" inkscape:cx="763.23822" inkscape:cy="900.3136" inkscape:pageopacity="0" inkscape:pageshadow="2" inkscape:window-height="1018" inkscape:window-maximized="1" inkscape:window-width="1920" inkscape:window-x="1358" inkscape:window-y="-8" inkscape:zoom="3.776" objecttolerance="10" pagecolor="#ffffff" showgrid="false">
	</sodipodi:namedview>
<path id="path6" inkscape:connector-curvature="0" class="st0" d="M754.2,54.4V23.8h13.7c3.4,0,5.9,0.3,7.5,0.8
	c1.6,0.6,2.8,1.5,3.7,2.9c0.9,1.4,1.4,3,1.4,4.8c0,2.3-0.7,4.2-2.1,5.7c-1.4,1.5-3.5,2.4-6.3,2.8c1.4,0.8,2.5,1.7,3.5,2.6
	c0.9,0.9,2.1,2.6,3.7,5l3.9,6h-7.7l-4.7-6.6c-1.7-2.4-2.8-3.9-3.4-4.5c-0.6-0.6-1.3-1-2-1.3c-0.7-0.2-1.8-0.3-3.3-0.3h-1.3v12.8
	L754.2,54.4L754.2,54.4z M760.7,36.7h4.8c3.1,0,5-0.1,5.8-0.4c0.8-0.2,1.4-0.7,1.8-1.3c0.4-0.6,0.7-1.4,0.7-2.3c0-1-0.3-1.9-0.9-2.5
	c-0.6-0.6-1.4-1.1-2.4-1.2c-0.5-0.1-2.1-0.1-4.7-0.1h-5.1L760.7,36.7L760.7,36.7z"/>
<path id="path8" inkscape:connector-curvature="0" class="st0" d="M767.7,11.4c-15.3,0-27.6,12.4-27.6,27.6
	c0,15.2,12.4,27.7,27.6,27.7c15.3,0,27.6-12.4,27.6-27.7S783,11.4,767.7,11.4 M767.7,61.9c-12.6,0-22.8-10.3-22.8-22.8
	c0-12.6,10.2-22.8,22.8-22.8s22.8,10.2,22.8,22.8C790.6,51.6,780.3,61.9,767.7,61.9"/>
<path id="path10" inkscape:connector-curvature="0" class="st1" d="M67.9,447.9c0,0,14.1,20.7,15.4,28.6c1.3,7.9,4.5,11,4.5,11
	s11.6-16.8,15.4-21.4c3.9-4.5,12.8-15.7,15.8-18.3c3-2.6,10.4-5,10.4-5s0.8,6.6-0.6,15.8c-1.4,9.2-1.5,15.9-2.3,20.2
	c-0.7,3.8-2.6,14.3-3.3,17.7c-0.8,3.4-0.1,4.3-0.1,4.3s4.6-2.4,7.8-9.8c3.2-7.4,5.2-11.4,6.1-14.4c0.9-3,7.6-6.3,7.6-6.3
	s3.2,7.5,2.7,18.7c-0.5,11.2,0.5,22.2-2.3,31.4c-2.8,9.2-3.5,11.1-1.2,19.2c2.3,8.1,4.1,8.8,3.9,14.7c-0.3,5.8-0.3,14.5,0.1,15
	c2,2.9,0.8,0.3,10.1,5.8c0,0,0,22.5-0.6,34.8c-0.2,3.5,5.5,6.4,7.7,7.6c2.2,1.3,2.8,2.9,2.8,2.9s-0.1,11.8-0.1,16.9
	c0,5.1-0.1,10.6,1.8,16.9c1.9,6.2,13.8,21.7,18.9,25.9c5.1,4.2,9.7,11,17.5,15.7c7.9,4.7,35,10.9,42.1,14.7
	c7.1,3.8,16.7,11.5,23.7,20.8c7,9.2,11.9,16.6,13.7,17.4c1.8,0.8,38.7,30,38.7,30s-44.7,38.7-56.9,57.2c-8.7,13.2-20.7,31.1-51,12.9
	c-5.9-3.6-29.7-20.1-32.3-20.6c-2.6-0.5-17-8.9-23.9-10c-7-1.1-13.1-2.8-21-9.6c-7.9-6.9-13.1-10.1-18.9-11.2
	c-5.8-1-8.5-3.2-9.5-6.1c-1-2.9-2.8-2.5-8.5-3c-5.7-0.5-9.1-3.4-9.1-3.4s3.9-1.6,5.1-5.9c1.1-4.3-3.5-5.6-9-10.8
	c-5.5-5.2-14.3-15.3-19.8-21c-5.5-5.7-10.5-9-10.5-9s2.5-0.4,3.9-2.6c1.4-2.2,1.8-1.7-4.9-13.5c-6.7-11.8-20-32-30.6-51.1
	c-10.1-18.2-12.6-26.4-15.5-33.4c-3-7-5.3-21.2-5.3-21.2s8.2,3.4,12.5,6.7c4.3,3.2,9.2,4.8,9.2,4.8s0.3-9.7-2.6-22.5
	c-2.8-12.9-5.4-29.6-5.1-39.4c0.3-9.8,6.8-10.4,7.2-16c0.4-5.6-0.5-22.3-1.3-30.8c-0.8-8.5-2.3-12.1-2.6-14.8
	c-1.2-13,0-11.8,0.1-15.8c0,0,8.2,2.1,12.5,11.9c2.8,6.5,6.1,12.3,7.4,13.2c1.3,1,3.1-1.2,3.9-5.4c0.8-4.3,6.1-20.8,8.2-27.7
	c2.4-7.8,4.7-18.6,5.5-22.1C62,455.1,67.9,447.9,67.9,447.9"/>
<path id="path12" inkscape:connector-curvature="0" class="st0" d="M67.9,447.9l-3.1,2.1c0,0,0.9,1.3,2.2,3.3c2,3.1,5,7.8,7.6,12.5
	c2.6,4.6,4.8,9.4,5,11.3c1.4,8.8,5.1,12.7,5.6,13.2l3.2,3.1l2.5-3.7c0,0,2.9-4.2,6.2-9c3.3-4.7,7.2-10.1,9-12.1
	c2-2.3,5.2-6.2,8.2-9.9c1.5-1.8,3-3.6,4.3-5c1.3-1.4,2.4-2.6,2.8-3l0,0l0,0c0.8-0.7,3.2-2,5.2-2.8c1-0.4,2-0.8,2.7-1
	c0.7-0.2,1.1-0.4,1.1-0.4l-1.2-3.6l-3.8,0.5l0,0.2c0.1,0.6,0.2,2,0.2,4.2c0,2.6-0.2,6.2-0.8,10.3c-1.4,9.4-1.6,16.3-2.3,20.1l0,0
	l0,0c-0.7,3.8-2.6,14.4-3.3,17.5l0,0l0,0c-0.3,1.5-0.5,2.7-0.5,3.7c0,1.7,0.4,2.9,1,3.7l1.9,2.6l2.9-1.5c0.5-0.3,6-3.2,9.6-11.6
	c3.2-7.3,5.1-11.3,6.2-14.8l-0.5-0.2l0.5,0.3l0-0.1l-0.5-0.2l0.5,0.3c0-0.2,1.5-1.6,3-2.5c0.7-0.5,1.4-0.9,2-1.2l0.6-0.3l0.2-0.1
	l-1.7-3.4l-3.5,1.5l0,0c0.2,0.4,2.4,6.2,2.4,14.8c0,0.7,0,1.5-0.1,2.2c-0.5,11.5,0.4,22.4-2.2,30.5c-1.6,5.3-2.7,8.6-2.7,12.5
	c0,2.7,0.6,5.4,1.6,8.8c1.1,4,2.2,6.4,2.9,8.1c0.6,1.7,0.9,2.5,0.9,4.5l0,0.9l0,0l0-0.1c-0.1,2.7-0.2,5.9-0.2,8.7
	c0,1.7,0,3.3,0.1,4.6l0.1,1.7l0.1,0.8c0.1,0.3,0,0.6,0.6,1.6l0-0.1l0,0c0.5,0.8,1,1.5,1.9,2.2l1.9,1c0.7,0.3,1.2,0.4,2.3,0.9
	c1.1,0.5,2.8,1.3,5.3,2.8l1.9-3.3h-3.8c0,0,0,5.6-0.1,12.7c-0.1,7.1-0.2,15.8-0.5,21.9l0,0.3c0,1.9,0.8,3.5,1.6,4.7
	c1.3,1.8,2.9,3,4.4,4c1.5,1,2.9,1.7,3.6,2.1l1.9-3.3l-2,3.3l1.2,1l0.1,0.2l1.2-0.7l-1.3,0.5l0.1,0.2l1.2-0.7l-1.3,0.5l3.5-1.5
	l-3.8,0c0,0-0.1,11.8-0.1,16.9l0,1.8c0,4.6,0.1,10.1,2,16.2c0.7,2.1,1.9,4.4,3.4,6.9c2.3,3.8,5.4,8,8.4,11.8c3.1,3.8,5.9,7,8.3,8.9
	l0,0l0,0c4.5,3.5,9.3,10.8,18,16c2.5,1.4,5.7,2.7,9.6,4.1c5.8,2,12.8,4,19,5.9c6.1,1.9,11.7,3.7,13.7,4.8c6.5,3.4,15.9,11,22.4,19.7
	c3.5,4.6,6.4,8.7,8.8,11.9c1.2,1.6,2.2,2.9,3.1,4l1.4,1.5c0.5,0.4,1,0.9,1.9,1.3l0,0h0l1.1-2.5l-1.3,2.4l0.3,0.1l1.1-2.5l-1.3,2.4
	l0,0c0.2,0.2,1.2,0.9,2.5,1.8c4.5,3.4,13.5,10.4,21.2,16.5c7.8,6.1,14.4,11.3,14.4,11.4l2.4-3l-2.5-2.9c0,0-11.2,9.7-24,21.8
	c-12.8,12.1-27,26.3-33.6,36.2c-3,4.6-6.3,9.5-10.3,13c-4,3.6-8.4,5.9-14.5,5.9c-5.3,0-12.2-1.9-21-7.2c-2.8-1.6-10.3-6.7-17.3-11.4
	c-3.5-2.3-6.9-4.6-9.7-6.3c-1.4-0.9-2.6-1.6-3.6-2.1l-1.4-0.7c-0.5-0.2-0.8-0.4-1.6-0.6h0l0,0l-0.2,0.9l0.3-0.9l-0.1,0l-0.2,0.9
	l0.3-0.9c-0.2,0-1.7-0.7-3.5-1.6c-2.7-1.3-6.4-3.2-10.1-4.8c-3.7-1.6-7.3-3.1-10.6-3.6l0,0c-6.7-1.1-11.7-2.4-19-8.7
	c-8-7-13.9-10.8-20.8-12.1l0,0l0,0c-2.5-0.4-4.1-1.1-5-1.8c-0.9-0.6-1.3-1.2-1.5-1.9l0,0l0,0c-0.4-1.1-1-2.2-2-3.1
	c-1.5-1.4-3.3-1.8-4.7-1.9c-1.5-0.2-3-0.2-5-0.4h0c-2.3-0.2-4.1-0.9-5.3-1.5l-1.4-0.8l-0.3-0.2l0,0l-1,1.3l1-1.2l0,0l-1,1.3l1-1.2
	l-2.4,2.9l1.4,3.5c0.2-0.1,1.6-0.6,3.1-1.9c1.5-1.3,3.4-3.4,4.2-6.5l0,0c0.2-0.7,0.3-1.5,0.3-2.2c0-1.7-0.6-3.3-1.4-4.4
	c-1.2-1.7-2.7-2.8-4.2-4c-1.5-1.2-3.1-2.4-4.8-4c-5.3-4.9-14-15.1-19.7-20.9c-5.8-6-10.9-9.4-11.1-9.5l-2.1,3.2l0.6,3.8
	c0.2,0,1.2-0.2,2.4-0.8c1.2-0.6,2.8-1.6,4.1-3.5l0.8-1.3c0.3-0.6,0.7-1.7,0.7-2.7c-0.1-2-0.7-3.2-1.6-5.1c-1-1.9-2.4-4.5-4.6-8.4
	c-6.8-12-20.1-32.2-30.5-51c-10-18-12.3-25.8-15.4-33.1c-1.3-3-2.6-8.2-3.5-12.5c-0.5-2.2-0.8-4.1-1.1-5.5s-0.4-2.2-0.4-2.2
	l-3.8,0.6L5,619.9c0,0,0.5,0.2,1.3,0.6c2.4,1,7.8,3.6,10.4,5.6l0,0c4.9,3.7,10.1,5.3,10.3,5.4l4.8,1.6l0.1-5.1l0-0.8
	c0-2.7-0.2-11.5-2.7-22.6c-2.7-12.1-5.1-27.9-5.1-37.2l0-1.3c0.2-4,1.2-5.4,2.7-7.2c0.7-0.9,1.7-1.9,2.6-3.2
	c0.9-1.3,1.8-3.2,1.9-5.4c0.1-1.1,0.1-2.4,0.1-3.9c0-7.5-0.7-20.3-1.4-27.4c-0.8-8.7-2.5-13.1-2.6-14.8l0,0.1l0,0
	c-0.4-4.2-0.5-6.9-0.5-8.6c0-1.7,0.1-2.4,0.2-3.2c0.1-0.8,0.4-1.9,0.4-3.5l-3.8-0.1l-0.9,3.7l0.2-0.8l-0.2,0.8l0,0l0.2-0.8l-0.2,0.8
	c0.2,0,1.9,0.6,3.9,2c2,1.5,4.4,3.8,6.1,7.7c1.5,3.3,3,6.5,4.4,9c0.7,1.3,1.4,2.4,2,3.3c0.7,0.9,1.1,1.6,2.3,2.5l2.2-3.1l-2.3,3.1
	c0.8,0.6,1.8,1,2.9,1c1.4,0,2.6-0.6,3.3-1.2c1.2-1,1.8-2.1,2.4-3.3c0.6-1.2,1-2.7,1.3-4.3c0.3-1.6,1.8-7,3.5-12.4
	c1.7-5.5,3.5-11.3,4.6-14.8c2.5-8.1,4.8-18.9,5.5-22.4c0-0.2,0.4-1.1,1-2.1c0.9-1.5,2.1-3.3,3.1-4.7l1.3-1.7l0.5-0.6L67.9,447.9
	l-3.1,2.1L67.9,447.9l-2.9-2.4c0,0-1.6,1.9-3.2,4.2c-0.8,1.2-1.7,2.5-2.5,3.8c-0.8,1.3-1.4,2.6-1.8,4.2c-0.8,3.5-3,14.2-5.4,21.8
	c-1,3.4-2.9,9.3-4.6,14.8c-1.7,5.6-3.2,10.7-3.7,13.3c-0.3,1.4-0.7,2.5-0.9,2.9l-0.1,0.2l0.8,0.6l-0.5-0.9l-0.3,0.2l0.8,0.6
	l-0.5-0.9l1.3,2.1v-2.5l-1.3,0.4l1.3,2.1v-2.5v2.7l1.6-2.2l-1.6-0.5v2.7l1.6-2.2l0,0l0,0l-1,1.4l1.2-1.3l-0.2-0.2l-1,1.4l1.2-1.3
	l-0.2-0.3c-0.6-0.7-1.6-2.4-2.7-4.4c-1.1-2.1-2.3-4.5-3.4-7.1c-2.4-5.6-6.1-9.2-9.2-11.2c-3.1-2.1-5.5-2.7-5.8-2.8l-4.6-1.2
	l-0.1,4.8c0,1.1-0.1,1.4-0.3,2.5c-0.2,1-0.3,2.4-0.3,4.5c0,2.1,0.1,4.9,0.6,9.3v0c0.4,3.7,1.8,6.6,2.6,14.8
	c0.6,6.9,1.4,19.7,1.4,26.8c0,1.4,0,2.6-0.1,3.4l-0.6,1.6c-0.6,1-2.1,2.4-3.7,4.7c-1.5,2.3-2.8,5.6-2.9,9.9l0,1.5
	c0,10.4,2.5,26.3,5.3,38.8c2.3,10.4,2.5,18.7,2.5,21l0,0.6l3.8,0.1l1.2-3.6l-0.1,0c-0.8-0.3-4.7-1.8-7.9-4.2l0,0
	c-2.5-1.9-5.8-3.6-8.5-5c-2.7-1.3-4.8-2.2-4.8-2.2l-6.3-2.6l1.1,6.8c0,0,0.6,3.6,1.5,8.1c1,4.5,2.3,9.9,4,13.9
	c2.9,6.8,5.6,15.5,15.7,33.8c10.6,19.2,24,39.5,30.6,51.1c2.2,3.9,3.6,6.4,4.4,8c0.4,0.8,0.6,1.4,0.8,1.7l0.1,0.2l1-0.2h-1l0,0.2
	l1-0.2h-1h1.7l-1.6-0.8l-0.2,0.8h1.7l-1.6-0.8l-0.1,0.1l-0.3,0.5l-0.9,0.8l-0.4,0.2l0,0.1l0-0.1h0l0,0.1l0-0.1l-9.4,1.6l7.9,5.3
	l0.2,0.1c0.9,0.6,5.1,3.7,9.7,8.4c5.4,5.6,14.2,15.7,19.9,21.2c2.7,2.6,5.2,4.2,6.6,5.4c0.7,0.6,1.2,1.1,1.3,1.3l0.1,0.1l0.1,0h-0.1
	l0,0l0.1,0h-0.1l0,0.2l0,0l0,0c-0.3,1.2-1,2-1.7,2.6l-0.9,0.6l-0.2,0.1l0,0l0.8,1.9l-0.8-1.9l-0.1,0l0.8,1.9l-0.8-1.9l-5.9,2.4
	l4.9,4.1c0.3,0.3,4.4,3.6,11.2,4.2h0c2.9,0.3,4.9,0.3,5.4,0.5l0.1,0l0.1-0.4l-0.2,0.3l0.1,0l0.1-0.4l-0.2,0.3l0.5-0.8l-0.8,0.6
	l0.3,0.3l0.5-0.8l-0.8,0.6h0l0.1,0.2l0,0c0.8,2.1,2.3,4.1,4.4,5.6c2.1,1.4,4.8,2.4,8,3l0,0l0,0c4.7,0.9,9.4,3.5,17.1,10.3
	c8.3,7.4,15.7,9.5,22.9,10.5l0,0c2.5,0.3,7.8,2.6,12.5,4.8c2.4,1.1,4.6,2.3,6.5,3.2c0.9,0.5,1.8,0.8,2.5,1.2
	c0.8,0.3,1.3,0.6,2.3,0.8l0.7-3.7l-0.8,3.7l0.4-1.9l-0.7,1.8l0.3,0.1l0.4-1.9l-0.7,1.8c0,0,0.8,0.4,1.7,0.9c3.2,1.9,9.5,6,15.4,9.9
	c6,4,11.6,7.8,14.3,9.4c9.6,5.7,17.8,8.2,24.9,8.2c8.2,0,14.7-3.4,19.6-7.8c4.9-4.5,8.5-9.9,11.6-14.5c5.6-8.6,19.8-23,32.5-34.8
	c6.3-6,12.3-11.4,16.6-15.3c4.4-3.9,7.1-6.3,7.1-6.3l3.5-3l-3.6-2.8c0,0-9.2-7.3-18.7-14.7c-4.7-3.7-9.5-7.4-13.3-10.3
	c-1.9-1.4-3.5-2.6-4.7-3.5l-1.5-1.1l-0.6-0.4l-0.8-0.4l0,0l0,0l-0.7,1.7l1.1-1.5l-0.4-0.2l-0.7,1.7l1.1-1.5l-0.1-0.1
	c-0.6-0.5-2.4-2.7-4.5-5.6c-2.2-2.9-4.8-6.6-7.9-10.7c-7.4-9.7-17.2-17.7-24.9-21.8c-2.2-1.2-5.3-2.3-9.1-3.5
	c-5.6-1.8-12.5-3.8-18.8-5.8c-6.2-1.9-11.8-4-14.1-5.3c-7-4.1-11.3-10.6-17.1-15.4l0,0c-2-1.6-6.3-6.5-10-11.4
	c-1.9-2.5-3.6-5.1-5-7.3c-1.4-2.2-2.4-4.3-2.7-5.2c-1.5-4.9-1.6-9.4-1.6-14l0-1.8c0-5,0.1-16.8,0.1-16.9l0-0.8l-0.3-0.7
	c-0.2-0.5-1.3-2.8-4.4-4.6l0,0l0,0c-1.2-0.7-2.9-1.6-4.3-2.6l-1.4-1.3l-0.2-0.3l-0.3,0.1h0.3l0-0.1l-0.3,0.1h0.3h-0.8l0.8,0v0h-0.8
	l0.8,0c0.6-12.5,0.6-35,0.6-35v-2.2l-1.9-1.1c-4.8-2.8-7.3-3.8-8.5-4.2l-0.4-0.1l-0.6,1.3l1-1l-0.4-0.3l-0.6,1.3l1-1l0,0l-0.5-0.6
	l0,0.1l0-0.1l-2.6,1.8l3.1-0.6c-0.1-0.1,0.1-0.2-0.5-1.1l-2.6,1.8l3.1-0.6l-0.6,0.1l0.6-0.1l0,0l-0.6,0.1l0.6-0.1
	c0-0.1-0.1-0.9-0.1-1.9c0-1,0-2.2,0-3.6c0-2.7,0.1-5.9,0.2-8.4l0-0.1l0,0.1l0-1.2c0-2.9-0.6-5.2-1.4-7.2c-0.8-2-1.6-3.9-2.7-7.5
	c-0.9-3.2-1.3-5.1-1.3-6.7c0-2.3,0.7-4.8,2.4-10.3c3.1-10.3,1.9-21.6,2.5-32.4c0-0.9,0.1-1.8,0.1-2.6c0-10.5-2.9-17.4-3-17.7
	l-1.6-3.7l-3.6,1.8c-0.1,0-1.9,0.9-3.9,2.3c-1,0.7-2.1,1.5-3.1,2.5c-1,1-2,2.1-2.6,3.9c-0.7,2.4-2.6,6.5-5.9,14
	c-1.4,3.2-3.1,5.3-4.3,6.5l-1.5,1.2l-0.3,0.2l0.1,0.2l-0.1-0.2l0,0l0.1,0.2l-0.1-0.2l1.7,3.4l3.1-2.2l-2.3,1.6l2.7-0.8l-0.4-0.9
	l-2.3,1.6l2.7-0.8l-0.7,0.2l0.7-0.1l0-0.1l-0.7,0.2l0.7-0.1l0-0.2c0-0.3,0-1,0.3-2l0,0l0,0c0.8-3.6,2.7-14,3.4-17.9l0,0
	c0.8-4.8,0.9-11.2,2.3-20.2c0.7-4.6,0.9-8.5,0.9-11.5c0-3.3-0.2-5.2-0.2-5.4l-0.6-4.6l-4.4,1.4c-0.1,0-2,0.6-4.4,1.6
	c-2.4,1-5.2,2.2-7.4,4.1l0,0l0,0c-1,0.9-2.1,2.1-3.5,3.6c-4.1,4.6-9.8,11.7-12.7,15c-2.1,2.5-6,7.8-9.4,12.7c-3.4,4.8-6.3,9-6.3,9
	l3.1,2.2l2.6-2.7l-1.6,1.6l1.6-1.6l-0.1-0.1l-1.6,1.6l1.6-1.6l-0.1-0.1c-0.4-0.5-2.4-3.1-3.4-8.9c-0.5-2.8-1.7-5.7-3.3-8.9
	c-4.7-9.5-12.7-21.2-12.7-21.3l-2.9-4.2l-3.2,3.9L67.9,447.9L67.9,447.9z"/>
<path id="path14" inkscape:connector-curvature="0" class="st1" d="M808.1,447.9c0,0-14.1,20.7-15.4,28.6c-1.3,7.9-4.5,11-4.5,11
	s-11.6-16.8-15.4-21.4c-3.8-4.5-12.8-15.7-15.8-18.3c-3-2.6-10.4-5-10.4-5s-0.8,6.6,0.6,15.8c1.4,9.2,1.5,15.9,2.3,20.2
	c0.7,3.8,2.6,14.3,3.3,17.7c0.8,3.4,0.1,4.3,0.1,4.3s-4.6-2.4-7.8-9.8c-3.2-7.4-5.1-11.4-6-14.4c-0.9-3-7.6-6.3-7.6-6.3
	s-3.2,7.5-2.7,18.7c0.5,11.2-0.5,22.2,2.3,31.4c2.8,9.2,3.5,11.1,1.2,19.2c-2.3,8.1-4.1,8.8-3.9,14.7c0.3,5.8,0.3,14.5-0.1,15
	c-2,2.9-0.8,0.3-10.1,5.8c0,0,0,22.5,0.6,34.8c0.2,3.5-5.5,6.4-7.7,7.6c-2.2,1.3-2.8,2.9-2.8,2.9s0.1,11.8,0.1,16.9
	c0,5.1,0.1,10.6-1.8,16.9c-1.9,6.2-13.8,21.7-18.9,25.9c-5.2,4.2-9.7,11-17.5,15.7c-7.9,4.7-35,10.9-42.1,14.7
	c-7.1,3.8-16.7,11.5-23.7,20.8c-7,9.2-11.8,16.6-13.6,17.4c-1.8,0.8-38.7,30-38.7,30s44.7,38.7,56.9,57.2
	c8.7,13.2,20.7,31.1,50.9,12.9c6-3.6,29.7-20.1,32.3-20.6c2.6-0.5,17-8.9,23.9-10c6.9-1.1,13.1-2.8,21-9.6
	c7.9-6.9,13.1-10.1,18.9-11.2c5.8-1,8.5-3.2,9.5-6.1c1-2.9,2.8-2.5,8.5-3c5.7-0.5,9.1-3.4,9.1-3.4s-3.9-1.6-5.1-5.9
	c-1.1-4.3,3.5-5.6,9-10.8c5.5-5.2,14.3-15.3,19.8-21c5.5-5.7,10.5-9,10.5-9s-2.5-0.4-3.9-2.6c-1.4-2.2-1.8-1.7,4.9-13.5
	c6.7-11.8,20-32,30.6-51.1c10.1-18.2,12.6-26.4,15.5-33.4c3-7,5.2-21.2,5.2-21.2s-8.2,3.4-12.5,6.7c-4.3,3.2-9.2,4.8-9.2,4.8
	s-0.3-9.7,2.6-22.5c2.8-12.9,5.4-29.6,5.1-39.4c-0.3-9.8-6.8-10.4-7.2-16c-0.4-5.6,0.5-22.3,1.3-30.8c0.8-8.5,2.3-12.1,2.6-14.8
	c1.2-13,0-11.8-0.1-15.8c0,0-8.2,2.1-12.5,11.9c-2.8,6.5-6.1,12.3-7.4,13.2c-1.3,1-3.1-1.2-3.9-5.4c-0.8-4.3-6.1-20.8-8.2-27.7
	c-2.4-7.8-4.7-18.6-5.5-22.1C814,455.1,808.1,447.9,808.1,447.9"/>
<path id="path16" inkscape:connector-curvature="0" class="st0" d="M808.1,447.9l-3.1-2.1c0,0-3.6,5.3-7.3,11.5
	c-1.9,3.1-3.8,6.5-5.4,9.7c-1.6,3.2-2.8,6.1-3.3,8.9c-0.6,3.5-1.6,5.9-2.3,7.3c-0.4,0.7-0.7,1.2-0.9,1.4l-0.2,0.2l0,0l1.6,1.6
	l-1.6-1.6l-0.1,0.1l1.6,1.6l-1.6-1.6l2.7,2.7l3.1-2.2c0,0-2.9-4.2-6.3-9c-3.4-4.8-7.2-10.1-9.4-12.7c-1.9-2.2-5.1-6.1-8.2-9.9
	c-1.6-1.9-3.1-3.7-4.5-5.2c-1.4-1.5-2.5-2.8-3.5-3.6c-2.2-1.9-5-3.1-7.4-4.1c-2.4-1-4.3-1.6-4.4-1.6l-4.4-1.4l-0.5,4.6
	c0,0.1-0.3,2.1-0.3,5.4c0,2.9,0.2,6.9,0.9,11.5c1.4,9,1.5,15.4,2.3,20.2l0,0.1l0,0c0.7,3.8,2.5,14.2,3.4,17.9l0,0l0,0
	c0.2,1,0.3,1.7,0.3,2l0,0.2l1.1,0.1l-1-0.4l-0.1,0.2l1.1,0.1l-1-0.4l2.9,1.1l-2.5-1.8l-0.4,0.7l2.9,1.1l-2.5-1.8l3.1,2.2l1.7-3.4
	l-0.1,0.2l0.1-0.2l0,0l-0.1,0.2l0.1-0.2c-0.4-0.3-3.6-2.3-6.1-7.9c-3.2-7.4-5.2-11.5-5.9-14c-0.6-1.8-1.6-2.9-2.6-3.9
	c-3-2.8-6.9-4.7-7-4.8l-3.6-1.8l-1.6,3.7c-0.1,0.3-3,7.2-3,17.7c0,0.9,0,1.7,0.1,2.6c0.5,10.8-0.6,22.1,2.5,32.4
	c1.7,5.5,2.4,8,2.4,10.3c0,1.6-0.3,3.5-1.3,6.8c-1,3.6-1.9,5.5-2.7,7.5c-0.8,2-1.4,4.3-1.4,7.2l0,1.2c0.1,2.5,0.2,5.7,0.2,8.4
	c0,1.7,0,3.2-0.1,4.3l-0.1,1.2l0,0.1l1,0.2l-1-0.3l0,0.1l1,0.2l-1-0.3l3.2,0.8l-2.8-1.8c-0.4,0.7-0.4,0.9-0.5,1l3.2,0.8l-2.8-1.8
	l0,0l0,0l-0.4,0.6l0,0l1,1l-0.8-1.1l-0.2,0.2l1,1l-0.8-1.1l0.8,1.1l-0.6-1.2l-0.2,0.1l0.8,1.1l-0.6-1.2l-0.6,0.2
	c-1.3,0.5-3.7,1.4-8.3,4.1l-1.9,1.1v2.2c0,0,0,22.5,0.6,35l0,0l0.3,0h-0.3v0l0.3,0h-0.3h0.3l-0.3-0.1l0,0.1h0.3l-0.3-0.1
	c0,0.1-0.8,1.2-2.1,2c-1.2,0.9-2.7,1.7-3.7,2.3l0,0l0,0c-3.1,1.8-4.2,4.1-4.4,4.7l-0.3,0.7l0,0.8c0,0,0.1,11.8,0.1,16.9v1.9
	c0,4.5-0.1,9-1.6,13.9c-0.3,1-1.3,3-2.7,5.2c-2.1,3.4-5,7.5-7.8,11c-2.8,3.5-5.7,6.6-7.1,7.8c-5.8,4.8-10.1,11.3-17.1,15.4
	c-1.5,0.9-4.5,2.2-8.2,3.4c-5.5,1.9-12.5,3.9-18.7,5.8c-6.3,1.9-11.7,3.6-15,5.4c-7.7,4.1-17.5,12.1-24.9,21.8
	c-3.5,4.7-6.5,8.8-8.8,11.9c-1.1,1.5-2.1,2.8-2.8,3.6l-0.8,0.9l-0.1,0.1l1.1,1.5l-0.7-1.7l-0.4,0.2l1.1,1.5l-0.7-1.7l-0.1,0l0.1,0
	l-0.8,0.4c-0.7,0.4-1.6,1.1-3,2.1c-9.3,7-35.8,27.9-35.8,27.9l-3.6,2.8l3.5,3c0,0,2.8,2.4,7.1,6.3c6.5,5.8,16.6,15.1,26.2,24.5
	c9.6,9.4,18.6,19.2,22.9,25.6c3.1,4.6,6.6,10.1,11.6,14.5c4.9,4.5,11.4,7.9,19.6,7.8c7.2,0,15.3-2.5,24.9-8.2
	c3.2-1.9,10.6-6.9,17.6-11.6c3.5-2.3,6.9-4.5,9.5-6.2c1.3-0.8,2.4-1.5,3.2-2l0.9-0.5l0.2-0.1l-0.7-1.8l0.4,1.9l0.3-0.1l-0.7-1.8
	l0.4,1.9l-0.8-3.7l0.7,3.7c0.9-0.2,1.5-0.4,2.3-0.8c2.6-1.1,6.6-3.2,10.8-5.2c4.1-2,8.6-3.7,10.7-4l0,0c7.2-1,14.6-3.2,22.9-10.5
	c7.7-6.8,12.4-9.4,17.1-10.3h0c3.2-0.6,5.9-1.5,8-3c2.1-1.4,3.6-3.4,4.4-5.6l0,0v0l0.1-0.3l-0.8-0.5l0.4,0.8l0.3-0.3l-0.8-0.5
	l0.4,0.8l-0.2-0.3l0.1,0.4l0.1,0l-0.2-0.3l0.1,0.4c0.1-0.1,2.2-0.3,5.5-0.5h-0.1h0c6.8-0.6,10.9-4,11.2-4.2l4.9-4.1l-5.9-2.4
	l-0.8,1.9l0.8-1.9l-0.1,0l-0.8,1.9l0.8-1.9l-1.3-0.9c-0.7-0.6-1.3-1.4-1.6-2.5l0-0.2h-0.1l0.1,0l0,0h-0.1l0.1,0l0.3-0.5
	c0.9-1.1,4.1-3,7.6-6.4l0,0l0,0c5.8-5.5,14.5-15.6,20-21.2c2.6-2.7,5.1-4.9,7-6.3c0.9-0.7,1.7-1.3,2.2-1.7l0.6-0.4l0.2-0.1l7.9-5.3
	l-9.4-1.6l0,0.1l0-0.1l0,0l0,0.1l0-0.1l-1.3-0.9l-0.3-0.5l-0.1-0.1l-1.1,0.6l1.2-0.4l-0.1-0.3l-1.1,0.6l1.2-0.4l-1.8,0.6h1.9
	l-0.1-0.6l-1.8,0.6h1.9h-1l1,0.2l0-0.2h-1l1,0.2c0,0,0.3-0.9,1.2-2.5c0.8-1.6,2.2-4,4.1-7.4c6.6-11.6,19.9-31.9,30.6-51.1
	c10.2-18.3,12.9-27.1,15.7-33.8c1.7-4,3-9.4,3.9-13.9c1-4.5,1.5-8.1,1.5-8.1l1.1-6.8l-6.3,2.6c-0.1,0-2.2,0.9-4.9,2.2
	c-2.7,1.3-5.9,3-8.5,5c-1.8,1.4-3.9,2.5-5.4,3.2c-0.8,0.4-1.5,0.6-1.9,0.8l-0.5,0.2l-0.1,0l1.2,3.6l3.8-0.1v-0.6
	c0-2.3,0.2-10.6,2.5-21c2.7-12.5,5.2-28.4,5.2-38.8l0-1.5c-0.1-5.7-2.5-9.6-4.4-11.9c-1-1.2-1.8-2-2.2-2.7l-0.6-1.6
	c-0.1-0.8-0.1-1.9-0.1-3.3c0-7.1,0.7-19.9,1.4-26.8c0.8-8.2,2.1-11,2.6-14.8c0.4-4.4,0.6-7.3,0.6-9.3c0-2.1-0.2-3.5-0.3-4.5
	c-0.2-1-0.3-1.4-0.3-2.5l-0.1-4.8l-4.6,1.2c-0.3,0.1-2.8,0.7-5.8,2.8c-3.1,2.1-6.7,5.6-9.2,11.2c-1.4,3.1-2.9,6.1-4.1,8.4
	c-0.6,1.1-1.2,2.1-1.6,2.7l-0.5,0.7l-0.1,0.1l1.2,1.2l-1-1.4l-0.2,0.2l1.2,1.2l-1-1.4l0,0l0,0l1.6,2.2v-2.7l-1.6,0.5l1.6,2.2v-2.7
	v2.3l1.5-1.8c-0.1-0.1-0.7-0.5-1.5-0.5v2.3l1.5-1.8l-0.5,0.6l0.6-0.5l-0.1-0.1l-0.5,0.6l0.6-0.5c0,0-0.7-1.2-1-3.1
	c-0.5-2.6-2-7.7-3.7-13.3c-1.7-5.5-3.6-11.4-4.6-14.8c-2.3-7.6-4.6-18.3-5.4-21.8c-0.4-1.6-1-2.9-1.8-4.2c-2.3-3.9-5.6-8-5.7-8
	l-3.2-3.9l-2.8,4.2L808.1,447.9l-2.9,2.4c0,0,0.3,0.4,0.9,1.1c0.8,1,2,2.7,3.1,4.3c1.1,1.6,1.9,3.3,1.9,3.6c0.8,3.5,3,14.3,5.5,22.4
	c1.1,3.5,2.9,9.3,4.6,14.8c1.7,5.4,3.2,10.8,3.5,12.4c0.4,2.1,1,3.9,1.9,5.4c0.5,0.8,1,1.5,1.8,2.1c0.8,0.6,1.9,1.2,3.3,1.2
	c1.1,0,2.1-0.4,2.9-1l-2.3-3.1l2.2,3.1c1.2-0.9,1.6-1.6,2.2-2.5c1.8-2.7,4.2-7.3,6.4-12.3c1.8-4.1,4.4-6.5,6.5-8
	c1-0.7,2-1.2,2.6-1.4l0.7-0.3l0.1,0l-0.2-0.8l0.2,0.8l0,0l-0.2-0.8l0.2,0.8l-0.9-3.7l-3.8,0.1c0,1.6,0.3,2.7,0.4,3.5
	c0.1,0.8,0.2,1.5,0.2,3.2c0,1.7-0.1,4.4-0.5,8.6c-0.1,1.7-1.8,6.1-2.6,14.8c-0.6,7.2-1.4,20-1.4,27.5c0,1.5,0,2.8,0.1,3.8
	c0.1,2.1,1,4,1.9,5.3c1.4,2,2.8,3.2,3.6,4.6c0.9,1.4,1.6,2.9,1.7,5.9l0,1.3c0,9.3-2.4,25.1-5.1,37.2c-2.5,11.2-2.7,20-2.7,22.7
	l0,0.8l0.1,5.1l4.8-1.6c0.2-0.1,5.4-1.7,10.3-5.4c1.7-1.3,4.7-3,7.2-4.2c1.2-0.6,2.4-1.1,3.2-1.5c0.8-0.4,1.3-0.5,1.3-0.6l-1.5-3.5
	l-3.8-0.6c0,0-0.1,0.8-0.4,2.2c-0.7,4.2-2.7,13.5-4.6,18c-3.1,7.3-5.4,15-15.4,33.1c-10.5,18.9-23.7,39-30.5,51
	c-2.2,3.9-3.6,6.5-4.6,8.3c-0.9,1.9-1.6,3.2-1.6,5.1c0,1,0.3,2.1,0.7,2.7l0.8,1.3c1.2,1.9,2.8,3,4.1,3.5c1.3,0.6,2.2,0.8,2.4,0.8
	l0.6-3.8l-2.1-3.2c-0.1,0.1-5.3,3.6-11.1,9.5c-5.6,5.9-14.4,16-19.7,20.9l0,0l0,0c-2.2,2.1-4.4,3.5-6.3,5.1c-1,0.8-1.9,1.6-2.7,2.8
	c-0.8,1.1-1.4,2.7-1.4,4.4c0,0.8,0.1,1.5,0.3,2.2c0.8,3.1,2.7,5.2,4.2,6.5c1.6,1.3,2.9,1.8,3.1,1.9l1.4-3.5l-2.4-2.9l1,1.2l-1-1.3
	l0,0l1,1.2l-1-1.3c0,0-2.8,2.1-7,2.5h0c-2.7,0.3-4.5,0.2-6.5,0.7c-1,0.3-2.2,0.8-3.2,1.7c-1,0.9-1.6,2-2,3.1l0,0
	c-0.3,0.7-0.6,1.2-1.5,1.9c-0.9,0.6-2.5,1.3-5.1,1.8l-0.1,0l0,0c-6.8,1.2-12.8,5-20.8,12.1c-7.4,6.4-12.3,7.7-19,8.7l0,0
	c-4.5,0.7-9.8,3.2-14.7,5.5c-2.4,1.2-4.7,2.3-6.5,3.2c-0.9,0.4-1.7,0.8-2.2,1l-0.7,0.3l-0.1,0l0.3,0.9l-0.2-0.9l-0.1,0l0.3,0.9
	l-0.2-0.9l0,0h0c-0.8,0.2-1.1,0.4-1.6,0.6c-1.6,0.8-3.8,2.1-6.6,3.9c-4.2,2.7-9.5,6.2-14.3,9.4c-4.8,3.2-9.1,6.1-11,7.2
	c-8.8,5.3-15.7,7.2-21,7.2c-6.1,0-10.5-2.3-14.5-5.9c-4-3.6-7.3-8.4-10.3-13c-6.5-9.9-20.8-24.1-33.6-36.2c-12.8-12-24-21.7-24-21.8
	l-2.5,2.9l2.4,3c0,0,9.2-7.3,18.7-14.7c4.7-3.7,9.5-7.4,13.2-10.3c1.9-1.4,3.4-2.6,4.6-3.5l1.4-1l0.3-0.2l0,0l-1.4-2.4l1.1,2.5
	l0.3-0.1l-1.4-2.4l1.1,2.5h0c0.9-0.4,1.4-0.9,1.9-1.3c1.6-1.5,3.2-3.7,5.4-6.7c2.2-3,4.8-6.6,7.8-10.6c6.5-8.7,15.9-16.3,22.4-19.7
	c1.3-0.7,4.3-1.8,7.8-3c5.4-1.8,12.3-3.7,18.7-5.7c6.4-2,12.1-3.9,15.7-6.1c8.7-5.2,13.5-12.5,18-16c3.1-2.6,7.3-7.5,11.3-12.8
	c2-2.7,3.9-5.4,5.4-7.9c1.5-2.5,2.8-4.8,3.4-6.9c1.9-6.1,2-11.5,2-16.1v-1.9c0-5.1-0.1-16.9-0.1-16.9l-3.8,0l3.5,1.5l-1.3-0.6
	l1.3,0.7l0.1-0.2l-1.3-0.6l1.3,0.7c0-0.1,0.3-0.6,1.3-1.2l-2-3.3l1.9,3.3c1-0.6,3.1-1.7,5.1-3.2c1-0.8,2-1.7,2.9-2.9
	c0.9-1.2,1.6-2.8,1.6-4.7v-0.3l0,0v0c-0.3-6.1-0.4-14.7-0.5-21.9c-0.1-7.1-0.1-12.7-0.1-12.7h-3.8l1.9,3.3c4.5-2.7,6.2-3.2,7.2-3.6
	c0.5-0.2,1.4-0.5,2.3-1.2c0.9-0.8,1.3-1.4,1.9-2.2l0,0l0,0c0.6-1,0.5-1.2,0.6-1.6c0.2-1,0.2-1.7,0.3-2.9c0-1.2,0.1-2.6,0.1-4.1
	c0-2.8-0.1-6-0.2-8.7l0-0.9c0-2,0.3-2.8,0.9-4.5c0.6-1.7,1.7-4.1,2.9-8.1c1-3.5,1.6-6.1,1.6-8.9c0-3.9-1.1-7.2-2.7-12.5
	c-2.6-8.2-1.7-19-2.2-30.5c0-0.8-0.1-1.6-0.1-2.3c0-4.5,0.6-8.3,1.3-10.9c0.3-1.3,0.6-2.3,0.8-2.9l0.3-0.7l0.1-0.2v0l-3.5-1.5
	l-1.7,3.4l0.2,0.1c0.6,0.3,2.1,1.1,3.4,2.1l1.7,1.4l0.4,0.5l0,0.1l0.6-0.3l-0.6,0.2l0,0.1l0.6-0.3l-0.6,0.2c1.1,3.5,3,7.4,6.2,14.8
	c3.6,8.4,9.1,11.4,9.6,11.7l2.9,1.5l1.9-2.7c0.5-0.8,1-2,1-3.7c0-1-0.1-2.2-0.5-3.7l0,0c-0.7-3.2-2.6-13.8-3.3-17.5l0,0.1l0,0
	c-0.7-3.7-0.8-10.6-2.3-20.1c-0.6-4.1-0.8-7.7-0.8-10.3c0-1.5,0.1-2.6,0.1-3.4l0.1-0.9l0-0.2l-3.8-0.5l-1.2,3.6c0,0,0.4,0.1,1.1,0.4
	c1,0.4,2.7,1,4.3,1.7c1.6,0.7,3.1,1.6,3.7,2.1c0.5,0.4,1.6,1.6,2.8,3c3.8,4.3,9.6,11.4,12.6,14.9c1.7,2,5.6,7.4,9,12.1
	c3.4,4.8,6.2,8.9,6.2,9l2.6,3.7l3.2-3.1c0.5-0.5,4.2-4.4,5.6-13.2c0.2-1.2,1.2-3.9,2.6-6.7c2.1-4.4,5.2-9.5,7.7-13.5
	c1.3-2,2.4-3.7,3.2-4.9s1.3-1.9,1.3-1.9L808.1,447.9l-2.9,2.4L808.1,447.9L808.1,447.9z"/>
<path id="path18" inkscape:connector-curvature="0" class="st0" d="M120.1,498.5c-4.1,5.5-8.3,11-11.6,15.9c-3.3,5-5.8,9.1-6.7,13.1
	l0,0l0,0c-1.3,5.9-4.1,14.5-6.6,21.6c-1.2,3.5-2.4,6.7-3.2,9c-0.8,2.3-1.4,3.6-1.4,3.6l3.6,1.4l-2.4-3c0,0-5.7,4.7-11.6,9.9
	c-2.9,2.7-5.9,5.5-8.3,8c-1.2,1.3-2.3,2.5-3.1,3.7c-0.9,1.2-1.6,2.2-2,3.9c-0.5,2.4-1.6,8.2-2.5,14.5c-0.9,6.3-1.7,12.8-1.7,17.1
	c0,0.9,0,1.7,0.1,2.4c0.7,5.4,3.9,33.6,4.6,39.2c0.2,1.4,0.7,2.5,1.2,3.8c4.1,9,16.7,27,23.2,33.9c1.2,1.2,3,2.7,5.6,4.7
	c17.7,13.5,69.4,47.5,87.7,56.9c20.3,10.5,43.1,22.8,52.5,27.6l0,0c4.6,2.3,17.7,8.9,29.7,15c11.9,6,22.7,11.5,22.7,11.5l3.4-6.8
	c0,0-43.2-21.8-52.4-26.4l0,0c-9.1-4.6-32-17-52.4-27.5c-9.9-5.1-31.3-18.5-50.8-31.5c-9.8-6.5-19.2-12.9-26.5-18
	c-3.7-2.6-6.8-4.9-9.2-6.7c-2.4-1.8-4.1-3.3-4.7-3.9c-3.1-3.2-8.8-10.8-13.6-17.9c-2.4-3.6-4.6-7.1-6.2-10c-0.8-1.5-1.5-2.7-1.9-3.8
	c-0.5-1-0.7-1.8-0.7-1.8c-0.7-5.4-3.9-33.6-4.7-39.2l-0.1-1.4c0-3.3,0.8-9.9,1.7-16c0.9-6.1,1.9-11.9,2.4-14l-0.8-0.2l0.8,0.3l0-0.1
	l-0.8-0.2l0.8,0.3c0-0.1,0.4-0.8,1.1-1.7c2.5-3.1,7.9-8.2,12.6-12.3c2.4-2.1,4.5-3.9,6.1-5.3c1.6-1.3,2.6-2.1,2.6-2.1l0.8-0.6l0.4-1
	c0-0.1,8.6-22.3,11.5-35.2l0,0c0.3-1.7,2.5-5.8,5.6-10.4c3.1-4.7,7.2-10.1,11.3-15.5L120.1,498.5L120.1,498.5z"/>
<path id="path20" inkscape:connector-curvature="0" class="st0" d="M84.2,486.5c-1,3.2-1.2,3.9-1.5,5.2c-0.3,1.2-0.6,2.7-1.7,8.1
	c-1,4.4-3.6,11.2-6.3,17.8c-2.7,6.7-5.5,13.2-6.7,18c-0.3,1-0.7,1.7-1.7,2.6c-1.4,1.4-4,2.9-6.5,5.4c-2.5,2.5-4.7,6.5-4.6,11.6
	c0,2.5,0.4,5.2,1.3,8.4c2.6,9,4.1,21.5,5,31.7c0.4,5.1,0.7,9.6,0.9,12.9c0.2,3.2,0.2,5.2,0.2,5.2l7.6-0.2c0,0-0.2-8.1-1.1-18.5
	c-0.9-10.4-2.5-23.2-5.3-33.1c-0.8-2.6-1-4.7-1-6.3c0-2.2,0.5-3.6,1.2-4.7c1-1.7,2.9-3.1,5.2-4.9c1.1-0.9,2.4-1.9,3.5-3.2
	c1.1-1.3,2.2-3,2.7-5c1-3.8,3.7-10.3,6.4-17c2.7-6.7,5.5-13.6,6.7-19.1c1.2-5.4,1.5-7.1,1.7-8c0.2-0.9,0.4-1.4,1.4-4.7L84.2,486.5z"
	/>
<path id="path22" inkscape:connector-curvature="0" class="st0" d="M64.2,447.2c0,0-2.9,15.1-6,31.9c-3,16.9-6.2,35.3-6.6,42.9
	c-0.1,1.3-0.1,2.6-0.1,4c0,14.7,4,33.6,4,33.7l7.4-1.6c0,0-0.2-1.1-0.6-3.1c-1.1-5.8-3.3-19-3.3-29.1c0-1.2,0-2.4,0.1-3.5
	c0.4-6.6,3.5-25.3,6.5-42c1.5-8.4,3-16.3,4.1-22.2c1.1-5.8,1.8-9.6,1.8-9.6L64.2,447.2L64.2,447.2z"/>
<path id="path24" inkscape:connector-curvature="0" class="st0" d="M17.6,567.7c0,0,6.6,7.3,13.8,15.3c7.1,7.9,14.9,16.7,17,19.2
	l0,0l0-0.1c2.5,3.1,6.4,6.6,9.7,9.4c3.3,2.8,6,4.9,6,4.9l4.6-6c0,0-0.6-0.5-1.7-1.3c-3.1-2.5-9.9-8.2-12.7-11.7l0,0
	c-2.4-2.9-10-11.4-17.2-19.5c-7.2-8-13.8-15.3-13.8-15.3L17.6,567.7z"/>
<path id="path26" inkscape:connector-curvature="0" class="st0" d="M155.4,572.4c-1.2,1.1-1.9,2.2-2.8,3.7
	c-3.1,5.1-7.2,14.4-10.9,23c-3.7,8.6-6.8,16.5-7.6,18.4c-0.4,1.1-0.6,2.2-0.9,3.8c-0.9,5.3-2,15.1-3.1,24.2c-0.5,4.5-1,8.9-1.4,12.3
	c-0.2,1.7-0.4,3.2-0.6,4.3c-0.2,1.1-0.3,2-0.4,2.1c-0.1,0.3-0.4,1.4-0.9,2.8c-1.8,5.2-5.6,15.4-9,24.3c-3.4,8.9-6.3,16.5-6.3,16.5
	l7.1,2.7c0,0,3.8-9.9,7.8-20.4c2-5.2,4-10.6,5.6-15c0.8-2.2,1.5-4.1,2-5.6c0.5-1.6,0.9-2.6,1.1-3.5c0.2-0.9,0.4-2,0.6-3.5
	c0.7-5.2,1.7-15,2.8-24.1c0.5-4.5,1-8.8,1.5-12.2c0.2-1.7,0.5-3.1,0.7-4.2l0.3-1.3l0.1-0.4l0-0.1c0.9-2.2,4.8-12.1,9.1-21.9
	c2.1-4.9,4.4-9.8,6.3-13.6c1-1.9,1.8-3.6,2.6-4.8l0.9-1.4l0.3-0.4l0.1-0.1l-0.1-0.1l0,0.1l0,0l-0.1-0.1l0,0.1L155.4,572.4
	L155.4,572.4z"/>
<path id="path28" inkscape:connector-curvature="0" class="st0" d="M141.7,536.9c-0.1,0-6.4,4.4-13.9,10.8
	c-7.5,6.4-16.3,14.5-21.4,22.7c-5.1,8.3-8,19.7-9.9,29.9c-1.8,10.1-2.5,19.1-2.8,21.9c0,0.6-0.1,1.1-0.1,1.9
	c0,5.5,0.7,19.8,1.5,33.5c0.4,6.9,0.7,13.6,1,18.8c0.3,5.3,0.5,9.2,0.4,10.2l0,0.1l0,0v0c-0.1,1.9-0.3,4.6-0.5,6.9
	c-0.2,2.2-0.4,4-0.4,4l3.8,0.4l-3.2-2c0,0.1-1.7,2.8-3.5,6.6c-1.8,3.8-3.7,8.5-4,13.2l0,0c-0.1,2.5-0.2,4.7-0.2,6.4
	c0,3.5,0.2,5.4,0.2,5.5l7.6-0.8l0-0.2c0-0.5-0.1-2-0.1-4.4c0-1.6,0-3.6,0.2-6v0c0.1-2.7,1.7-7,3.3-10.4c0.8-1.7,1.6-3.2,2.2-4.2
	l0.7-1.2l0.2-0.4l0.5-0.7l0.1-0.9c0,0,0.7-7.1,0.9-11.4v0l0-0.4c0-1.5-0.2-5.3-0.5-10.6c-0.8-15.8-2.5-44.4-2.5-52l0-1.3
	c0.2-2.8,0.9-11.4,2.7-21.1c1.7-9.7,4.7-20.5,8.9-27.2c4.2-6.8,12.6-14.9,19.9-20.9c3.6-3,7-5.6,9.4-7.5c1.2-0.9,2.2-1.6,2.9-2.1
	l1-0.7L141.7,536.9z"/>
<path id="path30" inkscape:connector-curvature="0" class="st0" d="M64.7,616.8c1,0.5,2.6,1,5,1.8c7.2,2.3,20.6,6.1,32.2,6.8h0h0
	c1.9,0.1,3.8,0.1,5.8,0.1c14.2,0,30.1-2.3,30.2-2.3l-1.1-7.5c0,0-1,0.1-2.6,0.3c-5,0.6-16.5,1.9-26.5,1.9c-1.9,0-3.6,0-5.3-0.1h0
	c-6.9-0.4-15.1-2.1-21.8-3.9c-3.3-0.9-6.3-1.8-8.6-2.5c-2.2-0.7-3.9-1.4-4.1-1.5L64.7,616.8L64.7,616.8z"/>
<path id="path32" inkscape:connector-curvature="0" class="st0" d="M41.1,700c0,0,1.9,0.6,5,1.7c4.6,1.6,11.8,4.2,18.5,7.2
	c6.7,2.9,13.1,6.4,15.6,8.8c3.8,3.6,9.9,12.3,15.7,21.1c5.9,8.8,11.5,17.7,15.6,22.6c4.4,5.3,10.9,8.9,16.9,11.7
	c6,2.7,11.7,4.5,14.5,5.3h0c2.2,0.7,5.7,2.4,8.5,4.5c2.9,2.1,4.9,4.7,5.1,5.8c0.6,2.6,2.3,10.7,3.8,18c1.5,7.4,2.8,14,2.8,14
	l7.5-1.5c0,0-5.3-26.6-6.7-32.4c-1.2-4.4-4.4-7.4-7.9-10.1c-3.6-2.6-7.5-4.7-10.8-5.7h0c-2.8-0.9-8.1-2.5-13.6-5
	c-5.5-2.5-11.1-5.9-14.2-9.6c-3.5-4.1-9.2-13.1-15.1-21.9c-5.9-8.9-11.9-17.7-16.8-22.4c-2.7-2.6-6.6-4.8-10.9-7.1
	c-13.1-6.6-31-12.4-31.1-12.4L41.1,700L41.1,700z"/>
<path id="path34" inkscape:connector-curvature="0" class="st0" d="M166.7,655.7c0,0-0.1,0.5-0.3,1.4c-0.6,2.8-2,9.5-4.5,17.7
	c-1.5,4.9-5.9,12.6-10.3,19.6c-2.2,3.5-4.3,6.9-6.1,9.9c-1.7,3-3.1,5.5-3.8,7.9c-0.5,1.9-0.5,4.1-0.6,7c0,13.7,2.7,42.2,3.4,48.4
	c0.8,7.8,2.5,11.5,2.6,11.9l6.9-3.1l-1.4,0.6l1.4-0.6l0,0l-1.4,0.6l1.4-0.6c0-0.1-1.3-3.1-2-9.6c-0.6-5.9-3.4-34.6-3.4-47.5
	c0-2.7,0.2-4.8,0.3-5.1c0.2-0.9,1.4-3.3,3-6.1c2.5-4.2,6-9.7,9.3-15.2c3.3-5.5,6.3-11,7.8-15.9c3.4-11.4,4.9-19.9,5-20
	C174.2,657.1,166.7,655.7,166.7,655.7z"/>
<path id="path36" inkscape:connector-curvature="0" class="st0" d="M25.8,631c0,0,0.8,0.7,1.7,1.7c3.4,3.4,10.1,10.7,16.5,17.5
	c3.2,3.4,6.3,6.7,8.9,9.3c2.7,2.7,4.6,4.6,6.2,5.8l0,0l0,0c2.7,1.9,7,4.5,10.8,6.7c3.7,2.2,6.8,3.9,6.8,3.9l3.7-6.6
	c0,0-3-1.7-6.7-3.9c-3.6-2.1-7.9-4.8-10.2-6.4l0,0l0.1,0c-0.3-0.2-1.2-1-2.3-2.1c-3.9-3.8-10.9-11.2-17.2-17.9
	c-3.1-3.4-6.1-6.5-8.5-9c-1.2-1.2-2.2-2.3-3.1-3.2c-0.9-0.9-1.5-1.4-2.1-2L25.8,631L25.8,631z"/>
<path id="path38" inkscape:connector-curvature="0" class="st0" d="M211.3,698.5c0,0-1.9,6-3.8,13.3c-1.9,7.3-3.8,15.7-3.9,21.3
	l0.1,1.7c0.4,4.2,0.9,12.2,1.3,19.2c0.4,7,0.7,12.8,0.7,12.8l7.6-0.4c0,0-1.2-23.6-2.1-32.3l0-1c0-4,1.8-12.4,3.6-19.4
	c0.9-3.5,1.8-6.8,2.5-9.1c0.7-2.4,1.1-3.8,1.1-3.8L211.3,698.5L211.3,698.5z"/>
<path id="path40" inkscape:connector-curvature="0" class="st0" d="M236.7,708.2c0,0,0.7,4.1,1.3,9.4c0.7,5.2,1.3,11.6,1.3,15.8
	c0,1.7-0.2,3.1-0.2,3.3l0,0l0,0c-0.3,1.1-0.4,2.1-0.5,3.4c-0.1,1.3-0.1,2.7-0.1,4.4c0,13.7,2.3,40.8,2.3,40.9l7.6-0.7
	c0,0-0.6-6.8-1.2-15.2c-0.6-8.4-1.2-18.5-1.2-25c0-1.5,0-2.9,0.1-3.9l0.1-1.2l0.1-0.3l0-0.1l0,0l0,0c0.5-1.7,0.6-3.4,0.6-5.5
	c0-9.6-2.8-26.3-2.8-26.4L236.7,708.2z"/>
<path id="path42" inkscape:connector-curvature="0" class="st0" d="M206.1,765.3c0,0.2-6.8,17.1-6.9,31.9c0,1.2,0,2.3,0.1,3.5l0,0.2
	l0,0.2c0.9,4.1,1.7,7.1,2.2,9.3c0.6,2.3,0.9,3.8,0.8,5.2c0,1.9-0.5,4.2-2.3,8.6c-2.3,5.5-3.4,8.5-4,10.2c-0.3,0.9-0.5,1.4-0.6,1.8
	c-0.1,0.4-0.2,0.6-0.2,1.4h7.6h-3.4l3.3,0.6l0.1-0.6h-3.4l3.3,0.6l-1.6-0.3l1.6,0.4l0-0.1l-1.6-0.3l1.6,0.4c0,0,0.7-2.4,4.3-11.2
	c1.9-4.7,2.9-8.1,2.9-11.5c0-2.4-0.5-4.6-1.1-7c-0.6-2.4-1.4-5.2-2.2-9l-3.7,0.8l3.8-0.3c-0.1-0.9-0.1-1.9-0.1-2.8
	c0-6.2,1.6-13.6,3.2-19.4c0.8-2.9,1.6-5.3,2.2-7.1c0.3-0.9,0.6-1.5,0.7-2l0.3-0.7L206.1,765.3L206.1,765.3z"/>
<path id="path44" inkscape:connector-curvature="0" class="st0" d="M184.7,679.5c0,0-1.5,8.2-3,17.1c-1.6,8.9-3.3,18.5-3.8,21.3l0,0
	c-0.2,1.3-0.3,2.6-0.3,4.3c0,10,2.5,31.3,2.5,31.3l7.6-0.9c0,0-0.6-5.3-1.2-11.8c-0.6-6.5-1.2-14.2-1.2-18.7c0-1.4,0.1-2.6,0.1-2.8
	l0,0l0,0c1.1-5.7,6.9-38.5,6.9-38.5L184.7,679.5L184.7,679.5z"/>
<path id="path46" inkscape:connector-curvature="0" class="st0" d="M131.5,766.6c0,0-2.3,0.1-5.8,0.1c-3.8,0-9.1-0.1-14.1-0.3
	c-5-0.2-9.9-0.7-12.5-1.4l0.1,0l-0.1,0c-3.8-0.9-8.5-3.5-12-5.9c-1.8-1.2-3.3-2.3-4.3-3.2l-1.2-1l-0.4-0.3l-5,5.7
	c0.1,0.1,2.8,2.4,6.7,5.1c3.9,2.7,9.1,5.7,14.5,7l-0.1,0l0.1,0c3.7,0.9,8.7,1.3,13.9,1.6c5.2,0.3,10.6,0.3,14.5,0.3
	c3.6,0,5.9-0.1,5.9-0.1L131.5,766.6L131.5,766.6z"/>
<path id="path48" inkscape:connector-curvature="0" class="st0" d="M133.8,620.5c0,0,3.6,14.3,7.6,28.9c2,7.3,4,14.7,5.7,20.4
	c0.9,2.9,1.6,5.3,2.3,7.2c0.3,0.9,0.6,1.7,0.9,2.4l0.5,1l0.9,1.2l0.1,0l-0.1,0l0,0l0-0.1l-0.1,0c0.2,0.2,0.9,1.4,1.5,2.8
	c1,2.1,2.1,4.9,2.9,7.1c0.8,2.2,1.4,3.8,1.4,3.8l0,0l0,0c0,0,4.7,12.9,9.5,26.4c2.4,6.8,4.9,13.7,6.8,19.2c1.9,5.5,3.4,9.8,3.7,10.8
	l7.3-2c-0.4-1.6-1.9-5.7-3.8-11.3c-5.9-16.7-16.4-45.7-16.4-45.7l-3.6,1.3l3.6-1.2c0,0-1.1-3.3-2.6-6.9c-0.7-1.8-1.5-3.7-2.3-5.4
	c-0.9-1.7-1.5-3.1-2.8-4.4l-1.5,1.5l1.9-1.1l-0.4-0.5l-1.5,1.5l1.9-1.1c-0.1-0.2-0.7-1.6-1.3-3.5c-2.3-6.8-6.1-20.6-9.2-32.5
	c-3.2-12-5.8-22.2-5.8-22.2L133.8,620.5z"/>
<path id="path50" inkscape:connector-curvature="0" class="st0" d="M84.3,488.8c0,0,0.9,2.7,2.3,6.8c2.1,6.2,5.2,15.7,7.8,24.3
	c1.3,4.3,2.5,8.4,3.3,11.8c0.8,3.3,1.3,6,1.3,6.7c0,1.2,0.2,2.1,0.5,3.1c1.1,3.7,3.8,9.1,7.2,15.7c5.1,9.9,11.8,22.5,17.3,34.2
	c2.8,5.8,5.2,11.5,6.9,16.4c1.7,4.9,2.8,9.1,2.8,11.8l7.6-0.2c-0.2-5.8-2.6-13-5.9-21c-5-12.1-12.4-26-18.4-37.6
	c-3-5.8-5.7-11.1-7.6-15.1c-1-2-1.7-3.8-2.2-5.1l-0.5-1.6l-0.1-0.4l0-0.1l-0.4,0h0.4v0l-0.4,0h0.4c0-1.5-0.3-3.2-0.7-5.3
	c-1.5-7.1-5.1-18.7-8.3-28.7c-3.2-10-6.1-18.2-6.1-18.2L84.3,488.8L84.3,488.8L84.3,488.8z"/>
<path id="path52" inkscape:connector-curvature="0" class="st0" d="M208.4,763.1c0,0-9.9,3.4-20.4,7c-5.3,1.8-10.6,3.7-15,5.2
	c-4.4,1.5-7.7,2.7-9.1,3.3l0,0l0,0c-0.8,0.3-4.3,1.4-8.8,2.7c-6.7,2-15.9,4.6-23.7,7c-3.9,1.2-7.4,2.2-10.1,3.1
	c-1.4,0.4-2.5,0.8-3.4,1.2l-1.3,0.5l-1.3,0.8l4.8,5.9l-1.1-1.4l0.8,1.6l0.3-0.2l-1.1-1.4l0.8,1.6c0.1-0.1,1.2-0.5,2.6-1
	c5-1.7,15.1-4.7,24.3-7.4c4.6-1.3,9-2.6,12.6-3.7c3.6-1.1,6.1-1.8,7.4-2.4l0,0c1-0.4,4.4-1.6,8.7-3.1c6.5-2.3,15.4-5.3,22.6-7.8
	c7.2-2.5,12.8-4.4,12.8-4.4L208.4,763.1L208.4,763.1z"/>
<path id="path54" inkscape:connector-curvature="0" class="st0" d="M586.1,812.1c0,0,10.8-5.4,22.7-11.5c11.9-6,25.1-12.6,29.7-15
	l0,0l0,0c9.3-4.7,32.2-17,52.5-27.6c10.5-5.4,31.8-18.8,51.5-31.9c9.9-6.5,19.3-12.9,26.7-18.2c3.7-2.6,6.9-5,9.5-6.9
	c2.5-2,4.3-3.4,5.5-4.6c3.8-4,9.4-11.5,14.4-19c2.5-3.7,4.8-7.4,6.6-10.6c0.9-1.6,1.6-3.1,2.2-4.4c0.6-1.3,1-2.5,1.2-3.9
	c0.8-5.6,3.9-33.8,4.6-39.2c0.1-0.8,0.1-1.5,0.1-2.4c0-4.2-0.8-10.8-1.7-17.1c-0.9-6.3-1.9-12.1-2.5-14.5v0c-0.4-1.7-1.1-2.7-2-3.9
	c-3-4-8.6-9.1-13.7-13.6c-5-4.4-9.4-8-9.4-8l-2.4,3l3.6-1.4c0,0-0.5-1.4-1.4-3.6c-2.5-6.8-7.8-21.7-9.8-30.5
	c-0.9-3.9-3.4-8.1-6.7-13c-3.3-4.9-7.4-10.4-11.6-15.9l-6.1,4.6c4.1,5.4,8.2,10.9,11.3,15.5c3.1,4.6,5.3,8.7,5.6,10.4
	c2.9,12.9,11.4,35.1,11.4,35.2l0.4,1l0.8,0.6c0,0,1.4,1.1,3.5,2.9c3.2,2.7,8,6.8,12,10.7c2,1.9,3.8,3.8,5.1,5.3
	c0.6,0.8,1.2,1.4,1.5,1.9l0.3,0.5l0,0.1l1-0.4l-1,0.2l0,0.1l1-0.4l-1,0.2l0,0.1l0,0c0.5,2,1.5,7.9,2.4,14c0.9,6.1,1.7,12.7,1.7,16
	l-0.1,1.4c-0.8,5.6-3.9,33.8-4.6,39.2c0,0-0.2,0.8-0.7,1.8c-3.2,7.3-16.2,26-21.8,31.7c-0.5,0.6-2.3,2-4.7,3.9
	c-17,13-69.3,47.3-86.6,56.2c-20.4,10.6-43.3,22.9-52.4,27.5l0,0l0,0c-9.3,4.6-52.4,26.4-52.4,26.4L586.1,812.1L586.1,812.1z"/>
<path id="path56" inkscape:connector-curvature="0" class="st0" d="M813.4,613.5c0,0,0.1-1.9,0.2-5.2c0.5-9.7,2-31.1,5.9-44.6
	c0.9-3.2,1.3-5.9,1.3-8.4c0-3.4-0.9-6.4-2.3-8.7c-2.1-3.4-5-5.3-7-6.9c-1-0.8-1.9-1.5-2.4-2.2c-0.6-0.7-0.9-1.2-1.1-2
	c-1.2-4.8-4-11.3-6.7-18c-2.7-6.6-5.4-13.4-6.3-17.8c-1.2-5.4-1.5-6.9-1.8-8.1c-0.3-1.3-0.5-1.9-1.5-5.2l-7.3,2.2
	c1,3.3,1.2,3.8,1.4,4.7c0.2,0.9,0.5,2.7,1.7,8c1.2,5.5,4,12.3,6.7,19.1c2.7,6.7,5.4,13.2,6.4,17c0.7,2.7,2.3,4.8,3.8,6.2
	c2.4,2.2,4.8,3.6,6.3,5.2c1.5,1.6,2.4,3,2.4,6.3c0,1.6-0.3,3.7-1,6.3c-2.8,9.9-4.4,22.7-5.3,33.1c-0.9,10.4-1.1,18.4-1.1,18.5
	L813.4,613.5L813.4,613.5z"/>
<path id="path58" inkscape:connector-curvature="0" class="st0" d="M820.5,559.7c0-0.1,4-19,4-33.7c0-1.4,0-2.7-0.1-4
	c-0.5-7.6-3.6-26-6.6-42.9c-3-16.8-6-31.9-6-31.9l-7.5,1.5c0,0,0.7,3.7,1.8,9.6c1.7,8.8,4.2,22.3,6.4,34.9c2.2,12.6,4,24.4,4.3,29.3
	c0.1,1.1,0.1,2.3,0.1,3.5c0,6.7-1,14.8-1.9,21.2c-0.5,3.2-1,6-1.3,7.9c-0.4,2-0.6,3.1-0.6,3.1L820.5,559.7L820.5,559.7z"/>
<path id="path60" inkscape:connector-curvature="0" class="st0" d="M812,616.4c0,0,2.7-2.1,6-4.9c3.3-2.8,7.1-6.2,9.7-9.4l0,0
	c2.1-2.5,9.8-11.2,17-19.2c7.2-8,13.8-15.2,13.8-15.3l-5.6-5.1c0,0-6.6,7.3-13.8,15.3c-7.2,8-14.8,16.6-17.2,19.5l0,0
	c-1.9,2.3-5.6,5.7-8.7,8.3c-1.6,1.3-3,2.5-4.1,3.3c-1,0.8-1.7,1.3-1.7,1.3L812,616.4L812,616.4z"/>
<path id="path62" inkscape:connector-curvature="0" class="st0" d="M764.4,707.9c0,0-3.8-9.9-7.8-20.3c-2-5.2-4-10.6-5.6-14.9
	c-0.8-2.2-1.5-4-2-5.5c-0.5-1.4-0.9-2.6-0.9-2.8l0,0c-0.1-0.2-0.2-1.3-0.4-2.6c-0.7-5-1.7-14.8-2.8-23.9c-0.5-4.5-1-8.9-1.5-12.4
	c-0.3-1.7-0.5-3.3-0.7-4.6c-0.3-1.3-0.4-2.2-0.8-3.2l0,0c-0.9-2.2-4.9-12.2-9.2-22.2c-2.2-5-4.4-10-6.5-14c-1-2-2-3.8-2.9-5.3
	c-0.9-1.5-1.6-2.6-2.8-3.7l-5,5.7l0-0.1l-0.1,0.1l0,0l0-0.1l-0.1,0.1c0.1,0.1,0.8,1.1,1.6,2.3c2.7,4.6,6.8,13.7,10.4,22.1
	c3.6,8.4,6.6,16,7.3,17.8l0,0v0c0.1,0.2,0.3,1.3,0.6,2.8c0.9,5.1,2,14.8,3,23.7c0.5,4.4,1,8.7,1.4,12.1c0.2,1.7,0.4,3.2,0.6,4.4
	c0.2,1.2,0.3,2.1,0.5,2.9l0,0c0.2,0.8,0.6,1.9,1.1,3.4c3.7,10.6,15.4,40.9,15.4,41L764.4,707.9L764.4,707.9z"/>
<path id="path64" inkscape:connector-curvature="0" class="st0" d="M787.1,727.7c0-0.1,0.2-2,0.2-5.5c0-1.7-0.1-3.9-0.2-6.4
	c-0.3-4.7-2.2-9.4-4-13.2c-1.8-3.8-3.4-6.5-3.5-6.6l-3.2,2l3.8-0.4c0,0-0.2-1.7-0.4-4c-0.2-2.2-0.4-5-0.5-6.9l0-0.1
	c0-1,0.2-5,0.5-10.3c0.8-15.9,2.5-44.1,2.5-52.3c0-0.8,0-1.4-0.1-1.9c-0.2-2.8-0.9-11.7-2.8-21.9c-1.9-10.2-4.8-21.6-9.9-29.9
	c-5.1-8.2-13.9-16.4-21.4-22.7c-7.5-6.3-13.8-10.7-13.9-10.8l-4.4,6.2l1,0.7c2.4,1.7,8.6,6.3,15.1,12c6.5,5.7,13.4,12.6,17.1,18.6
	c4.2,6.7,7.1,17.5,8.9,27.2c1.8,9.7,2.4,18.4,2.7,21.1l0,1.3c0,5-0.7,19.4-1.5,33.1c-0.4,6.8-0.7,13.5-1,18.8
	c-0.3,5.3-0.5,9.1-0.5,10.7l0,0.4c0.2,4.3,0.9,11.3,0.9,11.4l0.1,0.9l0.5,0.7l0.2,0.4c0.6,1,2.1,3.6,3.4,6.7
	c1.4,3.1,2.6,6.7,2.7,9.1c0.1,2.4,0.2,4.4,0.2,6c0,1.6,0,2.8-0.1,3.6l-0.1,0.9l0,0.2L787.1,727.7L787.1,727.7z"/>
<path id="path66" inkscape:connector-curvature="0" class="st0" d="M738,623.3c0.1,0,16,2.3,30.2,2.3c2,0,3.9,0,5.8-0.1h0
	c7.7-0.5,16.3-2.3,23.2-4.1c3.5-0.9,6.6-1.9,9-2.6c2.4-0.8,4-1.4,5-1.8l-3.3-6.9c-0.2,0.1-1.9,0.8-4.1,1.5c-6.8,2.2-20,5.8-30.3,6.4
	h0h0c-1.7,0.1-3.5,0.1-5.3,0.1c-6.7,0-14-0.5-19.6-1.1c-2.8-0.3-5.2-0.6-6.9-0.8c-1.7-0.2-2.6-0.3-2.6-0.3L738,623.3z"/>
<path id="path68" inkscape:connector-curvature="0" class="st0" d="M712.8,820.9c0,0,1.3-6.7,2.8-14c1.5-7.3,3.2-15.4,3.8-18
	c0.2-1.1,2.2-3.8,5.1-5.8c2.8-2.1,6.3-3.9,8.5-4.5l-0.1,0l0.1,0c2.8-0.9,8.5-2.6,14.5-5.3c6-2.8,12.5-6.4,16.9-11.7
	c4.1-4.9,9.7-13.8,15.6-22.6c5.8-8.8,11.9-17.5,15.7-21.1c1.6-1.6,5.1-3.8,9.1-5.8c6.1-3.1,13.6-6.1,19.6-8.3c3-1.1,5.6-2,7.4-2.6
	c1.8-0.6,2.9-1,2.9-1l-2.3-7.2c0,0-8.1,2.6-17.3,6.2c-4.6,1.8-9.5,3.9-13.9,6.1c-4.4,2.2-8.2,4.5-10.9,7.1
	c-4.9,4.7-10.8,13.5-16.8,22.4c-5.8,8.8-11.6,17.8-15.1,21.9c-3.1,3.8-8.7,7.2-14.2,9.6c-5.5,2.5-10.9,4.2-13.6,5h0
	c-3.3,1-7.2,3.1-10.8,5.7c-3.5,2.7-6.7,5.7-7.9,10.1c-1.4,5.8-6.7,32.3-6.7,32.4L712.8,820.9L712.8,820.9z"/>
<path id="path70" inkscape:connector-curvature="0" class="st0" d="M728.6,779.6c0.2-0.4,1.8-4.2,2.7-11.9
	c0.7-6.2,3.4-34.6,3.4-48.3c0-3-0.1-5.2-0.6-7.1c-0.7-2.4-2-4.9-3.8-7.9c-2.6-4.5-6.1-9.9-9.3-15.2c-3.2-5.3-5.9-10.6-7-14.3
	c-1.7-5.5-2.8-10.3-3.6-13.7c-0.4-1.7-0.7-3.1-0.9-4c-0.2-0.9-0.3-1.4-0.3-1.4l-7.5,1.4c0,0.1,1.6,8.6,5,19.9
	c2,6.5,6.7,14.2,11.1,21.4c2.2,3.6,4.3,6.9,6,9.8c1.6,2.8,2.8,5.2,3,6.1c0.1,0.2,0.3,2.4,0.3,5.1c0,12.9-2.7,41.6-3.4,47.5
	c-0.4,3.5-0.9,6-1.4,7.5c-0.2,0.8-0.4,1.3-0.5,1.7l-0.1,0.3l0,0l1.5,0.6l-1.4-0.7l0,0l1.5,0.6l-1.4-0.7L728.6,779.6L728.6,779.6z"/>
<path id="path72" inkscape:connector-curvature="0" class="st0" d="M799.2,675.9c0,0,3.1-1.7,6.8-3.9c3.7-2.2,8.1-4.8,10.8-6.7l0,0
	l0,0c0.9-0.7,1.9-1.6,3.1-2.7c4.3-4.1,11.2-11.5,17.5-18.2c3.1-3.4,6.1-6.5,8.4-9c1.2-1.2,2.2-2.3,3-3c0.8-0.8,1.4-1.3,1.4-1.3
	l-4.6-6c-0.8,0.6-1.4,1.3-2.5,2.4c-3.6,3.6-10.3,10.9-16.6,17.6c-3.2,3.4-6.3,6.6-8.8,9.2c-2.5,2.5-4.6,4.5-5.2,5l0,0
	c-2.3,1.6-6.6,4.2-10.2,6.4c-3.7,2.2-6.7,3.9-6.7,3.9L799.2,675.9L799.2,675.9z"/>
<path id="path74" inkscape:connector-curvature="0" class="st0" d="M670.2,766.9c0,0,0.3-5.9,0.7-12.8c0.4-6.9,0.9-15,1.3-19.2
	l0.1-1.7c0-5.7-2-14-3.9-21.3c-1.9-7.3-3.8-13.3-3.8-13.3l-7.3,2.3c0,0,0.5,1.5,1.2,3.8c1,3.5,2.6,9.1,3.9,14.6
	c1.3,5.5,2.3,11,2.3,14l0,1c-0.8,8.8-2.1,32.3-2.1,32.4L670.2,766.9L670.2,766.9z"/>
<path id="path76" inkscape:connector-curvature="0" class="st0" d="M635.1,785.3c0-0.1,2.3-27.2,2.3-40.9c0-1.6,0-3.1-0.1-4.4
	c-0.1-1.3-0.2-2.3-0.5-3.4c-0.1-0.2-0.3-1.6-0.2-3.3c0-4.1,0.7-10.5,1.3-15.8c0.7-5.3,1.3-9.4,1.3-9.4l-7.5-1.2
	c0,0.1-2.8,16.8-2.8,26.4c0,2.1,0.1,3.8,0.6,5.5l0,0.1c0.1,0.6,0.3,2.8,0.3,5.4c0,6.5-0.6,16.6-1.1,25c-0.6,8.4-1.2,15.2-1.2,15.2
	L635.1,785.3z"/>
<path id="path78" inkscape:connector-curvature="0" class="st0" d="M680.6,837.6c0-0.7-0.1-0.9-0.2-1.4c-0.3-1.2-1.2-3.8-4.6-12.1
	c-1.8-4.4-2.3-6.7-2.3-8.6c0-1.4,0.3-2.9,0.8-5.2c0.6-2.3,1.4-5.2,2.2-9.3l0-0.2l0-0.2c0.1-1.2,0.1-2.3,0.1-3.5
	c-0.1-14.8-6.8-31.7-6.9-31.9l-7.1,2.8l0.3,0.7c1.2,3.2,6.1,17.4,6.1,28.4c0,1,0,1.9-0.1,2.9l3.8,0.3l-3.7-0.8
	c-0.8,3.9-1.6,6.6-2.2,9c-0.6,2.4-1.1,4.6-1.1,7c0,3.4,0.9,6.7,2.9,11.5c2.2,5.4,3.4,8.4,3.9,9.9c0.3,0.8,0.4,1.2,0.4,1.3l0,0
	l2.9-0.7h-3l0.1,0.7l2.9-0.7h-3L680.6,837.6L680.6,837.6z"/>
<path id="path80" inkscape:connector-curvature="0" class="st0" d="M696,753.5c0-0.1,2.5-21.3,2.5-31.4c0-1.7,0-3-0.3-4.3l0,0
	c-0.5-2.7-2.3-12.4-3.8-21.3c-1.6-8.9-3-17.1-3-17.1l-7.5,1.3c0,0,5.8,32.9,6.9,38.5l0-0.1l0,0.1c0.1,0.3,0.1,1.4,0.1,2.8
	c0,4.5-0.6,12.2-1.2,18.7c-0.6,6.5-1.2,11.8-1.2,11.8L696,753.5L696,753.5z"/>
<path id="path82" inkscape:connector-curvature="0" class="st0" d="M794.8,754.6l-0.4,0.3c-1,0.8-3.6,3-6.9,5.1
	c-3.3,2.1-7.3,4.2-10.6,5l0,0c-2.6,0.6-7.5,1.1-12.4,1.4c-5,0.3-10.2,0.3-14.1,0.3c-3.5,0-5.9-0.1-5.9-0.1l-0.2,7.6
	c0,0,2.4,0.1,6,0.1c3.9,0,9.3-0.1,14.4-0.3c5.2-0.3,10.2-0.7,13.9-1.6l0,0c5.4-1.3,10.5-4.3,14.5-7c3.9-2.7,6.6-5,6.7-5.1
	L794.8,754.6L794.8,754.6z"/>
<path id="path84" inkscape:connector-curvature="0" class="st0" d="M734.9,618.6c0,0-3.6,14.3-7.6,28.8c-2,7.3-4,14.6-5.7,20.2
	c-0.8,2.8-1.6,5.2-2.2,6.9c-0.3,0.8-0.6,1.5-0.7,1.9l-0.2,0.4l1.9,1l-1.5-1.5l-0.4,0.5l1.9,1l-1.5-1.5l0,0c-1.3,1.4-2,2.7-2.8,4.4
	c-2.4,5-4.9,12.2-4.9,12.2l3.6,1.2l-3.6-1.3c0,0-4.7,12.9-9.6,26.4c-2.4,6.8-4.9,13.7-6.9,19.3c-2,5.6-3.4,9.7-3.8,11.3l7.3,2
	c0.3-1,1.7-5.3,3.7-10.8c2.9-8.3,7-19.7,10.4-29.1c3.4-9.3,6-16.6,6-16.6l0,0l0,0c0,0,0.3-0.8,0.7-2c0.7-1.8,1.7-4.6,2.8-7.1
	c0.5-1.2,1.1-2.4,1.6-3.3l0.6-1.1l0.2-0.3l0-0.1l-0.2-0.2l0.2,0.2l0,0l-0.2-0.2l0.2,0.2l0,0l0,0l0.9-1.2c0.6-1.2,1.1-2.7,1.9-4.8
	c4.7-14.3,15.2-55.2,15.2-55.3L734.9,618.6L734.9,618.6z"/>
<path id="path86" inkscape:connector-curvature="0" class="st0" d="M784.5,486.3c0,0-3.7,10.8-7.4,22.6c-1.9,5.9-3.7,12-5.1,17.3
	c-0.7,2.6-1.3,5-1.7,7.1c-0.4,2.1-0.7,3.7-0.7,5.3h0.2l-0.2,0v0h0.2l-0.2,0c0,0.3-0.5,2.1-1.5,4.3c-3.4,7.9-11.5,22.6-18.9,37.4
	c-3.7,7.4-7.2,14.8-9.8,21.5c-2.6,6.8-4.4,12.7-4.6,17.8l7.6,0.2c0-3.8,2.1-10.7,5.3-18.3c4.8-11.6,12.1-25.4,18.1-37
	c3-5.8,5.8-11.1,7.8-15.4c1-2.2,1.8-4.1,2.4-5.7c0.6-1.7,1-3,1.1-4.7c0-0.4,0.2-1.9,0.6-3.7c1.3-6.4,4.9-18.1,8.1-27.9
	c3.2-9.9,6-18,6-18.1L784.5,486.3L784.5,486.3L784.5,486.3z"/>
<path id="path88" inkscape:connector-curvature="0" class="st0" d="M665.1,770.3c0,0,9.9,3.4,20.4,7c5.2,1.8,10.6,3.7,15,5.2
	c4.3,1.5,7.8,2.7,8.7,3.1l0,0c1.6,0.6,4.9,1.6,9.4,3c6.8,2,16,4.6,23.7,6.9c3.8,1.1,7.3,2.2,9.9,3.1c1.3,0.4,2.3,0.8,3.1,1.1
	l0.8,0.3l0.1,0l1.1-1.9l-1.4,1.7l0.3,0.2l1.1-1.9l-1.4,1.7l4.8-5.9c-0.8-0.6-1.2-0.7-1.7-1c-2-0.8-5.4-1.9-9.8-3.3
	c-6.6-2-15.1-4.5-22.4-6.6c-3.6-1.1-7-2-9.6-2.8c-2.6-0.8-4.6-1.4-5.1-1.6l0,0l0.1,0c-1.4-0.5-4.7-1.7-9.1-3.3
	c-13.2-4.6-35.4-12.2-35.4-12.2L665.1,770.3L665.1,770.3z"/>
<path id="path90" inkscape:connector-curvature="0" class="st2" d="M440.1,861.9c0,0,27.1,0,57.7,1.1c30.5,1.1,70.7,5,70.7,5
	s1.1,35.1,3.8,48.1c2.7,13,31,23.3,52.7,22.9c21.8-0.4,44,2.3,78.3,8.4c34.4,6.1,68.8,34.8,68.8,34.8l-26-73.4l87.1-9.2
	c0,0-19.4-14.1-47.3-27.1c-27.9-13-64.6-19.1-87.5-20.3c-23-1.1-64.2,2.7-64.2,2.7s-0.4-25.6-1.1-35.9c-0.8-10.3-2.3-44.4-2.3-44.4
	s-30.2-9.5-78.7-15.6c-48.5-6.1-113.9-6.5-113.9-6.5h-0.4c0,0-65.3,0.4-113.9,6.5c-48.5,6.1-78.7,15.6-78.7,15.6s-1.5,34-2.3,44.4
	c-0.8,10.3-1.2,35.9-1.2,35.9s-41.3-3.8-64.2-2.7c-22.9,1.1-59.6,7.3-87.5,20.3c-27.9,12.9-47.4,27.1-47.4,27.1l87.1,9.2l-26,73.4
	c0,0,34.4-28.7,68.8-34.8c34.4-6.1,56.6-8.8,78.3-8.4c21.8,0.4,50.1-9.9,52.7-22.9c2.7-13,3.8-48.1,3.8-48.1s40.1-3.8,70.7-5
	c30.6-1.1,57.7-1.1,57.7-1.1L440.1,861.9L440.1,861.9z"/>
<path id="path92" inkscape:connector-curvature="0" class="st0" d="M440.1,861.9v5.7c0,0,6.7,0,17.3,0.1s25,0.4,40.2,1
	c15.1,0.6,32.7,1.8,46.6,2.9c13.8,1.1,23.8,2.1,23.8,2.1l0.5-5.7l-5.7,0.2c0,0,0.3,8.9,0.9,19.3c0.6,10.5,1.5,22.5,3,29.7
	c1.1,5,4.2,8.9,8,12.2c5.8,4.9,13.7,8.5,22.3,11.2c8.6,2.6,18,4.1,26.8,4.1l1.3,0c1.3,0,2.6,0,3.9,0c20,0,41.2,2.6,73.4,8.4
	c16,2.8,32.8,11.2,45.3,18.9c6.3,3.9,11.5,7.6,15.2,10.3c1.8,1.4,3.3,2.5,4.2,3.2l1.1,0.9l0.3,0.3l16,13.3L754,913.8l94.6-10
	l-12-8.7c-0.2-0.1-19.9-14.5-48.3-27.6l0,0c-29-13.5-66-19.6-89.6-20.8c-3.1-0.2-6.5-0.2-10.1-0.2c-23.7,0-54.9,2.9-55,2.9l0.5,5.7
	l5.7-0.1c0-0.1-0.3-25.5-1.1-36.3c-0.4-5-1-16.1-1.4-25.9c-0.5-9.8-0.8-18.3-0.8-18.3l-0.2-4l-3.8-1.2c-0.3-0.1-30.8-9.7-79.7-15.9
	c-49-6.2-114.4-6.5-114.6-6.6h-0.4h-0.1h0c-0.1,0-65.5,0.4-114.6,6.6c-49,6.2-79.5,15.8-79.7,15.9l-3.8,1.2l-0.2,4
	c0,0-0.4,8.5-0.9,18.3c-0.5,9.8-1,20.9-1.4,25.9c-0.8,10.7-1.2,36.2-1.2,36.2l5.7,0.1l0.5-5.7c-0.1,0-31.3-2.9-55-2.9
	c-3.5,0-6.9,0.1-10,0.2c-23.6,1.2-60.6,7.3-89.6,20.8l0,0c-28.4,13.2-48.1,27.5-48.3,27.6l-12,8.7l94.7,10L91.5,1000l16-13.3
	l0.3-0.3c1.8-1.5,10.7-8.5,22.9-15.8c12.2-7.3,27.9-14.8,42.9-17.5c32.2-5.7,53.4-8.4,73.4-8.4c1.3,0,2.6,0,3.9,0l1.3,0
	c11.7,0,24.4-2.7,35.1-7.1c5.3-2.2,10.1-4.9,14-8.2c3.8-3.2,7-7.2,8-12.2c1.5-7.2,2.4-19.2,3-29.7c0.6-10.5,0.9-19.3,0.9-19.3
	l-5.7-0.2l0.5,5.7c0,0,2.5-0.2,6.7-0.6c12.7-1.1,40.9-3.5,63.6-4.3c15.2-0.6,29.6-0.8,40.2-1c10.6-0.1,17.3-0.1,17.3-0.1h4.2
	L440.1,861.9l0-5.7h-4.2c0,0-27.2,0-57.9,1.1c-30.8,1.1-71,5-71,5l-5,0.5l-0.2,5c0,0-0.1,2.2-0.2,5.6c-0.2,5.2-0.6,13.3-1.2,21.3
	c-0.6,8-1.4,15.9-2.3,20.2c-0.3,1.4-1.5,3.5-4.2,5.8c-4,3.4-10.7,6.7-18.3,9c-7.6,2.3-16,3.6-23.4,3.6l-1.1,0c-1.4,0-2.7,0-4.1,0
	c-21.1,0-43,2.8-75.4,8.6c-18.4,3.3-36,12.3-49.3,20.5c-13.2,8.2-22,15.5-22.2,15.6l3.7,4.4l5.4,1.9l28.4-80.2L43.3,894l-0.6,5.7
	l3.4,4.6l0.8-0.6c3.9-2.8,21.7-14.8,45.6-25.9l0,0c26.8-12.5,63.1-18.7,85.4-19.8c2.9-0.1,6.1-0.2,9.5-0.2c11.4,0,24.9,0.7,35.5,1.4
	c5.3,0.4,9.9,0.7,13.2,1c3.3,0.3,5.2,0.4,5.2,0.4l6.1,0.6l0.1-6.2c0,0,0.1-6.4,0.3-14c0.2-7.6,0.5-16.6,0.9-21.5
	c0.8-10.5,2.3-44.5,2.3-44.5l-5.7-0.3l1.7,5.4c0,0,0.4-0.1,1.3-0.4c6.2-1.8,34.3-9.7,76.4-15c24-3,52.3-4.7,74.6-5.5
	c11.2-0.4,20.8-0.7,27.7-0.8c6.9-0.1,10.9-0.2,10.9-0.2h0.4h-0.1h0c0,0,4,0,10.9,0.2c20.6,0.4,66.3,1.8,102.3,6.3
	c24,3,43.5,6.9,57,10c6.7,1.6,11.9,2.9,15.5,3.9c1.8,0.5,3.1,0.9,4,1.1c0.9,0.3,1.3,0.4,1.3,0.4l1.7-5.4l-5.7,0.3
	c0,0,1.5,34,2.3,44.5c0.4,4.9,0.7,13.9,0.8,21.5c0.2,7.7,0.3,14,0.3,14l0.1,6.2l6.1-0.6c0,0,1.9-0.2,5.2-0.4
	c9.8-0.8,31.6-2.4,48.7-2.4c3.4,0,6.6,0.1,9.5,0.2c22.2,1.1,58.6,7.2,85.3,19.8l0,0c13.7,6.3,25.4,13,33.6,18.1
	c4.1,2.5,7.3,4.7,9.5,6.1c1.1,0.7,1.9,1.3,2.5,1.7l0.8,0.6l3.4-4.6l-0.6-5.7l-94.3,9.9l28.4,80.2l5.4-1.9l3.7-4.4
	c-0.1-0.1-8.9-7.4-22.2-15.6c-13.3-8.1-30.9-17.2-49.3-20.5c-32.4-5.8-54.3-8.5-75.4-8.6c-1.4,0-2.7,0-4.1,0l-1.1,0
	c-9.9,0-21.6-2.4-30.7-6.2c-4.5-1.9-8.4-4.2-11.1-6.4c-2.7-2.2-4-4.4-4.2-5.8c-1.2-5.8-2.2-17.8-2.8-28.1c-0.3-5.2-0.5-9.9-0.7-13.4
	c-0.1-3.5-0.2-5.6-0.2-5.6l-0.2-5l-5-0.5c-0.1,0-40.2-3.9-71-5c-30.7-1.1-57.9-1.1-57.9-1.1L440.1,861.9L440.1,861.9z"/>
<path id="path94" inkscape:connector-curvature="0" class="st0" d="M307.1,862.3c0,0-8,0.5-17.3,1.3c-9.4,0.8-20,1.7-25.8,2.6l0,0h0
	c-5.1,0.8-11.5,1.9-17.2,4.6c-2.8,1.4-5.6,3.2-7.8,5.8c-2.2,2.6-3.6,6.3-3.6,10.2c0,3.7,0.9,7.3,3,10.1c1.5,2.1,3.5,3.7,5.7,4.7
	c6.4,3.1,13.6,3.1,21.3,3.2c2.3,0,4.7,0,7.1,0c8.2,0,16.5,0.1,22.7,0.2c6.2,0.1,10.4,0.2,10.4,0.2l0.3-11.4c0,0-16.8-0.4-33.4-0.4
	c-2.5,0-4.8,0-7.1,0c-6.6,0-12.2-0.3-15.1-1.5c-1.5-0.6-2.2-1.1-2.6-1.7c-0.4-0.6-0.8-1.4-0.8-3.4c0-1.4,0.3-2,1-3
	c1-1.3,3.6-2.9,6.9-4c3.3-1.1,7.3-1.9,11-2.4l0,0c5-0.8,15.7-1.8,24.9-2.5c9.3-0.7,17.1-1.3,17.2-1.3L307.1,862.3L307.1,862.3z"/>
<path id="path96" inkscape:connector-curvature="0" class="st0" d="M236.1,854.8c0,0-0.7,18.7-0.7,28.5c0,1.3,0,2.5,0,3.5l11.4-0.4
	c0-0.8,0-1.9,0-3.1c0-4.7,0.2-11.7,0.4-17.5c0.2-5.8,0.4-10.5,0.4-10.5L236.1,854.8L236.1,854.8z"/>
<path id="path98" inkscape:connector-curvature="0" class="st0" d="M568.2,873.7c0,0,7.9,0.5,17.2,1.2c9.2,0.7,19.9,1.7,24.9,2.5h0
	c4.8,0.7,10.3,1.9,14,3.7c1.9,0.9,3.2,1.9,3.9,2.7c0.7,0.9,1,1.6,1,3c0,2-0.4,2.8-0.8,3.4c-0.3,0.4-0.8,0.8-1.6,1.3
	c-2.5,1.4-8.6,2-16,1.9c-2.3,0-4.7,0-7.3,0c-16.5,0-33.4,0.5-33.4,0.5l0.3,11.4c0,0,4.2-0.1,10.4-0.3c6.2-0.1,14.5-0.3,22.7-0.3
	c2.4,0,4.9,0,7.3,0c6.8,0,13.2-0.1,19-2.2c2.9-1.1,5.7-2.9,7.8-5.7c2-2.8,3-6.4,3-10.1c0-3.9-1.4-7.5-3.6-10.2
	c-3.3-4-7.8-6.1-12.2-7.6c-4.4-1.5-9-2.3-12.8-2.9h0c-5.8-0.9-16.4-1.8-25.8-2.6c-9.3-0.7-17.3-1.2-17.3-1.2L568.2,873.7
	L568.2,873.7z"/>
<path id="path100" inkscape:connector-curvature="0" class="st0" d="M628.5,855.2c0,0,0.2,4.6,0.4,10.4c0.2,5.8,0.4,12.8,0.4,17.5
	c0,1.3,0,2.4,0,3.2l11.4,0.4c0-1,0-2.2,0-3.6c0-9.8-0.8-28.3-0.8-28.4L628.5,855.2L628.5,855.2z"/>
<polygon id="polygon102" class="st0" points="285.4,784.6 291,851 271.6,852.6 266.1,786.2 "/>
<polygon id="polygon104" class="st0" points="325.8,847.5 322.2,797.4 302.5,798.9 301.3,782.5 360.1,778.2 361.2,794.6 341.6,796 
	345.2,846.1 "/>
<path id="path106" inkscape:connector-curvature="0" class="st0" d="M411.5,831.9l-22.1,0.6l-2.7,11.1l-19.9,0.5l21.8-67.3l21.3-0.6
	l25.3,66l-20.3,0.6L411.5,831.9z M407,817.6l-7.5-23.8l-6.2,24.1L407,817.6L407,817.6z"/>
<polygon id="polygon108" class="st0" points="498.4,826.9 497.9,843.3 448.3,842 450,775.3 469.4,775.9 468.1,826.1 "/>
<polygon id="polygon110" class="st0" points="536,779.2 532.4,845.7 513,844.7 516.7,778.1 "/>
<path id="path112" inkscape:connector-curvature="0" class="st0" d="M591.9,839.5l-22-2.2l-4.1,10.6l-19.7-2l30.2-64l21.2,2.1
	l16.8,68.7l-20.2-2L591.9,839.5z M589.2,824.7l-4.4-24.6l-9.2,23.2L589.2,824.7z"/>
<path id="path114" inkscape:connector-curvature="0" class="st3" d="M171.6,183v268.1c0,38.3,9.6,130.6,108.9,196.8
	c25.4,16.9,47,29.2,64.8,38.4V183L171.6,183L171.6,183z"/>
<path id="path116" inkscape:connector-curvature="0" class="st4" d="M530.7,183v503.3c17.8-9.2,39.4-21.5,64.8-38.4
	c99.3-66.2,108.9-158.5,108.9-196.8V183L530.7,183L530.7,183z"/>
<path id="path118" inkscape:connector-curvature="0" class="st5" d="M345.3,183v503.3c25.8,13.2,43.5,19.8,52.7,23.8
	c16.8,7.2,39.9,15.5,39.9,15.5h0.1c0,0,23.1-8.2,39.9-15.5c9.2-4,27-10.6,52.7-23.8V183L345.3,183L345.3,183z"/>
<rect id="rect120" x="171.6" y="11.4" class="st2" width="532.7" height="171.6"/>
<polygon id="polygon122" class="st0" points="305.6,88 305.6,109.2 264.8,109.2 264.8,151.9 232.4,151.9 232.4,47.2 312.5,47.2 
	312.5,69.8 264.8,69.8 264.8,88 "/>
<rect id="rect124" x="338.1" y="127" class="st0" width="26.5" height="24.9"/>
<rect id="rect126" x="394.2" y="47.2" class="st0" width="32.4" height="104.7"/>
<rect id="rect128" x="458.2" y="127" class="st0" width="26.5" height="24.9"/>
<path id="path130" inkscape:connector-curvature="0" class="st0" d="M513.3,151.9V47.2h53.9c10,0,17.6,0.9,22.9,2.6
	c5.3,1.7,9.5,4.9,12.7,9.5c3.2,4.6,4.9,10.3,4.9,17c0,5.8-1.2,10.8-3.7,15.1c-2.5,4.2-5.9,7.6-10.3,10.2c-2.8,1.7-6.6,3.1-11.4,4.2
	c3.9,1.3,6.6,2.6,8.4,3.9c1.2,0.9,2.9,2.7,5.1,5.5c2.2,2.8,3.7,5,4.5,6.5l15.8,30.2h-36.5l-17.3-32c-2.2-4.1-4.1-6.8-5.8-8.1
	c-2.4-1.6-5-2.4-7.9-2.4h-2.9v42.4L513.3,151.9L513.3,151.9z M545.7,89.6h13.7c1.5,0,4.3-0.5,8.6-1.4c2.1-0.4,3.9-1.5,5.3-3.3
	c1.4-1.8,2.1-3.8,2.1-6.1c0-3.4-1.1-6-3.3-7.8c-2.2-1.8-6.2-2.7-12.1-2.7h-14.3L545.7,89.6L545.7,89.6z"/>
<rect id="rect132" x="635.1" y="127" class="st0" width="26.5" height="24.9"/>
<polyline id="polyline134" class="st0" points="171.6,194.4 704.3,194.4 704.3,171.6 171.6,171.6 "/>
<path id="path136" inkscape:connector-curvature="0" class="st0" d="M438.1,725.5l3.8,10.7c0.1,0,23.2-8.3,40.5-15.7
	c7.3-3.2,21.7-8.6,41.8-18.3c20.1-9.7,46.1-23.9,77.6-44.9c51.6-34.3,80.4-76.1,95.9-114c15.6-38,18-72.2,18-92.3V0H438.9h-1.7
	H160.2v451.1c0,20.1,2.5,54.3,18,92.3c15.5,38,44.3,79.7,95.9,114c31.5,21,57.5,35.1,77.6,44.9c20,9.7,34.5,15.1,41.8,18.3
	c17.4,7.4,40.5,15.7,40.6,15.7l1.9,0.7h2.1h2l1.9-0.7L438.1,725.5v-11.4h-0.1v11.4l3.8-10.7c0,0-1.4-0.5-3.8-1.4
	c-7.2-2.6-23.2-8.6-35.5-13.8c-8.2-3.5-21.5-8.5-40.8-17.8c-19.2-9.3-44.2-22.9-74.9-43.3c-47.7-31.8-73.3-69.4-87.4-103.7
	c-14.1-34.3-16.3-65.4-16.3-83.6V22.8h254.1h1.7h254.1v428.3c0,18.2-2.3,49.3-16.3,83.6c-14.1,34.3-39.7,71.8-87.4,103.7
	c-30.6,20.4-55.6,34-74.9,43.3c-19.3,9.3-32.6,14.3-40.8,17.8c-8.1,3.5-18,7.3-25.8,10.2c-3.9,1.5-7.3,2.7-9.7,3.6
	c-2.4,0.9-3.8,1.4-3.8,1.4L438.1,725.5l0-11.4L438.1,725.5L438.1,725.5z"/>
</svg>
