<?xml version="1.0" encoding="utf-8"?>
<!-- Generator: Adobe Illustrator 26.0.2, SVG Export Plug-In . SVG Version: 6.00 Build 0)  -->
<svg version="1.1"
	 id="svg2" xmlns:cc="http://creativecommons.org/ns#" xmlns:dc="http://purl.org/dc/elements/1.1/" xmlns:inkscape="http://www.inkscape.org/namespaces/inkscape" xmlns:rdf="http://www.w3.org/1999/02/22-rdf-syntax-ns#" xmlns:sodipodi="http://sodipodi.sourceforge.net/DTD/sodipodi-0.dtd" xmlns:svg="http://www.w3.org/2000/svg"
	 xmlns="http://www.w3.org/2000/svg" xmlns:xlink="http://www.w3.org/1999/xlink" x="0px" y="0px" width="545px" height="609.1px"
	 viewBox="0 0 545 609.1" style="enable-background:new 0 0 545 609.1;" xml:space="preserve">
<style type="text/css">
	.st0{fill:#A3D5D3;}
	.st1{fill:#00AA98;}
	.st2{fill:#F7C4C6;}
	.st3{fill:#EB6379;}
	.st4{fill:none;}
</style>
<sodipodi:namedview  bordercolor="#666666" borderopacity="1" gridtolerance="10" guidetolerance="10" id="namedview4" inkscape:current-layer="g10" inkscape:cx="272.5" inkscape:cy="350" inkscape:pageopacity="0" inkscape:pageshadow="2" inkscape:window-height="691" inkscape:window-maximized="1" inkscape:window-width="1280" inkscape:window-x="0" inkscape:window-y="1" inkscape:zoom="0.74408482" objecttolerance="10" pagecolor="#ffffff" showgrid="false">
	</sodipodi:namedview>
<g>
	<g>
		<path class="st0" d="M253.9,516.1c0,0-29.2-41.5-101.7-41.5c-40.6-1.4-80.1,13.6-109.6,41.6c0,0,35.1,36.2,109.7,36.2
			S254,516.1,254,516.1"/>
		<path class="st0" d="M292.8,516.4c0,0,28.5-42.2,101-43.6c40.6-2.2,80.4,11.9,110.4,39.3c0,0-34.2,36.7-108.9,38.4
			s-102.5-33.9-102.5-33.9"/>
		<path class="st1" d="M510.8,513.1l-2.7,2.9c-1.5,1.6-38,37.6-113.7,39.2c-64,1.7-93.3-23.5-101.7-32.2l-11.3,2.9
			c-5.4,37.9-11.6,63.6-13.4,70.6h-24.4c7.4-23.8,13.4-48.1,18.2-72.6l-6.3-1.5c-8.6,8.4-37.5,33.9-101.7,33.9
			c-75.7,0-113-35.3-114.5-36.8l-2.8-2.9l2.7-3.1c34.1-28.2,77-43.4,121.1-42.9c37.2-0.5,72.7,15.3,97.2,43.3l1.4,1.9l3.7,0.8
			c1.7-8.2,3.3-17,4.7-26.2c-7.1-5.9-13.4-12.7-18.9-20.1c-9.3-13.1-27.8-37.9-27.8-37.9l7-3.1c8.4,12,17.7,23.3,27.8,33.9
			c6.2,5.8,11.1,9.7,14.2,12.2c1.2-8.6,2.5-17.6,3.5-26.9c10.1-86,4.6-97.3,4.6-97.3h10.3c0,0,6,10.5,0.8,97.4
			c-0.4,6.6-0.8,13-1.4,19.2c4.8-3.3,9.3-7.1,13.4-11.3c5.7-5.4,10.9-11.4,15.5-17.7l6.2,1.6c-6.1,9.2-12.8,17.9-20.1,26.2
			c-4.9,5.7-10.3,10.9-16.3,15.5c-1.2,12.7-2.7,24-4.2,35.3l5.7-1.4l1.4-2c23.9-28.5,59.1-45,96.3-45.2
			c44.2-1.4,87.5,12.9,122.2,40.3 M152.7,479c-16.7-0.1-33.4,2.4-49.4,7.2c2.8,2.7,6.8,5.7,11.3,9.8c4.5,4.2,7.6,7.7,8.4,8.6h1.1
			c12.4-1,25.7-1,39-1c7.5,0.2,15.1,0.6,22.6,1.1c-3.3-4.2-6.8-8.2-10.6-12c-5.2-4.9-12.7-11.3-15.7-13.9h-7.2L152.7,479z M49,516.8
			c22.8-5.4,46-9.1,69.4-11.3c-1.5-1.7-2.7-2.8-6.6-6.7c-3.8-3.8-10.6-9-13.6-11.3c-18.2,6-35,15.6-49.4,28.4L49,516.8z M51.6,517.9
			c12,9,25.5,15.8,39.9,20c5.7-3.8,11.1-8.1,16-12.9c5.2-5,10.1-10.3,14.5-16c-23.8,1.3-47.4,4.3-70.7,8.9L51.6,517.9z M153.7,546
			c6-4.2,11.6-8.9,17-13.9c6.9-6.4,13.5-13.2,19.7-20.3c-9.4-1-18.2-1.7-29.5-2.3c-11.3-0.6-22.6,0-33.9,0c-5,6.8-10.6,13.2-16.7,19
			c-4.5,4.1-9.3,7.9-14.4,11.3c17.3,4.5,35.1,6.6,53,6.2H153.7z M160.9,545.4c29.9-0.1,59.1-9.3,83.6-26.3
			c-12.9-2.6-29.7-5.7-49.2-7.9c-6.7,8.3-14,16.2-21.7,23.5c-4.1,4-8.3,7.8-12.8,11.3V545.4z M245.1,512.8
			c-21.8-20.4-50.2-32.2-80-33.3c3.6,3.6,8.4,7.8,12.1,11.3c4.8,4.7,9.2,9.8,13.1,15.1C208.7,507.3,227,509.6,245.1,512.8z
			 M387.2,477.9c-3.1,2.9-10.3,9.3-15.4,14.2c-3.7,3.8-7.2,7.9-10.4,12.2c7.5-0.7,14.9-1.6,22.6-1.6c13.3-0.8,26.7-0.7,39.1,0h1
			c0.8-1,5.3-5.7,8.1-8.8s7.9-7.3,11.3-10.1c-16.1-4.5-32.9-6.6-49.6-6.2h-6.9L387.2,477.9z M381.3,477.9
			c-29.7,1.8-57.8,14.2-79.1,34.9c18-3.7,36.3-6.6,54.6-8.5c3.8-5.5,8.1-10.6,12.8-15.4c3.1-3.7,7.8-8.1,11.3-11.3L381.3,477.9z
			 M302.9,518.8c24.9,16.5,54.3,25.1,84.2,24.6c-4.6-3.3-8.9-6.9-13.1-10.6c-8-7-15.6-14.6-22.6-22.6c-19.3,2.6-36.2,6-48.9,8.9
			L302.9,518.8z M398.1,543.6c17.9-0.2,35.6-2.8,52.8-7.8c-5.2-3.4-10.1-7.2-14.7-11.3c-6.3-5.7-12-11.9-17.1-18.6
			c-10.6-0.2-23.7,0-33.9,0.7s-20,1.6-29.4,2.8c6.3,7.3,13.1,14.3,20.2,20.8c5.4,4.9,11.2,9.5,17.3,13.6h5.3L398.1,543.6z
			 M456.2,534.4c14.3-4.5,27.7-11.5,39.4-20.8c-23.5-4.1-47.2-6.6-71-7.5c4.5,5.6,9.5,10.9,14.8,15.7c5.2,4.7,10.8,8.9,16.7,12.7
			L456.2,534.4z M498.4,512.2L498.4,512.2c-14.7-12.6-31.9-22.1-50.4-27.8c-2.8,2.1-10.6,8.6-13.3,11.3s-5,5.2-6.4,6.8
			c23.4,1.5,46.7,4.7,69.6,9.4L498.4,512.2z"/>
		<path class="st2" d="M448.2,267.5c12.4-1.9,25.1-2.4,37.6-1.5c12.9,1.4,25.4,5,37.1,10.6c-2.1,7-4.8,13.9-7.9,20.6
			c6.8,2.8,13.4,6,19.8,9.7c-4.7,12-11.6,23.2-20.1,32.9c-8.5,9.2-18,17.4-28.4,24.5c5.7,11.2,10.2,23,13.1,35.3
			c2.7,12.7,3.1,25.7,1.4,38.5c-7.4,0.2-14.7-0.2-22-1.1c-0.5,7.3-1.6,14.6-3.2,21.8c-12.9-0.8-25.6-3.8-37.5-8.9
			c-11.5-5.3-22.4-11.9-32.5-19.6c-9.2,8.8-19.2,16.6-30.1,23.3c-11.2,6.5-23.5,10.9-36.3,13.2c-2.4-6.9-4.3-14-5.7-21.2
			c-7.1,1.8-14.4,3-21.7,3.7c-3.3-12.5-4.3-25.5-3.2-38.4c1.5-12.5,4.5-24.8,8.9-36.6c-11.2-5.9-21.7-13-31.3-21.2
			c-9.6-8.7-17.6-19-23.7-30.4c5.8-4.4,12-8.4,18.4-12c-3.9-6.3-7.3-12.8-10.3-19.6c10.9-6.8,23-11.7,35.6-14.5
			c12.3-2.5,24.9-3.5,37.5-3.1c2-12.4,5.5-24.5,10.3-36.2c5.3-11.8,12.5-22.6,21.5-32c6,4.2,11.7,8.9,17.1,13.9
			c4.7-5.6,9.9-10.9,15.4-15.8c10,8.2,18.6,18.1,25.2,29.3c6.1,11,11,22.6,14.6,34.7"/>
		<path class="st3" d="M408,195.6l3.7,3.2c10.6,8.7,19.7,19.2,26.7,31.1c5.5,9.8,10.1,20.1,13.6,30.9c11.2-1.4,22.6-1.6,33.9-0.7
			c13.7,1.4,27.1,5.2,39.4,11.3l4.5,2.4l-1.4,4.9c-1.7,5.3-3.6,10.6-5.8,15.7c5.1,2.3,10,4.8,14.8,7.6l4.4,2.7l-1.7,4.7
			c-5,12.8-12.2,24.7-21.4,35c-7.6,8.3-15.9,15.9-25,22.6c4.9,10.2,8.6,20.9,11.3,31.9c1.8,8,2.7,16.2,2.6,24.4
			c0,5.6-0.3,11.1-1.1,16.6l-0.8,5.1h-5.1c-0.3,0-7.3,0.1-16.6-0.7c-1.1,9.4-2.7,16.5-2.7,16.5l-1.2,4.1h-5.1
			c-13.8-0.8-27.3-4-39.9-9.5c-10.3-4.8-20.2-10.5-29.5-17.2c-8.3,7.8-17.4,14.8-27,20.9c-11.9,6.9-25,11.7-38.5,14.1l-4.9,0.8
			l-1.8-4.7c-1.8-5.3-3.4-10.6-4.6-16c-5.4,1.4-10.9,2.5-16.4,3.4h-5.1l-1.5-4.9c-2.5-9.8-3.8-19.9-3.8-30.1
			c-0.2-3.8-0.2-7.5,0-11.3c1.3-11.2,3.8-22.3,7.5-33c-9.7-5.5-18.9-11.9-27.5-19.2c-10.3-9.2-18.8-20.1-25.3-32.3l-2.3-4.5l4.1-3.2
			c4.4-3.3,9-6.4,13.8-9.3c-2.7-4.7-5.2-9.5-7.5-14.5l-1.9-4.7l4.2-2.8c11.6-7.5,24.4-12.8,37.9-15.8c11.2-2.2,22.5-3.3,33.9-3.3
			c2.2-11,5.4-21.8,9.7-32.2c5.5-12.5,13.1-24,22.6-33.9l3.6-3.6l4.2,2.8c4.7,2.9,9.3,6,13.7,9.4c3.6-3.9,7.4-7.7,11.3-11.3
			 M397.6,223l-4.3,5.1l-4.7-4.5c-3.8-3.6-7.8-6.9-12-10.1c-6.8,7.8-12.4,16.6-16.6,26.1c-4.6,11.1-7.9,22.7-9.9,34.6l-0.8,5.7h-5.8
			c-12.2-0.4-24.3,0.6-36.3,2.9c-10.1,2.3-19.8,6.1-28.8,11.3c2.3,4.7,4.8,9.3,7.6,13.7l3.5,5.7l-5.8,3.2c-4.5,2.6-8.8,5.4-13,8.5
			c5.2,8.8,11.6,16.7,19.1,23.6c9.1,7.8,19.1,14.5,29.7,20.1l5.2,2.6l-2.1,5.3c-4.2,11.3-7,23.1-8.5,35c-0.2,3.1-0.2,6.2,0,9.3
			c0,7.3,0.8,14.5,2.3,21.6c4.1-0.6,9.3-1.5,15.4-2.9l6.4-1.6l2,6.6c1.1,6.3,2.6,11.5,3.7,15.3c10.1-2.3,19.8-6.1,28.8-11.3
			c10.4-6.5,20-14.1,28.8-22.6l4-4l4.3,3.4c9.7,7.3,20.2,13.6,31.3,18.8c9.5,4.2,19.6,6.8,29.9,7.9c0.9-5.1,1.6-10.3,1.9-15.5v-6.6
			l6.6,0.8c5.2,0.7,10.4,1,15.6,1.1c0-2.5,0-5.7,0-9.4c0.1-7.2-0.7-14.4-2.3-21.5c-2.8-11.8-7-23.1-12.5-33.9l-2.7-5.1l4.9-3.2
			c9.9-6.7,19-14.5,27.2-23.2c6.9-7.8,12.6-16.5,16.8-26c-4.6-2.5-9.3-4.7-14.1-6.7l-6.1-2.5l2.8-6c2.2-4.8,4.2-9.6,5.9-14.6
			c-9.5-4.1-19.6-6.6-29.9-7.7c-12-0.9-24.1-0.5-36.1,1.4l-5.7,1l-1.5-5.5c-3.5-11.6-8.4-22.7-14.4-33.2c-5.3-8.9-11.9-17-19.6-24
			c-3.7,3.6-7.2,7.4-10.5,11.3L397.6,223z"/>
		<path class="st2" d="M323.8,79.8c12.4-2.1,25.1-2.8,37.6-2c12.9,1.1,25.5,4.5,37.3,9.9c-2,7.1-4.6,14.1-7.7,20.8
			c6.8,2.6,13.5,5.8,19.9,9.4c-4.6,12.1-11.2,23.4-19.6,33.2c-8.4,9.4-17.8,17.7-28,25c5.9,11.1,10.5,22.9,13.7,35.1
			c2.9,12.6,3.6,25.7,2,38.5c-7.4,0.3-14.7,0-22-0.8c-0.4,7.3-1.4,14.6-2.8,21.8c-12.9-0.6-25.7-3.3-37.6-8.2
			c-11.6-5.1-22.6-11.5-32.9-19c-8.9,9.1-18.7,17.3-29.4,24.3c-11.1,6.7-23.2,11.4-35.9,13.9c-2.5-6.9-4.6-14-6.1-21.2
			c-7.1,1.9-14.3,3.2-21.6,4.1c-3.5-12.5-4.7-25.5-3.7-38.4c1.3-12.5,4-24.9,8.2-36.7c-11.2-5.8-21.7-12.8-31.3-20.9
			c-9.8-8.5-18-18.6-24.3-29.9c5.8-4.6,11.9-8.7,18.3-12.3c-4-6.2-7.6-12.6-10.6-19.3c10.8-7.2,22.8-12.5,35.4-15.6
			c12.3-2.6,24.8-3.9,37.4-3.6c1.8-12.4,5-24.6,9.6-36.3c5.1-11.9,12.2-22.9,21-32.3c6.3,4.1,12.2,8.6,17.9,13.6
			c4.6-5.7,9.7-11.1,15.1-16c10,8.3,18.5,18.2,25.1,29.4c6.3,10.7,11.4,22.1,15.1,33.9"/>
		<path class="st3" d="M282.7,8.6l4.2,3.1c10.8,8.6,20,19,27.2,30.9c5.6,9.7,10.3,19.9,13.9,30.5c11.2-1.6,22.6-2.1,33.9-1.4
			c13.7,1.2,27.1,4.8,39.6,10.6l4.6,2.3l-1.4,5c-1.5,5.3-3.4,10.6-5.4,15.7c5.1,2.2,10.1,4.6,14.9,7.3l4.4,2.6l-1.7,4.9
			c-4.7,12.9-11.5,24.9-20.3,35.5c-7.5,8.3-15.9,15.9-24.9,22.6c4.8,10.1,8.6,20.7,11.3,31.6c2.1,8.7,3.1,17.5,3.1,26.4
			c0,4.8-0.3,9.7-0.9,14.5l-0.8,5.1h-5.1c-0.3,0-7.2,0.6-16.6,0c-0.4,5.6-1.1,11.1-2,16.6l-1.1,5h-5.1c-13.7-0.6-27.3-3.5-40-8.8
			c-10.5-4.5-20.5-10-29.9-16.4c-8.3,7.8-17.3,14.8-26.9,20.9c-11.8,7.1-24.8,12.1-38.3,14.7l-5.1,0.9l-1.8-4.7
			c-1.9-5.2-3.5-10.5-4.9-15.9c-5.4,1.2-10.9,2.2-16.4,2.8h-5.1l-1.5-4.9c-2.9-10.3-4.4-21-4.4-31.8c-0.2-3-0.2-6,0-9
			c1.1-11.2,3.5-22.3,6.9-33.1c-9.9-5.3-19.2-11.6-27.8-18.8c-10.6-9.2-19.4-20.2-26.1-32.4l-2.4-4.5l4-3.3c4.4-3.4,9-6.6,13.7-9.5
			c-4.9-8.1-7.8-14.7-7.8-14.7l-2-4.6l4.2-2.9c11.4-7.6,24.1-13.2,37.5-16.4c11.1-2.4,22.5-3.7,33.9-3.8c2-11.1,5.1-22,9.3-32.4
			c5.5-12.5,13.1-24,22.6-33.9l3.6-3.6l4.3,2.8c4.7,3.1,9.3,6.5,13.7,10.1c3.6-4.2,7.3-8.2,11.3-12 M268.7,41.7l-4.9-4.4
			c-3.9-3.5-8-6.8-12.2-9.8c-6.7,7.9-12.1,16.8-16.2,26.3c-4.4,11.3-7.5,23-9.2,35l-0.7,5.7h-5.8c-12-0.2-24.1,1-35.8,3.5
			c-10,2.3-19.7,6.1-28.6,11.3c2.4,4.7,5,9.2,7.8,13.6l3.6,5.5l-5.8,3.3c-4.5,2.6-8.9,5.4-13.1,8.5c5.3,8.9,11.9,17,19.6,24
			c9.3,7.6,19.3,14.2,30.1,19.7l5.2,2.5l-2,5.4c-4,11.4-6.7,23.2-7.9,35.1c0,2.6,0,5.3,0,7.8c0.1,7.6,0.9,15.2,2.6,22.6
			c5.2-1.3,10.4-2.8,15.5-4.6l6.3-1.7l1.4,6.4c1.1,5.1,2.5,10.2,4.1,15.1c10-2.3,19.7-6.1,28.6-11.3c10.3-6.5,19.8-14.1,28.5-22.6
			l3.8-4l4.2,4.4c9.9,7.2,20.5,13.3,31.6,18.2c9.7,3.8,19.9,6.2,30.3,6.9c0.8-5.2,1.4-10.4,1.7-15.6V242l7,0.8
			c5.2,0.6,10.4,0.9,15.6,0.9c0-2.1,0-4.5,0-7.5c-0.1-7.8-1-15.5-2.9-23.1c-3-11.8-7.4-23.2-13.1-33.9l-2.8-5l4.7-3.3
			c9.8-7,18.8-15,26.8-24c6.7-7.9,12.2-16.7,16.3-26.2c-4.6-2.4-9.4-4.5-14.2-6.4l-6.1-2.4l2.7-6c2.1-4.8,3.9-9.6,5.5-14.6
			c-9.6-3.9-19.7-6.3-30.1-7.2c-12.1-0.7-24.1-0.1-36.1,1.9l-5.7,1l-1.6-5.4c-3.7-11.4-8.6-22.4-14.7-32.8
			c-5.4-8.8-12.2-16.8-20-23.6c-3.7,3.6-7.2,7.4-10.5,11.3L268.7,41.7z"/>
		<line class="st4" x1="324.3" y1="157.5" x2="229.6" y2="141.3"/>
		<path class="st3" d="M323.3,162.9c-3-0.5-5-3.3-4.5-6.3c0,0,0-0.1,0-0.1c0.5-3,3.4-5,6.4-4.5c3,0.5,5,3.4,4.5,6.4
			C329.2,161.4,326.3,163.4,323.3,162.9"/>
		<path class="st3" d="M230.5,135.9c3,0.5,5,3.3,4.5,6.3c0,0,0,0.1,0,0.1c-0.5,3-3.4,5-6.4,4.5c-3-0.5-5-3.4-4.5-6.4
			C224.7,137.4,227.5,135.4,230.5,135.9"/>
		<line class="st4" x1="322" y1="132.7" x2="231.9" y2="166.1"/>
		<path class="st3" d="M323.9,137.9C323.9,137.9,323.9,137.9,323.9,137.9c-2.9,1.1-6.1-0.4-7.1-3.3c-1.1-2.9,0.4-6,3.3-7.1
			c2.9-1.1,6.1,0.4,7.1,3.3C328.2,133.7,326.7,136.9,323.9,137.9"/>
		<path class="st3" d="M230,161C230,161,230,161,230,161c2.9-1.1,6.1,0.4,7.1,3.3c1.1,2.9-0.4,6-3.3,7.1c-2.9,1.1-6.1-0.4-7.1-3.3
			C225.6,165.2,227.1,162,230,161"/>
		<line class="st4" x1="307.6" y1="112.4" x2="246.2" y2="186.4"/>
		<path class="st3" d="M311.8,116c-2,2.3-5.5,2.6-7.8,0.7c0,0,0,0,0,0c-2.3-2-2.6-5.5-0.7-7.8c2-2.3,5.5-2.6,7.8-0.7
			C313.5,110.2,313.8,113.7,311.8,116"/>
		<path class="st3" d="M242.1,182.9c2-2.3,5.5-2.6,7.8-0.7c0,0,0,0,0,0c2.3,2,2.6,5.5,0.7,7.8s-5.5,2.6-7.8,0.7
			C240.4,188.7,240.1,185.2,242.1,182.9"/>
		<line class="st4" x1="285" y1="102.1" x2="268.8" y2="196.8"/>
		<path class="st3" d="M290.4,103c-0.5,3-3.3,5-6.3,4.5c0,0-0.1,0-0.1,0c-3-0.5-5-3.4-4.5-6.4c0.5-3,3.4-5,6.4-4.5
			C288.9,97.1,291,100,290.4,103"/>
		<path class="st3" d="M263.4,195.8c0.5-3,3.3-5,6.3-4.5c0,0,0.1,0,0.1,0c3,0.5,5,3.4,4.5,6.4c-0.5,3-3.4,5-6.4,4.5
			C264.9,201.7,262.9,198.8,263.4,195.8"/>
		<line class="st4" x1="260.3" y1="104.4" x2="293.6" y2="194.4"/>
		<path class="st3" d="M265.5,102.4C265.5,102.4,265.5,102.4,265.5,102.4c1.1,2.9-0.4,6.1-3.3,7.1c-2.9,1.1-6-0.4-7.1-3.3
			c-1.1-2.9,0.4-6.1,3.3-7.1C261.2,98.1,264.4,99.6,265.5,102.4"/>
		<path class="st3" d="M288.5,196.3C288.5,196.3,288.5,196.3,288.5,196.3c-1.1-2.9,0.4-6.1,3.3-7.1c2.9-1.1,6,0.4,7.1,3.3
			c1.1,2.9-0.4,6.1-3.3,7.1C292.8,200.7,289.6,199.2,288.5,196.3"/>
		<line class="st4" x1="239.9" y1="118.7" x2="313.9" y2="180.1"/>
		<path class="st3" d="M243.4,114.5c0.1,0,0.1,0.1,0.2,0.1c2.3,2,2.5,5.4,0.5,7.7c0,0,0,0,0,0c-2,2.3-5.5,2.6-7.8,0.7
			c-2.3-2-2.6-5.5-0.7-7.8C237.6,112.9,241.1,112.6,243.4,114.5"/>
		<path class="st3" d="M310.4,184.4c-2.3-2-2.6-5.5-0.7-7.8c0,0,0,0,0,0c2-2.3,5.5-2.6,7.8-0.7c2.3,2,2.6,5.5,0.7,7.8
			C316.3,186,312.8,186.3,310.4,184.4"/>
		<path class="st3" d="M266.4,150.2c0.5,5.8,5.5,10.1,11.3,9.7c0.1,0,0.1,0,0.2,0c5.8-0.5,10.2-5.6,9.7-11.5
			c-0.5-5.8-5.6-10.2-11.5-9.7C270.2,139.3,265.9,144.4,266.4,150.2"/>
		<path class="st2" d="M193.7,264.3c12.4-2.2,25-2.9,37.6-2.1c12.9,1.1,25.5,4.4,37.3,9.8c-2,7.1-4.5,14-7.6,20.7
			c6.7,2.8,13.2,6.1,19.4,9.8c-4.5,12-11.1,23.1-19.4,32.9c-8.3,9.3-17.6,17.7-27.8,25c6,11.1,10.6,22.9,13.8,35
			c2.9,12.6,3.7,25.7,2.1,38.5c-7.4,0.3-14.7,0-22-0.8c-0.4,7.4-1.4,14.8-2.9,22c-12.9-0.5-25.7-3.3-37.6-8.2
			c-11.6-5.1-22.6-11.5-32.9-19c-9,8.9-18.8,16.9-29.5,23.7c-11.1,6.7-23.2,11.4-35.9,13.9c-2.5-6.9-4.6-13.9-6.1-21.1
			c-7.1,1.9-14.4,3.3-21.7,4.2c-3.5-12.5-4.8-25.5-3.8-38.4c1.3-12.5,4-24.9,8.2-36.7c-11.2-5.6-21.7-12.5-31.4-20.5
			c-9.8-8.4-18.1-18.5-24.4-29.8c5.7-4.7,11.8-8.9,18.2-12.7c-4-6.2-7.5-12.6-10.6-19.3c10.7-7,22.4-12.1,34.8-15.1
			c12.3-2.7,24.8-3.9,37.4-3.7c1.8-12.5,5-24.7,9.6-36.4c5-11.9,12.1-22.9,20.9-32.4c6.1,4.1,11.9,8.6,17.4,13.6
			c4.8-5.8,10-11.2,15.6-16.3c10.3,8.2,19,18.2,25.8,29.5c6.3,10.7,11.4,22.1,15.1,33.9"/>
		<path class="st3" d="M151.8,193l4.1,3.1c10.9,8.5,20.1,18.9,27.3,30.6c5.7,9.7,10.4,20,14.1,30.6c11.2-1.6,22.6-2,33.9-1.4
			c13.7,1.1,27.2,4.7,39.7,10.5l4.6,2.3l-1.4,5c-1.5,5.3-3.3,10.6-5.4,15.7c5.1,2.2,10.1,4.6,14.9,7.3l5.2,2.7l-1.7,4.9
			c-4.8,12.9-11.8,24.9-20.7,35.4c-7.5,8.3-15.7,15.9-24.6,22.6c4.8,10.1,8.6,20.7,11.3,31.6c2.1,8.8,3.1,17.8,3.1,26.8
			c0,4.8-0.3,9.5-0.9,14.2l-0.7,5.1h-5.1c-0.3,0-7.2,0.6-16.6,0c-0.5,5.5-1.3,11-2.4,16.5l-1.1,5h-5.1c-13.8-0.5-27.4-3.5-40.1-8.7
			c-10.4-4.6-20.4-10.2-29.8-16.6c-8.3,7.8-17.3,14.9-26.9,21c-11.8,7.1-24.7,12.1-38.2,14.8l-4.3,1.1l-1.8-4.7
			c-1.9-5.2-3.5-10.5-4.9-15.9c-5.4,1.2-10.9,2.2-16.4,2.8h-5.1l-1.5-4.9c-3-10.4-4.5-21.2-4.5-32c0-2.8,0-5.9,0-8.8
			c1.1-11.2,3.4-22.3,6.8-33.1c-10-5.3-19.5-11.5-28.3-18.6c-10.4-9-19.2-19.8-25.9-31.9l-2.4-4.5l3.2-3.7c0.3-0.1,5.7-4.4,13.7-9.5
			c-2.9-4.8-5.5-9.7-7.8-14.7l-2-4.7l4.2-2.9c11.4-7.7,24.1-13.2,37.5-16.5c11.1-2.4,22.5-3.7,33.9-3.8c2-11.1,5-22,9.2-32.4
			c5.5-12.5,13.1-24,22.6-33.9l3.6-3.7l4.3,2.8c4.6,3.1,9.1,6.5,13.3,10.1c3.5-4.2,7.3-8.2,11.3-12 M142.2,221.2l-4.2,5.1l-4.9-4.4
			c-3.9-3.5-8-6.8-12.2-9.8c-6.7,8.1-12.2,17.1-16.2,26.8c-4.4,11.2-7.5,22.9-9.3,34.8l-0.7,5.7H89c-12-0.2-24.1,1.1-35.8,3.6
			c-10,2.3-19.7,6.1-28.6,11.3c2.4,4.7,5,9.2,7.8,13.6l3.6,5.5l-5.7,3.3c-4.5,2.6-8.9,5.4-13.1,8.5c5.6,8.5,12.3,16.1,20.1,22.6
			c9.2,7.8,19.3,14.6,30.1,20.1l5.2,2.5l-2.6,5.2c-4,11.4-6.6,23.2-7.8,35.1c0,2.5,0,5.1,0,7.6c0.1,7.8,1,15.6,2.7,23.2
			c5.1-0.8,10.2-1.9,15.3-3.3l6.8-1.2l1.4,6.4c1.1,5.1,2.4,10.2,4.1,15.1c10.1-2.5,19.7-6.5,28.6-11.9c10.3-6.5,19.8-14.1,28.5-22.6
			l3.8-4l4.4,3.4c9.9,7.2,20.5,13.3,31.6,18.2c9.6,4,19.7,6.4,30.1,7.3c0.7-4.3,1.7-9.3,1.7-15.6v-6.6l6.7,0.9
			c6.2,0.8,11.8,0.8,15.6,0.8c0-2,0-4.4,0-7.2c0.1-8-0.9-15.9-2.7-23.6c-3-11.8-7.4-23.2-13.1-33.9l-2.8-5l4.7-3.3
			c9.7-7,18.7-15,26.7-24c6.7-7.9,12.2-16.8,16.3-26.3c-2.9-1.8-8.2-4.2-14.2-6.4l-6.1-2.4l2.7-6c2.1-4.8,4-9.7,5.7-14.7
			c-9.6-3.9-19.7-6.3-30.1-7.1c-12.1-0.7-24.2,0-36.2,2.1l-5.7,1l-1.6-5.4c-3.6-11.5-8.5-22.6-14.6-33c-5.4-8.8-12.2-16.8-20-23.6
			c-3.7,3.6-7.2,7.4-10.5,11.3L142.2,221.2z"/>
		<line class="st4" x1="193.8" y1="341.7" x2="99.1" y2="325.7"/>
		<path class="st3" d="M193.2,347.7c-3-0.5-5-3.3-4.5-6.3c0,0,0-0.1,0-0.1c0.5-3,3.4-5,6.4-4.5c3,0.5,5,3.4,4.5,6.4
			C199.1,346.2,196.3,348.2,193.2,347.7"/>
		<path class="st3" d="M100,320.3c3,0.5,5,3.3,4.5,6.3c0,0,0,0.1,0,0.1c-0.5,3-3.4,5-6.4,4.5c-3-0.5-5-3.4-4.5-6.4
			C94.1,321.8,97,319.8,100,320.3"/>
		<line class="st4" x1="191.4" y1="316.9" x2="101.5" y2="350.5"/>
		<path class="st3" d="M193.2,322.1C193.2,322.1,193.2,322.1,193.2,322.1c-2.9,1.1-6.1-0.4-7.1-3.3c-1.1-2.9,0.4-6,3.3-7.1
			c2.9-1.1,6.1,0.4,7.1,3.3C197.6,317.9,196.1,321.1,193.2,322.1"/>
		<path class="st3" d="M99.6,345.3C99.6,345.3,99.6,345.3,99.6,345.3c2.9-1.1,6.1,0.4,7.1,3.3c1.1,2.9-0.4,6-3.3,7.1
			c-2.9,1.1-6.1-0.4-7.1-3.3S96.7,346.4,99.6,345.3"/>
		<line class="st4" x1="177" y1="296.7" x2="115.8" y2="370.7"/>
		<path class="st3" d="M181.3,300.2c-2,2.3-5.5,2.6-7.8,0.7c0,0,0,0,0,0c-2.3-2-2.6-5.5-0.7-7.8s5.5-2.6,7.8-0.7
			C182.9,294.4,183.2,297.9,181.3,300.2"/>
		<path class="st3" d="M111.6,367.2C111.6,367.2,111.7,367.2,111.6,367.2c1.9-2.4,5.4-2.7,7.8-0.8c2.4,1.9,2.7,5.4,0.8,7.8
			c-1.9,2.4-5.4,2.7-7.8,0.8C110.1,373.1,109.7,369.6,111.6,367.2"/>
		<line class="st4" x1="154.4" y1="286.3" x2="138.4" y2="381.1"/>
		<path class="st3" d="M159.3,287.2c-0.5,3-3.3,5-6.3,4.5c0,0-0.1,0-0.1,0c-3-0.5-5-3.4-4.5-6.4c0.5-3,3.4-5,6.4-4.5
			C157.8,281.3,159.9,284.2,159.3,287.2"/>
		<path class="st3" d="M133,380.1c0.5-3,3.3-5,6.3-4.5c0,0,0.1,0,0.1,0c3,0.5,5,3.4,4.5,6.4c-0.5,3-3.4,5-6.4,4.5
			C134.5,386,132.5,383.1,133,380.1"/>
		<line class="st4" x1="129.6" y1="288.7" x2="163.2" y2="378.7"/>
		<path class="st3" d="M134.8,286.8C134.8,286.8,134.8,286.8,134.8,286.8c1.1,2.9-0.4,6.1-3.3,7.1c-2.9,1.1-6-0.4-7.1-3.3
			c-1.1-2.9,0.4-6.1,3.3-7.1C130.6,282.4,133.8,283.9,134.8,286.8"/>
		<path class="st3" d="M158.1,380.7C158.1,380.7,158.1,380.7,158.1,380.7c-1.1-2.9,0.4-6.1,3.3-7.1c2.9-1.1,6,0.4,7.1,3.3
			c1.1,2.9-0.4,6.1-3.3,7.1C162.3,385,159.2,383.5,158.1,380.7"/>
		<line class="st4" x1="109.4" y1="303.1" x2="183.5" y2="364.3"/>
		<path class="st3" d="M112.9,298.8C112.9,298.8,112.9,298.8,112.9,298.8c2.4,1.9,2.7,5.4,0.8,7.8c-1.9,2.4-5.4,2.7-7.8,0.8
			c-2.4-1.9-2.7-5.4-0.8-7.8S110.5,296.9,112.9,298.8"/>
		<path class="st3" d="M179.9,368.6C179.9,368.6,179.9,368.6,179.9,368.6c-2.4-1.9-2.7-5.4-0.8-7.8c1.9-2.4,5.4-2.7,7.8-0.8
			c2.4,1.9,2.7,5.4,0.8,7.8S182.3,370.5,179.9,368.6"/>
		<path class="st3" d="M135.8,334.6c0.5,5.8,5.5,10.1,11.3,9.7c0.1,0,0.1,0,0.2,0c5.8-0.5,10.2-5.6,9.7-11.5s-5.6-10.2-11.5-9.7
			C139.7,323.6,135.3,328.7,135.8,334.6"/>
		<line class="st4" x1="446.8" y1="345.1" x2="352.5" y2="327.3"/>
		<path class="st3" d="M445.8,350.5c-3-0.6-5-3.4-4.4-6.4c0,0,0,0,0,0c0.6-3,3.5-5,6.5-4.4c3,0.6,5,3.5,4.4,6.5
			C451.7,349.1,448.8,351.1,445.8,350.5"/>
		<path class="st3" d="M353.5,321.9c3,0.6,5,3.4,4.4,6.4c0,0,0,0,0,0c-0.6,3-3.5,5-6.5,4.4c-3-0.6-5-3.5-4.4-6.5
			C347.6,323.3,350.5,321.3,353.5,321.9"/>
		<line class="st4" x1="444.9" y1="320.3" x2="354.3" y2="352.2"/>
		<path class="st3" d="M446.8,325.1c-2.9,1-6-0.5-7-3.4c0,0,0,0,0-0.1c-1-2.9,0.6-6,3.5-7s6,0.6,7,3.5
			C451.3,320.9,449.7,324.1,446.8,325.1"/>
		<path class="st3" d="M352.5,346.9c2.9-1,6,0.5,7,3.4c0,0,0,0,0,0.1c1,2.9-0.6,6-3.5,7c-2.9,1-6-0.6-7-3.5
			C348,351,349.6,347.9,352.5,346.9"/>
		<line class="st4" x1="430.9" y1="299.7" x2="368.4" y2="372.6"/>
		<path class="st3" d="M435.1,303.4c-2,2.3-5.5,2.6-7.8,0.6c0,0,0,0,0,0c-2.3-2-2.6-5.5-0.6-7.8s5.5-2.6,7.8-0.6
			S437.1,301.1,435.1,303.4"/>
		<path class="st3" d="M364.2,369c2-2.3,5.5-2.6,7.8-0.6c0,0,0,0,0,0c2.3,2,2.6,5.5,0.6,7.8c-2,2.3-5.5,2.6-7.8,0.6
			S362.2,371.3,364.2,369"/>
		<line class="st4" x1="408.5" y1="289" x2="390.8" y2="383.4"/>
		<path class="st3" d="M413.9,290c-0.6,3-3.4,5-6.4,4.4c0,0,0,0,0,0c-3-0.6-5-3.5-4.4-6.5c0.6-3,3.5-5,6.5-4.4S414.5,287,413.9,290"
			/>
		<path class="st3" d="M385.4,382.4c0.6-3,3.4-5,6.4-4.4c0,0,0,0,0,0c3,0.6,5,3.5,4.4,6.5c-0.6,3-3.5,5-6.5,4.4
			C386.8,388.3,384.8,385.4,385.4,382.4"/>
		<line class="st4" x1="383.7" y1="290.9" x2="415.5" y2="381.6"/>
		<path class="st3" d="M388.9,289c1,2.9-0.5,6-3.4,7c0,0,0,0-0.1,0c-2.9,1-6-0.6-7-3.5c-1-2.9,0.6-6,3.5-7
			C384.7,284.6,387.9,286.1,388.9,289"/>
		<path class="st3" d="M410.3,383.4c-1-2.9,0.5-6,3.4-7c0,0,0,0,0.1,0c2.9-1,6,0.6,7,3.5s-0.6,6-3.5,7
			C414.5,387.8,411.3,386.3,410.3,383.4"/>
		<line class="st4" x1="363.2" y1="304.9" x2="436.1" y2="367.4"/>
		<path class="st3" d="M366.8,300.8c2.3,2,2.6,5.5,0.6,7.8c0,0,0,0,0,0c-2,2.3-5.5,2.6-7.8,0.6c-2.3-2-2.6-5.5-0.6-7.8
			C361,299,364.5,298.8,366.8,300.8"/>
		<path class="st3" d="M432.5,371.6c-2.3-2-2.6-5.5-0.6-7.8c0,0,0,0,0,0c2-2.3,5.5-2.6,7.8-0.6c2.3,2,2.6,5.5,0.6,7.8
			S434.8,373.6,432.5,371.6"/>
		<path class="st3" d="M389.1,336.4C389.1,336.4,389.1,336.4,389.1,336.4c0.4,5.9,5.4,10.3,11.3,9.9c5.8-0.4,10.3-5.4,9.9-11.3
			c-0.4-5.9-5.4-10.3-11.3-9.9C393.2,325.5,388.7,330.5,389.1,336.4"/>
	</g>
</g>
</svg>
