<?xml version="1.0" encoding="utf-8"?>
<!-- Generator: Adobe Illustrator 26.0.2, SVG Export Plug-In . SVG Version: 6.00 Build 0)  -->
<svg version="1.1"
	 id="svg2" xmlns:cc="http://creativecommons.org/ns#" xmlns:dc="http://purl.org/dc/elements/1.1/" xmlns:inkscape="http://www.inkscape.org/namespaces/inkscape" xmlns:rdf="http://www.w3.org/1999/02/22-rdf-syntax-ns#" xmlns:sodipodi="http://sodipodi.sourceforge.net/DTD/sodipodi-0.dtd" xmlns:svg="http://www.w3.org/2000/svg"
	 xmlns="http://www.w3.org/2000/svg" xmlns:xlink="http://www.w3.org/1999/xlink" x="0px" y="0px" width="545px" height="700px"
	 viewBox="0 0 545 700" style="enable-background:new 0 0 545 700;" xml:space="preserve">
<style type="text/css">
	.st0{fill:#7B7B7B;}
	.st1{stroke:#040606;stroke-width:0.5823;stroke-miterlimit:12.5;}
	.st2{fill:#FFCC00;}
	.st3{fill:#FFFFFF;}
</style>
<sodipodi:namedview  bordercolor="#666666" borderopacity="1" gridtolerance="10" guidetolerance="10" id="namedview4" inkscape:current-layer="g10" inkscape:cx="272.5" inkscape:cy="350" inkscape:pageopacity="0" inkscape:pageshadow="2" inkscape:window-height="691" inkscape:window-maximized="1" inkscape:window-width="1280" inkscape:window-x="0" inkscape:window-y="1" inkscape:zoom="0.74408482" objecttolerance="10" pagecolor="#ffffff" showgrid="false">
	</sodipodi:namedview>
<g id="g10" transform="matrix(1.25,0,0,-1.25,0,700)" inkscape:groupmode="layer" inkscape:label="coloriage_logo">
	<g id="g12">
		<path id="path14" inkscape:connector-curvature="0" class="st0" d="M435.6,332.9c0-46.5-7-101.3-36.1-164.5
			C342.2,43.8,217.8,0,217.8,0S93.4,43.8,36.1,168.4C7,231.7,0,286.4,0,332.9c0,98.5,30.1,195.9,30.1,195.9s73,31.1,187.7,31.1
			c114.7,0,187.7-31.1,187.7-31.1S435.6,431.4,435.6,332.9L435.6,332.9z"/>
		<g id="g16" transform="translate(0,560)">
			<path id="path18" inkscape:connector-curvature="0" class="st1" d="M428.3-227.1c0-39.6-6.4-99.6-35.4-161.3
				c-57.6-122.5-175.1-163.5-175.1-163.5s-117.5,41-175.1,163.5c-29,61.7-35.4,121.8-35.4,161.3c0,95,28.8,190.2,28.8,190.2
				S105.2-7.3,217.8-7.3c112.6,0,181.7-29.5,181.7-29.5S428.3-132.1,428.3-227.1L428.3-227.1z"/>
		</g>
		<path id="path20" inkscape:connector-curvature="0" class="st2" d="M316.4,271.7L207,286.9c66.2,22.5,96-2,100.6-9.5
			c11.4,26.8-9.4,50.3-9.4,50.3l-31.1,6.5l0.8,21.4l-4.5,1.1l-1.6-21.4l-43.3,9.1c9.8-25.8-4-45.9-11.7-54.5
			c5.7,11.7,4.7,21.8,2.9,28.1l-19.4,4.1l0.8,20.1l-4.5,1.1l-1.6-20.1l-32.8,7c8.4-26.3-7.3-45.2-14.4-52.1l-13.5,1.8
			c23.2-61.7-20.8-115.4-20.8-115.4c25.3,16.3,48,24.7,67.4,28.5c19.2,38.6,8.7,68.5,2.9,80.2l-32.7,4.4c18.4,6.6,33.4,9,45.5,9.1
			c26.7-59.4-27.7-120.1-27.7-120.1c43.2,29.1,91.1,35.8,116.1,34.6c48.1-2.2,47.2-29.8,47.2-29.8
			C359.6,223.7,316.4,271.7,316.4,271.7L316.4,271.7z"/>
		<path id="path22" inkscape:connector-curvature="0" class="st2" d="M245.7,151.3c18.6-2,23.9-10.7,22.1-20.5
			c-4.1-24-19-39.4-19-39.4c32.2,23.2,39.7,48.8,48.9,52.1c10.1,3.7,9.5-10.5,9.5-10.5s16.7,32.7-19.2,39.4
			c-34.3,6.4-74.2-4-108.9-21.4c-19.6-9.8-38.9-24-41.3-26.7C156.4,135.6,199.2,156.5,245.7,151.3L245.7,151.3z"/>
		<path id="path24" inkscape:connector-curvature="0" class="st3" d="M196.9,497.8h-28.3v-7.4h10.2v-37h8.1v37h10.1V497.8z"/>
		<path id="path26" inkscape:connector-curvature="0" class="st3" d="M248.2,460.8h-3.4v29.6h3.5c4.9,0,9.6-2.8,9.6-14.8
			C257.9,463.6,253.1,460.8,248.2,460.8z M248.3,497.8h-13.9l2.6-4.5v-39.9h11.2c7.3,0,17.3,2.5,17.3,22.2S255.5,497.8,248.3,497.8z
			"/>
		<path id="path28" inkscape:connector-curvature="0" class="st3" d="M164.4,470.6c-0.3,1.4-0.8,2.5-1.5,3.4
			c-0.6,0.9-1.5,1.7-2.6,2.4c-1.1,0.7-2.5,1.6-4.2,2.4c-1.8,0.8-3.4,1.7-4.4,2.3c-1.1,0.6-1.9,1.1-2.5,1.7c-0.6,0.5-0.9,1-1.1,1.6
			c-0.2,0.5-0.2,1.1-0.2,1.8c0,1.4,0.4,3.1,1.2,3.7c0.8,0.6,2.2,1.1,4.3,1.1c4.7,0,8.2-0.9,9.3-1.3v7.6c-0.3,0.1-4.6,1.3-8.5,1.3
			c-4.7,0-8.3-0.8-10.5-3.1c-2.1-2.2-3-5.6-3-9.8c0-2.2,0.2-3.5,0.5-4.8c0.3-1.3,0.9-2.3,1.6-3.2c0.8-0.9,1.7-1.7,2.9-2.4
			c1.2-0.7,2.6-1.6,4.4-2.5c1.6-0.8,3-1.5,4-2.1c1-0.6,1.7-1.1,2.2-1.6c0.5-0.5,1.2-1.6,1.2-3.6c0-1.6-0.3-3.4-1.2-4.1
			c-0.9-0.7-2.7-1.1-5-1.1c-5,0-8.6,1.1-9.8,1.3v-7.6c0.3-0.1,4.2-1.2,9.5-1.2c4.6,0,8.3,0.9,10.5,3.1c2.2,2.3,3.3,5.7,3.3,9.9
			C164.9,467.9,164.7,469.2,164.4,470.6L164.4,470.6z"/>
		<path id="path30" inkscape:connector-curvature="0" class="st3" d="M209.7,470.2l4.4,18.1l4.4-18.1H209.7z M222.7,453.4h8.3
			l-12.7,44.4h-12.3l2.6-4.5l-11.4-39.9h8.3l2.4,9.7h12.4L222.7,453.4L222.7,453.4z"/>
		<path id="path32" inkscape:connector-curvature="0" class="st3" d="M280.7,471.9h10.1l2.2,7.7h-12.4v10.8h13.7v7.4h-24.2l2.6-4.5
			v-39.9h21.8v7.4h-13.9V471.9z"/>
		<path id="path34" inkscape:connector-curvature="0" class="st3" d="M198.8,373.3h11.1v62.2h-11.1v-25.8h-19.4v25.8h-11.1v-62.2
			h11.1v25.9h19.4V373.3z"/>
		<path id="path36" inkscape:connector-curvature="0" class="st3" d="M143.5,382.6c-6.5,0-9.1,5.7-8.6,21.9
			c0.6,16.2,3.6,21.9,10.1,21.9c4,0,8.3-1.2,12.2-4.4l3.1,9.6c-4.4,3.5-9.9,5.1-15,5.1c-10.6,0-20.3-5.2-21.2-32.2
			c-0.9-27,8.4-32.2,19-32.2c5.1,0,10.7,1.6,15.3,5.1l-2.5,9.6C152,383.7,147.5,382.6,143.5,382.6z"/>
		<path id="path38" inkscape:connector-curvature="0" class="st3" d="M313.5,397l6.1,25.3l6.1-25.3H313.5z M331.6,373.3h11.7
			l-17.8,62.2h-17.3l3.7-6.4l-16-55.9h11.7l3.3,13.6h17.4L331.6,373.3z"/>
		<path id="path40" inkscape:connector-curvature="0" class="st3" d="M232.4,399.3h14.2l3.1,10.8h-17.3v15.1h19.2v10.4h-33.9
			l3.7-6.4v-55.9H252v10.4h-19.5V399.3L232.4,399.3z"/>
		<path id="path42" inkscape:connector-curvature="0" class="st3" d="M292.7,383.7h-18v51.8h-14.8l3.7-6.4v-55.9h26.1L292.7,383.7z"
			/>
		<path id="path44" inkscape:connector-curvature="0" class="st3" d="M405.2,397.5c-0.6,1.9-1.6,3.5-2.6,4.8c-1,1.3-2.4,2.4-4,3.3
			c-1.6,0.9-3.7,2.3-6.2,3.3c-2.7,1.2-5,2.4-6.6,3.2c-1.6,0.8-2.8,1.6-3.7,2.3c-0.9,0.7-1.5,1.5-1.8,2.2c-0.3,0.7-0.5,1.6-0.6,2.6
			c-0.2,2,0,4.3,1,5.2c1,0.9,2.9,1.5,5.9,1.5c6.6,0,11.6-1.3,13.3-1.9l-1.9,10.7c-0.4,0.1-6,1.7-11.5,1.7c-6.5,0-11.5-1.2-14.1-4.3
			c-2.6-3.1-3.2-7.8-2.5-13.7c0.4-3,0.8-4.9,1.5-6.7c0.7-1.8,1.6-3.2,2.8-4.5c1.2-1.3,2.7-2.4,4.4-3.3c1.7-0.9,4-2.3,6.5-3.5
			c2.4-1.1,4.5-2.1,5.9-2.9c1.4-0.8,2.5-1.6,3.4-2.3c0.8-0.7,1.9-2.2,2.3-5.1c0.3-2.3,0.1-4.8-1.1-5.7c-1.2-0.9-3.6-1.6-6.8-1.6
			c-7,0-12.3,1.5-13.9,1.8L376,374c0.5-0.1,6.1-1.6,13.5-1.6c6.4,0,11.5,1.2,14.2,4.4c2.7,3.2,3.7,8,3,13.8
			C406.3,393.7,405.8,395.5,405.2,397.5L405.2,397.5z"/>
		<path id="path46" inkscape:connector-curvature="0" class="st3" d="M44.7,403.8l2.4,21.4h6.6c3.5,0,5.7-2.5,4.8-11
			s-3.7-10.4-7.2-10.4C51.3,403.8,44.7,403.8,44.7,403.8z M56.9,373.3h11.8l-8.7,23.2c4.3,2.1,8.1,7.3,9.3,18.1
			c2.1,18.6-7.3,21-14.1,21H33.5l2.9-6.4l-6.3-55.9h11.1l2.3,20.8h6.5C50.1,394.1,56.9,373.3,56.9,373.3z"/>
		<path id="path48" inkscape:connector-curvature="0" class="st3" d="M95.3,381.9c-6.5,0-9.3,6.4-8.5,22.6
			c0.7,16.2,4.1,22.5,10.6,22.5c6.5,0,9.3-6.4,8.5-22.5C105.1,388.3,101.8,381.9,95.3,381.9z M97.8,436.7
			c-10.6,0-20.4-5.2-21.6-32.2c-1.2-27,8-32.2,18.6-32.2c10.6,0,20.4,5.2,21.6,32.2C117.7,431.4,108.4,436.7,97.8,436.7z"/>
		<path id="path50" inkscape:connector-curvature="0" class="st3" d="M358,435.6l4.9-62.2h-11.1l-4.4,55.9l-4.2,6.4H358z"/>
		<path id="path52" inkscape:connector-curvature="0" class="st2" d="M395.3,355.6c0.4-7.5,0.6-15.1,0.6-22.6
			c0-77.1-26.6-219.3-178.1-289C66.3,113.7,39.7,255.9,39.7,333c0,7.5,0.2,15.1,0.6,22.6H28.6C28.2,348,28,340.5,28,333
			c0-30.6,4.8-90.9,33.4-152.3C112.8,69.8,217.8,31,217.8,31s105,38.7,156.4,149.6c28.5,61.5,33.4,121.7,33.4,152.3
			c0,7.5-0.2,15.1-0.6,22.6H395.3z"/>
		<path id="path54" inkscape:connector-curvature="0" class="st2" d="M52.8,453.4c5.2,26.8,10,44.5,10,44.5
			c61.5,21.2,138.8,22.1,154.9,22.1c16.1,0,93.4-0.9,154.9-22.1c0,0,4.8-17.8,10-44.5h11.9c-6.2,32.1-12.3,53.7-12.3,53.7
			s-61.9,24.8-164.6,24.8C115.2,531.8,53.2,507,53.2,507s-6.1-21.6-12.3-53.7L52.8,453.4L52.8,453.4z"/>
	</g>
</g>
</svg>
