<?xml version="1.0" encoding="utf-8"?>
<!-- Generator: Adobe Illustrator 26.0.2, SVG Export Plug-In . SVG Version: 6.00 Build 0)  -->
<svg version="1.1" id="Calque_1" xmlns="http://www.w3.org/2000/svg" xmlns:xlink="http://www.w3.org/1999/xlink" x="0px" y="0px"
	 width="908.9px" height="1083.1px" viewBox="0 0 908.9 1083.1" style="enable-background:new 0 0 908.9 1083.1;"
	 xml:space="preserve">
<style type="text/css">
	.st0{fill-rule:evenodd;clip-rule:evenodd;fill:#A01D20;}
	.st1{fill-rule:evenodd;clip-rule:evenodd;fill:#043427;}
	.st2{fill:#FFFFFF;}
	.st3{fill-rule:evenodd;clip-rule:evenodd;fill:#FFFFFF;}
</style>
<g>
	<path class="st0" d="M454.4,0.1c0,0,203.5-7,424.5,113c0,0,198,659.5-424.5,970c-622.5-310.5-424.5-970-424.5-970
		C250.9-6.9,454.4,0.1,454.4,0.1"/>
</g>
<g>
	<path class="st1" d="M454.4,0.1c0,0,99.7-3.4,235.4,35.7c42,91.1-6.9,242.7-142.9,417.6c-59.8,68.1-107.1,132-141.8,191.6
		c-13.7,23.5,6.9,195.8,168.6,233.7c-13.3,30-162.7-10.3-232.9-79c-25.9,116.4,12,210.9,113.7,283.4C-168,772.6,30,113.1,30,113.1
		C250.9-6.9,454.4,0.1,454.4,0.1"/>
</g>
<path class="st2" d="M284.5,282.4c-16.6,0-27.9,2-27.9,2c31.3,11.7,45,39.3,45,39.3c26.3,40.3,62.3,43,62.3,43
	c-39.3-1.3-61-21-61-21C177.6,408,164.2,512,164.2,512c-15.7,72.7,18.7,145,18.7,145l1.7-1c-5.7-43.3,2.7-69.3,2.7-69.3
	c5.3,24,16.7,37.7,16.7,37.7c-8-36.7-7.7-66.3-7.7-66.3c1.7-141.7,117.3-180.7,117.3-180.7c-49,43-61,117-61,117
	c-15.7,112.3,24,195.3,24,195.3c-1.7-28,2.3-45,2.3-45c26.3,98,133.2,165.1,133.2,165.1c1.2,0,1.8-1.1,1.8-1.1
	C352.2,718,356.6,637,356.6,637c4.7-146.3,115-149.3,115-149.3c23-0.3,36.3,4.7,36.3,4.7c-119,26.7-117.3,180-117.3,180
	c4.7,187,172.7,205,172.7,205c-90.3,13.3-176.7-56.7-176.7-56.7c-29.7-19-84-63-84-63c-67.3-53-102.7-68-102.7-68
	c-32-16.7-72-11.3-72-11.3c53,8.3,109,54.3,109,54.3l121.7,95.7c102.7,78.7,182,73.3,182,73.3c62,1.3,61.3-25.7,61.3-25.7
	c0.3-15.3-14.3-16-14.3-16c2-26-3-56.3-3-56.3l-28.3,30L555,788c-13.7,17.7-30.7,23-30.7,23c2.3-6.3,1.7-37.7,1.7-37.7
	c-9.7,9.7-29,13-29,13c14,33.7,55.3,65,55.3,65C450.6,786.6,457.6,685,457.6,685c3.3-97.7,64-95,64-95c33.3,0.7,50,29.3,50,29.3
	l15,21.3c37.5,55.8,69.2,68.2,72.1,69.3c-37.2-13.1-67.4-46.9-67.4-46.9c-3,19-14.3,34.7-14.3,34.7c13.7-2.7,29.3-10,29.3-10
	c2.7,16-13,46.7-13,46.7c38.3-9,49.3-22.7,49.3-22.7c-1.7,8.3-20,47-20,47c50-6,66.3-36.7,66.3-36.7c26.3,4.3,37-8.7,37-8.7
	c28-21.7-12.3-82.3-12.3-82.3c-2.7-6.3,1-11,1-11l3-1.7c7-2.7,10,4,10,4c22.3,33,38.7,17,38.7,17c16.3-18.7-33-57.7-33-57.7
	l-48.7-38.7c-24.7-19-27.7-33.3-27.7-33.3c-74.7-170.7-259.7-177.7-259.7-177.7C367.1,289.7,316.1,282.4,284.5,282.4L284.5,282.4
	 M658.7,710c0.1,0,0.1,0.1,0.2,0.1C658.9,710.1,658.9,710.1,658.7,710"/>
<path class="st1" d="M757.2,637.8c0,0,7.8,43.2-24.2,55L706.8,622l16.2-9.5"/>
<path class="st1" d="M512.2,402.3c0,0-28.7-15.9-80.1-17.3c0,0-137.9-3.2-144.3,169.4c0,0-4.6,87,56,167.5c0,0-41.9-105.6,4.1-222.2
	C347.9,499.7,384.8,391.8,512.2,402.3"/>
<path class="st1" d="M454.4,444.6c0,0,68.7-31.9,127.9,15.5c0,0,25.5,20.5,50.1,61.5c0,0,7.3,10,10.5,13.2c0,0-15.9,8.6-36.4-5.5
	c0,0-0.9,9.6-12.3,16.4c0,0-0.5,10.5,2.3,18.2c0,0-13.2,1.8-27.3-18.2c0,0-16.8-20-28.2-19.6v-3.6c0,0,9.1-0.9,14.1-4.6
	c0,0,19.6-10.5,29.6-8.2l4.6,21.4c0,0,5.1-0.7,7.4-4.4l0.3-4c0,0-24.7-33.3-55.7-53.3C541.3,469.4,506.4,447.3,454.4,444.6"/>
<path class="st1" d="M607.9,588.1c0,0,22.5,1,56.5,54.2c0,0,27,41.8,59,51.5c0,0-29,8.2-68.2-39.8c0,0-19.5-23-32.5-45.8
	C622.7,608.3,611.4,590.1,607.9,588.1"/>
<path class="st1" d="M579.7,596.3c0,0,16.5,2.2,50,43c0,0,45.8,60.8,83,62c0,0-22.5,8.8-51.5-12.2c0,0-23.5-15.2-51-50.8
	C610.2,638.3,586.2,605.8,579.7,596.3"/>
<path class="st1" d="M456.9,790.7c0,0-43-24.3-44-132.7c0,0-2.7-92,85.7-115.3c0,0-57.3,48.3-61,131
	C437.6,673.7,431.3,735.7,456.9,790.7"/>
<path class="st3" d="M54.8,171.9l11.9-4.7l12.6,34.4l18.2-6.7l2.9,7.7L70,213.4"/>
<path class="st3" d="M100.4,155.9l32.2-10.4l-0.5,9l-17.1,5.6l2.7,9l17.6-5.4l2.2,7.7l-17.1,5.6l3.2,10.1l19.6-6.5l2.3,7.6
	l-31.9,10.6"/>
<path class="st3" d="M150,141l11.9-3.4l12.1,43.3l-12.4,3.6L150,141z"/>
<path class="st3" d="M184.4,155.4c0,0-6.1-29.7,41.8-30.8l1.3,8.3c0,0-32.8-3.4-29.9,19.4c0,0,6.8,21.6,34.2,3.8l4.9,6.1
	c0,0-17.3,13.8-35.6,9C201,171.2,186.9,168.5,184.4,155.4"/>
<path class="st3" d="M244.9,119l33.1-5.4l-1.8,8.6l-18,2.7l1.4,9.2l18.4-2.9l1.3,8.1l-17.8,3.2l1.6,10.3l21.1-3.4l1.1,8.3l-33.3,5.8
	"/>
<path class="st3" d="M330,108.8v8.5c0,0-17.3-4.9-20.3,2.5c0,0-0.7,4.5,9,5.8c0,0,20,2.7,18.2,14.6c0,0,0,10.8-18.4,13.5
	c0,0-8.6,2-20-2l3.8-7.4c0,0,18.4,6.1,21.8-2.7c0,0,2.2-3.6-11.9-6.7c0,0-15.7-1.8-15.5-13.3C296.7,121.5,298.2,104.1,330,108.8"/>
<path class="st3" d="M346.9,112.9l-0.2-8.1l46.6-3.2l-2.3,8.3l-14.8,0.9l2.5,36.7l-12.8,0.7l-2.2-36.5"/>
<path class="st3" d="M409.2,100.6l33.5-0.5l-3,8.3l-18.2,0.1l0.1,9.3l18.6-0.2l0.1,8.2l-18.1,0.6l0.1,10.4l21.3-0.3l-0.1,8.3
	l-33.8,0.9"/>
<path class="st3" d="M473.5,108.6l-0.4,12.1h8.3c5.6-1.8,5-5.6,5-5.6c-0.2-5.8-6.5-6.5-6.5-6.5H473.5z M459.8,145.1l1.3-44.6
	l18.7,0.2c0,0,18.4-0.4,19.1,13.1c0,0,0.4,8.8-10.6,11.3c0,0,8.6,8.8,16.6,20.7h-14c0,0-12.6-18.2-13.5-18.2h-5l0.2,17.6"/>
<path class="st3" d="M546.4,112.6l1.1-8l46.5,4.3l-3.6,7.8l-14.7-1.5l-3.4,36.6l-12.7-1.4l3.8-36.4"/>
<path class="st3" d="M609.2,111.2l12.2,1.8l-6.1,43.8l-12.6-1.8L609.2,111.2z"/>
<path class="st3" d="M688.2,126.9l-1.9,8.6c0,0-33.3-18.5-38.2,5.8c0,0-1.2,18.7,24.5,17.5l2.6-14.4l12,2.2l-3.7,19.7
	c0,0-47.7,6.2-48.5-24.3C635,142,636.8,106.6,688.2,126.9"/>
<path class="st3" d="M710.6,130.5l32.7,7.5l-4.9,7.3l-17.7-4.3l-2.1,9l18.1,4.3l-1.9,8l-17.7-3.7l-2.4,10.1l20.8,4.8l-2.1,8.1
	l-33-7.2"/>
<path class="st3" d="M771.5,154.5l-3.7,11.5l8,2.3c5.9-0.2,6.4-4,6.4-4c1.4-5.6-4.4-8-4.4-8L771.5,154.5z M748.2,185.7l13.6-42.5
	l17.9,5.4c0,0,17.7,4.8,14.7,17.9c0,0-2.1,8.6-13.4,7.9c0,0,5.8,10.9,10.1,24.5l-13.5-3.9c0,0-7-21-7.9-21.2l-4.8-1.4l-4.7,17"/>
<path class="st3" d="M849.8,174.1l-3.6,7.7c0,0-13.6-11.7-19.5-6.3c0,0-2.6,3.8,5.7,9c0,0,17,10.9,10.3,20.9c0,0-4.6,9.8-22.3,4.5
	c0,0-8.7-1.9-17.3-10.2l6.5-5.1c0,0,14.1,13.3,20.9,6.7c0,0,3.5-2.3-8-11c0,0-13.4-8.2-8.4-18.6
	C814.2,171.6,822.8,156.4,849.8,174.1"/>
<path class="st3" d="M408.8,1016.8v-19.5l-5.9,3v-4.2l7.5-3.7h3.6v24.4"/>
<path class="st3" d="M431.1,999.1c-1.3-0.8-2.4-1.9-3.2-3.2s-1.2-2.7-1.2-4c0-2.5,1-4.5,2.9-6s4.4-2.2,7.5-2.2
	c3.3,0,5.8,0.8,7.6,2.2c1.8,1.5,2.7,3.5,2.7,6c0,1.3-0.5,2.7-1.5,4.2s-2.1,2.5-3.4,3.1c1.5,0.7,3,1.8,4.3,3.6c1.3,1.7,2,3.3,2,4.8
	c0,3.1-1.1,5.5-3.2,7.3c-2.1,1.7-5,2.6-8.7,2.6s-6.5-0.8-8.5-2.5s-3-4.1-3-7.3c0-1.6,0.5-3.3,1.6-4.8
	C428.1,1001.3,429.5,1000,431.1,999.1 M437.8,998.1c1.2-0.5,2.3-1.4,3.2-2.8c0.9-1.4,1.4-2.6,1.4-3.7c0-1.3-0.5-2.3-1.5-3
	c-1-0.8-2.2-1.1-3.9-1.1c-3.6,0-5.3,1.4-5.3,4.2c0,1.2,0.7,2.5,2,3.8C435,996.7,436.4,997.6,437.8,998.1 M436.3,1001
	c-3.6,1.7-5.4,4-5.4,6.7c0,1.5,0.6,2.8,1.7,3.8s2.6,1.5,4.4,1.5c1.9,0,3.4-0.4,4.6-1.3c1.2-0.9,1.8-2.1,1.8-3.5
	C443.4,1005.8,441,1003.4,436.3,1001"/>
<path class="st3" d="M486.1,1003.9c0-3.3,1-6.1,2.9-8.4c2-2.3,4.6-3.4,7.8-3.4c6.8,0,10.2,4.1,10.2,12.4c0,3.9-0.9,6.9-2.8,9.2
	c-1.8,2.3-4.4,3.5-7.7,3.5c-3.6,0-6.2-1.1-7.9-3.2S486.1,1008.4,486.1,1003.9 M490.6,1004.2c0,2.9,0.4,5.1,1.3,6.5s2.4,2.1,4.4,2.1
	c2.2,0,3.8-0.6,4.7-1.9c0.9-1.2,1.4-3.5,1.4-6.7c0-3-0.4-5-1.4-6.2c-0.9-1.1-2.4-1.7-4.4-1.7C492.7,996.4,490.6,999,490.6,1004.2"/>
<path class="st3" d="M460.9,999.1c-1.3-0.8-2.4-1.9-3.2-3.2c-0.8-1.3-1.2-2.7-1.2-4c0-2.5,1-4.5,2.9-6s4.4-2.2,7.5-2.2
	c3.3,0,5.8,0.8,7.6,2.2c1.8,1.5,2.8,3.5,2.8,6c0,1.3-0.5,2.7-1.5,4.2s-2.1,2.5-3.4,3.1c1.5,0.7,3,1.8,4.3,3.6c1.3,1.7,2,3.3,2,4.8
	c0,3.1-1.1,5.5-3.2,7.3c-2.1,1.7-5,2.6-8.7,2.6s-6.5-0.8-8.5-2.5s-3-4.1-3-7.3c0-1.6,0.5-3.3,1.6-4.8
	C457.8,1001.3,459.2,1000,460.9,999.1 M467.6,998.1c1.2-0.5,2.3-1.4,3.2-2.8c0.9-1.4,1.4-2.6,1.4-3.7c0-1.3-0.5-2.3-1.5-3
	c-1-0.8-2.2-1.1-3.9-1.1c-3.6,0-5.3,1.4-5.3,4.2c0,1.2,0.7,2.5,2,3.8C464.8,996.7,466.2,997.6,467.6,998.1 M466,1001
	c-3.6,1.7-5.4,4-5.4,6.7c0,1.5,0.6,2.8,1.7,3.8s2.6,1.5,4.4,1.5c1.9,0,3.4-0.4,4.6-1.3c1.2-0.9,1.8-2.1,1.8-3.5
	C473.2,1005.8,470.8,1003.4,466,1001"/>
</svg>
