<?xml version="1.0" encoding="utf-8"?>
<!-- Generator: Adobe Illustrator 26.0.2, SVG Export Plug-In . SVG Version: 6.00 Build 0)  -->
<svg version="1.1"
	 id="svg4657" xmlns:cc="http://creativecommons.org/ns#" xmlns:dc="http://purl.org/dc/elements/1.1/" xmlns:inkscape="http://www.inkscape.org/namespaces/inkscape" xmlns:rdf="http://www.w3.org/1999/02/22-rdf-syntax-ns#" xmlns:sodipodi="http://sodipodi.sourceforge.net/DTD/sodipodi-0.dtd" xmlns:svg="http://www.w3.org/2000/svg"
	 xmlns="http://www.w3.org/2000/svg" xmlns:xlink="http://www.w3.org/1999/xlink" x="0px" y="0px" width="1002px" height="901.2px"
	 viewBox="0 0 1002 901.2" style="enable-background:new 0 0 1002 901.2;" xml:space="preserve">
<style type="text/css">
	.st0{fill:#005DAA;}
</style>
<sodipodi:namedview  bordercolor="#666666" borderopacity="1" fit-margin-bottom="1" fit-margin-left="1" fit-margin-right="1" fit-margin-top="1" gridtolerance="10" guidetolerance="10" id="namedview4659" inkscape:current-layer="svg4657" inkscape:cx="501" inkscape:cy="450.58396" inkscape:pageopacity="0" inkscape:pageshadow="2" inkscape:window-height="705" inkscape:window-maximized="1" inkscape:window-width="1366" inkscape:window-x="-8" inkscape:window-y="-8" inkscape:zoom="0.236" objecttolerance="10" pagecolor="#ffffff" showgrid="false">
	</sodipodi:namedview>
<path id="path4623" inkscape:connector-curvature="0" class="st0" d="M459.4,874.7l-5.3,24h-22.3l16.5-74.2h22.9
	c7.2,0,11.8,0.5,15.6,1.7c10.5,3.2,15.4,10.4,15.4,18.8c0,12.4-7.3,19.9-18.3,23.4v0.3c1.8,2.1,6.9,12.7,14.7,30.1h-24.1
	c-7.9-19.2-9.8-24-11.5-24H459.4z M473.3,841.5h-6.4l-3.7,16h6c6.9,0,11.9-3.5,11.9-9.3C481.1,845.4,479.4,841.5,473.3,841.5z"/>
<path id="path4625" inkscape:connector-curvature="0" class="st0" d="M582.9,868.7c-2.3,9.8-5.5,16.6-10.7,21.5
	c-8.2,7.6-19.8,9.9-33.3,9.9c-10.2,0-18.3-2.9-23.4-8.1c-4.1-4.1-6.1-9.5-6.1-15.9c0-2.7,0.3-5.6,1.1-8.7l9.6-43.1h22.6l-9.8,43.1
	c-0.3,1.2-0.5,2.4-0.5,3.5c0,3.1,0.9,5.3,2.1,7c1.8,2.6,5.2,3.7,9,3.7c4.6,0,8.2-1.2,11-3.5c2.8-2.4,5-6,6.1-10.7l9.6-43.1H593
	L582.9,868.7z"/>
<path id="path4627" inkscape:connector-curvature="0" class="st0" d="M660.4,895c-9.9,3.7-20.6,5.2-30.2,5.2
	c-24,0-35.9-15-35.9-34.5c0-26.4,20.2-42.5,47.8-42.5c9.8,0,18.3,2,26,4.7l-4.1,17.4c-7.2-3.5-14.2-5.2-20.9-5.2
	c-18.3,0-25,12.5-25,23.8c0,11,5.3,18.6,17.3,18.6c1.7,0,3.8-0.2,6-0.6l5.2-23.2h22.3L660.4,895z"/>
<path id="path4629" inkscape:connector-curvature="0" class="st0" d="M731.4,859.1v0.3c6,2.3,9.5,6.7,9.5,12.8
	c0,13.9-13.3,26.4-35.6,26.4h-32.8l16.5-74.2h29c15.7,0,24.3,6.6,24.3,17.2C742.2,849.3,738.7,855.6,731.4,859.1z M710,868.1h-8.4
	l-3.2,14.4h8.1c7.9,0,11.5-4.6,11.5-8.5C717.9,870.7,715.9,868.1,710,868.1L710,868.1z M713.5,840.6h-5.6l-3.2,13.7h5.8
	c5.6,0,9.2-4.4,9.2-8.4C719.6,842.6,717.2,840.6,713.5,840.6L713.5,840.6z"/>
<path id="path4631" inkscape:connector-curvature="0" class="st0" d="M786.6,871.5l-6.1,27.2h-23.7l6.3-27.9l-17.4-46.3h22.4
	l5.3,15.6c1.5,4.4,2.8,8.7,4.1,13.9h0.3c3.5-6.3,6.4-10.8,8.4-13.7l10.4-15.7h23.5L786.6,871.5z"/>
<polygon id="polygon4633" class="st0" points="290.7,771.5 297,619.2 255.1,619.2 248.8,771.5 "/>
<path id="path4635" inkscape:connector-curvature="0" class="st0" d="M531.7,641.6c16.9,0,34.1,9.3,39.7,12.4l5.4,3l6.2-36l-5.9-0.7
	c-8.1-1-23.1-2.8-46.9-2.8c-38,0-63.3,17.6-64.4,44.8c-1.3,32.2,23.8,42.3,37.3,47.8l10.2,4c14.9,5.7,27.8,10.6,27.5,18.2
	c-0.6,13.9-16.9,16.9-23.1,16.9c-22.8,0-36.6-10.5-43.2-15.5l-7.7-5.8l-0.9,7.5l-4,32.5l8.9,1.6c11,2,26.2,4.6,44.3,4.6
	c31,0,67.8-12.2,69.2-46.7c1.4-34-25.2-43.9-38.1-48.6l-9.4-3.1c-16.1-5-28.4-9.6-28.1-18.5C509.6,643.6,523.5,641.6,531.7,641.6
	L531.7,641.6z"/>
<path id="path4637" inkscape:connector-curvature="0" class="st0" d="M729.1,619.2H592.5l-3,27.3c0,0,39.6-2.1,47.9-2.5
	c-0.4,9.6-5.3,127.5-5.3,127.5h42.3c0,0,5-119.5,5.3-127.6c7.2,0.4,48.3,2.5,48.3,2.5L729.1,619.2z"/>
<path id="path4639" inkscape:connector-curvature="0" class="st0" d="M47.4,747.8c0.4-9.8,5.3-128.5,5.3-128.5l-51.7,0l8.8,25.6
	L4.5,771.5h104.1l1.2-28.5C109.8,743,56.3,747.1,47.4,747.8z"/>
<path id="path4641" inkscape:connector-curvature="0" class="st0" d="M420.1,619.2c0,0,0.8,90.5,0.9,99.9
	c-14.8-24.1-61.5-99.9-61.5-99.9l-49.5,0l8.9,25.8l-5.2,126.5H345c0,0,0.9-81.3,1-91.8c14.4,22.9,57.8,91.8,57.8,91.8h42l6.3-152.3
	L420.1,619.2z"/>
<path id="path4643" inkscape:connector-curvature="0" class="st0" d="M236.5,645.2l1.1-26l-120.7,0l8.8,25.8l-5.2,126.5h113.1
	l1.2-28.5c0,0-62.4,4.2-71.4,4.8c0.3-7.8,1.5-37,1.8-43.2c6.9,0,47.4,0,47.4,0l1-23.3c0,0-39.5,0-47.4,0c0.3-7.1,1.3-32.3,1.6-38.6
	C175.1,643,236.5,645.2,236.5,645.2L236.5,645.2z"/>
<path id="path4645" inkscape:connector-curvature="0" class="st0" d="M854.2,645.2l1.1-26l-120.7,0l8.8,25.6l-5.3,126.7h113.1
	l1.2-28.5c0,0-62.4,4.2-71.4,4.8c0.3-7.8,1.5-37,1.8-43.2c6.9,0,47.4,0,47.4,0l1-23.3c0,0-39.5,0-47.4,0c0.3-7.1,1.3-32.3,1.6-38.6
	C792.9,643,854.2,645.2,854.2,645.2L854.2,645.2z"/>
<path id="path4647" inkscape:connector-curvature="0" class="st0" d="M990.7,748.2c-2.9,0-9.3-13-12.3-19.3
	c-2.8-5.8-5.8-11.8-9-16.7c-4.2-6.5-10.1-12.7-16.5-17.4c1.8-0.6,4.3-1.4,4.3-1.4c13.6-4.2,29.7-16.4,30.6-36.9
	c0.1-1.2,0.1-2.4,0-3.6c-0.4-7.5-3.1-13.9-8-19.1c-9.4-9.8-26.4-14.5-51.8-14.5l-67,0l8.7,25.5l-5.3,126.8h41.9
	c0,0,2.4-57.9,2.7-66.2c3.3,0.7,7.5,1.9,10.2,4c5.5,4.3,9.2,13.6,13.1,23.4c7,17.3,15.6,38.8,39.2,38.8h28.5l1-23.3L990.7,748.2z
	 M919.8,681.3c0,0-5.4,0-9.8,0c0.3-7.2,1.4-32.7,1.6-38.7c4.8,0,13.3,0,13.3,0c7.3,0,14,2.5,18,6.6c2.4,2.5,3.7,5.5,3.9,8.9
	c0,0.5,0,1,0,1.5C946.2,674.5,932.4,681.3,919.8,681.3L919.8,681.3z"/>
<path id="path4649" inkscape:connector-curvature="0" class="st0" d="M508.1,202.8c96.2-4.4,162,10.4,176,39.6
	c10.1,31.6-12.5,80.4-69.1,149.1c-44.4,53.9-104.5,114.3-173,181.4h172.7c54.7-68.6,99.5-132,130.6-192
	c39.3-75.6,59.4-143.5,44.9-173.9c-44.3-79.4-272-89.3-510.4,16.1c-14.3,6.3-83.1,35.5-106.5,47.4l0.4,0.8
	C285,232.3,406.9,207.4,508.1,202.8L508.1,202.8z"/>
<path id="path4651" inkscape:connector-curvature="0" class="st0" d="M667.8,250.8c-10.3-17.7-64.5-34.8-159-30.5
	C403.2,225,312.8,240,206.6,270.3l0.2,0.5c89.3-18.2,139.6-27,200.8-31.9c9.3,22.7,94.8,230.9,100.1,243.7c2.7-2.8,5.5-5.6,8.1-8.3
	c-12.9-31.3-83.7-203.9-97-236.3c15.7-1.1,32.2-2,50.4-2.7c9.3,22.7,76.6,187.7,82.2,201.6c2.7-2.9,5.4-5.8,8-8.7
	c-11.9-29.1-66.4-162.9-78.9-193.3c2.1-0.1,4.2-0.1,6.4-0.2c13-0.4,28,0.1,43.2,1.1c11.9,27.5,60.4,140,65.4,151.5
	c1.9-2.3,3.9-4.6,5.8-6.9c0.6-0.8,1.3-1.5,1.9-2.3l-61-141.3c15.9,1.3,31.5,3.2,45.1,5.1c11.9,26.9,39.4,89,44,99.4
	c2.5-3.6,4.9-7,7.1-10.4c-7.8-17.6-27.4-61.8-38.6-87.1c4.6,0.7,8.7,1.5,12.4,2.2c12.3,2.4,42.4,9.6,55.4,25.4l0.4,0.5l0.1-0.4
	C670.5,261.9,668.5,253.2,667.8,250.8L667.8,250.8z"/>
<path id="path4653" inkscape:connector-curvature="0" class="st0" d="M878.6,70.7c-38-27-84.2-46.5-137.5-58.1
	C631.5-11,504.4,1.6,383.1,48.4C232.8,106.3,112.7,209.7,61.7,325.1C30.5,395.7,27.5,465.5,53.1,527c11.1,26.8,27.4,51.3,48.3,72.9
	l0.7-0.5c-13.1-18.2-23.4-38-30.6-58.8c-14.6-42-16.6-86.7-5.8-133.1c10.3-44.8,32-89.1,64.4-131.7
	C196.7,188,301.3,117.1,424.6,76.1c54.6-18.2,110.2-29.6,165.4-33.9c53.3-4.2,104.8-1.7,153.1,7.4c97,18.3,175.1,62.6,220,124.9
	l0.8-0.4C946.6,133.4,917.9,98.7,878.6,70.7z"/>
<path id="path4655" inkscape:connector-curvature="0" class="st0" d="M959.8,225.4c-7.8-56.6-68-101.3-121.7-124.3l-0.5,0.7
	c43.4,33,66.4,60.2,76.6,90.7c19.7,58.9,4.7,127.3-43.5,198C826,456.1,754,520.7,667.8,572.5l-0.6,0.4h107.5
	c67.4-47.5,120.1-108.4,152.5-176C955.4,338.2,966.9,277.3,959.8,225.4L959.8,225.4z"/>
</svg>
