<?xml version="1.0" encoding="utf-8"?>
<!-- Generator: Adobe Illustrator 26.0.2, SVG Export Plug-In . SVG Version: 6.00 Build 0)  -->
<svg version="1.1" id="Calque_1" xmlns="http://www.w3.org/2000/svg" xmlns:xlink="http://www.w3.org/1999/xlink" x="0px" y="0px"
	 width="205.8px" height="305.8px" viewBox="0 0 205.8 305.8" style="enable-background:new 0 0 205.8 305.8;" xml:space="preserve"
	>
<style type="text/css">
	.st0{fill:#1A5D35;}
	.st1{fill:#FFFFFF;}
	.st2{fill:#181515;}
	.st3{fill:#CE0011;}
</style>
<g id="Group_2" transform="translate(-317.215 -145)">
	<path id="Path_1" class="st0" d="M503.9,167.7c0,0-23.4-20.9-83.6-20.9c-58.4,0-88.8,21.2-88.8,21.2s-30.2,79,2.9,147.2
		c13.9,28.7,41.8,62.6,85.4,79.1c42.7-18.3,71.3-52.3,85.8-79.5C541.7,247.1,503.9,167.7,503.9,167.7z"/>
	<path id="Path_2" d="M419.9,396.3l-0.7-0.3c-52.6-19.9-77.9-62.6-86.4-80c-9.5-19.7-19.7-53-14-100.2c3.4-28.2,11-48.3,11.1-48.5
		l0.2-0.5l0.5-0.3c1.3-0.9,31.5-21.5,89.8-21.5c60.1,0,83.8,20.4,84.8,21.3l0.3,0.2l0.2,0.3c6.8,15.6,11.7,31.9,14.5,48.7
		c4.6,26.1,6,64.7-12.8,100.2c-8.9,16.8-35.3,58.3-86.7,80.3L419.9,396.3z M333.1,169.2c-5.2,15.3-8.8,31.1-10.7,47.2
		c-3.1,25.5-3.2,63.3,13.7,98.1c8.2,17,32.8,58.4,83.7,78c49.9-21.6,75.5-62,84.2-78.4c18.4-34.6,16.9-72.3,12.4-97.9
		c-2.8-16.3-7.5-32.2-14.1-47.4c-1.3-1-7.2-5.5-18.7-10c-12-4.7-32.8-10.2-63.4-10.2c-29.8,0-52.1,5.7-65.5,10.4
		C342.3,163.5,334.9,168,333.1,169.2z"/>
	<path id="Path_3" class="st1" d="M420.2,374.9c36.7-15.4,58.3-43.5,70.8-66.5c29.5-54.4-1.5-130.9-1.5-130.9s-24.7-14.1-69.6-14.1
		s-74.5,14.1-74.5,14.1s-25.3,74,3.2,131.7C360.6,333.5,382.7,361,420.2,374.9"/>
	<path id="Path_4" class="st2" d="M368.7,272.5V268l3.9,0.6v4.5L368.7,272.5z"/>
	<path id="Path_5" d="M382.4,268.3l-0.8-1.3c-0.2-0.3-0.2-0.4-0.6-0.2c-2.1,0.7-4.3,1-6.6,1c-0.1-7.4-0.7-78.4-0.7-80.4
		c0-0.2-2-5.3-2.6-5.4c-0.6-0.1-2.8,4.6-2.8,4.6l-1.4,80c-2.3-0.7-4.5-1.7-6.6-3.1c-0.4-0.3-0.4-0.3-0.6,0l-0.8,1
		c-0.2,0.3-0.4,0.4,0.1,0.8c2,2,6.3,3.7,10.2,4.5c-1.1,1.2-1.9,4-1.9,7.4c-0.1,2.5,0.4,5,1.4,7.3c-0.9,0.3-1.5,1.2-1.5,2.1
		c0.2,1.8,1.6,3.2,3.3,3.4c1.9,0.3,3.4-0.8,3.4-2.3c-0.1-1.1-0.7-2.2-1.7-2.7c1-2.1,1.5-4.4,1.4-6.8c0-3.4-0.7-6.5-1.8-8
		c3.9,0.4,8.4,0.1,10.4-1.3C382.7,268.8,382.6,268.7,382.4,268.3z"/>
	<path id="Path_6" class="st0" d="M456.1,262.7c-0.9,1.2-2.1,2.3-3.4,3.2c0.4-1.4,0.9-2.7,1.6-4c2.8-5.5,8.2-15.3,5.8-27.1
		c-0.5-2.7-1.7-7.7-1.7-7.7C460.3,227.7,469.7,242.1,456.1,262.7"/>
	<path id="Path_7" class="st0" d="M455.7,220.5c-3-0.1-12.3-4.1-13.6-4.8c-1.3-0.7-9.7-6.3-13.7-0.8c-3.8,5.3-1.6,14.7,6.3,17.9
		c1.7,0.7,3.6,0.8,5.4,0.5c0,0-0.5,6.6,3.8,10.5c4.2,3.8,9.2,4.1,10.6-0.9c1.5-5-0.8-15.7,2-18.9c0.8-1,2.3-1.2,3.9,0.1
		c0,0,3.9,2.8,8.3,10.2c9.1,15.1,23.8,5.4,11.1-7.2c1.8-0.1,3.5-0.9,4.6-2.3c1.4-1.8,4-7.9-2.9-14.8c-5.6-5.5-9.8-1.6-11.6,0
		s-6.3,7.8-9,9.1c-2,1-1.3-2.1-0.4-4c16.7-34.4-9-41.1-13.8-27.7c-0.3,0.9-0.5,1.8-0.7,2.7c0,0-0.8-0.8-1.5-1.4
		c-2.5-2.1-6.7-3.7-10.7-0.9c-4.3,3.1-6.9,15,7.3,21.6c7.1,3.2,10.4,5.7,12.3,7.2C456.2,218.8,457.4,220.6,455.7,220.5"/>
	<path id="Path_8" class="st0" d="M439.7,339.4c-0.6,0.1-1.3,0.1-1.9,0c0.6-0.5,1.2-0.9,2-1.1c4.3-1,8.2-3.3,11.2-6.6
		c0.9-1,2.7-2.9,2.7-2.9C453.9,329.6,452.2,336.9,439.7,339.4"/>
	<path id="Path_9" class="st0" d="M455.5,326c-0.6-1.5-1.1-3-1.3-4.6c-0.1-0.5-0.1-4-2.6-3.7c-2.4,0.3-5.4,3.5-4.8,6.3
		c0.2,0.7,0.7,1.2,1.3,1.6c-1.3,0.5-2.2,1.6-2.5,2.9c-0.3,2,1.1,3.4,2.9,2.6s4.6-4,6.1-4c0.5,0,0.9,0.3,0.8,1
		c-0.2,1.6-0.6,3.1-1.4,4.6c-2.7,5.9,4.9,4.9,4.9,0.4c0.6,0.5,1.4,0.8,2.2,0.9c0.8-0.1,2.8-0.8,3.4-4.2c0.5-2.7-2.1-2.5-3-2.6
		s-3.6,0.2-4.6-0.1c-0.7-0.3,0.3-0.9,1.1-1.1c14.4-3.1,10.6-12.2,5.6-10.2c-0.4,0.2-1,0.5-1,0.5s0.1-0.4,0.1-0.7
		c0.3-1.3-0.6-2.6-1.9-2.9c-1.8-0.4-6.4,2.3-5.4,7.5c0.4,1.4,0.5,2.9,0.5,4.4C455.8,325.7,455.8,326.4,455.5,326"/>
	<path id="Path_10" class="st0" d="M453.7,304.4c0,0,7.9-16.2,18.5-23.8c1.4-1,2.2-0.8,2.2-0.8c-0.1,0.6-0.4,1.2-0.9,1.6
		c-12,9.7-17.3,23.1-19.6,27.4c-0.5,1.1-1.1,0.5-1.1,0.3c-0.5-3.6-1.4-10.4-6.6-15.7c-1-1-1.9-2.1-2.8-3.2
		C444.5,290,450.8,293.7,453.7,304.4"/>
	<path id="Path_11" class="st0" d="M441.6,286.3c-1.4,0.3-6.2-0.6-6.8-0.8c-0.7-0.2-5.4-2-6.3,1.2c-0.9,3.1,1.6,7.6,5.6,8.2
		c0.9,0.1,1.7,0,2.5-0.4c0,0,0.8,3.4,3.3,4.8s4.8,1,4.7-1.7c-0.1-2.7-2.8-7.8-2.1-9.8c0.2-0.6,0.9-0.9,1.8-0.4
		c2,1.1,3.8,2.5,5.3,4.1c6.4,6.5,11.6-0.1,3.9-5c0.8-0.3,1.5-0.9,1.7-1.7c0.3-1.1,0.6-4.5-3.6-7.1c-3.3-2.1-4.7,0.4-5.3,1.4
		c-0.5,1-1.6,4.7-2.6,5.7c-0.8,0.7-0.9-0.9-0.8-2c2.2-19.3-10.5-19.6-10.5-12.3c0,0.5,0,0.9,0.1,1.4c0,0-0.5-0.3-0.9-0.5
		c-1.5-0.8-3.6-1-5,0.8c-1.5,2.1-0.8,8.4,6.7,10c2.3,0.4,4.6,1.1,6.7,2.2C441.5,285.4,442.3,286.2,441.6,286.3"/>
	<path id="Path_12" class="st0" d="M477.6,276.4c1.5,0.6,7,0.5,7.8,0.4s6.4-1.2,6.8,2.6c0.4,3.6-3.2,8.1-7.9,8.1
		c-1,0-1.9-0.3-2.7-0.9c0,0-1.5,3.6-4.6,4.7c-3,1.1-5.5,0.2-4.9-2.8s4.6-8.2,4.1-10.5c-0.2-0.7-0.8-1.2-1.9-0.8
		c-2.4,0.8-4.7,2-6.7,3.6c-8.4,6.1-12.9-2.4-3.4-6.3c-0.9-0.5-1.4-1.3-1.6-2.3c-0.2-1.3,0.2-5.1,5.4-7.2c4.1-1.7,5.1,1.3,5.6,2.6
		s0.9,5.5,1.9,6.9c0.7,1,1.2-0.8,1.3-2c1.3-22,15.4-19.9,14.1-11.7c-0.1,0.5-0.2,1.1-0.4,1.6c0,0,0.6-0.3,1.1-0.4
		c1.8-0.6,4.2-0.5,5.3,1.9c1.3,2.6-0.7,9.5-9.3,9.9c-2.7,0-5.3,0.4-7.9,1.1C477.8,275.4,476.7,276.1,477.6,276.4"/>
	<path id="Path_13" class="st3" d="M430.5,344.1l-0.1-26.8c-5.9-0.9-11.6-1.9-17.1-3V168.2c-9.3,0.3-18.8,1.2-18.8,1.2l0.1,140.5
		c-28.6-7.7-46.2-16.9-46.2-16.9c0.8,4,9.2,21.5,9.2,21.5c-1.2-0.8,14,12.4,37,21.4v20.2c10.5,7.2,18.7,9.8,18.7,9.8v-24.2
		C419,343,424.7,343.8,430.5,344.1"/>
	<g id="Group_1">
		<path id="Path_14" d="M326.5,418.7h5v27.2h8.2v4.5h-13.2V418.7z"/>
		<path id="Path_15" d="M341.5,426.3c0-5.1,2.7-8,7.6-8s7.6,2.9,7.6,8v16.5c0,5.1-2.7,8-7.6,8s-7.6-2.9-7.6-8V426.3z M346.5,443.2
			c0,2.3,1,3.1,2.6,3.1s2.6-0.9,2.6-3.1V426c0-2.3-1-3.1-2.6-3.1s-2.6,0.9-2.6,3.1V443.2z"/>
		<path id="Path_16" d="M364.3,427.5v23h-4.5v-31.8h6.3l5.1,19v-19h4.4v31.8h-5.1L364.3,427.5z"/>
		<path id="Path_17" d="M379.3,418.7h7.9c5,0,7.4,2.8,7.4,7.9v16.1c0,5.1-2.5,7.9-7.4,7.9h-7.9V418.7z M384.3,423.2v22.7h2.8
			c1.6,0,2.5-0.8,2.5-3.1v-16.5c0-2.3-1-3.1-2.5-3.1H384.3z"/>
		<path id="Path_18" d="M397.4,426.3c0-5.1,2.7-8,7.6-8s7.6,2.9,7.6,8v16.5c0,5.1-2.7,8-7.6,8s-7.6-2.9-7.6-8V426.3z M402.4,443.2
			c0,2.3,1,3.1,2.6,3.1s2.6-0.9,2.6-3.1V426c0-2.3-1-3.1-2.6-3.1s-2.6,0.9-2.6,3.1V443.2z"/>
		<path id="Path_19" d="M420.2,427.5v23h-4.5v-31.8h6.3l5.1,19v-19h4.5v31.8h-5.1L420.2,427.5z"/>
		<path id="Path_20" d="M442.2,418.7h5v31.8h-5V418.7z"/>
		<path id="Path_21" d="M461.3,450.5c-0.4-1.3-0.6-2.6-0.5-3.9v-5c0-3-1-4-3.3-4h-1.7v12.9h-5v-31.8h7.5c5.2,0,7.4,2.4,7.4,7.3v2.5
			c0,3.3-1,5.4-3.3,6.4c2.5,1,3.3,3.5,3.3,6.8v4.9c-0.1,1.3,0.1,2.6,0.5,3.9L461.3,450.5z M455.8,423.2v9.8h2c1.9,0,3-0.8,3-3.4
			v-3.1c0-2.3-0.8-3.3-2.5-3.3H455.8z"/>
		<path id="Path_22" d="M469.1,418.7h5v31.8h-5V418.7z"/>
		<path id="Path_23" d="M484.4,418.3c4.9,0,7.4,2.9,7.4,8v1h-4.7V426c0-2.3-0.9-3.1-2.5-3.1s-2.5,0.9-2.5,3.1
			c0,6.5,9.8,7.8,9.8,16.8c0,5.1-2.5,8-7.4,8s-7.4-2.9-7.4-8v-2h4.7v2.3c0,2.3,1,3.1,2.6,3.1s2.6-0.8,2.6-3.1
			c0-6.5-9.8-7.8-9.8-16.8C477.1,421.2,479.6,418.3,484.4,418.3z"/>
		<path id="Path_24" d="M499.7,450.5h-5v-31.8h5v13.6h5.7v-13.6h5.1v31.8h-5.1v-13.6h-5.7V450.5z"/>
	</g>
</g>
</svg>
