<?xml version="1.0" encoding="utf-8"?>
<!-- Generator: Adobe Illustrator 26.0.2, SVG Export Plug-In . SVG Version: 6.00 Build 0)  -->
<svg version="1.1" id="Calque_1" xmlns="http://www.w3.org/2000/svg" xmlns:xlink="http://www.w3.org/1999/xlink" x="0px" y="0px"
	 width="200px" height="326.6px" viewBox="0 0 200 326.6" style="enable-background:new 0 0 200 326.6;" xml:space="preserve">
<style type="text/css">
	.st0{clip-path:url(#SVGID_00000173151849959876412710000014117431210859119031_);}
	.st1{fill:none;stroke:#FFFFFF;stroke-width:2.1405;stroke-miterlimit:14.6858;}
	.st2{fill:none;stroke:#FFFFFF;stroke-width:2.28;stroke-miterlimit:14.6858;}
	.st3{fill:#C00418;}
	.st4{clip-path:url(#SVGID_00000023977305220583707290000002375284878309018029_);}
	.st5{fill:none;stroke:#FFFFFF;stroke-width:2.7536;stroke-miterlimit:14.6858;}
	.st6{fill:#FFFFFF;}
	.st7{fill:none;stroke:#000000;stroke-width:0.9583;stroke-miterlimit:14.6858;}
	.st8{fill:none;stroke:#FFFFFF;stroke-width:1.1896;stroke-miterlimit:14.6858;}
</style>
<g transform="matrix(0.52333056,0,0,0.52333056,-97.370383,-91.362147)">
	<g transform="matrix(7.0155584,0,0,-7.0155584,-112.2425,4191.68)">
		<g>
			<defs>
				<polygon id="SVGID_1_" points="42.5,483.6 126.1,483.6 126.1,572.6 42.5,572.6 42.5,483.6 				"/>
			</defs>
			<clipPath id="SVGID_00000111190195319981499320000017866071651347823283_">
				<use xlink:href="#SVGID_1_"  style="overflow:visible;"/>
			</clipPath>
			<g style="clip-path:url(#SVGID_00000111190195319981499320000017866071651347823283_);">
				<g transform="translate(69.7583,563.2977)">
					<path d="M0,0c13.2,0,27.1-4.2,27.2-9.3v9.2c0,0,0,0,0,0.1c0,5.2-14,9.4-27.2,9.4c-13.3,0-27.2-4.2-27.2-9.4c0,0,0-0.1,0-0.1
						v-9.1C-27.1-4.2-13.2,0,0,0"/>
				</g>
				<g transform="translate(42.5246,524.6248)">
					<path d="M0,0C0,0,0,0,0,0L0,0C0,0,0,0,0,0"/>
				</g>
				<g transform="translate(96.9941,524.6248)">
					<path d="M0,0C0,0,0,0,0,0L0,0C0,0,0,0,0,0"/>
				</g>
				<g transform="translate(69.7618,506.4696)">
					<path d="M0,0c-13.2,0-27.2,13-27.2,18.1V8.9c0,0,0,0,0,0c0-5.2,14-31.7,27.2-31.7c13.2,0,27.2,26.5,27.2,31.7c0,0,0,0,0,0.1
						v9.2C27.1,12.9,13.2,0,0,0"/>
				</g>
				<g transform="translate(96.9941,553.8916)">
					<path d="M0,0C0,0,0,0,0,0L0,0C0,0,0,0,0,0"/>
				</g>
				<g transform="translate(42.5197,553.8916)">
					<path d="M0,0c0,0,0-0.1,0-0.1v0.2C0,0.1,0,0,0,0"/>
				</g>
				<g transform="translate(96.9883,553.9615)">
					<path d="M0,0c-0.1,5.2-14,9.3-27.2,9.3c-13.2,0-27.1-4.2-27.2-9.3v-0.2v-29.1v0c0-5.2,14-18.1,27.2-18.1
						C-14-47.5-0.1-34.6,0-29.4v0.1v29.1C0-0.1,0,0,0,0z"/>
				</g>
				<g transform="translate(69.7392,562.0242)">
					<path d="M0,0c12.5,0,25.8-4,25.9-9v8.9c0,0,0,0,0,0.1C25.9,4.9,12.6,9,0,9c-12.6,0-25.9-4.1-25.9-9.1c0,0,0-0.1,0-0.1V-9
						C-25.7-4-12.5,0,0,0"/>
				</g>
				<g transform="translate(69.7392,562.0242)">
					<path class="st1" d="M0,0c12.5,0,25.8-4,25.9-9v8.9c0,0,0,0,0,0.1C25.9,4.9,12.6,9,0,9c-12.6,0-25.9-4.1-25.9-9.1
						c0,0,0-0.1,0-0.1V-9C-25.7-4-12.5,0,0,0z"/>
				</g>
				<g transform="translate(43.8817,525.37)">
					<path d="M0,0C0,0,0,0,0,0L0,0C0,0,0,0,0,0"/>
				</g>
				<g transform="translate(43.8817,525.37)">
					<path class="st2" d="M0,0C0,0,0,0,0,0L0,0C0,0,0,0,0,0z"/>
				</g>
				<g transform="translate(95.6378,525.37)">
					<path d="M0,0C0,0,0,0,0,0L0,0C0,0,0,0,0,0"/>
				</g>
				<g transform="translate(95.6378,525.37)">
					<path class="st2" d="M0,0C0,0,0,0,0,0L0,0C0,0,0,0,0,0z"/>
				</g>
				<g transform="translate(69.742,507.5159)">
					<path d="M0,0c-12.6,0-25.8,12.8-25.9,17.8v-9v0c0-5,13.3-31.4,25.9-31.4c12.6,0,25.9,26.4,25.9,31.4c0,0,0,0,0,0.1v8.9
						C25.8,12.8,12.5,0,0,0"/>
				</g>
				<g transform="translate(69.742,507.5159)">
					<path class="st1" d="M0,0c-12.6,0-25.8,12.8-25.9,17.8v-9v0c0-5,13.3-31.4,25.9-31.4c12.6,0,25.9,26.4,25.9,31.4c0,0,0,0,0,0.1
						v8.9C25.8,12.8,12.5,0,0,0L0,0z"/>
				</g>
				<g transform="translate(95.6378,552.9207)">
					<path d="M0,0C0,0,0,0,0,0L0,0C0,0,0,0,0,0"/>
				</g>
				<g transform="translate(95.6378,552.9207)">
					<path class="st2" d="M0,0C0,0,0,0,0,0L0,0C0,0,0,0,0,0z"/>
				</g>
				<g transform="translate(43.8746,552.9207)">
					<path d="M0,0c0,0,0-0.1,0-0.1v0.2C0,0.1,0,0,0,0"/>
				</g>
				<g transform="translate(43.8746,552.9207)">
					<path class="st2" d="M0,0c0,0,0-0.1,0-0.1v0.2C0,0.1,0,0,0,0z"/>
				</g>
				<g transform="translate(95.6349,552.9896)">
					<path d="M0,0c-0.1,5-13.4,9-25.9,9c-12.5,0-25.7-4-25.9-9v-0.2v-27.4v0c0-5,13.3-17.8,25.9-17.8c12.5,0,25.8,12.8,25.9,17.8
						v0.1v27.4C0-0.1,0,0,0,0z"/>
				</g>
				<g transform="translate(95.6349,552.9896)">
					<path class="st1" d="M0,0c-0.1,5-13.4,9-25.9,9c-12.5,0-25.7-4-25.9-9v-0.2v-27.4v0c0-5,13.3-17.8,25.9-17.8
						c12.5,0,25.8,12.8,25.9,17.8v0.1v27.4C0-0.1,0,0,0,0z"/>
				</g>
				<g transform="translate(69.6683,562.206)">
					<path class="st3" d="M0,0c-12.5,0-25.8-4.9-25.9-9.6v-30.9c0-5.3,13.3-18.8,25.9-18.8h0c12.6,0,25.8,13.5,25.9,18.7v31.1
						C25.8-4.8,12.6,0,0,0L0,0L0,0z"/>
				</g>
			</g>
		</g>
	</g>
	<g transform="matrix(7.0155584,0,0,-7.0155584,-112.2425,4191.68)">
		<g>
			<defs>
				<polygon id="SVGID_00000099630187623990490020000017369209195458011031_" points="42.5,483.6 97,483.6 97,572.6 42.5,572.6 
					42.5,483.6 				"/>
			</defs>
			<clipPath id="SVGID_00000039845846408936810220000013887682877740352189_">
				<use xlink:href="#SVGID_00000099630187623990490020000017369209195458011031_"  style="overflow:visible;"/>
			</clipPath>
			<g style="clip-path:url(#SVGID_00000039845846408936810220000013887682877740352189_);">
				<g transform="translate(69.7243,562.6473)">
					<path class="st5" d="M0,0c-12.5,0-25.7-4.6-25.9-10.4v-29.4c0-6.5,13.3-23.1,25.9-23.1c12.5,0,25.8,16.5,25.9,23v29.4
						C25.8-4.6,12.5,0,0,0z"/>
				</g>
			</g>
		</g>
	</g>
	<g transform="matrix(7.0155584,0,0,-7.0155584,523.85958,650.90039)">
		<path class="st6" d="M0,0c0.2,2.3-1.1,4.7-1.1,4.7c0.9-0.5,1.6-0.9,2.6-2.2c0.1,2.6-0.7,4.8-1.9,6.6c-0.8,1.1-2.5,2.3-3.4,3
			c-2.3,2,0.5,3.4,0.5,3.4c0.4,0.6-2.4,0.8-1.8,1c0.3,0.2,0.7,0.3,1.1,0.4c0.3,0.1,0.5,0.3,0.6,0.6c1.6,3.9-0.3,9.3-0.3,9.3
			l-0.5-0.4l-5.9-5.8l-8.3-1h-2.3H-21h-2.4l-8.3,1l-5.9,5.8l-0.5,0.4c0,0-1.9-5.4-0.3-9.3c0.1-0.3,0.3-0.5,0.6-0.6
			c0.3-0.1,0.7-0.2,1.1-0.4c0.6-0.2-2.2-0.5-1.8-1c0,0,2.8-1.4,0.5-3.4c-0.8-0.7-2.6-1.9-3.4-3c-1.2-1.8-2-4-1.9-6.6
			c1,1.3,1.7,1.7,2.6,2.2c0,0-1.7-3.1-1-5.6c0,0,0,0,0,0c-0.1,0.6,0,1.8,2.1,2.5c0,0,3.9-4.1,6.4-5c0,0,0.8,2.4,1.8,2.5
			c0,0,0.1-2.3,0.1-2.7c0-0.4,2.4-5.8,2.9-7.4c0.5-1.6,2.1-7.7,6.8-7.7h1.3c4.7,0,6.3,6.1,6.8,7.7c0.5,1.6,2.9,7,2.9,7.4
			c0,0.4,0.1,2.7,0.1,2.7c1-0.1,1.8-2.5,1.8-2.5C-6.8-2.6-3.9,0-2.6,1.1c0.1,0.1,0.1,0.1,0.1,0.1c0,0,0,0,0,0
			c0.3,0.3,0.5,0.5,0.5,0.5C-0.5,1.2-0.1,0.6,0,0"/>
	</g>
	<g transform="matrix(7.0155584,0,0,-7.0155584,231.62859,657.36593)">
		<path class="st6" d="M0,0C0,0,0,0.1,0,0C0,0.1,0,0.1,0,0C0,0,0,0,0,0"/>
	</g>
	<g transform="matrix(7.0155584,0,0,-7.0155584,231.62859,657.36593)">
		<path class="st6" d="M0,0c0-0.2,0.1-0.3,0.1-0.3C0-0.2,0-0.1,0,0"/>
	</g>
	<g transform="matrix(7.0155584,0,0,-7.0155584,505.77768,643.02612)">
		<path class="st6" d="M0,0c0.1,0,0.1,0.1,0.2,0.1c0,0,0,0,0,0C0.1,0.1,0.1,0.1,0,0"/>
	</g>
	<g transform="matrix(7.0155584,0,0,-7.0155584,400.09882,684.02645)">
		<path d="M0,0c0,0-0.1-1-0.2-1.3c-0.2-0.5-0.5-0.4-0.5-0.4s-0.4,1.4-0.4,1.5l-1.9,0h-0.4l-1.9,0c0-0.1-0.4-1.5-0.4-1.5
			s-0.3-0.1-0.5,0.4C-6.4-1-6.5,0-6.5,0s0,0.1-3.1,1.8c0,0,0.3-6,0.5-6.4C-9-5.1-7.5-7.5-7.1-7.8c0,0,0.2,1.1,0.4,1.4
			c0.2,0.3,0.5-1,0.9-1.9C-5.4-8.4-5.4-8.6-5-8.8C-4.6-9-3.9-9-3.9-9h1.3l1.1,0.2c0.4,0.2,0.4,0.4,0.8,0.6c0.4,0.9,0.7,2.1,0.9,1.9
			c0.2-0.3,0.4-1.4,0.4-1.4c0.5,0.3,2,2.6,2.1,3.1c0.2,0.5,0.5,6.4,0.5,6.4C0,0.1,0,0,0,0"/>
	</g>
	<g transform="matrix(7.0155584,0,0,-7.0155584,374.85473,668.24425)">
		<path d="M-16.9,29.9l-0.6-0.2c0,0-2-5.5-0.3-9.4c0.2-0.5,0.7-0.7,1.2-0.8c-0.3,0.1-0.5,0.3-0.6,0.6c-1.6,3.9,0.3,9.3,0.3,9.3
			l0.5-0.4l5.9-5.8l8.3-1h2.4h0.1h2.3l8.3,1l5.9,5.8l0.5,0.4c0,0,1.9-5.4,0.3-9.3c-0.1-0.3-0.3-0.5-0.6-0.6c0.5,0.2,1,0.4,1.2,0.8
			c1.7,3.9-0.3,9.4-0.3,9.4l-0.6,0.2l-8.2-6.5l-6.5-1H0.4H0.3h-2.4l-6.5,1L-16.9,29.9L-16.9,29.9z M-15.8,27.8l-0.4,0
			c0,0,1.6-5.2,1.3-5.1c-0.3,0.1-0.8,1.3-0.8,1.3l-0.2,0.1c0-1.4,0.7-2,1.5-2.5c1.4-0.9,2.6-0.2,2.6-0.2l0.3,0.4c0,0-1.1,1.1-2,2.2
			C-14.3,25.1-15.8,27.8-15.8,27.8L-15.8,27.8z M16.5,27.8c0,0-1.5-2.7-2.3-3.8c-0.8-1.1-2-2.2-2-2.2l0.3-0.4c0,0,1.2-0.6,2.6,0.2
			c0.8,0.5,1.5,1.1,1.5,2.5L16.3,24c0,0-0.5-1.2-0.8-1.3c-0.3-0.1,1.3,5.1,1.3,5.1L16.5,27.8L16.5,27.8z M-10.8,16.4l-0.2-1.7
			l0.8-0.8c0.5-0.5,0.9-2.1,1.8-3.2c0.8-1.1,3.2-1.4,3.2-1.4c-0.4-0.6-1-2.7-1.1-2.9c0.8,1,3.2,3.6,3.2,3.6l-1,1
			c-0.9,2.3-3.1,3.4-3.7,4c-0.5,0.7-2.4,1.6-2.4,1.6L-10.8,16.4z M11.5,16.4c0,0-1.8-0.9-2.4-1.6c-0.5-0.7-2.7-1.8-3.7-4
			c-0.3-0.7-1-1-1-1S6.7,7.2,7,6.4C6.9,6.6,6.4,8.7,5.9,9.3c0,0,2.4,0.3,3.2,1.4c0.8,1.1,1.2,2.7,1.8,3.2l0.8,0.8L11.5,16.4
			L11.5,16.4z M-4.6,14.7c-0.2-0.3,0.6-2.5,1.2-3c0.7-0.5,1.3-0.9,1.3-0.9l0.1-1.4c0,0,0.5,0.8,0.5,1.2c0,0.3,0.3,1.9-0.5,1.9
			C-2.9,12.4-4.6,14.7-4.6,14.7L-4.6,14.7z M5.2,14.7c0,0-1.7-2.3-2.7-2.3c-0.8,0-0.5-1.6-0.5-1.9c0-0.3,0.5-1.2,0.5-1.2l0.1,1.4
			c0,0,0.7,0.5,1.3,0.9C4.6,12.1,5.4,14.4,5.2,14.7L5.2,14.7z M21.4,11.8c1.2-1.8,2-4,1.9-6.6c-1,1.3-1.7,1.7-2.6,2.2
			c0,0,1.3-2.4,1.1-4.7c-0.1,0.6-0.5,1.2-1.9,1.7c0,0-0.2-0.2-0.5-0.5c1.2-0.4,1.9-1.3,2.3-2.1c0-0.1-0.1-0.2-0.1-0.3
			c0,0,0.1,0.1,0.1,0.3c0.5-1.1,0.5-2.1,0.5-2.1c1,2.6-0.9,6.8-0.9,6.8c1-0.5,1.6-1.3,2.7-2.7C24.1,6.8,22.9,9.5,21.4,11.8
			L21.4,11.8z M-19.6,11.8c-1.5-2.2-2.7-4.9-2.6-8c1,1.3,1.7,2.1,2.7,2.7c0,0-1.9-4.2-0.9-6.8c0,0,0,1.1,0.6,2.2
			c-0.7,2.5,1,5.6,1,5.6c-0.9-0.5-1.6-0.9-2.6-2.2C-21.6,7.7-20.8,9.9-19.6,11.8L-19.6,11.8z M-19.9,1.8c0,0,0-0.1,0-0.1
			C-19.8,1.7-19.9,1.8-19.9,1.8C-19.9,1.8-19.9,1.8-19.9,1.8L-19.9,1.8z M-19.9,1.8c0.4,0.8,1.1,1.7,2.3,2.1c0,0,3.2-4.8,5.8-5.7
			c0,0,0.8,2.7,1.9,2.7c0,0,0.1-1.5,0.1-1.9c0-0.4,2.5-5.9,3-7.5c0.5-1.6,2.2-7.8,7-7.8h1.3c4.8,0,6.5,6.2,7,7.8
			c0.5,1.6,3,7.1,3,7.5c0,0.4,0.1,1.9,0.1,1.9c1.1-0.1,1.9-2.7,1.9-2.7c2.3,0.8,5.1,4.8,5.7,5.6C17.9,2.7,15,0,13.2-0.6
			c0,0-0.8,2.4-1.8,2.5c0,0-0.1-2.3-0.1-2.7c0-0.4-2.4-5.8-2.9-7.4c-0.5-1.6-2.1-7.7-6.8-7.7H0.2c-4.7,0-6.3,6.1-6.8,7.7
			c-0.5,1.6-2.9,7-2.9,7.4c0,0.4-0.1,2.7-0.1,2.7c-1-0.1-1.8-2.5-1.8-2.5c-2.5,0.9-6.4,5-6.4,5C-19.9,3.7-20,2.4-19.9,1.8L-19.9,1.8
			z M-2.2,6.5l-0.6-0.4c0,0,0.2-0.3,0.2-0.6s-0.3-5.4,3.1-5.4h0.7c3.5,0,3.1,5,3.1,5.4c0,0.3,0.2,0.6,0.2,0.6L4,6.5
			c0,0-1.4-0.9-2.9-0.9H0.8C-0.8,5.7-2.2,6.5-2.2,6.5L-2.2,6.5z"/>
	</g>
	<g transform="matrix(7.0155584,0,0,-7.0155584,304.81,567.51907)">
		<path class="st3" d="M0,0c0.7-0.7,1.3-2.3,1.9-3.1c0.6-0.7,2.7-0.8,2.7-0.8C3.5-1,0,0,0,0L0,0z M20.6,0c0,0-3.5-1-4.6-3.9
			c0,0,2.2,0.1,2.7,0.8C19.3-2.3,20-0.7,20.6,0L20.6,0z M10.3-16.6c-0.6,0-2.4-0.5-2.4-0.5s-1.6-1.3-2.8-4.8
			c-0.5-1.6,2.3-4.1,5.1-4.1c2.8,0.1,6.4,2.9,5.4,4.8c-1.3,2.6-2.6,3.7-2.8,4C12.6-16.8,10.8-16.6,10.3-16.6L10.3-16.6z"/>
	</g>
	<g transform="matrix(7.0155584,0,0,-7.0155584,266.11006,535.01389)">
		<path d="M0,0c0.4-0.2-2.7-0.4-2.4-0.9c0,0,3.3-1.6,1.1-3.6C1-2.5-1.8-1-1.8-1C-2.2-0.4,0.6-0.2,0,0"/>
	</g>
	<g transform="matrix(7.0155584,0,0,-7.0155584,501.01762,542.32901)">
		<path d="M0,0c0,0-2.8-1.4-0.5-3.4c-2.2,2,1.1,3.6,1.1,3.6C0.8,0.6-2.2,0.9-1.8,1C-2.4,0.9,0.4,0.6,0,0"/>
	</g>
	<g transform="matrix(7.0155584,0,0,-7.0155584,256.90214,566.15805)">
		<path d="M0,0c-0.9-0.7-2.6-1.8-3.4-3C-2.6-1.9-0.8-0.7,0,0"/>
	</g>
	<g transform="matrix(7.0155584,0,0,-7.0155584,521.04774,587.21104)">
		<path d="M0,0c-0.7,1.2-2.5,2.3-3.4,3C-2.5,2.3-0.8,1.1,0,0"/>
	</g>
	<g transform="matrix(7.0155584,0,0,-7.0155584,266.11006,535.01389)">
		<path d="M0,0c-0.3,0.2-0.7,0.3-1.1,0.4C-0.7,0.2-0.4,0.1,0,0"/>
	</g>
	<g transform="matrix(7.0155584,0,0,-7.0155584,495.56022,532.34797)">
		<path d="M0,0c-0.3-0.1-0.7-0.2-1.1-0.4C-0.7-0.3-0.3-0.2,0,0"/>
	</g>
	<g transform="matrix(7.0155584,0,0,-7.0155584,505.77768,643.02612)">
		<path d="M0,0c0.1,0,0.1,0.1,0.2,0.1c0,0,0,0,0,0C0.1,0.1,0.1,0.1,0,0"/>
	</g>
	<g transform="matrix(7.0155584,0,0,-7.0155584,418.78265,716.55409)">
		<path d="M0,0c-0.2-0.5-1.7-2.8-2.1-3.1c0,0-0.2,1.1-0.4,1.4c-0.2,0.3-0.5-1-0.9-1.9C-3.8-3.8-3.8-4-4.2-4.2
			c-0.4-0.2-1.1-0.2-1.1-0.2h-1.3l-1.1,0.2C-8.1-4-8.1-3.8-8.5-3.6c-0.4,0.9-0.7,2.1-0.9,1.9C-9.5-2-9.7-3.1-9.7-3.1
			c-0.5,0.3-2,2.6-2.1,3.1c-0.2,0.5-0.5,6.4-0.5,6.4c3.2-1.7,3.2-1.8,3.2-1.8s0.1-1,0.2-1.3C-8.8,2.9-8.5,3-8.5,3s0.4,1.4,0.4,1.5
			l1.9,0h0.4l1.9,0C-3.8,4.3-3.4,3-3.4,3s0.3-0.1,0.5,0.4c0.1,0.2,0.2,1.3,0.2,1.3s0,0.1,3.2,1.8C0.5,6.4,0.2,0.5,0,0 M2.2,8.5
			C2,8.5,2.3,8.3,1.7,7.9C1.1,7.5-2.6,5-5.7,5h-0.4c-3.1,0-6.9,2.5-7.4,2.9c-0.6,0.4-0.3,0.5-0.5,0.5h-0.7V5.7l0.3-0.2
			c0,0,0.1,2,0.3,2l1.1-0.7c0,0,0.6-6.5,0.9-7.3c0.3-0.8,1.6-2.7,2.1-3.7C-9.5-5-7.7-4.9-6.7-4.9h1.4c1,0,2.8-0.1,3.3,0.8
			c0.5,0.9,1.8,2.8,2.1,3.7c0.3,0.8,0.9,7.3,0.9,7.3l1.1,0.7c0.3-0.1,0.3-2,0.3-2l0.3,0.2v2.7C2.8,8.5,2.2,8.5,2.2,8.5z"/>
	</g>
	<g transform="matrix(7.0155584,0,0,-7.0155584,409.08294,732.17283)">
		<path class="st6" d="M-8.8,7.6c-0.2,0-0.4,0-0.5-0.1c0,0-0.2-2.1,0.6-2.7l0.2-0.1c0,0,0.9,2.2,0.9,2.4C-7.5,7.2-8.2,7.6-8.8,7.6
			L-8.8,7.6z M-0.4,7.6c-0.6,0-1.3-0.4-1.3-0.5c0-0.2,0.9-2.4,0.9-2.4l0.2,0.1c0.8,0.6,0.6,2.7,0.6,2.7C0,7.6-0.2,7.6-0.4,7.6
			L-0.4,7.6z M-8.4,3.1c0,0-0.1-0.1-0.3-0.3C-9.1,1.2-9.2,0-9.2,0c0.6-0.6,2.1-2,2.1-1.6C-7.1-1.3-8.4,3.1-8.4,3.1L-8.4,3.1z
			 M-0.8,3.1c0,0-1.3-4.4-1.3-4.7C-2.1-2-0.6-0.5,0,0c0,0-0.1,1.2-0.5,2.7C-0.7,3-0.8,3.1-0.8,3.1L-0.8,3.1z"/>
	</g>
	<g transform="matrix(7.0155584,0,0,-7.0155584,409.08294,732.17283)">
		<path class="st7" d="M0,0c0,0-0.1,1.2-0.5,2.7C-0.7,3-0.8,3.1-0.8,3.1s-1.3-4.4-1.3-4.7C-2.1-2-0.6-0.6,0,0z"/>
	</g>
	<g transform="matrix(7.0155584,0,0,-7.0155584,344.58751,732.17283)">
		<path class="st7" d="M0,0c0,0,0.1,1.2,0.5,2.7C0.7,3,0.8,3.1,0.8,3.1s1.3-4.4,1.3-4.7C2.1-2,0.6-0.6,0,0z"/>
	</g>
	<g transform="matrix(7.0155584,0,0,-7.0155584,238.8925,406.8691)">
		<path d="M18.2,17.1c-2.1,0-3.5-0.7-4.8-1.9c-1.8-1.8-1.7-4.2-1.7-6.7s-0.1-4.9,1.7-6.7c1.2-1.2,2.7-1.9,4.8-1.9
			c2.1,0,3.5,0.7,4.8,1.9c1.8,1.8,1.7,4.2,1.7,6.7c0,2.6,0.1,4.9-1.7,6.7C21.8,16.4,20.3,17.1,18.2,17.1L18.2,17.1z M0,17V0h11.3
			v3.7H4.2V17L0,17L0,17z M26.4,17V6c0-3.7,2.9-6.1,6.4-6.1s6.5,2.4,6.5,6.1v11h-4.2V6.1c0-1.6-0.9-2.5-2.3-2.5
			c-1.4,0-2.2,0.9-2.2,2.5V17C30.5,17,26.4,17,26.4,17z M18.2,13.4c0.8,0,1.4-0.3,1.7-0.7c0.4-0.5,0.6-1.1,0.6-4.2s-0.2-3.6-0.6-4.1
			c-0.3-0.4-0.9-0.8-1.7-0.8c-0.8,0-1.4,0.4-1.7,0.8c-0.4,0.5-0.6,1-0.6,4.1s0.2,3.7,0.6,4.2C16.9,13.1,17.5,13.4,18.2,13.4z"/>
	</g>
	<g transform="matrix(7.0155584,0,0,-7.0155584,468.91443,407.87162)">
		<path class="st8" d="M0,0c-3.5,0-6.4,2.4-6.4,6.1v11h4.2V6.2c0-1.6,0.9-2.5,2.2-2.5s2.3,0.9,2.3,2.5v10.9h4.2v-11
			C6.5,2.4,3.5,0,0,0z M-12.9,12.8c-0.3,0.4-0.9,0.7-1.7,0.7c-0.8,0-1.4-0.3-1.7-0.7c-0.4-0.5-0.6-1.1-0.6-4.2s0.2-3.6,0.6-4.1
			c0.3-0.4,0.9-0.8,1.7-0.8c0.8,0,1.4,0.4,1.7,0.8c0.4,0.5,0.6,1,0.6,4.1S-12.5,12.3-12.9,12.8z M-9.8,1.9C-11,0.7-12.5,0-14.5,0
			s-3.5,0.7-4.8,1.9C-21.1,3.7-21,6.1-21,8.6s-0.1,4.9,1.7,6.7c1.2,1.2,2.7,1.9,4.8,1.9s3.5-0.7,4.8-1.9c1.8-1.8,1.7-4.2,1.7-6.7
			S-8,3.7-9.8,1.9z M-32.8,0.1v17h4.2V3.9h7.1V0.1C-21.5,0.1-32.8,0.1-32.8,0.1z"/>
	</g>
	<g transform="matrix(7.0155584,0,0,-7.0155584,249.45442,422.98173)">
		<path class="st6" d="M18.2,0.8c-0.5,0-0.8-0.2-1.1-0.5c-0.4-0.4-0.4-0.9-0.4-1.6s0-1.2,0.4-1.7c0.3-0.3,0.7-0.5,1.1-0.5
			c0.5,0,0.9,0.2,1.2,0.5c0.3,0.3,0.4,0.7,0.4,1.3v0.6h-1.5v-0.7H19v-0.1c0-0.2-0.1-0.4-0.2-0.6c-0.1-0.1-0.3-0.2-0.6-0.2
			c-0.2,0-0.4,0.1-0.5,0.2c-0.2,0.2-0.2,0.4-0.2,1.2c0,0.8,0,1,0.2,1.2C17.8-0.1,18,0,18.2,0c0.3,0,0.5-0.1,0.7-0.3l0.6,0.5
			C19.1,0.6,18.8,0.8,18.2,0.8L18.2,0.8z M-1.6,0.7v-4.1h0.8v1.7h0.6l0.8-1.7h0.9L0.6-1.6C1-1.5,1.4-1.1,1.4-0.5
			c0,0.7-0.5,1.3-1.3,1.3L-1.6,0.7L-1.6,0.7z M7.5,0.7V-2c0-0.9,0.7-1.5,1.5-1.5s1.5,0.6,1.5,1.5v2.7H9.8V-2c0-0.5-0.3-0.8-0.7-0.8
			S8.3-2.5,8.3-2v2.7H7.5z M25.9,0.7v-4.1h1.7c0.7,0,1.3,0.4,1.3,1.2c0,0.6-0.3,0.8-0.6,0.9c0.2,0.1,0.5,0.4,0.5,0.9
			c0,0.7-0.5,1.2-1.3,1.2L25.9,0.7L25.9,0.7z M34.6,0.7l1.2-2.4v-1.7h0.8v1.7l1.2,2.4H37l-0.8-1.7l-0.8,1.7H34.6L34.6,0.7z M-0.8,0
			H0c0.4,0,0.6-0.2,0.6-0.5c0-0.3-0.2-0.5-0.6-0.5h-0.8V0L-0.8,0z M26.7,0h0.8C27.9,0,28-0.2,28-0.5S27.9-1,27.5-1h-0.8V0L26.7,0z
			 M26.7-1.7h0.8c0.4,0,0.5-0.2,0.5-0.5c0-0.3-0.2-0.5-0.5-0.5h-0.8V-1.7L26.7-1.7z"/>
	</g>
	<g transform="matrix(7.0155584,0,0,-7.0155584,538.08643,296.46596)">
		<path class="st6" d="M0,0C0,0,0,0,0,0L0,0C0,0,0,0,0,0"/>
	</g>
	<g transform="matrix(7.0155584,0,0,-7.0155584,218.11803,296.46596)">
		<path class="st6" d="M0,0c0,0,0-0.1,0-0.1v0.2C0,0.1,0,0,0,0"/>
	</g>
	<g transform="matrix(7.0155584,0,0,-7.0155584,320.12847,236.76848)">
		<path class="st6" d="M8.8,5.8c-0.6,0-1-0.2-1.4-0.5C7,4.8,7,4.2,7,3.2c0-1,0-1.6,0.5-2.1c0.4-0.4,0.8-0.6,1.3-0.6
			c0.6,0,1,0.2,1.4,0.5c0.5,0.5,0.5,1.1,0.5,2.1c0,1,0,1.6-0.5,2.1C9.8,5.6,9.4,5.8,8.8,5.8L8.8,5.8z M6.5,5.8l-0.9,0L4.7,3.4
			L3.5,5.6l-0.9,0l1.7-2.9l0.1-2.1l0.8,0L5.1,2.6L6.5,5.8L6.5,5.8z M12.2,5.7l-0.5-5.1l0.8-0.1l0.3,3.6l2-3.8l0.7-0.1L16,5.3
			l-0.8,0.1l-0.3-3.6l-2,3.8L12.2,5.7L12.2,5.7z M0.1,5.2l-0.8-0.1L0,0l3.2,0.4L3.2,1.1L0.7,0.8L0.1,5.2L0.1,5.2z M8.8,5.1
			c0.3,0,0.6-0.1,0.8-0.3c0.3-0.3,0.3-0.6,0.3-1.6c0-1-0.1-1.3-0.3-1.6C9.4,1.4,9.1,1.3,8.8,1.3C8.5,1.3,8.2,1.4,8,1.6
			C7.8,1.9,7.7,2.1,7.7,3.2c0,1,0.1,1.3,0.3,1.6C8.2,5,8.5,5.1,8.8,5.1L8.8,5.1z"/>
	</g>
	<g transform="matrix(7.0155584,0,0,-7.0155584,454.70512,511.14415)">
		<path d="M0,0C0,0,0,0,0,0L0,0C0,0,0,0,0,0"/>
	</g>
	<g transform="matrix(7.0155584,0,0,-7.0155584,454.65952,305.82121)">
		<path d="M0,0c0,0,0-0.1,0-0.1v0.2C0,0.1,0,0,0,0"/>
	</g>
	<g transform="matrix(7.0155584,0,0,-7.0155584,346.49995,476.34488)">
		<path d="M11.9,1.9c-1,0-2.3-0.7-3.1-1.6c-0.6-0.6-1-1.3-1-1.8v0c0-0.4,0.2-0.8,0.9-0.8c0.6,0,1.5,0.3,1.9,0.9
			C11.1-0.7,11,0,10.3,0C10,0,9.7-0.1,9.5-0.2C9.4-0.3,9.4-0.3,9.4-0.4c0,0,0.1,0,0.1,0c0.1,0.1,0.4,0.2,0.6,0.2
			c0.3-0.1,0.2-0.5-0.2-1.1c-0.4-0.6-0.8-1-1.2-1C8.5-2.2,8.4-2,8.5-1.8C8.5-1.3,9-0.5,9.5,0c1,1,1.9,1.7,2.6,1.7
			c0.3,0,0.5-0.1,0.7-0.3c0-0.1,0-0.1,0.1-0.1c0,0,0,0.1,0,0.2c-0.1,0.2-0.4,0.4-0.8,0.4C12.1,1.9,12,1.9,11.9,1.9L11.9,1.9z
			 M4.5,1.8c-0.7,0-1.6-0.6-1.7-1.3c0-0.3,0-0.5,0.2-0.8C3.1-0.5,3.2-0.8,3.2-1c0-0.6-0.5-1.2-1-1.1c-0.3,0-0.5,0.3-0.4,0.7
			c0.1,0.5,0.4,0.8,0.8,1.1c0.1,0.1,0.2,0.1,0.2,0.2c0,0.1-0.2,0-0.3-0.1C1.7-0.5,1.2-1,1.1-1.5C1-2,1.4-2.3,2-2.3
			c0.8,0,1.8,0.6,1.9,1.3C4-0.7,3.9-0.4,3.7,0C3.5,0.3,3.4,0.7,3.5,1c0.1,0.3,0.4,0.6,0.8,0.6h0c0.3,0,0.5-0.3,0.4-0.6
			C4.6,0.7,4.4,0.4,4,0.2C3.9,0.1,3.8,0.1,3.8,0c0,0,0.2,0,0.3,0.1c0.5,0.2,1,0.5,1.1,1C5.3,1.5,5,1.8,4.5,1.8L4.5,1.8z M2,1.2
			C1.8,1.2,1.5,1,1.1,0.8C0.8,0.6,0.4,0.4,0,0.2c-0.7-0.3-0.8-0.3-0.7-0.4c0-0.1,0.4,0,0.7,0.2c0.3,0.2,0.7,0.4,1.1,0.6
			C0.7,0.3-0.6-1.1-1.2-1.9c-0.3-0.4-0.3-0.5-0.1-0.5c0.9,0.1,0.9,0.2,1.2,0.7C0.4-1.1,1-0.2,1.9,0.8C2.1,1.1,2.2,1.2,2,1.2L2,1.2z
			 M6.8,1.2c-0.5,0-1.3-0.3-1.7-0.9C4.6-0.4,4.8-1.1,5.4-1.1c0.3,0,0.6,0.1,0.8,0.3c0.1,0.1,0.2,0.2,0.2,0.2c0,0-0.1,0-0.2-0.1
			C6.1-0.9,5.8-1,5.6-1c-0.3,0.1-0.2,0.5,0.1,1c0.4,0.6,1,1,1.3,1c0.2,0,0.2-0.2,0.2-0.4C7.2,0.3,7-0.2,6.4-1C6-1.5,5.4-2.2,4.8-2.7
			C4.1-3.2,3.6-3.4,3.1-3.4h0c-0.3,0-0.5,0.1-0.6,0.3c0,0.1,0,0.1-0.1,0.1c0,0,0-0.1,0-0.2c0.1-0.2,0.4-0.4,0.7-0.4
			c1.2-0.1,3,0.9,3.9,2.2c0.5,0.7,0.8,1.4,0.7,1.9c0,0.4-0.4,0.7-0.8,0.7C6.9,1.2,6.9,1.2,6.8,1.2L6.8,1.2z"/>
	</g>
</g>
</svg>
