<?xml version="1.0" encoding="utf-8"?>
<!-- Generator: Adobe Illustrator 26.0.2, SVG Export Plug-In . SVG Version: 6.00 Build 0)  -->
<svg version="1.1"
	 id="svg833" xmlns:cc="http://creativecommons.org/ns#" xmlns:dc="http://purl.org/dc/elements/1.1/" xmlns:inkscape="http://www.inkscape.org/namespaces/inkscape" xmlns:rdf="http://www.w3.org/1999/02/22-rdf-syntax-ns#" xmlns:sodipodi="http://sodipodi.sourceforge.net/DTD/sodipodi-0.dtd" xmlns:svg="http://www.w3.org/2000/svg"
	 xmlns="http://www.w3.org/2000/svg" xmlns:xlink="http://www.w3.org/1999/xlink" x="0px" y="0px" width="560.5px" height="800px"
	 viewBox="0 0 560.5 800" style="enable-background:new 0 0 560.5 800;" xml:space="preserve">
<style type="text/css">
	.st0{fill:#009CDD;}
	.st1{fill:#D4F0FF;}
	.st2{fill:#002951;}
	.st3{fill-rule:evenodd;clip-rule:evenodd;fill:#D4F0FF;}
</style>
<sodipodi:namedview  bordercolor="#666666" borderopacity="1" gridtolerance="10" guidetolerance="10" id="namedview835" inkscape:current-layer="g841" inkscape:cx="247.34545" inkscape:cy="431.37095" inkscape:document-rotation="0" inkscape:pageopacity="0" inkscape:pageshadow="2" inkscape:window-height="756" inkscape:window-maximized="1" inkscape:window-width="1434" inkscape:window-x="0" inkscape:window-y="25" inkscape:zoom="0.5036356" objecttolerance="10" pagecolor="#ffffff" showgrid="false" showguides="false">
	</sodipodi:namedview>
<g id="g841" transform="matrix(1.3333333,0,0,-1.3333333,-279.26194,1529.3233)" inkscape:groupmode="layer" inkscape:label="logo">
	<path id="path1086" class="st0" d="M419.6,1147c-24.6,0-47.5-1.4-71.3-5.8L232,1117.5c-13.1-2.5-23-4.1-22.6-21.1l7.3-351.8
		c0.5-33.9,7.6-31.8,18.8-42.2l161.1-141.4c6.9-6.5,14.9-13.9,23-13.9c8.2,0.1,16.1,7.4,23,13.9l161.1,141.4
		c11.2,10.4,18.3,8.3,18.8,42.2l7.3,351.8c0.5,16.9-9.4,18.6-22.6,21.1L491,1141.2C467.2,1145.6,444.2,1147,419.6,1147L419.6,1147z"
		/>
	<g id="g896" transform="matrix(0.99964496,0,0,0.99964496,0.07436208,0.40722939)">
		<path id="path1061" class="st1" d="M600.7,724.5l-37.2-29.4c0.1-0.7,0.2-1.5,0.3-2.3L600.7,724.5z M287.5,682.6l132.2-113.5
			l88.6,76.1c1.3,3,2.5,6.1,3.5,9.1l-92.1-72.8l-128,101.1H287.5z M547,682.1l-2.1-1.6c-0.5-1.8-1-3.5-1.6-5.2l4.7,4
			C547.8,680.2,547.4,681.2,547,682.1z"/>
		<path id="path1081" class="st1" d="M238.7,724.5l26.4-22.6v1.8L238.7,724.5z"/>
		<path id="path1063" class="st1" d="M239,799.8l-2.2,1.4l1.9-66.6L239,799.8z"/>
		<path id="path1069" class="st1" d="M417.6,975.2l-184.9-30.3l3.2-110.5l3.3,2.5l0.5,102.8L417.6,975.2z"/>
		<path id="path1296" sodipodi:nodetypes="ccccc" class="st1" d="M600.7,734.6l-0.9,205.1l-178,35.5l184.9-30.3L600.7,734.6z"/>
	</g>
	<g id="g1042">
		<g id="g900" transform="matrix(0.99964496,0,0,0.99964496,0.07436208,0.40722939)">
			<path id="path1059" sodipodi:nodetypes="cccc" class="st2" d="M386.3,1100.1l0-11.2H232.7L386.3,1100.1z"/>
			<path id="path1290" sodipodi:nodetypes="cccc" class="st2" d="M453.2,1100.1l0-11.2h153.6L453.2,1100.1z"/>
		</g>
		<g id="g998" transform="matrix(0.99964496,0,0,0.99964496,449.91426,0.40722939)">
			<path id="rect1021" sodipodi:nodetypes="cccccccccccccc" class="st3" d="M-52.5,1010.7v71.5h-61.1v-81.6l26.8,4.5v18.2h7.4v-16.9
				L-52.5,1010.7z M-86.8,1069.9h7.4v-34.4h-7.4V1069.9z"/>
			<path id="path966" sodipodi:nodetypes="ccccccccccccccccccc" class="st3" d="M-44.2,1082.2v-50.8h34.5V1011l26.8-4.5v37.2h-34.5
				v26.2h7.7v-18.3h26.8v30.6H-44.2z M-44.2,1023.5v-11.4l14,2.3l12.8-2.1v11.2H-44.2z"/>
			<path id="path964" sodipodi:nodetypes="cccccccccccccccccc" class="st3" d="M25.3,1082.2v-50.8h34.5v-32l26.8-4.5v48.7H52.1v26.2
				h7.7v-18.3h26.8v30.6H25.3z M25.3,1023.5v-18.3l26.8-4.5v22.8H25.3z"/>
			<path id="path960" sodipodi:nodetypes="ccccccccccccccc" class="st3" d="M94.3,1082.2V1030H130v-31.6h-8.9v23.7H94.3v-28.3
				l62.5-10.4v98.9H130v-40h-8.9v40H94.3z"/>
			<path id="path924" sodipodi:nodetypes="ccccccccccccc" class="st3" d="M-217.3,1082.2v-98.9l26.8,4.5v82.1h7.8v-80.8l26.8,4.5
				v76.4h7.8v-75.1l26.8,4.5v82.9H-217.3z"/>
		</g>
		<g id="g1055" transform="matrix(0.99964496,0,0,0.99964496,0.17082782,0.40722939)">
			<path id="rect1000" class="st3" d="M395.7,1123.7v-34.8h9.9v8.7h2.6v-8.7h9.9v8.2l-2.9,2.8l2.9,2.8v21.1H395.7z M405.6,1119h2.6
				v-17.2h-2.6V1119z"/>
			<path id="rect1004" class="st3" d="M421.2,1123.7v-34.8h22.3v10.7h-9.9v-6.1h-2.6v25.5h2.6v-13.3h9.9v18.1L421.2,1123.7z"/>
		</g>
		<g id="g1313" transform="matrix(0.99964496,0,0,0.99964496,0.07436208,0.40722939)">
			<path id="path1065" class="st2" d="M545.4,986.9v-25l61.3-10.1v24.9L545.4,986.9z"/>
			<g id="g1301">
				<path id="path1230" class="st3" d="M527,989.9v-25.1l15.4-2.5v3.5l-8.2,1.4v5.6l5.2-0.9v3.7l-5.2,0.9v9.1l8.2-1.4v3.2L527,989.9
					z"/>
				<path id="path1179" class="st3" d="M509.8,992.8v-25.1l7.1-1.2v21.8l1.7-0.3v-21.8l7.1-1.2v25.1L509.8,992.8z"/>
				<path id="path1175" class="st3" d="M492.3,995.7v-25.1l7.1-1.2v21.9l1.7-0.3v-21.9l7.1-1.2V993L492.3,995.7z"/>
				<path id="path1171" class="st3" d="M474.7,998.6v-25.2l15.9-2.6V996L474.7,998.6z M481.8,994.2l1.7-0.3v-18.3l-1.7,0.3V994.2z"
					/>
				<path id="path1259" sodipodi:nodetypes="ccccccccccccccccc" class="st3" d="M457.2,1001.5v-16l8.8-1.5v-5.6l-1.7,0.3v4l-7.1,1.2
					v-7.6l15.9-2.6v12.9l-8.8,1.5v9.1l1.7-0.3v-7.5l7.1-1.2v10.7L457.2,1001.5z"/>
				<path id="rect1057" sodipodi:nodetypes="ccccccccccccc" class="st3" d="M422.8,1007.2V982l15.2-2.5v3.7l-8.1,1.3v5.6l5.1-0.8
					v3.7l-5.1,0.8v9.1l8.1-1.3v3.2L422.8,1007.2z"/>
				<path id="path1254" sodipodi:nodetypes="ccccccccccccccccc" class="st3" d="M439.7,1004.4v-16l8.8-1.5v-5.6l-1.7,0.3v4l-7.1,1.2
					v-7.7l15.9-2.6v12.9l-8.8,1.5v9.1l1.7-0.3v-7.5l7.1-1.2v10.7L439.7,1004.4z"/>
			</g>
			<path id="path1284" sodipodi:nodetypes="ccccc" class="st2" d="M419.7,1007.8l-187-31.1v-24.9l187,30.7V1007.8z"/>
		</g>
	</g>
	<g id="g1017" transform="matrix(0.99964496,0,0,0.99964496,0.07436208,0.40722939)">
		<path id="path1319" sodipodi:nodetypes="cccccscsc" class="st1" d="M428.5,742c9.4-16,17.9-32.5,12.8-56.5
			c11.6,27.6,24.4,37.9,37,51.5c17.7-40.7,20-76.5-20.3-99.4c5.8,18.5,15.5,36.4,2.9,57.3c-4.7-10.9-10.5-23.3-18.5-32.5
			c-12.7-14.6-29.8-25.7-49.6-36.6c17.5,25,31,46.9,36.4,64.5C435.9,711.5,432.1,729.6,428.5,742z"/>
		<path id="path1323" sodipodi:nodetypes="cscsssc" class="st1" d="M580.3,719.3c-5.6,12.2-21,49.1-41,64.6
			c-12.8,9.9-30.5,15.6-56,13.8c7.8-6.7,15.5-13.4,23.1-18.7c7.5-5.3,13.2-8.9,18.9-11c8.7-3.3,17.1-10.4,24.7-17.2
			C560.6,741.2,570.3,730.1,580.3,719.3L580.3,719.3z"/>
		<path id="path874" sodipodi:nodetypes="cscccscccsccccsc" class="st1" d="M583.5,756.5c-5.2,16.9-14,31.2-28.8,41.4
			c-12.5,8.7-31.2,14.2-51.7,15.5c4.1,8.5,12.6,13.6,26.9,14.1c-24.8,4.9-44.7,20.9-64.7,36.7c13.3-5.2,27.1-3.6,40-2.5
			c7.8,0.7,23.4-0.4,35.1-1.6c-22.3,10.6-33.5,15-49.4,16.7c-25.9,2.4-41.9,5.4-46.7,35.2c20.4,3.8,37.1,4.1,51.8,2.3
			c27.9-3.5,51.9-12.3,70.1-24.6l-55.9,2.3c66.2-20.2,72.9-41,84.9-56.1c-19.2,9.5-40,13.5-63.4,9.4c16.6-8,26.5-16.9,32.8-26.4
			C577.5,799,581.8,776.8,583.5,756.5L583.5,756.5z"/>
		<path id="path876" sodipodi:nodetypes="ccccscccsc" class="st1" d="M527.7,917.6c-44,15.1-86.4,18.7-126.2,3.3l9.6,13.6
			c-16.5,2.9-31.7-3.3-46.8-10.1c7.6,10.9,16.5,19.8,29.5,29.1c8.6,6.2,21,12.8,35.9,17l19.8-4.8l-18.1-14.4
			c23.9,0.3,40.9-2.7,54.2-7.5C504,937,516.8,926.8,527.7,917.6L527.7,917.6z"/>
		<path id="path1321" sodipodi:nodetypes="ccccccsc" class="st1" d="M496.1,729.3c16.9-0.3,25.8-6.2,31.4-14.3
			c1.2,12.7-2.8,26.4-11.1,41c29.7-18.1,43.2-47.4,41.8-86.8c-3.5,11.2-5.3,23-17.5,31.2c0.3-28.6-12.6-39.7-24.1-52.8
			c5.9,15.1,8.2,32.4,1.6,49.7C514.4,707.6,507.2,720.1,496.1,729.3L496.1,729.3z"/>
		<path id="path913" class="st1" d="M316.3,886.2l-25.5-28.7c-4-4.2-7-6.1-10.7-7.2c-21.4-5.8-41.4-19.6-44.2-28.1
			c-2.2-6.8,3.5-18,12.8-19.1c4.7-0.5,10.7,2.5,18,12.3c-14.2,0.4-21.4,0.9-20.9,5.6c0.5,4.5,9.4,14.3,23.8,22.3v-38.4
			c0.2-18,15.8-30.8,37.9-30.7h18.6c4.6-0.1,6.5-2.9,6.3-8v-30c0.4-17.5-10.9-32.3-27.8-32.2h-23.3l-9.1,20l0.1-34.6l40.8-0.1
			c9.2-0.4,30.5,4.9,39.7,14.4c7.9,8.1,12.6,16.9,12.1,33.9v115.1c0.1,13-8.8,27-25.8,27l-27.2,0.1L316.3,886.2z M341.9,867
			c-8.5-4.7-15.9-7.1-27.3-17.7c-3.4-3.1-4.1-6.3-5-6.4c-1.4-0.2-2,1.8-2.7,3.5c-3.2-1.8-2.7-3.6-0.6-6.3
			c-9.5-8-19.6-13.5-26.1-17.5l23.5,17.4c-1.5,1.6-2.6,3.4-2.5,4.6c0.1,1.6,1.5,2.7,2.9,3.8c-0.2,8.1,1.9,12.8,5.7,15
			c4.4,2.6,13.4,2.5,18.8-0.8C333.1,864.5,337.5,866.4,341.9,867z M331.6,857.8l0.3-2.2l1.3,0.4c0.6-2.8-0.7-5-1.1-7.9v-48.3
			c13.6-7.7,15.6-18.5,16.6-23.8c-3.2,5.8-7.9,11-16.6,14.5h-19.7c-3.8-0.1-7.8,2.2-8,7.8v35.7l11.4,6c3-3.4,6.6-2.8,9.4-0.2
			c2.1,1.9,5.5,6.4,5.6,12.9l-6.5-2C326,853.4,328.5,856,331.6,857.8z"/>
		<path id="path1315" class="st1" d="M426.2,807.3v-38.7c50.3-8.9,68-19.9,87.4-26.8C496.4,767.1,462.2,789.1,426.2,807.3z"/>
		<path id="path971" class="st1" d="M426.2,841.2v-28.6l55.8-4.3C464.4,823,445.6,833.5,426.2,841.2z"/>
		<path id="path969" class="st1" d="M426.2,871.2v-18.7c9-0.7,16.6-2.4,23.6-4.3C442.7,856.6,434.9,864.2,426.2,871.2z"/>
		<path id="path965" class="st1" d="M364.8,894.5h14.5V757.1v-30.8v-4.5h24.4c-1.8,9.7-4.7,17.6-7.9,23.8c6.3-2.8,11.7-8.6,17-14.9
			v20.9v6.5V846c-5.6,1.8-11.2,3.5-16.9,4.8c6.1,1.1,11.7,1.6,16.9,1.9v28.4c-10.3,7-21.4,13.2-33.5,18.8c0,0-0.1,0-0.1,0.1
			c0,0,0.1,0.1,0.1,0.1c3.6,4.2,7.9,8.2,13.2,12h-13.2h-10.7c-1.3-0.3-2.6-0.8-3.9-1.2L364.8,894.5z"/>
		<path id="path996" class="st1" d="M367.3,944.4c-20-16.4-42.8-34.8-47.7-51.1l23.6-0.1c2.1,0,4.1-0.2,6-0.6
			c0.8-0.2,1.4-0.5,2.1-0.7v13.8c-5-2.4-9.8-5.1-14.7-7.8C341.9,912.1,355.4,928.5,367.3,944.4z"/>
		<path id="path1317" class="st1" d="M405.2,708.4h-31.8c-1.3-3.4-3.6-6.7-6.1-9.9c20.3-6.8,25.9-24.8,31.2-43
			C404.5,676.6,406.1,694,405.2,708.4L405.2,708.4z"/>
	</g>
</g>
</svg>
