<?xml version="1.0" encoding="utf-8"?>
<!-- Generator: Adobe Illustrator 26.0.2, SVG Export Plug-In . SVG Version: 6.00 Build 0)  -->
<svg version="1.1" id="Calque_1" xmlns="http://www.w3.org/2000/svg" xmlns:xlink="http://www.w3.org/1999/xlink" x="0px" y="0px"
	 width="485px" height="596.2px" viewBox="0 0 485 596.2" style="enable-background:new 0 0 485 596.2;" xml:space="preserve">
<style type="text/css">
	.st0{fill:#1D1D1B;}
	.st1{fill:#FFFFFF;}
	.st2{fill:#00A888;}
	.st3{fill:#009762;}
	.st4{fill:#007B57;}
</style>
<path class="st0" d="M4,5.3v12.4c0,7.2,0.6,176.9,2.2,240.7C9.8,404,92,522.7,237.8,592.6l3.3,1.5l4.2-0.1l3-1.4
	c145.8-70,228-188.7,231.6-334.2c1.6-63.9,2.1-233.5,2.2-240.8V5.4L4,5.3"/>
<path class="st1" d="M218.8,451.9v1.7c1.5-0.1,2.9,0.1,4.3,0.4c0.7,0.3,1.3,0.7,1.7,1.4c0.4,0.5,0.6,1.1,0.5,1.7
	c0,0.7-0.2,1.3-0.4,1.9c-0.7,1.2-1.5,2.3-2.4,3.4l-11,14.1l-9.5-14.4c-1.5-2.2-2.2-3.8-2.2-5c0.1-1,0.6-1.8,1.3-2.4
	c0.9-0.7,2.6-1.1,5-1.2v-1.7h-28.7v1.7c2.8,0,5.6,0.9,8,2.4c2.3,1.5,5.2,4.7,8.5,9.7l12.2,18.1l-14.6,18.7c-1.7,2.3-3.7,4.4-5.9,6.2
	c-1.6,1.3-3.5,2.4-5.4,3.2c-1.3,0.5-2.6,0.9-4,1v1.7h22v-1.7c-2.3-0.1-3.9-0.5-4.7-1.1s-1.2-1.5-1.2-2.4c0-0.6,0.1-1.3,0.4-1.9
	c0.7-1.3,1.5-2.5,2.5-3.6l13-16.8l10.5,16.1c0.9,1.3,1.8,2.7,2.5,4.1c0.3,0.7,0.4,1.4,0.4,2.1c0,0.6-0.2,1.2-0.6,1.7
	c-0.4,0.6-1,1-1.6,1.3c-1.3,0.4-2.6,0.6-3.9,0.6v1.7h26.6v-1.7c-2.5,0-4.8-0.9-6.8-2.4c-1.8-1.5-4.5-5-8.2-10.5l-13.4-20.1L226,464
	c1.7-2.4,3.7-4.6,5.8-6.7c1.4-1.2,2.9-2.1,4.5-2.9c1.4-0.5,2.8-0.8,4.2-0.8v-1.7L218.8,451.9"/>
<path class="st1" d="M290.7,451.9v1.7l0.8,0.2c1.6,0.1,3.2,0.7,4.5,1.7c0.8,0.6,1.3,1.6,1.3,2.6c0,1.4-0.7,3.9-2.1,7.4l-14.6,36.3
	L264.8,465c-1.4-3.3-2.1-5.7-2.1-7.2c0-1.1,0.4-2.1,1.3-2.7c0.9-0.7,2.7-1.2,5.6-1.5v-1.7h-25.3v1.7c1.5,0.1,3.1,0.4,4.5,1
	c1.1,0.5,2.1,1.3,2.8,2.3c1,1.6,1.9,3.3,2.6,5.1l23.2,54h1.7l21.6-53.3c0.9-2.6,2.4-5,4.3-6.9c1.4-1.2,3.2-1.9,5-2.1V452
	L290.7,451.9"/>
<path class="st2" d="M242.3,327.9L185,174.1l-57.3,3l-0.7,12.1c0,0,7.5,2.3,10.6,5.3s3,6,3,18.1s-9.8,67.1-15.1,92
	s-16.6,62.6-24.9,75.4s-20.3,6.8-20.3,6.8l1.5,13.6l92,6.8V392c-21.9,0.8-24.1-8.3-27.1-22.6s6.8-60.3,15.1-107.8
	s11.3-64.1,11.3-64.1l69.3,186.2l73.9-189.2c0,0,15.8,93.5,21.1,125.9s3.8,52-0.8,61.8s-24.1,12.1-24.1,12.1l1.5,12.8l92-5.3
	l0.2-14.8c0,0-8.6,1.9-12.4,1.9s-6-3.8-14.3-24.1s-17.3-64.8-23.4-95s-11.4-70.9-9.8-73.1c5.4-7.4,15.1-5.3,15.1-5.3v-13.5
	l-59.5-4.5L242.3,327.9"/>
<path class="st3" d="M146,220.9c-29.4,6-68.6,19.6-75.4,33.2s12.8,24.9,47.5,35.4s83.7,15.1,124.3,18.1s64.8,5.3,89,11.3
	s12.8,15.8-4.5,22.6s-80.7,7.5-143.2,0s-81.4-33.9-81.4-33.9l-31.7,1.5l3,50.5h21.9c0,0,0-7.5,3-13.6s17.3-3.8,62.6,5.3
	s86.7,12.8,165.8,4.5s87.4-22.6,89.7-36.9s-18.8-28.6-55-35.4s-116.8-13.6-153.8-15.1s-64.1-8.3-69.3-19.6
	c-5.3-11.3,43.7-15.8,76.9-17.3s64.8-0.8,105.5,11.3s44.5,24.9,44.5,24.9l33.9-2.3l-9.8-47.5h-21.9c2.3,18.9-7.5,15.1-7.5,15.1
	s-61-11.3-93.5-14.3c-14.8-1.4-35.2-2.3-55.7-2.3C186.6,216.3,162,217.6,146,220.9"/>
<path class="st4" d="M254.4,142.5v13.6c0,0,10.6-3,11.3,11.3s4.5,199.7,4.5,211.8s-14.3,23.4-29.4,23.4s-27.1-6-27.1-27.1
	s5.2-195.9,6.8-205.8c2.5-15.8,12.7-14.8,12.7-14.8l0.1-12.4h-55.8v13.6c0,0,15.8-1.5,16.6,10.6s0,223.9,0,223.9s3.8,26.4,40,27.1
	s58-9.8,58.8-32.4s0-204.3,0-216.3s6-12.1,9-12.8c2.2-0.4,4.5-0.4,6.8,0v-13.6h-54.3"/>
<path class="st1" d="M53,33.3v4.8h3.9v19.6c0.1,2.1-0.1,4.2-0.5,6.2c-0.3,1.2-1.1,2.2-2.1,2.8c-1.4,0.8-3,1.1-4.7,1
	c-1.5,0.1-2.9-0.4-4.2-1.2c-1-0.7-1.7-1.7-2-2.9c-0.3-2.1-0.5-4.1-0.4-6.2V38.2h4v-4.8H33.7v4.8h4.2v19.6c-0.1,2.2,0.1,4.4,0.4,6.6
	c0.3,1.4,0.9,2.8,1.7,4c1,1.3,2.3,2.4,3.9,3c2,0.8,4.2,1.2,6.4,1.1c2,0.1,4.1-0.4,5.9-1.2c1.5-0.7,2.8-1.8,3.8-3.2
	c0.8-1.2,1.4-2.5,1.6-3.9c0.3-2,0.4-4,0.3-5.9V38.2h4.3v-4.8L53,33.3"/>
<polygon class="st1" points="90.8,33.3 90.8,38.2 95.6,38.2 95.6,63.4 80.7,33.3 69.1,33.3 69.1,38.2 73.9,38.2 73.9,67.2 
	69.1,67.2 69.1,72 83,72 83,67.2 78.1,67.2 78.1,39.4 94.4,72.4 99.7,72.4 99.7,38.2 104.8,38.2 104.8,33.3 "/>
<polygon class="st1" points="106.4,33.3 106.4,38.2 110.1,38.2 110.1,67.2 106.4,67.2 106.4,72 118.9,72 118.9,67.2 115.2,67.2 
	115.2,38.2 118.9,38.2 118.9,33.3 "/>
<path class="st1" d="M131.9,63.2c-2.3-3.1-3.4-6.9-3.3-10.7c-0.1-3.8,1-7.4,3.3-10.4c2-2.7,5.2-4.3,8.5-4.2c3.4,0,6.6,1.5,8.7,4.3
	c2.4,3,3.6,6.7,3.5,10.4c0.1,3.8-1.1,7.5-3.4,10.5c-2,2.8-5.2,4.4-8.7,4.4C137.1,67.6,133.9,66,131.9,63.2 M127.9,38.4
	c-3.3,3.9-5,9-4.9,14.1c0,3.4,0.7,6.8,2.1,10c3.7,8.6,13.7,12.5,22.2,8.8c2.3-1,4.3-2.4,5.9-4.3c3.3-3.8,5-8.6,5-14.4
	c0.2-5.2-1.6-10.2-4.9-14.2c-3.2-3.7-7.9-5.8-12.8-5.7C135.6,32.6,131,34.7,127.9,38.4"/>
<polygon class="st1" points="182.7,33.3 182.7,38.2 187.5,38.2 187.5,63.4 172.6,33.3 160.9,33.3 160.9,38.2 165.8,38.2 165.8,67.2 
	160.9,67.2 160.9,72 174.9,72 174.9,67.2 170,67.2 170,39.4 186.4,72.4 191.6,72.4 191.6,38.2 196.6,38.2 196.6,33.3 "/>
<path class="st1" d="M224.4,35.6c-3.1,3.7-3.8,8.9-1.5,13.2c0.8,1.5,2,2.7,3.5,3.5c2.2,1.1,4.4,2,6.8,2.6c1.9,0.5,3.7,1.3,5.4,2.4
	c1,1.1,1.6,2.5,1.4,4c0.1,1.7-0.6,3.4-1.7,4.6c-1.1,1.2-2.7,1.8-4.3,1.8c-3.3,0-6-2.1-8-6.3V58h-4.3v14h4.3v-3.2
	c2.1,2.4,5.2,3.8,8.4,3.8c2.9,0.1,5.6-1.1,7.6-3.2c2.1-2.2,3.2-5.1,3.1-8.2c0-2.2-0.5-4.3-1.5-6.2c-0.8-1.6-2-2.9-3.5-3.8
	c-2.1-1-4.3-1.9-6.5-2.5c-1.6-0.4-3.1-0.9-4.6-1.6c-0.8-0.4-1.5-1-1.9-1.7c-0.5-0.8-0.8-1.8-0.8-2.8c0-1.3,0.5-2.6,1.5-3.5
	c1.2-1,2.7-1.6,4.3-1.4c3.1,0,5.5,1.5,7.2,4.5v2.7h4.2V33.2h-4.2v2.6c-2.1-1.9-4.8-3-7.6-3C228.8,32.7,226.2,33.7,224.4,35.6"/>
<path class="st1" d="M256.9,38.2h3.2c1.7-0.1,3.4,0.1,5.1,0.5c1.1,0.4,2,1.2,2.5,2.2c0.7,1.3,1.1,2.8,1,4.3c0,2.7-0.6,4.7-1.9,5.7
	c-1.3,1.1-3.6,1.6-7,1.6h-2.9L256.9,38.2 M247.4,33.4v4.8h4.3v29h-4.3V72h13.8v-4.8h-4.4v-10h2.4c2.2,0.1,4.4-0.1,6.6-0.4
	c1.4-0.3,2.8-0.8,3.9-1.7c1.3-1,2.3-2.4,2.9-3.9c0.8-1.9,1.2-3.9,1.2-5.9c0.1-2.5-0.6-5-1.8-7.2c-0.9-1.8-2.5-3.2-4.5-3.9
	c-2.6-0.7-5.3-1-8-0.9h-12.1"/>
<path class="st1" d="M286.6,63.2c-2.3-3.1-3.4-6.9-3.3-10.7c-0.1-3.8,1-7.4,3.3-10.4c2-2.7,5.2-4.3,8.5-4.2c3.4,0,6.6,1.5,8.7,4.3
	c2.3,3,3.6,6.7,3.5,10.4c0.1,3.8-1.1,7.5-3.4,10.5c-2,2.8-5.2,4.4-8.7,4.4C291.8,67.6,288.6,66,286.6,63.2 M282.6,38.4
	c-3.3,3.9-5,9-4.8,14.1c0,3.4,0.7,6.8,2.1,10c3.7,8.6,13.6,12.5,22.2,8.8c2.3-1,4.3-2.4,5.9-4.3c3.3-3.8,5-8.6,5-14.4
	c0.2-5.2-1.6-10.3-5-14.2c-3.2-3.7-7.9-5.8-12.8-5.7C290.3,32.6,285.6,34.7,282.6,38.4"/>
<path class="st1" d="M325.8,38.2h4.4c1.3,0,2.7,0.1,4,0.3c0.9,0.3,1.7,0.9,2.2,1.7c0.6,1,0.9,2.1,0.9,3.2c0.1,1.2-0.2,2.5-0.9,3.6
	c-0.5,0.8-1.3,1.5-2.3,1.7c-1.4,0.3-2.8,0.5-4.3,0.4h-4L325.8,38.2 M316,33.3v4.8h4.7v29H316V72h14.2v-4.8h-4.4V54h4.8l7.8,18.1h7.4
	v-4.8h-4.2l-6-14.1c4.7-1.3,7-4.6,7-9.7c0.1-2.2-0.5-4.3-1.7-6.1c-1-1.5-2.5-2.7-4.2-3.2c-2.2-0.6-4.5-0.8-6.9-0.8L316,33.3"/>
<polygon class="st1" points="376,33.3 376,38.2 379.6,38.2 379.6,67.2 376,67.2 376,72 388.5,72 388.5,67.2 384.8,67.2 384.8,38.2 
	388.5,38.2 388.5,33.3 "/>
<polygon class="st1" points="412.6,33.3 412.6,38.2 416.6,38.2 408.1,64.1 399.5,38.2 403.4,38.2 403.4,33.3 390,33.3 390,38.2 
	394.2,38.2 405.6,72.4 410.4,72.4 421.5,38.2 425.7,38.2 425.7,33.3 "/>
<polygon class="st1" points="426.9,33.3 426.9,38.2 431.3,38.2 431.3,67.2 426.9,67.2 426.9,72 455.2,72 455.2,63.7 451,63.7 
	451,67.2 436.5,67.2 436.5,54.5 442.4,54.5 442.4,57 446.6,57 446.6,47.1 442.4,47.1 442.4,49.7 436.5,49.7 436.5,38.2 451,38.2 
	451,42.3 455.2,42.3 455.2,33.3 "/>
<polygon class="st1" points="346.2,33.3 346.2,42.4 350.5,42.4 350.5,38.2 357.5,38.2 357.5,67.2 353.1,67.2 353.1,72 367,72 
	367,67.2 362.6,67.2 362.6,38.2 369.6,38.2 369.6,42.4 373.8,42.4 373.8,33.3 "/>
<polygon class="st1" points="152.2,81.4 152.2,90.4 156.4,90.4 156.4,86.2 163.4,86.2 163.4,115.2 159.1,115.2 159.1,120.1 
	173,120.1 173,115.2 168.6,115.2 168.6,86.2 175.6,86.2 175.6,90.4 179.8,90.4 179.8,81.4 "/>
<polygon class="st1" points="63.3,81 54.3,107.5 45.3,81 33.7,81 33.7,85.8 37.8,85.8 37.8,114.8 33.7,114.8 33.7,119.7 45.7,119.7 
	45.7,114.8 42,114.8 42,85.8 53.6,120.1 54.6,120.1 66.3,85.8 66.3,114.8 62.3,114.8 62.3,119.7 75.1,119.7 75.1,114.8 71,114.8 
	71,85.8 75.1,85.8 75.1,81 "/>
<path class="st1" d="M85.8,110.6c-2.2-3.1-3.4-6.8-3.3-10.6c-0.1-3.8,1-7.5,3.3-10.5c2-2.7,5.2-4.3,8.5-4.2c3.4,0,6.6,1.6,8.7,4.3
	c2.3,2.9,3.6,6.6,3.4,10.4c0.1,3.8-1.1,7.5-3.4,10.5c-2,2.8-5.2,4.4-8.7,4.4C91,115,87.8,113.4,85.8,110.6 M81.8,85.8
	c-3.3,3.9-5,9-4.9,14.1c0,3.4,0.7,6.8,2.1,10c3.7,8.6,13.6,12.5,22.2,8.8c2.3-1,4.3-2.4,5.9-4.3c3.3-3.8,5-8.6,5-14.4
	c0.2-5.2-1.6-10.3-5-14.2c-3.2-3.7-7.9-5.8-12.8-5.7C89.5,80,84.9,82.1,81.8,85.8"/>
<polygon class="st1" points="135.7,81 135.7,85.8 140.5,85.8 140.5,111 125.5,81 113.9,81 113.9,85.8 118.8,85.8 118.8,114.8 
	113.9,114.8 113.9,119.7 127.9,119.7 127.9,114.8 123,114.8 123,87 139.3,120.1 144.6,120.1 144.6,85.8 149.6,85.8 149.6,81 "/>
<path class="st1" d="M253.9,102.3h2.9c1.6-0.1,3.2,0.1,4.7,0.5c1.1,0.3,2.1,1.1,2.7,2.1c0.7,1.1,1.1,2.5,1.1,3.8
	c0.1,1.4-0.3,2.9-1.1,4.1c-0.7,1-1.7,1.7-2.9,2c-1.8,0.3-3.7,0.5-5.5,0.4h-1.9L253.9,102.3 M253.9,86.2h3.2c4.4,0,6.6,1.8,6.6,5.5
	c0.1,1.6-0.4,3.1-1.5,4.3c-1,1-2.7,1.5-5.1,1.5h-3.2L253.9,86.2 M244.6,81.4v4.8h4.2v29h-4.2v4.8h11.6c2,0,4.1-0.1,6.1-0.4
	c1.5-0.3,2.9-0.9,4.1-1.7c1.3-0.9,2.3-2.2,3-3.6c0.8-1.6,1.2-3.4,1.1-5.2c0-2.1-0.5-4.1-1.5-5.9c-1-1.7-2.5-3-4.4-3.7
	c1.4-0.7,2.5-1.9,3.1-3.3c0.7-1.5,1.1-3.2,1.1-4.9c0.1-2.2-0.6-4.3-1.8-6.1c-0.9-1.5-2.4-2.7-4.1-3.2c-2.3-0.5-4.6-0.7-7-0.6
	L244.6,81.4"/>
<polygon class="st1" points="333.1,81 333.1,85.8 338,85.8 338,111 323,81 311.4,81 311.4,85.8 316.3,85.8 316.3,114.8 311.4,114.8 
	311.4,119.7 325.4,119.7 325.4,114.8 320.5,114.8 320.5,87 336.8,120.1 342.1,120.1 342.1,85.8 347.1,85.8 347.1,81 "/>
<polygon class="st1" points="384.5,81.4 384.5,86.2 388.1,86.2 388.1,115.2 384.5,115.2 384.5,120.1 396.9,120.1 396.9,115.2 
	393.3,115.2 393.3,86.2 396.9,86.2 396.9,81.4 "/>
<path class="st1" d="M404.2,83.1c-2,2.1-3,4.9-2.8,7.8c-0.1,1.9,0.4,3.8,1.3,5.4c0.8,1.5,2,2.7,3.5,3.5c2.2,1.1,4.4,2,6.8,2.6
	c1.9,0.5,3.7,1.3,5.3,2.4c1.1,1.1,1.6,2.5,1.4,4c0.1,1.7-0.6,3.3-1.8,4.5c-1.1,1.1-2.7,1.8-4.2,1.8c-3.3,0-6-2.1-8-6.3v-3.4h-4.2v14
	h4.2v-3.2c2.1,2.4,5.2,3.8,8.4,3.8c2.9,0.1,5.6-1.1,7.6-3.2c2.1-2.2,3.2-5.1,3.1-8.2c0-2.2-0.5-4.3-1.5-6.2c-0.8-1.6-2-2.9-3.5-3.9
	c-2.1-1.1-4.3-1.9-6.5-2.5c-1.6-0.4-3.1-0.9-4.6-1.6c-0.8-0.4-1.5-1-1.9-1.7c-0.5-0.8-0.8-1.8-0.8-2.8c0-1.3,0.5-2.6,1.5-3.5
	c1.2-1,2.7-1.6,4.3-1.5c3.1,0,5.5,1.5,7.2,4.5v2.7h4.2V80.6H419v2.6c-2.1-1.9-4.8-3-7.6-3C408.7,80.1,406.1,81.1,404.2,83.1"/>
<polygon class="st1" points="426.9,81.4 426.9,86.2 431.3,86.2 431.3,115.2 426.9,115.2 426.9,120 455.2,120 455.2,111.7 451,111.7 
	451,115.2 436.5,115.2 436.5,102.6 442.4,102.6 442.4,105 446.7,105 446.7,95.2 442.4,95.2 442.4,97.7 436.5,97.7 436.5,86.2 
	451,86.2 451,90.3 455.2,90.3 455.2,81.4 "/>
<path class="st1" d="M194.7,85.7h0.5l4.5,16.2H190L194.7,85.7z M191.8,81.4l-1.8,5.1l-9.1,28.8h-4.1v4.8h13.4v-4.8h-4.1l2.6-8.8H201
	l2.5,8.8h-4.2v4.8h13.3v-4.8h-3.8l-7.8-24l0,0l-0.9-2.8l-0.9-2.8l0,0l-1.4-4.4L191.8,81.4"/>
<path class="st1" d="M291.1,85.7h0.5l4.5,16.2h-9.7L291.1,85.7z M288.2,81.4l-1.8,5.1l-9.1,28.8h-4.1v4.8h13.4v-4.8h-4.1l2.6-8.8
	h12.3l2.5,8.8h-4.2v4.8H309v-4.8h-3.8l-7.7-23.9l0,0l-0.9-2.8l-0.9-2.8l0,0l-1.4-4.4L288.2,81.4"/>
<path class="st1" d="M362.9,85.7h0.5l4.5,16.2h-9.7L362.9,85.7z M360,81.4l-1.8,5.1l-9.1,28.8H345v4.8h13.4v-4.8h-4.1l2.6-8.8h12.3
	l2.5,8.8h-4.2v4.8h13.3v-4.8H377l-7.7-23.9l0,0l-0.9-2.8l-0.9-2.8l0,0l-1.4-4.4L360,81.4"/>
<polygon class="st1" points="216.6,81.4 216.6,86.2 221,86.2 221,115.2 216.6,115.2 216.6,120.1 241.6,120.1 241.6,107.5 
	236.8,107.5 236.8,115.2 226.4,115.2 226.4,86.2 230.5,86.2 230.5,81.4 "/>
<path class="st1" d="M21.6,256.3c-1.4-58.3-2-204.5-2.2-236.9h446.2c-0.1,32.2-0.7,178.5-2.2,236.9
	c-3.4,138.9-81.8,252.6-220.9,320.3C103.4,508.9,25,395.2,21.6,256.3 M0.8,0.8v12.6c0,7.3,0.6,178.8,2.2,243.4
	C6.6,404,89.8,524,237.2,594.7l3.4,1.5l4.2-0.1l3.1-1.5C395.2,523.9,478.4,403.9,482,256.7c1.6-64.6,2.2-236.1,2.2-243.5V0.8H0.8"/>
<path class="st0" d="M464.8,20.1c-0.1,33.7-0.7,178.2-2.2,236.1c-3.4,138.5-81.5,251.8-220.2,319.5C103.7,508,25.6,394.7,22.2,256.2
	C20.8,198.4,20.2,54,20,20.1L464.8,20.1 M19.4,18.6v0.8l0,0V18.6l-0.5,0.2l-0.2,0.6c0.1,32.5,0.7,178.6,2.2,236.9
	c3.4,139.2,82.1,253.2,221.4,321h0.7c139.3-67.8,218-181.8,221.4-321c1.4-58.4,2-204.7,2.2-236.9l-0.2-0.6l-0.5-0.2L19.4,18.6
	 M237.5,594C90.3,523.3,7.4,403.6,3.8,256.7C2.2,192.2,1.6,20.6,1.6,13.3V1.5h481.9v11.7c0,7.4-0.6,179-2.2,243.5
	c-3.7,146.9-86.6,266.6-233.8,337.3l-2.9,1.4l-3.9,0.1L237.5,594 M0.8,0L0.2,0.2L0,0.8v12.6c0,7.3,0.6,178.8,2.2,243.4
	c3.6,147.5,87,267.8,234.6,338.6l0,0l1.8,0.8h1.9l0,0h5.9l1.7-0.8c147.6-70.8,231-191.2,234.6-338.6c1.6-64.6,2.2-236.1,2.2-243.5
	V0.7l-0.2-0.5L484.1,0H0.8"/>
</svg>
