<?xml version="1.0" encoding="utf-8"?>
<!-- Generator: Adobe Illustrator 26.0.2, SVG Export Plug-In . SVG Version: 6.00 Build 0)  -->
<svg version="1.1" id="Calque_1" xmlns="http://www.w3.org/2000/svg" xmlns:xlink="http://www.w3.org/1999/xlink" x="0px" y="0px"
	 width="451.1px" height="450px" viewBox="0 0 451.1 450" style="enable-background:new 0 0 451.1 450;" xml:space="preserve">
<style type="text/css">
	.st0{fill:#FFD30F;}
	.st1{fill:#1D1D1B;}
</style>
<path class="st0" d="M370.6,116.2l-2.5-1.5C279.4,64.3,170.7,64.4,82,114.8l-2.4,1.4c-8,4.6-12.6,13.6-11.7,22.8l0.3,3.6
	c9.3,97.7,68,183.8,155.6,228l1.4,0.7l3.8-2c87.2-45.1,145.1-131.9,153.4-229.7l0.1-0.9C383.2,129.6,378.6,120.8,370.6,116.2"/>
<path class="st1" d="M225.1,104.6c45,0,90,11.4,129.5,34.3c-7.6,84.2-56,159.3-129.5,201.1c-73.2-41.6-121.5-116.2-129.5-200
	l-0.1-1.1C135,116.1,180.1,104.6,225.1,104.6 M225.1,91.6c-48.3,0-95.3,12.5-136.1,36l-7,4l0.5,8.1l0.1,1.1v0.2v0.2
	c8.4,87.9,59.2,166.5,136,210.1l6.4,3.6l6.4-3.6c77.2-43.9,128-122.8,136.1-211.2l0.8-8.3l-7.2-4.2
	C320.4,104.1,273.4,91.6,225.1,91.6L225.1,91.6z"/>
<path class="st1" d="M120.8,204.5l26.9-1.6c0.6,4.1,1.8,7.3,3.6,9.4c2.9,3.5,7.1,5.2,12.5,5.2c4,0,7.2-0.9,9.3-2.7
	c2-1.4,3.2-3.7,3.3-6.2c-0.1-2.4-1.2-4.6-3.1-6c-2.1-1.8-6.9-3.4-14.5-5c-12.4-2.6-21.2-6.1-26.5-10.5c-5.1-4-8.1-10.1-8-16.6
	c0-4.5,1.5-8.9,4.1-12.6c2.7-3.9,6.8-7,12.3-9.3s13-3.4,22.5-3.4c11.7,0,20.6,2.1,26.7,6.2c6.1,4.1,9.8,10.6,11,19.5l-26.6,1.5
	c-0.7-3.9-2.2-6.7-4.5-8.5s-5.4-2.6-9.4-2.6c-3.3,0-5.8,0.7-7.4,2c-1.6,1.1-2.5,2.9-2.5,4.8c0.1,1.5,0.8,2.9,2.1,3.7
	c1.3,1.1,4.5,2.2,9.5,3.2c12.4,2.5,21.2,5.1,26.5,7.6s9.2,5.8,11.7,9.6c2.4,3.8,3.7,8.3,3.7,12.8c0,5.5-1.7,10.8-4.9,15.3
	c-3.4,4.8-8.1,8.5-13.6,10.6c-5.8,2.4-13.2,3.6-22,3.6c-15.6,0-26.3-2.8-32.3-8.5C125,220.4,121.4,212.7,120.8,204.5"/>
<polygon class="st1" points="217.7,146.8 254.9,146.8 269.1,199.2 283.2,146.8 320.4,146.8 320.4,233 297.2,233 297.2,167.2 
	279.5,233 258.5,233 240.8,167.2 240.8,233 217.7,233 "/>
<path class="st1" d="M412.6,85l6.8,3.4c-1.4,3-2,5.4-1.6,7.5c0.3,2.1,1.6,3.9,3.4,5c1.6,1.3,3.8,1.8,5.8,1.4
	c1.7-0.4,3.2-1.4,4.2-2.9c0.6-0.8,1-1.9,1-2.9c-0.1-1.2-0.5-2.3-1.1-3.3c-0.5-0.8-1.9-2.6-4-5.2c-2.7-3.4-4.3-6.3-4.6-8.9
	c-0.5-3.6,0.4-7.2,2.5-10.2c1.3-2,3.1-3.7,5.2-4.9c2-1.2,4.4-1.7,6.7-1.5c2.6,0.3,5.1,1.2,7.2,2.7c4,2.7,6.3,5.8,6.8,9.4
	s-0.4,7.3-2.8,11.1l-6.7-3.9c1.1-2.3,1.5-4.2,1.2-5.7c-0.5-1.7-1.6-3.2-3.2-4.1c-1.5-1.2-3.5-1.7-5.4-1.4c-1.1,0.2-2.1,0.9-2.7,1.9
	c-0.6,0.9-0.9,2-0.7,3.1c0.2,1.4,1.6,3.6,4.1,6.7c2,2.3,3.7,4.8,5,7.6c0.8,2.1,1.1,4.3,0.8,6.5c-0.4,2.7-1.5,5.2-3,7.4
	c-1.5,2.3-3.5,4.2-5.9,5.6c-2.2,1.3-4.8,1.9-7.3,1.7c-2.9-0.4-5.6-1.4-7.9-3.1c-4-2.7-6.3-5.9-6.9-9.8c-0.6-3.8,0.4-8.2,3.1-13"/>
<rect x="383.1" y="68.8" transform="matrix(0.4904 -0.8715 0.8715 0.4904 144.4488 392.2448)" class="st1" width="49.1" height="7.7"/>
<path class="st1" d="M363.7,51.4c1.7-3.9,4-7.5,6.8-10.7c1.8-1.9,3.8-3.4,6.1-4.6c2-1.1,4.1-1.8,6.3-1.9c2.9-0.1,5.7,0.4,8.3,1.7
	c4.9,2.1,8.5,6.5,9.5,11.8c1.2,5.5,0.1,11.9-3.2,19.1S390,79,385.1,81.6c-8.3,4.4-18.6,1.3-23-7c-0.7-1.4-1.3-2.8-1.6-4.3
	C359.4,64.8,360.4,58.5,363.7,51.4 M371.1,54.4c-2.3,5.1-3.2,9.3-2.5,12.8c0.5,4.9,4.9,8.4,9.8,7.9c1.4-0.2,2.8-0.7,4-1.5
	c3-1.8,5.7-5.2,8.1-10.4s3.3-9.4,2.6-12.6c-0.8-5-5.4-8.5-10.5-7.7c-1.3,0.2-2.5,0.6-3.5,1.3C376.2,45.9,373.5,49.3,371.1,54.4"/>
<polygon class="st1" points="335.4,67.3 348.8,28.7 338,25 340.8,17.2 369.5,27.1 366.8,35 356.1,31.3 342.7,69.8 "/>
<polygon class="st1" points="293.4,55.8 305.2,8.1 312.4,9.9 319.9,45.6 327.7,13.7 334.7,15.4 322.9,63.1 315.4,61.2 308.1,26.2 
	300.4,57.5 "/>
<path class="st1" d="M257,26c0.5-4.2,1.6-8.3,3.4-12.2c1.1-2.3,2.6-4.4,4.4-6.2c1.5-1.6,3.4-2.9,5.5-3.7c2.7-1,5.6-1.3,8.4-0.8
	c5.3,0.6,10,3.8,12.5,8.5c2.8,4.9,3.6,11.3,2.5,19.2s-3.6,13.8-7.5,17.8c-6.6,6.7-17.4,6.7-24,0.1c-1.1-1.1-2-2.3-2.8-3.7
	C256.8,40.1,255.9,33.8,257,26 M264.9,26.8c-0.7,5.5-0.3,9.8,1.3,12.9c1.6,3.1,3.9,4.9,7,5.3c3.1,0.4,6.2-0.8,8.1-3.2
	c2.3-2.6,3.9-6.7,4.7-12.3c0.8-5.6,0.4-9.9-1.2-12.9c-2.2-4.6-7.7-6.5-12.3-4.3c-1.1,0.6-2.2,1.3-3,2.3
	C267.2,17.1,265.7,21.2,264.9,26.8"/>
<polygon class="st1" points="212.8,49.1 213.6,0 225.2,0.2 231.5,33.8 239,0.5 250.6,0.7 249.7,49.8 242.5,49.6 243.2,11 
	234.9,49.5 227.5,49.4 220.6,10.6 219.9,49.2 "/>
<polygon class="st1" points="150.7,57 142.3,8.6 170.2,3.7 171.7,11.9 151.3,15.5 153.2,26.2 172.1,22.9 173.6,31.1 154.6,34.4 
	156.9,47.5 178,43.8 179.4,52 "/>
<path class="st1" d="M99.8,20l13.6-3.9c2.3-0.8,4.8-1.2,7.3-1.1c2.5,0.2,4.9,1.2,6.8,2.7c2.3,1.8,4.2,4.1,5.7,6.6
	c1.9,3.4,3.4,7,4.4,10.8c1,3.4,1.6,6.9,1.8,10.4c0.1,3.2-0.4,6.5-1.5,9.5c-0.9,2.1-2.3,3.9-4.1,5.3c-1.9,1.3-4,2.3-6.3,2.9l-14,4
	L99.8,20z M109.5,25.9l9,31.2l5.6-1.6c1.5-0.4,3-1,4.4-1.8c1.1-0.7,1.9-1.7,2.5-2.8c0.6-1.6,0.8-3.4,0.6-5.1c-0.2-3-0.8-6-1.7-8.9
	c-0.7-2.8-1.8-5.6-3.2-8.2c-0.8-1.6-2-2.9-3.4-4c-1.2-0.8-2.6-1.2-4.1-1.2c-2.1,0.2-4.2,0.6-6.2,1.3L109.5,25.9z"/>
<path class="st1" d="M109.4,68.4l-7.8,3.2l-7.3-9l-14.2,5.9L81.4,80l-7.5,3l-5-51.1l7.6-3.1L109.4,68.4z M88.8,55.8L77,41l2.2,18.8
	L88.8,55.8z"/>
<polygon class="st1" points="60.6,90.3 41.8,54.2 31.7,59.4 27.9,52 54.9,38 58.7,45.4 48.7,50.6 67.5,86.8 "/>
<path class="st1" d="M12.4,101.1l5.8-4.9c2.2,2.5,4.2,4,6.2,4.5c2.1,0.5,4.2,0.1,5.9-1.1c1.8-1,3.1-2.7,3.6-4.8c0.3-1.7,0-3.5-1-5
	c-0.5-0.9-1.3-1.6-2.3-2.1c-1.1-0.4-2.3-0.5-3.5-0.3c-1,0.2-3.1,0.7-6.4,1.6c-4.2,1.2-7.5,1.4-10,0.7c-3.5-1-6.5-3.3-8.4-6.3
	c-1.3-2-2.2-4.4-2.4-6.8c-0.3-2.3,0.2-4.7,1.3-6.8c1.3-2.3,3.2-4.2,5.4-5.6c4-2.6,7.8-3.5,11.3-2.5c3.5,0.9,6.6,3.3,9.1,7l-6.2,4.6
	c-1.7-1.9-3.2-3.1-4.8-3.4c-1.8-0.3-3.6,0.2-5,1.3c-1.7,1-2.9,2.5-3.5,4.4c-0.3,1.1,0,2.3,0.6,3.2c0.6,0.9,1.5,1.6,2.6,1.9
	c1.4,0.3,4,0,7.8-1.1c2.9-1,5.9-1.5,8.9-1.6c2.2,0,4.4,0.7,6.3,1.9c2.3,1.5,4.2,3.4,5.5,5.7c1.5,2.3,2.5,4.9,2.8,7.6
	c0.3,2.6-0.1,5.1-1.4,7.4c-1.5,2.5-3.5,4.6-6,6.1c-4.1,2.7-8,3.5-11.7,2.5C19.4,108.1,15.8,105.5,12.4,101.1"/>
<polygon class="st1" points="301.8,440.2 296.8,420.1 277.7,395.6 285.6,393.6 298.2,410.5 301.2,389.7 308.9,387.8 303.6,418.5 
	308.6,438.5 "/>
<path class="st1" d="M246.9,399.6l13.7-1.7c2-0.3,4.1-0.4,6.1-0.3c1.4,0.2,2.7,0.7,3.8,1.5c1.3,1,2.4,2.3,3.1,3.7
	c0.9,1.7,1.5,3.6,1.8,5.6c0.3,2.2,0.1,4.4-0.5,6.4c-0.5,1.8-1.5,3.5-3,4.7c2.2,0.6,4.1,1.9,5.3,3.8c1.4,2.1,2.3,4.6,2.6,7.1
	c0.3,2.2,0.2,4.4-0.3,6.6c-0.3,2-1.1,3.8-2.3,5.4c-1.1,1.4-2.6,2.4-4.3,2.9c-2.7,0.6-5.5,1.1-8.3,1.4l-11.6,1.5L246.9,399.6z
	 M254.9,406.8l1.4,11.2l4.5-0.6c1.7-0.2,3.4-0.4,5-0.8c1.1-0.3,2-1.1,2.6-2.1c0.6-1.2,0.8-2.6,0.5-3.9c-0.1-1.3-0.6-2.5-1.3-3.6
	c-0.7-0.9-1.7-1.4-2.8-1.4c-2,0.1-4,0.3-5.9,0.6L254.9,406.8z M257.3,426.1l1.7,13l6.4-0.8c1.6-0.1,3.2-0.4,4.7-0.9
	c1-0.4,1.8-1.2,2.3-2.3c0.5-1.4,0.7-2.8,0.4-4.3c-0.1-1.3-0.5-2.5-1.2-3.6c-0.6-0.9-1.4-1.6-2.4-2c-1-0.3-3.1-0.3-6.2,0.1
	L257.3,426.1z"/>
<path class="st1" d="M226,431.2v-8.3h15v19.5c-1.7,2.2-3.8,4-6.3,5.3c-2.5,1.5-5.4,2.3-8.4,2.3c-3.4,0.1-6.7-1.1-9.4-3.2
	c-2.8-2.4-4.9-5.6-6-9.2c-1.4-4.2-2-8.6-2-13.1c-0.1-4.6,0.7-9.3,2.2-13.6c1.2-3.6,3.5-6.8,6.6-9.2c2.4-1.7,5.3-2.6,8.2-2.5
	c4.3,0,7.6,1.3,10,3.8s4,6.1,4.7,10.6l-6.9,1.8c-0.3-2.1-1.3-4.1-2.7-5.7c-1.3-1.4-3.1-2.1-5-2.1c-3,0-5.7,1.6-7.2,4.1
	c-1.8,2.7-2.7,6.8-2.7,12.2c0,5.8,0.9,10.2,2.7,13.1s4.2,4.4,7.1,4.3c1.5,0,3-0.4,4.4-1.2c1.4-0.8,2.7-1.8,3.8-3v-6.2L226,431.2z"/>
<path class="st1" d="M175.9,396.3l6.9,0.8l-3.2,26.4c-0.4,2.7-0.6,5.4-0.8,8.2c0,1.8,0.5,3.6,1.5,5.1c1,1.4,2.6,2.3,4.3,2.4
	c1.6,0.3,3.3-0.1,4.6-1.2c1.2-1.1,2-2.5,2.3-4c0.6-2.7,1-5.5,1.3-8.2l3.3-27l6.9,0.8l-3.2,25.6c-0.4,4.2-1.1,8.3-2.1,12.3
	c-0.5,2.1-1.5,4.1-2.8,5.9c-1.2,1.5-2.7,2.7-4.5,3.5c-2.1,0.8-4.5,1.1-6.8,0.7c-3.3-0.4-5.7-1.2-7.2-2.5s-2.7-2.9-3.5-4.7
	c-0.8-1.8-1.2-3.7-1.3-5.6c0-4.2,0.3-8.3,0.8-12.5L175.9,396.3z"/>
<path class="st1" d="M130.6,436l11.8-47.7l14.2,3.5c3.6,0.9,6,2,7.5,3.2c1.5,1.5,2.5,3.4,2.7,5.5c0.4,2.6,0.3,5.3-0.4,7.9
	c-0.7,3.1-2.2,6-4.4,8.3c-2.1,2-4.8,3-7.7,2.8c1.1,1.5,2,3.1,2.6,4.9c0.8,2.8,1.5,5.8,1.9,8.7l1.8,10.3l-8.1-2l-2.3-11.6
	c-0.5-2.7-1.1-5.3-1.8-7.9c-0.3-1-0.8-1.8-1.5-2.5c-1-0.7-2.1-1.2-3.3-1.4l-1.4-0.3l-5,19.9L130.6,436z M144.1,410.2l5,1.2
	c3.2,0.8,5.3,1.1,6.2,0.9c1-0.2,1.8-0.8,2.4-1.5c0.8-1,1.3-2.2,1.6-3.4c0.4-1.3,0.4-2.8,0.1-4.1c-0.3-1.1-1.1-2-2.1-2.5
	c-1.6-0.6-3.2-1-4.9-1.4l-5.3-1.3L144.1,410.2z"/>
</svg>
