<?xml version="1.0" encoding="utf-8"?>
<!-- Generator: Adobe Illustrator 26.0.2, SVG Export Plug-In . SVG Version: 6.00 Build 0)  -->
<svg version="1.1"
	 id="svg2" xmlns:cc="http://creativecommons.org/ns#" xmlns:dc="http://purl.org/dc/elements/1.1/" xmlns:inkscape="http://www.inkscape.org/namespaces/inkscape" xmlns:rdf="http://www.w3.org/1999/02/22-rdf-syntax-ns#" xmlns:sodipodi="http://sodipodi.sourceforge.net/DTD/sodipodi-0.dtd" xmlns:svg="http://www.w3.org/2000/svg"
	 xmlns="http://www.w3.org/2000/svg" xmlns:xlink="http://www.w3.org/1999/xlink" x="0px" y="0px" width="700px" height="1000px"
	 viewBox="0 0 700 1000" style="enable-background:new 0 0 700 1000;" xml:space="preserve">
<style type="text/css">
	.st0{fill:#FFFFFF;}
	.st1{fill:#0090D7;}
	.st2{fill:#002D59;}
</style>
<sodipodi:namedview  bordercolor="#666666" borderopacity="1" gridtolerance="10" guidetolerance="10" id="namedview102" inkscape:current-layer="svg2" inkscape:cx="160.98455" inkscape:cy="506.13222" inkscape:pageopacity="0" inkscape:pageshadow="2" inkscape:window-height="788" inkscape:window-maximized="1" inkscape:window-width="1440" inkscape:window-x="0" inkscape:window-y="1" inkscape:zoom="0.79136297" objecttolerance="10" pagecolor="#ffffff" showgrid="false">
	</sodipodi:namedview>
<path id="path6" inkscape:connector-curvature="0" class="st0" d="M699.6,49.4l-11.4-4.1C603.7,15.2,516,0,427.3,0
	c-25.9,0-51.7,1.3-77.5,3.8C233.9,15.2,119.6,52.1,8.8,114l-8.7,4.9L0,119V484c0,296.7,312.1,492.9,325.4,501.1l24.1,14.9l0.3-0.2
	l0.3,0.2l24.1-14.9c13.3-8.2,325.4-204.4,325.4-501.1L699.6,49.4L699.6,49.4z"/>
<path id="path8" inkscape:connector-curvature="0" class="st1" d="M254.9,333.4c147.2-69.1,237.4-40.4,272.6-6.6
	c-8.7-19.1-24.5-30.4-24.5-30.4s46.8,6.4,74.9,21.2c-19.6-15.7-13.4-12.7-17.9-19c-7.3-10-17-17.4-22.9-20.8
	c9.9,0.8,38.4,2,77.9,27.1c-27.5-26.8-90.7-48.3-128.5-47.2C350,261.8,254.9,333.4,254.9,333.4L254.9,333.4z"/>
<path id="path10" inkscape:connector-curvature="0" class="st1" d="M351,293.4c-3.7,0.9-7.4,1.9-11,3
	C339.9,296.4,344,295.3,351,293.4z"/>
<path id="path12" inkscape:connector-curvature="0" class="st1" d="M614,485.4c-7.6,40.7-31.3,76.1-31.3,76.1s17.2-10.4,31.3-24.4
	c0,0-22.5,45.3-34.8,54.4c-12.3,9.1-87.8,48.6-95,49.3c-7.3,0.7,89.6-100.1,103.7-123.3C602.1,494.2,614,485.4,614,485.4L614,485.4z
	"/>
<path id="path14" inkscape:connector-curvature="0" class="st1" d="M67.9,544.7c17-68.2,57-99.7,57-99.7s9.8-30.8,14.2-41.6
	C119.9,409.3,51.2,484.3,67.9,544.7L67.9,544.7z"/>
<path id="path16" inkscape:connector-curvature="0" class="st2" d="M462,675.5c0.9-0.4,1.8-0.8,2.7-1.2c2.9-1.3,5.8-2.7,8.7-4.1
	c0.5-0.2,1-0.4,1.5-0.7c3.3-1.6,6.5-3.2,9.7-4.8c0.8-0.4,1.7-0.9,2.5-1.3c2.6-1.4,5.2-2.7,7.8-4.1c0.7-0.4,1.4-0.7,2.1-1.1
	c3.1-1.7,6.2-3.4,9.2-5.2c0.7-0.4,1.4-0.8,2.1-1.2c2.5-1.4,5-2.9,7.5-4.4c0.7-0.5,1.5-0.9,2.2-1.3c3-1.8,5.9-3.7,8.9-5.5
	c0.5-0.3,1-0.6,1.5-1c2.5-1.6,5-3.2,7.5-4.9c0.7-0.5,1.5-1,2.2-1.5c2.9-2,5.7-3.9,8.5-5.9c0.1-0.1,0.2-0.2,0.3-0.2
	c2.7-1.9,5.4-3.9,8-5.8c0.7-0.5,1.3-1,2-1.5c2.6-2,5.2-3.9,7.7-5.9c0.1-0.1,0.3-0.2,0.4-0.3c2.7-2.1,5.4-4.3,8-6.4
	c0.6-0.5,1.1-0.9,1.6-1.4c2.3-1.9,4.6-3.9,6.9-5.8c0.3-0.3,0.6-0.5,0.9-0.8c2.5-2.2,5.1-4.5,7.5-6.7c0.4-0.4,0.8-0.7,1.2-1.1
	c2.2-2,4.3-4.1,6.5-6.1c0.3-0.3,0.7-0.6,1-1c2.4-2.4,4.8-4.7,7.1-7.1c0.2-0.2,0.3-0.4,0.5-0.5c2.2-2.2,4.3-4.5,6.4-6.7
	c0.3-0.3,0.6-0.7,0.9-1c4.5-4.9,8.8-9.8,12.9-14.7c0.3-0.3,0.5-0.6,0.8-0.9c4.1-5,8.1-10.1,11.8-15.2c0.2-0.2,0.3-0.5,0.5-0.7
	c3.8-5.2,7.4-10.4,10.7-15.7c0.1-0.1,0.1-0.2,0.2-0.3c5.1-8.1,9.8-16.2,13.9-24.4c0,0,0-0.1,0-0.1c2.8-5.5,5.3-11,7.5-16.5
	c0-0.1,0.1-0.1,0.1-0.2c2.3-5.5,4.3-11,6.1-16.5c0-0.1,0-0.1,0-0.1c1.8-5.5,3.3-11,4.6-16.5c6.2-26.5,6.5-52.7,0-77.5v0
	c-0.9-3.3-1.8-6.6-3-9.9c-0.1-0.2-0.2-0.4-0.2-0.7c-0.5-1.4-1-2.8-1.5-4.2c-0.6-1.6-1.3-3.3-2-4.9c-6.5-15.3-15.5-29.1-26.7-41.2
	c13,9.9,24.2,21.2,33.3,33.7V70.2C466.5-6.7,233.5,17,17.4,137.8v342.9c0,0.2,0,0.4,0,0.7h0c0,287.3,304.3,478.5,317.3,486.4
	l15.1,9.3l15.1-9.3c12.2-7.5,284.3-178.5,314.5-439.6c-41.7,68.3-122.5,130.5-225.3,165.1c-60,20.2-119.8,28.4-174,25.8
	c54.3-1.6,113.3-14.4,171.7-39.2C455.2,678.5,458.6,677,462,675.5L462,675.5z M634.3,322.4c9.8,10.6,17.5,22.5,22.9,35.4
	c19.8,46.6,9.6,103.3-28.8,159.7c-29.4,43.3-72.4,82.1-124.2,113c17-12.6,33-26.5,47.5-42c22.6-24,41.8-51.6,54.6-82
	c12.7-30.3,18.8-63.4,15.5-95.1c-2.8,15.7-7.1,30.7-12.7,45.1c-5.6,14.4-12.5,28-20.6,40.9c-16.1,25.7-36.3,48.4-59,68.2
	c-22.7,19.8-47.7,36.9-74.1,51.5c-13.2,7.3-26.7,14.1-40.5,20.1c-13.8,6.1-27.9,11.6-42.2,16.4c-14.3,4.9-28.8,9-43.4,12.5
	c-14.6,3.6-29.4,6.2-44.3,8.2c-29.7,3.9-59.7,4.7-89,0.4c-29.1-4.2-57.5-13.8-81-31.6c-11.7-8.8-32.9-23.2-44-57.1
	c-11.1-33.9,1.4-92.3,34.8-141.6c9.6-14.2,20.7-27.8,33.1-41c-4,7.4-7.7,14.9-11,22.6c-11.9,27.5-19.1,57.2-19.6,87.1
	c-0.3,14.9,1.3,29.9,5,44.2c3.7,14.3,9.5,28,17.6,39.8c-9-27.3-9.4-55.6-4.4-82.3c5-26.8,15.2-52.2,28.3-75.7
	c26.6-46.9,65.5-86.3,111.2-112.7c5.7-3.3,11.5-6.4,17.5-9.2c3-1.4,6-2.8,9-4.1l9.3-3.9c6-2.4,12.4-4.8,18.7-7
	c6.4-2.1,12.8-4.1,19.2-6c25.9-7.2,52.5-12,79.4-13.6c26.9-1.7,54.2-0.4,81,4.8c26.8,5.2,53.1,14.4,77.5,29.9
	c-8.8-11.4-19.8-21.5-32-29.9c-12.2-8.4-25.4-15.4-39.3-20.9c-1.8-0.7-3.6-1.4-5.5-2C557.9,270.7,605.4,290.9,634.3,322.4
	L634.3,322.4z M36.6,385c0,0,78.8-55.2,196.3-86.3C148.3,345.4,70.7,408.3,36.6,482.2V385z"/>
<path id="path18" inkscape:connector-curvature="0" class="st1" d="M17.4,126.3V146C233.5,25.2,466.6,1.5,682.6,78.4V58.7
	C466.6-18.2,233.5,5.5,17.4,126.3z"/>
<path id="path20" inkscape:connector-curvature="0" class="st2" d="M429.7,376.6c0-19.1-1.4-39-23.1-47.2
	c-40.7-13.7-96-9.2-131.4,20.4c-10.9,10.8-15.9,32.9-5.1,41.1c-75-29.4-85.5,173-24.9,129.9c-8.3,40.6,24,82.3,53.6,94.7
	c22.1,9.2,60.1,14.1,73.8-21.1c21.1,15.1,50.9,26.9,91.3-8.3c21.4-18.7,36.1-72.4,15.8-87C535.5,462.9,479.9,326.4,429.7,376.6
	L429.7,376.6z M376,497.5c-21.5,18.2-48.7,21.6-60.6,7.5c-11.9-14.1-4.1-40.2,17.5-58.4c21.6-18.2,48.7-21.5,60.6-7.5
	C405.5,453.2,397.7,479.3,376,497.5z"/>
<path id="path22" inkscape:connector-curvature="0" class="st1" d="M663.5,221.1C463.3,162.6,237.8,189,36.6,301.9
	c0-46.4,0-92.9,0-139.3C237.3,54.4,462.8,31.9,663.5,95.1C663.5,137.1,663.5,179.1,663.5,221.1z"/>
<path id="path78" inkscape:connector-curvature="0" class="st1" d="M264.5,884.2c0,0,35,6.2,85.3,6.2s85.9-6.2,85.9-6.2
	s-52.6,45.1-85.9,61c22.9-21.5,31.6-38.9,31.6-38.9s-10.9,11.7-17.6,15.1C313.2,910.1,282.7,894.2,264.5,884.2z"/>
<path id="path80" inkscape:connector-curvature="0" class="st1" d="M500.8,817c46.2-32.5,126.2-150.3,143.6-223
	c-31.6,46.5-91.8,90.7-132.2,112.8c16-3,44.8-12.6,64.4-20.9C568.9,723.9,532,780.2,500.8,817z"/>
<path id="path82" inkscape:connector-curvature="0" class="st1" d="M203.6,315.7c9.6-5.9,19.4-11.6,29.3-17
	C115.3,329.8,36.6,385,36.6,385v97.3c2.5-5.4,5.2-10.8,8.2-16v-75.3C44.8,390.9,107.1,347.3,203.6,315.7L203.6,315.7z"/>
<path id="path84" inkscape:connector-curvature="0" class="st1" d="M57.5,601.7c7.3,26.8,19.3,54.3,41.4,77.8
	c11.2,11.9,25.1,22.6,41,31c16.1,8.6,34.1,15,52.6,19.3c-28.4-9.4-54.3-24-72.4-42.2c25,13.8,54.1,19.9,82.9,20.3
	c30,0.5,60.1-4.3,89.9-11.6c-30.7,4.9-61.2,7.1-90.1,4.3c-27.9-2.7-54.3-10.7-75.3-24.6c9.4,0.9,18.6,0.6,27.2-0.7
	c-19.8-3.6-39-12.2-55.6-25.5C82.7,636.8,68.9,620,57.5,601.7z"/>
<path id="path86" inkscape:connector-curvature="0" class="st1" d="M332.9,453.5c21.6-18.1,48.7-21.5,60.6-7.5
	c3.1,3.7,4.9,8.2,5.4,13.1c0.8-7.7-0.9-14.7-5.4-20c-11.9-14.1-39-10.7-60.6,7.5c-15.9,13.4-24.3,31.2-22.8,45.2
	C311.4,479.2,319.5,464.8,332.9,453.5L332.9,453.5z"/>
<g id="g4369">
	<g id="g4356">
		<path id="path24" inkscape:connector-curvature="0" class="st2" d="M83.7,224.2c-4.2-19.4-8.5-38.7-12.7-58.1
			c-1.3,0.6-2.5,1.2-3.8,1.9c-3.8,1.8-7.5,3.7-11.2,5.6c0,36.5,0,73.1,0,109.6c4.5-2.4,9-4.7,13.6-7c-0.5-23.6-0.9-47.2-1.4-70.9
			c3.4,15.6,6.8,31.1,10.2,46.7c3.5-1.7,7-3.4,10.5-5.1c3.4-18.8,6.9-37.6,10.3-56.3c-0.5,24-1,47.9-1.4,71.9
			c4.6-2.1,9.2-4.2,13.8-6.2c0-36.2,0-72.4,0-108.6c-5.1,2.2-10.2,4.4-15.2,6.6C92.2,177.5,87.9,200.8,83.7,224.2L83.7,224.2z"/>
		<path id="path26" inkscape:connector-curvature="0" class="st2" d="M161.1,128.3c-4.5,1.6-8.9,3.2-13.4,4.9
			c-11.1,4.2-16.7,12.6-16.7,25c0,23.8,0,47.6,0,71.3c0,12.3,5.6,16,16.8,11.6c4.3-1.7,8.7-3.4,13.1-5c11.3-4.2,16.9-12.2,16.9-24.4
			c0-23.6,0-47.2,0-70.8C177.9,128.6,172.3,124.3,161.1,128.3L161.1,128.3z M163.9,215.7c0,4.2-1.8,7-5.5,8.4
			c-2.4,0.9-4.8,1.8-7.1,2.7c-4.2,1.6-6.3,0.3-6.3-3.9c0-23.1,0-46.1,0-69.2c0-4.2,2-7.1,6.1-8.6c2.2-0.8,4.4-1.6,6.5-2.4
			c4.2-1.5,6.3-0.1,6.3,4.1C163.9,169.7,163.9,192.7,163.9,215.7z"/>
		<path id="path28" inkscape:connector-curvature="0" class="st2" d="M226.9,159.4c-5.1-15.8-10.1-31.6-15.2-47.4
			c-4.7,1.3-9.4,2.7-14.1,4.2c0,35.7,0,71.5,0,107.2c4.7-1.5,9.4-3,14.1-4.4c0-23.3,0-46.7,0-70c5.1,14.8,10.1,29.5,15.2,44.3
			c0,7.1,0,14.2,0,21.2c4.7-1.3,9.4-2.6,14.1-3.9c0-35.5,0-71,0-106.5c-4.7,1.2-9.4,2.4-14.1,3.6C226.9,125,226.9,142.2,226.9,159.4
			L226.9,159.4z"/>
		<path id="path30" inkscape:connector-curvature="0" class="st2" d="M256.6,113.4c4.5-1,9.1-2.1,13.6-3c0,31.1,0,62.1,0,93.2
			c4.8-1.1,9.5-2.1,14.2-3.1c0-31,0-62,0-92.9c4.6-0.9,9.1-1.7,13.7-2.5c0-4.3,0-8.5,0-12.8c-13.9,2.4-27.7,5.2-41.5,8.3
			C256.6,104.8,256.6,109.1,256.6,113.4z"/>
		<path id="path32" inkscape:connector-curvature="0" class="st2" d="M339.7,86c-8.7,1.1-17.4,2.3-26,3.6c0,15.4,0,30.8,0,46.3
			c-4.3,4.9-8.6,9.9-12.9,15c4.3-0.8,8.6-1.5,12.9-2.2c0,15.4,0,30.8,0,46.3c4.8-5.5,9.5-11,14.3-16.4c0-10.7,0-21.4,0-32.1
			c4-0.6,7.9-1.1,11.9-1.6c11.4-1.5,17.1-8,17.1-19.8c0-7.6,0-15.3,0-22.9C357,90.1,351.2,84.6,339.7,86L339.7,86z M342.7,125.6
			c0,4.1-1.9,6.4-5.6,6.9c-3,0.4-6.1,0.8-9.1,1.3c0-11.1,0-22.3,0-33.4c2.8-0.4,5.5-0.8,8.3-1.1c4.3-0.5,6.4,1.3,6.4,5.4
			C342.7,111.5,342.7,118.5,342.7,125.6L342.7,125.6z"/>
		<path id="path34" inkscape:connector-curvature="0" class="st2" d="M411,93.1c0-4.2,0-8.4,0-12.6c-11.8,0.4-23.6,1-35.4,1.9
			c0,15.3,0,30.5,0,45.8c-4.3,4.6-8.6,9.2-12.9,13.8c4.3-0.4,8.6-0.9,12.9-1.2c0,15.3,0,30.6,0,45.8c11.8-1.1,23.6-1.9,35.4-2.5
			c0-4.2,0-8.4,0-12.6c-7,0.3-14,0.7-21.1,1.3c0-11,0-22.1,0-33.1c6.2-0.4,12.5-0.8,18.7-1.1c0-4.2,0-8.4,0-12.6
			c-6.2,0.3-12.5,0.6-18.7,1c0-11,0-22.1,0-33.1C397,93.6,404,93.3,411,93.1L411,93.1z"/>
		<path id="path36" inkscape:connector-curvature="0" class="st2" d="M442.9,80.1c-4.7,0-9.5,0-14.2,0c0,34.5,0,68.9,0,103.4
			c11.3-0.3,22.5-0.3,33.7-0.2c0-4.2,0-8.3,0-12.5c-6.5-0.1-13-0.2-19.5-0.1C442.9,140.6,442.9,110.4,442.9,80.1z"/>
		<path id="path38" inkscape:connector-curvature="0" class="st2" d="M492,82.1c-4.7-0.3-9.4-0.6-14.1-0.9c0,34.2,0,68.4,0,102.6
			c11.2,0.4,22.4,1.1,33.5,2c0-4.1,0-8.2,0-12.4c-6.4-0.5-12.9-1-19.4-1.3C492,142,492,112.1,492,82.1z"/>
		<path id="path40" inkscape:connector-curvature="0" class="st2" d="M526.7,187.1c4.7,0.5,9.3,1,14,1.5c0-33.9,0-67.7,0-101.5
			c-4.7-0.6-9.3-1.2-14-1.8C526.7,119.3,526.7,153.2,526.7,187.1z"/>
		<path id="path42" inkscape:connector-curvature="0" class="st2" d="M595.4,108.7c0-4.1,0-8.1,0-12.2C584,94.1,572.5,92,561,90.1
			c0,14.8,0,29.6,0,44.5c-4.2,3.4-8.4,6.9-12.6,10.4c4.2,0.6,8.4,1.2,12.6,1.8c0,14.8,0,29.6,0,44.5c11.5,1.7,22.9,3.6,34.3,5.8
			c0-4.1,0-8.1,0-12.2c-6.8-1.3-13.6-2.6-20.4-3.7c0-10.7,0-21.4,0-32.1c6.1,1,12.1,2.2,18.1,3.4c0-4.1,0-8.1,0-12.2
			c-6-1.2-12.1-2.3-18.1-3.4c0-10.7,0-21.4,0-32.1C581.7,106,588.6,107.3,595.4,108.7z"/>
		<path id="path44" inkscape:connector-curvature="0" class="st2" d="M646.6,163.9c5.4-0.8,8-5.5,8-14.2c0-7,0-14,0-21
			c0-11.4-5.1-18.6-15.5-21.5c-8.9-2.4-17.8-4.7-26.7-6.8c0,14.7,0,29.4,0,44.1c-4.1,3.1-8.3,6.3-12.4,9.5c4.1,0.9,8.3,1.8,12.4,2.7
			c0,14.7,0,29.4,0,44.1c4.6,1,9.1,2,13.7,3.1c0-14.7,0-29.3,0-44c2.8,0.7,5.5,1.4,8.2,2.1c3,15.4,5.9,30.8,8.9,46.2
			c4.3,1.1,8.6,2.3,12.8,3.5C652.9,195.7,649.7,179.8,646.6,163.9L646.6,163.9z M641.1,144.3c0,4.8-2,6.7-6.1,5.6
			c-3-0.8-6-1.5-8.9-2.3c0-10.6,0-21.2,0-31.9c3,0.8,6,1.5,8.9,2.3c4.1,1.1,6.1,4.1,6.1,8.9C641.1,132.8,641.1,138.5,641.1,144.3
			L641.1,144.3z"/>
	</g>
	<g id="g4327">
		<path id="path46" inkscape:connector-curvature="0" class="st0" d="M77.6,220.6c-4.2-19.3-8.4-38.7-12.6-58.1c-5,2.5-10,5-15,7.6
			c0,36.6,0,73.1,0,109.7c4.5-2.4,9-4.8,13.6-7.1c-0.5-23.6-0.9-47.3-1.4-70.9c3.4,15.6,6.8,31.1,10.2,46.7c3.5-1.7,7-3.5,10.5-5.1
			c3.4-18.9,6.9-37.7,10.3-56.5c-0.5,24-0.9,48-1.4,72c4.6-2.2,9.2-4.3,13.7-6.3c0-36.2,0-72.5,0-108.7c-5.1,2.2-10.1,4.4-15.2,6.8
			C86.1,173.8,81.9,197.2,77.6,220.6L77.6,220.6z"/>
		<path id="path48" inkscape:connector-curvature="0" class="st0" d="M154.9,124.1c-4.5,1.6-8.9,3.3-13.4,5
			c-11.1,4.3-16.6,12.7-16.6,25.1c0,23.8,0,47.6,0,71.4c0,12.3,5.6,16,16.8,11.5c4.3-1.7,8.7-3.4,13.1-5.1
			c11.2-4.3,16.9-12.3,16.9-24.5c0-23.6,0-47.3,0-70.9C171.7,124.4,166.1,120.1,154.9,124.1z M157.7,211.6c0,4.2-1.8,7-5.5,8.4
			c-2.4,0.9-4.7,1.8-7.1,2.8c-4.2,1.6-6.2,0.4-6.2-3.9c0-23.1,0-46.2,0-69.3c0-4.2,2-7.1,6.1-8.7c2.2-0.8,4.4-1.6,6.5-2.4
			c4.2-1.5,6.2-0.2,6.2,4C157.7,165.5,157.7,188.5,157.7,211.6L157.7,211.6z"/>
		<path id="path50" inkscape:connector-curvature="0" class="st0" d="M220.6,154.8c-5.1-15.8-10.1-31.6-15.1-47.3
			c-4.7,1.4-9.4,2.8-14.1,4.3c0,35.8,0,71.5,0,107.3c4.7-1.5,9.4-3,14.1-4.5c0-23.4,0-46.7,0-70.1c5.1,14.7,10.1,29.5,15.1,44.3
			c0,7.1,0,14.2,0,21.3c4.7-1.4,9.4-2.7,14.1-4c0-35.5,0-71.1,0-106.6c-4.7,1.2-9.4,2.5-14.1,3.7
			C220.6,120.4,220.6,137.6,220.6,154.8z"/>
		<path id="path52" inkscape:connector-curvature="0" class="st0" d="M250.3,108.5c4.5-1.1,9.1-2.1,13.6-3.1c0,31.1,0,62.2,0,93.2
			c4.7-1.1,9.5-2.2,14.2-3.2c0-31,0-62,0-93c4.6-0.9,9.1-1.8,13.6-2.6c0-4.3,0-8.5,0-12.8c-13.8,2.5-27.7,5.4-41.5,8.6
			C250.3,99.9,250.3,104.2,250.3,108.5z"/>
		<path id="path54" inkscape:connector-curvature="0" class="st0" d="M333.4,80.6c-8.7,1.1-17.4,2.4-26,3.8c0,15.4,0,30.9,0,46.3
			c-4.3,5-8.6,10-12.9,15.1c4.3-0.8,8.6-1.6,12.9-2.3c0,15.4,0,30.9,0,46.3c4.8-5.5,9.5-11,14.3-16.5c0-10.7,0-21.4,0-32.1
			c4-0.6,7.9-1.2,11.9-1.7c11.4-1.6,17.1-8.1,17.1-20c0-7.7,0-15.3,0-23C350.6,84.5,344.9,79.1,333.4,80.6L333.4,80.6z M336.4,120.2
			c0,4.1-1.9,6.4-5.6,6.9c-3,0.4-6.1,0.9-9.1,1.3c0-11.2,0-22.3,0-33.5c2.8-0.4,5.5-0.8,8.3-1.2c4.3-0.6,6.4,1.2,6.4,5.3
			C336.4,106.1,336.4,113.1,336.4,120.2z"/>
		<path id="path56" inkscape:connector-curvature="0" class="st0" d="M404.7,87.2c0-4.2,0-8.4,0-12.6c-11.8,0.5-23.6,1.2-35.4,2.2
			c0,15.3,0,30.6,0,45.9c-4.3,4.6-8.6,9.3-12.9,14c4.3-0.5,8.6-0.9,12.9-1.3c0,15.3,0,30.6,0,45.9c11.8-1.2,23.6-2.1,35.4-2.7
			c0-4.2,0-8.4,0-12.6c-7,0.4-14,0.8-21.1,1.4c0-11,0-22.1,0-33.1c6.2-0.5,12.5-0.9,18.7-1.2c0-4.2,0-8.4,0-12.6
			c-6.2,0.3-12.5,0.7-18.7,1.1c0-11,0-22.1,0-33.1C390.6,87.8,397.7,87.5,404.7,87.2z"/>
		<path id="path58" inkscape:connector-curvature="0" class="st0" d="M436.6,74c-4.7,0-9.5,0-14.2,0.1c0,34.5,0,69,0,103.5
			c11.3-0.4,22.5-0.5,33.8-0.4c0-4.2,0-8.3,0-12.5c-6.5-0.1-13-0.1-19.5,0C436.6,134.5,436.6,104.2,436.6,74z"/>
		<path id="path60" inkscape:connector-curvature="0" class="st0" d="M485.7,75.6c-4.7-0.3-9.4-0.6-14.1-0.8c0,34.2,0,68.5,0,102.7
			c11.2,0.3,22.4,0.9,33.5,1.7c0-4.1,0-8.2,0-12.4c-6.5-0.5-12.9-0.9-19.4-1.2C485.7,135.6,485.7,105.6,485.7,75.6z"/>
		<path id="path62" inkscape:connector-curvature="0" class="st0" d="M520.5,180.5c4.7,0.4,9.3,0.9,14,1.4c0-33.9,0-67.8,0-101.7
			c-4.7-0.6-9.3-1.2-14-1.7C520.5,112.6,520.5,146.5,520.5,180.5L520.5,180.5z"/>
		<path id="path64" inkscape:connector-curvature="0" class="st0" d="M589.2,101.5c0-4.1,0-8.1,0-12.2c-11.4-2.3-22.9-4.4-34.4-6.2
			c0,14.8,0,29.7,0,44.5c-4.2,3.5-8.4,7-12.6,10.5c4.2,0.5,8.4,1.1,12.6,1.7c0,14.8,0,29.7,0,44.5c11.5,1.6,23,3.5,34.4,5.6
			c0-4.1,0-8.1,0-12.2c-6.8-1.3-13.6-2.5-20.5-3.6c0-10.7,0-21.4,0-32.2c6.1,1,12.1,2.1,18.2,3.2c0-4.1,0-8.1,0-12.2
			c-6-1.2-12.1-2.3-18.2-3.3c0-10.7,0-21.4,0-32.2C575.6,98.9,582.4,100.1,589.2,101.5z"/>
		<path id="path66" inkscape:connector-curvature="0" class="st0" d="M640.5,156.3c5.4-0.9,8-5.6,8-14.3c0-7,0-14,0-21.1
			c0-11.4-5.1-18.6-15.5-21.4c-8.9-2.4-17.8-4.6-26.8-6.6c0,14.7,0,29.4,0,44.1c-4.1,3.2-8.3,6.3-12.4,9.6c4.2,0.8,8.3,1.7,12.4,2.6
			c0,14.7,0,29.4,0,44.1c4.6,1,9.2,2,13.7,3c0-14.7,0-29.4,0-44c2.8,0.7,5.5,1.3,8.2,2c3,15.4,6,30.8,8.9,46.2
			c4.3,1.1,8.6,2.2,12.8,3.4C646.9,188.1,643.7,172.2,640.5,156.3z M635,136.8c0,4.8-2,6.7-6.1,5.7c-3-0.8-6-1.5-9-2.2
			c0-10.6,0-21.3,0-31.9c3,0.7,6,1.5,9,2.3c4.1,1.1,6.1,4,6.1,8.8C635,125.2,635,131,635,136.8z"/>
	</g>
	<g id="g4349">
		<path id="path68" inkscape:connector-curvature="0" class="st0" d="M255.7,787.7c0-6.6,0-13.2,0-19.8c0-11.7-5.2-18.5-15.6-20.9
			c-8.9-2.1-17.7-4.4-26.5-7c0,14.6,0,29.2,0,43.7c-3.8,2.8-7.7,5.5-11.5,8.1c3.8,1.2,7.6,2.4,11.5,3.5c0,15.5,0,31.1,0,46.6
			c4.5,1.3,9,2.6,13.5,3.8c0-15.5,0-31.1,0-46.6c2.7,0.7,5.5,1.4,8.2,2.1c3,16.2,5.9,32.5,8.9,48.7c4.3,1,8.6,1.9,12.9,2.7
			c-3.2-16.6-6.3-33.2-9.5-49.9C253,801.7,255.7,796.5,255.7,787.7L255.7,787.7z M242.1,783.9c0,4.9-2,6.9-6.1,5.9
			c-3-0.7-5.9-1.5-8.9-2.3c0-10.5,0-20.9,0-31.4c3,0.8,5.9,1.5,8.9,2.2c4,1,6.1,3.9,6.1,8.8C242.1,772.8,242.1,778.3,242.1,783.9
			L242.1,783.9z"/>
		<path id="path70" inkscape:connector-curvature="0" class="st0" d="M303.5,840.6c0,4.4-1.8,6.5-5.5,6.1c-1.9-0.2-3.7-0.4-5.6-0.6
			c-4-0.5-6-3-6-7.5c0-27.7,0-55.3,0-82.9c-4.6-0.6-9.1-1.3-13.7-2.1c0,27.5,0,55,0,82.5c0,13,5.4,20.4,16.4,21.9
			c3.9,0.5,7.7,1,11.6,1.4c11.1,1.1,16.6-5,16.6-17.9c0-27.6,0-55.1,0-82.7c-4.6-0.3-9.1-0.7-13.7-1.2
			C303.5,785.3,303.5,812.9,303.5,840.6L303.5,840.6z"/>
		<path id="path72" inkscape:connector-curvature="0" class="st0" d="M362,759.8c-3.1,0.1-6.3,0.1-9.5,0.1
			c-10.6,0-15.9,5.6-15.9,17.3c0,22.4,0,44.9,0,67.3c0,11.4,5.3,17.4,15.9,17.4c9,0,18-0.3,26.9-0.9c0-16.6,0-33.2,0-49.7
			c-7,0.4-13.9,0.7-20.9,0.8c0,4.1,0,8.2,0,12.4c2.4,0,4.8-0.1,7.2-0.2c0,8.3,0,16.7,0,25c-3.1,0.1-6.2,0.2-9.3,0.2
			c-4,0-6-2.4-6-7.4c0-20.8,0-41.7,0-62.5c0-4.9,2-7.4,6-7.4c1.1,0,2.3,0,3.4-0.1c3.9-0.1,5.9,2.3,5.9,7.2c0,3,0,6.1,0,9.1
			c4.6-0.1,9.2-0.4,13.7-0.6c0-3.7,0-7.4,0-11.1C379.5,764.9,373.7,759.5,362,759.8L362,759.8z"/>
		<path id="path74" inkscape:connector-curvature="0" class="st0" d="M429.6,802.9C429.6,802.9,429.6,802.8,429.6,802.9
			c6.5-2.5,9.8-6.7,9.8-12.6c0-6.8,0-13.5,0-20.3c0-12.3-6.1-17.2-18.2-15.4c-7.8,1.2-15.6,2.1-23.4,2.9c0,14.6,0,29.1,0,43.7
			c-3.9,4.3-7.8,8.5-11.7,12.7c3.9-0.3,7.8-0.6,11.7-1c0,15.5,0,31.1,0,46.7c9.2-0.9,18.4-2.1,27.5-3.6c10.3-1.6,15.5-7.8,15.5-17.9
			c0-8.5,0-17.1,0-25.6C440.8,806.8,437.1,803.7,429.6,802.9L429.6,802.9z M411.5,768.3c2.7-0.3,5.4-0.7,8.1-1.1
			c4.1-0.6,6.1,1.5,6.1,6.5c0,5.5,0,11,0,16.6c0,4.9-2.6,7.8-7.8,8.6c-2.1,0.3-4.3,0.6-6.4,0.9C411.5,789.3,411.5,778.8,411.5,768.3
			L411.5,768.3z M427.2,839c0,2.9-1.8,4.7-5.4,5.2c-3.4,0.5-6.8,1-10.3,1.4c0-11.4,0-22.8,0-34.2c2.5-0.3,5.1-0.7,7.6-1
			c5.4-0.8,8.1,1.2,8.1,6C427.2,823.9,427.2,831.4,427.2,839L427.2,839z"/>
		<path id="path76" inkscape:connector-curvature="0" class="st0" d="M484.6,740.8c-3,15.7-6.1,31.3-9.1,46.9
			c-0.2,0-0.3,0.1-0.4,0.1c-3.4-13.9-6.8-27.8-10.1-41.7c-4.5,1.1-8.9,2.1-13.4,3.1c5.6,20.3,11.1,40.5,16.7,60.6
			c0,12.5,0,25,0,37.5c4.5-1.1,9-2.3,13.5-3.6c0-12.5,0-25,0-37.5c5.4-23,10.8-46.2,16.2-69.4C493.4,738.2,489,739.5,484.6,740.8
			L484.6,740.8z"/>
	</g>
	<g id="g4340">
		<path id="path88" inkscape:connector-curvature="0" class="st0" d="M110.8,299.3c-1.9,0.8-3.8,1.7-5.7,2.5c0-5.2,0-10.4,0-15.6
			c-2.4,1-4.7,2.1-7.1,3.2c0,12.6,0,25.3,0,37.9c2.3-1.1,4.7-2.1,7.1-3.2c0-5.6,0-11.1,0-16.7c1.9-0.9,3.8-1.7,5.7-2.5
			c0,5.6,0,11.1,0,16.7c2.4-1,4.7-2,7.1-3.1c0-12.6,0-25.3,0-37.9c-2.4,1-4.7,2-7.1,3.1C110.8,288.9,110.8,294.1,110.8,299.3z"/>
		<path id="path90" inkscape:connector-curvature="0" class="st0" d="M198.1,256.2c0-1.9,0-3.7,0-5.6c-1.5,0.5-2.9,1-4.4,1.4
			c0.8-1.5,1.7-3,2.5-4.5c-2.3,0.8-4.6,1.5-6.9,2.3c-0.6,1.4-1.1,2.9-1.7,4.3c-1.7,0.6-3.5,1.1-5.2,1.7c0,12.6,0,25.3,0,37.9
			c5.3-1.8,10.5-3.5,15.8-5.2c0-1.9,0-3.7,0-5.6c-2.9,0.9-5.8,1.9-8.6,2.8c0-3.7,0-7.4,0-11.1c2.5-0.9,5.1-1.7,7.7-2.5
			c0-1.9,0-3.7,0-5.6c-2.6,0.8-5.1,1.7-7.7,2.5c0-3.4,0-6.7,0-10C192.4,258.1,195.3,257.1,198.1,256.2z"/>
		<path id="path92" inkscape:connector-curvature="0" class="st0" d="M281.7,244.1c0-3,0-6,0-9.1c0-5.7-4-6-7.4-5.2
			c-4.1,0.9-8.1,1.9-12.2,2.8c0,12.6,0,25.3,0,37.9c2.4-0.6,4.8-1.1,7.2-1.7c0-5,0-9.9,0-14.9c0.8-0.2,1.6-0.4,2.3-0.5
			c1.3,4.7,2.6,9.3,3.9,14c2.3-0.5,4.7-1,7-1.5c-1.4-4.9-2.8-9.8-4.2-14.7C280.6,249.7,281.7,247.3,281.7,244.1L281.7,244.1z
			 M269.3,236.5c1.1-0.2,2.1-0.5,3.2-0.7c1-0.2,2-0.2,2,1.7c0,2.6,0,5.3,0,7.9c0,1.8-1,2.3-2,2.5c-1.1,0.2-2.1,0.5-3.2,0.7
			C269.3,244.6,269.3,240.6,269.3,236.5L269.3,236.5z"/>
		<path id="path94" inkscape:connector-curvature="0" class="st0" d="M358.7,215.1c-1.5,0.2-2.9,0.4-4.4,0.6
			c-5.1,0.7-7.8,3.4-7.8,7.9c0,10.4,0,20.7,0,31.1c2.4-0.3,4.8-0.7,7.3-1c0-4.5,0-9,0-13.5c1.8-0.2,3.6-0.5,5.4-0.7
			c0,4.5,0,9,0,13.5c2.4-0.3,4.8-0.6,7.3-0.9c0-10.4,0-20.7,0-31.1C366.4,216.6,363.8,214.5,358.7,215.1L358.7,215.1z M359.2,222.2
			c0,3.9,0,7.8,0,11.7c-1.8,0.2-3.6,0.4-5.4,0.7c0-3.9,0-7.8,0-11.7c0-1.1,0.6-1.7,1.9-1.8c0.5-0.1,1.1-0.1,1.6-0.2
			C358.6,220.7,359.2,221.1,359.2,222.2L359.2,222.2z"/>
		<path id="path96" inkscape:connector-curvature="0" class="st0" d="M445,239.5c0,1.6-0.9,1.9-1.7,1.9c-0.8,0-1.6,0-2.4,0.1
			c-0.9,0-1.9-0.2-1.9-1.8c0-10.2,0-20.3,0-30.5c-2.4,0.1-4.8,0.1-7.2,0.2c0,10.1,0,20.2,0,30.3c0,6.3,4.2,7.4,7.7,7.4
			c1.7,0,3.3-0.1,5-0.1c3.5-0.1,7.8-1.4,7.8-7.6c0-10.1,0-20.3,0-30.4c-2.4,0-4.8,0.1-7.2,0.1C445,219.2,445,229.4,445,239.5
			L445,239.5z"/>
		<path id="path98" inkscape:connector-curvature="0" class="st0" d="M524.6,211.5c-2.4-0.2-4.8-0.4-7.2-0.5c0,12.6,0,25.3,0,37.9
			c5.1,0.4,10.1,0.8,15.2,1.2c0-1.9,0-3.7,0-5.6c-2.7-0.2-5.3-0.5-8-0.7C524.6,233,524.6,222.2,524.6,211.5L524.6,211.5z"/>
		<path id="path100" inkscape:connector-curvature="0" class="st0" d="M589.7,219.4c0,1.9,0,3.7,0,5.6c1.8,0.3,3.7,0.6,5.5,0.9
			c0,10.8,0,21.6,0,32.3c2.4,0.4,4.7,0.8,7.1,1.2c0-10.8,0-21.6,0-32.3c1.8,0.3,3.7,0.7,5.5,1c0-1.9,0-3.7,0-5.6
			C601.8,221.4,595.8,220.3,589.7,219.4L589.7,219.4z"/>
	</g>
</g>
</svg>
