<?xml version="1.0" encoding="utf-8"?>
<!-- Generator: Adobe Illustrator 26.0.2, SVG Export Plug-In . SVG Version: 6.00 Build 0)  -->
<svg version="1.1" id="Calque_1" xmlns="http://www.w3.org/2000/svg" xmlns:xlink="http://www.w3.org/1999/xlink" x="0px" y="0px"
	 width="1000px" height="1000px" viewBox="0 0 1000 1000" style="enable-background:new 0 0 1000 1000;" xml:space="preserve">
<style type="text/css">
	.st0{fill:#FFE834;}
	.st1{fill:#060D3C;}
</style>
<path class="st0" d="M686.7,753.6C493.2,902.9,229.8,937.3,98.4,830.5C-33,723.7,17.3,516.1,210.8,366.8
	C404.3,217.6,667.8,183.2,799.2,290C930.5,396.8,880.2,604.4,686.7,753.6z"/>
<path class="st1" d="M669.3,766.6c-182.7,132.9-425.5,159.3-542.3,58.8C10.3,725,63.7,535.8,246.4,402.9
	C429.1,269.9,671.8,243.6,788.6,344C905.4,444.5,852,633.6,669.3,766.6z"/>
<path class="st0" d="M107.6,828.9C-13.9,724.5,42,527.5,232.4,388.9C422.7,250.3,675.6,222.6,797,327
	c84.4,72.6,83.1,189.8,10.7,301.1C901,501.8,908,363.4,810.4,279.2C678.6,165.6,406.1,193.7,201.7,342
	C-2.7,490.3-61.5,702.7,70.3,816.3c33.6,29,76.4,48.7,124.8,59.6C161.8,865.4,132,849.9,107.6,828.9z"/>
<polygon class="st1" points="722.1,757.5 715.8,757.5 715.8,755.2 731,755.2 731,757.5 724.7,757.5 724.7,775.8 722.1,775.8 "/>
<path class="st1" d="M750.6,766.8c-0.2-2.9-0.3-6.4-0.3-8.9h-0.1c-0.7,2.4-1.6,5-2.6,7.8l-3.6,10h-2l-3.4-9.8c-1-2.9-1.8-5.6-2.3-8
	h-0.1c-0.1,2.6-0.2,6-0.4,9.1l-0.5,8.8h-2.5l1.4-20.6h3.4l3.5,10c0.9,2.5,1.5,4.8,2.1,6.9h0.1c0.6-2.1,1.3-4.3,2.2-6.9l3.7-10h3.4
	l1.3,20.6h-2.6L750.6,766.8z"/>
<path class="st0" d="M248.3,565.6c0,0-2.5,5.2-7.1,4.3c-3.9-0.8-3.4-4.9-3.4-4.9l-0.2-43l-15.5,40.8c0,0-2.2,5.2-6.8,4.9
	c-3.4-0.2-4.6-4.9-4.6-4.9l-6.3-46.2l-7.5,45.8c0,0-0.9,3.7-4.3,4.6c-4.8,1.3-6.4-4.9-6.4-4.9l-14-40.3l-0.8,42c0,0-0.6,4.6-4.3,4.9
	c-4.9,0.4-7.3-5.2-7.3-5.2L143,528.1l7.8,50.1l-2.2,38.6l109.1,0.4l-2-37.9l7.7-50.4L248.3,565.6z"/>
<path class="st1" d="M150.4,587.9c-3.5,0-6.3,2.8-6.3,6.3c0,3.5,2.8,6.3,6.3,6.3H256c3.5,0,6.3-2.8,6.3-6.3c0-3.5-2.8-6.3-6.3-6.3
	H150.4z"/>
<path class="st0" d="M393,565.6c0,0-2.5,5.2-7.1,4.3c-3.9-0.8-3.4-4.9-3.4-4.9l-0.2-43l-15.5,40.8c0,0-2.2,5.2-6.8,4.9
	c-3.3-0.2-4.6-4.9-4.6-4.9l-6.3-46.2l-7.5,45.8c0,0-0.9,3.7-4.3,4.6c-4.8,1.3-6.4-4.9-6.4-4.9l-14-40.3l-0.8,42c0,0-0.7,4.6-4.3,4.9
	c-4.9,0.4-7.3-5.2-7.3-5.2l-16.9-35.3l7.8,50.1l-2.2,38.6l109.1,0.4l-2-37.9l7.7-50.4L393,565.6z"/>
<path class="st0" d="M315.2,688.6c0,0-2.5,5.2-7.1,4.3c-3.9-0.8-3.4-4.9-3.4-4.9l-0.2-43l-15.5,40.8c0,0-2.2,5.2-6.8,4.9
	c-3.3-0.2-4.6-4.9-4.6-4.9l-6.3-46.2l-7.5,45.8c0,0-0.9,3.7-4.3,4.6c-4.8,1.3-6.4-5-6.4-5l-14-40.3l-0.8,42c0,0-0.6,4.6-4.3,4.9
	c-4.9,0.4-7.3-5.2-7.3-5.2L210,651.2l7.8,50.1l-2.2,38.6l109.1,0.3l-2-38l7.7-50.4L315.2,688.6z"/>
<path class="st1" d="M787.3,119.2l45.3,9.3L829.7,96c0,0,1.9-9.5,9-0.4l35.3,64.6l43.9-54c0,0,2.9-3.3,5.4-1.3l4,3.9
	c0,0,1.9,1.4-1.7,6.6c0,0-13.9,23.8-4,45c0,0,15.3-9.3,51.9,2.6c0,0,26.4,8.8,26.5,15.2c0,0,0.2,5.2-7,2.4c0,0-36.8-9.6-61.3,30.4
	c0,0-17.8,26.1-6.1,35.8c0,0,7.7,8.3,30.1,12.6c0,0,3.6-0.1,3.3,4.3c0,0,0.9,4.2-3,4.7c0,0-19.6,0.1-31.5,8.2c0,0-16.8,9-25.4,28.8
	c0,0,18.5,12.2,20.5,15.2c0,0,3.9,3.2-1,5.7c0,0-44.2,4.9-45.7,5.9c0,0-18.5,4.3-5.6,23.1l96.5-24.4c0,0,1.3-1.4,4.9,2.3l3,3
	c0,0,2,3.3-1.3,5c-3.3,1.7-3.3,1.7-3.3,1.7l-91.3,48.2c0,0-39.6,2.6-50.9,6.3c0,0-9,1.7-9.9,11.6c0,0,10,4.7,55.3-3.4
	c0,0,2.6-0.9,4.7,3.1c0,0,5.5,5,2,7.5l-108.1,36.7c0,0,3.3-7.7-8.7-10c0,0-15.9-4.4-47,8.9c0,0-3.7,0.3-6-5.2l9.5-26.8
	c0,0,70.8-32.4,112.6-94.9c0,0,71.7-89.8-21.2-179.2c0,0-13.9-13.4-23.7-20c0,0-2.8-2.8-0.6-5.5C783.6,120.2,785,118.6,787.3,119.2z
	"/>
<path class="st1" d="M512.4,393.9c0,0,42.3,34.2,57,46.2c5.4,0.5,12.4,1.7,21,4.5c2.2-2.9,3-8.5,1-18.7l11.8,0.9l-3.3-9.4
	c0,0-70.8-32.4-112.6-94.9c0,0-71.7-89.8,21.2-179.2c0,0,13.9-13.4,23.7-20c0,0,2.8-2.8,0.7-5.4c0,0-1.4-1.7-3.7-1l-45.3,9.3
	l2.9-32.5c0,0-1.9-9.5-9-0.4l-35.3,64.6l-43.9-54c0,0-2.9-3.3-5.4-1.3l-4,3.9c0,0-1.9,1.4,1.7,6.6c0,0,13.9,23.8,4,45
	c0,0-15.3-9.3-51.9,2.6c0,0-26.4,8.7-26.5,15.2c0,0-0.1,5.2,7,2.4c0,0,36.8-9.6,61.3,30.4c0,0,17.8,26.1,6.2,35.8
	c0,0-7.7,8.3-30.1,12.6c0,0-3.6-0.1-3.3,4.3c0,0-0.9,4.2,3,4.7c0,0,19.6,0.2,31.5,8.2c0,0,16.8,9,25.4,28.8c0,0-18.5,12.2-20.5,15.2
	c0,0-3.9,3.1,1,5.7c0,0,44.2,4.9,45.7,5.9c0,0,18.5,4.3,5.6,23.1l-78.1-18.1c0,0-0.1-1.1-3.7,2.6l-2.6,3.2c0,0-4.3,2.6-1,4.3
	c3.3,1.7,2.8,1.4,2.8,1.4l74.1,42.4c0,0,39.6,2.6,50.9,6.3c0,0,9,1.7,9.9,11.6c0,0-10,4.7-55.3-3.4c0,0-2.6-0.9-4.7,3.2
	c0,0-5.4,5-2,7.4l72.7,24.7C507.2,425.9,505.9,410.9,512.4,393.9z"/>
<path class="st0" d="M552.7,499.4c0,3.1,0.4,75.4,34.6,91.9l3.4-7c-29.8-14.4-30.2-84.2-30.2-84.9L552.7,499.4z"/>
<path class="st0" d="M711.3,642.6c0,0,1.1,121.2-92.5,233.9l5.3,34C624.1,910.6,743.2,752.1,711.3,642.6z"/>
<path class="st0" d="M487.6,609.2l12.2-11.7c0,0,64.1,166.9,8.3,241.9C508,839.3,561.4,750.9,487.6,609.2z"/>
<path class="st0" d="M487.2,608.8l-0.3,0.3l0.2,0.4c72.9,139.8,21,228.7,20.5,229.6l0.9,0.6l0-0.1c16.8-22.7,22.7-53.9,22.7-86.3
	c0-74.1-30.5-154.8-31-156l-0.9-0.2L487.2,608.8z M499.5,598.4c2.9,7.7,30.6,84.3,30.6,154.8c0,29-4.8,56.9-17.8,78.5
	c5.4-12.4,14.8-39.2,14.8-78.1c0-37.8-8.9-86.8-38.8-144.4C488.8,608.8,498.4,599.5,499.5,598.4z"/>
<path class="st0" d="M600.1,497.8c0,0,17.8,8.9,27,18.1C627.1,515.9,588.9,517,600.1,497.8z"/>
<path class="st0" d="M599.6,497.5c-2.4,4.2-2.8,7.8-1,10.7c5.2,8.8,27.6,8.3,28.6,8.3l1.4,0l-1-1c-9.2-9.2-27-18.1-27.2-18.2
	l-0.5-0.2L599.6,497.5z M599.5,507.6c-0.6-1-0.9-2.2-0.9-3.4c0-1.7,0.6-3.6,1.7-5.6c2.5,1.3,16.7,8.8,25.2,16.7
	C620.5,515.3,603.7,514.6,599.5,507.6z"/>
<path class="st0" d="M509.7,585.6l0,3.4c7.5,0,34.7-43.3,46.1-61.9l-2.9-1.7C535.1,554.6,514,585.1,509.7,585.6z"/>
<path class="st0" d="M683.6,585.4l-0.6,0.4l11.8,16.9l1.1-0.8c0,0-10.3-14.8-11-15.8c1-0.7,15.4-10.7,15.4-10.7l-0.8-1.1
	L683.6,585.4z"/>
<path class="st0" d="M580.6,481.6c0.6,0.2,59.7,17.5,82,70.2l1.3-0.5c-22.5-53.3-82.2-70.8-82.8-71L580.6,481.6z"/>
<path class="st0" d="M474.6,615.8c0,0,1.8,9.1,0.8,12.3c-1,3.3-5.2,15-16.4,24.9c-17.4,15.4-41.9,21.5-41.9,21.5v-14.4
	c0,0,17.6-4,33.1-14.4C461.8,637.8,467.8,630.7,474.6,615.8z"/>
<path class="st0" d="M634.4,612.4l76.8,12.4c0,0,11.9,2.7,15.3-2.6l29.6-30.9c0,0-59.2-47.1-25.6-96.1c0,0,3.8,6.7,0.9,10.2
	c0,0-31.4,34.3,31.4,79.9c0,0,2.3,6.7-0.9,11.3l-36,37.2c0,0-1.7,4.6-13.6,2L634,623.5L634.4,612.4z"/>
<path class="st0" d="M508.3,410.7c-3.4,2.6-11.2,5.5-29.3,3.7l29.5,9.9C507.9,420,507.8,415.5,508.3,410.7z"/>
<path class="st0" d="M799.8,129.2l35.2,7.1c0,0,6,1.7,4.4-6l-1.7-18.7l31.4,57.2c0,0,2.3,5,6.5,0.2c4.2-4.8,33.1-41,33.1-41
	s-6,24.8,8.1,40.2c0,0,1.7,0.4,6.9-1.9c5.2-2.3,22.7-5.6,49.1,4.2c0,0-42.7,1.1-61.6,57.7c0,0-6.5,20.6,23.3,32.7
	c0,0-32.1,6-46.2,40c0,0-2.9,5,2.9,7.3l13.3,8.9c0,0-28.9,2.9-40.6,5.8c0,0-24.2,8.7-2.5,36.2c0,0,2.5,4.6,5.2,3.1l71-18.1
	l-67.2,36.2c0,0-38.5,1-53.1,7.1c0,0-14.4,4.4-11.7,22.5c0,0,2.1,9.8,31.9,6.9l-80.1,26.9c0,0-17.5-1.5-45.6,10.4
	c0,0-26.5-16.4-26.7-16.4c0,0,27.5-25.9,28.5-76.4c0,0,21.8,21.2,1.4,67.1C715,428.3,978.8,296.5,799.8,129.2z"/>
<path class="st0" d="M601.5,426c0,0-263.9-131.7-84.8-299l-35.2,7.1c0,0-6,1.7-4.4-6l1.7-18.7l-31.4,57.3c0,0-2.3,5-6.5,0.2
	c-4.2-4.8-33.1-41-33.1-41s6,24.8-8.1,40.2c0,0-1.7,0.4-6.9-1.9c-5.2-2.3-22.7-5.6-49.1,4.2c0,0,42.7,1,61.6,57.7
	c0,0,6.4,20.6-23.3,32.7c0,0,32.1,6,46.2,40c0,0,2.9,5-2.9,7.3l-13.3,9c0,0,28.9,2.9,40.6,5.8c0,0,24.1,8.7,2.5,36.2
	c0,0-2.5,4.6-5.2,3.1l-71-18.1l67.2,36.2c0,0,38.5,1,53.1,7.1c0,0,9.4,2.9,11.6,13.6c0.5-1.6,1-3.2,1.7-4.8c0,0,47.9,38.7,59.4,48.2
	c4.6,0.7,10.4,1.9,17.1,3.9c3.1-2.3,4.8-7.9,2.4-20.1l8.1,0.6"/>
<path class="st0" d="M621.4,428.3c27.3-51.6,2.8-76.1,2.8-76.1c-1.7,37.8-14.6,60.9-26.4,74.3L621.4,428.3z"/>
<path class="st0" d="M511.3,393.5c-21.9,57.1,43.5,92.8,44.2,93.1l1.2-2.2c-0.6-0.3-47.4-25.8-47.4-67.8c0-6.5,1.3-13.4,3.8-20.6
	c21.1,17.1,59.1,47.8,60.4,49.1c0.6,0.4,10.2,6.2,16.1,2c2.8-2,4.2-5.7,4.2-11.2c0-2.5-0.3-5.4-0.9-8.6c2.9,0.2,48,3.7,49,3.7
	c2,2.4,16.4,18.1,37.5,13.1c21-4.9,30.9,14.2,31.3,15l0.5,1l1-0.4c0.4-0.2,42.1-15.8,54.2-6c-3.5,5.5-22.7,35.3-35.1,36.4l0.2,2.5
	c14.9-1.4,36.7-37,37.6-38.5l0.5-0.8l-0.7-0.7c-11.4-11.5-50.4,2.2-56.6,4.5c-2.4-4.1-13.4-20.1-33.6-15.4
	c-21.2,5-35.2-12.5-35.4-12.7l-0.3-0.4l-53.2-4.1l0.3,1.6c2,10,1.3,16.6-2,18.9c-4.6,3.2-13-1.8-13.1-1.9
	c-3.2-2.8-43.9-35.8-61.8-50.3l-1.3-1.1L511.3,393.5z"/>
<polygon class="st1" points="72.7,587.2 65.8,601.7 25.3,582.3 36.3,559.4 66.7,561.2 66.9,560.7 46.2,538.6 57.5,515.1 98,534.4 
	91.1,548.9 60.7,532.6 60.5,533.1 84.9,561.8 78.9,574.3 41.2,573.4 41,573.8 "/>
<path class="st1" d="M99.9,459.4l23.7,18.2c9.5,7.3,7.6,15.3-3.2,29.4c-14.7,19.1-19.9,18.4-28.4,11.8l-23.7-18.2l9.8-12.8
	l23.6,18.1c4,3.1,6.4,0.1,10.5-5.3c4.2-5.4,5.2-7.5,1.1-10.7l-23.1-17.7L99.9,459.4z"/>
<polygon class="st1" points="153.4,468 142,479.3 110.3,447.6 129.5,428.4 166.1,440.6 166.6,440.1 141.6,416.4 152.9,405.1 
	184.6,436.9 165.2,456.2 128.8,443.8 128.3,444.3 "/>
<path class="st1" d="M196.1,391.8c14.4-10.6,18.8-12.2,25.4-4.2c4.7,5.7,9.7,11.1-10.7,28c-11.8,9.8-19.8,16.1-29.2,4.8l11.9-9.8
	c3,3.6,5,2.5,11.1-2.5c5.8-4.8,7.5-6.7,5.1-9.6c-2.5-3-3.1-2.4-9.2,2.2l-2.8,2.1c-11.9,8.9-18.6,14.5-26.8,4.6
	c-8.2-9.9-1.3-16.8,10.9-26.8c10.1-8.4,18.9-15.5,26.8-5.9l1.2,1.4l-11.9,9.8c-2.9-3.5-4.9-1.9-9.9,2.2c-6.7,5.5-6.4,7-4.8,8.9
	c2.3,2.8,4.2,1.4,7.6-1.2L196.1,391.8z"/>
<polygon class="st1" points="259.2,377.8 246.2,387.3 226,359.3 213.5,368.4 207.4,359.9 246.1,332 252.2,340.4 239,349.9 "/>
<polygon class="st1" points="277.2,334.1 299.4,321.1 303.6,328.3 281.5,341.3 285.9,348.9 310,334.7 315,343.2 277,365.4 
	254.3,326.7 291.8,304.7 296.7,313.2 273.1,327.1 "/>
<path class="st1" d="M305.1,297.6l28.2-13c12.7-5.6,19.8-6.5,24.5,3.7c3.1,6.8,5,10.8-4.6,17.3l0.2,0.4c6.1-2.6,11.1-1.9,13.2,2.7
	l3.8,8.2l-14.6,6.7l-2.6-5.7c-1.3-3.1-4-4.4-8.3-2.4l-11.3,5.2l5,10.8l-14.6,6.7L305.1,297.6z M340.5,306.1c6.3-2.9,5.3-4.5,3.1-9.1
	c-1.7-3.6-3.4-4.1-8.2-1.9l-11.3,5.2l5.1,11L340.5,306.1z"/>
<path class="st1" d="M500.9,234.4l30.8-3.5c13.8-1.4,20.9,0.1,22.1,11.2c0.8,7.4,1.3,11.8-9.8,15l0.1,0.5c6.6-0.6,11.1,1.6,11.7,6.7
	l1,9l-16,1.8l-0.7-6.2c-0.2-3.3-2.4-5.4-7.2-4.9l-12.4,1.4l1.3,11.8l-16,1.8L500.9,234.4z M531.8,253.6c6.9-0.8,6.4-2.6,5.8-7.7
	c-0.5-4-1.9-5-7.2-4.4L518,243l1.4,12.1L531.8,253.6z"/>
<path class="st1" d="M617.6,228l-0.1,29.9c0,12-7.6,15.3-25.3,15.2c-24.1-0.1-26.7-4.6-26.6-15.4l0.1-29.9l16.1,0.1l-0.1,29.7
	c0,5.1,3.8,5.2,10.6,5.2c6.8,0,9.2-0.4,9.2-5.7l0.1-29.1L617.6,228z"/>
<path class="st1" d="M667.7,248.1c0.3-4.5-4.8-5.2-9.6-5.9c-11.5-1.7-12.1,0.9-13.3,8.1l-1,7.2c-1.1,7.9,2.4,9.2,10.7,10.4
	c8.1,1.2,10.5,0.1,11.3-6l-11-1.6l1.2-8.2l27.1,3.9l-1.1,7.8c-2.2,15-7.7,17-29,13.9c-18.8-2.7-28-6.5-25.9-20.9l1.7-11.5
	c2.1-14.7,13.3-15.3,30.8-12.8c15.4,2.2,26.4,3.9,24.4,18L667.7,248.1z"/>
<path class="st1" d="M700.6,240.1l30.1,10c11.4,3.8,17.5,7.6,14.5,16.9c-1.8,5.4-4.4,8.4-12.3,6.8l-0.2,0.5
	c8.3,3.2,8.5,7.5,6.8,12.8c-3.5,10.5-10.5,9.7-22.6,5.7l-30.4-10.1L700.6,240.1z M704.8,278.4l11.5,3.8c5,1.6,7.3,1.5,8.5-2
	c1.2-3.5-0.4-4.6-5.4-6.3l-11.8-3.9L704.8,278.4z M710.2,262.2l11,3.6c5.3,1.8,6.9,1.5,8-1.9c0.8-2.6,0.6-3.7-3.6-5.2l-12.8-4.2
	L710.2,262.2z"/>
<polygon class="st1" points="776.3,304.8 768,318.2 754.4,309.7 762.6,296.3 759.8,260.3 775.4,270 775.5,290.3 776,290.6 
	794.5,281.8 810.4,291.6 "/>
<path class="st1" d="M295.4,587.8c-3.5,0-6.3,2.8-6.3,6.3s2.8,6.3,6.3,6.3H401c3.5,0,6.3-2.8,6.3-6.3s-2.8-6.3-6.3-6.3H295.4z"/>
<path class="st1" d="M217,710.7c-3.5,0-6.3,2.8-6.3,6.3c0,3.5,2.8,6.3,6.3,6.3h105.6c3.5,0,6.3-2.8,6.3-6.3c0-3.5-2.8-6.3-6.3-6.3
	H217z"/>
</svg>
