<?xml version="1.0" encoding="utf-8"?>
<!-- Generator: Adobe Illustrator 26.0.2, SVG Export Plug-In . SVG Version: 6.00 Build 0)  -->
<svg version="1.1" id="Calque_2_00000083776158718735469340000014261821896604897174_"
	 xmlns="http://www.w3.org/2000/svg" xmlns:xlink="http://www.w3.org/1999/xlink" x="0px" y="0px" width="853.3px" height="782.7px"
	 viewBox="0 0 853.3 782.7" style="enable-background:new 0 0 853.3 782.7;" xml:space="preserve">
<style type="text/css">
	.st0{fill:#E8690A;}
	.st1{fill:#373736;}
	.st2{fill:#C9BA9A;}
	.st3{fill:#383736;}
	.st4{fill:#3A3937;}
	.st5{fill:#3A3836;}
	.st6{fill:#55483C;}
	.st7{fill:#403B37;}
	.st8{fill:#423D38;}
	.st9{fill:#52463A;}
	.st10{fill:#50473C;}
	.st11{fill:#54493D;}
	.st12{fill:#493D34;}
	.st13{fill:#504439;}
	.st14{fill:#676157;}
	.st15{fill:#493C32;}
	.st16{fill:#3D3936;}
	.st17{fill:#554A3E;}
	.st18{fill:#605C52;}
	.st19{fill:#5C584F;}
	.st20{fill:#C1B395;}
	.st21{fill:#4B4943;}
	.st22{fill:#938975;}
	.st23{fill:#494743;}
	.st24{fill:#C7B999;}
	.st25{fill:#C3B496;}
	.st26{fill:#B3A68B;}
	.st27{fill:#B6A98E;}
	.st28{fill:#5E5A50;}
	.st29{fill:#C7B899;}
	.st30{fill:#B7AA8E;}
	.st31{fill:#BDB092;}
	.st32{fill:#C6B899;}
	.st33{fill:#4F4D47;}
	.st34{fill:#57544C;}
	.st35{fill:#635E54;}
	.st36{fill:#4D4A45;}
	.st37{fill:#5F5A51;}
	.st38{fill:#58554C;}
	.st39{fill:#4D4B45;}
	.st40{fill:#524F48;}
	.st41{fill:#58554D;}
	.st42{fill:#514E48;}
	.st43{fill:#645F55;}
	.st44{fill:#55524A;}
	.st45{fill:#4C4944;}
	.st46{fill:#4C4A45;}
	.st47{fill:#383837;}
	.st48{fill:#393837;}
	.st49{fill:#3A3938;}
	.st50{fill:#42413E;}
	.st51{fill:#393937;}
	.st52{fill:#3F3E3C;}
	.st53{fill:#535049;}
	.st54{fill:#5A564E;}
	.st55{fill:#666156;}
	.st56{fill:#736D5F;}
	.st57{fill:#726C5F;}
	.st58{fill:#676257;}
	.st59{fill:#C4B697;}
	.st60{fill:#686358;}
	.st61{fill:#41403C;}
	.st62{fill:#3D3C3A;}
	.st63{fill:#3A3A38;}
	.st64{fill:#3C3C39;}
	.st65{fill:#3B3B39;}
	.st66{fill:#56524B;}
	.st67{fill:#474540;}
	.st68{fill:#494742;}
	.st69{fill:#B1A48A;}
	.st70{fill:#7D7566;}
	.st71{fill:#807969;}
</style>
<g>
	<path class="st0" d="M545.7,107.9L646,210.1c-10.6,20.1-22.7,46.3-29.9,77.3c-11.3,49.3-6.5,97.6,14.2,143.4
		c13.2,29.1,21.2,56.8,23.7,82.5c2.7,26.7-0.7,50.6-10,71c-17,37.3-54.8,64.9-112.4,82c-88.2,26.2-135.5,52.3-160.7,71.9
		c-3.4-2.7-7.2-5.5-11.5-8.4c-33.8-22.8-84-44.2-149.2-63.6c-57.5-17.1-95.3-44.7-112.4-82c-9.3-20.4-12.7-44.3-10-71
		c2.6-25.6,10.5-53.4,23.7-82.5c20.8-45.8,25.6-94.1,14.2-143.4c-7.1-31-19.3-57.2-29.9-77.3l100.3-102.2c3.3,2,6.8,4.2,10.6,6.3
		c27.8,15.4,55.5,23.2,82.4,23.2c18.7,0,36.6-3.9,53.4-11.5c9.9-4.5,19.4-10.3,28.4-17.4c9,7.1,18.5,12.9,28.4,17.4
		c16.7,7.6,34.7,11.5,53.4,11.5c26.9,0,54.6-7.8,82.4-23.2C538.9,112,542.5,109.9,545.7,107.9"/>
	<g>
		<path class="st1" d="M214.7,256.8h-19.9v34.9h-30V175.4h55.8c39.4,0,46,18.2,46,40c0,14.4-3.4,29.8-21.2,37.2l20,39.1h-33
			L214.7,256.8z M219.6,229.8c11.9,0,16-2.5,16-13.2c0-11.1-3.9-13.7-16.2-13.7h-24.7v26.8L219.6,229.8L219.6,229.8z"/>
		<path class="st1" d="M315.5,233.5c0-42.4,22.3-60,59.7-60c22.3,0,34.9,6.1,45.6,18.1L399.6,214c-6.1-6.6-12.5-10.7-24.5-10.7
			c-20.9,0-28.5,10.7-28.5,30.6c0,18.8,5.6,30.5,28.7,30.5c13.2,0,19.2-4.6,26.1-11.5l20.2,20.9c-9.4,10.5-21.5,19.6-48.3,19.6
			C329.9,293.4,315.5,271.4,315.5,233.5z"/>
		<path class="st1" d="M474.7,175.4h33l42.9,61.5v-61.5H580v116.3h-28.4l-47.5-68v68h-29.4L474.7,175.4L474.7,175.4z"/>
	</g>
	<path class="st1" d="M545.7,107.9L646,210.1c-10.6,20.1-22.7,46.3-29.9,77.3c-11.3,49.3-6.5,97.6,14.2,143.4
		c13.2,29.1,21.2,56.8,23.7,82.5c2.7,26.7-0.7,50.6-10,71c-17,37.3-54.8,64.9-112.4,82c-88.2,26.2-135.5,52.3-160.7,71.9
		c-3.4-2.7-7.2-5.5-11.5-8.4c-33.8-22.8-84-44.2-149.2-63.6c-57.5-17.1-95.3-44.7-112.4-82c-9.3-20.4-12.7-44.3-10-71
		c2.6-25.6,10.5-53.4,23.7-82.5c20.8-45.8,25.6-94.1,14.2-143.4c-7.1-31-19.3-57.2-29.9-77.3l100.3-102.2c3.3,2,6.8,4.2,10.6,6.3
		c27.8,15.4,55.5,23.2,82.4,23.2c18.7,0,36.6-3.9,53.4-11.5c9.9-4.5,19.4-10.3,28.4-17.4c9,7.1,18.5,12.9,28.4,17.4
		c16.7,7.6,34.7,11.5,53.4,11.5c26.9,0,54.6-7.8,82.4-23.2C538.9,112,542.5,109.9,545.7,107.9 M371,67.2
		c-26.4,30.2-55.1,40.2-81.7,40.2c-52.4,0-96.4-38.9-96.4-38.9L59,204.9c21.5,39.2,68.2,118.7,25.3,213.5
		C35.2,526.5,40,647,201.7,695C351.9,739.6,371,780.9,371,780.9s19-41.3,169.2-85.9c161.7-48,166.5-168.5,117.5-276.6
		c-42.9-94.7,3.8-174.3,25.3-213.5L549.1,68.5c0,0-43.9,38.9-96.4,38.9C426.1,107.4,397.3,97.4,371,67.2L371,67.2z"/>
	<g id="x7C5c0.tif">
		<g>
			<path class="st1" d="M320.8,656.3c-10.3,4.4-18.8,2.4-25.7-6.7c-2.1-2.8-4.8-5.3-7.6-7.3c-13.5-9.7-19.5-23.5-24.4-38.9
				c-19.7-61.9-40.3-123.6-60.5-185.4c-1.1-3.4-1.9-6.5-6.4-7.1c-2.6-0.4-4-3.1-4.9-5.6c-5.9-17.3-11.7-34.7-17.7-52
				c-1.1-3.1-0.6-5.4,2.5-6.1c4.7-1.1,10.8-3.1,13.1,2.6c2.2,5.6,5.4,5.5,9.8,4.6c5.6-1.2,11.5-0.6,16.3-5.2
				c2.7-2.7,7.6-3.1,11.4-1.7c10.3,3.7,20.5,1.3,30.5-0.6c17.1-3.2,32.2,4.5,48,7.9c3.1,0.7,2.3,3.6,2.9,5.8c1.1,4,3,4.9,5.8,1.2
				c3.5,0.7,3.6,3.2,3.3,6c-0.2,1.3-0.7,2.5-1.6,3.4c-7.8,4.6-16.8,3.7-25.2,4.7c-15.3,1.8-30.6,2.9-45.9,5.2
				c-0.7,0.2-1.5,0.2-2.2,0.1c-5.8-3.2-5.3-9.5-7.2-14.6c-0.9-2.3-0.6-5.9-3.6-6.3c-3.9-0.6-8-0.2-11.9,0.6c-1.8,0.4-1,2.4-0.6,3.6
				c5.2,18.5,10.3,37,15.9,55.5c1.9,6.3,8.4,5.2,12.2,8.3c4.2,10.9,6.6,22.4,9.7,33.7c16.7,60.8,33.3,121.6,49.8,182.4
				c1.5,5.5,4,8.7,10,8.3C318.5,653.6,320.9,653.6,320.8,656.3z"/>
			<path class="st1" d="M429.5,402.9c0.1-4.2,0.6-8.5,0.1-12.6c-0.8-6.7,2.2-8.4,8.3-8.7c7.9-0.3,15.8-1.7,23.8-2.4
				c2.8-0.3,4.5-1.2,4.3-4.2c-0.3-4.2,2.1-4.9,5.7-4.9c10.1-0.1,20.2-0.3,30.2-1c19.1-1.4,37.1,4.5,55.6,7.3c3.1,0.5,4.2,2,3.9,5.3
				c-3.5,37.8-6.9,75.7-10.2,113.5c-3,34.6-6.1,69.1-8.9,103.7c-1.1,14.1-0.8,14.1-14.4,16.7c-7.6,1.4-15.3,2.5-22.8,4.5
				c-12,3.3-23.8,3.8-35.9,0.2c-3-0.9-6.5-0.2-9.8-0.3c-1.7,0.7-3.5,1.2-4.9-0.7c1.6-3.7,3-7.5,5.3-10.8c0.5-0.3,1.1-0.5,1.7-0.5
				c2.8-5.3,2.5-11.1,2.5-16.8c0.6-23.4,2.7-46.7,4.4-70c1.1-15.9,2.3-31.7,3.4-47.6c0-3.1,2.6-6.1,0.3-9.3
				c-7.8-3.9-15.5,0-23.2,0.5c-5.2,0.3-10.6,1-15.9,1.9c-6,1-8.6-1.6-9.1-7.7c-0.2-2.8-0.3-5.6,0-8.4c0.7-9.2-0.6-18-3.9-26.6
				c0.8-3.2,3.5-2.7,5.7-2.7c7,0,13.9-0.9,21.6-2c-5.6-5.1-13-6.9-17.5-12.6C429,405.6,428.7,404.3,429.5,402.9z"/>
			<path class="st2" d="M315.4,367.4c-0.2-1.9,0.7-4.1-1.4-5.6c-0.4-1.8-0.9-3.5-1.3-5.3c0.5-2.5,1.6-4.7,4.5-4
				c4.9,1.2,9.7-0.7,14.5,0c2.7,1.6,3.2,4,2.1,6.8c0.8,2.7,1.6,5.3,2.4,8c-1.2,2.4,0.6,4.4,0.9,6.6c-0.4,4.1,0.7,8,1.8,11.9
				c-2.2,3.7,1.6,6.4,1.5,9.8c-1.2,2.8,0.9,5,1.3,7.5c0.7,1.5-0.6,2.5-0.9,3.7c1.3,3.5,2.4,7.1,1.5,10.9c-0.8,2-2.3,3.3-4.3,4.2
				c-3.3,1-6.6,1.9-10,0.3c-0.7-0.3-1.3-0.5-2-0.9c-1.4-1-2.6-2.3-3.8-3.5c-1.7-2.1-2.6-4.6-2.8-7.3c0.2-2.1,0.2-4.2-0.7-6.3
				c-0.6-1.8-0.8-3.6-1-5.5c0.1-2.8-0.5-5.5-0.4-8.3c0-1.9-0.6-3.6-1.4-5.3c-0.6-1.2-0.8-2.4-0.8-3.7c0.7-2.2,0-4.4-0.5-6.5
				C314,372.4,317.2,370.1,315.4,367.4z"/>
			<path class="st3" d="M320.8,656.3c-1.4-0.4-2.8-0.8-4.2-1.1c-0.2-1,0-2.2,0.9-2.5c7.5-2.6,6-8.2,4.7-13.8
				c-1.6-6.8-3.3-13.6-4.3-20.6c-1-7.3,0.5-9.9,6.2-11.1c8.3-1.8,12-0.1,14,7.2c1.9,7,3,14.1,4.4,21.2c1.8,9.1,1.9,9.1,11,9.9
				c1.7,0.9,4.1,0.9,4,3.6C345.3,651.6,333.1,654,320.8,656.3z"/>
			<path class="st4" d="M357.5,649.3c-1.4-0.4-2.9-0.8-4.3-1.2c6.7-6.9,4.4-14.9,3.3-23c-0.6-4-2-8.2,0.1-12.3
				c0.9-1.3,2.1-2,3.7-1.8c4,2.8,3,7.6,4.1,11.5c2.1,7.5,2.2,7.8,10.1,6.5c2.1-0.3,4.1-0.6,6.3-0.6c1.4-0.2,2.8-0.6,4.2-0.8
				c5.8-1.5,11.6-2.8,17.6-2.9c1.1-0.1,2.3-0.2,3.4-0.6c3.6-1.4,3.8-4.4,3.8-7.6c0.1-4.5-0.2-8.9,0.2-13.4
				c0.7-7.2,9.3-11.9,15.7-8.7c2.8,1.4,3.2,3.8,3.3,6.5c0.1,6.3-0.2,12.7,0.2,19c0,1.8,1.5,3.5,0.4,5.4c-19.5,3.4-39.1,6.9-58.6,10
				c-4.9,0.8-7.4,2.2-6.2,7.5C365.9,649,361.5,648.9,357.5,649.3z"/>
			<path class="st5" d="M330.8,353.3c-3.8,2.9-8.1,2.9-12.4,1.8c-2.3-0.6-4.3-1-5.7,1.4c-2-6.2,0.1-9.6,6.7-10.8
				c7.7-1.4,12.5,0.5,14.3,6.3C333.1,353.2,331.7,352.7,330.8,353.3z"/>
			<path class="st6" d="M355.8,411c6.1-1.7,12.5-1.6,18.8-2.3c1.7,1.4,4.9-1.4,5.8,2.2c-5.8,5-12.8,4.3-19.7,3.9
				C358.6,414.2,356.8,413.1,355.8,411z"/>
			<path class="st7" d="M429.4,625.4c-0.9-0.9-1.8-1.7-2.7-2.6c0.8-0.7,1.6-1.4,2.6-1.8c1.1-0.3,2.1-0.5,3.1-0.9
				c3.2-1.5,6.6-1.8,10-1.1c1.7,0.8,4,0.9,3.9,3.6C440.7,623.5,435,624.4,429.4,625.4z"/>
			<path class="st8" d="M446.3,622.6c-1.5-0.4-3-0.9-4.5-1.3c0-1.8,1.2-2.6,2.7-3.1c1.1-0.2,2.2-0.3,3.3-0.5
				c2.5-0.6,5.1-1.7,7.1,1.2c1.5,0.4,3,0.8,4.5,1.3C455.2,621.8,450.7,622,446.3,622.6z"/>
			<path class="st9" d="M380.5,410.1c-2-0.3-4.2,0.1-5.9-1.3c4.7-0.5,9.4-1,14.1-1.5c1.2,1.3,4.4-0.9,4.2,2.6
				C388.9,413.7,384.7,413.8,380.5,410.1z"/>
			<path class="st10" d="M342.2,408.5c1.3,3.3,4.3,2.8,7,3c1.2,1.3,4.4-0.9,4.3,2.5c-3.1,3.5-6.6,3.4-10.4,1.4
				C340.9,413.4,340.8,411,342.2,408.5z"/>
			<path class="st11" d="M409.3,405.3c4.2-1.6,8.5-1.2,12.8-1.3c1.9-0.5,4-1.6,4.8,1.5c-3.5,4-8.1,3.8-12.8,3.4
				C412.2,408.3,410.2,407.5,409.3,405.3z"/>
			<path class="st12" d="M339,385.8c-3.1-3.7-2.4-8.3-2.7-12.6l0.5-0.4l0.6,0.3C337.8,377.3,338.4,381.6,339,385.8z"/>
			<path class="st11" d="M395.4,406.9c1.9-1.1,3.9-1.2,6-0.9c1.8,0.9,3.9-0.1,5.7,0.9c0.7,2.1-0.7,3.1-2.2,4c-0.6,0.2-1.3,0.4-2,0.4
				c-1.4-0.1-2.6-0.7-3.9-1.1C397.6,409.2,395.9,408.7,395.4,406.9z"/>
			<path class="st13" d="M407.2,407.2c-2-0.3-4.1,0.1-5.8-1.3c2.6-0.2,5.3-0.4,7.9-0.6c1.6,0.5,3.1,1,4.7,1.5
				C411.8,409.3,409.6,409.3,407.2,407.2z"/>
			<path class="st14" d="M342.2,408.5c0.1,2-0.4,4.1,1.3,5.7c0.8,2.4,0.4,4.1-2.6,4c0-3.8,0-7.5,0-11.3
				C341.3,407.4,341.7,408,342.2,408.5z"/>
			<path class="st13" d="M395.4,406.9c1.5,0.5,3,0.9,4.5,1.4c-2,2.5-4.3,2.4-6.6,0.4c-1.5-0.5-3.1-0.9-4.6-1.4
				C390.9,407.1,393.2,407,395.4,406.9z"/>
			<path class="st15" d="M330.8,353.3c0.9-0.4,1.9-0.9,2.8-1.3c1.2,2.4,2.3,4.8,0.2,7.3C333,357.2,334.1,354.2,330.8,353.3z"/>
			<path class="st16" d="M353.6,412.8c-1.5-0.4-2.9-0.9-4.4-1.3c2.2-0.2,4.4-0.3,6.6-0.5c1.5,0.5,3,0.9,4.5,1.4
				C358.3,415,356,414.9,353.6,412.8z"/>
			<path class="st17" d="M426.7,405.4c-1.3-1.2-2.9-1.2-4.5-1.3c2.3-1.4,4.9-1.1,7.4-1.2c0.5,0.9,0.9,1.7,1.4,2.6
				C429.5,406.8,428,406.8,426.7,405.4z"/>
			<path class="st18" d="M341.7,403.1c-2.6-2.1-3.5-4.6-1.3-7.5C340.9,398.1,341.3,400.6,341.7,403.1z"/>
			<path class="st19" d="M337.3,373.1l-0.5,0.1h-0.5c-1.3-1.9-2-3.9,0-5.8C336.6,369.2,336.9,371.2,337.3,373.1z"/>
			<path class="st2" d="M357.7,612.9c1,7.5,1.4,15.2,3.3,22.5c2,7.7,0.3,11.8-7.8,12.6c-11.4,0.8-11.4,0.8-13.7-11
				c-1.5-7.8-3.1-15.6-4.5-23.4c-1.5-9.1-7.7-2.8-11.6-3.3c-5-0.7-3.8,3.1-3.1,6.2c2.1,9.6,3.7,19.3,6.4,28.7
				c1.8,6.3-0.4,8.3-6.2,8.7c-1.3,0.1-2.6,0.8-3.9,1.3c-8.4,2.8-10.6-1.8-12.6-9.1c-18.8-69.7-37.9-139.3-56.9-208.9
				c-0.8-3-1.6-5.9-1.1-9c0.6-3.1,3.3-4.7,4.9-7c1.9-2.1,1.2-4.3,0.3-6.6c-0.3-0.6-0.4-1.2-0.5-1.8c-0.8-2.4-0.9-5-2.3-7.2
				c-1.5-2.7-2.5-5.5-2.9-8.6c-0.3-3.7-1.1-7.4-2.4-10.9c-0.3-2-0.9-4.1,0.1-6.1c0.9-1.8,2.3-2.6,4.4-2.8
				c22.6-2.2,45.1-4.5,67.7-6.8c1.4,1.5,0.5,3.4,0.8,5.1c0.4,2,1.5,4,0.6,6.1c0.5,0.9,1,1.7,1.5,2.6c-1.2,2.3,1,4.3,0.7,6.5
				c-0.3,2.7,0.5,5.3,0.7,7.9c0.5,1.7,1,3.5,1.5,5.2c-1.5,2,1.3,4-0.1,6c0.9,2.2,1.9,4.4,2.8,6.6c0.3,1.9,1.4,3,3.3,3.3
				c0.4,0.1,0.8,0.1,1.3,0.2c8.8,2.7,6.7,11.1,9,17.2c3.8,16.4,4,33.4,6.6,50c0.4,2.3,0.2,4.7,0.3,7.1c0.9,5.2,1.1,10.6,2.6,15.7
				c0.3,1.9,0.2,3.8,0.3,5.7c1,5.1,1.1,10.3,2.5,15.3c0.3,1.8,0.2,3.6,0.3,5.4c-0.1,2.2,0.5,4.2,1.2,6.2c0.2,1.8,0.2,3.5,0.2,5.3
				c-0.1,2.2,0.7,4.2,1.2,6.2c0.2,1.8,0.1,3.6,0.3,5.5c1.7,5,0.7,10.4,2.5,15.3c0.3,3.4,0.2,6.8,1.4,10.1c0.2,3.9,0.1,7.8,1.4,11.5
				C357.4,601.9,361.5,607.5,357.7,612.9z"/>
			<path class="st2" d="M253.2,422.5c-1.7,2.8-3.7,5.3-7.3,5.8c-6.4,1.7-11.6-0.2-13.5-6.6c-6.3-21.3-12.1-42.7-18.3-64.7
				c6.6,1,12.7,2.3,18.3-0.9c3.1-1.7,3,1.2,3.4,2.5c2.2,7.1,4.2,14.3,6.3,21.5c0.9,1.8,2.1,3.5,2,5.6c1.4,3.8,2.2,7.7,3.4,11.5
				c0.9,2.7,1.9,5.4,2.8,8c0.4,2.6-0.1,5.6,2.8,7.3c0,0.5,0,0.9,0.1,1.4C252.9,416.8,253.2,419.6,253.2,422.5z"/>
			<path class="st20" d="M292.8,359.2c3.2-0.5,6.4-1.1,9.5-1.6c2.5-0.4,3.3,1,3.2,3.2c0,2.3-1.4,2.7-3.2,2.4c-2.7-0.4-5.5-1-8.2-1.4
				C293.3,361.1,292,360.8,292.8,359.2z"/>
			<path class="st21" d="M315.5,376c-0.1-1.8-0.2-3.6-0.3-5.4c0-1.1,0.1-2.1,0.1-3.2c1.6,2.7,1.4,5.7,1.4,8.6
				C316.3,376.5,315.9,376.4,315.5,376z"/>
			<path class="st22" d="M292.8,359.2c0.5,0.8,0.9,1.7,1.4,2.5c-1.8,0-4.1,0.6-4.4-1.9C289.6,359,291.7,359.1,292.8,359.2z"/>
			<path class="st23" d="M243.6,385.8c-0.5-1.9-0.9-3.8-1.4-5.6c0.3,0,0.6,0,0.9,0c0.9,1.8,2.1,3.5,1.8,5.7
				C244.5,386.3,244,386.3,243.6,385.8z"/>
			<path class="st2" d="M454.9,618.8c-2.2,0.3-4.4,0.6-6.7,0.9c-2.5-1.9-1.8-4.3-1.3-6.8c0.4-5.8,0.1-11.6,0.2-17.3
				c-0.2-0.4-0.1-0.7,0.3-0.9c-0.4,0-0.5,0.3-0.3,0.9c-0.1,5.5,0,11-0.1,16.5c-1,2.5-0.1,5.6-2,7.9c-1.1,0.4-2.2,0.8-3.2,1.2
				c-3.1-0.2-6.2,0.3-9.1,1.3c-3.2-3-1.5-6.8-1.8-10.3c-0.3-3.4,0.3-6.8-0.7-10.2c-0.1-3.6-0.1-7.3,0-10.3c0,0.1,0,0.8,0,1.6
				c0,3-0.1,6.1,0.1,9.1c0.4,6.8,1.9,13.6-1,20.2c-0.9,0-1.8,0-2.7,0c-0.1-7-0.1-14-0.3-21c-0.1-2.2,0.9-6.4-3.2-5
				c-3.6,1.2-10.5-2.7-10.6,5.3c0,5.1-0.1,10.3,0.7,15.3c1,6.3-0.8,9.7-7.5,9.5c-1.6-1.3-1.9-3.2-2.3-5c-0.3-3.8,0.4-7.6-0.5-11.3
				c-0.6-3.6,0.1-7.2-0.5-10.7c-0.2-0.6-0.4-1.2-0.4-1.9c0,0.7,0.2,1.4,0.5,2.1c0.6,4-0.4,8,0.8,12c0.2,3.5-0.1,7,0.1,10.6
				c0.5,1.6,0.4,3.1-0.8,4.4c-6,1.5-12.1,2.9-18.3,2.9c-2.1-2-0.9-5-2-7.4c-0.2-2.2,0-4.4-0.2-6.6c-1.1-2.7-0.1-5.7-1.1-8.4
				c-0.4-1.7,0-3.5-0.3-5.2c0,0.1,0.3,0.1,0.3,0.1c-0.3,1.8-0.2,3.5,0.1,5.3c0.9,2.8,0,5.8,1.1,8.6c0.2,2.7-0.2,5.5,0.6,8.1
				c0.1,2.4,0.5,4.8-1.5,6.7c-0.7,0.1-1.4,0.2-2.1,0.2c-5.3-0.1-12.1,5.2-15.6,0c-2.6-4-3.6-10.4-3.1-16.2c0.1-1.1-0.2-2.3-0.4-3.5
				c-3.2-6.8-2.9-14.2-4.6-21.3c-0.1-3.5-0.4-6.9-1.5-10.2c0.3-3.5-0.9-6.8-0.8-10.3c-0.2-4.9-1.7-9.6-1.9-14.4
				c-0.3-1.8-1-3.5-0.9-5.4c-0.1-2.1,0.2-4.2-0.6-6.3c-0.3-1.7-0.9-3.4-0.8-5.1c0-1.8-0.1-3.5-0.7-5.2c0.1-1.8-0.8-3.5-0.7-5.3
				c-0.6-5.1-1.5-10.2-2-15.3c0-1.9-0.7-3.6-0.8-5.5c-0.3-4.8-1.5-9.4-2-14.1c-0.3-1.8-0.1-3.6-0.3-5.5c-1.4-3.6-2.4-7.1,2.1-9.4
				c1.6-0.9,3.3-1.2,5.1-1.2c2.5,0.6,5,1.4,7.4-0.3c1.8-0.9,3.7-1.2,5.7-1.1c2.2,0.8,4.4,0.3,6.6-0.3c2-0.2,4-0.1,6-0.1
				c2.1,0.1,4-0.6,6-1.2c1.7-0.2,3.4-0.2,5.1-0.2c2,0,3.9-0.3,5.7-1.3c1.8-0.9,3.8-1.3,5.8-1.2c2.2,0.8,4.4,0.4,6.6-0.3
				c2-0.2,4-0.1,6-0.1c2.1,0.1,4-0.6,6-1.2c1.7-0.2,3.4-0.2,5.1-0.2c2,0,3.9-0.3,5.7-1.3c1.8-0.9,3.8-1.3,5.8-1.2
				c2.2,0.8,4.4,0.4,6.6-0.3c2-0.2,4-0.1,6.1-0.1c2.1,0.1,4-0.6,6-1.2c1.7-0.2,3.4-0.2,5.2-0.2c2.1,0.1,4.1-0.5,6-1.5
				c2.1-1,4.3-1.4,6.6-0.7c4.3,1.3,6.8,3.6,5.1,8.5c-3,40.4-5.9,80.8-8.9,121.2c-2.2,0.4-2.3-1.2-2.6-2.6c0,0.1,0,0.3,0,0.8
				c0.2,2.6,1,5.2,0.4,7.9c-1.5,3.1-0.4,6.9-2.9,9.6C459.9,612.8,462.1,618.6,454.9,618.8z"/>
			<path class="st2" d="M512.4,391.4c2.3-0.5,1.7-2.5,1.9-4c0.4-2.4,0.6-4.9,4-4.5c3.8,0.4,1.7,3,1.8,4.8c0.1,1.3-0.8,3.1,1.4,3.2
				c1.8,0.1,2-1.5,2.3-2.9c0.5-2.4-0.8-6.6,3.8-5.9c3.9,0.7,1.1,4.4,2,6.5c0.2,0.4,0.4,0.8,0.7,1.2c3.1,0.2,2.1-2.4,2.7-3.9
				c0.7-1.8,0.2-4.7,3.4-4.4c3.7,0.3,1.6,3.2,1.9,4.9c0.2,1.1-0.2,2.3,1.2,3.1c2.5-0.3,2.4-2.5,2.7-4.2c0.3-2.4,0.5-5,3.8-4.7
				c3.4,0.4,1.7,3.2,2,5c0.2,1.1-0.3,2.4,1.5,2.8c2.4-0.7,1.8-3,2-4.6c0.4-3,2-3.9,4.8-3.8c3.5,0.2,2.5,2.6,2.3,4.6
				c-2.7,31.1-5.4,62.2-8.1,93.3c-3.6,41.1-7.2,82.3-10.9,123.4c-0.3,3.2,0.9,7.8-2.1,9.2c-4.8,2.1-10.3,2.8-15.6,3.5
				c-2.6,0.3-1.7-2.3-1.5-3.7c0.6-5.8,1.7-11.6,2.1-17.5c0.2-2,2.1-6.3-1.9-5.8c-3.7,0.5-9.9-2.3-10.8,4.6
				c-0.8,5.8-1.4,11.7-1.3,17.5c0,6.4-2.8,8.8-9,9.6c-11,1.5-11.2,1.9-10.4-9.2c3.5-46.6,7.2-93.1,10.8-139.7
				c2-26.4,4-52.9,6.1-79.3c0.1-1.4,0.2-2.8,0.2-4.2c0.1-1.9,0.9-3.1,2.9-3.2c2.6-0.2,2.3,1.5,2.4,3.2
				C511.2,388.2,509.9,390.3,512.4,391.4z"/>
			<path class="st2" d="M362.9,477.5c-1.7,0.5-3.4,0.9-5.1,1.4c-2.5-0.5-5,0.8-7.5,0c-1.3,0.5-2.5,1-3.8,1.5
				c-1.4-1.5-5.4,0.4-4.9-3.5c0.4-3.4,3.1-4.5,6-4.9c11.3-1.7,22.6-3.2,34-4.3c15.3-1.5,15.3-1.3,15.3-16.4c0-2.8,0.3-5.6,0-8.4
				c-1.4-11.6,6.1-18.1,13.9-24.2c3.8-3,7.5-1.8,10.4,1.8c0.4,0.8,0.4,1.6-0.1,2.3c8.8,10.8,5,23.6,5.2,35.6
				c0.1,5.8,1.8,7.2,7.3,6.4c12.5-1.8,25.1-3.1,37.6-4.6c2.5-0.3,6-1.7,3.5,3.3c-1.7,1.8-3.9,1.2-6,1.4c-1.7,0.5-3.4,0.9-5.1,1.4
				c-2.3-0.1-4.5,0.1-6.8,0.7c-2,0.1-4-0.2-6,0.5c-2,0.4-4.1,0-6.1,0.8c-1.7,0.2-3.5,0-5.2,0.2c-2,0.8-4.1,0.6-6.2,0.6
				c-1.7,0.5-3.4,0.9-5.1,1.4c-2.3-0.1-4.5,0.1-6.8,0.7c-2,0.1-4-0.2-6,0.5c-2,0.4-4.1,0-6.1,0.8c-1.7,0.2-3.5,0-5.2,0.2
				c-2,0.8-4.1,0.6-6.2,0.6c-1.7,0.5-3.4,0.9-5.1,1.4c-2.3-0.1-4.5,0.1-6.8,0.7c-2,0.1-4-0.2-6,0.5c-2,0.4-4.1,0-6.1,0.8
				c-1.7,0.2-3.5,0-5.2,0.2C367.1,477.7,365,477.5,362.9,477.5z"/>
			<path class="st24" d="M421.1,422.7c0-0.6-0.1-1.2-0.1-1.8c-3.1-2.8-6.8-4.4-10.7-5.9c-2.5-1-5.2-2.2-6-5.3c0.2-1.8,2-1.7,3-2.6
				c2.2-0.1,4.5-0.2,6.7-0.4c4.2-0.5,8.5-0.9,12.7-1.4c1.4,0,2.8,0,4.2,0.1c7.9,4.9,15.8,9.8,23.7,14.7
				C443.2,421.5,432.4,426.5,421.1,422.7z"/>
			<path class="st25" d="M527.8,378.8c-11.3,1.8-22.6,5-33.5-1.6l-0.1,0.1c1.9,0.4,2.9-0.4,3.6-2.2c1.5-3.9,3.4-5.2,5.3-0.1
				c1.1,3,2.6,2.3,3.4,0c0.7-1.9,1-3.3,3.5-3.3c3.2,0,2.1,3.1,3.7,4.7c2.9-2.9,6.7-10,8,0.8c0.2,1.8,2.2,0.8,3.4,0
				C526.5,377.1,527.2,377.9,527.8,378.8z"/>
			<path class="st25" d="M438.2,384.4c9-0.9,18-1.9,28.1-2.9c-3.6,5.5-8.7,3.4-12.8,5.2c2.2,2.8,5.5,3.2,8.4,4.4
				c2.4,1,3.8,2.4,2.6,4.7c-1.1,2.1-2.9,0.1-4.1-0.4c-7.5-3.1-14.9-6.4-22.4-9.6C438,385.2,438.1,384.8,438.2,384.4z"/>
			<path class="st26" d="M464.5,587.2c0.4,2-0.1,4.1,1.4,5.8c-0.5,7.8-1,15.7-1.6,24.9c-3.5-3.4-1.7-6.7-2.7-9.2
				c0.5-3.3-0.3-6.8,0.8-10.1c0.2-3,0-6.1,0.1-9.1C462.7,588.3,463.1,587.4,464.5,587.2z"/>
			<path class="st27" d="M494.3,377.3c-2.3,0.4-4.9,0.8-5.4-2.4c-0.3-2,1.1-3,3-2.8c3.9,0.4,2.1,3.3,2.3,5.4
				C494.2,377.4,494.3,377.3,494.3,377.3z"/>
			<path class="st28" d="M463,598.7c0,3.4,0.8,6.9-1.3,10l-0.4,0.1h-0.4c0.1-3.4-1-6.8,0.9-10C462.1,598,462.5,598,463,598.7z"/>
			<path class="st19" d="M468.6,464.8c1.8-1.5,3.9-1.3,6-1.4c1.4,2.8,2.3,5.6,0.2,8.4C475.9,466.8,471.6,466.4,468.6,464.8z"/>
			<path class="st29" d="M527.8,378.8c-0.9-0.5-1.7-1.1-2.6-1.6c0.2-1.4-0.6-4,1.7-3.5C529.7,374.4,528.2,376.9,527.8,378.8z"/>
			<path class="st30" d="M485.7,373.7c-1.9,1.5-3.8,1.5-4.3,0.5c-1.3-2.3,1-1.7,2-1.7C483.9,372.4,484.5,373,485.7,373.7z"/>
			<path class="st31" d="M543.2,377.4c0.1,1.3-1,1.3-1.9,1.3c-0.6,0-1.6-0.4-1.7-0.8c-0.2-0.9,0.1-1.8,1.4-1.8
				C542,376.1,542.9,376.2,543.2,377.4z"/>
			<path class="st32" d="M533.8,378.7c-0.9,0-1.6-0.6-1.5-1.6c0.1-0.8,0.5-2,1-2.2c1.3-0.4,2.1,0.6,2.1,1.8
				C535.4,377.7,535,378.5,533.8,378.7z"/>
			<path class="st2" d="M353.6,412.8c2.3-0.1,4.5-0.3,6.8-0.4c6.8-0.4,13.5-0.7,20.1-2.3c4.3-0.1,8.6,0.2,12.8-1.4
				c2.2-0.1,4.4-0.3,6.6-0.4c0.9,0.5,1.7,1,2.6,1.5c0.2,3.3-2.3,5-4.4,6.8c-5.5,4.7-11.2,9.2-16.6,14c-4.8,4.3-11,3.6-16.7,4.3
				c-7.2,0.9-14.3,1.9-21.6,2.4c-3.1,0.2-6.2,0.4-7.9-3c0.3-4.8-3.4-9.9,0.9-14.5c1.6-0.6,3.1-1.1,4.7-1.7c0.9-1.3,1.8-2.7,2.6-4
				C346.9,413.8,350.4,414.5,353.6,412.8z"/>
			<path class="st33" d="M336.2,419.8c-2.2,4.7,0.2,9.4,0,14.1c-0.4,1,0,2.3-1.3,2.9c-0.4-1.1-1.1-2.2-1-3.3
				c0.3-5.4-1.6-10-5.6-13.6C331,421.4,333.6,421.2,336.2,419.8z"/>
			<path class="st21" d="M319.5,398.7c-1.8-2.7-1.5-5.7-1.5-8.6c0.4-0.7,0.9-0.7,1.2,0C319.1,393,321.3,395.8,319.5,398.7z"/>
			<path class="st18" d="M315.5,376c0.4,0,0.9,0,1.3,0c1,1.9,2.4,3.9-0.1,5.8C315.8,379.9,315.2,378,315.5,376z"/>
			<path class="st34" d="M320.9,409.9c-0.5-2-2.3-4,0.1-6C321.4,405.9,323.7,407.9,320.9,409.9z"/>
			<path class="st19" d="M319.3,390.1c-0.4,0-0.8,0-1.2,0c-0.7-1.9-2.6-3.9,0.1-5.8C318.5,386.3,318.9,388.2,319.3,390.1z"/>
			<path class="st35" d="M327,419.7c-3.2,1-4.3-0.1-3.3-3.3C324.8,417.6,325.9,418.6,327,419.7z"/>
			<path class="st36" d="M356.3,590.1c2.4,7,3.1,14.3,3.9,21.5c-0.8,0.4-1.6,0.9-2.4,1.3c-0.6-5.5-1.1-11-1.7-16.5
				C355.3,594.3,355,592.1,356.3,590.1z"/>
			<path class="st37" d="M381.3,631.1c0.2-2.3,0.3-4.7,0.5-7c0.2-0.7,0.7-1.2,1.3-1.4c1.4,2.2,1,4.8,1.3,7.2
				C383.3,630.3,382.3,630.7,381.3,631.1z"/>
			<path class="st19" d="M404.3,622.8c0.5,1.4,1,2.8,1.4,4.1c-1,0-2,0.1-3.1,0.1c0.1-1.4,0.2-2.9,0.3-4.3
				C403.4,621.9,403.9,621.9,404.3,622.8z"/>
			<path class="st19" d="M429.4,622.7c0.1-7.1,0.2-14.1,0.3-21.2c0.5-0.7,0.9-0.7,1.2,0.1c2.7,6.8-0.2,14,1.8,20.9
				C431.6,622.6,430.5,622.7,429.4,622.7z"/>
			<path class="st38" d="M447.6,612.9c0.2,2.3,0.4,4.6,0.6,6.9c-1,0.1-2.1,0.2-3.1,0.3c0.6-2.3-0.4-5,1.2-7.1
				C446.7,612,447.2,611.9,447.6,612.9z"/>
			<path class="st1" d="M334.9,436.8c0.4-1,0.9-1.9,1.3-2.9c9.1,1.8,17.9-1.8,26.9-1.9c9.6-0.1,17.7-3.1,24.5-10.5
				c4.2-4.6,9.8-7.9,14.8-11.8c0.6,0,1.2,0,1.8,0.1c6.6,2.1,13.1,4.6,16.7,11.2c-6.1-4.6-9.1,0.5-13.1,3.9c-6.4,5.5-9.6,11.7-8,20.2
				c0.6,3.2,0.2,6.6,0.3,9.8c0.2,13.7,0.2,13.7-13.7,15.4c-13.1,1.5-26.1,3.1-39.1,4.6c-1.8,0.2-4.3-0.2-4.9,2
				c-0.9,3.4,3.5,1.3,4.1,3.5c-4.9,0.6-3.2,4.2-3.3,7c-0.4,1-0.8,1-1.3,0.1C338.6,470.7,336.7,453.8,334.9,436.8z"/>
			<path class="st1" d="M321.3,534.7c0.7,2.2-0.1,3-2.5,3.6c-12.7,3-13.4,2.6-16.2-10.1c-1.5-6.9-2.9-13.8-4.7-20.6
				c-1-3.6,0.2-4.3,3.5-4.8c14.1-2.2,14.1-2.3,16.6,11.6c1.1,6.2,2.1,12.5,3.2,18.7C321.1,533.7,321.2,534.2,321.3,534.7z"/>
			<path class="st1" d="M293.8,468.3c-3.8,0.8-4.8-0.5-5.4-3c-1.7-8.3-3.6-16.5-5.5-24.7c-0.8-3.5,0.2-4.9,4-5.4
				c14.9-1.9,14.9-2.1,17.8,12.7c0.8,4.1,1.1,8.5,2.4,12.4c2,6.1-0.7,7.5-6,7.4C298.3,467.7,295.5,468.2,293.8,468.3z"/>
			<path class="st39" d="M346.5,512.4c0.8,5.3,1.6,10.6,2.4,15.9c-0.8,1,0,2.6-1.4,3.3c-0.8-5.4-1.6-10.7-2.4-16.1
				C345.9,514.7,345.2,513.1,346.5,512.4z"/>
			<path class="st40" d="M352.2,554.6c0.8,4.9,1.5,9.8,2.3,14.7c-1.2,1.8,0.5,4.3-1.4,6c-0.8-5.3-1.6-10.7-2.4-16
				C351.8,557.9,350.4,555.7,352.2,554.6z"/>
			<path class="st41" d="M343.7,492.8c1.8,4.7,1.7,9.6,2.3,14.5c-0.8,0.9,0.1,2.7-1.5,3.3c-1.5-5.3-1.9-10.7-2.3-16.1
				C342.7,493.8,342.7,492.8,343.7,492.8z"/>
			<path class="st18" d="M243.6,385.8c0.5,0,0.9,0,1.4,0c1.5,3.7,3.3,7.3,2.7,11.4C244.7,394,244.7,389.7,243.6,385.8z"/>
			<path class="st40" d="M353.2,575.3c0.3-2-0.1-4.2,1.4-6c0.1,3.7,0.2,7.3,0.3,11c0.8,1.7,1.1,3.4-0.3,5
				C353.1,582,353.2,578.6,353.2,575.3z"/>
			<path class="st42" d="M354.5,585.2c0.1-1.7,0.2-3.3,0.3-5c3.2,2.9,0.8,6.6,1.4,9.8c-0.1,2.1-0.2,4.2-0.3,6.4
				C354.5,592.8,354.6,589,354.5,585.2z"/>
			<path class="st19" d="M253.2,422.5c-1.8-2.8-2-5.7,0-8.5C254.4,416.8,255.1,419.7,253.2,422.5z"/>
			<path class="st43" d="M253.2,412.6c-4.2-1.2-3.9-4.1-2.8-7.3C251.4,407.7,252.3,410.2,253.2,412.6z"/>
			<path class="st44" d="M350.7,543.4c1.1,1.9,1.2,4,1.1,6.1c-1.2,1.3,0.2,3.4-1.4,4.5c-1-1.9-1.2-4-1-6.1
				C350.4,546.7,349,544.6,350.7,543.4z"/>
			<path class="st23" d="M350.4,554c0.3-1.6,0.2-3.3,1.4-4.5c0.1,1.7,0.3,3.4,0.4,5.1c-0.5,1.5-1,3.1-1.4,4.6
				C350.6,557.5,350.5,555.8,350.4,554z"/>
			<path class="st44" d="M349.4,533.5c0.9,1.5,1.1,3.1,0.9,4.8c-1,1.3,0.3,3.4-1.4,4.5c-1.2-1.9-1.2-4-1.1-6.1
				C348.8,535.8,347.9,534.1,349.4,533.5z"/>
			<path class="st45" d="M348.9,542.8c0.5-1.5,0.9-3,1.4-4.5c0.1,1.7,0.3,3.4,0.4,5.2c-0.5,1.5-0.9,3-1.4,4.5
				C349.2,546.2,349.1,544.5,348.9,542.8z"/>
			<path class="st46" d="M344.6,510.5c0.5-1.1,1-2.2,1.5-3.3c0.1,1.7,0.3,3.5,0.4,5.2c-0.5,1-0.9,2.1-1.4,3.1
				C344.9,513.9,344.7,512.2,344.6,510.5z"/>
			<path class="st45" d="M349.4,533.5c-0.5,1.1-1,2.1-1.5,3.2c-0.1-1.7-0.3-3.4-0.4-5.1c0.5-1.1,1-2.2,1.4-3.3
				C349,530.1,349.2,531.8,349.4,533.5z"/>
			<path class="st1" d="M343.7,492.8c-0.5,0.5-1,1.1-1.5,1.6c-0.2-2.3-0.3-4.6-0.5-6.9c0.4,0,0.9-0.1,1.3-0.1
				C343.4,489.2,343.5,491,343.7,492.8z"/>
			<path class="st47" d="M427.5,551.1c0,0.5,0,0.9,0,1.4c0,15.4-1.7,16.9-17.5,16.6c-3.2-0.1-4-1.5-4.2-4.2
				c-0.4-7.7-0.9-15.5-1.5-23.2c-0.3-3.2,0.6-5,4-5c0.9,0,1.9-0.1,2.8-0.2C427.5,534.7,427.5,534.7,427.5,551.1z"/>
			<path class="st47" d="M394,561.3c0.5,10.8,0.5,10.6-7.2,11c-2.5,0.1-3.9-0.1-4.2-3c-0.7-8.1-1.8-16.2-2.5-24.3
				c-0.6-6.8,5.2-4.3,8.4-5.3c4.2-1.2,4.2,1.8,4.4,4.8C393.1,550.1,393.6,555.7,394,561.3z"/>
			<path class="st48" d="M372,569.3c1.5,4.2-1.1,5.4-6,6.2c-6.2,0.9-4.9-3.6-5.4-6.5c-1.1-6.7-1.6-13.4-2.8-20.1
				c-0.8-4.6,1.3-5.6,5.2-6c3.7-0.4,6.1-0.5,6.4,4.4C369.7,554.2,371,561.1,372,569.3z"/>
			<path class="st49" d="M463.1,545.6c0,4,0,8,0,11.9c0,2.6-0.6,4.2-3.7,4.9c-5.2,1.2-7.9,0.6-7.3-5.7c0.7-7,1.1-14,0.9-21
				c-0.1-6.1,4.4-5.2,7.7-5.5c4.5-0.4,2.3,3.5,2.5,5.6c0.3,3.2,0.1,6.5,0.1,9.8C463.2,545.6,463.2,545.6,463.1,545.6z"/>
			<path class="st49" d="M435.3,549.2c0-3.3,0.3-6.6-0.1-9.8c-0.6-5.5,2.2-6.8,7-6.9c6-0.2,3.8,4.2,3.8,6.9c0,6.8-0.8,13.6-0.7,20.3
				c0.1,5.6-3.6,5-7,5.3c-4.4,0.4-3.3-2.9-3.3-5.2c0-3.5,0-7,0-10.5C435.1,549.2,435.2,549.2,435.3,549.2z"/>
			<path class="st50" d="M424.1,488.8c-1.3-4.6-5.1-6.9-10-9.2c8.9-1.3,13.8,2.6,14,10.2c0.2,6.6,0.2,13.1,0.2,19.7
				c0.5,2.4-1,2.4-2.7,2.3c-0.7-0.4-1.1-1.1-1-1.9C424.2,502.9,425.1,495.9,424.1,488.8z"/>
			<path class="st51" d="M416.9,511.6c2.2-0.1,4.4-0.3,6.6-0.4c0.7-0.8,1.2-0.7,1.7,0.2l0,0c0.6,0.6,1.1,1.2,1.5,2
				c0.9,3.3,1,6.5-0.8,9.5l-0.6-0.1c-2.2,0.7-2.7-0.9-3.3-2.3c0,0.1-0.4,0.1-0.4,0.2c-0.2,1.5-1,2.4-2,3.2
				c-4.2-0.4-8.4,3.2-12.7,0.2c-0.1-0.3-0.2-0.6-0.2-0.8c-0.7-2.2-0.1-4.6-1-6.8c-0.3-0.5-0.5-1.1-0.6-1.6c0-0.6,0.1-1.1,0.4-1.6
				c1.9-0.2,3.8-0.3,5.6-0.5c0.4,0.1,0.6,0.4,0.6,0.8c0.5,0.4,0.3-0.3,0.5-0.4c2.3-1.1,2.9,0.5,3.5,2c0-0.1,0.2-0.6,0.2-0.7
				C416,513.2,416.3,512.3,416.9,511.6z"/>
			<path class="st52" d="M419.9,491.5c1.1,0.3,2.6,1.9,2.1,2c-7.2,1.6-4.1,7.1-4.5,11.3c-0.2,1.6-0.7,3.1-1.1,4.9
				c-3-4.6-0.6-9.2-1.2-13.7c-0.7-1-0.9-2.1-0.4-3.2C416.2,491.1,417.9,490.6,419.9,491.5z"/>
			<path class="st53" d="M422.4,512.8c3.2,2.6,0.1,7.2,2.9,9.9c-1.7,1.4-3.7,1.3-5.7,1.1c0.5-3.7-1.5-7.7,1.5-11
				c1.4,3,0.2,6.3,0.6,9C422.1,519.1,421,515.9,422.4,512.8z"/>
			<path class="st28" d="M402.6,611.7c-2-4.2-0.8-8.6-1-12.9c0.4-0.8,0.8-0.7,1.1,0.1c2,3.6,1.3,7.6,1.2,11.4
				C403.7,610.9,403.2,611.4,402.6,611.7z"/>
			<path class="st53" d="M425.2,511.4c-0.6-0.1-1.1-0.1-1.7-0.2c1.6-7.4,0.2-14.9,0.6-22.3C426.6,496.3,424.8,503.9,425.2,511.4z"/>
			<path class="st53" d="M419.9,491.5c-1.5,0.5-3.1,1-4.6,1.6c-1.5,0.8-2.1-0.3-2.6-1.4c-0.6-2.8,1.9-3.8,3.5-4.1
				C418.4,487.2,419.6,489.2,419.9,491.5z"/>
			<path class="st53" d="M425.4,513c-0.1-0.5-0.1-1.1-0.2-1.6c1-0.6,2.1-1.2,3.1-1.8c3.9,1.6,2.2,4.8,2.3,7.6
				c-1.2,1.2,0.9,4.7-2.8,4.3C425.4,519.1,427.9,515.4,425.4,513z"/>
			<path class="st1" d="M447.6,612.9c-0.4,0-0.9,0-1.3,0c0.1-6.6,0.2-13.1,0.3-19.7c0.4-0.5,0.8-0.5,1.3-0.1
				C447.8,599.7,447.7,606.3,447.6,612.9z"/>
			<path class="st2" d="M425.4,513c5.6,1.3,1.5,5.5,2.5,8.2c-0.1,1.2-1.3,1.1-2,1.5c0,0,0,0.1,0.1,0.1
				C425.8,519.6,425.6,516.3,425.4,513z"/>
			<path class="st19" d="M381.6,615.7c-2-2.6-1.4-5.6-1.3-8.5c0.5-0.9,0.9-0.9,1.3,0.1c1.8,2.7,1.2,5.7,1,8.6
				C382.2,616.5,381.9,616.5,381.6,615.7z"/>
			<path class="st54" d="M447.9,593.2c-0.4,0-0.9,0.1-1.3,0.1c-0.1-2.6-0.8-5.3,1-8.8C449.2,587.9,449.4,590.5,447.9,593.2z"/>
			<path class="st55" d="M416.9,511.6c0.4,1,0.7,1.9,1.1,2.9c-1.5,1-0.7,3.7-2.9,4.1c-2.2-0.5,0.5-4.2-2.7-4.2
				c-0.5,0.3-1,0.2-1.3-0.4c0-0.5,0-1,0.1-1.4C412.9,511.2,414.9,511.4,416.9,511.6z"/>
			<path class="st1" d="M430.9,601.7c-0.4,0-0.8-0.1-1.2-0.1c0-4.3,0-8.6,0-12.9C431.8,592.9,431,597.3,430.9,601.7z"/>
			<path class="st48" d="M402.6,611.7c0.4-0.5,0.9-1,1.3-1.4c0.1,4.2,0.3,8.4,0.4,12.5l-0.7-0.1h-0.7
				C402.8,619,402.7,615.4,402.6,611.7z"/>
			<path class="st19" d="M350.3,478.9c2.5-0.9,5-2.3,7.5,0C355.3,480.4,352.8,481.4,350.3,478.9z"/>
			<path class="st19" d="M398.1,473.3c1.8-1.5,3.9-1.4,6.1-1.2c0.9,0.5,0.9,0.9,0,1.4C402.1,474.7,400,475.5,398.1,473.3z"/>
			<path class="st19" d="M362.9,477.5c1.8-1.5,3.9-1.4,6.1-1.2c0.9,0.5,0.9,0.9,0,1.4C366.8,479,364.8,479.7,362.9,477.5z"/>
			<path class="st56" d="M374.3,475.9c1.8-1.3,3.9-1.3,6-1c0.5,0.5,1.5,0.5,1.5,1.5c-1.8,1.3-3.9,1.3-6,1
				C375.2,476.9,374.3,476.9,374.3,475.9z"/>
			<path class="st19" d="M387.2,474.5c2-1.5,4-1.6,5.9,0.2c-1.7,1.5-3.8,1.4-5.9,1.2C386.2,475.4,386.2,475,387.2,474.5z"/>
			<path class="st19" d="M457.6,466c2-1.4,4-1.5,5.9,0.2c-1.7,1.5-3.8,1.4-5.9,1.2C456.7,467,456.7,466.5,457.6,466z"/>
			<path class="st57" d="M444.8,467.4c1.8-1.3,3.9-1.3,6-1c0.5,0.4,1.5,0.5,1.5,1.5c-1.8,1.3-3.9,1.3-6,1
				C445.7,468.4,444.8,468.4,444.8,467.4z"/>
			<path class="st19" d="M433.4,469.1c1.8-1.5,3.9-1.4,6.1-1.2c0.9,0.5,0.9,0.9,0,1.4C437.3,470.5,435.3,471.3,433.4,469.1z"/>
			<path class="st58" d="M379.9,598.9c-1.2-1.3-1.2-2.9-0.6-4.4c0.1-0.2,0.9-0.5,1.1-0.4c1.9,1.3,1,3.2,1,4.9
				C380.8,599.8,380.4,599.7,379.9,598.9z"/>
			<path class="st19" d="M422.4,470.3c2-1.5,4-1.6,5.9,0.2c-1.7,1.5-3.8,1.4-5.9,1.2C421.5,471.2,421.5,470.7,422.4,470.3z"/>
			<path class="st56" d="M409.5,471.6c1.8-1.3,3.9-1.3,6-1c0.5,0.5,1.5,0.5,1.5,1.5c-1.8,1.3-3.9,1.3-6,1
				C410.5,472.7,409.5,472.6,409.5,471.6z"/>
			<path class="st1" d="M463,598.7c-0.4,0-0.9,0-1.3,0.1c0.1-3.3,0.2-6.5,0.4-9.8c0.4-0.7,0.8-0.7,1.2,0
				C463.2,592.2,463.1,595.5,463,598.7z"/>
			<path class="st59" d="M405.6,514.3c0.3,0.1,0.7,0.2,1,0.3c2,3.1,0.9,6.4,0.6,9.6l-0.3-0.2h-0.6h-0.6c-0.3-0.2-0.6-0.4-0.9-0.6
				c-1.1-2.8-1-5.6-0.1-8.4C405,514.7,405.3,514.5,405.6,514.3z"/>
			<path class="st60" d="M412.6,491.6c0.9,0.5,1.8,0.9,2.6,1.4c0,1,0,2,0,3C412.2,495.9,409.3,495.7,412.6,491.6z"/>
			<path class="st34" d="M463.3,589c-0.4,0-0.8,0-1.2,0c0.1-1.7-1.1-4.3,0.9-4.9c1.8-0.5,1.1,2,1.5,3.1
				C464.1,587.8,463.7,588.4,463.3,589z"/>
			<path class="st61" d="M402.7,598.8l-0.6-0.1h-0.6c-0.2-2.6-0.5-5.2-0.9-9.7C403.6,593.3,402.9,596.1,402.7,598.8z"/>
			<path class="st19" d="M405.7,524c-3.2,0.9-3.2,0.9-2.8-5.7c0.6-0.3,1.2-0.3,1.6,0.2c0.6,1.8-0.3,3.8,0.8,5.5H405.7z"/>
			<path class="st62" d="M425.9,522.7c0-1.4,1.1-1.3,2-1.5c0.9-1.3,1.8-2.7,2.7-4C431.6,521.1,430.6,523.5,425.9,522.7z"/>
			<path class="st1" d="M379.9,598.9c0.5,0,1,0,1.5,0.1c0.1,2.8,0.2,5.6,0.3,8.4c-0.4,0-0.9-0.1-1.3-0.1
				C380.2,604.4,380.1,601.6,379.9,598.9z"/>
			<path class="st47" d="M381.6,615.7c0.3,0.1,0.7,0.1,1,0.1c0.2,2.3,0.3,4.5,0.5,6.8c-0.4,0.5-0.9,1-1.3,1.4
				C381.7,621.3,381.7,618.5,381.6,615.7z"/>
			<path class="st63" d="M452.2,467.9c-0.5-0.5-1-1-1.5-1.5c2.3-0.1,4.6-0.3,6.9-0.4c0,0.5,0,1,0,1.4
				C455.8,467.6,454,467.8,452.2,467.9z"/>
			<path class="st64" d="M439.4,469.3c0-0.5,0-0.9,0-1.4c1.8-0.2,3.6-0.3,5.4-0.5c0.5,0.5,1,1,1.5,1.5
				C444,469,441.7,469.2,439.4,469.3z"/>
			<path class="st63" d="M417,472.2c-0.5-0.5-1-1-1.5-1.5c2.3-0.1,4.6-0.2,6.9-0.4c0,0.5,0,0.9,0,1.4
				C420.6,471.8,418.8,472,417,472.2z"/>
			<path class="st64" d="M409.5,471.6c0.5,0.5,1,1,1.5,1.5c-2.3,0.1-4.6,0.3-6.9,0.4c0-0.5,0-0.9,0-1.4
				C406,472,407.7,471.8,409.5,471.6z"/>
			<path class="st49" d="M403.9,518.3c-0.3,0-0.7,0-1,0.1c0.2-2.1-1.8-5.2,2.6-5.2c0,0.4,0,0.8,0,1.1l0.3,0.3
				C403.8,515.1,405.7,517.6,403.9,518.3z"/>
			<path class="st64" d="M374.3,475.9c0.5,0.5,1,1,1.5,1.5c-2.3,0.1-4.6,0.3-6.9,0.4c0-0.5,0-0.9,0-1.4
				C370.7,476.2,372.5,476,374.3,475.9z"/>
			<path class="st63" d="M387.2,474.5c0,0.5,0,0.9,0,1.4c-1.8,0.2-3.6,0.3-5.4,0.5c-0.5-0.5-1-1-1.5-1.5
				C382.6,474.8,384.9,474.7,387.2,474.5z"/>
			<path class="st47" d="M525.7,492.8c-5.5,1.7-6.2-0.4-5.8-3.9c0.5-4.2,0.9-8.3,1.3-12.5c0.6-7.4,4-9.9,11.3-9
				c2.9,0.4,2.7,1.9,2.5,3.9c-0.8,6-1.8,12-2.5,18C531.9,495.2,526.9,491.8,525.7,492.8z"/>
			<path class="st48" d="M514.2,545.1c0.5-5.5,1.1-10.6,1.4-15.7c0.2-3.6,1.9-4.9,5.2-5.2c10.5-1,9.4-1.6,7.7,7.4
				c-0.7,3.4-0.8,7-1.4,10.4c-0.8,5.3-5.3,8.3-10.7,7.5C512.9,549.1,514.5,546.6,514.2,545.1z"/>
			<path class="st63" d="M544.9,430.6c-0.5,4.6-1.1,8.5-1.5,12.5c-0.5,4.9-4.8,4.1-7.6,4.3c-4.2,0.4-2.1-3.3-2-5.1
				c0.1-3.7,0.4-7.5,1.1-11.2c0.9-4.8,5.3-2.8,8.1-3.4C545.6,427.2,544.9,429.7,544.9,430.6z"/>
			<path class="st65" d="M518.7,445.9c0.4-4.4,1-7.6,0.9-10.9c-0.1-5.7,3.8-5.6,7.6-5.6c5.4,0,2.4,4,2.4,6.1c0,3.2-0.6,6.5-1.2,9.7
				c-0.9,4.7-5,3.6-7.9,3.8C517.6,449.2,518.8,446.5,518.7,445.9z"/>
			<path class="st66" d="M533.5,392c5.5,4.9,2.5,9,2.9,12.8c-0.6,0.1-1.3,0.1-1.9,0.2C534.1,401.2,533.8,397.4,533.5,392z"/>
			<path class="st33" d="M517,407c-2.5-2.7-1-5.3-1.2-7.7c-0.1-1-3.1-2.9,0.4-3.4c2.4-0.3,2.4,1.8,2.3,3.3
				C518.4,401.6,519,404.2,517,407z"/>
			<path class="st67" d="M546.4,403.4c-4.1-4.4-1.6-8.2-3.2-11.4C548.4,394.4,545.6,398.5,546.4,403.4z"/>
			<path class="st39" d="M525.2,394.6c4.4,3.3,2.8,7.1,1.1,12.4C524.2,402.1,526.3,398.2,525.2,394.6z"/>
			<path class="st68" d="M412.4,433c5.9-1.7,7.7,1,7.9,4.6c0.3,7.5,0.2,15,0.2,22.5c0,1.3,0,3.1-2,2.9c-1.8-0.2-2-1.8-1.9-3.2
				c0-5.4,0.1-10.8,0.2-16.2C416.8,439.8,416.7,436.1,412.4,433z"/>
			<path class="st69" d="M415,518.6c0.2-1.9-0.5-4.5,2.9-4.1c0,1.8,0.1,3.6,0.1,5.5s-0.9,3.3-2.9,2.6
				C412.8,521.5,414.9,519.9,415,518.6z"/>
			<path class="st2" d="M411.1,514.1c0.4,0.2,0.9,0.3,1.3,0.4c0.1,2.7,0.7,5.5-0.9,8.8C409.1,519.9,409,517.1,411.1,514.1z"/>
			<path class="st70" d="M407.1,524.2c-0.2-3.2-0.4-6.4-0.6-9.6C409.6,517.6,408.7,520.9,407.1,524.2z"/>
			<path class="st2" d="M422.4,512.8c0,2.7,0,5.4,0,9.8c-2.4-4.3-1.7-7.1-1.3-9.8C421.5,512.8,421.9,512.8,422.4,512.8z"/>
			<path class="st71" d="M403.9,518.3c0.3-1.4,0.1-3.1,1.9-3.7c-0.2,3.2-0.3,6.4-0.5,9.6C403.8,522.5,404.3,520.3,403.9,518.3z"/>
		</g>
	</g>
</g>
</svg>
