<?xml version="1.0" encoding="utf-8"?>
<!-- Generator: Adobe Illustrator 26.0.2, SVG Export Plug-In . SVG Version: 6.00 Build 0)  -->
<svg version="1.1"
	 id="svg2" xmlns:cc="http://creativecommons.org/ns#" xmlns:dc="http://purl.org/dc/elements/1.1/" xmlns:inkscape="http://www.inkscape.org/namespaces/inkscape" xmlns:rdf="http://www.w3.org/1999/02/22-rdf-syntax-ns#" xmlns:sodipodi="http://sodipodi.sourceforge.net/DTD/sodipodi-0.dtd" xmlns:svg="http://www.w3.org/2000/svg"
	 xmlns="http://www.w3.org/2000/svg" xmlns:xlink="http://www.w3.org/1999/xlink" x="0px" y="0px" width="458px" height="600px"
	 viewBox="0 0 458 600" style="enable-background:new 0 0 458 600;" xml:space="preserve">
<style type="text/css">
	.st0{fill:#F6DE19;}
	.st1{fill:#1B2E51;}
	.st2{fill:#FFFFFF;}
</style>
<sodipodi:namedview  bordercolor="#666666" borderopacity="1" gridtolerance="10" guidetolerance="10" id="namedview4" inkscape:current-layer="g10" inkscape:cx="1286.6518" inkscape:cy="952.53432" inkscape:pageopacity="0" inkscape:pageshadow="2" inkscape:window-height="790" inkscape:window-maximized="1" inkscape:window-width="1440" inkscape:window-x="0" inkscape:window-y="1" inkscape:zoom="5.0743638" objecttolerance="10" pagecolor="#ffffff" showgrid="false">
	</sodipodi:namedview>
<g id="g10" transform="matrix(1.25,0,0,-1.25,0,599.99995)" inkscape:groupmode="layer" inkscape:label="Brochure_18-19">
	<g id="g27451" transform="matrix(5.8891186,0,0,5.8891186,-5838.2035,-4254.314)">
		<path id="path21852" inkscape:connector-curvature="0" class="st0" d="M1022.5,725.2l-0.5,0.3c-0.3,0.2-8.4,4.8-16,15.2
			c-4.4,6.1-7.7,12.9-9.8,20.3c-2.6,9.2-3.3,19.3-2.1,30l0.1,0.7c0,0,18.3,6.9,28.4,6.9c10,0,28.4-6.9,28.4-6.9l0.1-0.7
			c1.2-10.7,0.5-20.8-2.1-30c-2.1-7.4-5.4-14.2-9.8-20.3c-7.5-10.4-15.6-15-16-15.2L1022.5,725.2L1022.5,725.2z"/>
		<path id="path21866" inkscape:connector-curvature="0" sodipodi:nodetypes="ccccc" class="st1" d="M1027,799.5l7.9-1.6v-61.7
			l-7.9-8V799.5z"/>
		<path id="path21868" inkscape:connector-curvature="0" sodipodi:nodetypes="ccccc" class="st1" d="M1010,797.9l7.9,1.6v-71.3
			l-7.9,8V797.9z"/>
		<g id="g27445">
			<path id="path21872" inkscape:connector-curvature="0" class="st1" d="M1019.5,732.5v-0.4h0.2v-1.4h0.4v1.8H1019.5z"/>
			<path id="path21884" inkscape:connector-curvature="0" class="st1" d="M1021.2,731.6c0.1,0,0.1,0,0.2,0.1
				c0.1,0.1,0.1,0.1,0.1,0.2c0,0.1,0,0.1-0.1,0.2c-0.1,0.1-0.1,0.1-0.2,0.1c-0.1,0-0.1,0-0.2-0.1c-0.1-0.1-0.1-0.1-0.1-0.2
				c0-0.1,0-0.1,0.1-0.2C1021.1,731.6,1021.2,731.6,1021.2,731.6 M1020.6,731.9c0,0.1,0,0.1,0,0.2c0,0.2,0.1,0.3,0.2,0.4
				c0.1,0.1,0.2,0.1,0.4,0.1c0.1,0,0.1,0,0.2,0c0.2,0,0.3-0.1,0.3-0.3c0.1-0.1,0.1-0.2,0.1-0.3c0-0.1,0-0.2,0-0.3
				c0-0.3-0.1-0.6-0.3-0.8c-0.1-0.1-0.3-0.2-0.5-0.2h0c-0.1,0-0.2,0-0.3,0.1l0,0l0.1,0.4l0,0c0.1,0,0.2,0,0.2,0c0.1,0,0.2,0,0.2,0.1
				c0,0,0,0,0,0.1c-0.1,0-0.1,0-0.2,0h0c-0.1,0-0.3,0-0.4,0.1c-0.1,0.1-0.2,0.1-0.2,0.2C1020.6,731.7,1020.6,731.8,1020.6,731.9
				L1020.6,731.9L1020.6,731.9z"/>
			<path id="path21888" inkscape:connector-curvature="0" class="st1" d="M1022.9,732c-0.1-0.1-0.1-0.2-0.1-0.4
				c0-0.4,0.1-0.5,0.4-0.5c0.2,0,0.4,0.2,0.4,0.5c0,0.1,0,0.3-0.1,0.4c-0.1,0.1-0.2,0.2-0.3,0.2C1023.1,732.2,1023,732.1,1022.9,732
				 M1022.6,731c-0.1,0.2-0.2,0.4-0.2,0.7c0,0.2,0.1,0.5,0.2,0.6c0.1,0.2,0.3,0.3,0.5,0.3c0.2,0,0.4-0.1,0.5-0.3
				c0.1-0.2,0.2-0.4,0.2-0.6c0-0.3-0.1-0.5-0.2-0.7c-0.1-0.2-0.3-0.2-0.5-0.2C1023,730.7,1022.8,730.8,1022.6,731"/>
			<path id="path21892" inkscape:connector-curvature="0" class="st1" d="M1024.4,730.7v0.4h0.3c0.2,0,0.3,0.1,0.3,0.3
				c0,0.2-0.1,0.3-0.3,0.3l-0.3,0l0.3,0.5h-0.3v0.4h0.9l-0.4-0.6c0.2-0.1,0.4-0.3,0.4-0.6c0-0.2-0.1-0.4-0.2-0.5
				c-0.1-0.1-0.3-0.1-0.4-0.1L1024.4,730.7L1024.4,730.7z"/>
		</g>
		<path id="path27418" inkscape:connector-curvature="0" class="st2" d="M1022.5,799.9c-10.4,0-29.4-7.2-29.4-7.2l-0.1-0.7
			c-0.3-2.8-0.5-5.6-0.6-8.3c-0.8-8,0.8-14,2.1-20.2c0.2-0.9,0.4-1.7,0.7-2.6c2.2-7.7,5.6-14.7,10.2-21.1
			c7.8-10.8,16.2-15.5,16.6-15.7l0.5-0.3l0.5,0.3c0.4,0.2,8.8,4.9,16.6,15.7c4.6,6.3,8,13.4,10.2,21.1c0.2,0.9,0.5,1.7,0.7,2.6
			c2.3,6.8,2.2,13.5,2.1,20.3c-0.1,2.7-0.3,5.5-0.6,8.3l-0.1,0.7C1051.9,792.7,1032.9,799.9,1022.5,799.9L1022.5,799.9z
			 M1022.5,797.1c9.6,0,27.3-6.6,27.3-6.6l0.1-0.7c1.2-10.3,0.5-20-2-28.8c-2-7.1-5.2-13.7-9.4-19.5c-7.3-10-15-14.4-15.4-14.6
			l-0.5-0.3l-0.5,0.3c-0.3,0.2-8.1,4.6-15.4,14.6c-4.3,5.9-7.4,12.4-9.4,19.5c-2.5,8.9-3.2,18.6-2,28.8l0.1,0.7
			C995.2,790.5,1012.8,797.1,1022.5,797.1L1022.5,797.1z"/>
		<path id="path27411" inkscape:connector-curvature="0" class="st1" d="M1022.5,803.9l-30.4-9.6l-0.1-1.4
			c-1.3-11.5-0.5-22.3,2.3-32.1c2.2-7.9,5.8-15.2,10.5-21.8c8.1-11.1,16.8-16,17.1-16.2l0.6-0.3l0.6,0.3c0.4,0.2,9,5.1,17.1,16.2
			c4.7,6.5,8.3,13.8,10.5,21.8c2.8,9.9,3.6,20.7,2.3,32.1l-0.1,1.4L1022.5,803.9L1022.5,803.9z M1022.5,798.6
			c10.1,0,28.5-6.9,28.5-6.9l0.1-0.7c0.3-2.7,0.5-5.4,0.5-8c0.2-6.5,0.2-13.1-2-19.6c-0.2-0.8-0.4-1.7-0.7-2.5
			c-2.1-7.4-5.4-14.3-9.9-20.4c-7.6-10.4-15.7-15-16-15.2l-0.5-0.3l-0.5,0.3c-0.3,0.2-8.5,4.8-16,15.2c-4.4,6.1-7.8,13-9.9,20.4
			c-0.2,0.8-0.5,1.7-0.7,2.5c-1.3,6-2.7,11.8-2,19.6c0.1,2.6,0.2,5.3,0.5,8l0.1,0.7C994,791.7,1012.4,798.6,1022.5,798.6
			L1022.5,798.6z"/>
		<path id="path27413" inkscape:connector-curvature="0" sodipodi:nodetypes="ccccccc" class="st1" d="M1053.1,783l-30.7,3.5
			l-30.7-3.5l2-19.6l28.7-2l28.7,2L1053.1,783z"/>
		<g id="g27423">
			<g id="g27387">
				<path id="path21896" inkscape:connector-curvature="0" class="st2" d="M1008.2,764.8v2.7l1.6-1.5v1.5h0.6v-2.7l-1.6,1.5v-1.5
					H1008.2z"/>
				<path id="path21900" inkscape:connector-curvature="0" class="st2" d="M1012.5,767.5V767h-1.4v-0.5h1.1v-0.5h-1.1v-0.6h1.4v-0.5
					h-1.9v2.7H1012.5z"/>
				<path id="path21904" inkscape:connector-curvature="0" class="st2" d="M1014,764.8l-1.2,2.7h0.6l0.5-1.4l0.5,1.4h0.6L1014,764.8
					L1014,764.8z"/>
				<path id="path21908" inkscape:connector-curvature="0" class="st2" d="M1017.3,767.5V767h-1.4v-0.5h1.1v-0.5h-1.1v-0.6h1.4v-0.5
					h-1.9v2.7H1017.3z"/>
				<path id="path21912" inkscape:connector-curvature="0" class="st2" d="M1018.7,765.9c0.1,0,0.2,0,0.3,0.1
					c0.2,0.1,0.3,0.3,0.3,0.5c0,0.2-0.1,0.4-0.3,0.5c-0.1,0-0.2,0.1-0.3,0.1h-0.5v-1.1H1018.7z M1019.8,766.5c0-0.4-0.2-0.7-0.4-0.9
					l0.3-0.7h-0.6l-0.2,0.6c-0.1,0-0.1,0-0.1,0h-0.5v-0.5h-0.5v2.7h1.1c0.2,0,0.4,0,0.5-0.1C1019.6,767.2,1019.8,766.9,1019.8,766.5
					"/>
				<path id="path21916" inkscape:connector-curvature="0" class="st2" d="M1020.3,765c-0.1,0.1-0.2,0.1-0.3,0.2l0.2,0.2l0.2,0.2
					c0,0,0.1-0.1,0.1-0.1c0.2-0.1,0.3-0.1,0.5-0.1c0.3,0,0.5,0.1,0.5,0.3v0c0,0,0,0.1-0.1,0.1c-0.1,0.1-0.2,0.1-0.5,0.1
					c-0.4,0-0.7,0.1-0.9,0.3c-0.1,0.1-0.2,0.3-0.2,0.5c0,0,0,0.1,0,0.1c0,0.2,0.1,0.4,0.3,0.5c0.2,0.1,0.4,0.2,0.7,0.2
					c0.3,0,0.5-0.1,0.8-0.2c0.1-0.1,0.2-0.1,0.3-0.2l-0.4-0.4c0,0,0,0-0.1,0.1c-0.2,0.1-0.3,0.1-0.5,0.1c-0.3,0-0.5-0.1-0.5-0.2v0
					c0,0,0-0.1,0-0.1c0.1-0.1,0.2-0.1,0.5-0.1c0.4,0,0.7-0.1,0.9-0.3c0.1-0.1,0.2-0.3,0.2-0.5c0,0,0-0.1,0-0.1
					c0-0.2-0.1-0.4-0.3-0.5c-0.2-0.1-0.4-0.2-0.7-0.2C1020.8,764.8,1020.6,764.9,1020.3,765"/>
				<path id="path21920" inkscape:connector-curvature="0" class="st2" d="M1025.2,765.9c0.1,0,0.2,0,0.3,0.1
					c0.2,0.1,0.3,0.3,0.3,0.5c0,0.2-0.1,0.4-0.3,0.5c-0.1,0-0.2,0.1-0.3,0.1h-0.6v-1.1H1025.2z M1026.3,766.5c0-0.4-0.2-0.7-0.4-0.9
					l0.3-0.7h-0.6l-0.2,0.6c-0.1,0-0.1,0-0.1,0h-0.6v-0.6h-0.5v2.7h1.1c0.2,0,0.4,0,0.5-0.1C1026.1,767.2,1026.3,766.9,1026.3,766.5
					"/>
				<path id="path21924" inkscape:connector-curvature="0" class="st2" d="M1028.7,767.5v-1.6c0-0.2,0-0.4-0.1-0.5
					c-0.2-0.4-0.5-0.5-1-0.5c-0.5,0-0.8,0.2-1,0.5c-0.1,0.2-0.1,0.4-0.1,0.5v1.6h0.5v-1.6c0-0.1,0-0.2,0.1-0.3
					c0.1-0.2,0.2-0.3,0.5-0.3c0.2,0,0.4,0.1,0.5,0.3c0,0.1,0.1,0.2,0.1,0.3v1.6H1028.7L1028.7,767.5z"/>
				<path id="path21928" inkscape:connector-curvature="0" class="st2" d="M1031.8,766.2c0-0.6-0.2-1-0.7-1.2
					c-0.2-0.1-0.5-0.2-0.7-0.2c-0.6,0-1,0.2-1.2,0.7c-0.1,0.2-0.2,0.5-0.2,0.7c0,0.2,0.1,0.5,0.2,0.7c0.2,0.5,0.6,0.7,1.2,0.7
					c0.6,0,1-0.3,1.2-0.8l-0.5-0.3c-0.1,0.3-0.4,0.5-0.8,0.5c-0.3,0-0.6-0.1-0.7-0.4c-0.1-0.1-0.1-0.3-0.1-0.4c0-0.1,0-0.3,0.1-0.4
					c0.1-0.3,0.4-0.4,0.7-0.4c0.3,0,0.5,0.1,0.6,0.3h-0.6v0.6L1031.8,766.2L1031.8,766.2z"/>
				<path id="path21932" inkscape:connector-curvature="0" class="st2" d="M1032.6,765.4h0.8c0.2,0,0.3,0.1,0.3,0.3
					c0,0.2-0.1,0.3-0.3,0.3h-0.8L1032.6,765.4L1032.6,765.4z M1032.6,766.5h0.6c0.2,0,0.3,0.1,0.3,0.3c0,0.2-0.1,0.3-0.3,0.3h-0.6
					V766.5z M1032,764.8v2.7h1.1c0.2,0,0.4-0.1,0.5-0.2c0.2-0.1,0.3-0.4,0.3-0.6c0-0.2,0-0.3-0.1-0.4c0.2-0.1,0.4-0.4,0.4-0.7
					c0-0.3-0.1-0.5-0.3-0.6c-0.2-0.1-0.3-0.2-0.5-0.2L1032,764.8L1032,764.8z"/>
				<path id="path21936" inkscape:connector-curvature="0" class="st2" d="M1036.7,767.5l-1.1-2v-0.7h-0.5v0.7l-1.1,2h0.7l0.7-1.3
					l0.7,1.3H1036.7z"/>
			</g>
			<g id="g27400">
				<path id="path21940" inkscape:connector-curvature="0" class="st2" d="M1000.6,771.1c4.7,0,4.6,3.6,4.6,3.6v6.8h-3.7v-6.4
					c0,0,0-0.9-0.9-0.9h-0.1c-0.9,0-0.9,0.9-0.9,0.9v6.4h-3.7v-6.8c0,0,0-3.6,4.6-3.6H1000.6L1000.6,771.1z"/>
				<path id="path21944" inkscape:connector-curvature="0" class="st2" d="M1044.3,781.5c-4.7,0-4.6-3.6-4.6-3.6v-6.8h3.7v6.4
					c0,0,0,0.9,0.9,0.9h0.1c0.9,0,0.9-0.9,0.9-0.9v-6.4h3.7v6.8c0,0,0,3.6-4.6,3.6H1044.3L1044.3,781.5z"/>
				<path id="path21948" inkscape:connector-curvature="0" class="st2" d="M1006.8,772.2c0,0.6,0.6,1.1,1.3,1.1
					c0.7,0,1.3-0.5,1.3-1.1c0-0.6-0.6-1.1-1.3-1.1C1007.4,771,1006.8,771.6,1006.8,772.2"/>
				<path id="path21952" inkscape:connector-curvature="0" class="st2" d="M1035.6,772.2c0,0.6,0.6,1.1,1.3,1.1
					c0.7,0,1.3-0.5,1.3-1.1c0-0.6-0.6-1.1-1.3-1.1C1036.2,771,1035.6,771.6,1035.6,772.2"/>
				<path id="path21956" inkscape:connector-curvature="0" class="st2" d="M1020.8,772.2c0,0.6,0.6,1.1,1.3,1.1
					c0.7,0,1.3-0.5,1.3-1.1c0-0.6-0.6-1.1-1.3-1.1C1021.4,771.1,1020.8,771.6,1020.8,772.2"/>
				<path id="path21960" inkscape:connector-curvature="0" class="st2" d="M1029.5,774.5c-1.1,0-1.9,0.8-1.9,1.9
					c0,1,0.9,1.9,1.9,1.9c1.1,0,1.9-0.8,1.9-1.9C1031.5,775.3,1030.6,774.5,1029.5,774.5 M1029.6,781.6c-3,0-5.5-2.4-5.5-5.3
					c0-2.9,2.5-5.3,5.5-5.3c3,0,5.5,2.4,5.5,5.3C1035.1,779.3,1032.6,781.6,1029.6,781.6"/>
				<path id="path21964" inkscape:connector-curvature="0" class="st2" d="M1011.9,774.8l-1.1-2.7c0,0,1-1.1,3.8-1.1
					c2.7,0,4.6,1.6,4.6,3.6c0,0.9-0.5,2-1.5,2.5c-1.1,0.6-2.9,0.2-2.8,1.3c0.1,0.7,2.2,0.2,2.7-0.4l1.1,2.6c0,0-1.3,1-3.7,1
					c-2.3,0-4-1.8-4-3.5c0-1.7,0.7-2.7,2.9-3.1c2.2-0.3,1.2-1.2,0.1-1.2C1012.9,773.8,1011.9,774.8,1011.9,774.8"/>
			</g>
		</g>
	</g>
</g>
</svg>
