<?xml version="1.0" encoding="utf-8"?>
<!-- Generator: Adobe Illustrator 26.0.2, SVG Export Plug-In . SVG Version: 6.00 Build 0)  -->
<svg version="1.1" id="Calque_1" xmlns="http://www.w3.org/2000/svg" xmlns:xlink="http://www.w3.org/1999/xlink" x="0px" y="0px"
	 width="1000px" height="1000px" viewBox="0 0 1000 1000" style="enable-background:new 0 0 1000 1000;" xml:space="preserve">
<style type="text/css">
	.st0{fill-rule:evenodd;clip-rule:evenodd;}
</style>
<path d="M40.2,934.4v-8.8c0-19.6,0.5-32.1,2.1-38.1c5.8-0.4,11.4-0.5,17.2-0.5c22.3,0,34.9,1.7,40,9.2l-0.9-15.2
	c-6.5-0.7-14.9-1.1-25.1-1.1c-17.7,0-31.9,0.5-43.1,0.5H14.3c5.8,4.8,5.8,23.3,5.8,56.3v7.5c0,31.5-0.2,49.1-5.8,53.7H46
	c-5.8-5.1-5.8-20-5.8-45.4v-9h8.6c25.4,0,39.8-0.9,47.5-10.6c-11.4,1.7-22.1,2.2-32.6,2.2C57.1,935,49.5,934.8,40.2,934.4
	L40.2,934.4z"/>
<path class="st0" d="M112.4,997.8h29.8c-0.7-1.8-1.2-3.7-1.2-5.7c0-8.1,4.4-16.3,9.5-26l10-19.2h54.2l23.5,50.9h25.4
	c-13.3-14.8-33.5-53.9-57.7-117.5h-28.9c1.2,1.8,1.9,3.7,1.9,5.7c0,2.6-6.5,19.8-22.8,49.7C141.5,962.8,127.6,983.5,112.4,997.8
	L112.4,997.8z M164.3,940.1l25.1-47.3l21.9,47.3H164.3L164.3,940.1z"/>
<path d="M299.5,880.3c5.8,4.8,5.8,23.3,5.8,56.3v7.5c0,31.5-0.2,49.1-5.8,53.7h8.1c19.6,0,35.4,0.4,47.7,0.4
	c9.3,0,17.2-0.6,23.3-1.5l5.1-18.3c-9.1,10.3-22.3,12.8-44,12.8c-4,0-7.9,0-12.3-0.2c-1.2-4.4-2.1-21.1-2.1-49.7v-7.5
	c0-31.3,0.2-48.9,5.8-53.5L299.5,880.3L299.5,880.3z"/>
<path d="M519.2,880.3c-11.6,0-23-2.2-34.7-2.2c-50,0-79.1,23.8-79.1,62.1c0,35.5,29.6,59.7,69.6,59.7c27.2,0,47.3-11.4,52.6-28
	c-10.2,9.2-24.9,14.5-41.7,14.5c-34,0-57.5-19.2-57.5-51.5c0-30.4,20.3-48.7,53.5-48.7c17.5,0,29.3,6.6,35.8,19.2L519.2,880.3
	L519.2,880.3z"/>
<path class="st0" d="M620,1000c45.9,0,75.9-25.1,75.9-64.3c0-38.1-23.3-57.5-69.1-57.5c-48.9,0-75.2,22.4-75.2,63.2
	C551.5,978.9,576.2,1000,620,1000L620,1000z M627.2,991.2c-32.4,0-52.1-19.6-52.1-54.8c0-32.4,19.1-50,49.1-50
	c29.6,0,48.4,20.5,48.4,55.9C672.6,973.6,654.9,991.2,627.2,991.2L627.2,991.2z"/>
<path d="M747.8,894.3c44.2,51.7,75.4,85.8,90.1,104.1H853v-60.7c0-34.4,0.5-53.3,6.1-57.4H837c5.6,5.1,6.1,19.8,6.1,45.3l-0.2,51.3
	c-28.2-30.2-50.5-58.6-71.5-83c-8.6-10.1-10.2-13.6-17.9-13.6h-24.2c8.4,4.8,8.6,20.2,8.6,47.8c0,40.1-2.3,63.2-8.6,69.6h27
	c-6.5-7.7-7.5-22.2-7.7-44.3L747.8,894.3L747.8,894.3z"/>
<path d="M890.5,993c14.9,4.4,28.4,7,41.2,7c31.2,0,53.3-16.7,53.3-35.5c0-14.3-12.1-23.8-35.8-33.7c-18.2-7.5-32.4-13-32.4-26
	c0-10.6,10.9-18.5,31.4-18.5c14.2,0,24.9,4.2,30.7,11.9v-19.1h-5.8c-1.9,0-3.3-0.2-4.4-0.2c-4.4,0-12.8-0.7-24.7-0.7
	c-30.3,0-48.4,13.6-48.4,30.6c0,18.3,18.2,25.3,42.4,35.7c16.3,7,24.9,13.9,24.9,24.9c0,12.6-11.9,22.4-30.5,22.4
	c-18.2,0-32.8-6.6-41.9-18.7L890.5,993L890.5,993z"/>
<path d="M28.3,749.6c33.6,35.8,57.3,59.4,68.5,72.1h11.5v-42c0-23.9,0.4-36.9,4.6-39.7H96.1c4.2,3.6,4.6,13.7,4.6,31.3l-0.2,35.5
	c-21.4-20.9-38.4-40.6-54.3-57.5c-6.5-7-7.8-9.4-13.6-9.4H14.1c6.4,3.3,6.5,14,6.5,33.1c0,27.8-1.8,43.8-6.5,48.2h20.5
	c-5-5.3-5.7-15.4-5.8-30.7L28.3,749.6L28.3,749.6z"/>
<path d="M154.2,821.3h14.5c14.9,0,26.9,0.3,36.3,0.3c7.1,0,13.1-0.4,17.7-1l3-12.7c-7.4,7.2-20,8.8-40,8.8h-10.3
	c-1.2-3.9-1.6-13-1.6-26.8v-8.3c1.9,0,3.5,0.1,4.6,0.1c18.2,0,31.1-0.5,39.4-7.4c-8.8,1.1-18.9,1.4-30.2,1.4c-5.1,0-9.7,0-13.8-0.3
	v-4.2c0-13.8,0.4-22.7,1.6-26.7h9.9c18.6,0,28.8,0.6,32.2,7l-1.4-11.9c-3.5,0-5.5-0.1-6.2-0.1c-9.2,0-24.1,0.4-44.8,0.4h-11
	c4.4,3.3,4.4,16.1,4.4,39v5.2C158.6,806,158.4,818.2,154.2,821.3L154.2,821.3z"/>
<path d="M342.9,822h14.7c15-46.1,24.4-73.6,35.2-82h-23.3c2.5,2.5,3.4,5.2,3.4,9c0,3.9-1.9,12.8-6.7,26.5l-12.4,35.9l-20.5-55.2
	c-1.6-4.2-2.1-7-2.1-8.4c0-2.7,1.4-5.2,4.1-7.9h-30.2c3,2.8,4.6,6,4.6,9.3c0,3.8-1.9,12.7-7.6,25l-17.2,37.2
	c-3-15.4-6.9-35.4-14-60.3c-3-10.3-3.9-11.2-12-11.2h-11.3c5,3.6,17,31.2,25.8,82h15.2c6.2-18,18.8-40.4,28.7-68.8l19.8,50.3
	C339.2,809.1,341.5,815.2,342.9,822L342.9,822z"/>
<path d="M492.1,740c-8.8,0-17.5-1.5-26.4-1.5c-38,0-60.1,16.5-60.1,43c0,24.6,22.5,41.4,52.9,41.4c20.7,0,35.9-7.9,40-19.4
	c-7.8,6.3-18.9,10-31.7,10c-25.8,0-43.7-13.3-43.7-35.7c0-21.1,15.4-33.8,40.7-33.8c13.3,0,22.3,4.6,27.2,13.3L492.1,740L492.1,740z
	"/>
<path class="st0" d="M505.4,821.3h22.6c-0.5-1.3-0.9-2.5-0.9-3.9c0-5.6,3.4-11.3,7.3-18L542,786h41.2l17.9,35.3h19.3
	c-10.1-10.3-25.5-37.3-43.9-81.4h-21.9c0.9,1.3,1.4,2.5,1.4,3.9c0,1.8-5,13.7-17.3,34.4C527.5,797.1,516.9,811.4,505.4,821.3
	L505.4,821.3z M544.9,781.4l19.1-32.7l16.6,32.7H544.9L544.9,781.4z"/>
<path d="M635.6,818c11.3,3,21.6,4.8,31.3,4.8c23.7,0,40.5-11.5,40.5-24.6c0-9.9-9.2-16.5-27.2-23.4c-13.8-5.2-24.6-9-24.6-18
	c0-7.4,8.3-12.8,23.9-12.8c10.8,0,18.9,2.9,23.4,8.3v-13.2h-4.4c-1.4,0-2.5-0.1-3.4-0.1c-3.4,0-9.7-0.5-18.8-0.5
	c-23,0-36.8,9.4-36.8,21.2c0,12.7,13.8,17.5,32.2,24.8c12.4,4.8,18.9,9.6,18.9,17.3c0,8.8-9,15.5-23.2,15.5
	c-13.8,0-24.9-4.6-31.8-12.9L635.6,818L635.6,818z"/>
<path d="M758.3,821.3h24.1c-4.4-3.3-4.4-16-4.4-39c0-10.5,0.2-22.5,0.9-35.8l21.6-0.1c8.8,0,14.7-1.5,19.1-6.5h-89.9l-4.2,10
	c5.8-2.8,11.3-3.2,17.5-3.2h18.8c0.9,12.1,1.1,23.2,1.1,33.8v4.9C762.7,806.5,762.5,818.2,758.3,821.3L758.3,821.3z"/>
<path d="M832.7,740c4.4,3.3,4.4,16.1,4.4,39v5.2c0,21.8-0.2,34-4.4,37.2h6.2c14.9,0,26.9,0.3,36.3,0.3c7.1,0,13.1-0.4,17.7-1
	l3.9-12.7c-6.9,7.1-17,8.9-33.4,8.9c-3,0-6,0-9.4-0.1c-0.9-3-1.6-14.6-1.6-34.4V777c0-21.7,0.2-33.9,4.4-37.1L832.7,740L832.7,740z"
	/>
<path d="M914.4,821.3h14.5c14.9,0,26.9,0.3,36.3,0.3c7.1,0,13.1-0.4,17.7-1l3-12.7c-7.4,7.2-20,8.8-40,8.8h-10.3
	c-1.2-3.9-1.6-13-1.6-26.8v-8.3c1.9,0,3.5,0.1,4.6,0.1c18.2,0,31.1-0.5,39.4-7.4c-8.8,1.1-18.9,1.4-30.2,1.4c-5.1,0-9.7,0-13.8-0.3
	v-4.2c0-13.8,0.4-22.7,1.6-26.7h9.9c18.6,0,28.8,0.6,32.2,7l-1.4-11.9c-3.5,0-5.5-0.1-6.2-0.1c-9.2,0-24.1,0.4-44.8,0.4h-11
	c4.4,3.3,4.4,16.1,4.4,39v5.2C918.8,806,918.6,818.2,914.4,821.3L914.4,821.3z"/>
<path d="M82.3,0c0,0,74.5,156,204.3,223.8C448.2,308.2,537,331.4,629.5,357c95.3,26.4,148.2,50,162.9,90.1
	c15.6,42.7-38.7,59.9-38.7,59.9s28.7-14.2,19.1-34.9c-5.2-11.1-15.7-20.4-58.7-36.7c-39.2-14.8-220.2-79-308-117.1
	c-120.5-52.2-162.9-81.1-232-158.5C113.1,91.6,82.3,0,82.3,0L82.3,0z"/>
<path d="M443.5,374.4c0,0-134.1-18-211.3-56.1C164,284.6,116.3,212.7,116.3,212.7s75.2,65,151.7,100.1
	C328.6,340.5,443.5,374.4,443.5,374.4L443.5,374.4z"/>
<path d="M400.2,387.7c0,0-47,12.9-103,7.8c-49.5-4.5-97.9-36.7-97.9-36.7s61.5,18.6,116,25.5C367.7,391,400.2,387.7,400.2,387.7
	L400.2,387.7z"/>
<path class="st0" d="M672.3,457.9c0,0-19.4,6.9-49.1,30c-56.8,44.2-26.2,124.6,78.9,157.6c56.6,17.8,89.3,13.1,98.5,19.4
	c3.1,2.1,0,5.7-4.2,15.3c-4,9.2-2,15.8,3.8,23.5c4.3,5.7,10.5,7,10.5,7s-10.3-10.4-1.2-26.3c7.1-12.4,19-17.8,42-18.9
	c34-1.6,24.1,31.4,24.1,31.4s25.2-33.7-13.2-43c-31.4-7.6-46.8,12.2-150.1-27.6c-33.7-13-73.4-56.3-74.5-93
	C636.1,472.7,672.3,457.9,672.3,457.9L672.3,457.9z"/>
</svg>
