<?xml version="1.0" encoding="utf-8"?>
<!-- Generator: Adobe Illustrator 26.0.2, SVG Export Plug-In . SVG Version: 6.00 Build 0)  -->
<svg version="1.1" id="Layer_2" xmlns="http://www.w3.org/2000/svg" xmlns:xlink="http://www.w3.org/1999/xlink" x="0px" y="0px"
	 width="1000px" height="1000px" viewBox="0 0 1000 1000" style="enable-background:new 0 0 1000 1000;" xml:space="preserve">
<style type="text/css">
	.st0{fill:#FFFFFF;}
	.st1{fill:#FCB131;}
	.st2{fill:#E03A3E;}
	.st3{fill:#B22F37;}
</style>
<g>
	<g>
		<polygon points="81.1,814.7 448,969.5 814.8,814.2 814.8,28.1 81.1,28.1 		"/>
		<path d="M814.8,28.1v786.1L448,969.5L81.1,814.7V28.1H814.8 M842.9,0h-28.1H81.1H53v28.1v786.6v18.6l17.1,7.2l366.9,154.8
			l10.9,4.6l10.9-4.6L825.8,840l17.1-7.3v-18.6V28.1V0L842.9,0z"/>
	</g>
	<g>
		<polygon points="81.1,814.7 448,969.5 814.8,814.2 814.8,28.1 81.1,28.1 		"/>
		<path class="st0" d="M814.8,28.1v786.1L448,969.5L81.1,814.7V28.1H814.8 M823.6,19.3h-8.8H81.1h-8.8v8.8v786.6v5.8l5.4,2.3
			l366.9,154.8l3.4,1.4l3.4-1.4l366.8-155.4l5.3-2.3v-5.8V28.1L823.6,19.3L823.6,19.3z"/>
	</g>
	<g>
		<polygon points="81.1,814.7 448,969.5 814.8,814.2 814.8,28.1 81.1,28.1 		"/>
		<path class="st1" d="M797.3,45.6v756.9L448,950.5L98.6,803.1V45.6H797.3 M814.8,28.1H81.1v786.6L448,969.5l366.8-155.4V28.1
			L814.8,28.1z"/>
	</g>
</g>
<path d="M495.5,551.3C495.5,551.3,495.4,551.3,495.5,551.3c0.5,0.1,1,0.2,1.5,0.4c0.9,0.4,1.5,1.3,1.4,2.3c0,0.9-0.6,1.4-1.4,1.8
	c-0.3,0.1-0.5,0.3-0.8,0.4l0,0c5.5-2.9,8.6-3.3,8.6-3.3s-2.6-1.4-12.1-1.8c-0.1,0-0.2,0-0.3,0C493.4,551.2,494.4,551.2,495.5,551.3z
	"/>
<g>
	<g>
		<path class="st0" d="M193.5,158.2c-5.2,5.2-11.9,7.9-19.9,7.9H161v-56.3h10.5c3.4,0,6.8,0.4,10.5,1.3
			c13.4,5.6,20.2,14.7,20.2,27.2C202.1,145.3,199.3,151.9,193.5,158.2 M209.7,112.9c-3.8-4.6-7.7-8.5-11.8-11.5
			c-8.7-4.7-17-7.1-24.9-7.1h-40.7H132c0,0,13.3,17.2,13.3,17.8v26.6v25.5v17.3H177c6.9,0,14.4-2.6,22.3-7.9
			c12.2-9.8,18.3-21.4,18.3-34.8v-2.9C217.6,128.5,215,120.9,209.7,112.9"/>
		<path class="st0" d="M246.7,130.2v-20.4h28.8l5,0.5c4.7,2.1,7.1,5,7.1,8.6v2.1l-0.3,1.8c-1.7,4.9-5.7,7.3-12,7.3H246.7z
			 M282.6,145.3v-0.3c0.9,0,2.4-0.4,4.7-1.3c10.6-5.5,16-13.2,16-23.3v-0.8c0-4.3-1.1-8.5-3.4-12.6c-5.8-8.6-12.8-12.8-21.2-12.8
			h-61.1l13.4,17.8v39.9v12.3v17.3h15.7v-35.9h16.2l28.5,35.9H311L282.6,145.3z"/>
		<path class="st0" d="M393.4,178.1c-21.1-55.5-31.9-83.3-32.2-83.3h-30.2l12.9,17.3l-26.6,69.4h0.6h15.7l6.8-17h31.2l6.8,17h16
			l0.3-0.3L393.4,178.1z M346.7,148.8l9.3-24.6l9.3,24.6H346.7z"/>
		<path class="st0" d="M442.3,130.2l-8.6,15.5h20.4V166h-12.3c-5.8,0-10.7-1.2-14.9-3.7c-9.3-6.6-13.9-14.7-13.9-24.1
			c0-4.6,1-7.9,1-7.9c5.1-13.8,15-20.7,29.6-20.7h16.2l2.6,7.1l0,0l1.1,2.8l0,0c0,0,18-24.5,18-25.4h-40c-10.1,0-19.5,3.4-28.3,10.2
			c-10.5,9.6-15.7,20.1-15.7,31.4v2.6c0,11.7,4.6,22.2,13.9,31.4c8.8,7.7,17.7,11.5,26.7,11.5h31.2h0.5v-50.8l-0.5-0.5L442.3,130.2
			L442.3,130.2z"/>
		<path class="st0" d="M529.9,166c-15.5,0-28.2-12.6-28.2-28.2s12.6-28.2,28.2-28.2c15.6,0,28.2,12.6,28.2,28.2
			C558.1,153.4,545.5,166,529.9,166 M529.9,94c-24.2,0-43.9,19.6-43.9,43.9c0,24.2,19.6,43.9,43.9,43.9c24.2,0,43.9-19.6,43.9-43.9
			S554.1,94,529.9,94"/>
		<path class="st0" d="M635.2,94.3l13.2,16.6v0v40.5h-0.3c-10-13.1-25-32.1-45-57.1h-24.7l13.2,16.6v43.3v10v17.3h15.7v-56.8
			l45,56.8h11.5V94.3C663.8,94.3,635.2,94.3,635.2,94.3z"/>
		<path class="st0" d="M725,130.2h-22.5c-5.6,0-10.2-4.6-10.2-10.2c0-5.6,4.6-10.2,10.2-10.2h25.4l3.8,10l18-25.4h-16h-31.1
			c-14.1,0-25.7,11.5-25.7,25.7c0,14.2,11.5,25.7,25.7,25.7H725c5.6,0,10.2,4.6,10.2,10.2c0,5.6-4.6,10.2-10.2,10.2h-26.6l-3.8-10
			l-18,25.4h14.8h1.2H725c14.1,0,25.7-11.5,25.7-25.7C750.6,141.7,739.1,130.2,725,130.2"/>
	</g>
</g>
<g>
	<path class="st1" d="M897.9,355.1c-0.4,0-9.5-0.2-21.9-0.3h-0.8l0,0c-42.9,0-129.1,10.4-225.7,79.7c-3.4-1-7-1.8-10.5-2.5
		l-12.3-2.5l-1.2-0.2l-1.2-0.1c-5.7-0.5-11.7-0.8-17.7-0.8c-34.6,0-73.9,9.1-113.6,26.3c-58.8,25.5-102.3,65.4-116.2,106.6
		c-7.8,23-6.2,45.3,4.6,64.6c13.4,24,39.4,40.2,73.5,46.7c-6.4,1.7-12.6,3.1-18.3,4.1c-10.5,1.8-20.6,2.7-30.2,2.7
		c-28.7,0-51.7-8.2-66.5-23.8c-11.7-12.2-17.6-28-17.6-46.8c0-2.2,0.1-4.5,0.3-6.9c3.4-45.8,38.1-98.5,92.8-141
		c40-31.1,85.4-52.3,127.7-59.6c8.4-1.4,16.7-2.3,24.6-2.6l9-0.3l0.2,0l0.7,0l17.1-0.4l5.4-16.2l18.3-54.7l91-56.6l58.2-36.2
		l-68-8.7c-19.6-2.5-40-3.8-60.7-3.8c-21.3,0-43.4,1.4-65.8,4l-0.3,0l-0.2,0l-33.2,4.7l-0.4,0.1l-0.4,0.1
		c-78.9,13.6-162.3,52.1-234.9,108.6c-103.1,80.1-168.8,184.3-175.8,278.7c-0.4,5.8-0.6,11.5-0.6,17.1c0,51.1,17.6,96.5,50.8,131.4
		c39.5,41.4,96.5,63.3,164.8,63.3c19.5,0,40.1-1.8,61-5.4c57.4-9.9,117.7-33.1,174.5-67.2c8.6-5.2,21.8-13.5,38.6-26.6
		c30.3-23.6,56.7-51.1,76.3-79.6l0.1-0.1l0.1-0.1l2.7-4c1.2-1.9,2.4-3.6,3.5-5.4c0.7-1,1.3-2.1,2.1-3.3c1-1.6,1.9-3.3,2.9-4.9
		c5.4-9.3,9.8-18.4,13.2-27.1c9.1-23.3,11.9-38.2,13.6-51c0.1-0.7,0.2-1.4,0.3-2.1l0.5-4.5l0.8-0.8c3.4-3.5,6.9-7.1,10.1-10.4
		c1.6,1.8,3.2,3.7,4.7,5.7c0.6,0.8,1.3,1.7,1.9,2.5c10.1,13.8,38,67.1,47.6,85.7c10.7-31.5,23.2-64.8,34.8-92.8
		c4.1-10.2,8.4-20,12.8-29.3c3.5-7.6,6.8-14.3,9.8-19.8l0,0c13.3-25.7,26.9-47.1,37.6-62.8c0,0,0.1-0.1,0.1-0.1
		c0.1-0.1,0.1-0.2,0.2-0.3c5-7.3,9.4-13.4,12.8-18c1.2-1.6,2.7-3.5,4.2-5.3c14.5-18.9,30-37.4,37.3-46.1L897.9,355.1z M604,544.3
		c-9.2,5.4-20.4,10.9-34.3,17c-2.5,1.1-5.3,2.2-8.5,3.4c-21,7.8-45.5,12.5-65.5,12.5c-6.9,0-12-0.6-15.3-1.2
		c6.3-9,22-22.5,45.9-32.9c18.6-8,36.9-12.5,51.7-12.5c10.7,0,19.1,2.3,23,6.4c1.2,1.2,1.6,1.7,2.6,4.8L604,544.3z"/>
	<path class="st0" d="M897.5,371.4c-0.1,0-9.3-0.2-21.5-0.2h-0.8c-41.1,0-124,10.1-217.3,77.4l-5.5,4c-5.3-1.8-10.9-3.4-16.6-4.5
		l-12.3-2.5l-0.4-0.1l-0.4,0c-5.2-0.5-10.7-0.7-16.2-0.7c-32.4,0-69.5,8.6-107.1,25c-53.9,23.4-95,60.5-107.3,96.9
		c-6.2,18.5-5.1,36.3,3.4,51.5c14.8,26.4,49.1,41.5,94.3,41.5c16.1,0,32.8-1.9,49.7-5.7c-0.3,0.2-0.6,0.4-0.9,0.6
		c-24.6,16.3-67.3,32.8-99.3,38.3c-11.4,2-22.5,3-32.9,3c-33.3,0-60.3-10-78.3-28.8c-14.4-15.1-22.1-35.2-22.1-58
		c0-2.6,0.1-5.3,0.3-8.1c3.7-50.3,40.7-107.4,99-152.7c42.1-32.7,90-55,135-62.7c9.1-1.6,18.1-2.5,26.8-2.9l9.2-0.3l0.3,0l0.5,0
		l5.7-0.1l1.8-5.4l20.1-60.3l96-59.7l19.4-12.1l-22.7-2.9c-18.9-2.4-38.7-3.7-58.7-3.7c-20.7,0-42.1,1.3-63.9,3.9l-33.4,4.7l-0.1,0
		l-0.1,0C465,259.7,384.2,297.2,313.7,352c-99.5,77.4-162.9,177.2-169.6,267.1c-0.4,5.4-0.6,10.7-0.6,15.9
		c0,46.8,16,88.4,46.3,120.2c36.4,38.1,89.3,58.2,153,58.2c18.6,0,38.2-1.8,58.2-5.2c55.4-9.5,113.8-32,168.9-65.1
		c8.2-5,20.8-13,37-25.5c29-22.6,54.2-48.8,72.9-76l2.7-4.1c1.1-1.7,2.2-3.3,3.3-5c0.6-1,1.3-2,1.9-3.1c0.9-1.5,1.8-3.1,2.7-4.6
		c5-8.6,9-16.9,12.1-24.9c8-20.4,10.8-33.7,12.6-47.2c0.1-0.6,0.2-1.2,0.2-1.8l1.2-10.1c0.8-0.8,1.6-1.6,2.4-2.4l2.2-2.2
		c8-8.2,16.2-16.8,21.3-22.2c6.3,5.1,12.4,11.4,18.1,18.8c0.7,1,1.5,1.9,2.2,2.9c13.3,18.1,32.6,61.7,32.6,61.7l5.6-19.2
		c25-85.7,72.3-154.5,91.4-180c4.2-5.7,10.8-13.2,10.9-13.2l11.5-13L897.5,371.4z M686.1,471.8c5.7,2.4,11.8,5.2,17.6,8.5
		c-1.8,1.6-3.5,3.1-5.2,4.7C694.5,479.8,690.3,475.5,686.1,471.8z M622.3,551.9c-11.7,8-26.4,15.7-46.2,24.3
		c-2.7,1.2-5.8,2.4-9.3,3.7c-23,8.6-49,13.5-71.2,13.5c-11.6,0-21.3-1.5-26.6-4c-4.4-2.1-6-4.2-6.9-5.8c-0.7-1.2-1.4-3.4,0.1-7.9
		c5.3-15.6,28.9-35.2,57.5-47.6c20.8-9,41-13.8,58.1-13.8c15.6,0,27.6,3.9,34.7,11.4c3.3,3.4,4.8,6.2,6.5,11.8l2.5,10.9L622.3,551.9
		z"/>
	<g>
		<path class="st2" d="M738.3,501C738.3,501,738.4,501,738.3,501C738.4,501,738.3,501,738.3,501L738.3,501z"/>
	</g>
	<path class="st2" d="M653.8,597.5c-2.9,2.1-5.8,4.3-8.8,6.4c-17.5,12.7-36.5,25.1-57.4,34.2c-7.5,3.2-15.1,6.2-22.8,8.7l-1.2,0.4
		c-4.6,3.2-11.2,7.8-20.4,13.9c-25.3,16.8-69,33.8-102.4,39.6c-50.7,8.7-92.8-1.3-118.5-28.2c-16-16.8-24.3-38.6-24.3-63.6
		c0-2.9,0.1-5.8,0.3-8.7c3.9-52.5,42-111.8,102.1-158.5c43.1-33.5,92.4-56.4,138.6-64.3c9.5-1.6,18.9-2.6,27.9-3
		c0,0,7.2-0.2,9.2-0.3c0.3,0,0.6,0,1,0l21-62.8l0.1-0.2l98.5-61.2c-35.2-4.5-75.3-5.1-120.5,0.3c-2.3,0.3-33.2,4.7-33.2,4.7
		c-75,12.9-154.6,49.8-224,103.8c-97.7,76-160,173.7-166.5,261.3c-0.4,5.2-0.6,10.3-0.6,15.3c0,44.8,15.1,84.2,44.1,114.6
		c45.3,47.5,117.8,65.5,204,50.6c54.5-9.4,111.9-31.5,166.1-64.1c8-4.8,20.4-12.7,36.2-25c28.9-22.5,53.1-47.9,71.2-74.2l2.7-4
		c1.1-1.6,2.1-3.2,3.1-4.8c0.6-1,1.2-2,1.9-3c0.9-1.5,1.8-3,2.6-4.5c3.9-6.7,8.1-14.9,11.6-23.7c7.7-19.7,10.4-32.4,12.2-45.3
		c0.1-0.6,0.1-1.1,0.2-1.7C685.8,571.2,668.1,586.8,653.8,597.5z"/>
	<path class="st3" d="M645,603.9C576.1,745,257.7,836.1,222.9,646.8c-31-168.1,186.5-316.9,353.1-334.7c7.5-0.5,14.8-0.8,21.9-1
		l0.1-0.2l98.5-61.2c-35.2-4.5-75.3-5.1-120.5,0.3c-2.3,0.3-33.2,4.7-33.2,4.7c-75,12.9-154.6,49.8-224,103.8
		c-97.7,76-160,173.7-166.5,261.3c-0.4,5.2-0.6,10.3-0.6,15.3c0,44.8,15.1,84.2,44.1,114.6c45.3,47.5,117.8,65.5,204,50.6
		c54.5-9.4,111.9-31.5,166.1-64.1c8-4.8,20.4-12.7,36.2-25c28.9-22.4,53.1-47.9,71.2-74.2l2.7-4c1.1-1.6,2.1-3.2,3.1-4.8
		c0.6-1,1.2-2,1.9-3c0.9-1.5,1.8-3,2.6-4.5c3.9-6.7,8.1-14.9,11.6-23.7c7.7-19.7,10.4-32.4,12.2-45.3c0.1-0.6,0.1-1.1,0.2-1.7
		c-21.7,21.2-39.3,36.9-53.7,47.6C650.9,599.6,647.9,601.8,645,603.9z"/>
	<g>
		<path class="st2" d="M876,379.2L876,379.2L876,379.2c-36.8-0.1-119.8,8.4-213.3,75.9c0,0,25.7,6.7,47,19.3c0,0,40.3-38,101.1-60.3
			l0,0c-38.8,21.1-80.5,51.1-117.8,87l-0.8,0.8c-17,17-34,32.2-56.4,50c-13.4,10.8-30.9,20.5-56.5,31.7c-3.2,1.4-6.4,2.7-9.7,3.9
			c-41.4,15.4-86.8,17.6-104.2,9.2c-5-2.4-8.3-5.3-10.4-9.1c-2.3-4.1-2.4-8.8-0.5-14.5c6-17.9,30.9-39,61.9-52.4
			c44.1-19.1,84.1-19.3,102-0.6c4.2,4.4,6.4,8.3,8.5,15.3c0,0,1.5,6.7,2.5,11.2c0.4-0.3,0.9-0.7,1.3-1c10.7-8.5,22.5-18.5,33.8-28.5
			c10.3-9.1,20.2-18.2,28.3-26.1c-11-14.8-24.6-23-34.5-27.5c-7.3-3.3-15.6-5.9-24.1-7.6l-12.3-2.5c-34.1-3.2-75.5,4.6-119.3,23.6
			c-51.8,22.5-91.2,57.7-102.8,92c-5.5,16.3-4.5,31.8,2.8,44.9c20.5,36.5,84,47.1,150.1,28c10.5-3,21.1-6.8,31.5-11.3
			c23.7-10.3,45-25.1,64.6-39.7c16.6-12.3,37.7-31.4,64.5-58.3l2.1-2.1c13-13.3,26.2-27.3,26.2-27.3c35.5,24.3,51.6,72.7,51.6,72.7
			c25.2-86.3,72.2-155.2,92.7-182.6c4.4-6,11.3-13.8,11.3-13.8S888.3,379.2,876,379.2z"/>
	</g>
	<g>
		<path class="st3" d="M724.2,462.4L724.2,462.4c0,0-29-13.1-61.5-7.3c0,0,25.7,6.7,47,19.3C709.7,474.4,714.9,469.6,724.2,462.4z"
			/>
	</g>
	<g>
		<path class="st3" d="M745.3,478.7c0,0-45.9,46.1-111,101.6c-18.5,14.8-45.2,27.3-73.4,35.7c-61.7,18.3-130.3,16.6-133.8-24.5
			c-5.1-59.9,81.8-103.1,146.8-112.2c55.8-7.9,83.9,27.7,90.7,37.9c10.3-9.1,20.2-18.2,28.3-26.1c-11-14.8-24.6-23-34.5-27.5
			c-7.3-3.3-15.6-5.9-24.1-7.6l-12.3-2.5c-34.1-3.2-75.5,4.6-119.3,23.6c-51.8,22.5-91.2,57.7-102.8,92c-5.5,16.3-4.5,31.8,2.8,44.9
			c20.5,36.5,84,47.1,150.1,28c10.5-3,21.1-6.8,31.5-11.3c23.7-10.3,45-25.1,64.6-39.7c16.6-12.3,37.7-31.4,64.5-58.3l2.1-2.1
			c13-13.3,26.2-27.3,26.2-27.3c35.5,24.3,51.6,72.7,51.6,72.7C791.7,516.5,745.3,478.7,745.3,478.7z"/>
	</g>
	<g>
		<path class="st3" d="M724.2,462.4L724.2,462.4c0,0-29-13.1-61.5-7.3c0,0,25.7,6.7,47,19.3C709.7,474.4,714.9,469.6,724.2,462.4z"
			/>
	</g>
	<path class="st3" d="M724.2,462.4L724.2,462.4c0,0-29-13.1-61.5-7.3c0,0,25.7,6.7,47,19.3C709.7,474.4,714.9,469.6,724.2,462.4z"/>
</g>
</svg>
