<?xml version="1.0" encoding="utf-8"?>
<!-- Generator: Adobe Illustrator 26.0.2, SVG Export Plug-In . SVG Version: 6.00 Build 0)  -->
<svg version="1.1" id="Layer_1" xmlns="http://www.w3.org/2000/svg" xmlns:xlink="http://www.w3.org/1999/xlink" x="0px" y="0px"
	 width="665.8px" height="772.6px" viewBox="0 0 665.8 772.6" style="enable-background:new 0 0 665.8 772.6;" xml:space="preserve"
	>
<style type="text/css">
	.st0{stroke:#F2B227;stroke-width:10.1763;stroke-miterlimit:10;}
	.st1{fill:#FFFFFF;}
	.st2{fill:#F2B227;}
	.st3{fill:#E32B45;}
	.st4{fill:#006342;}
	.st5{fill:none;stroke:#006342;stroke-width:2.5802;stroke-miterlimit:3.864;}
	.st6{fill:none;stroke:#E32B45;stroke-width:1.2885;stroke-miterlimit:3.864;}
</style>
<g>
	<g>
		<path class="st0" d="M652.4,3l-0.2,261.9c-1.4,2,0,5.4-0.6,7.8c-0.4,6.4-0.6,11.8-1.4,17.6c-3.2,29.1-9.2,57.3-15.8,84.8l-0.8,1.6
			c-27.7,102.2-82,194.6-160.6,272.2c-40.5,38.3-85.8,72.4-133.1,99.2c-3,1.6-5.6-1.4-8.4-2.2c-66.7-38.7-132.1-90.4-180.2-152.5
			c-31.3-39.3-57.7-81.2-78.2-125.9C44.4,404.8,26.2,336.2,22,266.7c-0.2-4,0.2-7.2-0.4-11.2c0,0-1.1-153.7-1-253l631.7,0.3L652.4,3
			L652.4,3z"/>
	</g>
	<polygon class="st1" points="304.8,53.4 305.6,54.4 326.8,54.4 327.6,53.6 327.5,38.3 346.3,38.3 346.3,53.4 347.7,54.4 
		368.1,54.5 369.5,53.2 369.5,38.3 384.8,38.2 384.8,69 290.5,69 290.4,38.5 304.8,38.5 	"/>
	<g>
		<path class="st1" d="M566.8,51.4c1.2,3.6,0.4,7.8-1.4,10.8c-7.8,9.8-19.8,12.4-31.3,14.4c-2.2-0.4-5.2,0-7.4,0.4
			c-11.4-0.6-24.7-2-30.1-13.6c-0.6-4.8,0.6-9.4,4-12.8c15.2-12.8,39.5-15.4,57.7-7.6C562.1,44.8,564.8,47.8,566.8,51.4"/>
		<path class="st1" d="M175.7,55.4c1.4,3.6,1.2,8.2-0.6,11.6c-11.6,13.4-31.9,11.2-47.7,8.2c-9-3-20.8-7.8-21.6-19.2
			c-0.2-4,2.6-7.4,5.8-10c4.8-3.8,11-4.8,16.8-6.2c16.4-1.8,34.7,1.2,46.3,13.6L175.7,55.4z"/>
		<path d="M558.7,50.6c1.4,1.8,3,3.8,2.2,6.4c-7.2,10.4-19.2,12.2-30.9,13.6c-9.2-0.4-18.8-0.6-25.9-6.8c-2.4-2.4-1.6-6,0.6-8.2
			c10.6-9.2,23.6-11.4,38.3-10.4C548.9,46,553.7,47.8,558.7,50.6"/>
		<path d="M166.9,54.4c1.8,1.4,2.8,3.2,3.4,5.2c0.6,2.6-1,4.2-2.4,6c-15,9-36.7,6.6-50.9-2.2c-2.2-1.8-4.6-4-5.2-6.8
			c2.2-8,11.6-9.4,18.6-10.8C143.6,44.6,156.5,47.4,166.9,54.4"/>
		<path class="st1" d="M382.2,72.1l-6,5.2h-77.8c0,0-3.8-3.4-5.4-5.2C321.6,71.9,353.5,71.9,382.2,72.1"/>
		<path class="st1" d="M615.3,81.7l-1,6.4c1.6,1.2,4,0.6,5.2,2.6c2.4,5.4,0.4,11.6-1.8,16.4c-3,2.2-3.6,5.6-5.8,8.4
			c-8.2,13.4-17.4,27.5-30.3,38.5c-0.4-2-1.4-3.8-3.4-4.2c-3.8-0.2-7.4,0.2-10.8,0.8c0.6-6.4,4.8-12.4,3.2-18.8
			c18.2-16.6,31.3-37.9,41.7-58.9C615.3,74.7,615.1,78.9,615.3,81.7"/>
		<path class="st1" d="M70.5,91.5c9.4,14.6,18.4,28.9,31.9,40.9c0.2,7,2.4,12.4,4,19c-4.2-0.8-9.8-2-13.8,0.6l-0.6,2
			c-5-2.6-9-8.2-13.6-12.4c-7.8-10-14.4-21.8-21.8-32.5l-2-1c-1.4-6-3.6-11.6-0.4-17.4c1.2-1.6,3.4-0.2,4.4-2
			c0.6-4.6-4-11.6,1.8-15.2C64,79.3,67.1,85.7,70.5,91.5"/>
		<path class="st1" d="M375.2,80v25.9c0,0-6.5,0-9.3,0v28.4l9.4,9.6l0.1,64.9c0,0-6.6,5.8-9.6,8.4l0.4,1.9v28.2H362v-23.1
			c0-7.7-2.6-21.7-24.4-21.7c-20.8,0-24,11.8-24,21.7v23.1h-3.8v-29.7l-9.6-9.2v-64.5l9.5-9.1l-0.1-28.8h-9.5l-0.8-1V79.9
			C299.5,80,375.2,80,375.2,80z"/>
		<path d="M614.3,90.7c-9.2,16.8-19,33.9-32.5,48.7c-3,3.4-6.6,6.4-10,8.4c-0.6,0-1-0.6-1.2-1.2c11.6-9.4,21.4-22.1,28.5-34.7
			c5-7.4,9-14.8,13.6-22.3C613.5,89.3,614.1,89.9,614.3,90.7"/>
		<path d="M61.2,91.1c12.4,19.8,22.3,41.1,41.5,56.1c0.2,0.6-0.4,1-0.8,1.2h-1c-20-15-29.7-37.1-41.9-56.7
			C58.4,90.3,60.6,89.9,61.2,91.1"/>
		<path d="M340.9,102.1c0.2,1.6-0.2,3.2-1.6,4.4c-0.4,5-0.2,10.2-0.2,15.2c4.6,0.6,10.4,0.4,15.4,0.2c1.2-1.4,3.2-3,5.2-1.6
			c1.2,1.2,2,3,1.4,4.4c-1.2,1.2-2.8,3-4.8,1.8l-2.2-2c-4.8,0.4-10-0.8-14.6,0.2c-0.8,5.4-0.2,10-0.4,15.6c2,0.8,2,3.2,1.6,4.8
			c-0.8,1.8-2.6,1.8-4.2,1.6c-1.2-0.4-2-1.6-2-3c0.2-1.4,1-2.6,2.2-3.4l-0.2-15.6c-5-0.4-10.6-0.6-15.6,0c-1,1.4-3,2.6-4.6,1.8
			c-1.2-0.6-1.8-2-2-3.2c0.2-1.8,1.6-2.8,3-3.6c1.4,0.6,3,1.2,3.8,2.4h15l0.6-0.6l-0.2-14.8c-1.4-1-1.8-2.6-2.2-4
			c0.6-1.2,1.6-2.4,3.2-2.6C338.9,100.1,340.5,100.9,340.9,102.1"/>
		<path class="st2" d="M422.4,102.3c-0.4,1.4-0.4,2.8-0.4,4.2c-2-0.2-3.8-3-5.6-0.8c-1-0.6,0.4-1.2,0.2-2.2
			C417.8,101.5,420.4,102.3,422.4,102.3"/>
		<path class="st2" d="M257.3,103.9l-0.2,2.4c-1-0.6-2.4-1.6-3.4-0.8c-0.6,0.4-1,1-1.6,1.2c-1.4-0.6-1-3-1-4.2
			C253.3,102.7,255.7,102.1,257.3,103.9"/>
		<path class="st2" d="M472.8,107.1c2.6,2.2,6,2.6,9,4.4l5.2,6.6c2.4-0.8,4-3.4,6.4-4.4c0.8,0,1.4-0.8,2.4-0.6
			c0.8,1.4-0.4,4.2,1.8,4.8c2.8-0.4,5.2-3,8.4-2.6c0,2.2,0.6,4.2,2.6,5.2c1.2,0.2,1.8-1.4,2.8-2c2.2,0.8-1.2,2.4,0.8,3.4
			c2.2,1.4,5.6,1.4,8,0c2.6,2.6-3,5.6,1.4,7c1.8,0.4,3.6-0.6,4.6,0.8c0.4,2.8-4.6,4.4-1.8,6.8c3.2-0.4,7-1.8,9.4,1.8
			c-3.8,0.8-8.6,1-10.6,5.2l-0.4,2.4c-3.6,0.4-7,6.6-10.4,2.4c-1-1-0.8-2.4-2-3.2c-2,1-3.6-0.6-5.2-1.4c-3.2-1.6,2-8.4-3.2-6.4
			c-4.6,5.6-6.8,13-9.4,20c-1.8-1.2-3.2-2.8-5.4-3.2c5.4-6,7.8-13.8,9-21.6c-0.4-0.2-0.4-1-1-1c-2.2,0.6-2.2,4.4-5,4
			c-1.6-1.8-3.8-5.2-6.4-3.6c-3.6,0.2-2-6.8-5.6-3.8c0,2,0.8,3.8,2.6,5.2c1.6,1.4,3.6,1,5.4,1.2c-1.8,1.2-4.4,1.6-6.8,1.8
			c-0.4-0.4-1.2-0.4-1.6,0s-1,1.2-0.2,1.6c3.4,1.8,7.2,2.6,11.2,3.4c0.4-0.2,1.4-0.8,1.2-1.6l-0.8-1.6c1,0.2,1.8-0.4,2.8-0.2
			c0,6.8-5.6,12.2-10,17c1.2,2.8,2.6,5.8,1,8.8c-1.6,3.2-4.8,3.8-8,3.2c-2-0.8-4.2-1.2-5.4-3.4c-0.4-2.6,0-5.6,1.4-7.8
			c2-2.2,5.2-1.6,7.2-3.6c-0.4-3.4-3.6-0.2-5.2-0.6c-3.8,1.8-6.2,5-5.8,9.6l-0.2,2.4c-6.6,10-12,20.4-18.6,30.1
			c-0.6,1.8-0.4,3.4,0.6,4.8c1.6,2.4,4.2,3,6.2,4.4c-0.8,6.6,0.6,12.6,4.2,17.6c1,0.4,1.2-0.8,1.6-1.4c-0.4-3.6-1.8-9.6,2-12
			c2.8,1.8,5.2,5.2,8.6,5.6c3.8-0.6,5.8-5,7.8-7.8c4.8-10.2,11.8-18.8,18.2-27.9c3-0.2,3.2-7,7-3.4c2.6,0,5.8-0.4,6.8-3.2
			c0.6-4.4,0.2-9.4,2.4-13.2c2-3,5.2-6.8,8.8-8c1.6,1.6-2.2,1.4-1.2,3c1.4,1,3.4,1,3.8,3c2,14-11.2,23.1-12.8,36.3
			c-2.6-1.4-2.6-4.4-5.2-5.4c-1.8,2,0.6,4.2,0.4,6.4c2.4,8.8-0.4,18.2-6,24.5c2.2-4.8,2-13,0.6-18.8l-1.2-1.2
			c-2.6,1.6,0.2,4.8-0.4,7.6c0.4,8.6-2,16.4-8.4,21.4c0.6-2.2,0.2-4.6,0.2-7.4c-0.4-0.4-1-1.2-1.6-0.6c-1.4,1.6-0.6,4.2-0.8,6.4
			c-0.6,4.6-4.4,8.8-8.2,11.6c-0.8-1.8,0.6-5.6-2-6.6c-0.8,0.2-1.6,0.6-1.6,1.6c2,6.4-0.2,13.2-5.4,18c-2.4,2.6-5.6,3.4-8.8,4.8
			c2.4-4.2,5.4-9.2,1.6-13.6c-0.2-0.6-0.8-0.8-1.4-0.6c-2,1.4,0.8,3.2,0.6,5c-0.4,5.2-3.8,10.6-9,12.2l-2.8,0.4
			c1.4-4.2,2.6-8.8,2.6-13.4c-0.4-0.8-1.2-1-1.8-0.6c-1.6,7.4-2.2,17.4-11,19.6c3.4-3.6,4-9,2.4-13.6c-0.6-2.2-3.4-3.4-3-5.8
			c0-2.2,1.6-4,2.8-5.8c0.2-0.8-0.4-1.4-1-2c-1.2,0.2-2.4,1.6-2.8,2.8c-1,2.6-2.8,6.4-0.6,9l2.4,3.2c-3.2,0.8-7-0.6-9.6-3
			c-1.6-1.4-0.6-3.2-2.2-4.6c0-6,2.2-11.8,7-15.2c0-0.6-0.2-1.2-0.8-1.8c-6.2,3.2-8.6,9.6-9.2,16.2c-4.2-4.2-1.2-9.8-0.4-14.6
			c1.4-3.8,4-7.4,8.2-8c0.6-0.6,2-1.6,0.8-2.4c-2-0.2-4.4,0.6-6.2,1.8c-2.4,1.6-3.6,4.4-4.8,7c-3.2-3.4-2.6-8.8-1.2-12.8
			c1.6-7.6,9.8-10.6,13.6-16.6c0.2-0.6-0.6-1-1-1.4h-0.8c-3.8,3-7.2,7.2-11.4,8.6c8.2-10.8,8.2-27.9,22.6-33.7c0.6-0.4,1.6-1,1-1.8
			c-2-1-4.4,0.8-6.4,1.6c1.6-5.4,7-10.4,11.6-13.8c0.2-0.4,0.4-1.4-0.4-1.8c-3,0-4.8-1-7-2.6c4.2-5.4,11.2-8.2,14.4-14
			c0.4-3.4-5.8-2.2-3.4-5.6c1.6-3.2,2.4-8.2,7-8.4c1.8-0.2,3.4,1.6,4.8-0.2c0.4-4-1.8-8.8-1-13.2c6.6,4.4,3.4,11.6,4,18.4
			c-2.4,4.6-4.2,9.6-4.8,15c0.4,1.8,2,3.6,3.6,4c1.2-0.2,2.4,1.4,3.2-0.2c0.8-1-0.8-1.8-1.4-2.2c-1.2,0-2.4-1-2.8-2.2
			c0.6-5.4,3-10,4.8-14.8c-1-5.6,2.2-10.4-0.6-15c-2.2-2.6-5.6-5.6-4.2-9C471.5,104.5,471.7,106.3,472.8,107.1"/>
		<path class="st2" d="M433.7,110.1c-2.4-1.4-7.6,0.6-7.6-3l0.8-2.6C429.9,104.9,432.5,107.5,433.7,110.1"/>
		<path class="st2" d="M203.4,108.1c-2.4,4.4-7.8,8.4-5,14.4c-0.4,2.6,0.4,5.4,0,7.6c2.6,4.2,5.8,9.6,4.2,14.8c-0.8,1.4-4.8,1-3,3.4
			c1.4,1,2.6-0.6,4-0.8c4.6-4.6,0.6-10.2-0.6-15c-3.8-2.6-1-8-2.4-11.2c-1.6-4.4,1.8-7.2,4.2-10c0.4,3.6-1,9-1,12.6
			c1.6,1.8,4-0.2,6,0.4c5,1,4.4,6.6,7,9.4c-1,1.6-3,1.8-4.4,3.2c2.2,7.2,11,9,14.4,15.2c-1.8,1.4-4,2.8-6.8,2.4
			c-0.2,0.6-0.8,1.6-0.2,2.2c5.2,3.4,9.2,8,11.8,13.4c-2-0.8-4.8-2.6-6.8-1.4c0.6,2.8,3.6,2.2,5.4,3.8c11.2,7.8,10.8,21.8,19,31.3
			c-5.6,0.4-7.4-6.8-12.6-8.4c-0.6,0-1,0.8-1.2,1.2c4.2,5.6,10.8,9.4,13.4,15.8c1.2,4.4,2.4,9.8-0.4,13.6c-2.4-4-6.2-8.4-11.4-9
			c-0.8,0.4-1.6,1.4-0.8,2c6.8,1.4,10.2,8.6,11.4,14.6c0,3.6,0.4,7.2-2.4,9.6c-1-1-0.2-3.2-0.6-4.8c-0.4-5-3.8-9.8-8.2-12
			c-0.6-0.2-1,0.2-1.2,0.8c-0.2,2.4,3.2,2.4,4,4.8c2.8,3.4,3.4,7.4,3,12c-1.4,1.4-1,3.2-2.4,4.6c-2.6,1.4-5.6,2.8-8.8,2.6
			c0.6-1.8,2.4-3.4,3-5.4c0.6-4-0.8-7.4-3.8-9.8c-3.8,1.4,1.6,3.8,1.4,6.2c1.2,5-5.2,6.8-3.8,12c0,3.4,1.2,6.2,3,8.8
			c-8.4-1.6-9-11.8-10.4-19c-0.4-0.6-1.2-0.8-1.8-0.2l-0.6,0.6c0.6,4.8,1.4,8.6,3,13c-3,0-5.8-1-8-3.2c-1.6-3-3.8-5.4-4.2-8.8
			c-0.4-2,3.2-4,0.4-5.4c-2.8,0.6-1.8,4.2-2.8,6c-0.2,3.2,2.4,5,3,7.8c-3.8-0.2-7.2-3.6-10-6.4c-4-4.6-5.4-10.8-4.4-17
			c-0.4-0.4-1-0.8-1.6-0.4c-0.4,2-1.6,3.6-1,6c-2.8-0.4-3.8-3.2-6.2-4.8c-2-3.8-2.8-7.4-2.6-12.2c-0.6-0.4-1.2-1-1.8-0.4
			c-2,2.6,1,5.2-0.2,8.2c-3-2.4-4.4-5.8-6.6-9c-1.8-6-3.2-11.8-1-17.8c0.2-1-0.2-2.2-1.2-2.4c-1.6,1-1.8,3.8-1.8,5.6
			c-0.6,4.6-0.8,9.8,1.4,14.2c-4.8-4.8-8-13.2-7-20.8c-0.8-3.8,2.8-6.8,0.2-10.2c-2.6,0.8-1,4-3.8,5.2l-0.6,0.4
			c-1.4-13.4-16.4-23-12.2-37.3c0.6-1.8,3.8-0.6,2.8-3c-0.6-0.4-1.2-0.8-1.2-1.6c0.8-0.8,1.8,0.2,2.6,0.4c4.2,3.6,8.2,8,8.4,13.6
			c0.4,3.2-0.6,7.2,2.8,9.2c2.6,2,7.6-2,8.6,1.6c4,2.4,5.8,7.2,8.8,10.2c7.2,8.6,10.6,19,18,27.3c4.2,2,7.4-2.4,10.6-4.8
			c2-0.2,2,2.4,2.8,3.8c0.6,3-0.8,5.6-0.8,8.4c0.2,0.6,1,1,1.8,0.8c4-4.8,4.6-11.4,4.4-17.4c2.4-2.4,8.2-4,6.6-8.2l-0.2-1.6
			c-6.4-10.2-12.4-20-18.6-30.1c0.2-3-0.2-7.4-3-9.8c-2.2-1.6-5.8-3.2-8.2-1.4c0.4,2.6,3.6,1.4,5.2,2.4c2.2,2,3.8,4.2,3.8,7.2
			c0,2.2-2,4.2-3.8,4.8c-2.4,1.2-5.8,1.8-8,0c-1.4-2.2-3.6-4.4-2.2-7.4c0.6-1.4,1.4-2.6,1-4.4c-5.2-3.6-8.4-9.8-10-15.8
			c0.8-0.6,1.8-0.2,3.2-0.4c-0.8,0.6-0.6,1.6-0.8,2.6l1.2,0.8c3.6-1.4,8.4-1,11.4-4c0-0.6-0.4-1.2-1-1.4c-2.6,0.4-5.2-0.6-8-1
			c1-1.2,3.8,0,5.4-1.6c1.4-1.4,2.6-3.2,1.8-5.4c-0.4-0.4-0.6-1-1.4-0.8c-1.2,1.6-1,4-3.2,4.6c-1.6-0.6-3,0-4.4,0.6
			c-1.6,1-1.4,4.2-3.8,3c-1.8-1-2.4-4.8-4.6-3.4l-0.4,0.4c2.6,7.6,4,15.6,10,21.4c-0.6,1-2,0.6-2.8,1.2l-2.6,2
			c-1.6-2.2-2.2-5.6-3.2-8.4c-2.4-4-3.8-8.6-7.6-11.8c-0.8-0.4-1.8-0.2-2,0.6c0.2,2.2,2.2,4,0.2,6c-1.6,1.8-3.8,1.8-6,2.2
			c-0.6,1.6-1.6,3.6-3.4,4.2c-3.6-1-8.6-2.6-9.6-6.6c-2-3.6-6.2-4-10-4.4c0.6-1.4,2.4-2,3.8-2.8c2.6-0.4,5,2,6.6-0.6
			c-0.4-2.4-3.2-3.8-2.6-6.2c2-0.2,4.6,0.6,5.8-1.2c0.4-2-1.8-4.4,0.2-6.2c1.8,1.4,4.6,1.2,6.8,1c2-0.6,1.6-3,1.2-4.2
			c1.6,0,2.4,2.6,4.2,1.8c2-1,1.2-3.6,1.6-5c3-0.6,5.4,1.6,8,2.6c1.2-0.2,2.2-1.6,2.4-2.6c0-0.8-0.2-1.8,0.6-2.2
			c3.8-0.2,5.4,5.4,9,4.4l4.8-6.4c4-1.6,8.4-2.8,11-7C204.2,105.5,203.8,106.9,203.4,108.1"/>
		<path class="st2" d="M247.1,108.9l-0.4,0.4l-7.4,1.2C240.2,107.5,248.7,100.5,247.1,108.9"/>
		<path class="st1" d="M406.8,108.3v12.9c0,0,11-0.2,15.6,0.2c0.8,1.2,2.2,1,3.6,1c1.8,3,2.4,10.7,2.4,10.7l-59.7,0.1v-24.5h9.1
			v11.7l1.1,1.1h15l0.8-0.8v-12.4H406.8z"/>
		<path class="st1" d="M280.1,108.3v12.4l0.8,0.7h15.4l1-1.6v-11c0,0,6.3,0.2,9.7,0v24.5l-62.2-0.1l-0.2-0.6
			c-0.2-3.6,1.2-6.8,2.8-9.8c1.4-0.4,4.4-1.4,4.4-1.4h15.4l1-1.6l-0.1-11.5L280.1,108.3z"/>
		<path class="st2" d="M250.9,111.7l-2-0.4l1.2-3C251.3,108.5,251.1,110.7,250.9,111.7"/>
		<path class="st1" d="M619.9,123.2c0,2.2-1.4,4-1.8,6l0.4,1.2l-1.2,0.4c-7.8,15.2-22.2,28.5-36.5,37.9c0.6,2.8,0.8,6.8-1.4,9
			c-3,3.8-7.2,5-10.8,7.4c0,0.8,0.6,1.6,1.2,1.6c5.8-1.2,12.4-6,14-11.8l0.2-5c14.2-9,26.9-22.3,35.1-36.9l0.6,0.4
			c0.8,9.4-2.4,17.8-7,24.9c2.6,2.8,3.6,7.4,2.2,11c-1.2,4-3.2,7.6-5.2,11.2c3.8,6.2-0.2,13.4-4,18.6c-3.8,3.6-7.2,7.2-11.4,10
			c1.2,2.2,1.6,4.4,0.8,7c-2.8,5.4-8.4,10.4-13.2,14.6c-0.2,2.6,3.6,2.8,4,5.2c-1.8,5.2-5.6,9.4-10.8,11.4c0.2,2,2,3.6,2.6,5.6
			c-1,3-4.6,4.6-7.2,5.2c-1,0.4-1,1.4-0.4,2l2.2,0.6c-1.6,2.6-3.4,6.2-6.6,7.2c-2,0.4-4,0.6-5.6,1.8c0,2.2,2.2,3.6,4,4.2
			c-1.2,3.6-5.6,5.6-9.4,6c-1-0.2-2.4-1-3,0.4c0.6,1.6,2,2.8,3.2,4c-3.2,3.6-9.2,3-13.6,2.6c-1.2,0.6-0.6,1.8,0.4,2.4
			c1,1,2.6,1,3.6,2.2c-2.2,3.2-5.2,5.8-9.6,4.6c-2,0-4.2-2-6-0.6c0.2,2.4,1.6,4.4,2.2,6.6c-2.6,3.2-7.8,1.6-11.2,0.8
			c-2,1,0.4,2.2,0.6,3l1,1c-2.4,2-6.6,2.8-9.4,1.4c-2-0.2-3.4-3.4-5.4-2c-0.2,1.8,0,5-2.8,4.2c-3,0.4-5.6-1.4-7.6-3.6
			c-1.4-1.2-0.8-5-3.4-3.8c-0.8,1.2-0.2,2.2-0.6,3.4c-3.2,0.6-5.8-2.2-7.6-4.6c-2.4-6-3.4-12.2-3.6-19.2c-0.8-1.2,0-2.8,0-4.2
			c1.6,0.6,4,1.6,5.4-0.2c0.2-2.4-2.8-1-4-2h-1.8c-3.8-5.2-9.8-12.2-5.4-19.2c4.2-7,12.2-7.4,20-7c6.2,1.6,13.6,0,17.8-5.2
			c0.4-2,3-2.6,3.6-4.6c6.6-7,9-16,7.4-25.9c-0.4-11.6-3.2-25.3,1-36.1c2-4.4,6-7.8,9.6-10.8c9.8-8.8,19-19,27.1-28.3
			c2.2-2.2,4-5.4,6.2-7.6c-1.8,15.6-8.4,29.7-20.8,40.9c-6.6,6.6-13.4,12.8-20.2,18.6c-0.4,0.8,0.6,1.2,1,1.6c2.4,0,3.4-4,6-2.2
			c2.6,2.2,3.2,5.6,2.2,8.8c-0.6,2.6-2.6,4.8-3.8,7c1,2,3.4,2.4,3.8,4.8c0.8,3.8,0,7.6-2.4,10.8c0.8,3.6,1.2,8.6-1.8,11.4
			c-2,1.6-4.4,2.6-6,4.4c0.4,0.4,0.8,1.4,1.6,1.2c0.8,0,1.6-0.8,2.2-0.4c-1,4.6-2.6,9.6-7.2,12c-2,1.2-4.2-1.6-5.8,0.6
			c0.8,1.8,3.2,2.4,1.2,4.2c-3,3.6-7,6-12.2,4.8c-1,0-2.4-1-3.4-0.4c-0.8,1.8-0.2,4.6-2.8,5.2c-3.6,0.8-6.4-3.2-9.4-0.8
			c-1.4,1.8-3.8,2.2-5.8,1.4c-1-0.4-2.2-1.8-3.4-1c-1,0.8,0.2,1.6,0.8,2.2c2,1.4,5.2,2.4,7.8,1.2c1.6-1,3.4-2.6,5.4-0.8
			c2.8,1,5.6,0.4,7.8-1.4c1-0.8,1.4-2,1.6-3.2c4.8,0.8,10.2,0,13.8-3.2l3.8-5.8c7.2-2.4,10-10.2,10.8-17.2c6.4-4.2,2-13.2,5.8-18.6
			c0.4-4.2,0.6-8.8-2.6-11.8c1.6-3.4,4-6.6,3.4-10.6c14.8-10.6,31.9-19.8,39.7-37.1c17.4-12.2,28.1-32.1,38.9-48.9
			C621.5,112.7,620.7,119,619.9,123.2"/>
		<path class="st1" d="M94.1,159.8c7.4,16.4,25.5,26.5,39.3,36.5c0.2,3.8,1,7.4,3.4,10.2c-3.2,2.8-4,8-2.8,12c3.2,3,1.6,7.2,2,10.6
			c-0.8,5,6.2,6.4,4.8,11.6c1.4,5.6,4.4,11.6,10,13.6c2.6,3.8,6.6,8.8,11.8,8.8l5.4-0.2c0.6,3.2,4.4,4.8,7.4,5
			c1.8-0.4,3.8-0.4,5.2-1.4c2.6,1.4,5.8,3.4,8.8,1.6c1-0.6,2.4-0.6,2.8-2c-0.8-4.2-3.4,1-5.6,0.2c-3,0-4.4-3.8-7.2-2.4
			c-2.2,0.8-4.8,2.4-7,0.8c-1.4-1.4-1-3.4-2.4-4.8c-4.4,1-8.8,1.2-12.6-1.6c-1-1.6-3.2-2.4-3.4-4.6c0.6-0.4,1.4-1.2,1.8-1.8
			c0.2-0.6-0.6-1-1-1.2c-1.8,1-3.4,0.2-5.2,0c-3.6-2.6-6-6.8-6.4-11l0.4-0.8c0.8,0,1.4,1,2.2,0.4l1-1.2c-3.2-2.4-7.8-4.8-8.2-9.4
			c-0.8-2.2,0.6-4.4,0.2-7c-1.8-2.6-3.2-5.4-2.8-8.8c0-3.6,4.8-3.8,4-7.2c-3-3.2-5.2-7.4-3.6-11.6c0.8-1.2,2-3,3.6-3.8
			c2,0,3.6,5,5.6,1.6c-14.8-14.2-34.3-27.7-38.7-48.1c-1.4-3.8-1.4-7.8-2.8-11.6l0.4-0.4c12.2,15.4,26.3,30.9,41.3,43.5
			c5.4,8.4,3.8,17.2,4,27.1c-1.2,2.2,0,5.4-0.6,8.2c0.4,4.6-1.8,9.2-0.2,13.8c-0.4,10.8,8.8,18.6,16.4,25.1c8.4,4,19.2-2,27.5,3.2
			c5,2.2,6.2,7.6,6,12.4c-1.8,4.2-3.6,8.2-6.8,11.8c-1.8,0-4.4-0.4-5.8,1c-0.2,1.2,1.2,1.6,2,1.8l3.6-0.8c0.8,4.6-0.6,9.8-1,14.4
			c-0.8,5.4-2.4,11.2-8.2,13.6c-2.6,0.8-1.2-4.6-4.2-3.4c-0.6,3.6-3.6,6.2-6.8,7.2c-2-0.2-3.8,0.4-5.6-0.6c-0.4-1.4,0.6-3.2-1.2-4
			c-3.2,2.2-7.2,4.8-11.2,2.6l-2-1.2c0.8-1.2,2.4-2,2-3.4l-0.6-0.8c-3.6,0.2-8.2,3-11-0.2c0-2.4,3.6-5.4,1-7.8
			c-3.4,1.6-9,2.6-12-0.2l-2.6-3c1.2-1.4,3.8-1.6,4.6-3.6c-0.6-1.2-1.6-1.6-2.6-0.8c-4.2,0.4-8.4,0.2-11.6-2.6c0.8-1,2.8-2.4,3-4
			c-1-2.2-2.4,0.2-3.8-0.6c-3.4-0.6-7-2.6-8.6-5.8c1.2-0.8,3.8-2.4,3.6-4.2c-1.6-1.2-3.6-1.4-5.2-2c-3.4-1-5.2-4.8-6.4-7.4
			c1,0,1.8,0,2.4-1c-0.2-2.2-3-1.6-4.4-2.4c-1.4-2.2-5.4-4-2.2-6.8c0.8-0.8,1.4-1.8,1.2-3c-4.8-2.2-9.6-6.2-10.6-11.6
			c-0.2-3,5.4-2.8,2.4-5.8c-4.6-5.8-13.8-10-12.6-18.6c1.2-1,1-2.8-0.4-3.6c-8.8-6-16.8-15.4-14.6-25.9l0.4-1.2
			c-3-6.6-9-15-2.6-22.1c0.6-1.6-1.6-2-1.8-3.4c-3.8-5.8-5.6-13-5.4-20l0.6-1.8c8.6,13.8,21.2,27.5,35.1,36.3c0.6,3.2,0.4,6.4,2.4,9
			c2.6,4.6,7.8,6.6,12.4,8.2l0.8-1.4c-4.2-3.2-11.2-5.2-12.8-11.4c2.2-8-7.4-8.8-10.8-13.8c-11-7.6-18.4-19.2-26.3-29.5
			c-1.6-5.6-2.8-13.8-2-20.2l1.2-1.8C65,127.6,76.7,146.8,94.1,159.8"/>
		<path class="st2" d="M246.6,112.3c-0.8,1-2.8,0.6-4.2,0.4C243.6,112.1,245.4,111.9,246.6,112.3"/>
		<path class="st2" d="M420.8,117.2c-1.6,0.6-4.2-1-5.4,1.6c-0.4-1.2-1-3,0.6-4l4.2-1.6L420.8,117.2z"/>
		<path class="st2" d="M258.7,116.8c0.4,0.8,0.2,2-0.6,2.4c-0.6-1.4-2-1.4-2.8-2c-0.8,0.4-1.6,0.6-2.6,0.6l0.8-4.2
			C255.3,114.2,257.9,114.5,258.7,116.8"/>
		<path class="st2" d="M248.3,114.6c-0.2,1.6-0.4,3.6,0.2,5.2c-1.6,0.2-4.2-2-5.6-0.2c-0.2,1.2,1.2,1.6,1.8,2.4
			c-1.8,3.6-2.2,7.8-2.8,11.6c1.2,6.6,3,13.2,4.8,19.4c-0.6,0.4-1.4,0.4-1.8,1.2c1.2,6,3.4,11.2,5.6,16.8c-4-0.8-1.8,4.8-3.2,7
			c1,3.2,0.4,7,0.6,10.4l-1.8,4.6c-3.2-6.4-5.8-14-10.8-20.2c-1.6-3.8,0.4-8.4,0.4-12.8c0.2-9.4-2.2-18-1.4-26.7
			c0.4-5.6,1.6-10.6,2.2-16C239.8,114.9,244.8,116.1,248.3,114.6"/>
		<path class="st2" d="M436.3,116.4c3,12.8,4,27.1,1.2,40.9c0.2,3.6,0,7.6,1.6,10.6c1.2,5.8-4.8,8.2-6.2,13c-2.2,3.6-3,8.6-5.2,11.6
			c-4.6-6.8,0.4-14.8-3-21.8c-0.4-0.4-1-0.6-1.8-0.4c1.8-5.6,5.2-10.6,5.4-16.6c0.2-1-0.8-0.8-1.4-1c2.2-9.4,6.6-20.8,1.8-30.9
			c0.6-0.6,1.6-2,0.8-3c-1.6-1-2.8,1.2-4.4,0.8v-5C428.5,115.2,432.9,114.9,436.3,116.4"/>
		<path class="st1" d="M428,135.5c0,0-0.6,1.9-0.2,3.3l-2.6,2h-48.7l-6-5.3H428z"/>
		<path class="st1" d="M298.6,141l-48.4,0.1c-2-1.2-5.3-5.1-5.3-5.1H304L298.6,141z"/>
		<path class="st2" d="M537.3,139.8c0.2,4.8-4.4,8.6-8.4,10.4c-1.4-0.6-3.2,1.6-3.6-1c-0.8-3.2,5.4-0.8,3.8-4.4c-1-1-2.2,0.2-3.4,0
			c1.6-3.6,6-4,9.8-3.8C536.3,140.6,536.1,139,537.3,139.8"/>
		<path class="st2" d="M146.6,143.6l1.2,1.6c-1.2,0.6-3.2-1-3.8,1c0,1.6,1.6,1,2.4,2c0.8,0,1.6-0.2,1.8,0.6c-0.2,1,0.6,2.6-0.8,2.6
			c-4.6-0.4-8.2-4-10.6-7.8c0.4-1-1-2,0-2.8C139.8,142.8,143.8,141,146.6,143.6"/>
		<path class="st2" d="M506,147.2c-1.8,1-4.2-1.2-6,0.6c1.6,4,5.8,6.6,8.6,9.6c0.4-0.2,1.6-0.8,1.2-1.8c-2.6-1.4-1-5-1.4-7.4
			c1.4-0.4,1.6,1.8,3,2.6l2.4,1.4c-3.6,4.4-5.4,9.4-4.6,15.6c-0.2,1.2-0.6,2.8-2.2,3c-1.8,0.2-3.8,0-4.4-2c-0.2-2.4,0.6-5-1-6.6
			c-3,0.8-0.8,5.4-1.8,7.8c0,2-2.4,3.4-3.6,4.6c-1.8,0.4-4.6,0.8-6.4-0.4c-2.8-2-4.4-5.2-3.6-8.2c1.2-4.2,7-2.8,7.8-7
			c3-3,2.8-7.8,5-11.2l2.4-4.8C502.2,145,504.2,145.8,506,147.2"/>
		<path class="st1" d="M424.2,143.2l-0.1,17.8c0,0-5.2,10-5.2,15.6c1.2,1.2,2.4,0,3.6-0.4c0.2-0.2,0.2-1,0.8-0.8
			c0.4,5.4-0.8,11.6,1,16.8c-0.8,3.2,1.6,8.2-2,9.6c-1.4,0.6-3,0.8-3.8,2c0,1.4,1.6,2.2,2.6,2.4c1.2,0.2,3.6-0.4,3,1.4
			c0,0,0,0.6-0.2,0.9h-45.6l-0.1-65.2L424.2,143.2z"/>
		<path class="st1" d="M297.4,143.7v65.1c0,0-31.9-0.1-45.9-0.1c-1.6-4,4.2-1.2,4-4.6c-1-1.2-4.3-1.7-4.3-1.7l0.1-25.6
			c0,0,3.4,1.4,4-0.8c-0.8-3.2-4.1-9.6-4.1-9.6v-22.7L297.4,143.7z"/>
		<path class="st2" d="M178.3,158.4c1.6,0.8,1.2,1.8,2,3c2.8,2,8.2,2.4,7.4,7c-0.2,3.2-2.8,5.6-5.4,7c-2.6,0.4-5,0-6.8-1.8
			c-2.4-3-1-7.8-3.4-10.8c-0.8-0.4-1.2,0.6-1.6,1c0.8,1.8,0.4,4.2,0.4,6.2c-1,1.8-3.4,1-4.8,1.2c-3.2-2.8-1.2-7.4-2.6-10.8
			c-0.4-2.8-2.2-5.2-3.6-7.4c1.8-1,4-2,4.6-4.4h0.6c-0.6,2.4,1.4,5.8-1.2,7.2c-0.2,0.4-0.4,1.2,0.2,1.6c2.8,0.4,5.2-3,6.8-5.2
			c0.8-1.2,3.4-2.4,2.2-4c-1.6-2-3,0.8-5-0.4c1.6-1.2,3.2-2.6,4.2-4.2C175.1,148.2,176.9,153.2,178.3,158.4"/>
		<path class="st1" d="M578.8,153.4c-4.4,18.8-24.9,27.7-38.7,38.9c-1.8-0.8-1.8-3.8-4.4-4.4v-0.6c11.4-9.4,24.1-21.6,30.5-34.5
			c2,0.8,4.2,0,5.8-0.8C574.2,153,577.2,150.8,578.8,153.4"/>
		<path class="st1" d="M107.5,153.6c6,13.6,19.4,24.5,30.3,34.5l-4,5.2c-6.2-3-11.6-8.4-17.6-12.4l-11.6-10
			c-4.6-4.8-8.6-10.8-9.8-17C98.9,151,103.5,154.8,107.5,153.6"/>
		<path class="st2" d="M490.8,159.2l-4.6,2.2l-0.4-5C487.6,156.8,489.4,157.5,490.8,159.2"/>
		<path class="st2" d="M187.3,161.5l-4.2-1.8c0.4-2,3.2-1.8,4.6-3C188.3,158.6,187.3,159.9,187.3,161.5"/>
		<path d="M403.8,159.9c0.4,1.4-0.8,2.4-1.4,3v9.4c3,1.2,7.2,0,10.6,0.4c1-0.8,2.6-2,3.8-0.8c1.4,1.2,1,3,0.4,4.2c-1,1-2.8,1-3.6,0
			c-0.4-1.8-2.4-1-3.4-1.2c-2.6,0.8-9.4-2.4-8,3.4c0.8,2.8-1.2,6.6,1.6,8.6c0.2,1.6,0,3.2-1.6,3.6c-1.4,0.2-2.8-0.4-3.2-1.8
			c-0.8-1.4,0.6-2.4,1.2-3.6c-0.2-3.4,0.2-7-0.4-10l-9.4-0.2c-1,1.4-3.2,2.8-4.8,1.2c-0.6-1.2-1.4-2.8,0-4c1.6-1.8,3,0.4,4.6,0.8
			c3.4-1,10.4,2.6,10-3c-0.2-3.2,0.8-7-1.4-9.2c-0.6-1.2,0.6-1.8,1-2.8C401.4,156.6,403.4,158.4,403.8,159.9"/>
		<path d="M276.9,160.1c-0.4,1.2-0.2,2.2-1.4,2.8c-0.8,3.6,0.2,6.2-0.2,9.6c3.6,1,7,0.6,10.8,0.4c1.4-1.2,3-1.4,4.6,0
			c0.6,1.6-0.2,3.4-1.4,4c-1.4,0.2-3-0.4-3.4-1.8l-10.2,0.2c-0.6,3.6-0.4,7-0.2,10.4c1.4,0.4,1.2,2,1.2,2.8
			c-0.2,1.2-0.8,1.8-1.6,2.4c-1.8,0-3.2-1.4-3.4-3c2.6-3.2,1.2-9.2,1.4-12.4c-3.2-1.2-6.6,0.2-10-0.2c-0.6,1.4-2.4,2.2-4,1.4
			c-1-0.4-0.8-1.8-1.4-2.8c0.2-0.8,1.2-2,2.2-2c1,0.2,2.4,0.2,3,1.2l9.8-0.2c0.4-4,1.6-8.6-1-12c0.2-1.4,1.2-2.4,2.2-3.4
			C275.3,158,276.3,158.8,276.9,160.1"/>
		<path d="M607.6,164.7c-6.8,9.2-17,16-26.7,21.9c0.6,1.2,3.2,1.8,2.2,3.6c-3.4,6-9.6,10.4-15,14.4c2.6,1.8,5.6,3.4,7.8,5.8v1.2
			c-2,1.6-4.2,2.8-6,4.4c2.2,1.2,5.8-0.2,8.8,0.6c2.4-0.8,5-0.8,7.4-2s4.6-3.4,7.2-4.4c0.8,0.6,0.8,1.8,0,2.6c-2.4,2.6-6.2,3.2-9,5
			c-6.2,1.4-13.4,0.6-20,0.8c-0.2-0.4-0.8-0.6-0.6-1.4c2.8-2.4,6.2-3.6,9-6.2c-1.6-1.8-4.6-3.2-5.6-5.6c-6.8,4.6-14.4,7.4-21.5,11.4
			c-1,0.2-1.8-0.4-2.2-1l0.2-0.8c13-6.6,27.7-12.2,36.7-25.1l-3.2-3c3.8-3.8,9.4-5.8,13.2-9.2c5-5,11.8-8,16-14.4
			C607.2,163.1,607.7,163.9,607.6,164.7"/>
		<path d="M75.9,172.9c6.6,5.4,13.8,9.4,20.6,14.4c-0.2,2-2.4,2-3.4,3.4c9.8,13,24.1,18.2,37.3,25.5c0.2,0.6-0.6,1-0.8,1.2
			c-8.4-2.4-15.6-7.6-23.3-11.6c0.4,3-3.8,3.8-5.4,5.8c3,2.6,6.2,4,9,6.2c0.6,0.6,0,1.4-0.6,1.6c-10.4,0-22.6,1.2-29.3-7
			c-0.2-0.6,0.2-1.2,0.8-1.2c1.8-0.4,2.2,1.6,3.6,2.2c5.6,3.6,13,4.6,19.6,3.4c-2-2.2-4.8-2.8-6.4-5c1.8-3,5.4-4.4,8-6.4
			c-5.6-4.6-12.4-9-15.4-15.4c0.2-1.4,2-1.4,2.8-2.2c-9.6-7-19.8-12.6-27.1-22.7c0.2-0.6,1.2-1.2,1.8-0.6L75.9,172.9z"/>
		<path class="st2" d="M468.5,167.9c-5.4,8-9,16.6-15.4,24.1c-0.8,1.4-0.4,2.6-0.2,4.2c0.4,1.6,2.4,2.8,3.8,3l-0.2,0.8
			c-2.4-0.8-4.8-2.4-5.8-4.6c1.6-5.6,6.8-9.6,9-14.8c2.8-5,5.6-10.2,9-14.4L468.5,167.9z"/>
		<path class="st2" d="M222.2,193.3c0.2,1.4,1.2,3-0.2,4.2c-1.6,0.6-3,3.2-4.8,2.6c1.4-1.2,3.6-2,4.2-4.2c-0.8-5.6-5.6-9-7.8-13.8
			c-3-5.2-6.6-10.2-8.6-15.6C210.8,174.9,215.8,184.5,222.2,193.3"/>
		<path class="st3" d="M485.2,177.7c-4.6,7-9.6,14-16.4,19.4c-3.6,4.2-9.2,7.6-10.8,12.6c-1.8-7.2,3.2-13.2,6.8-19
			c3-4.4,6.8-8.6,6.8-14.2c0.6-2.8,2-6.2,4.8-7.2c0.8,0.4,1.8,0.2,2.8,0.2c-5.4,3.8-2,10.6-6,14.8c-1,1-3.4,2.2-2.8,3.8
			c0.4,0.8,1.6,1.2,2.2,0.4c8-4,2.4-14,9.6-18.2c-0.8-1.4,0-2,1.2-2.8C482.6,171.5,488.6,173.9,485.2,177.7"/>
		<path class="st3" d="M191.9,169.3c-1.8,2.4,2.6,3.8,3.2,5.8c1.6,5,0.6,12.2,7,14.2c2.4-2.4-2-3.4-2.4-5.4c-2.8-3.6,0.4-9.6-4-12.4
			l-1.2-1.6c1.8,0,4.8-0.8,5.4,1.8c3.6,4.2,1.6,10.2,5.6,14.4c4,5.6,8,11.2,10.6,17.4c0.2,2.2,0.2,4.2,0,6.8l-2.4-4
			c-9.4-9.8-20.6-18.8-26.1-30.5c1-2.4,3-4.8,2.8-7.6C190.7,168.7,191.5,168.7,191.9,169.3"/>
		<path class="st2" d="M468.5,180.3c-2,4.4-5.4,7.8-8.2,12c0.2-1,0.8-3.4-1.2-3.8l9.2-15C469.7,175.3,468.7,178.1,468.5,180.3"/>
		<path class="st2" d="M214.6,188.9c-1.8,0.2-1.4,2.6-1.2,3.8c-3.4-5.4-10.6-11.6-8.2-18.8C209.2,178.3,210.8,184.1,214.6,188.9"/>
		<path class="st2" d="M493.4,177.5c-7.2,10-13,20.8-19.8,30.7c-1.8,2.4-3.8,1.2-5.4-0.4c0-0.4-0.4-0.8-0.8-1c1.4,0.8,3.4,1,4.8,0.4
			l2.2-1.6c6.4-9.4,10.8-19,17.8-28.1L493.4,177.5L493.4,177.5z"/>
		<path class="st2" d="M181.9,178.1c6.6,8.4,11,18.6,17.2,27.1c1.6,2.2,4,3.4,6.4,2.4l1-0.6c-1.2,1.8-3.2,3.2-5,3
			c-8.2-9.8-12.6-22-21.2-31.5C180.3,177.9,181.3,177.7,181.9,178.1"/>
		<path d="M608.6,183.1v1.2c-8.4,7-16.8,14.2-26.9,17.6c-0.8,0-1.2-0.4-1.6-1l0.2-0.6c9.8-4.2,18.8-10.6,27.1-17.8
			C608,182.3,608.3,182.7,608.6,183.1"/>
		<path d="M67,183.7c8.4,7,16.4,13,25.9,17.2c0.6,0.8-0.2,1.6-1,1.6c-10.2-3-18.6-11-26.9-17.8l0.4-1.4L67,183.7z"/>
		<path d="M496.4,189.5c0.6,6.6-2.4,12.2-4,18.2c-2,3.8-6,7-9.8,8.2c-2.4,4.2-7,7.2-11.6,8c-0.2-0.6-0.8-1.2,0-1.8
			c4-2.4,10-4.6,10.8-10c1.6-1.6-1-6,2.2-5.8c1,1.8,0.8,4.2,0.2,5.8c2,0.2,3.8-2.6,5-4.2c3.4-6,5.4-12.4,5.2-20
			c-0.4-0.4-0.6-1-0.2-1.8c0-0.6,0.8-0.8,1.4-0.4C496.6,186.5,495.6,188.5,496.4,189.5"/>
		<path d="M179.7,187.3c-0.6,10,1.6,20,9.6,25.5c1.8-2-2.2-5.8,1.6-6c1,3.8,1.6,8.2,5,11.4c2.2,2.2,5,3.2,7.2,5
			c-0.4,0.6-0.6,1.2-1.4,1c-5-1.6-8.2-5.2-12-8.8c-11-5.2-12.8-18.4-12-28.9C178.3,185.9,179.9,186.1,179.7,187.3"/>
		<path class="st2" d="M481.2,189.1c-1.8,4-4.6,8.2-6.8,11.2c0.2-1,0.4-3-0.4-4c3.2-2.8,5.4-6.8,8.6-10
			C482.8,187.5,481,187.9,481.2,189.1"/>
		<path class="st2" d="M200.1,196.9c-2.2,1,0,2.4-0.4,4c-3.4-4.2-5.8-9.2-8.4-14C194.3,190.5,197.1,193.7,200.1,196.9"/>
		<path d="M566.6,189.5c0,1.8-2,3.2-3.4,4c-6.4,4-13.2,7.6-20,10.8c-0.6,0-1.4-0.2-1.4-1v-0.6c8-4.2,16.2-8,23.3-14
			C565.8,188.5,566.2,189.1,566.6,189.5"/>
		<path d="M131.8,203.4c0.4,0.8-0.4,1.2-0.8,1.4l-3.2-0.8c-6.6-4-13.8-7-19.8-11.8c-0.2-0.8-2-2.4,0-2.8
			C115,195.3,123.8,198.9,131.8,203.4"/>
		<path d="M446.3,195.7c-2.8,4.2-6,9.4-3.2,14.4c1.4,2.4,4.6,4,5.6,6.4c-0.6,0.8-2.2,0.4-2.8,0.4c-1.4,2.4,5.6,6.2,0,5.6
			c-1.6-1.6-2-3.6-2.6-5.6c1.8-3.4-4-5.4-3-9.2c-0.6-5,1-9.8,4.6-13.4C445.9,194.1,446.5,194.9,446.3,195.7"/>
		<path d="M231.4,198.3c1.8,4.2,4.4,10.4,0.6,14.6c-2.6,3-0.8,8.4-5,10.4c-0.6,0.2-1.2-0.4-1.6-1c0.6-1.8,3.2-2.6,2.8-5
			c-1-0.2-2.8,0.6-3.2-0.8c2.4-2.6,6-4.8,6.8-8.6c0.4-4.6-2.6-8.8-5-12.2C228.2,192.9,230.4,197.1,231.4,198.3"/>
		<path class="st1" d="M359.1,224.3v23.1H355c0.2-7.6,0-23.1,0-23.1c0-6.1-2.4-15.4-17.3-15.4c-13.5,0-17.2,7.1-17.2,15.4v23.1h-4.1
			v-23.1c0-14.5,10.2-19,21.4-19C348.9,205.3,359.1,210.6,359.1,224.3"/>
	</g>
	<polygon class="st1" points="422.6,211 421,216.1 371.5,216.2 377.5,211 	"/>
	<polygon class="st1" points="304.6,216.6 252.5,216.4 251.9,211.2 298.6,211.2 	"/>
</g>
<path d="M466.3,218.4c0.2,1.2-0.2,2.8-1.2,3.8c-0.6,0.4-1.2,0.8-1.8,0.4c-1.4-1.8,2.4-3,1-5.4C465.3,216.2,466.3,217.4,466.3,218.4"
	/>
<path d="M209,218.4c-0.2,2,3.6,3.2,1.4,4.8c-1.8-0.6-3.2-2.8-3.4-4.8C206.8,217.2,209.2,216.6,209,218.4"/>
<path class="st1" d="M421.2,219.2c-0.6,5.4,4.2,9,2.8,14.2c-0.6,4-0.4,8.2,2.4,10.8c1,1.4,2.6,1,3.4,2.4l-1.4,0.8h-59.6v-28.2
	C368.8,219.1,404.4,219.2,421.2,219.2"/>
<path class="st1" d="M307.4,219.2v28.1h-63.8c0,0,4.6-3.8,6-5.8c1.8-4.8-1.8-10.4,1.8-14.8c0.8-2.2,1.3-7.5,1.3-7.5H307.4z"/>
<path d="M567.4,225.2c0.8,0.8,0.2,2-0.8,2.6c-8,6.4-17.6,10-27.9,9.6c-0.4-0.4-0.6-0.8-0.6-1.4c2-1.4,5-0.4,7.2-1
	c7.2-1.4,14.4-3.8,19.2-9.2c-2-1.4-4.8-1.8-6.2-3.8c1-2.4,3.6,0.2,5.4,0.4L567.4,225.2z"/>
<path d="M115,223.8c-2,0.8-4.2,1.6-5.4,3.2c6.8,6.4,15.8,9,25.3,9c0.6,0.4,1.4,1.4,0.2,2c-9.4,1-18.4-2.6-25.9-7.8
	c-1-1.6-2.8-2.4-3-4c2.4-2.4,5.2-3.4,8.2-4.4C115.2,222,115.6,223.2,115,223.8"/>
<path d="M552.7,222.6c0.2,1.2-1.4,1.4-2,2c-4,0.2-7.6,2.2-11.4,1.4c-0.4-0.2-0.2-0.8-0.2-1.2c4.4-0.8,8.8-2.2,13-2.8L552.7,222.6z"
	/>
<path d="M134.6,225.4c0.6,0.8-0.2,1.8-1.2,2c-3.8-1.4-8.4-1-12-3c-0.6-0.2-0.6-1.4,0.2-1.6C126,224,130.2,224.2,134.6,225.4"/>
<path d="M458.1,227.8c-1,1.8-2.2,3.8-1.2,5.8c0.8,0.6,0.8,1.6,0.4,2.2c-0.4,0.4-1,0.8-1.4,0.4c-1.4-2-1.8-4.4-1.2-7
	C455.3,228.4,456.9,225.4,458.1,227.8"/>
<path d="M219.4,230.4c-0.8,2.2,0.8,4.6-1.6,6l-1.4-0.2c0.2-1.8,1.4-4,0.4-6c-0.8-0.8-2.4-2.2-0.8-2.8
	C217.6,227.4,218.8,229,219.4,230.4"/>
<path class="st2" d="M494.4,236.2c-0.8,3.4-0.6,7.8,0,11c-7.6,0.8-15.8,0.8-20.2,7.8c-2.2,4.6-2.2,9.8,0,14.2l5.2,8.2
	c0.4,11.6-0.2,24,9.6,30.9c2,0.4,4.6,1.4,6,0c3.2,3.4,7.8,5.4,12.6,4.2c1.2,0,2.6-1.4,2.8-2.6c3.4-0.2,4.4,3.8,5.6,6
	c3.8,8,5,17.2,5.2,26.5c1,4,0,9.4,1,13.2c1,10.4,0.2,20.6,2,30.5c0.6,7.4,3.6,16,11.4,19.6c4,2.2,9.2,2,13.4,0.2
	c4.8-3.8,5-9.8,4.8-15.4c-1-5.6-1.8-11.2-4.2-16.2c-6.6-13.6-11.6-28.3-11-44.3c1.6-9,6.6-17.8,14.2-23.3
	c16.4-11.6,40.9-8.8,51.3-28.9c1-2,2.2-4.4,1.8-7c1.6,0.4,4.2,2.2,5,4.4c3.2,10.2-0.2,20.8-8.4,27.3c-5.4,4-11.6,6.6-17.2,10
	c2.2,7,0.6,14.4-2,20.4c-1.4,3-4.2,5.2-7.2,6c0.6-8.6-0.4-19-8.4-23.5c-5.2-2.2-10.2-0.2-14.6,1.8c-11.8,9.6-8.8,28.5-4.8,41.1
	c5,12.2,10.8,24.3,10.8,38.1c-0.4,6.4-2.8,12.8-9,15.6c-3.8,1.2-7.4,2.4-11.4,1c-6.6-0.4-11.8-5.2-16-10c-2.8,0.4-0.8,3.2-1.8,4.8
	c-2.2,4.8-5.4,9.2-5.6,14.8c-1.2-1.4-1.2-4.2,0-5.8c2-5.8,5-11.8,4.2-18.4c-0.8-2,0.4-5.6-2.4-5.8c-1.4,0.6-0.2,2.6-1.2,3.6
	c-1,10-9.8,16.2-11.8,25.7c-0.2,3.6,0.2,8.4,1.8,12c3.6,6.2,10.2,8.6,17.2,8.4c0.2,1.6-1,3.4,1.2,4.2c4,0.8,8,4.6,9,8.6
	c1.4,1.2,3.6-0.4,4.8,1.4c1.4,3.8,2.6,9,7.4,10c-0.8,1.6-3.6,1.2-5,0.8c-2.6-0.6-4-3.2-6.6-3.2c0,2-1.8,3.8-0.4,5.8
	c-0.4,2.8,2,5,4.2,6.6l5,2c-1,1.4-2.4,3.2-4.2,3.4c-3.4-0.6-6.8-2.6-9-5.2c-0.8,0.2-1.6,1-1.8,1.8c0.4,8.2,11.4,7.4,12,15.4
	c-1.8-1.4-4-3.2-6.2-2.4c-0.6,2.6,3,4.2,3.8,6.8c0,1,0.4,2.8-0.4,3.6c-2-3.8-6.4-7.2-11-7c-0.8,0-1.6,0.8-1.6,1.6
	c-0.6,6.4,6.4,7.8,8.6,12.6c0.2,4.8-0.4,10-0.8,15c0.2,0.4,0.8,1,0.2,1.6c-2.4-1.8-3.2-4.6-5.4-6.6c-2-0.2-1.6,2.2-2.6,3.2
	c-0.2,1.2,0.2,2.8-0.4,3.6c-1.6-0.8-2.6-4.4-4.6-2.8c2.2,6.6,5.2,13.8,3.2,21.1c-2.6,2-5.6-0.2-8.4-0.8c-2.6-1.4-5.6-3.2-6-6.6
	c-0.6-2.6,1.2-7.2-1.8-7.8c-1.4,1.8-0.4,4.2-1,6.2c-1.2,3.8-0.6,8.4-4.2,11c-1.6,0.8-3.4,0.2-5-0.4c-1.4-1.2-2.4-2.4-2.4-4.2
	c-0.6-3,6-4.8,2.4-7.4c-2,1.2-4.8,2.8-7.4,1.4c-1.8-2-4.2-3.2-3.4-6.2c1.2-2,6.4-2.2,4.4-5.4c-3.2,0.6-7.4,1.2-9.4-1.8
	c-0.6-1.6-0.6-3.4-0.4-5l1.8-0.8c7.2,0.2,15.8,9,21.4,0.6c8.4-10.4,9.2-24.1,12.6-36.5c0.4-4-0.4-7.6-3-10.4c-7-4-15-9.2-17-17.6
	c-3.2-6.2-5.2-13-10.2-18.4c-1.8,0-1.2,2-2.2,2.8c-1.6,8.2,5.4,15,3,23.3c0.2,3.4-0.6,7.2-2.4,10.2c-1.4-1-0.8-3.2-1.6-4.8
	c-1.2-1.6-1.8-4.2-4-4.8c-0.6,0-1.2,0.4-1.6,1c1.8,5.4,3.2,12.8-1,17.4c-3,3.2-6,6.2-10,7.4c5.4-7.8,10.2-17.6,7-27.9
	c-1.6-11-4.6-20.8-4.2-32.7c0.8-1.8-0.4-4.6,1-6.2c1-25.9,21.6-44.5,25.3-69.6c0.8-2-0.6-3.8-0.8-5.8c-0.6-0.2-1.4-0.2-1.8,0.4
	c-1.6,6-4.4,11.4-7.6,16.6c-2.2-3.4-5.6-7.8-3-12c4.2-7.2-2.4-14.6-6.4-20.6c-5.6-8.2-15.6-13.8-19-22.7l-4.4-10.2
	c4.8-5.6,4.4-13.6,4.4-20.8l5.2-7c0.2-0.8-0.6-1.4-1.2-1.8c-4,2.6-8.2,6.2-10.6,10.8c-1.2,5.2,3.2,11.8-3.2,15.2H446
	c0-2.6,1.6-4.8,0-7.2c-1.8-2-3.4,1.4-4,2.4l-2.2,4c-0.6-0.2-1-1-1.8-0.8l-6.4,6c-0.2-2.8-2.4-5-2.2-8c-0.6-0.6-1-1-1.8-0.8
	c-1.2,0.8-0.2,1.8-0.8,2.8c-1.2,4-2.8,8.8-7.4,10.4c1-2.8-0.6-6.4,1.2-8.8l-0.2-2c7.8-2.8,16-4.8,22.6-10.2
	c-0.2-0.4-0.6-1.4-1.2-1.4c-16.4,8.2-33.9,12.8-51.3,18.4c-0.4,0.4-1,0.8-0.6,1.4c0.8,1.8,3,0.6,4.2,0.4c0.2-0.2,0.4-0.2,0.6-0.2
	c-5.2,3.6-2.2,11.4-8,14.2c-0.2-4.2-3.6-7.8-1.6-12.2c0-1.6,0.2-4-0.8-5c-2.6,0.4-5.4,2.2-6.2,4.8c-0.6,1.4-0.2,3.8-2.4,3.8
	c-1.8-0.4-4.8-1-5.6,1.4c-1.8-0.4-2.8-2.4-3.6-4c-0.2-1.4,1.4-2.4,2.4-3c2.2-1.4,6.4,0,7-3.2c-1-2,0-4-2-5.6c-2.2,0.8-3.6,4-6.6,3.2
	c-2.2-0.8-4.6-2-6.2,1c-2,0.6-2.4-1.8-3.2-3c-0.6-2.2,1.8-4.2,3.2-5.2c4.6-1.8,9.6-3.2,14.6-2.8c16.8,0.6,30.1-9,44.1-16.2
	c5.8-4.6,11-9.4,16.2-14.4c2.4,0.8,4.4,1,7,1c0.4,2.6-0.4,5.6-2.6,7.6c-1.4,2.4-6.2-0.2-6,3.2c3.2,1.6,6.4,1.6,9.8,0.8
	c4.6,0,6-6.6,10.6-5.6c9.4-2.8,20-5.4,24.5-15.4l1.6-4.6c5.4-2.8,7.8-8.6,13.2-11.4C494.6,230.8,494.4,233,494.4,236.2"/>
<path class="st2" d="M192.9,240c1.6,8,9.6,15,17.4,17.2c4.4,0.2,8.2,3,12.8,3.2c2.4,3.6,6.6,6,11.2,5.6c1.6-0.8,4.2,0.2,5.2-1.8
	c-0.8-2.6-4.6-0.8-6.2-2.8c-2-2-2.4-4.8-2.8-7.2c2.4-0.4,5-0.8,7.2-1.6c6.6,5.6,11.8,11.4,18.6,16c13.4,6.4,25.9,15.4,41.9,14.4
	c6,0.2,11.6,1.2,16.6,3.8c1,1.4,1.6,3.8,0.8,5.4c-0.6,0.6-1,1.6-1.8,1.8c-1.4-0.4-2.6-1-3.6-2.2c-1.8,0.8-4,2-6,1
	c-1.6-0.6-2.8-2.8-4.4-2.6c-0.8,1.8-1.4,4.2-1.6,6c3,1.8,7,1.6,9.2,4.8c-0.2,1.8-1.6,3.8-3.4,4.8c-1-4.6-5,0.6-7.2-2.4
	c-0.4-3.6-3.2-6.4-6.6-7.8c-3.2,2.6,0.4,7-1,10.8c-1.4,1.8-0.8,4.6-2,6.6c-5.4-2.8-2.6-10.2-7.4-13.8c1-0.2,3.4,1.4,4.4-0.8l-0.8-1
	c-17.4-5.6-35.1-10.4-51.3-18.4c-0.6,0-1.2,0.6-1.4,1c3.8,4.6,10.2,4.6,14.8,8c-2,1.8-1,4.6-3,6.6l-0.2,1.8c-2.6-1-4.4-3.4-6.6-5.4
	l-1.8,0.4c-1.8-2-2.2-6.8-5.4-6.2c-2.2,1.8-0.6,5.2-0.8,7.6c-2.4-1.4-3.2-4.2-4.2-6.4c1.2-5.2,0.8-11-3.2-14.6
	c-2.6-1.4-4.8-6.2-7.8-4.4l0.2,1.6c2.2,3.4,6.6,5.6,5.2,10.2c-1.2,6.2,0.6,12,4,16.6c-0.8,4.6-2.6,8.4-5,12.4
	c-3.8,6-7.8,11.8-14,15.8c-4.4,5.4-8.8,11.2-11.4,17.6c-3,5.8,4.6,9.2,1.4,15l-3,5.8c-4-5-6-11-8-16.8c-0.4-0.6-1.6-1.2-1.8-0.2
	c-1.6,20,12.6,35.3,19.8,52.7c5.2,13.2,7.2,29.9,5.2,42.9c-1.4,8.4-3.6,17.6-4,26.7c0.4,7.4,3.6,13.4,7.6,19.4
	c-5.8-2.8-12.6-7.8-12.8-15c0.2-3.4,1.4-6.6,1.8-9.8c-0.6-0.8-1.4-1.2-2.2-0.8c-2.4,3-4,6.2-4.4,10c-3.4-5-3-11-3-17.6
	c1.2-6,5.6-11.4,2.4-18.2c-0.6-0.6-1.4-1.4-2-0.6c-8.8,10.2-7.8,26.3-22,32.5c-4,2-7.6,6-7.6,11s2,9.4,3,13.8c2,10.4,5,21.6,14,28.5
	c6.2,0.2,11.8-2.8,17.6-4.2c1.4,0.8,2.6,2.6,1.6,4.2c0,1.8-1.4,3-2.8,3.8c-2.2,0-4.6,1.2-6.4-0.4c-0.4,0.4-1.2,0.2-1.4,1
	c-0.2,3.4,4.6,2,5.2,5.2c0.2,2.2-2,4.2-3.6,5.2c-1.2,1-3.2,1.2-4.6,0.6c-1-0.8-2-2-3.4-1.4c-1.2,0.6-0.4,1.6,0,2.2
	c1.4,1.4,3,3.4,3.4,5.4c-0.8,2.4-2.8,3.2-4.6,4.6c-2.8,0.6-4.2-1.8-5.4-3.6c-2.4-4.2-0.4-10.4-3-14.2c-3.6,0.8,0,4.4-1,6.8
	c-0.8,5-5.8,7.8-10.2,9.2c-1.4,0.2-4.2,1-4.8-0.8c-2-7.2,0.8-13.8,3.2-20c0-0.6-0.4-1.4-1-1.6c-1.8,0.6-2.6,3.2-4,3.8
	c-1-2,0.8-7-3-6.8c-1.6,2.2-2.6,5-5,6.2c2.2-7.6-5.8-18.4,5-21.9c1.8-2.2,3.2-4.6,2.6-7.8c-3.2-1.6-7,0.4-9.8,2.6l-2.2,3.8h-0.6
	c-1.6-3.8,1.6-6.8,4-9.2c0.2-0.8-0.4-1.6-1.2-2c-2,0.2-3.4,2-5.4,2.8c0.6-8.2,12.4-7,11.6-15.8c-0.6-0.4-1-1.6-2-1.2
	c-1.8,3.4-5.4,4.8-8.8,5.2c-1.6-0.6-3-1.6-3.8-3.4c3.4-1.6,9.6-3,9.4-8.6c-0.4-1.8,1.2-5-1.6-6c-3.2,2-7.2,5.4-11.2,2.8
	c5-1.4,6.4-6,8-10.2c1.6-1.8,6.4-0.2,5.6-4.4c1.8-4,6.2-4.8,9.4-7.2l-0.4-2.6c7.2-0.2,14.2-3,17.8-9.4c1-5,2.8-11.8-0.2-16.4
	c-5.4-7.2-10.2-14.6-11.2-23.5c-0.4-0.6-0.8-0.6-1.4-0.6c-2.2,4-1.2,8.2-1.6,12.4c1.2,6.6,6.8,11.2,4.2,17.8c0-5.2-2.8-10-5.4-14.6
	c-0.8-1.8,0.4-4-1.8-5.2c-5.4,6.6-12.8,12.4-22.3,10.8c-5.2-1.6-10.4-3.8-12.6-9.2c-4.6-16.6,3.8-32.7,9.6-47.5c1.2-7,3.8-12.8,3-20
	c-0.2-6.4-2-13.2-6.4-18.2c-4.4-4-11-5.2-16.6-3.6c-8,5.2-9,15.2-8.2,23.9c-6.8-1.6-9.2-9.6-10-15.6c0.2-3.2-0.8-7.2,0.4-10.6
	l-0.2-0.8c-9.4-5.6-21.2-8.8-25.1-20.6c-1.6-6.8-2.8-15.8,4-20.6l0.4-0.4c0.8,0.6,0.2,2.2,0.8,2.8c2.4,13.4,17,19.8,28.5,23.1
	c14,4.2,30.7,10,36.3,25.5c2,4.8,3.2,9.6,2.6,15c-1,1.2,0,3-0.6,4.4c-1,17.6-12.4,30.7-14.4,47.9c-0.2,4.4-1.2,10.4,2.2,14.4
	c3.2,4.2,9.2,4,13.6,3c12.2-4.2,14-18,14.6-28.9c0-5,0.2-10.8,0.4-16.4c0.4-5.2,0.2-8.4,0.8-13.4c0.2-10.2,0.8-16.8,3.4-26.1
	c1-4,2.8-7.6,5-11c1.8-1.2,2.6-0.8,3.8,1c4.4,1.4,10,0.8,13.2-2.4c0.2-2.6,2.4-0.4,4-0.8c3.2,0.4,5.6-2.4,7.4-4.8
	c4.6-7.4,4.8-17.4,5.2-26.5c5.4-6,9-14.8,5.2-22.8c-4.2-7.2-12.6-6.8-19.8-7.6c0.2-6.8,0.2-12.4-0.8-19.2
	C184.7,231.4,187.5,237.2,192.9,240"/>
<path d="M581.8,232.8c-2.8,3.2-7.2,3.4-11.2,4.2c-4.6,0.6-9.4,1-14,1.2c1.4,3,3.8,6.6,2.8,10.6c-2.8,2.4-7,0.6-10.8,1.4
	c-1-1.2-3,0-4-1c-3.6-0.8-7.6-1-10.6-3.2c-0.2-0.6,0.2-1,0.8-1.2c7.2,1.2,14,4.2,22.2,3c1.8-3.8-4.4-7.2-1.6-10.2
	c-0.2-0.6-0.2-1.4,0.4-1.6c8.8-1,17.6-0.6,25.1-4L581.8,232.8z"/>
<path d="M111.1,236.4h6.6c0.8,0.4,0.6,1.2,0.6,1.8c-4.2,1.2-8.6-0.2-13-0.2c-4.4-1.2-10-0.4-13.4-4.2c0.8-2.2,3-0.6,4.2,0
	C100.9,235.2,105.9,236.6,111.1,236.4"/>
<path d="M119.2,240c-0.8,2.8-3,5.2-3.2,8.4c8.4,1.6,15.2-1.2,22.8-3c0.4,0.2,0.6,0.4,1,0.8c-2.6,3.2-7.8,2.6-11.6,4.2
	c-4.2,0.6-10,1.2-14.2-0.6c-0.6-4,1.4-7.8,4-10.8C118.6,238.8,119,239.6,119.2,240"/>
<path d="M573.8,247.4c0.6,0.4,0.6,1,0.6,1.6l-1,0.6l-11.2-0.2c-0.6-0.6-0.8-1.4,0.2-2L573.8,247.4L573.8,247.4z"/>
<path d="M111.7,248.4c0.4,0.2,0.6,1,0.2,1.4l-0.6,0.6h-11.2c-0.6-0.2-1.4-1.2-0.6-1.6C103.5,247.8,107.9,248.2,111.7,248.4"/>
<path d="M551.1,261.1c-8.2,1.6-16.8,1.2-23.5-3.2c-0.6-0.6-1.8-1.4-1.2-2.2c0.6-1.4,1.6,0,2.4,0.2c5.4,4,12.4,4.2,19.6,3.8
	c1-2-1.2-4.2-1-6.6c0.6-0.6,1.2-0.6,1.8,0C550.3,255.5,551.1,258.5,551.1,261.1"/>
<path d="M126.6,254.3c-0.2,2.2-1,4-1.4,5.8c7.6,1.6,15.6-0.2,22-4.2c0.6,0.4,0.8,1.2,0.6,2c-6.6,4.4-14.6,5.6-22.8,4.4
	c-1,0.2-2.2-0.2-2.4-1c1.6-2.4,1-5.4,2.6-7.8C125.8,253.5,126.4,253.9,126.6,254.3"/>
<path d="M567.8,258.1c0.4,0.4,0.8,1.2,0.2,1.6c-4.2,1-9.8,0.2-14.4,0.2c-0.4-0.4-0.8-0.8-0.6-1.4l1-0.6L567.8,258.1z"/>
<path d="M120.4,258.9c0.2,0.4,0.4,1,0.2,1.4c-4.8,1-9.8,0.6-14.4,0.4c-0.6-0.4-0.8-1-0.4-1.4l0.8-0.6L120.4,258.9z"/>
<path d="M538.1,269.3c1.4-1.6-0.8-5.2,2-5c1,1.6,0.4,4,0.6,6c-2,2.2-6.2,0.8-8.6,1.2c-4.8-1.6-9.2-4-12.8-7.6c0-2,2-0.4,3-0.2
	C527.1,266.5,532.3,270.7,538.1,269.3"/>
<path d="M154.8,264.7c-2.2,3-6.2,3.8-9,6c-3.4,1.2-7.2,1.8-10.8,1.6c-3-0.8-1.4-4.8-1.6-7c0.4-0.4,1-0.6,1.6-0.2
	c1.4,2-1.4,6.2,3.2,5.6c5.8-1,10.6-4.2,15.4-7.4C154.4,263.3,154.6,264.1,154.8,264.7"/>
<path d="M557.5,268.7c0.4,0.6-0.4,1.2-0.8,1.4l-11-3.6c-0.8-0.8-1.2-2,0-2.4C549.7,265.5,553.9,266.5,557.5,268.7"/>
<path d="M520.5,275.9c2,1.6,4.8,1.6,7.6,1.6c1.2-1.6-1.2-5.8,2-5.6c1,2,0.2,4.8,0.4,7.4l-1,1.2c2.4,2.4,5.6,4,8.8,5
	c0.6,0.2,0.4,1.2,0.2,1.4c-4.2,0.4-8.2-2.2-11-5.4l0.6-1.6c-5.4,0-10-2-13.8-5.8c-2.4-2.2-5.4-5.4-7.2-8.4l0.8-1.4
	C512.8,267.7,515.4,273.1,520.5,275.9"/>
<path d="M129,265.9c-3,3.2-7.8,3.4-11.8,4.8l-1-1c3.4-2.4,7.8-2.8,11.6-4.8C128.4,264.9,128.8,265.3,129,265.9"/>
<path d="M166.7,265.7c-2.6,5.6-7.4,10-12.8,13.2c-2.6,1.2-5.4,1.4-8.2,1.8c0.6,0.6,0.8,1.8,0.4,2.6c-3.4,1.6-6.4,5.2-10.6,4.6
	c-0.4-0.4-0.8-1-0.2-1.4c3.2-1.6,6.4-2.8,9.2-5.2c-3.6-1.8,0.2-5.4-1-8.2c0.2-0.4,0.6-0.6,1.2-0.6c1.4,1.4,0.4,3.6,0.8,5.2
	c8.8,1.8,14.8-7,20-12.8C165.9,264.9,166.5,265.1,166.7,265.7"/>
<path d="M508,280.3c2.6,1.8,5.8,3.2,8.6,2.8c1-1-0.6-4.4,2-3.4l0.6,0.8l-0.4,4.6c-5.2,1.4-10-0.6-13.6-4c-3.2-4.2-6.2-8-8-12.8
	c0.4-0.8,1.6-1.2,1.8-0.2C501.4,272.7,504.4,276.5,508,280.3"/>
<path d="M176.5,270.7c-3.8,6.8-9.4,15-18,15.6c-1.2-0.4-3.6,0.8-4-1.4c0.2-1.6-0.8-3.8,0.8-4.8c2.8,0.2-0.4,5.6,3.8,4
	c8.4-1.2,12.4-10,16.8-16C176.9,268.3,177.3,269.7,176.5,270.7"/>
<path d="M497,282.7c1.8,1.2,4,1.4,6.2,1.2c0.8-0.4,1.2-1.8,2.2-1.2c1.2,0.6,0.4,1.6,0,2.2c-2.8,2.6-6.8,0.6-9.8,0
	c-0.6,2.2-2.8,0.6-4.4,1.4c0.4,4,2.2,7.8,2.8,11.8c-0.4,0.4-1,0.6-1.6,0.6l-4.2-13c-1.6-1.4-4.6-2.6-4.6-4.6
	c2.4-1.2,3.6,2.2,5.8,2.4c1.4,0.6,3.2,0.6,4.6,0c-3.2-4-6-8.2-7-13.2c0.8-1.6,2,0,2.6,0.8C490.8,275.7,493.4,279.5,497,282.7"/>
<path d="M186.7,271.5c-1.2,4.6-3.8,8.6-6.6,12.6c3.6,2,6.8-1,9.4-3c0.6,0.2,1.2,0.8,1,1.6c-1.2,2.6-5.6,2.4-5.4,6
	c-1.2,3.6-1.2,8-3.6,10.6c-0.8,0.4-1-0.4-1.4-0.8l3.2-11.6c-1.8-1-4.2,0.8-5.2-1.6c-3,0.8-7,2.4-9.6,0c-0.4-0.4-0.6-1.6,0-2.2
	c1.4-1,1.4,1.4,2.6,1.4c2.4,0,4.6,0,6.4-1.4c4-3.6,5.4-8.4,7.6-12.8C185.9,269.9,186.7,270.7,186.7,271.5"/>
<path d="M549.3,276.5c0.2,0.8-0.2,1.2-0.8,1.6c-3-0.6-5.8-2.2-8.4-4l0.8-1.4C543.9,273.3,546.5,275.1,549.3,276.5"/>
<path d="M133.8,274.5c-2.2,2.2-5.6,4.4-9,4c-0.4-0.4-0.4-1,0-1.4l7.6-3.4C133,273.7,134,273.7,133.8,274.5"/>
<path class="st2" d="M373.1,277.7c-0.2,1-1.8,1.2-2.8,1.4c-2.4,0-5,0-6.2-2.2c0.4-1-1-1.6,0-2.6
	C367.3,273.9,371.5,274.1,373.1,277.7"/>
<path class="st2" d="M310,274.3c-0.2,1.6-0.2,3.8-2.2,4.4c-2,1-4.8,0.6-6.6-0.4C302,274.5,306.4,273.5,310,274.3"/>
<path class="st2" d="M319,277.5l-0.2,2c-1-1-2.2-1.2-3.6-1.8c-0.6,0.6-1.4,0.6-2.2,0.6c-0.2-1.4,0.6-2.8,0.8-4.2
	C315.6,275.1,318.2,275.1,319,277.5"/>
<path class="st2" d="M360.5,278.1c-1.8-1.4-4,0.2-4.8,1.4c-0.8-1.4-0.4-2.8,0.6-3.8l4.2-1.6C359.9,275.7,361.7,277.3,360.5,278.1"/>
<path d="M529.1,293.5c0.2,0.6-0.4,1-0.8,1.4c-4.2-0.8-6.2-5-8-8.4c1.4-2.2,2.8,1.2,3.8,2C525.7,290.3,527.3,291.9,529.1,293.5"/>
<path d="M152,290.5c-1.2,2.4-4,4.6-6.4,5c-1-0.2-0.8-1.4-0.2-1.8c3.4-1.6,4.8-5.4,7.6-7.2C155.2,287.7,152.2,289.3,152,290.5"/>
<path d="M514.6,293.9c0,2.6,5.6,4,2.6,6.2c-4.8-2.8-6.2-8.2-8-12.8c0-0.8,1.4-1.2,1.8-0.6C512.8,288.9,512.6,291.9,514.6,293.9"/>
<path d="M164.9,288.5c-1.4,4.4-4,8.8-7.2,12.2c-0.6-0.2-1.4,0.2-1.8-0.6v-0.8c3.6-3.4,5.2-8,7.6-12.4
	C164.5,286.7,164.7,287.7,164.9,288.5"/>
<path d="M501.2,291.9c1,2.6,1.6,5.2,3.8,7.4c0.4,0.8,0,1.6-0.8,1.8c-4-2.6-5.4-7.8-6.4-12.4C499.8,284.7,500,290.7,501.2,291.9"/>
<path d="M176.5,288.7c-1,4.6-2.4,8.8-5.2,12.4c-0.8,0.6-2.2,1-2.2-0.4c2.4-4,4.4-8.2,5.8-12.6C175.5,287.9,176.3,288.1,176.5,288.7"
	/>
<path class="st2" d="M253.5,290.5c-2,2.2,2.6,4.4,0.2,7.2c0,1.2,1.2,2,0.4,3.2c-4.8-1.6-6.6-7.8-7.4-12.6
	C249.1,288.9,251.3,289.7,253.5,290.5"/>
<path class="st2" d="M325.8,291.5c0,0.8,0.4,2-0.6,2.2c-0.8-1.4-2.2-1-3.2-1.6c-0.6,0.8-1.4,0.4-2,0.6l0.2-4
	C322.2,289.3,324.8,289.1,325.8,291.5"/>
<path class="st2" d="M354.3,292.5c-2-0.6-3.8-0.4-5.4,1.2c-1-1-0.4-2.4,0-3.4c1.4-1,3.2-1.6,4.8-1.6L354.3,292.5z"/>
<path class="st2" d="M410,302.8c0.6-2.6,1-5.2,3-7.2c-0.2-0.8-0.2-1.4-1-1.8c-9,1.6-5.6,14.4-15.4,14.6c-0.6-3.4-0.2-7,2.6-9.4
	l0.2-2c5.8-2.4,12-3.6,17.8-5.6C411.6,293.5,416,301.6,410,302.8"/>
<path class="st2" d="M274.5,297.2c0.2,1.8,2.2,3,2.6,4.8l0.8,6.8c-10-0.4-7-13.2-16-14.8c-2,1.8,1,3.8,1.6,5.6l0.6,3.6
	c-1.8-0.2-2.8-1.6-3.4-3c-0.6-3.2,0-6.2-3.4-8.2C262.9,294.3,269.1,294.7,274.5,297.2"/>
<path d="M461.5,300c3.2,0,5.8-1.8,8.2-4.2c0.8-0.2,1,0.4,1.4,0.8c-1.4,3.4-5.4,5.2-9,5.6c-0.8-0.6-1.8,0-2.4,0.2
	c0.6,2.2,2.8,4.2,4.8,5.2c4.2,0.6,7.8,0.4,12,0c0.6,0.2,0.6,1.2,0.2,1.6l-1,0.8h-11c-0.6,2,1.8,3.8,3.2,4.6
	c3.2,0.8,6.8,1.8,10.2,0.6c0.2,0.2,1,0.6,0.8,1c-3.4,3.2-8.6,1-12.8,0c-5.4-1.6-2.4-8-7.4-10.4c-2.2-2.8-2.8-6.4-3.8-9.8l1-1.2
	C458.1,295.8,458.7,299.2,461.5,300"/>
<path d="M217,303.4c-1.2,3-4.8,4.8-4.8,8c-0.8,2.8-2.8,4.8-5.2,5.8c-3.8,1.4-8.8,1.8-11.8-0.2c0-2.8,2.2,0,3.6-0.8
	c4-0.8,9.4-0.2,11-4.8v-0.6c-4.2-0.8-9.6,1-12.8-1.6c-0.2-0.6,0.6-1.2,1-1.2c3.6,0.8,7.4,0.4,10.8,0.2c2.6-0.8,5-3,5.6-5.6
	c-4.4,0.2-9.6-1.2-11.6-5.4c2-1.8,4.4,2.2,7,2.8c1,0.6,2.8,0.6,4,0c1.4-1.2,2.6-3.6,4-4.8C220.6,297.6,217.6,300.8,217,303.4"/>
<path class="st2" d="M316.6,305l-0.4,2.4c-1,0.2-1.2-1.6-2.4-1.8h-3l1.6-3.8C314,302.6,316,303,316.6,305"/>
<path class="st2" d="M363.7,305.8c-1.8-0.2-4.4-0.6-5.8,1.4c-0.4-1.2-0.6-2.4,0.2-3.4c1.6-0.4,2.6-2,4.2-2L363.7,305.8z"/>
<path d="M578.8,320.2c0.2,1.2,0.8,3.2-0.6,4c-2.4,0-0.8-3-1.8-4.2c-1.6-5.8-8.2-7.6-12.8-10c1-3.4,4,0.4,6.2,0.2
	C574,312,577.6,315.8,578.8,320.2"/>
<path d="M110.1,310.4c-1.4,2.4-4.8,2.2-7,3.8c-3.2,2.4-6.2,6-6,10.4c-0.4,0.4-0.8,0.6-1.4,0.4c-1.6-2.2,0.4-4,0.4-6.2
	c2.4-5.6,8.2-8.8,13.8-9L110.1,310.4z"/>
<path class="st4" d="M398,333.6c-7.8,6.2-17.8,9.8-27.5,6c-1.2-4.4,0.2-8.8,2.2-12.6c2.8-4,8-4,12.2-5.4l9.6,0.6
	c3.6-1.2,7-2.2,10.2-4C405.2,324,402,329.4,398,333.6"/>
<path class="st4" d="M289.7,321.6c4.6,1,10,1.8,13,5.8c1.6,3.8,2.4,7.8,2.6,12.2c-3,0.8-6.2,1.2-9.2,1.8
	c-9.8-0.6-18.6-5.4-24.1-13.4c-0.4-2-1.4-4-1.2-5.8c3.8,5.2,10.4,9.8,17,9.2c4.2-1.6,7.6,0.8,11.2,2.8c2.6,0.2,2.6,7.8,5.2,2.8
	c-1.6-4.6-5.8-6.2-9.6-8.2c-5.8-0.2-12.6,1-17-3c-2.2-1.8-4-6-6.8-4.6v-2.6C276.5,320.8,282.7,323.6,289.7,321.6"/>
<path d="M403.8,321.6c-3.6,5.6-10,10.4-17.2,9.4c-6.4-1.4-10.6,2.8-14.4,7.4c-0.4-0.2-1-0.4-1.2-1c1-5,6.2-6.2,10-8.6
	c8.2,0.8,16.4-0.4,20.8-8C402.6,320.6,403.6,320.8,403.8,321.6"/>
<path class="st4" d="M432.5,336.4c-2,2.2-6,1.6-8,4.4c-2.2,5.2-6.2,10.6-12.2,11.4c-4,0.4-8.8,0.4-11.6-2.8c-2.4-1.2-2.8-4-4.6-5.6
	c6.4-2.6,10.4-7.8,16.8-10.8c2.8,0,6-1.6,9.2-0.6C426,333,429.9,333.2,432.5,336.4"/>
<path class="st4" d="M269.9,338.4c2.6,2.4,5.6,4,8.8,5.4c-1.2,2.4-3,4.8-5,6.4c-4,3.6-10.2,3-14.6,1.4c-5.2-2-6-7.6-9.4-11.2
	L243,337c0.2-2.8,3.6-2,5.2-3.6C255.9,331.6,264.3,332.2,269.9,338.4"/>
<path class="st3" d="M344.7,335.2c-3.2,0.6-6.2,1.8-9.6,0.6c-1.6,0.4-3.4-0.8-5-0.4c1-1.2,4.2-1,6-2
	C339.1,334,341.9,334.2,344.7,335.2"/>
<path d="M426.8,335.4c-1.6,2.4-5.8,0.6-8,2.4c-3.6,3.6-7.4,12.4-14.2,9.2c-1,0.2-2.2-0.4-3-1c0-3.6,4,0.4,6.4-0.6
	c6-1.4,5.8-9.6,12.2-10.2C422.4,335.2,425.6,333.6,426.8,335.4"/>
<path d="M258.3,337c2.4,3,4.8,6.6,8.2,8.6c2.6,0.8,5.4-1.6,7.2,0c-1.4,2.2-5.2,2.2-7.8,2.2c-6.8-3-8.4-13.4-17.2-10.8
	c-0.4-0.6-0.6-2,0.4-2C252.5,335,255.7,335.4,258.3,337"/>
<path class="st3" d="M351.1,344.9c-0.2,3-2.2,5.2-3.4,7.8l1,0.8c2.6-1.8,5-4,8-5.4c3.2-0.2,6.6,0.2,8.8,2.2c4.2,4,6.2,9,6,15
	c-1.2,3.6-3.8,7.2-7.8,8c-2.8,0.4-6,1-8.6-0.4c-0.4,0-0.8,0.6-1,0.8c3.4,3.2,8.6,6.2,9.2,11.8c-0.8,5.6-6.6,10.4-11.8,11.6
	c2-6.2,13-4,10.4-13c-1-0.4-0.2-2-1.6-2.2c-0.8,2.6-1,6-4.4,6c-5.6-0.2-6.2,10-12.6,5.8c-1.4,1.2,0.6,2.2,1.2,2.8l1.6,1.2
	c-1.6,0.4-3.2-1.2-4.8-2.4c-2.8-2.8-2.8-6.8-4.2-10c-1.4-0.2-0.8,1.4-1.4,2c-0.6,3.6-2.2,6.6-5.2,9c-6,2.6-12.4,0.2-17-4.4
	c-2.8-2.2-2.8-5.2-3.4-8.2c0-3.6,3-6.2,5.6-8c1.4-1.2,4-0.4,4.4-2.8c-2.2-1-4.4-0.2-7-0.6c-3.4-1.4-8-2.6-8.8-7c-0.2-1.4-1-3,0-4.2
	c-0.2-3.6,1.4-7.4,4-9.6c-0.2,4-1.8,7.8-3.2,11.4c-0.4,3.2,1.6,5.4,4,7.2c0.6,0.2,1.6,0,1.4-0.8c-1.2-1.4-1.8-2.8-1.8-4.6
	c0.8-2,2.6-3.2,3.2-5c3.2,2.8,6.8,4.6,10,7c-1.2,2-1.2,5.2,0,7.2l3,3.2c-0.8,4-2.2,7.4-3.6,11c-2.4-1.6-6-1.4-7.4-4.4
	c-0.8-1,0.8-2.6-0.8-2.8c-1.6,1.2-2,3.6-1.6,5.6c3.6,4.2,9,6.4,12.6,10.2c2.6,0.4,5-0.8,6.2-2.8c-0.6-1.8-2.4,0.2-3.4-0.4
	c-2-0.8-3.8-2.4-4.6-4.4l9.2-6.8c2.2,1.2,5,2.2,8.2,1.6l2.8-1.4c3.4,1.8,6.4,4.4,9.8,6l0.4-0.6l-3-10c3.2-2,4.2-5.4,4-9l-0.6-2.2
	c2.8-3,6.8-3.6,8.6-7.2l-0.6-0.6c-3.8-0.6-11,2.8-11.6-3c-1.8-2.4-4.4-3.6-7.8-3c-1.4-4.2-2.8-7.8-4.2-11.8c-1.8,3.6-2.6,7.4-4,11
	c-2.6,0.4-5.4,0.6-7.2,2.8c-0.4,1.4-2,2.2-2,3.8c-4,0.8-8,0.4-12,0.4c-0.4-3-0.4-6.4,2.2-8.4c0.6-0.2,1.6,0.4,2-0.6
	c-0.8-2.4-3.6-0.4-5.6-1c2.2-2,6-1.8,8.8-0.8s3.8,4.2,6.8,5l0.6-0.6c-2.6-4.4-3.4-11,0-15c-0.6,1.4-0.6,2.8,0,4.4
	c1.6,0.2,1.6-2.2,3.2-2.6c2.8-0.4,5.2,1.2,7.8,1.4c2.8-0.4,6-2.8,8.6-0.4c0.4,0.8,1,2,2,1.4c0-1.6-0.4-3.6-1-5
	C349.9,339.1,350.9,341.9,351.1,344.9"/>
<path class="st4" d="M320.4,343.1c-1-0.2-2.4,0.6-3-0.6l0.2-1.8C318.6,341.5,320.6,341.4,320.4,343.1"/>
<path class="st5" d="M320.4,343.1c-1-0.2-2.4,0.6-3-0.6l0.2-1.8C318.6,341.5,320.6,341.4,320.4,343.1z"/>
<path class="st4" d="M356.9,343.9l-1.4,0.2c-0.6-0.2-0.4-1.6-0.2-2.2l1.4-1.2C357.3,341.4,357.5,342.9,356.9,343.9"/>
<path class="st5" d="M356.9,343.9l-1.4,0.2c-0.6-0.2-0.4-1.6-0.2-2.2l1.4-1.2C357.3,341.4,357.5,342.9,356.9,343.9z"/>
<path class="st4" d="M300.8,348.9c0.4,10.8-8.4,19.6-17.4,24.3c-3.4,0-6.2,2.8-9.8,1c-1.8,0.4-3.4-0.8-5.2-1.4v-0.6l6.8-7.4
	c2.4-5.6,3.6-12,8.8-16C288.5,344.7,296,346.1,300.8,348.9"/>
<path class="st4" d="M396.4,354.9c1.6,6.6,4.8,13,10.6,17.6c-2.2,2-6,1.2-8.8,2.2c-7.4-1.4-14.4-5.2-19-12c-3.2-4-4.2-9.6-4.8-14.4
	c5.2-2.2,12.6-3.4,17.2,0.8L396.4,354.9z"/>
<path d="M390.6,359.1c0.6,6.6,8.2,10.6,13.6,12.6c0,1-0.8,1.4-1.6,1.4c-6.8-2.2-13.4-7.2-14.6-14.6c-1.8-5.2-7.6-6.4-11.8-8.6
	c1.2-2.4,4.4,0,6.4,0.2C385.6,352.5,389.8,354.9,390.6,359.1"/>
<path d="M298.8,349.7c-1.2,2.2-4.4,1.4-6,3.2c-7.2,2.8-5.8,11.8-11.8,15.8c-2.6,2.6-6.2,4-9.8,4.6c-0.6-0.2-0.6-0.8-0.6-1.4
	c3-1.6,6.4-2.6,9.2-4.6c6.2-4.8,4.2-14.2,13-17C294.6,349.9,297.4,348.1,298.8,349.7"/>
<path d="M366.5,352.3c0,4.6,1.6,8.6,3.4,12.2c0.8,2.8-1.2,4.8-3.2,6c-0.6,0-1,0.4-1.4,0c3.6-3.6-1-7.2-2-10.6c-1-3,0.6-8.4-4.2-8.8
	c1.2-1.6,4-1.2,6-0.4L366.5,352.3z"/>
<path class="st2" d="M459.1,350.9c4.6,3.2,9.4,7.6,10,13.4c0.2,6.4,0.6,12,3.2,17.6c-0.4,1.2-1.6,0.4-2.6,0.8
	c-8.4,1.6-16.2,4.6-23.9,7.2l-1.4,1c-1.4,10,0,20.4,3,29.3c-0.6,2.8-0.2,6-2.4,7.8c-1.6-1.6-3.2-2.8-5-4c-1.4,2.2,1.2,4.2-0.2,6.4
	c-0.8,4.8-4.8,8.4-9.2,9.6c-0.6-2-2.2-3.8-3.4-5.8c0.8-2.4,6-2.4,5-5.8c-3.6-1-6.8,0.8-10.4,0.4c-7.6,1.2-13.8,5.2-22.2,4.4
	c-2.2-1.6,0.4-3.6-0.4-5.4c-3.4,0.2-6.6,1.4-8.6,4.4c-1.8,7-10,4.8-14.4,8.4c-2.2-2-2.8-5.2-3.8-8c0.4-3,4-3,6.2-4
	c2-2.8,6.6-4.8,6.2-8.8c-5-0.8-8.2,5-13.4,5.2c-2.2,0-4.2,0.8-6-0.4c0.6-2.8-1-5.6,0.6-8.2c8.6-0.8,17.2-0.4,25.7-1c3,1,5.8,3,9,4.2
	c5.4,1.6,11.8,3.6,18,1.8c4-1.4,8.2-2.6,12-4.6c-6.8-11.6-14.8-25.3-10-38.9c1-5.2,2.4-11.4,8-14.4v-1.4c-3-1-5.8,0.6-9.2,0
	c3-1,6.2-0.6,9-2.2c0-2.2-3-1.8-4.2-3.4C436.1,355.9,447.5,352.7,459.1,350.9"/>
<path class="st2" d="M250.5,356.7l-4.8,2.8c2,2.2,5.6,2.4,8.6,2.6c-2.4,2-7.6-2.4-9,1.8c9,4.6,7.8,15,10,23.4
	c-0.6,11-6.8,20.6-12,29.9c6,2.8,12.4,5.2,19.8,5.2c6.8-1.6,13.4-3,19.2-7c8.2,1.2,17.6-0.2,26.1,1.2c2,2.4-0.8,5,0.4,8
	c-2.4,2.2-5-0.4-7.6,0l-9.2-5c-1.2,0-2.6,0.2-2.4,1.6c2,4.8,7.2,8.4,12.2,9.8c0.6,3.8-1.2,7-3.2,9.8c-2.8-1.2-3.8-3-7.2-2.6
	c-8.4,0.8-7.2-11.4-16.2-10.2c-1,1.4,2,3,0.2,4.6c-4.4,2-9-0.4-13.6-0.6c-5.6-3.6-12.8-2.6-19-3.4c-1,0.2-1,1.6-0.4,2l5.2,3.4
	c-1,2.6-3.8,3.8-4,6.6c-4.2-1.4-8.4-5.2-9-10c-1.2-2,1-4.2,0.2-6c-2.2,0-3.4,2.6-5.2,3.8c-4-4.8-1.8-11.6-0.4-17.2
	c2.2-5.2,0.4-12.2,1-17.6c0.2-2.4-1.8-4-3.8-4.2c-8-2.8-15.8-5.4-24.3-6.6c2.6-7,3-14.4,4-22c1.8-4,5.4-6.8,8.8-9.8l27.1,5.4
	L250.5,356.7z"/>
<path class="st3" d="M337.9,354.7c-0.6-0.2-1-0.8-0.6-1.4C338.1,353.3,337.7,354.1,337.9,354.7"/>
<path class="st6" d="M337.9,354.7c-0.6-0.2-1-0.8-0.6-1.4C338.1,353.3,337.7,354.1,337.9,354.7z"/>
<path class="st2" d="M336.8,360.1c3.2-0.4,4-5,7.8-3.4c1.2,0.6,2.2,1.4,2.6,2.8c0.4,2.4-2.2,3.8-3.2,5.8c2,1.2,4.6,1.6,6.2,4
	c0,1.8,0,3.2-1.2,4.4c-2.2,2.6-4.8-1-7,1.4c-0.4,2-1,4.4-3.2,5c-1.4,0.8-2.8,0.2-4-0.6c-1-1.6-1.6-3.8-1.6-5.4c-2.4-0.8-5,1-7.2-1
	c-1-1.4-1.8-3.8,0-5.4c1-2,7.2-1.4,3.8-4.6c-1.6-0.8-2.2-2.6-1.6-4.4c1.4-1.4,3.4-3.8,5.6-2C335.2,357.1,336.2,358.7,336.8,360.1"/>
<path d="M342.3,365.3c0.6,1.6,0.4,4.4,0,5.8c-1.8,1.6-4.4,2-7,1.6c-2.2-1.4-3.6-3.2-3.4-5.8c0.6-2.2,2.6-4.4,5-4.8
	C338.9,362.5,341.7,362.9,342.3,365.3"/>
<path class="st3" d="M325.2,363.3c-0.4,0.4-1,0.2-1.4-0.2l-0.4-0.4C324,362.3,325,362.5,325.2,363.3"/>
<path class="st6" d="M325.2,363.3c-0.4,0.4-1,0.2-1.4-0.2l-0.4-0.4C324,362.3,325,362.5,325.2,363.3z"/>
<path class="st3" d="M351.7,362.7c-0.2,0.6-1,1.2-1.6,1.2C349.9,362.9,350.9,362.5,351.7,362.7"/>
<path class="st6" d="M351.7,362.7c-0.2,0.6-1,1.2-1.6,1.2C349.9,362.9,350.9,362.5,351.7,362.7z"/>
<path d="M443.3,363.9c-1.2,2.6-4.6,1.6-6.6,2.8c-5.6,2.2-9.4,8-10,13.6c-1,5.2,0,9.8,2.6,14c0,0.6-0.6,1.2-1.2,1.6
	c-4.4-5-5.2-14-2.6-20.6c1.8-7.4,10-11,16.4-12.4C442.5,362.9,443.1,363.3,443.3,363.9"/>
<path d="M247.3,372.3c2.8,5.6,3.8,14,1.2,20.2c-0.8,1.2-1,3.4-3,3.8l-0.8-1c4-5.4,4.6-15.6,0.8-21.6c-3.2-5.4-9-7.2-14.2-8.6
	c-0.8-0.6-0.4-1.6,0.4-1.8C237.8,364.1,244.2,366.5,247.3,372.3"/>
<path class="st2" d="M339.5,368.1c-0.6,0.8-0.8,1.2-1.6,1.4c-1-0.2-2.4-0.6-2.4-1.8c0.2-0.8,0.8-2,2-2
	C338.7,365.5,339.5,366.9,339.5,368.1"/>
<path d="M492.4,380.9c-2.2,10.4-12.4,16.8-13.8,27.5c0.8,2.2,1.6,5,4.2,5.8c0.8-3.2,1.2-6.6,3.2-9c0.6-0.4,1,0.4,1.2,0.8
	c-0.4,3.4-3,6.4-1.6,10c2,2.6,4.4,4.6,7.2,4.8c0.2,0.4,0.4,0.8,0.2,1.2c-2,1.4-4.2-0.2-5.8-1c-2.8-1.4-3.2-6-7-5.2
	c-2.4-2.2-3.4-5-3.8-8c2-12.4,15-20.4,15.2-33.5l0.8-0.6C495,375.3,492.4,378.7,492.4,380.9"/>
<path d="M183.7,379.7c1.4,11.8,15.2,18.4,14,30.9c-0.8,2.4-2,4.4-3.8,5.8c-4,0.4-5.2,5.6-9,6.8c-1.4-0.2-2.4,0.4-3.4-0.6
	c-0.2-2.2,2.4-1,3.4-1.8c1.2-1.6,3.8-2.6,4.2-4.8c1-3.8-2.2-6.2-2.4-9.6c0.2-0.6,0.8-0.6,1.4-0.6c1.8,2.6,3,5.2,3,8.4
	c0.8,1,1.4-0.2,2.2,0c1.6-2.2,3.2-4.6,2.4-7.2c-3.6-11.2-14.6-18.2-14.6-30.5c-0.8-0.6-0.4-1.8,0.6-2
	C183.5,375.1,183.3,377.9,183.7,379.7"/>
<path class="st4" d="M308.4,375.7c-0.4,0.8-0.4,2.8-2,2.4c-0.4,0-0.8,0-1-0.4C306,376.5,307.4,375.7,308.4,375.7"/>
<path class="st5" d="M308.4,375.7c-0.4,0.8-0.4,2.8-2,2.4c-0.4,0-0.8,0-1-0.4C306,376.5,307.4,375.7,308.4,375.7z"/>
<path class="st4" d="M369.3,379.3c-1.4-0.2-3.2,0-3.8-1.4C366.9,376.3,369.1,377.5,369.3,379.3"/>
<path class="st5" d="M369.3,379.3c-1.4-0.2-3.2,0-3.8-1.4C366.9,376.3,369.1,377.5,369.3,379.3z"/>
<path class="st3" d="M330.2,378.1c-0.2,0.8-1.2,1.2-1.8,1.6c-0.4-0.6,0.2-1.2,0.6-1.8C329.4,377.9,329.8,377.7,330.2,378.1"/>
<path class="st6" d="M330.2,378.1c-0.2,0.8-1.2,1.2-1.8,1.6c-0.4-0.6,0.2-1.2,0.6-1.8C329.4,377.9,329.8,377.7,330.2,378.1z"/>
<path class="st3" d="M346.3,379.7v0.2c-0.8,0.2-1.6-0.6-1.2-1.6C346.1,377.9,346.1,379.1,346.3,379.7"/>
<path class="st6" d="M346.3,379.7v0.2c-0.8,0.2-1.6-0.6-1.2-1.6C346.1,377.9,346.1,379.1,346.3,379.7z"/>
<path d="M434.5,386.3c-0.4,2.6,3,5,1.2,7.6c-2.8-1-2.8-4.2-3.4-6.6c0.2-2.2,0-5.2,2.2-6.4C436.7,382.1,434.5,384.5,434.5,386.3"/>
<path d="M241.8,389c-0.8,2-1.2,4.6-3.4,5.2c-2.8-1.6,1.4-3.6,1.2-5.6c0.4-2.4-0.2-4.6-0.8-6.8c0.6-0.6,1.8-0.8,2.2,0.2
	C242.6,383.9,241.6,386.8,241.8,389"/>
<path class="st4" d="M337.5,398.6l-0.8,2c-0.4-0.8-2-2.4-0.6-3.8C336.6,397.2,337.5,397.8,337.5,398.6"/>
<path class="st5" d="M337.5,398.6l-0.8,2c-0.4-0.8-2-2.4-0.6-3.8C336.6,397.2,337.5,397.8,337.5,398.6z"/>
<path class="st2" d="M307.2,405.6l-0.2,1c-1.6-1.4-3.6,0.6-5.2,1.2c-0.4-0.6-1-2.4-0.8-3.8C303,403,306.6,402.8,307.2,405.6"/>
<path class="st2" d="M373.7,404c-0.8,1.2,0,3.2-0.8,4.2c-1-1.4-2.2-2-3.8-2.2c-0.6,0.4-1,0.8-1.8,1c-1-2.4,1.8-3,3-3.6
	C371.7,402.8,372.3,404.4,373.7,404"/>
<path class="st2" d="M388,411.2l-0.6,0.6H377c-1-0.6-0.4-2.2-1.2-3c1-1.6,0.2-3.4,1.8-4.6C382.1,404.6,384.8,408.4,388,411.2"/>
<path class="st2" d="M298.6,407.2L298,412c-3.8-0.2-8,0.2-11.8-0.4c2.4-3,5.8-5.4,8.8-7.2C297.6,403.4,297.6,406,298.6,407.2"/>
<path class="st2" d="M319.2,417.6v1.6c-1.8-1.8-4.2,1-5.6-0.2c0.4-1.6-1-3.6,0.6-4.2C316,415.4,318.4,415.6,319.2,417.6"/>
<path class="st2" d="M361.5,415c-0.4,1.4-0.2,3.2-0.2,4.6c-1.8-0.2-4.4-2.6-5.8,0c-0.2-1-0.6-2.2,0.4-3.2
	C357.5,415.4,359.7,415.2,361.5,415"/>
<path class="st2" d="M312,434.1c-0.2,0.8,0.4,1.8-0.4,2.2c-0.6-0.4-1.6-1.4-2.8-1.6l-2.6,0.6c0-1.4,0.6-3.2,1.2-4.4
	C308.6,432.5,312,431.3,312,434.1"/>
<path class="st2" d="M368.7,434.9c-1.8,0.2-4-0.6-5.4,1.2c-1.2-1.2-0.4-2.4,0.4-3.8c1.4-0.4,2.6-1.2,4.2-1.4L368.7,434.9z"/>
<path class="st2" d="M425.4,433.9c0.4,3.2-2.2,6-4.8,8c-0.4-1.6-1.2-4-3.4-4.6c-1,0.2-2.6,0.4-2.8,2c-0.6,2-0.8,5-3.4,5.4
	c-0.4,0.4-1,0.2-1.6,0.2c0.6-2.4-1.2-3.8-1.4-5.8C414,438.1,419.2,434.5,425.4,433.9"/>
<path class="st2" d="M266.5,439.3c0.2,2-2.6,4-1,6.2c-1.4-0.2-3.2-0.8-4.4-2.2c-1.2-1.8-0.2-4.8-2.8-5.8c-1.8,0.4-3,1.6-3.8,3.2
	c-0.2,0.6,0.4,1.4-0.4,1.8c-2.4-2-5-4.6-4.6-8c5.2,0,9.6,3.4,14.8,4.2L266.5,439.3z"/>
<path class="st2" d="M402.4,438.9c-0.6,3.8-2,8.4-6,10c-2,0.2-4,0-5-1.8c-0.4-4.6,2.2-8,4-11.6C397.8,436.5,399.4,440.3,402.4,438.9
	"/>
<path class="st2" d="M283.5,446.5c-0.6,1.2-1.4,3-2.8,2.8c-2.8,0.6-4.8-1.4-6-3.2c-1.4-2.2-2.2-4.6-2.4-7c3.2,1.2,4.4-1.8,6.6-3.4
	C281.5,438.5,283.1,442.7,283.5,446.5"/>
<path class="st2" d="M282.1,492c9.2,13.2,16.2,27.7,24.3,41.5c1.2,1.8,0,3.8-0.4,5.4c-1.4,1.8-3.4,3.2-5.8,3.4
	c-2.4,0.4-3.8-1.6-4.8-3.4c-0.4-2.4-1.8-4.8-3.4-6.6c-0.6-0.2-1.2,0.6-1.4,1c0.8,3.6,3.4,6.2,4,9.8c-0.6,1.6-1.8,3.2-3.4,3.4
	c-2,0.6-3.8-0.4-5.2-1.4c-1.4-2.8-0.2-6.8-2.6-8.8c-0.6-0.2-1.2,0.2-1.4,0.8c-0.6,3.6,3.6,8-1.4,10c-1.2,1.4-3.2,1-4.6,0.8
	c-1.4-1-4.4-2.6-3.4-4.4c0.2-2.2,0.8-4.2,1-6.4c-0.4-0.4-0.8-1.2-1.6-0.8c-1.8,0.6-0.2,2.8-1.2,3.8c-0.8,2.4-0.2,5.6-3.2,6.6
	c-2.2,0.2-4-0.4-5.4-1.6c-2-4.4,2.4-7.6,2.6-11.8c-0.4-0.4-0.8-1.2-1.6-0.8c-3.6,3-2,11.8-9,9.8c-2-0.8-4.8-2.4-5.2-4.8v-4
	c7.8-13.4,15.2-27.3,23.5-40.3C274.5,490.6,279.7,488.2,282.1,492"/>
<path d="M289.1,512.8c0,0.6-0.4,1.2-1,1.4c-2-0.8-2-3.6-3.4-5.2c-2.4-2.8-3.4-6.4-7-8.4c-3.6,2.6-4.2,7.4-6.8,10.6
	c-0.6,0.2-1.2,0-1.4-0.6c1.8-4.4,3.4-9.2,7.4-12.2C283.3,499.6,286.1,507.4,289.1,512.8"/>
<path class="st2" d="M302.2,498.8c-1.8,1.8-4.2,4.2-6.8,5.2l-2.2-3.8C295.8,499.2,299.2,499.2,302.2,498.8"/>
<path class="st2" d="M261.9,499.8c0.2,1.2-1.2,2.6-1.8,4c-2.6-0.2-4.8-3-6.8-5L261.9,499.8z"/>
<path class="st2" d="M474.6,514.8c-0.2,1.2-0.2,3.4,0,4.4c-1.4-0.4-3.2-2-4.8-0.8l-0.8,0.8c-0.6-1.6-0.2-3.8,1.8-4.2
	C472.3,515.4,473.4,514.2,474.6,514.8"/>
<path class="st2" d="M206,517.6l-0.4,1.8c-1.4-2.2-3.4,0.2-5.2,0c0-1.4-0.6-3.2-0.2-4.4C202.1,516.2,205.4,514.8,206,517.6"/>
<path class="st2" d="M481.2,532.1c-2-1-4.8-1.6-6.4,0.2c-0.8-1.8,0.6-3.4,2-4.2c1.4,0.8,2.6-0.4,4-0.4L481.2,532.1z"/>
<path class="st2" d="M199.3,529.7c0.6,1.2,0.2,1.8,0.4,3c-1-1-2.8-1.6-4-0.8l-1.2,0.6c-0.4-1.4-0.4-2.8-0.6-4.2
	C195.7,528.7,197.9,527.9,199.3,529.7"/>
<path class="st2" d="M313.8,552.7c-1.2,2-3.4,2.8-5.4,3.4l-4.8-1.2c-2.2-3-3.2-6.4-4.6-9.6v-0.4c4.2,0.2,8-1.8,9.8-5.6l0.4-0.8
	C311.2,543.1,316.6,547.1,313.8,552.7"/>
<path class="st2" d="M257.1,545.1l-4.2,9.4c-1.8,1-3.8,2.2-6,1.6c-2.8-0.4-5.2-2.6-6-5.4c-0.2-4.8,4.2-7.8,5.6-12
	C248.1,542.9,252.7,544.9,257.1,545.1"/>
<path class="st2" d="M489.2,544.3c-1.6-0.4-4-1.8-5.8-0.2c0-1.2,0.2-3,1.8-3.4c1.2,0.4,2.4-0.8,3.8-0.4L489.2,544.3z"/>
<path class="st2" d="M191.5,542.5l-0.2,2.4c-0.8-1.2-2.6-1.2-3.8-0.6c-0.4,0.2-0.8,0.8-1.4,0.6l-0.4-4
	C187.7,541.5,190.3,540.7,191.5,542.5"/>
<path class="st2" d="M300.6,555.7c0,1.8-1.4,3.4-3,4c-2.6,0.6-6,2.2-8.4,0c-2-3.2-1.4-7.4-2.8-10.8c3.4,1,7.2,0,9.8-2.8L300.6,555.7
	z"/>
<path class="st2" d="M269.1,548.9c-0.8,4-0.8,9-4.2,11.8c-2.4,0.8-5,0-7.2-0.8c-6.4-3.8,1.2-9,1.8-13.6
	C261.7,548.9,265.9,549.7,269.1,548.9"/>
<g>
	<path class="st2" d="M405.2,495.4c7.8,12.4,14.8,24.9,21.8,37.5c0.4,2,0.2,4.8-0.8,6.6c-2.2,1.8-4.6,3-7.4,2.4
		c-3.4-2.4-3.6-6.4-6.2-9.6c-0.8-0.6-1.2,0.2-1.8,0.6c1.2,4,4.6,7.8,3,12c-1.4,1.2-3.6,2.2-5.6,1.2c-2-0.4-1.4-3-2-4.4
		c-0.8-2-0.6-4.6-2.4-5.8c-1.8,1.6-0.2,5.2,0.2,7.6c-0.2,2.2-2.8,3.6-4.8,4.2c-3,1.2-4.2-1.8-5.8-3c-1-3.2,2.8-6.4,0-8.8l-1.2,0.6
		c-2,3.2,0.8,7.8-3.8,9.6c-1.2,0.6-3.4,0.8-4.6-0.2c-4.4-4.4,1.8-8.4,2-13c-0.6-0.8-1.4-1-2.2-0.2c-3,3-1.8,12-8.8,9
		c-1.8-0.8-3.8-1.6-4.6-3.6l-0.4-5.2c8.2-14,15.2-28.9,25.5-41.9C399.4,487.8,403,492.4,405.2,495.4"/>
	<path d="M406.4,510.4c-0.6,0.6-1.2,1-1.8,0.6c-1.8-3.4-3-7.4-5.6-10.4c-4.2,0.6-5,5.4-7.4,8.2c-1.2,1.8-1.8,5-4.2,5l-0.6-0.6
		c2.6-5.4,5.2-12.4,11.4-15.2C403,500.2,404.8,505.8,406.4,510.4"/>
	<path class="st2" d="M422.6,498.6c-2,1.8-3.6,4-6.2,5.2c-1.6-0.8-1.4-2.8-2.4-4C417.2,499.6,419.4,498.6,422.6,498.6"/>
	<path class="st2" d="M382.8,499.6c-1,1.6-1.8,4.4-3.4,3.8l-5.4-4.6L382.8,499.6z"/>
	<path class="st2" d="M434.5,552.7c-1.8,1.8-4.2,3.6-7.4,3.2c-5.2-1.2-5.6-7.2-8-11c4.4,0,8.8-2.8,10.4-6.8
		C431.7,542.7,437.3,546.9,434.5,552.7"/>
	<path class="st2" d="M373.9,544.3c1,0.6,2.6,0.2,4,0.4c-2.8,4-2.2,12.6-9.4,11.4c-2.6-0.2-4.8-1.8-6.2-3.8c-2.4-5.8,3-9.6,5-14.2
		C368.1,541.3,371.1,543.1,373.9,544.3"/>
	<path class="st2" d="M421.4,556.3c-1.4,3.6-5.4,4.4-8.6,4.4c-1.2-0.4-3-0.6-3.2-2c0-0.8,0-1.6-0.6-2.2c-0.2-2.6-1-5-1.4-7.6
		c3.4,0.6,6.6-0.4,8.8-3.2C418.8,548.9,420.2,552.7,421.4,556.3"/>
	<path class="st2" d="M389.6,548.5c-0.8,3.2-0.6,7.2-2.2,10.4c-0.6,1.8-2.6,1.4-4,2c-2.2-0.8-5.2-0.6-6.8-3l-0.8-1.8l4.4-9.8
		C382.7,548.9,386.4,549.7,389.6,548.5"/>
	<path class="st2" d="M404.8,548.5c0.6,4,1.2,7.8,2,11.6c-2,4.8-8.2,3.6-12,3.4c-2-0.4-3.6-1.8-4.6-3.8c0.2-3.6,2-7.4,2-11.2
		c2.4,0.4,4.6,3,7.8,1.8c1.6-0.2,2.8-1.8,4.2-2.6L404.8,548.5z"/>
</g>
<path class="st2" d="M284.7,551.7c0.8,3.2,1.6,6.4,0.8,9.6c-2.8,3.4-8.6,3.2-12.6,2c-1.4-0.6-3.2-2.2-3.6-3.6
	c0.4-3.8,1.8-7.2,2.4-11c1.6-0.6,2.8,1.6,4.4,2c2.6,0.2,5.4-0.2,7.4-2.4C284.7,548.7,284.1,550.7,284.7,551.7"/>
<path class="st2" d="M348.9,593.8c6,10.6,12.2,21.2,18,31.7c-1,0.8,0.2,1.8,0,2.6c0.2,2.8-1.8,4.8-4,5.8c-1.6,1.4-3.4,0.4-5,0.2
	c-2.4-3-2.6-7.2-5.4-9.8c-0.8,0-1.4,0.8-1.6,1.4l3.2,7.2c-0.2,1.6,0.6,3.4-0.8,5c-1.4,1.2-3.6,2-5.2,0.8c-3.4-2.2-1.4-7.4-4.6-10
	l-1.2,1.2c0.2,3,3,6.6-0.4,8.8c-1.4,1.4-3.4,2.2-5.4,1.6l-3.6-3.4c0-2.6,2.6-5.6,0.4-8c-0.8-0.2-1.4,0.4-1.6,0.8
	c-0.8,3.4,0,8.2-4.4,9.4c-1,0.6-2.8,0.6-3.8-0.2c-3.8-4.6,1.4-8.8,2-13.2c-0.2-0.4-0.4-1.2-1-1.4l-0.8,0.4l-4.4,9.2
	c-1.4,1.2-3.8,0.8-5.2,0.4c-1.8-1-4.2-2.6-4.6-4.8v-3.8c6.8-13.2,14.4-26.5,22.3-39.3c2-1.2,2.8-4,5.2-4.4
	C343.3,582.2,345.9,589.4,348.9,593.8"/>
<path d="M346.1,601.6c-0.2,0.6-0.2,1.4-1,1.6l-0.8-0.4c-1.6-3.4-3-7.4-6-10c-3.6,1.4-5,5.4-7.2,8.2c-1.2,1.8-1.6,5.2-4,5l-0.6-0.8
	c2.6-5.6,5.6-12,11.6-15C342.9,592,343.9,597.6,346.1,601.6"/>
<path class="st2" d="M322.2,591.6c0.2,1.4-1,2.6-2,4c-2.2-0.8-4.6-3.2-6.4-5.2L322.2,591.6z"/>
<path class="st2" d="M362.3,590.4c-1.4,2.4-4,3.8-6.2,5.2c-1.4-0.6-1.4-2.6-2.2-3.8C356.5,591,359.5,591,362.3,590.4"/>
<path class="st2" d="M374.7,644.1c-1.4,3.2-4.8,4.6-8,4.4c-4.8-1.4-5-7.2-7.2-10.8c0.6-0.8,2.6-0.4,3.8-1c2.4-1.2,5.4-3.4,5.8-6.2
	C371.5,634.7,375.9,638.7,374.7,644.1"/>
<path class="st2" d="M317.2,637.3h0.4l-0.4,2.2l-4.2,8c-2.8,1.6-6.8,1.6-9.2-0.8c-1.8-1.4-2.6-3.2-2.2-5.6c1.2-3.8,3.2-7,5.4-10.4
	C308.2,634.9,313,636.9,317.2,637.3"/>
<path class="st2" d="M361.1,648.7c-0.2,2-2.6,3.6-4.2,4.2c-2.4,0.2-4.6,1.2-6.6-0.4c-2.4-3-1.4-7.4-3-10.4c0.8-1,2,0.4,3.2,0
	c2.2-0.4,4.4-1.6,5.6-3.8C358.5,641.1,359.5,645.1,361.1,648.7"/>
<path class="st2" d="M325.6,642.3l3.8-1.2c0,2.2-0.4,4.2-1,6c0,1.6-0.4,3.6-1.4,5c-2.2,1.6-4.8,1.4-7.2,1c-1.6-0.8-3.2-1.6-3.8-3.4
	c0.2-3.8,2.8-7.2,4-11C321.2,640.9,323.6,641.3,325.6,642.3"/>
<path class="st2" d="M344.7,640.5c-0.2,4.8,5.4,12.2-1.4,15.4c-4,0.8-9.2,1.2-12.4-1.4c-2.4-2.2,0.4-5.4-0.2-7.6
	c0.6-1.6,1.4-3.6,1.4-5.4c1.6-1.4,2.8,1.6,4.6,1.6C339.9,644.1,342.1,641.5,344.7,640.5"/>
</svg>
