<?xml version="1.0" encoding="utf-8"?>
<!-- Generator: Adobe Illustrator 26.0.2, SVG Export Plug-In . SVG Version: 6.00 Build 0)  -->
<svg version="1.1" id="Layer_1" xmlns="http://www.w3.org/2000/svg" xmlns:xlink="http://www.w3.org/1999/xlink" x="0px" y="0px"
	 width="234px" height="234px" viewBox="0 0 234 234" style="enable-background:new 0 0 234 234;" xml:space="preserve">
<style type="text/css">
	.st0{fill:#1D1D1B;}
</style>
<g>
	<g>
		<path class="st0" d="M24.5,142.8c2.5,0,4.6-1.9,4.6-4.4l0,0l0,0c-0.1-2.5-2.1-4.5-4.6-4.6c-2.3,0.2-4,2.1-4.1,4.4
			C20.3,140.5,22.1,142.6,24.5,142.8z M24.5,134.3c2.1,0,3.8,1.7,3.8,3.8l0,0l0,0c0,2.2-1.7,4-3.8,4.1c-2.1-0.2-3.6-2-3.6-4.1
			C20.9,136.1,22.5,134.4,24.5,134.3z M23,140.8h1v-2.5h0.6l1.3,2.5h1.3l-0.4-0.6c-0.5-0.7-0.9-1.4-1.3-2.1c0.7-0.1,1.2-0.7,1.1-1.3
			c0-0.8-0.4-1.1-1.3-1.1h-2.1v5.2L23,140.8L23,140.8z M23.9,136h0.6c0.4,0,1,0,1,0.9s-0.4,1.1-1.3,1.1v-2H23.9z"/>
		<path class="st0" d="M34.3,168.7h2.1c3.1,3.6,6.3,6.7,9.4,10.2v-10.2c0.3,0.1,0.7,0.1,1,0c0.3,0.1,0.5,0.1,0.8,0v15h-1.8
			c-2.5-2.9-5-5.6-7.3-8.2L36,173v10.6h-1.7V168.7z"/>
		<path class="st0" d="M58.5,168.7c0,0.3,0,0.7,0,1s0,0.6,0,0.9c-1.7-0.2-3.3-0.2-5,0v4.6h5c-0.1,0.3-0.1,0.7,0,1
			c-0.1,0.3-0.1,0.6,0,0.9c-0.9-0.1-1.8-0.1-2.7,0h-2.3v5.4c1.7,0.1,3.3,0.1,5,0c0,0.3,0,0.7,0,1v0.8h-8.2v-15.6L58.5,168.7
			L58.5,168.7z"/>
		<path class="st0" d="M119.6,177.8l-1.9-5l-1.9,5H119.6z M115.2,179.1c-0.6,1.7-1.1,3.1-1.5,4.6h-2.1l6.2-15.2c0.3,0.1,0.7,0.1,1,0
			c0.3,0.1,0.5,0.1,0.8,0l6,15.2H122c-0.6-1.7-0.9-3.1-1.5-4.6H115.2z"/>
		<path class="st0" d="M59.7,168.7c0.6,0.1,1.3,0.1,1.9,0c0.6,0.1,1.1,0.1,1.7,0c0.8,3.6,1.9,7.3,2.9,10.9c1.1-3.6,2.7-7.1,3.6-10.9
			c0.8,0.3,1.6,0.3,2.3,0c0.9,3.8,2.3,7.3,3.5,10.9c1.2-3.6,2.2-7.2,3.1-10.9c0.4,0.1,0.8,0.1,1.1,0c0.3,0.1,0.7,0.1,1,0
			c-1.9,5.2-3.7,10-5,15h-2.3c-1-3.6-2.1-7.1-3.5-10.6c-1.1,3.5-2.5,6.9-3.6,10.6h-2.3c-1.1-4.8-2.7-9.6-4.1-14.2v-0.8H59.7z"/>
		<path class="st0" d="M144.5,177.8l-1.9-5l-2.1,5H144.5z M139.9,179.1c-0.6,1.7-1,3.1-1.6,4.6h-1.9l6.2-15.2c0.3,0.1,0.5,0.1,0.8,0
			c0.3,0.1,0.7,0.1,1,0l6,15.2h-3.6c-0.6-1.7-1-3.1-1.6-4.6H139.9z"/>
		<path class="st0" d="M87.7,183.5v-0.4c2.7-4.1,5.2-8.2,7.7-12.5h-6.9c0.1-0.3,0.1-0.6,0-0.9c0.1-0.3,0.1-0.7,0-1h11.4v0.4
			c-2.7,4.1-5,8.5-7.5,12.7h7.5v1.7H87.7z"/>
		<path class="st0" d="M170.5,182.4h1.7c3.1,0,5.4-1.6,5.4-6.5c0-4.1-1.9-5.8-5-5.8h-2.1L170.5,182.4L170.5,182.4z M174.6,168.7
			c3.5-0.1,6.5,2.6,6.6,6.2c0,0.3,0,0.6,0,0.9c0.2,4-2.9,7.5-6.9,7.7h-6.8v-14.8L174.6,168.7z"/>
		<path class="st0" d="M110.3,168.7c0,0.3,0,0.7,0,1s0,0.5,0,0.8c-1.7-0.2-3.3-0.2-5,0v4.6h4.8v1.9c-0.8-0.1-1.7-0.1-2.5,0h-2.3v5.4
			c1.7,0.1,3.3,0.1,5,0c0,0,0,0.2,0,0.3v0.8h-8.2v-14.8H110.3z"/>
		<path class="st0" d="M130.3,182h4.8v1.7H127v-15c0.5,0.1,1,0.1,1.6,0c0.6,0.1,1.1,0.1,1.7,0V182L130.3,182z"/>
		<path class="st0" d="M151.5,168.7h2.3c3.1,3.5,6.1,6.7,9.2,10.2v-10.2c0.3,0.1,0.7,0.1,1,0c0.3,0.1,0.5,0.1,0.8,0v15H163
			c-2.5-2.9-4.8-5.6-7.3-8.2l-2.5-2.5v10.6h-1.8v-14.9H151.5z"/>
		<path class="st0" d="M116.7,61.1c-3.1,0.6-6,1.3-8.8,2.1l4.1,34.2l39.6,16.7l3.1-1.9l-33.4-18.8l-5.2,2.1L116.7,61.1L116.7,61.1z"
			/>
		<path class="st0" d="M98.7,65.5c-3.1,1-6,1.9-8.5,2.9l2.9,39.2l41.1,16.7c1.4-0.8,2.8-1.6,4.1-2.5l-35.9-19.6l-5.2,2.9L98.7,65.5
			L98.7,65.5z"/>
		<path class="st0" d="M107.1,63.4c-2.7,0.6-5.2,1.3-7.7,1.9l3.1,36.7l40.8,17.1l3.6-2.3L112,97.5l-5.4,2.5L107.1,63.4L107.1,63.4z"
			/>
		<path class="st0" d="M132.8,57.9c-2.5,0.4-4.8,0.9-7.1,1.3l4.1,30.4l-5,2.1V59.5c-2.5,0.6-5,1-7.5,1.6l3.6,32.7l38.5,15.6
			c1-0.6,1.9-1.3,3.1-1.9l-32.7-17.7l36.3,15.2c1-0.6,1.9-1.3,2.9-1.9l-30.3-17.3l-5.2,2.3L132.8,57.9z"/>
		<path class="st0" d="M141.1,56.2c-2.5,0.4-5,0.9-7.5,1.3l5.3,28.2l34,14.8c1-0.8,1.9-1.3,2.7-1.9l-29.2-16.3l-4.4,2.1L141.1,56.2z
			"/>
		<path class="st0" d="M47.4,92.9c-4.1,3.3-7.9,6.2-10.4,8.2l2.9,46.7c0,0-8.5,7.5-11.5,10.6c-3.1,3.1-8.2,9.2-8.2,9.2v11.9
			c3.6-5.7,7.6-11.1,11.9-16.3c4.6-5.2,10.6-11.3,10.6-11.3l-1.3-1.9l42.8,15.2c1.5-1.4,2.8-3,4.1-4.6l-37.8-20.4l-5,5.2L47.4,92.9z
			"/>
		<path class="st0" d="M58.1,85.3c-3.5,2.3-6.7,4.8-9.6,6.9l2.1,48.1l43.6,14.6c1.3-1.6,2.9-2.9,4.4-4.4l-37.1-20l-5.4,4.6
			L58.1,85.3z"/>
		<path class="st0" d="M149.4,54.8c-2.5,0.4-5,0.9-7.5,1.3l4.4,26.3l32.7,14c0.9-0.8,1.8-1.5,2.7-2.1L154.1,79l-4.8,2.1V54.9
			L149.4,54.8z"/>
		<path class="st0" d="M89.3,68.8c-0.2-0.1-0.4-0.1-0.6,0c-2.9,1.1-5.8,2.5-8.7,3.8l2.5,41.7l42.1,15.6l4.6-2.7l-36.1-19.6l-5.6,3.4
			L89.3,68.8L89.3,68.8z"/>
		<path class="st0" d="M79.3,73.2c-3.5,1.6-6.7,3.5-10,5.2L72,122l-5.4,4.1l1.9-47.3c-3.3,1.9-6.5,3.8-9.6,6l2.7,45.5l42.3,15
			l4.1-3.7L71.8,122l41.9,15c1.3-0.9,2.9-2.1,4.4-3.1h0.3l-36.1-19.4l-5.4,3.8L79,73.2H79.3z"/>
		<path class="st0" d="M197.6,39.8c-2.1,1.1-4.3,2.2-6.5,3.1l1.6,15l19.6,2.5c1-1.7,1.7-3.5,2.7-5.2l-15.2-2.9l-3.5,2.7L197.6,39.8z
			"/>
		<path class="st0" d="M190.5,43.3c-2.3,1-4.4,1.9-6.9,2.9l1.3,16.7l22.9,5c0.8-1.3,1.6-2.5,2.3-3.8L192.6,58l-3.8,2.3l1.7-17.1
			V43.3z"/>
		<path class="st0" d="M210.9,31.7c-1.7,1.1-3.5,2.5-5.6,3.6l0.9,11.1l-3.5,3.3l1.9-14.2c-2.1,1.1-4.1,2.5-6.5,3.6l1.6,13.1
			l16.7-0.4c0.8-1.7,1.3-3.5,2.1-5.2h-12.2l13.3-2.9c0.6-1.7,1.1-3.3,1.6-4.8l-8.7,1.1l-2.5,2.9L210.9,31.7z"/>
		<path class="st0" d="M183,46.3l-3.3,1.1c-1.3,0.6-2.7,1-4.1,1.3l1.6,18.5l0,0l25.9,7c0.8-1.1,1.6-2.1,2.3-3.1L185,62.7l-3.6,2.1
			l1.7-18.7L183,46.3z"/>
		<path class="st0" d="M226,19.5c0,0-1.1,1.1-3.1,2.9l-0.4,4.1l-1.6,2.3l0.4-5.2c-1.1,1.1-2.4,2.1-3.6,3.1v6.8l-2,2.2l1-8.2
			c-1.6,1.1-3.3,2.5-5.4,3.8l0.9,8.8l10.2-4.8l1.1-4.1l-5.4,1.6l6-4.1C225.4,23.1,226,19.5,226,19.5z"/>
		<path class="st0" d="M157.8,53.1c-2.5,0.6-5,1-7.7,1.6l4.1,24.2l31.3,12.5c0.9-0.8,1.8-1.6,2.7-2.3l-26-14.1l-4.6,2.3V53.1H157.8z
			"/>
		<polygon class="st0" points="169.5,71.3 169.5,71.3 169.5,71.3 		"/>
		<path class="st0" d="M167,51.1l-8.5,1.7l3.6,22.1l29.2,11.6c0.6-0.6,1.2-1.2,1.9-1.7l1-0.9l-24.8-12.5l-4.1,1.9L167,51.1L167,51.1
			z"/>
		<polygon class="st0" points="177.2,67.3 177.2,67.3 177.2,67.3 		"/>
		<path class="st0" d="M174.9,49c-2.3,0.8-4.7,1.4-7.1,1.9l1.9,20.4l0,0l28,9.3c0.8-0.9,1.6-1.8,2.3-2.7l-22.9-10.6l-3.8,2.1
			L174.9,49L174.9,49z"/>
		<path class="st0" d="M21,205.8c0.9,2.1,1.6,4.4,2.3,6.9c1-0.1,1.9-0.1,2.9,0c0.9-0.1,1.8-0.1,2.7,0l-9-22.7h-2.5l-9.2,22.5h3.1
			c0.6-2.1,1.3-4.1,2.3-6.7H21z M14.3,203.9l3.1-7.5l3.1,7.5H14.3z"/>
		<path class="st0" d="M36.8,190.4h-5.1v22.1h12.5c-0.1-0.4-0.1-0.9,0-1.3c-0.1-0.5-0.1-1,0-1.6c-2.3,0-4.6,0.6-7.3,0.6L36.8,190.4
			L36.8,190.4z"/>
		<path class="st0" d="M52.6,190.4h-5v22.1h12.2v-2.9c-2.1,0-4.6,0.6-7.3,0.6L52.6,190.4L52.6,190.4z"/>
		<path class="st0" d="M72.2,212.5h7.5c3.8,0,7.9-1.9,7.9-6.3c-0.1-3-2.6-5.4-5.6-5.3h-0.2v-0.4c2.9-0.1,5.2-2.3,5.4-5.2
			c0-3.8-3.3-4.8-6.5-4.8h-8.2L72.2,212.5z M77.1,192.1h1.6c1.7-0.2,3.3,1.1,3.5,2.8c0,0.3,0,0.5,0,0.8c0.1,1.2-0.4,2.4-1.3,3.3
			c-1.1,0.7-2.4,1-3.7,0.8L77.1,192.1L77.1,192.1z M77.1,201.7c3.5,0,5.4,1,5.4,4.6c0,2.2-1.7,4-3.8,4.1h-1.6V201.7z"/>
		<path class="st0" d="M96.6,190.4h-4.8v22.1H104v-2.9c-2.5,0.3-5,0.5-7.5,0.6L96.6,190.4L96.6,190.4z"/>
		<path class="st0" d="M118.4,205.8c0.9,2.3,1.6,4.6,2.2,6.9c1-0.1,1.9-0.1,2.9,0c0.9-0.1,1.8-0.1,2.7,0l-9-22.7h-2.5l-9.2,22.5h3.1
			c0.6-2.3,1.4-4.5,2.3-6.7H118.4z M111.7,203.9l3.1-7.5l2.9,7.5H111.7z"/>
		<path class="st0" d="M146.3,208.7c-1.6,1.5-3.7,2.4-6,2.5c-5,0-7.7-4.1-7.7-9.6c0-4.6,2.1-9.8,7.5-9.8c2.2,0.1,4.2,1.1,5.6,2.9
			h0.4c0.2-1.1,0.4-2.2,0.8-3.3c-2.1-1.1-4.4-1.6-6.7-1.6c-6.4-0.7-12.1,3.9-12.8,10.3c-0.1,0.6-0.1,1.3,0,1.9
			c0.1,6.1,5.1,11,11.2,11l0,0h1c2.2,0,4.3-0.4,6.3-1.3l0.8-2.9L146.3,208.7L146.3,208.7z"/>
		<path class="st0" d="M150.1,212.7c0.8-0.1,1.7-0.1,2.5,0c0.8-0.1,1.5-0.1,2.3,0v-10.4l7.5,10.4c0.8-0.1,1.7-0.1,2.5,0
			c0.8-0.1,1.6-0.1,2.3,0v-0.6l-8.7-12.5c1.1-1.1,2.1-2.3,3.1-3.5l5.4-5.6h-3.7c-2.7,3.5-5.4,6.7-8.5,10.2v-10.3h-4.7L150.1,212.7
			L150.1,212.7z"/>
		<path class="st0" d="M180.5,194.5c0.2-1,0.5-2.1,0.9-3.1c-1.5-1.1-3.3-1.7-5.2-1.6c-3.7-0.4-7.1,2.3-7.5,6c0,0.3,0,0.6,0,0.9
			c0,7.9,9.8,6,9.8,11.1c0,2-1.7,3.5-3.6,3.5l0,0h-0.2c-2.2,0.2-4.2-1.4-4.4-3.6h-0.8c-0.2,1.4-0.6,2.7-1,4.1
			c1.6,0.9,3.5,1.4,5.4,1.3c4.3,0.5,8.1-2.6,8.6-6.9V206c0-7.5-10-6.7-10-11.1c0-1.7,1-3.1,3.7-3.1c1.7,0,3.2,1.1,3.6,2.7
			L180.5,194.5L180.5,194.5z"/>
	</g>
</g>
</svg>
