<?xml version="1.0" encoding="utf-8"?>
<!-- Generator: Adobe Illustrator 26.0.2, SVG Export Plug-In . SVG Version: 6.00 Build 0)  -->
<svg version="1.1" id="Calque_1" xmlns="http://www.w3.org/2000/svg" xmlns:xlink="http://www.w3.org/1999/xlink" x="0px" y="0px"
	 width="1000px" height="1000px" viewBox="0 0 1000 1000" style="enable-background:new 0 0 1000 1000;" xml:space="preserve">
<style type="text/css">
	.st0{fill-rule:evenodd;clip-rule:evenodd;}
</style>
<path d="M172.6,152.9c-14.3,53.7-22.3,132.7,41.7,159.2c100.8,41.7,183.1-13.1,215.9-45.9L172.6,152.9z M820.7,152.9L563.2,266.2
	C596,299,678.3,353.8,779,312.1C843.1,285.6,835.1,206.6,820.7,152.9 M195.6,53c7.6,2.6,13.5,5.4,19,7.8c5.5,2.5,10.5,4.6,16.3,6
	c23.3,5.4,27-7.3,15.7-18.7c-14.5-14.5-43.6-29.4-82.9-31.3c-0.8,0-0.9-1.1-0.1-1.2c20.2-3.1,36.6-3.9,71.8-1.3
	C297.1,19,359.7,78.1,387.6,118c28,39.9,63.3,73.3,109,73.3c45.7,0,81.1-33.4,109-73.3c28-39.9,90.6-99,152.3-103.6
	c35.1-2.6,51.5-1.8,71.8,1.3c0.8,0.1,0.8,1.1-0.1,1.2c-39.2,1.8-68.4,16.8-82.9,31.3c-11.4,11.4-7.6,24.1,15.7,18.7
	c5.8-1.4,10.8-3.5,16.3-6c5.5-2.5,11.3-5.2,19-7.8c15.2-5.2,37.2-9.7,76.2-9.7c57,0,103.5,42,117.3,63.9c0.3,0.5,0,1-0.6,0.9
	c-5.2-0.5-11.8-1.3-18.8-1.5c-7.6-0.3-15.7,0-23.1,1.8c-14.8,3.5-27,12.8-27,35.1c0,46.3,7.5,77.8,15,107.3
	c3.8,14.7,7.5,29,10.3,44.3c2.8,15.4,4.7,31.8,4.7,51c0,31.6-7,56.9-15.5,77c-4.3,10-9,18.8-13.4,26.3c-4.4,7.5-8.6,13.9-11.9,19.2
	c-8.9,14.4-18.1,14.4-29.2,4.7c-39.1-34.2-125.2-82.2-209.6-75.1c-62.6,5.2-91.7,77.9-131.3,194.1c-13.7,40.3-22.6,79.2-29.1,108.1
	c-3.3,14.7-6,26.5-8.3,34.6c-2.2,7.8-4.3,10.2-6.8,10.2s-4.5-2.4-6.8-10.2c-2.3-8.1-5-19.9-8.3-34.6c-6.5-28.9-15.3-67.8-29.1-108.1
	c-39.6-116.2-68.8-188.8-131.3-194.1c-84.4-7.1-170.5,40.9-209.6,75.1c-11.1,9.7-20.3,9.7-29.2-4.7c-3.3-5.3-7.4-11.6-11.9-19.2
	c-4.4-7.5-9.1-16.2-13.4-26.3c-8.6-20.1-15.5-45.4-15.5-77c0-19.2,1.9-35.6,4.7-51c2.8-15.4,6.6-29.6,10.3-44.3
	c7.5-29.5,15-61,15-107.3c0-22.2-12.2-31.6-27-35.1c-7.4-1.8-15.5-2.1-23.1-1.8c-7,0.2-13.6,1-18.8,1.5c-0.6,0.1-0.9-0.4-0.6-0.9
	c13.7-21.9,60.3-63.9,117.3-63.9C158.4,43.3,180.4,47.9,195.6,53"/>
<path class="st0" d="M141.5,954.8v-109l-32.3-32.3h-77L0,845.8v109l32.3,32.3h77L141.5,954.8z M91.9,931.3l-5,9.9l-9.9,5H64.5
	l-9.9-5l-5-9.9v-64.4l5-9.9l9.9-5H77l9.9,5l5,9.9C91.9,866.9,91.9,931.3,91.9,931.3z"/>
<polygon class="st0" points="281.7,954.8 281.7,906.5 258.1,883 219.6,874.3 214.7,869.4 214.7,864.4 218.4,857 225.8,853.3 
	258.6,853.3 280,860.7 264.3,813.6 197.3,813.6 165,845.8 165,886.7 187.4,909 225.8,917.7 232,923.9 232,935 228.3,942.4 
	220.9,946.1 203.5,946.1 196.1,938.7 196.1,925.1 156.3,944.9 156.3,954.8 163.8,969.7 181.2,987.1 249.4,987.1 "/>
<path class="st0" d="M435.6,894v-48.2l-32.3-32.3h-108l6.2,19.9v133.8l-6.2,19.9h60.8l-7.4-22.3v-33.5l2.5-2.5h49.7L435.6,894z
	 M387.2,874.2l-5,9.9l-9.9,4.9h-21.1l-2.5-2.5v-30.8l2.5-2.5h21.1l9.9,4.9l5,9.9V874.2z"/>
<path class="st0" d="M595.6,986.8L582,963.4l-17.4-47l22.3-22.3v-48.2l-32.3-32.3h-108l6.2,19.9v133.6l-6.2,19.8h59.6l-6.2-19.8
	v-35.8l2.5-2.5h13.7l5,2.5l18.6,55.6L595.6,986.8L595.6,986.8z M538.5,874.2l-5,9.9l-9.9,4.9h-21.1l-2.5-2.5v-30.8l2.5-2.5h21.1
	l9.9,4.9l5,9.9V874.2z"/>
<polygon class="st0" points="727.9,936 701.8,944.6 660.1,944.6 656.4,940.9 656.4,917.6 658.9,915.1 675,915.1 693.6,921.3 
	693.6,869.2 675,875.4 658.9,875.4 656.4,872.9 656.4,855.7 658.4,853.3 701.1,853.3 722.9,860.7 707.3,813.6 603,813.6 
	609.2,833.4 609.2,967 603,986.8 711,986.8 "/>
<polygon class="st0" points="884.7,813.6 830,813.6 827.6,830.9 808.9,868.1 806.5,875.5 804,868.1 785.4,830.9 782.9,813.6 
	722.1,813.6 735.7,833.4 780.4,922.6 780.4,961.1 771.7,987.1 836.3,987.1 827.6,961.1 827.6,920.2 871,833.4 "/>
<polygon class="st0" points="1000,954.8 1000,906.5 976.4,883 937.9,874.3 933,869.4 933,864.4 936.7,857 944.1,853.3 976.9,853.3 
	998.3,860.7 982.6,813.6 915.6,813.6 883.3,845.8 883.3,886.7 905.7,909 944.1,917.7 950.3,923.9 950.3,935 946.6,942.4 
	939.2,946.1 921.8,946.1 914.3,938.7 914.3,925.1 874.6,944.9 874.6,954.8 882.1,969.7 899.5,987.1 967.7,987.1 "/>
</svg>
