<?xml version="1.0" encoding="utf-8"?>
<!-- Generator: Adobe Illustrator 26.0.2, SVG Export Plug-In . SVG Version: 6.00 Build 0)  -->
<svg version="1.1"
	 id="svg2" xmlns:cc="http://creativecommons.org/ns#" xmlns:dc="http://purl.org/dc/elements/1.1/" xmlns:inkscape="http://www.inkscape.org/namespaces/inkscape" xmlns:rdf="http://www.w3.org/1999/02/22-rdf-syntax-ns#" xmlns:sodipodi="http://sodipodi.sourceforge.net/DTD/sodipodi-0.dtd" xmlns:svg="http://www.w3.org/2000/svg"
	 xmlns="http://www.w3.org/2000/svg" xmlns:xlink="http://www.w3.org/1999/xlink" x="0px" y="0px" width="790px" height="900px"
	 viewBox="0 0 790 900" style="enable-background:new 0 0 790 900;" xml:space="preserve">
<style type="text/css">
	.st0{fill-rule:evenodd;clip-rule:evenodd;fill:#241F20;}
	.st1{fill-rule:evenodd;clip-rule:evenodd;fill:#ED3030;}
	.st2{fill-rule:evenodd;clip-rule:evenodd;fill:#FFFFFF;}
	.st3{fill:#FFFFFF;}
</style>
<sodipodi:namedview  bordercolor="#666666" borderopacity="1" gridtolerance="10" guidetolerance="10" id="namedview72" inkscape:current-layer="svg2" inkscape:cx="468.95151" inkscape:cy="292.89069" inkscape:pageopacity="0" inkscape:pageshadow="2" inkscape:window-height="691" inkscape:window-maximized="1" inkscape:window-width="1280" inkscape:window-x="0" inkscape:window-y="1" inkscape:zoom="0.48678446" objecttolerance="10" pagecolor="#ffffff" showgrid="false">
	</sodipodi:namedview>
<g id="g4487" transform="translate(0,365)">
	<path id="path4342" inkscape:connector-curvature="0" sodipodi:nodetypes="ccsscccccc" class="st0" d="M24.9-354.8h722
		c26.6,135,32.9,232.1,25.9,327.2C762,119.6,708.4,219.3,649,297.2c-77.8,102-166.9,165.6-242.6,220.5L174,222.9h151.1L101.5-65.9
		h147L24.9-354.8z"/>
	<path id="path4338" inkscape:connector-curvature="0" class="st1" d="M190.5-353.8l82.5,107.9h269.1l-81.9-107.9H190.5L190.5-353.8
		z M433.5-36.2l240.6,314.6c41.5-65.1,74.3-138.9,96.7-223l-69.5-91.6L433.5-36.2L433.5-36.2z"/>
	<path id="path4332" inkscape:connector-curvature="0" class="st2" d="M0-365L221.9-76.9H77.3l221.9,286.1H150.6l252,325.8
		c105.5-70.5,174.2-129.4,262.9-230.4C729,232.3,778.8,88.9,787.6-37.7c8.1-118.3-10.9-226.5-33.6-327.3H0z M38.9-347.7h702.4
		c26.2,132.8,32.4,228.3,25.5,321.8C756.1,119,703.5,217,645,293.7C568.4,394,480.8,456.6,406.4,510.5l-216.9-284h148.6L116.2-59.6
		h144.6L38.9-347.7L38.9-347.7z"/>
	<g id="g4437" transform="matrix(0.99118938,0,0,0.99118943,-996.58489,-171.44817)">
		<g id="g4428">
			<path id="ellipse4352" inkscape:connector-curvature="0" sodipodi:nodetypes="cscscccccc" class="st3" d="M1296.8-53
				c-16.3,0-29.5,16.6-29.5,37c0,20.4,13.2,37,29.5,37c16.3,0,29.5-16.6,29.5-37C1326.3-36.5,1313.1-53,1296.8-53z M1296.5-40.7
				c8,0,14.5,10.8,14.5,24.1c0,13.3-6.5,24.1-14.5,24.1c-8,0-14.5-10.8-14.5-24.1C1282-29.9,1288.5-40.7,1296.5-40.7z"/>
			<path id="path4355" inkscape:connector-curvature="0" class="st3" d="M1416.8-53c-16.3,0-29.5,16.6-29.5,37c0,0,0,0,0,0
				c0,20.4,13.2,37,29.5,37l0,0c16.3,0,29.5-16.6,29.5-37c0,0,0,0,0,0C1446.3-36.5,1433.1-53,1416.8-53
				C1416.8-53,1416.8-53,1416.8-53z M1416.5-40.7c8,0,14.5,10.8,14.5,24.1c0,0,0,0,0,0c0,13.3-6.5,24.1-14.5,24.1c0,0,0,0,0,0
				c-8,0-14.5-10.8-14.5-24.1C1402-29.9,1408.5-40.7,1416.5-40.7z"/>
			<path id="path4359" inkscape:connector-curvature="0" sodipodi:nodetypes="cccccccccc" class="st2" d="M1328.8-53
				c1.2,20.8,10.2,34.5,20,46.2v27.7l14.9,0V-6.8c9.8-11.7,18.8-25.4,20-46.2h-15.4c-1.5,11-5.6,21.9-12,30.4
				c-6.4-8.6-10.5-19.4-12-30.4H1328.8z"/>
			<path id="path4368" inkscape:connector-curvature="0" sodipodi:nodetypes="ccccccccccccc" class="st2" d="M1613.9-53
				c-9.9,24.7-18.9,49.1-20.8,74h15.6l2.7-14.4h20.8l2.7,14.4h15.6c-1.9-24.8-10.9-49.3-20.8-74H1613.9z M1621.8-27.7l8.1,21.4
				h-16.2L1621.8-27.7z"/>
			<path id="path4373" inkscape:connector-curvature="0" sodipodi:nodetypes="ccccccccccc" class="st2" d="M1457,20.9l0-74h13.1
				l27.1,35v-35h16v74h-16c0.2-22.2-17.8-39.5-25.1-47v47L1457,20.9z"/>
			<path id="path4375" inkscape:connector-curvature="0" sodipodi:nodetypes="ccccccccccc" class="st2" d="M1527,20.9l0-74h13.1
				l27.1,35v-35h16v74h-16c0.2-22.2-17.8-39.5-25.1-47v47L1527,20.9z"/>
			<path id="path4377" inkscape:connector-curvature="0" class="st2" d="M1654.2-53l20.1,37.2l-20.1,36.7h17.7l12.6-22.9l12.6,22.9
				h17.7l-20.1-36.7l20.1-37.2h-17.7l-12.6,24.7L1671.9-53H1654.2z"/>
		</g>
		<g id="g4421">
			<path id="path4357" inkscape:connector-curvature="0" sodipodi:nodetypes="ccssccccccscscc" class="st3" d="M1561.3,75.6
				c0,0.6,0,11,0,11.7h13.8c0.2,0-0.1,0.3-0.1,0.5c-2.3,8.2-7.3,13.9-13.1,13.9c-8,0-14.5-10.8-14.5-24.1c0-13.3,6.5-24.1,14.5-24.1
				c5.4,0,10.2,5,12.7,12.4l13.6-5.2c-5-11.6-14.8-19.5-26-19.5c-16.3,0-29.5,16.6-29.5,37c0,20.4,13.2,37,29.5,37
				c16.3,0,29.5-16.6,29.5-37c0-0.9,0-1.5-0.1-2.4L1561.3,75.6z"/>
			<path id="path4364" inkscape:connector-curvature="0" sodipodi:nodetypes="cccccccccc" class="st2" d="M1659.6,41
				c1.2,20.8,10.2,34.5,20,46.2V115h14.9V87.2c9.8-11.7,18.8-25.4,20-46.2H1699c-1.5,11-5.6,21.9-12,30.4
				c-6.4-8.6-10.5-19.4-12-30.4L1659.6,41z"/>
			<path id="path4398" inkscape:connector-curvature="0" sodipodi:nodetypes="cccccccccsccccccc" class="st2" d="M1401.4,41v74h15.1
				V87.4h8.6c0.4,0,0.7,0,1.1,0l13.2,27.7h18.1l-14.9-30.2c10.1-3.5,14.6-10.6,14.5-20.6c0-15.2-14.6-23.1-32-23.2L1401.4,41z
				 M1416.5,55.7h8.6c20.8,0.4,20.2,19.3,0,19h-8.6V55.7z"/>
			<path id="path4402" inkscape:connector-curvature="0" sodipodi:nodetypes="ccccccccsc" class="st2" d="M1466.8,83l0-42h15.1v42
				c0,25,25.8,25.7,24.9,0l0-42h15.1v42c-0.1,17.4-9.5,32-27.5,32C1477.1,115,1467.2,105.7,1466.8,83L1466.8,83z"/>
			<path id="path4410" inkscape:connector-curvature="0" class="st2" d="M1608.9,40.9v0.2h-5.7v74h7.7v0l15.7,0
				c19.9-0.3,28.1-8.2,28-22.1c0-7.2-3.2-12.2-8.2-15.4c4.3-3.6,6.3-8.8,6.2-15.3c0-14-12.8-21.3-28-21.4L1608.9,40.9L1608.9,40.9z
				 M1626.3,54.4c16.5,0.3,15.5,17.8-1.7,17.5h-6.4V54.4h6.4C1625.2,54.4,1625.7,54.4,1626.3,54.4z M1625.1,83.6h1.6
				c16.1,0.4,14.8,18.2,0,18.1h-8.4V83.6h6.4C1624.8,83.6,1624.9,83.6,1625.1,83.6z"/>
		</g>
	</g>
</g>
</svg>
