<?xml version="1.0" encoding="utf-8"?>
<!-- Generator: Adobe Illustrator 26.0.2, SVG Export Plug-In . SVG Version: 6.00 Build 0)  -->
<svg version="1.1" id="Calque_1" xmlns="http://www.w3.org/2000/svg" xmlns:xlink="http://www.w3.org/1999/xlink" x="0px" y="0px"
	 width="410px" height="411.3px" viewBox="0 0 410 411.3" style="enable-background:new 0 0 410 411.3;" xml:space="preserve">
<style type="text/css">
	.st0{fill:#007236;}
	.st1{clip-path:url(#SVGID_00000008859591086141194000000015186720959240881328_);}
	.st2{fill:#FFFFFF;}
	.st3{fill:none;stroke:#007236;stroke-width:8.247860e-02;stroke-miterlimit:13.303;}
	.st4{fill:#FFFFFF;stroke:#007236;stroke-width:8.248000e-02;stroke-miterlimit:10;}
	.st5{fill:#EFEFEE;}
	.st6{fill:none;stroke:#FFFFFF;stroke-width:0.4151;stroke-linecap:round;stroke-linejoin:round;stroke-miterlimit:13.303;}
</style>
<g transform="translate(987.89,-535.32)">
	<g transform="matrix(1.3303,0,0,-1.3303,-611.62,496.52)">
		<path class="st0" d="M-251.6-108c-0.3-35.3,8.6-144.1,122.1-208.1C-15.2-251.6-7-141.8-7.4-107.3
			C-124.6-41.1-229.8-95.2-251.6-108"/>
	</g>
	<g transform="matrix(1.3303,0,0,-1.3303,-1181.4,1340.8)">
		<g>
			<defs>
				<rect id="SVGID_1_" x="99.6" y="250.2" width="400" height="401.3"/>
			</defs>
			<clipPath id="SVGID_00000041991280160877641020000006527635740182030251_">
				<use xlink:href="#SVGID_1_"  style="overflow:visible;"/>
			</clipPath>
			<g style="clip-path:url(#SVGID_00000041991280160877641020000006527635740182030251_);">
				<g transform="translate(496.59,638.36)">
					<path class="st0" d="M-46.7-96.8l-0.2,16.3l-14.2,8c-42.2,23.8-87.2,35.9-133.7,35.9c-70.3,0-123.9-28.2-138.7-36.9l-13.8-8.1
						l-0.1-16c-0.1-20,2.3-60.2,20.5-104.3c22.6-54.7,61.6-98,115.9-128.6l13.9-7.8l13.9,7.8c54.6,30.8,93.8,74.4,116.3,129.5
						C-48.8-156.8-46.5-116.7-46.7-96.8"/>
				</g>
			</g>
		</g>
	</g>
	<g transform="matrix(1.3303,0,0,-1.3303,-597.12,531.5)">
		<path class="st2" d="M-218.9-186.9c9.6-0.5,12-1.5,12-7.2c0-4.1,0.2-8.2-14-8.2c-8.2,0-13.7,0.1-13.7,8.3h8.3
			c0-2.6,1.2-2.9,5.4-2.9c4.1,0,5.4,0.2,5.4,2.3c0,2.2-0.5,2.1-4.6,2.3l-1.9,0.1c-8,0.4-12.7,0.4-12.7,7.5s5.2,7.6,13.7,7.6
			c7.1,0,13.1-0.1,13.1-7v-1h-8.3c0,2.5-1.4,2.5-4.8,2.5c-4.7,0-5.1-0.7-5.1-2.1c0-2,1.2-2.1,3.5-2.2L-218.9-186.9L-218.9-186.9z"/>
		<path class="st3" d="M-218.9-186.9c9.6-0.5,12-1.5,12-7.2c0-4.1,0.2-8.2-14-8.2c-8.2,0-13.7,0.1-13.7,8.3h8.3
			c0-2.6,1.2-2.9,5.4-2.9c4.1,0,5.4,0.2,5.4,2.3c0,2.2-0.5,2.1-4.6,2.3l-1.9,0.1c-8,0.4-12.7,0.4-12.7,7.5s5.2,7.6,13.7,7.6
			c7.1,0,13.1-0.1,13.1-7v-1h-8.3c0,2.5-1.4,2.5-4.8,2.5c-4.7,0-5.1-0.7-5.1-2.1c0-2,1.2-2.1,3.5-2.2L-218.9-186.9L-218.9-186.9z"/>
	</g>
	<g transform="matrix(1.3303,0,0,-1.3303,-589.12,531.57)">
		<path class="st2" d="M-200.9-187h12.8v-4.6h-12.8v-4.8h13.9v-5.4h-21.8v24.9h21.6v-5.4h-13.6V-187L-200.9-187z"/>
	</g>
	<g transform="matrix(1.3303,0,0,-1.3303,-589.12,531.57)">
		<path class="st3" d="M-200.9-187h12.8v-4.6h-12.8v-4.8h13.9v-5.4h-21.8v24.9h21.6v-5.4h-13.6V-187L-200.9-187z"/>
	</g>
	<g transform="matrix(1.3303,0,0,-1.3303,-574.52,533.39)">
		<path class="st2" d="M-167.7-191.1v-0.7c0-2.7-0.1-5.2-2.8-7.1c-2.7-1.9-6-1.8-9.5-1.8c-8.1,0-14.1,0.3-14.1,9.4v6.4
			c0,8.2,5.3,9.4,14.1,9.4c8.2,0,12-0.7,12.2-8.1v-1h-8.2v1c-0.3,2.2-2.1,2.4-4.9,2.4c-4.5,0-5-1.2-5-4.7v-3.9c0-3.7,0.2-5.1,5-5.1
			c3.3,0,4.9,0.2,4.9,3.1v0.7L-167.7-191.1L-167.7-191.1z"/>
	</g>
	<g transform="matrix(1.3303,0,0,-1.3303,-574.52,533.39)">
		<path class="st3" d="M-167.7-191.1v-0.7c0-2.7-0.1-5.2-2.8-7.1c-2.7-1.9-6-1.8-9.5-1.8c-8.1,0-14.1,0.3-14.1,9.4v6.4
			c0,8.2,5.3,9.4,14.1,9.4c8.2,0,12-0.7,12.2-8.1v-1h-8.2v1c-0.3,2.2-2.1,2.4-4.9,2.4c-4.5,0-5-1.2-5-4.7v-3.9c0-3.7,0.2-5.1,5-5.1
			c3.3,0,4.9,0.2,4.9,3.1v0.7L-167.7-191.1L-167.7-191.1z"/>
	</g>
	<g transform="matrix(1.3303,0,0,-1.3303,-568.32,536.54)">
		<path class="st2" d="M-153.8-198.2h-8v19.1h-7.6v5.8h23.7v-5.8h-8.1V-198.2z"/>
	</g>
	<g transform="matrix(1.3303,0,0,-1.3303,-568.32,536.54)">
		<path class="st3" d="M-153.8-198.2h-8v19.1h-7.6v5.8h23.7v-5.8h-8.1V-198.2z"/>
	</g>
	<path class="st4" d="M-746.1,800.2h-10.7v-33.1h10.7V800.2z"/>
	<g transform="matrix(1.3303,0,0,-1.3303,-553.32,533.32)">
		<path class="st2" d="M-120.1-190.9v5.6c0,3.7-1.5,4-5.6,4c-4.1,0-5.5-0.4-5.6-4v-5.6c0.1-3.7,1.5-4.1,5.6-4.1
			C-121.6-195-120.1-194.7-120.1-190.9 M-139.6-191.7v7c0,7.7,5.8,9.1,13.8,9.1c8.1,0,13.8-1.5,13.8-9.1v-7c0-7.7-5.7-9.1-13.8-9.1
			C-133.8-200.8-139.6-199.4-139.6-191.7"/>
	</g>
	<g transform="matrix(1.3303,0,0,-1.3303,-553.32,533.32)">
		<path class="st3" d="M-120.1-190.9v5.6c0,3.7-1.5,4-5.6,4c-4.1,0-5.5-0.4-5.6-4v-5.6c0.1-3.7,1.5-4.1,5.6-4.1
			C-121.6-195-120.1-194.7-120.1-190.9z M-139.6-191.7v7c0,7.7,5.8,9.1,13.8,9.1c8.1,0,13.8-1.5,13.8-9.1v-7c0-7.7-5.7-9.1-13.8-9.1
			C-133.8-200.8-139.6-199.4-139.6-191.7z"/>
	</g>
	<g transform="matrix(1.3303,0,0,-1.3303,-546.52,536.54)">
		<path class="st2" d="M-104.7-198.2h-7.3v24.9h12.3l7.9-19.1h0.3l-0.4,19.1h7.3v-24.9H-97l-7.8,19.1h-0.3L-104.7-198.2
			L-104.7-198.2z"/>
	</g>
	<g transform="matrix(1.3303,0,0,-1.3303,-546.52,536.54)">
		<path class="st3" d="M-104.7-198.2h-7.3v24.9h12.3l7.9-19.1h0.3l-0.4,19.1h7.3v-24.9H-97l-7.8,19.1h-0.3L-104.7-198.2
			L-104.7-198.2z"/>
	</g>
	<g transform="matrix(1.3303,0,0,-1.3303,-586.12,542.37)">
		<path class="st2" d="M-193.9-211.4c0.5,0,0.8,0.3,0.8,1.1v3.4c0,0.5-0.2,0.6-0.8,0.6h-1v-5.1H-193.9z M-198.4-203.7h5
			c2.5,0,3.9-0.9,3.9-3.5v-2.5c0-3.4-1.1-4.3-4.2-4.3h-1.2v-4.1h-3.4V-203.7z"/>
	</g>
	<g transform="matrix(1.3303,0,0,-1.3303,-580.82,540.49)">
		<path class="st2" d="M-182.1-207.1L-182.1-207.1l-0.8-6.5h1.7L-182.1-207.1L-182.1-207.1z M-185-205.1h5.6l2.3-14.4h-3.5l-0.4,3.4
			h-2.2l-0.4-3.4h-3.5L-185-205.1z"/>
	</g>
	<g transform="matrix(1.3303,0,0,-1.3303,-576.62,539.82)">
		<path class="st2" d="M-172.6-205.6h3.4v-11.8h3.4v-2.6h-6.8V-205.6z"/>
	</g>
	<g transform="matrix(1.3303,0,0,-1.3303,-570.02,540.81)">
		<path class="st2" d="M-157.6-207.9c0,0.5-0.2,0.7-0.9,0.7c-0.6,0-0.9-0.1-0.9-0.7v-8.4c0-0.5,0.2-0.7,0.9-0.7
			c0.6,0,0.9,0.1,0.9,0.7V-207.9z M-163-207.7c0,2.3,1.6,3,4.5,3c2.9,0,4.5-0.6,4.5-3v-8.8c0-2.3-1.6-3-4.5-3c-2.9,0-4.5,0.6-4.5,3
			V-207.7z"/>
	</g>
	<path class="st2" d="M-763.6,813.4h4.7v19.1h-4.7V813.4z"/>
	<g transform="matrix(1.3303,0,0,-1.3303,-560.92,543.38)">
		<path class="st2" d="M-137.2-213.6c0-1,0-1.4,1-1.4c0.8,0,1,0.2,1,0.9v1.6c0,1-0.2,1.1-2,1.5c-2.7,0.6-3.2,1.2-3.2,3.8v0.9
			c0,3.4,1.1,3.7,4.4,3.7c3,0,4-0.8,4-2.8v-1.7h-3.1v0.7c0,1.3-0.1,1.4-1,1.4c-0.9,0-1-0.4-1-1v-0.9c0-0.9,0.2-1.1,1.3-1.3
			c3.7-0.9,4.1-1.2,4.1-4.9c0-3.4-1.3-4.1-4.3-4.1c-3.7,0-4.4,0.8-4.4,3.7v1.2h3.2L-137.2-213.6L-137.2-213.6z"/>
	</g>
	<g transform="matrix(1.3303,0,0,-1.3303,-556.42,539.82)">
		<path class="st2" d="M-126.9-205.6h6.7v-2.6h-3.2v-3.2h2.9v-2.4h-2.9v-3.6h3.4v-2.6h-6.9V-205.6z"/>
	</g>
	<g transform="matrix(1.3303,0,0,-1.3303,-561.72,504.58)">
		<path class="st5" d="M-138.9-126.2l-9.3-13.4l-20.8,41.1c0,0-48.5-68.6-47.3-68.6l46.2,57.8l15.6-40.7l14.9,16.4l41.4-53.9
			L-138.9-126.2L-138.9-126.2z"/>
	</g>
	<g transform="matrix(1.3303,0,0,-1.3303,-551.92,492.92)">
		<path class="st2" d="M-117-99.8c0,0-12.2,8.5-37.4,5.3c0,0-36.6-2.8-61.4-34.5c0,0-31.1-38.3-8.1-48.1c8.8-3.8,56.8-6.8,87.5,24.4
			c6.4,6.4,12.2,14.4,17.1,24.3c0,0,4.4,8.2,5.5,23.2c0.9-5.9,2.9-31.8-23.1-55.8c-26.3-24.2-57.4-26.3-75.4-23.7
			c-12.9,1.9-18.5,8-20.7,12.1c-3.3,6.1-3.4,14.2-1.8,23.1c0,0,5.9,33.8,45.6,50.8C-164.2-88-126.3-89.2-117-99.8"/>
	</g>
	<g transform="matrix(1.3303,0,0,-1.3303,-609.82,492.49)">
		<path class="st2" d="M-247.6-98.9c0.3,0.2,0.6,0.3,1,0.5c0.8,0.4,0.9,0.7,0.4,1.6c-0.2,0.3-0.3,0.6-0.5,0.9
			c-0.5,0.9-0.8,1-1.6,0.6c-0.3-0.2-0.6-0.3-1-0.5C-248.7-96.9-248.2-97.9-247.6-98.9 M-250.3-93.9c0.3,0.1,0.5,0.3,0.8,0.4
			c1,0.5,0.9,0.8,0.5,1.6c-0.1,0.2-0.2,0.5-0.4,0.7c-0.4,0.8-0.7,1-1.6,0.5c-0.3-0.1-0.6-0.3-0.8-0.4
			C-251.3-92.1-250.8-93-250.3-93.9 M-256.3-90.9c1.7,0.9,3.4,1.7,5.1,2.5c3,1.4,4,1.3,5.2-1.1c0.8-1.6,1.1-2.6-0.7-3.9c0,0,0,0,0,0
			c2.1,0.9,3.1-0.2,3.8-1.6c1.3-2.5,1.1-3.7-1.4-4.9c-1.8-0.9-3.5-1.7-5.2-2.6C-252-98.6-254.2-94.8-256.3-90.9"/>
	</g>
	<g transform="matrix(1.3303,0,0,-1.3303,-605.42,485.23)">
		<path class="st2" d="M-237.7-82.5c1.1,0.4,2.1,0.9,3.2,1.3c-0.7-1.3-1.4-2.5-2.1-3.8c-0.7-0.3-1.4-0.6-2-0.9
			C-238.3-84.7-238-83.6-237.7-82.5 M-239.9-87.1c2.2,0.9,4.3,1.9,6.5,2.7c0.3-0.7,0.6-1.5,0.9-2.2c-1-0.4-2.1-0.8-3.1-1.3
			c0.4-0.9,0.7-1.8,1.1-2.7c0.9,0.4,1.9,0.8,2.8,1.2c0.3-0.7,0.6-1.4,0.9-2.1c-0.9-0.4-1.9-0.8-2.8-1.2c0.4-1,0.9-2,1.3-3
			c1.1,0.4,2.1,0.9,3.2,1.3c0.3-0.7,0.6-1.5,0.9-2.2c-2.1-0.9-4.2-1.7-6.3-2.7C-236.4-95.2-238.2-91.1-239.9-87.1"/>
	</g>
	<g transform="matrix(1.3303,0,0,-1.3303,-598.92,484.57)">
		<path class="st2" d="M-223-81C-223-81-223-81-223-81c0.3-2,0.7-4,1.1-6c0.5,0.2,1,0.4,1.6,0.5C-221.2-84.6-222.1-82.8-223-81
			 M-226.2-80.2c1.8,0.7,3.6,1.3,5.4,1.9c2-4,4-8,6.1-12c-1.1-0.4-2.1-0.7-3.2-1.1c-0.5,1-0.9,1.9-1.4,2.9c-0.7-0.2-1.4-0.5-2.1-0.7
			c0.2-1.1,0.4-2.1,0.6-3.2c-1.1-0.4-2.1-0.8-3.2-1.2C-224.8-89.1-225.6-84.7-226.2-80.2"/>
	</g>
	<g transform="matrix(1.3303,0,0,-1.3303,-592.62,484.18)">
		<path class="st2" d="M-208.8-80.1c0.2,0.1,0.4,0.1,0.6,0.2c1.1,0.3,1.3,0.6,1.1,1.5c-0.2,0.7-0.3,1.3-0.5,2
			c-0.1,0.7-0.5,0.9-1.2,0.7c-0.3-0.1-0.6-0.2-1-0.3C-209.4-77.5-209.1-78.8-208.8-80.1 M-213.6-74.8c1.4,0.4,2.7,0.8,4.1,1.2
			c3.5,1,4.7,0.5,5.2-1.9c0.1-0.5,0.2-1,0.4-1.6c0.4-2-0.3-2.6-1.6-3.2c0,0,0,0,0,0c1.5,0.1,2.3,0.1,2.7-1.5
			c0.3-1.2,0.5-2.4,0.8-3.5c-1-0.3-2.1-0.5-3.1-0.8c-0.3,1.2-0.6,2.5-0.9,3.7c-0.1,0.5-0.5,0.7-1.6,0.4c-0.2-0.1-0.4-0.1-0.5-0.1
			c0.4-1.5,0.8-3,1.1-4.5c-1.1-0.3-2.1-0.6-3.1-0.9C-211.4-83.4-212.5-79.1-213.6-74.8"/>
	</g>
	<g transform="matrix(1.3303,0,0,-1.3303,-586.82,481.6)">
		<path class="st2" d="M-195.7-74.3L-195.7-74.3c0.6-3.4,1.3-6.8,2-10.2c-0.9-0.2-1.8-0.4-2.7-0.6c-0.8,4.4-1.6,8.8-2.4,13.1
			c1.5,0.3,3,0.6,4.6,0.9c1.3-3.3,2.6-6.6,3.9-9.9c0,0,0,0,0,0c-0.6,3.4-1.2,6.8-1.8,10.2c1,0.2,1.9,0.4,2.9,0.5
			c0.6-4.4,1.3-8.8,1.9-13.2c-1.4-0.2-2.9-0.5-4.3-0.8C-193.1-80.8-194.4-77.6-195.7-74.3"/>
	</g>
	<g transform="matrix(1.3303,0,0,-1.3303,-578.12,480.29)">
		<path class="st2" d="M-175.9-71.4c2.9,0.3,5.4-1.2,5.5-3.2c0.1-2-2.1-3.8-4.9-4c-2.8-0.3-5.3,1.1-5.5,3.1
			C-181-73.5-178.8-71.7-175.9-71.4"/>
	</g>
	<g transform="matrix(1.3303,0,0,-1.3303,-571.22,481.38)">
		<path class="st2" d="M-160.2-73.8c0.4,0,0.7,0.2,0.7,1c0,1.1,0,2.2,0,3.2c0,0.4-0.2,0.6-0.7,0.6c-0.3,0-0.6,0-0.9,0
			c0-1.6,0-3.2,0-4.8C-160.9-73.8-160.6-73.8-160.2-73.8 M-164.5-66.6c1.6,0,3.1,0.1,4.6,0.1c2.3,0,3.6-0.8,3.6-3.3
			c0-0.8,0-1.6,0-2.3c0-3.2-1-4-3.8-4c-0.4,0-0.7,0-1.1,0c0-1.3,0-2.6,0-3.8c-1,0-2.1,0-3.1,0C-164.3-75.6-164.4-71.1-164.5-66.6"/>
	</g>
	<g transform="matrix(1.3303,0,0,-1.3303,-566.52,482.13)">
		<path class="st2" d="M-149.8-75.5c-0.8,3.1-1.7,6.2-2.6,9.2c1.1-0.1,2.1-0.1,3.2-0.2c0.3-2,0.7-4.1,1-6.1l0,0c0.5,2,1.1,4,1.6,6
			c1.1-0.1,2.1-0.2,3.2-0.2c-1.2-2.9-2.3-5.9-3.5-8.9c-0.1-1.4-0.2-2.9-0.2-4.3c-1,0.1-2,0.1-3,0.2
			C-149.9-78.4-149.9-76.9-149.8-75.5"/>
	</g>
	<g transform="matrix(1.3303,0,0,-1.3303,-560.72,481.78)">
		<path class="st2" d="M-136.9-74.7c0.2,0,0.4-0.1,0.6-0.1c1.1-0.1,1.4,0.1,1.4,1c0.1,0.7,0.1,1.3,0.2,2c0.1,0.7-0.2,1-0.9,1.1
			c-0.3,0-0.6,0.1-1,0.1C-136.7-72-136.8-73.4-136.9-74.7 M-139.5-67.9c1.3-0.2,2.7-0.3,4-0.5c3.5-0.5,4.4-1.3,4.1-3.8
			c-0.1-0.5-0.1-1.1-0.2-1.6c-0.2-2-1.1-2.4-2.5-2.4c0,0,0,0,0,0c1.4-0.5,2.1-0.8,1.9-2.5c-0.1-1.2-0.3-2.4-0.5-3.6
			c-1,0.2-2.1,0.3-3.1,0.4c0.2,1.3,0.3,2.5,0.4,3.8c0.1,0.5-0.2,0.8-1.3,1c-0.2,0-0.4,0-0.5,0.1c-0.2-1.5-0.3-3.1-0.5-4.6
			c-1,0.1-2.1,0.3-3.1,0.4C-140.3-76.8-139.9-72.4-139.5-67.9"/>
	</g>
	<g transform="matrix(1.3303,0,0,-1.3303,-554.22,479.57)">
		<path class="st2" d="M-122.2-69.7c1-0.2,2.1-0.4,3.1-0.7c-1.1-0.7-2.3-1.4-3.4-2.1c-0.7,0.1-1.3,0.3-1.9,0.4
			C-123.7-71.3-123-70.5-122.2-69.7 M-126.1-72.4c2.1-0.4,4.2-0.8,6.3-1.3c-0.2-0.8-0.3-1.6-0.4-2.4c-1,0.2-2,0.4-3,0.6
			c-0.2-1-0.3-1.9-0.5-2.9c0.9-0.2,1.8-0.4,2.7-0.6c-0.1-0.8-0.3-1.5-0.4-2.2c-0.9,0.2-1.8,0.4-2.7,0.6c-0.2-1.1-0.4-2.2-0.6-3.3
			c1-0.2,2.1-0.4,3.1-0.7c-0.2-0.8-0.3-1.6-0.5-2.4c-2.1,0.4-4.1,0.9-6.2,1.3C-127.5-81.2-126.7-76.8-126.1-72.4"/>
	</g>
	<g transform="matrix(1.3303,0,0,-1.3303,-549.22,482.93)">
		<path class="st2" d="M-110.9-77.3C-110.9-77.3-110.9-77.3-110.9-77.3c-0.7-3.4-1.5-6.7-2.3-10.1c-1,0.3-1.9,0.5-2.9,0.8
			c1,4.3,2,8.6,3,13c1.6-0.4,3.2-0.9,4.8-1.3c0-3.6,0-7.1-0.2-10.7v0c0.8,3.3,1.6,6.7,2.3,10.1c1-0.3,2-0.6,3.1-0.9
			c-1.1-4.3-2.3-8.5-3.5-12.8c-1.5,0.5-3.1,0.9-4.6,1.3C-110.9-84.5-110.9-80.9-110.9-77.3"/>
	</g>
	<g transform="matrix(1.3303,0,0,-1.3303,-541.62,483.15)">
		<path class="st2" d="M-93.6-77.8c1.1-0.4,2.1-0.8,3.2-1.2c-1.3-0.5-2.6-1-3.9-1.5c-0.7,0.2-1.3,0.5-2,0.7
			C-95.4-79.1-94.5-78.5-93.6-77.8 M-98-79.8c2.1-0.7,4.3-1.5,6.4-2.3c-0.3-0.7-0.5-1.5-0.8-2.2c-1,0.4-2,0.7-3.1,1.1
			c-0.3-0.9-0.6-1.8-0.9-2.8c0.9-0.3,1.9-0.7,2.8-1c-0.2-0.7-0.5-1.4-0.8-2.1c-0.9,0.3-1.8,0.7-2.8,1c-0.4-1-0.7-2.1-1.1-3.1
			c1.1-0.4,2.1-0.8,3.2-1.2c-0.3-0.7-0.5-1.5-0.8-2.2c-2.1,0.8-4.2,1.5-6.3,2.2C-100.7-88.3-99.3-84-98-79.8"/>
	</g>
	<g transform="matrix(1.3303,0,0,-1.3303,-537.42,485.92)">
		<path class="st2" d="M-84.4-84.1c2.2-0.9,4.3-1.8,6.5-2.7c-0.3-0.7-0.6-1.5-0.9-2.2c-1,0.4-2.1,0.9-3.1,1.3
			c-0.4-0.9-0.8-1.8-1.1-2.7c0.9-0.4,1.9-0.8,2.8-1.2c-0.3-0.7-0.6-1.4-0.9-2.1c-0.9,0.4-1.9,0.8-2.8,1.2c-0.4-1-0.9-2-1.3-3
			c1.1-0.5,2.1-0.9,3.2-1.4c-0.3-0.7-0.7-1.4-1-2.2c-2.1,0.9-4.2,1.8-6.3,2.7C-87.7-92.2-86-88.1-84.4-84.1"/>
	</g>
	<g transform="matrix(1.3303,0,0,-1.3303,-532.42,491.76)">
		<path class="st2" d="M-73-97.2c-0.4-0.8-0.6-1.1,0.3-1.6c0.7-0.4,1.1-0.3,1.3,0.2c0.2,0.4,0.5,0.8,0.7,1.3c0.4,0.8,0.3,1-1.3,2.2
			c-2.3,1.8-2.5,2.5-1.5,4.6c0.1,0.2,0.2,0.5,0.4,0.7c1.4,2.8,2.6,2.6,5.9,1c3-1.5,3.6-2.6,2.7-4.2c-0.3-0.5-0.5-0.9-0.8-1.4
			c-1,0.5-2,1-3,1.5c0.1,0.2,0.2,0.4,0.3,0.6c0.6,1,0.5,1.2-0.4,1.6c-0.9,0.4-1.1,0.2-1.4-0.4c-0.1-0.3-0.3-0.5-0.4-0.8
			c-0.4-0.7-0.2-1,0.7-1.7c3.2-2.5,3.4-2.9,1.7-5.9c-1.6-2.8-3.2-2.6-5.9-1.3c-3.5,1.7-3.7,2.7-2.5,5c0.2,0.3,0.3,0.7,0.5,1
			c1-0.5,2-1,3-1.5C-72.7-96.7-72.8-97-73-97.2"/>
	</g>
	<g transform="matrix(1.3303,0,0,-1.3303,-571.92,569.61)">
		<path class="st2" d="M-162.1-272.8c-7.6,4.6-14.9,9.8-22,15.1c-12.8,9.5-24.9,20-35.9,31.4c-15.4,15.9-28.9,33.6-40.1,52.7
			c-13.7,23.2-23.8,48.6-30.4,74.6c-3.7,14.6-6.4,29.5-8,44.5c-0.9,8.1-1.7,24.1-1.7,23.5V-31c-0.1-7.6-0.1-15.1,0.4-22.7
			c1-15,3.2-30,6.5-44.7c6.1-26.7,16.1-52.7,29.9-76.4c10.8-18.5,23.8-35.6,38.9-51c18.3-18.7,39.4-34.4,62.3-47.1
			c0.1-0.1,0.6-0.3,0.7-0.3C-161.5-273.2-161.6-273.1-162.1-272.8"/>
	</g>
	<g transform="matrix(1.3303,0,0,-1.3303,-571.92,569.61)">
		<path class="st6" d="M-162.1-272.8c-7.6,4.6-14.9,9.8-22,15.1c-12.8,9.5-24.9,20-35.9,31.4c-15.4,15.9-28.9,33.6-40.1,52.7
			c-13.7,23.2-23.8,48.6-30.4,74.6c-3.7,14.6-6.4,29.5-8,44.5c-0.9,8.1-1.7,24.1-1.7,23.5V-31c-0.1-7.6-0.1-15.1,0.4-22.7
			c1-15,3.2-30,6.5-44.7c6.1-26.7,16.1-52.7,29.9-76.4c10.8-18.5,23.8-35.6,38.9-51c18.3-18.7,39.4-34.4,62.3-47.1
			c0.1-0.1,0.6-0.3,0.7-0.3C-161.5-273.2-161.6-273.1-162.1-272.8L-162.1-272.8z"/>
	</g>
	<g transform="matrix(1.3303,0,0,-1.3303,-523.42,489.57)">
		<path class="st2" d="M-52.6-92.3c-0.1-7.1-0.8-14.3-1.5-21.4c-1.6-15-4.2-29.9-7.9-44.6c-6.6-26.3-16.8-51.9-30.5-75.3
			c-11.1-18.9-24.4-36.5-39.6-52.3c-11.1-11.5-23.1-22-35.9-31.5c-7.3-5.5-14.9-10.9-22.7-15.6c-0.4-0.3-0.7-0.4-0.8-0.5
			c-0.1-0.1,0.2,0.1,0.9,0.5c7.6,4.4,15.1,8.7,22.3,13.6c13.1,9,25.4,19,36.7,30.2c16.1,15.8,30,33.7,41.5,53.1
			c13.4,22.6,23.3,47.4,29.5,72.9c5.6,22.9,8.5,46.4,8,70C-52.5-92.8-52.5-92.5-52.6-92.3c0.1,0.4,0,0.7,0,0.7
			C-52.6-91.4-52.6-91.7-52.6-92.3"/>
	</g>
	<g transform="matrix(1.3303,0,0,-1.3303,-523.42,489.57)">
		<path class="st6" d="M-52.6-92.3c-0.1-7.1-0.8-14.3-1.5-21.4c-1.6-15-4.2-29.9-7.9-44.6c-6.6-26.3-16.8-51.9-30.5-75.3
			c-11.1-18.9-24.4-36.5-39.6-52.3c-11.1-11.5-23.1-22-35.9-31.5c-7.3-5.5-14.9-10.9-22.7-15.6c-0.4-0.3-0.7-0.4-0.8-0.5
			c-0.1-0.1,0.2,0.1,0.9,0.5c7.6,4.4,15.1,8.7,22.3,13.6c13.1,9,25.4,19,36.7,30.2c16.1,15.8,30,33.7,41.5,53.1
			c13.4,22.6,23.3,47.4,29.5,72.9c5.6,22.9,8.5,46.4,8,70C-52.5-92.8-52.5-92.5-52.6-92.3c0.1,0.4,0,0.7,0,0.7
			C-52.6-91.4-52.6-91.7-52.6-92.3L-52.6-92.3z"/>
	</g>
	<g transform="matrix(1.3303,0,0,-1.3303,-525.92,486.54)">
		<path class="st2" d="M-58.3-85.4c-5.8,3.6-11.6,7.1-17.6,10.3c-13.9,7.4-28.4,13.5-43.4,18.2c-25.3,7.9-51.8,11.5-78.3,10.7
			c-23.4-0.7-46.6-4.7-68.9-11.7c-14.4-4.5-28.4-10.2-41.8-17.1c-6.6-3.4-13-7.1-19.2-11c-0.1-0.1-0.2-0.1-0.3-0.2
			c-0.1-0.1-0.1-0.1-0.1-0.1c0.2,0,14.1,7.6,23.1,11.7c14.5,6.7,29.7,12.2,45.1,16.4c20.9,5.7,42.4,8.9,64.1,9.4
			c28.1,0.7,56.2-3.7,82.9-12.4c13.3-4.4,26.3-9.8,38.9-16.1c5.2-2.6,10.4-5.3,15.5-8.3c0.8-0.4,1.2-0.7,1.2-0.7
			C-57-86.2-57.4-86-58.3-85.4"/>
	</g>
	<g transform="matrix(1.3303,0,0,-1.3303,-525.92,486.54)">
		<path class="st6" d="M-58.3-85.4c-5.8,3.6-11.6,7.1-17.6,10.3c-13.9,7.4-28.4,13.5-43.4,18.2c-25.3,7.9-51.8,11.5-78.3,10.7
			c-23.4-0.7-46.6-4.7-68.9-11.7c-14.4-4.5-28.4-10.2-41.8-17.1c-6.6-3.4-13-7.1-19.2-11c-0.1-0.1-0.2-0.1-0.3-0.2
			c-0.1-0.1-0.1-0.1-0.1-0.1c0.2,0,14.1,7.6,23.1,11.7c14.5,6.7,29.7,12.2,45.1,16.4c20.9,5.7,42.4,8.9,64.1,9.4
			c28.1,0.7,56.2-3.7,82.9-12.4c13.3-4.4,26.3-9.8,38.9-16.1c5.2-2.6,10.4-5.3,15.5-8.3c0.8-0.4,1.2-0.7,1.2-0.7
			C-57-86.2-57.4-86-58.3-85.4L-58.3-85.4z"/>
	</g>
</g>
</svg>
