<?xml version="1.0" encoding="utf-8"?>
<!-- Generator: Adobe Illustrator 26.0.2, SVG Export Plug-In . SVG Version: 6.00 Build 0)  -->
<svg version="1.1"
	 id="svg2" xmlns:cc="http://creativecommons.org/ns#" xmlns:dc="http://purl.org/dc/elements/1.1/" xmlns:inkscape="http://www.inkscape.org/namespaces/inkscape" xmlns:rdf="http://www.w3.org/1999/02/22-rdf-syntax-ns#" xmlns:sodipodi="http://sodipodi.sourceforge.net/DTD/sodipodi-0.dtd" xmlns:svg="http://www.w3.org/2000/svg"
	 xmlns="http://www.w3.org/2000/svg" xmlns:xlink="http://www.w3.org/1999/xlink" x="0px" y="0px" width="790px" height="1000px"
	 viewBox="0 0 790 1000" style="enable-background:new 0 0 790 1000;" xml:space="preserve">
<style type="text/css">
	.st0{fill:#F6E434;}
	.st1{fill:#325384;}
	.st2{fill:#F6E533;}
	.st3{fill:#D32240;}
</style>
<sodipodi:namedview  bordercolor="#666666" borderopacity="1" gridtolerance="10" guidetolerance="10" id="namedview27" inkscape:current-layer="svg2" inkscape:cx="341.29604" inkscape:cy="517.0183" inkscape:pageopacity="0" inkscape:pageshadow="2" inkscape:window-height="788" inkscape:window-maximized="1" inkscape:window-width="1440" inkscape:window-x="0" inkscape:window-y="1" inkscape:zoom="0.55362774" objecttolerance="10" pagecolor="#ffffff" showgrid="false">
	</sodipodi:namedview>
<g id="g4323" transform="matrix(1.0001236,0,0,0.99990183,-0.04883412,0.04882332)">
	<g id="g4318">
		<path id="path4310" inkscape:connector-curvature="0" class="st0" d="M0,0v7.2l0.1,616.8l0,0.3c9.4,112.6,106.4,205.5,199.9,270.6
			s184.6,102.8,184.6,102.8l-1-0.5c5.2,3.2,10.8,3.4,14.5,2.5c2.5-0.6,4.1-1.5,5.2-2.2l6.1-2.8l4.5-2.1l0,0
			c191.5-88.2,285.6-183.2,331.8-256.8c23.1-36.8,34.1-68.2,39.4-90.5s4.7-36.2,4.7-36.2l0,0.3V0.1L0,0z"/>
		<path id="path26" inkscape:connector-curvature="0" class="st1" d="M14.4,14.3l761.2,0.1v595l0,0.2c0,0,0.6,11.3-4.3,32.2
			s-15.4,50.8-37.6,86.2C689.3,798.8,597.6,892.1,408,979.4l0,0l-4.5,2.1l-7.1,3.3l-0.7,0.6c0,0-0.1,0.1-0.8,0.3
			c-0.8,0.2-1.6,0.4-3.6-0.8l-0.5-0.3l-0.5-0.2c0,0-89.9-37.2-181.9-101.3c-92-64.1-185-154.9-193.8-259.9L14.4,14.3z"/>
		<path id="path28" inkscape:connector-curvature="0" class="st0" d="M782.8,207.8H7.2v-20.7h775.6V207.8z"/>
	</g>
	<g id="g4298" transform="translate(-6.0541904,0)">
		<path id="path4274" inkscape:connector-curvature="0" class="st2" d="M604.7,45.8v107.7h32.2V113h21c14.6,0,25.7-0.5,33.4-1.5
			c5.6-0.8,11.2-2.5,16.7-5.1c5.5-2.6,10-6.1,13.5-10.6c3.6-4.5,5.3-10.1,5.3-16.7c0-8.6-3.1-15.6-9.2-21c-6.2-5.4-13.8-9-23-10.6
			c-5.9-1.1-18.7-1.6-38.3-1.6H604.7z M636.9,64h15.6c5.8,0,10.6,0.1,14.5,0.2c3.9,0.1,6.8,0.3,8.7,0.6c2.6,0.3,5,0.9,7.2,1.7
			s4.1,1.8,5.8,3.1c0.9,0.6,1.6,1.3,2.2,2s1.2,1.5,1.6,2.3s0.7,1.7,1,2.6s0.3,1.8,0.3,2.8c0,1.6-0.3,3.1-0.9,4.5s-1.5,2.7-2.7,3.9
			c-1.2,1.2-2.7,2.3-4.4,3.1s-3.6,1.6-5.7,2.2c-2.2,0.6-5.4,1-9.6,1.3s-9.5,0.4-15.9,0.4h-17.6V64z"/>
		<path id="path4270" inkscape:connector-curvature="0" class="st2" d="M471.4,45.8L410,153.6h34.5l13.1-24.5h64l13.8,24.5h34.7
			L505.9,45.8C505.9,45.8,471.4,45.8,471.4,45.8z M488.8,70.9l22.3,40h-43.7L488.8,70.9z"/>
		<path id="path4268" inkscape:connector-curvature="0" class="st2" d="M355.4,94.1c-7.5-2.7-19-5.3-34.7-7.7
			c-15.6-2.5-25.5-4.9-29.5-7.2c-3.2-1.8-4.8-4-4.8-6.6c0-2.8,1.7-5,5.1-6.7c5.3-2.6,12.6-3.9,21.8-3.9c9,0,15.8,1.2,20.3,3.7
			c4.5,2.4,7.4,6.4,8.8,12l32.2-0.8c-0.5-10-5.8-18-15.9-24c-10.1-6-25.1-9-45.1-9c-12.2,0-22.6,1.3-31.3,3.7
			c-8.6,2.5-15.2,6.2-19.8,10.9c-4.6,4.8-6.9,9.9-6.9,15.4c0,8.5,4.9,15.8,14.6,21.7c6.9,4.2,19,7.8,36.2,10.7
			c13.4,2.2,21.9,3.8,25.7,4.7c5.5,1.3,9.3,2.9,11.6,4.6c2.2,1.8,3.3,4,3.3,6.5c0,4-2.6,7.4-7.9,10.4c-5.3,3-13.1,4.4-23.4,4.4
			c-9.8,0-17.6-1.6-23.3-5c-5.8-3.3-9.6-8.5-11.5-15.6l-31.3,2.1c2.1,12.1,8.6,21.3,19.4,27.6c10.8,6.3,26.3,9.4,46.5,9.4
			c13.8,0,25.4-1.3,34.7-3.9c9.3-2.6,16.5-6.6,21.5-12c5.1-5.4,7.6-11.2,7.6-17.4c0-6.8-2.1-12.5-6.3-17.2
			C368.7,100.4,362.9,96.7,355.4,94.1"/>
		<path id="path32" inkscape:connector-curvature="0" class="st2" d="M170.2,104.5c0,8.5-0.5,14.6-1.4,18.3
			c-0.9,3.7-3.7,6.8-8.4,9.3c-4.6,2.5-11.5,3.8-20.6,3.8c-9,0-16-1.3-21.2-4c-5.2-2.7-8.5-6.2-9.8-10.6c-0.8-2.7-1.2-8.8-1.2-18
			V44.9H75.3v57.5c0,12.1,1,21.2,3.2,27.4c1.5,4.2,4.5,8.2,9,12c4.6,3.8,10.8,6.9,18.7,9.2c7.8,2.4,19.4,3.6,34.6,3.6
			c12.6,0,22.8-1.1,30.7-3.3c7.8-2.2,14.1-5.1,18.7-8.8c4.7-3.7,7.9-8.2,9.6-13.5c1.7-5.3,2.6-14.5,2.6-27.4V44.9h-32.2L170.2,104.5
			L170.2,104.5z"/>
	</g>
	<g id="g4257" transform="translate(1.1013513,0)">
		<path id="path36" inkscape:connector-curvature="0" class="st3" d="M729.7,569.5L397.9,896.9c-2.2,2.2-5.8,2.2-8,0L58.1,569.5
			c-2.2-2.2-2.2-5.7,0-7.8l331.8-327.4c2.2-2.2,5.8-2.2,8,0l331.8,327.4C731.9,563.8,731.9,567.3,729.7,569.5"/>
		<g id="g4250">
			<path id="path40" inkscape:connector-curvature="0" class="st2" d="M354.3,299.3l40.1-40.4l40.5,41.3v530l-41,39.8l-39.8-39.7
				L354.3,299.3L354.3,299.3z"/>
			<path id="path44" inkscape:connector-curvature="0" class="st2" d="M88.3,561l69.9-68.4c0,0,3.8-2.1,3.8,3l0,138.4
				c0,0-1.1,5.2-6.1,2l-68.6-67.2C87.3,568.8,83.4,565,88.3,561"/>
			<path id="path48" inkscape:connector-curvature="0" class="st2" d="M701.7,560.4L631.8,492c0,0-3.8-2.1-3.8,3l0,138.4
				c0,0,1.1,5.2,6.1,2l68.6-67.2C702.7,568.2,706.6,564.5,701.7,560.4"/>
			<path id="path52" inkscape:connector-curvature="0" class="st2" d="M500.1,362.3l54.4,52.2c0,0,7,5.3,7.1,11.6v278.9l-61.5,58.9
				L500.1,362.3L500.1,362.3z"/>
			<path id="path56" inkscape:connector-curvature="0" class="st2" d="M286.6,362.3l-54.4,52.2c0,0-7,5.3-7.1,11.6v278.9l61.5,58.9
				V362.3z"/>
		</g>
	</g>
</g>
</svg>
