<?xml version="1.0" encoding="utf-8"?>
<!-- Generator: Adobe Illustrator 26.0.2, SVG Export Plug-In . SVG Version: 6.00 Build 0)  -->
<svg version="1.1"
	 id="svg2" ns3:pageBounds="0 595.4453 841.8896 0" ns3:rulerOrigin="0 0" ns3:viewOrigin="253.667 498.5132" xmlns:cc="http://creativecommons.org/ns#" xmlns:dc="http://purl.org/dc/elements/1.1/" xmlns:inkscape="http://www.inkscape.org/namespaces/inkscape" xmlns:ns3="http://ns.adobe.com/AdobeIllustrator/10.0/" xmlns:ns4="http://ns.adobe.com/Variables/1.0/" xmlns:ns5="http://ns.adobe.com/SaveForWeb/1.0/" xmlns:rdf="http://www.w3.org/1999/02/22-rdf-syntax-ns#" xmlns:sodipodi="http://sodipodi.sourceforge.net/DTD/sodipodi-0.dtd" xmlns:svg="http://www.w3.org/2000/svg"
	 xmlns="http://www.w3.org/2000/svg" xmlns:xlink="http://www.w3.org/1999/xlink" x="0px" y="0px" width="450px" height="452px"
	 viewBox="0 0 450 452" style="enable-background:new 0 0 450 452;" xml:space="preserve">
<style type="text/css">
	.st0{fill:#B2D9F4;}
	.st1{clip-path:url(#SVGID_00000021827906558084876690000001770995619357844145_);}
	.st2{fill:#FFFFFF;}
	.st3{fill:none;stroke:#FFFFFF;stroke-width:17.6962;stroke-miterlimit:40.9164;}
	.st4{clip-path:url(#SVGID_00000145020613537539323960000017617840665197943992_);}
	.st5{clip-path:url(#SVGID_00000035488699424801851840000002323098358590939054_);}
	.st6{clip-path:url(#SVGID_00000008126231611301065370000004734762151605839771_);}
	.st7{clip-path:url(#SVGID_00000096060372286385593880000018108673255877356441_);}
	.st8{clip-path:url(#SVGID_00000091017348232789632140000006623752440276215217_);}
	.st9{clip-path:url(#SVGID_00000084512726201790208650000003117590933189425039_);}
	.st10{clip-path:url(#SVGID_00000090267097873781251030000014420452546784777659_);}
	.st11{clip-path:url(#SVGID_00000139253965790339773220000003598926884927131521_);}
	.st12{clip-path:url(#SVGID_00000018204628358699005630000014358221607944252088_);}
	.st13{clip-path:url(#SVGID_00000101817722045497467630000017260519039500228537_);}
	.st14{fill:#1D1D1B;}
</style>
<sodipodi:namedview  bordercolor="#666666" borderopacity="1" gridtolerance="10" guidetolerance="10" id="namedview115" inkscape:current-layer="svg2" inkscape:cx="-142.93213" inkscape:cy="65.704574" inkscape:pageopacity="0" inkscape:pageshadow="2" inkscape:window-height="691" inkscape:window-maximized="1" inkscape:window-width="1280" inkscape:window-x="0" inkscape:window-y="1" inkscape:zoom="0.53531608" objecttolerance="10" pagecolor="#ffffff" showgrid="false">
	</sodipodi:namedview>
<ns3:pgf  id="adobe_illustrator_pgf"></ns3:pgf>
<g id="g4613" transform="translate(0,-0.09707)">
	<g id="g5306" transform="matrix(3.1982942,0,0,3.1982942,-15.351813,-5.8955227)">
		<g id="g5333">
			<path id="path4868" inkscape:connector-curvature="0" class="st0" d="M75.3,109.1c20.4-7.4,33.4-20.3,40.5-35.5
				c10.1-21.9,8.2-59.9,8.2-59.9C93.7,13.6,75.3,2,75.3,2S56.9,13.6,26.6,13.6c0,0-1.9,38,8.2,59.9C41.9,88.8,54.9,101.7,75.3,109.1
				"/>
			<g id="g5319">
				<g id="g4870">
					<g>
						<g>
							<defs>
								<path id="SVGID_1_" d="M29,16c0,0-1.8,36.2,7.8,56.9c6.7,14.5,19.1,26.8,38.5,33.8c19.4-7,31.8-19.3,38.5-33.8
									c9.6-20.8,7.8-56.9,7.8-56.9C92.8,16,75.3,4.9,75.3,4.9S57.8,16,29,16"/>
							</defs>
							<clipPath id="SVGID_00000036243414833493558990000000227414400726103457_">
								<use xlink:href="#SVGID_1_"  style="overflow:visible;"/>
							</clipPath>
							<g id="g4878" style="clip-path:url(#SVGID_00000036243414833493558990000000227414400726103457_);">
								<rect id="rect4880" x="27.2" y="19" class="st2" width="96.1" height="11.4"/>
								<rect id="rect4882" x="27.2" y="41.6" class="st2" width="96.1" height="11.4"/>
								<polygon id="polygon4884" class="st2" points="123.4,75.5 123.4,64.1 33.7,64.1 35.6,69.5 38.2,75.5 								"/>
								<polygon id="polygon4886" class="st2" points="98.9,92.8 104.9,86.7 46.1,86.7 51.8,92.7 58.6,98.1 92,98.1 								"/>
							</g>
						</g>
					</g>
				</g>
				<path id="path4892" inkscape:connector-curvature="0" class="st3" d="M75.4,106.4L75.4,106.4c-18-6.5-31.2-18.1-38.4-33.7
					c-9.4-20.4-7.8-56.2-7.8-56.6v-0.3h0.3C57.6,15.8,75,5,75.2,4.9l0.2-0.1l0.2,0.1c0.2,0.1,17.6,10.9,45.7,10.9h0.3v0.3
					c0,0.4,1.7,36.2-7.8,56.6C106.6,88.3,93.4,99.9,75.4,106.4L75.4,106.4L75.4,106.4z M29.8,16.5c-0.1,3.6-1.2,36.7,7.7,56
					c7.1,15.4,20.2,26.9,37.8,33.3C93,99.4,106,87.9,113.1,72.5c8.9-19.3,7.9-52.4,7.7-56C94.3,16.4,77.3,6.7,75.4,5.6
					C73.5,6.7,56.4,16.4,29.8,16.5z"/>
			</g>
		</g>
	</g>
	<g id="g5425" transform="matrix(1.0628294,0,0,1.0628294,60.839021,0.500003)">
		<g>
			<g>
				<defs>
					<rect id="SVGID_00000149351980418486777830000010062112742804667529_" x="2.9" y="17.8" width="303.1" height="321"/>
				</defs>
				<clipPath id="SVGID_00000148634611291776166630000014447729696925098677_">
					<use xlink:href="#SVGID_00000149351980418486777830000010062112742804667529_"  style="overflow:visible;"/>
				</clipPath>
				
					<path id="path47" inkscape:connector-curvature="0" ns3:knockout="Off" style="clip-path:url(#SVGID_00000148634611291776166630000014447729696925098677_);" d="
					M100.2,277.2c-0.6-0.3-1.2-0.5-1.6-0.7c-0.5-0.2-0.8-0.3-1.1-0.3c-0.3,0-0.6,0.1-0.8,0.2c-0.2,0.2-0.3,0.3-0.3,0.4
					c0,0.2,0.2,0.4,0.6,0.6s0.8,0.2,1.4,0.2c0.3,0,0.6,0,0.8-0.1C99.6,277.6,99.9,277.5,100.2,277.2 M111.1,270.5c0,2-0.7,3.9-2,5.6
					c-1.4,1.7-2.8,2.6-4.4,2.6c-0.7,0-1.4-0.1-1.9-0.3c-0.5-0.2-0.9-0.3-1.2-0.3c-0.6,0.2-1.1,0.3-1.6,0.5c-0.5,0.1-1,0.2-1.5,0.2
					c-0.7,0-1.4-0.2-1.9-0.5c-0.6-0.4-1-0.9-1-1.5c0-0.4,0.2-0.8,0.5-1s0.5-0.3,0.7-0.3h1.5c0.2,0,0.7,0.2,1.5,0.5
					c0.3,0.1,0.7,0.3,1.3,0.6c0.4,0,0.7-0.7,1-2.1s0.6-2.8,0.9-4.3c0.5-1.9,1-3.3,1.7-4.2c0.1-0.2,0.3-0.5,0.6-1
					c0.3-0.5,0.5-0.7,0.8-0.7c0.1,0,0.3,0,0.6,0.1c-0.3,0.5-0.6,1.1-0.9,1.6c-0.3,0.6-0.4,1.2-0.4,1.7v3.9v1
					c-0.1,0.7-0.4,1.5-0.8,2.3c-0.3,0.6-0.7,1.1-1.2,1.6c-0.4,0.4-0.6,0.6-0.6,0.6c0.3,0.2,0.7,0.4,1.1,0.6c0.4,0.1,0.8,0.2,1,0.2
					c1.3,0,2.3-0.6,3.2-1.7c1.1-1.4,1.6-3.3,1.6-5.7c0-1.8-0.4-3.5-1.3-5.1c-1-1.9-2.3-2.8-3.9-2.8h-2.3c-0.8,0-1.7,0.4-2.7,1.3
					c-1.1,0.9-1.7,1.9-1.7,3c0,0.8,0.3,1.4,0.9,1.9c0.5,0.4,1,0.7,1.6,0.7c0.1,0,0.3-0.1,0.7-0.2s0.7-0.2,1.1-0.3v0.5
					c-0.3,0.6-0.8,1-1.4,1.4c-0.5,0.3-1,0.4-1.4,0.4c-0.8,0-1.6-0.3-2.3-0.9c-0.7-0.6-1-1.4-1-2.2c0-0.8,0.3-1.6,0.8-2.6
					c0.6-1.1,1.5-2,2.5-2.7c1.3-0.8,2.7-1.2,4.4-1.2c2,0,3.7,0.6,5.2,1.8c1.5,1.2,2.3,2.8,2.3,4.5L111.1,270.5L111.1,270.5z"/>
			</g>
		</g>
		<g>
			<g>
				<defs>
					<rect id="SVGID_00000046316378426103101160000000069466047489399997_" x="2.9" y="17.8" width="303.1" height="321"/>
				</defs>
				<clipPath id="SVGID_00000153706420307153394640000013057536254109214391_">
					<use xlink:href="#SVGID_00000046316378426103101160000000069466047489399997_"  style="overflow:visible;"/>
				</clipPath>
				
					<path id="path49" inkscape:connector-curvature="0" ns3:knockout="Off" style="clip-path:url(#SVGID_00000153706420307153394640000013057536254109214391_);" d="
					M116.6,272.7c0-0.3-0.1-0.6-0.2-0.7s-0.3-0.2-0.6-0.2c-0.5,0-1,0.3-1.3,0.8c-0.3,0.6-0.6,1.1-0.9,1.7v1.3
					c0.7-0.2,1.1-0.5,1.5-0.7C116.1,274.3,116.6,273.6,116.6,272.7 M119.6,276.4c-0.5,0.5-0.9,0.9-1.3,1.2c-1,0.8-1.9,1.2-2.7,1.2
					h-1.5c-0.6,0-1.2-0.3-1.8-0.8c-0.8-0.7-1.1-1.5-1.1-2.4c0-0.4,0.2-0.9,0.5-1.6c0.5-0.8,1-1.5,1.7-2c0.9-0.7,1.9-1,2.9-1
					c0.8,0,1.4,0.2,1.8,0.5c0.3,0.3,0.4,0.7,0.4,1.3c0,0.8-0.4,1.6-1.3,2.2c-0.5,0.3-1.3,0.7-2.4,1.2c-0.9,0.4-1.3,0.7-1.3,0.9
					c0,0.2,0.2,0.5,0.5,0.7s0.7,0.3,1.2,0.3c0.9,0,1.6-0.2,2.1-0.6c0.8-0.6,1.5-1.2,2.3-1.8L119.6,276.4L119.6,276.4z"/>
			</g>
		</g>
		<g>
			<g>
				<defs>
					<rect id="SVGID_00000159464624286564341660000015514807536513010820_" x="2.9" y="17.8" width="303.1" height="321"/>
				</defs>
				<clipPath id="SVGID_00000000919747707613674690000004647888695542379411_">
					<use xlink:href="#SVGID_00000159464624286564341660000015514807536513010820_"  style="overflow:visible;"/>
				</clipPath>
				
					<path id="path51" inkscape:connector-curvature="0" ns3:knockout="Off" style="clip-path:url(#SVGID_00000000919747707613674690000004647888695542379411_);" d="
					M129.6,276c-0.4,0.7-1,1.4-1.6,1.9c-0.8,0.6-1.5,0.9-2.3,0.9h-1.4c-0.6,0-1.2-0.3-1.7-0.8s-0.7-1-0.7-1.5c0-0.2,0.1-0.4,0.2-0.6
					c0.2-0.3,0.4-0.4,0.7-0.4c0.2,0,0.4,0.1,0.5,0.2c0.2,0.1,0.2,0.3,0.2,0.5c0,0.1-0.1,0.2-0.2,0.4c-0.3,0.3-0.5,0.7-0.6,1h1.2
					c0.6-0.6,1-1,1.2-1.2c0.3-0.5,0.5-1,0.5-1.5v-1.4c0-0.4-0.1-0.8-0.4-1.1c-0.3-0.3-0.6-0.4-1-0.4c-0.5,0-1,0.3-1.5,1
					c-0.6,0.8-1.2,1.8-1.5,3.2c-0.5,1.6-0.7,3.6-0.7,5.9c0,0.4,0,0.8,0,1.1c0,0.4,0,0.7,0,1c0,0.5,0,0.9,0,1.2h-1.7v-6.6
					c0.1-0.4,0.1-0.8,0.2-1.2c0.2-1,0.4-2,0.6-3c0.2-1.4,0.5-2.7,0.7-3.9c0.1-0.7,0.2-1.4,0.4-2.1c0.2-1,0.6-1.7,1.2-1.9h0.8v0.7
					c0,0.4-0.1,0.9-0.2,1.6c-0.3,1.5-0.5,2.3-0.5,2.5v1.5c0.6-0.6,1.1-1,1.4-1.3c0.6-0.4,1.2-0.7,1.9-0.7c0.9,0,1.6,0.3,2,0.9
					c0.3,0.5,0.5,1.1,0.5,1.8c0,0.9-0.3,1.8-1,2.7c-0.8,0.8-1.2,1.3-1.4,1.5h0.9c0.6-0.1,1.3-0.4,2-1.1c0.5-0.4,0.9-0.9,1.4-1.3
					L129.6,276L129.6,276z"/>
			</g>
		</g>
		<g>
			<g>
				<defs>
					<rect id="SVGID_00000008108153016638986670000010683223850991419057_" x="2.9" y="17.8" width="303.1" height="321"/>
				</defs>
				<clipPath id="SVGID_00000135683504201423530890000008508528755036162721_">
					<use xlink:href="#SVGID_00000008108153016638986670000010683223850991419057_"  style="overflow:visible;"/>
				</clipPath>
				
					<path id="path53" inkscape:connector-curvature="0" ns3:knockout="Off" style="clip-path:url(#SVGID_00000135683504201423530890000008508528755036162721_);" d="
					M139.6,276.3c0,0.4-0.3,1-1,1.6c-0.7,0.7-1.3,1-1.8,1c-0.8,0-1.3-0.4-1.5-1.1c-0.3-1-0.5-1.6-0.6-1.7c-0.5,0.9-1,1.5-1.4,1.8
					c-0.6,0.5-1.2,0.8-2,0.8c-0.6,0-1.1-0.3-1.4-0.8c-0.2-0.4-0.3-1-0.3-1.8c0-0.4,0.1-0.9,0.1-1.3c0.2-1,0.4-1.8,0.7-2.5
					c0.4-0.9,0.9-1.3,1.5-1.3c0.1,0,0.2,0,0.3,0.1s0.2,0.2,0.5,0.5c-0.3,0.3-0.6,1-0.7,2.2c-0.2,1.5-0.4,2.4-0.5,2.6v1.5h0.8
					c1.1-0.9,2-1.9,2.5-3.2c0.3-0.8,0.6-1.7,0.9-2.6c0.3-0.7,0.7-1,1.3-1c0.1,0,0.2,0,0.3,0s0.2,0,0.2,0c0.1,0,0.2,0,0.3,0v1.2
					c-0.3,0.3-0.5,0.9-0.6,1.7c-0.1,1.1-0.2,1.7-0.3,2v1.7c0.5,0,0.9-0.1,1.2-0.4c0.4-0.3,0.8-0.9,1.2-1.8
					C139.5,275.8,139.6,276,139.6,276.3"/>
			</g>
		</g>
		<g>
			<g>
				<defs>
					<rect id="SVGID_00000026856801813110563610000003025743066581388195_" x="2.9" y="17.8" width="303.1" height="321"/>
				</defs>
				<clipPath id="SVGID_00000035503207176318900680000006418467874482498984_">
					<use xlink:href="#SVGID_00000026856801813110563610000003025743066581388195_"  style="overflow:visible;"/>
				</clipPath>
				
					<path id="path55" inkscape:connector-curvature="0" ns3:knockout="Off" style="clip-path:url(#SVGID_00000035503207176318900680000006418467874482498984_);" d="
					M143.2,267.1c0,0.4-0.2,0.7-0.5,0.9c-0.3,0.2-0.5,0.3-0.7,0.3c-0.3,0-0.6-0.1-0.8-0.3c-0.2-0.2-0.4-0.5-0.4-0.7
					c0-0.3,0.1-0.6,0.4-0.8c0.3-0.3,0.6-0.5,1-0.5s0.7,0.1,0.9,0.4C143.1,266.5,143.2,266.8,143.2,267.1 M144.5,275.9
					c0,0.5-0.3,1.1-0.9,1.7c-0.7,0.8-1.5,1.2-2.4,1.2c-0.6,0-1.1-0.3-1.5-0.9c-0.3-0.5-0.5-0.9-0.5-1.2v-1.2c0.2-1,0.3-1.8,0.5-2.3
					c0.5-1.5,1-2.3,1.6-2.3c0.3,0,0.5,0.1,0.6,0.2s0.2,0.3,0.2,0.5s0,0.3,0,0.4c0,0.2-0.2,1-0.5,2.5s-0.4,2.4-0.4,2.8
					s0.2,0.6,0.6,0.6c0.2,0,0.6-0.2,0.9-0.6c0.5-0.6,1.1-1.2,1.6-1.8c0.1,0,0.1,0.1,0.1,0.1C144.5,275.6,144.5,275.7,144.5,275.9"/>
			</g>
		</g>
		<g>
			<g>
				<defs>
					<rect id="SVGID_00000067234137631137182730000007531238202858082472_" x="2.9" y="17.8" width="303.1" height="321"/>
				</defs>
				<clipPath id="SVGID_00000114060276570431813360000018250887786997722756_">
					<use xlink:href="#SVGID_00000067234137631137182730000007531238202858082472_"  style="overflow:visible;"/>
				</clipPath>
				
					<path id="path57" inkscape:connector-curvature="0" ns3:knockout="Off" style="clip-path:url(#SVGID_00000114060276570431813360000018250887786997722756_);" d="
					M147.7,276.1V275c0-0.2-0.1-0.5-0.3-0.9c-0.1-0.3-0.2-0.5-0.4-0.8c-0.3,0.2-0.6,0.4-0.8,0.7c-0.2,0.3-0.4,0.7-0.6,1
					c0.2,0.1,0.3,0.2,0.4,0.4c0.1,0.1,0.1,0.3,0.1,0.6c0,0.3-0.1,0.6-0.3,0.8c-0.2,0.2-0.3,0.4-0.3,0.5s0.1,0.2,0.2,0.3
					c0.1,0.1,0.2,0.2,0.3,0.2c0.2,0,0.5-0.1,0.8-0.4C147.4,276.9,147.7,276.6,147.7,276.1 M151.4,276.5c-0.3,0.5-0.7,1-1.3,1.4
					c-0.7,0.5-1.4,0.8-1.9,0.8h-1.4c-0.5,0-1-0.2-1.4-0.6c-0.6-0.5-0.9-1.2-0.9-2.2c0-0.2,0.4-1.2,1.3-2.7c0.9-1.6,1.4-2.4,1.6-2.4
					c0.3,0,0.4,0.1,0.5,0.2c0,0,0,0.2,0,0.4v0.9c0,0.4,0.3,0.9,0.9,1.6c0.6,0.7,0.9,1.3,0.9,2c-0.1,0.2-0.1,0.4-0.1,0.6
					c-0.1,0.5-0.2,0.8-0.3,1c0.6-0.1,1-0.3,1.2-0.6c0.2-0.4,0.6-0.7,1-0.8L151.4,276.5L151.4,276.5z"/>
			</g>
		</g>
		<g>
			<g>
				<defs>
					<rect id="SVGID_00000087372627439198095320000009640992847457648572_" x="2.9" y="17.8" width="303.1" height="321"/>
				</defs>
				<clipPath id="SVGID_00000132766520343210834810000007686850929634952362_">
					<use xlink:href="#SVGID_00000087372627439198095320000009640992847457648572_"  style="overflow:visible;"/>
				</clipPath>
				
					<path id="path59" inkscape:connector-curvature="0" ns3:knockout="Off" style="clip-path:url(#SVGID_00000132766520343210834810000007686850929634952362_);" d="
					M169.3,262.9c-1,2.4-1.6,5.1-1.9,8.1c-0.4,3.6-0.6,5.5-0.7,5.6c-0.4,1.4-1.2,2.1-2.4,2.1c-0.8,0-1.3-0.4-1.3-1.3
					s0.3-2.1,0.8-3.5c0.5-1.2,1-2.5,1.5-3.8s0.8-2.3,0.8-3c0-0.2,0-0.4-0.1-0.5l-5.7,5.6h-0.4v-0.8l8.6-9.6h0.8L169.3,262.9
					L169.3,262.9z"/>
			</g>
		</g>
		<g>
			<g>
				<defs>
					<rect id="SVGID_00000128466948757826082850000007248217257169890181_" x="2.9" y="17.8" width="303.1" height="321"/>
				</defs>
				<clipPath id="SVGID_00000181778423601060789440000013330913024382369929_">
					<use xlink:href="#SVGID_00000128466948757826082850000007248217257169890181_"  style="overflow:visible;"/>
				</clipPath>
				
					<path id="path61" inkscape:connector-curvature="0" ns3:knockout="Off" style="clip-path:url(#SVGID_00000181778423601060789440000013330913024382369929_);" d="
					M181.3,265.6c0-0.8-0.4-1.4-1.2-2c-0.6-0.4-1-0.6-1.4-0.6c-1,0-1.8,0.3-2.5,0.8s-1.1,1.1-1.1,1.8c0,0.6,0.5,1.3,1.5,1.9
					c0.9,0.5,1.5,0.8,1.8,0.8c0.9,0,1.6-0.4,2.1-1.1C181,266.7,181.3,266.1,181.3,265.6 M180.6,274.9c0-0.7-0.4-1.4-1.3-2
					c-0.6-0.5-1.4-0.9-2.3-1.2c-0.7-0.3-1.1-0.4-1.3-0.4c-0.6,0-1.2,0.4-1.9,1.3c-0.6,0.8-0.9,1.5-0.9,2c0,0.7,0.3,1.3,0.8,1.9
					s1,0.8,1.5,0.8h2.7c0.4,0,0.8-0.2,1.4-0.6C180.2,276.3,180.6,275.7,180.6,274.9 M183.8,265.8c0,0.5-0.2,1-0.7,1.6
					c-0.1,0.1-0.9,0.8-2.5,2c0.9,0.7,1.5,1.2,1.8,1.6c0.6,0.6,0.9,1.5,0.9,2.7c0,1.6-0.6,2.8-1.8,3.7c-1.2,0.9-2.9,1.4-5,1.4
					c-2.2,0-3.9-0.4-5-1.3c-0.9-0.7-1.4-1.7-1.4-2.9c0-0.6,0.3-1.3,1-2c0.5-0.5,1.2-1.1,1.9-1.6c0.4-0.2,0.7-0.5,1.1-0.7
					c-0.5-0.5-0.9-1.1-1.4-1.6c-0.3-0.6-0.5-1.2-0.5-2c0-1,0.5-2,1.5-3c1.2-1.2,2.7-1.8,4.4-1.8c1.3,0,2.6,0.3,3.7,1
					C183.2,263.7,183.8,264.6,183.8,265.8"/>
			</g>
		</g>
		<g>
			<g>
				<defs>
					<rect id="SVGID_00000031177439006841310130000014857473849688540550_" x="2.9" y="17.8" width="303.1" height="321"/>
				</defs>
				<clipPath id="SVGID_00000141424913276348159600000012922501950205553576_">
					<use xlink:href="#SVGID_00000031177439006841310130000014857473849688540550_"  style="overflow:visible;"/>
				</clipPath>
				
					<path id="path63" inkscape:connector-curvature="0" ns3:knockout="Off" style="clip-path:url(#SVGID_00000141424913276348159600000012922501950205553576_);" d="
					M196.1,265.6c0-0.8-0.4-1.4-1.1-2c-0.6-0.4-1-0.6-1.4-0.6c-1,0-1.8,0.3-2.5,0.8s-1.1,1.1-1.1,1.8c0,0.6,0.5,1.3,1.5,1.9
					c0.9,0.5,1.5,0.8,1.8,0.8c0.9,0,1.6-0.4,2.1-1.1C195.9,266.7,196.1,266.1,196.1,265.6 M195.5,274.9c0-0.7-0.4-1.4-1.3-2
					c-0.6-0.5-1.4-0.9-2.3-1.2c-0.7-0.3-1.1-0.4-1.3-0.4c-0.6,0-1.2,0.4-1.9,1.3c-0.6,0.8-0.9,1.5-0.9,2c0,0.7,0.3,1.3,0.8,1.9
					s1,0.8,1.5,0.8h2.7c0.4,0,0.8-0.2,1.4-0.6C195.1,276.3,195.5,275.7,195.5,274.9 M198.7,265.8c0,0.5-0.2,1-0.7,1.6
					c-0.1,0.1-0.9,0.8-2.5,2c0.9,0.7,1.5,1.2,1.8,1.6c0.6,0.6,0.9,1.5,0.9,2.7c0,1.6-0.6,2.8-1.8,3.7c-1.2,0.9-2.9,1.4-5,1.4
					c-2.2,0-3.9-0.4-5-1.3c-0.9-0.7-1.4-1.7-1.4-2.9c0-0.6,0.3-1.3,1-2c0.5-0.5,1.2-1.1,1.9-1.6c0.4-0.2,0.7-0.5,1.1-0.7
					c-0.5-0.5-0.9-1.1-1.4-1.6c-0.3-0.6-0.5-1.2-0.5-2c0-1,0.5-2,1.5-3c1.2-1.2,2.7-1.8,4.4-1.8c1.3,0,2.6,0.3,3.7,1
					C198.1,263.7,198.7,264.6,198.7,265.8"/>
			</g>
		</g>
		<g>
			<g>
				<defs>
					<rect id="SVGID_00000026854265670923287530000008267265168545543871_" x="2.9" y="17.8" width="303.1" height="321"/>
				</defs>
				<clipPath id="SVGID_00000164506355137320177990000012708944102027223724_">
					<use xlink:href="#SVGID_00000026854265670923287530000008267265168545543871_"  style="overflow:visible;"/>
				</clipPath>
				
					<path id="path65" inkscape:connector-curvature="0" ns3:knockout="Off" style="clip-path:url(#SVGID_00000164506355137320177990000012708944102027223724_);" d="
					M213,266.3c0,1.5-0.7,2.8-2,3.9c-0.6,0.5-1.9,1.3-3.9,2.5c-1.5,0.9-2.4,1.6-2.6,2.3l5.1,1.7c0.2,0,0.8-0.4,1.7-1.1
					c0.5-0.4,0.9-0.7,1.2-0.8v0.8c-1,1.3-1.8,2.2-2.5,2.6s-1.5,0.6-2.4,0.6c-0.8,0-1.7-0.3-2.7-0.8c-1-0.6-1.8-0.9-2.4-0.9
					c-0.2,0-0.6,0.3-1.3,0.8c-0.4,0.3-0.8,0.5-1.2,0.7v-0.8c0.6-1,1.9-2.4,3.7-4c2.3-2,3.7-3.3,4.3-4c1.4-1.6,2.1-3.1,2.1-4.5
					c0-0.7-0.3-1.4-1-1.9c-0.6-0.4-1.1-0.6-1.5-0.6c-0.7,0-1.5,0.3-2.3,0.8c-1,0.7-1.5,1.6-1.5,2.8c0,0.8,0.3,1.4,1.1,1.7
					c0.6,0.2,1,0.5,1.3,0.7c-0.3,0.3-0.5,0.5-0.7,0.6c-0.1,0.1-0.2,0.1-0.3,0.1c0,0-0.1,0-0.3,0s-0.4,0-0.6,0c-1,0-1.7-0.2-2.1-0.7
					c-0.4-0.5-0.7-1.2-0.7-2c0-1.3,0.7-2.4,2.1-3.4c1.2-0.8,2.1-1.2,3-1.2h2.3c0.8,0,1.6,0.3,2.5,1C212.4,263.7,213,264.8,213,266.3
					"/>
			</g>
		</g>
	</g>
	<g id="g892" transform="matrix(5.4755644,0,0,-5.4755644,-376.49536,346.51437)">
	</g>
	<g id="g896" transform="matrix(5.4755644,0,0,-5.4755644,-350.6485,344.96205)">
	</g>
	<g id="g900" transform="matrix(5.4755644,0,0,-5.4755644,-316.16942,348.10612)">
	</g>
	<g id="g904" transform="matrix(5.4755644,0,0,-5.4755644,-300.76118,340.51698)">
	</g>
	<g id="g908" transform="matrix(5.4755644,0,0,-5.4755644,-273.03019,360.4338)">
	</g>
	<g id="g912" transform="matrix(5.4755644,0,0,-5.4755644,-246.65166,356.22693)">
	</g>
	<g id="g916" transform="matrix(5.4755644,0,0,-5.4755644,-76.477138,344.19492)">
	</g>
	<g id="g920" transform="matrix(5.4755644,0,0,-5.4755644,-33.956095,355.59833)">
	</g>
	<g id="g924" transform="matrix(5.4755644,0,0,-5.4755644,-208.52147,361.2754)">
	</g>
	<g id="g928" transform="matrix(5.4755644,0,0,-5.4755644,-176.52939,357.01431)">
	</g>
	<g id="g932" transform="matrix(5.4755644,0,0,-5.4755644,-152.56941,339.94643)">
	</g>
	<g id="g936" transform="matrix(5.4755644,0,0,-5.4755644,-141.82033,349.19904)">
	</g>
	<g id="g4601">
		<g id="g5348" transform="matrix(3.1982943,0,0,3.1982943,-15.351813,-5.8955227)">
			<path id="path4852" inkscape:connector-curvature="0" class="st14" d="M10.7,130.5c0.2,0.1,0.5,0.2,0.8,0.2v0.4H4.8v-0.4
				c0.3,0,0.5-0.1,0.8-0.2c0.1-0.1,0.1-0.2,0.1-0.4V115c0-0.1,0-0.3-0.1-0.4c-0.2-0.1-0.5-0.2-0.8-0.2V114h11.8
				c2.4,0,4.1,0.4,5.2,1.3c1.1,0.9,1.6,2.2,1.6,4.1c0,1.5-0.4,2.7-1.3,3.5c-0.9,0.9-2.1,1.5-3.3,1.8l3.8,5.4
				c0.2,0.3,0.5,0.6,0.9,0.6v0.4h-6.7v-0.4c0.5,0,0.7-0.2,0.7-0.6c-0.1-0.2-0.2-0.3-0.3-0.5c-0.2-0.3-0.4-0.6-0.6-0.9
				c-0.3-0.4-0.5-0.8-0.9-1.2c-0.4-0.4-0.6-0.8-0.9-1.2c-0.3-0.4-0.5-0.7-0.8-1s-0.4-0.5-0.4-0.6h-3.2v5.4
				C10.6,130.2,10.6,130.4,10.7,130.5 M16,121.2c1,0,1.6-0.2,2-0.5c0.7-0.7,0.7-1.7,0.1-2.4c0,0,0,0-0.1-0.1c-0.4-0.4-1-0.5-2-0.5
				h-5.4v3.6L16,121.2z"/>
			<path id="path4854" inkscape:connector-curvature="0" class="st14" d="M37.7,130.7c0.1,0,0.2,0,0.3,0s0.2-0.1,0.2-0.3
				c0-0.1-0.1-0.3-0.1-0.4c-0.1-0.2-0.2-0.4-0.3-0.6c-0.1-0.2-0.2-0.4-0.3-0.6c-0.1-0.2-0.2-0.4-0.3-0.6h-7.5
				c-0.1,0.2-0.1,0.4-0.2,0.6c-0.1,0.2-0.2,0.4-0.3,0.6c-0.1,0.2-0.2,0.4-0.3,0.6c-0.1,0.1-0.1,0.3-0.1,0.4c0,0.2,0.1,0.2,0.2,0.3
				c0.1,0,0.2,0,0.3,0v0.4h-4.8v-0.4c0.1,0,0.3,0,0.4-0.1c0.1,0,0.2-0.1,0.3-0.2c0.6-1.5,1.3-3,2-4.5s1.3-2.8,1.8-4l1.3-3
				c0.2-0.4,0.4-0.9,0.5-1.3c0-0.2-0.1-0.3-0.4-0.3v-0.4h6.8v0.4c-0.3,0-0.4,0.1-0.4,0.3c0.1,0.3,0.2,0.6,0.3,0.9
				c0.2,0.5,0.5,1.1,0.9,1.9s0.8,1.6,1.2,2.5l1.3,2.8c0.4,0.9,0.9,1.8,1.2,2.6c0.4,0.8,0.7,1.5,0.9,2.1c0,0.1,0.1,0.2,0.3,0.2
				c0.1,0.1,0.3,0.1,0.4,0.1v0.4h-5.4v-0.4L37.7,130.7z M33.3,120.2l-2.7,5.7H36L33.3,120.2z"/>
			<path id="path4856" inkscape:connector-curvature="0" class="st14" d="M56.4,122.3l-0.4-0.2c0-0.1,0-0.2,0.1-0.3
				c0-0.1,0-0.2,0-0.3c0-0.1-0.1-0.3-0.4-0.5c-0.3-0.2-0.7-0.4-1-0.5c-0.5-0.2-0.9-0.3-1.4-0.4s-1.1-0.2-1.6-0.2
				c-0.6,0-1.2,0.1-1.8,0.2s-1.2,0.4-1.7,0.7c-0.5,0.3-0.9,0.7-1.2,1.2c-0.7,1.1-0.7,2.4,0,3.5c0.3,0.5,0.7,0.9,1.2,1.2
				c0.5,0.3,1.1,0.6,1.7,0.7c0.6,0.1,1.2,0.2,1.8,0.2s1.2-0.1,1.8-0.2c0.5-0.1,1-0.3,1.5-0.6c0.4-0.2,0.7-0.4,1-0.7
				c0.2-0.2,0.4-0.4,0.4-0.5v-0.3c0-0.1,0-0.2,0-0.3l0.4-0.2l3.1,4.4l-0.4,0.2c-0.2-0.2-0.4-0.4-0.5-0.4c-0.2,0.1-0.5,0.2-0.7,0.3
				c-0.4,0.2-0.9,0.4-1.5,0.6c-0.7,0.3-1.5,0.5-2.2,0.6c-0.9,0.2-1.9,0.3-2.8,0.3c-1.2,0-2.3-0.1-3.5-0.4c-1.1-0.2-2.1-0.6-3-1.2
				c-0.9-0.6-1.6-1.3-2.1-2.2c-0.6-1-0.8-2.2-0.8-3.4c0-1.2,0.2-2.3,0.8-3.4c0.5-0.9,1.3-1.7,2.1-2.3c0.9-0.6,2-1,3-1.3
				c1.1-0.3,2.3-0.4,3.5-0.4c0.7,0,1.4,0.1,2.1,0.2c0.7,0.1,1.3,0.2,1.8,0.4c0.6,0.1,1,0.3,1.5,0.4c0.3,0.1,0.6,0.2,0.9,0.2
				c0.1,0,0.2,0,0.3-0.1s0.1-0.1,0.2-0.2l0.4,0.1L56.4,122.3L56.4,122.3z"/>
			<path id="path4858" inkscape:connector-curvature="0" class="st14" d="M66.7,117.2c-0.3,0-0.5,0.1-0.8,0.1
				c-0.2,0.1-0.3,0.3-0.3,0.5v12.3c0,0.2,0.1,0.4,0.3,0.5c0.2,0.1,0.5,0.1,0.8,0.1v0.4h-6.4v-0.4c0.3,0,0.5-0.1,0.8-0.1
				c0.2-0.1,0.3-0.3,0.3-0.5v-12.3c0-0.2-0.1-0.4-0.3-0.5s-0.5-0.1-0.8-0.1v-0.4h6.4V117.2L66.7,117.2z"/>
			<path id="path4860" inkscape:connector-curvature="0" class="st14" d="M85.3,130.5c0.2,0.1,0.4,0.1,0.6,0.1v0.4h-6v-0.4
				c0.2,0,0.4,0,0.6-0.1c0.2,0,0.3-0.2,0.3-0.4s-0.2-0.6-0.7-1.1s-1.1-1.2-1.8-2l-2.5-2.6c-0.9-1-1.8-2-2.7-3.1l-0.1,0.1v8.5
				c0,0.2,0.1,0.4,0.2,0.5c0.2,0.1,0.4,0.1,0.6,0.1v0.4h-5.5v-0.4c0.2,0,0.4-0.1,0.6-0.1c0.2-0.1,0.3-0.3,0.2-0.5v-12.3
				c0-0.2-0.1-0.4-0.3-0.5c-0.2-0.1-0.4-0.1-0.6-0.1v-0.4h7.7v0.4c-0.2,0-0.3,0.1-0.4,0.1c-0.2,0.1-0.3,0.3-0.2,0.5
				c0.2,0.2,0.3,0.5,0.5,0.7c0.4,0.4,0.8,0.9,1.4,1.5s1.2,1.3,1.9,2c0.7,0.7,1.4,1.5,2.1,2.2v-6.4c0-0.2-0.1-0.4-0.3-0.5
				c-0.2-0.1-0.4-0.1-0.6-0.1v-0.4H86v0.4c-0.2,0-0.4,0.1-0.6,0.1c-0.2,0.1-0.3,0.3-0.3,0.5v12.3C85,130.3,85.1,130.5,85.3,130.5"/>
			<path id="path4862" inkscape:connector-curvature="0" class="st14" d="M102.9,127.7c0,0.2,0,0.4,0.2,0.6c0.1,0.2,0.3,0.3,0.5,0.3
				h0.3v0.4c-0.5,0.3-1.1,0.5-1.8,0.8c-0.7,0.3-1.4,0.5-2.2,0.7c-0.8,0.2-1.6,0.4-2.4,0.5s-1.6,0.2-2.5,0.2c-1.2,0-2.3-0.1-3.5-0.4
				c-1-0.2-1.9-0.7-2.7-1.3c-0.8-0.6-1.4-1.4-1.8-2.3c-0.4-1-0.7-2.2-0.6-3.3c0-1.1,0.2-2.3,0.7-3.3c0.5-0.9,1.1-1.7,1.9-2.2
				c0.8-0.6,1.7-1.1,2.7-1.3c1-0.3,2.1-0.4,3.2-0.4c0.8,0,1.5,0,2.2,0.1c0.6,0.1,1.2,0.2,1.8,0.3c0.5,0.1,0.9,0.2,1.3,0.3
				c0.2,0.1,0.4,0.1,0.7,0.1c0.1,0,0.2,0,0.3-0.1c0.1-0.1,0.1-0.2,0.2-0.2l0.4,0.1l-1.7,4.3l-0.4-0.2v-0.2c0-0.2-0.2-0.4-0.4-0.6
				c-0.3-0.2-0.7-0.4-1.1-0.5c-0.9-0.3-1.8-0.4-2.7-0.4c-0.6,0-1.3,0.1-1.9,0.2s-1.1,0.4-1.6,0.7c-0.4,0.4-0.8,0.8-1.1,1.3
				c-0.3,0.6-0.4,1.3-0.4,1.9c0,0.7,0.1,1.4,0.4,2c0.2,0.5,0.6,1,1.1,1.4c0.5,0.4,1,0.6,1.6,0.8s1.3,0.3,2,0.3c0.5,0,1.1,0,1.6-0.1
				s1-0.2,1.6-0.4v-2.1h-2.7c-0.2,0-0.4,0.1-0.5,0.3c-0.1,0.2-0.1,0.3-0.1,0.5h-0.4v-4h0.4c0,0.2,0,0.3,0.1,0.5s0.3,0.3,0.5,0.3h6.7
				L102.9,127.7L102.9,127.7z"/>
			<path id="path4864" inkscape:connector-curvature="0" class="st14" d="M114,125.8l0.3,0.2v0.3c0,1.1,2,1.6,4.1,1.6
				c2.7,0,5.2-1.4,5.5-4.5c-2.2,1.1-3.9,1.7-6,1.7c-3.3,0-6.3-2.2-6.3-5.6c0-4.1,4.2-5.6,7.7-5.6c5.4,0,8.9,2.7,8.9,8.3
				c0,5.6-4.6,8.9-9.8,8.9c-1.4,0-2.8-0.2-4.1-0.5c-1-0.3-1.6-0.5-1.8-0.5c-0.3,0-0.6,0.1-0.7,0.4l-0.4-0.2L114,125.8L114,125.8z
				 M115.9,119.4c0,1.9,2.3,2.4,3.5,2.4s3.5-0.5,3.5-2.4s-2.3-2.4-3.5-2.4S115.9,117.5,115.9,119.4"/>
			<path id="path4866" inkscape:connector-curvature="0" class="st14" d="M144.3,127c0.5,0,0.7-0.1,0.8-0.7h0.4v5.3h-0.4
				c-0.1-0.6-0.3-0.7-1-0.7H130c-0.4,0-0.6,0.2-0.6,0.7H129c-0.3-6,6.2-8.3,10.4-10.9c0.6-0.4,0.9-0.7,0.9-1.5s-0.7-1.7-2.3-1.7
				c-3,0-5.4,2.2-5.4,3c0,0.2,0.1,0.3,0.1,0.5l-0.4,0.3l-3.4-4.8l0.4-0.3c0.1,0.2,0.4,0.3,0.6,0.3c0.7,0,3.2-2.8,8-2.8
				c3.7,0,7,2.3,7,5.5c0,4.7-6.5,5.4-9.2,7.8L144.3,127L144.3,127z"/>
		</g>
		
			<path id="path942" inkscape:connector-curvature="0" sodipodi:nodetypes="cccsscccccccscccsccccccccsccsscccscccccccscccsccscccccscscsccccssccsccccccscsccccccsscccccsccscccccsscccccsccscccccccccscscccccscsccccccssscccsscccsscccsccccccsccsscccccsccsccccssscccsscccsccccccsccsscccccsccsccccssscccsscccsccccccsccsscccccsccsccccssscccsscccsccccccsccsscccccsccsccccssscccsscccsccccccsccsscccccsccsccccscccssccsscccsccccsssccscsssccsscccsccccccscccccccssscccscccsccsscccccscccscccscccccsccssscccccccscccccccssscccscccsccsscccccscccscccscccccsccssscccccccscccccccssccsccccccscscccccccsscssscscssccccsscscsscccccccsscccscsssccccccscscscsccccssccscccssccsccccscccccccccsscccccscccccccccsccccccccsscssscscssccccsscscssccccccssccscccscccsccccsscccccssccccccssccccscccsccccssccccsccsccccsccsscsccccsccsscccsccccsccsscccsccccccccccccccccccscscscc" class="st14" d="
			M370.4,434.1c-0.9,0.1-1.8,0.2-2.5,0.5c-1,0.3-1.8,0.7-2.5,1.2s-1.2,1.1-1.5,1.8s-0.5,1.3-0.5,2c0,1,0.2,1.8,0.6,2.4
			s0.9,1.1,1.5,1.5s1.4,0.6,2.1,0.8c0.8,0.2,1.6,0.3,2.4,0.3c0.8,0.1,1.7,0.1,2.5,0.2c0.8,0,1.5,0.1,2.1,0.2s1.1,0.3,1.5,0.5
			s0.6,0.6,0.6,1.1s-0.2,0.9-0.6,1.2c-0.4,0.3-0.9,0.6-1.5,0.7c-0.6,0.2-1.1,0.3-1.7,0.4s-1.1,0.1-1.4,0.1c-0.5,0-1.1-0.1-1.7-0.2
			s-1.3-0.3-1.8-0.5c-0.6-0.2-1.1-0.4-1.5-0.7c-0.5-0.3-0.7-0.5-0.9-0.8c-0.1-0.2-0.1-0.3-0.1-0.5L365,446l-1.8,4l0.5,0.3
			c0.1-0.2,0.3-0.3,0.4-0.3c0.2,0,0.5,0.1,0.9,0.2c0.3,0.2,0.8,0.3,1.3,0.5c0.6,0.2,1.2,0.4,2.1,0.5c0.8,0.1,1.9,0.2,3.1,0.2
			c0.9,0,1.9-0.1,2.9-0.2s2-0.4,2.9-0.9c0.9-0.4,1.6-1,2.2-1.7s0.9-1.6,0.9-2.8c0-1-0.2-1.8-0.5-2.4c-0.4-0.6-0.9-1.1-1.5-1.4
			c-0.6-0.4-1.3-0.6-2.1-0.8c-0.8-0.2-1.6-0.3-2.5-0.4c-0.8-0.1-1.6-0.1-2.4-0.2c-0.8,0-1.5-0.1-2.1-0.3c-0.6-0.1-1.1-0.3-1.5-0.6
			c-0.4-0.3-0.6-0.6-0.6-1.2c0-0.4,0.1-0.7,0.4-0.9c0.3-0.3,0.6-0.5,1.1-0.6c0.4-0.2,0.9-0.2,1.4-0.3c0.5-0.1,1-0.1,1.5-0.1
			c0.6,0,1.2,0,1.9,0.2c0.6,0.1,1.2,0.3,1.8,0.5c0.5,0.2,1,0.4,1.4,0.7s0.7,0.5,0.9,0.7c0.1,0.2,0.2,0.5,0.3,0.8l0.3,0.1l2.3-4.1
			l-0.4-0.2c-0.1,0.1-0.4,0.2-0.7,0.2c-0.3,0-0.6-0.1-1.1-0.3c-0.4-0.2-0.9-0.3-1.6-0.5c-0.6-0.2-1.4-0.4-2.2-0.6
			c-0.9-0.2-1.8-0.2-3-0.2C371.1,434.1,370.8,434,370.4,434.1L370.4,434.1z M0,434.2v0.6c0.7,0,1,0.2,1,0.6v14.9
			c0,0.4-0.3,0.6-1,0.6v0.6h15.6c0.3,0,0.6,0,0.8,0c0.2,0,0.3,0.3,0.3,0.6h0.6v-4.5h-0.6c0,0.3-0.1,0.5-0.3,0.6
			c-0.2,0.2-0.5,0.2-0.8,0.2H4.7v-13c0-0.4,0.3-0.6,0.9-0.6v-0.6L0,434.2L0,434.2z M203.9,434.2v0.6c0.4,0,0.6,0.2,0.6,0.6v14.9
			c0,0.4-0.2,0.6-0.6,0.6v0.6h5v-0.6c-0.2,0-0.3-0.1-0.4-0.2c-0.1-0.1-0.2-0.2-0.2-0.4v-6.2h10.5v6.2c0,0.4-0.2,0.6-0.7,0.6v0.6h5
			v-0.6c-0.2,0-0.3-0.1-0.4-0.2c-0.1-0.1-0.2-0.2-0.2-0.4v-14.9c0-0.2,0-0.4,0.2-0.5c0.1-0.1,0.3-0.1,0.4-0.1v-0.6h-5v0.6
			c0.5,0,0.7,0.2,0.7,0.6v5.6h-10.5v-5.6c0-0.2,0.1-0.4,0.2-0.5c0.1-0.1,0.2-0.1,0.4-0.1v-0.6H203.9L203.9,434.2z M267.4,436.3v3.7
			h0.6c0-0.2,0.1-0.3,0.2-0.4c0.2-0.1,0.3-0.1,0.5-0.1h4.3v10.9c0,0.2,0,0.3-0.2,0.4c-0.1,0.1-0.2,0.1-0.3,0.1v0.6h4.2v-0.6
			c-0.4,0-0.6-0.2-0.6-0.5v-10.9h4.3c0.2,0,0.3,0,0.5,0.1s0.2,0.2,0.2,0.4h0.6v-3.7h-0.6c0,0.3-0.1,0.5-0.2,0.6
			c-0.2,0.1-0.3,0.2-0.5,0.2h-11.7c-0.2,0-0.3,0-0.5-0.2c-0.2-0.1-0.2-0.3-0.2-0.6H267.4L267.4,436.3z M33.2,436.5
			c0,0.4-0.3,0.6-1,0.6H20.6v0.6c0.1,0,0.2,0,0.3,0.1c0.1,0.1,0.2,0.2,0.2,0.4v12.3c0,0.2,0,0.3-0.2,0.4c-0.1,0.1-0.2,0.1-0.3,0.1
			v0.6h12c0.3,0,0.5,0,0.7,0s0.2,0.1,0.2,0.3h0.6v-3.4h-0.6c0,0.2-0.1,0.4-0.2,0.5c-0.2,0.1-0.4,0.2-0.7,0.2h-8.4v-3.9H29
			c0.4,0,0.7,0,1,0.1s0.3,0.2,0.3,0.4H31v-3.5h-0.6c0,0.2-0.1,0.4-0.3,0.5c-0.2,0.1-0.5,0.1-0.8,0.1h-5v-3.3h8c0.7,0,1,0.2,1,0.6
			h0.6v-3.6L33.2,436.5L33.2,436.5z M169.7,436.5c0,0.4-0.3,0.6-1,0.6h-11.6v0.6c0.1,0,0.2,0,0.4,0.1c0.1,0.1,0.2,0.2,0.2,0.4v12.3
			c0,0.2-0.1,0.3-0.2,0.4c-0.1,0.1-0.2,0.1-0.4,0.1v0.6h12c0.3,0,0.5,0,0.7,0s0.3,0.1,0.3,0.3h0.6v-3.4H170c0,0.2-0.1,0.4-0.3,0.5
			s-0.4,0.2-0.7,0.2h-8.4v-3.9h4.8c0.4,0,0.8,0,1,0.1s0.3,0.2,0.3,0.4h0.6v-3.5h-0.6c0,0.2-0.1,0.4-0.2,0.5
			c-0.2,0.1-0.5,0.1-0.8,0.1h-5.1v-3.3h8c0.7,0,1,0.2,1,0.6h0.6v-3.6L169.7,436.5L169.7,436.5z M347.2,436.5c0,0.4-0.3,0.6-1,0.6
			h-11.6v0.6c0.1,0,0.2,0,0.3,0.1c0.1,0.1,0.2,0.2,0.2,0.4v12.3c0,0.2-0.1,0.3-0.2,0.4s-0.2,0.1-0.3,0.1v0.6h12c0.3,0,0.4,0,0.6,0
			s0.3,0.1,0.3,0.3h0.6v-3.4h-0.6c0,0.2-0.1,0.4-0.3,0.5c-0.2,0.1-0.4,0.2-0.6,0.2h-8.4v-3.9h4.8c0.4,0,0.8,0,1,0.1s0.3,0.2,0.3,0.4
			h0.7v-3.5h-0.6c0,0.2-0.1,0.4-0.3,0.5c-0.2,0.1-0.5,0.1-0.8,0.1h-5v-3.3h8c0.7,0,1,0.2,1,0.6h0.6v-3.6L347.2,436.5L347.2,436.5z
			 M398.1,436.5c0,0.4-0.3,0.6-1,0.6h-11.6v0.6c0.1,0,0.2,0,0.3,0.1c0.1,0.1,0.2,0.2,0.2,0.4v12.3c0,0.2-0.1,0.3-0.2,0.4
			s-0.2,0.1-0.3,0.1v0.6h12c0.3,0,0.5,0,0.7,0s0.3,0.1,0.3,0.3h0.6v-3.4h-0.6c0,0.2-0.1,0.4-0.3,0.5c-0.2,0.1-0.4,0.2-0.7,0.2h-8.4
			v-3.9h4.8c0.4,0,0.8,0,1,0.1s0.3,0.2,0.3,0.4h0.7v-3.5h-0.6c0,0.2-0.1,0.4-0.3,0.5c-0.2,0.1-0.5,0.1-0.8,0.1h-5v-3.3h8
			c0.7,0,1,0.2,1,0.6h0.6v-3.6L398.1,436.5L398.1,436.5z M449.1,436.5c0,0.4-0.3,0.6-1,0.6h-11.6v0.6c0.1,0,0.2,0,0.3,0.1
			c0.1,0.1,0.2,0.2,0.2,0.4v12.3c0,0.2-0.1,0.3-0.2,0.4s-0.2,0.1-0.3,0.1v0.6h12c0.3,0,0.5,0,0.7,0s0.3,0.1,0.3,0.3h0.6v-3.4h-0.6
			c0,0.2-0.1,0.4-0.3,0.5c-0.2,0.1-0.4,0.2-0.7,0.2h-8.4v-3.9h4.8c0.4,0,0.8,0,1,0.1s0.3,0.2,0.3,0.4h0.6v-3.5h-0.6
			c0,0.2-0.1,0.4-0.2,0.5c-0.2,0.1-0.5,0.1-0.8,0.1h-5v-3.3h8c0.7,0,1,0.2,1,0.6h0.6v-3.6L449.1,436.5L449.1,436.5z M55.6,436.9
			c-1.1,0-2.1,0.1-3.1,0.4s-1.9,0.8-2.7,1.4s-1.4,1.4-1.9,2.3s-0.7,2-0.7,3.2s0.2,2.3,0.7,3.2c0.5,0.9,1.1,1.7,1.9,2.3
			c0.8,0.6,1.6,1,2.6,1.3s2,0.4,3,0.4s1.9-0.1,2.7-0.2c0.8-0.2,1.5-0.4,2.1-0.7c0.6-0.3,1.1-0.5,1.5-0.7s0.7-0.3,0.9-0.3
			c0.1,0,0.3,0.1,0.5,0.2l0.3-0.2l-2.4-3.4l-0.4,0.3c0,0.1,0,0.2,0,0.3v0.3c0,0.2-0.2,0.4-0.5,0.7c-0.3,0.2-0.7,0.5-1.2,0.7
			s-1.1,0.4-1.7,0.5c-0.6,0.2-1.2,0.2-1.8,0.2s-1.3-0.1-1.9-0.4c-0.6-0.2-1.1-0.6-1.6-1s-0.9-1-1.2-1.6s-0.5-1.3-0.5-2.1
			c0-0.8,0.2-1.5,0.4-2.1c0.3-0.6,0.6-1.1,1.1-1.5s1-0.7,1.7-0.9s1.4-0.3,2.1-0.3c0.7,0,1.2,0,1.8,0.2c0.5,0.1,1,0.3,1.4,0.5
			s0.7,0.4,0.9,0.5c0.2,0.2,0.3,0.3,0.3,0.4s0,0.1,0,0.2v0.1l0.4,0.3l2.2-3.1l-0.4-0.2c-0.1,0-0.2,0.1-0.2,0.2
			c-0.1,0.1-0.2,0.1-0.3,0.1c-0.2,0-0.4-0.1-0.7-0.2c-0.3-0.2-0.8-0.3-1.3-0.5s-1.1-0.4-1.8-0.5C57.2,436.9,56.4,436.9,55.6,436.9
			L55.6,436.9z M181.2,436.9c-2.1,0-3.7,0.4-4.9,1.2c-1.2,0.8-1.8,1.9-1.8,3.3c0,0.9,0.3,1.7,0.8,2.2s1.2,0.9,2,1.2s1.7,0.5,2.6,0.6
			c0.9,0.1,1.8,0.2,2.6,0.4c0.8,0.1,1.5,0.3,2,0.5s0.8,0.6,0.8,1.1c0,0.4-0.2,0.8-0.5,1c-0.3,0.3-0.7,0.4-1.1,0.6
			c-0.4,0.1-0.9,0.2-1.3,0.3c-0.4,0-0.8,0.1-1.1,0.1s-0.8,0-1.3-0.2c-0.6-0.1-1.2-0.3-1.8-0.5s-1.1-0.4-1.5-0.7
			c-0.4-0.3-0.6-0.6-0.6-0.9c0-0.1,0-0.2,0-0.3c0-0.1,0-0.2,0-0.3l-0.6-0.2L174,450l0.5,0.4c0.1-0.1,0.2-0.2,0.4-0.2
			c0.1,0,0.3,0.1,0.7,0.2c0.4,0.2,1,0.3,1.6,0.5s1.3,0.4,2,0.5s1.4,0.2,2.2,0.2c0.7,0,1.5,0,2.4-0.2c0.8-0.1,1.6-0.4,2.3-0.7
			c0.7-0.3,1.3-0.8,1.8-1.4s0.7-1.4,0.7-2.4s-0.2-1.7-0.8-2.3c-0.5-0.5-1.2-0.9-2-1.2c-0.8-0.3-1.7-0.5-2.6-0.6
			c-0.9-0.1-1.8-0.2-2.6-0.4c-0.8-0.1-1.5-0.3-2-0.5s-0.8-0.5-0.8-1c0-0.3,0.1-0.6,0.2-0.8c0.2-0.2,0.4-0.4,0.7-0.5s0.7-0.2,1.1-0.3
			c0.4-0.1,0.8-0.1,1.2-0.1c1.1,0,2.1,0.1,3,0.4s1.6,0.6,2,0.9c0.2,0.1,0.3,0.3,0.3,0.4s0.1,0.3,0.1,0.4l0.6,0.2l1.6-3l-0.4-0.4
			c-0.1,0.1-0.2,0.1-0.3,0.2s-0.2,0.1-0.4,0.1s-0.4-0.1-0.7-0.2c-0.3-0.2-0.7-0.3-1.2-0.5s-1.1-0.4-1.8-0.5
			C183.1,436.9,182.2,436.9,181.2,436.9L181.2,436.9z M291.3,436.9c-2.1,0-3.7,0.4-4.9,1.2c-1.2,0.8-1.7,1.9-1.7,3.3
			c0,0.9,0.2,1.7,0.8,2.2c0.5,0.5,1.2,0.9,2,1.2s1.7,0.5,2.6,0.6s1.8,0.2,2.6,0.4c0.8,0.1,1.5,0.3,2,0.5s0.8,0.6,0.8,1.1
			c0,0.4-0.2,0.8-0.5,1c-0.3,0.3-0.7,0.4-1.1,0.6c-0.4,0.1-0.9,0.2-1.3,0.3c-0.4,0-0.8,0.1-1.1,0.1c-0.3,0-0.8,0-1.4-0.2
			c-0.6-0.1-1.1-0.3-1.7-0.5s-1.1-0.4-1.5-0.7c-0.4-0.3-0.6-0.6-0.6-0.9c0-0.1,0-0.2,0-0.3c0-0.1,0-0.2,0-0.3l-0.6-0.2l-1.5,3.7
			l0.5,0.4c0.1-0.1,0.2-0.2,0.4-0.2c0.1,0,0.4,0.1,0.8,0.2c0.4,0.2,0.9,0.3,1.5,0.5s1.3,0.4,2,0.5s1.5,0.2,2.2,0.2s1.5,0,2.3-0.2
			c0.8-0.1,1.6-0.4,2.3-0.7c0.7-0.3,1.3-0.8,1.8-1.4s0.7-1.4,0.7-2.4s-0.2-1.7-0.8-2.3c-0.5-0.5-1.2-0.9-2-1.2
			c-0.8-0.3-1.7-0.5-2.6-0.6s-1.8-0.2-2.6-0.4c-0.8-0.1-1.5-0.3-2-0.5s-0.8-0.5-0.8-1c0-0.3,0.1-0.6,0.3-0.8
			c0.2-0.2,0.4-0.4,0.7-0.5c0.3-0.1,0.7-0.2,1.1-0.3c0.4-0.1,0.8-0.1,1.2-0.1c1.1,0,2.2,0.1,3.1,0.4s1.6,0.6,2,0.9
			c0.2,0.1,0.2,0.3,0.3,0.4c0,0.1,0.1,0.3,0.1,0.4l0.6,0.2l1.6-3l-0.4-0.4c-0.1,0.1-0.3,0.1-0.4,0.2s-0.2,0.1-0.4,0.1
			c-0.2,0-0.4-0.1-0.7-0.2c-0.3-0.2-0.7-0.3-1.2-0.5s-1.1-0.4-1.9-0.5C293.2,436.9,292.3,436.9,291.3,436.9L291.3,436.9z
			 M66.8,437.1v0.6c0.6,0,0.9,0.1,0.9,0.5v12.3c0,0.3-0.3,0.5-0.9,0.5v0.6h12.9c0.3,0,0.5,0,0.7,0s0.2,0.1,0.2,0.3h0.6v-3.4h-0.6
			c0,0.2-0.1,0.4-0.2,0.5c-0.2,0.1-0.4,0.2-0.7,0.2h-8.8v-10.9c0-0.3,0.2-0.5,0.7-0.5v-0.6L66.8,437.1L66.8,437.1z M85,437.1v0.6
			c0.4,0,0.6,0,0.7,0.1s0.2,0.2,0.2,0.4v8.3c0,0.7,0.2,1.3,0.5,1.9s0.7,1.2,1.4,1.7s1.4,0.9,2.4,1.1c1,0.3,2.1,0.4,3.4,0.4
			s2.5-0.1,3.4-0.4c1-0.3,1.8-0.7,2.4-1.1c0.6-0.5,1.1-1.1,1.4-1.7s0.5-1.2,0.5-1.9v-8.3c0-0.3,0.2-0.5,0.7-0.5v-0.6h-4.6v0.6
			c0.5,0,0.8,0.2,0.8,0.5v7.5c0,1.1-0.4,1.9-1.1,2.5c-0.8,0.6-1.9,0.9-3.5,0.9s-2.7-0.3-3.5-0.9s-1.2-1.5-1.2-2.5v-7.5
			c0-0.3,0.3-0.5,0.7-0.5v-0.6H85L85,437.1z M106.7,437.1v0.6c0.2,0,0.3,0,0.5,0.1s0.2,0.2,0.2,0.4v12.2c0,0.2-0.1,0.3-0.2,0.4
			c-0.2,0.1-0.3,0.1-0.5,0.1v0.6h10c1,0,1.8-0.1,2.5-0.3c0.7-0.2,1.2-0.5,1.6-0.9c0.4-0.3,0.7-0.8,0.9-1.2c0.2-0.5,0.3-0.9,0.3-1.4
			s-0.1-0.9-0.2-1.3c-0.2-0.4-0.3-0.8-0.6-1.1c-0.2-0.3-0.5-0.6-0.8-0.8c-0.3-0.2-0.6-0.4-0.9-0.5l0,0c0.3-0.1,0.5-0.3,0.8-0.5
			s0.5-0.5,0.7-0.7c0.2-0.3,0.4-0.6,0.5-0.9s0.2-0.7,0.2-1.1c0-0.5-0.1-0.9-0.3-1.4c-0.2-0.4-0.5-0.8-0.9-1.2s-0.9-0.6-1.5-0.8
			c-0.6-0.2-1.3-0.3-2.1-0.3L106.7,437.1L106.7,437.1z M136.6,437.1v0.6c0.5,0,0.8,0.2,0.8,0.5v12.2c0,0.3-0.3,0.5-0.8,0.5v0.6h9.3
			c1.3,0,2.4-0.2,3.3-0.6c0.9-0.4,1.6-1,2.2-1.6c0.6-0.7,1-1.4,1.2-2.3c0.3-0.9,0.4-1.8,0.4-2.7c0-0.9-0.2-1.8-0.4-2.7
			c-0.3-0.9-0.7-1.6-1.2-2.3c-0.6-0.7-1.3-1.2-2.3-1.6c-0.9-0.4-2-0.6-3.3-0.6H136.6z M232.8,437.1v0.6c0.1,0,0.1,0.1,0.2,0.1
			c0.1,0,0.1,0.1,0.1,0.2c0,0.2,0,0.4-0.1,0.5c-0.1,0.2-0.2,0.4-0.3,0.7l-4.9,10.6c-0.1,0.2-0.2,0.4-0.4,0.6s-0.4,0.3-0.6,0.4v0.6
			h4.4v-0.6c-0.2,0-0.3,0-0.4-0.1c-0.1,0-0.2-0.1-0.2-0.3c0-0.1,0-0.2,0.1-0.4c0.1-0.1,0.1-0.3,0.2-0.5l0.9-1.8h7l0.9,1.8
			c0.1,0.2,0.2,0.3,0.2,0.4s0,0.2,0,0.4c0,0.2,0,0.3-0.2,0.4c-0.1,0.1-0.2,0.1-0.4,0.1v0.5h4.6v-0.6c-0.2,0-0.3-0.1-0.4-0.2
			c-0.1-0.1-0.2-0.2-0.4-0.4l-5.3-11.1c-0.1-0.2-0.2-0.5-0.3-0.7s-0.2-0.3-0.2-0.5s0-0.3,0.1-0.3s0.2,0,0.2-0.1v-0.6h-4.8V437.1z
			 M246.9,437.1v0.6c0.4,0,0.6,0,0.7,0.1c0.1,0.1,0.2,0.2,0.2,0.4v8.3c0,0.7,0.2,1.3,0.5,1.9s0.7,1.2,1.4,1.7
			c0.6,0.5,1.4,0.9,2.4,1.1s2.1,0.4,3.4,0.4s2.5-0.1,3.4-0.4c1-0.3,1.8-0.7,2.4-1.1c0.6-0.5,1.1-1.1,1.4-1.7s0.4-1.2,0.4-1.9v-8.3
			c0-0.3,0.3-0.5,0.7-0.5v-0.6h-4.6v0.6c0.5,0,0.8,0.2,0.8,0.5v7.5c0,1.1-0.4,1.9-1.1,2.5c-0.8,0.6-1.9,0.9-3.5,0.9
			s-2.7-0.3-3.5-0.9s-1.1-1.5-1.1-2.5v-7.5c0-0.3,0.3-0.5,0.7-0.5v-0.6H246.9L246.9,437.1z M314,437.1v0.6c0.5,0,0.7,0.2,0.7,0.5
			v12.2c0,0.3-0.2,0.5-0.7,0.5v0.6h9.2c1.3,0,2.4-0.2,3.3-0.6s1.6-1,2.2-1.6c0.6-0.7,1-1.4,1.2-2.3c0.3-0.9,0.4-1.8,0.4-2.7
			c0-0.9-0.1-1.8-0.4-2.7c-0.3-0.9-0.7-1.6-1.3-2.3c-0.6-0.7-1.3-1.2-2.2-1.6c-0.9-0.4-2-0.6-3.3-0.6H314z M404,437.1v0.6
			c0.3,0,0.6,0,0.7,0.1s0.2,0.2,0.2,0.4v12.3c0,0.2-0.1,0.3-0.2,0.4s-0.4,0.1-0.7,0.1v0.6h5V451c-0.6,0-0.9-0.2-0.9-0.5v-12.3
			c0-0.3,0.3-0.5,0.9-0.5v-0.6H404L404,437.1z M414.6,437.1v0.6c0.4,0,0.6,0.1,0.6,0.5v12.3c0,0.3-0.2,0.5-0.6,0.5v0.6h4V451
			c-0.5,0-0.7-0.2-0.7-0.5V441l8.1,8.6c0.3,0.3,0.5,0.6,0.7,0.8c0.2,0.2,0.3,0.3,0.3,0.4s-0.1,0.2-0.2,0.2v0.6h4.3V451
			c-0.4,0-0.6-0.2-0.6-0.5v-12.3c0-0.3,0.2-0.5,0.6-0.5v-0.6h-4v0.6c0.4,0,0.6,0.1,0.6,0.5v8.9l-7.9-8.3c-0.5-0.5-0.7-0.8-0.7-0.9
			s0-0.1,0.2-0.2v-0.6H414.6z M110.6,439.5h5.8c0.3,0,0.5,0,0.8,0s0.5,0.1,0.7,0.2s0.3,0.3,0.5,0.5s0.2,0.5,0.2,0.8
			c0,0.7-0.2,1.1-0.7,1.3c-0.5,0.2-1,0.4-1.5,0.4h-5.8V439.5z M140.5,439.5h4.3c0.7,0,1.3,0,2,0.1c0.6,0.1,1.1,0.3,1.6,0.6
			c0.5,0.3,0.8,0.8,1.1,1.4s0.4,1.5,0.4,2.6s-0.1,2-0.4,2.6c-0.3,0.6-0.6,1.1-1.1,1.4s-1,0.6-1.6,0.7s-1.3,0.2-2,0.2h-4.3V439.5
			L140.5,439.5z M317.9,439.5h4.3c0.7,0,1.3,0,1.9,0.1s1.1,0.3,1.6,0.6c0.5,0.3,0.8,0.8,1.1,1.4s0.4,1.5,0.4,2.6s-0.2,2-0.4,2.6
			c-0.3,0.6-0.6,1.1-1.1,1.4s-1,0.6-1.6,0.7s-1.2,0.2-1.9,0.2h-4.3V439.5L317.9,439.5z M235.1,439.9l2.7,5.5h-5L235.1,439.9z
			 M302.5,442.9v2.7h7.7v-2.7H302.5z M351.6,442.9v2.7h7.7v-2.7H351.6z M110.6,445.2h5.2c1.1,0,1.9,0.1,2.4,0.5
			c0.5,0.3,0.7,0.8,0.7,1.5c0,0.6-0.2,1-0.5,1.4c-0.4,0.3-1.1,0.5-2.1,0.5h-5.7V445.2z"/>
	</g>
</g>
</svg>
