<?xml version="1.0" encoding="utf-8"?>
<!-- Generator: Adobe Illustrator 26.0.2, SVG Export Plug-In . SVG Version: 6.00 Build 0)  -->
<svg version="1.1" id="Calque_1" xmlns="http://www.w3.org/2000/svg" xmlns:xlink="http://www.w3.org/1999/xlink" x="0px" y="0px"
	 width="437.9px" height="561px" viewBox="0 0 437.9 561" style="enable-background:new 0 0 437.9 561;" xml:space="preserve">
<style type="text/css">
	.st0{fill:#E30613;}
	.st1{fill:#FFFF00;}
	.st2{fill:#FFFFFF;}
</style>
<path d="M218.9,553.6C130.3,501,74.5,449.2,43.3,390.8C10.9,330.1,6.5,263,6.5,199.5c0-48,8-130,9.8-147.9
	C33,43.6,116.3,6.4,219,6.4s186,37.2,202.7,45.2c1.8,17.9,9.8,99.9,9.8,147.9c0,42.1-2.2,73.6-7.2,102.3
	c-5.8,33.2-15.5,62.3-29.7,88.9C363.4,449.2,307.6,501,218.9,553.6z"/>
<path class="st0" d="M218.9,12.8c96,0,174.8,32.9,196.7,43.1c2.3,23.3,9.4,98.6,9.4,143.7c0,41.8-2.2,73-7.1,101.2
	c-5.6,32.5-15.1,61-29,87c-30.2,56.6-84.3,107-170,158.4C133.3,494.8,79.2,444.4,49,387.8c-13.9-26-23.4-54.5-29-87
	c-4.9-28.2-7.1-59.5-7.1-101.2c0-45.1,7.1-120.4,9.4-143.7C44.3,45.7,123,12.8,219,12.8 M219.1,0C101.3,0,10.2,47.5,10.2,47.5
	S0,144.7,0,199.5C0,348.3,27.4,448.2,219,561c191.6-112.7,219-212.7,219-361.5c0-54.9-10.2-152-10.2-152S336.6,0,218.9,0H219.1z"/>
<g id="Calque_3">
	<path class="st1" d="M384.7,106.3c-2.5-6.7-4.8-13.5-7.3-20.2l0.3,0.4c-6-3.3-12.2-6.2-18.5-8.8l-4.8-1.9l-4.8-1.8
		c-3.2-1.2-6.4-2.3-9.7-3.3c-13-4.2-26.3-7.6-39.7-10.2c-26.9-5-54.3-7.3-81.6-6.9c-27.3,0-54.6,2.5-81.4,7.7
		c-13.4,2.7-26.6,6.2-39.5,10.4c-3.2,1.1-6.4,2.1-9.6,3.3l-4.8,1.7l-4.8,1.9C72.2,81.1,66,83.9,60,87.1l0.6-0.8
		c-1.2,3.4-2.6,6.7-3.9,10s-2.7,6.7-4.1,10c0.8-3.5,1.6-7,2.5-10.5s1.7-7,2.6-10.4l0.1-0.5l0.5-0.3C69.9,77,82.5,70.7,95.7,66
		c13.1-4.8,26.4-8.7,40-11.7c27.2-5.8,55-8.4,82.9-8c27.8,0,55.5,2.9,82.7,8.8c13.5,3.1,26.9,7.1,39.9,11.9c3.2,1.2,6.5,2.5,9.6,3.9
		l4.8,2l4.7,2.2c6.3,2.9,12.4,6.3,18.2,10.1l0.2,0.2v0.3C380.9,92.5,382.9,99.4,384.7,106.3z"/>
	<path class="st1" d="M48.8,194.6c0.3,31.6,1.3,63.2,5.9,94.4c4.5,31.3,13.2,61.8,28.2,89.4c7.5,13.7,16.5,26.6,26.6,38.6
		c10.2,11.9,21.2,23,33.2,33.2c11.9,10.2,24.5,19.6,37.5,28.4c13,8.7,26.5,16.9,40.1,24.7H217c13.6-7.8,27.1-15.9,40.1-24.6
		s25.5-18.2,37.5-28.4c12-10.1,23.1-21.2,33.3-33.2c10.1-12,19-24.9,26.6-38.6c15-27.6,23.7-58.3,28.2-89.4s5.6-62.8,5.9-94.4
		c0.2,31.6-0.3,63.2-4.3,94.6c-2,15.7-5.1,31.2-9.5,46.4c-8.6,30.7-23.5,59.3-43.8,83.9c-10.1,12.3-21.2,23.7-33.1,34.2
		s-24.5,20.3-37.5,29.4s-26.5,17.5-40.1,25.6l-1.6,0.9l-1.6-0.9c-13.6-8-27.1-16.5-40.1-25.6s-25.6-18.9-37.5-29.4s-23-22-33.1-34.2
		c-20.3-24.5-35.2-53-43.9-83.7C58.2,320.5,55,305,53,289.3C49,257.7,48.5,226.1,48.8,194.6z"/>
	<path class="st2" d="M106,272.2c0,0,24.9-0.8,38-11.4s52.3-27.2,63.8-23.1c-4.9-5.1-10.3-9.8-16-14.1c0,0,32.7,0.4,50.3,46.6
		c0,0-6.1-11.8-29.8-11.8S146,284.1,137,284.1s-13.5-3.4-13.5-3.4s16.8-1.1,18.8-8.1C142.4,272.6,117.1,283.2,106,272.2z"/>
	<path class="st2" d="M242.1,274.6c-9.7-5.6-20.7-8.6-31.9-8.6c-23.7,0-71.9,29.4-71.9,29.4h15.5l-1.2,10.2
		C176.7,305.7,202.9,274.6,242.1,274.6z"/>
	<path class="st2" d="M275.2,299.2c0,0,6.5-19-19.6-19c-29,0-28.6,12.1-42.1,12.1l15.1,4.1c0,0-5.7,5.3-11.8,5.3
		c-51.1,0-47.8,13.1-71.9,13.1c17.6,0,21.2,3.7,21.2,3.7c-14.7,0-31.3,12.3-31.3,34.7c11.1-11.1,17-5.3,17-5.3
		c-34.5,34.5-5.7,65.4-5.7,65.4c0-26.6,11.8-25.8,11.8-25.8c0,36,35.5,40,35.5,53.1c0-9.8-5.3-20.4-5.3-39.6c0,13.9,20.4,27,20.4,27
		S198,386.6,219,386.6s23.2,31.5,46.1,31.5c9.8,0,19.2-4.5,19.2-11.4S281,385,281,385c-7.2,7.1-15.5,7-15.5-8.6s12.7-26.1,20.8-26.1
		c8.2,0,13.1-2.5,13.1,12.3c10.2,0,27-23.7,27-40.9S275.2,299.2,275.2,299.2z M274.9,305.7c0,10.8-18.1,3.1-18.1-2.8
		S274.9,298.2,274.9,305.7z M196.2,382.8c0-8.9-19.6-0.6-19.6,12.6c0,0-6.6-25.6,21.5-53.6l-12.8-8.9c0,0,32.1-6.8,62.2-6.8
		s33.1,6.7,40.2,6.7C242.4,332.9,209.2,369.8,196.2,382.8L196.2,382.8z"/>
</g>
<g id="Calque_4">
	<path class="st2" d="M55.4,161.6V124l8.6-1.8c1.1-0.2,2.1-0.3,3.2-0.3c1,0,1.9,0.2,2.7,0.7c0.8,0.5,1.5,1.2,1.9,2
		c0.5,1.1,0.8,2.3,0.7,3.5v3.3c0,0.7-0.1,1.5-0.3,2.2c-0.2,0.7-0.5,1.5-0.9,2.1c-0.5,0.7-1.1,1.3-1.7,1.8c-0.8,0.6-1.8,1-2.7,1.3
		v0.2c0.9-0.2,1.9-0.2,2.8-0.1c0.6,0.1,1.3,0.3,1.7,0.8c0.4,0.5,0.7,1.1,0.9,1.7c0.2,0.9,0.3,1.8,0.2,2.7v7.4c0,0.8,0,1.6,0.1,2.4
		c0.1,0.6,0.2,1.1,0.3,1.7c0.1,0.5,0.2,0.9,0.4,1.3l0.3,1.1l-7.4,1.6c-0.3-0.5-0.5-1.1-0.7-1.7c-0.2-1-0.3-2-0.3-2.9v-10.2
		c0-0.4-0.1-0.9-0.3-1.3c-0.1-0.3-0.4-0.6-0.8-0.7c-0.5-0.1-1-0.1-1.5,0v17.6L55.4,161.6z M62.7,138.2l0.9-0.2
		c0.5-0.1,1-0.4,1.3-0.8c0.3-0.6,0.5-1.3,0.4-2v-5.6c0.1-0.6-0.1-1.3-0.4-1.8c-0.4-0.3-0.9-0.4-1.3-0.2l-0.9,0.2V138.2z"/>
	<path class="st2" d="M77.7,125.5c0-1.1,0.2-2.3,0.7-3.3c0.5-0.9,1.1-1.8,1.9-2.5s1.7-1.3,2.7-1.8c1-0.4,2.1-0.8,3.2-1
		s2.1-0.3,3.2-0.2c1,0,1.9,0.3,2.8,0.7c0.8,0.4,1.4,1,1.9,1.8c0.5,0.9,0.7,2,0.7,3.1v25.4c0,1.1-0.2,2.3-0.7,3.3
		c-0.5,0.9-1.1,1.8-1.9,2.5s-1.7,1.3-2.8,1.7c-1,0.4-2.1,0.8-3.2,1s-2.1,0.3-3.2,0.2c-1,0-1.9-0.3-2.8-0.7c-0.8-0.4-1.5-1-1.9-1.8
		c-0.5-0.9-0.7-2-0.7-3.1L77.7,125.5z M87.6,124.9c0-0.5-0.1-1.1-0.2-1.6s-0.5-0.8-1-0.7l0,0h-0.1c-0.5,0.1-1,0.5-1.1,1
		s-0.2,1.1-0.2,1.6v23.1c0,0.5,0.1,1.1,0.2,1.6s0.5,0.8,1,0.7l0,0h0.1c0.5-0.1,1-0.5,1.1-1s0.2-1.1,0.2-1.6V124.9z"/>
	<path class="st2" d="M117.4,144.2c0,1.1-0.2,2.3-0.7,3.3c-0.5,0.9-1.1,1.7-1.9,2.4s-1.8,1.2-2.8,1.6c-1.1,0.4-2.2,0.7-3.3,0.9
		c-1.1,0.2-2.2,0.2-3.3,0.1c-1-0.1-1.9-0.3-2.8-0.8c-0.8-0.4-1.4-1-1.9-1.7c-0.5-0.9-0.7-2-0.7-3.1v-31.5l7.4-1.1v30.3
		c0,0.5,0.1,1.1,0.2,1.6s0.5,0.8,1,0.7h0.1c0.5,0,1-0.5,1.1-1s0.2-1.1,0.2-1.6v-30.4l7.4-1.1L117.4,144.2z"/>
	<path class="st2" d="M122.7,149.6V112l13.8-1.8v5.4l-6.4,0.8v8.6l6.2-0.8v5.4l-6.2,0.8v12.8l6.4-0.8v5.4L122.7,149.6z"/>
	<path class="st2" d="M141.4,147.3v-37.6l10.3-1l3.8,24h0.1v-24.4l5.8-0.6v37.6l-8.8,0.9l-5.2-29.1l-0.1,0.1v29.5L141.4,147.3z"/>
	<path class="st2" d="M179.8,144v-37.6l10.3-0.5l3.8,24.2h0.1v-24.4l5.8-0.3V143l-8.9,0.4l-5.3-29.3l-0.1,0.1v29.5L179.8,144z"/>
	<path class="st2" d="M205.3,111.5c0-1.1,0.2-2.2,0.7-3.2c0.5-0.9,1.1-1.6,1.9-2.1c0.9-0.6,1.8-1,2.8-1.2c2.2-0.5,4.5-0.5,6.7,0
		c1,0.2,1.9,0.6,2.8,1.2c0.8,0.5,1.5,1.3,1.9,2.1c0.5,1,0.8,2.1,0.7,3.2v25.4c0,1.1-0.2,2.2-0.7,3.2c-0.5,0.8-1.1,1.6-1.9,2.1
		c-0.9,0.6-1.8,1-2.8,1.2c-2.2,0.5-4.5,0.5-6.7,0c-1-0.2-1.9-0.6-2.8-1.2c-0.8-0.5-1.4-1.3-1.9-2.1c-0.5-1-0.8-2.1-0.7-3.2V111.5z
		 M215.3,112.6c0-0.5-0.1-1.1-0.2-1.6c-0.1-0.5-0.6-0.9-1.1-0.8c-0.5-0.1-1,0.3-1.1,0.9c-0.1,0.5-0.2,1.1-0.2,1.6v23
		c0,0.5,0.1,1.1,0.2,1.6c0.1,0.5,0.6,0.9,1.1,0.8c0.5,0.1,1-0.3,1.1-0.9c0.1-0.5,0.2-1.1,0.2-1.6V112.6z"/>
	<path class="st2" d="M228,142.9v-37.7l8.8,0.2c1.1,0,2.2,0.2,3.3,0.5c1,0.3,2,0.7,2.8,1.3c0.8,0.6,1.5,1.5,1.9,2.4
		c0.5,1.1,0.8,2.4,0.7,3.6v3.3c0,0.7-0.1,1.4-0.3,2.1s-0.5,1.3-0.9,1.9c-0.5,0.6-1.1,1.1-1.8,1.4c-0.9,0.4-1.8,0.6-2.8,0.6v0.2
		c1,0.1,2,0.3,2.9,0.6c0.7,0.2,1.3,0.7,1.8,1.2c0.4,0.6,0.7,1.3,0.9,2c0.2,0.9,0.3,1.8,0.2,2.8v7.4c0,0.8,0,1.6,0.1,2.4
		c0.1,0.6,0.2,1.2,0.3,1.8c0.1,0.5,0.2,1,0.4,1.4l0.3,1.1l-7.5-0.2c-0.3-0.6-0.5-1.2-0.7-1.9c-0.2-1-0.3-2-0.3-3v-10.2
		c0-0.5-0.1-0.9-0.3-1.4c-0.2-0.4-0.4-0.7-0.8-0.9c-0.5-0.3-1-0.4-1.6-0.4V143L228,142.9z M235.5,121.2h0.9c0.5,0.1,1-0.1,1.3-0.5
		c0.3-0.6,0.5-1.2,0.4-1.9v-5.5c0.1-0.7-0.1-1.3-0.4-1.9c-0.3-0.4-0.8-0.6-1.3-0.5h-0.9V121.2z"/>
	<path class="st2" d="M250.9,143.5v-37.6l11.4,0.8l3.2,25.5h0.1l3.7-25l10.4,0.7v37.6L273,145v-27.6l-0.1-0.1l-4.5,27.4l-6.4-0.4
		l-4.3-27.4h-0.1V144L250.9,143.5z"/>
	<path class="st2" d="M289.5,109l9.8,1.1l4.5,38.1l-7.7-0.8l-0.8-10.3l-3.5-0.4l-1.1,10.1l-6.6-0.7L289.5,109z M294.7,131.5l-1-15.5
		h-0.2l-1.2,15.3L294.7,131.5z"/>
	<path class="st2" d="M307.9,148.7V111l10.3,1.4l3.8,24.9h0.1V113l5.8,0.8v37.6l-8.8-1.2l-5.2-30.3l-0.1,0.1v29.5L307.9,148.7z"/>
	<path class="st2" d="M333,114.6l8.6,1.5c1.1,0.2,2.2,0.5,3.2,0.9s1.9,0.9,2.8,1.6c0.8,0.7,1.4,1.5,1.9,2.4c0.5,1,0.8,2.2,0.8,3.4
		v23.9c0,1.1-0.2,2.1-0.7,3.1c-0.4,0.8-1.1,1.4-1.9,1.9c-0.8,0.4-1.7,0.7-2.7,0.7c-1.1,0.1-2.1,0-3.2-0.2l-8.6-1.5L333,114.6z
		 M340.4,148.1l1.3,0.2c0.4,0.1,0.9-0.1,1.1-0.6v-0.1c0.1-0.5,0.2-1.1,0.2-1.6v-21.9c0-0.5-0.1-1.1-0.2-1.6s-0.5-0.9-1.1-1l-1.3-0.2
		V148.1z"/>
	<path class="st2" d="M356,156.3v-37.6l7.3,1.4v37.6L356,156.3z"/>
	<path class="st2" d="M369.3,158.8v-37.6l13.6,2.9v5.4l-6.4-1.4v8.6l6.1,1.3v5.4l-6.1-1.3V155l6.4,1.4v5.4L369.3,158.8z"/>
	<path class="st2" d="M164.8,200.8v-37.6l8.8-0.6c1.1-0.1,2.2,0,3.3,0.1c1,0.2,1.9,0.5,2.8,1.1c0.8,0.6,1.5,1.3,1.9,2.2
		c0.5,1.1,0.7,2.3,0.7,3.6v3.3c0,0.7-0.1,1.4-0.3,2.1c-0.2,0.7-0.5,1.4-0.9,2c-0.5,0.6-1.1,1.2-1.8,1.6c-0.9,0.5-1.8,0.8-2.8,0.9
		v0.1c1,0,1.9,0.1,2.9,0.3c0.7,0.2,1.3,0.5,1.8,1c0.4,0.5,0.7,1.2,0.9,1.9c0.2,0.9,0.3,1.8,0.2,2.7v7.4c0,0.8,0,1.6,0.1,2.4
		c0.1,0.6,0.2,1.2,0.3,1.7s0.2,0.9,0.4,1.3l0.3,1.1l-7.5,0.5c-0.3-0.6-0.5-1.2-0.7-1.8c-0.2-1-0.3-2-0.3-3V185
		c0-0.5-0.1-0.9-0.3-1.3c-0.1-0.4-0.4-0.7-0.8-0.9c-0.5-0.2-1.1-0.3-1.6-0.2v17.6L164.8,200.8z M172.2,178.4h0.9
		c0.5,0,1-0.2,1.3-0.6c0.3-0.6,0.5-1.2,0.4-1.9v-5.5c0.1-0.6-0.1-1.3-0.4-1.8c-0.4-0.3-0.8-0.5-1.3-0.4h-0.9V178.4z"/>
	<path class="st2" d="M205,192.6c0,1.1-0.2,2.2-0.7,3.2c-0.5,0.9-1.1,1.6-1.9,2.2c-0.8,0.6-1.8,1-2.8,1.3c-1.1,0.3-2.2,0.5-3.3,0.5
		s-2.2,0-3.3-0.3c-1-0.2-1.9-0.6-2.8-1.1c-0.8-0.5-1.5-1.2-1.9-2c-0.5-1-0.8-2.1-0.7-3.2v-31.5l7.4-0.3v30.3c0,0.5,0.1,1.1,0.2,1.6
		c0.1,0.5,0.6,0.9,1.1,0.8c0.5,0,1-0.4,1.1-0.9s0.2-1.1,0.2-1.6v-30.3l7.4-0.3V192.6z"/>
	<path class="st2" d="M223.6,196h-0.1c-0.5,1.1-1.3,2-2.4,2.5c-1,0.6-2.2,0.8-3.4,0.9c-2.1,0.1-4.1-0.6-5.6-1.9
		c-1.3-1.3-2-3.1-1.9-5v-25.3c0-1.1,0.2-2.2,0.7-3.2c0.5-0.8,1.1-1.6,1.9-2.1c0.9-0.6,1.8-1,2.8-1.2c2.2-0.5,4.5-0.5,6.7,0
		c1,0.2,1.9,0.6,2.8,1.2c0.8,0.5,1.5,1.3,1.9,2.1c0.5,1,0.8,2.1,0.7,3.2v7.1h-7.4v-5.9c0-0.5-0.1-1.1-0.2-1.6
		c-0.1-0.5-0.6-0.9-1.1-0.8c-0.5-0.1-1,0.3-1.1,0.8s-0.2,1.1-0.2,1.6v22.9c0,0.5,0.1,1.1,0.2,1.6c0.1,0.5,0.6,0.9,1.1,0.9
		c0.5,0.1,1-0.3,1.1-0.8s0.2-1.1,0.2-1.6V185h-1.8v-5.4h9.3v19.2h-3.6L223.6,196z"/>
	<path class="st2" d="M232.9,161.1l8.8,0.3c1.1,0,2.2,0.2,3.3,0.5c1,0.3,2,0.7,2.8,1.4c0.8,0.6,1.5,1.5,1.9,2.4
		c0.5,1.1,0.8,2.4,0.7,3.6v2.9c0,0.8-0.1,1.7-0.2,2.5c-0.1,0.7-0.4,1.4-0.8,2c-0.4,0.6-1,1.1-1.7,1.5c-0.9,0.5-1.9,0.8-2.9,0.9v0.2
		c0.9,0.1,1.7,0.3,2.5,0.7c0.7,0.3,1.3,0.8,1.7,1.4c0.5,0.7,0.8,1.6,1,2.5c0.2,1.2,0.4,2.5,0.3,3.8v3.2c0,1.4-0.2,2.7-0.6,4
		c-0.3,1-0.8,1.8-1.6,2.5s-1.7,1.1-2.7,1.3c-1.2,0.3-2.5,0.4-3.8,0.3l-8.8-0.3L232.9,161.1z M242.9,169.2c0.1-0.7-0.1-1.3-0.4-1.9
		c-0.3-0.4-0.8-0.6-1.3-0.5h-0.9V177h0.9c0.5,0.1,1-0.1,1.3-0.4c0.3-0.6,0.5-1.2,0.4-1.9V169.2z M240.3,193.6h0.9
		c0.5,0.1,0.9,0,1.3-0.3c0.3-0.4,0.5-0.9,0.4-1.4v-8.2c0.1-0.5-0.1-1.1-0.4-1.5c-0.4-0.3-0.9-0.4-1.3-0.4h-0.9V193.6z"/>
	<path class="st2" d="M260.9,181.1l-6.2-19.2l7.8,0.5l2.4,15.1h0.1l2.3-14.8l6.7,0.5l-5.7,18.4v18.9l-7.4-0.5V181.1z"/>
</g>
</svg>
