<?xml version="1.0" encoding="utf-8"?>
<!-- Generator: Adobe Illustrator 26.0.2, SVG Export Plug-In . SVG Version: 6.00 Build 0)  -->
<svg version="1.1" id="Calque_1" xmlns="http://www.w3.org/2000/svg" xmlns:xlink="http://www.w3.org/1999/xlink" x="0px" y="0px"
	 width="1000px" height="1000px" viewBox="0 0 1000 1000" style="enable-background:new 0 0 1000 1000;" xml:space="preserve">
<style type="text/css">
	
		.st0{clip-path:url(#SVGID_00000119837968553690976750000013274494399225088387_);fill-rule:evenodd;clip-rule:evenodd;fill:#0E2E4F;}
	.st1{fill-rule:evenodd;clip-rule:evenodd;fill:#0E2E4F;}
	.st2{fill:#0E2E4F;}
	
		.st3{clip-path:url(#SVGID_00000072280103143902070610000009276388791756317631_);fill-rule:evenodd;clip-rule:evenodd;fill:#0E2E4F;}
</style>
<g>
	<g>
		<defs>
			<rect id="SVGID_1_" y="128.7" width="1000" height="742.6"/>
		</defs>
		<clipPath id="SVGID_00000020397337090553288050000015985581058678630810_">
			<use xlink:href="#SVGID_1_"  style="overflow:visible;"/>
		</clipPath>
		
			<path style="clip-path:url(#SVGID_00000020397337090553288050000015985581058678630810_);fill-rule:evenodd;clip-rule:evenodd;fill:#0E2E4F;" d="
			M546.2,436.4c-0.6-0.1-12.6-3.8-12.6-3.8s-66.9-153.7-206.1-218.9c-0.5-0.2,31.2,61.3,29.6,138.5c-1.9,90.6-37.8,106.4-37.8,106.4
			l40.2,0.8c0,0-73.4,28.3-134,81.1c-0.4,0.3-47.3,0.8-47.3,0.8l17.4,29.1l-41.8,48.1l-65.5-182c0,0-8.6,190.7-10.9,236.4
			c0,0.5-35.7,25.1-44.9,113.4c-4,37.8,3.2,85.1,3.2,85.1S103.4,709,161,653.8l-7.1,28.5c0,0,54.9-47.3,143.3-47.3
			c1.7,0-67.7,95.4-77.2,140.1c-0.1,0.5,156.1-91.3,248.9-126.8c0.4-0.2,81.3,7.9,81.3,7.9s63,40.2,133,85.9l-18-62.2
			c0,0,10.4-0.6,126,19.6c1.8,0.3,43.3-35.4,43.3-35.4s93.8-7.1,165.4-56C1001,607.4,885.8,514.5,546.2,436.4 M760.3,675.1
			l13.5-16.9c0,0-25.9,14.7-58.2,10.2c-0.3,0,15.4-11.9,14.7-21.2c0-0.3-31.8,11.4-60.1,5.9c-0.3-0.1,19.2-17.3,19.2-17.3
			s-24.2,9.5-41.6,5.9c-0.2-0.1,10-11.7,10-11.7l-23.1-8.6h87l-17.8,14c0,0,27.6,10.4,107.4,14.3C811.9,650,795.5,669.4,760.3,675.1
			z M872.6,597.6c-8.3,7-23.8,20.8-23.8,20.8l8.6-26c0,0-115.8-1.6-201.6-67.8c-0.5-0.4,46.5,51.2,46.5,51.2L573,564.7l-7.1,48.2
			l-13.9-66c0,0-10.4,28.8-16.1,72.1c-1.7,12.6-7.7-46.9-7.7-87.4c0-1.3-16.7,42.2-23.2,85.5c0,0-10-47.5-8.7-84.8
			c0-0.9-21.1,63.7-21.1,81.3c0,0.7-8.2-73.7-8.2-73.7s-11.8,30.9-12.4,30.9c-72.9,6.3-129.8,23.1-241,54.6
			c-0.8,0.2-59,16.6-59,16.6s91-110.2,224.6-160c0,0,29.1-87.5-3.9-206.6c-0.2-0.6,72.2,45.5,126,191.7c0,0,225.2,17.9,389.4,129.5
			C891.3,597,876.8,594.8,872.6,597.6z"/>
	</g>
</g>
<path class="st1" d="M977.3,242v18.5c-20.2-7.2-38.6-10.9-55.2-10.9c-12.2,0-22,2.4-29.5,7.2c-7.4,4.8-11.1,11.2-11.1,19.3
	c0,11.3,9.5,21.4,28.6,30.2c17.8,7.8,35.5,15.5,53.1,23.3c19.2,10.9,28.8,24.6,28.8,41c0,17.2-8.2,30.3-24.5,39.3
	c-14.4,7.9-33.3,11.9-56.9,11.9c-16.8,0-34.6-1.8-53.6-5.3v-18.3c20.2,7.8,39.6,11.7,58.4,11.7c31.2,0,46.8-11.2,46.8-33.7
	c0-12.3-9.3-22.9-27.8-31.9c-17.2-7.6-34.5-15.2-51.9-22.9c-18.5-10.3-27.8-23.4-27.8-39c0-14.2,6.6-25.3,19.8-33.1
	c12.9-7.8,30.6-11.6,53.2-11.6C943.6,237.8,960.1,239.2,977.3,242"/>
<path class="st1" d="M73.3,216.2l30-71.1c1.5-3.4,2.2-5.2,2.2-6.9c0-1.5-1-2.8-2.9-3.7c-1.5-0.7-4.2-1.5-8.3-2.3v-2.2h24.9
	l37.4,86.2h-14.1l-12.2-28.6H93.9l-11.5,28.6H73.3 M112.4,143.6l-16.6,39.1h32.9L112.4,143.6z"/>
<path class="st1" d="M238.7,216.2v-72.7c0-3.8-0.9-6.4-2.6-7.8c-1.9-1.6-5.9-2.7-12-3.4v-2.2h73.5v7.7l-38,0c-4,0-6,0.3-7,1.3
	c-0.9,0.9-1.3,3.2-1.3,6.8v55.2c0,3.8,0.8,6.1,2.5,6.8c0.9,0.4,3.3,0.5,8.6,0.5l35.5,0l0.1,7.7L238.7,216.2"/>
<path class="st1" d="M122.8,241.7v18.5c-20.2-7.3-38.7-10.9-55.3-10.9c-12.2,0-22.1,2.4-29.5,7.2c-7.4,4.8-11.2,11.3-11.2,19.3
	c0,11.3,9.6,21.4,28.7,30.3c17.8,7.8,35.6,15.5,53.2,23.3c19.2,11,28.8,24.7,28.8,41.1c0,17.3-8.2,30.4-24.6,39.4
	c-14.4,7.9-33.4,11.9-57,11.9c-16.8,0-34.7-1.8-53.7-5.3v-18.3c20.2,7.8,39.7,11.7,58.5,11.7c31.2,0,46.9-11.2,46.9-33.7
	c0-12.3-9.3-22.9-27.9-31.9c-17.3-7.6-34.6-15.2-52-22.9C9.3,311,0,297.9,0,282.2c0-14.3,6.6-25.3,19.8-33.2
	c12.9-7.8,30.7-11.7,53.3-11.7C89,237.4,105.6,238.8,122.8,241.7"/>
<rect x="250" y="169.2" class="st2" width="47.9" height="7.6"/>
<path class="st1" d="M169.5,216.2v-72.7c0-3.8-0.9-6.4-2.6-7.8c-1.9-1.6-5.9-2.7-12-3.4v-2.2h27.2l0,71.1c0,3.8,0.8,6.1,2.5,6.8
	c0.9,0.4,3.2,0.6,8.6,0.6l35.5-0.1l0.1,7.7L169.5,216.2"/>
<g>
	<g>
		<defs>
			<rect id="SVGID_00000135679017178434509120000003782457112700741252_" y="128.7" width="1000" height="742.6"/>
		</defs>
		<clipPath id="SVGID_00000046306784810659674850000002504712267532418737_">
			<use xlink:href="#SVGID_00000135679017178434509120000003782457112700741252_"  style="overflow:visible;"/>
		</clipPath>
		
			<path style="clip-path:url(#SVGID_00000046306784810659674850000002504712267532418737_);fill-rule:evenodd;clip-rule:evenodd;fill:#0E2E4F;" d="
			M61.3,130.7v8.9c-8.7-3.5-16.7-5.2-23.9-5.2c-5.3,0-9.5,1.2-12.7,3.5c-3.2,2.3-4.8,5.4-4.8,9.3c0,5.5,4.1,10.3,12.4,14.6
			c7.7,3.8,15.3,7.5,23,11.3c8.3,5.3,12.4,11.9,12.4,19.8c0,8.3-3.5,14.7-10.6,19c-6.2,3.8-14.4,5.8-24.6,5.8
			c-7.3,0-15-0.9-23.2-2.6v-8.8c8.7,3.8,17.1,5.6,25.3,5.6c13.5,0,20.2-5.4,20.2-16.3c0-5.9-4-11.1-12-15.4
			c-7.5-3.7-14.9-7.4-22.4-11.1c-8-5-12-11.3-12-18.9c0-6.9,2.9-12.2,8.6-16c5.6-3.8,13.2-5.6,23-5.6
			C46.7,128.7,53.8,129.4,61.3,130.7"/>
	</g>
</g>
<path class="st2" d="M287.7,422.6V336H205l0,86.6h-32.8V267.7c0-8.4-1.9-14.2-5.8-17.4c-4.2-3.5-13.1-6.1-26.7-7.6v-4.8H205l0,80.9
	h82.6v-51.1c0-8.4-1.9-14.2-5.8-17.4c-4.2-3.5-13.1-6.1-26.7-7.6v-4.8h65.3l0,184.8L287.7,422.6"/>
<path class="st2" d="M484.6,237.9l88.1-0.2c22.1,0,38.5,2.5,49.3,8.4c13.8,7.6,20.7,20.5,20.7,38.8c0,25.7-18.1,40.7-54.2,45
	l63.3,93h-30.6l-62.5-91.4h-15.2l0,91.1h-32.8V267.7c0-8.4-1.9-14.2-5.8-17.4c-4.2-3.5-13.1-6.1-26.7-7.6v-4.8L484.6,237.9
	 M543.5,320.8h7.9c17.6,0,30.5-1.6,38.7-4.9c14.6-5.7,21.9-16.9,21.9-33.7c0-22.9-15.6-34.3-46.8-34.3c-9.7,0-15.7,0.8-18,2.3
	c-1.9,1.4-3.2,4.2-3.8,8.5L543.5,320.8z"/>
<path class="st2" d="M721.6,323l77.5-84.9h20.8l-69.1,79l85.7,104.4l-40.2-0.1l-73.9-92l-0.8-1.7l0,94.9h-32.8V267.7
	c0-8.4-1.9-14.2-5.8-17.4c-4.2-3.5-13.1-6.1-26.7-7.6v-4.8h65.3L721.6,323"/>
</svg>
