<?xml version="1.0" encoding="utf-8"?>
<!-- Generator: Adobe Illustrator 26.0.2, SVG Export Plug-In . SVG Version: 6.00 Build 0)  -->
<svg version="1.1" id="Layer_1" xmlns="http://www.w3.org/2000/svg" xmlns:xlink="http://www.w3.org/1999/xlink" x="0px" y="0px"
	 width="1230px" height="1230px" viewBox="0 0 1230 1230" style="enable-background:new 0 0 1230 1230;" xml:space="preserve">
<style type="text/css">
	.st0{fill:#1B1C1C;}
	.st1{fill:#BD1824;}
</style>
<path class="st0" d="M187,987.6c0.2,14.2-3.5,26.3-11,36.4c-5,6.8-12,11.6-21.1,14.4c-5.5,1.6-11.3,2.4-17,2.3c-12,0-22-3-29.9-8.9
	c-6.8-5.2-12.2-12-15.7-19.9c-4-9.1-6.3-18.9-6.7-28.8l29.2-2.1c1.3,11.9,4.4,20.4,9.4,25.8c3.7,4,7.9,5.9,12.7,5.7
	c6.7-0.2,12.1-3.5,16.1-9.9c2.1-3.1,3.1-7.6,3.1-13.5c0-8.4-3.8-16.8-11.5-25.2L117.2,938c-10.2-9.9-17.4-18.7-21.6-26.5
	c-4.6-8.8-6.9-18.6-6.8-28.5c0-18.5,6.2-32.6,18.7-42.1c7.7-5.7,17.2-8.6,28.6-8.6c10.9,0,20.3,2.4,28.1,7.3
	c6.2,3.9,11.3,9.4,14.7,15.9c3.9,7.3,6.2,15.3,6.7,23.5l-29.4,5.4c-0.9-8.3-3.3-14.8-7.1-19.5c-2.8-3.4-6.9-5-12.2-5
	c-5.3-0.2-10.3,2.7-12.8,7.4c-2.4,4-3.6,9-3.6,14.9c0,9.3,4,18.8,12,28.4c4.1,4.7,8.7,9.1,13.6,13c7.1,6,11.9,10.1,14.1,12.5
	c6.8,6.6,12.7,14.2,17.5,22.4c1.8,3.1,3.3,6.3,4.7,9.6C185.3,975.4,186.9,981.9,187,987.6z"/>
<path class="st0" d="M255.5,991.5l-7.4,46.7h-32l34.6-203.4h42.2l34.2,203.4h-32.3l-7.2-46.7L255.5,991.5L255.5,991.5z M271.6,881.5
	l-11.4,80.2H283L271.6,881.5z"/>
<path class="st0" d="M412.6,834.9c17.1,0,29.7,4.7,37.7,14.1c7,8.2,10.6,19.7,10.6,34.4V913c0,14.4-5.5,26.6-16.4,36.5l22.7,88.8
	H434l-18.6-76.6h-20.5v76.6h-30.7V834.9H412.6z M430.9,883.9c0-11.8-5.8-17.7-17.5-17.7h-18.5v65.1h18.5c4.7,0.1,9.2-1.8,12.4-5.2
	c3.3-3.3,5.2-7.8,5.1-12.5V883.9z"/>
<path class="st0" d="M542.6,991.5l-7.5,46.7h-32l34.6-203.4H580l34.1,203.4h-32.2l-7.2-46.7L542.6,991.5L542.6,991.5z M558.8,881.5
	l-11.4,80.2h22.7L558.8,881.5z"/>
<path class="st0" d="M695.4,1040.9c-26.8,0.1-48.6-21.5-48.7-48.3c0-0.1,0-0.2,0-0.3v-111c0-26.9,21.7-48.6,48.6-48.6
	c26.9,0,48.6,21.7,48.6,48.6l0,0v23.2h-31.8v-23.9c-0.1-9.7-8-17.6-17.7-17.6c-4.7-0.1-9.1,1.8-12.4,5.1c-3.3,3.3-5.2,7.8-5.1,12.5
	V992c0,9.6,7.7,17.5,17.4,17.5c0.1,0,0.1,0,0.2,0c4.7,0.1,9.2-1.8,12.5-5.1c3.4-3.2,5.3-7.7,5.2-12.4v-28.1H744v28.4
	c0,26.8-21.6,48.5-48.4,48.6C695.4,1040.9,695.4,1040.9,695.4,1040.9L695.4,1040.9z"/>
<path class="st0" d="M780.5,1038.3V834.7h87.3v30.8h-56.7V921h41.4v30.8h-41.4v55.5h56.7v30.8h-87.3V1038.3z"/>
<path class="st0" d="M934.8,834.7l40.7,136.8V834.7h30.7v203.6h-33L931,907.9v130.4h-30.7V834.7H934.8z"/>
<path class="st0" d="M1144.8,987.6c0.2,14.2-3.4,26.3-11,36.4c-5,6.8-12,11.6-21.1,14.4c-5.5,1.6-11.3,2.4-17.1,2.3
	c-12,0-22-3-29.9-8.9c-6.9-5.2-12.3-12-15.7-19.9c-4-9.1-6.3-18.9-6.7-28.8l29.2-2.1c1.3,11.9,4.4,20.4,9.4,25.8
	c3.7,4,7.9,5.9,12.7,5.7c6.7-0.2,12.1-3.5,16.1-9.9c2.1-3.1,3.1-7.6,3.1-13.5c0-8.4-3.8-16.8-11.5-25.2L1075,938
	c-10.2-9.9-17.4-18.7-21.6-26.5c-4.6-8.8-6.9-18.6-6.8-28.6c0-18.5,6.2-32.6,18.7-42.1c7.7-5.7,17.2-8.6,28.6-8.6
	c10.9,0,20.3,2.4,28.1,7.3c6.2,3.9,11.3,9.4,14.7,15.9c3.9,7.3,6.2,15.3,6.7,23.5l-29.4,5.4c-0.9-8.3-3.2-14.8-7.1-19.5
	c-2.8-3.4-6.9-5-12.2-5c-5.3-0.2-10.3,2.7-12.8,7.5c-2.4,4-3.6,9-3.6,14.9c0,9.3,4,18.8,12,28.4c4.1,4.7,8.7,9.1,13.6,13
	c7.1,6,11.8,10.1,14.1,12.5c6.8,6.6,12.7,14.2,17.5,22.4c1.8,3.1,3.3,6.3,4.7,9.6C1143.2,975.4,1144.7,981.9,1144.8,987.6z"/>
<path class="st0" d="M1085.8,320.5c-31.6-117.8-282.4-205.8-543.9-135.7S107.2,456.5,138.7,574.2S421.1,780,682.6,709.9
	S1117.3,438.3,1085.8,320.5L1085.8,320.5z"/>
<path class="st1" d="M232.5,590.6c-26.6-50.7-8.9-125.6,57.6-195c74-81.9,210.1-150.3,325.2-169c22.6-3.4,44.9-6.3,64.3-5.9
	c-53,18.2-98.3,36.6-152,70.5C416.1,357.1,335.2,445.4,331.7,524c-11.5,76.2,68.7,144.2,170.8,145.7
	C373.8,699.8,273.3,654.4,232.5,590.6L232.5,590.6z"/>
<polygon class="st1" points="470.7,399.4 631.5,380 735.7,256.3 748,360.5 907,344.6 751.6,429.4 763.9,538.9 645.6,486 
	470.7,570.7 569.6,450.6 "/>
</svg>
