<?xml version="1.0" encoding="utf-8"?>
<!-- Generator: Adobe Illustrator 26.0.2, SVG Export Plug-In . SVG Version: 6.00 Build 0)  -->
<svg version="1.1" id="Calque_5" xmlns="http://www.w3.org/2000/svg" xmlns:xlink="http://www.w3.org/1999/xlink" x="0px" y="0px"
	 width="442.9px" height="471.5px" viewBox="0 0 442.9 471.5" style="enable-background:new 0 0 442.9 471.5;" xml:space="preserve"
	>
<style type="text/css">
	.st0{fill:#878787;}
	.st1{fill:#3C1358;}
	.st2{fill:#FFFFFF;}
	.st3{fill:#640089;}
</style>
<path class="st0" d="M213.1,471.5C-38.6,344.1,2.5,101.6,2.5,101.6C99.3,8.1,221.4,0,221.4,0s122.2,8.1,218.9,101.6
	c0,0,41.1,242.5-210.6,369.9H213.1z"/>
<path class="st1" d="M213.6,461.4C-24.3,341,11.7,106.1,11.7,106.1c91.4-88.3,209.7-96,209.7-96s118.3,7.7,209.7,96
	c0,0,36,234.9-201.9,355.2L213.6,461.4z"/>
<path class="st2" d="M78.6,216c-14-56-10.7-124.1-9.2-145.4C51.8,82,35.3,95,20.1,109.6c0,0-19.2,115.1,53.9,223.5
	c40.1-26.6,139.9-84.1,289.5-113c0,0-15.7,108-126.4,228.2c186.2-98.9,190.8-269.5,187.3-322.5C223.3,132.4,78.6,216,78.6,216z"/>
<path class="st3" d="M350.8,116.1l-6.6-44.5l39.6-3.3c-2.2-1.5-4.4-2.9-6.6-4.3c-46.9,3.1-109,12.9-109,12.9l-1.7-46.2l32.9-3.4
	c-3.7-1.2-7.3-2.4-10.8-3.5C160.5,19.9,76.1,76,76.1,76s-6.1,54.6,8.2,127.1c0,0,129.5-73.9,348-87.3c-0.2-2-0.3-3.7-0.5-5.1
	L350.8,116.1z"/>
<path class="st3" d="M350.8,230.8c-116.4,21.2-238,87.6-278.6,111.3c1.5,2.1,3,4.3,4.6,6.4l31.8-17l8.8,41l-14,8
	c2,2.1,4,4.2,6.1,6.3l46.6-25l10,47.1l-19.8,10.3c2.2,1.7,4.4,3.3,6.6,5C265.3,368.8,296.2,360,296.2,360
	C331.9,312.5,350.8,230.8,350.8,230.8z"/>
<path class="st1" d="M115,227.1c-2.2,0.5-26.8,14.1-26.8,14.1s20.4,2.5,24.6,3s14.9,4.7,13.7,21.4c-0.9,12.7-8.5,27.1-19.1,33
	c-13.4,7.5-22.2,14-26.4,13.2s-7.2-2.7-8.4-17.6l11.2,0.2l15.8-8.7c3.3-2.7,5.3-6.7,5.3-10.9c0.2-7.5-7.7-6.7-12.9-7
	s-23.6,2-23.8-13.4s6.7-23.3,18.6-29.3s33.3-22.4,36-5l1,8.7L115,227.1z"/>
<path class="st1" d="M211.6,221.6c-4.8,3-11,1.5-14-3.2c-3-4.8-1.5-11,3.2-14l51.6-30c1.3-0.8,3-0.3,3.8,1l5.8,9.2
	c0.8,1.3,0.4,3-0.8,3.9L211.6,221.6z"/>
<path class="st1" d="M213.6,222.8c-0.5,0-1-0.3-1.3-0.7L201,203.9c-0.5-0.7-0.3-1.6,0.4-2.1s1.6-0.3,2.1,0.4l0.1,0.1l11.4,18.2
	c0.4,0.7,0.2,1.6-0.5,2.1C214.2,222.8,213.9,222.8,213.6,222.8L213.6,222.8z"/>
<path class="st1" d="M260.4,190.9c-0.5,0-1-0.3-1.3-0.7l-9-14.4c-0.4-0.7-0.1-1.6,0.6-2c0.7-0.4,1.5-0.2,2,0.5l9,14.4
	c0.4,0.7,0.2,1.6-0.5,2.1C261,190.9,260.7,190.9,260.4,190.9L260.4,190.9z"/>
<path class="st1" d="M228.9,212.5c-1,0-2-0.5-2.5-1.4l-9.3-14.8c-0.9-1.4-0.5-3.3,1-4.1c1.4-0.9,3.3-0.5,4.1,1l0,0l9.3,14.8
	c0.9,1.4,0.5,3.3-1,4.1C229.9,212.3,229.4,212.5,228.9,212.5L228.9,212.5z"/>
<ellipse class="st1" cx="194.8" cy="220.1" rx="3.3" ry="3.3"/>
<path class="st3" d="M247.8,197l6.5,21.1c0.5,1.5-0.4,3.1-1.9,3.5c0,0,0,0-0.1,0l-49.7,14.2c0,0-2.2,0.7-3.5-3.3
	S205.1,210.1,247.8,197z"/>
<path class="st2" d="M208.5,238.7c-2.5,0-4.5-2-4.5-4.5s2-4.5,4.5-4.5s4.5,2,4.5,4.5c0,2-1.3,3.8-3.2,4.3
	C209.4,238.6,209,238.7,208.5,238.7z"/>
<path class="st3" d="M208.5,230.6L208.5,230.6c2,0,3.6,1.5,3.6,3.5s-1.5,3.6-3.5,3.6s-3.6-1.5-3.6-3.5c0-1.6,1-3,2.5-3.4
	C207.9,230.7,208.2,230.6,208.5,230.6 M208.5,228.6c-3.1,0-5.5,2.5-5.5,5.5c0,3.1,2.5,5.5,5.5,5.5c3.1,0,5.5-2.5,5.5-5.5
	c0-0.5-0.1-1.1-0.2-1.6C213.1,230.2,211,228.6,208.5,228.6z"/>
<path class="st2" d="M248.2,226.6c-2.5,0-4.6-2-4.6-4.5s2-4.6,4.5-4.6s4.6,2,4.6,4.5c0,2-1.3,3.8-3.2,4.4
	C249.1,226.5,248.7,226.6,248.2,226.6z"/>
<path class="st3" d="M248.2,218.5c2,0,3.6,1.5,3.6,3.5s-1.5,3.6-3.5,3.6s-3.6-1.5-3.6-3.5c0-1.6,1-3,2.5-3.4
	C247.5,218.5,247.9,218.5,248.2,218.5 M248.2,216.5c-3.1,0-5.5,2.5-5.5,5.5c0,3.1,2.5,5.5,5.5,5.5c3.1,0,5.5-2.5,5.5-5.5
	c0-0.5-0.1-1.1-0.2-1.6C252.8,218.1,250.7,216.5,248.2,216.5z"/>
<path class="st1" d="M126.5,287.7l23-86.2L146,197l20.6-8.4l38.2,63.3l-27.1,11.4l2.5-6.5l-9.9-15.9l-21.4,9.4l-8.4,30.5
	L126.5,287.7z M165.7,233.8l-7.7-12.4l-5,17.9L165.7,233.8z"/>
<polygon class="st1" points="251.3,163.8 284.6,155.1 281.9,161.1 292.5,173.2 306.9,149.9 356.4,141.2 353.1,148.2 375.2,182.9 
	396.3,136.5 413.7,135.5 378.2,208.3 357.8,211 360.8,205.3 325.8,146.6 302.7,183.7 331.3,216.9 299,225.1 301.7,219.7 289,205.5 
	273.9,232.3 254.8,238.2 279.1,194.6 "/>
<path class="st2" d="M179.5,61.2l-0.4,4.5l-1.5,4.3l0.3,1.9l1.6,2.7l1.2,4.2l0.6,15.4l-0.5,0.5L170.1,98l-0.7-0.6l-0.7-10.6
	l-2.6-1.6l-3.2,0.7l-0.7,1.3l1,12.8l-0.4,0.4l-9.8,3.3l-1.1-0.7l-2.2-45.3l1.8-2.4l17.1-5.3l4.6-0.1l4,2.7l2.2,4.8L179.5,61.2
	L179.5,61.2z M161.6,69.6v4.6l1.3,1l1.8-0.7h0.3l3-4l-0.2-4.7l-1.5-2.4l-1.6-0.5l-2.8,1l-0.5,0.9L161.6,69.6z"/>
<path class="st2" d="M158.4,159.8l-5.8-48.5l21.2-6.8l4.5,1.2l3.6,4.5l3,30.3l-1.8,6.3l-2,3.4l-2.8,2.3L158.4,159.8z M173.5,138.8
	l-2.4-19.6l-2.4-2.5l-2.7,0.5l-1.2,1.4l2.5,24l1.4,1l3.8-2.1l1.1-1.8L173.5,138.8z"/>
<path class="st2" d="M186.2,73l-0.5-16.6l1.8-6l3-4.5l3.9-2.4l13.8-2.9l4.5,1.6l3,3.5l1.1,3.4l1.1,27.2l-2.2,5.6l-4.8,4.2l-12.9,4
	l-3.5,0.2l-5-2.2l-2.4-3.9L186.2,73z M204.9,60.6v-3.8l-0.7-2.5l-0.6-0.6l-3.5-0.1l-2,3.2l0.5,18.9l1.8,2.9l2.5-0.1l2.5-3.7
	L204.9,60.6z"/>
<polygon class="st2" points="313,120.5 312,120.6 306.3,118.8 303.5,116 302.2,113.4 298.3,78.2 299.6,77.3 310.1,76.2 310.6,76.8 
	314.5,106.7 316.5,108.7 318.1,108.8 319.7,107.9 321.3,105.1 318,75.8 318.4,75.1 330.3,73.9 330.8,74.6 335.4,108.4 331.9,115.9 
	328.5,118.1 "/>
<polygon class="st2" points="265.6,126.2 262.8,83.5 263.4,82.9 291.2,78.5 292,79 292.6,87.3 292,87.9 276.7,90.3 276.3,90.7 
	276.3,94.8 277,95.4 287.8,93.6 289.8,95.4 290.4,101.9 288.8,103.7 277.8,105.5 277.4,106 278,114.2 278.5,114.8 293.8,112.3 
	294.9,113 296,123.5 295.3,123.9 274.5,127.7 274.3,127.8 265.9,129 265.6,128.3 "/>
<path class="st2" d="M189.2,396.7l-1.7-11l-1-2l-2.8-0.2l-1.5,0.8l-0.5,1.4l2.3,12.2l-0.1,1.9l-6.8,3.6l-0.8,0.2l-1.4-0.8l-9.6-45
	l0.8-0.9l16.8-8.3l3.5-0.1l2.8,1.1l0.6,0.5l2.5,4.3l0.5,8.7l-1,4l0.1,0.6l2.2,2.5l1.5,3.8l2.4,17.5l-0.6,1.5l-6.9,3.6L189.2,396.7z
	 M181,361.1l-3.4,1.8l-0.1,0.9l1.6,8.7l1.7,0.8l1.6-0.8l2.3-2.2l0.1-1.2l-1-5.5L181,361.1z"/>
<polygon class="st2" points="214,117 214,119.2 213.2,120 202.1,123 201.6,123.6 202.7,132.6 203.6,132.9 217.2,129 217.8,129.4 
	218.8,140.6 192.5,148 191.9,147.5 187.5,100.9 188.6,99.7 207.2,94.8 207.5,94.7 214.6,93 215.6,93.9 216.1,102.2 214.8,103.2 
	201.5,106.5 200.5,107.2 200.7,111.1 202.8,112 212.4,109.4 213.2,110.2 "/>
<polygon class="st2" points="224,67.2 223.4,46.6 225.4,41.4 228.8,37.3 230.3,36.4 245.7,33.9 251.2,36.7 253.8,41.3 255,50.1 
	243.6,52.2 242.6,51.7 242.6,48.6 242,47 238.2,45.8 235.9,48.5 236.4,65.8 238.6,70.2 241.6,70.1 243.6,67.2 243.3,64.6 
	244.2,63.2 254.9,61 256,61.7 256,68.8 254,73.4 252.2,75.9 247.9,78.5 231.2,81.1 229.8,80.7 225,76 "/>
<polygon class="st2" points="226.2,366.2 226.2,369.7 223.9,377.3 221.3,380.5 211.9,385.8 206.6,385.5 203.8,382.6 202.2,379 
	197.5,343.8 198.4,341 206.3,337.2 207.3,337.6 211.6,372.6 213,373.5 216.2,372 216.9,371.1 212.8,335 213.8,333.7 222.5,329.8 
	223.2,330.1 "/>
<polygon class="st2" points="245.5,334.6 244.9,332.6 243.3,331.6 240,333.2 239.7,333.8 241,359 242.2,359.7 244.6,358.5 
	245.9,356.3 245.9,350.7 244.9,350.1 244.3,350.5 243.6,350 243.1,340.7 243.9,339.4 253,335.9 255,337.7 255,363.8 253.5,365.9 
	239.5,372.4 237.1,372.4 234.8,371.1 232.4,367.2 230.2,335.3 231.1,330.9 232.5,327.8 235.9,324.2 247.4,319.1 250.4,319.8 
	253.7,324.2 254.4,330.3 254.2,330.7 "/>
<path class="st2" d="M183.2,338.8l-4.1-39l2.8-4.8l2.3-2.1l11.9-5.2l3.9,1.5l0.8,0.6l2,4.8l3.7,30.3l-0.3,2.9l-7.4,3.5l-1.1,0.2
	l-0.5-0.7l-1.3-10.6l-1.3-1l-3.6,1.6l-0.5,1.8l1.4,11.2l-0.7,1L183.2,338.8z M194.3,307.5l-0.5-5.4l-2.2-2.2l-3.4,3.2l0.6,6.6l0.4,1
	l1.2,0.3l3-1.5l1-1.3L194.3,307.5z"/>
<path class="st2" d="M259.9,342.9l-0.5-28.8l0.5-0.6l15.6-5.9l1.4-0.2l2.5,1.1l2.2,3.6l-0.1,10.4l-1.7,4.6v1.2l1,2.8l-0.9,14.6
	l-1.9,5.9l-3.6,4.2l-2.8,2l-10.4,4.5l-1.2-0.9L259.9,342.9z M268.6,324.7L268.6,324.7v2.5l0.3,1l0.5,0.2l2.6-1.1l1.4-1.8v-4.7
	l-1.4-1.3l-1.6,0.5l-1.8,2.3V324.7z M268.5,347.7l2.9-1.1l1.5-2.1v-3.8l-2.1-2l-1.8,0.8l-0.5,0.9V347.7z"/>
<polygon class="st2" points="138.4,59.9 138.5,67.9 139,69.5 138.9,71.4 125.7,76.7 125.1,78 125.5,82 126.4,82.6 136.1,78.7 
	136.9,89 136.4,89.7 127.6,93 126.2,94.7 126.2,100.3 127,103 140.1,97.6 140.8,107.7 140.7,108 117.5,117.7 117.1,117.4 
	116.7,116.1 114.9,70.4 116.2,68.9 "/>
<polygon class="st2" points="156.4,305.5 158.7,322.2 159.8,322.1 163.6,320.1 163.9,319.5 162.2,303.1 163.1,302.3 171.5,298.4 
	177.3,341.2 176.9,341.6 169.3,345.4 168.3,345 165.5,330.1 164.6,329.8 161.2,331.6 160.7,334 162,340.8 162.1,341 163.1,346.9 
	162.4,348.8 155.3,352.5 154.3,352.2 153.2,346 152.5,344.9 151.7,339.3 151.5,338.9 150.6,332.8 150.4,332.4 147.2,311.3 
	147.9,309.9 "/>
<path class="st2" d="M220,309.9l1.2,10.9l-0.5,0.6l-7,2.7l-0.6,0.4l-1.2-0.2l-4.7-41.1l0.5-0.9l16-6.5l6.3,1.4l2.2,3.6l0.6,4.6
	l-1.5,6.5l0.2,1.5l1.8,3.3l2.2,17.8l-0.9,0.8l-7.4,3.2l-1.2-0.6l-0.5-8.1l-0.7-2.3l-1.1-0.7l-3.4,0.9l-0.6,1.1L220,309.9z
	 M219.1,298l2.9-1.1l1.9-1.8l-0.5-6.7l-2.3-1.9l-2.6,1.2l-0.6,0.8L219.1,298z"/>
<path class="st2" d="M89.1,124.6l-0.6-32.8l0.5-2.2v-4.7l0.3-1l13.5-8.1l3.8,0.1l3.2,4.1l1.6,31.1l-2.1,7l-2.5,3.9l-16,9.3l-0.7,0.8
	l-0.6,0.2l-0.3-0.5L89.1,124.6z M101.4,97L101.4,97v-5.1L99,89.7h-0.4l-2.2,2.5l0.6,23.6l1.2,0.8l2.1-1.1l1.6-2.5L101.4,97z"/>
<polygon class="st2" points="256.5,83.9 257.1,93 256.8,93.6 241.3,97 241,97.5 241,101.6 241.5,102.4 253.1,100 254.4,100.8 
	254.8,109 254.4,110 253.7,110.3 242.6,112.7 242,113.4 243.2,133.7 242.4,134.6 231.7,137.4 230.9,136.7 227.6,90.9 228.4,89.7 
	235.2,88.6 236.3,87.9 241.6,87 242,86.8 "/>
<polygon class="st2" points="100.5,150.8 108.8,146.6 109.9,147.1 111.4,156 110.8,157.2 103.1,161 101.9,162.7 103.1,170 
	103.6,171.1 115.1,165.5 117.3,175.9 116.9,177.4 96.9,187.3 96.1,187 89.7,140.2 90.6,139.2 109.5,129.2 110.4,129.8 111.5,138.4 
	110.6,139.7 100.7,144.7 99.8,146.3 "/>
<polygon class="st2" points="131.8,364 127.1,361.9 125.2,359.5 120,333 120.6,329 121.6,326.6 122.4,325.3 122.7,325.1 
	124.5,322.7 134,317.1 135.2,316.8 136.5,316.7 140.9,318.7 142,320.1 142.4,320.3 144,328 142.9,330.3 136.1,334.1 135.1,333.8 
	134.2,330.5 131.8,329.2 129.6,331 129.4,331.6 133,350.6 134.4,352.3 135.3,352.7 137.1,351.8 137.7,347.8 137.3,344.9 
	138.4,343.8 145.2,340.2 146.4,340.8 147.4,347.6 147,350.8 145.1,356.2 133.9,363.9 "/>
<polygon class="st2" points="293.1,334.4 292.6,336.6 293.8,337.5 295.4,336.9 297.1,334 297.6,329 296.9,328.6 292.1,330.2 
	289.5,329.6 287.4,327.3 287.5,303.7 288.6,302.8 296.5,300.1 294.9,317.3 296.2,318.2 298.8,317.3 299.3,316.8 301,300 302,298.4 
	304.4,297.4 304.7,297.1 308.1,296 309.5,297.1 302.1,337.9 299.4,343.1 295.2,347.2 293.1,348.5 290.6,349.4 289.9,349.5 
	287,349.2 285.3,346.8 284.8,339.1 287.7,335.9 291.8,334.4 "/>
<polygon class="st2" points="279.3,296.9 278,267.6 275.1,265.9 274.1,266.2 273,267.7 274,297.6 272.6,299.4 266.3,302.1 
	263.9,261.1 264.8,260.1 273.4,257.3 274.6,256.6 279.9,255 283.4,256.1 286.3,260.5 286.6,294 "/>
<polygon class="st2" points="241.1,312.4 237.1,270.9 237.4,270.1 258.1,262.5 258.9,271.2 257.5,272.3 248.4,275.7 247.5,276.8 
	247.8,281.3 256.4,278.1 257.1,278.7 257.7,286.5 256.8,287.5 249.3,290.3 248.5,291.8 248.8,297.8 250.1,298.8 259.5,295 
	260.5,295.6 261.1,303.7 260.4,304.4 "/>
<polygon class="st2" points="116.8,136.8 115.4,128.2 117.2,125.6 140.5,115.7 141.8,116.5 142.4,125.3 141.8,126.1 135.4,128.4 
	134.6,129.6 140.2,166.5 139.7,167.2 130.7,171.1 130.1,170.8 124.4,134.8 123,133.9 "/>
<polygon class="st2" points="331.4,240 330.8,247 329,249.2 322.6,251 321.9,252 321.4,254.9 321.7,255.7 322.5,255.9 328.6,254.6 
	327.9,255.9 327.4,262.3 326.7,263.4 321,265.1 320.7,265.8 320,272.3 320.1,273.3 321.1,273.3 327.3,271.4 327.1,273.5 326.9,274 
	325.8,280.8 324.7,281.4 313.8,284.6 312.9,284.1 315.7,244.3 316.5,243.8 "/>
<polygon class="st2" points="290.3,251.8 294.4,250.5 295.4,249.8 310.2,245.5 311.1,246 311.1,253.5 310.6,254.3 305.9,255.6 
	305,256.7 303.8,286.3 302.2,288.6 297.3,290.2 296.6,289.8 296.9,259 295,259.1 291.2,260.7 290.9,259.6 290.9,253.7 "/>
</svg>
