<?xml version="1.0" encoding="utf-8"?>
<!-- Generator: Adobe Illustrator 26.0.2, SVG Export Plug-In . SVG Version: 6.00 Build 0)  -->
<svg version="1.1"
	 id="Ebene_1" xmlns:cc="http://creativecommons.org/ns#" xmlns:dc="http://purl.org/dc/elements/1.1/" xmlns:inkscape="http://www.inkscape.org/namespaces/inkscape" xmlns:rdf="http://www.w3.org/1999/02/22-rdf-syntax-ns#" xmlns:sodipodi="http://sodipodi.sourceforge.net/DTD/sodipodi-0.dtd" xmlns:svg="http://www.w3.org/2000/svg"
	 xmlns="http://www.w3.org/2000/svg" xmlns:xlink="http://www.w3.org/1999/xlink" x="0px" y="0px" width="420px" height="550px"
	 viewBox="0 0 420 550" style="enable-background:new 0 0 420 550;" xml:space="preserve">
<style type="text/css">
	.st0{fill:#EB5296;}
	.st1{fill-rule:evenodd;clip-rule:evenodd;fill:#FFFFFF;}
	.st2{fill:#FFFFFF;}
</style>
<sodipodi:namedview  bordercolor="#666666" borderopacity="1" gridtolerance="10" guidetolerance="10" id="namedview13" inkscape:current-layer="Ebene_1" inkscape:cx="113.73772" inkscape:cy="327.86723" inkscape:pageopacity="0" inkscape:pageshadow="2" inkscape:window-height="691" inkscape:window-maximized="1" inkscape:window-width="1280" inkscape:window-x="0" inkscape:window-y="1" inkscape:zoom="0.80770639" objecttolerance="10" pagecolor="#ffffff" showgrid="false">
	</sodipodi:namedview>
<path id="path3" inkscape:connector-curvature="0" sodipodi:nodetypes="cssccscccsccssccc" class="st0" d="M353.3,404.2
	c34.9-41.3,44-69.6,44-115.7c0-46.1-32.1-70-31.8-105.4c0.5-50.8,44.9-80.1,44.9-80.1c-21.7-22.3-44.3-43.4-70.7-58.3
	c0,0-5.9,6.2-24.4,6.2c-35.1,0-46.5-33-46.5-33c-15.8-2.6-31.5-6.3-59.3-6.5c-27.8,0.2-43.5,3.9-59.3,6.5c0,0-11.4,33-46.5,33
	c-18.4,0-24.4-6.2-24.4-6.2C53.1,59.7,30.5,80.7,8.8,103.1c0,0,44.4,29.3,44.9,80.1c0.4,35.4-31.8,59.3-31.8,105.4
	c0,46.1,9.1,74.3,44,115.7C101,441,209.6,538.5,209.6,538.5S318.1,441,353.3,404.2L353.3,404.2z"/>
<path id="path4483" inkscape:connector-curvature="0" sodipodi:nodetypes="ccccccccccc" class="st1" d="M223.6,293.4L164,350.2
	l12.8-4.4L142,379.4l16.8-6.6l-38.1,49.4l61.9-58.9l-13.5,4.8l35.1-34l-17.9,5.9L223.6,293.4z"/>
<g id="g4445" transform="matrix(1.0021313,0,0,1.0021313,-0.77966723,-0.5000137)">
	<g id="g4590" transform="matrix(1.0414507,0,0,1.0414507,-8.3529914,-3.1522295)">
		<path id="path4441" inkscape:connector-curvature="0" sodipodi:nodetypes="ccccccccccc" class="st1" d="M224.7,200.3l21,0v-44
			h44.2l16.6-18.5h-60.8v-25.7h66.5l17-18.5H224.7L224.7,200.3z"/>
		<path id="rect4447" inkscape:connector-curvature="0" sodipodi:nodetypes="sssscccccssssccccccss" class="st2" d="M124.7,93.5
			c-10.9,0-19.6,8.7-19.6,19.6v23.6c0,10.9,8.7,19.6,19.6,19.6h64.9v26.9h-65.2v-16.6c0,0-19.3,15.6-19.2,16.3
			c1.1,9.8,9.4,17.4,19.5,17.4h64.5c10.9,0,19.6-8.7,19.6-19.6v-23.6c0-10.9-8.7-19.6-19.6-19.6h-64.9v-26.9h65.2v16.6
			c0,0,19.3-15.6,19.2-16.3c-1.1-9.8-9.4-17.4-19.5-17.4H124.7z"/>
	</g>
	<g id="g4571" transform="matrix(1.0414507,0,0,1.0414507,-8.3529914,-3.1522295)">
		<path id="path4460" inkscape:connector-curvature="0" class="st1" d="M198.4,219.7v53h10.4v-19.8h13.9l20.6,19.8h14.4l-20.6-19.8
			h3.8c5.4,0,9.7-4.3,9.7-9.7v-13.7c0-5.4-4.3-9.7-9.7-9.7h-0.7H209L198.4,219.7L198.4,219.7z M208.9,228.9L208.9,228.9L208.9,228.9
			l28.4,0.1c4.9,0.1,4.7,14.5,0,14.6h-28.2l0,0.1h-0.2L208.9,228.9L208.9,228.9z"/>
		<path id="path4462" inkscape:connector-curvature="0" sodipodi:nodetypes="sssscccccssssccccccss" class="st2" d="M309.1,219.7
			c-5.4,0-9.7,4.3-9.7,9.7v11.7c0,5.4,4.3,9.7,9.7,9.7h32.2v13.4h-32.4v-8.3c0,0-9.6,7.7-9.5,8.1c0.5,4.9,4.6,8.7,9.7,8.7h32
			c5.4,0,9.7-4.3,9.7-9.7v-11.7c0-5.4-4.3-9.7-9.7-9.7h-32.2v-13.4h32.4v8.3c0,0,9.6-7.7,9.5-8.1c-0.5-4.9-4.6-8.7-9.7-8.7
			L309.1,219.7z"/>
		<path id="path4464" inkscape:connector-curvature="0" sodipodi:nodetypes="ccccc" class="st1" d="M270.4,272.7l10.4,0l0-53h-10.4
			L270.4,272.7z"/>
		<path id="path4472" inkscape:connector-curvature="0" class="st1" d="M66.4,219.7v53h10.4v-19.8h22l0,0H109c5.4,0,9.7-4.3,9.7-9.7
			v-13.7c0-5.4-4.3-9.7-9.7-9.7h-0.7H77L66.4,219.7L66.4,219.7z M76.9,228.9L76.9,228.9L76.9,228.9l28.4,0.1
			c4.9,0.1,4.7,14.5,0,14.6H77.1l0,0.1h-0.2L76.9,228.9L76.9,228.9z"/>
		<path id="path4475" inkscape:connector-curvature="0" sodipodi:nodetypes="ccccccccccccc" class="st1" d="M147.3,219.7l-28.2,53
			h14.2l6.1-12.3h29.8l6.1,12.3h14.2l-28.2-53L147.3,219.7z M154.3,230.5l10.2,20.6H144L154.3,230.5z"/>
	</g>
	<path id="path4485" inkscape:connector-curvature="0" sodipodi:nodetypes="ccccccccccc" class="st1" d="M269.8,293.3l-72.3,67.6
		l19.4-8l-43.1,42l19.7-6.9l-45.3,57l73-67.9l-17.9,5.1l44.6-41.3l-21.5,8.4L269.8,293.3z"/>
</g>
<path id="path4489" inkscape:connector-curvature="0" sodipodi:nodetypes="ccccccccccc" class="st1" d="M318.5,293.4l-84.2,78.7
	l22-8.4l-52.7,48.7l25.3-8.1l-51.2,64.8l83.8-77.2l-20.9,6.2l50.5-47.6l-23.8,9.2L318.5,293.4z"/>
<g id="g4440" transform="matrix(1.0021313,0,0,1.0021313,-0.77966723,-0.5000137)">
	<path id="path4498" inkscape:connector-curvature="0" class="st1" d="M73.1,42.6L13.2,96.4l47.1,66.8c-2.5-19.4,3.1-34.6-24.1-66.8
		C45.9,80,58.6,67,73.1,54.4V42.6z"/>
	<path id="path4502" inkscape:connector-curvature="0" sodipodi:nodetypes="cccccc" class="st1" d="M347.3,40.2v14.9
		c12.9,11.9,22.6,22.8,37.1,41.3c-27.2,32.2-21.6,47.4-24.1,66.8l47.9-70.9L347.3,40.2z"/>
	<path id="path4504" inkscape:connector-curvature="0" sodipodi:nodetypes="ccccscscccccc" class="st1" d="M286.3,474
		c37.8-32.8,70.8-67.9,96.9-106.5l16.3-50.2l-9-4.6c-18.2,51.7-53.7,88.6-91.8,122.6c-30,26.7-61.3,57.1-88.2,80.5
		c-26.9-23.4-58.2-53.8-88.2-80.5c-38.1-33.9-73.6-70.8-91.8-122.6l-9,4.6l16.3,50.2C63.8,406,96.7,441.2,134.5,474l75.9,70.6
		L286.3,474z"/>
</g>
<path id="path4514" inkscape:connector-curvature="0" sodipodi:nodetypes="ccsccsscccssccsccccsccsscccssccscc" class="st0" d="
	M209.6,0c-29.1,0.2-45.4,4.1-61.9,6.8c0,0-11.9,34.4-48.5,34.4c-19.2,0-25.4-6.5-25.4-6.5C46.2,50.3,22.7,72.2,0,95.5
	c0,0,46.3,30.6,46.8,83.6c0.4,36.9-33.2,61.9-33.2,110c0,48.1,9.5,77.6,45.9,120.7c36.8,38.4,150,140.2,150,140.2
	s113.3-101.8,150-140.2c36.4-43.2,45.9-72.7,45.9-120.7c0-48.1-33.5-73.1-33.2-110c0.5-53,46.8-83.6,46.8-83.6
	c-22.7-23.3-46.2-45.2-73.7-60.8c0,0-6.2,6.5-25.4,6.5c-36.6,0-48.5-34.4-48.5-34.4C255,4.1,238.6,0.2,209.6,0z M209.8,16.2
	c27.6,0.2,34.7,0.8,50.2,3.3c0,0,27.7,40.7,62.2,35.5c17.9-2.7,25-4.5,25-4.5c25.4,18.3,28.4,21.8,49.7,43.8c0,0-37.9,35-38.4,84.8
	c-0.3,34.7,31.7,66.5,31.7,111.8c0,45.2-8.9,72-43.2,112.6c-34.6,36.1-137.3,128.3-137.3,128.3S107.1,439.5,72.5,403.4
	c-34.2-40.6-43.2-67.3-43.2-112.6c0-45.2,32.1-77,31.7-111.8c-0.5-49.9-38.4-84.8-38.4-84.8c21.3-21.9,24.3-25.5,49.7-43.8
	c0,0,7,1.8,25,4.5c34.5,5.2,62.2-35.5,62.2-35.5C175.2,17,182.2,16.4,209.8,16.2L209.8,16.2z"/>
</svg>
