<svg id="Layer_1" data-name="Layer 1" xmlns="http://www.w3.org/2000/svg" xmlns:xlink="http://www.w3.org/1999/xlink" viewBox="0 0 270 263"><defs><style>.cls-1{fill:none;}.cls-2{fill:#ffed00;}.cls-3{clip-path:url(#clip-path);}.cls-4{fill:#ff3a22;}.cls-5{fill:#1d1d1b;}.cls-6{fill:#fff;}.cls-7{clip-path:url(#clip-path-2);}.cls-8{fill:#9acff1;}.cls-9{fill:#007a3e;}</style><clipPath id="clip-path"><rect class="cls-1" x="1.66" y="1.39" width="266.96" height="259.87"/></clipPath><clipPath id="clip-path-2"><path class="cls-2" d="M56.52,49.71l-18,16.18c7,14.79,10.59,28,10.59,39.41a145.92,145.92,0,0,1-2.74,28.62A56.22,56.22,0,0,0,45,144.77c0,1.55.09,3.25.26,5.18,1.1,12.14,12.52,26.9,29.79,38.52A128.61,128.61,0,0,0,95.64,199.7a252.21,252.21,0,0,1,32.57,17.61c2.24,1.42,4.55,4.23,6.92,6,2.38-1.78,4.7-4.6,6.93-6a251.68,251.68,0,0,1,32.54-17.6,128.82,128.82,0,0,0,20.59-11.25c17.27-11.62,28.68-26.38,29.79-38.52.17-1.94.26-3.63.26-5.18A56.25,56.25,0,0,0,224,133.93a146.08,146.08,0,0,1-2.75-28.64c0-11.38,3.58-24.62,10.59-39.41l-30.67-27.5c-9.46,4.89-21.93,9.37-36,9.37a66,66,0,0,1-30-7.17,65.92,65.92,0,0,1-30,7.17c-14.07,0-26.53-4.48-36-9.37L56.52,49.71"/></clipPath></defs><title>Tonga</title><metadata><?xpacket begin="﻿" id="W5M0MpCehiHzreSzNTczkc9d"?>
<x:xmpmeta xmlns:x="adobe:ns:meta/" x:xmptk="Adobe XMP Core 5.6-c137 79.159768, 2016/08/11-13:24:42        ">
   <rdf:RDF xmlns:rdf="http://www.w3.org/1999/02/22-rdf-syntax-ns#">
      <rdf:Description rdf:about=""
            xmlns:dc="http://purl.org/dc/elements/1.1/">
         <dc:title>
            <rdf:Alt>
               <rdf:li xml:lang="x-default">Tonga</rdf:li>
            </rdf:Alt>
         </dc:title>
      </rdf:Description>
   </rdf:RDF>
</x:xmpmeta>
                                                                                                    
                                                                                                    
                                                                                                    
                                                                                                    
                                                                                                    
                                                                                                    
                                                                                                    
                                                                                                    
                                                                                                    
                                                                                                    
                                                                                                    
                                                                                                    
                                                                                                    
                                                                                                    
                                                                                                    
                                                                                                    
                                                                                                    
                                                                                                    
                                                                                                    
                                                                                                    
                           
<?xpacket end="w"?></metadata>
<g class="cls-3"><path class="cls-4" d="M135.13,4.7s9.15,15,30,15S203.54,2.87,203.54,2.87l63.65,57.07S249.27,87,249.27,105.3c0,23.41,5.48,27.07,3.66,47.19C250.7,177,231,198.21,210.86,211.75s-27.8,12.8-53.77,29.27c-11,7-22,18.66-22,18.66S124.19,248,113.19,241c-26-16.46-33.66-15.73-53.78-29.27S19.58,177,17.35,152.48C15.52,132.37,21,128.71,21,105.3,21,87,3.08,59.94,3.08,59.94L66.73,2.87S84.29,19.7,105.14,19.7s30-15,30-15"/><path class="cls-5" d="M135.13,261.26l-.79-.85c-.11-.12-11-11.67-21.73-18.48a226.34,226.34,0,0,0-29.24-15.8,158.14,158.14,0,0,1-24.56-13.49c-35.64-24-41.62-50-42.54-60.06-1-10.84.11-16.88,1.38-23.87a116.94,116.94,0,0,0,2.28-23.42c0-17.75-17.57-44.49-17.74-44.76l-.52-.78L66.75,1.39l.73.7c.17.17,17.5,16.52,37.66,16.52,20,0,29-14.33,29.07-14.48l.93-1.51.93,1.51c.09.14,9.12,14.48,29.07,14.48,20.18,0,37.48-16.36,37.65-16.52l.73-.7,65.1,58.37-.52.78c-.18.27-17.75,27-17.75,44.76a117,117,0,0,0,2.28,23.42c1.27,7,2.36,13,1.38,23.87-.92,10.07-6.89,36.08-42.54,60.06a158.14,158.14,0,0,1-24.55,13.48,226.38,226.38,0,0,0-29.24,15.8c-10.76,6.82-21.63,18.37-21.74,18.48ZM4.5,60.13c3,4.68,17.59,28.3,17.59,45.17a118.83,118.83,0,0,1-2.31,23.81c-1.24,6.83-2.31,12.73-1.35,23.28.89,9.76,6.72,35,41.59,58.46a156.33,156.33,0,0,0,24.26,13.32,228.31,228.31,0,0,1,29.49,15.93c9.29,5.89,18.64,15.2,21.36,18,2.73-2.8,12.07-12.12,21.37-18A228.31,228.31,0,0,1,186,224.16a156.31,156.31,0,0,0,24.26-13.32c34.87-23.46,40.7-48.7,41.59-58.46,1-10.55-.11-16.45-1.35-23.28a118.88,118.88,0,0,1-2.31-23.81c0-16.87,14.59-40.49,17.59-45.17L203.55,4.34C199.94,7.57,184,20.78,165.13,20.78c-17.73,0-27.16-10.39-30-14.18-2.84,3.79-12.26,14.18-30,14.18-18.88,0-34.81-13.22-38.42-16.45Z"/><path class="cls-6" d="M24.94,63.32c6,11.27,13.18,27.63,13.18,42A134.23,134.23,0,0,1,35.54,132a65.89,65.89,0,0,0-1.46,12.8c0,1.82.09,3.84.3,6.17,1.42,15.58,14.34,33,34.58,46.62A139.38,139.38,0,0,0,91,209.63a242.91,242.91,0,0,1,31.31,16.93c4.54,2.88,8.95,7.53,12.79,10.8,3.84-3.27,8.25-7.92,12.79-10.8a242.65,242.65,0,0,1,31.32-16.93,139.36,139.36,0,0,0,22.06-12.08c20.23-13.61,33.16-31,34.58-46.62.21-2.33.3-4.34.3-6.17a65.7,65.7,0,0,0-1.46-12.8,134.39,134.39,0,0,1-2.57-26.66c0-14.35,7.15-30.71,13.18-42L202.58,25c-9.12,5.74-22.35,11.82-37.45,11.82a54.39,54.39,0,0,1-30-8.81,54.36,54.36,0,0,1-30,8.81C90,36.81,76.81,30.73,67.69,25L24.94,63.32"/><path class="cls-5" d="M135.13,238.78l-.7-.6c-1.21-1-2.45-2.17-3.76-3.38a66.71,66.71,0,0,0-8.9-7.32,242,242,0,0,0-31.17-16.85,140.34,140.34,0,0,1-22.23-12.17C47.85,184.66,34.75,166.93,33.3,151c-.21-2.3-.31-4.35-.31-6.27a67,67,0,0,1,1.48-13A133.34,133.34,0,0,0,37,105.3C37,91.18,29.93,75,24,63.83l-.4-.75,44-39.45.69.44c8.45,5.32,21.7,11.66,36.87,11.66a53,53,0,0,0,29.4-8.63l.59-.39.59.39a53,53,0,0,0,29.41,8.63c15.17,0,28.42-6.34,36.87-11.66l.69-.44.61.55,42.75,38.33.63.57-.4.75c-6,11.13-13,27.36-13,41.47a133.46,133.46,0,0,0,2.55,26.46,66.85,66.85,0,0,1,1.48,13c0,1.92-.1,4-.31,6.27-1.44,15.9-14.55,33.63-35.05,47.42a140.2,140.2,0,0,1-22.2,12.16,241.63,241.63,0,0,0-31.2,16.86,66.82,66.82,0,0,0-8.88,7.31c-1.32,1.22-2.57,2.36-3.79,3.4ZM26.3,63.56c6,11.32,12.91,27.49,12.91,41.74a135.1,135.1,0,0,1-2.59,26.86,64.6,64.6,0,0,0-1.45,12.61c0,1.85.1,3.84.3,6.07,1.39,15.25,14.14,32.38,34.1,45.81a138.48,138.48,0,0,0,21.92,12,243.9,243.9,0,0,1,31.44,17,68.38,68.38,0,0,1,9.21,7.56c1,1,2,1.88,3,2.72,1-.85,2-1.77,3-2.73a68.39,68.39,0,0,1,9.19-7.54,243.48,243.48,0,0,1,31.44-17,138.47,138.47,0,0,0,21.91-12c20-13.44,32.72-30.56,34.1-45.81.2-2.23.3-4.22.3-6.07a65.08,65.08,0,0,0-1.44-12.61,135.45,135.45,0,0,1-2.59-26.86c0-14.24,6.92-30.42,12.9-41.74L202.46,26.34c-8.71,5.38-22,11.56-37.33,11.56a55.15,55.15,0,0,1-30-8.6,55.12,55.12,0,0,1-30,8.6c-15.27,0-28.62-6.18-37.33-11.56Z"/><path class="cls-2" d="M56.52,49.71l-18,16.18c7,14.79,10.59,28,10.59,39.41a145.92,145.92,0,0,1-2.74,28.62A56.22,56.22,0,0,0,45,144.77c0,1.55.09,3.25.26,5.18,1.1,12.14,12.52,26.9,29.79,38.52A128.61,128.61,0,0,0,95.64,199.7a252.21,252.21,0,0,1,32.57,17.61c2.24,1.42,4.55,4.23,6.92,6,2.38-1.78,4.7-4.6,6.93-6a251.68,251.68,0,0,1,32.54-17.6,128.82,128.82,0,0,0,20.59-11.25c17.27-11.62,28.68-26.38,29.79-38.52.17-1.94.26-3.63.26-5.18A56.25,56.25,0,0,0,224,133.93a146.08,146.08,0,0,1-2.75-28.64c0-11.38,3.58-24.62,10.59-39.41l-30.67-27.5c-9.46,4.89-21.93,9.37-36,9.37a66,66,0,0,1-30-7.17,65.92,65.92,0,0,1-30,7.17c-14.07,0-26.53-4.48-36-9.37L56.52,49.71"/><g class="cls-7"><polyline class="cls-4" points="236.47 96.88 159.83 96.88 159.83 30.67 110.44 30.67 110.44 96.88 33.81 96.88 33.81 146.63 110.44 146.63 110.44 229.05 159.83 229.05 159.83 146.63 236.47 146.63"/><path class="cls-5" d="M160.91,230.13H109.36V147.72H32.72V95.8h76.64V29.59h51.56V95.8h76.64v51.92H160.91ZM111.53,228h47.21V145.55h76.64V98H158.74V31.76H111.53V98H34.89v47.58h76.64Z"/></g><path class="cls-5" d="M135.13,224.69l-.65-.49a37.24,37.24,0,0,1-3.27-2.91,25.51,25.51,0,0,0-3.58-3.06,251.21,251.21,0,0,0-32.44-17.55,129.35,129.35,0,0,1-20.71-11.32C56.94,177.57,45.34,162.5,44.21,150c-.18-2-.27-3.7-.27-5.28a57,57,0,0,1,1.31-11A145,145,0,0,0,48,105.3C48,94.14,44.45,81,37.49,66.35l-.35-.73L69,37.08l.67.34c11.88,6.13,23.82,9.24,35.5,9.24a65.26,65.26,0,0,0,29.5-7.06l.49-.25.49.25a65.3,65.3,0,0,0,29.51,7.06c11.68,0,23.62-3.11,35.49-9.24l.67-.34,31.83,28.54-.35.73c-7,14.68-10.48,27.78-10.48,38.94A145.18,145.18,0,0,0,225,133.73a57.07,57.07,0,0,1,1.3,11c0,1.56-.08,3.29-.26,5.28-1.14,12.46-12.74,27.53-30.26,39.33a129.66,129.66,0,0,1-20.74,11.33,250.9,250.9,0,0,0-32.41,17.53,25.36,25.36,0,0,0-3.58,3.06,37.25,37.25,0,0,1-3.29,2.91ZM39.8,66.16C46.67,80.84,50.15,94,50.15,105.3a146.88,146.88,0,0,1-2.76,28.81,55.38,55.38,0,0,0-1.27,10.66c0,1.51.08,3.18.26,5.08,1.07,11.83,12.31,26.28,29.31,37.72A127.58,127.58,0,0,0,96.1,198.71a253,253,0,0,1,32.69,17.68,27.36,27.36,0,0,1,3.92,3.33c.8.76,1.62,1.55,2.42,2.22.81-.67,1.63-1.46,2.43-2.23a27.19,27.19,0,0,1,3.92-3.32,252.55,252.55,0,0,1,32.63-17.65,128.08,128.08,0,0,0,20.47-11.18c17-11.44,28.23-25.89,29.31-37.72.17-1.92.25-3.58.25-5.08a55.48,55.48,0,0,0-1.27-10.64,147.07,147.07,0,0,1-2.76-28.83c0-11.3,3.48-24.47,10.34-39.14L201,39.7c-12,6.07-24,9.14-35.82,9.14a67.51,67.51,0,0,1-30-7,67.46,67.46,0,0,1-30,7c-11.81,0-23.85-3.08-35.82-9.14Z"/><path class="cls-8" d="M70.75,122.68a64.56,64.56,0,1,1,64.57,64.56,64.56,64.56,0,0,1-64.57-64.56"/><path class="cls-5" d="M135.32,188.32A65.65,65.65,0,1,1,201,122.68,65.72,65.72,0,0,1,135.32,188.32Zm0-129.13a63.48,63.48,0,1,0,63.48,63.48A63.55,63.55,0,0,0,135.32,59.19Z"/><path class="cls-9" d="M104.8,96.09s4.44-1.68,7.9,1.49,5.33,9,5.33,9-6.12-.5-10-3.15a8,8,0,0,1-3.24-7.31"/><path class="cls-9" d="M101.2,96.21S96.48,95.75,94,99.7s-2.82,10.06-2.82,10.06,5.78-2.08,8.84-5.64a8,8,0,0,0,1.22-7.91"/><path class="cls-9" d="M102.36,90.14c0,.23-1.49,27.3,6.63,50.27,6.2,17.54,15.2,25.59,15.58,25.92l1-1.13c-.09-.08-9.1-8.14-15.15-25.29-7-19.77-6.11-49.57-6.12-49.79"/><path class="cls-9" d="M118.87,158.24s4.69-.68,7.4,3.16,3.27,9.92,3.27,9.92-5.87-1.81-9.09-5.23a8,8,0,0,1-1.58-7.84"/><path class="cls-9" d="M113.15,144.68s3.45-3.25,7.87-1.67,8.37,6.24,8.37,6.24-5.84,1.89-10.45.94a8,8,0,0,1-5.8-5.51"/><path class="cls-9" d="M109.82,146.45s-4.54,1.38-5.35,6,1.26,10.37,1.26,10.37,4.54-4.14,6-8.6a8,8,0,0,0-1.91-7.77"/><path class="cls-9" d="M107.35,125.19s4.19-2.23,8,.47,6.43,8.22,6.43,8.22-6.14.28-10.32-1.85a8,8,0,0,1-4.14-6.85"/><path class="cls-9" d="M104.21,126.09s-4.74.13-6.74,4.38-1.52,10.33-1.52,10.33,5.47-2.79,8.05-6.71a8,8,0,0,0,.21-8"/><path class="cls-6" d="M132.74,116.1a49.66,49.66,0,0,0,16.16-2.78,123,123,0,0,0,11.43-4.84s.09,5.3-6.75,7.81c-16.64,6.08-22,5.19-22,5.19"/><path class="cls-5" d="M132.45,122.13a6.73,6.73,0,0,1-1-.05.6.6,0,1,1,.2-1.19s5.54.75,21.73-5.16c4.61-1.69,5.88-4.65,6.22-6.21-1.59.75-5.08,2.33-10.49,4.38a49.72,49.72,0,0,1-16.39,2.82.6.6,0,0,1-.59-.61.64.64,0,0,1,.61-.59,49.44,49.44,0,0,0,15.94-2.74c7.58-2.87,11.33-4.79,11.37-4.81l.86-.44,0,1c0,.23,0,5.76-7.15,8.39C140.89,121.57,134.69,122.13,132.45,122.13Z"/><path class="cls-6" d="M135.77,111.1A49.52,49.52,0,0,0,151.88,108a122.71,122.71,0,0,0,11.35-5s.19,5.3-6.62,7.92c-16.53,6.37-21.94,5.58-21.94,5.58"/><path class="cls-5" d="M135.38,117.14a5.77,5.77,0,0,1-.79,0,.6.6,0,1,1,.17-1.19c.05,0,5.55.65,21.63-5.54,4.59-1.77,5.8-4.75,6.12-6.32-1.58.78-5,2.42-10.41,4.56a49.56,49.56,0,0,1-16.33,3.1h0a.6.6,0,1,1,0-1.21,49.29,49.29,0,0,0,15.89-3c7.53-3,11.25-5,11.29-5l.86-.46,0,1c0,.23.12,5.77-7,8.51C143.59,116.59,137.42,117.14,135.38,117.14Z"/><path class="cls-6" d="M138.82,106.1a49.64,49.64,0,0,0,16.05-3.34,123.76,123.76,0,0,0,11.26-5.24s.28,5.29-6.48,8c-16.42,6.66-21.84,6-21.84,6"/><path class="cls-5" d="M138.35,112.14a5.18,5.18,0,0,1-.61,0,.6.6,0,1,1,.15-1.2c.05,0,5.56.56,21.53-5.92,4.56-1.85,5.72-4.85,6-6.42-1.57.81-5,2.5-10.33,4.74a49.7,49.7,0,0,1-16.28,3.39.59.59,0,0,1-.61-.59.6.6,0,0,1,.59-.61,49.42,49.42,0,0,0,15.83-3.29c7.47-3.13,11.16-5.19,11.2-5.21l.85-.47.05,1c0,.23.22,5.76-6.86,8.63C146.31,111.62,140.18,112.14,138.35,112.14Z"/><path class="cls-6" d="M141.87,101.1a49.59,49.59,0,0,0,16-3.62A123.55,123.55,0,0,0,169,92s.38,5.29-6.34,8.15c-16.3,6.94-21.73,6.34-21.73,6.34"/><path class="cls-5" d="M141.35,107.15c-.28,0-.42,0-.46,0a.6.6,0,0,1,.13-1.2c.06,0,5.58.46,21.43-6.29,4.52-1.93,5.63-5,5.89-6.53-1.55.84-5,2.59-10.24,4.92a49.63,49.63,0,0,1-16.22,3.67.59.59,0,0,1-.62-.58.6.6,0,0,1,.58-.62,49.4,49.4,0,0,0,15.78-3.57c7.41-3.26,11.07-5.38,11.1-5.4l.84-.49.07,1c0,.23.32,5.75-6.7,8.74C149,106.66,143,107.15,141.35,107.15Z"/><path class="cls-6" d="M137.72,107.13c.77-6.77,6.67-12.41,9.05-19.08a30.34,30.34,0,0,0,.23-7.77c-.6-6.64-4.53-7.85-4.53-7.85a39,39,0,0,1,.3,8.15c-.3,4.53-3.32,10.26-7.24,14.49s-5.13,5.43-4.83,10,.6,20.22.6,20.22l6.34-.51V114.11c-.26-1-.48-2.06-.63-3.07a20,20,0,0,1,.7-3.9"/><path class="cls-5" d="M130.72,125.9v-.64c0-.16-.31-15.73-.6-20.19-.31-4.7,1-6.08,4.77-10.18l.21-.23c4-4.26,6.8-9.94,7.08-14.12a38.84,38.84,0,0,0-.29-8l-.16-1,.93.29c.18.05,4.32,1.4,5,8.37a31.13,31.13,0,0,1-.23,7.93l0,.1a44,44,0,0,1-4.23,8.06c-2.24,3.64-4.36,7.07-4.79,10.89l0,.09a19.59,19.59,0,0,0-.67,3.72c.14.93.35,1.92.61,3l0,.15v11.19Zm12.51-52.37a41.2,41.2,0,0,1,.15,7.1c-.3,4.5-3.21,10.34-7.4,14.86l-.21.23c-3.73,4-4.73,5.1-4.45,9.28.26,4,.53,16.61.59,19.61l5.15-.41v-10c-.27-1.06-.48-2.09-.62-3.06V111a20.56,20.56,0,0,1,.71-4c.47-4.07,2.75-7.77,5-11.34a43.47,43.47,0,0,0,4.11-7.78,30,30,0,0,0,.21-7.56C146,76.19,144.32,74.31,143.23,73.52Zm-5.51,33.61h0Z"/><path class="cls-6" d="M167,125.65a41.41,41.41,0,0,0-5.22,5.33c-6.41,7.79-10.56,12.07-19.92,12.07s-17.5-5.13-20.82-13.28-6.64-14.19-11.47-14.19a18.56,18.56,0,0,0-8.75,2.42s4.22-9.66,12.07-9.66,12.07,8.15,15.69,12.07,16.6,4.83,24.44,2.42c7-2.15,10.86-9.05,18.11-8.45"/><path class="cls-5" d="M141.87,143.65c-9.61,0-18-5.36-21.38-13.65s-6.52-13.81-10.91-13.81a18,18,0,0,0-8.44,2.33l-1.64,1,.77-1.77c.18-.41,4.48-10,12.63-10,6.48,0,10.51,5.19,13.75,9.35.84,1.08,1.63,2.1,2.39,2.91,3.28,3.55,15.75,4.73,23.82,2.25a25.67,25.67,0,0,0,7.35-4.15c3.35-2.42,6.51-4.7,11-4.33l-.1,1.2c-4-.34-7,1.82-10.18,4.1a26.59,26.59,0,0,1-7.7,4.32c-7.79,2.39-21.15,1.66-25.06-2.58-.79-.85-1.6-1.89-2.45-3-3.08-4-6.91-8.89-12.8-8.89-5.43,0-9.09,5-10.66,7.66a18.64,18.64,0,0,1,7.33-1.63c5.06,0,8.47,5.82,12,14.57,3.19,7.84,11.15,12.9,20.26,12.9s13.22-4.28,19.46-11.85a42.21,42.21,0,0,1,5.29-5.4l.78.92a41,41,0,0,0-5.14,5.25C156,139,151.63,143.65,141.87,143.65Z"/><path class="cls-6" d="M167.52,114.68a11.53,11.53,0,0,1,7.54.3c5.53,2.42,3.62,5.43,3.62,5.43a51.22,51.22,0,0,0-5.43-1.81,8.78,8.78,0,0,0-4.51.11,8.89,8.89,0,0,1,3,.85c6.34,3,3.62,5.43,3.62,5.43a52,52,0,0,0-5.43-1.81,8.07,8.07,0,0,0-4.37.13,9.51,9.51,0,0,1,2.82.83c6.34,3,3.62,5.43,3.62,5.43a51.36,51.36,0,0,0-5.43-1.81,9.67,9.67,0,0,0-4.53,0"/><path class="cls-5" d="M172.07,130.27l-.35-.14a51.06,51.06,0,0,0-5.36-1.79,9.08,9.08,0,0,0-4.21,0,.6.6,0,0,1-.33-1.16,10.24,10.24,0,0,1,4.84,0,48.93,48.93,0,0,1,5.09,1.67,1.3,1.3,0,0,0,.16-.84c-.09-.6-.72-1.83-3.84-3.32a8.88,8.88,0,0,0-2.62-.77l-2.53-.28,2.38-.89a8.66,8.66,0,0,1,4.73-.14,49.62,49.62,0,0,1,5.09,1.67,1.3,1.3,0,0,0,.15-.84c-.09-.6-.72-1.83-3.84-3.32a8.33,8.33,0,0,0-2.75-.79l-2.85-.25,2.71-.92a9.36,9.36,0,0,1,4.85-.12,48.06,48.06,0,0,1,4.95,1.61,2.15,2.15,0,0,0-.05-1.15c-.35-1.09-1.55-2.11-3.47-2.95a11,11,0,0,0-7.11-.28.6.6,0,0,1-.39-1.14,12,12,0,0,1,8,.32c2.31,1,3.7,2.26,4.15,3.73a3.27,3.27,0,0,1-.26,2.58l-.27.42-.47-.19a51,51,0,0,0-5.36-1.78,7.5,7.5,0,0,0-1.2-.2l0,0c2.79,1.33,4.31,2.76,4.52,4.26a2.55,2.55,0,0,1-.75,2.17l-.28.25-.35-.14a51.81,51.81,0,0,0-5.36-1.79,7.42,7.42,0,0,0-1.2-.2l0,0c2.79,1.33,4.31,2.76,4.52,4.26a2.55,2.55,0,0,1-.75,2.17Z"/><path class="cls-6" d="M151.83,124s-9.37-1.85-9.37-13c0-11.39,9.11-19.81,9.55-21.93a28.19,28.19,0,0,0,.43-8.83c-.6-6.64-4.52-7.85-4.52-7.85a39.37,39.37,0,0,1,.3,8.15c-.3,4.53-3.32,10.26-7.25,14.49s-5.12,5.43-4.83,10,.64,20.89.64,20.89"/><path class="cls-5" d="M136.77,126.52a.6.6,0,0,1-.6-.59c0-.16-.34-16.4-.64-20.86-.31-4.71,1-6.09,4.78-10.19l.21-.22c4-4.26,6.81-9.93,7.09-14.12a39,39,0,0,0-.29-8l-.16-1,.93.29c.18.05,4.32,1.4,4.95,8.37a28.64,28.64,0,0,1-.44,9,11.71,11.71,0,0,1-2,3.21c-2.83,3.9-7.57,10.44-7.57,18.6,0,10.5,8.53,12.34,8.89,12.41a.6.6,0,0,1-.24,1.18c-.1,0-9.86-2.08-9.86-13.59,0-8.55,5.07-15.55,7.8-19.31A13.87,13.87,0,0,0,151.41,89a27.49,27.49,0,0,0,.42-8.65c-.38-4.16-2.08-6-3.17-6.82a41.51,41.51,0,0,1,.15,7.1c-.3,4.51-3.21,10.34-7.41,14.86l-.21.22c-3.73,4-4.73,5.1-4.46,9.28.3,4.49.64,20.75.64,20.92a.6.6,0,0,1-.59.62Z"/><path class="cls-6" d="M143.3,105.24c1-4.94,7.26-5.8,9.87-9.32a20.11,20.11,0,0,0,3.35-8c1.49-6.5-1.86-8.87-1.86-8.87a39.17,39.17,0,0,1-2.25,7.84c-1.2,3-5,5.85-8.28,8.42"/><path class="cls-5" d="M143.3,105.84h-.12a.6.6,0,0,1-.47-.71c.67-3.22,3.29-4.8,5.83-6.32a14,14,0,0,0,4.16-3.23,19.33,19.33,0,0,0,3.25-7.73c.93-4.05-.11-6.37-.9-7.46A41.3,41.3,0,0,1,153,87.16c-1.19,3-4.75,5.75-7.88,8.21l-.58.46a.6.6,0,0,1-.75-.95l.58-.46c3-2.37,6.43-5.06,7.51-7.72a38.92,38.92,0,0,0,2.21-7.7l.15-1,.8.56c.15.11,3.67,2.68,2.1,9.5a21,21,0,0,1-3.46,8.18,15.07,15.07,0,0,1-4.5,3.54c-2.42,1.46-4.71,2.84-5.27,5.53A.6.6,0,0,1,143.3,105.84Z"/><path class="cls-5" d="M108.27,112.47a4.52,4.52,0,0,1,3.22-1.41c2,0,2.69.5,3.86,2.43-2.26-1-8,.84-7.08-1"/></g></svg>