<?xml version="1.0" encoding="utf-8"?>
<!-- Generator: Adobe Illustrator 21.1.0, SVG Export Plug-In . SVG Version: 6.00 Build 0)  -->
<!DOCTYPE svg PUBLIC "-//W3C//DTD SVG 1.1//EN" "http://www.w3.org/Graphics/SVG/1.1/DTD/svg11.dtd" [
	<!ENTITY ns_extend "http://ns.adobe.com/Extensibility/1.0/">
	<!ENTITY ns_ai "http://ns.adobe.com/AdobeIllustrator/10.0/">
	<!ENTITY ns_graphs "http://ns.adobe.com/Graphs/1.0/">
	<!ENTITY ns_vars "http://ns.adobe.com/Variables/1.0/">
	<!ENTITY ns_imrep "http://ns.adobe.com/ImageReplacement/1.0/">
	<!ENTITY ns_sfw "http://ns.adobe.com/SaveForWeb/1.0/">
	<!ENTITY ns_custom "http://ns.adobe.com/GenericCustomNamespace/1.0/">
	<!ENTITY ns_adobe_xpath "http://ns.adobe.com/XPath/1.0/">
	<!ENTITY st0 "fill:#CC051D;">
	<!ENTITY st1 "opacity:0.99;fill:#149035;fill-opacity:0.85;enable-background:new    ;">
	<!ENTITY st2 "fill:#149035;">
	<!ENTITY st3 "fill:#FEFEFE;">
	<!ENTITY st4 "fill:#FFFFFF;">
	<!ENTITY st5 "fill:#C8AD60;">
]>
<svg version="1.1" id="svg2" xmlns:x="&ns_extend;" xmlns:i="&ns_ai;" xmlns:graph="&ns_graphs;"
	 xmlns="http://www.w3.org/2000/svg" xmlns:xlink="http://www.w3.org/1999/xlink" x="0px" y="0px" viewBox="0 0 792.4 1185.1"
	 style="enable-background:new 0 0 792.4 1185.1;" xml:space="preserve">
<metadata>
	<?xpacket begin="﻿" id="W5M0MpCehiHzreSzNTczkc9d"?>
<x:xmpmeta xmlns:x="adobe:ns:meta/" x:xmptk="Adobe XMP Core 5.6-c137 79.159768, 2016/08/11-13:24:42        ">
   <rdf:RDF xmlns:rdf="http://www.w3.org/1999/02/22-rdf-syntax-ns#">
      <rdf:Description rdf:about=""
            xmlns:dc="http://purl.org/dc/elements/1.1/">
         <dc:title>
            <rdf:Alt>
               <rdf:li xml:lang="x-default">Toulon</rdf:li>
            </rdf:Alt>
         </dc:title>
      </rdf:Description>
   </rdf:RDF>
</x:xmpmeta>
                                                                                                    
                                                                                                    
                                                                                                    
                                                                                                    
                                                                                                    
                                                                                                    
                                                                                                    
                                                                                                    
                                                                                                    
                                                                                                    
                                                                                                    
                                                                                                    
                                                                                                    
                                                                                                    
                                                                                                    
                                                                                                    
                                                                                                    
                                                                                                    
                                                                                                    
                                                                                                    
                           
<?xpacket end="w"?>
	<sfw  xmlns="&ns_sfw;">
		<slices></slices>
		<sliceSourceBounds  bottomLeftOrigin="true" height="1185.1" width="792.4" x="0" y="0"></sliceSourceBounds>
	</sfw>
</metadata>
<title>Toulon</title>
<path id="path3033" style="&st0;" d="M396.2,185.1C275,245.7,137.4,255.4,4.9,269.6C-8.1,401.5,5.6,535.5,35.4,664.3
	c37.1,157.4,115,305.2,228.9,420.6c38.1,39.4,76.2,69,131.9,100.3c55.7-31.3,93.8-60.9,131.9-100.3C642,969.5,720,821.7,757.1,664.3
	c29.8-128.8,43.4-262.8,30.5-394.7C655,255.4,517.5,245.7,396.2,185.1z"/>
<path id="path3851" d="M396.2,345.3c-105.9,52.1-211.4,57.4-321.5,65.5c1.9,89,2.1,127.4,15.1,198.4
	c17.3,94.4,62.4,201.9,122.7,292.5c55.9,78.1,125.8,163.2,183.9,201c58.1-37.8,127.6-122.9,183.5-201
	c60.3-90.6,105.5-198.2,122.8-292.5c13-71,13.1-109.3,15.1-198.4C607.6,402.6,502.1,397.4,396.2,345.3z"/>
<g id="g3901">
	<path id="path3911" style="&st1;" d="M531.7,512.2c-0.9,0-1.2,3.6-1.2,13.2c0,1.7,0,3.3,0,4.9c0,0.9-0.1,1.8-0.1,2.7s-0.1,2-0.2,3
		c0,0.7-0.1,1.4-0.2,2.1c0,0.4-0.1,0.8-0.1,1.2c-0.7,6.6-2,13.1-3.9,19.4c-1.8,6.1-3.5,9-12.1,20c-9.6,12.3-24.3,33.6-31.3,45.2
		c-1.8,3-3.5,5-3.8,4.4c-0.2-1.3-0.2-2.7-0.1-4c0.2-1.7,0.3-3.4,0.4-5.1c0-0.1,0-0.2,0-0.2c1.1-9.4,1.3-18.8,0.5-28.2
		c-0.1-1.6-0.2-3.1-0.4-4.2c0-0.2-0.1-0.5-0.1-0.7c-1.3-8.6-3.6-14.6-6.8-15.6c-1.7-0.6-1.5,1.6,0.8,6.3c1.4,3.2,2.5,6.6,3.1,10.1
		c0.4,2.8,0.6,5.5,0.6,8.3c0,0.9,0,1.8,0,2.7c0,0.2,0,0.5,0,0.7c0,0.7,0,1.4,0,2.2c0,1.8-0.1,3.6-0.2,5.5c0,0.2,0,0.4,0,0.7
		c-0.3,8.2-1.1,16.3-2.5,24.3c-1.6,9.1-2.8,12.3-8.8,24c-3.8,7.4-9.1,18.7-11.8,25c-4.9,11.6-6.1,13.8-7,12.9
		c-0.3-0.3-1-3.8-1.5-7.9c-2.5-17.6-9.2-35.9-13.2-35.9c-1.5,0-0.9,2.9,1.3,7.3c4.8,9.5,8.8,25,9.7,37.5c0,0.8,0.1,1.6,0.1,2.4
		c0,0.1,0,0.1,0,0.2c0,0.8,0.1,1.7,0.1,2.5c0,0.7,0,1.3-0.1,1.9c-0.3,4.6-1.8,10.2-6.3,24.1c-3.5,10.8-7.4,23.4-8.6,28.1
		c-2.5,9.7-3.6,11.6-4.5,7.4c-2.1-9.3-4.8-15.4-7-15.4c-1.9,0-1.9,0.3,1,7.4c1.7,4.7,2.9,9.6,3.7,14.6c1.2,8.2,1.1,9.1-2.4,26.5
		c-5.6,28.1-10.6,73.1-12.3,110c-0.6,14-1.7,20.6-3,19.2c-0.3-0.3-2.1-8.2-3.9-17.6c-16.4-82.6-53.9-177-109.4-275.5
		c-7.6-13.5-12.9-24-13.8-27.5c-0.1-0.6-0.3-1.2-0.4-1.9c-2-10.4-2.3-33.8-0.5-42.7c1.9-9.4,9.6-25.8,13.2-28.1
		c2.7-1.8,3.3-5.4,0.9-5.4c-0.2,0-0.4,0.1-0.6,0.2c-0.5,0.1-1.1,0.6-1.9,1.6l-0.1,0.2c-3.5,3.8-9,12-10.8,16.8
		c-3.2,8.3-4.6,16.4-4.9,27.8c0,0.7,0,1.3,0,2s0,1.3,0,2c0,1.3,0,2.7,0.1,4c0,0.3,0,0.6,0,0.9c0.2,8.8,0,15.4-0.6,15.2
		s-6.6-9.3-13.5-20.2c-15.7-24.8-25.2-38.7-26.8-39.2c-0.9-0.3-1.4,0-1.2,1c-0.1,0.2-0.1,0.4-0.1,0.6c0.5,1.2,1.1,2.4,1.9,3.4
		l0.1,0.2c1.4,2.6,3.7,6.1,6.8,10.8c17.4,26.1,18.4,27.9,13.4,25.4c-4.2-2.1-12.2-3.6-19.5-4.2l-0.8-0.1h-0.2
		c-0.8-0.1-1.6-0.1-2.3-0.1h-0.4c-0.3,0-0.6,0-0.9,0c-5.8-0.1-10.2,0.5-10.2,2.1c0,0.8,2.9,1.2,9.8,1.2c11.5,0,21.2,2.6,28.8,7.7
		c4,2.7,6.3,5.6,13,16.8c12.3,20.4,28.8,49.9,28.2,50.5c-0.3,0.3-3.1-0.8-6.4-2.5c-6.7-3.3-14.2-4.8-21.7-4.4
		c-5.8,0.2-11.6,1.4-17.1,3.4c-6.1,2.3-11.8,5.8-12.4,7.7c-0.3,0.9,0.1,1.3,1.1,1.2c0,0,0.1,0.1,0.1,0.1l0.2-0.1
		c1.6-0.3,4.4-1.4,8.4-3.5c9.8-5,19.2-6.8,27.1-5.3c11.2,2,22.3,9.1,28.2,17.9c3.8,5.7,28.5,55,28.5,56.9c0,1.4-0.1,1.4-4.3-0.4
		c-2.3-0.9-4.8-1.4-7.3-1.4h-0.9h-0.4c-0.3,0-0.6,0-0.9,0c-5,0.2-10,1.6-13.2,4c-1.8,1.3-2.1,2.2-1.3,2.9s2.6,0.4,6.5-1.4
		c9.4-4.4,15.3-2.8,24.1,6.2c3.7,3.8,6,7.7,10.4,17.8c22.8,52.5,41,108.3,50.4,154.5c5.2,25.5,6.9,38.7,7.6,59.5c0,0.6,0,1.2,0,1.8
		c0,1.9,0.1,3.8,0.2,6c0.1,7.4,0.1,13.3,0.1,17.9c-0.2,6.4-0.7,7.8-1.8,5.9c-0.4-0.8-2.2-6.5-4-12.5c-10.6-36.1-28.2-69.7-51.8-98.9
		c-9.7-12-11-13.6-25-27.8l-1.6-1.7c-3-3.1-6.2-6.3-9.4-9.4c-11.8-11.8-17.9-17.5-29.2-27.5c-2.4-2.1-5.1-4.5-6-5.4
		c-9.2-8.5-33.1-26.2-41.1-30.4c-8.9-4.8-11.2-6.4-19.3-13.7c-11.4-10.4-22.2-21.4-32.2-33.2c-2-2.3-4.4-5.2-5.9-6.9
		c-1.4-1.7-2.6-3.3-3.8-4.9l-0.2-0.2c-3.6-5.4-8.7-14.8-17.7-31.9c-6.9-13.3-9.5-17.9-11.2-19.4c-0.2-0.3-0.4-0.5-0.6-0.7
		c-0.6-0.3-1.3-0.3-1.9,0l0,0c-1.6,0.2-1.9,1.2-2.5,7c-0.3,3.3-0.4,6.6-0.2,9.9c0,1.5,0.1,3,0.2,4.6c0,0.3,0,0.7,0.1,1
		c0.5,9.1,1.6,18.2,3.3,27.2c2.9,14.5,9.1,32.1,16.5,47.3c10.2,20.8,28,46.4,45.6,65.4c2.8,3,8.8,9.4,13.2,14.2
		c10.4,11.3,35.8,36.6,48.8,48.8c5.6,5.2,12.3,11.5,14.9,14s7.4,6.8,10.5,9.5s7.6,6.6,9.8,8.7s7.7,6.7,12.1,10.5s9.1,7.8,10.5,9
		c2.1,1.8,16.8,13.9,36.6,30c21.3,17.3,42.9,35.6,43.2,36.5c0.7,1.8,3.6,0.3,4.2-2.2c0.4-1.5,0.7-5.9,0.8-11.7c0-0.2,0-0.5,0-0.7
		c0.1-4.5,0-10-0.2-16.1c0-1.2-0.1-2.3-0.1-3.4c-0.1-3.7-0.3-7.4-0.6-10.7c-0.1-0.8-0.1-1.7-0.2-2.6c-0.3-6.8-0.4-14.8-0.2-23.5
		c0-0.3,0-0.6,0-0.9c0.8-40,5.8-100.9,10.7-128.5c0-0.3,0.1-0.5,0.2-0.8c0.2-1.1,0.4-2.1,0.6-3.1c0-0.2,0.1-0.3,0.1-0.4
		c0.5-2.6,1.2-5.1,2-7.6c4.5-11.5,10.8-22.3,18.6-32c0.9-0.9,1.7-1.8,2.4-2.7l0.2-0.2c0.3-0.3,0.7-0.7,1-1c0.9-0.8,1.7-1.8,2.2-2.8
		c0.2-0.2,0.3-0.4,0.4-0.6c0-0.1,0-0.2,0-0.3l0,0c0.1-0.8-0.3-1.3-1.2-1.3c-1.7,0-10.3,9.5-15.3,16.8c-2.4,3.5-4.5,5.9-4.8,5.4
		c-1.1-1.8,10.7-45.6,16.3-60.5c1.4-3.6,3.2-7.1,5.3-10.4c5.5-8.3,20-21.8,32.2-30c11.1-7.4,12.2-8.3,10.8-9.7
		c-2-2-22.5,12.6-36.6,26.1c-2.1,2-3.8,3-3.8,2.4s2.7-7.6,6.1-15.4c11.6-27.1,30.7-62.7,36.6-68c1.5-1.4,4.8-4.5,7.3-6.8
		c13.8-12.9,38.2-24.6,56.5-28l0,0c0.8-0.1,1.5-0.2,2.3-0.3c1.4-0.2,2.8-0.3,4.2-0.4c0.3,0,0.5-0.1,0.8-0.1c0.8,0,1.6-0.1,2.3-0.1
		c3.7,0,4.9-0.4,4.9-1.5s-2.7-1.6-6.7-1.5h-0.4c-2.9,0.1-5.8,0.4-8.7,1l-1.2,0.2c-5.1,0.9-10.1,2.1-15,3.8
		c-9.9,3.3-18.4,7.6-28.7,14.6c-5.1,3.5-9.3,5.9-9.3,5.4c0-1.1,22.2-30.5,28.2-37.4c8.1-9.2,32.8-33.5,39.8-39.2s7.9-6.8,6-8
		c-1.1-0.7-5.9,3-16.1,12c-3.1,2.8-8.2,7.2-11.3,9.8c-3.5,3.1-6.8,6.5-9.8,10.2c-0.5,0.7-1,1.3-1.4,1.8c-1.6,1.5-3,2.8-3.9,3.5h-0.1
		c-1.3,0.3-1.4-2,0.2-6.8c0.2-0.8,0.9-6.5,1.4-12.7C534.2,524.6,533.5,512.2,531.7,512.2z M614.9,713.2c-0.8,0-1.9,0.1-3.1,0.2
		c-0.3,0-0.5,0-0.9,0c-23.9,1.5-71.2,25.3-96.2,48.2c-22.6,20.8-37,38.6-50.2,62c-21.8,38.8-38.7,105.2-46.2,181
		c0,0.2,0,0.3-0.1,0.5c0,0.4-0.1,0.9-0.1,1.4c-0.8,7.8-1.4,15.5-1.9,22.9c0,0.2,0,0.4,0,0.6c-0.7,9.2-1.2,17.8-1.4,23.4
		c-0.1,0.7-0.1,1.4-0.2,1.9c-0.3,2.7-0.3,3.8,0.1,4.4c0,0.2,0,0.4,0.1,0.6c0.8,1.3,1.9,0.8,4.5-2c4.2-4.4,6.3-9.6,17.2-42
		c19.9-59.1,28.4-80.8,42.6-109.8c16-32.6,34.7-60.4,50.4-74.8l0.4-0.4c0.9-0.8,1.8-1.6,2.7-2.3c5.6-4.6,12.7-9,14.6-9
		c1.5,0,2-1.2,1.8,14.4c0,0.2,0,0.6,0,0.8c-0.3,12.2-0.7,29.8-0.9,46c-0.4,20.3-0.6,36.4-0.3,36.7s3.2-2.4,6.5-6
		c38.9-41.1,63.6-99.3,68-160.2c1-14.7,0-32.9-2.1-36.9c-0.7-1.3-1.3-1.8-3.9-1.8c-0.2,0-0.5,0-0.8,0L614.9,713.2L614.9,713.2z"/>
	<path id="path3903" style="&st2;" d="M531.7,513.5c-1.1,0-0.6,8.4-0.6,11.5c0.1,8.3-0.4,11.3-1.6,20.4c-2,15.7-4.2,20-15.4,34.4
		c-9.2,11.8-28.9,40.4-33.2,48.4c-1,1.8-2,3-2.4,2.7s0-6.7,0.7-14.1c1.9-20.3,0.2-36-4.6-43.3c-0.3-0.5-0.7-1-1.1-1.4
		c-0.4-0.5-0.6-0.8-0.8-0.7c0,0.1-0.1,0.1-0.1,0.2c-0.4,0.2-0.1,1.8,1,4.1c1.2,3,2.2,6.1,2.8,9.3c1.4,7.6,0.5,33.8-1.7,46.8
		c-1.2,7.5-2.3,11-7.2,21.4c-2.5,4.5-4.8,9.2-6.7,14l0,0l-0.1,0.2c-3.6,7.7-7,15.1-8.4,18.4c-1.3,3.1-2.2,5.3-3,6.8
		c0,0.1-0.1,0.2-0.1,0.2c-0.2,0.4-0.4,0.8-0.6,1.1l-0.1,0.2c-0.1,0.2-0.3,0.4-0.4,0.7c-0.5,0.7-0.9,0.8-1.2,0.4s-1-3.8-1.5-7.9
		c-1.7-12.1-6.7-28.4-10.2-34.2l0,0c0,0-0.1-0.1-0.2-0.2c-0.1-0.2-0.3-0.4-0.4-0.6c-0.2-0.4-0.5-0.7-0.8-1c-2-1.6-1.9,0.3,0.2,4.3
		c5.3,10.3,9.4,29.1,9.4,43.7c0,7.6-0.6,10.2-6.6,28.4c-3.6,11-7.4,23.6-8.5,28c-0.6,2.9-1.4,5.7-2.3,8.4c-0.9,0.9-2.6-0.8-2.6-2.6
		c0-2.3-3.8-13.3-5-14.5c-1.8-1.8-2,0.1-0.4,3.9c2.1,5,4.4,17.4,4.4,23.5c0,2.7-1.6,12.6-3.5,22.2c-3.2,16.3-8.6,55-8.6,61.4
		c0,1.6-0.4,6.5-0.9,10.9c-1,8.1-2.2,25.4-2.8,42c-0.4,11.2-1.7,20.5-2.5,18.5c-0.3-0.8-1.5-6.9-2.7-13.5
		c-14.5-81.9-54.9-184.9-112.3-286.7c-10.8-19.2-11.8-21.2-13.2-29.4c-0.8-4.9-1.4-9.9-1.5-14.8c0-3.4-0.6-4.5-0.6-7.6
		c0-3.4,0.5-6.8,0.6-9.7c0-12.8,6.1-29.8,13.5-37.9c0.8-0.9,1.6-1.9,2.2-3c0.4-0.7,0.5-0.6,0.1-1.3c-1.8-0.3-1.2,0.3-4,2.9
		c-2.6,3.3-4.9,6.8-6.9,10.4c-6.6,9.9-7.4,31-7.4,38c0,1.9-0.1,5.1-0.2,11.7c0,4.3,0.3,7.1,0.1,8.2c-0.1,0.1-0.3,0.1-0.4,0.1
		c-0.1,0-0.4-0.2-0.7-0.5c-1.8-2.4-6.8-9.9-12.2-18.7c-14-22.3-25.6-39.9-27.1-40.8c-0.9-0.5-1.2-0.4-0.9,0.6
		c-0.3,0.3,0.5,1.9,2.7,5.2c1.7,2.8,4.1,6.6,7.5,11.6c11.4,17.3,15.4,23.6,14.3,24.6c-0.5,0.1-1,0.1-1.5,0c-1-0.4-1.9-0.8-2.8-1.2
		c-3.8-1.9-12-4.1-15.8-4.3c-9.9-0.4-15.2,0-15.6,1.2c-0.2,0-0.4,0.1-0.6,0.2c-0.3,0.3,0.1,0.5,0.8,0.5c0.3,0.3,0.8,0.4,1.2,0.2
		c5.4-1.6,23.6,1.2,31.1,4.8c8.4,4,15,13.6,38.9,56.2c9.9,17.5,9.9,18,0.6,13c-8.1-4.4-12.8-5.3-24.9-5.2c-5.8,0.1-23.8,7.2-25.5,10
		c-0.5,0.8-0.2,1.1,0.8,0.9c0.3,0.1,0.9-0.1,2-0.7s2.8-1.3,4.8-2.3c5.8-2.9,17.1-6.1,21.3-6c7.5,0.3,14.9,2.3,21.5,5.9
		c11,6.5,14.4,11.3,29.4,41.6c7.5,15,13.6,28.1,13.6,29c0,2.1-0.9,2.1-6.2-0.3c-2.4-1.1-4.9-1.8-7.6-2c-3.5,0-13.9,3.5-14.9,5.1
		c-1.3,2,0.6,2,4.8,0c5.1-2.5,13.5-2.8,17.6-0.7c1.5,0.8,5.2,4.1,8.2,7.3c4.6,5,6.4,8.2,12.1,21.8c27.2,64.7,43.1,117.6,52.5,174.4
		c2.2,13.2,2.7,19.7,3.1,43.2c0.2,14.3,0.2,24-0.2,26.8l0,0c-0.1,0.3-0.2,0.4-0.3,0.4s-0.4-0.2-0.6-0.6c-1.4-3.3-2.6-6.7-3.5-10.2
		c-4.1-13.8-9.1-27.3-14.9-40.4l-0.9-2.1l-0.2-0.6c-1.6-3.5-3.2-7-4.9-10.4c-0.8-1.7-1.7-3.4-2.6-5l-0.4-0.8l-0.7-1.3
		c-4-7.5-8.1-14.5-12.2-20.8c-20.7-31.2-52.1-64.6-91.1-97c-13.2-11-30.9-23.9-37.5-27.4c-9.5-5-15.9-10.3-31.5-26
		c-24.5-24.6-31.1-33-45.9-61.3c-0.8-1.6-1.7-3.2-2.6-4.9c-0.2-0.4-0.3-0.6-0.5-1c-1.8-3.5-3.4-6.5-4.9-9.3c-2.8-5.1-4.8-8.8-5.2-9
		c-5.4-3.3-5.9,23-0.8,48c7.4,36.5,29,76.6,60.8,112.5c38.8,43.8,85,86.8,153.7,142.7c8.2,6.7,22.4,18.5,31.4,26.2s17,14,17.7,14.1
		c2.8,0.2,3.5-8,2.7-28.9c-1.3-29.4-0.4-71.8,2.2-103c0.8-9.6,1.4-18.6,1.4-20c0-3.3,3.6-32.5,5.7-46.5c0.9-6.1,2.4-12.1,4.5-17.9
		c3.9-9.7,11.5-21.8,17.7-28.5c2.9-3.1,5.2-6,5.2-6.3c0-3-10.5,8.2-16.4,17.5c-2.6,4.1-4.8,6.3-5.3,5.6c0-0.2-0.1-0.3-0.1-0.5
		c0,0,0,0,0-0.1c0-0.4,0.1-0.7,0.2-1.1c0.3-1,1.2-5.1,2.1-9.2c2.5-11.2,8.2-31.9,12.6-45.6c2.7-8.3,5.2-13.9,8-18
		c6.3-9,18.7-20.5,31.4-29.1c10.4-7,13-9.3,10.6-9.3c-2.9,0-28.3,19.2-35.8,27c-1.8,1.9-3.7,3.1-4.1,2.7
		c-1.9-1.9,20.7-50.6,33.1-71.2c4.8-7.9,8.6-12.9,13.8-17.8c7.6-7.2,21.5-17,30.8-21.6c11.1-5.6,27.6-10,37-10c5,0,7.5-1.5,4.4-2.7
		c-2.6-1-17.2,1.4-26.1,4.2c-4.5,1.5-8.8,3.2-13.1,5.2l-0.1,0.1c-3.4,1.4-6,2.6-7,3.5c-5,2.6-9.7,5.6-14.3,8.8
		c-4.6,3.3-8.5,5.5-8.7,4.9c-0.5-1.5,17-25.4,28.3-38.5c8.2-9.5,34.8-35.9,41.4-41.1c5.6-4.4,7.3-6.5,5.3-6.5
		c-0.4,0-3.5,2.5-7.3,5.8c-2,1.6-4.2,3.5-6.8,5.8c-3,2.6-6,5-7.7,6.3c-4.3,3.4-7.3,6.4-16.2,16.5c-2.2,2.1-4,3.7-4.8,4.3l0,0
		c-0.1,0-0.1,0-0.2,0c-0.5-0.3-0.1-4.5,0.9-9.3c1.1-5.4,1.6-11,1.6-16.5c0.1-2-0.3-7,0-9.3s0.4-9.3-0.7-10c-0.1-0.1-0.3-0.2-0.5-0.2
		L531.7,513.5z M230.6,537.2c0,0,0.1,0,0.1,0.1L230.6,537.2L230.6,537.2L230.6,537.2z M550.1,540.5c-1.8,1.8-3.7,3.6-5.6,5.5
		c-2.1,2.1-4,4-5.9,5.7C540.5,549.1,546.5,543.4,550.1,540.5z M226,573.9c0.5,0,1,0,1.7,0s1,0,1.4,0c-0.5,0.1-0.9,0.1-1.4,0.1
		C227.2,574,226.6,574,226,573.9z M246.2,576.2h0.2c0.8,0,1.6,0.3,2.2,0.8C247.8,576.7,247,576.5,246.2,576.2L246.2,576.2z
		 M566.8,580.8c-0.8,0.1-1.7,0.2-2.5,0.1c-0.6,0-1.1,0-1.6,0h1.1C565.2,580.9,566.2,580.9,566.8,580.8L566.8,580.8z M538.3,585.2
		c0.1,0,0.2,0,0.3,0.1l-1.7,0.5C537.4,585.5,537.8,585.2,538.3,585.2L538.3,585.2z M538.1,586.8c-0.3,0.2-0.6,0.4-1,0.4
		C537.4,587.1,537.8,586.9,538.1,586.8L538.1,586.8z M479.1,597.8c0.1,2.1,0.1,4.6,0,6.7C479.1,602.4,479.1,600,479.1,597.8
		L479.1,597.8z M477.9,617.4C477.9,617.4,477.9,617.4,477.9,617.4c0.3,1.2,0.3,2.4,0,3.6c-0.1,0.3-0.1,0.4-0.2,0.4
		C477.8,619.5,477.8,618.2,477.9,617.4L477.9,617.4z M284.4,624.6l0.2,0.3c0.1,0.2,0.2,0.4,0.3,0.6
		C284.7,625.3,284.5,625,284.4,624.6L284.4,624.6z M289.7,631.3c0.2,0.2,0.3,0.5,0.4,0.7L289.7,631.3z M288.3,631.4l0.7,1.2
		l-0.1-0.1C288.6,632.2,288.4,631.8,288.3,631.4L288.3,631.4z M293.3,640.3l0.7,1.3l-0.1-0.1C293.6,641.2,293.4,640.7,293.3,640.3
		L293.3,640.3z M439.4,664.8c0.2,0.3,0.3,0.5,0.4,0.8c0.2,0.5,0.3,1,0.3,1.6C439.9,666.4,439.6,665.6,439.4,664.8L439.4,664.8z
		 M457.7,674.7c-0.4,1-0.9,2-1.3,3.1c0-0.1,0-0.1,0-0.2C456.5,676.5,457,675.5,457.7,674.7L457.7,674.7z M456.5,697
		c-0.9,0.9-1.8,1.7-2.6,2.5c-0.2,0.2-0.4,0.4-0.7,0.6C454.1,698.9,455.2,697.8,456.5,697L456.5,697z M444.3,699.5
		c-0.1,2.3-0.3,4.6-0.8,6.8c0.3-1.9,0.5-3.8,0.7-5.6C444.2,700.2,444.3,699.9,444.3,699.5z M328.1,705.3c0.5,0.8,1,1.8,1.6,2.9
		c0.7,1.4,1.4,2.9,1.9,4.3C330.5,710.2,329.3,707.7,328.1,705.3L328.1,705.3z M614.4,713.2c-7.7,0.1-23.3,4.6-39.1,11.4l-2.1,0.9
		l-0.7,0.3c-5.3,2.3-10.6,4.9-15.8,7.8c-1,0.5-1.9,1-2.9,1.6c-9.8,5.4-19.2,11.6-28.1,18.4c-30.1,22.6-54.5,54-70.2,90.3
		c-18.1,41.8-30.9,97.7-37.3,163.3c-2.2,22-4,50.9-3.3,52.2c0.2,0.5,0.8,0.8,1.4,0.6c0,0,0,0,0,0h0.1c0.1,0,0.1,0,0.2,0h0.1
		c0.1-0.1,0.3-0.1,0.4-0.2c2.2-1.3,5.4-5.8,7.7-11.5c1.5-3.6,7.1-19.6,12.5-35.5c15.9-47.3,24.9-71.4,35.4-94.2
		c0.6-1.2,1.1-2.4,1.7-3.7s1-2.2,1.6-3.2s1.1-2.4,1.7-3.6l0.3-0.6l0.4-0.9c0.3-0.6,0.6-1.2,0.9-1.8s0.7-1.4,1-2.1
		c0.6-1.2,1.2-2.4,1.8-3.5c0.9-1.7,1.7-3.3,2.6-4.9l0.4-0.7c15.7-29,33.4-53.1,48.8-65.8c5.2-4.3,9.1-7,11.8-8.1
		c3.4-1.3,4.7,0.1,4.1,4.1c-0.9,6.1-2.2,85.6-1.6,92.1c0,0,0,0.1,0,0.1l-0.1,1.3l1.1-1.2c4.8-2.7,24.6-27.4,34.1-43.1
		c7.2-11.8,18-34.3,23-48c6.3-18.2,11-37,14-56.1c3.5-23.9,2.7-51.4-1.6-55C617.9,713.6,616.4,713.2,614.4,713.2L614.4,713.2z
		 M333,727.8c0.5,0.4,1,0.8,1.5,1.3c1.2,1,2.2,2.2,3.2,3.4C336.3,730.9,334.6,729.3,333,727.8z M621.4,731.4c0.3,5,0.3,10,0,15
		C621.7,741.4,621.7,736.1,621.4,731.4L621.4,731.4z M430.9,747.7c-0.2,0.8-0.5,1.6-0.7,2.3C430.3,749.3,430.6,748.5,430.9,747.7z
		 M348.8,750.5c0.2,0.2,0.3,0.5,0.4,0.7c0.3,0.6,0.6,1.2,0.7,1.9C349.5,752.3,349.1,751.2,348.8,750.5L348.8,750.5z M350.4,757.4
		l0.3,0.8l-0.1-0.1C350.5,757.9,350.5,757.7,350.4,757.4z M514.4,763.4c-11.2,9.9-21.4,20.8-30.5,32.6
		C492.9,784.1,503.1,773.2,514.4,763.4L514.4,763.4z M442.2,764.8c-0.3,0.3-0.7,0.7-1.1,1.1l0.1-0.2
		C441.5,765.3,441.8,765,442.2,764.8L442.2,764.8z M443,765.6c-0.2,0.5-0.6,1-1.1,1.3C442.4,766.4,442.7,766,443,765.6L443,765.6z
		 M355.2,769.1l0.6,1.5C355.5,770.1,355.3,769.6,355.2,769.1L355.2,769.1z M357.2,773.9l0.6,1.4l0.2,0.4h-0.1
		C357.5,775.1,357.3,774.5,357.2,773.9L357.2,773.9z M359.2,778.9c0.2,0.6,0.4,1.1,0.7,1.7C359.5,780.1,359.2,779.5,359.2,778.9
		L359.2,778.9z M360.9,779.7c0.1,0.2,0.2,0.4,0.2,0.6L360.9,779.7z M423.9,787l0.5,0.1c-0.1,0-0.1,0.1-0.2,0.1
		C424.1,787.2,424,787.1,423.9,787L423.9,787z M365.7,792.3c0.3,0.3,0.5,0.8,0.5,1.3L365.7,792.3z M368.3,802.8
		c0.2,0.6,0.4,1.2,0.7,1.8C368.5,804.1,368.3,803.5,368.3,802.8C368.3,802.9,368.2,802.8,368.3,802.8L368.3,802.8z M369.7,803.3
		c0.4,0.5,0.6,1,0.5,1.3C370,804.1,369.8,803.7,369.7,803.3L369.7,803.3z M549.4,819.2h1l-0.1,4.8
		C550.2,821.6,549.9,820,549.4,819.2L549.4,819.2z M414.5,827.5c0,0.4,0,0.7,0,1.2s0,0.8,0,1.1c-0.1-0.3-0.2-0.7-0.2-1
		C414.3,828.3,414.3,827.9,414.5,827.5z M413.5,835.5c0,0.4,0,0.7,0,1.2s0,0.8,0,1.1c-0.1-0.3-0.2-0.7-0.2-1
		C413.3,836.3,413.3,835.9,413.5,835.5z M412.5,843.8c0,0.4,0,0.9,0,1.4s0,1,0,1.4c-0.1-0.5-0.2-0.9-0.2-1.4
		C412.3,844.7,412.4,844.2,412.5,843.8L412.5,843.8z M549.8,846.4l-0.1,5.6c-0.2,13.5-0.6,29.3-0.9,40.2l0.1-4
		C549.1,874.9,549.5,857.9,549.8,846.4L549.8,846.4z M411.5,853c0,0.5,0,1,0,1.7s0,1,0,1.4c-0.1-0.5-0.1-0.9-0.1-1.4
		C411.4,854.1,411.4,853.5,411.5,853L411.5,853z M410.5,864.3c0,0.5,0,1.2,0,1.9s0,1.4,0,1.9c-0.1-0.6-0.1-1.3-0.1-1.9
		C410.4,865.6,410.4,864.9,410.5,864.3L410.5,864.3z M409.5,876.5c0,0.5,0,1,0,1.7s0,1.3,0,1.8c0-0.5-0.1-1-0.1-1.8
		S409.5,877,409.5,876.5L409.5,876.5z M410,877.3c0,0.6,0,1.2,0,1.8C410.1,878.5,410.1,877.9,410,877.3L410,877.3z M408.5,889.9
		c0,0.7,0,1.4,0,2.3s0,1.6,0,2.2c0-0.6-0.1-1.3-0.1-2.2S408.5,890.4,408.5,889.9L408.5,889.9z M407.5,909.7L407.5,909.7
		c0,1.1,0,2,0,2.8C407.5,911.8,407.4,910.9,407.5,909.7L407.5,909.7z M548.5,916.5l-0.1,0.1v-0.1L548.5,916.5L548.5,916.5z
		 M402,923.9c0.1,0.3,0.1,0.6,0.1,0.8C402,924.4,402,924.1,402,923.9z M402.3,932.1c0,0.5,0.1,1.1,0.2,1.8
		C402.4,933.4,402.3,932.7,402.3,932.1L402.3,932.1z M404,946c0.6,5.5,0.9,13.1,1,21C404.8,959.7,404.5,952.3,404,946z M407.5,978.8
		c0.1,1.7,0.1,3.5,0.2,4.9c0.7,16.2,0.5,25.2-0.6,28.2c0.4-2.5,0.6-8.9,0.6-17.6C407.5,988.8,407.5,984,407.5,978.8L407.5,978.8z
		 M401.5,1009.9c1.5,1.2,3.1,2.3,4.9,3.1c-0.1,0.1-0.2,0.1-0.4,0.1C404.4,1012.2,402.9,1011.1,401.5,1009.9L401.5,1009.9z"/>
</g>
<path id="path3942" style="&st3;" d="M295.8,793.7l-3.9-3.5l-4.1,2.1c-5.7,2.9-7.9,2.3-9.7-2.5c-0.8-2.2-1.6-4.1-1.8-4.3
	s-1.7,0.6-3.6,1.7c-5.5,3.4-7.1,2.8-9.7-3.4c-1.2-3-2.8-5.5-3.4-5.5c-1.7-0.2-3.3-0.5-4.9-1c-4.7-1.3-4.8-3.1-0.3-9.8
	c3.3-4.9,7.9-15.7,10.6-24.9c2.5-8.4,12.2-15,23.5-15.8c10-0.7,12.9,0.3,18.7,6.3c4.6,4.8,5.3,6,6.3,11.7
	c2.1,11.9,1.2,18.3-4.3,31.2c-1.7,4.4-3,9-3.8,13.7c-1.1,6.9-1.4,7.6-3.5,7.6C300.7,797.2,297.9,795.7,295.8,793.7L295.8,793.7z
	 M460.4,764.8c-6.7-2-12.1-5.9-14-9.8c-1-2.1-1.6-6.1-1.6-11.2c0-7,0.3-8.4,2.9-12.5c3.2-5,12.2-12.7,14.8-12.7
	c2.3,0,13.2-5.3,18.5-8.9c7.3-5,9.5-4,9.5,4.5c0,4.3,0,4.3,5,6c5.5,1.8,6.1,3.3,3.5,8.5c-1.6,3.2-1.5,3.4,3.2,4.4
	c2.8,0.6,3.2,1.1,3.2,3.8c-0.1,1.9-0.5,3.8-1.4,5.6c-1.2,2.1-1.1,2.8,0.5,5.5c3.3,5.5,2.6,6.9-4,8.2c-3.2,0.6-10.7,3.2-16.5,5.7
	C472.5,766.8,468.6,767.3,460.4,764.8L460.4,764.8z M385.5,745c-7.2-3.6-13.2-9.2-17.2-16.1c-1.8-3.1-6.5-9.1-10.5-13.2
	c-9.5-9.8-9.5-11.1-0.4-13.4c6.5-1.6,7-1.9,7-4.5c0.1-2,0.3-4,0.6-6l0.6-3.2l5.7,0.6c6.5,0.7,6.9,0.3,6.9-6.4c0-4.4,0.9-4.7,8.4-2.9
	c3.6,0.8,4.2,0.6,7.2-2c3.8-3.3,8-3.9,8.8-1.2c1.8,5.6,4.7,10.8,11.1,20c9.7,13.9,9.5,13.4,9.5,22.5c0,14.7-5.1,24-14.6,26.8
	C400.8,748.3,391.5,747.9,385.5,745L385.5,745z M222,724.4l-3.6-4.7c-0.2-0.2-3.1,1.5-6.4,3.8c-8.4,5.8-10.5,5.4-13.1-2.2l-1.9-5.8
	l-6.9,0.7l-6.9,0.7v-3c0-6.8,14.7-35.4,22.7-44c6.1-6.6,11.4-9.5,19.2-10.4c10.3-1.3,18.5,3.7,22.8,13.9c2.1,4.8,2.2,6,1.6,21.5
	c-0.4,9-0.9,20.1-1.3,24.6c-0.6,7.7-0.8,8.2-2.9,8.2c-2.1-0.3-4.1-1-5.9-2.1l-3.6-2.1l-2.7,2.6C229.1,729.9,225.9,729.4,222,724.4
	L222,724.4z M531.7,716.7c-2.3-2.7-9-8.1-14.9-12s-12-8.4-13.5-9.8c-3.8-3.5-6.7-13.3-6.7-22.7c0-12,3.4-17.2,14.7-22.5
	c5.8-2.7,6.8-2.9,13.3-2.3c11.1,1.1,18.5,3.8,25.6,9.5c5.6,4.5,21.2,12.9,23.9,12.9c0.6,0,1,1.2,1,2.7c0,2.2-1.1,3.5-5.3,6.4
	l-5.3,3.7l1.5,6c0.8,3.3,1.3,6.2,1,6.6s-3.2,0.9-6.3,1.2c-5.2,0.5-5.6,0.8-5.1,2.7c0.3,1.2,0.9,4,1.2,6.3c0.7,4.7,0.7,4.7-6.9,5.7
	c-4.5,0.6-4.9,0.9-7.2,5.5C539.5,723.2,537.3,723.2,531.7,716.7L531.7,716.7z M196.2,652.2c0-0.4-2-2.9-4.4-5.6l-4.3-4.8l-4.7,1.6
	c-8.7,3-9.5,2.6-10.9-5.7c-0.7-4.2-0.3-4.1-9.2-1.5c-5.1,1.5-5.3,1.3-7.1-6.6c-1.1-5.1-1.3-5.3-6.4-7.2c-6.6-2.5-7.2-4.8-2.3-10.2
	s7.7-9.9,14.9-23.4c5.7-10.9,6.5-11.9,11.4-14.6c13.6-7.7,29.3-7.7,37.4,0c5.8,5.6,8.9,11.8,9.4,19c0.9,12.5-1.7,22-9.1,33.8
	c-1.9,3-4.9,10-6.7,15.6c-2.9,9-3.6,10.2-5.5,10.3C197.3,652.9,196.2,652.6,196.2,652.2L196.2,652.2z M389.7,651.9
	c-2.2-0.5-8.5-3.2-13.9-5.8c-8.7-4.3-14.1-6.1-24.6-8.5c-4.3-1-3.5-4.3,2.1-9.9l4.9-4.8l-1.9-4.4c-1-2.3-1.6-4.7-1.9-7.2
	c0-2.4,0.5-2.8,5-4c2.7-0.7,5.2-1.7,5.5-2.1s-0.4-2.7-1.5-5c-3.2-6.3-2.5-8,4.6-10.3l6-1.9l1.8-5.8c2.2-7.1,3.5-7.4,10.6-1.8
	c4.7,3.7,12.3,7.7,29.8,15.6c7.7,3.5,11,7.3,14.4,16.7c3,8.2,3.2,18.9,0.5,24.9c-1.9,4.2-8.3,10.3-13.5,13.1
	C413.9,652.6,395.7,653.4,389.7,651.9L389.7,651.9z M596.1,643.6c-1.6-4.8-7.9-14.3-16.5-24.8s-9.8-13.6-9.1-26
	c1-19.2,8.2-27,26.1-28.1c6.5-0.4,9-0.1,13.5,1.6c8.7,3.3,16.2,9.2,21.3,17c3.8,5.3,8.2,10.3,12.9,14.8c11.1,10.5,11.2,11.9,1,14.9
	l-7.5,2.2v13.9h-3.2c-2.3-0.1-4.6-0.4-6.8-0.9c-3.6-0.8-3.6-0.8-4.2,2.8c-0.4,2.3-0.6,4.5-0.6,6.8c0,3.6-0.2,3.7-8,2.2l-5.3-1
	l-4.1,4C600.4,648.1,597.6,648.3,596.1,643.6L596.1,643.6z M439.9,572.5c-3.7-1.4-7.2-3.2-10.5-5.3c-5-3.3-7.1-5.5-14.5-15.3
	c-3.5-4.2-7.3-8-11.4-11.4c-6-5-7.4-6.7-7.2-8.7s1.4-2.8,7.5-4.8l7.2-2.4v-14l7,0.7l7,0.7v-13.3l6.8,0.6l6.8,0.6l3.8-3.9
	c5.4-5.5,7.6-5.2,10.6,1.3c2.7,5.8,6.9,11.5,16.4,22.5c8.4,9.6,9.5,12.4,9.5,23.5c0,20.8-7.6,29.7-26.7,30.9
	C447,574.4,444.2,574,439.9,572.5L439.9,572.5z M344.9,561.5c-3.3-1.5-12.3-4.2-20.1-5.8c-15.8-3.4-18.3-4.7-23.6-12.5
	c-9.4-13.7-8.4-27.9,2.5-37.7c7.5-6.8,25.1-9.5,36.8-5.6c3.6,1.2,12,2.6,18.6,3.2c14.1,1.3,14.5,1.8,9.2,9.8c-1.6,2.5-3,4.9-3,5.3
	s1.3,2.5,3,4.6c4.2,5.3,3.9,7.2-1.5,10.4c-2.5,1.4-4.5,2.9-4.5,3.2c0.7,1.3,1.5,2.5,2.5,3.6c3.9,4.6,3,7.5-3.2,11.1
	c-5.1,2.9-5.2,3-5.5,8c-0.3,4.6-0.5,5.1-2.8,5.2C352,564.3,348.2,563.1,344.9,561.5L344.9,561.5z M191.8,539.3
	c-9.2-5-15.8-11.7-19.8-19.9c-4.2-8.5-9.8-16.3-16.5-23c-2.3-2.2-4.1-4.9-4.1-6.1c0-2,0.8-2.3,8.4-3.4l8.4-1.2l1-4.9
	c0.5-2.3,0.8-4.5,1-6.8c0-3,2.6-3.4,8.6-1.5c3,0.9,5.6,1.5,5.9,1.3c0.7-2,1.1-4.1,1.4-6.2c0.5-3.2,1.2-6,1.5-6.3
	c0.5-0.5,6,0.6,12,2.3c1.4,0.4,3.3-0.4,5.9-2.5c2.2-1.7,5-3,6.6-3c2.4,0,2.8,0.5,3.4,3.5c1.1,5.7,4.2,12.1,12.3,25.3
	c7.4,12.1,7.6,12.6,8,19.8c0.6,12.5-3.3,24.8-9.8,30.3c-4.2,3.6-11.9,5.6-20.8,5.6c-6.6,0-8.3-0.4-13.4-3.2L191.8,539.3z
	 M597.2,539.9c-7-1.8-12.4-7.2-14.4-14.1c-5-16.9,1.5-32.6,18-43.5c5.3-3.6,10.1-7.8,14.6-12.4c8.3-9.1,10.2-9.1,12.7,0
	c0.6,2.3,1.3,4.6,2.3,6.8c0.3,0.3,3.5,0.7,7.1,1l6.6,0.5l-0.6,3.6c-0.3,2-0.9,5-1.2,6.8l-0.7,3.2H654l-0.6,6.8
	c-0.6,6.8-0.6,6.8,2.8,10.1c3.7,3.6,4.9,8.9,2,8.9s-13.1,5.9-22.8,13.4c-5.5,4.2-11.4,8.3-13.2,9.1
	C617.9,542.1,604,541.9,597.2,539.9L597.2,539.9z M507.9,512.9c-4.2-1.1-7.7-3.7-14.4-10.7c-6.3-6.6-7.9-9.3-10.3-17.7
	c-2-7-5.2-13.5-11.1-22.7c-2.4-3.7-4.4-7.6-4.4-8.7c0-1.8,0.7-2,8.4-2h8.4l2.2-7c2.1-6.5,2.5-7,5.1-7c2.3,0.2,4.6,0.9,6.7,2
	c1.4,0.8,2.9,1.4,4.4,2c0.3,0,1.3-2.5,2.2-5.5c1.6-5,2-5.5,4.6-5.5c2.6,0.3,5.2,0.9,7.6,2l4.7,2l4.4-2.5c2.4-1.4,5.3-2.5,6.5-2.5
	c1.8,0,2.2,0.7,2.6,5.8c0.5,6,4,16.7,10.1,31c2.7,6.3,3.6,9.9,3.6,14.1c0,12-7.3,26.9-15.4,31.1c-3.1,1.6-6,2.1-13.4,2.3
	c-5.2,0.1-10.8-0.2-12.6-0.6L507.9,512.9z"/>
<g id="g4586">
	<g id="g4533">
		<path id="path3643" style="&st4;" d="M324.5,388.9v53H336V421h0.2c1.2-0.1,2.5,0.1,3.7,0.5c0.8,0.4,1.5,0.9,2,1.6
			c1.6,2.3,3,4.7,4.4,7.1l0,0l6.6,11.6h13.5l-6.3-11.9l0,0c-1.4-2.9-3.1-5.7-5-8.3c-0.8-1-1.7-1.9-2.7-2.7c2.5-0.7,4.8-2.2,6.5-4.2
			c2.1-3,3.2-6.5,3.1-10.2c0.1-3-0.6-5.9-2-8.6c-1.2-2.4-3.2-4.3-5.6-5.5c-2.4-1.1-5.8-1.5-10.4-1.5H324.5z M336,400.3h5.1
			c3.4,0,5.6,0.1,5.9,0.1c0.9,0.1,1.7,0.6,2.3,1.4c0.6,0.9,0.9,2.1,0.9,3.2c0,1-0.2,2.1-0.7,3c-0.4,0.7-0.9,1.2-1.6,1.5
			c-0.7,0.2-1.5,0.3-2.2,0.4c-1.2,0.1-2.8,0.1-4.9,0.1h-4.8L336,400.3z"/>
		<path id="path3645" style="&st4;" d="M397.8,372.9c-6.8,0-12.5,2.3-16.8,6.9s-6.4,11-6.4,19c0,7.6,2.1,13.7,6.3,18.2
			c4.2,4.5,10.1,6.9,16.2,6.8c5.2,0,9.7-1.3,13.2-4s6-6.8,7.5-12l0.4-1.4l-12-3.8l-0.4,1.6c-0.7,3.2-1.9,5.4-3.4,6.7
			c-1.5,1.3-3.4,2.1-5.4,2c-2.7,0.1-5.4-1.1-7.1-3.2c-1.7-2-2.8-5.9-2.8-11.5c0-5.3,1.1-8.9,2.8-11c1.8-2.1,4.4-3.3,7.2-3.2
			c4-0.2,7.6,2.6,8.3,6.6l0.3,1.5l12.2-2.9l-0.4-1.5c-0.8-3.5-2.6-6.7-5.1-9.2C408.8,374.7,403.7,372.9,397.8,372.9L397.8,372.9z"/>
		<path id="path3647" style="&st4;" d="M431,390v12.8h12.5v37h11.9v-37h12.5V390H431z"/>
	</g>
	<g id="g4525">
		<path id="path4501" style="&st4;" d="M325.8,262.3l18.3-1l2.5,40.4c0.4,5.6,1.5,7,3.6,9.3s5.3,3.3,9.6,3s7.4-1.6,9.2-4.1
			s2.5-4.1,2.1-9.6l-2.5-40.4l18.3-1l2.5,40.4c0.6,9.5-1.5,16.8-6.2,21.7c-4.7,4.9-12.3,7.7-22.6,8.3c-10.3,0.6-18.1-1.3-23.4-5.7
			s-8.3-11.3-8.9-20.9L325.8,262.3z"/>
		<path id="path4503" style="&st4;" d="M411.7,258.7l19.4,1l-3,52.2l32.5,1.7l-0.7,15.1l-51.9-2.7L411.7,258.7z"/>
		<path id="path4515" style="&st4;" d="M503.5,268.8c-6.2,0-12.2,1.8-17.3,5.2c-7.2,4.9-11.9,12.7-14,23.5s-0.7,19.7,4.1,27
			c4.9,7.3,12.6,11.9,23.2,14c10.6,2.1,19.5,0.6,26.8-4.3c7.2-4.9,11.9-12.7,14-23.4s0.7-19.7-4.1-27c-4.8-7.3-12.6-11.9-23.2-14
			C509.9,269.1,506.7,268.8,503.5,268.8z M506.8,284c1.1,0,2.3,0.1,3.4,0.3c4.7,0.9,8,3.3,9.9,7.3c1.9,4,2.3,9.1,1,15.3
			c-1.2,6.2-3.4,10.8-6.7,13.8c-3.2,3-7.2,4-11.9,3c-4.3-0.6-8-3.4-9.9-7.3c-1.9-4-2.2-9-1-15.3c1.2-6.2,3.5-10.8,6.7-13.8
			C500.6,285.3,503.6,284.1,506.8,284L506.8,284z"/>
		<path id="path4507" style="&st4;" d="M570.3,287.1l17.8,7.8l3.9,52.2l18.5-42.4l15.1,6.6l-27,61.8l-17.8-7.8l-3.9-52.2l-18.5,42.4
			l-15.1-6.6L570.3,287.1z"/>
		<path id="path4518" style="&st4;" d="M280,274.5c6.2,0,12.2,1.8,17.3,5.2c7.2,4.9,11.9,12.7,14,23.5s0.7,19.7-4.1,27
			c-4.9,7.3-12.6,11.9-23.2,14s-19.5,0.6-26.8-4.3c-7.2-4.9-11.9-12.7-14-23.4c-2.1-10.7-0.7-19.7,4.1-27c4.8-7.3,12.6-11.9,23.2-14
			C273.6,274.8,276.8,274.5,280,274.5z M276.8,289.7c-1.1,0-2.3,0.1-3.4,0.3c-4.7,0.9-8,3.3-9.9,7.3s-2.3,9.1-1,15.3
			c1.2,6.2,3.4,10.8,6.7,13.8c3.2,3,7.2,4,11.9,3c4.3-0.6,8.1-3.4,9.9-7.3c1.9-4,2.2-9.1,1-15.3c-1.2-6.2-3.5-10.8-6.7-13.8
			C283,290.9,279.9,289.7,276.8,289.7L276.8,289.7z"/>
		<path id="path4523" style="&st4;" d="M166.7,315.1l6.8,15.3l18.6-8.3l20.5,45.9l17.8-8l-20.5-45.9l18.5-8.3l-6.8-15.3L166.7,315.1
			z"/>
	</g>
</g>
<polygon style="&st5;" points="177,0 195.4,56.7 255,56.7 206.8,91.7 225.2,148.4 177,113.3 128.8,148.4 147.2,91.7 99,56.7 
	158.6,56.7 "/>
<polygon style="&st5;" points="399,0 417.4,56.7 477,56.7 428.8,91.7 447.2,148.4 399,113.3 350.8,148.4 369.2,91.7 321,56.7 
	380.6,56.7 "/>
<polygon style="&st5;" points="621,0 639.4,56.7 699,56.7 650.8,91.7 669.2,148.4 621,113.3 572.8,148.4 591.2,91.7 543,56.7 
	602.6,56.7 "/>
</svg>
