<?xml version="1.0" encoding="utf-8"?>
<!-- Generator: Adobe Illustrator 24.3.0, SVG Export Plug-In . SVG Version: 6.00 Build 0)  -->
<svg version="1.1" id="Calque_1" xmlns="http://www.w3.org/2000/svg" xmlns:xlink="http://www.w3.org/1999/xlink" x="0px" y="0px"
	 viewBox="0 0 1000 1000" enable-background="new 0 0 1000 1000" xml:space="preserve">
<path fill="#FFFFFF" d="M477.6,23.4c12.6-4.7,97.3-20.5,105.2-15.7c7.8,4.7,33,34.6,33,70.8c0,36.2,7.9,100.7-75.4,92.8
	c-83.2-7.9-87.9-6.3-75.4-22c12.6-15.7,29.8-25.2,20.4-31.5c-9.4-6.3-20.4-28.3-7.8-29.9c12.6-1.6,31.4,3.1,34.5-3.1
	c3.1-6.3,6.3-20.5-12.6-18.9c-18.8,1.6-31.4-3.1-28.3-29.9C474.4,9.2,465,28.1,477.6,23.4z"/>
<path fill="#0062AE" d="M653.4,289.9c-11.9,6.3-24.8,10.7-38.3,13.2c-2.5,1.6-7.8-0.9-10.4,2.5c16,31.5,34.5,62.3,52.4,93.1
	c4.1,4.7,9.4,11,16,12.3c10,1.6,20.7,0.3,27.3-7.9c0-1.3,0.3-2.8-1.3-3.1c-16.6,0-32-8.2-40.8-22.3c-7.5-12.6-7.2-33,1.9-44.7
	c10-12.6,24.2-20.5,40.2-18.9c22.6,3.5,39.6,21.7,48.4,42.2c10,25.5,6.3,57.6-11,78c-17.3,19.2-44.9,30.2-72.8,23.3
	c-30.1-5.3-49.3-35.2-62.5-60.1H601c-6.6,9.8-11.9,20.1-17.3,30.5c12.6,10.7,25.8,24.5,22.9,42.8c-2.5,4.7-2.2,11-7.5,13.5
	c-3.1,1-7.5-2.5-8.5,2.5c1.3,7.2-0.3,15.4-3.1,22c-3.5,3.1-7.9,3.5-11.9,5c2.5,17.3-5.3,33-17,44c-0.3,10.4-11,17.3-20.1,21.4
	c-11.9,3.5-28.6,5.7-38.6-3.8c-12.6,3.2-15.4-12.3-21-19.2c-4.7-9.1-6.3-23.6-2.2-34.3c10.1-8.2,6.9-23.3,20.1-29.3
	c3.8-1,7.2-3.8,11.9-3.5c1.6-3.8,8.8-8.2,3.5-12c-10.4-6.6-19.2-17.3-21.4-28.9c-11.3-9.4-19.8,6-31.1,6c-4.7,0.3-7.2-5-10-8.2
	c-8.5,2.2-17,8.5-26.4,4.1c-4.7-3.8-12.2-0.6-17.6,0.9c-11.9,2.8-26.7,4.7-39.6,0c-15.4,1.9-29.5-5-38.6-17.9
	c-10-10.4-2.5-24.9-3.8-37.4c0.9-12,10.1-23.3,20.4-29.3c13.8-10.1,23.5,2.2,38.9-1.9c10,2.8,15.4,19.2,28.3,11.6
	c3.8-20.4-2.2-45.3,17.3-57.3c4.7-1.6,9.7-1.9,14.8-3.1c6.9,0.6,19.1,0.6,27.6,0l0.9-0.9c-3.8-8.2-7.8-16.7-12.2-24.5
	c-2.5-4.7-5.7-9.8-8.5-14.2c-5.3,0.3-5.7,6.6-9.7,9.4c-1.3,1.3-2.5,2.5-4.1,4.1c-6,5.7-13.8,11.3-22,9.8c-6.3-0.9-11-13.9-17.6-5
	c-4.7,2.8-11,3.8-16.6,2.5c-6-1.3-7.9-10.4-15.4-6.3c-9.7,9.8-25.8,10.4-38,6.3c-7.5,4.4-17.6,2.2-25.4-0.9c-4.1-1.6-7.9-3.8-11-6.3
	c-27.9-19.5-37.1-54.8-43.3-86.2c-4.4-46.6,4.4-91.2,36.4-124c12.2-12.6,29.8-18.6,47.1-13.8c14.4-2.8,9.4-22,23.2-26.7
	c1.6-0.9,3.8,0.3,5-1.6l3.1-4.4c11-0.9,22-10.1,32-4.7c12.6,3.8,18.8,17.6,29.5,23c10.4,10.1,10.7,26.7,8.8,40.6l1.3,5l22.9,36.5
	c3.1,1.9,6.9-0.9,10-2.5c2.5-1.6,4.7-4.4,3.1-7.6c-4.1-3.8-3.8-9.4-3.8-15.1l-0.3-25.8l1.3-2.8c16.3-1.3,31.4-1.6,48.3-1.3
	c3.5,1.9,3.8,5.7,2.8,8.5c-0.9,2.5-4.1,2.8-6,4.7c-9.4,1.6-22-1.6-29.2,2.8c-1.9,1.6-1.6,4.7-0.9,7.2c0.3,2.2,2.5,2.8,4.7,3.1
	c10,0.3,24.5-3.1,34.2,1.9c1.6,2.5,2.2,6,1.3,9.1c-8.5,12.6-26.1,13.8-35.2,25.5c-4.7,4.7-8.8,10.4-12.2,16.4l1.3,1.6l93.3,0.3
	c13.5-1.9,28-10.4,33.6-24.2c11.6-24.5,1.3-52.2,1.9-78.7c-1.3-18.2-26.1-20.1-28.9-38.4c-6.3-7.6-15.7-0.9-22.6-1.6
	c-20.1,2.8-40.2,6.3-61.2,9.4c-5.3,2.5-12.6,2.2-15.1,8.2c-1.3,8.5-0.6,18.2,6.3,23l28.6-0.6c3.1,0.9,5.7,2.8,7.2,5.7
	c1.9,4.7-0.9,8.8-5.6,10.1c-17,0.9-29.8,1.6-46.8,0.9l-1.6-3.5c-0.6-14.5-0.6-29.6-1.3-43.7c3.1-6,9.1-8.5,15.1-10.4
	C514,11.7,547.3,5.4,580.9,0.1c5.3-0.3,10,0,13.8,3.1c2.5,5.3,4.7,12.3,11,13.8c21.3,5,40.8,15.4,59.3,28.3
	c43.3,33.4,73.8,86.2,61.5,144.1C719.3,232.9,691.1,270.1,653.4,289.9z"/>
<path fill="#FFFFFF" d="M631.7,77.5c-1.9,28.6,12.6,62-5.6,86.2c-15.4,29.3-50.2,29.9-79.8,27.4l-82.9-0.3l2.5-12.9
	c1.9-0.9,2.8-0.3,4.7,0c38.3-2.2,76.9,3.5,113-3.1c17.6-2.8,31.7-20.4,38-36.5c6-23,0.3-48.1-0.6-71.7c-1.6-8.2-3.8-16-6.9-23.9
	c0-1.6,0.3-3.5,1.6-4.1C631.7,46,628.9,62.7,631.7,77.5z"/>
<path fill="#FFFFFF" d="M402.2,58.6c-0.9,1.3,0.3,2.5,1.3,3.1c4.1-0.6,8.2-6.6,12.2-1.9c1.3,11.6,0.3,21.7-0.9,33
	c11.6,19.2,22.9,38.7,34.9,57.6v2.5c-6.3,6.6-11.3,14.8-15.1,23c-5.3-4.4-12.2-7.9-19.2-4.4c-3.8-0.6-7.5-2.2-9.1-6
	c0-3.5,2.8-3.8,5-5.3c2.8,0.9,4.4-1.6,6.3-2.8c0-6-4.7-10.4-7.9-15.1c-6.3-3.5-14.4,3.8-19.5-4.4c-1.3-4.1,2.2-5.7,4.7-6.6
	c2.8,1.6,4.7-0.6,6-3.2c-0.6-3.5-2.5-7.6-5.7-10.1c-6.9,0.3-12.6,0.3-17-4.7c-4.7-7.9-14.1-17.3-9.4-27.4c-0.3-2.5-1.6-4.7-4.1-5
	c-4.4,0.6-5-4.4-6.6-7.2c0-7.6,1.6-17,9.1-20.1c2.5,0.9,6.3,2.2,7.9,0.9c-1.6-3.8-4.4-7.2-4.1-12l2.2-1.3
	C383.7,45.7,401.6,44.1,402.2,58.6z"/>
<path fill="#FFFFFF" d="M658.4,94.5c-0.6,30.2,11.3,64.8-8.5,90c-14.8,20.1-35.2,36.2-59,39.6c-42.1,0.9-85.4,0-126.8-0.9
	c-1.3-4.1-0.9-9.1-1.6-13.5l1.3-0.9c22.6,0.6,46.5,0.3,70.6,0.3c0.9-1.6,1.3,0,2.2,0c34.2-2.2,75,5,97.6-25.5
	c24.5-27.4,14.8-67.3,13.8-101.9c-1.9-6.3-2.5-14.2,0.3-19.8C659.4,68.7,656.8,82.9,658.4,94.5z"/>
<path fill="#FFFFFF" d="M346.6,101.1c0.9,2.8,0,5.7-0.9,7.9c-15.1,8.2-34.8,6.3-50.2,0c-3.8-2.2-4.1-6.3-2.2-9.7
	c3.1-7.6,11.3-15.1,19.5-17.3C327.8,79.4,338.8,90.1,346.6,101.1z"/>
<path fill="#FFFFFF" d="M681,89.5c4.4,17.9,2.5,39.6,5,59.2c-2.8,1.3,0.9,2.2,0.3,3.8c3.1,40-24.8,75.8-59.3,92.8
	c-34.5,17-76.9,7.2-115.9,10.1l-37.4-0.6l-5-12.6c33-1.6,64.1-1.3,97.3-0.6c26.1-1.3,52.1-4.4,72.8-20.1
	c18.8-14.5,32.7-35.9,36.1-59.5c2.2-23.9-0.3-47.5-3.5-71.1c0.3-3.2-0.3-6.3,2.5-8.2C676.9,82.9,679.1,86.6,681,89.5z"/>
<path fill="#FFFFFF" d="M368.3,141.1c8.2,23,9.1,51,2.5,74.9c-17,11.6-25.7-17-43-6.3c-4.4-1.3-7.5-5-12.2-5.7
	c-14.8,0.6-26.1,12-36.1,22l-3.1-1.9c-10.4-27.7-6.6-67,3.8-92.2c5.6-4.1,14.4-2.2,21.4-1.9c17,2.8,35.2,2.5,51.5-1.6
	c1.6-1.3,3.1-1.9,5-2.2C366.1,126.9,365.5,136,368.3,141.1z"/>
<path fill="#FFFFFF" d="M709.9,141.4c10.7,46.9-7.2,96.3-47.4,122.7c-32.3,25.5-80.7,19.5-120.3,20.8c-15.7-1.3-33.6,0.6-49.6-0.9
	c-5-1.6-6-7.5-7.5-11.6h49.3l1.3-1.6l1.9,1.6c27.9-1.6,58.4,3.8,84.1-4.7c1.9,0.6,3.8-2.2,6.3-1.9c36.4-12.3,67.5-47.5,72.8-85.9
	c5-14.8-2.2-30.8,2.8-45.6C707.4,134.1,707.7,138.9,709.9,141.4z"/>
<path fill="#FFFFFF" d="M428.3,193.9l0.9,2.2l-1.6,24.2l-33.3-1.6c-2.8-12,1.6-20.8,1.6-33c3.8-0.3,7.5,2.8,11.6,3.8
	C414.5,191.1,421,193.3,428.3,193.9z"/>
<path fill="#FFFFFF" d="M319.6,221.9c1.6,2.8,0.3,7.6,4.1,9.1c3.5-3.8,10.1-3.8,15.1-2.5c6,2.2,7.2,10.4,13.5,7.9
	c27,1.9,52.7,2.2,79.1,5c3.8,7.5,5,15.7,9.4,23v2.2l-9.1,0.6c-4.1,5.7-9.7,15.4-18.5,13.5c-1.9-3.8-0.3-9.1-1.6-13.2
	c-4.4,0-11-2.2-14.4,1.9c-1.9,4.7-4.7,6.9-9.1,9.4c-3.1,0.3-8.8,1.9-8.8-2.5c0.3-4.7,0.9-12-6.3-9.8c-9.7-1.6-8.5,11-17,12.3
	c-11.3-0.6-21.3,2.2-30.1,8.2c-2.5,1.3-3.5-1.3-3.5-3.1c-1.6-4.1,3.1-7.5-0.6-10.4c-3.5,2.8-7.9,4.7-12.6,3.1
	c-7.2-2.2-8.2-12.3-16-12c-3.1-2.5-5-6.9-7.8-9.4c0-0.9,0-3.5,1.9-3.8c1.6-0.3,4.1,0.9,6.3,0.6c7.8-7.2,0.3-23.9,14.1-28.3
	C309.3,220.4,317.7,213.1,319.6,221.9z"/>
<path fill="#FFFFFF" d="M585.9,305.9c19.2,33.4,38.6,66.7,57.5,100.1c8.2,14.5,24.5,23.9,42.7,22c6.3-1.6,12.2-5.3,18.2-6.3
	c12.2-7.5,22-22,22.3-37.4c-1.3-11.6-5.3-22.3-14.1-30.5c-10.7,1.9-20.4-0.3-26.1-9.4c-1.6-5.7,2.2-10.1,6.3-12.3
	c16.3-3.1,29.5,8.8,38,21.4c11.3,14.2,11.6,36.2,5,52.5c-8.2,18.9-27,32.7-47.1,34.3c-49.9,8.2-62.2-48.5-85.7-77.7
	c-2.8,1.3-5,5-6.9,7.9c-10.4,20.5-22,40.6-32.7,61.4c-1.6,5,2.2,8.8,6,11c8.2,7.5,24.8,11.3,21.4,25.5c-5.7,3.5-15.1-7.6-17.3,4.1
	c-6.9,8.2,9.1,16,0,24.5c-6,3.5-8.8-6.6-13.8-1.6c-3.8,3.8-9.1,8.8-5,14.5c5.3,12-2.8,23.3-7.2,33.4c-2.2,3.1-7.2,0.9-7.9,5.3
	c-0.9,5.4,12.2,9.1,4.7,12.6c-8.8,1.9-17.6,1.6-26.7,2.2c-7.2-0.6-5.7-8.8-10.4-12.3c-4.1,3.1-6.9,8.2-10.4,12.3
	c-2.5-0.3-4.4-3.2-5-5.4c2.2-9.1-4.4-24.9,9.1-28c0.9-2.5,3.5-3.8,2.2-6.9c-1.9-3.8-7.2-3.1-8.2-7.5c4.7-9.1,16.3-5,24.2-10.7
	c6.6-9.4,12.6-19.8,17.3-29.9c-0.6-3.1-4.4-3.1-6.9-4.4c-11-4.4-22.6-12-24.5-24.2l1.9-11.3c10-17.9,20.7-33.4,31.7-50.3
	c1.9-3.8,4.1-8.5,1.9-12.9c-13.5-21.1-27-42.8-40.2-64.5c-1.3-0.9,0.3-2.8,1.6-3.1L585.9,305.9z"/>
<path fill="#FFFFFF" d="M465.6,333.3c10.4,0.9,20.4-1.9,29.2,2.5l22,31.5c0,3.5,3.1,5.7,2.5,9.4c-14.8,1.9-28,0.3-43.3,1.6l-4.1,4.4
	l-0.3,44c-3.8,5.4-8.2,9.1-14.8,10.1c-2.5-4.1-0.3-11.3-3.5-14.8c-4.4,1.9-16-2.8-14.1,6.9c-3.8,3.5-8.2,5.7-13.5,6
	c-2.8-2.8,0.6-9.4-3.1-12c-5.6,0-13.8-3.5-17.3,3.8c-6.3,13.2-23.2,7.9-32.7,16.4h-1.6c-1.9-4.1-1.3-9.8-4.1-12.9
	c-8.2,4.1-18.2-0.6-25.1-6.9c-2.2-3.5-8.2-5.7-8.5-10.1c2.5-5.4,9.4,1.9,11.6-4.4c3.5-6-5-9.1-2.5-16.1c6.3-4.7,10.7-12.6,18.5-15.4
	c3.5,2.5,0.9,15.1,8.8,9.4l1.3-0.9c11.6-5.3,17.6,9.4,29.2,6.9c10-1.6,21.7,2.2,28.9-5c0.9-15.1-0.3-27.4,0.9-42.5
	c3.1-8.2,11-12.3,20.1-12.3c4.1,0,10.4,1.9,13.5-1.3L465.6,333.3z"/>
<path fill="#FFFFFF" d="M672.2,360.4c9.1,11.3,23.2,18.9,38.6,15.4l0.6,0.6c-5.7,5.7-16,6.6-23.2,4.4c-8.5-3.1-17.3-10.4-17.3-20.5
	L672.2,360.4L672.2,360.4z"/>
<path fill="#FFFFFF" d="M510.2,396.6c-4.1,9.4-11.3,17-15.4,25.8h-0.9c0.3-8.8-2.5-18.2,0.3-26.7L510.2,396.6z"/>
<path fill="#0062AE" d="M679.5,408.8c-0.3,0-0.6,0.3-0.9,0.3l0.9-1.3V408.8z"/>
<path fill="#0062AE" d="M518.2,32.6c0,0,0.5,16.7,2.7,17.8c6.5-2.1,23.6-10.8,26.3-15.1C541.3,32.1,522.5,32.1,518.2,32.6z"/>
<path fill="#008E5B" d="M85.9,677.9c2.8,0,5.8,0.2,8.6,0.4c4.9,0.4,20.8,1.1,29.9,14.8c2.1,3,5.8,9.6,5.8,19.1
	c0,4.1-0.7,14.2-9.3,22.5c-2.8,2.6-5.6,4.3-8.8,6.2c5.6,1.3,7.8,2.1,10.3,3.4c5.4,2.6,19.1,11.2,19.1,29.6c0,3.4-0.6,6.4-0.9,7.5
	c-1.1,4.7-5.1,17.1-18.1,23.4c-4.3,2.1-8.2,2.6-13.1,3.6c-3,0.4-5.8,0.7-8.8,0.9H61.6V677.9H85.9z M73.4,799.5H88
	c5.2,0,8.8,0,18.7-1.1c3.4-0.8,6-1.1,9-2.6c12.2-5.4,13.3-17.8,13.3-22.3c0-16.7-12.9-22.3-18.5-24c-6-1.7-13.3-1.9-15-2.1H73.4
	V799.5z M73.6,737.9h12.7c11.2-0.7,20.2-1.7,27.3-10.7c4.9-6,5.4-11.6,5.4-14.6c0-2.4-0.4-7.5-3.9-13.1
	c-6.7-10.1-16.4-11.4-27.7-12.2H73.6V737.9z"/>
<path fill="#008E5B" d="M229.8,678.1v10.3H173v49.3h56.3v10.7H173v50.1h58.5v11.2h-70.3V678.1H229.8z"/>
<path fill="#008E5B" d="M257.9,678.1l93.9,112.2V678.1h10.7v131.6h-7.7l-95-114c0.4,12.9,0.8,25.7,0.8,38.6c0,12.2,0,24.4-0.2,36.5
	c0,12.9,0.2,25.7,0.2,38.6h-11.6V678.1H257.9z"/>
<path fill="#008E5B" d="M452.5,678.1v10.3h-56.9v49.3h56.3v10.7h-56.3v50.1h58.5v11.2h-70.3V678.1H452.5z"/>
<path fill="#008E5B" d="M567.3,677.9v9.9h-46v121.8h-11.4v-122h-45.6v-9.7H567.3z"/>
<path fill="#008E5B" d="M683.7,677.9v9.9h-46v121.8h-11.4v-122h-45.6v-9.7H683.7z"/>
<path fill="#008E5B" d="M689.6,698c12.2-13.9,31-21,50.1-21c18,0,35.5,6.2,47.5,18.5c11.8,12.2,18.1,30,18.1,47.6
	c0,16.5-5.6,32.8-16.3,45c-12.4,14.1-30.9,22.3-49.9,22.3c-7.3,0-25.1-1.5-41.3-13.9c-22.1-16.7-24.5-42-24.5-51.5
	C673,727.6,678.8,710.3,689.6,698z M697.1,779.1c10.1,12.7,26,20.1,42.3,20.1c6.9,0,24.3-1.5,37.8-15.4
	c10.7-10.7,16.3-26.2,16.3-41.8c0-6.9-0.9-24.9-14.6-38.8c-14-14.2-32.2-15.9-39.1-15.9c-4.7,0-14.4,0.6-25.4,6
	c-24.3,12.6-28.6,37.7-29,47C684.9,747.3,685.3,764.3,697.1,779.1z"/>
<path fill="#008E5B" d="M833.9,678.1l93.9,112.2V678.1h10.7v131.6h-7.7l-95-114c0.4,12.9,0.7,25.7,0.7,38.6c0,12.2,0,24.4-0.2,36.5
	c0,12.9,0.2,25.7,0.2,38.6h-11.6V678.1H833.9z"/>
<path fill="#0062AE" d="M292.2,997.2c-4.1-8.2-11.2-22.5-24.7-40.3c-6.2-8.4-12.5-15.9-23.6-17.8c-3-0.4-6.7-0.4-7.1-0.4v58.5h-19.1
	V864.9h28.6c14.6,0.4,30.1,2.2,39.1,15.9c2.2,3.4,5.6,9.8,5.6,19.9c0,13.9-6.4,22.1-10.5,26c-2.6,2.2-5,3.9-11.2,6.9
	c1.5,0.8,3,1.7,4.3,2.4c7.3,5.1,12.9,14.6,17.4,21.8l15,24.7c4.1,6.7,5.6,8.6,11,14.6L292.2,997.2L292.2,997.2z M249.2,921.3
	c8-0.4,15.5-1.5,19.8-9.4c0.9-1.7,2.6-5.2,2.6-10.3c0-1.9-0.2-6.9-3.7-11.2c-6.4-7.9-16.3-7.7-25.1-7.5h-6v38.4L249.2,921.3
	L249.2,921.3z"/>
<path fill="#0062AE" d="M427.8,941.5c0,1.3,0.2,9.8-0.8,16.1c-2.1,16.9-9.5,27.9-24.7,35.6c-5,2.4-15.2,6.8-29.2,6.8
	c-15.5,0-32.7-5.8-43.4-18.2c-1.5-1.9-4.5-5.8-6.9-11.8c-3.6-9.2-3.7-17.8-3.9-27.5v-77.6h18.7v75c0.2,9.2,0.4,19.1,5.8,27.2
	c1.7,2.8,4.3,5.2,7.1,7.1c8.8,6.2,19.1,6.2,22.3,6.2c3.9,0,15.5,0,24.9-7.7c5-3.9,7.1-8.4,8-10.5c3-6.9,3.2-15.9,3.4-23.2v-74h18.7
	L427.8,941.5L427.8,941.5z"/>
<path fill="#0062AE" d="M564.9,988.9c-6.7,2.8-24.5,11.1-46,11.1c-8.2,0-27.1-0.8-44.5-15.6c-8-6.9-24.7-24.6-24.7-53.8
	c0-8.1,1.5-27.9,16.6-45.5c7.3-8.4,23.4-23,51.8-23c12,0,22.6,2.6,33.7,7.5c4.5,1.9,8.8,4.1,13.1,6.4v20c-5.2-3-24.9-15.4-46.6-15.4
	c-3.6,0-12,0.2-21.1,4.5c-17.4,8.1-27.7,26.1-27.7,45c0,22.3,13.3,36,19.4,41c12.3,9.9,25.1,10.3,31,10.3c10.8,0,17.4-2.3,27.5-5.8
	v-27.6h-24.1V932h41.5V988.9z"/>
<path fill="#0062AE" d="M588.5,864.9h28.8c14.9,0,28.8,1.1,37.6,15c2.4,3.5,5.8,10.3,5.8,21c0,3.9-0.6,14.3-9.5,21.9
	c-2.6,2.1-5.2,3.8-8,5.2c6.4,0.9,8.8,1.5,11.8,2.8c12,5.2,17.6,16.7,17.6,29.4c0,10.9-4.1,17.8-6.5,21.4
	c-10.7,14.6-26.6,15.2-42.8,15.6h-34.6L588.5,864.9L588.5,864.9z M629.3,979.6c3,0,6.4-0.2,9.3-0.8c13.7-3.2,14.6-13.5,14.6-18.7
	c0-15-11.2-18.9-16.5-19.7c-3.2-0.6-11.4-0.6-20.2-0.6h-9.7v39.7L629.3,979.6L629.3,979.6z M619.2,921.7c11-0.4,15-2.8,18.3-7.3
	c3.6-5.1,3.9-10.5,3.9-12.6c0-2.4-0.6-10.1-6.9-15c-5-3.7-12.9-3.7-18.5-3.7h-9.2v38.6H619.2z"/>
<path fill="#0062AE" d="M737.3,927.1v70.1h-18.7v-70.1l-44.9-62.2h23l31.4,44l31.4-44h23.2L737.3,927.1z"/>
</svg>
