<?xml version="1.0" encoding="utf-8"?>
<!-- Generator: Adobe Illustrator 24.0.1, SVG Export Plug-In . SVG Version: 6.00 Build 0)  -->
<svg version="1.1" id="Calque_1" xmlns="http://www.w3.org/2000/svg" xmlns:xlink="http://www.w3.org/1999/xlink" x="0px" y="0px"
	 viewBox="0 0 566.6 374.5" enable-background="new 0 0 566.6 374.5" xml:space="preserve">
<title>Valence</title>
<path fill="#333333" d="M414.7,370.3c-6.8-2.5-40.4-16-73.5-46.6c-21.3-19.7-38.7-43.3-51.2-69.5c-15.4-32.6-23.3-69.6-23.3-110
	c0-62.8,12-95.9,14.2-101.4C328.3,5.1,413.8,4,414.7,4S501,5.1,548.4,42.8c2.2,5.5,14.2,38.6,14.2,101.4c0,40.3-7.8,77.3-23.3,110
	c-12.4,26.2-29.8,49.8-51.2,69.5C455,354.4,421.5,367.8,414.7,370.3"/>
<path fill="#373A3B" d="M414.7,8c6.5,0,29.1,1.1,54.7,6.3c32,6.5,58.1,17.2,75.7,30.9c2.8,7.4,13.5,39.4,13.5,98.9
	c0,39.7-7.7,76-22.8,108.1c-12.2,25.7-29.2,48.9-50.1,68.2c-30.8,28.7-62.1,42.1-71,45.5c-8.9-3.4-39.7-16.6-70.5-45.1
	c-21-19.3-38.1-42.5-50.4-68.3c-15.2-32.1-23-68.6-23-108.4c0-35.4,3.9-60.9,7.1-76.1c1.6-7.8,3.7-15.4,6.4-22.9
	C301.9,31.5,328,20.9,360,14.4C385.5,9.2,408.1,8,414.7,8 M414.6,0c-12.2,0-92.2,3.9-137,40.3c0,0-14.9,33.1-14.9,103.9
	c0,179.9,151.9,230.3,151.9,230.3s151.9-50.5,151.9-230.3c0-70.8-14.9-103.9-14.9-103.9C506.8,3.9,426.8,0,414.6,0"/>
<linearGradient id="SVGID_1_" gradientUnits="userSpaceOnUse" x1="54.1267" y1="149.5509" x2="55.1267" y2="149.5509" gradientTransform="matrix(-202.17 -202.17 202.17 -202.17 -18775.7734 41447.3008)">
	<stop  offset="0" style="stop-color:#373A3B"/>
	<stop  offset="0.75" style="stop-color:#BFC3C6"/>
	<stop  offset="1" style="stop-color:#BFC3C6"/>
</linearGradient>
<path fill="url(#SVGID_1_)" d="M505.5,79c3.4,15.5,7.2,40.1,7.2,72.3c0,104.4-86.7,156.6-97,162.4v23.8c55-24.7,84.5-57,100.2-89
	c15.9-32.3,17.9-64.3,17.9-87.8c0-44-8-68.2-9-71.1C518.7,85.6,512.3,82,505.5,79 M405.8,53.4L405.8,53.4v1l-1.6,0.1h-0.2l-1.7,0.1
	h-0.4l-1.8,0.1h-0.3l-1.9,0.1h-0.2l-2.1,0.2h-0.1H395l-2.1,0.2h-0.3h-0.2l-2.3,0.2h-0.2l-2.3,0.2h-0.2h-0.3l-2.4,0.3l-0.6,0.1
	l-2.5,0.3h-0.3h-0.2l-2.5,0.3h-0.2h-0.2l-2.7,0.4h-0.1L375,57l-2.7,0.4l-0.4,0.1h-0.2l-2.9,0.5h-0.1h-0.1l-2.8,0.5h-0.2l-0.3,0.1
	l-2.9,0.6l-0.7,0.1l-3,0.6l-0.3,0.1h-0.2l-2.9,0.6h-0.2H355l-3,0.7h-0.1l-0.5,0.1l-3,0.8l-0.4,0.1l-0.2,0.1l-3.2,0.9h-0.1l-2,0.6
	c0,1.8,0,3.7,0,5.6c32.7-10.1,64.9-10.7,71.2-10.7h2.2c7.5,0,51.8,0.7,89.8,17.6c7.2,3.1,14.1,7,20.6,11.4l-0.6,0.8l-0.9,0.4
	l0.9-0.4l0.6-0.8l0.3,0.2l0.1,0.3c0,0.1,9.3,24.7,9.3,72.1c0,23.6-2,56-18.1,88.7s-46.4,65.7-102.6,90.6l-0.4,0.2l-0.4-0.2
	c-54.2-24-84.3-55.5-100.8-87c-0.5,1.5-1.1,2.9-1.7,4.4c9,16.3,20.6,31.1,34.4,43.7c18.3,17,41.3,31.8,68.5,43.9
	c27.2-12.1,50.3-26.9,68.5-43.9c15.5-14.3,28.3-31.2,37.7-50.1c16.7-33.9,18.8-67.2,18.8-92.5c0-38.3-6-65.1-9.4-74.6
	c-6.6-4.4-13.5-8.2-20.7-11.4c-39.3-17.5-85-18.4-93.8-18.4h-4.2h-2.4h-0.2h-1.4h-0.2l-1.5,0.1l-0.1-1"/>
<path fill="#373A3B" d="M405.7,52.4l0.2,2l1.5-0.1h0.2h1.4h0.2h2.4h4.2c8.8,0,54.4,0.9,93.8,18.4c7.2,3.2,14.2,7,20.7,11.4
	c3.4,9.4,9.4,36.3,9.4,74.6c0,25.3-2.1,58.6-18.8,92.5c-9.4,18.9-22.2,35.8-37.7,50.1c-18.3,17-41.3,31.8-68.5,43.9
	c-27.2-12.1-50.3-26.9-68.5-43.9c-15.5-14.3-28.3-31.2-37.7-50.1c-16.7-33.9-18.8-67.2-18.8-92.5c0-38.3,6-65.1,9.4-74.6
	c6.6-4.4,13.5-8.2,20.7-11.4c1-0.4,2-0.9,3.2-1.4l0.2-0.1l0.3-0.1c1-0.4,2-0.8,3.1-1.2l0.6-0.2c1-0.4,2.1-0.8,3.1-1.2l0.2-0.1
	l0.2-0.1l3-1.1l0.2-0.1l0.2-0.1c1-0.4,2.1-0.7,3.1-1l0.6-0.2l3.1-1l0.3-0.1l0.2-0.1l3.1-0.9h0.1l3.2-0.9l0.2-0.1l0.4-0.1l3-0.8
	l0.5-0.1h0.1l3-0.7h0.2h0.2l2.9-0.6h0.2l0.3-0.1l3-0.6l0.7-0.1l2.9-0.6l0.3-0.1h0.2l2.8-0.5h0.1h0.1l2.9-0.5h0.2l0.4-0.1l2.7-0.4
	l0.5-0.1h0.1l2.7-0.4h0.2h0.2L381,57h0.2h0.3l2.5-0.3l0.6-0.1l2.4-0.3h0.3h0.2l2.3-0.2h0.2l2.3-0.2h0.2h0.3l2.1-0.2h0.3h0.1l2.1-0.2
	h0.2l1.9-0.1h0.3l1.8-0.1h0.4l1.7-0.1h0.2l1.8-0.8L405.7,52.4 M415.8,52.2h-4.2h-2.5H409h-1.4h-0.2l-1.5,0.2h-0.1l-1.7,0.1h-0.3
	l-1.8,0.1h-0.4l-1.9,0.1h-0.3l-1.9,0.1h-0.2l-2.1,0.2h-0.5l-2.2,0.2h-0.5l-2.3,0.2h-0.2l-2.3,0.2l-0.5,0.1l-2.4,0.3l-0.6,0.1
	l-2.5,0.3l-0.5,0.1l-2.5,0.3h-0.4l-2.7,0.4l-0.6,0.1l-2.7,0.4l-0.6,0.1l-2.9,0.5h-0.2l-2.8,0.5l-0.6,0.1l-2.9,0.6l-0.7,0.1l-3,0.6
	l-0.5,0.1l-2.9,0.6l-0.4,0.1l-3.1,0.7l-0.7,0.2l-3,0.8l-0.6,0.2l-3.2,0.9h-0.1l-3.1,0.9l-0.5,0.2l-3.1,1l-0.6,0.2
	c-1.1,0.3-2.1,0.7-3.2,1l-0.4,0.1l-3,1.4l-0.4,0.1c-1.1,0.4-2.1,0.8-3.1,1.2l-0.6,0.2c-1,0.4-2.1,0.8-3.1,1.2l-0.5,0.2
	c-1.1,0.4-2.1,0.9-3.2,1.4c-7.5,3.3-14.8,7.3-21.6,11.9c0,0-9.7,25.9-9.7,75.9s8.4,136.1,127.1,188.6
	c118.6-52.5,127-138.8,127-188.7S532,82.7,532,82.7c-6.8-4.6-14-8.6-21.6-11.9C470.4,53,423.7,52.2,415.8,52.2"/>
<path d="M414.7,314.3c0,0,98-52,98-163c0-33.1-4-58.2-7.5-73.6c-41.4-18.4-90.5-17.5-90.5-17.5s-49.1-0.9-90.5,17.5
	c-3.5,15.4-7.5,40.4-7.5,73.6C316.6,262.3,414.7,314.3,414.7,314.3"/>
<path fill="#4D4D4D" d="M411.8,60.3c-11.1,0.1-52.2,1.8-87.6,17.5c-3.5,15.4-7.5,40.4-7.5,73.6c0,80.2,51.2,129.6,79.6,150.8
	c-11.3-42-17.1-85.4-17.2-128.9C379,125.4,396.5,85.8,411.8,60.3"/>
<path fill="#E30613" d="M525.6,89.1c-6.4-4.4-13.3-8.2-20.4-11.3c3.5,15.4,7.5,40.4,7.5,73.6c0,111-98,163-98,163v24.8
	C526.8,289.5,534.8,208,534.8,160.8S525.6,89.1,525.6,89.1z"/>
<path fill="#009FE3" d="M316.6,151.3c0-33.1,4-58.2,7.5-73.6c-7.1,3.1-14,6.9-20.4,11.3c0,0-9.2,24.5-9.2,71.7s8,128.7,120.1,178.4
	v-24.8C414.7,314.3,316.6,262.4,316.6,151.3"/>
<path fill="#FFFFFF" d="M504.2,78c3.5,15.3,7.5,40.3,7.5,73.3c0,55.2-24.4,95.7-48.8,122.5c-10.1,11.1-21.4,21.1-33.5,29.9
	c-4.6,3.3-8.4,5.7-11,7.4c-1.3,0.8-2.4,1.4-3.1,1.8l-0.8,0.5l-0.3,0.1l-0.5,0.3v25.4h2v-24.8h-1l0.5,0.9c0.1,0,24.7-13.1,49.3-40.1
	s49.3-68,49.3-123.8c0-33.2-4.1-58.3-7.5-73.8L504.2,78L504.2,78z"/>
<path fill="#FFFFFF" d="M415.7,339.1v-25.4l-0.5-0.3l-0.3-0.1c-2.8-1.5-27.2-15.3-50.8-42s-46.5-66.4-46.5-119.9c0-33,4-58,7.5-73.3
	l-2-0.4c-3.5,15.4-7.5,40.6-7.5,73.8c0,55.8,24.7,96.8,49.3,123.8s49.2,40,49.3,40.1l0.5-0.9h-1v24.8L415.7,339.1"/>
<path fill="#FFFFFF" d="M525.6,89.1l0.6-0.8c-6.5-4.4-13.4-8.2-20.6-11.4c-38-16.9-82.3-17.6-89.8-17.6h-1.1v1v-1h-1.1
	c-7.5,0-51.8,0.7-89.8,17.6c-7.2,3.1-14.1,7-20.6,11.4l-0.3,0.2l-0.1,0.3c0,0.1-9.3,24.7-9.3,72.1c0,23.6,2,56,18.1,88.7
	s46.4,65.7,102.6,90.6l0.4,0.2l0.4-0.2c56.3-24.9,86.5-57.9,102.6-90.6s18.2-65.1,18.2-88.7c0-47.3-9.2-72-9.3-72.1l-0.1-0.3
	l-0.3-0.2L525.6,89.1l-0.9,0.4v0.1c0.5,1.4,9.1,25.7,9.1,71.3c0,23.5-2,55.5-17.9,87.8s-45.7,64.9-101.6,89.6l0.4,0.9l0.4-0.9
	c-55.9-24.8-85.7-57.4-101.6-89.6s-17.9-64.3-17.9-87.8s2.3-41.4,4.6-53.4c1.1-6,2.3-10.5,3.1-13.5c0.4-1.5,0.8-2.6,1-3.4
	c0.1-0.4,0.2-0.6,0.3-0.8l0.1-0.2v-0.1l-0.9-0.4l0.6,0.8c6.4-4.4,13.2-8.1,20.2-11.2c37.5-16.7,81.6-17.4,89-17.4h2.2
	c7.4,0,51.5,0.8,89,17.4c7.1,3.1,13.9,6.8,20.2,11.2l0.6-0.8l-0.9,0.4l0.9-0.4"/>
<path fill="#E6007E" d="M381.3,227.6c0,0,4.9,6.4,17.3,6.4c24,0,51.8-47.2,51.8-47.2c-3.8,12-10.4,22.9-19.3,31.9
	c20.4-20.4,34.6-49.9,34.6-80.2c0,74.3-39.8,107.8-62.5,107.8C388,246.2,381.3,227.6,381.3,227.6z"/>
<path fill="#FFFFFF" d="M381.3,227.6c0,0,4.9,6.4,17.3,6.4c24,0,51.8-47.2,51.8-47.2c-3.8,12-10.4,22.9-19.3,31.9
	c20.4-20.4,34.6-49.9,34.6-80.2c0,74.3-39.8,107.8-62.5,107.8C388,246.2,381.3,227.6,381.3,227.6z"/>
<path fill="#FFFFFF" d="M444.2,113.5c0,0-1.7-4.7-15.8-4.7c-35.5,0-57.5,68.9-57.5,68.9s8.1-17.8,14.1-23.7
	c-13.1,13.1-12.4,48.9-12.4,48.9S390.4,113.5,444.2,113.5"/>
<polygon fill="#FFFFFF" points="331.2,23.3 337.9,21.7 349.4,41.9 350.6,18.7 357.2,17.1 355.1,50.6 348,52.3 "/>
<path fill="#FFFFFF" d="M366.6,15.6l7.1-1L388.1,45l-6.8,1l-2.2-4.7l-10.4,1.5l-0.7,5.1l-6.7,1L366.6,15.6z M376.7,35.6l-5.3-11.4
	l-2,12.5L376.7,35.6z"/>
<polygon fill="#FFFFFF" points="387.4,13.3 394.1,12.9 395.6,38.7 408,37.9 408.4,43.9 389.3,45.1 "/>
<polygon fill="#FFFFFF" points="409.9,12.1 429.6,12.4 429.5,18.5 416.4,18.3 416.3,24.7 428.8,24.9 428.8,31 416.2,30.8 416.1,38 
	429.2,38.2 429.2,44.3 409.5,44 "/>
<polygon fill="#FFFFFF" points="434.7,12.6 441.8,13.3 450.4,32.6 452.2,14.4 458.6,15 455.4,46.7 449.2,46.1 439.9,25.2 
	437.9,44.9 431.5,44.3 "/>
<path fill="#FFFFFF" d="M460,31.4c1.8-9.5,5.5-15.6,16.2-13.5c3,0.5,5.8,1.9,8,3.9l-4.6,4.8c-1.4-1.2-3.1-2-4.9-2.3
	c-4.3-0.8-6.5,0.9-8,8.6s-0.2,10.2,4.2,11.1c2,0.5,4,0.3,5.9-0.6l2.3,5.7c-3,1.2-6.4,1.4-9.6,0.7C459.7,47.9,458.1,41.2,460,31.4z"
	/>
<polygon fill="#FFFFFF" points="489,21 507.9,26.5 506.2,32.4 493.6,28.7 491.9,34.9 503.9,38.3 502.2,44.2 490.2,40.7 488.2,47.7 
	500.8,51.3 499.1,57.1 480.2,51.6 "/>
<path fill="#D1D7DA" d="M189.7,374.5C99.1,335.7,67.3,278.4,53,206.4c-8.8-44.6-16.1-102.1-16.1-142.6c0,0,80.7-63.7,152.7-63.7
	s152.7,63.7,152.7,63.7c0,40.5-7.2,98-16.1,142.6C312.1,278.4,280.2,335.7,189.7,374.5"/>
<rect x="189.7" y="267.8" fill="#91989C" width="46" height="46.5"/>
<polyline fill="#91989C" points="189.7,221.3 143.6,221.3 143.6,267.8 189.7,267.8 189.7,221.3 "/>
<polyline fill="#D1D7DA" points="189.7,221.3 189.7,267.8 235.7,267.8 235.7,221.3 189.7,221.3 "/>
<rect x="143.6" y="267.8" fill="#D1D7DA" width="46" height="46.5"/>
<polyline fill="#D1D7DA" points="235.7,81.9 235.7,128.4 281.7,128.4 281.7,81.9 235.7,81.9 "/>
<polyline fill="#91989C" points="235.7,267.8 281.7,267.8 281.7,221.3 235.7,221.3 235.7,267.8 "/>
<path fill="#91989C" d="M281.7,128.4h42.9c1.5-20.9,2.1-38.5,2.4-46.5h-45.3V128.4"/>
<polyline fill="#91989C" points="235.7,174.9 281.7,174.9 281.7,128.4 235.7,128.4 235.7,174.9 "/>
<polyline fill="#D1D7DA" points="235.7,221.3 281.7,221.3 281.7,174.9 235.7,174.9 235.7,221.3 "/>
<polyline fill="#91989C" points="235.7,128.4 235.7,81.9 189.7,81.9 189.7,128.4 235.7,128.4 "/>
<polyline fill="#91989C" points="189.7,221.3 235.7,221.3 235.7,174.9 189.7,174.9 189.7,221.3 "/>
<polyline fill="#D1D7DA" points="143.6,174.9 143.6,221.3 189.7,221.3 189.7,174.9 143.6,174.9 "/>
<polyline fill="#91989C" points="189.7,128.4 143.6,128.4 143.6,174.9 189.7,174.9 189.7,128.4 "/>
<polyline fill="#D1D7DA" points="189.7,174.9 235.7,174.9 235.7,128.4 189.7,128.4 189.7,174.9 "/>
<rect x="97.6" y="81.9" fill="#91989C" width="46" height="46.5"/>
<polyline fill="#D1D7DA" points="143.6,128.4 97.6,128.4 97.6,174.9 143.6,174.9 143.6,128.4 "/>
<polyline fill="#D1D7DA" points="97.6,221.3 97.6,267.8 143.6,267.8 143.6,221.3 97.6,221.3 "/>
<rect x="143.6" y="81.9" fill="#D1D7DA" width="46" height="46.5"/>
<path fill="#D1D7DA" d="M327,81.9c0.1-3,0.1-4.6,0.1-4.6s-16.7-11.9-45.4-22.6v27.2L327,81.9z"/>
<polyline fill="#91989C" points="143.6,174.9 97.6,174.9 97.6,221.3 143.6,221.3 143.6,174.9 "/>
<path fill="#91989C" d="M143.6,267.8h-46v19.6c7.2,9.8,15.5,18.8,24.7,26.9h21.3L143.6,267.8z"/>
<path fill="#91989C" d="M235.7,330.9c7.4-5.1,14.5-10.7,21.3-16.6h-21.3V330.9z"/>
<path fill="#D1D7DA" d="M189.7,314.3v43.9c15.9-8.1,31.3-17.2,46-27.3v-16.6H189.7z"/>
<path fill="#91989C" d="M143.6,314.3v16.6c14.7,10.1,30.1,19.2,46,27.3v-43.9H143.6z"/>
<path fill="#D1D7DA" d="M122.4,314.3c6.8,5.9,13.9,11.5,21.3,16.6v-16.6H122.4z"/>
<path fill="#D1D7DA" d="M235.7,267.8v46.5H257c9.2-8,17.5-17,24.7-26.9v-19.6H235.7z"/>
<path fill="#D1D7DA" d="M281.7,128.4v46.5h38.2c2.1-15.7,3.6-31.9,4.7-46.5H281.7"/>
<path fill="#91989C" d="M281.7,287.4c4.5-6.2,8.5-12.8,12-19.6h-12V287.4z"/>
<path fill="#91989C" d="M281.7,81.9V54.7c-14.9-5.6-30.3-9.8-46-12.6v39.8H281.7z"/>
<path fill="#D1D7DA" d="M281.7,267.8h12c7.3-14.2,12.5-29.5,17-46.5h-29V267.8"/>
<path fill="#91989C" d="M281.7,221.3h29.1c0.7-2.4,1.3-4.9,1.9-7.4c3.1-12.9,5.5-25.9,7.2-39.1h-38.2L281.7,221.3"/>
<path fill="#91989C" d="M189.7,81.9V38c-15.4,0-30.8,1.4-46,4.1v39.8L189.7,81.9z"/>
<path fill="#D1D7DA" d="M85.6,267.8c3.5,6.8,7.5,13.4,12,19.6v-19.6H85.6z"/>
<path fill="#91989C" d="M97.6,54.7C68.9,65.4,52.3,77.3,52.3,77.3s0,1.6,0.1,4.6h45.3V54.7z"/>
<path fill="#D1D7DA" d="M235.7,81.9V42.1c-15.2-2.7-30.6-4.1-46-4.1v43.9L235.7,81.9z"/>
<path fill="#D1D7DA" d="M143.6,81.9V42.1c-15.7,2.8-31.1,7-46,12.6v27.2H143.6z"/>
<path fill="#91989C" d="M97.6,221.3H68.6c4.6,17,9.7,32.2,17,46.5h12L97.6,221.3"/>
<path fill="#D1D7DA" d="M97.6,174.9H59.4c1.7,13.1,4.1,26.2,7.2,39.1c0.7,2.5,1.3,5,1.9,7.4h29.1L97.6,174.9"/>
<path fill="#D1D7DA" d="M97.6,81.9H52.4c0.2,8,0.8,25.5,2.4,46.5h42.9V81.9z"/>
<path fill="#91989C" d="M97.6,128.4H54.7c1.1,14.6,2.6,30.8,4.7,46.5h38.2V128.4"/>
<path fill="#91989C" d="M189.7,38c82.3,0,137.4,39.3,137.4,39.3s-1.5,85.7-14.4,136.6c-15.2,60-34.2,98.3-123,144.2
	c-88.8-46-107.8-84.2-123-144.2C53.8,163.1,52.3,77.3,52.3,77.3S107.5,38,189.7,38 M189.7,31c-35,0.1-69.7,7-102.2,20.2
	c-24.5,10-38.7,20-39.3,20.4l-3,2.1l0.1,3.7c0.1,3.5,1.6,87.1,14.6,138.2c7.9,30.9,16.8,56.4,35.2,80c19.1,24.5,48.1,46.4,91.4,68.8
	l3.2,1.7l3.2-1.7c43.3-22.4,72.3-44.3,91.4-68.8c18.4-23.6,27.3-49,35.2-80c13-51.1,14.5-134.7,14.6-138.2l0.1-3.7l-3-2.1
	c-0.6-0.4-14.7-10.4-39.3-20.4C259.5,38,224.7,31.1,189.7,31"/>
<path fill="#485156" d="M189.7,38c82.3,0,137.4,39.3,137.4,39.3s-1.5,85.7-14.4,136.6c-15.2,60-34.2,98.3-123,144.2
	c-88.8-46-107.8-84.2-123-144.2C53.8,163.1,52.3,77.3,52.3,77.3S107.5,38,189.7,38 M189.7,36c-34.4,0.1-68.5,6.8-100.3,19.8
	c-24,9.8-37.7,19.5-38.3,19.9l-0.9,0.6v1.1c0,0.9,1.6,86.5,14.4,137.1c4.4,17.4,8.5,30.3,13.2,41.7c5.3,13,12.4,25.3,21,36.5
	c18.6,23.9,47.1,45.4,89.8,67.4l0.9,0.5l0.9-0.5c42.6-22.1,71.1-43.5,89.8-67.4c17.8-22.9,26.6-47.8,34.3-78.1
	c12.8-50.5,14.4-136.2,14.5-137.1v-1.1l-0.9-0.6c-0.6-0.4-14.2-10.1-38.3-19.9C258.1,42.9,224.1,36.1,189.7,36"/>
<path fill="#666666" d="M0.6,265.6c0,0,73.8-144.8,268-144.8c68.8,0,117.5,20.1,117.5,20.1L353,211.7c0,0-43.3-24.7-159.6-24.7
	S0.6,265.6,0.6,265.6"/>
<g>
	<g>
		<defs>
			<path id="SVGID_2_" d="M268.6,120.8c-11.3,0-22.3,0.5-32.9,1.4c-13.8,1.2-27.6,3.3-41.2,6.2c-34.3,7.2-67.1,20.3-96.9,38.7
				c-4.1,2.5-8.1,5.1-11.9,7.8c-8.6,5.9-16.4,11.9-23.5,17.9l-1.8,1.5c-41.8,35.8-59.9,71.3-59.9,71.3s76.4-78.6,192.8-78.6
				S353,211.7,353,211.7l33.1-70.8c0,0-22.8-9.4-59.3-15.4l-2-0.3l0,0c-14.3-2.3-28.7-3.7-43.1-4.2
				C277.4,120.9,273,120.8,268.6,120.8"/>
		</defs>
		<clipPath id="SVGID_3_">
			<use xlink:href="#SVGID_2_"  overflow="visible"/>
		</clipPath>
	</g>
</g>
<g>
	<g>
		<defs>
			<path id="SVGID_4_" d="M201.7,190.3c-39.8,0-75.8,9.9-104,21.3c-7.9,3.2-15.1,6.5-21.8,9.7c-2.2,1.1-4.4,2.2-6.4,3.2l-1.8,1
				c-21.2,11.2-33.5,20.7-33.5,20.7s36.4-21.5,102.6-21.5c102.8,0,139.6,22.6,139.6,22.6l23.4-37.7c0,0-6.1-3.4-18-7.4
				C265.5,196.7,238.5,190.3,201.7,190.3"/>
		</defs>
		<clipPath id="SVGID_5_">
			<use xlink:href="#SVGID_4_"  overflow="visible"/>
		</clipPath>
		<g transform="matrix(1 0 0 1 0 0)" clip-path="url(#SVGID_5_)" enable-background="new    ">
			
				<image overflow="visible" width="556" height="123" xlink:href="432927D5C6BD9E17.png"  transform="matrix(0.4722 0 0 0.4722 35.6498 189.65)">
			</image>
		</g>
	</g>
</g>
<path fill="#FFFFFF" d="M167.6,150.5c6.2-0.9,11.1,1.8,11.8,6.7c0.4,2.4-0.4,4.9-2.1,6.6c-1.3,1.3-2.8,2.2-4.5,2.8l10.3,11.1
	l-4.5,0.7l-9.8-10.7l-0.9,0.1l1.8,11.9l-4,0.6l-4.4-28.9L167.6,150.5z M167.3,164.4c3-0.5,4.3-0.8,5.6-1.6c1.8-0.9,2.7-2.8,2.4-4.8
	c-0.2-1.9-1.7-3.5-3.6-3.9c-1.5-0.3-2.9-0.3-5.9,0.2L167.3,164.4z"/>
<path fill="#FFFFFF" d="M220.8,159.1c0.5,8.9-6.4,16.5-15.3,17c-8.5,0.4-15.8-5.7-16.9-14.2c-0.7-8.5,5.9-15.9,14.9-16.7
	C212.2,144.4,220.1,150.8,220.8,159.1z M192.8,161.8c0.6,6.4,6.3,10.9,13.2,10.3c6.3-0.5,11-6.1,10.6-12.4c-0.6-6.5-6.2-11-13-10.4
	C197.2,149.8,192.4,155.3,192.8,161.8C192.8,161.7,192.8,161.8,192.8,161.8z"/>
<polygon fill="#FFFFFF" points="262.1,173.1 258.2,173.1 253.1,154.6 253,154.6 245.1,174.4 236.5,154.7 236.4,154.7 231.8,173.5 
	227.9,173.6 235.5,143 244.9,164.7 253.7,142.7 "/>
<path fill="#FFFFFF" d="M293.7,174.8l-4.2-0.2l-3-7.6l-12.4-0.7l-3.7,7.3l-4.1-0.2l15.3-29.6L293.7,174.8z M275.8,163l9.4,0.5
	l-4.1-10.6L275.8,163z"/>
<polygon fill="#FFFFFF" points="322.4,169.9 324.9,149 328.9,149.5 325.1,179.8 306.4,155.2 303.9,175.8 299.9,175.3 303.6,145.1 
	"/>
<path fill="#FFFFFF" d="M352.7,159.8c-1.7-2.5-2.5-3.2-4.8-3.6c-2.8-0.5-5,0.5-5.4,2.5c-0.3,1.7,0.8,3.2,4.2,5.4
	c2.2,1.3,4.1,3,5.6,5c2.7,4,1.7,9.5-2.4,12.3c-2,1.4-4.5,1.8-6.8,1.3c-3-0.5-5.6-2.3-7.2-4.8c-1-1.5-1.6-3.3-1.8-5.1l4.1-0.4
	c0.9,3.7,2.6,5.5,5.6,6.1c2.9,0.6,5.4-0.9,5.9-3.6c0.2-1.4-0.2-2.8-1.1-3.9c-1-1.3-2.3-2.5-3.8-3.3c-2-1.1-3.7-2.5-5-4.4
	c-1.2-1.6-1.6-3.6-1.3-5.6c0.8-4.1,5.2-6.7,9.9-5.8c1.9,0.4,3.6,1.2,5.1,2.4c1.2,0.9,2.2,2.1,2.8,3.4L352.7,159.8z"/>
<path fill="#1D1D1B" d="M136.9,204.1c2.7-0.3,4.7,0.8,4.9,2.6c0.1,1.1-0.4,2-1.6,2.9c0.8,0.1,1.5,0.4,2.1,0.9
	c0.7,0.5,1.2,1.3,1.2,2.2c0.2,2.3-1.8,4-5.2,4.3l-2.1,0.2l-1.4-12.9L136.9,204.1z M137.1,209.6c1.9-0.2,3-1.1,2.8-2.4
	c-0.1-1.1-1.2-1.7-2.8-1.5c-0.1,0-0.3,0-0.4,0.1L137.1,209.6z M137.8,215.6h0.1c0.8,0,1.6-0.2,2.4-0.6c0.8-0.4,1.3-1.2,1.3-2.1
	c-0.1-1.4-1.6-2.1-3.8-1.8l-0.6,0.1L137.8,215.6z"/>
<path fill="#1D1D1B" d="M155,211.3c-0.1,2.5-2.1,4.5-4.6,4.4c-2.1,0-4-1.6-4.4-3.7c-0.1-2.4,1.7-4.5,4.1-4.8
	C152.6,207.1,154.7,208.9,155,211.3z M147.7,212c0.3,1.5,1.7,2.6,3.2,2.3c1.4-0.2,2.4-1.4,2.3-2.8c-0.2-1.5-1.5-2.6-3-2.4
	C148.7,209.1,147.6,210.4,147.7,212L147.7,212z"/>
<path fill="#1D1D1B" d="M158.8,206.9l0.3,4.8c0.1,1.5,0.8,2.2,2.1,2.1s1.8-0.9,1.7-2.3l-0.3-4.8l1.8-0.1l0.3,5c0,2-1.6,3.7-3.7,3.7
	c-1.9,0-3.5-1.4-3.7-3.3l-0.3-5L158.8,206.9z"/>
<path fill="#1D1D1B" d="M169.2,208.1L169.2,208.1c0.7-1.5,1.4-2,2.5-2.1c0.2,0,0.5,0,0.7,0.1l-0.5,1.8c-0.2,0-0.5-0.1-0.7-0.1
	c-1.2,0.1-2.1,1-2,2.2c0,0,0,0.1,0,0.1l0.2,4.7l-1.8,0.1l-0.4-8.4l1.7-0.1L169.2,208.1z"/>
<path fill="#1D1D1B" d="M182,205.9h1.7l0.2,8.1c0.1,2.3-1.7,4.3-4.1,4.4c0,0,0,0-0.1,0c-1.2,0-2.4-0.4-3.3-1.3
	c-0.4-0.4-0.7-0.9-0.9-1.5h1.9c0.5,0.9,1.4,1.4,2.3,1.3c1.3,0,2.4-1.1,2.4-2.5c0,0,0,0,0,0v-1.6l0,0c-0.6,1.2-1.8,1.9-3.2,1.9
	c-2.3-0.1-4.2-2.1-4.1-4.4c-0.2-2.3,1.6-4.3,3.9-4.5c1.4,0,2.7,0.8,3.3,2l0,0L182,205.9z M176.6,210.2c0,1.6,1.3,2.8,2.9,2.8
	c1.6,0,2.8-1.3,2.8-2.9c0,0,0,0,0,0c0-1.5-1.3-2.8-2.8-2.7c0,0-0.1,0-0.1,0C177.8,207.5,176.6,208.7,176.6,210.2L176.6,210.2z"/>
<path fill="#1D1D1B" d="M202.8,201.3l-0.4,13.3h-1.7v-1.8l0,0c-0.7,1.2-1.9,2-3.3,1.9c-2.5-0.4-4.2-2.6-3.8-5.1
	c0.3-2.1,2-3.7,4.1-3.8c0.8,0,1.6,0.3,2.2,0.9c0.4,0.3,0.7,0.7,0.9,1.2l0,0l0.2-6.6L202.8,201.3z M195.4,210.2
	c0,1.5,1.2,2.8,2.7,2.9c1.6,0.1,2.9-1.1,2.9-2.7c0,0,0,0,0-0.1c0-1.5-1.2-2.8-2.7-2.9c-1.5-0.1-2.9,1.1-2.9,2.6
	C195.3,210.1,195.3,210.1,195.4,210.2L195.4,210.2z"/>
<path fill="#1D1D1B" d="M207.1,210.9c0,0.7,0.3,1.4,0.9,1.9c1.3,1.2,3.3,1.1,4.4-0.2c0,0,0.1-0.1,0.1-0.1l1.2,1.1
	c-0.3,0.3-0.6,0.6-0.9,0.9c-0.9,0.6-2,0.9-3.1,0.8c-2.4-0.1-4.3-2.1-4.2-4.6c0-0.1,0-0.1,0-0.2c0.2-2.4,2.2-4.3,4.7-4.2
	c1.8,0.1,3.4,1.4,3.9,3.1c0.2,0.6,0.3,1.3,0.2,2L207.1,210.9z M212.6,209.8c-0.5-1.5-2.1-2.2-3.5-1.7c-0.7,0.2-1.3,0.8-1.6,1.4
	L212.6,209.8z"/>
<path fill="#1D1D1B" d="M227.7,203.4c2.9,0.3,4.8,2.1,4.5,4.3c-0.2,1.5-1.4,2.8-2.9,3.1c-1.1,0.3-2.2,0.3-3.3,0.1l-0.6,5.3l-1.8-0.2
	l1.5-13L227.7,203.4z M226.1,209.4c2.7,0.3,4-0.3,4.2-1.9c0.1-0.8-0.4-1.6-1.1-2c-0.8-0.4-1.7-0.6-2.6-0.6L226.1,209.4z"/>
<path fill="#1D1D1B" d="M235.7,213.6c0,0.7,0.2,1.4,0.7,1.9c1.2,1.3,3.1,1.4,4.4,0.2c0,0,0.1-0.1,0.1-0.1l1.1,1.2
	c-0.3,0.3-0.6,0.6-1,0.8c-1,0.5-2.1,0.7-3.2,0.5c-2.4-0.3-4.1-2.5-3.7-4.9c0-0.1,0-0.1,0-0.2c0.4-2.4,2.6-4.1,5.1-3.7
	c1.8,0.3,3.3,1.7,3.6,3.5c0.1,0.7,0.1,1.3,0,2L235.7,213.6z M241.2,213c-0.4-1.5-1.9-2.4-3.4-2.1c-0.7,0.2-1.3,0.6-1.7,1.3
	L241.2,213z M240.1,205.2l2.4,0.4l-2.6,2.5l-1.5-0.2L240.1,205.2z"/>
<path fill="#1D1D1B" d="M253.4,212.2l1.8,0.4l-1.7,8.3l-1.8-0.4l0.3-1.6l0,0c-0.4,0.4-0.8,0.7-1.2,0.9c-0.7,0.4-1.5,0.5-2.3,0.3
	c-2.3-0.6-3.6-2.9-3-5.2c0.4-2.3,2.5-3.8,4.8-3.5c0.8,0.2,1.6,0.6,2.1,1.3c0.3,0.4,0.5,0.8,0.7,1.2l0,0L253.4,212.2z M247.3,215.2
	c-0.3,1.5,0.6,3,2.1,3.4s3-0.6,3.4-2.1c0.3-1.5-0.6-3-2.1-3.4c0,0,0,0-0.1,0C249.1,212.7,247.6,213.7,247.3,215.2L247.3,215.2z"/>
<path fill="#1D1D1B" d="M265.5,215.2l1.7,0.5l-2.1,7.9c-0.6,2.3-2.9,3.7-5.1,3.1c0,0,0,0,0,0c-1.2-0.3-2.2-1.1-2.8-2.2
	c-0.3-0.5-0.4-1.1-0.4-1.7l1.8,0.5c0.2,1,0.9,1.7,1.9,1.9c1.3,0.4,2.6-0.4,3-1.7c0,0,0,0,0-0.1l0.4-1.5l0,0c-0.9,1-2.3,1.3-3.6,1
	c-2.2-0.8-3.4-3.1-2.7-5.4c0.5-2.3,2.7-3.7,5-3.2c1.3,0.4,2.3,1.4,2.6,2.8l0,0L265.5,215.2z M259.2,217.8c-0.4,1.5,0.5,3.1,2,3.5
	c1.5,0.4,3.1-0.5,3.5-2c0,0,0,0,0,0c0.4-1.5-0.5-3-1.9-3.4c0,0-0.1,0-0.1,0C261.1,215.5,259.6,216.3,259.2,217.8L259.2,217.8z"/>
<path fill="#1D1D1B" d="M270.1,221.3c-0.1,0.7,0,1.4,0.3,2c0.9,1.5,2.9,1.9,4.3,1c0,0,0.1,0,0.1-0.1l0.9,1.4
	c-0.3,0.2-0.7,0.4-1.1,0.6c-1,0.4-2.2,0.4-3.2,0c-2.3-0.7-3.6-3.2-2.8-5.5c0-0.1,0-0.1,0.1-0.2c0.8-2.3,3.3-3.5,5.6-2.8
	c1.7,0.6,2.9,2.2,3,4c0,0.7-0.1,1.3-0.3,1.9L270.1,221.3z M275.6,221.7c-0.1-1.5-1.4-2.7-3-2.6c-0.7,0-1.4,0.4-1.9,1L275.6,221.7z"
	/>
</svg>
