<?xml version="1.0" encoding="utf-8"?>
<!-- Generator: Adobe Illustrator 24.0.1, SVG Export Plug-In . SVG Version: 6.00 Build 0)  -->
<svg version="1.1" id="Calque_1" xmlns="http://www.w3.org/2000/svg" xmlns:xlink="http://www.w3.org/1999/xlink" x="0px" y="0px"
	 width="564.6px" height="398.4px" viewBox="0 0 564.6 398.4" style="enable-background:new 0 0 564.6 398.4;" xml:space="preserve"
	>
<title>Vannes</title>
<g id="VANNES">
	<path style="fill:#5E8DC6;" d="M384.7,19.5"/>
	<g>
		<g>
			<path style="fill:#5E8DC6;" d="M405.7,25.2"/>
		</g>
	</g>
	<path style="fill:#5E8DC6;" d="M427.3,353.6v-0.4C427.3,353.2,427.3,353.6,427.3,353.6 M324.5,0h4.3c67,0.4,133.2,18.5,188.9,64.9
		c20,18.3,38.4,41.7,43.2,70.4c1.2,6.7,1.8,13.5,1.8,20.2v3.6c-0.6,20-4.5,39.7-11.6,58.3c-10.7,28.2-29.1,49.8-46.1,72.3
		c-14,17.9-30.9,28.3-48.2,43.3c-21.9,18.3,4.4,1.5-27.3,19.6l-1.8,0.7l0,0h-0.4c-2,1.3-4.6,2.7-6.5,3.8l0.7-1
		c-4.2,2.7-8.6,5-13.1,7.1c5.7-4.8,17.5-12.5,25.7-19c-7.1,5.1-14.5,9.7-22.2,13.8c-10.1,5.5-18.5,10.3-28.3,14.9
		c1.9-2.3,11.1-6.8,15.4-10.1l-11.7,5.5c8.4-6.2,21.5-15.3,31.2-23.2c-4.5,2.1-18.1,12.2-21.2,14.2c-7,4.8-14.5,8.9-22.3,12.3
		c3.2-2.7,6.7-5.1,10.3-7.1c-5.9,3.1-12,5.9-18.3,8.2c5.8-3,11.4-6.4,16.8-10.1c-14.9,6.7-30.1,12.6-45.7,17.6
		c7.6-7.7,32.1-18.1,57.9-33.5c25.4-14.5,48.9-32,70.1-52C504.6,257.8,536,208.8,540,158c2-24.1-6.3-47.9-22.9-65.4
		c-66.3-67.4-175.3-84-268.5-63.7c-55,11.6-106.3,36.5-149.6,72.4C55.4,138.7,16.2,190.5,10.4,252c-2.2,31,9.8,61.3,32.6,82.5
		c21.2,20.7,46.6,36.5,74.6,46.4c51.6,18.8,107.5,22.3,161.1,10.1c-14.9,3.7-30.1,6.1-45.4,7.1c-5.8,0.5-11.6,0.7-17.4,0.7h-5.9
		c-48.3,0.1-95.7-13.1-137-38.2c-24.8-15.9-48.6-37.3-59.5-67.6c-10.9-30.3-4.5-63,6.7-91.3C69.7,85.4,194.3,24.6,296.2,17.6
		c-88.7,2.2-185.7,43-247.5,122.6C19.2,179.3-6.2,229.3,5,284.5c15.6,54.9,65.1,85.2,111.2,102.7c-26.4-9-50.8-23-71.9-41.1
		C23.1,327.7,4.2,301.3,1.3,270c-4.1-61.2,27.3-114.3,63.1-155.7C29.8,150.6-2.3,200.2-2.3,256.8c-0.3-1.9-0.4-4-0.4-6.2v-4.2
		c1.4-26.3,8.7-52,21.3-75.1c14.5-26.8,32.9-51.3,54.5-72.8C117.8,54.1,174.3,23.4,235.9,10C265,3.7,294.6,0.3,324.5,0"/>
	<path style="fill:#5E8DC6;" d="M429.1,352.3"/>
	<path style="fill:#5E8DC6;" d="M406.2,343.8l26.3-16.4C424.7,332.4,414.3,339.4,406.2,343.8 M432.6,327.4l3-1.8L432.6,327.4"/>
	<path style="fill:#002856;" d="M230,47.9c37.9-10.9,77.1-16.5,116.5-16.7c96.7,0,173.7,37,191.9,100.1
		c24.6,87.2-73.6,191.2-218.9,232.4s-283.2,3.9-308.1-83.3S84.5,89.1,230,47.9"/>
	<path style="fill:#FFFFFF;" d="M185.8,174.2c0.5,1.5,2.1,2.2,4.8,2.2c2.2-0.7,4.3-1.6,6.3-2.7c4.2-2.2,8.2-4.7,11.8-7.7
		c4.4-3.5,8.2-7.7,11.3-12.4c3.3-5,5-10.9,5-16.9c0.7-6.8-1.2-13.6-5.4-19c-3.3-3.6-8-5.6-12.9-5.5c-3.3,0.1-6.6,0.8-9.7,2.2
		c-3.3,1.3-6.1,3.5-8.1,6.4c-0.7,2.3-1.1,4.7-1.3,7.1c-0.3,3.1-0.6,6.6-0.9,10.5c-0.5,4-0.7,8.1-0.7,12.3c0,4.2,0,8.3,0,12v11.3
		 M203.5,97.6c2.7-0.5,5.4-0.8,8.1-0.9c9.5-0.7,18.7,3.2,24.7,10.5c5.6,7.5,8.4,16.6,8.1,25.9c0.1,5.2-0.6,10.5-2,15.5
		c-1.1,4.1-2.7,8.1-4.9,11.8c-2,3.1-4.3,5.8-7.1,8.2c-2.1,1.9-4.5,3.6-7.1,4.9l-19,8.6v0.6c1.7,0.3,3.4,0.7,5.1,1.3
		c1.4,0.6,2.5,1.6,3.4,2.8c7.1,9.3,14.2,17.7,21.2,25c7,7.3,13.3,13.6,18.8,18.8c5.5,5.2,10,9.3,13.4,12.4c3.4,3.1,5.1,5,5.1,5.7
		c0,1.2-0.2,2.3-0.6,3.4c-0.7,1.3-1.7,2.6-2.8,3.6l-3.6,3.5c-0.7,0.7-1.6,1-2.5,1.1h-4.2c-1.3,0-2.7-0.2-3.9-0.7
		c-1.6-0.8-2.9-2-3.9-3.4l-8.9-11c-3.5-4.3-8.4-9.9-14.6-16.7l-29-31.6c-1.5-1.7-3.4-3.1-5.6-3.9c-2.1-0.6-4.2-1-6.4-0.9
		c0,3.1,0,6.2,0,9.4c0,3.2,0,7.2,0,11.9v44c0,1.4-0.4,2.7-1.1,3.9c-0.9,1.3-2.4,2-4,1.8c-1.7-0.1-3.4-0.3-5-0.8
		c-2.2-0.6-4.3-1.3-6.4-2.2c-2-0.8-3.8-1.9-5.5-3.1c-1.4-0.8-2.3-2.1-2.4-3.7c0.2-1.3,0.6-2.5,1.4-3.5l3.5-5.1
		c0.9-2.9,1.4-6,1.4-9.1c0.4-5.1,0.8-11,1-17.4c0.4-6.6,0.6-13,0.6-19.2s0-10.9,0-14.2v-14.2c0-7.4-0.1-14.7-0.4-21.7
		c-0.3-7.1-0.7-13-1.2-17.7c0-1.1-0.5-2.2-1.4-2.8l-2.3-1.2c-0.8-0.4-1.6-1-2.2-1.8c-0.8-1.1-1.2-2.5-1.1-3.9
		c-0.2-2.8,1.1-5.5,3.5-7.1c4.4-3.2,9.2-5.9,14.2-8.2c4.4-2.1,9-3.9,13.7-5.5c3.8-1.3,7.7-2.4,11.6-3.1"/>
	<path style="fill:#FFFFFF;" d="M332.8,106.3c5.6-0.9,11.3-1.4,17-1.5c6.1-0.4,12.1,1.1,17.3,4.2c4.1,2.8,6.2,5.6,6.2,8.3
		c-0.1,1.4-0.7,2.8-1.6,3.9c-1.1,1.6-2.4,3.1-3.9,4.5c-1.5,1.4-3.1,2.6-4.8,3.7c-1.2,0.8-2.6,1.3-4.1,1.5c-1.3-0.1-2.4-0.8-3.1-1.9
		c-1-1.3-2.1-2.6-3.5-4.2c-1.5-1.6-3.1-3-5-4.2c-2.1-1.3-4.6-2-7.1-1.9c-7.7-0.2-15.3,1.3-22.3,4.5c-6.1,2.8-11.6,6.6-16.3,11.3
		c-4.5,4.4-8.3,9.6-11.3,15.2c-2.7,5.5-5,11.1-6.7,17c-1.5,5.1-2.6,10.3-3.3,15.5c-0.5,3.8-0.8,7.7-0.8,11.5c0.1,6,1.3,12,3.3,17.7
		c2.2,6.6,5.4,12.8,9.5,18.5c4,5.6,9,10.4,14.8,14.2c5.6,3.8,12.3,5.9,19.1,5.8c6,0.1,12-1.1,17.5-3.4c5-2,9.7-4.6,14.2-7.6
		c4-2.8,7.4-5.3,10.3-7.6c1.8-1.8,4.1-3,6.7-3.4c1.5-0.1,3,0.5,4.1,1.6c1,1.1,1.5,2.5,1.5,4c-0.3,1.3-0.8,2.6-1.7,3.7
		c-1.5,2.1-3.1,4-4.8,5.8c-2.2,2.2-4.5,4.4-7.1,6.7c-2.6,2.2-5.4,4.2-8.4,5.8c-2.2,1.3-4.6,2.3-7.1,3.1c-3.3,1.1-6.6,1.9-9.9,2.6
		c-3.6,0.7-7.3,1.3-11.3,1.8c-3.7,0.4-7.4,0.7-11.2,0.7c-5.9-0.2-11.8-1.3-17.3-3.3c-6.9-2.3-13.3-6-18.8-10.9
		c-6.3-5.7-11.4-12.6-14.9-20.2c-4.3-9.8-6.4-20.4-6-31.2c-0.3-11.6,1.2-23.2,4.2-34.3c2.6-8.9,6.6-17.3,11.9-25
		c4.5-6.6,10-12.3,16.4-17c5.9-4.2,12.3-7.7,19-10.3c6.2-2.5,12.7-4.3,19.3-5.4"/>
	<path style="fill:#FFFFFF;" d="M353.2,99.1c1.1-0.8,2.4-1.4,3.8-1.6c2.3,0,3.4,1.9,3.4,5.7c0.7,5,2.4,9.8,5,14.2
		c3.4,6.6,7.8,13.9,13,22.1c5.2,8.2,11,17,17.3,26.4l18.5,27.1c6,8.8,11.4,16.8,16.2,24.1c4.8,7.3,8.4,13.1,10.7,17.3
		c3-3.2,5.6-6.7,7.9-10.3c3.2-4.8,6.6-10.3,10.1-16.5c3.5-6.2,6.9-13,10.2-20.5c3.5-7.5,6.8-15.2,9.8-22.9c3-7.8,5.5-15.5,7.6-23.1
		c2-6.9,3.3-14.1,4-21.2c0-2,0.5-4,1.3-5.8c0.6-0.8,1.6-1.3,2.5-1.2c1.4,0.1,2.8,0.5,4,1.2c1.8,0.9,3.6,1.9,5.2,3
		c1.6,1.1,3.2,2.3,4.5,3.8c1.1,0.9,1.7,2.2,1.9,3.6c-0.5,3.2-1.4,6.2-2.7,9.1c-1.7,4.7-4,10.3-7.1,16.9c-3.1,6.6-6.7,13.9-10.6,21.9
		s-8.1,16-12.3,24.1c-4.2,8.1-8.4,16-12.6,23.6c-4.2,7.6-8,14.4-11.6,20.2c-3.6,5.9-6.7,10.6-9.2,14.2c-2.5,3.6-4.3,5.4-5.2,5.4
		c-0.7-0.1-1.4-0.3-2-0.6c-0.8-0.5-1.6-1-2.4-1.6c-0.8-0.6-1.5-1.3-2.1-2.1c-0.5-0.7-0.8-1.4-0.8-2.3c0-0.9-0.1-1.7-0.4-2.5
		c-0.4-1.1-0.9-2.2-1.4-3.3c-0.7-1.4-1.6-3.1-2.9-5.2l-5-8.4c-10.4-17.4-19.7-32.4-27.9-45c-8.1-12.2-15.2-22.4-21.2-30.7
		s-11.2-15.1-15.4-20.2l-10.1-12.5c-2-2.3-3.8-4.6-5.5-7.1c-1-1.4-1.6-3.1-1.7-4.8c0.2-1.8,0.9-3.6,2.2-5c1.5-1.9,3.3-3.7,5.2-5.2
		C349.4,101.7,351.3,100.3,353.2,99.1"/>
	<path style="fill:#FFFFFF;" d="M146.8,289h0.8c0.2,0,0.4,0,0.6,0c2-0.2,3.5-2,3.3-4c0.3-2.2-1.3-4.2-3.5-4.5h-1.1v8.4 M138.8,277.5
		h8.4c1.8-0.1,3.5,0.1,5.2,0.5c2.8,0.6,4.9,2.9,5.1,5.7c0,2.8-1.8,5.3-4.5,6.2l0,0c1.6,0.8,2.5,2.8,4,6.2c0.4,0.8,0.6,1.3,1.1,1.3
		h1.7v3h-7.1c-1-1.3-2.9-5.9-3.4-7.1c-0.5-1.1-1.1-1.6-1.9-1.6h-0.8v5.7h1.9c0,0.9,0,1.9,0,2.9H139v-3h1.8v-16.8h-1.9
		C138.8,279.5,138.8,278.5,138.8,277.5"/>
	<path style="fill:#FFFFFF;" d="M161.2,285h7.1l0,0c0,2.5,0,5.7,0,8.3c-0.1,1,0,2.1,0.4,3c0.3,0.5,0.8,0.8,1.4,0.7
		c0.8-0.1,1.5-0.3,2.1-0.8c0-2.4,0-5.9,0-8.1h-1.8c0-1,0-2.1,0-3h7.5l0,0c0,3.8,0,8.1,0,12.2l0,0h2c0,0.9,0,2,0,3
		c-1.9,0.5-3.9,0.7-5.8,0.7c-0.7-0.5-1.2-1.1-1.7-1.8l0,0c-1.5,1.1-3.3,1.7-5.1,1.8c-2.6-0.4-4.5-2.5-4.9-5c0-2.7,0-5.5,0-7.9h-1.6
		c0-0.9,0-2,0-2.9"/>
	<path style="fill:#FFFFFF;" d="M186.6,305.1c0,1.3,1.6,1.9,3.3,1.9c1,0,2.1-0.2,3-0.7c0.7-0.4,1.1-1.1,1.1-1.8
		c0-0.9-0.4-1.3-2.6-1.3h-3.8c-0.6,0.6-1,1.4-1,2.3 M187.6,290.4c0,2.9,0.9,3.7,2.2,3.7s2.1-1.2,2.1-3.9c0.1-0.9-0.1-1.8-0.6-2.5
		c-0.3-0.5-0.9-0.8-1.6-0.8C188.5,286.8,187.5,288.2,187.6,290.4 M181.6,291.3c0.5-4.1,4.3-7,8.4-6.5c1.2-0.1,2.3-0.1,3.5,0h0.8h5.3
		c0.1,1.1,0.1,2.1,0,3.2h-2.9l0,0c0.5,0.8,0.8,1.6,0.8,2.5c0,1.5-0.6,2.9-1.6,4c-2,1.7-4.5,2.5-7.1,2.2c-0.4,0.3-0.7,0.7-0.8,1.2
		c0,0.9-0.4,0.8,3.5,0.9c3.9,0.1,5,0.3,6.3,1.2c1.2,0.7,1.8,2,1.7,3.3c-0.2,2.7-2.1,4.9-4.7,5.5c-2,0.7-4,1-6.1,1
		c-5.1,0-8.1-1.6-8.1-4.2c0-0.5,0.3-0.8,0.8-1.1l3.5-2.8l0,0c-1.3-0.6-2.7-1.3-2.7-3.3c0-0.4,0.1-0.5,3.5-2.3l0,0
		c-2.2-0.8-3.7-2.8-3.8-5.2"/>
	<path style="fill:#FFFFFF;" d="M207.8,296.7c0,0.9,1.3,1.4,2.2,1.4c0.8,0,1.5-0.4,1.8-1.1c0.6-1.3,0.9-2.7,0.8-4.2
		c0.1-1.1-0.1-2.3-0.6-3.3c-0.3-0.6-0.9-0.9-1.5-1c-1,0-1.9,0.4-2.7,1C207.9,291.6,207.9,294.4,207.8,296.7 M200,276.9l8.1-0.9l0,0
		c0,2.8,0,6.9,0,10.4l0,0c3.4-1.7,4-1.7,5.4-1.7c3.2,0.5,5.6,3.3,5.5,6.6c0,1.7-0.3,3.5-1,5.1c-0.6,1.4-1.6,2.6-2.8,3.5
		c-1.4,0.8-3.1,1.3-4.7,1.2c-1.3,0-2.6-0.4-3.8-1l-1.3,1.3l-3.3-0.5c0-0.9,0-3.1,0-4.4v-16.9h-2.3c0-1,0-2.1,0-3"/>
	<path style="fill:#FFFFFF;" d="M235.3,284.6h3c0,0.9,0,2,0,3H237c-0.5,1.3-1.9,5-3,7.6c-1.5,3.8-3.3,7.4-5.3,11
		c-0.7,1.3-1.6,2.4-2.8,3.3c-1.2,0-4.3-2.1-4.3-3c0.9-0.5,1.8-1.2,2.5-1.9c1.1-0.9,2-2.1,2.6-3.4c-1.1-2.8-2.1-5.2-3-7.5
		s-1.7-4.5-2.3-5.9l0,0h-1.3c0-1,0-2.1,0-3h9.3c0,0.9,0,2.1,0,3H228c0.2,0.8,0.7,2.4,1.1,3.8c0.4,1.3,0.8,2.6,1.4,4.2l0,0
		c0.4-1.3,0.8-2.6,1.1-3.8c0.3-1.2,0.9-2.3,0.9-3.9l0,0h-1.2c0-1,0-2.1,0-3h4.1"/>
	<path style="fill:#FFFFFF;" d="M252.4,280.1c2.5-1.9,5.6-2.9,8.8-2.8c1.6-0.1,3.2,0.1,4.7,0.6c0.6,2.2,0.6,4.7,0.6,7.1l-3.8,0.5
		l-0.8-3.8v-0.4c-0.5-0.3-1-0.5-1.6-0.5c-1.3,0-2.6,0.5-3.5,1.5c-1.7,2-2.6,4.5-2.4,7.1c-0.3,2.3,0.5,4.7,2.1,6.4
		c1.2,1,2.7,1.5,4.2,1.5c1.9-0.1,3.8-0.4,5.6-1c0.6,1.1,0.6,2.3,0.6,3.3c-2.3,0.9-4.7,1.4-7.1,1.6c-2.7,0.1-5.4-0.6-7.6-2.1
		c-2.6-2-4.1-5.2-4-8.5c-0.1-4.1,1.7-8,5-10.5"/>
	<path style="fill:#FFFFFF;" d="M269.3,276.5l8.1-1l0,0c0,5.9,0,15.2,0,21.8h2.1c0,0.9,0,2,0,2.9h-9.8c0-0.9,0-2,0-2.9h1.9l0,0
		v-17.7h-2.4c0-1,0-2.1,0-3"/>
	<path style="fill:#FFFFFF;" d="M280.7,285h7.1l0,0c0,2.5,0,5.7,0,8.3c-0.1,1,0,2.1,0.4,3c0.3,0.5,0.8,0.8,1.4,0.7
		c0.8-0.1,1.5-0.3,2.1-0.8c0-2.4,0-5.9,0-8.1H290c0-1,0-2.1,0-3h7.5l0,0c0,3.8,0,8.1,0,12.2l0,0h2c0,0.9,0,2,0,3
		c-1.9,0.5-3.9,0.7-5.8,0.7c-0.7-0.5-1.2-1.1-1.7-1.8l0,0c-1.5,1.1-3.3,1.7-5.1,1.8c-2.6-0.4-4.5-2.5-4.9-5c0-2.7,0-5.5,0-7.9h-1.6
		c0-0.9,0-2,0-2.9"/>
	<path style="fill:#FFFFFF;" d="M308.1,296.7c0,0.9,1.3,1.4,2.2,1.4c0.8,0,1.5-0.4,1.8-1.1c0.6-1.3,0.9-2.7,0.8-4.2
		c0.1-1.1-0.1-2.3-0.6-3.3c-0.3-0.6-0.9-0.9-1.5-1c-1,0-1.9,0.4-2.7,1C308.2,291.6,308.2,294.4,308.1,296.7 M300.3,276.9l8.1-0.9
		l0,0c0,2.8,0,6.9,0,10.4l0,0c3.4-1.7,4-1.7,5.4-1.7c3.2,0.5,5.6,3.3,5.5,6.6c0,1.7-0.3,3.5-1,5.1c-0.6,1.4-1.6,2.6-2.8,3.5
		c-1.4,0.8-3.1,1.3-4.7,1.2c-1.3,0-2.6-0.4-3.8-1l-1.3,1.3l-3.3-0.5c0-0.9,0-3.1,0-4.4v-16.9H300c0-1,0-2.1,0-3"/>
	<path style="fill:#FFFFFF;" d="M348.1,277.3h3.5c0,0.9,0,2.1,0,3h-1.8c-0.9,2.6-2,5.5-3.3,8.9c-1.3,3.5-3,7.9-4.5,11.5
		c-0.4,0-2.3,0-5,0c-1.4-3.8-3.3-9.1-4.2-11.8c-0.8-2.8-1.8-5.9-2.7-8.6l0,0h-1.5c0-1,0-2.1,0-3h11.4c0,0.9,0,2.1,0,3h-2.4
		c0.4,1.5,1.5,5,1.5,6.2c0.6,2.5,1.3,5.1,2.1,7.9l0,0c0.7-2.2,1.2-3.7,1.8-5.7s2.3-6.5,2.3-8.3l0,0h-2.1c0-1,0-2.1,0-3h5.4"/>
	<path style="fill:#FFFFFF;" d="M356.2,296.3c0,0.8,0.9,1.3,1.6,1.3c0.9-0.1,1.7-0.3,2.4-0.8v-2.7h-0.8
		C357.1,294.2,356.1,295.2,356.2,296.3 M351.4,288.6c2.4-2.2,5.4-3.4,8.6-3.5c3,0,5.4,2.4,5.5,5.4c0,2.1,0,5.5,0,7.1l0,0h1.9
		c0,0.9,0,2,0,2.9c-1.9,0.5-3.9,0.7-5.9,0.7c-0.5-0.5-0.9-1-1.3-1.6l0,0c-1.6,0.9-3.4,1.4-5.2,1.6c-2.3-0.1-4.2-1.9-4.6-4.2
		c0-2,2.4-5.4,8.1-5.4h2c0.1-1.8-0.6-2.8-2.2-2.8c-1.6,0.3-3.2,1-4.5,2c-0.7-0.8-1.3-1.7-1.8-2.5"/>
	<path style="fill:#FFFFFF;" d="M377.4,286.7c3.5-2.4,4.2-2.4,5.9-2.4c1.6,0.2,3,1.2,3.8,2.5c0.6,1,0.9,2.1,0.8,3.2
		c0,1.8,0,4.8,0,7.1h1.8c0,0.9,0,2,0,2.9h-9.1c0-0.9,0-2,0-2.9h1.4l0,0c0-1.4,0-3.5,0-4.8c0.2-1,0.2-2,0-3c-0.2-0.5-0.8-0.8-1.3-0.8
		c-1,0.1-2,0.6-2.8,1.3c0,2.1,0,5.5,0,7.6h1.6c0,0.9,0,2,0,2.9h-9.2c0-0.9,0-2,0-2.9h1.8l0,0v-8.6h-2.3c0-0.9,0-2,0-2.9
		c1.6-0.1,7.1-1.1,7.1-1.1l0,0l0.5,2.2l0,0"/>
	<path style="fill:#FFFFFF;" d="M399.1,286.7c3.5-2.4,4.2-2.4,5.9-2.4c1.6,0.2,3,1.2,3.8,2.5c0.6,1,0.9,2.1,0.8,3.2
		c0,1.8,0,4.8,0,7.1h1.8c0,0.9,0,2,0,2.9h-9.1c0-0.9,0-2,0-2.9h1.4l0,0c0-1.4,0-3.5,0-4.8c0.2-1,0.2-2,0-3c-0.2-0.5-0.8-0.8-1.3-0.8
		c-1,0.1-2,0.6-2.8,1.3c0,2.1,0,5.5,0,7.6h1.6c0,0.9,0,2,0,2.9h-9.2c0-0.9,0-2,0-2.9h1.8l0,0v-8.6h-2.3c0-0.9,0-2,0-2.9
		c1.6-0.1,7.1-1.1,7.1-1.1l0,0l0.5,2.2l0,0"/>
	<path style="fill:#FFFFFF;" d="M419.8,288.5c-0.5,0.9-0.7,1.8-0.6,2.8h4v-0.4c0-0.8-0.1-1.5-0.4-2.3c-0.3-0.7-0.9-1.1-1.6-1.1
		c-0.7,0-1.4,0.4-1.7,1 M413,293.7c0-0.2,0-0.3,0-0.5c0.1-4.8,4.1-8.7,9-8.6c1.8-0.2,3.7,0.3,5.1,1.6c1.3,1.6,1.9,3.6,1.8,5.6
		c-0.4,0.8-1.1,1.5-1.9,2.1c-0.7,0-4.6,0-7.8,0c0,0.9,0.4,1.7,1,2.3c0.7,0.6,1.7,0.9,2.6,0.8c1.7-0.1,3.4-0.4,5-1c0.3,1,0.5,2,0.7,3
		c-2.2,1-4.6,1.6-7.1,1.7c-4.7,0-8.4-2-8.4-7.1"/>
	<path style="fill:#FFFFFF;" d="M434.2,285.7c1.6-0.7,3.3-1.1,5.1-1.1c1.5-0.1,2.9,0.1,4.3,0.5c0.5,1.6,0.5,3.2,0.5,4.7l-3.2,0.5
		l-0.6-1.9v-0.4l-1.4-0.4h-1.3c-0.4,0.3-0.7,0.8-0.6,1.3c0,0.8,0.8,1,3.3,1.7c2.5,0.7,4.3,1.8,4.3,4.6c-0.1,2-1.3,3.9-3.2,4.7
		c-1.7,0.7-3.5,1-5.3,0.9c-1.6,0-3.2-0.2-4.7-0.6c-0.2-1.6-0.6-3.3-0.6-4.9l3.2-0.6l0.6,2.1v0.4c0.6,0.4,1.3,0.6,2,0.6
		c0.5,0.1,0.9,0.1,1.4,0c0.5-0.2,0.8-0.7,0.8-1.2c0-0.8,0.4-0.8-2.8-1.8s-4.8-2.5-4.8-4.7c0.1-1.9,1.3-3.7,3-4.5"/>
	<path style="fill:#FFFFFF;" d="M69.2,169.5c10.6-8.3,18.5-19.5,22.9-32.3c4.3,12.7,12.3,24,22.9,32.3c0,0-18.9,17-22.9,26.8
		C88.1,186.5,69.2,169.5,69.2,169.5"/>
	<path style="fill:#FFFFFF;" d="M92,314.8L92,314.8 M58.9,314.8c0,0,30.4-76.7,33.1-110.8c2.8,34.3,33.1,110.8,33.1,110.8
		s-20-15-27.1-7.1c-6,7.1-6,7.1-6,7.1s-0.1-0.6-5.9-7.1C78.9,300,58.9,314.8,58.9,314.8"/>
	<path style="fill:#FFFFFF;" d="M99.8,204c9.8-4,23.2-22.9,23.2-22.9c8.3,10.6,19.5,18.5,32.3,22.9c-12.7,4.3-24,12.3-32.3,22.9
		C123,226.8,109.5,207.9,99.8,204"/>
	<path style="fill:#FFFFFF;" d="M29.1,204c12.8-4.4,24-12.5,32.3-23.2c0,0,13.2,18.9,22.9,22.9c-9.8,4-22.9,22.9-22.9,22.9
		C53,216.1,41.8,208.2,29.1,204"/>
</g>
</svg>
