<?xml version="1.0" encoding="UTF-8" standalone="no"?>
<!-- Created with Inkscape (http://www.inkscape.org/) -->
<svg
   xmlns:svg="http://www.w3.org/2000/svg"
   xmlns="http://www.w3.org/2000/svg"
   version="1.0"
   width="500"
   height="500"
   id="svg2868">
  <defs
     id="defs2870">
    <clipPath
       id="clipPath419">
      <path
         d="M 499.2739,140.3853 C 499.2739,140.3853 497.2278,136.7377 498.2957,133.2375 C 499.363,129.7369 499.7187,128.2247 499.4522,124.9906 C 499.1852,121.7575 499.4213,116.7442 500.9644,114.1337 C 502.5075,111.5227 504.465,106.1847 503.5754,104.9085 C 502.6853,103.6324 515.8558,110.9583 515.8558,124.5149 C 515.8558,138.0721 504.1398,143.0851 502.9528,142.996 C 501.7653,142.9072 499.2739,140.3853 499.2739,140.3853"
         id="path421" />
    </clipPath>
    <clipPath
       id="clipPath403">
      <path
         d="M 497.1081,154.2981 C 497.1081,154.2981 504.8438,168.0755 510.4874,173.193 C 516.834,178.9484 531.4354,189.3352 529.382,180.0158 C 527.1978,170.1036 529.0264,169.7815 529.0264,169.7815 C 529.0264,169.7815 540.0616,174.825 538.9628,169.0695 C 538.0737,164.4123 536.5383,164.47 536.4718,161.2681 C 536.3827,156.9669 538.7947,152.2612 529.2928,152.577 C 507.8764,153.2887 502.6853,147.92 502.4189,148.5426 C 501.7091,150.198 497.1081,154.2981 497.1081,154.2981"
         id="path405" />
    </clipPath>
    <clipPath
       id="clipPath385">
      <path
         d="M 446.015,72.8888 L 541.364,72.8888 L 541.364,186.2768 L 446.015,186.2768 L 446.015,72.8888 z"
         id="path387" />
    </clipPath>
    <clipPath
       id="clipPath377">
      <path
         d="M 435.787,72.8898 L 551.59,72.8898 L 551.59,186.2758 L 435.787,186.2758 L 435.787,72.8898 z"
         id="path379" />
    </clipPath>
  </defs>
  <g
     id="layer1">
    <g
       transform="matrix(4.1546978,0,0,-4.1546978,-1781.2911,787.89861)"
       id="g373">
      <g
         clip-path="url(#clipPath377)"
         id="g375">
        <g
           id="g381">
          <g
             clip-path="url(#clipPath385)"
             id="g383">
            <path
               d="M 452.7207,74.9246 C 452.7207,74.0057 452.0886,73.3738 451.2856,73.3738 C 450.3922,73.3738 449.84,74.0711 449.84,74.9246 C 449.84,75.8379 450.4724,76.4749 451.2856,76.4749 C 452.0886,76.4749 452.7207,75.8379 452.7207,74.9246 z M 453.1222,74.9246 C 453.1222,76.0539 452.269,76.8012 451.2856,76.8012 C 450.2917,76.8012 449.4386,76.0539 449.4386,74.9246 C 449.4386,73.8552 450.2064,73.0475 451.2856,73.0475 C 452.269,73.0475 453.1222,73.7949 453.1222,74.9246 z M 450.9141,75.0298 L 450.9141,75.6374 L 451.3255,75.6374 C 451.5314,75.6374 451.7773,75.607 451.7773,75.3565 C 451.7773,75.055 451.5515,75.0298 451.2953,75.0298 L 450.9141,75.0298 z M 450.9141,74.7386 L 451.2352,74.7386 L 451.7722,73.8505 L 452.1585,73.8505 L 451.5764,74.7638 C 451.8877,74.7994 452.1185,74.9545 452.1185,75.3313 C 452.1185,75.7524 451.8626,75.9281 451.3608,75.9281 L 450.5728,75.9281 L 450.5728,73.8505 L 450.9141,73.8505"
               id="path389"
               style="fill:#231f20;fill-opacity:1;fill-rule:evenodd;stroke:none" />
            <path
               d="M 446.8239,140.7666 C 448.7025,152.6286 469.0696,159.2598 492.3157,155.5775 C 515.5621,151.8952 532.8836,139.2944 531.0045,127.432 C 529.1263,115.5696 508.7593,108.939 485.5131,112.621 C 462.2667,116.3035 444.9455,128.904 446.8239,140.7666"
               id="path391"
               style="fill:#fdd313;fill-opacity:1;fill-rule:nonzero;stroke:none" />
            <path
               d="M 446.8239,140.7666 C 448.7025,152.6286 469.0696,159.2598 492.3157,155.5775 C 515.5621,151.8952 532.8836,139.2944 531.0045,127.432 C 529.1263,115.5696 508.7593,108.939 485.5131,112.621 C 462.2667,116.3035 444.9455,128.904 446.8239,140.7666 z"
               id="path393"
               style="fill:none;stroke:#231f20;stroke-width:1.15480006;stroke-linecap:butt;stroke-linejoin:miter;stroke-miterlimit:3.86369991;stroke-dasharray:none;stroke-opacity:1" />
            <path
               d="M 495.3289,155.5435 C 495.3289,155.5435 502.6853,169.6924 511.3765,176.6933 C 520.0682,183.6943 534.267,190.7083 531.8152,181.4391 C 530.1829,175.2699 530.5386,172.4813 530.5386,172.4813 C 530.5386,172.4813 539.8895,176.6749 540.8615,169.3365 C 541.532,164.2787 537.6284,164.8575 538.6958,157.8875 C 539.3071,153.8997 537.1646,150.5307 533.416,150.5307 C 514.6993,150.5307 509.1216,148.1868 503.6646,146.4966 C 503.6646,146.4966 503.7527,146.1987 504.0202,144.8643 C 504.0202,144.8643 518.5251,142.2534 518.5251,124.1592 C 518.5251,106.0651 501.2314,102.2089 501.2314,102.2089 C 501.2314,102.2089 502.3879,104.7307 500.8752,108.8539 C 499.363,112.9771 496.4306,117.7786 497.1081,121.5791 C 498.5621,129.7369 493.3407,130.4487 497.019,140.3853 C 497.019,140.3853 491.7691,140.1322 489.6622,141.0079 C 485.0943,142.9072 478.8361,146.9413 478.4802,151.7762 C 478.4802,151.7762 477.0568,151.1536 474.2682,151.1536 C 474.2682,151.1536 466.2885,151.5092 466.2885,156.8779 C 466.2885,156.8779 465.9326,162.9894 475.9583,164.5017 C 482.7813,164.5017 482.4234,158.8763 482.8701,158.9551 C 488.417,159.9338 495.3289,155.5435 495.3289,155.5435"
               id="path395"
               style="fill:#231f20;fill-opacity:1;fill-rule:nonzero;stroke:none" />
            <path
               d="M 497.1081,154.2981 C 497.1081,154.2981 504.8438,168.0755 510.4874,173.193 C 516.834,178.9484 531.4354,189.3352 529.382,180.0158 C 527.1978,170.1036 529.0264,169.7815 529.0264,169.7815 C 529.0264,169.7815 540.0616,174.825 538.9628,169.0695 C 538.0737,164.4123 536.5383,164.47 536.4718,161.2681 C 536.3827,156.9669 538.7947,152.2612 529.2928,152.577 C 507.8764,153.2887 502.6853,147.92 502.4189,148.5426 C 501.7091,150.198 497.1081,154.2981 497.1081,154.2981"
               id="path397"
               style="fill:#d3d3d3;fill-opacity:1;fill-rule:nonzero;stroke:none" />
            <g
               id="g399">
              <g
                 clip-path="url(#clipPath403)"
                 id="g401">
                <path
                   d="M 498.8219,152.1456 C 498.8219,152.1456 505.8303,163.6427 507.2533,166.4009 C 508.6768,169.1586 510.0117,170.1683 510.0117,170.1683 C 510.0117,170.1683 508.2321,168.2587 508.2321,165.2133 C 508.2321,164.057 511.2275,166.9689 512.5336,169.0695 C 514.0458,171.5026 516.7145,176.9294 518.5251,177.9388 C 518.5251,177.9388 514.3431,171.8275 514.6106,169.8703 C 514.8771,167.9131 522.5009,176.2484 524.547,181.0835 C 524.547,181.0835 523.6265,175.8346 518.2576,170.1683 C 518.2576,170.1683 521.7463,171.3767 523.9244,172.7481 C 523.9244,172.7481 522.6694,170.8493 515.8558,167.7352 C 512.0187,165.9814 512.4042,165.9683 510.0117,164.3237 C 507.1652,162.3666 507.3425,162.9003 505.621,160.1117 C 504.1135,157.6678 517.2134,168.7139 528.8712,172.0363 L 529.0557,169.7878 C 529.0557,169.7878 514.6369,166.3546 499.7449,151.5522"
                   id="path407"
                   style="fill:#231f20;fill-opacity:1;fill-rule:evenodd;stroke:none" />
                <path
                   d="M 500.8659,150.2992 C 500.8659,150.2992 509.5082,157.8201 514.655,160.1283 C 514.655,160.1283 518.9106,165.8687 515.9739,160.5242 C 515.9739,160.5242 520.2151,161.3881 521.6696,162.9894 C 523.1235,164.5905 527.0689,167.8243 528.4919,168.269 C 528.4919,168.269 525.2588,165.3024 524.6362,163.7011 C 524.0131,162.0995 532.7935,165.7471 536.8275,169.9594 C 536.8275,169.9594 533.8917,165.6583 531.726,164.5017 C 529.5598,163.3453 532.8511,163.4031 535.1066,164.8575 C 535.1066,164.8575 534.1278,162.0995 528.4919,162.1886 C 522.8571,162.2775 515.0549,158.9241 511.8218,157.1449 C 511.8218,157.1449 519.7816,155.1074 522.5591,156.789 C 524.814,158.1545 526.237,159.8447 526.237,159.8447 L 524.4579,156.789 C 524.4579,156.789 527.692,154.9207 532.3486,159.7556 C 532.3486,159.7556 531.1034,157.7677 530.2716,156.8779 C 529.4397,155.9885 533.95,157.3228 534.5726,159.6667 C 534.5726,159.6667 535.5823,157.5007 532.3486,156.1664 C 529.115,154.8319 523.3905,154.9207 516.1223,154.8319 C 509.8282,154.7546 512.095,156.2137 507.4316,153.4666 C 502.6147,150.6292 501.7236,149.012 501.7236,149.012"
                   id="path409"
                   style="fill:#231f20;fill-opacity:1;fill-rule:evenodd;stroke:none" />
              </g>
            </g>
            <g
               id="g411">
              <path
                 d="M 499.2739,140.3853 C 499.2739,140.3853 497.2278,136.7377 498.2957,133.2375 C 499.363,129.7369 499.7187,128.2247 499.4522,124.9906 C 499.1852,121.7575 499.4213,116.7442 500.9644,114.1337 C 502.5075,111.5227 504.465,106.1847 503.5754,104.9085 C 502.6853,103.6324 515.8558,110.9583 515.8558,124.5149 C 515.8558,138.0721 504.1398,143.0851 502.9528,142.996 C 501.7653,142.9072 499.2739,140.3853 499.2739,140.3853"
                 id="path413"
                 style="fill:#231f20;fill-opacity:1;fill-rule:nonzero;stroke:none" />
              <g
                 id="g415">
                <g
                   clip-path="url(#clipPath419)"
                   id="g417">
                  <path
                     d="M 498.3843,138.784 C 498.3843,138.784 501.7962,137.2715 506.7198,142.2843 C 511.6435,147.2971 502.5966,144.0636 502.5966,144.0636 L 498.7404,141.8396"
                     id="path423"
                     style="fill:#fdd313;fill-opacity:1;fill-rule:nonzero;stroke:none" />
                  <path
                     d="M 497.4639,134.4827 C 497.4639,134.4827 503.2775,133.473 509.3,139.8513 L 511.1992,138.2502 C 511.1992,138.2502 508.4413,131.5161 498.207,131.783"
                     id="path425"
                     style="fill:#fdd313;fill-opacity:1;fill-rule:nonzero;stroke:none" />
                  <path
                     d="M 498.9182,128.4603 C 498.9182,128.4603 508.0238,128.0155 513.7787,135.1055 L 515.144,132.1387 C 515.144,132.1387 507.076,123.6253 498.7404,126.6811"
                     id="path427"
                     style="fill:#fdd313;fill-opacity:1;fill-rule:nonzero;stroke:none" />
                  <path
                     d="M 499.0069,122.2018 C 499.0069,122.2018 509.3309,120.4808 516.1223,128.1933 L 516.5676,124.5149 C 516.5676,124.5149 509.5082,117.3364 499.0069,120.303"
                     id="path429"
                     style="fill:#fdd313;fill-opacity:1;fill-rule:nonzero;stroke:none" />
                  <path
                     d="M 499.5414,116.1798 C 499.5414,116.1798 506.2751,113.6889 515.5889,118.4347 L 514.4905,114.6676 C 514.4905,114.6676 509.1216,111.9092 500.164,113.6889"
                     id="path431"
                     style="fill:#fdd313;fill-opacity:1;fill-rule:nonzero;stroke:none" />
                  <path
                     d="M 502.9342,109.5471 C 502.9342,109.5471 507.6491,107.501 510.438,109.5471 L 507.1461,106.2243 L 503.2899,104.2365"
                     id="path433"
                     style="fill:#fdd313;fill-opacity:1;fill-rule:nonzero;stroke:none" />
                </g>
              </g>
              <path
                 d="M 472.9026,159.889 C 472.9026,160.356 473.4472,160.7343 474.1189,160.7343 C 474.7911,160.7343 475.3354,160.356 475.3354,159.889 C 475.3354,159.4224 474.7911,159.0441 474.1189,159.0441 C 473.4472,159.0441 472.9026,159.4224 472.9026,159.889"
                 id="path435"
                 style="fill:#ffffff;fill-opacity:1;fill-rule:nonzero;stroke:none" />
              <path
                 d="M 472.5055,163.0876 C 472.5055,163.0876 470.6088,166.6136 466.3801,166.6136 C 462.1515,166.6136 459.4333,163.3684 459.4333,163.3684 C 459.4333,163.3684 458.7659,162.1743 460.2411,162.5958 C 461.9431,163.082 465.9938,167.6459 470.8194,162.2093"
                 id="path437"
                 style="fill:#231f20;fill-opacity:1;fill-rule:nonzero;stroke:none" />
              <path
                 d="M 470.6226,162.2269 C 470.6226,162.2269 469.3932,163.5048 467.4965,163.5048 C 465.5997,163.5048 462.0996,162.401 461.0766,160.611 C 460.6551,159.8734 461.2872,159.2762 462.2707,159.7329 C 463.0144,160.0782 465.6563,162.8238 469.7445,160.7867"
                 id="path439"
                 style="fill:#231f20;fill-opacity:1;fill-rule:nonzero;stroke:none" />
              <path
                 d="M 481.5615,146.974 C 481.5615,146.974 479.5397,143.4165 478.004,143.0932 C 477.2737,142.9394 474.6889,143.0932 474.3655,143.174 C 474.0424,143.2548 473.3946,144.0631 472.2632,144.0631 C 471.1314,144.0631 470.4849,143.4974 470.4849,143.4974 C 470.4849,143.4974 468.0589,143.4974 467.0891,143.7397 C 466.1194,143.9823 464.5825,145.1138 463.6126,145.033 C 462.6427,144.9519 461.9154,144.6288 461.592,144.3054 C 461.2686,143.9823 460.2167,143.9823 459.3279,143.9012 C 458.4387,143.8205 454.0742,142.4467 456.9031,141.8806 C 459.7318,141.3149 460.6221,141.396 461.2686,141.4765 C 461.9154,141.5576 462.5619,141.1534 463.5316,141.1534 C 464.5015,141.1534 465.1495,141.7191 466.6043,141.5576 C 468.0589,141.396 469.4343,141.396 469.4343,141.396 C 469.4343,141.396 470.4849,140.4248 471.4548,140.3438 C 472.4247,140.2633 474.1232,140.4248 474.4466,140.748 C 474.77,141.0713 476.9533,140.9098 477.5191,140.9098 C 478.0848,140.9098 479.7768,140.3173 480.3478,140.5864 C 481.7231,141.2341 483.986,144.4672 483.986,144.4672"
                 id="path441"
                 style="fill:#231f20;fill-opacity:1;fill-rule:nonzero;stroke:none" />
              <path
                 d="M 485.7713,143.8033 C 485.7713,143.8033 482.051,139.0349 480.5961,138.2253 C 479.1413,137.416 478.7384,137.9817 477.4438,137.5775 C 476.1496,137.1733 475.5031,136.7694 475.0181,135.9611 C 474.5331,135.1528 473.4017,134.9912 472.9167,134.9912 C 472.4318,134.9912 471.3799,135.5569 470.4099,135.2339 C 469.44,134.9104 468.5509,134.0214 468.5509,134.0214 C 468.5509,134.0214 466.206,133.7787 465.3168,133.7787 C 464.4277,133.7787 463.4566,134.1023 462.4059,134.1023 C 461.3552,134.1023 460.6279,133.9395 458.1212,132.4845 C 455.6143,131.03 458.8497,130.4636 460.4664,130.6255 C 462.0828,130.7873 467.0951,131.3532 468.1458,131.1914 C 469.1962,131.03 470.7318,131.1914 471.7838,131.2718 C 472.8357,131.3532 473.644,132.1608 473.9674,132.4845 C 474.2905,132.8076 475.4222,132.6458 475.7454,132.8886 C 476.0688,133.1313 478.0098,133.4555 478.8987,133.7787 C 479.7878,134.1023 480.5974,135.072 481.0013,135.7995 C 481.4055,136.5266 483.7507,137.7403 485.0437,138.4679 C 486.337,139.1952 489.0849,142.2677 489.0849,142.2677"
                 id="path443"
                 style="fill:#231f20;fill-opacity:1;fill-rule:nonzero;stroke:none" />
              <path
                 d="M 495.4934,141.3426 C 495.4934,141.3426 491.0264,140.2572 490.2498,138.8658 C 489.8804,138.2039 489.3408,135.6956 489.3411,135.367 C 489.3411,135.0385 490.0526,134.2265 489.7422,133.1442 C 489.4319,132.0619 488.6324,131.5784 488.6324,131.5784 C 488.6324,131.5784 487.9673,129.2586 487.9677,128.2726 C 487.9685,127.2877 488.7917,125.5482 488.4369,124.6401 C 488.082,123.732 487.5269,123.113 487.0827,122.8811 C 486.6385,122.6486 486.3501,121.6425 486.0174,120.8117 C 485.6847,119.9809 482.9768,116.135 483.1301,118.9743 C 483.2836,121.8147 483.6166,122.6471 483.8828,123.2465 C 484.1491,123.8454 483.8818,124.5597 484.1478,125.4874 C 484.4138,126.4151 485.2136,126.8996 485.4348,128.3299 C 485.656,129.7596 486.033,131.0749 486.033,131.0749 C 486.033,131.0749 485.2531,132.3108 485.4303,133.2581 C 485.6072,134.2049 486.2507,135.7907 486.6949,136.0228 C 487.1393,136.2548 487.5601,138.3816 487.7154,138.9227 C 487.8704,139.4637 487.6829,141.2228 488.1353,141.705 C 489.2251,142.8657 493.4011,144.2591 493.4011,144.2591"
                 id="path445"
                 style="fill:#231f20;fill-opacity:1;fill-rule:nonzero;stroke:none" />
              <path
                 d="M 448.1446,96.2452 C 448.4662,96.2792 448.6738,96.3364 448.7682,96.4158 C 448.8648,96.4982 448.9131,96.7044 448.9131,97.0348 L 448.9131,100.9255 C 448.9131,101.2358 448.8663,101.4378 448.7722,101.5322 C 448.6783,101.629 448.4692,101.6883 448.1446,101.7115 L 448.1446,101.8739 L 450.6171,101.8739 L 450.6171,101.7115 C 450.2955,101.6945 450.0791,101.6419 449.9681,101.5538 C 449.8599,101.4651 449.8058,101.276 449.8058,100.9853 L 449.8058,96.7832 C 449.8058,96.6858 449.8214,96.6096 449.8528,96.5529 C 449.8871,96.4982 449.9595,96.4642 450.0705,96.4498 C 450.136,96.4415 450.2044,96.4359 450.2756,96.4328 C 450.3496,96.4297 450.4863,96.4287 450.6856,96.4287 C 451.4627,96.4287 451.9882,96.4926 452.2614,96.6204 C 452.5348,96.7487 452.7995,97.076 453.0557,97.6033 L 453.2779,97.6033 L 452.8509,96.0869 L 448.1446,96.0869"
                 id="path447"
                 style="fill:#231f20;fill-opacity:1;fill-rule:nonzero;stroke:none" />
              <path
                 d="M 448.1446,96.2452 C 448.4662,96.2792 448.6738,96.3364 448.7682,96.4158 C 448.8648,96.4982 448.9131,96.7044 448.9131,97.0348 L 448.9131,100.9255 C 448.9131,101.2358 448.8663,101.4378 448.7722,101.5322 C 448.6783,101.629 448.4692,101.6883 448.1446,101.7115 L 448.1446,101.8739 L 450.6171,101.8739 L 450.6171,101.7115 C 450.2955,101.6945 450.0791,101.6419 449.9681,101.5538 C 449.8599,101.4651 449.8058,101.276 449.8058,100.9853 L 449.8058,96.7832 C 449.8058,96.6858 449.8214,96.6096 449.8528,96.5529 C 449.8871,96.4982 449.9595,96.4642 450.0705,96.4498 C 450.136,96.4415 450.2044,96.4359 450.2756,96.4328 C 450.3496,96.4297 450.4863,96.4287 450.6856,96.4287 C 451.4627,96.4287 451.9882,96.4926 452.2614,96.6204 C 452.5348,96.7487 452.7995,97.076 453.0557,97.6033 L 453.2779,97.6033 L 452.8509,96.0869 L 448.1446,96.0869 L 448.1446,96.2452 z"
                 id="path449"
                 style="fill:none;stroke:#231f20;stroke-width:0.2922;stroke-linecap:butt;stroke-linejoin:miter;stroke-miterlimit:3.86369991;stroke-dasharray:none;stroke-opacity:1" />
              <path
                 d="M 463.0368,101.2245 C 463.5749,101.7399 464.237,101.9976 465.0226,101.9976 C 465.8114,101.9976 466.4745,101.7383 467.0128,101.2203 C 467.5964,100.6591 467.8881,99.9123 467.8883,98.9783 C 467.8883,98.0305 467.5866,97.2755 466.9831,96.7147 C 466.4418,96.2132 465.7885,95.9633 465.0226,95.9633 C 464.2028,95.9633 463.5223,96.2405 462.9814,96.7956 C 462.4318,97.3626 462.157,98.0898 462.157,98.9783 C 462.157,99.9123 462.4502,100.6606 463.0368,101.2245 z M 463.6901,96.9368 C 464.0518,96.4982 464.4959,96.2792 465.0226,96.2792 C 465.5381,96.2792 465.9777,96.4926 466.3423,96.9193 C 466.7095,97.3497 466.8932,98.0362 466.8932,98.9783 C 466.8932,99.9318 466.7083,100.6209 466.3381,101.0451 C 465.9679,101.4698 465.5295,101.6816 465.0226,101.6816 C 464.4987,101.6816 464.0545,101.461 463.6901,101.0198 C 463.3285,100.5812 463.1478,99.9009 463.1478,98.9783 C 463.1478,98.0584 463.3285,97.378 463.6901,96.9368"
                 id="path451"
                 style="fill:#231f20;fill-opacity:1;fill-rule:evenodd;stroke:none" />
              <path
                 d="M 463.6901,96.9368 C 464.0518,96.4982 464.4959,96.2792 465.0226,96.2792 C 465.5381,96.2792 465.9777,96.4926 466.3423,96.9193 C 466.7095,97.3497 466.8932,98.0362 466.8932,98.9783 C 466.8932,99.9318 466.7083,100.6209 466.3381,101.0451 C 465.9679,101.4698 465.5295,101.6816 465.0226,101.6816 C 464.4987,101.6816 464.0545,101.461 463.6901,101.0198 C 463.3285,100.5812 463.1478,99.9009 463.1478,98.9783 C 463.1478,98.0584 463.3285,97.378 463.6901,96.9368 z"
                 id="path453"
                 style="fill:none;stroke:#231f20;stroke-width:0.2922;stroke-linecap:butt;stroke-linejoin:miter;stroke-miterlimit:3.86369991;stroke-dasharray:none;stroke-opacity:1" />
              <path
                 d="M 463.0368,101.2245 C 463.5749,101.7399 464.237,101.9976 465.0226,101.9976 C 465.8114,101.9976 466.4745,101.7383 467.0128,101.2203 C 467.5964,100.6591 467.8881,99.9123 467.8883,98.9783 C 467.8883,98.0305 467.5866,97.2755 466.9831,96.7147 C 466.4418,96.2132 465.7885,95.9633 465.0226,95.9633 C 464.2028,95.9633 463.5223,96.2405 462.9814,96.7956 C 462.4318,97.3626 462.157,98.0898 462.157,98.9783 C 462.157,99.9123 462.4502,100.6606 463.0368,101.2245 z"
                 id="path455"
                 style="fill:none;stroke:#231f20;stroke-width:0.2922;stroke-linecap:butt;stroke-linejoin:miter;stroke-miterlimit:3.86369991;stroke-dasharray:none;stroke-opacity:1" />
              <path
                 d="M 476.8187,96.2452 C 477.1804,96.2818 477.4124,96.3627 477.5148,96.4884 C 477.6175,96.6168 477.6686,96.9111 477.6686,97.3724 L 477.6686,101.2291 L 477.549,101.3698 C 477.421,101.5208 477.3112,101.6131 477.2201,101.6471 C 477.1318,101.6847 476.9981,101.7058 476.8187,101.7115 L 476.8187,101.8739 L 478.3179,101.8739 L 481.6873,97.663 L 481.6873,100.5885 C 481.6873,101.0693 481.6161,101.3827 481.4739,101.528 C 481.3798,101.6218 481.1719,101.6832 480.8503,101.7115 L 480.8503,101.8739 L 482.9046,101.8739 L 482.9046,101.7115 C 482.5714,101.6775 482.3495,101.5966 482.2385,101.4682 C 482.1272,101.3404 482.0719,101.0466 482.0719,100.5885 L 482.0719,95.9844 L 481.9221,95.9844 L 478.0529,100.7807 L 478.0529,97.3724 C 478.0529,96.8946 478.1226,96.5822 478.2623,96.4369 C 478.3533,96.3431 478.5569,96.2792 478.873,96.2452 L 478.873,96.0869 L 476.8187,96.0869"
                 id="path457"
                 style="fill:#231f20;fill-opacity:1;fill-rule:nonzero;stroke:none" />
              <path
                 d="M 476.8187,96.2452 C 477.1804,96.2818 477.4124,96.3627 477.5148,96.4884 C 477.6175,96.6168 477.6686,96.9111 477.6686,97.3724 L 477.6686,101.2291 L 477.549,101.3698 C 477.421,101.5208 477.3112,101.6131 477.2201,101.6471 C 477.1318,101.6847 476.9981,101.7058 476.8187,101.7115 L 476.8187,101.8739 L 478.3179,101.8739 L 481.6873,97.663 L 481.6873,100.5885 C 481.6873,101.0693 481.6161,101.3827 481.4739,101.528 C 481.3798,101.6218 481.1719,101.6832 480.8503,101.7115 L 480.8503,101.8739 L 482.9046,101.8739 L 482.9046,101.7115 C 482.5714,101.6775 482.3495,101.5966 482.2385,101.4682 C 482.1272,101.3404 482.0719,101.0466 482.0719,100.5885 L 482.0719,95.9844 L 481.9221,95.9844 L 478.0529,100.7807 L 478.0529,97.3724 C 478.0529,96.8946 478.1226,96.5822 478.2623,96.4369 C 478.3533,96.3431 478.5569,96.2792 478.873,96.2452 L 478.873,96.0869 L 476.8187,96.0869 L 476.8187,96.2452 z"
                 id="path459"
                 style="fill:none;stroke:#231f20;stroke-width:0.2922;stroke-linecap:butt;stroke-linejoin:miter;stroke-miterlimit:3.86369991;stroke-dasharray:none;stroke-opacity:1" />
              <path
                 d="M 492.2009,96.2452 C 492.5198,96.2792 492.7274,96.3364 492.8243,96.4158 C 492.9212,96.4982 492.9695,96.7044 492.9695,97.0348 L 492.9695,100.9255 C 492.9695,101.2446 492.9227,101.4497 492.8286,101.5404 C 492.7347,101.6316 492.5253,101.6883 492.2009,101.7115 L 492.2009,101.8739 L 494.5582,101.8739 C 495.3525,101.8739 496.0244,101.7429 496.5741,101.4806 C 497.5653,101.0111 498.0601,100.171 498.0601,98.9608 C 498.0601,98.5258 497.9709,98.1114 497.7911,97.7182 C 497.6148,97.326 497.3472,96.9935 496.9883,96.7235 C 496.7608,96.5529 496.5242,96.423 496.2796,96.3349 C 495.8322,96.1694 495.283,96.0869 494.6307,96.0869 L 492.2009,96.0869 L 492.2009,96.2452 z M 493.9606,96.4802 C 494.0315,96.4343 494.1767,96.4117 494.3962,96.4117 C 495.0792,96.4117 495.6414,96.5467 496.0828,96.8173 C 496.7608,97.2332 497.0995,97.9434 497.0995,98.9484 C 497.0995,99.8452 496.8202,100.5199 496.2625,100.9729 C 495.7838,101.36 495.1507,101.5533 494.362,101.5538 C 494.1654,101.5538 494.0315,101.5322 493.9606,101.4894 C 493.8921,101.4466 493.8579,101.3528 493.8579,101.2075 L 493.8579,96.7621 C 493.8579,96.6194 493.8921,96.5256 493.9606,96.4802"
                 id="path461"
                 style="fill:#231f20;fill-opacity:1;fill-rule:evenodd;stroke:none" />
              <path
                 d="M 493.9606,96.4802 C 494.0315,96.4343 494.1767,96.4117 494.3962,96.4117 C 495.0792,96.4117 495.6414,96.5467 496.0828,96.8173 C 496.7608,97.2332 497.0995,97.9434 497.0995,98.9484 C 497.0995,99.8452 496.8202,100.5199 496.2625,100.9729 C 495.7838,101.36 495.1507,101.5533 494.362,101.5538 C 494.1654,101.5538 494.0315,101.5322 493.9606,101.4894 C 493.8921,101.4466 493.8579,101.3528 493.8579,101.2075 L 493.8579,96.7621 C 493.8579,96.6194 493.8921,96.5256 493.9606,96.4802 z"
                 id="path463"
                 style="fill:none;stroke:#231f20;stroke-width:0.2922;stroke-linecap:butt;stroke-linejoin:miter;stroke-miterlimit:3.86369991;stroke-dasharray:none;stroke-opacity:1" />
              <path
                 d="M 492.2009,96.2452 C 492.5198,96.2792 492.7274,96.3364 492.8243,96.4158 C 492.9212,96.4982 492.9695,96.7044 492.9695,97.0348 L 492.9695,100.9255 C 492.9695,101.2446 492.9227,101.4497 492.8286,101.5404 C 492.7347,101.6316 492.5253,101.6883 492.2009,101.7115 L 492.2009,101.8739 L 494.5582,101.8739 C 495.3525,101.8739 496.0244,101.7429 496.5741,101.4806 C 497.5653,101.0111 498.0601,100.171 498.0601,98.9608 C 498.0601,98.5258 497.9709,98.1114 497.7911,97.7182 C 497.6148,97.326 497.3472,96.9935 496.9883,96.7235 C 496.7608,96.5529 496.5242,96.423 496.2796,96.3349 C 495.8322,96.1694 495.283,96.0869 494.6307,96.0869 L 492.2009,96.0869 L 492.2009,96.2452 z"
                 id="path465"
                 style="fill:none;stroke:#231f20;stroke-width:0.2922;stroke-linecap:butt;stroke-linejoin:miter;stroke-miterlimit:3.86369991;stroke-dasharray:none;stroke-opacity:1" />
              <path
                 d="M 508.5397,101.2245 C 509.0773,101.7399 509.7401,101.9976 510.5256,101.9976 C 511.3141,101.9976 511.9774,101.7383 512.5155,101.2203 C 513.0989,100.6591 513.3912,99.9123 513.3912,98.9783 C 513.3912,98.0305 513.0892,97.2755 512.4857,96.7147 C 511.9445,96.2132 511.291,95.9633 510.5256,95.9633 C 509.7056,95.9633 509.0252,96.2405 508.4841,96.7956 C 507.9347,97.3626 507.6594,98.0898 507.6594,98.9783 C 507.6594,99.9123 507.9532,100.6606 508.5397,101.2245 z M 509.1933,96.9368 C 509.5546,96.4982 509.9988,96.2792 510.5256,96.2792 C 511.041,96.2792 511.4811,96.4926 511.8455,96.9193 C 512.212,97.3497 512.3959,98.0362 512.3959,98.9783 C 512.3959,99.9318 512.2109,100.6209 511.8409,101.0451 C 511.4708,101.4698 511.0322,101.6816 510.5256,101.6816 C 510.0014,101.6816 509.5571,101.461 509.1933,101.0198 C 508.8315,100.5812 508.6505,99.9009 508.6505,98.9783 C 508.6505,98.0584 508.8315,97.378 509.1933,96.9368"
                 id="path467"
                 style="fill:#231f20;fill-opacity:1;fill-rule:evenodd;stroke:none" />
              <path
                 d="M 509.1933,96.9368 C 509.5546,96.4982 509.9988,96.2792 510.5256,96.2792 C 511.041,96.2792 511.4811,96.4926 511.8455,96.9193 C 512.212,97.3497 512.3959,98.0362 512.3959,98.9783 C 512.3959,99.9318 512.2109,100.6209 511.8409,101.0451 C 511.4708,101.4698 511.0322,101.6816 510.5256,101.6816 C 510.0014,101.6816 509.5571,101.461 509.1933,101.0198 C 508.8315,100.5812 508.6505,99.9009 508.6505,98.9783 C 508.6505,98.0584 508.8315,97.378 509.1933,96.9368 z"
                 id="path469"
                 style="fill:none;stroke:#231f20;stroke-width:0.2922;stroke-linecap:butt;stroke-linejoin:miter;stroke-miterlimit:3.86369991;stroke-dasharray:none;stroke-opacity:1" />
              <path
                 d="M 508.5397,101.2245 C 509.0773,101.7399 509.7401,101.9976 510.5256,101.9976 C 511.3141,101.9976 511.9774,101.7383 512.5155,101.2203 C 513.0989,100.6591 513.3912,99.9123 513.3912,98.9783 C 513.3912,98.0305 513.0892,97.2755 512.4857,96.7147 C 511.9445,96.2132 511.291,95.9633 510.5256,95.9633 C 509.7056,95.9633 509.0252,96.2405 508.4841,96.7956 C 507.9347,97.3626 507.6594,98.0898 507.6594,98.9783 C 507.6594,99.9123 507.9532,100.6606 508.5397,101.2245 z"
                 id="path471"
                 style="fill:none;stroke:#231f20;stroke-width:0.2922;stroke-linecap:butt;stroke-linejoin:miter;stroke-miterlimit:3.86369991;stroke-dasharray:none;stroke-opacity:1" />
              <path
                 d="M 521.8062,96.2452 C 522.168,96.2818 522.3999,96.3627 522.502,96.4884 C 522.605,96.6168 522.656,96.9111 522.656,97.3724 L 522.656,101.2291 L 522.5364,101.3698 C 522.4086,101.5208 522.2988,101.6131 522.2076,101.6471 C 522.119,101.6847 521.9855,101.7058 521.8062,101.7115 L 521.8062,101.8739 L 523.3054,101.8739 L 526.6746,97.663 L 526.6746,100.5885 C 526.6746,101.0693 526.6035,101.3827 526.4612,101.528 C 526.3669,101.6218 526.1592,101.6832 525.8376,101.7115 L 525.8376,101.8739 L 527.892,101.8739 L 527.892,101.7115 C 527.559,101.6775 527.3369,101.5966 527.2256,101.4682 C 527.1147,101.3404 527.0591,101.0466 527.0591,100.5885 L 527.0591,95.9844 L 526.9096,95.9844 L 523.0405,100.7807 L 523.0405,97.3724 C 523.0405,96.8946 523.1101,96.5822 523.2498,96.4369 C 523.3405,96.3431 523.5446,96.2792 523.8605,96.2452 L 523.8605,96.0869 L 521.8062,96.0869"
                 id="path473"
                 style="fill:#231f20;fill-opacity:1;fill-rule:nonzero;stroke:none" />
              <path
                 d="M 521.8062,96.2452 C 522.168,96.2818 522.3999,96.3627 522.502,96.4884 C 522.605,96.6168 522.656,96.9111 522.656,97.3724 L 522.656,101.2291 L 522.5364,101.3698 C 522.4086,101.5208 522.2988,101.6131 522.2076,101.6471 C 522.119,101.6847 521.9855,101.7058 521.8062,101.7115 L 521.8062,101.8739 L 523.3054,101.8739 L 526.6746,97.663 L 526.6746,100.5885 C 526.6746,101.0693 526.6035,101.3827 526.4612,101.528 C 526.3669,101.6218 526.1592,101.6832 525.8376,101.7115 L 525.8376,101.8739 L 527.892,101.8739 L 527.892,101.7115 C 527.559,101.6775 527.3369,101.5966 527.2256,101.4682 C 527.1147,101.3404 527.0591,101.0466 527.0591,100.5885 L 527.0591,95.9844 L 526.9096,95.9844 L 523.0405,100.7807 L 523.0405,97.3724 C 523.0405,96.8946 523.1101,96.5822 523.2498,96.4369 C 523.3405,96.3431 523.5446,96.2792 523.8605,96.2452 L 523.8605,96.0869 L 521.8062,96.0869 L 521.8062,96.2452 z"
                 id="path475"
                 style="fill:none;stroke:#231f20;stroke-width:0.2922;stroke-linecap:butt;stroke-linejoin:miter;stroke-miterlimit:3.86369991;stroke-dasharray:none;stroke-opacity:1" />
              <path
                 d="M 454.8448,92.4451 L 454.8448,91.9148 C 454.2375,91.8957 453.8044,91.8447 453.5459,91.7612 C 453.0879,91.6025 452.8592,91.3143 452.8592,90.8953 C 452.8592,90.7087 452.8838,90.5273 452.9339,90.3505 C 452.9935,90.1738 453.0781,89.9454 453.1878,89.6661 L 457.6065,78.9138 L 460.861,86.985 L 459.4129,90.434 C 459.1441,91.067 458.7412,91.4906 458.2036,91.705 C 457.8851,91.8349 457.4024,91.905 456.7556,91.9148 L 456.7556,92.4451 L 464.9366,92.4451 L 464.9366,91.9148 C 464.17,91.905 463.6426,91.854 463.3542,91.7612 C 462.8959,91.6025 462.6674,91.2767 462.6674,90.7835 C 462.6674,90.616 462.687,90.4665 462.727,90.3366 C 462.7668,90.2155 462.8662,89.9599 463.0258,89.5687 L 467.4446,78.8437 L 471.2664,88.5492 C 471.485,89.0981 471.6345,89.5867 471.7143,90.0155 C 471.7636,90.2573 471.7885,90.4531 471.789,90.6021 C 471.789,91.1324 471.5203,91.4999 470.9828,91.705 C 470.6843,91.8261 470.2363,91.8957 469.6391,91.9148 L 469.6391,92.4451 L 475.7003,92.4451 L 475.7003,91.9148 C 475.1525,91.8401 474.7345,91.7231 474.4464,91.5653 C 473.9284,91.2953 473.5404,90.8299 473.2816,90.1691 L 470.0272,81.665 L 468.7583,78.3835 L 466.9221,73.1888 L 466.4594,73.1888 L 465.2202,76.4976 L 461.5777,85.2955 L 456.8752,73.1888 L 456.4123,73.1888 L 454.2179,79.1375 L 451.5903,85.8259 C 450.5051,88.5817 449.7489,90.2712 449.3211,90.8953 C 448.9031,91.5282 448.2462,91.8679 447.3506,91.9148 L 447.3506,92.4451"
                 id="path477"
                 style="fill:#231f20;fill-opacity:1;fill-rule:nonzero;stroke:none" />
              <path
                 d="M 486.6033,76.2044 C 487.817,74.8731 489.8404,74.2077 491.642,74.2077 C 492.6172,74.2077 493.4583,74.4963 494.1649,75.0736 C 494.8814,75.6503 495.2397,76.4554 495.2397,77.4893 C 495.2397,78.4201 494.8814,79.2298 494.1649,79.9189 C 493.6971,80.3564 492.7118,81.0125 491.2092,81.8877 L 488.5967,83.4107 C 487.81,83.8756 487.1831,84.3456 486.7155,84.8208 C 485.8498,85.7238 485.4167,86.719 485.4167,87.8091 C 485.4167,89.2522 485.9291,90.4531 486.9546,91.4118 C 487.9793,92.3704 489.3378,92.8497 491.0299,92.8502 C 491.7266,92.8502 492.5626,92.6874 493.538,92.3616 C 494.5235,92.0447 495.0852,91.8869 495.2252,91.8869 C 495.6026,91.8869 495.8618,91.9704 496.0013,92.138 C 496.1508,92.3055 496.265,92.5431 496.3445,92.8502 L 496.9717,92.8502 L 497.6432,86.7618 L 496.9118,86.7618 C 496.414,88.5956 495.6132,89.8753 494.5084,90.6021 C 493.4135,91.3283 492.3288,91.6911 491.2539,91.6911 C 490.4179,91.6911 489.6863,91.4581 489.0595,90.9927 C 488.4421,90.5366 488.1339,89.8985 488.1339,89.0801 C 488.1339,88.3441 488.3727,87.7158 488.8503,87.1942 C 489.3282,86.6639 490.0694,86.1098 491.0748,85.5331 L 493.762,83.9828 C 495.4436,83.0143 496.6279,82.1253 497.3149,81.3156 C 497.9915,80.4961 498.3297,79.5282 498.3302,78.4108 C 498.3302,76.912 497.7225,75.6596 496.5086,74.6546 C 495.3042,73.649 493.762,73.1465 491.8811,73.1465 C 490.9354,73.1465 489.9448,73.314 488.91,73.649 C 487.8847,73.984 487.2978,74.152 487.1486,74.152 C 486.7903,74.152 485.9064,76.9682 486.6033,76.2044"
                 id="path479"
                 style="fill:#231f20;fill-opacity:1;fill-rule:nonzero;stroke:none" />
              <path
                 d="M 514.6735,79.2767 C 515.191,77.9923 515.7981,76.9682 516.4944,76.2044 C 517.7087,74.8731 519.2162,74.2077 521.0181,74.2077 C 521.9932,74.2077 522.8344,74.4963 523.541,75.0736 C 524.2579,75.6503 524.6161,76.4554 524.6161,77.4893 C 524.6161,78.4201 524.2579,79.2298 523.541,79.9189 C 523.0735,80.3564 522.0881,81.0125 520.5851,81.8877 L 517.9726,83.4107 C 517.1861,83.8756 516.5588,84.3456 516.0919,84.8208 C 515.2255,85.7238 514.7926,86.719 514.7926,87.8091 C 514.7926,89.2522 515.3049,90.4531 516.3305,91.4118 C 517.3557,92.3704 518.7142,92.8497 520.4058,92.8502 C 521.1026,92.8502 521.9386,92.6874 522.9137,92.3616 C 523.8992,92.0447 524.4615,91.8869 524.6011,91.8869 C 524.9789,91.8869 525.2377,91.9704 525.3768,92.138 C 525.5263,92.3055 525.6407,92.5431 525.7206,92.8502 L 526.3473,92.8502 L 527.0194,86.7618 L 526.288,86.7618 C 525.7902,88.5956 524.9893,89.8753 523.8842,90.6021 C 522.7895,91.3283 521.7046,91.6911 520.63,91.6911 C 519.7935,91.6911 519.0621,91.4581 518.4354,90.9927 C 517.818,90.5366 517.5098,89.8985 517.5098,89.0801 C 517.5098,88.3441 517.7489,87.7158 518.2261,87.1942 C 518.7039,86.6639 519.4456,86.1098 520.4512,85.5331 L 523.1379,83.9828 C 524.8197,83.0143 526.0035,82.1253 526.6911,81.3156 C 527.3678,80.4961 527.7059,79.5282 527.7064,78.4108 C 527.7064,76.912 527.0988,75.6596 525.885,74.6546 C 524.6805,73.649 523.1379,73.1465 521.2567,73.1465 C 520.311,73.1465 519.3209,73.314 518.2864,73.649 C 517.2603,73.984 516.6738,74.152 516.5248,74.152 C 516.1661,74.152 515.9223,74.049 515.793,73.8444 C 515.6734,73.6397 515.594,73.4212 515.5543,73.1888 L 514.8823,73.1888 L 513.972,79.2767"
                 id="path481"
                 style="fill:#231f20;fill-opacity:1;fill-rule:nonzero;stroke:none" />
              <path
                 d="M 468.4674,73.5233 L 468.4674,74.0402 C 469.2536,74.1237 469.8405,74.403 470.229,74.8782 C 470.6269,75.3529 471.3033,76.6419 472.2594,78.7463 L 478.634,92.7801 L 479.2309,92.7801 L 486.8446,76.5677 C 487.3522,75.4874 487.7553,74.8174 488.0538,74.5566 C 488.3624,74.3056 488.8745,74.1335 489.5915,74.0402 L 489.5915,73.5233 L 481.8137,73.5233 L 481.8137,74.0402 C 482.7093,74.1139 483.2864,74.2025 483.5453,74.3056 C 483.8038,74.417 483.9331,74.6824 483.9337,75.1009 C 483.9337,75.2411 483.8836,75.4874 483.7842,75.8415 C 483.6845,76.1951 483.5453,76.5672 483.3661,76.9589 L 482.0973,79.7096 L 474.0955,79.7096 C 473.2993,77.8382 472.8213,76.693 472.6623,76.2745 C 472.5131,75.8647 472.4386,75.5385 472.4386,75.2967 C 472.4386,74.8128 472.6474,74.4778 473.0655,74.2912 C 473.3239,74.1794 473.8114,74.0959 474.5284,74.0402 L 474.5284,73.5233 L 468.4674,73.5233 z M 481.6645,80.8687 L 478.1263,88.7446 L 474.6331,80.8687"
                 id="path483"
                 style="fill:#231f20;fill-opacity:1;fill-rule:evenodd;stroke:none" />
              <path
                 d="M 498.0065,74.0402 C 499.1708,74.1423 499.897,74.3567 500.1856,74.6824 C 500.4742,75.0174 500.618,75.7761 500.6186,76.9589 L 500.6186,89.345 C 500.6186,90.3413 500.4547,90.9974 500.1258,91.3143 C 499.8078,91.6308 499.1007,91.8303 498.0065,91.9148 L 498.0065,92.4451 L 506.0679,92.4451 C 508.6552,92.4451 510.6359,91.9751 512.0094,91.035 C 513.3829,90.0944 514.0695,88.8564 514.0695,87.32 C 514.0695,85.3744 513.3082,83.9642 511.7852,83.0891 C 510.2627,82.2134 508.3568,81.7764 506.0679,81.7764 C 505.7396,81.7764 505.3164,81.7805 504.799,81.7903 C 504.2913,81.8088 503.913,81.8181 503.6646,81.8186 L 503.6646,76.6239 C 503.6646,75.5436 503.8383,74.8643 504.1867,74.585 C 504.5454,74.3056 505.3365,74.1237 506.5606,74.0402 L 506.5606,73.5233 L 498.0065,73.5233 L 498.0065,74.0402 z M 508.3222,90.8531 C 507.4564,91.2071 506.3617,91.3834 505.0381,91.3839 C 504.4109,91.3839 504.0228,91.3231 503.8733,91.2025 C 503.7336,91.0907 503.6646,90.8345 503.6646,90.434 L 503.6646,82.9778 C 504.2114,82.9308 504.5696,82.9025 504.7392,82.8937 C 504.9082,82.8839 505.0721,82.8793 505.2324,82.8793 C 506.6353,82.8793 507.7398,83.0659 508.5459,83.438 C 510.0092,84.1178 510.7405,85.3883 510.7405,87.2504 C 510.7405,89.0002 509.9344,90.2011 508.3222,90.8531"
                 id="path485"
                 style="fill:#231f20;fill-opacity:1;fill-rule:evenodd;stroke:none" />
            </g>
          </g>
        </g>
      </g>
    </g>
  </g>
</svg>
