<?xml version="1.0" encoding="utf-8"?>
<!-- Generator: Adobe Illustrator 24.2.1, SVG Export Plug-In . SVG Version: 6.00 Build 0)  -->
<svg version="1.1" id="Layer_1" xmlns="http://www.w3.org/2000/svg" xmlns:xlink="http://www.w3.org/1999/xlink" x="0px" y="0px"
	 viewBox="0 0 1000 842.604" enable-background="new 0 0 1000 842.604" xml:space="preserve">
<g>
	<g>
		<path fill="#F2E400" d="M705.964,227.757c0.138-0.156,0.285-0.332,0.423-0.486c-8.121-48.539-23.668-92.744-43.519-130.377
			C620.917,16.838,564.557-5.373,517.866,29.595c41.484-6.769,85.285,24.999,118.365,94.509
			c19.748,41.536,32.153,92.627,38.934,144.301c8.53-13.838,18.235-26.502,28.199-37.811
			C704.227,229.615,705.098,228.716,705.964,227.757z"/>
		<path fill="#FFFFFF" d="M772.483,91.837C760.517,19.056,715.717-12.42,665.62,4.456c38.344,1.357,70.999,34.75,80.005,96
			c4.409,29.343,1.611,62.118-5.344,94.702c10.514-8.379,21.621-16.019,33.105-23.065
			C776.634,144.044,776.563,116.721,772.483,91.837z"/>
		<path fill="#E8550D" d="M574.306,91.549c-60.005-62.098-122.033-71.498-165.415-34.398c40.96-9.755,90.32,9.969,138.106,61.826
			c47.371,51.383,83.979,124.777,104.996,201.209c5.226-18.563,13.363-35.829,23.044-51.57
			C653.54,199.304,617.898,136.52,574.306,91.549z"/>
		<path fill="#E40076" d="M651.686,321.241C605.982,225.242,527.17,137.394,441.978,96.832
			c-74.57-35.474-137.03-26.429-172.43,16.226c36.645-13.813,84.824-9.822,139.158,15.749
			C512.105,177.583,609.55,296.93,652.407,410.782c0.061,0.03,0.121,0.059,0.182,0.09
			C643.031,378.712,644.172,348.584,651.686,321.241z"/>
		<path fill="#009EE2" d="M593.909,385.471C467.91,287.891,271.237,227.365,136.476,259.85C52.647,280.077,6.855,328.5,2.404,388.61
			c22.97-31.972,62.457-57.253,117.549-71.783c99.329-26.259,225.838-10.917,337.633,33.337c13.584,1.985,27.106,4.344,40.506,7.118
			C498.091,357.283,540.821,365.665,593.909,385.471z"/>
		<path fill="#78B72A" d="M275.827,148.536c-75.61-7.127-128.811,17.875-153.166,63.522c29.77-18.163,70.253-26.708,120-22.79
			c118.507,9.34,263.213,96.054,352.806,196.795c18.089,6.799,37.321,14.922,56.46,24.481
			C574.028,279.072,411.63,161.083,275.827,148.536z"/>
		<path d="M849.221,748.553c-31.099,0-47.565-16.399-47.565-47.418v-66.233c0-31.041,16.466-47.434,47.565-47.434h102.596v39.653
			H849.221c-5.649,0-7.918,2.269-7.918,7.78v13.288h110.514v39.714H841.303v13.231c0,5.642,2.269,7.838,7.918,7.838h102.596v39.58
			H849.221z M675.588,648.19l0.115-21.068h63.046c5.518,0,7.844,2.269,7.844,7.78v5.578c0,5.377-2.327,7.71-7.844,7.71H675.588z
			 M786.108,748.553v-44.182h0.202v-8.686c0-11.17-2.154-20.428-6.218-27.713c4.065-7.211,6.218-16.466,6.218-27.492v-5.578
			c-0.125-31.041-16.537-47.434-47.562-47.434H636.046v161.084h39.657v-60.648h63.046c5.518,0,7.844,2.199,7.844,7.78v4.023h-0.077
			v48.845H786.108z M573.103,648.19c5.55,0,7.886-2.333,7.886-7.71v-5.578c0-5.511-2.336-7.78-7.886-7.78h-63.01l-0.144,21.068
			H573.103z M573.103,708.973c5.55,0,7.886-2.263,7.886-7.838v-5.45c0-5.582-2.336-7.78-7.886-7.78h-63.01v21.068H573.103z
			 M470.437,748.553V587.468h102.667c31,0,47.398,16.393,47.536,47.434v5.578c0,11.026-2.016,20.281-6.074,27.492
			c4.058,7.284,6.074,16.543,6.074,27.713v5.45c0,31.019-16.406,47.418-47.392,47.418H470.437z M453.052,748.553v-39.58h-102.59
			c-5.553,0-7.816-2.263-7.816-7.838v-13.231h110.405V648.19H342.646v-13.288c0-5.511,2.263-7.78,7.816-7.78h102.59v-39.653h-102.59
			c-31.063,0-47.463,16.393-47.463,47.434v66.233c0,31.019,16.399,47.418,47.463,47.418H453.052z M141.845,748.553V710.74
			l94.074-83.618h-94.074v-39.653h150.084v37.813l-93.962,83.691h93.962v39.58H141.845z"/>
		<path d="M190.069,825.047v-2.18c0-2.896-1.466-4.362-4.401-4.362h-26.314v24.099h-13.122v-61.356h39.436
			c11.656,0,17.519,5.866,17.558,17.519v2.218c0,4.513-0.864,8.161-2.631,10.942c1.767,2.781,2.631,6.427,2.631,10.939v2.218h-0.038
			v17.519H190.03v-17.519L190.069,825.047z M159.316,805.348h26.352c2.935,0,4.401-1.466,4.401-4.362v-2.218
			c0-2.893-1.466-4.362-4.401-4.362h-26.314L159.316,805.348z"/>
		<path d="M276.988,781.248h13.157l0.038,43.836c0,11.694-5.828,17.519-17.519,17.519h-21.955c-11.691,0-17.519-5.825-17.519-17.519
			v-43.836h13.122v43.836c0,2.896,1.466,4.362,4.397,4.362h21.917c2.935,0,4.401-1.466,4.401-4.362L276.988,781.248z"/>
		<path d="M337.667,842.603c-11.691,0-17.519-5.825-17.519-17.519V798.77c0-11.656,5.828-17.522,17.519-17.522h39.436v13.157
			h-39.436c-2.935,0-4.401,1.469-4.401,4.365v26.314c0,2.896,1.466,4.362,4.401,4.362h21.916c2.896,0,4.362-1.466,4.362-4.362
			v-2.218h-15.34v-13.122h28.497v15.34c0,11.694-5.863,17.519-17.519,17.519H337.667z"/>
		<path d="M407.065,781.246h39.439c11.653,0,17.519,5.866,17.554,17.522v2.215c0,4.516-0.864,8.161-2.631,10.942
			c1.767,2.781,2.631,6.43,2.631,10.939v2.221c0,11.691-5.825,17.516-17.516,17.516h-39.477V781.246z M420.149,805.349h26.356
			c2.932,0,4.397-1.466,4.397-4.365v-2.215c0-2.893-1.466-4.362-4.397-4.362h-26.317L420.149,805.349z M420.187,818.506v10.939
			h26.317c2.932,0,4.397-1.466,4.397-4.359v-2.221c0-2.893-1.466-4.359-4.397-4.359H420.187z"/>
		<path d="M515.905,818.506h-4.362c-11.691,0-17.519-5.828-17.519-17.522v-19.737h13.122v19.737c0,2.9,1.466,4.365,4.397,4.365
			h21.92c2.932,0,4.398-1.466,4.398-4.365l-0.039-19.737h13.16l0.038,19.737c0,11.694-5.828,17.522-17.519,17.522h-4.439v24.096
			h-13.157V818.506z"/>
		<path d="M694.143,829.445v13.157h-39.439c-11.691,0-17.516-5.825-17.516-17.516v-26.317c0-11.656,5.825-17.522,17.516-17.522
			h39.439v13.16h-39.439c-2.931,0-4.397,1.469-4.397,4.362v26.317c0,2.893,1.466,4.359,4.397,4.359H694.143z"/>
		<path d="M781.063,829.445v13.157h-39.439c-11.691,0-17.516-5.825-17.516-17.516v-43.84h13.119v43.84
			c0,2.893,1.466,4.359,4.397,4.359H781.063z"/>
		<path d="M854.824,781.248h13.157l0.039,43.836c0,11.694-5.828,17.519-17.519,17.519h-21.955c-11.691,0-17.519-5.825-17.519-17.519
			v-43.836h13.122v43.836c0,2.896,1.466,4.362,4.397,4.362h21.917c2.935,0,4.401-1.466,4.401-4.362L854.824,781.248z"/>
		<path d="M897.982,781.246h39.439c11.653,0,17.519,5.866,17.554,17.522v2.215c0,4.516-0.864,8.161-2.631,10.942
			c1.767,2.781,2.631,6.43,2.631,10.939v2.221c0,11.691-5.825,17.516-17.519,17.516h-39.474V781.246z M911.066,805.349h26.356
			c2.932,0,4.397-1.466,4.397-4.365v-2.215c0-2.893-1.466-4.362-4.397-4.362h-26.317L911.066,805.349z M911.104,818.506v10.939
			h26.317c2.932,0,4.397-1.466,4.397-4.359v-2.221c0-2.893-1.466-4.359-4.397-4.359H911.104z"/>
		<path fill="#FFFFFF" d="M892.058,330.864c-28.449,15.906-70.8,21.23-117.436,17.177c36.158,9.326,82.618,14.742,106.997,8.528
			c15.839-3.967,27.622-11.076,35.443-20.598c0.181-0.225,0.352-0.457,0.529-0.684c0.796-1.005,1.569-2.025,2.279-3.082
			c0.935-1.415,1.815-2.862,2.6-4.363c0.14-0.264,0.254-0.542,0.389-0.808c0.738-1.473,1.418-2.978,2.015-4.529
			c0.096-0.248,0.187-0.499,0.28-0.75c0.639-1.736,1.206-3.51,1.671-5.337c0.009-0.034,0.02-0.068,0.028-0.102
			c0.966-3.824,1.532-7.848,1.742-12.033c0.022-0.481,0.027-0.97,0.04-1.456c0.245-8.475-0.988-17.606-3.76-27.252
			c0.016,0.213,0.013,0.422,0.028,0.634C926.787,297.877,916.283,317.199,892.058,330.864z"/>
		<path fill="#E20613" d="M926.855,316.316c-0.009,0.034-0.02,0.068-0.028,0.102c-0.465,1.826-1.033,3.6-1.671,5.337
			c-0.093,0.25-0.183,0.501-0.28,0.75c-0.597,1.55-1.277,3.055-2.015,4.529c-0.135,0.266-0.249,0.545-0.389,0.808
			c-0.785,1.5-1.665,2.948-2.6,4.363c-0.71,1.057-1.483,2.077-2.279,3.082c-0.177,0.228-0.348,0.459-0.529,0.684
			c-7.822,9.522-19.605,16.631-35.443,20.598c-24.38,6.214-70.839,0.798-106.997-8.528c-7.412-0.644-14.924-1.525-22.516-2.641
			c-10.715-1.575-21.555-3.567-32.443-6.061l-12.113-1.841c5.298,2.889,13.532,7.336,23.5,12.601
			c52.009,25.1,114.349,39.932,150.362,33.539c43.331-7.694,58.965-40.175,47.29-83.186c0.007,0.805-0.045,1.583-0.065,2.376
			c-0.013,0.486-0.018,0.975-0.04,1.456C928.402,308.477,927.822,312.493,926.855,316.316z"/>
		<path fill="#00795D" d="M707.382,336.892c-0.265,0.034-0.513,0.063-0.769,0.094c0.311,0.17,0.602,0.329,0.937,0.512l12.113,1.841
			c10.888,2.495,21.728,4.486,32.443,6.061c7.592,1.116,15.104,1.997,22.516,2.641c46.636,4.053,88.987-1.27,117.436-17.177
			c24.225-13.665,34.728-32.987,32.846-54.654c-0.807-9.288-3.85-19-9.128-28.893c2.074,21.433-8.052,41.023-31.694,55.761
			c-29.345,18.089-73.857,25.36-122.935,22.649c-0.119,0.033-0.238,0.06-0.357,0.093l-0.341-0.164
			c-13.283,3.626-27.058,6.748-41.177,9.331C715.148,335.802,711.051,336.421,707.382,336.892z"/>
		<path fill="#FFFFFF" d="M786.938,7.806c34.477,3.255,51.727,38.706,43.108,97.446c-1.265,8.923-3.118,18.038-5.498,27.23
			c11.147-10.733,20.002-21.47,26.827-32.076C860.19,32.249,833.482-3.228,786.938,7.806z"/>
		<path d="M936.076,337.124c-0.217-0.714-0.464-1.488-0.608-2.209c-0.608,48.141-33.013,77.988-89.459,67.293
			c-21.511-4.009-79.205-33.224-114.959-52.109c-9.967-5.265-18.201-9.712-23.5-12.601c-0.335-0.183-0.626-0.342-0.937-0.512
			c0.256-0.032,0.503-0.06,0.769-0.094c3.668-0.471,7.765-1.09,11.89-1.905c14.119-2.583,27.895-5.705,41.177-9.331
			c57.812-15.781,106.279-41.115,133.035-73.141c32.801-39.097,25.424-79.55-12.463-110.533
			c15.88,26.135,13.608,55.761-10.645,84.818c-26.928,32.2-84.258,60.047-142.842,75.786L713.8,306.35l-0.156,0.253
			c18.288-47.301,47.653-70.817,69.796-88.265c0.912-0.718,1.822-1.435,2.707-2.134c3.032-2.393,6.092-4.756,9.169-7.093
			c23.52-17.867,44.637-38.813,61.431-63.111c2.65-3.834,5.327-7.716,7.771-11.796c32.148-53.682,27.492-95.612-12.546-122.503
			c-0.841-0.721-1.742-1.36-2.769-1.822c2.535,2.698,4.939,5.575,7.22,8.581c22.51,29.667,5.519,68.76-5.049,81.946
			c-6.826,10.606-15.681,21.343-26.827,32.076c-0.663,0.638-1.288,1.276-1.967,1.914c-6.075,5.708-12.27,11.074-18.535,16.103
			c3.878-15.949,6.421-31.659,7.323-46.77c4.551-76.558-31.691-113.737-87.964-97.495c42.668,0.643,67.238,38.39,62.245,104.123
			c-1.399,19.838-5.569,40.713-12.053,61.603c-0.07,0.043-0.14,0.089-0.211,0.132c-11.484,7.046-22.591,14.686-33.105,23.065
			c-0.037,0.029-0.074,0.057-0.111,0.086c-0.537-38.568-6.729-75.166-17.976-107.184c-25.92-73.706-74.215-99.988-122.327-75.776
			c37.79-0.493,72.615,31.121,93.411,92.313c12.237,36.18,15.228,79.516,13.109,122.674c-0.138,0.154-0.285,0.33-0.423,0.486
			c-0.866,0.959-1.738,1.858-2.6,2.837c-9.964,11.309-19.669,23.973-28.199,37.811c-0.043,0.07-0.085,0.141-0.128,0.211
			c-9.681,15.741-17.818,33.007-23.044,51.57c-0.099,0.353-0.21,0.701-0.307,1.055c-7.513,27.343-8.654,57.471,0.903,89.631
			c-0.06-0.03-0.121-0.059-0.182-0.09c-0.16-0.08-0.32-0.158-0.481-0.238c-19.139-9.559-38.371-17.682-56.46-24.481
			c-0.517-0.194-1.043-0.4-1.557-0.592c-53.089-19.806-95.818-28.189-95.818-28.189c-13.399-2.774-26.921-5.133-40.505-7.118
			c-111.959-16.365-228.337-5.758-318.596,35.096C62.633,419.789,17.767,470.113,4.317,525.964l-0.002,0.005
			c-17.008,70.658,16.264,150.164,99.798,217.753c0.199,0.122,0.339,0.231,0.496,0.355c-9.217-9.032-17.436-18.326-24.679-27.812
			c-1.146-1.485-2.202-2.976-3.296-4.468c-1.018-1.402-2.061-2.801-3.037-4.209c-1.936-2.772-3.757-5.556-5.515-8.347
			c-0.051-0.074-0.099-0.151-0.147-0.224C11.33,609.026,46.029,511.86,161.075,453.942c15.132-6.391,32.247-11.935,51.463-16.335
			c84.908-19.388,190.878-12.638,286.334,13.567c-1.882,0.851-3.799,1.776-5.54,2.775c-15.413,8.375-17.612,17.756-13.922,26.064
			c3.693-3.834,8.807-7.742,15.413-11.294c7.956-4.477,17.295-7.956,27.239-10.648c17.362,5.393,34.27,11.502,50.426,18.102
			c-3.197,1.21-6.353,2.631-9.128,4.266c-12.142,6.82-16.549,15.055-12.994,22.797c2.695-3.412,6.673-6.606,11.928-9.585
			c7.959-4.481,17.756-7.815,28.273-9.665c13.138,6.046,25.815,12.43,37.922,19.251c-3.511,0.995-6.743,2.486-9.585,4.192
			c-8.023,5.041-9.06,11.717-6.747,17.186c1.917-2.483,4.474-4.829,7.957-7.031c5.533-3.479,12.497-6.109,19.778-7.738
			c13.208,8.094,25.536,16.549,36.93,25.424c2.138,1.748,4.308,3.498,6.404,5.179c-5.905-9.483-13.922-18.956-24.435-28.849
			l0.121,0.01c-1.203-1.13-2.419-2.266-3.681-3.399c7.921-0.07,15.516,1.066,21.731,3.549c0.602,0.317,1.146,0.557,1.61,0.759
			c-2.125-2.595-4.515-4.545-7.809-6.27c-0.425-0.211-0.861-0.423-1.318-0.631c-0.147-0.07-0.314-0.137-0.467-0.208
			c-0.567-0.256-1.149-0.503-1.779-0.752c-5.684-2.343-12.994-3.764-20.345-3.908c-0.192-0.147-0.394-0.31-0.586-0.464
			c0,0-0.089-0.009-0.131-0.009c-0.588-0.467-1.187-0.947-1.785-1.434c-1.454-1.165-2.945-2.365-4.443-3.488
			c-3.549-2.887-7.403-5.812-11.653-8.856l0.013,0.01c-1.943-1.389-3.879-2.797-5.885-4.154c9.339,0.784,18.182,2.698,25.712,5.754
			c0.96,0.41,1.882,0.839,2.746,1.373c-2.522-3.927-6.097-7.14-11.243-9.992c-1.655-0.887-3.472-1.757-5.495-2.605
			c-8.596-3.62-18.818-5.396-29.265-5.61c-0.272-0.163-0.557-0.317-0.832-0.48h-0.013c-1.341-0.797-2.72-1.578-4.09-2.369
			c-0.977-0.56-1.94-1.133-2.922-1.686c-1.136-0.644-2.311-1.274-3.466-1.911c-1.796-0.979-3.594-1.955-5.419-2.919
			c-0.775-0.409-1.559-0.816-2.339-1.223c-5.799-2.998-11.723-5.888-17.778-8.66c11.931,0.003,23.258,1.498,32.529,4.548
			c1.133,0.355,2.227,0.777,3.329,1.2c-0.067-0.131-0.138-0.263-0.212-0.393c-0.115-0.243-0.253-0.477-0.397-0.714
			c-1.402-2.061-3.828-4.042-7.175-5.933c-3.107-1.712-6.942-3.332-11.381-4.811c-11.08-3.623-25.821-5.117-40.946-4.34
			c0,0-56.675-28.032-116.355-40.194c125.88-0.285,245.322,34.185,330.279,107.602c25.428,22.019,46.058,44.464,61.83,66.764
			c-15.059-39.778-44.675-79.339-89.065-115.347c-7.815-6.177-15.839-12.069-24.15-17.823c-2.993-2.104-6.029-4.155-9.091-6.171
			c0.001-0.04,0.001-0.078,0.005-0.124c-1.969-39.474,0.918-71.494,6.872-97.834c37.229,58.995,114.128,116.365,158.699,132.135
			C930.658,494.528,963.491,434.83,936.076,337.124z"/>
	</g>
	<g id="QuXkgY_1_">
		<g>
			<path d="M987.83,842.603c-6.743-0.09-12.068-5.575-11.909-12.364c0.153-6.545,5.514-11.684,11.959-11.719
				c6.803-0.037,12.216,5.53,12.119,12.231C999.903,837.338,994.417,842.691,987.83,842.603z M987.935,820.367
				c-5.528-0.028-10.139,4.534-10.177,10.067c-0.039,5.716,4.491,10.309,10.183,10.324c5.591,0.015,10.157-4.503,10.208-10.101
				C998.199,824.965,993.664,820.395,987.935,820.367z"/>
			<path d="M989.599,833.07c0.961,1.305,1.896,2.576,2.913,3.958c-0.801,0.04-1.489,0.051-2.174-0.009
				c-0.135-0.012-0.274-0.203-0.375-0.338c-0.727-0.97-1.457-1.937-2.157-2.926c-0.214-0.302-0.437-0.447-0.814-0.427
				c-0.568,0.029-1.138,0.008-1.786,0.008c-0.072,1.249-0.013,2.45-0.05,3.676c-0.632,0-1.192,0-1.796,0c0-4.303,0-8.57,0-12.903
				c0.174-0.013,0.362-0.04,0.55-0.04c1.367-0.003,2.733-0.008,4.1,0.001c2.019,0.013,3.889,1.459,4.396,3.386
				c0.547,2.08-0.263,4.121-2.063,5.194C990.12,832.782,989.892,832.904,989.599,833.07z M985.199,831.479
				c1.048,0,2.014,0.017,2.979-0.007c0.513-0.013,0.987-0.196,1.406-0.505c0.968-0.714,1.377-1.919,1.03-3.04
				c-0.379-1.225-1.37-1.982-2.643-2.001c-0.769-0.011-1.539-0.001-2.309,0.006c-0.146,0.001-0.292,0.035-0.464,0.057
				C985.199,827.818,985.199,829.611,985.199,831.479z"/>
		</g>
	</g>
</g>
<g>
</g>
<g>
</g>
<g>
</g>
<g>
</g>
<g>
</g>
<g>
</g>
<g>
</g>
<g>
</g>
<g>
</g>
<g>
</g>
<g>
</g>
<g>
</g>
<g>
</g>
<g>
</g>
<g>
</g>
</svg>
