<?xml version="1.0" encoding="utf-8"?>
<!-- Generator: Adobe Illustrator 24.0.1, SVG Export Plug-In . SVG Version: 6.00 Build 0)  -->
<svg version="1.1" id="Calque_1" xmlns="http://www.w3.org/2000/svg" xmlns:xlink="http://www.w3.org/1999/xlink" x="0px" y="0px"
	 viewBox="0 0 283.46 283.46" style="enable-background:new 0 0 283.46 283.46;" xml:space="preserve">
<style type="text/css">
	.st0{fill:#FFFFFF;}
</style>
<g>
	<path class="st0" d="M149.04,5.56c-0.21,0.38-0.38,0.78-0.64,1.13c-1.9,2.53-3.81,5.05-5.72,7.58
		C125.39,37.08,108.1,59.9,90.81,82.72c-2.62,3.45-5.24,6.9-7.84,10.32c2.97,6,5.91,11.88,8.78,17.8c0.48,0.98,1.02,1.33,2.12,1.33
		c12.77-0.04,25.53-0.03,38.3-0.03c0.47,0,0.94,0,1.4,0c0-8.03,0-15.82,0-23.8c-5.62,0-11.11,0-16.93,0
		c17.56-23.26,34.9-46.24,52.28-69.27c-3.22-2.46-6.3-4.78-9.35-7.14c-2.73-2.11-5.45-4.25-8.17-6.37L149.04,5.56z M133.61,128.33
		c-8.03,0-15.86,0-23.69,0c-0.04,0.27-0.09,0.42-0.09,0.56c-0.01,20.49-0.02,40.98,0.02,61.47c0,0.45,0.54,1.15,0.98,1.3
		c6.31,2.18,12.65,4.25,18.96,6.44c1.08,0.37,1.64,0.2,2.33-0.7c11.6-15.29,23.23-30.55,34.85-45.82
		c11.17-14.68,22.34-29.36,33.51-44.05c-2.91-5.88-5.84-11.77-8.72-17.67c-0.51-1.05-1.11-1.47-2.35-1.47
		c-12.72,0.05-25.44,0.03-38.16,0.03c-0.44,0-0.87,0-1.39,0c0,7.96,0,15.79,0,23.76c5.64,0,11.16,0,17.03,0
		c-11.12,14.71-22.04,29.15-32.96,43.6c-0.11-0.06-0.23-0.12-0.34-0.19C133.61,146.53,133.61,137.48,133.61,128.33z M193.78,224.42
		c-0.14-0.55-0.2-0.88-0.31-1.2c-2.89-8.51-14.39-11.98-21.67-6.49c-5.7,4.3-6.68,10.28-5.4,16.77c1.05,5.32,4.29,9.07,9.67,10.33
		c5.48,1.29,10.65,0.53,14.74-3.85c1.49-1.6,2.46-3.5,3-5.8c-1.04,0-1.89,0.08-2.71-0.02c-1.47-0.17-2.32,0.29-3.17,1.66
		c-3.37,5.51-11.75,5.62-15.29,0.23c-2.53-3.86-2.49-8.04-0.78-12.21c0.77-1.87,2.13-3.33,3.98-4.23c4.65-2.27,9.77-0.72,12.5,3.72
		c0.29,0.47,0.88,0.97,1.39,1.03C190.99,224.52,192.29,224.42,193.78,224.42z M157.93,256.46c-2.08,0-3.9,0.04-5.72-0.02
		c-0.88-0.03-1.19,0.35-1.4,1.13c-0.72,2.57-1.51,5.11-2.28,7.66c-0.48,1.62-0.98,3.23-1.46,4.85c-0.11-0.01-0.21-0.02-0.32-0.03
		c-1.36-4.51-2.71-9.02-4.06-13.51c-2.28,0-4.43,0-6.7,0c0.14,0.53,0.24,0.95,0.37,1.36c1.72,5.15,3.44,10.3,5.16,15.45
		c1.22,3.65,1.22,3.65,5.08,3.64c1.43,0,3.24,0.47,4.19-0.22c0.99-0.73,1.21-2.57,1.68-3.96
		C154.28,267.45,156.06,262.07,157.93,256.46z M115.81,270.53c0.06,2.08,0.86,3.69,2.44,4.9c2.8,2.14,7.88,2.55,10.82,0.64
		c1.12-0.73,2.17-1.95,2.66-3.19c1.24-3.1-0.26-6.17-3.49-7.66c-1.52-0.7-3.14-1.21-4.65-1.93c-0.44-0.21-0.75-0.83-0.96-1.32
		c-0.06-0.13,0.56-0.78,0.71-0.72c0.5,0.17,0.93,0.54,1.37,0.84c0.29,0.2,0.56,0.61,0.84,0.61c2.02,0.05,4.03,0.03,6.14,0.03
		c-0.08-2.15-0.79-3.81-2.42-4.99c-2.52-1.83-5.37-1.89-8.25-1.34c-3.07,0.59-5.05,2.62-5.26,5.08c-0.29,3.37,0.9,5.36,4.11,6.75
		c1.13,0.49,2.34,0.81,3.47,1.31c0.81,0.36,1.95,0.52,1.84,1.78c-0.03,0.31-0.68,0.88-0.82,0.81c-0.76-0.33-1.45-0.83-2.16-1.26
		c0.06-0.11,0.12-0.23,0.18-0.34C120.23,270.53,118.06,270.53,115.81,270.53z M162.45,276.9c4.55,0,8.97,0,13.41,0
		c0-1.7,0-3.29,0-4.99c-1.8,0-3.48,0-5.16,0c-2.06,0-2.07-0.01-1.99-2c0.01-0.28,0.1-0.56,0.18-1.02c2.08,0,4.12,0,6.14,0
		c0-1.65,0-3.11,0-4.79c-2.13,0-4.18,0-6.19,0c-0.33-2.55-0.33-2.55,1.92-2.55c1.7,0,3.41,0,5.12,0c0-1.82,0-3.38,0-4.99
		c-4.52,0-8.94,0-13.44,0C162.45,263.36,162.45,270.06,162.45,276.9z M145.03,243.94c5.03,0,9.9,0,14.78,0c0-1.2,0-2.26,0-3.48
		c-2.9,0-5.71-0.05-8.51,0.02c-1.25,0.03-1.7-0.29-1.69-1.65c0.07-7.07,0.03-14.15,0.03-21.22c0-3.09,0-3.03-3.15-3.11
		c-1.26-0.03-1.56,0.37-1.56,1.6c0.05,8.8,0.02,17.61,0.03,26.41C144.97,242.95,145,243.39,145.03,243.94z M89.84,214.62
		c0,9.8,0,19.55,0,29.45c4.77,0,9.45,0.01,14.13-0.03c0.23,0,0.64-0.46,0.66-0.73c0.08-0.91,0.03-1.83,0.03-2.84
		c-2.9,0-5.56,0-8.23,0c-2.03,0-2.03-0.01-2.03-1.96c0-7.36,0-14.72,0-22.08c0-0.57,0-1.15,0-1.8
		C92.82,214.62,91.45,214.62,89.84,214.62z M187.63,272.17c0-5.37,0-10.49,0-15.58c-2.18,0-4.18,0-6.16,0c0,6.84,0,13.55,0,20.33
		c4.17,0,8.25,0,12.39,0c0-1.59,0-3.09,0-4.75C191.83,272.17,189.87,272.17,187.63,272.17z"/>
	<path d="M151.41,5.56c2.72,2.13,5.43,4.26,8.17,6.37c3.05,2.35,6.13,4.68,9.35,7.14c-17.38,23.03-34.72,46-52.28,69.27
		c5.82,0,11.31,0,16.93,0c0,7.99,0,15.77,0,23.8c-0.46,0-0.93,0-1.4,0c-12.77,0-25.53-0.01-38.3,0.03c-1.1,0-1.65-0.35-2.12-1.33
		c-2.87-5.92-5.81-11.8-8.78-17.8c2.59-3.41,5.22-6.86,7.84-10.32c17.29-22.82,34.58-45.64,51.87-68.46
		c1.91-2.52,3.82-5.04,5.72-7.58c0.26-0.34,0.43-0.75,0.64-1.13C149.83,5.56,150.62,5.56,151.41,5.56z"/>
	<path d="M133.61,128.33c0,9.16,0,18.2,0,27.24c0.11,0.06,0.23,0.12,0.34,0.19c10.92-14.44,21.84-28.89,32.96-43.6
		c-5.87,0-11.39,0-17.03,0c0-7.97,0-15.8,0-23.76c0.52,0,0.96,0,1.39,0c12.72,0,25.44,0.02,38.16-0.03
		c1.24-0.01,1.83,0.42,2.35,1.47c2.88,5.91,5.81,11.8,8.72,17.67c-11.17,14.69-22.34,29.37-33.51,44.05
		c-11.62,15.27-23.25,30.53-34.85,45.82c-0.69,0.9-1.24,1.08-2.33,0.7c-6.31-2.18-12.65-4.26-18.96-6.44
		c-0.44-0.15-0.98-0.85-0.98-1.3c-0.04-20.49-0.03-40.98-0.02-61.47c0-0.15,0.04-0.29,0.09-0.56
		C117.75,128.33,125.58,128.33,133.61,128.33z"/>
	<path d="M193.78,224.42c-1.49,0-2.79,0.1-4.05-0.05c-0.5-0.06-1.1-0.56-1.39-1.03c-2.73-4.43-7.84-5.99-12.5-3.72
		c-1.85,0.9-3.21,2.36-3.98,4.23c-1.71,4.17-1.76,8.35,0.78,12.21c3.54,5.39,11.91,5.28,15.29-0.23c0.84-1.37,1.7-1.83,3.17-1.66
		c0.82,0.1,1.67,0.02,2.71,0.02c-0.54,2.3-1.5,4.2-3,5.8c-4.09,4.39-9.25,5.14-14.74,3.85c-5.38-1.27-8.62-5.02-9.67-10.33
		c-1.28-6.49-0.31-12.47,5.4-16.77c7.28-5.49,18.78-2.02,21.67,6.49C193.58,223.54,193.64,223.87,193.78,224.42z"/>
	<path d="M157.93,256.46c-1.87,5.6-3.66,10.98-5.48,16.36c-0.47,1.38-0.69,3.23-1.68,3.96c-0.94,0.69-2.76,0.22-4.19,0.22
		c-3.85,0.01-3.86,0-5.08-3.64c-1.72-5.15-3.45-10.3-5.16-15.45c-0.14-0.41-0.23-0.84-0.37-1.36c2.27,0,4.42,0,6.7,0
		c1.35,4.49,2.71,9,4.06,13.51c0.11,0.01,0.21,0.02,0.32,0.03c0.49-1.62,0.98-3.23,1.46-4.85c0.77-2.55,1.56-5.1,2.28-7.66
		c0.22-0.78,0.53-1.16,1.4-1.13C154.03,256.51,155.86,256.46,157.93,256.46z"/>
	<path d="M115.81,270.53c2.26,0,4.42,0,6.59,0c-0.06,0.11-0.12,0.23-0.18,0.34c0.71,0.44,1.4,0.93,2.16,1.26
		c0.14,0.06,0.79-0.5,0.82-0.81c0.11-1.26-1.03-1.43-1.84-1.78c-1.13-0.49-2.33-0.82-3.47-1.31c-3.21-1.39-4.4-3.39-4.11-6.75
		c0.21-2.47,2.19-4.49,5.26-5.08c2.87-0.55,5.73-0.49,8.25,1.34c1.63,1.18,2.34,2.84,2.42,4.99c-2.11,0-4.13,0.03-6.14-0.03
		c-0.29-0.01-0.55-0.41-0.84-0.61c-0.45-0.31-0.88-0.68-1.37-0.84c-0.15-0.05-0.76,0.59-0.71,0.72c0.21,0.5,0.51,1.11,0.96,1.32
		c1.51,0.72,3.12,1.23,4.65,1.93c3.24,1.49,4.74,4.56,3.49,7.66c-0.49,1.23-1.54,2.46-2.66,3.19c-2.94,1.92-8.01,1.51-10.82-0.64
		C116.67,274.22,115.87,272.6,115.81,270.53z"/>
	<path d="M162.45,276.9c0-6.84,0-13.54,0-20.34c4.5,0,8.93,0,13.44,0c0,1.61,0,3.17,0,4.99c-1.71,0-3.42,0-5.12,0
		c-2.25,0-2.25,0-1.92,2.55c2.01,0,4.05,0,6.19,0c0,1.67,0,3.14,0,4.79c-2.01,0-4.06,0-6.14,0c-0.08,0.45-0.17,0.73-0.18,1.02
		c-0.07,2-0.07,2,1.99,2c1.68,0,3.36,0,5.16,0c0,1.69,0,3.29,0,4.99C171.43,276.9,167.01,276.9,162.45,276.9z"/>
	<path d="M145.03,243.94c-0.03-0.55-0.07-0.99-0.07-1.42c0-8.8,0.02-17.61-0.03-26.41c-0.01-1.22,0.3-1.63,1.56-1.6
		c3.15,0.07,3.15,0.02,3.15,3.11c0,7.07,0.04,14.15-0.03,21.22c-0.01,1.36,0.43,1.68,1.69,1.65c2.8-0.07,5.61-0.02,8.51-0.02
		c0,1.22,0,2.28,0,3.48C154.93,243.94,150.06,243.94,145.03,243.94z"/>
	<path d="M89.84,214.62c1.62,0,2.99,0,4.56,0c0,0.65,0,1.22,0,1.8c0,7.36,0,14.72,0,22.08c0,1.95,0,1.95,2.03,1.96
		c2.66,0,5.33,0,8.23,0c0,1.01,0.05,1.93-0.03,2.84c-0.02,0.27-0.43,0.73-0.66,0.73c-4.68,0.04-9.37,0.03-14.13,0.03
		C89.84,234.17,89.84,224.42,89.84,214.62z"/>
	<path d="M187.63,272.17c2.24,0,4.19,0,6.23,0c0,1.66,0,3.16,0,4.75c-4.14,0-8.22,0-12.39,0c0-6.78,0-13.49,0-20.33
		c1.98,0,3.98,0,6.16,0C187.63,261.68,187.63,266.8,187.63,272.17z"/>
	<path d="M111.72,243.89c-0.02-0.55-0.07-1.04-0.07-1.52c0-8.76,0.02-17.51-0.03-26.27c-0.01-1.22,0.3-1.64,1.56-1.59
		c4.1,0.18,8.24-0.07,12.28,0.46c6.31,0.81,10.56,5.47,11.28,11.81c0.47,4.18,0.01,8.22-2.57,11.74c-2.36,3.23-5.67,5.03-9.56,5.3
		C120.4,244.12,116.14,243.89,111.72,243.89z M116.4,239.82c2.08,0,4.01,0.12,5.92-0.02c8.42-0.62,12.82-9.43,8.22-16.58
		c-0.81-1.27-2.09-2.42-3.41-3.15c-3.34-1.86-7.04-1.37-10.73-1.28C116.4,225.85,116.4,232.75,116.4,239.82z"/>
	<path d="M111.67,276.45c-2.32-6.41-4.64-12.82-7.01-19.21c-0.13-0.36-0.76-0.72-1.18-0.75c-1.73-0.08-3.46,0.01-5.19-0.06
		c-0.93-0.04-1.37,0.21-1.7,1.15c-1.27,3.69-2.67,7.33-4,11c-0.99,2.73-1.97,5.46-3.03,8.41c1.74,0,3.27-0.12,4.77,0.03
		c1.51,0.15,2.35-0.34,2.54-1.86c0.12-0.97,0.65-1.31,1.62-1.25c1.28,0.07,2.58,0.12,3.85,0c1.38-0.14,2.08,0.32,2.4,1.7
		c0.12,0.52,0.74,1.28,1.18,1.32c1.91,0.15,3.84,0.06,5.77,0.06C111.68,276.74,111.72,276.58,111.67,276.45z M98.87,268.96
		c0.58-1.8,1.11-3.45,1.64-5.1c0.11-0.01,0.21-0.02,0.32-0.03c0.54,1.63,1.08,3.26,1.7,5.12
		C101.23,268.96,100.17,268.96,98.87,268.96z"/>
</g>
</svg>
