<?xml version="1.0" encoding="UTF-8" standalone="no"?>
<!-- Created with Inkscape (http://www.inkscape.org/) -->

<svg
   xmlns:dc="http://purl.org/dc/elements/1.1/"
   xmlns:cc="http://creativecommons.org/ns#"
   xmlns:rdf="http://www.w3.org/1999/02/22-rdf-syntax-ns#"
   xmlns:svg="http://www.w3.org/2000/svg"
   xmlns="http://www.w3.org/2000/svg"
   xmlns:sodipodi="http://sodipodi.sourceforge.net/DTD/sodipodi-0.dtd"
   xmlns:inkscape="http://www.inkscape.org/namespaces/inkscape"
   id="svg2"
   version="1.1"
   inkscape:version="0.91 r13725"
   xml:space="preserve"
   width="682"
   height="800"
   viewBox="0 0 681.99997 800"
   sodipodi:docname="Logo Levallois Metropolitans.svg"><metadata><?xpacket begin="﻿" id="W5M0MpCehiHzreSzNTczkc9d"?>
<x:xmpmeta xmlns:x="adobe:ns:meta/" x:xmptk="Adobe XMP Core 5.6-c137 79.159768, 2016/08/11-13:24:42        ">
   <rdf:RDF xmlns:rdf="http://www.w3.org/1999/02/22-rdf-syntax-ns#">
      <rdf:Description rdf:about=""/>
   </rdf:RDF>
</x:xmpmeta>
                                                                                                    
                                                                                                    
                                                                                                    
                                                                                                    
                                                                                                    
                                                                                                    
                                                                                                    
                                                                                                    
                                                                                                    
                                                                                                    
                                                                                                    
                                                                                                    
                                                                                                    
                                                                                                    
                                                                                                    
                                                                                                    
                                                                                                    
                                                                                                    
                                                                                                    
                                                                                                    
                           
<?xpacket end="w"?></metadata>
<metadata
     id="metadata8"><rdf:RDF><cc:Work
         rdf:about=""><dc:format>image/svg+xml</dc:format><dc:type
           rdf:resource="http://purl.org/dc/dcmitype/StillImage" /><dc:title></dc:title></cc:Work></rdf:RDF></metadata><defs
     id="defs6" /><sodipodi:namedview
     pagecolor="#ffffff"
     bordercolor="#666666"
     borderopacity="1"
     objecttolerance="10"
     gridtolerance="10"
     guidetolerance="10"
     inkscape:pageopacity="0"
     inkscape:pageshadow="2"
     inkscape:window-width="1440"
     inkscape:window-height="788"
     id="namedview4"
     showgrid="false"
     inkscape:zoom="0.3363286"
     inkscape:cx="331.96067"
     inkscape:cy="372.04749"
     inkscape:window-x="0"
     inkscape:window-y="1"
     inkscape:window-maximized="1"
     inkscape:current-layer="g10" /><g
     id="g10"
     inkscape:groupmode="layer"
     inkscape:label="Logo_1"
     transform="matrix(1.25,0,0,-1.25,0,800.00003)"><g
       id="g4873"
       transform="matrix(0.99998366,0,0,0.99998366,0,0.01031102)"><g
         id="g4868"><path
           d="m 528.27689,555.82542 c -17.46277,19.64561 -32.95058,23.80341 -56.37979,30.10248 l -0.33263,0.0832 c -0.0624,0 -0.12473,0.0208 -0.1871,0.0416 -7.10984,1.85022 -17.48355,4.532 -24.3855,6.36143 -0.1871,1.01866 -0.35342,1.8918 -0.47815,2.57784 -1.26813,11.9121 -10.24898,25.32101 -28.52252,29.54118 -15.71649,3.61729 -72.26259,15.46702 -139.78529,15.46702 l -10.9766,0 c -67.52269,0 -124.04801,-11.84973 -139.78528,-15.46702 -18.27354,-4.22017 -27.25439,-17.64987 -28.522524,-29.54118 -0.145523,-0.68604 -0.291046,-1.55918 -0.478147,-2.57784 -6.901951,-1.82943 -17.275666,-4.51121 -24.385507,-6.36143 -0.06237,-0.0208 -0.124734,-0.0416 -0.187101,-0.0416 l -0.311835,-0.0832 C 50.108915,579.62883 34.621104,575.47103 17.158338,555.82542 -0.55389722,535.88876 -0.20048409,505.76549 0.06977302,499.52879 l 0,-182.15329 c 0,-41.76512 6.21591338,-76.04619 19.56245698,-107.85338 C 34.891361,173.09978 60.046061,139.15133 96.53077,105.70182 168.43995,39.779874 253.52936,5.7898455 263.94465,1.7775669 c 2.70257,-1.16418441 5.65461,-1.78785465 8.75217,-1.78785465 l 0.0416,0 0.0208,0 c 3.2223,0 6.29907,0.68603726 9.06401,1.91258875 11.78737,4.5735817 95.8789,38.522032 167.08126,103.799519 36.4847,33.44951 61.6394,67.39796 76.91933,103.8203 13.32575,31.80719 19.54166,66.08826 19.54166,107.85338 l 0,182.15329 c 0.27026,6.2367 0.62367,36.35997 -17.08856,56.29663"
           style="fill:#c67427;fill-opacity:1;fill-rule:nonzero;stroke:none"
           id="path1952"
           inkscape:connector-curvature="0" /><path
           d="m 272.69267,22.285923 c 0,0 88.04145,32.825844 161.1356,99.849607 71.47261,65.50616 89.24721,125.42008 89.24721,195.22957 l 0,182.75617 c 0,0 1.62154,26.17336 -11.45474,40.89198 -13.09708,14.73941 -23.47079,17.46277 -45.83977,23.47079 0,0 -27.67017,7.15142 -31.80718,8.33639 -4.13701,1.18498 -7.08905,1.93338 -7.81667,8.12851 -0.7484,6.19512 -1.76706,11.05975 -1.76706,11.05975 0,0 0.14552,8.1285 -11.41317,10.81028 -18.79326,4.32412 -71.72208,14.88493 -134.77514,14.88493 l -10.97659,0 c -63.03228,0 -115.98188,-10.56081 -134.75435,-14.88493 -11.55869,-2.68178 -11.41317,-10.81028 -11.41317,-10.81028 0,0 -1.03945,-4.86463 -1.76706,-11.05975 -0.74841,-6.19513 -3.70045,-6.94353 -7.81667,-8.12851 -4.1578,-1.18497 -31.827972,-8.33639 -31.827972,-8.33639 C 57.276965,558.47602 46.90325,555.75266 33.826964,541.01325 20.729889,526.29463 22.372221,500.12127 22.372221,500.12127 l 0,-182.75617 c 0,-69.80949 17.774602,-129.72341 89.226419,-195.22957 73.11494,-67.023763 161.1356,-99.849607 161.1356,-99.849607 l -0.0416,0 z"
           style="fill:#0f1b41;fill-opacity:1;fill-rule:nonzero;stroke:none"
           id="path1954"
           inkscape:connector-curvature="0" /><path
           d="m 128.4419,591.94216 c 0.0831,-0.64446 -0.0208,-0.68603 -0.1871,-1.45523 0,-0.0416 -0.97709,-4.65674 -1.66312,-10.41529 -1.30971,-10.95581 -8.56508,-13.03471 -12.90998,-14.28205 l -0.20789,-0.0416 c -4.1578,-1.20576 -30.850886,-8.10771 -31.973493,-8.39876 l -0.270257,-0.0831 c -21.454256,-5.73777 -30.331162,-8.1285 -41.889851,-21.14242 -10.851862,-12.20315 -9.625311,-35.34132 -9.625311,-35.57 0,-0.14552 0.02079,-0.29104 0.02079,-0.43657 l 0,-182.73538 c 0,-57.25292 10.519238,-119.84863 86.835682,-189.82443 64.90329,-59.498139 140.99106,-91.367688 156.14624,-97.375711 15.15519,6.008023 91.24296,37.877572 156.14624,97.375711 76.31645,69.9758 86.83569,132.57151 86.83569,189.82443 l 0,182.73538 c 0,0.14553 0,0.29105 0.0208,0.45736 0.0208,0.20789 1.24734,23.34606 -9.60452,35.54921 -11.57948,13.01392 -20.45639,15.40465 -41.91064,21.14242 l -0.31184,0.10394 c -1.08103,0.27026 -27.77411,7.17221 -31.93192,8.37797 l -0.20789,0.0416 c -4.3449,1.24734 -11.60026,3.32624 -12.90997,14.28205 -0.68604,5.75855 -1.66312,10.37371 -1.66312,10.41529 -0.16631,0.7692 -0.27026,0.81077 -0.1871,1.45523 -0.16631,0.70683 -1.08103,2.61942 -5.69619,3.70045 -14.92651,3.45097 -68.70767,14.69782 -133.09123,14.69782 l -10.9766,0 c -64.40434,0 -118.16472,-11.24685 -133.11201,-14.69782 -4.59437,-1.08103 -5.50909,-2.99362 -5.6754,-3.70045 M 272.7592,14.922507 l -0.0208,0 -0.0416,0 c -1.08102,0 -2.09969,0.228679 -3.03519,0.644459 C 261.78259,18.560533 177.64948,51.594267 106.61344,116.70544 41.543844,176.3491 14.996281,234.49596 14.996281,317.38173 l 0,182.52749 c -0.145523,3.09757 -1.06024,29.83223 13.325754,46.00608 14.489938,16.29858 26.776242,19.60403 49.103637,25.59127 l 0.311835,0.0832 c 0.332624,0.0832 27.690963,7.17221 31.703233,8.31561 l 0.20789,0.0624 c 0.68604,0.18711 1.60076,0.43657 2.09969,0.64446 0.0624,0.22868 0.14553,0.62367 0.22868,1.20577 0.64446,5.42593 1.49681,9.87477 1.78786,11.26764 0.35341,3.51334 2.66099,13.57522 17.04698,16.90146 15.3215,3.53413 70.47474,15.09282 136.41747,15.09282 l 10.9766,0 c 65.96352,0 121.09597,-11.55869 136.41747,-15.09282 14.386,-3.32624 16.69357,-13.38812 17.04699,-16.90146 0.29104,-1.39287 1.14339,-5.84171 1.78785,-11.26764 0.0832,-0.5821 0.16631,-0.97709 0.22868,-1.20577 0.49894,-0.20789 1.41365,-0.45735 2.09969,-0.64446 l 0.20789,-0.0624 c 4.01228,-1.1434 31.37061,-8.23245 31.64087,-8.31561 l 0.3742,-0.0832 c 22.3274,-5.98724 34.6137,-9.29269 49.10364,-25.59127 14.38599,-16.17385 13.47128,-42.90851 13.32576,-46.00608 l 0,-182.52749 c 0,-82.88577 -26.54757,-141.03263 -91.61716,-200.67629 C 368.28468,52.051625 284.81682,19.03868 275.9607,15.650072 c -0.97709,-0.478147 -2.05811,-0.727615 -3.20151,-0.727615"
           style="fill:#ffffff;fill-opacity:1;fill-rule:nonzero;stroke:none"
           id="path1956"
           inkscape:connector-curvature="0" /></g><g
         id="g4817"><path
           d="m 90.734795,207.16673 39.062545,23.59552 5.15567,-8.5027 -25.09233,-21.35031 30.39353,12.61893 5.32199,-8.85612 -39.06255,-23.59553 -3.70044,6.11197 28.00279,16.92226 -30.55984,-12.6813 -3.513342,5.82092 24.780502,21.22558 -27.566229,-16.652 -3.222296,5.34278 z"
           style="fill:#f9b020;fill-opacity:1;fill-rule:nonzero;stroke:none"
           id="path1958"
           inkscape:connector-curvature="0" /><path
           d="m 117.52767,167.53872 33.36636,31.16273 13.34654,-14.30284 -4.78147,-4.44885 -8.44034,9.06401 -9.29269,-8.66902 6.71485,-7.193 -4.76068,-4.44884 -6.71485,7.19299 -9.77083,-9.12637 8.44033,-9.06401 -4.76068,-4.44885 -13.34654,14.28205 z"
           style="fill:#f9b020;fill-opacity:1;fill-rule:nonzero;stroke:none"
           id="path1960"
           inkscape:connector-curvature="0" /><path
           d="m 164.66674,175.1371 3.92913,5.19726 17.71223,-13.38812 -3.94991,-5.19726 -5.98723,4.53201 -23.63711,-31.18351 -5.69618,4.32411 23.61631,31.18351 -5.98724,4.532 z"
           style="fill:#f9b020;fill-opacity:1;fill-rule:nonzero;stroke:none"
           id="path1962"
           inkscape:connector-curvature="0" /><path
           d="m 189.0668,141.86638 2.49468,-1.24734 c 1.28892,-0.66525 2.41153,-0.83156 3.38861,-0.47815 0.97709,0.33262 1.85022,1.28892 2.64021,2.8273 l 2.01653,4.01228 c 1.45523,2.78573 1.08103,4.7399 -1.08103,5.84171 l -3.09756,1.57997 -6.36144,-12.53577 z m -17.73302,-19.1051 20.66427,40.70488 9.62531,-4.90621 c 3.28467,-1.66312 5.3012,-3.63808 6.02882,-5.96645 0.72761,-2.28679 0.29104,-5.03094 -1.3305,-8.21165 l -1.64233,-3.20151 c -2.09969,-4.19938 -4.90621,-6.2367 -8.35718,-6.15355 2.22442,-2.61941 2.18284,-6.2367 -0.14553,-10.81028 l -3.18071,-6.25749 c -0.0624,-0.10395 -0.10395,-0.1871 -0.14553,-0.24947 -1.06024,-2.09969 -1.62154,-3.76281 -1.68391,-5.03094 l -6.46538,3.28466 c 0.1871,1.35129 0.85235,3.11835 1.91259,5.3012 l 3.24308,6.36144 c 0.93551,1.85022 1.28892,3.34703 1.03946,4.49042 -0.24947,1.12261 -1.10182,2.05811 -2.57784,2.80652 l -2.20364,1.14339 -8.41954,-16.56884 -6.36144,3.26388 z"
           style="fill:#f9b020;fill-opacity:1;fill-rule:nonzero;stroke:none"
           id="path1964"
           inkscape:connector-curvature="0" /><path
           d="m 215.2755,115.24189 c -0.81077,-2.88967 -0.0416,-4.67752 2.32837,-5.38435 2.41153,-0.68604 4.01228,0.41578 4.82305,3.30545 l 6.83959,23.65789 c 0.83156,2.86889 0.0624,4.63595 -2.32837,5.32199 -2.39074,0.70683 -3.99149,-0.3742 -4.82305,-3.26387 l -6.83959,-23.63711 z m -6.75642,2.39074 6.59011,22.82633 c 1.01866,3.49255 2.70257,5.94566 5.05173,7.33852 2.34916,1.41365 5.21804,1.62154 8.58586,0.62367 3.38861,-0.97708 5.69619,-2.68178 6.94353,-5.1141 1.22655,-2.43231 1.35129,-5.40514 0.33262,-8.91848 l -6.59011,-22.80554 c -1.03945,-3.51334 -2.72336,-5.96645 -5.07252,-7.35931 -2.34916,-1.39286 -5.19725,-1.60075 -8.58586,-0.62367 -3.36782,0.97708 -5.6754,2.68178 -6.92274,5.1141 -1.24734,2.4531 -1.35128,5.40514 -0.33262,8.91848"
           style="fill:#f9b020;fill-opacity:1;fill-rule:nonzero;stroke:none"
           id="path1966"
           inkscape:connector-curvature="0" /><path
           d="m 252.1656,120.87987 3.38861,-0.33262 c 1.16418,-0.10395 2.05811,0.12473 2.70257,0.72761 0.64446,0.60289 1.03945,1.68391 1.20576,3.24309 l 0.66525,6.798 c 0.14552,1.57997 -0.0208,2.70258 -0.54051,3.4094 -0.54052,0.68604 -1.37208,1.10182 -2.51547,1.22655 l -3.4094,0.31184 -1.49681,-15.38387 z m -9.41742,-22.847117 4.42806,45.444767 10.49845,-1.03945 c 7.10984,-0.68603 10.26977,-4.78147 9.54215,-12.30709 l -0.58209,-5.90408 c -0.72762,-7.46325 -4.65674,-10.87265 -11.725,-10.18661 l -3.38861,0.33262 -1.66312,-17.026194 -7.10984,0.686037 z"
           style="fill:#f9b020;fill-opacity:1;fill-rule:nonzero;stroke:none"
           id="path1968"
           inkscape:connector-curvature="0" /><path
           d="m 284.67545,107.01776 c 0.27026,-2.97283 1.62154,-4.36569 4.11622,-4.19938 2.4739,0.20789 3.57571,1.80865 3.30546,4.80226 l -2.01654,24.53103 c -0.24947,2.97283 -1.62154,4.36569 -4.09543,4.17859 -2.45311,-0.20789 -3.57571,-1.78785 -3.32624,-4.78147 l 2.01653,-24.53103 z m -7.17221,-0.16631 -1.95416,23.65789 c -0.29105,3.63808 0.39499,6.52775 2.09969,8.66902 1.70469,2.14127 4.30332,3.34703 7.81666,3.63807 3.49256,0.29105 6.27828,-0.47814 8.29482,-2.30758 2.03732,-1.85022 3.18072,-4.57358 3.49255,-8.19087 l 1.95417,-23.67868 c 0.31183,-3.63807 -0.39499,-6.52774 -2.09969,-8.669012 -1.7047,-2.141267 -4.30333,-3.367819 -7.79588,-3.658865 -3.51334,-0.291046 -6.27828,0.498936 -8.3156,2.328369 -2.01654,1.829428 -3.18072,4.573578 -3.49256,8.211658"
           style="fill:#f9b020;fill-opacity:1;fill-rule:nonzero;stroke:none"
           id="path1970"
           inkscape:connector-curvature="0" /><path
           d="m 315.98578,100.64593 -11.60027,44.15585 6.94353,1.80865 9.91635,-37.85679 11.43396,3.01441 1.66312,-6.31986 -18.35669,-4.80226 z"
           style="fill:#f9b020;fill-opacity:1;fill-rule:nonzero;stroke:none"
           id="path1972"
           inkscape:connector-curvature="0" /><path
           d="m 347.2171,110.31282 -17.54592,42.13932 6.6109,2.76494 17.54593,-42.16011 -6.61091,-2.74415 z"
           style="fill:#f9b020;fill-opacity:1;fill-rule:nonzero;stroke:none"
           id="path1974"
           inkscape:connector-curvature="0" /><path
           d="m 346.3793,152.40432 -3.32624,5.61304 19.08431,11.30922 3.30546,-5.61304 -6.42381,-3.82517 19.95745,-33.63662 -6.17434,-3.65886 -19.95744,33.63661 -6.46539,-3.82518 z"
           style="fill:#f9b020;fill-opacity:1;fill-rule:nonzero;stroke:none"
           id="path1976"
           inkscape:connector-curvature="0" /><path
           d="m 393.55996,154.61835 5.21804,4.5528 -17.67066,15.05124 12.45262,-19.60404 z m 2.4531,-17.06777 -24.44787,39.24965 8.35718,7.23457 35.40368,-29.6867 -5.40514,-4.69832 -6.11197,5.21804 -6.71485,-5.82092 4.32411,-6.77722 -5.40514,-4.7191 z"
           style="fill:#f9b020;fill-opacity:1;fill-rule:nonzero;stroke:none"
           id="path1978"
           inkscape:connector-curvature="0" /><path
           d="m 425.47316,165.2748 -35.96498,28.08595 5.94566,7.62956 26.0902,-11.01817 -21.53741,16.8391 3.92912,5.03094 35.96499,-28.10674 -4.5528,-5.80013 -31.49534,13.32575 26.02783,-20.35244 -4.40727,-5.63382 z"
           style="fill:#f9b020;fill-opacity:1;fill-rule:nonzero;stroke:none"
           id="path1980"
           inkscape:connector-curvature="0" /><path
           d="m 438.33532,201.72625 -2.49468,1.26813 3.36782,6.54853 2.88967,-1.49681 c 2.661,-1.37207 4.51122,-1.03945 5.57146,0.99788 l 0.0208,0.0208 c 1.03945,2.01653 0.22868,3.72123 -2.41153,5.0933 -1.51759,0.7692 -3.15993,1.06024 -4.9062,0.89393 -1.78786,-0.20789 -3.53413,-0.62367 -5.25962,-1.26813 l -5.09331,-1.5176 c -1.87101,-0.7484 -3.92912,-1.1226 -6.15355,-1.1226 -2.22442,0 -4.40727,0.54051 -6.54853,1.64233 -3.28467,1.68391 -5.34278,3.86675 -6.21592,6.48617 -0.87313,2.61941 -0.54051,5.40514 0.99788,8.37797 1.51759,2.95204 3.55492,4.76068 6.13275,5.44672 2.57784,0.68604 5.50909,0.16631 8.77296,-1.5176 l 1.30971,-0.68604 -3.11835,-6.02881 -1.68391,0.87314 c -2.66099,1.37207 -4.55279,0.99787 -5.65461,-1.12261 -1.10182,-2.14126 -0.31183,-3.88754 2.36995,-5.25962 1.10182,-0.58209 2.266,-0.89392 3.53413,-0.95629 1.24734,-0.0624 2.4531,0.0832 3.65886,0.39499 1.18498,0.33263 2.41153,0.72762 3.65887,1.20576 1.26813,0.47815 2.53626,0.93551 3.84597,1.35129 1.33049,0.41578 2.66099,0.7484 4.05385,0.95629 1.37208,0.22868 2.8481,0.22868 4.42806,-0.0208 1.57997,-0.22867 3.18072,-0.7484 4.76068,-1.57996 3.28467,-1.68391 5.36357,-3.7836 6.27829,-6.31986 0.91471,-2.51547 0.60288,-5.25962 -0.91472,-8.21166 -1.53839,-2.95204 -3.61729,-4.86462 -6.27828,-5.71697 -2.66099,-0.85235 -5.63382,-0.41578 -8.91849,1.26813"
           style="fill:#f9b020;fill-opacity:1;fill-rule:nonzero;stroke:none"
           id="path1982"
           inkscape:connector-curvature="0" /></g><g
         id="g4806"><path
           d="m 197.98737,527.07006 c -2.70258,-15.55017 -5.19726,-34.59291 -8.77297,-66.9406 -3.55492,28.85514 -7.29694,47.93945 -10.0203,63.88462 -4.86463,-0.91472 -11.89131,-2.12048 -15.63333,-2.93125 4.67753,-31.14194 9.91636,-61.90967 14.76019,-88.91459 6.54854,4.03307 13.4297,7.65036 20.16534,11.12212 4.94779,29.93617 10.62319,59.33183 15.65413,85.81703 -5.69619,-0.70683 -12.39025,-1.62155 -16.15306,-2.03733"
           style="fill:#f9b020;fill-opacity:1;fill-rule:nonzero;stroke:none"
           id="path2042"
           inkscape:connector-curvature="0" /><path
           d="m 231.60319,485.49621 c 1.26813,10.60239 2.55705,21.05926 3.84597,31.3914 1.28892,-9.91636 2.55705,-19.70798 3.84596,-29.35408 -2.55704,-0.66525 -5.13488,-1.35129 -7.69193,-2.03732 m -6.40301,44.71715 c -5.09331,-25.32101 -10.39451,-53.07434 -15.40466,-81.53449 5.19725,2.43232 10.45687,4.67753 15.73728,6.77722 1.03945,5.40514 2.14127,10.45687 3.20151,15.75807 4.46964,1.47602 8.98085,2.84809 13.47128,4.1578 1.06024,-4.40727 2.01653,-8.60665 3.07677,-12.93076 5.36356,1.72548 10.81028,3.13914 16.21543,4.55279 -5.19726,20.51875 -10.62319,42.53431 -15.77886,64.94486 -6.29907,-0.60288 -15.3215,-1.10182 -20.51875,-1.72549"
           style="fill:#f9b020;fill-opacity:1;fill-rule:nonzero;stroke:none"
           id="path2044"
           inkscape:connector-curvature="0" /><path
           d="m 384.45022,482.80195 c -4.57359,0.64446 -9.18875,1.18497 -13.88706,1.64233 l 0,35.56999 c 4.69831,-0.51972 9.31347,-1.08102 13.88706,-1.74627 l 0,-35.46605 z m 3.80438,45.32004 c -7.06826,1.08103 -14.28204,2.01653 -21.59978,2.74415 -3.0144,0.31183 -5.61303,-0.20789 -7.79587,-1.5176 -2.22443,-1.35129 -3.34703,-3.11835 -3.34703,-5.28041 0,-13.78311 0,-27.56622 0,-41.37013 0,-2.16205 1.1226,-4.03306 3.34703,-5.65461 2.18284,-1.62154 4.80226,-2.49468 7.79587,-2.72336 7.31774,-0.5613 14.53152,-1.39286 21.59978,-2.49468 2.86889,-0.45735 5.34278,-0.14552 7.3801,0.9563 2.0789,1.14339 3.11835,2.74415 3.11835,4.88541 l 0,40.95435 c 0,2.14127 -1.03945,4.1578 -3.11835,6.02881 -2.03732,1.85022 -4.51121,2.99362 -7.3801,3.47177"
           style="fill:#f9b020;fill-opacity:1;fill-rule:nonzero;stroke:none"
           id="path2046"
           inkscape:connector-curvature="0" /><path
           d="m 306.04655,493.97188 c -0.0624,-0.0416 -0.10394,-0.0831 -0.16631,-0.12473 -3.80439,-2.91046 -7.65036,-5.88329 -11.49632,-8.8977 -3.43019,-0.41578 -6.86038,-0.89392 -10.31135,-1.43444 l 0,50.16388 c 0,-0.0416 -15.19677,-0.51973 -25.65364,-0.91472 3.15993,-3.70044 6.52775,-7.27615 9.68768,-10.7687 l 0,-53.3446 c 12.70208,3.0352 25.42496,4.38648 38.06467,5.77935 l 0,19.72876 -0.12473,-0.1871 z"
           style="fill:#f9b020;fill-opacity:1;fill-rule:nonzero;stroke:none"
           id="path2048"
           inkscape:connector-curvature="0" /><path
           d="m 349.91136,495.38762 c -3.99149,-2.55705 -8.00377,-5.17647 -12.03684,-7.87904 -3.11835,0.0416 -6.25749,0.0416 -9.41742,-0.0416 0,15.59176 0,30.4559 0,46.00608 0,0 -9.0848,0.49893 -23.72026,0.60288 2.76494,-3.61729 5.17647,-7.29694 7.92062,-10.76871 0,-16.00753 0.0831,-32.24375 0.0831,-48.29286 12.57735,1.1226 25.02997,0.72761 37.19154,0.27025 0,3.45098 -0.0208,17.35883 -0.0208,20.10298"
           style="fill:#f9b020;fill-opacity:1;fill-rule:nonzero;stroke:none"
           id="path2050"
           inkscape:connector-curvature="0" /><path
           d="m 94.632734,396.10555 0,134.38015 c -0.06237,-0.14553 -20.269283,-5.19725 -37.420215,-14.71862 7.463254,-4.11622 17.525134,-8.35718 17.525134,-17.4004 l 0,-133.25754 c 2.952039,-5.80013 5.924867,-11.43396 8.960062,-16.79752 8.523494,10.26977 29.395655,33.42873 37.690475,40.91277 l 0,50.84991 c -1.55918,-4.82305 -9.99952,-25.65363 -11.62106,-29.74907 -6.59011,-6.46538 -11.537898,-10.22819 -15.134396,-14.21968"
           style="fill:#f9b020;fill-opacity:1;fill-rule:nonzero;stroke:none"
           id="path2052"
           inkscape:connector-curvature="0" /><path
           d="m 427.16331,464.06066 c -1.93338,3.4094 -4.30332,7.69193 -6.27828,11.24685 0,15.84123 -0.0832,31.2043 -0.0832,47.06632 -6.27828,1.26813 -15.59175,2.80651 -18.58537,3.3886 1.85022,-3.34703 5.05173,-9.14716 5.09331,-9.12637 l 0,-48.16813 c 4.36569,-0.89393 13.82469,-2.78573 19.8535,-4.40727"
           style="fill:#f9b020;fill-opacity:1;fill-rule:nonzero;stroke:none"
           id="path2054"
           inkscape:connector-curvature="0" /><path
           d="m 441.5888,460.44961 c -2.74415,0.91471 -5.32198,1.33049 -7.46325,3.99149 -2.03732,2.53626 -3.07677,4.96857 -3.09756,7.54641 -0.0416,4.57358 0,8.29481 -0.0624,12.8476 4.94778,-1.28891 9.79162,-2.6402 14.53152,-4.09543 0.0208,-3.49255 0.0416,-6.13276 0.0831,-9.6461 0.78999,-0.24947 9.04322,-2.66099 13.09708,-3.7836 -0.0208,1.68391 -0.0624,7.71272 -0.0832,9.39663 -0.0416,2.97283 -2.16205,5.23883 -6.52775,6.67327 -5.71697,1.87101 -10.66476,4.84384 -14.71861,8.8977 -4.30333,4.36569 -6.54854,9.0848 -6.59012,14.28205 -0.0416,4.67752 -0.0832,9.35505 -0.14552,14.01179 -0.0208,2.57784 1.03945,4.532 3.18072,5.80013 2.12047,1.28892 4.63594,1.55918 7.50483,0.7692 7.02668,-1.8918 13.8039,-3.88755 20.35244,-6.04961 2.66099,-0.87313 4.92699,-2.55704 6.81879,-5.05172 1.91259,-2.53626 2.86888,-5.15568 2.88967,-7.81667 0.0624,-4.69832 0.0624,-6.67327 0.12474,-11.37159 -4.26175,1.68391 -8.64823,3.30545 -13.13866,4.84384 -0.0208,2.57784 -0.0624,5.15567 -0.0831,7.73351 -4.28254,1.39286 -8.62744,2.74415 -13.09708,4.01228 0.0416,-3.61729 0.0624,-7.21379 0.10395,-10.83107 0.0416,-2.93125 2.28679,-5.05173 6.67327,-6.4446 5.71698,-1.82943 10.31135,-4.94778 13.97021,-9.35505 3.86676,-4.65674 5.75856,-9.75004 5.82093,-15.11361 0.0208,-2.6402 0.0416,-6.73564 0.0624,-9.37584 0,0 0.0624,-10.91423 -9.2719,-8.08693 -10.33213,3.15993 -20.93453,6.21592 -20.93453,6.21592"
           style="fill:#f9b020;fill-opacity:1;fill-rule:nonzero;stroke:none"
           id="path2056"
           inkscape:connector-curvature="0" /><path
           d="m 144.27065,428.05202 0,24.32314 c 3.92912,2.30758 9.81241,5.71697 15.52939,8.73138 l 0,18.5438 c -5.71698,-2.4739 -12.24473,-5.44672 -15.52939,-7.02669 l 0,25.32101 c 4.01228,1.39287 8.75217,2.76494 14.61467,4.5528 0.0208,6.34064 -0.0832,11.43395 -0.0416,17.7746 -16.92225,-3.55492 -30.93404,-7.42168 -38.7715,-9.75005 2.86889,-3.84596 8.39876,-10.54002 8.54429,-15.92438 l 0,-97.3965 c 11.60026,9.6461 20.24849,15.71649 32.92978,24.75971 l 0,18.19038 c -7.06826,-4.36569 -11.10133,-7.35931 -17.27566,-12.0992"
           style="fill:#f9b020;fill-opacity:1;fill-rule:nonzero;stroke:none"
           id="path2058"
           inkscape:connector-curvature="0" /></g><g
         id="g4840"><path
           d="m 405.39514,300.59045 c 0,-72.84468 -59.04078,-131.88546 -131.88547,-131.88546 -72.84468,0 -131.88546,59.04078 -131.88546,131.88546 0,72.84469 59.04078,131.88547 131.88546,131.88547 72.84469,0 131.88547,-59.04078 131.88547,-131.88547"
           style="fill:#ffffff;fill-opacity:1;fill-rule:nonzero;stroke:none"
           id="path1984"
           inkscape:connector-curvature="0" /><path
           d="m 391.77834,300.59045 c 0,-65.31906 -52.9496,-118.26866 -118.26867,-118.26866 -65.31906,0 -118.26866,52.9496 -118.26866,118.26866 0,65.31907 52.9496,118.26867 118.26866,118.26867 65.31907,0 118.26867,-52.9496 118.26867,-118.26867"
           style="fill:#c67427;fill-opacity:1;fill-rule:nonzero;stroke:none"
           id="path1986"
           inkscape:connector-curvature="0" /><path
           d="m 468.70183,383.74025 c 0,0 -17.48356,-9.29269 -41.32855,-10.7895 -16.04911,-0.99787 -54.11379,0.20789 -80.03768,9.75005 0,0 -73.92571,25.48732 -152.21712,23.94893 0,0 15.21756,13.94943 54.13458,28.377 28.70962,10.64397 59.01999,16.00754 109.24624,13.69996 l -29.99854,-29.18777 c 65.73484,23.2629 111.24198,27.6078 187.20502,-7.3801 l -30.06091,-8.19087 -16.94304,-20.2277 z"
           style="fill:#ffffff;fill-opacity:1;fill-rule:nonzero;stroke:none"
           id="path1988"
           inkscape:connector-curvature="0" /><path
           d="m 372.66493,388.30759 -11.70421,8.93928 c 0,0 43.15798,16.19463 81.22265,16.19463 0,0 -40.87119,-8.19087 -69.51844,-25.13391"
           style="fill:#f9b020;fill-opacity:1;fill-rule:nonzero;stroke:none"
           id="path1990"
           inkscape:connector-curvature="0" /><path
           d="m 329.2159,432.6651 -10.7895,-10.0203 -14.59388,2.97283 c 0,0 12.4942,5.36356 25.38338,7.04747"
           style="fill:#f9b020;fill-opacity:1;fill-rule:nonzero;stroke:none"
           id="path1992"
           inkscape:connector-curvature="0" /><path
           style="color:#000000;font-style:normal;font-variant:normal;font-weight:normal;font-stretch:normal;font-size:medium;line-height:normal;font-family:sans-serif;text-indent:0;text-align:start;text-decoration:none;text-decoration-line:none;text-decoration-style:solid;text-decoration-color:#000000;letter-spacing:normal;word-spacing:normal;text-transform:none;direction:ltr;block-progression:tb;writing-mode:lr-tb;baseline-shift:baseline;text-anchor:start;white-space:normal;clip-rule:nonzero;display:inline;overflow:visible;visibility:visible;opacity:1;isolation:auto;mix-blend-mode:normal;color-interpolation:sRGB;color-interpolation-filters:linearRGB;solid-color:#000000;solid-opacity:1;fill:#ffffff;fill-opacity:1;fill-rule:nonzero;stroke:none;stroke-width:8;stroke-linecap:butt;stroke-linejoin:miter;stroke-miterlimit:10;stroke-dasharray:none;stroke-dashoffset:0;stroke-opacity:1;color-rendering:auto;image-rendering:auto;shape-rendering:auto;text-rendering:auto;enable-background:accumulate"
           d="m 277.53125,177.68555 c -55.78379,15.48231 -99.18507,73.87105 -97.76953,136.43359 0.72789,32.30536 12.7577,61.5374 33.13672,84.33789 7.83415,8.76578 24.65082,26.00569 59.27344,38.27539 l 2.67187,-7.54101 C 241.65262,417.429 226.41299,401.57447 218.86328,393.12695 199.7016,371.68844 188.44553,344.37336 187.75977,313.9375 c -1.32861,-58.72054 40.1316,-114.17228 91.91015,-128.54297 l -2.13867,-7.70898 z"
           id="path1996"
           inkscape:connector-curvature="0" /><path
           style="color:#000000;font-style:normal;font-variant:normal;font-weight:normal;font-stretch:normal;font-size:medium;line-height:normal;font-family:sans-serif;text-indent:0;text-align:start;text-decoration:none;text-decoration-line:none;text-decoration-style:solid;text-decoration-color:#000000;letter-spacing:normal;word-spacing:normal;text-transform:none;direction:ltr;block-progression:tb;writing-mode:lr-tb;baseline-shift:baseline;text-anchor:start;white-space:normal;clip-rule:nonzero;display:inline;overflow:visible;visibility:visible;opacity:1;isolation:auto;mix-blend-mode:normal;color-interpolation:sRGB;color-interpolation-filters:linearRGB;solid-color:#000000;solid-opacity:1;fill:#ffffff;fill-opacity:1;fill-rule:nonzero;stroke:none;stroke-width:8;stroke-linecap:butt;stroke-linejoin:miter;stroke-miterlimit:10;stroke-dasharray:none;stroke-dashoffset:0;stroke-opacity:1;color-rendering:auto;image-rendering:auto;shape-rendering:auto;text-rendering:auto;enable-background:accumulate"
           d="m 313.70703,208.28516 c -15.4897,-0.0907 -32.69231,5.45901 -50.6543,11.00976 l 0.002,-0.002 c -23.88425,7.3681 -37.60371,10.51639 -52.99805,8.50586 l -0.006,-0.002 -0.006,0 c -14.55945,-1.86421 -20.46094,-11.60352 -20.46094,-11.60352 l -6.7832,4.24023 c 0,0 8.31297,12.99957 26.21875,15.29688 17.07809,2.23043 32.29578,-1.35929 56.39258,-8.79297 l 0.002,0 c 23.94855,-7.40077 45.50671,-13.64167 60.77735,-8.8418 l 2.39843,-7.63086 c -4.74741,-1.4922 -9.71957,-2.14947 -14.88281,-2.17968 z"
           id="path2000"
           inkscape:connector-curvature="0" /><path
           style="color:#000000;font-style:normal;font-variant:normal;font-weight:normal;font-stretch:normal;font-size:medium;line-height:normal;font-family:sans-serif;text-indent:0;text-align:start;text-decoration:none;text-decoration-line:none;text-decoration-style:solid;text-decoration-color:#000000;letter-spacing:normal;word-spacing:normal;text-transform:none;direction:ltr;block-progression:tb;writing-mode:lr-tb;baseline-shift:baseline;text-anchor:start;white-space:normal;clip-rule:nonzero;display:inline;overflow:visible;visibility:visible;opacity:1;isolation:auto;mix-blend-mode:normal;color-interpolation:sRGB;color-interpolation-filters:linearRGB;solid-color:#000000;solid-opacity:1;fill:#ffffff;fill-opacity:1;fill-rule:nonzero;stroke:none;stroke-width:8;stroke-linecap:butt;stroke-linejoin:miter;stroke-miterlimit:10;stroke-dasharray:none;stroke-dashoffset:0;stroke-opacity:1;color-rendering:auto;image-rendering:auto;shape-rendering:auto;text-rendering:auto;enable-background:accumulate"
           d="m 195.55664,251.66797 c -17.3831,0.0854 -27.85815,3.13264 -34.17578,6.4707 -3.15882,1.66903 -5.26522,3.4142 -6.61133,4.84375 -1.3461,1.42955 -2.09375,2.89649 -2.09375,2.89649 l 7.25977,3.35937 c 0,0 -0.0707,0.003 0.6582,-0.77148 0.7289,-0.77409 2.09521,-1.9709 4.52344,-3.25391 4.85646,-2.56602 14.01711,-5.46403 30.47851,-5.54492 32.82701,-0.15955 88.83594,17.23633 88.83594,17.23633 l 2.4043,-7.63086 c 0,0 -55.6689,-17.77855 -91.2793,-17.60547 z"
           id="path2004"
           inkscape:connector-curvature="0" /><path
           style="color:#000000;font-style:normal;font-variant:normal;font-weight:normal;font-stretch:normal;font-size:medium;line-height:normal;font-family:sans-serif;text-indent:0;text-align:start;text-decoration:none;text-decoration-line:none;text-decoration-style:solid;text-decoration-color:#000000;letter-spacing:normal;word-spacing:normal;text-transform:none;direction:ltr;block-progression:tb;writing-mode:lr-tb;baseline-shift:baseline;text-anchor:start;white-space:normal;clip-rule:nonzero;display:inline;overflow:visible;visibility:visible;opacity:1;isolation:auto;mix-blend-mode:normal;color-interpolation:sRGB;color-interpolation-filters:linearRGB;solid-color:#000000;solid-opacity:1;fill:#ffffff;fill-opacity:1;fill-rule:nonzero;stroke:none;stroke-width:8;stroke-linecap:butt;stroke-linejoin:miter;stroke-miterlimit:10;stroke-dasharray:none;stroke-dashoffset:0;stroke-opacity:1;color-rendering:auto;image-rendering:auto;shape-rendering:auto;text-rendering:auto;enable-background:accumulate"
           d="m 184.99023,282.37891 c -14.78757,0.035 -24.3456,9.27221 -29.66015,17.95312 -5.31456,8.68091 -7.01563,17.29492 -7.01563,17.29492 l 7.84375,1.57617 c 0,0 1.51188,-7.37193 5.99414,-14.69335 4.48174,-7.32057 11.30389,-14.10192 22.85352,-14.13086 24.43137,-0.0386 37.58008,17.01562 37.58008,17.01562 l 6.32226,-4.90234 c 0,0 -15.70767,-20.15787 -43.91406,-20.11328 l -0.002,0 -0.002,0 z"
           id="path2008"
           inkscape:connector-curvature="0" /><path
           d="m 322.72349,406.39611 c 0,0 40.08121,18.62695 89.14327,19.97824 29.14619,0.81077 49.72731,-6.00803 49.72731,-6.00803 0,0 -59.78919,9.68768 -123.3204,-20.56033 l -15.55018,6.59012 z"
           style="fill:#0f1b41;fill-opacity:1;fill-rule:nonzero;stroke:none"
           id="path2010"
           inkscape:connector-curvature="0" /><path
           d="m 230.40159,405.11758 c 0,0 39.56148,37.44101 102.67691,34.6137 0,0 -46.1516,-5.01015 -66.3793,-23.30448 l -36.29761,-11.30922 z"
           style="fill:#0f1b41;fill-opacity:1;fill-rule:nonzero;stroke:none"
           id="path2012"
           inkscape:connector-curvature="0" /><path
           d="m 253.36928,272.5835 c 0,0 -48.85417,40.4762 -42.53431,80.97319 6.34065,40.4762 43.42824,74.67411 113.113,45.86055 62.45018,-25.77837 95.94127,-118.74682 9.04321,-191.63308 l -13.57522,1.80865 c 0,0 -44.34295,40.49698 -34.36423,94.46525 L 253.36928,272.5835 Z"
           style="fill:#c67427;fill-opacity:1;fill-rule:nonzero;stroke:none"
           id="path2014"
           inkscape:connector-curvature="0" /><path
           d="m 257.90337,405.27766 c 0,0 -23.78263,-38.81308 -3.99149,-129.30763 0,0 -39.43675,31.34982 -39.43675,71.3063 0,39.95647 16.83909,50.91228 43.42824,58.00133"
           style="fill:#fab21e;fill-opacity:1;fill-rule:nonzero;stroke:none"
           id="path2016"
           inkscape:connector-curvature="0" /><path
           d="m 327.26173,335.68853 c 0,0 -23.32526,-65.09038 -3.24308,-119.22496 l -1.93338,-7.08905 c 0,0 -25.44575,5.88329 -32.57638,39.39517 -7.15141,33.51188 0.81078,52.7625 0.81078,52.7625 l 36.94206,34.15634 z"
           style="fill:#fab21e;fill-opacity:1;fill-rule:nonzero;stroke:none"
           id="path2018"
           inkscape:connector-curvature="0" /><path
           d="m 291.12212,399.52118 c 0,0 -20.49796,-10.64397 -13.92863,-79.10217 0,0 22.97185,14.07416 32.514,22.45213 14.15732,12.43182 33.11689,52.65855 -18.58537,56.65004"
           style="fill:#0f1b41;fill-opacity:1;fill-rule:nonzero;stroke:none"
           id="path2020"
           inkscape:connector-curvature="0" /><path
           d="m 235.51153,317.24245 c 0,0 -34.53055,12.80603 -31.05878,42.86693 3.47176,30.06091 24.67655,35.21658 24.67655,35.21658 0,0 -8.83533,-32.22296 6.38223,-78.08351"
           style="fill:#0f1b41;fill-opacity:1;fill-rule:nonzero;stroke:none"
           id="path2022"
           inkscape:connector-curvature="0" /><path
           d="m 294.10534,246.58061 c 0,0 11.22607,17.56671 30.74695,15.71649 22.07792,-2.12048 32.22296,-17.54592 33.11689,-30.60142 0,0 11.33001,15.3215 16.85988,29.06303 0,0 -7.87903,27.37913 -38.79229,31.57851 -28.48094,3.84596 -48.47996,-19.18826 -48.47996,-19.18826 l 6.54853,-26.56835 z"
           style="fill:#0f1b41;fill-opacity:1;fill-rule:nonzero;stroke:none"
           id="path2024"
           inkscape:connector-curvature="0" /><path
           d="m 312.84248,321.60814 c 0,0 24.28156,10.83107 45.27846,2.32837 14.21968,-5.75856 22.43134,-15.52939 26.6515,-30.35195 0,0 2.43232,37.8152 -9.93714,49.95598 -16.71436,16.42332 -44.23901,9.77084 -47.35736,7.44247 l -14.63546,-29.37487 z"
           style="fill:#0f1b41;fill-opacity:1;fill-rule:nonzero;stroke:none"
           id="path2026"
           inkscape:connector-curvature="0" /><path
           d="m 337.66663,208.68641 c 0,0 -4.40727,27.35833 -29.20855,14.3652 0,0 -4.59438,-24.86365 -41.34934,-40.35146 0,0 33.38715,-4.15781 70.76578,21.84924 l -0.20789,4.13702 z"
           style="fill:#0f1b41;fill-opacity:1;fill-rule:nonzero;stroke:none"
           id="path2028"
           inkscape:connector-curvature="0" /><path
           d="m 290.58577,382.82761 c 0,0 13.991,-2.49468 -8.06614,-31.74482 0,0 -1.57996,21.49584 8.06614,31.74482"
           style="fill:#ffffff;fill-opacity:1;fill-rule:nonzero;stroke:none"
           id="path2030"
           inkscape:connector-curvature="0" /><path
           d="m 325.64019,205.78634 c -11.10133,9.39663 -42.99167,45.92292 -34.71764,87.77119 0.12473,0.0832 0.22868,0.14552 0.35341,0.22868 21.80767,15.92438 46.56738,33.99003 45.11215,74.73648 -0.31184,8.93928 -2.51547,16.2778 -5.82092,22.28582 19.89508,-11.64184 44.42611,-33.94845 48.56312,-74.5078 7.02668,-68.43742 -35.52842,-102.82244 -53.49012,-110.51437 m -71.72208,70.18369 c -11.51711,12.03684 -40.55935,42.22248 -41.84827,73.34362 -0.54051,13.40891 0.33262,22.24424 13.74153,36.21445 11.80816,12.3071 31.16273,21.28795 48.2305,21.28795 3.32624,0 6.71485,-0.29105 10.06188,-0.81077 0.33263,-0.0624 0.68604,-0.0832 1.03945,-0.0832 1.49681,0 37.14996,-4.03307 38.35572,-37.85678 1.20577,-33.96924 -18.73089,-48.52155 -39.85253,-63.9262 -10.66476,-7.77509 -21.95319,-17.60829 -29.72828,-28.16911 m 137.85192,28.79278 c -0.68604,43.82323 -27.31676,76.71144 -49.06206,91.82504 -16.52727,11.47554 -38.70914,21.66215 -64.63303,21.9532 -31.59929,0.3742 -47.52367,-8.75218 -63.96778,-31.0172 -13.991,-18.93879 -12.11999,-41.68196 -11.97447,-43.42824 3.18072,-38.10625 46.98316,-79.45559 48.85417,-81.20187 1.20577,-1.1226 2.78573,-1.72548 4.40727,-1.72548 0.3742,0 0.72762,0.0416 1.08103,0.10394 1.97496,0.31184 3.67966,1.53839 4.63595,3.30545 4.67753,8.81454 11.93289,14.17811 18.16959,19.1051 -1.82943,-17.42119 1.08103,-30.33116 7.27616,-43.6777 11.05975,-23.82421 29.70749,-40.26831 30.87167,-41.45329 1.24734,-1.26813 2.91046,-1.93337 4.61516,-1.93337 0.81077,0 1.66312,0.14552 2.43232,0.47814 0.76919,0.31184 22.57686,6.6317 37.441,24.86366 13.30496,16.34016 30.53905,39.5199 29.85302,82.80262"
           style="fill:#0f1b41;fill-opacity:1;fill-rule:nonzero;stroke:none"
           id="path2032"
           inkscape:connector-curvature="0" /><path
           d="m 210.48156,342.99171 c 0,0 -7.40089,15.98675 1.1434,29.04225 1.97495,-5.07252 0.3742,-15.75807 -1.1434,-29.04225"
           style="fill:#ffffff;fill-opacity:1;fill-rule:nonzero;stroke:none"
           id="path2034"
           inkscape:connector-curvature="0" /><path
           d="m 246.07858,337.17079 c 0,0 -8.37797,51.07859 -0.33263,65.90116 0,0 4.51122,7.67114 16.15306,7.00589 0,0 -15.17597,-31.0172 -15.82043,-72.90705"
           style="fill:#0f1b41;fill-opacity:1;fill-rule:nonzero;stroke:none"
           id="path2036"
           inkscape:connector-curvature="0" /><path
           d="m 317.17906,214.76511 c 0,0 8.5235,3.43019 11.05976,-6.9851 0,0 -10.91423,-7.87904 -27.27518,-12.88919 0,0 11.60026,11.41317 16.21542,19.87429"
           style="fill:#ffffff;fill-opacity:1;fill-rule:nonzero;stroke:none"
           id="path2038"
           inkscape:connector-curvature="0" /><path
           d="m 267.10458,182.68975 c 0,0 53.26144,-6.4238 93.8,38.08546 l -1.95416,3.76281 c 0,0 -22.3274,-19.87429 -50.39256,-29.79064 -28.04437,-9.91636 -41.45328,-12.05763 -41.45328,-12.05763"
           style="fill:#0f1b41;fill-opacity:1;fill-rule:nonzero;stroke:none"
           id="path2040"
           inkscape:connector-curvature="0" /><path
           d="m 263.74508,268.85187 c 0,0 5.65461,8.37797 15.52939,14.84336 0,0 -0.395,-5.84172 -0.54052,-9.58374 l -14.98887,-5.25962 z"
           style="fill:#ffffff;fill-opacity:1;fill-rule:nonzero;stroke:none"
           id="path2060"
           inkscape:connector-curvature="0" /></g></g></g></svg>