<?xml version="1.0" encoding="utf-8"?>
<!-- Generator: Adobe Illustrator 24.0.1, SVG Export Plug-In . SVG Version: 6.00 Build 0)  -->
<svg version="1.1" id="Calque_1" xmlns="http://www.w3.org/2000/svg" xmlns:xlink="http://www.w3.org/1999/xlink" x="0px" y="0px"
	 width="237px" height="271.8px" viewBox="0 0 237 271.8" enable-background="new 0 0 237 271.8" xml:space="preserve">
<title>BourgEnBresse</title>
<path fill="#A91623" d="M118.5,261.8V10c0,0-46.5,43.5-108.5,51.5C10,61.5,6.5,203,118.5,261.8z"/>
<path fill="#C6C6C6" d="M118.5,261.8V10c0,0,46.5,43.5,108.5,51.5C227,61.5,230.5,203,118.5,261.8z"/>
<path fill="#FFFFFF" d="M118.5,10c0,0,46.5,43.5,108.5,51.5c0,0,3.5,141.5-108.5,200.2C6.5,203,10,61.5,10,61.5
	C72,53.5,118.5,10,118.5,10 M118.5,0c-2.5,0-5,1-6.8,2.7l0,0c-0.4,0.4-45,41.4-103,48.9c-4.9,0.7-8.6,4.8-8.7,9.7
	c0,1.5-0.8,37.5,12.7,81.3c7.9,25.8,19.2,49,33.5,69c17.6,24.8,40.8,45,67.7,59.1c2.9,1.5,6.4,1.5,9.3,0
	c26.9-14.1,50.1-34.4,67.7-59.1c14.3-19.9,25.5-43.1,33.5-69C237.8,98.8,237,62.8,237,61.2c-0.1-4.9-3.8-9-8.7-9.7
	C170.2,44.1,125.8,3.1,125.3,2.7C123.5,1,121.1,0,118.5,0z"/>
<path fill="#999999" d="M118.5,10c0,0,46.5,43.5,108.5,51.5c0,0,3.5,141.5-108.5,200.2C6.5,203,10,61.5,10,61.5
	C72,53.5,118.5,10,118.5,10 M118.5,3c-1.8,0-3.5,0.7-4.8,1.9l0,0c-9.4,8.3-19.5,15.7-30.2,22.1c-17,10.4-43.8,23.6-74.4,27.6
	c-3.4,0.4-6,3.3-6.1,6.8c0,1.5-0.8,37,12.6,80.3c7.8,25.5,19,48.4,33,68.1c17.3,24.4,40.2,44.3,66.7,58.2c2,1.1,4.5,1.1,6.5,0
	c26.5-13.9,49.3-33.8,66.6-58.2c14.1-19.7,25.2-42.6,33-68.1C234.8,98.3,234,62.8,234,61.3c-0.1-3.5-2.7-6.3-6.1-6.8
	C168.8,47,123.7,5.3,123.3,4.9C122,3.7,120.3,3,118.5,3z"/>
<path fill="#FFFFFF" d="M118.5,10c0,0,46.5,43.5,108.5,51.5c0,0,3.5,141.5-108.5,200.2C6.5,203,10,61.5,10,61.5
	C72,53.5,118.5,10,118.5,10 M118.5,7c-0.7,0-1.5,0.3-2,0.8c-9.5,8.4-19.8,15.9-30.7,22.5C68.4,41,41.1,54.5,9.6,58.5
	C8.2,58.7,7,59.9,7,61.4c0,1.5-0.7,36.3,12.4,79c7.7,25.2,18.6,47.7,32.5,67c17,23.9,39.3,43.4,65.2,57c0.9,0.5,1.9,0.5,2.8,0
	c25.9-13.6,48.3-33.1,65.2-57c13.8-19.3,24.8-41.8,32.5-66.9c13.1-42.7,12.4-77.6,12.4-79c0-1.5-1.2-2.7-2.6-2.9
	C167,50.7,121,8.2,120.6,7.8C120,7.3,119.3,7,118.5,7L118.5,7z"/>
<path fill="none" stroke="#FFFFFF" stroke-width="5" stroke-miterlimit="10" d="M134.9,96.1C94.8,102,74,111.5,74,111.5"/>
<path fill="none" stroke="#FFFFFF" stroke-width="5" stroke-miterlimit="10" d="M90.5,66c22.8-3.7,38.4-5.8,51.5-5.2"/>
<path fill="none" stroke="#FFFFFF" stroke-width="5" stroke-miterlimit="10" d="M75.5,167.5c19.2-3.8,32.6-7.2,44.6-12.5"/>
<path fill="#696969" d="M151.6,39.1c15.4,4.9,29.1,15.5,38.4,29c4.7,6.8,8.4,14.2,11,22.1c5.1,15.8,5.7,32.8,1.8,48.9
	c-2,8-5.1,15.7-9.3,22.8c-8.3,14.2-21,25.8-35.9,32.1c13.8-8.1,25.1-19.9,32.5-34c7.4-13.9,10.9-29.6,10.3-45.3
	c-0.5-15.8-5.2-31.1-13.6-44.4C178.3,56.8,166.1,46,151.6,39.1z"/>
<path fill="#696969" d="M215,108.5c-4.8-3.9-9.5-7.9-15.1-10.2c-5.5-2.4-11.4-3.9-17.4-4.3c-12-1.1-24.2-0.2-36.4,1.2
	s-24.3,3.3-36.4,5.5c-6,1.2-12,2.4-18,3.9s-11.9,3-17.8,4.9c5.5-2.9,11.2-5.3,17.1-7.3c5.9-2,11.8-3.8,17.8-5.3
	c12-3,24.3-5.3,36.6-6.7c12.3-1.4,25-2.1,37.5-0.1c1.6,0.3,3.1,0.6,4.7,0.9s3.1,0.8,4.6,1.3c3,1,6,2.3,8.7,3.8
	c1.4,0.8,2.7,1.7,4,2.6c1.2,0.9,2.5,1.9,3.6,3C210.9,103.8,213,106.1,215,108.5z"/>
<path fill="#696969" d="M90.5,64c10-2.7,20.1-4.8,30.4-6.2c5.2-0.8,10.4-1.2,15.6-1.4c5.3-0.2,10.6,0.2,15.8,1.1
	c5.2,1,10.3,2.5,15.2,4.6c2.4,1.1,4.8,2.2,7.1,3.5s4.5,2.5,6.8,3.7l3.4,1.8c1.1,0.6,2.3,1.1,3.4,1.7l3.4,1.7l3.5,1.6
	c2.3,1.1,4.7,2,7.1,2.9c1.2,0.4,2.4,0.8,3.6,1.2c1.2,0.4,2.5,0.6,3.8,0.8c-2.6,0.1-5.2-0.1-7.8-0.7c-2.6-0.5-5.1-1.2-7.6-1.9
	c-5-1.6-9.8-3.5-14.6-5.6c-4.8-2.2-9.2-4.5-13.9-6.3c-4.6-1.8-9.4-3.2-14.3-4.1c-9.8-1.8-19.9-1.4-30.1-0.8S100.8,63.4,90.5,64z"/>
<path fill="#696969" d="M75.5,165.5c13-3.6,26.1-7,38.3-12.1s23.5-12.2,34-20.3c2.7-2,5.3-4.1,8-6.1c2.7-2.1,5.4-4.1,8.2-6.1
	s5.7-3.8,8.7-5.5c3-1.8,6.1-3.3,9.4-4.5c3.3-1.3,6.9-2,10.5-2.1c1.9,0.1,3.7,0.4,5.4,1.1c1.7,0.7,3.3,1.7,4.6,3
	c1.3,1.3,2.4,2.7,3.2,4.3c0.8,1.5,1.5,3.1,2,4.8c1,3.3,1.7,6.6,2,10c-0.5-1.6-0.9-3.2-1.5-4.8c-0.5-1.6-1.1-3.1-1.8-4.6
	c-0.7-1.5-1.5-2.9-2.4-4.3c-0.9-1.3-2-2.5-3.2-3.5c-1.2-1-2.5-1.7-4-2.2c-1.5-0.4-3-0.6-4.5-0.5c-3.1,0.3-6.2,1.1-9.1,2.4
	c-5.9,2.8-11.6,6.3-16.8,10.3c-2.7,2-5.3,4-7.9,6.1c-2.6,2.1-5.3,4.2-8,6.3c-5.4,4.1-11.1,7.9-17,11.4c-5.9,3.4-12.2,6.3-18.7,8.6
	C102.3,161.6,88.9,163.9,75.5,165.5z"/>
<path fill="#3E3D42" d="M203,196.1l7.2-13.2h10.1C220.3,183,220.8,186.1,203,196.1z"/>
<path fill="#6B6B6B" d="M16.9,183.6c0,0,18.6,22.6,101.6,22.6s102.8-22.6,102.8-22.6s-15.5,30.5-34,48.6c0,0-22.7,11.3-67.8,11.3
	s-69.8-11.3-69.8-11.3S26.4,205.7,16.9,183.6z"/>
<path fill="none" stroke="#1D1D1B" stroke-width="3" stroke-miterlimit="10" d="M226.9,155.3l-1.2-22.1l-30.7-6.3l0,0l-0.3-0.1
	l-5.2,2.8l0.3,17.4v0.3l-22.5-0.2l-0.6-88v-0.3l6.8,0.2l2.8-7v-0.6l0,0V26c-6.3-1.7-12.7-3.1-19.1-4c-4.5-0.7-9.1-1.2-13.6-1.5
	c-6.1-0.5-12.1-0.7-18-0.7c-1.8,0-3.7,0-5.5,0.1v34.9c2.5,0.2,6.7,0.6,10.7,1l-0.1,92.2l-10.3,1.3v32.7l77.8,1.1l30.3,0.4
	L226.9,155.3z"/>
<path fill="none" stroke="#1D1D1B" stroke-width="3" stroke-miterlimit="10" d="M82.3,23.1c-13.1,1.9-21.3,4-21.3,4l-1,27.6l0,0v0.5
	l2.8,5.7c3-0.7,6-1.2,9-1.8v0.1L70,139.5c-0.7,8.2-6.6,9.8-11,9.8c-1.5,0-3.1-0.2-4.5-0.5v-0.2l1.3-20.6l-3.5-3.5l-0.5,0.1l0,0
	l-30.5,6.2l-1.4,19.3l-1.8,24.4c9.7,4.7,20,8,30.6,9.9c4,0.7,8,1,12,1c30.7,0,45.6-21.7,45.6-44.1c0-15.5,0.7-66.3,1-86
	c3.4-0.2,7.7-0.5,10.8-0.5V19.8c-5.9,0.2-11.6,0.5-16.9,1C94.2,21.4,87.8,22.2,82.3,23.1z"/>
<path fill="#3E3D42" d="M25.8,179.2l-8.5,3.7c0,0,5,5.3,16.5,11L25.8,179.2z"/>
<path fill="#999290" d="M60,55.2l2.8,5.7c3-0.7,6-1.2,9-1.8v0.1l2-6.7L60,54.7V55.2z"/>
<path fill="#999290" d="M106.4,47.3l0.3,7.9c3.4-0.2,8.1-0.5,11.4-0.5v-8.9L106.4,47.3z"/>
<path fill="#999290" d="M120.1,54.7c2.7,0.2,7.2,0.6,11.4,1.1l1.3-8.3l-12.7-1L120.1,54.7z"/>
<polygon fill="#999290" points="164.7,51 166.4,58.8 173.5,59 176.3,52 176.3,51.4 "/>
<polygon fill="#8E8F8B" points="54.5,148.6 55.8,128 52.3,124.5 51.8,124.6 50.5,148.8 "/>
<polygon fill="#999290" points="195,126.9 194.7,126.8 189.5,129.7 189.8,147.1 196.2,148.5 "/>
<path fill="#CD1719" d="M122.3,179.9V151l10.3-1.3l0.2-104l-10.7-1V21.7h3.5c6.1,0,12.1,0.2,17.8,0.7c4.6,0.4,9.1,0.9,13.4,1.5
	c5.9,0.9,11.7,2.1,17.4,3.6v21.8l-9.6-0.4l0.1,10.2l0.6,90l24.5,0.3l8.5,0.2l-1.2-20.1l26.6,5.4l2.6,46.5L122.3,179.9z"/>
<path fill="#FFFFFF" d="M125.6,23.7c6,0,12,0.2,17.7,0.7c4.5,0.4,9,0.9,13.3,1.5c5.3,0.8,10.5,1.8,15.7,3.2v18.2l-5.4-0.2l-4.2-0.2
	v4.2l0.1,8l0.6,88v3.9h3.9l22.5,0.2l6.3,0.1l4.3,0.1l-0.2-4.3l-0.9-15.4l22.6,4.6l1.1,19l1.3,23.8l-26-0.2l-73.8-1.1v-25.2l6.8-0.9
	l3.5-0.4v-3.5l0.2-100.4v-3.7l-3.6-0.3l-7.1-0.7V23.7H125.6 M125.6,19.7c-1.8,0-3.7,0-5.5,0.1v26.7l10.7,1l-0.2,100.4l-10.3,1.3
	v32.7l77.8,1.1l30.3,0.4l-1.6-28.1l-1.2-22.1l-30.7-6.3l1.2,20.6l-6.4-0.1l-22.5-0.2l-0.6-88l-0.1-8.1l9.6,0.4V26
	c-6.3-1.7-12.7-3.1-19.1-4c-4.5-0.7-9.1-1.2-13.6-1.5C137.5,20,131.5,19.7,125.6,19.7L125.6,19.7z"/>
<path fill="#CD1719" d="M60.7,183.4c-3.9,0-7.8-0.4-11.7-1c-10-1.8-19.7-4.9-28.9-9.1l2.9-40.8l26.5-5.3l-1.2,22.5l5.6,1.2
	c1.6,0.4,3.3,0.6,5,0.6c7.6,0,12.4-4.2,13-11.6v-0.1l1.7-80.2v-9.2l-11.6,2.1l0.8-23.6c2.9-0.7,10-2.2,19.7-3.6
	c6.2-0.9,12.5-1.7,18.6-2.2c5-0.4,9.9-0.8,14.8-0.9V44l-10.6,1.5v1.7c0,0.8-1.1,74.8-1.1,94c0,11.2-3.8,21.6-10.8,29.1
	C85.7,178.9,74.4,183.4,60.7,183.4L60.7,183.4z"/>
<path fill="#FFFFFF" d="M114,24v18.3l-7.2,1l-3.4,0.5l-0.1,3.4c0,0.8-1.1,74.8-1.1,94c0,20-12.8,40.1-41.5,40.1
	c-3.8,0-7.6-0.4-11.3-1c-9.3-1.6-18.4-4.5-27.1-8.4l1.6-21.6l1.1-16.3l22.5-4.5l-1,18.2l-0.2,3.4l3.3,0.7l3.9,0.8
	c1.8,0.4,3.6,0.6,5.4,0.6c8.7,0,14.3-5,14.9-13.5v-0.2l1.7-80.2v-0.1v-6.7v-4.8L71,48.6l-6.8,1.2l0.7-19.6c3.5-0.8,9.8-2,18.1-3.3
	c6.2-0.9,12.4-1.7,18.5-2.2C105.7,24.4,109.9,24.2,114,24 M118,19.8c-5.9,0.2-11.6,0.5-16.9,1c-6.9,0.6-13.2,1.4-18.7,2.2
	c-13.1,1.9-21.4,4-21.4,4l-1,27.6l11.7-2.1v6.7L70,139.5c-0.7,8.2-6.6,9.8-11,9.8c-1.5,0-3.1-0.2-4.5-0.5l-4-0.8l1.2-23.3l-30.5,6.2
	l-1.4,19.3l-1.7,24.4c9.7,4.7,20,8,30.6,9.9c4,0.7,8,1,12,1c30.7,0,45.6-21.7,45.6-44.1c0-19.4,1.1-93.9,1.1-93.9l10.6-1.5L118,19.8
	L118,19.8z"/>
<path fill="#454545" d="M42.2,214.7l28.8,5.2l0.3,3.9C71.3,223.8,53.3,221.1,42.2,214.7z"/>
<path fill="#454545" d="M196.3,214.7l-28.8,5.1l-0.3,3.9C167.2,223.8,185.2,221.1,196.3,214.7z"/>
<path fill="#454545" d="M80.2,214.7c2.1,0.3,4.2,0.5,6.4,0.7c1,0.1,1.9,0.2,2.8,0.5c0.6,0.2,1.2,0.5,1.7,0.9c0.5,0.5,0.9,1,1.2,1.7
	c0.3,0.7,0.5,1.5,0.5,2.2c0,0.8-0.2,1.6-0.6,2.4c-0.4,0.7-0.9,1.2-1.6,1.5c0.9,0.4,1.7,1,2.2,1.9c0.5,0.9,0.8,1.9,0.8,2.9
	c0,0.8-0.2,1.7-0.5,2.4c-0.3,0.7-0.8,1.3-1.4,1.8c-0.6,0.4-1.4,0.7-2.2,0.7c-0.5,0-1.8-0.1-3.9-0.3c-1.8-0.2-3.6-0.4-5.4-0.6
	L80.2,214.7z M83.4,218.2v4.3l2.1,0.2c0.8,0.1,1.6,0.2,2.3,0.2c0.5,0,1-0.2,1.3-0.5c0.3-0.4,0.5-0.9,0.5-1.4c0-0.5-0.1-1-0.4-1.4
	c-0.3-0.4-0.7-0.7-1.2-0.8c-0.3-0.1-1.2-0.2-2.8-0.4L83.4,218.2z M83.4,225.6v5l3,0.3c0.7,0.1,1.5,0.1,2.2,0.1
	c0.5,0,0.9-0.3,1.2-0.6c0.3-0.4,0.5-1,0.4-1.5c0-0.5-0.1-1-0.3-1.4c-0.2-0.4-0.6-0.7-1-0.9c-0.9-0.3-1.9-0.5-2.8-0.6L83.4,225.6z"/>
<path fill="#454545" d="M95.6,225.7c0-1.6,0.2-3.2,0.7-4.7c0.3-0.9,0.9-1.7,1.5-2.4c0.6-0.7,1.3-1.2,2.1-1.5
	c1.1-0.4,2.3-0.6,3.4-0.5c2.2,0,4.3,1.1,5.6,2.8c1.5,2.1,2.3,4.6,2.1,7.2c0,3-0.7,5.3-2.1,7c-1.4,1.6-3.5,2.5-5.6,2.3
	c-2.2-0.1-4.3-1.1-5.7-2.9C96.2,230.7,95.4,228.2,95.6,225.7z M98.9,225.8c-0.1,1.7,0.3,3.4,1.2,4.9c0.7,1.1,1.9,1.8,3.2,1.8
	c1.2,0.1,2.4-0.5,3.2-1.5c0.9-1.4,1.4-3.1,1.2-4.8c0.1-1.7-0.3-3.4-1.2-4.8c-0.7-1-1.9-1.7-3.2-1.7c-1.2-0.1-2.5,0.4-3.2,1.4
	C99.2,222.5,98.8,224.1,98.9,225.8z"/>
<path fill="#454545" d="M113.5,217.1l3.2,0.1v10.1c0,1,0,2.1,0.1,3.1c0.1,0.7,0.5,1.4,1,1.8c0.6,0.5,1.4,0.7,2.1,0.7
	c0.7,0.1,1.5-0.2,2.1-0.7c0.5-0.4,0.8-1,0.8-1.6c0.1-1,0.2-2.1,0.1-3.2v-10.3h3.2v9.8c0,1.6,0,3.2-0.3,4.7c-0.2,0.8-0.5,1.7-1,2.4
	c-0.5,0.7-1.1,1.2-1.9,1.5c-1,0.4-2,0.6-3.1,0.6c-1.2,0.1-2.4-0.2-3.5-0.6c-0.7-0.4-1.4-0.9-1.9-1.6c-0.4-0.6-0.7-1.3-0.9-2.1
	c-0.2-1.6-0.4-3.1-0.3-4.7L113.5,217.1z"/>
<path fill="#454545" d="M129.7,235.7v-18.6c2.3-0.1,4.5-0.2,6.8-0.3c1.2-0.1,2.5,0,3.7,0.3c0.8,0.3,1.5,0.9,1.9,1.7
	c1,2,0.9,4.5-0.4,6.4c-0.8,1-1.9,1.7-3.2,1.9c0.6,0.4,1.2,0.9,1.7,1.5c0.7,0.9,1.3,1.9,1.8,2.9l1.9,3.5l-3.9,0.3l-2.3-3.9
	c-0.5-0.9-1.1-1.8-1.7-2.6c-0.3-0.3-0.6-0.6-1-0.7c-0.5-0.1-1.1-0.2-1.6-0.1h-0.6v7.8L129.7,235.7z M132.9,224.8l2.4-0.1
	c1,0,2-0.1,2.9-0.4c0.4-0.2,0.7-0.5,0.9-0.8c0.2-0.4,0.3-0.9,0.3-1.4c0-0.5-0.1-1.1-0.4-1.5c-0.3-0.4-0.7-0.6-1.2-0.7
	c-0.3,0-1,0-2.4,0.1l-2.5,0.1L132.9,224.8z"/>
<path fill="#454545" d="M153.2,227.3c0-1,0-2.1,0-3.1c2.3-0.2,4.6-0.5,6.9-0.8v7.4c-0.8,1-1.8,1.8-2.9,2.4c-1.2,0.7-2.5,1.1-3.9,1.3
	c-1.5,0.2-3-0.1-4.4-0.8c-1.3-0.7-2.3-1.9-2.8-3.3c-0.6-1.5-1-3.2-0.9-4.9c0-1.8,0.3-3.6,1-5.2c0.6-1.5,1.7-2.8,3.1-3.7
	c1.1-0.8,2.4-1.2,3.8-1.3c1.6-0.3,3.3,0,4.6,0.9c1.2,0.9,1.9,2.3,2.1,3.8l-3.1,1.1c-0.2-0.8-0.6-1.5-1.3-2c-0.7-0.5-1.5-0.7-2.3-0.5
	c-1.3,0.1-2.6,0.8-3.4,1.9c-0.9,1.4-1.3,3.1-1.2,4.8c-0.1,1.7,0.3,3.4,1.3,4.9c0.8,1,2,1.5,3.3,1.3c0.7-0.1,1.4-0.3,2-0.7
	c0.6-0.4,1.2-0.8,1.7-1.3v-2.4L153.2,227.3z"/>
<path fill="#FFFFFF" d="M42.2,212.7l28.8,5.2l0.3,3.9C71.3,221.8,53.3,219.1,42.2,212.7z"/>
<path fill="#FFFFFF" d="M196.3,212.7l-28.8,5.1l-0.3,3.9C167.2,221.8,185.2,219.1,196.3,212.7z"/>
<path fill="#FFFFFF" d="M80.2,212.7c2.1,0.3,4.2,0.5,6.4,0.7c1,0.1,1.9,0.2,2.8,0.5c0.6,0.2,1.2,0.5,1.7,0.9c0.5,0.5,0.9,1,1.2,1.7
	c0.3,0.7,0.5,1.5,0.5,2.2c0,0.8-0.2,1.6-0.6,2.4c-0.4,0.7-0.9,1.2-1.6,1.5c0.9,0.4,1.7,1,2.2,1.9c0.5,0.9,0.8,1.9,0.8,2.9
	c0,0.8-0.2,1.7-0.5,2.4c-0.3,0.7-0.8,1.3-1.4,1.8c-0.6,0.4-1.4,0.7-2.2,0.7c-0.5,0-1.8-0.1-3.9-0.3c-1.8-0.2-3.6-0.4-5.4-0.6
	L80.2,212.7z M83.4,216.2v4.3l2.1,0.2c0.8,0.1,1.6,0.2,2.3,0.2c0.5,0,1-0.2,1.3-0.5c0.3-0.4,0.5-0.9,0.5-1.4c0-0.5-0.1-1-0.4-1.4
	c-0.3-0.4-0.7-0.7-1.2-0.8c-0.3-0.1-1.2-0.2-2.8-0.4L83.4,216.2z M83.4,223.6v5l3,0.3c0.7,0.1,1.5,0.1,2.2,0.1
	c0.5,0,0.9-0.3,1.2-0.6c0.3-0.4,0.5-1,0.4-1.5c0-0.5-0.1-1-0.3-1.4c-0.2-0.4-0.6-0.7-1-0.9c-0.9-0.3-1.9-0.5-2.8-0.6L83.4,223.6z"/>
<path fill="#FFFFFF" d="M95.6,223.7c0-1.6,0.2-3.2,0.7-4.7c0.3-0.9,0.9-1.7,1.5-2.4c0.6-0.7,1.3-1.2,2.1-1.5
	c1.1-0.4,2.3-0.6,3.4-0.5c2.2,0,4.3,1.1,5.6,2.8c1.5,2.1,2.3,4.6,2.1,7.2c0,3-0.7,5.3-2.1,7c-1.4,1.6-3.5,2.5-5.6,2.3
	c-2.2-0.1-4.3-1.1-5.7-2.9C96.2,228.7,95.4,226.2,95.6,223.7z M98.9,223.8c-0.1,1.7,0.3,3.4,1.2,4.9c0.7,1.1,1.9,1.8,3.2,1.8
	c1.2,0.1,2.4-0.5,3.2-1.5c0.9-1.4,1.4-3.1,1.2-4.8c0.1-1.7-0.3-3.4-1.2-4.8c-0.7-1-1.9-1.7-3.2-1.7c-1.2-0.1-2.5,0.4-3.2,1.4
	C99.2,220.5,98.8,222.1,98.9,223.8z"/>
<path fill="#FFFFFF" d="M113.5,215.1l3.2,0.1v10.1c0,1,0,2.1,0.1,3.1c0.1,0.7,0.5,1.4,1,1.8c0.6,0.5,1.4,0.7,2.1,0.7
	c0.7,0.1,1.5-0.2,2.1-0.7c0.5-0.4,0.8-1,0.8-1.6c0.1-1,0.2-2.1,0.1-3.2v-10.3h3.2v9.8c0,1.6,0,3.2-0.3,4.7c-0.2,0.8-0.5,1.7-1,2.4
	c-0.5,0.7-1.1,1.2-1.9,1.5c-1,0.4-2,0.6-3.1,0.6c-1.2,0.1-2.4-0.2-3.5-0.6c-0.7-0.4-1.4-0.9-1.9-1.6c-0.4-0.6-0.7-1.3-0.9-2.1
	c-0.2-1.6-0.4-3.1-0.3-4.7L113.5,215.1z"/>
<path fill="#FFFFFF" d="M129.7,233.7v-18.6c2.3-0.1,4.5-0.2,6.8-0.3c1.2-0.1,2.5,0,3.7,0.3c0.8,0.3,1.5,0.9,1.9,1.7
	c1,2,0.9,4.5-0.4,6.4c-0.8,1-1.9,1.7-3.2,1.9c0.6,0.4,1.2,0.9,1.7,1.5c0.7,0.9,1.3,1.9,1.8,2.9l1.9,3.5l-3.9,0.3l-2.3-3.9
	c-0.5-0.9-1.1-1.8-1.7-2.6c-0.3-0.3-0.6-0.6-1-0.7c-0.5-0.1-1.1-0.2-1.6-0.1h-0.6v7.8L129.7,233.7z M132.9,222.8l2.4-0.1
	c1,0,2-0.1,2.9-0.4c0.4-0.2,0.7-0.5,0.9-0.8c0.2-0.4,0.3-0.9,0.3-1.4c0-0.5-0.1-1.1-0.4-1.5c-0.3-0.4-0.7-0.6-1.2-0.7
	c-0.3,0-1,0-2.4,0.1l-2.5,0.1L132.9,222.8z"/>
<path fill="#FFFFFF" d="M153.2,225.3c0-1,0-2.1,0-3.1c2.3-0.2,4.6-0.5,6.9-0.8v7.4c-0.8,1-1.8,1.8-2.9,2.4c-1.2,0.7-2.5,1.1-3.9,1.3
	c-1.5,0.2-3-0.1-4.4-0.8c-1.3-0.7-2.3-1.9-2.8-3.3c-0.6-1.5-1-3.2-0.9-4.9c0-1.8,0.3-3.6,1-5.2c0.6-1.5,1.7-2.8,3.1-3.7
	c1.1-0.8,2.4-1.2,3.8-1.3c1.6-0.3,3.3,0,4.6,0.9c1.2,0.9,1.9,2.3,2.1,3.8l-3.1,1.1c-0.2-0.8-0.6-1.5-1.3-2c-0.7-0.5-1.5-0.7-2.3-0.5
	c-1.3,0.1-2.6,0.8-3.4,1.9c-0.9,1.4-1.3,3.1-1.2,4.8c-0.1,1.7,0.3,3.4,1.3,4.9c0.8,1,2,1.5,3.3,1.3c0.7-0.1,1.4-0.3,2-0.7
	c0.6-0.4,1.2-0.8,1.7-1.3v-2.4L153.2,225.3z"/>
</svg>
