<?xml version="1.0" encoding="UTF-8" standalone="no"?>
<svg
   xmlns:dc="http://purl.org/dc/elements/1.1/"
   xmlns:cc="http://creativecommons.org/ns#"
   xmlns:rdf="http://www.w3.org/1999/02/22-rdf-syntax-ns#"
   xmlns:svg="http://www.w3.org/2000/svg"
   xmlns="http://www.w3.org/2000/svg"
   viewBox="0 0 440 599.99997"
   height="600"
   width="440"
   xml:space="preserve"
   version="1.1"
   id="svg2"><metadata
     id="metadata8"><rdf:RDF><cc:Work
         rdf:about=""><dc:format>image/svg+xml</dc:format><dc:type
           rdf:resource="http://purl.org/dc/dcmitype/StillImage" /><dc:title></dc:title></cc:Work></rdf:RDF></metadata><defs
     id="defs6" /><g
     transform="matrix(1.25,0,0,-1.25,0,599.99995)"
     id="g10"><g
       transform="matrix(0.98837018,0,0,0.98837018,-118.99675,-204.14988)"
       id="g4296"><path
         id="path14"
         style="fill:#df001b;fill-opacity:1;fill-rule:nonzero;stroke:none"
         d="m 120.418,647.038 0,-256.729 c 0,0 -5.859,-121.854 177.873,-183.757 l 0,485.648" /><path
         id="path16"
         style="fill:#b60f1d;fill-opacity:1;fill-rule:nonzero;stroke:none"
         d="m 476.157,390.309 0,256.729 -177.866,45.162 0,-485.648 c 183.729,61.903 177.866,183.757 177.866,183.757" /><g
         id="g4251"><path
           d="m 425.427,581.159 0,-30.739 -12.228,30.739 -13.553,0 0,-92.6 c 4.456,-1.333 8.954,-2.761 13.363,-4.285 l 0,71.7 12.418,-29.895 0,-46.274 c 4.361,-1.689 8.812,-3.479 13.119,-5.352 l 0,106.706"
           style="fill:#ffffff;fill-opacity:1;fill-rule:nonzero;stroke:none"
           id="path18" /><path
           d="m 336.648,513.039 c -5.308,0.552 -10.634,0.997 -15.966,1.309 l -0.003,66.811 -12.999,0 0,-78.143 c 10.545,-0.216 21.017,-0.916 31.511,-2.096 l 2.856,11.503 c -1.799,0.222 -3.599,0.425 -5.399,0.616"
           style="fill:#ffffff;fill-opacity:1;fill-rule:nonzero;stroke:none"
           id="path20" /><path
           d="m 196.851,563.478 0,6.171 c 0,11.675 -12.516,11.566 -12.516,11.566 l -13.751,0 c 0,0 -12.55,0.109 -12.55,-11.566 l 0,-85.731 c -0.02,-11.605 12.509,-6.272 12.535,-6.342 4.447,1.816 8.923,3.536 13.424,5.155 -0.023,0.07 12.837,4.317 12.858,15.922 l 0,9.605 c -4.44,-1.409 -8.948,-2.907 -13.341,-4.494 l 0,-9.402 c -4.064,-1.48 -8.265,-3.035 -12.291,-4.673 l 0,79.813 12.291,0 0,-10.246"
           style="fill:#ffffff;fill-opacity:1;fill-rule:nonzero;stroke:none"
           id="path22" /><path
           d="m 232.453,581.159 0,-34.092 -12.503,0 0,34.092 -13.446,0 0,-91.222 c 4.472,1.27 8.938,2.451 13.446,3.536 l 0,42.237 12.503,0 0,-39.449 c 4.53,0.914 8.971,1.739 13.532,2.468 l 0,82.43"
           style="fill:#ffffff;fill-opacity:1;fill-rule:nonzero;stroke:none"
           id="path24" /><path
           d="m 283.105,547.067 -12.608,0 0,22.436 12.608,0 0,-22.436 z m 0.73,34.092 -13.754,0 c 0,0 -13.18,0.108 -13.18,-11.574 l 0,-69.332 c 4.578,0.584 8.999,1.085 13.596,1.492 l 0,33.964 12.608,0 0,-33.069 c 4.593,0.235 9.009,0.375 13.618,0.426 l 0,66.519 c 0,11.682 -12.888,11.574 -12.888,11.574"
           style="fill:#ffffff;fill-opacity:1;fill-rule:nonzero;stroke:none"
           id="path26" /><path
           d="m 375.883,506.615 c -4.181,0.945 -8.387,1.803 -12.596,2.577 l 0,60.311 12.627,0 -0.031,-62.888 z m 2.219,-12.361 c 7.329,-1.403 11.265,4.399 11.256,8.78 l 0,66.552 c 0,11.681 -12.789,11.573 -12.789,11.573 l -13.754,0 c 0,0 -12.98,0.108 -12.98,-11.573 l 0,-58.413 c 0.006,-11.605 12.798,-13.643 12.782,-13.719 0.02,0 0.041,-0.007 0.051,-0.007 5.165,-0.945 10.307,-2.013 15.434,-3.193"
           style="fill:#ffffff;fill-opacity:1;fill-rule:nonzero;stroke:none"
           id="path28" /></g><g
         id="g4265"><path
           d="m 288.619,272.538 -3.66,0 0,9.021 3.66,0 0,-9.021 z m 0.196,12.455 -4.053,0 c 0,0 -3.758,0.033 -3.758,-3.402 l 0,-9.073 c 0,-3.441 3.758,-3.408 3.758,-3.408 l 3.857,0 0,-4.558 -7.615,0 0.68,-3.442 7.131,0 c 0,0 3.756,-0.025 3.756,3.416 l 0,17.065 c 0,3.435 -3.756,3.402 -3.756,3.402"
           style="fill:#ffffff;fill-opacity:1;fill-rule:nonzero;stroke:none"
           id="path30" /><path
           d="m 270.631,284.993 -0.61,-3.434 2.251,0 0,-20.449 3.914,0 0,23.883"
           style="fill:#ffffff;fill-opacity:1;fill-rule:nonzero;stroke:none"
           id="path32" /><path
           d="m 302.789,275.624 -3.12,0 0,5.936 6.704,0 -0.505,3.433 -10.154,0 0,-9.389 c 0,-3.435 3.755,-3.41 3.755,-3.41 l 3.107,0 0,-7.642 -6.888,0 0.679,-3.442 6.393,0 c 0,0 3.613,-0.025 3.613,3.416 l 0,7.694 c 0,3.435 -3.584,3.404 -3.584,3.404"
           style="fill:#ffffff;fill-opacity:1;fill-rule:nonzero;stroke:none"
           id="path34" /><path
           d="m 316.892,275.624 -3.126,0 0,5.936 6.7,0 -0.502,3.433 -10.153,0 0,-9.389 c 0,-3.435 3.768,-3.41 3.768,-3.41 l 3.101,0 0,-7.642 -6.892,0 0.683,-3.442 6.396,0 c 0,0 3.599,-0.025 3.599,3.416 l 0,7.694 c 0,3.435 -3.574,3.404 -3.574,3.404"
           style="fill:#ffffff;fill-opacity:1;fill-rule:nonzero;stroke:none"
           id="path36" /></g><g
         id="g4259"><path
           d="m 341.693,636.524 0,-21.616 -10.7,21.616 -4.578,0 0,-44.204 4.248,0 0,36.707 11.03,-22.131 0,-14.576 4.241,0 0,44.204"
           style="fill:#ffffff;fill-opacity:1;fill-rule:nonzero;stroke:none"
           id="path38" /><path
           d="m 275.699,592.32 0,44.204 4.127,0 0,-40.731 11.456,0.05 -0.578,-3.523"
           style="fill:#ffffff;fill-opacity:1;fill-rule:nonzero;stroke:none"
           id="path40" /><path
           d="m 250.645,592.32 0,44.204 15.128,0 0.572,-3.498 -11.459,0 0,-16.404 8.971,0 -0.732,-3.505 -8.239,0 0,-17.204 11.459,0 -0.575,-3.593"
           style="fill:#ffffff;fill-opacity:1;fill-rule:nonzero;stroke:none"
           id="path42" /><path
           d="m 313.921,636.524 -10.652,0 c -1.083,0 -3.622,-0.597 -3.622,-4.062 l 0,-40.142 4.237,0 0,20.784 9.418,0 0,-20.784 4.244,0 0,40.142 c 0,3.465 -2.546,4.062 -3.625,4.062 m -0.619,-19.884 -9.418,0 0,16.386 9.418,0"
           style="fill:#ffffff;fill-opacity:1;fill-rule:nonzero;stroke:none"
           id="path44" /></g><g
         id="g4282"><path
           d="m 453.493,445.3 0,-55.529 0.016,-0.451 c 0.012,-0.725 0.187,-26.493 -17.918,-57.913 -11.174,-19.406 -27.01,-37.246 -47.063,-53.035 -24.13,-19.008 -54.476,-35.088 -90.237,-47.824 -35.768,12.736 -66.113,28.816 -90.244,47.824 -20.052,15.789 -35.882,33.629 -47.062,53.035 -17.909,31.09 -17.929,56.635 -17.909,58.008 l 0.016,0.483 -0.003,0.474 0,54.928 -10.075,0 0,-55.232 -0.013,-0.305 c -0.013,-0.279 -0.822,-28.543 19.255,-63.389 11.814,-20.519 28.495,-39.33 49.556,-55.918 25.762,-20.291 58.213,-37.304 96.479,-50.592 38.265,13.288 70.71,30.301 96.472,50.592 21.064,16.588 37.736,35.399 49.56,55.918 20.077,34.846 19.264,63.11 19.258,63.332 l -0.016,0.299 0,55.295"
           style="fill:#ffffff;fill-opacity:1;fill-rule:nonzero;stroke:none"
           id="path46" /><path
           d="m 143.089,629.408 155.202,39.398 155.202,-39.398 0,-133.878 10.073,0 0,141.718 -165.275,41.958 -165.277,-41.958 0,-141.718 10.075,0"
           style="fill:#ffffff;fill-opacity:1;fill-rule:nonzero;stroke:none"
           id="path48" /><path
           d="m 453.493,484.064 10.0719,0 0,4.32383 -10.0719,0 0,-4.32383 z"
           style="fill:#ffffff;fill-opacity:1;fill-rule:nonzero;stroke:none"
           id="path50" /><path
           d="m 453.493,476.154 10.0719,0 0,4.33008 -10.0719,0 0,-4.33008 z"
           style="fill:#ffffff;fill-opacity:1;fill-rule:nonzero;stroke:none"
           id="path52" /><path
           d="m 453.493,460.353 10.0719,0 0,4.32305 -10.0719,0 0,-4.32305 z"
           style="fill:#ffffff;fill-opacity:1;fill-rule:nonzero;stroke:none"
           id="path54" /><path
           d="m 453.493,452.449 10.0719,0 0,4.32305 -10.0719,0 0,-4.32305 z"
           style="fill:#ffffff;fill-opacity:1;fill-rule:nonzero;stroke:none"
           id="path56" /><path
           d="m 453.493,468.251 10.0719,0 0,4.32891 -10.0719,0 0,-4.32891 z"
           style="fill:#ffffff;fill-opacity:1;fill-rule:nonzero;stroke:none"
           id="path58" /><path
           d="m 133.014,452.449 10.075,0 0,4.32305 -10.075,0 0,-4.32305 z"
           style="fill:#ffffff;fill-opacity:1;fill-rule:nonzero;stroke:none"
           id="path60" /><path
           d="m 133.014,460.353 10.075,0 0,4.32305 -10.075,0 0,-4.32305 z"
           style="fill:#ffffff;fill-opacity:1;fill-rule:nonzero;stroke:none"
           id="path62" /><path
           d="m 133.014,484.064 10.075,0 0,4.32383 -10.075,0 0,-4.32383 z"
           style="fill:#ffffff;fill-opacity:1;fill-rule:nonzero;stroke:none"
           id="path64" /><path
           d="m 133.014,468.25 10.075,0 0,4.32891 -10.075,0 0,-4.32891 z"
           style="fill:#ffffff;fill-opacity:1;fill-rule:nonzero;stroke:none"
           id="path66" /><path
           d="m 133.014,476.154 10.075,0 0,4.33008 -10.075,0 0,-4.33008 z"
           style="fill:#ffffff;fill-opacity:1;fill-rule:nonzero;stroke:none"
           id="path68" /></g><g
         id="g4271"><path
           d="m 385.973,473.437 c -0.814,0.533 -1.761,0.807 -2.735,0.807 -1.762,0 -3.377,-0.903 -4.321,-2.413 -1.513,-2.432 -0.805,-5.651 1.584,-7.18 12.763,-8.247 18.757,-18.082 17.811,-29.242 -0.692,-8.158 -4.901,-15.199 -12.519,-20.969 2.634,4.088 4.171,8.59 4.583,13.428 1.007,11.82 -4.996,22.41 -17.359,30.625 -0.839,0.551 -1.807,0.85 -2.791,0.85 -1.739,0 -3.346,-0.883 -4.294,-2.361 -1.54,-2.4 -0.873,-5.632 1.485,-7.199 9.136,-6.077 13.429,-13.149 12.763,-21.014 -0.478,-5.651 -3.384,-10.596 -8.65,-14.741 0.737,1.942 1.195,3.967 1.373,6.063 0.529,6.271 -1.255,15.439 -12.796,23.471 -0.852,0.589 -1.848,0.906 -2.877,0.906 -1.694,0 -3.275,-0.85 -4.234,-2.266 -0.768,-1.148 -1.053,-2.533 -0.807,-3.898 0.259,-1.366 1.016,-2.559 2.147,-3.338 5.987,-4.166 8.799,-8.869 8.367,-13.981 -0.736,-8.666 -10.374,-15.656 -24.782,-19.033 -5.85,16.246 -21.403,27.883 -39.636,27.883 -18.227,0 -33.784,-11.643 -39.627,-27.883 -14.406,3.377 -24.042,10.367 -24.782,19.033 -0.435,5.112 2.384,9.815 8.37,13.981 1.127,0.779 1.889,1.972 2.14,3.338 0.253,1.365 -0.038,2.75 -0.807,3.898 -0.949,1.416 -2.533,2.266 -4.227,2.266 -1.035,0 -2.032,-0.317 -2.883,-0.906 -11.541,-8.032 -13.323,-17.2 -12.792,-23.471 0.184,-2.096 0.635,-4.121 1.374,-6.063 -5.265,4.145 -8.174,9.09 -8.653,14.741 -0.669,7.865 3.622,14.937 12.764,21.014 2.361,1.567 3.029,4.799 1.486,7.199 -0.946,1.478 -2.552,2.361 -4.293,2.361 -0.989,0 -1.957,-0.299 -2.789,-0.85 -12.361,-8.215 -18.366,-18.805 -17.361,-30.625 0.414,-4.838 1.95,-9.34 4.584,-13.428 -7.625,5.77 -11.827,12.811 -12.519,20.969 -0.949,11.16 5.044,20.995 17.814,29.242 2.387,1.529 3.092,4.748 1.578,7.18 -0.943,1.51 -2.562,2.413 -4.327,2.413 -0.965,0 -1.914,-0.274 -2.733,-0.807 -16.024,-10.342 -23.81,-23.807 -22.534,-38.922 0.73,-8.559 4.212,-16.227 10.361,-22.811 5.6,-6 13.307,-10.957 22.912,-14.728 9.904,-3.899 21.78,-6.457 34.878,-7.581 -0.021,-0.552 -0.039,-1.105 -0.039,-1.664 0,-9.921 3.455,-19.05 9.22,-26.257 -1.693,-1.524 -3.379,-3.567 -4.371,-6.209 -1.419,-3.77 -1.115,-7.916 0.873,-11.985 1.51,-3.074 3.427,-5.131 5.257,-6.711 0.424,-3.193 1.639,-9.021 5.046,-15.174 3.958,-7.179 11.615,-15.978 26.08,-19.972 14.474,3.994 22.129,12.793 26.095,19.972 3.406,6.153 4.618,11.981 5.043,15.174 1.825,1.58 3.747,3.637 5.257,6.711 1.991,4.069 2.286,8.215 0.871,11.985 -0.994,2.642 -2.68,4.685 -4.365,6.209 5.762,7.207 9.215,16.336 9.215,26.257 0,0.559 -0.016,1.112 -0.038,1.664 13.1,1.124 24.967,3.682 34.882,7.581 9.599,3.771 17.306,8.728 22.901,14.728 6.152,6.584 9.632,14.252 10.362,22.811 1.288,15.115 -6.504,28.58 -22.535,38.922"
           style="fill:#ffffff;fill-opacity:1;fill-rule:nonzero;stroke:none"
           id="path70" /><path
           d="m 281.255,417.011 c -7.184,-4.184 -12.682,-10.932 -15.246,-18.994 4.253,4.203 11.078,7.447 19.369,9.117 -0.12,4.176 -1.508,7.496 -4.123,9.877"
           style="fill:#b60f1d;fill-opacity:1;fill-rule:nonzero;stroke:none"
           id="path72" /><path
           d="m 311.197,407.134 c 8.291,-1.67 15.122,-4.922 19.369,-9.123 -2.557,8.062 -8.062,14.816 -15.242,19 -2.616,-2.381 -4.006,-5.701 -4.127,-9.877"
           style="fill:#df001b;fill-opacity:1;fill-rule:nonzero;stroke:none"
           id="path74" /><path
           d="m 325.009,366.909 c 4.485,5.744 7.158,12.969 7.158,20.816 l -0.004,0.006 c 0,6.477 -8.675,12.203 -20.712,14.678 0.87,-7.117 3.826,-12.912 6.93,-18.994 2.619,-5.123 5.298,-10.387 6.628,-16.506"
           style="fill:#df001b;fill-opacity:1;fill-rule:nonzero;stroke:none"
           id="path76" /><path
           d="m 285.127,402.409 c -12.043,-2.475 -20.712,-8.201 -20.712,-14.678 0,-7.853 2.67,-15.078 7.149,-20.822 1.339,6.119 4.018,11.383 6.634,16.506 3.108,6.082 6.063,11.877 6.929,18.994"
           style="fill:#b60f1d;fill-opacity:1;fill-rule:nonzero;stroke:none"
           id="path78" /><path
           d="m 306.566,407.876 c 0.238,4.533 1.691,8.316 4.343,11.293 -3.216,1.289 -6.675,2.109 -10.284,2.355 l 0,-13.191 c 2.027,-0.07 4.02,-0.217 5.941,-0.457"
           style="fill:#df001b;fill-opacity:1;fill-rule:nonzero;stroke:none"
           id="path80" /><path
           d="m 295.961,421.525 c -3.618,-0.246 -7.072,-1.066 -10.291,-2.355 2.653,-2.977 4.107,-6.761 4.343,-11.293 1.927,0.239 3.91,0.391 5.948,0.457"
           style="fill:#b60f1d;fill-opacity:1;fill-rule:nonzero;stroke:none"
           id="path82" /><path
           d="m 289.902,403.19 c -0.753,-8.576 -4.204,-15.331 -7.553,-21.895 -3.072,-6.018 -5.993,-11.75 -6.779,-18.691 -0.107,-0.959 -0.175,-1.934 -0.2,-2.945 l -0.03,-1.512 -1.402,-0.584 c -0.045,-0.018 -4.108,-1.802 -5.365,-5.136 -0.635,-1.693 -0.45,-3.53 0.568,-5.598 1.388,-2.832 3.293,-4.259 5.927,-6.229 3.945,-2.953 8.859,-6.621 14.018,-16.562 0,0 -5.62,4.957 -11.606,5.343 -0.053,0 -0.101,0.008 -0.151,0.008 0.519,-1.314 1.151,-2.699 1.928,-4.094 3.734,-6.763 9.336,-11.638 16.704,-14.597 l 0,92.974 c -2.07,-0.07 -4.102,-0.234 -6.059,-0.482"
           style="fill:#b60f1d;fill-opacity:1;fill-rule:nonzero;stroke:none"
           id="path84" /><path
           d="m 328.002,352.427 c -1.251,3.334 -5.32,5.117 -5.358,5.137 l -1.4,0.584 -0.032,1.511 c -0.025,1.01 -0.092,1.987 -0.203,2.946 -0.784,6.939 -3.707,12.672 -6.783,18.689 -3.346,6.565 -6.793,13.321 -7.545,21.897 -1.965,0.248 -3.991,0.412 -6.057,0.482 l 0,-92.975 c 7.364,2.959 12.964,7.834 16.7,14.596 0.775,1.397 1.406,2.781 1.93,4.096 -0.058,0 -0.102,-0.008 -0.152,-0.008 -5.994,-0.387 -11.612,-5.344 -11.612,-5.344 5.161,9.942 10.075,13.61 14.024,16.563 2.628,1.969 4.533,3.396 5.923,6.228 1.016,2.069 1.2,3.905 0.565,5.598"
           style="fill:#df001b;fill-opacity:1;fill-rule:nonzero;stroke:none"
           id="path86" /></g></g></g></svg>