<?xml version="1.0" encoding="utf-8"?>
<!-- Generator: Adobe Illustrator 24.0.1, SVG Export Plug-In . SVG Version: 6.00 Build 0)  -->
<svg version="1.1" id="Calque_1" xmlns="http://www.w3.org/2000/svg" xmlns:xlink="http://www.w3.org/1999/xlink" x="0px" y="0px"
	 viewBox="0 0 283.46 283.46" style="enable-background:new 0 0 283.46 283.46;" xml:space="preserve">
<style type="text/css">
	.st0{fill:#FFFFFF;}
</style>
<g>
	<path class="st0" d="M96.68,7.14c-0.54,0.16-1.09,0.34-1.64,0.48c-4.2,1.05-8.41,2.09-12.62,3.13c-0.35,0.09-0.87,0.22-1.05,0.05
		c-0.81-0.73-1.74-0.46-2.65-0.52c-0.46-0.03-1.19-0.12-1.3-0.4C77.12,9.14,76.49,9.22,76,9.22c-1.27,0.01-2.54,0.16-3.72,0.25
		c-0.12,0.43-0.21,0.73-0.29,0.99c0.8,0.35,1.67,0.72,2.53,1.11c0.11,0.05,0.26,0.22,0.24,0.29c-0.05,0.15-0.17,0.33-0.3,0.38
		c-0.16,0.05-0.36-0.04-0.54-0.05c-0.84-0.08-1.16,0.29-0.88,1.09c0.1,0.27,0.38,0.48,0.71,0.88c-0.76,0.16-1.45,0.3-2.14,0.45
		c-0.23,0.05-0.5,0.08-0.67,0.22c-0.24,0.19-0.36,0.57-0.62,0.69c-0.71,0.32-1.47,0.5-2.2,0.8c-1.31,0.53-2.57,1.2-3.91,1.61
		c-0.74,0.22-0.98,0.54-1.07,1.23c-0.25,1.96-0.57,3.92-0.83,5.89c-0.35,2.61-0.67,5.21-1.01,7.93c5.03-2.25,9.87-4.65,15.08-6.42
		c0.07,0.54,0.15,0.94,0.17,1.33c0.34,5.47,0.68,10.94,0.98,16.41c0.04,0.73,0.22,1.07,1.04,1.16c3.23,0.36,6.45,0.82,9.68,1.24
		c2.02,0.26,4.03,0.51,6.11,0.78c0-0.24,0.01-0.39,0-0.54c-0.29-3.68-0.54-7.35-0.88-11.02c-0.3-3.3-0.71-6.58-1.05-9.88
		c-0.05-0.43-0.11-0.82-0.68-0.78c-0.71,0.06-0.89-0.36-0.78-0.93c0.08-0.4,0.54-0.98,0.41-1.14c-0.73-0.88,0.27-0.82,0.54-1.17
		c0.21-0.28,0.47-0.62,0.47-0.94c0.02-0.52,0.18-0.81,0.67-0.95c0.98-0.29,1.93-0.67,2.92-0.91c2.12-0.51,4.26-0.96,6.46-1.45
		c-1.51-3.44-3-6.83-4.47-10.17c-0.29-0.15-0.59-0.31-0.89-0.47h-0.4V7.14z M71.09,280.42c0.3-0.05,0.48-0.08,0.66-0.12
		c14.02-3.67,28.03-7.35,42.06-11c0.63-0.16,0.75-0.43,0.75-1.01c0.03-6.23,0.1-12.45,0.14-18.68c0.07-10.2,0.12-20.4,0.19-30.59
		c0.07-9.98,0.15-19.95,0.22-29.93c0.02-1.79,0-3.58,0-5.3c-3.16-1.01-6.21-1.99-9.43-3.02c0.39-0.32,0.6-0.5,0.81-0.65
		c2.02-1.48,4.08-2.92,6.07-4.45c0.78-0.6,1.48-0.95,2.4-0.4c0.03,0.02,0.11-0.04,0.23-0.09c0-3.85,0-7.73,0-11.74
		c-0.54,0.41-1.02,0.71-1.41,1.08c-0.55,0.51-1,0.51-1.71,0.18c-3.04-1.47-5.66-3.55-8.36-5.52c-3.08-2.25-6.37-4.26-9.18-6.81
		c-5.74-5.22-10.95-10.98-15.34-17.39c-3.05-4.45-6.61-8.62-8.32-13.89c-0.07-0.22-0.54-0.45-0.84-0.46c-1.43-0.04-2.85,0-4.28,0.01
		c-1.16,0.01-2.33,0-3.65,0c1.95,4.39,3.3,8.71,6,12.43c2.42,3.33,4.44,6.97,7.02,10.16c3.27,4.04,6.91,7.79,10.44,11.61
		c1.38,1.5,2.77,3.06,4.39,4.27c3.47,2.59,7.1,4.98,10.67,7.44c1.83,1.26,3.66,2.52,5.64,3.89c-1.82,1.25-3.47,2.44-5.18,3.54
		c-1.32,0.85-2.69,1.64-4.08,2.38c-0.3,0.16-0.86,0.12-1.17-0.07c-3.13-1.84-6.31-3.58-9.3-5.62c-13.76-9.41-24.23-21.67-31.45-36.7
		c-0.98-2.06-1.88-4.16-2.81-6.23c-0.03,0.01-0.05,0.02-0.09,0.02C58.49,178.59,64.79,229.44,71.09,280.42z M227.14,123.57
		c-0.04-0.01-0.09-0.02-0.12-0.02c-0.09,0.28-0.18,0.57-0.27,0.85c-0.83,2.5-1.48,5.06-2.53,7.47
		c-4.43,10.16-10.65,19.13-18.39,27.06c-6.46,6.61-13.78,12.08-21.89,16.51c-0.31,0.17-0.65,0.61-0.67,0.95
		c-0.54,9.93-1.03,19.85-1.54,29.78c-0.54,10.52-1.09,21.03-1.64,31.54c-0.43,8.26-0.88,16.51-1.28,24.77
		c-0.09,1.81-0.02,3.61-0.02,5.42c0.16-0.1,0.41-0.25,0.66-0.42c15.55-10.58,31.1-21.16,46.66-31.72c0.75-0.51,1.03-1.02,1.03-1.94
		c-0.02-36.42-0.02-72.83-0.02-109.26C227.14,124.23,227.14,123.9,227.14,123.57z M113.5,80.39c0.27,0.03,0.48,0.06,0.69,0.07
		c4.74,0.21,9.48,0.45,14.21,0.61c3.24,0.11,6.48,0.48,9.74-0.05c7.87-1.29,13.45-5.37,16.27-12.96c1.91-5.13,2.64-10.5,3.12-15.9
		c0.54-6.06,0.29-12.14-0.38-18.19c-0.54-4.9-1.47-9.72-3.3-14.34c-2.03-5.13-5.45-8.47-11-9.77c-7.24-1.69-14.52-2.06-21.89-1.67
		c-2.31,0.12-4.61,0.36-6.9,0.55c0,14.62,0,29.08,0,43.68c5.19-0.64,10.28-1.27,15.32-1.89c0-10,0-19.91,0-29.83
		c0.15-0.04,0.29-0.1,0.44-0.12c0.22-0.03,0.43-0.05,0.65-0.05c4.06-0.09,6.97,1.86,9.07,5.18c2.05,3.24,2.86,6.89,3.31,10.64
		c0.78,6.44,0.29,12.87-0.46,19.28c-0.12,0.98-0.26,1.71-1.57,1.44c0.17,0.17,0.29,0.27,0.42,0.29c0.84,0.18,1.06,0.69,0.88,1.48
		c-0.33,1.44-0.48,2.95-0.97,4.33c-1.74,4.96-5.68,6.24-10.14,5.44c-0.5-0.09-0.67-0.34-0.68-0.8c-0.02-1.15-0.05-2.29-0.05-3.44
		c-0.01-1.97,0-3.94,0-5.91c-0.22,0.05-0.56,0.12-0.99,0.2c0.82-1.09,0.68-1.36-0.8-1.64c0.53-0.37,0.99-0.71,1.46-1.04
		c-0.54,0.02-1.05,0.11-1.53,0.29c-0.71,0.26-1.03-0.01-1.19-0.78c0.9-0.36,1.78-0.7,2.71-1.07c-0.2-0.79-0.4-1.53-0.58-2.26
		c-5.11,1.12-10.24,0.28-15.39,0.81C113.8,62.1,113.65,71.22,113.5,80.39z M164.13,243.29c1.67-22.08,3.32-44.01,4.98-66.04
		c-13.11,0.85-25.84-0.69-38.33-4.74c0,2.81-0.02,5.44,0.02,8.07c0,0.22,0.27,0.56,0.49,0.63c1.36,0.43,2.71,0.92,4.1,1.19
		c6.41,1.26,12.84,2.45,19.39,2.78c0.37,0.02,0.74,0.1,1.12,0.16c-8.29,1.56-16.6,1.97-25,1.28c0,2.26-0.01,4.39,0,6.52
		c0.04,10.57,0.09,21.14,0.11,31.7c0,0.68,0.21,1.03,0.81,1.36c10.07,5.33,20.14,10.68,30.21,16.02
		C162.68,242.56,163.33,242.88,164.13,243.29z M197.11,47.84c-0.36,0-0.63,0.03-0.9-0.01c-2.88-0.34-5.6,0.65-8.28,1.35
		c-5.54,1.43-10.99,3.23-16.47,4.89c-2.21,0.67-4.41,1.35-6.61,2.02c0.01,0.06,0.02,0.13,0.03,0.19c2.04-0.16,4.09-0.31,6.23-0.47
		c-1.75,7.65-3.47,15.15-5.2,22.66c2.51,0,4.93-0.01,7.35,0.01c0.43,0,1.03-0.09,1.26,0.15c0.81,0.84,1.18,0.23,1.5-0.38
		c0.29-0.54,0.43-1.14,0.65-1.75c0.95,0.94,0.95,0.94,2.44,0.99c0.28,0.01,0.56,0.04,0.83,0.07c1.71,0.24,3.41,0.49,5.17,0.74
		c1.33-6.35,2.67-12.7,4.02-19.12c2.54,0.54,4.98,1.1,7.44,1.56c0.8,0.15,1.03,0.55,1.17,1.26c1.02,5.16,2.11,10.31,3.09,15.48
		c0.18,0.92,0.53,1.09,1.39,1.09c5.05,0,10.1,0.07,15.15,0.1c0.58,0,1.16-0.11,1.75-0.13c0.47-0.02,0.95-0.01,1.64-0.01
		c1-0.39,0.55-1.16,0.07-1.95c-0.16-0.26-0.26-0.56-0.34-0.85c-2.23-7.79-4.44-15.6-6.66-23.39c-0.58-2.04-1.16-4.08-1.74-6.15
		c7.89-3.23,15.68-6.41,23.47-9.59c-0.18-0.19-0.31-0.22-0.42-0.19c-7.88,1.95-15.77,3.91-23.64,5.89c-0.71,0.18-1,0.07-1.22-0.62
		c-0.59-1.92-1.26-3.82-1.85-5.75c-0.18-0.59-0.45-0.77-1.05-0.71c-2.9,0.31-5.8,0.57-8.7,0.86c-1.35,0.13-2.7,0.26-4.25,0.41
		C195.36,40.31,196.22,44.03,197.11,47.84z M59.39,53.32c-0.13,0.27-0.26,0.45-0.32,0.65c-1.04,3.08-2.07,6.15-3.09,9.24
		c-0.08,0.25,0.02,0.55,0,0.82c-0.11,1.4,0.14,2.98-0.42,4.18c-0.81,1.73-0.2,2.76,0.9,3.85c0.47,0.46,0.91,0.94,1.4,1.35
		c4.99,4.17,10.86,6.63,17.01,8.46c0.31,0.09,0.71-0.09,1.09-0.14c0.02,0.06,0.07,0.2,0.12,0.36c0.21-0.12,0.4-0.22,0.58-0.33
		c0.22,0.76,0.76,0.66,1.19,0.39c0.74-0.46,1.22-0.14,1.79,0.33c0.34,0.28,0.86,0.52,1.29,0.5c1.82-0.1,3.64-0.29,5.46-0.48
		c0.25-0.03,0.6-0.23,0.7-0.45c1.04-2.41,2.04-4.84,3.06-7.26c0.16-0.36,0.37-0.69,0.54-1c-0.04-0.63-0.08-1.3-0.14-1.96
		c-0.06-0.71-0.03-1.47-0.27-2.12c-0.33-0.9,0-1.69,0.93-1.77c1.26-0.1,2.5-0.2,3.85-0.32c-0.14-3.3-0.27-6.48-0.4-9.67
		c-0.12-3.09-0.03-6.18-0.55-9.31c-5.47-0.71-11.01-1.43-16.59-2.16c0.36,5.61,1.5,11.06,0.42,16.58c1.92,0.56,3.25,1.52,4.1,3.07
		c-0.36-0.21-0.64-0.38-0.92-0.55c-1.65-0.95-3.44-1.3-5.28-0.89c-0.83,0.18-1.42,0.02-2.05-0.45c-4.27-3.24-8.55-6.48-12.83-9.71
		C60.46,54.14,59.95,53.74,59.39,53.32z M170.57,53.15c0.11,0.03,0.14,0.05,0.16,0.05c5.99-1.89,11.98-3.78,17.96-5.72
		c0.22-0.07,0.49-0.47,0.49-0.71c-0.01-2.38-0.07-4.77-0.11-7.15c-0.02-1.88-0.33-3.82,0.02-5.63c0.58-3.09,1.57-6.11,2.4-9.16
		c0.09-0.33,0.28-0.62,0.42-0.93c0.07,0.02,0.13,0.03,0.2,0.05c0.81,3.61,1.61,7.21,2.44,10.91c4.38-0.44,8.71-0.88,13.04-1.32
		c-0.02-0.16-0.03-0.23-0.05-0.29c-0.16-0.47-0.32-0.94-0.47-1.4c-0.32-0.96-0.03-1.31,1.01-1.23c1.57,0.12,3.15,0.25,4.73,0.36
		c0.18,0.02,0.36-0.03,0.54-0.05c-0.36-0.23-0.71-0.32-1.06-0.36c-1.44-0.19-2.89-0.33-4.33-0.55c-1.2-0.18-2.5-1.57-2.29-2.74
		c0.26-1.38-0.21-2.52-0.62-3.74c-0.29-0.85-0.45-1.74-0.59-2.62c-0.09-0.58-0.34-0.92-0.87-1.19c-1.65-0.85-3.28-1.75-4.91-2.64
		c-5.67-3.06-11.33-6.12-17.05-9.21c-0.09,0.27-0.18,0.5-0.25,0.74c-2.23,8.11-4.48,16.22-6.68,24.34
		c-0.51,1.89-0.98,3.78-2.54,5.13c-0.04,0.03-0.04,0.11-0.06,0.17c0.09-0.01,0.19-0.02,0.27-0.03c0.09,0.36,0.28,0.72,0.23,1.06
		c-0.37,2.7-0.79,5.39-1.19,8.09C171.12,49.31,170.85,51.25,170.57,53.15z M139.62,139.18c-3.59-1.99-6.41-4.64-8.94-7.69
		c-0.07,0.16-0.11,0.21-0.11,0.26c0.01,3.54,0,7.06,0.05,10.6c0,0.29,0.26,0.67,0.51,0.87c0.98,0.74,2,1.43,3.05,2.16
		c-1.04,1.26-2.04,2.4-2.95,3.61c-0.31,0.4-0.54,0.98-0.54,1.49c-0.03,3.09,0.02,6.2,0.04,9.3c0,0.17,0.03,0.33,0.07,0.74
		c2.1-2.09,4.09-3.98,5.99-5.97c1.47-1.55,2.83-3.21,4.21-4.84c0.36-0.43,0.64-0.47,1.17-0.25c1.85,0.76,3.71,1.57,5.63,2.1
		c3.05,0.85,5.99,2.09,9.31,1.81c3.97-0.33,7.99-0.02,11.89-1.2c2-0.6,2.02-0.51,2.19-2.57c0.02-0.22,0.05-0.43,0.07-0.64
		c0.14-1.85,0.27-3.69,0.41-5.6c-0.36,0.05-0.63,0.09-0.89,0.15c-3.16,0.68-6.23,1.56-9.54,1.66c-3.64,0.11-7.21,0.44-10.64-1.13
		c-0.5-0.23-1.05-0.36-1.58-0.53c-0.6-0.19-1.2-0.4-1.88-0.61c5.34-7.46,11.08-14.51,15.21-22.69c-0.14-0.02-0.26-0.06-0.37-0.06
		c-2.79,0.06-5.58,0.1-8.37,0.22c-0.34,0.02-0.78,0.35-0.97,0.66c-0.63,1.02-1.06,2.19-1.75,3.16c-3.23,4.51-6.53,8.97-9.82,13.44
		C140.62,138.18,140.09,138.67,139.62,139.18z M184.75,147.47c13.86-6.67,25.42-16.16,35.44-27.64c-0.15-0.02-0.35-0.06-0.56-0.07
		c-3.1-0.05-6.2-0.07-9.3-0.14c-0.64-0.02-1.09,0.16-1.55,0.61c-2.18,2.11-4.28,4.32-6.65,6.21c-3.52,2.82-6.88,5.89-10.84,8.13
		c-1.83,1.04-3.63,2.14-5.42,3.24c-0.28,0.17-0.64,0.5-0.65,0.78C185.03,141.53,184.9,144.47,184.75,147.47z M158.2,91.96
		c0,5.93,0,11.76,0,17.65c1.16,0,2.26,0,3.46,0c0-3.48,0-6.92,0-10.62c0.36,0.53,0.56,0.82,0.76,1.13c1.92,2.96,3.82,5.93,5.75,8.89
		c0.17,0.26,0.46,0.6,0.71,0.62c0.92,0.08,1.84,0.03,2.78,0.03c0-5.95,0-11.79,0-17.65c-1.16,0-2.25,0-3.48,0c0,3.47,0,6.91,0,10.61
		c-0.4-0.6-0.64-0.96-0.88-1.32c-1.87-2.88-3.72-5.77-5.61-8.65c-0.19-0.28-0.5-0.63-0.78-0.66
		C160.02,91.9,159.13,91.96,158.2,91.96z M105.56,109.66c2.23,0,4.37,0,6.5,0c0.37,0,0.74,0,1.12-0.05c2.71-0.35,4.9-2.44,5.07-5.12
		c0.16-2.4,0.16-4.82,0-7.23c-0.17-2.74-2.15-4.77-4.89-5.15c-1.37-0.19-2.78-0.12-4.17-0.15c-1.19-0.02-2.39-0.01-3.62-0.01
		C105.56,97.9,105.56,103.71,105.56,109.66z M154.76,100.87c-0.05,0-0.11-0.01-0.17-0.01c0-0.93,0.04-1.86-0.01-2.78
		c-0.16-3.64-2.33-5.95-5.96-6.24c-3.81-0.3-6.79,2.19-6.91,5.57c-0.09,2.4-0.14,4.83,0.05,7.23c0.23,2.91,2.77,5.06,5.76,5.18
		c3.55,0.15,6.26-1.65,6.84-4.7C154.63,103.72,154.63,102.29,154.76,100.87z M127.54,108.01c1.91,1.88,4.73,2.38,7.31,1.26
		c2.4-1.05,3.46-2.96,3.45-5.54c-0.01-3.57,0-7.13,0-10.69c0-0.33,0-0.67,0-1.03c-1.2,0-2.3,0-3.47,0c0,0.39,0,0.72,0,1.06
		c0,3.54,0.01,7.06-0.01,10.6c-0.01,2.15-1.28,3.3-3.3,2.96c-0.6-0.1-1.16-0.5-1.78-0.79C129.05,106.51,128.31,107.24,127.54,108.01
		z M121.96,92c0,5.92,0,11.75,0,17.6c1.16,0,2.26,0,3.36,0c0-5.89,0-11.73,0-17.6C124.19,92,123.12,92,121.96,92z"/>
	<path d="M97.05,7.14c0.3,0.16,0.6,0.32,0.89,0.47c1.47,3.34,2.96,6.73,4.47,10.17c-2.2,0.49-4.34,0.94-6.46,1.45
		c-0.99,0.24-1.95,0.61-2.92,0.91c-0.49,0.15-0.65,0.43-0.67,0.95c-0.01,0.32-0.26,0.66-0.47,0.94c-0.26,0.35-1.26,0.29-0.54,1.17
		c0.13,0.16-0.33,0.74-0.41,1.14c-0.11,0.57,0.08,0.99,0.78,0.93c0.57-0.05,0.64,0.35,0.68,0.78c0.36,3.3,0.75,6.58,1.05,9.88
		c0.34,3.67,0.59,7.34,0.88,11.02c0.01,0.15,0,0.29,0,0.54c-2.08-0.26-4.09-0.52-6.11-0.78c-3.23-0.42-6.45-0.88-9.68-1.24
		c-0.81-0.09-0.99-0.44-1.04-1.16c-0.31-5.47-0.65-10.94-0.98-16.41c-0.02-0.4-0.1-0.79-0.17-1.33c-5.2,1.78-10.04,4.17-15.08,6.42
		c0.35-2.72,0.67-5.33,1.01-7.93c0.26-1.96,0.58-3.92,0.83-5.89c0.09-0.7,0.33-1.01,1.07-1.23c1.34-0.4,2.61-1.08,3.91-1.61
		c0.72-0.29,1.49-0.48,2.2-0.8c0.26-0.12,0.38-0.5,0.62-0.69c0.17-0.13,0.43-0.16,0.67-0.22c0.69-0.16,1.38-0.29,2.14-0.45
		c-0.33-0.4-0.61-0.6-0.71-0.88c-0.29-0.8,0.03-1.17,0.88-1.09c0.19,0.02,0.39,0.11,0.54,0.05c0.13-0.05,0.26-0.23,0.3-0.38
		c0.02-0.07-0.13-0.25-0.24-0.29c-0.86-0.39-1.73-0.76-2.53-1.11c0.08-0.27,0.16-0.57,0.29-0.99c1.18-0.09,2.45-0.24,3.72-0.25
		c0.49,0,1.12-0.09,1.43,0.67c0.11,0.27,0.84,0.36,1.3,0.4c0.91,0.06,1.85-0.21,2.65,0.52c0.19,0.17,0.71,0.03,1.05-0.05
		c4.21-1.03,8.41-2.08,12.62-3.13c0.55-0.14,1.09-0.32,1.64-0.48C96.81,7.14,96.93,7.14,97.05,7.14z M73.22,10.15
		c1.55,0.64,1.55,0.64,1.88,0.4C73.87,9.63,73.87,9.63,73.22,10.15z"/>
	<path d="M71.09,280.42c-6.31-50.97-12.6-101.83-18.9-152.68c0.03-0.01,0.05-0.02,0.09-0.02c0.93,2.08,1.82,4.18,2.81,6.23
		c7.22,15.02,17.68,27.29,31.45,36.7c2.99,2.04,6.18,3.78,9.3,5.62c0.31,0.18,0.87,0.22,1.17,0.07c1.39-0.74,2.76-1.53,4.08-2.38
		c1.71-1.1,3.36-2.29,5.18-3.54c-1.98-1.36-3.81-2.62-5.64-3.89c-3.57-2.47-7.2-4.85-10.67-7.44c-1.62-1.21-3.01-2.77-4.39-4.27
		c-3.53-3.82-7.17-7.57-10.44-11.61c-2.58-3.19-4.61-6.82-7.02-10.16c-2.7-3.72-4.05-8.04-6-12.43c1.33,0,2.49,0.01,3.65,0
		c1.43-0.01,2.85-0.05,4.28-0.01c0.29,0.01,0.77,0.23,0.84,0.46c1.71,5.27,5.27,9.44,8.32,13.89c4.39,6.42,9.6,12.18,15.34,17.39
		c2.81,2.55,6.1,4.56,9.18,6.81c2.7,1.97,5.33,4.05,8.36,5.52c0.7,0.34,1.16,0.34,1.71-0.18c0.4-0.37,0.87-0.67,1.41-1.08
		c0,4.02,0,7.89,0,11.74c-0.12,0.05-0.2,0.11-0.23,0.09c-0.92-0.55-1.62-0.2-2.4,0.4c-1.99,1.53-4.05,2.97-6.07,4.45
		c-0.22,0.16-0.42,0.33-0.81,0.65c3.22,1.03,6.27,2.01,9.43,3.02c0,1.71,0.01,3.51,0,5.3c-0.07,9.98-0.15,19.96-0.22,29.93
		c-0.07,10.2-0.12,20.4-0.19,30.59c-0.04,6.23-0.11,12.45-0.14,18.68c0,0.58-0.12,0.85-0.75,1.01c-14.03,3.64-28.04,7.33-42.06,11
		C71.58,280.35,71.39,280.36,71.09,280.42z"/>
	<path d="M227.14,123.57c0,0.33,0,0.65,0,0.98c0,36.42,0,72.83,0.02,109.26c0,0.92-0.28,1.43-1.03,1.94
		c-15.56,10.55-31.11,21.14-46.66,31.72c-0.25,0.17-0.5,0.33-0.66,0.42c0-1.8-0.08-3.61,0.02-5.42c0.4-8.26,0.85-16.51,1.28-24.77
		c0.54-10.52,1.09-21.02,1.64-31.54c0.51-9.93,1-19.85,1.54-29.78c0.02-0.33,0.36-0.78,0.67-0.95c8.11-4.43,15.43-9.9,21.89-16.51
		c7.74-7.92,13.97-16.89,18.39-27.06c1.05-2.4,1.7-4.97,2.53-7.47c0.09-0.28,0.18-0.57,0.27-0.85
		C227.06,123.56,227.1,123.57,227.14,123.57z"/>
	<path d="M113.5,80.39c0.15-9.17,0.3-18.29,0.45-27.4c5.15-0.53,10.28,0.32,15.39-0.81c0.19,0.74,0.38,1.47,0.58,2.26
		c-0.94,0.37-1.82,0.71-2.71,1.07c0.16,0.77,0.48,1.04,1.19,0.78c0.48-0.18,0.98-0.26,1.53-0.29c-0.47,0.33-0.93,0.67-1.46,1.04
		c1.47,0.29,1.62,0.57,0.8,1.64c0.44-0.09,0.78-0.16,0.99-0.2c0,1.98-0.01,3.94,0,5.91c0.01,1.15,0.04,2.29,0.05,3.44
		c0.01,0.46,0.18,0.71,0.68,0.8c4.47,0.81,8.4-0.47,10.14-5.44c0.49-1.39,0.64-2.89,0.97-4.33c0.18-0.79-0.05-1.3-0.88-1.48
		c-0.13-0.03-0.25-0.12-0.42-0.29c1.3,0.27,1.46-0.45,1.57-1.44c0.75-6.41,1.23-12.83,0.46-19.28c-0.45-3.75-1.26-7.4-3.31-10.64
		c-2.09-3.32-5.01-5.27-9.07-5.18c-0.22,0.01-0.43,0.02-0.65,0.05c-0.15,0.02-0.29,0.08-0.44,0.12c0,9.92,0,19.82,0,29.83
		c-5.05,0.63-10.14,1.26-15.32,1.89c0-14.6,0-29.07,0-43.68c2.29-0.19,4.59-0.43,6.9-0.55c7.37-0.39,14.65-0.02,21.89,1.67
		c5.56,1.3,8.97,4.65,11,9.77c1.83,4.62,2.77,9.44,3.3,14.34c0.67,6.05,0.92,12.12,0.38,18.19c-0.48,5.4-1.21,10.77-3.12,15.9
		c-2.82,7.58-8.4,11.67-16.27,12.96c-3.26,0.54-6.49,0.16-9.74,0.05c-4.74-0.16-9.48-0.4-14.21-0.61
		C113.98,80.44,113.77,80.41,113.5,80.39z"/>
	<path d="M164.13,243.29c-0.79-0.41-1.45-0.74-2.09-1.08c-10.07-5.34-20.13-10.69-30.21-16.02c-0.6-0.32-0.81-0.67-0.81-1.36
		c-0.02-10.57-0.07-21.14-0.11-31.7c-0.01-2.13,0-4.27,0-6.52c8.39,0.7,16.71,0.28,25-1.28c-0.37-0.05-0.74-0.14-1.12-0.16
		c-6.55-0.33-12.98-1.52-19.39-2.78c-1.39-0.27-2.75-0.75-4.1-1.19c-0.22-0.07-0.49-0.41-0.49-0.63c-0.03-2.63-0.02-5.27-0.02-8.07
		c12.49,4.05,25.22,5.59,38.33,4.74C167.44,199.28,165.79,221.22,164.13,243.29z"/>
	<path d="M197.11,47.84c-0.89-3.82-1.75-7.54-2.64-11.36c1.55-0.15,2.9-0.28,4.25-0.41c2.9-0.28,5.8-0.55,8.7-0.86
		c0.6-0.06,0.88,0.12,1.05,0.71c0.59,1.92,1.26,3.82,1.85,5.75c0.21,0.69,0.51,0.8,1.22,0.62c7.87-1.99,15.76-3.94,23.64-5.89
		c0.11-0.03,0.24,0,0.42,0.19c-7.79,3.19-15.59,6.37-23.47,9.59c0.58,2.06,1.16,4.11,1.74,6.15c2.22,7.79,4.44,15.6,6.66,23.39
		c0.09,0.29,0.19,0.59,0.34,0.85c0.48,0.8,0.93,1.57-0.07,1.95c-0.71,0-1.18-0.02-1.64,0.01c-0.58,0.03-1.16,0.14-1.75,0.13
		c-5.05-0.03-10.1-0.1-15.15-0.1c-0.86,0-1.21-0.18-1.39-1.09c-0.98-5.16-2.07-10.31-3.09-15.48c-0.14-0.71-0.37-1.1-1.17-1.26
		c-2.46-0.46-4.89-1.02-7.44-1.56c-1.35,6.43-2.68,12.77-4.02,19.12c-1.77-0.26-3.47-0.5-5.17-0.74c-0.28-0.04-0.56-0.06-0.83-0.07
		c-1.5-0.05-1.5-0.05-2.44-0.99c-0.22,0.61-0.37,1.22-0.65,1.75c-0.33,0.61-0.69,1.22-1.5,0.38c-0.22-0.23-0.83-0.14-1.26-0.15
		c-2.42-0.01-4.84-0.01-7.35-0.01c1.72-7.51,3.44-15.01,5.2-22.66c-2.15,0.16-4.19,0.32-6.23,0.47c-0.01-0.06-0.02-0.13-0.03-0.19
		c2.2-0.67,4.41-1.36,6.61-2.02c5.48-1.65,10.93-3.45,16.47-4.89c2.68-0.7,5.4-1.69,8.28-1.35
		C196.49,47.87,196.76,47.84,197.11,47.84z"/>
	<path d="M59.39,53.32c0.56,0.43,1.07,0.81,1.58,1.2c4.27,3.23,8.55,6.47,12.83,9.71c0.63,0.48,1.23,0.64,2.05,0.45
		c1.85-0.4,3.63-0.05,5.28,0.89c0.29,0.16,0.57,0.34,0.92,0.55c-0.86-1.55-2.18-2.51-4.1-3.07c1.08-5.52-0.05-10.97-0.42-16.58
		c5.58,0.73,11.12,1.45,16.59,2.16c0.52,3.13,0.42,6.23,0.55,9.31c0.13,3.18,0.26,6.37,0.4,9.67c-1.34,0.11-2.59,0.22-3.85,0.32
		c-0.93,0.08-1.26,0.87-0.93,1.77c0.24,0.65,0.21,1.4,0.27,2.12c0.06,0.67,0.09,1.34,0.14,1.96c-0.17,0.31-0.39,0.64-0.54,1
		c-1.02,2.42-2.02,4.85-3.06,7.26c-0.09,0.22-0.44,0.42-0.7,0.45c-1.81,0.19-3.64,0.39-5.46,0.48c-0.43,0.02-0.95-0.22-1.29-0.5
		c-0.57-0.47-1.05-0.78-1.79-0.33c-0.43,0.27-0.98,0.36-1.19-0.39c-0.19,0.11-0.37,0.21-0.58,0.33c-0.05-0.16-0.1-0.29-0.12-0.36
		c-0.38,0.05-0.78,0.23-1.09,0.14c-6.17-1.83-12.02-4.29-17.01-8.46c-0.5-0.42-0.95-0.89-1.4-1.35c-1.1-1.09-1.71-2.12-0.9-3.85
		c0.56-1.19,0.32-2.77,0.42-4.18c0.02-0.27-0.08-0.57,0-0.82c1.02-3.09,2.05-6.16,3.09-9.24C59.13,53.77,59.26,53.59,59.39,53.32z"
		/>
	<path d="M170.57,53.15c0.27-1.91,0.54-3.83,0.83-5.75c0.4-2.7,0.81-5.39,1.19-8.09c0.05-0.33-0.15-0.71-0.23-1.06
		c-0.09,0.01-0.19,0.02-0.27,0.03c0.02-0.05,0.02-0.13,0.06-0.17c1.57-1.36,2.03-3.23,2.54-5.13c2.2-8.12,4.45-16.23,6.68-24.34
		c0.06-0.23,0.16-0.46,0.25-0.74c5.72,3.09,11.38,6.15,17.05,9.21c1.64,0.88,3.26,1.79,4.91,2.64c0.53,0.27,0.78,0.6,0.87,1.19
		c0.14,0.88,0.3,1.78,0.59,2.62c0.41,1.22,0.88,2.36,0.62,3.74c-0.22,1.16,1.09,2.56,2.29,2.74c1.44,0.21,2.89,0.36,4.33,0.55
		c0.36,0.05,0.71,0.13,1.06,0.36c-0.18,0.02-0.36,0.06-0.54,0.05c-1.57-0.12-3.15-0.24-4.73-0.36c-1.04-0.08-1.33,0.27-1.01,1.23
		c0.16,0.47,0.32,0.94,0.47,1.4c0.02,0.05,0.02,0.12,0.05,0.29c-4.33,0.43-8.66,0.88-13.04,1.32c-0.82-3.69-1.63-7.31-2.44-10.91
		c-0.07-0.02-0.13-0.03-0.2-0.05c-0.14,0.31-0.33,0.6-0.42,0.93c-0.83,3.05-1.81,6.06-2.4,9.16c-0.34,1.81-0.05,3.75-0.02,5.63
		c0.03,2.38,0.1,4.77,0.11,7.15c0,0.24-0.26,0.64-0.49,0.71c-5.98,1.92-11.97,3.82-17.96,5.72
		C170.71,53.21,170.68,53.18,170.57,53.15z"/>
	<path d="M139.62,139.18c0.47-0.52,1-1,1.42-1.57c3.29-4.47,6.58-8.93,9.82-13.44c0.7-0.97,1.12-2.13,1.75-3.16
		c0.19-0.31,0.63-0.64,0.97-0.66c2.78-0.12,5.58-0.16,8.37-0.22c0.12,0,0.23,0.04,0.37,0.06c-4.13,8.18-9.86,15.23-15.21,22.69
		c0.67,0.22,1.28,0.42,1.88,0.61c0.53,0.17,1.09,0.29,1.58,0.53c3.43,1.57,7,1.25,10.64,1.13c3.3-0.1,6.38-0.98,9.54-1.66
		c0.26-0.05,0.54-0.09,0.89-0.15c-0.14,1.91-0.28,3.75-0.41,5.6c-0.02,0.22-0.05,0.43-0.07,0.64c-0.16,2.06-0.19,1.96-2.19,2.57
		c-3.9,1.18-7.92,0.87-11.89,1.2c-3.32,0.28-6.27-0.97-9.31-1.81c-1.92-0.54-3.78-1.35-5.63-2.1c-0.53-0.22-0.81-0.18-1.17,0.25
		c-1.38,1.64-2.74,3.29-4.21,4.84c-1.89,1.99-3.89,3.89-5.99,5.97c-0.04-0.4-0.07-0.57-0.07-0.74c-0.02-3.1-0.07-6.2-0.04-9.3
		c0.01-0.5,0.23-1.08,0.54-1.49c0.92-1.21,1.92-2.35,2.95-3.61c-1.05-0.73-2.07-1.41-3.05-2.16c-0.26-0.19-0.51-0.57-0.51-0.87
		c-0.05-3.54-0.04-7.06-0.05-10.6c0-0.05,0.04-0.1,0.11-0.26C133.21,134.54,136.03,137.19,139.62,139.18z"/>
	<path d="M184.75,147.47c0.16-3.01,0.29-5.94,0.48-8.87c0.02-0.28,0.37-0.6,0.65-0.78c1.79-1.1,3.59-2.2,5.42-3.24
		c3.96-2.25,7.32-5.3,10.84-8.13c2.36-1.89,4.46-4.1,6.65-6.21c0.47-0.45,0.92-0.63,1.55-0.61c3.09,0.07,6.2,0.09,9.3,0.14
		c0.21,0,0.41,0.05,0.56,0.07C210.17,131.31,198.61,140.8,184.75,147.47z"/>
	<path d="M158.2,91.96c0.93,0,1.83-0.05,2.71,0.03c0.28,0.02,0.6,0.38,0.78,0.66c1.88,2.88,3.74,5.76,5.61,8.65
		c0.23,0.36,0.47,0.71,0.88,1.32c0-3.7,0-7.13,0-10.61c1.23,0,2.33,0,3.48,0c0,5.86,0,11.7,0,17.65c-0.94,0-1.86,0.05-2.78-0.03
		c-0.26-0.02-0.54-0.36-0.71-0.62c-1.93-2.95-3.84-5.92-5.75-8.89c-0.19-0.3-0.4-0.6-0.76-1.13c0,3.7,0,7.13,0,10.62
		c-1.2,0-2.3,0-3.46,0C158.2,103.73,158.2,97.89,158.2,91.96z"/>
	<path d="M105.56,109.66c0-5.96,0-11.76,0-17.7c1.23,0,2.43-0.02,3.62,0.01c1.39,0.02,2.8-0.04,4.17,0.15
		c2.75,0.38,4.72,2.4,4.89,5.15c0.15,2.4,0.15,4.82,0,7.23c-0.17,2.69-2.35,4.77-5.07,5.12c-0.36,0.05-0.74,0.05-1.12,0.05
		C109.93,109.66,107.79,109.66,105.56,109.66z M109.15,95.15c0,3.85,0,7.59,0,11.35c1.08,0,2.07,0.07,3.05-0.02
		c1.49-0.13,2.46-0.97,2.54-2.47c0.12-2.15,0.1-4.32-0.02-6.47c-0.07-1.34-1-2.23-2.33-2.37C111.35,95.06,110.26,95.15,109.15,95.15
		z"/>
	<path d="M154.76,100.87c-0.12,1.42-0.13,2.85-0.4,4.24c-0.58,3.05-3.28,4.85-6.84,4.7c-2.99-0.12-5.53-2.27-5.76-5.18
		c-0.19-2.4-0.14-4.82-0.05-7.23c0.12-3.37,3.11-5.87,6.91-5.57c3.63,0.29,5.79,2.6,5.96,6.24c0.04,0.92,0.01,1.85,0.01,2.78
		C154.65,100.86,154.7,100.87,154.76,100.87z M151.22,100.84c-0.07-1.05-0.12-2.11-0.2-3.16c-0.02-0.21-0.09-0.43-0.14-0.63
		c-0.39-1.36-1.52-2.18-2.9-2.11c-1.41,0.07-2.6,0.96-2.68,2.35c-0.14,2.24-0.19,4.51-0.05,6.75c0.11,1.74,1.35,2.69,2.99,2.64
		c1.55-0.05,2.62-1.09,2.79-2.8C151.13,102.87,151.16,101.85,151.22,100.84z"/>
	<path d="M127.54,108.01c0.78-0.77,1.51-1.5,2.18-2.17c0.62,0.29,1.18,0.68,1.78,0.79c2.02,0.35,3.3-0.81,3.3-2.96
		c0.02-3.54,0.01-7.06,0.01-10.6c0-0.33,0-0.67,0-1.06c1.17,0,2.27,0,3.47,0c0,0.36,0,0.7,0,1.03c0,3.57-0.01,7.13,0,10.69
		c0.01,2.57-1.05,4.49-3.45,5.54C132.27,110.39,129.45,109.9,127.54,108.01z"/>
	<path d="M121.96,92c1.16,0,2.23,0,3.36,0c0,5.87,0,11.7,0,17.6c-1.1,0-2.2,0-3.36,0C121.96,103.75,121.96,97.91,121.96,92z"/>
	<path class="st0" d="M73.22,10.15c0.64-0.52,0.64-0.52,1.88,0.4C74.77,10.79,74.77,10.79,73.22,10.15z"/>
	<path class="st0" d="M109.15,95.15c1.11,0,2.19-0.09,3.25,0.02c1.33,0.15,2.26,1.03,2.33,2.37c0.12,2.15,0.13,4.32,0.02,6.47
		c-0.09,1.5-1.05,2.33-2.54,2.47c-0.98,0.09-1.97,0.02-3.05,0.02C109.15,102.75,109.15,99,109.15,95.15z"/>
	<path class="st0" d="M151.22,100.84c-0.06,1.02-0.09,2.03-0.2,3.05c-0.17,1.71-1.24,2.75-2.79,2.8c-1.63,0.05-2.88-0.9-2.99-2.64
		c-0.14-2.24-0.09-4.51,0.05-6.75c0.09-1.39,1.27-2.28,2.68-2.35c1.39-0.07,2.52,0.75,2.9,2.11c0.06,0.21,0.12,0.42,0.14,0.63
		C151.1,98.73,151.16,99.78,151.22,100.84z"/>
</g>
</svg>
