<?xml version="1.0" encoding="utf-8"?>
<!-- Generator: Adobe Illustrator 24.0.1, SVG Export Plug-In . SVG Version: 6.00 Build 0)  -->
<svg version="1.1" id="Calque_1" xmlns="http://www.w3.org/2000/svg" xmlns:xlink="http://www.w3.org/1999/xlink" x="0px" y="0px"
	 width="348.3px" height="495.8px" viewBox="0 0 348.3 495.8" enable-background="new 0 0 348.3 495.8" xml:space="preserve">
<title>DunkerqueGraveline</title>
<path fill="#E55826" d="M101.2,113.7l-48,11.3l-24.9,14.5c0,0-39.8,104.8-7.1,182.1s106,142,154.7,164.7c0,0,122.7-63.3,144-138
	s28.2-138.1,6.8-214.4C326.7,133.9,199.9,87,101.2,113.7z"/>
<path fill="#FFFFFF" d="M116.6,435c-18.3-17.6-34-37.7-46.6-59.6c-12.4-21.9-21.4-45.6-26.6-70.2c-5.4-25.2-7.2-51-5.4-76.8
	c1.7-25.1,8.5-63.2,16.9-98.4c-8.1,2.8-16.1,5.8-24,9.1c-8.8,34.6-15,78.5-15.1,102.4c-0.2,26.1,3.7,52.1,11.5,77
	c7.4,23.8,18.6,46.3,33.1,66.6c14.7,20.8,32.3,39.4,52.3,55.3c19.9,15.8,41.6,29.3,64.6,40.2l0,0C155.3,467.8,134.9,452.5,116.6,435
	"/>
<path fill="#FFFFFF" d="M243.4,435.3c18.2-17.6,33.9-37.7,46.5-59.8c12.3-21.9,21.3-45.6,26.5-70.3c5.4-25.2,7.1-51.1,5.2-76.8
	c-1.7-25.1-8.6-63.2-17.1-98.4c8.1,2.8,16.1,5.8,24,9.1c9,34.6,15.2,78.4,15.4,102.4c0.2,26.1-3.6,52.1-11.4,77
	c-7.5,23.8-18.6,46.3-32.9,66.7c-14.7,20.8-32.2,39.5-52.1,55.4c-19.9,15.9-41.5,29.4-64.5,40.4l0,0
	C204.8,468.3,225.1,452.9,243.4,435.3"/>
<g id="BCM">
	<polygon fill="#FFFFFF" points="105,245.8 105,246.7 105,246.7 	"/>
	<path fill="#D7D8D8" d="M296.6,329.5c-6.9,1.3-13.9,2.5-20.8,3.6l-9.5,1.5v-0.1l-5.2,0.7c-7.2,1-14.6,1.8-21.8,2.5l-8.7,0.8l0,0
		l-5.3,0.4c-7.1,0.5-14.3,0.9-21.5,1.1l-8,0.3l0.1-8V330l-6,7.6l-2.3,2.9h-6.1c-11.1,0-22.4-0.3-33.6-0.9l-3.5-0.2l-2.1-2.8
		c-3.9-5.1-7.5-9.8-11.1-14.2c-3.6,4.3-6.9,8.2-10,11.9l-2.6,3l-4-0.4c-16-1.8-32.2-4.2-48.1-7.2l-5.6-1.1l-0.6-5.7l-4.5-45l-5-50
		l-0.7-6.6l-1.3-1l10.9,109.6c11.3,2.1,40.9,7.5,59.7,8.9l11.5-14.3l12.6,16.7c0,0,7.1,0,19.7,0.6c12.6,0.6,25,0.2,25,0.2l6.3-8.4
		v8.6c0,0,24.9-0.6,56.4-3.8c20-2.1,44-7,51.7-8.6v-0.4l-1.3-0.5L296.6,329.5z"/>
	<path fill="#D7D8D8" d="M62.4,240.2h-0.1l0.2,0.6l-1.2-11.9L62.4,240.2z"/>
	<polygon fill="#D7D8D8" points="105,246.7 105.5,254.8 105.2,250.2 	"/>
	<path fill="#D7D8D8" d="M201.2,223.8l11-14.7l0,0c-0.2-0.5-0.4-1-0.5-1.5l-10.4,13.6C201.3,221.9,201.3,222.9,201.2,223.8z"/>
	<path fill="#D7D8D8" d="M240.9,274.8l-2.3,55.2l1.9-44.9C240.6,281.7,240.7,278.3,240.9,274.8z"/>
	<path fill="#D7D8D8" d="M139.8,212.5l2-2.5c-0.2-0.5-0.3-1-0.5-1.6l0,0l-12.4,15.2c0.1,0.8,0.2,1.6,0.2,2.4
		C132.9,221.2,136.3,216.9,139.8,212.5z"/>
	<line fill="none" x1="136.3" y1="265.8" x2="136.3" y2="265.2"/>
	<line fill="none" x1="138" y1="265.9" x2="138" y2="266.2"/>
	<polygon fill="#D7D8D8" points="208.3,296.8 208.4,286.4 208.4,286.4 	"/>
	<path fill="#D7D8D8" d="M203.7,230.4c-0.2,0.2-0.3,0.3-0.3,0.2c-0.5,34-1,67.8-1.5,101.7c0.5-33.9,1.1-67.8,1.6-101.7L203.7,230.4z
		"/>
	<path fill="#D7D8D8" d="M274.7,325.6c0.2-3,0.5-6,0.7-9l0,0C275.1,319.7,274.9,322.7,274.7,325.6z"/>
	<path fill="#D7D8D8" d="M273.7,315.6c-0.3,3.4-0.5,6.7-0.7,9.8C273.2,322.3,273.4,319,273.7,315.6z"/>
	<path fill="#FFFFFF" d="M298.6,217c0,0-27.5-4.7-44.3-6.4s-42.5-3.3-42.5-3.3l-0.2,0.3c0.2,0.5,0.4,1,0.5,1.5l0,0l-11,14.7v-2.6
		l-0.3,0.4l-11.8-14.2c0,0-16.9-0.1-24.7,0.1c-6.1,0.2-23.2,1-23.2,1c0.2,0.5,0.3,1,0.5,1.6l-2,2.5c-3.5,4.4-6.9,8.7-10.7,13.5
		c-0.1-0.8-0.1-1.6-0.2-2.4l-0.5,0.7l-15.3-14.5c0,0-18.9,2.1-31.4,4.2c-12.4,2.1-32.3,5.8-32.3,5.8v0.3l1.3,1l0.7,6.6l5,50l4.5,45
		l0.6,5.7l5.6,1.1c15.9,3,32,5.5,48.1,7.2l4,0.4l2.6-3c3.1-3.7,6.4-7.6,10-11.9c3.5,4.5,7.2,9.2,11.1,14.2l2.1,2.8l3.5,0.2
		c11.1,0.6,22.4,0.9,33.6,0.9h6.1l2.3-2.9l6-7.6v2.3l-0.1,8l8-0.3c7.1-0.3,14.3-0.6,21.5-1.1l5.3-0.4l0,0l8.7-0.8
		c7.2-0.7,14.6-1.5,21.8-2.5l5.2-0.7v0.1l9.5-1.5c6.9-1.1,13.9-2.3,20.8-3.6l5.1-1l1.3,0.5l9.2-90.5L298.6,217z M128.6,316.2
		c-4,4.8-7.9,9.5-11.8,14l-0.6,0.7l-0.9-0.1c-15.9-1.7-31.8-4.1-47.6-7.1l-1.2-0.2l-0.1-1.3c-3.1-31.7-6.3-63.4-9.5-95.1l-0.1-1.5
		l1.5-0.3c15.3-2.9,30.8-5.3,46.3-7.1l-0.3-0.1c0,0,6-0.8,6.2-0.8c1,0.8,2,1.7,2.9,2.6l-0.1,0.1c4.2,4,8.3,8.1,12.4,12.4l0.4,0.5
		v0.6l1.1,28.8v0.6l-0.4,0.5l-7.4,9.2c2.6,2.8,5.1,5.7,7.6,8.6l0.4,0.5v0.6c0.4,11,0.9,21.9,1.3,32.9v0.6L128.6,316.2z M199.1,260.7
		h-1.7c-5.2,0-10.5-0.1-15.8-0.1h-7.8v-15.8c-5.4,0-10.8,0.1-16.2,0.2l1,58.5c5.1,0.1,10.2,0.2,15.3,0.2l-0.1-14V288h25v1.7
		c-0.1,9-0.2,18-0.3,27.1v0.6l-0.4,0.5c-4.3,5.3-8.5,10.7-12.7,16l-0.5,0.6h-3.3c-11.1,0-22.2-0.3-33.2-0.9h-0.8l-0.5-0.6
		c-4.3-5.6-8.6-11.1-12.9-16.6l-0.4-0.5v-0.6c-0.9-27.2-1.8-54.4-2.7-81.7V233l0.4-0.5c4.3-5.4,8.6-10.8,12.9-16.3l0.5-0.6h0.8
		c12-0.7,24-1,36-1h3.9l0.5,0.6c4.4,5.1,8.7,10.3,13,15.5l0.4,0.5v0.7c-0.1,9.1-0.2,18.2-0.3,27.3L199.1,260.7z M274.9,327.2
		l-2.1,0.3l0.2-2.1c0.2-3.1,0.5-6.4,0.7-9.8l0,0c1.6-20.9,3.5-47.1,4.9-65.9l0,0c-0.2-0.2-11.2-1.2-11.9-1.3l-4.8,79.3l-0.1,1.4
		l-1.4,0.2c-7.2,0.9-14.4,1.8-21.6,2.4l-1.9,0.2l0.1-1.9c1.2-27.7,2.4-55.4,3.5-83.2c-3.7-0.2-7.5-0.4-11.2-0.5
		c-0.9,28.3-1.8,56.7-2.7,84.9v1.5l-1.5,0.1c-7.1,0.5-14.2,0.9-21.2,1.1l-1.8,0.1v-1.8c0.5-34,1-67.8,1.5-101.7
		c0.1-0.1,0.2-0.1,0.3-0.2c1.5-2,10.9-14.2,11.7-15.2v-0.1l0,0c4.4,0.2,8.9,0.5,13.3,0.8c17.8,1.3,35.6,3.3,53.3,5.9l0.7,0.1
		l11.3,1.8l10.8,16.9l-0.7,8.3l-0.1,0.7c-2.4,24.1-4.8,48.3-7.2,72.4l-0.1,1.3l-1.2,0.2C288.7,325,281.8,326.2,274.9,327.2
		L274.9,327.2z"/>
	<polygon fill="#FFFFFF" points="280.6,278.6 279.6,291.8 280.7,277.7 282,259.4 	"/>
	<polygon fill="#FFFFFF" points="295.7,275.5 295.8,274.7 295.2,280.9 	"/>
	<path fill="#FFFFFF" d="M242.2,245.2l-1.3,29.6l0,0L242.2,245.2z"/>
	<polygon fill="#FFFFFF" points="281.3,291.9 282.4,277.2 282.4,277.4 	"/>
	<path fill="#FFFFFF" d="M275.3,316.5L275.3,316.5c0.9-12.4,1.9-24.7,2.8-37.1c0.1-0.9,0.1-1.9,0.2-3
		C277.3,290,276.3,304.3,275.3,316.5z"/>
	<path fill="#FFFFFF" d="M87.8,283.1c0.4,5.6,0.8,11.1,1.2,16.7c5,0.4,10,0.7,15,1c-0.3-5.9-0.7-11.7-1-17.6
		C98,283.2,92.9,283.2,87.8,283.1z"/>
	<path fill="#FFFFFF" d="M101.1,247.8c-5.3,0.4-10.5,0.8-15.8,1.2c0.4,4.6,0.7,9.2,1,13.8c5.2-0.2,10.4-0.3,15.6-0.5L101.1,247.8z"
		/>
	<path fill="#0B0C19" d="M127.8,282.1v-0.6l-0.4-0.5c-2.5-2.9-5.1-5.7-7.6-8.6l7.4-9.2l0.4-0.5v-0.6l-1.1-28.8v-0.6l-0.4-0.5
		c-4.1-4.2-8.2-8.4-12.4-12.4h0.1c-0.9-0.9-1.9-1.8-2.9-2.6c-0.2,0-6.2,0.8-6.2,0.8l0.3,0.1c-15.5,1.8-30.9,4.2-46.3,7.1l-1.5,0.3
		l0.1,1.5c3.1,31.7,6.3,63.4,9.5,95l0.1,1.3l1.2,0.2c15.8,3,31.7,5.4,47.6,7.1l0.9,0.1l0.6-0.7c3.9-4.5,7.8-9.2,11.8-14l0.4-0.5
		v-0.6C128.7,304.1,128.2,293.1,127.8,282.1z M121.5,259.5v-0.8l0,0V259.5l1.7,1.1l0,0L121.5,259.5z M109.4,221.7L109.4,221.7
		c-16.1,1.8-32.2,4.2-48.1,7.2l0,0C77.2,225.9,93.4,223.5,109.4,221.7z M86.8,243.1c-2.5-0.8-5.1-1.4-7.6-1.9
		C81.8,241.7,84.4,242.3,86.8,243.1L86.8,243.1z M62.4,240.2L62.4,240.2v0.5l-0.1-0.5H62.4z M59.4,227.4l1.5,0.7l0,0L59.4,227.4
		l-0.2-0.1h-0.1l0,0L59.4,227.4z M58.7,226.9L58.7,226.9L58.7,226.9L58.7,226.9c0.4,4.4,0.9,8.8,1.3,13.1l0,0
		C59.6,235.7,59.1,231.3,58.7,226.9L58.7,226.9z M64.1,240.7l-0.1-1.1l0,0L64.1,240.7L64.1,240.7z M85.3,248.9L85.3,248.9
		c5.3-0.4,10.5-0.8,15.8-1.2l0.8,14.6c-5.2,0.1-10.4,0.3-15.6,0.5L85.3,248.9z M89,299.8c-0.4-5.6-0.8-11.1-1.2-16.7
		c5.1,0.1,10.2,0.1,15.3,0.2c0.3,5.9,0.7,11.7,1,17.6C99,300.5,94,300.2,89,299.8L89,299.8z M106.9,251.1v-0.2l-1.7-0.7l0.3,4.6
		l-0.5-8.2v-0.8l-0.1-2.4l-2.4,0.2l-6.4,0.5l-1.5,0.1l-6.3,0.5l-4.4-1.3l0,0l4.4,1.3c2.1-0.2,4.2-0.3,6.3-0.5l1.5-0.1l6.4-0.5
		l2.4-0.2l0.1,2.4v0.8l0.2,3.6c0.6,0.2,1.2,0.4,1.7,0.7L106.9,251.1c1.7,0.9,3.4,1.8,5.2,2.8l0,0C110.4,252.9,108.7,252,106.9,251.1
		z"/>
	<path fill="#0B0C19" d="M199,230.7c-4.3-5.2-8.6-10.3-13-15.5l-0.5-0.6h-3.9c-12,0-24,0.3-36,1h-0.8l-0.5,0.6
		c-4.4,5.5-8.7,10.9-12.9,16.3l-0.4,0.5v0.6c0.9,27.2,1.8,54.4,2.7,81.7v0.6l0.4,0.4c4.4,5.5,8.7,11,12.9,16.6l0.5,0.6h0.8
		c11.1,0.6,22.2,0.9,33.2,0.9h3.3l0.5-0.6c4.2-5.3,8.4-10.7,12.7-16l0.4-0.5v-0.6c0.1-9,0.2-18.1,0.3-27.1V288h-24.9v1.7l0.1,14
		c-5.1,0-10.2-0.1-15.3-0.2l-1-58.4c5.4-0.1,10.8-0.2,16.2-0.2l0.1,14.2v1.7h7.8c5.3,0,10.5,0,15.8,0.1h1.7V259
		c0.1-9.1,0.2-18.2,0.3-27.2v-0.6L199,230.7z M183.6,218.7h-1.9c-11.4,0-22.9,0.3-34.2,0.9l0,0c11.3-0.6,22.8-0.9,34.2-0.9H183.6z
		 M153.4,241L153.4,241L153.4,241z M133.8,264l-1-30.5c4.3-5.4,8.6-10.8,12.9-16.3h0.1c-4.4,5.5-8.7,10.9-12.9,16.3L133.8,264
		c0.9,0.4,1.7,0.7,2.5,1.1l0,0h-0.1C135.4,264.7,134.6,264.4,133.8,264L133.8,264z M152.2,272.1v-0.7c-4.9-1.7-9.7-3.5-14.2-5.4l0,0
		l14.3,5.4L152.2,272.1c0.6,0.1,1.1,0.4,1.7,0.5v0L152.2,272.1z M155.8,241h-2.3l0,0H155.8c6.6-0.1,13.2-0.2,19.8-0.3h2.3l0,0h-2.4
		C168.9,240.7,162.3,240.8,155.8,241z M195.1,256.7H178v-0.1h17l0.1-11.3V244L195.1,256.7L195.1,256.7z"/>
	<path fill="#0B0C19" d="M294,223.8l-11.2-1.9l-0.7-0.1c-17.7-2.7-35.4-4.6-53.2-5.9c-4.4-0.3-8.9-0.6-13.3-0.8v0.1
		c-0.8,1-10.2,13.2-11.7,15.2c-0.1,0.1-0.1,0.2-0.2,0.3c-0.5,33.9-1.1,67.8-1.6,101.7v1.8l1.8-0.1c7.1-0.3,14.2-0.6,21.2-1.1
		l1.5-0.1v-1.5l2.7-84.9c3.8,0.1,7.5,0.3,11.2,0.5c-1.2,27.7-2.4,55.5-3.6,83.2v1.9l1.9-0.2c7.2-0.7,14.4-1.5,21.6-2.4l1.4-0.2
		l0.1-1.4l4.9-79.3c0.7,0,11.7,1.1,11.9,1.3c-1.4,18.8-3.3,45-4.9,65.9c-0.3,3.4-0.5,6.7-0.7,9.8l-0.2,2.1l2.1-0.3
		c6.9-1.1,13.7-2.3,20.6-3.6l1.2-0.2l0.1-1.3c2.4-24.1,4.8-48.3,7.2-72.4l0.1-0.7l0.7-8.3L294,223.8z M295.7,275.3h1
		C296.4,275.3,296,275.3,295.7,275.3z M290.8,227.3L290.8,227.3c-29-5.3-46.1-7-70.4-8l-0.1,0.1l0,0l0.1-0.1
		C244.7,220.4,261.8,222.1,290.8,227.3L290.8,227.3z M242.2,245.3L242.2,245.3l-1.2,29.5c-0.1,3.1-0.3,6.2-0.4,9.3l0.4-9.2
		L242.2,245.3z M225.1,246.1L225.1,246.1L225.1,246.1L225.1,246.1z M218.8,217.5c0.4,0.5,0.8,1.1,1.2,1.6
		C219.5,218.5,219.1,218,218.8,217.5L218.8,217.5z M218.1,216.9L218.1,216.9l-3.7,4.7C216.5,218.9,218.1,216.9,218.1,216.9
		L218.1,216.9z M205.2,233.3c0,0,1.5-1.9,3.5-4.5C206.7,231.3,205.2,233.3,205.2,233.3l-0.8,51.2c0.5,0.3,1,0.6,1.6,0.8
		c-0.6-0.2-1.1-0.5-1.6-0.8L205.2,233.3z M206.8,285.6L206.8,285.6v0.4l0,0V285.6z M222.1,287.1L222.1,287.1l0.1,0.6h-0.1V287.1z
		 M225.3,242.1L225.3,242.1l2.3,2.6l0,0L225.3,242.1z M244.7,284.9l-1.7,0.4v-0.1l-2.4,0.2l-1.9,44.9l1.8-45.1l2.4-0.2v0.1l1.7-0.4
		v-0.9c4.6-0.8,9.4-1.6,14.3-2.4v0.2c-4.8,0.8-9.6,1.6-14.2,2.4V284.9z M265.1,246.7v0.5c-0.7-1-1.5-2-2.2-3l-0.2,2.4l-2.1,34.8
		l-1.7,0.4v-0.2l1.7-0.4l2.1-34.8l0.2-2.4c0.7,1,1.4,2,2.2,3v-0.5c1.5,0.1,15.1,1.5,15.1,1.6v0.1
		C279.1,248.1,266.5,246.8,265.1,246.7L265.1,246.7z M282.4,277.2v0.2l-1.7,0.3l-0.1,0.9c-0.8,0.3-1.6,0.6-2.5,0.9
		c-0.9,12.4-1.9,24.7-2.8,37.1c-0.1,1.3-0.2,2.6-0.3,3.9c0.1-1.3,0.2-2.6,0.3-3.9c0.9-11.4,1.9-24.5,2.8-37.3
		c0.8-0.3,1.6-0.5,2.4-0.8l1.4-19.3l-1.4,18.4l1.7-0.3v-0.2c5.3-1,9.9-1.9,13.4-2.5v0.1C292.2,275.4,287.6,276.2,282.4,277.2
		L282.4,277.2z"/>
</g>
<polyline fill="#0E1A25" points="138.2,356.7 132.7,356.7 132.7,356.8 104.1,356.8 98,363 98,383.4 100.1,385.6 100.1,417 118,417 
	120.6,414.3 123.2,417 210.2,417 213.1,419.9 226.5,419.9 226.5,417 258.5,417 258.5,401.2 257,401.2 257,399.8 258.5,399.8 
	258.5,386.1 261.1,383.5 261.1,362.8 255,356.8 243.3,356.8 243.3,356.6 220.7,356.6 220.7,356.7 203.7,356.7 203.7,356.8 
	198.2,356.8 198.2,356.7 189.9,356.7 189.9,356.6 159.8,356.6 159.8,356.7 150.1,356.7 150.1,358.8 148,356.7 140.5,356.7 "/>
<path fill="#FFFFFF" d="M115.1,362.1l3,2.9v5.2h-5.1v-3h-4.5v11.9h4.5v-2.9h-2.3v-3.7h7.4v8.9l-3.1,3h-8.7l-3-3.1v-16.1l3-3
	L115.1,362.1z"/>
<path fill="#FFFFFF" d="M132.6,362.1l3,3v8.1l-1.8,1.8l1.8,1.9v7.5h-6v-5.5l-1.1-1.1h-2.5v6.6h-5.3v-22.2H132.6z M130.5,367.3h-4.4
	v4.3h4.4L130.5,367.3z"/>
<path fill="#FFFFFF" d="M143.5,384.4h-5.4V362h7.9l7.2,7.2v15.2h-5.4v-6.8h-4.2L143.5,384.4z M147.7,371.5l-4.2-4.3v5.9h4.2V371.5z"
	/>
<path fill="#FFFFFF" d="M160.9,362v17l4.2-4.2V362h5.4v15.3l-7.2,7.1h-7.8V362H160.9z"/>
<path fill="#FFFFFF" d="M184.7,362v5.2h-6.6v3.7h5.1v3.9h-5.1v4.5h6.6v5.2h-12V362H184.7z"/>
<path fill="#FFFFFF" d="M192.9,362v17.1h6.6v5.2h-11.9V362H192.9L192.9,362z"/>
<path fill="#FFFFFF" d="M206.6,362.1v22.3h-5.2v-22.3H206.6z"/>
<path fill="#FFFFFF" d="M208.9,384.4V362h9.8l5.2,5.2v17.1h-5.1v-14.5l-2.6-2.5h-2.1v17L208.9,384.4z"/>
<path fill="#FFFFFF" d="M238.1,362v5.2h-6.6v3.7h5.1v3.9h-5.1v4.5h6.6v5.2h-12V362H238.1z"/>
<path fill="#FFFFFF" d="M255.9,381.3l-3.1,3h-8.8l-3-3.1v-4.4h5.2v2.3h4.5v-3.7h-6.7l-3-3v-7.3l3-3.1h8.8l3,2.9v4.5h-5.1v-2.3h-4.5
	v3.8h6.6l3,2.9L255.9,381.3L255.9,381.3z"/>
<path fill="#FFFFFF" d="M115.9,389.4l4.4,4.5v13.4l-4.4,4.5h-10.4v-22.3L115.9,389.4L115.9,389.4z M110.6,406.4h3.3l1.1-1.1v-9.4
	l-1.3-1.2h-3.3L110.6,406.4z"/>
<path fill="#FFFFFF" d="M127.7,406.5h4.5v-17.1h5.1v19.3l-3.1,3h-8.7l-3-3.1v-19.2h5.2L127.7,406.5z"/>
<path fill="#FFFFFF" d="M139.8,411.7v-22.3h9.8l5.2,5.2v17.1h-5.1v-14.5l-2.6-2.5H145v17H139.8L139.8,411.7z"/>
<path fill="#FFFFFF" d="M162.2,389.5v7.8l4.5-4.6v-3.2h5.1v5.8l-4.8,4.8l4.9,4.9v6.7h-5.1v-4.1l-4.5-4.5v8.6h-5.2v-22.2H162.2z"/>
<path fill="#FFFFFF" d="M186.2,389.3v5.2h-6.6v3.6h5.1v3.8h-5.1v4.5h6.6v5.2h-12v-22.4L186.2,389.3L186.2,389.3z"/>
<path fill="#FFFFFF" d="M200.9,389.5l3,3v8.1l-1.8,1.8l1.8,1.9v7.5h-6v-5.5l-1-1.2h-2.5v6.6h-5.4v-22.2H200.9z M198.7,394.7h-4.4
	v4.2h4.4V394.7z"/>
<path fill="#FFFFFF" d="M218.1,411.7h3.1v2.9h-5.9l-2.9-2.9h-3l-3.1-3.1v-16.1l3-3h8.9l2.9,2.9v16.2L218.1,411.7z M211.5,394.6v11.9
	h4.5v-11.9H211.5z"/>
<path fill="#FFFFFF" d="M229.1,406.5h4.5v-17.1h5.1v19.3l-3.1,3h-8.7l-3-3.1v-19.2h5.2L229.1,406.5L229.1,406.5z"/>
<path fill="#FFFFFF" d="M253.2,389.3v5.2h-6.6v3.6h5.1v3.8h-5.1v4.5h6.6v5.2h-12v-22.4L253.2,389.3L253.2,389.3z"/>
<path fill="#FFFFFF" d="M183.4,97.4c17.6,0,61.4,4.1,144.1,34.7C368.1,276.5,341,408.3,174,491.4C7.1,408.3-20,276.5,20.6,132.2
	c82.8-30.6,126.6-34.7,144.1-34.7c3.1-0.1,6.2,0.1,9.3,0.5C177.1,97.5,180.3,97.3,183.4,97.4 M183.4,93.4c-3.1,0-6.2,0.2-9.3,0.6
	c-3.1-0.4-6.2-0.5-9.3-0.5c-19.1,0-63.3,4.5-145.5,35l-1.9,0.7l-0.6,2C6.2,168.7,0.5,204.5,0,237.4c-0.6,35.4,4.7,68.6,15.8,98.7
	c11.8,32,30.4,61.3,55.3,87.1c26.3,27.2,60.3,51.3,101.2,71.7l1.8,0.9l1.8-0.9c40.9-20.4,74.9-44.5,101.2-71.7
	c24.9-25.8,43.5-55.2,55.3-87.1c11-30,16.3-63.2,15.8-98.7c-0.5-32.9-6.2-68.7-16.8-106.4l-0.5-2l-1.9-0.7
	C246.8,97.9,202.5,93.4,183.4,93.4L183.4,93.4z"/>
<path fill="#0C2234" d="M183.4,106.4c8.3,0,23,1,45.8,5.7c26.3,5.4,56.9,14.5,90.9,26.9c9.5,34.9,14.5,68.1,15,98.6
	c0.5,33.8-4.5,65.5-15,94c-11.1,30.3-28.8,58.1-52.4,82.6c-24.3,25.3-55.8,47.8-93.6,67.1c-37.8-19.2-69.3-41.8-93.7-67.1
	c-23.7-24.5-41.3-52.3-52.5-82.6c-10.5-28.5-15.5-60.1-15-94c0.5-30.5,5.6-63.7,15-98.6c34-12.4,64.6-21.4,90.9-26.9
	c22.8-4.7,37.5-5.7,45.8-5.7c2.6,0,5.1,0.1,7.7,0.4l1.5,0.4l1.8-0.4C178.2,106.5,180.8,106.4,183.4,106.4 M183.3,97.4
	c-3.1-0.1-6.3,0.1-9.4,0.5c-3.1-0.4-6.2-0.6-9.3-0.6c-17.6,0-61.4,4.1-144.1,34.7C-20,276.5,7.1,408.3,174.1,491.4
	c167-83.1,194-214.9,153.5-359.2C244.8,101.5,200.9,97.4,183.3,97.4L183.3,97.4z"/>
<path fill="#FFFFFF" d="M216.9,144.2c-1.4,1.2-3.1,2-4.9,2.6l0.5,0.6c4.2-2.2,8.8-3.7,13.5-4.4c-2.7,0.1-5.4,0.3-8.2,0.3
	C217.6,143.7,217.2,144,216.9,144.2z"/>
<path fill="#FFFFFF" d="M264.5,159.2"/>
<path fill="#FFFFFF" d="M264.7,165.6L264.7,165.6c0,0,0,0.1,0,0.1C264.7,165.7,264.7,165.6,264.7,165.6z"/>
<path fill="none" d="M264.7,165.6L264.7,165.6"/>
<path fill="#0C2234" d="M229.5,163.9l1.9,0.2l2.4-1.4c-1.8-0.2-3.7-0.4-5.6-0.6L229.5,163.9z"/>
<path fill="#FFFFFF" d="M93.2,91.9c2.1-0.7,4.2-1.5,6.2-2.4c-2,0.9-4.1,1.7-6.3,2.3C93.2,91.9,93.2,91.9,93.2,91.9z"/>
<path fill="#FFFFFF" d="M184.2,168c-0.6,0.1-1.2,0.2-1.8,0.3c-3.5,0.4-7.1,0.4-10.6,0.1c-1.4-0.2-3.4-0.2-4.5-0.5
	c-1-0.1-1.9-0.3-2.8-0.6c2.4,2.1,3.7,3.4,12.2,4.9v-0.1c0-0.5,0-1,0.1-1.4c0.1-0.4,0.3-1,0.9-1.1h0.3c2.3,0,4.6-0.2,6.8-0.6h0.2
	l0.1,0.1c0,0,0.9,0.8,1.8,1.6c0.7,0.6,1.4,1.2,2.2,1.6l0,0c1.7-0.7,3.4-1.7,4.8-3C191.2,168.8,186.8,168.5,184.2,168z"/>
<path fill="#FFFFFF" d="M165.5,165.2c0.4,0.1,0.7,0.2,1.1,0.2c1.1,0.2,2.5,0.4,3.9,0.6c2.2,0.2,4.5,0.3,6.7,0.2
	c-4.2-0.8-8-1.6-12.4-2.6c0.1,0.3,0.2,0.7,0.3,1.2S165.2,165.2,165.5,165.2z"/>
<path fill="#FFFFFF" d="M221.4,124.5c0-0.9,0.1-2.4,0.1-3.6v-0.4c-0.4-0.3,0.2-0.3-0.1-0.6c-0.1-1-0.2-2-0.2-3.1l0.1-0.7
	c-0.2-0.1-1.2-0.9-1.4-1c-7.9-4-16.7-7.6-28.6-8.8c-2.7-0.3-4.2-0.4-7-0.6l19.7,17.8c2-0.4,4-0.5,6.1-0.3c0.5,0,0.4-0.1,0.8-0.1
	c-0.2-2-1.3-4.4-3-7.2c4.3,1.9,7,7.2,7,7.2s0.1,0.3,0.1,0.4C217.1,123.7,219.3,124,221.4,124.5z"/>
<path fill="#FFFFFF" d="M203.1,144.8c0.4,0.4,0.7,0.7,1.2,1.1c0.1,0.1,0.2,0.2,0.3,0.3c4.5-0.4,8.6-1.4,11.3-3.5
	c1.9-1.3,1.6-2,1.3-3.5c-2.5,1.9-3.7,2.6-5.8,2.9c-0.4,0.5-0.9,0.9-1.4,1.3c-1.3,1-2.7,1.6-4.3,1.8c0.7-0.9,1.4-1.8,2.1-2.8
	c-1.4-0.1-2.7-0.4-4-0.9c-0.6-0.3-1.2-0.6-1.8-1.1c-0.1,1-0.3,2.1-0.6,3.1C202,143.7,202.6,144.2,203.1,144.8z"/>
<path fill="#FFFFFF" d="M94.7,139.4c-1.1,2.7,12-0.7,11.7-0.7C103.5,137.3,96.9,136.2,94.7,139.4z"/>
<path fill="#FFFFFF" d="M99.3,142.3c7.4,2.3,7.7-1.2,15-1.3C109.1,139.5,99.3,142.3,99.3,142.3z"/>
<path fill="#FFFFFF" d="M109.5,143.1c-7.9,2,8.4,1.8,12.5,0C118.1,141.2,113.5,141.2,109.5,143.1z"/>
<path fill="#FFFFFF" d="M125.3,152.4l-1.3,0.7c0,1.9,0,3.9,0.1,5.9l0,0l2.9-1.2c1.2-0.5,2.5-1,3.7-1.5l0,0l-1.2-0.2l-1.1-0.1v-0.1
	l-0.2-0.1l0.1-0.2h-0.1c0-0.1-0.1-0.1-0.1-0.2c-0.1-0.2-0.1-0.5-0.1-0.7c0-0.2,0-0.3,0.1-0.4v-0.3l0.8-0.7l0,0
	c4.1-2.6,8.6-4.5,13.3-5.7h0.1c1.2-0.1,2-0.2,2.8-0.2c0.5,0,1,0,1.4,0.1c0.3-1.1,0.6-2.2,0.8-3.3c-3.4,0.7-6.8,1.7-10,3
	C133.1,148.7,129.2,150.4,125.3,152.4z"/>
<path fill="#FFFFFF" d="M230.2,164.9l1.2-0.7l-1.9-0.2L230.2,164.9z"/>
<path fill="#FFFFFF" d="M232.3,167.8c9.5-0.6,17.3-1.4,22.7-1.9c-5.3-0.3-12.5-0.7-21.1-1.5l-2.4,2L232.3,167.8z"/>
<path fill="#FFFFFF" d="M227.9,168.1l2.4-0.1l-0.6-0.8L227.9,168.1z"/>
<path fill="#FFFFFF" d="M227.7,163.8l-3.9-0.4c-11.2-1.2-22.9-2.8-34.9-4.7c-0.4,0.1-0.9,0.2-1.3,0.2c-0.9,0.1-1.8,0.1-2.7,0.1
	c-2.7,0-5.4-0.3-8.1-1c-3.4-0.8-6.8-1.9-10.1-3.3l-0.3-0.1l0,0c-4.1-0.8-8.1-1.6-12.1-2.5c-1.7-0.3-3.3-0.6-4.9-1.1
	c-2.2-0.7-4.6-1.1-6.9-1.2c-0.3,0-0.7,0-1,0.1c-3.5,0.9-6.8,2.2-9.9,3.9l3.1,0.8l6.9,1.6c3.9,0.9,8.2,1.9,13.4,3.1
	c9.7,2.2,18,4,25.4,5.4c7.6,1.6,15.4,2.8,23.1,3.6c3,0.2,6.1,0.3,9.5,0.3c3.9,0,7.7-0.1,10.9-0.3l1.6-0.1l3.2-2.6L227.7,163.8z"/>
<path fill="#FFFFFF" d="M177.9,150.1c-6.9-2.7-9.3-3.4-11.3-4c0,0.2,0,0.3-0.1,0.5c-0.1,1.1-0.2,2.2-0.3,3c0,0.5,0,1,0.1,1.5
	c0.4,1.1,1.4,1.8,2.5,2c2.1,0.7,5.1,1.6,8.5,2.4c2.8,0.7,5.7,1.1,8.6,1.1c1.1-0.1,2.2-0.2,3.3-0.5h-0.1l0.2-0.1
	C185.9,153.5,182,151.6,177.9,150.1z"/>
<path fill="#FFFFFF" d="M185.6,111.8c-2.4-2.1-5.6-5-7.5-6.6c-7.4-0.2-13.8,0.5-20.9,3.7c0.3,0.8,0.5,1.7,0.8,2.4
	c0.3,1.2,0.9,2.3,1.7,3.3l0.4,0.2l-0.3,0.3c-0.4,0.6-0.7,1.2-1,1.8c-0.7,1.6-1,3.4-1,5.2c0,3.5,1.2,8.1,5.6,13.5
	c0.6,0,2.6,0.2,4.5,0.2h1.4c1.9-0.1,5.1-0.8,9-0.8c0.8,0,1.5,0.1,2.4,0.1c0.2-0.2,0.3-0.4,0.5-0.6c3-2.6,5.9-0.1,6.8,0.9
	c0.7,0.8,1.2,1.8,1.3,2.9c-0.1,0.1-0.5-0.6-1.5-1.4c-0.9-0.6-3.1-1.9-4.4-0.4c-0.7,0.9-1.1,2-1.3,3.2l-0.1,0.8l0.3,0.1l2,1.1
	c3,1.7,6,3.6,8.8,5.6l1.1,0.9l0.2,0.2c0.4-0.5,0.8-0.9,1.2-1.4c0.9-1.2,1.7-2.6,2.3-4c1.1-2.8,1.5-6,0.8-8.2c-1-2.7-2.3-5.4-3.9-7.8
	c0-0.3,2.3,0.5,4.4,3.4c0.2-1.7,0.6-3.3,1.1-4.8C197.2,122.3,191.1,116.7,185.6,111.8z M191.3,127.3c-0.1,0-0.3,0-0.4,0
	c-0.9-0.2-1.8-0.4-2.6-0.8c-1.3,0.8-6.2,3.6-11.5,3.6h-0.1c-0.5,0-0.9,0-1.4-0.1l-2.3-0.3l2-1h0.1l0.2-0.1l0.8-0.4
	c0.7-0.4,1.6-0.9,2.5-1.6c1.8-1.2,3.4-2.8,3.5-3.8v-0.1c-0.1-0.2-0.3-0.4-0.4-0.6c-0.5-0.6-1-1.1-1.6-1.6c-0.9,1.1-2.3,1.8-3.8,1.8
	h-0.2c-2.5,0.1-4.5-1.7-4.8-4.2c0,0,0-0.1,0-0.1V118c0-0.5,0.1-1,0.3-1.4c-2.9-0.8-5.8-1.5-8.8-1.9l-0.9-0.2l0.4-0.9l0,0
	c0-0.1,0.1-0.2,0.1-0.2c0.1-0.2,0.3-0.5,0.5-0.9c0.6-0.9,1.3-1.8,2-2.6c1.9-2.3,4.7-3.7,7.7-3.8l0,0c1.4,0,2.7,0.4,4,0.9l0.2,0.1
	v0.1l0,0.1l0,0v0.1l0.2,0.4c0.1,0.3,0.4,0.8,0.6,1.4c0.7,1.6,1.6,3.1,2.5,4.5c2.2,3.5,5.6,7.4,9.9,9.3c0.4,0.2,0.8,0.3,1.3,0.3h0.1
	c0.8,0,1.6-0.3,2.3-0.7c0.3-0.2,0.6-0.4,0.9-0.7l0.1-0.1l0.2-0.1h0.1l0.8,0.7l-0.1,0.2C195,124.4,193.6,127.1,191.3,127.3
	L191.3,127.3z"/>
<path fill="#FFFFFF" d="M124.3,150.6c4-2,8.1-3.6,12.3-5.1c6.6-2.3,11.3-2.5,11.9-2.3c-3.7-1.3-7.5-2.4-11.4-3.2
	c-6.5,1.2-17.2,5.5-26.7,9.9C113.3,149.4,121.3,153.2,124.3,150.6z"/>
<path fill="#FFFFFF" d="M148.6,143.2c0.1,0,0.1-0.1,0-0.1C148.6,143.2,148.6,143.2,148.6,143.2z"/>
<polygon fill="#FFFFFF" points="235.6,162.9 241,158.4 230.2,164.9 220.4,151.3 228.7,165.6 222,171.1 229.8,167.2 235.8,174.7 
	231.5,166.4 235.6,162.9 "/>
<path fill="#0B0C19" d="M227.9,114.8"/>
<path fill="#0B0C19" d="M227.9,114.9"/>
<path fill="#E55826" d="M134.1,101.5l44.5-17.5l42,5.5l13.5,3.5l-1.5,29.5c0,0-18.5-10-25.5-12s-14.5-15.5-59.5-4L134.1,101.5z"/>
<path fill="#FFFFFF" d="M140.5,132.1c0.3-0.1,0.5-0.3,0.8-0.4c1.4-0.7,3.8,0.3,3.8,2.1c0.1,0.7-0.1,1.4-0.7,1.8l0,0l0.7,0.6l0.1-0.1
	c1.4-4,2.1-8.2,2.1-12.4c0-2.1-0.1-4.2-0.4-6.2c-0.4-0.3-0.9-0.8-1.5-1.3l0,0l-0.5-0.4l-0.6-0.4l-0.9-0.7c-1.3-0.9-2.7-1.6-4.1-2.2
	c-2.9-1.4-6.4,0.3-6.2,4.4c-0.2,3.8,1.7,8,4.4,11.6C138.4,129.7,139.4,130.9,140.5,132.1z"/>
<path fill="#0B0C19" d="M104.3,124.8c4.5,2.3,28.1,10.3,28.1,10.3l4-2.9c0,0-12.8-15.6-6-21.2c2.7-2.4,6.7-2.8,9.9-1
	c0,0,7.3-11.3,31.1-21.8c3.8-1.7-14.4,0.2-18.8,2.3s-13.8,2.7-13.8,2.7l29.6-21.6c0,0-21.3,3.2-23.6,5c-2,1.6,18.2-19.5,24.9-23.7
	c-4.7,1.5-16.7,4.9-20.8,8.2c-5.7,4.6,24.1-26.3,29-27.3s-13.5,0-29,16.8c-7.4,8-22.5,24.5-32.3,31.7c-6.6,4.9-18.2,10.8-23.6,11.6
	l-0.1,4.2C93.1,100.9,99.9,122.4,104.3,124.8z"/>
<path fill="#0B0C19" d="M237.4,135.8c-1.7-0.4-6.5-2.7-6.9-4c-0.5-1.9,3.4-2.2,2.7-4.3c-5.2-1-1.9-6.3-3.1-8.7
	c-0.6-1.1-1.1-2.9-2.3-3.8c0.3,1,0.4,2.1,0.1,3.2c-0.2,0.6-1.6,1.2-1.4,1.9s0.1,1-2.5,1.5l-1,0.1c0,1-0.1,2-0.3,3c0,0,3.2,0.8,3,1.2
	c-1,4.4-3.3,8.4-6.5,11.5c0,0,0.6,2.9-0.4,4.3c2.7-0.3,7.9-0.2,9.8-0.5S236.4,137.4,237.4,135.8z"/>
<path fill="#0B0C19" d="M151.9,142.9c-0.5,1.8-1.1,3.5-1.9,5.2c0,0,4.1,1,7.4,1.9c0.6-3.6,1.6-6.4,2.6-7.2
	c2.9-2.2,26.4,8.5,26.4,8.5l1.1-4.4l-9.2-5.3l0.7-4.3l-4.7,0.2c0,0-10.5,2.7-12.9,0.6c-9.3-8.2-4.5-22.9-4.5-22.9l-2.4-4.4l-5.8,3.7
	c2.8,7.5-1.4,21.5-3.1,26.2C148.2,141.4,151.9,142.6,151.9,142.9z"/>
<path fill="#0B0C19" d="M149.6,182.6c12.7,1.6,17.7,16.4,17.7,16.4c3.9-11.5,22.8-10.2,22.8-10.2l-10.9-17.5l-1,3.3
	c-5.4-0.5-10.7-2.3-15.4-5.2c-2.6-1.5-4.1-4.2-4.9-7.3c-7.1-1.4-24.7-4.8-24.7-4.8s-5.5,2.9-8,4.1c-2.8,2.1-4.8,3.4-4.8,3.4
	s17.4-1.4,20.1,3.3c3.8,6.5-4.9,16.5-4.9,16.5S143.1,181.7,149.6,182.6z"/>
<path fill="#0B0C19" d="M214.9,171.4c-7-0.5-18.3-1.8-20-1.8l-1.6,1.9c10.8,2.5,24.2,1.5,24.2,1.5L214.9,171.4z"/>
<path fill="#0C2234" d="M255.1,145.6c-6-2.2-12.3-3.4-18.7-3.3c6.3-0.4,12.3-1.1,14.8-2.7c4.4-2.8,11.3-18.4,11.8-19.7
	c0,0,0-0.1,0-0.1c0-0.4-0.3-0.6-0.6-1.1c-2.4-3-11.8-12.1-11.8-26.4c0-1.6,0.1-3.3,0.4-4.9c1.3-9.2,4.5-20.8,14.6-30.5l0.1-0.2
	l-0.1-0.2c0,0-0.2-0.4-0.5-1.1l0,0v-0.2l-0.2-0.1c-3.1-6.1-15.3-29.7-26.1-35.8l-0.1-0.1l-7.7,2l0.2,0.3c0.4,0.7,0.7,1.4,0.9,2.1
	c0.5,1.6,0.8,3.3,0.9,5c0.1,2.9-1.1,5.7-3.2,7.7c-1.4,1.3-3.3,2-5.2,1.9c-3.3-0.1-6.5-1.4-9-3.6c-2.9-2.5-4.5-6.1-4.5-9.8v-0.9
	c0.2-2.8,1.6-6.1,3-8.7c0.8-1.6,1.7-3.1,2.7-4.5l0.1-0.1v-0.1c-0.5-1.2-2.5-2.6-5.5-3.7c-3.8-1.3-7.9-2-11.9-2c-2.8,0-5.6,0.4-8.3,1
	c-13.3,2.9-30.2,12.3-44.6,28.4s-27,30.6-42.7,39.5c-14.4,8.3-18.1,8.6-18.5,8.6h-0.4v0.4c0,0,3.2,35,15.2,44.9
	c8.9,7.3,23.4,10.9,30.4,12.4c-1.9,0.6-3.9,1.4-6,2.1l-0.8,0.3l-0.2,0.1c-2.5-0.8-6.1-1.8-10.2-3c-2.3-0.7-4.7-1.4-7.4-2.3
	c-2.2-0.8-4.5-1.4-6.8-1.5c-0.8,0-1.6,0.1-2.4,0.3c-2.6,0.4-5.9,2.7-6,6c0,0.9,0.2,1.7,0.6,2.5l0,0c3.1,3.4,6.9,3,10.2,4.3
	c2.3,0.6,4.6,1.2,6.8,1.7v0.1c-0.3,1.4-0.4,2.8-0.4,4.2v0.5c-0.1,1.1,0.2,2.1,0.8,3l0,0c0.8,0.5,1.7,1,2.6,1.3
	c3,1.2,6.2,2.1,9.4,2.6h0.1c0.3,0,0.6,0.1,1,0.1c-1.6,1.5-3.4,2.9-5.3,4.1l0.2,0.5c1.2-0.1,4.3-0.4,7.9-0.4c5.7,0,12.4,0.8,14,3.7
	c0.2,0.4,0.3,0.8,0.2,1.2c0,2.4-2.1,6.7-4.4,10.3c-1.1,1.8-2.3,3.5-3.3,4.8c-0.6,0.8-1.2,1.5-1.9,2.2l0.2,0.5c1.6-0.7,3.3-1.3,5-1.8
	c3.5-1.1,7.1-1.7,10.7-1.8c2.8-0.1,5.6,0.6,8,2c5.7,3.7,11,6.8,14,20.7h0.6c0.2-0.8,0.5-1.7,0.8-2.5c1.8-4.5,7-13.5,19.1-13.7h0.5
	c10.2,0,15.4,5.2,21.4,14.2l0.5-0.3c-0.3-0.6-0.5-1.3-0.7-1.9c-0.5-1.6-0.7-3.2-0.7-4.9c0-3.9,1.5-8.8,7.4-13.1
	c1.7-1.2,3.8-1.8,5.9-1.7c4,0,8.9,1.7,14.1,4.2l0.5,0.3l-0.1-0.6c0,0-1.4-5.6-8.4-10.3c-2.5-1.6-7.8-5-10.7-6.8c1.2,0,2.3,0,3.5-0.1
	c0.4,0.2,1.4,0.8,1.8,1c6.3,2.8,12.2,5.1,17.5,5.7c1.7,0.2,3.3,0.3,5,0.3c6.8,0,11-1.9,12.7-3.2l0.1-0.1v-0.1l0,0
	c0-0.1-0.1-0.2-0.2-0.3c-0.2-0.1-0.4-0.1-0.7-0.1c-1.5-0.1-3.1-0.4-4.5-0.8c-2.8-1.1-5.4-2.7-7.6-4.8c6.2-0.7,11.1-1.3,14.5-1.8
	c1.8-0.3,3.1-0.5,4-0.6l1-0.2l0.3-0.1l0.3,0.1v-0.4c0,0,0,0,0,0.1c0,0,0-0.1,0-0.1l0,0c0-0.1-0.1-0.3-0.2-0.3
	c-0.7-0.1-1.3-0.2-2-0.3c-3.4-0.3-11-0.8-22.2-1.9c3.1-1.4,6.2-2.5,9.4-3.5c2.1-0.7,4.3-1.1,6.5-1.1c2.8,0.1,5.5,0.4,8.2,1l0,0
	c3.2,0.8,4.5,1.1,5.5,1.3l0.5,0.1l-0.1-0.5C269.9,159.6,267,150.7,255.1,145.6z M233.9,164.4c8.6,0.8,15.8,1.3,21.1,1.5
	c-5.4,0.6-13.2,1.3-22.7,1.9l0.9,1.7c3.1-0.3,5.9-0.6,8.7-0.8c3.5,3.1,6.3,5.1,9,5.8c2,0.5,2.5,0.8,3.2,0.7
	c-1.5,0.5-6.1,1.9-14.8,0.3c-4.6-0.8-9.1-2.6-14.6-5.4c-0.6-0.3,3-0.4,6.5-0.5l0.7-0.1l-1.3-1.7l-2.4,0.1l-6,3l3.5-2.9l-1.6,0.1
	c-3.2,0.1-7,0.3-10.9,0.3c-3.4,0-6.5-0.1-9.5-0.3c-7.8-0.8-15.5-2-23.1-3.6c-7.4-1.4-15.7-3.2-25.4-5.4c-5.2-1.2-9.5-2.2-13.4-3.1
	l-6.9-1.6l-3.1-0.8c3.1-1.7,6.5-3,9.9-3.9c0.3,0,0.6-0.1,1-0.1c2.3,0.1,4.7,0.6,6.9,1.2c1.6,0.4,3.3,0.8,4.9,1.1
	c3.9,0.8,7.9,1.7,12.1,2.5l0,0l0.3,0.1c3.3,1.4,6.7,2.5,10.1,3.3c2.6,0.7,5.4,1,8.1,1c0.9,0,1.8,0,2.7-0.1c0.4-0.1,0.9-0.1,1.3-0.2
	c12,1.9,23.7,3.5,34.9,4.7l3.9,0.4l-1.1-1.9l-2.6-0.3l-3.4-0.4l0,0l0.3,0.1c0,0,0,0.4-0.3-0.1l-0.8-0.1c-3.5-0.4-7.1-0.9-10.9-1.5
	c1-0.4,1.9-1,2.6-1.3s0.8-0.4,1.5-0.8c0.5,0.1,0.6,0.1,1.1,0.2c3.3,0.8,6.4,3,6.7,2.8c0.1,0-0.9-3-4.3-4.7l-0.8-0.3l0.2-0.2
	c0.3-0.4,0.5-0.8,0.6-1.2h1.7c1.4,0.1,2.9,0.3,4.3,0.7l-2.1-3.5l2.7,3.7c1.6,0.4,3.1,1,4.6,1.7c2.8,1.3,5.4,3,7.7,5.1l2.5-1.5
	c-1.4-1.4-3-2.6-4.7-3.7c-1.3-0.7-2.6-1.3-3.7-1.8c-1.6-0.6-3.3-1.1-4.9-1.5c2.4-0.1,4.6-0.2,6.6-0.2h6.2c0.1,0,0.3,0,0.4-0.1
	c0.2,0,0.3-0.2,0.3-0.4l0,0c-0.1-0.3-0.2-0.2-0.2-0.3c-0.9-0.4-7.3-2-14.6-2.1c-1.5,0-3,0.1-4.4,0.2c-0.4,0.1-1.4,0.1-1.9,0.2
	c-0.5-0.7-1-1.4-1.6-2c4.8-2.6,11.2-3.6,16.2-3.9c1.1-0.1,2.2-0.1,3.4-0.1c6.4,0,13.1,0.9,17.4,2.6c5.7,2.3,10.6,6,14.3,10.9
	c-1-0.3-2.7-0.6-4.5-1.1c-2.2-0.5-4.5-0.8-6.8-0.8c-2.4,0-4.8,0.3-7.1,1c-3,0.9-6,2.5-9.4,3.8l-0.4-0.4l-2.2,1.9l0.6,0.5l-1.1-0.1
	L233.9,164.4z M193.2,171.5l1.6-1.9c1.7,0,13,1.3,20,1.8l2.6,1.6C217.4,173,204,173.9,193.2,171.5L193.2,171.5z M140.4,168.2
	c-2.7-4.6-20.1-3.3-20.1-3.3s1.9-1.3,4.8-3.4c2.5-1.3,8-4.1,8-4.1s17.7,3.4,24.7,4.8c0.8,3.1,2.4,5.8,4.9,7.3
	c4.7,2.9,9.9,4.6,15.3,5.2l1-3.3l10.9,17.5c0,0-18.9-1.3-22.8,10.2c0,0-5-14.8-17.7-16.5c-6.4-0.8-14,2.2-14,2.2
	S144.2,174.7,140.4,168.2L140.4,168.2z M100.2,82.9c15.7-7.9,30.4-23.5,42.6-37c4.3-5,8.3-9.7,12.3-13.9c7-8,15.3-12.9,22.8-16.8
	c7.5-3.9,14.6-6.2,20.5-6.8c4.6-0.4,9.2,0,13.6,1.2c1.2,0.3,2.3,0.7,3.4,1.3l0,0c-0.3,0-4.9,3.6-7,9.7c-1.2,3.6-1.3,7.5-0.1,11.1
	c0.9,2.7,2.6,5.1,5,6.8c-0.1,0.2-0.2,0.2,0,0l0.3,0.2c11,8.8,21.9,4.9,25.2-0.5c2.7-4.2,3.2-9.4,1.4-14c1.9,2.4,5.1,6.4,9.1,12.2
	c3.3,4.9,7.2,11.1,11.2,18.4l0.5,0.9c-0.2,0.2-0.5,0.8-0.7,0.8c-0.8,0.8-1.5,1.7-2.2,2.6c-1.5,1.8-2.8,3.8-4.1,5.8
	c-2.7,4.3-4.8,9-6.3,13.9c-2.9,10.2-3.7,22.7,1.7,34.5c0.7,1.5,1.6,2.9,2.6,4.2c0.5,0.7,1.1,1.3,1.7,1.9c0.3,0.3,0.7,0.6,1.1,0.9
	l0.1,0.1c-0.3,0.7-0.6,1.4-0.8,2.1c-5-2.6-10.9-9.1-11.4-26.1v-3.6c0.1-13.6,3.2-22.7,6.3-28.3c1.2-2.2,2.6-4.2,4.2-6
	c0.6-0.7,1.2-1.3,1.9-1.8l0.3-0.2l-0.2-0.3c0,0-2.1-3.8-4.7-8s-4.5-8-6.7-9.4l-0.4-0.3l-0.1,0.5c-0.2,0.5-0.4,1-0.7,1.5
	c-2.5,5.2-7.9,8.4-13.7,8.1c-4.8-0.1-9.5-1.1-13.8-3c-10.8-5-13-13.2-13-19.3c0-2.3,0.4-4.6,1.2-6.8c0.4-1.2,0.9-2.3,1.7-3.3
	l0.8-0.7h-1.1c-13.4,1-26.3,5.8-37.2,13.7l-0.1,0.2c0.3-0.2,0.4-0.3-0.1,0.1c-0.1,0.1-0.1,0.2-0.2,0.3c-0.4,0.2-0.5,0.3-0.6,0.3
	c-1.2,0.9-2.4,1.9-3.6,2.8c-18.1,15.2-26.4,28.7-37.7,39c-4.7,4.3-9.8,8.2-15.2,11.7c-3.4,2.2-7,4.2-10.8,5.9
	c-2,0.9-4.1,1.7-6.2,2.4c0,0,0-0.1,0-0.1L92.7,92c-0.2-0.4-0.5-4.6-0.7-5.1c0-0.1-0.1-0.3-0.1-0.4c0.3-0.1,0.5-0.2,0.8-0.3l2.9-1.1
	C97.4,84.3,98.4,83.8,100.2,82.9z M160.4,162.7l2.2,0.5c0,0.4,0.1,1,0.1,1.6v0.3c-0.7-0.3-1.3-0.6-1.9-1.1
	C160.7,163.6,160.5,163.2,160.4,162.7L160.4,162.7z M109.9,150.8c0.3,0.1,0.6,0.2,0.8,0.3c0.7,0.2,1.4,0.4,2.1,0.6
	c1.4,0.3,2.8,0.6,4.1,0.8s2.4,0.4,3.6,0.5l0.6,0.1l0.7,0.2c0,1.8-0.1,3.7-0.1,5.7v1.4c-0.3,0-0.7-0.1-1-0.2c-3-0.6-6-1.5-8.9-2.6
	c-1.9-0.7-2.3-0.7-2.2-2.6C109.7,153.6,109.7,152.2,109.9,150.8L109.9,150.8z M94.7,144.7c-0.8-0.3-1.5-0.8-2-1.4
	c-0.7-1-0.3-2.6,0.4-3.7c1-1,2.3-1.7,3.7-2c0.4-0.1,0.8-0.2,1.1-0.2c1.6-0.3,3.3-0.2,4.9,0.3l3.4,1c-1.9,0-3.8,0.3-5.7,0.7
	c-1.5,0.4-2.9,1-4.1,1.9c-0.6,0.4-1.1,0.9-1.4,1.6C94.8,143.4,94.7,144.1,94.7,144.7L94.7,144.7z M96,143.4c0.6-0.6,1.3-1.2,2.1-1.5
	c1-0.4,2-0.8,3-1.1c2.6-0.6,5.3-1.1,8-1.4l5.1,1.5c-1.7,0-3.5,0.3-5.2,0.8c-1.6,0.4-3,1.1-4.3,2.1c-0.5,0.4-0.8,0.8-1.1,1.4
	c-0.3,0.6-0.4,1.3-0.3,1.9l-1.4-0.4c-2.1-0.7-4.6-1.1-6.6-1.8C95.5,144.4,95.7,143.9,96,143.4L96,143.4z M132.9,116.8
	c-0.1-4.1,3.4-5.8,6.2-4.4c1.4,0.6,2.8,1.3,4.1,2.2l0.9,0.7l0.6,0.4l0.5,0.4l0,0c0.7,0.6,1.2,1,1.5,1.3c0.3,2.1,0.4,4.2,0.4,6.2
	c0,4.2-0.7,8.4-2.1,12.4l-0.1,0.1l-0.7-0.6l0,0c0.6-0.4,0.8-1.1,0.7-1.8c0-1.8-2.4-2.8-3.8-2.1c-0.3,0.1-0.5,0.3-0.8,0.4
	c-1.1-1.2-2.2-2.4-3.2-3.6C134.7,124.8,132.8,120.6,132.9,116.8L132.9,116.8z M215.3,94.8c4.8,1.6,7,3.4,7.1,3.3v0.2
	c0.5,0.3,1,0.6,1.4,1c2.8,2.1,4.6,4.1,4.4,4.3s-2.3-0.6-5.3-1.4l0.2,0.5c0.5,2.5,1.1,5,1.9,7.5c0.3,1.2,0.7,2.5,1.1,4
	c0.2,0.7,0.4,1.5,0.6,2.3c0.4,1.1-0.3,0.2-1.1,1.9c0,0.9,0.1,1.5-0.8,1.7c-0.4,0.2-0.9,0.3-1.4,0.4l-0.2,0.1c-0.1-1-0.1-2-0.2-3.1
	l-0.1-0.6c1,0.8,1.6,0.9,1.6,1c0.7-0.3-1.7-3.3-5.6-4.9c-0.5-0.3-1.1-0.5-1.6-0.7c-6.3-3.1-12.9-5.3-19.8-6.5
	c16.4,2.4,27.8,8.7,27.1,9.4c1.7-1.6-12.6-11.8-32.5-13.3c-8.4-0.9-16.9-0.4-25.1,1.7c-5,0.8-9.8,2.5-14.2,5.2
	c-1.3,0.9-2.6,1.8-3.8,2.9l-1.9,1.9l-0.2,0.2l-0.7-0.5l-3.4-2.3l0.5-0.5c1.2-1.1,1.4-1.4,2.5-2.5c4.8-4.8,10.5-8.5,16.8-10.9
	c10.1-3.7,20.8-5.5,31.5-5.2C203.1,92,210.5,93.2,215.3,94.8L215.3,94.8z M210.9,156.8c-1.1,0.6-2.3,1.2-3.5,1.5
	c0-0.1-0.1-0.3-0.1-0.4c1.6-1.4,2.1-2.6,1.8-2.8c-0.1,0-0.7,0.7-2,1.5c-0.3-1.5-0.5-3-0.5-4.5c0-1.6,0.3-3.2,0.9-4.6
	c0.6-0.1,1.2-0.2,1.8-0.4c0.9,3,0.8,4.8,1,4.9c0.4,0.2,1-2,0.4-5.2c0.5,0.7,1.1,1.7,1.8,2.8c1,1.8,3.4,3.1,1.2,4.9
	C213,155.5,212,156.3,210.9,156.8L210.9,156.8z M146.6,147.4c-0.5-0.1-0.9-0.1-1.4-0.1c-0.8,0-1.6,0.1-2.8,0.2h-0.1
	c-4.7,1.2-9.2,3.1-13.3,5.8l0,0l-0.8,0.7v0.2c0,0.1,0,0.3-0.1,0.4c0,0.3,0,0.5,0.1,0.7c0,0.1,0,0.1,0.1,0.2h0.1l-0.1,0.2l0.2,0.1
	v0.1l1.1,0.1l1.2,0.2l0,0l-3.9,1.5l-2.9,1.2l0,0c0-2.1,0-4.1-0.1-5.9l1.3-0.7c3.9-2,7.8-3.7,11.9-5.3c3.2-1.3,6.6-2.3,10-3
	C147.1,145.3,146.8,146.4,146.6,147.4L146.6,147.4z M148.7,143.2v-0.1C148.7,143,148.8,143.2,148.7,143.2L148.7,143.2z M202,140.2
	c0.5,0.4,1.1,0.8,1.8,1.1c1.3,0.5,2.6,0.9,4,0.9c-0.7,1-1.4,1.9-2.1,2.8c1.6-0.2,3.1-0.8,4.3-1.8c0.5-0.4,1-0.8,1.5-1.3
	c2.1-0.3,3.3-0.9,5.8-2.9c0.3,1.5,0.5,2.2-1.3,3.5c-2.7,2.1-6.9,3.1-11.3,3.5c-0.1-0.1-0.2-0.2-0.3-0.3c-0.4-0.3-0.8-0.7-1.2-1.1
	c-0.5-0.6-1.1-1-1.8-1.4C201.6,142.2,201.8,141.2,202,140.2L202,140.2z M207.8,115.9c1.5,2.2,2.5,4.7,3,7.2c-0.5,0-0.4,0.1-0.8,0.1
	c-2-0.1-4.1,0-6.1,0.3l-19.8-17.7c2.8,0.2,4.4,0.4,7,0.6c11.9,1.1,20.7,4.8,28.6,8.8c0.2,0.1,1.2,0.9,1.4,1l-0.1,0.7
	c0.1,1.1,0.2,2.1,0.2,3.1c0.3,0.3-0.3,0.2,0.1,0.6v0.4c0,1.2-0.1,2.6-0.1,3.6c-2.1-0.5-4.3-0.8-6.5-0.9c0-0.2-0.1-0.3-0.1-0.4
	C214.7,123.1,212.1,117.8,207.8,115.9L207.8,115.9z M199.2,130.6c-2.1-2.8-4.3-3.7-4.4-3.4c1.6,2.5,2.9,5.1,3.9,7.8
	c0.7,2.1,0.3,5.4-0.8,8.2c-0.6,1.4-1.4,2.8-2.3,4c-0.4,0.5-0.8,0.9-1.2,1.4l-0.2-0.2l-1.1-0.9c-2.8-2-5.8-3.9-8.8-5.6l-2-1.1
	l-0.3-0.1l0.1-0.8c0.2-1.2,0.6-2.3,1.3-3.2c1.3-1.6,3.5-0.3,4.4,0.4c1,0.8,1.3,1.5,1.5,1.4c-0.1-1.1-0.6-2.1-1.3-2.9
	c-0.9-0.9-3.9-3.4-6.8-0.9c-0.2,0.2-0.3,0.4-0.5,0.6c-0.8-0.1-1.6-0.1-2.4-0.1c-3.9,0-7.1,0.7-9,0.8h-1.4c-1.8,0-3.9-0.1-4.5-0.2
	c-4.4-5.4-5.6-10.1-5.6-13.5c0-1.8,0.3-3.5,1-5.2c0.3-0.6,0.6-1.3,1-1.8l0.3-0.3l-0.4-0.2c-0.8-1-1.4-2.1-1.7-3.3
	c-0.3-0.8-0.6-1.6-0.8-2.4c7.1-3.2,13.5-3.9,20.9-3.7c1.9,1.6,5.1,4.5,7.5,6.6c5.5,4.8,11.6,10.4,14.6,13.9
	C199.7,127.3,199.3,128.9,199.2,130.6L199.2,130.6z M148.8,114.4l5.8-3.7l2.4,4.4c0,0-4.8,14.7,4.5,22.9c2.4,2.1,12.9-0.6,12.9-0.6
	l4.7-0.2l-0.7,4.3l9.2,5.3l-1.1,4.4c0,0-23.5-10.6-26.4-8.4c-1,0.8-2.1,3.6-2.6,7.2c-3.3-0.9-7.4-1.9-7.4-1.9
	c0.7-1.7,1.3-3.4,1.9-5.2c0-0.4-3.8-1.6-6.3-2.3C147.4,135.9,151.7,122,148.8,114.4L148.8,114.4z M189.4,155.9
	c-1.1,0.3-2.2,0.4-3.3,0.5c-2.9,0-5.8-0.4-8.6-1.1c-3.3-0.8-6.3-1.7-8.5-2.4c-1.1-0.2-2.1-0.9-2.5-1.9c-0.1-0.5-0.1-1-0.1-1.5
	c0.1-0.8,0.1-1.8,0.3-3c0-0.2,0-0.3,0.1-0.5c2,0.6,4.3,1.3,11.3,4C182,151.5,185.9,153.5,189.4,155.9l-0.2,0L189.4,155.9z
	 M161.1,144.7l0.3,0.2c0.2-0.3,0.5-0.5,0.8-0.4c0.5,0,0.9,0.1,1.4,0.2v4.4c0,0.9,0.3,1.9,0.9,2.6l0.1,0.2l-4.2-0.9
	c0.1-0.8,0.2-1.6,0.3-2.3c0.1-1.1,0.3-2,0.5-2.7c0.1-0.4,0.2-0.8,0.4-1.2L161.1,144.7z M141.7,132.8c2.4-0.8,3.1,2.4-0.1,2.9
	c-1.3,0.9-2.5,2-3.6,3.2l-0.8-0.2c-0.9,0-1.7,0.1-2.6,0.2C136.5,136.4,138.9,134.3,141.7,132.8L141.7,132.8z M212.6,147.4
	c-0.2-0.2-0.4-0.4-0.5-0.6c1.8-0.6,3.4-1.5,4.9-2.6c0.4-0.2,0.7-0.5,1-0.8c2.7-0.1,5.5-0.2,8.2-0.3
	C221.4,143.7,216.8,145.2,212.6,147.4L212.6,147.4z M218.8,141.6c1-1.3,0.4-4.3,0.4-4.3c3.2-3.1,5.5-7.1,6.5-11.5
	c0.1-0.4-3-1.2-3-1.2c0.2-1,0.3-2,0.3-3l1-0.1c2.6-0.5,2.7-0.8,2.5-1.5s1.2-1.3,1.4-1.9c0.2-1.1,0.2-2.1-0.1-3.2l0,0v-0.1
	c0.1,0.1,0,0.1,0,0.1l0,0c1.1,0.9,1.7,2.7,2.3,3.8c1.2,2.4-2.1,7.8,3.1,8.7c0.7,2.1-3.2,2.4-2.7,4.3c0.3,1.4,5.1,3.6,6.9,4
	c-1,1.5-6.8,5.1-8.8,5.4S221.5,141.4,218.8,141.6L218.8,141.6z M148.6,143.2c-0.7-0.2-5.3,0-11.9,2.3c-4.2,1.4-8.3,3.1-12.3,5.1
	c-3.1,2.7-11-1.1-13.9-0.8c9.6-4.4,20.2-8.7,26.7-9.9C141,140.8,144.8,141.9,148.6,143.2L148.6,143.2z M120.2,143.8l-1.4,0.5
	l-0.7,0.3l-1.4,0.5l-0.6,0.2c-0.7,0.3-1.3,0.5-2,0.8c-0.4,0.1-0.7,0.3-1.1,0.5l-0.7,0.3l-0.3,0.1l-0.9,0.4H111
	c-0.6,0.3-1.2,0.6-1.8,0.9l-5.3-1.3c0.1-0.6,0.3-1.1,0.6-1.5c0.5-0.6,1.2-1.1,1.9-1.5c1-0.5,2-0.9,3.1-1.1c2.5-0.6,5.1-1.1,7.7-1.4
	c1.4,0.4,3.2,0.9,4.8,1.4L120.2,143.8z M177.3,166.2c-2.2,0.1-4.5,0-6.7-0.2c-1.5-0.2-2.8-0.3-3.9-0.6c-0.6-0.1-0.6-0.1-1.1-0.2
	c-0.3,0.1-0.1,0.1-0.4-0.3c-0.1-0.4-0.2-0.8-0.3-1.2C169.3,164.7,173.1,165.4,177.3,166.2L177.3,166.2z M189.3,172.1L189.3,172.1
	c-0.8-0.4-1.6-0.9-2.3-1.6c-1-0.8-1.8-1.6-1.8-1.6l-0.1-0.1h-0.2c-2.3,0.4-4.5,0.6-6.8,0.6h-0.2c-0.7,0.1-0.8,0.6-0.9,1.1
	c-0.1,0.5-0.1,1-0.1,1.4v0.1c-8.5-1.4-9.8-2.7-12.2-4.9c0.9,0.3,1.8,0.5,2.8,0.6c1.1,0.3,3.1,0.3,4.5,0.5c3.5,0.3,7.1,0.3,10.6-0.1
	c0.6-0.1,1.2-0.2,1.8-0.3c2.6,0.5,7,0.7,9.9,1.1C192.7,170.4,191,171.4,189.3,172.1L189.3,172.1z M235.5,30.1c0.1-1.7,0-3.3-0.3-5
	c-0.1-0.7-0.3-1.4-0.7-2.1c-0.1-0.2,0.2-0.5,0.7-0.6c1.9-0.6,3.1-0.6,3.1-0.8c-0.4,0,1.9,4.5-0.5,11.4c-1,3.1-3.2,5.7-6.2,7.2
	c-0.5,0.1-1,0.2-1.4,0.2C234.5,38.1,235.3,33.2,235.5,30.1L235.5,30.1z M238.8,22.2l0.1,0.1v0.2C238.8,22.4,238.8,22.3,238.8,22.2
	L238.8,22.2z M92.8,98.1l0.1-4.1c5.3-0.8,17-6.7,23.6-11.6c9.8-7.2,24.9-23.8,32.3-31.7c15.5-16.8,33.8-17.8,29-16.8
	s-34.7,31.8-29,27.2c4.1-3.3,16.1-6.7,20.8-8.2c0.5-0.3,1-0.6,1.5-0.7c1.1-0.1,0.3,0.2-1.5,0.7c-6.6,4.1-26.9,25.3-24.9,23.7
	c2.2-1.8,23.6-5,23.6-5l-29.5,21.7c0,0,9.4-0.7,13.8-2.7s22.6-3.9,18.8-2.3c-23.8,10.5-31.1,21.8-31.1,21.8c-3.2-1.8-7.1-1.4-9.9,1
	c-6.9,5.7,6,21.2,6,21.2l-4,2.9c0,0-23.6-8-28.1-10.3S93.1,100.9,92.8,98.1z"/>
<path fill="#0C2234" d="M196.3,122.6l-0.8-0.7h-0.1c-0.2,0-0.1,0-0.2,0.1l-0.1,0.1c-0.3,0.3-0.6,0.5-0.9,0.7
	c-0.7,0.4-1.5,0.7-2.3,0.7h-0.1c-0.4,0-0.9-0.1-1.3-0.3c-4.3-1.9-7.6-5.8-9.9-9.3c-0.9-1.4-1.8-2.9-2.5-4.5
	c-0.3-0.6-0.5-1.1-0.6-1.4l-0.2-0.4v-0.1l0,0l0-0.1v-0.1l-0.2-0.1c-1.3-0.6-2.6-0.9-4-0.9l0,0c-3,0.1-5.8,1.5-7.7,3.8
	c-0.7,0.8-1.4,1.7-2,2.6c-0.2,0.3-0.4,0.7-0.5,0.9l-0.1,0.2l0,0l-0.4,0.9l0.9,0.2c3,0.5,5.9,1.1,8.8,1.9c-0.2,0.4-0.3,0.9-0.3,1.4
	v0.1c0,0,0,0.1,0,0.1c0.2,2.4,2.3,4.3,4.8,4.2h0.2c1.5,0,2.9-0.7,3.8-1.8c0.6,0.4,1.1,1,1.6,1.6c0.2,0.2,0.3,0.4,0.4,0.6v0.1
	c-0.1,1-1.7,2.7-3.5,3.8c-0.9,0.6-1.8,1.2-2.5,1.6l-0.8,0.4l-0.2,0.1h-0.1l-2,1l2.2,0.3c0.5,0.1,0.9,0.1,1.4,0.1h-0.1
	c5.2,0,10.2-2.8,11.5-3.6c0.8,0.3,1.7,0.6,2.6,0.8h0.4c2.3-0.1,3.7-2.9,4.8-4.4L196.3,122.6z"/>
<path fill="#0C2234" d="M134.2,116.2c0.6,0.1,1.3-0.3,1.9-0.2c0.7,0.3,1.3,0.7,1.8,1.3c1.2,1.2,2.2,2.6,3.1,4.1
	c-2.6,0.5-3.4,3.1-2.5,5.4c0.5,1.1,1.2,2,2.1,2.7c0.6,0.5,2.2,1.6,3.1,1.4c1.1-0.2-0.2-1.6-0.5-2.1c-0.8-1-1.4-2.1-1.6-3.4
	c-0.1-1,0.5-1.8,1.5-1.4c0.4,0.2,0.4,0.3,0.6,0.5s0.3,0,0.4,0.3c0.7-0.5,1.4-1,2.1-1.6l0,0c0.2-0.4-0.1-0.3-0.3-0.5
	c-0.5-0.7-0.9-1.5-1.4-2.2c-1-1.5-2.2-3-3.5-4.2c-1.1-1-2.4-2.2-3.9-2.2c-0.8,0-1.6,0.2-2.2,0.7
	C134.7,114.9,133.4,116.1,134.2,116.2z"/>
<path fill="#FFFFFF" d="M270.5,151.4c-3.6-4.6-8.3-8.3-13.8-10.5h-0.1l-0.6-0.2c0,0,0.1-0.1,0.1-0.1c1.4-1.7,2.7-3.5,3.8-5.4
	c1.8-2.9,3.4-6.2,4.7-8.8c0.1-0.1,0.1-0.2,0.1-0.3c0.2-0.3,0.4-0.6,0.6-1c0.4-0.8,0.6-1.5,0.9-2.2l0.4-1c0.1-0.3,0.2-0.5,0.4-0.9v0
	l0,0c0.2-0.5,0.2-1,0.2-1.4c0.2-0.7,0.3-1.5,0.3-2.2c-0.7-0.6-5.6-6.2-6.6-7.5l0,0c-1.7-2.3-3-4.7-4.1-7.3l0,0
	c-0.8-2-1.4-4.1-1.7-6.2l0,0c-0.1-0.4-0.1-0.8-0.2-1.2V95c0-0.4-0.1-0.8-0.1-1.2c0-0.1,0-0.2,0-0.2v-1.5c0-1.4,0.1-2.8,0.3-4.2
	c1.3-8.7,4.2-19.2,13.2-27.9l2.5-2.4l-1.4-2.9l-1.5-3.1c-1.9-3.6-5.4-10.2-9.6-16.9c-2.5-3.9-5.2-7.6-8.1-11.1
	c-2.7-3.3-5.9-6.1-9.5-8.4l-1.7-1l-15.1,4l2.8,5.4l0,0c0.7,1.6,1.1,3.2,1.2,4.9c0,0.8-0.1,1.6-0.4,2.3c-0.3,0.8-0.8,1.4-1.4,2
	c-0.6,0.4-1.3,0.6-2,0.6c-2.2-0.1-4.3-1-6-2.4c-1.9-1.6-2.9-3.9-2.9-6.3V24c0-1.6,1.2-4.6,2.5-6.9c0.6-1.2,1.2-2.2,1.7-2.9l0.5-0.8
	l0.1-0.2l0,0l2.2-2.8l-1-1.4c-0.6-1-1.4-1.9-2.2-2.8c-1-1-2.2-1.9-3.5-2.5c-5.2-2.5-10.9-3.7-16.6-3.6c-3.1,0-6.2,0.3-9.3,1
	c-14.4,3.2-32,13-47.1,29.8c-14.2,16-26.8,30.2-41.5,38.6c-4.5,2.7-9.1,5.1-13.9,7.1c-0.7,0.3-2.3,0.7-3,0.9l-4.6,0.9l0.3,4.4
	c0.7,6.5,1.8,13,3.2,19.4c0.2,0.9,0.5,1.9,0.7,2.9h-0.2l0.2,0.5v0.1h0.1c1,4.2,2.4,8.3,4,12.2c2.2,5,4.8,9.6,8.7,12.9
	c-0.5,0.1-1,0.2-1.5,0.3c-2.2,0.4-4.3,1.4-6,2.9c-1,0.9-1.9,1.9-2.5,3.1c-0.7,1.4-1.1,2.9-1.1,4.4c0,1.6,0.4,3.2,1.2,4.6l0.3,0.5
	l0.4,0.4c1.9,2.1,4.5,3.6,7.2,4.3c2.2,0.6,3.8,0.8,4.8,1.2l0.3,0.1l0.3,0.1l2.9,0.8v2.3c0,0.7,0.1,1.3,0.3,2
	c0.3,0.9,0.7,1.8,1.2,2.5l0.5,0.7l0.7,0.5c0.7,0.5,1.5,1,2.4,1.4c0.7,0.3,0.9,0.4,1,0.4l0.2,0.1l0.2,0.1c0-0.1,2.4,8.2,2.4,8.3
	l5-0.7c1.1-0.1,4.1-0.4,7.4-0.4c2.5,0,5.1,0.2,7.6,0.6c0.6,0.1,1.3,0.3,1.9,0.6c-0.3,1-0.7,1.9-1.2,2.9c-1.2,2.4-2.7,4.8-4.2,7
	c-0.7,1-1.4,1.9-1.9,2.4c-0.2,0.3-0.4,0.5-0.5,0.6l0,0l-4,5.6l-0.3,0.5c0,0,3.9,4.2,3.9,4.2c3.4-1.4,6.8-2.7,10.3-3.8
	c2.9-0.9,5.8-1.4,8.8-1.5c1.9-0.1,3.9,0.3,5.5,1.3c2.9,1.9,5.1,3.3,6.9,5.6s5.9,9.7,5.9,17.1l8.3-0.2l0.2,0.1v-0.8
	c0.2-3.8,1.6-7.5,3.9-10.6c1.3-1.7,2.8-3.1,4.7-4.1c2.3-1.3,4.9-1.9,7.5-1.9h0.5c3.4-0.2,6.8,0.8,9.6,2.9c2.6,1.9,5.1,5,8,9.3
	l1.9,3.8l9.4-3l-1.3-2.3c0,0-1.5-3.5-1.6-3.7c-0.5-1.4-0.8-2.9-0.8-4.4c0-1.5,0.3-3,1-4.4c1-2,2.6-3.7,4.5-4.9
	c1-0.6,2.1-0.9,3.2-0.8c2.8,0,7.2,1.3,12.1,3.7l9.4,4.6l0.1-0.2c-0.5-5.3-2.2-10.4-5-15l0.9,0.1l0,0c1.8,0.2,3.7,0.4,5.6,0.4
	c3.2,0,6.5-0.4,9.6-1.3c2.1-0.6,4.1-1.5,5.9-2.8l1.9-1.5v-2.4l0,0c0-1.3-0.5-2.5-1.4-3.4v-0.1l3-0.5l8.1-4.6l0,0l0.3-0.1
	c0,0.2-0.1,0.1-0.1,0.2l5,1.2v0.1C276.1,161.5,273.8,156.1,270.5,151.4z M269.8,160.8c-1-0.2-2.2-0.6-5.5-1.3l0,0
	c-2.7-0.6-5.4-0.9-8.2-1c-2.2,0-4.4,0.4-6.5,1.1c-3.2,1-6.3,2.2-9.4,3.5c11.2,1.1,18.8,1.6,22.2,1.9c0.7,0,1.3,0.1,2,0.3
	c0.1,0,0.2,0.2,0.2,0.3l0,0v0.4l-0.3-0.1l-0.3,0.1l-1,0.2c-0.9,0.2-2.2,0.4-4,0.6c-3.4,0.5-8.3,1.2-14.5,1.8
	c2.2,2.1,4.8,3.7,7.6,4.8c1.5,0.5,3,0.7,4.5,0.8c0.2,0,0.5,0,0.7,0.1c0.1,0.1,0.2,0.2,0.2,0.3l0,0v0.1l-0.1,0.1
	c-1.7,1.2-5.9,3.2-12.7,3.2c-1.7,0-3.3-0.1-5-0.3c-5.4-0.6-11.2-2.9-17.5-5.7c-0.4-0.2-1.4-0.8-1.8-1c-1.4,0.1-2.4,0.1-3.5,0.1
	c3,1.9,8.3,5.2,10.7,6.8c7,4.7,8.4,10.3,8.4,10.3l0.1,0.6l-0.5-0.3c-5.1-2.5-10-4.2-14.1-4.2c-2.1-0.1-4.2,0.5-5.9,1.7
	c-6,4.2-7.4,9.1-7.4,13.1c0,1.6,0.3,3.3,0.7,4.9c0.2,0.7,0.4,1.3,0.7,1.9l-0.5,0.3c-6-9-11.2-14.2-21.4-14.2h-0.5
	c-12.1,0.2-17.2,9.2-19.1,13.7c-0.3,0.8-0.6,1.6-0.8,2.5h-0.5c-3.1-13.9-8.3-17-14-20.7c-2.4-1.4-5.2-2.1-8-2
	c-3.6,0.1-7.2,0.7-10.7,1.8c-1.7,0.5-3.4,1.1-5,1.8l-0.2-0.5c0.7-0.6,1.4-1.4,1.9-2.2c1.2-1.5,2.3-3.1,3.3-4.8
	c2.3-3.6,4.4-7.9,4.4-10.3c0-0.4-0.1-0.8-0.2-1.2c-1.5-3-8.3-3.8-14-3.7c-3.5,0-6.7,0.3-7.9,0.4l-0.2-0.5c1.9-1.2,3.6-2.6,5.3-4.1
	c-0.4,0-0.7-0.1-1-0.1h-0.1c-3.2-0.5-6.4-1.4-9.4-2.6c-0.9-0.3-1.8-0.7-2.6-1.3l0,0c-0.6-0.9-0.8-1.9-0.8-3v-0.5
	c0-1.4,0.1-2.8,0.4-4.2v-0.1c-2.2-0.6-4.5-1.1-6.8-1.7c-3.3-1.3-7.2-0.9-10.2-4.3l0,0c-0.4-0.8-0.6-1.6-0.6-2.5c0-3.3,3.4-5.6,6-6
	c0.8-0.2,1.6-0.3,2.4-0.3c2.3,0.2,4.6,0.7,6.8,1.5c2.6,0.8,5.1,1.6,7.4,2.3c4.1,1.2,7.7,2.3,10.2,3l0.2-0.1l0.8-0.3
	c2.1-0.7,4.1-1.4,6-2.1c-7-1.4-21.5-5.1-30.4-12.3c-12-9.9-15.2-44.9-15.2-44.9v-0.4h0.4c0.4,0,4.1-0.3,18.5-8.6
	c15.6-8.9,28.4-23.6,42.7-39.5s31.2-25.5,44.5-28.3c2.7-0.6,5.5-0.9,8.3-0.9c4.1,0,8.1,0.7,11.9,2c3.1,1.1,5.1,2.5,5.5,3.7v0.1
	l-0.1,0.1c-1,1.4-1.9,2.9-2.7,4.5c-1.4,2.6-2.8,5.9-3,8.7V25c0,3.8,1.6,7.3,4.5,9.8c2.5,2.2,5.7,3.5,9,3.6c1.9,0.1,3.8-0.6,5.2-1.9
	c2.1-2,3.2-4.8,3.1-7.6c0-1.7-0.3-3.4-0.9-5c-0.2-0.7-0.5-1.4-0.8-2.1l-0.2-0.3l7.7-2l0.1,0.1c10.8,6.1,23,29.6,26.1,35.8l0.2,0.1
	v0.2l0,0l0.5,1.1l0.1,0.2l-0.2,0.2c-10.1,9.6-13.3,21.3-14.6,30.5c-0.2,1.6-0.4,3.2-0.4,4.9c0,14.3,9.4,23.5,11.8,26.4
	c0.3,0.4,0.6,0.7,0.6,1.1c0,0,0,0.1,0,0.1c-0.4,1.2-7.4,16.8-11.8,19.7c-2.5,1.6-8.5,2.3-14.8,2.7c6.4-0.1,12.8,1,18.7,3.3
	c11.9,5.1,14.8,13.9,15.1,14.9l0.1,0.5L269.8,160.8z"/>
<path fill="#FFFFFF" d="M160.6,26.8c4.8-1.8,12.7-5.5,17.6-7c-3.5,2-8.8,7.5-10.4,9.6c10.9-7.9,23.7-12.7,37.2-13.7h1.1l-0.8,0.7
	c-0.8,1-1.4,2.1-1.7,3.3c-0.8,2.2-1.2,4.5-1.2,6.8c0,6.1,2.2,14.2,13,19.3c4.4,1.9,9.1,2.9,13.8,3c5.8,0.2,11.1-2.9,13.7-8.1
	c0.3-0.5,0.5-1,0.7-1.5l0.1-0.5l0.4,0.3c2.2,1.4,4.1,5.2,6.7,9.4s4.7,8,4.7,8l0.2,0.3l-0.3,0.2c-0.7,0.5-1.3,1.1-1.9,1.8
	c-1.6,1.8-3.1,3.8-4.2,6c-3.1,5.7-6.2,14.7-6.3,28.3v3.6c0.5,17,6.4,23.5,11.4,26.1l0.8-2.1l-0.1-0.1c-0.4-0.3-0.7-0.6-1.1-0.9
	c-0.6-0.6-1.2-1.2-1.7-1.9c-1-1.3-1.9-2.7-2.6-4.2c-5.4-11.8-4.6-24.3-1.7-34.5c2.2-7.2,5.8-13.8,10.5-19.7c0.7-0.9,1.5-1.7,2.2-2.6
	c0.2,0,0.5-0.6,0.7-0.8l-0.5-0.9c-4-7.4-7.9-13.5-11.2-18.4c-4-5.8-7.2-9.9-9.1-12.2c1.8,4.6,1.2,9.8-1.4,14
	c-3.3,5.5-14.2,9.4-25.2,0.5l-0.3-0.2l0,0c-2.4-1.6-4.1-4-5-6.8c-1.2-3.6-1.1-7.6,0.1-11.2c2.1-6,6.6-9.7,7-9.7
	c-1.1-0.6-2.2-1-3.4-1.3c-4.4-1.2-9-1.6-13.6-1.2c-5.9,0.6-12.9,2.9-20.5,6.8s-15.9,8.8-22.9,16.8c-4,4.2-8,9-12.3,13.9
	c4.5-5,8.6-9.8,12.4-13.7C156.8,30.2,158.6,28.4,160.6,26.8z"/>
<path fill="#FFFFFF" d="M127.4,69.9c-5.3,5.1-11,9.7-17.2,13.8c5.4-3.5,10.5-7.4,15.2-11.7c11.4-10.3,19.7-23.8,37.7-39
	C145.7,47,138.1,59.6,127.4,69.9z"/>
<path fill="#FFFFFF" d="M238.9,22.3l-0.1-0.1l0.1,0.3C238.9,22.4,238.9,22.4,238.9,22.3z"/>
<path fill="none" d="M215.5,11L215.5,11"/>
<path fill="#0B0C19" d="M171.1,52.2c-0.6,0.1-1.1,0.4-1.5,0.7C171.4,52.3,172.2,52.1,171.1,52.2z"/>
<path fill="#CCCCCC" d="M92.7,86.2c-0.3,0.1-0.5,0.2-0.8,0.3c0,0.1,0,0.3,0.1,0.4c0.1,0.4,0.5,4.6,0.7,5.1l0.5-0.2
	c2.1-0.6,4.2-1.4,6.3-2.3c3.7-1.7,7.3-3.6,10.8-5.9c6.1-4,11.9-8.7,17.2-13.8c10.7-10.3,18.4-22.9,35.8-37c1.1-0.9,2.3-1.8,3.6-2.8
	c1.8-1.4,0.2,0,0.6-0.3c0.1-0.1,0.1-0.2,0.2-0.3c0.5-0.3,0.3-0.3,0.1-0.1l0.1-0.2c1.6-2,6.9-7.5,10.4-9.6c-4.9,1.5-12.8,5.2-17.6,7
	c-2,1.6-3.8,3.4-5.4,5.4c-3.7,4-7.9,8.7-12.4,13.7c-12.2,13.6-27,29.2-42.6,37c-1.7,0.9-2.7,1.3-4.6,2.1L92.7,86.2z"/>
<path fill="#FFFFFF" d="M227.3,61.5c-0.5-2.7-0.5-4.5-0.8-4.7s-0.9,1.5-0.8,4c-0.6-0.2-1.2-0.3-1.9-0.5c-0.4-1.9-1.1-3.6-2.2-5.2
	c-2.2-3.3-4.9-3.8-4.9-3.6s2,1.3,3.6,4.4c0.7,1.3,1.2,2.7,1.5,4.1c-0.9-0.1-1.9-0.2-2.8-0.2c-0.4-0.9-0.9-1.8-1.5-2.5
	c-1.7-2-4.2-3.3-6.9-3.6c-4.4-0.5-6.7,0.3-6.8,0.4c-0.1,0.5,2.7,0.4,6.4,1.3c2.6,0.5,4.8,2.1,6.1,4.4c-1.3,0-2.6,0.1-4,0.2
	c-11,1-17.6,8.3-16.6,8.8c0.2,0.2,6.6-5.4,16.9-6.3c1.5-0.2,3-0.2,4.4-0.3c0.1,1.3-0.2,2.5-0.8,3.6c-5.4,10.8-15.2,15.5-14.7,16.1
	c0,0.7,10.9-3,17-15.1c0.7-1.4,1-3,1-4.6c0.9,0,1.8,0,2.7,0.1c0.3,2.4,0.3,4.7,0.1,7.1c-0.4,5.4-1.7,10.2-3.4,13.2s-3.8,4-3.6,4.3
	s2.7-0.3,4.9-3.5s3.8-8.2,4.2-13.9c0.2-2.4,0.2-4.7-0.1-7.1c0.5,0.1,0.9,0.1,1.3,0.2l0.3,0.1c0.2,1.6,0.6,3.1,1.2,4.6
	c2.1,5.5,2.1,9.7,2.3,9.9c0.8,0.3,1.6-5-0.5-10.5c-0.5-1.2-0.9-2.4-1.2-3.6c1.9,0.6,2.9,1.1,3.1,0.9S229.8,62.6,227.3,61.5z"/>
</svg>
