<?xml version="1.0" encoding="utf-8"?>
<!-- Generator: Adobe Illustrator 24.0.1, SVG Export Plug-In . SVG Version: 6.00 Build 0)  -->
<svg version="1.1" id="Calque_1" xmlns="http://www.w3.org/2000/svg" xmlns:xlink="http://www.w3.org/1999/xlink" x="0px" y="0px"
	 width="283.5px" height="283.5px" viewBox="0 0 283.5 283.5" enable-background="new 0 0 283.5 283.5" xml:space="preserve">
<g>
	<path fill="#EB551E" d="M198.3,184.3c-22,40.2-50.7,74.5-59,84.1l-0.6,0.7l-0.7-0.8c-0.2-0.2-0.4-0.4-0.6-0.6
		c-2.1-2.4-5.4-6.2-9.5-11.3c-7.2-8.9-18-22.9-28.8-39.9c-18.7-29.3-41.1-73-41.7-115.3l0-0.4l0.3-0.3c1.1-0.9,2.3-2,3.6-3.1
		c3-2.4,8-6.3,14.7-10.7c11.8-7.9,31.1-19.2,56.2-28.5C161.8,47.3,183.5,45,196.5,45c4.9,0,8.2,0.3,9.8,0.5l0.3,0l0.2,0.2
		c12.9,13.4,19.2,29.9,19.3,50.5C226.1,121,216.8,150.6,198.3,184.3 M210.2,40.5l-0.7-0.7l-0.9-0.2c-0.2,0-4.3-0.8-12.2-0.8
		c-13.5,0-35.9,2.4-66.4,13.6C81.5,70.4,53.4,96.1,52.2,97.2l-1,0.9v1.3c0.1,35.5,14.4,76,42.7,120.4c20.7,32.4,41.6,55.1,42.5,56
		l2.3,2.5l2.2-2.5l0,0c0,0,0,0,0.1-0.1c3.7-4.2,37.3-42,62.7-88.4c18.9-34.7,28.5-65.3,28.5-91C232.2,73.8,224.8,55.1,210.2,40.5"/>
	<path fill="#535759" d="M205.8,47.2c-1.6-0.2-4.7-0.5-9.3-0.5c-12.8,0-34.3,2.3-63.7,13.1c-25,9.2-44.2,20.5-55.9,28.3
		c-6.6,4.4-11.6,8.2-14.5,10.7c-1.2,1-2.3,1.9-3.3,2.7c0.7,41.7,22.9,85,41.5,114c10.8,16.9,21.5,30.9,28.7,39.8
		c4.1,5,7.4,8.9,9.4,11.2c9-10.4,36.8-43.9,58.2-83c18.3-33.5,27.6-62.8,27.6-87.2C224.3,76.3,218.2,60.2,205.8,47.2"/>
	<path fill="#FEFEFE" d="M203.7,187.3c-25.4,46.5-58.9,84.3-62.7,88.4c-0.1,0-0.1,0.1-0.1,0.1l0,0l-2.2,2.5l-2.3-2.5
		c-0.9-1-21.8-23.6-42.5-56c-28.3-44.4-42.6-84.9-42.7-120.4v-1.3l1-0.9c1.2-1.1,29.3-26.8,77.9-44.7c30.5-11.2,52.9-13.6,66.4-13.6
		c7.9,0,12,0.8,12.2,0.8l0.9,0.2l0.7,0.7c14.6,14.5,22,33.3,22,55.8C232.2,122,222.6,152.6,203.7,187.3 M211.4,39.3l-1-1L209,38
		c-0.2,0-4.5-0.9-12.5-0.9c-13.6,0-36.2,2.4-66.9,13.7C80.6,68.9,52.3,94.8,51,95.9l-1.5,1.4l0,2.1c0.1,35.8,14.5,76.6,43,121.3
		c20.8,32.6,41.8,55.3,42.7,56.3l3.5,3.8l3.5-3.9l0.1-0.1c3.8-4.2,37.4-42.1,62.9-88.8c19.1-34.9,28.7-65.8,28.7-91.8
		C233.9,73.4,226.4,54.2,211.4,39.3"/>
	<path fill="#FEFEFE" d="M205.8,47.2c12.5,13,18.6,29.1,18.6,49.1c0.1,24.4-9.2,53.7-27.6,87.2c-21.4,39.1-49.2,72.6-58.2,83
		c-2.1-2.4-5.4-6.2-9.4-11.2c-7.1-8.8-17.9-22.9-28.7-39.8c-18.5-29-40.7-72.3-41.5-114c1-0.9,2.1-1.8,3.3-2.7
		c3-2.4,7.9-6.2,14.6-10.7c11.7-7.8,30.9-19.1,55.9-28.3c29.4-10.8,50.8-13.1,63.6-13.1C201,46.7,204.1,47,205.8,47.2 M206.8,45.8
		l-0.2-0.2l-0.3,0c-1.5-0.2-4.9-0.5-9.8-0.5c-13,0-34.6,2.3-64.2,13.2C107.1,67.5,87.8,78.8,76,86.7c-6.7,4.5-11.7,8.3-14.7,10.7
		c-1.3,1.1-2.5,2.1-3.6,3.1l-0.3,0.3l0,0.4c0.6,42.2,23,86,41.7,115.3c10.8,17,21.6,31.1,28.8,39.9c4.1,5,7.4,8.9,9.5,11.3
		c0.2,0.2,0.4,0.4,0.6,0.6l0.7,0.8l0.6-0.7c8.3-9.5,37-43.8,59-84.1c18.5-33.7,27.8-63.3,27.8-88C226,75.7,219.7,59.2,206.8,45.8"/>
	<g>
		<path fill="#FEFEFE" d="M139.9,199.5c-31.7,0-57.6-25.8-57.6-57.6s25.8-57.6,57.6-57.6s57.6,25.8,57.6,57.6
			S171.6,199.5,139.9,199.5L139.9,199.5z"/>
		<path fill="#EB551E" d="M169.9,98.3c0.9-0.1,1.8-0.1,2.7-0.2c-4.2-3.1-8.7-5.6-13.6-7.4c0.6,1.2,1.2,2.2,1.9,3.3
			c1.1,1.6,2.5,3.1,4.2,5.1c0.5-0.1,0.9-0.2,1.4-0.3C167.7,98.6,168.9,98.4,169.9,98.3L169.9,98.3z M153.4,103.2
			c2.6-1.2,5.1-2.2,7.4-2.9c-2.8-3.3-5.2-6.1-6.7-11.2c-7.8-2.1-16-2.5-24.3-0.9c-0.1,0-0.2,0.1-0.4,0.1
			C136.1,90.1,144.7,94.2,153.4,103.2L153.4,103.2z M118.6,101.5c7.6-0.8,15.7,1.3,21.8,8.7c3.3-2,6.3-3.7,9.1-5.1
			c-13-12.9-25-14-29.8-13.9c-10.3,4.1-18.7,11-24.6,19.5c5.5-3.5,12.8-7.3,20.4-8.8C116.6,101.7,117.6,101.6,118.6,101.5
			L118.6,101.5z M185.3,118.8c2.5,2.5,4.9,5.1,7.1,8.1c-0.3-1-0.6-1.9-0.9-2.9c-1.5-4.3-3.4-8.2-5.8-11.8c-2.2-3.4-4.8-6.5-7.6-9.3
			l-0.1,0c-1.6-0.4-4.1-0.7-7.6-0.4c-0.6,0.1-1.3,0.2-2.1,0.3C174,108.8,179.9,113.5,185.3,118.8L185.3,118.8z M114.7,129.4
			c7.2-6.7,15-12.4,22.1-17c-5.1-5.9-11.2-7.4-17.8-6.8c-0.9,0.1-1.8,0.2-2.7,0.4c-10.3,1.9-20.7,9-25.3,12.7
			c-0.2,0.2-0.5,0.4-0.7,0.5c-0.4,0.8-0.8,1.7-1.1,2.6c-3.8,9.4-4.9,19.9-2.9,30.3c0.5,2.6,1.2,5.3,2.1,7.9c0.7,1.9,1.5,3.9,2.3,5.7
			C94.2,151.9,103.7,139.6,114.7,129.4 M178.7,154c0.5,2.4,0.8,4.8,1.1,7.1c0.7,6.8,0.4,13.4-1.2,19.4c2.6-2.6,4.9-5.4,6.9-8.4
			c6.4-9.6,9.7-21.2,9.1-33c-2.9-7.4-7-12.5-12-17.4c-5.6-5.5-12.3-10.7-18.8-18c-2.2,0.6-4.7,1.5-7.4,2.7
			C166.4,118.3,175.3,136.4,178.7,154L178.7,154z M101.3,180.5c6.8,6.8,15.2,11.6,24.4,14.1c2.4-5.2,7.1-15.7,10.9-27.8
			c4.2-12.9,7.4-27.5,6.2-39.1c-0.1-1.2-0.3-2.3-0.5-3.5c-0.6-3.2-1.6-6.1-3.1-8.6c-7.1,4.5-14.8,10.2-21.8,16.7
			c-11.9,11-21.8,24.5-23.7,38.8C95.9,174.6,98.4,177.7,101.3,180.5L101.3,180.5z M150.1,195.6c2.6-0.5,5.2-1.2,7.9-2.1
			c5.2-1.8,9.9-4.3,14.1-7.4c3.5-6.7,4.5-15.3,3.6-24.6c-0.2-2.2-0.6-4.5-1-6.8c-3.3-17.2-12.3-35.3-22.2-46.6
			c-2.9,1.4-6.2,3.2-9.7,5.4c1.8,3,2.9,6.4,3.6,10c0.2,1.2,0.4,2.5,0.6,3.8c1.2,12.5-2.1,27.4-6.3,40.4
			c-3.8,11.8-8.3,22.2-10.9,27.8C136.3,196.8,143.2,196.9,150.1,195.6L150.1,195.6z"/>
		<path fill="#535759" d="M84.4,182.6v-13.7h4.7c0-0.4,0-0.8,0-1.4v-17.9h-4.7l-0.1-5.4v-8.3h5.4c4.2,0,8.6-0.5,13.4-1.4l4.7-0.9
			c0,0,2.2,6.6,2.6,7.6c0.6-2.1,2.7-9.2,2.7-9.2l2.7-0.9c4.1-1.4,8.6-3.1,14.1-5.3l7.4-3.1v0.7c1.9-1.8,4.1-3.2,6.4-4.2
			c2.1-0.9,4.1-1.4,6-1.4l0.1-0.5l2.7-1.1c1.4-0.6,18.6-6.6,23.2-7.8l0.1,0c0.7-0.2,1.4-0.3,2.1-0.5c1.6-0.4,3.3-0.6,5-0.6
			c8.6,0,14.6,5.2,14.6,12.8c0,2.9-0.5,5.4-1.6,7.4c2,2,3.9,5.3,3.9,10.6c0,5.7-2.9,13.1-16.7,15.9c-5.5,1-11.4,2.6-18.1,5l-7.2,2.6
			v-0.9c-2.2,2-4.6,3.5-7.2,4.6c-2.5,1.1-5,1.6-7.4,1.6H143l-0.2,1.2l-2.7,1.2c-1.1,0.5-2.1,0.9-3.2,1.4l-7.5,3
			c-4.2,1.6-8,3-10.8,3.9l-9,2.6c0,0-12.6,2.6-19.8,2.6L84.4,182.6L84.4,182.6L84.4,182.6z"/>
		<path fill="#FEFEFE" d="M185.5,142.8c-0.9,1.3-2.1,2.1-3.8,2.4c-1.1,0.2-1.9,0.2-2.5,0c-0.6-0.2-1-0.6-1.2-1s-0.3-1.2-0.3-2.2
			v-10.3c0.6-0.1,1.2-0.3,1.7-0.4c1.9-0.4,3.3-0.5,4.3-0.2s1.7,0.8,2.3,1.8s0.8,2.5,0.8,4.4C186.8,139.7,186.4,141.5,185.5,142.8
			L185.5,142.8z M177.7,116c1.9-0.4,3.4-0.6,4.4-0.5c1,0.1,1.8,0.6,2.4,1.5c0.6,0.9,0.9,2.2,0.9,3.9c0,2.3-0.5,3.9-1.4,5
			s-2.4,1.8-4.4,2.2c-0.6,0.1-1.2,0.3-1.9,0.4L177.7,116L177.7,116z M186.5,128.4c3-1.2,6-2.6,6-9c0-6.5-6.9-8.4-13.2-7
			c-0.7,0.1-1.3,0.3-2,0.4c-4.6,1.2-21.8,7.3-22.8,7.7c-0.2,1.2-0.5,2.1-0.9,2.8c-2.1-1.2-4.8-1.1-7.9,0.2c-2.9,1.3-5.5,3.4-7.8,6.4
			c-2.2,3-3.4,6-3.4,9.1c0,1.9,0.4,3.5,1.3,4.6c0.9,1.1,2,1.9,3.5,2.2s4.2,0.6,8.3,0.9c2.1,0.2,3.5,0.6,4.1,1.2
			c0.6,0.6,0.9,1.4,0.9,2.3c0,1.2-0.5,2.5-1.4,3.8c-0.9,1.3-2.1,2.2-3.7,2.9c-2.1,0.9-4,0.9-5.8,0.1c-1.8-0.8-3.1-2.9-4-6.2
			c-1.1,0.5-2.1,0.9-3.2,1.4v9.9c-0.2,0.1-0.4,0.1-0.6,0.2c-1.8,0.7-6,2.4-6.6,2s-0.8-1.5-0.8-3.1v-21.4c0-1.6,0.3-2.9,0.8-3.8
			c0.5-0.9,1.7-1.7,3.5-2.4c0.2-0.1,0.5-0.2,0.7-0.3v-3c-4.8,2-9.7,3.9-14.6,5.5c-2.2,7.7-4.5,15.3-6.7,22.8
			c-2.2-6.3-4.4-12.7-6.6-19.2c-4.8,1-9.7,1.6-14.5,1.6v3c1.9,0,3.2,0.2,3.8,0.8c0.6,0.6,0.9,1.8,0.9,3.6v19.1c0,1.7-0.1,3-0.3,3.8
			c-0.2,0.8-0.7,1.5-1.5,2.1c-0.8,0.6-1.8,1-3,1v3c4.9,0,9.7-0.6,14.6-1.6v-3c-1.2,0.2-2.2,0.1-3.1-0.3c-0.8-0.4-1.4-1-1.6-1.8
			c-0.2-0.8-0.3-2-0.3-3.7v-18.8c3.5,8.9,7,17.6,10.4,26.1c0.7-0.2,1.4-0.4,2.1-0.6c3.5-10.6,6.9-21.3,10.4-32.1v21.3
			c0,1.6-0.3,2.9-0.8,3.7c-0.5,0.9-1.7,1.6-3.5,2.2c-0.2,0.1-0.5,0.2-0.7,0.2v3c5-1.6,12.9-4.7,18-6.8v0c1.1-0.4,2.1-0.9,3.2-1.4
			c0.2-1.2,0.5-3.1,0.9-4.1c1.1,0.9,2.5,1.3,4.3,1.3c1.8,0,3.6-0.4,5.5-1.2c3.3-1.4,6.1-3.6,8.5-6.7s3.6-6.2,3.6-9.4
			c0-1.7-0.4-3.2-1.1-4.4s-1.7-2.1-3-2.5c-1.3-0.5-3.2-0.8-5.9-0.9c-2.9-0.1-4.9-0.3-5.8-0.4c-0.9-0.1-1.6-0.4-2.2-1
			s-0.8-1.3-0.8-2.2c0-1.2,0.4-2.3,1.2-3.5c0.8-1.1,1.9-2,3.4-2.6c1.9-0.8,3.6-0.7,5.1,0.2c1.5,0.9,2.5,2.5,3.1,4.6
			c1-0.4,2-0.8,3-1.2v-7.4c2.6-1,8.5-3.3,9.6-2.5c0.6,0.4,0.9,1.5,0.9,3.2v21.3c0,1.8-0.3,3.1-0.9,3.9c-0.6,0.8-1.9,1.5-3.8,2.2v3
			c6.3-2.3,12.7-4.1,19-5.3c5.3-1.1,12.5-3.5,12.5-10.7C195,130.3,190.1,128.5,186.5,128.4L186.5,128.4z"/>
		<path fill="#838688" d="M179,132.8c0.2-0.1,0.4-0.1,0.7-0.1c1.1-0.2,2-0.3,2.7-0.3c0.4,0,0.7,0,1,0.1c0.4,0.1,0.9,0.3,1.4,1.2
			c0.3,0.6,0.7,1.6,0.7,3.7c0,2.1-0.4,3.7-1.1,4.8c-0.6,1-1.6,1.6-2.9,1.8c-0.5,0.1-0.9,0.1-1.2,0.1s-0.5-0.1-0.6-0.1
			c-0.2-0.1-0.4-0.2-0.4-0.3c-0.1-0.1-0.2-0.6-0.2-1.6L179,132.8L179,132.8z M179,117.1c0.9-0.2,1.7-0.3,2.3-0.3c0.2,0,0.4,0,0.5,0
			c0.6,0.1,1,0.3,1.4,0.9c0.4,0.6,0.7,1.7,0.7,3.1c0,1.9-0.4,3.3-1.1,4.1c-0.7,0.8-1.9,1.4-3.6,1.8c-0.1,0-0.1,0-0.2,0L179,117.1
			L179,117.1z M183.2,110.6c-1.4,0-2.8,0.2-4.2,0.5c-0.6,0.1-1.3,0.3-2,0.4l0,0l0,0c-4.6,1.2-21.9,7.3-22.9,7.7l-0.7,0.3l-0.1,0.7
			c-0.1,0.5-0.2,0.9-0.3,1.3c-0.8-0.3-1.7-0.4-2.6-0.4c-1.5,0-3.2,0.4-5,1.1c-3.1,1.3-5.9,3.6-8.3,6.8c-2.4,3.2-3.6,6.6-3.6,10
			c0,2.2,0.5,4.1,1.6,5.4c1.1,1.4,2.5,2.3,4.2,2.7c1.5,0.3,4.2,0.6,8.6,1c2.6,0.2,3.1,0.7,3.1,0.8c0.4,0.4,0.5,0.8,0.5,1.4
			c0,0.9-0.4,1.9-1.1,3c-0.8,1.1-1.8,1.9-3.1,2.4c-0.9,0.4-1.8,0.6-2.6,0.6c-0.7,0-1.4-0.1-2.1-0.5c-1.4-0.6-2.5-2.4-3.3-5.3
			l-0.4-1.5l-1.5,0.6c-1.1,0.4-2.1,0.9-3.2,1.4l-0.9,0.4v0.9v8.9c-2.8,1.1-4.3,1.6-5,1.8c-0.1-0.3-0.2-0.8-0.2-1.8v-21.4
			c0-1.4,0.2-2.4,0.6-3c0.3-0.4,1-1.1,2.9-1.9l0.7-0.3l0.1,0l0.9-0.4v-0.9v-3v-2.1l-1.9,0.8c-5.6,2.3-10.2,4.1-14.5,5.5l-0.7,0.2
			l-0.2,0.7c-1.9,6.4-3.7,12.7-5.5,18.7c-1.8-5.2-3.5-10.2-5.2-15.1l-0.4-1.1l-1.2,0.2c-5.1,1-9.7,1.5-14.3,1.5H88v1.4v3v1.4h1.4h0
			c2.2,0,2.8,0.3,2.9,0.4c0.1,0.1,0.5,0.5,0.5,2.6v19.1c0,2-0.1,3-0.2,3.4c-0.1,0.5-0.5,0.9-1,1.4c-0.6,0.5-1.3,0.7-2.1,0.7H88v1.4
			v3v1.4h1.4c4.7,0,9.6-0.5,14.8-1.6l1.1-0.2v-1.1v-3v-1.7l-1.7,0.3c-0.3,0.1-0.7,0.1-1,0.1c-0.5,0-0.9-0.1-1.2-0.3
			c-0.7-0.3-0.8-0.7-0.9-0.9c-0.1-0.4-0.3-1.4-0.3-3.3v-11.5c2.5,6.4,5.1,12.9,7.8,19.4l0.5,1.1l1.2-0.3c0.8-0.2,1.4-0.4,2.1-0.6
			l0.7-0.2l0.2-0.7c2.4-7.4,5-15.3,7.7-23.7v12.5c0,1.3-0.2,2.4-0.6,3c-0.2,0.3-0.9,1-2.8,1.6c-0.2,0.1-0.3,0.1-0.5,0.2l-0.2,0.1
			l-0.9,0.3v1v3v1.9l1.8-0.6c4.5-1.5,11.1-4,16.2-6.1v0l1.9-0.8c1.1-0.4,2.1-0.9,3.2-1.4l0.7-0.3l0.1-0.8c0.1-0.6,0.2-1.4,0.4-2.2
			c1,0.4,2.1,0.6,3.4,0.6h0.1c1.9,0,3.9-0.4,5.9-1.3c3.5-1.5,6.5-3.9,9-7.1c2.6-3.3,3.9-6.7,3.9-10.2c0-2-0.4-3.7-1.3-5.1
			c-0.9-1.5-2.1-2.5-3.7-3.1c-1.4-0.5-3.5-0.9-6.3-1c-2.8-0.1-4.8-0.2-5.7-0.4c-0.6-0.1-1.1-0.3-1.4-0.6c-0.2-0.2-0.4-0.5-0.4-1.2
			c0-0.9,0.3-1.8,1-2.7c0.7-0.9,1.6-1.6,2.8-2.2c0.7-0.3,1.4-0.4,2-0.4c0.7,0,1.3,0.2,1.9,0.5c1.2,0.7,2,2,2.4,3.8l0.4,1.5l1.5-0.6
			c1.1-0.5,2.1-0.8,3-1.2l0.9-0.3V130v-6.5c2.1-0.8,6-2.2,7.5-2.2c0.1,0.2,0.2,0.8,0.2,2v21.3c0,1.8-0.4,2.6-0.6,3
			c-0.3,0.4-1.1,1-3.2,1.8l-0.9,0.3v1v3v1.9l1.8-0.7c7-2.5,13.1-4.2,18.8-5.2h0l0,0c3.7-0.8,6.6-1.8,8.7-3.2
			c3.2-2.1,4.9-5.1,4.9-8.8c0-6-3-8.6-5.8-9.8c1.9-1.4,3.4-3.8,3.4-8.4C193.9,114.1,189.7,110.6,183.2,110.6L183.2,110.6z
			 M180.3,145.4c0.4,0,0.9-0.1,1.4-0.1c1.7-0.3,3-1.1,3.8-2.4c0.9-1.3,1.3-3.1,1.3-5.5c0-1.9-0.3-3.4-0.8-4.4
			c-0.6-1-1.3-1.6-2.3-1.8c-0.4-0.1-0.8-0.1-1.3-0.1c-0.8,0-1.8,0.1-3,0.4c-0.6,0.1-1.2,0.3-1.7,0.4V142c0,1,0.1,1.7,0.3,2.2
			s0.6,0.8,1.2,1C179.5,145.4,179.8,145.4,180.3,145.4 M177.7,128.5c0.6-0.1,1.2-0.3,1.9-0.4c2-0.4,3.4-1.1,4.4-2.2
			c1-1.1,1.4-2.7,1.4-5c0-1.7-0.3-3-0.9-3.9s-1.4-1.4-2.4-1.5c-0.2,0-0.4,0-0.7,0c-0.9,0-2.2,0.2-3.7,0.5L177.7,128.5 M183.2,112
			c4.9,0,9.3,2.3,9.3,7.4c0,6.4-3,7.8-6,9c3.6,0.1,8.4,1.9,8.4,9.2c0,7.2-7.2,9.6-12.5,10.7c-6.3,1.1-12.7,3-19,5.3v-3
			c1.9-0.7,3.2-1.4,3.8-2.2c0.6-0.8,0.9-2.1,0.9-3.9v-21.3c0-1.7-0.3-2.8-0.9-3.2c-0.1-0.1-0.4-0.2-0.7-0.2c-1.9,0-6.6,1.8-8.9,2.7
			v7.4c-1,0.4-2,0.8-3,1.2c-0.5-2.1-1.6-3.7-3.1-4.6c-0.8-0.5-1.6-0.7-2.6-0.7c-0.8,0-1.6,0.2-2.5,0.6c-1.4,0.6-2.5,1.5-3.4,2.6
			c-0.8,1.1-1.2,2.3-1.2,3.5c0,0.9,0.3,1.6,0.8,2.2c0.5,0.6,1.3,0.9,2.2,1s2.8,0.2,5.8,0.4c2.6,0.1,4.6,0.5,5.9,0.9s2.3,1.3,3,2.5
			c0.7,1.2,1.1,2.7,1.1,4.4c0,3.2-1.2,6.3-3.6,9.4c-2.4,3.1-5.2,5.3-8.5,6.7c-1.8,0.8-3.6,1.2-5.4,1.2h-0.1c-1.8,0-3.2-0.4-4.3-1.3
			c-0.4,1-0.7,2.9-0.9,4.1c-1.1,0.5-2.1,0.9-3.2,1.4v0c-5.1,2.1-12.9,5.1-17.9,6.8v-3c0.2-0.1,0.5-0.2,0.7-0.2
			c1.8-0.6,3-1.4,3.5-2.2c0.5-0.9,0.8-2.1,0.8-3.7v-21.3c-3.5,10.8-6.9,21.6-10.4,32.1c-0.7,0.2-1.4,0.4-2.1,0.6
			c-3.5-8.5-7-17.2-10.4-26.1v18.8c0,1.7,0.1,2.9,0.3,3.7c0.2,0.8,0.8,1.4,1.6,1.8c0.5,0.3,1.1,0.4,1.8,0.4c0.4,0,0.8-0.1,1.3-0.1v3
			c-4.9,1-9.7,1.6-14.6,1.6v-3c1.1,0,2.1-0.3,3-1c0.8-0.6,1.3-1.4,1.5-2.1s0.3-2,0.3-3.8v-19.1c0-1.8-0.3-3-0.9-3.6
			c-0.6-0.6-1.9-0.8-3.8-0.8h0v-3c4.8,0,9.7-0.6,14.5-1.6c2.2,6.5,4.4,12.9,6.6,19.2c2.2-7.5,4.5-15.2,6.7-22.8
			c4.8-1.6,9.7-3.5,14.5-5.5v3c-0.2,0.1-0.5,0.2-0.7,0.3c-1.8,0.7-3,1.5-3.5,2.4s-0.8,2.1-0.8,3.8v21.4c0,1.7,0.3,2.7,0.8,3.1
			c0.1,0.1,0.2,0.1,0.3,0.1c1.2,0,4.7-1.4,6.3-2c0.2-0.1,0.4-0.1,0.6-0.2v-9.9c1.1-0.4,2.1-0.9,3.2-1.4c0.9,3.3,2.2,5.4,4,6.2
			c0.9,0.4,1.8,0.6,2.7,0.6c1,0,2-0.2,3.1-0.7c1.5-0.6,2.8-1.6,3.7-2.9s1.4-2.6,1.4-3.8c0-0.9-0.3-1.6-0.9-2.3s-1.9-1.1-4.1-1.2
			c-4.1-0.3-6.9-0.6-8.3-0.9c-1.4-0.3-2.6-1.1-3.5-2.2c-0.9-1.1-1.3-2.7-1.3-4.6c0-3.1,1.1-6.2,3.4-9.1c2.2-3,4.8-5.1,7.8-6.3
			c1.6-0.7,3.1-1,4.5-1c1.2,0,2.4,0.3,3.4,0.8c0.4-0.7,0.6-1.6,0.9-2.8c1-0.4,18.2-6.5,22.8-7.7c0.7-0.2,1.3-0.3,2-0.4
			C180.6,112.1,182,112,183.2,112"/>
		<polygon fill="#FEFEFE" points="93.7,182.1 94.7,183.2 91.2,186.3 92.8,188 91.8,188.8 89.3,186 		"/>
		<polygon fill="#FEFEFE" points="92.6,189.6 96.6,185.3 99.8,188.3 99,189.1 96.9,187.2 96.2,187.9 98.1,189.8 97.3,190.6 
			95.4,188.8 94.4,189.8 96.7,191.9 95.9,192.7 		"/>
		<polygon fill="#FEFEFE" points="102,190.3 103.7,191.5 102,195.6 102,195.6 105.4,192.8 107.2,194 103.7,198.7 102.6,197.9 
			105.3,194.2 105.3,194.2 101.7,197.2 100.6,196.5 102.3,192.1 102.3,192.1 99.6,195.8 98.6,195 		"/>
		<path fill="#FEFEFE" d="M108.7,199.3l0.6-2.5l0,0l-1.8,1.7L108.7,199.3L108.7,199.3z M109.3,195.2l1.3,0.8l-1,6.2l-1.4-0.8
			l0.2-0.9l-1.9-1.1l-0.7,0.7l-1.4-0.8L109.3,195.2L109.3,195.2z"/>
		<polygon fill="#FEFEFE" points="112.9,197.2 114.2,197.8 114.6,202.1 114.6,202.1 116.2,198.7 117.4,199.2 115,204.6 113.7,204 
			113.2,199.7 113.2,199.7 111.7,203.1 110.5,202.6 		"/>
		<path fill="#FEFEFE" d="M117.5,203.6c0.3,0.6,0.7,1,1.4,1.2c0.4,0.1,1.1,0.2,1.2-0.3c0.1-0.3-0.1-0.5-0.5-0.7l-1.1-0.6
			c-1-0.5-1.3-1.2-1.1-2.1c0.5-1.3,1.7-1.5,2.9-1.1c0.9,0.3,1.7,1,2.1,1.9l-1.3,0.4c-0.2-0.6-0.7-1-1.2-1.2c-0.3-0.1-0.8-0.1-1,0.3
			c-0.1,0.3,0.1,0.5,0.6,0.8l0.5,0.3c1.1,0.6,1.8,1.2,1.5,2.3c-0.6,1.7-2.2,1.5-3.2,1.1c-0.9-0.3-1.6-0.9-2.1-2L117.5,203.6
			L117.5,203.6z"/>
		<path fill="#FEFEFE" d="M125.3,206c0.4,0.6,0.8,0.9,1.5,1.1c0.4,0.1,1.1,0.1,1.2-0.4c0.1-0.3-0.1-0.5-0.5-0.6l-1.2-0.4
			c-1-0.4-1.5-1.1-1.3-1.9c0.3-1.4,1.5-1.7,2.7-1.5c1,0.2,1.8,0.8,2.3,1.6l-1.2,0.6c-0.3-0.5-0.8-0.9-1.4-1
			c-0.3-0.1-0.9,0.1-0.9,0.4c-0.1,0.3,0.2,0.5,0.7,0.7l0.5,0.2c1.1,0.4,2,1,1.8,2.1c-0.4,1.7-2,1.7-3.1,1.5c-1-0.2-1.7-0.7-2.3-1.7
			L125.3,206L125.3,206z"/>
		<path fill="#FEFEFE" d="M133.5,207.1l-0.4-2.5h0l-1,2.3L133.5,207.1L133.5,207.1z M132.4,203.1l1.5,0.2l1.6,6.1l-1.6-0.2l-0.2-0.9
			l-2.1-0.2l-0.4,0.9l-1.6-0.2L132.4,203.1L132.4,203.1z"/>
		<path fill="#FEFEFE" d="M138,206.2l1.3,0c0.5,0,0.8-0.2,0.8-0.8c0-0.5-0.3-0.8-0.8-0.8l-1.3,0L138,206.2L138,206.2z M136.6,203.5
			l2.9,0.1c1.3,0,2.1,0.7,2.1,2c0,0.8-0.5,1.4-1.2,1.5l1.3,2.4l-1.6-0.1l-1.1-2.1l-0.9,0l-0.1,2.1l-1.5,0L136.6,203.5L136.6,203.5z"
			/>
		<polygon fill="#FEFEFE" points="141.6,203.6 146.1,203.3 146.2,204.4 144.7,204.5 145,209.2 143.5,209.3 143.2,204.6 141.7,204.7 
					"/>
		<polygon fill="#FEFEFE" points="146.6,203.2 148,203 148.3,205.1 150.5,204.8 150.2,202.7 151.6,202.5 152.5,208.2 151.1,208.5 
			150.7,206 148.5,206.4 148.9,208.8 147.5,209 		"/>
		<polygon fill="#FEFEFE" points="153.9,207.9 152.5,202.3 156.7,201.2 157,202.3 154.2,203 154.5,204.1 157.1,203.4 157.3,204.5 
			154.8,205.2 155.1,206.5 158.1,205.8 158.4,206.9 		"/>
		<path fill="#FEFEFE" d="M162.6,204.3l1.1-0.4c0.7-0.3,0.8-0.6,0.7-1c-0.2-0.4-0.4-0.6-0.9-0.4l-1.4,0.5L162.6,204.3L162.6,204.3z
			 M161.7,202l1.1-0.4c0.4-0.2,0.6-0.4,0.5-0.9c-0.2-0.5-0.5-0.5-0.9-0.3l-1.1,0.4L161.7,202L161.7,202z M159.6,200.3l2.7-1
			c1.1-0.4,2-0.3,2.4,0.7c0.3,0.7,0,1.2-0.7,1.7l0,0c0.8-0.2,1.5-0.1,1.8,0.7c0.4,1.1-0.2,1.9-1.6,2.4l-2.5,1L159.6,200.3
			L159.6,200.3z"/>
		<path fill="#FEFEFE" d="M169.4,200.3l-1.7-1.8l0,0l0.4,2.5L169.4,200.3L169.4,200.3z M166.4,197.5l1.4-0.7l4.6,4.2l-1.4,0.7
			l-0.7-0.7l-1.9,1l0.1,0.9l-1.4,0.7L166.4,197.5L166.4,197.5z"/>
		<path fill="#FEFEFE" d="M172.6,198.8c0.7,0.1,1.2,0.1,1.8-0.3c0.3-0.2,0.9-0.7,0.6-1.1c-0.1-0.2-0.4-0.3-0.8-0.1l-1.1,0.5
			c-1,0.4-1.8,0.2-2.3-0.5c-0.8-1.2-0.1-2.3,1-3c0.8-0.5,1.9-0.7,2.8-0.4l-0.5,1.3c-0.6-0.2-1.2-0.1-1.7,0.2
			c-0.3,0.2-0.6,0.6-0.4,0.9c0.2,0.3,0.5,0.3,1,0.1l0.5-0.2c1.1-0.5,2.1-0.7,2.7,0.3c0.9,1.5-0.2,2.6-1.2,3.2
			c-0.9,0.5-1.7,0.7-2.9,0.4L172.6,198.8L172.6,198.8z"/>
		<polygon fill="#FEFEFE" points="174.6,192.7 175.7,191.9 177.1,193.7 177.4,190.6 178.9,189.4 178.6,192.5 182.6,194 181.2,195 
			178.4,193.9 178.2,195.2 179.3,196.5 178.1,197.4 		"/>
		<polygon fill="#FEFEFE" points="183.2,193.5 179.2,189.1 182.4,186.2 183.2,187.1 181.1,189 181.8,189.8 183.7,188 184.5,188.8 
			182.5,190.6 183.5,191.6 185.8,189.6 186.5,190.4 		"/>
		<polygon fill="#FEFEFE" points="182.6,186 185.7,182.7 186.6,183.5 185.5,184.6 189,187.8 188,188.9 184.5,185.6 183.5,186.8 		
			"/>
		<path fill="#A7A7A7" d="M163.2,66C163.2,66,163.2,66,163.2,66C163.2,66,163.2,66,163.2,66L163.2,66L163.2,66"/>
	</g>
	<g>
		<path fill="#FEFEFE" d="M203.4,90.6l-0.1-0.1c0,0,0,0,0,0c0.1-0.3,0.2-0.7,0.3-1.1c0-0.2,0.1-0.3,0.1-0.5c0-2.1-1.9-4.8-2.4-5.2
			c-0.1-0.1-0.3-0.1-0.4-0.2c0-0.1,0-0.2,0-0.3c0-1.7-2.4-4-3.5-4.5c-0.2-0.1-0.6-0.2-1.1-0.3l-0.3-0.9c-0.1-0.2-0.6-1.8-2.2-2.7
			c-0.3-0.1-0.5-0.2-0.8-0.3c-0.1,0-0.1-0.1-0.1-0.1c-2-1.3-4.7-0.5-6.1,0.1c-2.8-2.8-7-5.3-8.8-6.1c-1-0.4-2.6-0.6-3.7-0.5
			c-1.9-2.4-4.2-4.6-5.9-6.1c0,0-0.8-0.7-1.4-1.2c0-0.1,0.1-0.2,0.1-0.2c0.5-0.5,1.7-1.6,2.2-3.5c0.4-1.8,0.5-2.7,0.5-3.1
			c0-0.2,0-0.4-0.1-0.4c-0.1-0.3-0.2-0.7-0.4-1c0.5-0.7,1.1-1.9,1.3-2.7l0.1-0.4c0.3-1.6,0.6-3.2,0.6-4.6c0-1-0.1-1.9-0.5-2.5
			l-0.1-0.2l-0.1-0.1c-0.4-0.3-0.8-0.8-0.9-1.1c0-0.1-0.1-0.2-0.1-0.2c0-0.1,0-0.2,0.1-0.2c0.6-0.6,1.2-1.5,1.2-2.5
			c0-0.2,0-0.4-0.1-0.6c-0.1-0.4-0.3-1-7.2-5.6c0.2-0.5,0.4-0.9,0.4-1.4c0-0.1,0-0.1,0-0.2c0-0.3-0.1-1-3-3.5
			c-4.6-20-19.9-18.5-19.9-18.5s1.4,1.2,2,2C114.3-3.7,89.4,26.6,89.4,26.6s3.4-0.1,3.8-0.1c-5.1,4.6-16,16.3-16,33.3
			c0,1.5,0.1,3,0.3,4.5c-2.6,7-8.3,25-8.3,47.5c0,12.3,1.4,28,9.3,46.2c-0.4-2.7-0.9-13.3-0.9-16c0-8.8,1.8-17.4,5.4-25.4
			c0.3,1.8,0.7,3.5,1,4.9l0.2,0.6c8.2-23,30.1-39.4,55.9-39.4c2.1,0,4.1,0.1,6.1,0.3c3.9-1.1,9-2.1,13-1.2c4,2,10.1,4.5,16.8,4.4
			c1.9,0.6,6.9,2.3,8.8,4.7l0.9,1.2c1,1.3,1.7,2.2,2.9,2.9l1,1c0.1,0.1,0.8,0.8,2.2,1.4c-1.5,0-2.9-0.1-3.2-0.3
			c0.1,0.1,0.6,2.7,3.2,4.1c0.1,0.3,0.1,0.5,0.2,0.7c0.7,1.1,3.2,2.2,5.5,1.9c2.2-0.2,3.9-1.7,4.8-4.1l0.1-0.2v-0.2
			c0-0.1,0-0.4-0.1-0.7c1.4-0.6,1.6-1.3,1.7-1.5l0-0.1c0.3-1.3,0.5-2.4,0.5-3.4C204.3,92.3,204,91.3,203.4,90.6z"/>
	</g>
	<path fill="#535759" d="M202.6,91.2l-0.8-0.6c0,0,0.5,0.1,0.8-1.5c0.3-1.5-1.5-4.4-1.9-4.6s-1.2,0-1.2,0s0.2-0.4,0.4-1.3
		c0.2-0.9-1.8-3.2-2.8-3.6c-1-0.5-2.6-0.3-2.6-0.3s-0.4-3.1-2-4.1c-2.1-1.4-5.7,0.5-5.7,0.5c-2.6-3-7.4-5.6-9-6.4s-3.7-0.3-3.7-0.3
		c-1.9-2.5-4.3-4.8-6.1-6.4c-0.8-0.7-1.4-1.3-1.9-1.7c0.1-0.3,0.2-0.7,0.3-1c0-0.1,0.1-0.2,0.1-0.2c0,0,1.5-1,2-3c0,0,0.6-2.5,0.5-3
		s-0.6-1.4-0.6-1.4s1.3-1.9,1.5-2.8s1.1-5.2,0.3-6.8c0,0-0.9-0.8-1.2-1.4c-0.3-0.5-0.2-1.3,0.2-1.7c0.4-0.4,1-1.3,0.8-2
		c-0.2-0.7-7.7-5.6-7.7-5.6s0.9-1.2,0.8-1.7c-0.1-0.5-2.9-3-2.9-3S156.6,11,144.2,9.6c0,0,2.6,2.6,2.9,3.5S122.5-5.2,92.1,25.4
		l4.2-0.2c0,0-20.8,14.5-17.9,39.2c-3.5,9.5-15.7,47.3-1.8,86.8l0.2-0.9c-0.4-2.7-0.6-5.5-0.6-8.4c0-9.5,2.1-18.5,5.8-26.6
		c0.4-0.8,0.8-1.7,1.2-2.5c0.4,2.7,0.9,5.8,1.6,8.4c2.8-7.3,7-13.9,12.2-19.5c0.5,0.1,0.9,0.2,1.3,0.3c1.6,0.3,2.5,0.6,2.9,0.7
		c0.7,0.4,3.8,2.7,3.8,2.7s4.1,7.8,5.4,8.9c0.4,0.3,2.1,7.4,5.4,10.7c1.5,1.6,3.8,1,4.2,1c0.1,0,0.4-0.2,0.7-0.6
		c3.2,2,5.8,0.8,5.8,0.8c-1.3-0.1-3.3-1.8-4.3-2.8c0.1-0.1,0.2-0.2,0.2-0.3c0.6-0.8,0.1-1.8,0.1-1.8l-0.6-0.7c0,0,1.1,1.1,1.7,1.1
		c0.3,0,1.1-0.6,1.9-1.3c3.4,2.4,6.3,1.1,6.3,1.1c-1.3-0.1-3.4-1.8-4.4-2.9c0.2-0.2,0.3-0.4,0.4-0.6c0.3-0.8-0.1-1.8-0.1-1.8
		l0.9,0.1c0,0,1,0,1.9-1c1.4,0.8,3.6,2.2,4,3.3c0,0,0.4-2.9-2.6-5.4c0.6-0.9,0.9-1.5-0.5-2.8c0,0,2.4-0.7,3.2-1.4
		c1.5,0.5,4.1,1.7,4.7,2.8c0,0-0.1-3.3-3.9-5.4c0-0.5,0-0.9-0.1-1.3c-0.2-1.1-4.4-3.4-8.2-4.3c-0.1-0.3-0.1-0.8-0.2-1.2c0,0,0,0,0,0
		c1.4-0.2,4.6-0.4,5.8,0.3c0,0-1.7-3.1-6.5-3c-0.3-0.9-0.7-1.6-1.1-1.9c-0.9-0.6-3.4-0.4-5.7-0.1c-1.7-1.3-4.2-2.9-5.9-4
		c1.4-0.7,2.8-1.4,4.3-2c6.4-2.7,13.4-4.2,20.7-4.4c0.2-0.1,0.5-0.2,0.7-0.3l-0.2,0.1c0,0,12.1-5.4,20.2-3.5
		c4.9,2.4,10.6,4.5,16.6,4.3c0,0,7,1.9,9.5,5.1s2.4,4.1,8,5.3c0,0-1.3,4.7-0.6,5.8s6.4,3.4,8.3-1.9c0,0,0-0.9-0.4-1.4
		c0,0,1.9-0.6,2.1-1.1C202.8,96.3,203.8,92.9,202.6,91.2z"/>
	<g>
		<g>
			<g>
				<path fill="#FEFEFE" d="M121.1,151.2"/>
				<path fill="#FC8C5D" d="M150,52.4c0,0-2.2-5.5-2.1-7.7s1.7-4,2.7-4.6c0,0-2.8,0.8-4.3,2.8c0,0-9.1-3.3-11.2-4.7
					c0,0,5.2,4.2,10.8,6.9c0,0,1.2,7.7,2.9,10.1l15.7-2.9c0,0-0.3,2.8-0.4,3.1c-0.1,0.2-7.3,1-8.1,1.6c0,0,5.4,1.3,2.6,3.7
					c0,0,1.8,0.1,3.6-2.6c0,0,1.7,6.9-4.8,9.7c0,0,0.8-1.1,0.6-2.9c0,0-4.8,3.1-8.2,3.2c0,0,3.2-0.6,3.9-5.5c0,0-4.4,3.5-11.4,3.6
					c0,0,4.3-2.7,3.1-8.5c-1.3-5.8-5.9-5.4-9-7.1c-3.1-1.7-8.5-7.7-8.1-12.9c0,0-3.6,2.8-8.6,2.5c0,0,6.8-5.4,6.4-10.4
					c0,0-1.3,1.2-2.6,1c-1.3-0.2-4.3-1-5-3.5c-0.7-2.6-1.4-3.2-2-3.5c0,0,1.9-1.9,3.5-2c0,0-1.1-0.4-2.1-0.4c0,0,5.2-6.8,15.7,1.6
					c0,0,7.9-7.2,19.7,3.9c0,0,0.2-2,1.6-1.2c1.3,0.8,3.4,3.4,3.9,4l-1.2,1.4c0,0,6.1,4.2,7.2,5.5c0,0-7.9-0.6-9.2,0.2
					c-1.3,0.9-1,1.8,0.2,2.8c1.3,1,3.2,2.3,3.2,2.3s3.2-0.3,3.6,1c0.5,1.3-1,1.7-1,1.7L164,47v2L150,52.4z"/>
				<path fill="#EB551E" d="M80.9,55.8c9-25.1,39.8-21.9,39.8-21.9c-27.9,0.8-35,17.6-35,17.6c10.7-11.7,25.3-9.2,25.3-9.2
					c-20.5,1.8-30,19.4-30,19.4c9-6.8,22.2-5.3,22.2-5.3c-4.7,2.2-10.1,6.2-10.1,6.2c11.1-3.8,23.3-2.7,23.3-2.7
					c-5.9,2.9-8.1,7.4-8.1,7.4C112,62.5,127,61,127,61c-1.1,7.8-10.5,11.7-10.5,11.7c11,0.7,21.1-4.4,21.1-4.4
					c-1.6,2.4-3.9,3.2-3.9,3.2c4.4,0.2,9.4-1.6,9.4-1.6c-1.7,4.2-5.8,6.6-5.8,6.6c10.6-2,15.7-5.7,15.7-5.7
					c-0.7,1.4-2.9,4.6-2.9,4.6c6.7-2.9,5.9-7.8,5.9-7.8c-5.9,2.8-10,2.1-10,2.1c1.7-0.9,3.4-3.1,3.4-3.1c-3.8,1.7-9.9,0.7-9.9,0.7
					c7.1-7.4,4.1-12.1-3.2-14.8s-8.8-8.5-8.8-8.5c-2.7-0.8-8.6,4.9-8.6,4.9c1.9-4.1,7.5-8,7.5-8c-8.4,2.9-10.5,0.4-10.5,0.4
					c3.8-2.6,6.9-8.3,6.9-8.3c-6.1-1.1-6.2-4.6-6.8-6.8s-2.4-1.6-2.4-1.6c0.2-0.9,1.9-2.6,1.9-2.6l-0.9-0.3c9.2-9.6,18-0.6,18-0.6
					c10.8-5.9,20.1,3.7,20.1,3.7c0.6-1.8,3.8-0.1,3.8-0.1s-1.2-7.9-6.9-10.8c0,0,1.9,3.4,1.8,6.3c0,0-8.6-9-17.5-9
					c0,0,6.1,2.8,7.3,6.4c0,0-18-15.2-43.4,5.5c0,0,8.9-1.1,11.7,0.6C109.7,23.6,83.8,29.6,80.9,55.8z"/>
				<g>
					<g>
						<path fill="#535759" d="M154.7,44.9C154.7,44.9,154.7,44.9,154.7,44.9c-0.8-1.4-6.6-0.7-13.8,1.5c-0.4,0.1-0.8,0.2-1.2,0.4
							l0.4,1.1c-0.7,0.4-1.4,0.8-2.1,1.1c-2.4,1.4-4.1,2.7-4.7,3.7c1.7-1.2,4.2-2.5,7.2-3.8c0.4-0.2,0.8-0.3,1.1-0.5l-0.3-0.9
							C147.1,45.6,152.4,44.5,154.7,44.9z"/>
					</g>
					<g>
						<path fill="#535759" d="M154.5,46.8C154.5,46.8,154.5,46.8,154.5,46.8c-0.9-1.1-5.6,0.2-11.5,2.8c-0.3,0.1-0.6,0.3-0.9,0.4
							l0.5,0.9c-0.6,0.4-1.1,0.8-1.6,1.2c-1.9,1.5-3.2,2.8-3.5,3.7c1.3-1.2,3.2-2.6,5.6-4c0.3-0.2,0.6-0.3,0.9-0.5l-0.4-0.7
							C148.1,48.2,152.5,46.7,154.5,46.8z"/>
					</g>
					<g>
						<path fill="#535759" d="M154.1,49.2C154.1,49.2,154.1,49.2,154.1,49.2c-0.9-0.8-4.7,0.8-9.3,3.8c-0.2,0.2-0.5,0.3-0.7,0.5
							l0.5,0.7c-0.4,0.4-0.8,0.8-1.2,1.2c-1.4,1.5-2.3,2.7-2.5,3.5c0.9-1.2,2.4-2.6,4.2-4c0.2-0.2,0.5-0.4,0.7-0.5l-0.4-0.5
							C149,51.2,152.5,49.3,154.1,49.2z"/>
					</g>
				</g>
				<path fill="#535759" d="M126.4,29.4c0,0,1.3-2.3,4-4.4c0,0-1.6-3.7-5.2-2.9c-3.7,0.8-3.5,5-2.5,7.3c0,0,0.1-1.8,1.7-2.5
					c1.6-0.7,0.7,1.2,0.6,1.6C124.8,28.8,126.8,26.9,126.4,29.4z"/>
				<g>
					<path fill="#FC8C5D" d="M81.2,93.5c0,0-0.7-0.7,0.4,0s3.2,0.5,3.2,0.5c-3.9-3.3-6.9-11.4-6.9-17.6c-2.4,8-8.2,31.7-3.3,60.4
						c0,0,1.6-23.6,11.1-31.1l0.4,5.2c0,0,2.8-6.5,7.1-10.1c-0.5-0.1-1.1-0.2-1.7-0.4C85.1,98.9,81.2,93.5,81.2,93.5z"/>
				</g>
				<path fill="#FC8C5D" d="M200.6,89.8c0.1-1.1-1.1-3.3-1.3-3.7c-0.4-0.5-1.7-0.3-1.7-0.3s0.3-0.7,0.4-1.5s-0.8-2.2-1.7-2.9
					c-0.9-0.7-4.1,0-4.1,0c0.5-2.1-0.7-4.4-0.7-4.4c-4.3-1.4-7.1,2.8-7.1,2.8c-0.4-1.5,0.4-2.8,0.4-2.8c-0.9-1.1-6.9-5.1-7.9-5.5
					s-3.5-0.1-3.5-0.1c-2-2.5-8.2-8.1-8.5-7.2c-1.8,5.2-8.2,10.1-8.2,10.1s2.2-0.4,5.4,2.7c3.4,3.3,11.1,5.8,11.1,5.8
					c-0.1-0.5-2-2.9-2-2.9c5.7,1.1,12,5.9,12,5.9c0-3.1,1-4.2,1-4.2c-0.4,11.6,9.4,11.5,9.4,11.5c-0.5-6.4-3.6-10.1-3.6-10.1
					s6.7,4.3,5.8,12.9c0,0-0.9,3.5-0.6,4s1.9,0.6,3,0c1.1-0.6,1.6-1.4,0.6-2.7c0,0,1.8-0.8,2.1-2c0.4-1.2,0.4-3.7-0.8-4.1
					C200,91.2,200.5,90.6,200.6,89.8z"/>
				<g>
					<path fill="#535759" d="M190.9,75.6c0,0-1.4,0.1-1.2,1.6c0.1,0.8,1.1,1.4,2,0.9c0.9-0.4,2.7-1,3.4-0.4
						C195.1,77.7,194.1,74.6,190.9,75.6z"/>
					<path fill="#535759" d="M194.3,82.4c0,0,1,0.1,1.3,0.8c0.3,0.7,0.5,1.6-0.9,2c-1.4,0.4-4.3,1.7-5,2.9
						C189.8,88.1,189.8,84.5,194.3,82.4z"/>
					<path fill="#535759" d="M196.4,87.6c0,0,0.9,0.1,1.1,0.9s0.3,1.7-1.1,1.9c-1.4,0.2-4.6,1-5.4,2
						C190.9,92.5,191.6,88.9,196.4,87.6z"/>
					<path fill="#535759" d="M197.4,96.2c0,0,0.6-0.7,0.4-1.4c-0.3-0.7-0.7-1.6-2-0.9c-1.3,0.6-4.4,1.7-5.6,1.3
						C190.1,95.2,192.7,97.8,197.4,96.2z"/>
					<path fill="#535759" d="M196.6,100.7c0,0,0.8-0.4,0.7-1.2c-0.1-0.8-0.4-1.7-1.8-1.4s-4.6,0.8-5.8,0.1
						C189.8,98.2,191.7,101.3,196.6,100.7z"/>
				</g>
			</g>
		</g>
		<path fill="#FEFEFE" d="M146.8,32.2c0,1.5-2,2.7-4.5,2.7s-4.9-3.4-4.9-4.9s2.4-0.5,4.9-0.5S146.8,30.8,146.8,32.2"/>
		<path fill="#A4A6A7" d="M144.4,31.9c0,0.8-0.8,1.5-1.9,1.5c-1,0-1.9-0.7-1.9-1.5s0.8-1.5,1.9-1.5S144.4,31.1,144.4,31.9"/>
		<path fill="#535759" d="M142.8,31.9c0,0.3-0.3,0.5-0.7,0.5c-0.4,0-0.7-0.2-0.7-0.5c0-0.3,0.3-0.5,0.7-0.5
			C142.4,31.3,142.8,31.6,142.8,31.9"/>
		<path fill="#535759" d="M148.8,33.1l3.4-0.9l-4.4-3.9l0.9,2.2l-2.2,0.1c0,0-5.1-2.8-7.5-2.8c-3.5,0-6.7,2.8-6.7,2.8l4.2-0.4
			c0,0,0,6,5.1,6c3.9,0,6.4-1.4,6.4-1.4l4.7,2.1L148.8,33.1z M141.8,33.9c-2.7,0-3-3.7-3-3.7l6.6,2.9
			C145.4,33.1,144.5,33.9,141.8,33.9z"/>
	</g>
	<path fill="#FC8C5D" d="M120.8,83c2.6-0.9,5.2-3.4,5.2-3.4c-3.8,1.2-9,2-15.5,2c-2.4-4.5-5.3-7.5-5.3-7.5c1.6,2.9,2.3,8.2,2.3,8.2
		c-3.7-3.1-8.5-4.6-8.5-4.6c8.2,5.5,12,13.6,12,13.6c1,0.5,5.2,2.8,6.7,3.7c-2,0.3-3.7,0.7-3.7,0.7c3.8,0,9.9,0.5,10.3,0.9
		c0.3,0.3,0.9,2.7,1.1,3.7c-4-0.6-5.3-0.1-5.3-0.1s9,1.8,13.4,4.9c0,0-0.3,2.3-0.6,2.8c-0.3,0.6-1.6,0.8-1.6,0.8s-3-2-4.9-2.5
		c0,0,3.1,3.7,3.7,4.8c0.6,1.1-1.7,3.2-2.1,3.5c0,0-2.5-1.3-3.8-2.8c0,0,1.6,3.9,2.3,4.7c0,0-2.3,3.1-2.8,3.2
		c-0.6,0.1-3.8-2.8-4.7-4.7c0,0,0.6,4.1,1.6,6.1c0,0-1.3,1.6-1.8,1.9c-0.4,0.3-1.3,0.1-2.3-1.8c-1-1.8-3.5-7.8-3.5-7.8
		s-5.1-7.2-6.3-9.2c-1.2-2.1-4.4-4.4-5-4.7c0,0-11.2-9.6-12.6-13.7c0,0,2.6,8.6,9.5,13.2c0,0-6.5-3.3-9.1-6.5c0,0,1.6,3.2,3.5,4.6
		c0.2,0.1,0.4,0.2,0.5,0.3c2.1,1.1-18.7-5.5-10.2-35c3.4-1.6,8-3.3,11.4-3.1c0,0-4.9,2.5-8.1,7.2c0,0,10.7-3.9,16.2-2.9
		c0,0-5.8,1-7.8,3.3c0,0,11.5-2.5,12.1,3.4c0,0,6.5-5.4,13.6-4.4c0,0-3.3,6.1-10.5,6.7c0,0,7,3.3,16.5,1.1c0,0-2,2.1-5.9,2.9
		c0,0,8.8-0.1,15.5-2.8c0,0-2.8,3.1-6.7,4.2c0,0,12.3,0.9,18.8-3.6c0,0-1,1.4-2.7,2.7C138.5,81.9,120.8,83,120.8,83z"/>
</g>
</svg>
