<?xml version="1.0" encoding="utf-8"?>
<!-- Generator: Adobe Illustrator 24.0.1, SVG Export Plug-In . SVG Version: 6.00 Build 0)  -->
<svg version="1.1" id="Calque_1" xmlns="http://www.w3.org/2000/svg" xmlns:xlink="http://www.w3.org/1999/xlink" x="0px" y="0px"
	 width="509.3px" height="509.1px" viewBox="0 0 509.3 509.1" enable-background="new 0 0 509.3 509.1" xml:space="preserve">
<g>
	<path fill="#474341" stroke="#FFFFFF" stroke-width="2.6737" stroke-miterlimit="10" d="M255.7,431.6C139,431.6,44,336.3,44,219.9
		C44,103.2,139,8.2,255.7,8.2c116.4,0,211.7,95,211.7,211.7C467.5,336.3,372.1,431.6,255.7,431.6z"/>
	<path fill="#FFFFFF" d="M254.8,364c-79.6,0-144.4-64.8-144.4-144.2c0-79.6,64.8-144.6,144.4-144.6c79.3,0,144.4,65,144.4,144.6
		C399.2,299.1,334.2,364,254.8,364z"/>
	<path fill="#E0832A" stroke="#12100C" stroke-width="1.2582" stroke-miterlimit="10" d="M254.8,359.5
		c-77.5,0-140.6-62.9-140.6-140.4c0-77.2,63.1-140.6,140.6-140.6c77.2,0,140.4,63.4,140.4,140.6
		C395.2,296.6,332.1,359.5,254.8,359.5z"/>
	<path fill="#FFFFFF" d="M304.1,84c-15.6-5.5-32-8.5-49.1-8.5c-1.3,0-2.5,0-3.8,0c-4.3,0.3-8.6,0.5-13.1,1c-5.8,0.5-11.8,1.8-17.6,3
		c-8,2-15.9,4.8-23.4,8.1c-1.5,0.7-3,1.2-4.5,2c-9.8,4.8-19.1,10.6-27.7,17.4c-33.2,26.4-54.8,67.4-54.8,113.2
		c0,45.8,21.6,86.5,54.8,113.2c8.6,6.5,17.9,12.6,27.7,17.1c1.5,0.8,3,1.5,4.5,2c7.5,3.3,15.4,6,23.4,8c5.8,1.5,11.8,2.5,17.6,3.3
		c4.5,0.5,8.8,0.8,13.1,0.8c1.2,0,2.5,0,3.8,0c17.1,0,33.4-3,49.1-8.5c55.4-20.4,95.3-73.5,95.3-135.8
		C399.5,157.7,359.5,104.4,304.1,84z M270.9,88.5l8-2.8c8.6,1.5,17.1,4.1,25.1,7.1c24.9,9.8,46.3,26.7,61.6,48.3l-5-4.3l-6-4.5
		l-6.3-4l-5.8-3.5l-5.8-3l-5.8-2.5l-5.5-2l-5.5-2l-5.3-1.3l-5.3-1.2l-5.3-1l-5-0.8l-5.3-0.7l-5-0.5l-4.8-0.5l-5-0.5l-4.8-0.5
		l-4.8-0.5l-5-0.8l-5-0.8l-4.8-1.3l-3.3-0.8l-2-0.5l-5-1.5l-1.8-0.5l8.8-4.7l9.8-4.6L270.9,88.5z M220.6,88
		c5.8-1.5,11.8-2.5,17.6-3.2c4.5-0.5,8.8-1,13.1-1c1.2,0,2.5,0,3.8,0c1.8,0,3.5,0,5.3,0l-2.5,1l-6.5,3l-3.8,1.8l-9.3,4.8l-0.8,0.4
		l-4.5,2.8h-0.2l-1-0.5l-1.2-0.7l-1.3-0.5l-1.3-0.7l-1.3-0.7l-1.5-0.8l-1.5-0.7l-1.5-0.7l-1.5-0.8l-1.8-0.8l-1.5-0.7l-1-0.5
		C217.9,88.8,219.1,88.5,220.6,88z M192.7,98.9c1.5-0.8,3-1.5,4.5-2.3c2.5-1.3,5-2.2,7.8-3.5l0.3,0.3l1.8,0.8l1.8,0.7l1.5,0.8
		l1.8,0.8l1.5,0.7l1.8,0.8l1.5,0.8l1.5,0.8l1.5,1l0.8,0.3l2.3,1l1.3,0.8l0.7,0.5l-4.3,2.8l-2.5,1.8l-9.1,7l-5.3,4.8l-2.8-0.8l-3.8-1
		l-4.5-0.7l-1.2-0.5l-9.6-1.2l-9.3-1h-3C176.6,108.2,184.4,103.1,192.7,98.9z M160.2,122.3l3-0.3h1.8l7.1,0.3l8.8,0.7l9.1,1.5
		l2.8,0.5l4,1l-4,3.7l-0.8,1l-7.8,8.8l-3.3,4.3l-1.3-0.2l-3.5-0.8l-3.3-0.2l-3.5-0.3l-3.3,0.3l-1,0.2l-2.3,0.3l-3.3,0.8l-3.2,0.8
		l-3,1.3l-3,1.3l-3,1.5l-3,1.8l-3,1.8l-2.8,2l-2.8,2.3l-2,1.5C140.4,144.6,149.4,132.6,160.2,122.3z M118.5,220.1
		c0-15.1,2.5-29.7,7-43.5l2.3-2l2.5-2.5l2.5-2.5l2.5-2.3l2.5-2.2l2.8-2l2.5-2l2.5-1.8l2.8-1.7l2.5-1.5l2.8-1.3l2.5-1.2l2.8-1
		l2.5-0.7l2.8-0.5h0.8l1.8-0.2l2.8-0.2h2.5l2.8,0.5h0.5L170,159l-5,9.1l-0.8,1.5l-5.3,11.1l-4.5,11.6l-3.5,12.1l-2.8,12.3l-1.8,12.8
		l-0.8,13.3l0.2,13.8l1.3,14.1l2.8,14.6l3.8,14.8l5,14.8l1,2.5C134.3,292.8,118.5,258.3,118.5,220.1z M255.1,356.5
		c-1.3,0-2.5,0-3.8-0.3c-4.3,0-8.6-0.2-13.1-0.8c-5.8-0.8-11.8-2-17.6-3.5c-8-2-16.1-5-23.4-8.5c-1.5-0.5-3-1.3-4.5-2
		c-6.5-3.5-12.8-7.5-18.9-11.8l-1.3-2.5l-6-15.1l-1.5-3.8l-3.5-10.5l-3.5-14.1l-2.5-14.1l-1.3-13.3L154,243l0.5-12.6l1.8-12.3
		l2.5-11.8l3.5-11.3l2.8-7.5l1.5-3.5l5-10.6l5.5-9.8l6.5-9.6v-0.3l2.3,1l5,2.8l1.8,1.5l2.5,1.8l2,2l2,2l3.5,4.5l3,5.1l3,5.5l2.5,6.3
		l2.3,6.5l2.3,7.1l1.8,7.3l2,7.8l1,5l0.8,3.1l1.8,8.3l1.8,8.5l2,8.8l2,8.8l2.3,9l2.5,9.1l2.8,9.3l1.8,5.5l1.5,3.5l3.5,9l4,9.1l4,8.3
		l0.5,0.8l5.3,8.8l5.5,8.8l6.5,8.3l6.8,7.8C269.2,355.7,262.1,356.5,255.1,356.5z M304.1,347.1c-6,2.2-12.3,4.3-18.6,5.8l-3.3-3.5
		l-6.5-7.8l-6.3-7.8l-5.5-8.3l-4.8-8.5l-4.3-8.6l-3.5-7.3l-0.5-1.3l-3.5-8.8l-3-8.8l-2.8-9.1l-2.3-8.8l-1-3l-1.3-5.8l-2-8.8l-2-8.8
		l-1.8-8.5l-1.8-8.3l-1.8-8.3l-2-7.8l-2-7.5l-2.3-7.3l-0.8-2.2l-1.5-4.8l-3-6.5l-3-6.3l-3.5-5.8l-4.3-5.3l-4.5-4.5l-3.5-2.8
		l-1.8-1.5l-2.8-1.5l-3-1.8l-0.8-0.3l1.5-2l2.3-2.8l4.5-4.8l0.8-1l8.1-8l2,0.8l9.1,3l3.5,1.3l5.8,2.2l9.1,4.3l2.8,1.8l6.3,3l6.8,4.3
		l2,1.2l8.8,5.8l8.8,6.6l8,7l8.3,7.6l8.3,8l7.8,8.8l0.7,0.8l6.8,8.3l7.3,9.8l6.8,10.3l6.5,10.6l6.3,11.3l5.8,11.8l5.3,12.3l5,12.8
		l4.3,13.3l2.8,9.8C346.1,323.8,326.5,338.3,304.1,347.1z M366,293l-4.5-13.9l-5-13.1l-5.3-12.9l-6-12l-6.3-11.6l-6.8-11.1
		l-7.3-10.6l-7.3-10l-7.8-9.6l-5.5-6l-2.8-2.8l-8.3-8.6l-8.5-7.8l-8.6-7.3l-9-6.8l-9-6l-6.5-3.8l-2.8-1.8l-9.6-5l-0.8-0.2l-8.6-4.3
		l-9.1-3.5l-0.5-0.2l-7.1-2.3l1.3-1l6.3-5l2.5-2l9.1-6.3l1.5-0.8l2.3,1l2.3,0.8l3.5,1.3l5.5,1.7l4,1l1.2,0.2l5.3,1.3l5.3,0.8
		l5.3,0.7l5,0.8l4.8,0.5l4.8,0.5l5,0.5l5,0.5l4.8,0.5l5,0.8l1.2,0.2l3.5,0.7l5,1l5,1.5l5,1.8l5.3,1.8l5.3,2.5l5.3,2.8l5.5,3.3
		l5.8,3.8l5.8,4.3l6,5l6.3,5.6l6.5,6.3l5.3,5.6c7.3,16.8,11.3,35.2,11.3,54.3c0,28.6-8.8,55.1-23.9,77L366,293z"/>
	<polygon fill="#FFFFFF" stroke="#009950" stroke-width="0.6291" stroke-miterlimit="10" points="112.7,296 120.4,311.6 
		137.6,314.1 125.1,326.2 128.1,343.3 112.7,335.2 97.4,343.3 100.3,326.2 87.9,314.1 105,311.6 	"/>
	<polygon fill="#FFFFFF" stroke="#009950" stroke-width="0.6291" stroke-miterlimit="10" points="393,302.7 400.7,318.3 
		417.9,320.8 405.5,332.9 408.4,350 393,341.9 377.7,350 380.6,332.9 368.2,320.8 385.4,318.3 	"/>
	<polygon fill="#FFFFFF" stroke="#009950" stroke-width="0.6291" stroke-miterlimit="10" points="421.8,269.9 427.4,281.3 
		440,283.1 430.9,291.9 433,304.4 421.8,298.5 410.6,304.4 412.8,291.9 403.7,283.1 416.2,281.3 	"/>
	<polygon fill="#FFFFFF" stroke="#009950" stroke-width="0.6291" stroke-miterlimit="10" points="85.8,258.5 91.4,269.9 104,271.7 
		94.9,280.5 97,293 85.8,287.1 74.6,293 76.8,280.5 67.7,271.7 80.2,269.9 	"/>
	<polygon fill="#FFFFFF" stroke="#009950" stroke-width="0.6291" stroke-miterlimit="10" points="74.4,222.2 79.3,232.1 90.1,233.6 
		82.3,241.3 84.1,252.1 74.4,247 64.7,252.1 66.6,241.3 58.8,233.6 69.6,232.1 	"/>
	<polygon fill="#FFFFFF" stroke="#009950" stroke-width="0.6291" stroke-miterlimit="10" points="436.1,227.9 440.9,237.7 
		451.8,239.3 443.9,247 445.8,257.8 436.1,252.6 426.4,257.8 428.2,247 420.4,239.3 431.2,237.7 	"/>
	<g>
		<path fill="#FFFFFF" d="M259.5,391.5c20.1,0,36.3-8.3,36.3-18.5c0-10.2-16.3-18.5-36.3-18.5c-20.1,0-36.3,8.3-36.3,18.5
			C223.2,383.2,239.4,391.5,259.5,391.5"/>
		<path fill="#E0832A" d="M211.9,456.8c-20.3-25.3-75.4-45.6-75.4-45.6s-21.3-64.7,43.4-125.4c6.4-4.5,46.4,14.6,46.4,14.6
			L211.9,456.8z"/>
		<path fill="none" stroke="#12110C" stroke-width="0.4718" d="M211.9,456.8c-20.3-25.3-75.4-45.6-75.4-45.6s-21.3-64.7,43.4-125.4
			c6.4-4.5,46.4,14.6,46.4,14.6L211.9,456.8z"/>
		<path fill="#E0832A" d="M299.5,456.8c20.3-25.3,75.4-45.6,75.4-45.6s21.3-64.7-43.4-125.4c-6.4-4.5-46.4,14.6-46.4,14.6
			L299.5,456.8z"/>
		<path fill="none" stroke="#12110C" stroke-width="0.4718" d="M299.5,456.8c20.3-25.3,75.4-45.6,75.4-45.6s21.3-64.7-43.4-125.4
			c-6.4-4.5-46.4,14.6-46.4,14.6L299.5,456.8z"/>
		<path fill="#E0832A" d="M323.3,416c-13.3-21.8-24.6-39.6-24.6-39.6h-41.1h-3.7h-41.1c0,0-11.3,17.9-24.6,39.6
			c9.2,8.4,20,32.2,25.6,69.9c20-5.7,36.6-6.9,41.9-7.1c5.4,0.2,22,1.5,41.9,7.1C303.3,448.2,314.1,424.4,323.3,416"/>
		<path fill="none" stroke="#12110C" stroke-width="0.4718" d="M323.3,416c-13.3-21.8-24.6-39.6-24.6-39.6h-41.1h-3.7h-41.1
			c0,0-11.3,17.9-24.6,39.6c9.2,8.4,20,32.2,25.6,69.9c20-5.7,36.6-6.9,41.9-7.1c5.4,0.2,22,1.5,41.9,7.1
			C303.3,448.2,314.1,424.4,323.3,416z"/>
		<polygon fill="#FBC5B1" points="322.4,332.7 322.4,288.1 257.5,288.1 253.9,288.1 189.1,288.1 189.1,332.7 219.9,347.6 
			219.9,355.5 253.9,359.5 253.9,359.9 255.7,359.7 257.5,359.9 257.5,359.5 291.5,355.5 291.5,347.6 		"/>
		<polygon fill="none" stroke="#12110C" stroke-width="0.4718" points="322.4,332.7 322.4,288.1 257.5,288.1 253.9,288.1 
			189.1,288.1 189.1,332.7 219.9,347.6 219.9,355.5 253.9,359.5 253.9,359.9 255.7,359.7 257.5,359.9 257.5,359.5 291.5,355.5 
			291.5,347.6 		"/>
		<polygon fill="#12110C" points="189.1,296.7 189.1,314.5 226.9,334.1 247.9,325.5 248,308.6 		"/>
		<polygon fill="#12110C" points="322.8,296.7 322.8,314.5 285,334.1 264.1,325.5 264,308.6 		"/>
		<path fill="#9B9A9C" d="M255.7,196.2L255.7,196.2C255.7,196.2,255.7,196.2,255.7,196.2c-0.1,0-0.1,0-0.2,0l0,0
			c-58.2,0.2-81,95.2-81,95.2c29.4,26.8,77.7,27.7,81,27.8l0,0c0,0,0,0,0.1,0c0.1,0,0.1,0,0.1,0l0,0c3.2,0,51.6-1,81-27.8
			C336.7,291.4,313.9,196.4,255.7,196.2"/>
		<path fill="none" stroke="#12110C" stroke-width="0.4718" d="M255.7,196.2L255.7,196.2C255.7,196.2,255.7,196.2,255.7,196.2
			c-0.1,0-0.1,0-0.2,0l0,0c-58.2,0.2-81,95.2-81,95.2c29.4,26.8,77.7,27.7,81,27.8l0,0c0,0,0,0,0.1,0c0.1,0,0.1,0,0.1,0l0,0
			c3.2,0,51.6-1,81-27.8C336.7,291.4,313.9,196.4,255.7,196.2z"/>
		<path fill="#00A85F" d="M332.2,276.6c-30,22.6-74.8,23.1-76.6,23.1c-1.9,0-46.6-0.5-76.6-23.1c-3,8.9-4.4,14.8-4.4,14.8
			c29.4,26.8,77.7,27.7,81,27.8l0,0c0,0,0,0,0.1,0c0.1,0,0.1,0,0.1,0l0,0c3.2,0,51.6-1,81-27.8C336.7,291.4,335.3,285.5,332.2,276.6
			"/>
		<path fill="none" stroke="#12110C" stroke-width="0.4718" d="M332.2,276.6c-30,22.6-74.8,23.1-76.6,23.1
			c-1.9,0-46.6-0.5-76.6-23.1c-3,8.9-4.4,14.8-4.4,14.8c29.4,26.8,77.7,27.7,81,27.8l0,0c0,0,0,0,0.1,0c0.1,0,0.1,0,0.1,0l0,0
			c3.2,0,51.6-1,81-27.8C336.7,291.4,335.3,285.5,332.2,276.6z"/>
		<polygon fill="#C6C5C6" points="267.4,323.9 267.4,196.1 243.4,196.1 243.4,323.9 255.2,334.8 255.4,334.9 255.4,335 255.4,334.9 
			255.4,335 255.4,334.9 255.6,334.8 		"/>
		<path fill="#FFFFFF" d="M320.4,257.7c-12.8-27.5-33.8-56.9-64.7-57v0c0,0-0.1,0-0.1,0c0,0-0.1,0-0.1,0v0
			c-24.6,0.1-42.9,18.7-55.8,40.1c12.4-17.7,29-31.6,50.3-31.7v0c0,0,0.1,0,0.1,0s0.1,0,0.1,0v0c27.8,0.1,47.5,23.9,60.6,48.6H320.4
			z"/>
		<path fill="#C6C5C6" d="M180.5,154.9c0,0,35.2-3.9,32.8,22.8c-2.3,26.7-56.8,28.9-58.9,53.6c-2.2,24.7,54.7-0.7,54.7-0.7
			s14.4,35.6-24.1,50.1c-38.6,14.5-86.5,4.9-83.1-34.1c3.4-39,96.5-51.1,98.3-71C201.8,155.6,180.5,154.9,180.5,154.9"/>
		<path fill="none" stroke="#12110C" stroke-width="0.4718" stroke-linecap="round" stroke-linejoin="round" d="M180.5,154.9
			c0,0,35.2-3.9,32.8,22.8c-2.3,26.7-56.8,28.9-58.9,53.6c-2.2,24.7,54.7-0.7,54.7-0.7s14.4,35.6-24.1,50.1
			c-38.6,14.5-86.5,4.9-83.1-34.1c3.4-39,96.5-51.1,98.3-71C201.8,155.6,180.5,154.9,180.5,154.9z"/>
		<path fill="#C6C5C6" d="M331,154.9c0,0-35.2-3.9-32.8,22.8c2.3,26.7,56.8,28.9,58.9,53.6c2.2,24.7-54.6-0.7-54.6-0.7
			s-14.5,35.6,24.1,50.1c38.6,14.5,86.5,4.9,83.1-34.1c-3.4-39-96.5-51.1-98.3-71S331,154.9,331,154.9"/>
		<path fill="none" stroke="#12110C" stroke-width="0.4718" stroke-linecap="round" stroke-linejoin="round" d="M331,154.9
			c0,0-35.2-3.9-32.8,22.8c2.3,26.7,56.8,28.9,58.9,53.6c2.2,24.7-54.6-0.7-54.6-0.7s-14.5,35.6,24.1,50.1
			c38.6,14.5,86.5,4.9,83.1-34.1c-3.4-39-96.5-51.1-98.3-71S331,154.9,331,154.9z"/>
		<path fill="#FFFFFF" d="M321.8,286.8c-29,16-64.5,16.4-66.1,16.4c-1.7,0-37.2-0.4-66.2-16.4c31.5,22.4,64.4,23,66.2,23
			C257.4,309.8,290.3,309.2,321.8,286.8"/>
		<polygon fill="#9B9A9C" points="270.1,328.7 270.1,193.3 255.4,193.3 255.4,193.3 240.7,193.3 240.7,328.7 255.2,342 255.4,342.2 
			255.4,342.3 255.4,342.2 255.4,342.3 255.4,342.2 255.6,342 		"/>
		<polygon fill="none" stroke="#12110C" stroke-width="0.4718" stroke-linecap="round" stroke-linejoin="round" points="
			270.1,328.7 270.1,193.3 255.4,193.3 255.4,193.3 240.7,193.3 240.7,328.7 255.2,342 255.4,342.2 255.4,342.3 255.4,342.2 
			255.4,342.3 255.4,342.2 255.6,342 		"/>
		<polygon fill="#00A85F" points="267.4,323.9 267.4,196.1 243.4,196.1 243.4,323.9 255.2,334.8 255.4,334.9 255.4,335 255.4,334.9 
			255.4,335 255.4,334.9 255.6,334.8 		"/>
		<path fill="#FFFFFF" d="M267.4,226.3v-30.2h-24v16.7C253.1,213.9,261.6,218.9,267.4,226.3"/>
		<path fill="#12110C" d="M111.8,235.7c0.2-1.9,0.5-3.7,1.1-5.5c-4,4.6-6.6,9.8-7.1,15.6c-3.2,36.5,41.1,45.5,76.7,31.9
			c2.2-0.8,4.2-1.8,6.1-2.7C150.5,285.3,108.5,273.6,111.8,235.7"/>
		<path fill="#12110C" d="M399.1,235.7c-0.2-1.9-0.5-3.7-1.1-5.5c4,4.6,6.5,9.8,7.1,15.6c3.2,36.5-41.1,45.5-76.7,31.9
			c-2.2-0.8-4.2-1.8-6.1-2.7C360.4,285.3,402.4,273.6,399.1,235.7"/>
		<path fill="#FFFFFF" d="M203,174c2.9,22.5-53.1,36.4-53.1,57.3s23.1,17.1,57.4,3.8c1.4,10.1,0,19.5-3,25
			c-34.3,7.8-66.8,4.2-66.8-23.4C137.6,209.1,199.8,200.7,203,174"/>
		<path fill="#FFFFFF" d="M308.5,174c-2.9,22.5,53,36.4,53,57.3s-23.1,17.1-57.4,3.8c-1.4,10.1,0,19.5,3,25
			c34.3,7.8,66.8,4.2,66.8-23.4C373.9,209.1,311.7,200.7,308.5,174"/>
		<path fill="#FFFFFF" d="M210.2,317c0,0,12.8,3.6,26.5,4.5C237.2,327.5,229.1,331,210.2,317"/>
		<path fill="#FFFFFF" d="M300.6,317c0,0-12.8,3.6-26.5,4.5C273.6,327.5,281.7,331,300.6,317"/>
		<path fill="none" stroke="#12110C" stroke-width="0.118" d="M227.4,347.7"/>
		<polygon fill="#12110C" points="223.5,341.5 235.5,341.5 221.2,338.9 219.3,349.9 224.9,349.9 		"/>
		<polygon fill="#12110C" points="287.9,341.5 276,341.5 290.2,338.9 292.1,349.9 286.5,349.9 		"/>
		<polygon fill="#12110C" points="248,364 250.6,359.3 261.7,359.1 264,364.2 255.4,367.6 		"/>
		<polygon fill="#12110C" points="241.3,371.8 242.8,376 235.7,376.2 		"/>
		<polygon fill="#12110C" points="270,371.8 268.4,376 275.6,376.2 		"/>
		<polygon fill="#12110C" points="255.2,371.1 256.7,376.2 253.6,376.2 		"/>
		<path fill="#F7952B" d="M231.1,459.9c0,0,15.9,43.6,24.2,43.6c8.3,0,25-43.6,25-43.6"/>
		<path fill="#E0832A" d="M231.1,459.9c0,0,15.9,43.6,24.2,43.6c8.3,0,25-43.6,25-43.6"/>
		<path fill="#12110C" d="M137.6,410.7c0,0,35.8-1,51.6,6.9c10.7,11.3,15.7,29.9,15.7,29.9s-38.7-24.2-49-28
			C145.5,415.9,137.6,410.7,137.6,410.7"/>
		<path fill="#12110C" d="M373.9,410.7c0,0-35.8-1-51.5,6.9c-10.7,11.3-15.7,29.9-15.7,29.9s38.7-24.2,49-28
			C366,415.9,373.9,410.7,373.9,410.7"/>
		<path fill="#E0832A" d="M158.9,459.5c0,0,28.3-82.3,34.4-89.2c6.2-6.9,27.4-23.5,44.1-23.5c6.9,0,13.1,10.2,13.1,10.2
			s3.5,3.5-16.6,19.6c-3.2,2.5-18.6,0.3-21.3,2.5C209.9,381.2,195.3,409,158.9,459.5"/>
		<path fill="none" stroke="#12110C" stroke-width="0.4718" stroke-linejoin="round" d="M158.9,459.5c0,0,28.3-82.3,34.4-89.2
			c6.2-6.9,27.4-23.5,44.1-23.5c6.9,0,13.1,10.2,13.1,10.2s3.5,3.5-16.6,19.6c-3.2,2.5-18.6,0.3-21.3,2.5
			C209.9,381.2,195.3,409,158.9,459.5z"/>
		<path fill="#E0832A" d="M352.6,459.5c0,0-28.3-82.3-34.5-89.2c-6.2-6.9-27.4-23.5-44.1-23.5c-6.9,0-13.1,10.2-13.1,10.2
			s-3.5,3.5,16.6,19.6c3.2,2.5,18.6,0.3,21.3,2.5C301.5,381.2,316.2,409,352.6,459.5"/>
		<path fill="none" stroke="#12110C" stroke-width="0.4718" stroke-linejoin="round" d="M352.6,459.5c0,0-28.3-82.3-34.5-89.2
			c-6.2-6.9-27.4-23.5-44.1-23.5c-6.9,0-13.1,10.2-13.1,10.2s-3.5,3.5,16.6,19.6c3.2,2.5,18.6,0.3,21.3,2.5
			C301.5,381.2,316.2,409,352.6,459.5z"/>
		<path fill="#12110C" d="M213.4,485.3c0,0,12.7-6.2,21.1-15.1c2.2,3.5,4.8,9.7,4.8,9.7l-24.4,5.8L213.4,485.3z"/>
		<path fill="#12110C" d="M297.9,485.3c0,0-12.7-6.2-21.1-15.1c-2.2,3.5-4.8,9.7-4.8,9.7l24.4,5.8L297.9,485.3z"/>
		<path fill="#12110C" d="M189.5,413.9c0,0,24.5-31,41.5-36.4c-14.1-0.3-17.6,1-17.6,1L189.5,413.9z"/>
		<path fill="#12110C" d="M321.8,413.9c0,0-24.5-31-41.5-36.4c14.1-0.3,17.6,1,17.6,1L321.8,413.9z"/>
		<path fill="#12110C" d="M174.2,292.2l14.9,9.4v8.1c0,0-15.5-9.1-17.9-14C173,293.2,174.2,292.2,174.2,292.2"/>
		<path fill="#12110C" d="M337.2,292.2l-14.9,9.4v8.1c0,0,15.5-9.1,17.9-14C338.4,293.2,337.2,292.2,337.2,292.2"/>
		<polygon fill="#12110C" points="187.7,332.8 220.2,348.3 220.4,352.1 213.7,355.4 		"/>
		<polygon fill="#12110C" points="323.7,332.8 291.2,348.3 291.1,352.1 297.7,355.4 		"/>
		<polygon fill="#12110C" points="150.2,413.9 157.5,377.5 157.8,414 		"/>
		<polygon fill="#12110C" points="150.2,413.9 160.6,361.5 161.1,414 		"/>
		<polygon fill="#12110C" points="361.2,413.9 350.8,361.5 350.4,414 		"/>
		<polygon fill="#12110C" points="279.5,482.4 288.1,436.9 270.7,479 		"/>
		<polygon fill="#12110C" points="231.5,482.4 222.8,436.9 240.3,479 		"/>
		<polygon fill="#12110C" points="240.3,389.9 268.4,389.9 254.4,398.8 		"/>
	</g>
	<g>
		<path fill="#FFFFFF" d="M70.1,160.9l5.5-16.9l11,3.6l-2.5,7.8l3.7,1.2l2.3-7.1l10.6,3.4l-2.3,7.1l3.9,1.2l2.6-8.1l11,3.6
			l-5.6,17.2L70.1,160.9z"/>
		<path fill="#FFFFFF" d="M104,146l1.6-0.4c2.4-0.6,4.5-2,5.2-3.6c0.6-1.2,0.1-2.6-1.2-3.2c-1.1-0.5-1.9-0.4-2.8,0.6l-1.9,2.1
			c-2.8,3.1-7.7,3.5-12.9,0.9c-8-3.9-11.7-11.1-8.7-17.1c1.3-2.6,3.3-4.3,6.8-5.7l8.6,7c-3,0.9-4.5,1.9-5.3,3.5
			c-0.6,1.2-0.2,2.4,1.1,3c0.9,0.4,1.6,0.3,2.4-0.5l2.2-2.3c3.2-3.2,8-3.4,13.6-0.7c7.9,3.8,11.5,10.8,8.6,16.9
			c-1.5,3.1-4.2,5.6-7.9,7.4L104,146z"/>
		<path fill="#FFFFFF" d="M115.6,123.6l1.6-0.1c2.4-0.2,4.7-1.3,5.8-2.8c0.8-1.1,0.5-2.5-0.7-3.4c-1-0.7-1.8-0.7-2.8,0.2l-2.3,1.8
			c-3.2,2.6-8.1,2.2-12.9-1.1c-7.3-5.1-9.8-12.8-5.9-18.3c1.7-2.4,3.9-3.8,7.6-4.6l7.4,8.3c-3.1,0.5-4.8,1.2-5.8,2.6
			c-0.8,1.1-0.6,2.3,0.6,3.1c0.8,0.5,1.6,0.5,2.5-0.1l2.6-2c3.7-2.6,8.4-2.1,13.6,1.5c7.2,5,9.6,12.5,5.8,18c-1.9,2.8-5,4.9-9,6.1
			L115.6,123.6z"/>
		<path fill="#FFFFFF" d="M113.2,81.8l7.2-6.7l14,10.6c1,0.7,1.9,1.5,3.8,3.2l0.2-0.2c-1.5-1.8-2.1-2.5-3-4L125.9,70l7.2-6.6
			L165,91.5l-6.8,6.3l-13.7-13.1c-1.1-1-1.6-1.6-2.9-3l-0.1,0.1c1.3,1.8,1.7,2.4,2,2.9l10.4,17l-4.1,3.8l-15.1-11.2
			c-1-0.7-1.8-1.4-3.5-3l-0.2,0.2c1.4,1.5,1.8,1.9,2.2,2.5l12.4,15.4l-6.8,6.3L113.2,81.8z"/>
		<path fill="#FFFFFF" d="M163.2,56.2l5-2.6l10,19.3l4.2-2.2l4.7,9.2l-9.2,4.7L163.2,56.2z"/>
		<path fill="#FFFFFF" d="M198.1,67.4c0.4,2,0.5,2.9,0.4,4.5c-0.2,2.9-1.2,4.5-3.2,5.3c-1.7,0.7-4,0.1-5.9-1.6
			c-1.7-1.5-3.2-3.9-4.3-6.8c-2.6-6.7-2.1-12.3,1.4-13.7c2.1-0.8,4.4,0,6.6,2.6c1.6,1.8,3.1,4.3,4.1,6.8l0.4,0.9l-7.1,2.8
			c1,2.5,1.8,3.4,2.5,3.1c0.6-0.2,0.7-0.8,0.4-2.2L198.1,67.4z M191.1,63.1c-0.8-1.7-1.6-2.5-2.3-2.2c-0.7,0.3-0.7,1.3,0,3.1
			L191.1,63.1z"/>
		<path fill="#FFFFFF" d="M204.4,39.8l7.2-1.7c2.3-0.5,4.6,0.9,6.4,4.1c0.9,1.6,1.7,3.8,2.2,5.8c1.5,6.4,0.6,11-2.3,11.7l-3,0.7
			l2.2,9.4l-5.3,1.3L204.4,39.8z M213.9,52.3c0.9-0.2,1.3-1.4,0.9-3.2c-0.4-1.6-1.2-2.4-2.1-2.2l-1,0.2l1.3,5.4L213.9,52.3z"/>
		<path fill="#FFFFFF" d="M236,47.3c1.2,2,2,4.5,2.4,7.5c1,6.8-0.9,11.9-4.8,12.4c-3.8,0.6-7.2-3.9-8.2-10.6
			c-1.1-7.1,0.8-12.3,4.6-12.9C232.4,43.4,234.4,44.5,236,47.3z M230.4,55.7c0.3,1.8,1.1,3.1,2,3c0.9-0.1,1.2-1.5,1-3.4
			c-0.3-1.9-1.1-3.1-1.9-3C230.6,52.4,230.2,53.8,230.4,55.7z"/>
		<path fill="#FFFFFF" d="M242.6,42.8l5.3-0.1l0,1.5c0,0,0,0.3,0,0.6c0,0.2,0,0.4,0,0.7h0.1c1-3.2,1.6-3.9,3.6-3.9l0.3,11.5
			c-0.9-1-1.1-1.2-1.7-1.2c-1.2,0-2,1.7-2,4l0.2,9.2l-5.2,0.1L242.6,42.8z"/>
		<path fill="#FFFFFF" d="M256.4,51.2l-1.3,0.1l0.4-8.6l1.3,0.3l0.4-8.2l5.2,0.3l-0.4,8.2l1.8-0.1l-0.4,8.6l-1.8-0.3l-0.7,14
			l-5.2-0.3L256.4,51.2z"/>
		<path fill="#FFFFFF" d="M278.6,59.8c-0.6,2-1,2.8-1.8,4.1c-1.6,2.4-3.2,3.4-5.4,3.1c-1.9-0.2-3.5-1.8-4.4-4.2
			c-0.7-2.1-0.9-4.9-0.5-8c0.9-7.2,4.1-11.8,7.8-11.3c2.3,0.3,3.8,2.1,4.6,5.5c0.5,2.3,0.6,5.2,0.3,7.9l-0.1,1l-7.6-0.9
			c-0.3,2.7-0.1,3.9,0.7,4c0.6,0.1,1-0.4,1.4-1.7L278.6,59.8z M274.5,52.6c0.1-1.9-0.2-2.9-0.9-3c-0.7-0.1-1.2,0.8-1.5,2.7
			L274.5,52.6z"/>
		<path fill="#FFFFFF" d="M287.8,33.5l5.1,1l-6.6,34.4l-5.2-1L287.8,33.5z"/>
		<path fill="#FFFFFF" d="M308.7,74.1c-0.4,0.2-0.6,0.2-0.9,0.3c-1.1,0.2-2.4,0.1-3.2-0.2c-4.2-1.3-5.4-9.1-2.7-17.9
			c2.8-9,8.3-15,12.7-13.7c1.3,0.4,2.4,1.2,3.2,2.3l-3.5,11.7c-0.5-2.5-1.1-3.7-2.1-4c-1.6-0.5-3.7,1.7-4.8,5
			c-1,3.3-0.5,6.4,1.1,6.9c1.1,0.4,2.2-0.2,3.9-1.9L308.7,74.1z"/>
		<path fill="#FFFFFF" d="M329.5,63.3c0,2.3-0.6,4.9-1.8,7.6c-2.7,6.3-7,9.6-10.6,8.1c-3.5-1.5-4.1-7.1-1.5-13.3
			c2.8-6.6,7.1-10.1,10.6-8.5C328.5,58.1,329.6,60.1,329.5,63.3z M320.5,67.5c-0.7,1.7-0.7,3.2,0.1,3.6c0.8,0.3,1.8-0.6,2.6-2.4
			c0.7-1.8,0.7-3.2-0.1-3.5C322.2,64.8,321.1,65.8,320.5,67.5z M325.1,48.7l6-2.7l2.1,6.3l-2.6,3.5l-1.7-4.5l-4.5,1.8L325.1,48.7z"
			/>
		<path fill="#FFFFFF" d="M333.4,70.3l-1.3-0.4l4-7.6l1.1,0.8l3.8-7.2l4.6,2.4l-3.8,7.2l1.7,0.7l-4,7.6l-1.5-1l-6.5,12.4l-4.6-2.4
			L333.4,70.3z"/>
		<path fill="#FFFFFF" d="M349.8,87.8c-1.4,1.5-2.1,2.1-3.5,2.9c-2.5,1.5-4.4,1.6-6.2,0.4c-1.6-1-2.4-3.2-2.1-5.7
			c0.3-2.2,1.3-4.8,3-7.4c3.9-6,8.8-8.8,12-6.7c1.9,1.3,2.5,3.6,1.7,6.9c-0.6,2.3-1.7,5-3.2,7.3l-0.5,0.8l-6.4-4.2
			c-1.5,2.3-1.8,3.4-1.1,3.9c0.5,0.3,1.1,0.1,2-0.9L349.8,87.8z M349.3,79.5c1-1.6,1.1-2.7,0.5-3.1c-0.6-0.4-1.5,0.2-2.6,1.8
			L349.3,79.5z"/>
		<path fill="#FFFFFF" d="M387.2,83.6l-24,25.6l-3.7-3.5c0.3-0.3,0.5-0.5,0.7-0.8c0.5-0.5,1-0.9,1.9-1.7L362,103c-1,0.6-1.4,0.8-2,1
			c-1.5,0.5-2.7,0.3-3.4-0.3c-1.8-1.7,0.3-6.8,4.9-11.6c4.5-4.8,9.6-7.3,11.4-5.6c0.7,0.7,0.9,1.8,0.5,3.3c-0.1,0.4-0.3,0.9-0.6,1.6
			l0.1,0.1c1.1-1.4,1.5-1.9,2.1-2.5l8.4-9L387.2,83.6z M365.4,95.3c-1.4,1.5-2,3-1.4,3.6c0.6,0.6,2-0.1,3.3-1.5c1.4-1.5,2-3,1.4-3.6
			C368.2,93.3,366.8,93.9,365.4,95.3z"/>
		<path fill="#FFFFFF" d="M377.8,101.2l13.6-8.5l3.5,4l-14.4,7.6L377.8,101.2z"/>
		<path fill="#FFFFFF" d="M395.5,125c-8,5.4-15.7,6.3-18.5,2c-2.7-4.1,1.1-10.8,9.2-16.3c4-2.7,8.7-4.5,12.2-4.6
			c2.7-0.1,5,0.9,6.1,2.6C407.3,112.9,403.6,119.6,395.5,125z M389.1,115.6c-3,2-4.4,4.4-3.5,5.8c0.9,1.4,3.6,0.9,6.6-1.1
			c3.1-2.1,4.6-4.5,3.6-5.9C394.9,113.1,392.1,113.6,389.1,115.6z"/>
		<path fill="#FFFFFF" d="M403.6,126.6l2.2,4.5l-1.7,0.8c-0.7,0.3-0.8,0.4-1.4,0.5l-0.1,0.2c1.2-0.2,1.7-0.3,2.3-0.2
			c1.4,0.1,2.5,0.6,2.9,1.4c1.2,2.4-2.3,6.2-8.3,9.3c-3,1.5-5.8,2.4-8.1,2.6c-2.4,0.2-4.2-0.3-4.7-1.3c-0.4-0.8-0.1-2.1,0.7-3.3
			c0.2-0.3,0.5-0.7,1.1-1.3l-0.1-0.2c-1.3,0.8-1.8,1.2-2.6,1.6l-8.3,4.2l-2.4-4.7L403.6,126.6z M395.7,136.2c-1.8,0.9-2.8,2-2.4,2.8
			c0.4,0.7,1.9,0.6,3.6-0.2c1.8-0.9,2.8-2.1,2.4-2.9C399,135.1,397.5,135.3,395.7,136.2z"/>
		<path fill="#FFFFFF" d="M411.8,151c1-0.6,1.2-0.7,2.3-1.1l1.8,4.9l-21,7.9l-1.8-4.9l1-0.3c0.4-0.1,0.8-0.2,1.7-0.4l-0.1-0.1
			c-2.9-0.3-4-0.7-4.4-1.9c-0.9-2.5,3.1-6.1,9.3-8.4c6.4-2.4,12-2.3,12.9,0.2c0.5,1.3,0,2.4-2,4.1L411.8,151z M402.7,151.4
			c-1.7,0.6-2.7,1.7-2.4,2.4c0.3,0.7,1.8,0.8,3.5,0.2c1.7-0.6,2.6-1.6,2.3-2.4C405.9,150.9,404.4,150.8,402.7,151.4z"/>
		<path fill="#FFFFFF" d="M429.6,156.6l1.5,5l-33.7,9.8l-1.5-5L429.6,156.6z"/>
		<path fill="#FFFFFF" d="M408.4,185.4c-2,0.1-2.9,0-4.5-0.4c-2.8-0.7-4.3-1.9-4.7-4c-0.4-1.8,0.6-3.9,2.5-5.6
			c1.8-1.4,4.3-2.5,7.4-3.2c7-1.6,12.4-0.1,13.2,3.6c0.5,2.3-0.7,4.3-3.6,6.1c-2,1.3-4.7,2.3-7.4,2.9l-0.9,0.2l-1.6-7.5
			c-2.7,0.6-3.7,1.2-3.5,2c0.1,0.6,0.7,0.8,2.1,0.7L408.4,185.4z M413.8,179.1c1.8-0.5,2.7-1.2,2.5-1.9c-0.1-0.7-1.2-0.9-3.1-0.5
			L413.8,179.1z"/>
	</g>
</g>
</svg>
