<?xml version="1.0" encoding="utf-8"?>
<!-- Generator: Adobe Illustrator 24.0.1, SVG Export Plug-In . SVG Version: 6.00 Build 0)  -->
<svg version="1.1" id="Calque_1" xmlns="http://www.w3.org/2000/svg" xmlns:xlink="http://www.w3.org/1999/xlink" x="0px" y="0px"
	 viewBox="0 0 509.3 509.1" enable-background="new 0 0 509.3 509.1" xml:space="preserve">
<g>
	<path fill="#008444" d="M7.2,255.2C7.2,117.9,118.5,6.6,255.7,6.6s248.5,111.3,248.5,248.5S393,503.7,255.7,503.7
		C118.5,503.7,7.2,392.4,7.2,255.2z"/>
	<g>
		<path fill="#FFFFFF" d="M137.6,390.8l0.6,6.8l-23.4,24.5l-6.8-0.3l-15.8-15l5.5-5.7l1.6,1.6l18.7-19.6l-1.6-1.6l5.5-5.7
			L137.6,390.8z M111.5,414.2l18.7-19.6l-6.3-6l-18.7,19.6L111.5,414.2z"/>
		<path fill="#FFFFFF" d="M122.9,434.2l4.3-6.6l1.9,1.2l14.9-22.6l-1.9-1.2l4.4-6.6l20.9,13.8l-6.2,9.5l-6.6-4.4l1.9-2.9l-5.8-3.8
			l-5.2,8l9.1,6l-4.4,6.6l-9.1-6l-5.2,8l5.8,3.8l1.9-2.9l6.6,4.4l-6.2,9.5L122.9,434.2z"/>
		<path fill="#FFFFFF" d="M187.8,447.4l-6.5,2.2l-10-4.3l-2.6,6.1l2.1,0.9l-3.1,7.3l-11.5-4.9l3.1-7.3l2.1,0.9l10.7-24.9l-2.1-0.9
			l3.1-7.3l19.3,8.3l2.9,6.2L187.8,447.4z M181.9,441.2l4.9-11.5l-7.4-3.2l-4.9,11.5L181.9,441.2z"/>
		<path fill="#FFFFFF" d="M221.3,470.9l-6,3.3l-14.1-3.1l-4-5.5l6.5-29.8l-2.2-0.5l1.7-7.7l12.2,2.7l-1.7,7.7l-2.2-0.5l-5.8,26.4
			l8.7,1.9l5.8-26.4l-2.2-0.5l1.7-7.7l12.2,2.7l-1.7,7.7l-2.2-0.5L221.3,470.9z"/>
		<path fill="#FFFFFF" d="M236.1,477l0.5-7.9l2.3,0.1l1.6-27l-2.3-0.1l0.5-7.9l12.5,0.7l-0.5,7.9l-2.3-0.1l-1.6,27l2.3,0.1l-0.5,7.9
			L236.1,477z"/>
		<path fill="#FFFFFF" d="M285.1,471.5l-4.7,4.9l-13.6,1.1l-5.5-4l-0.6-6.9l7.9-0.6l0.3,3.5l8-0.6l-0.8-9.5l-10.8,0.9l-5.5-4.1
			l-1.3-16.4l4.7-4.9l13.6-1.1l5.4,4l0.6,6.9l-7.9,0.6l-0.3-3.5l-8,0.6l0.8,9.5l10.8-0.9l5.4,4.1L285.1,471.5z"/>
		<path fill="#FFFFFF" d="M319.7,468.4l-2.5-7.5l2.1-0.7l-7.9-24l-2.1,0.7l-2.5-7.5l4.1-3.3l5-1.7l11,33.2l2.1-0.7l2.5,7.5
			L319.7,468.4z"/>
		<path fill="#FFFFFF" d="M363.4,445.2l-2.6,6.3l-12.2,6.1l-6.5-1.8l-3.1-6.2l6.9-3.4l1.5,3.1l7.3-3.6l-4.2-8.6l-9.9,4.9l-6.5-1.8
			l-7.3-14.7l2.5-6.3l12.4-6.1l6.6,1.8L363.4,445.2z M347,429.9l-4.2-8.6l-7.3,3.6l4.2,8.6L347,429.9z"/>
		<path fill="#FFFFFF" d="M383.7,410.1l-1.6,6.7l-8.8,6.4l5.6,7.7l6.6-4.8l-2-2.8l6.4-4.7l6.7,9.2L377.3,442L365,425l1.5-6.6
			l8.9-6.5l-5.6-7.7l-6.5,4.8l2,2.8l-6.5,4.7l-4.1-5.6l1.5-6.6l11.1-8.1l6.7,0.6L383.7,410.1z"/>
		<path fill="#FFFFFF" d="M420.7,398.2l-0.3,6.8l-9.5,9.8l-6.8,0.5l-5-4.8l5.4-5.6l2.5,2.4l5.7-5.9l-6.9-6.6l-7.7,8l-6.7,0.5
			l-11.8-11.4l0.3-6.8l9.6-10l6.8-0.5L420.7,398.2z M400.2,389.4l-6.9-6.6l-5.7,5.9l6.9,6.6L400.2,389.4z"/>
	</g>
	<g>
		<path fill="#FEFEFE" d="M127.2,125.8l-6-7.1l2-1.7l-20.3-24.2l-2,1.7L95,87.5l11.2-9.4l6,7.1l-2,1.7l20.3,24.2l5.4-4.5l-2.6-3.1
			l7.1-6l8.6,10.2L127.2,125.8z"/>
		<path fill="#FEFEFE" d="M161.9,99.6l-4.4-8.1l2.3-1.3l-15.2-27.8l-2.3,1.3l-4.4-8.1l12.8-7l4.4,8.1l-2.3,1.3l15.1,27.8l2.3-1.3
			l4.4,8.1L161.9,99.6z"/>
		<path fill="#FEFEFE" d="M212.7,78.8l-2.5-8.9l2.5-0.7l-5-18.3l-3.2,18.8l-12.3-14.5l5,18.3l2.5-0.7l2.5,8.9L188,85.6l-2.5-8.9
			l2.7-0.7l-8.4-30.5l-2.6,0.7l-2.5-8.9l11.5-3.2l12.3,14.5l3.2-18.8l11.5-3.2l2.5,8.9l-2.6,0.7l8.4,30.5l2.6-0.7l2.5,8.9
			L212.7,78.8z"/>
		<path fill="#FEFEFE" d="M270.4,68.5l-6,5.2l-17.2,0l-5.9-5.2l0.1-39.6l5.9-5.3l17.2,0l6,5.3L270.4,68.5z M261.1,64.5l0-31.6
			l-10.6,0l-0.1,31.6L261.1,64.5z"/>
		<path fill="#FEFEFE" d="M314.1,77.3l-7.1,3.7L290.9,77l-4.5-6.5l9.4-38.5l7.1-3.7l16.1,3.9l4.6,6.5l-1.9,7.8l-9-2.2l1-3.9
			l-9.7-2.4l-7.5,30.7l9.7,2.4l2.6-10.9l-6.1-1.5l2.2-9l15.1,3.7L314.1,77.3z"/>
		<path fill="#FEFEFE" d="M326.9,87.5l4.3-8.2l2.4,1.2L348,52.4l-2.4-1.2L350,43l26,13.5l-6.1,11.8l-8.2-4.2l1.9-3.6l-7.2-3.7
			l-5.1,9.9l11.2,5.8l-4.3,8.2l-11.2-5.8l-5.1,9.9l7.2,3.7l1.9-3.6l8.2,4.2l-6.1,11.8L326.9,87.5z"/>
		<path fill="#FEFEFE" d="M389.6,123.8l-7.9,0.1l-12-10.5l-1.1-7.9l5.3-6.1l7,6.1l-2.7,3.1l7,6.1l7.3-8.4L383,98l-1-7.9l12.6-14.5
			l8-0.1l12,10.5l1,7.8l-5.3,6.1l-7-6.1l2.7-3.1l-7-6.1l-7.3,8.4l9.6,8.3l1,7.8L389.6,123.8z"/>
	</g>
	<path fill="#FFFFFF" d="M174.4,322.6L153.1,341h-58l-20.7-18.4V183.3l20.7-18.5h58l21.3,18.6v28.1h-32.5v-14.2h-35v111.1h35v-14.2
		h32.5L174.4,322.6L174.4,322.6z"/>
	<path fill="#FFFFFF" d="M299.5,261.6L278.8,280h-56.2l-21-18.4v-28.4h32.5v14.2H267v-39.2h-44.4l-21-18.5v-67.4l21-18.5h56.2
		l20.7,18.4v28.4H267v-14.2h-32.9v39.2h44.6l20.7,18.5L299.5,261.6L299.5,261.6z"/>
	<path fill="#FFFFFF" d="M440.3,262.6l-21.1,18.7h-44.5v27.2h9.4v32.5h-51.2v-32.5h9.3V197.4h-9.3v-32.5h86.3l21.1,18.6V262.6z
		 M407.8,248.8v-51.4h-33.1v51.4H407.8z"/>
	<path fill="#FFFFFF" d="M228.4,391.9l27-19.6l27,19.6l-10.3-31.8l27-19.6h-33.4l-10.3-31.8l-10.3,31.8h-33.4l27,19.6L228.4,391.9z"
		/>
</g>
</svg>
