<?xml version="1.0" encoding="utf-8"?>
<!-- Generator: Adobe Illustrator 24.0.1, SVG Export Plug-In . SVG Version: 6.00 Build 0)  -->
<svg version="1.1" id="Calque_1" xmlns="http://www.w3.org/2000/svg" xmlns:xlink="http://www.w3.org/1999/xlink" x="0px" y="0px"
	 width="360.5px" height="612px" viewBox="0 0 360.5 612" enable-background="new 0 0 360.5 612" xml:space="preserve">
<title>LyonVilleurbanne</title>
<rect y="0" fill="#FFFFFF" width="360.5" height="612"/>
<polygon points="163,203.7 130.6,203.7 233,67.4 196.9,40.3 67.3,212.8 85.3,249 163,249 "/>
<polygon points="275.2,203.7 195.9,203.7 195.9,249 229.8,249 164.3,335.7 164.6,280.1 119.3,279.9 118.7,403.5 159.3,417.3 
	293.3,240 "/>
<path d="M82.5,506.3V448h7.7v51.5h28.8v6.9L82.5,506.3z"/>
<path d="M128.3,506.3V448h20.1c3.5-0.1,7,0.2,10.4,0.8c3.2,0.7,6.1,2.1,8.6,4.2c3.1,2.7,5.5,6.1,6.9,10c1.6,4.5,2.4,9.2,2.3,13.9
	c0.1,4-0.5,8-1.6,11.8c-0.9,3-2.2,5.9-4,8.5c-1.4,2.1-3.3,3.9-5.3,5.3c-2.1,1.4-4.5,2.4-7,2.9c-3.1,0.7-6.2,1-9.4,1L128.3,506.3z
	 M136,499.5h12.5c3.1,0.1,6.1-0.3,9.1-1.1c2-0.6,3.8-1.6,5.2-3c2-2.1,3.5-4.6,4.3-7.4c1.1-3.6,1.6-7.4,1.5-11.2c0-6.1-1-10.8-3-14.1
	c-1.6-3-4.2-5.3-7.3-6.6c-2.1-0.8-5.4-1.2-10-1.2H136V499.5z"/>
<path d="M187,506.3V448h7.7v51.5h28.8v6.9L187,506.3z"/>
<path d="M274.5,485.9l7.7,2c-1.6,6.3-4.5,11.2-8.8,14.5c-4.4,3.4-9.9,5.2-15.5,5c-6.3,0-11.4-1.3-15.4-3.8c-4.1-2.7-7.2-6.6-9-11.1
	c-2.1-5-3.1-10.3-3.1-15.6c-0.1-5.5,1.1-11,3.5-15.9c2.2-4.4,5.7-8,9.9-10.3c4.3-2.4,9.2-3.6,14.2-3.5c5.9,0,10.8,1.5,14.8,4.5
	c4.1,3.1,7,7.5,8.3,12.5l-7.6,1.8c-1.3-4.2-3.3-7.3-5.9-9.3c-2.8-2-6.3-3-9.7-2.9c-4-0.1-7.9,1-11.3,3.2c-3,2.1-5.2,5.2-6.4,8.7
	c-1.2,3.6-1.8,7.4-1.8,11.2c-0.1,4.4,0.6,8.8,2.2,13c1.2,3.5,3.6,6.4,6.8,8.3c3,1.8,6.4,2.8,9.9,2.8c4,0.1,7.9-1.2,11-3.7
	C271.4,494.5,273.4,490.8,274.5,485.9z"/>
<path d="M105.7,563.7H91.4l-2,6.4H76.5l15.3-38.8h13.8l15.3,38.7h-13.2L105.7,563.7z M103.1,555.3l-4.5-13.9l-4.5,13.9H103.1z"/>
<path d="M122.8,557.2l12-0.7c0.1,1.5,0.7,3,1.6,4.2c1.4,1.6,3.4,2.5,5.6,2.3c1.5,0.1,3-0.3,4.2-1.2c0.9-0.7,1.4-1.7,1.5-2.8
	c0-1.1-0.5-2.1-1.4-2.7c-0.9-0.8-3.1-1.5-6.5-2.2c-5.5-1.2-9.5-2.7-11.8-4.7c-2.3-1.8-3.6-4.5-3.6-7.4c0-2,0.7-4,1.8-5.6
	c1.4-1.9,3.3-3.4,5.5-4.2c3.2-1.1,6.6-1.7,10-1.5c5.2,0,9.2,0.9,11.9,2.8c2.7,1.8,4.4,4.8,4.9,8.8l-11.9,0.7c-0.2-1.5-0.9-2.8-2-3.8
	c-1.2-0.9-2.7-1.3-4.2-1.2c-1.2-0.1-2.3,0.2-3.3,0.9c-0.7,0.5-1.1,1.3-1.1,2.2c0,0.7,0.4,1.3,0.9,1.7c0.6,0.5,2,1,4.2,1.4
	c5.5,1.1,9.5,2.3,11.9,3.4c2.1,0.9,3.9,2.4,5.2,4.3c1.1,1.7,1.7,3.7,1.6,5.7c0,2.5-0.8,4.9-2.2,6.9c-1.5,2.1-3.6,3.8-6.1,4.8
	c-3.1,1.2-6.5,1.7-9.8,1.6c-6.9,0-11.8-1.3-14.4-3.8C124.6,564.4,123,560.9,122.8,557.2z"/>
<path d="M162.2,531.3h13.2l9.2,27.9l9.1-27.9h12.8L191.2,570h-13.7L162.2,531.3z"/>
<path d="M210.5,531.3h33.8v8.3h-21.2v6.2h19.6v7.9h-19.6v7.6H245v8.7h-34.4V531.3z"/>
<path d="M251.7,531.3h12.6v29.2h19.7v9.5h-32.3V531.3z"/>
</svg>
