<?xml version="1.0" encoding="utf-8"?>
<!-- Generator: Adobe Illustrator 24.0.1, SVG Export Plug-In . SVG Version: 6.00 Build 0)  -->
<svg version="1.1" id="Calque_1" xmlns="http://www.w3.org/2000/svg" xmlns:xlink="http://www.w3.org/1999/xlink" x="0px" y="0px"
	 width="283.5px" height="283.5px" viewBox="0 0 283.5 283.5" enable-background="new 0 0 283.5 283.5" xml:space="preserve">
<g>
	<path fill="#867651" stroke="#867651" stroke-width="1.6307" d="M195.6,40.7c-0.4-6.8-4.2-10-11.4-10.2c-2.4,0-5.8,0.3-10.3,0.9
		c-0.5,0.1-0.9,0.3-1.5,0.3c-1.3-3.7-3.3-6-5.9-6.9c-2.1-0.7-4.9-0.4-8.6,0.4l-9,2.2c-1.6,0.3-3,0.4-4.2,0.3
		c-0.5-1.3-0.9-2.4-1.5-2.9c0.7-0.3,1.2-0.7,1.7-1.1c0.8-0.9,1.2-2,1.2-3.2s-0.4-2.1-1.2-3c-0.4-0.3-0.7-0.5-1.1-0.8l-0.9-2.5
		c0.9-0.3,1.6-0.9,1.9-1.9l4.6,1.6V8.4l-4.6,1.6c-0.3-0.9-0.9-1.6-1.9-1.9l1.7-4.6h-5.7l1.7,4.6c-0.9,0.3-1.6,0.9-2,1.9l-4.5-1.6V14
		l4.5-1.6c0.4,0.9,1.1,1.6,2,1.9l-0.9,2.5c-0.4,0.3-0.7,0.5-1.1,0.8c-0.8,0.9-1.3,1.9-1.3,3c0,1.2,0.5,2.2,1.3,3.2
		c0.5,0.4,1.1,0.8,1.7,1.1c-0.5,0.5-0.9,1.3-1.2,2.4c-1.5,0.3-3.1,0.3-5-0.1l-9-2.2c-3.6-0.8-6.5-0.9-8.5-0.3
		c-2.8,0.9-4.8,3.3-5.9,7.1h-0.1c-0.3-0.1-0.7-0.1-0.9-0.3c-4.6-0.7-8.1-0.9-10.3-0.9c-7.3,0.1-11.1,3.4-11.4,10.2
		c-0.3,5,3.6,10.5,11.6,16.1l9.3,6.2c2.4,1.7,4.2,3.2,5.3,4.4c-0.3,0-0.5,0.1-0.7,0.1c-0.8,0.3-1.2,0.8-1.6,1.8
		c-0.3,0.9-0.3,1.8-0.1,2.9c0.5,2.5,1.8,3.6,3.8,3.2l0.1,4h51.7v-4c2.2,0.4,3.6-0.5,4.2-3.2c0.1-1.1,0.1-2-0.1-2.9
		c-0.4-1.1-0.9-1.6-1.7-1.8c-0.1,0-0.4-0.1-0.7-0.1c1.2-1.2,2.9-2.7,5.3-4.4l9.4-6.2C192,51.1,195.8,45.7,195.6,40.7z M137,44.2
		c0,0.4,0,0.8,0,1.3c-5.6,0.1-10.4,0.5-14.8,1.1c-0.9-1.6-1.6-3-2-4.2c-0.7-1.6-1.1-3.2-1.1-4.8l4.6-0.4c5.2-0.5,9-1.3,11.6-2.2
		c0.8-0.3,1.6-0.5,2.2-0.9C137.1,37.1,137,40.4,137,44.2z M163,42.7c-0.4,1.2-1.1,2.4-1.7,3.8c-4.8-0.7-9.7-1.1-14.7-1.2
		c0-0.3,0-0.7,0-1.1c0-3.8-0.3-7.1-0.7-10.2c0.7,0.4,1.3,0.7,2.2,0.9c2.5,0.9,6.5,1.7,11.6,2.2l4.2,0.4
		C163.9,39.2,163.7,40.9,163,42.7z M147,30.1c0.8,0,3-0.3,7-0.7c2.8-0.4,4.9-0.3,6.2,0.3c1.4,0.4,2.5,1.5,3.2,3c-0.1,0-0.3,0-0.3,0
		c-5,0.3-9.4-0.1-13.2-1.1c-1.9-0.5-3.4-1.1-4.6-1.7C145.8,30,146.4,30.1,147,30.1z M122.8,29.3c1.5-0.5,3.6-0.5,6.4-0.3
		c4,0.5,6.2,0.7,7,0.7c0.8,0,1.6,0,2.4-0.3c-0.1,0.3-0.1,0.3-0.1,0.4c-1.3,0.8-2.9,1.3-4.9,1.9c-3.8,0.9-8.2,1.3-13.1,1.1
		c-0.3,0-0.5,0-0.8,0C120.3,31,121.3,29.8,122.8,29.3z M102.1,46.3c-0.9-2.4-0.7-4.2,1.2-5.7c1.1-1.1,3.4-1.7,7-2.2
		c0.3,0.9,0.5,1.7,0.9,2.5c0.8,1.7,2.8,4,5.6,6.6c-4.5,0.9-8.3,2.1-11.5,3.6C103.6,49.3,102.6,47.7,102.1,46.3z M181.4,46.3
		c-0.5,1.3-1.6,2.9-3,4.8c-3.2-1.5-7-2.7-11.5-3.6c2.5-2.6,4.2-4.6,5-6.3c0.5-0.9,0.9-1.8,1.1-2.8c3.7,0.5,6.2,1.2,7.4,2.2
		C182.1,42.1,182.5,44,181.4,46.3z"/>
	<path fill="#867651" stroke="#000000" stroke-width="0.5236" d="M142.9,8.1l1.7-4.6h-5.7l1.7,4.6c-0.9,0.3-1.6,0.9-2,1.9l-4.5-1.6
		V14l4.5-1.6c0.4,0.9,1.1,1.6,2,1.9l-0.9,2.5c0.5-0.3,1.3-0.5,2-0.5c0.8,0,1.4,0.3,2.1,0.5l-0.9-2.5c0.9-0.3,1.6-0.9,1.9-1.9
		l4.6,1.6V8.4l-4.6,1.6C144.5,9.1,143.8,8.4,142.9,8.1z"/>
	<path fill="#867651" stroke="#000000" stroke-width="0.5236" d="M166.4,24.8c-2.1-0.7-4.9-0.4-8.6,0.4l-9,2.2
		c-1.6,0.3-3,0.4-4.2,0.3c0.1,0.7,0.4,1.3,0.5,2.1v0.1h0.1c0.5,0,1.1,0.1,1.7,0.1c0.8,0,3-0.3,7-0.7c2.8-0.4,4.9-0.3,6.2,0.3
		c1.4,0.4,2.5,1.5,3.2,3c0.1,0.4,0.4,1.1,0.4,1.6c0.3,1.1,0.3,2.1,0.3,3.3c-0.1,1.6-0.4,3.3-1.1,5c-0.4,1.2-1.1,2.4-1.7,3.8
		c-0.7,1.2-1.3,2.4-2.2,3.7c-2.1,3.4-3.6,6-4.2,7.4c-1.2,2.4-1.9,4.8-1.9,7.1c0.9,0,2,0.1,3,0.3c0.1-3.4,1.2-6.6,3.3-9.5
		c1.2-1.7,3.4-4.1,6.7-7.3c0.3-0.3,0.5-0.5,0.8-0.7c2.5-2.6,4.2-4.6,5-6.3c0.5-0.9,0.9-1.8,1.1-2.8c0.4-2,0.3-4.1-0.5-6.5
		c0,0,0-0.1,0-0.3C171.1,28,169.1,25.7,166.4,24.8z"/>
	<path fill="#867651" stroke="#000000" stroke-width="0.5236" d="M146.1,20.6c0-1.2-0.4-2.1-1.2-3c-0.4-0.3-0.7-0.5-1.1-0.8
		c-0.7-0.3-1.3-0.5-2.1-0.5c-0.7,0-1.4,0.3-2,0.5c-0.4,0.3-0.7,0.5-1.1,0.8c-0.8,0.9-1.3,1.9-1.3,3s0.5,2.2,1.3,3.2
		c0.5,0.4,1.1,0.8,1.7,1.1c0.4,0.1,0.9,0.3,1.3,0.3c0.5,0,1.1-0.1,1.4-0.3c0.7-0.3,1.2-0.7,1.7-1.1
		C145.7,22.8,146.1,21.8,146.1,20.6z"/>
	<path fill="#867651" stroke="#000000" stroke-width="0.5236" d="M145.2,30v-0.1c-0.1-0.8-0.4-1.5-0.5-2.1c-0.5-1.3-0.9-2.4-1.5-2.9
		c-0.4,0.1-0.9,0.3-1.4,0.3c-0.4,0-0.9-0.1-1.3-0.3c-0.5,0.5-0.9,1.3-1.2,2.4c-0.3,0.7-0.5,1.5-0.7,2.2c-0.1,0.3-0.1,0.3-0.1,0.4
		c-0.4,1.3-0.7,2.8-0.8,4.2c-0.5,3-0.7,6.3-0.7,10.2c0,0.4,0,0.8,0,1.3c0,5,0.5,9.3,1.5,13c0.8,3.3,1.7,5.3,2.8,5.8
		c0.3,0,0.4,0,0.5,0c0.3,0,0.4,0,0.7,0c1.1-0.5,2-2.5,2.8-5.8c0.9-3.7,1.3-8.1,1.4-13.2c0-0.3,0-0.7,0-1.1c0-3.8-0.3-7.1-0.7-10.2
		C145.8,32.6,145.6,31.1,145.2,30z"/>
	<path fill="#867651" stroke="#000000" stroke-width="0.5236" d="M145.9,34c0.7,0.4,1.3,0.7,2.2,0.9c2.5,0.9,6.5,1.7,11.6,2.2
		l4.2,0.4c0-1.2,0-2.2-0.3-3.3c0-0.5-0.3-1.2-0.4-1.6c-0.1,0-0.3,0-0.3,0c-5,0.3-9.4-0.1-13.2-1.1c-1.9-0.5-3.4-1.1-4.6-1.7h-0.1
		C145.6,31.1,145.8,32.6,145.9,34z"/>
	<path fill="#FFF025" stroke="#000000" stroke-width="0.5236" d="M172.4,31.7L172.4,31.7c0,0.1,0,0.3,0,0.3V31.7z"/>
	<path fill="#867651" stroke="#000000" stroke-width="0.5236" d="M172.9,38.4c3.7,0.5,6.2,1.2,7.4,2.2c1.7,1.5,2.1,3.3,1.1,5.7
		c-0.5,1.3-1.6,2.9-3,4.8c-0.7,0.7-1.3,1.5-2.1,2.2l-7,7.3c-2,2.2-3.3,4.2-3.8,5.8c1.3,0.3,2.5,0.5,3.8,0.9c1.2-1.2,2.9-2.7,5.3-4.4
		l9.4-6.2c8.1-5.7,11.9-11.1,11.6-16.1c-0.4-6.8-4.2-10-11.4-10.2c-2.4,0-5.8,0.3-10.3,0.9c-0.5,0.1-0.9,0.3-1.5,0.3v0.3
		C173.2,34.3,173.3,36.4,172.9,38.4z"/>
	<path fill="#E72927" stroke="#000000" stroke-width="0.5236" d="M169.2,60.6l7-7.3c0.8-0.8,1.5-1.6,2.1-2.2
		c-3.2-1.5-7-2.7-11.5-3.6c-0.3,0.1-0.5,0.4-0.8,0.7c-3.3,3.2-5.6,5.5-6.7,7.3c-2.1,2.9-3.2,6.1-3.3,9.5c3.3,0.3,6.5,0.8,9.4,1.4
		C165.9,64.9,167.2,62.9,169.2,60.6z"/>
	<path fill="#867651" stroke="#000000" stroke-width="0.5236" d="M169.9,67.5c-0.1,0-0.4-0.1-0.7-0.1c-1.3-0.4-2.5-0.7-3.8-0.9
		c-2.9-0.7-6.1-1.2-9.4-1.4c-1.1-0.1-2.1-0.3-3-0.3c-3.4-0.3-6.9-0.4-10.6-0.4c-0.3,0-0.4,0-0.7,0c-0.1,0-0.3,0-0.5,0
		c-3.8,0-7.5,0.1-10.9,0.4c-1.1,0.1-2.1,0.1-3.2,0.3c-3.2,0.4-6.2,0.8-9,1.4c-1.5,0.3-2.7,0.5-4,0.9c-0.3,0-0.5,0.1-0.7,0.1
		c-0.8,0.3-1.2,0.8-1.6,1.8c-0.3,0.9-0.3,1.8-0.1,2.9c0.5,2.5,1.8,3.6,3.8,3.2c0.3,0,0.5-0.1,0.8-0.1c7.5-2.4,16-3.6,25.3-3.6
		c9.2,0,17.7,1.2,25.4,3.6c0.1,0,0.3,0,0.4,0.1c2.2,0.4,3.6-0.5,4.2-3.2c0.1-1.1,0.1-2-0.1-2.9C171.2,68.3,170.7,67.8,169.9,67.5z"
		/>
	<path fill="#E72927" stroke="#000000" stroke-width="0.5236" d="M159.1,50.2c0.9-1.3,1.6-2.5,2.2-3.7c-4.8-0.7-9.7-1.1-14.7-1.2
		c-0.1,5.2-0.5,9.5-1.4,13.2c-0.8,3.3-1.7,5.3-2.8,5.8c3.7,0,7.1,0.1,10.6,0.4c0-2.4,0.7-4.8,1.9-7.1
		C155.5,56.1,156.9,53.6,159.1,50.2z"/>
	<path fill="#E72927" stroke="#000000" stroke-width="0.5236" d="M167.5,75.4c-0.1-0.1-0.3-0.1-0.4-0.1c-7.7-2.4-16.1-3.6-25.4-3.6
		c-9.3,0-17.7,1.2-25.3,3.6c-0.3,0-0.5,0.1-0.8,0.1l0.1,4h51.7V75.4z"/>
	<path fill="#FFF025" stroke="#000000" stroke-width="0.5236" d="M110.8,31.7h-0.1l0,0H110.8z"/>
	<path fill="#867651" stroke="#000000" stroke-width="0.5236" d="M109.7,31.4c-4.6-0.7-8.1-0.9-10.3-0.9
		c-7.3,0.1-11.1,3.4-11.4,10.2c-0.3,5,3.6,10.5,11.6,16.1l9.3,6.2c2.4,1.7,4.2,3.2,5.3,4.4c1.3-0.4,2.5-0.7,4-0.9
		c-0.7-1.6-2-3.6-4-5.8l-7-7.3c-0.7-0.8-1.3-1.6-2-2.2c-1.6-1.8-2.6-3.4-3.2-4.8c-0.9-2.4-0.7-4.2,1.2-5.7c1.1-1.1,3.4-1.7,7-2.2
		c-0.5-2.1-0.4-4.4,0.4-6.8l0,0C110.4,31.5,110,31.5,109.7,31.4z"/>
	<path fill="#867651" stroke="#000000" stroke-width="0.5236" d="M110.8,31.7h-0.1c-0.8,2.4-0.9,4.6-0.4,6.7
		c0.3,0.9,0.5,1.7,0.9,2.5c0.8,1.7,2.8,4,5.6,6.6c0.1,0.1,0.3,0.3,0.3,0.3c3.4,3.2,5.7,5.7,6.8,7.4c2.2,3,3.3,6.3,3.4,9.8
		c1.1-0.1,2.1-0.1,3.2-0.3c-0.1-2.4-0.8-4.9-2-7.5c-0.7-1.5-2.1-3.8-4.4-7.4c-0.7-1.1-1.3-2.1-1.8-3.2c-0.9-1.6-1.6-3-2-4.2
		c-0.7-1.6-1.1-3.2-1.1-4.8c-0.1-1.2,0-2.4,0.1-3.6c0.1-0.4,0.3-0.9,0.4-1.3c0.7-1.7,1.7-2.9,3.2-3.4c1.5-0.5,3.6-0.5,6.4-0.3
		c4,0.5,6.2,0.7,7,0.7c0.8,0,1.6,0,2.4-0.3c0.1-0.8,0.4-1.6,0.7-2.2c-1.5,0.3-3.1,0.3-5-0.1l-9-2.2c-3.6-0.8-6.5-0.9-8.5-0.3
		C113.9,25.5,112,27.8,110.8,31.7z"/>
	<path fill="#867651" stroke="#000000" stroke-width="0.5236" d="M119.2,34c-0.1,1.2-0.3,2.4-0.1,3.6l4.6-0.4
		c5.2-0.5,9-1.3,11.6-2.2c0.8-0.3,1.6-0.5,2.2-0.9c0.1-1.5,0.4-2.9,0.8-4.2c-1.3,0.8-2.9,1.3-4.9,1.9c-3.8,0.9-8.2,1.3-13.1,1.1
		c-0.3,0-0.5,0-0.8,0C119.5,33.1,119.4,33.7,119.2,34z"/>
	<path fill="#E72927" stroke="#000000" stroke-width="0.5236" d="M138.4,58.5c-0.9-3.7-1.5-7.9-1.5-13c-5.6,0.1-10.4,0.5-14.8,1.1
		c0.5,1.1,1.2,2.1,1.8,3.2c2.2,3.6,3.7,6,4.4,7.4c1.2,2.7,1.9,5.2,2,7.5c3.3-0.3,7-0.4,10.9-0.4C140.1,63.8,139.2,61.8,138.4,58.5z"
		/>
	<path fill="#E72927" stroke="#000000" stroke-width="0.5236" d="M123.7,55.2c-1.1-1.7-3.3-4.2-6.8-7.4c0,0-0.1-0.1-0.3-0.3
		c-4.5,0.9-8.3,2.1-11.5,3.6c0.7,0.7,1.3,1.5,2,2.2l7,7.3c2,2.2,3.3,4.2,4,5.8c2.8-0.7,5.8-1.1,9-1.4C127,61.6,126,58.3,123.7,55.2z
		"/>
	<path fill="#FFFFFF" d="M141.7,247.3c-38.3,0-69.4-31.1-69.4-69.4s31.1-69.4,69.4-69.4s69.4,31.1,69.4,69.4S180,247.3,141.7,247.3z
		"/>
	<path fill="#867651" d="M141.7,75.2C85,75.2,39,121.2,39,177.9s46,102.8,102.8,102.8s102.8-46,102.8-102.8
		C244.5,121.2,198.5,75.2,141.7,75.2z M141.7,247.3c-38.3,0-69.4-31.1-69.4-69.4s31.1-69.4,69.4-69.4s69.4,31.1,69.4,69.4
		S180,247.3,141.7,247.3z"/>
	<path fill="#FF5403" d="M77.5,197.6c-1.9-6.2-2.9-12.8-2.9-19.6c0-37,30.1-67.2,67.2-67.2c30.1,0,55.6,19.9,64.2,47.2L77.5,197.6z"
		/>
	<g>
		<path fill="#FFFFFF" d="M101.4,190.2v41.4c7.8,5.9,16.9,10.1,26.7,12.1V182L101.4,190.2z"/>
		<path fill="#E72927" d="M128.1,181.9v61.8c4.4,0.9,8.9,1.4,13.6,1.4c4.5,0,8.9-0.4,13.2-1.3v-70.1L128.1,181.9z"/>
		<path fill="#E72927" d="M77.5,197.6c4.2,13.7,12.7,25.6,23.9,34.1v-41.4L77.5,197.6z"/>
	</g>
	<g>
		<path fill="#FFFFFF" d="M154.9,173.7v70.1c10.1-2,19.3-6.3,27.2-12.3v-66.2L154.9,173.7z"/>
		<path fill="#E72927" d="M208.9,177.9c0-6.9-1.1-13.6-3-19.9l-23.7,7.3v66.2C198.4,219.3,208.9,199.8,208.9,177.9z"/>
	</g>
	<g>
		<path fill="none" d="M171.9,160.3c-0.6,0.6-5,4.2-8.9,11l16.3-5l-4.5-8.2C174.7,158,172.8,159.4,171.9,160.3z"/>
		<path fill="none" d="M182.8,154.7c-3.1,0.5-5.6,2.1-5.6,2.4c0.1,0.4,1.8,2.9,4.3,8.4l0.6-0.2l17.7-5.4c-1.7-1.8-3.8-3.2-6.4-4.1
			C190.2,154.7,186.2,154.1,182.8,154.7z"/>
		<path fill="none" d="M173.5,156c-0.2-0.2-1.6-2.9-5.4-7.7s-4.3-6.2-4.7-5.9c-0.2,0.1-4.2,2.3-9.7,5.9
			c-6.8,4.4-15.5,10.6-21.5,15.5c-7.9,6.5-18.8,16.6-27.2,25.4l23.2-7.1l26.8-8.3l4.5-1.4c1.4-3,3.2-5.8,5.5-8.3
			C171.2,157.6,173.7,156.1,173.5,156z"/>
		<path fill="#E72927" d="M206.5,167.2c0.9,1.9,1.7,3.8,2.2,5.2c-0.4-5-1.4-9.8-2.8-14.4l-4.9,1.5c0.3,0.4,0.6,0.7,1,1.1
			C203.5,162.3,205.4,164.8,206.5,167.2z"/>
		<path d="M105,189.1c8.5-8.8,19.3-18.9,27.2-25.4c6-4.9,14.7-11.1,21.5-15.5c5.5-3.5,9.6-5.8,9.7-5.9c0.4-0.3,0.9,1.1,4.7,5.9
			c3.8,4.8,5.2,7.5,5.4,7.7c0.2,0.2-2.4,1.7-8.6,8.1c-2.3,2.4-4.1,5.3-5.5,8.3l3.6-1.1c4-6.7,8.3-10.4,8.9-11
			c0.9-0.9,2.9-2.3,2.9-2.3l4.5,8.2l2.3-0.7c-2.5-5.5-4.2-8.1-4.3-8.4c-0.1-0.2,2.5-1.9,5.6-2.4c3.4-0.6,7.4,0,10.7,1.1
			c2.6,0.8,4.6,2.3,6.4,4.1l1.1-0.4c-3.1-3.4-4.8-5-11-6.8c-6.9-2-14,2.1-14.2,2.2c-0.2,0.2-1.5-2.1-4.4-6.1c-3-4-5.2-7-5.4-7.3
			c-0.3-0.3,10.2-5.2,15.2-6.9c5.1-1.7,11.5-0.5,11.5-0.5l-1.2-1.4c0,0-1.2-1.2-6-0.7c-2.3,0.2-5.2,0.9-7.3,1.6
			c-5.2,1.6-13.3,5.8-13.8,5.8c-0.4,0-1.2-1.1-4.6-4.6c-3.5-3.4-6.1-5.3-6.3-5.7c-0.2-0.4,4.7-2.6,8.8-6.9c4.1-4.3,0-8.3,0-8.3
			l-2.4-0.7c0,0,1.6,2.2,1.8,4c0.1,1.1-0.5,2.3-1.1,3.4c-1.5,2.9-8.3,6.8-8.8,7c-0.5,0.2-9.4-7.6-17.9-10.5
			c-9.6-3.2-16.7-1.8-16.7-1.8l-3,1.3c0,0,5.2-0.7,9-0.3c1.8,0.1,6.9,0.9,10.6,2.6c8.9,3.8,14.5,8.9,15,9.5c0.3,0.3-4.2,2.7-9.6,4.5
			c-5.4,1.7-11.8,2.8-11.8,2.8c-3.7,0.6-13.2,1.4-21.8,3.6c-6.8,1.8-12.9,5-15.8,6.5c-6.7,3.4-11.6,10.1-11.6,10.1l-1.2,3.7
			c0,0,1.1-2.2,2.9-4.4c2.4-2.9,5.8-4.9,9.6-7.3c8.1-5.2,19.4-8.1,34.5-9.8c15.1-1.7,26.5-8,27-8.2c0.5-0.2,1.4,0.8,5.2,4.4
			c3.7,3.5,6,6,6,6s-4,2.4-13.9,8.7c-10,6.4-9.9,6.3-25.4,19.2c-9.6,8-17.6,15.7-23.7,22.6l2.1-0.6L105,189.1z"/>
	</g>
	<path fill="#E72927" d="M141.7,79.6c-54.2,0-98.3,44.1-98.3,98.3s44.1,98.3,98.3,98.3s98.3-44.1,98.3-98.3S195.9,79.6,141.7,79.6z
		 M141.7,251.8c-40.7,0-73.8-33.1-73.8-73.8s33.1-73.8,73.8-73.8s73.8,33.1,73.8,73.8C215.6,218.7,182.4,251.8,141.7,251.8z"/>
	<g>
		<path fill="#FFFFFF" d="M101.7,244l7.6,3.8c1.3,0.6,2.8,1.4,3.1,2.7c0.2,0.9-0.2,1.9-0.7,3c-1.1,2.3-2,3.2-4.2,2.6
			c1.8,1.6,1.6,2.7,0.7,4.5c-1.1,2.2-1.7,3-2.6,3.4c-1.2,0.5-2.4-0.2-3.8-0.8l-7.7-3.8l1.6-3.2l1,0.5l4.4-9l-1-0.5L101.7,244z
			 M102.5,255.5l-1.6,3.2l2.4,1.2l1.6-3.2L102.5,255.5z M105.3,249.8l-1.4,2.9l2.4,1.2l1.4-2.9L105.3,249.8z"/>
		<path fill="#FFFFFF" d="M117.6,251.1l7.2,2l-1.3,13.7l1.1,0.3l-0.9,3.4l-5.1-1.4l0.5-4.2l-2.8-0.8l-1.7,3.9l-5.1-1.4l0.9-3.4
			l1.2,0.3L117.6,251.1z M120.4,254.8l-3,6.6l2.1,0.6L120.4,254.8z"/>
		<path fill="#FFFFFF" d="M140,255.1l-0.5,5l-4.1-0.4l0.1-1.5l-2.6-0.2l-0.3,3.1l3.1,0.3c0.9,0.1,2,0.2,2.9,0.9
			c1.2,0.9,1,2.2,0.9,3.2l-0.3,2.7c-0.1,1.2-0.3,2.7-1.9,3.4c-0.8,0.4-1.6,0.3-2.5,0.2l-7.7-0.7l0.5-5.2l4.4,0.4L132,268l2.6,0.2
			l0.3-3.4l-3.4-0.3c-1-0.1-2.1-0.2-2.8-1.2c-0.8-0.9-0.7-1.9-0.7-2.9l0.3-2.8c0.1-0.9,0.2-1.8,1.1-2.5c1-0.8,2.2-0.8,3.1-0.7
			L140,255.1z"/>
		<path fill="#FFFFFF" d="M155.3,254l0.3,3.6l-1.5,0.1l-1.8,4l2.9-0.3l0.5,6.1l1.3-0.1l0.3,3.6l-5.8,0.5l-0.6-6.5l-2.5,0.2l0.6,6.5
			l-5.8,0.5l-0.3-3.6l1.1-0.1l-0.9-10l-1.1,0.1l-0.3-3.6l5.8-0.5l0.6,7.4l2.7-7.7L155.3,254z"/>
		<path fill="#FFFFFF" d="M156.2,253.8l11.7-3.2l1.5,5.4l-3.8,1l-0.5-2l-2.4,0.7l0.9,3.1l3.4-0.9l0.8,3l-3.4,0.9l0.9,3.5l2.4-0.7
			l-0.6-2.1l4-1.1l1.5,5.6l-11.9,3.3l-0.9-3.5l1.1-0.3l-2.6-9.7l-1.1,0.3L156.2,253.8z"/>
		<path fill="#FFFFFF" d="M181.6,244.2l2.7,5.7l-3,1.4l-1.2-2.5l-1.6,0.7l4.3,9l1-0.5l1.5,3.2l-6.2,3l-1.5-3.2l1-0.5l-4.3-9
			l-1.6,0.8l1.2,2.5l-3,1.4l-2.7-5.7L181.6,244.2z"/>
	</g>
	<polygon fill="#FFFFFF" points="89.7,235.6 87.3,241.5 92.2,245.6 85.8,245.2 83.4,251.1 81.8,244.9 75.4,244.5 80.9,241.1 
		79.3,234.8 84.2,239 	"/>
	<polygon fill="#867651" points="82.9,243.6 79.6,243.4 82.4,241.7 81.6,238.5 84.1,240.6 86.9,238.9 85.7,241.9 88.2,244 
		84.9,243.8 83.7,246.8 	"/>
	<polygon fill="#FFFFFF" points="193.3,235.5 198.6,239.1 203.7,235.1 201.9,241.3 207.3,244.9 200.9,245.1 199.1,251.3 
		196.9,245.3 190.4,245.5 195.5,241.6 	"/>
	<polygon fill="#867651" points="197.8,243.9 194.5,244 197.1,242 196,238.9 198.7,240.8 201.3,238.7 200.4,241.9 203.1,243.7 
		199.8,243.8 198.9,247 	"/>
	<g>
		<path fill="#FFFFFF" d="M77.1,109.7l5.6-4.9l10.8,8.7l0.9-0.8l2.3,2.7l-4,3.5l-3.2-2.8l-2.2,1.9l2.3,3.5l-4,3.5l-2.3-2.7l0.9-0.8
			L77.1,109.7z M81.7,109.4l3.9,6.1l1.6-1.4L81.7,109.4z"/>
		<path fill="#FFFFFF" d="M97,111.1c0.8-0.6,2-0.3,2.6,0.5c0.6,0.9,0.3,2-0.5,2.6c-0.9,0.6-2,0.3-2.6-0.5
			C95.9,112.8,96.2,111.7,97,111.1z"/>
		<path fill="#FFFFFF" d="M104.4,91.6l2.3,4.5l-3.7,1.9l-0.7-1.3l-2.3,1.2l1.4,2.8l2.8-1.4c0.9-0.4,1.8-0.9,2.9-0.8
			c1.5,0.2,2.1,1.3,2.5,2.2l1.2,2.5c0.5,1.1,1.2,2.4,0.2,3.9c-0.5,0.8-1.2,1.1-2,1.5l-6.9,3.4l-2.3-4.7l4-2l0.8,1.5l2.3-1.2
			l-1.6-3.1l-3.1,1.5c-0.9,0.4-1.9,0.9-3,0.5c-1.1-0.4-1.6-1.2-2.1-2.1l-1.3-2.5c-0.4-0.8-0.8-1.7-0.4-2.7c0.4-1.2,1.4-1.8,2.3-2.2
			L104.4,91.6z"/>
		<path fill="#FFFFFF" d="M114.7,102.2c1-0.3,2,0.2,2.4,1.1c0.3,1-0.2,2-1.1,2.4c-1,0.3-2-0.2-2.4-1.1
			C113.2,103.6,113.7,102.6,114.7,102.2z"/>
		<path fill="#FFFFFF" d="M120.8,86.3l4.5,5.6c0.4,0.6,0.5,0.7,0.9,1.4c0.2-0.7,0.2-0.9,0.5-1.6l2.2-6.8l5.3-0.9l0.6,3.5l-1.1,0.2
			l1.8,9.9l1.1-0.2l0.6,3.5l-5.5,1l-1.4-7.8c-0.1-0.6-0.1-0.8-0.2-1.3l-2.6,8l-5.4-6.6c0.1,0.5,0.2,0.6,0.3,1.2l1.4,8l-5.4,1
			l-0.6-3.5l1.1-0.2l-1.8-9.9l-1.1,0.2l-0.6-3.5L120.8,86.3z"/>
		<path fill="#FFFFFF" d="M146.9,84.3c1.6,0.1,3.2,0.2,3.9,1.6c0.5,0.9,0.4,2.1,0.4,3.5l-0.3,7.1c0,1-0.1,2-0.3,2.8
			c-0.7,2.2-2.7,2.2-4.2,2.1l-3.1-0.1c-1.1,0-2.5-0.1-3.4-0.9c-1-0.9-1-2.2-0.9-3.4l0.3-8.4c0-1,0.1-2,0.5-2.8
			c0.8-1.8,2.5-1.7,3.8-1.7L146.9,84.3z M146.5,87.8l-2.6-0.1l-0.4,10l2.6,0.1L146.5,87.8z"/>
		<path fill="#FFFFFF" d="M171.4,88.6l-0.9,3.5l-1.1-0.3l-2.4,9.7l1.1,0.3l-0.9,3.5L162,104l-1.8-7.3c-0.4-2-0.5-2.3-0.6-3.5
			c-0.1,0.7-0.1,0.9-0.3,1.6l-1.9,8.2l-5.2-1.3l0.9-3.5l1.1,0.3l2.4-9.7l-1.1-0.3l0.9-3.5l5.3,1.3l1.9,8.2c0.3,1.3,0.3,1.6,0.4,2.7
			c0.2-1.4,0.3-1.8,0.6-3.1l1.6-6.7L171.4,88.6z"/>
		<path fill="#FFFFFF" d="M178.6,91.7l6.7,3.2l-3.7,13.3l1.1,0.5l-1.5,3.2l-4.8-2.3l1.2-4l-2.6-1.2l-2.3,3.5l-4.8-2.3l1.5-3.2
			l1.1,0.5L178.6,91.7z M180.7,95.8l-4.1,6l1.9,0.9L180.7,95.8z"/>
		<path fill="#FFFFFF" d="M200.9,105.1l-3.2,4.5l-3.2-2.3l1.1-1.6l-2.1-1.5l-5.9,8.1l2.1,1.5l1.6-2.2l3.4,2.4l-3.7,5.1l-5.7-4.1
			c-0.6-0.4-1.1-0.8-1.6-1.3c-1.5-1.8-0.4-3.4,0.4-4.4l5.3-7.4c0.6-0.8,1.2-1.7,2.3-2c1.4-0.4,2.6,0.4,3.7,1.2L200.9,105.1z"/>
		<path fill="#FFFFFF" d="M209.8,113.6c1.1,1.2,2.1,2.3,1.7,3.9c-0.3,1-1.1,1.8-2.1,2.8l-5.1,4.9c-0.7,0.7-1.4,1.4-2.2,1.8
			c-2,1.1-3.4-0.3-4.5-1.3l-2.2-2.2c-0.8-0.8-1.7-1.8-1.8-3c-0.1-1.4,0.8-2.3,1.6-3.1l6-5.8c0.7-0.7,1.4-1.4,2.3-1.7
			c1.8-0.7,3,0.5,3.9,1.4L209.8,113.6z M207.1,115.9l-1.8-1.8l-7.2,7l1.8,1.8L207.1,115.9z"/>
	</g>
	<path fill="#867651" stroke="#867651" stroke-width="1.6307" stroke-miterlimit="10" d="M209.4,180.8c-0.4,0.1-0.6,0.5-0.7,1.2
		c-0.3,1.6-0.8,3.1-1.5,4.5c-0.7,1.4-1.4,2.2-2,2.5c-0.6,0.2-1-0.1-1.1-1c-0.1-0.3,0-0.9,0.1-1.6c0.1-0.2,0.1-0.5,0.1-1.1
		c0-0.6,0.1-1.4,0.2-2.6c0.2-1.4,0.3-2.4,0.4-3.2c0.1-0.8,0.1-1.4,0.1-1.7c0.1-1,0.1-2.2-0.1-3.5c-0.2-1.5-0.8-2.6-1.8-3.1
		c-0.9-0.5-2.2-0.5-3.6,0c-1.6,0.6-3.2,1.9-5.1,4c-1.9,2.1-3.5,4.7-5,7.7c-0.6,1.1-0.9,1.8-1.1,2.1c-0.1,0.2-0.3,0.4-0.4,0.4
		c-0.4,0.1-0.6-0.1-0.7-0.8l-0.1-0.4l0.1-1l0.1-1.4c0-0.3,0-0.8-0.1-1.5c-0.4-3-1.9-4-4.5-3.1c-1.6,0.6-3.4,2-5.3,4.2
		c-1.9,2.2-3.9,5-5.7,8.5c-0.6,1.2-1.1,1.9-1.2,2.1s-0.4,0.4-0.6,0.5c-0.4,0.1-0.6-0.1-0.6-0.5l0-0.3l0.1-0.7l0.7-7.4l-0.1-0.4
		c-0.1-0.8-0.7-1-1.7-0.6l-0.2,0.1l-5,2.5c-0.7,0.4-1.1,0.8-1.4,1.1c-0.2,0.4-0.4,0.9-0.4,1.5l-1,13c-0.2,0.6-0.5,1.4-0.9,2.1
		c-0.4,0.8-0.9,1.5-1.4,2.1c-0.5,0.6-0.9,0.9-1.3,1c-0.6,0.2-1-0.1-1.2-1.1c-0.1-0.4,0-1,0.1-1.9c0.1-0.9,0.2-1.8,0.3-2.7l1.6-11.6
		l0-0.7c0-0.3,0-0.5,0-0.7c-0.1-0.4-0.1-0.6-0.3-0.6s-0.5-0.1-1.1,0.1l-0.9,0.3l-4,1.4c-0.6,0.4-1,0.6-1.1,0.8l-0.9,1
		c-0.3,0.3-0.6,0.6-0.9,0.6c-0.4,0.1-0.7,0.1-1,0l-1.4-0.2c-1.3-0.2-2.5-0.1-3.6,0.3c-1,0.4-2,0.9-3,1.7c-1,0.8-2,1.7-3,2.8
		s-1.8,2.3-2.6,3.6s-1.5,2.7-2,4.1c-1,2.6-1.4,5.1-1.3,7.4c-0.3,0.2-0.6,0.6-0.8,1.2c-0.2,0.4-0.4,0.7-0.4,1
		c-0.6,1.3-0.9,2.1-1.1,2.4c-0.6,1.2-1.6,2.4-2.8,3.5c-1.2,1.1-2.3,1.8-3.3,2.1c-1.1,0.4-2.1,0.2-2.9-0.5c-0.8-0.7-1.4-1.8-1.6-3.3
		c-0.2-1.2,0.1-2,0.9-2.3c0.1-0.1,0.3-0.1,0.5-0.1c0.2,0,0.4-0.1,0.8-0.1c0.7,0.1,1.5-0.1,2.4-0.4c1.3-0.4,2.4-1.1,3.5-2
		c1.1-0.9,2-1.9,2.8-3c0.8-1.1,1.3-2.3,1.7-3.5c0.4-1.2,0.5-2.4,0.3-3.6c-0.3-2-1.3-3.4-3.1-4.2c-1.8-0.8-3.8-0.9-6-0.1
		c-2,0.7-3.9,1.8-5.6,3.3s-3.2,3.2-4.3,5.1s-2,4-2.6,6.2c-0.2,0.9-0.4,1.8-0.5,2.7c-0.2,0.4-0.3,0.9-0.5,1.6
		c-0.2,0.9-0.5,1.9-0.9,2.9c-0.4,1-0.9,1.9-1.4,2.7c-0.5,0.8-1.1,1.5-1.7,2.1c-0.6,0.6-1.2,1-1.7,1.2c-0.8,0.3-1.3-0.2-1.3-1.6
		c0-0.7,0.1-1.7,0.2-2.9c0-0.1,0-0.4,0.1-0.8s0.2-1,0.3-1.7l0.2-1.3l0.1-0.6l4.3-19.6c0.2-0.1,0.3-0.2,0.5-0.3
		c0.5-0.2,1.4-0.5,2.5-0.9c0.4-0.1,0.9-0.2,1.4-0.4c0.4-0.2,1-0.5,1.6-0.8c3.4-1.6,6.1-3.6,8.1-5.8s2.9-4.4,2.6-6.4
		c-0.2-1.3-1.1-1.9-2.7-2.1s-5.5,0.8-7.7,1.8c-1.3,0.6-2.6,1.4-3.9,2.5c-1.3,1.1-2.5,2.1-3.5,3.2l-2,2.1c-0.8,0.9-1.5,1.5-1.9,1.7
		c-0.3,0.1-1.2,0.3-1.8,0.4c-1.3,0.2-3.1,0.6-4,0.8c-0.9,0.2-1.8,0.4-2.6,0.6s-1.7,0.4-2.6,0.6c-1.1,0.3-2.2,0.6-3.2,0.9
		s-1.9,0.6-2.8,0.9c-1.1,0.4-2.2,0.8-3.2,1.2c-1,0.4-2.2,0.9-3.4,1.5c-1.2,0.6-2.1,1-2.7,1.3s-0.9,0.6-1.1,0.8
		c-0.3,0.2-0.7,0.9-1.2,2l-3.6,8.7c-0.4,1-0.6,1.6-0.6,1.8c0,0.3,0.3,0.4,0.7,0.2c0.3-0.1,0.7-0.4,1-0.8c0.7-0.6,1.8-1.5,3.3-2.5
		c2.8-1.9,5-3.3,6.7-4.1l4.5-2.1l5.5-2.4l4.9-1.7c1.7-0.6,2.8-0.9,3.4-1l-5.3,23.3l-0.2,1.1c-0.1,0.8-0.2,1.4-0.3,1.9
		s-0.2,0.9-0.2,1.3c0,0.3-0.1,0.6-0.1,0.9s0,0.6,0,0.9c-0.1,0.4-0.1,0.7-0.1,1.1c0,0.3,0,0.7,0,1c0,1.4,0.3,2.4,0.9,2.9
		c0.5,0.5,1.3,0.6,2.4,0.2c0.7-0.2,1.5-0.7,2.5-1.4c1.5-1,2.9-2.1,3.9-3.1s2.4-2.6,4-4.7c1.2-1.5,2.1-2.8,2.7-3.9
		c0.6,2,1.7,3.4,3.3,4.2c2.1,1.1,4.6,1.1,7.7,0c2.2-0.8,4.3-2.1,6.2-3.8s3.4-3.7,4.5-5.9c0.2-0.4,0.4-0.8,0.5-1.2
		c0.4,1.4,1.1,2.6,1.9,3.4c1.2,1.2,2.7,1.5,4.3,0.9c1.1-0.4,2.4-1.4,3.9-3s2.8-3.4,3.9-5.4c0.3-0.5,0.6-0.7,0.8-0.8
		c0.4-0.1,0.6,0,0.6,0.4l0.1,1c0.2,1.4,0.7,2.3,1.6,2.8c0.8,0.5,1.9,0.5,3.1,0.1c1.5-0.5,3.2-1.8,5.1-3.7c1.3-1.3,2.5-2.8,3.6-4.4
		l-0.2,2.7l0.1,0.7c0.1,0.6,0.2,1,0.5,1.1c0.2,0.1,0.6,0.1,1.2-0.1l4.2-1.5c0.6-0.2,1.1-0.5,1.3-0.8c0.2-0.3,0.4-0.8,0.6-1.6
		l0.3-1.3c0.2-0.9,0.7-2.5,1.5-4.6c0.4-1.2,0.8-2.2,1.2-3.2s0.7-1.8,1.1-2.5c0.3-0.6,0.6-1.2,1-1.9c0.4-0.6,0.8-1.4,1.3-2.1
		c1.1-1.7,2-2.7,2.8-3c0.7-0.2,1.1,0,1.2,0.8c0.1,0.5,0.1,0.9,0.1,1.2c-0.1,0.3-0.1,0.5-0.1,0.6l-0.9,12.3c-0.1,0.5-0.1,0.8-0.1,0.9
		c0.1,0.8,0.8,0.9,1.9,0.5l5-1.8c0.7-0.2,1.2-0.5,1.4-0.9c0.2-0.3,0.4-1,0.6-2.1c0.4-1.7,0.7-3.2,1.1-4.6c0.4-1.3,0.8-2.6,1.2-3.8
		c0.5-1.2,1-2.4,1.7-3.6c0.6-1.2,1.4-2.6,2.3-4c1.1-1.8,2-2.8,2.8-3.1c0.6-0.2,1,0.1,1.1,1c0.1,0.4,0.1,0.8,0,1.5s-0.2,1.8-0.4,3.6
		c-0.3,2.2-0.5,4-0.5,5.3c-0.1,1.3-0.1,2.3,0,2.8c0.2,1.2,0.6,2,1.5,2.5c0.8,0.5,1.8,0.5,3,0.1c1.1-0.4,2.3-1.2,3.8-2.5
		c1.4-1.3,2.8-2.8,4-4.5c1.1-1.4,1.9-2.8,2.6-4.1c0.7-1.3,1-2.3,0.9-2.8C210.7,181.1,210.2,180.5,209.4,180.8z M118.4,206.2
		c0.4-1.4,0.8-2.6,1.3-3.4c0.7-1.3,1.5-2.2,2.5-2.5c1-0.4,1.6,0.3,1.8,1.9c0.2,1.1-0.1,2.5-0.7,4.1c-0.6,1.6-1.4,3-2.4,4.1
		c-0.3,0.2-0.5,0.5-0.8,0.7c-0.3,0.2-0.6,0.4-1,0.6c-0.8,0.3-1.3,0-1.4-0.9C117.6,209.9,117.8,208.4,118.4,206.2z M108.5,189.2
		c0.5-0.5,1.4-1.3,2.8-2.2c1.6-1.1,2.9-1.9,4-2.4c1.2-0.6,2.2-0.9,3.1-0.9c0.9-0.1,1.4,0.2,1.4,0.7c0.1,0.5-0.4,1.2-1.4,2.1
		c-1,0.9-2.2,1.7-3.6,2.3c-0.9,0.4-1.8,0.8-2.7,1c-0.8,0.2-1.4,0.4-1.8,0.5c-0.4,0.1-0.7,0.2-0.7,0.2c-1,0.4-1.6,0.4-1.6,0
		C107.7,190.2,107.9,189.8,108.5,189.2z M147.6,197.3c0.1,0.4-0.1,1.2-0.4,2.5c-0.3,1.2-0.8,2.6-1.4,3.9c-1.5,3.4-3.1,5.3-4.6,5.9
		c-0.6,0.2-1.2,0.1-1.7-0.3s-0.8-1.1-0.9-2l0-0.3c-0.2-1.6-0.1-3.4,0.3-5.3c0.4-1.9,1.1-3.6,1.9-5.1c0.4-0.6,0.8-1.2,1.4-1.8
		c0.6-0.6,1.1-0.9,1.5-1.1c0.9-0.3,1.4,0.2,1.5,1.5l0.1,0.3c0.1,0.8,0.4,1.1,1.1,1.1c0.3,0,0.5,0,0.7,0c0.1,0,0.3,0,0.3,0
		C147.4,196.8,147.5,197,147.6,197.3L147.6,197.3z"/>
	<path fill="#867651" stroke="#867651" stroke-width="3.2614" stroke-miterlimit="10" d="M224.1,149.8c-0.5,0.1-0.9,0.4-1.3,0.9
		c-0.4,0.5-0.8,1.3-1.3,2.5c-0.4,0.9-1,1.8-1.7,2.8s-1.5,1.9-2.3,2.6c-0.8,0.7-1.4,1.1-1.9,1.2c-0.9,0.2-1.3-0.3-1.3-1.7
		c0-0.5,0.2-1.3,0.5-2.6c0.3-1.2,0.7-2.4,1-3.5l4.8-15.3l0.2-0.9c0.1-0.4,0.2-0.7,0.2-0.9c0-0.5-0.1-0.8-0.3-0.9
		c-0.2-0.1-0.7-0.2-1.5-0.1l-1.2,0.3l-5.6,1.3c-0.9,0.4-1.4,0.7-1.6,0.9l-1.4,1.2c-0.5,0.4-0.9,0.6-1.4,0.7
		c-0.5,0.1-0.9,0.1-1.3-0.1l-1.8-0.4c-1.6-0.4-3.3-0.5-4.8-0.1c-1.4,0.3-2.9,1-4.4,1.9c-1.6,0.9-3.1,2-4.6,3.3
		c-1.5,1.3-2.9,2.8-4.3,4.5c-1.4,1.7-2.6,3.4-3.6,5.1c-2.2,3.9-3.4,7.6-3.6,11.1c-0.1,0-0.1,0-0.2,0c-0.4,0.1-0.9,0.5-1.5,1.3
		c-2.4,3.5-4.4,5.9-6,7.2c-1.6,1.3-3.6,2.3-6,2.8c-3.8,0.9-5.6-0.8-5.4-5c0-0.6,0.1-1.3,0.4-2.3c0.2-1,0.5-2,0.8-3.1
		s0.7-2.2,1.1-3.3s0.8-2.1,1.2-3.1c1.4-2.9,2.7-5.1,4-6.9c1.3-1.8,2.6-2.8,3.8-3.1c0.8-0.2,1.4,0,2,0.6c0.5,0.6,0.8,1.4,0.7,2.4
		c0,0.8-0.2,1.6-0.5,2.7c-0.3,1.1-0.8,2.3-1.5,3.6c-0.3,0.9-0.5,1.4-0.5,1.5c0,0.8,0.4,1,1.1,0.9l0.9-0.2l4.3-1.7
		c2.1-0.8,3.2-2.5,3.2-5.1c0.1-1.5-0.2-2.9-0.7-4.1c-0.5-1.2-1.3-2.2-2.3-2.9c-1-0.7-2.2-1.2-3.6-1.5c-1.4-0.2-2.8-0.2-4.4,0.2
		c-2.6,0.6-5.1,1.8-7.6,3.6c-2.5,1.8-4.7,3.9-6.7,6.4s-3.5,5.1-4.7,8c-0.6,1.5-1.1,3-1.4,4.5l-0.2-0.2c-0.2-0.1-0.3-0.4-0.3-0.6
		c0-0.2,0-0.4,0.1-0.8c0.1-0.3,0.1-0.8,0.3-1.2c0.4-1.2,0.7-2.5,0.7-3.8c0.1-3.7-0.5-6.6-1.9-8.9c-1.4-2.3-3.1-3.2-5.2-2.7
		c-1,0.2-2,0.9-3.1,1.9c-0.8,0.9-1.3,1.3-1.4,1.4l-0.9,1.3c-0.5,0.8-1.4,1.5-2.7,2.1c-4.8,2.2-8.6,5.2-11.5,9
		c-2.9,3.8-4.4,7.8-4.6,11.9c0,1.1,0,2.2,0.2,3.2c-0.4,0.4-0.9,0.9-1.4,1.3c-1,0.9-2.1,1.7-3.3,2.3c-0.2,0.1-0.5,0.2-0.7,0.3
		c-0.3,0.1-0.6,0.2-0.9,0.3c-0.4,0.1-0.6,0.1-0.6,0.1l-0.7,0.1c-0.1,0-0.2,0-0.3,0c-0.1,0-0.2,0-0.3,0l-0.5,0c-0.1,0-0.2,0-0.3,0
		c-0.1,0-0.1,0-0.2-0.1l-0.1,0c-0.3-0.1-0.4-0.1-0.4-0.1l0,0l-0.1-0.1v-0.2l-0.1-0.2c0,0,0,0,0,0l0-0.5l0-0.2c0,0,0-0.1,0-0.3
		c0-0.3,0-0.5,0-0.8s0-0.5,0-0.8c0-0.3,0-0.6,0-0.9c0.1-0.6,0.2-1.3,0.2-2c0-0.7,0.1-1.4,0.1-2.1c0-0.4,0.1-0.8,0.1-1.2s0-0.8,0-1.2
		l0-1.1c0-0.4,0-0.8-0.1-1.2c0-0.8-0.1-1.7-0.2-2.5c-0.2-0.8-0.4-1.7-0.7-2.4c-0.1-0.2-0.1-0.4-0.2-0.7c-0.1-0.3-0.2-0.5-0.3-0.6
		l-0.5-1.1l-0.1-0.2c-0.3-0.4-0.6-0.8-0.8-1.2c-0.3-0.4-0.7-0.7-1-1c-0.2-0.2-0.4-0.4-0.6-0.5l-0.4-0.3c1.5-0.7,3.1-1.6,4.7-2.6
		c0.8-0.5,1.6-1,2.3-1.6c0.8-0.5,1.5-1.2,2.3-1.8c0.2-0.1,0.4-0.3,0.6-0.5c0.2-0.1,0.3-0.3,0.6-0.5l1.1-1.1c0.3-0.4,0.7-0.7,1-1.1
		c0.3-0.4,0.7-0.8,1-1.2c1.3-1.6,2.4-3.4,3.2-5.4c0.4-1,0.7-1.9,1-2.9c0.3-1,0.5-2,0.6-2.9c0.3-1.9,0.2-3.9-0.4-5.7
		c-0.5-1.7-1.3-3.3-2.4-4.6c-0.3-0.4-0.6-0.7-0.9-1c-0.3-0.3-0.6-0.5-1-0.8c-0.3-0.3-0.7-0.5-1-0.8c-0.3-0.2-0.7-0.5-1.1-0.7
		c-0.7-0.4-1.5-0.8-2.3-1c-0.8-0.3-1.5-0.5-2.3-0.7l-1.1-0.2c-0.4-0.1-0.8-0.1-1.2-0.2c-0.4-0.1-0.8-0.1-1.2-0.2
		c-0.4,0-0.8-0.1-1.2-0.1c-0.8-0.1-1.6-0.1-2.4-0.1c-0.8,0-1.6,0-2.3,0.1c-0.4,0-0.8,0-1.2,0.1c-0.4,0-0.7,0.1-1.1,0.1l-1.3,0.2
		c-0.4,0.1-0.8,0.1-1.2,0.2c-0.8,0.1-1.6,0.3-2.4,0.4c-0.7,0.2-1.5,0.3-2.3,0.5c-0.8,0.2-1.6,0.4-2.3,0.6c-0.8,0.2-1.5,0.4-2.3,0.7
		l-0.5,0.2l-0.5,0.1l-0.1,0.1c-0.2,0.1-0.3,0.1-0.5,0.2l-0.5,0.1l-0.1,0c-0.4,0.1-0.7,0.3-1.1,0.4c-0.4,0.1-0.8,0.3-1.2,0.4
		c-0.4,0.1-0.7,0.3-1.1,0.4c-0.4,0.1-0.8,0.3-1.2,0.4c-0.3,0.2-0.7,0.3-1,0.4c-0.4,0.1-0.8,0.3-1.2,0.5l-2.2,1
		c-0.7,0.3-1.5,0.7-2.2,1.1c-1.5,0.8-3,1.6-4.4,2.4c-1.4,0.9-2.8,1.9-4.2,2.9c-1.4,1.1-2.7,2.2-3.9,3.4c-0.7,0.7-1.3,1.3-1.8,1.9
		c-0.6,0.6-1.1,1.3-1.6,2c-0.5,0.7-1,1.4-1.5,2.1c-0.5,0.7-0.9,1.5-1.3,2.2c-0.8,1.5-1.6,3.1-2.1,4.7l0,0.1c0,0.2-0.1,0.4-0.1,0.5
		c0,0.1-0.1,0.3-0.2,0.5l0,0.1c0,0.2-0.1,0.4-0.1,0.6c0,0.1,0,0.2-0.1,0.4l0,0.1c-0.1,0.4-0.2,0.9-0.2,1.3c0,0.4,0,0.8-0.1,1.2
		c0,0.5-0.1,0.9,0,1.3c0,0.4,0.1,0.8,0.1,1.2c0,0.3,0.1,0.7,0.2,1.1c0,0.4,0.1,0.8,0.2,1.2c0.2,0.7,0.5,1.5,0.8,2.2
		c0.3,0.7,0.7,1.4,1.1,2.1c0.5,0.6,0.9,1.2,1.4,1.7c0.5,0.6,1.1,1.1,1.7,1.5c0.3,0.2,0.6,0.5,0.9,0.7c0.3,0.2,0.6,0.4,1,0.6
		c0.3,0.2,0.7,0.4,1,0.6c0.3,0.2,0.7,0.3,1.1,0.5c0.4,0.2,0.8,0.3,1.1,0.4s0.7,0.3,1.1,0.4c0.4,0.1,0.8,0.2,1.2,0.2
		c0.2,0.1,0.4,0.1,0.7,0.1l0.9,0.2l0.2,0c1.2,0,2.3-0.4,3.4-1.1c1-0.8,1.8-1.8,2.2-3c0.4-1.2,0.3-2.4-0.3-3.3
		c-0.6-1-1.6-1.5-2.8-1.6l-0.1,0l-0.4,0l-0.1-0.1l-0.2,0.1c0,0-0.1,0-0.1,0l-0.2,0c-0.1,0-0.3,0-0.6-0.1l-0.1,0
		c-0.2,0-0.5,0-0.7-0.1l-0.8-0.2c-0.5-0.1-1-0.3-1.4-0.5c-0.3-0.1-0.5-0.2-0.8-0.3c-0.2-0.1-0.4-0.1-0.5-0.3l-0.1-0.1
		c-0.4-0.2-0.8-0.4-1.2-0.7c-0.4-0.3-0.8-0.6-1.1-0.9c-0.4-0.4-0.7-0.8-1-1.1c-0.3-0.4-0.6-0.8-0.8-1.2c-0.1-0.2-0.2-0.5-0.3-0.7
		c-0.1-0.2-0.2-0.4-0.3-0.7c-0.1-0.3-0.2-0.5-0.2-0.8c-0.1-0.3-0.2-0.6-0.3-0.8c-0.1-0.5-0.2-1-0.2-1.5l0-0.9c0-0.1,0-0.3,0-0.4
		c0-0.2,0-0.3,0-0.5c0.2-1.2,0.5-2.4,1.1-3.7c0.5-1.2,1.2-2.4,2.1-3.6c0.2-0.3,0.5-0.6,0.7-0.9c0.2-0.3,0.5-0.6,0.6-0.8l0.8-0.8
		c0.3-0.3,0.5-0.5,0.8-0.8c1.2-1.1,2.3-2.1,3.5-3c1.2-0.9,2.4-1.8,3.8-2.5c1.3-0.8,2.7-1.5,4.1-2.2c1.4-0.6,2.8-1.2,4.1-1.7l2-0.7
		c0.4-0.1,0.8-0.2,1.1-0.3c0.3-0.1,0.7-0.2,1-0.3l3.3-0.9l0.2,0l0.8-0.2c0.7-0.1,1.4-0.2,2.1-0.3c0.7-0.1,1.4-0.2,2.1-0.2
		c0.7-0.1,1.4-0.2,2.1-0.2c0.4,0,0.9,0,1.3,0c0.2,0,0.4,0,0.7,0c0.4,0,0.7,0,1,0h0.2c0.2,0,0.5,0,0.8,0h0.2c0.6,0,1.2,0.1,1.7,0.1
		c1.3,0.1,2.4,0.3,3.4,0.7c0.3,0.1,0.6,0.2,0.9,0.3c0.2,0.1,0.4,0.1,0.6,0.2l0.2,0.1c0.3,0.1,0.5,0.2,0.7,0.3
		c0.2,0.1,0.4,0.2,0.6,0.4c0.8,0.5,1.6,1.1,2.3,1.8l0.1,0.1c0.2,0.2,0.5,0.5,0.6,0.8l0.1,0.1c0.1,0.1,0.2,0.3,0.3,0.5
		c0.1,0.2,0.2,0.4,0.3,0.6c0.2,0.4,0.3,0.7,0.4,1c0.1,0.4,0.2,0.8,0.3,1.2c0.1,0.4,0.2,0.8,0.2,1.2c0,0.3,0,0.7-0.1,1.2
		c-0.1,0.9-0.3,1.8-0.6,2.7c-0.3,1.1-0.8,2.1-1.2,3l-0.4,0.8c-0.1,0.2-0.3,0.5-0.4,0.6c-0.1,0.1-0.2,0.3-0.3,0.5
		c-0.1,0.1-0.1,0.2-0.2,0.3c-0.1,0.1-0.2,0.3-0.3,0.5c-0.1,0.1-0.1,0.2-0.2,0.3c-0.4,0.5-0.8,1.1-1.2,1.6c-0.4,0.5-0.9,1-1.4,1.5
		c-1,1-2.1,1.9-3.3,2.8c-0.6,0.5-1.2,0.9-1.8,1.3c-0.6,0.4-1.2,0.8-1.9,1.2c-1.6,0.9-3.2,1.7-4.8,2.4c-0.6,0.1-1.2,0.3-1.8,0.4
		c-0.6,0.2-1.2,0.4-1.8,0.6c-0.9,0.4-1.5,1.1-1.6,2.1l0,0.1v0.1c0,0.8,0.4,1.2,0.7,1.4c0.4,0.5,0.9,0.7,1.6,0.5
		c0.5-0.1,1.1-0.1,1.7-0.3c0.5-0.1,1.1-0.2,1.6-0.3l0.7,0c0.2,0,0.4,0.1,0.7,0c0.1,0,0.1,0,0.3,0c0.2,0,0.5,0.1,0.9,0.1
		c0.5,0.1,1,0.2,1.5,0.5l0.1,0c0,0,0.1,0.1,0.5,0.3c0.1,0.2,0.3,0.4,0.4,0.5c0.1,0.1,0.1,0.2,0.2,0.4l0,0c0,0.2,0.1,0.4,0.2,0.5
		c0.1,0.1,0.1,0.2,0.1,0.4c0,0.3,0.1,0.5,0.1,0.8l0,0.7c-0.1,0.1-0.1,0.3-0.1,0.4v0.3c-0.1,0.6-0.2,1.2-0.2,1.8l-0.2,1.9
		c-0.1,0.4-0.2,0.8-0.2,1.2c0,0.3-0.1,0.6-0.1,0.9l0,0.1c-0.1,0.4-0.1,0.8-0.1,1.1c0,0.3-0.1,0.6-0.1,0.9l0,0.1
		c-0.1,0.8-0.2,1.5-0.2,2.3c0,0.8,0,1.6,0,2.4c0,0.9,0.1,1.8,0.3,2.7c0.1,0.5,0.2,0.9,0.3,1.4c0.1,0.4,0.3,0.9,0.5,1.5
		c0.1,0.2,0.2,0.5,0.4,0.7l0.4,0.7l0.1,0.1c0.4,0.4,0.8,0.9,1.2,1.2c0.5,0.4,1,0.8,1.6,1.1c0.5,0.2,1.1,0.5,1.8,0.6
		c0.5,0.1,1,0.1,1.4,0.2c0.1,0,0.3,0,0.4,0c0.6,0,1.2,0,1.7-0.1c0.3,0,0.6-0.1,0.9-0.1l0.7-0.2c0.3,0,0.6-0.1,0.8-0.2
		c0.2-0.1,0.4-0.1,0.6-0.2c0.3-0.1,0.6-0.2,0.8-0.3l0.3-0.1l0.3-0.2c0.3-0.1,0.5-0.1,0.8-0.2c0.2-0.1,0.5-0.2,0.8-0.3
		c0.5-0.2,1-0.5,1.5-0.7c0.4-0.2,0.9-0.5,1.4-0.7c0.5-0.3,0.9-0.6,1.3-0.9c0.4-0.3,0.9-0.6,1.3-1c0.8-0.7,1.5-1.4,2.2-2.1
		c0.1-0.1,0.1-0.1,0.2-0.2l0.3,0.4c2.3,2,5.2,2.5,8.9,1.7c2.6-0.6,5.2-2.1,7.8-4.4s5-5.2,7-8.6c0.5-0.8,0.9-1.3,1.1-1.4
		c0.2-0.2,0.6-0.5,1.4-0.8c0.3-0.2,0.6-0.4,0.9-0.5c0,0.1,0,0.1,0,0.2c-0.1,3.6,1,6.2,3.3,7.9c2.3,1.7,5.4,2.1,9.4,1.1
		c4.3-1,8.7-3.7,13-7.9c2.2-2.2,3.5-3.8,3.8-4.8l0.4-1.4c0.1,2.3,0.8,4.2,1.9,5.6c1.4,1.7,3.2,2.3,5.4,1.8c1.6-0.4,3.6-1.6,5.9-3.5
		c2.4-2,4.5-4.2,6.5-6.7c0.5-0.6,0.9-0.9,1.2-1c0.5-0.1,0.7,0.1,0.7,0.7l-0.1,1.4c-0.1,1.9,0.4,3.2,1.4,3.9c1,0.7,2.3,0.9,4,0.5
		c2.1-0.5,4.6-1.9,7.6-4.3c3-2.4,5.8-5.2,8.5-8.5c1.3-1.8,2-3.6,2.1-5.4C224.9,149.9,224.6,149.6,224.1,149.8z M142.4,173.7
		c-0.5,1.2-1.2,2.4-2,3.5c-1.4,1.9-2.9,3.1-4.5,3.6l-0.3,0.1c-1.4,0.3-2.4,0-3.2-1s-1.1-2.6-1-4.7c0.1-1.9,0.4-3.8,0.9-5.9
		s1.2-3.9,2.1-5.6c0.9-1.5,1.7-2.4,2.3-2.5c0.4-0.1,0.7,0,0.9,0.2c0.2,0.2,0.4,0.8,0.7,1.8c0.3,0.6,0.9,1.5,1.8,2.8
		c0.3,0.4,0.6,0.8,0.8,1.1c0.3,0.3,0.6,0.7,0.9,1.1c0.8,0.6,1.2,1,1.4,1.3c0.1,0.3,0.2,0.7,0.2,1.3
		C143.2,171.4,142.9,172.5,142.4,173.7z M205.6,147.6c0,0.6-0.4,1.7-1.1,3.3s-1.7,3.3-2.8,5.1c-2.8,4.3-5.3,6.7-7.4,7.2
		c-0.9,0.2-1.6,0-2.2-0.7c-0.6-0.7-0.8-1.6-0.8-2.8l0-0.4c0.1-2.2,0.6-4.5,1.6-7c1-2.5,2.2-4.7,3.7-6.6c0.6-0.8,1.4-1.5,2.3-2.2
		c0.9-0.7,1.6-1.1,2.2-1.2c1.2-0.3,1.7,0.5,1.7,2.3l0,0.4c0,1,0.3,1.6,1.1,1.7c0.4,0,0.7,0,0.9,0.1c0.2,0.1,0.3,0.1,0.4,0
		c0.3,0.1,0.4,0.4,0.4,0.7L205.6,147.6z"/>
	<g>
		<path fill="#867651" stroke="#867651" stroke-width="3.2614" stroke-miterlimit="10" d="M89.9,152.3c0.2-0.8,0.3-1.6,0.6-2.4
			c0.2-0.8,0.4-1.6,0.7-2.4c0.2-0.7,0.4-1.4,0.8-2.1c0.6-1.5,1.4-2.8,2.3-4.1c0.2-0.3,0.4-0.6,0.7-1c0.3-0.3,0.6-0.7,0.9-1
			c0.3-0.3,0.6-0.7,1-1c0.3-0.3,0.7-0.7,1-1c0.5-0.4,0.8-1,0.8-1.7c0-1.2-0.8-1.6-1.5-1.6c-0.2,0-0.4,0-0.7,0.1
			c-0.5,0.1-1.1,0.3-1.6,0.5c-0.5,0.2-1,0.4-1.6,0.6c-1.1,0.5-2.2,1.1-3.1,1.9c-0.5,0.4-1.1,0.8-1.5,1.1c-0.5,0.4-1,0.9-1.4,1.3
			c-0.5,0.5-1,1-1.4,1.5l-0.6,0.7c-0.2,0.2-0.4,0.5-0.6,0.8l-1.1,1.5c-0.2,0.3-0.3,0.6-0.5,0.8l-0.4,0.6c-0.1,0.2-0.2,0.4-0.3,0.6
			c0,0.1,0,0.1-0.1,0.1l-0.1,0.1c-0.2,0.3-0.3,0.6-0.4,0.8c-0.1,0.2-0.2,0.4-0.3,0.6c0,0,0,0.1-0.1,0.2c-0.2,0.3-0.3,0.6-0.4,0.8
			c-0.9,1.9-1.6,3.9-2.3,5.9c-0.3,0.9-0.5,1.9-0.8,2.8c-0.2,0.9-0.5,1.9-0.7,2.8c-0.5,1.8-0.9,3.6-1.2,5.4l-1.6,7.9
			c-0.1,0.3-0.2,0.6-0.2,0.8c0,0.1-0.1,0.3-0.1,0.5l0,0.1c-0.1,0.2-0.1,0.5-0.1,0.7c0,0.1-0.1,0.3-0.1,0.5l0,0.1
			c-0.1,0.4-0.2,0.9-0.3,1.3c-0.1,0.4-0.2,0.9-0.3,1.3l-0.6,2.5c-0.2,0.8-0.5,1.7-0.7,2.5c-0.2,0.8-0.5,1.6-0.8,2.5
			c-0.1,0.4-0.3,0.8-0.4,1.2c-0.1,0.4-0.3,0.7-0.5,1.2c-0.1,0.2-0.2,0.4-0.2,0.6c-0.1,0.2-0.1,0.3-0.2,0.5c-0.1,0.2-0.2,0.4-0.3,0.5
			c-0.1,0.2-0.2,0.4-0.3,0.6c-0.2,0.4-0.4,0.7-0.5,1c-0.1,0.3-0.3,0.6-0.6,0.9c-0.1,0.1-0.2,0.2-0.2,0.4c-0.1,0.2-0.2,0.3-0.3,0.5
			l-0.5,0.7c-0.4,0.4-0.9,0.9-1.4,1.2c-0.1,0.1-0.2,0.1-0.3,0.2c-0.1,0.1-0.3,0.1-0.4,0.2L65,196c-0.1,0-0.2,0.1-0.2,0.1l-0.9,0.3
			l-0.4,0.1c-0.4,0.1-0.6,0.1-0.7,0.1c-0.3,0-0.5,0-0.7,0c-0.3-0.1-0.4-0.1-0.4-0.1l-0.2-0.1c-0.4-0.1-0.7-0.3-0.9-0.7
			c-0.3-0.3-0.5-0.8-0.7-1.3c-0.1-0.6-0.2-1.3-0.2-2l0-0.1c0-0.1,0-0.2,0-0.3c0-0.2,0.1-0.3,0.1-0.4l0.1-0.2c0-0.3,0.1-0.6,0.3-1
			l0-0.1c0.2-0.3,0.2-0.6,0.1-0.8c0-0.2-0.2-0.6-0.7-0.9c-0.2-0.1-0.5-0.2-0.7-0.2c-0.3,0-0.9,0.1-1.3,0.6c-0.3,0.3-0.5,0.5-0.7,0.8
			c-0.2,0.2-0.3,0.5-0.4,0.7c-0.3,0.5-0.6,1.1-0.8,1.6c-0.2,0.6-0.4,1.2-0.5,1.8c-0.1,0.5-0.2,1.1-0.2,1.6c0,0.6,0,1.2,0,1.7
			c0.1,0.6,0.2,1.1,0.4,1.7c0.3,1.1,1,2.1,1.9,2.9c0.5,0.4,1,0.8,1.6,1.1l0.1,0c0.6,0.2,1.2,0.4,1.7,0.5c0.5,0.1,1,0.2,1.5,0.2
			c0.2,0,0.3,0,0.5,0c0.4,0,0.7,0,1-0.1c0.3,0,0.6-0.1,0.9-0.1l0.5-0.1c0.2,0,0.3,0,0.6-0.1l1-0.3l0.1,0c0.3-0.1,0.6-0.2,0.9-0.3
			c0.3-0.1,0.7-0.3,1-0.4c1.3-0.6,2.5-1.4,3.7-2.4c0.3-0.2,0.5-0.5,0.8-0.7c0.3-0.2,0.5-0.5,0.8-0.8c0.2-0.3,0.4-0.5,0.6-0.7
			c0.2-0.2,0.5-0.5,0.7-0.8l0.6-0.8c0.2-0.2,0.4-0.5,0.6-0.8l0.5-0.8c0.2-0.2,0.3-0.5,0.5-0.8l0.1-0.1c0.1-0.2,0.3-0.5,0.4-0.7
			c0.2-0.3,0.3-0.5,0.5-0.8c0.1-0.2,0.3-0.5,0.4-0.7c0.1-0.2,0.3-0.5,0.4-0.8c0.2-0.5,0.4-1,0.7-1.4c0.2-0.5,0.5-1,0.7-1.4
			c0.2-0.5,0.5-1,0.7-1.5c0.2-0.5,0.4-1,0.6-1.5l1-2.8c0.2-0.5,0.3-1,0.5-1.5c0.1-0.4,0.3-0.9,0.5-1.4l0.8-2.7
			c0.1-0.3,0.2-0.6,0.2-0.8l0.1-0.6c0.1-0.3,0.2-0.5,0.2-0.8c0-0.2,0.1-0.4,0.2-0.6l0.3-1.5c0.1-0.3,0.2-0.6,0.2-0.8
			c0-0.1,0.1-0.3,0.1-0.5l1.2-5.6c0.2-0.9,0.3-1.8,0.5-2.7c0.2-0.9,0.3-1.7,0.5-2.6l1-5.2C89.6,154,89.7,153.2,89.9,152.3z"/>
	</g>
	<path fill="#FFFFFF" stroke="#FFFFFF" stroke-width="1.6307" stroke-miterlimit="10" d="M207.2,178.7c-0.4,0.1-0.6,0.5-0.7,1.2
		c-0.3,1.6-0.8,3.1-1.5,4.5c-0.7,1.4-1.4,2.2-2,2.5c-0.6,0.2-1-0.1-1.1-1c-0.1-0.3,0-0.9,0.1-1.6c0.1-0.2,0.1-0.5,0.1-1.1
		c0-0.6,0.1-1.4,0.2-2.6c0.2-1.4,0.3-2.4,0.4-3.2c0.1-0.8,0.1-1.4,0.1-1.7c0.1-1,0.1-2.1-0.1-3.5c-0.2-1.5-0.8-2.6-1.8-3.1
		c-0.9-0.5-2.2-0.5-3.6,0c-1.6,0.6-3.2,1.9-5.1,4c-1.9,2.1-3.5,4.7-5,7.7c-0.6,1.1-0.9,1.8-1.1,2.1c-0.1,0.2-0.3,0.4-0.4,0.4
		c-0.4,0.1-0.6-0.1-0.7-0.8L185,182l0.1-1l0.1-1.4c0-0.3,0-0.8-0.1-1.5c-0.4-3-1.9-4-4.5-3.1c-1.6,0.6-3.4,2-5.3,4.2
		c-1.9,2.2-3.9,5-5.7,8.5c-0.6,1.2-1.1,1.9-1.2,2.1s-0.4,0.4-0.6,0.5c-0.4,0.1-0.6-0.1-0.6-0.5l0-0.3l0.1-0.7l0.7-7.4l-0.1-0.4
		c-0.1-0.8-0.7-1-1.7-0.6l-0.2,0.1l-5,2.5c-0.7,0.4-1.1,0.8-1.4,1.1c-0.2,0.4-0.4,0.9-0.4,1.5l-1,13c-0.2,0.6-0.5,1.4-0.9,2.1
		c-0.4,0.8-0.9,1.5-1.4,2.1c-0.5,0.6-0.9,0.9-1.3,1c-0.6,0.2-1-0.1-1.2-1.1c-0.1-0.4,0-1,0.1-1.9c0.1-0.9,0.2-1.8,0.3-2.7l1.6-11.6
		l0-0.7c0-0.3,0-0.5,0-0.7c-0.1-0.4-0.1-0.6-0.3-0.6s-0.5-0.1-1.1,0.1l-0.8,0.3l-4,1.4c-0.6,0.4-1,0.6-1.1,0.8l-0.9,1
		c-0.3,0.3-0.6,0.6-0.9,0.6c-0.4,0.1-0.7,0.1-1,0l-1.4-0.2c-1.3-0.2-2.5-0.1-3.6,0.3c-1,0.4-2,0.9-3,1.7c-1,0.8-2,1.7-3,2.8
		s-1.8,2.3-2.6,3.6s-1.5,2.7-2,4.1c-1,2.6-1.4,5.1-1.3,7.4c-0.3,0.2-0.6,0.6-0.8,1.2c-0.2,0.4-0.4,0.7-0.4,1
		c-0.6,1.3-0.9,2.1-1.1,2.4c-0.6,1.2-1.6,2.4-2.8,3.5s-2.3,1.8-3.3,2.1c-1.1,0.4-2.1,0.2-2.9-0.5c-0.8-0.7-1.4-1.8-1.6-3.3
		c-0.2-1.2,0.1-2,0.9-2.3c0.1-0.1,0.3-0.1,0.5-0.1c0.2,0,0.4-0.1,0.8-0.1c0.7,0.1,1.5-0.1,2.4-0.4c1.3-0.4,2.4-1.1,3.5-2
		c1.1-0.9,2-1.9,2.8-3c0.8-1.1,1.3-2.3,1.7-3.5c0.4-1.2,0.5-2.4,0.3-3.6c-0.3-2-1.3-3.4-3.1-4.2c-1.8-0.8-3.8-0.9-6-0.1
		c-2,0.7-3.9,1.8-5.6,3.3c-1.7,1.5-3.2,3.2-4.3,5.1s-2,4-2.6,6.2c-0.2,0.9-0.4,1.8-0.5,2.7c-0.2,0.4-0.3,0.9-0.5,1.6
		c-0.2,0.9-0.5,1.9-0.9,2.9s-0.9,1.9-1.4,2.7c-0.5,0.8-1.1,1.5-1.7,2.1s-1.2,1-1.7,1.2c-0.8,0.3-1.3-0.2-1.3-1.6
		c0-0.7,0.1-1.7,0.2-2.9c0-0.1,0-0.4,0.1-0.8s0.2-1,0.3-1.7l0.2-1.3l0.1-0.6l4.3-19.6c0.2-0.1,0.3-0.2,0.5-0.3
		c0.5-0.2,1.4-0.5,2.5-0.9c0.4-0.1,0.9-0.2,1.4-0.4c0.4-0.2,1-0.5,1.6-0.8c3.4-1.6,6.1-3.6,8.1-5.8s2.9-4.4,2.6-6.4
		c-0.2-1.3-1.1-1.9-2.7-2.1s-5.5,0.8-7.7,1.8c-1.3,0.6-2.6,1.4-3.9,2.5c-1.3,1.1-2.5,2.1-3.5,3.2l-2,2.1c-0.8,0.9-1.5,1.5-1.9,1.7
		c-0.3,0.1-1.2,0.3-1.8,0.4c-1.3,0.2-3.1,0.6-4,0.8c-0.9,0.2-1.8,0.4-2.6,0.6c-0.8,0.2-1.7,0.4-2.6,0.6c-1.1,0.3-2.2,0.6-3.2,0.9
		s-1.9,0.6-2.8,0.9c-1.1,0.4-2.2,0.8-3.2,1.2c-1,0.4-2.2,0.9-3.4,1.5c-1.2,0.6-2.1,1-2.7,1.3c-0.6,0.3-0.9,0.6-1.1,0.8
		c-0.3,0.2-0.7,0.9-1.2,2l-3.6,8.7c-0.4,1-0.6,1.6-0.6,1.8c0,0.3,0.3,0.4,0.7,0.2c0.3-0.1,0.7-0.4,1-0.8c0.7-0.6,1.8-1.5,3.3-2.5
		c2.8-1.9,5-3.3,6.7-4.1l4.5-2.1l5.5-2.4l4.9-1.7c1.7-0.6,2.8-0.9,3.4-1l-5.3,23.3l-0.2,1.1c-0.1,0.8-0.2,1.4-0.3,1.9
		s-0.2,0.9-0.2,1.3c0,0.3-0.1,0.6-0.1,0.9s0,0.6,0,0.9c-0.1,0.4-0.1,0.7-0.1,1.1c0,0.3,0,0.7,0,1c0,1.4,0.3,2.4,0.9,2.9
		c0.5,0.5,1.3,0.6,2.4,0.2c0.7-0.2,1.6-0.7,2.5-1.4c1.5-1,2.9-2.1,3.9-3.1s2.4-2.6,4-4.7c1.2-1.5,2.1-2.8,2.7-3.9
		c0.6,2,1.7,3.4,3.3,4.2c2.1,1.1,4.6,1.1,7.7,0c2.2-0.8,4.3-2.1,6.2-3.8s3.4-3.7,4.5-5.9c0.2-0.4,0.4-0.8,0.5-1.2
		c0.4,1.4,1.1,2.6,1.9,3.4c1.2,1.2,2.7,1.5,4.3,0.9c1.1-0.4,2.4-1.4,3.9-3s2.8-3.4,3.9-5.4c0.3-0.5,0.6-0.7,0.8-0.8
		c0.4-0.1,0.6,0,0.6,0.4l0.1,1c0.2,1.4,0.7,2.3,1.6,2.8c0.8,0.5,1.9,0.5,3.1,0.1c1.5-0.5,3.2-1.8,5.1-3.7c1.3-1.3,2.5-2.8,3.6-4.4
		l-0.2,2.7l0.1,0.7c0.1,0.6,0.2,1,0.5,1.1c0.2,0.1,0.6,0.1,1.2-0.1l4.2-1.5c0.6-0.2,1.1-0.5,1.3-0.8s0.4-0.8,0.6-1.6l0.3-1.3
		c0.2-0.9,0.7-2.5,1.5-4.6c0.4-1.2,0.8-2.2,1.2-3.2s0.7-1.8,1.1-2.5c0.3-0.6,0.6-1.2,1-1.9c0.4-0.6,0.8-1.4,1.3-2.1
		c1.1-1.7,2-2.7,2.8-3c0.7-0.2,1.1,0,1.2,0.8c0.1,0.5,0.1,0.9,0.1,1.2c-0.1,0.3-0.1,0.5-0.1,0.6l-0.9,12.3c-0.1,0.5-0.1,0.8-0.1,0.9
		c0.1,0.8,0.8,0.9,1.9,0.5l5-1.8c0.7-0.2,1.2-0.5,1.4-0.9c0.2-0.3,0.4-1,0.6-2.1c0.4-1.7,0.7-3.2,1.1-4.6c0.4-1.3,0.8-2.6,1.2-3.8
		c0.5-1.2,1-2.4,1.7-3.6c0.6-1.2,1.4-2.6,2.3-4c1.1-1.8,2-2.8,2.8-3.1c0.6-0.2,1,0.1,1.1,1c0.1,0.4,0.1,0.8,0,1.5s-0.2,1.8-0.4,3.6
		c-0.3,2.2-0.5,4-0.5,5.3c-0.1,1.3-0.1,2.3,0,2.8c0.2,1.2,0.6,2,1.5,2.5c0.8,0.5,1.8,0.5,3,0.1c1.1-0.4,2.3-1.2,3.8-2.5
		c1.4-1.3,2.8-2.8,4-4.5c1.1-1.4,1.9-2.8,2.6-4.1c0.7-1.3,1-2.3,0.9-2.8C208.5,179,208,178.4,207.2,178.7z M116.2,204.1
		c0.4-1.4,0.8-2.6,1.3-3.4c0.7-1.3,1.5-2.2,2.5-2.5c1-0.4,1.6,0.3,1.8,1.9c0.2,1.1-0.1,2.5-0.7,4.1c-0.6,1.6-1.4,3-2.4,4.1
		c-0.3,0.2-0.5,0.5-0.8,0.7c-0.3,0.2-0.6,0.4-1,0.6c-0.8,0.3-1.3,0-1.5-0.9C115.4,207.8,115.6,206.3,116.2,204.1z M106.3,187.1
		c0.5-0.5,1.4-1.3,2.8-2.2c1.6-1.1,2.9-1.9,4-2.4c1.2-0.6,2.2-0.9,3.1-0.9c0.9-0.1,1.4,0.2,1.4,0.7c0.1,0.5-0.4,1.2-1.4,2.1
		c-1,0.9-2.2,1.7-3.6,2.3c-0.9,0.4-1.8,0.8-2.7,1c-0.8,0.2-1.4,0.4-1.8,0.5c-0.4,0.1-0.7,0.2-0.7,0.2c-1,0.4-1.6,0.4-1.6,0
		C105.5,188.1,105.8,187.6,106.3,187.1z M145.4,195.2c0.1,0.4-0.1,1.2-0.4,2.5s-0.8,2.6-1.4,3.9c-1.5,3.4-3.1,5.3-4.6,5.9
		c-0.6,0.2-1.2,0.1-1.7-0.3s-0.8-1.1-0.9-2l0-0.3c-0.2-1.6-0.1-3.4,0.3-5.3c0.4-1.9,1.1-3.6,1.9-5.1c0.4-0.6,0.8-1.2,1.4-1.8
		c0.6-0.6,1.1-0.9,1.5-1.1c0.9-0.3,1.4,0.2,1.5,1.5l0.1,0.3c0.1,0.8,0.4,1.1,1.1,1.1c0.3,0,0.5,0,0.7,0c0.1,0,0.3,0,0.3,0
		C145.2,194.7,145.4,194.8,145.4,195.2L145.4,195.2z"/>
	
		<path fill="#FFFFFF" stroke="#FFFFFF" stroke-width="1.6307" stroke-linecap="round" stroke-linejoin="round" stroke-miterlimit="10" d="
		M223,147.4c-0.5,0.1-0.9,0.4-1.3,0.9c-0.4,0.5-0.8,1.3-1.3,2.5c-0.4,0.9-1,1.8-1.7,2.8s-1.5,1.9-2.3,2.6c-0.8,0.7-1.4,1.1-1.9,1.2
		c-0.9,0.2-1.3-0.3-1.3-1.7c0-0.5,0.2-1.3,0.5-2.6c0.3-1.2,0.7-2.4,1-3.5l4.8-15.3l0.2-0.9c0.1-0.4,0.2-0.7,0.2-0.9
		c0-0.5-0.1-0.8-0.3-0.9c-0.2-0.1-0.7-0.2-1.5-0.1l-1.2,0.3l-5.6,1.3c-0.9,0.4-1.4,0.7-1.6,0.9l-1.4,1.2c-0.5,0.4-0.9,0.6-1.4,0.7
		c-0.5,0.1-0.9,0.1-1.3-0.1l-1.8-0.4c-1.6-0.4-3.3-0.5-4.8-0.1c-1.4,0.3-2.8,1-4.4,1.9s-3.1,2-4.6,3.3c-1.5,1.3-2.9,2.8-4.3,4.5
		c-1.4,1.7-2.6,3.4-3.6,5.1c-2.2,3.9-3.4,7.6-3.6,11.1c-0.1,0-0.1,0-0.2,0c-0.4,0.1-0.9,0.5-1.5,1.3c-2.4,3.5-4.4,5.9-6,7.2
		c-1.6,1.3-3.6,2.3-6,2.8c-3.8,0.9-5.6-0.8-5.4-5c0-0.6,0.1-1.3,0.4-2.3c0.2-1,0.5-2,0.8-3.1s0.7-2.2,1.1-3.3s0.8-2.1,1.2-3.1
		c1.4-2.9,2.7-5.1,4-6.9c1.3-1.8,2.6-2.8,3.8-3.1c0.8-0.2,1.4,0,2,0.6c0.5,0.6,0.8,1.4,0.7,2.4c0,0.8-0.2,1.6-0.5,2.7
		c-0.3,1.1-0.8,2.3-1.5,3.6c-0.3,0.9-0.5,1.4-0.5,1.5c0,0.8,0.4,1,1.1,0.9l0.9-0.2l4.3-1.7c2.1-0.8,3.2-2.5,3.2-5.1
		c0.1-1.5-0.2-2.9-0.7-4.1c-0.5-1.2-1.3-2.2-2.3-2.9c-1-0.7-2.2-1.2-3.5-1.5c-1.4-0.2-2.8-0.2-4.4,0.2c-2.6,0.6-5.1,1.8-7.6,3.6
		c-2.5,1.8-4.7,3.9-6.7,6.4s-3.5,5.1-4.7,8c-0.6,1.5-1.1,3-1.4,4.5l-0.2-0.2c-0.2-0.1-0.3-0.4-0.3-0.6c0-0.2,0-0.4,0.1-0.8
		c0.1-0.3,0.1-0.8,0.3-1.2c0.4-1.2,0.7-2.5,0.7-3.8c0.1-3.7-0.5-6.6-1.9-8.9c-1.4-2.3-3.1-3.2-5.2-2.7c-1,0.2-2,0.9-3.1,1.9
		c-0.8,0.9-1.3,1.3-1.4,1.4l-0.9,1.3c-0.5,0.8-1.4,1.5-2.7,2c-4.8,2.2-8.6,5.2-11.5,9c-2.9,3.8-4.4,7.8-4.6,11.9
		c0,1.1,0,2.2,0.2,3.2c-0.4,0.4-0.9,0.9-1.4,1.3c-1,0.9-2.1,1.7-3.3,2.3c-0.2,0.1-0.5,0.2-0.7,0.3c-0.3,0.1-0.6,0.2-0.9,0.3
		c-0.4,0.1-0.6,0.1-0.6,0.1l-0.7,0.1c-0.1,0-0.2,0-0.3,0c-0.1,0-0.2,0-0.3,0l-0.5,0c-0.1,0-0.2,0-0.3,0c-0.1,0-0.1,0-0.2-0.1l-0.1,0
		c-0.3-0.1-0.4-0.1-0.4-0.1l0,0l-0.1-0.1V181l-0.2-0.2c0,0,0,0,0,0l0-0.5l0-0.2c0,0,0-0.1,0-0.3c0-0.3,0-0.5,0-0.8s0-0.5,0-0.8
		c0-0.3,0-0.6,0-0.9c0.1-0.6,0.2-1.3,0.2-2c0-0.7,0.1-1.4,0.1-2.1c0-0.4,0.1-0.8,0.1-1.2s0-0.8,0-1.2l0-1.1c0-0.4,0-0.8-0.1-1.2
		c0-0.8-0.1-1.7-0.2-2.5c-0.2-0.8-0.4-1.7-0.7-2.4c-0.1-0.2-0.1-0.4-0.2-0.7c-0.1-0.3-0.2-0.5-0.3-0.6l-0.5-1.1l-0.1-0.2
		c-0.3-0.4-0.5-0.8-0.8-1.2c-0.3-0.4-0.7-0.7-1-1c-0.2-0.2-0.4-0.4-0.6-0.5l-0.4-0.3c1.5-0.7,3.1-1.6,4.7-2.6c0.8-0.5,1.6-1,2.3-1.6
		c0.8-0.5,1.5-1.2,2.3-1.8c0.2-0.1,0.4-0.3,0.6-0.5c0.2-0.1,0.3-0.3,0.6-0.5l1.1-1.1c0.3-0.4,0.7-0.7,1-1.1c0.3-0.4,0.7-0.8,1-1.2
		c1.3-1.6,2.4-3.4,3.2-5.4c0.4-1,0.7-1.9,1-2.9c0.3-1,0.5-2,0.6-2.9c0.3-1.9,0.2-3.9-0.4-5.7c-0.5-1.7-1.3-3.3-2.4-4.6
		c-0.3-0.4-0.6-0.7-0.9-1c-0.3-0.3-0.6-0.5-1-0.8c-0.3-0.3-0.7-0.5-1-0.8c-0.3-0.2-0.7-0.5-1.1-0.7c-0.7-0.4-1.5-0.8-2.3-1
		c-0.8-0.3-1.5-0.5-2.3-0.7l-1.1-0.2c-0.4-0.1-0.8-0.1-1.2-0.2c-0.4-0.1-0.8-0.1-1.2-0.2c-0.4,0-0.8-0.1-1.2-0.1
		c-0.8-0.1-1.6-0.1-2.4-0.1c-0.8,0-1.6,0-2.3,0.1c-0.4,0-0.8,0-1.2,0.1c-0.4,0-0.8,0.1-1.1,0.1l-1.3,0.2c-0.4,0.1-0.8,0.1-1.2,0.2
		c-0.8,0.1-1.6,0.3-2.4,0.4c-0.7,0.2-1.5,0.3-2.3,0.5c-0.8,0.2-1.6,0.4-2.3,0.6c-0.8,0.2-1.5,0.4-2.3,0.7l-0.5,0.2l-0.5,0.1l-0.1,0
		c-0.2,0.1-0.3,0.1-0.5,0.2l-0.5,0.1l-0.1,0c-0.4,0.1-0.7,0.3-1.1,0.4c-0.4,0.1-0.8,0.3-1.2,0.4c-0.4,0.1-0.7,0.3-1.1,0.4
		c-0.4,0.1-0.8,0.3-1.2,0.4c-0.3,0.2-0.7,0.3-1,0.4c-0.4,0.1-0.8,0.3-1.2,0.5l-2.2,1c-0.7,0.3-1.5,0.7-2.2,1c-1.5,0.8-3,1.6-4.4,2.4
		c-1.4,0.9-2.8,1.9-4.2,2.9c-1.4,1.1-2.7,2.2-3.9,3.4c-0.7,0.7-1.3,1.3-1.8,1.9c-0.6,0.6-1.1,1.3-1.6,2c-0.5,0.7-1,1.4-1.5,2.1
		c-0.5,0.7-0.9,1.5-1.3,2.2c-0.8,1.5-1.6,3.1-2.1,4.7l0,0.1c0,0.2-0.1,0.4-0.1,0.5c0,0.1-0.1,0.3-0.2,0.5l0,0.1
		c0,0.2-0.1,0.4-0.1,0.6c0,0.1,0,0.2-0.1,0.4l0,0.1c-0.1,0.4-0.2,0.9-0.2,1.3c0,0.4,0,0.8-0.1,1.2c0,0.5,0,0.9,0,1.3
		c0,0.4,0.1,0.8,0.1,1.2c0,0.3,0.1,0.7,0.2,1.1c0.1,0.4,0.1,0.8,0.2,1.2c0.2,0.7,0.5,1.5,0.8,2.2c0.3,0.7,0.7,1.4,1.1,2.1
		c0.5,0.6,0.9,1.2,1.4,1.7c0.5,0.6,1.1,1.1,1.7,1.5c0.3,0.2,0.6,0.5,0.9,0.7c0.3,0.2,0.6,0.4,1,0.6c0.3,0.2,0.7,0.4,1,0.6
		c0.3,0.2,0.7,0.3,1.1,0.5c0.4,0.2,0.8,0.3,1.1,0.4s0.7,0.3,1.1,0.4c0.4,0.1,0.8,0.2,1.2,0.2c0.2,0.1,0.4,0.1,0.7,0.1l0.9,0.2l0.2,0
		c1.2,0,2.3-0.4,3.4-1.1c1-0.8,1.8-1.8,2.2-3c0.4-1.2,0.3-2.4-0.3-3.3c-0.6-1-1.6-1.5-2.8-1.6h-0.1l-0.4,0l-0.1-0.1l-0.2,0.1
		c0,0-0.1,0-0.1,0l-0.2,0c-0.1,0-0.3,0-0.6-0.1l-0.1,0c-0.2,0-0.5,0-0.7-0.1l-0.8-0.2c-0.5-0.1-1-0.3-1.4-0.5
		c-0.3-0.1-0.5-0.2-0.8-0.3c-0.2-0.1-0.4-0.1-0.5-0.3l-0.1-0.1c-0.4-0.2-0.8-0.4-1.2-0.7c-0.4-0.3-0.8-0.6-1.1-0.9
		c-0.4-0.4-0.7-0.8-1-1.1c-0.3-0.4-0.6-0.8-0.8-1.2c-0.1-0.2-0.2-0.5-0.3-0.7c-0.1-0.2-0.2-0.4-0.3-0.7c-0.1-0.3-0.2-0.5-0.2-0.8
		c-0.1-0.3-0.2-0.6-0.3-0.8c-0.1-0.5-0.2-1-0.2-1.5l0-0.9c0-0.1,0-0.3,0-0.4c0-0.2,0-0.3,0-0.5c0.2-1.2,0.5-2.4,1.1-3.7
		c0.5-1.2,1.2-2.4,2.1-3.6c0.2-0.3,0.5-0.6,0.7-0.9c0.2-0.3,0.5-0.6,0.6-0.8l0.8-0.8c0.3-0.3,0.5-0.6,0.8-0.8c1.2-1.1,2.3-2.1,3.5-3
		c1.2-0.9,2.4-1.8,3.8-2.5c1.3-0.8,2.7-1.5,4.1-2.2c1.4-0.6,2.8-1.2,4.1-1.7l2-0.7c0.4-0.1,0.8-0.2,1.1-0.3c0.3-0.1,0.7-0.2,1-0.3
		l3.3-0.9l0.1,0L88,128c0.7-0.1,1.4-0.2,2.1-0.3s1.4-0.2,2.1-0.2c0.7-0.1,1.4-0.2,2.1-0.2c0.4,0,0.9,0,1.3,0c0.2,0,0.4,0,0.7,0
		c0.4,0,0.7,0,1,0l0.2,0c0.2,0,0.5,0,0.8,0l0.2,0c0.6,0,1.2,0.1,1.7,0.1c1.3,0.1,2.4,0.3,3.4,0.7c0.3,0.1,0.6,0.2,0.9,0.3
		c0.2,0.1,0.4,0.1,0.6,0.2l0.2,0.1c0.3,0.1,0.5,0.2,0.7,0.3c0.2,0.1,0.4,0.2,0.6,0.4c0.8,0.5,1.6,1.1,2.3,1.8l0.1,0.1
		c0.2,0.2,0.5,0.5,0.6,0.8l0.1,0.1c0.1,0.1,0.2,0.3,0.3,0.5c0.1,0.2,0.2,0.4,0.3,0.6c0.2,0.4,0.3,0.7,0.4,1c0.1,0.4,0.2,0.8,0.3,1.2
		c0.1,0.4,0.2,0.8,0.2,1.2c0,0.4,0,0.7-0.1,1.2c-0.1,0.9-0.3,1.8-0.6,2.7c-0.3,1.1-0.8,2.1-1.2,3l-0.4,0.8c-0.1,0.2-0.3,0.5-0.4,0.6
		c-0.1,0.1-0.2,0.3-0.3,0.5c-0.1,0.1-0.1,0.2-0.2,0.3c-0.1,0.1-0.2,0.3-0.3,0.5c-0.1,0.1-0.1,0.2-0.2,0.3c-0.4,0.5-0.8,1.1-1.2,1.6
		c-0.4,0.5-0.9,1-1.4,1.5c-1,1-2.1,1.9-3.3,2.8c-0.6,0.5-1.2,0.9-1.8,1.3c-0.6,0.4-1.2,0.8-1.9,1.2c-1.6,0.9-3.2,1.7-4.8,2.4
		c-0.6,0.1-1.2,0.3-1.8,0.4c-0.6,0.2-1.2,0.4-1.8,0.6c-0.9,0.4-1.5,1.1-1.6,2.1l0,0.1v0.1c0,0.8,0.4,1.2,0.7,1.4
		c0.4,0.5,0.9,0.7,1.6,0.5c0.5-0.1,1.1-0.1,1.7-0.3c0.5-0.1,1.1-0.2,1.6-0.3l0.7,0c0.2,0,0.4,0.1,0.7,0c0.1,0,0.1,0,0.3,0
		c0.2,0,0.5,0.1,0.9,0.1c0.5,0.1,1,0.2,1.5,0.5l0.1,0c0,0,0.1,0.1,0.5,0.3c0.1,0.2,0.3,0.4,0.4,0.5c0.1,0.1,0.1,0.2,0.2,0.4l0,0
		c0,0.2,0.1,0.4,0.2,0.5c0.1,0.1,0.1,0.2,0.1,0.4c0,0.3,0.1,0.5,0.1,0.8l0,0.7c0,0.1-0.1,0.3-0.1,0.4v0.3c-0.1,0.6-0.2,1.2-0.2,1.8
		l-0.3,1.9c-0.1,0.4-0.2,0.8-0.2,1.2c0,0.3-0.1,0.6-0.1,0.9l0,0.1c-0.1,0.4-0.1,0.8-0.1,1.1c0,0.3-0.1,0.6-0.1,0.9l0,0.1
		c-0.1,0.7-0.2,1.5-0.2,2.3c0,0.8,0,1.6,0,2.4c0,0.9,0.1,1.8,0.3,2.7c0.1,0.5,0.2,0.9,0.3,1.4c0.1,0.4,0.3,0.9,0.5,1.5
		c0.1,0.2,0.2,0.4,0.4,0.7l0.4,0.7l0.1,0.1c0.4,0.5,0.8,0.9,1.2,1.2c0.5,0.4,1,0.8,1.6,1.1c0.5,0.2,1.1,0.5,1.8,0.6
		c0.5,0.1,1,0.1,1.4,0.2c0.1,0,0.3,0,0.4,0c0.6,0,1.2,0,1.7-0.1c0.3,0,0.6-0.1,0.9-0.1l0.7-0.2c0.3,0,0.6-0.1,0.8-0.2
		c0.2-0.1,0.4-0.1,0.6-0.2c0.3-0.1,0.6-0.2,0.8-0.3l0.3-0.1l0.3-0.2c0.3-0.1,0.5-0.1,0.8-0.2c0.2-0.1,0.5-0.2,0.8-0.3
		c0.5-0.2,1-0.5,1.5-0.7c0.4-0.2,0.9-0.5,1.4-0.7c0.5-0.3,0.9-0.6,1.3-0.9c0.4-0.3,0.9-0.6,1.3-1c0.8-0.7,1.5-1.4,2.2-2.1
		c0.1-0.1,0.1-0.1,0.2-0.2l0.2,0.4c2.3,2,5.2,2.5,8.9,1.7c2.6-0.6,5.2-2.1,7.8-4.4s5-5.2,7-8.6c0.5-0.8,0.9-1.3,1.1-1.4
		c0.2-0.2,0.6-0.5,1.4-0.8c0.3-0.2,0.6-0.4,0.9-0.5c0,0.1,0,0.1,0,0.2c-0.1,3.6,1,6.2,3.3,7.9c2.3,1.7,5.4,2.1,9.4,1.1
		c4.3-1,8.7-3.7,13-7.9c2.2-2.2,3.5-3.8,3.8-4.8l0.4-1.4c0.1,2.3,0.8,4.2,1.9,5.6c1.4,1.7,3.2,2.3,5.4,1.8c1.6-0.4,3.6-1.6,5.9-3.5
		c2.4-2,4.5-4.2,6.5-6.7c0.5-0.6,0.9-0.9,1.2-1c0.5-0.1,0.7,0.1,0.7,0.7l-0.1,1.4c-0.1,1.9,0.4,3.2,1.4,3.9c1,0.7,2.3,0.9,4,0.5
		c2.1-0.5,4.6-1.9,7.6-4.3c3-2.4,5.8-5.2,8.5-8.5c1.3-1.8,2-3.6,2.1-5.4C223.8,147.6,223.5,147.3,223,147.4z M141.3,171.3
		c-0.5,1.2-1.2,2.4-2,3.5c-1.4,1.9-2.9,3.1-4.5,3.6l-0.3,0.1c-1.4,0.3-2.4,0-3.2-1s-1.1-2.6-1-4.7c0.1-1.9,0.4-3.8,0.9-5.9
		c0.6-2.1,1.2-3.9,2.1-5.6c0.9-1.5,1.7-2.4,2.3-2.5c0.4-0.1,0.7,0,0.9,0.2c0.2,0.2,0.4,0.8,0.7,1.8c0.3,0.6,0.9,1.5,1.8,2.8
		c0.3,0.4,0.6,0.8,0.8,1.1c0.3,0.3,0.6,0.7,0.9,1.1c0.8,0.6,1.2,1,1.4,1.3c0.1,0.3,0.2,0.7,0.2,1.3
		C142.1,169.1,141.8,170.1,141.3,171.3z M204.5,145.2c0,0.6-0.4,1.7-1.1,3.3c-0.7,1.6-1.7,3.3-2.8,5.1c-2.8,4.3-5.3,6.7-7.4,7.2
		c-0.9,0.2-1.6,0-2.2-0.7c-0.6-0.7-0.8-1.6-0.8-2.8l0-0.4c0.1-2.2,0.6-4.5,1.6-7c1-2.5,2.2-4.7,3.7-6.5c0.6-0.8,1.4-1.5,2.3-2.2
		c0.9-0.7,1.6-1.1,2.2-1.2c1.2-0.3,1.8,0.5,1.7,2.3l0,0.4c0,1,0.3,1.6,1.1,1.7c0.4,0,0.7,0,0.9,0.1c0.2,0.1,0.3,0.1,0.4,0
		c0.3,0.1,0.4,0.4,0.4,0.7L204.5,145.2z"/>
	<g>
		<path fill="#FFFFFF" stroke="#FFFFFF" stroke-width="1.6307" stroke-miterlimit="10" d="M88.8,150c0.2-0.8,0.3-1.6,0.6-2.4
			c0.2-0.8,0.4-1.6,0.6-2.4c0.2-0.7,0.4-1.4,0.8-2.1c0.6-1.5,1.4-2.8,2.3-4.1c0.2-0.3,0.4-0.6,0.7-1c0.3-0.3,0.6-0.7,0.9-1
			c0.3-0.3,0.6-0.7,1-1c0.3-0.3,0.7-0.7,1-1c0.5-0.4,0.8-1,0.8-1.7c0-1.2-0.8-1.6-1.5-1.6c-0.2,0-0.4,0-0.7,0.1
			c-0.6,0.1-1.1,0.3-1.6,0.5c-0.5,0.2-1.1,0.4-1.6,0.6c-1.1,0.5-2.2,1.1-3.1,1.9c-0.5,0.4-1.1,0.8-1.5,1.1c-0.5,0.4-1,0.9-1.4,1.3
			c-0.5,0.5-1,1-1.4,1.5l-0.6,0.7c-0.2,0.2-0.4,0.5-0.6,0.8l-1.1,1.5c-0.2,0.3-0.3,0.6-0.5,0.8l-0.4,0.6c-0.1,0.2-0.2,0.4-0.3,0.6
			c0,0.1,0,0.1-0.1,0.1l-0.1,0.1c-0.2,0.3-0.3,0.6-0.4,0.8c-0.1,0.2-0.2,0.4-0.3,0.6c0,0,0,0.1-0.1,0.1c-0.2,0.3-0.3,0.6-0.4,0.8
			c-0.9,1.9-1.6,3.9-2.3,5.9c-0.3,0.9-0.5,1.9-0.8,2.8c-0.2,0.9-0.5,1.9-0.7,2.8c-0.5,1.8-0.9,3.6-1.2,5.4l-1.6,7.9
			c-0.1,0.3-0.2,0.6-0.2,0.8c0,0.1-0.1,0.3-0.1,0.5l0,0.1c-0.1,0.2-0.1,0.5-0.1,0.7c0,0.1-0.1,0.3-0.1,0.5l0,0.1
			c-0.1,0.4-0.2,0.9-0.3,1.3c-0.1,0.4-0.2,0.9-0.3,1.3l-0.6,2.5c-0.2,0.8-0.5,1.7-0.7,2.5c-0.2,0.8-0.5,1.6-0.8,2.5
			c-0.1,0.4-0.3,0.8-0.4,1.2c-0.1,0.4-0.3,0.7-0.5,1.2c-0.1,0.2-0.2,0.4-0.2,0.6c-0.1,0.2-0.1,0.3-0.2,0.5c-0.1,0.2-0.2,0.4-0.3,0.5
			c-0.1,0.2-0.2,0.4-0.3,0.6c-0.2,0.4-0.4,0.7-0.5,1c-0.1,0.3-0.3,0.6-0.6,0.9c-0.1,0.1-0.2,0.2-0.2,0.4c-0.1,0.2-0.2,0.3-0.3,0.5
			l-0.5,0.7c-0.4,0.4-0.9,0.9-1.4,1.2c-0.1,0.1-0.2,0.1-0.3,0.2c-0.1,0.1-0.3,0.1-0.4,0.2l-0.2,0.1c-0.1,0-0.2,0.1-0.2,0.1l-0.9,0.3
			l-0.4,0.1c-0.4,0.1-0.6,0.1-0.7,0.1c-0.3,0-0.5,0-0.7,0c-0.3-0.1-0.4-0.1-0.4-0.1l-0.2-0.1c-0.4-0.1-0.7-0.3-0.9-0.7
			c-0.3-0.3-0.5-0.8-0.7-1.3c-0.1-0.6-0.2-1.3-0.2-2l0-0.1c0-0.1,0-0.2,0-0.3c0-0.2,0.1-0.3,0.1-0.4l0.1-0.2c0-0.3,0.1-0.6,0.3-1
			l0-0.1c0.2-0.3,0.2-0.6,0.1-0.8c0-0.2-0.2-0.6-0.7-0.9c-0.2-0.1-0.5-0.2-0.7-0.2c-0.3,0-0.9,0.1-1.3,0.6c-0.3,0.3-0.5,0.5-0.7,0.8
			c-0.2,0.2-0.3,0.5-0.4,0.7c-0.3,0.5-0.6,1.1-0.8,1.6c-0.2,0.6-0.4,1.2-0.5,1.8c-0.1,0.5-0.2,1.1-0.2,1.6c0,0.6,0,1.2,0,1.7
			c0.1,0.6,0.2,1.1,0.4,1.7c0.3,1.1,1,2.1,1.9,2.9c0.5,0.4,1,0.8,1.6,1.1l0.1,0c0.6,0.2,1.2,0.4,1.7,0.5c0.5,0.1,1,0.2,1.5,0.2
			c0.2,0,0.3,0,0.5,0c0.4,0,0.7,0,1-0.1c0.3,0,0.6-0.1,0.9-0.1l0.5-0.1c0.2,0,0.3,0,0.5-0.1l1-0.3l0.1,0c0.3-0.1,0.6-0.2,0.9-0.3
			c0.3-0.1,0.7-0.3,1-0.4c1.3-0.6,2.5-1.4,3.7-2.4c0.3-0.2,0.5-0.5,0.8-0.7c0.3-0.2,0.5-0.5,0.8-0.8c0.2-0.3,0.4-0.5,0.6-0.7
			c0.2-0.2,0.5-0.5,0.7-0.8l0.6-0.8c0.2-0.2,0.4-0.5,0.6-0.8l0.5-0.8c0.2-0.2,0.3-0.5,0.5-0.8l0.1-0.1c0.1-0.2,0.3-0.5,0.4-0.7
			c0.2-0.3,0.3-0.5,0.5-0.8c0.1-0.2,0.3-0.5,0.4-0.7c0.2-0.2,0.3-0.5,0.4-0.8c0.2-0.5,0.4-1,0.7-1.4c0.2-0.5,0.5-1,0.7-1.4
			c0.2-0.5,0.5-1,0.7-1.5c0.2-0.5,0.4-1,0.6-1.5l1-2.8c0.2-0.5,0.3-1,0.5-1.5c0.1-0.4,0.3-0.9,0.5-1.4l0.8-2.7
			c0.1-0.3,0.2-0.6,0.2-0.8l0.1-0.6c0.1-0.3,0.2-0.5,0.2-0.8c0-0.2,0.1-0.4,0.2-0.6l0.4-1.5c0.1-0.3,0.2-0.6,0.2-0.8
			c0-0.1,0.1-0.3,0.1-0.5l1.2-5.6c0.2-0.9,0.3-1.8,0.5-2.7c0.2-0.9,0.3-1.7,0.5-2.6l1-5.2C88.5,151.7,88.6,150.8,88.8,150z"/>
	</g>
	<g>
		<path fill="none" d="M106.9,182.7c-1.4,1-2.3,1.7-2.8,2.2c-0.5,0.5-0.8,0.9-0.7,1.2c0.1,0.4,0.6,0.5,1.6,0c0.1,0,0.3-0.1,0.7-0.2
			c0.4-0.1,1-0.3,1.8-0.5c0.1,0,0.2-0.1,0.3-0.1c0.4-0.3,0.8-0.7,1.2-1.1c0.5-0.5,1-1,1.4-1.5s0.9-1.1,1.4-1.7c0.4-0.5,0.7-1,1-1.5
			c-0.6,0.1-1.3,0.4-2.1,0.7C109.8,180.9,108.5,181.7,106.9,182.7z"/>
		<path fill="none" d="M114.8,207.4c0.3-0.1,0.7-0.3,1-0.6s0.6-0.5,0.8-0.7c1-1.1,1.8-2.4,2.4-4.1c0.6-1.6,0.8-3,0.7-4.1
			c-0.2-1.6-0.8-2.2-1.8-1.9c-1,0.4-1.8,1.2-2.5,2.5c-0.5,0.8-0.9,2-1.3,3.4c-0.6,2.2-0.8,3.7-0.7,4.5
			C113.4,207.4,113.9,207.7,114.8,207.4z"/>
		<path fill="none" d="M143.2,193c0-0.3-0.2-0.4-0.4-0.5c-0.1,0-0.2,0-0.3,0c-0.1,0-0.4,0-0.7,0c-0.6,0-0.9-0.4-1.1-1.1l-0.1-0.3
			c-0.2-1.3-0.7-1.8-1.5-1.5c-0.4,0.1-0.9,0.5-1.5,1.1s-1.1,1.2-1.4,1.8c-0.8,1.5-1.5,3.1-1.9,5.1c-0.4,1.9-0.5,3.7-0.3,5.3l0,0.3
			c0.1,0.9,0.4,1.6,0.9,2c0.5,0.4,1.1,0.6,1.7,0.3c1.6-0.6,3.1-2.5,4.6-5.9c0.6-1.4,1.1-2.7,1.4-3.9S143.3,193.5,143.2,193
			L143.2,193z"/>
		<path d="M66.9,203.1c0.2-0.2,0.4-0.4,0.6-0.7c0.2-0.3,0.4-0.5,0.6-0.7c0.2-0.2,0.4-0.4,0.6-0.7s0.4-0.5,0.5-0.7s0.3-0.5,0.5-0.7
			c0.2-0.3,0.3-0.5,0.4-0.7c0.1-0.2,0.3-0.5,0.4-0.7c0.1-0.2,0.2-0.5,0.4-0.7c0.1-0.2,0.3-0.5,0.4-0.7s0.2-0.5,0.3-0.7
			c0.1-0.2,0.2-0.5,0.3-0.7c0,0,0-0.1,0.1-0.1c-0.7,0.3-1.2,0.6-1.6,0.8c-0.6,0.3-0.9,0.6-1.1,0.8c-0.3,0.2-0.7,0.9-1.2,2l-2.3,5.5
			c0.1-0.1,0.2-0.2,0.4-0.3C66.5,203.6,66.7,203.4,66.9,203.1z"/>
	</g>
	<path d="M205.2,176.9c-0.4,0.1-0.6,0.5-0.7,1.2c-0.3,1.6-0.8,3.1-1.5,4.5c-0.7,1.4-1.4,2.2-2,2.5c-0.6,0.2-1-0.1-1.1-1
		c-0.1-0.3,0-0.9,0.1-1.6c0.1-0.2,0.1-0.5,0.1-1.1c0-0.6,0.1-1.4,0.2-2.6c0.2-1.4,0.3-2.4,0.4-3.2c0.1-0.8,0.1-1.4,0.1-1.7
		c0.1-1,0.1-2.2-0.1-3.5c-0.2-1.5-0.8-2.6-1.8-3.1c-0.9-0.5-2.2-0.5-3.6,0c-1.6,0.5-3.2,1.9-5.1,4s-3.5,4.7-5,7.7
		c-0.6,1.1-0.9,1.8-1.1,2.1c-0.1,0.2-0.3,0.4-0.4,0.4c-0.4,0.1-0.6-0.1-0.7-0.8l-0.1-0.4l0.1-1l0.1-1.4c0-0.3,0-0.8-0.1-1.5
		c-0.4-3-1.9-4-4.5-3.1c-1.6,0.6-3.4,2-5.4,4.2c-1.9,2.2-3.9,5-5.8,8.5c-0.6,1.2-1.1,1.9-1.2,2.1s-0.4,0.4-0.6,0.5
		c-0.4,0.1-0.6-0.1-0.6-0.5l0-0.3l0.1-0.7l0.8-7.4l-0.1-0.4c-0.1-0.8-0.7-1-1.7-0.6l-0.2,0.1l-5,2.5c-0.7,0.4-1.1,0.8-1.4,1.1
		s-0.4,0.9-0.5,1.5l-1,13c-0.2,0.6-0.5,1.4-0.9,2.1c-0.4,0.8-0.9,1.5-1.4,2.1c-0.5,0.5-0.9,0.9-1.3,1c-0.6,0.2-1-0.1-1.2-1.1
		c0-0.4,0-1,0.1-1.9c0.1-0.9,0.2-1.8,0.3-2.7l1.6-11.6l0-0.7c0-0.3,0-0.5,0-0.7c-0.1-0.4-0.1-0.6-0.3-0.6s-0.5-0.1-1.1,0.1l-0.9,0.3
		l-4,1.4c-0.6,0.4-1,0.6-1.1,0.8l-0.9,1c-0.3,0.3-0.6,0.6-0.9,0.6c-0.4,0.1-0.7,0.1-1,0l-1.4-0.2c-1.3-0.2-2.5-0.1-3.6,0.3
		c-1,0.4-2,0.9-3,1.7c-1,0.8-2,1.7-3,2.8c-1,1.1-1.9,2.3-2.6,3.6c-0.8,1.3-1.5,2.7-2,4c-1,2.6-1.4,5.1-1.3,7.4
		c-0.3,0.2-0.6,0.6-0.8,1.2c-0.2,0.4-0.4,0.7-0.4,1c-0.6,1.3-0.9,2.1-1.1,2.4c-0.6,1.2-1.6,2.4-2.8,3.5c-1.2,1.1-2.3,1.8-3.3,2.1
		c-1.1,0.4-2.1,0.2-2.9-0.5c-0.8-0.7-1.4-1.8-1.6-3.3c-0.2-1.2,0.1-2,0.9-2.3c0.1-0.1,0.3-0.1,0.5-0.1c0.2,0,0.4-0.1,0.8-0.1
		c0.7,0.1,1.5-0.1,2.4-0.4c1.3-0.4,2.4-1.1,3.6-2c1.1-0.9,2-1.9,2.8-3c0.8-1.1,1.3-2.3,1.7-3.5c0.4-1.2,0.5-2.4,0.3-3.6
		c-0.3-2-1.3-3.4-3.1-4.2c-1.8-0.8-3.8-0.9-6-0.1c-2,0.7-3.9,1.8-5.6,3.3c-1.7,1.5-3.2,3.2-4.3,5.1s-2.1,4-2.6,6.2
		c-0.2,0.9-0.4,1.8-0.5,2.7c-0.2,0.4-0.3,0.9-0.5,1.6c-0.2,0.9-0.5,1.9-0.9,2.9c-0.4,1-0.9,1.9-1.4,2.7c-0.5,0.8-1.1,1.5-1.7,2.1
		s-1.2,1-1.7,1.2c-0.8,0.3-1.3-0.2-1.3-1.6c0-0.7,0.1-1.7,0.2-2.9c0-0.1,0-0.4,0.1-0.8s0.2-1,0.3-1.7l0.2-1.3l0.1-0.6l4.3-19.6
		c0.2-0.1,0.3-0.2,0.5-0.3c0.5-0.2,1.4-0.5,2.5-0.9c0.4-0.1,0.8-0.2,1.4-0.4c0.4-0.2,1-0.5,1.6-0.8c3.4-1.6,6.1-3.6,8.1-5.8
		s2.9-4.4,2.6-6.3c-0.2-1.3-1.1-1.9-2.7-2.1c-1.6-0.1-5.5,0.8-7.7,1.8c-1.3,0.6-2.6,1.4-3.9,2.5c-1.3,1.1-2.5,2.1-3.5,3.2l-2,2.1
		c-0.8,0.9-1.5,1.5-1.9,1.7c-0.3,0.1-1.2,0.3-1.8,0.4c-1.3,0.2-3.1,0.6-4,0.8s-1.8,0.4-2.6,0.6c-0.8,0.2-1.7,0.4-2.6,0.6
		c-1.1,0.3-2.2,0.5-3.2,0.8s-1.9,0.6-2.8,0.9c-1.1,0.4-2.2,0.8-3.2,1.2c-1,0.4-2.2,0.9-3.4,1.4c-1.2,0.6-2.1,1-2.7,1.3
		c-0.6,0.3-0.9,0.6-1.1,0.8c-0.3,0.2-0.7,0.9-1.2,2l-3.7,8.7c-0.4,1-0.6,1.6-0.6,1.8c0,0.3,0.3,0.4,0.7,0.2c0.3-0.1,0.7-0.4,1-0.8
		c0.7-0.6,1.8-1.5,3.3-2.5c2.8-1.9,5-3.3,6.7-4.1l4.5-2.1l5.5-2.4l4.9-1.7c1.7-0.6,2.8-0.9,3.4-1l-5.3,23.3l-0.2,1.1
		c-0.1,0.8-0.2,1.4-0.3,1.9s-0.2,0.9-0.2,1.3c0,0.3-0.1,0.6-0.1,0.9s0,0.6,0,0.9c-0.1,0.4-0.1,0.7-0.1,1.1c0,0.3,0,0.7,0,1
		c0,1.4,0.3,2.4,0.9,2.9c0.5,0.5,1.3,0.6,2.4,0.2c0.7-0.2,1.6-0.7,2.5-1.4c1.6-1,2.9-2,3.9-3.1c1.1-1.1,2.4-2.6,4-4.7
		c1.2-1.5,2.1-2.8,2.7-3.9c0.6,2,1.7,3.4,3.3,4.3c2.1,1.1,4.6,1.1,7.7,0c2.2-0.8,4.3-2.1,6.2-3.8c1.9-1.7,3.4-3.7,4.5-5.9
		c0.2-0.4,0.4-0.8,0.5-1.2c0.4,1.4,1.1,2.6,1.9,3.4c1.2,1.2,2.7,1.5,4.3,0.9c1.1-0.4,2.4-1.4,4-3c1.5-1.6,2.8-3.4,3.9-5.4
		c0.3-0.5,0.6-0.7,0.8-0.8c0.4-0.1,0.6,0,0.6,0.4l0.1,1c0.2,1.4,0.7,2.3,1.6,2.8s1.9,0.5,3.1,0.1c1.5-0.5,3.2-1.8,5.1-3.7
		c1.3-1.3,2.5-2.8,3.6-4.4l-0.2,2.7l0.1,0.7c0.1,0.6,0.2,1,0.5,1.1c0.2,0.1,0.6,0.1,1.2-0.1l4.2-1.5c0.6-0.2,1.1-0.5,1.3-0.8
		s0.4-0.8,0.6-1.6l0.3-1.3c0.2-0.9,0.7-2.5,1.5-4.6c0.4-1.2,0.8-2.2,1.2-3.2c0.4-1,0.8-1.8,1.1-2.5c0.3-0.6,0.6-1.2,1-1.9
		c0.4-0.6,0.8-1.4,1.3-2.1c1.1-1.7,2-2.7,2.8-2.9c0.7-0.2,1.1,0,1.2,0.8c0.1,0.5,0.1,0.9,0.1,1.2c-0.1,0.3-0.1,0.5-0.1,0.6
		l-0.9,12.3c-0.1,0.5-0.1,0.8-0.1,0.9c0.1,0.8,0.8,0.9,1.9,0.5l5-1.8c0.7-0.2,1.2-0.5,1.4-0.9c0.2-0.3,0.4-1,0.6-2.1
		c0.4-1.7,0.7-3.2,1.1-4.6s0.8-2.6,1.2-3.8s1-2.4,1.7-3.6c0.6-1.2,1.4-2.6,2.3-4c1.1-1.8,2-2.8,2.8-3.1c0.6-0.2,1,0.1,1.1,1
		c0.1,0.4,0.1,0.8,0,1.5c0,0.6-0.2,1.8-0.4,3.6c-0.3,2.2-0.5,4-0.5,5.3c-0.1,1.3-0.1,2.3,0,2.8c0.2,1.2,0.6,2,1.5,2.5
		c0.8,0.5,1.8,0.5,3,0.1c1.1-0.4,2.3-1.2,3.8-2.5c1.4-1.3,2.8-2.8,4-4.5c1.1-1.4,1.9-2.8,2.6-4.1c0.7-1.3,1-2.3,0.9-2.8
		C206.5,177.2,206,176.6,205.2,176.9z M114.1,202.1c0.4-1.4,0.8-2.6,1.3-3.4c0.7-1.3,1.5-2.2,2.5-2.5c1-0.4,1.6,0.3,1.8,1.9
		c0.2,1.1-0.1,2.5-0.7,4.1c-0.6,1.6-1.4,3-2.4,4.1c-0.3,0.2-0.5,0.5-0.8,0.7c-0.3,0.2-0.6,0.4-1,0.6c-0.8,0.3-1.3,0-1.4-0.9
		C113.3,205.8,113.6,204.3,114.1,202.1z M104.3,185.1c0.5-0.5,1.4-1.3,2.8-2.2c1.6-1.1,2.9-1.9,4-2.4c1.2-0.6,2.2-0.9,3.1-0.9
		c0.9-0.1,1.4,0.2,1.4,0.7c0.1,0.5-0.4,1.2-1.4,2.1c-1,0.9-2.2,1.7-3.6,2.3c-0.9,0.4-1.8,0.8-2.7,1c-0.8,0.2-1.4,0.4-1.8,0.5
		c-0.4,0.1-0.7,0.2-0.7,0.2c-1,0.4-1.6,0.4-1.6,0C103.5,186,103.8,185.6,104.3,185.1z M143.4,193.3c0.1,0.4-0.1,1.2-0.4,2.5
		c-0.4,1.2-0.8,2.6-1.4,3.9c-1.5,3.4-3.1,5.3-4.6,5.9c-0.6,0.2-1.2,0.1-1.7-0.3s-0.8-1.1-0.9-2l0-0.3c-0.2-1.6-0.1-3.4,0.3-5.3
		c0.4-1.9,1.1-3.6,1.9-5.1c0.4-0.6,0.8-1.2,1.4-1.8c0.6-0.6,1.1-0.9,1.5-1.1c0.9-0.3,1.4,0.2,1.5,1.5l0.1,0.3
		c0.1,0.8,0.4,1.1,1.1,1.1c0.3,0,0.5,0,0.7,0c0.1,0,0.3,0,0.3,0c0.2,0.1,0.4,0.2,0.4,0.5L143.4,193.3z"/>
	<path d="M220.7,146.3c-0.5,0.1-0.9,0.4-1.3,0.9c-0.4,0.5-0.8,1.3-1.3,2.5c-0.4,0.9-1,1.8-1.7,2.8s-1.5,1.9-2.3,2.6
		c-0.8,0.7-1.4,1.1-1.9,1.2c-0.9,0.2-1.3-0.3-1.3-1.7c0-0.5,0.2-1.3,0.5-2.6c0.3-1.2,0.7-2.4,1-3.5l4.8-15.3l0.2-0.9
		c0.1-0.4,0.2-0.7,0.2-0.9c0-0.5-0.1-0.8-0.3-0.9c-0.2-0.1-0.7-0.2-1.5-0.1l-1.2,0.3l-5.6,1.3c-0.9,0.4-1.4,0.7-1.6,0.9l-1.4,1.2
		c-0.5,0.4-0.9,0.6-1.4,0.7c-0.5,0.1-0.9,0.1-1.3-0.1l-1.7-0.4c-1.6-0.4-3.3-0.5-4.8-0.1c-1.4,0.3-2.8,1-4.4,1.9s-3.1,2-4.6,3.3
		c-1.5,1.3-2.9,2.8-4.3,4.5c-1.4,1.7-2.6,3.4-3.6,5.1c-2.2,3.9-3.4,7.6-3.6,11.1c-0.1,0-0.1,0-0.2,0c-0.4,0.1-0.9,0.5-1.5,1.3
		c-2.4,3.5-4.4,5.9-6,7.2c-1.6,1.3-3.6,2.3-6,2.8c-3.8,0.9-5.6-0.8-5.4-5c0-0.6,0.1-1.3,0.4-2.3c0.2-1,0.5-2,0.8-3.1
		s0.7-2.2,1.1-3.3s0.8-2.1,1.2-3.1c1.4-2.9,2.7-5.1,4-6.9c1.3-1.8,2.6-2.8,3.8-3.1c0.8-0.2,1.4,0,2,0.6c0.5,0.6,0.8,1.4,0.7,2.4
		c0,0.8-0.2,1.6-0.5,2.7c-0.3,1.1-0.8,2.3-1.5,3.6c-0.3,0.9-0.5,1.4-0.5,1.5c0,0.8,0.4,1,1.1,0.9l0.9-0.2l4.3-1.7
		c2.1-0.8,3.2-2.5,3.2-5.1c0.1-1.5-0.2-2.9-0.7-4.1c-0.5-1.2-1.3-2.2-2.3-2.9s-2.2-1.2-3.6-1.5c-1.4-0.2-2.8-0.2-4.4,0.2
		c-2.6,0.6-5.1,1.8-7.6,3.6c-2.5,1.8-4.7,3.9-6.7,6.4s-3.5,5.1-4.7,8c-0.6,1.5-1.1,3-1.4,4.5l-0.2-0.2c-0.2-0.1-0.3-0.4-0.3-0.6
		c0-0.2,0-0.4,0.1-0.8c0.1-0.3,0.1-0.8,0.3-1.2c0.4-1.2,0.7-2.5,0.7-3.8c0.1-3.7-0.5-6.6-1.9-8.9c-1.4-2.3-3.1-3.2-5.2-2.7
		c-1,0.2-2,0.9-3.1,1.9c-0.8,0.9-1.3,1.3-1.4,1.4l-0.9,1.3c-0.5,0.8-1.4,1.5-2.7,2.1c-4.8,2.2-8.6,5.2-11.5,9
		c-2.9,3.8-4.4,7.8-4.6,11.9c0,1.1,0,2.2,0.2,3.2c-0.4,0.4-0.9,0.9-1.4,1.3c-1,0.9-2.1,1.7-3.3,2.3c-0.2,0.1-0.5,0.2-0.7,0.3
		c-0.3,0.1-0.6,0.2-0.9,0.3c-0.4,0.1-0.6,0.1-0.6,0.1l-0.7,0.1c-0.1,0-0.2,0-0.3,0c-0.1,0-0.2,0-0.3,0l-0.5,0c-0.1,0-0.2,0-0.3,0
		c-0.1,0-0.1,0-0.2-0.1l-0.1,0c-0.3-0.1-0.4-0.1-0.4-0.1l0,0l-0.1-0.1v-0.2l-0.2-0.2c0,0,0,0,0,0l0-0.5l0-0.2c0,0,0-0.1,0-0.3
		c0-0.3,0-0.5,0-0.8s0-0.5,0-0.8c0-0.3,0-0.6,0-0.9c0.1-0.6,0.2-1.3,0.2-2c0-0.7,0.1-1.4,0.1-2.1c0-0.4,0.1-0.8,0.1-1.2s0-0.8,0-1.2
		l0-1.1c0-0.4,0-0.8-0.1-1.2c0-0.8-0.1-1.7-0.2-2.5c-0.2-0.8-0.4-1.7-0.7-2.4c-0.1-0.2-0.1-0.4-0.2-0.7c-0.1-0.3-0.2-0.5-0.3-0.6
		l-0.5-1.1l-0.1-0.1c-0.3-0.4-0.6-0.8-0.8-1.2c-0.3-0.4-0.7-0.7-1-1c-0.2-0.2-0.4-0.4-0.6-0.5l-0.4-0.3c1.5-0.7,3.1-1.6,4.7-2.6
		c0.8-0.5,1.6-1,2.3-1.6c0.8-0.5,1.5-1.2,2.3-1.8c0.2-0.1,0.4-0.3,0.6-0.5c0.2-0.1,0.3-0.3,0.6-0.5l1.1-1.1c0.3-0.4,0.7-0.7,1-1.1
		c0.3-0.4,0.7-0.8,1-1.2c1.3-1.6,2.4-3.4,3.2-5.4c0.4-1,0.7-1.9,1-2.9c0.3-1,0.5-2,0.6-2.9c0.3-1.9,0.2-3.9-0.4-5.7
		c-0.5-1.7-1.3-3.3-2.4-4.6c-0.3-0.4-0.6-0.7-0.9-1c-0.3-0.3-0.6-0.5-1-0.8c-0.3-0.3-0.7-0.5-1-0.8c-0.3-0.2-0.7-0.5-1.1-0.7
		c-0.7-0.4-1.5-0.8-2.3-1c-0.8-0.3-1.5-0.5-2.3-0.7l-1.1-0.2c-0.4-0.1-0.8-0.1-1.2-0.2c-0.4-0.1-0.8-0.1-1.2-0.2
		c-0.4,0-0.8-0.1-1.2-0.1c-0.8-0.1-1.6-0.1-2.4-0.1c-0.8,0-1.6,0-2.3,0.1c-0.4,0-0.8,0-1.2,0.1c-0.4,0-0.7,0.1-1.1,0.1l-1.3,0.2
		c-0.4,0.1-0.8,0.1-1.2,0.2c-0.8,0.1-1.6,0.3-2.4,0.5c-0.7,0.2-1.5,0.3-2.3,0.5c-0.8,0.2-1.6,0.4-2.3,0.6c-0.8,0.2-1.5,0.4-2.3,0.7
		l-0.5,0.2l-0.5,0.1l-0.1,0.1c-0.2,0.1-0.3,0.1-0.5,0.2l-0.5,0.1l-0.1,0c-0.4,0.1-0.7,0.3-1.1,0.4c-0.4,0.1-0.8,0.3-1.2,0.4
		c-0.4,0.1-0.7,0.3-1.1,0.4c-0.4,0.1-0.8,0.3-1.2,0.4c-0.3,0.2-0.7,0.3-1,0.4c-0.4,0.1-0.8,0.3-1.2,0.5l-2.2,1
		c-0.7,0.3-1.5,0.7-2.2,1.1c-1.5,0.8-3,1.6-4.4,2.4c-1.4,0.9-2.8,1.9-4.1,2.9c-1.4,1.1-2.7,2.2-3.9,3.4c-0.7,0.7-1.3,1.3-1.8,1.9
		c-0.6,0.6-1.1,1.3-1.6,2c-0.5,0.7-1,1.4-1.5,2.1c-0.5,0.7-0.9,1.5-1.3,2.2c-0.8,1.5-1.6,3.1-2.1,4.7l0,0.1c0,0.2-0.1,0.4-0.1,0.5
		c0,0.1-0.1,0.3-0.2,0.5l0,0.1c0,0.2-0.1,0.4-0.1,0.6c0,0.1,0,0.2-0.1,0.4l0,0.1c-0.1,0.4-0.2,0.9-0.2,1.3c0,0.4,0,0.8-0.1,1.2
		c0,0.5-0.1,0.9,0,1.3c0,0.4,0.1,0.8,0.1,1.2c0,0.3,0.1,0.7,0.2,1.1c0,0.4,0.1,0.8,0.2,1.2c0.2,0.7,0.5,1.5,0.8,2.2
		c0.3,0.7,0.7,1.4,1.1,2.1c0.5,0.6,0.9,1.2,1.4,1.7c0.5,0.6,1.1,1.1,1.7,1.5c0.3,0.2,0.6,0.5,0.9,0.7c0.3,0.2,0.6,0.4,1,0.6
		c0.3,0.2,0.7,0.4,1,0.6c0.3,0.2,0.7,0.3,1.1,0.5c0.4,0.2,0.8,0.3,1.1,0.4s0.7,0.3,1.1,0.4c0.4,0.1,0.8,0.2,1.2,0.2
		c0.2,0.1,0.5,0.1,0.7,0.1l0.9,0.2l0.2,0c1.2,0,2.3-0.4,3.4-1.1c1-0.8,1.8-1.8,2.2-3c0.4-1.2,0.3-2.4-0.3-3.3
		c-0.6-1-1.6-1.5-2.8-1.6l-0.1,0l-0.4,0l-0.1-0.1l-0.2,0.1c0,0-0.1,0-0.1,0l-0.2,0c-0.1,0-0.3,0-0.6-0.1l-0.1,0
		c-0.2,0-0.5,0-0.7-0.1l-0.8-0.2c-0.5-0.1-1-0.3-1.4-0.5c-0.3-0.1-0.5-0.2-0.8-0.3c-0.2-0.1-0.4-0.1-0.5-0.3l-0.1-0.1
		c-0.4-0.2-0.8-0.4-1.2-0.7s-0.8-0.6-1.1-0.9c-0.4-0.4-0.7-0.8-1-1.1c-0.3-0.4-0.6-0.8-0.8-1.2c-0.1-0.2-0.2-0.5-0.3-0.7
		c-0.1-0.2-0.2-0.4-0.3-0.7c-0.1-0.3-0.2-0.5-0.2-0.8c-0.1-0.3-0.2-0.6-0.3-0.8c-0.1-0.5-0.2-1-0.2-1.5l0-0.9c0-0.1,0-0.3,0-0.4
		c0-0.2,0-0.3,0-0.5c0.2-1.2,0.5-2.4,1.1-3.7c0.5-1.2,1.2-2.4,2.1-3.6c0.2-0.3,0.5-0.6,0.7-0.9c0.2-0.3,0.5-0.6,0.6-0.8l0.8-0.8
		c0.3-0.3,0.5-0.6,0.8-0.8c1.2-1.1,2.3-2.1,3.5-3c1.2-0.9,2.4-1.8,3.8-2.5c1.3-0.8,2.7-1.5,4.1-2.2c1.4-0.6,2.8-1.2,4.1-1.7l2-0.7
		c0.4-0.1,0.8-0.2,1.1-0.3c0.3-0.1,0.7-0.2,1-0.3l3.3-0.9l0.2,0l0.8-0.2c0.7-0.1,1.4-0.2,2.1-0.3c0.7-0.1,1.4-0.2,2.1-0.2
		c0.7-0.1,1.4-0.2,2.1-0.2c0.4,0,0.9-0.1,1.3,0c0.2,0,0.4,0,0.7,0c0.4,0,0.7,0,1,0l0.2,0c0.2,0,0.5,0,0.8,0h0.2
		c0.6,0,1.2,0.1,1.7,0.1c1.3,0.1,2.4,0.3,3.4,0.7c0.3,0.1,0.6,0.2,0.9,0.3c0.2,0.1,0.4,0.1,0.6,0.2l0.2,0.1c0.3,0.1,0.5,0.2,0.7,0.3
		s0.4,0.2,0.6,0.4c0.8,0.5,1.6,1.1,2.3,1.8l0.1,0.1c0.2,0.2,0.5,0.5,0.6,0.8l0.1,0.1c0.1,0.1,0.2,0.3,0.3,0.5
		c0.1,0.2,0.2,0.4,0.3,0.6c0.2,0.4,0.3,0.7,0.4,1c0.1,0.4,0.2,0.8,0.3,1.2c0.1,0.4,0.2,0.8,0.2,1.2c0,0.3,0,0.7-0.1,1.2
		c-0.1,0.9-0.3,1.8-0.6,2.7c-0.3,1.1-0.8,2.1-1.2,3l-0.4,0.8c-0.1,0.2-0.3,0.5-0.4,0.6c-0.1,0.1-0.2,0.3-0.3,0.5
		c-0.1,0.1-0.1,0.2-0.2,0.3c-0.1,0.1-0.2,0.3-0.3,0.5c-0.1,0.1-0.1,0.2-0.2,0.3c-0.4,0.5-0.8,1.1-1.2,1.6c-0.4,0.5-0.9,1-1.4,1.5
		c-1,1-2.1,1.9-3.3,2.8c-0.6,0.5-1.2,0.9-1.8,1.3c-0.6,0.4-1.2,0.8-1.9,1.2c-1.6,0.9-3.2,1.7-4.8,2.4c-0.6,0.1-1.2,0.3-1.8,0.4
		c-0.6,0.2-1.2,0.4-1.8,0.6c-0.9,0.4-1.5,1.1-1.6,2.1l0,0.1v0.1c0,0.8,0.4,1.2,0.7,1.4c0.4,0.5,0.9,0.7,1.6,0.5
		c0.5-0.1,1.1-0.1,1.7-0.3c0.5-0.1,1.1-0.2,1.6-0.3l0.7,0c0.2,0,0.4,0.1,0.7,0c0.1,0,0.1,0,0.3,0c0.2,0,0.5,0.1,0.9,0.1
		c0.5,0.1,1,0.2,1.5,0.5l0.1,0c0,0,0.1,0.1,0.5,0.3c0.1,0.2,0.3,0.4,0.4,0.5c0.1,0.1,0.1,0.2,0.2,0.4l0,0c0,0.2,0.1,0.4,0.2,0.5
		c0.1,0.1,0.1,0.2,0.1,0.4c0,0.3,0.1,0.5,0.1,0.8l0,0.7c0,0.1-0.1,0.3-0.1,0.4v0.3c-0.1,0.6-0.2,1.2-0.3,1.8l-0.2,1.9
		c-0.1,0.4-0.2,0.8-0.2,1.2c0,0.3-0.1,0.6-0.1,0.9l0,0.1c-0.1,0.4-0.1,0.8-0.1,1.1c0,0.3-0.1,0.6-0.2,0.9l0,0.1
		c-0.1,0.7-0.2,1.5-0.2,2.3c0,0.8,0,1.6,0,2.4c0,0.9,0.1,1.8,0.3,2.7c0.1,0.5,0.2,0.9,0.3,1.4c0.1,0.4,0.3,0.9,0.5,1.5
		c0.1,0.2,0.2,0.5,0.4,0.7l0.4,0.7l0.1,0.1c0.4,0.5,0.8,0.9,1.2,1.2c0.5,0.4,1,0.8,1.6,1.1c0.5,0.2,1.1,0.5,1.8,0.6
		c0.5,0.1,1,0.1,1.4,0.2c0.1,0,0.3,0,0.4,0c0.6,0,1.2,0,1.7-0.1c0.3,0,0.6-0.1,0.9-0.1l0.7-0.2c0.3,0,0.6-0.1,0.8-0.2
		c0.2-0.1,0.4-0.1,0.6-0.2c0.3-0.1,0.6-0.2,0.8-0.3l0.3-0.1l0.3-0.2c0.3-0.1,0.5-0.1,0.8-0.2c0.2-0.1,0.5-0.2,0.8-0.3
		c0.5-0.2,1-0.5,1.5-0.7c0.4-0.2,0.9-0.5,1.4-0.7c0.5-0.3,0.9-0.6,1.3-0.9c0.4-0.3,0.9-0.6,1.3-1c0.8-0.7,1.5-1.4,2.2-2.1
		c0.1-0.1,0.1-0.1,0.2-0.2l0.2,0.4c2.3,2,5.2,2.5,8.9,1.7c2.6-0.6,5.1-2.1,7.8-4.4c2.6-2.4,5-5.2,7-8.6c0.5-0.8,0.9-1.3,1.1-1.4
		c0.2-0.2,0.6-0.5,1.4-0.8c0.3-0.2,0.6-0.4,0.9-0.5c0,0.1,0,0.1,0,0.2c-0.1,3.6,1,6.2,3.3,7.9c2.3,1.7,5.4,2.1,9.4,1.1
		c4.3-1,8.7-3.7,13-7.9c2.2-2.2,3.5-3.8,3.8-4.8l0.4-1.4c0.1,2.3,0.8,4.2,1.9,5.6c1.4,1.7,3.2,2.3,5.4,1.8c1.6-0.4,3.6-1.6,5.9-3.5
		c2.4-2,4.5-4.2,6.5-6.7c0.5-0.6,0.9-0.9,1.2-1c0.5-0.1,0.7,0.1,0.7,0.7l-0.1,1.4c-0.1,1.9,0.4,3.2,1.4,3.9c1,0.7,2.3,0.9,4,0.5
		c2.1-0.5,4.6-1.9,7.6-4.3c3-2.4,5.8-5.2,8.5-8.5c1.3-1.8,2-3.6,2.1-5.4C221.5,146.4,221.2,146.2,220.7,146.3z M139,170.2
		c-0.5,1.2-1.2,2.4-2,3.5c-1.4,1.9-2.9,3.1-4.5,3.6l-0.3,0.1c-1.4,0.3-2.4,0-3.2-1s-1.1-2.6-1-4.7c0.1-1.9,0.4-3.8,0.9-5.9
		c0.6-2.1,1.2-3.9,2.1-5.6c0.9-1.5,1.7-2.4,2.3-2.5c0.4-0.1,0.7,0,0.9,0.2c0.2,0.2,0.4,0.8,0.7,1.8c0.3,0.6,0.9,1.5,1.8,2.8
		c0.3,0.4,0.6,0.8,0.8,1.1c0.3,0.3,0.6,0.7,0.9,1.1c0.8,0.6,1.2,1,1.4,1.3s0.2,0.7,0.2,1.3C139.8,168,139.5,169,139,170.2z
		 M202.2,144.1c0,0.6-0.4,1.7-1.1,3.3s-1.7,3.3-2.8,5.1c-2.8,4.3-5.3,6.7-7.4,7.2c-0.9,0.2-1.6,0-2.2-0.7c-0.6-0.7-0.8-1.6-0.8-2.8
		l0-0.4c0.1-2.2,0.6-4.5,1.6-7c1-2.5,2.2-4.7,3.7-6.5c0.6-0.8,1.4-1.5,2.3-2.2c0.9-0.7,1.6-1.1,2.2-1.2c1.2-0.3,1.8,0.5,1.7,2.3
		l0,0.4c0,1,0.3,1.6,1.1,1.7c0.4,0,0.7,0,0.9,0.1c0.2,0.1,0.3,0.1,0.4,0c0.3,0.1,0.4,0.4,0.4,0.7L202.2,144.1z"/>
	<g>
		<path d="M86.5,148.9c0.2-0.8,0.3-1.6,0.6-2.4c0.2-0.8,0.4-1.6,0.7-2.4c0.2-0.7,0.4-1.4,0.8-2.1c0.6-1.5,1.4-2.8,2.3-4.1
			c0.2-0.3,0.4-0.6,0.7-1c0.3-0.3,0.6-0.7,0.9-1c0.3-0.3,0.6-0.7,1-1c0.3-0.3,0.7-0.7,1-1c0.5-0.4,0.8-1,0.8-1.7
			c0-1.2-0.8-1.6-1.5-1.6c-0.2,0-0.4,0-0.7,0.1c-0.5,0.1-1.1,0.3-1.6,0.5c-0.5,0.2-1,0.4-1.6,0.6c-1.1,0.5-2.2,1.1-3.1,1.9
			c-0.5,0.4-1.1,0.8-1.5,1.1c-0.5,0.4-1,0.9-1.4,1.3c-0.5,0.5-1,1-1.4,1.5l-0.6,0.7c-0.2,0.2-0.4,0.5-0.6,0.8l-1.1,1.5
			c-0.2,0.3-0.3,0.6-0.5,0.8l-0.4,0.6c-0.1,0.2-0.2,0.4-0.3,0.6c0,0.1,0,0.1-0.1,0.1l-0.1,0.1c-0.2,0.3-0.3,0.6-0.4,0.8
			c-0.1,0.2-0.2,0.4-0.3,0.6c0,0,0,0.1-0.1,0.1c-0.2,0.3-0.3,0.6-0.4,0.8c-0.9,1.9-1.6,3.9-2.3,5.9c-0.3,0.9-0.5,1.9-0.8,2.8
			c-0.2,0.9-0.5,1.9-0.7,2.8c-0.5,1.8-0.9,3.6-1.2,5.4l-1.6,7.9c-0.1,0.3-0.2,0.6-0.2,0.8c0,0.1-0.1,0.3-0.1,0.5l0,0.1
			c-0.1,0.2-0.1,0.5-0.1,0.7c0,0.1-0.1,0.3-0.1,0.5l0,0.1c-0.1,0.4-0.2,0.9-0.3,1.3c-0.1,0.4-0.2,0.9-0.3,1.3l-0.6,2.5
			c-0.2,0.8-0.5,1.7-0.7,2.5c-0.2,0.8-0.5,1.6-0.8,2.5c-0.1,0.4-0.3,0.8-0.4,1.2c-0.1,0.4-0.3,0.7-0.5,1.2c-0.1,0.2-0.2,0.4-0.2,0.6
			c-0.1,0.2-0.1,0.3-0.2,0.5c-0.1,0.2-0.2,0.4-0.3,0.5c-0.1,0.2-0.2,0.4-0.3,0.6c-0.2,0.4-0.4,0.7-0.5,1c-0.1,0.3-0.3,0.6-0.6,0.9
			c-0.1,0.1-0.2,0.2-0.2,0.4c-0.1,0.2-0.2,0.3-0.3,0.5l-0.5,0.6c-0.4,0.4-0.9,0.9-1.4,1.2c-0.1,0.1-0.2,0.1-0.3,0.2
			c-0.1,0.1-0.3,0.1-0.4,0.2l-0.2,0.1c-0.1,0-0.2,0.1-0.2,0.1l-0.9,0.3l-0.4,0.1c-0.4,0.1-0.6,0.1-0.7,0.1c-0.3,0-0.5,0-0.7,0
			c-0.3-0.1-0.4-0.1-0.4-0.1l-0.2-0.1c-0.4-0.1-0.7-0.3-0.9-0.7c-0.3-0.3-0.5-0.8-0.7-1.3c-0.1-0.6-0.2-1.3-0.2-2l0-0.1
			c0-0.1,0-0.2,0-0.3c0-0.2,0.1-0.3,0.1-0.4l0.1-0.2c0-0.3,0.1-0.6,0.3-1l0-0.1c0.2-0.3,0.2-0.6,0.1-0.8c0-0.2-0.2-0.6-0.7-0.9
			c-0.2-0.1-0.5-0.2-0.7-0.2c-0.3,0-0.9,0.1-1.3,0.6c-0.3,0.3-0.5,0.5-0.7,0.8c-0.2,0.2-0.3,0.5-0.4,0.7c-0.3,0.5-0.6,1.1-0.8,1.6
			c-0.2,0.6-0.4,1.2-0.5,1.8c-0.1,0.5-0.2,1.1-0.2,1.6c0,0.6,0,1.2,0,1.7c0.1,0.6,0.2,1.1,0.4,1.7c0.3,1.1,1,2.1,1.9,2.9
			c0.5,0.4,1,0.8,1.6,1.1l0.1,0c0.6,0.2,1.2,0.4,1.7,0.5c0.5,0.1,1,0.2,1.5,0.2c0.2,0,0.3,0,0.5,0c0.4,0,0.7,0,1-0.1
			c0.3,0,0.6-0.1,0.9-0.1l0.5-0.1c0.2,0,0.3,0,0.5-0.1l1-0.3l0.1,0c0.3-0.1,0.6-0.2,0.9-0.3c0.3-0.1,0.7-0.3,1-0.4
			c1.3-0.6,2.5-1.4,3.7-2.4c0.3-0.2,0.5-0.5,0.8-0.7c0.3-0.2,0.5-0.5,0.8-0.8c0.2-0.3,0.4-0.5,0.6-0.7c0.2-0.2,0.5-0.5,0.7-0.8
			l0.6-0.8c0.2-0.2,0.4-0.5,0.6-0.8l0.5-0.8c0.2-0.2,0.3-0.5,0.5-0.8l0.1-0.1c0.1-0.2,0.3-0.5,0.4-0.7c0.2-0.3,0.3-0.5,0.5-0.8
			c0.1-0.2,0.3-0.5,0.4-0.7c0.1-0.2,0.3-0.5,0.4-0.8c0.2-0.5,0.4-1,0.7-1.4c0.2-0.5,0.5-1,0.7-1.4c0.2-0.5,0.5-1,0.7-1.5
			c0.2-0.5,0.4-1,0.6-1.5l1-2.8c0.2-0.5,0.3-1,0.5-1.5c0.1-0.4,0.3-0.9,0.5-1.4l0.8-2.7c0.1-0.3,0.2-0.6,0.2-0.9l0.1-0.6
			c0.1-0.3,0.2-0.5,0.2-0.8c0-0.2,0.1-0.4,0.2-0.6l0.4-1.5c0.1-0.3,0.2-0.6,0.2-0.8c0-0.1,0.1-0.3,0.1-0.5l1.2-5.6
			c0.2-0.9,0.3-1.8,0.5-2.7c0.2-0.9,0.3-1.7,0.5-2.6l1-5.2C86.2,150.5,86.3,149.7,86.5,148.9z"/>
	</g>
	<path fill="#FFFFFF" d="M122.2,120.2c-4.7,1.5-4.8,1.8-0.7,4.5c-4.4-2.3-4.6-2.1-3.6,2.7c-1.5-4.7-1.8-4.7-4.5-0.6
		c2.3-4.4,2.1-4.6-2.7-3.6c4.7-1.5,4.8-1.8,0.6-4.5c4.4,2.3,4.6,2.1,3.6-2.7c1.5,4.7,1.8,4.8,4.5,0.6
		C117.2,121,117.4,121.2,122.2,120.2z"/>
	<path fill="#FFFFFF" d="M214.8,176.5c-4.7,1.5-4.8,1.8-0.6,4.5c-4.4-2.3-4.6-2.1-3.6,2.7c-1.5-4.7-1.8-4.7-4.5-0.6
		c2.3-4.4,2.1-4.6-2.7-3.6c4.7-1.5,4.8-1.8,0.6-4.5c4.4,2.3,4.6,2.1,3.6-2.7c1.5,4.7,1.8,4.8,4.5,0.6
		C209.8,177.2,210,177.4,214.8,176.5z"/>
</g>
</svg>
