<?xml version="1.0" encoding="utf-8"?>
<!-- Generator: Adobe Illustrator 24.0.1, SVG Export Plug-In . SVG Version: 6.00 Build 0)  -->
<svg version="1.1" id="Calque_1" xmlns="http://www.w3.org/2000/svg" xmlns:xlink="http://www.w3.org/1999/xlink" x="0px" y="0px"
	 viewBox="0 0 715.2 551.5" enable-background="new 0 0 715.2 551.5" xml:space="preserve">
<g>
	<path fill="#22793B" stroke="#000000" stroke-width="2" stroke-miterlimit="10" d="M573.4,144.9c-4.1,1.6-8.3,2.8-12.7,3.4
		c-7.5,1-15,0.7-22.4-0.9c-2-0.4-3.7-0.3-5.5,0.4c-7.6,2.8-15.3,3.8-23.3,1.8c-3.1-0.8-6-2-8.9-4.1c3-1.2,6.6-0.5,8.7-3.4
		c-0.5-1.3-1.6-1.4-2.6-1.6c-3.5-0.7-7-0.1-10.4,0.7c-5,1.2-10,2.6-15.1,3.8c-4.1,1-8.2,1.6-12.4,1.3c-8.1-0.6-14.4-4.5-19.2-10.9
		c-0.2-0.2-0.3-0.6-0.5-1.1c2.8,0.4,5.5,0.8,8.1,1c3.7,0.2,7.3,0.3,11,0.3c2,0,3.9-0.4,5.9-2.3c-9.9,1.1-18.7-1-27.4-4.9
		c2.2-0.8,4-1.5,5.9-2.2c0-0.2-0.1-0.4-0.1-0.5c-0.8,0-1.7,0-2.5,0c-5.1,0-10.2,0.1-15.3-0.1c-7.3-0.3-14.5-1.3-21.4-3.8
		c-3-1.1-5.9-2.4-8.7-4.6c1.2,0,2.2,0,3.1,0c6.3,0.3,12.4-0.7,18.2-3.5c1.4-0.7,2.7-1.7,3.8-2.8c4.6-4.5,10.1-7.2,16.3-8.7
		c3.2-0.8,6.6-1.1,9.9-1.6c1.2-0.2,2.4-0.2,3.2-1.5c-0.9-1.6-2.5-1.9-4-2.3c-4.7-1-9.4-0.7-14,0.7c-3.2,1-6,2.5-8.6,4.7
		c-0.5,0.4-1,0.7-1.5,1c3.7-9.3,9.3-16.3,20-18c10.1-1.6,20.2-1.5,30.4-1.1c1.8,0.1,3.7,0.5,5.5,0.5c1.4,0,2.9-0.3,4.1-0.9
		c1.6-0.7,2.2-2.4,1.8-4.3c-0.4-1.6-1.4-2.6-3.2-2.7c-1-0.1-2.1,0.1-3.1,0.2c-0.6,0.1-1.2,0.3-1.8,0.5c-0.5,0.2-1,0.3-1.9,0.6
		c0.4-0.8,0.6-1.3,0.9-1.8c5.6-8.6,13.6-13.3,23.9-14c3.4-0.2,6.8,0.2,10.3,0.5c1.2,0.1,2.1,0,3.1-0.7c10.2-6.4,21.3-8.5,33.1-6.3
		c1.4,0.3,2.3,0,3.3-0.9c0.5-0.5,1.1-1,1.5-1.5c5-5.8,11.4-8.8,18.7-10.3c6.8-1.4,13.8-1.9,20.7-2c1.3,0,2.7-0.3,3.9-0.8
		c8.7-3.4,17.5-6,26.8-7.2c13-1.6,25.6-0.5,37.4,5.4c16,8,25.7,21.1,29.2,38.5c6.5,32.6-13.8,63.7-46.2,71.5
		c-12,2.9-24.1,2.7-36.1,0.3c-2.5-0.5-4.9-0.2-7.3,0.3c-2.8,0.6-5.6,1.3-8.4,1.7c-7.3,1-14.1-0.7-20.5-4.2
		C575.6,146.2,574.5,145.6,573.4,144.9z M667.9,82.9c-0.9-0.2-1.6-0.5-2.4-0.6c-8.5-1-17-1.6-25.6-1.3c-11,0.3-22,1.5-32.7,4.1
		c-6.3,1.6-12.4,3.6-18.5,5.6c-1.9,0.6-1.9,0.8-1.8,2.8c0.1,1.1,0.2,2.2,0.4,3.3c1.1,9.9,5,18.6,11.5,26.1c1.2,1.4,2.6,2,4.4,2.1
		c4.2,0.4,8.1-0.5,11.8-2.3c4.6-2.3,8.7-5.3,12.8-8.4c5.9-4.5,11.7-9.2,17.8-13.4c3.4-2.4,7.3-4.3,11.1-6.1c2.7-1.3,5.6-1.9,8.5-2.1
		c2.3-0.1,2.6-0.4,2.7-2.5C668,87.9,667.9,85.5,667.9,82.9z M587.3,87.8c26.3-9.6,53-12,80.7-8.3c-0.5-3-1-5.5-1.4-8.1
		c-0.2-1.4-1.1-1.9-2.3-2c-5.3-0.4-10.1-2.3-14.7-4.6c-4.6-2.3-9.2-4.8-13.8-7.2c-4-2.1-8.2-4-12.6-5.3c-5.3-1.5-10.6-1.7-15.8,0.2
		c-1.3,0.5-2.7,1.2-3.7,2.1c-9.1,7.8-14.5,17.7-16.4,29.5C587.2,85.1,587.3,86.2,587.3,87.8z M605.1,128.5c0.3,0.5,0.4,0.8,0.6,0.9
		c0.5,0.5,1.1,0.9,1.7,1.3c9,6.3,19,9.1,30,8.8c3.7-0.1,6.9-1.2,9.6-3.7c1.8-1.6,3.5-3.3,5-5.2c7.1-8.9,11.6-19,14.3-30
		c0.4-1.5,0.6-3,1-4.8c-0.9,0-1.4,0-1.9,0c-4.5,0.4-8.7,2.1-12.6,4.3c-5.9,3.3-11.1,7.5-16.4,11.6c-4.5,3.5-9.1,7-13.8,10.4
		c-4,2.8-8.4,5-13.2,6C607.9,128.2,606.6,128.3,605.1,128.5z M665,66.2c-0.1-0.5-0.1-0.7-0.2-1c-2.5-7-6.5-13.2-11.7-18.4
		c-0.7-0.7-1.8-1.3-2.9-1.6C639,41.6,627.9,42,617,46.4c-0.8,0.3-1.5,0.7-2.4,1.2c3.3,0.6,6.3,0.9,9.2,1.6
		c6.3,1.5,11.8,4.7,17.5,7.6c5,2.6,10.1,5.1,15.3,7.5C659.1,65.4,661.9,66.1,665,66.2z M670.2,96.2c-1.5,7.5-3.6,14.8-6.9,21.6
		c-3.3,6.9-7.4,13.3-12.7,19c0.4,0,0.7,0,1-0.1c9.3-3.4,16.8-9.1,22.7-17c2.3-3.1,3.7-6.3,3.7-10.1c0-3.1-0.3-6.2-1.8-9.1
		C675,98.3,673.2,96.7,670.2,96.2z M681,105.3c2.3-5.6,2.8-11.3,2.4-17.2c0-0.6-0.6-1.4-1.1-1.6c-3.4-1.6-7-2.5-10.9-3.1
		c-0.2,2.5-0.4,4.9-0.6,7.3c-0.1,2-0.1,2,1.8,2.8c4.1,1.5,6.4,4.6,7.7,8.6C680.6,103.1,680.7,104.2,681,105.3z M669.6,69.8
		c0.4,3,0.8,5.8,1.2,8.7c0.2,1.2,0.8,1.7,2,2c2.8,0.6,5.5,1.4,8.3,2.2c0.5,0.1,1,0.2,1.7,0.4c-1-5.6-2.7-10.7-5.4-15.3
		C674.6,68.4,672.2,69.1,669.6,69.8z M668.6,66.5c2.4-0.5,4.8-0.2,6.8-1.9c-2.9-5.3-11.6-13.6-15.1-14.1
		C664,55.4,666.5,60.7,668.6,66.5z"/>
	<path fill="#22793B" d="M367.3,461.5c-0.3,3.6-0.6,6.8-1,10.1c-1.1,8.9-2.9,17.6-6.2,26c-2.9,7.4-6.9,14.2-12.7,19.8
		c-3.2,3.2-6.9,5.6-11.1,7.5c-2.3,1-4.5,1.3-7,1c-22.9-2.7-45.1-8.1-66.4-16.9c-58.5-24.4-102.1-64.9-130.9-121.3
		c-0.4-0.7-0.7-1.4-1.1-2.4c2.7-0.5,5.1-1,7.6-1.4c3.5-0.6,7.1-1.2,10.6-1.8c1.2-0.2,2.1,0,3.1,0.7c43.7,33.2,92.9,54.9,145.9,68.2
		c12.8,3.2,25.7,5.8,38.8,7.5c8.6,1.1,17.3,1.8,26,2.6C364.3,461.2,365.6,461.3,367.3,461.5z"/>
	<path fill="#22793B" d="M287.3,34.2c22.4,22.8,43,46.9,61.7,73c-66.7,15.1-131.2,36-193.1,64.8c-0.5-0.6-0.9-1.1-1.2-1.6
		c-3.3-4.9-6.5-9.9-8.5-15.5c-1.1-3-1.6-6.1-2.5-9.2c-0.5-1.8,0.1-3.2,1-4.7c7-10.9,14.8-21.3,23.4-31c31.9-35.8,70.6-61,116.5-75.1
		C285.5,34.7,286.3,34.5,287.3,34.2z"/>
	<path d="M706.8,245.3c-7.6-1.7-15.2-3.6-22.8-5.2c-21.4-4.5-42.8-9.1-64.3-13.3c-18.6-3.6-37.2-6.9-55.9-9.9
		c-16.8-2.7-33.6-5.1-50.5-7.4c-14-1.9-28-3.6-42.1-5.1c-15.5-1.6-31-2.9-46.6-4.1c-28.3-2.2-56.7-3-85.1-2.3
		c-13.5,0.3-27,1-40.5,1.8c-11.6,0.7-23.1,1.5-34.7,2.6c-13,1.2-25.9,2.6-38.8,4.1c-14,1.7-27.9,3.5-41.8,5.4
		c-12.7,1.8-25.4,3.8-38.1,5.9c-15.8,2.7-31.6,5.5-47.4,8.4C69,231.8,40,237.9,11.1,244.8c-0.8,0.2-1.5,0.3-2.6,0.6
		c0.6-1.4,1.7-2.1,2.4-3.1c2.4-3.6,5.9-5.3,10.1-6.4c30.6-8.2,61.4-15.2,92.5-21c18.9-3.5,37.9-6.8,56.9-9.8
		c14.7-2.3,29.4-4.2,44.2-6c11.9-1.5,23.8-2.6,35.7-3.8c1.3-0.1,2.2-0.7,3.1-1.5c7.4-6.6,14.7-13.2,22.1-19.9c1.2-1.1,2.4-1.7,4-1.9
		c10.5-1.5,21-3.1,31.5-4.5c14.1-1.8,28.3-2.8,42.5-3c12.2-0.2,24.4,0.4,36.6,1.5c13.4,1.2,26.7,2.9,39.9,5c1.4,0.2,2.8,0.7,4.2,0.7
		c3.1,0.1,5.3,1.7,7.5,3.7c6.7,6.2,13.5,12.2,20.3,18.3c1.1,1,2.3,1.5,3.8,1.7c10.2,1,20.4,2,30.5,3.2c10.6,1.2,21.3,2.6,31.9,4.1
		c11.8,1.7,23.6,3.4,35.3,5.4c17.1,3,34.3,6.1,51.4,9.4c28.1,5.6,56,12.1,83.7,19.7c1.5,0.4,2.6,1.1,3.5,2.2c1.6,2,3.3,3.8,5,5.8
		C707,245.1,706.9,245.2,706.8,245.3z M356.3,175.2c1.2,0.1,2.3,0.2,3.5,0.3c1,2.1,2.7,0.9,4.1,1.1c0.4-2.8-0.5-4.2-3-4.5
		c-1.7-0.2-3.3-0.2-5-0.1c-2,0.1-3.5,1.2-3.8,2.7c-0.6,2.6,0,4.6,1.8,5.7c1.6,1,3.2,1.8,4.8,2.8c1.7,1,1.7,1,1.1,3.3
		c-1.3-0.3-3,0.9-3.9-1.1c-0.1-0.2-0.6-0.2-0.9-0.2c-0.9,0-1.9,0-2.8,0c-0.1,3,1,4.4,3.5,4.7c1.5,0.1,3,0.1,4.5,0
		c2-0.1,3.4-1.3,3.8-2.8c0.6-2.7,0-4.5-1.8-5.7c-1.6-1-3.1-1.9-4.7-2.8C356.3,177.8,355.7,177.1,356.3,175.2z M375.6,189.8
		c0.1-2.5,0.2-4.8,0.4-7.2c2,0,3.6,0,5.3,0c0-1.1,0-2,0-3.1c-1.8-0.1-3.4-0.2-5.1-0.3c0-1.3,0-2.4,0-3.7c2.1,0,4.1,0,6.2,0
		c0-1.1,0-2.1,0-3.3c-3.5,0-6.9,0-10.4,0c-0.2,5.9-0.4,11.7-0.3,17.5c0.9,0,1.5,0.1,2.1,0.1C374.4,189.9,374.9,189.9,375.6,189.8z
		 M340.6,186.4c-2.2,0.6-2.2,0.6-3.9-0.6c-0.3-0.2-0.7-0.3-1.1-0.3c-0.9,0-1.7,0.1-2.6,0.1c-0.1,2.9,1,4.3,3.6,4.5
		c1.3,0.1,2.7,0,4.1-0.1c2.7-0.2,3.9-1.5,3.8-4.2c-0.1-3.7-0.1-7.5-0.2-11.2c0-0.8-0.1-1.5-0.2-2.2c-1.5,0-2.7,0-4.1,0
		C340.2,177.2,340.4,181.8,340.6,186.4z"/>
	<path d="M706.8,405.2c-6.4-1.5-12.7-3.1-19.1-4.4c-22.8-4.8-45.6-9.7-68.5-14.2c-18.6-3.6-37.2-6.8-55.9-9.9
		c-15.7-2.6-31.4-4.8-47.2-6.9c-13.8-1.9-27.6-3.5-41.4-5.1c-4.4-0.5-8.9-0.9-13.3-1.4c-1.2-0.1-2,0.3-2.9,0.9
		c-6.2,4.4-12.4,8.7-18.7,13c-0.9,0.7-2.1,1.1-3.3,1.3c-12.5,2.3-25.1,4-37.7,5.3c-15.7,1.7-31.4,2.6-47.1,2.3
		c-11.7-0.2-23.3-1.1-34.9-2.3c-12.7-1.3-25.4-3-38-5.3c-1.1-0.2-2.3-0.7-3.2-1.4c-5.9-4.2-11.8-8.5-17.6-12.9
		c-1.2-0.9-2.3-1.1-3.8-1c-11.3,1.3-22.6,2.4-33.8,3.8c-12.6,1.6-25.2,3.2-37.8,5.1c-13.6,2-27.2,4.1-40.7,6.3
		c-15.9,2.7-31.8,5.4-47.6,8.5c-21.9,4.3-43.6,9-65.4,13.6c-6.5,1.4-12.9,3-19.4,4.5c-0.3,0.1-0.6,0.1-1.5,0.3
		c1.6-1.8,2.9-3.1,4-4.6c1.8-2.5,4.1-3.7,7-4.5c24.1-6.5,48.3-12.3,72.7-17.3c19.3-3.9,38.7-7.6,58.1-10.9
		c15.3-2.6,30.8-4.8,46.2-6.9c12.7-1.7,25.4-3.2,38.1-4.6c11.2-1.2,22.4-2.2,33.7-3c14.1-1,28.2-2,42.3-2.7
		c21.7-1,43.5-1.5,65.2-0.9c12.4,0.3,24.8,0.7,37.1,1.2c11.3,0.5,22.5,1.3,33.7,2.2c9.8,0.7,19.6,1.6,29.4,2.6
		c10.6,1.1,21.3,2.3,31.9,3.6c9.7,1.2,19.5,2.5,29.2,4c12.6,1.9,25.1,3.7,37.6,6c18.7,3.4,37.4,7,56,10.8
		c22.8,4.7,45.3,10.2,67.7,16.3c1.8,0.5,3.2,1.3,4.3,2.7c1.5,1.9,3.1,3.6,4.7,5.4C707,404.9,706.9,405,706.8,405.2z M339.3,373.1
		c-0.4,2.8,0.6,4.3,3.2,4.7c1.7,0.2,3.5,0.2,5.3,0.1c2.2-0.2,3.4-1.6,3.5-3.8c0.1-3.3,0.2-6.5,0.2-9.8c0-2.6-1.2-4-3.8-4.2
		c-1.3-0.1-2.7-0.1-4.1-0.1c-0.6,0-1.3,0.1-1.9,0.3c-1.7,0.6-2.6,1.8-2.5,3.7c0.1,2.2-0.9,4.8,1.9,6.1c0.9,0.4,2,0.5,3,0.6
		c1,0.1,2,0.1,3,0.2c0,1.4,0,2.5,0,3.7c-1.6-0.3-3.4,1-4.4-1.2c-0.1-0.1-0.4-0.2-0.7-0.2C341.1,373,340.2,373.1,339.3,373.1z
		 M367,367.4c-0.9,0-1.5,0-2.1,0c-0.6,0-1.3,0-1.9,0c-2,0.1-3.6,1.1-3.8,2.7c-0.4,2.6-0.3,5.2-0.1,7.7c4.2,0,8.2,0,12.2,0
		c0-1.1,0-2,0-3.2c-2.7,0-5.3,0-8,0c0-1.4,0-2.6,0-3.9c1.4,0,2.7,0.1,3.9,0c2.7-0.1,4-1.6,4.1-4.3c0-0.9,0-1.8,0-2.6
		c-0.1-1.9-1.3-3.4-3.2-3.6c-2-0.2-4-0.2-6,0c-2.2,0.3-3.2,2-2.7,4.6c1.1-0.1,2.8,0.3,3.3-0.4c1.4-1.7,2.8-0.8,4.3-0.9
		C367,364.9,367,366,367,367.4z M381.8,377.6c1.6,0,2.8,0,4.2,0c1.6-5.2,3.3-10.2,4.8-15.3c0.4-1.4-0.7-2.6-2.3-2.6
		c-2.1,0-4.2,0.1-6.2,0.1c-1.2,0-2.3,0.1-3.7,0.2c0.1,1.7,0.1,3.1,0.2,4.7c1.4-0.1,2.6-0.2,3.8-0.3c0.8-2.2,2.5-0.9,4-1.2
		C385,368,383.4,372.7,381.8,377.6z M331,377.3c0.2-5.9,0.5-11.7,0.7-17.5c-1.9-0.5-3.5-0.4-5.2,0.6c0.1,1-0.2,2.3,0.4,2.9
		c0.7,0.8,0.6,1.6,0.6,2.4c-0.1,3.3-0.3,6.5-0.4,9.8c0,0.6,0.1,1.2,0.2,1.9C328.5,377.3,329.6,377.3,331,377.3z"/>
	<path fill="#22793B" d="M493.7,63.5c-8.4,4-12.9,11-17,18.4c-4.8,0-9.4,0-14.1,0c-5.2,0-10.3,0.8-15.4,1.9c-4.8,1-8.8,3.2-12.1,6.8
		c-0.8,0.9-1.6,1.3-2.8,1.5c-16.4,2.6-32.8,5.3-49.1,8.1c-5.2,0.9-10.3,1.9-15.5,3.1c-1.6,0.4-2.6,0.1-3.6-1.3
		c-16.9-24.2-35.7-46.9-56-68.4c-1.1-1.2-2.2-2.3-3.6-3.8c27.9-6,55.5-7.3,83.4-4.1C425.9,30.1,461.1,42.6,493.7,63.5z"/>
	<path fill="#22793B" d="M389.2,140.7c0.7-0.2,1.2-0.4,1.7-0.5c7.3-0.9,14.6-1.7,21.9-2.5c7.2-0.8,14.4-1.5,21.7-2.2
		c3-0.3,6.1-0.4,9.1-0.7c1.4-0.2,2.3,0.3,3.1,1.5c4.3,6.2,10.3,10.2,17.7,11.8c4.9,1.1,9.9,0.5,14.7-0.5c4.2-0.9,8.4-2,12.5-3.2
		c1.1-0.3,2-0.3,2.9,0.4c1.4,1,2.9,1.9,4.4,2.9c5.8,3.8,12.2,5.3,19.1,5.1c5.2-0.2,10.3-1.2,15.2-3.1c1.1-0.4,2.1-0.5,3.3-0.2
		c11.6,2.5,23.1,2.4,34.5-1.7c1.5-0.5,4.2,0.6,5.3,2.2c0.3,0.5,0.6,1,0.8,1.4c6.6,11.7,12.3,23.8,17,36.4c0.6,1.6,0.7,3,0.4,4.7
		c-0.8,4.2-1.4,8.5-2.2,12.7c-0.1,0.9-0.4,1.7-0.7,2.8c-1.4-0.2-2.8-0.4-4.2-0.6c-14.3-2.5-28.6-5.2-42.9-7.6
		c-13.1-2.2-26.3-4.2-39.5-6.1c-9.4-1.3-18.8-2.4-28.3-3.5c-4.2-0.5-8.4-0.9-12.6-1.5c-0.9-0.1-1.9-0.8-2.6-1.4
		c-6.3-5.6-12.6-11.3-18.9-17c-1.6-1.5-3.4-2.3-5.5-2.6c-10.6-1.5-21.1-3.2-31.7-4.6c-5.1-0.7-3.8,0-6.2-4.3
		c-3-5.3-5.9-10.6-8.8-15.9C390,142.2,389.6,141.5,389.2,140.7z"/>
	<path fill="#22793B" d="M173.1,378.2c3.5-0.5,7.1-1.1,10.6-1.6c7.5-1.1,15-2.2,22.5-3.2c6.8-0.9,13.6-1.7,20.4-2.6
		c6.2-0.8,12.4-1.5,18.5-2.2c3.1-0.4,6.2-0.7,9.3-0.9c0.8-0.1,1.7,0.4,2.3,0.9c4.7,3.4,9.4,6.6,13.9,10.2c3.2,2.5,6.6,4,10.6,4.5
		c11.7,1.5,23.4,3.4,35.1,4.7c8.9,1,17.8,1.4,26.7,2.1c1,0.1,1.8,0.3,2.4,1.2c8.5,13.3,15.8,27.2,19.7,42.7c1,3.9,1.7,7.8,2,12
		c-1,0-1.8,0.1-2.7,0c-16.1-1.1-32.1-3.3-47.9-6.5c-33.4-6.8-65.4-17.8-96.1-32.7c-15.8-7.7-31.1-16.4-45.6-26.4
		c-0.7-0.5-1.4-1-2.1-1.5C172.9,378.6,173,378.4,173.1,378.2z"/>
	<path d="M135.3,182.6c2.4-1.1,4.8-2.2,7.2-3.3c42.9-20.5,87.2-37.1,132.7-50.8c34.7-10.5,69.9-19.1,105.6-25.8
		c16.3-3,32.8-5.5,49.1-8.2c0.6-0.1,1.3-0.1,2.1-0.1c-1.1,2-2.1,3.8-3,5.6c-0.8,1.5-1.5,3-2.1,4.6c-0.5,1.3-1.4,1.7-2.7,1.9
		c-16.6,2.8-33.3,5.5-49.8,8.7c-36.1,7.1-71.8,16.2-106.9,27.2c-43.7,13.7-86.4,30.1-127.5,50.4c-2.4,1.2-4.8,2.4-7.3,3.7
		c-0.2,0.1-0.4,0.3-0.5,0.6c0.6-0.2,1.2-0.3,1.7-0.6c48.8-21.4,99.4-37.5,151.3-49.8c25.3-6,50.9-11.2,76.6-15.1
		c16.3-2.5,32.6-4.5,48.9-6.7c1.9-0.3,3.8-0.2,5.7,0.3c6.7,1.8,13.5,2.5,20.4,2.6c2.1,0,3.9,0.4,5.7,1.4c1.8,0.9,3.6,1.8,5.3,3
		c-0.5-0.1-0.9-0.2-1.4-0.2c-1-0.1-2.1-0.7-2.9,0.6c-0.2,0.3-0.9,0.2-1.4,0.3c-10.2,1-20.4,1.9-30.5,3.1
		c-10.6,1.2-21.3,2.6-31.8,4.2c-12.9,1.9-25.7,4-38.5,6.3c-24.5,4.3-48.7,9.7-72.7,15.9c-37.8,9.8-75,21.7-111.2,36.4
		c-4.1,1.7-8.1,3.3-12.2,5.1c-2.5,1.1-5,1.9-7.7,2.4c-7.8,1.4-15.5,2.9-23.5,4.4c0.1-0.8,0.2-1.5,0.4-2.1c1.7-5.3,3.4-10.5,5-15.7
		c0.5-1.5,1.3-2.5,2.6-3.2c1.2-0.5,2.4-1.1,3.6-1.6c1.2-0.7,2.4-1.4,3.7-2.2C131.3,184.6,133.3,183.6,135.3,182.6z"/>
	<path d="M589.5,385.6c3.1,0.6,6.3,1.1,9.9,1.8c-9.9,21.3-22.3,40.6-37.1,58.4c-14.9,17.8-31.8,33.4-50.8,46.8
		c-19,13.4-39.3,24.1-61.1,32.1c-21.8,8-44.2,13.2-67.3,15.2c-124.6,11-224.6-62.9-265.3-152.5c3.3-0.6,6.4-1.2,9.7-1.8
		c29.9,59.7,75.1,103.2,137.4,127.7c62.1,24.4,125,24.4,187.1,0.1C514.2,488.9,559.5,445.5,589.5,385.6z"/>
	<path d="M513.5,60.4c-2.7,0-5.2-0.1-7.7,0c-1.7,0.1-3.4,0.3-5,0.8c-1.5,0.4-2.7,0.2-4-0.7c-19.3-12.5-39.9-22.1-61.8-29
		c-15.5-4.9-31.3-8.2-47.5-10c-14.7-1.7-29.5-2.1-44.3-1.2C293,23.4,247.4,39.6,207,69.6c-47.7,35.3-79.5,81.8-95.4,139
		c-0.5,1.9-1.3,2.8-3.3,3c-2.6,0.3-5.1,1-8.2,1.6c7-28.8,18.2-55.3,33.9-79.9c15.6-24.6,34.8-46.1,57.5-64.5
		c22.7-18.4,47.8-32.6,75.3-42.7c33.9-12.5,68.9-17.6,105-15.9c37.7,1.9,73.4,11.4,107.1,28.5C489.8,44.2,510.9,57,513.5,60.4z"/>
	<path fill="#22793B" d="M167.8,277.4c0,21.9,0,43.7,0,65.9c-5.3,0.8-10.4,1.6-15.6,2.4c0-38.5,0-76.7,0-115.3
		c5.7-0.9,11.4-1.7,17.3-2.6c7.5,20.9,14.1,41.9,22.3,62.3c0.9-10.8,0.5-21.7,0.6-32.5c0.1-10.9,0-21.7,0-32.9
		c5.3-0.6,10.4-1.2,15.6-1.8c0,38.6,0,76.8,0,115.1c-0.4,0.1-0.7,0.3-1,0.4c-5.4,0.6-10.8,1.3-16.3,1.9c-0.3-0.6-0.6-1.2-0.8-1.7
		c-5.7-16.7-11.5-33.4-17.2-50c-1.2-3.5-2.6-6.9-3.9-10.3c-0.1-0.3-0.3-0.5-0.5-0.8C168.1,277.4,168,277.4,167.8,277.4z"/>
	<path fill="#22793B" d="M74.2,360.1c-5.7,1.3-11.4,2.6-17.2,3.9c-7.3-20.2-14-40.5-21.5-60.5c-0.2,0-0.4,0-0.6,0.1
		c-0.1,2.5-0.4,5-0.4,7.5c0,17.7,0,35.3,0,53c0,1.7,0,3.3,0,5.3c-5.1,1.3-10,2.6-15,3.9c-0.6-2-0.7-111.7-0.2-115.1
		c5.5-1.4,11.1-2.9,16.9-4.4c0.4,0.9,0.7,1.7,1,2.5c6,17.2,12.1,34.4,18.1,51.5c0.1,0.4,0.3,0.7,0.4,1.1c0.4,1.4,1.2,1.8,2.8,1.2
		c0.4-5,0.1-10.1,0.2-15.2c0-5.2,0-10.4,0-15.6c0-5.1,0-10.2,0-15.3c0-5.1,0-10.2,0-15.6c5.2-1.2,10.2-2.3,15.2-3.4
		C74.4,247,74.7,354.9,74.2,360.1z"/>
	<path fill="#22793B" d="M399.6,330.9c-5.8-0.2-11.2-0.4-16.8-0.5c-0.3-0.8-0.6-1.6-0.9-2.4c-4.8-14.4-9.5-28.8-14.3-43.2
		c-0.9-2.7-0.9-2.7-3.9-2.7c-1,0-2.1-0.1-3.1,0c-1.5,0.1-1.8,0.3-1.9,1.9c-0.1,0.8,0,1.6,0,2.4c0,13.5,0,27,0,40.5
		c0,0.9,0,1.9,0,2.8c-1.9,0.6-13.7,0.8-16,0.3c0-38.2,0-76.4,0-114.9c1-0.1,1.9-0.1,2.9-0.1c10.8,0,21.6,0.1,32.4,0.1
		c4,0,7.4,1.3,10.3,3.9c5.4,4.7,8.3,10.6,8.3,17.9c0,8.2,0.1,16.5,0,24.7c-0.1,8.4-3.7,14.9-11.2,19c-1.2,0.7-1.6,1.5-1.3,2.7
		c0.2,0.9,0.5,1.9,0.8,2.8c4.7,14.1,9.3,28.2,14,42.3C399,329,399.2,329.7,399.6,330.9z M380.4,248.6c0-4,0-8,0-12
		c0-2.5-0.2-2.6-2.6-2.6c-5.6-0.1-11.2-0.1-16.8-0.1c-2.1,0-2.3,0.2-2.3,2.4c0,8.1,0,16.3,0,24.4c0,2,0.2,2.2,2.2,2.2
		c5.7,0.1,11.3,0.1,17,0.1c2.2,0,2.4-0.2,2.4-2.5C380.4,256.6,380.4,252.6,380.4,248.6z"/>
	<path fill="#22793B" d="M452,333.7c-2.2-6.7-4.2-13-6.3-19.4c-2.9-9-5.8-18.1-8.8-27.1c-0.9-2.7-1-2.8-3.9-2.9c-1.1,0-2.2,0-3.4,0
		c-1,0-1.5,0.4-1.5,1.4c0,0.8,0,1.6,0,2.4c0,13.7,0,27.3,0,41c0,0.9,0,1.9,0,3.1c-5.4-0.3-10.6-0.6-16-0.9c0-38.5,0-76.7,0-115.2
		c3.5,0.1,6.9,0.2,10.3,0.4c7.3,0.4,14.5,1,21.8,1.3c5.6,0.2,10.5,1.6,14.4,5.8c4.3,4.6,7,9.9,7,16.3c0,8.7,0,17.4,0,26.1
		c-0.1,8.1-3.7,14-10.9,17.8c-1.8,1-2,1.4-1.3,3.7c1.7,5.3,3.4,10.6,5.1,16c3.1,9.6,6.2,19.1,9.3,28.7c0.3,0.8,0.5,1.7,0.8,2.8
		C463.1,334.7,457.7,334.2,452,333.7z M428.4,264.8c0.7,0.1,1.4,0.3,2.1,0.4c3.5,0.2,7,0.4,10.5,0.7c2.2,0.1,4.5,0.4,6.7,0.4
		c1.6,0,1.8-0.2,2-1.8c0-0.4,0.1-0.8,0.1-1.2c0-7.7,0-15.3,0-23c0-0.9-0.2-1.9-0.3-2.8c-0.7-0.1-1.2-0.3-1.6-0.3
		c-5.7-0.4-11.5-0.8-17.2-1.1c-2.2-0.1-2.4,0.2-2.4,2.5c0,8.1,0,16.1,0,24.2C428.2,263.4,428.3,264,428.4,264.8z"/>
	<path fill="#22793B" d="M140.4,347.5c-5.4,0.9-10.5,1.8-15.9,2.7c-0.2-2.6-0.1-5-0.1-7.3c0-2.4,0-4.8,0-7.2c0-2.5,0-5,0-7.4
		c0-2.4,0-4.8,0-7.2c0-2.4,0-4.8,0-7.5c-1.3,0-2.4-0.2-3.5,0c-5.5,1-11,2-16.5,3.1c-2.7,0.5-2.7,0.6-2.7,3.2c0,8.1,0,16.1,0,24.2
		c0,2.6,0,5.1,0,7.7c0,0.8-0.1,1.6-0.1,2.6c-5.2,1-10.3,2.1-15.7,3.2c0-1.1,0-1.9,0-2.7c0-30.2,0-60.4,0-90.6
		c0-8.3,3.3-15.2,9.1-20.9c2.8-2.7,6.1-4.2,9.9-4.9c5.6-1,11.2-1.8,16.7-3.1c8-1.9,13,2.6,16,7.3c2,3.2,2.7,6.8,2.7,10.5
		c0,13.3,0,26.7,0,40c0,17.1,0,34.2,0,51.3C140.4,345.4,140.4,346.3,140.4,347.5z M124.2,293.8c0.1-0.5,0.2-1,0.2-1.5
		c0-12,0-24,0-35.9c0-2-0.5-2.4-2.5-2c-4.4,0.8-8.8,1.6-13.2,2.4c-2.2,0.4-4.5,0.9-6.6,1.3c-0.6,3.1-0.5,37.7,0.1,39.5
		C104.1,298,120.3,295.3,124.2,293.8z"/>
	<path fill="#22793B" d="M571.4,319.7c5.4,0.9,10.4,1.8,15.5,2.7c0,3.2,0,6.1,0,8.9c2.4,1.3,18.8,4.3,21.4,3.9
		c0.1-0.7,0.2-1.5,0.2-2.2c0-7.9,0-15.8,0-23.7c0-2.5,0-2.5-2.5-2.9c-5.6-1.1-11.3-2.2-16.9-3.2c-3.6-0.6-6.7-2.2-9.3-4.6
		c-5.7-5.3-9-11.8-8.9-19.7c0-8.8-0.1-17.6,0-26.4c0.1-6,2.7-10.9,7.6-14.5c2.9-2.1,6-2.8,9.5-2.1c5.7,1.1,11.5,2.2,17.2,3.2
		c4.2,0.8,7.7,2.6,10.6,5.6c5.5,5.7,8.5,12.4,8.5,20.4c-0.1,23.9,0,47.8,0,71.7c0,1.5-0.1,3-0.3,4.5c-0.6,4.1-2.5,7.5-5.6,10.3
		c-3.2,2.9-6.9,3.9-11.1,3.1c-5.8-1.1-11.6-2.2-17.4-3.3c-3.8-0.7-7.1-2.4-9.9-5.1c-5.6-5.4-8.7-11.9-8.6-19.8
		C571.5,324.4,571.4,322.3,571.4,319.7z M608.2,287.2c0.7-3,0.6-26.8-0.1-28.7c-0.4-0.1-0.9-0.2-1.3-0.3c-5.5-1-11-2.1-16.4-3.1
		c-1-0.2-2,0-3,0c-0.1,0.6-0.2,0.9-0.2,1.2c0,8.6,0,17.2,0,25.9c0,1.4,0.7,1.7,1.9,1.9c5.6,1,11.1,2.1,16.7,3.1
		C606.3,287.4,607.2,287.2,608.2,287.2z"/>
	<path fill="#22793B" d="M651.5,276.6c-5.2-1.2-10.2-2.3-15.5-3.5c0.1-4.6-0.6-9.2,0.8-13.6c0.8-2.6,2.3-4.9,4.2-6.9
		c3.4-3.4,7.4-4.5,12.1-3.4c5.7,1.4,11.3,2.7,17,4.1c3.8,0.9,7.2,2.8,9.8,5.7c4.2,4.6,7.4,9.8,8.5,16.1c0.1,0.8,0.2,1.6,0.2,2.4
		c0,9.5,0.1,19,0,28.5c-0.1,5-2.1,9.3-6.1,12.5c-3,2.5-6.5,3.3-10.3,2.4c-5.3-1.3-10.6-2.5-15.8-3.8c-0.7-0.2-1.4-0.4-2.1-0.5
		c-2.1-0.4-2.6,0-2.7,2.1c0,1.6,0,3.2,0,4.8c0,6.4,0,12.8,0,19.2c0,2.5,0,2.5,2.6,3.2c10.4,2.6,20.8,5.1,31.2,7.7
		c1.1,0.3,2.1,0.6,3.2,0.9c0,6.2,0,12.2,0,18.5c-17.6-4.2-35-8.4-52.5-12.6c0-0.8-0.1-1.6-0.1-2.4c0-14.8,0-29.6,0-44.4
		c0-5.1,1.6-9.6,5.4-13.1c3.2-3.1,7-4.3,11.4-3.2c5.6,1.4,11.2,2.7,16.8,4c1,0.2,2,0.3,2.9,0.4c0.7-2,0.9-25.8,0.2-28.7
		c-0.7-0.2-1.4-0.5-2.2-0.7c-4.9-1.2-9.8-2.3-14.7-3.5c-0.3-0.1-0.6-0.2-0.9-0.3c-2.6-0.5-3.1-0.1-3.2,2.6c0,1.6,0,3.2-0.1,4.8
		C651.8,276.1,651.7,276.2,651.5,276.6z"/>
	<path fill="#22793B" d="M382.7,446.2c-0.8-10-3.1-19.6-6.6-28.9c-3.4-9.2-7.9-18-13-26.9c6.8-0.3,13.2-0.5,19.6-1
		c6.4-0.5,12.9-1.1,19.3-1.8c6.3-0.7,12.7-1.5,19-2.4c6.4-0.9,12.8-2,19.5-3c0.1,19.7-1.2,39.3-3.8,58.6
		C427.3,443.9,393,447.3,382.7,446.2z"/>
	<path fill="#22793B" d="M330.8,311.5c0,6.3,0,12.4,0,18.7c-0.7,0.1-1.4,0.2-2.1,0.2c-7.8,0.2-15.7,0.4-23.5,0.6
		c-6,0.2-12,0.5-18,0.8c-0.8,0-1.6,0-2.5,0c0-38.5,0-76.7,0-115.2c15.2-0.9,30.2-1.3,45.2-1.7c0.6,1.9,0.7,15.9,0.2,18.9
		c-9.6,0.5-19.4,0.4-29.2,1.1c-0.1,1.1-0.2,1.9-0.2,2.8c0,7.8,0,15.5,0,23.3c0,2.7,0.2,2.9,2.9,2.9c6.5-0.2,12.9-0.4,19.4-0.6
		c1,0,2.1,0,3.4,0c0.1,6.3,0,12.5,0.1,18.9c-0.9,0.1-1.6,0.2-2.3,0.2c-6.8,0.2-13.6,0.4-20.4,0.6c-0.5,0-1,0.1-1.4,0.1
		c-1,0.1-1.6,0.6-1.7,1.7c0,0.5,0,1,0,1.4c0,7.7,0,15.3,0,23c0,0.4,0,0.8,0,1.2c0,1.2,0.7,1.7,1.8,1.7c0.9,0,1.8,0,2.6-0.1
		c7.8-0.2,15.7-0.4,23.5-0.6C329.3,311.3,329.9,311.4,330.8,311.5z"/>
	<path fill="#22793B" d="M527.1,322.6c0,6.3,0,12.5,0,18.8c-15.3-1.8-30.4-3.5-45.7-5.2c0-38.3,0-76.6,0-115.1
		c15.1,1.3,30,3.2,44.9,5.1c0.6,2.1,0.7,16.5,0,18.9c-9.5-1-19-2.6-28.5-3.2c-0.7,2.2-0.8,25.9-0.2,28.9c8.2,1,16.6,2,24.9,3.1
		c0,6.5,0,12.6,0,18.9c-8.4-0.7-16.5-2.2-25-2.7c-0.1,1.1-0.3,1.9-0.3,2.8c0,7.8,0,15.7,0,23.5c0,2.5,0,2.6,2.7,2.9
		c6.1,0.8,12.2,1.5,18.3,2.2C521.1,321.8,524,322.2,527.1,322.6z"/>
	<path fill="#22793B" d="M434.1,457.5c-0.3,2-0.7,4-1.1,6c-3.5,18.4-8,36.4-14.3,54.1c-0.7,2-1.7,2.9-3.7,3.4
		c-10.3,2.3-20.6,4.2-31.1,5.1c-7.4,0.6-14.8,0.9-22.2,1.4c-0.6,0-1.2,0-2.1,0c0.3-0.5,0.4-0.8,0.6-1c8.6-9.3,13.9-20.4,17.4-32.4
		c2.8-9.6,4.2-19.5,4.9-29.5c0-0.6,0.1-1.3,0.2-1.9c0-0.1,0.1-0.3,0.2-0.6c8.5-0.5,17.1-0.7,25.6-1.5
		C416.9,459.8,425.4,458.6,434.1,457.5z"/>
	<path fill="#22793B" d="M452.7,437.1c0.1-1.5,0.3-2.9,0.4-4.2c0.6-6.1,1.2-12.2,1.7-18.4c1-13.8,1.3-27.6,1-41.4
		c0-1.5,0.5-2.3,1.6-3.1c2.2-1.7,4.4-2.6,7.4-2.2c8.2,1.2,16.5,1.9,24.7,2.9c6.8,0.8,13.6,1.7,20.4,2.6c1,0.1,2,0.3,3.2,0.6
		c-0.5,1-0.8,1.8-1.2,2.6c-5.5,11.7-10.4,23.7-13.4,36.3c-0.7,3-1.3,6.1-1.8,9.2c-0.2,1.3-0.7,2.1-2,2.6c-13.2,5-26.6,9-40.2,12.3
		C454,436.9,453.5,436.9,452.7,437.1z"/>
	<path fill="#22793B" d="M505.9,479.4c-21.4,15.6-44.5,27.4-69.8,35.7c0.2-0.8,0.2-1.3,0.4-1.8c6-19,10.5-38.3,13.5-58
		c0.3-1.9,1.5-2.1,2.8-2.3c10.3-2.3,20.4-5,30.5-8.2c3.6-1.1,7.1-2.4,10.7-3.6c0.7-0.2,1.5-0.5,2.5-0.8
		C497.9,453.7,500,466.9,505.9,479.4z"/>
	<path fill="#22793B" d="M372.5,142.8c3.5,6,6.8,11.9,10.4,18.1c-0.7,0.1-1,0.2-1.4,0.1c-10-0.8-20.1-1.1-30.2-0.8
		c-9.6,0.3-19.2,0.9-28.7,1.8c-8.7,0.8-17.5,1.9-26.2,3c-6.4,0.8-12.8,2-19.2,3c-1.6,0.2-2.8,1-4,2.1c-6.3,5.7-12.7,11.4-19,17.2
		c-1.2,1.1-2.3,1.7-4,1.9c-9,1-18.1,2.1-27.1,3.2c-8.6,1.1-17.2,2.4-25.8,3.6c-5.6,0.8-11.2,1.7-16.8,2.6c-1.6,0.3-2.8,0-3.8-1.3
		c-1-1.2-2.1-2.3-3.5-3.8C237.9,168.6,304.4,152.8,372.5,142.8z"/>
	<path fill="#22793B" d="M238.3,335.2c0-32.2,0-63.9,0-95.8c-3.3-0.7-6.3,0.2-9.2,0.3c-3,0.2-6,0.5-9.1,0.8c0-6.4,0-12.5,0-18.9
		c17.5-1.9,35.1-3.3,52.8-4.4c0,6.4,0,12.5,0,18.9c-6,0.4-12,0.9-18.2,1.4c0,32.2,0,64,0,96.1C249.2,334.5,244,334.6,238.3,335.2z"
		/>
	<path fill="#22793B" d="M518.4,469.7c-4.5-11.6-6.1-23.4-7-35.3c25.4-10.8,48.9-24.6,69.7-42.7c-7.5,15-16.7,29-27.2,42
		C543.4,446.8,531.6,458.7,518.4,469.7z"/>
	<path fill="#22793B" d="M513.5,416.4c3.5-14.3,9.3-27.4,15.8-40.4c12.8,2,25.6,4,38.4,6C564.2,388,525.9,412.4,513.5,416.4z"/>
	<path d="M583.3,352.7c5.8,1.2,11.4,2.3,17.1,3.4c2.4,0.5,4.9,0.9,7.3,1.3c9.1,1.5,15.7-4.7,17.8-11c0.8-2.4,1.3-5,1.3-7.5
		c0.1-25.3,0.1-50.7,0-76c0-2.9-1-5.8-1.5-8.7c-0.1-0.4-0.1-0.7-0.1-1.1c3.4,3.9,5.6,8.3,6.4,13.4c0.3,1.7,0.4,3.5,0.4,5.2
		c0,24.2,0,48.4,0,72.6c0,2.9-0.3,5.8-1.3,8.5c-2,5.2-5.5,9-11.1,10.4c-1.8,0.4-3.8,0.5-5.7,0.2c-6.5-1.1-13-2.4-19.5-3.7
		C589.9,358.8,586.4,356.3,583.3,352.7z"/>
	<path d="M275.4,238.7c0-7.1,0-13.9,0-20.9c2,0.5,3.4,1.8,4.8,2.8c0.3,0.2,0.4,0.7,0.4,1c0,6.9,0,13.9,0,21
		c-6.3,0.5-12.3,0.9-18.6,1.3c0,32.1,0,64,0,96c-0.9,0.2-1.7,0.4-2.4,0.4c-4.7,0.4-9.4,0.7-14.1,1.2c-1.8,0.2-3.1-0.1-4.3-1.5
		c-0.6-0.7-1.3-1.1-2.4-2.1c6.2-1,12-0.9,17.9-1.8c0.1-1.4,0.2-2.7,0.2-4c0-21.9,0-43.8,0-65.7c0-7.9,0-15.8,0-23.7
		c0-0.9,0-1.7,0-2.7C263.2,239.5,269.1,239.1,275.4,238.7z"/>
	<path d="M77.3,244.6c1.3,1,2.7,1.9,4,3c0.4,0.3,0.6,0.9,0.6,1.4c0.1,0.6,0,1.3,0,1.9c0,37.4,0,74.8,0,112.2c0,0.9,0,1.9,0,3
		c-3.1,0.7-6.1,1.4-9,2c-3.1,0.7-6.2,1.4-9.3,2.1c-0.9,0.2-1.7,0.2-2.4-0.6c-0.9-1-1.9-1.9-3.3-3.1c6.5-1.5,12.6-2.9,18.9-4.3
		c0-39.2,0-78.3,0-117.4C76.9,244.8,77.1,244.7,77.3,244.6z"/>
	<path d="M215.7,344.6c-2.9,0.3-5.5,0.6-8.1,0.9c-3.3,0.4-6.5,0.7-9.7,1.2c-1.9,0.3-3.3-0.2-4.4-1.6c-0.6-0.7-1.3-1.3-2.3-2.3
		c6.7-0.8,13-1.6,19.5-2.3c0-39.1,0-78.1,0-117.5c1.8,1.1,3.2,2,4.5,2.9c0.3,0.2,0.5,0.8,0.6,1.2c0.1,0.7,0,1.4,0,2.2
		c0,37.4,0,74.8,0,112.2C215.7,342.4,215.7,343.3,215.7,344.6z"/>
	<path d="M654.4,319.4c5,1.2,9.9,2.4,14.8,3.6c1,0.2,2,0.5,3,0.7c10.7,1.8,17-6,18.4-12.8c0.4-1.9,0.6-4,0.6-5.9
		c0.1-7.9,0-15.8,0-23.7c0-4.8-0.3-9.6-2.1-14.2c0.2,0.2,0.5,0.4,0.7,0.6c4.4,5.7,7.3,11.9,7.1,19.4c-0.2,8.8,0,17.6-0.1,26.4
		c0,5.4-1.8,10-5.9,13.6c-3.3,2.9-7.2,4.2-11.6,3.2c-5.8-1.3-11.5-2.7-17.2-4.1c-0.7-0.2-1.4-0.3-2.4-0.5c0,6.3,0,12.5,0,18.9
		c-2-0.5-3.7-0.8-5.3-1.2C654.1,341.4,654,323.2,654.4,319.4z"/>
	<path d="M477.7,342.1c-1.4-0.1-2.5-0.1-3.6-0.2c-4.5-0.3-8.9-0.8-13.4-1c-2.2-0.1-4-0.7-5.4-2.5c-0.4-0.5-1-0.7-1.4-1.4
		c6.1-0.3,11.9,0.8,17.8,0.8c0.7-1.4,0.1-2.6-0.3-3.8c-4-12.5-8.1-24.9-12.1-37.4c-1.1-3.3-2.1-6.5-3.2-9.9c0.5-0.3,1-0.6,1.4-0.9
		c6.3-3.7,9.8-9.3,10.5-16.5c0.3-2.6,0.2-5.3,0.2-7.9c0-6.7,0-13.4,0-20.1c0-4.7-0.6-9.2-2.9-13.4c-0.1-0.2-0.1-0.4-0.1-1
		c4.2,4,7,8.5,8.1,13.9c0.3,1.6,0.5,3.2,0.5,4.8c0,8.9,0.1,17.7,0,26.6c0,6-2.2,11.3-6.6,15.4c-1.7,1.6-3.7,2.7-5.9,4.3
		C466.7,308.2,472.1,325,477.7,342.1z"/>
	<path d="M616.8,213.4c-3.2-0.7-6-1.4-8.7-1.7c-1.7-0.2-2.2-1-2.6-2.5c-2.3-8.8-5.1-17.4-8.4-25.9c-3.8-9.8-8.2-19.4-13.2-28.7
		c-0.4-0.7-0.7-1.5-1.1-2.3c4,0.5,7.7,0.9,11.9,1.5C604.2,172.3,611.7,192.2,616.8,213.4z"/>
	<path d="M147.9,353.7c-6,1.1-11.6,2-17.2,3c-1.1,0.2-2,0-2.8-0.9c-0.8-0.9-1.8-1.7-3.1-2.9c1.8-0.3,3-0.6,4.4-0.9
		c3.9-0.7,7.7-1.3,11.6-2c2-0.3,2-0.4,2.1-2.4c0-0.7,0-1.4,0-2.2c0-28,0-56.1,0-84.1c0-6.4,0.7-12.9-1.8-19.1
		c4.1,3.2,6.2,7.4,6.8,12.5c0.1,1.1,0.1,2.2,0.1,3.4c0,30.9,0,61.9,0,92.8C147.9,351.7,147.9,352.7,147.9,353.7z"/>
	<path d="M386.8,283.1c0.5-0.4,0.9-0.6,1.3-0.9c6.2-3.9,9.8-9.5,10.6-16.8c0.3-2.6,0.3-5.3,0.3-7.9c0-6.5,0-12.9,0-19.4
		c0-4.4-0.4-8.8-2.2-12.9c-0.1-0.2,0-0.4-0.1-0.9c0.4,0.3,0.8,0.5,1,0.8c3.7,4.1,6,8.9,6.2,14.4c0.1,3.8,0.1,7.7,0.1,11.5
		c0,5.3,0,10.5,0,15.8c0,9.1-3.8,16-11.9,20.4c-0.2,0.1-0.4,0.3-0.7,0.6c5.4,16.5,10.9,33,16.4,49.8c-1,0-1.7,0-2.4,0
		c-5.5-0.2-11-0.4-16.5-0.5c-1.1,0-2-0.3-2.7-1.2c-0.8-0.9-1.6-1.7-2.6-2.7c6.3,0,12.6,0,18.8,0c0.5-1.3,0-2.4-0.3-3.5
		c-4.8-14.5-9.6-29-14.3-43.4C387.5,285.3,387.2,284.4,386.8,283.1z"/>
	<path d="M691.2,376.4c0-7.2,0-13.9,0-21.2c0.9,0.7,1.4,1.1,1.9,1.5c1.3,1.3,3,2.5,3.7,4c0.7,1.6,0.3,3.6,0.3,5.4
		c0,4.6,0,9.3,0,13.9c0,0.8,0,1.5,0,2.5c-4.3-1.1-8.3-2.2-12.3-3.1c-13.7-3.3-27.5-6.5-41.2-9.7c-1.6-0.4-2.8-0.9-3.7-2.3
		c-0.9-1.2-1.9-2.3-3.2-3.9c1.2,0.2,2,0.3,2.7,0.4c16.1,3.9,32.3,7.8,48.4,11.7C688.7,376.1,689.8,376.2,691.2,376.4z"/>
	<path d="M505.6,248.9c0,6.8,0,13.4,0,20.1c-2.1-0.2-3.8-0.4-5.6-0.6c0-7.9,0-15.7,0-23.7c9.7,0.8,19.3,2.4,29.1,3.4
		c0.1-1.2,0.3-2.1,0.3-3c0-5.3,0-10.5,0-15.8c0-0.8,0-1.6,0-2.8c2.2,1.4,3.9,2.8,5.5,4.2c0.3,0.2,0.3,0.9,0.3,1.3
		c0,6.5,0,13.1,0,19.6c0,0.2-0.1,0.5-0.2,1C525.4,251.3,515.7,250.1,505.6,248.9z"/>
	<path d="M104.1,319.5c6.1-1.1,11.8-2.2,17.6-3.3c0.1,0.7,0.2,1.3,0.2,1.8c0,0.9,0,1.9,0,3c-4.2,0.8-8.3,1.6-12.5,2.4
		c0,12.4,0,24.6,0,37c-0.7,0.2-1.2,0.5-1.7,0.6c-5.1,1-10.2,2-15.2,3.1c-1.2,0.3-2.1,0.2-3-0.8c-0.8-0.9-1.8-1.7-3.1-3
		c6.1-1.3,11.8-2.5,17.7-3.7C104.1,344.2,104.1,332,104.1,319.5z"/>
	<path d="M37.5,317.2c0.9,2.6,1.8,5.3,2.8,7.8c1.4,3.4,1.8,6.9,1.8,10.5c-0.1,12.4,0,24.8,0,37.2c0,0.9,0,1.7,0,2.7
		c-3.1,0.8-6,1.5-8.9,2.3c-2.6,0.7-5.3,1.4-7.9,2.1c-1.1,0.3-2,0.2-2.8-0.7c-0.8-0.9-1.8-1.8-3.1-2.9c6-1.6,11.7-3.1,17.5-4.6
		c0-18.2,0-36.2,0-54.2C37.1,317.2,37.3,317.2,37.5,317.2z"/>
	<path d="M170.8,291.4c1.5,4.4,3,8.9,4.5,13.3c0.2,0.5,0.1,1.1,0.1,1.7c0,14,0,27.9,0,41.9c0,0.3-0.1,0.6-0.1,1.1
		c-0.6,0.2-1.2,0.4-1.7,0.5c-5.2,0.8-10.4,1.6-15.6,2.3c-0.6,0.1-1.4-0.1-1.9-0.5c-1.2-0.9-2.2-2-3.7-3.4c1.4-0.3,2.5-0.5,3.5-0.6
		c3.9-0.6,7.7-1.1,11.6-1.7c2.8-0.4,2.8-0.5,2.8-3.2c0-16.2,0-32.4,0-48.6c0-0.9,0-1.7,0-2.6C170.5,291.5,170.6,291.5,170.8,291.4z"
		/>
	<path d="M308.3,261c-1.8,0-3.2,0-4.9,0c0-7.8,0-15.6,0-23.7c9.8-0.3,19.5-0.6,29.5-0.9c0.2-3.6,0.1-7,0.1-10.4c0-3.4,0-6.8,0-10.7
		c1.7,1.1,3.2,1.9,4.5,2.9c0.4,0.3,0.6,0.9,0.6,1.4c0,6.6,0,13.2,0,19.9c0,0.2-0.1,0.4-0.3,0.9c-9.7,0.3-19.4,0.6-29.2,0.9
		c-0.6,2.2-0.2,4.4-0.3,6.5c-0.1,2.2,0,4.3,0,6.5C308.3,256.3,308.3,258.5,308.3,261z"/>
	<path d="M505.7,317.2c-2.1-0.2-3.9-0.4-5.7-0.6c0-7.9,0-15.7,0-23.8c3,0.3,5.9,0.6,8.8,1c4.4,0.5,8.7,1.1,13.1,1.6c1,0.1,2,0,3.4,0
		c0.2-7.1,0-14.1,0.1-21.4c0.6,0.3,1.1,0.5,1.5,0.7c0.7,0.5,1.4,1.1,2.1,1.6c1.8,1,2.4,2.4,2.3,4.5c-0.2,5.5-0.1,11-0.1,16.5
		c0,0.9,0,1.7,0,2.7c-8.6-1-16.9-2-25.5-3C505.7,303.9,505.7,310.3,505.7,317.2z"/>
	<path d="M366.2,336.8c-1,0-1.8,0-2.7,0c-4.4,0-8.8-0.1-13.2,0.1c-2.1,0.1-3.9-0.3-5.3-2c-0.5-0.6-1.2-1-1.8-1.4
		c0.1-0.2,0.2-0.4,0.3-0.5c0.6,0,1.2-0.1,1.8-0.1c4.3,0,8.6,0,12.9,0c0.9,0,1.9-0.2,3-0.3c0-16,0-31.8,0-47.7c1.3,0,2.2,0,3.5,0
		c0.8,2.1,1.7,4.2,1.7,6.6c0,14.5,0,28.9,0,43.4C366.3,335.3,366.2,335.9,366.2,336.8z"/>
	<path d="M333.5,288.6c-8.2,0.3-16.6,0.5-25.3,0.8c0,6.7,0,13.2,0,19.8c-1.8,0-3.3,0-4.9,0c0-7.8,0-15.6,0-23.6
		c4.2-0.5,8.4-0.3,12.5-0.5c4.1-0.2,8.3-0.3,12.5-0.4c0.8-2.5,0.3-4.8,0.4-7c0.1-2.3,0-4.6,0-6.9c0-2.3,0-4.6,0-7.4
		c1.8,1.1,3.1,1.9,4.4,2.9c0.4,0.3,0.7,0.9,0.7,1.4c0,6.8,0,13.6,0,20.4C333.8,288.2,333.7,288.3,333.5,288.6z"/>
	<path d="M430.6,286.8c1.3,0.1,2.3,0.1,3.4,0.2c1,3,2.2,5.8,2.2,9c-0.1,13.4,0,26.8,0,40.2c0,0.9,0,1.7,0,2.8c-1.2,0-2.1,0-3,0
		c-4.3-0.2-8.6-0.5-12.9-0.6c-2.2,0-3.9-0.7-5.2-2.4c-0.4-0.5-0.9-1-1.8-1.9c6,0.3,11.5,0.5,17.2,0.7c0.1-1.2,0.2-2.2,0.2-3.2
		c0-13.9,0-27.8,0-41.7C430.6,289,430.6,288.1,430.6,286.8z"/>
	<path d="M285.6,334.4c15.8-0.5,31.5-1.1,47.6-1.7c0.4-2.4,0.1-4.7,0.2-6.9c0-2.2,0-4.5,0-6.7c0-2.3,0-4.6,0-7.3
		c1.8,1.2,3.2,2,4.5,3c0.3,0.2,0.5,0.8,0.5,1.2c0,6.8-0.1,13.6-0.1,20.3c0,0.1-0.1,0.1-0.2,0.4c-0.7,0-1.4,0.1-2.2,0.2
		c-13.6,0.5-27.1,0.9-40.7,1.4c-0.9,0-1.8-0.1-2.6,0.2c-3.5,1-5.3-1.2-7.1-3.3C285.5,334.8,285.6,334.6,285.6,334.4z"/>
	<path d="M529.6,344.4c0-7.3,0-14.2,0-21.6c2.4,1.4,4.1,2.8,5.8,4.3c0.2,0.2,0.2,0.7,0.2,1.1c0,6.6,0,13.1,0,19.7
		c0,0.2-0.1,0.4-0.3,0.9c-1.8-0.2-3.6-0.4-5.4-0.6c-11.7-1.4-23.5-2.8-35.2-4.1c-1.7-0.2-3.5-0.5-5.2-0.5c-1.9,0-3.4-0.6-4.6-2.1
		c-0.6-0.7-1.3-1.3-2-1.9c0.1-0.2,0.2-0.4,0.2-0.5C498.5,340.8,513.8,342.5,529.6,344.4z"/>
	<path fill="#22793B" d="M135.3,182.6c-2,1-4,2-6,2.9c-1.5,0.3-2.9,0.7-3.7,2.2c-1.2,0.5-2.4,1.1-3.6,1.6c-0.2-0.1-0.7-0.3-0.7-0.4
		c0-0.5,0.2-0.9,0.3-1.4c3.4-8,6.9-15.9,10.4-23.9c0.1-0.3,0.3-0.5,0.6-0.9c3,5.3,6,10.5,9,16c-1.2,0.6-2.6,1.2-3.8,2
		C136.9,181.4,136.1,182,135.3,182.6z"/>
	<path d="M660,285.8c-0.8-0.1-1.3-0.1-1.9-0.2c-5.1-1.1-10.1-2.3-15.2-3.4c-1.2-0.3-2.2-0.8-3-1.8c-1-1.3-2.1-2.5-3.5-4.2
		c1,0.1,1.5,0.1,1.9,0.2c4.2,0.9,8.4,1.9,12.6,2.8c0.9,0.2,1.8,0.2,3.1,0.3c0-2.8,0-5.4,0-8.4c5.7,1.4,11,2.6,16.3,3.9
		c0,1.5,0,2.9,0,4.5c-3.5-0.8-6.9-1.6-10.5-2.4C660,280.2,660,282.9,660,285.8z"/>
	<path d="M189.1,276.3c-5.4-15.8-10.9-31.6-16.4-47.5c2.5,0.8,3.9,2.1,4.6,4.3c3.8,10.9,7.4,21.9,11.3,32.8c1.2,3.5,0.9,6.9,1,10.3
		C189.5,276.2,189.3,276.2,189.1,276.3z"/>
	<path d="M39.5,254.2c2.8,1.3,4.2,3.1,5.1,5.6c3.5,10.3,7.2,20.7,10.9,30.9c1.1,3.1,0.6,6.2,0.7,9.3c-0.2,0-0.4,0.1-0.5,0.1
		C50.3,285,44.9,269.8,39.5,254.2z"/>
	<path d="M605.9,309.1c0,1.6,0,3,0,4.7c-4.8-1-9.4-1.7-14-2.9c-3.7-1-6.6-3.4-9.1-6.4C590.5,306,598.1,307.5,605.9,309.1z"/>
	<path d="M220.4,243.2c5.4-0.5,10.3-1,15.3-1.5c0,1.5,0,2.8,0,4.4c-3.6,0.3-7.1,0.7-10.7,1c-0.3,0-0.7-0.1-0.9-0.3
		C223,245.8,221.9,244.7,220.4,243.2z"/>
	<path d="M431.6,105.4c5.4-5.6,12-7.4,19.5-6.7c-3.3,0.9-6.8,1.5-10,2.6C437.9,102.4,434.8,104,431.6,105.4z"/>
	<path fill="#22793B" d="M479.1,81.4c2.5-0.8,5-1.7,7.6-2.4c1.8-0.5,2.9,0.1,3,1.4c0.1,1.3-0.8,2.1-2.6,2.1
		c-2.6-0.1-5.2-0.4-7.8-0.6C479.2,81.7,479.2,81.6,479.1,81.4z"/>
	<path d="M594.6,330.6c-1.9-0.3-3.5-0.6-5.1-0.9c0-2.3,0-4.4,0-7.1c1.8,2,3.3,3.6,4.6,5.3C594.5,328.5,594.4,329.4,594.6,330.6z"/>
	<path fill="#22793B" d="M148.9,203.4c3-1.3,6-2.6,9.2-3.9c0.6,0.7,1.2,1.3,2.1,2.3c-4,0.7-7.6,1.4-11.2,2
		C149,203.6,148.9,203.5,148.9,203.4z"/>
	<path fill="#22793B" d="M501.7,142.8c-0.6,0-1.2,0.1-1.9,0.1c0-0.1,0-0.2,0-0.2c0.6,0,1.3-0.1,1.9-0.1
		C501.7,142.6,501.7,142.7,501.7,142.8z"/>
	<path fill="#D9882E" stroke="#000000" stroke-miterlimit="10" d="M667.9,82.9c0,2.7,0.1,5.1,0,7.4c-0.2,2.1-0.5,2.4-2.7,2.5
		c-3,0.2-5.9,0.8-8.5,2.1c-3.8,1.8-7.7,3.7-11.1,6.1c-6.1,4.3-11.9,8.9-17.8,13.4c-4.1,3.1-8.2,6.1-12.8,8.4
		c-3.7,1.8-7.6,2.8-11.8,2.3c-1.8-0.2-3.2-0.8-4.4-2.1c-6.4-7.6-10.4-16.2-11.5-26.1c-0.1-1.1-0.3-2.2-0.4-3.3
		c-0.1-2-0.1-2.2,1.8-2.8c6.2-1.9,12.3-4,18.5-5.6c10.7-2.7,21.7-3.8,32.7-4.1c8.6-0.3,17.1,0.3,25.6,1.3
		C666.2,82.4,667,82.6,667.9,82.9z"/>
	<path fill="#D9882E" stroke="#000000" stroke-miterlimit="10" d="M587.3,87.8c0-1.5-0.2-2.7,0-3.8c1.9-11.8,7.3-21.7,16.4-29.5
		c1.1-0.9,2.4-1.6,3.7-2.1c5.2-1.9,10.5-1.7,15.8-0.2c4.4,1.2,8.5,3.1,12.6,5.3c4.6,2.4,9.1,4.9,13.8,7.2c4.7,2.3,9.5,4.2,14.7,4.6
		c1.2,0.1,2.1,0.6,2.3,2c0.4,2.6,0.9,5.2,1.4,8.1C640.3,75.8,613.6,78.2,587.3,87.8z"/>
	<path fill="#D9882E" stroke="#000000" stroke-miterlimit="10" d="M605.1,128.5c1.6-0.2,2.8-0.3,4.1-0.5c4.9-0.9,9.2-3.1,13.2-6
		c4.7-3.3,9.2-6.8,13.8-10.4c5.3-4.1,10.5-8.3,16.4-11.6c3.9-2.2,8.1-3.8,12.6-4.3c0.5-0.1,1.1,0,1.9,0c-0.3,1.7-0.6,3.3-1,4.8
		c-2.7,11-7.1,21.2-14.3,30c-1.5,1.9-3.2,3.6-5,5.2c-2.7,2.5-5.8,3.6-9.6,3.7c-11,0.3-21-2.5-30-8.8c-0.6-0.4-1.2-0.9-1.7-1.3
		C605.5,129.3,605.4,129,605.1,128.5z"/>
	<path fill="#D9882E" stroke="#000000" stroke-miterlimit="10" d="M665,66.2c-3.1-0.1-5.9-0.8-8.5-2c-5.1-2.4-10.2-4.9-15.3-7.5
		c-5.7-2.9-11.2-6.1-17.5-7.6c-2.9-0.7-5.9-1.1-9.2-1.6c0.9-0.5,1.7-0.9,2.4-1.2c10.9-4.3,22-4.8,33.3-1.1c1,0.3,2.1,0.8,2.9,1.6
		c5.3,5.2,9.3,11.4,11.7,18.4C664.9,65.4,664.9,65.7,665,66.2z"/>
	<path fill="#D9882E" stroke="#000000" stroke-miterlimit="10" d="M670.2,96.2c3,0.5,4.8,2.1,6,4.3c1.5,2.8,1.8,5.9,1.8,9.1
		c0,3.8-1.4,7.1-3.7,10.1c-5.9,7.9-13.5,13.6-22.7,17c-0.3,0.1-0.6,0.2-1,0.1c5.3-5.6,9.4-12.1,12.7-19
		C666.6,111,668.7,103.7,670.2,96.2z"/>
	<path fill="#D9882E" stroke="#000000" stroke-miterlimit="10" d="M681,105.3c-0.2-1.1-0.4-2.2-0.8-3.2c-1.2-4-3.6-7.1-7.7-8.6
		c-1.9-0.7-1.9-0.8-1.8-2.8c0.2-2.4,0.4-4.7,0.6-7.3c3.9,0.5,7.5,1.4,10.9,3.1c0.5,0.3,1.1,1,1.1,1.6C683.8,94,683.3,99.7,681,105.3
		z"/>
	<path fill="#D9882E" stroke="#000000" stroke-miterlimit="10" d="M669.6,69.8c2.6-0.7,5-1.4,7.8-2.1c2.7,4.5,4.4,9.6,5.4,15.3
		c-0.7-0.1-1.2-0.2-1.7-0.4c-2.8-0.7-5.5-1.5-8.3-2.2c-1.2-0.3-1.9-0.8-2-2C670.4,75.6,670,72.8,669.6,69.8z"/>
	<path fill="#D9882E" stroke="#000000" stroke-miterlimit="10" d="M668.6,66.5c-2.1-5.8-4.6-11.1-8.3-16c3.5,0.5,12.2,8.8,15.1,14.1
		C673.4,66.3,671,66,668.6,66.5z"/>
	<path fill="#FFFFFF" d="M356.3,175.2c-0.7,1.9,0,2.7,1.2,3.3c1.6,0.9,3.2,1.8,4.7,2.8c1.8,1.2,2.4,3,1.8,5.7
		c-0.3,1.5-1.8,2.6-3.8,2.8c-1.5,0.1-3,0.1-4.5,0c-2.5-0.2-3.6-1.7-3.5-4.7c0.9,0,1.9,0,2.8,0c0.3,0,0.8,0.1,0.9,0.2
		c0.9,2.1,2.6,0.9,3.9,1.1c0.6-2.3,0.6-2.3-1.1-3.3c-1.6-0.9-3.2-1.8-4.8-2.8c-1.8-1.1-2.4-3.1-1.8-5.7c0.4-1.5,1.8-2.6,3.8-2.7
		c1.7-0.1,3.4-0.1,5,0.1c2.5,0.3,3.4,1.7,3,4.5c-1.4-0.2-3.1,1-4.1-1.1C358.7,175.4,357.5,175.3,356.3,175.2z"/>
	<path fill="#FFFFFF" d="M375.6,189.8c-0.7,0-1.2,0.1-1.6,0.1c-0.6,0-1.3-0.1-2.1-0.1c-0.1-5.8,0-11.6,0.3-17.5c3.5,0,6.9,0,10.4,0
		c0,1.2,0,2.1,0,3.3c-2.2,0-4.1,0-6.2,0c0,1.3,0,2.4,0,3.7c1.7,0.1,3.3,0.2,5.1,0.3c0,1.1,0,2,0,3.1c-1.7,0-3.4,0-5.3,0
		C375.8,185.1,375.7,187.3,375.6,189.8z"/>
	<path fill="#FFFFFF" d="M340.6,186.4c-0.2-4.6-0.3-9.2-0.5-14c1.4,0,2.6,0,4.1,0c0.1,0.7,0.1,1.5,0.2,2.2c0.1,3.7,0.2,7.5,0.2,11.2
		c0,2.7-1.1,3.9-3.8,4.2c-1.3,0.1-2.7,0.2-4.1,0.1c-2.6-0.2-3.7-1.6-3.6-4.5c0.8,0,1.7-0.1,2.6-0.1c0.4,0,0.8,0.1,1.1,0.3
		C338.4,187,338.4,187,340.6,186.4z"/>
	<path fill="#FFFFFF" d="M339.3,373.1c0.9,0,1.8,0,2.8,0c0.2,0,0.6,0.1,0.7,0.2c1,2.2,2.8,0.9,4.4,1.2c0-1.3,0-2.4,0-3.7
		c-1-0.1-2-0.1-3-0.2c-1-0.1-2.1-0.2-3-0.6c-2.8-1.3-1.8-3.9-1.9-6.1c-0.1-1.8,0.8-3,2.5-3.7c0.6-0.2,1.2-0.3,1.9-0.3
		c1.4,0,2.7,0,4.1,0.1c2.6,0.2,3.8,1.6,3.8,4.2c0,3.3-0.1,6.5-0.2,9.8c-0.1,2.2-1.3,3.6-3.5,3.8c-1.7,0.1-3.5,0.1-5.3-0.1
		C339.9,377.4,338.9,375.9,339.3,373.1z M347.2,363.4c-1.3,0-2.5,0-3.8,0c0,1.3,0,2.5,0,3.7c1.4,0,2.5,0,3.8,0
		C347.2,365.9,347.2,364.8,347.2,363.4z"/>
	<path fill="#FFFFFF" d="M367,367.4c0-1.4,0-2.5,0-3.8c-1.6,0-3-0.8-4.3,0.9c-0.5,0.6-2.2,0.3-3.3,0.4c-0.5-2.6,0.4-4.3,2.7-4.6
		c2-0.2,4-0.2,6,0c1.9,0.2,3.1,1.6,3.2,3.6c0,0.9,0,1.8,0,2.6c0,2.7-1.4,4.1-4.1,4.3c-1.3,0.1-2.5,0-3.9,0c0,1.4,0,2.5,0,3.9
		c2.7,0,5.2,0,8,0c0,1.2,0,2.1,0,3.2c-4,0-7.9,0-12.2,0c-0.2-2.6-0.3-5.2,0.1-7.7c0.3-1.6,1.9-2.5,3.8-2.7c0.6,0,1.3,0,1.9,0
		C365.5,367.4,366.1,367.4,367,367.4z"/>
	<path fill="#FFFFFF" d="M381.8,377.6c1.7-4.9,3.2-9.6,4.9-14.5c-1.6,0.3-3.2-1-4,1.2c-1.2,0.1-2.3,0.2-3.8,0.3
		c-0.1-1.6-0.1-3-0.2-4.7c1.4-0.1,2.5-0.1,3.7-0.2c2.1-0.1,4.2-0.1,6.2-0.1c1.6,0,2.7,1.2,2.3,2.6c-1.5,5.1-3.2,10.2-4.8,15.3
		C384.6,377.6,383.4,377.6,381.8,377.6z"/>
	<path fill="#FFFFFF" d="M331,377.3c-1.4,0-2.5,0-3.8,0c-0.1-0.7-0.2-1.3-0.2-1.9c0.1-3.3,0.3-6.5,0.4-9.8c0-0.8,0.1-1.6-0.6-2.4
		c-0.5-0.6-0.3-1.9-0.4-2.9c1.7-1,3.3-1,5.2-0.6C331.5,365.6,331.3,371.4,331,377.3z"/>
	<path fill="#FFFFFF" d="M125.6,187.8c0.8-1.5,2.2-1.8,3.7-2.2C128.1,186.3,126.9,187,125.6,187.8z"/>
	<path fill="#FFFFFF" d="M380.4,248.6c0,4,0,8,0,12c0,2.3-0.2,2.5-2.4,2.5c-5.7,0-11.3-0.1-17-0.1c-2,0-2.2-0.2-2.2-2.2
		c0-8.1,0-16.3,0-24.4c0-2.2,0.2-2.4,2.3-2.4c5.6,0,11.2,0,16.8,0.1c2.4,0,2.5,0.2,2.6,2.6C380.4,240.6,380.4,244.6,380.4,248.6z
		 M377.8,236.9c-2.8-0.5-14.9-0.5-16.5,0c-0.5,5.7-0.2,21.6,0.3,23.4c1.5,0,2.9,0,4.7,0c0-6.6,0-13,0-19.7c4,0,7.7,0,11.4,0
		C377.8,239.1,377.8,238,377.8,236.9z"/>
	<path fill="#FFFFFF" d="M428.4,264.8c-0.1-0.8-0.2-1.4-0.2-2c0-8.1,0-16.1,0-24.2c0-2.3,0.2-2.6,2.4-2.5c5.7,0.3,11.5,0.7,17.2,1.1
		c0.5,0,0.9,0.2,1.6,0.3c0.1,0.9,0.2,1.8,0.3,2.8c0,7.7,0,15.3,0,23c0,0.4,0,0.8-0.1,1.2c-0.2,1.5-0.4,1.8-2,1.8
		c-2.2-0.1-4.5-0.3-6.7-0.4c-3.5-0.2-7-0.4-10.5-0.7C429.8,265.1,429.1,264.9,428.4,264.8z M436.2,262.9c0-6.8,0-13.2,0-19.9
		c3.8,0.2,7.3,0.4,10.9,0.6c0-1.4,0-2.4,0-3.8c-5.5-0.3-10.8-0.7-16.4-1c0,8.1,0,15.8,0,23.8C432.5,262.6,434.1,262.7,436.2,262.9z"
		/>
	<path fill="#FFFFFF" d="M124.2,293.8c-3.9,1.5-20.1,4.2-22,3.7c-0.6-1.8-0.7-36.3-0.1-39.5c2.1-0.4,4.4-0.9,6.6-1.3
		c4.4-0.8,8.8-1.7,13.2-2.4c2-0.4,2.5,0,2.5,2c0,12,0,24,0,35.9C124.4,292.8,124.3,293.3,124.2,293.8z M104.3,260.3
		c0,11.7,0,23.1,0,34.7c1.7-0.3,3.3-0.6,5.1-1c0-10,0-19.9,0-29.7c4.3-0.8,8.4-1.6,12.3-2.4c0-1.8,0-3.2,0-4.8
		C115.8,258.2,110.1,259.2,104.3,260.3z"/>
	<path fill="#FFFFFF" d="M608.2,287.2c-1,0-1.8,0.1-2.7,0c-5.6-1-11.1-2.1-16.7-3.1c-1.2-0.2-1.9-0.6-1.9-1.9c0-8.6,0-17.2,0-25.9
		c0-0.3,0.1-0.6,0.2-1.2c1,0,2-0.2,3,0c5.5,1,11,2.1,16.4,3.1c0.5,0.1,0.9,0.2,1.3,0.3C608.7,260.4,608.9,284.2,608.2,287.2z
		 M589.4,257.7c0,8,0,15.8,0,23.7c1.7,0.3,3.2,0.6,5.1,0.9c0-6.4,0-12.5,0-18.9c3.9,0.7,7.5,1.3,11.3,2c0-1.7,0-3.1,0-4.6
		C600.4,259.7,595,258.7,589.4,257.7z"/>
	<path d="M347.2,363.4c0,1.4,0,2.5,0,3.7c-1.3,0-2.4,0-3.8,0c0-1.3,0-2.5,0-3.7C344.7,363.4,345.9,363.4,347.2,363.4z"/>
	<path d="M377.8,236.9c0,1.1,0,2.3,0,3.7c-3.8,0-7.5,0-11.4,0c0,6.7,0,13.1,0,19.7c-1.7,0-3.2,0-4.7,0c-0.6-1.7-0.8-17.6-0.3-23.4
		C362.9,236.3,375.1,236.3,377.8,236.9z"/>
	<path d="M436.2,262.9c-2.1-0.2-3.7-0.3-5.5-0.4c0-8,0-15.8,0-23.8c5.5,0.4,10.9,0.7,16.4,1c0,1.4,0,2.5,0,3.8
		c-3.6-0.2-7.1-0.4-10.9-0.6C436.2,249.7,436.2,256.1,436.2,262.9z"/>
	<path d="M104.3,260.3c5.8-1.1,11.5-2.1,17.4-3.3c0,1.6,0,3.1,0,4.8c-4,0.8-8,1.6-12.3,2.4c0,9.9,0,19.7,0,29.7
		c-1.8,0.3-3.3,0.6-5.1,1C104.3,283.4,104.3,272.1,104.3,260.3z"/>
	<path d="M589.4,257.7c5.6,1,10.9,2.1,16.5,3.1c0,1.5,0,2.9,0,4.6c-3.8-0.7-7.4-1.3-11.3-2c0,6.4,0,12.5,0,18.9
		c-1.9-0.3-3.5-0.6-5.1-0.9C589.4,273.5,589.4,265.7,589.4,257.7z"/>
	<path d="M568.2,128c-11.7-1.3-28.1,1.3-28.1,1.3c8.4-12.5,27.8-11.5,30.1-10s8.7,4.1,7.9-1.6c-0.8-5.7-10.2-8.6-13.8-6.1
		s-12.5,8.8-33.2-4.8c-20.7-13.5-37.4-3.3-37.4-3.3s1.1-14.5,32.8-10.2c37.5,10.2,47-14.4,47-14.4c-20.4,15.2-47-0.6-47-0.6
		S554.6,80,571,67.7S566.4,47,566.4,47c-3.6,0-10.7,10-10.7,10c-15.8-7.7-36.8,6.7-36.8,6.7c-24.5-7.8-36.2,14.4-36.2,14.4
		c3.4-1.8,8.9-2.2,10.2,2.5c1.3,4.8-9.8,4.4-9.8,4.4c-3.8-1.3-13.3-1-29.1,0.3c-18.1,1-23,18-23,18c8.6-7,20-7.8,24.1-6.4
		c4.1,1.4,0.8,3.7,2.8,4c2,0.3,10-1,10-1c-15.8-9.2-3.3-8.4-0.3-7.9c3.1,0.5,11.2,4.9,22.1-3.3c10.9-8.2,23.1-7.9,27.4-5.2
		s8.2,5.5-3.6,5.2c-11.7-0.3-20.7,7.9-29.1,13.3c-8.5,5.4-21.7,11.7-27,9.6c-5.4-2.1-13.8-1.5-17.4,0s-18.4,3.9-18.4,3.9
		c-4.3,1.8-17,1.8-17,1.8c20.9,13,46.1,7.4,47.9,8.5s-4.7,3.3-4.7,3.3c4.1,3.8,26.3,4.4,26.3,4.4c-1.8,5.9-24.5,2.1-24.5,2.1
		s8.9,8.1,13.5,10.4c4.6,2.3,30.9-2.6,34.7-4.6s8.8-0.7,11.4,0.9c2.6,1.6-7.6,3-7.6,3s3.9,5,7.8,4.5c7.7-5.7,9.1-12.5-0.3-16
		s-20.4,0-27.1,3.2c-6.6,3.2-1.5-6.8-1.5-6.8c-4.3,0.8-22.7-2.6-22.7-2.6s7.7-6.4,22.7-3.3c15.1,3.1,36.5-6.5,36.5-6.5
		c29.9-6.1,23,5.2,21.2,5.4s-2.8,2-5.4,3.6s-15.8,2-15.8,2c11.2,9.7,32.9,12,37.8,10.8c4.9-1.2,12.3-6.5,17.1-4.8s4.1,5-0.8,6
		c-4.9,1-16.9,8.4-16.9,8.4c3.3,0.8,19-4.3,19-4.3s7.3,4.5,11.9,5.5C598,137.7,579.9,129.2,568.2,128z M507.9,69.4
		c-2.3,0.2-0.8,2.1-3.6,3.4c-2.8,1.3-7.2-1-7.2-1c-3.9-4.1,6.7-5.9,10.8-5.6C512,66.4,510.2,69.2,507.9,69.4z M541.1,58.5
		c5.4-0.3,12.5,0.5,19.1,1.3c6.6,0.8,1.8,5.1,0,6s-2.8,2.1-6.9,0.7c-4.1-1.5-27.6,0-27.6,0C525.8,60.7,535.7,58.8,541.1,58.5z"/>
</g>
</svg>
