<?xml version="1.0" encoding="utf-8"?>
<!-- Generator: Adobe Illustrator 24.0.1, SVG Export Plug-In . SVG Version: 6.00 Build 0)  -->
<svg version="1.1" id="Calque_1" xmlns="http://www.w3.org/2000/svg" xmlns:xlink="http://www.w3.org/1999/xlink" x="0px" y="0px"
	 viewBox="0 0 509.33 509.1" style="enable-background:new 0 0 509.33 509.1;" xml:space="preserve">
<style type="text/css">
	.st0{fill:#FFFFFF;stroke:#FFFFFF;stroke-width:3.9068;}
	.st1{fill:#20284C;stroke:#20284C;stroke-width:0.7461;}
	.st2{fill:#00A2A2;stroke:#20284C;stroke-width:0.7124;}
	.st3{fill:#ED622B;}
	.st4{fill:#FFFFFF;}
	.st5{fill:none;stroke:#FFFFFF;stroke-width:2.097;}
	.st6{fill:#20284C;}
	.st7{fill:#00A2A2;}
	.st8{fill:#00A083;stroke:#002235;stroke-width:1.7018;}
	.st9{fill:#FFFFFF;stroke:#20284C;stroke-width:0.6807;}
	.st10{fill:#00A2A2;stroke:#20284C;stroke-width:0.6807;}
	.st11{fill:#002235;}
	.st12{fill:#20284C;stroke:#20284C;stroke-width:1.021;}
	.st13{fill:#002235;stroke:#002235;stroke-width:1.021;}
	.st14{fill:#FFE1C9;}
	.st15{fill:#4B506B;}
	.st16{fill:#FFFFFF;stroke:#20284C;stroke-width:0.6891;}
</style>
<g>
	<g>
		<path class="st0" d="M505.61,238.98c1.8-42.91-137.01-69.08-256.38-48.5C113.32,213.91-3.31,276.76,4.12,326.65
			c3.61,24.25,55.52,50.36,125.94,46.63c34.3,42.9,81.25,69.02,147.52,68.45c74.58-0.64,139.57-55.4,159.43-133.74
			C465.9,293.08,504.59,263.21,505.61,238.98z"/>
		<path class="st0" d="M498.6,239.02c1.75-40.29-131.13-67.51-248.77-45.55C118.44,218,4.79,274.51,12,321.37
			c3.51,22.77,53.87,47.3,122.2,43.8c33.29,40.29,78.84,64.82,143.14,64.29c72.36-0.6,135.43-52.03,154.7-125.61
			C460.07,289.83,497.62,261.78,498.6,239.02z"/>
		<path class="st0" d="M414.52,246.03c0,78.38-63.54,141.91-141.91,141.91c-78.37,0-141.91-63.53-141.91-141.91
			c0-78.37,63.54-141.91,141.91-141.91C350.99,104.12,414.52,167.66,414.52,246.03z"/>
		<path class="st0" d="M325.17,315.24C98.77,364.07,43.1,348.53,44.85,330.13c0,0,189.21,1.75,418.72-58.69
			C463.57,271.44,414.52,295.97,325.17,315.24z"/>
		<path class="st0" d="M223.56,375.68c148.92,8.76,187.1-93.22,187.1-93.22l-8.4,7.37c0,0-43.8,82.34-203.23,80.59
			C199.03,370.42,221.01,375.53,223.56,375.68z"/>
		<path class="st0" d="M305.39,120.24c23.73,15.12,54.12,59.57,32.04,125.8c-7.01,21.03-6.93,118.33,41.69,89.43"/>
		<path class="st0" d="M326.11,375.48C283.76,263.19,202,173.55,179.34,144c0,0,1.42-4.52,4.93-3.94
			c5.91,0.99,130.02,142.83,146.77,231.48L326.11,375.48z"/>
		<path class="st0" d="M178.62,336.44c13.46,11.21,58.95,18.22,58.95,18.22c73.4,8.25,17.52,35.04,17.52,35.04l12.26-1.75
			c10.51-8.76,36.1-33.69-14.71-38.95c-52.31-5.41-62.36-13.01-62.36-13.01s-4.77-5.04-1.64-6l-19.4,3.65L178.62,336.44z"/>
		<path class="st0" d="M296.43,119.98c0,0,73.79,43.57,46.44,142.03c-11.95,43.02,0.98,89.91,35.5,74.77
			c3.42-1.5,4.73-3.73,8.63-6.57c0,0-52.87,24.03-31.84-70.58C372.6,181.14,330.75,135.83,296.43,119.98z"/>
		<path class="st0" d="M334.97,372.53c-11.82-46.3-36.42-94.53-68.95-137.91c-41.53-55.38-62.06-84.71-79.79-96.53
			c0,0-3.41,1.37-3.94,3.94c-0.31,1.5,20.97,19.51,77.82,96.53c30.54,41.37,52.2,89.64,69.93,134.95L334.97,372.53z"/>
		<path class="st0" d="M169.24,328.38c12.26,12.26,66.57,21.02,66.57,21.02c85.47,13.51,23.1,38.92,23.1,38.92l-0.32-0.38
			c36.79-3.51,52.56-35.04-17.52-45.55c-24.81-3.72-43.43-18.31-40.3-19.27L169.24,328.38z"/>
		<path class="st0" d="M211.29,368.67c145.41,21.02,201.07-86.52,201.07-86.52l-4.49,2.69c0,0-93.22,118.87-229.87,57.55
			C178,342.39,208.77,368.31,211.29,368.67z"/>
		<path class="st0" d="M125.47,257.86c1.64,76.96,64.92,138.85,142.75,138.85c62.91,0,116.32-40.44,135.34-96.59
			c0,0-24.22,80.9-133.94,86.16c0,0-126.51-13.04-130.87-131.39L125.47,257.86z"/>
		<path class="st0" d="M144.72,265.31c11.9,107.13,120.89,115.63,120.89,115.63c101.45,7.1,142.72-93.4,142.72-93.4
			C393.52,342.27,332.9,393.2,269.98,393.2c-78.85,0-144.21-65.3-142.78-143.66c1.16-63.85,43.02-116.14,92.44-135.72
			C219.65,113.82,132.45,154.93,144.72,265.31z"/>
		<path class="st0" d="M113.18,261.8c0,0,308.35-47.3,318.86-49.06c0,0-3.5,63.07-10.51,70.08c0,0-222.5,49.06-292.58,49.06
			C128.95,331.88,113.18,279.32,113.18,261.8z"/>
		<polygon class="st0" points="135.08,239.02 167.49,213.62 203.41,166.32 222.84,101.06 232.48,93.18 244.88,81.39 252.46,68.65 
			273.49,69.77 281.53,89.68 285.04,110.7 297.3,95.81 305.19,92.3 317.45,81.79 323.23,80.03 329.55,80.03 342.85,108.07 
			358.62,134.35 370.72,140.04 400.62,174.09 410.09,196.19 		"/>
		<polygon class="st0" points="273.49,69.77 256.13,71.28 247.37,97.56 237.73,112.45 243.87,141.36 220.05,158.43 207.79,176.83 
			242.83,165.44 236.7,188.22 219.18,205.74 194.65,210.99 196.35,224.28 168.72,232.17 410.09,196.19 406.93,186.72 402.2,187.51 
			391.14,175.67 382.98,150.55 368.86,125.6 342.44,106.02 329.55,80.03 323.23,80.03 313.07,100.19 308.69,112.45 303.43,104.57 
			300.25,118.24 297.3,137.86 292.92,113.33 286.79,106.32 283.29,80.92 		"/>
		<polygon class="st0" points="135.08,239.02 167.49,213.62 203.41,166.32 222.84,101.06 232.48,93.18 244.88,81.39 252.46,68.65 
			273.49,69.77 281.53,89.68 285.04,110.7 297.3,95.81 305.19,92.3 317.45,81.79 323.23,80.03 329.55,80.03 342.85,108.07 
			358.62,134.35 370.72,140.04 400.62,174.09 410.09,196.19 		"/>
		<polygon class="st0" points="273.49,69.77 256.13,71.28 247.37,97.56 237.73,112.45 243.87,141.36 220.05,158.43 207.79,176.83 
			242.83,165.44 236.7,188.22 219.18,205.74 194.65,210.99 196.35,224.28 168.72,232.17 410.09,196.19 406.93,186.72 402.2,187.51 
			391.14,175.67 382.98,150.55 368.86,125.6 342.44,106.02 329.55,80.03 323.23,80.03 313.07,100.19 308.69,112.45 303.43,104.57 
			300.25,118.24 297.3,137.86 292.92,113.33 286.79,106.32 283.29,80.92 		"/>
		<path class="st0" d="M459.74,169.89c0,0,1.92,10.35-2.39,14.38c0,0,3.66-9.59,0.08-13.05L459.74,169.89z"/>
		<polygon class="st0" points="48.35,319.21 56.26,286.72 80.67,286.17 79.36,291.55 65.7,291.86 63.85,299.47 76.36,299.19 
			75.05,304.57 62.54,304.85 60.41,313.59 74.07,313.27 72.76,318.65 		"/>
		<polygon class="st0" points="77.84,318.4 84.7,285.96 95.52,285.39 89.8,312.46 103.55,311.75 102.41,317.12 		"/>
		<path class="st0" d="M128.38,301.44l-8.42,0.6l6.43-11.25L128.38,301.44 M142.37,314.31l-5.67-31.55l-10.87,0.78l-19.76,33.38
			l5.26-0.38l5.39-8.98l12.51-0.9l1.6,8.47L142.37,314.31z"/>
		<polygon class="st0" points="163.74,312.39 156.45,286.68 156.36,286.69 151.85,313.47 147.11,313.9 152.56,281.56 166.82,280.27 
			173.99,305.59 174.12,305.58 178.57,279.2 183.3,278.77 177.86,311.12 		"/>
		<path class="st0" d="M221.71,285.42c-0.18,1.36-0.6,1.85-1.82,2l-6.6,0.79l1.03-7.55l6.6-0.79c1.12-0.14,1.52,0.16,1.34,1.52
			L221.71,285.42 M230.66,298.87l0.79-5.79c0.48-3.53-1.8-3.65-5.63-3.74l0.01-0.1c3.59-0.72,6.36-1.65,6.9-5.63l0.57-4.18
			c0.59-4.33-1.29-6.14-6.54-5.51l-22.66,2.71l-4.38,32.23l22.67-2.71C227.86,305.49,230.1,302.95,230.66,298.87 M219.8,299.47
			c-0.19,1.41-0.69,1.82-1.81,1.95l-6.6,0.79l1.18-8.66l6.6-0.79c1.08-0.13,1.54,0.06,1.33,1.58L219.8,299.47z"/>
		<polygon class="st0" points="235.02,304.53 238.54,272.41 263.48,268.87 262.89,274.19 248.94,276.17 248.11,283.7 260.89,281.89 
			260.31,287.2 247.53,289.02 246.58,297.65 260.53,295.67 259.95,300.99 		"/>
		<path class="st0" d="M285.1,283.43l-8.52,1.32l5.44-11.5L285.1,283.43 M300.64,294.74l-8.91-30.2l-11,1.7l-16.83,34.18l5.32-0.82
			l4.6-9.2l12.66-1.96l2.47,8.1L300.64,294.74z"/>
		<path class="st0" d="M326.04,269.77c-0.1,1.3-0.46,1.85-1.76,2.07l-6.41,1.08l0.59-7.49l6.41-1.08c1.17-0.2,1.6,0.03,1.48,1.52
			L326.04,269.77 M337.04,288.61l-4.96-12.86c3.61-0.61,4.58-2.8,4.8-5.59l0.48-6.14c0.42-5.39-1.84-6.69-6.58-5.89L307.86,262
			l-2.5,31.96l11.01-1.86l1.09-13.88l3.38-0.57l4.15,13L337.04,288.61z"/>
		<polygon class="st0" points="357.23,284.9 346.86,260.73 346.77,260.75 345.21,287.13 340.42,288.01 342.3,256.16 356.72,253.49 
			366.93,277.3 367.06,277.27 368.6,251.29 373.39,250.41 371.51,282.26 		"/>
		<path class="st0" d="M396.78,263.41l-8.55,1.8l4.75-11.62L396.78,263.41 M413.29,273.61l-11.06-29.14l-11.04,2.32l-14.77,34.57
			l5.34-1.12l4.05-9.31l12.71-2.67l3.05,7.82L413.29,273.61z"/>
		<polygon class="st0" points="418.35,272.32 418.17,240.91 429.21,238.27 429.39,269.68 		"/>
		<path class="st0" d="M456.5,262.41l-21.33,6l-0.29-5.14l15.45-4.34c1.4-0.39,1.7-0.82,1.64-1.84l-0.12-2.13
			c-0.06-1.07-0.53-1.23-1.93-0.84l-9.44,2.66c-4.16,1.17-5.97-0.04-6.25-4.84l-0.43-7.41c-0.23-3.82,1.34-7.61,5.46-8.77
			l21.96-6.18l0.3,5.13L446.28,239c-1.49,0.42-1.93,0.84-1.87,1.8l0.12,1.99c0.06,0.92,0.52,1.08,2.01,0.67l8.23-2.31
			c4.2-1.18,7.1-0.23,7.34,3.98l0.47,8.14C462.86,258.06,460.97,261.15,456.5,262.41z"/>
		<polygon class="st0" points="50.73,316.18 58.64,283.69 83.04,283.14 81.73,288.52 68.07,288.83 66.22,296.44 78.73,296.16 
			77.42,301.54 64.91,301.83 62.78,310.55 76.44,310.24 75.13,315.62 		"/>
		<polygon class="st0" points="80.21,315.37 87.07,282.93 97.89,282.36 92.17,309.43 105.92,308.72 104.78,314.09 		"/>
		<path class="st0" d="M130.75,298.41l-8.42,0.61l6.43-11.25L130.75,298.41 M144.74,311.28l-5.67-31.55l-10.87,0.78l-19.76,33.38
			l5.26-0.38l5.39-8.98l12.52-0.9l1.6,8.47L144.74,311.28z"/>
		<polygon class="st0" points="166.11,309.36 158.82,283.65 158.73,283.66 154.22,310.44 149.49,310.87 154.93,278.53 
			169.19,277.23 176.36,302.56 176.5,302.55 180.94,276.17 185.68,275.74 180.23,308.09 		"/>
		<path class="st0" d="M224.08,282.39c-0.18,1.36-0.61,1.85-1.82,2l-6.6,0.79l1.03-7.56l6.6-0.79c1.12-0.14,1.52,0.16,1.34,1.52
			L224.08,282.39 M233.03,295.84l0.79-5.79c0.48-3.52-1.8-3.65-5.63-3.74l0.01-0.1c3.59-0.73,6.36-1.65,6.9-5.63l0.57-4.18
			c0.59-4.33-1.29-6.14-6.54-5.51l-22.67,2.71l-4.38,32.23l22.67-2.7C230.23,302.46,232.48,299.91,233.03,295.84 M222.18,296.44
			c-0.19,1.41-0.69,1.82-1.81,1.95l-6.6,0.79l1.18-8.66l6.6-0.79c1.08-0.13,1.54,0.07,1.33,1.58L222.18,296.44z"/>
		<polygon class="st0" points="237.39,301.5 240.91,269.38 265.85,265.84 265.26,271.16 251.31,273.14 250.49,280.67 263.27,278.85 
			262.68,284.17 249.9,285.99 248.95,294.62 262.91,292.64 262.32,297.96 		"/>
		<path class="st0" d="M287.47,280.4l-8.52,1.32l5.44-11.5L287.47,280.4 M303.01,291.71l-8.91-30.2l-11,1.7l-16.83,34.18l5.32-0.82
			l4.6-9.2l12.66-1.96l2.47,8.1L303.01,291.71z"/>
		<path class="st0" d="M328.42,266.74c-0.1,1.3-0.46,1.85-1.77,2.07l-6.41,1.08l0.59-7.49l6.41-1.08c1.17-0.2,1.6,0.03,1.48,1.52
			L328.42,266.74 M339.41,285.58l-4.96-12.86c3.61-0.61,4.58-2.79,4.8-5.59l0.49-6.14c0.42-5.39-1.84-6.69-6.57-5.89l-22.93,3.87
			l-2.5,31.96l11.01-1.86l1.09-13.88l3.38-0.57l4.15,13L339.41,285.58z"/>
		<polygon class="st0" points="359.6,281.87 349.24,257.7 349.14,257.72 347.58,284.1 342.79,284.98 344.68,253.13 359.09,250.46 
			369.3,274.27 369.43,274.24 370.97,248.26 375.76,247.38 373.88,279.23 		"/>
		<path class="st0" d="M399.15,260.38l-8.55,1.79l4.75-11.62L399.15,260.38 M415.67,270.58l-11.06-29.14l-11.03,2.32l-14.77,34.57
			l5.33-1.12l4.05-9.31l12.71-2.67l3.05,7.82L415.67,270.58z"/>
		<polygon class="st0" points="420.72,269.29 420.54,237.88 431.58,235.24 431.76,266.65 		"/>
		<path class="st0" d="M458.87,259.38l-21.33,6l-0.3-5.13l15.45-4.35c1.4-0.39,1.7-0.82,1.64-1.84l-0.12-2.13
			c-0.06-1.07-0.53-1.23-1.93-0.83l-9.44,2.66c-4.16,1.17-5.98-0.05-6.25-4.84l-0.43-7.41c-0.22-3.82,1.35-7.61,5.46-8.77
			l21.96-6.17l0.3,5.13l-15.22,4.29c-1.49,0.42-1.93,0.84-1.87,1.8l0.11,1.98c0.05,0.92,0.52,1.08,2.01,0.67l8.23-2.31
			c4.2-1.18,7.1-0.23,7.35,3.99l0.47,8.14C465.23,255.03,463.34,258.12,458.87,259.38z"/>
		<polygon class="st0" points="50.73,316.18 58.64,283.69 83.04,283.14 81.73,288.52 68.07,288.83 66.22,296.44 78.73,296.16 
			77.42,301.54 64.91,301.83 62.78,310.55 76.44,310.24 75.13,315.62 		"/>
		<polygon class="st0" points="80.21,315.37 87.07,282.93 97.89,282.36 92.17,309.43 105.92,308.72 104.78,314.09 		"/>
		<path class="st0" d="M130.75,298.41l-8.42,0.61l6.43-11.25L130.75,298.41 M144.74,311.28l-5.67-31.55l-10.87,0.78l-19.76,33.38
			l5.26-0.38l5.39-8.98l12.52-0.9l1.6,8.47L144.74,311.28z"/>
		<polygon class="st0" points="166.11,309.36 158.82,283.65 158.73,283.66 154.22,310.44 149.49,310.87 154.93,278.53 
			169.19,277.23 176.36,302.56 176.5,302.55 180.94,276.17 185.68,275.74 180.23,308.09 		"/>
		<path class="st0" d="M224.08,282.39c-0.18,1.36-0.61,1.85-1.82,2l-6.6,0.79l1.03-7.56l6.6-0.79c1.12-0.14,1.52,0.16,1.34,1.52
			L224.08,282.39 M233.03,295.84l0.79-5.79c0.48-3.52-1.8-3.65-5.63-3.74l0.01-0.1c3.59-0.73,6.36-1.65,6.9-5.63l0.57-4.18
			c0.59-4.33-1.29-6.14-6.54-5.51l-22.67,2.71l-4.38,32.23l22.67-2.7C230.23,302.46,232.48,299.91,233.03,295.84 M222.18,296.44
			c-0.19,1.41-0.69,1.82-1.81,1.95l-6.6,0.79l1.18-8.66l6.6-0.79c1.08-0.13,1.54,0.07,1.33,1.58L222.18,296.44z"/>
		<polygon class="st0" points="237.39,301.5 240.91,269.38 265.85,265.84 265.26,271.16 251.31,273.14 250.49,280.67 263.27,278.85 
			262.68,284.17 249.9,285.99 248.95,294.62 262.91,292.64 262.32,297.96 		"/>
		<path class="st0" d="M287.47,280.4l-8.52,1.32l5.44-11.5L287.47,280.4 M303.01,291.71l-8.91-30.2l-11,1.7l-16.83,34.18l5.32-0.82
			l4.6-9.2l12.66-1.96l2.47,8.1L303.01,291.71z"/>
		<path class="st0" d="M328.42,266.74c-0.1,1.3-0.46,1.85-1.77,2.07l-6.41,1.08l0.59-7.49l6.41-1.08c1.17-0.2,1.6,0.03,1.48,1.52
			L328.42,266.74 M339.41,285.58l-4.96-12.86c3.61-0.61,4.58-2.79,4.8-5.59l0.49-6.14c0.42-5.39-1.84-6.69-6.57-5.89l-22.93,3.87
			l-2.5,31.96l11.01-1.86l1.09-13.88l3.38-0.57l4.15,13L339.41,285.58z"/>
		<polygon class="st0" points="359.6,281.87 349.24,257.7 349.14,257.72 347.58,284.1 342.79,284.98 344.68,253.13 359.09,250.46 
			369.3,274.27 369.43,274.24 370.97,248.26 375.76,247.38 373.88,279.23 		"/>
		<path class="st0" d="M399.15,260.38l-8.55,1.79l4.75-11.62L399.15,260.38 M415.67,270.58l-11.06-29.14l-11.03,2.32l-14.77,34.57
			l5.33-1.12l4.05-9.31l12.71-2.67l3.05,7.82L415.67,270.58z"/>
		<polygon class="st0" points="420.72,269.29 420.54,237.88 431.58,235.24 431.76,266.65 		"/>
		<path class="st0" d="M458.87,259.38l-21.33,6l-0.3-5.13l15.45-4.35c1.4-0.39,1.7-0.82,1.64-1.84l-0.12-2.13
			c-0.06-1.07-0.53-1.23-1.93-0.83l-9.44,2.66c-4.16,1.17-5.98-0.05-6.25-4.84l-0.43-7.41c-0.22-3.82,1.35-7.61,5.46-8.77
			l21.96-6.17l0.3,5.13l-15.22,4.29c-1.49,0.42-1.93,0.84-1.87,1.8l0.11,1.98c0.05,0.92,0.52,1.08,2.01,0.67l8.23-2.31
			c4.2-1.18,7.1-0.23,7.35,3.99l0.47,8.14C465.23,255.03,463.34,258.12,458.87,259.38z"/>
		<path class="st0" d="M326.92,310.86c-207.96,45.62-281.54,33.8-282.85,18.03c0,0,186.58,6.57,423.07-60.44
			C467.14,268.45,416.2,291.27,326.92,310.86z"/>
		<path class="st0" d="M426.71,153.17l26.39,1.04l6.26-1.22l3.08,16.33l-0.78,10.1c0,0-4.14,6.26-4.84,7.14c0,0-4.98,5.83-5.58,6.15
			c-19.6,10.4-41.86,16.67-41.86,16.67l-0.66-37.12l6.24-8.44L426.71,153.17z"/>
		<path class="st0" d="M460.52,152.02c-2.3-0.15-29.77-1.04-29.77-1.04s1.59-3.79,1.1-5.5c-0.49-1.71-27.4-4.89-28.63-5.5
			c-1.22-0.61-1.1-5.26-2.45-6.49c-1.34-1.22-10.28-0.12-11.99,0.98c-1.71,1.1-4.71,6.4-5.68,6.77c-0.98,0.37-11.69,0.08-12.91-0.16
			c-1.22-0.25-8.07-5.87-12.11-6.61c-1.34-0.24-10.89,3.18-12.11,4.4c-1.22,1.22-1.41,5.17-1.41,5.17s-16.94,2.41-61.34,19.05
			c-4.39,1.64,23.58,1.42,17.49,1.47c-8.19,0.06-27.89,7.83-41.71,13.94c-6.14,2.71,26.74,0.17,19.75,2.71
			c-9.04,3.29-10.88,5.11-24.45,12.35c-19.71,10.51-22.56,12.77-43,20.94c0,0-110.37,44.67-47.3,2.63c0,0-162.03,60.14-15.44,53.77
			c48.7-2.11,125.33-9.99,230.93-31.87c11.04-2.1,31.44-17.92,37.67-23.65c5.26-5.26,10.68-9.81,14.89-11.39l24.65-13l5.01-9.45
			c0.6-2.37,1.29-6.31,1.29-6.31l-0.4-11.95C462.96,161.28,467.07,152.45,460.52,152.02z M461.63,175.96l-1.09,4.65l-3.72,5.96
			l-2.86,3.18c-4.32,2.27-21.05,9.86-21.05,9.86s-18.05,0.17-18.4-9.64c-0.23-6.35,0.06-15.05,0.3-16.09
			c0.61-2.69,9.66-19.05,14.01-19.17c1.69-0.04,6.51,0.61,17.36,0.34c-4.3,5.18-1.03,10.64,3.16,14.09c0,0,4.37,3.1,9.56,2.35
			l2.94-4.69L461.63,175.96z"/>
		<path class="st0" d="M350.38,139.96c0,0,6.85-3.18,9.3-1.84c2.45,1.35,13.82,12.85,13.82,12.85l1.35-5.02l8.07-1.47l22.02,1.96
			l-12.72-3.43l36.33,4.28l-0.37,3.67c0,0-10.73,5.71-15.34,11.49c-1.46,1.83-0.48,6.34-1.87,8.28c-0.88,1.23-5.62,11.87-16.56,4.39
			c-6.68-4.58-10.22-0.64-12.59-3.27c-0.18-0.2,11.35-18.25,21.61-13.43c3.21,1.51,7.69,3.87,7.69,3.87s-8.8-10.49-17.93-8.34
			c-2.98,0.7-34.37,8.23-34.37,8.23l14.67-7.54c0,0-10.87-12.12-13.57-13.59C357.22,139.6,350.38,139.96,350.38,139.96z"/>
		<path class="st0" d="M312.67,176.79l-34.16,12.09l23.13,2.63l-44.65,23.28c0,0,35.91,1.3,70.4-3.83h-57.64l43.97-22.07l-21.02-2.1
			L312.67,176.79z"/>
		<path class="st0" d="M269.58,199.39c-73.58,36.79-173.91,64.16-127.49,30.87c0,0-88.91,39.42,4.82,31.97
			c0,0,63.04-2.15,164.25-26.72l-69.2-1.75l26.57-8.1c0,0-26.57-3.29-36.21-3.29L269.58,199.39z"/>
		<path class="st0" d="M389.9,171.25c0,0-0.49-4.64,8.85-8.15c9.29-3.48,8.02,0,14.6,1.17c-0.53,3.83-0.59,13.43-15.37,11.02
			C397.98,175.29,393.17,172.96,389.9,171.25z"/>
		<path class="st0" d="M395.54,171.87c0,0,1.78-5.75,5.59-6.08c0,0-3.59,3.82,0.74,7.22C401.86,173.01,398.71,173.38,395.54,171.87z
			"/>
		<polygon class="st0" points="406.35,165.74 406.05,167.78 407.8,167.19 		"/>
		<path class="st0" d="M430.94,188.26c8.22,0.95,22.95,4.37,30.72-8.83c0,0-8.33,14.2-31.25,6.82c0,0-8.62-2.83-5.46,1.37
			C424.95,187.62,427.46,187.85,430.94,188.26z"/>
		<path class="st0" d="M343.51,148.06c0,0-0.5,12.48,1.4,16.82c0,0-5.93-9.63-7.71-10.51c-3.51-1.75-11.39-0.7-15.07-1.22
			C322.13,153.14,330.89,150.86,343.51,148.06z"/>
		<path class="st0" d="M457.74,155.59c0,0-11.3,5.19-1.75,14.02C455.99,169.61,441.16,159.15,457.74,155.59z"/>
	</g>
	<g>
		<path class="st1" d="M505.61,238.98c1.8-42.91-137.01-69.08-256.38-48.5C113.32,213.91-3.31,276.76,4.12,326.65
			c3.61,24.25,55.52,50.36,125.94,46.63c34.3,42.9,81.25,69.02,147.52,68.45c74.58-0.64,139.57-55.4,159.43-133.74
			C465.9,293.08,504.59,263.21,505.61,238.98z"/>
		<path class="st2" d="M498.6,239.03c1.75-40.29-131.13-67.51-248.77-45.55C118.44,218,4.79,274.51,12,321.37
			c3.51,22.77,53.87,47.3,122.2,43.8c33.29,40.29,78.84,64.82,143.14,64.29c72.36-0.6,135.43-52.03,154.7-125.61
			C460.07,289.83,497.62,261.78,498.6,239.03z"/>
		<path class="st3" d="M414.52,246.03c0,78.38-63.54,141.91-141.91,141.91c-78.37,0-141.91-63.53-141.91-141.91
			c0-78.37,63.54-141.91,141.91-141.91C350.99,104.12,414.52,167.66,414.52,246.03z"/>
		<path class="st4" d="M325.17,315.24C98.77,364.07,43.1,348.53,44.85,330.13c0,0,189.21,1.75,418.72-58.69
			C463.57,271.44,414.52,295.97,325.17,315.24z"/>
		<path class="st4" d="M223.56,375.68c148.92,8.76,187.1-93.22,187.1-93.22l-8.4,7.37c0,0-43.8,82.34-203.23,80.59
			C199.03,370.42,221.01,375.53,223.56,375.68z"/>
		<path class="st5" d="M305.39,120.24c23.73,15.12,54.12,59.57,32.04,125.8c-7.01,21.02-6.93,118.33,41.69,89.43"/>
		<path class="st4" d="M326.11,375.48C283.76,263.19,202,173.55,179.34,144c0,0,1.42-4.52,4.93-3.94
			c5.91,0.99,130.02,142.83,146.77,231.48L326.11,375.48z"/>
		<path class="st4" d="M178.62,336.44c13.46,11.21,58.95,18.22,58.95,18.22c73.4,8.25,17.52,35.04,17.52,35.04l12.26-1.75
			c10.51-8.76,36.1-33.69-14.71-38.95c-52.31-5.41-62.36-13.01-62.36-13.01s-4.77-5.04-1.64-6l-19.4,3.65L178.62,336.44z"/>
		<path class="st6" d="M296.43,119.98c0,0,73.79,43.57,46.44,142.03c-11.95,43.02,0.98,89.91,35.5,74.77
			c3.42-1.5,4.73-3.73,8.63-6.57c0,0-52.87,24.03-31.84-70.58C372.6,181.14,330.75,135.83,296.43,119.98z"/>
		<path class="st6" d="M334.97,372.53c-11.82-46.3-36.42-94.53-68.95-137.9c-41.53-55.38-62.06-84.71-79.79-96.53
			c0,0-3.41,1.37-3.94,3.94c-0.31,1.5,20.97,19.51,77.82,96.53c30.54,41.37,52.2,89.64,69.93,134.95L334.97,372.53z"/>
		<path class="st6" d="M169.24,328.38c12.26,12.26,66.57,21.02,66.57,21.02c85.47,13.51,23.1,38.92,23.1,38.92l-0.32-0.38
			c36.79-3.51,52.56-35.04-17.52-45.55c-24.81-3.72-43.43-18.31-40.3-19.27L169.24,328.38z"/>
		<path class="st6" d="M211.29,368.67c145.41,21.02,201.07-86.52,201.07-86.52l-4.49,2.69c0,0-93.22,118.87-229.87,57.55
			C178,342.39,208.77,368.31,211.29,368.67z"/>
		<path class="st4" d="M125.47,257.86c1.64,76.96,64.92,138.85,142.75,138.85c62.91,0,116.32-40.44,135.34-96.59
			c0,0-24.22,80.9-133.94,86.16c0,0-126.51-13.04-130.87-131.39L125.47,257.86z"/>
		<path class="st6" d="M144.72,265.31c11.9,107.13,120.89,115.63,120.89,115.63c101.45,7.1,142.72-93.4,142.72-93.4
			C393.52,342.27,332.9,393.2,269.98,393.2c-78.85,0-144.21-65.3-142.78-143.66c1.16-63.85,43.02-116.14,92.44-135.72
			C219.65,113.82,132.45,154.93,144.72,265.31z"/>
		<path class="st7" d="M113.18,261.8c0,0,308.35-47.3,318.86-49.05c0,0-3.5,63.07-10.51,70.08c0,0-222.5,49.06-292.58,49.06
			C128.95,331.88,113.18,279.32,113.18,261.8z"/>
		<polygon class="st8" points="135.08,239.03 167.49,213.62 203.41,166.32 222.84,101.06 232.48,93.18 244.88,81.39 252.46,68.65 
			273.49,69.77 281.53,89.68 285.04,110.7 297.3,95.81 305.19,92.31 317.45,81.79 323.23,80.03 329.55,80.03 342.85,108.07 
			358.62,134.35 370.72,140.04 400.62,174.09 410.09,196.19 		"/>
		<polygon class="st8" points="273.49,69.77 256.13,71.28 247.37,97.56 237.73,112.45 243.87,141.36 220.05,158.44 207.79,176.83 
			242.83,165.44 236.7,188.22 219.18,205.74 194.65,210.99 196.35,224.28 168.72,232.17 410.09,196.19 406.93,186.72 402.2,187.51 
			391.14,175.67 382.98,150.55 368.86,125.6 342.44,106.02 329.55,80.03 323.23,80.03 313.07,100.19 308.69,112.45 303.43,104.57 
			300.25,118.24 297.3,137.86 292.92,113.33 286.79,106.32 283.29,80.92 		"/>
		<polygon class="st9" points="135.08,239.03 167.49,213.62 203.41,166.32 222.84,101.06 232.48,93.18 244.88,81.39 252.46,68.65 
			273.49,69.77 281.53,89.68 285.04,110.7 297.3,95.81 305.19,92.31 317.45,81.79 323.23,80.03 329.55,80.03 342.85,108.07 
			358.62,134.35 370.72,140.04 400.62,174.09 410.09,196.19 		"/>
		<polygon class="st10" points="273.49,69.77 256.13,71.28 247.37,97.56 237.73,112.45 243.87,141.36 220.05,158.44 207.79,176.83 
			242.83,165.44 236.7,188.22 219.18,205.74 194.65,210.99 196.35,224.28 168.72,232.17 410.09,196.19 406.93,186.72 402.2,187.51 
			391.14,175.67 382.98,150.55 368.86,125.6 342.44,106.02 329.55,80.03 323.23,80.03 313.07,100.19 308.69,112.45 303.43,104.57 
			300.25,118.24 297.3,137.86 292.92,113.33 286.79,106.32 283.29,80.92 		"/>
		<path class="st11" d="M459.74,169.89c0,0,1.92,10.35-2.39,14.38c0,0,3.66-9.59,0.08-13.05L459.74,169.89z"/>
		<polygon class="st12" points="48.35,319.21 56.26,286.72 80.67,286.17 79.36,291.55 65.7,291.86 63.85,299.47 76.36,299.19 
			75.05,304.57 62.54,304.85 60.41,313.59 74.07,313.27 72.76,318.65 		"/>
		<polygon class="st12" points="77.84,318.4 84.7,285.96 95.52,285.39 89.8,312.46 103.55,311.75 102.41,317.12 		"/>
		<path class="st12" d="M128.38,301.44l-8.42,0.6l6.43-11.25L128.38,301.44 M142.37,314.31l-5.67-31.55l-10.87,0.78l-19.76,33.38
			l5.26-0.38l5.39-8.98l12.51-0.9l1.6,8.47L142.37,314.31z"/>
		<polygon class="st12" points="163.74,312.39 156.45,286.68 156.36,286.69 151.85,313.47 147.11,313.9 152.56,281.56 
			166.82,280.27 173.99,305.59 174.12,305.58 178.57,279.2 183.3,278.77 177.86,311.12 		"/>
		<path class="st12" d="M221.71,285.42c-0.18,1.36-0.6,1.85-1.82,2l-6.6,0.79l1.03-7.55l6.6-0.79c1.12-0.14,1.52,0.16,1.34,1.52
			L221.71,285.42 M230.66,298.87l0.79-5.79c0.48-3.53-1.8-3.65-5.63-3.74l0.01-0.1c3.59-0.72,6.36-1.65,6.9-5.63l0.57-4.18
			c0.59-4.33-1.29-6.14-6.54-5.51l-22.66,2.71l-4.38,32.23l22.67-2.71C227.86,305.49,230.1,302.95,230.66,298.87 M219.8,299.47
			c-0.19,1.41-0.69,1.82-1.81,1.95l-6.6,0.79l1.18-8.66l6.6-0.79c1.08-0.13,1.54,0.06,1.33,1.58L219.8,299.47z"/>
		<polygon class="st12" points="235.02,304.53 238.54,272.41 263.48,268.87 262.89,274.19 248.94,276.17 248.11,283.7 
			260.89,281.89 260.31,287.2 247.53,289.02 246.58,297.65 260.53,295.67 259.95,300.99 		"/>
		<path class="st12" d="M285.1,283.43l-8.52,1.32l5.44-11.5L285.1,283.43 M300.64,294.74l-8.91-30.2l-11,1.7l-16.83,34.18l5.32-0.82
			l4.6-9.2l12.66-1.96l2.47,8.1L300.64,294.74z"/>
		<path class="st12" d="M326.04,269.77c-0.1,1.3-0.46,1.85-1.76,2.07l-6.41,1.08l0.59-7.49l6.41-1.08c1.17-0.2,1.6,0.03,1.48,1.52
			L326.04,269.77 M337.04,288.61l-4.96-12.86c3.61-0.61,4.58-2.8,4.8-5.59l0.48-6.14c0.42-5.39-1.84-6.69-6.58-5.88L307.86,262
			l-2.5,31.96l11.01-1.86l1.09-13.88l3.38-0.57l4.15,13L337.04,288.61z"/>
		<polygon class="st12" points="357.23,284.9 346.86,260.73 346.77,260.75 345.21,287.13 340.42,288.01 342.3,256.16 356.72,253.5 
			366.93,277.3 367.06,277.27 368.6,251.3 373.39,250.41 371.51,282.26 		"/>
		<path class="st12" d="M396.78,263.41l-8.55,1.8l4.75-11.62L396.78,263.41 M413.29,273.61l-11.06-29.14l-11.04,2.32l-14.77,34.57
			l5.34-1.12l4.05-9.31l12.71-2.67l3.05,7.82L413.29,273.61z"/>
		<polygon class="st12" points="418.35,272.32 418.17,240.91 429.21,238.27 429.39,269.68 		"/>
		<path class="st12" d="M456.5,262.41l-21.33,6l-0.29-5.14l15.45-4.34c1.4-0.39,1.7-0.82,1.64-1.84l-0.12-2.13
			c-0.06-1.07-0.53-1.23-1.93-0.83l-9.44,2.66c-4.16,1.17-5.97-0.04-6.25-4.84l-0.43-7.41c-0.23-3.82,1.34-7.61,5.46-8.77
			l21.96-6.18l0.3,5.13L446.28,239c-1.49,0.42-1.93,0.84-1.87,1.8l0.12,1.99c0.06,0.92,0.52,1.08,2.01,0.67l8.23-2.31
			c4.2-1.18,7.1-0.23,7.34,3.98l0.47,8.14C462.86,258.06,460.97,261.15,456.5,262.41z"/>
		<polygon class="st13" points="50.73,316.18 58.64,283.69 83.04,283.14 81.73,288.52 68.07,288.83 66.22,296.44 78.73,296.16 
			77.42,301.54 64.91,301.83 62.78,310.55 76.44,310.24 75.13,315.62 		"/>
		<polygon class="st13" points="80.21,315.37 87.07,282.93 97.89,282.36 92.17,309.43 105.92,308.72 104.78,314.09 		"/>
		<path class="st13" d="M130.75,298.41l-8.42,0.61l6.43-11.25L130.75,298.41 M144.74,311.28l-5.67-31.55l-10.87,0.78l-19.76,33.38
			l5.26-0.38l5.39-8.98l12.52-0.9l1.6,8.47L144.74,311.28z"/>
		<polygon class="st13" points="166.11,309.36 158.82,283.65 158.73,283.66 154.22,310.44 149.49,310.87 154.93,278.53 
			169.19,277.23 176.36,302.56 176.5,302.55 180.94,276.17 185.68,275.74 180.23,308.09 		"/>
		<path class="st13" d="M224.08,282.39c-0.18,1.36-0.61,1.85-1.82,2l-6.6,0.79l1.03-7.56l6.6-0.79c1.12-0.14,1.52,0.16,1.34,1.52
			L224.08,282.39 M233.03,295.84l0.79-5.79c0.48-3.52-1.8-3.65-5.63-3.74l0.01-0.1c3.59-0.73,6.36-1.65,6.9-5.63l0.57-4.18
			c0.59-4.33-1.29-6.14-6.54-5.51l-22.67,2.71l-4.38,32.23l22.67-2.7C230.23,302.46,232.48,299.91,233.03,295.84 M222.18,296.44
			c-0.19,1.41-0.69,1.82-1.81,1.95l-6.6,0.79l1.18-8.66l6.6-0.79c1.08-0.13,1.54,0.07,1.33,1.58L222.18,296.44z"/>
		<polygon class="st13" points="237.39,301.5 240.91,269.38 265.85,265.84 265.26,271.16 251.31,273.14 250.49,280.67 
			263.27,278.85 262.68,284.17 249.9,285.99 248.95,294.62 262.91,292.64 262.32,297.96 		"/>
		<path class="st13" d="M287.47,280.4l-8.52,1.32l5.44-11.5L287.47,280.4 M303.01,291.71l-8.91-30.2l-11,1.7l-16.83,34.18l5.32-0.82
			l4.6-9.2l12.66-1.96l2.47,8.1L303.01,291.71z"/>
		<path class="st13" d="M328.42,266.74c-0.1,1.3-0.46,1.85-1.77,2.07l-6.41,1.08l0.59-7.49l6.41-1.08c1.17-0.2,1.6,0.03,1.48,1.52
			L328.42,266.74 M339.41,285.58l-4.96-12.86c3.61-0.61,4.58-2.79,4.8-5.59l0.49-6.14c0.42-5.39-1.84-6.68-6.57-5.88l-22.93,3.87
			l-2.5,31.96l11.01-1.86l1.09-13.88l3.38-0.57l4.15,13L339.41,285.58z"/>
		<polygon class="st13" points="359.6,281.87 349.24,257.7 349.14,257.72 347.58,284.1 342.79,284.98 344.68,253.13 359.09,250.46 
			369.3,274.27 369.43,274.24 370.97,248.26 375.76,247.38 373.88,279.23 		"/>
		<path class="st13" d="M399.15,260.38l-8.55,1.79l4.75-11.62L399.15,260.38 M415.67,270.58l-11.06-29.14l-11.03,2.32l-14.77,34.57
			l5.33-1.12l4.05-9.31l12.71-2.67l3.05,7.82L415.67,270.58z"/>
		<polygon class="st13" points="420.72,269.29 420.54,237.88 431.58,235.24 431.76,266.65 		"/>
		<path class="st13" d="M458.87,259.38l-21.33,6l-0.3-5.13l15.45-4.35c1.4-0.39,1.7-0.82,1.64-1.84l-0.12-2.13
			c-0.06-1.07-0.53-1.23-1.93-0.83l-9.44,2.66c-4.16,1.17-5.98-0.05-6.25-4.84l-0.43-7.41c-0.22-3.82,1.35-7.61,5.46-8.77
			l21.96-6.17l0.3,5.13l-15.22,4.29c-1.49,0.42-1.93,0.84-1.87,1.8l0.11,1.99c0.05,0.92,0.52,1.08,2.01,0.67l8.23-2.31
			c4.2-1.18,7.1-0.23,7.35,3.99l0.47,8.14C465.23,255.03,463.34,258.12,458.87,259.38z"/>
		<polygon class="st4" points="50.73,316.18 58.64,283.69 83.04,283.14 81.73,288.52 68.07,288.83 66.22,296.44 78.73,296.16 
			77.42,301.54 64.91,301.83 62.78,310.55 76.44,310.24 75.13,315.62 		"/>
		<polygon class="st4" points="80.21,315.37 87.07,282.93 97.89,282.36 92.17,309.43 105.92,308.72 104.78,314.09 		"/>
		<path class="st4" d="M130.75,298.41l-8.42,0.61l6.43-11.25L130.75,298.41 M144.74,311.28l-5.67-31.55l-10.87,0.78l-19.76,33.38
			l5.26-0.38l5.39-8.98l12.52-0.9l1.6,8.47L144.74,311.28z"/>
		<polygon class="st4" points="166.11,309.36 158.82,283.65 158.73,283.66 154.22,310.44 149.49,310.87 154.93,278.53 
			169.19,277.23 176.36,302.56 176.5,302.55 180.94,276.17 185.68,275.74 180.23,308.09 		"/>
		<path class="st4" d="M224.08,282.39c-0.18,1.36-0.61,1.85-1.82,2l-6.6,0.79l1.03-7.56l6.6-0.79c1.12-0.14,1.52,0.16,1.34,1.52
			L224.08,282.39 M233.03,295.84l0.79-5.79c0.48-3.52-1.8-3.65-5.63-3.74l0.01-0.1c3.59-0.73,6.36-1.65,6.9-5.63l0.57-4.18
			c0.59-4.33-1.29-6.14-6.54-5.51l-22.67,2.71l-4.38,32.23l22.67-2.7C230.23,302.46,232.48,299.91,233.03,295.84 M222.18,296.44
			c-0.19,1.41-0.69,1.82-1.81,1.95l-6.6,0.79l1.18-8.66l6.6-0.79c1.08-0.13,1.54,0.07,1.33,1.58L222.18,296.44z"/>
		<polygon class="st4" points="237.39,301.5 240.91,269.38 265.85,265.84 265.26,271.16 251.31,273.14 250.49,280.67 263.27,278.85 
			262.68,284.17 249.9,285.99 248.95,294.62 262.91,292.64 262.32,297.96 		"/>
		<path class="st4" d="M287.47,280.4l-8.52,1.32l5.44-11.5L287.47,280.4 M303.01,291.71l-8.91-30.2l-11,1.7l-16.83,34.18l5.32-0.82
			l4.6-9.2l12.66-1.96l2.47,8.1L303.01,291.71z"/>
		<path class="st4" d="M328.42,266.74c-0.1,1.3-0.46,1.85-1.77,2.07l-6.41,1.08l0.59-7.49l6.41-1.08c1.17-0.2,1.6,0.03,1.48,1.52
			L328.42,266.74 M339.41,285.58l-4.96-12.86c3.61-0.61,4.58-2.79,4.8-5.59l0.49-6.14c0.42-5.39-1.84-6.68-6.57-5.88l-22.93,3.87
			l-2.5,31.96l11.01-1.86l1.09-13.88l3.38-0.57l4.15,13L339.41,285.58z"/>
		<polygon class="st4" points="359.6,281.87 349.24,257.7 349.14,257.72 347.58,284.1 342.79,284.98 344.68,253.13 359.09,250.46 
			369.3,274.27 369.43,274.24 370.97,248.26 375.76,247.38 373.88,279.23 		"/>
		<path class="st4" d="M399.15,260.38l-8.55,1.79l4.75-11.62L399.15,260.38 M415.67,270.58l-11.06-29.14l-11.03,2.32l-14.77,34.57
			l5.33-1.12l4.05-9.31l12.71-2.67l3.05,7.82L415.67,270.58z"/>
		<polygon class="st4" points="420.72,269.29 420.54,237.88 431.58,235.24 431.76,266.65 		"/>
		<path class="st4" d="M458.87,259.38l-21.33,6l-0.3-5.13l15.45-4.35c1.4-0.39,1.7-0.82,1.64-1.84l-0.12-2.13
			c-0.06-1.07-0.53-1.23-1.93-0.83l-9.44,2.66c-4.16,1.17-5.98-0.05-6.25-4.84l-0.43-7.41c-0.22-3.82,1.35-7.61,5.46-8.77
			l21.96-6.17l0.3,5.13l-15.22,4.29c-1.49,0.42-1.93,0.84-1.87,1.8l0.11,1.99c0.05,0.92,0.52,1.08,2.01,0.67l8.23-2.31
			c4.2-1.18,7.1-0.23,7.35,3.99l0.47,8.14C465.23,255.03,463.34,258.12,458.87,259.38z"/>
		<path class="st6" d="M326.92,310.86c-207.96,45.62-281.54,33.8-282.85,18.03c0,0,186.58,6.57,423.07-60.44
			C467.14,268.45,416.2,291.27,326.92,310.86z"/>
		<path class="st14" d="M426.71,153.17l26.39,1.04l6.26-1.22l3.08,16.33l-0.78,10.1c0,0-4.14,6.26-4.84,7.14
			c0,0-4.98,5.83-5.58,6.15c-19.6,10.4-41.86,16.67-41.86,16.67l-0.66-37.12l6.24-8.44L426.71,153.17z"/>
		<path class="st6" d="M460.52,152.02c-2.3-0.15-29.77-1.04-29.77-1.04s1.59-3.79,1.1-5.5c-0.49-1.71-27.4-4.89-28.63-5.5
			c-1.22-0.61-1.1-5.26-2.45-6.49c-1.34-1.22-10.28-0.12-11.99,0.98c-1.71,1.1-4.71,6.41-5.68,6.77
			c-0.98,0.37-11.69,0.08-12.91-0.16c-1.22-0.25-8.07-5.88-12.11-6.61c-1.34-0.24-10.89,3.18-12.11,4.4
			c-1.22,1.22-1.41,5.17-1.41,5.17s-16.94,2.41-61.34,19.05c-4.39,1.64,23.58,1.42,17.49,1.47c-8.19,0.06-27.89,7.83-41.71,13.94
			c-6.14,2.71,26.74,0.17,19.75,2.71c-9.04,3.29-10.88,5.11-24.45,12.35c-19.71,10.51-22.56,12.77-43,20.94
			c0,0-110.37,44.67-47.3,2.63c0,0-162.03,60.14-15.44,53.77c48.7-2.11,125.33-9.99,230.93-31.87c11.04-2.1,31.44-17.92,37.67-23.65
			c5.26-5.26,10.68-9.81,14.89-11.39l24.65-13l5.01-9.45c0.6-2.37,1.29-6.31,1.29-6.31l-0.4-11.95
			C462.96,161.28,467.07,152.45,460.52,152.02z M461.63,175.96l-1.09,4.65l-3.72,5.96l-2.86,3.18c-4.32,2.27-21.05,9.86-21.05,9.86
			s-18.05,0.17-18.4-9.64c-0.23-6.35,0.06-15.05,0.3-16.09c0.61-2.69,9.66-19.05,14.01-19.17c1.69-0.04,6.51,0.61,17.36,0.34
			c-4.3,5.18-1.03,10.64,3.16,14.09c0,0,4.37,3.1,9.56,2.35l2.94-4.69L461.63,175.96z"/>
		<path class="st15" d="M350.38,139.96c0,0,6.85-3.18,9.3-1.84c2.45,1.35,13.82,12.85,13.82,12.85l1.35-5.02l8.07-1.47l22.02,1.96
			l-12.72-3.43l36.33,4.28l-0.37,3.67c0,0-10.73,5.71-15.34,11.49c-1.46,1.83-0.48,6.34-1.87,8.28c-0.88,1.23-5.62,11.87-16.56,4.39
			c-6.68-4.58-10.22-0.64-12.59-3.27c-0.18-0.2,11.35-18.25,21.61-13.43c3.21,1.51,7.69,3.87,7.69,3.87s-8.8-10.49-17.93-8.34
			c-2.98,0.7-34.37,8.23-34.37,8.23l14.67-7.54c0,0-10.87-12.12-13.57-13.59C357.22,139.6,350.38,139.96,350.38,139.96z"/>
		<path class="st15" d="M312.67,176.79l-34.16,12.09l23.13,2.63l-44.65,23.28c0,0,35.91,1.3,70.4-3.83h-57.64l43.97-22.07
			l-21.02-2.1L312.67,176.79z"/>
		<path class="st4" d="M269.58,199.39c-73.58,36.79-173.91,64.16-127.49,30.87c0,0-88.91,39.42,4.82,31.97
			c0,0,63.04-2.15,164.25-26.72l-69.2-1.75l26.57-8.1c0,0-26.57-3.29-36.21-3.29L269.58,199.39z"/>
		<path class="st6" d="M389.9,171.25c0,0-0.49-4.64,8.85-8.15c9.29-3.48,8.02,0,14.6,1.17c-0.53,3.83-0.59,13.43-15.37,11.02
			C397.98,175.3,393.17,172.96,389.9,171.25z"/>
		<path class="st4" d="M395.54,171.87c0,0,1.78-5.75,5.59-6.08c0,0-3.59,3.82,0.74,7.22C401.86,173.01,398.71,173.38,395.54,171.87z
			"/>
		<polygon class="st4" points="406.35,165.74 406.05,167.78 407.8,167.19 		"/>
		<path class="st6" d="M430.94,188.26c8.22,0.95,22.95,4.37,30.72-8.83c0,0-8.33,14.2-31.25,6.82c0,0-8.62-2.83-5.46,1.37
			C424.95,187.62,427.46,187.86,430.94,188.26z"/>
		<path class="st15" d="M343.51,148.06c0,0-0.5,12.48,1.4,16.82c0,0-5.93-9.63-7.71-10.51c-3.51-1.75-11.39-0.7-15.07-1.22
			C322.13,153.14,330.89,150.86,343.51,148.06z"/>
		<path class="st6" d="M457.74,155.59c0,0-11.3,5.19-1.75,14.02C455.99,169.61,441.16,159.15,457.74,155.59z"/>
	</g>
	<g>
		<g>
			<path class="st1" d="M178.26,379.49l9.09,5.71c3.17,1.99,2.93,4.07,1.59,6.2l-0.59,0.93c-1.02,1.62-2.9,3.04-5.26,1.56
				l-6.62-4.17l-1.72,2.73l-3.33-2.1L178.26,379.49z M178.17,387.02l5.18,3.26c0.78,0.49,1.4,0.17,1.81-0.48l0.26-0.42
				c0.46-0.74,0.37-1.38-0.64-2.02l-4.9-3.08L178.17,387.02z"/>
			<path class="st1" d="M196.19,390.08l4.61,2.24l0.72,14.63l-3.94-1.92l-0.11-2.58l-7.17-3.5l-2.03,1.53l-3.95-1.93L196.19,390.08z
				 M192.84,397.12l4.53,2.21l-0.18-5.45L192.84,397.12z"/>
			<path class="st1" d="M207.13,395.32l3.71,1.3l-2.45,6.99c-0.54,1.54-0.2,2.33,1.32,2.87l3.68,1.29c1.52,0.53,2.29,0.12,2.83-1.41
				l2.46-6.99l3.71,1.3l-2.74,7.79c-1.06,3.01-3.12,3.9-6.53,2.71l-5.32-1.87c-3.41-1.2-4.46-3.18-3.41-6.19L207.13,395.32z"/>
			<path class="st1" d="M230.63,409.62l4.86,1.05l-0.67,3.12l-4.86-1.05L230.63,409.62z"/>
			<path class="st1" d="M247.01,405.86l3.91,0.43l-1.05,9.48l8.79,0.97l-0.36,3.28l-12.7-1.4L247.01,405.86z"/>
			<path class="st1" d="M266.08,407.53l5.12,0.16l6.64,13.06l-4.38-0.14l-1.15-2.31l-7.98-0.26l-1.23,2.23l-4.4-0.14L266.08,407.53z
				 M265.9,415.33l5.03,0.16l-2.4-4.9L265.9,415.33z"/>
			<path class="st1" d="M278.39,412.47c-0.26-3.75,1.79-4.78,5.33-5.03l4.62-0.32c5.59-0.39,6.4,0.77,6.61,4.4l-3.93,0.27
				l-0.02-0.36c-0.06-0.92-0.76-1.14-1.92-1.06l-4.28,0.29c-2.07,0.14-2.39,1.14-2.28,2.73l0.1,1.38c0.13,1.86,0.57,2.54,2.42,2.41
				l4.2-0.29c1.77-0.12,2.29-0.33,2.18-1.93l3.93-0.27l0.08,1.2c0.15,2.16-0.51,3.91-4.46,4.18l-6.34,0.44
				c-3.54,0.24-5.71-0.5-5.97-4.25L278.39,412.47z"/>
			<path class="st1" d="M296.1,411.22c-0.74-3.68,1.15-4.97,4.62-5.67l6.19-1.25c3.47-0.7,5.72-0.25,6.46,3.43l0.76,3.75
				c0.08,0.4,0.13,0.75,0.14,1.11l1.72,0.63l-1.09,2.84l-1.59-0.53c-0.82,0.8-2.11,1.28-3.8,1.62l-6.19,1.25
				c-3.47,0.71-5.72,0.25-6.46-3.43L296.1,411.22z M300.57,412.97c0.37,1.82,0.89,2.44,2.72,2.07l4.93-1
				c0.21-0.04,0.41-0.1,0.59-0.14l-0.01-0.04l-4.08-1.47l1.08-2.89l4.1,1.5l-0.26-1.29c-0.32-1.56-0.89-2.44-2.93-2.03l-4.52,0.92
				c-2.03,0.41-2.22,1.44-1.91,3.01L300.57,412.97z"/>
			<path class="st1" d="M323.65,406.66l4.66-1.71l1.1,2.99l-4.66,1.71L323.65,406.66z"/>
			<path class="st1" d="M336.86,399.11c-1.81-3.3-0.38-5.09,2.73-6.8l5.54-3.03c3.11-1.71,5.39-1.94,7.2,1.36l1.84,3.36
				c1.81,3.3,0.38,5.09-2.73,6.8l-5.54,3.03c-3.11,1.71-5.39,1.94-7.2-1.36L336.86,399.11z M341.66,399.45
				c0.9,1.64,1.58,2.07,3.21,1.17l4.42-2.42c1.63-0.89,1.64-1.7,0.74-3.34l-0.67-1.21c-0.77-1.4-1.58-2.07-3.4-1.07l-4.05,2.22
				c-1.82,1-1.69,2.04-0.93,3.44L341.66,399.45z"/>
			<path class="st1" d="M350.83,386.18l9.65-6.95c2.46-1.77,4.01-1.03,5.35,0.85l0.48,0.66c1,1.4,1.28,2.45,0.06,3.85l0.02,0.03
				c1.08-0.51,2.17-0.67,3.4,1.05l1.27,1.77l-3.2,2.3l-0.9-1.25c-0.79-1.09-1.36-1.23-2.36-0.51l-5.02,3.62l1.95,2.71l-3.2,2.3
				L350.83,386.18z M357.71,389.01l5.28-3.81c0.86-0.62,0.93-1.2,0.39-1.94l-0.25-0.35c-0.66-0.92-1.25-0.76-2.25-0.04l-5,3.6
				L357.71,389.01z"/>
			<path class="st1" d="M363.85,376.73l11.17-10.03l2.13,2.38l-4.12,3.7l6.45,7.18l-2.93,2.63l-6.45-7.18l-4.12,3.7L363.85,376.73z"
				/>
			<path class="st1" d="M375.31,366.49l2.64-2.92l3.39,3.07l5.56-6.16l-3.39-3.06l2.64-2.92l9.52,8.6l-2.64,2.92l-3.6-3.26
				l-5.56,6.16l3.6,3.26l-2.64,2.92L375.31,366.49z"/>
			<path class="st1" d="M386.94,353.39l8.27-11.36l2.41,1.75l-5.95,8.18l1.66,1.21l5.64-7.75l2.15,1.57l-5.64,7.74l1.66,1.21
				l6.09-8.36l2.49,1.82l-8.41,11.55L386.94,353.39z"/>
			<path class="st1" d="M404.07,346.37l-1.02-11.3l-0.03-0.02l-4.56,7.71l-2.66-1.57l7.53-12.71l2.66,1.57l1.03,11.29l0.03,0.02
				l4.79-8.09l2.66,1.57l-7.76,13.11L404.07,346.37z"/>
		</g>
	</g>
	<g>
		<path class="st16" d="M177.46,378.29l9.09,5.71c3.17,1.99,2.93,4.07,1.59,6.2l-0.59,0.93c-1.02,1.62-2.9,3.04-5.26,1.56
			l-6.62-4.17l-1.72,2.73l-3.33-2.1L177.46,378.29z M177.38,385.82l5.18,3.26c0.78,0.49,1.4,0.17,1.81-0.48l0.26-0.42
			c0.46-0.74,0.37-1.38-0.64-2.02l-4.9-3.08L177.38,385.82z"/>
		<path class="st16" d="M195.4,388.89l4.61,2.24l0.72,14.63l-3.94-1.92l-0.11-2.58l-7.17-3.5l-2.03,1.53l-3.95-1.93L195.4,388.89z
			 M192.04,395.93l4.53,2.21l-0.18-5.45L192.04,395.93z"/>
		<path class="st16" d="M206.33,394.12l3.71,1.3l-2.45,6.99c-0.54,1.54-0.2,2.33,1.32,2.87l3.68,1.29c1.52,0.53,2.29,0.12,2.83-1.41
			l2.46-6.99l3.71,1.3l-2.74,7.79c-1.06,3.01-3.12,3.9-6.53,2.71l-5.32-1.87c-3.41-1.2-4.46-3.18-3.41-6.19L206.33,394.12z"/>
		<path class="st16" d="M229.83,408.42l4.86,1.05l-0.67,3.12l-4.86-1.05L229.83,408.42z"/>
		<path class="st16" d="M246.22,404.67l3.91,0.43l-1.05,9.48l8.79,0.97l-0.36,3.28l-12.7-1.4L246.22,404.67z"/>
		<path class="st16" d="M265.28,406.33l5.12,0.16l6.64,13.06l-4.38-0.14l-1.15-2.31l-7.98-0.26l-1.22,2.23l-4.4-0.14L265.28,406.33z
			 M265.1,414.14l5.03,0.16l-2.4-4.9L265.1,414.14z"/>
		<path class="st16" d="M277.6,411.28c-0.26-3.75,1.79-4.78,5.33-5.03l4.62-0.32c5.59-0.39,6.4,0.77,6.61,4.4l-3.93,0.27l-0.02-0.36
			c-0.06-0.92-0.76-1.14-1.92-1.06l-4.28,0.29c-2.07,0.14-2.39,1.14-2.28,2.73l0.1,1.38c0.13,1.86,0.57,2.54,2.42,2.41l4.19-0.29
			c1.77-0.12,2.29-0.33,2.18-1.93l3.93-0.27l0.08,1.2c0.15,2.16-0.51,3.91-4.46,4.18l-6.34,0.44c-3.54,0.24-5.71-0.5-5.97-4.25
			L277.6,411.28z"/>
		<path class="st16" d="M295.3,410.02c-0.74-3.68,1.15-4.97,4.62-5.67l6.19-1.25c3.47-0.7,5.72-0.25,6.46,3.43l0.76,3.75
			c0.08,0.4,0.13,0.75,0.13,1.11l1.72,0.63l-1.09,2.84l-1.59-0.53c-0.82,0.8-2.11,1.28-3.8,1.62l-6.19,1.25
			c-3.47,0.71-5.72,0.25-6.46-3.43L295.3,410.02z M299.78,411.78c0.37,1.82,0.89,2.44,2.72,2.07l4.93-1
			c0.21-0.04,0.41-0.1,0.59-0.14l-0.01-0.04l-4.08-1.47l1.08-2.89l4.1,1.5l-0.26-1.29c-0.32-1.56-0.89-2.44-2.93-2.03l-4.52,0.92
			c-2.03,0.41-2.22,1.44-1.91,3.01L299.78,411.78z"/>
		<path class="st16" d="M322.85,405.46l4.66-1.71l1.1,2.99l-4.66,1.71L322.85,405.46z"/>
		<path class="st16" d="M336.06,397.91c-1.81-3.3-0.38-5.09,2.73-6.8l5.54-3.03c3.11-1.71,5.39-1.94,7.2,1.36l1.84,3.36
			c1.81,3.3,0.38,5.09-2.73,6.8l-5.54,3.03c-3.11,1.71-5.39,1.94-7.2-1.36L336.06,397.91z M340.86,398.26
			c0.9,1.63,1.58,2.07,3.21,1.17l4.42-2.42c1.63-0.89,1.64-1.7,0.74-3.34l-0.67-1.21c-0.77-1.4-1.58-2.07-3.4-1.07l-4.05,2.22
			c-1.82,1-1.69,2.04-0.93,3.44L340.86,398.26z"/>
		<path class="st16" d="M350.03,384.99l9.65-6.95c2.46-1.77,4.01-1.03,5.35,0.85l0.48,0.66c1,1.4,1.28,2.45,0.06,3.85l0.02,0.03
			c1.08-0.51,2.17-0.67,3.4,1.05l1.27,1.77l-3.2,2.3l-0.9-1.25c-0.79-1.09-1.36-1.23-2.36-0.51l-5.02,3.62l1.95,2.71l-3.2,2.3
			L350.03,384.99z M356.92,387.81l5.28-3.81c0.86-0.62,0.93-1.2,0.39-1.94l-0.25-0.35c-0.66-0.92-1.25-0.76-2.26-0.04l-5,3.6
			L356.92,387.81z"/>
		<path class="st16" d="M363.06,375.54l11.17-10.03l2.13,2.38l-4.12,3.7l6.45,7.18l-2.93,2.63l-6.45-7.18l-4.12,3.7L363.06,375.54z"
			/>
		<path class="st16" d="M374.52,365.29l2.64-2.92l3.39,3.07l5.56-6.16l-3.39-3.06l2.64-2.92l9.52,8.6l-2.64,2.92l-3.6-3.26
			l-5.56,6.16l3.6,3.26l-2.64,2.92L374.52,365.29z"/>
		<path class="st16" d="M386.14,352.2l8.27-11.36l2.41,1.75l-5.95,8.18l1.66,1.21l5.64-7.75l2.15,1.57l-5.64,7.74l1.66,1.21
			l6.09-8.36l2.49,1.82l-8.41,11.55L386.14,352.2z"/>
		<path class="st16" d="M403.27,345.18l-1.02-11.3l-0.03-0.02l-4.56,7.71l-2.66-1.57l7.53-12.72l2.66,1.57l1.03,11.29l0.03,0.02
			l4.79-8.09l2.66,1.57l-7.76,13.11L403.27,345.18z"/>
	</g>
	<g>
		<path class="st4" d="M177.46,378.29l9.09,5.71c3.17,1.99,2.93,4.07,1.59,6.2l-0.59,0.93c-1.02,1.62-2.9,3.04-5.26,1.56l-6.62-4.17
			l-1.72,2.73l-3.33-2.1L177.46,378.29z M177.38,385.82l5.18,3.26c0.78,0.49,1.4,0.17,1.81-0.48l0.26-0.42
			c0.46-0.74,0.37-1.38-0.64-2.02l-4.9-3.08L177.38,385.82z"/>
		<path class="st4" d="M195.4,388.89l4.61,2.24l0.72,14.63l-3.94-1.92l-0.11-2.58l-7.17-3.5l-2.03,1.53l-3.95-1.93L195.4,388.89z
			 M192.04,395.93l4.53,2.21l-0.18-5.45L192.04,395.93z"/>
		<path class="st4" d="M206.33,394.12l3.71,1.3l-2.45,6.99c-0.54,1.54-0.2,2.33,1.32,2.87l3.68,1.29c1.52,0.53,2.29,0.12,2.83-1.41
			l2.46-6.99l3.71,1.3l-2.74,7.79c-1.06,3.01-3.12,3.9-6.53,2.71l-5.32-1.87c-3.41-1.2-4.46-3.18-3.41-6.19L206.33,394.12z"/>
		<path class="st4" d="M229.83,408.42l4.86,1.05l-0.67,3.12l-4.86-1.05L229.83,408.42z"/>
		<path class="st4" d="M246.22,404.67l3.91,0.43l-1.05,9.48l8.79,0.97l-0.36,3.28l-12.7-1.4L246.22,404.67z"/>
		<path class="st4" d="M265.28,406.33l5.12,0.16l6.64,13.06l-4.38-0.14l-1.15-2.31l-7.98-0.26l-1.22,2.23l-4.4-0.14L265.28,406.33z
			 M265.1,414.14l5.03,0.16l-2.4-4.9L265.1,414.14z"/>
		<path class="st4" d="M277.6,411.28c-0.26-3.75,1.79-4.78,5.33-5.03l4.62-0.32c5.59-0.39,6.4,0.77,6.61,4.4l-3.93,0.27l-0.02-0.36
			c-0.06-0.92-0.76-1.14-1.92-1.06l-4.28,0.29c-2.07,0.14-2.39,1.14-2.28,2.73l0.1,1.38c0.13,1.86,0.57,2.54,2.42,2.41l4.19-0.29
			c1.77-0.12,2.29-0.33,2.18-1.93l3.93-0.27l0.08,1.2c0.15,2.16-0.51,3.91-4.46,4.18l-6.34,0.44c-3.54,0.24-5.71-0.5-5.97-4.25
			L277.6,411.28z"/>
		<path class="st4" d="M295.3,410.02c-0.74-3.68,1.15-4.97,4.62-5.67l6.19-1.25c3.47-0.7,5.72-0.25,6.46,3.43l0.76,3.75
			c0.08,0.4,0.13,0.75,0.13,1.11l1.72,0.63l-1.09,2.84l-1.59-0.53c-0.82,0.8-2.11,1.28-3.8,1.62l-6.19,1.25
			c-3.47,0.71-5.72,0.25-6.46-3.43L295.3,410.02z M299.78,411.78c0.37,1.82,0.89,2.44,2.72,2.07l4.93-1
			c0.21-0.04,0.41-0.1,0.59-0.14l-0.01-0.04l-4.08-1.47l1.08-2.89l4.1,1.5l-0.26-1.29c-0.32-1.56-0.89-2.44-2.93-2.03l-4.52,0.92
			c-2.03,0.41-2.22,1.44-1.91,3.01L299.78,411.78z"/>
		<path class="st4" d="M322.85,405.46l4.66-1.71l1.1,2.99l-4.66,1.71L322.85,405.46z"/>
		<path class="st4" d="M336.06,397.91c-1.81-3.3-0.38-5.09,2.73-6.8l5.54-3.03c3.11-1.71,5.39-1.94,7.2,1.36l1.84,3.36
			c1.81,3.3,0.38,5.09-2.73,6.8l-5.54,3.03c-3.11,1.71-5.39,1.94-7.2-1.36L336.06,397.91z M340.86,398.26
			c0.9,1.63,1.58,2.07,3.21,1.17l4.42-2.42c1.63-0.89,1.64-1.7,0.74-3.34l-0.67-1.21c-0.77-1.4-1.58-2.07-3.4-1.07l-4.05,2.22
			c-1.82,1-1.69,2.04-0.93,3.44L340.86,398.26z"/>
		<path class="st4" d="M350.03,384.99l9.65-6.95c2.46-1.77,4.01-1.03,5.35,0.85l0.48,0.66c1,1.4,1.28,2.45,0.06,3.85l0.02,0.03
			c1.08-0.51,2.17-0.67,3.4,1.05l1.27,1.77l-3.2,2.3l-0.9-1.25c-0.79-1.09-1.36-1.23-2.36-0.51l-5.02,3.62l1.95,2.71l-3.2,2.3
			L350.03,384.99z M356.92,387.81l5.28-3.81c0.86-0.62,0.93-1.2,0.39-1.94l-0.25-0.35c-0.66-0.92-1.25-0.76-2.26-0.04l-5,3.6
			L356.92,387.81z"/>
		<path class="st4" d="M363.06,375.54l11.17-10.03l2.13,2.38l-4.12,3.7l6.45,7.18l-2.93,2.63l-6.45-7.18l-4.12,3.7L363.06,375.54z"
			/>
		<path class="st4" d="M374.52,365.29l2.64-2.92l3.39,3.07l5.56-6.16l-3.39-3.06l2.64-2.92l9.52,8.6l-2.64,2.92l-3.6-3.26
			l-5.56,6.16l3.6,3.26l-2.64,2.92L374.52,365.29z"/>
		<path class="st4" d="M386.14,352.2l8.27-11.36l2.41,1.75l-5.95,8.18l1.66,1.21l5.64-7.75l2.15,1.57l-5.64,7.74l1.66,1.21
			l6.09-8.36l2.49,1.82l-8.41,11.55L386.14,352.2z"/>
		<path class="st4" d="M403.27,345.18l-1.02-11.3l-0.03-0.02l-4.56,7.71l-2.66-1.57l7.53-12.72l2.66,1.57l1.03,11.29l0.03,0.02
			l4.79-8.09l2.66,1.57l-7.76,13.11L403.27,345.18z"/>
	</g>
</g>
</svg>
