<svg id="Calque_1" data-name="Calque 1" xmlns="http://www.w3.org/2000/svg" viewBox="0 0 716.06 618.36"><defs><style>.cls-1,.cls-10,.cls-17,.cls-5{fill:#fff;}.cls-1,.cls-6{stroke:#fff;}.cls-1{stroke-width:14.05px;}.cls-13,.cls-2,.cls-7{fill:#21294d;}.cls-10,.cls-11,.cls-13,.cls-17,.cls-2,.cls-3{stroke:#21294d;}.cls-2{stroke-width:2.68px;}.cls-11,.cls-3,.cls-8{fill:#00a2a3;}.cls-3{stroke-width:2.56px;}.cls-4{fill:#e76019;}.cls-6{fill:none;stroke-width:7.54px;}.cls-9{fill:#00a082;stroke-width:6.12px;}.cls-14,.cls-9{stroke:#002337;}.cls-10,.cls-11{stroke-width:2.45px;}.cls-12,.cls-14{fill:#002337;}.cls-13,.cls-14{stroke-width:3.67px;}.cls-15{fill:#fce0c7;}.cls-16{fill:#4c516d;}.cls-17{stroke-width:2.48px;}</style></defs><title>Pau</title><path class="cls-1" d="M708.54,292.31c2.52-60-191.49-96.55-358.34-67.79-190,32.74-353,120.59-342.58,190.32,5,33.89,77.6,70.39,176,65.18,47.95,60,113.56,96.46,206.18,95.68,104.24-.89,195.08-77.43,222.84-186.92C653,367.91,707.11,326.17,708.54,292.31Z"/><path class="cls-1" d="M698.75,292.37C701.2,236.05,515.46,198,351,228.7,167.39,263,8.56,342,18.63,407.46c4.9,31.83,75.3,66.11,170.8,61.22C236,525,299.62,559.28,389.49,558.54c101.14-.84,189.29-72.72,216.22-175.57C644.89,363.38,697.37,324.17,698.75,292.37Z"/><path class="cls-1" d="M581.22,302.16c0,109.55-88.8,198.35-198.35,198.35s-198.34-88.8-198.34-198.35,88.8-198.34,198.34-198.34S581.22,192.62,581.22,302.16Z"/><path class="cls-1" d="M456.34,398.9C139.9,467.15,62.09,445.42,64.54,419.71c0,0,264.46,2.45,585.24-82C649.78,337.68,581.22,372,456.34,398.9Z"/><path class="cls-1" d="M314.32,483.37c208.14,12.24,261.5-130.29,261.5-130.29l-11.74,10.3S502.86,478.47,280,476C280,476,310.76,483.16,314.32,483.37Z"/><path class="cls-1" d="M428.69,126.34c33.17,21.13,75.65,83.25,44.79,175.83-9.79,29.39-9.69,165.39,58.26,125"/><path class="cls-1" d="M457.65,483.09c-59.2-156.95-173.47-282.24-205.14-323.54,0,0,2-6.32,6.88-5.51,8.26,1.38,181.73,199.63,205.14,323.54Z"/><path class="cls-1" d="M251.51,428.52C270.32,444.2,333.9,454,333.9,454c102.58,11.53,24.49,49,24.49,49l17.14-2.44C390.22,488.27,426,453.42,355,446.08c-73.11-7.57-87.16-18.19-87.16-18.19s-6.67-7-2.29-8.39l-27.12,5.1Z"/><path class="cls-1" d="M416.16,126s103.13,60.9,64.91,198.52c-16.7,60.12,1.37,125.67,49.62,104.5,4.77-2.09,6.61-5.22,12.06-9.18,0,0-73.89,33.58-44.5-98.65C522.63,211.46,464.14,148.13,416.16,126Z"/><path class="cls-1" d="M470,479c-16.52-64.71-50.9-132.12-96.37-192.75-58.05-77.4-86.74-118.4-111.52-134.92,0,0-4.77,1.92-5.51,5.51-.43,2.1,29.31,27.27,108.77,134.92,42.68,57.82,73,125.29,97.74,188.62Z"/><path class="cls-1" d="M238.4,417.26c17.14,17.14,93.05,29.38,93.05,29.38,119.46,18.88,32.29,54.4,32.29,54.4l-.45-.53c51.42-4.9,73.46-49-24.49-63.67-34.67-5.2-60.71-25.6-56.32-26.94Z"/><path class="cls-1" d="M297.17,473.57c203.24,29.38,281-120.93,281-120.93l-6.27,3.76S441.65,522.55,250.65,436.85C250.65,436.85,293.65,473.07,297.17,473.57Z"/><path class="cls-1" d="M177.23,318.7C179.52,426.27,268,512.76,376.74,512.76a199.54,199.54,0,0,0,189.17-135S532.06,490.83,378.7,498.18c0,0-176.82-18.22-182.92-183.65Z"/><path class="cls-1" d="M204.12,329.1c16.64,149.73,169,161.61,169,161.61,141.79,9.92,199.48-130.54,199.48-130.54-20.69,76.5-105.43,147.69-193.36,147.69-110.21,0-201.56-91.27-199.56-200.8,1.63-89.24,60.13-162.33,129.2-189.7C308.85,117.37,187,174.83,204.12,329.1Z"/><path class="cls-1" d="M160,324.2s431-66.11,445.66-68.56c0,0-4.9,88.15-14.69,97.95,0,0-311,68.57-408.93,68.57C182.08,422.15,160,348.69,160,324.2Z"/><polygon class="cls-1" points="190.65 292.37 235.96 256.87 286.16 190.75 313.32 99.54 326.79 88.52 344.13 72.05 354.72 54.23 384.11 55.8 395.35 83.63 400.25 113.01 417.39 92.2 428.41 87.3 445.55 72.61 453.63 70.15 462.46 70.15 481.05 109.34 503.1 146.07 520 154.02 561.79 201.61 575.03 232.5 190.65 292.37"/><polygon class="cls-1" points="384.11 55.8 359.84 57.92 347.6 94.65 334.13 115.46 342.7 155.86 309.42 179.73 292.28 205.44 341.25 189.52 332.68 221.35 308.19 245.84 273.91 253.19 276.29 271.76 237.67 282.79 575.03 232.5 570.62 219.26 564 220.36 548.55 203.81 537.14 168.71 517.41 133.83 480.48 106.46 462.46 70.15 453.63 70.15 439.43 98.32 433.3 115.46 425.96 104.44 421.51 123.55 417.39 150.97 411.27 116.69 402.7 106.89 397.8 71.38 384.11 55.8"/><polygon class="cls-1" points="190.65 292.37 235.96 256.87 286.16 190.75 313.32 99.54 326.79 88.52 344.13 72.05 354.72 54.23 384.11 55.8 395.35 83.63 400.25 113.01 417.39 92.2 428.41 87.3 445.55 72.61 453.63 70.15 462.46 70.15 481.05 109.34 503.1 146.07 520 154.02 561.79 201.61 575.03 232.5 190.65 292.37"/><polygon class="cls-1" points="384.11 55.8 359.84 57.92 347.6 94.65 334.13 115.46 342.7 155.86 309.42 179.73 292.28 205.44 341.25 189.52 332.68 221.35 308.19 245.84 273.91 253.19 276.29 271.76 237.67 282.79 575.03 232.5 570.62 219.26 564 220.36 548.55 203.81 537.14 168.71 517.41 133.83 480.48 106.46 462.46 70.15 453.63 70.15 439.43 98.32 433.3 115.46 425.96 104.44 421.51 123.55 417.39 150.97 411.27 116.69 402.7 106.89 397.8 71.38 384.11 55.8"/><path class="cls-1" d="M644.43,195.73s2.68,14.47-3.35,20.09c0,0,5.11-13.4.11-18.24Z"/><polygon class="cls-1" points="69.44 404.44 80.49 359.03 114.61 358.26 112.77 365.78 93.69 366.22 91.09 376.86 108.58 376.46 106.75 383.98 89.26 384.38 86.29 396.58 105.38 396.15 103.55 403.67 69.44 404.44"/><polygon class="cls-1" points="110.65 403.31 120.24 357.96 135.37 357.18 127.36 395.01 146.58 394.02 144.99 401.52 110.65 403.31"/><path class="cls-1" d="M181.29,379.61l-11.76.85,9-15.72,2.77,14.87m19.56,18-7.93-44.09-15.19,1.09-27.61,46.65,7.34-.53L165,388.18l17.49-1.26,2.24,11.84Z"/><polygon class="cls-1" points="230.71 394.92 220.53 358.97 220.4 358.99 214.1 396.42 207.47 397.02 215.09 351.81 235.01 350.01 245.04 385.41 245.22 385.39 251.44 348.52 258.06 347.92 250.44 393.13 230.71 394.92"/><path class="cls-1" d="M311.73,357.21c-.26,1.9-.84,2.59-2.54,2.79l-9.22,1.1,1.43-10.56,9.22-1.1c1.57-.19,2.13.23,1.87,2.13l-.77,5.63M324.24,376l1.1-8.1c.67-4.93-2.52-5.1-7.87-5.22l0-.14c5-1,8.89-2.31,9.65-7.87l.79-5.84c.82-6.05-1.8-8.58-9.14-7.7l-31.68,3.78L281,390l31.68-3.78c7.65-.91,10.79-4.47,11.56-10.17m-15.17.84c-.27,2-1,2.54-2.53,2.73l-9.22,1.1,1.64-12.1,9.22-1.1c1.51-.18,2.15.09,1.86,2.2Z"/><polygon class="cls-1" points="330.33 383.93 335.26 339.03 370.11 334.08 369.29 341.52 349.8 344.29 348.64 354.81 366.5 352.27 365.69 359.71 347.82 362.24 346.5 374.31 366 371.54 365.18 378.98 330.33 383.93"/><path class="cls-1" d="M400.33,354.44l-11.9,1.84L396,340.21l4.3,14.23M422,370.25,409.6,328l-15.37,2.38L370.71,378.2l7.43-1.15,6.43-12.86,17.7-2.74,3.46,11.32Z"/><path class="cls-1" d="M457.56,335.34c-.14,1.81-.64,2.59-2.46,2.89l-9,1.52.82-10.47,9-1.51c1.64-.28,2.24,0,2.07,2.13l-.43,5.45m15.36,26.33-6.93-18c5-.85,6.41-3.91,6.72-7.82l.67-8.58c.59-7.54-2.57-9.35-9.19-8.23l-32,5.41-3.5,44.67,15.39-2.6,1.52-19.41,4.73-.8,5.8,18.17Z"/><polygon class="cls-1" points="501.15 356.49 486.65 322.71 486.53 322.74 484.35 359.6 477.66 360.84 480.29 316.32 500.43 312.59 514.7 345.86 514.89 345.83 517.04 309.52 523.73 308.28 521.1 352.8 501.15 356.49"/><path class="cls-1" d="M556.43,326.45,544.48,329l6.63-16.24,5.31,13.73m23.08,14.26L564.05,300l-15.43,3.24L528,351.53l7.46-1.57,5.65-13,17.76-3.73,4.27,10.93Z"/><polygon class="cls-1" points="586.57 338.9 586.32 295 601.75 291.31 602 335.21 586.57 338.9"/><path class="cls-1" d="M639.89,325.05l-29.81,8.39-.41-7.18,21.59-6.07c2-.55,2.37-1.15,2.29-2.57l-.17-3c-.09-1.49-.74-1.72-2.7-1.17l-13.2,3.71c-5.81,1.63-8.34-.06-8.74-6.76l-.6-10.36c-.31-5.34,1.88-10.64,7.63-12.25l30.69-8.63.42,7.17-21.28,6c-2.09.58-2.69,1.17-2.62,2.52l.16,2.77c.08,1.29.73,1.52,2.81.93l11.5-3.23c5.87-1.66,9.92-.32,10.26,5.57l.66,11.37C648.78,319,646.14,323.29,639.89,325.05Z"/><polygon class="cls-1" points="72.75 400.2 83.81 354.8 117.92 354.03 116.09 361.55 97 361.98 94.41 372.62 111.9 372.23 110.07 379.74 92.58 380.14 89.61 392.34 108.7 391.91 106.87 399.43 72.75 400.2"/><polygon class="cls-1" points="113.97 399.07 123.55 353.73 138.68 352.94 130.68 390.78 149.9 389.78 148.31 397.29 113.97 399.07"/><path class="cls-1" d="M184.61,375.37l-11.77.85,9-15.72,2.77,14.88m19.56,18-7.93-44.09L181,350.36,153.44,397l7.34-.53,7.53-12.55,17.49-1.26L188,394.52Z"/><polygon class="cls-1" points="234.02 390.68 223.84 354.74 223.71 354.75 217.41 392.19 210.79 392.79 218.4 347.58 238.32 345.77 248.35 381.18 248.54 381.16 254.75 344.29 261.37 343.69 253.76 388.89 234.02 390.68"/><path class="cls-1" d="M315.05,353c-.26,1.9-.85,2.59-2.54,2.79l-9.22,1.1,1.44-10.56,9.22-1.1c1.57-.19,2.13.23,1.87,2.13l-.77,5.63m12.51,18.8,1.1-8.1c.67-4.93-2.52-5.1-7.87-5.22l0-.14c5-1,8.89-2.31,9.64-7.87l.79-5.84c.82-6-1.8-8.58-9.14-7.7l-31.68,3.78-6.12,45L316,381.95c7.65-.91,10.79-4.48,11.56-10.17m-15.17.84c-.27,2-1,2.54-2.53,2.73l-9.22,1.1,1.65-12.1,9.22-1.1c1.51-.18,2.15.09,1.86,2.2Z"/><polygon class="cls-1" points="333.65 379.69 338.57 334.8 373.43 329.85 372.61 337.29 353.11 340.06 351.95 350.58 369.82 348.04 369 355.47 351.14 358.01 349.81 370.07 369.32 367.3 368.5 374.74 333.65 379.69"/><path class="cls-1" d="M403.65,350.2,391.74,352,399.35,336l4.3,14.23M425.36,366,412.91,323.8l-15.37,2.38L374,374l7.44-1.15L387.89,360l17.7-2.74L409,368.53Z"/><path class="cls-1" d="M460.88,331.1c-.15,1.81-.64,2.59-2.47,2.9l-9,1.51.82-10.47,9-1.51c1.64-.28,2.24,0,2.07,2.13l-.43,5.44m15.36,26.33-6.93-18c5-.85,6.41-3.9,6.71-7.81l.68-8.58c.59-7.54-2.57-9.34-9.19-8.23l-32,5.41L432,364.91l15.39-2.6,1.52-19.4,4.73-.8,5.8,18.17Z"/><polygon class="cls-1" points="504.46 352.25 489.98 318.48 489.85 318.5 487.67 355.36 480.97 356.6 483.61 312.08 503.75 308.35 518.02 341.62 518.2 341.59 520.36 305.28 527.05 304.04 524.41 348.56 504.46 352.25"/><path class="cls-1" d="M559.75,322.22l-11.95,2.51,6.64-16.24,5.31,13.73m23.08,14.25-15.46-40.73L551.95,299l-20.64,48.31,7.46-1.56,5.66-13L562.19,329l4.27,10.92Z"/><polygon class="cls-1" points="589.89 334.67 589.64 290.76 605.06 287.07 605.32 330.98 589.89 334.67"/><path class="cls-1" d="M643.21,320.81,613.4,329.2,613,322l21.6-6.08c2-.55,2.37-1.15,2.29-2.57l-.17-3c-.09-1.49-.74-1.72-2.7-1.17l-13.2,3.71c-5.81,1.63-8.35-.06-8.74-6.76l-.6-10.36c-.31-5.34,1.88-10.64,7.63-12.26l30.69-8.63.42,7.17-21.28,6c-2.08.59-2.69,1.17-2.61,2.52l.16,2.77c.08,1.29.73,1.51,2.81.93l11.5-3.23c5.87-1.65,9.92-.32,10.27,5.57l.66,11.37C652.1,314.73,649.46,319.05,643.21,320.81Z"/><polygon class="cls-1" points="72.75 400.2 83.81 354.8 117.92 354.03 116.09 361.55 97 361.98 94.41 372.62 111.9 372.23 110.07 379.74 92.58 380.14 89.61 392.34 108.7 391.91 106.87 399.43 72.75 400.2"/><polygon class="cls-1" points="113.97 399.07 123.55 353.73 138.68 352.94 130.68 390.78 149.9 389.78 148.31 397.29 113.97 399.07"/><path class="cls-1" d="M184.61,375.37l-11.77.85,9-15.72,2.77,14.88m19.56,18-7.93-44.09L181,350.36,153.44,397l7.34-.53,7.53-12.55,17.49-1.26L188,394.52Z"/><polygon class="cls-1" points="234.02 390.68 223.84 354.74 223.71 354.75 217.41 392.19 210.79 392.79 218.4 347.58 238.32 345.77 248.35 381.18 248.54 381.16 254.75 344.29 261.37 343.69 253.76 388.89 234.02 390.68"/><path class="cls-1" d="M315.05,353c-.26,1.9-.85,2.59-2.54,2.79l-9.22,1.1,1.44-10.56,9.22-1.1c1.57-.19,2.13.23,1.87,2.13l-.77,5.63m12.51,18.8,1.1-8.1c.67-4.93-2.52-5.1-7.87-5.22l0-.14c5-1,8.89-2.31,9.64-7.87l.79-5.84c.82-6-1.8-8.58-9.14-7.7l-31.68,3.78-6.12,45L316,381.95c7.65-.91,10.79-4.48,11.56-10.17m-15.17.84c-.27,2-1,2.54-2.53,2.73l-9.22,1.1,1.65-12.1,9.22-1.1c1.51-.18,2.15.09,1.86,2.2Z"/><polygon class="cls-1" points="333.65 379.69 338.57 334.8 373.43 329.85 372.61 337.29 353.11 340.06 351.95 350.58 369.82 348.04 369 355.47 351.14 358.01 349.81 370.07 369.32 367.3 368.5 374.74 333.65 379.69"/><path class="cls-1" d="M403.65,350.2,391.74,352,399.35,336l4.3,14.23M425.36,366,412.91,323.8l-15.37,2.38L374,374l7.44-1.15L387.89,360l17.7-2.74L409,368.53Z"/><path class="cls-1" d="M460.88,331.1c-.15,1.81-.64,2.59-2.47,2.9l-9,1.51.82-10.47,9-1.51c1.64-.28,2.24,0,2.07,2.13l-.43,5.44m15.36,26.33-6.93-18c5-.85,6.41-3.9,6.71-7.81l.68-8.58c.59-7.54-2.57-9.34-9.19-8.23l-32,5.41L432,364.91l15.39-2.6,1.52-19.4,4.73-.8,5.8,18.17Z"/><polygon class="cls-1" points="504.46 352.25 489.98 318.48 489.85 318.5 487.67 355.36 480.97 356.6 483.61 312.08 503.75 308.35 518.02 341.62 518.2 341.59 520.36 305.28 527.05 304.04 524.41 348.56 504.46 352.25"/><path class="cls-1" d="M559.75,322.22l-11.95,2.51,6.64-16.24,5.31,13.73m23.08,14.25-15.46-40.73L551.95,299l-20.64,48.31,7.46-1.56,5.66-13L562.19,329l4.27,10.92Z"/><polygon class="cls-1" points="589.89 334.67 589.64 290.76 605.06 287.07 605.32 330.98 589.89 334.67"/><path class="cls-1" d="M643.21,320.81,613.4,329.2,613,322l21.6-6.08c2-.55,2.37-1.15,2.29-2.57l-.17-3c-.09-1.49-.74-1.72-2.7-1.17l-13.2,3.71c-5.81,1.63-8.35-.06-8.74-6.76l-.6-10.36c-.31-5.34,1.88-10.64,7.63-12.26l30.69-8.63.42,7.17-21.28,6c-2.08.59-2.69,1.17-2.61,2.52l.16,2.77c.08,1.29.73,1.51,2.81.93l11.5-3.23c5.87-1.65,9.92-.32,10.27,5.57l.66,11.37C652.1,314.73,649.46,319.05,643.21,320.81Z"/><path class="cls-1" d="M458.79,392.77C168.12,456.54,65.28,440,63.45,418c0,0,260.77,9.18,591.33-84.47C654.77,333.5,583.58,365.39,458.79,392.77Z"/><path class="cls-1" d="M598.26,172.37l36.89,1.46,8.75-1.7L648.2,195l-1.1,14.12s-5.79,8.74-6.76,10c0,0-7,8.15-7.8,8.59-27.39,14.54-58.5,23.29-58.5,23.29L573.12,199l8.72-11.79Z"/><path class="cls-1" d="M645.51,170.76c-3.22-.22-41.61-1.46-41.61-1.46s2.22-5.3,1.54-7.69-38.3-6.84-40-7.69-1.54-7.35-3.42-9.06-14.36-.17-16.75,1.37-6.58,9-7.94,9.46-16.34.11-18-.23-11.28-8.21-16.93-9.24c-1.88-.34-15.22,4.45-16.93,6.15s-2,7.23-2,7.23S459.77,163,397.7,186.22c-6.13,2.3,33,2,24.45,2.05-11.44.08-39,10.94-58.3,19.49-8.58,3.79,37.37.24,27.6,3.79-12.64,4.59-15.21,7.14-34.17,17.26-27.54,14.69-31.53,17.84-60.1,29.27,0,0-154.27,62.44-66.11,3.67,0,0-226.46,84.06-21.57,75.15,68.06-3,175.17-14,322.76-44.54,15.43-2.93,43.94-25,52.65-33.06,7.34-7.34,14.93-13.71,20.81-15.91l34.45-18.18,7-13.21c.85-3.31,1.8-8.82,1.8-8.82l-.56-16.7C648.92,183.7,654.67,171.36,645.51,170.76Zm1.56,33.47-1.53,6.5-5.2,8.33-4,4.45c-6,3.17-29.42,13.78-29.42,13.78s-25.22.24-25.71-13.47c-.32-8.87.09-21,.42-22.48.86-3.76,13.51-26.62,19.58-26.79,2.36-.06,9.1.85,24.27.48-6,7.24-1.43,14.87,4.42,19.7,0,0,6.11,4.33,13.36,3.29l4.11-6.56Z"/><path class="cls-1" d="M491.57,153.91s9.57-4.45,13-2.57,19.32,18,19.32,18l1.88-7L537,160.23,567.82,163,550,158.18l50.78,6-.52,5.13s-15,8-21.44,16.06c-2,2.55-.67,8.86-2.61,11.58-1.23,1.72-7.86,16.59-23.14,6.14-9.34-6.4-14.29-.9-17.59-4.58-.25-.28,15.86-25.51,30.2-18.77,4.49,2.11,10.75,5.41,10.75,5.41s-12.3-14.66-25.07-11.66c-4.16,1-48,11.51-48,11.51l20.5-10.55s-15.2-16.94-19-19S491.57,153.91,491.57,153.91Z"/><path class="cls-1" d="M438.87,205.39l-47.75,16.9L423.45,226,361,258.49s50.18,1.82,98.39-5.36H378.88l61.46-30.85L411,219.35Z"/><path class="cls-1" d="M378.64,237c-102.84,51.42-243.08,89.68-178.19,43.15,0,0-124.27,55.1,6.73,44.69,0,0,88.11-3,229.57-37.34L340,285l37.14-11.32s-37.14-4.6-50.61-4.6Z"/><path class="cls-1" d="M546.81,197.65s-.69-6.49,12.37-11.39,11.21,0,20.41,1.63c-.74,5.35-.82,18.78-21.49,15.4C558.11,203.29,551.38,200,546.81,197.65Z"/><path class="cls-1" d="M554.69,198.5s2.49-8,7.81-8.5c0,0-5,5.34,1,10.09A17.87,17.87,0,0,1,554.69,198.5Z"/><polygon class="cls-1" points="569.8 189.93 569.38 192.79 571.84 191.97 569.8 189.93"/><path class="cls-1" d="M604.17,221.41c11.49,1.33,32.08,6.11,42.93-12.34,0,0-11.64,19.85-43.67,9.54,0,0-12-4-7.64,1.91C595.79,220.53,599.31,220.85,604.17,221.41Z"/><path class="cls-1" d="M482,165.23s-.69,17.45,2,23.51c0,0-8.29-13.45-10.77-14.69-4.9-2.44-15.92-1-21.06-1.71C452.09,172.33,464.34,169.14,482,165.23Z"/><path class="cls-1" d="M641.63,175.76s-15.79,7.26-2.45,19.59C639.18,195.35,618.46,180.72,641.63,175.76Z"/><path class="cls-2" d="M708.54,292.31c2.52-60-191.49-96.55-358.34-67.79-190,32.74-353,120.59-342.58,190.32,5,33.89,77.6,70.39,176,65.18,47.95,60,113.56,96.46,206.18,95.68,104.24-.89,195.08-77.43,222.84-186.92C653,367.91,707.11,326.17,708.54,292.31Z"/><path class="cls-3" d="M698.75,292.37C701.2,236.05,515.46,198,351,228.7,167.39,263,8.56,342,18.63,407.46c4.9,31.83,75.3,66.11,170.8,61.22C236,525,299.62,559.28,389.49,558.54c101.14-.84,189.29-72.72,216.22-175.57C644.89,363.38,697.37,324.17,698.75,292.37Z"/><path class="cls-4" d="M581.22,302.16c0,109.55-88.8,198.35-198.35,198.35s-198.34-88.8-198.34-198.35,88.8-198.34,198.34-198.34S581.22,192.62,581.22,302.16Z"/><path class="cls-5" d="M456.34,398.9C139.9,467.15,62.09,445.42,64.54,419.71c0,0,264.46,2.45,585.24-82C649.78,337.68,581.22,372,456.34,398.9Z"/><path class="cls-5" d="M314.32,483.37c208.14,12.24,261.5-130.29,261.5-130.29l-11.74,10.3S502.86,478.47,280,476C280,476,310.76,483.16,314.32,483.37Z"/><path class="cls-6" d="M428.69,126.34c33.17,21.13,75.65,83.26,44.79,175.83-9.79,29.39-9.69,165.39,58.26,125"/><path class="cls-5" d="M457.65,483.09c-59.2-156.95-173.47-282.23-205.14-323.54,0,0,2-6.32,6.88-5.51,8.26,1.38,181.73,199.63,205.14,323.54Z"/><path class="cls-5" d="M251.51,428.52C270.32,444.2,333.9,454,333.9,454c102.58,11.53,24.49,49,24.49,49l17.14-2.44C390.22,488.27,426,453.42,355,446.08c-73.11-7.57-87.16-18.19-87.16-18.19s-6.67-7-2.29-8.39l-27.12,5.1Z"/><path class="cls-7" d="M416.16,126s103.13,60.9,64.91,198.52c-16.7,60.12,1.37,125.67,49.62,104.5,4.77-2.09,6.61-5.22,12.06-9.18,0,0-73.89,33.58-44.5-98.65C522.63,211.46,464.14,148.13,416.16,126Z"/><path class="cls-7" d="M470,479c-16.52-64.71-50.9-132.12-96.37-192.75-58.05-77.4-86.74-118.4-111.52-134.92,0,0-4.77,1.92-5.51,5.51-.43,2.1,29.31,27.27,108.77,134.92,42.68,57.82,73,125.29,97.74,188.62Z"/><path class="cls-7" d="M238.4,417.26c17.14,17.14,93.05,29.38,93.05,29.38,119.46,18.88,32.29,54.4,32.29,54.4l-.45-.53c51.42-4.9,73.46-49-24.49-63.67-34.67-5.2-60.71-25.6-56.32-26.94Z"/><path class="cls-7" d="M297.17,473.57c203.24,29.38,281-120.93,281-120.93l-6.27,3.76S441.65,522.55,250.65,436.85C250.65,436.85,293.65,473.07,297.17,473.57Z"/><path class="cls-5" d="M177.23,318.7C179.52,426.27,268,512.76,376.74,512.76a199.54,199.54,0,0,0,189.17-135S532.06,490.83,378.7,498.18c0,0-176.82-18.22-182.92-183.65Z"/><path class="cls-7" d="M204.12,329.1c16.64,149.73,169,161.61,169,161.61,141.79,9.92,199.48-130.54,199.48-130.54-20.69,76.5-105.43,147.69-193.36,147.69-110.21,0-201.56-91.27-199.56-200.79,1.63-89.24,60.13-162.33,129.2-189.7C308.85,117.37,187,174.83,204.12,329.1Z"/><path class="cls-8" d="M160,324.2s431-66.11,445.66-68.56c0,0-4.9,88.15-14.69,97.95,0,0-311,68.57-408.93,68.57C182.08,422.15,160,348.69,160,324.2Z"/><polygon class="cls-9" points="190.65 292.37 235.96 256.87 286.16 190.75 313.32 99.54 326.79 88.52 344.13 72.05 354.72 54.23 384.11 55.8 395.35 83.63 400.25 113.01 417.39 92.2 428.41 87.3 445.55 72.61 453.63 70.15 462.46 70.15 481.05 109.34 503.1 146.07 520 154.02 561.79 201.61 575.03 232.5 190.65 292.37"/><polygon class="cls-9" points="384.11 55.8 359.84 57.92 347.6 94.65 334.13 115.46 342.7 155.87 309.42 179.73 292.28 205.44 341.25 189.53 332.68 221.36 308.19 245.85 273.91 253.19 276.29 271.76 237.67 282.79 575.03 232.5 570.62 219.26 564 220.36 548.55 203.81 537.14 168.71 517.41 133.83 480.48 106.47 462.46 70.15 453.63 70.15 439.43 98.32 433.3 115.46 425.96 104.44 421.51 123.55 417.39 150.97 411.27 116.69 402.7 106.89 397.8 71.39 384.11 55.8"/><polygon class="cls-10" points="190.65 292.37 235.96 256.87 286.16 190.75 313.32 99.54 326.79 88.52 344.13 72.05 354.72 54.23 384.11 55.8 395.35 83.63 400.25 113.01 417.39 92.2 428.41 87.3 445.55 72.61 453.63 70.15 462.46 70.15 481.05 109.34 503.1 146.07 520 154.02 561.79 201.61 575.03 232.5 190.65 292.37"/><polygon class="cls-11" points="384.11 55.8 359.84 57.92 347.6 94.65 334.13 115.46 342.7 155.87 309.42 179.73 292.28 205.44 341.25 189.53 332.68 221.36 308.19 245.85 273.91 253.19 276.29 271.76 237.67 282.79 575.03 232.5 570.62 219.26 564 220.36 548.55 203.81 537.14 168.71 517.41 133.83 480.48 106.47 462.46 70.15 453.63 70.15 439.43 98.32 433.3 115.46 425.96 104.44 421.51 123.55 417.39 150.97 411.27 116.69 402.7 106.89 397.8 71.39 384.11 55.8"/><path class="cls-12" d="M644.43,195.73s2.68,14.47-3.35,20.09c0,0,5.11-13.4.11-18.24Z"/><polygon class="cls-13" points="69.44 404.44 80.49 359.03 114.61 358.26 112.77 365.78 93.69 366.22 91.09 376.86 108.58 376.46 106.75 383.98 89.26 384.38 86.29 396.58 105.38 396.15 103.55 403.67 69.44 404.44"/><polygon class="cls-13" points="110.65 403.31 120.24 357.96 135.37 357.18 127.36 395.01 146.58 394.02 144.99 401.52 110.65 403.31"/><path class="cls-13" d="M181.29,379.61l-11.76.85,9-15.72,2.77,14.87m19.56,18-7.93-44.09-15.19,1.09-27.61,46.65,7.34-.53L165,388.18l17.49-1.26,2.24,11.84Z"/><polygon class="cls-13" points="230.71 394.92 220.53 358.97 220.4 358.99 214.1 396.42 207.47 397.02 215.09 351.81 235.01 350.01 245.04 385.41 245.22 385.39 251.44 348.52 258.06 347.92 250.44 393.13 230.71 394.92"/><path class="cls-13" d="M311.73,357.21c-.26,1.9-.84,2.59-2.54,2.79l-9.22,1.1,1.43-10.56,9.22-1.1c1.57-.19,2.13.23,1.87,2.13l-.77,5.63M324.24,376l1.1-8.1c.67-4.93-2.52-5.1-7.87-5.22l0-.14c5-1,8.89-2.31,9.65-7.87l.79-5.84c.82-6.05-1.8-8.58-9.14-7.7l-31.68,3.78L281,390l31.68-3.78c7.65-.91,10.79-4.47,11.56-10.17m-15.17.84c-.27,2-1,2.54-2.53,2.73l-9.22,1.1,1.64-12.1,9.22-1.1c1.51-.18,2.15.09,1.86,2.2Z"/><polygon class="cls-13" points="330.33 383.93 335.26 339.03 370.11 334.08 369.29 341.52 349.8 344.29 348.64 354.81 366.5 352.27 365.69 359.71 347.82 362.24 346.5 374.31 366 371.54 365.18 378.98 330.33 383.93"/><path class="cls-13" d="M400.33,354.44l-11.9,1.84L396,340.21l4.3,14.23M422,370.25,409.6,328l-15.37,2.38L370.71,378.2l7.43-1.15,6.43-12.86,17.7-2.74,3.46,11.32Z"/><path class="cls-13" d="M457.56,335.34c-.14,1.81-.64,2.59-2.46,2.89l-9,1.52.82-10.47,9-1.51c1.64-.28,2.24,0,2.07,2.13l-.43,5.45m15.36,26.33-6.93-18c5-.85,6.41-3.91,6.72-7.82l.67-8.58c.59-7.54-2.57-9.35-9.19-8.22l-32,5.41-3.5,44.67,15.39-2.6,1.52-19.41,4.73-.8,5.8,18.17Z"/><polygon class="cls-13" points="501.15 356.49 486.65 322.71 486.53 322.74 484.35 359.6 477.66 360.84 480.29 316.32 500.43 312.59 514.7 345.86 514.89 345.83 517.04 309.52 523.73 308.28 521.1 352.8 501.15 356.49"/><path class="cls-13" d="M556.43,326.45,544.48,329l6.63-16.24,5.31,13.73m23.08,14.26L564.05,300l-15.43,3.24L528,351.53l7.46-1.57,5.65-13,17.76-3.73,4.27,10.93Z"/><polygon class="cls-13" points="586.57 338.9 586.32 295 601.75 291.31 602 335.21 586.57 338.9"/><path class="cls-13" d="M639.89,325.05l-29.81,8.39-.41-7.18,21.59-6.07c2-.55,2.37-1.15,2.29-2.57l-.17-3c-.09-1.49-.74-1.72-2.7-1.17l-13.2,3.71c-5.81,1.63-8.34-.06-8.74-6.76l-.6-10.36c-.31-5.34,1.88-10.64,7.63-12.25l30.69-8.63.42,7.17-21.28,6c-2.09.58-2.69,1.17-2.62,2.52l.16,2.77c.08,1.29.73,1.52,2.81.93l11.5-3.23c5.87-1.66,9.92-.32,10.26,5.57l.66,11.37C648.78,319,646.14,323.29,639.89,325.05Z"/><polygon class="cls-14" points="72.75 400.2 83.81 354.8 117.92 354.03 116.09 361.55 97 361.98 94.41 372.62 111.9 372.23 110.07 379.74 92.58 380.14 89.61 392.34 108.7 391.91 106.87 399.43 72.75 400.2"/><polygon class="cls-14" points="113.97 399.07 123.55 353.73 138.68 352.94 130.68 390.78 149.9 389.78 148.31 397.29 113.97 399.07"/><path class="cls-14" d="M184.61,375.37l-11.77.85,9-15.72,2.77,14.88m19.56,18-7.93-44.09L181,350.36,153.44,397l7.34-.53,7.53-12.55,17.49-1.26L188,394.52Z"/><polygon class="cls-14" points="234.02 390.68 223.84 354.74 223.71 354.75 217.41 392.19 210.79 392.79 218.4 347.58 238.32 345.77 248.35 381.18 248.54 381.16 254.75 344.29 261.37 343.69 253.76 388.89 234.02 390.68"/><path class="cls-14" d="M315.05,353c-.26,1.9-.85,2.59-2.54,2.79l-9.22,1.1,1.44-10.56,9.22-1.1c1.57-.19,2.13.23,1.87,2.13l-.77,5.63m12.51,18.8,1.1-8.1c.67-4.93-2.52-5.1-7.87-5.22l0-.14c5-1,8.89-2.31,9.64-7.87l.79-5.84c.82-6-1.8-8.58-9.14-7.7l-31.68,3.78-6.12,45L316,381.95c7.65-.91,10.79-4.48,11.56-10.17m-15.17.84c-.27,2-1,2.54-2.53,2.73l-9.22,1.1,1.65-12.1,9.22-1.1c1.51-.18,2.15.09,1.86,2.2Z"/><polygon class="cls-14" points="333.65 379.69 338.57 334.8 373.43 329.85 372.61 337.29 353.11 340.06 351.95 350.58 369.82 348.04 369 355.47 351.14 358.01 349.81 370.07 369.32 367.3 368.5 374.74 333.65 379.69"/><path class="cls-14" d="M403.65,350.2,391.74,352,399.35,336l4.3,14.23M425.36,366,412.91,323.8l-15.37,2.38L374,374l7.44-1.15L387.89,360l17.7-2.74L409,368.53Z"/><path class="cls-14" d="M460.88,331.1c-.15,1.81-.64,2.59-2.47,2.9l-9,1.51.82-10.47,9-1.51c1.64-.28,2.24,0,2.07,2.13l-.43,5.44m15.36,26.33-6.93-18c5-.85,6.41-3.9,6.71-7.81l.68-8.58c.59-7.54-2.57-9.34-9.19-8.22l-32,5.41L432,364.91l15.39-2.6,1.52-19.4,4.73-.8,5.8,18.17Z"/><polygon class="cls-14" points="504.46 352.25 489.98 318.48 489.85 318.5 487.67 355.36 480.97 356.6 483.61 312.08 503.75 308.35 518.02 341.62 518.2 341.59 520.36 305.28 527.05 304.04 524.41 348.56 504.46 352.25"/><path class="cls-14" d="M559.75,322.22l-11.95,2.51,6.64-16.24,5.31,13.73m23.08,14.25-15.46-40.73L551.95,299l-20.64,48.31,7.46-1.56,5.66-13L562.19,329l4.27,10.92Z"/><polygon class="cls-14" points="589.89 334.67 589.64 290.76 605.06 287.07 605.32 330.98 589.89 334.67"/><path class="cls-14" d="M643.21,320.81,613.4,329.2,613,322l21.6-6.08c2-.55,2.37-1.15,2.29-2.57l-.17-3c-.09-1.49-.74-1.72-2.7-1.17l-13.2,3.71c-5.81,1.63-8.35-.06-8.74-6.76l-.6-10.36c-.31-5.34,1.88-10.64,7.63-12.26l30.69-8.63.42,7.17-21.28,6c-2.08.59-2.69,1.17-2.61,2.52l.16,2.77c.08,1.29.73,1.51,2.81.93l11.5-3.23c5.87-1.65,9.92-.32,10.27,5.57l.66,11.37C652.1,314.73,649.46,319.06,643.21,320.81Z"/><polygon class="cls-5" points="72.75 400.2 83.81 354.8 117.92 354.03 116.09 361.55 97 361.98 94.41 372.62 111.9 372.23 110.07 379.74 92.58 380.14 89.61 392.34 108.7 391.91 106.87 399.43 72.75 400.2"/><polygon class="cls-5" points="113.97 399.07 123.55 353.73 138.68 352.94 130.68 390.78 149.9 389.78 148.31 397.29 113.97 399.07"/><path class="cls-5" d="M184.61,375.37l-11.77.85,9-15.72,2.77,14.88m19.56,18-7.93-44.09L181,350.36,153.44,397l7.34-.53,7.53-12.55,17.49-1.26L188,394.52Z"/><polygon class="cls-5" points="234.02 390.68 223.84 354.74 223.71 354.75 217.41 392.19 210.79 392.79 218.4 347.58 238.32 345.77 248.35 381.18 248.54 381.16 254.75 344.29 261.37 343.69 253.76 388.89 234.02 390.68"/><path class="cls-5" d="M315.05,353c-.26,1.9-.85,2.59-2.54,2.79l-9.22,1.1,1.44-10.56,9.22-1.1c1.57-.19,2.13.23,1.87,2.13l-.77,5.63m12.51,18.8,1.1-8.1c.67-4.93-2.52-5.1-7.87-5.22l0-.14c5-1,8.89-2.31,9.64-7.87l.79-5.84c.82-6-1.8-8.58-9.14-7.7l-31.68,3.78-6.12,45L316,381.95c7.65-.91,10.79-4.48,11.56-10.17m-15.17.84c-.27,2-1,2.54-2.53,2.73l-9.22,1.1,1.65-12.1,9.22-1.1c1.51-.18,2.15.09,1.86,2.2Z"/><polygon class="cls-5" points="333.65 379.69 338.57 334.8 373.43 329.85 372.61 337.29 353.11 340.06 351.95 350.58 369.82 348.04 369 355.47 351.14 358.01 349.81 370.07 369.32 367.3 368.5 374.74 333.65 379.69"/><path class="cls-5" d="M403.65,350.2,391.74,352,399.35,336l4.3,14.23M425.36,366,412.91,323.8l-15.37,2.38L374,374l7.44-1.15L387.89,360l17.7-2.74L409,368.53Z"/><path class="cls-5" d="M460.88,331.1c-.15,1.81-.64,2.59-2.47,2.9l-9,1.51.82-10.47,9-1.51c1.64-.28,2.24,0,2.07,2.13l-.43,5.44m15.36,26.33-6.93-18c5-.85,6.41-3.9,6.71-7.81l.68-8.58c.59-7.54-2.57-9.34-9.19-8.22l-32,5.41L432,364.91l15.39-2.6,1.52-19.4,4.73-.8,5.8,18.17Z"/><polygon class="cls-5" points="504.46 352.25 489.98 318.48 489.85 318.5 487.67 355.36 480.97 356.6 483.61 312.08 503.75 308.35 518.02 341.62 518.2 341.59 520.36 305.28 527.05 304.04 524.41 348.56 504.46 352.25"/><path class="cls-5" d="M559.75,322.22l-11.95,2.51,6.64-16.24,5.31,13.73m23.08,14.25-15.46-40.73L551.95,299l-20.64,48.31,7.46-1.56,5.66-13L562.19,329l4.27,10.92Z"/><polygon class="cls-5" points="589.89 334.67 589.64 290.76 605.06 287.07 605.32 330.98 589.89 334.67"/><path class="cls-5" d="M643.21,320.81,613.4,329.2,613,322l21.6-6.08c2-.55,2.37-1.15,2.29-2.57l-.17-3c-.09-1.49-.74-1.72-2.7-1.17l-13.2,3.71c-5.81,1.63-8.35-.06-8.74-6.76l-.6-10.36c-.31-5.34,1.88-10.64,7.63-12.26l30.69-8.63.42,7.17-21.28,6c-2.08.59-2.69,1.17-2.61,2.52l.16,2.77c.08,1.29.73,1.51,2.81.93l11.5-3.23c5.87-1.65,9.92-.32,10.27,5.57l.66,11.37C652.1,314.73,649.46,319.06,643.21,320.81Z"/><path class="cls-7" d="M458.79,392.77C168.12,456.54,65.28,440,63.45,418c0,0,260.77,9.18,591.33-84.47C654.77,333.5,583.58,365.39,458.79,392.77Z"/><path class="cls-15" d="M598.26,172.37l36.89,1.46,8.75-1.7L648.2,195l-1.1,14.12s-5.79,8.74-6.76,10c0,0-7,8.15-7.8,8.59-27.39,14.54-58.5,23.29-58.5,23.29L573.12,199l8.72-11.79Z"/><path class="cls-7" d="M645.51,170.76c-3.22-.22-41.61-1.46-41.61-1.46s2.22-5.3,1.54-7.69-38.3-6.84-40-7.69-1.54-7.35-3.42-9.07-14.36-.17-16.75,1.37-6.58,9-7.94,9.47-16.34.11-18-.23-11.28-8.21-16.93-9.24c-1.88-.34-15.22,4.45-16.93,6.16s-2,7.23-2,7.23S459.77,163,397.7,186.23c-6.13,2.3,33,2,24.45,2.05-11.44.08-39,10.94-58.3,19.49-8.58,3.79,37.37.24,27.6,3.79-12.64,4.59-15.21,7.14-34.17,17.26-27.54,14.69-31.53,17.84-60.1,29.27,0,0-154.27,62.44-66.11,3.67,0,0-226.46,84.06-21.57,75.15,68.06-3,175.17-14,322.76-44.54,15.43-2.93,43.94-25,52.65-33.06,7.34-7.34,14.93-13.71,20.81-15.91l34.45-18.18,7-13.21c.85-3.31,1.8-8.82,1.8-8.82l-.56-16.7C648.92,183.7,654.67,171.37,645.51,170.76Zm1.56,33.47-1.53,6.5-5.2,8.33-4,4.45c-6,3.17-29.42,13.78-29.42,13.78s-25.22.24-25.71-13.47c-.32-8.87.09-21,.42-22.48.86-3.76,13.51-26.62,19.58-26.79,2.36-.06,9.1.85,24.27.48-6,7.24-1.43,14.87,4.42,19.7,0,0,6.11,4.33,13.36,3.29l4.11-6.56Z"/><path class="cls-16" d="M491.57,153.91s9.57-4.45,13-2.57,19.32,18,19.32,18l1.88-7L537,160.24,567.82,163,550,158.18l50.78,6-.52,5.13s-15,8-21.44,16.06c-2,2.55-.67,8.86-2.61,11.58-1.23,1.72-7.86,16.59-23.14,6.14-9.34-6.4-14.29-.9-17.59-4.58-.25-.28,15.86-25.51,30.2-18.77,4.49,2.11,10.75,5.41,10.75,5.41s-12.3-14.66-25.07-11.66c-4.16,1-48,11.51-48,11.51l20.5-10.55s-15.2-16.94-19-19S491.57,153.91,491.57,153.91Z"/><path class="cls-16" d="M438.87,205.39l-47.75,16.9L423.45,226,361,258.5s50.18,1.82,98.39-5.36H378.88l61.46-30.85L411,219.35Z"/><path class="cls-5" d="M378.64,237c-102.84,51.42-243.08,89.68-178.19,43.15,0,0-124.27,55.1,6.73,44.69,0,0,88.11-3,229.57-37.34L340,285l37.14-11.32s-37.14-4.6-50.61-4.6Z"/><path class="cls-7" d="M546.81,197.65s-.69-6.49,12.37-11.39,11.21,0,20.41,1.63c-.74,5.35-.82,18.78-21.49,15.4C558.11,203.29,551.38,200,546.81,197.65Z"/><path class="cls-5" d="M554.69,198.5s2.49-8,7.81-8.5c0,0-5,5.34,1,10.1A17.87,17.87,0,0,1,554.69,198.5Z"/><polygon class="cls-5" points="569.8 189.93 569.38 192.79 571.84 191.97 569.8 189.93"/><path class="cls-7" d="M604.17,221.41c11.49,1.33,32.08,6.11,42.93-12.34,0,0-11.64,19.85-43.67,9.54,0,0-12-4-7.64,1.92C595.79,220.53,599.31,220.85,604.17,221.41Z"/><path class="cls-16" d="M482,165.23s-.69,17.45,2,23.51c0,0-8.29-13.45-10.77-14.69-4.9-2.44-15.92-1-21.06-1.71C452.09,172.33,464.34,169.14,482,165.23Z"/><path class="cls-7" d="M641.63,175.76s-15.79,7.26-2.45,19.59C639.18,195.35,618.46,180.73,641.63,175.76Z"/><path class="cls-2" d="M251,488.69l12.7,8c4.43,2.78,4.1,5.68,2.23,8.66l-.82,1.3c-1.43,2.27-4,4.25-7.34,2.18L248.51,503l-2.4,3.82-4.66-2.93Zm-.12,10.53,7.24,4.56a1.68,1.68,0,0,0,2.53-.67l.37-.59c.65-1,.51-1.93-.89-2.82l-6.84-4.3Z"/><path class="cls-2" d="M276.07,503.49l6.44,3.14,1,20.45L278,524.4l-.15-3.6-10-4.89L265,518.06l-5.52-2.69Zm-4.69,9.85,6.33,3.08-.26-7.62Z"/><path class="cls-2" d="M291.35,510.82l5.19,1.82-3.43,9.77c-.76,2.15-.28,3.26,1.85,4l5.14,1.81c2.13.75,3.19.17,3.95-2l3.43-9.77,5.19,1.82-3.83,10.89c-1.48,4.21-4.36,5.45-9.13,3.78l-7.43-2.61c-4.77-1.68-6.24-4.45-4.76-8.66Z"/><path class="cls-2" d="M324.2,530.8l6.79,1.46-.94,4.36-6.79-1.46Z"/><path class="cls-2" d="M347.1,525.56l5.47.61-1.46,13.25,12.29,1.36-.5,4.58-17.76-2Z"/><path class="cls-2" d="M373.75,527.88l7.16.23,9.29,18.25-6.12-.2-1.61-3.22-11.15-.36-1.71,3.12-6.14-.2Zm-.25,10.91,7,.23-3.35-6.85Z"/><path class="cls-2" d="M391,534.8c-.36-5.25,2.5-6.68,7.45-7l6.46-.44c7.82-.54,8.95,1.07,9.25,6.15l-5.49.38,0-.5c-.09-1.29-1.06-1.59-2.69-1.48l-6,.41c-2.9.2-3.35,1.6-3.19,3.82l.13,1.93c.18,2.6.79,3.55,3.39,3.37l5.86-.4c2.47-.17,3.2-.47,3-2.69l5.49-.38.12,1.68c.21,3-.72,5.47-6.23,5.85l-8.86.61c-4.95.34-8-.69-8.34-5.94Z"/><path class="cls-2" d="M415.7,533c-1-5.15,1.6-6.95,6.46-7.93l8.64-1.75c4.86-1,8-.35,9,4.79l1.06,5.25a7.88,7.88,0,0,1,.19,1.55l2.4.88-1.52,4-2.22-.74c-1.14,1.11-3,1.78-5.31,2.26l-8.64,1.75c-4.86,1-8,.36-9-4.79Zm6.26,2.45c.52,2.55,1.25,3.41,3.8,2.9l6.9-1.39.82-.19v-.05l-5.7-2.06,1.51-4,5.74,2.1-.37-1.8c-.44-2.19-1.25-3.41-4.09-2.84l-6.31,1.28c-2.84.57-3.1,2-2.66,4.21Z"/><path class="cls-2" d="M454.21,526.66l6.51-2.39,1.54,4.19-6.51,2.39Z"/><path class="cls-2" d="M472.67,516.11c-2.53-4.61-.53-7.12,3.82-9.5l7.74-4.24c4.35-2.38,7.53-2.71,10.06,1.9l2.57,4.7c2.53,4.61.53,7.12-3.82,9.5l-7.74,4.24c-4.35,2.38-7.53,2.71-10.06-1.9Zm6.71.48c1.25,2.29,2.21,2.89,4.49,1.64l6.18-3.38c2.28-1.25,2.29-2.38,1-4.67l-.93-1.69c-1.07-2-2.21-2.89-4.75-1.5l-5.66,3.1c-2.54,1.39-2.37,2.85-1.3,4.81Z"/><path class="cls-2" d="M492.2,498l13.48-9.71c3.44-2.48,5.6-1.43,7.48,1.18l.67.92c1.4,2,1.79,3.42.08,5.38l0,0c1.5-.72,3-.93,4.75,1.47l1.78,2.47L516,503l-1.26-1.75c-1.1-1.53-1.91-1.71-3.29-.71l-7,5.06,2.72,3.78-4.47,3.21Zm9.63,3.95,7.38-5.32c1.21-.87,1.3-1.67.55-2.72l-.35-.48c-.93-1.29-1.74-1.07-3.15-.05l-7,5Z"/><path class="cls-2" d="M510.41,484.84l15.62-14,3,3.32-5.76,5.17,9,10-4.1,3.68-9-10-5.76,5.17Z"/><path class="cls-2" d="M526.42,470.52l3.68-4.08,4.74,4.28,7.77-8.6-4.74-4.28,3.68-4.08,13.31,12-3.69,4.08-5-4.55-7.77,8.6,5,4.55-3.69,4.08Z"/><path class="cls-2" d="M542.67,452.22l11.56-15.88,3.37,2.45-8.32,11.43,2.33,1.69,7.88-10.83,3,2.19-7.88,10.82,2.32,1.69,8.51-11.69,3.49,2.54-11.75,16.14Z"/><path class="cls-2" d="M566.61,442.4l-1.42-15.8,0,0-6.38,10.77-3.71-2.2,10.52-17.77,3.71,2.2,1.44,15.78,0,0,6.7-11.31,3.71,2.2L570.32,444.6Z"/><path class="cls-17" d="M249.89,487l12.7,8c4.43,2.78,4.1,5.68,2.23,8.66L264,505c-1.43,2.27-4,4.25-7.34,2.18l-9.26-5.82-2.4,3.82-4.66-2.93Zm-.12,10.53L257,502.1a1.68,1.68,0,0,0,2.53-.67l.37-.59c.65-1,.51-1.93-.89-2.82l-6.84-4.3Z"/><path class="cls-17" d="M275,501.83l6.44,3.14,1,20.45-5.5-2.68-.15-3.6-10-4.89-2.84,2.14-5.52-2.69Zm-4.69,9.85,6.33,3.08-.26-7.62Z"/><path class="cls-17" d="M290.24,509.15l5.19,1.82L292,520.74c-.76,2.15-.28,3.26,1.85,4l5.14,1.81c2.13.75,3.19.17,3.95-2l3.43-9.77,5.19,1.82-3.82,10.89c-1.48,4.21-4.36,5.45-9.13,3.78l-7.43-2.61c-4.77-1.68-6.24-4.45-4.76-8.66Z"/><path class="cls-17" d="M323.09,529.13l6.79,1.46-.94,4.36-6.79-1.46Z"/><path class="cls-17" d="M346,523.89l5.47.61L350,537.74l12.29,1.36-.51,4.58-17.75-2Z"/><path class="cls-17" d="M372.63,526.21l7.16.23,9.29,18.25-6.12-.2-1.61-3.22-11.15-.36L368.49,544l-6.14-.2Zm-.25,10.91,7,.23-3.35-6.85Z"/><path class="cls-17" d="M389.84,533.13c-.36-5.25,2.5-6.68,7.45-7l6.46-.44c7.82-.54,8.95,1.07,9.25,6.15l-5.49.38,0-.5c-.09-1.29-1.06-1.59-2.69-1.48l-6,.41c-2.9.2-3.35,1.6-3.19,3.82l.13,1.93c.18,2.6.79,3.55,3.39,3.37l5.86-.4c2.47-.17,3.2-.47,3-2.69l5.49-.38.12,1.68c.21,3-.72,5.47-6.23,5.85l-8.86.61c-4.95.34-8-.69-8.34-5.94Z"/><path class="cls-17" d="M414.59,531.37c-1-5.15,1.6-6.95,6.46-7.93l8.64-1.75c4.86-1,8-.35,9,4.79l1.06,5.25a7.86,7.86,0,0,1,.19,1.55l2.4.88-1.52,4-2.22-.74c-1.14,1.11-3,1.78-5.31,2.26l-8.64,1.75c-4.86,1-8,.36-9-4.79Zm6.26,2.45c.52,2.55,1.25,3.41,3.8,2.9l6.9-1.39.82-.19v-.05l-5.7-2.06,1.51-4,5.73,2.1-.37-1.8c-.44-2.19-1.25-3.41-4.09-2.84l-6.31,1.28c-2.84.57-3.1,2-2.66,4.2Z"/><path class="cls-17" d="M453.1,525l6.51-2.39,1.54,4.19-6.51,2.39Z"/><path class="cls-17" d="M471.56,514.44c-2.53-4.61-.54-7.12,3.82-9.5l7.74-4.24c4.35-2.38,7.53-2.71,10.06,1.9l2.57,4.7c2.53,4.61.53,7.12-3.82,9.5L484.2,521c-4.35,2.38-7.53,2.71-10.06-1.9Zm6.71.48c1.25,2.29,2.21,2.89,4.49,1.64l6.18-3.38c2.28-1.25,2.29-2.38,1-4.67l-.93-1.69c-1.07-2-2.21-2.89-4.75-1.5l-5.65,3.1c-2.54,1.39-2.37,2.85-1.3,4.81Z"/><path class="cls-17" d="M491.09,496.38l13.48-9.71c3.44-2.48,5.6-1.43,7.48,1.18l.67.92c1.4,2,1.79,3.42.08,5.38l0,0c1.5-.72,3-.93,4.75,1.47l1.78,2.47-4.47,3.22-1.26-1.75c-1.1-1.53-1.91-1.71-3.29-.71l-7,5.06,2.72,3.78-4.47,3.21Zm9.63,3.95L508.1,495c1.21-.87,1.3-1.67.55-2.72l-.35-.48c-.93-1.29-1.74-1.07-3.15-.05l-7,5Z"/><path class="cls-17" d="M509.29,483.18l15.62-14,3,3.32-5.76,5.17,9,10-4.1,3.68-9-10-5.76,5.17Z"/><path class="cls-17" d="M525.31,468.85l3.68-4.08,4.74,4.28,7.77-8.6-4.74-4.28,3.68-4.08,13.31,12-3.69,4.08-5-4.55-7.77,8.6,5,4.55-3.69,4.08Z"/><path class="cls-17" d="M541.56,450.55l11.56-15.88,3.37,2.45-8.32,11.43,2.33,1.69,7.88-10.83,3,2.19-7.88,10.82,2.32,1.69,8.51-11.69,3.49,2.54-11.75,16.14Z"/><path class="cls-17" d="M565.5,440.74l-1.42-15.8,0,0-6.38,10.77-3.71-2.2,10.52-17.77,3.71,2.2,1.44,15.78,0,0,6.7-11.31,3.71,2.2-10.85,18.33Z"/><path class="cls-5" d="M249.89,487l12.7,8c4.43,2.78,4.1,5.68,2.23,8.66L264,505c-1.43,2.27-4,4.25-7.34,2.18l-9.26-5.82-2.4,3.82-4.66-2.93Zm-.12,10.53L257,502.1a1.68,1.68,0,0,0,2.53-.67l.37-.59c.65-1,.51-1.93-.89-2.82l-6.84-4.3Z"/><path class="cls-5" d="M275,501.83l6.44,3.14,1,20.45-5.5-2.68-.15-3.6-10-4.89-2.84,2.14-5.52-2.69Zm-4.69,9.85,6.33,3.08-.26-7.62Z"/><path class="cls-5" d="M290.24,509.15l5.19,1.82L292,520.74c-.76,2.15-.28,3.26,1.85,4l5.14,1.81c2.13.75,3.19.17,3.95-2l3.43-9.77,5.19,1.82-3.82,10.89c-1.48,4.21-4.36,5.45-9.13,3.78l-7.43-2.61c-4.77-1.68-6.24-4.45-4.76-8.66Z"/><path class="cls-5" d="M323.09,529.13l6.79,1.46-.94,4.36-6.79-1.46Z"/><path class="cls-5" d="M346,523.89l5.47.61L350,537.74l12.29,1.36-.51,4.58-17.75-2Z"/><path class="cls-5" d="M372.63,526.21l7.16.23,9.29,18.25-6.12-.2-1.61-3.22-11.15-.36L368.49,544l-6.14-.2Zm-.25,10.91,7,.23-3.35-6.85Z"/><path class="cls-5" d="M389.84,533.13c-.36-5.25,2.5-6.68,7.45-7l6.46-.44c7.82-.54,8.95,1.07,9.25,6.15l-5.49.38,0-.5c-.09-1.29-1.06-1.59-2.69-1.48l-6,.41c-2.9.2-3.35,1.6-3.19,3.82l.13,1.93c.18,2.6.79,3.55,3.39,3.37l5.86-.4c2.47-.17,3.2-.47,3-2.69l5.49-.38.12,1.68c.21,3-.72,5.47-6.23,5.85l-8.86.61c-4.95.34-8-.69-8.34-5.94Z"/><path class="cls-5" d="M414.59,531.37c-1-5.15,1.6-6.95,6.46-7.93l8.64-1.75c4.86-1,8-.35,9,4.79l1.06,5.25a7.86,7.86,0,0,1,.19,1.55l2.4.88-1.52,4-2.22-.74c-1.14,1.11-3,1.78-5.31,2.26l-8.64,1.75c-4.86,1-8,.36-9-4.79Zm6.26,2.45c.52,2.55,1.25,3.41,3.8,2.9l6.9-1.39.82-.19v-.05l-5.7-2.06,1.51-4,5.73,2.1-.37-1.8c-.44-2.19-1.25-3.41-4.09-2.84l-6.31,1.28c-2.84.57-3.1,2-2.66,4.2Z"/><path class="cls-5" d="M453.1,525l6.51-2.39,1.54,4.19-6.51,2.39Z"/><path class="cls-5" d="M471.56,514.44c-2.53-4.61-.54-7.12,3.82-9.5l7.74-4.24c4.35-2.38,7.53-2.71,10.06,1.9l2.57,4.7c2.53,4.61.53,7.12-3.82,9.5L484.2,521c-4.35,2.38-7.53,2.71-10.06-1.9Zm6.71.48c1.25,2.29,2.21,2.89,4.49,1.64l6.18-3.38c2.28-1.25,2.29-2.38,1-4.67l-.93-1.69c-1.07-2-2.21-2.89-4.75-1.5l-5.65,3.1c-2.54,1.39-2.37,2.85-1.3,4.81Z"/><path class="cls-5" d="M491.09,496.38l13.48-9.71c3.44-2.48,5.6-1.43,7.48,1.18l.67.92c1.4,2,1.79,3.42.08,5.38l0,0c1.5-.72,3-.93,4.75,1.47l1.78,2.47-4.47,3.22-1.26-1.75c-1.1-1.53-1.91-1.71-3.29-.71l-7,5.06,2.72,3.78-4.47,3.21Zm9.63,3.95L508.1,495c1.21-.87,1.3-1.67.55-2.72l-.35-.48c-.93-1.29-1.74-1.07-3.15-.05l-7,5Z"/><path class="cls-5" d="M509.29,483.18l15.62-14,3,3.32-5.76,5.17,9,10-4.1,3.68-9-10-5.76,5.17Z"/><path class="cls-5" d="M525.31,468.85l3.68-4.08,4.74,4.28,7.77-8.6-4.74-4.28,3.68-4.08,13.31,12-3.69,4.08-5-4.55-7.77,8.6,5,4.55-3.69,4.08Z"/><path class="cls-5" d="M541.56,450.55l11.56-15.88,3.37,2.45-8.32,11.43,2.33,1.69,7.88-10.83,3,2.19-7.88,10.82,2.32,1.69,8.51-11.69,3.49,2.54-11.75,16.14Z"/><path class="cls-5" d="M565.5,440.74l-1.42-15.8,0,0-6.38,10.77-3.71-2.2,10.52-17.77,3.71,2.2,1.44,15.78,0,0,6.7-11.31,3.71,2.2-10.85,18.33Z"/></svg>