<?xml version="1.0" encoding="utf-8"?>
<!-- Generator: Adobe Illustrator 24.0.1, SVG Export Plug-In . SVG Version: 6.00 Build 0)  -->
<svg version="1.1" id="Calque_1" xmlns="http://www.w3.org/2000/svg" xmlns:xlink="http://www.w3.org/1999/xlink" x="0px" y="0px"
	 viewBox="0 0 509.33 509.1" style="enable-background:new 0 0 509.33 509.1;" xml:space="preserve">
<style type="text/css">
	.st0{fill:#FFFFFF;}
	.st1{fill:#0075BC;}
	.st2{fill:#07213E;}
	.st3{fill:#F06625;}
</style>
<g>
	<path class="st0" d="M255.72,504.46c-137.45,0-249.28-111.84-249.28-249.29C6.44,117.71,118.27,5.88,255.72,5.88
		c137.46,0,249.29,111.84,249.29,249.29C505.01,392.62,393.18,504.46,255.72,504.46z"/>
	<path class="st1" d="M487,255.16c0,127.73-103.55,231.28-231.28,231.28c-127.73,0-231.27-103.55-231.27-231.28
		c0-127.73,103.54-231.27,231.27-231.27C383.45,23.89,487,127.43,487,255.16z"/>
	<path class="st2" d="M405.76,255.17c0,82.89-67.19,150.01-150.03,150.01c-82.88,0-150.05-67.12-150.05-150.01
		c0-82.87,67.17-150.01,150.05-150.01C338.57,105.15,405.76,172.3,405.76,255.17z"/>
	<path class="st0" d="M389.45,255.18c0,73.84-59.86,133.72-133.71,133.72c-73.89,0-133.74-59.88-133.74-133.72
		c0-73.87,59.85-133.76,133.74-133.76C329.59,121.42,389.45,181.31,389.45,255.18z"/>
	<g>
		<path class="st3" d="M147.89,307.29c11.27,23.36,29.89,42.45,52.86,54.32c0.14-0.29,0.26-0.53,0.39-0.74
			c4.1-8.5,8.08-19.58,9.38-31.7C183.29,323.63,161.28,314.1,147.89,307.29z"/>
		<path class="st3" d="M210.29,366.03c12.47,5.13,25.99,8.23,40.17,8.86v-41.24c-10.31-0.18-20.19-1.09-29.59-2.56
			C219.24,344.77,214.75,356.87,210.29,366.03z"/>
		<path class="st3" d="M309.05,217.02c0.01,0.1-0.04,0.1-0.04,0.1c-1.07,1.22-2.53,3.02-4.27,5.15c-3.28,4.15-7.58,9.49-11.3,14.42
			c-7.68,10.01-20.09,24.61-24.87,29.5c-2.85,2.88-5.17,5.29-7.59,6.31v50.31c9.45-0.4,19.16-1.51,29.05-3.56
			c0.18-8.82,1.83-18.05,5.72-27.25c5.75-13.37,13.31-24.87,21.08-35.95c-0.49,0.29-0.98,0.69-1.46,0.92
			c-4.08,2.48-7.96,4.01-11.17,4.58c-3.17,0.49-6.04-0.16-7.22-2.77c-0.34-0.62-0.55-1.29-0.67-2.04
			c-0.56-4.8,2.19-11.44,7.21-24.63C306.72,224.09,308.35,219.45,309.05,217.02z"/>
		<path class="st3" d="M299.08,210.59c8.27-10.03,17.36-19.56,24.24-20.66c0.4-0.09,0.79-0.09,1.05-0.12
			c2.63-0.18,4.72,1.55,5.02,4.27c0.55,4.57-1.74,12.52-6.91,26c0,0-4.2,11.35-5.94,16.48c-0.3,0.81-1.38,4.57,0.94,3.97
			c2.21-0.29,7.41-1.96,15.44-9.56c0.95-0.95,5.82-7.68,7.08-10.1c5.84-10.73,10.44-22.39,12.59-36
			c-11.83-16.25-27.67-29.36-46-38.04c-2.98,12.75-11.27,35.28-13.67,42.5c-2.21,6.66-12.52,38.12-16.98,51.66
			C281.79,232.95,292.96,218.09,299.08,210.59z"/>
		<path class="st3" d="M172.3,306.58c10.84,4.31,23.92,8.6,38.54,11.71c-0.3-7.25-1.7-14.72-4.83-22.19
			c-0.66-1.61-1.47-3.12-2.19-4.73c-3.3,0.98-6.62,1.78-10.07,2.3l-0.73,0.09c-15.33,2.28-26.98,0.28-31.65-13.05
			c-0.88-2.26-1.53-4.77-1.97-7.59c-1.56-10.54,0-24.8,5.8-41.75c-5.96-10.14-11.13-21.16-14.43-33.81
			c-9.4,17.1-14.81,36.72-14.81,57.66c0,12.71,2.05,24.95,5.71,36.4c1.41,0.89,3.55,2.14,6.46,3.7
			C153.79,298.39,162.03,302.48,172.3,306.58z"/>
		<path class="st3" d="M310.74,361.61c27.15-14.07,48.24-38.26,58.28-67.57c-22.62,17.26-45.71,27.93-68.2,33.77
			C301.98,340.8,306.41,352.7,310.74,361.61z"/>
		<path class="st3" d="M360.65,197.47c-10.81,41.71-41.68,65.43-55.21,98.63c-2.91,6.9-4.32,13.84-4.78,20.57
			c24.01-6.64,48.75-19.12,72.93-40.26c1.21-6.89,1.91-13.96,1.91-21.19C375.5,234.29,370.09,214.6,360.65,197.47z"/>
		<path class="st3" d="M287.23,155.61c1.22-4.3,2.63-9.83,4.56-14.59c-11.39-3.6-23.51-5.57-36.06-5.57
			c-39.84,0-75.09,19.5-96.87,49.41c1.98,12.61,6.07,23.53,11.28,33.59c0.02,0,0.02-0.05,0.04-0.1
			c12.06-27.67,28.78-45.09,39.73-54.56c6.39-5.51,16.27-10.15,25.43-11.56c6.99-1.01,13.54-0.13,17.78,4.16
			c2.55,2.69,4.29,6.71,5.04,11.57c1.85,12.61-3.29,30.95-19.9,48.58c-16.9,17.68-23.58,21.59-27.2,22.21
			c-1.22,0.22-2.32-0.25-2.77-0.62c-0.6-0.5-0.6-0.89-0.6-1.24c-0.47-3.51,1.79-15.43,2.22-17.75l0.1-0.43l0.39-0.25
			c0,0,3.4-2.15,7.83-5.88c4.39-3.74,9.77-8.77,13.73-14.32c6.92-9.62,9.85-20.51,9.07-24.47c-0.04-0.53-0.27-1.01-0.3-1.16
			c-1.32-1.75-2.74-4.1-7.29-3.44c-2.88,0.37-7.05,2.14-13.17,6.53c-15.6,11.32-28.76,36.44-37.13,56.96
			c-4.46,10.91-5.55,20.09-4.59,26.79c0.91,5.92,3.38,9.97,6.44,11.94c2.78,1.68,8.18,2.79,15.45,1.7
			c9.67-1.41,22.8-6.77,37.76-19.44c26.12-22.24,30.86-36.14,31.98-39.18C271.23,211.31,285.09,163.8,287.23,155.61z"/>
		<path class="st3" d="M235.85,274.54c-7.05,5.24-14.44,9.78-22.16,13.17c0.69,1.42,1.42,2.84,2.04,4.3
			c4,9.57,5.62,19.15,5.74,28.26c9.21,1.48,18.91,2.44,28.99,2.57v-61.76C246.08,265.74,240.99,270.69,235.85,274.54z"/>
		<path class="st3" d="M260.98,333.58v41.3c14.19-0.63,27.72-3.72,40.15-8.86c-4.57-9.34-9.17-21.75-10.67-35.87
			C280.44,332.14,270.57,333.27,260.98,333.58z"/>
	</g>
	<path class="st2" d="M255.72,490.16c-129.57,0-234.99-105.42-234.99-235c0-129.57,105.42-234.99,234.99-234.99
		c129.58,0,235,105.42,235,234.99C490.72,384.74,385.3,490.16,255.72,490.16z M255.72,36.36c-120.65,0-218.81,98.16-218.81,218.81
		c0,120.65,98.15,218.81,218.81,218.81c120.65,0,218.81-98.16,218.81-218.81C474.53,134.52,376.37,36.36,255.72,36.36z"/>
	<g>
		<g>
			<path class="st0" d="M59.59,220.32l1.58-5.65l13.42-4.82l4.16-14.81l-11.2-3.14l1.37-4.87l29.36,8.22l-6.49,23.16
				c-0.87,3.08-2.37,5.27-4.54,6.56c-2.16,1.29-4.65,1.54-7.49,0.74c-2.49-0.7-4.29-1.98-5.4-3.83c-1.03-1.73-1.41-3.8-1.14-6.22
				L59.59,220.32z M78.21,213.83c-1.04,3.75-0.06,6.06,2.97,6.91c3.24,0.91,5.44-0.67,6.58-4.72l4.8-17.12l-9.41-2.64L78.21,213.83z
				"/>
			<path class="st0" d="M72.14,271.62c-4.99-0.1-8.99-2.24-11.99-6.4c-2.61-3.66-3.86-8.15-3.74-13.48
				c0.12-5.39,1.58-9.85,4.38-13.38c3.18-4.04,7.24-5.99,12.22-5.89c4.88,0.11,8.85,2.28,11.9,6.5c2.68,3.7,3.96,8.19,3.84,13.48
				c-0.11,5.31-1.59,9.73-4.42,13.26C81.09,269.76,77.03,271.74,72.14,271.62z M72.27,266.37c3.56,0.08,6.49-1.38,8.77-4.35
				c1.96-2.57,3-5.8,3.08-9.67c0.09-4.24-0.92-7.71-3.04-10.43c-2.12-2.71-4.84-4.12-8.2-4.18c-3.44-0.08-6.26,1.17-8.44,3.73
				c-2.16,2.57-3.31,6.02-3.39,10.38c-0.1,4.32,0.9,7.8,2.97,10.44C66.09,264.93,68.84,266.28,72.27,266.37z"/>
			<path class="st0" d="M66.33,318.6l-1.22-5.4l5.89-4.92l-4.51-20.03l-7.43-1.94l-1.21-5.39l33.29,9.05l1.4,6.19L66.33,318.6z
				 M74.89,304.88l12.71-10.82l-16.14-4.43L74.89,304.88z"/>
			<path class="st0" d="M85.84,360.1l-2.82-5.62l11.94-32.02l-22.36,11.2l-2.27-4.52L97.6,315.5l2.81,5.61l-11.93,32.02l22.36-11.2
				l2.26,4.52L85.84,360.1z"/>
			<path class="st0" d="M117.49,399.36l-4.13-4.73l3.51-33.98l-18.82,16.46l-3.33-3.82l22.95-20.07l4.13,4.73l-3.51,33.99
				l18.84-16.46l3.33,3.8L117.49,399.36z"/>
			<path class="st0" d="M155.37,427.94l-26.09-18.38l17.57-24.93l25.14,17.7l-2.63,3.73l-20.99-14.81l-4.51,6.41l14.59,10.28
				l-2.62,3.73l-14.6-10.29l-5.18,7.37l21.96,15.48L155.37,427.94z"/>
			<path class="st0" d="M241.53,438.36c3.26,1.67,4.61,4.47,4.03,8.39c-0.79,5.27-4.98,7.35-12.6,6.22l-24.03-3.57l4.47-30.15
				l24.37,3.61c3.06,0.46,5.35,1.56,6.88,3.32c1.53,1.77,2.1,3.89,1.73,6.39C245.98,435.31,244.35,437.24,241.53,438.36z
				 M233.69,448.47c4.16,0.62,6.45-0.46,6.85-3.19c0.44-2.96-1.16-4.7-4.8-5.24l-19.87-2.94l-1.26,8.52L233.69,448.47z
				 M235.99,435.49c1.39,0.21,2.61-0.02,3.65-0.67c1.05-0.67,1.65-1.56,1.83-2.71c0.19-1.23-0.09-2.27-0.81-3.12
				c-0.73-0.85-1.81-1.38-3.26-1.6l-19.67-2.92l-1.2,8.12L235.99,435.49z"/>
			<path class="st0" d="M292.5,451.52l-5.51,0.49l-4.11-6.47l-20.45,1.84l-2.89,7.12l-5.51,0.5l13.33-31.83l6.33-0.58L292.5,451.52z
				 M280.02,441.23l-9.06-14.01l-6.49,15.41L280.02,441.23z"/>
			<path class="st0" d="M321.17,418.31c-5.02-0.78-9.76-0.43-14.22,1.03c-2.95,0.96-5.11,2.06-6.45,3.26
				c-1.35,1.22-1.82,2.44-1.42,3.67c0.42,1.28,1.57,1.94,3.44,1.97c1.34,0.04,3.39-0.31,6.18-1.04c4.08-1.06,6.79-1.7,8.13-1.96
				c3.78-0.71,6.76-0.69,8.92,0.03c2.17,0.75,3.64,2.32,4.43,4.72c1.01,3.07,0.43,5.88-1.74,8.46c-2.17,2.58-5.79,4.71-10.89,6.37
				c-7.39,2.43-13.68,2.69-18.86,0.78l1.51-4.34c5.43,1.29,10.78,1.06,16.01-0.65c3.38-1.12,5.86-2.44,7.42-4
				c1.5-1.49,1.98-3.02,1.47-4.6c-0.61-1.84-2.18-2.68-4.74-2.52c-1.32,0.09-4.75,0.84-10.25,2.26c-4.87,1.25-8.44,1.7-10.67,1.36
				c-2.62-0.39-4.35-1.89-5.22-4.54c-0.88-2.72-0.32-5.28,1.71-7.7c2.03-2.41,5.37-4.37,10.01-5.9c6.25-2.04,11.94-2.33,17.09-0.86
				L321.17,418.31z"/>
			<path class="st0" d="M375.16,414.91l-5.56,3.38l-20.79-6.12l-4.36,10.59l4.8,7.9l-4.33,2.63l-15.83-26.06l4.32-2.62l8.2,13.49
				l10.04-24.57l6.24-3.8l-7.34,17.96L375.16,414.91z"/>
			<path class="st0" d="M405.8,385.78l-22.85,22.28l-21.3-21.82l22-21.47l3.19,3.25l-18.4,17.95l5.48,5.6l12.78-12.47l3.18,3.26
				l-12.79,12.46l6.3,6.46l19.23-18.77L405.8,385.78z"/>
			<path class="st0" d="M408.3,336.49l-8.03,12.17l21.65,14.29l-2.77,4.22l-21.66-14.29l-8.03,12.15l-3.8-2.51l18.84-28.53
				L408.3,336.49z"/>
			<path class="st0" d="M430.88,306.67c2.32-2.85,5.33-3.59,9.04-2.21c5.01,1.84,6.18,6.38,3.52,13.59l-8.43,22.79l-28.61-10.56
				l8.54-23.12c1.07-2.89,2.62-4.91,4.66-6.04c2.04-1.14,4.24-1.26,6.61-0.39C428.82,301.69,430.38,303.67,430.88,306.67z
				 M426.95,311.5c0.49-1.31,0.52-2.55,0.09-3.71c-0.43-1.17-1.19-1.94-2.27-2.35c-1.17-0.43-2.24-0.38-3.21,0.16
				c-0.99,0.54-1.73,1.49-2.24,2.85l-6.9,18.65l7.69,2.85L426.95,311.5z M439.18,316.43c1.46-3.95,0.89-6.41-1.73-7.38
				c-2.79-1.03-4.82,0.19-6.1,3.63l-6.97,18.85l8.11,2.98L439.18,316.43z"/>
			<path class="st0" d="M454.08,259.41l-0.62,5.49l-7.17,2.73l-2.31,20.41l6.38,4.26l-0.62,5.49l-28.49-19.45l0.72-6.31
				L454.08,259.41z M441.49,269.56l-15.56,6.06l13.8,9.48L441.49,269.56z"/>
			<path class="st0" d="M450.67,220.46l2.75,28.45l-30.35,2.94l-0.5-5.03l25.83-2.49l-2.26-23.44L450.67,220.46z"/>
			<path class="st0" d="M439.9,182.83l8.31,27.37l-29.18,8.86l-1.47-4.84l24.84-7.53l-6.84-22.53L439.9,182.83z"/>
		</g>
		<g>
			<path class="st0" d="M136.21,106.42l-2.23,4.57c-4.7-0.21-9.12,1.72-13.27,5.77c-3.14,3.07-4.92,6.38-5.32,9.93
				c-0.41,3.55,0.61,6.57,3.05,9.07c2.51,2.57,5.52,3.69,9.03,3.37c3.51-0.34,6.93-2.13,10.26-5.39c4.03-3.93,5.96-8.27,5.83-13.02
				l4.99-1.36c0.23,3.51-0.28,6.68-1.51,9.56c-1.23,2.87-3.29,5.71-6.16,8.51c-4.02,3.93-8.35,6.19-12.98,6.78
				c-5.28,0.66-9.75-0.88-13.4-4.61c-3.6-3.67-4.98-8.18-4.17-13.51c0.7-4.65,3.03-8.92,6.98-12.78
				C123.02,107.74,129.32,105.45,136.21,106.42z"/>
			<path class="st0" d="M191.91,102.02l-4.64,2.51l-6.74-12.43l-22.41,12.15l6.75,12.44l-4.63,2.51l-15.17-27.97l4.63-2.51
				l6.16,11.36l22.41-12.15l-6.16-11.35l4.64-2.52L191.91,102.02z"/>
			<path class="st0" d="M236.1,74.33c1.13,5.09-0.05,9.67-3.52,13.75c-3.07,3.55-7.3,5.93-12.74,7.14
				c-5.48,1.22-10.38,0.84-14.65-1.13c-4.87-2.21-7.87-5.86-8.99-10.92c-1.1-4.98,0.11-9.53,3.63-13.68
				c3.11-3.63,7.34-6.03,12.72-7.22c5.41-1.2,10.25-0.81,14.53,1.19C231.99,65.72,235,69.36,236.1,74.33z M230.74,75.52
				c-0.81-3.64-3.01-6.25-6.59-7.83c-3.09-1.34-6.62-1.59-10.56-0.71c-4.31,0.95-7.59,2.83-9.81,5.67
				c-2.23,2.82-2.96,5.93-2.21,9.33c0.77,3.53,2.73,6.06,5.86,7.63c3.14,1.57,6.93,1.87,11.36,0.89c4.41-0.98,7.69-2.83,9.87-5.6
				C230.81,82.13,231.5,79.01,230.74,75.52z"/>
			<path class="st0" d="M284.07,91.87l-6.13-0.37l-7.88-12.62l-16.04-0.95l-0.72,12.11l-5.26-0.32l1.87-31.76l25.05,1.48
				c3.34,0.2,5.89,1.26,7.69,3.16c1.79,1.92,2.62,4.41,2.42,7.48c-0.15,2.69-1.06,4.81-2.71,6.35c-1.52,1.44-3.55,2.29-6.09,2.56
				L284.07,91.87z M273.3,74.32c4.07,0.25,6.2-1.28,6.39-4.55c0.21-3.51-1.88-5.4-6.27-5.66l-18.52-1.09l-0.6,10.18L273.3,74.32z"/>
			<path class="st0" d="M325.52,104.8l-5.49-1.79l-1.28-7.9l-20.38-6.63l-5.69,5.65l-5.49-1.79l25.85-25.05l6.32,2.04L325.52,104.8z
				 M317.79,89.81l-2.95-17.16l-12.56,12.12L317.79,89.81z"/>
			<path class="st0" d="M355.95,123.49l-25.51-15.48l16.52-27.2l4.51,2.73l-14.04,23.14l21,12.76L355.95,123.49z"/>
			<path class="st0" d="M384.24,150.64l-23.75-23.36l22.31-22.69l22.87,22.51l-3.32,3.38l-19.11-18.8l-5.74,5.83l13.29,13.06
				l-3.33,3.39l-13.28-13.07l-6.6,6.72l19.99,19.65L384.24,150.64z"/>
		</g>
	</g>
</g>
</svg>
