<?xml version="1.0" encoding="utf-8"?>
<!-- Generator: Adobe Illustrator 24.0.1, SVG Export Plug-In . SVG Version: 6.00 Build 0)  -->
<svg version="1.1" id="Calque_1" xmlns="http://www.w3.org/2000/svg" xmlns:xlink="http://www.w3.org/1999/xlink" x="0px" y="0px"
	 viewBox="0 0 283.46 283.46" style="enable-background:new 0 0 283.46 283.46;" xml:space="preserve">
<style type="text/css">
	.st0{fill:#DA172B;}
</style>
<g>
	<path class="st0" d="M73.81,260.7c0,1.74-1.05,2.62-3.14,2.62s-3.14-0.87-3.14-2.62v-1.59h1.3v1.66c0,0.45,0.15,0.8,0.47,1.05
		c0.31,0.25,0.77,0.37,1.38,0.37c0.61,0,1.07-0.13,1.38-0.37c0.31-0.25,0.46-0.59,0.46-1.02c0-0.43-0.05-0.77-0.14-1.02
		c-0.09-0.26-0.28-0.52-0.57-0.81l-3.27-3.21c-0.39-0.39-0.65-0.76-0.79-1.13c-0.14-0.37-0.21-0.83-0.21-1.39
		c0-0.83,0.26-1.48,0.77-1.93c0.51-0.45,1.29-0.68,2.34-0.68c2,0,3,0.87,3,2.62v1.59h-1.3v-1.66c0-0.45-0.15-0.8-0.44-1.05
		c-0.29-0.25-0.73-0.37-1.31-0.37s-1.02,0.13-1.31,0.37c-0.29,0.25-0.44,0.59-0.44,1.02c0,0.44,0.04,0.78,0.13,1.03
		c0.09,0.25,0.28,0.51,0.58,0.78l3.33,3.21c0.36,0.4,0.61,0.78,0.75,1.15C73.74,259.67,73.81,260.14,73.81,260.7z"/>
	<path class="st0" d="M87.01,250.89v1.12h-2.42v11.02h-1.3v-11.02h-2.42v-1.12H87.01z"/>
	<path class="st0" d="M95.37,263.03h-1.3v-12.14h2.81c0.97,0,1.71,0.23,2.21,0.69c0.5,0.46,0.75,1.1,0.75,1.92v2.62
		c0,1.27-0.54,2.08-1.64,2.43l2.29,4.48h-1.43l-2.18-4.29h-1.51L95.37,263.03L95.37,263.03z M98.54,256.12v-2.62
		c0-0.47-0.14-0.84-0.43-1.1c-0.28-0.26-0.7-0.39-1.23-0.39h-1.51v5.6h1.51C97.99,257.61,98.54,257.12,98.54,256.12z"/>
	<path class="st0" d="M110.28,250.89h1.96l2.74,12.14h-1.3l-0.63-2.8h-3.56l-0.63,2.8h-1.3L110.28,250.89z M111.25,252.34
		l-1.53,6.76h3.06L111.25,252.34z"/>
	<path class="st0" d="M128.32,260.7c0,1.74-1.05,2.62-3.14,2.62s-3.14-0.87-3.14-2.62v-1.59h1.3v1.66c0,0.45,0.15,0.8,0.47,1.05
		c0.31,0.25,0.77,0.37,1.38,0.37c0.61,0,1.07-0.13,1.38-0.37c0.31-0.25,0.46-0.59,0.46-1.02c0-0.43-0.05-0.77-0.14-1.02
		c-0.09-0.26-0.28-0.52-0.57-0.81l-3.27-3.21c-0.39-0.39-0.65-0.76-0.79-1.13c-0.14-0.37-0.21-0.83-0.21-1.39
		c0-0.83,0.26-1.48,0.77-1.93c0.51-0.45,1.29-0.68,2.34-0.68c2,0,3,0.87,3,2.62v1.59h-1.3v-1.66c0-0.45-0.15-0.8-0.44-1.05
		c-0.29-0.25-0.73-0.37-1.31-0.37s-1.02,0.13-1.31,0.37c-0.29,0.25-0.44,0.59-0.44,1.02c0,0.44,0.04,0.78,0.13,1.03
		c0.09,0.25,0.28,0.51,0.58,0.78l3.33,3.21c0.36,0.4,0.61,0.78,0.75,1.15C128.25,259.67,128.32,260.14,128.32,260.7z"/>
	<path class="st0" d="M135.38,250.89h2.81c0.97,0,1.71,0.23,2.21,0.69c0.5,0.46,0.75,1.1,0.75,1.92v1.12c0,1.06-0.44,1.74-1.32,2.04
		c1.01,0.27,1.51,0.96,1.51,2.08v1.68c0,0.83-0.25,1.48-0.75,1.93c-0.5,0.45-1.24,0.68-2.22,0.68h-3L135.38,250.89L135.38,250.89z
		 M139.85,254.63v-1.12c0-0.4-0.15-0.75-0.44-1.05s-0.7-0.45-1.22-0.45h-1.51v4.2h1.51c0.52,0,0.93-0.16,1.22-0.48
		C139.7,255.41,139.85,255.04,139.85,254.63z M140.03,260.41v-1.68c0-0.4-0.15-0.76-0.45-1.1c-0.3-0.33-0.7-0.5-1.21-0.5h-1.69v4.76
		h1.69c0.52,0,0.93-0.15,1.22-0.44C139.88,261.18,140.03,260.83,140.03,260.41z"/>
	<path class="st0" d="M154.72,253.23v7.47c0,0.83-0.26,1.48-0.79,1.93c-0.53,0.45-1.31,0.68-2.36,0.68c-1.05,0-1.84-0.23-2.38-0.68
		c-0.53-0.45-0.8-1.1-0.8-1.93v-7.47c0-0.83,0.26-1.48,0.79-1.93c0.53-0.45,1.31-0.68,2.36-0.68c1.05,0,1.84,0.23,2.38,0.68
		C154.45,251.75,154.72,252.39,154.72,253.23z M153.42,260.7v-7.47c0-0.99-0.62-1.49-1.86-1.49c-1.24,0-1.86,0.5-1.86,1.49v7.47
		c0,0.99,0.62,1.49,1.86,1.49C152.8,262.19,153.42,261.69,153.42,260.7z"/>
	<path class="st0" d="M166.8,260.7v-9.81h1.3v9.81c0,0.83-0.27,1.48-0.79,1.93c-0.53,0.45-1.31,0.68-2.36,0.68
		c-1.05,0-1.84-0.23-2.38-0.68c-0.53-0.45-0.8-1.1-0.8-1.93v-9.81h1.3v9.81c0,0.99,0.62,1.49,1.86,1.49
		C166.18,262.19,166.8,261.69,166.8,260.7z"/>
	<path class="st0" d="M176.47,263.03h-1.3v-12.14h2.81c0.97,0,1.71,0.23,2.21,0.69s0.75,1.1,0.75,1.92v2.62
		c0,1.27-0.54,2.08-1.64,2.43l2.29,4.48h-1.43l-2.18-4.29h-1.51L176.47,263.03L176.47,263.03z M179.63,256.12v-2.62
		c0-0.47-0.14-0.84-0.43-1.1c-0.28-0.26-0.7-0.39-1.23-0.39h-1.51v5.6h1.51C179.08,257.61,179.63,257.12,179.63,256.12z"/>
	<path class="st0" d="M191.4,257.99v-1.12h3.39v6.16h-0.56l-0.48-1.2c-0.26,0.45-0.6,0.81-1.02,1.07c-0.42,0.27-0.88,0.4-1.38,0.4
		c-1.8,0-2.7-0.87-2.7-2.62v-7.47c0-0.83,0.26-1.48,0.76-1.93c0.51-0.45,1.27-0.68,2.29-0.68c1.02,0,1.79,0.23,2.31,0.68
		c0.52,0.45,0.78,1.1,0.78,1.93v1.03h-1.3v-1.03c0-0.99-0.59-1.49-1.77-1.49c-1.18,0-1.77,0.5-1.77,1.49v7.47
		c0,0.47,0.1,0.84,0.3,1.1c0.2,0.26,0.56,0.39,1.09,0.39c0.53,0,1.02-0.21,1.47-0.63c0.45-0.42,0.68-0.83,0.68-1.23v-2.33H191.4
		L191.4,257.99z"/>
	<path class="st0" d="M212.32,47c-3.77-6.67-10.04-11.63-17.53-14.35V6.86L67.53,57.79v22.73l77.58-32.16
		c-1.89,2.69-3.4,5.51-4.51,8.41L67.53,80.83v20.45l70.88-29.98c0.22,2.2,0.7,4.36,1.44,6.48L67.53,101.6v20.34l79.95-33.02
		c2.26,2.21,4.85,4.11,7.69,5.67l-87.64,27.67v119.87h127.26V94.31C213.3,83.26,221.14,62.6,212.32,47z M206.58,73.09
		c-0.82-1.33-1.96-2.7-3.57-3.73c-2.01-1.29-4.39-1.86-7.1-1.71c-0.3-3.55-1.02-7.22-2.16-11.02c6.12-1.02,10.98-1.42,14.02-1.56
		C209.35,61.06,208.84,67.34,206.58,73.09z M195.95,38.83c4.5,2.9,8.16,7.03,10.42,12.19c0.26,0.6,0.49,1.2,0.71,1.81
		c-3.2,0.17-8.03,0.6-14.02,1.62c-1.45-4.3-3.17-7.81-5.05-10.65C192.01,42.73,194.67,41.07,195.95,38.83z M194.02,37.69
		c-0.78,1.35-2.72,3.02-7.42,4.11c-3-3.91-6.31-6.33-9.51-7.78C183.13,33.68,189,34.98,194.02,37.69z M164.92,37.03
		c2.4-1.08,4.85-1.85,7.31-2.36c4.97,1.12,8.81,4.14,11.72,7.64c-4.62,0.7-9.47,0.28-14.6-0.17c-3.99-0.35-8.04-0.7-12-0.48
		C159.61,39.85,162.14,38.28,164.92,37.03z M154.5,44.19c4.65-0.66,9.58-0.23,14.67,0.21c5.12,0.45,10.4,0.91,15.36,0.12
		c0.34-0.05,0.66-0.11,0.99-0.17c2.68,3.8,4.38,7.84,5.31,10.49c-12.16,2.26-28.45,6.89-45.42,16.39
		C143.71,61.59,147.21,51.48,154.5,44.19z M147.29,77.53c-0.57-1.31-1.03-2.64-1.38-3.99c17.09-9.67,33.5-14.31,45.62-16.53
		c1.19,3.93,1.87,7.56,2.15,10.9c-0.76,0.14-1.55,0.33-2.36,0.57c-5.96,1.79-10.86,6.87-15.61,11.79
		c-4.65,4.82-9.12,9.45-14.48,11.38C155.13,88.81,150.11,83.98,147.29,77.53z M96.33,218.66c-17.28,0-20.9-10.77-20.9-19.8v-12.84
		h11.59v13.34c0,2.4,0.7,4.18,2.12,5.46c1.53,1.38,3.95,2.08,7.19,2.08c3.24,0,5.65-0.7,7.19-2.08c1.43-1.29,2.12-3.01,2.12-5.27
		c0-2.65-0.25-4.76-0.73-6.25c-0.47-1.43-1.48-3.03-3.01-4.75l-19.83-21.76c-2.52-2.82-4.27-5.64-5.22-8.39
		c-0.94-2.72-1.42-6.15-1.42-10.18c0-6.25,1.79-11.19,5.31-14.66c3.45-3.41,8.63-5.14,15.37-5.14c16.53,0,20,10.77,20,19.8v12.84
		h-11.59v-13.34c0-2.42-0.65-4.22-2-5.51c-1.41-1.35-3.68-2.04-6.75-2.04c-3.06,0-5.33,0.69-6.75,2.04c-1.35,1.29-2,3.05-2,5.38
		c0,2.71,0.23,4.82,0.69,6.28c0.42,1.36,1.43,2.86,3,4.47l20.3,21.91c2.33,2.88,3.97,5.73,4.87,8.46c0.9,2.71,1.36,6.14,1.36,10.16
		C117.23,207.89,113.61,218.66,96.33,218.66z M135.87,216.76h-11.99v-86.45h11.99V216.76z M185.43,198.8c0,3.14,0,19.85,0,19.85
		s-17.32,0-20.62,0c-6.62,0-11.71-1.74-15.14-5.16c-3.49-3.49-5.26-8.43-5.26-14.69l0.05-50.58c0-6.25,1.77-11.18,5.24-14.66
		c3.42-3.42,8.49-5.15,15.1-5.15c6.59,0,11.7,1.73,15.19,5.13c3.56,3.48,5.37,8.42,5.37,14.67v9.04h-11.59v-9.04
		c0-3.75-1.01-8.05-8.86-8.05s-8.86,4.3-8.86,8.05l-0.02,50.58c0,3.76,1.01,8.07,8.88,8.07s8.88-4.32,8.88-8.07v-16.22h-9.99v-11.75
		h21.61L185.43,198.8L185.43,198.8z M164.17,92.84c4.9-2.44,9.06-6.75,13.14-10.97c4.76-4.93,9.25-9.58,14.66-11.21
		c0.64-0.19,1.25-0.33,1.85-0.45c0.29,9.86-2.96,17-6.47,21.9C179.52,95.24,171.28,95.3,164.17,92.84z M191.09,90.36
		c0.83-1.43,1.6-2.97,2.28-4.65c1.98-4.88,2.86-10.16,2.66-15.79c2.23-0.12,4.16,0.32,5.76,1.35c1.85,1.18,2.97,2.96,3.62,4.43
		C202.44,81.67,197.52,86.88,191.09,90.36z"/>
	<g>
		<rect x="67.53" y="271.71" class="st0" width="127.26" height="5.05"/>
	</g>
</g>
</svg>
