<?xml version="1.0" encoding="utf-8"?>
<!-- Generator: Adobe Illustrator 21.1.0, SVG Export Plug-In . SVG Version: 6.00 Build 0)  -->
<svg version="1.1" xmlns="http://www.w3.org/2000/svg" xmlns:xlink="http://www.w3.org/1999/xlink" x="0px" y="0px"
	 viewBox="0 0 34 20" style="enable-background:new 0 0 34 20;" xml:space="preserve">
<style type="text/css">
	.st0{clip-path:url(#SVGID_2_);fill:#BC0030;}
	.st1{clip-path:url(#SVGID_2_);}
	.st2{clip-path:url(#SVGID_4_);}
</style>
<g id="Calque_1">
</g>
<g id="_x34_">
	<g id="ALBANIA_2_">
		<g>
			<g>
				<defs>
					<rect id="SVGID_1_" x="-0.2" y="-0.1" width="34.5" height="20.1"/>
				</defs>
				<clipPath id="SVGID_2_">
					<use xlink:href="#SVGID_1_"  style="overflow:visible;"/>
				</clipPath>
				<rect x="-0.2" y="-0.1" class="st0" width="34.5" height="20.1"/>
				<g class="st1">
					<defs>
						<rect id="SVGID_3_" x="-0.2" y="-0.1" width="34.5" height="20.1"/>
					</defs>
					<clipPath id="SVGID_4_">
						<use xlink:href="#SVGID_3_"  style="overflow:visible;"/>
					</clipPath>
					<path class="st2" d="M22.5,12.7c0,0-0.1-0.1-0.2-0.1c-0.1,0-0.2,0-0.2,0c-0.1-0.1-0.2,0-0.3,0.1c-0.1,0.1-0.1,0.1-0.4,0.1
						c-0.4,0-0.5,0-0.5,0c0,0,0.1-0.1,0.2-0.2c0.2-0.1,0.2-0.1,0.3-0.1c0.1,0,0.3,0,0.4-0.1c0.1-0.1,0.1-0.1,0.4-0.1
						c0.1,0,0,0,0.1,0c0-0.1-0.2-0.3-0.4-0.2c-0.1,0-0.2,0-0.2,0c-0.1-0.1-0.3,0.1-0.4,0.2c0,0.1-0.2,0.2-0.4,0.4l-0.2,0.1l-0.4-0.1
						c-0.4-0.2-0.8-0.3-0.8-0.3c0,0,0.1-0.1,0.1-0.2c0.1-0.1,0.1-0.1,0.1-0.1c0,0-0.1-0.1-0.2-0.1c-0.6-0.3-1-0.7-1.2-1.2
						c-0.1-0.3-0.1-0.4,0.1-0.1c0.1,0.2,0.2,0.3,0.4,0.4c0.2,0.1,0.3,0.1,0.3,0.1c0.1-0.1,0.1-0.2-0.1-0.3c-0.3-0.3-0.3-0.7-0.1-0.7
						c0.1,0,0.1,0,0.2,0.4c0.2,0.5,0.5,0.9,0.6,1c0.2,0.1,0.4,0,0.4-0.1c0-0.1,0-0.2-0.2-0.3c-0.3-0.2-0.5-0.5-0.5-0.9
						c0-0.1,0-0.2,0-0.2c0.1-0.1,0.1-0.1,0.3,0.2c0.3,0.5,0.9,1.2,1.2,1.3c0.4,0.2,0.9,0.2,1.1,0c0.1-0.1,0.1-0.1,0.1-0.2
						c0-0.1-0.1-0.2-0.3-0.2c-0.5,0-0.5,0-0.7-0.1c-0.3-0.2-0.7-0.6-0.9-1.1c-0.2-0.5-0.2-0.5,0.2-0.1c0.6,0.6,1,0.8,1.4,0.7
						c0.2-0.1,0.4-0.2,0.4-0.4c0-0.1-0.1-0.2-0.3-0.2c-0.1,0-0.3,0-0.4,0c-0.2,0-0.2,0-0.4-0.1c-0.1,0-0.2-0.2-0.4-0.2
						c-0.3-0.2-0.7-0.9-0.7-1c0-0.1,0.1-0.1,0.4,0.2c0.2,0.2,0.6,0.5,0.8,0.6c0.1,0,0.2,0.1,0.4,0.1c0.2,0,0.3,0,0.4-0.1
						c0.2-0.1,0.2-0.2,0.2-0.3c0-0.3-0.1-0.3-0.5-0.2c-0.5,0.1-0.8,0-1.3-0.4c-0.2-0.2-0.3-0.4-0.3-0.4c0-0.1,0.1,0,0.6,0.2
						c0.5,0.2,0.6,0.3,0.8,0.3c0.2,0,0.3,0,0.5-0.1c0.2-0.2,0.2-0.3,0.1-0.5c-0.1-0.1-0.3-0.1-0.5,0c-0.1,0-0.2,0.1-0.3,0.1
						c-0.3,0-0.8-0.1-1-0.4c-0.2-0.2-0.2-0.3-0.2-0.4c0-0.1,0.1,0,0.3,0c0.3,0.1,0.5,0.2,0.8,0.2c0.3,0,0.5,0,0.7-0.2
						c0.2-0.1,0.3-0.2,0.3-0.3c0,0,0-0.1-0.1-0.2c-0.1-0.1-0.2-0.1-0.5,0C21.6,7,21.2,7,20.9,6.8c-0.1-0.1-0.4-0.3-0.5-0.4
						c0-0.1,0-0.1,0-0.1c0,0,0.1,0,0.5,0.1c0.2,0.1,0.3,0.1,0.5,0.1c0.3,0,0.5,0,0.7-0.1c0.3-0.1,0.5-0.4,0.5-0.6
						c0-0.1-0.1-0.2-0.1-0.2c-0.1,0-0.2,0-0.3,0.2c-0.3,0.3-0.5,0.4-1,0.4c-0.5,0-0.6-0.1-0.6-0.2c0-0.1,0.1-0.2,0.3-0.2
						c0.6-0.1,1.2-0.4,1.6-0.7c0.2-0.2,0.3-0.3,0.3-0.5c0-0.2-0.1-0.3-0.2-0.4c-0.1,0-0.2,0-0.4,0.2c-0.2,0.3-0.4,0.5-0.9,0.7
						c-0.2,0.1-0.6,0.3-0.7,0.2c0,0-0.1-0.1-0.1-0.1C20.3,5,20.3,5,20.1,5.1c-0.1,0.1-0.4,0.2-0.6,0.2c-0.4,0.1-0.5,0.2-0.6,0.4
						c0,0.1-0.1,0.1-0.1,0.4c0,0.3,0,0.3-0.1,0.4c-0.1,0.1-0.1,0.1-0.3,0.1c-0.2,0-0.4-0.1-0.4-0.4c0-0.2,0-0.4,0.1-0.6
						c0.1-0.2,0.2-0.4,0.5-0.5c0.2-0.1,0.4-0.2,0.8-0.2c0.3,0,0.6-0.1,0.6-0.3c-0.3,0.1-0.6,0-0.6-0.1c0,0,0.5,0,0.6,0
						c0.2,0,0.3-0.1,0.4-0.2c0.1-0.1,0.2-0.2,0.2-0.3c0-0.1-0.1-0.1-0.2,0c0,0-0.1,0.1-0.1,0.2c-0.1,0.1-0.1,0.1-0.3,0.1
						c-0.2,0-0.2,0-0.3,0c0,0-0.1-0.1-0.1-0.1c0,0,0.1-0.1,0.2-0.1c0.1,0,0.2,0,0.3,0.1c0-0.1,0-0.1-0.1-0.2C20,4,19.9,4,19.7,4
						c-0.2,0-0.3,0-0.3-0.1c0,0-0.1-0.1-0.1-0.1c0,0-0.1,0-0.1,0c-0.2,0-0.4,0.1-0.7,0.2c-0.1,0.1-0.2,0.1-0.4,0.1
						c-0.1,0-0.2,0-0.3,0C17.6,4,17.5,4,17.5,4c0,0,0.2,0.2,0.3,0.3c0.1,0,0.1,0.1,0.1,0.1c0,0.1-0.2,0.2-0.3,0.2
						c-0.1,0-0.1,0.1,0,0.2c0.1,0,0.1,0.1,0.1,0.1c0,0.1-0.3,0.2-0.4,0.2c-0.1,0-0.1,0.1,0.1,0.1c0.1,0,0.1,0,0,0.1
						c-0.1,0.1-0.2,0.1-0.2,0.1c-0.1,0-0.1,0-0.1,0.1c0,0.1,0,0.1,0,0.1c0,0,0,0-0.1,0l0,0c0,0,0,0,0,0c0,0,0,0,0,0c0,0,0,0,0,0
						c0,0,0,0,0,0l0,0c0,0-0.1,0-0.1,0c0,0,0,0,0-0.1c0.1-0.1,0-0.1-0.1-0.1c-0.1,0-0.2,0-0.2-0.1c-0.1-0.1-0.1-0.1,0-0.1
						c0.2,0,0.2-0.1,0.1-0.1c-0.1,0-0.4-0.2-0.4-0.2c0,0,0-0.1,0.1-0.1c0.1-0.1,0.1-0.1,0-0.2c-0.1,0-0.3-0.2-0.3-0.2
						c0,0,0-0.1,0.1-0.1c0.1-0.1,0.3-0.2,0.3-0.3c0,0,0,0-0.2,0c-0.1,0-0.2,0-0.3,0c-0.2,0-0.2,0-0.4-0.1c-0.3-0.1-0.5-0.2-0.7-0.2
						c-0.1,0-0.1,0-0.1,0c0,0-0.1,0.1-0.1,0.1c0,0-0.1,0-0.3,0.1C14.1,4,14,4,13.9,4.1c0,0.1,0,0.1-0.1,0.2c0.1,0,0.3-0.1,0.3-0.1
						c0.1,0,0.2,0.1,0.2,0.1c0,0,0,0-0.1,0.1c-0.1,0-0.1,0-0.3,0c-0.2,0-0.3,0-0.3-0.1c0-0.1-0.1-0.1-0.1-0.2
						c-0.1-0.1-0.2-0.1-0.2,0c0,0.1,0.1,0.2,0.2,0.3c0.1,0.1,0.2,0.2,0.4,0.2c0.1,0,0.6,0,0.6,0c0,0-0.3,0.1-0.6,0.1
						c0.1,0.1,0.4,0.2,0.6,0.3c0.3,0,0.5,0.1,0.8,0.2c0.2,0.2,0.4,0.3,0.5,0.5C15.9,5.8,16,6,15.9,6.3c0,0.3-0.1,0.4-0.4,0.4
						c-0.2,0-0.2,0-0.3-0.1c-0.1-0.1-0.1-0.1-0.1-0.4c0-0.3,0-0.3-0.1-0.4c-0.1-0.2-0.2-0.3-0.6-0.4c-0.2-0.1-0.5-0.2-0.6-0.2
						C13.7,5,13.7,5,13.6,5.1c0,0.1-0.1,0.1-0.1,0.1c-0.1,0-0.5-0.1-0.7-0.2c-0.4-0.2-0.7-0.4-0.9-0.7C11.8,4.1,11.7,4,11.6,4
						c-0.1,0-0.2,0.2-0.2,0.4c0,0.2,0.1,0.3,0.3,0.5c0.4,0.3,1,0.6,1.6,0.7c0.2,0,0.3,0.1,0.3,0.2C13.5,6,13.3,6,12.8,6
						c-0.4,0-0.7-0.1-1-0.4c-0.2-0.2-0.2-0.2-0.3-0.2c-0.1,0-0.1,0.1-0.1,0.2c0,0.2,0.3,0.5,0.5,0.6c0.2,0.1,0.4,0.1,0.7,0.1
						c0.2,0,0.3,0,0.5-0.1c0.4-0.1,0.4-0.1,0.5-0.1c0,0,0,0,0,0.1c-0.1,0.1-0.3,0.4-0.5,0.4C12.8,7,12.4,7,11.9,6.7
						c-0.3-0.1-0.4-0.1-0.5,0c0,0-0.1,0.1-0.1,0.2c0,0.1,0.1,0.2,0.3,0.3c0.3,0.1,0.4,0.2,0.7,0.2c0.3,0,0.4,0,0.8-0.2
						c0.2-0.1,0.2-0.1,0.3,0c0,0.1,0,0.2-0.2,0.4c-0.2,0.2-0.7,0.4-1,0.4c-0.1,0-0.2,0-0.3-0.1c-0.2-0.1-0.4-0.1-0.5,0
						c-0.1,0.1-0.1,0.3,0.1,0.5c0.1,0.1,0.3,0.1,0.5,0.1c0.2,0,0.4,0,0.8-0.3c0.4-0.2,0.5-0.3,0.6-0.2c0,0.1-0.1,0.2-0.3,0.4
						c-0.5,0.5-0.7,0.6-1.3,0.4c-0.4-0.1-0.5,0-0.5,0.2c0,0.2,0.1,0.3,0.2,0.3c0.1,0.1,0.2,0.1,0.4,0.1c0.2,0,0.3,0,0.4-0.1
						c0.2-0.1,0.6-0.4,0.8-0.6c0.3-0.2,0.4-0.3,0.4-0.2c0,0.1-0.5,0.7-0.7,1c-0.1,0.1-0.3,0.2-0.3,0.2C12.4,10,12.4,10,12.2,10
						c-0.1,0-0.3,0-0.4,0c-0.2,0-0.3,0-0.3,0.2c0,0.1,0.2,0.3,0.4,0.4c0.4,0.1,0.9-0.1,1.4-0.7c0.4-0.4,0.5-0.4,0.2,0.1
						c-0.3,0.5-0.6,0.9-0.9,1.1c-0.2,0.1-0.2,0.1-0.7,0.1c-0.2,0-0.3,0-0.3,0.2c0,0.1,0,0.1,0.1,0.2c0.3,0.3,0.7,0.3,1.1,0
						c0.2-0.1,0.9-0.8,1.2-1.3c0.2-0.3,0.2-0.3,0.3-0.2c0,0.1,0,0.1,0,0.2c-0.1,0.4-0.3,0.7-0.5,0.9c-0.2,0.1-0.2,0.2-0.2,0.3
						c0,0.1,0.3,0.2,0.4,0.1c0.2-0.1,0.4-0.4,0.6-1c0.2-0.4,0.2-0.4,0.3-0.4c0.2,0,0.1,0.4-0.1,0.7c-0.1,0.1-0.1,0.2-0.1,0.3
						c0.1,0.1,0.2,0,0.3-0.1c0.2-0.1,0.3-0.2,0.4-0.4c0.2-0.3,0.2-0.2,0.1,0.1c-0.2,0.5-0.6,0.9-1.2,1.2c-0.1,0-0.2,0.1-0.2,0.1
						c0,0,0.1,0.1,0.1,0.1c0.1,0.1,0.1,0.1,0.1,0.2c0,0-0.3,0.2-0.8,0.3l-0.4,0.1l-0.2-0.1c-0.3-0.2-0.4-0.3-0.4-0.4
						c-0.1-0.2-0.3-0.3-0.4-0.2c-0.1,0-0.1,0-0.2,0c-0.2-0.1-0.4,0.1-0.4,0.2c0.1,0,0,0,0.1,0c0.2,0,0.3,0,0.4,0.1
						c0.1,0.1,0.2,0.2,0.4,0.1c0.1,0,0.1,0,0.3,0.1c0.1,0.1,0.2,0.1,0.2,0.2c0,0-0.1,0-0.5,0c-0.3,0-0.3,0-0.4-0.1
						c-0.1-0.1-0.2-0.1-0.3-0.1c-0.1,0-0.1,0-0.2,0c-0.1,0-0.1,0-0.2,0.1c-0.1,0.1-0.1,0.1-0.2,0.2c0.1,0,0.1,0,0.2,0
						c0.2,0,0.2,0,0.2,0c0,0,0.1,0.1,0.1,0.1c0.1,0,0.3,0,0.3,0c0.1,0,0.2,0,0.5,0c0.2,0,0.4,0,0.4,0c0,0-0.1,0.1-0.2,0.1
						c-0.2,0.1-0.2,0.1-0.4,0.1c-0.2,0-0.4,0.1-0.4,0.2c0,0,0,0.1-0.1,0.2c0,0.1-0.1,0.2,0.1,0.4c0.1-0.3,0.1-0.2,0.1-0.2
						c0.1-0.1,0.1-0.1,0.2-0.1c0.2,0,0.3-0.1,0.3-0.2c0-0.1,0.1-0.1,0.3-0.3c0.3-0.2,0.3-0.2,0.7,0c0.2,0.1,0.2,0.1,0.3,0.2
						c0.1,0.1,0.2,0.2,0.3,0.1c0.1,0,0.2,0,0.3,0.1c0,0,0,0,0.1,0.1c0-0.1,0-0.1,0-0.2c0-0.1,0-0.1-0.1-0.3
						c-0.2-0.2-0.3-0.2-0.4-0.2c-0.1,0-0.1,0-0.2,0c-0.2-0.1-0.2-0.1-0.1-0.1c0,0,0.3-0.1,0.5-0.2l0.5-0.2l0.1,0.1
						c0.1,0.1,0.4,0.2,0.5,0.2c0.1,0,0.1,0,0.1-0.1c0-0.1,0.3-0.7,0.5-1c0.3-0.4,0.4-0.5,0.5-0.4c0,0,0,0.1,0,0.3
						c0,0.5-0.3,1.1-0.6,1.4c-0.2,0.2-0.4,0.3-0.6,0.3c-0.2,0-0.3,0.1-0.3,0.1c0,0,0.1,0.2,0.2,0.2c0.1,0,0.1,0,0.3,0
						c0.2,0,0.2,0,0.4-0.1c0.2-0.1,0.2-0.1,0.2-0.1c0,0,0,0.1,0,0.2c-0.1,0.2-0.2,0.3-0.5,0.3c-0.3,0-0.5,0.1-0.3,0.3
						c0.1,0.1,0.2,0.2,0.4,0.2c0.2,0,0.4-0.1,0.6-0.3c0.1-0.1,0.2-0.2,0.2-0.1c0,0,0,0.2,0,0.3c0,0.1-0.2,0.3-0.3,0.3
						c0,0-0.1,0-0.2,0.1c-0.3,0.1-0.3,0.2-0.1,0.3c0.1,0.1,0.3,0.1,0.5,0c0.1,0,0.4-0.3,0.4-0.4c0-0.1,0.1,0,0.1,0.1
						c0,0.1-0.1,0.2-0.2,0.4c-0.1,0.2-0.1,0.4,0.1,0.6c0.1,0.2,0.2,0.3,0.3,0.3c0.1,0,0.2-0.2,0.3-0.3c0.2-0.3,0.2-0.5,0.1-0.6
						c-0.1-0.2-0.2-0.3-0.2-0.4c0-0.1,0-0.2,0.1-0.1c0.1,0.1,0.3,0.4,0.4,0.4c0.2,0.1,0.4,0.1,0.5,0c0.2-0.1,0.2-0.2-0.1-0.3
						c-0.1,0-0.2-0.1-0.2-0.1c-0.1,0-0.3-0.2-0.3-0.3c0-0.1,0-0.3,0-0.3c0,0,0.1,0.1,0.2,0.1c0.2,0.2,0.4,0.3,0.6,0.3
						c0.2,0,0.3-0.1,0.4-0.2c0.1-0.2,0-0.3-0.3-0.3c-0.3,0-0.5-0.1-0.5-0.3c0-0.1,0-0.1,0-0.2c0,0,0.1,0,0.2,0.1
						c0.2,0.1,0.2,0.1,0.4,0.1c0.1,0,0.2,0,0.3,0c0.1,0,0.2-0.2,0.2-0.2c0-0.1-0.1-0.1-0.3-0.1c-0.2,0-0.4-0.1-0.6-0.3
						c-0.3-0.3-0.6-1-0.6-1.4c0-0.2,0-0.2,0-0.3c0.1-0.1,0.3,0,0.5,0.4c0.2,0.2,0.5,0.8,0.5,1c0,0.1,0,0.1,0.1,0.1
						c0.1,0,0.3-0.1,0.5-0.2l0.1-0.1l0.5,0.2c0.3,0.1,0.5,0.2,0.6,0.2c0.1,0,0,0.1-0.1,0.1c-0.1,0.1-0.2,0.1-0.2,0
						c-0.1,0-0.2,0-0.4,0.2c-0.1,0.1-0.1,0.2-0.1,0.3c0,0.1,0,0.1,0,0.2c0.1,0,0.1,0,0.1-0.1c0.1-0.1,0.1-0.1,0.3-0.1
						c0.1,0,0.2,0,0.3-0.1c0-0.1,0.1-0.1,0.3-0.2c0.4-0.2,0.3-0.2,0.7,0c0.2,0.1,0.3,0.2,0.3,0.3c0.1,0.1,0.1,0.2,0.3,0.2
						c0.1,0,0.1,0,0.2,0.1c0,0,0,0,0.1,0.2c0.1-0.2,0.1-0.3,0-0.4c0-0.1,0-0.2,0-0.2c0-0.1-0.2-0.2-0.4-0.2c-0.2,0-0.2,0-0.4-0.1
						C21,13,20.9,13,21,13c0,0,0.2,0,0.4,0c0.3,0,0.4,0,0.5,0c0.1,0,0.3,0,0.3,0c0,0,0.1-0.1,0.1-0.1c0.1,0,0.1-0.1,0.2,0
						c0.1,0,0.1,0,0.2,0C22.7,12.8,22.6,12.8,22.5,12.7 M18.9,4.3c0.1,0,0-0.1,0.1-0.1c0,0,0.1,0,0.1,0c0.1,0,0.1,0.1,0.1,0.2
						c-0.1,0.1-0.3,0.1-0.4,0C18.6,4.1,18.8,4.4,18.9,4.3 M15.3,4.4c-0.1,0-0.3,0-0.4,0c-0.1,0,0-0.1,0.1-0.2c0.1,0,0.1,0,0.1,0
						c0.1,0,0,0.1,0.1,0.1C15.2,4.4,15.4,4.1,15.3,4.4"/>
				</g>
			</g>
		</g>
	</g>
</g>
</svg>
