<?xml version="1.0" encoding="utf-8"?>
<!-- Generator: Adobe Illustrator 21.1.0, SVG Export Plug-In . SVG Version: 6.00 Build 0)  -->
<svg version="1.1" xmlns="http://www.w3.org/2000/svg" xmlns:xlink="http://www.w3.org/1999/xlink" x="0px" y="0px"
	 viewBox="0 0 34 20" style="enable-background:new 0 0 34 20;" xml:space="preserve">
<style type="text/css">
	.st0{clip-path:url(#SVGID_2_);fill:#438FC3;}
	.st1{clip-path:url(#SVGID_2_);fill:#D6003F;}
	.st2{clip-path:url(#SVGID_2_);fill:#48AE68;}
	.st3{clip-path:url(#SVGID_2_);}
	.st4{clip-path:url(#SVGID_4_);fill:#FFFFFF;}
</style>
<g id="Calque_1">
</g>
<g id="_x34_">
	<g id="AZERBAIJAN_2_">
		<g>
			<g>
				<defs>
					<rect id="SVGID_1_" x="-0.5" y="-0.2" width="35" height="20.4"/>
				</defs>
				<clipPath id="SVGID_2_">
					<use xlink:href="#SVGID_1_"  style="overflow:visible;"/>
				</clipPath>
				<rect x="-0.5" y="-0.2" class="st0" width="35" height="20.4"/>
				<rect x="-0.5" y="6.6" class="st1" width="35" height="6.8"/>
				<rect x="-0.5" y="13.4" class="st2" width="35" height="6.8"/>
				<g class="st3">
					<defs>
						<rect id="SVGID_3_" x="-0.5" y="-0.2" width="35" height="20.4"/>
					</defs>
					<clipPath id="SVGID_4_">
						<use xlink:href="#SVGID_3_"  style="overflow:visible;"/>
					</clipPath>
					<path class="st4" d="M17.7,12.4c-1.3,0-2.4-1.1-2.4-2.4s1.1-2.4,2.4-2.4c0.5,0,0.9,0.1,1.3,0.4c-0.5-0.5-1.2-0.9-2-0.9
						c-1.6,0-2.9,1.3-2.9,2.9c0,1.6,1.3,2.9,2.9,2.9c0.8,0,1.5-0.3,2-0.9C18.6,12.2,18.2,12.4,17.7,12.4"/>
					<polygon class="st4" points="20.9,11.1 20.1,10.7 19.8,11.5 19.5,10.7 18.8,11.1 19.1,10.3 18.3,10 19.1,9.7 18.8,8.9 
						19.5,9.3 19.8,8.5 20.1,9.3 20.9,8.9 20.6,9.7 21.4,10 20.6,10.3 					"/>
				</g>
			</g>
		</g>
	</g>
</g>
</svg>
