<?xml version="1.0" encoding="utf-8"?>
<!-- Generator: Adobe Illustrator 21.1.0, SVG Export Plug-In . SVG Version: 6.00 Build 0)  -->
<svg version="1.1" xmlns="http://www.w3.org/2000/svg" xmlns:xlink="http://www.w3.org/1999/xlink" x="0px" y="0px"
	 viewBox="0 0 34 20" style="enable-background:new 0 0 34 20;" xml:space="preserve">
<style type="text/css">
	.st0{clip-path:url(#SVGID_2_);fill:#250392;}
	.st1{clip-path:url(#SVGID_2_);fill:#F5CC28;}
	.st2{clip-path:url(#SVGID_2_);fill:#FFFFFF;}
</style>
<g id="Calque_1">
</g>
<g id="_x34_">
	<g id="BOSNIA_3_">
		<g>
			<g>
				<defs>
					<rect id="SVGID_1_" x="-0.5" y="-0.5" width="35" height="20.4"/>
				</defs>
				<clipPath id="SVGID_2_">
					<use xlink:href="#SVGID_1_"  style="overflow:visible;"/>
				</clipPath>
				<rect x="-0.5" y="-0.5" class="st0" width="35" height="20.4"/>
				<polygon class="st1" points="7.4,-0.5 27.8,19.9 27.8,-0.5 				"/>
				<polygon class="st2" points="4.4,-0.5 3.7,-0.5 3,-0.5 2.6,0.8 3.7,0 4.9,0.8 				"/>
				<polygon class="st2" points="23.7,19.1 22.3,19.1 23.4,19.9 24.1,19.9 24.9,19.9 26,19.1 24.6,19.1 24.1,17.8 				"/>
				<polygon class="st2" points="6.3,2.6 7.4,3.4 7,2.1 8.1,1.2 6.7,1.2 6.3,-0.1 5.8,1.2 4.4,1.2 5.6,2.1 5.1,3.4 				"/>
				<polygon class="st2" points="8.8,5.1 10,6 9.5,4.6 10.7,3.8 9.3,3.8 8.8,2.4 8.4,3.8 7,3.8 8.1,4.6 7.7,6 				"/>
				<polygon class="st2" points="11.4,7.7 12.5,8.5 12.1,7.2 13.2,6.3 11.8,6.3 11.4,5 11,6.3 9.5,6.3 10.7,7.2 10.2,8.5 				"/>
				<polygon class="st2" points="13.9,10.2 15.1,11.1 14.6,9.7 15.8,8.9 14.4,8.9 13.9,7.5 13.5,8.9 12.1,8.9 13.2,9.7 12.8,11.1 
									"/>
				<polygon class="st2" points="16.5,12.8 17.6,13.6 17.2,12.3 18.3,11.4 16.9,11.4 16.5,10.1 16.1,11.4 14.6,11.4 15.8,12.3 
					15.3,13.6 				"/>
				<polygon class="st2" points="19,15.3 20.2,16.2 19.7,14.8 20.9,14 19.5,14 19,12.7 18.6,14 17.2,14 18.3,14.8 17.9,16.2 				"/>
				<polygon class="st2" points="21.6,17.9 22.7,18.7 22.3,17.4 23.4,16.5 22,16.5 21.6,15.2 21.2,16.5 19.7,16.5 20.9,17.4 
					20.5,18.7 				"/>
			</g>
		</g>
	</g>
</g>
</svg>
