<?xml version="1.0" encoding="utf-8"?>
<!-- Generator: Adobe Illustrator 21.1.0, SVG Export Plug-In . SVG Version: 6.00 Build 0)  -->
<svg version="1.1" xmlns="http://www.w3.org/2000/svg" xmlns:xlink="http://www.w3.org/1999/xlink" x="0px" y="0px"
	 viewBox="0 0 34 20" style="enable-background:new 0 0 34 20;" xml:space="preserve">
<style type="text/css">
	.st0{clip-path:url(#SVGID_2_);fill:#BA0019;}
	.st1{clip-path:url(#SVGID_2_);fill:#3E9A13;}
	.st2{clip-path:url(#SVGID_2_);fill:#FFFFFF;}
</style>
<g id="Calque_1">
</g>
<g id="_x34_">
	<g id="BELARUS_3_">
		<g>
			<g>
				<defs>
					<rect id="SVGID_1_" x="-0.4" y="-0.1" width="34.7" height="20.3"/>
				</defs>
				<clipPath id="SVGID_2_">
					<use xlink:href="#SVGID_1_"  style="overflow:visible;"/>
				</clipPath>
				<rect x="-0.4" y="-0.1" class="st0" width="34.7" height="13.5"/>
				<rect x="-0.4" y="13.4" class="st1" width="34.7" height="6.8"/>
				<rect x="-0.4" y="-0.1" class="st2" width="4.5" height="20.3"/>
				<path class="st0" d="M0.2,19.8h0.2v-0.6H0.2V19.8z M1.8,19.8H2v-0.6H1.8V19.8z M3.4,19.8h0.2v-0.6H3.4V19.8z M1,18.3h0.2v-0.5H1
					V18.3z M2.6,18.3h0.2v-0.5H2.6V18.3z M0.2,17h0.2v-0.6H0.2V17z M1.8,17H2v-0.6H1.8V17z M3.4,17h0.2v-0.6H3.4V17z M0.6,17.8h0.2
					v-0.5H1v-0.5h0.2v0.5h0.2v0.5h0.2v0.5H1.4v0.5H1.2v0.5H1v-0.5H0.8v-0.5H0.6V17.8z M2.2,17.8h0.2v-0.5h0.2v-0.5h0.2v0.5H3v0.5
					h0.2v0.5H3v0.5H2.8v0.5H2.6v-0.5H2.4v-0.5H2.2V17.8z M2.6,15.9v0.5H2.4v0.5H2.2v0.5H2v0.5H1.8v-0.5H1.6v-0.5H1.4v-0.5H1.2v-0.5
					H1v0.5H0.8v0.5H0.6v0.5H0.4v0.5H0.2v0.5h0.2v0.5h0.2v0.5h0.2v0.5H1v0.5h0.2v-0.5h0.2v-0.5h0.2v-0.5h0.2v-0.5H2v0.5h0.2v0.5h0.2
					v0.5h0.2v0.5h0.2v-0.5H3v-0.5h0.2v-0.5h0.2v-0.5h0.2v-0.5H3.4v-0.5H3.2v-0.5H3v-0.5H2.8v-0.5H2.6z M3.1,15.5L3.1,15.5l0.1-0.2
					h0.1v0.2h0.1v0.2H3.3v0.2H3.2v-0.2H3.1V15.5z M3.1,14.8v0.3H3v0.3H2.9v0.4H3V16h0.1v0.3h0.3V16h0.1v-0.3h0.1v-0.4H3.5v-0.3H3.4
					v-0.3H3.1z M0.4,15.5h0.1v-0.2h0.1v0.2h0.1v0.2H0.6v0.2H0.5v-0.2H0.4V15.5z M0.4,14.8v0.3H0.3v0.3H0.2v0.4h0.1V16h0.1v0.3h0.3
					V16h0.1v-0.3h0.1v-0.4H0.8v-0.3H0.7v-0.3H0.4z M1.5,15.5L1.5,15.5l0.1-0.2h0.1v0.2h0.1v0.2H1.7v0.2H1.6v-0.2H1.5V15.5z M2,15.5
					h0.1v-0.2h0.1v0.2h0.1v0.2H2.2v0.2H2.1v-0.2H2V15.5z M2,14.8v0.3H1.8v-0.3H1.5v0.3H1.4v0.3H1.3v0.4h0.1V16h0.1v0.3h0.3V16H2v0.3
					h0.3V16h0.1v-0.3h0.1v-0.4H2.4v-0.3H2.3v-0.3H2z M0.2,14.6h0.2v-0.6H0.2V14.6z M1.8,14.6H2v-0.6H1.8V14.6z M3.4,14.6h0.2v-0.6
					H3.4V14.6z M0.2,12.3h0.2v-0.4H0.2V12.3z M3.4,12.3h0.2v-0.4H3.4V12.3z M1.8,11H2v-0.5H1.8V11z M0.2,9.7V10v0v0.3h0.2V10v0V9.7
					H0.2z M1.3,9.7V10v0v0.3h0.2V10v0V9.7H1.3z M2.3,9.7V10v0v0.3h0.2V10v0V9.7H2.3z M3.4,9.7V10v0v0.3h0.2V10v0V9.7H3.4z M2.1,9.4
					v0.2H2v0.1H1.8V9.6H1.7V9.4H1.5v0.3h0.1v0.1h0.1V10v0v0.2H1.6v0.1H1.5v0.3h0.2v-0.2h0.1v-0.1H2v0.1h0.1v0.2h0.2v-0.3H2.2v-0.1
					H2.1V10v0V9.8h0.1V9.7h0.1V9.4H2.1z M1.8,9.5H2V9H1.8V9.5z M0.2,8.1h0.2V7.7H0.2V8.1z M3.4,8.1h0.2V7.7H3.4V8.1z M0.2,5.9h0.2
					V5.4H0.2V5.9z M1.8,5.9H2V5.4H1.8V5.9z M3.4,5.9h0.2V5.4H3.4V5.9z M1,10L1,10L1,10V9.8h0.2V9.5h0.2V9.1h0.3V8.7h0.1V8.5h0.1H2
					v0.2h0.1v0.4h0.3v0.2v0.2h0.2v0.3h0.2V10v0.2H2.6v0.3H2.4v0.2v0.2H2.1v0.4H2v0.2H1.9H1.8v-0.2H1.7v-0.4H1.4v-0.4H1.2v-0.3H1V10z
					 M2.6,4.8v0.5H2.4v0.5H2.2v0.5H2v0.4v0.1H1.8V6.2H1.6V5.8H1.4V5.3H1.2V4.8H1v0.5H0.8v0.5H0.6v0.5H0.4v0.4v0.1H0.2v0.5h0.2v0.5
					h0.2v0.5h0.2v0.5H1V8.1h0.2V7.6h0.2V7.2H1.2V6.6h0.2v0.1V7h0.2v0.7h0.1v0.5l-0.3,0v0.4H1.2v0.3H1v0.5H0.8V8.8H0.6V8.6H0.4V8.3
					H0.2v0.8h0.2v0.4h0.2v0.3h0.2V10v0v0.2H0.6v0.3H0.4v0.4H0.2v0.8h0.2v-0.3h0.2v-0.3h0.2v-0.5H1v0.5h0.2v0.3h0.2v0.4l0.3,0v0.5
					H1.6V13H1.4v0.3v0.1H1.2v-0.6h0.2v-0.5H1.2v-0.5H1v-0.5H0.8v0.5H0.6v0.5H0.4v0.5H0.2v0.5h0.2v0.1v0.4h0.2v0.5h0.2v0.5H1v0.5l0,0
					l0,0h0.2v-0.5h0.2v-0.5h0.2v-0.5h0.2v-0.5H2v0.1v0.4h0.2v0.5h0.2v0.5h0.2v0.5h0.2v-0.5H3v-0.5h0.2v-0.5h0.2v-0.5h0.2v-0.5H3.4
					v-0.5H3.2v-0.5H3v-0.5H2.8v0.5H2.6v0.5H2.4v0.5h0.2v0.5v0.1H2.4v-0.1V13H2.2v-0.7h0H2.1v-0.5h0.1h0.1h0.1h0.1v-0.4h0.2v-0.3h0.2
					v-0.5H3v0.5h0.2v0.3h0.2v0.3h0.2v-0.8H3.4v-0.4H3.2v-0.3H3V10v0V9.8h0.2V9.5h0.2V9.1h0.2V8.3H3.4v0.3H3.2v0.3H3v0.5H2.8V8.8H2.6
					V8.6H2.4V8.2H2.3H2.2H2.1H2.1V7.7h0.1h0V7h0.2V6.7V6.6h0.2v0.1v0.5H2.4v0.5h0.2v0.5h0.2v0.5H3V8.1h0.2V7.6h0.2V7.2h0.2V6.7H3.4
					V6.2H3.2V5.8H3V5.3H2.8V4.8H2.6z M0.4,4.4L0.4,4.4l0.1-0.2h0.1v0.2h0.1v0.2H0.6v0.2H0.5V4.5H0.4V4.4z M0.4,4L0.4,4L0.3,4.3H0.2
					v0.4h0.1v0.3h0.1v0.3h0.3V4.9h0.1V4.6h0.1V4.3H0.8V4H0.7V3.7H0.4V4z M1.5,4.4L1.5,4.4l0.1-0.2h0.1v0.2h0.1v0.2H1.7v0.2H1.6V4.5
					H1.5V4.4z M2,4.4h0.1V4.2h0.1v0.2h0.1v0.2H2.2v0.2H2.1V4.5H2V4.4z M1.5,4L1.5,4L1.4,4.3H1.3v0.4h0.1v0.3h0.1v0.3h0.3V4.9H2v0.3
					h0.3V4.9h0.1V4.6h0.1V4.3H2.4V4H2.3V3.7H2V4H1.8V3.7H1.5V4z M3.1,4.3L3.1,4.3l0.1-0.2h0.1v0.2h0.1v0.2H3.3v0.2H3.2V4.5H3.1V4.3z
					 M3.1,3.7V4H3v0.3H2.9v0.4H3v0.3h0.1v0.3h0.3V4.9h0.1V4.6h0.1V4.3H3.5V4H3.4V3.7H3.1z M0.2,3.5h0.2V3H0.2V3.5z M1.8,3.5H2V3H1.8
					V3.5z M3.4,3.5h0.2V3H3.4V3.5z M1,2.2h0.2V1.7H1V2.2z M2.6,2.2h0.2V1.7H2.6V2.2z M0.2,0.8h0.2V0.2H0.2V0.8z M1.8,0.8H2V0.2H1.8
					V0.8z M3.4,0.8h0.2V0.2H3.4V0.8z M0.6,1.7h0.2V1.3H1V0.8h0.2v0.5h0.2v0.5h0.2v0.5H1.4v0.5H1.2v0.5H1V2.7H0.8V2.2H0.6V1.7z
					 M2.2,1.7h0.2V1.3h0.2V0.8h0.2v0.5H3v0.5h0.2v0.5H3v0.5H2.8v0.5H2.6V2.7H2.4V2.2H2.2V1.7z M2.6-0.1v0.5H2.4v0.5H2.2v0.5H2v0.5
					H1.8V1.3H1.6V0.8H1.4V0.3H1.2v-0.5H1v0.5H0.8v0.5H0.6v0.5H0.4v0.5H0.2v0.5h0.2v0.5h0.2v0.5h0.2v0.5H1v0.5h0.2V3.6h0.2V3.1h0.2
					V2.7h0.2V2.2H2v0.5h0.2v0.5h0.2v0.5h0.2v0.5h0.2V3.6H3V3.1h0.2V2.7h0.2V2.2h0.2V1.7H3.4V1.3H3.2V0.8H3V0.3H2.8v-0.5H2.6z"/>
			</g>
		</g>
	</g>
</g>
</svg>
