<?xml version="1.0" encoding="utf-8"?>
<!-- Generator: Adobe Illustrator 21.1.0, SVG Export Plug-In . SVG Version: 6.00 Build 0)  -->
<svg version="1.1" xmlns="http://www.w3.org/2000/svg" xmlns:xlink="http://www.w3.org/1999/xlink" x="0px" y="0px"
	 viewBox="0 0 34 20" style="enable-background:new 0 0 34 20;" xml:space="preserve">
<style type="text/css">
	.st0{fill:#CF142B;}
	.st1{fill:#00247D;}
	.st2{fill:#FFFFFF;}
	.st3{fill:#2F8F22;}
	.st4{fill:#D40000;stroke:#000000;stroke-width:2.846175e-02;stroke-linejoin:round;}
	.st5{fill:#64B4D1;stroke:#000000;stroke-width:2.133775e-02;}
	.st6{fill:#FFFFFF;stroke:#00247D;stroke-width:2.845147e-02;stroke-miterlimit:10;}
	.st7{fill:none;stroke:#000000;stroke-width:2.845147e-02;stroke-miterlimit:10;}
	.st8{fill:#784421;stroke:#000000;stroke-width:2.133775e-02;}
	.st9{fill:#64B4D1;stroke:#00247D;stroke-width:2.133775e-02;stroke-miterlimit:2.613;}
	.st10{fill:#F5CE00;stroke:#000000;stroke-width:2.845147e-02;stroke-miterlimit:2.613;}
	.st11{fill:#E4CB5E;stroke:#000000;stroke-width:2.133775e-02;stroke-miterlimit:2.613;}
	.st12{fill:none;stroke:#000000;stroke-width:2.133775e-02;stroke-miterlimit:10;}
	.st13{fill:#784421;stroke:#000000;stroke-width:1.302870e-02;}
	.st14{fill:none;stroke:#000000;stroke-width:7.113725e-03;stroke-miterlimit:2.613;}
	.st15{fill:none;stroke:#000000;stroke-width:2.845147e-02;stroke-miterlimit:2.613;}
	.st16{fill:none;stroke:#000000;stroke-width:2.133775e-02;stroke-miterlimit:2.613;}
	.st17{fill:none;stroke:#00247D;stroke-width:2.845147e-02;stroke-miterlimit:10;}
	.st18{fill:#784421;}
	.st19{fill:none;stroke:#000000;stroke-width:6.850000e-02;}
</style>
<g id="Calque_1">
</g>
<g id="_x34_">
</g>
<g id="svg1">
	<g>
		<rect id="rect2414" x="-1.1" y="-0.9" class="st0" width="36.2" height="21.8"/>
		<rect id="rect124" x="-0.1" y="-0.3" class="st1" width="17.1" height="8.6"/>
		<g id="g584" transform="scale(8.333333,8.333333)">
			<path id="path146" class="st2" d="M0,0v0.1L1.8,1H2V0.9L0.2,0H0z M2,0v0.1L0.2,1H0V0.9L1.8,0H2z"/>
			<path id="path136" class="st2" d="M0.8,0v1h0.3V0H0.8z M0,0.3v0.3H2V0.3H0z"/>
			<path id="path141" class="st0" d="M0,0.4v0.2H2V0.4H0z M0.9,0v1h0.2V0H0.9z"/>
			<path id="path150" class="st0" d="M0,1l0.7-0.3h0.2L0.1,1H0z M0,0l0.7,0.3H0.5L0,0L0,0z M1.2,0.3L1.9,0H2L1.4,0.3H1.2z M2,1
				L1.4,0.7h0.2L2,1L2,1z"/>
		</g>
		<path class="st2" d="M29.5,5.1v7.3c0,1.9-3.9,2.6-3.9,2.6s-3.9-0.6-3.9-2.6V5.1H29.5z"/>
		<path class="st3" d="M29.5,12.3c0,1.9-3.9,2.6-3.9,2.6s-3.9-0.6-3.9-2.6c0,0,0-0.2,0.1-0.2c0,0,0,0.3,0.2,0.6c0,0-0.2-0.3,0-0.7
			c0,0-0.1,0.4,0.2,0.7c0,0-0.1-0.4,0-0.8c0,0-0.1,0.6,0.2,0.8c0,0,0.1-0.4,0-0.6c0,0,0.2,0.1,0.2,0.6c0,0,0.1-0.1,0.1-0.5
			c0,0,0,0.4,0.2,0.5c0,0,0,0,0-0.2c-0.1-0.2,0-0.3,0-0.3c0,0,0,0.2,0.2,0.4c0,0-0.1-0.4,0-0.4c0,0,0,0.3,0.2,0.4c0,0,0-0.1,0-0.2
			c0,0,0-0.1,0-0.2c0,0,0.1,0.3,0.2,0.3c0,0-0.1-0.2,0-0.3c0,0,0,0.2,0.2,0.3c0,0-0.1-0.2-0.1-0.4l1.3,0.1l0.7,0l2-0.1l0.3-0.3
			c0,0,0.1,0.2-0.1,0.5c0,0,0.2,0,0.3-0.4c0,0,0.1,0.2,0,0.4c0,0,0.2-0.2,0.3-0.5c0,0,0.1,0.3-0.1,0.5c0,0,0.2-0.1,0.3-0.4
			c0,0,0.1,0.2-0.1,0.4c0,0,0.4-0.2,0.4-0.6c0,0,0.2,0.2,0,0.5c0,0,0.2-0.2,0.2-0.4c0,0,0.1,0.1,0,0.4c0,0,0.2-0.2,0.3-0.4
			c0,0,0,0.2-0.1,0.5c0,0,0.1,0,0.3-0.3c0,0,0,0.1-0.1,0.3c0,0,0.1,0,0.2-0.3c0,0,0,0.1,0,0.3c0,0,0.1-0.1,0.1-0.3
			C29.5,12.1,29.5,12.2,29.5,12.3C29.5,12.4,29.5,12.3,29.5,12.3z"/>
		<path class="st4" d="M27.5,8.2c0,0-0.1,0-0.3,0c-0.2-0.1-0.2,0-0.3,0c0,0,0.1-0.1-0.1-0.2c0,0,0.1,0.1,0,0.2c0,0,0,0-0.1,0
			c0,0-0.1-0.1-0.1-0.1c0,0,0.1-0.1,0.1-0.2s-0.1-0.2-0.1-0.2c0,0,0,0.1,0,0.1c0,0-0.2-0.1,0.1-0.2c0.2-0.1,0.2-0.2,0.1-0.3
			c0-0.1-0.1-0.1-0.2-0.2c0,0,0,0.1,0,0.1c0,0.1-0.1,0.1-0.1,0c0-0.1,0-0.1,0-0.2c0,0,0.2,0.1,0.3-0.1c0,0,0.1-0.2-0.2-0.3
			c0,0,0.1,0.1,0,0.1c0,0-0.1,0.1-0.1,0c-0.1-0.1-0.1-0.1-0.1-0.2c0,0,0.2,0,0.2-0.2c0,0,0,0.2-0.3-0.1c0,0,0.2-0.2,0.1-0.3
			c0,0,0-0.1-0.2,0c0,0,0.2-0.1,0.1-0.2c0,0,0-0.1-0.2,0c0,0,0.1-0.1-0.1-0.2c0,0-0.1,0.1-0.2,0.1c0,0-0.1-0.1-0.2-0.2
			c0,0-0.1,0-0.2,0.2c0,0-0.1-0.1-0.2-0.1c0,0-0.1,0.1,0,0.2c0,0-0.1,0-0.2-0.1c0,0-0.1-0.1-0.1,0c0,0.1,0,0.1,0.1,0.2
			c0,0-0.3-0.1-0.3,0.1c0,0.1,0,0.2,0.1,0.3c0,0-0.2,0.2-0.3,0.1c0,0,0,0.1,0.1,0.2c0,0,0.1,0.1,0,0.2c0,0-0.1,0.1-0.2-0.1
			c0,0-0.2,0.2,0,0.3c0,0,0.1,0.1,0.3,0c0,0,0,0.4-0.2,0.3c0,0-0.1-0.1,0.1-0.1c0,0-0.2,0-0.2,0.2c0,0,0,0.2,0.2,0.2
			c0,0,0.1,0.1,0,0.2c0,0-0.1,0.1,0,0.2c0,0,0.1,0.1-0.1,0.1c0,0-0.1,0-0.2,0c0,0,0,0.1,0,0.2c0,0-0.1-0.1-0.3,0
			c-0.2,0.1-0.2,0-0.2,0.1c0,0-0.1,0.1-0.1,0.1s0.1,0.2,0.1,0.1c0,0,0,0.2,0,0.2l0.1,0l0.5-0.2l0.5-0.3l0.4,0l0.3,0.1l0.3,0l0.2-0.1
			h0.3l0.4,0.2l0.4,0.3l0.2,0l0.2,0V8.3L27.5,8.2z"/>
		<path class="st4" d="M23.6,8.6c0,0,0.2,0.1,0.3,0c0,0,0.1-0.2-0.1-0.3c0,0,0.1-0.1,0-0.3c0,0-0.1-0.1-0.2,0c0,0,0-0.1-0.2-0.1
			c0,0-0.1,0-0.1,0.1c0,0-0.1-0.1-0.2,0c0,0-0.1,0.1,0.1,0.3l0.1,0l0.1-0.1l0.1,0C23.5,8.3,23.4,8.4,23.6,8.6z"/>
		<path class="st5" d="M27.8,8.2c0.2,0,0.3,0.2,0.3,0.2C28.2,8.7,28,8.8,28,8.8C28,8.9,28,9,28,9c0.4,0,0.3,0.4,0.3,0.4l-0.1-0.1
			c-0.2-0.1-0.4,0.1-0.6,0.4c-0.2,0.3-0.1,0.4-0.1,0.8c0,0.3,0.6,0.6,0.6,0.6s-0.3,0.7-0.4,1.1c-0.2,0.4-0.5,0.3-0.6,0.2
			c-0.1-0.1-0.1,0-0.2,0c-0.1,0,0.2,0.3-0.3,0.5c-0.5,0.2-0.6,0.4-0.7,0.4s-0.5,0-0.5,0c0,0,0,0-0.2-0.1c-0.1-0.1-0.4-0.2-0.6-0.3
			c-0.3-0.1-0.2-0.3-0.2-0.3c0,0,0.1-0.3-0.2-0.1s-0.5-0.1-0.5-0.1c-0.1-0.1-0.3-0.7-0.3-0.7c-0.1-0.2-0.2-0.5-0.2-0.5
			c0,0,0,0,0.2-0.1c0.2-0.1,0.3-0.3,0.4-0.5c0.1-0.2,0-0.6,0-0.6c0-0.1-0.2-0.4-0.4-0.5C23.1,9.2,23,9.4,23,9.4S22.9,9,23.3,9
			c0,0,0-0.1,0-0.1c0,0-0.3-0.1-0.1-0.4c0,0,0.1-0.2,0.3-0.2l-0.1,0.1c0,0-0.1,0.6,0.8,0.2C25,8.1,25,8.1,25.5,8.3l0.3,0
			c0,0,0.5-0.2,0.7-0.1c0.2,0.1,0.7,0.4,0.7,0.4s0.6,0.2,0.7-0.2L27.8,8.2z"/>
		<path class="st6" d="M25.3,10.7c0,0,0-0.2-0.1-0.3c0,0-0.1-0.2,0-0.3l0.1-0.2c0,0,0.1-0.1,0.2-0.1c0,0,0.1,0,0.1,0
			c0,0,0.1-0.2,0.4,0c0,0,0.1-0.1,0.2-0.2c0,0,0.1,0,0.2,0.1c0,0,0.2-0.1,0.3,0.1c0,0,0.2-0.1,0.3,0.1c0,0,0.2-0.1,0.3,0.1
			c0.1,0.2,0.1,0.3,0.1,0.3l0.1,0.3l0.3,0.4l-0.7,0.3h-0.3l-0.6,0.2l-1.1,0.1l-0.3-0.4L25.3,10.7z"/>
		<path class="st4" d="M24.4,12.5c0,0-0.2,0-0.2,0.1c-0.1,0-0.1,0.1-0.2,0.1c0,0,0,0.1-0.2,0c0,0-0.3-0.1-0.3,0.2c0,0-0.4,0-0.2,0.4
			c0,0,0.1,0.3,0.3,0.1c0,0-0.1,0.2,0.1,0.3c0,0,0.2,0,0.3-0.2c0,0,0-0.1,0-0.2c0,0,0.1,0,0.2-0.1c0,0-0.2,0.3,0,0.4
			c0,0,0.3,0.1,0.3-0.2c0,0,0-0.1,0.1-0.2c0,0,0.2-0.1,0.3-0.3C24.7,12.8,24.3,12.6,24.4,12.5z"/>
		<path class="st4" d="M23.7,9.9c0,0-0.3-0.1-0.4,0c0,0-0.2-0.1-0.3,0c0,0-0.2,0.1-0.3,0.2c0,0-0.1,0.1-0.1,0.3c0,0,0,0.2,0,0.2
			c0,0-0.1,0-0.2,0.1c0,0-0.1,0.2-0.3,0c0,0,0,0.2,0.3,0.2c0,0-0.1,0.1,0,0.3c0,0,0.1,0.2,0,0.4c0,0,0.2-0.1,0.2-0.3
			c0,0,0-0.2,0-0.3c0,0-0.1,0.1,0.1,0.3c0,0,0.1,0.2,0,0.3c0,0,0.2-0.1,0.2-0.3c0-0.2-0.1-0.1-0.1-0.4c0,0,0,0.1,0.1,0.2
			s0.1,0.2,0.1,0.3c0,0,0.1-0.1,0.1-0.3c0-0.2-0.1-0.2-0.1-0.2l0.4-0.2l0.2-0.3L23.7,9.9z"/>
		<path class="st7" d="M23.1,10.9c0,0-0.2,0-0.2-0.1"/>
		<path class="st7" d="M22.7,10.7c0,0,0.1,0,0.1,0c0,0,0,0.1,0.1,0"/>
		<path d="M23.4,10.4c0,0-0.1,0-0.1,0c0,0,0,0-0.1,0c0,0,0,0.1,0,0.1c0,0,0.1,0-0.1,0.1c0,0,0.2-0.1,0.1-0.2c0,0-0.1-0.1-0.1-0.1
			c0,0,0,0,0,0C23.3,10.4,23.3,10.4,23.4,10.4z"/>
		<polygon class="st8" points="25.9,10.8 25.3,8.7 25.3,8.7 25.8,10.9 		"/>
		<path d="M23.7,13.2c0,0-0.1-0.1-0.3,0c0,0,0-0.1,0.1-0.1c0,0,0.1-0.1,0.2-0.1c0,0-0.1,0.1-0.1,0.1C23.6,13.2,23.7,13.2,23.7,13.2z
			"/>
		<path class="st9" d="M23.2,13.6c0,0-0.2-0.1-0.1-0.4c0,0,0-0.1,0.1-0.1c0,0,0.1,0,0,0.2C23.3,13.4,23.2,13.5,23.2,13.6z"/>
		<path class="st9" d="M23.7,13.8c0,0-0.3-0.2-0.2-0.4c0,0,0-0.1,0.1-0.1c0,0,0.1,0,0.1,0.2C23.7,13.5,23.6,13.7,23.7,13.8z"/>
		<path d="M23.6,12.9c0,0-0.1,0.1-0.1,0.1c0,0,0-0.1-0.1-0.1c0,0,0.1,0,0.1,0C23.5,12.9,23.5,12.9,23.6,12.9z"/>
		<path class="st9" d="M23.9,13.8c0,0,0.3-0.1,0.2-0.3c0,0,0-0.1-0.1-0.1c0,0-0.1,0,0,0.2C24,13.5,24,13.6,23.9,13.8z"/>
		<path class="st10" d="M25.1,8.1c0,0,0.2,0.1,0.3,0.1c0,0,0.2,0.1,0.6,0c0,0,0.2-0.1,0.2-0.1L26,8.3l0,0.1l0.1,0.1
			c0,0-0.1,0-0.2-0.1c0,0-0.2-0.2-0.4,0c0,0-0.1,0.1-0.2,0.1l0.2-0.2l-0.1-0.2L25.1,8.1z"/>
		<path class="st2" d="M24,13.4C24,13.4,24,13.4,24,13.4C24,13.4,24,13.4,24,13.4C24,13.4,24,13.5,24,13.4c0,0.1,0,0.1,0,0.2
			c0,0,0,0,0,0c0,0,0,0,0,0C24,13.6,24,13.6,24,13.4C24,13.5,24,13.5,24,13.4z"/>
		<path class="st4" d="M27.6,8.6c0,0-0.2,0.1-0.3,0c0,0-0.1-0.2,0.1-0.3c0,0-0.1-0.1,0-0.3c0,0,0.1-0.1,0.2,0c0,0,0-0.1,0.2-0.1
			c0,0,0.1,0,0.1,0.1c0,0,0.1-0.1,0.2,0c0,0,0.1,0.1-0.1,0.3l-0.1,0l-0.1-0.1l-0.1,0C27.8,8.3,27.8,8.4,27.6,8.6z"/>
		<path class="st10" d="M26.2,8.4C26.2,8.4,26.1,8.4,26.2,8.4c0,0-0.1,0.1-0.1,0c0,0,0,0,0,0c0,0,0-0.1,0.1-0.1c0,0,0.1-0.1,0.3,0
			c0,0,0.2,0.1,0.3,0.2c0,0,0.3,0.2,0.4,0.2c0,0,0.1,0.1,0.4,0.1c0,0,0.3,0,0.4-0.2c0,0,0.1-0.2,0-0.3c0,0,0,0-0.1,0
			c0,0-0.1,0-0.1,0c0,0,0,0.1,0,0.1c0,0,0.1,0,0.1,0c0,0,0,0,0,0c0,0,0,0.1,0,0.1c0,0-0.2,0.3-0.7,0l-0.6-0.4c0,0-0.3-0.2-0.5,0.1
			c0,0-0.2,0.2,0,0.4C26,8.5,26.2,8.6,26.2,8.4c0.1,0.1,0.2-0.1,0-0.1c0,0-0.1-0.1-0.2,0.1S26.1,8.5,26.2,8.4
			C26.1,8.4,26.2,8.4,26.2,8.4z"/>
		<path class="st11" d="M23.6,9.5c0,0,0-0.3,0-0.4c0,0,0-0.1,0-0.1c0,0,0.1-0.1,0.2,0.1c0,0,0.1-0.2,0.2-0.2c0,0,0.1-0.1,0.1,0
			c0,0,0.1-0.1,0.1-0.1c0,0,0.1-0.1,0.2,0.2l0.1-0.1c0,0,0.1-0.1,0.2,0c0,0,0.2,0.2,0.2,0.2c0,0,0,0,0,0.1c0,0,0,0.1,0,0.1
			c0,0,0.1,0,0.1,0.1c0,0,0.1,0,0.2,0.1c0,0,0,0,0.1,0.5v1l-0.6,0.8l-1-0.3l-0.4-0.2L23.2,11l0.4-0.3l0.2-0.6l-0.1-0.4L23.6,9.5z"/>
		<path class="st8" d="M26.5,10L26.5,10l0.2-0.2c0,0,0.2,0.5,0.2,0.6v0.1c0,0,0.3,0.1,0.3,0.5l-0.2,0.4l-0.3-0.2l-0.1-0.1L26.5,10
			L26.5,10z"/>
		<path class="st2" d="M23.2,13.3C23.2,13.3,23.2,13.2,23.2,13.3C23.2,13.2,23.2,13.2,23.2,13.3c0,0-0.1,0.1,0,0.2c0,0,0,0,0,0
			c0,0,0,0,0,0C23.1,13.4,23.1,13.3,23.2,13.3z"/>
		<path class="st7" d="M24.2,13.2C24.2,13.2,24.2,13.1,24.2,13.2c0-0.1,0-0.1,0-0.1"/>
		<path class="st12" d="M24.4,9c0,0,0,0.1,0,0.2s0.1,0.2,0.1,0.3"/>
		<path class="st4" d="M26.9,12.5c0,0,0.2,0,0.2,0.1c0.1,0,0.1,0.1,0.2,0.1c0,0,0,0.1,0.2,0c0,0,0.3-0.1,0.3,0.2c0,0,0.4,0,0.2,0.4
			c0,0-0.1,0.3-0.3,0.1c0,0,0.1,0.2-0.1,0.3c0,0-0.2,0-0.3-0.2c0,0,0-0.1,0-0.2c0,0-0.1,0-0.2-0.1c0,0,0.2,0.3,0,0.4
			c0,0-0.3,0.1-0.3-0.2c0,0,0-0.1-0.1-0.2c0,0-0.2-0.1-0.3-0.3C26.6,12.8,26.9,12.6,26.9,12.5z"/>
		<line class="st12" x1="24.3" y1="9.4" x2="24.6" y2="11.6"/>
		<line class="st12" x1="24.4" y1="9.4" x2="24.7" y2="11.4"/>
		<line class="st12" x1="24.4" y1="9.4" x2="24.8" y2="11.4"/>
		<polygon class="st8" points="25.1,11.2 24.4,9.1 24.4,9.1 25,11.2 		"/>
		<line class="st12" x1="24.6" y1="9.3" x2="25.3" y2="10.9"/>
		<line class="st12" x1="24.6" y1="9.4" x2="25.2" y2="11"/>
		<path class="st2" d="M23.6,13.7c0,0-0.1-0.1-0.1-0.2c0,0,0,0,0,0c0,0,0,0,0,0C23.5,13.5,23.5,13.6,23.6,13.7
			C23.6,13.7,23.6,13.7,23.6,13.7C23.6,13.7,23.6,13.7,23.6,13.7z"/>
		<line class="st12" x1="24.6" y1="9.3" x2="25.3" y2="10.8"/>
		<line class="st12" x1="24.5" y1="9.4" x2="24.9" y2="11.4"/>
		<path class="st10" d="M27.7,10.9c-0.3-0.2-0.3-0.5-0.3-0.5c-0.1-0.4,0.1-0.6,0.1-0.6C27.6,9.3,28,9.2,28,9.2s-0.3,0.2-0.4,0.5
			c0,0-0.1,0.2,0,0.5c0,0.2,0,0.2,0.1,0.4L27.7,10.9z"/>
		<path class="st13" d="M26.5,10l-1.2,0.4l-0.1,0.5c-0.3,0.4-0.9,0.5-0.9,0.5l0.4,0.5l0.9,0.2l0.5-0.3l0.4-0.4c0-0.2,0-0.5,0-0.5
			c0-0.1,0-0.2,0-0.2S26.5,10.1,26.5,10z"/>
		<path class="st12" d="M25.3,10.7c0,0,0.8-0.2,1.3-0.4"/>
		<path class="st12" d="M24.9,11.2c0,0,1-0.2,1.7-0.6l0.3-0.2"/>
		<path class="st14" d="M26,8.4"/>
		<path class="st12" d="M26.8,10.6l-0.3,0.2c0,0-1.1,0.5-1.9,0.5"/>
		<path class="st12" d="M26.5,11.1c0,0-0.8,0.4-1.3,0.4"/>
		<path class="st4" d="M27.5,9.9c0,0,0.3-0.1,0.4,0c0,0,0.2-0.1,0.3,0c0,0,0.2,0.1,0.3,0.2c0,0,0.1,0.1,0.1,0.3c0,0,0,0.2,0,0.2
			c0,0,0.1,0,0.2,0.1c0,0,0.1,0.2,0.3,0c0,0,0,0.2-0.3,0.2c0,0,0.1,0.1,0,0.3c0,0-0.1,0.2,0,0.4c0,0-0.2-0.1-0.2-0.3
			c0,0,0-0.2,0-0.3c0,0,0.1,0.1-0.1,0.3c0,0-0.1,0.2,0,0.3c0,0-0.2-0.1-0.2-0.3c0-0.2,0.1-0.1,0.1-0.4c0,0,0,0.1-0.1,0.2
			c-0.1,0.1-0.1,0.2-0.1,0.3c0,0-0.1-0.1-0.1-0.3c0-0.2,0.1-0.2,0.1-0.2l-0.4-0.2l-0.2-0.3L27.5,9.9z"/>
		<path class="st6" d="M23.3,11.3c0,0,0-0.2,0.2-0.1c0,0,0.1-0.3,0.3-0.3c0.3,0,0.3,0.3,0.3,0.3c0,0,0.1-0.1,0.2-0.1
			c0,0,0.2,0,0.2,0.4l0,0c0,0,0.2-0.4,0.6-0.3c0,0,0.4,0.1,0.1,0.5c0,0,0.2,0.2,0.3,0.2c0.2,0,0.3-0.1,0.5-0.3s0.5-0.3,0.6-0.3
			c0.1,0,0.2,0.1,0.2,0.1c0,0,0.2-0.6,0.9-0.5L28,11l0.1,0L28,11.5l-0.4,0.9l-0.3,0.1L27,12.3l-0.1,0.1l0,0.3l-0.4,0.3L26.2,13
			l-0.3,0.2l-0.1,0.2c0,0-0.2-0.1-0.4,0l-0.1-0.2L25.2,13l-0.7-0.3l-0.1-0.4l-0.1-0.1l-0.1,0.2l-0.2,0l-0.3-0.2L23.3,11.3z"/>
		<path class="st15" d="M26.3,8.1c0,0-0.3,0-0.3,0.3"/>
		<path class="st10" d="M28,11c-0.5-0.1-0.6-0.6-0.6-0.6c-0.1-0.4,0.1-0.7,0.1-0.7c0.2-0.5,0.6-0.5,0.6-0.5c0.2,0,0.2,0.1,0.2,0.1
			c0,0.1-0.1,0.1-0.1,0.1c-0.1,0.1-0.2,0-0.2,0c-0.1-0.1,0-0.1,0-0.1c0,0,0.1,0,0.1,0c0,0,0,0.1,0,0.1c0,0,0,0,0,0c0,0,0,0,0,0
			s0-0.1-0.1-0.1c0,0-0.1,0-0.3,0.2c0,0-0.2,0.3-0.2,0.6c0,0,0,0.7,0.7,0.8c0,0-0.1,0.1-0.2,0.5c0,0-0.2,0.5-0.3,0.8
			c0,0-0.2,0.4-0.6,0.2c0,0-0.3-0.1-0.3-0.3c0,0,0-0.2,0.1-0.2c0,0,0.1,0,0.1,0.1c0,0,0,0.1-0.2,0.1c0,0-0.1,0,0-0.1
			c0,0,0-0.1,0.1,0c0,0,0,0,0,0c0,0,0,0,0,0c0,0,0,0-0.1,0c0,0,0,0,0,0c0,0,0,0,0,0c0,0,0,0,0.1,0c0,0,0,0.1,0.1,0.1
			c0.1,0,0.2,0,0.3-0.1c0.1-0.1,0.1-0.2,0.1-0.2c0,0,0.1-0.3,0.2-0.6C27.9,11.5,28,11.2,28,11L28,11z"/>
		<path class="st10" d="M26.7,12.3C26.7,12.3,26.8,12.3,26.7,12.3c0.1,0.1,0.1,0.2-0.1,0.2c0,0-0.1,0-0.1-0.2c0,0,0-0.1,0.2-0.1
			c0,0,0.1,0,0.2,0.2c0,0,0,0.1,0,0.3c-0.1,0.1-0.3,0.2-0.4,0.3c0,0-0.4,0.2-0.5,0.2c0,0-0.2,0.1-0.1,0.3c0,0,0,0,0.1,0
			c0,0,0.1,0,0.1-0.1c0,0,0,0,0,0c0,0,0,0,0,0c0,0,0,0,0,0c0,0,0,0-0.1,0c0,0,0,0,0-0.1c0,0,0-0.1,0.2,0c0,0,0.1,0,0.1,0.1
			c0,0,0,0.1-0.1,0.1c0,0-0.1,0-0.1-0.1c-0.1-0.1-0.1-0.3,0-0.4c0,0,0.1-0.1,0.2-0.2c0.1,0,0.2-0.1,0.4-0.2c0.1,0,0.2-0.1,0.3-0.2
			c0,0,0.1-0.1,0.1-0.2C26.8,12.4,26.9,12.3,26.7,12.3C26.8,12.3,26.8,12.3,26.7,12.3C26.7,12.3,26.7,12.3,26.7,12.3
			C26.7,12.3,26.7,12.3,26.7,12.3z"/>
		<path class="st15" d="M26.7,12.3c0,0,0.1,0,0.2,0.1c0,0,0,0.1,0,0.1"/>
		<path class="st15" d="M27,12.1c0,0-0.1,0,0,0.2c0,0.1,0.1,0.2,0.2,0.2"/>
		<path class="st10" d="M25.1,8.4C25.1,8.4,25.1,8.4,25.1,8.4c0,0,0.1,0.1,0.1,0c0,0,0,0,0,0c0,0,0-0.1-0.1-0.1c0,0-0.1-0.1-0.3,0
			c0,0-0.2,0.1-0.3,0.2c0,0-0.3,0.2-0.4,0.2c0,0-0.1,0.1-0.4,0.1c0,0-0.3,0-0.4-0.2c0,0-0.1-0.2,0-0.3c0,0,0,0,0.1,0
			c0,0,0.1,0,0.1,0c0,0,0,0.1,0,0.1c0,0-0.1,0-0.1,0c0,0,0,0,0,0c0,0,0,0.1,0,0.1c0,0,0.2,0.3,0.7,0l0.6-0.4c0,0,0.3-0.2,0.5,0.1
			c0,0,0.2,0.2,0,0.4C25.3,8.5,25.1,8.6,25.1,8.4c-0.1,0.1-0.2-0.1,0-0.1c0,0,0.1-0.1,0.2,0.1C25.2,8.5,25.1,8.5,25.1,8.4
			C25.1,8.4,25.1,8.4,25.1,8.4z"/>
		<path class="st10" d="M23.5,10.9c0.3-0.2,0.3-0.5,0.3-0.5c0.1-0.4-0.1-0.6-0.1-0.6c-0.2-0.4-0.5-0.5-0.5-0.5s0.3,0.2,0.4,0.5
			c0,0,0.1,0.2,0,0.5c0,0.2,0,0.2-0.1,0.4L23.5,10.9z"/>
		<path class="st14" d="M25.2,8.4"/>
		<path class="st15" d="M25,8.1c0,0,0.3,0,0.3,0.3"/>
		<path class="st10" d="M23.2,11c0.5-0.1,0.6-0.6,0.6-0.6c0.1-0.4-0.1-0.7-0.1-0.7c-0.2-0.5-0.6-0.5-0.6-0.5C23,9.2,23,9.4,23,9.4
			C23,9.5,23,9.5,23,9.5c0.1,0.1,0.2,0,0.2,0c0.1-0.1,0-0.1,0-0.1c0,0-0.1,0-0.1,0c0,0,0,0.1,0,0.1c0,0,0,0,0,0c0,0,0,0,0,0
			s0-0.1,0.1-0.1c0,0,0.1,0,0.3,0.2c0,0,0.2,0.3,0.2,0.6c0,0,0,0.7-0.7,0.8c0,0,0.1,0.1,0.2,0.5c0,0,0.2,0.5,0.3,0.8
			c0,0,0.2,0.4,0.6,0.2c0,0,0.3-0.1,0.3-0.3c0,0,0-0.2-0.1-0.2c0,0-0.1,0-0.1,0.1c0,0,0,0.1,0.2,0.1c0,0,0.1,0,0-0.1
			c0,0,0-0.1-0.1,0c0,0,0,0,0,0c0,0,0,0,0,0c0,0,0,0,0.1,0c0,0,0,0,0,0c0,0,0,0,0,0c0,0,0,0-0.1,0c0,0,0,0.1-0.1,0.1
			c-0.1,0-0.2,0-0.3-0.1c-0.1-0.1-0.1-0.2-0.1-0.2c0,0-0.1-0.3-0.2-0.6C23.4,11.5,23.3,11.2,23.2,11L23.2,11z"/>
		<path class="st10" d="M24.5,12.3C24.5,12.3,24.4,12.3,24.5,12.3c-0.1,0.1-0.1,0.2,0.1,0.2c0,0,0.1,0,0.1-0.2c0,0,0-0.1-0.2-0.1
			c0,0-0.1,0-0.2,0.2c0,0,0,0.1,0,0.3c0.1,0.1,0.3,0.2,0.4,0.3c0,0,0.4,0.2,0.5,0.2c0,0,0.2,0.1,0.1,0.3c0,0,0,0-0.1,0
			c0,0-0.1,0-0.1-0.1c0,0,0,0,0,0c0,0,0,0,0,0c0,0,0,0,0,0c0,0,0,0,0.1,0c0,0,0,0,0-0.1c0,0,0-0.1-0.2,0c0,0-0.1,0-0.1,0.1
			c0,0,0,0.1,0.1,0.1c0,0,0.1,0,0.1-0.1c0.1-0.1,0.1-0.3,0-0.4c0,0-0.1-0.1-0.2-0.2c-0.1,0-0.2-0.1-0.4-0.2c-0.1,0-0.2-0.1-0.3-0.2
			c0,0-0.1-0.1-0.1-0.2C24.4,12.4,24.4,12.3,24.5,12.3C24.5,12.3,24.5,12.3,24.5,12.3C24.5,12.3,24.5,12.3,24.5,12.3
			C24.5,12.3,24.5,12.3,24.5,12.3z"/>
		<path class="st15" d="M24.5,12.3c0,0-0.1,0-0.2,0.1c0,0,0,0.1,0,0.1"/>
		<path class="st15" d="M24.3,12.1c0,0,0.1,0,0,0.2c0,0.1-0.1,0.2-0.2,0.2"/>
		<path class="st15" d="M25.4,8.4c0,0,0.2-0.1,0.5,0"/>
		<path class="st16" d="M24.1,9.8c0,0,0-0.1-0.1-0.4c0,0-0.1-0.2-0.1-0.3"/>
		<path class="st16" d="M24.2,8.9c0,0,0.1,0.2,0.1,0.3c0,0,0.1,0.3,0.1,0.3"/>
		<path class="st12" d="M24.2,9.9c0,0,0.1,0.1,0.1,0.3"/>
		<path class="st12" d="M23.9,9.8c0,0,0.1,0,0.1,0.3c0,0,0,0.2,0.1,0.3"/>
		<path class="st12" d="M23.9,10.5c0,0,0.3,0,0.3,0.2c0,0,0,0.2,0.1,0.2c0,0,0.2,0,0.2,0.2"/>
		<path class="st12" d="M24,10.7c0,0,0.1,0.1,0.1,0.1"/>
		<path class="st12" d="M24.4,10.5c0,0,0.1,0.1,0.1,0.2"/>
		<path class="st12" d="M24.7,9.1c0,0,0.1,0.1,0.1,0.1"/>
		<path class="st12" d="M25,9.7c0,0,0.1,0.1,0.1,0.4c0,0,0,0.2,0,0.3"/>
		<path class="st8" d="M24.3,9.4L24.3,9.4c0,0,0.3,0,0.4-0.1l0,0C24.7,9.2,24.5,9.2,24.3,9.4z"/>
		<path class="st12" d="M25.2,10.8c0,0,0.9-0.3,1.3-0.4"/>
		<polygon class="st13" points="25.1,9.1 25.6,8.9 25.6,9 25.1,9.1 		"/>
		<line class="st12" x1="25.2" y1="9.1" x2="25.5" y2="10.6"/>
		<line class="st12" x1="25.2" y1="9.1" x2="25.6" y2="10.6"/>
		<line class="st12" x1="25.3" y1="9.1" x2="25.7" y2="10.5"/>
		<line class="st12" x1="25.4" y1="9" x2="26" y2="10.1"/>
		<line class="st12" x1="25.5" y1="9" x2="26.1" y2="10.1"/>
		<line class="st12" x1="25.6" y1="9" x2="26.2" y2="10.1"/>
		<line class="st12" x1="25.5" y1="10.6" x2="25.7" y2="10.5"/>
		<path class="st12" d="M25.3,10.5c0,0,0.7-0.2,1.2-0.4"/>
		<path class="st12" d="M25.3,10.5c0,0,0.9-0.2,1.2-0.4"/>
		<polyline class="st12" points="25.5,11.3 25.6,11.4 25.7,11.4 25.7,11.2 		"/>
		<polyline class="st12" points="25.9,11.2 25.9,11.3 26.1,11.3 26,11.1 		"/>
		<polyline class="st12" points="25.3,10.3 25.3,10.1 26.4,9.8 26.5,10 		"/>
		<line class="st12" x1="25.8" y1="10" x2="25.8" y2="10.2"/>
		<line class="st12" x1="26.2" y1="9.9" x2="26.3" y2="10"/>
		<line class="st12" x1="26.3" y1="9.8" x2="26.3" y2="10"/>
		<line class="st12" x1="26.4" y1="9.8" x2="26.4" y2="10"/>
		<polyline class="st12" points="26.4,9.8 26.6,9.7 26.6,9.9 		"/>
		<line class="st12" x1="26.5" y1="9.8" x2="26.6" y2="9.9"/>
		<path class="st17" d="M23.7,11.9c0,0-0.2-0.2,0-0.4c0,0-0.2-0.1-0.2-0.3"/>
		<path class="st17" d="M24.1,12.1c0,0-0.2,0-0.2-0.4c0,0-0.1,0.2-0.1,0.3c0,0.1,0,0.2,0.1,0.2c0,0,0.2,0.1,0.3-0.1"/>
		<path class="st17" d="M23.8,11.4c0,0-0.1,0.1,0,0.2"/>
		<path class="st17" d="M23.9,11.4c0,0,0,0.2,0.1,0.2"/>
		<path class="st17" d="M24,11.4c0,0,0,0.2,0.1,0.3"/>
		<path class="st17" d="M24,11.3c0,0,0,0.2,0.2,0.3"/>
		<path class="st17" d="M24.8,11.6c0,0,0.1-0.2,0.2-0.2c0,0-0.1,0-0.1,0.1c0,0,0,0.1,0.1,0.1c0,0,0.1,0,0.2,0"/>
		<path class="st17" d="M25.2,12.4c0,0-0.4-0.2-0.4-0.5c0,0,0-0.2,0.2-0.2"/>
		<path class="st17" d="M24.9,11.9c0,0,0,0.1,0,0.2"/>
		<path class="st17" d="M25,11.8c0,0,0,0.1,0,0.2"/>
		<path class="st17" d="M25.1,11.7c0,0-0.1,0.1,0,0.2"/>
		<path class="st17" d="M24.7,12.4c0,0,0.2,0.2,0.4,0.2"/>
		<path class="st17" d="M24.7,12.5c0,0,0.2,0.2,0.3,0.2"/>
		<path class="st17" d="M24.6,12.5c0,0,0.3,0.2,0.4,0.2"/>
		<path class="st17" d="M25.6,13c0,0-0.2,0.1-0.1,0.3"/>
		<path class="st17" d="M25.5,12.8c0,0,0.3-0.1,0.4-0.2"/>
		<path class="st17" d="M25.6,12.9c0,0,0.4-0.2,0.5-0.3"/>
		<path class="st17" d="M25.8,12.9c0,0,0.3-0.2,0.5-0.3"/>
		<path class="st17" d="M26,12.9c0,0,0.2-0.2,0.5-0.3"/>
		<path class="st17" d="M26.5,12.3c0,0-0.1-0.2-0.5,0c0,0,0.1-0.1,0.4-0.2"/>
		<path class="st17" d="M26.8,11.4c0,0,0,0.1,0,0.2"/>
		<path class="st17" d="M26.2,12.1c0,0,0.1-0.1,0.3-0.2c0,0,0.1,0.1,0.2,0.1c0,0,0.2,0,0.2-0.3c0,0,0-0.2-0.3-0.2"/>
		<path class="st17" d="M27.4,11.1c0,0,0.3,0,0.3,0.3c0,0,0,0.3-0.3,0.4"/>
		<path class="st17" d="M27.6,11.3c0,0,0.1-0.2,0.2-0.2"/>
		<path class="st17" d="M27.6,10.9c0,0,0.1,0.1,0.1,0.1"/>
		<path class="st17" d="M27.6,11c0,0,0.1,0.1,0.1,0.1"/>
		<path class="st17" d="M27.6,11.1C27.6,11.1,27.6,11.2,27.6,11.1"/>
		<path class="st17" d="M26.2,9.8c0,0,0.1-0.1,0.2-0.1"/>
		<path class="st17" d="M26.9,10.5c0,0,0.1-0.4,0.4-0.2"/>
		<path class="st17" d="M27.2,10.2c0,0,0-0.2,0-0.2"/>
		<path class="st17" d="M27,10.2c0,0,0,0.1,0,0.1"/>
		<path class="st9" d="M27.6,13.8c0,0,0.3-0.2,0.2-0.4c0,0,0-0.1-0.1-0.1c0,0-0.1,0-0.1,0.2C27.6,13.5,27.6,13.7,27.6,13.8z"/>
		<path class="st2" d="M27.7,13.7c0,0,0.1-0.1,0.1-0.2c0,0,0,0,0,0c0,0,0,0,0,0C27.8,13.5,27.8,13.6,27.7,13.7
			C27.7,13.7,27.7,13.7,27.7,13.7C27.7,13.7,27.7,13.7,27.7,13.7z"/>
		<path class="st9" d="M28,13.6c0,0,0.2-0.1,0.1-0.4c0,0,0-0.1-0.1-0.1c0,0-0.1,0,0,0.2C28,13.4,28.1,13.5,28,13.6z"/>
		<path class="st2" d="M28.1,13.3C28.1,13.3,28.1,13.2,28.1,13.3C28.1,13.2,28.1,13.2,28.1,13.3c0,0,0.1,0.1,0,0.2c0,0,0,0,0,0
			c0,0,0,0,0,0C28.1,13.4,28.2,13.3,28.1,13.3z"/>
		<path class="st9" d="M27.3,13.8c0,0-0.3-0.1-0.2-0.3c0,0,0-0.1,0.1-0.1c0,0,0.1,0,0,0.2C27.3,13.5,27.2,13.6,27.3,13.8z"/>
		<path class="st2" d="M27.2,13.4C27.2,13.4,27.2,13.4,27.2,13.4C27.2,13.4,27.2,13.4,27.2,13.4C27.2,13.4,27.3,13.5,27.2,13.4
			c0,0.1,0,0.1,0,0.2c0,0,0,0,0,0c0,0,0,0,0,0C27.2,13.6,27.2,13.6,27.2,13.4C27.2,13.5,27.3,13.5,27.2,13.4z"/>
		<path d="M27.5,13.2c0,0,0.1-0.1,0.3,0c0,0,0-0.1-0.1-0.1c0,0-0.1-0.1-0.2-0.1c0,0,0.1,0.1,0.1,0.1C27.6,13.2,27.5,13.2,27.5,13.2z
			"/>
		<path d="M27.6,12.9c0,0,0.1,0.1,0.1,0.1c0,0,0-0.1,0.1-0.1c0,0-0.1,0-0.1,0C27.8,12.9,27.7,12.9,27.6,12.9z"/>
		<path class="st7" d="M27,13.2C27,13.2,27,13.1,27,13.2c0-0.1,0-0.1,0-0.1"/>
		<path class="st7" d="M28.1,10.9c0,0,0.2,0,0.2-0.1"/>
		<path class="st7" d="M28.6,10.7c0,0-0.1,0-0.1,0c0,0,0,0.1-0.1,0"/>
		<path d="M27.9,10.4c0,0,0.1,0,0.1,0c0,0,0,0,0.1,0c0,0,0,0.1,0,0.1c0,0-0.1,0,0.1,0.1c0,0-0.2-0.1-0.1-0.2c0,0,0.1-0.1,0.1-0.1
			c0,0,0,0,0,0C28,10.4,27.9,10.4,27.9,10.4z"/>
		<path class="st9" d="M28,8.5c0,0,0,0,0-0.2c0-0.1,0.1-0.2,0.2-0.1c0,0,0.1,0,0,0.1C28.2,8.3,28.1,8.4,28,8.5z"/>
		<path class="st2" d="M28,8.3c0,0,0-0.1,0-0.2c0,0,0,0,0,0c0,0,0,0,0,0C28.1,8.2,28.1,8.3,28,8.3C28.1,8.4,28.1,8.4,28,8.3
			C28,8.4,28,8.4,28,8.3z"/>
		<path class="st9" d="M28,8.4c0,0,0-0.1-0.1-0.2c-0.1-0.1,0-0.2,0-0.2c0,0,0.1,0,0.1,0.1C28,8.2,28,8.3,28,8.4z"/>
		<path class="st2" d="M27.9,8.3c0,0,0-0.1-0.1-0.2c0,0,0,0,0,0c0,0,0,0,0,0C27.9,8.1,28,8.2,27.9,8.3C28,8.3,28,8.3,27.9,8.3
			C28,8.3,27.9,8.3,27.9,8.3z"/>
		<path class="st9" d="M27.8,8.4c0,0,0,0-0.2-0.1c-0.1,0-0.1-0.2,0-0.2c0,0,0.1,0,0.1,0.1C27.8,8.2,27.8,8.2,27.8,8.4z"/>
		<path class="st2" d="M27.8,8.3c0,0,0-0.1-0.1-0.1c0,0,0,0,0,0c0,0,0,0,0,0C27.6,8.2,27.7,8.2,27.8,8.3C27.8,8.3,27.8,8.3,27.8,8.3
			C27.8,8.3,27.8,8.3,27.8,8.3z"/>
		<path class="st9" d="M27.9,8.4c0,0-0.1,0-0.2,0c-0.1-0.1-0.2,0-0.2,0.1c0,0,0,0.1,0.1,0.1C27.7,8.5,27.8,8.5,27.9,8.4z"/>
		<path class="st2" d="M27.6,8.5c0,0,0.1,0,0.2,0c0,0,0,0,0,0c0,0,0,0,0,0C27.8,8.5,27.6,8.5,27.6,8.5C27.6,8.5,27.5,8.5,27.6,8.5
			C27.6,8.5,27.6,8.4,27.6,8.5z"/>
		<path class="st15" d="M27.7,8c0,0,0.1,0,0.1,0.1"/>
		<path class="st7" d="M28,8c0,0,0,0.1,0,0.1"/>
		<path class="st9" d="M23.3,8.5c0,0,0,0,0-0.2c0-0.1-0.1-0.2-0.2-0.1c0,0-0.1,0,0,0.1C23.1,8.3,23.1,8.4,23.3,8.5z"/>
		<path class="st2" d="M23.2,8.3c0,0,0-0.1,0-0.2c0,0,0,0,0,0c0,0,0,0,0,0C23.2,8.2,23.1,8.3,23.2,8.3C23.2,8.4,23.2,8.4,23.2,8.3
			C23.2,8.4,23.2,8.4,23.2,8.3z"/>
		<path class="st9" d="M23.3,8.4c0,0,0-0.1,0.1-0.2c0.1-0.1,0-0.2,0-0.2c0,0-0.1,0-0.1,0.1C23.3,8.2,23.2,8.3,23.3,8.4z"/>
		<path class="st2" d="M23.3,8.3c0,0,0-0.1,0.1-0.2c0,0,0,0,0,0c0,0,0,0,0,0C23.4,8.1,23.3,8.2,23.3,8.3C23.3,8.3,23.3,8.3,23.3,8.3
			C23.3,8.3,23.3,8.3,23.3,8.3z"/>
		<path class="st9" d="M23.4,8.4c0,0,0,0,0.2-0.1c0.1,0,0.1-0.2,0-0.2c0,0-0.1,0-0.1,0.1C23.5,8.2,23.4,8.2,23.4,8.4z"/>
		<path class="st2" d="M23.5,8.3c0,0,0-0.1,0.1-0.1c0,0,0,0,0,0c0,0,0,0,0,0C23.6,8.2,23.5,8.2,23.5,8.3C23.5,8.3,23.5,8.3,23.5,8.3
			C23.5,8.3,23.5,8.3,23.5,8.3z"/>
		<path class="st9" d="M23.4,8.4c0,0,0.1,0,0.2,0c0.1-0.1,0.2,0,0.2,0.1c0,0,0,0.1-0.1,0.1C23.5,8.5,23.4,8.5,23.4,8.4z"/>
		<path class="st2" d="M23.7,8.5c0,0-0.1,0-0.2,0c0,0,0,0,0,0c0,0,0,0,0,0C23.5,8.5,23.6,8.5,23.7,8.5C23.7,8.5,23.7,8.5,23.7,8.5
			C23.7,8.5,23.7,8.4,23.7,8.5z"/>
		<path class="st15" d="M23.6,8c0,0-0.1,0-0.1,0.1"/>
		<path class="st7" d="M23.3,8c0,0,0,0.1,0,0.1"/>
		<path d="M26.2,7.2c0,0,0,0.1,0,0.2c0,0.1,0,0.1,0,0.1c0,0,0.1,0,0.1-0.1c0,0,0.1,0.2-0.1,0.3c0,0-0.1,0.1-0.2,0c0,0-0.1-0.1,0-0.2
			c0,0,0-0.1,0-0.2c0,0,0.1,0.1,0.1,0.2c0,0,0,0.3,0.2,0.2c0,0,0.1,0,0.1-0.2c0,0-0.1,0.1-0.1,0c0,0-0.1-0.1-0.1-0.1
			C26.2,7.4,26.2,7.3,26.2,7.2z"/>
		<path d="M26,7.6c0,0,0,0.2-0.2,0.3c0,0,0,0,0-0.1c0,0,0-0.1,0-0.2c0,0-0.1,0,0,0.2c0,0.1,0,0.2,0,0.2C25.8,7.9,26.1,7.9,26,7.6z"
			/>
		<path d="M25.8,7.4c0,0,0-0.1,0-0.2c0-0.1,0-0.1,0-0.2c0,0,0,0.1,0,0.2C25.7,7.3,25.7,7.4,25.8,7.4c-0.1,0-0.2,0-0.2-0.2
			c-0.1-0.1-0.1-0.1-0.2-0.1c0,0,0,0,0.1,0.1C25.6,7.4,25.6,7.4,25.8,7.4z"/>
		<path d="M25.3,7.1c0,0,0.1,0.1,0.1,0.2c0,0-0.1,0-0.2-0.2c0,0-0.1,0.1-0.1,0.2c0,0-0.1,0-0.2-0.1c0,0,0.1,0.1,0.1,0.1
			C25,7.3,25,7.2,25.3,7.1c-0.1,0-0.1,0.1,0,0.2C25.3,7.3,25.3,7.2,25.3,7.1z"/>
		<path d="M25.5,6.9c0,0,0,0.1,0.1,0.1c0,0,0.1,0,0.1-0.1c0,0,0,0.1-0.1,0.1C25.7,7,25.5,7,25.5,6.9z"/>
		<path d="M24.9,7.7C24.9,7.7,25,7.8,24.9,7.7c0.1,0.1,0.1,0.1,0.2,0.1c0,0,0.1-0.1,0.1-0.1c0,0,0,0-0.1,0.1c0,0,0,0-0.1,0
			c0,0,0,0-0.1,0C25,7.8,24.9,7.8,24.9,7.7z"/>
		<path d="M25.7,6.4c-0.1,0,0,0.1,0,0.1c0,0.2-0.1,0.2-0.2,0.2c-0.1-0.1,0-0.2,0-0.2s-0.1,0.1,0,0.2c0.1,0.1,0.3,0.1,0.3,0
			c0.1,0.1,0.3,0.1,0.3,0c0.1-0.1,0-0.2,0-0.2s0.1,0.1,0,0.2c-0.1,0.1-0.2,0-0.2-0.2C25.7,6.5,25.8,6.4,25.7,6.4z"/>
		<path d="M25.8,6.2c0,0,0.1,0.1,0,0.2C25.8,6.4,25.8,6.3,25.8,6.2z"/>
		<path d="M25.3,6.4c0,0,0-0.1-0.1-0.1C25.2,6.3,25.3,6.3,25.3,6.4z"/>
		<path d="M26,6.4c0,0,0-0.1,0.1-0.1C26.1,6.3,26,6.3,26,6.4z"/>
		<path d="M25.2,6.5c0,0,0.1,0,0.1,0C25.3,6.5,25.2,6.5,25.2,6.5z"/>
		<path d="M24.9,6c0,0,0.1,0,0.2,0.1c0,0-0.1,0-0.1,0.1c0,0,0,0,0-0.1C25,6.1,25,6,24.9,6z"/>
		<path d="M26.4,6c0,0-0.1,0-0.2,0.1c0,0,0.1,0,0.1,0.1c0,0,0,0,0-0.1C26.2,6.1,26.3,6,26.4,6z"/>
		<path d="M25.7,6c0,0,0.1,0,0.2,0c0,0,0.1-0.1,0.2,0c0,0-0.1,0-0.2,0C25.9,6,25.7,6.1,25.7,6z"/>
		<path class="st2" d="M25.8,6.1c0,0,0.1-0.1,0.3-0.1C26,6,26,6.2,25.8,6.1z"/>
		<ellipse class="st18" cx="25.9" cy="6.1" rx="0" ry="0.1"/>
		<ellipse cx="25.9" cy="6.1" rx="0" ry="0"/>
		<path d="M25.3,5.9c0,0,0.1,0,0.2,0.1c0,0,0.1,0,0.2,0c0,0,0.1-0.1,0.2-0.1c0,0-0.2,0.1-0.2,0.1c0,0-0.1,0-0.1-0.1c0,0,0,0,0.1-0.1
			c0,0-0.1,0-0.1,0.1c0,0,0,0.1,0.1,0.1c0,0,0,0-0.1,0C25.5,5.9,25.4,5.8,25.3,5.9z"/>
		<path d="M25.7,6.6C25.6,6.7,25.7,6.7,25.7,6.6C25.7,6.7,25.8,6.7,25.7,6.6z"/>
		<path d="M25.6,6c0,0-0.1,0-0.2,0c0,0-0.1-0.1-0.2,0c0,0,0.1,0,0.2,0C25.4,6,25.6,6.1,25.6,6z"/>
		<path class="st2" d="M25.5,6.1c0,0-0.1-0.1-0.3-0.1C25.3,6,25.3,6.2,25.5,6.1z"/>
		<ellipse class="st18" cx="25.4" cy="6.1" rx="0" ry="0.1"/>
		<ellipse cx="25.4" cy="6.1" rx="0" ry="0"/>
		<path class="st19" d="M29.5,5.1v7.3c0,1.9-3.9,2.6-3.9,2.6s-3.9-0.6-3.9-2.6V5.1H29.5z"/>
	</g>
</g>
</svg>
