<?xml version="1.0" encoding="utf-8"?>
<!-- Generator: Adobe Illustrator 21.1.0, SVG Export Plug-In . SVG Version: 6.00 Build 0)  -->
<svg version="1.1" xmlns="http://www.w3.org/2000/svg" xmlns:xlink="http://www.w3.org/1999/xlink" x="0px" y="0px"
	 viewBox="0 0 34 20" style="enable-background:new 0 0 34 20;" xml:space="preserve">
<style type="text/css">
	.st0{clip-path:url(#SVGID_2_);fill:#3C9242;}
	.st1{clip-path:url(#SVGID_2_);fill:#EDC226;}
	.st2{clip-path:url(#SVGID_2_);}
	.st3{clip-path:url(#SVGID_4_);fill:#2D146E;}
	.st4{clip-path:url(#SVGID_4_);fill:#FFFFFF;}
	.st5{clip-path:url(#SVGID_4_);fill-rule:evenodd;clip-rule:evenodd;fill:#3C9242;}
	.st6{clip-path:url(#SVGID_4_);fill:#3C9242;}
</style>
<g id="Calque_1">
</g>
<g id="_x34_">
	<g>
		<g>
			<defs>
				<rect id="SVGID_1_" x="-0.1" y="0" width="34.2" height="20"/>
			</defs>
			<clipPath id="SVGID_2_">
				<use xlink:href="#SVGID_1_"  style="overflow:visible;"/>
			</clipPath>
			<rect x="-0.1" y="0" class="st0" width="34.2" height="20"/>
			<polygon class="st1" points="5.2,10 17,17.6 28.8,10 17,2.4 			"/>
			<g class="st2">
				<defs>
					<rect id="SVGID_3_" x="-0.1" y="0" width="34.2" height="20"/>
				</defs>
				<clipPath id="SVGID_4_">
					<use xlink:href="#SVGID_3_"  style="overflow:visible;"/>
				</clipPath>
				<path class="st3" d="M22,10c0,2.8-2.2,5-5,5c-2.8,0-5-2.2-5-5c0-2.8,2.2-5,5-5C19.8,5,22,7.2,22,10"/>
				<path class="st4" d="M14.1,7.9c-0.6,0-1.2,0-1.7,0.1c-0.1,0.2-0.2,0.5-0.3,0.8c0.6-0.1,1.3-0.2,2-0.2c2.9,0,5.6,1.1,7.6,2.9
					c0.1-0.3,0.1-0.5,0.2-0.8C19.8,8.9,17.1,7.9,14.1,7.9"/>
				<path class="st5" d="M12.7,8.5c0.1,0,0.2-0.1,0.2-0.3c0-0.1-0.1-0.2-0.2-0.2c-0.1,0-0.2,0.1-0.2,0.3C12.5,8.5,12.6,8.6,12.7,8.5
					 M12.7,8.5c0.1,0,0.1-0.1,0.1-0.2c0-0.1-0.1-0.1-0.1-0.1c-0.1,0-0.1,0.1-0.1,0.2C12.6,8.4,12.7,8.5,12.7,8.5"/>
				<path class="st5" d="M13.1,8.5L13.1,8.5l0.1-0.2l0.2,0c0.1,0,0.1-0.1,0.1-0.2c0-0.1-0.1-0.1-0.2-0.1l-0.3,0L13.1,8.5z M13.2,8.2
					l0.2,0c0,0,0.1,0,0.1-0.1c0,0,0-0.1-0.1-0.1l-0.2,0L13.2,8.2z"/>
				<path class="st6" d="M13.5,8.5c0-0.1,0-0.2-0.1-0.2l-0.1,0C13.4,8.3,13.4,8.4,13.5,8.5"/>
				<path class="st5" d="M13.7,8.5l0.2,0c0.1,0,0.2-0.1,0.2-0.2l0-0.1c0-0.1-0.1-0.2-0.2-0.2l-0.2,0L13.7,8.5z M13.8,8.4l0.1,0
					c0.1,0,0.1-0.1,0.1-0.1v0c0-0.1-0.1-0.1-0.1-0.1l-0.1,0L13.8,8.4z"/>
				<polygon class="st6" points="14.3,8.5 14.8,8.5 14.8,8.4 14.4,8.4 14.4,8.2 14.7,8.3 14.7,8.2 14.4,8.2 14.4,8.1 14.8,8.1 
					14.8,8 14.4,8 				"/>
				<polygon class="st6" points="14.9,8.5 15,8.5 15,8.2 15.1,8.5 15.2,8.5 15.3,8.2 15.3,8.5 15.4,8.5 15.4,8 15.3,8 15.2,8.3 
					15.1,8 15,8 				"/>
				<polygon class="st6" points="15.9,8.6 16.3,8.6 16.3,8.6 16,8.5 16,8.4 16.3,8.5 16.3,8.4 16.1,8.3 16.1,8.3 16.3,8.3 16.3,8.2 
					16,8.2 				"/>
				<path class="st5" d="M16.8,8.8L16.8,8.8L17,8.6l0.2,0c0.1,0,0.2,0,0.2-0.1c0-0.1,0-0.2-0.1-0.2L17,8.3L16.8,8.8z M17,8.5l0.2,0
					c0,0,0.1,0,0.1,0c0,0,0-0.1,0-0.1l-0.2,0L17,8.5z"/>
				<path class="st5" d="M17.4,8.9L17.4,8.9l0.1-0.1l0.2,0.1c0.1,0,0.2,0,0.2-0.1c0-0.1,0-0.2-0.1-0.2l-0.3-0.1L17.4,8.9z M17.6,8.7
					l0.2,0.1c0,0,0.1,0,0.1,0c0,0,0-0.1,0-0.1l-0.2-0.1L17.6,8.7z"/>
				<path class="st6" d="M17.8,9c0-0.1,0.1-0.2,0-0.2l-0.1,0C17.8,8.8,17.7,9,17.8,9"/>
				<path class="st5" d="M18.2,9.2c0.1,0,0.2,0,0.3-0.1c0-0.1,0-0.3-0.1-0.3c-0.1,0-0.2,0-0.3,0.1C18,9,18.1,9.1,18.2,9.2 M18.2,9.1
					c0.1,0,0.1,0,0.2-0.1c0-0.1,0-0.2-0.1-0.2c-0.1,0-0.1,0-0.2,0.1C18.1,9,18.2,9.1,18.2,9.1"/>
				<path class="st5" d="M18.7,9.4c0.1,0,0.2,0,0.3-0.1c0-0.1,0-0.3-0.1-0.3c-0.1,0-0.2,0-0.3,0.1C18.6,9.2,18.6,9.4,18.7,9.4
					 M18.8,9.3c0.1,0,0.1,0,0.2-0.1c0-0.1,0-0.2-0.1-0.2c-0.1,0-0.1,0-0.2,0.1C18.7,9.2,18.7,9.3,18.8,9.3"/>
				<polygon class="st6" points="18.9,9.2 19,9.3 19,9.3 18.8,9.3 				"/>
				<polygon class="st6" points="19,9.2 19,9.3 18.9,9.5 18.9,9.5 				"/>
				<path class="st5" d="M19.1,9.6L19.1,9.6l0.2-0.1l0.2,0.1c0.1,0,0.2,0,0.2-0.1c0-0.1,0-0.2-0.1-0.2l-0.2-0.1L19.1,9.6z M19.3,9.4
					l0.2,0.1c0,0,0.1,0,0.1,0c0,0,0-0.1,0-0.1l-0.2-0.1L19.3,9.4z"/>
				<path class="st6" d="M19.5,9.8c0-0.1,0.1-0.2,0-0.2l-0.1-0.1C19.5,9.5,19.4,9.7,19.5,9.8"/>
				<polygon class="st6" points="19.6,9.8 20,10.1 20.1,10 19.8,9.8 19.8,9.7 20.1,9.8 20.1,9.8 19.9,9.6 19.9,9.5 20.2,9.7 
					20.2,9.6 19.9,9.4 				"/>
				<path class="st6" d="M20.3,10.1c0,0,0,0.1,0.1,0.1c0.1,0,0.1,0,0.1,0c0.1-0.1-0.2-0.2-0.2-0.3c0.1-0.1,0.2,0,0.3,0
					c0.1,0,0.1,0.1,0.1,0.2L20.6,10c0,0,0-0.1,0-0.1c0,0-0.1,0-0.1,0c0,0.1,0.3,0.2,0.2,0.3c-0.1,0.1-0.2,0.1-0.3,0
					C20.3,10.2,20.2,10.1,20.3,10.1L20.3,10.1z"/>
				<path class="st6" d="M20.8,10.4c0,0,0,0.1,0,0.1c0.1,0,0.1,0,0.1,0c0.1-0.1-0.2-0.2-0.1-0.4c0.1-0.1,0.2,0,0.3,0
					c0.1,0,0.1,0.1,0.1,0.2l-0.1-0.1c0,0,0-0.1,0-0.1c0,0-0.1,0-0.1,0c0,0.1,0.2,0.2,0.1,0.3c-0.1,0.1-0.2,0-0.3,0
					C20.8,10.6,20.7,10.4,20.8,10.4L20.8,10.4z"/>
				<path class="st5" d="M21.3,11c0.1,0.1,0.2,0,0.3-0.1c0.1-0.1,0.1-0.2,0-0.3c-0.1-0.1-0.2-0.1-0.3,0.1
					C21.2,10.7,21.2,10.9,21.3,11 M21.4,10.9c0.1,0,0.1,0,0.2,0c0.1-0.1,0-0.2,0-0.2c-0.1,0-0.1,0-0.2,0
					C21.3,10.8,21.3,10.8,21.4,10.9"/>
				<polygon class="st4" points="12.9,8.9 12.9,9.1 13,9.1 				"/>
				<polygon class="st4" points="12.9,8.9 13,9.1 12.9,9.1 				"/>
				<polygon class="st4" points="13.1,9 12.9,9 12.9,9.1 				"/>
				<polygon class="st4" points="13.1,9 13,9.2 12.9,9.1 				"/>
				<polygon class="st4" points="12.7,9 12.9,9.2 13,9.1 				"/>
				<polygon class="st4" points="12.7,9 12.9,9 12.9,9.1 				"/>
				<polygon class="st4" points="13,9.3 13,9.1 12.9,9.1 				"/>
				<polygon class="st4" points="13,9.3 12.9,9.1 12.9,9.1 				"/>
				<polygon class="st4" points="12.8,9.3 13,9.1 12.9,9.1 				"/>
				<polygon class="st4" points="12.8,9.3 12.9,9.1 13,9.1 				"/>
				<polygon class="st4" points="13.4,11 13.3,11.2 13.4,11.2 				"/>
				<polygon class="st4" points="13.4,11 13.4,11.2 13.3,11.2 				"/>
				<polygon class="st4" points="13.6,11.1 13.4,11.1 13.4,11.2 				"/>
				<polygon class="st4" points="13.6,11.1 13.4,11.3 13.3,11.2 				"/>
				<polygon class="st4" points="13.2,11.1 13.3,11.3 13.4,11.2 				"/>
				<polygon class="st4" points="13.2,11.1 13.4,11.1 13.4,11.2 				"/>
				<polygon class="st4" points="13.5,11.4 13.4,11.2 13.3,11.2 				"/>
				<polygon class="st4" points="13.5,11.4 13.3,11.2 13.4,11.2 				"/>
				<polygon class="st4" points="13.2,11.4 13.4,11.2 13.3,11.2 				"/>
				<polygon class="st4" points="13.2,11.4 13.3,11.2 13.4,11.2 				"/>
				<polygon class="st4" points="12.8,11.5 12.7,11.6 12.8,11.7 				"/>
				<polygon class="st4" points="12.8,11.5 12.8,11.6 12.7,11.7 				"/>
				<polygon class="st4" points="12.9,11.6 12.7,11.6 12.7,11.7 				"/>
				<polygon class="st4" points="12.9,11.6 12.8,11.7 12.7,11.6 				"/>
				<polygon class="st4" points="12.6,11.6 12.7,11.7 12.8,11.6 				"/>
				<polygon class="st4" points="12.6,11.6 12.8,11.6 12.8,11.7 				"/>
				<polygon class="st4" points="12.8,11.8 12.8,11.6 12.7,11.7 				"/>
				<polygon class="st4" points="12.8,11.8 12.7,11.7 12.8,11.6 				"/>
				<polygon class="st4" points="12.7,11.8 12.8,11.7 12.7,11.6 				"/>
				<polygon class="st4" points="12.7,11.8 12.7,11.6 12.8,11.7 				"/>
				<polygon class="st4" points="13.9,10.8 13.8,10.9 13.9,10.9 				"/>
				<polygon class="st4" points="13.9,10.8 13.9,10.9 13.8,10.9 				"/>
				<polygon class="st4" points="14,10.9 13.9,10.9 13.9,10.9 				"/>
				<polygon class="st4" points="14,10.9 13.9,10.9 13.8,10.9 				"/>
				<polygon class="st4" points="13.8,10.9 13.8,10.9 13.9,10.9 				"/>
				<polygon class="st4" points="13.8,10.9 13.9,10.9 13.9,10.9 				"/>
				<polygon class="st4" points="13.9,11 13.9,10.9 13.8,10.9 				"/>
				<polygon class="st4" points="13.9,11 13.8,10.9 13.9,10.9 				"/>
				<polygon class="st4" points="13.8,11 13.9,10.9 13.8,10.9 				"/>
				<polygon class="st4" points="13.8,11 13.8,10.9 13.9,10.9 				"/>
				<polygon class="st4" points="14.4,11.5 14.4,11.7 14.4,11.7 				"/>
				<polygon class="st4" points="14.4,11.5 14.5,11.7 14.4,11.7 				"/>
				<polygon class="st4" points="14.6,11.6 14.4,11.6 14.4,11.7 				"/>
				<polygon class="st4" points="14.6,11.6 14.4,11.7 14.4,11.7 				"/>
				<polygon class="st4" points="14.2,11.6 14.4,11.7 14.4,11.7 				"/>
				<polygon class="st4" points="14.2,11.6 14.4,11.6 14.4,11.7 				"/>
				<polygon class="st4" points="14.5,11.8 14.5,11.7 14.4,11.7 				"/>
				<polygon class="st4" points="14.5,11.8 14.4,11.7 14.4,11.7 				"/>
				<polygon class="st4" points="14.3,11.8 14.4,11.7 14.4,11.7 				"/>
				<polygon class="st4" points="14.3,11.8 14.4,11.7 14.4,11.7 				"/>
				<polygon class="st4" points="14.3,12 14.2,12.2 14.3,12.2 				"/>
				<polygon class="st4" points="14.3,12 14.3,12.2 14.2,12.2 				"/>
				<polygon class="st4" points="14.4,12.1 14.2,12.1 14.2,12.2 				"/>
				<polygon class="st4" points="14.4,12.1 14.3,12.2 14.2,12.2 				"/>
				<polygon class="st4" points="14.1,12.1 14.2,12.2 14.3,12.2 				"/>
				<polygon class="st4" points="14.1,12.1 14.3,12.1 14.3,12.2 				"/>
				<polygon class="st4" points="14.4,12.3 14.3,12.2 14.2,12.2 				"/>
				<polygon class="st4" points="14.4,12.3 14.2,12.2 14.3,12.2 				"/>
				<polygon class="st4" points="14.2,12.3 14.3,12.2 14.2,12.2 				"/>
				<polygon class="st4" points="14.2,12.3 14.2,12.2 14.3,12.2 				"/>
				<polygon class="st4" points="18.5,8.2 18.5,8.4 18.6,8.5 				"/>
				<polygon class="st4" points="18.5,8.2 18.6,8.4 18.5,8.5 				"/>
				<polygon class="st4" points="18.8,8.4 18.5,8.4 18.5,8.5 				"/>
				<polygon class="st4" points="18.8,8.4 18.6,8.5 18.5,8.4 				"/>
				<polygon class="st4" points="18.3,8.4 18.5,8.5 18.6,8.4 				"/>
				<polygon class="st4" points="18.3,8.4 18.6,8.4 18.6,8.5 				"/>
				<polygon class="st4" points="18.7,8.6 18.6,8.4 18.5,8.5 				"/>
				<polygon class="st4" points="18.7,8.6 18.5,8.5 18.6,8.4 				"/>
				<polygon class="st4" points="18.4,8.6 18.6,8.5 18.5,8.4 				"/>
				<polygon class="st4" points="18.4,8.6 18.5,8.4 18.6,8.5 				"/>
				<polygon class="st4" points="20.5,11.5 20.4,11.7 20.5,11.8 				"/>
				<polygon class="st4" points="20.5,11.5 20.6,11.7 20.5,11.8 				"/>
				<polygon class="st4" points="20.7,11.7 20.5,11.7 20.5,11.8 				"/>
				<polygon class="st4" points="20.7,11.7 20.5,11.8 20.5,11.7 				"/>
				<polygon class="st4" points="20.3,11.7 20.5,11.8 20.5,11.7 				"/>
				<polygon class="st4" points="20.3,11.7 20.5,11.7 20.5,11.8 				"/>
				<polygon class="st4" points="20.6,11.9 20.6,11.7 20.5,11.8 				"/>
				<polygon class="st4" points="20.6,11.9 20.5,11.8 20.5,11.7 				"/>
				<polygon class="st4" points="20.4,11.9 20.5,11.8 20.5,11.7 				"/>
				<polygon class="st4" points="20.4,11.9 20.4,11.7 20.5,11.8 				"/>
				<polygon class="st4" points="21.2,11.7 21.1,11.8 21.2,11.8 				"/>
				<polygon class="st4" points="21.2,11.7 21.2,11.8 21.2,11.8 				"/>
				<polygon class="st4" points="21.3,11.8 21.2,11.8 21.2,11.8 				"/>
				<polygon class="st4" points="21.3,11.8 21.2,11.8 21.2,11.8 				"/>
				<polygon class="st4" points="21.1,11.8 21.2,11.8 21.2,11.8 				"/>
				<polygon class="st4" points="21.1,11.8 21.2,11.8 21.2,11.8 				"/>
				<polygon class="st4" points="21.3,11.9 21.2,11.8 21.2,11.8 				"/>
				<polygon class="st4" points="21.3,11.9 21.2,11.8 21.2,11.8 				"/>
				<polygon class="st4" points="21.1,11.9 21.2,11.8 21.2,11.8 				"/>
				<polygon class="st4" points="21.1,11.9 21.2,11.8 21.2,11.8 				"/>
				<polygon class="st4" points="20.7,12 20.7,12.2 20.7,12.2 				"/>
				<polygon class="st4" points="20.7,12 20.8,12.2 20.7,12.2 				"/>
				<polygon class="st4" points="20.9,12.1 20.7,12.1 20.7,12.2 				"/>
				<polygon class="st4" points="20.9,12.1 20.7,12.2 20.7,12.2 				"/>
				<polygon class="st4" points="20.5,12.1 20.7,12.2 20.7,12.2 				"/>
				<polygon class="st4" points="20.5,12.1 20.7,12.1 20.7,12.2 				"/>
				<polygon class="st4" points="20.8,12.3 20.8,12.2 20.7,12.2 				"/>
				<polygon class="st4" points="20.8,12.3 20.7,12.2 20.7,12.2 				"/>
				<polygon class="st4" points="20.6,12.3 20.7,12.2 20.7,12.2 				"/>
				<polygon class="st4" points="20.6,12.3 20.7,12.2 20.7,12.2 				"/>
				<polygon class="st4" points="19.5,13.1 19.4,13.2 19.5,13.3 				"/>
				<polygon class="st4" points="19.5,13.1 19.6,13.2 19.5,13.3 				"/>
				<polygon class="st4" points="19.7,13.2 19.5,13.2 19.5,13.3 				"/>
				<polygon class="st4" points="19.7,13.2 19.5,13.3 19.5,13.2 				"/>
				<polygon class="st4" points="19.3,13.2 19.5,13.3 19.5,13.2 				"/>
				<polygon class="st4" points="19.3,13.2 19.5,13.2 19.5,13.3 				"/>
				<polygon class="st4" points="19.6,13.4 19.6,13.2 19.5,13.2 				"/>
				<polygon class="st4" points="19.6,13.4 19.5,13.3 19.5,13.2 				"/>
				<polygon class="st4" points="19.4,13.4 19.5,13.3 19.5,13.2 				"/>
				<polygon class="st4" points="19.4,13.4 19.5,13.2 19.5,13.2 				"/>
				<polygon class="st4" points="19.5,13.6 19.5,13.7 19.5,13.8 				"/>
				<polygon class="st4" points="19.5,13.6 19.5,13.7 19.5,13.8 				"/>
				<polygon class="st4" points="19.6,13.7 19.5,13.7 19.5,13.8 				"/>
				<polygon class="st4" points="19.6,13.7 19.5,13.8 19.5,13.7 				"/>
				<polygon class="st4" points="19.4,13.7 19.5,13.8 19.5,13.7 				"/>
				<polygon class="st4" points="19.4,13.7 19.5,13.7 19.5,13.8 				"/>
				<polygon class="st4" points="19.6,13.9 19.5,13.7 19.5,13.7 				"/>
				<polygon class="st4" points="19.6,13.9 19.5,13.8 19.5,13.7 				"/>
				<polygon class="st4" points="19.4,13.9 19.5,13.8 19.5,13.7 				"/>
				<polygon class="st4" points="19.4,13.9 19.5,13.7 19.5,13.7 				"/>
				<polygon class="st4" points="20,12.7 20,12.8 20,12.9 				"/>
				<polygon class="st4" points="20,12.7 20,12.8 20,12.9 				"/>
				<polygon class="st4" points="20.1,12.8 20,12.8 20,12.9 				"/>
				<polygon class="st4" points="20.1,12.8 20,12.9 20,12.8 				"/>
				<polygon class="st4" points="19.9,12.8 20,12.9 20,12.8 				"/>
				<polygon class="st4" points="19.9,12.8 20,12.8 20,12.9 				"/>
				<polygon class="st4" points="20.1,13 20,12.8 20,12.8 				"/>
				<polygon class="st4" points="20.1,13 20,12.9 20,12.8 				"/>
				<polygon class="st4" points="19.9,13 20,12.9 20,12.8 				"/>
				<polygon class="st4" points="19.9,13 20,12.8 20,12.8 				"/>
				<polygon class="st4" points="20.4,12.4 20.3,12.6 20.4,12.6 				"/>
				<polygon class="st4" points="20.4,12.4 20.5,12.6 20.4,12.6 				"/>
				<polygon class="st4" points="20.6,12.5 20.4,12.5 20.4,12.6 				"/>
				<polygon class="st4" points="20.6,12.5 20.4,12.6 20.4,12.6 				"/>
				<polygon class="st4" points="20.2,12.5 20.4,12.6 20.4,12.6 				"/>
				<polygon class="st4" points="20.2,12.5 20.4,12.5 20.4,12.6 				"/>
				<polygon class="st4" points="20.5,12.7 20.5,12.6 20.4,12.6 				"/>
				<polygon class="st4" points="20.5,12.7 20.4,12.6 20.4,12.6 				"/>
				<polygon class="st4" points="20.3,12.7 20.4,12.6 20.4,12.6 				"/>
				<polygon class="st4" points="20.3,12.7 20.4,12.6 20.4,12.6 				"/>
				<polygon class="st4" points="19.5,12.6 19.4,12.7 19.5,12.8 				"/>
				<polygon class="st4" points="19.5,12.6 19.5,12.7 19.5,12.8 				"/>
				<polygon class="st4" points="19.6,12.7 19.5,12.7 19.5,12.8 				"/>
				<polygon class="st4" points="19.6,12.7 19.5,12.8 19.5,12.7 				"/>
				<polygon class="st4" points="19.3,12.7 19.5,12.8 19.5,12.7 				"/>
				<polygon class="st4" points="19.3,12.7 19.5,12.7 19.5,12.8 				"/>
				<polygon class="st4" points="19.6,12.9 19.5,12.7 19.5,12.8 				"/>
				<polygon class="st4" points="19.6,12.9 19.4,12.8 19.5,12.7 				"/>
				<polygon class="st4" points="19.4,12.9 19.5,12.8 19.5,12.7 				"/>
				<polygon class="st4" points="19.4,12.9 19.4,12.7 19.5,12.8 				"/>
				<polygon class="st4" points="15.1,10 15,10.2 15.1,10.2 				"/>
				<polygon class="st4" points="15.1,10 15.2,10.2 15.1,10.2 				"/>
				<polygon class="st4" points="15.3,10.1 15.1,10.1 15.1,10.2 				"/>
				<polygon class="st4" points="15.3,10.1 15.1,10.3 15.1,10.2 				"/>
				<polygon class="st4" points="14.9,10.1 15.1,10.3 15.1,10.2 				"/>
				<polygon class="st4" points="14.9,10.1 15.1,10.1 15.1,10.2 				"/>
				<polygon class="st4" points="15.2,10.3 15.2,10.2 15.1,10.2 				"/>
				<polygon class="st4" points="15.2,10.3 15.1,10.2 15.1,10.2 				"/>
				<polygon class="st4" points="15,10.3 15.1,10.2 15.1,10.2 				"/>
				<polygon class="st4" points="15,10.3 15,10.2 15.1,10.2 				"/>
				<polygon class="st4" points="18.4,9.6 18.3,9.7 18.4,9.8 				"/>
				<polygon class="st4" points="18.4,9.6 18.4,9.7 18.3,9.8 				"/>
				<polygon class="st4" points="18.5,9.7 18.4,9.7 18.4,9.8 				"/>
				<polygon class="st4" points="18.5,9.7 18.4,9.8 18.3,9.7 				"/>
				<polygon class="st4" points="18.2,9.7 18.3,9.8 18.4,9.7 				"/>
				<polygon class="st4" points="18.2,9.7 18.4,9.7 18.4,9.8 				"/>
				<polygon class="st4" points="18.4,9.9 18.4,9.7 18.3,9.8 				"/>
				<polygon class="st4" points="18.4,9.9 18.3,9.8 18.4,9.7 				"/>
				<polygon class="st4" points="18.3,9.9 18.4,9.8 18.3,9.7 				"/>
				<polygon class="st4" points="18.3,9.9 18.3,9.7 18.4,9.8 				"/>
				<polygon class="st4" points="17,12 16.9,12.2 17,12.3 				"/>
				<polygon class="st4" points="17,12 17.1,12.2 17,12.3 				"/>
				<polygon class="st4" points="17.2,12.2 17,12.2 17,12.3 				"/>
				<polygon class="st4" points="17.2,12.2 17,12.3 17,12.2 				"/>
				<polygon class="st4" points="16.8,12.2 17,12.3 17,12.2 				"/>
				<polygon class="st4" points="16.8,12.2 17,12.2 17,12.3 				"/>
				<polygon class="st4" points="17.1,12.4 17.1,12.2 17,12.2 				"/>
				<polygon class="st4" points="17.1,12.4 17,12.3 17,12.2 				"/>
				<polygon class="st4" points="16.9,12.4 17,12.3 17,12.2 				"/>
				<polygon class="st4" points="16.9,12.4 16.9,12.2 17,12.2 				"/>
				<polygon class="st4" points="17.6,11.1 17.5,11.2 17.6,11.3 				"/>
				<polygon class="st4" points="17.6,11.1 17.6,11.2 17.6,11.3 				"/>
				<polygon class="st4" points="17.7,11.2 17.6,11.2 17.6,11.3 				"/>
				<polygon class="st4" points="17.7,11.2 17.6,11.3 17.6,11.2 				"/>
				<polygon class="st4" points="17.4,11.2 17.6,11.3 17.6,11.2 				"/>
				<polygon class="st4" points="17.4,11.2 17.6,11.2 17.6,11.3 				"/>
				<polygon class="st4" points="17.7,11.4 17.6,11.2 17.5,11.3 				"/>
				<polygon class="st4" points="17.7,11.4 17.5,11.3 17.6,11.2 				"/>
				<polygon class="st4" points="17.5,11.4 17.6,11.3 17.6,11.2 				"/>
				<polygon class="st4" points="17.5,11.4 17.5,11.2 17.6,11.3 				"/>
				<polygon class="st4" points="17,10.6 16.9,10.8 17,10.8 				"/>
				<polygon class="st4" points="17,10.6 17.1,10.8 17,10.8 				"/>
				<polygon class="st4" points="17.2,10.7 17,10.7 17,10.8 				"/>
				<polygon class="st4" points="17.2,10.7 17,10.8 17,10.8 				"/>
				<polygon class="st4" points="16.8,10.7 17,10.8 17,10.8 				"/>
				<polygon class="st4" points="16.8,10.7 17,10.7 17,10.8 				"/>
				<polygon class="st4" points="17.1,10.9 17.1,10.8 17,10.8 				"/>
				<polygon class="st4" points="17.1,10.9 17,10.8 17,10.8 				"/>
				<polygon class="st4" points="16.9,10.9 17,10.8 17,10.8 				"/>
				<polygon class="st4" points="16.9,10.9 17,10.8 17,10.8 				"/>
				<polygon class="st4" points="16.5,11.1 16.5,11.2 16.5,11.3 				"/>
				<polygon class="st4" points="16.5,11.1 16.5,11.2 16.5,11.3 				"/>
				<polygon class="st4" points="16.6,11.2 16.5,11.2 16.5,11.3 				"/>
				<polygon class="st4" points="16.6,11.2 16.5,11.3 16.5,11.2 				"/>
				<polygon class="st4" points="16.4,11.2 16.5,11.3 16.5,11.2 				"/>
				<polygon class="st4" points="16.4,11.2 16.5,11.2 16.5,11.3 				"/>
				<polygon class="st4" points="16.6,11.4 16.5,11.2 16.5,11.3 				"/>
				<polygon class="st4" points="16.6,11.4 16.5,11.3 16.5,11.2 				"/>
				<polygon class="st4" points="16.4,11.4 16.5,11.3 16.5,11.2 				"/>
				<polygon class="st4" points="16.4,11.4 16.5,11.2 16.5,11.3 				"/>
				<polygon class="st4" points="16.8,11.5 16.7,11.6 16.8,11.6 				"/>
				<polygon class="st4" points="16.8,11.5 16.8,11.6 16.7,11.6 				"/>
				<polygon class="st4" points="16.8,11.6 16.7,11.6 16.7,11.6 				"/>
				<polygon class="st4" points="16.8,11.6 16.8,11.6 16.7,11.6 				"/>
				<polygon class="st4" points="16.7,11.6 16.7,11.6 16.8,11.6 				"/>
				<polygon class="st4" points="16.7,11.6 16.8,11.6 16.8,11.6 				"/>
				<polygon class="st4" points="16.8,11.7 16.8,11.6 16.7,11.6 				"/>
				<polygon class="st4" points="16.8,11.7 16.7,11.6 16.8,11.6 				"/>
				<polygon class="st4" points="16.7,11.7 16.8,11.6 16.7,11.6 				"/>
				<polygon class="st4" points="16.7,11.7 16.7,11.6 16.8,11.6 				"/>
				<polygon class="st4" points="18.5,13.2 18.4,13.4 18.5,13.4 				"/>
				<polygon class="st4" points="18.5,13.2 18.6,13.4 18.5,13.4 				"/>
				<polygon class="st4" points="18.7,13.3 18.5,13.3 18.5,13.4 				"/>
				<polygon class="st4" points="18.7,13.3 18.5,13.4 18.5,13.3 				"/>
				<polygon class="st4" points="18.3,13.3 18.5,13.4 18.5,13.3 				"/>
				<polygon class="st4" points="18.3,13.3 18.5,13.3 18.5,13.4 				"/>
				<polygon class="st4" points="18.6,13.5 18.5,13.3 18.5,13.4 				"/>
				<polygon class="st4" points="18.6,13.5 18.5,13.4 18.5,13.3 				"/>
				<polygon class="st4" points="18.4,13.5 18.5,13.4 18.5,13.3 				"/>
				<polygon class="st4" points="18.4,13.5 18.4,13.3 18.5,13.4 				"/>
				<polygon class="st4" points="18.9,12.8 18.9,12.9 18.9,12.9 				"/>
				<polygon class="st4" points="18.9,12.8 19,12.9 18.9,12.9 				"/>
				<polygon class="st4" points="19.1,12.9 18.9,12.9 18.9,12.9 				"/>
				<polygon class="st4" points="19.1,12.9 18.9,13 18.9,12.9 				"/>
				<polygon class="st4" points="18.8,12.9 18.9,13 18.9,12.9 				"/>
				<polygon class="st4" points="18.8,12.9 18.9,12.9 18.9,12.9 				"/>
				<polygon class="st4" points="19,13 19,12.9 18.9,12.9 				"/>
				<polygon class="st4" points="19,13 18.9,13 18.9,12.9 				"/>
				<polygon class="st4" points="18.8,13 19,13 18.9,12.9 				"/>
				<polygon class="st4" points="18.8,13 18.9,12.9 19,12.9 				"/>
				<polygon class="st4" points="18.1,12.7 18.1,12.8 18.1,12.8 				"/>
				<polygon class="st4" points="18.1,12.7 18.1,12.8 18.1,12.8 				"/>
				<polygon class="st4" points="18.2,12.8 18.1,12.8 18.1,12.8 				"/>
				<polygon class="st4" points="18.2,12.8 18.1,12.8 18.1,12.8 				"/>
				<polygon class="st4" points="18,12.8 18.1,12.8 18.1,12.8 				"/>
				<polygon class="st4" points="18,12.8 18.1,12.8 18.1,12.8 				"/>
				<polygon class="st4" points="18.2,12.9 18.1,12.8 18.1,12.8 				"/>
				<polygon class="st4" points="18.2,12.9 18.1,12.8 18.1,12.8 				"/>
				<polygon class="st4" points="18,12.9 18.1,12.8 18.1,12.8 				"/>
				<polygon class="st4" points="18,12.9 18.1,12.8 18.1,12.8 				"/>
				<polygon class="st4" points="15,12.4 14.9,12.6 15,12.7 				"/>
				<polygon class="st4" points="15,12.4 15.1,12.6 15,12.7 				"/>
				<polygon class="st4" points="15.2,12.6 15,12.6 15,12.7 				"/>
				<polygon class="st4" points="15.2,12.6 15,12.7 15,12.6 				"/>
				<polygon class="st4" points="14.8,12.6 15,12.7 15,12.6 				"/>
				<polygon class="st4" points="14.8,12.6 15,12.6 15,12.7 				"/>
				<polygon class="st4" points="15.1,12.8 15.1,12.6 15,12.7 				"/>
				<polygon class="st4" points="15.1,12.8 14.9,12.7 15,12.6 				"/>
				<polygon class="st4" points="14.9,12.8 15,12.7 15,12.6 				"/>
				<polygon class="st4" points="14.9,12.8 14.9,12.6 15,12.7 				"/>
				<polygon class="st4" points="17,13.8 17,13.9 17,13.9 				"/>
				<polygon class="st4" points="17,13.8 17,13.9 17,13.9 				"/>
				<polygon class="st4" points="17.1,13.9 17,13.9 17,13.9 				"/>
				<polygon class="st4" points="17.1,13.9 17,13.9 17,13.9 				"/>
				<polygon class="st4" points="16.9,13.9 17,13.9 17,13.9 				"/>
				<polygon class="st4" points="16.9,13.9 17,13.9 17,13.9 				"/>
				<polygon class="st4" points="17,14 17,13.9 17,13.9 				"/>
				<polygon class="st4" points="17,14 17,13.9 17,13.9 				"/>
				<polygon class="st4" points="17,14 17,13.9 17,13.9 				"/>
				<polygon class="st4" points="17,14 17,13.9 17,13.9 				"/>
			</g>
		</g>
	</g>
</g>
<g id="svg1">
</g>
</svg>
