<?xml version="1.0" encoding="utf-8"?>
<!-- Generator: Adobe Illustrator 21.1.0, SVG Export Plug-In . SVG Version: 6.00 Build 0)  -->
<svg version="1.1" id="Calque_1" xmlns="http://www.w3.org/2000/svg" xmlns:xlink="http://www.w3.org/1999/xlink" x="0px" y="0px"
	 viewBox="0 0 34 20" style="enable-background:new 0 0 34 20;" xml:space="preserve">
<style type="text/css">
	.st0{clip-path:url(#SVGID_2_);fill:#CB1D23;}
	.st1{clip-path:url(#SVGID_2_);fill:#F7DE29;}
</style>
<g id="CHINA_3_">
	<g>
		<g>
			<defs>
				<rect id="SVGID_1_" x="0.1" y="-0.1" width="33.6" height="19.6"/>
			</defs>
			<clipPath id="SVGID_2_">
				<use xlink:href="#SVGID_1_"  style="overflow:visible;"/>
			</clipPath>
			<rect x="0.1" y="-0.1" class="st0" width="33.6" height="19.6"/>
			<polygon class="st1" points="3.3,7 4,5 2.3,3.8 4.4,3.8 5,1.9 5.6,3.8 7.7,3.8 6,5 6.7,7 5,5.8 			"/>
			<polygon class="st1" points="9.1,8.1 9.8,8.3 10.2,7.8 10.2,8.5 10.9,8.8 10.1,9 10.1,9.7 9.7,9.1 9,9.3 9.5,8.7 			"/>
			<polygon class="st1" points="12.8,4.3 12.1,4.2 11.7,4.8 11.6,4.1 10.9,4 11.5,3.6 11.4,2.9 12,3.4 12.6,3.1 12.3,3.8 			"/>
			<polygon class="st1" points="11.2,7.6 11.5,6.9 10.9,6.5 11.6,6.5 11.9,5.8 12.1,6.5 12.8,6.5 12.2,6.9 12.5,7.6 11.9,7.2 			"/>
			<polygon class="st1" points="9.1,1.2 9.8,1.5 10.3,0.9 10.2,1.7 10.9,2 10.1,2.1 10,2.9 9.7,2.2 8.9,2.4 9.5,1.8 			"/>
		</g>
	</g>
</g>
</svg>
