<?xml version="1.0" encoding="utf-8"?>
<!-- Generator: Adobe Illustrator 21.1.0, SVG Export Plug-In . SVG Version: 6.00 Build 0)  -->
<svg version="1.1" id="Calque_1" xmlns="http://www.w3.org/2000/svg" xmlns:xlink="http://www.w3.org/1999/xlink" x="0px" y="0px"
	 viewBox="0 0 34 20" style="enable-background:new 0 0 34 20;" xml:space="preserve">
<style type="text/css">
	.st0{clip-path:url(#SVGID_2_);fill:#313D86;}
	.st1{clip-path:url(#SVGID_2_);fill:#2A2D2F;}
	.st2{clip-path:url(#SVGID_2_);fill:#FFFFFF;}
	.st3{clip-path:url(#SVGID_2_);fill:#C4283A;}
	.st4{clip-path:url(#SVGID_2_);fill-rule:evenodd;clip-rule:evenodd;fill:#FFFFFF;}
</style>
<g id="CUBA_2_">
	<g>
		<g>
			<defs>
				<rect id="SVGID_1_" x="0.3" y="0.1" width="33.6" height="19.6"/>
			</defs>
			<clipPath id="SVGID_2_">
				<use xlink:href="#SVGID_1_"  style="overflow:visible;"/>
			</clipPath>
			<rect x="0.3" y="0.1" class="st0" width="33.6" height="19.6"/>
			<path class="st1" d="M0.3,13.8h33.6H0.3z M0.3,6h33.6H0.3z"/>
			<path class="st2" d="M0.3,15.8h33.6v-3.9H0.3V15.8z M0.3,7.9h33.6V4H0.3V7.9z"/>
			<polygon class="st3" points="0.3,0.1 0.3,19.7 17.2,9.9 			"/>
			<polygon class="st4" points="5.9,6.6 4.9,9.7 6.5,10.2 			"/>
			<polygon class="st4" points="5.9,6.6 6.9,9.7 5.4,10.2 			"/>
			<polygon class="st4" points="9,8.9 5.8,8.9 5.8,10.5 			"/>
			<polygon class="st4" points="9,8.9 6.4,10.8 5.4,9.5 			"/>
			<polygon class="st4" points="2.8,8.9 5.5,10.8 6.4,9.5 			"/>
			<polygon class="st4" points="2.8,8.9 6.1,8.9 6.1,10.5 			"/>
			<polygon class="st4" points="7.8,12.5 6.8,9.4 5.3,10 			"/>
			<polygon class="st4" points="7.8,12.5 5.2,10.6 6.2,9.3 			"/>
			<polygon class="st4" points="4,12.5 6.6,10.6 5.7,9.3 			"/>
			<polygon class="st4" points="4,12.5 5,9.4 6.6,10 			"/>
		</g>
	</g>
</g>
</svg>
