<?xml version="1.0" encoding="utf-8"?>
<!-- Generator: Adobe Illustrator 21.1.0, SVG Export Plug-In . SVG Version: 6.00 Build 0)  -->
<svg version="1.1" xmlns="http://www.w3.org/2000/svg" xmlns:xlink="http://www.w3.org/1999/xlink" x="0px" y="0px"
	 viewBox="0 0 34 20" style="enable-background:new 0 0 34 20;" xml:space="preserve">
<style type="text/css">
	.st0{clip-path:url(#SVGID_2_);fill:#FFFFFF;}
	.st1{clip-path:url(#SVGID_2_);}
	.st2{clip-path:url(#SVGID_4_);fill:#DD7D21;}
	.st3{clip-path:url(#SVGID_4_);fill:#2C6752;}
</style>
<g id="Calque_1">
</g>
<g id="_x34_">
	<g id="CYPRUSS_2_">
		<g>
			<g>
				<defs>
					<rect id="SVGID_1_" x="0.2" y="0.2" width="33.6" height="19.6"/>
				</defs>
				<clipPath id="SVGID_2_">
					<use xlink:href="#SVGID_1_"  style="overflow:visible;"/>
				</clipPath>
				<rect x="0.2" y="0.2" class="st0" width="33.6" height="19.6"/>
				<g class="st1">
					<defs>
						<rect id="SVGID_3_" x="0.2" y="0.2" width="33.6" height="19.6"/>
					</defs>
					<clipPath id="SVGID_4_">
						<use xlink:href="#SVGID_3_"  style="overflow:visible;"/>
					</clipPath>
					<path class="st2" d="M14.6,6.2c0,0.3,0,0.3,0,0.3c0,0,0,0.9-0.1,1.2c-0.1,0.2-0.4,0.4-0.5,0.4c-0.1,0-0.4-0.2-0.7-0.3
						C13,7.7,13,7.7,12.9,7.7c-0.1,0-0.4,0.1-0.5,0.2c-0.1,0-0.1,0-0.1,0c0,0-0.2,0.2-0.2,0.2c0,0.1-0.1,0.4-0.2,0.4
						c-0.1,0-0.4,0.3-0.5,0.3c-0.2,0-0.1,0-0.2,0c-0.1,0-0.1-0.1-0.2-0.2c-0.1-0.1-0.1-0.1-0.1-0.1s0-0.1-0.1-0.1
						c0,0-0.1,0.2-0.1,0.3c0,0.1,0.1,0.3,0.2,0.4c0.1,0,0.1,0.3,0,0.4c0,0.1,0.1,0.2,0.1,0.2c0,0.1-0.1,0.1,0,0.2
						c0,0,0.1,0.1,0.1,0.2c0,0.1,0.2,0.1,0.3,0.2c0,0.1,0.1,0.3,0.1,0.4c0,0.1,0.1,0,0.1,0.3c0.1,0,0.2,0.1,0.3,0.2
						c0.1,0,0.1,0.2,0.2,0.2c0.1,0.1,0.1,0,0.2,0c0.1,0,0,0,0.1,0.1c0.1,0,0.2,0,0.3,0c0.1,0,0.2,0.2,0.2,0.2c0.1,0,0.3,0.1,0.4,0.1
						c0,0,0.2,0.1,0.2,0.1c0,0,0.1-0.1,0.1-0.1s0.1,0,0.2,0c0.1,0,0.2-0.1,0.2-0.1c0.1,0,0.1,0,0.1,0c0.1,0,0.2,0,0.2,0s0.1,0,0.3,0
						c0.1,0.1,0.4,0.4,0.4,0.5c0,0.1,0,0.2,0,0.2s0.1,0,0.2,0c0.1,0,0,0,0.4,0c0-0.1-0.4-0.3,0-0.7c0.3-0.4,0.3-0.2,0.4-0.3
						c0.1-0.1,0.4-0.3,0.9-0.1c0.5-0.1,0.1-0.1,0.4-0.2c0.1,0,0.1,0,0.2,0c0-0.1,0.1-0.1,0.2-0.1c0-0.1,0.2-0.1,0.3-0.1
						c0-0.1,0.4-0.2,0.6-0.3c0.1-0.1,0.2-0.4,0.6-0.2c0-0.1,0.1-0.3,0.2-0.3c0-0.2-0.1-0.7,0.2-0.8c0.2-0.2,0.4-0.2,0.8-0.1
						c0.3,0.1,0.4,0.2,0.5,0.3c0.1,0,0.1,0,0.2-0.1c0.1-0.1,0-0.2,0.1-0.2c0.1,0,0,0,0.2,0C21,9.2,21,9.2,21,9.2
						c0.1,0.1,0.3,0,0.3,0.1c0.1,0,0.1,0,0.2,0.1c0.1,0.1,0.2,0.1,0.2,0.1s-0.1,0-0.1-0.1c0,0,0-0.2-0.1-0.3
						c-0.1-0.1-0.1-0.1-0.1-0.1c0-0.1,0-0.1-0.1-0.1c-0.1-0.1-0.3-0.2-0.3-0.3c0-0.1,0-0.2-0.1-0.2c-0.1-0.1-0.4-0.4-0.4-0.6
						c0-0.3,0-0.6,0.2-0.7c0-0.2,0-0.2,0.2-0.3c0.2-0.1,0.2,0,0.3,0c0.1,0,0.2,0,0.3-0.1c0.1-0.1,0-0.3,0.3-0.5
						c0.3-0.3,0.4-0.4,0.5-0.4c0.1,0,0.4-0.3,0.6-0.2c0.1-0.1,0.2-0.3,0.3-0.4c0.1-0.1,0.3-0.1,0.3-0.2c0.1-0.1,0.1-0.2,0.2-0.4
						c0.2-0.1,0.4-0.2,0.4-0.3c0.1-0.1,0.3,0,0.3-0.1c0.1-0.1,0.1-0.3,0.1-0.4c0.1,0-0.2,0.1-0.4,0.2c-0.1,0.1-0.4,0.2-0.5,0.2
						s-0.1,0.1-0.2,0.1c-0.1,0-0.3,0-0.3,0.1c-0.1,0.1-0.2,0.2-0.3,0.3c-0.1,0.1-0.2,0-0.2,0.1c-0.1,0-0.2,0.1-0.3,0.1
						c-0.1,0-0.3,0-0.3,0S22.1,5.1,22,5.2c-0.1,0.1-0.2,0.1-0.3,0.1c-0.1,0-0.9,0.6-1.5,0.7c-0.6,0.1-0.3,0-0.5,0
						c-0.2,0-0.4,0.4-0.6,0.4c-0.2,0-0.3,0-0.3,0c-0.1,0-0.3,0.2-0.5,0.1c-0.2,0.1-0.4,0.1-0.5,0c-0.1,0-0.2,0.1-0.4,0
						c-0.1,0-0.1,0.1-0.4,0c-0.3-0.1-0.4,0-0.6,0c-0.1-0.1-0.1-0.1-0.2-0.1c-0.1,0-0.1,0.1-0.2,0.1c-0.1,0-0.1-0.1-0.2-0.1
						c-0.1,0-0.2,0.1-0.4,0.1c-0.1,0-0.2-0.1-0.3-0.1C15.1,6.4,14.6,6.2,14.6,6.2L14.6,6.2z"/>
					<path class="st3" d="M16.2,16c0.3-0.2,0.5-0.3,0.9-0.3c0.4-0.1,0.8-0.2,1-0.2c0.2-0.1-0.7,0.3-1,0.3C16.9,15.8,16.2,16,16.2,16
						L16.2,16z"/>
					<path class="st3" d="M17.8,15.4c-0.1-0.5,0.1-1,0.5-1.2C18.4,14.6,18.1,15.2,17.8,15.4L17.8,15.4z"/>
					<path class="st3" d="M18.5,15.2c-0.2-0.4,0.2-0.9,0.4-1.2C19.1,14.2,18.8,14.9,18.5,15.2L18.5,15.2z"/>
					<path class="st3" d="M19.2,14.8c-0.2-0.3,0-0.9,0.4-1.2C19.7,14,19.5,14.6,19.2,14.8L19.2,14.8z"/>
					<path class="st3" d="M19.9,14.4c-0.2-0.3-0.1-0.8,0.3-1.1C20.3,13.5,20.1,14.1,19.9,14.4L19.9,14.4z"/>
					<path class="st3" d="M20.4,14c-0.2-0.3,0-1,0.3-1.2C20.9,13,20.8,13.8,20.4,14L20.4,14z"/>
					<path class="st3" d="M20.8,13.9c-0.1-0.4,0.7-0.9,1-0.9C21.8,13.3,21.5,13.7,20.8,13.9L20.8,13.9z"/>
					<path class="st3" d="M20.4,14.4c0.4-0.4,1.1-0.4,1.3-0.3C21.6,14.3,20.8,14.8,20.4,14.4L20.4,14.4z"/>
					<path class="st3" d="M19.9,14.7c0.5-0.1,0.8-0.2,1.1,0.1C20.8,15.1,20,15,19.9,14.7L19.9,14.7z"/>
					<path class="st3" d="M19.2,15.1c0.5-0.3,1.1,0.1,1.2,0.3C19.8,15.6,19.2,15.1,19.2,15.1L19.2,15.1z"/>
					<path class="st3" d="M18.5,15.4c0.4-0.2,0.9,0.1,1.1,0.3C19.5,15.8,18.8,16,18.5,15.4L18.5,15.4z"/>
					<path class="st3" d="M17.9,15.6c0.5-0.1,1,0.3,1.1,0.5C18.4,16.2,18.1,16,17.9,15.6L17.9,15.6z"/>
					<path class="st3" d="M17.8,16c-0.3-0.2-0.5-0.3-0.9-0.3c-0.4-0.1-0.8-0.2-1-0.2c-0.2-0.1,0.7,0.3,1,0.3
						C17.1,15.8,17.8,16,17.8,16L17.8,16z"/>
					<path class="st3" d="M16.2,15.4c0.1-0.5-0.1-1-0.5-1.2C15.6,14.6,15.9,15.2,16.2,15.4L16.2,15.4z"/>
					<path class="st3" d="M15.5,15.2c0.2-0.4-0.2-0.9-0.4-1.2C14.9,14.2,15.2,14.9,15.5,15.2L15.5,15.2z"/>
					<path class="st3" d="M14.8,14.8c0.2-0.3,0-0.9-0.4-1.2C14.3,14,14.5,14.6,14.8,14.8L14.8,14.8z"/>
					<path class="st3" d="M14.1,14.4c0.2-0.3,0.1-0.8-0.3-1.1C13.7,13.5,13.9,14.1,14.1,14.4L14.1,14.4z"/>
					<path class="st3" d="M13.6,14c0.2-0.3,0-1-0.3-1.2C13.1,13,13.2,13.8,13.6,14L13.6,14z"/>
					<path class="st3" d="M13.2,13.9c0.1-0.4-0.7-0.9-1-0.9C12.2,13.3,12.5,13.7,13.2,13.9L13.2,13.9z"/>
					<path class="st3" d="M13.6,14.4c-0.4-0.4-1.1-0.4-1.3-0.3C12.4,14.3,13.2,14.8,13.6,14.4L13.6,14.4z"/>
					<path class="st3" d="M14.1,14.7c-0.5-0.1-0.8-0.2-1.1,0.1C13.2,15.1,14,15,14.1,14.7L14.1,14.7z"/>
					<path class="st3" d="M14.8,15.1c-0.5-0.3-1.1,0.1-1.2,0.3C14.2,15.6,14.8,15.1,14.8,15.1L14.8,15.1z"/>
					<path class="st3" d="M15.5,15.4c-0.4-0.2-0.9,0.1-1.1,0.3C14.5,15.8,15.2,16,15.5,15.4L15.5,15.4z"/>
					<path class="st3" d="M16.1,15.6c-0.5-0.1-1,0.3-1.1,0.5C15.6,16.2,15.9,16,16.1,15.6L16.1,15.6z"/>
				</g>
			</g>
		</g>
	</g>
</g>
<g id="svg1">
</g>
</svg>
