<?xml version="1.0" encoding="utf-8"?>
<!-- Generator: Adobe Illustrator 21.1.0, SVG Export Plug-In . SVG Version: 6.00 Build 0)  -->
<svg version="1.1" id="Calque_1" xmlns="http://www.w3.org/2000/svg" xmlns:xlink="http://www.w3.org/1999/xlink" x="0px" y="0px"
	 viewBox="0 0 34 20" style="enable-background:new 0 0 34 20;" xml:space="preserve">
<style type="text/css">
	.st0{fill:#FFFFFF;}
	.st1{fill:#CE1126;}
	.st2{fill:#FFFFFF;stroke:#C09300;stroke-width:4.779521e-02;stroke-linejoin:round;}
	.st3{fill:#C09300;}
	.st4{fill:#C09300;stroke:#C09300;stroke-width:4.040563e-02;}
	.st5{fill:#FFFFFF;stroke:#C09300;stroke-width:4.472876e-02;stroke-linejoin:round;}
	.st6{fill:none;stroke:#C09300;stroke-width:4.780273e-02;stroke-linejoin:round;}
	.st7{fill:#FFFFFF;stroke:#C09300;stroke-width:8.946128e-02;stroke-linecap:round;stroke-linejoin:round;}
	.st8{fill:#FFFFFF;stroke:#C09300;stroke-width:4.780273e-02;stroke-linecap:round;stroke-linejoin:round;}
	.st9{fill:#FFFFFF;stroke:#C09300;stroke-width:3.354280e-02;stroke-linecap:round;stroke-linejoin:round;}
	.st10{fill:#FFFFFF;stroke:#C09300;stroke-width:4.327643e-02;}
	.st11{fill:#FFFFFF;stroke:#C09300;stroke-width:3.445334e-02;}
	.st12{fill:#FFFFFF;stroke:#C09300;stroke-width:4.582365e-02;}
	.st13{fill:none;stroke:#C09300;stroke-width:4.779897e-02;}
	.st14{fill:#C09300;stroke:#C09300;stroke-width:1.332682e-02;}
</style>
<g>
	<rect x="0.1" y="-1.3" width="33.9" height="22.6"/>
	<rect x="0.1" y="-1.3" class="st0" width="33.9" height="15.1"/>
	<rect x="0.1" y="-1.3" class="st1" width="33.9" height="7.5"/>
	<g>
		<path class="st2" d="M17,10.1l2.6,2.4l-0.2-4.3c0-0.7-0.6-0.5-1-0.3C18,8.1,17.5,8.1,17,8c-0.5,0.2-1,0.2-1.4-0.1
			c-0.4-0.2-1-0.4-1,0.3l-0.2,4.3L17,10.1L17,10.1z"/>
		<g id="w">
			<path class="st3" d="M14.9,8l-0.2,4.2l-0.3,0.3l0.2-4.3C14.7,8.1,14.8,8,14.9,8L14.9,8z"/>
			<path class="st3" d="M15.2,8.3l-0.2,3.5l-0.3,0.3L15,8.1C15,8.1,15.2,8.3,15.2,8.3L15.2,8.3z"/>
			<path class="st3" d="M15.6,8.6l-0.1,2.9l-0.2,0.2l0.2-3.4C15.4,8.4,15.5,8.5,15.6,8.6L15.6,8.6z"/>
			<path class="st3" d="M15.9,8.7l-0.1,2.5l-0.2,0.2l0.1-2.8C15.7,8.6,15.9,8.7,15.9,8.7L15.9,8.7z"/>
			<path class="st3" d="M16.2,8.7l-0.1,2.1L15.9,11L16,8.7C16.1,8.7,16.2,8.7,16.2,8.7L16.2,8.7z"/>
		</g>
		<g transform="matrix(-1,0,0,1,900,0)">
			<g id="w_1_">
				<path class="st3" d="M19.1,8l0.2,4.2l0.3,0.3l-0.2-4.3C19.3,8.1,19.2,8,19.1,8L19.1,8z"/>
				<path class="st3" d="M18.8,8.3l0.2,3.5l0.3,0.3L19,8.1C19,8.1,18.8,8.3,18.8,8.3L18.8,8.3z"/>
				<path class="st3" d="M18.4,8.6l0.1,2.9l0.2,0.2l-0.2-3.4C18.6,8.4,18.5,8.5,18.4,8.6L18.4,8.6z"/>
				<path class="st3" d="M18.1,8.7l0.1,2.5l0.2,0.2l-0.1-2.8C18.3,8.6,18.1,8.7,18.1,8.7L18.1,8.7z"/>
				<path class="st3" d="M17.8,8.7l0.1,2.1l0.2,0.2L18,8.7C17.9,8.7,17.8,8.7,17.8,8.7L17.8,8.7z"/>
			</g>
		</g>
		<path class="st4" d="M17.1,10.6l0.4,1.6l-0.1,0.1l-0.1-0.1L17,10.8l0.1,1.5L17,12.4l-0.1-0.2l0.1-1.5l-0.2,1.5l-0.1,0.1l-0.1-0.1
			l0.4-1.6H17.1L17.1,10.6z"/>
		<g id="b">
			<path class="st5" d="M16.2,9.8l-0.7,2.5l1,0.2l0.4-1.9L16.2,9.8L16.2,9.8z"/>
			<path class="st6" d="M16,10.7l0.1,0.2l0.5-0.4"/>
			<path class="st6" d="M16.3,10.2l0.1,0.9l0.3-0.4"/>
			<path class="st6" d="M16.6,10.9l0.2,0.6"/>
			<path class="st6" d="M16.8,11.2l-0.3,0.5 M16.6,12.2l-0.1-0.5l-0.1-0.5l-0.2,0.3L16,11.2l-0.3,0.3l0.2,0.6l0.2-0.4l0.1,0.4
				l0.2-0.3"/>
			<path class="st6" d="M15.7,12.3l0.2-0.3l0.1,0.4l0.2-0.3l0.1,0.4"/>
		</g>
		<g transform="matrix(-1,0,0,1,900,0)">
			<g id="b_1_">
				<path class="st5" d="M17.8,9.8l0.7,2.5l-1,0.2l-0.4-1.9L17.8,9.8L17.8,9.8z"/>
				<path class="st6" d="M18,10.7L18,10.9l-0.5-0.4"/>
				<path class="st6" d="M17.7,10.2l-0.1,0.9l-0.3-0.4"/>
				<path class="st6" d="M17.4,10.9l-0.2,0.6"/>
				<path class="st6" d="M17.2,11.2l0.3,0.5 M17.4,12.2l0.1-0.5l0.1-0.5l0.2,0.3l0.1-0.3l0.3,0.3l-0.2,0.6l-0.2-0.4l-0.1,0.4
					l-0.2-0.3"/>
				<path class="st6" d="M18.3,12.3l-0.2-0.3L18,12.5l-0.2-0.3l-0.1,0.4"/>
			</g>
		</g>
		<g>
			<path class="st7" d="M17,13.5c0.8,0,1.5-0.1,1.9-0.2c0.2,0,0.2-0.1,0.2-0.2c0.2-0.1,0.1-0.3,0.2-0.3c-0.1,0-0.2-0.2-0.3-0.2
				c0-0.2-0.2-0.2-0.4-0.2c-0.4,0.1-1,0.1-1.6,0.1c-0.6,0-1.2,0-1.6-0.1c-0.2-0.1-0.4,0-0.4,0.2c-0.2,0-0.2,0.2-0.3,0.2
				c0.1,0,0,0.2,0.2,0.3c0,0.1,0,0.2,0.2,0.2C15.5,13.5,16.2,13.5,17,13.5L17,13.5z"/>
			<path class="st8" d="M16,12.4c0.2,0,0.5,0.1,0.7,0c0.1,0,0.2,0.2,0,0.2c-0.2,0-0.5,0-0.7,0c-0.2,0-0.5-0.1-0.7-0.1
				c-0.2-0.1-0.1-0.3,0.1-0.2C15.5,12.3,15.7,12.4,16,12.4L16,12.4z"/>
			<path class="st8" d="M18,12.4c-0.2,0-0.5,0.1-0.7,0c-0.1,0-0.2,0.2,0,0.2c0.2,0,0.5,0,0.7,0c0.2,0,0.5-0.1,0.7-0.1
				c0.2-0.1,0.1-0.3-0.1-0.2C18.5,12.3,18.3,12.4,18,12.4L18,12.4z"/>
			<path class="st8" d="M15.2,12.3c-0.2,0-0.3,0.2-0.2,0.3c0-0.1,0.2-0.1,0.2-0.1C15.2,12.4,15.2,12.4,15.2,12.3L15.2,12.3z"/>
			<path class="st8" d="M16,12.8c0-0.1,0.1-0.1,0.1-0.2c0-0.1,0-0.2-0.1-0.2c-0.1,0-0.1,0.1-0.1,0.1C15.8,12.7,16,12.7,16,12.8z"/>
			<path class="st8" d="M16.8,12.5c0.2,0,0.2,0.2,0.1,0.4c0-0.1-0.2-0.1-0.2-0.2C16.7,12.6,16.9,12.6,16.8,12.5L16.8,12.5z"/>
			<path class="st8" d="M18.8,12.3c0.2,0,0.3,0.2,0.2,0.3c0-0.1-0.2-0.1-0.2-0.1C18.8,12.4,18.8,12.4,18.8,12.3L18.8,12.3z"/>
			<path class="st8" d="M18,12.8c0-0.1-0.1-0.1-0.1-0.2c0-0.1,0-0.2,0.1-0.2c0.1,0,0.1,0.1,0.1,0.1C18.2,12.7,18,12.7,18,12.8
				L18,12.8z"/>
			<path class="st8" d="M17.2,12.5c-0.2,0-0.2,0.2-0.1,0.4c0-0.1,0.2-0.1,0.2-0.2C17.3,12.6,17.1,12.6,17.2,12.5z"/>
			<g>
				<path class="st9" d="M15.3,12.3c0.1,0,0.2,0,0.2,0.1L15.3,12.3L15.3,12.3z"/>
				<path class="st9" d="M15.6,12.4c0,0,0.2,0,0.2,0.1L15.6,12.4L15.6,12.4z"/>
				<path class="st9" d="M16.7,12.5c-0.1,0-0.2,0-0.2,0L16.7,12.5L16.7,12.5z"/>
				<path class="st9" d="M16.3,12.5c0,0-0.2,0-0.2,0H16.3L16.3,12.5z"/>
				<path class="st9" d="M18.7,12.3c-0.1,0-0.1,0-0.2,0.1L18.7,12.3z"/>
				<path class="st9" d="M18.4,12.4c0,0-0.2,0-0.2,0.1L18.4,12.4L18.4,12.4z"/>
				<path class="st9" d="M17.3,12.5c0.1,0,0.2,0,0.2,0L17.3,12.5L17.3,12.5z"/>
				<path class="st9" d="M17.7,12.5c0,0,0.2,0,0.2,0H17.7L17.7,12.5z"/>
			</g>
			<g>
				<path class="st3" d="M15.2,12.8C15.2,12.8,15.2,12.8,15.2,12.8C15.2,12.7,15.2,12.7,15.2,12.8C15.3,12.7,15.3,12.8,15.2,12.8
					C15.3,12.8,15.3,12.8,15.2,12.8C15.3,12.8,15.3,12.8,15.2,12.8C15.3,12.8,15.3,12.8,15.2,12.8L15.2,12.8z"/>
				<path class="st3" d="M17.3,13C17.3,13,17.3,12.9,17.3,13C17.3,12.9,17.3,12.9,17.3,13C17.3,12.9,17.4,12.9,17.3,13
					C17.4,12.9,17.4,12.9,17.3,13C17.3,13,17.3,13,17.3,13L17.3,13z"/>
				<path class="st3" d="M17.3,13C17.3,13,17.3,13,17.3,13C17.3,13,17.3,13,17.3,13L17.3,13L17.3,13C17.4,13,17.4,13,17.3,13
					C17.4,13,17.4,13,17.3,13C17.3,13.1,17.3,13.1,17.3,13L17.3,13z"/>
				<path class="st3" d="M15.4,12.6C15.4,12.6,15.4,12.6,15.4,12.6c-0.1,0-0.1,0-0.1,0c0,0-0.1,0-0.1,0c0,0,0,0,0.1,0
					C15.3,12.7,15.4,12.7,15.4,12.6c-0.1,0.1-0.1,0.1-0.1,0.2c0,0,0,0,0,0c0,0,0,0-0.1,0c0,0,0,0-0.1,0c0,0,0,0,0,0.1c0,0,0,0,0.1,0
					c0,0,0.1,0,0.1,0c0,0,0.1,0,0.1,0c0.1,0,0.1,0,0.2,0c0,0,0,0,0,0c0,0,0,0,0,0c0,0,0-0.1,0-0.1c0,0,0-0.1,0,0c0,0,0,0-0.1,0
					c0,0,0,0,0,0c0,0,0,0,0,0.1c0,0,0,0-0.1,0c0,0-0.1,0,0,0c0,0,0,0,0-0.1c0,0,0,0,0-0.1c0,0,0,0-0.1,0c0,0-0.1,0,0,0
					c0,0,0,0,0,0.1c0,0,0,0-0.1,0c0,0-0.1,0,0,0c0,0,0,0,0-0.1c0,0,0-0.1,0-0.1C15.4,12.8,15.4,12.7,15.4,12.6
					C15.4,12.7,15.4,12.7,15.4,12.6C15.4,12.6,15.4,12.6,15.4,12.6L15.4,12.6z M15.3,12.9C15.3,12.9,15.3,12.9,15.3,12.9
					C15.3,12.9,15.3,12.9,15.3,12.9C15.3,12.9,15.3,12.9,15.3,12.9C15.3,12.9,15.2,12.9,15.3,12.9C15.2,12.9,15.3,12.9,15.3,12.9
					C15.3,12.9,15.3,12.9,15.3,12.9L15.3,12.9z"/>
				<path class="st3" d="M15.2,13.1C15.2,13.1,15.2,13.1,15.2,13.1C15.3,13,15.3,13,15.2,13.1C15.3,13.1,15.3,13.1,15.2,13.1
					C15.3,13.1,15.3,13.1,15.2,13.1C15.2,13.1,15.2,13.1,15.2,13.1L15.2,13.1z"/>
				<path class="st3" d="M15.4,13.1C15.3,13.1,15.3,13.1,15.4,13.1C15.3,13.1,15.3,13.1,15.4,13.1C15.4,13.1,15.4,13.1,15.4,13.1
					C15.4,13.1,15.4,13.1,15.4,13.1C15.4,13.1,15.4,13.1,15.4,13.1L15.4,13.1z"/>
				<path class="st3" d="M18.7,13.1C18.7,13.1,18.7,13.1,18.7,13.1C18.7,13.1,18.7,13.1,18.7,13.1C18.7,13.1,18.8,13.1,18.7,13.1
					C18.8,13.1,18.8,13.1,18.7,13.1C18.8,13.1,18.8,13.1,18.7,13.1C18.7,13.1,18.7,13.1,18.7,13.1L18.7,13.1z"/>
				<path class="st3" d="M15.5,13.2C15.5,13.2,15.5,13.2,15.5,13.2C15.5,13.1,15.5,13.1,15.5,13.2C15.5,13.1,15.5,13.1,15.5,13.2
					C15.5,13.1,15.5,13.1,15.5,13.2C15.6,13.1,15.6,13.2,15.5,13.2C15.5,13.2,15.5,13.2,15.5,13.2L15.5,13.2z"/>
				<path class="st3" d="M16.3,13.2C16.3,13.2,16.3,13.2,16.3,13.2C16.3,13.2,16.3,13.2,16.3,13.2c0-0.1,0-0.1,0-0.1
					c0,0,0-0.1,0-0.1c0,0,0,0,0-0.1c0,0,0-0.1,0-0.1c0,0,0,0,0,0c0,0,0,0,0.1,0.1c0,0,0,0,0,0c0,0,0,0,0,0c0,0,0,0,0,0
					c0,0,0,0,0,0.1C16.4,13.1,16.4,13.1,16.3,13.2C16.4,13.1,16.4,13.2,16.3,13.2C16.4,13.2,16.4,13.2,16.3,13.2
					C16.4,13.2,16.3,13.2,16.3,13.2L16.3,13.2z"/>
				<path class="st3" d="M17.4,12.8C17.4,12.9,17.4,12.9,17.4,12.8C17.4,12.9,17.4,12.9,17.4,12.8c0,0.1,0,0.1,0,0.2c0,0,0,0,0,0.1
					c0,0,0,0,0,0c0,0,0,0,0,0c0,0,0,0,0,0.1c0,0,0,0,0,0.1c0,0,0,0,0,0c0,0,0,0,0,0c0,0,0,0,0.1,0c0,0,0.1,0,0.1,0c0,0,0.1,0,0.1,0
					c0,0,0,0,0,0c0,0,0-0.1,0-0.1c0,0,0-0.1,0-0.1c0,0,0,0,0,0c0,0,0,0,0,0c0,0,0,0,0,0c0,0,0,0,0,0.1c0,0,0,0,0,0c0,0,0,0-0.1,0
					c0,0,0,0,0-0.1c0,0,0-0.1,0-0.1C17.5,13,17.5,12.9,17.4,12.8C17.5,12.9,17.5,12.8,17.4,12.8L17.4,12.8z M17.4,13.2L17.4,13.2
					L17.4,13.2L17.4,13.2L17.4,13.2C17.4,13.2,17.4,13.2,17.4,13.2C17.4,13.2,17.4,13.2,17.4,13.2C17.4,13.2,17.4,13.2,17.4,13.2
					C17.4,13.2,17.4,13.2,17.4,13.2L17.4,13.2z"/>
				<path class="st3" d="M16.3,12.8C16.3,12.8,16.3,12.8,16.3,12.8C16.2,12.8,16.2,12.9,16.3,12.8c0,0.1-0.1,0.1-0.1,0.1
					c0,0,0,0.1,0,0.1c0,0,0,0.1,0,0.1c0,0,0,0.1,0,0.1c0,0,0,0,0,0c0,0,0,0,0,0c0,0,0,0,0,0c0,0,0,0,0,0c0,0,0,0,0.1,0
					c0,0,0,0,0-0.1c0,0,0,0-0.1-0.1c0,0,0-0.1,0-0.1c0,0-0.1,0-0.1,0.1c0,0,0,0-0.1,0c0,0-0.1,0.1,0,0.1c0,0,0.1,0,0.1,0
					c0,0,0,0-0.1,0c0,0-0.1,0-0.1,0c0,0,0-0.1,0-0.1c0,0,0,0,0,0c0,0,0,0.1,0,0.1c0,0,0,0.1,0,0.1c0,0,0,0-0.1,0c0,0-0.1,0,0,0
					c0,0,0.1,0,0.1,0c0,0,0.1,0,0.1-0.1c0,0,0.1,0,0.1,0c0,0,0.1,0,0.1,0c0,0,0-0.1,0.1,0c0,0,0,0,0.1,0c0,0,0,0,0,0
					c0,0,0,0.1,0.1,0.1c0,0,0,0,0,0c0,0,0.1,0,0.1-0.1c0,0,0-0.1,0-0.1c0,0,0-0.1,0-0.1c0,0,0-0.1,0-0.1
					C16.3,12.9,16.3,12.9,16.3,12.8C16.3,12.8,16.3,12.8,16.3,12.8L16.3,12.8z M16,13C16,13,16,13,16,13C16,13,16.1,13,16,13
					C16.1,13,16.1,13,16,13C16.1,13,16.1,13,16,13C16,13,16,13,16,13L16,13L16,13C16,13,16,13,16,13C16,13,16,13,16,13L16,13z"/>
				<path class="st3" d="M18.5,12.7C18.5,12.7,18.5,12.7,18.5,12.7C18.4,12.7,18.4,12.7,18.5,12.7C18.5,12.8,18.5,12.7,18.5,12.7
					c0.1,0.1,0.1,0.1,0.1,0.2c0,0,0,0.1,0,0.1c0,0,0,0.1-0.1,0c0,0-0.1-0.1-0.1,0c0,0,0,0.1-0.1,0.1c0,0-0.1,0-0.1-0.1
					c0,0-0.1,0-0.1,0c0,0,0-0.1,0-0.1c0,0-0.1,0.1,0,0.1c0,0,0,0.1,0,0.1c0,0,0,0.1,0,0.1c0,0-0.1,0-0.1-0.1c0,0,0,0-0.1,0
					c0,0-0.1,0-0.1,0.1c0,0,0,0.1,0,0.1c0,0,0,0,0.1,0c0,0,0.1,0,0,0c0,0-0.1,0-0.1,0.1c0,0,0,0,0.1,0c0,0,0.1,0,0.1-0.1
					c0,0,0.1,0,0.1,0c0,0,0.1,0,0.1,0c0,0,0.1,0.1,0.1,0c0,0,0-0.1,0-0.1c0,0,0,0,0.1,0c0,0,0.1,0,0.1,0c0,0,0-0.1,0.1-0.1
					c0.1,0,0.1,0,0.2-0.1c0.1,0,0,0,0-0.1c0,0-0.1,0.1-0.1,0c0,0,0-0.1,0-0.1C18.7,12.8,18.7,12.7,18.5,12.7
					C18.6,12.7,18.6,12.7,18.5,12.7L18.5,12.7z M18.3,13C18.3,13,18.3,13,18.3,13C18.3,13,18.3,13.1,18.3,13
					C18.3,13.1,18.3,13.1,18.3,13C18.3,13.1,18.3,13.1,18.3,13C18.3,13.1,18.3,13.1,18.3,13C18.3,13.1,18.3,13.1,18.3,13
					C18.2,13,18.2,13,18.3,13C18.3,13,18.3,13,18.3,13z M18.5,13C18.5,13,18.5,13,18.5,13C18.5,13.1,18.5,13.1,18.5,13
					C18.5,13.1,18.5,13.1,18.5,13C18.5,13.1,18.5,13.1,18.5,13C18.5,13.1,18.5,13.1,18.5,13C18.5,13,18.5,13,18.5,13z M18.2,13
					C18.2,13,18.2,13,18.2,13C18.2,13.1,18.2,13.1,18.2,13C18.2,13.1,18.2,13.1,18.2,13C18.2,13.1,18.2,13.1,18.2,13
					C18.2,13.1,18.2,13.1,18.2,13C18.2,13.1,18.2,13.1,18.2,13C18.2,13,18.2,13,18.2,13z M18,13.1C18,13.1,18,13.1,18,13.1
					C18,13.1,18,13.1,18,13.1C18,13.1,17.9,13.1,18,13.1C17.9,13.1,17.9,13.1,18,13.1C17.9,13.1,17.9,13.1,18,13.1
					C17.9,13.1,17.9,13.1,18,13.1C17.9,13.1,17.9,13.1,18,13.1C18,13.1,18,13.1,18,13.1L18,13.1z M18.3,13.1
					C18.3,13.1,18.3,13.1,18.3,13.1C18.3,13.2,18.3,13.2,18.3,13.1C18.3,13.2,18.3,13.2,18.3,13.1C18.3,13.2,18.3,13.2,18.3,13.1
					C18.3,13.2,18.3,13.2,18.3,13.1C18.3,13.1,18.3,13.1,18.3,13.1L18.3,13.1z"/>
				<path class="st3" d="M17.7,13.3C17.7,13.3,17.7,13.3,17.7,13.3C17.7,13.3,17.7,13.3,17.7,13.3C17.7,13.3,17.7,13.3,17.7,13.3
					c0.1-0.1,0.1-0.1,0.1-0.1c0,0,0,0,0-0.1c0,0,0,0,0,0c0,0,0,0,0,0c0,0,0,0,0,0c0,0,0,0,0,0c0,0,0,0,0,0c0,0,0,0,0,0c0,0,0,0,0,0
					c0,0,0,0,0,0c0,0,0,0,0,0c0,0,0,0,0,0.1c0,0,0,0,0,0C17.8,13.3,17.8,13.3,17.7,13.3C17.8,13.3,17.7,13.3,17.7,13.3
					C17.7,13.3,17.7,13.3,17.7,13.3C17.7,13.3,17.7,13.3,17.7,13.3L17.7,13.3z"/>
				<path class="st3" d="M17.4,13.3C17.4,13.3,17.4,13.3,17.4,13.3C17.4,13.3,17.4,13.3,17.4,13.3C17.4,13.3,17.4,13.3,17.4,13.3
					C17.5,13.3,17.5,13.3,17.4,13.3c0.1-0.1,0.1-0.1,0.1-0.1c0,0,0,0,0,0c0,0,0,0,0,0c0,0,0,0,0,0c0,0,0,0,0,0
					C17.5,13.3,17.5,13.3,17.4,13.3C17.5,13.3,17.5,13.3,17.4,13.3C17.5,13.3,17.5,13.3,17.4,13.3C17.5,13.3,17.5,13.3,17.4,13.3
					C17.5,13.3,17.4,13.4,17.4,13.3C17.4,13.4,17.4,13.3,17.4,13.3L17.4,13.3z"/>
				<path class="st3" d="M16.7,13C16.6,13,16.6,13,16.7,13c0,0.1,0,0.1,0,0.1c0,0,0,0.1-0.1,0c0,0,0-0.1,0-0.1c0,0,0,0-0.1,0.1
					c0,0,0,0.1,0,0.1c0,0,0,0.1,0,0.1c0,0-0.1,0-0.1,0c0,0,0,0,0,0c0,0,0.1,0,0.1,0c0,0,0-0.1,0.1-0.1c0.1,0,0.1,0,0.2,0
					c0,0,0.1,0,0.1,0c0,0,0,0.1,0.1,0.1c0,0,0,0,0.1,0c0,0,0-0.1,0-0.1c0.1,0,0.1,0,0.2,0c0,0,0,0,0,0c0,0,0,0,0-0.1
					c0,0,0-0.1,0-0.1c0,0-0.1,0-0.1,0c0,0-0.1,0-0.1,0.1c0,0-0.1,0,0,0c0,0,0,0,0,0c0,0-0.1,0-0.1,0c0,0-0.1,0-0.1,0
					C16.8,13.1,16.8,13.1,16.7,13C16.7,13.1,16.7,13,16.7,13C16.7,13,16.7,13,16.7,13L16.7,13z M16.7,13.1
					C16.8,13.1,16.8,13.1,16.7,13.1C16.8,13.1,16.8,13.1,16.7,13.1c0.1,0,0.2,0,0.2,0c0,0,0,0,0,0c0,0,0,0.1,0,0.1c0,0,0,0,0,0
					c0,0,0,0,0,0c0,0,0,0,0,0c0,0,0,0,0,0c0,0,0,0,0,0c0,0,0,0,0,0C16.9,13.2,16.8,13.2,16.7,13.1C16.8,13.2,16.7,13.2,16.7,13.1
					C16.7,13.2,16.7,13.2,16.7,13.1C16.7,13.2,16.7,13.2,16.7,13.1C16.7,13.1,16.7,13.1,16.7,13.1L16.7,13.1z M17.2,13.2
					C17.2,13.2,17.2,13.2,17.2,13.2C17.2,13.2,17.2,13.2,17.2,13.2C17.2,13.2,17.2,13.2,17.2,13.2C17.2,13.2,17.1,13.2,17.2,13.2
					C17.1,13.2,17.1,13.2,17.2,13.2C17.1,13.2,17.2,13.2,17.2,13.2L17.2,13.2z"/>
			</g>
		</g>
		<path class="st10" d="M17,11c1.2-0.9,1.1-2.3,1.1-2.3c0,0-0.1,0-0.1,0c-0.3,0-0.9-0.1-1-0.3c-0.2,0.2-0.8,0.3-1,0.3
			c0,0-0.1,0-0.1,0C15.9,8.7,15.8,10.1,17,11L17,11z"/>
		<path class="st11" d="M18,8.8C18,8.8,18,8.8,18,8.8c-0.3,0-0.8-0.1-1-0.3c-0.2,0.2-0.8,0.3-1,0.3c0,0,0,0,0,0c0,0.1,0,0.1,0,0.2
			c0,0.2,0,0.4,0.1,0.5c0.2,0.6,0.5,1,0.9,1.4c0.5-0.4,0.8-0.8,0.9-1.4C18,9.3,18,9.1,18,9C18,8.9,18,8.8,18,8.8L18,8.8z"/>
		<path class="st3" d="M16.6,8.7c-0.2,0.1-0.5,0.1-0.6,0.1c0,0,0,0,0,0c0,0.1,0,0.1,0,0.2c0,0.2,0,0.4,0.1,0.5
			c0.1,0.4,0.3,0.7,0.5,1L16.6,8.7L16.6,8.7z"/>
		<path class="st3" d="M17.4,8.7v1.9c0.3-0.3,0.4-0.6,0.5-1C18,9.3,18,9.1,18,9c0,0,0-0.1,0-0.2c0,0,0,0,0,0
			C17.9,8.8,17.6,8.8,17.4,8.7L17.4,8.7z"/>
		<g>
			<path class="st12" d="M17.5,8.2c0,0,0-0.1,0-0.1c0.1,0.1,0.3,0.1,0.3,0.1c-0.2-0.1-0.3-0.6-0.3-1c0-0.4-0.1-0.6-0.1-0.6
				c-0.1-0.1-0.3-0.1-0.5-0.2c-0.1,0-0.1,0.1-0.1,0.1c-0.2,0-0.3-0.1-0.4,0c-0.1,0-0.1,0.3,0,0.2c0.1-0.1,0.2,0,0.3,0.1
				c0.1,0.1,0.1,0.4,0,0.7c-0.1,0.3-0.4,0.7-0.4,0.7c0.1,0,0.4-0.1,0.4-0.1l-0.1,0.2c0.2-0.1,0.3-0.2,0.3-0.2L17,8.2
				c0.1-0.1,0.2-0.2,0.2-0.2S17.3,8.2,17.5,8.2L17.5,8.2z"/>
			<path class="st13" d="M16.9,7.3c0,0-0.1,0.6-0.2,0.8"/>
			<path class="st13" d="M17,7.3c0,0,0,0.6-0.1,0.8"/>
			<path class="st13" d="M17.1,7.3c0,0,0,0.7,0,0.8"/>
			<path class="st13" d="M17.3,7.3c0,0,0,0.6,0.2,0.8"/>
			<path class="st14" d="M16.7,7c0-0.1,0-0.1,0-0.1c-0.1-0.1-0.2-0.2-0.3-0.1c0,0,0-0.1,0.1-0.1c0.1,0,0.2,0.1,0.4,0.3
				C16.9,6.9,16.8,6.9,16.7,7C16.7,6.9,16.7,7,16.7,7L16.7,7z"/>
			<path class="st14" d="M16.3,6.6C16.3,6.6,16.4,6.5,16.3,6.6c0.1-0.1,0.3-0.1,0.5-0.1c0,0,0-0.1,0.1-0.1c0.2,0,0.4,0.1,0.5,0.2
				c0,0,0,0,0.1,0.1h0c0-0.1-0.1,0-0.2,0c0,0-0.1,0-0.1,0c0,0-0.1,0-0.1,0c0,0,0,0.1-0.1,0.1c0,0,0,0,0,0c0,0,0,0,0,0
				c0,0-0.1,0-0.2-0.1c-0.1-0.1-0.1-0.1-0.2-0.1C16.4,6.5,16.3,6.6,16.3,6.6L16.3,6.6L16.3,6.6z"/>
			<circle class="st0" cx="17" cy="6.6" r="0"/>
		</g>
	</g>
</g>
</svg>
