<?xml version="1.0" encoding="utf-8"?>
<!-- Generator: Adobe Illustrator 21.1.0, SVG Export Plug-In . SVG Version: 6.00 Build 0)  -->
<svg version="1.1" id="Calque_1" xmlns="http://www.w3.org/2000/svg" xmlns:xlink="http://www.w3.org/1999/xlink" x="0px" y="0px"
	 viewBox="0 0 34 20" style="enable-background:new 0 0 34 20;" xml:space="preserve">
<style type="text/css">
	.st0{clip-path:url(#SVGID_2_);fill:#C63C38;}
	.st1{clip-path:url(#SVGID_2_);fill:#F2DE32;}
	.st2{clip-path:url(#SVGID_2_);fill:#2D6C41;}
	.st3{clip-path:url(#SVGID_2_);}
	.st4{clip-path:url(#SVGID_4_);fill:#4CA2D8;}
	.st5{clip-path:url(#SVGID_4_);fill:#F2DE32;}
	.st6{clip-path:url(#SVGID_4_);}
	.st7{fill:#F2DE32;}
</style>
<g id="ETHIOPIA_2_">
	<g>
		<g>
			<defs>
				<rect id="SVGID_1_" x="0.1" y="0.1" width="33.6" height="19.6"/>
			</defs>
			<clipPath id="SVGID_2_">
				<use xlink:href="#SVGID_1_"  style="overflow:visible;"/>
			</clipPath>
			<rect x="0.1" y="0.1" class="st0" width="33.6" height="19.6"/>
			<rect x="0.1" y="0.1" class="st1" width="33.6" height="13.1"/>
			<rect x="0.1" y="0.1" class="st2" width="33.6" height="6.5"/>
			<g class="st3">
				<defs>
					<rect id="SVGID_3_" x="0.1" y="0.1" width="33.6" height="19.6"/>
				</defs>
				<clipPath id="SVGID_4_">
					<use xlink:href="#SVGID_3_"  style="overflow:visible;"/>
				</clipPath>
				<path class="st4" d="M21.8,9.9c0,2.7-2.2,4.9-4.9,4.9S12,12.6,12,9.9C12,7.2,14.2,5,16.9,5S21.8,7.2,21.8,9.9L21.8,9.9z"/>
				<path class="st5" d="M13.2,8.7h2.8l0.6-2l0.2,0.5l-0.9,2.9l-0.3-0.2L15.9,9h-2.3L13.2,8.7z M14.6,13l0.9-2.7l-1.7-1.2h0.6
					l2.4,1.8l-0.3,0.2l-0.8-0.6l-0.7,2.2L14.6,13L14.6,13z M19.2,13l-2.3-1.7l-1.7,1.2l0.2-0.5l2.4-1.8l0.1,0.3l-0.8,0.6l1.9,1.3
					L19.2,13L19.2,13z M20.7,8.7l-2.3,1.7l0.6,2L18.5,12l-0.9-2.9H18l0.3,0.9l1.9-1.3H20.7L20.7,8.7z M16.9,6l0.9,2.7h2.1L19.4,9h-3
					l0.1-0.3h0.9l-0.7-2.2L16.9,6z"/>
				<path class="st6" d="M16.9,11.7v2.1V11.7z M15.2,10.4l-2,0.7L15.2,10.4z M15.9,8.4l-1.2-1.7L15.9,8.4z M18,8.4l1.2-1.7L18,8.4z
					 M18.6,10.4l2,0.7L18.6,10.4z"/>
				<g class="st6">
					<path class="st7" d="M17,13.8h-0.2v-2.1H17V13.8L17,13.8z M20.6,11.2l-2-0.7l0.1-0.2l2,0.7L20.6,11.2L20.6,11.2z M13.2,11.2
						L13.2,11l2-0.7l0,0.2L13.2,11.2L13.2,11.2z M18.1,8.5l-0.1-0.1l1.2-1.7l0.1,0.1L18.1,8.5L18.1,8.5z M15.8,8.5l-1.2-1.7l0.1-0.1
						l1.2,1.7L15.8,8.5L15.8,8.5z"/>
				</g>
			</g>
		</g>
	</g>
</g>
</svg>
