<?xml version="1.0" encoding="utf-8"?>
<!-- Generator: Adobe Illustrator 21.1.0, SVG Export Plug-In . SVG Version: 6.00 Build 0)  -->
<svg version="1.1" id="Calque_1" xmlns="http://www.w3.org/2000/svg" xmlns:xlink="http://www.w3.org/1999/xlink" x="0px" y="0px"
	 viewBox="0 0 34 20" style="enable-background:new 0 0 34 20;" xml:space="preserve">
<style type="text/css">
	.st0{clip-path:url(#SVGID_2_);fill:#FFFFFF;}
	.st1{clip-path:url(#SVGID_2_);fill:#BC0034;}
	.st2{clip-path:url(#SVGID_2_);fill:#232E70;}
</style>
<g id="UNITED_KINGDOM_2_">
	<g>
		<g>
			<defs>
				<rect id="SVGID_1_" x="0.3" y="0.3" width="33.6" height="19.6"/>
			</defs>
			<clipPath id="SVGID_2_">
				<use xlink:href="#SVGID_1_"  style="overflow:visible;"/>
			</clipPath>
			<rect x="0.3" y="0.3" class="st0" width="33.6" height="19.6"/>
			<polygon class="st1" points="22.7,7.3 33.8,1.1 33.8,0.3 33.1,0.3 20.4,7.3 			"/>
			<polygon class="st1" points="22.2,13.1 33.8,19.6 33.8,18.3 24.5,13.1 			"/>
			<polygon class="st1" points="0.3,1.7 10.2,7.3 12.5,7.3 0.3,0.4 			"/>
			<polygon class="st1" points="12,13.1 0.3,19.7 0.3,19.8 2.4,19.8 14.3,13.1 			"/>
			<polygon class="st2" points="31.5,0.3 19.8,0.3 19.8,6.8 			"/>
			<polygon class="st2" points="14.6,0.3 2.9,0.3 14.6,6.8 			"/>
			<polygon class="st2" points="33.8,7.3 33.8,2.8 25.8,7.3 			"/>
			<polygon class="st2" points="33.8,17.6 33.8,13.1 25.8,13.1 			"/>
			<polygon class="st2" points="3.5,19.8 14.6,19.8 14.6,13.6 			"/>
			<polygon class="st2" points="19.8,19.8 30.8,19.8 19.8,13.6 			"/>
			<polygon class="st2" points="0.3,13.1 0.3,17.8 8.5,13.1 			"/>
			<polygon class="st2" points="0.3,7.3 8.5,7.3 0.3,2.7 			"/>
			<polygon class="st1" points="15.6,0.3 15.6,8.5 0.3,8.5 0.3,12 15.6,12 15.6,19.8 18.7,19.8 18.7,12 33.8,12 33.8,8.5 18.7,8.5 
				18.7,0.3 			"/>
		</g>
	</g>
</g>
</svg>
