<?xml version="1.0" encoding="utf-8"?>
<!-- Generator: Adobe Illustrator 21.1.0, SVG Export Plug-In . SVG Version: 6.00 Build 0)  -->
<svg version="1.1" xmlns="http://www.w3.org/2000/svg" xmlns:xlink="http://www.w3.org/1999/xlink" x="0px" y="0px"
	 viewBox="0 0 34 19" style="enable-background:new 0 0 34 19;" xml:space="preserve">
<style type="text/css">
	.st0{fill:#DE2910;}
	.st1{fill:#FFFFFF;}
</style>
<g id="Calque_1">
	<g id="Calque_1_1_">
	</g>
	<rect x="-0.5" y="-0.5" class="st0" width="34.9" height="20"/>
	<g id="petal">
		<path class="st1" d="M17.3,12.4c-3.5-1.5-2-6.1,1.4-5.8c-0.7,0.3-0.8,1-0.4,1.6c0.4,0.7,0,1.8-0.6,2
			C16.7,10.6,16.5,11.8,17.3,12.4L17.3,12.4z"/>
		<path class="st0" d="M17.1,9.1l-0.2,0.3L16.8,9L16.5,9l0.3-0.2l0-0.4L17,8.7l0.3-0.1l-0.2,0.3l0.2,0.3L17.1,9.1z"/>
		<path class="st0" d="M17.3,12.4c-0.4-0.2-0.8-0.7-0.9-1.2c-0.2-0.6-0.1-1.3,0.3-1.8l-0.1,0c-0.4,0.6-0.5,1.3-0.3,1.9
			C16.5,11.7,16.8,12.2,17.3,12.4L17.3,12.4z"/>
	</g>
	<g transform="rotate(72 450,300)">
		<g id="petal_1_">
			<path class="st1" d="M14,10.9c0.3-3.8,5.2-3.7,6-0.5c-0.5-0.5-1.2-0.4-1.6,0.1c-0.5,0.6-1.7,0.5-2.1,0C15.5,9.8,14.4,10,14,10.9
				L14,10.9z"/>
			<path class="st0" d="M17.1,9.7l-0.4-0.1l0.3-0.2l0-0.4l0.3,0.2l0.3-0.1l-0.2,0.3l0.2,0.3l-0.4,0l-0.2,0.3L17.1,9.7z"/>
			<path class="st0" d="M14.1,10.9c0.1-0.5,0.4-0.9,0.9-1.2c0.5-0.4,1.2-0.5,1.8-0.3l0-0.1c-0.6-0.2-1.3,0-1.9,0.3
				C14.4,9.9,14.1,10.4,14.1,10.9L14.1,10.9z"/>
		</g>
	</g>
	<g transform="rotate(144 450,300)">
		<g id="petal_2_">
			<path class="st1" d="M15.1,6.8c3.7-0.9,5.1,3.7,2.3,5.5c0.3-0.7,0-1.3-0.6-1.5c-0.7-0.3-1-1.4-0.7-2C16.6,7.9,16.1,6.8,15.1,6.8
				L15.1,6.8z"/>
			<path class="st0" d="M17.2,9.3l0-0.4l0.3,0.2l0.3-0.1l-0.2,0.3l0.2,0.3l-0.4,0L17.3,10l-0.1-0.4l-0.4-0.1L17.2,9.3z"/>
			<path class="st0" d="M15.1,6.8c0.5-0.1,1,0.1,1.5,0.4c0.5,0.4,0.8,1,0.9,1.6l0.1,0c0-0.7-0.4-1.3-0.9-1.7
				C16.2,6.8,15.6,6.7,15.1,6.8L15.1,6.8z"/>
		</g>
	</g>
	<g transform="rotate(216 450,300)">
		<g id="petal_3_">
			<path class="st1" d="M19,7.2c2,3.3-2,6-4.6,3.9c0.8,0.1,1.2-0.4,1.3-1.1c0-0.8,1.1-1.4,1.7-1.3C18.4,8.9,19.3,8.1,19,7.2L19,7.2z
				"/>
			<path class="st0" d="M17.2,10l0.3-0.1l-0.2,0.3l0.2,0.3l-0.4,0l-0.2,0.3L17,10.4l-0.4-0.1l0.3-0.2l0-0.4L17.2,10z"/>
			<path class="st0" d="M19,7.2c0.2,0.4,0.2,1,0,1.5c-0.2,0.6-0.7,1.1-1.3,1.3l0,0.1c0.6-0.2,1.1-0.7,1.3-1.4
				C19.3,8.2,19.3,7.6,19,7.2L19,7.2z"/>
		</g>
	</g>
	<g transform="rotate(288 450,300)">
		<g id="petal_4_">
			<path class="st1" d="M19.7,10.5c-2.5,2.9-6.4,0-5.1-3.1c0.1,0.8,0.7,1,1.4,0.9c0.8-0.2,1.7,0.6,1.7,1.2
				C17.8,10.5,18.8,11,19.7,10.5L19.7,10.5z"/>
			<path class="st0" d="M16.5,9.6l0.2,0.3l-0.4,0l-0.2,0.3l-0.1-0.4l-0.4-0.1L16,9.6l0-0.4l0.3,0.2l0.3-0.1L16.5,9.6z"/>
			<path class="st0" d="M19.6,10.4c-0.3,0.3-0.9,0.5-1.4,0.5c-0.6,0-1.3-0.3-1.7-0.8l-0.1,0.1c0.4,0.5,1.1,0.8,1.7,0.9
				C18.8,11.1,19.3,10.9,19.6,10.4L19.6,10.4z"/>
		</g>
	</g>
</g>
<g id="_x34_">
</g>
</svg>
