<?xml version="1.0" encoding="utf-8"?>
<!-- Generator: Adobe Illustrator 21.1.0, SVG Export Plug-In . SVG Version: 6.00 Build 0)  -->
<svg version="1.1" id="Calque_1" xmlns="http://www.w3.org/2000/svg" xmlns:xlink="http://www.w3.org/1999/xlink" x="0px" y="0px"
	 viewBox="0 0 34 20" style="enable-background:new 0 0 34 20;" xml:space="preserve">
<style type="text/css">
	.st0{clip-path:url(#SVGID_2_);fill:#FFFFFF;}
	.st1{clip-path:url(#SVGID_2_);fill:#282F7F;}
	.st2{clip-path:url(#SVGID_2_);fill:#C31E2C;}
	.st3{clip-path:url(#SVGID_2_);}
	.st4{clip-path:url(#SVGID_4_);fill:#FFFFFF;}
	.st5{clip-path:url(#SVGID_4_);}
	.st6{fill:#C31E2C;}
	.st7{clip-path:url(#SVGID_4_);fill:#3A7AA1;}
	.st8{fill:#526DAC;}
	.st9{fill:#FFFFFF;}
	.st10{clip-path:url(#SVGID_4_);fill:#ECE21B;}
	.st11{fill:#C2A224;}
	.st12{fill:none;}
	.st13{clip-path:url(#SVGID_4_);fill:#C2A224;}
	.st14{clip-path:url(#SVGID_4_);fill:#613F21;}
	.st15{clip-path:url(#SVGID_4_);fill:#282F7F;}
	.st16{fill:#2D2D69;}
	.st17{clip-path:url(#SVGID_4_);fill:#C31E2C;}
	.st18{fill:#C32532;}
	.st19{fill:#B91321;}
	.st20{clip-path:url(#SVGID_4_);fill:#83373B;}
	.st21{fill:#83353B;}
	.st22{fill:#E8D72B;}
	.st23{clip-path:url(#SVGID_4_);fill:#624F23;}
	.st24{fill:#624F23;}
	.st25{fill:#EEC430;}
	.st26{clip-path:url(#SVGID_4_);fill:#EDC230;}
	.st27{clip-path:url(#SVGID_4_);fill:#EEC430;}
</style>
<g id="CROATIA_3_">
	<g>
		<g>
			<defs>
				<rect id="SVGID_1_" x="0.1" y="0.1" width="33.6" height="19.6"/>
			</defs>
			<clipPath id="SVGID_2_">
				<use xlink:href="#SVGID_1_"  style="overflow:visible;"/>
			</clipPath>
			<rect x="0.1" y="6.6" class="st0" width="33.6" height="6.5"/>
			<rect x="0.1" y="13.2" class="st1" width="33.6" height="6.5"/>
			<rect x="0.1" y="0.1" class="st2" width="33.6" height="6.5"/>
			<g class="st3">
				<defs>
					<rect id="SVGID_3_" x="0.1" y="0.1" width="33.6" height="19.6"/>
				</defs>
				<clipPath id="SVGID_4_">
					<use xlink:href="#SVGID_3_"  style="overflow:visible;"/>
				</clipPath>
				<path class="st4" d="M13,6.5c1.2-0.4,2.5-0.7,3.8-0.7c1.3,0,2.6,0.2,3.9,0.7l1-2l-0.7-1.2c0,0-1.2,0.5-1.2,0.5
					c0,0-0.9-0.9-0.9-0.9l-1.1,0.7l-1-0.8l-1,0.8l-1.1-0.7l-0.8,1l-1.2-0.5L12,4.6L13,6.5z"/>
				<g class="st5">
					<path class="st6" d="M20.8,6.6L20.8,6.6c-1.3-0.5-2.6-0.7-3.9-0.7c-1.3,0-2.7,0.2-3.9,0.7l-1-2l0.7-1.2L14,3.9l0.8-1l1.2,0.6
						l0.9-0.8l1.1,0.8L19,2.9c0.4,0.4,0.9,0.9,0.9,0.9c0,0,0.9-0.4,1.2-0.5l0.7,1.2L20.8,6.6L20.8,6.6z M12.7,3.4l-0.6,1.2l1,1.9
						c1.2-0.4,2.5-0.7,3.8-0.7c1.4,0,2.7,0.2,3.9,0.7l1-1.9l-0.7-1.2c-1.2,0.5-1.2,0.5-1.2,0.5c0,0,0,0-0.9-0.9l-1.1,0.7l-1.1-0.8
						l-0.9,0.8L14.7,3l-0.8,1L12.7,3.4L12.7,3.4z"/>
				</g>
				<path class="st7" d="M19.3,6l0.6-2L21,3.5l0.6,1.1l-0.9,1.9C20.2,6.2,20,6.1,19.3,6L19.3,6z"/>
				<g class="st5">
					<path class="st8" d="M20.8,6.4L20.8,6.4C20.2,6.2,20,6.1,19.3,6l0.6-2L21,3.5l0.6,1.1L20.8,6.4L20.8,6.4z M21,3.5L19.8,4
						l-0.6,2c0.7,0.1,1,0.2,1.5,0.4l0.9-1.8L21,3.5L21,3.5z"/>
				</g>
				<path class="st7" d="M16.1,5.8l-0.2-2l1-0.8l1,0.8l-0.2,2C17.2,5.7,16.8,5.7,16.1,5.8L16.1,5.8z"/>
				<g class="st5">
					<path class="st8" d="M17.7,5.8L17.7,5.8c-0.6,0-0.9,0-1.6,0l-0.2-2.1l1-0.8l1,0.8L17.7,5.8L17.7,5.8z M16.9,3l-0.9,0.8l0.2,2
						c0.6,0,1,0,1.6,0l0.2-2L16.9,3L16.9,3z"/>
				</g>
				<path class="st7" d="M13.1,6.4l-0.9-1.9l0.6-1L14,4.1L14.5,6C14,6.1,13.7,6.2,13.1,6.4L13.1,6.4z"/>
				<g class="st5">
					<path class="st8" d="M13.1,6.4l-0.9-1.9l0.6-1L14,4.1L14.5,6C14,6.1,13.6,6.2,13.1,6.4L13.1,6.4L13.1,6.4z M12.8,3.5l-0.6,1
						l0.9,1.9c0.6-0.2,0.9-0.3,1.4-0.4L14,4.1L12.8,3.5L12.8,3.5z"/>
				</g>
				<path class="st4" d="M12.9,5.5c0.3,0,0.5,0,0.7-0.1C13.8,5.3,13.9,5.1,14,5c0.1,0.2,0,0.5-0.3,0.6C13.5,5.8,13.1,5.8,12.9,5.5
					L12.9,5.5z"/>
				<g class="st5">
					<path class="st9" d="M13.4,5.8c-0.2,0-0.4-0.1-0.5-0.3c0.1,0,0.2,0,0.2,0c0.2,0,0.3,0,0.5-0.1C13.8,5.3,13.9,5.2,14,5l0,0
						c-0.1,0.1-0.2,0.3-0.4,0.4c-0.2,0.1-0.4,0.1-0.7,0.1c0.2,0.2,0.6,0.3,0.9,0.2C14,5.5,14.1,5.3,14,5.2c0,0.2,0,0.3-0.3,0.5
						C13.6,5.7,13.5,5.8,13.4,5.8L13.4,5.8z"/>
				</g>
				<polygon class="st10" points="17.1,4 17.1,4.1 17.1,4.2 17,4.2 17,4.3 17,4.3 17,4.3 17,4.4 17,4.4 17.1,4.4 17.1,4.5 17.2,4.5 
					17.2,4.5 17.2,4.6 17.3,4.6 17.3,4.6 17.5,4.6 17.5,4.5 17.5,4.5 17.6,4.5 17.7,4.4 17.7,4.4 17.7,4.3 17.7,4.3 17.7,4.3 
					17.7,4.2 17.7,4.2 17.6,4.1 17.6,4 17.6,4 17.6,3.9 17.6,3.9 17.6,3.8 17.6,3.8 17.5,3.9 17.5,3.9 17.5,3.9 17.5,3.9 17.4,3.9 
					17.4,3.9 17.3,3.8 17.3,3.9 17.3,3.9 17.2,3.9 17.2,3.9 17.1,3.9 17.1,3.9 17.1,3.9 17.2,4 				"/>
				<g class="st5">
					<path class="st11" d="M17.3,4.6l-0.1,0l0,0l-0.1,0l-0.1,0l0-0.1l0,0l0-0.1l0,0l0,0l0-0.1l0.1,0l0-0.1l0.1,0l0,0l-0.1-0.1V3.9v0
						l0.1,0l0.1,0l0,0.1l0-0.1c0,0,0,0,0.1-0.1l0.1,0l0,0.1l0,0l0,0c0,0,0,0,0.1-0.1l0,0l0.1,0h0l0,0l-0.1,0.1l0,0.1c0,0,0,0,0,0
						l0,0.1l0.1,0.1l0,0.1l-0.1,0l0,0.1l-0.1,0l0,0.1l-0.1,0l0,0l0,0L17.3,4.6L17.3,4.6z M17.3,4.6L17.3,4.6l0.2,0l0,0l0,0l0.1,0
						l0-0.1l0.1,0l0-0.1l0.1,0l-0.1-0.1l0-0.1l-0.1-0.1l0-0.1c0,0,0,0,0,0l0-0.1l0.1-0.1l0,0l0,0c0,0,0,0-0.1,0c0,0,0,0,0,0l-0.1,0
						l0-0.1l-0.1,0c0,0,0,0-0.1,0c0,0,0,0,0,0v0l0,0l-0.1-0.1l-0.1,0l0,0L17.2,4l0,0.1l-0.1,0l0,0.1l-0.1,0l0,0.1c0,0,0,0,0,0.1
						c0,0,0,0,0,0l0,0.1l0,0l0,0.1l0.1,0L17.3,4.6L17.3,4.6L17.3,4.6L17.3,4.6z"/>
				</g>
				<g class="st5">
					<path class="st12" d="M17.7,4.4L17.7,4.4L17.7,4.4z"/>
				</g>
				<g class="st5">
					<path class="st12" d="M17.7,4.3L17.7,4.3L17.7,4.3z"/>
				</g>
				<path class="st13" d="M17,4.3L17,4.3L17,4.3l0.1,0.1l0,0.1l0,0l0-0.1l0.1,0l0,0.1l0,0l0,0l0.1,0l0,0c0,0,0,0,0,0c0,0,0,0,0,0
					l0,0l0,0c0,0,0,0.1,0,0.1l0.1,0l0,0l0-0.1l0.1,0l0,0c0,0,0,0,0,0c0,0,0-0.1,0-0.1V4.3l0.1-0.1l0.1,0v0l-0.1-0.1l0-0.1l0,0l0,0
					l-0.1,0l0.1,0.1v0l0,0l0,0.1c0,0-0.1,0-0.1,0l0,0.1l0,0l0,0.1c0,0,0,0,0,0h-0.1c0,0,0,0,0,0l0,0l0,0c0,0,0-0.1,0-0.1l0,0v0l0,0
					l0,0c0,0,0,0,0,0V4.1l0,0l0,0l0,0v0l0,0c0,0-0.1,0-0.1,0l0,0l0,0.1L17,4.3L17,4.3L17,4.3z"/>
				<g class="st5">
					<path class="st11" d="M17.2,4.6L17.2,4.6l0-0.1l0,0L17.2,4.6L17.2,4.6L17.2,4.6l-0.1-0.2l0-0.1l-0.1,0l0,0l0-0.1l0.1,0
						c0,0,0-0.1,0-0.1c0,0,0.1,0,0.1,0c0,0,0.1,0,0.1,0l0,0.1l0,0l0,0c0,0,0,0,0,0c0,0,0,0,0,0c0,0,0,0,0,0.1l-0.1,0l0,0.1l0.1,0
						l0,0.1l0,0.2l0,0l0.1,0L17.2,4.6L17.2,4.6L17.2,4.6L17.2,4.6L17.2,4.6L17.2,4.6z M17.5,4.6C17.4,4.5,17.4,4.5,17.5,4.6
						L17.5,4.6L17.5,4.6L17.5,4.6C17.4,4.5,17.4,4.5,17.5,4.6C17.4,4.5,17.5,4.6,17.5,4.6L17.5,4.6L17.5,4.6l0-0.1l0,0c0,0,0,0,0,0
						L17.5,4.6l-0.1-0.1c-0.1,0-0.1,0-0.1-0.1l0,0c0,0,0,0,0-0.1l0,0l0,0l0,0l0,0c0,0,0,0,0-0.1v0l0.1,0l0,0l0,0l-0.1,0
						c0,0,0,0.1,0,0.1l0.1,0.1l0,0l0,0c0,0,0,0.1,0,0.1c0,0,0,0.1,0,0.1l0,0l0,0c0,0,0,0,0,0c0,0,0-0.1,0-0.1l0,0l0-0.1
						c0,0,0,0,0.1,0l0-0.2l0-0.1l0.1,0l0.1,0l0,0.1l0.1,0.1v0l-0.1,0l0,0.1l0,0.1l0,0c0,0,0,0,0,0l0,0l0-0.1l-0.1,0L17.5,4.6
						L17.5,4.6L17.5,4.6z M17.5,4.3C17.5,4.3,17.5,4.3,17.5,4.3l0,0.1c0,0,0,0.1,0,0.1l0.1-0.1l0,0c0,0,0,0,0,0L17.5,4.3L17.5,4.3
						C17.5,4.3,17.5,4.3,17.5,4.3L17.5,4.3z M17.5,4L17.5,4L17.5,4l0,0.2l0,0l0.1,0l-0.1-0.1L17.5,4L17.5,4L17.5,4z"/>
				</g>
				<path class="st14" d="M17.3,4.4L17.3,4.4L17.3,4.4L17.3,4.4L17.3,4.4L17.3,4.4L17.3,4.4l0.1-0.1C17.4,4.3,17.4,4.3,17.3,4.4
					L17.3,4.4L17.3,4.4l0.1,0c0,0,0,0,0,0C17.5,4.4,17.4,4.4,17.3,4.4L17.3,4.4L17.3,4.4z"/>
				<g class="st5">
					<path class="st11" d="M17.3,4.4L17.3,4.4L17.3,4.4l0-0.1l0,0v0l0,0v0L17.3,4.4L17.3,4.4c0.2-0.1,0.2-0.1,0.2-0.1
						C17.5,4.4,17.5,4.4,17.3,4.4L17.3,4.4L17.3,4.4z"/>
				</g>
				<path class="st13" d="M17.5,4.1L17.5,4.1L17.5,4.1l-0.1,0.1l-0.1-0.1h-0.1c0,0,0,0.1,0,0.1l0,0l-0.1-0.1c0,0,0,0,0,0
					s0.2,0,0.2,0V4.1c0,0,0,0,0,0c0,0,0.1,0,0.1,0l0,0v0.1L17.5,4.1L17.5,4.1z"/>
				<g class="st5">
					<path class="st11" d="M17.3,4.3L17.3,4.3l-0.1-0.1l0,0l0.2,0l0-0.1l0,0c0,0,0,0,0,0c0,0,0,0,0.1,0h0.1l-0.1,0.1l0,0l0.2,0
						l-0.1,0.1l0,0L17.3,4.3L17.3,4.3C17.3,4.2,17.3,4.2,17.3,4.3L17.3,4.3L17.3,4.3z M17.4,4.1l-0.2,0L17.4,4.1
						C17.3,4.2,17.3,4.2,17.4,4.1L17.4,4.1L17.4,4.1L17.4,4.1z"/>
				</g>
				<path class="st14" d="M17.3,4.2L17.3,4.2C17.3,4.2,17.3,4.2,17.3,4.2L17.3,4.2C17.3,4.2,17.3,4.2,17.3,4.2L17.3,4.2
					C17.3,4.2,17.3,4.2,17.3,4.2L17.3,4.2C17.3,4.2,17.3,4.2,17.3,4.2L17.3,4.2z"/>
				<path class="st14" d="M17.4,4.2L17.4,4.2C17.5,4.2,17.5,4.2,17.4,4.2L17.4,4.2C17.5,4.2,17.5,4.2,17.4,4.2L17.4,4.2
					C17.4,4.2,17.4,4.2,17.4,4.2L17.4,4.2C17.4,4.2,17.4,4.2,17.4,4.2L17.4,4.2z"/>
				<g class="st5">
					<path class="st11" d="M17.2,4.1L17.2,4.1L17.2,4.1C17.2,4,17.3,4,17.3,4c0.1,0,0.1,0,0.2,0c-0.1,0-0.1,0-0.2,0
						C17.3,4,17.2,4,17.2,4.1L17.2,4.1z"/>
				</g>
				<polygon class="st13" points="17.2,3.9 17.2,3.9 17.1,3.9 17.1,3.9 17.2,3.9 				"/>
				<g class="st5">
					<polygon class="st11" points="17.2,4 17.2,4 17.1,3.8 17.2,3.9 17.2,4 					"/>
				</g>
				<polygon class="st13" points="17.5,3.9 17.6,3.8 17.6,3.8 17.5,3.9 17.5,3.9 				"/>
				<g class="st5">
					<polygon class="st12" points="17.5,3.9 17.6,3.8 17.6,3.8 17.5,3.9 17.5,3.9 					"/>
				</g>
				<polygon class="st13" points="17.4,3.9 17.3,3.9 17.3,3.9 17.3,3.9 17.3,3.9 17.4,3.9 17.4,3.9 17.4,3.9 				"/>
				<g class="st5">
					<polygon class="st11" points="17.2,3.9 17.2,3.9 17.3,3.9 17.3,3.9 17.3,3.9 17.3,3.9 17.4,3.9 17.4,3.9 17.4,3.9 17.2,3.9 
											"/>
				</g>
				<polygon class="st13" points="17.4,3.9 17.4,3.9 17.4,3.8 				"/>
				<g class="st5">
					<polygon class="st12" points="17.4,3.9 17.4,3.9 17.4,3.8 					"/>
				</g>
				<polygon class="st13" points="17.3,3.8 17.3,3.9 17.3,3.9 				"/>
				<g class="st5">
					<polygon class="st12" points="17.3,3.8 17.3,3.9 17.3,3.9 					"/>
				</g>
				<polygon class="st13" points="17,4.4 17,4.3 17,4.3 17,4.3 				"/>
				<g class="st5">
					<polygon class="st12" points="17,4.4 17,4.3 17,4.3 17,4.3 					"/>
				</g>
				<polygon class="st13" points="17.1,4.4 17.1,4.3 17,4.4 				"/>
				<g class="st5">
					<polygon class="st11" points="17.1,4.4 17,4.4 17.1,4.3 17.1,4.4 17.1,4.4 17.1,4.4 17.1,4.3 17.1,4.4 					"/>
				</g>
				<polygon class="st10" points="16.3,4.1 16.2,4.1 16.2,4.2 16.1,4.2 16.1,4.3 16.1,4.3 16.1,4.4 16.1,4.4 16.1,4.4 16.2,4.4 
					16.2,4.5 16.3,4.5 16.3,4.6 16.3,4.6 16.4,4.6 16.5,4.6 16.6,4.6 16.7,4.6 16.7,4.5 16.8,4.5 16.8,4.4 16.8,4.4 16.8,4.3 
					16.9,4.3 16.8,4.3 16.8,4.3 16.8,4.2 16.7,4.1 16.7,4 16.7,4 16.7,4 16.7,3.9 16.7,3.9 16.7,3.9 16.6,3.9 16.6,3.9 16.6,3.9 
					16.6,4 16.5,4 16.5,3.9 16.5,3.9 16.4,3.9 16.4,4 16.3,4 16.3,3.9 16.2,3.9 16.2,3.9 16.2,3.9 16.3,4 				"/>
				<g class="st5">
					<path class="st11" d="M16.5,4.6l-0.1,0l0,0l-0.1,0l-0.1,0l0-0.1l0,0l0-0.1c0,0,0,0,0,0l0,0l0-0.1l0.1,0l0-0.1l0.1,0l0,0
						l-0.1-0.1V3.9v0l0.1,0l0.1,0l0,0.1l0-0.1c0,0,0,0,0.1-0.1l0.1,0l0,0.1l0,0l0,0c0,0,0,0,0.1-0.1l0,0l0.1,0h0l0,0L16.7,4l0,0.1
						c0,0,0,0,0,0l0,0.1l0.1,0.1l0,0.1l-0.1,0l0,0.1l-0.1,0l0,0.1l-0.1,0l0,0l0,0L16.5,4.6L16.5,4.6z M16.4,4.6L16.4,4.6l0.2,0l0,0
						v0l0.1,0l0-0.1l0.1,0l0-0.1l0.1,0l-0.1-0.1l0-0.1l-0.1-0.1l0-0.1c0,0,0,0,0,0l0-0.1l0.1-0.1l0,0l0,0c0,0-0.1,0-0.1,0
						c0,0,0,0,0,0.1l-0.1,0l0-0.1l-0.1,0c0,0,0,0-0.1,0c0,0,0,0,0,0v0l0,0l-0.1-0.1l-0.1,0l0,0L16.3,4l0,0.1l-0.1,0l0,0.1l-0.1,0
						l0,0.1c0,0,0,0,0,0.1c0,0,0,0,0,0l0,0.1l0,0l0,0.1h0.1L16.4,4.6L16.4,4.6L16.4,4.6L16.4,4.6z"/>
				</g>
				<g class="st5">
					<path class="st12" d="M16.8,4.4L16.8,4.4L16.8,4.4z"/>
				</g>
				<g class="st5">
					<path class="st12" d="M16.8,4.3L16.8,4.3L16.8,4.3z"/>
				</g>
				<path class="st13" d="M16.1,4.3L16.1,4.3L16.1,4.3l0.1,0.1l0,0.1l0,0l0-0.1l0.1,0l0,0.1l0,0l0,0l0.1,0c0,0,0,0,0,0c0,0,0,0,0,0
					l0,0l0,0c0,0,0,0,0,0l0,0l0.1,0l0,0l0-0.1l0.1,0l0,0c0,0,0,0,0,0c0,0,0-0.1,0-0.1V4.3l0.1-0.1l0.1,0v0l-0.1-0.1l0-0.1l0,0l0,0
					l-0.1,0l0.1,0.1v0l0,0l0,0.1c0,0-0.1,0-0.1,0l0,0.1l0,0l0,0.1c0,0,0,0,0,0h-0.1c0,0,0,0,0,0l0,0l0,0c0,0,0-0.1,0-0.1l0,0v0l0,0
					c0,0,0,0,0,0c0,0,0,0,0,0V4.2l0,0l0,0l0,0v0l0,0c0,0-0.1,0-0.1,0l-0.1,0l0,0.1L16.1,4.3L16.1,4.3L16.1,4.3z"/>
				<g class="st5">
					<path class="st11" d="M16.3,4.6L16.3,4.6l0-0.1l0,0L16.3,4.6L16.3,4.6L16.3,4.6l-0.1-0.2l0-0.1l-0.1,0l0,0l0-0.1l0.1,0
						c0,0,0-0.1,0-0.1c0,0,0.1,0,0.1,0c0,0,0.1,0,0.1,0l0,0.1l0,0l0,0c0,0,0,0,0,0c0,0,0,0,0,0c0,0,0,0,0,0.1l-0.1,0l0,0.1l0.1,0
						l0,0.1l0,0.2l0,0l0.1,0L16.3,4.6L16.3,4.6L16.3,4.6L16.3,4.6L16.3,4.6L16.3,4.6z M16.6,4.6C16.5,4.5,16.5,4.5,16.6,4.6
						L16.6,4.6L16.6,4.6L16.6,4.6C16.5,4.5,16.5,4.5,16.6,4.6L16.6,4.6L16.6,4.6L16.6,4.6l0-0.1l0.1-0.1l0,0c0,0,0,0,0,0l0-0.1l0,0
						c0,0,0,0,0,0c0,0,0,0.1,0,0.1l0,0c0,0.1,0,0.1,0,0.1L16.6,4.6l-0.1-0.1c-0.1,0-0.1,0-0.1-0.1l0,0c0,0,0,0,0-0.1l0,0l0,0l0,0
						l0,0c0,0,0,0,0-0.1v0l0.1,0l0,0l0,0l-0.1,0c0,0,0,0.1,0,0.1l0.1,0.1l0,0l0,0c0,0,0,0.1,0,0.1c0,0,0,0.1,0,0.1c0,0,0,0,0,0l0,0
						c0,0,0,0,0,0c0,0,0-0.1,0-0.1l0,0V4.3c0,0,0,0,0.1,0l0-0.2l0-0.1l0.1,0l0.1,0l0,0.1l0.1,0.1v0l-0.1,0l0,0.1l0,0.1l0,0
						c0,0,0,0,0,0l0,0l0,0l0-0.1l-0.1,0L16.6,4.6L16.6,4.6L16.6,4.6z M16.7,4L16.7,4L16.7,4l0,0.2l0,0l0.1,0l-0.1-0.1L16.7,4L16.7,4
						L16.7,4z"/>
				</g>
				<path class="st14" d="M16.4,4.4L16.4,4.4L16.4,4.4L16.4,4.4L16.4,4.4L16.4,4.4L16.4,4.4l0.1-0.1C16.5,4.3,16.5,4.3,16.4,4.4
					L16.4,4.4L16.4,4.4l0.1,0c0,0,0,0,0,0L16.4,4.4L16.4,4.4L16.4,4.4z"/>
				<g class="st5">
					<path class="st11" d="M16.4,4.5L16.4,4.5L16.4,4.5l0-0.1l0,0v0l0,0v0L16.4,4.5L16.4,4.5c0.2-0.1,0.2-0.1,0.2,0
						C16.6,4.4,16.6,4.4,16.4,4.5L16.4,4.5L16.4,4.5z"/>
				</g>
				<path class="st13" d="M16.7,4.2L16.7,4.2L16.7,4.2l-0.1,0.1l-0.1-0.1l-0.1,0c0,0,0,0.1,0,0.1l0,0l-0.1-0.1c0,0,0,0,0,0
					c0,0,0.2,0,0.2,0l0-0.1c0,0,0,0,0,0c0,0,0.1,0,0.1,0l0,0v0.1L16.7,4.2L16.7,4.2z"/>
				<g class="st5">
					<path class="st11" d="M16.4,4.3L16.4,4.3l-0.1-0.1l0,0l0.2,0l0,0l0,0c0,0,0,0,0,0c0,0,0,0,0.1,0h0.1l-0.1,0.1l0,0.1l0.2,0
						l-0.1,0.1l0,0L16.4,4.3L16.4,4.3C16.5,4.2,16.4,4.3,16.4,4.3L16.4,4.3L16.4,4.3z M16.5,4.2l-0.2,0L16.5,4.2
						C16.4,4.3,16.4,4.2,16.5,4.2L16.5,4.2L16.5,4.2L16.5,4.2z"/>
				</g>
				<path class="st14" d="M16.4,4.2L16.4,4.2C16.4,4.2,16.4,4.2,16.4,4.2L16.4,4.2C16.4,4.2,16.4,4.2,16.4,4.2L16.4,4.2
					C16.4,4.2,16.4,4.2,16.4,4.2L16.4,4.2C16.4,4.2,16.4,4.2,16.4,4.2L16.4,4.2z"/>
				<path class="st14" d="M16.6,4.2L16.6,4.2C16.6,4.2,16.6,4.2,16.6,4.2L16.6,4.2C16.6,4.2,16.6,4.2,16.6,4.2L16.6,4.2
					C16.6,4.2,16.5,4.2,16.6,4.2L16.6,4.2C16.5,4.2,16.6,4.2,16.6,4.2L16.6,4.2z"/>
				<g class="st5">
					<path class="st11" d="M16.3,4.1L16.3,4.1L16.3,4.1c0,0,0.1-0.1,0.1-0.1c0.1,0,0.1,0,0.2,0c-0.1,0-0.1,0-0.2,0
						C16.4,4.1,16.4,4.1,16.3,4.1L16.3,4.1z"/>
				</g>
				<polygon class="st13" points="16.3,4 16.3,4 16.2,3.9 16.3,3.9 16.3,3.9 				"/>
				<g class="st5">
					<polygon class="st11" points="16.4,4 16.3,4 16.2,3.9 16.3,3.9 16.4,4 					"/>
				</g>
				<polygon class="st13" points="16.6,3.9 16.7,3.9 16.7,3.9 16.6,3.9 16.6,3.9 				"/>
				<g class="st5">
					<polygon class="st12" points="16.6,3.9 16.7,3.9 16.7,3.9 16.6,3.9 16.6,3.9 					"/>
				</g>
				<polygon class="st13" points="16.5,4 16.4,4 16.4,3.9 16.4,3.9 16.4,3.9 16.5,3.9 16.5,3.9 16.5,3.9 				"/>
				<g class="st5">
					<polygon class="st11" points="16.4,4 16.4,3.9 16.4,3.9 16.4,3.9 16.5,3.9 16.5,3.9 16.5,3.9 16.6,4 16.5,4 16.4,4 					"/>
				</g>
				<polygon class="st13" points="16.5,3.9 16.5,3.9 16.5,3.9 				"/>
				<g class="st5">
					<polygon class="st12" points="16.5,3.9 16.5,3.9 16.5,3.9 					"/>
				</g>
				<polygon class="st13" points="16.4,3.9 16.4,3.9 16.4,3.9 				"/>
				<g class="st5">
					<polygon class="st12" points="16.4,3.9 16.4,3.9 16.4,3.9 					"/>
				</g>
				<polygon class="st13" points="16.1,4.4 16.2,4.3 16.1,4.3 16.1,4.4 				"/>
				<g class="st5">
					<polygon class="st12" points="16.1,4.4 16.2,4.3 16.1,4.3 16.1,4.4 					"/>
				</g>
				<polygon class="st13" points="16.2,4.4 16.2,4.4 16.2,4.4 				"/>
				<g class="st5">
					<polygon class="st11" points="16.2,4.5 16.2,4.4 16.2,4.4 16.2,4.4 16.2,4.4 16.2,4.4 16.2,4.4 16.2,4.5 					"/>
				</g>
				<path class="st15" d="M17.7,5.8l0.2-2.1L19,3.1L19.8,4l-0.6,2C18.7,5.9,18.4,5.8,17.7,5.8L17.7,5.8z"/>
				<g class="st5">
					<path class="st16" d="M19.3,6L19.3,6c-0.5-0.1-0.9-0.2-1.6-0.2l0.2-2.1L19,3.1L19.8,4L19.3,6L19.3,6z M19,3.1l-1.1,0.6l-0.2,2
						c0.7,0,1,0.1,1.5,0.2l0.6-2L19,3.1L19,3.1z"/>
				</g>
				<path class="st10" d="M16.7,4.8L16.7,4.8l-0.1,0.1l-0.1,0l0,0.1l0,0c0,0,0,0.1,0,0.1l0,0l0,0.1l0,0l0,0.1l0.1,0l0.1,0v0h0.1
					l0.1,0l0.2,0l0,0v0l0.1,0l0-0.1h0l0-0.1l0,0l0,0l0,0l0-0.1l-0.1-0.1l0-0.1l-0.1,0l0-0.1l0.1-0.1l0,0h-0.1l0,0l-0.1,0v0l0,0H17
					V4.7l-0.1,0c0,0-0.1,0-0.1,0.1c0,0,0,0.1,0,0.1l0,0l0-0.1l-0.1,0h0v0L16.7,4.8L16.7,4.8z"/>
				<g class="st5">
					<path class="st11" d="M16.9,5.4l-0.1,0l0,0l-0.1,0l-0.1,0l0-0.1l0,0l0-0.1l0-0.1l0-0.1l0.1,0l0-0.1l0.1,0l0,0l-0.1-0.1l0-0.1
						l0,0l0,0l0.1,0l0,0.1l0-0.1c0,0,0,0,0.1-0.1l0.1,0l0,0.1l0,0l0,0c0,0,0,0,0.1-0.1l0,0l0.1,0h0l0,0l-0.1,0.1l0,0.1c0,0,0,0,0,0
						l0,0.1L17.3,5l0,0.1l-0.1,0l0,0.1l-0.1,0l0,0.1l-0.1,0l0,0l0,0L16.9,5.4L16.9,5.4z M16.9,5.4L16.9,5.4l0.2,0l0,0v0l0.1,0l0-0.1
						l0.1,0l0-0.1l0.1,0L17.3,5l0-0.1l-0.1-0.1l0-0.1c0,0,0,0,0,0l0-0.1l0.1-0.1l0,0l0,0c0,0-0.1,0-0.1,0c0,0,0,0,0,0.1l-0.1,0
						l0-0.1l-0.1,0c0,0,0,0-0.1,0c0,0,0,0.1,0,0.1v0l0,0l-0.1-0.1l-0.1,0l0,0l0.1,0.1l0,0.1l-0.1,0l0,0.1l-0.1,0l0,0.1
						c0,0,0,0,0,0.1c0,0,0,0,0,0l0,0.1l0,0l0,0.1l0.1,0L16.9,5.4L16.9,5.4L16.9,5.4L16.9,5.4z"/>
				</g>
				<g class="st5">
					<path class="st12" d="M17.2,5.2L17.2,5.2L17.2,5.2z"/>
				</g>
				<g class="st5">
					<path class="st12" d="M17.3,5.1L17.3,5.1L17.3,5.1z"/>
				</g>
				<polygon class="st13" points="16.6,5.1 16.7,5.1 16.7,5.1 16.7,5.2 16.7,5.3 16.7,5.3 16.7,5.2 16.8,5.2 16.8,5.3 16.8,5.3 
					16.8,5.4 16.9,5.4 16.9,5.3 16.9,5.3 17,5.4 17,5.3 17,5.3 17,5.4 17.1,5.4 17.1,5.3 17,5.3 17.1,5.2 17.1,5.3 17.2,5.3 
					17.1,5.2 17.1,5.1 17.2,5 17.3,5 17.3,5 17.2,4.9 17.2,4.8 17.1,4.8 17.1,4.8 17.1,4.8 17.1,4.9 17.1,4.9 17.1,4.9 17.1,5.1 
					17.1,5.1 17.1,5.1 17,5.2 17,5.2 17,5.3 16.9,5.3 16.9,5.2 16.9,5.2 16.9,5.2 16.9,5.1 16.8,5.1 16.8,5.1 16.8,5.1 16.8,5 
					16.7,5 16.7,4.9 16.8,4.9 16.8,4.9 16.8,4.9 16.8,4.9 16.8,4.8 16.7,4.8 16.7,4.9 16.7,4.9 16.6,5 16.6,5 				"/>
				<g class="st5">
					<path class="st11" d="M16.8,5.4L16.8,5.4l0-0.1l0,0L16.8,5.4L16.8,5.4L16.8,5.4l-0.1-0.2l0-0.1l-0.1,0l0,0l0-0.1l0.1,0
						c0,0,0-0.1,0-0.1c0,0,0.1,0,0.1,0c0,0,0.1,0,0.1,0l0,0.1l0,0l0,0c0,0,0,0,0,0c0,0,0,0,0,0c0,0,0,0,0,0.1l-0.1,0l0,0.1l0.1,0
						l0,0.1l0,0.2v0l0.1,0L16.8,5.4L16.8,5.4l0.1,0L16.8,5.4L16.8,5.4L16.8,5.4z M17,5.4C17,5.3,17,5.3,17,5.4L17,5.4l-0.1,0l0,0
						L17,5.4L17,5.4L17,5.4L17,5.4L17,5.4C17,5.3,17,5.3,17,5.4C17,5.3,17,5.4,17,5.4L17,5.4L17,5.4l0-0.1l0.1-0.1l0,0c0,0,0,0,0,0
						V5.1l0,0c0,0,0,0,0,0c0,0,0,0.1,0,0.1l0,0c0,0.1,0,0.1,0,0.1C17,5.3,17,5.3,17,5.4l-0.1-0.1c-0.1,0-0.1,0-0.1-0.1l0,0
						c0,0,0,0,0-0.1l0,0l0,0l0,0l0,0c0,0,0,0,0-0.1v0l0.1,0l0,0l0,0l-0.1,0c0,0,0,0.1,0,0.1c0,0,0,0,0,0l0,0l0,0l0,0
						c0,0,0,0.1,0,0.1c0,0,0,0.1,0,0.1c0,0,0,0,0,0l0,0c0,0,0,0,0,0c0,0,0-0.1,0-0.1l0,0V5.1c0,0,0,0,0.1,0l0-0.2l0-0.1l0.1,0l0.1,0
						l0,0.1L17.3,5v0l-0.1,0l0,0.1l0,0.1l0,0c0,0,0,0,0,0l0,0l0-0.1l-0.1,0L17,5.4L17,5.4L17,5.4z M17.1,4.8L17.1,4.8L17.1,4.8
						l0,0.2l0,0l0.1,0l-0.1-0.1L17.1,4.8L17.1,4.8L17.1,4.8z"/>
				</g>
				<path class="st14" d="M16.9,5.2L16.9,5.2L16.9,5.2L16.9,5.2L16.9,5.2L16.9,5.2L16.9,5.2L16.9,5.2C17,5.1,17,5.1,16.9,5.2
					C17,5.1,16.9,5.1,16.9,5.2L16.9,5.2l0.1,0c0,0,0,0,0,0C17,5.2,16.9,5.2,16.9,5.2L16.9,5.2L16.9,5.2z"/>
				<g class="st5">
					<path class="st11" d="M16.9,5.2L16.9,5.2L16.9,5.2l0-0.1l0,0v0l0,0l0,0L16.9,5.2L16.9,5.2C17,5.2,17,5.2,17,5.2
						C17,5.2,17,5.2,16.9,5.2L16.9,5.2L16.9,5.2z"/>
				</g>
				<path class="st13" d="M17.1,4.9L17.1,4.9L17.1,4.9L17,5L17,5h-0.1l0,0.1l0,0L16.8,5c0,0,0,0,0,0c0,0,0.2,0,0.2,0V4.9
					c0,0,0,0,0,0c0,0,0.1,0,0.1,0l0,0v0.1L17.1,4.9L17.1,4.9z"/>
				<g class="st5">
					<path class="st11" d="M16.9,5.1L16.9,5.1L16.8,5l0,0l0.2,0l0,0l0,0c0,0,0,0,0,0c0,0,0,0,0.1,0H17l-0.1,0.1l0,0l0.2,0L17,5l0,0
						L16.9,5.1L16.9,5.1C16.9,5,16.9,5,16.9,5.1L16.9,5.1L16.9,5.1z M16.9,4.9l-0.2,0L16.9,4.9C16.9,5,16.9,5,16.9,4.9L16.9,4.9
						L16.9,4.9L16.9,4.9z"/>
				</g>
				<path class="st14" d="M16.8,5L16.8,5C16.9,5,16.9,5,16.8,5L16.8,5C16.9,5,16.9,5,16.8,5L16.8,5C16.8,5,16.8,5,16.8,5L16.8,5
					C16.8,5,16.8,5,16.8,5L16.8,5z"/>
				<path class="st14" d="M17,5L17,5C17,5,17,5,17,5L17,5C17,5,17,5,17,5L17,5C17,5,17,5,17,5L17,5C17,5,17,5,17,5L17,5z"/>
				<g class="st5">
					<path class="st11" d="M16.8,4.9L16.8,4.9L16.8,4.9c0-0.1,0.1-0.1,0.1-0.1c0.1,0,0.1,0,0.2,0c-0.1,0-0.1,0-0.2,0
						C16.9,4.8,16.8,4.8,16.8,4.9L16.8,4.9z"/>
				</g>
				<polygon class="st13" points="16.8,4.7 16.7,4.7 16.7,4.7 16.7,4.7 16.8,4.7 				"/>
				<g class="st5">
					<polygon class="st11" points="16.8,4.7 16.7,4.7 16.6,4.6 16.8,4.7 16.8,4.7 					"/>
				</g>
				<polygon class="st13" points="17.1,4.7 17.2,4.6 17.1,4.6 17.1,4.7 17,4.7 				"/>
				<g class="st5">
					<polygon class="st12" points="17.1,4.7 17.2,4.6 17.1,4.6 17.1,4.7 17,4.7 					"/>
				</g>
				<polygon class="st13" points="17,4.7 16.8,4.7 16.8,4.7 16.9,4.7 16.9,4.7 16.9,4.7 16.9,4.7 17,4.7 				"/>
				<g class="st5">
					<polygon class="st11" points="16.8,4.7 16.8,4.7 16.9,4.7 16.9,4.7 16.9,4.7 16.9,4.7 17,4.7 17,4.7 17,4.7 16.8,4.7 					"/>
				</g>
				<polygon class="st13" points="17,4.7 16.9,4.7 16.9,4.6 				"/>
				<g class="st5">
					<polygon class="st12" points="17,4.7 16.9,4.7 16.9,4.6 					"/>
				</g>
				<polygon class="st13" points="16.9,4.6 16.9,4.7 16.8,4.7 				"/>
				<g class="st5">
					<polygon class="st12" points="16.9,4.6 16.9,4.7 16.8,4.7 					"/>
				</g>
				<polygon class="st13" points="16.6,5.2 16.6,5.1 16.6,5.1 16.6,5.1 				"/>
				<g class="st5">
					<polygon class="st12" points="16.6,5.2 16.6,5.1 16.6,5.1 16.6,5.1 					"/>
				</g>
				<polygon class="st13" points="16.6,5.2 16.7,5.1 16.6,5.2 				"/>
				<g class="st5">
					<polygon class="st11" points="16.7,5.2 16.6,5.2 16.7,5.1 16.6,5.2 16.6,5.2 16.6,5.2 16.7,5.1 16.7,5.2 					"/>
				</g>
				<path class="st17" d="M18,5.4L18,5.4l-0.1,0.1h0.1c0,0,0,0,0.1,0c0,0,0,0,0-0.1L18,5.4z"/>
				<g class="st5">
					<path class="st18" d="M17.9,5.5L17.9,5.5L18,5.4l0.1,0l0,0.1l0,0c0,0,0,0-0.1,0H17.9L17.9,5.5z"/>
				</g>
				<path class="st17" d="M18.3,5.6L18.3,5.6L18.3,5.6L18.3,5.6C18.3,5.6,18.3,5.6,18.3,5.6c0.1,0.1,0.1,0.1,0.1,0L18.3,5.6z"/>
				<g class="st5">
					<path class="st18" d="M18.3,5.7l-0.1,0l0-0.1l0.1,0L18.3,5.7L18.3,5.7L18.3,5.7C18.4,5.6,18.3,5.6,18.3,5.7L18.3,5.7L18.3,5.7z
						"/>
				</g>
				<path class="st17" d="M18.7,5.4L18.7,5.4L18.7,5.4L18.7,5.4C18.8,5.5,18.8,5.5,18.7,5.4c0.1,0.1,0.1,0.1,0.1,0L18.7,5.4z"/>
				<g class="st5">
					<path class="st18" d="M18.8,5.5l-0.1,0l0,0l0.1-0.1L18.8,5.5L18.8,5.5L18.8,5.5C18.8,5.5,18.8,5.5,18.8,5.5L18.8,5.5L18.8,5.5z
						"/>
				</g>
				<path class="st17" d="M19,5.5L19,5.5L19,5.6l0.1,0c0,0,0,0,0.1,0c0,0,0,0,0,0L19,5.5z"/>
				<g class="st5">
					<path class="st18" d="M19.1,5.6l-0.1,0l0-0.1L19,5.5L19.1,5.6L19.1,5.6C19.1,5.6,19.1,5.6,19.1,5.6L19.1,5.6L19.1,5.6z"/>
				</g>
				<path class="st17" d="M18.3,4.2l0.2,0.1c0,0,0.1,0,0.2,0c0.1,0,0.1,0,0.1,0.1c0.1,0,0.2,0,0.3,0c0.1,0,0.2-0.1,0.2-0.1v0h0
					c-0.1,0-0.2,0-0.2,0c-0.1,0-0.1,0-0.2-0.1l0,0c0.1,0,0.2,0,0.2,0c0.1,0,0.1,0,0.1-0.1v0h0c-0.1,0-0.1,0-0.2,0
					c-0.1,0-0.1,0-0.2,0c-0.1,0-0.1,0-0.1,0c-0.1,0-0.2,0-0.2,0C18.3,4.1,18.3,4.1,18.3,4.2L18.3,4.2z"/>
				<g class="st5">
					<path class="st19" d="M19,4.4c-0.1,0-0.2,0-0.2,0c0,0-0.1,0-0.1,0c0,0,0,0-0.1,0c-0.1,0-0.1,0-0.2,0l-0.2-0.1
						c0-0.1,0.1-0.1,0.1-0.1c0.1,0,0.2,0,0.2,0c0,0,0,0,0.1,0c0,0,0,0,0,0c0,0,0.1,0,0.1,0c0,0,0.1,0,0.1,0c0.1,0,0.1,0,0.2,0v0l0,0
						l0,0l0,0v0c0,0,0,0,0,0l0,0c0,0,0,0-0.1,0c0,0-0.1,0-0.1,0h0l0,0c0.1,0,0.1,0,0.1,0c0,0,0.1,0,0.1,0l0,0c-0.1,0-0.1,0-0.2,0
						c0,0-0.1,0-0.1,0c0,0-0.1,0-0.1,0c0,0,0,0-0.1,0c0,0,0,0,0,0c-0.1,0-0.2,0-0.2,0c-0.1,0-0.1,0-0.1,0.1l0.2,0.1c0,0,0.1,0,0.2,0
						c0,0,0.1,0,0.1,0c0,0,0,0,0.1,0C18.9,4.4,19,4.4,19,4.4c0.1,0,0.2-0.1,0.2-0.1l0,0C19.2,4.3,19.1,4.3,19,4.4
						c0-0.1-0.1-0.1-0.1-0.1c0,0-0.1,0-0.1,0l0,0c0,0,0.1,0,0.1,0c0,0,0.1,0,0.1,0c0.1,0,0.2,0,0.2,0h0l0,0.1
						C19.2,4.4,19.1,4.4,19,4.4C19.1,4.4,19,4.4,19,4.4L19,4.4z"/>
				</g>
				<path class="st20" d="M18.3,4.1C18.3,4.2,18.3,4.2,18.3,4.1C18.4,4.2,18.4,4.2,18.3,4.1C18.4,4.2,18.4,4.2,18.3,4.1
					C18.4,4.1,18.3,4.1,18.3,4.1L18.3,4.1z"/>
				<g class="st5">
					<path class="st12" d="M18.3,4.1C18.3,4.2,18.3,4.2,18.3,4.1C18.4,4.2,18.4,4.2,18.3,4.1C18.4,4.2,18.4,4.2,18.3,4.1
						C18.4,4.1,18.3,4.1,18.3,4.1L18.3,4.1z"/>
				</g>
				<path class="st20" d="M18.5,4.3C18.5,4.3,18.5,4.3,18.5,4.3C18.5,4.2,18.4,4.2,18.5,4.3C18.5,4.2,18.5,4.2,18.5,4.3
					C18.5,4.2,18.5,4.3,18.5,4.3L18.5,4.3z"/>
				<g class="st5">
					<path class="st12" d="M18.5,4.3C18.5,4.3,18.5,4.3,18.5,4.3C18.5,4.2,18.4,4.2,18.5,4.3C18.5,4.2,18.5,4.2,18.5,4.3
						C18.5,4.2,18.5,4.3,18.5,4.3L18.5,4.3z"/>
				</g>
				<path class="st20" d="M18.5,4.1C18.5,4.1,18.5,4.1,18.5,4.1c0,0.1,0,0.1,0,0.1C18.5,4.2,18.6,4.1,18.5,4.1
					C18.5,4.1,18.5,4.1,18.5,4.1L18.5,4.1z"/>
				<g class="st5">
					<path class="st12" d="M18.5,4.1C18.5,4.1,18.5,4.1,18.5,4.1c0,0.1,0,0.1,0,0.1C18.5,4.2,18.6,4.1,18.5,4.1
						C18.5,4.1,18.5,4.1,18.5,4.1L18.5,4.1z"/>
				</g>
				<polygon class="st20" points="18.7,4.1 18.7,4.2 18.7,4.1 				"/>
				<g class="st5">
					<polygon class="st12" points="18.7,4.1 18.7,4.2 18.7,4.1 					"/>
				</g>
				<path class="st20" d="M18.7,4.3C18.7,4.3,18.7,4.3,18.7,4.3C18.6,4.2,18.6,4.2,18.7,4.3C18.7,4.2,18.7,4.2,18.7,4.3
					C18.7,4.3,18.7,4.3,18.7,4.3L18.7,4.3z"/>
				<g class="st5">
					<path class="st12" d="M18.7,4.3C18.7,4.3,18.7,4.3,18.7,4.3C18.6,4.2,18.6,4.2,18.7,4.3C18.7,4.2,18.7,4.2,18.7,4.3
						C18.7,4.3,18.7,4.3,18.7,4.3z"/>
				</g>
				<path class="st20" d="M18.8,4.3C18.8,4.3,18.8,4.3,18.8,4.3C18.8,4.3,18.8,4.3,18.8,4.3C18.8,4.3,18.8,4.3,18.8,4.3
					C18.8,4.3,18.8,4.3,18.8,4.3L18.8,4.3z"/>
				<g class="st5">
					<path class="st12" d="M18.8,4.3C18.8,4.3,18.8,4.3,18.8,4.3C18.8,4.3,18.8,4.3,18.8,4.3C18.8,4.3,18.8,4.3,18.8,4.3
						C18.8,4.3,18.8,4.3,18.8,4.3z"/>
				</g>
				<path class="st20" d="M18.9,4.2C18.8,4.2,18.8,4.2,18.9,4.2C18.8,4.1,18.8,4.1,18.9,4.2C18.9,4.2,18.9,4.2,18.9,4.2L18.9,4.2z"
					/>
				<g class="st5">
					<path class="st12" d="M18.9,4.2C18.8,4.2,18.8,4.2,18.9,4.2C18.8,4.1,18.8,4.1,18.9,4.2C18.9,4.2,18.9,4.2,18.9,4.2z"/>
				</g>
				<polygon class="st20" points="19,4.2 19,4.2 19,4.2 19,4.2 19,4.2 				"/>
				<g class="st5">
					<polygon class="st12" points="19,4.2 19,4.2 19,4.2 19,4.2 					"/>
				</g>
				<path class="st20" d="M19,4.3C19,4.3,19,4.3,19,4.3C19,4.4,19,4.4,19,4.3L19,4.3C19,4.4,19,4.4,19,4.3C19,4.3,19,4.3,19,4.3
					L19,4.3z"/>
				<g class="st5">
					<path class="st21" d="M19,4.4L19,4.4L19,4.4L19,4.4C19,4.3,19,4.3,19,4.4L19,4.4L19,4.4C19,4.4,19,4.4,19,4.4L19,4.4L19,4.4
						C19,4.4,19,4.4,19,4.4L19,4.4C19,4.3,19,4.3,19,4.4C19,4.4,19,4.4,19,4.4L19,4.4L19,4.4z"/>
				</g>
				<polygon class="st20" points="19.1,4.3 19.1,4.4 19.1,4.4 19.1,4.3 				"/>
				<g class="st5">
					<polygon class="st12" points="19.1,4.3 19.1,4.4 19.1,4.4 19.1,4.3 					"/>
				</g>
				<path class="st10" d="M18.2,4.2C18.2,4.2,18.2,4.2,18.2,4.2l-0.2,0c0,0,0,0,0,0.1c0,0,0.1,0.1,0.1,0.1c0,0,0,0.1,0,0.1
					c0,0,0,0.1-0.1,0.1c0,0,0,0.1,0,0.1c0,0,0.1,0,0.1,0c0,0,0,0,0,0.1c0,0,0,0,0,0c0,0,0,0,0,0c0,0,0,0,0.1,0c0,0,0,0,0,0
					c0,0-0.1,0.1-0.1,0.1c0,0,0,0.1,0,0.1c0,0,0,0,0,0.1c0,0,0,0,0,0c0,0,0,0.1,0,0.1c0,0,0,0.1,0,0.1c0,0,0,0-0.1,0.1
					c0,0-0.1,0.1-0.1,0.1l0.1,0c0,0,0,0,0,0c0,0,0,0,0-0.1c0,0,0.1-0.1,0.1-0.2c0,0,0,0,0.1,0c0,0,0,0,0.1,0c0,0,0,0.1,0,0.1v0.1
					c0,0,0,0-0.1,0.1l0.1,0c0,0,0.1,0,0.1-0.1l0-0.1c0-0.1,0.1-0.1,0.1-0.2c0,0,0,0,0.1,0c0,0,0,0,0,0c0,0,0,0,0,0c0,0,0,0,0.1,0
					c0,0,0,0,0,0c0,0,0.1,0,0.1,0l-0.1,0.1c0,0,0,0,0,0c0,0,0,0,0,0l0.1,0l0,0c0,0,0,0,0.1,0c0,0,0,0,0-0.1c0,0,0.1-0.1,0.1-0.1
					c0,0,0.1,0,0.1,0.1c0,0,0,0.1,0,0.1L19,5.5l0,0l0.1,0l0.1-0.1V5.4c0-0.1,0.1-0.1,0.1-0.1c0,0,0-0.1,0-0.1c0,0,0,0,0,0
					c0,0,0-0.1,0-0.1c0,0,0,0,0,0c0,0,0-0.1,0-0.1c0,0,0.1-0.1,0.1-0.1l0-0.1c0,0,0,0,0,0c0,0,0,0,0,0l0,0V4.6c0,0,0,0,0,0
					c0,0,0,0,0,0l-0.1,0c0,0-0.1,0-0.1,0h-0.1c0,0-0.1,0-0.1,0h0c0,0,0,0-0.1,0c0,0,0,0-0.1,0c-0.1,0-0.1,0-0.1,0c0,0,0,0-0.1,0l0,0
					c-0.1,0-0.1-0.1-0.1-0.2c0.1,0,0.2-0.1,0.2-0.1l-0.2,0L18.2,4.2z"/>
				<g class="st5">
					<path class="st22" d="M18.4,5.6l-0.1,0c0-0.1,0-0.1,0-0.1l0-0.2c0,0,0-0.1,0-0.1l0,0c0,0,0,0-0.1,0c0,0-0.1,0.1-0.1,0.1
						c0,0,0,0,0,0.1l0,0l-0.1,0c0-0.1,0-0.1,0-0.1l0-0.1c0,0,0,0,0-0.1c0,0,0,0,0,0.1c0,0,0,0.1,0,0.1c0,0,0,0,0,0.1l0.1,0l0,0
						c0,0,0,0,0-0.1c0,0,0.1-0.1,0.1-0.2c0.1,0,0.1,0,0.1,0c0,0,0,0,0,0.1c0,0,0,0,0,0.1v0.1c0,0,0,0.1-0.1,0.1L18.4,5.6
						C18.4,5.5,18.4,5.5,18.4,5.6l0.1-0.2c0,0,0-0.1,0.1-0.1c0,0,0.1-0.1,0.1-0.1h0l0,0l0,0l-0.1,0c0,0,0,0.1-0.1,0.1
						c0,0,0,0.1,0,0.1L18.4,5.6C18.4,5.5,18.4,5.6,18.4,5.6L18.4,5.6L18.4,5.6z M19.1,5.6l-0.1,0l0.1-0.1c0,0,0-0.1,0-0.1
						c0,0,0,0-0.1-0.1c0,0-0.1,0.1-0.1,0.1l0,0.1c0,0,0,0,0,0l0,0l-0.1,0l0,0l0,0l0.1,0l0,0c0,0,0,0,0.1,0l0-0.1
						c0,0,0.1-0.1,0.1-0.1c0,0,0.1,0,0.1,0.1c0,0.1,0,0.1,0,0.2L19.1,5.6L19.1,5.6L19.1,5.6l0.1-0.1c0-0.1,0.1-0.1,0.1-0.1
						c0-0.1,0-0.1,0-0.1c0,0,0-0.1,0-0.1c0,0,0-0.1,0-0.1c0,0,0-0.1,0.1-0.1c0,0,0,0,0,0l0,0c0,0,0-0.1,0-0.1l0-0.1h0l-0.1,0l-0.1,0
						c0,0-0.1,0-0.1,0h-0.1c0,0-0.1,0-0.1,0l0,0c0,0,0,0-0.1,0l-0.1,0v0c-0.1,0-0.1,0-0.1,0h0c0,0,0,0-0.1,0l0,0
						c-0.1,0-0.1-0.1-0.1-0.2c0.1,0,0.2-0.1,0.2-0.1l-0.2,0l-0.2-0.1c0,0,0,0-0.1,0l0,0c0,0,0,0,0.1-0.1l0.2,0.2l0.2,0
						c0,0.1-0.1,0.1-0.2,0.2c0,0.1,0.1,0.1,0.1,0.1l0,0c0.1,0,0.1,0,0.1,0c0,0,0.1,0,0.1,0l0.1,0c0,0,0,0,0,0l0.1,0c0,0,0.1,0,0.1,0
						h0.1c0.1,0,0.1,0,0.1,0l0.1,0c0,0,0,0,0,0c0,0,0,0,0,0l0,0.1l0,0.1l0,0.1c0,0,0,0,0,0c0,0,0,0.1,0,0.1c0,0,0,0.1,0,0.1
						c0,0,0,0.1,0,0.1c0,0,0,0,0,0.1c-0.1,0.1-0.1,0.1-0.1,0.1L19.1,5.6L19.1,5.6L19.1,5.6z M18.7,5.4L18.7,5.4L18.7,5.4l0.1-0.2
						c0,0,0,0-0.1,0l0,0c0,0-0.1,0-0.1,0l0,0c0,0,0,0,0.1,0l0,0c0,0,0.1,0,0.1,0L18.7,5.4L18.7,5.4z M18.1,5.2
						C18.1,5.1,18.1,5.1,18.1,5.2c0-0.1,0-0.2,0-0.2c0,0,0,0,0,0c0,0,0,0,0,0c0,0,0,0,0,0l0,0l0,0c0,0,0,0.1,0,0.1
						C18.1,5.1,18.1,5.1,18.1,5.2C18.1,5.2,18.1,5.2,18.1,5.2L18.1,5.2z M18.1,4.9C18.1,4.9,18.1,4.8,18.1,4.9c0-0.1,0-0.1,0.1-0.1
						l0.1-0.1c0,0,0,0-0.1,0l0,0v0l0,0l0,0C18.1,4.8,18.1,4.8,18.1,4.9C18.1,4.8,18.1,4.9,18.1,4.9L18.1,4.9z M18.2,4.7L18.2,4.7
						C18.1,4.6,18.1,4.6,18.2,4.7C18.1,4.6,18.1,4.6,18.2,4.7c-0.1-0.1-0.1-0.1-0.1-0.1c-0.1,0-0.1-0.1,0-0.1c0,0,0,0,0,0
						c0,0,0,0,0-0.1c0,0,0-0.1,0-0.1c0,0-0.1-0.1-0.1-0.1c0,0,0-0.1,0-0.1l0.1,0l-0.1,0c0,0,0,0,0,0.1c0,0,0.1,0.1,0.1,0.1
						c0,0,0,0.1,0,0.1c0,0,0,0,0,0.1c0,0,0,0,0,0c0,0,0,0,0,0.1C18.1,4.6,18.1,4.6,18.2,4.7C18.1,4.6,18.1,4.6,18.2,4.7L18.2,4.7
						L18.2,4.7z"/>
				</g>
				<path class="st23" d="M18.2,4.4L18.2,4.4C18.2,4.4,18.2,4.4,18.2,4.4C18.3,4.4,18.3,4.4,18.2,4.4h0.1
					C18.3,4.4,18.3,4.4,18.2,4.4C18.2,4.4,18.2,4.4,18.2,4.4L18.2,4.4z"/>
				<g class="st5">
					<path class="st24" d="M18.3,4.4L18.3,4.4C18.2,4.4,18.2,4.4,18.3,4.4L18.3,4.4L18.3,4.4C18.2,4.4,18.2,4.4,18.3,4.4L18.3,4.4
						L18.3,4.4L18.3,4.4L18.3,4.4L18.3,4.4L18.3,4.4L18.3,4.4L18.3,4.4L18.3,4.4L18.3,4.4L18.3,4.4z"/>
				</g>
				<path class="st13" d="M18.3,4.9C18.3,4.9,18.3,4.9,18.3,4.9c0-0.1,0-0.1,0-0.1C18.2,4.8,18.3,4.9,18.3,4.9L18.3,4.9z"/>
				<g class="st5">
					<path class="st12" d="M18.3,4.9C18.3,4.9,18.3,4.9,18.3,4.9c0-0.1,0-0.1,0-0.1C18.2,4.8,18.3,4.9,18.3,4.9z"/>
				</g>
				<path class="st13" d="M18.5,4.9C18.5,4.9,18.6,4.9,18.5,4.9C18.6,4.9,18.6,4.9,18.5,4.9c0-0.1,0-0.1,0-0.1c0,0,0,0,0,0
					C18.5,4.8,18.5,4.9,18.5,4.9L18.5,4.9z"/>
				<g class="st5">
					<path class="st12" d="M18.5,4.9C18.5,4.9,18.6,4.9,18.5,4.9C18.6,4.9,18.6,4.9,18.5,4.9c0-0.1,0-0.1,0-0.1c0,0,0,0,0,0
						C18.5,4.8,18.5,4.9,18.5,4.9z"/>
				</g>
				<path class="st13" d="M18.7,4.9C18.7,4.9,18.7,4.9,18.7,4.9c0,0-0.1-0.1,0-0.1C18.6,4.8,18.7,4.8,18.7,4.9
					C18.7,4.8,18.7,4.9,18.7,4.9L18.7,4.9z"/>
				<g class="st5">
					<path class="st12" d="M18.7,4.9C18.7,4.9,18.7,4.9,18.7,4.9c0,0-0.1-0.1,0-0.1C18.6,4.8,18.7,4.8,18.7,4.9
						C18.7,4.8,18.7,4.9,18.7,4.9z"/>
				</g>
				<path class="st13" d="M18.7,5.1C18.7,5.1,18.7,5.1,18.7,5.1C18.7,5.1,18.7,5,18.7,5.1c0.1-0.1,0.1-0.2,0.1-0.2
					C18.8,4.9,18.7,5,18.7,5.1C18.7,5.1,18.7,5.1,18.7,5.1L18.7,5.1z"/>
				<g class="st5">
					<path class="st11" d="M18.7,5.1L18.7,5.1c0,0,0,0,0-0.1l0-0.1c0,0,0,0,0,0L18.7,5.1C18.7,5.1,18.7,5.1,18.7,5.1L18.7,5.1
						L18.7,5.1L18.7,5.1C18.7,5,18.7,5,18.7,5C18.8,5,18.7,5,18.7,5.1L18.7,5.1L18.7,5.1z"/>
				</g>
				<path class="st13" d="M18.8,5.1C18.8,5.1,18.8,5,18.8,5.1c0-0.1,0-0.1,0-0.2C18.8,4.9,18.8,5,18.8,5.1L18.8,5.1z"/>
				<g class="st5">
					<path class="st11" d="M18.8,5.1L18.8,5.1C18.8,5.1,18.8,5.1,18.8,5.1l0-0.2C18.9,4.9,18.8,5,18.8,5.1L18.8,5.1L18.8,5.1z"/>
				</g>
				<path class="st13" d="M18.9,4.8c0,0-0.1-0.1-0.1-0.1C18.8,4.7,18.9,4.8,18.9,4.8C18.9,4.8,18.9,4.8,18.9,4.8L18.9,4.8z"/>
				<g class="st5">
					<path class="st12" d="M18.9,4.8c0,0-0.1-0.1-0.1-0.1C18.8,4.7,18.9,4.8,18.9,4.8C18.9,4.8,18.9,4.8,18.9,4.8z"/>
				</g>
				<path class="st13" d="M19,4.9C19,4.9,19,4.9,19,4.9c0-0.1,0-0.1,0-0.2c0,0,0,0,0,0C19,4.8,19,4.9,19,4.9C19,4.9,19,4.9,19,4.9
					L19,4.9z"/>
				<g class="st5">
					<path class="st12" d="M19,4.9C19,4.9,19,4.9,19,4.9c0-0.1,0-0.1,0-0.2c0,0,0,0,0,0C19,4.8,19,4.9,19,4.9C19,4.9,19,4.9,19,4.9z
						"/>
				</g>
				<path class="st13" d="M19.1,4.8C19.1,4.8,19.1,4.9,19.1,4.8C19.2,5,19.2,5,19.2,5c0,0,0,0,0,0c0,0,0.1,0,0.1,0
					c0,0-0.1-0.1-0.1-0.1C19.2,4.9,19.1,4.9,19.1,4.8L19.1,4.8z"/>
				<g class="st5">
					<path class="st11" d="M19.2,5L19.2,5L19.2,5c0-0.1,0-0.1,0-0.1c0,0,0-0.1,0-0.1c0,0,0,0,0,0c0,0,0,0,0,0c0,0,0,0,0,0
						c0,0,0,0,0,0.1C19.2,5,19.2,5,19.2,5L19.2,5L19.2,5z"/>
				</g>
				<path class="st4" d="M19.6,4.7c0.3,0.1,0.6,0.1,0.9,0.2c0.3,0.1,0.6,0.2,0.8,0.3l-0.5,0.9c-0.3-0.1-0.5-0.2-0.8-0.3
					c-0.3-0.1-0.5-0.2-0.8-0.2L19.6,4.7z"/>
				<g class="st5">
					<path class="st9" d="M20.9,6.2L20.9,6.2c-0.2-0.1-0.4-0.2-0.7-0.2l-0.1,0c-0.2-0.1-0.3-0.1-0.5-0.2l-0.2-0.1l0.3-1
						c0.3,0.1,0.6,0.1,0.9,0.2c0.3,0.1,0.6,0.2,0.8,0.3L20.9,6.2L20.9,6.2z M19.6,4.7l-0.3,1l0.2,0.1c0.2,0.1,0.3,0.1,0.5,0.2l0.1,0
						c0.2,0.1,0.4,0.1,0.6,0.2l0.5-0.9c-0.2-0.1-0.5-0.2-0.8-0.3C20.2,4.8,20,4.7,19.6,4.7L19.6,4.7z"/>
				</g>
				<path class="st17" d="M19.6,4.9c0,0,0.4,0.1,0.8,0.2c0.4,0.1,0.8,0.3,0.8,0.3C21.3,5.4,21,6,21,6c-0.3-0.1-0.5-0.2-0.8-0.3
					c-0.3-0.1-0.5-0.2-0.8-0.2L19.6,4.9z"/>
				<g class="st5">
					<path class="st18" d="M21,6L21,6c-0.2-0.1-0.5-0.2-0.8-0.3c-0.2-0.1-0.5-0.2-0.8-0.2l0.2-0.6c0,0,0.4,0.1,0.9,0.2
						c0.3,0.1,0.7,0.3,0.8,0.3c0,0-0.4-0.2-0.8-0.3C20,5,19.6,4.9,19.6,4.9l-0.1,0.6c0.3,0.1,0.5,0.1,0.8,0.2
						C20.5,5.8,20.7,5.9,21,6c0.2-0.5,0.2-0.5,0.3-0.5c0,0,0,0,0,0C21.3,5.4,21.1,5.8,21,6L21,6L21,6z"/>
				</g>
				<path class="st5" d="M19.6,5.2C19.7,5.1,19.7,5.1,19.6,5.2l0.2-0.1l0,0.1c0,0,0.1,0,0.1,0.1c0,0,0.1,0,0.1,0.1l0.3,0
					c0,0,0.1,0,0.1,0c0,0,0.1,0.1,0.1,0.1c0.1,0,0.1,0,0.2,0c0.1,0,0.2,0,0.2,0c0,0,0,0,0,0c0,0,0,0-0.1,0c-0.1,0-0.2-0.1-0.3,0
					c0,0,0.1,0.1,0.1,0.1v0.1l0,0l0,0c0,0,0-0.1,0-0.1c0,0,0,0-0.1,0c-0.1,0-0.1,0-0.1-0.1l0,0c0,0,0,0-0.1,0.1l-0.1,0
					c0,0-0.1,0-0.1,0c0,0,0,0,0,0c0,0,0.1,0,0.1,0c0,0,0.1,0,0.1,0V5.5l0.1,0c0-0.1,0-0.1-0.1-0.1l-0.3,0v0c-0.1,0-0.2,0-0.3,0
					c0,0-0.1,0-0.1,0l0,0c0,0,0,0,0,0c0.1,0,0.1,0,0.2,0c0,0,0,0,0,0c-0.1,0-0.1,0-0.2,0c0,0-0.1,0-0.1,0s0,0,0,0l0.1,0
					c0.1,0,0.1,0,0.2,0v0c0,0,0,0,0,0C19.8,5.2,19.7,5.2,19.6,5.2C19.6,5.2,19.6,5.2,19.6,5.2L19.6,5.2z"/>
				<g class="st5">
					<path d="M20.8,5.8L20.8,5.8c0-0.1,0-0.1,0-0.1c0,0,0,0-0.1,0c0,0-0.1,0-0.1-0.1c0.1,0,0.1,0,0.1,0c0,0,0,0,0.1,0
						C20.8,5.7,20.8,5.8,20.8,5.8L20.8,5.8L20.8,5.8L20.8,5.8l0-0.2c-0.1,0-0.1-0.1-0.1-0.1c0,0,0.1,0,0.1,0c0.1,0,0.1,0,0.2,0
						c0.1,0,0.1,0,0.1,0c-0.1,0-0.2,0-0.2-0.1c-0.1,0-0.1,0-0.2,0c0,0-0.1-0.1-0.1-0.1c0,0-0.1,0-0.1,0l-0.3,0c0,0,0,0-0.1,0
						c0,0,0,0-0.1,0c0,0,0,0-0.1,0c0,0,0,0,0,0l0-0.1l-0.1,0c0,0,0,0-0.1,0.1c0,0,0,0.1,0,0.1c0,0,0.1,0,0.1,0c0,0,0,0,0,0v0
						c0,0-0.1,0-0.2,0l0,0l0,0c0.1,0,0.2,0,0.2,0l0,0c0,0-0.1,0-0.1,0c0,0,0,0,0-0.1v0l0,0c0,0,0,0,0.1-0.1l0.2,0l0,0.1c0,0,0,0,0,0
						c0,0,0,0,0,0c0,0,0,0,0.1,0c0,0,0,0,0.1,0l0.3,0c0,0,0.1,0,0.1,0.1c0,0,0.1,0,0.1,0.1c0.1,0,0.1,0,0.2,0c0.1,0,0.2,0,0.2,0h0
						l0,0c0,0-0.1,0.1-0.2,0.1c-0.1,0-0.1,0-0.2,0c0,0-0.1,0-0.1,0c0,0,0,0.1,0.1,0.1L20.8,5.8L20.8,5.8L20.8,5.8z M20.5,5.6
						L20.5,5.6c-0.2,0-0.2,0-0.2,0c0,0,0,0,0.1,0C20.3,5.6,20.4,5.6,20.5,5.6l-0.1-0.1l0.1,0l-0.1,0L20.5,5.6
						c-0.1-0.1-0.1-0.1-0.2-0.1c0,0,0,0,0,0C20.3,5.6,20.4,5.6,20.5,5.6L20.5,5.6C20.5,5.6,20.5,5.6,20.5,5.6
						C20.5,5.6,20.5,5.6,20.5,5.6C20.5,5.6,20.5,5.6,20.5,5.6L20.5,5.6z M20.5,5.5c0-0.1,0-0.1-0.1-0.1l-0.3,0l0,0c0,0-0.1,0-0.1,0
						c-0.1,0-0.1,0-0.2,0c0,0,0,0-0.1,0c0,0,0,0-0.1,0l-0.1,0c0,0,0,0,0,0l0,0v0c0,0,0,0,0.1,0c0,0,0,0,0.1,0c0,0,0.1,0,0.2,0
						c0,0,0.1,0,0.1,0l0,0l0.3,0C20.5,5.4,20.5,5.4,20.5,5.5L20.5,5.5L20.5,5.5z M19.7,5.4c0.1,0,0.1,0,0.1,0L19.7,5.4L19.7,5.4
						L19.7,5.4c-0.1-0.1-0.1-0.1-0.1-0.1l0,0C19.6,5.3,19.6,5.3,19.7,5.4L19.7,5.4L19.7,5.4l0.1-0.1c0,0,0,0,0,0
						C19.8,5.4,19.8,5.4,19.7,5.4L19.7,5.4z"/>
				</g>
				<path class="st4" d="M20.3,5.5c0,0,0.1,0,0.1,0l0.1,0c0-0.1,0-0.1-0.1-0.1l-0.3,0v0C20.2,5.5,20.2,5.5,20.3,5.5L20.3,5.5z"/>
				<g class="st5">
					<path d="M20.4,5.5L20.4,5.5c-0.1,0-0.1,0-0.1,0c-0.1,0-0.1,0-0.2-0.1l0,0l0.3,0c0.1,0,0.1,0.1,0.1,0.1L20.4,5.5
						c0.1-0.1,0.1-0.1,0-0.1l-0.3,0l0,0c0.1,0,0.1,0,0.1,0.1C20.3,5.5,20.3,5.5,20.4,5.5L20.4,5.5L20.4,5.5L20.4,5.5z"/>
				</g>
				<path class="st15" d="M14.5,6L14,4l0.8-1l1.1,0.6l0.2,2.1C15.5,5.8,15.2,5.9,14.5,6L14.5,6z"/>
				<g class="st5">
					<path class="st16" d="M14.5,6L14.5,6L14,4l0.8-1l1.1,0.6l0.2,2.1C15.5,5.8,15.2,5.9,14.5,6L14.5,6L14.5,6z M14.8,3.1L14,4
						L14.5,6c0.6-0.1,1-0.2,1.6-0.2l-0.2-2L14.8,3.1L14.8,3.1z"/>
				</g>
				<polygon class="st10" points="12.7,4.4 12.9,4.5 12.8,4.8 13.1,4.7 13.3,4.8 13.3,4.6 13.5,4.5 13.3,4.3 13.4,4.1 13.1,4.2 
					12.9,4 12.9,4.3 				"/>
				<g class="st5">
					<path class="st25" d="M13.3,4.8l-0.2-0.2l-0.2,0.1l0-0.3l-0.2-0.1l0.2-0.1c0-0.2,0-0.2,0-0.2c0,0,0.2,0.1,0.2,0.1
						c0,0,0.2-0.1,0.2-0.1l0,0.2l0.2,0.2l-0.2,0.1L13.3,4.8L13.3,4.8z M13.1,4.7l0.2,0.1l0-0.2l0.2-0.1l-0.2-0.1l0-0.2
						c-0.2,0.1-0.2,0.1-0.2,0.1c0,0-0.2-0.1-0.2-0.1c0,0,0,0.2,0,0.2l-0.2,0.1l0.2,0.1l0,0.3L13.1,4.7L13.1,4.7z"/>
				</g>
				<path class="st26" d="M12.7,4.4l0.8,0.1l-0.2,0.1l-0.2-0.1c0,0,0.2,0.4,0.2,0.4c0,0-0.2-0.1-0.2-0.1l0-0.2l-0.3,0.3
					c0,0,0-0.3,0-0.3L12.7,4.4z"/>
				<polygon class="st27" points="12.9,4.3 13.1,4.4 12.9,4 				"/>
				<path class="st27" d="M13.1,4.2c0,0,0,0.2,0,0.2c0,0,0.3-0.3,0.3-0.3C13.4,4.1,13.1,4.2,13.1,4.2L13.1,4.2z"/>
				<polygon class="st10" points="20.5,4 20.5,4.3 20.3,4.4 20.6,4.5 20.6,4.8 20.8,4.6 21,4.7 21,4.4 21.2,4.3 20.9,4.2 20.9,4 
					20.7,4.1 				"/>
				<g class="st5">
					<path class="st25" d="M20.6,4.8l-0.1-0.2l-0.3-0.1l0.2-0.2L20.4,4l0.3,0.1C20.9,4,20.9,4,20.9,4c0,0,0.1,0.2,0,0.2
						c0,0,0.2,0.1,0.2,0.1L21,4.4l0,0.2l-0.2-0.1L20.6,4.8L20.6,4.8z M20.5,4l0.1,0.2l-0.2,0.2l0.3,0.1l0.1,0.2l0.2-0.2L21,4.7
						l0-0.2l0.2-0.2c-0.2-0.1-0.2-0.1-0.2-0.1c0,0,0-0.2,0-0.2c0,0-0.2,0.2-0.2,0.2L20.5,4L20.5,4z"/>
				</g>
				<path class="st27" d="M20.5,4L21,4.7l-0.2-0.1l-0.1-0.2c0,0-0.1,0.4-0.1,0.4c0,0-0.1-0.2-0.1-0.2l0.2-0.2c0,0-0.4,0.1-0.4,0.1
					c0,0,0.2-0.2,0.2-0.2L20.5,4z"/>
				<polygon class="st27" points="20.7,4.1 20.7,4.4 20.9,4 				"/>
				<path class="st27" d="M20.9,4.2c0,0-0.2,0.2-0.2,0.2c0,0,0.4-0.1,0.4-0.1C21.2,4.3,20.9,4.2,20.9,4.2L20.9,4.2z"/>
				<path class="st17" d="M14,4.1c0.3-0.1,0.6-0.2,0.9-0.3c0.3,0,0.6,0,1,0c0,0,0,0.5,0,0.5c-0.3,0-0.5,0-0.9,0.1
					c-0.5,0.1-0.6,0.1-0.9,0.2L14,4.1z"/>
				<g class="st5">
					<path class="st18" d="M14.1,4.5L14,4.1c0.3-0.2,0.6-0.3,0.9-0.3c0.3,0,0.6,0,0.9,0h0.1c0,0,0.1,0.5,0.1,0.5l-0.1,0
						c-0.2,0-0.4,0-0.8,0.1C14.6,4.4,14.4,4.4,14.1,4.5L14.1,4.5L14.1,4.5z M15.9,3.7L15.9,3.7c-0.4,0-0.7,0-1,0.1
						c-0.3,0-0.6,0.1-0.9,0.3l0.1,0.4c0.3-0.1,0.5-0.2,0.9-0.2c0.4-0.1,0.6-0.1,0.8-0.1H16C16,4.2,15.9,3.7,15.9,3.7L15.9,3.7z"/>
				</g>
				<path class="st17" d="M14.3,4.9c0,0,0.1,0.5,0.1,0.5c0.3-0.1,0.5-0.1,0.8-0.2c0.3,0,0.6-0.1,0.8-0.1l0-0.5c-0.3,0-0.6,0-0.9,0
					C14.8,4.8,14.5,4.9,14.3,4.9L14.3,4.9z"/>
				<g class="st5">
					<path class="st18" d="M14.4,5.5L14.4,5.5c-0.1-0.5-0.1-0.5-0.1-0.5c0.3-0.1,0.6-0.2,0.9-0.2c0.3,0,0.6,0,0.9,0l0.1,0.5
						c-0.3,0-0.6,0-0.8,0.1C14.9,5.4,14.7,5.4,14.4,5.5L14.4,5.5L14.4,5.5z M15.7,4.7c-0.2,0-0.4,0-0.5,0c-0.3,0-0.6,0.1-0.9,0.2
						c0,0,0.1,0.3,0.1,0.5c0.3-0.1,0.5-0.1,0.8-0.2c0.3,0,0.6-0.1,0.8-0.1L16,4.7C15.9,4.7,15.8,4.7,15.7,4.7L15.7,4.7z"/>
				</g>
				<path class="st4" d="M13,6.6h7.9v5.1c-0.2,2-2.1,3.4-3.8,3.4c-1.9,0.1-3.9-1.4-4.1-3.5L13,6.6z"/>
				<g class="st5">
					<path class="st6" d="M16.9,15.1c-1.8,0-3.8-1.4-4-3.5l0-5l7.9,0l0,5.1c-0.2,2-2.2,3.5-3.8,3.5C17,15.1,16.9,15.1,16.9,15.1
						L16.9,15.1z M20.8,6.6l-7.9,0l0,5c0.2,2.1,2.3,3.5,4.1,3.4c1.6,0,3.6-1.4,3.8-3.4V6.6L20.8,6.6z"/>
				</g>
				<path class="st17" d="M13.1,6.8h7.6v4.9c-0.2,1.9-2,3.3-3.7,3.3c-1.8,0.1-3.8-1.4-3.9-3.3L13.1,6.8z"/>
				<g class="st5">
					<path class="st6" d="M16.9,14.9c-1.7,0-3.7-1.4-3.8-3.3l0-4.8l7.6,0l0,4.9c-0.2,2-2.1,3.3-3.7,3.3C17,14.9,16.9,14.9,16.9,14.9
						L16.9,14.9z M20.7,6.8l-7.5,0l0,4.8c0.1,2,2.2,3.3,3.9,3.3c1.6,0,3.4-1.3,3.6-3.3V6.8L20.7,6.8z"/>
				</g>
				<rect x="14.6" y="6.8" class="st4" width="1.5" height="1.6"/>
				<path class="st4" d="M19.2,11.7v1.6l0.8,0c0.4-0.6,0.6-1.2,0.6-1.6C20.6,11.7,19.2,11.7,19.2,11.7L19.2,11.7z"/>
				<g class="st5">
					<path class="st9" d="M20,13.3l-0.9,0l0-1.6l0.7,0h0.8C20.6,11.8,20.5,12.5,20,13.3L20,13.3L20,13.3z M19.2,11.7l0,1.6l0.8,0
						c0.5-0.8,0.6-1.4,0.6-1.6l-0.8,0H19.2L19.2,11.7z"/>
				</g>
				<path class="st4" d="M17.7,13.3v1.5c0.7-0.1,1.2-0.5,1.5-0.7l0-0.9H17.7z"/>
				<g class="st5">
					<path class="st9" d="M17.7,14.8v-1.5l1.5,0l0,0.9C18.8,14.4,18.3,14.7,17.7,14.8L17.7,14.8L17.7,14.8z M19.1,13.3l-1.5,0l0,1.5
						c0.6-0.1,1.2-0.4,1.5-0.7L19.1,13.3L19.1,13.3z"/>
				</g>
				<path class="st4" d="M14.7,13.3l0,0.9c0.5,0.4,1.1,0.6,1.5,0.7l0-1.5L14.7,13.3z"/>
				<g class="st5">
					<path class="st9" d="M16.2,14.8L16.2,14.8c-0.4-0.1-1-0.3-1.5-0.7l0-0.9l1.5,0L16.2,14.8L16.2,14.8z M16.1,13.3l-1.5,0l0,0.8
						c0.5,0.4,1.1,0.6,1.5,0.7L16.1,13.3L16.1,13.3z"/>
				</g>
				<path class="st4" d="M13.2,11.7c0,0.6,0.3,1.2,0.6,1.6l0.9,0v-1.6H13.2z"/>
				<g class="st5">
					<path class="st9" d="M14.6,13.3L14.6,13.3l-0.9,0c-0.2-0.3-0.6-0.9-0.6-1.6l1.5,0L14.6,13.3L14.6,13.3z M14.6,11.7l-1.5,0
						c0.1,0.7,0.4,1.3,0.6,1.6l0.9,0V11.7L14.6,11.7z"/>
				</g>
				<rect x="13.1" y="8.4" class="st4" width="1.5" height="1.6"/>
				<rect x="16.2" y="8.4" class="st4" width="1.5" height="1.6"/>
				<rect x="17.7" y="6.8" class="st4" width="1.5" height="1.6"/>
				<rect x="19.2" y="8.4" class="st4" width="1.5" height="1.6"/>
				<rect x="14.6" y="10" class="st4" width="1.5" height="1.6"/>
				<rect x="17.7" y="10" class="st4" width="1.5" height="1.6"/>
				<rect x="16.2" y="11.7" class="st4" width="1.5" height="1.6"/>
				<path class="st13" d="M18.4,4.9C18.4,4.9,18.4,4.8,18.4,4.9c0-0.1,0-0.1-0.1-0.2C18.4,4.8,18.4,4.8,18.4,4.9L18.4,4.9z"/>
				<g class="st5">
					<path class="st11" d="M18.4,4.9C18.4,4.9,18.4,4.9,18.4,4.9l-0.1-0.2C18.4,4.8,18.4,4.8,18.4,4.9L18.4,4.9L18.4,4.9z"/>
				</g>
			</g>
		</g>
	</g>
</g>
</svg>
