<?xml version="1.0" encoding="utf-8"?>
<!-- Generator: Adobe Illustrator 21.1.0, SVG Export Plug-In . SVG Version: 6.00 Build 0)  -->
<svg version="1.1" xmlns="http://www.w3.org/2000/svg" xmlns:xlink="http://www.w3.org/1999/xlink" x="0px" y="0px"
	 viewBox="0 0 34 19" style="enable-background:new 0 0 34 19;" xml:space="preserve">
<style type="text/css">
	.st0{clip-path:url(#SVGID_2_);fill:#FFFFFF;}
	.st1{clip-path:url(#SVGID_2_);fill:#F0953E;}
	.st2{clip-path:url(#SVGID_2_);fill:#3B8916;}
	.st3{clip-path:url(#SVGID_2_);}
	.st4{clip-path:url(#SVGID_4_);fill:#16007E;}
	.st5{clip-path:url(#SVGID_4_);fill:#FFFFFF;}
</style>
<g id="Calque_1">
	<g id="Calque_1_1_">
	</g>
</g>
<g id="_x34_">
	<g id="INDIA_3_">
		<g>
			<g>
				<defs>
					<rect id="SVGID_1_" x="-0.3" y="-0.6" width="34.7" height="20.2"/>
				</defs>
				<clipPath id="SVGID_2_">
					<use xlink:href="#SVGID_1_"  style="overflow:visible;"/>
				</clipPath>
				<rect x="-0.3" y="-0.6" class="st0" width="34.7" height="20.2"/>
				<rect x="-0.3" y="-0.6" class="st1" width="34.7" height="6.7"/>
				<rect x="-0.3" y="12.9" class="st2" width="34.7" height="6.7"/>
				<g class="st3">
					<defs>
						<rect id="SVGID_3_" x="-0.3" y="-0.6" width="34.7" height="20.2"/>
					</defs>
					<clipPath id="SVGID_4_">
						<use xlink:href="#SVGID_3_"  style="overflow:visible;"/>
					</clipPath>
					<path class="st4" d="M17,6.5c-1.7,0-3,1.4-3,3c0,1.7,1.4,3,3,3s3-1.4,3-3C20,7.8,18.7,6.5,17,6.5 M17,6.8l-0.1,1.5L17,9.2
						l0.1-0.9L17,6.8c0.1,0,0.2,0,0.2,0c0,0,0,0,0,0c0,0.1,0.1,0.1,0.1,0.1c0.1,0,0.1-0.1,0.1-0.1c0.1,0,0.1,0,0.2,0.1l-0.5,1.5
						l-0.1,0.9l0.3-0.8l0.3-1.5c0.1,0,0.1,0,0.2,0.1c0,0,0,0,0,0C17.9,7,18,7.1,18,7.1c0,0,0.1,0,0.1-0.1c0.1,0,0.1,0.1,0.2,0.1
						l-0.8,1.3l-0.4,0.8l0.5-0.7l0.7-1.4c0.1,0,0.1,0.1,0.2,0.1c0,0,0,0,0,0.1c0,0.1,0.1,0.1,0.1,0.1c0,0,0.1,0,0.1-0.1
						c0.1,0.1,0.1,0.1,0.2,0.2l-1.1,1l-0.6,0.7l0.7-0.6l1-1.1C19,7.6,19,7.7,19.1,7.7c0,0,0,0.1,0,0.1C19,7.9,19.1,8,19.2,8
						c0,0,0.1,0,0.1,0c0,0.1,0.1,0.1,0.1,0.2L18,8.8l-0.7,0.5L18.1,9l1.3-0.8c0,0.1,0.1,0.1,0.1,0.2c0,0-0.1,0.1-0.1,0.1
						c0,0.1,0.1,0.1,0.1,0.1c0,0,0,0,0,0c0,0.1,0,0.1,0.1,0.2l-1.5,0.3l-0.8,0.3l0.9-0.1l1.5-0.5c0,0.1,0,0.1,0.1,0.2
						c-0.1,0-0.1,0.1-0.1,0.1s0.1,0.1,0.1,0.1c0,0,0,0,0,0c0,0.1,0,0.2,0,0.2l-1.5-0.1l-0.9,0.1l0.9,0.1l1.5-0.1c0,0.1,0,0.2,0,0.2
						c0,0,0,0,0,0c-0.1,0-0.1,0.1-0.1,0.1s0,0.1,0.1,0.1c0,0.1,0,0.1,0,0.2L19.1,10l-0.9-0.3l-0.9-0.1h0h0l0.8,0.3l1.5,0.3
						c0,0.1,0,0.1-0.1,0.2c0,0,0,0,0,0l0,0c0,0,0,0,0,0c-0.1,0-0.1,0.1-0.1,0.1c0,0,0,0,0,0l0,0c0,0,0,0,0,0l0,0c0,0,0,0,0,0l0,0
						c0,0,0,0,0,0l0,0c0,0,0,0,0,0c0,0.1-0.1,0.1-0.1,0.2L18.1,10h0l-0.8-0.4h0l0.4,0.3l0.3,0.2l0,0l1.4,0.7c0,0.1-0.1,0.1-0.1,0.2
						c0,0,0,0-0.1,0c-0.1,0-0.1,0.1-0.1,0.1c0,0,0,0.1,0,0.1c-0.1,0.1-0.1,0.1-0.2,0.2l-1-1.1l-0.7-0.6l0.6,0.7l1.1,1
						c-0.1,0.1-0.1,0.1-0.2,0.1c0,0-0.1,0-0.1,0c-0.1,0-0.1,0.1-0.1,0.1c0,0,0,0,0,0.1c-0.1,0-0.1,0.1-0.2,0.1l-0.7-1.4l-0.5-0.7
						l0,0l0.4,0.8l0.8,1.3c-0.1,0-0.1,0.1-0.2,0.1c0,0-0.1-0.1-0.1-0.1c-0.1,0-0.1,0.1-0.1,0.1c0,0,0,0,0,0c-0.1,0-0.1,0-0.2,0.1
						l-0.3-1.5l-0.3-0.8v0l0.1,0.9l0.5,1.5c-0.1,0-0.1,0-0.2,0c0-0.1-0.1-0.1-0.1-0.1c-0.1,0-0.1,0.1-0.1,0.1c0,0,0,0,0,0
						c-0.1,0-0.2,0-0.2,0l0.1-1.5L17,9.8l-0.1,0.9l0.1,1.5c-0.1,0-0.2,0-0.2,0c0,0,0,0,0,0c0-0.1-0.1-0.1-0.1-0.1
						c-0.1,0-0.1,0-0.1,0.1c-0.1,0-0.1,0-0.2,0l0.5-1.5l0.1-0.9l-0.3,0.8l-0.3,1.5c-0.1,0-0.1,0-0.2-0.1c0,0,0,0,0,0
						c0-0.1-0.1-0.1-0.1-0.1c-0.1,0-0.1,0-0.1,0.1c-0.1,0-0.1-0.1-0.2-0.1l0.8-1.3l0.4-0.8l-0.5,0.7l-0.7,1.4
						c-0.1,0-0.1-0.1-0.2-0.1c0,0,0,0,0-0.1c0-0.1-0.1-0.1-0.1-0.1c0,0-0.1,0-0.1,0c-0.1-0.1-0.1-0.1-0.2-0.2l1.1-1l0.6-0.7l0,0
						l-0.7,0.6l-1,1.1c-0.1-0.1-0.1-0.1-0.2-0.2c0,0,0-0.1,0-0.1c0-0.1-0.1-0.1-0.1-0.1c0,0-0.1,0-0.1,0c0-0.1-0.1-0.1-0.1-0.2
						l1.4-0.7l0.7-0.5L15.9,10l-1.3,0.8c0-0.1-0.1-0.1-0.1-0.2c0,0,0.1-0.1,0.1-0.1c0-0.1-0.1-0.1-0.1-0.1c0,0,0,0-0.1,0
						c0-0.1,0-0.1-0.1-0.2l1.5-0.3l0.8-0.3l-0.9,0.1l-1.5,0.5c0-0.1,0-0.1-0.1-0.2c0.1,0,0.1-0.1,0.1-0.1c0-0.1-0.1-0.1-0.1-0.1
						c0,0,0,0,0,0c0-0.1,0-0.1,0-0.2l1.5,0.1l0.9-0.1l-0.9-0.1l-1.5,0.1c0-0.1,0-0.2,0-0.2c0,0,0,0,0,0c0.1,0,0.1-0.1,0.1-0.1
						c0-0.1-0.1-0.1-0.1-0.1c0-0.1,0-0.2,0.1-0.2l1.5,0.5l0.9,0.1l-0.8-0.3l-1.5-0.3c0-0.1,0-0.1,0.1-0.2c0,0,0,0,0,0
						c0.1,0,0.1-0.1,0.1-0.1c0-0.1,0-0.1-0.1-0.1c0-0.1,0.1-0.1,0.1-0.2L15.9,9l0.8,0.4L16,8.8l-1.4-0.7c0-0.1,0.1-0.1,0.1-0.2
						c0,0,0,0,0.1,0C14.9,8,15,7.9,15,7.8c0,0,0-0.1,0-0.1c0-0.1,0.1-0.1,0.2-0.2l1,1.1l0.7,0.6l-0.6-0.7l-1.1-1
						c0.1-0.1,0.1-0.1,0.2-0.2c0,0,0.1,0,0.1,0c0.1,0,0.1-0.1,0.1-0.1c0,0,0-0.1,0-0.1c0.1,0,0.1-0.1,0.2-0.1l0.7,1.4l0.5,0.7
						l-0.4-0.8l-0.8-1.3c0.1,0,0.1-0.1,0.2-0.1c0,0,0.1,0.1,0.1,0.1C16,7.1,16.1,7,16.1,7c0,0,0,0,0-0.1c0.1,0,0.1,0,0.2-0.1
						l0.3,1.5l0.3,0.8l-0.1-0.9l-0.5-1.5c0.1,0,0.1,0,0.2-0.1c0,0.1,0.1,0.1,0.1,0.1c0.1,0,0.1-0.1,0.1-0.1c0,0,0,0,0,0
						C16.8,6.8,16.9,6.8,17,6.8"/>
					<path class="st5" d="M17,9c0.3,0,0.5,0.2,0.5,0.5c0,0.3-0.2,0.5-0.5,0.5c-0.3,0-0.5-0.2-0.5-0.5C16.5,9.3,16.7,9,17,9"/>
					<path class="st4" d="M17,9.2c0.2,0,0.3,0.2,0.3,0.3c0,0.2-0.2,0.4-0.3,0.4c-0.2,0-0.4-0.2-0.4-0.4C16.6,9.3,16.8,9.2,17,9.2"/>
				</g>
			</g>
		</g>
	</g>
</g>
</svg>
