<?xml version="1.0" encoding="utf-8"?>
<!-- Generator: Adobe Illustrator 21.1.0, SVG Export Plug-In . SVG Version: 6.00 Build 0)  -->
<svg version="1.1" id="Calque_1" xmlns="http://www.w3.org/2000/svg" xmlns:xlink="http://www.w3.org/1999/xlink" x="0px" y="0px"
	 viewBox="0 0 34 20" style="enable-background:new 0 0 34 20;" xml:space="preserve">
<style type="text/css">
	.st0{fill:#DA0000;}
	.st1{fill:#FFFFFF;}
	.st2{fill:#239F40;}
	.st3{fill:none;stroke:#FFFFFF;stroke-width:0.1076;}
</style>
<g>
	<rect x="0.1" y="0.3" class="st0" width="33.9" height="19.4"/>
	<rect x="0.1" y="0.3" class="st1" width="33.9" height="12.9"/>
	<rect x="0.1" y="0.3" class="st2" width="33.9" height="6.5"/>
	<g>
		<g>
			<g id="tb1">
				<path id="tbp1" class="st3" d="M-7.9-94.6h2 M-7.8-93.9v-0.4h0.6v0.3h0.6v-0.3H-7 M-7.6-94h0.2 M-5.9-94h-0.4v-0.3h0.6
					 M-5.7-94.7v0.7h0.6v-0.7 M-5.4-94.7v0.7"/>
				<path id="tbp2" class="st3" d="M-7.9-93.6h1.4 M-6.4-93.6H-5"/>
				<g>
					<path id="tbp2_1_" class="st3" d="M-7.9-87.2h1.4 M-6.4-87.2H-5"/>
				</g>
				<g>
					<path id="tbp1_1_" class="st3" d="M-7.9-86.8h2 M-7.8-86.1v-0.4h0.6v0.3h0.6v-0.3H-7 M-7.6-86.2h0.2 M-5.9-86.2h-0.4v-0.3h0.6
						 M-5.7-86.9v0.7h0.6v-0.7 M-5.4-86.9v0.7"/>
				</g>
			</g>
			<g>
				<g>
					<g id="tb1_1_">
						<path id="tbp1_2_" class="st3" d="M-4.9-94.6h2 M-4.8-93.9v-0.4h0.6v0.3h0.6v-0.3H-4 M-4.6-94h0.2 M-2.9-94h-0.4v-0.3h0.6
							 M-2.7-94.7v0.7h0.6v-0.7 M-2.4-94.7v0.7"/>
						<path id="tbp2_2_" class="st3" d="M-4.9-93.6h1.4 M-3.4-93.6H-2"/>
						<g>
							<path id="tbp2_3_" class="st3" d="M-4.9-87.2h1.4 M-3.4-87.2H-2"/>
						</g>
						<g>
							<path id="tbp1_3_" class="st3" d="M-4.9-86.8h2 M-4.8-86.1v-0.4h0.6v0.3h0.6v-0.3H-4 M-4.6-86.2h0.2 M-2.9-86.2h-0.4v-0.3
								h0.6 M-2.7-86.9v0.7h0.6v-0.7 M-2.4-86.9v0.7"/>
						</g>
					</g>
					<g id="tb4">
						<g id="tb1_2_">
							<path id="tbp1_4_" class="st3" d="M-1.9-94.6h2 M-1.8-93.9v-0.4h0.6v0.3h0.6v-0.3H-1 M-1.6-94h0.2 M0.1-94h-0.4v-0.3h0.6
								 M0.3-94.7v0.7h0.6v-0.7 M0.6-94.7v0.7"/>
							<path id="tbp2_4_" class="st3" d="M-1.9-93.6h1.4 M-0.4-93.6H1"/>
							<g>
								<path id="tbp2_5_" class="st3" d="M-1.9-87.2h1.4 M-0.4-87.2H1"/>
							</g>
							<g>
								<path id="tbp1_5_" class="st3" d="M-1.9-86.8h2 M-1.8-86.1v-0.4h0.6v0.3h0.6v-0.3H-1 M-1.6-86.2h0.2 M0.1-86.2h-0.4v-0.3
									h0.6 M0.3-86.9v0.7h0.6v-0.7 M0.6-86.9v0.7"/>
							</g>
						</g>
						<g id="tb3">
							<g id="tb1_3_">
								<path id="tbp1_6_" class="st3" d="M1.1-94.6h2 M1.2-93.9v-0.4h0.6v0.3h0.6v-0.3H2 M1.4-94h0.2 M3.1-94H2.7v-0.3h0.6
									 M3.3-94.7v0.7h0.6v-0.7 M3.6-94.7v0.7"/>
								<path id="tbp2_6_" class="st3" d="M1.1-93.6h1.4 M2.7-93.6H4"/>
								<g>
									<path id="tbp2_7_" class="st3" d="M1.1-87.2h1.4 M2.7-87.2H4"/>
								</g>
								<g>
									<path id="tbp1_7_" class="st3" d="M1.1-86.8h2 M1.2-86.1v-0.4h0.6v0.3h0.6v-0.3H2 M1.4-86.2h0.2 M3.1-86.2H2.7v-0.3h0.6
										 M3.3-86.9v0.7h0.6v-0.7 M3.6-86.9v0.7"/>
								</g>
							</g>
						</g>
					</g>
					<g>
						<g>
							<g>
								<g id="tb1_4_">
									<path id="tbp1_8_" class="st3" d="M4.2-94.6h2 M4.2-93.9v-0.4h0.6v0.3h0.6v-0.3H5.1 M4.5-94h0.2 M6.1-94H5.7v-0.3h0.6
										 M6.3-94.7v0.7h0.6v-0.7 M6.6-94.7v0.7"/>
									<path id="tbp2_8_" class="st3" d="M4.2-93.6h1.4 M5.7-93.6H7"/>
									<g>
										<path id="tbp2_9_" class="st3" d="M4.2-87.2h1.4 M5.7-87.2H7"/>
									</g>
									<g>
										<path id="tbp1_9_" class="st3" d="M4.2-86.8h2 M4.2-86.1v-0.4h0.6v0.3h0.6v-0.3H5.1 M4.5-86.2h0.2 M6.1-86.2H5.7v-0.3h0.6
											 M6.3-86.9v0.7h0.6v-0.7 M6.6-86.9v0.7"/>
									</g>
								</g>
								<g>
									<g id="tb1_5_">
										<path id="tbp1_10_" class="st3" d="M7.2-94.6h2 M7.2-93.9v-0.4h0.6v0.3h0.6v-0.3H8.1 M7.5-94h0.2 M9.1-94H8.8v-0.3h0.6
											 M9.4-94.7v0.7H10v-0.7 M9.7-94.7v0.7"/>
										<path id="tbp2_10_" class="st3" d="M7.2-93.6h1.4 M8.7-93.6H10"/>
										<g>
											<path id="tbp2_11_" class="st3" d="M7.2-87.2h1.4 M8.7-87.2H10"/>
										</g>
										<g>
											<path id="tbp1_11_" class="st3" d="M7.2-86.8h2 M7.2-86.1v-0.4h0.6v0.3h0.6v-0.3H8.1 M7.5-86.2h0.2 M9.1-86.2H8.8v-0.3
												h0.6 M9.4-86.9v0.7H10v-0.7 M9.7-86.9v0.7"/>
										</g>
									</g>
									<g id="tb3_1_">
										<g id="tb1_6_">
											<path id="tbp1_12_" class="st3" d="M10.2-94.6h2 M10.3-93.9v-0.4h0.6v0.3h0.6v-0.3h-0.4 M10.5-94h0.2 M12.1-94h-0.4v-0.3
												h0.6 M12.4-94.7v0.7H13v-0.7 M12.7-94.7v0.7"/>
											<path id="tbp2_12_" class="st3" d="M10.2-93.6h1.4 M11.7-93.6H13"/>
											<g>
												<path id="tbp2_13_" class="st3" d="M10.2-87.2h1.4 M11.7-87.2H13"/>
											</g>
											<g>
												<path id="tbp1_13_" class="st3" d="M10.2-86.8h2 M10.3-86.1v-0.4h0.6v0.3h0.6v-0.3h-0.4 M10.5-86.2h0.2 M12.1-86.2h-0.4
													v-0.3h0.6 M12.4-86.9v0.7H13v-0.7 M12.7-86.9v0.7"/>
											</g>
										</g>
									</g>
									<g>
										<g>
											<g id="tb1_7_">
												<path id="tbp1_14_" class="st3" d="M13.2-94.6h2 M13.3-93.9v-0.4h0.6v0.3h0.6v-0.3h-0.4 M13.5-94h0.2 M15.2-94h-0.4
													v-0.3h0.6 M15.4-94.7v0.7H16v-0.7 M15.7-94.7v0.7"/>
												<path id="tbp2_14_" class="st3" d="M13.2-93.6h1.4 M14.7-93.6h1.4"/>
												<g>
													<path id="tbp2_15_" class="st3" d="M13.2-87.2h1.4 M14.7-87.2h1.4"/>
												</g>
												<g>
													<path id="tbp1_15_" class="st3" d="M13.2-86.8h2 M13.3-86.1v-0.4h0.6v0.3h0.6v-0.3h-0.4 M13.5-86.2h0.2 M15.2-86.2
														h-0.4v-0.3h0.6 M15.4-86.9v0.7H16v-0.7 M15.7-86.9v0.7"/>
												</g>
											</g>
											<g>
												<g transform="translate(8.4,100.4)">
													<g id="tb1_8_">
														<path id="tbp1_16_" class="st3" d="M16.2-94.6h2 M16.3-93.9v-0.4h0.6v0.3h0.6v-0.3h-0.4 M16.5-94h0.2 M18.2-94h-0.4
															v-0.3h0.6 M18.4-94.7v0.7H19v-0.7 M18.7-94.7v0.7"/>
														<path id="tbp2_16_" class="st3" d="M16.2-93.6h1.4 M17.7-93.6h1.4"/>
														<g>
															<path id="tbp2_17_" class="st3" d="M16.2-87.2h1.4 M17.7-87.2h1.4"/>
														</g>
														<g>
															<path id="tbp1_17_" class="st3" d="M16.2-86.8h2 M16.3-86.1v-0.4h0.6v0.3h0.6v-0.3h-0.4 M16.5-86.2h0.2 M18.2-86.2
																h-0.4v-0.3h0.6 M18.4-86.9v0.7H19v-0.7 M18.7-86.9v0.7"/>
														</g>
													</g>
													<g id="tb4_1_">
														<g id="tb1_9_">
															<path id="tbp1_18_" class="st3" d="M19.2-94.6h2 M19.3-93.9v-0.4h0.6v0.3h0.6v-0.3h-0.4 M19.5-94h0.2 M21.2-94h-0.4
																v-0.3h0.6 M21.4-94.7v0.7H22v-0.7 M21.7-94.7v0.7"/>
															<path id="tbp2_18_" class="st3" d="M19.2-93.6h1.4 M20.7-93.6h1.4"/>
															<g>
																<path id="tbp2_19_" class="st3" d="M19.2-87.2h1.4 M20.7-87.2h1.4"/>
															</g>
															<g>
																<path id="tbp1_19_" class="st3" d="M19.2-86.8h2 M19.3-86.1v-0.4h0.6v0.3h0.6v-0.3h-0.4 M19.5-86.2h0.2 M21.2-86.2
																	h-0.4v-0.3h0.6 M21.4-86.9v0.7H22v-0.7 M21.7-86.9v0.7"/>
															</g>
														</g>
														<g id="tb3_2_">
															<g id="tb1_10_">
																<path id="tbp1_20_" class="st3" d="M22.2-94.6h2 M22.3-93.9v-0.4h0.6v0.3h0.6v-0.3h-0.4 M22.5-94h0.2 M24.2-94h-0.4
																	v-0.3h0.6 M24.4-94.7v0.7H25v-0.7 M24.7-94.7v0.7"/>
																<path id="tbp2_20_" class="st3" d="M22.2-93.6h1.4 M23.7-93.6h1.4"/>
																<g>
																	<path id="tbp2_21_" class="st3" d="M22.2-87.2h1.4 M23.7-87.2h1.4"/>
																</g>
																<g>
																	<path id="tbp1_21_" class="st3" d="M22.2-86.8h2 M22.3-86.1v-0.4h0.6v0.3h0.6v-0.3h-0.4 M22.5-86.2h0.2 M24.2-86.2
																		h-0.4v-0.3h0.6 M24.4-86.9v0.7H25v-0.7 M24.7-86.9v0.7"/>
																</g>
															</g>
														</g>
													</g>
												</g>
												<g transform="matrix(45,0,0,45,315,180)">
													<g id="emblem_half">
														<path class="st0" d="M-6.8-6C-6.8-6-6.8-6-6.8-6C-6.8-6-6.8-6-6.8-6C-6.8-6-6.8-6-6.8-6C-6.8-6-6.8-6-6.8-6"/>
														<path class="st0" d="M-6.8-6C-6.8-6-6.7-6-6.8-6C-6.8-6-6.8-6-6.8-6C-6.8-6-6.8-6-6.8-6C-6.8-6-6.8-6-6.8-6"/>
														<path class="st0" d="M-6.8-6L-6.8-6L-6.8-6C-6.8-6-6.8-6-6.8-6L-6.8-6L-6.8-6L-6.8-6z"/>
														<path class="st0" d="M-6.8-6.1L-6.8-6.1C-6.8-6.1-6.8-6-6.8-6.1C-6.8-6.1-6.8-6.1-6.8-6.1C-6.8-6.1-6.8-6.1-6.8-6.1
															C-6.8-6.1-6.8-6.1-6.8-6.1"/>
													</g>
													<g transform="scale(-1,1)">
														<g id="emblem_half_1_">
															<path class="st0" d="M-6.8-6C-6.8-6-6.8-6-6.8-6C-6.8-6-6.8-6-6.8-6C-6.8-6-6.8-6-6.8-6C-6.8-6-6.8-6-6.8-6"/>
															<path class="st0" d="M-6.8-6C-6.9-6-6.9-6-6.8-6C-6.9-6-6.8-6-6.8-6C-6.9-6-6.9-6-6.8-6C-6.8-6-6.8-6-6.8-6"/>
															<path class="st0" d="M-6.8-6L-6.8-6L-6.8-6C-6.8-6-6.8-6-6.8-6L-6.8-6L-6.8-6L-6.8-6z"/>
															<path class="st0" d="M-6.8-6.1L-6.8-6.1C-6.8-6.1-6.8-6-6.8-6.1C-6.8-6.1-6.8-6.1-6.8-6.1C-6.8-6.1-6.8-6.1-6.8-6.1
																C-6.8-6.1-6.8-6.1-6.8-6.1"/>
														</g>
													</g>
												</g>
											</g>
										</g>
									</g>
								</g>
							</g>
						</g>
					</g>
				</g>
			</g>
		</g>
	</g>
</g>
</svg>
