<?xml version="1.0" encoding="utf-8"?>
<!-- Generator: Adobe Illustrator 21.1.0, SVG Export Plug-In . SVG Version: 6.00 Build 0)  -->
<svg version="1.1" id="Calque_1" xmlns="http://www.w3.org/2000/svg" xmlns:xlink="http://www.w3.org/1999/xlink" x="0px" y="0px"
	 viewBox="0 0 34 20" style="enable-background:new 0 0 34 20;" xml:space="preserve">
<style type="text/css">
	.st0{clip-path:url(#SVGID_2_);fill:#498A3A;}
	.st1{clip-path:url(#SVGID_2_);}
	.st2{clip-path:url(#SVGID_2_);fill:#F1DA2B;}
</style>
<g id="JAMAICA_2_">
	<g>
		<g>
			<defs>
				<rect id="SVGID_1_" x="0.3" y="0.1" width="33.6" height="19.6"/>
			</defs>
			<clipPath id="SVGID_2_">
				<use xlink:href="#SVGID_1_"  style="overflow:visible;"/>
			</clipPath>
			<polygon class="st0" points="3.4,19.7 30.7,19.7 17.1,11.7 			"/>
			<polygon class="st0" points="30.7,0.1 3.4,0.1 17.1,8.1 			"/>
			<polygon class="st1" points="0.3,17.9 13.9,9.9 0.3,1.9 			"/>
			<polygon class="st1" points="33.9,17.9 33.9,1.9 20.2,9.9 			"/>
			<polygon class="st2" points="0.3,19.7 0.3,19.7 3.4,19.7 17.1,11.7 30.7,19.7 33.9,19.7 17.1,9.9 			"/>
			<polygon class="st2" points="30.7,0.1 17.1,8.1 3.4,0.1 0.3,0.1 17.1,9.9 33.9,0.1 			"/>
			<polygon class="st2" points="33.9,0.1 17.1,9.9 33.9,19.7 33.9,17.9 20.2,9.9 33.9,1.9 			"/>
			<polygon class="st2" points="0.3,1.9 13.9,9.9 0.3,17.9 0.3,19.7 17.1,9.9 0.3,0.1 			"/>
		</g>
	</g>
</g>
</svg>
