<?xml version="1.0" encoding="utf-8"?>
<!-- Generator: Adobe Illustrator 21.1.0, SVG Export Plug-In . SVG Version: 6.00 Build 0)  -->
<svg version="1.1" id="Calque_1" xmlns="http://www.w3.org/2000/svg" xmlns:xlink="http://www.w3.org/1999/xlink" x="0px" y="0px"
	 viewBox="0 0 34 20" style="enable-background:new 0 0 34 20;" xml:space="preserve">
<style type="text/css">
	.st0{clip-path:url(#SVGID_2_);fill:#FFFFFF;}
	.st1{clip-path:url(#SVGID_2_);}
	.st2{clip-path:url(#SVGID_2_);fill:#2E6933;}
	.st3{clip-path:url(#SVGID_4_);}
	.st4{clip-path:url(#SVGID_4_);fill:#FFFFFF;}
	.st5{clip-path:url(#SVGID_4_);fill:#AA1122;}
</style>
<g id="KENYA_2_">
	<g>
		<g>
			<defs>
				<rect id="SVGID_1_" x="0.3" y="0.2" width="33.6" height="19.6"/>
			</defs>
			<clipPath id="SVGID_2_">
				<use xlink:href="#SVGID_1_"  style="overflow:visible;"/>
			</clipPath>
			<rect x="0.3" y="0.2" class="st0" width="33.6" height="19.6"/>
			<rect x="0.3" y="0.2" class="st1" width="33.6" height="5.9"/>
			<rect x="0.3" y="13.9" class="st2" width="33.6" height="5.9"/>
			<g class="st1">
				<defs>
					<rect id="SVGID_3_" x="0.3" y="0.2" width="33.6" height="19.6"/>
				</defs>
				<clipPath id="SVGID_4_">
					<use xlink:href="#SVGID_3_"  style="overflow:visible;"/>
				</clipPath>
				<path class="st3" d="M13.5,15.8l0.2,0.1L19.4,6c0.3-0.1,0.5-0.4,0.7-0.7c0.1-0.2,0.6-1.1,0.8-2.2c-0.8,0.7-1.3,1.6-1.5,1.8
					c-0.2,0.3-0.4,0.6-0.3,1L13.5,15.8z"/>
				<g class="st3">
					<path d="M13.7,15.9l-0.2-0.1l5.7-9.9c-0.1-0.3,0.1-0.7,0.3-1C20,4,20.5,3.4,20.9,3.1c-0.1,0.5-0.3,1.3-0.8,2.2
						c-0.2,0.3-0.4,0.6-0.7,0.7L13.7,15.9L13.7,15.9z M20.9,3.1C20.6,3.5,20,4,19.5,4.9c-0.2,0.3-0.4,0.6-0.3,1l-5.7,9.9l0.2,0.1
						L19.4,6c0.3-0.1,0.5-0.4,0.7-0.7C20.6,4.4,20.8,3.6,20.9,3.1L20.9,3.1z"/>
				</g>
				<path class="st4" d="M13.5,15.8l0.2,0.1L19.4,6c0.3-0.1,0.5-0.4,0.7-0.7c0.1-0.2,0.6-1.1,0.8-2.2c-0.8,0.7-1.3,1.6-1.5,1.8
					c-0.2,0.3-0.4,0.6-0.3,1L13.5,15.8z"/>
				<path class="st3" d="M20.5,15.8l-0.2,0.1L14.6,6c-0.3-0.1-0.5-0.4-0.7-0.7c-0.1-0.2-0.6-1.1-0.8-2.2c0.8,0.7,1.3,1.6,1.5,1.8
					c0.2,0.3,0.4,0.6,0.3,1L20.5,15.8z"/>
				<g class="st3">
					<path d="M20.3,15.9L20.3,15.9L14.5,6c-0.3-0.1-0.5-0.4-0.7-0.7c-0.5-0.9-0.7-1.7-0.8-2.2c0.4,0.3,1,0.9,1.5,1.8
						c0.2,0.3,0.4,0.6,0.3,1l5.7,9.9L20.3,15.9L20.3,15.9z M13,3.1c0.1,0.5,0.3,1.3,0.8,2.1C14,5.6,14.2,5.9,14.6,6l5.7,9.9l0.2-0.1
						l-5.7-9.9c0.1-0.3-0.1-0.7-0.3-1C14,4,13.4,3.5,13,3.1L13,3.1z"/>
				</g>
				<path class="st4" d="M20.5,15.8l-0.2,0.1L14.6,6c-0.3-0.1-0.5-0.4-0.7-0.7c-0.1-0.2-0.6-1.1-0.8-2.2c0.8,0.7,1.3,1.6,1.5,1.8
					c0.2,0.3,0.4,0.6,0.3,1L20.5,15.8z"/>
				<path class="st5" d="M0.3,7v5.9h14.3c0.4,1,1.6,2.9,2.3,2.9s2-2,2.3-2.9h14.6V7H19.3c-0.4-1-1.6-2.9-2.3-2.9S15,6,14.7,7H0.3z"
					/>
				<path class="st3" d="M19.3,12.9c0.4-1,0.6-2,0.6-2.9c0-1-0.2-2-0.6-2.9c-0.4,1-0.6,2-0.6,2.9C18.7,10.9,18.9,11.9,19.3,12.9
					L19.3,12.9z"/>
				<path class="st3" d="M14.7,12.9c-0.4-1-0.6-2-0.6-2.9c0-1,0.2-2,0.6-2.9c0.4,1,0.6,2,0.6,2.9C15.3,10.9,15,11.9,14.7,12.9
					L14.7,12.9z"/>
				<path class="st4" d="M17,9.2c0.3,0,0.5,0.3,0.5,0.7c0,0.4-0.2,0.7-0.5,0.7c-0.3,0-0.5-0.3-0.5-0.7C16.5,9.6,16.7,9.2,17,9.2
					L17,9.2z"/>
				<path class="st4" d="M17.1,10.7c0,0,0.5,1,0.5,2.6c0,1.6-0.5,2.6-0.5,2.6V10.7z"/>
				<path class="st4" d="M16.9,9.2c0,0-0.5-1-0.5-2.6c0-1.6,0.5-2.6,0.5-2.6V9.2z"/>
				<path class="st4" d="M16.9,10.7c0,0-0.5,1-0.5,2.6c0,1.6,0.5,2.6,0.5,2.6V10.7z"/>
				<path class="st4" d="M17.1,9.2c0,0,0.5-1,0.5-2.6c0-1.6-0.5-2.6-0.5-2.6V9.2z"/>
			</g>
		</g>
	</g>
</g>
</svg>
