<?xml version="1.0" encoding="utf-8"?>
<!-- Generator: Adobe Illustrator 21.1.0, SVG Export Plug-In . SVG Version: 6.00 Build 0)  -->
<svg version="1.1" id="Calque_1" xmlns="http://www.w3.org/2000/svg" xmlns:xlink="http://www.w3.org/1999/xlink" x="0px" y="0px"
	 viewBox="0 0 34 20" style="enable-background:new 0 0 34 20;" xml:space="preserve">
<style type="text/css">
	.st0{fill:#FFFFFF;}
	.st1{fill:#CD2E3A;}
	.st2{fill:#0047A0;}
</style>
<title>Flag of South Korea</title>
<g>
	<g>
		<rect x="-0.4" y="-0.1" class="st0" width="34.8" height="20.2"/>
	</g>
	<g>
		<ellipse transform="matrix(0.5547 -0.8321 0.8321 0.5547 -0.7504 18.5979)" class="st1" cx="17" cy="10" rx="5.4" ry="5.4"/>
	</g>
	<g>
		<path class="st2" d="M12.5,7c-0.8,1.2-0.5,2.9,0.8,3.8s2.9,0.5,3.8-0.8s2.5-1.6,3.8-0.8s1.6,2.5,0.8,3.8c-1.7,2.5-5,3.2-7.5,1.5
			S10.8,9.5,12.5,7z"/>
	</g>
	<g>
		<rect x="4.9" y="3.2" transform="matrix(0.5547 -0.8321 0.8321 0.5547 0.2769 7.9981)" width="5.4" height="1"/>
		<rect x="7.2" y="4.7" transform="matrix(0.5547 -0.8321 0.8321 0.5547 3.037550e-02 10.5421)" width="5.4" height="1"/>
		<rect x="6" y="4" transform="matrix(0.5547 -0.8321 0.8321 0.5547 0.1535 9.2699)" width="5.4" height="1"/>
		<rect x="23.2" y="16.2" transform="matrix(0.5547 -0.8321 0.8321 0.5547 -3.0535 27.7902)" width="2.4" height="1"/>
		<rect x="24.3" y="17" transform="matrix(0.5547 -0.8321 0.8321 0.5547 -3.1768 29.0622)" width="2.4" height="1"/>
		<rect x="23.7" y="13" transform="matrix(0.5547 -0.8321 0.8321 0.5547 -0.1319 26.7894)" width="2.4" height="1"/>
		<rect x="22.1" y="15.5" transform="matrix(0.5547 -0.8321 0.8321 0.5547 -2.9303 26.5182)" width="2.4" height="1"/>
		<rect x="26" y="14.5" transform="matrix(0.5547 -0.8321 0.8321 0.5547 -0.3784 29.3334)" width="2.4" height="1"/>
		<rect x="24.9" y="13.8" transform="matrix(0.5547 -0.8321 0.8321 0.5547 -0.2552 28.0614)" width="2.4" height="1"/>
		<rect x="7.1" y="13.6" transform="matrix(0.8321 -0.5547 0.5547 0.8321 -7.741 6.9524)" width="1" height="5.4"/>
		<rect x="7.4" y="13.1" transform="matrix(0.8321 -0.5547 0.5547 0.8321 -6.5863 6.7844)" width="1" height="2.4"/>
		<rect x="9.1" y="15.5" transform="matrix(0.8321 -0.5547 0.5547 0.8321 -7.6839 8.1177)" width="1" height="2.4"/>
		<rect x="9.4" y="12" transform="matrix(0.8321 -0.5547 0.5547 0.8321 -6.5292 7.9501)" width="1" height="5.4"/>
		<rect x="24.8" y="1.8" transform="matrix(0.8321 -0.5547 0.5547 0.8321 1.7514 14.7676)" width="1" height="5.4"/>
		<rect x="25.1" y="1.3" transform="matrix(0.8321 -0.5547 0.5547 0.8321 2.9061 14.5999)" width="1" height="2.4"/>
		<rect x="24.5" y="5.3" transform="matrix(0.8321 -0.5547 0.5547 0.8321 0.5968 14.9352)" width="1" height="2.4"/>
		<rect x="22.8" y="2.8" transform="matrix(0.8321 -0.5547 0.5547 0.8321 1.6942 13.6023)" width="1" height="2.4"/>
		<rect x="26.7" y="3.8" transform="matrix(0.8321 -0.5547 0.5547 0.8321 1.8086 15.9329)" width="1" height="2.4"/>
	</g>
</g>
</svg>
