<?xml version="1.0" encoding="utf-8"?>
<!-- Generator: Adobe Illustrator 21.1.0, SVG Export Plug-In . SVG Version: 6.00 Build 0)  -->
<svg version="1.1" xmlns="http://www.w3.org/2000/svg" xmlns:xlink="http://www.w3.org/1999/xlink" x="0px" y="0px"
	 viewBox="0 0 34 19" style="enable-background:new 0 0 34 19;" xml:space="preserve">
<style type="text/css">
	.st0{clip-path:url(#SVGID_2_);fill:#FFFFFF;}
	.st1{clip-path:url(#SVGID_2_);fill:#E53633;}
	.st2{clip-path:url(#SVGID_2_);}
	.st3{clip-path:url(#SVGID_4_);fill:#419F43;}
</style>
<g id="Calque_1">
</g>
<g id="_x34_">
	<g id="LEBANON_2_">
		<g>
			<g>
				<defs>
					<rect id="SVGID_1_" x="-0.4" y="-0.3" width="34.8" height="19.6"/>
				</defs>
				<clipPath id="SVGID_2_">
					<use xlink:href="#SVGID_1_"  style="overflow:visible;"/>
				</clipPath>
				<rect x="-0.4" y="-0.3" class="st0" width="34.8" height="19.6"/>
				<rect x="-0.4" y="14.4" class="st1" width="34.8" height="4.9"/>
				<rect x="-0.4" y="-0.3" class="st1" width="34.8" height="4.9"/>
				<g class="st2">
					<defs>
						<rect id="SVGID_3_" x="-0.4" y="-0.3" width="34.8" height="19.6"/>
					</defs>
					<clipPath id="SVGID_4_">
						<use xlink:href="#SVGID_3_"  style="overflow:visible;"/>
					</clipPath>
					<path class="st3" d="M16.9,4.6l-0.2,0.3c-0.1,0.2-0.3,0.4-0.5,0.5c-0.2,0.1-0.4,0.3-0.5,0.4l-0.2,0.2l0.2,0
						c0.1,0,0.2-0.1,0.3-0.1c0.1,0,0.1,0,0.1,0c0,0,0,0,0,0s0,0,0,0c0,0.1-0.3,0.3-0.5,0.4c-0.2,0.1-0.5,0.3-0.6,0.4c0,0,0,0,0,0
						l0,0c0,0,0,0,0,0c0,0,0,0,0,0l0,0v0l0,0l0,0c0,0,0,0,0,0c0,0,0,0,0,0l0,0c0,0,0,0,0,0c0,0,0,0,0,0c0,0,0.1,0,0.2,0
						c0.1,0,0.2,0,0.2,0.1c0.1,0.1,0,0.2-0.1,0.2c-0.2,0-0.5,0.2-0.5,0.4c0,0.1-0.1,0.2-0.4,0.3c-0.4,0.2-0.8,0.5-0.9,0.6
						c0,0,0,0,0,0c0,0.1,0.3,0.1,0.8,0c0.1,0,0.1,0,0.2,0.2c0.1,0.2,0.1,0.2-0.1,0.5c-0.2,0.2-0.3,0.3-0.4,0.3
						c-0.3,0.1-0.4,0.1-0.8,0.5c-0.2,0.2-0.4,0.3-0.4,0.3c0,0,0,0,0,0c0,0,0,0,0,0h0v0l0,0l0,0c0,0,0,0,0,0l0,0l0,0c0,0,0,0,0,0h0
						c0,0,0,0,0,0l0,0l0,0c0,0.1,0.2,0.2,0.3,0.2c0.1,0,0.3-0.1,0.4-0.2c0.3-0.2,0.3-0.2,0.4-0.1c0.1,0.1,0.1,0.2,0.1,0.3
						c0,0.1-0.1,0.2-0.4,0.4c-0.3,0.1-0.6,0.4-0.9,0.6c-0.3,0.3-0.4,0.4-0.6,0.4c-0.1,0-0.1,0-0.2,0l0,0h0c0,0,0,0,0,0v0
						c0,0,0,0.1,0.1,0.1c0.1,0.1,0.2,0.1,0.3,0.1c0.3,0,1.1-0.3,1.3-0.5c0.2-0.2,0.5-0.2,0.7-0.1c0.3,0.2-0.2,0.5-1.1,0.8
						c-0.3,0.1-0.6,0.2-0.7,0.2h0l0,0l0,0c0,0,0,0,0,0c0,0,0,0.1,0,0.1c0.1,0.1,0.6,0.1,1,0c0.2-0.1,0.6-0.2,0.9-0.4
						c0.6-0.3,0.6-0.3,0.8-0.2c0.5,0.3,0.5,0.7-0.1,1.5c-0.3,0.3-0.5,0.5-0.9,0.6c-0.2,0-0.5,0.3-0.5,0.4c0,0,0,0,0,0H14
						c0,0,0,0,0.1-0.1c0.1-0.2,0.4-0.3,0.7-0.3c0.3,0,0.7-0.2,0.9-0.4c0.2-0.2,0.5-0.3,0.7-0.2c0.1,0.1,0.2,0.1,0.3,0
						c0.2-0.1,0.3,0,0.3,0.1c0,0.1,0.1,0.2,0.2,0.2c0.1,0.1,0.3,0.2,0.4,0.3c0.1,0.1,0.2,0.1,0.2,0.1c0,0,0,0,0,0h0c0,0,0,0,0,0h0h0
						l0,0h0c0,0,0,0,0,0h0h0c0,0,0,0,0,0l0,0l0,0c0,0,0,0,0,0c0,0,0-0.1-0.1-0.2c0-0.1-0.1-0.1-0.1-0.2v0h0c0,0,0,0,0,0h0l0,0l0,0h0
						h0l0,0c0,0,0.2,0,0.5,0c0.4,0,0.4,0.1,0.7,0.3c0.1,0.1,0.2,0.2,0.3,0.2h0.2c0,0,0.1,0,0.1-0.1l0,0c0,0,0,0,0,0l0,0c0,0,0,0,0,0
						l0,0l0,0c0,0-0.2-0.3-0.5-0.5c-0.6-0.5-0.7-0.7-0.7-1.4c0-0.4,0-0.5,0.1-0.6c0.2-0.2,0.2-0.2,0.6,0c0.3,0.2,0.4,0.2,1,0.2
						c0.7,0,0.7,0,1.1,0.2c0.2,0.1,0.4,0.3,0.5,0.3c0.2,0.2,0.4,0.2,0.5,0c0.1-0.2-0.4-0.5-1.1-0.9c-0.8-0.4-0.9-0.5-0.5-0.7
						c0.2-0.1,0.2-0.1,0.5,0.1c0.3,0.1,0.4,0.2,0.5,0.1l0.2,0l-0.5-0.4c-0.3-0.2-0.5-0.4-0.6-0.5c-0.1-0.2-0.4-0.3-0.7-0.3
						c-0.1,0-0.2,0-0.3-0.1c0,0,0,0,0,0h0h0c-0.1-0.1,0.1-0.2,0.8-0.2c0.8,0,0.9-0.1,0.4-0.3C20.5,9.2,20.2,9.1,20,9
						c-0.2,0-0.4-0.1-0.4-0.2c0,0,0,0,0,0c0,0,0,0,0,0c0,0,0,0,0-0.1c0,0,0.2,0,0.5,0c0.4,0.1,0.5,0.1,0.6,0c0-0.1-0.1-0.2-0.5-0.4
						c-0.3-0.2-0.7-0.5-0.9-0.7c-0.2-0.2-0.5-0.4-0.6-0.5c-0.2-0.1-0.3-0.2-0.2-0.2c0-0.1,0.4-0.1,0.6,0c0.1,0.1,0.3,0.1,0.5,0.1
						l0.3,0l-0.2-0.1c-0.2-0.1-0.8-0.5-0.9-0.6l0,0c0,0,0,0,0,0v0l0,0h0h0v0c0,0,0.2,0,0.3,0l0.3,0l-0.5-0.4
						c-0.3-0.3-0.6-0.4-0.8-0.4c-0.2,0-0.4-0.1-0.5-0.1c-0.2,0-0.5-0.4-0.7-0.7L16.9,4.6z M15.8,6.5C15.8,6.5,15.8,6.5,15.8,6.5
						c0.1,0,0.1,0,0.1,0c0,0,0,0,0,0l0,0c0,0,0,0,0,0c0,0,0,0,0,0c0,0,0,0,0,0v0c0,0,0,0,0,0c0,0,0,0,0,0c0,0-0.1,0.1-0.2,0.2
						c-0.1,0-0.1,0.1-0.1,0.1c0,0,0,0,0,0s0,0,0,0c0,0,0,0,0,0c0,0,0-0.1,0-0.1C15.6,6.5,15.7,6.5,15.8,6.5 M17.4,6.6
						C17.4,6.6,17.4,6.6,17.4,6.6c0.1,0,0.2,0,0.2,0.1c0,0.1,0,0.1-0.2,0.1c-0.1,0-0.1,0-0.2,0c0,0,0,0,0-0.1
						C17.2,6.7,17.3,6.6,17.4,6.6 M16.9,6.7c0.1,0,0.1,0,0.1,0.1C17,6.9,17,7,16.8,7c-0.1,0-0.3,0.1-0.3,0h0h0
						c-0.1-0.1,0-0.2,0.2-0.3C16.8,6.7,16.9,6.7,16.9,6.7 M18,6.7c0.1,0,0.1,0.1,0.1,0.2C18.1,6.9,18,7,17.9,7c-0.1,0-0.1,0-0.1-0.1
						C17.8,6.7,17.8,6.7,18,6.7C18,6.7,18,6.7,18,6.7 M16.2,7C16.2,7,16.2,7,16.2,7c0.2,0,0.1,0.3-0.1,0.4c-0.2,0.1-0.3,0.2-0.4,0.1
						l0,0c0,0,0,0,0,0h0l0,0l0,0v0c0,0,0,0,0,0l0,0C15.7,7.3,16,7,16.2,7 M17.5,7.6c0.1,0,0.1,0.1,0.1,0.2c0,0.1-0.1,0.1-0.2,0.1
						c-0.1,0-0.1,0-0.1,0l0,0c0,0,0,0,0,0c0,0,0,0,0,0l0,0c0,0,0,0,0,0c0,0,0-0.1,0.1-0.2C17.4,7.7,17.5,7.6,17.5,7.6 M17,7.7
						C17,7.7,17,7.7,17,7.7c0.1,0,0.2,0.1,0,0.2c-0.1,0-0.1,0.1-0.1,0.1c0,0,0,0,0,0l0,0c0,0-0.1,0-0.2-0.1l-0.2-0.1l0.2-0.1
						C16.8,7.7,16.9,7.7,17,7.7 M18.2,7.8c0.1,0,0.1,0,0.2,0c0.1,0.1,0.1,0.1,0.1,0.2c0,0.2-0.1,0.2-0.5,0.1
						c-0.2-0.1-0.2-0.1-0.1-0.2C17.9,7.9,18,7.8,18.2,7.8 M15.6,7.9C15.6,7.9,15.6,7.9,15.6,7.9c0.3,0,0.3,0,0.2,0.2
						c0,0.1-0.1,0.1-0.2,0.2c-0.1,0.1-0.1,0.1-0.2-0.1c-0.1-0.1-0.1-0.2-0.1-0.3C15.4,7.9,15.5,7.9,15.6,7.9 M14.9,8
						c0.1,0,0.2,0,0.3,0.2l0.1,0.2l-0.2,0.1c-0.2,0.1-0.2,0.1-0.3-0.1c-0.1-0.1-0.1-0.2-0.1-0.3c0,0,0,0,0,0c0,0,0,0,0,0h0
						C14.7,8,14.8,8,14.9,8C14.9,8,14.9,8,14.9,8 M18.9,8.6c0.1,0,0.2,0.1,0.2,0.2c0,0.2-0.2,0.2-0.4,0.1c-0.1-0.1-0.1-0.1,0-0.2
						C18.8,8.6,18.8,8.6,18.9,8.6 M16.6,8.9C16.6,8.9,16.6,8.9,16.6,8.9C16.7,8.9,16.7,8.9,16.6,8.9C16.7,8.9,16.7,8.9,16.6,8.9
						C16.7,8.9,16.7,8.9,16.6,8.9L16.6,8.9L16.6,8.9L16.6,8.9c0.1,0,0.1,0.1,0.1,0.1c0,0.2-0.1,0.2-0.2,0.1
						C16.5,9,16.5,8.9,16.6,8.9 M15.9,9.1c0.1,0,0.1,0,0.2,0.1c0.1,0,0.1,0.1,0.1,0.1c0,0,0,0,0,0c0,0,0,0,0,0c0,0,0,0,0,0
						c0,0,0,0,0,0c0,0,0,0,0,0h0c0,0,0,0,0,0c0,0,0,0,0,0c0,0-0.1,0-0.2,0C15.9,9.2,15.8,9.2,15.9,9.1C15.8,9.1,15.8,9.1,15.9,9.1
						L15.9,9.1C15.8,9.1,15.8,9.1,15.9,9.1 M17.1,9.1C17.1,9.1,17.1,9.1,17.1,9.1c0.1,0.1,0.2,0.2,0.2,0.3c0.1,0.2,0,0.3-0.2,0.2
						C16.9,9.5,16.9,9.3,17.1,9.1C17,9.1,17.1,9.1,17.1,9.1 M17.5,9.3c0,0,0.1,0.1,0.1,0.2c0,0.1,0,0.1,0,0.1h0c0,0,0,0,0,0l0,0h0
						l0,0h0h0h0c-0.1,0-0.1-0.1-0.1-0.2C17.5,9.4,17.5,9.3,17.5,9.3 M14.9,9.6c0.1,0,0.2,0,0.2,0c0.1,0,0.1,0,0.2,0.1c0,0,0,0,0,0
						c0,0,0,0,0,0c0,0,0,0,0,0c0,0.1-0.1,0.1-0.2,0.2c-0.1,0.1-0.3,0.1-0.4,0.2c-0.2,0-0.2,0-0.3-0.2c0-0.1-0.1-0.2-0.1-0.2l0,0
						c0,0,0,0,0,0l0,0c0,0,0,0,0,0v0C14.2,9.6,14.6,9.6,14.9,9.6 M19,10.2c0.2,0,0.4,0.1,0.1,0.3c-0.2,0.1-0.4,0.1-0.6,0
						c-0.1-0.1-0.1-0.1,0.1-0.2C18.7,10.2,18.9,10.2,19,10.2 M19.8,10.4C19.8,10.4,19.8,10.4,19.8,10.4c0,0,0.1,0,0.2,0.1
						c0.1,0.1,0.1,0.1,0,0.3c-0.1,0.1-0.1,0.2-0.2,0.2l0,0h0l0,0h0c0,0-0.1,0-0.2,0c-0.1,0-0.2-0.1-0.2-0.1c0,0,0,0,0,0
						C19.4,10.6,19.7,10.4,19.8,10.4 M15.5,10.6C15.5,10.6,15.5,10.6,15.5,10.6c0.2,0,0.3,0.1,0.3,0.4c0,0.3-0.2,0.3-0.3,0
						C15.4,10.7,15.4,10.6,15.5,10.6 M16.7,10.7c0.1,0,0.3,0.1,0.4,0.1l0,0l0,0l0,0l0,0l0,0v0l0,0c0,0-0.1,0.1-0.1,0.2l-0.1,0.2
						L16.7,11C16.7,10.9,16.7,10.8,16.7,10.7C16.7,10.8,16.7,10.8,16.7,10.7C16.7,10.8,16.7,10.8,16.7,10.7L16.7,10.7L16.7,10.7
						L16.7,10.7C16.7,10.7,16.7,10.7,16.7,10.7C16.7,10.7,16.7,10.7,16.7,10.7L16.7,10.7L16.7,10.7C16.7,10.7,16.7,10.7,16.7,10.7
						 M16.1,10.8C16.1,10.8,16.2,10.8,16.1,10.8c0.2,0,0.2,0.1,0.2,0.2c0,0.1,0,0.1,0,0.2c0,0,0,0,0,0c0,0,0,0,0,0c0,0,0,0,0,0
						c0,0,0,0,0,0h0c0,0,0,0,0,0c0,0-0.1-0.1-0.1-0.2C16.1,10.9,16.1,10.9,16.1,10.8L16.1,10.8C16.1,10.8,16.1,10.8,16.1,10.8"/>
				</g>
			</g>
		</g>
	</g>
</g>
</svg>
