<?xml version="1.0" encoding="utf-8"?>
<!-- Generator: Adobe Illustrator 21.1.0, SVG Export Plug-In . SVG Version: 6.00 Build 0)  -->
<svg version="1.1" xmlns="http://www.w3.org/2000/svg" xmlns:xlink="http://www.w3.org/1999/xlink" x="0px" y="0px"
	 viewBox="0 0 34 19" style="enable-background:new 0 0 34 19;" xml:space="preserve">
<style type="text/css">
	.st0{clip-path:url(#SVGID_2_);fill:#1C2A7D;}
	.st1{clip-path:url(#SVGID_2_);}
	.st2{clip-path:url(#SVGID_4_);fill:#F6D849;}
	.st3{clip-path:url(#SVGID_4_);}
	.st4{clip-path:url(#SVGID_4_);fill:#BC0030;}
	.st5{clip-path:url(#SVGID_4_);fill:#ED00FD;}
</style>
<g id="Calque_1">
</g>
<g id="_x34_">
	<g id="LIECHTENSTEIN_3_">
		<g>
			<g>
				<defs>
					<rect id="SVGID_1_" x="-0.5" y="-0.3" width="34.9" height="19.6"/>
				</defs>
				<clipPath id="SVGID_2_">
					<use xlink:href="#SVGID_1_"  style="overflow:visible;"/>
				</clipPath>
				<rect x="-0.5" y="-0.3" class="st0" width="34.9" height="19.6"/>
				<g class="st1">
					<defs>
						<rect id="SVGID_3_" x="-0.5" y="-0.3" width="34.9" height="19.6"/>
					</defs>
					<clipPath id="SVGID_4_">
						<use xlink:href="#SVGID_3_"  style="overflow:visible;"/>
					</clipPath>
					<path class="st2" d="M7.3,3.7l-0.1,2H5.2C4.9,5.2,4.7,4.8,4.7,4.3c0-0.5,0.4-0.9,0.9-0.9C6.2,3.4,6.8,3.6,7.3,3.7L7.3,3.7z"/>
					<g class="st3">
						<path d="M4.9,5C4.9,5,4.9,5,4.9,5l0-1.2c0,0,0.1,0,0.1,0L4.9,5C5,5,4.9,5,4.9,5L4.9,5z"/>
					</g>
					<g class="st3">
						<path d="M5.1,5.3C5.1,5.3,5.1,5.3,5.1,5.3l0-1.6c0,0,0.1,0,0.1,0L5.1,5.3C5.1,5.3,5.1,5.3,5.1,5.3L5.1,5.3z"/>
					</g>
					<g class="st3">
						<path d="M5.3,5.5C5.3,5.5,5.2,5.5,5.3,5.5l0-1.9c0,0,0.1,0,0.1,0L5.3,5.5C5.3,5.5,5.3,5.5,5.3,5.5L5.3,5.5z"/>
					</g>
					<g class="st3">
						<path d="M5.4,5C5.4,5,5.4,5,5.4,5l0-1.5c0,0,0.1,0,0.1,0L5.4,5C5.5,5,5.4,5,5.4,5L5.4,5z"/>
					</g>
					<g class="st3">
						<path d="M5.6,5.1C5.6,5.1,5.6,5,5.6,5.1l0-1.5c0,0,0,0,0,0L5.6,5.1C5.6,5,5.6,5.1,5.6,5.1L5.6,5.1z"/>
					</g>
					<g class="st3">
						<path d="M5.8,5C5.8,5,5.7,5,5.8,5l0-1.6c0,0,0,0,0,0L5.8,5C5.8,5,5.8,5,5.8,5L5.8,5z"/>
					</g>
					<g class="st3">
						<path d="M5.9,5C5.9,5,5.9,5,5.9,5l0-1.6c0,0,0,0,0,0L5.9,5C6,5,5.9,5,5.9,5L5.9,5z"/>
					</g>
					<g class="st3">
						<path d="M6.1,5.1C6.1,5.1,6.1,5.1,6.1,5.1l0-1.6c0,0,0.1,0,0.1,0L6.1,5.1C6.1,5.1,6.1,5.1,6.1,5.1L6.1,5.1z"/>
					</g>
					<g class="st3">
						<path d="M6.3,5.1C6.2,5.1,6.2,5.1,6.3,5.1l0-1.6c0,0,0.1,0,0.1,0L6.3,5.1C6.3,5.1,6.3,5.1,6.3,5.1L6.3,5.1z"/>
					</g>
					<g class="st3">
						<path d="M6.4,5.2C6.4,5.2,6.4,5.2,6.4,5.2l0-1.6c0,0,0.1,0,0.1,0L6.4,5.2C6.5,5.2,6.4,5.2,6.4,5.2L6.4,5.2z"/>
					</g>
					<g class="st3">
						<path d="M6.6,5.4C6.6,5.4,6.6,5.4,6.6,5.4l0-1.7c0,0,0,0,0,0L6.6,5.4C6.6,5.4,6.6,5.4,6.6,5.4L6.6,5.4z"/>
					</g>
					<g class="st3">
						<path d="M6.8,5.2C6.7,5.2,6.7,5.2,6.8,5.2l0-1.6c0,0,0,0,0,0L6.8,5.2C6.8,5.2,6.8,5.2,6.8,5.2L6.8,5.2z"/>
					</g>
					<g class="st3">
						<path d="M6.9,5.2C6.9,5.2,6.9,5.2,6.9,5.2l0-1.6c0,0,0,0,0,0L6.9,5.2C6.9,5.2,6.9,5.2,6.9,5.2L6.9,5.2z"/>
					</g>
					<path class="st3" d="M6,3.6C6.3,3.6,7.1,4,7,4.5C6.9,5.2,6.5,4.9,5.9,4.8L5.5,4.9C5.4,5.1,5.2,5.2,5,5H4.8V6h2.7V3.7L6,3.6z"/>
					<g class="st3">
						<path d="M7.4,6H4.8l0-1L5,5c0.2,0.2,0.4,0,0.5-0.1l0.4-0.1c0.1,0,0.2,0,0.3,0.1c0.1,0,0.3,0.1,0.4,0.1c0.1,0,0.3-0.1,0.4-0.4
							c0-0.1,0-0.2-0.1-0.3C6.7,3.8,6.2,3.6,6,3.6c0,0,0,0,0,0c0,0,0,0,0,0l1.5,0.1L7.4,6C7.5,6,7.5,6,7.4,6L7.4,6z M5,5L4.8,5
							l0,0.9l2.6,0V3.7L6.2,3.6c0.3,0.1,0.6,0.3,0.7,0.5C7,4.2,7.1,4.3,7,4.5C7,4.8,6.8,4.9,6.6,4.9c-0.1,0-0.2,0-0.4-0.1
							c-0.1,0-0.2,0-0.3-0.1L5.5,4.9C5.5,5,5.3,5.1,5.2,5.1C5.1,5.1,5.1,5.1,5,5L5,5z"/>
					</g>
					<path class="st2" d="M7.3,3.4c0,0.1-0.1,0.2-0.2,0.2C7.1,3.6,7,3.5,7,3.4l0,0c0-0.1,0.1-0.2,0.2-0.2C7.3,3.2,7.3,3.3,7.3,3.4
						L7.3,3.4z"/>
					<g class="st3">
						<path d="M7.2,3.6C7.1,3.6,7,3.5,7,3.4c0-0.1,0.1-0.2,0.2-0.2c0.1,0,0.2,0.1,0.2,0.2C7.3,3.5,7.3,3.6,7.2,3.6L7.2,3.6z
							 M7.2,3.3C7.1,3.3,7,3.3,7,3.4c0,0.1,0.1,0.1,0.1,0.1c0.1,0,0.1-0.1,0.1-0.1C7.3,3.3,7.2,3.3,7.2,3.3L7.2,3.3z"/>
					</g>
					<path class="st2" d="M7,3.3c0,0.1-0.1,0.2-0.2,0.2c-0.1,0-0.2-0.1-0.2-0.2l0,0c0-0.1,0.1-0.2,0.2-0.2C6.9,3.1,7,3.2,7,3.3
						L7,3.3z"/>
					<g class="st3">
						<path d="M6.8,3.5c-0.1,0-0.2-0.1-0.2-0.2c0-0.1,0.1-0.2,0.2-0.2C6.9,3.1,7,3.2,7,3.3c0,0,0,0.1-0.1,0.1
							C6.9,3.5,6.8,3.5,6.8,3.5L6.8,3.5z M6.8,3.2c-0.1,0-0.1,0.1-0.1,0.1c0,0.1,0.2,0.2,0.2,0.1c0,0,0-0.1,0-0.1
							C6.9,3.2,6.9,3.2,6.8,3.2L6.8,3.2z"/>
					</g>
					<path class="st2" d="M6.6,3.2c0,0.1-0.1,0.2-0.2,0.2c-0.1,0-0.2-0.1-0.2-0.2l0,0c0-0.1,0.1-0.2,0.2-0.2
						C6.5,3.1,6.6,3.1,6.6,3.2L6.6,3.2z"/>
					<g class="st3">
						<path d="M6.4,3.4L6.4,3.4c-0.1,0-0.2-0.1-0.2-0.2C6.2,3.1,6.3,3,6.4,3c0.1,0,0.2,0.1,0.2,0.2C6.6,3.3,6.5,3.4,6.4,3.4L6.4,3.4
							z M6.4,3.1c-0.1,0-0.1,0.1-0.1,0.1c0,0.1,0.1,0.1,0.1,0.1c0.1,0,0.1-0.1,0.1-0.1C6.6,3.1,6.5,3.1,6.4,3.1L6.4,3.1z"/>
					</g>
					<path class="st2" d="M6.2,3.2c0,0.1-0.1,0.2-0.2,0.2C6,3.3,5.9,3.2,5.9,3.2l0,0C5.9,3.1,6,3,6.1,3C6.2,3,6.2,3.1,6.2,3.2
						L6.2,3.2z"/>
					<g class="st3">
						<path d="M6.1,3.3C6,3.3,5.9,3.3,5.9,3.2C5.9,3.1,6,3,6.1,3c0.1,0,0.2,0.1,0.2,0.2C6.3,3.3,6.2,3.3,6.1,3.3L6.1,3.3z M6.1,3
							C6,3,5.9,3.1,5.9,3.2c0,0.1,0.1,0.1,0.1,0.1c0.1,0,0.1-0.1,0.1-0.1C6.2,3.1,6.1,3,6.1,3L6.1,3z"/>
					</g>
					<path class="st2" d="M5.9,3.1c0,0.1-0.1,0.2-0.2,0.2c-0.1,0-0.2-0.1-0.2-0.2l0,0C5.5,3,5.6,3,5.7,3C5.8,3,5.9,3,5.9,3.1
						L5.9,3.1z"/>
					<g class="st3">
						<path d="M5.7,3.3c-0.1,0-0.2-0.1-0.2-0.2c0-0.1,0.1-0.2,0.2-0.2c0.1,0,0.2,0.1,0.2,0.2C5.9,3.2,5.8,3.3,5.7,3.3L5.7,3.3z
							 M5.7,3C5.6,3,5.6,3,5.6,3.1c0,0.1,0.1,0.1,0.1,0.1c0.1,0,0.1-0.1,0.1-0.1C5.8,3,5.8,3,5.7,3L5.7,3z"/>
					</g>
					<path class="st2" d="M5.5,3.1c0,0.1-0.1,0.2-0.2,0.2c-0.1,0-0.2-0.1-0.2-0.2l0,0C5.2,3.1,5.2,3,5.3,3C5.4,3,5.5,3.1,5.5,3.1
						L5.5,3.1z"/>
					<g class="st3">
						<path d="M5.3,3.3c-0.1,0-0.2-0.1-0.2-0.2c0,0,0-0.1,0.1-0.1c0.1-0.1,0.3,0,0.3,0.1C5.5,3.2,5.4,3.3,5.3,3.3L5.3,3.3z M5.3,3
							C5.3,3,5.3,3,5.3,3C5.2,3.1,5.2,3.1,5.2,3.1c0,0.1,0.1,0.1,0.1,0.1c0.1,0,0.1-0.1,0.1-0.1S5.4,3,5.3,3L5.3,3z"/>
					</g>
					<path class="st2" d="M5.2,3.3c0,0.1-0.1,0.2-0.2,0.2c-0.1,0-0.2-0.1-0.2-0.2l0,0c0-0.1,0.1-0.2,0.2-0.2
						C5.1,3.1,5.2,3.2,5.2,3.3L5.2,3.3z"/>
					<g class="st3">
						<path d="M5,3.4c-0.1,0-0.2-0.1-0.2-0.2C4.8,3.1,5,3,5.1,3.1c0,0,0.1,0.1,0.1,0.1C5.2,3.4,5.1,3.4,5,3.4L5,3.4z M5,3.1
							c-0.1,0-0.1,0.1-0.1,0.1c0,0.1,0.1,0.1,0.1,0.1c0.1,0,0.1-0.1,0.1-0.1C5.1,3.2,5.1,3.1,5,3.1L5,3.1z"/>
					</g>
					<path class="st2" d="M4.9,3.5c0,0.1-0.1,0.2-0.2,0.2c-0.1,0-0.2-0.1-0.2-0.2l0,0c0-0.1,0.1-0.2,0.2-0.2
						C4.8,3.3,4.9,3.4,4.9,3.5L4.9,3.5z"/>
					<g class="st3">
						<path d="M4.7,3.7c-0.1,0-0.2-0.1-0.2-0.2c0-0.1,0.1-0.2,0.2-0.2c0.1,0,0.2,0.1,0.2,0.2C4.9,3.6,4.8,3.7,4.7,3.7L4.7,3.7z
							 M4.7,3.3c-0.1,0-0.1,0.1-0.1,0.1s0.1,0.1,0.1,0.1c0.1,0,0.1-0.1,0.1-0.1S4.8,3.3,4.7,3.3L4.7,3.3z"/>
					</g>
					<path class="st2" d="M4.7,3.8c0,0.1-0.1,0.2-0.2,0.2c-0.1,0-0.2-0.1-0.2-0.2l0,0c0-0.1,0.1-0.2,0.2-0.2
						C4.6,3.6,4.7,3.7,4.7,3.8L4.7,3.8z"/>
					<g class="st3">
						<path d="M4.5,4C4.4,4,4.3,3.9,4.3,3.8c0,0,0-0.1,0.1-0.1c0.1-0.1,0.3,0,0.3,0.1C4.7,3.9,4.6,4,4.5,4L4.5,4z M4.5,3.6
							C4.5,3.6,4.4,3.6,4.5,3.6C4.4,3.7,4.4,3.7,4.4,3.8c0,0.1,0.1,0.1,0.1,0.1c0.1,0,0.1-0.1,0.1-0.1C4.6,3.7,4.6,3.6,4.5,3.6
							L4.5,3.6z"/>
					</g>
					<path class="st2" d="M4.6,4.1c0,0.1-0.1,0.2-0.2,0.2c-0.1,0-0.2-0.1-0.2-0.2l0,0C4.2,4,4.3,4,4.4,4C4.5,4,4.6,4,4.6,4.1
						L4.6,4.1z"/>
					<g class="st3">
						<path d="M4.4,4.3c-0.1,0-0.2-0.1-0.2-0.2c0-0.1,0.1-0.2,0.2-0.2c0.1,0,0.2,0.1,0.2,0.2C4.6,4.2,4.5,4.3,4.4,4.3L4.4,4.3z
							 M4.4,4C4.3,4,4.3,4,4.3,4.1c0,0.1,0.1,0.1,0.1,0.1c0.1,0,0.1-0.1,0.1-0.1C4.5,4,4.5,4,4.4,4L4.4,4z"/>
					</g>
					<path class="st2" d="M4.6,4.5c0,0.1-0.1,0.2-0.2,0.2c-0.1,0-0.2-0.1-0.2-0.2l0,0c0-0.1,0.1-0.2,0.2-0.2
						C4.5,4.3,4.6,4.4,4.6,4.5L4.6,4.5z"/>
					<g class="st3">
						<path d="M4.4,4.7c-0.1,0-0.2-0.1-0.2-0.2c0-0.1,0.1-0.2,0.2-0.2c0.1,0,0.2,0.1,0.2,0.2C4.6,4.6,4.5,4.7,4.4,4.7L4.4,4.7z
							 M4.4,4.4c-0.1,0-0.1,0.1-0.1,0.1c0,0.1,0.1,0.1,0.1,0.1c0.1,0,0.1-0.1,0.1-0.1C4.5,4.4,4.5,4.4,4.4,4.4L4.4,4.4z"/>
					</g>
					<path class="st2" d="M4.6,4.8C4.6,4.9,4.6,5,4.5,5C4.4,5,4.3,4.9,4.3,4.8l0,0c0-0.1,0.1-0.2,0.2-0.2C4.6,4.7,4.6,4.8,4.6,4.8
						L4.6,4.8z"/>
					<g class="st3">
						<path d="M4.5,5C4.4,5,4.3,4.9,4.3,4.8c0-0.1,0.1-0.2,0.2-0.2c0.1,0,0.2,0.1,0.2,0.2C4.7,4.9,4.6,5,4.5,5L4.5,5z M4.5,4.7
							c-0.1,0-0.1,0.1-0.1,0.1C4.3,4.9,4.4,5,4.5,5c0.1,0,0.1-0.1,0.1-0.1C4.6,4.8,4.5,4.7,4.5,4.7L4.5,4.7z"/>
					</g>
					<path class="st2" d="M7.2,3.6l0,0.2c-0.4-0.1-1-0.3-1.5-0.3c-0.5,0-0.9,0.2-0.9,0.7c0,0.5,0.2,0.9,0.5,1.4L5,5.7
						C4.8,5.2,4.6,4.8,4.6,4.3c0-0.5,0.4-0.9,1-0.9C6.2,3.3,6.8,3.5,7.2,3.6L7.2,3.6z"/>
					<g class="st3">
						<path d="M5,5.8C5,5.8,5,5.8,5,5.8C4.8,5.3,4.6,4.8,4.6,4.3c0-0.5,0.4-1,1-1c0.4,0,0.9,0.1,1.3,0.2c0.1,0,0.2,0.1,0.4,0.1
							l0,0.2c0,0,0,0,0,0c-0.2,0-0.3,0-0.5-0.1c-0.3-0.1-0.7-0.2-1-0.2c-0.3,0-0.8,0.1-0.8,0.7c0,0.5,0.2,1,0.5,1.4L5,5.8
							C5.1,5.8,5,5.8,5,5.8L5,5.8z M5.6,3.3c-0.6,0-1,0.5-1,0.9c0,0.6,0.2,1,0.5,1.5l0.3-0.1C5.1,5.2,4.8,4.8,4.8,4.2
							c0-0.5,0.3-0.7,0.9-0.7c0.3,0,0.7,0.1,1,0.2c0.2,0,0.3,0.1,0.5,0.1l0-0.2h0c-0.1,0-0.2,0-0.3-0.1C6.5,3.4,6,3.3,5.6,3.3
							L5.6,3.3z"/>
					</g>
					<path class="st2" d="M7.6,3.7l0.1,2h2.1c0.3-0.5,0.5-0.9,0.5-1.5c0-0.5-0.4-0.9-0.9-0.9C8.8,3.4,8.1,3.6,7.6,3.7L7.6,3.7z"/>
					<g class="st3">
						<path d="M10,5C10,5,10,5,10,5l0-1.2c0,0,0,0,0,0L10,5C10,5,10,5,10,5L10,5z"/>
					</g>
					<g class="st3">
						<path d="M9.8,5.3C9.8,5.3,9.8,5.3,9.8,5.3l0-1.6c0,0,0.1,0,0.1,0L9.8,5.3C9.8,5.3,9.8,5.3,9.8,5.3L9.8,5.3z"/>
					</g>
					<g class="st3">
						<path d="M9.7,5.5C9.6,5.5,9.6,5.5,9.7,5.5l0-1.9c0,0,0.1,0,0.1,0L9.7,5.5C9.7,5.5,9.7,5.5,9.7,5.5L9.7,5.5z"/>
					</g>
					<g class="st3">
						<path d="M9.5,5C9.5,5,9.5,5,9.5,5l0-1.5c0,0,0.1,0,0.1,0L9.5,5C9.5,5,9.5,5,9.5,5L9.5,5z"/>
					</g>
					<g class="st3">
						<path d="M9.3,5.1C9.3,5.1,9.3,5,9.3,5.1l0-1.5c0,0,0,0,0,0L9.3,5.1C9.3,5,9.3,5.1,9.3,5.1L9.3,5.1z"/>
					</g>
					<g class="st3">
						<path d="M9.2,5C9.1,5,9.1,5,9.2,5l0-1.6c0,0,0,0,0,0L9.2,5C9.2,5,9.2,5,9.2,5L9.2,5z"/>
					</g>
					<g class="st3">
						<path d="M9,5C9,5,9,5,9,5l0-1.6c0,0,0,0,0,0L9,5C9,5,9,5,9,5L9,5z"/>
					</g>
					<g class="st3">
						<path d="M8.8,5.1C8.8,5.1,8.8,5.1,8.8,5.1l0-1.6c0,0,0.1,0,0.1,0L8.8,5.1C8.9,5.1,8.8,5.1,8.8,5.1L8.8,5.1z"/>
					</g>
					<g class="st3">
						<path d="M8.7,5.1C8.6,5.1,8.6,5.1,8.7,5.1l0-1.6c0,0,0.1,0,0.1,0L8.7,5.1C8.7,5.1,8.7,5.1,8.7,5.1L8.7,5.1z"/>
					</g>
					<g class="st3">
						<path d="M8.5,5.2C8.5,5.2,8.5,5.2,8.5,5.2l0-1.6c0,0,0.1,0,0.1,0L8.5,5.2C8.5,5.2,8.5,5.2,8.5,5.2L8.5,5.2z"/>
					</g>
					<g class="st3">
						<path d="M8.3,5.4C8.3,5.4,8.3,5.4,8.3,5.4l0-1.7c0,0,0,0,0,0L8.3,5.4C8.4,5.4,8.3,5.4,8.3,5.4L8.3,5.4z"/>
					</g>
					<g class="st3">
						<path d="M8.2,5.2C8.1,5.2,8.1,5.2,8.2,5.2l0-1.6c0,0,0.1,0,0.1,0L8.2,5.2C8.2,5.2,8.2,5.2,8.2,5.2L8.2,5.2z"/>
					</g>
					<g class="st3">
						<path d="M8,5.2C8,5.2,8,5.2,8,5.2l0-1.6c0,0,0.1,0,0.1,0L8,5.2C8,5.2,8,5.2,8,5.2L8,5.2z"/>
					</g>
					<path class="st3" d="M8.9,3.6C8.6,3.6,7.8,4,7.9,4.5C8,5.2,8.4,4.9,9,4.8l0.4,0.1C9.5,5.1,9.7,5.2,9.9,5h0.2V6H7.5V3.7L8.9,3.6
						z"/>
					<g class="st3">
						<path d="M10.1,6H7.5l0-2.3l1.5-0.2c0,0,0,0,0,0c0,0,0,0,0,0C8.7,3.6,8.2,3.8,8,4.1C7.9,4.2,7.9,4.3,7.9,4.5
							C8,4.8,8.2,4.9,8.3,4.9c0.1,0,0.2,0,0.4-0.1c0.1,0,0.2,0,0.3-0.1l0.4,0.1C9.5,5,9.7,5.2,9.9,5l0.3,0V6C10.2,6,10.1,6,10.1,6
							L10.1,6z M8.7,3.6L7.5,3.7l0,2.2l2.6,0V5L9.9,5c0,0.1-0.1,0.1-0.2,0.1C9.6,5.1,9.4,5,9.4,4.9L9,4.8c-0.1,0-0.2,0-0.3,0.1
							c-0.1,0-0.3,0.1-0.4,0.1c-0.2,0-0.4-0.1-0.4-0.5c0-0.1,0-0.3,0.1-0.4C8.1,3.9,8.4,3.7,8.7,3.6L8.7,3.6z"/>
					</g>
					<path class="st2" d="M7.6,3.4c0,0.1,0.1,0.2,0.2,0.2c0.1,0,0.2-0.1,0.2-0.2l0,0c0-0.1-0.1-0.2-0.2-0.2C7.7,3.2,7.6,3.3,7.6,3.4
						L7.6,3.4z"/>
					<g class="st3">
						<path d="M7.8,3.6c-0.1,0-0.2-0.1-0.2-0.2c0-0.1,0.1-0.2,0.2-0.2c0.1,0,0.2,0.1,0.2,0.2C7.9,3.5,7.9,3.6,7.8,3.6L7.8,3.6z
							 M7.8,3.3c-0.1,0-0.1,0.1-0.1,0.1c0,0.1,0.1,0.1,0.1,0.1c0.1,0,0.1-0.1,0.1-0.1C7.9,3.3,7.8,3.3,7.8,3.3L7.8,3.3z"/>
					</g>
					<path class="st2" d="M8,3.3C8,3.4,8,3.5,8.1,3.5c0.1,0,0.2-0.1,0.2-0.2l0,0c0-0.1-0.1-0.2-0.2-0.2C8,3.1,8,3.2,8,3.3L8,3.3z"/>
					<g class="st3">
						<path d="M8.1,3.5C8,3.5,7.9,3.4,7.9,3.3c0-0.1,0.1-0.2,0.2-0.2c0.1,0,0.2,0.1,0.2,0.2C8.3,3.4,8.2,3.5,8.1,3.5L8.1,3.5z
							 M8.1,3.2C8,3.2,8,3.2,8,3.3C8,3.4,8,3.4,8.1,3.4c0.1,0,0.1-0.1,0.1-0.1C8.3,3.2,8.2,3.2,8.1,3.2L8.1,3.2z"/>
					</g>
					<path class="st2" d="M8.3,3.2c0,0.1,0.1,0.2,0.2,0.2c0.1,0,0.2-0.1,0.2-0.2l0,0c0-0.1-0.1-0.2-0.2-0.2C8.4,3.1,8.3,3.1,8.3,3.2
						L8.3,3.2z"/>
					<g class="st3">
						<path d="M8.5,3.4c-0.1,0-0.2-0.1-0.2-0.2C8.3,3.1,8.4,3,8.5,3c0.1,0,0.2,0.1,0.2,0.2c0,0.1,0,0.1-0.1,0.1
							C8.6,3.4,8.5,3.4,8.5,3.4L8.5,3.4z M8.5,3.1c-0.1,0-0.1,0.1-0.1,0.1c0,0.1,0.1,0.1,0.1,0.1l0,0c0,0,0.1,0,0.1,0
							c0,0,0-0.1,0-0.1C8.6,3.1,8.6,3.1,8.5,3.1L8.5,3.1z"/>
					</g>
					<path class="st2" d="M8.7,3.2c0,0.1,0.1,0.2,0.2,0.2C8.9,3.3,9,3.2,9,3.2l0,0C9,3.1,8.9,3,8.9,3C8.8,3,8.7,3.1,8.7,3.2L8.7,3.2
						z"/>
					<g class="st3">
						<path d="M8.9,3.3c-0.1,0-0.2-0.1-0.2-0.2C8.7,3,8.9,2.9,9,3C9,3.1,9,3.1,9,3.2C9,3.3,9,3.3,8.9,3.3L8.9,3.3z M8.9,3
							C8.8,3,8.7,3.1,8.7,3.2c0,0.1,0.1,0.1,0.1,0.1C8.9,3.3,9,3.2,9,3.2C9,3.1,9,3.1,8.9,3C8.9,3,8.9,3,8.9,3L8.9,3z"/>
					</g>
					<path class="st2" d="M9.1,3.1c0,0.1,0.1,0.2,0.2,0.2c0.1,0,0.2-0.1,0.2-0.2l0,0C9.4,3,9.3,3,9.2,3C9.1,3,9.1,3,9.1,3.1L9.1,3.1
						z"/>
					<g class="st3">
						<path d="M9.2,3.3c-0.1,0-0.1,0-0.1-0.1c0,0-0.1-0.1-0.1-0.1C9,3,9.1,2.9,9.2,2.9c0.1,0,0.2,0.1,0.2,0.2
							C9.4,3.2,9.3,3.3,9.2,3.3L9.2,3.3z M9.2,3C9.2,3,9.1,3,9.1,3.1c0,0,0,0.1,0,0.1c0.1,0.1,0.2,0,0.2-0.1C9.4,3,9.3,3,9.2,3
							L9.2,3z"/>
					</g>
					<path class="st2" d="M9.4,3.1c0,0.1,0.1,0.2,0.2,0.2c0.1,0,0.2-0.1,0.2-0.2l0,0C9.8,3.1,9.7,3,9.6,3C9.5,3,9.4,3.1,9.4,3.1
						L9.4,3.1z"/>
					<g class="st3">
						<path d="M9.6,3.3c-0.1,0-0.2-0.1-0.2-0.2C9.4,3,9.5,3,9.6,3C9.7,3,9.8,3,9.8,3.1C9.8,3.2,9.7,3.3,9.6,3.3L9.6,3.3z M9.6,3
							C9.5,3,9.5,3.1,9.5,3.1c0,0.1,0.1,0.1,0.1,0.1c0.1,0,0.1-0.1,0.1-0.1S9.7,3,9.6,3L9.6,3z"/>
					</g>
					<path class="st2" d="M9.8,3.3c0,0.1,0.1,0.2,0.2,0.2c0.1,0,0.2-0.1,0.2-0.2l0,0c0-0.1-0.1-0.2-0.2-0.2C9.8,3.1,9.8,3.2,9.8,3.3
						L9.8,3.3z"/>
					<g class="st3">
						<path d="M9.9,3.4c-0.1,0-0.2-0.1-0.2-0.2c0-0.1,0.1-0.2,0.2-0.2c0.1,0,0.2,0.1,0.2,0.2C10.1,3.4,10,3.4,9.9,3.4L9.9,3.4z
							 M9.9,3.1C9.9,3.1,9.9,3.1,9.9,3.1C9.8,3.2,9.8,3.2,9.8,3.3c0,0.1,0.1,0.1,0.1,0.1c0.1,0,0.1-0.1,0.1-0.1
							C10.1,3.2,10,3.1,9.9,3.1L9.9,3.1L9.9,3.1z"/>
					</g>
					<path class="st2" d="M10.1,3.5c0,0.1,0.1,0.2,0.2,0.2c0.1,0,0.2-0.1,0.2-0.2l0,0c0-0.1-0.1-0.2-0.2-0.2
						C10.1,3.3,10.1,3.4,10.1,3.5L10.1,3.5z"/>
					<g class="st3">
						<path d="M10.2,3.7c-0.1,0-0.2-0.1-0.2-0.2c0-0.1,0.1-0.2,0.2-0.2c0.1,0,0.2,0.1,0.2,0.2C10.4,3.6,10.3,3.7,10.2,3.7L10.2,3.7z
							 M10.2,3.3c-0.1,0-0.1,0.1-0.1,0.1s0.1,0.1,0.1,0.1c0.1,0,0.1-0.1,0.1-0.1C10.4,3.4,10.3,3.3,10.2,3.3L10.2,3.3z"/>
					</g>
					<path class="st2" d="M10.3,3.8c0,0.1,0.1,0.2,0.2,0.2c0.1,0,0.2-0.1,0.2-0.2l0,0c0-0.1-0.1-0.2-0.2-0.2
						C10.3,3.6,10.3,3.7,10.3,3.8L10.3,3.8z"/>
					<g class="st3">
						<path d="M10.4,4c-0.1,0-0.2-0.1-0.2-0.2c0-0.1,0.1-0.2,0.2-0.2c0.1,0,0.2,0.1,0.2,0.2C10.6,3.9,10.5,4,10.4,4L10.4,4z
							 M10.4,3.6c-0.1,0-0.1,0.1-0.1,0.1c0,0.1,0.1,0.1,0.1,0.1c0.1,0,0.1-0.1,0.1-0.1C10.6,3.7,10.5,3.6,10.4,3.6L10.4,3.6z"/>
					</g>
					<path class="st2" d="M10.4,4.1c0,0.1,0.1,0.2,0.2,0.2c0.1,0,0.2-0.1,0.2-0.2l0,0C10.7,4,10.6,4,10.5,4C10.4,4,10.4,4,10.4,4.1
						L10.4,4.1z"/>
					<g class="st3">
						<path d="M10.5,4.3c-0.1,0-0.2-0.1-0.2-0.2c0-0.1,0.1-0.2,0.2-0.2s0.2,0.1,0.2,0.2C10.7,4.2,10.6,4.3,10.5,4.3L10.5,4.3z
							 M10.5,4c-0.1,0-0.1,0.1-0.1,0.1c0,0.1,0.1,0.1,0.1,0.1c0.1,0,0.1-0.1,0.1-0.1C10.7,4,10.6,4,10.5,4L10.5,4z"/>
					</g>
					<path class="st2" d="M10.4,4.5c0,0.1,0.1,0.2,0.2,0.2c0.1,0,0.2-0.1,0.2-0.2l0,0c0-0.1-0.1-0.2-0.2-0.2
						C10.4,4.3,10.4,4.4,10.4,4.5L10.4,4.5z"/>
					<g class="st3">
						<path d="M10.5,4.7c-0.1,0-0.2-0.1-0.2-0.2c0-0.1,0.1-0.2,0.2-0.2c0.1,0,0.2,0.1,0.2,0.2C10.7,4.6,10.6,4.7,10.5,4.7L10.5,4.7z
							 M10.5,4.4c-0.1,0-0.1,0.1-0.1,0.1c0,0.1,0.1,0.1,0.1,0.1c0.1,0,0.1-0.1,0.1-0.1C10.7,4.4,10.6,4.4,10.5,4.4L10.5,4.4z"/>
					</g>
					<path class="st2" d="M10.3,4.8c0,0.1,0.1,0.2,0.2,0.2c0.1,0,0.2-0.1,0.2-0.2l0,0c0-0.1-0.1-0.2-0.2-0.2
						C10.4,4.7,10.3,4.8,10.3,4.8L10.3,4.8z"/>
					<g class="st3">
						<path d="M10.5,5c-0.1,0-0.2-0.1-0.2-0.2c0-0.1,0.1-0.2,0.2-0.2c0.1,0,0.2,0.1,0.2,0.2C10.6,4.9,10.6,5,10.5,5L10.5,5z
							 M10.5,4.7c-0.1,0-0.1,0.1-0.1,0.1c0,0.1,0.1,0.1,0.1,0.1c0.1,0,0.1-0.1,0.1-0.1C10.6,4.8,10.5,4.7,10.5,4.7L10.5,4.7z"/>
					</g>
					<path class="st2" d="M7.7,3.6l0,0.2c0.4-0.1,1-0.3,1.5-0.3c0.5,0,0.9,0.2,0.9,0.7c0,0.5-0.2,0.9-0.5,1.4l0.3,0.1
						c0.3-0.5,0.5-0.9,0.5-1.5c0-0.5-0.4-0.9-1-0.9C8.8,3.3,8.2,3.5,7.7,3.6L7.7,3.6z"/>
					<g class="st3">
						<path d="M9.9,5.8C9.9,5.8,9.9,5.8,9.9,5.8L9.6,5.6C9.8,5.2,10,4.7,10,4.2c0-0.6-0.5-0.7-0.8-0.7c-0.3,0-0.7,0.1-1,0.2
							C8,3.8,7.9,3.8,7.7,3.8l0-0.2C7.8,3.6,7.9,3.5,8,3.5c0.4-0.1,0.8-0.2,1.3-0.2c0.7,0,1,0.5,1,1C10.4,4.8,10.1,5.3,9.9,5.8
							C9.9,5.8,9.9,5.8,9.9,5.8L9.9,5.8z M9.2,3.5c0.6,0,0.9,0.3,0.9,0.7c0,0.5-0.2,1-0.5,1.4l0.2,0.1c0.2-0.5,0.5-0.9,0.5-1.5
							c0-0.4-0.3-0.9-1-0.9c-0.4,0-0.9,0.1-1.3,0.2c-0.1,0-0.2,0.1-0.4,0.1l0,0.2c0.1,0,0.3-0.1,0.5-0.1C8.5,3.6,8.9,3.5,9.2,3.5
							L9.2,3.5z"/>
					</g>
					<rect x="-0.5" y="9.5" class="st4" width="34.9" height="9.8"/>
					<path class="st2" d="M7.5,1.4L7.3,1.8l0.2,0.3l0.2-0.3L7.5,1.4z M7.5,2.2L7.3,2.6l0.2,0.3l0.2-0.3L7.5,2.2z"/>
					<g class="st3">
						<path d="M7.5,2.9C7.4,2.9,7.4,2.9,7.5,2.9L7.3,2.6l0.2-0.3c0,0,0,0,0,0l0,0c0,0,0,0,0,0l0.2,0.3L7.5,2.9
							C7.5,2.9,7.5,2.9,7.5,2.9L7.5,2.9z M7.5,2.3L7.3,2.6l0.1,0.3l0.1-0.3L7.5,2.3L7.5,2.3z M7.5,2.1C7.4,2.1,7.4,2.1,7.5,2.1
							L7.3,1.8l0.2-0.3c0,0,0,0,0,0l0,0c0,0,0,0,0,0l0.2,0.3L7.5,2.1C7.5,2.1,7.5,2.1,7.5,2.1L7.5,2.1z M7.5,1.5L7.3,1.8L7.5,2
							l0.1-0.3L7.5,1.5L7.5,1.5z"/>
					</g>
					<path class="st2" d="M6.9,2.2l0.3,0.2l0.3-0.2L7.1,2L6.9,2.2z M7.5,2.2l0.3,0.2l0.3-0.2L7.8,2L7.5,2.2z"/>
					<g class="st3">
						<path d="M7.8,2.4C7.8,2.4,7.8,2.3,7.8,2.4L7.5,2.2c0,0,0,0,0,0c0,0,0,0,0,0L7.8,2l0.3,0.2c0,0,0,0,0,0c0,0,0,0,0,0L7.8,2.4
							C7.8,2.3,7.8,2.4,7.8,2.4L7.8,2.4z M7.6,2.2l0.2,0.1L8,2.2L7.8,2L7.6,2.2L7.6,2.2z M7.1,2.4C7.1,2.4,7.1,2.3,7.1,2.4L6.8,2.2
							c0,0,0,0,0,0c0,0,0,0,0,0L7.1,2l0.3,0.2c0,0,0,0,0,0c0,0,0,0,0,0L7.1,2.4C7.1,2.3,7.1,2.4,7.1,2.4L7.1,2.4z M6.9,2.2l0.2,0.1
							l0.2-0.1L7.1,2L6.9,2.2L6.9,2.2z"/>
					</g>
					<path class="st2" d="M7.6,2.2c0,0.1-0.1,0.1-0.1,0.1c-0.1,0-0.1-0.1-0.1-0.1C7.3,2.1,7.4,2,7.5,2C7.5,2,7.6,2.1,7.6,2.2
						L7.6,2.2z"/>
					<g class="st3">
						<path d="M7.5,2.3c-0.1,0-0.2-0.1-0.2-0.2C7.3,2.1,7.4,2,7.5,2c0.1,0,0.1,0.1,0.1,0.2C7.6,2.2,7.5,2.3,7.5,2.3L7.5,2.3z
							 M7.5,2.1c-0.1,0-0.1,0-0.1,0.1c0,0.1,0.2,0.1,0.2,0C7.6,2.1,7.5,2.1,7.5,2.1L7.5,2.1z"/>
					</g>
					<path class="st2" d="M7.8,3c0,0.2-0.2,0.3-0.3,0.3C7.3,3.3,7.1,3.2,7.1,3c0-0.2,0.2-0.3,0.3-0.3C7.6,2.6,7.8,2.8,7.8,3L7.8,3z"
						/>
					<g class="st3">
						<path d="M7.5,3.3C7.3,3.3,7.1,3.2,7.1,3c0-0.2,0.2-0.4,0.4-0.4c0.2,0,0.4,0.2,0.4,0.4C7.8,3.2,7.7,3.3,7.5,3.3L7.5,3.3z
							 M7.5,2.7C7.3,2.7,7.1,2.8,7.1,3c0,0.2,0.1,0.3,0.3,0.3c0.2,0,0.3-0.1,0.3-0.3C7.8,2.8,7.6,2.7,7.5,2.7L7.5,2.7z"/>
					</g>
					<g class="st3">
						<path d="M7.8,3.1C7.8,3.1,7.8,3.1,7.8,3.1c-0.2,0-0.4,0-0.7,0c0,0,0,0,0,0c0,0,0,0,0,0C7.3,3,7.6,3,7.8,3.1
							C7.8,3,7.8,3,7.8,3.1C7.8,3.1,7.8,3.1,7.8,3.1L7.8,3.1z M7.8,2.9L7.8,2.9c-0.1,0-0.2,0-0.2,0l0-0.2c0,0,0.1,0,0.1,0v0.2
							C7.6,2.8,7.7,2.8,7.8,2.9C7.8,2.9,7.8,2.9,7.8,2.9C7.8,2.9,7.8,2.9,7.8,2.9L7.8,2.9z M7.1,2.9C7.1,2.9,7.1,2.9,7.1,2.9
							C7.1,2.9,7.1,2.9,7.1,2.9c0.1-0.1,0.2-0.1,0.2-0.1l0-0.1V2.6c0,0,0,0,0,0v0.2C7.3,2.9,7.2,2.9,7.1,2.9L7.1,2.9L7.1,2.9z"/>
					</g>
					<path class="st2" d="M7.1,3.6c0,0.6-0.1,1.1-0.3,1.5l0.4-0.1c0.1-0.5,0.2-1.1,0.2-1.4L7.1,3.6z M7.8,3.6l-0.2,0
						c0,0.3,0.1,0.9,0.2,1.4l0.4,0.1C7.9,4.7,7.8,4.1,7.8,3.6L7.8,3.6z"/>
					<g class="st3">
						<path d="M6.8,5.1C6.8,5.1,6.8,5.1,6.8,5.1C6.8,5.1,6.8,5.1,6.8,5.1c0.2-0.5,0.3-1,0.3-1.6l0.3,0c0,0.1,0,0.2,0,0.3
							c0,0.3-0.1,0.7-0.2,1.1L6.8,5.1C6.8,5.1,6.8,5.1,6.8,5.1L6.8,5.1z M7.1,3.6c0,0.5-0.1,1-0.3,1.5l0.3-0.1
							c0.1-0.3,0.1-0.7,0.1-1c0-0.1,0-0.2,0-0.3L7.1,3.6L7.1,3.6z M8.1,5.1C8.1,5.1,8.1,5.1,8.1,5.1L7.7,5C7.6,4.6,7.6,4.2,7.6,3.9
							c0-0.1,0-0.2,0-0.3l0.2-0.1C7.8,4.1,7.9,4.7,8.1,5.1C8.1,5.1,8.1,5.1,8.1,5.1C8.1,5.1,8.1,5.1,8.1,5.1L8.1,5.1z M7.8,3.6
							L7.6,3.6c0,0.1,0,0.2,0,0.3c0,0.3,0.1,0.7,0.2,1.1L8.1,5C7.9,4.6,7.8,4.1,7.8,3.6L7.8,3.6z"/>
					</g>
					<path class="st2" d="M7.5,4.8C7,4.8,6.7,5,6.7,5.5C6.6,5.3,6.2,4.7,5.8,4.8c-0.2,0-0.5,0.4-0.4,0.8C5.1,5,4.6,4.9,4.1,5.2
						C4.5,5.5,4.7,6.5,5,6.9h2.5h2.5c0.3-0.4,0.5-1.3,0.9-1.6c-0.4-0.3-1-0.2-1.2,0.3c0-0.4-0.2-0.7-0.4-0.8
						C8.7,4.7,8.3,5.3,8.2,5.5C8.2,5,7.9,4.8,7.5,4.8L7.5,4.8z"/>
					<g class="st3">
						<path d="M9.9,6.9H5C4.8,6.7,4.7,6.4,4.6,6.1C4.5,5.8,4.3,5.4,4.1,5.2C4.3,5.1,4.5,5,4.7,5c0.3,0,0.5,0.2,0.7,0.4
							c0-0.3,0.2-0.6,0.4-0.7c0.4-0.1,0.8,0.4,0.9,0.6C6.7,5,7,4.7,7.5,4.7c0.5,0,0.7,0.2,0.8,0.7c0.1-0.2,0.5-0.7,0.9-0.6
							c0.2,0,0.4,0.3,0.4,0.7C9.7,5.2,10,5,10.3,5c0.2,0,0.4,0.1,0.6,0.2c-0.2,0.2-0.4,0.6-0.5,0.9C10.2,6.4,10.1,6.7,9.9,6.9
							C9.9,6.9,9.9,6.9,9.9,6.9L9.9,6.9z M4.7,5.1c-0.2,0-0.4,0.1-0.5,0.2c0.2,0.1,0.4,0.5,0.5,0.9C4.8,6.4,4.9,6.7,5,6.8l4.9,0
							c0.1-0.2,0.2-0.4,0.4-0.7c0.1-0.4,0.3-0.7,0.5-0.9c-0.2-0.1-0.3-0.2-0.5-0.2c-0.3,0-0.5,0.2-0.7,0.5c0,0,0,0,0,0c0,0,0,0,0,0
							c0-0.4-0.2-0.7-0.4-0.7C8.8,4.7,8.4,5.3,8.2,5.5c0,0,0,0,0,0c0,0,0,0,0,0c0-0.6-0.4-0.7-0.7-0.7c-0.3,0-0.7,0.1-0.7,0.7
							c0,0,0,0,0,0c0,0,0,0,0,0C6.6,5.3,6.2,4.7,5.8,4.8c-0.2,0-0.4,0.4-0.4,0.7c0,0,0,0,0,0c0,0,0,0,0,0C5.2,5.2,5,5.1,4.7,5.1
							L4.7,5.1z"/>
					</g>
					<path class="st3" d="M9.9,6.9c0,0.2-1.1,0.4-2.4,0.4C6.1,7.2,5,7,5,6.9c0-0.2,1.1-0.3,2.5-0.3C8.8,6.6,9.9,6.7,9.9,6.9L9.9,6.9
						z"/>
					<g class="st3">
						<path d="M7.5,7.3C6.1,7.3,5,7.1,5,6.9c0-0.3,1.9-0.3,2.5-0.3c0.6,0,2.5,0,2.5,0.3C9.9,7.1,8.8,7.3,7.5,7.3L7.5,7.3z M7.5,6.6
							C5.9,6.6,5,6.7,5,6.9c0,0.1,1,0.4,2.4,0.4c1.4,0,2.4-0.2,2.4-0.4C9.9,6.7,9.1,6.6,7.5,6.6L7.5,6.6z"/>
					</g>
					<path class="st2" d="M7.6,3.4c0,0.1-0.1,0.1-0.1,0.1c-0.1,0-0.1,0-0.1-0.1l0,0c0-0.1,0-0.1,0.1-0.1C7.5,3.3,7.6,3.4,7.6,3.4
						L7.6,3.4z"/>
					<g class="st3">
						<path d="M7.5,3.6c-0.1,0-0.1-0.1-0.1-0.1c0,0,0-0.1,0-0.1c0.1-0.1,0.2,0,0.2,0.1C7.6,3.5,7.5,3.6,7.5,3.6L7.5,3.6z M7.5,3.4
							C7.4,3.4,7.4,3.4,7.5,3.4C7.4,3.4,7.4,3.4,7.5,3.4C7.4,3.5,7.6,3.5,7.5,3.4C7.6,3.4,7.5,3.4,7.5,3.4L7.5,3.4z"/>
					</g>
					<path class="st2" d="M7.6,3.7c0,0.1-0.1,0.1-0.1,0.1c-0.1,0-0.1-0.1-0.1-0.1l0,0c0-0.1,0.1-0.1,0.1-0.1
						C7.5,3.6,7.6,3.6,7.6,3.7L7.6,3.7z"/>
					<g class="st3">
						<path d="M7.5,3.8c-0.1,0-0.1-0.1-0.1-0.1c0-0.1,0.1-0.1,0.1-0.1c0.1,0,0.1,0.1,0.1,0.1C7.6,3.8,7.5,3.8,7.5,3.8L7.5,3.8z
							 M7.5,3.6C7.4,3.6,7.4,3.6,7.5,3.6C7.4,3.8,7.6,3.8,7.5,3.6C7.6,3.6,7.5,3.6,7.5,3.6L7.5,3.6z"/>
					</g>
					<path class="st2" d="M7.6,4c0,0.1-0.1,0.1-0.1,0.1C7.4,4.1,7.3,4,7.3,4l0,0c0-0.1,0.1-0.1,0.1-0.1C7.5,3.8,7.6,3.9,7.6,4L7.6,4
						z"/>
					<g class="st3">
						<path d="M7.5,4.1L7.5,4.1C7.4,4.1,7.3,4,7.3,4c0-0.1,0.1-0.2,0.2-0.2c0.1,0,0.2,0.1,0.2,0.2C7.6,4,7.5,4.1,7.5,4.1L7.5,4.1z
							 M7.5,3.9c-0.1,0-0.1,0-0.1,0.1c0,0.1,0.2,0.1,0.2,0C7.6,3.9,7.5,3.9,7.5,3.9L7.5,3.9z"/>
					</g>
					<path class="st2" d="M7.6,4.3c0,0.1-0.1,0.2-0.1,0.2c-0.1,0-0.2-0.1-0.2-0.2l0,0c0-0.1,0.1-0.2,0.2-0.2
						C7.5,4.1,7.6,4.2,7.6,4.3L7.6,4.3z"/>
					<g class="st3">
						<path d="M7.5,4.4L7.5,4.4c-0.1,0-0.2-0.1-0.2-0.2c0-0.1,0.1-0.2,0.2-0.2c0.1,0,0.2,0.1,0.2,0.2C7.6,4.4,7.6,4.4,7.5,4.4
							L7.5,4.4z M7.5,4.1c-0.1,0-0.1,0.1-0.1,0.1c0,0.1,0.1,0.1,0.1,0.1c0.1,0,0.1-0.1,0.1-0.1C7.6,4.2,7.5,4.1,7.5,4.1L7.5,4.1z"/>
					</g>
					<path class="st2" d="M7.6,4.6c0,0.1-0.1,0.2-0.2,0.2c-0.1,0-0.2-0.1-0.2-0.2l0,0c0-0.1,0.1-0.2,0.2-0.2
						C7.6,4.4,7.6,4.5,7.6,4.6L7.6,4.6z"/>
					<g class="st3">
						<path d="M7.5,4.8c-0.1,0-0.2-0.1-0.2-0.2c0-0.1,0.1-0.2,0.2-0.2c0.1,0,0.2,0.1,0.2,0.2C7.7,4.7,7.6,4.8,7.5,4.8L7.5,4.8z
							 M7.5,4.4c-0.1,0-0.1,0.1-0.1,0.1c0,0.1,0.1,0.1,0.1,0.1c0.1,0,0.1-0.1,0.1-0.1C7.6,4.5,7.5,4.4,7.5,4.4L7.5,4.4z"/>
					</g>
					<path class="st3" d="M7.4,4.9C7.4,4.9,7.4,4.9,7.4,4.9c0,0.1,0,0.1,0,0.2c0,0,0,0,0,0C7.4,5.1,7.4,5,7.4,4.9
						C7.4,4.9,7.4,4.9,7.4,4.9L7.4,4.9z M7.5,4.9C7.5,4.9,7.5,4.9,7.5,4.9c0,0.1,0,0.1,0,0.2c0,0,0,0.1,0,0C7.5,5,7.6,5,7.5,4.9
						C7.6,4.9,7.5,4.9,7.5,4.9L7.5,4.9z M7.3,4.9C7.3,4.9,7.2,4.9,7.3,4.9c0,0.1,0,0.1,0,0.2c0,0.1,0,0,0,0C7.3,5.1,7.3,5,7.3,4.9
						C7.3,4.9,7.3,4.9,7.3,4.9C7.3,4.9,7.3,4.9,7.3,4.9L7.3,4.9z M7.6,4.9C7.6,4.9,7.6,4.9,7.6,4.9c0,0.1,0,0.1,0,0.2c0,0,0,0,0,0
						C7.7,5,7.7,5,7.6,4.9C7.7,4.9,7.7,4.9,7.6,4.9C7.6,4.9,7.6,4.9,7.6,4.9L7.6,4.9z M7.1,5C7.1,5,7.1,5,7.1,5c0,0.1,0,0.1,0,0.2
						c0,0,0,0,0,0C7.2,5.1,7.2,5.1,7.1,5C7.2,5,7.1,5,7.1,5L7.1,5z M7.8,5C7.8,5,7.8,5,7.8,5c0,0.1,0,0.1,0,0.2c0,0,0,0,0,0
						C7.8,5.1,7.8,5.1,7.8,5C7.8,5,7.8,5,7.8,5C7.8,5,7.8,5,7.8,5L7.8,5z M5.8,5C5.8,5,5.8,5,5.8,5c0,0.1,0,0.1,0,0.2c0,0,0,0,0,0
						C5.9,5.1,5.9,5.1,5.8,5C5.9,5,5.9,5,5.8,5L5.8,5z M9.1,5C9.1,5,9,5,9.1,5C9,5.1,9,5.1,9,5.1c0,0,0,0.1,0,0C9,5.1,9.1,5.1,9.1,5
						C9.1,5,9.1,5,9.1,5L9.1,5z M6,5C6,5,6,5,6,5c0,0.1,0,0.1,0,0.2c0,0,0,0,0,0C6,5.1,6,5.1,6,5C6,5,6,5,6,5L6,5z M8.9,5
						C8.9,5,8.9,5,8.9,5C8.9,5.1,8.9,5.1,8.9,5.1c0,0,0,0,0,0C8.9,5.1,8.9,5.1,8.9,5C9,5,9,5,8.9,5C8.9,5,8.9,5,8.9,5L8.9,5z M6.1,5
						C6.1,5,6.1,5,6.1,5c0,0.1,0,0.1,0,0.2c0,0,0,0,0,0C6.2,5.2,6.2,5.1,6.1,5C6.2,5,6.2,5,6.1,5L6.1,5z M8.8,5C8.8,5,8.8,5,8.8,5
						C8.7,5.1,8.7,5.2,8.7,5.2c0,0,0,0,0,0C8.8,5.2,8.8,5.1,8.8,5C8.8,5,8.8,5,8.8,5L8.8,5z M5.7,5C5.7,5,5.7,5.1,5.7,5
						c0,0.1,0,0.1,0,0.1c0,0,0,0,0,0C5.8,5.1,5.8,5.1,5.7,5C5.8,5.1,5.8,5,5.7,5L5.7,5z M9.2,5C9.2,5,9.2,5.1,9.2,5
						c0,0.1,0,0.1-0.1,0.1c0,0,0,0.1,0,0C9.2,5.1,9.2,5.1,9.2,5C9.2,5.1,9.2,5,9.2,5L9.2,5z M7,5.1C7,5.1,7,5.2,7,5.1
						c0,0.1,0,0.1,0,0.2c0,0,0,0,0,0C7,5.3,7,5.2,7,5.1C7,5.1,7,5.1,7,5.1L7,5.1z M7.9,5.1C7.9,5.1,7.9,5.1,7.9,5.1
						c0,0.1,0,0.1,0,0.2c0,0,0,0.1,0,0C7.9,5.3,7.9,5.2,7.9,5.1C8,5.2,7.9,5.1,7.9,5.1L7.9,5.1z M7.5,5.2C7.4,5.2,7.4,5.2,7.5,5.2
						c0,0.1-0.1,0.2-0.1,0.3c0,0-0.1,0-0.1,0c0,0-0.1,0-0.1-0.1c0,0-0.1,0,0,0.1c0.1,0.2,0.3,0.4,0.3,0.7c0,0,0,0.1,0,0.1
						c0,0,0,0,0-0.1c0-0.4,0.2-0.5,0.3-0.7c0.1-0.1,0-0.1,0-0.1c0,0-0.1,0-0.1,0.1c0,0-0.1,0-0.1,0C7.5,5.4,7.5,5.3,7.5,5.2
						C7.5,5.2,7.5,5.2,7.5,5.2L7.5,5.2z M6.3,5.1L6.3,5.1C6.3,5.1,6.3,5.1,6.3,5.1c0,0.1,0,0.1,0,0.2c0,0,0,0,0,0
						C6.4,5.2,6.4,5.2,6.3,5.1C6.3,5.1,6.3,5.1,6.3,5.1L6.3,5.1z M8.6,5.1C8.6,5.1,8.6,5.1,8.6,5.1C8.6,5.2,8.6,5.2,8.6,5.3
						c0,0,0,0,0,0C8.6,5.3,8.6,5.2,8.6,5.1C8.6,5.1,8.6,5.1,8.6,5.1C8.6,5.1,8.6,5.1,8.6,5.1L8.6,5.1z M5.6,5.1
						C5.6,5.1,5.6,5.2,5.6,5.1c0,0.1,0,0.1,0.1,0.2c0,0,0,0,0,0C5.7,5.2,5.7,5.2,5.6,5.1C5.6,5.1,5.6,5.1,5.6,5.1L5.6,5.1z M9.3,5.1
						C9.3,5.1,9.3,5.1,9.3,5.1C9.2,5.2,9.2,5.2,9.2,5.3c0,0,0,0.1,0,0C9.3,5.3,9.3,5.2,9.3,5.1C9.3,5.2,9.3,5.1,9.3,5.1L9.3,5.1z
						 M4.6,5.2C4.6,5.2,4.6,5.3,4.6,5.2c0,0.1,0,0.1,0.1,0.2c0,0,0,0,0,0C4.7,5.3,4.7,5.3,4.6,5.2C4.6,5.3,4.6,5.2,4.6,5.2L4.6,5.2z
						 M10.3,5.2C10.3,5.2,10.3,5.3,10.3,5.2c-0.1,0.1-0.1,0.1-0.1,0.1c0,0,0,0.1,0,0C10.3,5.4,10.3,5.3,10.3,5.2
						C10.4,5.3,10.4,5.2,10.3,5.2L10.3,5.2z M4.8,5.3C4.7,5.3,4.7,5.3,4.8,5.3c0,0.1,0,0.1,0,0.2c0,0,0.1,0,0,0
						C4.8,5.4,4.8,5.4,4.8,5.3C4.8,5.3,4.8,5.3,4.8,5.3L4.8,5.3z M10.2,5.3C10.1,5.3,10.1,5.3,10.2,5.3c-0.1,0.1-0.1,0.1-0.1,0.2
						c0,0.1,0,0,0,0C10.1,5.4,10.2,5.4,10.2,5.3C10.2,5.3,10.2,5.3,10.2,5.3L10.2,5.3z M4.4,5.3C4.4,5.3,4.4,5.3,4.4,5.3
						c0,0.1,0.1,0.1,0.1,0.1c0,0,0.1,0,0,0C4.5,5.4,4.5,5.3,4.4,5.3C4.5,5.3,4.4,5.3,4.4,5.3L4.4,5.3z M10.5,5.3
						C10.5,5.3,10.5,5.3,10.5,5.3c-0.1,0-0.1,0.1-0.1,0.1c0,0,0,0.1,0,0C10.4,5.4,10.5,5.4,10.5,5.3C10.5,5.3,10.5,5.3,10.5,5.3
						L10.5,5.3z M6.9,5.3C6.9,5.3,6.9,5.3,6.9,5.3c0,0.1,0,0.1,0,0.2c0,0,0.1,0,0,0C7,5.4,6.9,5.4,6.9,5.3C6.9,5.3,6.9,5.3,6.9,5.3
						C6.9,5.3,6.9,5.3,6.9,5.3L6.9,5.3z M8,5.3C8,5.3,8,5.3,8,5.3C8,5.4,8,5.4,8,5.5c0,0,0,0,0,0C8,5.4,8,5.4,8,5.3
						C8,5.3,8,5.3,8,5.3L8,5.3L8,5.3z M5.9,5.2C5.9,5.2,5.9,5.3,5.9,5.2C6,5.5,6,5.6,6,5.6c0,0,0,0-0.1,0c0,0-0.1,0-0.1-0.1
						c0,0-0.1,0,0,0C6,5.8,6.1,6,6.2,6.2c0,0,0,0.1,0,0c0-0.3-0.1-0.5,0-0.7c0-0.1,0-0.1,0,0c0,0.1-0.1,0.1-0.1,0
						C6.1,5.5,6,5.3,5.9,5.2C5.9,5.3,5.9,5.2,5.9,5.2C5.9,5.2,5.9,5.2,5.9,5.2L5.9,5.2z M9,5.2C9,5.2,9,5.3,9,5.2
						c0,0.1-0.1,0.2-0.2,0.3c0,0.1-0.1,0-0.1,0c0-0.1-0.1,0,0,0c0.1,0.1,0.1,0.4,0,0.7c0,0.1,0,0,0,0C8.8,6,8.9,5.8,9.1,5.6
						c0,0,0-0.1,0,0c0,0-0.1,0-0.1,0.1c0,0-0.1,0-0.1,0C8.9,5.6,9,5.5,9,5.2C9,5.3,9,5.2,9,5.2C9,5.2,9,5.2,9,5.2L9,5.2z M4.9,5.3
						C4.9,5.3,4.9,5.3,4.9,5.3c0,0.1,0,0.1,0,0.2c0,0,0,0,0,0C5,5.4,5,5.4,4.9,5.3C5,5.3,4.9,5.3,4.9,5.3L4.9,5.3z M10,5.3
						C10,5.3,10,5.3,10,5.3C9.9,5.4,9.9,5.4,9.9,5.5c0,0,0,0.1,0,0C10,5.5,10,5.4,10,5.3C10,5.3,10,5.3,10,5.3L10,5.3z M5.5,5.3
						C5.5,5.3,5.5,5.3,5.5,5.3c0,0.1,0.1,0.1,0.1,0.2c0,0,0,0,0,0C5.6,5.4,5.6,5.4,5.5,5.3C5.6,5.3,5.6,5.3,5.5,5.3L5.5,5.3z
						 M9.4,5.3C9.4,5.3,9.4,5.3,9.4,5.3C9.3,5.4,9.3,5.4,9.3,5.4c0,0,0,0.1,0,0C9.3,5.4,9.4,5.4,9.4,5.3C9.4,5.3,9.4,5.3,9.4,5.3
						L9.4,5.3z M5.1,5.4C5.1,5.4,5,5.4,5.1,5.4c0,0.1,0,0.1,0,0.1c0,0,0,0,0,0C5.1,5.5,5.1,5.5,5.1,5.4C5.1,5.4,5.1,5.4,5.1,5.4
						L5.1,5.4z M9.8,5.4C9.8,5.4,9.8,5.4,9.8,5.4c0,0.1,0,0.1,0,0.1c0,0,0,0,0,0C9.8,5.5,9.9,5.5,9.8,5.4C9.9,5.4,9.9,5.4,9.8,5.4
						L9.8,5.4z M5.5,5.4C5.5,5.4,5.5,5.5,5.5,5.4c0,0.1,0.1,0.1,0.1,0.2c0,0,0,0,0,0C5.6,5.5,5.5,5.5,5.5,5.4
						C5.5,5.4,5.5,5.4,5.5,5.4L5.5,5.4z M9.4,5.4C9.4,5.4,9.4,5.4,9.4,5.4c0,0-0.1,0.1-0.1,0.1c0,0,0,0,0,0C9.4,5.6,9.4,5.5,9.4,5.4
						C9.5,5.5,9.4,5.4,9.4,5.4C9.4,5.4,9.4,5.4,9.4,5.4L9.4,5.4z M4.8,5.6C4.8,5.6,4.8,5.6,4.8,5.6c0,0.1,0.1,0.2,0.1,0.3
						c0,0,0,0,0,0c-0.1,0-0.1,0-0.1-0.1c-0.1,0-0.1,0,0,0C4.9,6,5.1,6.2,5.2,6.3c0,0.1,0.1,0.1,0.1,0C5.2,6.2,5.2,6,5.2,5.9
						c0-0.1,0-0.2,0-0.2c0-0.1,0,0,0,0c0,0,0,0.1,0,0.1c0,0-0.1,0-0.1,0C5,5.7,4.9,5.6,4.8,5.6C4.8,5.6,4.8,5.6,4.8,5.6L4.8,5.6z
						 M10.1,5.6C10.1,5.6,10.1,5.6,10.1,5.6c-0.1,0-0.2,0.2-0.2,0.2c0,0.1-0.1,0-0.1,0c0,0,0-0.1,0-0.1c0,0,0-0.1,0,0
						c0,0.1,0,0.1,0,0.2c0,0.1,0,0.2-0.1,0.4c0,0.1,0,0,0.1,0C9.8,6.2,10,6,10.2,5.9c0,0,0-0.1,0,0c-0.1,0-0.1,0.1-0.1,0.1
						c0,0,0,0,0,0C10,5.8,10,5.7,10.1,5.6C10.1,5.6,10.1,5.6,10.1,5.6L10.1,5.6z"/>
					<path class="st5" d="M5.1,6.7l0.1,0.2L5.1,6.7z M5.3,6.6l0.1,0.2L5.3,6.6z M5.4,6.6l0,0.2L5.4,6.6z M5.5,6.6l0,0.2L5.5,6.6z
						 M5.7,6.5l0,0.2L5.7,6.5z M5.9,6.5l0,0.2L5.9,6.5z M6,6.5l0,0.2L6,6.5z M6.2,6.5l0,0.2L6.2,6.5z M6.4,6.5l0,0.2L6.4,6.5z
						 M6.5,6.5l0,0.2L6.5,6.5z M6.7,6.5l0,0.2L6.7,6.5z M6.9,6.4l0,0.2L6.9,6.4z M7,6.4l0,0.2L7,6.4z M7.2,6.4l0,0.2L7.2,6.4z
						 M9.8,6.7L9.7,6.9L9.8,6.7z M9.7,6.6L9.6,6.8L9.7,6.6z M9.5,6.6l0,0.2L9.5,6.6z M9.4,6.6l0,0.2L9.4,6.6z M9.2,6.5l0,0.2
						L9.2,6.5z M9.1,6.5l0,0.2L9.1,6.5z M8.9,6.5l0,0.2L8.9,6.5z M8.7,6.5l0,0.2L8.7,6.5z M8.6,6.5l0,0.2L8.6,6.5z M8.4,6.5l0,0.2
						L8.4,6.5z M8.2,6.5l0,0.2L8.2,6.5z M8.1,6.4l0,0.2L8.1,6.4z M7.9,6.4l0,0.2L7.9,6.4z M7.7,6.4l0,0.2L7.7,6.4z M7.5,6.4v0.2V6.4
						z"/>
					<g class="st3">
						<path d="M9.7,6.9C9.7,6.9,9.7,6.9,9.7,6.9C9.7,6.9,9.7,6.9,9.7,6.9l0-0.2c0,0,0,0,0,0c0,0,0,0,0,0L9.7,6.9
							C9.8,6.9,9.8,6.9,9.7,6.9L9.7,6.9z M5.2,6.9C5.2,6.9,5.2,6.9,5.2,6.9L5.1,6.7c0,0,0,0,0,0c0,0,0,0,0,0L5.2,6.9
							C5.2,6.9,5.2,6.9,5.2,6.9C5.2,6.9,5.2,6.9,5.2,6.9L5.2,6.9z M9.6,6.8C9.6,6.8,9.6,6.8,9.6,6.8C9.6,6.8,9.6,6.8,9.6,6.8l0-0.2
							c0,0,0,0,0,0c0,0,0,0,0,0L9.6,6.8C9.6,6.8,9.6,6.8,9.6,6.8L9.6,6.8z M5.3,6.8C5.3,6.8,5.3,6.8,5.3,6.8L5.2,6.6c0,0,0,0,0,0
							c0,0,0,0,0,0L5.3,6.8C5.3,6.8,5.3,6.8,5.3,6.8C5.3,6.8,5.3,6.8,5.3,6.8L5.3,6.8z M5.4,6.8C5.4,6.8,5.4,6.8,5.4,6.8L5.4,6.6
							c0,0,0,0,0,0c0,0,0,0,0,0L5.4,6.8C5.5,6.8,5.4,6.8,5.4,6.8C5.4,6.8,5.4,6.8,5.4,6.8L5.4,6.8z M9.5,6.8
							C9.5,6.8,9.5,6.8,9.5,6.8C9.5,6.8,9.5,6.8,9.5,6.8l0-0.2c0,0,0,0,0,0c0,0,0,0,0,0L9.5,6.8C9.5,6.8,9.5,6.8,9.5,6.8L9.5,6.8z
							 M9.4,6.8C9.4,6.8,9.4,6.8,9.4,6.8C9.3,6.8,9.3,6.8,9.4,6.8l0-0.2c0,0,0,0,0,0c0,0,0,0,0,0L9.4,6.8C9.4,6.8,9.4,6.8,9.4,6.8
							L9.4,6.8z M5.6,6.8C5.6,6.8,5.5,6.8,5.6,6.8L5.5,6.6c0,0,0,0,0,0c0,0,0,0,0,0L5.6,6.8C5.6,6.8,5.6,6.8,5.6,6.8L5.6,6.8
							L5.6,6.8z M9,6.8C9,6.8,9,6.8,9,6.8C9,6.8,9,6.8,9,6.8l0-0.2c0,0,0,0,0,0c0,0,0,0,0,0L9,6.8C9,6.8,9,6.8,9,6.8L9,6.8z
							 M5.9,6.8C5.9,6.8,5.9,6.8,5.9,6.8L5.8,6.6c0,0,0,0,0,0c0,0,0,0,0,0L5.9,6.8C5.9,6.8,5.9,6.8,5.9,6.8C5.9,6.8,5.9,6.8,5.9,6.8
							L5.9,6.8z M9.2,6.8C9.2,6.8,9.2,6.8,9.2,6.8C9.2,6.8,9.2,6.8,9.2,6.8l0-0.2c0,0,0,0,0,0c0,0,0,0,0,0L9.2,6.8
							C9.2,6.8,9.2,6.8,9.2,6.8L9.2,6.8z M5.7,6.8C5.7,6.8,5.7,6.8,5.7,6.8L5.7,6.6c0,0,0,0,0,0c0,0,0,0,0,0L5.7,6.8
							C5.8,6.8,5.7,6.8,5.7,6.8L5.7,6.8L5.7,6.8z M8.7,6.7L8.7,6.7C8.7,6.7,8.7,6.7,8.7,6.7l0-0.2c0,0,0,0,0,0c0,0,0,0,0,0L8.7,6.7
							C8.7,6.7,8.7,6.7,8.7,6.7L8.7,6.7z M6.2,6.7C6.2,6.7,6.2,6.7,6.2,6.7L6.2,6.5c0,0,0,0,0,0c0,0,0,0,0,0V6.7
							C6.3,6.7,6.3,6.7,6.2,6.7C6.2,6.7,6.2,6.7,6.2,6.7L6.2,6.7z M8.9,6.7C8.9,6.7,8.9,6.7,8.9,6.7C8.8,6.7,8.8,6.7,8.9,6.7l0-0.2
							c0,0,0,0,0,0c0,0,0,0,0,0L8.9,6.7C8.9,6.7,8.9,6.7,8.9,6.7L8.9,6.7z M6.1,6.7C6.1,6.7,6,6.7,6.1,6.7l0-0.2c0,0,0,0,0,0
							c0,0,0,0,0,0V6.7C6.1,6.7,6.1,6.7,6.1,6.7C6.1,6.7,6.1,6.7,6.1,6.7L6.1,6.7z M8.5,6.7C8.5,6.7,8.5,6.7,8.5,6.7
							C8.5,6.7,8.5,6.7,8.5,6.7V6.5c0,0,0,0,0,0c0,0,0,0,0,0L8.5,6.7C8.6,6.7,8.5,6.7,8.5,6.7L8.5,6.7z M6.4,6.7
							C6.4,6.7,6.4,6.7,6.4,6.7L6.3,6.5c0,0,0,0,0,0c0,0,0,0,0,0L6.4,6.7C6.4,6.7,6.4,6.7,6.4,6.7C6.4,6.7,6.4,6.7,6.4,6.7L6.4,6.7z
							 M8.2,6.7L8.2,6.7C8.2,6.7,8.2,6.7,8.2,6.7l0-0.2c0,0,0,0,0,0c0,0,0,0,0,0L8.2,6.7C8.2,6.7,8.2,6.7,8.2,6.7L8.2,6.7z M8.4,6.7
							L8.4,6.7C8.4,6.7,8.4,6.7,8.4,6.7l0-0.2c0,0,0,0,0,0c0,0,0,0,0,0L8.4,6.7C8.4,6.7,8.4,6.7,8.4,6.7L8.4,6.7z M6.5,6.7
							C6.5,6.7,6.5,6.7,6.5,6.7l0-0.2c0,0,0,0,0,0c0,0,0,0,0,0L6.5,6.7C6.6,6.7,6.6,6.7,6.5,6.7L6.5,6.7L6.5,6.7z M6.7,6.7
							C6.7,6.7,6.7,6.7,6.7,6.7l0-0.2c0,0,0,0,0,0c0,0,0,0,0,0L6.7,6.7C6.7,6.7,6.7,6.7,6.7,6.7L6.7,6.7L6.7,6.7z M8.1,6.7L8.1,6.7
							C8,6.7,8,6.7,8.1,6.7l0-0.2c0,0,0,0,0,0c0,0,0,0,0,0L8.1,6.7C8.1,6.7,8.1,6.7,8.1,6.7L8.1,6.7z M6.9,6.7
							C6.8,6.7,6.8,6.7,6.9,6.7l0-0.2c0,0,0,0,0,0c0,0,0,0,0,0L6.9,6.7C6.9,6.7,6.9,6.7,6.9,6.7L6.9,6.7L6.9,6.7z M7.5,6.7
							C7.4,6.7,7.4,6.7,7.5,6.7l0-0.3c0,0,0.1,0,0.1,0L7.5,6.7C7.5,6.7,7.5,6.7,7.5,6.7L7.5,6.7z M7.9,6.7L7.9,6.7
							C7.9,6.7,7.9,6.7,7.9,6.7l0-0.2c0,0,0,0,0,0c0,0,0,0,0,0L7.9,6.7C7.9,6.7,7.9,6.7,7.9,6.7L7.9,6.7z M7,6.7C7,6.7,7,6.7,7,6.7
							l0-0.2c0,0,0,0,0,0c0,0,0,0,0,0L7,6.7C7.1,6.7,7,6.7,7,6.7L7,6.7L7,6.7z M7.7,6.7L7.7,6.7C7.7,6.7,7.7,6.7,7.7,6.7l0-0.2
							c0,0,0,0,0,0c0,0,0,0,0,0L7.7,6.7C7.7,6.7,7.7,6.7,7.7,6.7L7.7,6.7z M7.2,6.7C7.2,6.7,7.2,6.7,7.2,6.7l0-0.2c0,0,0,0,0,0
							c0,0,0,0,0,0L7.2,6.7C7.3,6.7,7.2,6.7,7.2,6.7L7.2,6.7L7.2,6.7z"/>
					</g>
				</g>
			</g>
		</g>
	</g>
</g>
</svg>
