<?xml version="1.0" encoding="utf-8"?>
<!-- Generator: Adobe Illustrator 21.1.0, SVG Export Plug-In . SVG Version: 6.00 Build 0)  -->
<svg version="1.1" xmlns="http://www.w3.org/2000/svg" xmlns:xlink="http://www.w3.org/1999/xlink" x="0px" y="0px"
	 viewBox="0 0 34 19" style="enable-background:new 0 0 34 19;" xml:space="preserve">
<style type="text/css">
	.st0{clip-path:url(#SVGID_2_);fill:#BD0034;}
	.st1{clip-path:url(#SVGID_2_);fill:#FFFFFF;}
	.st2{clip-path:url(#SVGID_2_);}
	.st3{clip-path:url(#SVGID_4_);fill:#EFECEC;}
	.st4{clip-path:url(#SVGID_4_);fill:#D30038;}
	.st5{clip-path:url(#SVGID_4_);fill:#BD0034;}
	.st6{clip-path:url(#SVGID_4_);fill:#91857C;}
	.st7{clip-path:url(#SVGID_4_);fill:#CACACA;}
	.st8{clip-path:url(#SVGID_4_);fill:#CECECE;}
	.st9{clip-path:url(#SVGID_4_);}
	.st10{fill:#91857C;}
	.st11{fill:none;}
</style>
<g id="Calque_1">
</g>
<g id="_x34_">
	<g id="MALTA_3_">
		<g>
			<g>
				<defs>
					<rect id="SVGID_1_" x="0.2" y="-0.3" width="34" height="19.6"/>
				</defs>
				<clipPath id="SVGID_2_">
					<use xlink:href="#SVGID_1_"  style="overflow:visible;"/>
				</clipPath>
				<rect x="17.2" y="-0.3" class="st0" width="17" height="19.6"/>
				<rect x="0.2" y="-0.3" class="st1" width="16.8" height="19.6"/>
				<g class="st2">
					<defs>
						<rect id="SVGID_3_" x="0.2" y="-0.3" width="34" height="19.6"/>
					</defs>
					<clipPath id="SVGID_4_">
						<use xlink:href="#SVGID_3_"  style="overflow:visible;"/>
					</clipPath>
					<path class="st3" d="M4.1,2.7C4.1,2.7,4.1,2.7,4.1,2.7c-0.1,0.1-0.2,0-0.2,0C3.9,2.7,4,2.6,4.1,2.7C4.1,2.6,4.1,2.7,4.1,2.7
						L4.1,2.7z"/>
					<path class="st4" d="M1.6,2.4v1.4h1.4c0,0.2,0.2,0.5,0.5,0.5v1.4H5V4.3c0.2,0,0.5-0.2,0.5-0.5h1.4V2.4H5.5
						c0-0.2-0.2-0.5-0.5-0.5V0.5H3.5v1.4c-0.2,0-0.5,0.2-0.5,0.5H1.6z"/>
					<path class="st5" d="M1.7,2.5v1.3h1.4c0,0.2,0.2,0.5,0.5,0.5v1.4h1.3V4.3c0.2,0,0.5-0.2,0.5-0.5h1.4V2.5H5.4
						C5.4,2.2,5.2,2,4.9,2V0.5H3.6V2C3.3,2,3.1,2.2,3.1,2.5H1.7z"/>
					<path class="st6" d="M1.7,2.5v1.2h1.4c0,0.2,0.2,0.5,0.5,0.5v1.4h1.3V4.2c0.2,0,0.5-0.2,0.5-0.5h1.4V2.5H5.4
						C5.4,2.3,5.1,2,4.9,2V0.6H3.6V2C3.4,2,3.2,2.3,3.2,2.5H1.7z"/>
					<path class="st7" d="M1.8,2.6v1.2h1.4c0,0.2,0.2,0.5,0.5,0.5v1.4h1.2V4.2c0.2,0,0.5-0.2,0.5-0.5h1.4V2.6H5.3
						c0-0.2-0.2-0.5-0.5-0.5V0.6H3.7v1.4c-0.2,0-0.5,0.2-0.5,0.5H1.8z"/>
					<path class="st8" d="M3.7,2c0.1,0.1,0,0.3-0.2,0.5C3.4,2.6,3.2,2.7,3.1,2.6C3,2.5,3.1,2.3,3.2,2.1C3.4,1.9,3.6,1.9,3.7,2L3.7,2
						z"/>
					<path class="st6" d="M3.6,2.1c0.1,0.1,0.1,0.2-0.1,0.4C3.4,2.5,3.3,2.6,3.2,2.5C3.1,2.4,3.1,2.2,3.2,2.1C3.4,2,3.5,2,3.6,2.1
						L3.6,2.1z"/>
					<polygon class="st8" points="3.2,2.3 3.2,2.3 3.3,2.4 3.3,2.2 3.3,2.2 3.4,2.5 					"/>
					<polygon class="st8" points="3.4,2.1 3.4,2.1 3.6,2.3 3.6,2.3 					"/>
					<path class="st8" d="M5.4,2.6C5.4,2.7,5.1,2.6,5,2.4C4.8,2.3,4.7,2,4.8,2c0.1-0.1,0.3,0,0.5,0.2C5.4,2.3,5.5,2.5,5.4,2.6
						L5.4,2.6z"/>
					<path class="st6" d="M5.3,2.5C5.3,2.6,5.1,2.5,5,2.4c-0.1-0.1-0.1-0.3,0-0.4C5,2,5.2,2,5.3,2.1C5.4,2.2,5.4,2.4,5.3,2.5
						L5.3,2.5z"/>
					<polygon class="st8" points="5.1,2 5.1,2.1 5,2.2 5.2,2.1 5.2,2.2 4.9,2.3 					"/>
					<polygon class="st8" points="5.3,2.3 5.3,2.3 5.1,2.5 5.1,2.5 					"/>
					<path class="st8" d="M4.8,4.3C4.7,4.2,4.8,4,5,3.9c0.2-0.2,0.4-0.2,0.5-0.2c0.1,0.1,0,0.3-0.2,0.5C5.1,4.3,4.9,4.4,4.8,4.3
						L4.8,4.3z"/>
					<path class="st6" d="M4.9,4.2C4.8,4.1,4.9,4,5,3.9c0.1-0.1,0.3-0.1,0.4-0.1C5.4,3.9,5.4,4,5.3,4.2C5.2,4.3,5,4.3,4.9,4.2
						L4.9,4.2z"/>
					<polygon class="st8" points="5.4,4 5.3,4 5.2,3.9 5.3,4.1 5.2,4.1 5.1,3.8 					"/>
					<polygon class="st8" points="5.1,4.2 5.1,4.2 4.9,4 4.9,4 					"/>
					<path class="st8" d="M3.1,3.7c0.1-0.1,0.3,0,0.5,0.2C3.7,4,3.8,4.2,3.7,4.3c-0.1,0.1-0.3,0-0.5-0.2C3.1,4,3,3.8,3.1,3.7
						L3.1,3.7z"/>
					<path class="st6" d="M3.2,3.8c0.1-0.1,0.2-0.1,0.4,0.1C3.7,4,3.7,4.1,3.6,4.2S3.4,4.3,3.2,4.2C3.1,4,3.1,3.9,3.2,3.8L3.2,3.8z"
						/>
					<polygon class="st8" points="3.4,4.2 3.4,4.2 3.5,4.1 3.3,4.1 3.3,4.1 3.6,4 					"/>
					<polygon class="st8" points="3.2,4 3.2,4 3.4,3.8 3.4,3.8 					"/>
					<g class="st9">
						<path class="st10" d="M4.3,4.2c-0.6,0-1-0.5-1-1c0-0.6,0.5-1,1-1c0.3,0,0.5,0.1,0.7,0.3c0.2,0.2,0.3,0.4,0.3,0.7
							c0,0.3-0.1,0.5-0.3,0.7C4.8,4.1,4.5,4.2,4.3,4.2L4.3,4.2z M4.3,2.1c-0.6,0-1,0.4-1,1c0,0.6,0.4,1,1,1C4.5,4.1,4.8,4,5,3.8
							c0.2-0.2,0.3-0.4,0.3-0.7c0-0.3-0.1-0.5-0.3-0.7C4.8,2.2,4.5,2.1,4.3,2.1L4.3,2.1z"/>
					</g>
					<g class="st9">
						<path class="st10" d="M4.3,3.9c-0.4,0-0.8-0.3-0.8-0.8s0.4-0.8,0.8-0.8C4.7,2.4,5,2.7,5,3.1S4.7,3.9,4.3,3.9L4.3,3.9z
							 M4.3,2.4c-0.4,0-0.8,0.3-0.8,0.8c0,0.4,0.3,0.8,0.8,0.8C4.7,3.9,5,3.6,5,3.1C5,2.7,4.7,2.4,4.3,2.4L4.3,2.4z"/>
					</g>
					<path class="st9" d="M3.9,4C3.9,4,3.9,4,3.9,4C3.9,4,3.9,4,3.9,4C3.8,4,3.8,4,3.9,4C3.8,3.9,3.8,3.9,3.9,4
						C3.9,3.9,3.9,3.9,3.9,4C3.9,3.9,3.9,3.9,3.9,4L3.9,4z"/>
					<path class="st9" d="M4.7,4C4.7,4,4.7,4,4.7,4C4.7,4,4.6,4,4.7,4C4.6,4,4.6,4,4.7,4C4.6,3.9,4.6,3.9,4.7,4
						C4.6,3.9,4.7,3.9,4.7,4C4.7,3.9,4.7,3.9,4.7,4L4.7,4z"/>
					<path class="st9" d="M4.2,4L4.2,4L4.2,4C4.1,4,4.1,4.1,4.2,4.1h0.1v0c0,0.1,0.1,0.1,0.1,0l0-0.1h0.1c0.1,0,0.1-0.1,0-0.1L4.2,4
						L4.2,4C4.3,3.9,4.2,3.9,4.2,4L4.2,4z"/>
					<path class="st6" d="M4.8,3.3C4.8,3.3,4.9,3.3,4.8,3.3C4.9,3.3,4.9,3.3,4.8,3.3C4.9,3.3,4.9,3.3,4.8,3.3
						C4.9,3.3,4.9,3.3,4.8,3.3C4.9,3.3,4.9,3.3,4.8,3.3C4.9,3.3,4.9,3.3,4.8,3.3C4.9,3.3,4.9,3.4,4.8,3.3C4.9,3.4,4.8,3.3,4.8,3.3
						L4.8,3.3z"/>
					<g class="st9">
						<path class="st11" d="M4.8,3.3C4.8,3.3,4.9,3.3,4.8,3.3C4.9,3.3,4.9,3.3,4.8,3.3C4.9,3.3,4.9,3.3,4.8,3.3
							C4.9,3.3,4.9,3.3,4.8,3.3C4.9,3.3,4.9,3.3,4.8,3.3C4.9,3.3,4.9,3.3,4.8,3.3C4.9,3.3,4.9,3.4,4.8,3.3C4.9,3.4,4.8,3.3,4.8,3.3
							L4.8,3.3z"/>
					</g>
					<path class="st6" d="M4.7,3.3C4.7,3.3,4.7,3.2,4.7,3.3C4.7,3.2,4.7,3.3,4.7,3.3L4.7,3.3z"/>
					<g class="st9">
						<path class="st11" d="M4.7,3.3C4.7,3.3,4.7,3.2,4.7,3.3C4.7,3.2,4.7,3.3,4.7,3.3L4.7,3.3z"/>
					</g>
					<polygon class="st6" points="3.9,3.7 4.7,3.7 4.8,3.7 4.6,3.6 4.5,3.6 4.4,3.5 4.3,3.5 4.2,3.6 4.1,3.6 4,3.6 3.9,3.6 3.8,3.6 
						4,3.7 3.8,3.7 					"/>
					<g class="st9">
						<path d="M4.7,3.7H3.9l-0.1,0l0.2,0l-0.3,0l0.3,0l0,0l0.1,0l0.1-0.1l0.1,0l0.1,0L4.7,3.7L4.7,3.7L4.7,3.7z M3.8,3.7L3.8,3.7
							l0.9,0l0.1,0L4.4,3.5l-0.1,0L4.2,3.6l-0.1,0l0,0l-0.1,0L3.8,3.7l0.2,0L3.8,3.7L3.8,3.7z"/>
					</g>
					<path class="st6" d="M4.3,3.5C4.2,3.4,4.2,3.6,4.1,3.6C4.2,3.6,4.2,3.5,4.3,3.5C4.3,3.6,4.4,3.6,4.3,3.5
						c0.1,0.1,0.1,0.2,0.2,0.1c0,0,0,0,0,0s0,0,0,0c0,0,0,0,0,0s0,0,0,0c0.1,0,0.1-0.1,0.1-0.1l0,0l0,0c0,0,0,0,0,0c0,0,0,0,0,0
						c0,0,0,0,0,0c0,0,0,0.1,0,0.1s-0.1,0-0.1,0c0,0-0.1-0.1-0.1-0.1c0,0,0.1,0,0.1,0c0,0,0.1-0.1,0.1-0.1c0,0,0-0.1,0-0.1l0,0
						l0-0.1c0,0-0.1,0,0,0.1c0,0,0.1,0,0.1,0s0,0-0.1,0c0,0,0,0,0,0c0,0,0,0,0,0s0,0,0,0c0,0-0.1-0.1-0.1,0c0,0,0,0.1,0,0.1
						s0,0-0.1,0.1C4.5,3.4,4.4,3.5,4.3,3.5L4.3,3.5z"/>
					<g class="st9">
						<path d="M4.5,3.6c-0.1,0-0.1-0.1-0.1-0.1c0,0-0.1,0-0.1,0c0,0,0,0,0,0c0,0-0.1,0-0.1,0c0,0,0,0,0,0c0,0,0.1,0,0.1,0
							c0,0,0,0,0,0c0,0.1,0.1,0,0.1,0C4.4,3.6,4.5,3.6,4.5,3.6L4.5,3.6L4.5,3.6l0.1,0c0,0,0.1,0,0.1,0c0.1,0,0.1-0.1,0.1-0.1l0,0
							l0,0l0,0c0,0,0,0,0,0.1c0,0-0.1,0-0.1,0.1c0,0,0,0,0-0.1c0,0,0,0,0-0.1l0,0c0,0,0,0,0,0c0,0,0.1-0.1,0.1-0.1c0,0,0-0.1,0-0.1
							c0,0,0,0,0,0.1c0,0,0,0.1-0.1,0.1c0,0,0,0-0.1,0c0,0,0,0,0,0c0,0,0,0,0,0.1c0,0,0.1-0.1,0.1-0.1c0,0,0-0.1,0-0.1l0,0l0,0.1
							c0,0-0.1,0.1-0.1,0.1c0,0,0,0,0,0l-0.1,0L4.5,3.6L4.5,3.6C4.5,3.6,4.5,3.6,4.5,3.6L4.5,3.6z M4.1,3.6C4.1,3.6,4.2,3.6,4.1,3.6
							c0.1-0.1,0.1-0.1,0.2-0.1l0.1,0c0.1,0,0.1,0,0.2,0c0-0.1,0.1-0.1,0.1-0.1l0,0c0,0,0,0,0-0.1l0,0c0,0,0,0,0.1,0c0,0,0,0,0,0
							c0,0,0,0,0,0l0,0l0,0c0,0,0,0,0,0c0,0,0,0-0.1,0l0,0c0,0,0,0.1,0,0.1c0,0,0,0-0.1,0.1c-0.1-0.1-0.1-0.1-0.2,0l-0.1,0
							C4.2,3.4,4.2,3.5,4.1,3.6C4.2,3.6,4.2,3.6,4.1,3.6L4.1,3.6z M4.7,3.3L4.7,3.3C4.7,3.3,4.7,3.2,4.7,3.3c0-0.1,0-0.1,0-0.1l0,0
							l0,0C4.7,3.2,4.7,3.2,4.7,3.3C4.7,3.2,4.7,3.3,4.7,3.3C4.7,3.3,4.7,3.3,4.7,3.3L4.7,3.3L4.7,3.3C4.7,3.3,4.7,3.3,4.7,3.3
							L4.7,3.3z"/>
					</g>
					<path class="st6" d="M4.2,3.3c0,0,0,0.1,0,0.1c0,0,0,0,0,0c0,0,0.1,0,0.1,0c0,0,0,0,0,0c0,0,0.1,0,0.1,0S4.4,3.4,4.4,3.4
						c0,0-0.1,0-0.1,0C4.3,3.4,4.3,3.4,4.2,3.3C4.3,3.3,4.3,3.3,4.2,3.3C4.2,3.2,4.1,3.3,4.2,3.3L4.2,3.3z"/>
					<g class="st9">
						<path d="M4.5,3.5C4.4,3.5,4.4,3.5,4.5,3.5c-0.1,0-0.2,0-0.2,0l-0.1,0l0,0c0,0,0-0.1,0-0.1c0,0,0,0,0-0.1c0,0,0.1-0.1,0.1,0
							c0,0,0,0.1,0,0.1C4.3,3.4,4.4,3.4,4.5,3.5C4.4,3.4,4.5,3.5,4.5,3.5L4.5,3.5L4.5,3.5z M4.4,3.4C4.4,3.5,4.4,3.5,4.4,3.4
							L4.4,3.4L4.4,3.4C4.5,3.5,4.4,3.4,4.4,3.4c0,0-0.1,0-0.1,0l0,0c0,0,0-0.1,0-0.1c0,0-0.1,0-0.1,0c0,0,0,0,0,0.1
							c0,0,0,0.1,0,0.1l0,0l0,0C4.3,3.4,4.4,3.4,4.4,3.4L4.4,3.4L4.4,3.4z"/>
					</g>
					<path class="st6" d="M3.9,3.2c-0.1,0-0.1-0.1-0.2,0c0,0,0,0.1,0,0.2c0,0,0,0.1-0.1,0.1c0,0,0,0,0,0l0,0l0,0l0,0c0,0,0,0,0,0
						c0,0,0,0,0,0c0,0,0-0.1,0-0.1s0,0,0,0c0,0,0-0.1,0-0.1h0c0,0,0,0,0,0s0.1,0,0.1-0.1c0,0-0.1-0.1-0.1-0.1
						C3.8,3.2,3.8,3.3,3.9,3.2C3.9,3.2,3.9,3.3,3.9,3.2C3.9,3.3,3.9,3.2,3.9,3.2L3.9,3.2z"/>
					<g class="st9">
						<path d="M3.7,3.6L3.7,3.6L3.7,3.6L3.7,3.6L3.7,3.6L3.7,3.6L3.7,3.6C3.7,3.5,3.7,3.5,3.7,3.6C3.7,3.5,3.8,3.5,3.7,3.6
							c0.1-0.1,0-0.1,0-0.1l0,0c0,0,0.1,0,0.1-0.1c0,0,0,0,0-0.1c0,0,0,0,0,0c0,0,0,0,0,0c0,0,0,0,0,0c0,0,0,0,0,0.1
							c0,0-0.1,0.1-0.1,0.1C3.8,3.4,3.8,3.5,3.7,3.6C3.8,3.5,3.7,3.5,3.7,3.6C3.7,3.5,3.7,3.5,3.7,3.6L3.7,3.6L3.7,3.6z M3.7,3.5
							L3.7,3.5C3.6,3.4,3.6,3.4,3.7,3.5c0-0.1,0-0.1,0-0.1c0,0,0-0.1,0-0.1c0,0,0-0.1,0-0.1c0.1,0,0.1,0,0.1,0c0,0,0.1,0,0.1,0l0,0
							l0,0l0,0c0,0-0.1,0-0.1,0c0,0-0.1,0-0.1,0c0,0,0,0.1,0,0.1c0,0,0,0.1,0,0.1C3.7,3.4,3.7,3.4,3.7,3.5C3.6,3.4,3.6,3.4,3.7,3.5
							L3.7,3.5L3.7,3.5z"/>
					</g>
					<path class="st6" d="M4.2,2.6c-0.1,0-0.2,0-0.3-0.1c0,0-0.1,0-0.1,0c0,0-0.1,0.1-0.1,0.1c-0.1,0-0.1,0.1-0.1,0.1
						c-0.1,0-0.1,0.1-0.1,0.1c0,0,0,0.1,0,0c0,0,0,0,0,0c0.1,0.1,0.2-0.1,0.2-0.1C4,2.9,4,2.8,4,2.8l0,0L4.2,2.6z"/>
					<g class="st9">
						<path d="M3.7,3C3.7,3,3.7,3,3.7,3L3.7,3C3.6,2.9,3.6,2.9,3.6,2.9c0,0,0-0.1,0.1-0.1c0,0,0,0,0-0.1c0,0,0,0,0.1,0c0,0,0,0,0,0
							c0,0,0,0,0,0c0,0,0,0,0.1,0c0,0,0.1,0,0.2,0c0.1,0,0.1,0,0.1,0L4.1,2.8l0,0c0,0,0,0.1-0.2,0.1C3.9,2.9,3.8,2.9,3.7,3
							C3.8,3,3.7,3,3.7,3L3.7,3z M3.6,2.9L3.6,2.9L3.6,2.9C3.7,3,3.7,3,3.8,2.9c0,0,0.1-0.1,0.1-0.1C4,2.9,4,2.8,4,2.8l0,0l0.1-0.2
							c0,0-0.1,0-0.1,0c-0.1,0-0.1,0-0.2,0c0,0,0,0,0,0c0,0,0,0,0,0l0,0l0,0c0,0-0.1,0-0.1,0c0,0,0,0,0,0.1C3.6,2.8,3.6,2.8,3.6,2.9
							L3.6,2.9L3.6,2.9L3.6,2.9z"/>
					</g>
					<path class="st6" d="M4.4,2.6c0,0.1,0,0.1-0.1,0.1c-0.1,0-0.1,0-0.1-0.1c0-0.1,0-0.1,0.1-0.1C4.3,2.5,4.4,2.5,4.4,2.6L4.4,2.6z
						"/>
					<g class="st9">
						<path d="M4.2,2.7c-0.1,0-0.1,0-0.1-0.1c0-0.1,0.2-0.1,0.2,0C4.4,2.6,4.3,2.7,4.2,2.7L4.2,2.7z M4.2,2.5c-0.1,0-0.1,0-0.1,0.1
							c0,0.1,0.2,0.1,0.2,0C4.3,2.5,4.3,2.5,4.2,2.5L4.2,2.5z"/>
					</g>
					<path class="st6" d="M4.1,3.4C4,3.4,3.9,3.3,3.9,3.2C3.9,3,4.3,3.1,4.3,2.9c0-0.1,0-0.2,0.1-0.3c0,0,0.1,0,0.1,0s0,0,0,0
						c0.1,0,0.1,0,0.2,0c0,0,0,0,0,0.1c0,0,0,0,0,0c0,0,0,0-0.1,0c0,0-0.1,0-0.1,0s0.1,0.1,0.1,0.2c0,0,0.1,0.1,0.1,0.1
						s0.1,0,0.1-0.1c0,0,0.1,0,0.2,0.1C4.9,3,4.9,3,4.9,3S4.9,3,4.9,3c0,0-0.1-0.1-0.2,0c0,0.1-0.1,0.1-0.1,0.1s0.1,0,0.1,0
						c0,0,0.1,0.1,0.1,0.1l0.1,0.1c0,0-0.1,0-0.1-0.1c0,0.1,0,0-0.1-0.1c0,0,0,0-0.1,0c-0.1,0-0.1,0-0.2,0c-0.1,0-0.1,0.1-0.2,0.1
						c-0.1,0-0.1,0-0.1,0l0,0c0,0,0,0.1,0,0.1C4.2,3.4,4.2,3.4,4.1,3.4c0.1,0.1,0.1,0.1,0.2,0.1c0,0,0,0,0.1,0c0,0,0,0.1,0,0.1
						s0,0-0.1,0c0,0,0,0,0,0C4.1,3.5,4.1,3.5,4,3.5C4,3.5,4.1,3.4,4.1,3.4L4.1,3.4z"/>
					<g class="st9">
						<path d="M4.3,3.6L4.3,3.6C4.1,3.5,4.1,3.5,4.1,3.5c0,0,0,0,0,0C4.1,3.5,4.2,3.5,4.3,3.6L4.3,3.6L4.3,3.6
							C4.3,3.6,4.3,3.6,4.3,3.6C4.3,3.6,4.3,3.6,4.3,3.6L4.3,3.6L4.3,3.6z M4.3,3.5L4.3,3.5c-0.1,0-0.1-0.1-0.1-0.1c0,0,0,0,0-0.1
							c0,0,0,0,0,0c0,0,0,0.1,0,0.1C4.1,3.5,4.2,3.5,4.3,3.5L4.3,3.5C4.3,3.5,4.3,3.5,4.3,3.5L4.3,3.5L4.3,3.5z M4.1,3.5
							C4,3.5,4,3.5,4.1,3.5c0-0.1,0-0.1,0-0.1C4,3.4,3.9,3.3,3.9,3.2C3.9,3.1,4,3.1,4.1,3c0.1,0,0.2,0,0.2-0.1c0-0.1,0-0.2,0.1-0.3
							c0,0,0.1,0,0.1-0.1c0,0,0,0,0,0l0,0v0c0,0,0,0-0.1,0C4.3,2.7,4.3,2.8,4.3,2.9C4.3,3,4.2,3,4.1,3.1c-0.1,0-0.2,0-0.2,0.2
							c0,0.1,0.1,0.1,0.2,0.2C4.1,3.4,4.1,3.4,4.1,3.5C4.1,3.5,4.1,3.5,4.1,3.5L4.1,3.5z M4.3,3.3L4.3,3.3L4.3,3.3
							C4.3,3.3,4.3,3.3,4.3,3.3c0.1,0,0.1-0.1,0.1-0.1c0,0,0.1,0,0.1,0c0.1,0,0.1,0,0.2,0l0,0l0.1,0c0,0,0.1,0,0.1,0.1
							c0,0,0,0-0.1-0.1l-0.1,0l0,0l0,0c0,0-0.1,0-0.1,0c-0.1,0-0.1,0-0.1,0C4.4,3.2,4.3,3.2,4.3,3.3C4.3,3.3,4.3,3.3,4.3,3.3
							L4.3,3.3z M4.9,3.3C4.9,3.3,4.8,3.3,4.9,3.3C4.9,3.3,4.9,3.3,4.9,3.3L4.9,3.3L4.9,3.3c0-0.1-0.1-0.1-0.2-0.2c0,0-0.1,0-0.1,0
							c0,0,0,0,0,0c0,0,0.1,0,0.1,0C4.8,3.1,4.8,3.2,4.9,3.3L4.9,3.3C4.9,3.3,4.9,3.3,4.9,3.3L4.9,3.3z M4.6,3c0,0,0-0.1,0-0.1
							c0.1,0,0.1,0,0.1,0l0,0v0l0,0L4.8,2.9c0,0,0,0-0.1,0c0,0-0.1,0-0.1,0C4.7,2.9,4.6,2.9,4.6,3c0-0.1-0.1-0.1-0.1-0.2
							c0,0-0.1-0.1-0.1-0.2c0,0,0.1,0,0.1,0c0,0,0.1,0,0.1,0c0,0,0,0,0-0.1c0,0,0,0-0.1,0c0,0-0.1,0-0.1,0v0c0,0,0.1,0,0.1,0
							c0,0,0,0,0.1,0c0,0,0,0,0,0.1c0,0,0,0-0.1,0c0,0-0.1,0-0.1,0c0,0,0.1,0.1,0.1,0.2c0,0,0.1,0.1,0.1,0.1c0,0,0.1,0,0.1-0.1
							c0,0,0.1,0,0.1,0c0,0,0,0,0.1,0L4.9,3c0,0-0.1,0-0.1,0c0,0,0,0,0,0c0,0-0.1,0-0.1,0C4.7,3,4.7,3,4.6,3L4.6,3z"/>
					</g>
					<path class="st6" d="M3.8,2.9C3.8,2.9,3.8,3,3.8,2.9L3.9,3l0.1,0.1l0.1,0.1L4,3.1L3.8,2.9L3.8,2.9C3.8,3,3.8,3,3.8,2.9L3.8,2.9
						z"/>
					<g class="st9">
						<path d="M4.1,3.2L4,3.2L3.8,3c0,0,0,0,0,0c0,0,0.1,0,0.1,0L4.1,3.2L4.1,3.2L4.1,3.2z M3.8,2.9L3.8,2.9L4,3.1l0.1,0l0-0.1
							L3.8,2.9L3.8,2.9z"/>
					</g>
					<path class="st6" d="M4.7,3.2c-0.1,0-0.2,0.1-0.2,0.1l0.1,0.1C4.6,3.4,4.6,3.3,4.7,3.2L4.7,3.2z"/>
					<g class="st9">
						<path d="M4.6,3.5L4.5,3.3c0,0,0.1-0.1,0.2-0.1c0,0,0,0,0,0c-0.1,0-0.2,0.1-0.2,0.1L4.6,3.5c0-0.1,0-0.2,0.1-0.2
							C4.6,3.3,4.6,3.4,4.6,3.5L4.6,3.5L4.6,3.5z"/>
					</g>
					<path class="st6" d="M4.1,2.8c0,0,0,0.1,0,0.1c0,0,0,0.1,0.1,0.1c0,0,0.2,0,0.2,0c0,0.1,0.1,0.1,0.1,0.2c0,0,0,0,0,0
						c0,0,0,0,0,0c0,0,0.1,0,0.1,0c0,0-0.1-0.1-0.1-0.1c0,0-0.1-0.1-0.1-0.2C4.3,3,4.3,3,4.3,3l0-0.1l0-0.1l0,0c0,0,0,0,0,0
						c0,0,0,0,0,0c0,0,0,0,0,0c0,0,0,0,0,0c0,0,0-0.1-0.1-0.1c-0.1,0-0.1,0.1-0.1,0.1c0,0,0,0,0,0c0,0,0,0,0,0s0,0-0.1,0
						C4.1,2.7,4,2.7,4.1,2.8C4,2.7,4,2.7,4.1,2.8c-0.1,0-0.1,0-0.2,0c-0.1,0-0.1,0.1-0.1,0.1s0,0,0,0c0,0,0,0,0,0c0,0,0,0,0,0
						c0,0,0,0,0,0c0,0,0,0,0,0c0,0,0,0,0,0c0,0,0,0,0,0c0,0,0,0,0,0c0,0,0,0,0,0c0,0,0,0,0,0S4,2.9,4.1,2.8C4,2.8,4,2.8,4.1,2.8
						L4.1,2.8z"/>
					<g class="st9">
						<path d="M4.6,3.3C4.6,3.3,4.5,3.3,4.6,3.3L4.6,3.3C4.5,3.3,4.6,3.3,4.6,3.3L4.6,3.3L4.6,3.3C4.6,3.3,4.5,3.3,4.6,3.3
							C4.5,3.2,4.5,3.2,4.5,3.2c0,0-0.1-0.1-0.1-0.2C4.3,3,4.3,3,4.3,3V2.9l0-0.1l0,0l0,0l0.1-0.1c0,0,0,0,0,0c0,0,0,0-0.1,0l0,0
							c0,0,0,0,0,0c0,0,0,0,0,0l0,0l0,0.1l-0.1,0v0c0,0-0.1,0-0.1,0.1c0,0,0,0,0,0c0,0,0,0-0.1,0.1c-0.1,0-0.1,0.1-0.1,0.1l0,0v0h0
							c0,0,0-0.1,0.1-0.1c0,0,0-0.1,0.1-0.1c0,0,0,0,0.1,0c0,0,0,0,0.1-0.1l0.1,0l0,0l0,0c0,0,0,0,0-0.1c0,0,0,0,0.1,0
							c0,0,0.1,0,0.1,0.1c0,0,0,0,0,0.1l0,0c0,0,0,0,0,0l0,0l0,0.3c0,0,0.1,0,0.1,0.1c0,0.1,0.1,0.2,0.1,0.2
							C4.5,3.2,4.5,3.2,4.6,3.3C4.6,3.3,4.6,3.3,4.6,3.3L4.6,3.3L4.6,3.3z M4.3,3.1c-0.1,0-0.2,0-0.2,0c0,0-0.1-0.1-0.1-0.1
							c0,0,0-0.1,0-0.1c0,0,0,0-0.1,0c0,0-0.1,0.1-0.1,0.1c0,0,0,0,0,0l0,0.1l0,0l0,0l0,0l0,0c0-0.1,0-0.1,0-0.1c0,0,0.1,0,0.1-0.1
							c0,0,0.1,0,0.1,0c0,0,0,0,0,0c0,0,0,0,0,0c0,0,0,0,0,0c0,0,0,0.1,0,0.1c0,0,0,0.1,0.1,0.1C4.2,3,4.3,3.1,4.3,3.1L4.3,3.1
							C4.3,3.1,4.3,3.1,4.3,3.1L4.3,3.1z"/>
					</g>
					<path class="st6" d="M3.9,2.6C4,2.6,4,2.6,3.9,2.6c0.1,0,0.1-0.1,0.2,0c0,0,0.1,0,0.1,0s0,0,0.1,0c0.1,0,0.1,0.1,0.1,0.1
						c0,0-0.1,0-0.1,0c0,0-0.1,0-0.1,0.1C4.1,2.6,4,2.6,3.9,2.6L3.9,2.6z"/>
					<g class="st9">
						<path d="M4.1,2.6C4.1,2.6,4.1,2.6,4.1,2.6C4,2.6,4,2.6,4,2.6c0,0,0,0,0,0C4,2.6,4,2.6,4.1,2.6C4.1,2.6,4.1,2.6,4.1,2.6
							L4.1,2.6L4.1,2.6C4.1,2.6,4.1,2.6,4.1,2.6l0.1-0.1c0,0,0,0,0.1,0c0,0,0,0,0,0c0,0,0-0.1-0.1-0.1c0,0-0.1,0-0.1,0
							C4.2,2.6,4.2,2.5,4.1,2.6L4.1,2.6C4,2.5,4,2.6,4.1,2.6C4,2.6,4,2.6,4,2.6C4,2.6,4,2.6,4.1,2.6L4.1,2.6C4,2.6,4,2.5,4.1,2.6
							C4.2,2.5,4.2,2.5,4.1,2.6c0.1-0.1,0.1-0.1,0.2-0.1c0,0,0.1,0,0.1,0l0,0c0,0,0,0-0.1,0c0,0,0,0-0.1,0L4.1,2.6
							C4.1,2.6,4.1,2.6,4.1,2.6L4.1,2.6L4.1,2.6z"/>
					</g>
					<path class="st6" d="M4.1,2.6C4.1,2.6,4.1,2.6,4.1,2.6c0.1,0,0.1,0,0.1,0l0,0l0,0l0,0.2c0,0-0.1-0.1-0.1-0.1
						C4.1,2.8,4.2,2.8,4.1,2.6C4.1,2.7,4.1,2.7,4.1,2.6L4.1,2.6z"/>
					<g class="st9">
						<path d="M4.3,3L4.3,3C4.3,2.9,4.2,2.9,4.3,3C4.2,2.9,4.2,2.9,4.2,2.8c0,0,0,0,0,0c0,0,0,0,0-0.1c0,0-0.1-0.1-0.1-0.1
							c0,0,0,0,0.1,0c0,0,0,0,0,0c0,0-0.1,0-0.1,0c0,0,0,0,0,0c0,0,0,0.1,0,0.1c0,0,0,0,0,0C4.2,2.9,4.2,2.9,4.3,3
							C4.2,2.9,4.3,2.9,4.3,3L4.3,3L4.3,3L4.3,3L4.3,3z"/>
					</g>
					<path class="st6" d="M4.2,2.7C4.2,2.7,4.2,2.7,4.2,2.7C4.2,2.7,4.2,2.7,4.2,2.7C4.2,2.7,4.3,2.7,4.2,2.7
						C4.3,2.7,4.3,2.8,4.2,2.7L4.2,2.7C4.3,2.8,4.2,2.8,4.2,2.7C4.2,2.7,4.2,2.7,4.2,2.7C4.2,2.7,4.2,2.7,4.2,2.7
						C4.2,2.7,4.2,2.7,4.2,2.7L4.2,2.7z"/>
					<g class="st9">
						<path class="st11" d="M4.2,2.7C4.2,2.7,4.2,2.7,4.2,2.7C4.2,2.7,4.2,2.7,4.2,2.7C4.2,2.7,4.3,2.7,4.2,2.7
							C4.3,2.7,4.3,2.8,4.2,2.7L4.2,2.7C4.3,2.8,4.2,2.8,4.2,2.7C4.2,2.7,4.2,2.7,4.2,2.7C4.2,2.7,4.2,2.7,4.2,2.7
							C4.2,2.7,4.2,2.7,4.2,2.7z"/>
					</g>
					<path class="st6" d="M4.4,2.6C4.4,2.6,4.4,2.6,4.4,2.6L4.3,2.7l0,0l0,0.1l0,0.1l0,0.1c0,0,0,0,0,0c0,0,0-0.1,0-0.1s0,0,0-0.1
						C4.3,2.7,4.4,2.6,4.4,2.6L4.4,2.6z"/>
					<g class="st9">
						<path d="M4.3,2.9L4.3,2.9l0-0.2V2.7l0,0l0.1-0.1l0,0c0,0,0,0,0,0.1c0,0,0,0.1-0.1,0.1c0,0.1,0,0.1,0,0.1
							C4.3,2.8,4.3,2.9,4.3,2.9C4.3,2.9,4.3,2.9,4.3,2.9L4.3,2.9L4.3,2.9z M4.4,2.6L4.3,2.7l0,0.1l0,0.1l0,0.1c0,0,0,0,0,0
							c0,0,0-0.1,0-0.1c0,0,0,0,0-0.1C4.3,2.7,4.3,2.7,4.4,2.6C4.4,2.6,4.4,2.6,4.4,2.6L4.4,2.6z"/>
					</g>
					<path class="st6" d="M4.5,2.7c0,0-0.1,0.1-0.3,0.2c0,0,0-0.1,0-0.1l0,0c0,0,0,0.1,0,0.1C4.4,2.8,4.6,2.7,4.5,2.7L4.5,2.7z"/>
					<g class="st9">
						<path d="M4.3,2.9L4.3,2.9c-0.1,0,0-0.1,0-0.1c0,0,0,0,0,0C4.2,2.8,4.2,2.8,4.3,2.9L4.3,2.9L4.3,2.9c0.1,0,0.2-0.1,0.3-0.2
							C4.5,2.8,4.4,2.9,4.3,2.9L4.3,2.9L4.3,2.9z M4.3,2.9C4.3,2.9,4.3,2.9,4.3,2.9c0.2-0.1,0.3-0.2,0.3-0.2c0,0,0,0,0,0
							C4.5,2.7,4.4,2.8,4.3,2.9L4.3,2.9z"/>
					</g>
					<path class="st6" d="M4.6,3.5C4.6,3.5,4.6,3.5,4.6,3.5C4.6,3.5,4.5,3.5,4.6,3.5c-0.1,0-0.1-0.1-0.1-0.1c0,0,0,0,0,0s0,0,0,0
						c0,0-0.1,0-0.1,0s0,0-0.1,0C4.5,3.2,4.6,3.5,4.6,3.5L4.6,3.5z"/>
					<g class="st9">
						<path d="M4.6,3.5C4.6,3.5,4.5,3.5,4.6,3.5C4.5,3.5,4.5,3.5,4.6,3.5L4.6,3.5L4.5,3.4l0,0l0,0c0,0,0,0,0,0c0,0-0.1,0-0.1,0
							C4.5,3.2,4.6,3.4,4.6,3.5c0.1-0.1-0.1-0.2-0.2-0.2c0,0-0.1,0-0.1,0c0,0,0.1,0,0.1,0c0,0,0,0,0.1,0L4.6,3.5
							C4.5,3.4,4.5,3.5,4.6,3.5C4.5,3.5,4.6,3.5,4.6,3.5L4.6,3.5L4.6,3.5L4.6,3.5z"/>
					</g>
					<path class="st6" d="M4.7,3.5C4.7,3.5,4.8,3.6,4.7,3.5C4.8,3.6,4.8,3.5,4.7,3.5c0.1,0,0.1,0,0.1,0c0,0,0,0,0,0S4.8,3.7,4.7,3.5
						L4.7,3.5z"/>
					<g class="st9">
						<path d="M4.8,3.6C4.8,3.6,4.7,3.6,4.8,3.6C4.7,3.6,4.8,3.6,4.8,3.6C4.8,3.6,4.8,3.6,4.8,3.6L4.8,3.6C4.8,3.5,4.8,3.6,4.8,3.6
							L4.8,3.6C4.8,3.6,4.7,3.5,4.8,3.6L4.8,3.6C4.7,3.5,4.8,3.6,4.8,3.6C4.8,3.6,4.8,3.5,4.8,3.6L4.8,3.6L4.8,3.6L4.8,3.6
							C4.8,3.5,4.8,3.5,4.8,3.6L4.8,3.6C4.8,3.6,4.8,3.6,4.8,3.6C4.8,3.6,4.8,3.6,4.8,3.6L4.8,3.6z"/>
					</g>
					<path class="st6" d="M4.4,3.5L4.4,3.5C4.3,3.6,4.3,3.6,4.4,3.5C4.3,3.6,4.4,3.6,4.4,3.5C4.4,3.6,4.4,3.6,4.4,3.5
						c0.1,0.1,0.1,0.1,0.1,0.1s0,0,0,0c0,0,0,0,0,0s0,0,0,0c0,0,0,0,0,0C4.4,3.6,4.4,3.6,4.4,3.5C4.4,3.6,4.4,3.6,4.4,3.5L4.4,3.5z"
						/>
					<g class="st9">
						<path d="M4.3,3.6L4.3,3.6L4.3,3.6L4.3,3.6c0.1,0,0.1,0,0.1,0l0,0l0,0l0,0c0,0,0,0,0,0l0,0l0,0l0,0c0,0,0,0,0,0
							C4.4,3.6,4.4,3.6,4.3,3.6L4.3,3.6L4.3,3.6z"/>
					</g>
					<path class="st9" d="M3.3,3.4L3.3,3.4L3.3,3.4C3.4,3.3,3.4,3.3,3.3,3.4C3.4,3.3,3.4,3.3,3.3,3.4L3.3,3.4L3.3,3.4L3.3,3.4
						C3.4,3.3,3.4,3.3,3.3,3.4C3.4,3.3,3.4,3.3,3.3,3.4C3.4,3.3,3.4,3.3,3.3,3.4L3.3,3.4l0.1,0c0,0,0,0,0,0c0,0,0,0,0,0c0,0,0,0,0,0
						l0,0l0,0l0,0.1l0,0v0c0,0,0,0,0,0c0,0,0,0,0,0L3.3,3.4C3.3,3.4,3.3,3.4,3.3,3.4C3.3,3.4,3.3,3.4,3.3,3.4
						C3.3,3.4,3.3,3.4,3.3,3.4L3.3,3.4L3.3,3.4L3.3,3.4L3.3,3.4L3.3,3.4C3.3,3.3,3.3,3.3,3.3,3.4C3.3,3.3,3.3,3.3,3.3,3.4
						C3.3,3.3,3.3,3.3,3.3,3.4L3.3,3.4z M3.3,3.1C3.3,3.1,3.3,3,3.3,3.1C3.3,3,3.3,3,3.3,3.1C3.4,3,3.4,3,3.4,3c0,0,0,0,0,0.1
						c0,0,0,0,0,0.1C3.4,3.2,3.4,3.2,3.3,3.1C3.3,3.2,3.3,3.2,3.3,3.1C3.3,3.1,3.3,3.1,3.3,3.1L3.3,3.1z M3.3,3.1
						C3.3,3.1,3.3,3.1,3.3,3.1C3.3,3.1,3.3,3.1,3.3,3.1c0.1,0.1,0.1,0.1,0.1,0c0,0,0,0,0,0c0,0,0,0,0,0C3.4,3,3.4,3,3.3,3.1
						C3.3,3,3.3,3,3.3,3.1C3.3,3.1,3.3,3.1,3.3,3.1L3.3,3.1z M3.5,2.8L3.5,2.8L3.4,2.8c0,0,0,0,0,0c0,0,0,0,0,0v0l0,0c0,0,0,0,0,0
						C3.5,2.9,3.5,2.9,3.5,2.8L3.5,2.8L3.5,2.8L3.5,2.9l0,0l0,0c0,0,0,0,0,0c0,0,0,0,0,0l-0.1,0c0,0,0,0,0,0c0,0,0,0,0,0l0,0l0,0
						l0-0.1c0,0,0,0,0,0c0,0,0,0,0,0c0,0,0,0,0,0c0,0,0,0,0,0c0,0,0,0,0,0L3.5,2.8C3.5,2.8,3.5,2.8,3.5,2.8C3.5,2.8,3.5,2.8,3.5,2.8
						L3.5,2.8z M3.4,2.9C3.4,2.9,3.4,2.9,3.4,2.9C3.4,2.9,3.4,2.9,3.4,2.9C3.4,2.8,3.4,2.8,3.4,2.9C3.4,2.8,3.4,2.8,3.4,2.9
						C3.4,2.8,3.4,2.8,3.4,2.9C3.4,2.8,3.4,2.8,3.4,2.9C3.3,2.8,3.3,2.8,3.4,2.9L3.4,2.9z M3.8,2.3L3.8,2.3L3.8,2.3
						C3.8,2.3,3.8,2.3,3.8,2.3C3.8,2.3,3.8,2.3,3.8,2.3C3.7,2.3,3.7,2.4,3.8,2.3C3.7,2.4,3.7,2.4,3.7,2.4c0,0,0,0,0,0c0,0,0,0,0,0
						c0,0,0,0,0,0c0,0,0,0,0,0c0,0,0,0,0,0l0,0C3.8,2.4,3.8,2.4,3.8,2.3C3.8,2.4,3.8,2.4,3.8,2.3C3.8,2.4,3.8,2.4,3.8,2.3L3.8,2.3
						L3.8,2.3L3.8,2.3L3.8,2.3C3.8,2.4,3.8,2.4,3.8,2.3C3.8,2.4,3.8,2.4,3.8,2.3l0.1,0.1c0,0,0,0,0,0c0,0,0,0,0,0c0,0-0.1,0-0.1,0
						c0,0,0,0,0,0c0,0,0,0,0,0C3.7,2.4,3.7,2.4,3.8,2.3C3.7,2.3,3.7,2.3,3.8,2.3C3.7,2.3,3.7,2.3,3.8,2.3C3.7,2.3,3.8,2.3,3.8,2.3
						C3.8,2.3,3.8,2.3,3.8,2.3C3.8,2.3,3.8,2.3,3.8,2.3C3.8,2.3,3.8,2.3,3.8,2.3L3.8,2.3z M4.1,2.3L4.1,2.3L4.1,2.3
						C4,2.4,4,2.4,4.1,2.3C4,2.4,4,2.4,4.1,2.3C4,2.4,4,2.4,4.1,2.3L4.1,2.3L4.1,2.3L4.1,2.3C4,2.4,4,2.4,4.1,2.3
						C4,2.4,4,2.4,4.1,2.3L4,2.2l0,0L4.1,2.3C4.1,2.3,4.1,2.3,4.1,2.3C4.1,2.3,4.1,2.3,4.1,2.3L4.1,2.3L4.1,2.3L4.1,2.3
						C4.1,2.4,4.1,2.4,4.1,2.3C4.1,2.3,4.1,2.3,4.1,2.3C4.1,2.3,4.1,2.3,4.1,2.3L4.1,2.3z M4.1,2.3L4.1,2.3L4.1,2.3L4.1,2.3z
						 M4.4,2.3L4.4,2.3L4.4,2.3l-0.1,0v0l0,0c0,0,0,0,0,0c0,0,0,0,0,0l0-0.1c0,0,0,0,0,0c0,0,0,0,0,0h0l0,0l0.1,0v0c0,0,0,0,0,0
						c0,0,0,0,0,0C4.3,2.2,4.3,2.2,4.4,2.3L4.4,2.3C4.3,2.3,4.3,2.3,4.4,2.3C4.3,2.3,4.3,2.3,4.4,2.3C4.3,2.3,4.3,2.3,4.4,2.3
						L4.4,2.3C4.3,2.3,4.3,2.3,4.4,2.3C4.3,2.3,4.3,2.3,4.4,2.3C4.4,2.3,4.4,2.3,4.4,2.3L4.4,2.3z M4.6,2.4L4.6,2.4L4.6,2.4H4.4l0,0
						l0,0c0,0,0,0,0,0c0,0,0,0,0,0l0-0.1c0,0,0,0,0,0c0,0,0,0,0,0l0,0l0,0l0.1,0v0c0,0,0,0,0,0c0,0,0,0,0,0c0,0,0,0,0,0L4.6,2.4
						C4.5,2.4,4.5,2.4,4.6,2.4C4.5,2.4,4.5,2.4,4.6,2.4C4.5,2.4,4.5,2.4,4.6,2.4L4.6,2.4C4.5,2.4,4.5,2.4,4.6,2.4
						C4.6,2.4,4.6,2.4,4.6,2.4C4.6,2.4,4.6,2.4,4.6,2.4L4.6,2.4z M4.8,2.5L4.8,2.5L4.8,2.5C4.7,2.4,4.7,2.4,4.8,2.5
						C4.7,2.4,4.7,2.4,4.8,2.5C4.7,2.5,4.7,2.5,4.8,2.5L4.8,2.5l-0.1,0l0,0c0,0,0,0,0,0C4.7,2.4,4.7,2.4,4.8,2.5l0-0.1l0,0L4.8,2.5
						C4.8,2.5,4.8,2.5,4.8,2.5C4.8,2.5,4.8,2.5,4.8,2.5L4.8,2.5L4.8,2.5L4.8,2.5C4.8,2.5,4.8,2.5,4.8,2.5C4.8,2.5,4.8,2.5,4.8,2.5
						C4.8,2.5,4.8,2.5,4.8,2.5L4.8,2.5z M4.8,2.4L4.8,2.4L4.8,2.4L4.8,2.4z M5,2.5L5,2.5l0,0.2l0.1-0.1c0,0,0,0,0,0c0,0,0,0,0,0l0,0
						l0,0l0,0l0,0l0,0c0,0,0,0,0,0c0,0,0,0,0,0L4.9,2.7v0L5,2.5L4.9,2.6c0,0,0,0,0,0c0,0,0,0,0,0l0,0l0,0l0-0.1v0l0,0c0,0,0,0,0,0
						c0,0,0,0,0,0L5,2.5C5,2.5,5,2.5,5,2.5C5,2.5,5,2.5,5,2.5C5,2.5,5,2.5,5,2.5L5,2.5z M5.2,2.9L5.2,2.9L5.2,2.9
						C5.2,2.9,5.2,2.9,5.2,2.9C5.2,2.9,5.2,2.9,5.2,2.9C5.2,2.9,5.2,2.9,5.2,2.9L5.2,2.9L5,2.9c0,0,0,0,0,0c0,0,0,0,0,0v0l0,0l0-0.1
						v0l0,0c0,0,0,0,0,0c0,0,0,0,0,0L5.2,2.9L5.2,2.9c0-0.1-0.1-0.1-0.1-0.1c0,0,0,0,0,0c0,0,0,0,0,0l0,0l0,0L5.2,2.9z M5.1,3.2
						L5.1,3.2l0.1-0.1c0,0,0,0,0,0v0c0,0,0,0,0,0l-0.1,0c0,0,0,0,0,0c0,0,0,0,0,0V3.2L5.1,3.2l0-0.2l0,0v0c0,0,0,0,0,0c0,0,0,0,0,0
						l0.1,0c0,0,0,0,0,0c0,0,0,0,0,0v0h0l0,0.1c0,0,0,0,0,0c0,0,0,0,0,0c0,0,0,0,0,0c0,0,0,0,0,0C5.2,3.1,5.1,3.1,5.1,3.2L5.1,3.2
						C5.1,3.2,5.1,3.2,5.1,3.2C5.1,3.2,5.1,3.2,5.1,3.2L5.1,3.2z M5.1,3.1L5.1,3.1L5.1,3.1C5.1,3.1,5.2,3.1,5.1,3.1
						C5.2,3.1,5.2,3.1,5.1,3.1C5.2,3.1,5.2,3.1,5.1,3.1C5.2,3.1,5.2,3.1,5.1,3.1C5.2,3.1,5.2,3.1,5.1,3.1L5.1,3.1z M5.2,3.4L5.2,3.4
						L5.2,3.4L5.2,3.4C5.2,3.5,5.2,3.5,5.2,3.4C5.2,3.5,5.2,3.5,5.2,3.4C5.2,3.4,5.2,3.4,5.2,3.4L5.2,3.4L5.1,3.4c0,0,0,0,0,0
						c0,0,0,0,0,0l0,0l0,0l0-0.1h0v0c0,0,0,0,0,0c0,0,0,0,0,0L5.2,3.4L5.2,3.4c0-0.1,0-0.1,0-0.1c0,0,0,0,0,0c0,0,0,0,0,0l0,0
						L5.2,3.4L5.2,3.4L5.2,3.4C5.2,3.4,5.2,3.4,5.2,3.4C5.2,3.4,5.2,3.4,5.2,3.4C5.2,3.4,5.2,3.4,5.2,3.4L5.2,3.4L5.2,3.4
						C5.2,3.4,5.2,3.4,5.2,3.4C5.2,3.4,5.2,3.4,5.2,3.4C5.2,3.4,5.2,3.4,5.2,3.4C5.2,3.4,5.2,3.4,5.2,3.4L5.2,3.4z"/>
				</g>
			</g>
		</g>
	</g>
</g>
</svg>
