<?xml version="1.0" encoding="utf-8"?>
<!-- Generator: Adobe Illustrator 21.1.0, SVG Export Plug-In . SVG Version: 6.00 Build 0)  -->
<svg version="1.1" xmlns="http://www.w3.org/2000/svg" xmlns:xlink="http://www.w3.org/1999/xlink" x="0px" y="0px"
	 viewBox="0 0 34 19" style="enable-background:new 0 0 34 19;" xml:space="preserve">
<style type="text/css">
	.st0{clip-path:url(#SVGID_2_);fill:#CBAE43;}
	.st1{clip-path:url(#SVGID_2_);fill:#B41630;}
	.st2{clip-path:url(#SVGID_2_);}
	.st3{clip-path:url(#SVGID_4_);fill:#AC6A32;}
	.st4{clip-path:url(#SVGID_4_);fill:#B41630;}
	.st5{clip-path:url(#SVGID_4_);fill:#CBAE43;}
	.st6{clip-path:url(#SVGID_4_);fill:#355D8E;}
	.st7{clip-path:url(#SVGID_4_);fill:#718C42;}
</style>
<g id="Calque_1">
</g>
<g id="_x34_">
	<g id="MONTENEGRO_2_">
		<g>
			<g>
				<defs>
					<rect id="SVGID_1_" x="-0.2" y="-0.3" width="34.5" height="19.6"/>
				</defs>
				<clipPath id="SVGID_2_">
					<use xlink:href="#SVGID_1_"  style="overflow:visible;"/>
				</clipPath>
				<rect x="-0.2" y="-0.3" class="st0" width="34.5" height="19.6"/>
				<rect x="0.8" y="0.7" class="st1" width="32.5" height="17.6"/>
				<g class="st2">
					<defs>
						<rect id="SVGID_3_" x="-0.2" y="-0.3" width="34.5" height="19.6"/>
					</defs>
					<clipPath id="SVGID_4_">
						<use xlink:href="#SVGID_3_"  style="overflow:visible;"/>
					</clipPath>
					<path class="st3" d="M21.3,9.3c0.1,0,0.5-0.1,0.8-0.4c0.3-0.2,0.3-0.4,0.4-0.5c0-0.1,0-0.2,0-0.1c-0.1,0.1-0.3,0.2-0.4,0.3
						c-0.1,0.1-0.3,0.1-0.4,0.1c-0.1,0-0.1,0-0.1,0c0.1,0,0.3-0.1,0.5-0.3c0.2-0.2,0.4-0.5,0.4-0.7c0-0.2,0-0.2-0.1-0.1
						c-0.1,0-0.3,0.3-0.4,0.4c-0.1,0.1-0.3,0.2-0.4,0.3c-0.1,0.1-0.2,0.1,0,0c0.2-0.1,0.5-0.4,0.7-0.8c0.1-0.4,0.1-0.6,0.1-0.6
						c0,0,0-0.1-0.1,0c0,0.1-0.3,0.5-0.4,0.7c-0.2,0.2-0.1,0.2-0.2,0.2c0,0-0.1,0.1,0,0c0.1-0.1,0.3-0.4,0.4-0.6
						C22,6.9,22,6.6,22,6.5c0-0.1-0.1-0.4-0.1-0.4c0-0.1-0.1-0.1-0.1,0c0,0.1-0.2,0.5-0.2,0.7c-0.1,0.2-0.2,0.5-0.3,0.5
						c0,0-0.1,0.1,0,0c0.1-0.2,0.3-0.7,0.3-1.1c0-0.5,0-0.7-0.1-0.9c-0.1-0.1-0.1-0.2-0.1-0.2s0,0.3-0.1,0.8
						c-0.1,0.5-0.2,0.7-0.2,0.7s-0.1,0.1,0,0c0-0.1,0.1-0.2,0.1-0.5c0-0.3,0-0.6-0.1-0.9c-0.1-0.3-0.3-0.5-0.3-0.5
						c0,0.4,0,1-0.2,1.5c0,0-0.1-0.1-0.1,0c0,0.2-0.1,0.4-0.3,0.8C20.1,7.3,20,7.4,20,7.4s0-0.1-0.1-0.1c0,0,0-0.1-0.1,0
						c0,0.1-0.1,0.3-0.4,0.6c-0.2,0.3-0.4,0.4-0.4,0.6c0,0.2,0.1,0.3,0.3,0.4c0.1,0.1,0.2,0.1,0.2,0.3c0,0.1-0.2,0.2-0.3,0.2
						c-0.1,0-0.3,0-0.3,0c-0.1,0-0.1,0.1-0.1,0.2c0,0.1-0.1,0.1-0.1,0.1c0,0,0,0,0,0c0-0.5,0.2-0.8,0.2-0.8L18.3,8c0,0-0.1,0-0.1,0
						c0,0,0,0,0,0c-0.1-0.1-0.1-0.2-0.1-0.3c0,0,0.1,0,0.1,0c0.1,0,0-0.1,0-0.1c0-0.1,0-0.2,0-0.3c0-0.1,0-0.1,0-0.1
						s0.1,0.1,0.1,0.1c0.1,0,0-0.1,0.1-0.1c0-0.1,0.1-0.2,0.1-0.3c0,0,0.1,0.1,0.2,0.1c0.1,0,0.3,0,0.4-0.1s0.1-0.1,0.1-0.1
						s0.2,0.1,0.4,0.1c0.2,0,0.3,0,0.4-0.2c0.1-0.2,0-0.3,0-0.4c0,0-0.1,0-0.1,0c0,0,0,0.2-0.1,0.2c-0.1,0.1-0.2,0.1-0.3,0
						c-0.1,0-0.2-0.1-0.4,0c-0.1,0-0.2,0-0.2,0c0,0,0.1-0.1,0.3-0.2c0.1,0,0.2,0,0.2,0.1c0,0,0.1,0.1,0.1,0c0-0.1,0-0.2,0-0.3
						C19.5,6,19.4,6,19.3,6c-0.1,0-0.2,0-0.2,0s-0.1-0.2-0.2-0.2c-0.2,0-0.4,0-0.6,0.1c0,0-0.1,0-0.3,0c-0.1,0-0.2-0.1-0.2-0.1
						c0-0.1,0-0.1,0-0.1s0,0,0.1,0c0,0,0,0,0-0.1c0,0-0.1-0.1-0.1-0.1s0-0.1,0.1-0.2c0.1-0.1,0.1-0.1,0.1-0.1s0.1,0,0.1,0
						c0,0,0,0,0,0s0.1,0,0.1-0.1c0,0,0-0.1,0-0.1c0,0,0,0,0-0.1c0,0,0-0.1,0-0.1c0,0,0,0,0,0s0,0,0-0.1c0-0.1,0-0.1-0.1-0.1
						c0,0,0,0,0,0s0,0,0-0.1c0-0.1-0.1-0.1-0.1-0.1s0,0,0-0.1c0,0,0-0.1-0.1-0.1c0,0-0.1,0-0.1,0S18.1,4.3,18,4.3c0,0-0.1,0-0.1,0
						s0,0,0-0.1c0,0-0.1,0-0.1,0c0,0,0,0,0,0s-0.2,0-0.2-0.1c-0.1,0-0.1,0-0.1,0S17.3,4,17.3,4c-0.1,0-0.1,0-0.1,0s0.1-0.1,0.1-0.2
						c0-0.1-0.1-0.2-0.1-0.2c0,0-0.1,0-0.1,0V3.5l0.1,0l0-0.2l-0.1,0l0-0.1l-0.2,0l0,0.1l-0.1,0l0,0.2l0.1,0l0,0.1c0,0,0,0-0.1,0
						c-0.1,0-0.1,0.1-0.1,0.2c0,0.1,0.1,0.2,0.1,0.2s0,0-0.1,0c-0.1,0-0.2,0.1-0.2,0.1s0,0-0.1,0c-0.1,0-0.2,0.1-0.2,0.1s0,0,0,0
						c0,0-0.1,0-0.1,0c0,0,0,0.1,0,0.1s0,0-0.1,0c0,0-0.2,0.1-0.2,0.1s0,0-0.1,0c0,0-0.1,0-0.1,0.1c0,0,0,0.1,0,0.1s0,0-0.1,0.1
						c0,0.1,0,0.1,0,0.1s0,0,0,0c0,0-0.1,0-0.1,0.1c0,0.1,0,0.1,0,0.1s0,0,0,0c0,0,0,0.1,0,0.1c0,0,0,0,0,0.1c0,0,0,0.1,0,0.1
						c0,0,0.1,0.1,0.1,0.1s0,0,0,0c0,0,0.1,0,0.1,0s0,0,0.1,0.1C16,5.4,16,5.5,16,5.5S15.9,5.6,16,5.6c0,0,0,0,0,0.1
						c0,0,0.1,0,0.1,0s0,0.1,0,0.1c0,0-0.1,0.1-0.2,0.1c-0.1,0-0.3,0-0.3,0c-0.2-0.1-0.4-0.2-0.6-0.1c-0.2,0-0.2,0.2-0.2,0.2
						s0,0-0.2,0c-0.1,0-0.2,0-0.3,0.1c-0.1,0.1-0.1,0.2,0,0.3c0,0.1,0.1,0,0.1,0c0,0,0.1-0.1,0.2-0.1c0.1,0,0.2,0.2,0.3,0.2
						c0,0,0,0-0.2,0c-0.2,0-0.3,0-0.4,0c-0.1,0-0.2,0-0.3,0C14,6.5,14,6.3,14,6.3c0,0-0.1,0-0.1,0c0,0-0.1,0.2,0,0.4
						c0.1,0.2,0.3,0.2,0.4,0.2c0.2,0,0.4-0.1,0.4-0.1s0,0,0.1,0.1C15,7,15.1,7,15.2,7C15.3,7,15.4,7,15.4,7c0.1,0.1,0.1,0.2,0.1,0.3
						c0,0.1,0,0.1,0.1,0.1c0.1,0,0.1-0.1,0.1-0.1s0,0,0,0.1c0,0.1,0,0.2,0,0.3c0,0.1-0.1,0.1,0,0.1c0.1,0,0.1,0,0.1,0
						c0,0.1,0,0.2-0.1,0.3c0,0,0,0,0,0c0,0-0.1,0-0.1,0l-0.6,0.7c0,0,0.2,0.2,0.2,0.8v0c0,0,0,0,0,0c0,0-0.1,0-0.1-0.1
						C15,9.4,15,9.3,15,9.3c0,0-0.2,0-0.3,0c-0.1,0-0.2,0-0.3-0.2c0-0.1,0-0.2,0.2-0.3c0.1-0.1,0.3-0.2,0.3-0.4
						c0-0.2-0.1-0.3-0.4-0.6c-0.2-0.3-0.4-0.5-0.4-0.6c0-0.1,0,0-0.1,0c0,0-0.1,0.1-0.1,0.1s-0.1,0-0.3-0.4
						c-0.2-0.4-0.3-0.6-0.3-0.8c0-0.1-0.1-0.1-0.1,0c-0.2-0.5-0.2-1-0.2-1.5c0,0-0.2,0.2-0.3,0.5c-0.1,0.3-0.1,0.6-0.1,0.9
						c0,0.3,0.1,0.4,0.1,0.5c0,0.1,0,0,0,0s-0.1-0.2-0.2-0.7c-0.1-0.5-0.1-0.8-0.1-0.8s-0.1,0-0.1,0.2c-0.1,0.1-0.1,0.4-0.1,0.9
						c0,0.5,0.2,1,0.3,1.1c0.1,0.2,0,0.1,0,0c0,0-0.2-0.3-0.3-0.5c-0.1-0.2-0.2-0.7-0.2-0.7c0-0.1,0,0-0.1,0c0,0.1-0.1,0.3-0.1,0.4
						c0,0.1,0,0.4,0.1,0.7c0.1,0.3,0.3,0.5,0.4,0.6c0.1,0.1,0,0.1,0,0c0,0,0,0-0.2-0.2c-0.2-0.2-0.4-0.7-0.5-0.7c0-0.1-0.1,0-0.1,0
						c0,0,0,0.3,0.1,0.6c0.1,0.4,0.5,0.7,0.7,0.8c0.2,0.1,0.1,0.1,0,0c-0.1-0.1-0.3-0.2-0.4-0.3c-0.1-0.1-0.3-0.4-0.4-0.4
						c-0.1,0-0.1-0.1-0.1,0.1c0,0.2,0.2,0.5,0.4,0.7c0.2,0.2,0.4,0.3,0.5,0.3c0.1,0,0,0-0.1,0c-0.1,0-0.2-0.1-0.4-0.1
						c-0.1-0.1-0.4-0.3-0.4-0.3c-0.1-0.1-0.1,0,0,0.1c0,0.1,0.1,0.3,0.4,0.5c0.3,0.2,0.7,0.3,0.8,0.4c0.1,0,0,0,0,0s0,0-0.3-0.1
						c-0.2,0-0.6-0.2-0.7-0.3c-0.1-0.1-0.1-0.1-0.1,0c0,0.1,0.1,0.4,0.4,0.5c0.2,0.1,0.6,0.2,0.7,0.2c0.1,0,0.1,0,0,0
						c0,0-0.2,0-0.3,0c-0.1,0-0.4-0.1-0.4-0.1c0,0,0-0.1,0-0.1c0,0,0,0,0,0c0,0,0,0-0.1,0c-0.1,0-0.1,0-0.1,0c0,0,0-0.1,0-0.1
						c0,0,0,0,0,0c0,0-0.1,0.1-0.2,0.1c0,0,0,0.1,0,0.1c0,0,0.1,0.1,0.1,0.1s-0.1,0-0.1,0c0,0,0,0,0,0.1c0,0,0.1,0.2,0.1,0.2
						c0,0,0,0,0,0l0.1-0.1l0,0.2c0,0,0,0-0.1,0.1c-0.1,0,0,0.1,0,0.1c0.1,0,0.1,0.1,0.2,0.2c0.1,0.2,0.1,0.4,0.2,0.9
						c0.1,0.5,0.3,0.7,0.4,0.7c0,0,0,0,0,0s0,0.1,0,0.1c0,0.1,0.1,0.1,0.1,0.2c0,0,0,0.1,0,0.1s0,0.1,0,0.3c0,0.2,0.2,0.4,0.2,0.4
						c0,0,0,0.1,0,0.1c0,0,0,0-0.1,0c0,0-0.1,0.1-0.1,0.2c0,0.1,0,0.1,0,0.2c0,0.1,0.1,0.2,0.1,0.2s0,0,0,0.1c0,0.1,0,0.1,0.1,0.2
						c0.1,0,0.2,0.1,0.2,0.1s0,0.1,0,0.1c0,0,0.1,0.1,0.1,0.1c0,0,0.1,0,0.2,0c0,0,0.1,0,0.1,0c0,0,0,0.2,0,0.2c0,0.1,0,0.1,0,0.1
						c0,0,0.1,0,0.1,0c0.1,0,0.1,0,0.1,0c0,0,0.1,0.1,0.1,0.1c0,0,0-0.1,0-0.1s0-0.1,0-0.2c0,0,0.1,0,0.2,0c0,0,0.1,0,0.1-0.1
						c0,0,0,0-0.1-0.1c-0.1,0-0.1-0.1-0.2-0.1c-0.1,0,0-0.1,0-0.1c0,0,0,0,0-0.1c0,0,0-0.1,0-0.1s0,0,0.1-0.1c0,0,0.1-0.1,0.1-0.1
						c0,0,0.1-0.1,0.1-0.2c0,0,0.1-0.1,0.1-0.1c0-0.1,0.2-0.1,0.2-0.2c0.1,0,0.2-0.1,0.2-0.1s0,0.1,0,0.2c0,0.1,0.1,0,0.3-0.2
						c0.2-0.1,0.4-0.2,0.4-0.2s0,0.1,0.1,0.1c0.1,0.1,0.1,0,0.3-0.3c0.2-0.3,0.5-0.5,0.5-0.6c0,0,0,0,0.1,0c0,0,0,0,0,0
						c0,0.1-0.1,0.1-0.1,0.2c0,0.1-0.1,0.1-0.2,0.3c-0.1,0.1-0.1,0.2-0.1,0.4c0,0.1,0.1,0.2,0.1,0.2s-0.1,0.1-0.2,0.2
						c0,0.1-0.1,0.3-0.1,0.3s0,0-0.1,0.1c0,0.1-0.1,0.1-0.2,0.2c-0.1,0.1-0.3,0.2-0.3,0.2c-0.1,0,0,0.1,0,0.1c0,0,0.1,0.1,0.2,0.1
						c0.1,0,0.1,0,0.2,0c0.1,0,0,0.1,0,0.1c0,0-0.1,0.1-0.1,0.2c0,0.1,0.1,0.1,0.2,0.1c0.1,0,0.2-0.1,0.2-0.1l0,0c0,0,0,0.1,0,0.1
						c0,0.1,0,0.1,0,0.2c0,0,0.1,0,0.1,0c0,0,0.1,0,0.2-0.1c0.1,0,0.1-0.1,0.1-0.1s0,0,0,0.1c0,0.1,0,0.2,0,0.2
						c0,0.1,0.1,0.1,0.1,0.2c0.1,0.1,0.1,0,0.1,0c0-0.1,0.1-0.2,0.1-0.2s0,0,0.1,0.2c0.1,0.2,0.3,0.4,0.3,0.4s0.2-0.2,0.3-0.4
						c0.1-0.2,0.1-0.2,0.1-0.2s0.1,0.1,0.1,0.2c0,0.1,0.1,0.1,0.1,0c0.1-0.1,0.1-0.1,0.1-0.2c0-0.1,0-0.1,0-0.2c0-0.1,0-0.1,0-0.1
						s0,0,0.1,0.1c0.1,0,0.2,0.1,0.2,0.1c0,0,0.1,0.1,0.1,0c0,0,0-0.1,0-0.2c0-0.1,0-0.1,0-0.1l0,0c0,0,0.1,0,0.2,0.1
						c0.1,0,0.2,0,0.2-0.1c0-0.1,0-0.2-0.1-0.2c0,0-0.1-0.1,0-0.1c0.1,0,0.1,0,0.2,0c0.1,0,0.2-0.1,0.2-0.1c0,0,0-0.1,0-0.1
						c-0.1,0-0.2-0.1-0.3-0.2c-0.1-0.1-0.2-0.1-0.2-0.2c0-0.1-0.1-0.1-0.1-0.1s0-0.2-0.1-0.3c0-0.1-0.2-0.2-0.2-0.2s0.1,0,0.1-0.2
						c0-0.1,0-0.2-0.1-0.4c-0.1-0.1-0.2-0.2-0.2-0.3c0-0.1-0.1-0.1-0.1-0.2c0,0,0,0,0,0c0,0,0,0,0.1,0c0.1,0.1,0.4,0.3,0.6,0.6
						c0.2,0.3,0.3,0.4,0.3,0.3c0.1-0.1,0.1-0.1,0.1-0.1s0.2,0.1,0.4,0.2c0.2,0.1,0.3,0.2,0.3,0.2c0,0,0-0.1,0-0.1c0,0,0.1,0,0.2,0.1
						c0.1,0,0.2,0.1,0.2,0.1c0.2,0.1,0.2,0.1,0.3,0.2c0.1,0.1,0.3,0.1,0.5,0c0.2-0.1,0.7-0.2,0.9-0.3c0.2-0.1,0.3-0.2,0.4-0.2
						c0,0,0-0.2,0-0.2c0,0,0-0.1-0.1-0.1c0,0,0,0,0-0.1c0,0,0-0.1,0-0.1c0,0,0,0,0-0.1c0-0.2-0.1-0.5-0.3-0.5c0,0,0,0,0,0
						c0,0,0,0,0,0s0-0.1,0-0.1c0,0,0,0,0,0c0,0,0,0,0.1,0c0,0,0.1,0,0.1-0.1c0,0,0-0.1,0-0.2c0,0,0,0,0,0c0,0-0.1,0-0.1,0
						c0,0,0,0,0,0c0,0,0,0,0-0.1c0,0,0,0,0-0.1c0,0-0.2,0-0.2-0.1c0,0,0,0,0,0c0,0,0,0.1,0,0.1c0,0,0,0,0,0c0,0,0,0-0.1,0
						c0,0,0,0-0.1,0c0,0,0,0.1,0,0.2c0,0,0,0.1,0,0.1c0,0,0.1,0,0.1,0c0,0,0,0,0,0s0,0.1-0.1,0.1c0,0,0,0-0.1,0c0,0-0.1,0-0.1,0
						s-0.2,0-0.4,0.1c-0.2,0.1-0.2,0.2-0.2,0.3c0,0.1-0.1,0-0.1,0.1c0,0-0.1,0.1-0.1,0.1c0,0,0,0.1-0.1,0.1c-0.1,0-0.1,0.2,0,0.3
						c0.1,0.1,0.1,0.2,0.2,0.3c0,0,0,0.1,0,0.1c0,0-0.1,0-0.1-0.1c0,0-0.3-0.2-0.3-0.3c-0.1-0.1,0-0.1,0-0.1s0,0,0.1,0
						c0.1,0,0.1-0.1,0-0.1c-0.1,0-0.2-0.1-0.2-0.1c0,0,0-0.1,0-0.1c0.1,0,0.2-0.1,0.1-0.1c-0.1,0-0.2,0-0.3-0.1
						c-0.1,0-0.1-0.1-0.1-0.1l0.1-0.1c0,0,0-0.1,0-0.1c-0.1,0-0.2,0-0.3-0.1c-0.2-0.1-0.4-0.3-0.5-0.5l0,0c0,0.1,0.2,0.3,0.3,0.3
						c0.2,0,0.2-0.1,0.2-0.1c-0.1-0.1-0.1-0.1-0.1-0.2c0,0,0-0.1,0,0c0.1,0.1,0.2,0.2,0.5,0.2c0.3,0,0.3-0.1,0.3-0.1
						c0-0.1-0.1-0.1-0.1-0.1c0,0,0-0.1,0,0c0.1,0,0.2,0.1,0.5,0c0.1,0,0.3-0.1,0.3-0.2c0,0-0.2,0-0.3-0.1c-0.1,0-0.2-0.1-0.1-0.1
						c0.1,0,0.3,0.1,0.5,0c0.1,0,0.3-0.1,0.3-0.3c0,0-0.2,0-0.3-0.1c-0.1,0-0.1,0-0.1,0s0.3,0.1,0.6,0c0.3-0.1,0.3-0.3,0.3-0.4
						c0,0,0-0.1,0-0.1s-0.2,0.1-0.4,0.1c-0.2,0-0.2,0-0.2,0s0.5,0,0.8-0.2C22,10,22,9.7,22,9.7s-0.3,0.1-0.5,0.1c-0.2,0-0.3,0-0.3,0
						c0,0-0.1,0,0,0c0.1,0,0.5-0.1,0.7-0.2c0.2-0.1,0.3-0.4,0.4-0.5c0-0.1,0-0.1-0.1,0c-0.1,0.1-0.4,0.2-0.7,0.3
						C21.3,9.4,21.2,9.4,21.3,9.3C21.2,9.4,21.1,9.4,21.3,9.3 M12.1,9.9C12,9.9,12,10,12,10s0-0.1-0.1-0.1c0,0,0,0,0,0
						C11.9,9.8,12,9.8,12.1,9.9c0-0.1,0-0.1,0-0.1C12,9.9,12,9.9,12.1,9.9C12.1,9.9,12.1,9.9,12.1,9.9 M15.2,11.8
						c-0.1,0.1-0.2,0.2-0.4,0.3c-0.1,0.1-0.3,0.1-0.3,0.1c-0.1,0,0,0.1,0,0.1l0.1,0.1c0,0,0,0-0.1,0.1c-0.1,0-0.2,0-0.3,0.1
						c-0.1,0,0,0.1,0.1,0.1c0.1,0,0,0.1,0,0.1c0,0-0.1,0.1-0.2,0.1c-0.1,0,0,0,0,0.1c0.1,0,0.2,0,0.2,0s0,0-0.1,0.1
						C14.1,13,14,13,13.9,13.1c-0.1,0-0.3,0-0.5,0c-0.2,0-0.2,0-0.2,0s0-0.1,0-0.2c0-0.1-0.1-0.2-0.1-0.3c0-0.1-0.2-0.2-0.2-0.2
						s0,0,0-0.1c0,0,0-0.1,0-0.1c0-0.1-0.1-0.2-0.1-0.2s0-0.1,0-0.1c0-0.1,0-0.3-0.1-0.4c0-0.1-0.2-0.4-0.3-0.6
						c-0.1-0.1-0.1-0.4-0.2-0.5c0-0.2,0-0.2,0-0.3c0,0,0,0,0-0.1c0,0,0.1,0.1,0.1,0.1c0.3,0.2,0.8,0.2,0.8,0.2s-0.1,0-0.2,0
						c-0.2,0-0.4-0.1-0.4-0.1s0,0,0,0.1c0,0,0,0.2,0.3,0.4c0.3,0.1,0.6,0,0.6,0s0,0-0.1,0c-0.1,0-0.3,0.1-0.3,0.1
						c0,0.2,0.1,0.3,0.3,0.3c0.2,0.1,0.4,0,0.5,0c0.1,0,0,0-0.1,0.1c-0.1,0-0.3,0.1-0.3,0.1c0,0.1,0.3,0.2,0.3,0.2
						c0.2,0,0.4,0,0.5,0c0.1,0,0.1,0,0,0c0,0-0.1,0.1-0.1,0.1c0,0,0,0.1,0.3,0.1c0.3,0,0.4-0.2,0.5-0.2c0.1-0.1,0.1,0,0,0
						c0,0-0.1,0.1-0.1,0.2c0,0.1,0,0.1,0.2,0.1c0.2,0,0.3-0.2,0.3-0.3l0,0c0,0,0,0,0,0C15.3,11.6,15.2,11.7,15.2,11.8 M17.9,4.5
						C17.9,4.4,17.9,4.4,17.9,4.5c0-0.1,0.1,0,0.2,0.1c0.1,0.1,0.1,0.1,0.1,0.2c0,0,0,0.1,0,0.2c0,0.1,0,0.1,0,0.1c0,0,0,0,0,0
						s-0.1,0-0.1,0c-0.1,0-0.1,0-0.2,0c0,0,0-0.1,0-0.1c0,0,0.1,0,0.1-0.2C18,4.7,17.9,4.6,17.9,4.5 M17.2,4.9c0-0.1,0-0.1,0-0.3
						c0-0.1,0-0.2-0.1-0.4c0,0,0.1,0,0.2,0.1c0.1,0.1,0.2,0.2,0.2,0.3c0,0.1,0,0.1,0,0.2c0,0.1,0,0.1,0,0.1s0,0-0.1,0.1
						c0,0-0.1,0-0.1,0c-0.1,0-0.1,0-0.1-0.1c0,0-0.1,0-0.1,0S17.2,5,17.2,4.9 M16.6,4.4c0.1-0.1,0.2-0.1,0.2-0.1c0,0.1,0,0.2,0,0.4
						c0,0.2,0,0.2,0,0.3C16.8,5,16.9,5,16.9,5s0,0-0.1,0c0,0-0.1,0.1-0.1,0.1c-0.1,0-0.1,0-0.1,0c0,0-0.1-0.1-0.1-0.1s0-0.1,0-0.1
						c0-0.1,0-0.1,0-0.2C16.4,4.6,16.4,4.5,16.6,4.4 M16.1,5.1c0,0-0.1,0-0.2,0c-0.1,0-0.1,0-0.1,0s0,0,0,0c0,0,0-0.1,0-0.1
						c0-0.1,0-0.1,0-0.2c0,0,0-0.1,0.1-0.2c0.1-0.1,0.2-0.1,0.2-0.1s0,0,0,0.1C16,4.6,16,4.7,16,4.9C16,5,16.1,5,16.1,5.1
						C16.1,5.1,16.1,5.1,16.1,5.1 M17.9,6.4c-0.1,0.1-0.2,0.1-0.2,0.1c0,0.1,0.1,0.1,0.1,0.1s-0.1,0.1-0.2,0.2
						c-0.1,0.1-0.2,0.1-0.2,0.1s0,0,0,0.1c0,0.1,0.1,0.1,0.1,0.1c0,0,0,0,0,0s-0.2,0.2-0.2,0.2c-0.1,0.1-0.1,0.1-0.2,0.1
						c-0.1,0,0,0.1,0,0.2c0,0,0.1,0.1,0.1,0.1c0,0,0,0,0,0.1c0,0-0.1,0.2-0.2,0.2l0,0c0-0.1-0.1-0.2-0.2-0.2c0-0.1,0-0.1,0-0.1
						c0,0,0.1-0.1,0.1-0.1c0,0,0-0.1,0-0.2c-0.1,0-0.1,0-0.2-0.1c-0.1-0.1-0.2-0.2-0.2-0.2s0,0,0,0c0,0,0.1-0.1,0.1-0.1
						c0-0.1,0-0.1,0-0.1s-0.1,0-0.2-0.1c-0.1-0.1-0.2-0.2-0.2-0.2s0.1,0,0.1-0.1c0-0.1-0.1,0-0.2-0.1c-0.1-0.1-0.2-0.2-0.2-0.2
						s0.2-0.1,0.2-0.2c0-0.1,0-0.1,0-0.1l0,0C16.4,6,16.7,6,17,6c0.3,0,0.5,0,0.8-0.1l0,0c0,0,0,0.1,0,0.1C17.9,6.2,18,6.3,18,6.3
						S18,6.4,17.9,6.4"/>
					<path class="st4" d="M15.2,6.6c-0.1,0-0.2-0.1-0.3-0.1c-0.2,0-0.3,0-0.4,0c-0.1,0-0.2,0-0.2,0c-0.1,0-0.2-0.1-0.2-0.2
						c0,0-0.1,0.1,0,0.3c0,0.1,0.1,0.1,0.2,0.1c0.2,0,0.4-0.1,0.6-0.1c0.2,0,0.3,0.1,0.3,0.1S15.1,6.8,15.2,6.6
						C15.2,6.7,15.2,6.7,15.2,6.6"/>
					<path class="st4" d="M20,6.3c0,0.1-0.1,0.2-0.2,0.2c-0.1,0-0.1,0-0.2,0c-0.1,0-0.2-0.1-0.4,0c-0.1,0-0.3,0.1-0.3,0.1
						c-0.1,0,0,0.1,0,0.1c0.1,0,0.1,0,0.1,0s0.1-0.1,0.3-0.1c0.2,0,0.4,0.1,0.6,0.1c0.1,0,0.1-0.1,0.2-0.1C20.1,6.5,20,6.3,20,6.3"
						/>
					<path class="st5" d="M18.7,9.4c0-0.4,0.2-0.7,0.2-0.7l-0.5-0.6c-0.5,0.2-0.9,0.2-1.4,0c-0.4,0.2-0.9,0.2-1.4,0l-0.5,0.6
						c0,0,0.2,0.3,0.2,0.7c0,0.4-0.1,0.7-0.1,0.9c0,0.2-0.1,0.6,0,0.8c0.1,0.3,0.2,0.5,0.7,0.7c0.5,0.2,0.7,0.3,0.9,0.4
						c0.2,0.1,0.2,0.2,0.2,0.2s0.1-0.1,0.2-0.2c0.2-0.1,0.4-0.2,0.9-0.4c0.5-0.2,0.6-0.4,0.7-0.7c0.1-0.3,0.1-0.6,0-0.8
						C18.8,10.1,18.7,9.8,18.7,9.4"/>
					<path class="st5" d="M14.7,12.7c0,0-0.2,0.1-0.2,0.1c-0.1,0-0.1,0-0.1,0s-0.1,0.1-0.2,0.2c-0.1,0.1-0.2,0.1-0.3,0.1
						c-0.1,0-0.5,0-0.7,0c-0.2,0-0.3,0-0.3,0.1c-0.1,0.1-0.1,0.2,0,0.3c0.1,0.1,0.2,0,0.2,0c0-0.1,0-0.1,0-0.2c0,0,0,0,0.1,0
						c0,0,0.1,0,0.2,0c0.1,0,0.2,0.1,0.2,0.1c0.1,0,0,0,0,0c0,0-0.1,0-0.1,0c-0.1,0-0.1,0-0.2,0c0,0,0,0,0,0c0,0,0,0.1,0,0.1
						c0,0,0,0.1,0,0.1l0,0c0,0,0,0,0-0.1c0,0,0-0.1,0-0.1c0,0,0,0,0.1,0c0,0,0.1,0.1,0.1,0.1c0,0.1,0,0.1,0,0.1s0,0,0,0
						c0,0,0,0.1,0,0.1s0,0,0,0c0,0,0-0.1,0-0.1c0,0,0-0.1,0.1,0c0,0,0.1,0.1,0.1,0.1c0,0,0,0,0,0s0.1-0.1,0.1-0.1
						c0,0,0.1-0.1,0.1-0.2c0.1-0.1,0.2-0.2,0.3-0.2c0.1,0,0.2-0.1,0.3-0.1c0,0,0.1,0,0.1-0.1C14.6,12.9,14.6,12.9,14.7,12.7
						C14.7,12.7,14.7,12.7,14.7,12.7"/>
					<path class="st5" d="M14.6,12.7C14.6,12.7,14.5,12.7,14.6,12.7c-0.1,0-0.1,0-0.2,0c0,0,0,0-0.1,0c0,0-0.2,0.1-0.2,0.1h0.2
						C14.5,12.7,14.6,12.7,14.6,12.7"/>
					<path class="st5" d="M15.3,12.6L15.3,12.6L15.3,12.6c0-0.1-0.1-0.1-0.1,0c0,0-0.1,0.1-0.1,0.1c0,0.1-0.1,0.1,0,0
						c0-0.1,0.1-0.1,0.1-0.2c0-0.1,0.1-0.1,0.1-0.1c0,0,0,0-0.1,0c-0.1,0-0.2-0.1-0.2-0.1c0,0-0.1-0.1-0.1-0.1s-0.2,0.1-0.2,0.1
						c-0.1,0-0.1,0,0,0.1c0.1,0,0.1,0,0.2,0.1c0,0,0.1,0.1,0.2,0.1c0.1,0,0.2,0,0.1,0c0,0-0.1,0.1-0.1,0.2c0,0.1,0,0.2,0,0.3
						c0,0.1,0,0.1,0,0.1s0.1-0.1,0.3-0.2c0.2-0.1,0.3-0.2,0.3-0.2c0,0,0.1,0,0-0.1C15.3,12.8,15.3,12.6,15.3,12.6"/>
					<path class="st5" d="M16,12C16,12,16,12,16,12C16,12,16,12,16,12c-0.1,0-0.2,0.1-0.2,0.2c0,0.1-0.1,0.1,0,0
						c0.1-0.1,0.1-0.1,0.1-0.2c0,0,0,0,0,0c-0.1,0-0.2-0.1-0.3-0.2c0,0,0,0.1-0.1,0.1c0,0-0.1,0.1-0.1,0.1s0.1-0.1,0.1-0.1
						c0,0,0-0.1,0-0.1c-0.1-0.1-0.1-0.1-0.2-0.2c0,0,0,0.2-0.2,0.3c-0.2,0.2-0.5,0.3-0.5,0.3s-0.1,0,0,0c0.1,0,0.1,0.1,0.3,0
						c0.2,0,0.2,0,0.2,0c0,0,0.1,0,0,0c-0.1,0-0.3,0.1-0.4,0.1c-0.1,0-0.2,0-0.1,0c0.1,0.1,0.2,0.1,0.2,0.1c0.1,0,0.1,0,0.2,0
						c0.1,0,0.1,0,0.1,0c0,0,0.1,0,0.1,0c0,0-0.1,0.1-0.1,0.2c0,0.1,0,0.2,0,0.2c0,0,0,0.1,0.1,0.1c0,0,0,0.1,0,0
						c0-0.1,0.1-0.2,0.1-0.2c0-0.1,0-0.1,0-0.1c0,0,0-0.1,0,0c0,0.1,0,0.2-0.1,0.2c0,0.1,0,0.2,0,0.1c0.1-0.1,0.3-0.3,0.3-0.4
						c0,0,0.1-0.1,0.1-0.1c0,0,0.1-0.1,0.1-0.1c0,0,0.1-0.1,0.2-0.2C16.1,12.1,16.1,12.1,16,12"/>
					<path class="st5" d="M12,9.7C12,9.7,12,9.7,12,9.7C12,9.6,11.9,9.6,12,9.7c-0.1-0.1-0.1-0.1-0.2-0.1c0,0,0,0-0.1,0
						c0,0,0-0.1,0-0.1c0,0,0,0,0,0c0,0-0.1,0-0.1,0c0,0,0,0,0,0.1c0,0,0,0.1,0.1,0.1c0,0,0,0,0,0c0,0,0,0-0.1,0c0,0,0,0,0,0
						c0,0,0,0.1,0,0.1c0,0,0,0,0,0s0,0,0.1-0.1c0,0,0,0,0,0c0,0,0.1,0.2,0.1,0.2c0,0,0,0,0,0c0,0,0,0,0.1,0c0,0,0,0,0,0
						s-0.1-0.1-0.1-0.2c0,0,0,0,0,0C11.9,9.8,11.9,9.8,12,9.7C12,9.8,12,9.7,12,9.7"/>
					<path class="st5" d="M12.9,13.7C12.9,13.6,12.9,13.6,12.9,13.7c-0.1-0.1-0.1-0.2-0.1-0.2c0,0,0-0.1,0-0.1c0,0,0,0-0.1,0
						c0,0-0.1,0.1-0.1,0.1c0,0.1,0,0.2,0.1,0.2C12.9,13.7,12.9,13.7,12.9,13.7"/>
					<path class="st5" d="M13,13.6C13,13.6,13,13.6,13,13.6C13,13.6,13,13.7,13,13.6c0,0.1,0,0.1,0.1,0.2c0,0,0,0,0,0
						C13.1,13.7,13.1,13.7,13,13.6C13.1,13.7,13.1,13.7,13,13.6C13.1,13.6,13,13.6,13,13.6"/>
					<path class="st5" d="M13.2,14C13.2,14,13.2,13.9,13.2,14c0.1-0.1,0.2-0.1,0.3-0.1c0,0,0.1-0.1,0.1-0.1c0-0.1-0.1-0.1-0.1-0.1
						c0,0-0.1,0-0.1,0c0,0,0,0-0.1,0.1c0,0,0,0-0.1,0c0,0,0,0,0,0c0,0-0.1,0-0.1,0c0,0,0,0-0.1,0c0,0-0.1,0-0.1,0s0,0,0,0
						c0,0,0,0,0,0c0,0,0,0.1,0,0.1c0,0,0.1,0,0.2,0.1C13,14,13,14,13.2,14C13.1,14,13.1,14,13.2,14"/>
					<path class="st5" d="M13.6,14c0,0,0-0.1,0-0.1c0,0-0.1,0-0.1,0c0,0,0,0-0.1,0c0,0,0,0-0.1,0c0,0-0.1,0-0.1,0.1
						c-0.1,0-0.1,0.1-0.1,0.1c0,0-0.1,0-0.1,0s0,0,0,0c0,0,0,0,0,0.1c0,0,0.1,0,0.1,0c0.1,0,0.1,0,0.1,0c0,0,0,0,0.1-0.1
						c0,0,0.1,0,0.2,0C13.5,14.1,13.6,14.1,13.6,14"/>
					<path class="st5" d="M13.6,13.9C13.7,13.9,13.7,13.9,13.6,13.9c0.1,0,0.1-0.1,0.1-0.1c0,0,0-0.1,0-0.1S13.7,13.8,13.6,13.9
						C13.6,13.8,13.6,13.8,13.6,13.9"/>
					<path class="st5" d="M13.5,13.6c0-0.1,0-0.1,0-0.1S13.4,13.5,13.5,13.6c-0.1,0-0.1,0-0.1,0S13.4,13.6,13.5,13.6
						C13.5,13.6,13.5,13.6,13.5,13.6"/>
					<path class="st5" d="M13.2,13.7c0.1,0,0.1,0,0.1-0.1c0,0,0-0.1,0-0.1c0,0-0.1-0.1-0.1-0.1h0c0,0,0,0.1,0,0.1
						C13.1,13.6,13.1,13.6,13.2,13.7C13.1,13.7,13.1,13.7,13.2,13.7"/>
					<path class="st5" d="M13.3,13.4C13.3,13.4,13.3,13.4,13.3,13.4c0-0.1-0.1-0.1-0.1-0.1S13.2,13.4,13.3,13.4
						C13.2,13.4,13.2,13.4,13.3,13.4C13.2,13.4,13.2,13.4,13.3,13.4C13.3,13.4,13.3,13.4,13.3,13.4"/>
					<path class="st5" d="M12.6,12c0,0,0.1,0,0-0.2c0-0.2-0.2-0.5-0.3-0.6c-0.1-0.2-0.2-0.4-0.2-0.5c0-0.1-0.1-0.3-0.1-0.4
						c0-0.1,0-0.1,0-0.1s0,0,0,0c0,0,0,0-0.1,0c0,0-0.1,0.1-0.1,0.1c0,0,0,0,0,0s-0.1,0-0.1,0c-0.1,0-0.1,0-0.1,0c0,0,0,0,0.1,0.1
						c0.1,0,0.1,0,0.1,0.1c0,0,0.1,0.2,0.1,0.3c0,0.1,0.1,0.3,0.1,0.5c0,0.2,0.1,0.4,0.2,0.6C12.3,11.7,12.5,12,12.6,12"/>
					<path class="st5" d="M12.7,12.4c-0.1,0-0.1,0.3,0,0.4c0,0.1,0.1,0.3,0.2,0.3c0,0,0,0,0.1,0c0,0,0,0,0,0s0,0,0.1,0
						c0,0,0-0.1,0-0.2c0-0.1-0.1-0.2-0.1-0.3C12.8,12.4,12.8,12.4,12.7,12.4"/>
					<path class="st5" d="M12.8,12.2c0-0.1-0.1-0.1-0.1-0.1c0,0-0.1,0-0.1,0c-0.1,0.1,0,0.2,0.1,0.2C12.7,12.3,12.7,12.3,12.8,12.2
						C12.8,12.3,12.8,12.2,12.8,12.2"/>
					<path class="st5" d="M13.9,14.4C13.9,14.3,13.8,14.3,13.9,14.4c-0.1-0.1-0.2-0.1-0.2-0.2c0,0,0,0-0.1,0c0,0-0.1,0-0.1,0
						c0,0,0,0.1,0,0.1c0,0,0,0.2,0,0.2s0,0,0,0c0,0,0,0,0,0c0,0,0,0,0.1,0c0,0,0.1-0.1,0.1-0.1s0,0,0.1,0
						C13.8,14.4,13.9,14.4,13.9,14.4C13.9,14.4,13.9,14.4,13.9,14.4"/>
					<path class="st5" d="M13.7,14.5C13.7,14.5,13.7,14.5,13.7,14.5C13.6,14.5,13.6,14.5,13.7,14.5c-0.1,0.1-0.1,0.1-0.1,0.1
						c0,0,0,0,0,0s0,0,0,0c0,0,0,0,0,0C13.7,14.6,13.7,14.5,13.7,14.5C13.7,14.5,13.7,14.5,13.7,14.5"/>
					<path class="st5" d="M13.2,6.8c0,0.1,0.1,0.4,0.2,0.5c0.1,0.1,0.1,0.2,0.1,0.2c0,0,0-0.1-0.1-0.1c0-0.1-0.1-0.2-0.2-0.3
						C13.1,6.9,13,6.7,13,6.7c0,0,0,0-0.1,0c0,0-0.1,0.3,0,0.5c0.1,0.2,0.2,0.3,0.3,0.4c0.1,0.1,0.1,0.2,0.1,0.2c0,0,0,0-0.1-0.1
						C13.1,7.5,13,7.4,13,7.3c-0.1-0.1-0.1-0.2-0.2-0.3c0,0,0,0,0,0c0,0-0.1,0.1,0,0.2c0,0.2,0.1,0.3,0.2,0.4
						c0.1,0.1,0.2,0.2,0.2,0.2c0,0-0.1-0.1-0.2-0.1c-0.1-0.1-0.2-0.2-0.3-0.3c0,0-0.1,0-0.1,0.2c0,0.2,0.2,0.3,0.3,0.4
						C12.9,8.2,13,8.3,13,8.3c0,0-0.1,0-0.1-0.1c-0.1,0-0.2-0.2-0.3-0.2c0,0-0.1,0,0,0.2c0.1,0.2,0.2,0.3,0.3,0.4
						c0.1,0.1,0.2,0.1,0.2,0.2c0,0-0.1,0-0.1,0c-0.1,0-0.2-0.1-0.2-0.1c-0.1,0-0.1,0-0.1,0s0,0.1,0.1,0.3C12.8,9,12.9,9,13,9.1
						c0.1,0,0.1,0,0.1,0c0,0,0,0,0,0c0,0-0.1,0-0.2,0c-0.1,0-0.1,0-0.1,0.1c0,0,0,0.1,0.1,0.2c0.1,0.1,0.3,0.1,0.4,0.1
						c0.1,0,0.1,0,0.1,0c0,0,0,0-0.1,0c-0.1,0-0.2,0.1-0.2,0.1c0,0,0,0.1,0.1,0.2c0.1,0.1,0.2,0.1,0.4,0.1c0.2,0,0.2,0,0.2,0
						c0,0,0,0-0.1,0c-0.1,0-0.1,0-0.2,0.1c0,0,0,0.1,0.1,0.2c0.1,0.1,0.3,0.1,0.4,0.1c0.1,0,0.2,0,0.2,0c0,0-0.1,0.1-0.1,0.1
						c-0.1,0-0.1,0-0.1,0.1c0,0,0,0.1,0.1,0.1c0.1,0,0.2,0,0.3,0c0.1,0,0.1,0,0.1,0c0,0,0,0,0,0c0,0-0.1,0.1-0.2,0.1
						c-0.1,0-0.1,0-0.1,0.1c0,0.1,0,0.1,0.2,0.1c0.2,0,0.4-0.1,0.4-0.1c0.1,0,0.1,0,0.1,0c0,0,0,0,0,0c0,0-0.1,0.1-0.2,0.1
						c-0.1,0-0.1,0.1-0.1,0.1c0,0,0,0.1,0.1,0.1c0.1,0,0.3,0,0.4-0.1c0,0,0.1-0.1,0.1-0.1c0-0.1,0-0.2,0-0.3c0,0-0.1,0-0.1,0
						c-0.1,0-0.1-0.1-0.1-0.2c0,0,0,0-0.1,0c0,0-0.1,0-0.1,0c0,0-0.1,0-0.2-0.1c-0.1-0.1-0.1-0.2-0.1-0.2c0,0-0.1,0-0.1,0
						S14.1,10,14,10c-0.1-0.1-0.1-0.1-0.1-0.2c0,0,0-0.1-0.1-0.1c0,0-0.1,0-0.1-0.1c-0.1-0.1-0.1-0.1-0.1-0.2c0,0,0,0-0.2-0.1
						c-0.1-0.1-0.1-0.2-0.1-0.2c0-0.1,0.1-0.1,0.1-0.1c0,0,0,0-0.1,0c0,0-0.1-0.1-0.1-0.2c0-0.2,0.1-0.2,0.1-0.2s0,0-0.1,0
						c0,0-0.2-0.1-0.2-0.2c0-0.1,0-0.1,0.1-0.2c0,0,0.1,0,0.1,0s-0.1,0-0.1-0.1c0-0.1,0-0.2,0-0.2c0.1-0.1,0.1-0.1,0.2-0.1
						c0,0,0.1,0,0.1,0c0,0,0,0,0-0.1c0,0,0-0.1,0-0.2c0,0,0-0.1,0.1-0.1c0.1,0,0.2,0,0.3,0.1c0,0,0,0,0-0.1c0,0-0.1-0.1-0.2-0.3
						c-0.1-0.1-0.1-0.2-0.2-0.4c-0.1-0.2-0.2-0.5-0.2-0.5c0-0.1,0,0,0,0s0,0-0.1,0.2C13.2,6.5,13.2,6.6,13.2,6.8"/>
					<path class="st5" d="M15.2,9.6c-0.1,0-0.2,0-0.2-0.1c-0.1-0.1-0.2-0.1-0.4-0.1c-0.2,0-0.3-0.1-0.3-0.2c0-0.1,0-0.3,0.2-0.4
						c0.2-0.1,0.3-0.2,0.3-0.4c0-0.2-0.2-0.4-0.4-0.6c-0.2-0.2-0.3-0.5-0.3-0.5S14,7.3,14,7.4c0,0.1,0,0.2,0,0.2c0,0,0,0-0.2-0.1
						c-0.1,0-0.2-0.1-0.3,0c-0.1,0.1,0,0.2,0.1,0.3c0.1,0.1,0.1,0.1,0.1,0.1c0,0-0.1,0-0.1-0.1c0,0-0.1-0.1-0.2-0.1
						c-0.1,0-0.1,0-0.2,0.1c0,0.1,0.1,0.2,0.2,0.2c0.1,0,0.1,0.1,0.1,0.1c0,0,0,0-0.1,0c0,0-0.1,0-0.2,0c-0.1,0-0.1,0.1-0.1,0.2
						c0.1,0.1,0.3,0.1,0.3,0.1c0,0,0.1,0,0.1,0c0,0-0.1,0-0.2,0c-0.1,0-0.1,0.1-0.1,0.2c0,0.1,0.2,0.1,0.3,0.2c0.1,0,0.1,0,0.1,0
						c0,0,0,0-0.1,0.1c-0.1,0-0.1,0-0.2,0.1c0,0.1,0,0.1,0.1,0.2c0.1,0.1,0.2,0.1,0.2,0c0,0,0.1,0,0.1,0c0,0,0,0.1-0.1,0.1
						c-0.1,0-0.1,0.1,0,0.2c0.1,0.1,0.2,0,0.2,0c0,0,0.1-0.1,0.1,0c0,0-0.1,0.1-0.1,0.1c0,0.1,0,0.2,0.1,0.2c0.1,0.1,0.3,0,0.3,0
						c0,0,0.1,0,0.1,0c0,0,0,0.1,0,0.1c0,0-0.1,0.2,0.1,0.2c0.1,0.1,0.3-0.1,0.3-0.1c0,0,0.1,0,0.1,0c0,0,0,0,0,0.1
						c0,0-0.1,0.1,0,0.2c0.1,0,0.2,0,0.2,0c0-0.1,0-0.2,0.1-0.3h0c0,0,0,0,0,0c0,0,0,0,0,0c0,0,0,0,0,0c0,0,0,0,0,0c0,0,0,0,0,0
						c0,0,0,0,0-0.1c0,0,0,0,0,0c0,0,0,0,0,0c0-0.1,0-0.2,0-0.3C15.3,9.7,15.3,9.6,15.2,9.6L15.2,9.6z"/>
					<path class="st5" d="M12.2,7.4c0.2,0.3,0.4,0.5,0.4,0.5s0-0.1,0-0.1c0-0.1,0-0.1,0-0.1s-0.1-0.1-0.2-0.2
						C12.3,7.2,12.2,7,12.2,7s0.1,0.2,0.2,0.4c0.1,0.1,0.2,0.2,0.2,0.2s0-0.1,0.1-0.1c0,0,0,0,0.1,0c0,0,0,0,0,0s0-0.1-0.1-0.1
						c0,0,0-0.1-0.1-0.1c-0.1-0.1-0.2-0.3-0.3-0.4c-0.1-0.2-0.2-0.6-0.2-0.7c0-0.1-0.1-0.1-0.1,0c0,0.1-0.1,0.2,0,0.4
						C12,6.8,12.1,7,12.2,7.4"/>
					<path class="st5" d="M12.4,8.2c0.1,0,0.1,0.1,0.1,0.1s0,0,0-0.1c0,0,0-0.1,0-0.1S12.5,8.1,12.4,8c0,0-0.1-0.1-0.2-0.2
						c-0.1-0.1,0-0.1,0.1,0c0.1,0.1,0.3,0.3,0.3,0.3s0,0,0,0c0,0,0-0.1,0-0.1c0,0,0,0-0.1-0.1c-0.1-0.1-0.4-0.4-0.5-0.6
						c-0.1-0.2-0.2-0.4-0.2-0.4s-0.1,0.4,0.2,0.8C12.1,8,12.4,8.2,12.4,8.2"/>
					<path class="st5" d="M13.6,10.5c0.1,0,0.1-0.2,0.1-0.2c0,0-0.1,0-0.1,0c-0.1,0-0.2,0.1-0.3,0.1c-0.1,0-0.1,0-0.1,0
						c0,0,0.1,0,0.1,0c0.1,0,0.3-0.1,0.3-0.1s0,0,0,0c0,0-0.1,0-0.1,0c0,0-0.1,0-0.2,0c-0.1,0-0.3,0.1-0.5,0.1c-0.2,0-0.3,0-0.4,0
						c0,0-0.1,0,0,0.2c0.1,0.1,0.4,0.2,0.6,0.2C13.2,10.7,13.5,10.6,13.6,10.5"/>
					<path class="st5" d="M13,10.2c0.2,0,0.3-0.1,0.3-0.1s0,0,0-0.1c0,0,0-0.1,0-0.1s-0.1,0-0.1,0c-0.1,0-0.2,0-0.3,0
						c-0.1,0-0.1,0,0,0c0.1,0,0.3,0,0.3,0c0.1,0,0,0,0,0c0,0-0.1-0.1-0.1-0.1s-0.3,0-0.5,0c-0.2,0-0.4-0.1-0.4-0.1c0,0,0,0,0,0
						s0,0,0.1,0.2c0.1,0.1,0.2,0.2,0.4,0.3C12.6,10.2,12.8,10.2,13,10.2"/>
					<path class="st5" d="M13,9.7C13,9.7,13,9.7,13,9.7c0-0.1,0-0.1,0-0.1s-0.1,0-0.2,0c-0.2,0-0.2,0-0.3-0.1c-0.1,0-0.2,0-0.2-0.1
						c0,0,0,0,0.1,0c0.1,0,0.3,0,0.4,0.1c0.1,0,0.2,0,0.2,0c0,0,0.1,0,0.1,0s0,0-0.1,0c-0.1,0-0.1,0-0.1-0.1c0,0,0,0-0.2,0
						c-0.1,0-0.2-0.1-0.5-0.1C12,9.2,11.8,9.1,11.8,9c0,0,0,0,0,0c0,0,0,0.1,0.1,0.2c0.1,0.1,0.2,0.2,0.5,0.3
						C12.6,9.7,13,9.7,13,9.7"/>
					<path class="st5" d="M12.1,9c0.3,0.2,0.6,0.3,0.6,0.3c0,0,0-0.1,0-0.1c0,0,0,0,0.1,0c0.1,0,0,0,0,0c0,0,0,0-0.1,0
						c-0.1,0-0.2,0-0.4-0.1c-0.1-0.1-0.2-0.1-0.2-0.1c0,0,0.1,0,0.2,0.1C12.5,9,12.7,9,12.8,9c0.1,0,0,0,0,0c0,0-0.1-0.1-0.1-0.1
						s-0.1,0-0.2-0.1c-0.2,0-0.3-0.1-0.4-0.2c0,0-0.1-0.1-0.1-0.1c-0.1-0.1-0.2-0.1-0.2-0.2c-0.1,0,0,0,0,0c0,0,0,0.1,0.1,0.2
						C11.8,8.8,11.8,8.8,12.1,9"/>
					<path class="st5" d="M12.1,8.5c0.3,0.2,0.5,0.3,0.5,0.3c0,0,0,0,0,0c0,0,0-0.1,0-0.1s-0.1-0.1-0.2-0.1
						c-0.1-0.1-0.2-0.1-0.3-0.2c-0.1-0.1,0,0,0,0c0,0,0.1,0.1,0.2,0.1c0.1,0.1,0.3,0.2,0.3,0.2s0,0,0-0.1c0,0,0.1,0,0.1,0s0,0,0-0.1
						c0,0-0.1-0.1-0.2-0.1c-0.1,0-0.3-0.2-0.4-0.3c-0.1-0.1-0.4-0.4-0.4-0.4c0,0,0,0,0,0c0,0,0,0,0,0.2C11.7,8,11.8,8.3,12.1,8.5"/>
					<path class="st5" d="M13,6.6c0,0.1,0.1,0.1,0.1,0.1c0,0.1,0.1,0.1,0.1,0.1s0,0,0-0.1c0,0,0-0.1,0-0.1c0,0,0-0.1,0-0.1
						c0,0,0-0.1,0-0.1c0,0,0-0.2-0.1-0.3c0-0.1,0-0.3,0-0.4c0-0.1,0-0.1,0,0c0,0.1,0,0.2,0,0.3c0,0.2,0.1,0.4,0.1,0.4s0,0,0-0.1
						c0,0,0.1-0.1,0.1-0.2c0-0.1,0-0.1,0-0.1s-0.1-0.4-0.1-0.6c0-0.2-0.1-0.7-0.1-0.7c-0.1,0.1-0.2,0.5-0.2,0.8c0,0.2,0,0.5,0,0.6
						C12.9,6.3,12.9,6.5,13,6.6"/>
					<path class="st5" d="M12.7,7.2c0-0.1,0-0.2,0.1-0.2c0,0-0.1-0.1-0.1-0.2c0-0.1-0.1-0.2-0.1-0.3c0-0.2-0.1-0.5,0-0.1
						C12.7,6.8,12.7,7,12.7,7l0.1,0.2c0-0.1,0-0.1,0-0.2c0-0.1,0-0.2,0-0.3c0,0-0.1-0.2-0.2-0.5c-0.1-0.3-0.1-0.6-0.1-0.7
						c0-0.2,0-0.2,0-0.2s-0.1,0.1-0.2,0.6c0,0.5,0.1,0.9,0.1,1.1C12.6,7,12.7,7.2,12.7,7.2"/>
					<path class="st5" d="M14,10.9C14,10.9,14,10.8,14,10.9c-0.1-0.1-0.1-0.2-0.1-0.2s0,0-0.1,0c0,0-0.1,0.1-0.2,0.1
						c-0.1,0-0.1,0-0.1,0.1c0,0,0,0,0,0c0,0,0,0,0.1-0.1c0.1,0,0.2-0.2,0.2-0.2s0,0-0.1,0c-0.1,0-0.1,0-0.1,0s-0.1,0.1-0.3,0.2
						c-0.3,0.1-0.5,0.1-0.5,0.1s0,0.1,0.2,0.2c0.1,0,0.2,0.1,0.5,0C13.8,11,14,10.9,14,10.9"/>
					<path class="st5" d="M14.4,11.1c0-0.1,0-0.2,0-0.2s0,0-0.1,0c0,0-0.1,0.1-0.2,0.2c-0.1,0.1-0.1,0.1,0,0
						c0.1-0.1,0.3-0.2,0.3-0.2l0,0c0,0-0.1,0-0.4,0.2c-0.3,0.2-0.5,0.2-0.5,0.2s0.1,0.2,0.5,0.1C14.2,11.4,14.4,11.2,14.4,11.1"/>
					<path class="st5" d="M15.1,11C15.1,11,15,11.1,15.1,11c-0.1,0.1-0.3,0.1-0.3,0.1s0,0,0,0.1c0,0-0.1,0.1-0.2,0.2
						c-0.1,0-0.2,0.1-0.2,0.1c0,0,0.1,0,0.1-0.1c0.1,0,0.1-0.1,0.2-0.2c0,0,0,0,0,0s-0.1,0-0.1,0c-0.1,0-0.1,0-0.1,0
						c0,0,0,0.1-0.1,0.1c-0.1,0.1-0.1,0.1-0.2,0.2c0,0,0,0.1,0,0.1s0,0,0.2,0c0.1,0,0.2,0,0.3-0.1c0.1,0,0.1-0.1,0.2-0.2
						C15.1,11.2,15.1,11,15.1,11"/>
					<path class="st5" d="M15.1,11.4C15.1,11.5,15.1,11.5,15.1,11.4C15.1,11.5,15.1,11.4,15.1,11.4c0-0.1,0-0.1,0-0.1
						c0-0.1,0-0.1-0.1-0.2c0,0.1-0.1,0.2-0.1,0.3c-0.1,0.1-0.2,0.2-0.1,0.2c0,0,0.1,0,0.2,0c0.1,0,0.1-0.1,0.1-0.2
						C15.2,11.4,15.2,11.4,15.1,11.4C15.2,11.4,15.2,11.4,15.1,11.4"/>
					<path class="st5" d="M21.1,8.6c0.1-0.1,0.2-0.2,0.3-0.4c0-0.2,0-0.2,0-0.2c0,0-0.2,0.2-0.3,0.2c-0.1,0-0.1,0.1-0.1,0.1
						c0,0,0.1-0.1,0.2-0.2c0.1-0.1,0.3-0.3,0.3-0.4c0-0.2,0-0.2-0.1-0.2c0,0-0.2,0.2-0.3,0.3c-0.1,0.1-0.2,0.1-0.2,0.1
						c0,0,0.1-0.1,0.2-0.2c0.1-0.1,0.2-0.2,0.2-0.4c0-0.1,0-0.2,0-0.2c0,0,0,0,0,0c0,0-0.1,0.2-0.2,0.3c-0.1,0.1-0.2,0.2-0.2,0.3
						c-0.1,0.1-0.1,0.1-0.1,0.1c0,0,0.1-0.1,0.1-0.2c0.1-0.1,0.2-0.2,0.3-0.4c0.1-0.2,0-0.4,0-0.5c0,0,0,0-0.1,0
						c0,0-0.1,0.3-0.2,0.4c-0.1,0.1-0.2,0.2-0.2,0.3c0,0.1-0.1,0.1-0.1,0.1c0,0,0-0.1,0.1-0.2c0.1-0.1,0.2-0.4,0.2-0.5
						c0-0.1,0-0.3-0.1-0.4c-0.1-0.2-0.1-0.2-0.1-0.2s0,0,0,0c0,0.1-0.1,0.3-0.2,0.5C20.3,7,20.3,7,20.2,7.2C20.1,7.3,20,7.4,20,7.4
						c0,0,0,0.1,0,0.1c0,0,0.2-0.1,0.3-0.1c0.1,0,0.1,0.1,0.1,0.1c0,0,0,0.1,0,0.2c0,0,0,0,0,0.1c0,0,0.1,0,0.1,0c0,0,0.1,0,0.2,0.1
						c0,0.1,0,0.1,0,0.2c0,0.1-0.1,0.1-0.1,0.1s0.1,0,0.1,0c0,0,0.1,0.1,0.1,0.2c0,0.1-0.1,0.2-0.2,0.2c0,0-0.1,0-0.1,0
						s0.1,0,0.1,0.2c0,0.2-0.1,0.2-0.1,0.2c0,0-0.1,0-0.1,0c0,0,0.1,0.1,0.1,0.1c0,0.1,0,0.2-0.1,0.2c-0.1,0.1-0.2,0.1-0.2,0.1
						c0,0,0,0.1-0.1,0.2c-0.1,0-0.1,0.1-0.1,0.1c0,0-0.1,0-0.1,0.1c0,0,0,0.1-0.1,0.2C19.9,10,19.8,10,19.7,10s-0.1,0-0.1,0
						c0,0,0,0.1-0.1,0.2c-0.1,0.1-0.2,0.1-0.2,0.1c0,0-0.1,0-0.1,0c0,0-0.1,0-0.1,0c0,0-0.1,0.1-0.1,0.2c-0.1,0-0.1,0-0.1,0
						c0,0.1,0,0.2,0,0.3c0,0,0,0.1,0.1,0.1c0.1,0.1,0.3,0.1,0.4,0.1c0.1,0,0.1-0.1,0.1-0.1c0,0,0-0.1-0.1-0.1
						c-0.1,0-0.2-0.1-0.2-0.1c0,0,0,0,0,0c0,0,0,0,0.1,0c0.1,0,0.3,0.1,0.4,0.1c0.2,0,0.2-0.1,0.2-0.1c0-0.1,0-0.1-0.1-0.1
						c-0.1,0-0.1-0.1-0.2-0.1c0,0,0,0,0,0c0,0,0.1,0,0.1,0c0.1,0,0.2,0,0.3,0c0.1,0,0.1-0.1,0.1-0.1c0,0,0-0.1-0.1-0.1
						c-0.1,0-0.2-0.1-0.1-0.1c0,0,0.1,0,0.2,0c0.1,0,0.3,0,0.4-0.1c0.1-0.1,0.1-0.1,0.1-0.2c0,0-0.1,0-0.2-0.1c-0.1,0-0.1,0-0.1,0
						c0,0,0,0,0.2,0c0.2,0,0.3,0,0.4-0.1C21,9.8,21,9.7,21,9.6c0,0-0.1-0.1-0.2-0.1c-0.1,0-0.1,0-0.1,0c0,0,0,0,0.1,0
						c0.1,0,0.2,0,0.4-0.1c0.1-0.1,0.1-0.1,0.1-0.2c0,0,0-0.1-0.1-0.1s-0.2,0-0.2,0c0,0,0,0,0,0c0,0,0,0,0.1,0C21,9,21.2,9,21.3,8.9
						c0.1-0.1,0.1-0.3,0.1-0.3s0,0-0.1,0c-0.1,0-0.2,0.1-0.2,0.1c-0.1,0-0.1,0.1-0.1,0C20.9,8.7,21,8.6,21.1,8.6"/>
					<path class="st5" d="M20.8,8.2c-0.1,0-0.1,0-0.2,0c0,0,0,0-0.1,0c0,0,0,0,0.1-0.1c0.1,0,0.2-0.1,0.2-0.2c0-0.1-0.1-0.1-0.2-0.1
						c-0.1,0-0.2,0.1-0.2,0.1c0,0-0.1,0.1-0.1,0.1c0,0,0-0.1,0.1-0.1c0.1-0.1,0.1-0.2,0.1-0.3c-0.1-0.1-0.2-0.1-0.3,0
						C20,7.5,20,7.6,20,7.6c0,0,0-0.1,0-0.2c0-0.1-0.1-0.1-0.1-0.1s-0.2,0.3-0.3,0.5c-0.2,0.2-0.4,0.4-0.4,0.6
						c0,0.2,0.1,0.3,0.3,0.4c0.2,0.1,0.2,0.2,0.2,0.4c0,0.1-0.1,0.2-0.3,0.2c-0.2,0-0.3,0-0.4,0.1c-0.1,0.1-0.2,0.1-0.2,0.1l0,0
						c0,0.1,0,0.1,0,0.2c0,0.1,0,0.2,0,0.3c0,0,0,0,0,0c0,0,0,0,0,0c0,0,0,0,0,0.1c0,0,0.1,0,0.1,0c0,0,0,0,0,0c0,0,0,0,0,0
						c0,0,0,0,0,0c0,0,0,0,0,0h0c0,0.1,0.1,0.2,0.1,0.3c0,0,0.1,0,0.2,0c0.1-0.1,0.1-0.2,0-0.2c0,0,0,0,0-0.1c0,0,0,0,0.1,0
						c0,0,0.2,0.2,0.3,0.1c0.1-0.1,0.1-0.2,0.1-0.2c0,0-0.1-0.1,0-0.1c0,0,0.1,0,0.1,0c0,0,0.2,0.1,0.3,0C20,9.9,20,9.8,20,9.7
						c0-0.1-0.2-0.1-0.1-0.1c0,0,0.1,0,0.1,0c0,0,0.1,0,0.2,0c0.1-0.1,0.1-0.1,0-0.2c-0.1,0-0.1-0.1-0.1-0.1c0,0,0.1,0,0.1,0
						c0,0,0.2,0,0.2,0c0.1-0.1,0.1-0.1,0.1-0.2C20.6,9,20.5,9,20.4,9c0,0-0.1,0-0.1-0.1c0,0,0,0,0.1,0c0.1,0,0.2-0.1,0.3-0.2
						c0-0.1,0-0.2-0.1-0.2c-0.1,0-0.2,0-0.2,0c0,0,0,0,0.1,0c0,0,0.2,0,0.3-0.1C20.9,8.3,20.8,8.2,20.8,8.2"/>
					<path class="st5" d="M21.4,7.9c0,0,0.2-0.2,0.4-0.5C21.9,7,22,6.8,22,6.6c0-0.2,0-0.3,0-0.4c0-0.1,0-0.2-0.1,0
						c0,0.1-0.2,0.6-0.2,0.7c-0.1,0.2-0.2,0.4-0.2,0.4c0,0,0,0.1-0.1,0.1c0,0.1-0.1,0.1-0.1,0.1s0,0,0,0c0,0,0,0,0.1,0
						c0,0,0.1,0.1,0.1,0.1s0.1-0.1,0.2-0.2C21.7,7.2,21.8,7,21.8,7s-0.1,0.2-0.2,0.4c-0.1,0.2-0.2,0.2-0.2,0.2s0,0.1,0,0.1
						C21.4,7.8,21.4,7.9,21.4,7.9"/>
					<path class="st5" d="M22.2,6.9c0,0-0.1,0.2-0.2,0.4c-0.1,0.2-0.4,0.5-0.5,0.6C21.4,8,21.4,8,21.4,8c0,0,0,0,0,0.1c0,0,0,0,0,0
						s0.2-0.2,0.3-0.3c0.1-0.1,0.2-0.2,0.1,0C21.7,7.9,21.6,8,21.6,8c0,0-0.1,0.1-0.1,0.1s0,0.1,0,0.1c0,0,0,0.1,0,0.1
						s0.1-0.1,0.1-0.1c0.1,0,0.3-0.2,0.5-0.6C22.3,7.2,22.2,6.9,22.2,6.9"/>
					<path class="st5" d="M21.2,5.6c0-0.3-0.1-0.7-0.2-0.8c0,0,0,0.5-0.1,0.7c0,0.2-0.1,0.6-0.1,0.6s0,0,0,0.1
						c0,0.1,0.1,0.1,0.1,0.2c0,0.1,0,0.1,0,0.1s0.1-0.2,0.1-0.4c0-0.2,0-0.3,0-0.3c0-0.1,0-0.1,0,0c0,0.1,0,0.3,0,0.4
						c0,0.1-0.1,0.3-0.1,0.3c0,0,0,0,0,0.1c0,0,0,0.1,0,0.1c0,0.1,0,0.1,0,0.1c0,0,0,0.1,0,0.1s0,0,0.1-0.1c0,0,0.1-0.1,0.1-0.1
						c0-0.1,0.1-0.2,0.1-0.4C21.1,6,21.2,5.8,21.2,5.6"/>
					<path class="st5" d="M21.5,6.9c0.1-0.2,0.2-0.6,0.1-1.1c0-0.5-0.2-0.6-0.2-0.6s0,0.1,0,0.2c0,0.2,0,0.4-0.1,0.7
						c-0.1,0.3-0.2,0.5-0.2,0.5c0,0.1,0,0.2,0,0.3c0,0.1,0,0.1,0,0.2L21.2,7c0,0,0.1-0.1,0.2-0.5c0.1-0.4,0-0.2,0,0.1
						c0,0.1,0,0.2-0.1,0.3c0,0.1-0.1,0.2-0.1,0.2c0.1,0,0.1,0.1,0.1,0.2C21.3,7.2,21.4,7,21.5,6.9"/>
					<path class="st5" d="M21.6,10.3c0,0-0.2,0-0.4,0c-0.2,0-0.4,0-0.5-0.1c-0.1,0-0.2,0-0.2,0c0,0-0.1,0-0.1,0c0,0-0.1,0,0,0
						c0,0,0.2,0.1,0.3,0.1c0.1,0,0.1,0,0.1,0c0,0,0,0-0.1,0c-0.1,0-0.2-0.1-0.3-0.1c-0.1,0-0.1-0.1-0.1,0c0,0,0,0.1,0.1,0.2
						c0.1,0,0.3,0.2,0.5,0.2c0.2,0,0.5-0.1,0.6-0.2C21.6,10.3,21.6,10.3,21.6,10.3"/>
					<path class="st5" d="M21.9,9.7c0,0-0.2,0.1-0.4,0.1c-0.2,0-0.5,0-0.5,0s-0.1,0.1-0.1,0.1c0,0-0.1,0,0,0c0.1,0,0.2,0.1,0.3,0
						c0.1,0,0.1,0,0,0c-0.1,0-0.2,0-0.3,0c-0.1,0-0.1,0-0.1,0s0,0.1,0,0.1c0,0,0,0.1,0,0.1s0.1,0.1,0.3,0.1c0.2,0,0.4,0,0.5-0.1
						c0.1,0,0.3-0.1,0.4-0.3C22,9.8,21.9,9.8,21.9,9.7C21.9,9.8,21.9,9.7,21.9,9.7"/>
					<path class="st5" d="M22.2,9c0,0-0.2,0.1-0.5,0.2c-0.2,0.1-0.3,0.1-0.5,0.1c-0.1,0-0.1,0-0.2,0c0,0-0.1,0-0.1,0.1
						c-0.1,0-0.1,0-0.1,0s0.1,0,0.1,0c0,0,0.1,0,0.2,0c0.1,0,0.3,0,0.4-0.1c0.1,0,0.1,0,0.1,0c0,0-0.1,0-0.2,0.1
						c-0.1,0-0.1,0-0.3,0.1c-0.2,0-0.2,0-0.2,0s0,0,0,0.1c0,0,0,0.1,0,0.1s0.3,0,0.6-0.1c0.3-0.1,0.4-0.2,0.5-0.3
						C22.2,9.2,22.2,9.1,22.2,9C22.2,9,22.2,9,22.2,9"/>
					<path class="st5" d="M22.3,8.4c0,0-0.1,0.1-0.2,0.2c0,0-0.1,0.1-0.1,0.1c-0.1,0.1-0.3,0.1-0.4,0.2c-0.2,0-0.2,0.1-0.2,0.1
						S21.3,9,21.3,9c0,0-0.1,0.1,0,0c0.1,0,0.2,0,0.4-0.1c0.1,0,0.2-0.1,0.2-0.1c0,0,0,0-0.2,0.1C21.5,9,21.4,9,21.3,9.1
						c-0.1,0-0.1,0-0.1,0s-0.1,0,0,0c0.1,0,0.1,0,0.1,0c0,0,0,0.1,0,0.1c0.1,0,0.4-0.1,0.6-0.3c0.3-0.2,0.3-0.2,0.4-0.3
						C22.3,8.6,22.4,8.4,22.3,8.4C22.4,8.4,22.4,8.4,22.3,8.4"/>
					<path class="st5" d="M21.4,8.6C21.4,8.6,21.4,8.6,21.4,8.6c0,0.1,0.2,0,0.3-0.1c0.1-0.1,0.2-0.1,0.2-0.1c0,0,0.1,0,0,0
						c-0.1,0.1-0.2,0.1-0.3,0.2C21.5,8.6,21.4,8.7,21.4,8.6c0,0.1,0,0.2,0,0.2c0,0,0,0,0,0c0,0,0.3-0.1,0.5-0.3
						c0.3-0.2,0.4-0.5,0.4-0.6c0-0.1,0-0.1,0-0.2c0,0,0,0,0,0c0,0-0.3,0.3-0.4,0.4c-0.1,0.1-0.3,0.2-0.4,0.3
						C21.4,8.5,21.3,8.5,21.4,8.6C21.3,8.5,21.3,8.6,21.4,8.6C21.3,8.6,21.3,8.5,21.4,8.6"/>
					<path class="st5" d="M20.3,10.5c0,0-0.1,0-0.1,0c-0.1,0-0.1,0-0.1,0s0.2,0.1,0.2,0.2c0.1,0,0.1,0,0.1,0.1c0,0,0,0,0,0
						c0,0-0.1,0-0.1-0.1c-0.1,0-0.1-0.1-0.1-0.1c0,0-0.1,0-0.1,0s0,0.1,0,0.2c-0.1,0-0.1,0.1-0.1,0.1s0.2,0.1,0.5,0.2
						c0.3,0.1,0.4,0,0.5,0c0.1,0,0.2-0.2,0.2-0.2s-0.2,0-0.5-0.1C20.4,10.6,20.3,10.5,20.3,10.5"/>
					<path class="st5" d="M19.7,10.9L19.7,10.9c0,0,0.1,0.2,0.2,0.2c0.1,0.1,0.1,0.1,0,0C19.8,11.1,19.7,11,19.7,10.9
						C19.7,10.9,19.6,10.9,19.7,10.9c-0.1,0-0.1,0.1-0.1,0.2c0,0.1,0.2,0.3,0.5,0.3c0.4,0,0.5-0.1,0.5-0.1s-0.2,0-0.5-0.2
						C19.8,10.9,19.8,10.9,19.7,10.9"/>
					<path class="st5" d="M19.6,11.3c0-0.1-0.1-0.1-0.1-0.1c0,0,0,0-0.1,0c-0.1,0-0.1,0-0.1,0s-0.1,0,0,0c0,0,0.1,0.1,0.2,0.2
						c0.1,0,0.1,0.1,0.1,0.1c0,0-0.1,0-0.2-0.1c-0.1,0-0.1-0.1-0.2-0.2c0,0,0-0.1,0-0.1s-0.1,0-0.2-0.1c-0.1,0-0.1-0.1-0.1-0.1
						s0,0.2,0.2,0.4c0.1,0.1,0.1,0.1,0.2,0.2c0.1,0.1,0.2,0.1,0.3,0.1c0.2,0,0.2,0,0.2,0s0,0,0-0.1C19.7,11.4,19.7,11.4,19.6,11.3"
						/>
					<path class="st5" d="M18.9,11.1c0,0.1,0,0.1-0.1,0.2c0,0,0,0,0,0.1c0,0,0.1,0.1,0.1,0.1s0,0-0.1-0.1c0,0,0,0-0.1-0.1
						c0,0,0,0.1,0,0.1c0,0.1,0,0.2,0.1,0.2c0.1,0.1,0.2,0,0.2,0c0,0,0-0.1-0.1-0.2C19,11.4,18.9,11.2,18.9,11.1"/>
					<path class="st5" d="M18.9,6.1C18.9,6.1,18.9,6.1,18.9,6.1c0.1,0.1,0,0.1,0,0.1C18.8,6.2,18.8,6.2,18.9,6.1
						C18.8,6.1,18.8,6.1,18.9,6.1"/>
					<path class="st5" d="M18,6.1c0,0,0.1,0,0.1,0.1c0.1,0,0.3,0,0.4,0C18.6,6.1,18.8,6,18.8,6c0.1,0,0.1,0,0.2,0c0,0,0,0,0,0
						c0,0,0-0.1-0.1-0.2c-0.1-0.1-0.3-0.1-0.4,0c-0.1,0-0.2,0.1-0.3,0.1c-0.1,0-0.1,0.1-0.1,0.1c0,0,0,0,0.1-0.1c0,0,0,0,0,0
						c-0.1,0-0.3,0-0.4-0.1C17.8,5.9,17.8,6,18,6.1"/>
					<path class="st5" d="M19.5,6.1c-0.1,0-0.2,0-0.3,0C19,6.1,19,6.1,19,6.1s0,0.1-0.1,0.2c-0.1,0-0.1,0-0.2,0c0,0,0-0.1,0-0.1
						s-0.1,0.1-0.3,0.1c-0.1,0-0.3,0-0.4,0c0,0-0.1,0.1-0.2,0.1c-0.1,0.1-0.1,0.1-0.1,0.1s0,0,0,0c0,0,0,0,0,0.1
						c0,0-0.2,0.2-0.3,0.2c-0.1,0-0.2,0.1-0.2,0.1s0,0.1,0.1,0.1c0,0,0.1,0,0,0.1c0,0-0.2,0.2-0.3,0.3c-0.1,0.1-0.1,0.1-0.2,0.1
						c0,0-0.1,0,0,0.1c0.1,0.1,0.2,0.1,0.4,0.1c0.1,0,0.3-0.2,0.3-0.2s0,0.2,0,0.4c0,0.1,0,0.2,0,0.3c0,0.1,0,0.1,0,0.1
						S17.9,8.1,18,8C18,7.8,18,7.7,18,7.7c0-0.1,0-0.1,0-0.1c0,0,0.1,0,0.1,0c0,0,0,0,0,0s0-0.1,0-0.2c0-0.1,0-0.3,0.1-0.3
						c0,0,0,0,0.1,0c0,0,0,0.1,0.1,0.1c0-0.1,0-0.2,0.2-0.4c0,0,0,0,0.1,0c0.1,0,0.2,0.1,0.3,0c0.1,0,0.2-0.1,0.2-0.2
						c0,0-0.2,0.1-0.3,0c-0.1,0-0.2-0.1-0.1-0.2c0.1-0.1,0.1-0.1,0.2-0.2c0.1-0.1,0.3-0.2,0.4-0.2c0.1,0,0.1,0.1,0.2,0.1
						c0,0,0.1,0.1,0.1,0C19.6,6.2,19.6,6.1,19.5,6.1"/>
					<path class="st5" d="M18.2,8c0,0-0.1-0.1-0.1-0.1S18.1,7.9,18.2,8C18,8.1,18,8.2,18,8.2S18,8.2,18.2,8
						C18.1,8.1,18.2,8.1,18.2,8C18.2,8.1,18.2,8.1,18.2,8"/>
					<path class="st5" d="M17.7,7.7c0,0,0,0.1-0.1,0.2c-0.1,0.1-0.2,0.1-0.2,0.1s0,0,0.1,0C17.5,7.8,17.6,7.7,17.7,7.7
						c-0.1,0.1-0.3,0.1-0.4,0.1c0,0,0,0,0,0.1c0,0.1-0.1,0.2-0.1,0.2c0,0,0,0.1,0,0.1s0,0,0.2,0.1c0.2,0.1,0.4,0,0.4,0s0,0,0-0.2
						C17.6,7.9,17.7,7.7,17.7,7.7"/>
					<path class="st5" d="M15.1,6.1C15.2,6.1,15.2,6.1,15.1,6.1c0.1,0.1,0,0.1,0,0.1C15.1,6.2,15,6.2,15.1,6.1
						C15,6.1,15.1,6.1,15.1,6.1"/>
					<path class="st5" d="M15,6.1c0.1,0,0.1,0,0.2,0c0.1,0,0.2,0.1,0.3,0.1c0.1,0.1,0.3,0.1,0.4,0c0,0,0.1,0,0.1-0.1
						c0.2-0.1,0.1-0.3,0.1-0.3C16,5.9,15.8,6,15.7,6c0,0,0,0,0,0c0,0,0.1,0.1,0.1,0.1c0,0-0.1,0-0.1-0.1c-0.1,0-0.1-0.1-0.3-0.1
						c-0.1,0-0.3,0-0.4,0C14.9,5.9,14.9,6,15,6.1C14.9,6.1,14.9,6.1,15,6.1"/>
					<path class="st5" d="M16.8,7.5c0,0-0.1,0-0.2-0.1c-0.1-0.1-0.2-0.2-0.3-0.3c0,0,0-0.1,0-0.1c0,0,0.1-0.1,0.1-0.1
						s-0.1,0-0.2-0.1c-0.1,0-0.2-0.2-0.3-0.2c0,0,0,0,0-0.1c0,0,0,0,0,0s-0.1,0-0.1-0.1c-0.1-0.1-0.2-0.1-0.2-0.1
						c-0.1,0-0.3,0-0.4,0c-0.2,0-0.3-0.1-0.3-0.1s0,0,0,0.1c0,0-0.1,0.1-0.2,0C15,6.2,15,6.1,15,6.1s-0.1,0-0.2-0.1
						c-0.1,0-0.2-0.1-0.3,0c-0.1,0-0.1,0.2-0.1,0.3c0,0.1,0.1,0.1,0.1,0c0,0,0-0.1,0.2-0.1c0.1,0,0.2,0,0.4,0.2
						c0.1,0.1,0.2,0.1,0.2,0.2c0.1,0.1,0,0.1-0.1,0.2c-0.1,0-0.3,0-0.3,0c0,0,0.1,0.1,0.2,0.2c0.1,0,0.2,0,0.3,0c0.1,0,0.1,0,0.1,0
						c0.1,0.1,0.1,0.2,0.2,0.4c0.1,0,0.1-0.1,0.1-0.1c0,0,0-0.1,0,0c0,0,0.1,0.2,0.1,0.3c0,0.1,0,0.2,0,0.2s0,0,0,0c0,0,0,0,0.1,0
						c0,0,0,0,0,0.1c0,0,0,0.1,0.1,0.3c0.1,0.2,0.2,0.2,0.2,0.2s0,0,0-0.1c0-0.1,0-0.2,0-0.3c0-0.1,0-0.4,0-0.4s0.1,0.2,0.3,0.2
						c0.1,0,0.3,0,0.4-0.1C16.9,7.5,16.9,7.5,16.8,7.5"/>
					<path class="st5" d="M15.9,7.9c0,0,0,0.1-0.1,0.1c0,0,0,0,0,0s0,0,0.1,0.1c0.1,0,0.1,0,0.1,0S15.9,8.1,15.9,7.9
						C15.9,7.9,15.9,7.9,15.9,7.9"/>
					<path class="st5" d="M16.8,7.9C16.7,7.8,16.7,7.8,16.8,7.9c-0.1-0.1-0.3-0.1-0.4-0.2c0,0,0.1,0.1,0.1,0.2c0.1,0,0.1,0,0.1,0
						s-0.1,0-0.2-0.1c-0.1-0.1-0.1-0.2-0.1-0.2s0,0.2,0,0.4c0,0.1,0,0.2,0,0.2s0.2,0,0.4,0c0.2-0.1,0.2-0.1,0.2-0.1s0,0,0,0
						C16.8,8,16.8,7.9,16.8,7.9"/>
					<path class="st5" d="M16,13.2c0,0,0.1,0,0.2-0.1c0,0,0.1-0.1,0.1-0.2c0,0,0.1-0.1,0.1-0.1s0,0.1,0,0.2c0,0.1,0,0.2,0,0.3
						c0,0.1,0.1,0.1,0.1,0.1c0,0,0.1-0.1,0.1-0.1c0,0,0-0.1,0-0.1c0-0.1,0.1-0.1,0.1-0.1c0,0,0,0.1,0,0.1c0,0.1-0.1,0.2-0.1,0.3
						c0,0.1,0,0.2,0.1,0.2c0.1,0,0.1-0.1,0.2-0.2c0-0.2,0.1-0.2,0.1-0.2c0,0,0,0.1,0,0.1c0,0,0,0.1,0,0.1c0,0.1,0,0.2,0.1,0.2
						c0,0,0.1,0,0.1,0s0,0,0.1,0c0,0,0.1-0.3,0.1-0.3c0,0,0-0.1,0-0.1c0,0,0,0,0.1,0.2c0,0.2,0.1,0.2,0.2,0.2c0.1,0,0.1-0.1,0.1-0.2
						c0-0.1,0-0.2-0.1-0.3c0-0.1,0-0.1,0.1,0c0,0,0,0.1,0.1,0.1c0,0.1,0.1,0.1,0.1,0.1c0,0,0.1,0,0.1-0.1c0-0.1-0.1-0.4-0.1-0.4
						s0,0,0,0.1c0,0,0,0.1,0.1,0.2c0,0.1,0.1,0.1,0.2,0.1c0,0,0.1-0.1,0-0.2c0-0.1-0.2-0.2-0.3-0.4c-0.1-0.1-0.2-0.3-0.2-0.3
						c-0.1,0.1-0.2,0.1-0.3,0.2C17,12.7,17,12.7,17,12.7s0-0.1-0.2-0.3c-0.1-0.1-0.2-0.2-0.3-0.2c0,0-0.1,0.2-0.2,0.3
						c0,0.1-0.1,0.1-0.1,0.2c0,0.1-0.1,0.1-0.1,0.2C16,13.1,16,13.1,16,13.2"/>
					<path class="st5" d="M16,13.7C16.1,13.6,16.1,13.6,16,13.7c0.1-0.1,0.1-0.1,0.1,0c0,0.1,0,0.2,0,0.3c0,0.1,0,0.1,0.1,0.1
						c0.1,0,0.1-0.1,0.1-0.1c0,0,0.1-0.1,0.1,0c0,0.1,0,0.1,0,0.3c0,0.1,0.1,0.1,0.1,0c0.1-0.1,0.1-0.2,0.1-0.2c0,0,0.1-0.1,0.1,0
						c0,0.2,0,0.5,0.3,0.6c0.2-0.1,0.3-0.4,0.3-0.6c0-0.1,0,0,0.1,0c0,0.1,0.1,0.1,0.1,0.2c0.1,0.1,0.1,0.1,0.1,0c0-0.1,0-0.2,0-0.3
						c0-0.1,0,0,0.1,0c0,0,0.1,0.1,0.1,0.1c0.1,0,0.1,0,0.1-0.1c0-0.1,0-0.2,0-0.3c0-0.1,0,0,0,0s0,0,0.1,0.1c0.1,0,0.1,0.1,0.1,0.1
						s0-0.2,0-0.3c-0.1-0.1-0.1-0.2-0.1-0.2s0,0-0.1,0c0,0-0.1,0-0.1,0v0.1v0c0,0,0.1,0.1,0.1,0.1c0,0,0.1,0.1,0,0
						c-0.1-0.1-0.1-0.1-0.1-0.1s0,0.1,0,0.1c0,0-0.1,0-0.1,0l0,0l0,0c0,0,0.1,0.1,0.1,0.2c0,0,0,0,0,0c0-0.1-0.1-0.1-0.1-0.2
						c0,0-0.1-0.1-0.1,0c0,0.1,0,0.2,0,0.2c0,0,0,0,0,0s0,0.1,0,0.2c0,0,0,0.1,0,0c0,0-0.1-0.2-0.1-0.2s-0.1,0-0.1,0
						c0,0-0.1-0.1-0.1-0.1s0,0.1-0.1,0.2c0,0-0.1,0.1-0.1,0.1s0,0.2,0,0.2s0,0.1,0,0.1c0,0,0,0,0-0.1c0,0,0-0.2,0-0.2
						s-0.1,0-0.1-0.1c0,0-0.1-0.2-0.1-0.2s0,0.1-0.1,0.1c0,0-0.1,0-0.1,0s-0.1,0.1-0.1,0.2c0,0,0,0,0,0c0,0,0-0.2,0-0.2s0,0,0,0
						c0,0,0-0.1,0-0.2c0-0.1,0,0-0.1,0c0,0-0.1,0.1-0.1,0.2c0,0.1,0,0.1,0,0c0,0,0.1-0.2,0.1-0.2l0,0l0,0c0,0-0.1,0-0.1,0
						c0,0,0-0.1,0-0.1s-0.1,0-0.1,0.1c-0.1,0,0,0,0,0c0,0,0.1-0.1,0.1-0.1v0v-0.1c0,0,0,0-0.1,0c0,0-0.1,0-0.1,0s0,0-0.1,0.2
						c-0.1,0.1,0,0.3,0,0.3S16,13.7,16,13.7"/>
					<path class="st5" d="M15.8,14.4c0,0,0.1-0.1,0.2-0.1c0.1-0.1,0.2-0.2,0.2-0.2h0c0,0,0,0,0-0.1c0,0,0-0.1,0-0.2
						c0-0.1,0-0.1,0-0.1s0,0-0.1,0.1c-0.1,0-0.1,0-0.1,0l0-0.1c0,0,0,0.1-0.1,0.2c0,0.1-0.2,0.2-0.3,0.2c-0.1,0.1-0.2,0.1-0.3,0.2
						c-0.1,0,0,0.1,0,0.1s0.1,0.1,0.3,0.1C15.6,14.5,15.7,14.4,15.8,14.4"/>
					<path class="st5" d="M16.4,14.3c-0.1,0-0.1,0-0.1-0.1c0,0,0-0.2,0-0.2s0,0,0,0c0,0-0.1,0-0.1,0s0,0,0,0.1c0,0-0.1,0.1-0.1,0.1
						c-0.1,0-0.1,0.1-0.2,0.1c0,0-0.1,0.1-0.2,0.1c-0.1,0-0.1,0.1-0.1,0.2c0,0.1,0,0.1,0.1,0.1c0.1,0,0.1,0,0.2,0
						c0.1,0,0.3-0.2,0.4-0.2C16.4,14.4,16.4,14.3,16.4,14.3"/>
					<path class="st5" d="M16.8,14.4c0,0,0-0.1-0.1-0.1c0-0.1-0.1-0.2-0.1-0.2s0,0-0.1,0.1c0,0.1-0.1,0.1-0.1,0.1s0,0-0.1,0.1
						c-0.1,0.1-0.1,0.1-0.2,0.2c-0.1,0.1-0.2,0.1-0.3,0.2c-0.1,0.1-0.1,0.2,0,0.2c0,0,0.1,0,0.1,0c0.1,0,0.2-0.1,0.5-0.2
						C16.7,14.7,16.8,14.4,16.8,14.4"/>
					<path class="st5" d="M16.9,14.9c0.1-0.1,0.1-0.3,0.1-0.3s0,0-0.1,0c0,0-0.1-0.1-0.1-0.1s0,0.1-0.1,0.2c0,0.1-0.1,0.1-0.1,0.2
						c-0.1,0.1-0.2,0.2-0.3,0.2c0,0.1,0,0.3,0,0.3c0,0.1,0.1,0,0.1,0c0,0,0.1-0.1,0.1-0.1C16.7,15.1,16.8,15,16.9,14.9"/>
					<path class="st5" d="M18.8,14.3c-0.1,0-0.2-0.1-0.3-0.2c-0.1-0.1-0.2-0.2-0.3-0.2c0-0.1-0.1-0.2-0.1-0.2l0,0.1c0,0,0,0-0.1,0
						c-0.1,0-0.1-0.1-0.1-0.1s0,0.1,0,0.1c0,0.1,0,0.1,0,0.2c0,0,0,0.1,0,0.1h0c0,0,0,0.1,0.2,0.2c0.1,0.1,0.2,0.1,0.2,0.1
						c0.1,0,0.1,0.1,0.3,0.1C18.7,14.4,18.8,14.3,18.8,14.3C18.8,14.3,18.8,14.3,18.8,14.3"/>
					<path class="st5" d="M18.3,14.5c-0.1,0-0.1-0.1-0.2-0.1c-0.1,0-0.1-0.1-0.2-0.1c-0.1,0-0.1-0.1-0.1-0.1c0,0,0-0.1,0-0.1
						s-0.1,0-0.1,0c0,0,0,0,0,0s0,0.2,0,0.2c0,0.1-0.1,0.1-0.1,0.1c0,0,0.1,0.2,0.2,0.2c0.1,0.1,0.3,0.2,0.4,0.2c0.1,0,0.1,0,0.2,0
						c0.1,0,0.1,0,0.1-0.1C18.4,14.6,18.4,14.5,18.3,14.5"/>
					<path class="st5" d="M17.8,14.6c-0.1-0.1-0.2-0.1-0.2-0.2c-0.1-0.1-0.1-0.1-0.1-0.1s-0.1,0-0.1-0.1c0-0.1-0.1-0.1-0.1-0.1
						s0,0.1-0.1,0.2c0,0.1-0.1,0.1-0.1,0.1s0.1,0.3,0.3,0.4c0.2,0.1,0.4,0.2,0.5,0.2c0.1,0,0.1,0.1,0.1,0c0,0,0-0.1,0-0.2
						C18,14.7,17.9,14.6,17.8,14.6"/>
					<path class="st5" d="M17.4,14.8c-0.1-0.1-0.1-0.1-0.1-0.2c0-0.1-0.1-0.2-0.1-0.2s-0.1,0.1-0.1,0.1c0,0-0.1,0-0.1,0
						s0,0.2,0.1,0.3c0.1,0.1,0.2,0.2,0.3,0.3c0.1,0.1,0.1,0.1,0.1,0.1c0,0,0.1,0.1,0.1,0c0-0.1,0.1-0.2,0-0.3
						C17.6,14.9,17.5,14.8,17.4,14.8"/>
					<path class="st5" d="M17.1,15C17,15,17,14.9,17.1,15C17,14.9,17,15,16.9,15c-0.1,0.1-0.2,0.2-0.2,0.2s0,0.2,0.1,0.3
						c0.1,0.1,0.1,0.1,0.2,0.2c0.1-0.1,0.1-0.1,0.2-0.2c0.1-0.1,0.1-0.3,0.1-0.3S17.1,15.1,17.1,15"/>
					<path class="st6" d="M21.7,12.9C21.6,12.9,21.6,12.9,21.7,12.9c-0.1,0-0.1,0-0.1,0c0,0-0.1,0.1-0.1,0.1s-0.1,0-0.1,0.1
						c0,0.1,0,0.1,0.1,0.1c0,0,0.2,0,0.2-0.1C21.7,13,21.7,13,21.7,12.9C21.7,13,21.7,12.9,21.7,12.9"/>
					<path class="st6" d="M21.8,12.4c0-0.1-0.1-0.3-0.3-0.4c0,0-0.1,0.2-0.1,0.3c0,0.1,0,0.1,0,0.1C21.5,12.4,21.7,12.5,21.8,12.4
						C21.8,12.5,21.8,12.5,21.8,12.4"/>
					<path class="st6" d="M21,12.3C21,12.3,21,12.3,21,12.3c0.1-0.1,0.1-0.4,0.1-0.4s-0.2,0-0.3,0.1c-0.2,0.1-0.2,0.2-0.2,0.2
						s0,0,0.2,0C20.8,12.3,20.9,12.3,21,12.3"/>
					<path class="st6" d="M20.6,12.7C20.5,12.7,20.5,12.7,20.6,12.7c-0.1,0,0,0.1,0,0.2c0.1,0.1,0.1,0.1,0.3,0.1
						c0.1,0,0.2-0.1,0.3-0.1c0-0.1,0-0.1,0-0.1s-0.3,0-0.4-0.1C20.7,12.7,20.6,12.7,20.6,12.7"/>
					<path class="st3" d="M18.5,9.6c-0.1-0.4,0.2-0.7,0.2-0.7l-0.4-0.5c-0.3,0.2-0.8,0.2-1.2,0c-0.4,0.2-0.9,0.2-1.2,0l-0.4,0.5
						c0,0,0.2,0.3,0.2,0.7c-0.1,0.4-0.2,1-0.2,1.3c0,0.3,0.2,0.6,0.4,0.7c0.2,0.2,0.5,0.3,0.7,0.4c0.2,0.1,0.4,0.2,0.5,0.3
						c0.1,0.1,0.1,0.1,0.1,0.1s0.1-0.1,0.2-0.1c0.1-0.1,0.3-0.2,0.5-0.3c0.2-0.1,0.5-0.2,0.7-0.4c0.2-0.2,0.4-0.5,0.4-0.7
						C18.7,10.6,18.6,10,18.5,9.6"/>
					<path class="st3" d="M17.6,7.3c-0.1,0.1-0.2,0.1-0.2,0.1l0,0c0,0,0.1,0,0.1,0C17.6,7.4,17.7,7.3,17.6,7.3
						C17.7,7.3,17.7,7.2,17.6,7.3C17.7,7.2,17.7,7.3,17.6,7.3"/>
					<path class="st3" d="M17.9,7.5c0,0,0,0.3,0,0.3c0,0,0,0.1,0,0.1c0,0,0,0,0,0C17.9,7.8,17.9,7.5,17.9,7.5L17.9,7.5
						C17.9,7.5,17.9,7.4,17.9,7.5"/>
					<path class="st3" d="M18.4,6.7c0,0-0.1,0.1-0.1,0.1c0,0-0.1,0-0.1,0c0,0,0-0.1,0-0.1c0-0.1,0.1-0.1,0.1-0.2c0.1-0.1,0,0,0,0
						c0,0-0.1,0.1-0.1,0.2C18,6.8,18,7.1,18,7.1s0,0,0.1-0.1c0,0,0.1-0.1,0.2-0.1C18.3,6.9,18.4,6.8,18.4,6.7
						C18.5,6.7,18.4,6.7,18.4,6.7"/>
					<path class="st3" d="M16.4,7.3C16.3,7.3,16.3,7.2,16.4,7.3C16.3,7.2,16.3,7.3,16.4,7.3c-0.1,0,0,0.1,0.1,0.1c0.1,0,0.1,0,0.1,0
						l0,0C16.6,7.5,16.4,7.4,16.4,7.3"/>
					<path class="st3" d="M16.1,7.8c0,0,0-0.3,0-0.3c0,0,0,0,0,0l0,0C16,7.5,16.1,7.8,16.1,7.8c0,0.1,0,0.1,0,0.1
						C16.1,7.9,16.1,7.8,16.1,7.8"/>
					<path class="st3" d="M15.7,6.5C15.7,6.5,15.6,6.5,15.7,6.5c0,0.1,0.1,0.1,0.1,0.2c0,0.1,0,0.1,0,0.1c0,0-0.1,0-0.1,0
						c0,0-0.1-0.1-0.1-0.1c0,0-0.1,0,0,0c0,0,0.1,0.1,0.2,0.1C15.8,7,15.8,7,15.9,7c0,0,0.1,0.1,0.1,0.1s0-0.2-0.1-0.3
						C15.8,6.6,15.7,6.6,15.7,6.5"/>
					<path class="st3" d="M17,13.4C17,13.4,17,13.4,17,13.4c0-0.1,0-0.2,0-0.2c0,0,0,0,0,0c0,0,0,0,0,0.1C17,13.2,17,13.4,17,13.4
						C17,13.4,17,13.4,17,13.4"/>
					<path class="st3" d="M17.9,13C17.9,13.1,17.9,13,17.9,13c0-0.1,0-0.1,0-0.2c0-0.1-0.1-0.1-0.1-0.1s0,0,0.1,0.1
						C17.8,12.8,17.8,12.9,17.9,13"/>
					<path class="st3" d="M17.5,13c0,0,0.1,0.2,0.1,0.2C17.6,13.2,17.6,13.1,17.5,13c0-0.1,0-0.2,0-0.1c0,0,0,0,0,0S17.5,13,17.5,13
						"/>
					<path class="st3" d="M17.3,13.2C17.3,13.3,17.3,13.3,17.3,13.2C17.3,13.3,17.3,13.2,17.3,13.2c0,0,0-0.1,0-0.1c0,0,0,0,0,0
						C17.2,13.1,17.3,13.2,17.3,13.2C17.3,13.2,17.3,13.2,17.3,13.2"/>
					<path class="st3" d="M16.1,13c0-0.1,0.1-0.2,0.1-0.2c0,0,0.1-0.1,0.1-0.1s-0.1,0.1-0.1,0.1C16.1,12.9,16.1,12.9,16.1,13
						C16.1,13,16.1,13.1,16.1,13"/>
					<path class="st3" d="M16.5,13C16.5,13,16.5,13,16.5,13c0-0.1,0-0.1,0-0.1C16.5,12.9,16.4,12.9,16.5,13
						c-0.1,0.1-0.1,0.2-0.1,0.2C16.4,13.2,16.4,13.1,16.5,13"/>
					<path class="st3" d="M16.7,13.2C16.7,13.2,16.7,13.2,16.7,13.2c0,0,0-0.1,0-0.1c0,0,0,0,0,0C16.7,13.2,16.7,13.2,16.7,13.2
						C16.7,13.2,16.7,13.3,16.7,13.2C16.7,13.3,16.7,13.3,16.7,13.2"/>
					<path class="st3" d="M15.9,14L15.9,14C15.9,14,15.9,14,15.9,14c-0.1,0.1-0.1,0.1-0.2,0.1c0,0-0.1,0.1-0.1,0.1
						c-0.1,0-0.1,0-0.1,0c0,0,0,0,0,0s0,0,0.1,0c0.1,0,0.1-0.1,0.1-0.1C15.9,14.1,15.9,14,15.9,14"/>
					<path class="st3" d="M16.2,14.4C16.2,14.3,16.2,14.3,16.2,14.4C16.2,14.3,16.2,14.3,16.2,14.4c0,0-0.1,0-0.1,0.1
						c0,0-0.1,0-0.1,0.1c0,0-0.1,0.1-0.1,0.1c0,0,0,0,0,0s0,0,0,0c0,0,0.1,0,0.1,0s0,0,0.1,0C16.1,14.4,16.2,14.4,16.2,14.4"/>
					<path class="st3" d="M16.5,14.6C16.5,14.5,16.5,14.6,16.5,14.6c-0.1,0-0.1,0.1-0.2,0.1c0,0-0.1,0-0.1,0.1c0,0,0,0,0,0
						c0,0,0,0,0,0c0,0,0.1,0,0.1,0s0,0,0,0c0,0,0,0,0.1-0.1C16.5,14.6,16.5,14.6,16.5,14.6"/>
					<path class="st3" d="M16.7,14.9c-0.1,0-0.2,0.1-0.2,0.2c0,0.1,0,0.1,0,0.1c0,0,0,0,0,0c0,0,0-0.1,0-0.1S16.6,15,16.7,14.9
						c0,0,0.1,0,0.1-0.1c0,0,0-0.1,0-0.1S16.7,14.8,16.7,14.9"/>
					<path class="st3" d="M18.3,14.2c-0.1,0-0.1-0.1-0.1-0.1c0,0-0.1,0-0.1-0.1c0,0,0-0.1,0-0.1l0,0c0,0,0.1,0.1,0.1,0.1
						C18.2,14.2,18.2,14.2,18.3,14.2C18.3,14.3,18.4,14.3,18.3,14.2C18.4,14.3,18.4,14.3,18.3,14.2C18.4,14.3,18.4,14.3,18.3,14.2"
						/>
					<path class="st3" d="M18.1,14.6c0,0-0.1,0-0.1-0.1c0,0-0.1,0-0.1-0.1c0,0-0.1-0.1-0.1-0.1c0,0,0,0-0.1,0c0,0,0,0,0,0.1
						c0,0,0.1,0.1,0.1,0.1c0,0,0.1,0,0.1,0S18.1,14.5,18.1,14.6C18.1,14.6,18.1,14.6,18.1,14.6C18.1,14.6,18.2,14.6,18.1,14.6"/>
					<path class="st3" d="M17.8,14.8c0,0-0.1,0-0.1-0.1c0,0-0.1-0.1-0.2-0.1c0,0-0.1,0,0,0c0,0,0.1,0.1,0.1,0.1c0,0,0.1,0.1,0.1,0.1
						C17.7,14.8,17.7,14.8,17.8,14.8C17.7,14.8,17.8,14.8,17.8,14.8C17.8,14.8,17.8,14.8,17.8,14.8C17.8,14.8,17.8,14.8,17.8,14.8"
						/>
					<path class="st3" d="M17.3,14.9c-0.1,0-0.1-0.1-0.1-0.1s0,0,0,0.1C17.2,14.9,17.3,14.9,17.3,14.9c0,0.1,0.1,0.2,0.1,0.2
						s0,0,0,0.1c0,0,0,0,0,0c0,0,0,0,0-0.1C17.5,15,17.4,14.9,17.3,14.9"/>
					<path class="st3" d="M17,15.2c0,0,0,0.1,0,0.1C17,15.4,17,15.3,17,15.2c0.1,0,0.1-0.1,0.1-0.1H17C17,15.1,17,15.2,17,15.2"/>
					<path class="st6" d="M18.5,9.6c-0.1-0.4,0.1-0.8,0.1-0.8l-0.4-0.4c-0.3,0.2-0.8,0.1-1.2,0c-0.4,0.2-0.9,0.2-1.2,0l-0.4,0.4
						c0,0,0.2,0.3,0.1,0.8c-0.1,0.4-0.2,0.9-0.1,1.2c0,0,0,0,0,0.1h0.4c0,0,0,0,0.1,0c0,0,0.1,0,0.1,0s0-0.1,0.1-0.1
						c0,0,0.1,0,0.1,0c0,0,0,0,0.1,0c0,0,0.1-0.1,0.1-0.1c0-0.1,0-0.1,0-0.2c0,0,0-0.1,0-0.1s0,0,0,0c0,0,0,0,0-0.1c0,0,0-0.1,0-0.1
						c0,0,0,0,0,0l0-0.1c0,0-0.2,0-0.3-0.1c0-0.2,0-0.3-0.1-0.3c0,0,0,0,0,0c0,0-0.1,0-0.1-0.1c0-0.1-0.1-0.1,0-0.2c0,0,0,0,0,0
						c0,0,0.1,0.1,0.1,0.1c0,0,0,0,0-0.1c0-0.1,0-0.1,0-0.1c0,0,0-0.1,0-0.1c0,0,0,0,0,0c0,0,0,0,0,0c0,0,0,0,0,0c0,0,0-0.1,0-0.1
						c0,0,0,0,0.1,0c0,0,0,0,0,0.1c0,0,0,0,0,0s0,0,0-0.1c0,0,0-0.1,0,0c0,0,0,0.1,0,0.1c0,0,0,0,0,0.1c0,0.1,0,0.1,0,0.2
						c0,0.1,0,0.1,0,0.2c0,0.1,0.1,0.2,0.1,0.2c0.1,0,0.1,0,0.1,0s0.1-0.1,0.1-0.1c0,0,0.1,0,0.2,0c0,0,0.1,0,0.1,0c0,0,0,0-0.1,0
						c-0.1,0-0.1,0-0.1-0.1c0,0,0-0.1,0-0.1c0,0-0.1,0-0.2-0.1c0-0.1,0-0.1,0-0.1c0,0,0-0.1,0.1,0c0,0.1,0,0.1,0.1,0.1
						c0,0,0.1,0,0,0c0,0,0-0.1,0-0.1c0,0,0,0,0.1-0.1c0,0,0.1,0,0.1,0c0,0,0,0,0,0s0,0,0.1,0c0,0,0.1,0,0.1,0c0,0,0.1,0,0.1,0
						c0,0,0.1,0,0.1,0c0,0,0.1,0,0.1,0c0,0,0,0,0,0.1c0,0,0,0,0,0c0,0,0.1,0,0.1,0c0,0,0.1,0,0,0.1c0,0,0,0.1,0,0.1c0,0,0,0,0,0
						c0,0,0,0,0,0c0,0,0,0,0.1,0c0,0,0.1,0.1,0,0.1c0,0-0.1,0.1-0.1,0.1s0,0,0,0c0,0,0.1,0.1,0.1,0.1c0,0,0,0,0,0c0,0,0,0,0,0
						s0,0-0.1,0c0,0-0.1,0-0.1,0c0,0,0,0,0,0c0,0,0,0.1,0,0.1c0,0,0,0.1,0,0.1s0.1,0,0.1,0c0.1,0,0.1,0,0.2,0c0.1,0,0.1,0,0.2,0
						c0.1,0,0.1,0,0.1,0c0,0,0.1,0,0.1,0s0.1,0,0.2,0c0.1,0,0.1-0.1,0.1-0.1c0,0,0-0.1-0.1-0.1c-0.1,0-0.2,0-0.3,0
						c-0.1,0-0.3-0.1-0.3-0.2c0-0.1,0.1-0.2,0.1-0.2c0.1,0,0.2-0.1,0.2-0.1c0.1,0,0.2,0,0.3,0c0.1,0,0.2,0,0.2,0c0,0,0.1,0,0.1,0
						c0,0,0,0.1-0.2,0.2c-0.1,0-0.3,0-0.3,0c-0.1,0-0.1-0.1-0.2,0c0,0-0.1,0.1-0.1,0.1c0.1,0.1,0.3,0.1,0.4,0.1c0.1,0,0.3,0,0.4,0.1
						c0.1,0.1,0,0.3-0.1,0.3c-0.1,0-0.2,0.1-0.2,0.1l-0.1,0c0,0,0,0.1,0,0.1c0,0,0,0.1,0,0.1c0,0,0.1,0,0.1,0c0.1,0,0.1,0,0.1,0.1
						c0,0.1,0,0.1,0,0.2c0,0.1,0,0.2,0,0.2s0,0,0,0.1c0,0-0.1,0.2-0.1,0.2h0.4c0,0,0,0,0-0.1C18.6,10.5,18.5,10.1,18.5,9.6"/>
					<path class="st7" d="M15.4,11.1c0.1,0.2,0.2,0.4,0.5,0.6c0.3,0.2,0.5,0.2,0.8,0.4c0.3,0.2,0.3,0.2,0.3,0.2c0,0,0,0,0.3-0.2
						c0.3-0.2,0.5-0.2,0.8-0.4c0.2-0.1,0.4-0.4,0.5-0.6H15.4z"/>
					<path class="st5" d="M15.7,9.4c0,0,0.1,0,0.1,0c0.1,0,0.1,0,0.1,0.1c0,0,0,0.1,0.1,0.2c0,0.1,0.2,0.1,0.2,0.1c0,0,0-0.1,0-0.2
						c0,0,0-0.1,0-0.1c0,0,0,0-0.1-0.1c0,0-0.1-0.2-0.1-0.2c0-0.1,0-0.2,0-0.2c0,0,0-0.1,0-0.1c0,0,0,0,0,0s0,0,0,0c0,0,0,0,0,0
						c0,0,0,0,0,0c0,0,0,0,0,0c0,0,0,0.1,0,0.1s0,0-0.1,0c0,0-0.1,0-0.1,0c0,0,0,0.1,0.1,0.1c0,0,0,0.1,0,0.1
						C15.8,9.3,15.8,9.3,15.7,9.4C15.7,9.3,15.7,9.3,15.7,9.4C15.7,9.3,15.7,9.3,15.7,9.4"/>
					<path class="st5" d="M15.7,9.3C15.7,9.3,15.7,9.3,15.7,9.3C15.6,9.3,15.6,9.2,15.7,9.3C15.6,9.2,15.6,9.2,15.7,9.3
						C15.6,9.3,15.6,9.3,15.7,9.3L15.7,9.3z"/>
					<path class="st5" d="M15.8,9C15.8,9,15.8,9,15.8,9C15.8,9,15.7,9,15.8,9C15.7,8.9,15.7,9,15.8,9C15.7,9,15.7,9,15.8,9
						C15.7,9,15.7,9,15.8,9"/>
					<path class="st5" d="M15.9,8.9C15.9,9,15.9,9,15.9,8.9C15.9,9,15.9,8.9,15.9,8.9C15.9,8.9,15.9,8.9,15.9,8.9L15.9,8.9
						C15.8,8.9,15.9,8.9,15.9,8.9"/>
					<path class="st5" d="M16,9C16,9,16,8.9,16,9C16,8.9,16,9,16,9C16,9,16,9,16,9C16,9,16,9,16,9"/>
					<path class="st5" d="M16.2,9.9c0,0.1,0.1,0,0.2-0.1c0.1-0.1,0.1,0,0.1,0c0,0.1,0,0.1,0,0.2c0,0,0,0,0.1,0c0,0,0-0.1,0-0.1
						c0,0,0,0,0,0c0,0,0,0.1,0.1,0.1c0,0,0,0,0.1-0.1c0,0,0-0.1,0-0.1c0,0,0,0,0,0s0,0,0.1,0.1c0,0,0,0,0.1-0.1c0,0,0-0.1,0-0.1
						c0,0,0,0,0.1,0c0.1,0,0.1,0,0-0.1c0,0,0-0.1-0.1-0.1c0,0-0.1-0.1,0-0.1c0,0,0.1,0,0.1,0c0,0,0,0,0.1,0c0,0,0,0,0,0s0,0-0.1-0.1
						c0,0-0.1-0.1-0.1-0.1c0,0-0.1,0-0.1,0l0,0c0,0,0,0,0,0c0,0,0,0,0,0c0,0,0,0,0,0c0,0,0,0,0,0s0,0,0-0.1c0,0,0-0.1,0-0.1
						c0,0-0.1,0-0.1,0c0,0,0,0,0,0c0,0,0,0,0.1,0s0.1,0,0.1-0.1c0,0,0,0,0,0c0,0,0,0,0,0c0,0,0,0,0-0.1c0,0,0-0.1,0-0.1
						c0,0-0.1,0-0.1,0c0,0,0,0,0,0.1c0,0,0,0,0,0c0,0,0,0,0-0.1c0,0,0,0,0,0s0,0,0,0c0,0-0.1,0-0.1,0c0,0,0,0.1,0,0.1s0,0-0.1,0
						c0,0-0.1,0-0.1,0c0,0,0,0,0,0c0,0,0,0,0,0s0,0,0,0c0,0,0,0,0,0c0,0,0,0,0,0c0,0,0,0,0,0c0,0,0.1,0,0.1,0c0,0,0.1,0.1,0,0.1
						c0,0-0.1,0-0.1,0s0,0,0,0c0,0,0,0,0,0s0,0,0.1,0c0.1,0,0.1,0,0.1,0.1c0,0,0,0,0,0c0,0,0,0-0.1,0c0,0,0,0-0.1,0c0,0-0.1,0-0.2,0
						c-0.1,0-0.1,0.2-0.1,0.2s0,0,0.1,0c0,0,0.1,0,0.2-0.1c0,0,0,0,0,0.1c0,0,0,0,0,0c0,0,0,0,0.1-0.1c0,0,0,0,0,0s0,0,0,0.1
						c0,0.1,0.1,0,0.1,0c0,0,0,0,0,0.1c0,0.1-0.1,0.1-0.1,0.1c0,0,0,0-0.1,0c0,0,0-0.1,0-0.1c0,0-0.1,0-0.1,0c0,0,0,0-0.1,0
						c0,0,0,0,0,0c0,0,0,0,0,0c0,0,0,0-0.1,0.1c-0.1,0-0.1,0.1-0.1,0.1C16.2,9.9,16.2,9.9,16.2,9.9"/>
					<path class="st5" d="M16.9,8.9C16.9,8.8,16.9,8.8,16.9,8.9C16.9,8.8,16.9,8.8,16.9,8.9C17,8.8,17,8.8,17,8.8
						C17,8.8,17,8.8,16.9,8.9C16.9,8.8,16.9,8.8,16.9,8.9C16.8,8.8,16.8,8.8,16.9,8.9C16.8,8.8,16.8,8.8,16.9,8.9
						C16.8,8.9,16.8,8.9,16.9,8.9"/>
					<path class="st5" d="M17,9C17,9,17,9,17,9C17,9,17.1,9,17,9c0.1,0,0.1,0,0.1-0.1c0,0,0,0-0.1,0C17,8.9,17,8.9,17,9
						C17,8.9,17,8.9,17,9C17,9,17,9,17,9"/>
					<path class="st5" d="M17,9c0,0-0.1,0.1-0.1,0.1c0,0,0,0,0,0s0,0,0,0.1c0,0,0,0.1,0,0.1s0,0,0,0c0,0,0,0,0.1,0c0,0,0,0,0.1,0
						c0,0,0,0,0.1,0c0,0,0-0.1-0.1-0.1C17.1,9.1,17,9,17,9"/>
					<path class="st5" d="M16.4,9.2C16.5,9.2,16.5,9.2,16.4,9.2C16.5,9.1,16.5,9.1,16.4,9.2c-0.1-0.1-0.2-0.1-0.2-0.2
						c0,0,0,0.1,0,0.1C16.3,9.2,16.4,9.2,16.4,9.2"/>
					<path class="st5" d="M16.1,10.9C16.1,10.9,16.1,10.9,16.1,10.9l0.2,0c0,0,0,0,0,0c0,0,0-0.1,0-0.2c0-0.1,0.1-0.2,0.1-0.2
						c0,0,0-0.1,0-0.1c0,0,0-0.1,0-0.1c0,0,0,0-0.1,0c0,0,0,0,0,0.1c0,0,0,0.1,0,0.2c0,0.1-0.1,0.2-0.1,0.2c0,0,0,0-0.1,0
						c0,0-0.1,0-0.1,0c0,0,0,0,0,0.1c0,0,0,0,0,0S16,10.8,16.1,10.9C16,10.8,16,10.8,16.1,10.9C16.1,10.8,16.1,10.8,16.1,10.9
						C16,10.8,16,10.8,16.1,10.9"/>
					<path class="st5" d="M15.8,10.9C15.8,10.9,15.8,10.9,15.8,10.9L15.8,10.9C15.9,10.9,15.9,10.9,15.8,10.9
						C15.9,10.8,15.8,10.8,15.8,10.9"/>
					<path class="st5" d="M16,10.9C15.9,10.9,15.9,10.9,16,10.9L16,10.9C16,10.9,16,10.9,16,10.9C16,10.8,16,10.8,16,10.9"/>
					<path class="st5" d="M17,10.8C16.9,10.8,16.9,10.8,17,10.8C16.9,10.8,16.9,10.9,17,10.8C16.9,10.9,16.9,10.9,17,10.8L17,10.8
						C16.9,10.9,16.9,10.9,17,10.8C16.9,10.9,16.9,10.9,17,10.8C17,10.8,17,10.8,17,10.8"/>
					<path class="st5" d="M17,10.9C17,10.8,17,10.8,17,10.9C17,10.8,17,10.9,17,10.9C17,10.9,17,10.9,17,10.9L17,10.9
						C17,10.9,17,10.9,17,10.9"/>
					<path class="st5" d="M17.5,10.3C17.5,10.3,17.5,10.3,17.5,10.3c0-0.1,0-0.1,0-0.1c0,0-0.1,0-0.1,0c0,0-0.1,0-0.2,0
						c0,0-0.1,0.1-0.1,0.2c0,0,0,0.1,0,0.1c0,0,0,0,0,0s0,0.1,0.1,0.1c0,0,0,0.1,0,0.1c0,0-0.1,0.1-0.1,0.1c0,0-0.1,0-0.1,0
						c0,0-0.1,0-0.1,0c0,0,0,0,0,0c0,0,0,0,0.1,0c0,0,0,0,0,0.1h0.2c0,0,0.1-0.1,0.1-0.1c0,0,0.1-0.1,0.1-0.1c0,0,0,0,0-0.1
						c0,0,0-0.1,0-0.1C17.4,10.5,17.4,10.4,17.5,10.3C17.4,10.4,17.5,10.4,17.5,10.3"/>
					<path class="st5" d="M17.1,9.8C17.2,9.8,17.2,9.8,17.1,9.8c-0.1,0.1-0.1,0.1-0.1,0.1c0,0,0,0,0,0c0,0,0,0.1,0,0.1
						c0,0-0.1,0-0.1,0c0,0,0,0,0,0c0,0,0,0,0,0.1c0,0,0,0-0.1,0c0,0,0,0,0,0c0,0,0,0-0.1-0.1c0,0,0,0-0.1,0c0,0,0,0.1-0.1,0.1
						c0,0-0.1-0.1-0.1-0.1c0,0,0-0.1-0.1-0.1c0,0-0.1,0.1-0.1,0.1c0,0,0,0-0.1,0c0,0,0,0,0,0c0,0,0,0.1,0,0.1c0,0,0.1,0,0.1,0
						c0,0,0,0,0.1,0c0,0,0,0.1,0,0.1c0,0.1,0.1,0.1,0.1,0.1s0,0,0.1,0c0-0.1,0-0.1,0.1-0.1c0,0,0,0,0.1,0.1c0,0,0.1,0.1,0.1,0
						c0,0,0-0.1,0.1-0.1c0,0,0,0,0,0c0,0,0,0.1,0,0.1c0,0,0.2-0.1,0.3-0.1c0,0,0.1,0,0.2,0c0.1,0,0.1,0,0.2,0c0,0,0,0,0,0
						c0,0,0,0-0.1,0s-0.1,0-0.2,0c-0.1,0-0.1,0-0.1,0c0,0,0,0,0.1,0c0.1,0,0.2,0,0.2,0c0.1,0,0,0,0,0.1c0,0,0,0.1,0,0.1
						c0,0,0,0.1,0,0.1c0,0.1,0.2,0.1,0.2,0.1c0,0,0,0,0,0c0,0,0,0,0.1,0c0,0,0.1,0,0.1,0c0,0,0,0,0,0c0,0,0,0.1,0,0.1
						c0,0,0,0.1,0,0.1c0,0-0.1,0.1-0.1,0.1s0,0-0.1,0c-0.1,0-0.1,0-0.1,0.1c0,0,0,0,0,0c0,0,0,0,0,0h0c0,0,0,0,0,0c0,0,0.1,0,0.1,0
						c0,0,0,0,0,0.1h0.1c0,0,0.1-0.1,0.1-0.2c0,0,0-0.1,0-0.1c0,0,0-0.2,0-0.2c0,0,0,0,0-0.1c0-0.1,0-0.1-0.1-0.1
						c-0.1,0-0.1,0-0.2-0.1c0,0,0-0.1-0.1-0.2c0-0.1-0.1-0.1-0.2-0.1c-0.1,0-0.2,0-0.3,0C17.3,9.8,17.2,9.8,17.1,9.8
						C17.1,9.8,17.1,9.8,17.1,9.8"/>
					<path class="st5" d="M17.7,10.9C17.7,10.9,17.7,10.9,17.7,10.9L17.7,10.9C17.8,10.9,17.8,10.9,17.7,10.9
						C17.8,10.8,17.7,10.8,17.7,10.9"/>
					<path class="st5" d="M17.9,10.9C17.9,10.9,17.9,10.9,17.9,10.9L17.9,10.9C17.9,10.9,17.9,10.9,17.9,10.9
						C17.9,10.9,17.9,10.8,17.9,10.9"/>
					<path class="st5" d="M15.4,10.9C15.4,11,15.4,11,15.4,10.9l3.2,0.1c0,0,0-0.1,0-0.1H15.4z"/>
					<path class="st5" d="M17.5,9.4c0.1,0.1,0.4,0.1,0.6,0.1c0.2,0,0.1,0.1,0.1,0.2c0,0.1-0.3,0.1-0.3,0.1c0,0,0,0.1,0,0.1
						s0,0,0.1,0c0.1,0,0.2,0,0.2-0.1c0.1-0.1,0.1-0.2,0-0.2c-0.1-0.1-0.2-0.1-0.3-0.1c-0.1,0-0.2,0-0.3,0c-0.1,0-0.2-0.1-0.2-0.1
						c0-0.1,0.1-0.1,0.1-0.1c0,0,0.1,0,0.2,0c0.1,0,0.2,0,0.3,0c0.1,0,0.2-0.1,0.2-0.1s0,0-0.1,0c-0.1,0-0.1,0-0.2,0
						c-0.1,0-0.2,0-0.2,0.1c-0.1,0-0.2,0-0.3,0.1C17.4,9.3,17.4,9.3,17.5,9.4"/>
					<path class="st3" d="M16.7,8.9C16.7,8.9,16.7,8.9,16.7,8.9c0.1,0.1,0,0.1,0,0.1C16.7,9,16.6,9,16.7,8.9
						C16.6,8.9,16.7,8.9,16.7,8.9"/>
					<path class="st3" d="M18,9c-0.1,0-0.2,0-0.2,0s0,0,0,0C17.9,9.1,17.9,9.1,18,9c0.1,0.1,0.1,0,0.1,0S18,9,18,9"/>
					<path class="st5" d="M20.5,12.6c0.1,0,0.6,0.1,0.6,0.1c0,0,0.1,0,0.1,0c0,0,0,0,0.1,0c0,0,0-0.1,0-0.1s0,0,0-0.1
						c0,0,0-0.1,0.1,0c0.1,0.1,0.1,0.1,0.1,0.2c0,0.1,0.1,0.1,0.2,0.1c0,0,0.1,0,0.1-0.1c0,0,0-0.1,0-0.2c0-0.1,0-0.1-0.1-0.1
						c-0.1,0-0.3-0.1-0.4-0.1c0,0,0,0,0-0.1c0,0,0.1-0.4,0.1-0.4c-0.1,0-0.2-0.1-0.3-0.1c0,0-0.1,0.4-0.1,0.4c0,0.1,0,0.1-0.1,0
						c-0.1,0-0.5-0.1-0.5-0.1l0,0.1C20.4,12.4,20.4,12.5,20.5,12.6C20.4,12.6,20.5,12.6,20.5,12.6"/>
					<path class="st5" d="M21.9,12.9c-0.1,0-0.1,0-0.1,0c0,0.1,0,0.2-0.1,0.2c-0.1,0.1-0.2,0.1-0.3,0.1c-0.1,0-0.2,0-0.1-0.1
						c0-0.1,0.2-0.1,0.2-0.2c0-0.1,0-0.1,0-0.2c0,0-0.1-0.1-0.1,0c0,0-0.1,0.1-0.1,0.1c0,0.1-0.1,0.2-0.1,0.2
						c-0.1,0.1-0.2,0.1-0.4,0.1c-0.1,0-0.2-0.1-0.2-0.2c0-0.1-0.1-0.3-0.1-0.4c0,0-0.1,0-0.1,0c-0.1,0-0.1,0.1-0.1,0.1
						c0,0,0,0.1,0.1,0.2c0.1,0.1,0.1,0.1,0.1,0.2c0,0.1,0.1,0.2,0,0.2c-0.1,0-0.1,0-0.2-0.1c-0.1-0.1-0.3-0.2-0.4-0.3
						c-0.1-0.1-0.1-0.1-0.1-0.1c-0.1,0-0.2-0.1-0.4-0.1c0,0,0.1,0.2,0.1,0.2c0,0.1,0,0.1,0,0.1s0.3,0.1,0.4,0.2
						c0.1,0.1,0.3,0.2,0.4,0.2c0.1,0.1,0.2,0.2,0.4,0.1c0.2,0,0.6-0.1,0.7-0.2c0.1,0,0.4-0.1,0.6-0.2c0.1-0.1,0.1-0.1,0.2-0.2
						C22,13,22,12.9,21.9,12.9"/>
					<path class="st5" d="M21.2,11.6C21.2,11.6,21.2,11.6,21.2,11.6c0.2,0,0.1,0,0.1,0.1c0,0,0,0.1-0.1,0.1c0,0,0,0.1,0,0.1
						c0,0,0,0,0.1,0c0.1,0,0,0,0,0c0,0,0-0.1,0-0.2c0,0,0,0,0,0c0,0,0,0,0.1,0c0,0,0,0,0,0c0,0,0,0,0-0.1c0,0,0,0,0,0
						c0,0-0.1,0-0.1,0c0,0,0,0,0,0s0,0,0.1-0.1c0,0,0,0,0,0c0,0-0.1,0-0.1,0c0,0,0,0,0,0c0,0,0,0.1,0,0.1c0,0,0,0,0,0
						c0,0-0.1,0-0.1,0c0,0,0,0,0,0C21.2,11.5,21.2,11.6,21.2,11.6C21.2,11.6,21.2,11.6,21.2,11.6"/>
					<path class="st5" d="M19.2,12.6c0,0,0.1,0,0.1,0c0.1,0,0.2,0,0.2-0.1c0,0,0.1,0,0.2-0.1c0.1,0,0,0,0-0.1
						c-0.1,0-0.2-0.1-0.2-0.1s-0.1,0-0.1,0.1c0,0-0.1,0.1-0.2,0.1c-0.1,0-0.1,0-0.1,0c0,0,0,0,0.1,0.1c0,0.1,0.1,0.1,0.1,0.2
						c0,0.1,0,0,0,0c0,0-0.1-0.1-0.1-0.1c0,0-0.1-0.1-0.1-0.1l0,0.1v0c0,0,0,0.1,0,0.2c0,0,0,0,0,0.1c0,0,0.1,0.1,0.3,0.2
						c0.2,0.1,0.3,0.2,0.3,0.2s0-0.1,0-0.1c0-0.1,0-0.2,0-0.3C19.3,12.7,19.2,12.7,19.2,12.6"/>
					<path class="st5" d="M18.7,12.4c0,0,0.1,0,0.1,0c0.1,0,0.1,0,0.2,0c0.1,0,0.1,0,0.2-0.1c0.1-0.1,0,0-0.1,0
						c-0.1,0-0.3,0-0.4-0.1c-0.1,0,0,0,0,0c0,0,0,0,0.2,0c0.2,0,0.2,0,0.3,0c0.1,0,0,0,0,0S19,12,18.8,11.9
						c-0.1-0.1-0.2-0.2-0.2-0.3c-0.1,0.1-0.1,0.1-0.2,0.2c0,0,0,0.1,0,0.1c0,0.1,0.1,0.1,0.1,0.1s-0.1,0-0.1-0.1
						c0,0-0.1-0.1-0.1-0.1c-0.1,0.1-0.2,0.1-0.3,0.2c0,0,0,0,0,0c0,0,0.1,0.1,0.1,0.2c0.1,0.1,0,0.1,0,0c0-0.1-0.2-0.2-0.2-0.2
						c0,0,0,0,0,0c0,0,0,0,0,0c-0.1,0-0.1,0.1-0.2,0.1c0,0,0.1,0.1,0.2,0.2c0,0,0.1,0.1,0.1,0.1c0,0,0.1,0.1,0.1,0.1
						c0,0,0.2,0.3,0.3,0.4c0.1,0.1,0,0,0-0.1c0-0.1,0-0.1-0.1-0.2c0-0.1,0,0,0,0c0,0,0,0,0,0.1c0,0.1,0.1,0.2,0.1,0.2c0,0.1,0,0,0,0
						c0,0,0-0.1,0.1-0.1c0,0,0-0.1,0-0.2C18.7,12.5,18.6,12.4,18.7,12.4C18.6,12.4,18.7,12.3,18.7,12.4"/>
					<path class="st5" d="M19.6,12.6c0,0-0.1,0-0.1,0c0,0,0,0,0,0s0.1,0.1,0.1,0.1h0.2C19.8,12.7,19.7,12.7,19.6,12.6
						C19.6,12.6,19.6,12.6,19.6,12.6"/>
					<path class="st5" d="M21.4,12.5C21.4,12.5,21.4,12.6,21.4,12.5c0,0.1,0,0.2,0,0.2c0,0,0.1,0,0.1,0c0,0,0,0,0-0.1
						C21.5,12.6,21.4,12.6,21.4,12.5L21.4,12.5z"/>
					<path class="st5" d="M21.8,12.8C21.8,12.8,21.9,12.8,21.8,12.8C21.9,12.8,21.9,12.8,21.8,12.8C21.9,12.8,21.9,12.8,21.8,12.8
						C21.9,12.7,21.9,12.7,21.8,12.8C21.8,12.8,21.8,12.8,21.8,12.8"/>
					<path class="st5" d="M20.3,12.5C20.3,12.5,20.4,12.5,20.3,12.5C20.4,12.5,20.4,12.5,20.3,12.5c0.1-0.1,0.1-0.2,0.1-0.2
						c0,0,0,0,0,0C20.4,12.4,20.3,12.4,20.3,12.5C20.3,12.5,20.3,12.5,20.3,12.5"/>
					<path class="st3" d="M14.4,10.6c0,0-0.1,0.1-0.1,0.1s0,0,0,0C14.3,10.7,14.3,10.7,14.4,10.6C14.4,10.6,14.4,10.6,14.4,10.6
						C14.5,10.6,14.5,10.6,14.4,10.6C14.5,10.5,14.5,10.6,14.4,10.6"/>
					<path class="st3" d="M14.8,10.8C14.8,10.8,14.7,10.9,14.8,10.8c-0.1,0.1-0.1,0.1-0.1,0.1c0,0,0,0,0,0s0,0,0,0
						C14.7,10.9,14.8,10.9,14.8,10.8C14.9,10.8,14.9,10.8,14.8,10.8C14.9,10.8,14.8,10.8,14.8,10.8"/>
					<path class="st3" d="M13.1,7.8C13.1,7.8,13.2,7.8,13.1,7.8C13.2,7.8,13.2,7.8,13.1,7.8C13.1,7.8,13.1,7.7,13.1,7.8
						c0,0,0-0.1-0.1-0.1C13.1,7.7,13,7.7,13.1,7.8C13.1,7.7,13.1,7.8,13.1,7.8"/>
					<path class="st3" d="M13,8.1C13,8.1,13,8.1,13,8.1c0.1,0.1,0.1,0.1,0.1,0.1C13.1,8.1,13.1,8.1,13,8.1C13,8.1,13,8.1,13,8.1
						C13,8,12.9,8,13,8.1C12.9,8,13,8.1,13,8.1"/>
					<path class="st3" d="M13,8.5C13.1,8.6,13.1,8.6,13,8.5C13.1,8.5,13.1,8.5,13,8.5C13.1,8.5,13,8.5,13,8.5
						C13,8.4,13,8.4,12.9,8.4c0,0,0,0,0,0C12.9,8.4,13,8.5,13,8.5C13,8.5,13,8.5,13,8.5"/>
					<path class="st3" d="M13.1,8.9C13.1,8.9,13.1,8.9,13.1,8.9C13.1,8.9,13,8.9,13.1,8.9c-0.1,0-0.1,0-0.1,0
						C13,8.9,13,8.9,13.1,8.9C13.1,8.9,13.1,8.9,13.1,8.9C13.1,8.9,13.1,8.9,13.1,8.9"/>
					<path class="st3" d="M13.2,9.3c-0.1,0-0.1,0-0.1,0C13.1,9.3,13.1,9.3,13.2,9.3C13.2,9.3,13.2,9.3,13.2,9.3c0.1,0,0.1,0,0.1,0
						C13.3,9.3,13.2,9.3,13.2,9.3"/>
					<path class="st3" d="M13.6,9.7C13.6,9.7,13.6,9.7,13.6,9.7c-0.1,0-0.1,0-0.2,0c0,0-0.1,0-0.1,0s0,0,0,0c0,0,0,0,0.1,0
						C13.5,9.8,13.6,9.8,13.6,9.7C13.6,9.8,13.6,9.7,13.6,9.7"/>
					<path class="st3" d="M13.8,10C13.8,10.1,13.8,10.1,13.8,10c-0.1,0-0.2,0-0.2,0s0,0,0,0c0,0,0,0,0,0
						C13.7,10.1,13.7,10.1,13.8,10C13.8,10.1,13.8,10.1,13.8,10C13.9,10.1,13.9,10,13.8,10C13.9,10,13.9,10,13.8,10"/>
					<path class="st3" d="M14.2,10.3C14.2,10.3,14.1,10.4,14.2,10.3c-0.1,0.1-0.1,0.1-0.1,0.1c0,0,0,0,0,0c0,0,0,0,0,0
						C14.1,10.4,14.1,10.3,14.2,10.3C14.2,10.3,14.2,10.3,14.2,10.3C14.2,10.2,14.2,10.3,14.2,10.3"/>
					<path class="st3" d="M13.6,7.2C13.6,7.2,13.6,7.2,13.6,7.2C13.7,7.4,13.7,7.3,13.6,7.2c0.1,0.1,0-0.1-0.1-0.1c0,0,0,0,0,0
						C13.5,7.1,13.6,7.2,13.6,7.2"/>
					<path class="st3" d="M13.4,7.6C13.5,7.6,13.4,7.6,13.4,7.6c-0.1-0.1-0.2-0.2-0.2-0.2s0,0,0,0c0,0,0,0.1,0.1,0.1
						C13.3,7.5,13.4,7.6,13.4,7.6C13.4,7.6,13.4,7.6,13.4,7.6"/>
					<path class="st3" d="M13.6,8.4c0,0-0.1,0-0.1,0c0,0-0.1,0-0.1,0s-0.1,0-0.1,0c0,0,0,0,0,0C13.4,8.4,13.5,8.4,13.6,8.4
						C13.6,8.4,13.6,8.4,13.6,8.4"/>
					<path class="st3" d="M13.4,8c0,0,0.1,0.1,0.1,0.1c0,0,0,0,0.1,0c0,0,0,0-0.1,0C13.5,8,13.5,8,13.4,8C13.5,8,13.5,8,13.4,8
						C13.4,8,13.4,7.9,13.4,8"/>
					<path class="st3" d="M13.8,7.7C13.8,7.7,13.8,7.7,13.8,7.7C13.8,7.7,13.8,7.6,13.8,7.7C13.7,7.7,13.8,7.7,13.8,7.7
						C13.8,7.7,13.9,7.8,13.8,7.7C13.9,7.8,13.9,7.7,13.8,7.7"/>
					<path class="st3" d="M13.6,8.8C13.6,8.8,13.5,8.8,13.6,8.8C13.5,8.8,13.5,8.8,13.6,8.8C13.6,8.8,13.6,8.8,13.6,8.8
						c0.1,0,0.1,0,0.1,0C13.7,8.7,13.7,8.7,13.6,8.8C13.6,8.7,13.6,8.8,13.6,8.8"/>
					<path class="st3" d="M13.7,9.1C13.6,9.1,13.7,9.1,13.7,9.1c0.1,0,0.1,0,0.2-0.1c0,0,0,0,0,0c0,0,0,0-0.1,0
						C13.7,9.1,13.7,9.1,13.7,9.1C13.7,9.1,13.7,9.1,13.7,9.1"/>
					<path class="st3" d="M14.1,9.4C14.2,9.3,14.2,9.3,14.1,9.4C14.2,9.3,14.1,9.3,14.1,9.4C14.1,9.4,14,9.4,14.1,9.4
						c-0.1,0-0.1,0-0.1,0c0,0,0,0,0,0c0,0,0,0,0.1,0C14,9.4,14.1,9.4,14.1,9.4"/>
					<path class="st3" d="M14.4,9.7C14.4,9.7,14.4,9.6,14.4,9.7C14.5,9.6,14.5,9.6,14.4,9.7C14.4,9.6,14.4,9.6,14.4,9.7
						c0,0-0.1,0-0.1,0s0,0,0,0c0,0,0,0,0,0C14.3,9.7,14.3,9.7,14.4,9.7C14.3,9.7,14.4,9.7,14.4,9.7"/>
					<path class="st3" d="M14.7,10C14.7,9.9,14.8,9.9,14.7,10c0.1-0.1,0.1-0.1,0.1-0.1C14.8,9.8,14.8,9.8,14.7,10
						C14.8,9.9,14.7,10,14.7,10C14.7,10,14.7,10,14.7,10C14.6,10,14.7,10,14.7,10C14.7,10,14.7,10,14.7,10"/>
					<path class="st3" d="M19.7,10.6c0,0-0.1,0-0.1-0.1c0,0-0.1-0.1-0.1-0.1c0,0,0,0,0,0.1C19.5,10.6,19.6,10.6,19.7,10.6
						C19.7,10.7,19.7,10.7,19.7,10.6C19.7,10.6,19.7,10.6,19.7,10.6"/>
					<path class="st3" d="M19.3,10.9C19.3,10.9,19.2,10.9,19.3,10.9c-0.1,0-0.1-0.1-0.1-0.1c0,0,0,0,0,0c0,0,0,0,0,0
						C19.2,10.9,19.3,10.9,19.3,10.9C19.3,11,19.3,10.9,19.3,10.9C19.3,10.9,19.3,10.9,19.3,10.9"/>
					<path class="st3" d="M20.9,7.8C20.9,7.8,20.9,7.7,20.9,7.8c0.1-0.1,0.1-0.1,0.1-0.1C20.9,7.7,20.9,7.7,20.9,7.8
						C20.9,7.7,20.9,7.8,20.9,7.8C20.8,7.8,20.8,7.8,20.9,7.8C20.8,7.8,20.8,7.8,20.9,7.8"/>
					<path class="st3" d="M20.9,8.2C20.9,8.2,20.9,8.1,20.9,8.2C20.9,8.1,21,8.1,21,8.1C21,8.1,21,8,21,8s0,0-0.1,0
						C21,8.1,20.9,8.1,20.9,8.2C20.9,8.1,20.9,8.1,20.9,8.2"/>
					<path class="st3" d="M21.1,8.4C21.1,8.4,21,8.4,21.1,8.4C21,8.4,21,8.4,21.1,8.4c-0.1,0.1-0.2,0.1-0.2,0.1c0,0,0,0,0,0
						c0,0,0.1,0,0.1,0C21,8.5,21,8.5,21.1,8.4C21,8.5,21.1,8.4,21.1,8.4"/>
					<path class="st3" d="M20.9,8.9C20.9,8.9,20.9,8.9,20.9,8.9C20.8,8.9,20.8,8.9,20.9,8.9C20.8,8.9,20.9,8.9,20.9,8.9
						C20.9,8.9,20.9,8.9,20.9,8.9C20.9,8.9,21,8.9,20.9,8.9C21,8.8,20.9,8.9,20.9,8.9"/>
					<path class="st3" d="M20.8,9.3c-0.1,0-0.1,0-0.1,0C20.7,9.3,20.7,9.3,20.8,9.3C20.8,9.3,20.8,9.3,20.8,9.3c0.1,0,0.1,0,0.1,0
						C20.9,9.3,20.9,9.3,20.8,9.3"/>
					<path class="st3" d="M20.6,9.8C20.6,9.8,20.6,9.8,20.6,9.8c-0.1,0-0.2,0-0.2,0c0,0,0,0-0.1,0c0,0,0,0,0,0
						C20.4,9.8,20.5,9.8,20.6,9.8C20.6,9.8,20.7,9.8,20.6,9.8C20.7,9.8,20.6,9.8,20.6,9.8"/>
					<path class="st3" d="M20.3,10.1C20.3,10.1,20.3,10.1,20.3,10.1c-0.1,0-0.1,0-0.2,0c0,0-0.1,0-0.1,0c0,0,0,0,0,0
						c0,0,0.1,0,0.1,0C20.3,10.1,20.3,10.1,20.3,10.1C20.4,10.1,20.4,10.1,20.3,10.1C20.4,10.1,20.3,10.1,20.3,10.1"/>
					<path class="st3" d="M19.9,10.4C19.9,10.4,19.9,10.4,19.9,10.4c0,0-0.1-0.1-0.1-0.1c0,0,0,0,0,0c0,0,0,0,0.1,0.1
						C19.9,10.3,19.9,10.4,19.9,10.4C19.9,10.4,20,10.4,19.9,10.4C20,10.4,20,10.4,19.9,10.4"/>
					<path class="st3" d="M20.3,7.3C20.4,7.2,20.4,7.2,20.3,7.3c0.1-0.1,0.1-0.2,0.1-0.2c0,0,0,0,0,0C20.4,7.2,20.3,7.3,20.3,7.3
						C20.3,7.3,20.3,7.4,20.3,7.3"/>
					<path class="st3" d="M20.7,7.4C20.7,7.4,20.7,7.4,20.7,7.4c0,0-0.1,0.1-0.1,0.2c0,0-0.1,0.1,0,0.1c0,0,0,0,0,0
						c0,0,0.1-0.1,0.1-0.1C20.7,7.5,20.7,7.4,20.7,7.4"/>
					<path class="st3" d="M20.4,8.4C20.4,8.4,20.4,8.4,20.4,8.4c0.1,0,0.2,0,0.2,0c0,0,0.1,0,0,0c0,0-0.1,0-0.1,0s-0.1,0-0.1,0
						C20.4,8.4,20.4,8.4,20.4,8.4"/>
					<path class="st3" d="M20.5,8C20.5,8,20.5,8,20.5,8c0,0-0.1,0-0.1,0.1c0,0-0.1,0-0.1,0C20.4,8.1,20.4,8.1,20.5,8
						C20.5,8,20.5,8,20.5,8C20.6,7.9,20.6,8,20.5,8"/>
					<path class="st3" d="M20.1,7.8C20.1,7.8,20.1,7.7,20.1,7.8c0.1-0.1,0.2-0.1,0.1-0.1c0,0,0,0,0,0S20.2,7.7,20.1,7.8
						C20.1,7.7,20.1,7.8,20.1,7.8"/>
					<path class="st3" d="M20.3,8.8c0,0,0.1,0,0.1,0c0,0,0,0,0,0C20.4,8.8,20.4,8.8,20.3,8.8C20.4,8.8,20.3,8.7,20.3,8.8
						C20.3,8.7,20.3,8.7,20.3,8.8C20.3,8.8,20.3,8.8,20.3,8.8"/>
					<path class="st3" d="M20.3,9.1C20.3,9.1,20.2,9.1,20.3,9.1c-0.1-0.1-0.2-0.1-0.2-0.1c0,0,0,0,0,0C20.2,9.1,20.2,9.1,20.3,9.1
						C20.3,9.1,20.3,9.1,20.3,9.1C20.3,9.1,20.3,9.1,20.3,9.1"/>
					<path class="st3" d="M20,9.4C20,9.4,19.9,9.4,20,9.4c0,0-0.1-0.1-0.1-0.1c0,0,0,0,0,0c0,0,0,0,0,0C19.9,9.4,19.9,9.4,20,9.4
						C20,9.5,20,9.5,20,9.4C20,9.4,20,9.4,20,9.4"/>
					<path class="st3" d="M19.7,9.7C19.7,9.7,19.7,9.7,19.7,9.7c0,0-0.1-0.1-0.2-0.1c0,0,0,0-0.1,0c0,0,0,0,0,0.1c0,0,0.1,0,0.1,0
						C19.6,9.7,19.6,9.7,19.7,9.7C19.7,9.7,19.7,9.7,19.7,9.7C19.8,9.7,19.8,9.7,19.7,9.7"/>
					<path class="st3" d="M19.3,10C19.3,10,19.3,10,19.3,10c0,0-0.1-0.1-0.1-0.1c0,0,0,0-0.1,0c0,0,0,0,0,0.1
						C19.2,9.9,19.2,9.9,19.3,10C19.3,10,19.3,10,19.3,10C19.3,10,19.4,10,19.3,10"/>
					<path class="st5" d="M17,5.9c-0.2,0-0.5,0-0.7-0.1c-0.1,0-0.1,0-0.2,0C16.4,5.9,16.6,6,17,5.9c0.4,0.1,0.6,0,0.8,0
						c-0.1,0-0.1,0-0.2,0C17.5,5.9,17.2,5.9,17,5.9"/>
					<path class="st5" d="M17.8,5.7c0,0-0.1-0.1-0.1-0.1c0,0,0,0,0-0.1c0,0,0.1,0,0.2-0.1c0.1,0,0.1,0,0.1,0s0,0-0.3-0.1
						c-0.2,0-0.7,0-0.7,0s-0.4,0-0.7,0c-0.2,0-0.3,0.1-0.3,0.1s0,0,0.1,0c0.1,0,0.2,0,0.2,0.1c0,0,0,0.1,0,0.1c0,0-0.1,0.1-0.2,0.1
						c0,0,0,0,0,0c0,0,0,0,0.1,0c0.2,0,0.5-0.1,0.7-0.1c0.2,0,0.5,0,0.7,0.1C17.8,5.7,17.8,5.7,17.8,5.7C17.8,5.7,17.8,5.7,17.8,5.7
						"/>
					<polygon class="st5" points="16.1,5.5 16,5.6 16.1,5.6 16.2,5.5 					"/>
					<polygon class="st5" points="17.9,5.5 17.7,5.5 17.9,5.6 18,5.6 					"/>
					<path class="st5" d="M17.6,5.8c-0.2,0-0.3,0-0.6,0c-0.3,0-0.4,0-0.6,0c0.1,0,0.3,0.1,0.6,0.1C17.3,5.9,17.5,5.8,17.6,5.8"/>
					<path class="st6" d="M17.2,10.5C17.2,10.5,17.2,10.5,17.2,10.5C17.2,10.5,17.1,10.4,17.2,10.5c-0.1-0.1-0.1-0.3-0.1-0.3
						s-0.1,0-0.2,0c-0.1,0-0.1,0-0.2,0c0,0-0.1,0-0.1,0c0,0-0.1,0-0.1,0c0,0,0,0-0.1,0.1c0,0-0.1,0.1-0.1,0.1c0,0.1,0,0.1-0.1,0.2
						c0,0.1,0,0.1,0,0.1h0.5c0,0,0,0,0,0c0,0,0,0,0.1-0.1c0,0,0,0,0,0c0,0,0,0,0.1-0.1c0,0,0.1,0,0.1,0c0,0,0.1,0,0.1,0
						C17.2,10.7,17.2,10.6,17.2,10.5C17.3,10.6,17.3,10.5,17.2,10.5C17.3,10.5,17.2,10.5,17.2,10.5"/>
					<path class="st6" d="M18,10.5C18,10.5,18,10.5,18,10.5C18,10.5,17.9,10.5,18,10.5c-0.1-0.1-0.1,0-0.1,0s-0.1,0-0.1,0
						c-0.1,0-0.1-0.1-0.2-0.1c0,0-0.1-0.1-0.1-0.1s0,0,0,0c0,0,0,0.1,0,0.1c0,0,0,0.1,0.1,0.1c0,0,0,0.1-0.1,0.2c0,0,0,0.1,0,0.1
						h0.2c0,0,0,0,0,0c0,0,0.1,0,0.1,0s0,0,0,0c0,0,0,0,0.1-0.1c0.1,0,0.1,0,0.1,0s0,0,0-0.1C18,10.6,18,10.5,18,10.5"/>
					<polygon class="st5" points="16.9,3.6 17.1,3.5 17.1,3.4 17.2,3.5 17.2,3.4 17.1,3.4 17.1,3.2 16.9,3.2 16.9,3.4 16.8,3.4 
						16.8,3.5 16.9,3.4 					"/>
					<path class="st5" d="M17.2,3.7H17V3.6c0,0,0,0,0,0c0,0,0,0,0,0v0.1h-0.2c0,0,0,0,0,0.1c0,0,0,0,0,0H17H17L17.2,3.7
						C17.2,3.8,17.2,3.8,17.2,3.7C17.2,3.8,17.2,3.8,17.2,3.7"/>
					<path class="st6" d="M17,4c0.1,0,0.2-0.1,0.2-0.1h-0.4C16.8,3.9,16.9,4,17,4"/>
					<path class="st6" d="M17.1,3.6L17.1,3.6l0.1,0.1C17.2,3.7,17.1,3.6,17.1,3.6"/>
					<path class="st6" d="M16.9,3.6c0,0-0.1,0.1-0.1,0.1L16.9,3.6L16.9,3.6z"/>
					<path class="st3" d="M17.1,5.4c0,0-0.1-0.1-0.1-0.1s-0.1,0-0.1,0.1c0,0,0,0-0.1,0.1c0,0,0,0,0,0.1c0,0,0.2,0.1,0.2,0.1
						s0.1-0.1,0.2-0.1C17.2,5.5,17.2,5.5,17.1,5.4C17.2,5.4,17.2,5.4,17.1,5.4"/>
					<path class="st3" d="M17.4,5.4c0.1,0,0.1,0.1,0.1,0.1c0,0.1-0.1,0.1-0.1,0.1c-0.1,0-0.1-0.1-0.1-0.1
						C17.3,5.4,17.4,5.4,17.4,5.4"/>
					<path class="st3" d="M16.5,5.4c0.1,0,0.1,0.1,0.1,0.1c0,0.1-0.1,0.1-0.1,0.1c-0.1,0-0.1-0.1-0.1-0.1
						C16.4,5.4,16.5,5.4,16.5,5.4"/>
					<polygon class="st5" points="16.8,5.5 17,5.5 17.1,5.5 17,5.4 					"/>
					<path class="st5" d="M17.4,5.4C17.5,5.4,17.5,5.4,17.4,5.4c0.1,0.1,0,0.2,0,0.2C17.4,5.6,17.4,5.5,17.4,5.4
						C17.4,5.4,17.4,5.4,17.4,5.4"/>
					<path class="st5" d="M16.5,5.4C16.6,5.4,16.6,5.4,16.5,5.4c0.1,0.1,0,0.2,0,0.2C16.5,5.6,16.5,5.5,16.5,5.4
						C16.5,5.4,16.5,5.4,16.5,5.4"/>
					<path class="st5" d="M16.3,5.1C16.3,5.1,16.4,5.1,16.3,5.1C16.4,5.1,16.4,5,16.3,5.1c0-0.1,0-0.1,0-0.1c0,0,0,0,0,0
						S16.2,4.9,16.3,5.1C16.2,5,16.2,5.1,16.3,5.1"/>
					<path class="st5" d="M16.3,5.1C16.4,5.1,16.4,5.1,16.3,5.1C16.4,5.1,16.4,5.2,16.3,5.1C16.3,5.2,16.3,5.1,16.3,5.1
						C16.3,5.1,16.3,5.1,16.3,5.1"/>
					<path class="st5" d="M16.2,5.1C16.2,5.1,16.1,5.1,16.2,5.1C16.1,5.1,16.2,5.1,16.2,5.1C16.2,5.2,16.2,5.2,16.2,5.1
						c0.1,0.1,0.1,0.1,0.1,0C16.3,5.1,16.3,5.1,16.2,5.1C16.2,5.1,16.2,5.1,16.2,5.1"/>
					<path class="st5" d="M16.3,5.3c-0.1,0-0.2-0.1-0.2-0.1c0,0.1-0.1,0.1-0.1,0.1l0,0c0,0,0.1,0,0.1,0C16.1,5.4,16.2,5.4,16.3,5.3
						C16.2,5.3,16.3,5.3,16.3,5.3C16.4,5.3,16.3,5.2,16.3,5.3C16.3,5.2,16.3,5.3,16.3,5.3"/>
					<path class="st5" d="M15.9,5.2c0,0-0.1,0-0.1,0c0,0-0.1,0,0,0C15.8,5.2,15.8,5.2,15.9,5.2C15.9,5.2,15.9,5.2,15.9,5.2
						C16,5.2,16,5.2,15.9,5.2"/>
					<path class="st5" d="M15.7,5C15.6,5,15.6,5,15.7,5C15.6,5,15.6,5.1,15.7,5c-0.1,0.1,0,0.1,0,0.1C15.7,5.2,15.8,5.1,15.7,5
						C15.7,5.1,15.7,5.1,15.7,5"/>
					<path class="st5" d="M15.7,5.2C15.7,5.2,15.7,5.2,15.7,5.2C15.7,5.2,15.7,5.2,15.7,5.2C15.7,5.2,15.7,5.2,15.7,5.2
						C15.7,5.2,15.7,5.2,15.7,5.2"/>
					<path class="st5" d="M15.8,4.9c0-0.1,0-0.2,0.1-0.4c0.1-0.2,0.3-0.2,0.3-0.2s0,0,0.1-0.1c0.1-0.1,0.2-0.1,0.2-0.1
						s-0.1,0-0.2,0.1v0c0,0.1,0,0.1-0.1,0.1c0,0,0,0-0.1,0c0,0-0.2,0.1-0.2,0.1c0,0,0,0,0,0c0,0.1,0,0.1-0.1,0.1c0,0,0,0,0,0
						c0,0,0,0,0,0c0,0.1,0,0.1-0.1,0.2c0,0,0,0,0,0.1c0,0.1,0,0.1-0.1,0.1c0,0,0,0.1,0,0.1c0,0,0,0,0.1,0.1c0.1,0,0.1,0.1,0.1,0.1
						C15.8,5.1,15.8,5,15.8,4.9"/>
					<path class="st5" d="M16.1,4.2C16.1,4.2,16.1,4.2,16.1,4.2C16.1,4.1,16.1,4.1,16.1,4.2C16,4.2,16,4.2,16.1,4.2
						C16.1,4.2,16.1,4.2,16.1,4.2"/>
					<path class="st5" d="M15.8,4.4C15.8,4.4,15.8,4.4,15.8,4.4C15.8,4.4,15.7,4.4,15.8,4.4C15.7,4.4,15.7,4.4,15.8,4.4
						C15.7,4.5,15.8,4.5,15.8,4.4"/>
					<path class="st5" d="M15.6,4.7C15.6,4.7,15.6,4.7,15.6,4.7c0.1,0.1,0,0.1,0,0.1C15.5,4.8,15.5,4.8,15.6,4.7
						C15.5,4.7,15.5,4.7,15.6,4.7"/>
					<path class="st5" d="M16.7,4c0,0-0.1,0-0.2,0.1l0,0c0.1,0,0.1,0,0.1,0.1c0,0,0,0.1-0.1,0.1c-0.1,0-0.1,0-0.1-0.1c0,0,0,0,0,0
						c0,0,0,0-0.1,0c-0.2,0.1-0.2,0.2-0.3,0.3C16,4.6,16,4.8,16,4.9C16.1,5,16.2,5,16.2,5c0,0,0,0,0,0c0,0,0,0,0-0.1
						c0,0,0-0.1,0-0.1s0,0,0,0c0,0,0,0,0.1,0.1c0,0,0.1,0.1,0.1,0.1s0,0,0-0.1c0,0,0-0.1,0-0.2c0-0.1,0-0.2,0.1-0.3
						c0.1-0.1,0.2-0.2,0.3-0.2c0,0,0.1-0.1,0.1-0.1C16.8,4.1,16.8,4.1,16.7,4C16.8,4,16.8,4,16.7,4"/>
					<path class="st5" d="M16.5,4.2C16.6,4.2,16.6,4.1,16.5,4.2C16.6,4.1,16.6,4.1,16.5,4.2C16.5,4.1,16.5,4.1,16.5,4.2
						C16.5,4.1,16.5,4.2,16.5,4.2"/>
					<path class="st5" d="M16.8,5.2c0,0,0.1,0,0.1,0c0,0,0-0.1,0-0.1C16.9,5.1,16.8,5.1,16.8,5.2C16.8,5.1,16.7,5.1,16.8,5.2
						C16.7,5.1,16.8,5.2,16.8,5.2"/>
					<path class="st5" d="M16.9,5.2C16.9,5.2,16.9,5.3,16.9,5.2c-0.1,0-0.2,0-0.2,0c0,0,0-0.1,0-0.1l-0.1,0c0,0,0,0.1,0,0.1
						c0,0-0.1,0-0.1,0c0,0-0.1-0.1-0.1-0.1c0,0,0,0,0,0.1c0,0,0.1,0.1,0.1,0.1L16.9,5.2C16.9,5.3,16.9,5.3,16.9,5.2
						C17,5.2,17,5.2,16.9,5.2C17,5.2,16.9,5.2,16.9,5.2"/>
					<path class="st5" d="M16.4,5.2C16.5,5.2,16.5,5.2,16.4,5.2c0.1,0,0.1,0,0.1,0S16.5,5.1,16.4,5.2C16.5,5.1,16.4,5.1,16.4,5.2
						C16.4,5.1,16.4,5.1,16.4,5.2C16.4,5.1,16.4,5.1,16.4,5.2"/>
					<path class="st5" d="M17.1,5.1C17,5.1,17,5.2,17.1,5.1c0,0.1,0.1,0.1,0.1,0.1c0,0,0.1,0,0.1,0S17.2,5.1,17.1,5.1
						C17.1,5.1,17.1,5.1,17.1,5.1"/>
					<path class="st5" d="M17.5,5.2c0,0-0.1,0-0.1,0c0,0,0-0.1,0-0.1l0,0c0,0,0,0,0,0.1c0,0-0.1,0-0.1,0c0,0-0.1,0-0.1,0
						c0,0,0,0,0,0c0,0,0,0,0,0.1c0,0,0.1,0,0.1,0L17.5,5.2C17.5,5.3,17.5,5.3,17.5,5.2C17.6,5.2,17.6,5.2,17.5,5.2
						C17.6,5.2,17.6,5.2,17.5,5.2"/>
					<path class="st5" d="M17.5,5.1C17.5,5.1,17.4,5.1,17.5,5.1C17.4,5.1,17.4,5.1,17.5,5.1C17.5,5.2,17.5,5.2,17.5,5.1
						C17.6,5.1,17.6,5.1,17.5,5.1C17.6,5.1,17.6,5.1,17.5,5.1C17.5,5.1,17.5,5.1,17.5,5.1"/>
					<path class="st5" d="M17.8,5C17.7,4.9,17.7,4.9,17.8,5C17.7,4.9,17.7,4.9,17.8,5c0,0-0.1,0-0.1,0c0,0,0,0.1,0,0.1
						S17.7,5.1,17.8,5C17.7,5.1,17.8,5,17.8,5"/>
					<path class="st5" d="M17.7,5.1C17.7,5.1,17.6,5.1,17.7,5.1C17.6,5.1,17.6,5.1,17.7,5.1C17.6,5.1,17.6,5.2,17.7,5.1
						C17.6,5.2,17.7,5.1,17.7,5.1"/>
					<path class="st5" d="M17.7,5.2C17.7,5.2,17.8,5.2,17.7,5.2c0.1,0,0.1,0,0.1,0S17.8,5.1,17.7,5.2C17.8,5.1,17.8,5.1,17.7,5.2
						C17.7,5.1,17.7,5.1,17.7,5.2C17.7,5.2,17.7,5.2,17.7,5.2"/>
					<path class="st5" d="M17.9,5.2c0,0-0.1,0.1-0.2,0.1c-0.1,0-0.1-0.1-0.1-0.1s0,0.1,0,0.1c0,0,0.1,0,0.1,0c0,0,0.1,0,0.1,0
						c0.1,0,0.1,0,0.1,0l0,0C18,5.3,17.9,5.3,17.9,5.2"/>
					<path class="st5" d="M18.1,5.1c0,0-0.1,0-0.1,0c0,0,0,0,0,0C18.1,5.2,18.1,5.2,18.1,5.1C18.2,5.2,18.2,5.2,18.1,5.1
						C18.2,5.1,18.2,5.1,18.1,5.1"/>
					<path class="st5" d="M18.3,5C18.3,5.1,18.2,5.1,18.3,5c-0.1,0.1,0,0.1,0,0.1C18.3,5.2,18.4,5.2,18.3,5C18.4,5.1,18.4,5,18.3,5
						C18.4,5,18.3,5,18.3,5"/>
					<path class="st5" d="M18.3,5.2C18.3,5.2,18.3,5.2,18.3,5.2C18.3,5.2,18.3,5.2,18.3,5.2C18.3,5.2,18.2,5.2,18.3,5.2
						C18.2,5.2,18.3,5.2,18.3,5.2"/>
					<path class="st5" d="M18.3,4.8C18.3,4.7,18.3,4.7,18.3,4.8c0-0.1,0-0.2,0-0.2c0,0,0,0,0,0c0,0,0,0,0,0c-0.1,0-0.1,0-0.1-0.1
						c0,0,0,0,0,0c0,0-0.2-0.1-0.2-0.1c0,0,0,0-0.1,0c0,0-0.1,0-0.1-0.1v0c-0.1,0-0.2-0.1-0.2-0.1s0.1,0.1,0.2,0.1
						c0.1,0.1,0.1,0.1,0.1,0.1s0.2,0.1,0.3,0.2c0.1,0.2,0.1,0.3,0.1,0.4c0,0.1,0,0.2,0,0.2c0,0,0.1-0.1,0.1-0.1c0.1,0,0.1,0,0.1-0.1
						C18.4,4.9,18.4,4.9,18.3,4.8C18.4,4.8,18.3,4.8,18.3,4.8"/>
					<path class="st5" d="M17.9,4.2C17.9,4.2,17.9,4.2,17.9,4.2C17.9,4.2,17.9,4.2,17.9,4.2C17.9,4.1,17.9,4.1,17.9,4.2
						C17.8,4.2,17.8,4.2,17.9,4.2"/>
					<path class="st5" d="M18.2,4.4C18.2,4.5,18.3,4.5,18.2,4.4C18.3,4.4,18.3,4.4,18.2,4.4C18.2,4.4,18.2,4.4,18.2,4.4
						C18.2,4.4,18.2,4.4,18.2,4.4"/>
					<path class="st5" d="M18.4,4.7C18.4,4.7,18.5,4.7,18.4,4.7c0.1,0.1,0,0.1,0,0.1C18.4,4.8,18.4,4.8,18.4,4.7
						C18.4,4.7,18.4,4.7,18.4,4.7"/>
					<path class="st5" d="M17.2,4.1C17.2,4.1,17.2,4.2,17.2,4.1c0.1,0.1,0.2,0.2,0.3,0.3c0.1,0.1,0.1,0.2,0.1,0.3c0,0.1,0,0.1,0,0.2
						c0,0,0,0.1,0,0.1s0,0,0.1-0.1c0,0,0,0,0.1-0.1c0,0,0,0,0,0s0,0,0,0.1c0,0,0,0,0,0.1c0,0,0,0,0,0c0,0,0.1,0,0.2-0.1
						c0-0.1,0-0.3-0.1-0.4c-0.1-0.2-0.1-0.2-0.3-0.3c0,0,0,0-0.1,0c0,0,0,0,0,0c0,0,0,0.1-0.1,0.1c-0.1,0-0.1,0-0.1-0.1
						c0,0,0-0.1,0.1-0.1l0,0C17.3,4,17.3,4,17.3,4C17.2,4,17.2,4,17.2,4.1C17.2,4.1,17.2,4.1,17.2,4.1"/>
					<path class="st5" d="M17,4.9C17,4.9,17,4.9,17,4.9C16.9,5,16.9,5,16.9,5c0,0,0,0,0.1,0c0,0,0,0,0.1,0C17,5,17,5,17,4.9
						C17,4.9,17,4.9,17,4.9"/>
					<path class="st5" d="M17,5.1C17,5.1,17,5.1,17,5.1C17,5.1,17,5.2,17,5.1C17,5.2,17,5.1,17,5.1C17,5.1,17,5.1,17,5.1"/>
					<path class="st5" d="M16.9,5C16.9,5,16.9,4.9,16.9,5C17,4.9,17,4.8,17,4.8s0,0,0,0.1c0,0,0.1,0.1,0.1,0.1s0.1,0,0.1-0.2
						c0-0.1,0-0.3,0-0.4c0-0.1,0-0.4,0-0.4c-0.1,0-0.1,0-0.1,0c0,0-0.1,0-0.1,0c0,0,0,0.3,0,0.4c0,0.1-0.1,0.3,0,0.4
						C16.8,5,16.9,5,16.9,5"/>
					<path class="st5" d="M17.4,4.1C17.4,4.1,17.4,4.2,17.4,4.1c0.1,0.1,0.1,0,0.1,0C17.5,4.1,17.5,4.1,17.4,4.1
						C17.4,4.1,17.4,4.1,17.4,4.1"/>
					<path class="st3" d="M16.2,4.6c0.1,0,0.1,0,0.1,0.1c0,0.1,0,0.1-0.1,0.1c-0.1,0-0.1,0-0.1-0.1C16.1,4.6,16.1,4.6,16.2,4.6"/>
					<path class="st3" d="M16.4,4.3c0,0-0.1,0-0.1,0c0,0,0,0.1,0,0.1c0,0,0.1,0,0.1,0C16.4,4.4,16.4,4.3,16.4,4.3"/>
					<path class="st5" d="M16.2,4.6C16.2,4.6,16.3,4.6,16.2,4.6c0.1,0.1,0,0.1,0,0.1C16.2,4.7,16.1,4.7,16.2,4.6
						C16.1,4.6,16.2,4.6,16.2,4.6"/>
					<path class="st5" d="M16.3,4.3C16.3,4.3,16.3,4.3,16.3,4.3C16.3,4.4,16.3,4.4,16.3,4.3C16.4,4.4,16.4,4.3,16.3,4.3"/>
					<path class="st3" d="M17,4.6c0.1,0,0.1,0,0.1,0.1c0,0.1-0.1,0.1-0.1,0.1c-0.1,0-0.1,0-0.1-0.1C16.9,4.6,16.9,4.6,17,4.6"/>
					<path class="st3" d="M17,4.3c0.1,0,0.1,0,0.1,0.1c0,0.1,0,0.1-0.1,0.1c-0.1,0-0.1,0-0.1-0.1C16.9,4.4,16.9,4.3,17,4.3"/>
					<path class="st3" d="M17,4.1c0.1,0,0.1,0,0.1,0.1c0,0.1,0,0.1-0.1,0.1c-0.1,0-0.1,0-0.1-0.1C16.9,4.1,16.9,4.1,17,4.1"/>
					<path class="st3" d="M17.8,4.6c-0.1,0-0.1,0-0.1,0.1c0,0.1,0,0.1,0.1,0.1c0.1,0,0.1,0,0.1-0.1C17.9,4.6,17.8,4.6,17.8,4.6"/>
					<path class="st3" d="M17.7,4.3c0,0-0.1-0.1-0.1,0c0,0-0.1,0.1,0,0.1c0,0,0.1,0.1,0.1,0C17.8,4.4,17.8,4.4,17.7,4.3"/>
					<path class="st5" d="M17.8,4.6C17.8,4.6,17.8,4.6,17.8,4.6c0.1,0.1,0,0.1,0,0.1C17.7,4.7,17.7,4.7,17.8,4.6
						C17.7,4.6,17.7,4.6,17.8,4.6"/>
					<path class="st5" d="M17.6,4.3C17.6,4.3,17.6,4.4,17.6,4.3C17.7,4.4,17.7,4.4,17.6,4.3C17.7,4.3,17.7,4.3,17.6,4.3"/>
					<path class="st5" d="M17,4.6C17,4.6,17.1,4.6,17,4.6c0.1,0.1,0,0.1,0,0.1C17,4.7,16.9,4.7,17,4.6C16.9,4.6,17,4.6,17,4.6"/>
					<path class="st5" d="M17,4.4C17,4.4,17,4.4,17,4.4c0.1,0.1,0,0.1,0,0.1C17,4.5,16.9,4.4,17,4.4C16.9,4.4,17,4.4,17,4.4"/>
					<path class="st5" d="M17,4.1C17,4.1,17,4.1,17,4.1c0.1,0.1,0,0.1,0,0.1C17,4.2,16.9,4.2,17,4.1C16.9,4.1,17,4.1,17,4.1"/>
					<path class="st3" d="M20.6,12.3C20.7,12.3,20.7,12.4,20.6,12.3c0.1,0.1,0.1,0.2,0,0.2C20.6,12.5,20.5,12.5,20.6,12.3
						C20.5,12.4,20.6,12.3,20.6,12.3"/>
					<path class="st3" d="M20.9,12.4C20.9,12.4,21,12.4,20.9,12.4c0.1,0.2,0.1,0.2,0,0.2C20.8,12.6,20.8,12.5,20.9,12.4
						C20.8,12.4,20.8,12.4,20.9,12.4"/>
					<path class="st3" d="M21.7,12.5C21.7,12.5,21.8,12.6,21.7,12.5c0.1,0.2,0.1,0.2,0,0.2C21.6,12.7,21.6,12.7,21.7,12.5
						C21.6,12.6,21.6,12.5,21.7,12.5"/>
					<path class="st3" d="M21.2,12.4C21.2,12.4,21.3,12.5,21.2,12.4c0.1,0.2,0.1,0.2,0,0.2C21.1,12.6,21.1,12.6,21.2,12.4
						C21.1,12.5,21.1,12.4,21.2,12.4"/>
					<path class="st3" d="M21.2,12.2C21.3,12.2,21.3,12.2,21.2,12.2c0.1,0.2,0.1,0.2,0,0.2C21.2,12.4,21.1,12.4,21.2,12.2
						C21.1,12.2,21.2,12.2,21.2,12.2"/>
					<path class="st3" d="M21.3,12C21.4,12,21.4,12,21.3,12c0.1,0.2,0.1,0.2,0,0.2C21.2,12.2,21.2,12.1,21.3,12
						C21.2,12,21.2,12,21.3,12"/>
					<path class="st5" d="M20.6,12.3C20.7,12.3,20.7,12.4,20.6,12.3C20.7,12.4,20.7,12.4,20.6,12.3C20.6,12.4,20.6,12.4,20.6,12.3
						C20.6,12.4,20.6,12.3,20.6,12.3"/>
					<path class="st5" d="M20.9,12.4C20.9,12.4,20.9,12.4,20.9,12.4C20.9,12.5,20.9,12.5,20.9,12.4C20.9,12.5,20.8,12.5,20.9,12.4
						C20.8,12.4,20.9,12.4,20.9,12.4"/>
					<path class="st5" d="M21.7,12.6C21.7,12.6,21.7,12.6,21.7,12.6C21.7,12.7,21.7,12.7,21.7,12.6C21.6,12.7,21.6,12.7,21.7,12.6
						C21.6,12.6,21.6,12.6,21.7,12.6"/>
					<path class="st5" d="M21.2,12.5C21.2,12.5,21.2,12.5,21.2,12.5C21.2,12.6,21.2,12.6,21.2,12.5C21.1,12.6,21.1,12.6,21.2,12.5
						C21.1,12.5,21.1,12.5,21.2,12.5"/>
					<path class="st5" d="M21.2,12.2C21.3,12.2,21.3,12.3,21.2,12.2C21.3,12.3,21.3,12.3,21.2,12.2C21.2,12.3,21.2,12.3,21.2,12.2
						C21.2,12.3,21.2,12.2,21.2,12.2"/>
					<path class="st5" d="M21.3,12C21.3,12,21.4,12,21.3,12C21.4,12.1,21.3,12.1,21.3,12C21.3,12.1,21.3,12.1,21.3,12
						C21.3,12,21.3,12,21.3,12"/>
				</g>
			</g>
		</g>
	</g>
</g>
</svg>
