<?xml version="1.0" encoding="utf-8"?>
<!-- Generator: Adobe Illustrator 21.1.0, SVG Export Plug-In . SVG Version: 6.00 Build 0)  -->
<svg version="1.1" xmlns="http://www.w3.org/2000/svg" xmlns:xlink="http://www.w3.org/1999/xlink" x="0px" y="0px"
	 viewBox="0 0 34 19" style="enable-background:new 0 0 34 19;" xml:space="preserve">
<style type="text/css">
	.st0{clip-path:url(#SVGID_2_);fill:#C9002A;}
	.st1{clip-path:url(#SVGID_2_);fill:#63ACCC;}
	.st2{clip-path:url(#SVGID_2_);}
	.st3{clip-path:url(#SVGID_4_);fill:#F5EB2E;}
	.st4{clip-path:url(#SVGID_4_);fill:#C9002A;}
	.st5{clip-path:url(#SVGID_6_);}
	.st6{clip-path:url(#SVGID_8_);fill:#C9002A;}
	.st7{clip-path:url(#SVGID_8_);fill:#F5EB2E;}
</style>
<g id="Calque_1">
</g>
<g id="_x34_">
	<g id="MONGOLIA_3_">
		<g>
			<g>
				<defs>
					<rect id="SVGID_1_" x="-0.1" y="-0.5" width="34.2" height="20"/>
				</defs>
				<clipPath id="SVGID_2_">
					<use xlink:href="#SVGID_1_"  style="overflow:visible;"/>
				</clipPath>
				<rect x="-0.1" y="-0.5" class="st0" width="34.2" height="20"/>
				<rect x="11.3" y="-0.5" class="st1" width="11.4" height="20"/>
				<g class="st2">
					<defs>
						<rect id="SVGID_3_" x="-0.1" y="-0.5" width="34.2" height="20"/>
					</defs>
					<clipPath id="SVGID_4_">
						<use xlink:href="#SVGID_3_"  style="overflow:visible;"/>
					</clipPath>
					<path class="st3" d="M5.6,5.2c0.9,0,1.6,0.7,1.6,1.6c0,0.9-0.7,1.6-1.6,1.6C4.7,8.4,4,7.7,4,6.8C4,5.9,4.7,5.2,5.6,5.2"/>
					<path class="st4" d="M5.6,4.4c0.9,0,1.7,0.8,1.7,1.7c0,0.9-0.8,1.7-1.7,1.7C4.6,7.8,3.9,7,3.9,6.1C3.9,5.1,4.6,4.4,5.6,4.4"/>
					<path class="st3" d="M5.6,5.2c0.6,0,1.1,0.5,1.1,1.1S6.2,7.5,5.6,7.5C5,7.5,4.4,7,4.4,6.4S5,5.2,5.6,5.2"/>
					<path class="st3" d="M5.6,2.7C5.3,2.8,5.5,3.1,5.5,3.2c0,0.1-0.1,0.2-0.1,0.3c0,0.2,0,0.3,0,0.4c0,0.1,0,0.1,0.1,0.2
						c0,0,0,0,0,0c0,0,0,0,0,0l0,0c0,0,0,0,0,0c0,0,0,0,0,0l0,0c0,0,0,0,0,0l0,0c0,0,0,0,0,0c0,0.1-0.1,0.1-0.1,0.1
						c-0.1,0-0.1-0.1-0.1-0.1v0c0,0,0,0,0,0c0,0,0,0,0,0l0,0v0l0,0c0,0,0,0,0,0l0,0c0,0,0,0,0,0v0l0,0l0,0c0,0,0,0,0,0l0,0
						c0,0,0,0,0,0c0,0,0,0,0,0h0l0,0c0-0.1,0.1-0.1,0.1-0.2c0-0.1-0.1-0.2-0.1-0.2c0,0,0-0.1,0-0.2C5.1,3.4,5,3.5,5,3.6
						c0,0.1,0,0.1,0,0.2C5,3.9,4.9,4,4.9,4.2c0,0.4,0.3,0.7,0.7,0.7c0.4,0,0.7-0.3,0.7-0.7c0-0.3-0.2-0.3-0.2-0.4c0-0.1,0-0.2,0-0.2
						c0-0.1-0.1-0.1-0.1-0.2c0,0.1,0,0.2,0,0.2c0,0-0.1,0.1-0.1,0.2C5.9,3.9,6,3.9,6,4l0,0l0,0l0,0l0,0c0,0,0,0,0,0c0,0,0,0,0,0
						c0,0,0,0,0,0c0,0,0,0,0,0c0,0,0,0,0,0c0,0,0,0,0,0v0l0,0v0C6,4.2,6,4.2,5.9,4.2c-0.1,0-0.1,0-0.1-0.1c0,0,0,0,0,0c0,0,0,0,0,0
						c0,0,0,0,0,0c0,0,0,0,0,0c0,0,0,0,0,0c0,0,0,0,0,0c0,0,0,0,0,0h0c0,0,0,0,0,0c0,0,0,0,0,0c0-0.1,0-0.1,0.1-0.1
						c0-0.1,0.1-0.2,0.1-0.3c0-0.1,0-0.3-0.1-0.5C5.6,3,5.6,2.9,5.5,2.8C5.5,2.8,5.5,2.7,5.6,2.7"/>
					<rect x="2.4" y="8.6" class="st3" width="1.4" height="6.8"/>
					<rect x="7.3" y="8.6" class="st3" width="1.4" height="6.8"/>
					<polyline class="st3" points="4.2,8.6 7,8.6 5.6,9.5 					"/>
					<rect x="4.2" y="9.8" class="st3" width="2.9" height="0.6"/>
					<rect x="4.2" y="13.8" class="st3" width="2.9" height="0.6"/>
					<polyline class="st3" points="4.2,14.6 7,14.6 5.6,15.5 					"/>
					<path class="st3" d="M5.6,10.6c0.8,0,1.4,0.6,1.4,1.4c0,0.8-0.6,1.4-1.4,1.4c-0.8,0-1.4-0.6-1.4-1.4
						C4.2,11.3,4.8,10.6,5.6,10.6"/>
				</g>
				<g class="st2">
					<defs>
						<path id="SVGID_5_" d="M4.2,12.1c0,0.8,0.6,1.4,1.4,1.4v-2.9C4.8,10.6,4.2,11.3,4.2,12.1"/>
					</defs>
					<clipPath id="SVGID_6_">
						<use xlink:href="#SVGID_5_"  style="overflow:visible;"/>
					</clipPath>
					<g class="st5">
						<defs>
							<rect id="SVGID_7_" x="5.6" y="0.9" width="5.7" height="17.1"/>
						</defs>
						<clipPath id="SVGID_8_">
							<use xlink:href="#SVGID_7_"  style="overflow:visible;"/>
						</clipPath>
						<path class="st6" d="M5.6,10.5c0.5,0,0.8,0.4,0.8,0.8c0,0.5-0.4,0.8-0.8,0.8c-0.5,0-0.8-0.4-0.8-0.8
							C4.8,10.9,5.1,10.5,5.6,10.5"/>
						<path class="st7" d="M5.6,10.6c0.4,0,0.7,0.3,0.7,0.7S6,12,5.6,12c-0.4,0-0.7-0.3-0.7-0.7S5.2,10.6,5.6,10.6"/>
						<path class="st6" d="M5.6,11c0.2,0,0.3,0.1,0.3,0.3c0,0.2-0.1,0.3-0.3,0.3c-0.2,0-0.3-0.1-0.3-0.3C5.3,11.2,5.4,11,5.6,11"/>
						<path class="st6" d="M5.6,12c0.5,0,0.8,0.4,0.8,0.8c0,0.5-0.4,0.8-0.8,0.8c-0.5,0-0.8-0.4-0.8-0.8C4.8,12.4,5.1,12,5.6,12"/>
						<path class="st7" d="M5.6,12.1c0.4,0,0.7,0.3,0.7,0.7c0,0.4-0.3,0.7-0.7,0.7c-0.4,0-0.7-0.3-0.7-0.7
							C4.9,12.4,5.2,12.1,5.6,12.1"/>
						<path class="st6" d="M5.6,12.5c0.2,0,0.3,0.1,0.3,0.3c0,0.2-0.1,0.3-0.3,0.3c-0.2,0-0.3-0.1-0.3-0.3
							C5.3,12.7,5.4,12.5,5.6,12.5"/>
					</g>
				</g>
			</g>
		</g>
	</g>
</g>
</svg>
