<?xml version="1.0" encoding="utf-8"?>
<!-- Generator: Adobe Illustrator 21.1.0, SVG Export Plug-In . SVG Version: 6.00 Build 0)  -->
<svg version="1.1" xmlns="http://www.w3.org/2000/svg" xmlns:xlink="http://www.w3.org/1999/xlink" x="0px" y="0px"
	 viewBox="0 0 34 19" style="enable-background:new 0 0 34 19;" xml:space="preserve">
<style type="text/css">
	.st0{clip-path:url(#SVGID_2_);fill:#D80031;}
	.st1{clip-path:url(#SVGID_2_);fill:#FFFFFF;}
	.st2{clip-path:url(#SVGID_2_);fill:#2530A9;}
	.st3{clip-path:url(#SVGID_2_);}
	.st4{clip-path:url(#SVGID_4_);fill:#F5D028;}
</style>
<g id="Calque_1">
</g>
<g id="_x34_">
	<g id="MALAYSIA_3_">
		<g>
			<g>
				<defs>
					<rect id="SVGID_1_" x="-0.2" y="-0.3" width="34.6" height="19.6"/>
				</defs>
				<clipPath id="SVGID_2_">
					<use xlink:href="#SVGID_1_"  style="overflow:visible;"/>
				</clipPath>
				<rect x="-0.2" y="-0.3" class="st0" width="34.6" height="1.4"/>
				<rect x="-0.2" y="1.1" class="st1" width="34.6" height="1.4"/>
				<rect x="-0.2" y="2.5" class="st0" width="34.6" height="1.4"/>
				<rect x="-0.2" y="3.9" class="st1" width="34.6" height="1.4"/>
				<rect x="-0.2" y="5.3" class="st0" width="34.6" height="1.4"/>
				<rect x="-0.2" y="6.7" class="st1" width="34.6" height="1.4"/>
				<rect x="-0.2" y="8.1" class="st0" width="34.6" height="1.4"/>
				<rect x="-0.2" y="9.5" class="st1" width="34.6" height="1.4"/>
				<rect x="-0.2" y="10.9" class="st0" width="34.6" height="1.4"/>
				<rect x="-0.2" y="12.3" class="st1" width="34.6" height="1.4"/>
				<rect x="-0.2" y="13.7" class="st0" width="34.6" height="1.4"/>
				<rect x="-0.2" y="15.1" class="st1" width="34.6" height="1.4"/>
				<rect x="-0.2" y="16.5" class="st0" width="34.6" height="1.4"/>
				<rect x="-0.2" y="17.9" class="st1" width="34.6" height="1.4"/>
				<rect x="-0.2" y="-0.3" class="st2" width="20" height="11.2"/>
				<g class="st3">
					<defs>
						<rect id="SVGID_3_" x="-0.2" y="-0.3" width="34.6" height="19.6"/>
					</defs>
					<clipPath id="SVGID_4_">
						<use xlink:href="#SVGID_3_"  style="overflow:visible;"/>
					</clipPath>
					<path class="st4" d="M5.5,5.3c0-2,1.6-3.7,3.7-3.7c0.7,0,1.4,0.2,1.9,0.5c-0.7-0.7-1.7-1.1-2.8-1.1C5.9,1.1,4.1,3,4.1,5.3
						c0,2.3,1.9,4.2,4.2,4.2c1.1,0,2-0.4,2.8-1.1C10.5,8.8,9.8,9,9.1,9C7.1,9,5.5,7.3,5.5,5.3"/>
					<polygon class="st4" points="13.9,5.3 15.9,4.5 13.7,4.7 15.2,3.1 13.3,4.2 14,2.2 12.8,3.9 12.5,1.8 12.2,3.3 12.2,3.8 
						12.1,3.9 10.9,2.2 11.6,4.2 9.7,3.1 11.2,4.7 9,4.5 11.1,5.3 9,6.1 11.2,5.9 9.7,7.5 11.6,6.4 10.9,8.5 12.1,6.7 12.2,6.8 
						12.2,7.3 12.5,8.8 12.8,6.7 14,8.5 13.3,6.4 15.2,7.5 13.7,5.9 15.9,6.1 					"/>
				</g>
			</g>
		</g>
	</g>
</g>
</svg>
