<?xml version="1.0" encoding="utf-8"?>
<!-- Generator: Adobe Illustrator 21.1.0, SVG Export Plug-In . SVG Version: 6.00 Build 0)  -->
<svg version="1.1" id="Calque_1" xmlns="http://www.w3.org/2000/svg" xmlns:xlink="http://www.w3.org/1999/xlink" x="0px" y="0px"
	 viewBox="0 0 34 19" style="enable-background:new 0 0 34 19;" xml:space="preserve">
<style type="text/css">
	.st0{clip-path:url(#SVGID_2_);fill:#FFFFFF;}
	.st1{clip-path:url(#SVGID_2_);fill:#45681E;}
	.st2{clip-path:url(#SVGID_2_);}
	.st3{clip-path:url(#SVGID_4_);fill:#FFFFFF;}
	.st4{clip-path:url(#SVGID_4_);fill:#45681E;}
</style>
<g id="PAKISTAN_2_">
	<g>
		<g>
			<defs>
				<rect id="SVGID_1_" x="-0.5" y="-0.3" width="34.8" height="19.6"/>
			</defs>
			<clipPath id="SVGID_2_">
				<use xlink:href="#SVGID_1_"  style="overflow:visible;"/>
			</clipPath>
			<rect x="-0.5" y="-0.3" class="st0" width="34.8" height="19.6"/>
			<rect x="8.2" y="-0.3" class="st1" width="26.1" height="19.6"/>
			<g class="st2">
				<defs>
					<rect id="SVGID_3_" x="-0.5" y="-0.3" width="34.8" height="19.6"/>
				</defs>
				<clipPath id="SVGID_4_">
					<use xlink:href="#SVGID_3_"  style="overflow:visible;"/>
				</clipPath>
				<path class="st3" d="M20.7,3.6c3.4,0,6.1,2.6,6.1,5.9c0,3.2-2.7,5.9-6.1,5.9s-6.1-2.6-6.1-5.9C14.6,6.3,17.4,3.6,20.7,3.6"/>
				<path class="st4" d="M18.6,4.1c2.3-2,5.8-1.8,7.9,0.5c2,2.2,1.8,5.6-0.5,7.6c-2.3,2-5.8,1.8-7.9-0.4C16.1,9.5,16.3,6.1,18.6,4.1
					"/>
				<polygon class="st3" points="25.3,5.6 23.4,6.4 23.8,7.3 				"/>
				<polygon class="st3" points="25.3,5.6 24.2,7.3 23.4,6.8 				"/>
				<polygon class="st3" points="25.5,7.9 24.2,6.4 23.4,7.1 				"/>
				<polygon class="st3" points="25.5,7.9 23.5,7.5 23.7,6.5 				"/>
				<polygon class="st3" points="22.9,5.1 23.1,7.1 24.1,7 				"/>
				<polygon class="st3" points="22.9,5.1 24.3,6.6 23.5,7.2 				"/>
				<polygon class="st3" points="23.3,8.8 24.3,7.1 23.5,6.6 				"/>
				<polygon class="st3" points="23.3,8.8 23.1,6.9 24.1,6.8 				"/>
				<polygon class="st3" points="21.7,7.1 23.7,7.5 23.9,6.6 				"/>
				<polygon class="st3" points="21.7,7.1 23.6,6.3 24,7.2 				"/>
			</g>
		</g>
	</g>
</g>
</svg>
