<?xml version="1.0" encoding="utf-8"?>
<!-- Generator: Adobe Illustrator 21.1.0, SVG Export Plug-In . SVG Version: 6.00 Build 0)  -->
<svg version="1.1" id="Calque_1" xmlns="http://www.w3.org/2000/svg" xmlns:xlink="http://www.w3.org/1999/xlink" x="0px" y="0px"
	 viewBox="0 0 34 19" style="enable-background:new 0 0 34 19;" xml:space="preserve">
<style type="text/css">
	.st0{clip-path:url(#SVGID_2_);fill:#2E379F;}
	.st1{clip-path:url(#SVGID_2_);fill:#9F0032;}
	.st2{clip-path:url(#SVGID_2_);fill:#FFFFFF;}
	.st3{clip-path:url(#SVGID_2_);fill:#E8CE43;}
	.st4{clip-path:url(#SVGID_2_);}
	.st5{clip-path:url(#SVGID_4_);fill:#E8CE43;}
</style>
<g id="PHILIPPINES_3_">
	<g>
		<g>
			<defs>
				<rect id="SVGID_1_" x="-0.4" y="-0.3" width="34.7" height="19.6"/>
			</defs>
			<clipPath id="SVGID_2_">
				<use xlink:href="#SVGID_1_"  style="overflow:visible;"/>
			</clipPath>
			<rect x="-0.4" y="-0.3" class="st0" width="34.7" height="9.8"/>
			<rect x="-0.4" y="9.5" class="st1" width="34.7" height="9.8"/>
			<polygon class="st2" points="-0.4,-0.3 -0.4,19.3 17.2,9.5 			"/>
			<polygon class="st3" points="2,17.4 1.2,17 0.5,17.6 0.7,16.7 -0.1,16.3 0.8,16.2 1,15.3 1.4,16.1 2.3,16 1.6,16.6 			"/>
			<path class="st3" d="M4.3,7.7L3.7,6.6l-0.4,0l0.9,1.2L4.3,7.7z M3.8,8.2l-1.4-1L2.4,6.6l0.6,0l1.1,1.4L3.8,8.2z M3.6,8.5L2.5,7.8
				l0-0.4l1.3,0.9L3.6,8.5z"/>
			<path class="st3" d="M6,7.5l0.3-1.2L6.1,6L5.8,7.5L6,7.5z M5.2,7.5L5,5.8l0.4-0.5l0.4,0.4L5.6,7.5L5.2,7.5z M4.9,7.5L4.6,6.3
				L4.8,6l0.3,1.5L4.9,7.5z"/>
			<path class="st3" d="M7.3,8.5l1.1-0.6l0.1-0.4L7.2,8.4L7.3,8.5z M6.8,8l1.1-1.3l0.6,0l0,0.5L7.1,8.3L6.8,8z M6.5,7.8l0.7-1.1
				l0.4,0L6.7,7.9L6.5,7.8z"/>
			<path class="st3" d="M7.5,10l1.3,0.3L9,10.1L7.5,9.9L7.5,10z M7.5,9.3l1.7-0.2l0.5,0.4L9.3,9.9L7.5,9.7L7.5,9.3z M7.5,9l1.3-0.3
				L9,8.9L7.5,9.2L7.5,9z"/>
			<path class="st3" d="M6.5,11.3l0.7,1.1l0.4,0l-0.9-1.2L6.5,11.3z M7,10.8l1.4,1l0.1,0.6l-0.6,0l-1.2-1.4L7,10.8z M7.2,10.5
				l1.1,0.6l0.1,0.4l-1.3-0.8L7.2,10.5z"/>
			<path class="st3" d="M4.9,11.5l-0.3,1.2L4.8,13l0.3-1.5L4.9,11.5z M5.6,11.5l0.2,1.7l-0.4,0.5L5,13.3l0.2-1.7L5.6,11.5z M6,11.5
				l0.3,1.2L6.1,13l-0.3-1.5L6,11.5z"/>
			<path class="st3" d="M3.6,10.5l-1.1,0.6l0,0.4l1.3-0.9L3.6,10.5z M4.1,11L3,12.4l-0.6,0l0-0.5l1.4-1.1L4.1,11z M4.3,11.2
				l-0.7,1.1l-0.4,0l0.9-1.2L4.3,11.2z"/>
			<path class="st3" d="M3.4,9L2.1,8.7L1.8,8.9l1.5,0.3L3.4,9z M3.4,9.7L1.6,9.9L1.2,9.5l0.4-0.4l1.8,0.2L3.4,9.7z M3.4,10l-1.3,0.3
				l-0.3-0.2l1.5-0.3L3.4,10z"/>
			<g class="st4">
				<defs>
					<rect id="SVGID_3_" x="-0.4" y="-0.3" width="34.7" height="19.6"/>
				</defs>
				<clipPath id="SVGID_4_">
					<use xlink:href="#SVGID_3_"  style="overflow:visible;"/>
				</clipPath>
				<path class="st5" d="M5.4,7.4c1.2,0,2.1,0.9,2.1,2.1c0,1.1-1,2.1-2.1,2.1c-1.2,0-2.1-0.9-2.1-2.1C3.3,8.4,4.2,7.4,5.4,7.4"/>
				<polygon class="st5" points="12.8,10.2 13.3,9.5 12.8,8.8 13.6,9.1 14.1,8.4 14.1,9.2 15,9.5 14.1,9.8 14.2,10.6 13.6,9.9 				
					"/>
				<polygon class="st5" points="2,1.4 1.2,1.8 0.5,1.2 0.7,2.1 -0.1,2.5 0.8,2.6 1,3.5 1.4,2.7 2.3,2.8 1.6,2.2 				"/>
			</g>
		</g>
	</g>
</g>
</svg>
