<?xml version="1.0" encoding="utf-8"?>
<!-- Generator: Adobe Illustrator 21.1.0, SVG Export Plug-In . SVG Version: 6.00 Build 0)  -->
<svg version="1.1" id="Calque_1" xmlns="http://www.w3.org/2000/svg" xmlns:xlink="http://www.w3.org/1999/xlink" x="0px" y="0px"
	 viewBox="0 0 34 20" style="enable-background:new 0 0 34 20;" xml:space="preserve">
<style type="text/css">
	.st0{fill:#006C35;}
	.st1{fill:#FFFFFF;}
</style>
<rect x="-0.2" y="-1.4" class="st0" width="34.3" height="22.9"/>
<path class="st1" d="M14.7,4C14.7,4,14.7,4,14.7,4c-0.2,0.1-0.3,0.3-0.3,0.5c0,0.1,0,0.1,0,0.2c0.1,0.1,0.1,0.1,0.2,0
	c0.1,0,0.1-0.1,0.1-0.2c0-0.1-0.1,0.1-0.2-0.1c0-0.1,0.1-0.2,0.2-0.3C14.8,4.1,14.8,4,14.7,4L14.7,4z M16.3,4c0,0-0.1,0-0.1,0.1
	c0,0.1-0.2,0.2-0.1,0.5c0.1,0.2,0.1,0.5,0.1,0.8c-0.1,0.1-0.1,0.1-0.2,0.2c-0.1,0.1-0.2,0.1-0.3,0c-0.1-0.1-0.2-0.1-0.2-0.3
	c0-0.3,0-0.8,0-0.9c-0.1-0.2-0.2-0.1-0.3-0.1c-0.3,0.3-0.4,0.7-0.5,1.1c-0.1,0.3-0.2,0.2-0.2,0.1c-0.1-0.1-0.2-1.2-0.3-1
	c-0.3,0.8,0.2,1.7,0.5,1.6c0.2,0.1,0.4-0.3,0.4-0.8c0.1-0.1,0.1-0.1,0.1-0.1c0,0.6,0,0.7,0.2,0.9c0.3,0.3,0.6,0,0.7,0
	c0,0,0.3-0.3,0.3-0.3C16.3,6,16.4,6,16.5,6c0.1,0.1,0.1,0.2,0.3,0.3c0.1,0.1,0.5,0,0.5-0.1C17.4,6,17.4,6,17.5,5.9
	c0.1-0.1,0.2-0.1,0.2,0c0,0.1-0.1,0.1,0,0.2c0.1,0.1,0.1,0,0.2,0c0.2-0.1,0.3-0.5,0.3-0.5c0-0.1-0.1-0.1-0.1-0.1
	c-0.1,0-0.1,0.1-0.1,0.1c-0.1,0-0.3,0.1-0.3-0.1c-0.1-0.2-0.1-0.4-0.2-0.5c0,0-0.1-0.2,0-0.3c0.1,0,0.2,0,0.2-0.1
	c0.1-0.1-0.1-0.4-0.2-0.5c-0.1-0.1-0.2-0.1-0.4,0c-0.1,0.1-0.1,0.2-0.1,0.3c0,0.1,0,0.2,0.1,0.4c0.1,0.2,0.3,0.4,0.2,0.8
	c0,0-0.1,0.2-0.3,0.1c-0.1,0-0.2,0-0.3-0.5c0-0.4,0-0.9-0.1-1.1C16.4,4.1,16.3,4,16.3,4L16.3,4z M15.8,4.1c0,0-0.1,0.1-0.1,0.2
	c0,0.1-0.1,0.5-0.1,0.5c0,0.1,0.1,0.2,0.2,0c0.1-0.3,0.1-0.4,0.1-0.5C15.9,4.1,15.8,4,15.8,4.1L15.8,4.1z M17.6,4.1
	c0,0-0.1,0-0.1,0.1c0,0.2,0,0.3,0,0.4c0,0.1,0.2,0.2,0.2,0.3c0.3,0.4,0.6,0.9,0.9,1.3c0,0.3,0.1,0.6,0.1,1c0,0.7,0.1,1.6,0,2.3
	c0.1,0,0.3-0.2,0.4-0.5c0-0.4,0-1.3,0-1.6c0-0.1,0-0.2,0-0.4c0.3,0.6,0.7,1.1,1,1.8c0.1-0.1,0.1-0.7,0-0.8c-0.3-0.6-0.6-1.1-0.7-1.3
	c0-0.1-0.2-0.3-0.3-0.5c0-0.4-0.1-0.7-0.1-0.7c-0.1-0.4,0.2,0,0.1-0.2c-0.1-0.4-0.3-0.6-0.5-1c-0.1-0.1-0.1-0.1-0.2,0
	c-0.1,0.2-0.1,0.3-0.1,0.4c0,0-0.1-0.1-0.1-0.2C18,4.3,18,4.3,17.9,4.2C17.8,4.1,17.7,4.1,17.6,4.1L17.6,4.1z M23,4.1
	C23,4.1,23,4.2,23,4.1c-0.1,0.1-0.2,0.2-0.2,0.3c0,0.2,0,0.4,0.1,0.6c0,0,0,0.1,0,0.1c0,0,0,0-0.1-0.1C22.5,4.7,23,5,22.8,4.7
	c-0.2-0.2-0.3-0.3-0.5-0.4c-0.1-0.1-0.1-0.2-0.2,0c0,0.2,0,0.4,0,0.5c0,0.1,0.1,0.2,0.2,0.3c0.3,0.3,0.5,0.6,0.8,1
	c0.1,0.7,0.1,1.4,0.1,2.1c0,0.3-0.1,0.7-0.2,0.7c0,0-0.1,0.1-0.2,0c-0.1,0-0.3-0.4-0.3-0.4c-0.1-0.1-0.2-0.1-0.3,0
	c-0.3,0.3-0.4,0.7-0.6,1.1c0,0.1-0.2,0.1-0.3,0c-0.4-0.5-0.2-1.2-0.2-1c-0.3,0.4-0.2,1-0.1,1.1c0.1,0.2,0.2,0.4,0.4,0.5
	c0.2,0.1,0.3,0.1,0.4,0C22,9.8,22,9.3,22.1,9.2C22.1,9,22.3,9,22.4,9.1c0.1,0.1,0.2,0.2,0.3,0.2c0.2,0.2,0.4,0.2,0.6,0
	c0.1-0.1,0.2-0.2,0.3-0.4c0.1-0.2,0-1.5,0-2.2C23.7,7,23.9,7.1,24,7.3C24,8,24.1,8.6,24.1,9.2c0,0.1,0.4-0.3,0.4-0.6
	c0-0.2,0-0.4,0-0.5c0.2,0.3,0.4,0.7,0.6,1c0.1-0.1,0.1-0.7,0-0.8c-0.2-0.3-0.4-0.7-0.6-1c0-0.3-0.1-0.8-0.1-0.9
	c0-0.2-0.1-0.5-0.1-0.7c0-0.1-0.1-0.4,0-0.4c0-0.1,0.1,0,0.2-0.1c0.1-0.1-0.2-0.8-0.4-1c-0.1-0.1-0.1-0.1-0.3,0.1
	c-0.1,0.1-0.1,0.3,0,0.5c0.1,0.6,0.2,1.1,0.3,1.7c-0.1-0.2-0.3-0.5-0.5-0.7c0,0,0-0.1,0-0.1c0,0,0-0.5,0-0.6c0,0,0-0.1,0-0.1
	c0,0,0.1,0,0.1,0.1c0,0,0.1-0.1,0.1-0.1C23.4,4.7,23.2,4.5,23,4.1C23.1,4.2,23,4.1,23,4.1L23,4.1z M9.1,4.2c-0.1,0-0.2,0-0.1,0.1
	c0,0.1,0.2,0.2,0.2,0.3c0,0.1,0,0.3,0,0.3c0.1,0,0.1-0.2,0.2-0.3C9.3,4.5,9.3,4.2,9.1,4.2C9.1,4.2,9.1,4.2,9.1,4.2L9.1,4.2z M25,4.2
	c0,0,0,0-0.1,0.1c-0.1,0.1-0.1,0.4-0.1,0.6c0.2,1.4,0.4,2.7,0.4,3.9c0,0.1,0,0.2-0.1,0.3c-0.1,0.2-0.3,0.3-0.4,0.4
	c-0.1,0.1-0.4,0.2-0.5,0.3C24,10,24,10.2,24.2,10.2c0.4,0,0.8-0.1,1.2-0.6c0.1-0.1,0.2-0.5,0.2-0.7c0-1.3,0-2.6-0.2-3.5
	c0-0.1-0.1-0.3,0-0.3c0-0.1,0.2,0,0.2-0.1C25.6,5,25.2,4.5,25,4.2C25,4.2,25,4.2,25,4.2L25,4.2z M20.9,4.2
	C20.9,4.2,20.9,4.2,20.9,4.2c-0.2,0.4-0.2,0.7-0.2,0.9c0.3,1.4,0.6,2.8,0.5,4.1c0.1,0,0.3-0.3,0.3-0.6c0-0.4,0-0.7,0-0.9
	c0-0.2-0.3-2.2-0.3-2.4c-0.1-0.3,0.3,0,0.2-0.2c-0.1-0.3-0.4-0.6-0.5-0.8C20.9,4.2,20.9,4.2,20.9,4.2L20.9,4.2z M11.1,4.2
	C11,4.2,11,4.2,11.1,4.2C11,4.3,11,4.4,11,4.4c0,0-0.1,0-0.1-0.1c0,0,0-0.1,0-0.1c0,0,0,0,0,0c0,0,0,0,0,0c0,0,0,0,0,0.1
	c0,0,0,0,0,0c0,0,0,0,0,0c0,0,0,0,0,0c0,0,0-0.1,0-0.1c0,0,0,0,0,0c-0.1,0-0.1,0.1-0.1,0.2c0,0,0,0.2,0.1,0.3
	c0.2,0.1,0.5,0.1,0.5-0.3C11.2,4.4,11.2,4.3,11.1,4.2C11.1,4.2,11.1,4.2,11.1,4.2L11.1,4.2z M13.6,4.2c-0.1,0-0.1,0-0.2,0
	c-0.1,0.1-0.2,0.3-0.1,0.4c0.1,0,0.2,0.1,0.1,0.2c-0.3,0.3-1,0.8-1,0.9c0,0,0,0,0,0c0,0,0,0,0,0c0,0,0,0,0,0c0,0,0,0,0,0
	c0,0,0,0,0,0c0,0,0,0,0,0c0,0,0,0,0,0c0,0,0,0,0,0c0,0,0,0,0,0c0,0,0.5,0,0.5,0c0,0,0,0,0,0c0,0,0,0,0,0c0,0,0,0,0,0
	c0.2-0.1,0.9-0.9,0.9-0.9c0,0-0.1-0.1-0.1-0.1c0,0,0-0.1,0-0.1c0.2-0.1,0.1-0.3,0-0.4C13.7,4.2,13.7,4.2,13.6,4.2L13.6,4.2z
	 M20.2,4.2c0,0,0,0-0.1,0.1C20,4.5,20,4.7,20,4.9c0.2,1.3,0.2,2.4,0.4,3.7c0,0.1,0,0.3-0.1,0.4C20,9.3,19.5,9.7,19,9.8
	c-0.1,0.1,0.1,0.3,0.4,0.3c0.4,0,0.7-0.3,1-0.8c0.1-0.1,0.2-0.4,0.2-0.6c0-1.3-0.1-2.3-0.3-3.2c0-0.1,0-0.2,0-0.2c0,0,0.1,0,0.2-0.1
	C20.6,5.1,20.4,4.5,20.2,4.2C20.2,4.3,20.2,4.2,20.2,4.2L20.2,4.2z M10,4.3c-0.1,0-0.1,0-0.1,0.1c0,0.2,0,0.4,0,0.6
	c0.1,0.3,0.1,0.6,0.2,1c0,0.5-0.3,0.2-0.2,0c0.1-0.3,0-0.8,0-0.9c0-0.1-0.1-0.1-0.2-0.1c-0.1,0-0.3,0.2-0.4,0.6c0,0-0.1,0.2-0.1,0.4
	c0,0.2-0.2,0.4-0.3,0c-0.1-0.3-0.1-1-0.3-0.8c0,0.5-0.1,1.5,0.4,1.6c0.5,0.1,0.2-0.9,0.4-1.1c0-0.1,0.1-0.1,0.1,0v0.8
	c0,0.3,0.2,0.4,0.3,0.4c0.1,0,0.2,0,0.3,0.1c0,0.5,0,1,0.1,1.4c0,0,0.3,0.1,0.3-0.8c0-0.5-0.1-1,0-1.1c0-0.1,0.1-0.1,0.2-0.1
	c0.1,0.1,0.2,0.2,0.4,0.2c0.3-0.1,0.5-0.3,0.5-0.5c0-0.2,0-0.5-0.2-0.7c0,0-0.1-0.2-0.1-0.2c0.1,0.1,0.2,0.1,0.2,0
	c-0.1-0.2-0.1-0.4-0.3-0.5c-0.1-0.1-0.3-0.1-0.4,0.1c0,0.3,0.1,0.6,0.3,0.8c0,0.1,0.1,0.3,0.1,0.4c-0.1,0.1-0.2,0-0.3-0.1
	c0,0-0.3-0.2-0.3-0.2c0.1-0.5,0-0.5,0-0.6c0-0.2-0.1-0.2-0.2-0.4c-0.1-0.1-0.2-0.1-0.2,0c-0.1,0.2-0.1,0.7,0,0.9
	c0.1,0.2,0.2,0.3,0.1,0.3c0,0.1-0.1,0.1-0.2,0c-0.1-0.2-0.1-0.6-0.1-0.8c0-0.2-0.1-0.6-0.2-0.8C10.1,4.3,10,4.2,10,4.3L10,4.3z
	 M11.9,4.3C11.9,4.3,11.8,4.3,11.9,4.3c-0.2,0.1-0.3,0.2-0.3,0.4c0.1,0.8,0.2,1.5,0.4,2.3c0,0.1-0.1,0.2-0.2,0.2
	c-0.2-0.1-0.2-0.4-0.5-0.4c-0.2,0-0.5,0.2-0.5,0.5c0,0.2-0.1,0.4,0,0.5C10.9,8,11.1,8,11.3,7.9c0.1-0.1,0.2-0.2,0.3-0.2c0,0,0,0,0,0
	c0,0,0,0,0,0c0,0.1,0,0.5-0.6,0.8c-0.4,0.2-0.7,0.2-0.9-0.1c-0.1-0.2,0-1-0.2-0.8c-0.8,1.9,1.8,2.2,2,0.1c0-0.1,0.1-0.1,0.1-0.1
	c0,0,0,0,0,0.1c-0.1,1.9-2,2.1-2.3,1.5C9.7,9.1,9.6,8.8,9.6,8.6c0-0.1,0-0.2-0.1-0.2C9.5,8.3,9.4,8.5,9.4,8.7c0,0.2,0,0.3,0,0.5
	c0.1,1.5,2.5,0.9,2.9-0.4c0.2-0.7,0-1.1,0.1-1.2c0,0,0,0,0,0c0,0,0,0,0,0c0,0,0,0,0,0c0,0,0,0,0,0c0.2,0.3,0.6,0,0.7-0.1
	c0,0,0.1-0.1,0.2,0c0.2,0.1,0.5,0.1,0.6-0.2c0-0.2,0.1-0.5,0.1-0.7c-0.1,0-0.2,0.1-0.3,0.1c0,0,0,0,0,0c0,0.1,0,0.1,0,0.2
	c0,0,0,0,0,0c0,0,0,0,0,0c0,0-0.1,0-0.1-0.1c-0.1-0.3-0.3-0.3-0.4,0.1c-0.1,0.1-0.3,0.1-0.3,0c0-0.3-0.1-0.3-0.3-0.2
	c-0.1-0.5-0.1-1.1-0.2-1.6c0.1,0,0.2,0.1,0.3,0C12.3,4.9,12.1,4.3,11.9,4.3C12,4.3,12,4.3,11.9,4.3C12,4.3,12,4.3,11.9,4.3
	C12,4.3,12,4.3,11.9,4.3C11.9,4.3,11.9,4.3,11.9,4.3C11.9,4.3,11.9,4.3,11.9,4.3C11.9,4.3,11.9,4.3,11.9,4.3L11.9,4.3z M19.4,4.3
	c-0.1,0-0.2,0.1-0.2,0.2c0,0.1,0.2,0.3,0.2,0.4c0.1,0.2-0.1,0.4,0,0.4c0.1,0,0.2-0.2,0.2-0.4C19.7,4.7,19.6,4.3,19.4,4.3
	C19.4,4.3,19.4,4.3,19.4,4.3L19.4,4.3z M13.6,4.5c0,0,0.1,0,0.1,0.1c0,0.1,0,0.1,0,0.1c0,0-0.1,0-0.1-0.1
	C13.5,4.5,13.5,4.5,13.6,4.5C13.6,4.5,13.6,4.5,13.6,4.5z M24.4,4.7c-0.1,0-0.2,0.1-0.1,0.2c0,0.1,0.2,0.3,0.2,0.4
	c0,0.1,0,0.4,0,0.4c0.1,0,0.1-0.2,0.2-0.4C24.7,5.3,24.6,4.8,24.4,4.7C24.5,4.7,24.4,4.7,24.4,4.7L24.4,4.7z M18.4,4.9
	c0,0,0,0.1,0,0.1c0,0.1,0,0.2,0.1,0.2c-0.1-0.1-0.1-0.2-0.2-0.2C18.2,4.9,18.3,4.9,18.4,4.9L18.4,4.9z M19.8,5.6
	C19.8,5.6,19.7,5.6,19.8,5.6c-0.1,0.1-0.1,0.2-0.1,0.2c0,0-0.1,0-0.1-0.1c0,0,0-0.1,0-0.1c0,0,0,0,0,0c0,0,0,0,0,0c0,0,0,0,0,0.1
	c0,0,0,0,0,0c0,0,0,0,0,0c0,0,0,0,0,0c0,0,0-0.1,0-0.1c0,0,0,0,0,0c-0.1,0-0.1,0.1-0.1,0.2c0,0,0,0.2,0.1,0.3
	c0.2,0.1,0.5,0.1,0.5-0.3C19.9,5.7,19.9,5.7,19.8,5.6C19.9,5.6,19.8,5.6,19.8,5.6L19.8,5.6z M13.5,5.6C13.5,5.6,13.4,5.6,13.5,5.6
	c-0.3,0.1-0.3,0.4-0.2,0.5c0.1,0.1,0.2,0.1,0.3,0.1c0.2,0,0.3-0.3,0.3-0.3s0-0.1-0.2,0.1c-0.1,0-0.1,0-0.1-0.1
	C13.5,5.9,13.5,5.8,13.5,5.6C13.5,5.7,13.5,5.6,13.5,5.6L13.5,5.6z M22.4,5.7c-0.1,0-0.2,0.1-0.2,0.2c0,0.1,0,0.1,0,0.2
	c0,0,0,0.1-0.1,0c0,0-0.1-0.1-0.1-0.1c-0.1,0-0.2,0-0.2,0c0,0.1-0.1,0.2,0,0.3c0.1,0.2,0.5,0.5,0.6,0.5c0-0.2,0-0.4,0-0.6
	c0-0.1,0-0.1,0.1-0.1c0.1,0,0.1,0.1,0.1,0c0-0.1,0-0.3-0.1-0.4C22.5,5.7,22.5,5.7,22.4,5.7L22.4,5.7z M15,6.3C15,6.3,15,6.3,15,6.3
	C15,6.3,15,6.3,15,6.3c0,0-0.1,0.1-0.1,0.1c-0.1,0.1-0.1,0.2-0.1,0.3c0,0,0.2,0.4,0.3,0.7c0.1,0.3,0.2,0.7,0.1,1
	c-0.2,0.4-0.6,0.8-1,1c-0.2,0.1-0.4,0-0.4,0c0,0,0,0,0,0c-0.1-0.1-0.1-0.2-0.1-0.2c0,0,0,0,0,0c0,0,0,0,0,0c0.3-0.2,0.7-0.4,1-1
	c0.1-0.2,0.1-0.4,0-0.7c0-0.1-0.1-0.2-0.2-0.3c0,0,0,0,0,0c0.1,0,0.2,0.1,0.2,0c0-0.2-0.2-0.4-0.3-0.5c-0.1-0.1-0.2-0.1-0.4,0
	C14,6.6,14,6.9,14.1,7.1c0.1,0.2,0.2,0.2,0.4,0.5c0,0,0,0,0,0c0,0,0,0.2,0,0.3c-0.1,0.2-0.7,0.7-0.8,0.7c0,0,0,0,0,0c0,0,0,0,0,0
	c0,0,0,0,0,0c0,0,0,0,0,0c0,0,0,0,0,0c0,0,0,0,0,0c0,0,0,0,0,0c0,0,0,0,0,0c0,0,0,0,0,0c0,0,0,0,0-0.1c0-0.1,0-0.3,0-0.4
	c0,0,0,0,0,0c0,0,0,0,0,0c0,0,0,0,0,0c0,0,0,0,0,0c-0.2,0.1-0.3,0.6-0.3,0.7c-0.5,0.4-1.2,0.7-1.5,1c-0.2,0.3,1.3-0.3,1.5-0.4
	c0,0,0,0,0,0c0,0,0,0.2,0.1,0.3c0.2,0.2,0.5,0.3,0.8,0.3c0.5-0.2,0.8-0.6,1.1-1C15.4,9,15.5,9,15.5,9c0.2,0.5,0.8,0.8,1.6,0.9
	c0.2-0.2,0.1-0.3,0-0.4c0,0-0.4-0.2-0.5-0.3c0-0.1,0.1-0.3,0.2-0.3c0.5-0.1,1-0.1,1.5-0.3c0-0.2,0.1-0.4,0.2-0.5
	C18.7,8,18.7,8,18.7,8c0,0,0,0,0,0c0,0,0,0,0,0c0,0,0,0,0,0c0,0,0,0,0,0c0,0,0,0,0,0l-0.1,0l-1.6,0c0,0,0,0,0,0c0,0,0,0,0,0
	c0,0,0,0,0,0c0,0,0,0,0,0c0,0,0,0,0,0c0,0,0,0,0,0c0,0,0,0,0,0c0,0,0,0,0,0c0,0,0,0,0,0c0,0,0,0,0,0c0,0,0,0,0,0c0,0,0,0,0,0
	c0,0,0,0,0,0c0,0,0,0,0,0c0,0,0,0,0,0c0,0,0,0,0,0c0,0,0,0,0,0c0,0,0,0,0,0c0,0,0,0,0.1,0c0.4-0.1,1.1-0.2,1.1-0.8
	c0-0.3-0.1-0.6-0.6-0.6C17.2,6.4,17,6.7,17,7c0,0.1,0,0.3-0.1,0.3c-0.6,0.1-1.3,0.4-1.3,0.7c0,0,0,0,0,0c0,0,0,0,0,0c0,0,0,0,0,0
	c0,0,0,0,0,0c0,0,0,0,0,0c0,0,0,0,0,0c0,0,0,0,0,0c0,0,0,0,0,0c0,0,0,0,0,0c0,0,0,0,0,0c0,0-0.1-0.1-0.1-0.2c0-0.5-0.2-1-0.4-1.4
	C15.1,6.3,15.1,6.3,15,6.3C15,6.3,15,6.3,15,6.3C15,6.3,15,6.3,15,6.3C15,6.3,15,6.3,15,6.3C15,6.3,15,6.3,15,6.3
	C15,6.3,15,6.3,15,6.3L15,6.3z M16.6,6.5C16.6,6.5,16.5,6.6,16.6,6.5c-0.1,0.1-0.1,0.2-0.1,0.2c0,0-0.1,0-0.1-0.1c0,0,0-0.1,0-0.1
	c0,0,0,0,0,0c0,0,0,0,0,0c0,0,0,0,0,0.1c0,0,0,0,0,0c0,0,0,0,0,0c0,0,0,0,0,0c0,0,0-0.1,0-0.1c0,0,0,0,0,0C16,6.6,16,6.7,16,6.7
	c0,0,0,0.2,0.1,0.3c0.2,0.1,0.6,0,0.5-0.3C16.7,6.7,16.7,6.6,16.6,6.5C16.7,6.6,16.6,6.5,16.6,6.5L16.6,6.5z M22.9,6.8
	C22.9,6.8,22.9,6.8,22.9,6.8c0,0-0.9,0.6-0.9,0.6c-0.1,0.1,0,0.3,0,0.3c0.1,0,0.9-0.6,0.9-0.6C23,7.1,23,6.8,22.9,6.8L22.9,6.8z
	 M17.4,6.9c0,0,0.1,0,0.1,0c0.1,0,0.1,0.1,0.1,0.1c0,0,0,0,0,0c0,0,0,0,0,0c0,0,0,0,0,0c0,0,0,0,0,0c0,0,0,0,0,0c0,0,0,0,0,0
	c0,0-0.1,0-0.2,0C17.4,7,17.3,7,17.4,6.9C17.4,6.9,17.4,6.9,17.4,6.9C17.4,6.9,17.4,6.9,17.4,6.9C17.4,6.9,17.4,6.9,17.4,6.9
	C17.4,6.9,17.4,6.9,17.4,6.9C17.4,6.9,17.4,6.9,17.4,6.9C17.4,6.9,17.4,6.9,17.4,6.9L17.4,6.9z M9.8,7.1C9.3,7.1,8.7,7.6,8.6,8
	c0.5-0.2,0.9-0.4,1.4-0.7C10,7.2,10.1,7.1,9.8,7.1L9.8,7.1z M11.2,7.3c0,0,0.1,0,0.1,0.1c0,0.1,0,0.1,0,0.1c0,0,0,0,0,0c0,0,0,0,0,0
	c0,0-0.1,0-0.1,0c-0.1,0-0.1,0-0.1-0.1c0-0.1,0-0.1,0.1-0.1c0,0,0,0,0,0C11.1,7.3,11.1,7.3,11.2,7.3C11.2,7.3,11.2,7.3,11.2,7.3
	C11.2,7.3,11.2,7.3,11.2,7.3L11.2,7.3z M22.7,7.4c-0.1,0-0.2,0.1-0.1,0.2c0,0.1,0.1,0.3,0.1,0.5c0,0.1,0,0.4,0,0.4
	c0.1,0,0.2-0.2,0.2-0.4C23,8,22.9,7.5,22.7,7.4C22.8,7.4,22.8,7.4,22.7,7.4L22.7,7.4z M13,7.9c-0.1,0-0.1,0-0.1,0.1
	c0,0.1,0.2,0.2,0.2,0.3c0,0.1,0,0.3,0,0.3c0.1,0,0.1-0.2,0.2-0.3C13.3,8.3,13.2,7.9,13,7.9C13,7.9,13,7.9,13,7.9L13,7.9z M15.9,8.3
	C15.9,8.3,15.9,8.3,15.9,8.3C15.9,8.3,15.9,8.3,15.9,8.3c0.2,0,0.5,0.1,0.7,0.1c0.2,0,0.3,0.2,0.1,0.2c-0.2,0.1-0.3,0.1-0.3,0.4
	c0,0.1,0,0.2,0,0.2c0,0,0,0,0,0c0,0,0,0,0,0c0,0,0,0,0,0c0,0,0,0,0,0l0,0c0,0,0,0,0,0c0,0,0,0,0,0c0,0,0,0,0,0c0,0-0.1,0-0.1-0.1
	c-0.1-0.1-0.4-0.3-0.5-0.7C15.7,8.4,15.8,8.3,15.9,8.3L15.9,8.3z M8.8,8.6C8.7,8.6,8.7,8.6,8.8,8.6C8.4,9.1,8.4,9.7,8.5,9.9
	C8.6,10,8.8,10,8.8,10C9,9.9,9.1,9.6,9.1,9.5C9,9.4,9,9.4,8.9,9.5C8.8,9.7,8.7,9.5,8.7,9.4c0-0.3,0-0.5,0-0.7
	C8.8,8.6,8.8,8.6,8.8,8.6L8.8,8.6z M17.9,9.1C17.9,9.1,17.9,9.1,17.9,9.1c-0.1,0-0.3,0.1-0.3,0.2c0,0,0,0.1,0,0.1c0,0.1,0.1,0,0.1,0
	c0.1,0,0.1,0,0.1,0.1c0,0.1,0,0.2,0,0.2c0,0,0.1,0.1,0.2,0c0.2-0.1,0.3-0.1,0.6-0.2c0.1,0,0.1-0.2,0-0.2c-0.1,0-0.3,0-0.4,0.1
	c-0.1,0-0.1,0-0.1-0.1c0-0.1,0-0.2,0-0.3C18,9.2,18,9.2,17.9,9.1L17.9,9.1z M23.8,9.4c0,0-0.1,0-0.1,0c-0.1,0-0.1,0-0.1,0.1
	c0,0.1,0.1,0.1,0.1,0.1c0,0,0.1,0.1,0,0.2c-0.1,0.1-0.1,0.1-0.2,0.1c0,0,0,0.1,0,0.1c0.2,0,0.5-0.2,0.5-0.2c0.1,0,0-0.1,0-0.1
	c0,0-0.1,0-0.2,0c0,0-0.1,0-0.1-0.1c0,0,0-0.1,0.1-0.1c0-0.1,0-0.1-0.1-0.1C23.8,9.4,23.8,9.4,23.8,9.4L23.8,9.4z M21.3,14.3
	C21.3,14.3,21.3,14.3,21.3,14.3c-0.3,0.1-0.3,0.4-0.1,0.5c-2.9,0-7.3,0-8.2,0c-0.5,0-2.2-0.1-2.2-0.1c0.4,0.5,0.9,0.6,1.6,0.6
	c1.3,0,7.2,0,8.8,0c-0.1,0.2,0,0.6,0.1,0.6c0,0,0,0,0,0c0,0,0,0,0,0c0,0,0,0,0,0c0.1,0,0.2-0.1,0.2-0.1c0.2,0,1.2,0,1.3,0
	c0,0,0,0,0,0c0.1,0.1,0.1,0.2,0.2,0.2c0.2,0,0.4-0.1,0.4-0.5c0,0,0-0.7-0.5-0.7c-0.1,0-0.4,0-0.4,0c-0.4,0-0.6,0-1-0.1
	c0,0,0.1-0.2,0-0.3c0,0-0.1,0-0.1,0c0,0,0,0,0,0c0,0,0,0,0,0c0,0,0,0,0,0c0,0,0,0,0,0c0,0,0,0,0,0c0,0,0,0,0,0
	C21.4,14.4,21.4,14.4,21.3,14.3C21.3,14.3,21.3,14.3,21.3,14.3C21.3,14.3,21.3,14.3,21.3,14.3C21.3,14.3,21.3,14.3,21.3,14.3
	C21.3,14.3,21.3,14.3,21.3,14.3C21.3,14.3,21.3,14.3,21.3,14.3L21.3,14.3z M21.5,15.4C21.5,15.4,21.5,15.4,21.5,15.4
	c0.4,0,0.8,0,1.2,0c0.1,0.1,0,0.2,0,0.2c0,0,0,0,0,0c0,0,0,0,0,0c0,0,0,0,0,0c-0.1,0-0.2,0-0.4,0c0,0,0,0,0,0c0-0.1-0.3-0.1-0.3,0
	c0,0,0,0,0,0c0,0,0,0,0,0c0,0,0,0,0,0c0,0,0,0,0,0c0,0,0,0,0,0c-0.2,0-0.3,0-0.5,0C21.5,15.5,21.5,15.4,21.5,15.4L21.5,15.4z"/>
</svg>
