<?xml version="1.0" encoding="utf-8"?>
<!-- Generator: Adobe Illustrator 21.1.0, SVG Export Plug-In . SVG Version: 6.00 Build 0)  -->
<svg version="1.1" id="Calque_1" xmlns="http://www.w3.org/2000/svg" xmlns:xlink="http://www.w3.org/1999/xlink" x="0px" y="0px"
	 viewBox="0 0 34 20" style="enable-background:new 0 0 34 20;" xml:space="preserve">
<style type="text/css">
	.st0{clip-path:url(#SVGID_2_);fill:#FFFFFF;}
	.st1{clip-path:url(#SVGID_2_);fill:#2E379F;}
	.st2{clip-path:url(#SVGID_2_);fill:#9F0032;}
	.st3{clip-path:url(#SVGID_2_);}
	.st4{clip-path:url(#SVGID_4_);fill:#FFFFFF;}
	.st5{clip-path:url(#SVGID_4_);fill:#9F0032;}
	.st6{clip-path:url(#SVGID_4_);fill:#2E379F;}
</style>
<g id="SLOVAKIA_2_">
	<g>
		<g>
			<defs>
				<rect id="SVGID_1_" x="-0.4" width="34.6" height="20"/>
			</defs>
			<clipPath id="SVGID_2_">
				<use xlink:href="#SVGID_1_"  style="overflow:visible;"/>
			</clipPath>
			<rect x="-0.4" class="st0" width="34.6" height="20"/>
			<rect x="-0.4" y="6.7" class="st1" width="34.6" height="13.3"/>
			<rect x="-0.4" y="13.3" class="st2" width="34.6" height="6.7"/>
			<g class="st3">
				<defs>
					<rect id="SVGID_3_" x="-0.4" width="34.6" height="20"/>
				</defs>
				<clipPath id="SVGID_4_">
					<use xlink:href="#SVGID_3_"  style="overflow:visible;"/>
				</clipPath>
				<path class="st4" d="M4.9,4.7c-0.4,0-0.3,0.5-0.3,0.8c-0.1,1.9-0.3,3.9,0.2,5.8c0.5,1.5,1.6,2.7,2.9,3.5c0.3,0.2,0.7,0.4,1,0.5
					c0.4-0.1,0.7-0.3,1.1-0.5c1.3-0.8,2.4-2,2.9-3.5c0.6-1.9,0.4-3.9,0.2-5.8c0-0.3,0-0.7-0.4-0.7H4.9z"/>
				<path class="st5" d="M8.7,5v10C4,12.8,4.6,9,4.9,5H8.7z M8.7,5v10c4.7-2.2,4.2-5.9,3.9-10H8.7z"/>
				<path class="st4" d="M9.3,7.7c0.5,0,1,0.1,1.5,0.2c-0.1-0.5-0.1-0.7,0-1.2c-0.5,0.1-1,0.2-1.5,0.2H8.2c-0.5,0-1-0.1-1.5-0.2
					c0.1,0.5,0.1,0.7,0,1.2c0.5-0.1,1-0.2,1.5-0.2H9.3z"/>
				<path class="st4" d="M9.7,9.6c0.5,0,1,0.1,1.5,0.2C11,9.3,11,9,11.2,8.5c-0.5,0.1-1,0.2-1.5,0.2H7.7c-0.5,0-1-0.1-1.5-0.2
					c0.1,0.5,0.1,0.7,0,1.2c0.5-0.1,1-0.2,1.5-0.2H9.7z"/>
				<path class="st4" d="M8.1,5.4c0.1,0.5,0.2,1,0.2,1.5V13h0.9V6.8c0-0.5,0.1-1,0.2-1.5C8.9,5.5,8.6,5.5,8.1,5.4"/>
				<path class="st6" d="M6.8,11.5c-0.6,0-1,0.4-1,1c0,0,0,0.1,0,0.1c0.2,0.3,0.4,0.6,0.7,0.8c0.1,0,0.2,0.1,0.3,0.1
					c0.6,0,1-0.4,1-1C7.8,12,7.3,11.5,6.8,11.5"/>
				<path class="st6" d="M8.7,10.9c-0.7,0-1.3,0.6-1.3,1.3c0,0.7,0.6,1.3,1.3,1.3c0.7,0,1.3-0.6,1.3-1.3C10,11.5,9.4,10.9,8.7,10.9"
					/>
				<path class="st6" d="M10.7,11.5c-0.6,0-1,0.4-1,1c0,0.5,0.4,1,1,1c0.1,0,0.2,0,0.3-0.1c0.3-0.3,0.5-0.5,0.7-0.8c0,0,0-0.1,0-0.1
					C11.7,12,11.2,11.5,10.7,11.5"/>
				<path class="st6" d="M5.9,12.8c0.6,0.8,1.5,1.5,2.8,2.2c1.3-0.6,2.2-1.3,2.8-2.2H5.9z"/>
			</g>
		</g>
	</g>
</g>
</svg>
