<?xml version="1.0" encoding="utf-8"?>
<!-- Generator: Adobe Illustrator 21.1.0, SVG Export Plug-In . SVG Version: 6.00 Build 0)  -->
<svg version="1.1" id="Calque_1" xmlns="http://www.w3.org/2000/svg" xmlns:xlink="http://www.w3.org/1999/xlink" x="0px" y="0px"
	 viewBox="0 0 34 20" style="enable-background:new 0 0 34 20;" xml:space="preserve">
<style type="text/css">
	.st0{clip-path:url(#SVGID_2_);fill:#FFFFFF;}
	.st1{clip-path:url(#SVGID_2_);fill:#C70124;}
	.st2{clip-path:url(#SVGID_2_);fill:#4256DC;}
	.st3{clip-path:url(#SVGID_2_);}
	.st4{clip-path:url(#SVGID_4_);fill:#C70124;}
	.st5{clip-path:url(#SVGID_4_);fill:#4256DC;}
	.st6{clip-path:url(#SVGID_4_);fill:#F2E544;}
	.st7{clip-path:url(#SVGID_4_);fill:#FFFFFF;}
</style>
<g id="SLOVENIA_3_">
	<g>
		<g>
			<defs>
				<rect id="SVGID_1_" x="-0.3" y="0.2" width="34.6" height="19.6"/>
			</defs>
			<clipPath id="SVGID_2_">
				<use xlink:href="#SVGID_1_"  style="overflow:visible;"/>
			</clipPath>
			<rect x="-0.3" y="0.2" class="st0" width="34.6" height="19.6"/>
			<rect x="-0.3" y="13.3" class="st1" width="34.6" height="6.5"/>
			<rect x="-0.3" y="6.7" class="st2" width="34.6" height="6.5"/>
			<g class="st3">
				<defs>
					<rect id="SVGID_3_" x="-0.3" y="0.2" width="34.6" height="19.6"/>
				</defs>
				<clipPath id="SVGID_4_">
					<use xlink:href="#SVGID_3_"  style="overflow:visible;"/>
				</clipPath>
				<path class="st4" d="M7.3,4C7.3,4,7.2,4,7.2,4.1l0.2,3c0.1,0.8,0.4,1.6,1,2.1C8.8,9.6,9.3,9.8,9.8,10l0,0c0.5-0.2,1-0.4,1.4-0.8
					c0.6-0.6,0.9-1.3,1-2.1l0.2-3C12.4,4,12.3,4,12.2,4l0,0L12,7c-0.1,0.8-0.4,1.5-0.9,2c-0.4,0.4-0.8,0.6-1.3,0.8l0,0
					C9.3,9.7,8.9,9.4,8.5,9C7.9,8.5,7.6,7.8,7.5,7L7.3,4L7.3,4"/>
				<path class="st5" d="M12.2,4c-0.8-0.3-1.6-0.5-2.5-0.5C8.9,3.5,8.1,3.6,7.3,4l0.2,3c0,0.8,0.4,1.5,0.9,2
					c0.4,0.4,0.8,0.6,1.3,0.8l0,0c0.5-0.2,0.9-0.4,1.3-0.8C11.7,8.5,12,7.8,12,7"/>
				<polyline class="st6" points="9.9,4.9 10.1,4.7 9.9,4.8 9.8,4.6 9.7,4.8 9.5,4.7 9.6,4.9 9.5,5 9.7,5 9.8,5.2 9.9,5 10.1,5 				
					"/>
				<polyline class="st6" points="9.3,4 9.4,3.9 9.2,3.9 9.1,3.7 9,3.9 8.8,3.9 9,4 8.8,4.1 9,4.1 9.1,4.3 9.2,4.1 9.4,4.1 				"/>
				<polyline class="st6" points="10.6,4 10.7,3.9 10.6,3.9 10.5,3.7 10.4,3.9 10.2,3.9 10.3,4 10.2,4.1 10.4,4.1 10.5,4.3 
					10.6,4.1 10.7,4.1 				"/>
				<path class="st7" d="M11.8,7.4l-1-1.3l-0.4,0.5L9.8,5.5L9.2,6.7L8.8,6.2l-1,1.3c0,0.2,0.1,0.3,0.2,0.5C8.1,8,8.3,8.1,8.5,8.1
					c0.1,0,0.2,0,0.3-0.1l0,0c0,0,0.1,0,0.2-0.1c0.2,0,0.3,0,0.5,0.1c0.1,0.1,0.2,0.1,0.3,0.1l0,0c0.1,0,0.2,0,0.3-0.1
					c0.2-0.1,0.3-0.1,0.5-0.1c0.1,0,0.1,0,0.2,0.1l0,0c0.1,0.1,0.2,0.1,0.3,0.1c0.2,0,0.3-0.1,0.5-0.2C11.7,7.8,11.8,7.6,11.8,7.4"
					/>
				<path class="st7" d="M8.1,8.1c0,0.1,0.1,0.2,0.2,0.3l0,0c0.1,0.1,0.3,0.1,0.4,0c0.1,0,0.1,0,0.2-0.1l0,0C8.9,8.3,9,8.3,9.1,8.3
					l0,0c0.1,0,0.2,0,0.3,0.1C9.6,8.5,9.8,8.5,10,8.4c0.1,0,0.1,0,0.2-0.1c0,0,0,0,0,0c0.1-0.1,0.2-0.1,0.3-0.1h0
					c0.1,0,0.2,0,0.3,0.1c0.1,0.1,0.3,0.1,0.5,0.1c0,0,0.1,0,0.1,0c0.1-0.1,0.1-0.2,0.2-0.3l0,0c0,0-0.1,0-0.1,0l0,0
					c-0.1,0-0.1,0-0.2,0.1c-0.2,0-0.3,0-0.5-0.1c-0.1-0.1-0.2-0.1-0.3-0.1h0c-0.1,0-0.2,0-0.3,0.1h0c-0.1,0-0.1,0-0.2,0.1
					c-0.2,0-0.3,0-0.5-0.1C9.4,8.1,9.3,8.1,9.1,8.1l0,0c-0.1,0-0.2,0-0.3,0.1l0,0c-0.1,0-0.1,0-0.2,0.1C8.5,8.3,8.3,8.3,8.1,8.1
					C8.1,8.2,8.1,8.2,8.1,8.1L8.1,8.1"/>
				<path class="st7" d="M11.2,8.6c-0.1,0.1-0.2,0.2-0.2,0.3c-0.3,0.3-0.7,0.6-1.2,0.7l0,0C9.4,9.5,9,9.2,8.6,8.9
					C8.5,8.8,8.4,8.7,8.4,8.6l0,0c0.1,0,0.2,0,0.3,0c0.1,0,0.1,0,0.2-0.1l0,0C8.9,8.5,9,8.5,9.1,8.5l0,0c0.1,0,0.2,0,0.3,0.1
					C9.6,8.6,9.8,8.7,10,8.6c0.1,0,0.1,0,0.2-0.1c0,0,0,0,0,0c0.1-0.1,0.2-0.1,0.3-0.1h0c0.1,0,0.2,0,0.3,0.1
					C10.9,8.6,11.1,8.7,11.2,8.6L11.2,8.6"/>
			</g>
		</g>
	</g>
</g>
</svg>
