<?xml version="1.0" encoding="utf-8"?>
<!-- Generator: Adobe Illustrator 21.1.0, SVG Export Plug-In . SVG Version: 6.00 Build 0)  -->
<svg version="1.1" id="Calque_1" xmlns="http://www.w3.org/2000/svg" xmlns:xlink="http://www.w3.org/1999/xlink" x="0px" y="0px"
	 viewBox="0 0 34 20" style="enable-background:new 0 0 34 20;" xml:space="preserve">
<style type="text/css">
	.st0{fill:#E70013;}
	.st1{fill:#FFFFFF;}
</style>
<g>
	<path class="st0" d="M-1.3-1.4h36.6v22.8H-1.3V-1.4z"/>
	<circle class="st1" cx="17" cy="10" r="5"/>
	<path class="st0" d="M17,6.3c-2.1,0-3.7,1.7-3.7,3.7s1.7,3.7,3.7,3.7c1.2,0,2.3-0.6,3-1.5c-0.5,0.5-1.3,0.8-2,0.8c-1.6,0-3-1.3-3-3
		s1.3-3,3-3c0.7,0,1.5,0.3,2,0.8C19.3,6.8,18.2,6.3,17,6.3z"/>
	<path class="st0" d="M15.8,10l4-1.3l-2.5,3.4V7.9l2.5,3.4L15.8,10z"/>
</g>
</svg>
