<?xml version="1.0" encoding="utf-8"?>
<!-- Generator: Adobe Illustrator 21.1.0, SVG Export Plug-In . SVG Version: 6.00 Build 0)  -->
<svg version="1.1" id="Calque_1" xmlns="http://www.w3.org/2000/svg" xmlns:xlink="http://www.w3.org/1999/xlink" x="0px" y="0px"
	 viewBox="0 0 34 20" style="enable-background:new 0 0 34 20;" xml:space="preserve">
<style type="text/css">
	.st0{clip-path:url(#SVGID_2_);fill:#B1002B;}
	.st1{clip-path:url(#SVGID_2_);}
	.st2{clip-path:url(#SVGID_4_);fill:#FFFFFF;}
	.st3{clip-path:url(#SVGID_4_);fill:#B1002B;}
</style>
<g id="TURKEY_2_">
	<g>
		<g>
			<defs>
				<rect id="SVGID_1_" x="-0.6" y="-0.3" width="35.1" height="20.5"/>
			</defs>
			<clipPath id="SVGID_2_">
				<use xlink:href="#SVGID_1_"  style="overflow:visible;"/>
			</clipPath>
			<rect x="-0.6" y="-0.3" class="st0" width="35.1" height="20.5"/>
			<g class="st1">
				<defs>
					<rect id="SVGID_3_" x="-0.6" y="-0.3" width="35.1" height="20.5"/>
				</defs>
				<clipPath id="SVGID_4_">
					<use xlink:href="#SVGID_3_"  style="overflow:visible;"/>
				</clipPath>
				<path class="st2" d="M9.7,4.9c2.8,0,5.1,2.3,5.1,5.1c0,2.8-2.3,5.1-5.1,5.1c-2.8,0-5.1-2.3-5.1-5.1C4.6,7.2,6.9,4.9,9.7,4.9"/>
				<path class="st3" d="M11,5.9c2.3,0,4.1,1.8,4.1,4.1c0,2.3-1.8,4.1-4.1,4.1c-2.3,0-4.1-1.8-4.1-4.1C6.9,7.7,8.7,5.9,11,5.9"/>
				<polygon class="st2" points="14,10 16.4,10.8 16.8,9.6 				"/>
				<polygon class="st2" points="14,10 16.4,9.2 16.8,10.4 				"/>
				<polygon class="st2" points="15.8,7.6 15.8,10.1 17.1,10.1 				"/>
				<polygon class="st2" points="15.8,7.6 17.3,9.6 16.3,10.4 				"/>
				<polygon class="st2" points="15.8,12.4 17.3,10.4 16.3,9.6 				"/>
				<polygon class="st2" points="15.8,12.4 15.8,9.9 17.1,9.9 				"/>
				<polygon class="st2" points="18.6,8.5 16.2,9.3 16.6,10.5 				"/>
				<polygon class="st2" points="18.6,8.5 17.1,10.6 16.1,9.8 				"/>
				<polygon class="st2" points="18.6,11.5 17.1,9.4 16.1,10.2 				"/>
				<polygon class="st2" points="18.6,11.5 16.2,10.7 16.6,9.5 				"/>
			</g>
		</g>
	</g>
</g>
</svg>
