<?xml version="1.0" encoding="utf-8"?>
<!-- Generator: Adobe Illustrator 21.1.0, SVG Export Plug-In . SVG Version: 6.00 Build 0)  -->
<svg version="1.1" id="Calque_1" xmlns="http://www.w3.org/2000/svg" xmlns:xlink="http://www.w3.org/1999/xlink" x="0px" y="0px"
	 viewBox="0 0 34 20" style="enable-background:new 0 0 34 20;" xml:space="preserve">
<style type="text/css">
	.st0{clip-path:url(#SVGID_2_);fill:#479A4D;}
	.st1{clip-path:url(#SVGID_2_);fill:#4A94CE;}
	.st2{clip-path:url(#SVGID_2_);fill:#E9C126;}
	.st3{clip-path:url(#SVGID_2_);}
</style>
<g id="TANZANIA_2_">
	<g>
		<g>
			<defs>
				<rect id="SVGID_1_" x="0.2" y="0.1" width="33.6" height="19.6"/>
			</defs>
			<clipPath id="SVGID_2_">
				<use xlink:href="#SVGID_1_"  style="overflow:visible;"/>
			</clipPath>
			<polygon class="st0" points="0.2,0.1 0.2,15 25.8,0.1 			"/>
			<polygon class="st1" points="8.2,19.7 33.8,19.7 33.8,4.8 			"/>
			<polygon class="st2" points="33.8,0.1 33.8,0.1 33.8,0.1 			"/>
			<polygon class="st2" points="0.2,19.7 0.2,19.7 0.2,19.7 			"/>
			<polygon class="st2" points="25.8,0.1 0.2,15 0.2,16.5 28.4,0.1 			"/>
			<polygon class="st2" points="0.2,19.7 0.2,19.7 0.2,19.7 0.2,19.7 			"/>
			<polygon class="st2" points="33.8,0.1 33.8,0.1 33.8,0.1 			"/>
			<polygon class="st2" points="5.7,19.7 8.2,19.7 33.8,4.8 33.8,3.3 			"/>
			<polygon class="st3" points="28.4,0.1 0.2,16.5 0.2,19.7 0.2,19.7 0.2,19.7 5.7,19.7 33.8,3.3 33.8,0.1 33.8,0.1 33.8,0.1 			"/>
		</g>
	</g>
</g>
</svg>
