<?xml version="1.0" encoding="utf-8"?>
<!-- Generator: Adobe Illustrator 21.1.0, SVG Export Plug-In . SVG Version: 6.00 Build 0)  -->
<svg version="1.1" id="Calque_1" xmlns="http://www.w3.org/2000/svg" xmlns:xlink="http://www.w3.org/1999/xlink" x="0px" y="0px"
	 viewBox="0 0 34 20" style="enable-background:new 0 0 34 20;" xml:space="preserve">
<style type="text/css">
	.st0{clip-path:url(#SVGID_2_);}
	.st1{clip-path:url(#SVGID_2_);fill:#F7E830;}
	.st2{clip-path:url(#SVGID_2_);fill:#C53828;}
	.st3{clip-path:url(#SVGID_4_);fill:#FEFCFD;}
	.st4{clip-path:url(#SVGID_4_);}
	.st5{clip-path:url(#SVGID_4_);fill:#C43128;}
	.st6{clip-path:url(#SVGID_4_);fill:#F7E830;}
	.st7{clip-path:url(#SVGID_4_);fill:#9BA49A;}
	.st8{fill:#9BA49A;}
	.st9{clip-path:url(#SVGID_4_);fill:#FFFFFF;}
	.st10{fill:#FFFFFF;}
</style>
<g id="UGANDA_3_">
	<g>
		<g>
			<defs>
				<rect id="SVGID_1_" x="0.3" y="0.3" width="33.6" height="19.6"/>
			</defs>
			<clipPath id="SVGID_2_">
				<use xlink:href="#SVGID_1_"  style="overflow:visible;"/>
			</clipPath>
			<rect x="0.3" y="0.3" class="st0" width="33.6" height="19.6"/>
			<rect x="0.3" y="3.6" class="st1" width="33.6" height="3.3"/>
			<rect x="0.3" y="6.8" class="st2" width="33.6" height="3.3"/>
			<rect x="0.3" y="13.4" class="st1" width="33.6" height="3.3"/>
			<rect x="0.3" y="16.6" class="st2" width="33.6" height="3.3"/>
			<g class="st0">
				<defs>
					<rect id="SVGID_3_" x="0.3" y="0.3" width="33.6" height="19.6"/>
				</defs>
				<clipPath id="SVGID_4_">
					<use xlink:href="#SVGID_3_"  style="overflow:visible;"/>
				</clipPath>
				<path class="st3" d="M20.1,10.1c0,1.7-1.4,3.1-3.1,3.1c-1.7,0-3-1.4-3-3.1c0-1.7,1.4-3,3-3C18.7,7,20.1,8.4,20.1,10.1L20.1,10.1
					z"/>
				<g class="st4">
					<path d="M17,13.1c-1.7,0-3.1-1.4-3.1-3.1C14,8.4,15.4,7,17,7c1.7,0,3.1,1.4,3.1,3.1C20.1,11.8,18.7,13.1,17,13.1L17,13.1z
						 M17,7.1c-1.7,0-3,1.4-3,3s1.4,3,3,3c1.7,0,3-1.4,3-3S18.7,7.1,17,7.1L17,7.1z"/>
				</g>
				<path class="st5" d="M16.5,7.8l-0.2-0.4c0.1-0.1,0.2-0.1,0.4-0.1c0,0,0,0.4,0,0.4L16.5,7.8z"/>
				<g class="st4">
					<path d="M16.5,7.8l-0.2-0.4c0.1-0.1,0.2-0.2,0.4-0.2c0,0,0,0.4,0,0.4L16.5,7.8L16.5,7.8z M16.7,7.3c-0.2,0-0.3,0.1-0.4,0.1
						l0.2,0.3l0.2-0.1C16.7,7.6,16.7,7.3,16.7,7.3L16.7,7.3z"/>
				</g>
				<path class="st6" d="M16.7,7.7l0-0.4c0,0,0.4,0,0.6,0.2c0,0-0.2,0.3-0.2,0.3L16.7,7.7z"/>
				<g class="st4">
					<path d="M17.1,7.8l-0.5-0.2l0-0.4h0c0.1,0,0.4,0,0.6,0.2C17.4,7.5,17.4,7.5,17.1,7.8L17.1,7.8L17.1,7.8z M16.8,7.3l0,0.4
						l0.4,0.1c0-0.1,0.2-0.3,0.2-0.3C17.2,7.3,16.8,7.3,16.8,7.3L16.8,7.3z"/>
				</g>
				<path class="st5" d="M17.1,7.8l0.2-0.3c0.1,0.1,0.2,0.2,0.2,0.4c0,0-0.3,0.1-0.3,0.1C17.2,8,17.1,7.8,17.1,7.8L17.1,7.8z"/>
				<g class="st4">
					<path d="M17.2,8L17.2,8c0,0-0.1-0.2-0.1-0.2l0.2-0.3c0.2,0.1,0.2,0.2,0.2,0.4C17.6,7.9,17.2,8,17.2,8L17.2,8z M17.2,7.8
						c0,0,0.1,0.1,0.1,0.1c0.1,0,0.3-0.1,0.3-0.1c0-0.1-0.1-0.2-0.2-0.4L17.2,7.8L17.2,7.8z"/>
				</g>
				<path class="st4" d="M16.6,13c0,0,0.4-0.4,1.1-0.3c-0.1-0.2-0.5-0.2-0.5-0.2s-0.1-0.8,0-0.9c0.1,0,0.5,0,0.5,0
					c0,0,0.1-0.1,0.1-0.2c-0.1-0.1-0.3-0.4-0.2-0.5c0.1-0.1,0.5,0,0.5,0l-1.2-1.6c0,0-0.1-0.6,0.1-0.9C17.3,8.2,17.3,8,17.2,8
					c0-0.3-0.5-0.5-0.7-0.2c-0.2,0.2-0.1,0.4-0.1,0.4S16,8.2,16,8.3c0,0.1,0.5,0,0.5,0l-0.1,0.3c0,0-1,0.9-0.2,1.7c0,0,0,0,0,0
					s0.3,0.3,0.5,0.4C17,11,17,10.9,17,10.9s0.1,0.4,0,0.5c-0.1,0-0.7,0-0.8,0c-0.1,0-0.4,0-0.4,0.6c0.1-0.2,0.1-0.3,0.1-0.3
					s0,0.2,0.1,0.3c0-0.2,0.1-0.4,0.1-0.4s0,0.2,0.1,0.3c0.1,0,0.1-0.4,0.3-0.3c0.3,0,0.5,0,0.5,0s0.1,0.8,0.1,0.9
					c-0.2-0.1-0.7,0-0.7,0.1c0.3,0,0.4,0,0.4,0S16.5,12.8,16.6,13L16.6,13z"/>
				<g class="st4">
					<path d="M16.6,13L16.6,13c-0.1-0.1,0.1-0.3,0.1-0.4c0,0-0.1,0-0.2,0c0,0-0.1,0-0.2,0c0-0.2,0.5-0.2,0.7-0.2c0,0,0-0.5-0.1-0.9
						c0,0-0.2,0-0.5,0l0,0c-0.2,0-0.2,0.2-0.3,0.3c0,0.1,0,0.1-0.1,0.1c-0.1,0-0.1-0.2-0.1-0.3c0,0.1-0.1,0.2,0,0.3
						c-0.1-0.1-0.1-0.3-0.1-0.3L15.8,12c-0.1-0.5,0.2-0.6,0.3-0.6c0,0,0,0,0,0c0,0,0.2,0,0.3,0c0.2,0,0.5,0,0.5,0c0-0.1,0-0.3,0-0.5
						l0,0c0,0-0.1,0-0.2-0.2c-0.3-0.1-0.5-0.4-0.5-0.4l0,0c0,0,0.3,0.3,0.5,0.4c0.2,0.2,0.2,0.2,0.2,0.2c0,0.1,0.1,0.4,0,0.5
						c-0.1,0-0.8,0-0.8,0c0,0,0,0,0,0c-0.1,0-0.4,0.1-0.3,0.6l0.1-0.3c0,0,0,0.2,0.1,0.3c0-0.2,0.1-0.4,0.1-0.4
						c0,0.1,0.1,0.2,0.1,0.3c0,0,0,0,0-0.1c0-0.1,0.1-0.3,0.3-0.3c0.3,0,0.5,0,0.5,0c0,0.1,0.1,0.8,0.1,0.9c-0.1,0-0.1,0-0.2,0
						c-0.2,0-0.5,0.1-0.6,0.1c0,0,0.1,0,0.1,0c0.2,0,0.3,0,0.3,0C16.7,12.7,16.6,12.8,16.6,13c0.1-0.1,0.5-0.5,1.1-0.4
						c-0.1-0.1-0.4-0.1-0.4-0.1l0,0c0-0.2-0.1-0.9,0-0.9c0.1,0,0.5,0,0.5,0c0,0,0,0,0.1-0.1c0,0,0-0.1,0-0.1c0-0.1-0.2-0.3-0.2-0.4
						c0,0,0,0,0-0.1c0.1-0.1,0.5,0,0.5,0l-1.2-1.5c0,0-0.1-0.6,0.1-0.9C17.2,8.3,17.2,8,17.2,8c0-0.3-0.5-0.4-0.7-0.2
						c-0.2,0.2-0.1,0.3-0.1,0.3C16.2,8.2,16,8.3,16,8.3l0,0c0,0,0,0,0.1,0c0.1,0,0.4,0,0.4,0l0,0.4c0,0-0.5,0.5-0.5,1
						c0,0.2,0.1,0.5,0.3,0.7l0,0c0,0,0,0,0,0c-0.2-0.2-0.3-0.4-0.3-0.7c0-0.5,0.5-1,0.5-1l0-0.3c0,0-0.2,0.1-0.4,0.1
						c-0.1,0-0.1,0-0.1,0c0-0.1,0.4-0.2,0.5-0.2c0,0-0.1-0.2,0.1-0.4c0.3-0.2,0.7-0.1,0.8,0.2c0,0,0,0.3-0.3,0.5
						c-0.2,0.3-0.1,0.9-0.1,0.9l1.2,1.6c0,0-0.3,0-0.4,0c-0.1,0-0.1,0-0.1,0c0,0.1,0.1,0.4,0.2,0.4c0,0,0,0.1,0,0.2
						c0,0-0.1,0.1-0.1,0.1c0,0-0.2,0-0.3,0c-0.1,0-0.1,0-0.1,0c0,0,0,0.5,0,0.9c0.1,0,0.4,0,0.5,0.1c-0.1,0-0.2,0-0.2,0
						C16.9,12.6,16.6,13,16.6,13L16.6,13L16.6,13z"/>
				</g>
				<path class="st7" d="M16.7,8.5c0,0-0.7,0.8-0.4,1.4c0-0.1,0-0.1,0-0.1c0,0,0.1,0.1,0.1,0.1c0,0,0-0.1,0-0.1c0,0,0.1,0,0.1,0
					c0,0,0-0.1-0.1-0.1c0,0,0.1,0,0.1,0c0,0,0-0.1,0-0.1c0,0,0.1,0,0.1,0C16.4,9.1,16.6,8.8,16.7,8.5L16.7,8.5z"/>
				<g class="st4">
					<path class="st8" d="M16.3,10L16.3,10c-0.3-0.7,0.4-1.5,0.4-1.5c0,0.1,0,0.1,0,0.2c-0.1,0.3-0.2,0.5,0,0.8c0,0-0.1,0-0.1,0
						c0,0,0,0.1,0.1,0.1l-0.2,0l0.1,0.1l-0.1,0c0,0,0,0,0,0c0,0,0,0.1,0,0.1c0,0-0.1,0-0.1,0C16.3,9.8,16.3,9.9,16.3,10L16.3,10
						L16.3,10z M16.7,8.5c-0.1,0.1-0.6,0.8-0.4,1.3c0,0,0,0,0-0.1l0,0c0,0,0.1,0.1,0.1,0.1c0,0,0-0.1-0.1-0.1l0,0l0.1,0l-0.1-0.1
						l0.2,0c-0.1-0.1-0.1-0.1-0.1-0.1c0,0,0.1,0,0.1,0c-0.2-0.3-0.1-0.5,0-0.8C16.7,8.6,16.7,8.6,16.7,8.5L16.7,8.5z"/>
				</g>
				<path class="st7" d="M17,7.8c0,0,0,0.3-0.1,0.4c0,0-0.1,0.1-0.1,0.1c0,0.1,0.1,0.1,0.1,0C17,8.3,17.2,8,17,7.8L17,7.8z"/>
				<g class="st4">
					<path class="st8" d="M16.8,8.4C16.8,8.4,16.8,8.3,16.8,8.4c-0.1-0.1,0-0.2,0-0.2C17,8.1,17,7.8,17,7.8c0.1,0,0.2,0.1,0.1,0.3
						C17.1,8.2,17,8.3,16.8,8.4C16.8,8.4,16.8,8.4,16.8,8.4L16.8,8.4z M17,7.8c0,0,0,0.3-0.1,0.3c-0.1,0-0.1,0.1-0.1,0.1
						c0,0,0,0,0,0l0,0c0,0,0,0,0,0c0.1,0,0.2-0.1,0.2-0.2C17.1,8,17.1,7.9,17,7.8L17,7.8z"/>
				</g>
				<path class="st9" d="M16.7,8.1C16.7,8.1,16.7,8.1,16.7,8.1c-0.1,0.1-0.1,0-0.1,0C16.6,8,16.6,8,16.7,8.1C16.7,8,16.7,8,16.7,8.1
					L16.7,8.1z"/>
				<path class="st5" d="M16.5,8.3c0,0-0.2,0.2,0,0.3c0.2-0.1,0.1-0.1,0.2-0.1C16.6,8.4,16.5,8.4,16.5,8.3L16.5,8.3z"/>
				<g class="st4">
					<path d="M16.4,8.6L16.4,8.6c-0.1,0-0.1-0.1-0.1-0.1c0-0.1,0.1-0.2,0.1-0.2c0,0,0.1,0,0.1,0c0,0,0.1,0.1,0.1,0.1l0,0
						C16.6,8.6,16.6,8.6,16.4,8.6L16.4,8.6L16.4,8.6z M16.5,8.3c0,0-0.1,0.1-0.1,0.2c0,0,0,0.1,0.1,0.1c0.1,0,0.1-0.1,0.2-0.1
						c0,0,0,0,0,0C16.6,8.4,16.6,8.4,16.5,8.3C16.5,8.3,16.5,8.3,16.5,8.3L16.5,8.3z"/>
				</g>
				<path class="st7" d="M16.9,10.3c0,0-0.1,0.2,0,0.3c0.2-0.1,0.3-0.1,0.3,0C17.1,10.5,17,10.4,16.9,10.3L16.9,10.3z"/>
				<g class="st4">
					<path class="st8" d="M16.9,10.6L16.9,10.6c-0.1-0.1,0-0.3,0-0.4c0,0,0,0,0,0C16.9,10.3,16.9,10.5,16.9,10.6
						c0.1-0.1,0.2-0.1,0.3-0.1c-0.1-0.1-0.2-0.1-0.3-0.3c0.2,0.1,0.2,0.2,0.3,0.3c-0.1,0-0.1,0-0.1,0C17.1,10.6,17,10.6,16.9,10.6
						L16.9,10.6L16.9,10.6z"/>
				</g>
				<path class="st9" d="M17.2,11l0,0.4c0,0,0.1,0,0.2,0C17.5,11.4,17.4,11.2,17.2,11L17.2,11z"/>
				<g class="st4">
					<path class="st10" d="M17.3,11.5c-0.1,0-0.1,0-0.1,0l0-0.4c0.2,0.1,0.3,0.3,0.3,0.4C17.5,11.4,17.4,11.4,17.3,11.5
						C17.4,11.5,17.4,11.5,17.3,11.5L17.3,11.5z M17.3,11.4c0,0,0.1,0,0.2,0c0-0.1-0.1-0.3-0.2-0.4L17.3,11.4
						C17.2,11.4,17.2,11.4,17.3,11.4L17.3,11.4z"/>
				</g>
				<path class="st7" d="M18.2,11.1c0,0-0.2-0.6-0.9-0.8c-0.6-0.1-0.6-0.8-0.5-0.9c0-0.1,0-0.1,0.2-0.1c0.2,0.1,1,0.5,1.1,0.5
					C18.3,10,18.2,11.1,18.2,11.1L18.2,11.1z"/>
				<g class="st4">
					<path d="M18.2,11.1L18.2,11.1c0,0-0.3-0.6-0.9-0.8c-0.4-0.1-0.5-0.3-0.5-0.5c0-0.2,0-0.4,0-0.4c0-0.1,0.1-0.1,0.2-0.1l0.2,0.1
						c0.3,0.2,0.8,0.4,0.9,0.4c0.1,0,0.1,0.7,0,1C18.2,11.1,18.2,11.1,18.2,11.1L18.2,11.1z M16.9,9.4C16.9,9.4,16.8,9.4,16.9,9.4
						c-0.1,0.1-0.1,0.3-0.1,0.5c0,0.2,0.2,0.4,0.5,0.5c0.5,0.1,0.8,0.6,0.9,0.7c0-0.2,0.1-1,0-1.1c-0.1,0-0.5-0.2-1-0.4L17,9.4
						C17,9.4,16.9,9.4,16.9,9.4L16.9,9.4z"/>
				</g>
				<path class="st5" d="M17.6,10.3c0,0,0.9,0.5,0.6,0.9c0.2-0.2,0.2-0.4,0.2-0.4s0.2,0.5-0.3,0.8c0.1,0,0.1,0,0.1,0l-0.1,0.1
					c0,0,0,0.1,0.3-0.1c-0.1,0.1-0.1,0.1-0.1,0.1s0,0.1,0.2-0.1c-0.2,0.2-0.2,0.3-0.2,0.3c0.5,0,1.5-1.6-0.3-2C18.1,10,18,10,18,10
					L17.6,10.3z"/>
				<g class="st4">
					<path d="M18.3,11.9L18.3,11.9L18.3,11.9L18.3,11.9c0-0.1,0.1-0.1,0.1-0.2c0,0-0.1,0.1-0.1,0.1h0l0,0c0,0,0-0.1,0.1-0.1
						c-0.1,0.1-0.2,0.1-0.3,0.1l0,0l0.1-0.1c0,0,0,0-0.1,0c0.3-0.2,0.3-0.4,0.3-0.6c0,0.1-0.1,0.2-0.2,0.3c0.1-0.2,0.1-0.5-0.6-0.9
						c0,0,0,0,0,0L18,10l-0.1-0.1c1,0.2,1.1,0.7,1.1,1C19,11.5,18.5,11.9,18.3,11.9L18.3,11.9L18.3,11.9z M18.5,11.6
						c-0.1,0.1-0.1,0.2-0.2,0.3c0.2-0.1,0.6-0.5,0.7-0.9c0-0.5-0.3-0.9-1-1c0.1,0.1,0.1,0.1,0.1,0.1l-0.4,0.3c0,0,0,0,0,0
						c0.5,0.4,0.7,0.7,0.6,0.9c0.2-0.2,0.1-0.4,0.1-0.4h0h0c0,0,0,0,0,0c0.1,0.1,0.1,0.5-0.3,0.8c0,0,0.1,0,0.1,0v0l0,0c0,0,0,0,0,0
						l-0.1,0.1c0,0,0.1,0,0.3-0.1c-0.1,0.1-0.1,0.1-0.1,0.1C18.3,11.8,18.4,11.7,18.5,11.6L18.5,11.6z"/>
				</g>
				<path class="st9" d="M17.6,10.2c0.1,0.1,0.2,0.1,0.2,0.1c-0.1,0-0.2,0-0.2,0s-0.2-0.2-0.3-0.2c0,0-0.2-0.1-0.2-0.1
					c-0.1,0-0.2-0.4,0.2-0.3c0.3,0.2,0.4,0.2,0.4,0.2c0.1,0,0.3,0.1,0.4,0.1c0.1,0.1,0.2,0.2,0.2,0.3c0,0-0.4-0.2-0.5-0.2
					c0.1,0.1,0.2,0.2,0.2,0.2C17.9,10.2,17.8,10.2,17.6,10.2L17.6,10.2z"/>
				<g class="st4">
					<path d="M17.8,10.4L17.8,10.4c-0.1,0-0.2,0-0.2,0l0,0c-0.1-0.1-0.2-0.2-0.3-0.2l0,0c0,0-0.2-0.1-0.2-0.1C17,10,17,9.8,17,9.8
						c0-0.1,0.1-0.1,0.3-0.1c0.3,0.2,0.4,0.2,0.4,0.2l0.4,0.1l0.2,0.3c-0.2-0.1-0.4-0.2-0.5-0.2c0.1,0.1,0.2,0.2,0.2,0.2l0,0l-0.1,0
						c-0.1,0-0.2-0.1-0.3-0.1l0,0c0.1,0,0.2,0.1,0.4,0.1c0,0-0.1-0.1-0.2-0.2c0.1,0,0.4,0.2,0.5,0.2l-0.1-0.1L18.1,10l-0.4-0.1
						c0,0-0.1,0-0.4-0.2c-0.1,0-0.2,0-0.2,0.1c0,0.1,0,0.2,0.1,0.2c0.1,0.1,0.2,0.1,0.2,0.1c0,0,0.3,0.2,0.3,0.2
						C17.7,10.3,17.7,10.3,17.8,10.4c-0.1-0.1-0.1-0.1-0.2-0.1v0C17.8,10.3,17.8,10.3,17.8,10.4L17.8,10.4L17.8,10.4z"/>
				</g>
				<path class="st4" d="M16,8.3c0,0,0.4-0.1,0.5-0.1L16,8.3z"/>
				<g class="st4">
					<path class="st10" d="M16,8.3L16,8.3c0.1,0,0.4-0.1,0.5-0.1C16.4,8.2,16.2,8.3,16,8.3L16,8.3z"/>
				</g>
			</g>
		</g>
	</g>
</g>
</svg>
