<?xml version="1.0" encoding="utf-8"?>
<!-- Generator: Adobe Illustrator 21.1.0, SVG Export Plug-In . SVG Version: 6.00 Build 0)  -->
<svg version="1.1" id="Calque_1" xmlns="http://www.w3.org/2000/svg" xmlns:xlink="http://www.w3.org/1999/xlink" x="0px" y="0px"
	 viewBox="0 0 34 20" style="enable-background:new 0 0 34 20;" xml:space="preserve">
<style type="text/css">
	.st0{clip-path:url(#SVGID_2_);fill:#EFD22F;}
	.st1{clip-path:url(#SVGID_2_);fill:#383F8B;}
	.st2{clip-path:url(#SVGID_2_);fill:#BC0034;}
	.st3{clip-path:url(#SVGID_2_);fill:#FFFFFF;}
</style>
<g>
	<defs>
		<rect id="SVGID_1_" x="0.2" y="0.1" width="33.6" height="19.6"/>
	</defs>
	<clipPath id="SVGID_2_">
		<use xlink:href="#SVGID_1_"  style="overflow:visible;"/>
	</clipPath>
	<rect x="0.2" y="0.1" class="st0" width="33.6" height="6.5"/>
	<rect x="0.2" y="6.6" class="st1" width="33.6" height="6.5"/>
	<rect x="0.2" y="13.2" class="st2" width="33.6" height="6.5"/>
	<polygon class="st3" points="15.5,9 15.8,7.1 16.6,8.8 14.9,7.9 16.8,7.6 	"/>
	<polygon class="st3" points="17.3,8.8 18.2,7.1 18.4,9 17.1,7.6 19,7.9 	"/>
	<polygon class="st3" points="13.9,9.8 13.5,7.9 14.9,9.2 13,9 14.7,8.1 	"/>
	<polygon class="st3" points="19,9.2 20.4,7.9 20,9.8 19.3,8.1 20.9,9 	"/>
	<polygon class="st3" points="12.7,11.1 11.7,9.5 13.4,10.2 11.6,10.6 12.8,9.2 	"/>
	<polygon class="st3" points="20.5,10.2 22.2,9.5 21.2,11.1 21.1,9.2 22.3,10.6 	"/>
	<polygon class="st3" points="11.9,12.7 10.5,11.5 12.3,11.6 10.8,12.7 11.4,10.9 	"/>
	<polygon class="st3" points="21.6,11.6 23.4,11.5 22,12.7 22.5,10.9 23.1,12.7 	"/>
</g>
</svg>
